<svg width="120" height="120" viewBox="0 0 120 120" fill="none" xmlns="http://www.w3.org/2000/svg">
<g clip-path="url(#clip0_3903_23612)">
<mask id="mask0_3903_23612" style="mask-type:luminance" maskUnits="userSpaceOnUse" x="0" y="0" width="120" height="120">
<path d="M120 0H0V120H120V0Z" fill="white"/>
</mask>
<g mask="url(#mask0_3903_23612)">
<mask id="mask1_3903_23612" style="mask-type:luminance" maskUnits="userSpaceOnUse" x="0" y="0" width="120" height="120">
<path d="M120 0H0V120H120V0Z" fill="white"/>
</mask>
<g mask="url(#mask1_3903_23612)">
<mask id="mask2_3903_23612" style="mask-type:luminance" maskUnits="userSpaceOnUse" x="0" y="0" width="120" height="120">
<path d="M120 0H0V120H120V0Z" fill="white"/>
</mask>
<g mask="url(#mask2_3903_23612)">
<mask id="mask3_3903_23612" style="mask-type:luminance" maskUnits="userSpaceOnUse" x="0" y="0" width="120" height="120">
<path d="M120 0H0V120H120V0Z" fill="white"/>
</mask>
<g mask="url(#mask3_3903_23612)">
<mask id="mask4_3903_23612" style="mask-type:luminance" maskUnits="userSpaceOnUse" x="0" y="0" width="120" height="120">
<path d="M120 0H0V120H120V0Z" fill="white"/>
</mask>
<g mask="url(#mask4_3903_23612)">
<path d="M0 17.8125C0 7.97493 7.97493 0 17.8125 0H102.188C112.025 0 120 7.97493 120 17.8125V102.188C120 112.025 112.025 120 102.188 120H17.8125C7.97493 120 0 112.025 0 102.188V17.8125Z" fill="#2BBBB6"/>
<mask id="mask5_3903_23612" style="mask-type:luminance" maskUnits="userSpaceOnUse" x="14" y="40" width="92" height="40">
<path d="M105.703 40.3125H14.2969V79.8186H105.703V40.3125Z" fill="white"/>
</mask>
<g mask="url(#mask5_3903_23612)">
<path d="M102.229 58.8446C102.204 58.8489 99.5769 59.1595 97.27 57.4191C96.8858 57.1297 96.1553 56.368 95.2877 54.4106C95.3993 54.0446 95.4845 53.7596 95.5999 53.3936C95.6642 53.351 95.7239 53.3128 95.7789 53.2702C96.4032 52.8276 96.9369 52.2064 97.3126 51.4872C97.6759 50.8064 97.9068 50.0489 97.9703 49.3127C98.0431 48.5809 97.9532 47.8319 97.71 47.1426C97.6883 47.0787 97.6759 47.0107 97.6798 46.9426C97.6883 46.6362 97.6844 46.3085 97.6542 45.9468C97.6116 45.5043 97.5349 45.1085 97.4071 44.7171C97.3002 44.4022 97.1678 44.0234 96.9493 43.6107C96.7874 43.3043 96.5868 43.0149 96.3598 42.7511C95.9501 42.2192 95.4543 41.8149 94.8694 41.5469C94.3357 41.3043 93.8229 41.1766 93.2892 41.1469C93.1134 41.1384 92.9344 41.1469 92.7594 41.1681C92.6478 41.1128 92.537 41.066 92.4216 41.0277L92.3534 41.0064C91.7937 40.8277 91.2341 40.7554 90.6276 40.7894C90.0252 40.832 89.4485 41.0022 88.9487 41.2915C88.8462 41.3511 88.7309 41.3767 88.6155 41.3724C88.1457 41.3469 87.6715 41.4022 87.1717 41.5426L87.1247 41.5554C86.6677 41.6958 86.0696 41.9298 85.51 42.4745C85.4118 42.5724 85.3178 42.6788 85.2281 42.7937C85.1726 42.8617 85.1085 42.9213 85.0273 42.9596C84.6813 43.1341 84.3652 43.3724 84.1003 43.6575C83.5365 44.2617 83.2033 45.083 83.1649 45.9638C83.135 46.5468 83.2247 47.1298 83.4211 47.6702C83.4297 47.734 83.4382 47.7979 83.4468 47.866C83.4767 48.0915 83.5194 48.3085 83.5664 48.5255L83.6091 48.7128C83.6903 49.0532 83.7885 49.4745 84.0149 49.9468C84.1815 50.2957 84.3609 50.5978 84.5275 50.8702C83.0281 49.5553 81.0631 48.751 78.9145 48.751H76.8256C74.6428 48.751 72.7162 49.5979 71.3065 51.0106C70.9349 51.3808 70.3027 51.117 70.3027 50.5936V48.7936C70.3027 48.4702 70.0421 48.2064 69.7175 48.2064L62.7503 48.1341C62.4214 48.1298 62.1523 48.3936 62.1523 48.7213L62.1565 49.8872C62.1565 50.2106 61.8917 50.4744 61.567 50.4744H44.2708C43.9419 50.4744 43.6771 50.2063 43.6813 49.8787L43.6942 48.8064C43.6984 48.4788 43.4336 48.2107 43.1047 48.2107L31.2635 48.1638C30.9388 48.1638 30.674 48.4276 30.674 48.751V48.9425C30.674 49.2659 30.4091 49.5298 30.0845 49.5298H27.8632C27.5342 49.5298 27.2694 49.2659 27.2737 48.9383L27.2779 47.7766C27.2779 47.4489 27.0131 47.1851 26.6884 47.1851H20.3193C19.9947 47.1851 19.7298 47.4489 19.7298 47.7723V48.9425C19.7298 49.2659 19.465 49.5298 19.1403 49.5298H15.5649C15.2445 49.5298 14.9839 49.7808 14.9754 50.1L14.7661 56.4319C14.7532 56.7638 15.0224 57.0403 15.3556 57.0403C15.7486 57.0403 16.0219 57.4148 15.9194 57.7893C15.7614 58.3765 15.6802 58.9851 15.6802 59.602C15.6802 62.2105 17.107 64.4914 19.2257 65.7169C19.4094 65.8233 19.529 66.0147 19.529 66.2275C19.529 66.2275 19.5376 68.3892 19.6102 70.2616C19.6828 72.1381 19.9434 78.8743 19.9434 78.8743C19.9562 79.1892 20.2168 79.436 20.5329 79.436H42.5066C42.8099 79.436 43.0619 79.2061 43.0918 78.9083L43.2712 77.1593C43.3011 76.8657 43.5447 76.6403 43.8394 76.6317L61.614 76.07C61.9472 76.0615 62.2249 76.3254 62.2249 76.6572V78.4104C62.2249 78.7381 62.494 79.0019 62.8186 78.9977C62.8186 78.9977 67.0861 78.8572 70.2813 78.7424C73.4766 78.6274 79.2177 78.7424 79.2177 78.7424C79.4015 78.7424 79.5766 78.6572 79.692 78.5083L83.7885 73.0701C84.0235 72.7552 84.5019 72.7552 84.7368 73.0743L88.7736 78.5083C88.8847 78.6572 89.0598 78.7466 89.2478 78.7466H97.5133C98.0005 78.7466 98.2778 78.1891 97.9835 77.8019L92.1869 70.2445C91.9259 69.9041 92.1056 69.4105 92.5239 69.3169C92.7291 69.27 92.9259 69.2147 93.118 69.1466C94.0282 68.8275 94.8137 68.1467 95.2753 67.2998L95.2924 67.2744C95.9198 67.2531 96.5271 67.1765 97.0988 67.0445C102.101 65.9126 104.139 61.734 104.225 61.5595L105.258 59.3638C105.455 58.9425 105.108 58.4702 104.648 58.5297L102.229 58.8446Z" fill="black" stroke="black" stroke-width="2" stroke-miterlimit="10"/>
<path d="M96.1099 59.0797C94.7643 58.0627 93.6961 55.9223 92.9099 53.7734C92.8673 54.1904 92.8332 54.65 92.8293 55.1521C92.8247 55.4542 92.8332 55.7648 92.8549 56.0925C92.8673 56.2542 92.8758 56.4244 92.906 56.5734C92.9447 56.7265 92.9959 56.884 93.064 57.0456C93.3328 57.6839 93.7093 58.3563 93.9781 59.1095C94.1152 59.484 94.2299 59.8797 94.3027 60.2924C94.3794 60.7052 94.3925 61.135 94.3879 61.5606C94.3708 62.4116 94.2818 63.2755 94.1322 64.1435C94.0548 64.5775 93.9657 65.0158 93.8456 65.4498C93.8456 65.4498 93.8456 65.4498 93.8456 65.4541C94.7171 65.5477 95.6955 65.5435 96.6823 65.318C100.83 64.3775 102.496 60.8797 102.496 60.8797C102.496 60.8797 99.134 61.3648 96.1099 59.0797Z" fill="#D4242C" stroke="black" stroke-miterlimit="10" stroke-linecap="round" stroke-linejoin="round"/>
<path d="M62.7556 56.0079V52.5312H44.917V56.0079H48.1847L48.0266 71.5485L44.6562 71.7567V74.8333L62.7127 74.2631L62.7426 70.6465L59.1889 70.8418L58.8895 56.0121H62.7556V56.0079ZM55.1562 71.0886L51.8414 71.3269L52.3242 56.0121H55.1306L55.1562 71.0886Z" fill="white"/>
<path d="M76.8326 64.1517C73.2016 64.1517 70.5703 61.3007 70.5703 57.3688C70.5703 53.4412 73.2059 50.5859 76.8326 50.5859H78.9215C82.6763 50.5859 85.7306 53.6284 85.7306 57.3688C85.7306 61.1092 82.6763 64.1517 78.9215 64.1517H76.8326ZM76.8839 54.8326C75.0256 54.8326 74.8804 56.7731 74.8804 57.3688C74.8804 57.9645 75.0256 59.905 76.8839 59.905H78.8745C80.2799 59.905 81.4204 58.7688 81.4204 57.3688C81.4204 55.9688 80.2756 54.8326 78.8702 54.8326H76.8839Z" fill="#34BEBA"/>
<path d="M78.9241 50.8005C82.5679 50.8005 85.5197 53.7409 85.5197 57.3706C85.5197 61.0004 82.5679 63.9408 78.9241 63.9408H76.8353C73.1915 63.9408 70.7865 61.0004 70.7865 57.3706C70.7865 53.7409 73.1957 50.8005 76.8353 50.8005H78.9241ZM76.8865 60.1196H78.8772C80.4022 60.1196 81.6366 58.8898 81.6366 57.3706C81.6366 55.8515 80.4022 54.6217 78.8772 54.6217H76.8865C75.3615 54.6217 74.6695 55.8515 74.6695 57.3706C74.6695 58.8898 75.3615 60.1196 76.8865 60.1196ZM78.9241 50.375H76.8353C73.0804 50.375 70.3594 53.3154 70.3594 57.3706C70.3594 61.4217 73.0847 64.3664 76.8353 64.3664H78.9241C82.7943 64.3664 85.9468 61.2302 85.9468 57.3706C85.9468 53.5111 82.7986 50.375 78.9241 50.375ZM76.8865 59.6941C75.2718 59.6941 75.0967 58.0685 75.0967 57.3706C75.0967 56.6728 75.2718 55.0473 76.8865 55.0473H78.8772C80.1629 55.0473 81.2095 56.0898 81.2095 57.3706C81.2095 58.6515 80.1629 59.6941 78.8772 59.6941H76.8865Z" fill="black"/>
<path d="M32.5973 50.2188V55.7592H29.9531L30.2863 59.4314H32.5973V64.8825H36.617L36.2838 50.2188H32.5973Z" fill="white"/>
<path d="M64.0983 50.1953L64.1196 61.6633L60.9671 61.7229L60.7109 66.1484L64.1581 66.1867L64.1539 77.2079L68.37 77.1696L68.3956 50.2379L64.0983 50.1953Z" fill="white"/>
<path d="M25.3419 51.5868L25.3547 49.2422H21.6554V51.5868H16.854L16.7344 55.2591H29.6905V51.5868H25.3419Z" fill="white"/>
<path d="M41.5548 64.9293H37.5308L37.3984 50.2656H41.7556L41.5548 64.9293Z" fill="white"/>
<path d="M23.97 54.5703H22.791C19.929 54.5703 17.6094 56.8809 17.6094 59.732C17.6094 62.583 19.929 64.8936 22.791 64.8936H23.97C26.8321 64.8936 29.1516 62.583 29.1516 59.732C29.1516 56.8852 26.8321 54.5703 23.97 54.5703ZM23.5129 61.9107H23.2481C22.0435 61.9107 21.0653 60.9362 21.0653 59.7362C21.0653 58.5363 22.0435 57.5618 23.2481 57.5618H23.5129C24.7175 57.5618 25.6958 58.5363 25.6958 59.7362C25.6958 60.9362 24.7175 61.9107 23.5129 61.9107Z" fill="white"/>
<path d="M89.8168 77.1764L84.2763 69.7211L78.6675 77.1764H73.4219L81.8072 65.4531H86.2669L95.2591 77.1764H89.8168Z" fill="#34BEBA"/>
<path d="M86.1605 65.6756L94.8235 76.9733H89.9196L84.2767 69.3777L78.5568 76.9733H73.8323L81.9144 65.6756H86.1605ZM86.3741 65.25H86.1648H81.923H81.7008L81.5727 65.4288L73.4906 76.7265L73.0078 77.3989H73.8365H78.5611H78.7746L78.9028 77.2286L84.2809 70.0883L89.5821 77.2244L89.7103 77.3989H89.9239H94.8281H95.6911L95.1651 76.7138L86.5022 65.416L86.3741 65.25Z" fill="black"/>
<path d="M25.4044 74.4122V72.8804H41.2353L41.5686 66.1953H21.4531V69.0379H37.6386V70.2421H21.4744L21.8119 77.6675H41.308L41.6454 74.4122H25.4044Z" fill="white"/>
<path d="M94.125 45.4844C94.2017 45.8546 94.2877 46.3482 94.2745 46.8461L94.125 45.4844Z" fill="#34BEBA"/>
<path d="M94.2759 46.8352C94.028 46.8267 94.0319 46.6733 94.0234 46.4776C94.028 46.2861 94.0025 45.5031 94.1303 45.4776C94.2712 45.4435 94.523 46.2265 94.5191 46.452C94.5315 46.6648 94.506 46.8437 94.2759 46.8352Z" fill="black"/>
<path d="M94.4215 45.5703C94.4215 45.5703 94.3742 45.7192 94.1953 45.8767L94.4215 45.5703Z" fill="#34BEBA"/>
<path d="M94.2033 45.8754C94.0367 45.7009 94.0623 45.6797 94.0925 45.6456C94.1266 45.6201 94.3017 45.5392 94.4303 45.569C94.5751 45.6073 94.5286 45.9052 94.4682 45.9562C94.4132 46.0116 94.3574 46.0371 94.2033 45.8754Z" fill="black"/>
<path d="M94.4262 51.8079C95.4425 51.144 96.0235 49.6334 95.8058 48.4589C95.7973 48.4121 95.7887 48.3611 95.7756 48.3142C95.7717 48.3015 95.7756 48.2887 95.7717 48.2759C95.7245 48.0291 95.6516 47.7568 95.5153 47.5057C95.5362 46.9823 95.5409 46.4292 95.4386 45.91C95.4084 45.7058 95.3697 45.5057 95.3015 45.3143C95.0962 44.7143 94.8491 44.1483 94.3022 43.7611C94.0032 43.5483 93.3835 43.3313 92.9908 43.4164C92.7855 43.4632 92.6058 43.5568 92.4478 43.6845C92.2347 43.4207 91.9357 43.2079 91.6022 43.1228C90.7223 42.9015 89.9704 43.1228 89.539 43.7398C89.4706 43.8377 89.4108 43.9441 89.3553 44.0462C89.1716 43.8547 88.9495 43.693 88.7017 43.6504C88.2361 43.5739 87.6295 43.7185 87.2365 43.9738C86.9333 44.1738 86.7666 44.4973 86.7026 44.8419C86.4036 44.8589 86.1002 44.9228 85.861 45.11C85.3826 45.4845 85.2886 46.1057 85.3698 46.6632C85.3911 46.8121 85.4424 46.9823 85.5107 47.1483C85.5279 47.2079 85.5535 47.2717 85.5791 47.3355C85.6047 47.876 85.7671 48.51 85.8824 48.8972C85.9891 49.2376 86.3565 49.8376 86.5487 50.1398C86.9034 50.6972 87.4202 50.9397 87.8218 51.4972C88.2361 52.0716 88.7274 52.6504 88.9025 53.1567C89.0777 53.6631 89.4749 55.0547 89.2186 56.2291C89.0093 57.1908 88.1891 58.5397 88.0012 60.5865C87.9242 61.412 87.92 62.1396 87.9541 62.7652C88.0353 64.3269 89.0819 67.4801 91.0554 67.4758C93.0117 67.5397 93.3363 66.5992 93.6229 66.1013C94.114 65.2503 94.5757 62.4971 94.5153 60.8205C94.4432 58.7737 93.1356 57.1908 93.0504 56.2291C92.9048 54.5142 93.1914 52.9355 93.3324 52.3057C93.8963 52.1695 94.2039 51.9568 94.4262 51.8079Z" fill="#34BEBA"/>
<path d="M95.8499 47.797C95.8158 47.7077 95.7686 47.6268 95.7213 47.5502C95.7515 47.1885 95.7771 46.7545 95.7345 46.2651C95.7089 46.0098 95.6663 45.7375 95.5765 45.4609C95.4866 45.197 95.3882 44.9247 95.2472 44.6524C95.162 44.4949 95.0381 44.2992 94.863 44.1077C94.6624 43.8353 94.406 43.5928 94.0683 43.4353C93.7995 43.3162 93.5175 43.2226 93.1968 43.2056C93.0349 43.197 92.8513 43.2311 92.7057 43.2907C92.629 43.3205 92.5562 43.3545 92.488 43.3971C92.4408 43.4268 92.4578 43.4141 92.4408 43.4268L92.4284 43.4141L92.4237 43.4056L92.3982 43.38C92.3385 43.3247 92.2789 43.2694 92.2099 43.2183C92.0782 43.1162 91.9241 43.0311 91.7618 42.9715C91.4285 42.8651 91.1082 42.8226 90.7579 42.8396C90.4162 42.8651 90.0659 42.9715 89.7754 43.1758C89.6302 43.2779 89.5063 43.4013 89.3995 43.5332L89.3312 43.6226L89.3098 43.6566L89.2714 43.7162L89.2585 43.7034L89.2073 43.6609C89.1731 43.6353 89.1432 43.6141 89.1047 43.5928C88.9681 43.5077 88.7886 43.4396 88.6221 43.4268C88.3017 43.3885 87.9898 43.4353 87.6951 43.5162C87.4003 43.6056 87.1141 43.7247 86.8664 43.963C86.751 44.0779 86.6613 44.2141 86.593 44.3545C86.5588 44.4268 86.5332 44.4949 86.5076 44.5715L86.4862 44.6353H86.4734L86.3452 44.6524C86.2427 44.6694 86.1402 44.6949 86.0419 44.7332C85.8369 44.8056 85.649 44.9375 85.508 45.0907C85.2175 45.4013 85.0979 45.8098 85.0808 46.1843C85.0637 46.5587 85.1278 46.9417 85.2816 47.2864L85.3072 47.346L85.3157 47.4694C85.3243 47.5587 85.3328 47.6481 85.3456 47.7332C85.3713 47.9077 85.4012 48.0779 85.4397 48.2481C85.5208 48.5843 85.5849 48.9119 85.7429 49.2481C85.8924 49.5629 86.0633 49.8438 86.2342 50.1246C86.3965 50.414 86.6528 50.6907 86.892 50.8991C87.1312 51.1162 87.3534 51.3076 87.5242 51.5246C87.866 52.0012 88.2504 52.4608 88.4939 52.8991C88.5537 53.0097 88.6049 53.1161 88.6434 53.2268C88.6861 53.3459 88.7203 53.4651 88.7544 53.5842C88.8228 53.8225 88.8741 54.0523 88.9168 54.2778C89.092 55.1757 89.0492 55.9416 88.8698 56.4821C88.6562 57.1714 88.1821 58.1417 87.9044 59.3969C87.7635 60.0225 87.6908 60.7161 87.6652 61.4437C87.6439 62.1671 87.6353 62.9586 87.8147 63.7628C87.9898 64.5586 88.2718 65.3671 88.7332 66.1288C88.9724 66.5032 89.2542 66.8735 89.6302 67.1714C89.9976 67.4735 90.5059 67.682 91.0185 67.6735C91.4841 67.6863 91.9884 67.6479 92.4624 67.4735C92.9404 67.3033 93.3509 66.9288 93.5771 66.5118L93.7398 66.2139C93.7909 66.1161 93.8552 65.9969 93.8932 65.8905C93.983 65.6735 94.0473 65.4565 94.1109 65.2394C94.2309 64.8054 94.3208 64.3671 94.3975 63.9331C94.547 63.065 94.6407 62.2012 94.6539 61.3501C94.6577 60.9289 94.6453 60.4948 94.5687 60.082C94.4958 59.6693 94.3804 59.2735 94.2433 58.8991C93.9745 58.1459 93.5988 57.4735 93.3293 56.8352C93.2611 56.6736 93.21 56.5161 93.1712 56.363C93.1418 56.2183 93.1333 56.0438 93.1201 55.8821C93.0992 55.5587 93.0899 55.2438 93.0945 54.9417C93.0992 54.3416 93.1457 53.7927 93.2053 53.3118C93.2355 53.0693 93.2696 52.8481 93.2998 52.6395C93.3122 52.5629 93.3254 52.4906 93.3378 52.4182C93.3935 52.4055 93.4493 52.397 93.509 52.3842C93.8637 52.2991 94.265 52.1033 94.6368 51.8396C95.0257 51.563 95.3541 51.1672 95.5935 50.7161C95.8329 50.2651 95.9909 49.763 96.0335 49.2523C96.1063 48.7459 96.025 48.2438 95.8499 47.797ZM91.1637 46.5715C90.8903 46.5672 90.5871 46.6438 90.335 46.8098C90.083 46.98 89.895 47.2481 89.8566 47.5587C89.8437 47.7034 89.8566 47.8438 89.8865 47.9757C89.8566 47.946 89.8224 47.9162 89.7925 47.8821C89.5661 47.6609 89.438 47.1374 89.3782 46.5502C89.3611 46.4055 89.3483 46.2013 89.3354 45.963C89.3269 45.7204 89.314 45.4524 89.3568 45.1672C89.3952 44.8864 89.4807 44.5843 89.6259 44.3034C89.7712 44.0183 89.9548 43.763 90.2111 43.5971C90.7237 43.2566 91.4285 43.3332 91.8389 43.4694C91.9156 43.4992 91.9837 43.5375 92.048 43.5715C92.0736 43.5928 92.1038 43.6141 92.1294 43.6396C92.1673 43.6736 92.2277 43.7417 92.2874 43.8141C91.9241 44.1928 91.7105 44.6821 91.6166 45.1843C91.5311 45.6524 91.5055 46.1162 91.5097 46.5758C91.3944 46.5715 91.279 46.5672 91.1637 46.5715ZM85.7942 47.2694C85.6361 46.9247 85.5507 46.4566 85.6191 46.0523C85.6789 45.6438 85.965 45.329 86.2427 45.2141C86.3837 45.1502 86.5076 45.1162 86.5973 45.0907C86.5845 45.2141 86.5759 45.3375 86.5801 45.4609C86.6015 45.8311 86.6443 46.163 86.6955 46.4906C86.8023 47.1332 86.9945 47.6906 87.2294 47.9928C87.2593 48.0396 87.3021 48.0736 87.3405 48.1119C87.2936 48.1162 87.2423 48.1247 87.191 48.1332C86.939 48.163 86.61 48.1715 86.3239 47.9587C86.1787 47.8566 85.948 47.6268 85.7942 47.2694ZM87.6353 47.7162C87.4687 47.5034 87.2679 47.0183 87.1483 46.4055C87.0458 45.8055 86.8365 45.0439 87.1483 44.5247C87.2936 44.2779 87.6054 44.1332 87.8916 44.0353C88.1778 43.9375 88.464 43.9077 88.6989 43.9247C88.8015 43.929 88.8912 43.9588 88.9724 43.9928L89.0023 44.0141L89.0791 44.0779C89.1261 44.1205 89.1774 44.1673 89.2243 44.2183C89.0706 44.5077 88.9681 44.8141 88.9168 45.1034C88.857 45.4268 88.8613 45.7289 88.8613 45.9758C88.8655 46.2268 88.8784 46.4396 88.8954 46.597C88.9253 46.9119 88.9809 47.214 89.0706 47.4864C89.1133 47.6226 89.1731 47.7545 89.2457 47.8736C89.2756 47.9289 89.3183 47.9757 89.3568 48.0225C89.2457 48.0396 89.1133 48.0651 88.951 48.0821C88.7544 48.1034 88.5195 48.1119 88.2718 48.0694C88.0155 48.0183 87.772 47.9204 87.6353 47.7162ZM94.0086 46.597C93.7824 46.5758 93.4617 46.563 93.0899 46.597C92.7312 46.6396 92.3509 46.6311 91.8853 46.597C91.8815 46.597 91.8768 46.597 91.873 46.597C91.8815 46.146 91.9241 45.6864 92.0139 45.2651C92.0821 44.9758 92.1758 44.6992 92.3253 44.4651C92.4663 44.2396 92.6762 44.0098 92.8683 43.8949C93.0643 43.7758 93.2743 43.7843 93.5214 43.8396C93.7569 43.8949 93.9792 43.9885 94.1457 44.0949C94.4827 44.3247 94.6833 44.6311 94.8073 44.8651C94.9312 45.0992 95.0257 45.3545 95.1109 45.6013C95.1876 45.8353 95.2302 46.0779 95.2558 46.3119C95.2813 46.5715 95.2898 46.8226 95.2945 47.0566C95.1791 46.963 95.0598 46.8821 94.9358 46.8268C94.564 46.6523 94.2348 46.6183 94.0086 46.597ZM93.227 52.2055C92.9667 52.2779 92.3509 52.3885 92.3555 52.4523C92.3555 52.4863 92.6677 52.5332 93.1627 52.4566C93.1503 52.5076 93.1418 52.5544 93.1286 52.6055C93.086 52.814 93.0388 53.0396 93.0008 53.2821C92.9195 53.7672 92.8598 54.3204 92.8343 54.9331C92.8211 55.2395 92.8211 55.5587 92.8343 55.8948C92.8467 56.0608 92.8467 56.2268 92.8807 56.4183C92.9195 56.597 92.9753 56.7714 93.0434 56.9416C93.3122 57.6182 93.667 58.2778 93.9187 59.0097C94.4912 60.4565 94.2867 62.1671 94.0047 63.8693C93.8382 64.716 93.6794 65.5841 93.2138 66.3118C93.0093 66.6778 92.7057 66.9458 92.3168 67.0905C91.9241 67.2309 91.4883 67.2735 91.0398 67.2565C90.1983 67.2649 89.5576 66.6012 89.1346 65.9161C88.7118 65.2097 88.4384 64.4352 88.2718 63.6778C88.1009 62.9246 88.1094 62.1756 88.1308 61.4608C88.1564 60.7459 88.2248 60.0863 88.3572 59.4863C88.6178 58.282 89.0748 57.3416 89.3013 56.6012C89.5063 55.9969 89.549 55.1459 89.3696 54.2055C89.3269 53.9672 89.2671 53.7246 89.1987 53.4778C89.1645 53.3544 89.1261 53.2268 89.0834 53.0991C89.0364 52.963 88.9724 52.8268 88.904 52.7034C88.6178 52.197 88.2504 51.7672 87.8959 51.2693C87.6951 51.0098 87.4431 50.797 87.2167 50.5885C86.9817 50.3799 86.7938 50.18 86.6399 49.9077C86.4734 49.6396 86.3068 49.3587 86.1701 49.0779C86.0505 48.8353 85.9821 48.5332 85.9095 48.2353C85.948 48.2694 85.9907 48.3077 86.0249 48.3332C86.452 48.6524 87.0031 48.6311 87.2936 48.5204C87.4473 48.4609 87.5456 48.4098 87.6225 48.3332C87.8062 48.4353 87.9984 48.4991 88.1736 48.5247C88.4982 48.5758 88.7886 48.5417 89.0193 48.4821C89.25 48.4225 89.4209 48.3332 89.5277 48.2524C89.5447 48.2396 89.549 48.231 89.5618 48.2183C89.7584 48.3502 89.9334 48.4055 90.0531 48.4055C90.177 48.6268 90.3435 48.8311 90.57 48.9757C90.8305 49.1161 91.0398 49.1672 91.2705 49.2353C91.7148 49.3587 92.1247 49.4353 92.4795 49.4779C93.1883 49.5757 93.6623 49.4651 93.6453 49.4055C93.6329 49.3545 93.2014 49.3715 92.5267 49.2183C92.189 49.146 91.796 49.0481 91.3816 48.9119C91.1851 48.8439 90.9374 48.7587 90.7835 48.6651C90.6255 48.563 90.4888 48.3885 90.3991 48.197C90.3094 48.0055 90.2581 47.7843 90.2795 47.6013C90.3008 47.4268 90.4204 47.2523 90.5785 47.1545C90.7451 47.0481 90.9501 46.9928 91.1594 46.997C91.279 46.997 91.4285 47.0013 91.5183 47.0055C91.608 47.0098 92.0991 47.0311 92.7359 47.0226C93.0814 47.0183 93.4493 46.9885 93.7398 46.997C94.0086 47.0013 94.2139 47.0438 94.2906 47.0609C94.4315 47.0906 94.5772 47.1332 94.7267 47.2055C94.9358 47.3034 95.1318 47.4651 95.2813 47.6906C95.3503 47.7928 95.461 48.0396 95.5377 48.3417C95.6191 48.7034 95.6276 49.1034 95.5679 49.4991C95.4781 49.9417 95.3247 50.3246 95.1535 50.6226C94.7523 51.3289 94.6965 51.3459 94.4145 51.5843C94.1411 51.8268 93.4919 52.1374 93.227 52.2055Z" fill="black"/>
<path d="M93.0554 50.0615C92.8803 50.0317 92.6882 49.7083 92.5859 49.3594L93.0554 50.0615Z" fill="#34BEBA"/>
<path d="M92.5855 49.3629C92.8248 49.3033 92.8504 49.3927 92.893 49.499C92.9147 49.5501 92.9441 49.6905 92.9829 49.8054C93.0169 49.9288 93.051 50.0011 93.0557 50.065C93.051 50.0948 93.0038 50.1245 92.9271 50.1118C92.8543 50.1033 92.7691 50.0565 92.7009 50.0011C92.5599 49.8905 92.4615 49.7373 92.436 49.6693C92.3763 49.5374 92.3632 49.4182 92.5855 49.3629Z" fill="black"/>
<path d="M89.9891 59.0625C89.9891 59.0625 88.6008 61.6072 89.8482 64.1731L89.9891 59.0625Z" fill="#72CCD3"/>
</g>
</g>
</g>
</g>
</g>
</g>
</g>
<defs>
<clipPath id="clip0_3903_23612">
<rect width="120" height="120" fill="white"/>
</clipPath>
</defs>
</svg>
