<svg width="192" height="192" viewBox="0 0 192 192" fill="none" xmlns="http://www.w3.org/2000/svg">
<g clip-path="url(#clip0_3903_23756)">
<mask id="mask0_3903_23756" style="mask-type:luminance" maskUnits="userSpaceOnUse" x="0" y="0" width="192" height="192">
<path d="M192 0H0V192H192V0Z" fill="white"/>
</mask>
<g mask="url(#mask0_3903_23756)">
<mask id="mask1_3903_23756" style="mask-type:luminance" maskUnits="userSpaceOnUse" x="0" y="0" width="192" height="192">
<path d="M192 0H0V192H192V0Z" fill="white"/>
</mask>
<g mask="url(#mask1_3903_23756)">
<mask id="mask2_3903_23756" style="mask-type:luminance" maskUnits="userSpaceOnUse" x="0" y="0" width="192" height="192">
<path d="M192 0H0V192H192V0Z" fill="white"/>
</mask>
<g mask="url(#mask2_3903_23756)">
<mask id="mask3_3903_23756" style="mask-type:luminance" maskUnits="userSpaceOnUse" x="0" y="0" width="192" height="192">
<path d="M192 0H0V192H192V0Z" fill="white"/>
</mask>
<g mask="url(#mask3_3903_23756)">
<mask id="mask4_3903_23756" style="mask-type:luminance" maskUnits="userSpaceOnUse" x="0" y="0" width="192" height="192">
<path d="M192 0H0V192H192V0Z" fill="white"/>
</mask>
<g mask="url(#mask4_3903_23756)">
<path d="M0 28.5C0 12.7599 12.7599 0 28.5 0H163.5C179.24 0 192 12.7599 192 28.5V163.5C192 179.24 179.24 192 163.5 192H28.5C12.7599 192 0 179.24 0 163.5V28.5Z" fill="#2BBBB6"/>
<mask id="mask5_3903_23756" style="mask-type:luminance" maskUnits="userSpaceOnUse" x="22" y="64" width="148" height="64">
<path d="M169.125 64.5H22.875V127.71H169.125V64.5Z" fill="white"/>
</mask>
<g mask="url(#mask5_3903_23756)">
<path d="M163.567 94.1514C163.526 94.1582 159.323 94.6552 155.632 91.8705C155.017 91.4076 153.849 90.1889 152.46 87.0569C152.639 86.4714 152.775 86.0153 152.96 85.4297C153.063 85.3616 153.158 85.3004 153.246 85.2322C154.245 84.5242 155.099 83.5302 155.7 82.3795C156.281 81.2902 156.651 80.0783 156.752 78.9004C156.869 77.7294 156.725 76.5311 156.336 75.4281C156.301 75.326 156.281 75.217 156.288 75.1081C156.301 74.6179 156.295 74.0936 156.247 73.5149C156.179 72.8068 156.056 72.1737 155.851 71.5473C155.68 71.0435 155.468 70.4375 155.119 69.7771C154.86 69.2869 154.539 68.8239 154.176 68.4018C153.52 67.5507 152.727 66.9039 151.791 66.475C150.937 66.0869 150.117 65.8826 149.263 65.835C148.981 65.8214 148.695 65.835 148.415 65.869C148.236 65.7805 148.059 65.7056 147.875 65.6443L147.766 65.6103C146.87 65.3243 145.975 65.2086 145.004 65.2631C144.04 65.3312 143.118 65.6035 142.318 66.0665C142.154 66.1618 141.969 66.2026 141.785 66.1958C141.033 66.155 140.274 66.2435 139.475 66.4682L139.4 66.4886C138.668 66.7133 137.711 67.0877 136.816 67.9592C136.659 68.1158 136.508 68.286 136.365 68.4699C136.276 68.5788 136.174 68.6741 136.044 68.7354C135.49 69.0145 134.984 69.3958 134.561 69.852C133.658 70.8188 133.125 72.1328 133.064 73.5422C133.016 74.4749 133.159 75.4077 133.474 76.2723C133.488 76.3745 133.501 76.4766 133.515 76.5855C133.563 76.9464 133.631 77.2936 133.706 77.6409L133.775 77.9404C133.904 78.4852 134.062 79.1592 134.424 79.9149C134.69 80.4732 134.977 80.9565 135.244 81.3923C132.845 79.2885 129.701 78.0017 126.263 78.0017H122.921C119.428 78.0017 116.346 79.3566 114.09 81.617C113.496 82.2093 112.484 81.7872 112.484 80.9497V78.0698C112.484 77.5524 112.067 77.1302 111.548 77.1302L100.4 77.0145C99.8742 77.0077 99.4436 77.4298 99.4436 77.9541L99.4505 79.8195C99.4505 80.337 99.0267 80.7591 98.5073 80.7591H70.8333C70.307 80.7591 69.8833 80.3301 69.8901 79.806L69.9107 78.0902C69.9175 77.566 69.4937 77.1371 68.9675 77.1371L50.0215 77.0621C49.5021 77.0621 49.0784 77.4842 49.0784 78.0017V78.3081C49.0784 78.8255 48.6546 79.2476 48.1352 79.2476H44.581C44.0548 79.2476 43.631 78.8255 43.6379 78.3012L43.6447 76.4426C43.6447 75.9183 43.2209 75.4962 42.7015 75.4962H32.5109C31.9914 75.4962 31.5677 75.9183 31.5677 76.4358V78.3081C31.5677 78.8255 31.1439 79.2476 30.6245 79.2476H24.9038C24.3912 79.2476 23.9743 79.6493 23.9606 80.16L23.6257 90.291C23.6052 90.8221 24.0358 91.2646 24.5689 91.2646C25.1977 91.2646 25.6351 91.8637 25.4711 92.4628C25.2182 93.4024 25.0883 94.3761 25.0883 95.3633C25.0883 99.5369 27.3711 103.186 30.7612 105.147C31.0551 105.317 31.2464 105.624 31.2464 105.964C31.2464 105.964 31.2601 109.423 31.3763 112.419C31.4925 115.421 31.9094 126.199 31.9094 126.199C31.9299 126.703 32.3468 127.098 32.8526 127.098H68.0105C68.4959 127.098 68.8991 126.73 68.9469 126.253L69.234 123.455C69.2818 122.985 69.6715 122.624 70.1431 122.611L98.5824 121.712C99.1156 121.698 99.5598 122.121 99.5598 122.652V125.457C99.5598 125.981 99.9903 126.403 100.51 126.396C100.51 126.396 107.338 126.172 112.45 125.988C117.563 125.804 126.748 125.988 126.748 125.988C127.042 125.988 127.323 125.852 127.507 125.613L134.062 116.912C134.438 116.408 135.203 116.408 135.579 116.919L142.038 125.613C142.215 125.852 142.496 125.995 142.796 125.995H156.021C156.801 125.995 157.244 125.103 156.774 124.483L147.499 112.391C147.081 111.847 147.369 111.057 148.038 110.907C148.367 110.832 148.681 110.744 148.989 110.635C150.445 110.124 151.702 109.035 152.441 107.68L152.468 107.639C153.472 107.605 154.443 107.482 155.358 107.271C163.362 105.46 166.622 98.7744 166.759 98.4951L168.413 94.982C168.728 94.3079 168.174 93.5523 167.436 93.6476L163.567 94.1514Z" fill="black" stroke="black" stroke-width="2" stroke-miterlimit="10"/>
<path d="M153.774 94.5292C151.621 92.9019 149.912 89.4773 148.654 86.0391C148.586 86.7063 148.531 87.4416 148.525 88.245C148.518 88.7284 148.531 89.2254 148.566 89.7496C148.586 90.0084 148.599 90.2807 148.648 90.5191C148.71 90.7641 148.791 91.0161 148.901 91.2747C149.331 92.296 149.933 93.3718 150.363 94.5769C150.582 95.176 150.766 95.8092 150.882 96.4696C151.005 97.1301 151.026 97.8177 151.019 98.4986C150.991 99.8602 150.849 101.242 150.61 102.631C150.486 103.326 150.343 104.027 150.151 104.721C150.151 104.721 150.151 104.721 150.151 104.728C151.545 104.878 153.111 104.871 154.69 104.51C161.326 103.006 163.992 97.4092 163.992 97.4092C163.992 97.4092 158.613 98.1854 153.774 94.5292Z" fill="#D4242C" stroke="black" stroke-miterlimit="10" stroke-linecap="round" stroke-linejoin="round"/>
<path d="M100.404 89.6094V84.0469H71.8622V89.6094H77.0908L76.838 114.474L71.4453 114.808V119.73L100.336 118.818L100.384 113.031L94.6972 113.344L94.2187 89.6162H100.404V89.6094ZM88.2451 113.739L82.9414 114.12L83.7137 89.6162H88.2042L88.2451 113.739Z" fill="white"/>
<path d="M122.934 102.643C117.125 102.643 112.914 98.0812 112.914 91.7902C112.914 85.5059 117.131 80.9375 122.934 80.9375H126.276C132.284 80.9375 137.171 85.8055 137.171 91.7902C137.171 97.7748 132.284 102.643 126.276 102.643H122.934ZM123.016 87.7323C120.043 87.7323 119.811 90.837 119.811 91.7902C119.811 92.7433 120.043 95.8481 123.016 95.8481H126.201C128.45 95.8481 130.275 94.0302 130.275 91.7902C130.275 89.5503 128.443 87.7323 126.194 87.7323H123.016Z" fill="#34BEBA"/>
<path d="M126.274 81.2824C132.104 81.2824 136.827 85.9871 136.827 91.7947C136.827 97.6023 132.104 102.307 126.274 102.307H122.931C117.101 102.307 113.253 97.6023 113.253 91.7947C113.253 85.9871 117.108 81.2824 122.931 81.2824H126.274ZM123.013 96.193H126.199C128.639 96.193 130.614 94.2253 130.614 91.7947C130.614 89.3641 128.639 87.3964 126.199 87.3964H123.013C120.573 87.3964 119.466 89.3641 119.466 91.7947C119.466 94.2253 120.573 96.193 123.013 96.193ZM126.274 80.6016H122.931C116.924 80.6016 112.57 85.3063 112.57 91.7947C112.57 98.2764 116.931 102.988 122.931 102.988H126.274C132.466 102.988 137.51 97.97 137.51 91.7947C137.51 85.6195 132.473 80.6016 126.274 80.6016ZM123.013 95.5122C120.43 95.5122 120.15 92.9113 120.15 91.7947C120.15 90.6781 120.43 88.0773 123.013 88.0773H126.199C128.256 88.0773 129.93 89.7453 129.93 91.7947C129.93 93.844 128.256 95.5122 126.199 95.5122H123.013Z" fill="black"/>
<path d="M52.1526 80.3516V89.2162H47.9219L48.4549 95.0918H52.1526V103.813H58.584L58.0509 80.3516H52.1526Z" fill="white"/>
<path d="M102.553 80.3125L102.587 98.6613L97.5428 98.7566L97.1328 105.837L102.648 105.898L102.642 123.532L109.387 123.471L109.428 80.3806L102.553 80.3125Z" fill="white"/>
<path d="M40.5377 82.5406L40.5581 78.7891H34.6393V82.5406H26.957L26.7656 88.4162H47.4955V82.5406H40.5377Z" fill="white"/>
<path d="M66.4861 103.891H60.0477L59.8359 80.4297H66.8073L66.4861 103.891Z" fill="white"/>
<path d="M38.3489 87.3125H36.4625C31.8832 87.3125 28.1719 91.0096 28.1719 95.5712C28.1719 100.132 31.8832 103.829 36.4625 103.829H38.3489C42.9281 103.829 46.6394 100.132 46.6394 95.5712C46.6394 91.0164 42.9281 87.3125 38.3489 87.3125ZM37.6175 99.0572H37.1938C35.2664 99.0572 33.7013 97.498 33.7013 95.578C33.7013 93.6581 35.2664 92.0989 37.1938 92.0989H37.6175C39.5449 92.0989 41.1102 93.6581 41.1102 95.578C41.1102 97.498 39.5449 99.0572 37.6175 99.0572Z" fill="white"/>
<path d="M143.709 123.484L134.844 111.556L125.87 123.484H117.477L130.893 104.727H138.029L152.416 123.484H143.709Z" fill="#34BEBA"/>
<path d="M137.857 105.072L151.717 123.148H143.872L134.844 110.995L125.697 123.148H118.137L131.064 105.072H137.857ZM138.202 104.391H137.868H131.077H130.721L130.521 104.677L117.59 122.754L116.812 123.829H118.144H125.701H126.045L126.249 123.557L134.855 112.132L143.331 123.55L143.536 123.829H143.883H151.73H153.107L152.269 122.733L138.409 104.657L138.202 104.391Z" fill="black"/>
<path d="M40.6425 119.053V116.602H65.972L66.5052 105.906H34.3203V110.454H60.2172V112.38H34.3545L34.8945 124.261H66.0883L66.6282 119.053H40.6425Z" fill="white"/>
<path d="M150.602 72.7734C150.725 73.3657 150.862 74.1555 150.841 74.9521L150.602 72.7734Z" fill="#34BEBA"/>
<path d="M150.839 74.9471C150.443 74.9335 150.452 74.6884 150.438 74.3752C150.446 74.0688 150.4 72.8161 150.604 72.7752C150.83 72.7207 151.235 73.9735 151.229 74.3343C151.248 74.6748 151.208 74.9607 150.839 74.9471Z" fill="black"/>
<path d="M151.081 72.9141C151.081 72.9141 151.005 73.1524 150.719 73.4043L151.081 72.9141Z" fill="#34BEBA"/>
<path d="M150.721 73.4069C150.454 73.1277 150.495 73.0937 150.544 73.0392C150.598 72.9983 150.878 72.869 151.084 72.9166C151.316 72.9779 151.242 73.4545 151.145 73.5362C151.057 73.6247 150.968 73.6656 150.721 73.4069Z" fill="black"/>
<path d="M151.079 82.8816C152.705 81.8194 153.634 79.4025 153.286 77.5233C153.272 77.4485 153.259 77.3668 153.238 77.2918C153.231 77.2715 153.238 77.251 153.231 77.2305C153.156 76.8356 153.039 76.3999 152.821 75.9982C152.855 75.1608 152.862 74.2757 152.699 73.445C152.65 73.1182 152.588 72.7982 152.479 72.4918C152.151 71.5318 151.755 70.6263 150.88 70.0067C150.402 69.6663 149.41 69.3191 148.782 69.4553C148.454 69.5301 148.166 69.68 147.913 69.8843C147.572 69.4622 147.094 69.1216 146.56 68.9855C145.152 68.6314 143.949 68.9856 143.259 69.9728C143.15 70.1294 143.054 70.2995 142.965 70.4629C142.671 70.1565 142.316 69.8978 141.92 69.8297C141.175 69.7072 140.204 69.9387 139.575 70.3472C139.09 70.6672 138.823 71.1846 138.721 71.7361C138.242 71.7633 137.757 71.8656 137.374 72.1651C136.609 72.7643 136.459 73.7583 136.588 74.6502C136.623 74.8885 136.705 75.1609 136.814 75.4264C136.841 75.5217 136.882 75.6237 136.923 75.7258C136.964 76.5905 137.224 77.6049 137.409 78.2245C137.579 78.7692 138.167 79.7292 138.475 80.2127C139.042 81.1045 139.869 81.4926 140.512 82.3845C141.175 83.3036 141.961 84.2296 142.241 85.0398C142.521 85.85 143.157 88.0764 142.746 89.9555C142.412 91.4942 141.099 93.6525 140.799 96.9274C140.676 98.2483 140.669 99.4124 140.723 100.413C140.853 102.912 142.528 107.957 145.685 107.95C148.815 108.052 149.335 106.547 149.793 105.751C150.579 104.389 151.318 99.9844 151.221 97.3018C151.106 94.027 149.014 91.4942 148.877 89.9555C148.644 87.2117 149.103 84.6858 149.329 83.6782C150.231 83.4603 150.723 83.1198 151.079 82.8816Z" fill="#34BEBA"/>
<path d="M153.36 76.4768C153.305 76.3338 153.23 76.2044 153.154 76.0819C153.202 75.5032 153.243 74.8087 153.175 74.0257C153.134 73.6172 153.066 73.1815 152.922 72.7389C152.778 72.3168 152.621 71.881 152.395 71.4453C152.259 71.1934 152.061 70.8802 151.781 70.5738C151.46 70.1381 151.049 69.75 150.509 69.4981C150.079 69.3075 149.628 69.1577 149.115 69.1304C148.856 69.1168 148.562 69.1713 148.329 69.2666C148.206 69.3143 148.09 69.3687 147.981 69.4368C147.905 69.4845 147.932 69.464 147.905 69.4845L147.885 69.464L147.878 69.4504L147.837 69.4096C147.741 69.3211 147.646 69.2326 147.536 69.1509C147.325 68.9875 147.078 68.8513 146.819 68.756C146.286 68.5858 145.773 68.5177 145.212 68.5449C144.666 68.5858 144.105 68.756 143.641 69.0828C143.408 69.2462 143.21 69.4436 143.039 69.6547L142.93 69.7977L142.896 69.8521L142.834 69.9474L142.813 69.927L142.732 69.8589C142.677 69.8181 142.629 69.784 142.567 69.75C142.349 69.6138 142.062 69.5049 141.795 69.4845C141.283 69.4232 140.784 69.4981 140.312 69.6274C139.84 69.7704 139.382 69.9611 138.986 70.3423C138.801 70.5262 138.658 70.744 138.549 70.9687C138.494 71.0845 138.453 71.1934 138.412 71.316L138.378 71.4181H138.357L138.152 71.4453C137.988 71.4725 137.824 71.5134 137.667 71.5747C137.339 71.6904 137.038 71.9015 136.813 72.1466C136.348 72.6436 136.156 73.2972 136.129 73.8964C136.102 74.4955 136.204 75.1083 136.45 75.6598L136.491 75.7551L136.505 75.9525C136.519 76.0955 136.532 76.2385 136.553 76.3746C136.594 76.6538 136.642 76.9261 136.703 77.1985C136.833 77.7364 136.936 78.2605 137.189 78.7984C137.428 79.3022 137.701 79.7517 137.975 80.2009C138.234 80.664 138.644 81.1066 139.027 81.4401C139.41 81.7874 139.765 82.0938 140.039 82.4409C140.585 83.2035 141.2 83.9389 141.59 84.6401C141.686 84.8171 141.768 84.9873 141.829 85.1644C141.898 85.355 141.952 85.5456 142.007 85.7363C142.116 86.1175 142.198 86.4852 142.267 86.846C142.547 88.2826 142.479 89.5081 142.192 90.3729C141.85 91.4758 141.091 93.0282 140.647 95.0366C140.421 96.0375 140.305 97.1472 140.264 98.3115C140.23 99.4689 140.216 100.735 140.503 102.022C140.784 103.295 141.235 104.589 141.973 105.808C142.356 106.407 142.807 106.999 143.408 107.476C143.996 107.959 144.809 108.293 145.629 108.279C146.374 108.3 147.181 108.238 147.94 107.959C148.704 107.687 149.361 107.088 149.723 106.42L149.984 105.944C150.065 105.787 150.168 105.597 150.229 105.426C150.373 105.079 150.476 104.732 150.577 104.385C150.769 103.69 150.913 102.989 151.036 102.294C151.275 100.905 151.425 99.5234 151.446 98.1617C151.452 97.4877 151.432 96.7933 151.31 96.1328C151.193 95.4724 151.009 94.8392 150.789 94.2401C150.359 93.035 149.758 91.9592 149.327 90.9379C149.218 90.6793 149.136 90.4273 149.074 90.1823C149.027 89.9507 149.013 89.6716 148.992 89.4128C148.959 88.8954 148.944 88.3916 148.951 87.9082C148.959 86.9482 149.033 86.0699 149.128 85.3005C149.177 84.9124 149.231 84.5584 149.28 84.2248C149.299 84.1022 149.32 83.9865 149.34 83.8707C149.43 83.8504 149.519 83.8367 149.614 83.8163C150.182 83.6801 150.824 83.3669 151.419 82.9449C152.041 82.5023 152.566 81.8691 152.949 81.1474C153.332 80.4256 153.585 79.6223 153.653 78.8052C153.77 77.995 153.64 77.1917 153.36 76.4768ZM145.862 74.5159C145.424 74.5091 144.939 74.6317 144.536 74.8972C144.133 75.1695 143.832 75.5985 143.77 76.0955C143.75 76.327 143.77 76.5517 143.818 76.7627C143.77 76.7151 143.716 76.6674 143.668 76.6129C143.306 76.2589 143.101 75.4215 143.005 74.4819C142.978 74.2504 142.957 73.9236 142.937 73.5423C142.923 73.1542 142.902 72.7253 142.971 72.2691C143.032 71.8198 143.169 71.3364 143.401 70.887C143.634 70.4309 143.928 70.0223 144.338 69.7568C145.158 69.2121 146.286 69.3347 146.942 69.5526C147.065 69.6002 147.174 69.6615 147.277 69.716C147.318 69.75 147.366 69.784 147.407 69.8249C147.468 69.8794 147.564 69.9883 147.66 70.104C147.078 70.71 146.737 71.493 146.586 72.2964C146.45 73.0453 146.409 73.7874 146.415 74.5227C146.231 74.5159 146.046 74.5091 145.862 74.5159ZM137.271 75.6325C137.018 75.081 136.881 74.3321 136.99 73.6853C137.086 73.0317 137.544 72.5279 137.988 72.344C138.214 72.2419 138.412 72.1874 138.555 72.1466C138.535 72.344 138.521 72.5415 138.528 72.7389C138.562 73.3313 138.631 73.8623 138.713 74.3866C138.884 75.4146 139.191 76.3066 139.567 76.79C139.615 76.8649 139.683 76.9193 139.745 76.9806C139.67 76.9874 139.588 77.001 139.505 77.0147C139.102 77.0623 138.576 77.0759 138.118 76.7355C137.886 76.5721 137.517 76.2044 137.271 75.6325ZM140.216 76.3474C139.95 76.007 139.629 75.2308 139.437 74.2504C139.273 73.2904 138.938 72.0717 139.437 71.2411C139.67 70.8462 140.168 70.6147 140.626 70.4581C141.084 70.3015 141.542 70.2538 141.918 70.2811C142.082 70.2879 142.226 70.3355 142.356 70.39L142.403 70.424L142.526 70.5262C142.602 70.5943 142.684 70.6691 142.759 70.7508C142.513 71.2138 142.349 71.704 142.267 72.167C142.171 72.6845 142.178 73.1679 142.178 73.5627C142.185 73.9644 142.205 74.3049 142.233 74.5568C142.28 75.0606 142.369 75.544 142.513 75.9797C142.581 76.1976 142.677 76.4087 142.793 76.5993C142.841 76.6878 142.909 76.7627 142.971 76.8376C142.793 76.8649 142.581 76.9057 142.321 76.9329C142.007 76.967 141.631 76.9806 141.235 76.9125C140.825 76.8308 140.435 76.6742 140.216 76.3474ZM150.414 74.5568C150.052 74.5227 149.539 74.5023 148.944 74.5568C148.37 74.6249 147.761 74.6113 147.016 74.5568C147.01 74.5568 147.003 74.5568 146.997 74.5568C147.01 73.8351 147.078 73.0998 147.222 72.4257C147.331 71.9628 147.481 71.5202 147.72 71.1457C147.946 70.7849 148.282 70.4172 148.589 70.2334C148.903 70.0428 149.239 70.0564 149.634 70.1449C150.011 70.2334 150.367 70.3832 150.633 70.5534C151.172 70.9211 151.493 71.4113 151.691 71.7857C151.89 72.1602 152.041 72.5687 152.177 72.9636C152.3 73.3381 152.368 73.7261 152.409 74.1006C152.45 74.5159 152.464 74.9176 152.471 75.2921C152.286 75.1423 152.095 75.0129 151.897 74.9244C151.302 74.6453 150.776 74.5908 150.414 74.5568ZM149.163 83.5304C148.747 83.6461 147.761 83.8231 147.769 83.9252C147.769 83.9796 148.268 84.0546 149.06 83.9321C149.04 84.0137 149.027 84.0886 149.006 84.1704C148.937 84.5039 148.862 84.8648 148.801 85.2529C148.671 86.029 148.576 86.9142 148.535 87.8946C148.514 88.3847 148.514 88.8954 148.535 89.4333C148.555 89.6988 148.555 89.9644 148.609 90.2708C148.671 90.5567 148.76 90.8358 148.869 91.1081C149.299 92.1907 149.867 93.2459 150.27 94.4171C151.186 96.7319 150.859 99.4689 150.407 102.192C150.141 103.547 149.887 104.936 149.142 106.1C148.815 106.686 148.329 107.115 147.707 107.346C147.078 107.571 146.381 107.639 145.664 107.612C144.317 107.625 143.292 106.563 142.615 105.467C141.939 104.337 141.501 103.098 141.235 101.886C140.961 100.681 140.975 99.4825 141.009 98.3388C141.05 97.1949 141.159 96.1396 141.371 95.1797C141.788 93.2528 142.52 91.7481 142.882 90.5635C143.21 89.5966 143.278 88.235 142.991 86.7303C142.923 86.349 142.827 85.961 142.718 85.5661C142.663 85.3687 142.602 85.1644 142.533 84.9601C142.458 84.7423 142.356 84.5244 142.246 84.3269C141.788 83.5167 141.2 82.8291 140.633 82.0324C140.312 81.6172 139.909 81.2767 139.547 80.9431C139.171 80.6095 138.87 80.2896 138.624 79.8538C138.357 79.4248 138.091 78.9754 137.872 78.5261C137.681 78.1381 137.571 77.6546 137.455 77.178C137.517 77.2326 137.585 77.2938 137.64 77.3347C138.323 77.8453 139.205 77.8112 139.67 77.6343C139.916 77.5389 140.073 77.4571 140.196 77.3347C140.49 77.498 140.797 77.6002 141.078 77.6411C141.597 77.7227 142.062 77.6682 142.431 77.5729C142.8 77.4776 143.073 77.3347 143.244 77.2053C143.271 77.1848 143.278 77.1712 143.299 77.1508C143.613 77.3618 143.893 77.4503 144.085 77.4503C144.283 77.8044 144.549 78.1313 144.912 78.3627C145.329 78.5874 145.664 78.669 146.033 78.778C146.743 78.9754 147.399 79.098 147.967 79.1662C149.101 79.3227 149.86 79.1457 149.832 79.0504C149.813 78.9687 149.122 78.9959 148.043 78.7508C147.502 78.6351 146.873 78.4784 146.21 78.2605C145.896 78.1517 145.5 78.0155 145.253 77.8656C145.001 77.7023 144.782 77.4232 144.638 77.1168C144.495 76.8104 144.413 76.4563 144.447 76.1636C144.481 75.8844 144.673 75.6053 144.925 75.4487C145.192 75.2785 145.52 75.19 145.855 75.1968C146.046 75.1968 146.286 75.2036 146.429 75.2104C146.573 75.2172 147.358 75.2512 148.377 75.2376C148.93 75.2308 149.519 75.1832 149.984 75.1968C150.414 75.2036 150.742 75.2717 150.865 75.2989C151.09 75.3466 151.323 75.4146 151.563 75.5304C151.897 75.687 152.211 75.9457 152.45 76.3066C152.56 76.47 152.738 76.8649 152.86 77.3482C152.99 77.927 153.004 78.5669 152.909 79.2001C152.765 79.9082 152.519 80.521 152.245 80.9976C151.603 82.1278 151.514 82.155 151.063 82.5364C150.626 82.9244 149.587 83.4214 149.163 83.5304Z" fill="black"/>
<path d="M148.892 80.1C148.612 80.0522 148.305 79.5348 148.141 78.9766L148.892 80.1Z" fill="#34BEBA"/>
<path d="M148.143 78.9759C148.526 78.8806 148.567 79.0236 148.635 79.1938C148.67 79.2755 148.717 79.5002 148.779 79.684C148.833 79.8814 148.888 79.9972 148.895 80.0993C148.888 80.147 148.812 80.1946 148.69 80.1743C148.573 80.1607 148.437 80.0857 148.328 79.9972C148.102 79.8202 147.945 79.575 147.904 79.4662C147.808 79.2551 147.787 79.0644 148.143 78.9759Z" fill="black"/>
<path d="M143.987 94.4922C143.987 94.4922 141.766 98.5637 143.762 102.669L143.987 94.4922Z" fill="#72CCD3"/>
</g>
</g>
</g>
</g>
</g>
</g>
</g>
<defs>
<clipPath id="clip0_3903_23756">
<rect width="192" height="192" fill="white"/>
</clipPath>
</defs>
</svg>
