<svg width="48" height="48" viewBox="0 0 48 48" fill="none" xmlns="http://www.w3.org/2000/svg">
<g clip-path="url(#clip0_3903_23274)">
<mask id="mask0_3903_23274" style="mask-type:luminance" maskUnits="userSpaceOnUse" x="0" y="0" width="48" height="48">
<path d="M48 0H0V48H48V0Z" fill="white"/>
</mask>
<g mask="url(#mask0_3903_23274)">
<mask id="mask1_3903_23274" style="mask-type:luminance" maskUnits="userSpaceOnUse" x="0" y="0" width="48" height="48">
<path d="M48 0H0V48H48V0Z" fill="white"/>
</mask>
<g mask="url(#mask1_3903_23274)">
<mask id="mask2_3903_23274" style="mask-type:luminance" maskUnits="userSpaceOnUse" x="0" y="0" width="48" height="48">
<path d="M48 0H0V48H48V0Z" fill="white"/>
</mask>
<g mask="url(#mask2_3903_23274)">
<mask id="mask3_3903_23274" style="mask-type:luminance" maskUnits="userSpaceOnUse" x="0" y="0" width="48" height="48">
<path d="M48 0H0V48H48V0Z" fill="white"/>
</mask>
<g mask="url(#mask3_3903_23274)">
<mask id="mask4_3903_23274" style="mask-type:luminance" maskUnits="userSpaceOnUse" x="0" y="0" width="48" height="48">
<path d="M48 0H0V48H48V0Z" fill="white"/>
</mask>
<g mask="url(#mask4_3903_23274)">
<path d="M0 7.125C0 3.18997 3.18997 0 7.125 0H40.875C44.81 0 48 3.18997 48 7.125V40.875C48 44.81 44.81 48 40.875 48H7.125C3.18997 48 0 44.81 0 40.875V7.125Z" fill="#2BBBB6"/>
<mask id="mask5_3903_23274" style="mask-type:luminance" maskUnits="userSpaceOnUse" x="5" y="16" width="38" height="16">
<path d="M42.2812 16.125H5.71875V31.9274H42.2812V16.125Z" fill="white"/>
</mask>
<g mask="url(#mask5_3903_23274)">
<path d="M40.8917 23.5378C40.8815 23.5396 39.8307 23.6638 38.908 22.9676C38.7543 22.8519 38.4621 22.5472 38.1151 21.7642C38.1597 21.6179 38.1938 21.5038 38.24 21.3574C38.2657 21.3404 38.2895 21.3251 38.3115 21.3081C38.5613 21.131 38.7748 20.8825 38.925 20.5949C39.0704 20.3225 39.1627 20.0196 39.1881 19.7251C39.2172 19.4323 39.1813 19.1328 39.084 18.857C39.0753 18.8315 39.0704 18.8043 39.0719 18.777C39.0753 18.6545 39.0738 18.5234 39.0617 18.3787C39.0447 18.2017 39.014 18.0434 38.9628 17.8868C38.9201 17.7609 38.8671 17.6094 38.7797 17.4443C38.715 17.3217 38.6347 17.206 38.5439 17.1004C38.38 16.8877 38.1817 16.726 37.9478 16.6187C37.7343 16.5217 37.5292 16.4707 37.3157 16.4587C37.2453 16.4553 37.1738 16.4587 37.1037 16.4673C37.0591 16.4451 37.0148 16.4264 36.9686 16.4111L36.9414 16.4026C36.7175 16.3311 36.4936 16.3022 36.251 16.3158C36.0101 16.3328 35.7794 16.4009 35.5795 16.5166C35.5385 16.5404 35.4924 16.5507 35.4462 16.549C35.2583 16.5387 35.0686 16.5609 34.8687 16.617L34.8499 16.6221C34.6671 16.6783 34.4278 16.7719 34.204 16.9898C34.1647 17.029 34.1271 17.0715 34.0912 17.1175C34.069 17.1447 34.0434 17.1685 34.0109 17.1838C33.8725 17.2536 33.7461 17.349 33.6401 17.463C33.4146 17.7047 33.2813 18.0332 33.2659 18.3855C33.254 18.6187 33.2899 18.8519 33.3684 19.0681C33.3719 19.0936 33.3753 19.1192 33.3787 19.1464C33.3907 19.2366 33.4078 19.3234 33.4265 19.4102L33.4436 19.4851C33.4761 19.6213 33.5154 19.7898 33.606 19.9787C33.6726 20.1183 33.7444 20.2391 33.811 20.3481C33.2113 19.8221 32.4253 19.5004 31.5658 19.5004H30.7302C29.8571 19.5004 29.0865 19.8391 28.5226 20.4043C28.374 20.5523 28.1211 20.4468 28.1211 20.2374V19.5175C28.1211 19.3881 28.0168 19.2826 27.887 19.2826L25.1001 19.2536C24.9686 19.2519 24.8609 19.3575 24.8609 19.4885L24.8626 19.9549C24.8626 20.0842 24.7567 20.1898 24.6268 20.1898H17.7083C17.5768 20.1898 17.4708 20.0825 17.4725 19.9515L17.4777 19.5225C17.4794 19.3915 17.3734 19.2843 17.2419 19.2843L12.5054 19.2655C12.3755 19.2655 12.2696 19.3711 12.2696 19.5004V19.577C12.2696 19.7064 12.1636 19.8119 12.0338 19.8119H11.1453C11.0137 19.8119 10.9078 19.7064 10.9095 19.5753L10.9112 19.1106C10.9112 18.9796 10.8052 18.874 10.6754 18.874H8.12772C7.99786 18.874 7.89192 18.9796 7.89192 19.1089V19.577C7.89192 19.7064 7.78598 19.8119 7.65612 19.8119H6.22595C6.0978 19.8119 5.99357 19.9123 5.99015 20.04L5.90643 22.5728C5.9013 22.7055 6.00895 22.8161 6.14222 22.8161C6.29942 22.8161 6.40878 22.9659 6.36777 23.1157C6.30455 23.3506 6.27209 23.594 6.27209 23.8408C6.27209 24.8842 6.84279 25.7965 7.6903 26.2868C7.76377 26.3293 7.81161 26.4059 7.81161 26.491C7.81161 26.491 7.81503 27.3557 7.84408 28.1046C7.87313 28.8552 7.97735 31.5497 7.97735 31.5497C7.98248 31.6757 8.08671 31.7744 8.21315 31.7744H17.0026C17.124 31.7744 17.2248 31.6825 17.2367 31.5633L17.3085 30.8637C17.3204 30.7463 17.4179 30.6561 17.5358 30.6527L24.6456 30.428C24.7789 30.4246 24.8899 30.5301 24.8899 30.6629V31.3642C24.8899 31.4952 24.9976 31.6008 25.1274 31.5991C25.1274 31.5991 26.8344 31.5429 28.1125 31.4969C29.3906 31.451 31.6871 31.4969 31.6871 31.4969C31.7606 31.4969 31.8307 31.4629 31.8768 31.4033L33.5154 29.228C33.6094 29.1021 33.8008 29.1021 33.8947 29.2297L35.5094 31.4033C35.5539 31.4629 35.6239 31.4986 35.6991 31.4986H39.0053C39.2002 31.4986 39.3111 31.2757 39.1934 31.1208L36.8748 28.0978C36.7703 27.9616 36.8422 27.7642 37.0095 27.7268C37.0917 27.708 37.1704 27.6859 37.2472 27.6587C37.6113 27.531 37.9255 27.2587 38.1101 26.9199L38.117 26.9097C38.3679 26.9012 38.6109 26.8706 38.8395 26.8178C40.8405 26.3651 41.6555 24.6936 41.6899 24.6238L42.1032 23.7455C42.1819 23.577 42.0434 23.3881 41.859 23.4119L40.8917 23.5378Z" fill="black" stroke="black" stroke-width="2" stroke-miterlimit="10"/>
<path d="M38.4455 23.6303C37.9073 23.2235 37.48 22.3674 37.1655 21.5078C37.1485 21.6746 37.1348 21.8585 37.1333 22.0593C37.1314 22.1801 37.1348 22.3044 37.1435 22.4355C37.1485 22.5002 37.1519 22.5682 37.164 22.6278C37.1795 22.6891 37.1999 22.7521 37.2272 22.8167C37.3347 23.0721 37.4853 23.341 37.5928 23.6423C37.6476 23.7921 37.6935 23.9504 37.7226 24.1155C37.7533 24.2806 37.7586 24.4525 37.7567 24.6227C37.7499 24.9631 37.7143 25.3087 37.6545 25.6559C37.6235 25.8295 37.5878 26.0048 37.5398 26.1784V26.1801C37.8884 26.2176 38.2797 26.2159 38.6745 26.1257C40.3334 25.7495 40.9999 24.3504 40.9999 24.3504C40.9999 24.3504 39.6552 24.5444 38.4455 23.6303Z" fill="#D4242C" stroke="black" stroke-miterlimit="10" stroke-linecap="round" stroke-linejoin="round"/>
<path d="M25.0991 22.3984V21.0078H17.9636V22.3984H19.2708L19.2075 28.6145L17.8594 28.6979V29.9285L25.082 29.7005L25.094 28.2536L23.6724 28.3319L23.5527 22.4001H25.0991V22.3984ZM22.0593 28.4307L20.7334 28.526L20.9265 22.4001H22.0491L22.0593 28.4307Z" fill="white"/>
<path d="M30.7316 25.6607C29.2792 25.6607 28.2266 24.5203 28.2266 22.9475C28.2266 21.3765 29.2809 20.2344 30.7316 20.2344H31.5671C33.0691 20.2344 34.2908 21.4514 34.2908 22.9475C34.2908 24.4437 33.0691 25.6607 31.5671 25.6607H30.7316ZM30.7521 21.9331C30.0088 21.9331 29.9507 22.7092 29.9507 22.9475C29.9507 23.1858 30.0088 23.962 30.7521 23.962H31.5483C32.1105 23.962 32.5667 23.5075 32.5667 22.9475C32.5667 22.3875 32.1088 21.9331 31.5466 21.9331H30.7521Z" fill="#34BEBA"/>
<path d="M31.5665 20.3186C33.024 20.3186 34.2047 21.4948 34.2047 22.9467C34.2047 24.3986 33.024 25.5748 31.5665 25.5748H30.731C29.2735 25.5748 28.3115 24.3986 28.3115 22.9467C28.3115 21.4948 29.2752 20.3186 30.731 20.3186H31.5665ZM30.7515 24.0463H31.5477C32.1577 24.0463 32.6515 23.5544 32.6515 22.9467C32.6515 22.3391 32.1577 21.8471 31.5477 21.8471H30.7515C30.1415 21.8471 29.8647 22.3391 29.8647 22.9467C29.8647 23.5544 30.1415 24.0463 30.7515 24.0463ZM31.5665 20.1484H30.731C29.229 20.1484 28.1406 21.3246 28.1406 22.9467C28.1406 24.5671 29.2308 25.745 30.731 25.745H31.5665C33.1146 25.745 34.3756 24.4906 34.3756 22.9467C34.3756 21.4029 33.1163 20.1484 31.5665 20.1484ZM30.7515 23.8761C30.1056 23.8761 30.0355 23.2259 30.0355 22.9467C30.0355 22.6676 30.1056 22.0174 30.7515 22.0174H31.5477C32.062 22.0174 32.4807 22.4344 32.4807 22.9467C32.4807 23.4591 32.062 23.8761 31.5477 23.8761H30.7515Z" fill="black"/>
<path d="M13.0421 20.0859V22.302H11.9844L12.1177 23.7709H13.0421V25.9513H14.6499L14.5167 20.0859H13.0421Z" fill="white"/>
<path d="M25.6362 20.0781L25.6448 24.6653L24.3839 24.6892L24.2812 26.4594L25.6602 26.4747L25.6586 30.8832L27.3449 30.8679L27.3554 20.0952L25.6362 20.0781Z" fill="white"/>
<path d="M10.1383 20.6331L10.1434 19.6953H8.66372V20.6331H6.74316L6.69531 22.102H11.8777V20.6331H10.1383Z" fill="white"/>
<path d="M16.6234 25.9671H15.0139L14.9609 20.1016H16.7038L16.6234 25.9671Z" fill="white"/>
<path d="M9.5833 21.8281H9.11171C7.96688 21.8281 7.03906 22.7523 7.03906 23.8927C7.03906 25.0332 7.96688 25.9574 9.11171 25.9574H9.5833C10.7281 25.9574 11.6559 25.0332 11.6559 23.8927C11.6559 22.754 10.7281 21.8281 9.5833 21.8281ZM9.40046 24.7642H9.29452C8.81268 24.7642 8.42139 24.3744 8.42139 23.8944C8.42139 23.4145 8.81268 23.0247 9.29452 23.0247H9.40046C9.88231 23.0247 10.2736 23.4145 10.2736 23.8944C10.2736 24.3744 9.88231 24.7642 9.40046 24.7642Z" fill="white"/>
<path d="M35.9252 30.869L33.709 27.8869L31.4655 30.869H29.3672L32.7214 26.1797H34.5052L38.1021 30.869H35.9252Z" fill="#34BEBA"/>
<path d="M34.4642 26.2718L37.9294 30.7909H35.9679L33.7107 27.7527L31.4227 30.7909H29.5329L32.7658 26.2718H34.4642ZM34.5496 26.1016H34.4659H32.7692H32.6803L32.6291 26.1731L29.3962 30.6922L29.2031 30.9611H29.5346H31.4244H31.5099L31.5611 30.893L33.7124 28.0369L35.8328 30.8913L35.8841 30.9611H35.9696H37.9313H38.2764L38.066 30.6871L34.6009 26.168L34.5496 26.1016Z" fill="black"/>
<path d="M10.1587 29.7634V29.1507H16.4911L16.6244 26.4766H8.57812V27.6136H15.0524V28.0953H8.58667L8.72165 31.0655H16.5201L16.6551 29.7634H10.1587Z" fill="white"/>
<path d="M37.6484 18.1875C37.679 18.3356 37.7134 18.5331 37.7082 18.7322L37.6484 18.1875Z" fill="#34BEBA"/>
<path d="M37.7104 18.7309C37.6113 18.7275 37.6128 18.6662 37.6094 18.5879C37.6113 18.5113 37.6011 18.1981 37.6522 18.1879C37.7086 18.1743 37.8093 18.4875 37.8077 18.5777C37.8127 18.6628 37.8025 18.7343 37.7104 18.7309Z" fill="black"/>
<path d="M37.7702 18.2266C37.7702 18.2266 37.7513 18.2862 37.6797 18.3492L37.7702 18.2266Z" fill="#34BEBA"/>
<path d="M37.6782 18.3518C37.6116 18.282 37.6218 18.2735 37.6339 18.2599C37.6475 18.2496 37.7175 18.2173 37.769 18.2292C37.8269 18.2445 37.8083 18.3637 37.7841 18.3841C37.7621 18.4062 37.7398 18.4164 37.6782 18.3518Z" fill="black"/>
<path d="M37.7736 20.7184C38.1802 20.4529 38.4125 19.8486 38.3255 19.3788C38.3221 19.3601 38.3187 19.3397 38.3134 19.3209C38.3118 19.3159 38.3134 19.3107 38.3118 19.3056C38.2929 19.2069 38.2638 19.098 38.2093 18.9975C38.2177 18.7882 38.2195 18.5669 38.1786 18.3593C38.1665 18.2776 38.151 18.1976 38.1238 18.121C38.0417 17.881 37.9428 17.6546 37.7241 17.4997C37.6045 17.4146 37.3566 17.3278 37.1995 17.3618C37.1174 17.3805 37.0455 17.418 36.9823 17.469C36.8971 17.3635 36.7775 17.2784 36.644 17.2444C36.2921 17.1559 35.9913 17.2444 35.8187 17.4912C35.7914 17.5303 35.7675 17.5729 35.7453 17.6137C35.6718 17.5371 35.583 17.4725 35.4839 17.4554C35.2976 17.4248 35.055 17.4827 34.8978 17.5848C34.7765 17.6648 34.7098 17.7942 34.6842 17.932C34.5646 17.9388 34.4433 17.9644 34.3476 18.0393C34.1562 18.189 34.1186 18.4376 34.1511 18.6605C34.1596 18.7201 34.1801 18.7882 34.2075 18.8546C34.2143 18.8784 34.2246 18.9039 34.2348 18.9295C34.245 19.1456 34.31 19.3992 34.3561 19.5541C34.3988 19.6903 34.5458 19.9303 34.6227 20.0512C34.7645 20.2741 34.9712 20.3712 35.1319 20.5941C35.2976 20.8239 35.4941 21.0554 35.5642 21.2579C35.6342 21.4605 35.7931 22.0171 35.6906 22.4869C35.6069 22.8716 35.2788 23.4111 35.2036 24.2299C35.1729 24.5601 35.1712 24.8511 35.1848 25.1013C35.2173 25.726 35.6359 26.9873 36.4253 26.9856C37.2078 27.0111 37.3377 26.6349 37.4523 26.4358C37.6488 26.0954 37.8334 24.9941 37.8093 24.3235C37.7804 23.5047 37.2574 22.8716 37.2233 22.4869C37.1651 21.8009 37.2797 21.1695 37.3361 20.9175C37.5617 20.8631 37.6847 20.778 37.7736 20.7184Z" fill="#34BEBA"/>
<path d="M38.3399 19.1173C38.3263 19.0815 38.3074 19.0492 38.2885 19.0186C38.3006 18.8739 38.3108 18.7003 38.2937 18.5045C38.2835 18.4024 38.2665 18.2935 38.2305 18.1828C38.1946 18.0773 38.1552 17.9684 38.0988 17.8594C38.0648 17.7964 38.0152 17.7181 37.9452 17.6416C37.8649 17.5326 37.7623 17.4356 37.6272 17.3726C37.5197 17.325 37.4069 17.2875 37.2787 17.2807C37.2139 17.2773 37.1405 17.2909 37.0822 17.3147C37.0515 17.3267 37.0224 17.3403 36.9951 17.3573C36.9762 17.3692 36.9831 17.3641 36.9762 17.3692L36.9713 17.3641L36.9694 17.3607L36.9592 17.3505C36.9353 17.3284 36.9115 17.3062 36.8839 17.2858C36.8312 17.245 36.7696 17.2109 36.7047 17.1871C36.5714 17.1445 36.4432 17.1275 36.3031 17.1343C36.1664 17.1445 36.0263 17.1871 35.9101 17.2688C35.852 17.3096 35.8025 17.359 35.7597 17.4118L35.7324 17.4475L35.7239 17.4611L35.7085 17.485L35.7033 17.4798L35.6829 17.4628C35.6692 17.4526 35.6572 17.4441 35.6418 17.4356C35.5872 17.4016 35.5154 17.3743 35.4488 17.3692C35.3206 17.3539 35.1959 17.3726 35.078 17.405C34.9601 17.4407 34.8456 17.4884 34.7465 17.5837C34.7004 17.6296 34.6645 17.6841 34.6371 17.7403C34.6235 17.7692 34.6132 17.7964 34.603 17.8271L34.5944 17.8526H34.5893L34.538 17.8594C34.497 17.8662 34.456 17.8764 34.4167 17.8918C34.3347 17.9207 34.2595 17.9735 34.2031 18.0347C34.0869 18.159 34.0391 18.3224 34.0323 18.4722C34.0254 18.622 34.0511 18.7752 34.1126 18.913L34.1228 18.9369L34.1262 18.9862C34.1297 19.022 34.1331 19.0577 34.1382 19.0918C34.1484 19.1615 34.1604 19.2296 34.1758 19.2977C34.2082 19.4322 34.2339 19.5632 34.2971 19.6977C34.3569 19.8237 34.4253 19.936 34.4936 20.0483C34.5585 20.1641 34.6611 20.2747 34.7567 20.3581C34.8524 20.4449 34.9413 20.5215 35.0096 20.6083C35.1463 20.799 35.3001 20.9828 35.3975 21.1581C35.4214 21.2024 35.4419 21.2449 35.4573 21.2892C35.4744 21.3368 35.4881 21.3845 35.5017 21.4322C35.5291 21.5275 35.5496 21.6194 35.5667 21.7096C35.6367 22.0687 35.6196 22.3751 35.5479 22.5913C35.4624 22.867 35.2728 23.2551 35.1617 23.7573C35.1053 24.0075 35.0763 24.2849 35.066 24.576C35.0575 24.8653 35.0541 25.1819 35.1258 25.5036C35.1959 25.8219 35.3087 26.1453 35.4932 26.45C35.5889 26.5998 35.7016 26.7479 35.852 26.867C35.999 26.9879 36.2023 27.0713 36.4073 27.0679C36.5936 27.073 36.7953 27.0576 36.9849 26.9879C37.1761 26.9198 37.3403 26.77 37.4308 26.6032L37.4959 26.484C37.5163 26.4449 37.542 26.3972 37.5572 26.3547C37.5932 26.2679 37.6189 26.1811 37.6443 26.0942C37.6923 25.9206 37.7283 25.7453 37.7589 25.5717C37.8187 25.2245 37.8562 24.8789 37.8615 24.5385C37.863 24.37 37.8581 24.1964 37.8274 24.0313C37.7983 23.8662 37.7521 23.7079 37.6973 23.5581C37.5898 23.2568 37.4395 22.9879 37.3316 22.7326C37.3044 22.6679 37.2839 22.6049 37.2684 22.5437C37.2567 22.4858 37.2533 22.416 37.248 22.3513C37.2396 22.2219 37.2359 22.096 37.2378 21.9751C37.2396 21.7351 37.2582 21.5156 37.2821 21.3232C37.2942 21.2262 37.3078 21.1377 37.3199 21.0543C37.3248 21.0236 37.3301 20.9947 37.3351 20.9658C37.3574 20.9607 37.3797 20.9573 37.4035 20.9522C37.5454 20.9181 37.7059 20.8398 37.8547 20.7343C38.0102 20.6237 38.1416 20.4654 38.2373 20.2849C38.3331 20.1045 38.3963 19.9037 38.4133 19.6994C38.4425 19.4969 38.4099 19.296 38.3399 19.1173ZM36.4654 18.6271C36.3561 18.6254 36.2348 18.656 36.1339 18.7224C36.0332 18.7905 35.9579 18.8977 35.9426 19.022C35.9374 19.0798 35.9426 19.136 35.9545 19.1888C35.9426 19.1769 35.9289 19.1649 35.917 19.1513C35.8264 19.0628 35.7751 18.8535 35.7512 18.6186C35.7444 18.5607 35.7393 18.479 35.7341 18.3837C35.7307 18.2866 35.7256 18.1794 35.7427 18.0654C35.758 17.953 35.7922 17.8322 35.8503 17.7198C35.9084 17.6058 35.9819 17.5037 36.0844 17.4373C36.2894 17.3011 36.5714 17.3318 36.7355 17.3862C36.7662 17.3981 36.7934 17.4135 36.8192 17.4271C36.8294 17.4356 36.8415 17.4441 36.8517 17.4543C36.8669 17.4679 36.891 17.4952 36.9149 17.5241C36.7696 17.6756 36.6841 17.8713 36.6466 18.0722C36.6124 18.2594 36.6021 18.4449 36.6038 18.6288C36.5577 18.6271 36.5116 18.6254 36.4654 18.6271ZM34.3176 18.9062C34.2544 18.7683 34.2202 18.5811 34.2476 18.4194C34.2715 18.256 34.3859 18.1301 34.497 18.0841C34.5534 18.0586 34.603 18.0449 34.6389 18.0347C34.6337 18.0841 34.6303 18.1335 34.632 18.1828C34.6406 18.3309 34.6577 18.4637 34.6781 18.5947C34.7209 18.8518 34.7977 19.0747 34.8917 19.1956C34.9037 19.2143 34.9208 19.2279 34.9362 19.2432C34.9174 19.2449 34.8969 19.2484 34.8763 19.2518C34.7756 19.2637 34.644 19.2671 34.5295 19.182C34.4714 19.1411 34.3791 19.0492 34.3176 18.9062ZM35.0541 19.0849C34.9874 18.9998 34.9071 18.8058 34.8593 18.5607C34.8183 18.3207 34.7345 18.016 34.8593 17.8084C34.9174 17.7096 35.0421 17.6518 35.1566 17.6126C35.2711 17.5735 35.3855 17.5616 35.4795 17.5684C35.5205 17.5701 35.5564 17.582 35.5889 17.5956L35.6008 17.6041L35.6316 17.6296C35.6504 17.6467 35.6709 17.6654 35.6897 17.6858C35.6282 17.8015 35.5872 17.9241 35.5667 18.0398C35.5427 18.1692 35.5445 18.2901 35.5445 18.3888C35.5462 18.4892 35.5513 18.5743 35.5581 18.6373C35.5701 18.7632 35.5923 18.8841 35.6282 18.993C35.6453 19.0475 35.6692 19.1003 35.6982 19.1479C35.7102 19.17 35.7273 19.1888 35.7427 19.2075C35.6982 19.2143 35.6453 19.2245 35.5803 19.2313C35.5017 19.2398 35.4077 19.2432 35.3087 19.2262C35.2061 19.2058 35.1087 19.1666 35.0541 19.0849ZM37.6034 18.6373C37.5129 18.6288 37.3846 18.6237 37.2359 18.6373C37.0924 18.6543 36.9403 18.6509 36.7541 18.6373H36.7491C36.7525 18.4569 36.7696 18.273 36.8055 18.1045C36.8328 17.9888 36.8703 17.8781 36.9301 17.7845C36.9865 17.6943 37.0704 17.6024 37.1473 17.5564C37.2257 17.5088 37.3096 17.5122 37.4085 17.5343C37.5027 17.5564 37.5916 17.5939 37.6582 17.6364C37.793 17.7284 37.8733 17.8509 37.9228 17.9445C37.9724 18.0381 38.0102 18.1403 38.0443 18.239C38.075 18.3326 38.092 18.4296 38.1022 18.5232C38.1125 18.6271 38.1159 18.7275 38.1177 18.8211C38.0716 18.7837 38.0239 18.7513 37.9743 18.7292C37.8255 18.6594 37.6939 18.6458 37.6034 18.6373ZM37.2907 20.8807C37.1866 20.9096 36.9403 20.9539 36.9422 20.9794C36.9422 20.993 37.067 21.0117 37.265 20.9811C37.2601 21.0015 37.2567 21.0202 37.2514 21.0407C37.2344 21.1241 37.2155 21.2143 37.2003 21.3113C37.1677 21.5053 37.1439 21.7266 37.1337 21.9717C37.1284 22.0943 37.1284 22.2219 37.1337 22.3564C37.1386 22.4228 37.1386 22.4892 37.1522 22.5658C37.1677 22.6373 37.19 22.707 37.2173 22.7751C37.3248 23.0458 37.4667 23.3096 37.5674 23.6024C37.7964 24.1811 37.7146 24.8653 37.6018 25.5462C37.5352 25.8849 37.4717 26.2321 37.2855 26.5232C37.2037 26.6696 37.0822 26.7768 36.9267 26.8347C36.7696 26.8908 36.5953 26.9079 36.4159 26.9011C36.0793 26.9044 35.823 26.6389 35.6538 26.3649C35.4847 26.0823 35.3753 25.7726 35.3087 25.4696C35.2403 25.1683 35.2437 24.8687 35.2523 24.5828C35.2625 24.2968 35.2898 24.033 35.3428 23.793C35.4471 23.3113 35.6299 22.9351 35.7204 22.639C35.8025 22.3973 35.8195 22.0568 35.7478 21.6807C35.7307 21.5853 35.7068 21.4883 35.6794 21.3896C35.6658 21.3403 35.6504 21.2892 35.6333 21.2381C35.6145 21.1837 35.5889 21.1292 35.5615 21.0798C35.4471 20.8773 35.3001 20.7054 35.1583 20.5062C35.078 20.4024 34.9772 20.3173 34.8866 20.2339C34.7926 20.1505 34.7175 20.0705 34.6559 19.9615C34.5893 19.8543 34.5227 19.7419 34.468 19.6296C34.4201 19.5326 34.3928 19.4117 34.3638 19.2926C34.3791 19.3062 34.3962 19.3215 34.4099 19.3318C34.5808 19.4594 34.8012 19.4509 34.9174 19.4067C34.9789 19.3828 35.0182 19.3624 35.0489 19.3318C35.1224 19.3726 35.1993 19.3981 35.2694 19.4084C35.3992 19.4288 35.5154 19.4151 35.6077 19.3913C35.6999 19.3675 35.7683 19.3318 35.811 19.2994C35.8178 19.2943 35.8195 19.2909 35.8247 19.2858C35.9033 19.3386 35.9733 19.3607 36.0212 19.3607C36.0707 19.4492 36.1374 19.5309 36.2279 19.5888C36.3322 19.6449 36.4159 19.6654 36.5082 19.6926C36.6859 19.7419 36.8498 19.7726 36.9917 19.7896C37.2753 19.8288 37.4649 19.7845 37.4581 19.7607C37.4531 19.7403 37.2805 19.7471 37.0106 19.6858C36.8755 19.6569 36.7183 19.6177 36.5526 19.5632C36.474 19.536 36.3749 19.502 36.3133 19.4645C36.2501 19.4237 36.1955 19.3539 36.1596 19.2773C36.1237 19.2007 36.1032 19.1122 36.1117 19.039C36.1203 18.9692 36.1681 18.8994 36.2313 18.8603C36.298 18.8177 36.38 18.7956 36.4637 18.7973C36.5116 18.7973 36.5714 18.799 36.6072 18.8007C36.6431 18.8024 36.8396 18.8109 37.0943 18.8075C37.2325 18.8058 37.3797 18.7939 37.4959 18.7973C37.6034 18.799 37.6855 18.816 37.7162 18.8228C37.7726 18.8347 37.8308 18.8518 37.8906 18.8807C37.9743 18.9198 38.0527 18.9845 38.1125 19.0747C38.1401 19.1156 38.1844 19.2143 38.215 19.3351C38.2476 19.4798 38.251 19.6398 38.2271 19.7981C38.1912 19.9751 38.1298 20.1283 38.0613 20.2475C37.9008 20.5301 37.8785 20.5368 37.7657 20.6322C37.6564 20.7292 37.3967 20.8534 37.2907 20.8807Z" fill="black"/>
<path d="M37.2268 20.023C37.1568 20.0111 37.08 19.8818 37.0391 19.7422L37.2268 20.023Z" fill="#34BEBA"/>
<path d="M37.0358 19.742C37.1315 19.7181 37.1417 19.7539 37.1588 19.7964C37.1675 19.8169 37.1792 19.873 37.1947 19.919C37.2084 19.9683 37.222 19.9973 37.2239 20.0228C37.222 20.0347 37.2031 20.0466 37.1724 20.0416C37.1433 20.0382 37.1092 20.0194 37.0819 19.9973C37.0255 19.953 36.9862 19.8917 36.976 19.8645C36.9521 19.8118 36.9468 19.7641 37.0358 19.742Z" fill="black"/>
<path d="M35.9987 23.6172C35.9987 23.6172 35.4434 24.6351 35.9424 25.6615L35.9987 23.6172Z" fill="#72CCD3"/>
</g>
</g>
</g>
</g>
</g>
</g>
</g>
<defs>
<clipPath id="clip0_3903_23274">
<rect width="48" height="48" fill="white"/>
</clipPath>
</defs>
</svg>
