<svg width="58" height="58" viewBox="0 0 58 58" fill="none" xmlns="http://www.w3.org/2000/svg">
<g clip-path="url(#clip0_3903_23324)">
<mask id="mask0_3903_23324" style="mask-type:luminance" maskUnits="userSpaceOnUse" x="0" y="0" width="58" height="58">
<path d="M58 0H0V58H58V0Z" fill="white"/>
</mask>
<g mask="url(#mask0_3903_23324)">
<mask id="mask1_3903_23324" style="mask-type:luminance" maskUnits="userSpaceOnUse" x="0" y="0" width="58" height="58">
<path d="M58 0H0V58H58V0Z" fill="white"/>
</mask>
<g mask="url(#mask1_3903_23324)">
<mask id="mask2_3903_23324" style="mask-type:luminance" maskUnits="userSpaceOnUse" x="0" y="0" width="58" height="58">
<path d="M58 0H0V58H58V0Z" fill="white"/>
</mask>
<g mask="url(#mask2_3903_23324)">
<mask id="mask3_3903_23324" style="mask-type:luminance" maskUnits="userSpaceOnUse" x="0" y="0" width="58" height="58">
<path d="M58 0H0V58H58V0Z" fill="white"/>
</mask>
<g mask="url(#mask3_3903_23324)">
<mask id="mask4_3903_23324" style="mask-type:luminance" maskUnits="userSpaceOnUse" x="0" y="0" width="58" height="58">
<path d="M58 0H0V58H58V0Z" fill="white"/>
</mask>
<g mask="url(#mask4_3903_23324)">
<path d="M0 8.60938C0 3.85455 3.85455 0 8.60938 0H49.3906C54.1455 0 58 3.85455 58 8.60938V49.3906C58 54.1455 54.1455 58 49.3906 58H8.60938C3.85455 58 0 54.1455 0 49.3906V8.60938Z" fill="#2BBBB6"/>
<mask id="mask5_3903_23324" style="mask-type:luminance" maskUnits="userSpaceOnUse" x="6" y="19" width="46" height="20">
<path d="M51.0937 19.4844H6.91406V38.579H51.0937V19.4844Z" fill="white"/>
</mask>
<g mask="url(#mask5_3903_23324)">
<path d="M49.4147 28.4416C49.4023 28.4436 48.1327 28.5938 47.0177 27.7525C46.832 27.6127 46.479 27.2446 46.0596 26.2984C46.1136 26.1216 46.1547 25.9838 46.2105 25.8069C46.2416 25.7863 46.2704 25.7678 46.297 25.7472C46.5988 25.5333 46.8567 25.2331 47.0383 24.8855C47.2139 24.5564 47.3255 24.1903 47.3562 23.8345C47.3914 23.4807 47.348 23.1188 47.2304 22.7856C47.2199 22.7547 47.2139 22.7218 47.2158 22.6889C47.2199 22.5408 47.218 22.3825 47.2034 22.2076C47.1829 21.9937 47.1458 21.8025 47.084 21.6132C47.0323 21.461 46.9683 21.278 46.8627 21.0785C46.7845 20.9304 46.6875 20.7906 46.5778 20.663C46.3798 20.4059 46.1401 20.2106 45.8575 20.081C45.5995 19.9637 45.3516 19.902 45.0937 19.8877C45.0087 19.8835 44.9222 19.8877 44.8376 19.8979C44.7837 19.8712 44.7301 19.8486 44.6743 19.8301L44.6414 19.8198C44.3709 19.7334 44.1004 19.6984 43.8072 19.7149C43.5161 19.7355 43.2373 19.8177 42.9958 19.9576C42.9462 19.9864 42.8905 19.9987 42.8347 19.9967C42.6076 19.9843 42.3785 20.0111 42.1369 20.0789L42.1142 20.0851C41.8933 20.153 41.6042 20.2661 41.3337 20.5293C41.2863 20.5767 41.2408 20.6281 41.1975 20.6836C41.1706 20.7165 41.1397 20.7453 41.1004 20.7638C40.9332 20.8481 40.7804 20.9633 40.6524 21.1011C40.3799 21.3932 40.2188 21.7901 40.2003 22.2159C40.1858 22.4976 40.2292 22.7794 40.3241 23.0406C40.3283 23.0715 40.3324 23.1023 40.3365 23.1352C40.351 23.2442 40.3716 23.3491 40.3943 23.454L40.415 23.5445C40.4542 23.7091 40.5017 23.9127 40.6111 24.141C40.6916 24.3096 40.7783 24.4556 40.8589 24.5873C40.1342 23.9517 39.1844 23.563 38.1459 23.563H37.1363C36.0812 23.563 35.1501 23.9723 34.4687 24.6551C34.2891 24.8341 33.9835 24.7065 33.9835 24.4536V23.5836C33.9835 23.4273 33.8576 23.2998 33.7007 23.2998L30.3332 23.2648C30.1742 23.2627 30.0442 23.3903 30.0442 23.5486L30.0462 24.1121C30.0462 24.2685 29.9182 24.396 29.7613 24.396H21.4015C21.2425 24.396 21.1145 24.2664 21.1165 24.1081L21.1228 23.5897C21.1248 23.4314 20.9968 23.3018 20.8378 23.3018L15.1146 23.2792C14.9577 23.2792 14.8297 23.4067 14.8297 23.563V23.6556C14.8297 23.8119 14.7016 23.9394 14.5447 23.9394H13.4711C13.3121 23.9394 13.1841 23.8119 13.1862 23.6535L13.1882 23.092C13.1882 22.9337 13.0602 22.8061 12.9033 22.8061H9.8249C9.66799 22.8061 9.53998 22.9337 9.53998 23.09V23.6556C9.53998 23.8119 9.41197 23.9394 9.25506 23.9394H7.52693C7.37208 23.9394 7.24614 24.0607 7.24201 24.215L7.14084 27.2754C7.13465 27.4358 7.26472 27.5695 7.42576 27.5695C7.61571 27.5695 7.74785 27.7505 7.6983 27.9315C7.62191 28.2153 7.58268 28.5094 7.58268 28.8077C7.58268 30.0684 8.27228 31.1708 9.29635 31.7632C9.38513 31.8146 9.44294 31.9071 9.44294 32.01C9.44294 32.01 9.44707 33.0548 9.48217 33.9598C9.51727 34.8668 9.64321 38.1226 9.64321 38.1226C9.64941 38.2748 9.77535 38.394 9.92814 38.394H20.5488C20.6954 38.394 20.8172 38.283 20.8316 38.139L20.9183 37.2937C20.9328 37.1518 21.0505 37.0428 21.193 37.0387L29.784 36.7672C29.9451 36.7631 30.0792 36.8906 30.0792 37.051V37.8984C30.0792 38.0567 30.2093 38.1843 30.3662 38.1822C30.3662 38.1822 32.4289 38.1143 33.9732 38.0588C35.5176 38.0032 38.2925 38.0588 38.2925 38.0588C38.3813 38.0588 38.4659 38.0177 38.5217 37.9457L40.5017 35.3172C40.6152 35.165 40.8465 35.165 40.96 35.3193L42.9111 37.9457C42.9648 38.0177 43.0495 38.0609 43.1403 38.0609H47.1353C47.3708 38.0609 47.5048 37.7914 47.3626 37.6042L44.5609 33.9515C44.4347 33.787 44.5216 33.5484 44.7238 33.5032C44.823 33.4805 44.9181 33.4538 45.0109 33.4209C45.4509 33.2666 45.8305 32.9376 46.0537 32.5283L46.0619 32.5159C46.3652 32.5056 46.6587 32.4686 46.935 32.4049C49.3529 31.8578 50.3376 29.8381 50.3791 29.7537L50.8786 28.6925C50.9737 28.4889 50.8063 28.2606 50.5836 28.2894L49.4147 28.4416Z" fill="black" stroke="black" stroke-width="2" stroke-miterlimit="10"/>
<path d="M46.4534 28.5569C45.8031 28.0654 45.2868 27.0308 44.9068 25.9922C44.8862 26.1938 44.8697 26.4159 44.8678 26.6586C44.8656 26.8046 44.8697 26.9547 44.8802 27.1131C44.8862 27.1913 44.8903 27.2735 44.9049 27.3455C44.9236 27.4196 44.9483 27.4957 44.9813 27.5738C45.1112 27.8823 45.2931 28.2073 45.4231 28.5713C45.4893 28.7523 45.5447 28.9436 45.5799 29.1431C45.617 29.3426 45.6234 29.5503 45.6211 29.756C45.6129 30.1673 45.5698 30.5849 45.4976 31.0044C45.4601 31.2142 45.4171 31.4261 45.359 31.6358C45.359 31.6358 45.359 31.6358 45.359 31.6379C45.7802 31.6832 46.2531 31.6811 46.7301 31.5721C48.7347 31.1175 49.54 29.4269 49.54 29.4269C49.54 29.4269 47.9151 29.6614 46.4534 28.5569Z" fill="#D4242C" stroke="black" stroke-miterlimit="10" stroke-linecap="round" stroke-linejoin="round"/>
<path d="M30.3339 27.071V25.3906H21.7119V27.071H23.2913L23.215 34.5821L21.5859 34.6829V36.1699L30.3133 35.8943L30.3277 34.1461L28.6099 34.2407L28.4654 27.073H30.3339V27.071ZM26.6609 34.36L25.0587 34.4752L25.292 27.073H26.6485L26.6609 34.36Z" fill="white"/>
<path d="M37.144 31.0021C35.389 31.0021 34.1172 29.6241 34.1172 27.7237C34.1172 25.8254 35.391 24.4453 37.144 24.4453H38.1536C39.9684 24.4453 41.4447 25.9159 41.4447 27.7237C41.4447 29.5316 39.9684 31.0021 38.1536 31.0021H37.144ZM37.1687 26.4979C36.2706 26.4979 36.2004 27.4358 36.2004 27.7237C36.2004 28.0117 36.2706 28.9495 37.1687 28.9495H38.1308C38.8101 28.9495 39.3614 28.4004 39.3614 27.7237C39.3614 27.0471 38.8081 26.4979 38.1288 26.4979H37.1687Z" fill="#34BEBA"/>
<path d="M38.1474 24.5573C39.9086 24.5573 41.3353 25.9785 41.3353 27.7329C41.3353 29.4873 39.9086 30.9085 38.1474 30.9085H37.1378C35.3767 30.9085 34.2143 29.4873 34.2143 27.7329C34.2143 25.9785 35.3787 24.5573 37.1378 24.5573H38.1474ZM37.1626 29.0615H38.1248C38.8618 29.0615 39.4585 28.4671 39.4585 27.7329C39.4585 26.9986 38.8618 26.4042 38.1248 26.4042H37.1626C36.4255 26.4042 36.091 26.9986 36.091 27.7329C36.091 28.4671 36.4255 29.0615 37.1626 29.0615ZM38.1474 24.3516H37.1378C35.323 24.3516 34.0078 25.7728 34.0078 27.7329C34.0078 29.6909 35.3251 31.1142 37.1378 31.1142H38.1474C40.018 31.1142 41.5418 29.5984 41.5418 27.7329C41.5418 25.8675 40.0201 24.3516 38.1474 24.3516ZM37.1626 28.8559C36.3822 28.8559 36.2975 28.0702 36.2975 27.7329C36.2975 27.3956 36.3822 26.6099 37.1626 26.6099H38.1248C38.7462 26.6099 39.252 27.1138 39.252 27.7329C39.252 28.352 38.7462 28.8559 38.1248 28.8559H37.1626Z" fill="black"/>
<path d="M15.7625 24.2734V26.9513H14.4844L14.6455 28.7262H15.7625V31.3608H17.7053L17.5443 24.2734H15.7625Z" fill="white"/>
<path d="M30.9809 24.2578L30.9911 29.8006L29.4675 29.8294L29.3438 31.9684L31.0098 31.9869L31.0077 37.3138L33.0456 37.2953L33.0581 24.2783L30.9809 24.2578Z" fill="white"/>
<path d="M12.254 24.9379L12.2602 23.8047H10.4722V24.9379H8.15156L8.09375 26.7128H14.3558V24.9379H12.254Z" fill="white"/>
<path d="M20.087 31.3843H18.1421L18.0781 24.2969H20.1841L20.087 31.3843Z" fill="white"/>
<path d="M11.5899 26.375H11.0201C9.63673 26.375 8.51562 27.4918 8.51562 28.8698C8.51562 30.2478 9.63673 31.3646 11.0201 31.3646H11.5899C12.9732 31.3646 14.0943 30.2478 14.0943 28.8698C14.0943 27.4939 12.9732 26.375 11.5899 26.375ZM11.369 29.9229H11.241C10.6587 29.9229 10.1859 29.4519 10.1859 28.8719C10.1859 28.2919 10.6587 27.8209 11.241 27.8209H11.369C11.9512 27.8209 12.424 28.2919 12.424 28.8719C12.424 29.4519 11.9512 29.9229 11.369 29.9229Z" fill="white"/>
<path d="M43.4164 37.299L40.7385 33.6956L38.0276 37.299H35.4922L39.5451 31.6328H41.7006L46.0468 37.299H43.4164Z" fill="#34BEBA"/>
<path d="M41.6462 31.7448L45.8333 37.2054H43.4631L40.7357 33.5341L37.9711 37.2054H35.6876L39.5939 31.7448H41.6462ZM41.7494 31.5391H41.6483H39.5981H39.4907L39.4288 31.6255L35.5224 37.0861L35.2891 37.4111H35.6896H37.9732H38.0764L38.1384 37.3288L40.7378 33.8776L43.3 37.3267L43.362 37.4111H43.4652H45.8356H46.2527L45.9984 37.0799L41.8114 31.6193L41.7494 31.5391Z" fill="black"/>
<path d="M12.2848 35.9638V35.2234H19.9364L20.0975 31.9922H10.375V33.3661H18.198V33.9482H10.3853L10.5484 37.5372H19.9715L20.1346 35.9638H12.2848Z" fill="white"/>
<path d="M45.5 21.9844C45.5371 22.1634 45.5787 22.4019 45.5723 22.6426L45.5 21.9844Z" fill="#34BEBA"/>
<path d="M45.5674 22.641C45.4476 22.6369 45.4495 22.5628 45.4453 22.4682C45.4476 22.3757 45.4352 21.9972 45.497 21.9849C45.5651 21.9684 45.6868 22.3469 45.685 22.4559C45.6909 22.5587 45.6786 22.6451 45.5674 22.641Z" fill="black"/>
<path d="M45.6405 22.0234C45.6405 22.0234 45.6177 22.0954 45.5312 22.1715L45.6405 22.0234Z" fill="#34BEBA"/>
<path d="M45.533 22.1747C45.4525 22.0904 45.4649 22.0801 45.4795 22.0636C45.496 22.0513 45.5806 22.0122 45.6427 22.0266C45.7127 22.0451 45.6903 22.1891 45.6611 22.2138C45.6345 22.2405 45.6075 22.2528 45.533 22.1747Z" fill="black"/>
<path d="M45.6399 25.0351C46.1311 24.7142 46.4119 23.9841 46.3067 23.4164C46.3026 23.3938 46.2985 23.3691 46.2921 23.3465C46.2903 23.3404 46.2921 23.3342 46.2903 23.328C46.2674 23.2087 46.2322 23.0771 46.1663 22.9557C46.1764 22.7028 46.1787 22.4354 46.1293 22.1845C46.1147 22.0857 46.0959 21.9891 46.063 21.8965C45.9638 21.6065 45.8443 21.333 45.58 21.1458C45.4355 21.043 45.136 20.9381 44.9461 20.9792C44.8469 21.0018 44.7601 21.0471 44.6837 21.1088C44.5807 20.9813 44.4362 20.8784 44.275 20.8373C43.8497 20.7304 43.4863 20.8373 43.2778 21.1355C43.2447 21.1828 43.2158 21.2343 43.189 21.2836C43.1002 21.1911 42.9928 21.1129 42.8731 21.0923C42.6481 21.0553 42.3549 21.1252 42.1649 21.2487C42.0183 21.3453 41.9378 21.5016 41.9068 21.6682C41.7623 21.6764 41.6157 21.7073 41.5001 21.7978C41.2689 21.9788 41.2234 22.2791 41.2626 22.5485C41.273 22.6205 41.2978 22.7028 41.3308 22.783C41.3391 22.8118 41.3515 22.8426 41.3638 22.8735C41.3762 23.1347 41.4547 23.4411 41.5104 23.6283C41.562 23.7928 41.7396 24.0828 41.8325 24.2289C42.0039 24.4983 42.2537 24.6155 42.4478 24.8849C42.6481 25.1626 42.8855 25.4423 42.9702 25.687C43.0548 25.9318 43.2468 26.6044 43.1229 27.172C43.0217 27.6368 42.6253 28.2888 42.5345 29.2781C42.4973 29.6771 42.4953 30.0288 42.5118 30.3312C42.551 31.086 43.0569 32.61 44.0107 32.6079C44.9563 32.6388 45.1131 32.1842 45.2517 31.9436C45.489 31.5323 45.7122 30.2016 45.683 29.3912C45.6482 28.4019 45.0162 27.6368 44.975 27.172C44.9046 26.3432 45.0431 25.5801 45.1113 25.2757C45.3838 25.2099 45.5325 25.1071 45.6399 25.0351Z" fill="#34BEBA"/>
<path d="M46.3314 23.101C46.3149 23.0578 46.2921 23.0187 46.2693 22.9817C46.2839 22.8069 46.2962 22.5971 46.2756 22.3605C46.2633 22.2371 46.2427 22.1055 46.1993 21.9718C46.1558 21.8443 46.1083 21.7127 46.0401 21.581C45.9989 21.505 45.939 21.4103 45.8544 21.3178C45.7575 21.1862 45.6335 21.0689 45.4703 20.9928C45.3404 20.9352 45.2041 20.89 45.0491 20.8818C44.9708 20.8776 44.8821 20.8941 44.8117 20.9229C44.7746 20.9373 44.7395 20.9537 44.7065 20.9743C44.6837 20.9887 44.6919 20.9825 44.6837 20.9887L44.6777 20.9825L44.6754 20.9784L44.6631 20.9661C44.6342 20.9393 44.6054 20.9126 44.5721 20.8879C44.5084 20.8386 44.4339 20.7974 44.3555 20.7686C44.1944 20.7172 44.0396 20.6967 43.8703 20.7049C43.7051 20.7172 43.5358 20.7686 43.3954 20.8674C43.3252 20.9167 43.2654 20.9764 43.2137 21.0401L43.1807 21.0833L43.1704 21.0998L43.1518 21.1286L43.1456 21.1224L43.1208 21.1018C43.1043 21.0895 43.0899 21.0792 43.0713 21.0689C43.0052 21.0278 42.9185 20.9949 42.838 20.9887C42.6831 20.9702 42.5324 20.9928 42.3899 21.0319C42.2475 21.0751 42.1091 21.1327 41.9894 21.2479C41.9336 21.3034 41.8903 21.3692 41.8573 21.4371C41.8407 21.472 41.8284 21.505 41.816 21.542L41.8056 21.5728H41.7994L41.7375 21.581C41.6879 21.5893 41.6384 21.6016 41.5909 21.6201C41.4918 21.6551 41.401 21.7188 41.3328 21.7929C41.1924 21.943 41.1346 22.1405 41.1263 22.3215C41.1181 22.5025 41.1491 22.6876 41.2234 22.8542L41.2358 22.883L41.2399 22.9426C41.2441 22.9858 41.2482 23.029 41.2544 23.0701C41.2667 23.1544 41.2812 23.2367 41.2998 23.319C41.339 23.4815 41.37 23.6398 41.4464 23.8023C41.5186 23.9545 41.6012 24.0903 41.6838 24.226C41.7623 24.3659 41.8862 24.4996 42.0018 24.6003C42.1174 24.7052 42.2248 24.7978 42.3073 24.9026C42.4725 25.133 42.6583 25.3551 42.776 25.567C42.8049 25.6204 42.8297 25.6719 42.8483 25.7254C42.8689 25.7829 42.8854 25.8405 42.902 25.8981C42.935 26.0133 42.9598 26.1244 42.9804 26.2333C43.0651 26.6673 43.0444 27.0375 42.9577 27.2988C42.8545 27.6319 42.6253 28.1009 42.4911 28.7076C42.423 29.0099 42.3879 29.3452 42.3755 29.6969C42.3652 30.0465 42.361 30.4291 42.4477 30.8178C42.5324 31.2024 42.6687 31.5932 42.8917 31.9613C43.0073 32.1423 43.1435 32.3213 43.3252 32.4652C43.5028 32.6112 43.7485 32.712 43.9962 32.7079C44.2213 32.7141 44.465 32.6956 44.6942 32.6112C44.9252 32.529 45.1236 32.348 45.2329 32.1464L45.3115 32.0025C45.3363 31.9552 45.3673 31.8976 45.3857 31.8462C45.4291 31.7412 45.4602 31.6364 45.4909 31.5315C45.5489 31.3217 45.5923 31.1099 45.6294 30.9001C45.7017 30.4805 45.747 30.063 45.7533 29.6516C45.7552 29.448 45.7492 29.2382 45.7122 29.0387C45.677 28.8392 45.6212 28.648 45.5549 28.467C45.425 28.1029 45.2434 27.778 45.1131 27.4694C45.0802 27.3913 45.0554 27.3152 45.0367 27.2412C45.0225 27.1712 45.0184 27.0869 45.012 27.0087C45.0019 26.8524 44.9974 26.7002 44.9997 26.5542C45.0019 26.2642 45.0244 25.9989 45.0532 25.7665C45.0678 25.6492 45.0843 25.5423 45.0989 25.4415C45.1049 25.4045 45.1112 25.3695 45.1172 25.3346C45.1442 25.3284 45.1711 25.3243 45.2 25.3181C45.3714 25.277 45.5654 25.1824 45.7451 25.0549C45.9331 24.9212 46.0918 24.7299 46.2075 24.5119C46.3232 24.2939 46.3996 24.0512 46.4202 23.8044C46.4553 23.5596 46.416 23.3169 46.3314 23.101ZM44.0664 22.5086C43.9343 22.5066 43.7877 22.5436 43.6659 22.6238C43.5441 22.7061 43.4532 22.8357 43.4347 22.9858C43.4284 23.0557 43.4347 23.1236 43.4491 23.1874C43.4347 23.173 43.4181 23.1586 43.4037 23.1421C43.2943 23.0352 43.2323 22.7822 43.2034 22.4983C43.1951 22.4284 43.189 22.3297 43.1828 22.2145C43.1786 22.0973 43.1724 21.9677 43.1931 21.8299C43.2117 21.6942 43.253 21.5481 43.3232 21.4124C43.3934 21.2746 43.4821 21.1512 43.606 21.071C43.8538 20.9064 44.1944 20.9435 44.3928 21.0093C44.4298 21.0237 44.4628 21.0422 44.4938 21.0586C44.5062 21.0689 44.5208 21.0792 44.5332 21.0915C44.5515 21.108 44.5807 21.1409 44.6095 21.1759C44.4339 21.3589 44.3307 21.5954 44.2853 21.8381C44.244 22.0644 44.2316 22.2886 44.2337 22.5107C44.1779 22.5086 44.1222 22.5066 44.0664 22.5086ZM41.4712 22.8459C41.3948 22.6793 41.3535 22.4531 41.3865 22.2577C41.4154 22.0603 41.5537 21.9081 41.6879 21.8525C41.7561 21.8217 41.816 21.8052 41.8593 21.7929C41.8531 21.8525 41.849 21.9122 41.851 21.9718C41.8614 22.1508 41.882 22.3112 41.9068 22.4696C41.9584 22.7801 42.0513 23.0495 42.1649 23.1956C42.1793 23.2182 42.2 23.2347 42.2186 23.2532C42.1959 23.2552 42.1711 23.2593 42.1463 23.2635C42.0245 23.2778 41.8655 23.282 41.7272 23.1791C41.657 23.1298 41.5455 23.0187 41.4712 22.8459ZM42.361 23.0619C42.2805 22.9591 42.1835 22.7246 42.1257 22.4284C42.0761 22.1384 41.9749 21.7703 42.1257 21.5193C42.1959 21.4001 42.3466 21.3301 42.4849 21.2828C42.6232 21.2355 42.7616 21.2211 42.8751 21.2293C42.9247 21.2314 42.968 21.2458 43.0073 21.2623L43.0217 21.2725L43.0589 21.3034C43.0816 21.324 43.1064 21.3466 43.1291 21.3713C43.0547 21.5111 43.0052 21.6592 42.9804 21.7991C42.9515 21.9554 42.9536 22.1014 42.9536 22.2207C42.9556 22.342 42.9619 22.4449 42.9701 22.521C42.9845 22.6732 43.0114 22.8192 43.0547 22.9508C43.0754 23.0166 43.1043 23.0804 43.1394 23.138C43.1539 23.1647 43.1745 23.1874 43.1931 23.21C43.1394 23.2182 43.0754 23.2305 42.9969 23.2388C42.902 23.2491 42.7884 23.2532 42.6687 23.2326C42.5448 23.2079 42.4271 23.1606 42.361 23.0619ZM45.4415 22.521C45.3321 22.5107 45.1771 22.5045 44.9974 22.521C44.8241 22.5415 44.6402 22.5374 44.4152 22.521H44.4092C44.4133 22.303 44.4339 22.0808 44.4774 21.8772C44.5103 21.7374 44.5556 21.6037 44.6279 21.4906C44.696 21.3815 44.7975 21.2705 44.8903 21.215C44.9851 21.1574 45.0865 21.1615 45.206 21.1882C45.3198 21.215 45.4272 21.2602 45.5077 21.3116C45.6706 21.4227 45.7676 21.5708 45.8275 21.6839C45.8874 21.797 45.9331 21.9204 45.9742 22.0397C46.0113 22.1528 46.0319 22.27 46.0443 22.3832C46.0566 22.5086 46.0607 22.63 46.063 22.7431C46.0072 22.6978 45.9495 22.6588 45.8896 22.632C45.7099 22.5477 45.5508 22.5313 45.4415 22.521ZM45.0637 25.2317C44.9379 25.2667 44.6402 25.3202 44.6425 25.351C44.6425 25.3675 44.7934 25.3901 45.0326 25.3531C45.0266 25.3778 45.0225 25.4004 45.0161 25.4251C44.9955 25.5258 44.9727 25.6349 44.9544 25.7521C44.9151 25.9865 44.8862 26.2539 44.8739 26.5501C44.8675 26.6982 44.8675 26.8524 44.8739 27.0149C44.8799 27.0951 44.8799 27.1753 44.8963 27.2679C44.915 27.3543 44.942 27.4386 44.975 27.5208C45.1049 27.8479 45.2763 28.1667 45.398 28.5204C45.6747 29.2197 45.5759 30.0465 45.4396 30.8692C45.3591 31.2785 45.2823 31.6981 45.0573 32.0498C44.9585 32.2267 44.8117 32.3562 44.6238 32.4261C44.4339 32.494 44.2233 32.5146 44.0066 32.5064C43.5998 32.5105 43.2901 32.1896 43.0857 31.8585C42.8813 31.5171 42.7492 31.1428 42.6687 30.7767C42.5861 30.4126 42.5902 30.0506 42.6005 29.7051C42.6129 29.3596 42.6459 29.0408 42.71 28.7508C42.8359 28.1687 43.0568 27.7142 43.1662 27.3563C43.2654 27.0643 43.286 26.6529 43.1993 26.1984C43.1786 26.0832 43.1497 25.966 43.1167 25.8467C43.1002 25.7871 43.0816 25.7254 43.0609 25.6637C43.0382 25.5978 43.0073 25.532 42.9742 25.4724C42.8359 25.2276 42.6583 25.0199 42.487 24.7792C42.3899 24.6538 42.2681 24.551 42.1587 24.4502C42.0451 24.3494 41.9543 24.2527 41.8799 24.1211C41.7994 23.9915 41.7189 23.8558 41.6528 23.72C41.595 23.6028 41.562 23.4568 41.5269 23.3128C41.5455 23.3293 41.5661 23.3478 41.5827 23.3601C41.7891 23.5144 42.0555 23.5041 42.1959 23.4506C42.2702 23.4218 42.3177 23.3971 42.3548 23.3601C42.4436 23.4095 42.5365 23.4403 42.6212 23.4527C42.7781 23.4774 42.9185 23.4609 43.03 23.4321C43.1415 23.4033 43.2241 23.3601 43.2757 23.321C43.2839 23.3149 43.286 23.3107 43.2922 23.3046C43.3872 23.3683 43.4718 23.3951 43.5296 23.3951C43.5895 23.502 43.67 23.6008 43.7794 23.6707C43.9054 23.7385 44.0066 23.7632 44.1181 23.7961C44.3328 23.8558 44.5309 23.8928 44.7024 23.9134C45.045 23.9607 45.2741 23.9072 45.2659 23.8784C45.2599 23.8537 45.0513 23.8619 44.7252 23.7879C44.562 23.753 44.372 23.7056 44.1717 23.6398C44.0768 23.6069 43.957 23.5658 43.8827 23.5205C43.8063 23.4712 43.7402 23.3869 43.6969 23.2943C43.6535 23.2017 43.6287 23.0948 43.639 23.0064C43.6494 22.922 43.7072 22.8377 43.7836 22.7904C43.8641 22.739 43.9632 22.7122 44.0644 22.7143C44.1222 22.7143 44.1944 22.7164 44.2378 22.7184C44.2811 22.7205 44.5186 22.7308 44.8263 22.7266C44.9933 22.7246 45.1711 22.7102 45.3115 22.7143C45.4415 22.7164 45.5407 22.7369 45.5777 22.7452C45.6459 22.7595 45.7163 22.7801 45.7885 22.8151C45.8896 22.8624 45.9843 22.9405 46.0566 23.0495C46.0899 23.0989 46.1435 23.2182 46.1805 23.3642C46.2198 23.5391 46.224 23.7324 46.1951 23.9236C46.1517 24.1375 46.0776 24.3227 45.9948 24.4666C45.8009 24.8081 45.7739 24.8163 45.6376 24.9315C45.5055 25.0487 45.1917 25.1988 45.0637 25.2317Z" fill="black"/>
<path d="M44.9847 24.1987C44.9001 24.1843 44.8072 24.028 44.7578 23.8594L44.9847 24.1987Z" fill="#34BEBA"/>
<path d="M44.7544 23.8608C44.8701 23.832 44.8825 23.8752 44.9031 23.9266C44.9136 23.9512 44.9278 24.0191 44.9465 24.0746C44.963 24.1343 44.9794 24.1693 44.9817 24.2001C44.9794 24.2145 44.9566 24.2289 44.9195 24.2228C44.8843 24.2186 44.8432 24.196 44.8102 24.1693C44.7421 24.1158 44.6945 24.0417 44.6822 24.0089C44.6533 23.9451 44.647 23.8875 44.7544 23.8608Z" fill="black"/>
<path d="M43.4992 28.5469C43.4992 28.5469 42.8282 29.7768 43.4311 31.017L43.4992 28.5469Z" fill="#72CCD3"/>
</g>
</g>
</g>
</g>
</g>
</g>
</g>
<defs>
<clipPath id="clip0_3903_23324">
<rect width="58" height="58" fill="white"/>
</clipPath>
</defs>
</svg>
