<svg width="72" height="72" viewBox="0 0 72 72" fill="none" xmlns="http://www.w3.org/2000/svg">
<g clip-path="url(#clip0_3903_23420)">
<mask id="mask0_3903_23420" style="mask-type:luminance" maskUnits="userSpaceOnUse" x="0" y="0" width="72" height="72">
<path d="M72 0H0V72H72V0Z" fill="white"/>
</mask>
<g mask="url(#mask0_3903_23420)">
<mask id="mask1_3903_23420" style="mask-type:luminance" maskUnits="userSpaceOnUse" x="0" y="0" width="72" height="72">
<path d="M72 0H0V72H72V0Z" fill="white"/>
</mask>
<g mask="url(#mask1_3903_23420)">
<mask id="mask2_3903_23420" style="mask-type:luminance" maskUnits="userSpaceOnUse" x="0" y="0" width="72" height="72">
<path d="M72 0H0V72H72V0Z" fill="white"/>
</mask>
<g mask="url(#mask2_3903_23420)">
<mask id="mask3_3903_23420" style="mask-type:luminance" maskUnits="userSpaceOnUse" x="0" y="0" width="72" height="72">
<path d="M72 0H0V72H72V0Z" fill="white"/>
</mask>
<g mask="url(#mask3_3903_23420)">
<mask id="mask4_3903_23420" style="mask-type:luminance" maskUnits="userSpaceOnUse" x="0" y="0" width="72" height="72">
<path d="M72 0H0V72H72V0Z" fill="white"/>
</mask>
<g mask="url(#mask4_3903_23420)">
<path d="M0 10.6875C0 4.78496 4.78496 0 10.6875 0H61.3125C67.215 0 72 4.78496 72 10.6875V61.3125C72 67.215 67.215 72 61.3125 72H10.6875C4.78496 72 0 67.215 0 61.3125V10.6875Z" fill="#2BBBB6"/>
<mask id="mask5_3903_23420" style="mask-type:luminance" maskUnits="userSpaceOnUse" x="8" y="24" width="56" height="24">
<path d="M63.4219 24.1875H8.57812V47.8912H63.4219V24.1875Z" fill="white"/>
</mask>
<g mask="url(#mask5_3903_23420)">
<path d="M61.3375 35.3068C61.3222 35.3093 59.7461 35.4957 58.362 34.4514C58.1315 34.2778 57.6932 33.8208 57.1726 32.6463C57.2396 32.4268 57.2907 32.2557 57.36 32.0361C57.3985 32.0106 57.4343 31.9877 57.4673 31.9621C57.8419 31.6966 58.1622 31.3238 58.3876 30.8923C58.6056 30.4838 58.7441 30.0294 58.7822 29.5876C58.8259 29.1485 58.7719 28.6992 58.626 28.2855C58.613 28.2472 58.6056 28.2064 58.6079 28.1655C58.613 27.9817 58.6107 27.7851 58.5925 27.5681C58.567 27.3026 58.521 27.0651 58.4443 26.8302C58.3801 26.6413 58.3007 26.4141 58.1696 26.1664C58.0725 25.9826 57.9521 25.809 57.8159 25.6507C57.57 25.3315 57.2726 25.089 56.9217 24.9281C56.6014 24.7826 56.2938 24.706 55.9735 24.6881C55.868 24.683 55.7607 24.6881 55.6556 24.7009C55.5887 24.6677 55.5222 24.6396 55.453 24.6166L55.4121 24.6039C55.0762 24.4966 54.7405 24.4532 54.3765 24.4737C54.0151 24.4992 53.6691 24.6013 53.3692 24.7749C53.3077 24.8107 53.2385 24.826 53.1693 24.8234C52.8874 24.8081 52.6029 24.8413 52.303 24.9256L52.2748 24.9332C52.0006 25.0175 51.6417 25.1579 51.306 25.4847C51.2471 25.5434 51.1907 25.6073 51.1369 25.6762C51.1035 25.717 51.0651 25.7528 51.0164 25.7758C50.8088 25.8804 50.6191 26.0234 50.4602 26.1945C50.1219 26.557 49.922 27.0498 49.8989 27.5783C49.881 27.9281 49.9348 28.2779 50.0527 28.6021C50.0578 28.6404 50.0629 28.6787 50.0681 28.7196C50.086 28.8549 50.1117 28.9851 50.1398 29.1153L50.1655 29.2277C50.2142 29.4319 50.2731 29.6847 50.409 29.9681C50.5089 30.1774 50.6165 30.3587 50.7165 30.5221C49.8169 29.7332 48.6379 29.2506 47.3487 29.2506H46.0954C44.7857 29.2506 43.6297 29.7587 42.7839 30.6064C42.561 30.8285 42.1816 30.6702 42.1816 30.3561V29.2762C42.1816 29.0821 42.0253 28.9238 41.8305 28.9238L37.6502 28.8804C37.4528 28.8779 37.2914 29.0362 37.2914 29.2328L37.2939 29.9323C37.2939 30.1264 37.135 30.2847 36.9402 30.2847H26.5625C26.3651 30.2847 26.2062 30.1238 26.2088 29.9272L26.2165 29.2838C26.2191 29.0873 26.0602 28.9264 25.8628 28.9264L18.7581 28.8983C18.5633 28.8983 18.4044 29.0566 18.4044 29.2506V29.3655C18.4044 29.5596 18.2455 29.7179 18.0507 29.7179H16.7179C16.5205 29.7179 16.3616 29.5596 16.3642 29.363L16.3668 28.666C16.3668 28.4694 16.2078 28.3111 16.0131 28.3111H12.1916C11.9968 28.3111 11.8379 28.4694 11.8379 28.6634V29.3655C11.8379 29.5596 11.679 29.7179 11.4842 29.7179H9.33893C9.1467 29.7179 8.99035 29.8685 8.98523 30.06L8.85964 33.8591C8.85195 34.0583 9.01342 34.2242 9.21333 34.2242C9.44914 34.2242 9.61317 34.4489 9.55166 34.6736C9.45683 35.0259 9.40813 35.391 9.40813 35.7612C9.40813 37.3263 10.2642 38.6948 11.5354 39.4301C11.6457 39.494 11.7174 39.6088 11.7174 39.7365C11.7174 39.7365 11.7225 41.0335 11.7661 42.1569C11.8097 43.2829 11.966 47.3246 11.966 47.3246C11.9737 47.5135 12.1301 47.6616 12.3197 47.6616H25.504C25.686 47.6616 25.8372 47.5237 25.8551 47.345L25.9627 46.2956C25.9807 46.1194 26.1268 45.9842 26.3036 45.979L36.9684 45.642C37.1683 45.6369 37.3349 45.7952 37.3349 45.9943V47.0463C37.3349 47.2429 37.4964 47.4012 37.6912 47.3986C37.6912 47.3986 40.2517 47.3143 42.1688 47.2454C44.0859 47.1764 47.5306 47.2454 47.5306 47.2454C47.6409 47.2454 47.746 47.1943 47.8152 47.105L50.2731 43.842C50.4141 43.6531 50.7011 43.6531 50.8421 43.8446L53.2641 47.105C53.3308 47.1943 53.4359 47.248 53.5487 47.248H58.508C58.8003 47.248 58.9667 46.9135 58.7901 46.6811L55.3121 42.1467C55.1555 41.9424 55.2633 41.6463 55.5143 41.5901C55.6375 41.562 55.7555 41.5288 55.8708 41.488C56.4169 41.2965 56.8882 40.888 57.1652 40.3799L57.1754 40.3646C57.5519 40.3518 57.9163 40.3059 58.2593 40.2267C61.2608 39.5476 62.4832 37.0404 62.5348 36.9357L63.1548 35.6183C63.2729 35.3655 63.0651 35.0821 62.7886 35.1178L61.3375 35.3068Z" fill="black" stroke="black" stroke-width="2" stroke-miterlimit="10"/>
<path d="M57.6644 35.4416C56.8571 34.8314 56.2161 33.5472 55.7444 32.2578C55.7188 32.508 55.6984 32.7838 55.696 33.0851C55.6933 33.2663 55.6984 33.4527 55.7114 33.6493C55.7188 33.7463 55.7239 33.8485 55.7421 33.9378C55.7653 34.0297 55.796 34.1242 55.8369 34.2212C55.9981 34.6042 56.224 35.0076 56.3853 35.4595C56.4676 35.6842 56.5364 35.9216 56.58 36.1693C56.6261 36.417 56.634 36.6748 56.6312 36.9302C56.6209 37.4408 56.5675 37.9591 56.4778 38.4799C56.4313 38.7403 56.3779 39.0033 56.3058 39.2637C56.3058 39.2637 56.3058 39.2637 56.3058 39.2663C56.8287 39.3225 57.4157 39.3199 58.0078 39.1846C60.4963 38.6203 61.496 36.5216 61.496 36.5216C61.496 36.5216 59.4789 36.8127 57.6644 35.4416Z" fill="#D4242C" stroke="black" stroke-miterlimit="10" stroke-linecap="round" stroke-linejoin="round"/>
<path d="M37.6565 33.6015V31.5156H26.9533V33.6015H28.914L28.8192 42.9257L26.7969 43.0508V44.8967L37.6308 44.5546L37.6488 42.3844L35.5164 42.5018L35.3369 33.604H37.6565V33.6015ZM33.0968 42.6499L31.108 42.7929L31.3976 33.604H33.0815L33.0968 42.6499Z" fill="white"/>
<path d="M46.1012 38.4911C43.9226 38.4911 42.3438 36.7805 42.3438 34.4214C42.3438 32.0648 43.9252 30.3516 46.1012 30.3516H47.3545C49.6074 30.3516 51.4398 32.1771 51.4398 34.4214C51.4398 36.6656 49.6074 38.4911 47.3545 38.4911H46.1012ZM46.132 32.8997C45.017 32.8997 44.9299 34.0639 44.9299 34.4214C44.9299 34.7788 45.017 35.9431 46.132 35.9431H47.3263C48.1696 35.9431 48.8539 35.2614 48.8539 34.4214C48.8539 33.5814 48.167 32.8997 47.3237 32.8997H46.132Z" fill="#34BEBA"/>
<path d="M47.3498 30.4819C49.5361 30.4819 51.3071 32.2462 51.3071 34.424C51.3071 36.6019 49.5361 38.3661 47.3498 38.3661H46.0965C43.9102 38.3661 42.4672 36.6019 42.4672 34.424C42.4672 32.2462 43.9128 30.4819 46.0965 30.4819H47.3498ZM46.1273 36.0734H47.3216C48.2366 36.0734 48.9773 35.3355 48.9773 34.424C48.9773 33.5125 48.2366 32.7747 47.3216 32.7747H46.1273C45.2122 32.7747 44.797 33.5125 44.797 34.424C44.797 35.3355 45.2122 36.0734 46.1273 36.0734ZM47.3498 30.2266H46.0965C43.8436 30.2266 42.2109 31.9909 42.2109 34.424C42.2109 36.8547 43.8462 38.6215 46.0965 38.6215H47.3498C49.6719 38.6215 51.5634 36.7398 51.5634 34.424C51.5634 32.1083 49.6745 30.2266 47.3498 30.2266ZM46.1273 35.8181C45.1584 35.8181 45.0533 34.8427 45.0533 34.424C45.0533 34.0053 45.1584 33.03 46.1273 33.03H47.3216C48.0931 33.03 48.721 33.6555 48.721 34.424C48.721 35.1925 48.0931 35.8181 47.3216 35.8181H46.1273Z" fill="black"/>
<path d="M19.5553 30.1328V33.457H17.9688L18.1686 35.6604H19.5553V38.9309H21.9671L21.7672 30.1328H19.5553Z" fill="white"/>
<path d="M38.4543 30.1172L38.4671 36.998L36.5756 37.0337L36.4219 39.6891L38.4902 39.712L38.4877 46.3247L41.0174 46.3018L41.0327 30.1427L38.4543 30.1172Z" fill="white"/>
<path d="M15.2036 30.9537L15.2113 29.5469H12.9917V30.9537H10.1108L10.0391 33.1571H17.8128V30.9537H15.2036Z" fill="white"/>
<path d="M24.9313 38.9624H22.517L22.4375 30.1641H25.0518L24.9313 38.9624Z" fill="white"/>
<path d="M14.3789 32.7422H13.6715C11.9542 32.7422 10.5625 34.1286 10.5625 35.8392C10.5625 37.5498 11.9542 38.9362 13.6715 38.9362H14.3789C16.0961 38.9362 17.4878 37.5498 17.4878 35.8392C17.4878 34.1312 16.0961 32.7422 14.3789 32.7422ZM14.1046 37.1465H13.9457C13.2229 37.1465 12.636 36.5618 12.636 35.8418C12.636 35.1218 13.2229 34.5371 13.9457 34.5371H14.1046C14.8274 34.5371 15.4143 35.1218 15.4143 35.8418C15.4143 36.5618 14.8274 37.1465 14.1046 37.1465Z" fill="white"/>
<path d="M53.8916 46.3074L50.5674 41.8342L47.2021 46.3074H44.0547L49.0859 39.2734H51.7617L57.157 46.3074H53.8916Z" fill="#34BEBA"/>
<path d="M51.6963 39.4037L56.894 46.1824H53.9517L50.566 41.625L47.134 46.1824H44.2993L49.1486 39.4037H51.6963ZM51.8244 39.1484H51.6988H49.1537H49.0204L48.9436 39.2556L44.0943 46.0343L43.8047 46.4377H44.3019H47.1366H47.2647L47.3417 46.3355L50.5685 42.0513L53.7492 46.333L53.8261 46.4377H53.9543H56.8968H57.4146L57.099 46.0267L51.9013 39.248L51.8244 39.1484Z" fill="black"/>
<path d="M15.2381 44.641V43.7219H24.7366L24.9366 39.7109H12.8672V41.4164H22.5786V42.139H12.8801L13.0825 46.5942H24.7802L24.9827 44.641H15.2381Z" fill="white"/>
<path d="M56.4766 27.2891C56.5226 27.5112 56.5742 27.8073 56.5663 28.1061L56.4766 27.2891Z" fill="#34BEBA"/>
<path d="M56.5656 28.1042C56.4169 28.0991 56.4192 28.0072 56.4141 27.8897C56.4169 27.7748 56.4015 27.305 56.4782 27.2897C56.5628 27.2693 56.7139 27.7391 56.7116 27.8744C56.719 28.0021 56.7037 28.1093 56.5656 28.1042Z" fill="black"/>
<path d="M56.6513 27.3438C56.6513 27.3438 56.6229 27.433 56.5156 27.5275L56.6513 27.3438Z" fill="#34BEBA"/>
<path d="M56.525 27.5315C56.4251 27.4268 56.4404 27.4141 56.4586 27.3937C56.479 27.3783 56.584 27.3298 56.6612 27.3477C56.7481 27.3707 56.7202 27.5494 56.684 27.58C56.651 27.6132 56.6175 27.6285 56.525 27.5315Z" fill="black"/>
<path d="M56.6526 31.0816C57.2624 30.6833 57.611 29.777 57.4804 29.0723C57.4753 29.0442 57.4701 29.0136 57.4622 28.9854C57.4599 28.9778 57.4622 28.9701 57.4599 28.9625C57.4316 28.8144 57.3879 28.651 57.3061 28.5004C57.3186 28.1863 57.3214 27.8544 57.2601 27.5429C57.2419 27.4204 57.2187 27.3004 57.1778 27.1855C57.0546 26.8255 56.9064 26.4859 56.5782 26.2536C56.3988 26.1259 56.027 25.9957 55.7914 26.0467C55.6682 26.0748 55.5604 26.131 55.4656 26.2076C55.3377 26.0493 55.1583 25.9216 54.9582 25.8706C54.4303 25.7378 53.9792 25.8706 53.7203 26.2408C53.6793 26.2995 53.6434 26.3633 53.6101 26.4246C53.4999 26.3097 53.3666 26.2127 53.2179 26.1872C52.9386 26.1412 52.5746 26.228 52.3388 26.3812C52.1569 26.5012 52.0569 26.6953 52.0184 26.9021C51.839 26.9123 51.657 26.9506 51.5135 27.0629C51.2265 27.2876 51.1701 27.6604 51.2187 27.9948C51.2316 28.0842 51.2623 28.1863 51.3033 28.2859C51.3136 28.3216 51.329 28.3599 51.3444 28.3982C51.3597 28.7225 51.4571 29.1029 51.5263 29.3352C51.5904 29.5395 51.8108 29.8995 51.9261 30.0808C52.1389 30.4152 52.449 30.5608 52.69 30.8952C52.9386 31.2399 53.2333 31.5871 53.3384 31.8909C53.4435 32.1948 53.6818 33.0297 53.528 33.7343C53.4025 34.3114 52.9103 35.1207 52.7976 36.3488C52.7514 36.8441 52.7489 37.2807 52.7694 37.656C52.8181 38.593 53.4461 40.485 54.6302 40.4824C55.8039 40.5207 55.9987 39.9564 56.1706 39.6577C56.4653 39.1471 56.7423 37.4952 56.706 36.4892C56.6628 35.2611 55.8783 34.3114 55.8272 33.7343C55.7398 32.7054 55.9117 31.7582 55.9963 31.3803C56.3347 31.2986 56.5192 31.171 56.6526 31.0816Z" fill="#34BEBA"/>
<path d="M57.51 28.6798C57.4895 28.6262 57.4612 28.5776 57.4328 28.5317C57.4509 28.3147 57.4663 28.0542 57.4407 27.7606C57.4254 27.6074 57.3998 27.444 57.3459 27.2781C57.292 27.1198 57.2329 26.9564 57.1484 26.793C57.0972 26.6985 57.0229 26.5811 56.9178 26.4662C56.7975 26.3028 56.6436 26.1572 56.441 26.0628C56.2797 25.9913 56.1105 25.9351 55.9181 25.9249C55.821 25.9198 55.7108 25.9402 55.6234 25.976C55.5774 25.9938 55.5337 26.0143 55.4928 26.0398C55.4645 26.0577 55.4747 26.05 55.4645 26.0577L55.457 26.05L55.4542 26.0449L55.4389 26.0296C55.4031 25.9964 55.3673 25.9632 55.326 25.9326C55.247 25.8713 55.1545 25.8202 55.0571 25.7845C54.8571 25.7206 54.6649 25.6951 54.4547 25.7053C54.2497 25.7206 54.0396 25.7845 53.8653 25.907C53.7781 25.9683 53.7038 26.0423 53.6397 26.1215L53.5987 26.1751L53.5859 26.1955L53.5628 26.2313L53.5551 26.2236L53.5244 26.1981C53.5039 26.1828 53.486 26.17 53.4629 26.1572C53.3809 26.1062 53.2732 26.0653 53.1733 26.0577C52.981 26.0347 52.7939 26.0628 52.6171 26.1113C52.4402 26.1649 52.2685 26.2364 52.1198 26.3794C52.0506 26.4483 51.9968 26.53 51.9558 26.6143C51.9353 26.6577 51.9199 26.6985 51.9046 26.7445L51.8917 26.7828H51.8841L51.8071 26.793C51.7456 26.8032 51.6841 26.8185 51.6252 26.8415C51.5021 26.8849 51.3894 26.964 51.3048 27.056C51.1305 27.2423 51.0588 27.4874 51.0485 27.7121C51.0383 27.9368 51.0767 28.1666 51.1689 28.3734L51.1843 28.4091L51.1894 28.4832C51.1946 28.5368 51.1997 28.5904 51.2074 28.6415C51.2228 28.7462 51.2407 28.8483 51.2638 28.9504C51.3125 29.1521 51.351 29.3487 51.4458 29.5504C51.5355 29.7393 51.638 29.9079 51.7405 30.0763C51.8379 30.25 51.9917 30.416 52.1352 30.541C52.2787 30.6713 52.412 30.7862 52.5145 30.9163C52.7196 31.2023 52.9503 31.4781 53.0963 31.741C53.1323 31.8074 53.163 31.8712 53.1861 31.9376C53.2117 32.0091 53.2322 32.0806 53.2527 32.1521C53.2937 32.2951 53.3244 32.433 53.3501 32.5682C53.4552 33.107 53.4295 33.5665 53.3219 33.8908C53.1938 34.3044 52.9093 34.8866 52.7426 35.6397C52.6581 36.015 52.6145 36.4312 52.5991 36.8678C52.5863 37.3018 52.5812 37.7767 52.6888 38.2593C52.7939 38.7367 52.9631 39.2218 53.2399 39.6788C53.3834 39.9035 53.5526 40.1257 53.7781 40.3044C53.9986 40.4856 54.3035 40.6108 54.6111 40.6056C54.8905 40.6133 55.193 40.5903 55.4775 40.4856C55.7643 40.3835 56.0106 40.1589 56.1463 39.9086L56.2439 39.7299C56.2746 39.6712 56.3132 39.5997 56.3359 39.5359C56.3898 39.4056 56.4284 39.2755 56.4665 39.1452C56.5386 38.8848 56.5925 38.6218 56.6385 38.3614C56.7282 37.8405 56.7844 37.3223 56.7923 36.8116C56.7947 36.5589 56.7872 36.2985 56.7412 36.0508C56.6975 35.8031 56.6283 35.5657 56.546 35.341C56.3847 34.8891 56.1593 34.4857 55.9976 34.1027C55.9567 34.0057 55.926 33.9112 55.9028 33.8193C55.8851 33.7325 55.88 33.6278 55.8721 33.5308C55.8595 33.3368 55.854 33.1478 55.8567 32.9666C55.8595 32.6065 55.8874 32.2772 55.9232 31.9887C55.9413 31.8431 55.9618 31.7104 55.9799 31.5853C55.9873 31.5393 55.9952 31.4959 56.0027 31.4525C56.0361 31.4449 56.0696 31.4398 56.1054 31.4321C56.3183 31.381 56.559 31.2636 56.7821 31.1053C57.0154 30.9393 57.2125 30.7019 57.3561 30.4312C57.4997 30.1606 57.5945 29.8593 57.6201 29.553C57.6638 29.2491 57.615 28.9479 57.51 28.6798ZM54.6982 27.9445C54.5342 27.9419 54.3523 27.9879 54.201 28.0874C54.0498 28.1896 53.937 28.3504 53.914 28.5368C53.9063 28.6236 53.914 28.7079 53.9319 28.787C53.914 28.7691 53.8935 28.7513 53.8755 28.7308C53.7397 28.5981 53.6628 28.284 53.6269 27.9317C53.6167 27.8449 53.609 27.7223 53.6013 27.5794C53.5962 27.4338 53.5884 27.273 53.6141 27.1019C53.6372 26.9334 53.6884 26.7521 53.7756 26.5836C53.8627 26.4126 53.9729 26.2594 54.1267 26.1598C54.4342 25.9555 54.8571 26.0015 55.1033 26.0832C55.1494 26.1011 55.1903 26.124 55.2288 26.1445C55.2442 26.1572 55.2623 26.17 55.2776 26.1853C55.3004 26.2058 55.3367 26.2466 55.3724 26.29C55.1545 26.5172 55.0263 26.8109 54.9699 27.1121C54.9187 27.393 54.9033 27.6713 54.9059 27.947C54.8366 27.9445 54.7674 27.9419 54.6982 27.9445ZM51.4765 28.3632C51.3817 28.1564 51.3304 27.8755 51.3715 27.633C51.4073 27.3879 51.579 27.1989 51.7456 27.13C51.8302 27.0917 51.9046 27.0713 51.9584 27.056C51.9507 27.13 51.9455 27.204 51.9481 27.2781C51.9609 27.5002 51.9866 27.6994 52.0173 27.896C52.0814 28.2815 52.1967 28.6159 52.3377 28.7972C52.3556 28.8253 52.3813 28.8457 52.4043 28.8687C52.3762 28.8713 52.3454 28.8764 52.3146 28.8815C52.1634 28.8993 51.966 28.9045 51.7944 28.7768C51.7072 28.7155 51.5688 28.5776 51.4765 28.3632ZM52.5812 28.6313C52.4812 28.5036 52.3608 28.2125 52.289 27.8449C52.2275 27.4849 52.1019 27.0279 52.289 26.7164C52.3762 26.5683 52.5632 26.4815 52.735 26.4228C52.9067 26.364 53.0784 26.3462 53.2194 26.3564C53.2809 26.3589 53.3347 26.3768 53.3834 26.3972L53.4014 26.41L53.4475 26.4483C53.4757 26.4738 53.5065 26.5019 53.5346 26.5326C53.4424 26.7062 53.3809 26.89 53.3501 27.0636C53.3142 27.2577 53.3168 27.4389 53.3168 27.587C53.3193 27.7377 53.3271 27.8653 53.3373 27.9598C53.3552 28.1487 53.3885 28.33 53.4424 28.4934C53.468 28.5751 53.5039 28.6542 53.5474 28.7257C53.5654 28.7589 53.591 28.787 53.6141 28.8151C53.5474 28.8253 53.468 28.8406 53.3706 28.8508C53.2527 28.8636 53.1117 28.8687 52.9631 28.8432C52.8093 28.8125 52.6632 28.7538 52.5812 28.6313ZM56.4052 27.9598C56.2695 27.947 56.077 27.9394 55.854 27.9598C55.6388 27.9853 55.4106 27.9802 55.1312 27.9598C55.1289 27.9598 55.1261 27.9598 55.1238 27.9598C55.1289 27.6891 55.1545 27.4134 55.2084 27.1606C55.2493 26.987 55.3055 26.8211 55.3952 26.6806C55.4798 26.5453 55.6058 26.4075 55.721 26.3385C55.8386 26.267 55.9646 26.2721 56.1128 26.3053C56.2541 26.3385 56.3875 26.3947 56.4874 26.4585C56.6896 26.5964 56.81 26.7802 56.8844 26.9206C56.9587 27.0611 57.0154 27.2143 57.0666 27.3623C57.1126 27.5028 57.1381 27.6483 57.1535 27.7887C57.1688 27.9445 57.1739 28.0951 57.1767 28.2355C57.1075 28.1794 57.0359 28.1308 56.9615 28.0977C56.7384 27.993 56.5409 27.9725 56.4052 27.9598ZM55.9362 31.3249C55.7801 31.3683 55.4106 31.4347 55.4133 31.473C55.4133 31.4934 55.6007 31.5215 55.8976 31.4755C55.8902 31.5061 55.8851 31.5342 55.8772 31.5649C55.8516 31.69 55.8233 31.8253 55.8005 31.9708C55.7517 32.2619 55.7159 32.5938 55.7006 32.9614C55.6927 33.1453 55.6927 33.3368 55.7006 33.5385C55.708 33.638 55.708 33.7376 55.7285 33.8525C55.7517 33.9597 55.7852 34.0644 55.8261 34.1665C55.9873 34.5725 56.2002 34.9682 56.3513 35.4074C56.6947 36.2755 56.572 37.3018 56.4029 38.3231C56.3029 38.8312 56.2076 39.352 55.9283 39.7886C55.8056 40.0082 55.6234 40.169 55.3901 40.2559C55.1545 40.3401 54.893 40.3656 54.6239 40.3555C54.119 40.3605 53.7346 39.9623 53.4808 39.5512C53.2271 39.1274 53.0631 38.6627 52.9631 38.2082C52.8606 37.7563 52.8657 37.3069 52.8785 36.878C52.8939 36.4491 52.9349 36.0533 53.0143 35.6934C53.1707 34.9708 53.4449 34.4065 53.5808 33.9623C53.7038 33.5997 53.7294 33.0891 53.6218 32.5248C53.5962 32.3819 53.5603 32.2363 53.5192 32.0883C53.4987 32.0142 53.4757 31.9376 53.45 31.861C53.4219 31.7793 53.3834 31.6976 53.3424 31.6236C53.1707 31.3198 52.9503 31.0619 52.7375 30.7631C52.6171 30.6074 52.4659 30.4798 52.33 30.3547C52.189 30.2295 52.0763 30.1096 51.984 29.9462C51.8841 29.7853 51.7841 29.6168 51.7021 29.4483C51.6303 29.3028 51.5893 29.1215 51.5457 28.9427C51.5688 28.9632 51.5944 28.9862 51.615 29.0015C51.8712 29.193 52.2019 29.1802 52.3762 29.1138C52.4684 29.0781 52.5274 29.0474 52.5735 29.0015C52.6837 29.0628 52.7991 29.1011 52.9041 29.1164C53.0989 29.147 53.2732 29.1266 53.4116 29.0908C53.55 29.0551 53.6525 29.0015 53.7166 28.953C53.7269 28.9453 53.7294 28.9402 53.7371 28.9325C53.855 29.0117 53.9601 29.0449 54.0319 29.0449C54.1062 29.1776 54.2061 29.3002 54.342 29.387C54.4983 29.4712 54.6239 29.5019 54.7623 29.5427C55.0289 29.6168 55.2748 29.6627 55.4877 29.6883C55.913 29.747 56.1974 29.6806 56.1872 29.6449C56.1798 29.6143 55.9209 29.6244 55.5161 29.5326C55.3134 29.4891 55.0776 29.4304 54.829 29.3487C54.7111 29.3079 54.5624 29.2568 54.4701 29.2006C54.3753 29.1393 54.2933 29.0347 54.2395 28.9198C54.1856 28.8049 54.1549 28.6721 54.1677 28.5623C54.1805 28.4577 54.2523 28.353 54.3471 28.2942C54.4471 28.2304 54.5701 28.1972 54.6957 28.1998C54.7674 28.1998 54.8571 28.2023 54.911 28.2049C54.9648 28.2074 55.2595 28.2202 55.6416 28.2151C55.8488 28.2125 56.0696 28.1947 56.2439 28.1998C56.4052 28.2023 56.5283 28.2279 56.5744 28.2381C56.6589 28.2559 56.7463 28.2815 56.836 28.3249C56.9615 28.3836 57.0791 28.4806 57.1688 28.6159C57.2102 28.6772 57.2766 28.8253 57.3226 29.0066C57.3715 29.2236 57.3766 29.4636 57.3408 29.701C57.2869 29.9666 57.1948 30.1963 57.0921 30.3751C56.8514 30.7989 56.8179 30.8091 56.6487 30.9521C56.4847 31.0976 56.0952 31.284 55.9362 31.3249Z" fill="black"/>
<path d="M55.8363 30.0385C55.7313 30.0206 55.616 29.8265 55.5547 29.6172L55.8363 30.0385Z" fill="#34BEBA"/>
<path d="M55.5497 29.613C55.6933 29.5772 55.7087 29.6309 55.7342 29.6947C55.7472 29.7253 55.7649 29.8096 55.7881 29.8785C55.8086 29.9526 55.829 29.996 55.8318 30.0343C55.829 30.0522 55.8007 30.07 55.7547 30.0624C55.711 30.0573 55.6599 30.0291 55.619 29.996C55.5344 29.9296 55.4753 29.8377 55.46 29.7969C55.4242 29.7177 55.4163 29.6462 55.5497 29.613Z" fill="black"/>
<path d="M53.9982 35.4297C53.9982 35.4297 53.1652 36.9565 53.9136 38.496L53.9982 35.4297Z" fill="#72CCD3"/>
</g>
</g>
</g>
</g>
</g>
</g>
</g>
<defs>
<clipPath id="clip0_3903_23420">
<rect width="72" height="72" fill="white"/>
</clipPath>
</defs>
</svg>
