<svg width="87" height="87" viewBox="0 0 87 87" fill="none" xmlns="http://www.w3.org/2000/svg">
<g clip-path="url(#clip0_3903_23516)">
<mask id="mask0_3903_23516" style="mask-type:luminance" maskUnits="userSpaceOnUse" x="0" y="0" width="87" height="87">
<path d="M87 0H0V87H87V0Z" fill="white"/>
</mask>
<g mask="url(#mask0_3903_23516)">
<mask id="mask1_3903_23516" style="mask-type:luminance" maskUnits="userSpaceOnUse" x="0" y="0" width="87" height="87">
<path d="M87 0H0V87H87V0Z" fill="white"/>
</mask>
<g mask="url(#mask1_3903_23516)">
<mask id="mask2_3903_23516" style="mask-type:luminance" maskUnits="userSpaceOnUse" x="0" y="0" width="87" height="87">
<path d="M87 0H0V87H87V0Z" fill="white"/>
</mask>
<g mask="url(#mask2_3903_23516)">
<mask id="mask3_3903_23516" style="mask-type:luminance" maskUnits="userSpaceOnUse" x="0" y="0" width="87" height="87">
<path d="M87 0H0V87H87V0Z" fill="white"/>
</mask>
<g mask="url(#mask3_3903_23516)">
<mask id="mask4_3903_23516" style="mask-type:luminance" maskUnits="userSpaceOnUse" x="0" y="0" width="87" height="87">
<path d="M87 0H0V87H87V0Z" fill="white"/>
</mask>
<g mask="url(#mask4_3903_23516)">
<path d="M0 12.9141C0 5.78182 5.78182 0 12.9141 0H74.0859C81.2182 0 87 5.78182 87 12.9141V74.0859C87 81.2182 81.2182 87 74.0859 87H12.9141C5.78182 87 0 81.2182 0 74.0859V12.9141Z" fill="#2BBBB6"/>
<mask id="mask5_3903_23516" style="mask-type:luminance" maskUnits="userSpaceOnUse" x="10" y="29" width="67" height="29">
<path d="M76.6368 29.2266H10.3672V57.8685H76.6368V29.2266Z" fill="white"/>
</mask>
<g mask="url(#mask5_3903_23516)">
<path d="M74.1221 42.6584C74.1035 42.6615 72.1991 42.8867 70.5267 41.6249C70.2481 41.4152 69.7185 40.8629 69.0895 39.4438C69.1704 39.1785 69.2322 38.9718 69.3158 38.7064C69.3625 38.6756 69.4057 38.6478 69.4456 38.617C69.8982 38.2961 70.2852 37.8457 70.5576 37.3243C70.8209 36.8307 70.9883 36.2816 71.0344 35.7478C71.0871 35.2172 71.022 34.6742 70.8457 34.1745C70.8299 34.1282 70.8209 34.0788 70.8238 34.0295C70.8299 33.8073 70.8271 33.5698 70.8052 33.3076C70.7743 32.9867 70.7187 32.6998 70.6261 32.416C70.5486 32.1877 70.4525 31.9131 70.2942 31.6138C70.1768 31.3917 70.0313 31.1819 69.8668 30.9907C69.5697 30.605 69.2103 30.3119 68.7862 30.1176C68.3993 29.9417 68.0275 29.8492 67.6406 29.8276C67.5131 29.8214 67.3834 29.8276 67.2564 29.843C67.1756 29.8029 67.0953 29.769 67.0116 29.7412L66.9621 29.7258C66.5563 29.5962 66.1506 29.5437 65.7109 29.5684C65.2742 29.5993 64.8561 29.7227 64.4937 29.9325C64.4194 29.9757 64.3358 29.9942 64.2522 29.9911C63.9115 29.9726 63.5677 30.0127 63.2054 30.1145L63.1713 30.1237C62.84 30.2256 62.4063 30.3952 62.0006 30.7901C61.9294 30.8611 61.8613 30.9382 61.7963 31.0215C61.756 31.0709 61.7096 31.1141 61.6507 31.1418C61.3998 31.2683 61.1707 31.4411 60.9786 31.6478C60.5698 32.0859 60.3283 32.6813 60.3004 33.3199C60.2788 33.7426 60.3438 34.1652 60.4862 34.557C60.4924 34.6033 60.4986 34.6496 60.5048 34.6989C60.5265 34.8624 60.5575 35.0198 60.5915 35.1771L60.6225 35.3129C60.6814 35.5597 60.7526 35.8651 60.9167 36.2076C61.0375 36.4605 61.1676 36.6795 61.2884 36.877C60.2013 35.9237 58.7767 35.3406 57.2189 35.3406H55.7045C54.1219 35.3406 52.7251 35.9546 51.7031 36.9788C51.4337 37.2472 50.9753 37.0559 50.9753 36.6764V35.3715C50.9753 35.137 50.7864 34.9457 50.5511 34.9457L45.4999 34.8933C45.2614 34.8902 45.0663 35.0815 45.0663 35.319L45.0694 36.1643C45.0694 36.3988 44.8774 36.5901 44.642 36.5901H32.1022C31.8638 36.5901 31.6718 36.3957 31.6749 36.1582L31.6842 35.3807C31.6873 35.1432 31.4953 34.9488 31.2568 34.9488L22.6719 34.9149C22.4365 34.9149 22.2445 35.1061 22.2445 35.3406V35.4794C22.2445 35.7139 22.0525 35.9052 21.8171 35.9052H20.2067C19.9682 35.9052 19.7762 35.7139 19.7793 35.4763L19.7824 34.6341C19.7824 34.3966 19.5904 34.2053 19.355 34.2053H14.7374C14.502 34.2053 14.31 34.3966 14.31 34.6311V35.4794C14.31 35.7139 14.118 35.9052 13.8826 35.9052H11.2904C11.0582 35.9052 10.8692 36.0872 10.863 36.3186L10.7113 40.9092C10.702 41.1499 10.8971 41.3504 11.1387 41.3504C11.4236 41.3504 11.6218 41.6218 11.5475 41.8933C11.4329 42.3191 11.3741 42.7603 11.3741 43.2076C11.3741 45.0987 12.4084 46.7523 13.9446 47.6408C14.0777 47.718 14.1644 47.8568 14.1644 48.0111C14.1644 48.0111 14.1706 49.5783 14.2233 50.9357C14.2759 52.2962 14.4649 57.18 14.4649 57.18C14.4741 57.4082 14.6631 57.5872 14.8922 57.5872H30.8232C31.0431 57.5872 31.2258 57.4205 31.2475 57.2046L31.3775 55.9366C31.3992 55.7238 31.5758 55.5603 31.7895 55.5541L44.676 55.1469C44.9176 55.1407 45.1189 55.332 45.1189 55.5726V56.8437C45.1189 57.0812 45.314 57.2725 45.5494 57.2694C45.5494 57.2694 48.6433 57.1676 50.9599 57.0843C53.2764 57.001 57.4388 57.0843 57.4388 57.0843C57.572 57.0843 57.699 57.0226 57.7826 56.9146L60.7526 52.9719C60.9229 52.7436 61.2698 52.7436 61.4401 52.975L64.3667 56.9146C64.4473 57.0226 64.5743 57.0874 64.7106 57.0874H70.703C71.0563 57.0874 71.2573 56.6832 71.0439 56.4025L66.8414 50.9234C66.6521 50.6766 66.7824 50.3187 67.0857 50.2509C67.2345 50.2169 67.3772 50.1768 67.5165 50.1274C68.1763 49.896 68.7458 49.4024 69.0805 48.7885L69.0929 48.77C69.5478 48.7546 69.9881 48.699 70.4025 48.6034C74.0294 47.7828 75.5064 44.7532 75.5688 44.6267L76.3179 43.0348C76.4606 42.7294 76.2094 42.387 75.8754 42.4302L74.1221 42.6584Z" fill="black" stroke="black" stroke-width="2" stroke-miterlimit="10"/>
<path d="M69.684 42.8315C68.7085 42.0941 67.934 40.5424 67.364 38.9844C67.3331 39.2867 67.3084 39.6199 67.3056 39.984C67.3022 40.203 67.3084 40.4282 67.3241 40.6657C67.3331 40.783 67.3393 40.9064 67.3612 41.0144C67.3892 41.1254 67.4263 41.2396 67.4757 41.3568C67.6706 41.8196 67.9435 42.307 68.1384 42.8531C68.2378 43.1246 68.3209 43.4115 68.3737 43.7107C68.4293 44.01 68.4389 44.3216 68.4355 44.6301C68.4232 45.2471 68.3586 45.8734 68.2502 46.5027C68.194 46.8174 68.1294 47.1352 68.0424 47.4498C68.0424 47.4498 68.0424 47.4498 68.0424 47.4529C68.6742 47.5208 69.3835 47.5177 70.099 47.3542C73.1058 46.6724 74.3139 44.1365 74.3139 44.1365C74.3139 44.1365 71.8765 44.4882 69.684 42.8315Z" fill="#D4242C" stroke="black" stroke-miterlimit="10" stroke-linecap="round" stroke-linejoin="round"/>
<path d="M45.5048 40.5986V38.0781H32.5717V40.5986H34.9409L34.8264 51.8653L32.3828 52.0165V54.247L45.4738 53.8336L45.4955 51.2112L42.9188 51.3532L42.702 40.6017H45.5048V40.5986ZM39.9952 51.5321L37.592 51.7049L37.9419 40.6017H39.9767L39.9952 51.5321Z" fill="white"/>
<path d="M55.7121 46.5071C53.0796 46.5071 51.1719 44.4401 51.1719 41.5895C51.1719 38.7419 53.0827 36.6719 55.7121 36.6719H57.2265C59.9488 36.6719 62.1632 38.8777 62.1632 41.5895C62.1632 44.3013 59.9488 46.5071 57.2265 46.5071H55.7121ZM55.7493 39.7508C54.402 39.7508 54.2967 41.1576 54.2967 41.5895C54.2967 42.0214 54.402 43.4282 55.7493 43.4282H57.1924C58.2114 43.4282 59.0383 42.6045 59.0383 41.5895C59.0383 40.5745 58.2083 39.7508 57.1894 39.7508H55.7493Z" fill="#34BEBA"/>
<path d="M57.2251 36.8241C59.8668 36.8241 62.0069 38.9559 62.0069 41.5874C62.0069 44.219 59.8668 46.3508 57.2251 46.3508H55.7107C53.0689 46.3508 51.3253 44.219 51.3253 41.5874C51.3253 38.9559 53.072 36.8241 55.7107 36.8241H57.2251ZM55.7478 43.5804H57.1911C58.2967 43.5804 59.1917 42.6888 59.1917 41.5874C59.1917 40.4861 58.2967 39.5945 57.1911 39.5945H55.7478C54.6422 39.5945 54.1405 40.4861 54.1405 41.5874C54.1405 42.6888 54.6422 43.5804 55.7478 43.5804ZM57.2251 36.5156H55.7107C52.9884 36.5156 51.0156 38.6474 51.0156 41.5874C51.0156 44.5245 52.9915 46.6594 55.7107 46.6594H57.2251C60.031 46.6594 62.3166 44.3856 62.3166 41.5874C62.3166 38.7893 60.0341 36.5156 57.2251 36.5156ZM55.7478 43.2719C54.5772 43.2719 54.4502 42.0934 54.4502 41.5874C54.4502 41.0815 54.5772 39.903 55.7478 39.903H57.1911C58.1232 39.903 58.882 40.6588 58.882 41.5874C58.882 42.5161 58.1232 43.2719 57.1911 43.2719H55.7478Z" fill="black"/>
<path d="M23.6357 36.4062V40.423H21.7188L21.9603 43.0854H23.6357V47.0374H26.5501L26.3085 36.4062H23.6357Z" fill="white"/>
<path d="M46.4793 36.3906L46.4948 44.7049L44.2092 44.7481L44.0234 47.9566L46.5227 47.9843L46.5196 55.9747L49.5763 55.9469L49.5949 36.4214L46.4793 36.3906Z" fill="white"/>
<path d="M18.3732 37.3952L18.3825 35.6953H15.7005V37.3952H12.2195L12.1328 40.0576H21.526V37.3952H18.3732Z" fill="white"/>
<path d="M30.1306 47.0688H27.2132L27.1172 36.4375H30.2761L30.1306 47.0688Z" fill="white"/>
<path d="M17.3848 39.5625H16.5301C14.4551 39.5625 12.7734 41.2377 12.7734 43.3047C12.7734 45.3717 14.4551 47.0469 16.5301 47.0469H17.3848C19.4598 47.0469 21.1415 45.3717 21.1415 43.3047C21.1415 41.2408 19.4598 39.5625 17.3848 39.5625ZM17.0534 44.8842H16.8614C15.9881 44.8842 15.2789 44.1777 15.2789 43.3078C15.2789 42.4378 15.9881 41.7313 16.8614 41.7313H17.0534C17.9268 41.7313 18.636 42.4378 18.636 43.3078C18.636 44.1777 17.9268 44.8842 17.0534 44.8842Z" fill="white"/>
<path d="M65.1207 55.9525L61.1038 50.5474L57.0375 55.9525H53.2344L59.3138 47.4531H62.5471L69.0663 55.9525H65.1207Z" fill="#34BEBA"/>
<path d="M62.4732 47.6055L68.7539 55.7964H65.1986L61.1075 50.2895L56.9606 55.7964H53.5353L59.3948 47.6055H62.4732ZM62.6281 47.2969H62.4763H59.401H59.2399L59.1471 47.4266L53.2875 55.6174L52.9375 56.1049H53.5384H56.9636H57.1185L57.2114 55.9815L61.1105 50.8047L64.9539 55.9784L65.0468 56.1049H65.2017H68.7573H69.3829L69.0016 55.6082L62.721 47.4173L62.6281 47.2969Z" fill="black"/>
<path d="M18.4195 53.9495V52.839H29.8969L30.1385 47.9922H15.5547V50.0531H27.2893V50.9262H15.5702L15.8149 56.3096H29.9496L30.1942 53.9495H18.4195Z" fill="white"/>
<path d="M68.25 32.9766C68.3056 33.245 68.368 33.6029 68.3584 33.9638L68.25 32.9766Z" fill="#34BEBA"/>
<path d="M68.355 33.9536C68.1753 33.9475 68.1781 33.8364 68.1719 33.6945C68.1753 33.5557 68.1567 32.988 68.2494 32.9695C68.3516 32.9448 68.5341 33.5125 68.5313 33.676C68.5403 33.8302 68.5218 33.9598 68.355 33.9536Z" fill="black"/>
<path d="M68.4609 33.0391C68.4609 33.0391 68.4266 33.1471 68.2969 33.2612L68.4609 33.0391Z" fill="#34BEBA"/>
<path d="M68.2995 33.2581C68.1788 33.1316 68.1973 33.1162 68.2192 33.0915C68.2439 33.073 68.3708 33.0144 68.4641 33.0359C68.5691 33.0637 68.5354 33.2797 68.4916 33.3167C68.4517 33.3568 68.4113 33.3753 68.2995 33.2581Z" fill="black"/>
<path d="M68.4676 37.5527C69.2045 37.0714 69.6257 35.9762 69.4678 35.1247C69.4617 35.0908 69.4555 35.0538 69.4459 35.0198C69.4431 35.0106 69.4459 35.0013 69.4431 34.992C69.4089 34.8131 69.3561 34.6157 69.2572 34.4336C69.2724 34.0542 69.2758 33.6531 69.2016 33.2767C69.1797 33.1286 69.1517 32.9836 69.1022 32.8448C68.9534 32.4098 68.7743 31.9995 68.3778 31.7188C68.161 31.5645 67.7117 31.4072 67.427 31.4689C67.2781 31.5028 67.1479 31.5707 67.0333 31.6632C66.8788 31.472 66.6621 31.3177 66.4202 31.256C65.7823 31.0956 65.2372 31.256 64.9244 31.7033C64.8749 31.7743 64.8315 31.8514 64.7912 31.9255C64.6581 31.7866 64.497 31.6694 64.3174 31.6386C63.9798 31.583 63.54 31.6879 63.2551 31.873C63.0353 32.018 62.9145 32.2525 62.868 32.5024C62.6512 32.5147 62.4313 32.561 62.2579 32.6967C61.911 32.9682 61.8429 33.4186 61.9017 33.8228C61.9172 33.9308 61.9544 34.0542 62.0039 34.1745C62.0163 34.2177 62.0349 34.264 62.0535 34.3102C62.0721 34.702 62.1898 35.1617 62.2734 35.4424C62.3508 35.6893 62.6171 36.1242 62.7565 36.3433C63.0136 36.7474 63.3883 36.9233 63.6794 37.3274C63.9798 37.7439 64.336 38.1635 64.463 38.5306C64.59 38.8977 64.878 39.9066 64.6921 40.758C64.5404 41.4553 63.9457 42.4333 63.8095 43.9172C63.7537 44.5157 63.7506 45.0432 63.7754 45.4968C63.8343 46.629 64.593 48.915 66.0239 48.912C67.4421 48.9582 67.6774 48.2764 67.8852 47.9154C68.2413 47.2985 68.576 45.3024 68.5322 44.0869C68.48 42.6029 67.532 41.4553 67.4702 40.758C67.3646 39.5148 67.5724 38.3702 67.6746 37.9136C68.0835 37.8149 68.3064 37.6606 68.4676 37.5527Z" fill="#34BEBA"/>
<path d="M69.4971 34.6514C69.4724 34.5866 69.4381 34.528 69.4038 34.4725C69.4257 34.2103 69.4443 33.8956 69.4134 33.5408C69.3949 33.3557 69.3639 33.1582 69.2987 32.9577C69.2336 32.7664 69.1622 32.569 69.0599 32.3715C68.9982 32.2574 68.9085 32.1155 68.7816 31.9767C68.6361 31.7792 68.4502 31.6034 68.2054 31.4892C68.0105 31.4028 67.8061 31.335 67.5736 31.3226C67.4562 31.3164 67.3231 31.3411 67.2175 31.3843C67.1619 31.4059 67.1091 31.4306 67.0597 31.4614C67.0254 31.483 67.0377 31.4738 67.0254 31.483L67.0165 31.4738L67.0131 31.4676L66.9946 31.4491C66.9513 31.409 66.9081 31.3689 66.8581 31.3319C66.7626 31.2578 66.6509 31.1961 66.5332 31.1529C66.2916 31.0758 66.0591 31.045 65.8052 31.0573C65.5574 31.0758 65.3037 31.1529 65.0931 31.301C64.9878 31.3751 64.898 31.4645 64.8205 31.5602L64.771 31.625L64.7555 31.6496L64.7276 31.6928L64.7183 31.6836L64.6812 31.6527C64.6564 31.6342 64.6344 31.6188 64.6065 31.6034C64.5076 31.5417 64.3774 31.4923 64.2567 31.483C64.0244 31.4553 63.7985 31.4892 63.5848 31.5478C63.3711 31.6126 63.1636 31.699 62.984 31.8718C62.9004 31.9551 62.8354 32.0538 62.7858 32.1556C62.7611 32.208 62.7425 32.2574 62.7239 32.3129L62.7084 32.3592H62.6991L62.6062 32.3715C62.5319 32.3839 62.4575 32.4024 62.3863 32.4302C62.2376 32.4826 62.1014 32.5782 61.9992 32.6893C61.7886 32.9145 61.7019 33.2107 61.6895 33.4822C61.6771 33.7537 61.7236 34.0313 61.835 34.2812L61.8536 34.3244L61.8598 34.4139C61.866 34.4787 61.8722 34.5434 61.8815 34.6051C61.9001 34.7316 61.9217 34.855 61.9497 34.9784C62.0085 35.2222 62.055 35.4597 62.1695 35.7034C62.2779 35.9317 62.4018 36.1354 62.5257 36.3389C62.6433 36.5488 62.8292 36.7493 63.0026 36.9004C63.176 37.0578 63.3371 37.1966 63.4609 37.3539C63.7087 37.6995 63.9874 38.0327 64.164 38.3504C64.2074 38.4306 64.2445 38.5077 64.2724 38.588C64.3033 38.6744 64.328 38.7608 64.3528 38.8471C64.4024 39.0199 64.4394 39.1865 64.4704 39.35C64.5974 40.0009 64.5666 40.5563 64.4365 40.9481C64.2817 41.4479 63.9379 42.1513 63.7366 43.0614C63.6344 43.5149 63.5817 44.0177 63.5631 44.5453C63.5477 45.0697 63.5415 45.6436 63.6715 46.2266C63.7985 46.8036 64.0029 47.3897 64.3374 47.942C64.5109 48.2134 64.7152 48.4819 64.9878 48.6978C65.2541 48.9168 65.6227 49.068 65.9943 49.0618C66.3319 49.0711 66.6975 49.0433 67.0412 48.9168C67.3877 48.7935 67.6851 48.522 67.8491 48.2196L67.9673 48.0037C68.0043 47.9327 68.0509 47.8463 68.0785 47.7692C68.1436 47.6118 68.1901 47.4545 68.2362 47.2972C68.3232 46.9825 68.3885 46.6647 68.4441 46.3501C68.5525 45.7207 68.6202 45.0944 68.6298 44.4774C68.6326 44.172 68.6238 43.8573 68.5682 43.5581C68.5154 43.2588 68.4317 42.9719 68.3323 42.7004C68.1374 42.1544 67.865 41.6669 67.6696 41.2041C67.6202 41.0869 67.5831 40.9728 67.555 40.8617C67.5337 40.7568 67.5274 40.6303 67.5179 40.5131C67.5027 40.2786 67.4959 40.0503 67.4992 39.8313C67.5026 39.3963 67.5365 38.9983 67.5798 38.6497C67.6017 38.4738 67.6264 38.3134 67.6483 38.1622C67.6573 38.1067 67.6666 38.0543 67.6755 38.0018C67.716 37.9926 67.7564 37.9864 67.7996 37.9771C68.0568 37.9154 68.348 37.7735 68.6176 37.5823C68.8995 37.3817 69.1376 37.0948 69.3112 36.7678C69.4847 36.4408 69.5993 36.0767 69.6302 35.7065C69.683 35.3394 69.624 34.9754 69.4971 34.6514ZM66.0996 33.7629C65.9014 33.7598 65.6815 33.8154 65.4988 33.9357C65.3161 34.0591 65.1798 34.2534 65.1519 34.4787C65.1426 34.5835 65.1519 34.6854 65.1736 34.781C65.1519 34.7594 65.1272 34.7378 65.1055 34.7131C64.9413 34.5527 64.8484 34.1732 64.8051 33.7475C64.7927 33.6426 64.7834 33.4945 64.7741 33.3217C64.7679 33.1459 64.7584 32.9515 64.7894 32.7448C64.8172 32.5412 64.8794 32.3222 64.9847 32.1186C65.09 31.9119 65.2229 31.7268 65.4088 31.6064C65.7804 31.3596 66.2916 31.4152 66.5891 31.5139C66.6447 31.5355 66.6941 31.5633 66.7407 31.5879C66.7592 31.6034 66.7811 31.6188 66.7996 31.6373C66.8271 31.662 66.871 31.7113 66.9142 31.7638C66.6509 32.0384 66.496 32.3931 66.4279 32.7572C66.366 33.0965 66.3474 33.4328 66.3505 33.766C66.2668 33.7629 66.1832 33.7598 66.0996 33.7629ZM62.2067 34.2689C62.0921 34.019 62.0301 33.6796 62.0797 33.3865C62.1231 33.0904 62.3305 32.8621 62.5319 32.7788C62.6341 32.7325 62.7239 32.7078 62.7889 32.6893C62.7797 32.7788 62.7734 32.8682 62.7765 32.9577C62.792 33.2261 62.823 33.4667 62.8601 33.7043C62.9376 34.1701 63.0769 34.5743 63.2472 34.7933C63.2689 34.8273 63.2999 34.8519 63.3278 34.8797C63.2937 34.8828 63.2566 34.889 63.2194 34.8952C63.0367 34.9167 62.7982 34.9229 62.5907 34.7687C62.4854 34.6946 62.3182 34.528 62.2067 34.2689ZM63.5415 34.5928C63.4207 34.4386 63.2752 34.0869 63.1884 33.6426C63.1141 33.2076 62.9623 32.6554 63.1884 32.279C63.2937 32.1001 63.5198 31.9952 63.7273 31.9242C63.9348 31.8532 64.1423 31.8317 64.3126 31.844C64.387 31.8471 64.452 31.8687 64.5109 31.8934L64.5325 31.9088L64.5882 31.9551C64.6223 31.9859 64.6593 32.0198 64.6933 32.0569C64.5819 32.2667 64.5076 32.4888 64.4704 32.6986C64.4269 32.933 64.4302 33.1521 64.4302 33.331C64.4333 33.513 64.4427 33.6673 64.4551 33.7814C64.4768 34.0097 64.517 34.2288 64.5821 34.4262C64.6131 34.5249 64.6564 34.6206 64.709 34.707C64.7307 34.7471 64.7615 34.781 64.7894 34.8149C64.7089 34.8273 64.6131 34.8458 64.4954 34.8581C64.3529 34.8735 64.1825 34.8797 64.0029 34.8489C63.8171 34.8118 63.6406 34.7409 63.5415 34.5928ZM68.1621 33.7814C67.9981 33.766 67.7656 33.7567 67.4961 33.7814C67.2361 33.8123 66.9603 33.8061 66.6228 33.7814C66.62 33.7814 66.6166 33.7814 66.6138 33.7814C66.62 33.4544 66.6509 33.1212 66.716 32.8158C66.7654 32.606 66.8334 32.4055 66.9418 32.2358C67.044 32.0723 67.1962 31.9057 67.3355 31.8224C67.4775 31.736 67.6297 31.7422 67.8089 31.7823C67.9796 31.8224 68.1407 31.8903 68.2614 31.9674C68.5057 32.134 68.6513 32.3561 68.7412 32.5258C68.831 32.6955 68.8995 32.8806 68.9613 33.0595C69.0169 33.2292 69.0478 33.405 69.0663 33.5747C69.0849 33.7629 69.091 33.9449 69.0944 34.1146C69.0107 34.0467 68.9239 33.9881 68.8341 33.948C68.5645 33.8215 68.3261 33.7969 68.1621 33.7814ZM67.5953 37.8476C67.4066 37.9 66.9603 37.9802 66.9637 38.0265C66.9637 38.0512 67.1898 38.0851 67.5487 38.0296C67.5397 38.0666 67.5337 38.1005 67.5242 38.1376C67.4933 38.2887 67.459 38.4523 67.4315 38.6281C67.3725 38.9798 67.3293 39.3809 67.3107 39.8251C67.3012 40.0472 67.3012 40.2786 67.3107 40.5223C67.3197 40.6426 67.3197 40.763 67.3444 40.9018C67.3725 41.0314 67.413 41.1579 67.4624 41.2812C67.6573 41.7718 67.9145 42.25 68.097 42.7806C68.512 43.8295 68.3638 45.0697 68.1593 46.3038C68.0386 46.9177 67.9235 47.5471 67.5859 48.0746C67.4377 48.34 67.2175 48.5343 66.9356 48.6392C66.6509 48.741 66.335 48.7718 66.0098 48.7595C65.3997 48.7657 64.9352 48.2844 64.6285 47.7877C64.3219 47.2756 64.1237 46.7141 64.0029 46.165C63.8791 45.6189 63.8852 45.0759 63.9007 44.5577C63.9193 44.0393 63.9689 43.5611 64.0649 43.1262C64.2538 42.253 64.5852 41.5713 64.7493 41.0345C64.898 40.5964 64.9288 39.9794 64.7987 39.2975C64.7678 39.1248 64.7245 38.9489 64.675 38.77C64.6502 38.6806 64.6223 38.588 64.5913 38.4954C64.5573 38.3967 64.5109 38.298 64.4613 38.2085C64.2538 37.8414 63.9874 37.5298 63.7304 37.1688C63.5848 36.9807 63.4021 36.8264 63.238 36.6752C63.0676 36.524 62.9314 36.3791 62.8199 36.1816C62.6991 35.9873 62.5783 35.7836 62.4792 35.58C62.3925 35.4042 62.3429 35.1851 62.2903 34.9692C62.3182 34.9939 62.3491 35.0216 62.3739 35.0402C62.6836 35.2715 63.0831 35.2561 63.2937 35.1759C63.4052 35.1327 63.4764 35.0957 63.5322 35.0402C63.6654 35.1142 63.8048 35.1605 63.9317 35.179C64.1671 35.216 64.3776 35.1913 64.5449 35.1481C64.7121 35.1049 64.8359 35.0402 64.9135 34.9815C64.9258 34.9723 64.9289 34.9661 64.9382 34.9568C65.0807 35.0525 65.2076 35.0926 65.2944 35.0926C65.3842 35.253 65.505 35.4011 65.669 35.506C65.858 35.6078 66.0098 35.6448 66.177 35.6942C66.4991 35.7836 66.7962 35.8392 67.0533 35.8701C67.5672 35.941 67.9109 35.8608 67.8985 35.8176C67.8896 35.7806 67.5769 35.7929 67.0878 35.6819C66.8429 35.6294 66.558 35.5584 66.2576 35.4597C66.1151 35.4104 65.9355 35.3487 65.8239 35.2808C65.7094 35.2067 65.6101 35.0803 65.545 34.9414C65.48 34.8026 65.443 34.6422 65.4585 34.5095C65.474 34.383 65.5607 34.2565 65.6753 34.1856C65.7961 34.1084 65.9444 34.0683 66.0963 34.0714C66.183 34.0714 66.2915 34.0745 66.3565 34.0776C66.4216 34.0807 66.7778 34.0961 67.2394 34.0899C67.4899 34.0869 67.7567 34.0653 67.9673 34.0714C68.1621 34.0745 68.311 34.1054 68.3666 34.1177C68.4688 34.1393 68.5744 34.1701 68.6827 34.2226C68.8344 34.2936 68.9765 34.4108 69.0849 34.5743C69.1348 34.6483 69.2151 34.8273 69.2707 35.0463C69.3297 35.3086 69.3359 35.5985 69.2926 35.8854C69.2275 36.2063 69.1163 36.4839 68.9922 36.6999C68.7013 37.2121 68.6607 37.2244 68.4563 37.3972C68.2581 37.573 67.7873 37.7982 67.5953 37.8476Z" fill="black"/>
<path d="M67.4731 36.2903C67.3462 36.2687 67.2069 36.0342 67.1328 35.7812L67.4731 36.2903Z" fill="#34BEBA"/>
<path d="M67.1357 35.7873C67.3092 35.7441 67.3277 35.8089 67.3586 35.886C67.3743 35.923 67.3956 36.0248 67.4237 36.1081C67.4484 36.1976 67.4731 36.25 67.4765 36.2963C67.4731 36.3179 67.4388 36.3395 67.3832 36.3303C67.3304 36.3241 67.2687 36.2901 67.2192 36.25C67.117 36.1698 67.0457 36.0588 67.0272 36.0094C66.9839 35.9138 66.9745 35.8274 67.1357 35.7873Z" fill="black"/>
<path d="M65.2526 42.8125C65.2526 42.8125 64.2461 44.6573 65.1505 46.5177L65.2526 42.8125Z" fill="#72CCD3"/>
</g>
</g>
</g>
</g>
</g>
</g>
</g>
<defs>
<clipPath id="clip0_3903_23516">
<rect width="87" height="87" fill="white"/>
</clipPath>
</defs>
</svg>
