<svg width="512" height="512" viewBox="0 0 512 512" fill="none" xmlns="http://www.w3.org/2000/svg">
<g clip-path="url(#clip0_3921_23264)">
<path d="M0 0H512V512H0V0Z" fill="#D0103A"/>
<path d="M0 0H348.2V512H0V0Z" fill="#FEDF00"/>
<path d="M0 0H163.8V512H0V0Z" fill="#0018A8"/>
<path d="M240.299 173.3C246.499 173.3 248.999 178.6 255.199 178.6C258.999 178.6 261.199 177.4 264.499 175.5C266.899 174.2 268.299 173.5 270.999 173.5C273.699 173.5 275.399 174.3 276.799 176.6C277.687 178.252 278.037 180.14 277.799 182C277.347 184.303 276.643 186.55 275.699 188.7C275.199 189.9 274.699 190.7 274.699 192C274.699 195.3 279.099 196.4 282.099 196.5C282.799 196.5 288.399 196.5 291.799 193.1C289.899 193.1 287.799 191.6 287.799 189.7C287.799 187.7 289.299 186.2 291.299 185.6C291.699 185.5 292.299 185.8 292.699 185.6C293.199 185.4 292.899 184.8 293.399 184.5C294.399 183.7 294.999 183.2 296.299 183.2C297.016 183.154 297.726 183.367 298.299 183.8C298.566 184.066 298.866 184.266 299.199 184.4C300.199 184.4 300.599 183.8 301.499 183.8C302.166 183.733 302.766 183.866 303.299 184.2C303.899 184.5 303.899 185.4 304.499 185.4C304.799 185.4 306.399 184.8 307.299 184.8C308.999 184.8 309.999 185.4 311.099 186.8C311.399 187.1 311.599 187.8 311.899 187.8C312.693 187.86 313.462 188.11 314.14 188.527C314.818 188.945 315.387 189.518 315.799 190.2C315.999 190.5 316.299 191.3 316.699 191.5C317.033 191.5 317.466 191.666 317.999 192C318.662 192.423 319.216 192.997 319.616 193.675C320.016 194.352 320.25 195.115 320.299 195.9L319.899 197.6C318.399 202.8 314.799 204.6 311.199 209C309.599 211 308.399 212.5 308.399 215C308.399 215.6 309.199 216.7 309.399 217.2C309.299 216 309.799 214.6 310.999 214.5C312.799 214.633 313.866 215.566 314.199 217.3L313.999 218.8C314.933 218.133 315.999 217.766 317.199 217.7H318.699C321.42 217.899 324.008 218.948 326.099 220.7C328.019 222.353 329.545 224.414 330.566 226.732C331.587 229.051 332.076 231.568 331.999 234.1C331.299 238.4 331.699 246 320.999 249.1C323.066 249.966 324.166 251.333 324.299 253.2C324.299 255.2 322.799 257 320.799 257C319.758 257.011 318.754 256.617 317.999 255.9C315.799 258.1 315.299 260.4 315.299 263.6C315.299 265.5 315.699 266.6 316.499 268.3C317.068 269.963 318.111 271.423 319.499 272.5C320.166 271.233 321.166 270.566 322.499 270.5C324.033 270.433 325.133 271 325.799 272.2L325.999 273.2C326.266 273.6 326.599 273.966 326.999 274.3C327.299 275.1 326.999 275.7 327.299 276.5C327.566 276.9 327.899 277.233 328.299 277.5C328.599 278.4 328.699 278.9 328.699 279.8C328.699 282.2 326.499 283.8 324.099 283.8L322.199 283.7C323.599 285 324.599 285.7 325.699 287.3C327.299 289.728 328.103 292.594 327.999 295.5C327.999 299.1 327.399 301.3 325.799 304.5C324.606 307.246 322.665 309.602 320.199 311.3C316.414 314.004 312.015 315.722 307.399 316.3C303.999 317 302.099 317.3 298.599 317.5L287.299 318.1C281.599 318.5 277.599 319.3 273.499 323.4C275.499 324.8 276.799 326.2 276.799 328.6C276.733 331.066 275.433 332.733 272.899 333.6C272.366 333.6 271.899 333.666 271.499 333.8C270.899 334.1 270.899 334.8 270.299 335.2C269.409 335.778 268.359 336.058 267.299 336C265.099 336 263.699 335.5 262.099 334C260.399 335.4 259.799 336.7 257.799 337.9C257.199 338.3 256.633 338.566 256.099 338.7C254.899 338.7 254.299 338 253.399 337.3C252.055 336.368 250.844 335.258 249.799 334C247.999 335.1 246.899 336 244.799 336C243.695 336.051 242.605 335.734 241.699 335.1C241.099 334.8 240.999 334.2 240.399 333.9C239.799 333.5 239.399 333.7 238.699 333.4C236.166 332.4 234.833 330.566 234.699 327.9C234.699 325.6 236.199 324.1 238.299 323.2C234.299 319.2 230.299 318.5 224.699 318.2C220.299 317.8 217.699 317.8 213.399 317.5C209.999 317.3 207.999 316.9 204.599 316.4C201.999 316 200.499 315.8 198.099 314.7C189.899 310.9 184.699 305.7 183.599 296.7V294.7C183.599 290 185.399 287.2 188.599 283.9L186.399 283.7C184.399 282.9 182.899 281.5 182.899 279.3C182.833 278.566 182.966 277.9 183.299 277.3C183.599 276.7 184.099 276.6 184.299 276.1C184.299 275.433 184.399 274.766 184.599 274.1C184.799 273.6 185.199 273.6 185.399 273.1C186.099 271.6 186.999 270.4 188.699 270.4C190.033 270.466 191.033 271.133 191.699 272.4C193.099 271.7 193.499 270.7 194.299 269.4C195.599 267.2 196.099 265.7 196.099 263.2C196.168 261.701 195.93 260.203 195.399 258.8C194.999 257.6 194.899 256.8 193.999 255.8C193.261 256.553 192.254 256.985 191.199 257C188.899 257 187.199 255 187.199 252.7C187.199 250.966 187.999 249.733 189.599 249C188.299 248 187.199 247.8 185.899 247C183.799 245.6 182.999 244.3 181.699 242.2C180.699 240.8 180.499 239.9 180.099 238.4C179.517 236.796 179.213 235.106 179.199 233.4V232.1C179.799 228.2 180.499 225.7 182.999 222.6C184.139 220.897 185.733 219.546 187.599 218.7C189.601 217.665 191.853 217.214 194.099 217.4C194.966 217.466 195.733 217.7 196.399 218.1C196.699 218.3 197.299 218.8 197.299 218.4L197.099 217.4C197.099 215.7 198.299 214.2 199.899 214.2C201.099 214.2 201.599 215.2 202.199 216.2C202.599 215.666 202.799 215.1 202.799 214.5C202.799 211.7 201.299 210.3 199.599 208.2C195.899 203.5 191.199 201.3 191.199 195.4C191.199 193.666 191.999 192.333 193.599 191.4L195.099 191.2L195.599 190.1C195.926 189.571 196.371 189.126 196.899 188.8C197.699 188 198.499 188.3 199.399 187.6C199.799 187.333 200.133 186.933 200.399 186.4C201.266 185.2 202.466 184.6 203.999 184.6C204.666 184.6 205.333 184.7 205.999 184.9C206.299 184.9 206.799 185.4 206.899 185.3L207.999 184.3C208.699 184 208.999 183.9 209.799 183.9C210.599 183.9 211.199 184.4 212.099 184.4C212.366 184.333 212.599 184.166 212.799 183.9C213.599 183.4 213.999 183.1 214.999 183.1C215.999 183.1 216.399 183.4 217.199 183.9C217.899 184.3 217.999 184.9 218.799 185.4L219.999 185.7C221.999 186.3 223.599 187.7 223.599 189.9C223.666 191.033 223.299 191.966 222.499 192.7C221.799 193.3 221.099 193.2 220.199 193.5C222.743 195.526 225.955 196.525 229.199 196.3C232.699 196.3 236.799 195 236.799 191.6C236.799 190 235.899 189.2 235.299 187.8C234.188 185.669 233.605 183.303 233.599 180.9C233.599 178.7 233.799 177.4 235.099 175.6C236.399 173.7 238.099 173.3 240.299 173.3Z" fill="#C7B37F"/>
<path d="M217.898 191.2C218.098 192.133 218.765 192.8 219.898 193.2C220.451 193.318 221.026 193.277 221.557 193.083C222.088 192.888 222.553 192.547 222.898 192.1C223.698 191.1 223.598 189.8 223.398 188.8C223.116 188.077 222.63 187.451 221.998 187L217.898 191.2Z" stroke="#703D29" stroke-width="0.5" stroke-linejoin="round"/>
<path d="M320.8 252.9C319.8 250.6 317.4 251.6 317.2 252.9C316.9 255.9 319.5 256.7 321.3 256.2C322.233 255.933 322.9 255.433 323.3 254.7C323.833 253.767 323.933 252.767 323.6 251.7L322.9 250.4L321.9 249.4C321.233 249 320.333 248.833 319.2 248.9C314.8 248.9 310.9 254.2 309.6 259.7C308.887 262.854 308.819 266.119 309.4 269.3C310.071 272.689 311.702 275.813 314.1 278.3C316.333 280.459 319.037 282.068 322 283C323.133 283.333 324.167 283.333 325.1 283C327.8 282.5 329 280 327.7 277.5C326.6 275.5 323.4 274.3 321.9 276.9L321.5 278.2C321.5 279 321.767 279.6 322.3 280C323.5 280.8 325.3 280.6 325.3 278.5" stroke="#703D29" stroke-width="0.5" stroke-linecap="round"/>
<path d="M306.999 283.201C308.364 281.615 310.238 280.554 312.299 280.201C314.633 280.067 316.833 280.601 318.899 281.801C321.476 283.016 323.654 284.941 325.177 287.35C326.7 289.758 327.506 292.551 327.499 295.401C327.499 298.401 326.699 301.401 325.999 303.001C325.299 304.301 323.499 310.101 313.699 314.201C307.063 316.258 300.147 317.27 293.199 317.201C284.799 317.601 277.199 317.901 272.699 323.401" stroke="#703D29" stroke-width="0.7"/>
<path d="M309.1 292.6C308.9 291.733 309.133 290.833 309.8 289.9C310.8 288.6 312.7 288.2 314.5 289.2C315.167 289.467 315.833 290.033 316.5 290.9L317.5 292.1L318.3 294.1C320.3 299.7 317.1 305.8 313.1 308.2C309.9 310.2 306.1 311 301.6 311.5L296.3 311.8H282.9L276.9 312.4L272.5 313.2L271 313.6L270 313.9C267.3 314.658 264.711 315.767 262.3 317.2C261.566 317.6 260.9 318.067 260.3 318.6L259.2 319.6C257.7 321 256.1 322.6 255.7 324.9V326.2C255.7 327.6 256.8 329.6 260 330.2M264.4 194.1C265.067 195.167 265.267 196.2 265 197.2C264.6 198.667 263.667 199.433 262.2 199.5C259 199.5 257.2 195.7 258.6 193.3C261.1 189 266 191.4 270.6 193.5C270.3 192.5 269.9 192.1 270 190.7C270 187.4 272.6 185.9 273.6 182.7C274.2 180.9 274.4 179.3 273 178C271.9 176.8 270.5 176.9 269 177.5C265.9 178.7 262.2 182.1 255.7 182.2C249.2 182.2 245.4 178.7 242.3 177.5C240.8 176.9 239.4 176.8 238.3 178C236.9 179.3 237.1 181 237.7 182.8C238.7 185.8 241.2 187.4 241.3 190.8C241.3 192.1 241 192.4 240.7 193.5C245.3 191.5 250.4 188.8 252.7 193.3C254 195.8 252.3 199.5 249.1 199.5C247.633 199.367 246.7 198.6 246.3 197.2C245.967 196.067 246.167 195.033 246.9 194.1" stroke="#703D29" stroke-width="0.6"/>
<path d="M251.7 191.899C253.034 192.766 253.667 194.099 253.6 195.899C253.5 197.899 252.9 198.399 251.4 199.499M253.3 196.499C253.3 197.699 252.7 198.533 251.5 198.999" stroke="#703D29" stroke-width="0.6" stroke-linecap="round"/>
<path d="M221.4 186.601L221.9 187.001L222.5 187.701L222.9 188.501L223.1 189.101V190.601L222.9 191.301L222.5 191.801L222.1 192.301L221.4 192.601L220.5 192.801L219.8 193.001L219 192.601L218.2 192.101L217.8 191.401L217.5 190.601V190.301L221.4 186.601Z" fill="#C7B37F"/>
<path d="M220.198 189.701C219.898 188.401 218.398 188.101 217.798 188.901C216.798 190.101 217.498 192.101 219.398 192.701C219.951 192.819 220.526 192.778 221.057 192.583C221.588 192.389 222.053 192.048 222.398 191.601C223.065 190.467 223.232 189.401 222.898 188.401C222.698 187.734 222.232 187.167 221.498 186.701C219.298 185.001 215.798 185.401 214.698 188.201C213.198 191.801 216.398 194.501 219.398 196.501C223.198 199.001 227.398 199.501 230.698 199.501C237.998 199.401 243.598 195.901 247.198 193.901C248.065 193.434 248.765 193.501 249.298 194.101C249.832 194.767 249.765 195.501 249.098 196.301" stroke="#703D29" stroke-width="0.5" stroke-linecap="round"/>
<path d="M198.4 289L196.8 289.5L195.1 290.8L194.4 291.8L193.5 293.4L193.1 294.6L192.8 296.1L192.6 297.1M207.8 289.1V290.5L207.5 291.5L206.8 293.2L205.7 294.7L204.5 295.7L203.5 296.1L202.3 296.4" stroke="#703D29" stroke-width="0.5"/>
<path d="M255.8 327.3C255.5 328.6 254.3 330.1 251.5 330.7H251" stroke="#703D29" stroke-width="0.6"/>
<path d="M323.399 285C324.835 286.407 325.973 288.088 326.746 289.943C327.519 291.798 327.911 293.79 327.899 295.8C327.799 298.6 327.099 301.8 326.299 303.3C325.599 304.6 323.799 310.5 313.999 314.5C307.365 316.575 300.451 317.621 293.499 317.6C285.299 318 277.699 318.3 273.199 323.6" stroke="#703D29" stroke-width="0.7"/>
<path d="M310 290.3C310.6 289.4 312.8 288.4 314.6 289.3C315.406 289.679 316.097 290.266 316.6 291" stroke="#703D29" stroke-width="0.5"/>
<path d="M321.299 283L322.399 283.4C323.446 283.69 324.552 283.69 325.599 283.4C327.799 282.8 329.299 280.7 328.099 277.9C327.764 277.237 327.286 276.656 326.699 276.2" stroke="#703D29" stroke-width="0.7"/>
<path d="M192.199 223.8C190.699 224.8 189.599 225 188.399 226.3C187.466 228.036 186.76 229.885 186.299 231.8M223.199 190.4C223.065 191.8 222.265 192.667 220.799 193" stroke="#703D29" stroke-width="0.5" stroke-linecap="round"/>
<path d="M317.699 217.601C321.499 217.601 332.499 220.501 332.599 233.401C332.699 246.301 324.599 248.301 321.499 249.101" stroke="#703D29" stroke-width="0.5"/>
<path d="M318.7 217.601C325.2 217.301 331.9 222.101 332.2 234.101C332.5 243.501 325.8 247.701 322.6 248.601M315 262.701L315.2 261.501L315.6 259.501L316.2 257.801L316.9 256.501L317.7 255.501M324 252.801L323.9 254.001L323.5 254.901L323 255.701L322.3 256.201L321.3 256.501H319.8M308.4 214.201L308.7 212.901L309.3 211.601L310 210.401L311.4 208.701L312.4 207.501L314.1 205.801L315.6 204.301L316.6 203.201L317.8 201.701L318.8 200.001L319.5 198.701L319.9 196.901L320 194.801L319.8 194.101M310 296.701L311.3 296.401L312.3 295.901L312.8 295.401L313.2 294.701L313.4 293.701V293.101M187 283.301L187.9 283.401H189.1L190.4 282.901M194.4 253.601L194.2 254.801L194 255.201L193.6 255.701L193.1 256.101L192.5 256.401L191.7 256.501H191.2M199.2 244.001L198.9 245.801L198.5 246.501L197.8 247.501L196.8 248.201L195.9 248.701L194.1 249.101M206.3 217.301L206 218.301L205.5 219.101L204.9 220.001L204.1 220.701L203.1 221.201L202.3 221.401H201.7M202 216.401V217.201" stroke="#703D29" stroke-width="0.5"/>
<path d="M203.399 243.3L201.799 244.3M322.199 280L322.599 280.2C323.599 280.9 325.899 280 325.299 278.2" stroke="#703D29" stroke-width="0.5" stroke-linecap="round"/>
<path d="M318.199 255.7C318.999 256.7 320.599 257 321.799 256.7C322.665 256.433 323.332 255.9 323.799 255.1C324.265 254.3 324.365 253.3 324.099 252.1L323.399 250.8L322.299 249.7L321.999 249.5M327.199 276.7V276.1C327.199 275.167 326.866 274.4 326.199 273.8C325.999 273.533 325.765 273.333 325.499 273.2M325.899 273.5C325.899 272 324.599 271 323.099 270.7M319.799 273C319.399 272.733 319.065 272.433 318.799 272.1C316.636 269.787 315.391 266.765 315.299 263.6C315.299 260.3 316.599 256.9 318.099 255.6M272.999 323.3L274.499 322L275.499 321.2L277.299 320.1L279.099 319.2L280.299 318.9L282.799 318.4L285.699 317.9M261.999 333.4C260.487 335.617 258.369 337.352 255.899 338.4C253.428 337.352 251.311 335.617 249.799 333.4" stroke="#703D29" stroke-width="0.5"/>
<path d="M251.499 330.101C251.199 331.319 250.616 332.449 249.799 333.401" stroke="#703D29" stroke-width="0.5" stroke-linecap="round"/>
<path d="M251.798 328.4L251.398 330.2M249.598 333.5L248.798 334.3L247.398 335L245.898 335.5M241.398 193.3C241.665 192.834 241.765 192.134 241.698 191.2C241.698 187.8 239.198 186.3 238.198 183.2C237.598 181.4 237.298 179.8 238.698 178.4C239.898 177.467 241.232 177.3 242.698 177.9C245.898 179.1 249.598 182.6 256.098 182.7M256.098 182.7C249.598 182.6 245.898 179.1 242.798 177.9C241.198 177.3 239.798 177.1 238.598 178.3C237.198 179.6 237.598 181.3 238.198 183.3C239.198 186.3 241.498 187.8 241.598 191.2C241.598 192.134 241.465 192.8 241.198 193.2M256.098 182.7C262.598 182.6 266.398 179.1 269.398 177.9C270.865 177.234 272.198 177.4 273.398 178.4C272.198 177.3 271.398 177.2 269.798 177.5C267.998 177.8 262.498 182.1 256.098 182.5M319.798 273C318.23 271.874 316.957 270.386 316.086 268.663C315.216 266.939 314.774 265.031 314.798 263.1C314.798 259.8 316.098 256.4 317.698 255.1M261.698 333.1C260.213 335.302 258.132 337.037 255.698 338.1C253.191 337.069 251.037 335.332 249.498 333.1" stroke="#703D29" stroke-width="0.5"/>
<path d="M245.299 195L247.199 194C247.999 193.4 249.099 193.5 249.499 194C250.032 194.8 249.999 195.567 249.399 196.3" stroke="#703D29" stroke-width="0.5" stroke-linecap="round"/>
<path d="M235.8 199.4C240.2 198.5 243.8 196.5 246.4 195M272.3 326.4L272.9 327.1L273.1 327.8C273.3 329 272.5 329.8 271.6 329.9C271.029 329.927 270.462 329.791 269.966 329.508C269.47 329.225 269.066 328.805 268.8 328.3M235.5 199.2C239.9 198.2 243.5 196.3 246.2 194.8M324.2 280.3C323.6 280.633 322.866 280.566 322 280.1L320.5 279.3C318.5 278.2 316 276.3 313.7 272.1C313.114 270.96 312.677 269.75 312.4 268.5C312.133 267.633 312 266.733 312 265.8C311.966 264.119 312.133 262.44 312.5 260.8C312.949 258.171 314.049 255.696 315.7 253.6C316.7 252.3 317.4 251.6 319.2 251.6M204.2 220.1C204.863 220.667 205.395 221.373 205.758 222.168C206.121 222.962 206.305 223.826 206.3 224.7C206.3 227.2 204.3 231.2 199.1 232.7C197.1 233.2 195.3 232.7 194.1 232" stroke="#703D29" stroke-width="0.5"/>
<path d="M205 228.5C205.933 229.033 206.367 229.9 206.3 231.1C206.3 231.967 205.8 232.967 204.8 234.1C203.902 235.069 202.822 235.851 201.62 236.4C200.419 236.95 199.12 237.255 197.8 237.3C196.092 237.358 194.409 236.868 193 235.9C191.481 234.909 190.405 233.368 190 231.6" stroke="#703D29" stroke-width="0.5"/>
<path d="M204.999 233.8C205.932 234.8 206.365 236.033 206.299 237.5C206.299 239.567 205.299 241.467 203.299 243.2L201.799 244.2M305.399 226.6V229.5M305.099 225.9V229.9M305.399 217.3V222.5M305.099 216.2V223.2M303.599 288.9C302.599 290.9 301.799 291.9 300.299 293.4C298.944 294.774 297.352 295.892 295.599 296.7C293.952 297.502 292.202 298.074 290.399 298.4C288.299 298.9 286.999 299 284.899 299.1C282.899 299.1 281.799 299.1 279.799 298.9C277.699 298.9 276.499 298.5 274.399 298.3C272.699 298.2 271.699 298 269.899 298C266.929 297.934 263.975 298.443 261.199 299.5C258.999 300.4 256.599 301.9 256.099 302.5C255.599 301.9 253.099 300.4 250.999 299.5C248.192 298.43 245.202 297.92 242.199 298C240.499 298 239.499 298.2 237.799 298.3C235.699 298.5 234.499 298.8 232.399 298.9C228.86 299.244 225.29 299.075 221.799 298.4C219.699 297.9 218.499 297.6 216.499 296.6C214.606 295.706 212.907 294.449 211.499 292.9M245.099 335.6L246.599 335.4M270.799 333.5L272.199 333.4L273.599 332.8L274.599 332.3L275.899 330.7L276.199 330.1L276.399 328.8V328.2M313.999 218.8C314.599 216.7 313.799 214.5 311.799 214.5M206.199 251.8C205.688 253.331 204.663 254.638 203.299 255.5M206.299 218.1C206.075 218.826 205.688 219.492 205.168 220.047C204.649 220.601 204.009 221.03 203.299 221.3C201.899 222 200.099 221.3 199.299 220.7" stroke="#703D29" stroke-width="0.5"/>
<path d="M195 225.9C196.3 226.5 197.5 225.6 197.3 224C197.25 223.505 197.018 223.046 196.648 222.714C196.278 222.381 195.798 222.198 195.3 222.2" stroke="#703D29" stroke-width="0.5" stroke-linecap="round"/>
<path d="M200.1 293.301C200.367 293.634 200.6 293.834 200.8 293.901C201.3 294.001 201.8 294.201 202.3 293.501C202.833 292.501 202.7 291.467 201.9 290.401C201.294 289.797 200.511 289.403 199.665 289.277C198.819 289.151 197.955 289.3 197.2 289.701C196.6 289.967 195.933 290.501 195.2 291.301L194.3 292.601L193.4 294.601C191.8 299.201 193.7 304.101 196.8 307.101" stroke="#703D29" stroke-width="0.5"/>
<path d="M272.2 326.3L272.7 326.9L272.9 327.6C273.1 328.8 272.3 329.6 271.3 329.6C270 329.8 269.1 329 268.6 328" stroke="#703D29" stroke-width="0.5" stroke-linecap="round"/>
<path d="M311.599 187.8C312.945 188.025 314.174 188.703 315.083 189.721C315.992 190.739 316.527 192.037 316.599 193.4C316.599 197 315.399 198.3 313.499 200.8C311.499 203.5 304.999 208.5 304.999 214.2C304.932 217.533 306.066 219.766 308.399 220.9C309.999 221.6 311.899 220.9 312.699 220.1C314.699 218.2 313.999 214.9 311.699 214.5C309.199 214.1 308.699 218.2 311.199 217.9M325.499 273.2C325.382 272.511 325.029 271.883 324.5 271.427C323.97 270.971 323.298 270.713 322.599 270.7C321.803 270.7 321.04 271.016 320.478 271.578C319.915 272.141 319.599 272.904 319.599 273.7C319.599 274.5 319.899 275.166 320.499 275.7" stroke="#703D29" stroke-width="0.5"/>
<path d="M307.1 220.101C306.436 220.668 305.905 221.374 305.542 222.169C305.179 222.963 304.994 223.827 305 224.701C305 227.201 307 231.201 312.2 232.701C314.2 233.234 315.867 233.134 317.2 232.401M192.3 224.201C190.794 224.703 189.471 225.643 188.5 226.901C187.563 228.399 186.919 230.062 186.6 231.801C186.5 232.501 186.3 234.801 186.7 237.101C187.044 238.707 187.688 240.234 188.6 241.601L189.4 242.601L190.3 243.301M241.5 316.901C245.4 318.701 248.2 319.901 250.7 323.801C251.616 325.407 251.948 327.281 251.638 329.104C251.328 330.928 250.396 332.587 249 333.801C248.26 334.427 247.398 334.892 246.468 335.168C245.539 335.443 244.562 335.522 243.6 335.401C242.1 335.201 240.6 334.101 240.4 333.401M203.2 243.401C204.181 244.058 204.98 244.953 205.522 246.002C206.064 247.051 206.332 248.22 206.3 249.401C206.3 252.401 204.8 254.201 203.1 255.301" stroke="#703D29" stroke-width="0.5"/>
<path d="M201.199 253.101C204.499 257.201 206.199 259.601 206.299 264.401C206.399 269.001 204.899 272.101 202.299 275.401" stroke="#703D29" stroke-width="0.5" stroke-linecap="round"/>
<path d="M263.799 199.501C264.447 199.089 264.912 198.445 265.099 197.701C265.566 196.501 265.466 195.467 264.799 194.601C265.533 195.534 265.766 196.567 265.499 197.701C265.299 198.367 264.866 198.967 264.199 199.501M305.399 268.501V281.301L305.099 284.701M305.099 267.201V283.001L304.699 285.101M305.099 250.801V262.401M305.399 251.701V261.101M305.399 239.601V246.701M305.099 238.801V247.601M305.399 232.401V235.201M305.099 231.801V235.801M303.699 288.001L303.399 288.501C302.571 290.238 301.417 291.8 299.999 293.101C298.666 294.43 297.109 295.513 295.399 296.301C293.726 297.146 291.942 297.752 290.099 298.101C288.099 298.601 286.799 298.701 284.599 298.801C282.599 298.801 281.599 298.801 279.599 298.601C277.399 298.501 276.299 298.201 274.199 298.001C272.399 297.901 271.399 297.701 269.699 297.701C266.696 297.621 263.706 298.131 260.899 299.201C258.799 300.101 256.399 301.601 255.899 302.201C254.388 300.91 252.662 299.895 250.799 299.201C247.992 298.131 245.002 297.621 241.999 297.701C240.299 297.701 239.299 297.901 237.499 298.001C235.499 298.201 234.299 298.501 232.099 298.601C228.593 298.934 225.058 298.766 221.599 298.101C217.858 297.418 214.389 295.684 211.599 293.101L209.699 290.801M208.099 288.301C208.246 289.402 208.162 290.523 207.852 291.59C207.543 292.658 207.014 293.649 206.299 294.501C205.599 295.201 204.099 296.501 202.299 296.501C199.299 296.601 198.299 294.501 198.199 294.001" stroke="#703D29" stroke-width="0.5"/>
<path d="M204.5 287C205.11 287.614 205.617 288.323 206 289.1C206.7 290.5 206.5 292.9 205.9 294.1L205.6 294.4M189.5 308.8C191.233 310.8 194.133 312.7 198.2 314.5C204.831 316.591 211.747 317.637 218.7 317.6C226.7 317.9 234.2 318.3 238.7 323.3M252.6 320C254.002 321.231 255.098 322.772 255.8 324.5M249.9 333.7L249.4 334.2C248.672 334.813 247.826 335.271 246.915 335.546C246.004 335.821 245.046 335.908 244.1 335.8C243.41 335.728 242.742 335.513 242.14 335.168C241.537 334.824 241.013 334.358 240.6 333.8M236.3 331.4L236.6 331.7C237.626 332.857 239.059 333.574 240.6 333.7M262.2 333.7C260.674 335.88 258.558 337.58 256.1 338.6C253.63 337.552 251.512 335.817 250 333.6L249.8 333.3M262.2 333.6L262.8 334.2C263.528 334.813 264.374 335.271 265.285 335.546C266.196 335.821 267.154 335.908 268.1 335.8C268.774 335.772 269.43 335.574 270.007 335.224C270.584 334.875 271.063 334.385 271.4 333.8L271.8 333.2" stroke="#703D29" stroke-width="0.5"/>
<path d="M271.2 333.3L270.6 334.3L269.7 335L268.4 335.6H267" stroke="#703D29" stroke-width="0.5"/>
<path d="M274.398 324.2C275.215 324.794 275.869 325.585 276.298 326.5L276.698 328.5C276.715 329.662 276.326 330.793 275.598 331.7C275.044 332.32 274.366 332.818 273.609 333.162C272.851 333.507 272.03 333.69 271.198 333.7H270.898M270.998 333.5C269.465 333.478 267.998 332.87 266.898 331.8M317.898 277.5C316.274 276.012 314.92 274.252 313.898 272.3C313.313 271.16 312.876 269.95 312.598 268.7L312.198 266.1C312.198 264.5 312.365 262.833 312.698 261.1C313.201 258.438 314.333 255.936 315.998 253.8C316.465 253.133 316.998 252.533 317.598 252M316.598 191.4C318.598 191.6 320.398 193.7 320.398 195.9C320.398 199 319.398 200.3 316.898 203.3C314.798 206 308.398 210.6 308.598 215C308.665 215.866 308.998 216.6 309.598 217.2M306.998 220C307.398 220.466 307.932 220.833 308.598 221.1C309.145 221.319 309.733 221.414 310.321 221.38C310.909 221.345 311.481 221.181 311.998 220.9M295.098 186.3C295.884 186.817 296.508 187.544 296.898 188.4C298.298 192 295.098 194.7 292.098 196.7C290.106 198.021 287.857 198.907 285.498 199.3" stroke="#703D29" stroke-width="0.5"/>
<path d="M291.699 193.2C290.966 193.267 290.132 192.867 289.199 192L288.599 191.3M276.699 195.2L275.699 194.4C274.899 193.6 274.666 192.433 274.999 190.9C275.499 189.4 277.999 185.1 277.999 182.2C278.299 177.7 276.499 175 273.799 174" stroke="#703D29" stroke-width="0.5"/>
<path d="M277.9 181.2L277.8 182.9L277.3 184.6L276.4 186.9L275.7 188.5L275 190L274.7 191L274.5 191.8L274.6 192.6M305.1 293.6C305.233 293.934 305.367 294.134 305.5 294.2C306.007 294.912 306.664 295.505 307.424 295.937C308.184 296.369 309.029 296.629 309.9 296.7C312.9 296.7 313.6 294.6 313.7 294.1C314.1 291.8 313.3 291.1 312.1 290.5C312.033 290.367 311.533 290.3 310.6 290.3" stroke="#703D29" stroke-width="0.5" stroke-linecap="round"/>
<path d="M189.599 283.5C188.615 283.754 187.583 283.754 186.599 283.5C184.299 282.8 182.599 280.6 183.499 278M194.199 252.5C194.399 252.767 194.499 253.034 194.499 253.3C194.799 256.3 192.299 257.1 190.499 256.7C189.483 256.352 188.607 255.686 187.999 254.8C187.693 254.248 187.521 253.631 187.499 253M205.199 234C205.666 234.467 205.999 234.967 206.199 235.5M205.199 228.7C205.666 228.967 205.999 229.3 206.199 229.7" stroke="#703D29" stroke-width="0.5"/>
<path d="M206.298 232.4C205.983 233.136 205.543 233.813 204.998 234.4C204.092 235.351 203.008 236.115 201.807 236.647C200.606 237.178 199.312 237.469 197.998 237.5C196.29 237.558 194.608 237.068 193.198 236.1C191.613 235.07 190.444 233.511 189.898 231.7" stroke="#703D29" stroke-width="0.5" stroke-linecap="round"/>
<path d="M204.299 220.2C205.209 220.891 205.903 221.828 206.299 222.9" stroke="#703D29" stroke-width="0.5"/>
<path d="M206.3 226.601C205.828 228.195 204.925 229.627 203.689 230.739C202.454 231.851 200.934 232.599 199.3 232.901C197.515 233.29 195.649 232.967 194.1 232.001" stroke="#703D29" stroke-width="0.5" stroke-linecap="round"/>
<path d="M192 226C192.2 228.1 193.7 229.7 196.3 229.8C200.1 229.8 202.3 224.4 199 220.5" stroke="#703D29" stroke-width="0.5"/>
<path d="M183.6 244.4C184.133 245.067 184.733 245.7 185.4 246.3C186.798 247.497 188.434 248.383 190.2 248.9M194.4 249.3C197.8 248.9 199.7 246.4 199.3 243.5C199 241.2 196.9 239.5 195.5 239.5" stroke="#703D29" stroke-width="0.5" stroke-linecap="round"/>
<path d="M199.898 214.5C201.298 214.5 202.198 215.8 202.098 216.9" stroke="#703D29" stroke-width="0.5"/>
<path d="M199.5 194.5C200.258 196.452 201.672 198.079 203.5 199.1M319 224C319.369 224.572 319.573 225.236 319.589 225.916C319.605 226.597 319.434 227.269 319.092 227.859C318.751 228.448 318.254 228.932 317.655 229.257C317.057 229.582 316.38 229.735 315.7 229.7C314.992 229.706 314.295 229.525 313.68 229.173C313.065 228.822 312.554 228.313 312.2 227.7" stroke="#703D29" stroke-width="0.5" stroke-linecap="round"/>
<path d="M305.398 199.3V211.9" stroke="#703D29" stroke-width="0.5"/>
<path d="M194.999 225.9C196.199 226.7 197.599 225.3 196.999 223.8C196.699 222.8 195.199 221.7 193.199 223C191.099 224.5 191.699 229.3 195.899 229.3C199.599 229.4 201.899 223.9 198.599 220.1C195.299 216.3 189.599 217.2 185.599 220.3C182.766 222.704 180.799 225.971 179.999 229.6C179.456 232.037 179.456 234.563 179.999 237C180.408 239.135 181.223 241.172 182.399 243L183.399 244.3L184.999 245.9C187.284 247.918 190.252 248.99 193.299 248.9C197.099 248.8 199.299 246.1 198.799 243C198.399 240 195.399 238.5 193.399 240C192.099 240.9 191.599 243.8 193.999 244.5C195.299 244.9 196.499 243.2 195.599 242.2M299.199 184.7C301.399 183.5 303.066 183.733 304.199 185.4C305.361 187.094 305.827 189.171 305.499 191.2C305.099 193.4 304.499 194.2 302.699 195.8" stroke="#703D29" stroke-width="0.5" stroke-linecap="round"/>
<path d="M304.398 185.601C306.898 184.001 309.598 184.601 310.998 186.901C312.029 188.314 312.493 190.062 312.298 191.801C312.204 193.305 311.734 194.762 310.93 196.038C310.127 197.313 309.015 198.366 307.698 199.101" stroke="#703D29" stroke-width="0.5" stroke-linecap="round"/>
<path d="M315.999 191.3C317.999 191.5 319.699 193.3 319.699 195.5C319.699 198.5 318.899 199.9 316.399 202.9C314.299 205.5 307.999 210.1 308.099 214.6C308.099 216.2 309.599 217.8 310.799 217.9" stroke="#703D29" stroke-width="0.5"/>
<path d="M316.299 225.9C315.099 226.7 313.699 225.4 314.299 223.9C314.699 222.9 316.099 221.7 317.999 223C320.199 224.5 319.599 229.3 315.399 229.3C311.699 229.4 309.099 224.1 312.699 220.1C315.999 216.4 322.099 217.1 325.899 220.1C327.499 221.5 330.899 225.1 331.499 229.7C332.399 235.3 332.199 242.3 326.499 246.5C323.999 248.197 321.017 249.038 317.999 248.9C314.199 248.8 311.999 246.1 312.499 243C312.899 240 315.799 238.7 317.899 240C320.099 241.1 319.699 244.3 317.299 244.5C315.899 244.7 314.799 243.2 315.699 242.2" stroke="#703D29" stroke-width="0.5" stroke-linecap="round"/>
<path d="M314.299 224C314.899 221.1 317.299 220.9 319.299 220.9C324.499 220.9 328.199 227.2 328.299 233.3C328.299 240.9 324.999 245.4 319.299 245.6C317.999 245.7 315.499 245 315.399 243.3" stroke="#703D29" stroke-width="0.5"/>
<path d="M317.5 222.7C323.1 223.9 325.1 228.9 325.1 233.7C325.1 237.6 324.7 242.9 317.1 244.7" stroke="#703D29" stroke-width="0.5" stroke-linecap="square"/>
<path d="M326.699 276.3C326.806 275.762 326.768 275.205 326.589 274.686C326.41 274.167 326.096 273.705 325.68 273.348C325.264 272.99 324.761 272.749 324.221 272.649C323.681 272.55 323.125 272.595 322.609 272.781C322.092 272.967 321.634 273.286 321.282 273.707C320.93 274.128 320.695 274.635 320.603 275.175C320.51 275.716 320.563 276.272 320.756 276.786C320.949 277.3 321.274 277.753 321.699 278.1" stroke="#703D29" stroke-width="0.5"/>
<path d="M315.6 271.5C316.802 273.523 318.53 275.182 320.6 276.3M319.6 284.7C316.9 283 311.9 280.7 307.4 282.9C306.62 283.213 305.914 283.686 305.328 284.289C304.742 284.892 304.29 285.611 304 286.4C303.568 287.704 303.479 289.098 303.741 290.446C304.004 291.795 304.61 293.053 305.5 294.1C306.509 295.294 307.944 296.048 309.5 296.2C312.5 296.2 313.2 294.2 313.3 293.7C313.6 291.5 312.3 290.6 311.7 290.4C311.1 290.2 309.5 290.2 309.1 291.4C308.967 291.867 309.033 292.4 309.3 293" stroke="#703D29" stroke-width="0.5" stroke-linecap="round"/>
<path d="M272.399 326.7C273.199 328.5 272.299 329.3 271.099 329.4C269.399 329.6 268.499 328.3 268.399 327.1C268.199 325.1 269.899 323.2 271.899 323.3C272.781 323.26 273.652 323.512 274.376 324.019C275.099 324.525 275.635 325.257 275.899 326.1C276.099 326.7 276.199 327.333 276.199 328C276.239 329.196 275.849 330.367 275.099 331.3C274.556 331.908 273.894 332.399 273.155 332.743C272.416 333.087 271.614 333.276 270.799 333.3C267.399 333.4 264.799 330.3 264.799 327C264.799 320.9 273.899 317.5 277.599 316.6C282.287 315.488 287.081 314.884 291.899 314.8C294.799 314.6 296.899 314.7 299.999 314.4C302.799 314.1 304.299 313.9 307.199 313.3C310.927 312.465 314.374 310.672 317.199 308.1C319.809 306.063 321.612 303.168 322.29 299.928C322.967 296.687 322.474 293.312 320.899 290.4C319.98 288.991 318.775 287.791 317.362 286.878C315.95 285.965 314.361 285.359 312.699 285.1C309.566 284.633 307.166 285.9 305.499 288.9C305.155 289.692 304.986 290.548 305.003 291.411C305.02 292.274 305.224 293.123 305.599 293.9C306.099 294.8 307.599 296.2 309.399 296.2C312.399 296.2 313.199 294.2 313.299 293.7C313.599 291.5 312.299 290.6 311.699 290.4C311.099 290.2 309.499 290.2 309.099 291.4C308.966 291.867 309.032 292.4 309.299 293" stroke="#703D29" stroke-width="0.5" stroke-linecap="round"/>
<path d="M269.799 317C265.799 318.7 262.999 320 260.599 323.7C259.922 324.923 259.577 326.302 259.599 327.7C259.599 329.8 260.599 332.2 262.299 333.7C263.031 334.344 263.889 334.828 264.819 335.12C265.749 335.413 266.73 335.508 267.699 335.4C269.199 335.2 270.699 334.1 270.899 333.4" stroke="#703D29" stroke-width="0.5" stroke-linecap="round"/>
<path d="M308 243.3C306.3 243.9 305 246.7 305 249.3C305 252.3 306.4 254.3 308.2 255.3" stroke="#703D29" stroke-width="0.5"/>
<path d="M309.999 253.101C306.799 257.201 304.999 259.601 304.999 264.401C304.899 269.001 306.299 272.101 308.999 275.401" stroke="#703D29" stroke-width="0.5" stroke-linecap="round"/>
<path d="M292.699 185.6L292.999 185.2C294.299 183.2 296.699 182.7 298.499 184C300.499 185.6 301.099 188.3 300.499 191.2C300.286 192.11 299.894 192.968 299.344 193.724C298.795 194.48 298.099 195.118 297.299 195.6" stroke="#703D29" stroke-width="0.5"/>
<path d="M212 184.7C210 183.7 208.334 183.933 207 185.4C205.873 187.109 205.443 189.184 205.8 191.2C206.2 193.3 206.8 194.2 208.6 195.8" stroke="#703D29" stroke-width="0.5" stroke-linecap="round"/>
<path d="M206.9 185.601C204.4 184.001 201.7 184.601 200.3 186.901C199.27 188.314 198.806 190.062 199 191.801C199.094 193.305 199.565 194.762 200.368 196.038C201.172 197.313 202.283 198.366 203.6 199.101" stroke="#703D29" stroke-width="0.5"/>
<path d="M199.698 187.8C198.398 187.966 197.2 188.592 196.32 189.563C195.44 190.535 194.936 191.789 194.898 193.1C194.898 196.7 195.798 198.1 197.798 200.8C199.798 203.5 206.298 208.5 206.298 214.2C206.365 217.533 205.232 219.766 202.898 220.9C201.298 221.6 199.398 220.9 198.598 220.1C196.598 218.2 197.398 214.9 199.498 214.5C202.098 214.1 202.598 218.2 200.098 217.9" stroke="#703D29" stroke-width="0.5"/>
<path d="M195.199 191.3C193.199 191.5 191.199 193.3 191.199 195.3C191.199 198.4 192.399 199.8 194.899 202.9C196.899 205.5 202.899 210.1 202.799 214.5C202.799 216.1 201.599 218.2 200.499 217.9" stroke="#703D29" stroke-width="0.5"/>
<path d="M190.499 252.9C191.499 250.6 193.899 251.6 193.999 252.9C194.399 255.9 191.799 256.7 189.999 256.2C189.066 255.933 188.399 255.433 187.999 254.7C187.647 254.02 187.498 253.254 187.569 252.491C187.64 251.729 187.928 251.003 188.399 250.4L189.399 249.4C190.066 249 190.966 248.833 192.099 248.9C196.499 248.9 200.399 254.2 201.699 259.7C202.412 262.854 202.48 266.119 201.899 269.3C201.228 272.689 199.597 275.813 197.199 278.3C194.966 280.459 192.262 282.068 189.299 283C188.252 283.29 187.146 283.29 186.099 283C183.899 282.4 182.399 280.2 183.599 277.5C184.599 275.4 187.899 274.3 189.399 276.9C189.532 277.167 189.632 277.6 189.699 278.2C189.699 279 189.432 279.6 188.899 280C187.799 280.8 185.899 280.6 185.999 278.5" stroke="#703D29" stroke-width="0.5" stroke-linecap="round"/>
<path d="M187 280.301C187.8 280.601 188.3 280.601 189.3 280.101L190.8 279.301C192.8 278.201 195.3 276.301 197.5 272.101C198.12 270.966 198.591 269.756 198.9 268.501L199.3 265.801C199.334 264.12 199.166 262.441 198.8 260.801C198.35 258.171 197.25 255.696 195.6 253.601C194.6 252.301 193.9 251.601 192.1 251.601M184.6 276.301C184.493 275.762 184.532 275.205 184.711 274.687C184.89 274.168 185.203 273.706 185.619 273.348C186.035 272.99 186.539 272.749 187.079 272.65C187.618 272.55 188.175 272.595 188.691 272.781C189.207 272.967 189.665 273.287 190.018 273.708C190.37 274.128 190.604 274.635 190.697 275.176C190.789 275.717 190.736 276.273 190.544 276.786C190.351 277.3 190.025 277.754 189.6 278.101" stroke="#703D29" stroke-width="0.5"/>
<path d="M185.799 273.2C185.915 272.511 186.269 271.884 186.798 271.427C187.328 270.971 188 270.714 188.699 270.7C189.494 270.7 190.258 271.016 190.82 271.579C191.383 272.141 191.699 272.905 191.699 273.7C191.636 274.471 191.277 275.187 190.699 275.7" stroke="#703D29" stroke-width="0.5"/>
<path d="M191.5 273.001C193.068 271.874 194.342 270.386 195.212 268.663C196.083 266.939 196.525 265.031 196.5 263.101C196.5 259.801 195.2 256.401 193.6 255.101" stroke="#703D29" stroke-width="0.5"/>
<path d="M195.699 271.5C194.498 273.523 192.77 275.182 190.699 276.3" stroke="#703D29" stroke-width="0.5" stroke-linecap="round"/>
<path d="M203.7 283C202.967 281.267 201.433 280.3 199.1 280.1C196.786 279.924 194.476 280.484 192.5 281.7C190.617 282.566 188.934 283.813 187.557 285.362C186.18 286.911 185.139 288.729 184.5 290.7C184.046 292.189 183.843 293.744 183.9 295.3C183.9 298.2 184.7 301.3 185.5 302.8C186.1 304.2 187.9 310 197.7 314C204.361 316.119 211.31 317.199 218.3 317.2C226.6 317.5 234.3 317.8 238.7 323.3" stroke="#703D29" stroke-width="0.5"/>
<path d="M191.699 284.7C194.399 283 199.299 280.7 203.799 282.9C205.353 283.602 206.598 284.846 207.299 286.4C207.731 287.704 207.821 289.098 207.558 290.447C207.295 291.795 206.689 293.054 205.799 294.1C205.099 294.8 203.699 296.1 201.799 296.2C198.799 296.2 198.099 294.2 197.999 293.7C197.699 291.5 198.999 290.6 199.599 290.4C200.099 290.2 201.799 290.2 202.199 291.4C202.333 291.867 202.266 292.4 201.999 293" stroke="#703D29" stroke-width="0.5" stroke-linecap="round"/>
<path d="M202.2 292.601C202.31 292.127 202.304 291.635 202.182 291.164C202.06 290.694 201.826 290.26 201.5 289.901C200.894 289.297 200.111 288.903 199.265 288.777C198.419 288.651 197.555 288.8 196.8 289.201C195.993 289.579 195.303 290.166 194.8 290.901L193.8 292.101L193 294.101C191 299.701 194.2 305.701 198.2 308.201C201.693 310.254 205.649 311.389 209.7 311.501L215 311.801H228.4L234.4 312.401L238.8 313.201L240.3 313.601L241.3 313.901C244 314.658 246.589 315.768 249 317.201C249.733 317.601 250.4 318.067 251 318.601L252.1 319.601C253.6 321.001 255.2 322.601 255.6 324.901V326.201C255.6 327.601 254.5 329.601 251.3 330.201" stroke="#703D29" stroke-width="0.5"/>
<path d="M239 326.7C238 328.5 239 329.3 240.2 329.4C241.9 329.6 242.8 328.3 242.9 327.1C243.1 325.1 241.4 323.2 239.4 323.3C238.518 323.26 237.647 323.512 236.923 324.019C236.2 324.525 235.664 325.257 235.4 326.1L235.1 328C235.032 329.184 235.386 330.353 236.1 331.3C236.655 331.92 237.332 332.418 238.09 332.763C238.847 333.107 239.668 333.29 240.5 333.3C243.9 333.4 246.5 330.3 246.5 327C246.5 320.9 237.4 317.5 233.7 316.6C229.012 315.488 224.218 314.884 219.4 314.8C216.5 314.6 214.4 314.7 211.3 314.4C208.5 314.1 207 313.9 204.1 313.3C200.372 312.465 196.925 310.672 194.1 308.1C191.49 306.063 189.686 303.168 189.009 299.928C188.332 296.687 188.825 293.312 190.4 290.4C191.319 288.991 192.524 287.791 193.937 286.878C195.349 285.965 196.938 285.359 198.6 285.1C201.733 284.633 204.1 285.9 205.7 288.9C206.5 290.3 206.3 292.7 205.7 293.9C205.277 294.563 204.703 295.117 204.025 295.517C203.348 295.916 202.585 296.151 201.8 296.2C198.8 296.2 198.1 294.2 198 293.7C197.7 291.5 199 290.6 199.6 290.4C200.1 290.2 201.8 290.2 202.2 291.4C202.333 291.867 202.267 292.4 202 293" stroke="#703D29" stroke-width="0.5"/>
<path d="M218.6 185.6L218.3 185.2C217 183.2 214.6 182.7 212.8 184C210.8 185.6 210.2 188.3 210.8 191.2C211.013 192.11 211.406 192.968 211.955 193.724C212.505 194.48 213.2 195.118 214 195.6" stroke="#703D29" stroke-width="0.5" stroke-linecap="round"/>
<path d="M293.398 191.7C290.198 195.2 286.898 196.3 282.098 196.5C280.598 196.5 277.698 196 276.098 194.8C275.098 194 273.798 192.8 274.598 190.4C275.098 188.9 277.598 184.7 277.598 181.7C277.798 177.2 276.098 174.7 273.398 173.8C268.398 172 262.998 177 259.798 178.1C258.482 178.558 257.091 178.762 255.698 178.7C254.098 178.7 253.198 178.7 251.498 178.1C248.298 177 242.898 172.1 237.898 173.8C235.198 174.8 233.498 177.2 233.698 181.8C233.698 184.7 236.198 188.9 236.698 190.4C237.498 192.7 236.298 194 235.198 194.8C233.383 195.886 231.313 196.472 229.198 196.5C224.298 196.3 221.198 195.2 217.898 191.7" stroke="#703D29" stroke-width="0.5"/>
<path d="M237.898 315.5C238.498 315.8 237.998 315.4 242.098 317.2C245.898 318.9 248.698 320.4 251.098 324.2C251.993 326.031 252.24 328.111 251.798 330.1" stroke="#703D29" stroke-width="0.5" stroke-linecap="round"/>
<path d="M238.1 332.801C238.902 333.228 239.791 333.467 240.7 333.501C244.1 333.601 246.7 330.501 246.7 327.201C246.566 325.067 245.6 323.201 243.8 321.601" stroke="#703D29" stroke-width="0.5"/>
<path d="M238.9 326.7C238 328.6 239.2 329.5 240.4 329.7C242.1 329.9 243 328.5 243.2 327.3C243.205 326.653 243.052 326.016 242.756 325.441C242.46 324.866 242.029 324.372 241.5 324" stroke="#703D29" stroke-width="0.5" stroke-linecap="round"/>
<path d="M311.999 187.8C314.599 187.8 316.899 190.7 316.899 193.6C316.899 197 315.099 199.1 313.799 200.6C312.799 201.8 311.599 203.066 310.199 204.4" stroke="#703D29" stroke-width="0.5"/>
<path d="M308.999 185.1C309.955 185.511 310.759 186.21 311.299 187.1C312.294 188.528 312.722 190.274 312.499 192C312.399 195.4 309.999 197.7 307.799 199.1M303.999 185.1L304.499 185.7C305.097 186.508 305.513 187.436 305.72 188.419C305.927 189.403 305.92 190.42 305.699 191.4C305.318 193.205 304.24 194.786 302.699 195.8M298.699 184.2C300.699 185.8 301.399 188.6 300.699 191.4C300.099 193.4 298.999 194.8 297.399 195.6M306.299 228.5C306.499 229.1 306.899 229.6 307.499 230C308.85 231.38 310.54 232.38 312.399 232.9C313.234 233.154 314.113 233.223 314.977 233.102C315.84 232.981 316.667 232.673 317.399 232.2M186.999 275.4C188.066 275.4 188.966 276 189.699 277.2L189.999 278.4C189.999 279.134 189.733 279.734 189.199 280.2C187.999 280.9 185.999 280.6 186.099 278.5" stroke="#703D29" stroke-width="0.5" stroke-linecap="round"/>
<path d="M193.199 249C197.199 249.8 200.899 254.5 202.199 259.7C202.911 262.854 202.98 266.119 202.399 269.3C201.728 272.689 200.097 275.813 197.699 278.3C197.232 278.833 196.665 279.333 195.999 279.8L195.099 280.4M188.799 270.7C190.399 270.7 191.799 272.2 191.799 273.9C191.789 274.643 191.504 275.355 190.999 275.9" stroke="#703D29" stroke-width="0.5"/>
<path d="M187.699 272.601C189.399 272.601 190.999 274.201 190.999 275.901C191.015 276.383 190.914 276.862 190.705 277.298C190.497 277.733 190.186 278.111 189.799 278.401" stroke="#703D29" stroke-width="0.5"/>
<path d="M203.199 255.601C204.733 257.534 205.733 259.601 206.199 261.801M206.199 268.601C205.931 269.712 205.528 270.787 204.999 271.801C204.278 273.181 203.332 274.432 202.199 275.501" stroke="#703D29" stroke-width="0.5" stroke-linecap="round"/>
<path d="M203.398 243.5C204.693 244.456 205.669 245.781 206.198 247.3" stroke="#703D29" stroke-width="0.5"/>
<path d="M206.299 239.6C205.733 241.046 204.803 242.32 203.599 243.3M196.299 229.5L197.999 229.1L198.999 228.3L199.699 227.3L200.199 225.9L200.499 224.7" stroke="#703D29" stroke-width="0.5" stroke-linecap="round"/>
<path d="M192.8 223.4L190.8 224.1C189.669 224.636 188.702 225.465 188 226.5C187.109 227.976 186.499 229.603 186.2 231.3C186 232 185.8 234.3 186.2 236.6C186.561 238.249 187.241 239.811 188.2 241.2L189 242.2C189.933 243.334 191.1 243.8 192.5 243.6" stroke="#703D29" stroke-width="0.5"/>
<path d="M202.4 215.8C202.2 216.8 201.6 218.1 200 218" stroke="#703D29" stroke-width="0.5" stroke-linecap="round"/>
<path d="M196.5 222.8C195 221.3 191.7 220.9 188.5 223C188.033 223.2 187.6 223.533 187.2 224L186.1 225.2L184.9 227.2L184.2 229.2C183.6 231.5 183.6 233.7 183.6 234.2L183.9 236.4C184.197 238.16 184.807 239.854 185.7 241.4C186.3 242.571 187.179 243.577 188.261 244.327C189.342 245.077 190.592 245.548 191.9 245.7C193.3 245.8 195.8 245.1 195.9 243.3" stroke="#703D29" stroke-width="0.5"/>
<path d="M291 189.701C291.2 188.301 292.8 188.101 293.4 188.901C294.4 190.101 293.8 192.101 291.9 192.701C291.347 192.819 290.772 192.778 290.241 192.583C289.711 192.389 289.246 192.048 288.9 191.601C288.167 190.534 288 189.467 288.4 188.401C288.6 187.734 289.067 187.167 289.8 186.701C291.9 185.001 295.5 185.401 296.6 188.201C298.1 191.801 294.9 194.501 291.9 196.501C288.1 199.001 283.9 199.501 280.6 199.501C273.3 199.401 267.7 195.901 264.1 193.901C263.233 193.434 262.533 193.501 262 194.101C261.467 194.767 261.533 195.467 262.2 196.201" stroke="#703D29" stroke-width="0.5" stroke-linecap="round"/>
<path d="M292.5 188.4C293.166 188.467 293.566 188.7 293.7 189.1C294.7 190.3 294 192.3 292.1 192.9M306.4 234.1C303.6 237.1 306.1 242.4 308.2 243.6C308.9 244.1 309.2 243.8 309.8 244.2" stroke="#703D29" stroke-width="0.5" stroke-linecap="round"/>
<path d="M306.5 228.301C305.633 228.967 305.2 229.834 305.2 230.901C305.151 231.489 305.234 232.082 305.441 232.635C305.649 233.188 305.976 233.689 306.4 234.101C308.378 235.969 310.979 237.038 313.7 237.101C315.442 237.181 317.163 236.689 318.6 235.701C320.119 234.71 321.195 233.168 321.6 231.401M305 281.001V283.001C304.6 285.201 304.3 286.501 303.3 288.501C302.461 290.202 301.308 291.729 299.9 293.001C298.545 294.375 296.953 295.493 295.2 296.301C293.558 297.137 291.808 297.743 290 298.101C288.187 298.454 286.347 298.655 284.5 298.701H279.5L274 298.001C272.3 297.801 271.3 297.701 269.6 297.701C266.597 297.621 263.607 298.131 260.8 299.201C258.973 299.905 257.281 300.92 255.8 302.201C255.2 301.601 252.8 300.001 250.6 299.201C249.286 298.639 247.909 298.236 246.5 298.001C244.7 297.701 243.7 297.701 241.9 297.701C240.1 297.701 239.2 297.801 237.4 298.001C235.4 298.201 234.1 298.501 232 298.601C230 298.701 229 298.801 227 298.701C224.8 298.701 223.6 298.501 221.4 298.101C219.592 297.743 217.842 297.137 216.2 296.301C214.2 295.301 213.2 294.601 211.5 293.001C210.128 291.72 209.009 290.194 208.2 288.501C207.284 286.794 206.706 284.926 206.5 283.001V199.601H305V281.001Z" stroke="#703D29" stroke-width="0.5"/>
<path d="M198.3 292.5C198.3 291.969 198.51 291.46 198.885 291.085C199.26 290.71 199.769 290.5 200.3 290.5C200.83 290.5 201.339 290.71 201.714 291.085C202.089 291.46 202.3 291.969 202.3 292.5C202.3 293.03 202.089 293.539 201.714 293.914C201.339 294.289 200.83 294.5 200.3 294.5C199.769 294.5 199.26 294.289 198.885 293.914C198.51 293.539 198.3 293.03 198.3 292.5ZM186.1 278.4C186.166 277.333 186.633 276.733 187.5 276.6C188.366 276.733 188.833 277.333 188.9 278.4C189 280 188.3 280.2 187.5 280.2C186.633 280.066 186.166 279.466 186.1 278.4Z" fill="#C7B37F" stroke="#C7B37F" stroke-width="0.3"/>
<path d="M193 242.9C193.133 242.033 193.6 241.533 194.4 241.4C195.267 241.533 195.733 242.033 195.8 242.9C195.9 244.2 195.2 244.3 194.4 244.3C193.6 244.233 193.167 243.766 193.1 242.9H193ZM217.6 190.4C217.6 189.4 217.933 188.866 218.6 188.8C219.4 188.8 219.9 189.233 220.1 190.1C220.1 190.966 219.733 191.5 219 191.7C218.2 191.7 217.733 191.266 217.6 190.4Z" fill="#C7B37F"/>
<path d="M191.4 251.2L190.8 251.6L190.3 252.3L190.1 253.3M193.9 274.6L194.6 273.8L195.2 273L195.6 272.3L196.1 271.3M195.1 282.3L193.9 282.9L193 283.4L192 284.1L191 284.9M203 254.6L202.4 253.9L201.7 253.2L200.9 252.7" stroke="#C7B37F" stroke-width="0.5" stroke-linecap="round"/>
<path d="M203.299 244L202.299 244.4L201.199 244.6" stroke="#C7B37F" stroke-width="0.5"/>
<path d="M190 230.8C190 231.2 190.1 231.566 190.3 231.9L191 233.3C191.571 234.153 192.322 234.869 193.2 235.4L194.4 236.1M193.5 231.4L194.5 231.9C195.257 232.23 196.074 232.4 196.9 232.4L198.4 232.3M204.1 199.8L202.5 198.8C201.577 198.172 200.766 197.395 200.1 196.5L199.4 195.5M205.4 191.9L205.9 193.2L207.1 194.9C207.8 195.7 208.4 195.9 209.3 196.5M210.4 191.8L210.9 193L211.6 194L212.6 195L214.2 196" stroke="#C7B37F" stroke-width="0.5" stroke-linecap="round"/>
<path d="M266.599 185.3C266.599 183.9 265.299 183.8 264.699 183.8C263.299 183.8 262.899 184.8 260.999 185.8C259.397 186.751 257.562 187.236 255.699 187.2C253.785 187.287 251.893 186.762 250.299 185.7C248.399 184.7 248.099 183.8 246.699 183.8C245.899 183.8 244.799 184.5 244.899 185.8V186.5C244.899 186.5 245.099 186.5 245.099 186.7C245.099 186.033 245.232 185.566 245.499 185.3C245.827 184.909 246.292 184.659 246.799 184.6C248.299 184.6 248.799 185.6 250.699 186.6C252.29 187.586 254.127 188.106 255.999 188.1C257.999 188.1 259.099 187.8 261.399 186.6C263.299 185.6 263.799 184.6 265.299 184.6C265.766 184.6 266.099 184.866 266.299 185.4V186.1H266.499L266.599 185.3Z" fill="#703D29" stroke="#703D29" stroke-width="0.1"/>
<path d="M211.501 299.2L212.301 298.7L212.101 298.5L211.401 298.3L210.701 298C210.701 298 210.401 297.8 210.301 298C210.301 298.3 211.201 298.3 210.801 299.1C210.801 299.3 210.601 299.634 210.201 300.1L208.101 302.4L207.901 302.6V299L208.001 297.6C208.201 297.2 208.601 297.6 208.701 297.3C208.701 297.167 208.634 297.067 208.501 297C208.367 296.934 208.034 296.834 207.501 296.7L206.801 296.4H206.301L206.401 296.6C206.667 296.734 206.801 296.967 206.801 297.3V303.3C206.801 303.7 206.867 303.9 207.001 303.9L207.301 303.7L211.501 299.1V299.2Z" fill="#703D29"/>
<path d="M214.001 300.1C214.301 299.3 214.801 299.8 214.901 299.5L214.601 299.3L213.601 299L212.601 298.6H212.301C212.301 299 213.301 299 213.001 299.9L211.601 304.3C211.301 305.1 210.801 304.7 210.701 305V305.1L211.701 305.4L212.901 305.8H213.201C213.301 305.5 212.201 305.6 212.601 304.5L214.001 300.1ZM217.001 301.1C217.135 300.566 217.368 300.4 217.701 300.6C218.435 301 218.701 301.666 218.501 302.6C218.301 303.1 218.101 303.6 216.901 303.3C216.568 303.233 216.401 303.1 216.401 302.9L217.001 301.1ZM214.701 305C214.301 306.1 213.701 305.6 213.701 306L213.901 306.1L215.201 306.5L215.901 306.7H216.201C216.201 306.3 215.301 306.5 215.601 305.5L216.101 303.9C216.035 303.633 216.201 303.533 216.601 303.6C217.001 303.666 217.201 303.9 217.201 304.3L217.501 306C217.501 306.666 217.768 307.133 218.301 307.4C218.601 307.6 219.301 307.5 219.301 307.2V307.1H219.001L218.701 306.8L218.201 303.8L218.801 303.6C219.135 303.466 219.401 303.133 219.601 302.6C219.701 302.2 219.901 300.9 218.101 300.3L216.501 299.9L215.501 299.6H215.301C215.201 300 216.201 299.9 215.901 300.9L214.701 304.9V305ZM221.401 307C221.201 308 220.401 307.4 220.201 307.7C220.201 307.9 220.301 308 220.501 308L221.701 308.2L222.801 308.6L223.301 308.5C223.301 308.2 222.201 308.2 222.501 307.1L223.501 302.9C223.501 302.5 223.668 302.366 224.001 302.5L224.701 302.7C225.701 302.9 225.201 303.8 225.501 303.9C225.701 303.833 225.801 303.666 225.801 303.4V302.3L223.201 301.7L220.701 301.1C220.568 301.1 220.501 301.166 220.501 301.3L220.001 302.5V302.8C220.501 302.9 220.501 301.6 221.401 301.8L222.101 302C222.501 302 222.635 302.2 222.501 302.6L221.501 306.9L221.401 307ZM231.601 304.3C231.901 303.8 232.301 303.9 232.301 303.7L232.001 303.5H231.301L230.601 303.3H230.201C230.201 303.7 231.101 303.5 230.901 304.3C230.901 304.5 230.735 304.866 230.401 305.4L228.701 308.1L228.601 308.3V308L228.001 304.8L227.901 303.5C227.901 303.1 228.401 303.3 228.501 303L228.201 302.8L227.201 302.7L226.401 302.5H226.001L226.101 302.7C226.501 302.833 226.668 303.066 226.601 303.4L227.701 309.3C227.768 309.633 227.868 309.8 228.001 309.8L228.201 309.6L231.601 304.3ZM232.101 309.7L232.201 310.1L233.601 310.7C234.801 310.833 235.568 310.266 235.901 309C236.035 307.933 235.635 307.166 234.701 306.7C233.701 305.9 233.201 305.7 233.401 305.1C233.468 304.433 233.801 304.166 234.401 304.3C235.901 304.5 235.801 306.3 236.001 306.3C236.135 306.3 236.201 306.2 236.201 306L236.301 304.7V304.4H235.801L234.601 303.9C233.535 303.766 232.868 304.3 232.601 305.5C232.468 306.366 232.801 307 233.601 307.4C234.801 308.3 235.301 308.4 235.201 309.3C234.935 310.033 234.468 310.366 233.801 310.3C232.868 309.966 232.368 309.3 232.301 308.3L232.201 308C232.068 308.066 232.001 308.2 232.001 308.4V309.7H232.101ZM244.701 306.2C245.001 305.6 245.301 305.7 245.401 305.5C245.401 305.366 245.301 305.3 245.101 305.3H244.301L243.601 305.2L243.201 305.3C243.201 305.7 244.201 305.3 244.001 306.3L243.701 307.3L242.301 310.2L242.101 310.4V310.2L241.101 307L240.901 305.7C240.901 305.3 241.501 305.4 241.501 305.2C241.501 305 241.501 305 241.201 305H240.201L239.401 304.9H239.001L239.101 305.1C239.435 305.233 239.635 305.433 239.701 305.7L241.401 311.5C241.468 311.833 241.568 312 241.701 312L241.901 311.7L244.701 306.2Z" fill="#703D29"/>
<path d="M246.001 310.8C246.001 311.8 245.201 311.6 245.201 312H246.201L247.201 312.1L247.601 312C247.601 311.5 246.501 312.2 246.501 310.3V306.9C246.501 306.9 246.701 306.9 246.801 307.1L250.801 312.1H251.101V311.9L251.201 306.6C251.201 305.6 252.001 305.8 252.001 305.5L251.801 305.4H249.801V305.5C249.801 305.8 250.801 305.7 250.801 306.5V309.7L250.701 310.1L250.401 309.8L247.001 305.6C247.001 305.4 246.901 305.3 246.701 305.3H245.301L245.201 305.5C245.201 305.9 246.201 305.3 246.101 307.2V310.8H246.001ZM254.401 306.5C254.401 305.5 255.001 305.9 255.001 305.6L254.701 305.5H252.401C252.401 305.9 253.301 305.6 253.301 306.5V311.1C253.301 312.1 252.701 311.8 252.701 312.1V312.2H255.001L255.301 312.1C255.301 311.8 254.301 312.2 254.301 311.1L254.401 306.5ZM258.001 310.9C258.001 312.1 257.001 311.6 257.001 311.9C257.001 312.167 257.101 312.267 257.301 312.2H259.701C260.035 312.2 260.201 312.133 260.201 312C260.201 311.7 259.101 312 259.101 310.8V306.5C259.101 306.1 259.201 305.933 259.401 306H260.201C261.201 306 260.901 307 261.201 307C261.401 306.867 261.468 306.7 261.401 306.5L261.301 305.6C261.301 305.6 261.301 305.4 261.101 305.4H256.001C255.868 305.4 255.801 305.5 255.801 305.7L255.701 306.9L255.801 307.3C256.201 307.3 255.901 306 256.901 306H257.601C257.935 305.933 258.101 306.1 258.101 306.5V310.9H258.001ZM263.001 309.1H262.701V308.7L263.301 306.9H263.401L264.401 308.6V308.9L264.201 309L263.001 309.1ZM264.501 309.5C264.635 309.367 264.835 309.633 265.101 310.3L265.301 310.9C265.301 311.5 264.701 311.5 264.701 311.7C264.701 311.833 264.801 311.867 265.001 311.8H266.001L267.001 311.7C267.268 311.7 267.401 311.633 267.401 311.5C267.401 311.2 266.901 311.6 266.601 310.9L263.801 305.3L263.601 305L263.401 305.4L261.501 311.3L260.901 312C260.901 312.133 261.001 312.167 261.201 312.1H262.701C262.968 312.1 263.135 312 263.201 311.8C263.201 311.6 262.201 311.8 262.201 311.1L262.301 310.4C262.501 309.8 262.668 309.567 262.801 309.7L264.501 309.5ZM271.101 305.5C271.101 304.9 271.101 304.9 272.101 304.8C273.701 304.5 273.201 305.8 273.601 305.7C273.735 305.567 273.768 305.4 273.701 305.2L273.601 304.2H273.401L271.401 304.4L269.201 304.7C269.068 304.7 269.001 304.767 269.001 304.9C269.001 305.2 270.001 304.9 270.001 305.7L270.601 310.1C270.801 311.3 270.101 310.8 270.101 311.3H270.301L271.401 311.2L272.401 311.1C272.601 311.1 272.734 311.033 272.801 310.9C272.801 310.6 271.801 310.9 271.701 309.9L271.501 308.5C271.368 308.033 271.468 307.8 271.801 307.8H272.401C273.301 307.6 273.201 308.7 273.401 308.6C273.668 308.533 273.701 308.367 273.501 308.1L273.301 306.5C273.234 306.233 273.168 306.133 273.101 306.2C272.901 306.2 273.001 307.2 272.301 307.2L271.701 307.3C271.368 307.367 271.234 307.233 271.301 306.9L271.101 305.5ZM274.301 307.7C274.701 309.7 275.835 310.6 277.701 310.4C280.401 309.9 280.501 307.4 280.201 306.2C279.901 304.2 278.401 303.2 276.701 303.5C274.701 303.9 273.901 305.7 274.301 307.7ZM275.201 307C274.901 305.6 275.201 304.3 276.601 304C277.601 303.7 278.901 304.6 279.301 306.7C279.601 308.3 279.301 309.7 277.901 309.9C276.401 310.2 275.501 308.4 275.201 307ZM281.901 303.7C281.768 303.167 281.901 302.933 282.301 303C283.168 302.867 283.735 303.3 284.001 304.3C284.101 304.8 284.201 305.3 283.001 305.6C282.668 305.733 282.434 305.733 282.301 305.6L281.901 303.6V303.7ZM281.901 308.2C282.201 309.4 281.401 309.2 281.501 309.5C281.501 309.7 281.601 309.733 281.801 309.6L283.101 309.3L283.801 309.2C284.001 309.133 284.068 309.067 284.001 309C284.001 308.6 283.201 309.2 283.001 308.2L282.601 306.6C282.401 306.333 282.501 306.167 282.901 306.1C283.301 306.033 283.601 306.133 283.801 306.4L284.801 307.7C285.134 308.3 285.634 308.6 286.301 308.6C286.601 308.5 287.101 308.1 287.001 307.9C287.001 307.767 286.968 307.733 286.901 307.8H286.301L284.301 305.5L284.801 305C285.001 304.733 285.068 304.3 285.001 303.7C284.901 303.3 284.401 302 282.501 302.5L280.901 302.9L279.901 303.1L279.701 303.3C279.801 303.7 280.701 303.1 280.901 304.1L281.901 308.2ZM288.801 306.7C289.101 307.7 288.001 307.6 288.101 307.9C288.101 308.1 288.201 308.167 288.401 308.1L289.601 307.7L290.801 307.4C291.068 307.4 291.168 307.333 291.101 307.2C291.101 306.9 290.101 307.4 289.801 306.3L288.701 302.1C288.635 301.767 288.735 301.567 289.001 301.5L289.701 301.3C290.701 301 290.701 302.1 291.001 302.1V301.6L290.601 300.7C290.601 300.7 290.601 300.5 290.401 300.5L287.901 301.2L285.401 301.9C285.268 301.9 285.234 301.967 285.301 302.1L285.501 303.4C285.501 303.533 285.568 303.633 285.701 303.7C286.001 303.6 285.501 302.4 286.401 302.2L287.101 302C287.368 301.933 287.568 302.067 287.701 302.4L288.701 306.7H288.801ZM293.201 300.8C292.901 299.9 293.601 300.1 293.501 299.8H293.201C292.801 299.8 292.468 299.9 292.201 300.1L291.201 300.3C291.201 300.3 290.901 300.3 291.001 300.5C291.101 300.7 292.001 300.3 292.201 301.1L293.401 305.5C293.601 306.5 293.001 306.3 293.101 306.7L294.101 306.5L295.401 306.2C295.601 306.133 295.668 306.033 295.601 305.9C295.601 305.6 294.701 306.3 294.401 305.2L293.201 300.8ZM295.001 302.9C295.668 304.833 296.934 305.567 298.801 305.1C301.401 304.2 301.101 301.8 300.701 300.6C300.101 298.6 298.401 297.9 296.901 298.4C294.901 299.1 294.301 301 295.001 302.9ZM295.801 302.1C295.401 300.8 295.401 299.4 296.801 298.9C297.801 298.5 299.101 299.2 299.801 301.3C300.301 302.8 300.301 304.1 298.801 304.6C297.401 305.1 296.301 303.4 295.801 302.1ZM301.901 297.8C301.768 297.267 301.901 297 302.301 297C303.168 296.8 303.768 297.133 304.101 298C304.301 298.6 304.501 299 303.301 299.6C302.968 299.733 302.735 299.733 302.601 299.6L301.901 297.8ZM302.601 302.3C303.001 303.3 302.201 303.3 302.401 303.6C302.401 303.733 302.501 303.733 302.701 303.6L303.901 303.2L304.601 302.9C304.801 302.9 304.868 302.833 304.801 302.7C304.701 302.4 304.001 303 303.601 302.1L303.001 300.6C303.001 300.2 302.801 300.2 303.301 300C303.568 299.867 303.868 299.933 304.201 300.2L305.401 301.4C305.868 301.933 306.401 302.133 307.001 302C307.401 301.8 307.601 301.533 307.601 301.2H306.901L304.701 299.2L305.001 298.7C305.135 298.433 305.135 298 305.001 297.4C304.801 297 304.201 295.8 302.401 296.5L300.801 297.2L299.801 297.5V297.7C299.901 298 300.601 297.3 301.001 298.3L302.601 302.3Z" fill="#703D29"/>
<path d="M211.303 204.441H253.338V246.425H211.303V204.441Z" fill="#D52B1E"/>
<path d="M231.015 237.465C231.015 237.465 231.015 239.001 230.605 240.179C230.093 241.561 230.093 241.561 229.633 242.227C229.138 243.041 228.475 243.739 227.687 244.275C226.663 244.924 225.639 245.197 224.615 245.094C221.85 244.889 220.519 241.817 219.905 239.36C219.239 236.749 217.345 235.264 216.065 236.288C215.382 236.868 215.331 237.653 215.911 238.643C216.462 239.308 217.19 239.805 218.01 240.077L216.525 241.971C216.525 241.971 213.3 241.561 212.685 238.182C212.429 236.902 213.044 234.547 215.194 233.83C217.908 232.909 219.597 234.854 220.468 236.493C221.594 238.745 222.106 242.841 225.281 242.227C227.021 241.869 227.841 239.36 227.841 238.182L229.069 236.851L230.964 237.465H231.015Z" fill="white"/>
<path d="M233.626 237.465C233.626 237.465 233.626 239.001 234.035 240.179C234.547 241.561 234.547 241.561 235.008 242.227C235.503 243.041 236.166 243.739 236.954 244.275C237.978 244.924 239.002 245.197 240.026 245.094C242.79 244.889 244.122 241.817 244.736 239.36C245.402 236.749 247.296 235.264 248.576 236.288C249.259 236.868 249.31 237.653 248.73 238.643C248.178 239.308 247.451 239.805 246.63 240.077L248.115 241.971C248.115 241.971 251.341 241.561 251.955 238.182C252.211 236.902 251.597 234.547 249.446 233.83C246.733 232.909 245.043 234.854 244.173 236.493C243.046 238.745 242.534 242.841 239.36 242.227C237.619 241.869 236.8 239.36 236.8 238.182L235.571 236.851L233.677 237.465H233.626Z" fill="white"/>
<path d="M236.083 219.648L241.613 213.658C241.613 213.658 242.432 212.992 242.432 211.917L241.306 212.122L241.05 211.507L240.998 210.944L242.534 210.586V209.92L242.688 209.254L241.05 209.357L241.203 208.64L241.459 208.128L242.432 207.923H243.405C244.326 206.182 248.115 204.646 250.778 207.411C252.723 209.459 252.314 213.146 249.754 214.17C249.186 214.445 248.547 214.538 247.924 214.437C247.301 214.337 246.724 214.046 246.272 213.606L247.296 211.558C248.678 212.429 249.856 211.405 249.754 210.33C249.651 208.947 248.73 208.128 247.552 208.026C246.357 207.991 245.504 208.503 244.992 209.562C244.685 210.227 244.838 210.688 244.736 211.405C244.634 212.173 244.736 212.582 244.48 213.35C244.226 214.056 243.805 214.688 243.251 215.194L237.619 221.338L215.603 245.094L213.965 243.558L236.083 219.648Z" fill="#FEDF00"/>
<path d="M219.904 221.696C219.904 221.696 221.287 228.557 225.997 238.848C228.403 237.978 229.786 237.415 232.346 237.415C234.906 237.415 236.237 237.927 238.644 238.848C241.265 233.358 243.307 227.61 244.736 221.696L232.346 205.824L219.904 221.696Z" fill="white"/>
<path d="M233.524 211.148L242.125 222.259C242.125 222.259 240.999 227.635 237.517 235.724C236.135 235.417 234.957 235.161 233.524 235.059V211.148ZM231.117 211.148L222.516 222.259C222.516 222.259 223.642 227.635 227.124 235.724C228.506 235.417 229.684 235.161 231.117 235.059V211.148Z" fill="#FEDF00"/>
<path d="M257.801 204.4H300.001V246.4H258.001L257.801 204.4Z" fill="#FEDF00"/>
<path d="M263.701 204.4H270.001V246.4H263.701V204.4ZM275.701 204.4H282.001V246.4H275.801L275.701 204.4ZM287.701 204.4H294.001V246.4H287.801L287.701 204.4Z" fill="#D52B1E"/>
<path d="M211.401 282.8C211.534 283.667 211.901 284.8 212.501 286.2C213.301 287.4 213.001 287.4 214.701 289.2C216.559 290.996 218.878 292.242 221.401 292.8C224.801 293.8 227.101 293.8 229.901 293.7C232.101 293.567 233.867 293.367 235.201 293.1C237.201 292.9 238.601 292.7 240.901 292.6H244.001C245.201 292.667 246.434 292.834 247.701 293.1C250.501 293.7 253.301 294.8 253.301 294.8V250.9H211.301V280.9L211.401 282.8Z" fill="#FEDF00"/>
<path d="M216.301 290.5L218.301 291.7L221.001 292.7V250.9H216.301V290.5ZM239.701 292.5V250.9H235.001V293.1L239.701 292.6V292.5ZM249.001 250.9H244.401V292.6L249.001 293.4V250.9ZM230.401 250.9V293.6H225.701V250.9H230.401Z" fill="#D52B1E" stroke="#D52B1E" stroke-width="0.3"/>
<path d="M299.777 282.829C299.592 284.01 299.211 285.152 298.65 286.208C297.882 287.385 298.138 287.385 296.449 289.28C294.623 291.093 292.311 292.338 289.793 292.864C287.022 293.592 284.152 293.869 281.293 293.683C279.143 293.547 277.385 293.376 276.02 293.171C274.074 292.864 272.589 292.71 270.388 292.659H267.213C264.019 293.019 260.876 293.741 257.844 294.809V250.88H299.93V280.832L299.777 282.829Z" fill="#FEDF00"/>
<path d="M268.596 254.464L268.289 254.566L267.879 254.976C267.709 255.146 267.504 255.283 267.265 255.385L266.958 255.641C266.804 255.795 266.958 255.949 266.804 256.153C266.77 256.324 266.667 256.495 266.497 256.665C266.326 256.836 266.155 257.007 265.985 257.177L265.37 257.689L265.217 257.741H264.91L264.5 258.15L264.654 258.457L265.063 259.174C265.131 259.379 265.217 259.515 265.319 259.584C265.558 259.686 265.78 259.703 265.985 259.635L267.009 259.891L267.777 260.301C267.982 260.437 268.203 260.522 268.442 260.557H269.364V260.71L270.388 261.222L270.337 261.427C270.269 261.598 270.251 261.734 270.286 261.837C270.627 262.826 270.883 263.373 271.054 263.475C271.327 263.611 271.514 263.867 271.617 264.243L271.463 264.397C271.122 264.67 270.832 264.977 270.593 265.318C270.234 265.933 269.978 265.933 270.439 266.752L271.207 267.981L271.617 269.005C271.719 269.346 271.77 269.687 271.77 270.029L272.282 270.182L272.641 269.875L272.948 269.261V268.749C272.846 268.68 272.811 268.561 272.846 268.39C272.846 268.185 273.102 268.237 273.204 268.083C273.358 267.827 272.999 267.673 272.846 267.52C272.538 267.161 272.129 267.059 272.026 266.547C271.992 266.445 272.061 266.325 272.231 266.189L273.255 265.267C273.392 265.335 273.562 265.352 273.767 265.318L274.433 265.523H275.252L275.303 265.83C275.354 266.342 275.252 267.366 275.406 267.622L275.559 267.929L275.662 268.237V269.261L275.559 270.131C275.559 270.336 275.474 270.506 275.303 270.643C275.133 270.779 274.962 270.899 274.791 271.001V271.513L275.354 271.769L276.02 271.923L276.378 271.769L276.43 271.462L276.686 271.206L277.146 271.155C277.215 271.053 277.215 270.916 277.146 270.745C277.146 270.472 277.095 270.199 276.993 269.926L276.942 268.493C276.942 268.219 276.976 267.963 277.044 267.725C277.095 267.213 277.249 267.008 277.351 266.598L277.556 265.318C279.282 265.584 281.045 265.48 282.727 265.011C283.137 265.352 283.598 265.625 284.11 265.83V266.342C284.11 266.479 284.144 266.598 284.212 266.701L284.366 266.854C284.502 266.854 284.622 266.82 284.724 266.752C284.826 266.683 284.861 266.564 284.826 266.393V266.035H285.748V266.598C285.816 266.735 285.902 266.803 286.004 266.803H286.311C286.414 266.666 286.465 266.496 286.465 266.291V265.933L286.977 265.728V266.189L286.823 266.649C286.721 266.957 286.567 267.059 286.414 267.366C286.277 267.639 286.106 267.895 285.902 268.134L285.594 268.493L285.287 268.953L284.826 269.465C284.468 269.773 284.212 269.568 283.802 269.926L283.649 270.438L284.366 270.745L285.031 270.848L285.236 270.745C285.236 270.575 285.287 270.438 285.39 270.336C285.492 270.233 285.611 270.165 285.748 270.131C285.953 270.131 286.123 270.097 286.26 270.029C286.397 269.824 286.516 269.568 286.618 269.261C286.999 268.503 287.52 267.825 288.154 267.264L289.025 266.547C289.161 266.41 289.247 266.24 289.281 266.035L289.178 265.728L289.076 265.216C289.844 265.574 289.588 265.574 289.69 265.933C289.844 266.24 289.69 266.445 289.742 266.803C289.793 267.213 289.998 267.366 289.998 267.776C289.998 268.151 289.946 268.544 289.844 268.953C289.844 269.295 289.759 269.636 289.588 269.977C289.463 270.274 289.27 270.537 289.025 270.745L288.718 271.001L288.666 271.513L289.23 271.718L290.049 271.923L290.254 271.769C290.356 271.411 290.254 270.899 290.458 270.899C290.663 270.899 290.8 270.848 290.868 270.745V270.387L291.226 268.083L291.431 267.11L291.636 266.24C291.994 265.216 291.534 265.062 291.124 264.397C290.885 264.089 290.766 263.833 290.766 263.629V260.71L290.97 260.608C291.585 260.249 291.841 260.147 292.199 259.328L292.353 258.56V258.048L292.148 257.536L291.841 257.126C291.482 256.614 290.97 256.563 290.458 256.358C289.69 256.102 289.178 256.153 288.41 256.102C287.489 256 287.028 256 286.158 256.102C285.134 256.102 284.57 256.307 283.546 256.461L281.038 256.665C279.86 256.665 278.785 256.409 278.068 256.461C276.839 256.563 276.788 256.87 274.894 257.024L272.948 257.126L271.822 256.768C272.282 256.614 272.385 256.512 272.59 256.256C272.794 256 272.692 255.897 272.897 255.693L273.255 255.181L272.794 254.976H272.282L271.668 255.129L271.258 255.437L270.132 254.822C269.651 254.58 269.131 254.424 268.596 254.361V254.464Z" fill="#D52B1E"/>
<path d="M291.226 260.864L290.817 261.018C290.407 261.189 289.963 261.274 289.486 261.274C288.154 261.376 287.284 260.711 285.902 260.813C285.185 260.864 284.878 261.427 284.11 261.632L283.239 261.735L283.495 261.223C283.495 261.223 282.881 261.376 282.471 261.376L281.652 261.274L282.164 260.762L281.498 260.659L280.986 260.301L281.857 260.147C282.625 259.943 282.881 259.533 283.854 259.431C284.417 259.431 285.39 259.431 287.745 259.84C289.281 260.096 289.998 259.943 290.561 259.687C290.902 259.516 291.09 259.209 291.124 258.765C291.124 258.355 290.987 258.048 290.714 257.843L290.151 257.639" stroke="#FEDF00" stroke-width="0.512" stroke-linecap="round"/>
<path d="M268.697 256.308C268.458 256.308 268.236 256.359 268.032 256.461C267.827 256.632 267.656 256.82 267.52 257.024C267.758 257.127 267.963 257.178 268.134 257.178C268.305 257.178 268.441 257.093 268.544 256.922C268.68 256.751 268.748 256.547 268.748 256.308H268.697Z" fill="#FCD900" stroke="#FEDF00" stroke-width="0.256"/>
<path d="M274.432 263.066L274.944 264.244C275.046 264.653 274.944 264.858 275.046 265.268V266.087M278.528 262.503L278.374 263.169L277.862 264.961V265.319M272.23 263.271C272.691 263.373 272.538 264.961 273.203 265.319" stroke="#FEDF00" stroke-width="0.512" stroke-linecap="round"/>
<path d="M286.771 266.138L286.976 265.984C287.495 265.775 287.966 265.461 288.359 265.062" stroke="#FEDF00" stroke-width="0.512"/>
<path d="M282.828 265.217C284.62 264.756 285.849 263.886 286.719 263.732M284.671 262.964H285.081C285.849 262.811 285.951 263.271 286.463 263.578C287.436 264.09 287.539 264.756 288.665 265.319L288.87 265.37L289.279 265.575" stroke="#FEDF00" stroke-width="0.512" stroke-linecap="round"/>
<path d="M265.062 258.305H265.421L265.831 258.202C265.967 258.202 266.087 258.236 266.189 258.305C266.257 258.305 266.308 258.356 266.343 258.458C266.377 258.561 266.394 258.646 266.394 258.714C266.394 258.817 266.291 258.885 266.087 258.919C265.984 258.919 265.899 258.868 265.831 258.765V258.561C265.759 258.597 265.68 258.615 265.6 258.615C265.52 258.615 265.441 258.597 265.37 258.561L265.062 258.305Z" fill="#FCD900" stroke="#FEDF00" stroke-width="0.256"/>
<path d="M268.852 263.271L267.828 262.81L268.34 262.554L268.596 261.888C268.631 261.547 268.75 261.308 268.955 261.171C269.16 261.035 269.347 261.018 269.518 261.12C269.757 261.154 269.911 261.274 269.979 261.479C269.979 261.752 269.928 262.008 269.825 262.247L269.723 262.963C269.723 263.168 269.791 263.339 269.928 263.475L268.904 263.271H268.852ZM268.34 263.783C268.331 263.723 268.34 263.662 268.365 263.607C268.391 263.552 268.432 263.506 268.483 263.475C268.535 263.443 268.594 263.427 268.655 263.429C268.715 263.431 268.773 263.451 268.823 263.486C268.872 263.521 268.909 263.57 268.931 263.627C268.953 263.683 268.957 263.745 268.944 263.803C268.931 263.862 268.9 263.916 268.857 263.958C268.813 264 268.758 264.028 268.699 264.039C268.654 264.046 268.609 264.044 268.565 264.032C268.522 264.02 268.482 263.998 268.448 263.969C268.413 263.94 268.386 263.903 268.368 263.862C268.349 263.821 268.34 263.776 268.34 263.731V263.783ZM267.47 255.283H267.368L267.06 254.669L266.907 254.055V253.031C266.907 252.86 266.873 252.706 266.804 252.57C266.804 252.467 266.6 252.416 266.651 252.365H266.856C267.026 252.365 267.197 252.433 267.368 252.57C267.538 252.706 267.641 252.877 267.675 253.082L267.88 253.85L268.033 254.259L268.289 254.567L267.931 254.976L267.47 255.283ZM269.313 260.711L270.44 261.223C271.214 260.763 271.837 260.087 272.232 259.277C272.692 258.355 272.744 257.895 272.948 257.024L272.027 256.768H271.822C271.566 257.69 271.464 258.151 271.003 258.919C270.593 259.601 270.149 260.113 269.672 260.455L269.313 260.711ZM271.873 270.029L272.283 269.363L273 268.8H273.204C273.196 269.289 273.109 269.772 272.948 270.234L272.744 270.746L272.488 271.002C272.232 270.592 271.822 270.336 271.822 269.978L271.873 270.029ZM288.769 270.951L289.486 271.258L290.254 271.719V271.975L289.486 272.077H288.308L288.001 271.872C288.257 271.514 288.411 271.053 288.718 270.951H288.769ZM283.752 269.927L284.468 270.183L285.236 270.695V270.899C284.786 271.02 284.32 271.072 283.854 271.053L283.342 271.002L282.984 270.848C283.291 270.49 283.444 269.978 283.752 269.927ZM274.843 271.002L275.611 271.258L276.379 271.77V272.026C275.909 272.135 275.425 272.169 274.945 272.128H274.433L274.126 271.923C274.382 271.565 274.536 271.104 274.843 271.002ZM270.235 255.744C269.893 255.539 269.791 255.266 269.928 254.925L270.235 254.72C270.303 254.584 270.303 254.447 270.235 254.311L270.184 253.799L270.081 253.287C270.047 253.013 270.115 252.74 270.286 252.467C270.457 252.297 270.593 252.194 270.696 252.16C270.764 252.263 270.764 252.399 270.696 252.57C270.696 252.775 270.747 252.979 270.849 253.184L271.208 253.85L271.412 254.567L271.31 255.181L271.003 255.591L270.593 255.795L270.235 255.744Z" fill="#0065BD"/>
<path d="M268.596 273.203L268.289 273.305L267.879 273.715C267.709 273.886 267.504 274.022 267.265 274.125L266.958 274.381C266.804 274.534 266.958 274.688 266.804 274.893C266.77 275.063 266.667 275.234 266.497 275.405C266.326 275.575 266.155 275.746 265.985 275.917L265.37 276.429L265.217 276.48H264.91L264.5 276.889L264.654 277.197L265.063 277.913C265.131 278.118 265.217 278.255 265.319 278.323C265.558 278.425 265.78 278.442 265.985 278.374L267.009 278.63L267.777 279.04C267.982 279.176 268.203 279.262 268.442 279.296H269.364V279.449L270.388 279.961L270.337 280.166C270.269 280.337 270.251 280.473 270.286 280.576C270.627 281.566 270.883 282.112 271.054 282.214C271.327 282.351 271.514 282.607 271.617 282.982L271.463 283.136C271.122 283.409 270.832 283.716 270.593 284.057C270.234 284.672 269.978 284.672 270.439 285.491L271.207 286.72L271.617 287.744C271.719 288.085 271.77 288.426 271.77 288.768L272.282 288.921L272.641 288.614L272.948 288V287.488C272.846 287.42 272.811 287.3 272.846 287.129C272.846 286.925 273.102 286.976 273.204 286.822C273.358 286.566 272.999 286.413 272.846 286.259C272.538 285.901 272.129 285.798 272.026 285.286C271.992 285.184 272.061 285.064 272.231 284.928L273.255 284.006C273.392 284.074 273.562 284.092 273.767 284.057L274.433 284.262H275.252L275.303 284.569C275.354 285.081 275.252 286.105 275.406 286.361L275.559 286.669L275.662 286.976V288L275.559 288.87C275.559 289.075 275.474 289.246 275.303 289.382C275.133 289.519 274.962 289.638 274.791 289.741V290.253L275.354 290.509L276.02 290.662L276.378 290.509L276.43 290.201L276.686 289.945L277.146 289.894C277.215 289.792 277.215 289.655 277.146 289.485C277.146 289.212 277.095 288.938 276.993 288.665L276.942 287.232C276.942 286.959 276.976 286.703 277.044 286.464C277.095 285.952 277.249 285.747 277.351 285.337L277.556 284.057C279.282 284.324 281.045 284.219 282.727 283.75C283.137 284.092 283.598 284.365 284.11 284.569V285.081C284.11 285.218 284.144 285.337 284.212 285.44L284.366 285.593C284.502 285.593 284.622 285.559 284.724 285.491C284.826 285.423 284.861 285.303 284.826 285.133V284.774H285.748V285.337C285.816 285.474 285.902 285.542 286.004 285.542H286.311C286.414 285.406 286.465 285.235 286.465 285.03V284.672L286.977 284.467V284.928L286.823 285.389C286.721 285.696 286.567 285.798 286.414 286.105C286.277 286.378 286.106 286.634 285.902 286.873L285.594 287.232L285.287 287.693L284.826 288.205C284.468 288.512 284.212 288.307 283.802 288.665L283.649 289.177L284.366 289.485L285.031 289.587L285.236 289.485C285.236 289.314 285.287 289.177 285.39 289.075C285.492 288.973 285.611 288.904 285.748 288.87C285.953 288.87 286.123 288.836 286.26 288.768C286.397 288.563 286.516 288.307 286.618 288C286.999 287.242 287.52 286.565 288.154 286.003L289.025 285.286C289.161 285.15 289.247 284.979 289.281 284.774L289.178 284.467L289.076 283.955C289.844 284.313 289.588 284.313 289.69 284.672C289.844 284.979 289.69 285.184 289.742 285.542C289.793 285.952 289.998 286.105 289.998 286.515C289.998 286.89 289.946 287.283 289.844 287.693C289.844 288.034 289.759 288.375 289.588 288.717C289.463 289.013 289.27 289.276 289.025 289.485L288.718 289.741L288.666 290.253L289.23 290.457L290.049 290.662L290.254 290.509C290.356 290.15 290.254 289.638 290.458 289.638C290.663 289.638 290.8 289.587 290.868 289.485V289.126L291.226 286.822L291.431 285.849L291.636 284.979C291.994 283.955 291.534 283.801 291.124 283.136C290.885 282.829 290.766 282.573 290.766 282.368V279.449L290.97 279.347C291.585 278.989 291.841 278.886 292.199 278.067L292.353 277.299V276.787L292.148 276.275L291.841 275.865C291.482 275.353 290.97 275.302 290.458 275.097C289.69 274.841 289.178 274.893 288.41 274.841C287.489 274.739 287.028 274.739 286.158 274.841C285.134 274.841 284.57 275.046 283.546 275.2L281.038 275.405C279.86 275.405 278.785 275.149 278.068 275.2C276.839 275.302 276.788 275.609 274.894 275.763L272.948 275.865L271.822 275.507C272.282 275.353 272.385 275.251 272.59 274.995C272.794 274.739 272.692 274.637 272.897 274.432L273.255 273.92L272.794 273.715H272.282L271.668 273.869L271.258 274.176L270.132 273.561C269.651 273.319 269.131 273.163 268.596 273.101V273.203Z" fill="#D52B1E"/>
<path d="M291.226 279.604L290.817 279.757C290.407 279.928 289.963 280.013 289.486 280.013C288.154 280.116 287.284 279.45 285.902 279.552C285.185 279.604 284.878 280.167 284.11 280.372L283.239 280.474L283.495 279.962C283.495 279.962 282.881 280.116 282.471 280.116L281.652 280.013L282.164 279.501L281.498 279.399L280.986 279.04L281.857 278.887C282.625 278.682 282.881 278.272 283.854 278.17C284.417 278.17 285.39 278.17 287.745 278.58C289.281 278.836 289.998 278.682 290.561 278.426C290.902 278.255 291.09 277.948 291.124 277.504C291.124 277.095 290.987 276.788 290.714 276.583L290.151 276.378" stroke="#FEDF00" stroke-width="0.512" stroke-linecap="round"/>
<path d="M268.697 275.047C268.458 275.047 268.236 275.098 268.032 275.2C267.827 275.371 267.656 275.559 267.52 275.764C267.758 275.866 267.963 275.917 268.134 275.917C268.305 275.917 268.441 275.832 268.544 275.661C268.68 275.491 268.748 275.286 268.748 275.047H268.697Z" fill="#FCD900" stroke="#FEDF00" stroke-width="0.256"/>
<path d="M274.432 281.805L274.944 282.983C275.046 283.393 274.944 283.597 275.046 284.007V284.826M278.528 281.242L278.374 281.908L277.862 283.7V284.058M272.23 282.01C272.691 282.113 272.538 283.7 273.203 284.058" stroke="#FEDF00" stroke-width="0.512" stroke-linecap="round"/>
<path d="M286.771 284.877L286.976 284.723C287.495 284.514 287.966 284.2 288.359 283.802" stroke="#FEDF00" stroke-width="0.512"/>
<path d="M282.828 283.956C284.62 283.495 285.849 282.625 286.719 282.471M284.671 281.703H285.081C285.849 281.55 285.951 282.011 286.463 282.318C287.436 282.83 287.539 283.495 288.665 284.059L288.87 284.11L289.279 284.315" stroke="#FEDF00" stroke-width="0.512" stroke-linecap="round"/>
<path d="M265.062 277.044H265.421L265.831 276.941C265.967 276.941 266.087 276.976 266.189 277.044C266.257 277.044 266.308 277.095 266.343 277.197C266.377 277.3 266.394 277.385 266.394 277.453C266.394 277.556 266.291 277.624 266.087 277.658C265.984 277.658 265.899 277.607 265.831 277.505V277.3C265.759 277.336 265.68 277.355 265.6 277.355C265.52 277.355 265.441 277.336 265.37 277.3L265.062 277.044Z" fill="#FCD900" stroke="#FEDF00" stroke-width="0.256"/>
<path d="M268.852 282.01L267.828 281.549L268.34 281.293L268.596 280.627C268.631 280.286 268.75 280.047 268.955 279.911C269.16 279.774 269.347 279.757 269.518 279.859C269.757 279.894 269.911 280.013 269.979 280.218C269.979 280.491 269.928 280.747 269.825 280.986L269.723 281.703C269.723 281.907 269.791 282.078 269.928 282.215L268.904 282.01H268.852ZM268.34 282.522C268.331 282.462 268.34 282.401 268.365 282.346C268.391 282.291 268.432 282.245 268.483 282.214C268.535 282.182 268.594 282.166 268.655 282.169C268.715 282.171 268.773 282.19 268.823 282.226C268.872 282.261 268.909 282.309 268.931 282.366C268.953 282.422 268.957 282.484 268.944 282.543C268.931 282.602 268.9 282.655 268.857 282.697C268.813 282.739 268.758 282.767 268.699 282.778C268.654 282.785 268.609 282.783 268.565 282.771C268.522 282.759 268.482 282.737 268.448 282.708C268.413 282.679 268.386 282.642 268.368 282.601C268.349 282.56 268.34 282.516 268.34 282.471V282.522ZM267.47 274.023H267.368L267.06 273.408L266.907 272.794V271.77C266.907 271.599 266.873 271.446 266.804 271.309C266.804 271.207 266.6 271.155 266.651 271.104H266.856C267.026 271.104 267.197 271.172 267.368 271.309C267.538 271.446 267.641 271.616 267.675 271.821L267.88 272.589L268.033 272.999L268.289 273.306L267.931 273.715L267.47 274.023ZM269.313 279.45L270.44 279.962C271.214 279.502 271.837 278.826 272.232 278.016C272.692 277.095 272.744 276.634 272.948 275.763L272.027 275.507H271.822C271.566 276.429 271.464 276.89 271.003 277.658C270.593 278.34 270.149 278.852 269.672 279.194L269.313 279.45ZM271.873 288.768L272.283 288.103L273 287.539H273.204C273.196 288.028 273.109 288.512 272.948 288.973L272.744 289.485L272.488 289.741C272.232 289.331 271.822 289.075 271.822 288.717L271.873 288.768ZM288.769 289.69L289.486 289.997L290.254 290.458V290.714L289.486 290.816H288.308L288.001 290.611C288.257 290.253 288.411 289.792 288.718 289.69H288.769ZM283.752 288.666L284.468 288.922L285.236 289.434V289.639C284.786 289.759 284.32 289.811 283.854 289.792L283.342 289.741L282.984 289.587C283.291 289.229 283.444 288.717 283.752 288.666ZM274.843 289.741L275.611 289.997L276.379 290.509V290.765C275.909 290.874 275.425 290.908 274.945 290.867H274.433L274.126 290.663C274.382 290.304 274.536 289.843 274.843 289.741ZM270.235 274.483C269.893 274.279 269.791 274.006 269.928 273.664L270.235 273.459C270.303 273.323 270.303 273.186 270.235 273.05L270.184 272.538L270.081 272.026C270.047 271.753 270.115 271.48 270.286 271.207C270.457 271.036 270.593 270.934 270.696 270.899C270.764 271.002 270.764 271.138 270.696 271.309C270.696 271.514 270.747 271.719 270.849 271.923L271.208 272.589L271.412 273.306L271.31 273.92L271.003 274.33L270.593 274.535L270.235 274.483Z" fill="#0065BD"/>
<path d="M211.301 204.4H253.301V246.4H211.301V204.4ZM257.801 204.4H300.001V246.4H258.001L257.801 204.4ZM211.401 282.8C211.534 283.667 211.901 284.8 212.501 286.2C213.301 287.4 213.001 287.4 214.701 289.2C216.559 290.996 218.878 292.242 221.401 292.8C224.801 293.8 227.101 293.8 229.901 293.7C232.101 293.567 233.867 293.367 235.201 293.1C237.201 292.9 238.601 292.7 240.901 292.6H244.001C245.201 292.667 246.434 292.834 247.701 293.1C250.501 293.7 253.301 294.8 253.301 294.8V250.9H211.301V280.9L211.401 282.8ZM299.801 282.8C299.734 283.667 299.367 284.8 298.701 286.2C297.901 287.4 298.201 287.4 296.501 289.2C294.642 290.996 292.324 292.242 289.801 292.8C287.036 293.567 284.164 293.871 281.301 293.7C279.167 293.567 277.401 293.367 276.001 293.1L270.401 292.6H267.201C266.001 292.667 264.767 292.834 263.501 293.1C260.701 293.7 257.801 294.8 257.801 294.8V250.9H300.001V280.9L299.801 282.8Z" stroke="#703D29" stroke-width="0.4"/>
</g>
<defs>
<clipPath id="clip0_3921_23264">
<rect width="512" height="512" fill="white"/>
</clipPath>
</defs>
</svg>
