<svg width="512" height="512" viewBox="0 0 512 512" fill="none" xmlns="http://www.w3.org/2000/svg">
<g clip-path="url(#clip0_3921_23413)">
<path fill-rule="evenodd" clip-rule="evenodd" d="M0 0H512V512H0V0Z" fill="#000001"/>
<path fill-rule="evenodd" clip-rule="evenodd" d="M341.301 0H512.001V512H341.301V0Z" fill="#009900"/>
<path fill-rule="evenodd" clip-rule="evenodd" d="M170.699 0H341.299V512H170.699V0Z" fill="#BF0000"/>
<path fill-rule="evenodd" clip-rule="evenodd" d="M272.532 277.852H279.554C279.554 280.559 281.247 283.436 283.362 285.043H269.824C271.939 283.182 272.532 280.813 272.532 277.852Z" fill="white" stroke="#BD6B00" stroke-width="0.423055"/>
<path fill-rule="evenodd" clip-rule="evenodd" d="M227.857 237.831L231.75 242.061L279.978 242.231L283.87 238L271.517 237.746L265.594 233.516H246.133L240.549 237.831H227.857Z" fill="white"/>
<path fill-rule="evenodd" clip-rule="evenodd" d="M247.572 232.923H264.24C266.44 231.739 267.201 227.931 267.201 225.816C267.201 219.555 262.717 216.509 258.317 216.339C257.528 216.283 256.992 215.916 256.71 215.239C256.287 213.886 256.371 212.955 255.863 213.04C255.525 213.04 255.61 213.886 255.271 215.07C254.933 215.803 254.369 216.255 253.579 216.424C248.164 216.678 244.61 220.655 244.695 225.816C244.779 229.2 245.202 231.231 247.572 232.923Z" fill="white" stroke="#BD6B00" stroke-width="0.423055"/>
<path fill-rule="evenodd" clip-rule="evenodd" d="M220.242 292.235H291.569L285.223 287.074H226.503L220.242 292.235Z" fill="white"/>
<path fill-rule="evenodd" clip-rule="evenodd" d="M252.988 272.69L254.257 276.583H257.218L254.849 272.69H252.988ZM251.295 276.583L252.141 280.475H255.526L254.257 276.583H251.295ZM257.218 276.583L259.587 280.475H264.579L260.687 276.583H257.218ZM228.027 285.382C230.65 282.928 232.343 280.898 232.343 277.936H238.773C238.773 279.629 239.281 280.475 240.296 280.475H246.811V276.667H242.073V255.768C241.904 248.322 251.042 244.092 254.764 244.092H232.512V243.415H279.302V244.092H256.88C263.564 244.092 269.994 250.438 270.079 255.768V261.691H269.233L269.148 255.853C269.148 250.015 261.787 244.6 255.864 244.769C250.788 244.853 242.834 249.761 242.919 255.768V257.63L255.018 257.714L254.934 259.83L256.795 261.014L260.603 262.199V265.414L263.31 266.175V269.306L266.525 270.744V273.96L268.641 275.229L268.556 278.529L271.348 280.475H264.749L268.894 285.128H262.718L259.672 280.475H255.695L257.472 285.044H253.241L252.141 280.475H246.896V285.382H228.112H228.027ZM246.811 272.69V276.583H251.295L250.449 272.69H246.726H246.811Z" fill="white"/>
<path d="M254.257 276.583L252.988 272.69H254.849L257.218 276.583M254.257 276.583H257.218M254.257 276.583L255.526 280.475H252.141M254.257 276.583H251.295M257.218 276.583L259.587 280.475H264.579L260.687 276.583H257.218ZM251.295 276.583L252.141 280.475M251.295 276.583H246.811V272.69H246.726H250.449L251.295 276.583ZM252.141 280.475L253.241 285.044H257.472L255.695 280.475H259.672L262.718 285.128H268.894L264.749 280.475H271.348L268.556 278.529L268.641 275.229L266.525 273.96V270.744L263.31 269.306V266.175L260.603 265.414V262.199L256.795 261.014L254.934 259.83L255.018 257.714L242.919 257.63V255.768C242.834 249.761 250.788 244.853 255.864 244.769C261.787 244.6 269.148 250.015 269.148 255.853L269.233 261.691H270.079V255.768C269.994 250.438 263.564 244.092 256.88 244.092H279.302V243.415H232.512V244.092H254.764C251.042 244.092 241.904 248.322 242.073 255.768V276.667H246.811V280.475H240.296C239.281 280.475 238.773 279.629 238.773 277.936H232.343C232.343 280.898 230.65 282.928 228.027 285.382H228.112H246.896V280.475H252.141Z" stroke="#BD6B00" stroke-width="0.423055"/>
<path fill-rule="evenodd" clip-rule="evenodd" d="M247.064 265.922H249.857V272.352H247.064V265.922Z" stroke="#BD6B00" stroke-width="0.423055"/>
<path fill-rule="evenodd" clip-rule="evenodd" d="M243.088 272.775H245.795V268.037C245.795 266.006 247.657 263.891 248.503 263.806C249.518 263.806 250.957 265.752 251.041 267.867V272.775H253.918V260.591H243.088V272.775ZM264.748 275.567H268.133V278.275H264.748V275.567ZM262.718 271.083H266.102V273.706H262.718V271.083ZM259.418 266.514H262.802V269.137H259.418V266.514ZM256.626 262.706H260.01V265.329H256.626V262.706Z" stroke="#BD6B00" stroke-width="0.423055"/>
<path fill-rule="evenodd" clip-rule="evenodd" d="M254.342 272.775L257.895 272.944L264.072 278.359V275.144L261.957 273.621V271.083L258.911 269.391V266.599L255.949 265.583V261.945L254.511 260.676L254.342 272.775Z" stroke="#BD6B00" stroke-width="0.423055"/>
<path fill-rule="evenodd" clip-rule="evenodd" d="M269.062 264.737H269.909V270.745H269.062V264.737Z" fill="white" stroke="#BD6B00" stroke-width="0.423055"/>
<path fill-rule="evenodd" clip-rule="evenodd" d="M219.905 244.6C218.889 242.908 217.62 246.969 213.305 249.93C211.359 251.284 209.921 254.922 209.921 257.291V262.199C209.836 263.13 208.736 265.414 209.498 266.006C211.359 267.36 213.813 270.575 214.913 271.675C215.928 272.521 216.774 267.191 217.451 264.906C218.297 262.368 217.959 259.237 220.159 256.953C221.682 255.261 225.574 253.738 225.235 253.061L219.905 244.6Z" fill="white" stroke="#BD6B00" stroke-width="0.423055"/>
<path fill-rule="evenodd" clip-rule="evenodd" d="M219.65 257.63C219.314 256.832 218.858 256.09 218.296 255.43C217.759 254.759 217.061 254.235 216.266 253.907C215.481 253.689 214.776 253.248 214.235 252.638L213.558 251.369V249.677L213.304 249.931C211.358 251.284 209.92 254.923 209.92 257.292V259.238C210.033 259.689 210.202 260.056 210.428 260.338L211.358 261.015L213.643 261.607C214.5 261.989 215.254 262.569 215.843 263.299C216.454 263.955 216.967 264.696 217.366 265.499L217.535 264.822C218.212 262.538 218.127 259.83 219.735 257.63H219.65Z" fill="#BF0000" stroke="#BD6B00" stroke-width="0.423055"/>
<path d="M213.559 249.592C213.136 252.384 214.744 253.399 216.267 253.907C217.79 254.499 219.059 256.107 219.651 257.63M209.752 258.899C210.429 261.437 212.121 261.099 213.644 261.607C215.167 262.114 216.775 264.145 217.452 265.668" stroke="#BD6B00" stroke-width="0.423055"/>
<path fill-rule="evenodd" clip-rule="evenodd" d="M218.467 242.908L219.313 242.4L234.289 267.699L233.443 268.207L218.467 242.908Z" fill="white" stroke="#BD6B00" stroke-width="0.423055"/>
<path fill-rule="evenodd" clip-rule="evenodd" d="M220.074 241.893C220.074 242.342 219.896 242.772 219.578 243.089C219.261 243.407 218.83 243.585 218.382 243.585C217.933 243.585 217.502 243.407 217.185 243.089C216.868 242.772 216.689 242.342 216.689 241.893C216.689 241.444 216.868 241.013 217.185 240.696C217.502 240.379 217.933 240.2 218.382 240.2C218.83 240.2 219.261 240.379 219.578 240.696C219.896 241.013 220.074 241.444 220.074 241.893ZM232.935 221.586H239.027V222.94H232.935V221.586ZM232.935 224.209H239.027V235.885H232.935V224.209ZM232.596 219.978H239.365C239.534 217.694 237.25 215.24 235.981 215.24C234.627 215.325 232.512 217.779 232.596 219.978Z" fill="white" stroke="#BD6B00" stroke-width="0.423055"/>
<path fill-rule="evenodd" clip-rule="evenodd" d="M249.772 218.624C248.503 219.132 247.488 220.57 246.896 222.262C246.303 223.955 246.049 225.901 246.388 227.424C246.444 227.988 246.585 228.411 246.811 228.693C246.98 228.975 247.149 229.116 247.319 229.116C247.601 229.116 247.798 229.031 247.911 228.862L248.08 228.185C247.967 226.493 248.052 224.97 248.334 223.616C248.73 222.122 249.626 220.808 250.872 219.893C251.098 219.724 251.239 219.527 251.295 219.301L251.042 218.709C250.647 218.427 250.224 218.398 249.772 218.624ZM249.942 218.962C250.28 218.85 250.562 218.878 250.788 219.047L250.872 219.216L250.618 219.555C249.308 220.498 248.378 221.878 247.996 223.447C247.649 225.001 247.563 226.603 247.742 228.185L247.572 228.693C247.572 228.693 247.572 228.777 247.403 228.693L247.065 228.439L246.726 227.424C246.501 225.788 246.698 224.096 247.319 222.347C247.939 220.711 248.785 219.583 249.857 218.962H249.942Z" fill="#BD6B00"/>
<path fill-rule="evenodd" clip-rule="evenodd" d="M251.972 220.232C250.675 220.909 249.829 222.093 249.434 223.786C248.995 225.413 248.909 227.114 249.18 228.778C249.462 229.906 249.913 230.47 250.534 230.47C250.816 230.583 251.042 230.498 251.211 230.216C251.38 229.934 251.436 229.652 251.38 229.37C251.042 227.96 250.957 226.521 251.126 225.055C251.352 223.588 251.972 222.432 252.988 221.586C253.27 221.36 253.411 221.134 253.411 220.909L253.241 220.401C252.847 220.119 252.424 220.063 251.972 220.232ZM252.141 220.655C252.48 220.542 252.762 220.542 252.988 220.655L253.072 220.909L252.818 221.247C251.705 222.195 250.982 223.521 250.788 224.97C250.562 226.55 250.618 228.016 250.957 229.37V230.047L250.534 230.131C250.28 230.131 249.688 229.708 249.519 228.693C249.265 227.255 249.349 225.393 249.772 223.87C250.224 222.234 251.013 221.163 252.141 220.655Z" fill="#BD6B00"/>
<path fill-rule="evenodd" clip-rule="evenodd" d="M232.596 245.361H239.365V254.669H232.596V245.361ZM233.019 260.084H239.534V262.114H233.019V260.084ZM232.85 263.553H239.619V270.914H232.85V263.553ZM232.342 272.437H239.704V276.583H232.342V272.437ZM233.273 258.391H239.196L240.38 256.361H232.258L233.273 258.391ZM241.227 251.115L241.311 246.038H245.373C243.618 247.389 242.199 249.126 241.227 251.115Z" fill="white" stroke="#BD6B00" stroke-width="0.423055"/>
<path fill-rule="evenodd" clip-rule="evenodd" d="M233.695 253.23C233.695 254.33 234.964 253.907 234.964 253.314V248.576C234.964 247.73 236.995 247.899 236.995 248.492V253.568C236.995 254.414 238.434 254.33 238.349 253.568V247.645C238.349 245.784 233.695 245.869 233.695 247.561V253.23ZM233.695 264.483H238.518V270.406H233.695V264.483Z" stroke="#BD6B00" stroke-width="0.423055"/>
<path fill-rule="evenodd" clip-rule="evenodd" d="M236.741 267.022H238.433V267.868H236.741V267.022ZM233.78 267.022H235.472V267.868H233.78V267.022ZM235.472 264.483H236.741V267.022H235.472V264.483ZM235.472 267.868H236.741V270.491H235.472V267.868ZM208.65 204.41C208.989 209.063 207.466 211.686 205.012 211.263C204.335 208.725 205.858 206.948 208.65 204.41ZM203.151 214.817C200.951 213.717 202.558 205.087 203.404 201.448C203.997 206.102 205.097 212.702 203.151 214.817Z" fill="white"/>
<path d="M236.741 267.022H238.433V267.868H236.741M236.741 267.022V267.868M236.741 267.022V264.483H235.472V267.022M236.741 267.022H235.472M236.741 267.868H235.472M236.741 267.868V270.491H235.472V267.868M235.472 267.022H233.78V267.868H235.472M235.472 267.022V267.868M208.65 204.41C208.989 209.063 207.466 211.686 205.012 211.263C204.335 208.725 205.858 206.948 208.65 204.41ZM203.151 214.817C200.951 213.717 202.558 205.087 203.404 201.448C203.997 206.102 205.097 212.702 203.151 214.817Z" stroke="#BD6B00" stroke-width="0.423055"/>
<path fill-rule="evenodd" clip-rule="evenodd" d="M203.913 215.24C207.636 216.509 210.682 212.533 211.613 207.879C208.567 212.11 203.575 212.11 203.998 215.24H203.913ZM201.121 219.555C198.244 218.794 199.936 209.656 200.529 206.018C201.121 209.825 203.152 218.286 201.121 219.555ZM202.136 219.302C202.306 216.171 205.436 217.017 207.636 215.325C207.213 217.017 205.944 219.725 202.136 219.302ZM198.583 223.532C195.706 222.686 197.398 212.871 197.229 208.81C198.075 212.363 200.783 222.601 198.583 223.532ZM199.936 223.109C202.306 223.871 205.436 222.263 205.69 219.471C203.575 220.909 200.36 219.809 199.936 223.109Z" fill="white" stroke="#BD6B00" stroke-width="0.423055"/>
<path fill-rule="evenodd" clip-rule="evenodd" d="M196.383 227.847C193.675 228.101 194.86 219.725 194.86 211.94C195.875 219.217 198.667 225.901 196.383 227.847Z" fill="white" stroke="#BD6B00" stroke-width="0.423055"/>
<path fill-rule="evenodd" clip-rule="evenodd" d="M197.398 227.508C199.26 228.354 202.56 226.916 203.49 223.785C200.106 225.224 197.906 223.785 197.398 227.508ZM219.059 208.725C218.551 212.871 216.859 215.24 214.405 214.817C213.728 212.278 215.759 210.586 219.059 208.725ZM212.459 219.216C216.605 219.809 218.044 216.678 220.92 212.532C216.944 215.409 212.29 215.917 212.459 219.301V219.216Z" fill="white" stroke="#BD6B00" stroke-width="0.423055"/>
<path fill-rule="evenodd" clip-rule="evenodd" d="M211.19 218.794C208.991 216.086 211.19 212.617 212.883 209.74C212.544 214.055 213.983 216.509 211.19 218.794ZM210.344 223.278C210.006 220.57 214.575 219.978 216.606 218.54C215.844 220.063 214.913 224.209 210.26 223.278H210.344Z" fill="white" stroke="#BD6B00" stroke-width="0.423055"/>
<path fill-rule="evenodd" clip-rule="evenodd" d="M209.328 223.278C206.198 222.94 207.467 217.609 209.751 214.732C208.82 218.794 211.443 221.586 209.328 223.278Z" fill="white" stroke="#BD6B00" stroke-width="0.423055"/>
<path fill-rule="evenodd" clip-rule="evenodd" d="M206.959 227.762C203.406 226.07 205.69 221.67 206.959 219.047C206.452 222.516 209.329 225.139 206.959 227.677V227.762Z" fill="white" stroke="#BD6B00" stroke-width="0.423055"/>
<path fill-rule="evenodd" clip-rule="evenodd" d="M207.635 227.254C209.497 229.793 213.135 226.577 213.897 222.854C210.766 225.477 208.397 225.054 207.635 227.339V227.254ZM199.513 244.43C199.174 240.792 201.882 234.277 199.936 230.723C199.682 230.216 200.528 228.946 201.12 229.708C201.967 230.977 202.813 234.531 203.236 233.177C203.659 231.823 203.659 229.285 204.928 228.777C205.774 228.523 206.874 228.27 206.536 229.623C206.197 230.808 205.52 232.5 206.282 232.585C206.705 232.585 207.974 230.893 209.074 230.046C209.92 229.37 211.274 230.554 209.92 231.569C205.859 234.954 201.882 236.561 199.513 244.43ZM192.152 299.004C191.644 299.004 191.052 298.751 191.644 299.512C196.467 305.435 197.821 307.127 204.843 306.281C211.866 305.35 213.558 303.404 218.55 300.612C221.48 299.112 224.878 298.808 228.027 299.766C229.38 300.189 230.227 300.189 229.211 299.174C228.196 298.158 227.096 296.889 225.827 295.958C222.654 293.887 218.823 293.072 215.081 293.674C210.005 294.52 205.689 297.82 200.528 299.089C197.764 299.647 194.916 299.647 192.152 299.089V299.004ZM232.596 309.581C233.442 309.75 234.034 311.442 234.542 310.342C235.219 308.396 234.711 306.958 233.865 307.042C232.85 307.296 231.242 309.581 232.596 309.581Z" fill="white" stroke="#BD6B00" stroke-width="0.423055"/>
<path fill-rule="evenodd" clip-rule="evenodd" d="M188.852 241.638C187.836 240.51 188.119 239.974 189.698 240.031C190.882 240.031 193.252 240.877 194.182 240.115C195.028 239.523 194.605 236.985 195.028 235.885C195.198 235.123 195.621 234.192 196.721 235.715C199.767 240.623 203.49 246.546 205.182 252.299C206.028 255.514 205.182 260.591 202.305 263.975C202.305 261.099 201.29 259.153 200.02 256.699C198.328 253.568 192.321 244.853 188.852 241.554V241.638Z" fill="white"/>
<path fill-rule="evenodd" clip-rule="evenodd" d="M201.459 267.36C204.844 267.36 205.436 262.876 205.436 261.606C203.744 261.945 200.867 264.737 201.459 267.36ZM230.65 311.273C233.019 311.781 232.935 306.027 230.481 303.574C231.581 307.296 228.789 310.681 230.565 311.188L230.65 311.273ZM229.635 311.188C229.804 313.896 222.866 310.85 221.174 308.65C225.235 310.427 229.466 308.989 229.635 311.188ZM226.673 307.296C226.927 309.919 220.751 307.55 218.805 305.52C222.95 306.873 226.42 305.096 226.673 307.212V307.296ZM227.773 307.635C230.227 308.227 229.804 302.22 227.435 300.189C228.619 304.166 225.912 307.043 227.773 307.635ZM225.235 303.997C227.689 304.589 226.25 299.428 224.473 297.397C224.812 301.12 223.627 303.743 225.32 303.997H225.235ZM223.966 303.997C224.22 306.704 219.397 304.673 217.535 302.05C221.597 303.32 223.712 301.797 223.966 303.997ZM222.697 301.881C224.22 300.781 222.612 297.82 219.566 297.989C219.904 299.766 220.92 302.981 222.697 301.881ZM234.542 314.319C234.627 317.027 227.773 315.673 225.573 312.796C229.973 313.642 234.288 312.119 234.458 314.319H234.542ZM207.128 309.412C207.382 312.119 199.852 309.073 197.99 306.535C201.967 307.889 206.874 307.212 207.128 309.412ZM211.697 310.512C213.305 309.412 210.09 306.535 207.467 305.858C207.805 307.635 210.005 311.612 211.697 310.596V310.512ZM212.205 312.458C212.374 314.911 204.167 313.558 202.052 311.273C209.074 312.542 211.951 310.342 212.205 312.458Z" fill="white" stroke="#BD6B00" stroke-width="0.423055"/>
<path fill-rule="evenodd" clip-rule="evenodd" d="M216.096 314.065C216.942 316.35 209.073 315.758 206.281 314.489C210.766 314.489 215.419 312.458 216.096 314.065Z" fill="white" stroke="#BD6B00" stroke-width="0.423055"/>
<path fill-rule="evenodd" clip-rule="evenodd" d="M219.736 315.758C220.582 317.788 213.306 317.788 209.752 316.604C214.49 316.604 218.89 313.727 219.736 315.758ZM225.067 316.858C226.42 319.311 218.636 319.481 216.182 318.296C220.582 317.704 223.967 314.912 225.067 316.858ZM216.013 312.712C213.559 314.235 213.729 309.666 211.783 306.535C214.829 309.327 217.705 311.273 216.013 312.712Z" fill="white" stroke="#BD6B00" stroke-width="0.423055"/>
<path fill-rule="evenodd" clip-rule="evenodd" d="M220.413 314.404C218.382 316.181 216.69 309.92 214.828 306.366C217.874 309.751 222.274 312.881 220.413 314.32V314.404ZM226.166 316.096C224.474 318.127 219.397 310.174 217.536 305.943C220.328 309.243 227.52 314.404 226.166 316.096ZM221.259 322.188C220.413 325.234 207.552 319.312 206.029 316.181C213.474 320.073 221.428 319.227 221.259 322.104V322.188ZM180.053 259.745C179.715 259.322 178.869 259.745 179.038 260.676C179.292 261.945 181.153 268.46 184.368 270.66C186.653 272.352 198.752 274.975 204.167 276.16C207.157 276.724 209.667 278.219 211.698 280.644C211.003 277.836 210.156 275.068 209.159 272.352C208.144 269.814 205.436 267.107 202.56 267.022C197.398 266.768 190.629 266.345 185.637 264.23C183.376 263.276 181.417 261.726 179.968 259.745H180.053Z" fill="white" stroke="#BD6B00" stroke-width="0.423055"/>
<path fill-rule="evenodd" clip-rule="evenodd" d="M209.92 285.552C211.612 286.736 213.389 282.421 211.358 278.275C211.274 282.252 208.143 283.606 209.92 285.552Z" fill="white" stroke="#BD6B00" stroke-width="0.423055"/>
<path fill-rule="evenodd" clip-rule="evenodd" d="M211.529 289.528C213.813 290.205 214.49 286.144 213.052 282.929C213.306 286.398 209.413 288.513 211.529 289.528Z" fill="white" stroke="#BD6B00" stroke-width="0.423055"/>
<path fill-rule="evenodd" clip-rule="evenodd" d="M213.305 292.744C215.504 293.844 216.266 289.698 214.743 286.736C214.912 290.544 211.612 291.728 213.305 292.659V292.744Z" fill="white" stroke="#BD6B00" stroke-width="0.423055"/>
<path fill-rule="evenodd" clip-rule="evenodd" d="M212.374 292.997C211.528 295.536 206.452 290.713 205.605 288.09C208.736 291.22 212.967 290.797 212.374 292.913V292.997Z" fill="white" stroke="#BD6B00" stroke-width="0.423055"/>
<path fill-rule="evenodd" clip-rule="evenodd" d="M210.091 289.02C209.075 291.559 202.729 284.79 201.291 281.659C204.422 284.79 210.767 287.159 210.091 288.936V289.02Z" fill="white" stroke="#BD6B00" stroke-width="0.423055"/>
<path fill-rule="evenodd" clip-rule="evenodd" d="M208.821 285.044C207.806 288.005 200.953 280.137 198.922 277.344C202.306 280.39 209.583 282.929 208.821 285.044ZM208.568 282.167C211.106 281.66 208.483 279.629 205.437 276.329C205.352 279.798 205.86 282.252 208.568 282.167Z" fill="white" stroke="#BD6B00" stroke-width="0.423055"/>
<path fill-rule="evenodd" clip-rule="evenodd" d="M204.42 280.136C205.52 279.036 203.489 278.529 200.951 275.652C200.528 277.598 203.32 281.151 204.504 280.136H204.42ZM216.265 292.997C217.619 293.843 218.465 291.051 216.858 288.597C216.434 291.305 215.081 291.982 216.265 292.997ZM187.328 275.821C184.536 277.513 180.052 270.744 178.867 267.952C181.321 271.167 187.836 274.044 187.328 275.821Z" fill="white" stroke="#BD6B00" stroke-width="0.423055"/>
<path fill-rule="evenodd" clip-rule="evenodd" d="M189.783 279.713C188.176 281.406 183.268 276.752 181.576 274.383C184.115 276.667 190.46 276.921 189.783 279.713Z" fill="white" stroke="#BD6B00" stroke-width="0.423055"/>
<path fill-rule="evenodd" clip-rule="evenodd" d="M192.407 283.267C191.899 285.636 184.792 280.306 183.1 277.768C186.146 280.729 192.914 280.475 192.407 283.267Z" fill="white" stroke="#BD6B00" stroke-width="0.423055"/>
<path fill-rule="evenodd" clip-rule="evenodd" d="M191.306 285.89C190.206 288.006 184.368 282.675 182.93 279.968C186.568 283.014 192.237 283.775 191.391 285.89H191.306ZM188.345 275.483C190.122 273.537 189.36 272.607 188.006 269.561C187.329 272.691 186.23 273.96 188.345 275.483ZM190.799 279.122C194.183 279.291 190.799 275.229 189.952 271.76C190.291 275.653 189.106 278.783 190.799 279.122Z" fill="white" stroke="#BD6B00" stroke-width="0.423055"/>
<path fill-rule="evenodd" clip-rule="evenodd" d="M192.913 282.336C195.197 281.828 194.605 278.528 192.743 274.552C193.167 278.867 190.797 281.321 192.913 282.336ZM192.067 288.851C191.22 291.389 184.621 285.467 183.605 283.097C186.99 285.974 192.659 286.905 192.067 288.851Z" fill="white" stroke="#BD6B00" stroke-width="0.423055"/>
<path fill-rule="evenodd" clip-rule="evenodd" d="M196.045 292.912C195.114 295.451 188.176 290.205 186.061 287.328C190.206 290.713 196.552 290.374 196.045 292.912Z" fill="white" stroke="#BD6B00" stroke-width="0.423055"/>
<path fill-rule="evenodd" clip-rule="evenodd" d="M200.105 297.059C199.005 300.697 191.729 294.859 189.613 291.982C194.182 295.536 200.613 294.521 200.105 297.059ZM193.336 287.752C195.282 288.682 196.044 283.183 194.944 279.206C194.944 283.437 190.967 286.652 193.252 287.667L193.336 287.752Z" fill="white" stroke="#BD6B00" stroke-width="0.423055"/>
<path fill-rule="evenodd" clip-rule="evenodd" d="M196.637 292.152C199.006 292.828 198.329 286.821 196.214 282.844C195.96 286.821 194.268 290.459 196.637 292.152ZM200.867 296.298C203.406 296.382 201.713 291.136 199.514 288.175C199.852 291.982 198.668 295.79 200.867 296.298ZM196.214 298.497C195.368 299.851 193.506 297.397 190.291 295.536C193.168 296.382 196.552 297.228 196.214 298.497ZM194.691 253.907C197.229 252.046 195.283 248.662 194.691 245.446C193.845 248.492 191.814 252.554 194.691 253.907ZM194.691 258.392C190.883 257.969 191.476 253.231 191.306 250.185C192.491 254.33 195.537 255.007 194.691 258.476V258.392ZM195.198 257.8C198.329 257.63 198.16 254.077 198.329 250.523C196.721 253.823 194.945 254.33 195.198 257.8Z" fill="white" stroke="#BD6B00" stroke-width="0.423055"/>
<path fill-rule="evenodd" clip-rule="evenodd" d="M195.113 262.199C192.575 262.453 191.39 259.999 190.883 256.276C193.167 259.745 195.198 258.645 195.113 262.199ZM195.959 261.945C199.09 262.368 198.498 258.73 198.498 256.022C197.482 258.561 194.944 259.407 195.959 261.945Z" fill="white" stroke="#BD6B00" stroke-width="0.423055"/>
<path fill-rule="evenodd" clip-rule="evenodd" d="M191.053 260.422C191.307 262.791 192.83 266.852 195.283 265.922C196.214 263.045 193.083 262.453 191.053 260.422Z" fill="white" stroke="#BD6B00" stroke-width="0.423055"/>
<path fill-rule="evenodd" clip-rule="evenodd" d="M195.959 266.176C194.943 264.145 198.497 263.045 199.174 260.337C199.597 264.23 199.258 266.768 195.959 266.26V266.176ZM185.89 241.469C187.836 239.439 186.144 236.054 185.551 232.839C184.705 235.885 183.436 239.946 185.89 241.469ZM185.89 245.361C182.505 245.784 181.659 238.846 181.236 235.8C182.421 239.946 186.313 241.723 185.89 245.446V245.361ZM186.567 245.361C188.936 244.092 188.428 241.385 189.105 239.439C187.582 241.892 186.059 242.231 186.567 245.361Z" fill="white" stroke="#BD6B00" stroke-width="0.423055"/>
<path fill-rule="evenodd" clip-rule="evenodd" d="M185.806 249.93C182.337 250.184 180.222 242.484 180.053 239.438C181.153 243.584 186.314 245.784 185.891 249.93H185.806ZM186.568 249.761C189.952 249 189.529 246.8 189.022 243.331C187.922 246.884 186.06 246.123 186.568 249.761Z" fill="white" stroke="#BD6B00" stroke-width="0.423055"/>
<path fill-rule="evenodd" clip-rule="evenodd" d="M185.806 254.33C181.914 255.007 182.168 248.746 179.037 244.262C181.745 247.646 186.652 251.877 185.806 254.33ZM186.652 254.077C189.698 254.246 190.037 249.761 189.867 247.9C189.106 249.761 185.637 251.454 186.737 254.161L186.652 254.077Z" fill="white" stroke="#BD6B00" stroke-width="0.423055"/>
<path fill-rule="evenodd" clip-rule="evenodd" d="M179.715 249.507C181.153 254.33 183.269 259.152 185.807 258.814C187.076 256.022 183.353 255.683 179.715 249.507Z" fill="white" stroke="#BD6B00" stroke-width="0.423055"/>
<path fill-rule="evenodd" clip-rule="evenodd" d="M186.738 258.053C185.723 255.938 189.276 254.922 189.953 252.215C190.376 256.107 190.038 258.645 186.738 258.053ZM180.73 255.007C182.846 259.322 183.776 264.314 186.653 263.553C187.753 260.168 183.438 259.491 180.73 255.007Z" fill="white" stroke="#BD6B00" stroke-width="0.423055"/>
<path fill-rule="evenodd" clip-rule="evenodd" d="M187.245 262.791C185.975 260.422 189.529 259.66 190.46 256.53C190.883 260.591 190.46 263.552 187.245 262.706V262.791ZM193.337 233.6C195.367 234.108 197.567 231.823 196.806 228.354C194.437 228.862 193.421 231.062 193.337 233.6ZM186.652 231.823C186.822 232.839 188.091 232.923 187.668 231.485C187.332 230.555 187.332 229.538 187.668 228.608C188.049 227.339 188.049 225.985 187.668 224.716C187.329 223.87 186.145 224.377 186.652 225.054C187.16 225.731 187.245 227.424 186.822 228.185C186.427 229.426 186.37 230.639 186.652 231.823ZM206.028 245.361C205.182 246.461 203.575 245.699 204.844 244.092C205.859 242.823 207.382 241.723 207.382 240.369C207.551 238.677 208.482 236.138 209.413 235.208C210.343 234.277 211.443 235.546 210.428 236.223C209.328 236.9 208.567 239.946 208.651 241.13C208.567 242.823 206.959 244.092 206.028 245.361ZM203.49 243.415C202.644 244.6 201.459 243.838 202.136 241.977C202.728 240.707 202.813 239.015 203.49 238.084C204.505 236.646 206.028 235.462 206.959 234.531C207.974 233.685 208.651 234.531 207.805 235.377C206.768 236.413 205.833 237.546 205.013 238.761C203.828 240.623 204.336 242.146 203.49 243.415ZM190.206 237.323C190.121 239.015 191.475 239.354 191.391 236.985C191.391 234.446 189.529 232.077 190.544 228.27C191.221 226.408 191.221 222.939 190.883 221.162C190.544 219.385 189.191 220.485 189.783 221.924C190.291 223.616 189.698 226.662 189.275 228.27C188.006 232.839 190.291 235.038 190.121 237.323H190.206ZM193.844 228.016C193.675 229.623 192.321 229.708 192.744 227.593C193.083 225.957 193.083 224.462 192.744 223.108C192.237 221.332 192.406 218.286 192.744 217.016C193.167 215.663 194.437 216.424 193.929 217.439C193.343 219.04 193.255 220.78 193.675 222.431C194.183 224.124 194.098 226.493 193.844 228.1V228.016ZM180.645 259.406C181.322 260.168 182.337 259.66 181.491 258.56C180.645 257.714 180.899 257.545 180.391 256.53C179.883 255.345 179.968 254.753 179.376 253.991C178.783 253.145 178.022 253.991 178.53 254.584C179.207 255.43 179.037 255.937 179.376 256.699C180.222 257.968 179.968 258.645 180.645 259.406ZM197.906 280.221C198.922 280.814 199.787 281.634 200.433 282.618C201.079 283.601 201.488 284.721 201.628 285.89C201.717 287.997 202.296 290.054 203.321 291.897C201.628 291.474 200.782 288.766 200.529 286.144C200.275 283.436 198.836 282.336 197.99 280.221H197.906ZM202.221 285.213C203.659 287.836 205.605 288.851 205.774 290.797C205.944 293.082 206.113 293.166 206.705 295.366C205.013 294.943 204.59 294.774 204.167 291.389C203.913 289.02 201.967 287.413 202.221 285.213Z" fill="white" stroke="#BD6B00" stroke-width="0.423055"/>
<path fill-rule="evenodd" clip-rule="evenodd" d="M246.727 309.581C247.573 311.104 248.419 313.388 250.111 312.965C250.111 311.865 248.334 311.019 246.727 309.581ZM249.265 310.088C252.396 311.442 255.188 311.104 255.611 313.134C252.565 313.473 251.38 312.288 249.18 310.088H249.265ZM235.643 299.343C237.745 300.977 239.235 303.272 239.873 305.858C240.555 308.197 241.582 310.421 242.919 312.457C240.719 310.979 239.126 308.756 238.435 306.196C237.842 303.658 237.081 301.712 235.643 299.427V299.343ZM238.266 299.343C240.635 301.204 242.835 303.404 243.511 306.027C244.188 308.481 244.611 310.342 246.219 312.796C243.681 311.188 242.75 308.819 241.988 306.196C241.396 303.658 239.873 301.796 238.266 299.427V299.343ZM246.05 305.519C245.998 305.306 246.03 305.081 246.141 304.892C246.251 304.703 246.431 304.564 246.642 304.504L248.842 303.827C249.688 303.573 250.196 304.166 250.196 304.589V306.281C250.196 306.789 249.998 307.042 249.603 307.042C248.927 307.042 248.25 307.24 247.573 307.635C247.009 307.917 246.586 307.776 246.304 307.212L246.05 305.519ZM255.018 305.519C255.018 304.955 254.849 304.617 254.511 304.504C253.872 304.226 253.175 304.109 252.48 304.166C251.747 304.166 251.437 304.335 251.549 304.673V306.45C251.549 307.127 251.549 307.127 251.888 307.296C252.621 307.24 253.326 307.409 254.003 307.804C254.511 308.03 254.821 307.86 254.934 307.296L255.018 305.519Z" fill="white"/>
<path fill-rule="evenodd" clip-rule="evenodd" d="M292.162 244.6C293.177 242.908 294.446 246.969 298.761 249.93C300.707 251.284 302.146 254.922 302.146 257.291V262.199C302.23 263.13 303.33 265.414 302.569 266.006C300.707 267.36 298.254 270.575 297.154 271.675C296.138 272.521 295.292 267.191 294.615 264.906C293.769 262.368 294.108 259.237 291.908 256.953C290.385 255.261 286.493 253.738 286.831 253.061L292.162 244.6Z" fill="white" stroke="#BD6B00" stroke-width="0.423055"/>
<path fill-rule="evenodd" clip-rule="evenodd" d="M292.416 257.63C292.752 256.832 293.209 256.09 293.77 255.43C294.307 254.759 295.006 254.235 295.801 253.907C296.586 253.689 297.291 253.248 297.831 252.638L298.508 251.369V249.677L298.762 249.931C300.708 251.284 302.146 254.923 302.146 257.292V259.238C302.034 259.689 301.864 260.056 301.639 260.338L300.708 261.015L298.424 261.607C297.567 261.989 296.813 262.569 296.224 263.299C295.613 263.955 295.1 264.696 294.701 265.499L294.531 264.822C293.855 262.538 293.939 259.83 292.332 257.63H292.416Z" fill="#BF0000" stroke="#BD6B00" stroke-width="0.423055"/>
<path d="M298.507 249.592C298.93 252.384 297.322 253.399 295.799 253.907C294.276 254.499 293.007 256.107 292.415 257.63M302.314 258.899C301.638 261.437 299.945 261.099 298.422 261.607C296.899 262.114 295.292 264.145 294.615 265.668" stroke="#BD6B00" stroke-width="0.423055"/>
<path fill-rule="evenodd" clip-rule="evenodd" d="M293.6 242.908L292.753 242.4L277.777 267.699L278.623 268.207L293.6 242.908Z" fill="white" stroke="#BD6B00" stroke-width="0.423055"/>
<path fill-rule="evenodd" clip-rule="evenodd" d="M291.993 241.893C291.993 242.342 292.171 242.772 292.488 243.089C292.806 243.407 293.236 243.585 293.685 243.585C294.134 243.585 294.564 243.407 294.881 243.089C295.199 242.772 295.377 242.342 295.377 241.893C295.377 241.444 295.199 241.013 294.881 240.696C294.564 240.379 294.134 240.2 293.685 240.2C293.236 240.2 292.806 240.379 292.488 240.696C292.171 241.013 291.993 241.444 291.993 241.893ZM279.132 221.586H273.04V222.94H279.132V221.586ZM279.132 224.209H273.04V235.885H279.132V224.209ZM279.47 219.978H272.701C272.532 217.694 274.816 215.24 276.086 215.24C277.439 215.325 279.555 217.779 279.47 219.978Z" fill="white" stroke="#BD6B00" stroke-width="0.423055"/>
<path fill-rule="evenodd" clip-rule="evenodd" d="M262.294 218.624C263.563 219.132 264.579 220.57 265.171 222.262C265.763 223.955 266.017 225.901 265.678 227.424C265.622 227.988 265.481 228.411 265.255 228.693C265.086 228.975 264.917 229.116 264.748 229.116C264.466 229.116 264.268 229.031 264.156 228.862L263.986 228.185C264.099 226.493 264.014 224.97 263.732 223.616C263.336 222.122 262.441 220.808 261.194 219.893C260.968 219.724 260.827 219.527 260.771 219.301L261.025 218.709C261.42 218.427 261.843 218.398 262.294 218.624ZM262.125 218.962C261.786 218.85 261.504 218.878 261.279 219.047L261.194 219.216L261.448 219.555C262.758 220.498 263.689 221.878 264.071 223.447C264.417 225.001 264.503 226.603 264.325 228.185L264.494 228.693C264.494 228.693 264.494 228.777 264.663 228.693L265.002 228.439L265.34 227.424C265.566 225.788 265.368 224.096 264.748 222.347C264.127 220.711 263.281 219.583 262.209 218.962H262.125Z" fill="#BD6B00"/>
<path fill-rule="evenodd" clip-rule="evenodd" d="M260.094 220.232C261.392 220.909 262.238 222.093 262.632 223.786C263.071 225.413 263.158 227.114 262.886 228.778C262.604 229.906 262.153 230.47 261.533 230.47C261.251 230.583 261.025 230.498 260.856 230.216C260.686 229.934 260.63 229.652 260.686 229.37C261.025 227.96 261.109 226.521 260.94 225.055C260.715 223.588 260.094 222.432 259.079 221.586C258.797 221.36 258.656 221.134 258.656 220.909L258.825 220.401C259.22 220.119 259.643 220.063 260.094 220.232ZM259.925 220.655C259.587 220.542 259.304 220.542 259.079 220.655L258.994 220.909L259.248 221.247C260.361 222.195 261.085 223.521 261.279 224.97C261.504 226.55 261.448 228.016 261.11 229.37V230.047L261.533 230.131C261.786 230.131 262.379 229.708 262.548 228.693C262.802 227.255 262.717 225.393 262.294 223.87C261.843 222.234 261.053 221.163 259.925 220.655Z" fill="#BD6B00"/>
<path fill-rule="evenodd" clip-rule="evenodd" d="M279.47 245.361H272.701V254.669H279.47V245.361ZM279.047 260.084H272.532V262.114H279.047V260.084ZM279.216 263.553H272.447V270.914H279.216V263.553ZM279.724 272.437H272.363V276.583H279.724V272.437ZM278.793 258.391H272.87L271.686 256.361H279.809L278.793 258.391ZM270.84 251.115L270.755 246.038H266.694C268.448 247.389 269.867 249.126 270.84 251.115Z" fill="white" stroke="#BD6B00" stroke-width="0.423055"/>
<path fill-rule="evenodd" clip-rule="evenodd" d="M278.371 253.23C278.371 254.33 277.102 253.907 277.102 253.314V248.576C277.102 247.73 275.071 247.899 275.071 248.492V253.568C275.071 254.414 273.633 254.33 273.717 253.568V247.645C273.717 245.784 278.371 245.869 278.371 247.561V253.23ZM278.371 264.483H273.548V270.406H278.371V264.483Z" stroke="#BD6B00" stroke-width="0.423055"/>
<path fill-rule="evenodd" clip-rule="evenodd" d="M275.325 267.022H273.633V267.868H275.325V267.022ZM278.287 267.022H276.594V267.868H278.287V267.022ZM276.594 264.483H275.325V267.022H276.594V264.483ZM276.594 267.868H275.325V270.491H276.594V267.868ZM303.416 204.41C303.078 209.063 304.601 211.686 307.054 211.263C307.731 208.725 306.208 206.948 303.416 204.41ZM308.916 214.817C311.116 213.717 309.508 205.087 308.662 201.448C308.07 206.102 306.97 212.702 308.916 214.817Z" fill="white"/>
<path d="M275.325 267.022H273.633V267.868H275.325M275.325 267.022V267.868M275.325 267.022V264.483H276.594V267.022M275.325 267.022H276.594M275.325 267.868H276.594M275.325 267.868V270.491H276.594V267.868M276.594 267.022H278.287V267.868H276.594M276.594 267.022V267.868M303.416 204.41C303.078 209.063 304.601 211.686 307.054 211.263C307.731 208.725 306.208 206.948 303.416 204.41ZM308.916 214.817C311.116 213.717 309.508 205.087 308.662 201.448C308.07 206.102 306.97 212.702 308.916 214.817Z" stroke="#BD6B00" stroke-width="0.423055"/>
<path fill-rule="evenodd" clip-rule="evenodd" d="M308.153 215.24C304.43 216.509 301.384 212.533 300.454 207.879C303.5 212.11 308.492 212.11 308.069 215.24H308.153ZM310.945 219.555C313.822 218.794 312.13 209.656 311.538 206.018C310.945 209.825 308.915 218.286 310.945 219.555ZM309.93 219.302C309.761 216.171 306.63 217.017 304.43 215.325C304.853 217.017 306.123 219.725 309.93 219.302ZM313.484 223.532C316.36 222.686 314.668 212.871 314.837 208.81C313.991 212.363 311.284 222.601 313.484 223.532ZM312.13 223.109C309.761 223.871 306.63 222.263 306.376 219.471C308.492 220.909 311.707 219.809 312.13 223.109Z" fill="white" stroke="#BD6B00" stroke-width="0.423055"/>
<path fill-rule="evenodd" clip-rule="evenodd" d="M315.684 227.847C318.391 228.101 317.207 219.725 317.207 211.94C316.192 219.217 313.399 225.901 315.684 227.847Z" fill="white" stroke="#BD6B00" stroke-width="0.423055"/>
<path fill-rule="evenodd" clip-rule="evenodd" d="M314.668 227.508C312.807 228.354 309.507 226.916 308.576 223.785C311.96 225.224 314.16 223.785 314.668 227.508ZM293.008 208.725C293.515 212.871 295.207 215.24 297.661 214.817C298.338 212.278 296.307 210.586 293.008 208.725ZM299.607 219.216C295.461 219.809 294.023 216.678 291.146 212.532C295.123 215.409 299.776 215.917 299.607 219.301V219.216Z" fill="white" stroke="#BD6B00" stroke-width="0.423055"/>
<path fill-rule="evenodd" clip-rule="evenodd" d="M300.878 218.794C303.078 216.086 300.878 212.617 299.186 209.74C299.524 214.055 298.086 216.509 300.878 218.794ZM301.724 223.278C302.062 220.57 297.493 219.978 295.463 218.54C296.224 220.063 297.155 224.209 301.809 223.278H301.724Z" fill="white" stroke="#BD6B00" stroke-width="0.423055"/>
<path fill-rule="evenodd" clip-rule="evenodd" d="M302.738 223.278C305.869 222.94 304.6 217.609 302.315 214.732C303.246 218.794 300.623 221.586 302.738 223.278Z" fill="white" stroke="#BD6B00" stroke-width="0.423055"/>
<path fill-rule="evenodd" clip-rule="evenodd" d="M305.107 227.762C308.661 226.07 306.376 221.67 305.107 219.047C305.615 222.516 302.738 225.139 305.107 227.677V227.762Z" fill="white" stroke="#BD6B00" stroke-width="0.423055"/>
<path fill-rule="evenodd" clip-rule="evenodd" d="M304.431 227.254C302.569 229.793 298.931 226.577 298.17 222.854C301.3 225.477 303.669 225.054 304.431 227.339V227.254ZM312.554 244.43C312.892 240.792 310.184 234.277 312.131 230.723C312.384 230.216 311.538 228.946 310.946 229.708C310.1 230.977 309.254 234.531 308.831 233.177C308.408 231.823 308.408 229.285 307.138 228.777C306.292 228.523 305.192 228.27 305.531 229.623C305.869 230.808 306.546 232.5 305.785 232.585C305.362 232.585 304.092 230.893 302.993 230.046C302.146 229.37 300.793 230.554 302.146 231.569C306.208 234.954 310.184 236.561 312.554 244.43ZM319.915 299.004C320.422 299.004 321.015 298.751 320.422 299.512C315.6 305.435 314.246 307.127 307.223 306.281C300.2 305.35 298.508 303.404 293.516 300.612C290.587 299.112 287.189 298.808 284.04 299.766C282.686 300.189 281.84 300.189 282.855 299.174C283.87 298.158 284.97 296.889 286.24 295.958C289.413 293.887 293.244 293.072 296.985 293.674C302.062 294.52 306.377 297.82 311.538 299.089C314.303 299.647 317.151 299.647 319.915 299.089V299.004ZM279.471 309.581C278.625 309.75 278.032 311.442 277.525 310.342C276.848 308.396 277.355 306.958 278.202 307.042C279.217 307.296 280.824 309.581 279.471 309.581Z" fill="white" stroke="#BD6B00" stroke-width="0.423055"/>
<path fill-rule="evenodd" clip-rule="evenodd" d="M323.215 241.638C324.23 240.51 323.948 239.974 322.368 240.031C321.184 240.031 318.815 240.877 317.884 240.115C317.038 239.523 317.461 236.985 317.038 235.885C316.869 235.123 316.446 234.192 315.346 235.715C312.3 240.623 308.577 246.546 306.885 252.299C306.039 255.514 306.885 260.591 309.761 263.975C309.761 261.099 310.777 259.153 312.046 256.699C313.738 253.568 319.746 244.853 323.215 241.554V241.638Z" fill="white"/>
<path fill-rule="evenodd" clip-rule="evenodd" d="M310.607 267.36C307.223 267.36 306.63 262.876 306.63 261.606C308.323 261.945 311.199 264.737 310.607 267.36ZM281.416 311.273C279.047 311.781 279.132 306.027 281.586 303.574C280.486 307.296 283.278 310.681 281.501 311.188L281.416 311.273ZM282.432 311.188C282.262 313.896 289.201 310.85 290.893 308.65C286.831 310.427 282.601 308.989 282.432 311.188ZM285.393 307.296C285.139 309.919 291.316 307.55 293.262 305.52C289.116 306.873 285.647 305.096 285.393 307.212V307.296ZM284.293 307.635C281.839 308.227 282.262 302.22 284.632 300.189C283.447 304.166 286.155 307.043 284.293 307.635ZM286.831 303.997C284.378 304.589 285.816 299.428 287.593 297.397C287.254 301.12 288.439 303.743 286.747 303.997H286.831ZM288.101 303.997C287.847 306.704 292.67 304.673 294.531 302.05C290.47 303.32 288.354 301.797 288.101 303.997ZM289.37 301.881C287.847 300.781 289.454 297.82 292.5 297.989C292.162 299.766 291.147 302.981 289.37 301.881ZM277.524 314.319C277.44 317.027 284.293 315.673 286.493 312.796C282.093 313.642 277.778 312.119 277.609 314.319H277.524ZM304.938 309.412C304.684 312.119 312.215 309.073 314.076 306.535C310.099 307.889 305.192 307.212 304.938 309.412ZM300.369 310.512C298.762 309.412 301.977 306.535 304.6 305.858C304.261 307.635 302.061 311.612 300.369 310.596V310.512ZM299.862 312.458C299.692 314.911 307.9 313.558 310.015 311.273C302.992 312.542 300.115 310.342 299.862 312.458Z" fill="white" stroke="#BD6B00" stroke-width="0.423055"/>
<path fill-rule="evenodd" clip-rule="evenodd" d="M295.97 314.065C295.124 316.35 302.993 315.758 305.785 314.489C301.301 314.489 296.647 312.458 295.97 314.065Z" fill="white" stroke="#BD6B00" stroke-width="0.423055"/>
<path fill-rule="evenodd" clip-rule="evenodd" d="M292.33 315.758C291.484 317.788 298.761 317.788 302.314 316.604C297.576 316.604 293.176 313.727 292.33 315.758ZM287 316.858C285.646 319.311 293.43 319.481 295.884 318.296C291.484 317.704 288.1 314.912 287 316.858ZM296.053 312.712C298.507 314.235 298.338 309.666 300.284 306.535C297.238 309.327 294.361 311.273 296.053 312.712Z" fill="white" stroke="#BD6B00" stroke-width="0.423055"/>
<path fill-rule="evenodd" clip-rule="evenodd" d="M291.654 314.404C293.685 316.181 295.377 309.92 297.238 306.366C294.192 309.751 289.792 312.881 291.654 314.32V314.404ZM285.9 316.096C287.593 318.127 292.669 310.174 294.531 305.943C291.738 309.243 284.547 314.404 285.9 316.096ZM290.808 322.188C291.654 325.234 304.515 319.312 306.038 316.181C298.592 320.073 290.639 319.227 290.808 322.104V322.188ZM332.013 259.745C332.352 259.322 333.198 259.745 333.029 260.676C332.775 261.945 330.913 268.46 327.698 270.66C325.414 272.352 313.314 274.975 307.899 276.16C304.91 276.724 302.399 278.219 300.369 280.644C301.063 277.836 301.911 275.068 302.907 272.352C303.922 269.814 306.63 267.107 309.507 267.022C314.668 266.768 321.437 266.345 326.429 264.23C328.69 263.276 330.65 261.726 332.098 259.745H332.013Z" fill="white" stroke="#BD6B00" stroke-width="0.423055"/>
<path fill-rule="evenodd" clip-rule="evenodd" d="M302.147 285.552C300.454 286.736 298.678 282.421 300.708 278.275C300.793 282.252 303.923 283.606 302.147 285.552Z" fill="white" stroke="#BD6B00" stroke-width="0.423055"/>
<path fill-rule="evenodd" clip-rule="evenodd" d="M300.538 289.528C298.253 290.205 297.576 286.144 299.015 282.929C298.761 286.398 302.653 288.513 300.538 289.528Z" fill="white" stroke="#BD6B00" stroke-width="0.423055"/>
<path fill-rule="evenodd" clip-rule="evenodd" d="M298.762 292.744C296.562 293.844 295.8 289.698 297.323 286.736C297.154 290.544 300.454 291.728 298.762 292.659V292.744Z" fill="white" stroke="#BD6B00" stroke-width="0.423055"/>
<path fill-rule="evenodd" clip-rule="evenodd" d="M299.692 292.997C300.538 295.536 305.615 290.713 306.461 288.09C303.33 291.22 299.1 290.797 299.692 292.913V292.997Z" fill="white" stroke="#BD6B00" stroke-width="0.423055"/>
<path fill-rule="evenodd" clip-rule="evenodd" d="M301.978 289.02C302.993 291.559 309.339 284.79 310.777 281.659C307.647 284.79 301.301 287.159 301.978 288.936V289.02Z" fill="white" stroke="#BD6B00" stroke-width="0.423055"/>
<path fill-rule="evenodd" clip-rule="evenodd" d="M303.245 285.044C304.26 288.005 311.114 280.137 313.145 277.344C309.76 280.39 302.484 282.929 303.245 285.044ZM303.499 282.167C300.961 281.66 303.583 279.629 306.629 276.329C306.714 279.798 306.206 282.252 303.499 282.167Z" fill="white" stroke="#BD6B00" stroke-width="0.423055"/>
<path fill-rule="evenodd" clip-rule="evenodd" d="M307.647 280.136C306.547 279.036 308.577 278.529 311.116 275.652C311.539 277.598 308.747 281.151 307.562 280.136H307.647ZM295.801 292.997C294.447 293.843 293.601 291.051 295.209 288.597C295.632 291.305 296.986 291.982 295.801 292.997ZM324.738 275.821C327.53 277.513 332.015 270.744 333.199 267.952C330.745 271.167 324.23 274.044 324.738 275.821Z" fill="white" stroke="#BD6B00" stroke-width="0.423055"/>
<path fill-rule="evenodd" clip-rule="evenodd" d="M322.283 279.713C323.891 281.406 328.798 276.752 330.49 274.383C327.952 276.667 321.606 276.921 322.283 279.713Z" fill="white" stroke="#BD6B00" stroke-width="0.423055"/>
<path fill-rule="evenodd" clip-rule="evenodd" d="M319.66 283.267C320.167 285.636 327.275 280.306 328.967 277.768C325.921 280.729 319.152 280.475 319.66 283.267Z" fill="white" stroke="#BD6B00" stroke-width="0.423055"/>
<path fill-rule="evenodd" clip-rule="evenodd" d="M320.76 285.89C321.86 288.006 327.698 282.675 329.137 279.968C325.498 283.014 319.83 283.775 320.676 285.89H320.76ZM323.722 275.483C321.945 273.537 322.706 272.607 324.06 269.561C324.737 272.691 325.837 273.96 323.722 275.483ZM321.268 279.122C317.883 279.291 321.268 275.229 322.114 271.76C321.776 275.653 322.96 278.783 321.268 279.122Z" fill="white" stroke="#BD6B00" stroke-width="0.423055"/>
<path fill-rule="evenodd" clip-rule="evenodd" d="M319.154 282.336C316.869 281.828 317.462 278.528 319.323 274.552C318.9 278.867 321.269 281.321 319.154 282.336ZM320 288.851C320.846 291.389 327.446 285.467 328.461 283.097C325.076 285.974 319.408 286.905 320 288.851Z" fill="white" stroke="#BD6B00" stroke-width="0.423055"/>
<path fill-rule="evenodd" clip-rule="evenodd" d="M316.022 292.912C316.952 295.451 323.891 290.205 326.006 287.328C321.86 290.713 315.514 290.374 316.022 292.912Z" fill="white" stroke="#BD6B00" stroke-width="0.423055"/>
<path fill-rule="evenodd" clip-rule="evenodd" d="M311.961 297.059C313.061 300.697 320.338 294.859 322.453 291.982C317.884 295.536 311.454 294.521 311.961 297.059ZM318.73 287.752C316.784 288.682 316.023 283.183 317.123 279.206C317.123 283.437 321.099 286.652 318.815 287.667L318.73 287.752Z" fill="white" stroke="#BD6B00" stroke-width="0.423055"/>
<path fill-rule="evenodd" clip-rule="evenodd" d="M315.43 292.152C313.06 292.828 313.737 286.821 315.853 282.844C316.106 286.821 317.799 290.459 315.43 292.152ZM311.199 296.298C308.661 296.382 310.353 291.136 312.553 288.175C312.214 291.982 313.399 295.79 311.199 296.298ZM315.853 298.497C316.699 299.851 318.56 297.397 321.775 295.536C318.899 296.382 315.514 297.228 315.853 298.497ZM317.376 253.907C314.837 252.046 316.783 248.662 317.376 245.446C318.222 248.492 320.252 252.554 317.376 253.907ZM317.376 258.392C321.183 257.969 320.591 253.231 320.76 250.185C319.576 254.33 316.53 255.007 317.376 258.476V258.392ZM316.868 257.8C313.737 257.63 313.907 254.077 313.737 250.523C315.345 253.823 317.122 254.33 316.868 257.8Z" fill="white" stroke="#BD6B00" stroke-width="0.423055"/>
<path fill-rule="evenodd" clip-rule="evenodd" d="M316.953 262.199C319.491 262.453 320.676 259.999 321.184 256.276C318.899 259.745 316.868 258.645 316.953 262.199ZM316.107 261.945C312.976 262.368 313.569 258.73 313.569 256.022C314.584 258.561 317.122 259.407 316.107 261.945Z" fill="white" stroke="#BD6B00" stroke-width="0.423055"/>
<path fill-rule="evenodd" clip-rule="evenodd" d="M321.014 260.422C320.76 262.791 319.237 266.852 316.783 265.922C315.852 263.045 318.983 262.453 321.014 260.422Z" fill="white" stroke="#BD6B00" stroke-width="0.423055"/>
<path fill-rule="evenodd" clip-rule="evenodd" d="M316.108 266.176C317.123 264.145 313.569 263.045 312.893 260.337C312.469 264.23 312.808 266.768 316.108 266.26V266.176ZM326.176 241.469C324.23 239.439 325.923 236.054 326.515 232.839C327.361 235.885 328.63 239.946 326.176 241.469ZM326.176 245.361C329.561 245.784 330.407 238.846 330.83 235.8C329.646 239.946 325.753 241.723 326.176 245.446V245.361ZM325.5 245.361C323.13 244.092 323.638 241.385 322.961 239.439C324.484 241.892 326.007 242.231 325.5 245.361Z" fill="white" stroke="#BD6B00" stroke-width="0.423055"/>
<path fill-rule="evenodd" clip-rule="evenodd" d="M326.26 249.93C329.729 250.184 331.844 242.484 332.014 239.438C330.914 243.584 325.752 245.784 326.176 249.93H326.26ZM325.499 249.761C322.114 249 322.537 246.8 323.045 243.331C324.145 246.884 326.006 246.123 325.499 249.761Z" fill="white" stroke="#BD6B00" stroke-width="0.423055"/>
<path fill-rule="evenodd" clip-rule="evenodd" d="M326.26 254.33C330.153 255.007 329.899 248.746 333.029 244.262C330.322 247.646 325.414 251.877 326.26 254.33ZM325.414 254.077C322.368 254.246 322.03 249.761 322.199 247.9C322.961 249.761 326.43 251.454 325.33 254.161L325.414 254.077Z" fill="white" stroke="#BD6B00" stroke-width="0.423055"/>
<path fill-rule="evenodd" clip-rule="evenodd" d="M332.352 249.507C330.913 254.33 328.798 259.152 326.26 258.814C324.99 256.022 328.713 255.683 332.352 249.507Z" fill="white" stroke="#BD6B00" stroke-width="0.423055"/>
<path fill-rule="evenodd" clip-rule="evenodd" d="M325.329 258.053C326.344 255.938 322.79 254.922 322.113 252.215C321.69 256.107 322.029 258.645 325.329 258.053ZM331.336 255.007C329.221 259.322 328.29 264.314 325.413 263.553C324.313 260.168 328.628 259.491 331.336 255.007Z" fill="white" stroke="#BD6B00" stroke-width="0.423055"/>
<path fill-rule="evenodd" clip-rule="evenodd" d="M324.822 262.791C326.091 260.422 322.537 259.66 321.607 256.53C321.184 260.591 321.607 263.552 324.822 262.706V262.791ZM318.73 233.6C316.699 234.108 314.499 231.823 315.261 228.354C317.63 228.862 318.645 231.062 318.73 233.6ZM325.414 231.823C325.245 232.839 323.976 232.923 324.399 231.485C324.735 230.555 324.735 229.538 324.399 228.608C324.018 227.339 324.018 225.985 324.399 224.716C324.737 223.87 325.922 224.377 325.414 225.054C324.906 225.731 324.822 227.424 325.245 228.185C325.64 229.426 325.696 230.639 325.414 231.823ZM306.038 245.361C306.884 246.461 308.492 245.699 307.223 244.092C306.207 242.823 304.684 241.723 304.684 240.369C304.515 238.677 303.584 236.138 302.654 235.208C301.723 234.277 300.623 235.546 301.638 236.223C302.738 236.9 303.5 239.946 303.415 241.13C303.5 242.823 305.107 244.092 306.038 245.361ZM308.577 243.415C309.423 244.6 310.607 243.838 309.93 241.977C309.338 240.707 309.253 239.015 308.577 238.084C307.561 236.646 306.038 235.462 305.107 234.531C304.092 233.685 303.415 234.531 304.261 235.377C305.298 236.413 306.234 237.546 307.054 238.761C308.238 240.623 307.73 242.146 308.577 243.415ZM321.86 237.323C321.945 239.015 320.591 239.354 320.676 236.985C320.676 234.446 322.537 232.077 321.522 228.27C320.845 226.408 320.845 222.939 321.184 221.162C321.522 219.385 322.876 220.485 322.283 221.924C321.776 223.616 322.368 226.662 322.791 228.27C324.06 232.839 321.776 235.038 321.945 237.323H321.86ZM318.222 228.016C318.391 229.623 319.745 229.708 319.322 227.593C318.984 225.957 318.984 224.462 319.322 223.108C319.83 221.332 319.661 218.286 319.322 217.016C318.899 215.663 317.63 216.424 318.138 217.439C318.723 219.04 318.811 220.78 318.391 222.431C317.884 224.124 317.968 226.493 318.222 228.1V228.016ZM331.421 259.406C330.745 260.168 329.729 259.66 330.575 258.56C331.421 257.714 331.168 257.545 331.675 256.53C332.183 255.345 332.098 254.753 332.691 253.991C333.283 253.145 334.044 253.991 333.537 254.584C332.86 255.43 333.029 255.937 332.691 256.699C331.845 257.968 332.098 258.645 331.421 259.406ZM314.161 280.221C313.144 280.814 312.279 281.634 311.633 282.618C310.988 283.601 310.578 284.721 310.438 285.89C310.349 287.997 309.77 290.054 308.746 291.897C310.438 291.474 311.284 288.766 311.538 286.144C311.792 283.436 313.23 282.336 314.076 280.221H314.161ZM309.846 285.213C308.407 287.836 306.461 288.851 306.292 290.797C306.123 293.082 305.954 293.166 305.361 295.366C307.054 294.943 307.477 294.774 307.9 291.389C308.153 289.02 310.1 287.413 309.846 285.213Z" fill="white" stroke="#BD6B00" stroke-width="0.423055"/>
<path fill-rule="evenodd" clip-rule="evenodd" d="M265.34 309.581C264.494 311.104 263.648 313.388 261.955 312.965C261.955 311.865 263.732 311.019 265.34 309.581ZM262.801 310.088C259.671 311.442 256.879 311.104 256.456 313.134C259.502 313.473 260.686 312.288 262.886 310.088H262.801ZM276.424 299.343C274.321 300.977 272.831 303.272 272.193 305.858C271.511 308.197 270.485 310.421 269.147 312.457C271.348 310.979 272.94 308.756 273.632 306.196C274.224 303.658 274.985 301.712 276.424 299.427V299.343ZM273.801 299.343C271.432 301.204 269.232 303.404 268.555 306.027C267.878 308.481 267.455 310.342 265.847 312.796C268.386 311.188 269.317 308.819 270.078 306.196C270.67 303.658 272.193 301.796 273.801 299.427V299.343ZM266.017 305.519C266.069 305.306 266.036 305.081 265.926 304.892C265.815 304.703 265.635 304.564 265.424 304.504L263.225 303.827C262.378 303.573 261.871 304.166 261.871 304.589V306.281C261.871 306.789 262.068 307.042 262.463 307.042C263.14 307.042 263.817 307.24 264.494 307.635C265.058 307.917 265.481 307.776 265.763 307.212L266.017 305.519ZM257.048 305.519C257.048 304.955 257.217 304.617 257.556 304.504C258.194 304.226 258.892 304.109 259.586 304.166C260.32 304.166 260.63 304.335 260.517 304.673V306.45C260.517 307.127 260.517 307.127 260.179 307.296C259.445 307.24 258.74 307.409 258.063 307.804C257.556 308.03 257.245 307.86 257.133 307.296L257.048 305.519Z" fill="white"/>
<path fill-rule="evenodd" clip-rule="evenodd" d="M280.148 329.295C280.092 330.311 280.374 331.185 280.994 331.918C277.123 330.749 272.954 331.081 269.318 332.849C267.795 333.526 265.933 332.003 267.71 330.564C270.248 328.618 275.917 329.718 280.148 329.295ZM231.497 329.295C231.57 330.156 231.455 331.022 231.158 331.834C234.881 330.395 238.858 331.664 242.665 333.187C245.204 334.287 245.457 332.341 245.034 331.749C244.545 331.062 243.914 330.488 243.184 330.065C242.455 329.642 241.643 329.379 240.804 329.295H231.497ZM234.712 310.935C233.584 310.54 232.456 310.935 231.327 312.119C227.689 315.673 223.374 319.142 219.905 321.934C218.636 323.034 217.367 325.065 222.782 327.011C223.036 327.18 227.012 328.703 229.551 328.703C230.651 328.703 230.651 330.226 230.397 330.649C229.974 331.495 230.312 331.834 229.466 332.595C228.535 333.441 229.466 334.372 230.312 333.695C233.358 330.987 238.435 332.764 243.258 334.287C244.442 334.626 246.473 334.541 246.473 332.934C246.473 331.326 247.742 330.057 248.503 329.972C250.534 330.311 260.349 330.395 263.31 330.057C265.003 329.803 265.172 332.51 266.102 333.441C266.779 334.203 269.233 334.372 271.01 333.61C274.394 332.087 279.471 332.087 281.586 333.61C282.432 334.203 283.194 333.61 282.686 333.018C282.009 332.172 282.094 331.664 281.756 330.987C280.909 329.295 281.586 328.957 282.432 328.872C291.74 327.603 294.786 324.472 291.909 321.849C288.186 318.634 284.125 315.334 280.571 311.527C279.556 310.512 278.879 310.089 276.933 310.935C270.191 313.979 262.919 315.675 255.526 315.927C248.363 315.464 241.327 313.805 234.712 311.019V310.935Z" fill="white"/>
<path fill-rule="evenodd" clip-rule="evenodd" d="M278.54 311.442L277.186 311.781C269.571 314.488 262.633 316.35 255.441 316.35C248.419 316.35 241.058 314.319 234.373 311.612C233.966 311.447 233.511 311.447 233.104 311.612C232.653 311.724 232.286 311.922 232.004 312.204C228.876 315.33 225.541 318.242 222.02 320.919C221.428 321.342 221.512 322.442 222.443 322.78C229.466 325.319 236.319 329.972 255.949 329.803C275.833 329.634 282.855 325.065 289.117 322.949C289.568 322.78 289.935 322.498 290.217 322.103L290.301 321.426L289.794 320.75C286.155 317.788 282.348 315.419 279.809 311.95C279.527 311.555 279.104 311.414 278.54 311.527V311.442ZM278.54 311.865C279.048 311.865 279.358 311.95 279.471 312.119C282.009 315.758 285.986 318.042 289.54 321.003L289.878 321.596V321.934C289.709 322.216 289.427 322.414 289.032 322.526C282.602 324.726 275.748 329.295 256.034 329.465C236.404 329.634 229.635 324.98 222.612 322.442C221.935 322.103 222.02 321.426 222.274 321.257C225.884 318.493 229.212 315.56 232.258 312.458L233.189 311.95H234.204C240.891 314.855 248.069 316.463 255.357 316.688C262.718 316.688 269.741 314.827 277.356 312.204L278.625 311.865H278.54Z" fill="#BD6B00"/>
<path fill-rule="evenodd" clip-rule="evenodd" d="M230.397 183.764C230.397 182.58 232.089 182.495 231.92 184.103C231.666 186.049 235.727 191.126 236.066 194.256C236.32 196.371 234.797 198.148 233.358 199.333C232.515 199.888 231.544 200.218 230.537 200.292C229.53 200.366 228.52 200.182 227.605 199.756C226.843 199.079 226.166 196.964 226.759 196.118C226.928 195.864 227.859 199.248 229.889 199.248C232.682 199.248 234.966 197.133 234.966 195.272C235.135 192.056 230.482 186.98 230.397 183.764ZM238.435 191.718C238.943 191.379 239.62 192.818 239.112 193.156C238.604 193.495 237.843 192.056 238.435 191.633V191.718ZM239.704 188.756C239.45 188.926 239.027 188.756 239.112 188.587C239.925 187.458 240.962 186.507 242.158 185.795C242.496 185.626 243.004 186.134 242.835 186.387C241.972 187.391 240.904 188.198 239.704 188.756ZM250.365 180.295C250.619 179.788 252.142 179.195 252.565 178.857C252.904 178.434 253.073 179.195 252.904 179.449C252.65 180.042 251.296 180.888 250.704 180.972C250.365 180.916 250.252 180.718 250.365 180.38V180.295ZM254.003 180.549C254.438 179.418 255.169 178.425 256.119 177.672C256.542 177.419 257.219 177.672 257.049 178.011C256.475 179.13 255.632 180.089 254.596 180.803C254.342 181.057 253.919 180.803 254.003 180.549ZM250.873 182.834C250.704 183.116 250.732 183.341 250.957 183.511C251.522 183.68 252.086 183.68 252.65 183.511C253.157 183.172 252.904 181.057 252.227 182.157C251.719 182.834 251.381 182.665 250.873 182.834ZM244.696 187.572C243.596 186.726 245.035 185.541 246.135 186.387C248.419 188.08 242.75 194.679 239.704 197.725C239.112 198.318 238.604 196.879 239.366 196.118C241.566 194.269 243.477 192.102 245.035 189.687C245.373 189.264 245.627 188.333 244.696 187.572ZM257.642 181.988C257.726 181.142 256.288 181.988 256.288 180.888C256.288 180.295 257.896 179.872 258.572 180.549C259.672 181.734 258.826 183.68 256.88 183.849C255.357 183.849 252.65 186.134 253.073 186.557C253.496 187.149 257.642 187.487 260.095 187.149C261.618 186.895 261.28 188.249 259.757 188.418C258.234 188.587 257.049 188.418 255.696 188.926C254.003 189.349 253.327 191.464 252.396 192.31C252.227 192.479 251.719 191.633 251.888 191.295C252.565 190.279 253.58 188.756 254.765 188.249C255.442 187.995 252.734 187.91 251.888 187.657C251.211 187.487 251.381 186.557 251.634 186.049C251.973 185.372 254.511 182.749 255.611 182.834C256.542 182.834 257.557 182.58 257.642 181.988ZM261.872 182.157L263.141 180.634C263.395 180.38 263.903 180.634 263.818 181.311C263.734 181.903 262.972 182.326 262.549 182.749C262.126 183.003 261.703 182.411 261.957 182.157H261.872ZM267.372 180.211C268.134 180.211 268.218 181.565 267.541 181.734C267.034 181.903 266.695 180.295 267.372 180.211ZM265.595 184.441C265.595 185.71 266.187 185.626 267.287 185.541C268.387 185.457 269.318 185.541 269.318 184.526C269.318 183.426 268.726 182.411 268.472 183.172C268.387 183.849 268.218 185.034 267.795 184.526C267.457 184.103 267.626 184.018 266.949 184.695C266.526 185.118 266.526 184.526 266.272 184.187C266.103 183.934 265.595 184.357 265.595 184.526V184.441ZM257.811 190.533C257.557 192.141 257.811 194.341 258.572 194.341C259.588 194.341 261.618 190.956 262.634 189.095C263.226 188.08 264.157 187.91 263.734 189.01C263.141 190.618 263.226 194.087 263.734 195.102C264.072 195.61 266.272 194.595 266.611 193.833C267.287 192.395 266.695 189.772 266.949 188.164C267.034 187.149 268.049 186.895 267.964 187.91L267.88 194.256C267.88 195.102 270.333 196.287 270.672 193.749C270.841 192.226 271.687 190.618 270.672 188.926C269.995 187.826 271.603 187.91 272.449 189.433C273.041 190.449 271.941 192.141 272.026 193.41C272.026 195.441 270.503 196.625 269.403 196.625C268.387 196.625 267.71 195.356 266.864 195.356C266.018 195.356 265.003 196.795 264.326 196.71C261.28 196.541 262.888 192.226 261.957 192.141C260.942 192.141 259.842 196.371 258.572 196.287C257.388 196.118 256.034 192.733 256.626 191.379C257.049 190.026 257.896 189.687 257.811 190.533ZM272.11 183.764C270.672 182.918 272.11 180.634 272.872 181.395C274.226 183.088 275.579 186.895 276.595 187.233C277.187 187.403 277.102 184.357 277.525 183.003C277.864 181.903 279.048 182.241 278.879 183.595C278.795 184.018 277.187 189.01 277.356 189.18C278.484 191.291 279.418 193.5 280.148 195.779C280.402 196.795 279.218 196.118 279.048 195.948C278.287 194.764 277.018 190.449 277.018 190.703L275.579 197.218C275.41 198.064 274.141 197.894 274.479 196.371C274.733 195.187 276.425 189.349 276.341 189.095C275.377 187.005 273.926 185.177 272.11 183.764Z" fill="white"/>
<path fill-rule="evenodd" clip-rule="evenodd" d="M274.649 197.81C274.311 197.81 273.634 198.656 275.664 199.079C278.287 199.586 281.249 198.656 282.095 196.033C283.195 192.902 283.787 189.941 284.379 188.841C285.056 187.572 285.902 187.656 285.225 185.795C284.802 184.356 283.956 184.78 283.787 185.541C283.364 187.487 281.587 194.002 280.995 195.102C279.98 197.246 277.864 198.148 274.649 197.81Z" fill="white"/>
<path fill-rule="evenodd" clip-rule="evenodd" d="M280.064 187.488C279.726 186.895 279.049 187.488 279.218 188.08C279.216 188.207 279.242 188.333 279.294 188.448C279.347 188.564 279.425 188.666 279.522 188.747C279.62 188.828 279.734 188.887 279.858 188.918C279.981 188.949 280.109 188.952 280.233 188.926C280.826 188.926 282.095 189.011 282.095 188.08C282.095 187.403 281.503 186.811 281.164 187.572C280.713 188.193 280.346 188.193 280.064 187.572V187.488ZM280.657 184.949C280.487 185.119 280.657 185.88 280.91 185.796C281.883 185.802 282.841 185.57 283.703 185.119C283.872 184.949 283.787 184.526 283.533 184.526C282.687 184.526 281.333 184.526 280.657 184.949ZM288.102 186.895C288.779 185.88 290.471 185.796 289.794 187.234L284.464 197.641C283.787 198.826 283.279 198.233 283.787 197.303C284.379 196.118 287.933 187.149 288.102 186.895Z" fill="white"/>
<path fill-rule="evenodd" clip-rule="evenodd" d="M281.586 199.333C281.417 198.656 280.317 197.641 280.486 199.502C280.656 202.717 285.14 201.702 286.409 200.602C287.678 199.502 286.663 204.24 288.271 204.748C289.117 205.002 290.809 203.817 291.655 202.717C293.94 199.756 295.463 195.441 297.578 192.564C298.424 191.38 297.155 190.533 296.732 191.464C294.701 194.679 292.332 201.279 289.709 202.971C287.594 204.325 288.271 201.279 288.186 200.264C288.101 199.587 287.255 198.571 286.155 199.502C285.254 200.179 284.152 200.536 283.025 200.518C282.432 200.518 281.84 200.518 281.586 199.333Z" fill="white"/>
<path fill-rule="evenodd" clip-rule="evenodd" d="M289.54 193.41C289.54 193.156 288.609 193.071 288.694 194.002C288.694 194.679 289.54 194.848 289.625 194.848C290.894 193.833 289.371 194.34 289.54 193.325V193.41ZM287.594 197.133C287.34 197.133 287.086 197.979 287.763 198.063L291.063 197.894C291.402 197.894 291.571 197.133 290.725 197.217C289.709 197.217 288.44 196.963 287.594 197.217V197.133ZM235.135 183.087C235.558 183.087 236.489 184.272 236.404 184.695C236.404 184.864 235.389 184.695 235.135 184.441C234.881 184.187 234.966 183.087 235.135 183.087ZM230.651 191.887C229.805 192.394 230.82 193.325 231.497 192.902C233.866 191.294 237.42 189.687 238.266 186.556C238.52 185.541 239.45 183.933 240.381 183.595C241.227 183.172 242.581 185.202 243.427 183.595C243.935 182.749 245.712 184.187 246.135 183.256C246.642 182.156 246.388 181.564 246.388 180.38C246.388 179.703 245.796 179.534 245.373 180.633L245.289 181.987C245.063 182.213 244.781 182.269 244.442 182.156C244.273 181.987 244.442 181.564 243.935 181.31C243.709 181.254 243.483 181.31 243.258 181.48C242.666 182.58 242.412 183.595 241.481 182.326C240.72 181.48 240.296 179.703 239.789 182.072C239.62 182.918 238.35 184.103 237.589 184.103C236.658 184.103 236.912 181.564 234.881 181.987C233.781 182.241 233.866 184.272 234.035 184.949C234.289 186.049 237.42 185.287 237.166 185.964C236.658 188.248 233.443 190.533 230.651 191.887ZM211.444 203.055C211.36 203.478 211.867 204.494 212.375 204.578C212.883 204.578 213.221 203.478 213.052 203.055C212.883 202.802 211.529 202.802 211.444 203.055ZM214.236 207.201C213.898 206.863 212.883 207.794 213.729 208.47C214.152 208.894 215.844 209.401 216.267 208.64C216.944 207.624 215.675 203.986 216.267 203.563C216.69 203.14 218.636 205.932 219.651 206.101C221.936 206.44 221.344 202.209 223.882 202.548C225.49 202.717 225.659 200.686 225.405 199.332C225.236 198.063 223.205 196.286 222.274 195.44C221.09 194.425 220.497 196.286 221.259 196.794C222.274 197.64 224.051 199.248 224.305 200.263C224.39 200.771 223.12 201.786 222.613 201.532C221.428 200.855 220.413 198.148 219.398 197.556C219.059 197.386 218.213 197.809 218.551 198.656C219.059 199.586 221.09 200.94 221.174 201.955C221.259 202.802 220.328 204.663 219.651 204.663C218.975 204.663 217.113 202.378 216.521 201.279C216.182 200.855 215.252 200.855 215.082 201.617C215.027 203.18 215.17 204.743 215.505 206.271C215.675 207.624 214.744 207.709 214.236 207.201ZM210.852 199.925C210.513 200.263 211.529 200.94 211.698 200.771C212.036 200.432 213.475 198.825 213.221 198.233C212.967 197.725 211.021 196.54 210.683 197.133C210.09 198.063 212.544 198.571 212.121 198.825L210.852 199.925ZM214.321 192.817C214.321 192.817 214.998 194.933 215.505 194.002C215.844 193.41 214.321 192.817 214.321 192.817ZM215.336 196.202C215.167 196.202 214.49 196.794 214.913 197.048C215.59 197.386 217.367 197.725 216.944 196.456C216.69 195.694 219.651 196.456 218.89 194.425C218.569 193.809 218.067 193.307 217.451 192.987C217.113 192.987 216.182 193.41 216.775 193.748C217.198 193.917 218.467 194.679 218.044 195.187C217.452 195.694 217.113 194.933 216.436 195.102C216.098 195.102 216.352 196.117 216.098 196.371C216.098 196.54 215.505 196.033 215.336 196.117V196.202ZM219.99 188.164C219.491 188.615 219.137 189.204 218.975 189.856C219.031 190.138 219.172 190.279 219.398 190.279C219.932 189.895 220.296 189.319 220.413 188.671C220.413 188.418 220.244 187.995 219.99 188.164ZM222.359 187.91C221.682 187.064 223.205 185.71 223.797 187.487C224.22 188.587 228.451 194.171 229.297 196.033C229.974 197.302 229.297 197.809 228.536 196.879C226.42 194.171 224.643 190.787 222.359 187.91ZM226.759 187.995C227.52 187.148 229.043 185.456 228.62 184.61C228.197 183.764 227.351 183.764 227.182 184.018C226.336 185.118 227.859 184.864 227.605 185.202C227.154 185.936 226.787 186.669 226.505 187.402C226.42 187.656 226.589 188.164 226.759 187.995ZM292.586 190.702C291.994 190.279 293.094 188.164 293.855 189.01C295.801 191.294 296.732 198.825 297.324 204.494C297.324 204.494 296.478 205.255 296.478 205.086C296.478 202.125 295.209 192.902 292.586 190.702ZM247.658 183.426C246.981 181.903 248.588 181.395 248.842 182.41C249.942 187.318 252.65 191.041 254.765 194.34C255.357 195.356 254.765 196.033 253.327 195.017C252.311 194.34 251.211 191.717 250.788 191.633C249.773 191.464 247.573 195.863 243.089 194.594C241.904 194.256 241.989 190.787 241.904 189.264C241.904 188.502 242.75 188.418 242.75 189.264C242.75 190.702 242.75 193.664 244.527 193.833C246.05 193.833 249.265 191.802 249.942 190.11C250.619 188.418 248.335 185.118 247.658 183.341V183.426Z" fill="white"/>
<path fill-rule="evenodd" clip-rule="evenodd" d="M293.77 203.902C294.108 202.886 298.931 194.764 299.608 192.987C299.946 192.141 301.3 194.51 299.946 195.779C298.762 196.795 295.293 202.548 294.616 204.579C294.277 205.425 293.431 205.002 293.77 203.902Z" fill="white"/>
<path fill-rule="evenodd" clip-rule="evenodd" d="M301.978 196.202C302.824 192.818 305.024 196.71 303.078 198.571C300.201 201.448 299.271 206.948 294.617 207.794C293.432 208.048 291.232 207.202 290.556 206.694C290.302 206.525 290.725 205.34 291.486 205.933C292.586 206.779 294.955 207.032 296.225 206.017C299.003 203.332 300.993 199.938 301.978 196.202ZM253.75 206.948C253.496 207.202 252.904 207.202 252.819 207.54C252.565 208.725 252.819 209.402 252.565 210.586C252.311 211.771 251.465 211.771 251.55 210.84C251.55 209.655 252.65 207.879 251.888 207.794C251.381 207.709 251.042 207.032 251.55 206.694C252.396 206.186 253.073 206.074 253.581 206.356C253.863 206.525 253.919 206.722 253.75 206.948Z" fill="white"/>
<path fill-rule="evenodd" clip-rule="evenodd" d="M253.074 205.256C251.889 206.44 250.705 206.863 249.605 208.217C249.097 208.725 249.182 209.486 248.843 210.248C248.589 211.009 247.659 211.094 247.405 211.009C246.982 210.671 247.066 209.317 246.559 209.994C246.051 210.671 245.797 211.686 245.12 211.686C244.443 211.686 243.428 210.417 244.02 210.417C245.966 210.163 245.882 208.725 246.559 208.555C247.405 208.471 247.405 209.825 247.997 209.571C248.335 209.402 248.589 207.794 249.012 207.371C250.282 206.017 251.297 205.34 252.651 204.325C253.243 203.817 253.751 204.748 253.074 205.34V205.256ZM257.558 209.486C256.543 209.655 256.712 210.925 257.05 211.009C257.473 211.263 258.235 211.348 258.489 209.909C258.658 209.317 258.743 212.871 260.012 211.517C260.858 210.671 262.635 211.686 263.396 210.671C263.988 209.909 264.242 209.402 263.735 208.386C263.565 208.132 262.889 208.217 262.889 208.979C262.889 209.74 262.465 210.417 261.789 210.332C261.45 210.248 261.958 208.725 261.619 208.302H261.027C260.773 208.64 261.281 210.163 260.519 210.332C259.504 210.502 260.012 209.317 259.673 209.148C258.235 208.471 258.15 209.317 257.558 209.402V209.486ZM265.173 206.948C265.935 206.779 265.681 206.779 266.865 205.848C267.288 205.509 267.373 206.525 267.288 206.948C267.288 207.54 266.442 207.117 266.188 207.709C265.85 208.471 266.019 210.248 265.85 210.925C265.85 211.263 265.173 211.263 265.173 210.925C265.004 210.078 265.258 209.232 265.173 208.132C265.173 207.794 264.75 207.202 265.173 207.032V206.948ZM260.942 204.833L260.773 206.779C260.773 207.202 261.619 206.948 261.619 206.863C261.619 206.186 261.789 205.171 261.619 204.917C261.337 204.748 261.112 204.72 260.942 204.833Z" fill="white"/>
<path fill-rule="evenodd" clip-rule="evenodd" d="M255.612 196.964L254.427 201.702L252.735 198.487V201.787L249.012 197.387L250.281 202.125L246.897 199.248L248.758 202.464L242.836 198.656L246.559 203.056L241.82 200.687L245.205 203.564L237.59 200.687L244.951 204.325C248.295 202.803 251.938 202.051 255.612 202.125C259.843 202.182 263.368 202.915 266.188 204.325L273.634 200.687L266.019 203.564L269.404 200.687L264.75 203.056L268.388 198.656L262.465 202.464L264.327 199.248L260.942 202.041L262.212 197.387L258.573 201.787V198.487L256.881 201.702L255.612 196.964Z" fill="white"/>
<path d="M249.001 299.7L248.901 301.9H248.501V300.4L248.101 299.1L247.601 298.1L246.801 297L247.501 295.2C248.017 295.773 248.393 296.458 248.601 297.2C248.9 298.001 249.069 298.845 249.101 299.7M254.601 296.3C254.601 296.9 254.501 297.3 254.301 297.5C254.101 297.767 253.767 297.967 253.301 298.1L253.501 299.2V301.9H253.101V300.9L252.901 300.1L252.601 299.3L252.001 298.1L251.201 296.8L251.701 295.2L252.501 296.1L253.201 296.3C253.867 296.3 254.201 295.967 254.201 295.3H254.501V296.3M259.601 300.2L259.201 301.9L258.601 301.3L258.301 300.3V298.9L257.401 299C257.001 299 256.667 298.9 256.401 298.7C256.277 298.607 256.176 298.486 256.106 298.347C256.037 298.209 256.001 298.055 256.001 297.9C256.001 297.234 256.201 296.634 256.601 296.1C256.867 295.5 257.267 295.2 257.801 295.2C258.134 295.2 258.367 295.3 258.501 295.5L258.801 296.3V297.9C258.801 298.567 258.867 299.034 259.001 299.3C259.001 299.567 259.201 299.867 259.601 300.2ZM258.101 297.3C258.101 296.9 257.867 296.7 257.401 296.7L257.001 296.8L256.801 297.1C256.801 297.3 257.067 297.4 257.601 297.4L258.101 297.3ZM265.001 299.6L264.801 301.7C264.401 301.367 264.034 300.867 263.701 300.2L262.601 296.9L261.801 299.9L261.201 301.2L260.601 301.8V299.8L261.401 298.6L262.001 297.2L262.301 295.2H262.701L263.401 297.2C263.762 298.103 264.307 298.92 265.001 299.6Z" fill="white"/>
<path d="M280.5 319.2C280.833 319.467 281.033 319.8 281.1 320.2L281.3 321.4H280.7L280 320.3L279 319.3L277.7 318.1L276.1 316.8L275.6 316.4L275.4 315.8L275.3 314.5L277.4 316.2L279.4 318L280.5 319.2ZM272.9 314.6L272.8 316.2L270.3 316.1L270.5 314.5H272.9M279.6 321.6L273.6 323.5L272.4 321.9L277.6 320.4L277.1 319.7L276.4 319.2L276 320L275.2 320.5H273.8C273.333 320.5 273 320.3 272.8 319.9C272.466 319.397 272.291 318.804 272.3 318.2C272.3 317.4 272.5 316.9 272.9 316.7C273.5 316.5 274.333 316.667 275.4 317.2C276.34 317.677 277.16 318.361 277.8 319.2L279.6 321.6ZM274.9 318.4L274.3 318.2H273.8L273.4 318.5V318.9L273.8 319.1H274.3L274.6 318.8L274.9 318.4ZM268.5 317.2L268.1 318.8L265.6 318.5L266 317L268.5 317.2ZM274.5 323.2L273.1 323.6H271.7L270.5 323.3C270.3 323.7 269.933 324.033 269.4 324.3L268.1 324.7L267.1 325L266.3 323.4L267.3 323.2L268.3 322.9L268.9 322.5L268.2 322.1L267.6 322H267.4V322.3H266.9C266.5 321.633 266.4 321.1 266.6 320.7C266.866 320.3 267.4 320 268.2 319.8C269 319.6 269.7 319.6 270.3 319.8C270.9 319.8 271.3 320 271.5 320.4C271.633 320.6 271.666 320.8 271.6 321L271.3 322H272.3L273.6 321.7L274.5 323.2ZM268.1 324.7L266.8 324.9C266.133 324.967 265.533 324.833 265 324.5C264.373 323.981 263.919 323.283 263.7 322.5L263.1 320.8L262.5 319.8L261.7 319.5L262.2 317.8L263.3 318.7L264.1 320L264.5 321.2L265.5 322.9C265.7 323.167 265.933 323.267 266.2 323.2L267.5 323L268.1 324.7ZM262.6 318.7L261.7 320.2L259.4 319.6L260.2 318.1L262.6 318.7ZM264 325.4L258 325.9L257.7 324.3L262.7 323.8L262.1 323.1L261.3 322.6L261.8 321.1C262.333 321.367 262.733 321.7 263 322.1C263.266 322.5 263.466 323.067 263.6 323.8L264 325.4ZM259.2 326.2L257.4 326L256.1 325.6L255.1 325.9H252.1C251.633 325.9 251.3 325.833 251.1 325.7L250.5 324.9L249.2 325.6L247.9 325.8H246.5L246.7 324L248 324.1C248.666 324.1 249.233 324 249.7 323.8C250.366 323.467 250.7 323 250.7 322.4H251.3L251.2 323.4C251.2 323.667 251.3 323.867 251.5 324L252.2 324.2H255.1C255.5 324 255.733 323.667 255.8 323.2L255.9 322.9L256.3 322.7L256.7 322.6V323.2L256.4 324L258.1 324.4L257.9 323.9L257.7 323.4L257.8 323.2L258.1 323L258.9 322.3L259.2 323V323.8L259.1 326.2M250.1 319.2L248.6 320.2L247.5 319.6L246.4 320.4L244.9 319.5L246.3 318.5L247.5 319.2L248.6 318.3L250.1 319.2ZM247.7 325.6L241.9 324.6L242.6 323L247.4 323.8V323L246.9 322.4L248.2 321.1C248.533 321.5 248.7 321.9 248.7 322.3C248.766 322.7 248.633 323.267 248.3 324L247.7 325.6ZM242.8 324.8L241.6 324.5C240.933 324.433 240.533 324.133 240.4 323.6C240.266 323.133 240.5 322.4 241.1 321.4L242.1 319.7L242.3 318.8L242 318.2L243.8 317L244 318.1C244 318.5 243.8 318.967 243.4 319.5L242.8 320.7C242.437 321.205 242.198 321.787 242.1 322.4C242.1 322.733 242.233 322.9 242.5 322.9L243.7 323.2L242.8 324.8ZM239.8 318.5L237.8 319.4L236.4 318L238.4 317.2L239.8 318.5ZM238.9 323.8L237.7 324.9C237.3 325.167 236.833 325.333 236.3 325.4H234.4L232.2 324.8C231.174 324.516 230.242 323.963 229.5 323.2C228.966 322.6 228.966 322 229.5 321.4L231 320.1L234 318.9L234.4 319.3C233.333 319.7 232.6 320.033 232.2 320.3L231.2 321C230.866 321.4 230.9 321.833 231.3 322.3C232.712 323.452 234.477 324.087 236.3 324.1C237.3 324.1 237.933 323.9 238.2 323.5L238.6 322.8L238.7 321.4L240.7 320.2L240.6 321.4C240.466 321.8 240.2 322.233 239.8 322.7L238.9 323.8Z" fill="#BF0000"/>
</g>
<defs>
<clipPath id="clip0_3921_23413">
<rect width="512" height="512" fill="white"/>
</clipPath>
</defs>
</svg>
