<svg width="512" height="512" viewBox="0 0 512 512" fill="none" xmlns="http://www.w3.org/2000/svg">
<g clip-path="url(#clip0_3921_12024)">
<path d="M0 0H512V512H0V0Z" fill="#0039A6"/>
<path d="M256 409.6C340.831 409.6 409.6 340.831 409.6 256C409.6 171.169 340.831 102.4 256 102.4C171.169 102.4 102.4 171.169 102.4 256C102.4 340.831 171.169 409.6 256 409.6Z" fill="white"/>
<path d="M256 402.4C336.854 402.4 402.4 336.855 402.4 256C402.4 175.146 336.854 109.6 256 109.6C175.145 109.6 109.6 175.146 109.6 256C109.6 336.855 175.145 402.4 256 402.4Z" fill="#ED2939"/>
<path d="M216.599 256C190.999 240.6 179.199 210 179.199 179.2H190.999V180.2C190.999 190.5 192.499 227.8 220.699 256C201.725 276.699 191.138 303.721 190.999 331.8V332.8H179.199C179.199 302.1 191.499 271.4 216.599 256Z" fill="#F9E300"/>
<path d="M194.601 180.2V179.2H206.801V180.7C206.801 191 208.901 226.8 228.801 256C208.401 285.2 206.801 321 206.801 331.3V332.8H194.601V331.8C194.601 321.5 197.101 284.2 224.301 256C205.327 235.301 194.739 208.279 194.601 180.2Z" fill="#F9E300"/>
<path d="M233.5 256L232.5 255C218.362 232.8 210.867 207.02 210.9 180.7V179.2H222.2V181.2C222.2 192 223.7 226.3 237.6 256C227.586 279.675 222.353 305.095 222.2 330.8V332.8H211V331.3C211 321 212 288.8 232.5 257" fill="#F9E300"/>
<path d="M241.701 256C231.261 231.756 226.015 205.594 226.301 179.2H238.101V182.8C238.101 195.6 239.101 226.8 245.801 256C240.726 280.071 238.146 304.6 238.101 329.2V332.8H226.801V330.8C226.801 320 227.801 284.7 241.201 256.5" fill="#F9E300"/>
<path d="M249.9 256C244.958 231.917 242.544 207.384 242.7 182.8V179.2H254V332.8H242.7V329.2C242.7 316.9 242.7 285.2 249.9 256.5" fill="#F9E300"/>
<path d="M295.401 256C321.001 240.6 332.801 210 332.801 179.2H321.001V180.2C321.001 190.5 319.501 227.8 291.301 256C310.275 276.699 320.862 303.721 321.001 331.8V332.8H332.801C332.801 302.1 320.501 271.4 295.401 256Z" fill="#F9E300"/>
<path d="M317.399 180.2V179.2H305.199V180.7C305.199 191 303.099 226.8 283.199 256C303.599 285.2 305.199 321 305.199 331.3V332.8H317.399V331.8C317.399 321.5 314.899 284.2 287.699 256C306.673 235.301 317.261 208.279 317.399 180.2Z" fill="#F9E300"/>
<path d="M278.5 256L279.5 255C293.638 232.8 301.133 207.02 301.1 180.7V179.2H289.8V181.2C289.8 192 288.3 226.3 274.4 256C284.414 279.675 289.647 305.095 289.8 330.8V332.8H301V331.3C301 321 300 288.8 279.5 257" fill="#F9E300"/>
<path d="M270.299 256C280.739 231.756 285.985 205.594 285.699 179.2H273.899V182.8C273.899 195.6 272.899 226.8 266.199 256C271.274 280.071 273.854 304.6 273.899 329.2V332.8H285.199V330.8C285.199 320 284.199 284.7 270.799 256.5" fill="#F9E300"/>
<path d="M262.1 256C267.042 231.917 269.456 207.384 269.3 182.8V179.2H258V332.8H269.3V329.2C269.3 316.9 269.3 285.2 262.1 256.5" fill="#F9E300"/>
</g>
<defs>
<clipPath id="clip0_3921_12024">
<rect width="512" height="512" fill="white"/>
</clipPath>
</defs>
</svg>
