<svg width="512" height="512" viewBox="0 0 512 512" fill="none" xmlns="http://www.w3.org/2000/svg">
<g clip-path="url(#clip0_3921_12050)">
<mask id="mask0_3921_12050" style="mask-type:luminance" maskUnits="userSpaceOnUse" x="0" y="0" width="512" height="512">
<path d="M0 0H512V512H0V0Z" fill="white"/>
</mask>
<g mask="url(#mask0_3921_12050)">
<path d="M0 0V512H768V0H0Z" fill="#3399CC"/>
<path d="M0 341.3V369.8H768V341.3H0ZM0 398.3V426.7H768V398.2H0V398.3Z" fill="#FFFF00"/>
<path d="M121.999 28L124.399 30.5L122.099 28.1L121.999 28ZM124.399 32.8L126.799 35.2L124.499 32.8H124.399Z" fill="#99CCCC"/>
<path d="M124.399 35.2L126.799 37.5999L124.499 35.2H124.399Z" fill="#CCCCFF"/>
<path d="M122 40L124.4 42.3L122.1 40H122Z" fill="#CC6666"/>
<path d="M124.399 44.7L126.799 47.0999L124.499 44.7H124.399Z" fill="#FFCCCC"/>
<path d="M115 47.1001L117.3 49.5001L114.9 47.1001H115Z" fill="#66CCCC"/>
<path d="M121.7 32.8999L105 96.1999L41.5 113.4L104.8 129.9L121.7 193.2L138.6 129.9L201.8 113L138.5 96.1999L121.7 32.8999Z" fill="#CC0000" stroke="white" stroke-width="3"/>
<path d="M115 49.5L117.3 51.9L114.9 49.5" fill="#99CCFF"/>
<path d="M115 59L117.3 61.4L114.9 59" fill="#FFCCCC"/>
<path d="M107.801 70.9999L110.201 73.2999L107.801 70.8999V70.9999Z" fill="#99CCCC"/>
<path d="M136.301 70.9999L138.701 73.2999L136.401 70.8999L136.301 70.9999Z" fill="#99CCCC"/>
<path d="M105.4 78L107.8 80.4L105.4 78.1V78Z" fill="#99CCCC"/>
<path d="M138.699 78L141.099 80.4L138.699 78.1V78Z" fill="#99CCCC"/>
<path d="M95 100.3L96.7 101.1L95.1 100.3" fill="#CC3333"/>
<path d="M65.0004 104.2L67.3004 106.6L64.9004 104.2H65.0004Z" fill="#99CCFF"/>
<path d="M50.5996 109L52.9996 111.4L50.6996 109H50.5996Z" fill="#CCCCFF"/>
<path d="M50.5996 118.5L52.9996 121L50.6996 118.6L50.5996 118.5Z" fill="#CCCCFF"/>
<path d="M62.5 123.3L64.9 125.7L62.6 123.3H62.5Z" fill="#6699CC"/>
<path d="M65.0004 123.3L67.3004 125.7L64.9004 123.3H65.0004Z" fill="#99CCFF"/>
<path d="M80.8008 124L82.4008 124.9L80.8008 124.1" fill="#CC3333"/>
<path d="M95 128.8L96.7 129.6L95.1 128.8" fill="#CC3333"/>
<path d="M115 168.5L117.3 170.9L114.9 168.5" fill="#FFCCCC"/>
<path d="M115 178L117.3 180.4L114.9 178H115Z" fill="#99CCFF"/>
<path d="M115 180.4L117.3 182.8L114.9 180.4" fill="#66CCCC"/>
<path d="M124.399 182.8L126.799 185.2L124.499 182.8H124.399Z" fill="#FFCCCC"/>
<path d="M122 187.6L124.4 189.9L122.1 187.6H122Z" fill="#CC6666"/>
<path d="M124.399 192.3L126.799 194.7L124.499 192.3H124.399Z" fill="#CCCCFF"/>
<path d="M124.399 194.7L126.799 197.1L124.499 194.7" fill="#99CCCC"/>
</g>
</g>
<defs>
<clipPath id="clip0_3921_12050">
<rect width="512" height="512" fill="white"/>
</clipPath>
</defs>
</svg>
