<svg width="512" height="512" viewBox="0 0 512 512" fill="none" xmlns="http://www.w3.org/2000/svg">
<g clip-path="url(#clip0_3921_13262)">
<path d="M0 0H512V512H0V0Z" fill="#CE1720"/>
<mask id="mask0_3921_13262" style="mask-type:luminance" maskUnits="userSpaceOnUse" x="5" y="0" width="117" height="513">
<path d="M5 0H117.5V345.885H122V507.45L117.5 512.001H5V0Z" fill="white"/>
</mask>
<g mask="url(#mask0_3921_13262)">
<path d="M25.25 0V7.96446H20.1875V15.9289H14V25.0312H9.5V32.4267H0.5V13.6534H9.5V3.41334H0.5V0H25.25ZM39.875 43.8045V52.3379H35.375V59.1646H30.875V52.3379H26.375V43.8045H21.875V32.4267H26.375V23.8934H30.875V17.0667H35.375V23.8934H39.875V32.4267H44.375V43.8045H39.875ZM30.3125 43.2356H35.9375V32.9956H30.3125V43.2356ZM15.6875 104.107H20.1875V93.8668H15.6875V104.107ZM46.0625 104.107H50.5625V93.8668H46.0625V104.107ZM0.5 173.511H8.375V180.907H11.75V190.009H16.8125V198.543H23.5625V190.009H28.625V180.907H33.125V173.511H26.375V164.978H38.1875V170.667H45.5V180.338H51.6875V191.147H47.1875V199.111H43.25V206.507H39.875V214.472H34.8125V221.298H30.875V227.556H25.8125V235.52H18.5V226.987H13.4375V219.023H9.5V213.903H0.5V200.818H9.5V189.44H0.5V173.511Z" fill="white"/>
<path d="M97.25 0V7.96446H102.312V15.9289H108.5V25.0312H113V32.4267H122V13.6534H113V3.41334H122V0H97.25ZM82.625 43.8045V52.3379H87.125V59.1646H91.625V52.3379H96.125V43.8045H100.625V32.4267H96.125V23.8934H91.625V17.0667H87.125V23.8934H82.625V32.4267H78.125V43.8045H82.625ZM92.1875 43.2356H86.5625V32.9956H92.1875V43.2356ZM106.812 104.107H102.312V93.8668H106.812V104.107ZM76.4375 104.107H71.9375V93.8668H76.4375V104.107ZM122 173.511H114.125V180.907H110.75V190.009H105.688V198.543H98.9375V190.009H93.875V180.907H89.375V173.511H96.125V164.978H84.3125V170.667H77V180.338H70.8125V191.147H75.3125V199.111H79.25V206.507H82.625V214.472H87.6875V221.298H91.625V227.556H96.6875V235.52H104V226.987H109.062V219.023H113V213.903H122V200.818H113V189.44H122V173.511Z" fill="white"/>
<path d="M59 0V18.2045H63.5V0H81.5V7.96446H77V15.9289H70.25V25.0312H65.75V32.4267H56.75V25.0312H52.25V15.9289H45.5V7.96446H41V0H59ZM57.875 155.876V149.618H54.5V142.222H50.5625V134.258H46.0625V126.294H41.5625V120.605H36.5V112.64H29.75V120.605H24.6875V126.294H20.75V134.258H16.25V142.222H12.875V149.618H9.5V159.289H0.5V134.258H9.5V122.88H0.5V104.107H9.5V112.071H15.125V120.036H20.75V112.071H26.375V104.107H30.875V93.8668H26.375V85.9024H20.75V77.9379H15.125V85.9024H9.5V93.8668H0.5V70.5424H9.5V59.7334H0.5V43.8045H9.5V51.2001H14V60.3023H20.1875V67.6979H25.25V76.2313H29.1875V83.0579H37.0625V76.2313H41V67.6979H46.0625V60.3023H52.25V51.2001H56.75V43.8045H65.75V51.2001H70.25V60.3023H76.4375V67.6979H81.5V76.2313H85.4375V83.0579H93.3125V76.2313H97.25V67.6979H102.312V60.3023H108.5V51.2001H113V43.8045H122V59.7334H113V70.5424H122V93.8668H113V85.9024H107.375V77.9379H101.75V85.9024H96.125V93.8668H91.625V104.107H96.125V112.071H101.75V120.036H107.375V112.071H113V104.107H122V122.88H113V134.258H122V159.289H113V149.618H109.625V142.222H106.25V134.258H101.75V126.294H97.8125V120.605H92.75V112.64H86V120.605H80.9375V126.294H76.4375V134.258H71.9375V142.222H68V149.618H64.625V155.876H57.875ZM59 60.8712V76.2313H63.5V60.8712H59ZM56.75 93.8668V85.9024H51.125V77.9379H45.5V85.9024H39.875V93.8668H35.375V104.107H39.875V112.071H45.5V120.036H51.125V112.071H56.75V104.107H65.75V112.071H71.375V120.036H77V112.071H82.625V104.107H87.125V93.8668H82.625V85.9024H77V77.9379H71.375V85.9024H65.75V93.8668H56.75ZM59 120.036V135.396H63.5V120.036H59Z" fill="white"/>
<path d="M25.25 512.001V504.037H20.1875V496.072H14V486.97H9.5V479.574H0.5V498.348H9.5V508.588H0.5V512.001H25.25ZM39.875 468.196V459.663H35.375V452.836H30.875V459.663H26.375V468.196H21.875V479.574H26.375V488.108H30.875V494.934H35.375V488.108H39.875V479.574H44.375V468.196H39.875ZM30.3125 468.765H35.9375V479.005H30.3125V468.765ZM15.6875 407.894H20.1875V418.134H15.6875V407.894ZM46.0625 407.894H50.5625V418.134H46.0625V407.894ZM0.5 338.49H8.375V331.094H11.75V321.992H16.8125V313.458H23.5625V321.992H28.625V331.094H33.125V338.49H26.375V347.023H38.1875V341.334H45.5V331.663H51.6875V320.854H47.1875V312.889H43.25V305.494H39.875V297.529H34.8125V290.703H30.875V284.445H25.8125V276.481H18.5V285.014H13.4375V292.978H9.5V298.098H0.5V311.183H9.5V322.561H0.5V338.49Z" fill="white"/>
<path d="M97.25 512.001V504.037H102.312V496.072H108.5V486.97H113V479.574H122V498.348H113V508.588H122V512.001H97.25ZM82.625 468.196V459.663H87.125V452.836H91.625V459.663H96.125V468.196H100.625V479.574H96.125V488.108H91.625V494.934H87.125V488.108H82.625V479.574H78.125V468.196H82.625ZM92.1875 468.765H86.5625V479.005H92.1875V468.765ZM106.812 407.894H102.312V418.134H106.812V407.894ZM76.4375 407.894H71.9375V418.134H76.4375V407.894ZM122 338.49H114.125V331.094H110.75V321.992H105.688V313.458H98.9375V321.992H93.875V331.094H89.375V338.49H96.125V347.023H84.3125V341.334H77V331.663H70.8125V320.854H75.3125V312.889H79.25V305.494H82.625V297.529H87.6875V290.703H91.625V284.445H96.6875V276.481H104V285.014H109.062V292.978H113V298.098H122V311.183H113V322.561H122V338.49Z" fill="white"/>
<path d="M59 512.001V493.796H63.5V512.001H81.5V504.037H77V496.072H70.25V486.97H65.75V479.574H56.75V486.97H52.25V496.072H45.5V504.037H41V512.001H59ZM57.875 356.125V362.383H54.5V369.778H50.5625V377.743H46.0625V385.707H41.5625V391.396H36.5V399.361H29.75V391.396H24.6875V385.707H20.75V377.743H16.25V369.778H12.875V362.383H9.5V352.712H0.5V377.743H9.5V389.121H0.5V407.894H9.5V399.93H15.125V391.965H20.75V399.93H26.375V407.894H30.875V418.134H26.375V426.099H20.75V434.063H15.125V426.099H9.5V418.134H0.5V441.459H9.5V452.268H0.5V468.196H9.5V460.801H14V451.699H20.1875V444.303H25.25V435.77H29.1875V428.943H37.0625V435.77H41V444.303H46.0625V451.699H52.25V460.801H56.75V468.196H65.75V460.801H70.25V451.699H76.4375V444.303H81.5V435.77H85.4375V428.943H93.3125V435.77H97.25V444.303H102.312V451.699H108.5V460.801H113V468.196H122V452.268H113V441.459H122V418.134H113V426.099H107.375V434.063H101.75V426.099H96.125V418.134H91.625V407.894H96.125V399.93H101.75V391.965H107.375V399.93H113V407.894H122V389.121H113V377.743H122V352.712H113V362.383H109.625V369.778H106.25V377.743H101.75V385.707H97.8125V391.396H92.75V399.361H86V391.396H80.9375V385.707H76.4375V377.743H71.9375V369.778H68V362.383H64.625V356.125H57.875ZM59 451.13V435.77H63.5V451.13H59ZM56.75 418.134V426.099H51.125V434.063H45.5V426.099H39.875V418.134H35.375V407.894H39.875V399.93H45.5V391.965H51.125V399.93H56.75V407.894H65.75V399.93H71.375V391.965H77V399.93H82.625V407.894H87.125V418.134H82.625V426.099H77V434.063H71.375V426.099H65.75V418.134H56.75ZM59 391.965V376.605H63.5V391.965H59Z" fill="white"/>
<path d="M0.5 232.107H9.5V240.072H13.4375V244.623H17.9375V252.587H21.875V259.414H17.9375V267.378H13.4375V271.929H9.5V279.894H0.5V232.107ZM122 232.107V279.894H113V271.929H109.062V267.378H104.562V259.414H100.625V252.587H104.562V244.623H109.062V240.072H113V232.107H122ZM39.875 261.12H44.375V250.88H39.875V261.12ZM82.625 261.12V250.88H78.125V261.12H82.625ZM59 227.556H63.5V217.316H59V227.556ZM59 284.445V294.685H63.5V284.445H59ZM30.875 241.778H38.75V235.52H44.375V229.832H47.1875V224.143H50.5625V216.178H55.0625V208.214H57.3125V200.818H65.1875V208.214H67.4375V216.178H71.9375V224.143H75.3125V229.832H78.125V235.52H83.75V241.778H91.625V270.223H83.75V276.48H78.125V282.169H75.3125V287.858H71.9375V295.823H67.4375V303.787H65.1875V311.183H57.3125V303.787H55.0625V295.823H50.5625V287.858H47.1875V282.169H44.375V276.48H38.75V270.223H30.875V241.778ZM59 246.898V238.365H54.5V232.676H50V246.898H54.5V252.018H57.3125V259.983H54.5V265.103H50V279.325H54.5V273.636H59V265.103H63.5V273.636H68V279.325H72.5V265.103H68V259.983H65.1875V252.018H68V246.898H72.5V232.676H68V238.365H63.5V246.898H59Z" fill="white"/>
</g>
<path d="M117.301 341.3H512.301V512H117.301V341.3Z" fill="#007C30"/>
</g>
<defs>
<clipPath id="clip0_3921_13262">
<rect width="512" height="512" fill="white"/>
</clipPath>
</defs>
</svg>
