<svg width="512" height="512" viewBox="0 0 512 512" fill="none" xmlns="http://www.w3.org/2000/svg">
<g clip-path="url(#clip0_3921_13404)">
<path d="M0 0H512V512H0V0Z" fill="#008000"/>
<path d="M268.2 311.6C302 311.6 329.4 284.2 329.4 250.4C329.4 216.6 302 189.2 268.2 189.2C234.4 189.2 207 216.6 207 250.4C207 284.2 234.4 311.6 268.2 311.6Z" fill="#FFE000"/>
<path d="M287.3 300.8C315.136 300.8 337.7 278.235 337.7 250.4C337.7 222.565 315.136 200 287.3 200C259.465 200 236.9 222.565 236.9 250.4C236.9 278.235 259.465 300.8 287.3 300.8Z" fill="#008000"/>
<path d="M75.2 253.4C110.657 253.4 139.4 224.657 139.4 189.2C139.4 153.743 110.657 125 75.2 125C39.7433 125 11 153.743 11 189.2C11 224.657 39.7433 253.4 75.2 253.4Z" fill="#FFE000"/>
<path d="M70.6992 237.6H86.6992C86.6992 237.6 87.4992 236.1 86.5992 235.4C85.6992 234.7 82.2992 234.4 83.1992 231.9C85.1992 226.5 85.3992 228.2 86.5992 215.5C87.7992 202.8 88.2992 182.9 88.2992 182.9H85.9992C85.9992 182.9 86.4992 189.1 85.0992 197.2C83.7992 205.2 83.3992 205.9 81.8992 212.2C80.4992 218.3 80.1992 218.8 78.8992 222.5C77.5992 226.1 77.3992 226.2 75.3992 229.5L72.8992 233.7C72.2992 234.7 71.5992 234.4 71.1992 235.1C70.7992 235.9 70.6992 237.6 70.6992 237.6Z" fill="#802000" stroke="#7B3100" stroke-width="1.4"/>
<path d="M82.9992 142.5C82.9992 145 82.7992 148.2 81.7992 150.9C80.7992 153.9 79.5992 156.9 79.6992 159.9C77.9992 160.6 76.2992 156.4 74.6992 158.9C75.8992 162.2 78.6992 164.9 80.5992 167.9C80.8992 168.9 83.5992 171.4 82.0992 171.9C78.0992 170.6 77.0992 165.5 74.5992 162.4C73.1435 159.857 71.0891 157.709 68.6145 156.14C66.1399 154.572 63.3199 153.631 60.3992 153.4C58.0992 153.4 50.7992 152.8 52.6992 156.6C55.4992 158.6 58.9992 159.8 61.6992 161.9C63.7992 162.1 67.4992 165.5 67.2992 166.9C63.6992 165.4 61.9992 163.6 58.0992 162.1C52.7992 160.1 45.4992 161.2 42.5992 166.5C41.9992 167.9 41.1992 171.8 42.8992 172.2C44.8992 169.1 47.8992 165.6 52.0992 166.5C55.3992 166.8 48.2992 172.8 51.0992 171.5C51.8992 171.2 53.8992 169.9 55.1992 169.8C56.5992 169.6 57.3992 170.6 58.3992 170.8C60.4992 171.1 61.0992 171.9 60.8992 172.4C60.6992 172.9 59.8992 172.5 57.8992 173.2C56.8992 173.5 56.2992 174.5 54.9992 174.9C53.6992 175.3 51.1992 175.3 50.2992 174.9C46.8992 173.5 41.3992 173.8 40.2992 177.9C40.2992 179.9 38.6992 177.8 37.9992 178.6C37.3992 180.6 37.1992 182.6 34.1992 182.5C32.3992 184.4 30.5992 186.4 28.1992 187.7C29.5992 190.8 34.9992 184.6 34.6992 187.2C32.3992 190.4 35.8992 191.1 37.4992 188.6C40.0992 185.8 43.3992 182.5 47.2992 185.3C49.1992 187 50.2992 184.3 51.5992 184.5C52.4992 186.7 53.5992 184.5 54.5992 184C56.0992 183.8 55.5992 186 57.5992 184.6C61.2992 182.1 65.8992 184.2 69.5992 181.8C73.3992 180 70.0992 183.2 68.9992 184.5C67.2992 187.8 68.7992 192.2 64.9992 194.2C63.5992 198.2 66.7992 203.4 63.4992 206.3C62.9992 208.2 67.7992 208 69.0992 208.7C71.4992 208.8 69.0992 203.4 71.2992 202.7C74.3992 204.6 74.2992 199.2 73.6992 197.5C73.9992 193.8 74.1992 189.7 75.9992 186.2C77.9992 182.1 79.8992 187.9 77.5992 189.6C76.3992 193.4 74.5992 198.3 77.3992 201.8C78.2992 202 78.8992 204 79.9992 204.6C80.9992 205.3 82.4992 204.5 82.7992 202.6C84.1992 197.2 83.4992 191.2 85.4992 185.9C86.7992 184.2 88.7992 185.6 89.5992 187.1C92.3992 190.3 94.2992 194.3 97.5992 197C100.731 198.289 103.288 200.669 104.799 203.7C104.799 206.1 111.599 206.4 109.599 203.7C107.599 201.2 108.899 198.5 110.899 196.8C111.899 197.1 111.599 195.2 110.899 195.9C109.499 195.6 109.399 193.1 111.199 194.3C114.399 195.3 110.999 192 109.899 191.9C107.199 190.3 104.199 188.4 102.899 185.5C106.299 185.5 109.899 187.5 113.399 186.3C116.299 184.8 119.099 186.4 120.099 188.9C122.299 188.5 121.399 186.4 120.099 185.6C121.699 185 122.799 183.6 120.899 182.4C119.899 181 122.299 178.8 119.299 178.9C119.399 176.6 118.499 174.6 116.099 173.8C113.599 171.7 106.399 176.8 106.599 172.1C105.899 169.6 109.599 171.8 110.599 170.5C111.599 167.8 105.599 168.1 107.599 166C108.799 165.2 114.999 164 110.199 163C109.122 163.289 107.996 163.349 106.893 163.177C105.791 163.004 104.737 162.604 103.799 162C102.099 165 97.0992 160.4 97.9992 165.6C97.2992 167.6 92.9992 172.6 91.6992 168.7C92.6992 165.7 97.9992 164.7 96.2992 160.7C96.0992 158.1 93.9992 161.1 92.9992 160.9C92.4992 159.3 94.4992 157.4 95.9992 157C98.6992 159.2 98.7992 154.3 101.499 154.7C103.499 154.3 100.799 153.5 100.299 153.1C100.799 151.7 103.799 150.9 100.899 149.7C98.2992 147.7 96.3992 151.7 94.2992 151.8C92.2992 149.5 96.0992 148.4 97.1992 147.2C97.1992 146.2 94.8992 146.9 95.5992 146.2C96.1992 145 100.399 144.9 98.3992 143.3C95.4992 142.3 91.7992 142.6 88.9992 143.8C87.1992 144.4 86.6992 148.4 85.1992 148.2C84.3992 146.5 85.3992 143 82.9992 142.4V142.5ZM96.6992 181.4C98.9992 181 96.6992 184.7 95.6992 184.7C95.7992 183.4 92.4992 183.5 94.5992 182.3L96.6992 181.4Z" fill="#008000"/>
<path d="M415.175 327.487L419.223 340.075L431.589 335.391L424.274 346.409L435.649 353.158L422.466 354.307L424.28 367.408L415.175 357.819L406.064 367.402L407.878 354.307L394.701 353.152L406.076 346.403L398.755 335.385L411.121 340.069L415.175 327.487Z" fill="#FFE000"/>
<path d="M341.679 211.119L345.727 223.706L358.093 219.022L350.778 230.041L362.153 236.79L348.97 237.939L350.784 251.04L341.679 241.45L332.568 251.034L334.382 237.939L321.205 236.784L332.579 230.035L325.259 219.017L337.625 223.7L341.679 211.119Z" fill="#FFE000"/>
<path d="M415.175 131.498L419.223 144.086L431.589 139.402L424.274 150.421L435.649 157.169L422.466 158.318L424.28 171.419L415.175 161.83L406.064 171.414L407.878 158.318L394.701 157.163L406.076 150.415L398.755 139.396L411.121 144.08L415.175 131.498Z" fill="#FFE000"/>
<path d="M480.505 191.52L484.553 204.107L496.919 199.423L489.605 210.442L500.979 217.191L487.796 218.34L489.61 231.441L480.505 221.851L471.394 231.435L473.208 218.34L460.031 217.185L471.406 210.436L464.085 199.418L476.451 204.102L480.505 191.52Z" fill="#FFE000"/>
<path d="M444.572 250.491L447.775 258.337L456.221 258.955L449.746 264.426L451.77 272.651L444.572 268.183L437.374 272.657L439.393 264.432L432.918 258.961L441.376 258.343L444.572 250.491Z" fill="#FFE000"/>
</g>
<defs>
<clipPath id="clip0_3921_13404">
<rect width="512" height="512" fill="white"/>
</clipPath>
</defs>
</svg>
