<svg width="512" height="512" viewBox="0 0 512 512" fill="none" xmlns="http://www.w3.org/2000/svg">
<g clip-path="url(#clip0_3921_13484)">
<path d="M0 0H170.7V512H0V0Z" fill="#007A5E"/>
<path d="M170.699 0H341.299V512H170.699V0Z" fill="#CE1126"/>
<path d="M341.301 0H512.001V512H341.301V0Z" fill="#FCD116"/>
<path d="M256.002 210.489L241.779 253.724L263.397 261.12L256.002 210.489Z" fill="#FCD116"/>
<path d="M256.002 210.489L270.225 253.724L248.607 261.12L256.002 210.489Z" fill="#FCD116"/>
<path d="M299.286 241.936L253.771 241.771L253.418 264.616L299.286 241.936Z" fill="#FCD116"/>
<path d="M299.285 241.936L262.56 268.823L248.846 250.549L299.285 241.936Z" fill="#FCD116"/>
<path d="M282.752 292.819L268.845 249.481L247.008 256.205L282.752 292.819Z" fill="#FCD116"/>
<path d="M282.752 292.819L245.833 266.201L258.975 247.511L282.752 292.819Z" fill="#FCD116"/>
<path d="M229.25 292.819L266.169 266.201L253.027 247.511L229.25 292.819Z" fill="#FCD116"/>
<path d="M229.25 292.819L243.157 249.481L264.994 256.205L229.25 292.819Z" fill="#FCD116"/>
<path d="M212.717 241.936L249.442 268.823L263.156 250.549L212.717 241.936Z" fill="#FCD116"/>
<path d="M212.718 241.936L258.233 241.771L258.586 264.616L212.718 241.936Z" fill="#FCD116"/>
</g>
<defs>
<clipPath id="clip0_3921_13484">
<rect width="512" height="512" fill="white"/>
</clipPath>
</defs>
</svg>
