<svg width="512" height="512" viewBox="0 0 512 512" fill="none" xmlns="http://www.w3.org/2000/svg">
<g clip-path="url(#clip0_3921_13505)">
<path d="M0 0H512V512H0V0Z" fill="#EE1C25"/>
<path d="M204.799 104.96L74.2392 189.44L127.999 51.2L174.079 189.44L51.1992 104.96H204.799Z" fill="#FFFF00"/>
<path d="M236.576 33.0493L283.097 55.8344L234.402 64.2012L265.968 27.3271L262.928 76.9066L236.576 33.0493Z" fill="#FFFF00"/>
<path d="M295.871 78.2082L329.882 117.326L281.737 106.078L325.193 84.3783L303.085 128.897L295.871 78.2082Z" fill="#FFFF00"/>
<path d="M306.574 152.531L321.655 202.154L282.279 172.21L330.834 170.146L292.454 201.774L306.574 152.531Z" fill="#FFFF00"/>
<path d="M266.009 205.632L260.774 257.178L236.031 214.4L281.574 231.219L234.009 245.568L266.009 205.632Z" fill="#FFFF00"/>
</g>
<defs>
<clipPath id="clip0_3921_13505">
<rect width="512" height="512" fill="white"/>
</clipPath>
</defs>
</svg>
