<svg width="512" height="512" viewBox="0 0 512 512" fill="none" xmlns="http://www.w3.org/2000/svg">
<g clip-path="url(#clip0_3921_13972)">
<path d="M256 0H512V512H256V0Z" fill="white"/>
<path d="M0 0H256V512H0V0Z" fill="#006233"/>
<path d="M367 192C352.911 167.598 331.164 148.526 305.132 137.743C279.1 126.961 250.237 125.069 223.02 132.362C195.803 139.654 171.752 155.724 154.599 178.079C137.446 200.433 128.148 227.823 128.148 256C128.148 284.177 137.446 311.567 154.599 333.921C171.752 356.276 195.803 372.346 223.02 379.639C250.237 386.931 279.1 385.04 305.132 374.257C331.164 363.474 352.911 344.402 367 320C353.74 336.561 335.664 348.595 315.269 354.439C294.874 360.283 273.168 359.647 253.15 352.621C233.132 345.595 215.79 332.524 203.522 315.216C191.253 297.907 184.664 277.215 184.664 256C184.664 234.785 191.253 214.093 203.522 196.784C215.79 179.476 233.132 166.405 253.15 159.379C273.168 152.353 294.874 151.717 315.269 157.561C335.664 163.405 353.74 175.439 367 192ZM371.2 256L256 218.4L327.7 316.6V195.4L256 293.6L371.2 256Z" fill="#D21034"/>
</g>
<defs>
<clipPath id="clip0_3921_13972">
<rect width="512" height="512" fill="white"/>
</clipPath>
</defs>
</svg>
