<svg width="512" height="512" viewBox="0 0 512 512" fill="none" xmlns="http://www.w3.org/2000/svg">
<g clip-path="url(#clip0_3921_14195)">
<path d="M0 0H512V256H0V0Z" fill="#000001"/>
<path d="M0 256H512V512H0V256Z" fill="#007A3D"/>
<path d="M0 149.3H512V362.6H0V149.3Z" fill="white"/>
<path d="M0 0L256 256L0 512V0Z" fill="#C4111B"/>
<path d="M389.999 326.034C428.678 326.034 460.033 294.679 460.033 256C460.033 217.321 428.678 185.966 389.999 185.966C351.32 185.966 319.965 217.321 319.965 256C319.965 294.679 351.32 326.034 389.999 326.034Z" fill="#C4111B"/>
<path d="M416.249 326.034C454.928 326.034 486.283 294.679 486.283 256C486.283 217.321 454.928 185.966 416.249 185.966C377.57 185.966 346.215 217.321 346.215 256C346.215 294.679 377.57 326.034 416.249 326.034Z" fill="white"/>
<path d="M371.234 298.349L400.971 277.02L430.707 298.759L419.633 263.69L449.369 242.157L412.66 241.952L401.381 207.089L389.794 241.85L353.188 241.747L382.616 263.485L371.234 298.349Z" fill="#C4111B"/>
</g>
<defs>
<clipPath id="clip0_3921_14195">
<rect width="512" height="512" fill="white"/>
</clipPath>
</defs>
</svg>
