<svg width="512" height="512" viewBox="0 0 512 512" fill="none" xmlns="http://www.w3.org/2000/svg">
<g clip-path="url(#clip0_3921_15187)">
<path d="M0 0V512H512V0.2H322V0H0Z" fill="#68BFE5"/>
<path d="M310.199 254V390.4C310.199 435 390.799 461.5 390.799 461.5C390.799 461.5 471.399 435 471.399 390.5V254H310.199Z" fill="white"/>
<path d="M379.599 302V363.4H310.199V385.7H379.699V457.2L390.799 461.5L401.999 457.2V385.7H471.399V363.4H401.999V302H379.599Z" fill="#D21034"/>
<path d="M310.199 254H471.399V306.7H310.199V254Z" fill="#D21034"/>
<path d="M323.091 293.499C328.085 293.499 332.133 290.225 332.133 286.186C332.133 282.146 328.085 278.872 323.091 278.872C318.097 278.872 314.049 282.146 314.049 286.186C314.049 290.225 318.097 293.499 323.091 293.499Z" fill="white" stroke="black" stroke-width="0.531888" stroke-miterlimit="3"/>
<path d="M323.092 286.452C327.535 286.452 331.136 284.636 331.136 282.396C331.136 280.156 327.535 278.34 323.092 278.34C318.649 278.34 315.047 280.156 315.047 282.396C315.047 284.636 318.649 286.452 323.092 286.452Z" fill="white" stroke="black" stroke-width="0.531888" stroke-miterlimit="3"/>
<path d="M323.092 294.629C327.535 294.629 331.136 292.814 331.136 290.574C331.136 288.334 327.535 286.518 323.092 286.518C318.649 286.518 315.047 288.334 315.047 290.574C315.047 292.814 318.649 294.629 323.092 294.629Z" fill="white" stroke="black" stroke-width="0.531888" stroke-miterlimit="3"/>
<path d="M323.092 290.241C327.535 290.241 331.136 288.425 331.136 286.186C331.136 283.946 327.535 282.13 323.092 282.13C318.649 282.13 315.047 283.946 315.047 286.186C315.047 288.425 318.649 290.241 323.092 290.241Z" fill="white" stroke="black" stroke-width="0.531888" stroke-miterlimit="3"/>
<path d="M467.401 296.3L466.101 292.6C466.101 292.6 462.501 291.2 462.201 289.2C461.601 284.2 459.701 282.2 457.001 281.5C456.245 281.259 455.45 281.171 454.661 281.24C453.871 281.308 453.103 281.533 452.401 281.9C451.601 283.1 447.501 283.1 445.201 283.2C442.901 283.3 442.901 282.2 442.901 282.2C442.409 282.204 441.924 282.088 441.488 281.862C441.053 281.635 440.679 281.305 440.401 280.9C439.267 278.7 438.401 277.566 437.801 277.5C440.801 277.5 443.001 276.1 446.301 272.6C450.001 268.8 452.601 270.3 452.601 270.3C450.801 273.8 453.201 273.5 453.201 273.5C458.001 271.1 453.801 264.8 452.301 265.1C450.901 265.4 450.501 264.4 450.501 264.4C450.501 265.5 448.801 266 448.801 266C450.101 258.9 445.801 257 445.801 257C445.201 257.6 444.801 259 444.801 259C443.701 263.2 439.801 262.6 435.401 260.5C431.001 258.4 419.301 262.7 415.601 264.1C412.001 265.6 405.301 267.9 399.301 264.5C393.301 261.1 391.801 261.7 389.401 262.4C387.001 263.1 382.801 264 381.301 263.2C380.237 262.679 379.082 262.373 377.901 262.3C378.401 262.1 377.701 261.1 377.701 261.1C375.901 258.6 377.901 257.1 377.901 257.1C377.901 257.1 374.601 258.1 375.901 263.9L376.501 264.8C376.501 264.8 377.001 266.6 378.001 267.1V267.5C378.001 267.5 378.801 267.1 379.001 268.3C379.401 269.5 380.601 268.4 381.201 267.4C381.201 267.4 380.201 272.7 386.801 274C386.801 274 386.101 273.2 386.401 272.6C386.701 272 385.601 271.6 385.701 270.8C385.701 270 384.001 269.6 385.401 269C386.801 268.4 387.401 267 390.401 268.8C393.201 270.5 395.501 270.1 395.501 270.1C395.501 270.1 393.701 266.5 394.701 266.5C395.701 266.5 400.101 272 402.301 271.7C404.501 271.4 408.701 269 410.801 269.9C410.801 269.9 411.001 268.8 419.001 267.4C427.001 266 437.001 262 440.701 265.5C440.701 265.5 441.101 268.3 442.701 269C442.701 269 442.401 274.8 432.401 271.6L428.801 270.6C428.801 270.6 428.301 268.9 409.301 273.8C409.301 273.8 408.301 274.2 407.501 274.8C406.801 275.3 405.801 274.4 402.001 275.8C398.201 277.2 384.301 281.8 375.701 280.1C373.801 279.6 372.001 279.8 372.001 279.6C371.901 279.2 373.001 279.6 373.001 279.6C372.334 278.933 372.001 278.666 372.001 278.8C364.801 278.1 366.101 274.8 366.101 274.8L366.501 275.8C367.701 274.3 366.001 270.6 366.001 270.6L365.901 270.3L366.501 269.9C370.001 266.9 374.001 266.4 374.001 266.4C371.601 263.4 366.601 265 366.601 265C366.601 261.5 365.201 257.4 365.201 257.4C360.201 257.9 357.401 262 357.401 262C357.301 258.4 352.601 256.3 352.601 256.3C354.301 258.3 353.201 263.3 353.201 263.3L353.401 263.5H353.001L352.901 264.5H352.701C352.701 264.5 351.001 265.1 348.901 269.7C348.901 269.7 348.701 270.7 347.901 271.7V271.4C347.901 271.4 345.701 274.4 340.501 271.4C340.501 271.4 333.501 267.2 331.001 267.4C328.501 267.5 326.901 268.7 327.001 269.4C327.001 269.4 321.401 268.9 319.501 272.1C319.501 272.1 315.201 273.7 318.901 277.1C318.901 277.1 319.301 278.7 320.401 279.5C320.401 279.5 320.201 276.3 321.001 277.3L321.601 277.8C321.601 278.2 322.001 279.5 322.801 280.1L323.301 279.9L323.801 277.7H324.001L323.901 277.8L324.901 279.3L326.001 278.7C326.601 278.7 327.301 279.2 327.301 279.2L328.601 278.2V278.1C329.901 278.3 330.201 275.8 330.201 275.8C330.746 275.93 331.313 275.943 331.864 275.84C332.416 275.737 332.939 275.519 333.401 275.2C334.001 277.2 338.601 279.5 338.601 279.5H338.801L338.201 279.9C340.201 281.4 344.201 281 344.201 281C342.601 281.7 342.801 284.7 342.801 284.7C341.801 285.1 341.801 286 341.801 286C344.901 287.3 347.101 286.3 347.101 286.3V287.4C345.801 290.1 345.201 292.8 345.201 292.8V293C345.201 293 339.601 295 337.201 297.7C337.201 297.7 336.901 296.9 336.201 296.9C335.501 296.9 333.301 295.1 332.301 294.9C331.301 294.5 329.801 295.1 329.401 294.7C329.001 294.3 329.301 291.1 328.601 290.6L327.901 288.6C327.401 289.6 325.501 289.4 325.501 289.4L324.701 290L323.901 289.9C323.701 290.033 323.501 290.4 323.301 291L323.101 291.2V290.6C322.701 290.9 321.901 290.5 321.601 290.5L321.101 291.4L319.301 291.6C319.001 291.7 319.301 294.1 319.301 294.1C317.001 295.4 318.101 297.2 318.101 297.2C319.301 303.2 329.601 300.6 330.401 301.3C331.101 302.1 332.901 302.3 333.901 302.3C334.901 302.3 335.901 304.5 337.301 304.7C338.601 305 337.301 303 343.301 301.5C349.501 300 351.501 297.5 351.501 297.5C353.501 297.2 354.001 294.8 354.101 293.9L354.201 295.4C354.501 297.4 353.101 298.2 353.101 298.2L358.301 296.6C360.401 296.1 360.201 294.3 360.201 294.3C362.201 300 365.801 300.3 365.801 300.3C366.601 298.2 366.501 297.5 366.501 297.5H368.101C368.101 296.2 367.101 295.3 366.501 294.9L369.001 296.5L370.001 296.3C370.001 297.2 371.401 298 371.401 298L371.601 296.8C372.801 298.4 375.001 297.8 375.001 297.8L374.801 297C379.501 299.9 386.901 296.2 386.901 296.2C388.901 296.6 389.201 295.4 389.201 295.4C391.501 295.7 392.001 294.2 392.001 294.2C397.401 293.7 401.201 289.9 401.201 289.9C403.801 289.7 403.901 287.9 403.901 287.9C403.901 287.9 406.601 288.3 409.101 285.1C415.101 276.6 423.901 281.1 423.901 281.1L418.901 281.4C405.401 281.3 410.901 290.4 410.901 290.4H411.801C413.101 290.6 417.401 294.1 415.801 296.7V296.8C413.001 300.5 407.901 297 406.501 293.8C405.101 290.6 402.101 291.3 402.101 291.3C402.101 291.3 394.501 292.6 397.601 298.6H397.701C397.801 300.1 398.701 301.8 401.401 303.5C402.901 305.6 407.901 305.8 411.601 305C413.301 304.7 422.301 300.8 422.301 300.8C423.001 298.8 425.301 299.3 427.301 296.5C429.301 293.6 424.301 292.6 423.301 291.1C422.201 289.5 423.601 289.8 423.601 289.8C427.901 292.2 428.301 284.6 428.301 284.6C428.457 285.831 428.937 286.998 429.693 287.982C430.448 288.966 431.452 289.731 432.601 290.2C435.001 287.8 433.201 282.9 433.201 282.9C438.901 293.1 442.401 291.5 442.401 291.5C439.301 289.5 440.801 287 440.801 287C443.601 297.8 454.801 288.4 454.801 288.4C454.301 290 454.801 290.9 455.801 291.9C456.801 292.9 458.001 293.3 457.501 295.2C457.001 297.1 451.701 296.6 451.701 296.6C451.701 296.6 446.601 296.4 447.101 300.6C447.301 301.6 450.701 302 452.001 301.8C452.001 301.8 451.501 301.8 453.301 302.1L455.501 302.2C457.701 302.2 460.001 301.8 460.001 301.8C463.001 301.1 462.501 300.1 462.501 300.1C467.001 299.3 467.501 296.3 467.501 296.3H467.401Z" fill="#FFD100" stroke="black" stroke-width="0.8" stroke-miterlimit="3"/>
<path d="M318.999 277.6C318.999 277.6 319.199 277 319.699 276.9C320.032 276.9 320.432 277.166 320.899 277.7L321.099 277.5C321.099 277.5 319.899 275.7 320.399 274.5C320.666 273.9 321.199 273.566 321.999 273.5V273.1C320.999 273.3 320.366 273.733 320.099 274.4L319.999 275.2C319.999 275.866 320.132 276.4 320.399 276.8L319.599 276.6C319.199 276.733 318.932 276.933 318.799 277.2L318.999 277.6ZM459.999 301.5C456.999 302 452.399 302.2 451.999 301.3C451.999 301.2 451.999 300.5 454.499 298.9L454.199 298.4C452.132 299.733 451.266 300.766 451.599 301.5C452.199 303.2 458.799 302.2 460.099 302L459.999 301.5ZM401.599 303.3C400.932 302.166 401.266 300.7 402.599 298.9L402.099 298.6C400.632 300.6 400.299 302.266 401.099 303.6L401.599 303.3Z" fill="black"/>
<path d="M397.501 298.7C397.501 300.5 398.767 302.166 401.301 303.7L401.601 303.3C399.334 301.9 398.134 300.333 398.001 298.6C398.001 296.1 400.601 294.2 400.601 294.1L400.301 293.7C400.201 293.7 397.301 295.8 397.501 298.7ZM449.501 299.3C448.701 300.6 449.001 302.1 449.001 302.1H449.501C449.501 302.1 449.301 300.7 450.001 299.6C450.237 299.276 450.536 299.003 450.879 298.797C451.223 298.591 451.604 298.456 452.001 298.4V297.9C450.867 298.1 450.034 298.566 449.501 299.3ZM330.301 276H330.101V276.1C330.101 276.1 329.801 277.7 329.101 278.1L328.401 278.2L327.201 277.5C326.934 277.233 326.667 277.133 326.401 277.2C326.12 276.826 325.978 276.366 326.001 275.9C326.134 275.1 326.634 274.4 327.501 273.8L327.401 273.5C326.401 274.166 325.834 274.933 325.701 275.8C325.601 276.8 326.101 277.4 326.201 277.5H326.301C326.567 277.433 326.801 277.5 327.001 277.7L328.301 278.5H329.301C330.001 278 330.301 276.6 330.301 276.3C333.601 277 336.301 273 336.301 272.9L336.101 272.7C336.101 272.7 333.401 276.7 330.301 276Z" fill="black"/>
<path d="M322.499 275.4C322.366 276.066 322.466 276.7 322.799 277.3C323.133 277.9 323.499 278.233 323.899 278.3C324.366 278.3 324.733 278.1 324.999 277.7C325.266 277.3 325.466 277.166 325.599 277.3L325.899 277.5L326.199 277.3L325.699 277C325.366 277 325.066 277.133 324.799 277.4C324.533 277.8 324.233 277.966 323.899 277.9C323.699 277.9 323.433 277.633 323.099 277.1C322.925 276.857 322.808 276.578 322.756 276.284C322.704 275.99 322.719 275.687 322.799 275.4C323.099 274 324.799 272.9 324.799 272.9V272.7C324.699 272.7 322.799 273.7 322.499 275.4ZM317.999 296C318.199 295.4 318.633 294.933 319.299 294.6C319.199 294.6 319.999 295.3 320.699 295.2L321.099 295C321.299 295.1 322.499 296.2 322.499 297.6C322.499 297.933 322.433 298.233 322.299 298.5L322.599 298.6C323.599 296.6 321.299 294.6 321.299 294.6H321.099L320.599 294.9C320.099 294.9 319.399 294.3 319.299 294.3C318.433 294.7 317.899 295.233 317.699 295.9L317.999 296ZM328.399 290.7C327.699 290.7 325.799 291.1 325.199 292C324.999 292.4 324.999 292.8 325.199 293.2L325.399 293.9C325.999 295.4 326.599 297 327.199 297.4L327.399 297.1C326.799 296.8 326.199 295.1 325.699 293.7L325.399 293.1C325.329 292.96 325.292 292.806 325.292 292.65C325.292 292.493 325.329 292.339 325.399 292.2C325.999 291.4 327.599 291 328.399 291C328.799 291 328.899 292.5 328.999 293.5H329.299C329.299 292 329.099 290.6 328.299 290.7H328.399Z" fill="black"/>
<path d="M323.299 292.2C323.179 292.313 323.088 292.455 323.036 292.612C322.983 292.769 322.971 292.937 322.999 293.1C322.999 293.2 323.099 297.1 324.999 297.9L325.099 297.6C323.399 296.9 323.299 293.1 323.299 293.1C323.299 293.1 323.199 292.7 323.499 292.4C323.766 292.2 324.299 292.2 325.099 292.4V292.1C324.233 291.833 323.633 291.866 323.299 292.2Z" fill="black"/>
<path d="M321.8 292.5C321 293.1 321 294.7 321 294.8H321.3C321.3 294.8 321.3 293.2 322 292.8C322.267 292.6 322.6 292.6 323 292.8V292.5C322.533 292.3 322.133 292.3 321.8 292.5Z" fill="black"/>
<path d="M365.707 271.094C365.707 271.094 366.572 273.088 366.572 274.617C366.572 274.883 366.505 275.105 366.372 275.282L366.04 274.418L365.84 275.083C365.84 275.083 365.442 276.013 366.04 277.011C366.838 278.34 368.832 279.16 372.024 279.471V279.537L371.758 279.604L371.625 279.737V280.003C371.713 280.269 372.112 280.379 372.821 280.335L373.287 280.402L373.686 280.535L373.619 280.468C374.329 280.468 375.126 280.645 376.013 281L375.348 281.133L376.079 281.465C376.146 281.465 381.864 283.792 384.191 285.654C383.526 286.252 380.667 288.313 375.747 287.117L374.949 286.917L375.481 287.582C375.481 287.582 378.739 291.305 379.404 293.566C378.273 293.566 373.952 293.566 372.423 292.236L372.09 292.568C372.09 292.568 374.085 295.627 374.617 297.954C373.952 298.087 372.622 298.153 371.758 297.023L371.359 296.558L371.159 297.887C370.76 297.555 370.229 297.156 370.229 296.624V296.358L369.032 296.558L366.505 295.028L366.106 294.763L365.84 295.228L366.239 295.427C366.771 295.826 367.702 296.558 367.769 297.621H366.173V297.954C366.173 298.153 366.173 298.885 365.575 300.414C364.843 300.281 362.051 299.284 360.389 294.563L359.857 294.696V294.829C359.857 295.294 359.724 296.358 358.261 296.757L353.939 298.087C354.298 297.533 354.483 296.885 354.471 296.225V295.693L354.338 293.965C354.294 292.99 354.604 292.325 355.269 291.97L355.003 291.438C354.937 291.438 348.621 294.031 345.496 292.967C345.629 292.303 346.161 290.175 347.224 287.914L347.091 288.047C347.291 287.914 347.49 287.649 347.291 286.585V286.252L346.958 286.385C346.958 286.385 344.964 287.316 342.038 286.252C342.038 285.942 342.304 285.632 342.836 285.322L343.036 285.255V284.723C343.036 283.925 343.102 282.064 344.233 281.665L344.1 281.133C344.1 281.133 340.709 281.399 338.648 280.269C339.538 279.629 340.56 279.197 341.64 279.005H341.839V278.739C341.83 278.213 341.717 277.693 341.507 277.21C342.304 277.476 343.235 277.676 343.568 277.41L343.701 277.343L343.568 275.282H343.036L343.102 277.011L341.108 276.545L340.31 276.279L340.842 276.944C341.163 277.413 341.326 277.972 341.307 278.54C340.103 278.807 338.969 279.328 337.983 280.069L337.65 280.335L337.983 280.535C339.578 281.598 342.038 281.731 343.302 281.665C342.722 282.553 342.421 283.595 342.437 284.657V284.923C342.17 285.073 341.941 285.284 341.768 285.537C341.595 285.791 341.483 286.081 341.44 286.385V286.585L341.573 286.651C343.222 287.41 345.094 287.528 346.825 286.984V287.582C345.496 290.374 344.831 293.1 344.831 293.1V293.366H345.03C347.623 294.43 352.144 293.034 354.205 292.303C353.939 292.746 353.784 293.3 353.74 293.965L353.939 296.225C353.939 297.754 352.942 298.353 352.876 298.353L353.075 298.885L358.394 297.289C359.591 296.957 360.056 296.225 360.256 295.627C362.317 300.547 365.575 300.946 365.774 301.012H365.973L366.04 300.813C366.392 299.964 366.616 299.068 366.705 298.153L368.3 298.087V297.754C368.3 297.311 368.212 296.912 368.034 296.558L368.965 297.09L369.83 296.957C370.029 297.821 371.093 298.552 371.226 298.619L371.558 298.818L371.758 297.688C373.087 298.818 374.883 298.486 375.016 298.486L375.215 298.419V298.153C374.949 296.358 373.752 294.231 373.021 293.1C375.348 294.164 379.603 294.098 379.803 294.098H380.068V293.765C379.192 291.565 377.932 289.539 376.345 287.781C381.797 288.779 384.722 285.92 384.855 285.787L385.055 285.587L384.789 285.454C382.399 283.748 379.809 282.341 377.077 281.266L377.675 281.133L377.01 280.8C375.814 280.195 374.494 279.877 373.154 279.87C372.489 279.072 372.157 279.005 372.09 278.939C368.367 278.54 367.037 277.543 366.505 276.745V276.545L366.638 276.346C366.949 275.903 367.104 275.326 367.104 274.617C367.104 272.889 366.239 270.961 366.239 270.894L365.707 271.094Z" fill="black"/>
<path d="M348.753 270.029C348.753 270.029 348.354 272.024 346.626 273.021C345.296 273.73 343.612 273.664 341.573 272.822L341.307 272.755V273.021C341.455 273.877 341.932 274.64 342.636 275.149C343.523 275.814 344.83 276.08 346.559 275.947C345.961 276.611 344.166 278.872 344.166 281.132V281.465C344.432 281.598 347.224 282.396 348.554 280.734C348.554 281.398 348.82 283.725 349.684 284.59C350.171 285.166 350.393 285.764 350.349 286.385L350.216 287.316L350.083 287.715L350.415 287.449C350.548 287.382 353.141 285.454 353.939 282.994C353.939 282.994 354.404 282.329 355.202 282.13V282.462C355.202 283.46 355.601 285.188 358.394 286.252L358.593 286.318V285.654C358.593 284.922 358.593 283.659 359.324 282.994C359.602 282.71 359.788 282.349 359.859 281.958C359.93 281.567 359.883 281.164 359.723 280.8C360.322 280.933 361.651 281.398 362.183 282.396C362.981 283.858 365.707 282.662 365.84 282.662L365.774 282.329C365.774 282.329 364.577 282.595 363.845 282.13C363.689 282.013 363.56 281.863 363.468 281.69C363.376 281.518 363.323 281.328 363.314 281.132L363.181 279.537C363.181 278.872 363.025 278.384 362.715 278.074C363.048 278.074 363.779 278.074 364.045 278.739C364.577 279.803 366.239 279.869 366.305 279.869L366.904 279.936L366.438 279.603C366.438 279.603 364.976 278.673 365.242 277.409L365.441 276.478C365.84 274.816 366.505 272.09 365.906 270.362L365.641 270.495C365.774 270.938 365.84 271.426 365.84 271.957C365.84 273.42 365.375 275.282 365.175 276.412L364.909 277.343V277.675C364.998 278.562 365.286 279.16 365.774 279.47C365.308 279.404 364.643 279.138 364.444 278.606C363.978 277.675 362.915 277.675 362.449 277.742L362.05 277.808L362.316 278.074C362.759 278.296 362.937 278.805 362.848 279.603L362.981 281.132C363.07 281.664 363.291 282.063 363.646 282.329C364.089 282.551 364.466 282.662 364.776 282.662C363.978 282.861 362.848 282.994 362.449 282.263C361.718 280.8 359.59 280.468 359.524 280.401H359.191L359.324 280.667C359.324 280.667 359.59 281.066 359.59 281.598C359.59 281.952 359.435 282.329 359.125 282.728C358.394 283.46 358.261 284.856 358.261 285.587V285.853C355.867 284.856 355.468 283.393 355.468 282.529V281.864L355.601 281.664H355.335C354.993 281.744 354.67 281.891 354.384 282.096C354.099 282.302 353.857 282.562 353.673 282.861C353.012 284.486 351.934 285.908 350.548 286.983L350.615 286.318C350.659 285.698 350.437 285.055 349.95 284.39C348.953 283.46 348.82 280.401 348.82 280.401V279.869L348.554 280.335C347.49 282.196 344.432 281.265 344.365 281.265C344.232 278.938 347.024 275.88 347.024 275.814L347.29 275.548H346.891C345.119 275.769 343.744 275.548 342.769 274.883C342.255 274.449 341.884 273.87 341.706 273.221C343.7 273.974 345.384 273.996 346.759 273.287C347.344 272.951 347.85 272.492 348.24 271.94C348.631 271.389 348.896 270.76 349.019 270.096C351.014 265.708 352.676 264.976 352.676 264.976L352.609 264.71C352.476 264.71 350.748 265.375 348.753 270.029Z" fill="black"/>
<path d="M353.209 263.447H353.076L351.48 265.641H351.946C356.907 266.032 361.559 268.205 365.044 271.758L365.243 271.958L366.772 270.296L366.639 270.096C362.318 263.314 353.276 263.447 353.143 263.447H353.209ZM353.342 264.046C354.406 264.046 362.118 264.245 366.107 270.229L365.243 271.16C361.735 267.826 357.224 265.746 352.411 265.243L353.342 264.046Z" fill="black"/>
<path d="M351.945 267.968C351.229 268.904 350.75 269.999 350.549 271.16L350.615 271.426C350.143 271.903 349.779 272.477 349.55 273.108C349.32 273.74 349.23 274.413 349.285 275.082C349.285 275.969 349.418 276.811 349.684 277.609L349.884 278.074C350.682 280.335 351.413 282.329 355.07 281.133C358.527 280.069 358.66 279.803 359.524 278.34L359.79 278.008C360.256 277.21 360.787 277.077 361.319 276.878C361.984 276.678 362.649 276.479 363.314 275.282L363.846 274.418C364.511 273.553 365.308 272.423 365.375 271.093H365.109C364.905 272.245 364.4 273.323 363.646 274.218L362.982 275.149C362.819 275.505 362.579 275.821 362.281 276.073C361.982 276.326 361.631 276.51 361.253 276.612C360.898 276.683 360.562 276.826 360.265 277.032C359.968 277.238 359.716 277.502 359.524 277.808L359.258 278.207C358.46 279.604 358.327 279.803 354.937 280.867C351.546 281.931 350.948 280.268 350.15 277.941L349.95 277.476C349.019 274.949 349.751 272.423 351.014 271.492L351.413 271.16L350.815 271.226V271.16C350.815 270.694 351.28 269.431 352.144 268.168C352.942 267.104 354.804 266.107 354.804 266.04L354.671 265.774C354.538 265.841 352.743 266.905 351.945 267.968Z" fill="black"/>
<path d="M350.349 277.21C350.926 277.564 351.746 277.564 352.809 277.21C352.809 277.542 352.809 278.34 353.474 278.872C354.272 279.537 355.491 279.67 357.131 279.271V278.939C355.535 279.337 354.383 279.227 353.674 278.606C353.462 278.401 353.299 278.151 353.196 277.875C353.092 277.599 353.051 277.304 353.075 277.01V276.744L352.876 276.877C351.901 277.321 351.103 277.321 350.482 276.877C349.485 276.213 349.552 274.417 349.552 274.417H349.286C349.286 274.417 349.153 276.412 350.349 277.21Z" fill="black"/>
<path d="M352.211 274.75C351.856 274.927 351.679 275.171 351.679 275.481V275.681C351.812 276.479 352.676 277.01 353.407 277.21C354.139 277.409 355.136 277.476 355.469 277.01C355.646 276.833 355.646 276.456 355.469 275.88C355.182 275.319 354.692 274.889 354.098 274.679C353.505 274.468 352.853 274.494 352.277 274.75H352.211ZM353.54 276.944C352.876 276.745 352.078 276.279 352.011 275.614C352.011 275.614 351.945 275.149 352.344 275.016C352.857 274.808 353.431 274.802 353.949 274.999C354.467 275.196 354.891 275.582 355.136 276.08C355.313 276.39 355.336 276.612 355.203 276.745C355.003 277.077 354.272 277.143 353.54 276.944ZM353.275 278.739C353.075 280.401 353.275 280.468 353.341 280.468H353.474L353.607 280.401L354.538 279.072L353.341 278.54V278.739H353.275ZM353.607 279.005L354.072 279.204L353.54 279.936L353.607 279.005ZM350.815 277.409L350.748 278.939L352.078 277.343L350.748 277.21L350.815 277.409ZM351.08 277.542H351.479L351.08 278.074V277.542Z" fill="black"/>
<path d="M349.883 276.878C349.883 276.878 350.88 278.806 351.08 279.537C351.213 279.98 351.656 280.357 352.41 280.667C353.163 280.978 353.761 280.956 354.205 280.601L355.069 279.87C355.291 279.559 355.512 279.448 355.734 279.537V279.205C355.379 279.205 355.091 279.338 354.87 279.604L354.005 280.268C353.473 280.667 352.875 280.534 352.543 280.401C351.833 280.136 351.434 279.803 351.346 279.404C351.146 278.739 350.216 276.811 350.149 276.745L349.883 276.878ZM351.213 271.16C350.463 271.554 349.892 272.22 349.617 273.022L349.883 273.088C349.883 273.088 350.349 271.891 351.279 271.426C351.531 271.316 351.803 271.259 352.077 271.259C352.352 271.259 352.623 271.316 352.875 271.426L352.941 271.16C352.321 270.894 351.723 270.894 351.146 271.16H351.213ZM358.393 274.617C358.526 274.617 360.521 276.213 359.391 278.074L359.59 278.274C360.92 276.08 358.593 274.351 358.593 274.285L358.393 274.617ZM352.277 274.883C352.277 274.883 351.944 276.013 353.606 276.412C353.606 276.412 352.077 276.412 351.944 276.013C351.878 275.614 351.944 274.75 352.277 274.883ZM357.263 276.213C357.263 276.346 357.197 276.412 357.064 276.412L356.864 276.279C356.864 276.146 356.931 276.08 357.064 276.08C357.197 276.08 357.263 276.146 357.263 276.279V276.213ZM357.396 277.011C357.396 277.099 357.352 277.144 357.263 277.144L357.064 277.011L357.263 276.811C357.352 276.811 357.396 276.878 357.396 277.011Z" fill="black"/>
<path d="M356.199 276.811C356.31 276.811 356.399 276.722 356.399 276.612C356.399 276.501 356.31 276.412 356.199 276.412C356.089 276.412 356 276.501 356 276.612C356 276.722 356.089 276.811 356.199 276.811Z" fill="black"/>
<path d="M356.733 277.676C356.733 277.728 356.712 277.779 356.674 277.817C356.637 277.854 356.586 277.875 356.533 277.875C356.48 277.875 356.43 277.854 356.392 277.817C356.355 277.779 356.334 277.728 356.334 277.676C356.334 277.587 356.4 277.543 356.533 277.543L356.733 277.676ZM352.012 272.822C352.012 272.875 351.991 272.926 351.954 272.963C351.916 273.001 351.866 273.022 351.813 273.022C351.76 273.022 351.709 273.001 351.672 272.963C351.634 272.926 351.613 272.875 351.613 272.822C351.631 272.795 351.656 272.772 351.685 272.757C351.714 272.741 351.747 272.733 351.779 272.733C351.812 272.733 351.845 272.741 351.874 272.757C351.903 272.772 351.928 272.795 351.946 272.822H352.012Z" fill="black"/>
<path d="M351.946 273.753C352.056 273.753 352.145 273.664 352.145 273.553C352.145 273.443 352.056 273.354 351.946 273.354C351.835 273.354 351.746 273.443 351.746 273.553C351.746 273.664 351.835 273.753 351.946 273.753Z" fill="black"/>
<path d="M350.947 273.42C351.058 273.42 351.147 273.331 351.147 273.221C351.147 273.111 351.058 273.021 350.947 273.021C350.837 273.021 350.748 273.111 350.748 273.221C350.748 273.331 350.837 273.42 350.947 273.42Z" fill="black"/>
<path d="M351.413 274.285L351.28 274.484C351.227 274.484 351.176 274.463 351.139 274.426C351.101 274.388 351.08 274.338 351.08 274.285C351.08 274.232 351.101 274.181 351.139 274.144C351.176 274.106 351.227 274.085 351.28 274.085L351.413 274.285ZM354.604 267.902C354.604 267.902 356.931 269.365 354.67 272.091C354.67 272.091 355.801 271.226 355.867 269.83C355.934 268.434 355.069 267.304 354.537 267.902H354.604ZM363.579 271.825C362.782 272.224 361.718 271.492 361.186 270.828C360.654 270.163 359.524 269.963 358.792 271.226C358.128 272.423 357.13 272.889 357.13 272.889C357.13 272.889 358.128 272.357 359.125 271.226C360.122 270.096 360.721 271.027 361.718 271.559C362.649 272.091 362.848 272.224 363.513 271.891V271.825H363.579Z" fill="black"/>
<path d="M363.38 272.024C363.156 272.157 362.898 272.222 362.638 272.21C362.378 272.198 362.128 272.111 361.917 271.958C361.252 271.426 360.787 270.761 360.055 271.16C359.258 271.559 357.861 272.622 357.861 272.622C357.861 272.622 360.188 271.027 360.654 271.426C361.053 271.758 362.116 272.622 362.715 272.357L363.38 272.024Z" fill="black"/>
<path d="M361.586 272.955C360.855 272.423 360.123 273.62 359.525 273.487C358.86 273.354 358.395 272.29 358.395 272.29C358.395 272.29 358.926 273.354 359.724 273.154C360.589 272.888 361.12 272.357 361.652 272.755C362.184 273.154 361.586 272.955 361.586 272.955Z" fill="black"/>
<path d="M360.455 273.154C360.265 273.193 360.069 273.19 359.88 273.145C359.692 273.1 359.515 273.015 359.363 272.894C359.211 272.774 359.087 272.622 359 272.448C358.913 272.275 358.865 272.085 358.859 271.891C358.859 271.891 359.325 273.088 360.588 272.888L360.455 273.154Z" fill="black"/>
<path d="M360.388 272.224C360.521 272.578 360.41 272.756 360.055 272.756C359.568 272.756 359.346 272.578 359.39 272.224C359.39 271.891 360.321 271.958 360.388 272.224ZM355.202 270.229C355.162 270.328 355.099 270.416 355.018 270.485C354.937 270.555 354.84 270.604 354.736 270.628C354.471 270.628 354.36 270.495 354.404 270.229C354.471 269.83 354.404 269.764 354.736 269.764C355.069 269.764 355.202 269.963 355.202 270.229Z" fill="black"/>
<path d="M353.541 268.567C353.541 268.567 356.068 268.567 354.871 271.692C354.871 271.692 355.802 270.163 355.203 269.032C354.538 267.969 353.674 268.235 353.674 268.235C353.674 268.235 353.408 268.434 353.541 268.567Z" fill="black"/>
<path d="M353.541 269.83C353.541 270.45 353.94 271.093 354.738 271.758L354.937 271.492C354.184 270.916 353.807 270.362 353.807 269.83C353.807 269.032 354.206 268.966 354.206 268.966L354.006 268.766C354.006 268.766 353.541 269.165 353.475 269.83H353.541Z" fill="black"/>
<path d="M354.073 270.362C354.162 270.717 354.428 270.983 354.871 271.16L355.004 270.894C354.649 270.761 354.428 270.539 354.339 270.229C354.206 269.697 354.605 269.099 354.605 269.099L354.339 268.899C354.339 268.899 353.874 269.697 354.073 270.362ZM357.464 272.091C357.464 272.091 357.929 273.088 357.264 274.152L356.6 275.216C356.6 275.216 357.397 273.686 357.065 273.088C356.733 272.49 357.464 272.091 357.464 272.091ZM367.171 282.596C369.697 283.061 375.482 287.582 375.482 287.582L375.814 287.183C375.615 286.984 369.897 282.529 367.237 282.064L367.171 282.596ZM369.431 288.912C369.564 291.239 372.091 292.635 372.091 292.701L372.423 292.236C372.423 292.236 370.096 290.906 369.963 288.912H369.431ZM363.248 289.444C363.248 291.97 365.642 295.028 365.775 295.161L366.174 294.829C366.174 294.829 363.78 291.771 363.78 289.444H363.248ZM355.203 289.71C355.558 290.552 355.647 291.039 355.469 291.172C355.248 291.394 355.115 291.482 355.07 291.438L355.137 291.97C355.403 291.97 355.669 291.793 355.935 291.438C356.201 290.995 356.112 290.33 355.669 289.444L355.203 289.71Z" fill="black"/>
<path d="M319 277.1C319 277.1 319 278.8 320.4 279.8C320.4 279.8 320.2 278 320.6 277.2C320.6 277.2 319.9 276.4 318.9 277.2L319 277.1ZM321.6 278.2C321.6 278.2 321.9 279.7 322.8 280.4L323.3 280.3C323.3 280.3 323.6 278.3 323.9 278.1C324.2 277.9 322.6 278.8 321.6 278.2Z" fill="white" stroke="black" stroke-width="0.2" stroke-miterlimit="3"/>
<path d="M323.901 278.1L324.901 279.7L326.101 279.1L325.801 277.2C325.801 277.2 325.101 277 323.801 278.2L323.901 278.1Z" fill="white" stroke="black" stroke-width="0.2" stroke-miterlimit="3"/>
<path d="M328.6 278.4L327.3 279.5C327.3 279.5 326.6 279 326 279.1L326.3 277.4C326.3 277.4 327.3 276.7 328.6 278.4ZM319.2 294.4C319.2 294.4 319 292.1 319.3 291.9C319.3 291.9 320.3 292.2 320.6 291.9C320.6 291.9 321.2 293.8 321 294.5C320.8 295.2 320 295 319.2 294.5V294.4ZM325.2 292C325.2 292 325.2 290 325.5 289.7C325.5 289.7 327.5 290 327.9 289L328.6 290.9C328.6 290.9 326.4 290.7 325.2 291.9V292Z" fill="white" stroke="black" stroke-width="0.2" stroke-miterlimit="3"/>
<path d="M323.1 292.4C323.1 292.4 323.5 290.3 323.9 290.2C323.9 290.2 324.9 290.5 325.2 290.2V292.7C325.2 292.7 325.2 291.6 323.2 292.4H323.1ZM320.9 292.7C320.9 292.7 321.3 290.8 321.6 290.8C321.9 290.8 322.7 291.3 323.1 291V292.4C323.1 292.4 321.4 292 321.1 294.4L320.9 292.7Z" fill="white"/>
<path d="M323.1 292.4C323.1 292.4 323.5 290.3 323.9 290.2C323.9 290.2 324.9 290.5 325.2 290.2V292.7C325.2 292.7 325.2 291.6 323.2 292.4H323.1ZM323.1 292.4V291C322.7 291.3 321.9 290.8 321.6 290.8C321.3 290.8 320.9 292.7 320.9 292.7L321.1 294.4C321.4 292 323.1 292.4 323.1 292.4Z" stroke="black" stroke-width="0.2" stroke-miterlimit="3"/>
<path d="M351 331.2C351 331.2 356.3 336.2 355 340.4C355 340.4 358.3 333.1 354.7 331C351 328.8 350.9 330.5 351 331.2Z" fill="#00A651" stroke="black" stroke-width="0.5" stroke-miterlimit="4.8"/>
<path d="M344.399 336C344.399 336 342.999 337.9 344.499 339.2C344.499 339.2 342.899 341.6 344.099 343.6C344.099 343.6 343.099 345.7 343.399 348C343.399 348 342.499 351.5 344.399 353.1C344.399 353.1 346.399 354.1 347.299 353.3C347.299 353.3 348.999 350.6 347.899 347.9C347.899 347.9 349.199 345.6 347.799 342.8C347.799 342.8 348.199 341.1 346.999 339.2C346.999 339.2 347.799 338 347.099 337C347.099 337 344.599 334.4 344.399 336Z" fill="#964B36" stroke="black" stroke-width="0.5" stroke-miterlimit="4.8"/>
<path d="M345.9 329.8C345.9 329.8 339.6 317.8 335.2 317.3C330.8 316.8 330.6 312.5 330.6 312.5C330.6 312.5 331.1 314.5 334.6 314.5C338.1 314.5 344.9 319.5 345.6 323.2C346.4 327 347.1 326.5 347.1 326.5L345.9 329.8Z" fill="#00A651" stroke="black" stroke-width="0.5" stroke-miterlimit="4.8"/>
<path d="M345.899 329C345.899 329 348.199 313.8 358.099 313.5C367.999 313.2 364.699 314.3 367.099 312.7C367.099 312.7 360.399 316.2 356.299 316.7C352.199 317.2 348.799 325.2 348.899 326.7C348.999 328.2 346.699 331.1 345.499 330.1C344.299 329.1 345.899 329 345.899 329Z" fill="#00A651" stroke="black" stroke-width="0.5" stroke-miterlimit="4.8"/>
<path d="M348.099 334.6C348.099 334.6 350.399 328.6 354.299 330.6C354.299 330.6 351.299 324.8 345.899 329.8C345.899 329.8 348.299 333.1 348.199 334.6H348.099ZM340.599 328.6C340.599 328.6 343.999 342 338.999 346C338.999 346 339.099 339.1 336.099 335C333.099 330.9 339.099 326.4 340.699 328.5L340.599 328.6Z" fill="#00A651" stroke="black" stroke-width="0.5" stroke-miterlimit="4.8"/>
<path d="M341 331C341 331 347 336.6 347.3 338.5C347.7 340.4 349 332.9 346.3 330.7C344.582 329.436 342.599 328.581 340.5 328.2L341 331Z" fill="#00A651" stroke="black" stroke-width="0.5" stroke-miterlimit="4.8"/>
<path d="M330.1 345.8C330.1 345.8 330.7 348.1 332.1 348.6C332.1 348.6 332.2 350.3 333.5 350.9C333.5 350.9 332.8 352.3 334 353.2C334 353.2 333.7 356.2 334.8 356.8C334.8 356.8 337.4 356.6 338.3 355.8C338.3 355.8 338.9 353.9 337.4 352C337.4 352 337.6 350.2 336.2 349.2C336.2 349.2 336.6 346.7 334.8 345.8C334.8 345.8 334.5 343.8 333.4 342.8C333.4 342.8 331.1 346 330.1 345.8Z" fill="#964B36" stroke="black" stroke-width="0.5" stroke-miterlimit="4.8"/>
<path d="M333 342.9C333 342.9 325.3 340 321 344.1C321 344.1 327.6 345 328.5 346.3C329.3 347.6 333.4 344.2 333.1 342.9H333Z" fill="#00A651" stroke="black" stroke-width="0.5" stroke-miterlimit="4.8"/>
<path d="M330.699 347.7L329.299 346.6C328.499 346.1 321.999 344.3 321.099 350.6C321.099 350.6 318.799 344.4 322.199 343.6C325.599 342.6 328.399 344.6 330.699 347.6M325.599 334.9C325.599 334.9 327.999 339.9 328.899 340.3C329.699 340.5 330.399 339.6 330.399 339.6C330.399 339.6 327.199 335 325.599 334.9ZM323.799 326.9C323.799 326.9 321.799 320.3 319.499 322.1C317.099 323.8 317.699 328.6 317.699 328.6C317.699 328.6 312.899 323.7 315.699 319.8C318.499 315.9 323.899 320.2 323.899 327L323.799 326.9Z" fill="#00A651"/>
<path d="M330.699 347.7L329.299 346.6C328.499 346.1 321.999 344.3 321.099 350.6C321.099 350.6 318.799 344.4 322.199 343.6C325.599 342.6 328.399 344.6 330.699 347.6M325.599 334.9C325.599 334.9 327.999 339.9 328.899 340.3C329.699 340.5 330.399 339.6 330.399 339.6C330.399 339.6 327.199 335 325.599 334.9ZM323.799 326.9C323.799 326.9 321.799 320.3 319.499 322.1C317.099 323.8 317.699 328.6 317.699 328.6C317.699 328.6 312.899 323.7 315.699 319.8C318.499 315.9 323.899 320.2 323.899 327L323.799 326.9Z" stroke="black" stroke-width="0.5" stroke-miterlimit="4.8"/>
<path d="M329.199 340.6C329.199 340.6 329.199 341.9 330.199 342.2C330.999 342.6 332.599 343.2 332.599 342.5C332.599 341.8 331.399 338.9 330.899 339.2C330.399 339.5 329.499 339.6 329.199 340.6Z" fill="#964B36" stroke="black" stroke-width="0.5" stroke-miterlimit="4.8"/>
<path d="M327.699 332.9C327.699 332.9 327.499 327.1 331.199 324.9C331.199 324.9 331.999 325.1 332.399 323.9C332.399 323.9 329.399 331.2 330.199 334.9V335.4" fill="#00A651"/>
<path d="M327.699 332.9C327.699 332.9 327.499 327.1 331.199 324.9C331.199 324.9 331.999 325.1 332.399 323.9C332.399 323.9 329.399 331.2 330.199 334.9V335.4" stroke="black" stroke-width="0.5" stroke-miterlimit="4.8"/>
<path d="M328.5 325.8C328.5 325.8 335.3 311.8 343.5 316.7C343.5 316.7 334.9 318.4 331.8 324.6L328.6 329.2L328.5 325.8Z" fill="#00A651" stroke="black" stroke-width="0.5" stroke-miterlimit="4.8"/>
<path d="M324.899 331C324.899 331 322.899 321.6 321.599 320.3C320.299 319 318.199 317.7 315.699 319.8C315.699 319.8 320.099 315.9 324.699 319.2C329.399 322.5 328.399 327.6 328.399 327.6L327.899 334.1L324.699 331.2" fill="#00A651"/>
<path d="M324.899 331C324.899 331 322.899 321.6 321.599 320.3C320.299 319 318.199 317.7 315.699 319.8C315.699 319.8 320.099 315.9 324.699 319.2C329.399 322.5 328.399 327.6 328.399 327.6L327.899 334.1L324.699 331.2" stroke="black" stroke-width="0.5" stroke-miterlimit="4.8"/>
<path d="M332.1 342.1C332.1 342.1 323.8 326.5 318.5 337.6C318.5 337.6 317.5 340.5 318.5 341.6C318.5 341.6 315.5 339.4 316.9 333.8C318.3 328.4 327.5 330.8 330.1 335.4C332.633 339.8 333.633 342.133 333.1 342.4C332.7 342.6 332.1 342.1 332.1 342.1ZM355.4 346.6C355.4 346.6 361.4 334.2 365 339.9C365 339.9 366 342.6 364.4 343.8C364.4 343.8 362.1 340.8 359.9 344.4C357.9 347.9 358.7 347.6 358.7 347.6C358.7 347.6 356.4 348.3 355.4 346.6Z" fill="#00A651" stroke="black" stroke-width="0.5" stroke-miterlimit="4.8"/>
<path d="M364.398 343.8C364.398 343.8 367.698 345.5 366.598 349C366.598 349 370.998 340.6 364.898 339.9C364.898 339.9 366.098 342.5 364.498 343.8H364.398ZM364.798 335.2C364.798 335.2 372.798 337.5 372.998 340.9C372.998 340.9 374.298 334.4 369.798 332.4C369.798 332.4 364.398 333.2 364.798 335.2Z" fill="#00A651" stroke="black" stroke-width="0.5" stroke-miterlimit="4.8"/>
<path d="M368.299 324.8C371.699 318.2 375.999 327 375.999 327C375.999 327 377.499 320 373.199 318.8C368.899 317.6 366.199 333.5 366.199 333.5L361.199 334.6C361.199 334.6 362.599 320.7 370.099 319.4L370.999 319.6" fill="#00A651"/>
<path d="M368.299 324.8C371.699 318.2 375.999 327 375.999 327C375.999 327 377.499 320 373.199 318.8C368.899 317.6 366.199 333.5 366.199 333.5L361.199 334.6C361.199 334.6 362.599 320.7 370.099 319.4L370.999 319.6" stroke="black" stroke-width="0.5" stroke-miterlimit="4.8"/>
<path d="M362.299 328.8C362.299 328.8 357.499 319.1 354.299 318.1C351.099 317.1 356.099 315.6 358.099 317.4C360.099 319.4 363.799 321.7 363.399 326.7L362.399 328.8H362.299ZM357.399 342.2C357.399 342.2 358.799 335.6 362.599 333.6C366.299 331.6 369.799 332.3 369.799 332.3C369.799 332.3 365.299 333.3 364.599 335.6C363.899 337.9 362.599 338 362.599 338L357.399 342.2Z" fill="#00A651" stroke="black" stroke-width="0.5" stroke-miterlimit="4.8"/>
<path d="M355.398 346.6C355.398 346.6 353.298 350.6 353.798 351.3C353.798 351.3 351.498 354.5 352.398 356.2C352.398 356.2 354.698 357.9 355.698 357.2C355.698 357.2 358.298 353.5 357.598 351.5C357.598 351.5 359.298 349.1 358.598 347.6C358.598 347.6 356.098 347.8 355.398 346.6Z" fill="#964B36" stroke="black" stroke-width="0.5" stroke-miterlimit="4.8"/>
<path d="M344.4 339.5C344.5 339.5 345.8 340.2 346.7 339.9L347.3 339.4L346.8 339.1C346.5 339.7 345.1 339.2 344.6 339L344.4 339.5ZM344.2 343.4L344.1 343.9C344.2 343.9 346.7 344.4 348 343.3L347.6 342.9C346.6 343.9 344.2 343.4 344.2 343.4ZM343.5 347.8L343.2 348.2C343.2 348.2 346.2 350.4 348.2 348.1L347.7 347.7C346.1 349.7 343.7 347.9 343.6 347.7L343.5 347.8ZM332.1 348.4V348.7C332.3 348.7 334.8 347.7 335 345.8H334.7C334.5 347.5 332.1 348.4 332.1 348.4ZM333.5 350.7V351C333.6 351 335.9 350.8 336.3 349.2H336C335.7 350.6 333.5 350.7 333.5 350.7ZM334 353.1V353.4C334 353.4 336.7 353.5 337.5 352.1L337.3 351.9C336.5 353.2 334 353.1 334 353.1ZM353.6 351.5C353.6 351.5 354.8 352.6 356.1 352.5C356.427 352.516 356.753 352.452 357.049 352.312C357.346 352.173 357.603 351.962 357.8 351.7L357.4 351.4C357.055 351.754 356.592 351.967 356.1 352C355.701 351.982 355.309 351.884 354.949 351.712C354.588 351.54 354.265 351.298 354 351L353.6 351.5Z" fill="#000001"/>
<path d="M440.6 358.3C440.6 358.166 440.533 358.1 440.4 358.1L440 357.3H439.7L439 355.9V355.3C438.867 355.3 438.767 355.233 438.7 355.1V354.4L438.6 354V353C438.333 352.666 438.2 352.266 438.2 351.8L438.3 350.8L438.1 349.8L438.3 348.9V343.6L438.1 342.6V340.6L438 343.1C438 340.9 437.8 338.8 437.8 338.8L434.5 337.3C434.5 337.3 434.2 343.4 434.3 344.3C434.3 345.1 434.6 351 434.5 351.7C434.3 352.4 434 355.9 434 355.9C434 355.9 432.4 357.1 431.7 358.4C431.1 359.6 431.2 360.1 431 360.1L432.6 359.8L431.4 360.6L432.1 360.7L432.4 360.9L432.6 360.7L433.3 361.1L433.7 360.8L433.9 360.4H435C435.267 360.333 435.533 360.1 435.8 359.7C436.067 359.5 436.333 359.4 436.6 359.4C436.933 359.466 437.233 359.6 437.5 359.8C437.7 359.8 437.9 359.7 438.1 359.5L438.4 358.9H440.3L440.6 359.1L440.7 358.7V358.3H440.6Z" fill="#964B36"/>
<path d="M431.4 360.6L431 360.9M431.4 360.6L432.6 359.8L431 360.1C431.2 360.1 431.1 359.6 431.7 358.4C432.4 357.1 434 355.9 434 355.9C434 355.9 434.3 352.4 434.5 351.7C434.6 351 434.3 345.1 434.3 344.3C434.2 343.4 434.5 337.3 434.5 337.3L437.8 338.8C437.8 338.8 438 340.9 438 343.1L438.1 340.6V342.6L438.3 343.6V348.9L438.1 349.8L438.3 350.8L438.2 351.8C438.2 352.266 438.333 352.666 438.6 353V354L438.7 354.4V355.1C438.767 355.233 438.867 355.3 439 355.3V355.9L439.7 357.3H440L440.4 358.1C440.533 358.1 440.6 358.166 440.6 358.3H440.7V358.7L440.6 359.1L440.3 358.9H438.4L438.1 359.5C437.9 359.7 437.7 359.8 437.5 359.8C437.233 359.6 436.933 359.466 436.6 359.4C436.333 359.4 436.067 359.5 435.8 359.7C435.533 360.1 435.267 360.333 435 360.4H433.9L433.7 360.8L433.3 361.1L432.6 360.7L432.4 360.9L432.1 360.7L431.4 360.6Z" stroke="black" stroke-width="0.3" stroke-miterlimit="4.8"/>
<path d="M433.9 360.5L434.4 360.6L434.5 360.8H434.7L435 360.9H435.3L435.7 361C435.9 361.066 436.1 361.033 436.3 360.9C436.5 360.766 436.667 360.833 436.8 361.1C437 361.5 437 361.2 437.1 361.1V361L437.4 360.9L437.8 360.8L438.1 360.6L438.5 360.8L438.7 360.9L439.5 360.3H440.8C440.8 360.166 440.9 360.1 441.1 360.1L441.8 360.5C441.9 360.5 442.5 360.7 442.4 360.2C442.3 359.7 442 360.1 441.9 359.8V359.2L441.5 358.8H441.2L441 358.3H440.6L440.4 358.1C440.1 357.8 439.9 358.3 439.7 358.2L439.1 357.5C439.033 357.233 438.9 357.1 438.7 357.1L438.6 357.8H438.2L437.9 358.1C437.7 358.433 437.467 358.633 437.2 358.7L436.7 358.5C436.633 358.633 436.5 358.733 436.3 358.8H435.9C435.7 358.733 435.567 358.6 435.5 358.4C435.5 358.373 435.489 358.348 435.471 358.329C435.452 358.31 435.427 358.3 435.4 358.3C435.373 358.3 435.348 358.31 435.329 358.329C435.311 358.348 435.3 358.373 435.3 358.4L435.1 358.3C434.967 358.233 434.867 358.3 434.8 358.5V359L434.4 359.4L434 359.5C433.9 359.5 433.7 359.8 433.6 359.5C433.5 359.1 433.9 358.4 433.4 358.5L433.1 358.8V359.4C433.1 359.7 432.5 360.2 432.6 360.4C432.6 360.7 432.9 360.4 433 360.4L433.2 360.8C433.3 361.1 433.9 360.4 433.9 360.8M431.8 358.1V358L431.3 357.8L430.9 358.2C430.6 358.7 430.7 359.2 430.2 359.2H429.8V360.2C429.667 360.2 429.567 360.266 429.5 360.4C429.567 360.666 429.7 360.766 429.9 360.7H430.9L431.5 360.5L432 360.4L432.2 359.9V359.5L432.5 359.1C432.5 358.4 431.8 358.9 431.9 358.2" fill="#964B36"/>
<path d="M433.9 360.5L434.4 360.6L434.5 360.8H434.7L435 360.9H435.3L435.7 361C435.9 361.066 436.1 361.033 436.3 360.9C436.5 360.766 436.667 360.833 436.8 361.1C437 361.5 437 361.2 437.1 361.1V361L437.4 360.9L437.8 360.8L438.1 360.6L438.5 360.8L438.7 360.9L439.5 360.3H440.8C440.8 360.166 440.9 360.1 441.1 360.1L441.8 360.5C441.9 360.5 442.5 360.7 442.4 360.2C442.3 359.7 442 360.1 441.9 359.8V359.2L441.5 358.8H441.2L441 358.3H440.6L440.4 358.1C440.1 357.8 439.9 358.3 439.7 358.2L439.1 357.5C439.033 357.233 438.9 357.1 438.7 357.1L438.6 357.8H438.2L437.9 358.1C437.7 358.433 437.467 358.633 437.2 358.7L436.7 358.5C436.633 358.633 436.5 358.733 436.3 358.8H435.9C435.7 358.733 435.567 358.6 435.5 358.4C435.5 358.373 435.489 358.348 435.471 358.329C435.452 358.31 435.427 358.3 435.4 358.3C435.373 358.3 435.348 358.31 435.329 358.329C435.311 358.348 435.3 358.373 435.3 358.4L435.1 358.3C434.967 358.233 434.867 358.3 434.8 358.5V359L434.4 359.4L434 359.5C433.9 359.5 433.7 359.8 433.6 359.5C433.5 359.1 433.9 358.4 433.4 358.5L433.1 358.8V359.4C433.1 359.7 432.5 360.2 432.6 360.4C432.6 360.7 432.9 360.4 433 360.4L433.2 360.8C433.3 361.1 433.9 360.4 433.9 360.8M431.8 358.1V358L431.3 357.8L430.9 358.2C430.6 358.7 430.7 359.2 430.2 359.2H429.8V360.2C429.667 360.2 429.567 360.266 429.5 360.4C429.567 360.666 429.7 360.766 429.9 360.7H430.9L431.5 360.5L432 360.4L432.2 359.9V359.5L432.5 359.1C432.5 358.4 431.8 358.9 431.9 358.2" stroke="black" stroke-width="0.3" stroke-miterlimit="4.8"/>
<path d="M440.198 338.7C440.132 339.767 439.665 340.333 438.798 340.4C437.932 340.267 437.465 339.7 437.398 338.7C437.465 337.7 437.932 337.167 438.798 337.1C439.665 337.167 440.132 337.7 440.198 338.7ZM435.698 336.7C435.565 337.767 435.098 338.3 434.298 338.3C433.432 338.233 432.965 337.7 432.898 336.7C432.965 335.7 433.432 335.167 434.298 335.1C435.098 335.167 435.565 335.7 435.698 336.7Z" fill="black" stroke="black" stroke-width="0.5" stroke-miterlimit="4.8"/>
<path d="M437.999 337.3C437.932 338.367 437.499 338.934 436.699 339C435.832 338.867 435.365 338.3 435.299 337.3C435.365 336.3 435.832 335.767 436.699 335.7C437.499 335.767 437.932 336.3 437.999 337.3Z" fill="black" stroke="black" stroke-width="0.5" stroke-miterlimit="4.8"/>
<path d="M435.698 338.8C435.631 339.867 435.198 340.434 434.398 340.5C433.531 340.367 433.065 339.8 432.998 338.8C433.065 337.8 433.531 337.267 434.398 337.2C435.198 337.267 435.631 337.8 435.698 338.8Z" fill="black" stroke="black" stroke-width="0.5" stroke-miterlimit="4.8"/>
<path d="M437.898 340C437.831 341.067 437.364 341.633 436.498 341.7C435.631 341.633 435.164 341.1 435.098 340.1C435.164 339.033 435.631 338.467 436.498 338.4C437.364 338.533 437.831 339.1 437.898 340.1V340Z" fill="black" stroke="black" stroke-width="0.5" stroke-miterlimit="4.8"/>
<path d="M438.498 322.3C438.498 322.3 452.498 302.9 467.398 323.1C467.398 323.1 467.398 325.1 466.098 327.1L465.698 325.6L464.898 325.8L464.598 324.8L462.998 324.7L463.498 322.6L461.698 323.9L461.998 322.4L459.998 324.4L460.198 320.2L458.098 323.8L458.298 321.3L457.598 322.4L457.098 321L456.498 322.4L455.498 321.7V322.7L453.698 321.2L453.098 323.2L452.098 321.1L451.898 322.5L451.098 320.8L450.898 322.7L448.098 321.4L448.698 323.2L447.298 322.2L447.598 323.2L445.598 322.8L445.798 323.9L443.798 323.6L444.198 324.6L441.398 324.2L442.398 325.3L442.098 325.8C442.098 325.8 457.198 320.8 458.198 339.6L455.498 341L456.198 339.5L455.498 339L453.198 337.2L453.798 334.8L453.098 335.1L452.898 333.7L452.598 334L451.598 332.6L451.398 333.1L450.798 331.4L450.198 332.6L449.798 329.8L448.798 331.6L448.698 330.6L448.298 331.2L447.098 329.7L446.698 330.7L446.198 329.9L445.798 330.9L444.398 329.6V330.6L443.598 329.8L443.198 330.3L440.998 329.2V330.2L439.798 329.2L439.398 330.2C439.398 330.2 453.098 338 448.798 350.6L448.098 352.3L447.798 348L446.598 350.3L447.398 345.3L446.598 346.3L446.398 344.3L445.298 346.3L444.898 344.1L444.398 344.7L443.698 341.5L442.998 342.9L441.998 339.2L441.298 340.7L440.798 337.6L440.298 339.5L438.798 336.7L438.498 337.8L437.698 335.6L437.198 336.3C437.198 336.3 434.698 336.3 433.898 335.6C433.098 334.9 430.998 339.4 430.998 339.4L431.298 336.7L430.298 338.5V336.7L428.798 342L428.398 338.2L427.498 341.5L427.098 340.5L426.898 341.9L426.398 341.4L425.898 342.8L425.098 342.2V344.2L424.398 343.2L423.698 346.2L423.398 345V346.4L422.698 345.6L422.098 348.6L421.198 347.4V349.5L421.498 351.1L420.498 350.6L420.898 353.3C420.898 353.3 416.898 346 421.598 339C426.298 332 432.598 330 432.598 330L431.898 329.5L431.798 328.8L427.998 330.8L428.098 329.6L427.098 330.4L426.898 329.2L426.298 330.3L426.098 329.8L425.298 331.2L424.798 329.2L424.098 331.6L423.498 329.9L422.198 333.5V330.8L421.198 333.6L420.898 330.6L420.098 334.1V330.9L418.998 334.1L418.198 331.1L417.698 334L416.998 331.7L416.198 335.1L415.098 332.1L414.498 336.6L413.698 334.8L413.598 338.1L412.698 336.1L413.598 340.3L412.498 338.7L412.798 341.3L411.198 338.5L411.298 341.9L410.498 340.7L410.098 342C410.098 342 409.698 329 418.598 326.4C427.498 323.8 433.298 327.2 433.298 327.2L429.898 324.4L430.298 323.6H428.998L429.498 322.6H426.998L427.698 321.6L425.698 321.9V321.3L424.498 322.3L424.998 321.2L423.198 322.3V320.6L422.198 322.1L421.698 320.6L417.698 324.6L418.798 320.4L418.098 321.4L417.998 320.4L416.798 322.2L416.598 320.9L416.098 322.4L415.698 320.7L414.798 322.4L413.998 320.8L413.598 322.9L412.898 321.9L412.198 323.4L411.198 322.4L411.098 323.4L409.098 322.6L409.598 324.1L408.098 322.8L407.698 324.8L406.798 323.8L406.198 326.3L405.598 323.9L404.898 325.9C404.898 325.9 412.798 305.7 432.598 318.9C432.598 318.9 434.798 320.9 435.298 322.4C435.798 323.9 435.298 322.7 435.298 322.7L434.998 308.7L435.798 314.7L436.298 312.7L436.098 315.7L438.098 311.4C438.098 311.4 435.798 318.7 436.598 321.4C436.598 321.4 437.598 312.9 440.598 311.9L437.798 317.9L438.598 317.8L437.998 319H438.798L437.798 321L437.398 322L437.898 323L438.598 322.3H438.498Z" fill="#00A651" stroke="black" stroke-width="0.5" stroke-miterlimit="4.8"/>
<path d="M436.499 330.5L436.899 330.8C436.899 330.8 438.199 329.5 440.199 331.2L440.599 330.8C438.099 328.7 436.499 330.5 436.499 330.5ZM435.899 323.7L435.799 324.1L436.799 323.7L436.099 324.9L437.499 324.4L435.699 326.7L436.199 327.1L438.999 323.3L437.199 323.9L437.999 322.6L436.499 323.3L436.799 321.3H436.299L435.899 323.7Z" fill="black"/>
<path d="M433.198 323.8L433.798 325.2L432.798 324.8L435.798 329.8L436.098 329.4L435.498 330.9L435.998 331.1L437.298 327.9L436.798 327.6L435.798 328.9L434.098 325.9L434.898 326.2L434.098 324.4L435.098 325.1V323.1H434.598V324.1L432.998 323L433.298 323.8H433.198ZM431.398 330.2L431.598 330.7C432.332 330.367 432.998 330.333 433.598 330.6C434.098 330.8 434.298 331.4 434.298 331.4L434.798 331.3C434.798 331.3 434.598 330.5 433.798 330.1C433.132 329.767 432.332 329.8 431.398 330.2ZM433.598 335.6L433.198 332.8H433.698L434.198 335.6H433.598ZM437.498 335.2L436.798 333L437.298 332.9L437.998 335L437.498 335.2ZM438.898 336.8L438.398 334.6L438.898 334.5L439.398 336.6L438.898 336.8Z" fill="black"/>
<path d="M331.999 401C331.999 401 329.599 400 328.499 400.8C327.499 401.6 327.499 402.7 326.599 402.6C326.599 402.6 330.199 403.4 330.999 402.5L331.999 401.3M332.399 402.1C332.399 402.1 330.799 404.1 331.399 405.3C331.899 406.5 332.999 406.6 332.799 407.5C332.799 407.5 334.299 404.2 333.599 403.3L332.599 402.1M329.799 396.3C329.799 396.3 327.299 397.1 326.999 398.3C326.699 399.7 327.599 400.4 326.899 401C326.899 401 329.999 399.2 329.999 398L329.899 396.5M331.199 397.2C331.199 397.2 332.399 394.9 331.599 393.8C330.799 392.7 329.699 392.8 329.899 391.8C329.899 391.8 328.899 395.4 329.899 396.2L330.899 397.2M328.799 396.3C328.799 396.3 328.799 393.8 327.699 393.1C326.599 392.4 325.599 393 325.299 392.1C325.299 392.1 325.899 395.7 327.099 396.1L328.599 396.4M332.999 400.6C332.999 400.6 335.699 399.7 335.999 402.6C336.099 405.6 335.799 404.6 335.799 404.6C335.799 404.6 334.399 401.4 332.799 400.9L332.999 400.6Z" fill="#00A651"/>
<path d="M331.999 401C331.999 401 329.599 400 328.499 400.8C327.499 401.6 327.499 402.7 326.599 402.6C326.599 402.6 330.199 403.4 330.999 402.5L331.999 401.3M332.399 402.1C332.399 402.1 330.799 404.1 331.399 405.3C331.899 406.5 332.999 406.6 332.799 407.5C332.799 407.5 334.299 404.2 333.599 403.3L332.599 402.1M329.799 396.3C329.799 396.3 327.299 397.1 326.999 398.3C326.699 399.7 327.599 400.4 326.899 401C326.899 401 329.999 399.2 329.999 398L329.899 396.5M331.199 397.2C331.199 397.2 332.399 394.9 331.599 393.8C330.799 392.7 329.699 392.8 329.899 391.8C329.899 391.8 328.899 395.4 329.899 396.2L330.899 397.2M328.799 396.3C328.799 396.3 328.799 393.8 327.699 393.1C326.599 392.4 325.599 393 325.299 392.1C325.299 392.1 325.899 395.7 327.099 396.1L328.599 396.4M332.999 400.6C332.999 400.6 335.699 399.7 335.999 402.6C336.099 405.6 335.799 404.6 335.799 404.6C335.799 404.6 334.399 401.4 332.799 400.9L332.999 400.6Z" stroke="black" stroke-width="0.5" stroke-miterlimit="4.8"/>
<path d="M332.299 402.1L332.599 404.4H332.999L332.699 402.1L333.699 397.2H333.199L332.299 402.1Z" fill="black"/>
<path d="M329.899 401.4L329.699 401.7C330.999 402.2 332.799 400.7 332.899 400.7L332.699 400.4C332.699 400.4 330.899 401.8 329.899 401.4ZM333.199 398.5L327.199 395.5L327.399 395L333.399 398L333.199 398.5Z" fill="black"/>
<path d="M328.9 397.8L328.5 397.5L329.7 396.2L330.1 396.6L328.9 397.8ZM330.9 397.2L329.7 394.5L330.2 394.2L331.5 397L330.9 397.2ZM332.8 400.6V401.2C334.4 401.1 334.8 402.2 334.8 402.2L335.4 402C335.4 401.7 334.7 400.5 332.8 400.6Z" fill="black"/>
<path d="M360.5 401.9C362.5 400.8 362.9 396.8 362.9 396.8C362.5 398.2 358.8 399.7 358.8 399.7C361.5 398 364.8 390.3 364.8 390.3C363.9 393.1 356.8 395.3 352.1 397.9C347.4 400.5 349.9 407.9 349.9 407.9C347.709 405.61 346.247 402.721 345.7 399.6C345.2 396.1 343.8 394.8 340.7 394.4C337.5 394 335.7 397.5 335.7 397.5L331 400L335.7 400.2C335.7 400.2 339.1 401.3 339.1 404C339.1 406.7 336.1 417.3 341.1 423.3C344.5 427.4 357.1 429.8 357.1 429.8" fill="white"/>
<path d="M360.5 401.9C362.5 400.8 362.9 396.8 362.9 396.8C362.5 398.2 358.8 399.7 358.8 399.7C361.5 398 364.8 390.3 364.8 390.3C363.9 393.1 356.8 395.3 352.1 397.9C347.4 400.5 349.9 407.9 349.9 407.9C347.709 405.61 346.247 402.721 345.7 399.6C345.2 396.1 343.8 394.8 340.7 394.4C337.5 394 335.7 397.5 335.7 397.5L331 400L335.7 400.2C335.7 400.2 339.1 401.3 339.1 404C339.1 406.7 336.1 417.3 341.1 423.3C344.5 427.4 357.1 429.8 357.1 429.8" stroke="black" stroke-width="0.7" stroke-miterlimit="4.8"/>
<path d="M351.299 410.1C351.299 410.1 352.299 405.3 355.299 405.5C358.499 405.7 359.399 402 361.299 401.4C363.099 400.8 372.699 398.3 373.799 393.6C373.799 393.6 372.799 401.2 364.099 405C364.099 405 371.099 402.7 371.999 401.1C371.999 401.1 368.799 407.9 361.199 409C361.199 409 368.399 408.4 369.399 406.5C369.399 406.5 366.199 410.8 360.899 411.3C360.899 411.3 365.799 413.3 367.099 411.6C367.099 411.6 364.399 414.8 361.099 415L361.999 415.3C361.999 415.3 358.799 419 355.399 416.5C351.899 414 351.799 417.1 351.799 417.1" fill="white"/>
<path d="M351.299 410.1C351.299 410.1 352.299 405.3 355.299 405.5C358.499 405.7 359.399 402 361.299 401.4C363.099 400.8 372.699 398.3 373.799 393.6C373.799 393.6 372.799 401.2 364.099 405C364.099 405 371.099 402.7 371.999 401.1C371.999 401.1 368.799 407.9 361.199 409C361.199 409 368.399 408.4 369.399 406.5C369.399 406.5 366.199 410.8 360.899 411.3C360.899 411.3 365.799 413.3 367.099 411.6C367.099 411.6 364.399 414.8 361.099 415L361.999 415.3C361.999 415.3 358.799 419 355.399 416.5C351.899 414 351.799 417.1 351.799 417.1" stroke="black" stroke-width="0.7" stroke-miterlimit="4.8"/>
<path d="M358.4 417.3C358.4 417.3 362.4 424.1 362.9 427.7C362.9 427.7 370.6 436.3 373.5 436.7C373.5 436.7 372.2 437.3 369.7 435.2C369.7 435.2 371.7 437.4 372.2 437.5C372.7 437.6 370.5 437.3 370.2 436.7C370.2 436.7 371 438 371.6 438.2L371 438C371 438 370 437.9 369.5 437.5C369 437.1 369.3 438.5 369.3 438.5C369.3 438.5 368.1 438.2 367.7 437.8C367.3 437.4 367.9 438.7 367.9 438.7L366.9 438.4L366.1 438.9C366.1 438.9 366.1 439.4 365.5 439C365.1 438.6 364.2 439 364.2 439C364.2 439 363.5 439.6 363.2 439.2C362.9 438.8 361.7 440.7 361.7 440.7L356.6 428.4" fill="white"/>
<path d="M358.4 417.3C358.4 417.3 362.4 424.1 362.9 427.7C362.9 427.7 370.6 436.3 373.5 436.7C373.5 436.7 372.2 437.3 369.7 435.2C369.7 435.2 371.7 437.4 372.2 437.5C372.7 437.6 370.5 437.3 370.2 436.7C370.2 436.7 371 438 371.6 438.2L371 438C371 438 370 437.9 369.5 437.5C369 437.1 369.3 438.5 369.3 438.5C369.3 438.5 368.1 438.2 367.7 437.8C367.3 437.4 367.9 438.7 367.9 438.7L366.9 438.4L366.1 438.9C366.1 438.9 366.1 439.4 365.5 439C365.1 438.6 364.2 439 364.2 439C364.2 439 363.5 439.6 363.2 439.2C362.9 438.8 361.7 440.7 361.7 440.7L356.6 428.4" stroke="black" stroke-width="0.7" stroke-miterlimit="4.8"/>
<path d="M363.199 439.6L356.799 427.3L357.499 427L363.899 439.2L363.199 439.6ZM368.799 438.7L357.799 426.4L358.399 425.9L369.399 438.2L368.799 438.7ZM371.399 437.7L358.799 426L359.299 425.4L371.999 437L371.399 437.7Z" fill="black"/>
<path d="M339.845 398.282C339.845 398.282 339.047 396.819 338.316 397.417C337.651 397.905 337.252 398.104 337.119 398.016C337.119 398.016 337.784 398.016 338.25 397.683C338.693 397.24 339.225 397.462 339.845 398.348V398.282ZM335.457 397.617L335.923 398.547L335.391 400.077L335.79 400.21L336.255 398.547L335.79 397.484L335.457 397.617Z" fill="black"/>
<path d="M339.712 398.082C339.712 398.082 339.047 398.747 338.249 398.614L337.385 398.414H338.582C339.047 398.414 339.645 398.215 339.712 398.082Z" fill="black"/>
<path d="M339.513 398.215C339.513 398.215 338.715 397.417 338.184 397.683C338.184 397.683 339.114 397.351 339.646 398.148L339.513 398.215Z" fill="black"/>
<path d="M339.379 398.082C339.379 398.082 338.515 398.681 337.584 398.082L337.518 397.949H337.651C337.651 397.949 338.781 398.415 339.379 398.082Z" fill="black"/>
<path d="M338.649 398.215C338.796 398.215 338.915 398.096 338.915 397.949C338.915 397.802 338.796 397.683 338.649 397.683C338.502 397.683 338.383 397.802 338.383 397.949C338.383 398.096 338.502 398.215 338.649 398.215Z" fill="black"/>
<path d="M339.4 420.4C339.4 420.4 338.7 421.7 339.1 422.4C339.5 423.1 341 423.5 341.1 424.5C341.367 425.367 341.867 425.633 342.6 425.3L343.6 425.2C343.6 425.2 340.5 423.5 339.6 420.9L339.4 420.4Z" fill="black"/>
<path d="M438.8 395.6C438.8 395.6 444.3 388.2 449.3 390.2C454.3 392.2 457.5 393.1 457.5 393.1C457.5 393.1 457.6 398.1 455 398.1C452.3 398.1 449.8 393.1 447.4 394.5C445 396 443 398 442.9 398.7C442.7 399.4 436.5 399.6 438.8 395.7V395.6Z" fill="#964B36" stroke="black" stroke-width="0.3" stroke-miterlimit="4.8"/>
<path d="M417.5 431.2C417.5 431.2 416 432.8 416.7 433.2C417.4 433.6 418.7 433.2 418.7 432.6C418.7 432 417.8 431 417.5 431.2Z" fill="#964B36" stroke="black" stroke-width="0.5" stroke-miterlimit="4.8"/>
<path d="M416.3 432.8C416.3 432.8 413.4 431.1 411.2 435C408.9 438.9 407 445.2 405.7 446C404.4 446.8 418.5 439.8 418.7 436.9C418.7 436.9 419.7 433.1 418.1 433.1C416.7 433.2 416.6 433.4 416.3 432.7V432.8Z" fill="#964B36" stroke="black" stroke-width="0.5" stroke-miterlimit="4.8"/>
<path d="M416.7 433.2C416.7 433.2 413.7 433.9 413.1 438.1C412.5 442.3 408.4 444.4 408.1 444.6M457.5 393C457.5 393 453 394.6 453.8 397.7L457.5 393Z" fill="#964B36"/>
<path d="M416.7 433.2C416.7 433.2 413.7 433.9 413.1 438.1C412.5 442.3 408.4 444.4 408.1 444.6M457.5 393C457.5 393 453 394.6 453.8 397.7" stroke="black" stroke-width="0.3" stroke-miterlimit="4.8"/>
<path d="M423.1 402.1C423.1 402.1 423.2 391.5 431.9 392C433.6 392.1 432.8 394 432.8 394C432.8 394 434.7 392.7 435.5 394.8C435.5 394.8 438.3 393.6 438.5 396.3C438.5 396.3 441.5 395.9 441.2 398.3C441.2 398.3 443.2 397.9 443.2 399.6C443.2 399.6 445.5 398.6 445.2 401C445.2 401 447.8 399.3 447.4 402.4C447.4 402.4 450.1 400.6 451 403.7C452 406.7 448.3 413.4 444.8 415.1" fill="#FFF200"/>
<path d="M423.1 402.1C423.1 402.1 423.2 391.5 431.9 392C433.6 392.1 432.8 394 432.8 394C432.8 394 434.7 392.7 435.5 394.8C435.5 394.8 438.3 393.6 438.5 396.3C438.5 396.3 441.5 395.9 441.2 398.3C441.2 398.3 443.2 397.9 443.2 399.6C443.2 399.6 445.5 398.6 445.2 401C445.2 401 447.8 399.3 447.4 402.4C447.4 402.4 450.1 400.6 451 403.7C452 406.7 448.3 413.4 444.8 415.1" stroke="black" stroke-width="0.3" stroke-miterlimit="4.8"/>
<path d="M447.199 402.8C447.199 402.8 448.399 411.1 443.699 414.1L443.899 414.3C448.699 411.3 447.499 402.8 447.499 402.7H447.199V402.8ZM441.599 411.8L441.799 412C444.799 409.1 445.399 401.4 445.399 401H445.099C445.099 401.1 444.499 409 441.599 411.8ZM438.799 409.9H439.099C439.499 405.2 443.299 399.7 443.299 399.7L442.999 399.5C442.999 399.5 439.199 405.1 438.799 409.9ZM436.699 408.5H436.999C437.499 402.8 441.299 398.5 441.299 398.5L441.099 398.2C441.099 398.2 437.199 402.7 436.699 408.5ZM433.699 406.6H433.899C434.199 399.8 438.699 396.5 438.799 396.4L438.599 396.2C438.599 396.2 433.899 399.6 433.599 406.6H433.699ZM430.799 404.9H431.199C430.899 398.7 435.699 394.9 435.699 394.9L435.599 394.7C435.599 394.7 430.599 398.6 430.799 404.9ZM425.799 402.7H426.099C426.298 400.766 427.057 398.931 428.282 397.422C429.508 395.912 431.147 394.792 432.999 394.2L432.899 393.9C431.048 394.601 429.421 395.789 428.189 397.338C426.957 398.887 426.166 400.739 425.899 402.7H425.799Z" fill="black"/>
<path d="M417.999 415C417.999 415 416.499 405.2 422.399 402C422.399 402 423.399 401.8 424.099 403.2C424.099 403.2 427.199 401.9 427.299 404.5C427.299 404.5 428.799 403.3 429.299 405C429.299 405 432.599 404.3 431.899 406.8C431.899 406.8 434.699 406 434.499 408.4C434.499 408.4 437.299 407.4 436.799 409.4C436.799 409.4 439.799 408.8 439.099 411.2C439.099 411.2 442.699 410.8 441.599 413.4C441.599 413.4 444.299 412.7 443.699 414.8C443.699 414.8 447.299 415.4 445.699 417.6C443.104 420.802 439.729 423.281 435.899 424.8" fill="#00A651"/>
<path d="M417.999 415C417.999 415 416.499 405.2 422.399 402C422.399 402 423.399 401.8 424.099 403.2C424.099 403.2 427.199 401.9 427.299 404.5C427.299 404.5 428.799 403.3 429.299 405C429.299 405 432.599 404.3 431.899 406.8C431.899 406.8 434.699 406 434.499 408.4C434.499 408.4 437.299 407.4 436.799 409.4C436.799 409.4 439.799 408.8 439.099 411.2C439.099 411.2 442.699 410.8 441.599 413.4C441.599 413.4 444.299 412.7 443.699 414.8C443.699 414.8 447.299 415.4 445.699 417.6C443.104 420.802 439.729 423.281 435.899 424.8" stroke="black" stroke-width="0.3" stroke-miterlimit="4.8"/>
<path d="M414.8 425C414.8 425 412.4 416.7 417 414.6C417 414.6 417.8 414.4 418 415.2C418 415.2 419 413.9 419.8 415.1C419.8 415.1 422.1 414 422.6 415.7C422.6 415.7 424.2 414.4 425 416.3C425 416.3 426.4 415.7 426.4 417.3C426.4 417.3 428.4 416.3 428.4 418.3C428.4 418.3 430.4 417.5 430 419.6C430 419.6 433 420 432 421.4C432 421.4 434.7 422.1 433.7 423.2C433.7 423.2 436.6 422.9 435 424.8C435 424.8 437.2 424.1 436 426.5C434.8 428.9 430.9 431.5 428.1 431.9" fill="#00A651"/>
<path d="M414.8 425C414.8 425 412.4 416.7 417 414.6C417 414.6 417.8 414.4 418 415.2C418 415.2 419 413.9 419.8 415.1C419.8 415.1 422.1 414 422.6 415.7C422.6 415.7 424.2 414.4 425 416.3C425 416.3 426.4 415.7 426.4 417.3C426.4 417.3 428.4 416.3 428.4 418.3C428.4 418.3 430.4 417.5 430 419.6C430 419.6 433 420 432 421.4C432 421.4 434.7 422.1 433.7 423.2C433.7 423.2 436.6 422.9 435 424.8C435 424.8 437.2 424.1 436 426.5C434.8 428.9 430.9 431.5 428.1 431.9" stroke="black" stroke-width="0.3" stroke-miterlimit="4.8"/>
<path d="M417.7 431.4C417.7 431.4 412.6 426.4 415 425C415 425 416 425.3 416.4 426.4C416.4 426.4 417.7 424.6 418.4 426.4C418.4 426.4 420.2 425.8 420.2 427.1L421.7 428.1C421.7 428.1 423.4 428.1 423.1 429.1C423.1 429.1 425 428.9 424.9 429.9C424.9 429.9 426.5 429.9 426.4 431C426.4 431 429.1 431.5 427.9 432.9C427.9 432.9 423 433.9 419.6 432.5C419.6 432.5 417.8 431.9 417.6 431.5L417.7 431.4Z" fill="#00A651" stroke="black" stroke-width="0.3" stroke-miterlimit="4.8"/>
<path d="M435.2 423.2L435.3 423.5C438.3 422.3 443.6 415.2 443.8 414.8L443.6 414.7C443.6 414.7 438.2 422.1 435.2 423.2ZM433.5 421.9L433.6 422.2C436.657 419.655 439.379 416.731 441.7 413.5L441.5 413.3C441.5 413.3 436.1 420.5 433.5 421.9ZM432 421.3L432.2 421.5C435 419.2 439 411.5 439.2 411.3L438.9 411.1C438.9 411.2 434.7 419.1 431.9 421.3H432ZM430.6 419.5H430.9C431.5 415.7 436.9 409.7 436.9 409.5L436.7 409.4C436.5 409.6 431.2 415.6 430.7 419.5H430.6ZM419.8 414.9H420.1C419.6 409.4 424.1 403.4 424.2 403.3L424 403.1C424 403.1 419.3 409.3 419.8 414.9ZM422.6 415.3H422.9C422.2 410.9 427.3 404.7 427.4 404.6L427.2 404.4C426.9 404.7 421.9 410.8 422.6 415.4V415.3ZM427 416.9H427.3C427.3 411.9 432 406.9 432 406.9L431.8 406.7C431.8 406.7 426.9 411.8 427 416.9ZM416.5 425.9H416.8C415.1 421.3 418.1 415.4 418.1 415.3L417.8 415.2C417.8 415.2 414.8 421.2 416.5 426V425.9ZM418.5 426.3L418.8 426.2C417.3 421.5 419.8 415.2 419.9 415.2L419.6 415C419.6 415 417 421.5 418.6 426.3H418.5ZM426.8 431L426.9 431.3C431.9 429.5 435.1 425 435.2 424.9L434.9 424.8C434.9 424.8 431.7 429.2 426.9 431H426.8ZM425.8 429.9L425.9 430.2C429.9 428.4 433.6 423.4 433.6 423.4L433.4 423.2C433.4 423.2 429.7 428.2 425.8 429.9ZM424.8 429.5L425 429.8C428.1 427.5 432 421.8 432.1 421.8L431.9 421.6C431.9 421.6 427.9 427.3 424.9 429.6L424.8 429.5ZM419.9 426.6H420.2C420.082 422.832 420.98 419.101 422.8 415.8L422.5 415.6C422.5 415.6 419.2 421.6 419.9 426.6ZM422.1 428L422.3 428.2C425.5 425.3 426.5 417.6 426.6 417.2H426.3C426.3 417.3 425.2 425.2 422.1 428Z" fill="black"/>
<path d="M424.298 428.9L424.398 429.2C428.898 425.9 430.098 419.6 430.198 419.6H429.898C429.898 419.6 428.698 425.7 424.298 428.9ZM424.798 415.5V416.3L421.398 427.3L421.698 427.4L425.098 416.4C424.598 411 429.298 405.1 429.298 405.1L429.098 404.9C429.098 404.9 424.798 410.3 424.798 415.5Z" fill="black"/>
<path d="M428.299 418.1C428.299 418.3 427.299 425.9 423.199 428.7L423.299 428.9C427.499 426 428.599 418.6 428.599 418.3C430.399 416.1 434.599 408.5 434.599 408.5L434.399 408.3C434.399 408.4 430.199 415.9 428.399 418.1H428.299ZM416.299 426.4C416.299 426.6 416.999 430.4 417.799 431.7L417.999 431.5C417.299 430.2 416.599 426.5 416.599 426.4H416.299ZM418.299 426.4C418.299 428.4 418.299 431.4 418.099 431.7H418.399C418.599 431.4 418.499 427.3 418.499 426.5H418.199L418.299 426.4Z" fill="black"/>
<path d="M418.398 431.8L418.698 432C419.998 429.1 420.398 427.1 420.398 427.1H420.098C420.098 427.1 419.698 429.1 418.398 431.8Z" fill="black"/>
<path d="M418.699 432L418.799 432.2C420.258 431.282 421.326 429.857 421.799 428.2H421.499C421.499 428.2 420.999 430.6 418.699 431.9V432ZM419.099 432.1V432.4C421.499 432.2 423.099 429.3 423.199 429.2L422.999 429C422.999 429 421.299 432 419.099 432.1Z" fill="black"/>
<path d="M419.398 432.3V432.6C420.458 432.559 421.498 432.308 422.459 431.862C423.421 431.415 424.284 430.783 424.998 430L424.798 429.8C424.798 429.8 422.998 432.1 419.398 432.3Z" fill="black"/>
<path d="M419.6 432.4V432.7C419.8 432.7 424.6 433.7 426.3 431.2L426.1 431C424.5 433.4 419.7 432.4 419.6 432.4Z" fill="black"/>
<path d="M310.199 254V390.4C310.199 435 390.799 461.5 390.799 461.5C390.799 461.5 471.399 435 471.399 390.5V254H310.199Z" stroke="black" stroke-width="2.8" stroke-miterlimit="4.8"/>
<path d="M0 0H256V256H0V0Z" fill="#012169"/>
<path d="M256 0V32L161 128L256 221.5V256H222.5L127 162L34 256H0V222L93 128.5L0 37V0H31L127 94L220 0H256Z" fill="white"/>
<path d="M92 162L97.5 179L21 256H0V254.5L92 162ZM154 156L181 160L256 233.5V256L154 156ZM256 0L160 98L158 76L233 0H256ZM0 0.5L96.5 95L67 91L0 24.5V0.5Z" fill="#C8102E"/>
<path d="M88 0V256H168V0H88ZM0 88V168H256V88H0Z" fill="white"/>
<path d="M0 104V152H256V104H0ZM104 0V256H152V0H104Z" fill="#C8102E"/>
</g>
<defs>
<clipPath id="clip0_3921_15187">
<rect width="512" height="512" fill="white"/>
</clipPath>
</defs>
</svg>
