<svg width="512" height="512" viewBox="0 0 512 512" fill="none" xmlns="http://www.w3.org/2000/svg">
<g clip-path="url(#clip0_3921_15299)">
<path d="M0 0H512V512H0V0Z" fill="#012169"/>
<path fill-rule="evenodd" clip-rule="evenodd" d="M315.192 323.163L313.288 323.258C310.051 323.83 304.91 334.397 302.15 340.585C297.675 345.916 295.39 350.105 293.582 353.151C292.82 354.389 291.678 355.722 292.058 357.34C285.394 358.958 285.014 364.67 285.014 366.86C285.014 369.335 285.775 370.478 285.775 370.478L289.774 377.903V377.998C294.058 386.852 300.246 398.657 303.863 399.609C308.814 401.037 321.761 396.277 331.471 387.994C350.181 395.786 370.229 399.86 390.495 399.99C413.153 399.99 433.526 394.563 449.424 387.994C459.134 396.277 471.986 401.037 477.032 399.609C480.554 398.657 486.838 386.757 491.122 377.998L495.025 370.478C495.025 370.478 495.786 369.335 495.786 366.955C495.786 364.766 495.406 358.958 488.742 357.435C489.122 355.817 488.075 354.389 487.314 353.151C485.41 350.01 483.125 345.821 478.746 340.394C475.89 334.206 470.749 323.83 467.607 323.258C463.038 322.497 453.327 324.782 453.327 325.638V326.114L433.621 344.488C433.621 344.964 434.573 358.292 438.381 370.192C422.952 375.682 406.68 378.42 390.305 378.284C371.455 378.284 355.366 374.952 342.324 370.097C344.774 361.711 346.369 353.1 347.084 344.393L327.568 326.114V325.638C327.568 324.972 320.047 323.163 315.192 323.163ZM320.142 346.011C322.618 346.011 325.188 348.106 327.378 350.295L327.187 351.628C326.409 355.059 325.391 358.431 324.141 361.719C319.279 358.926 314.717 355.64 310.527 351.914C312.622 349.629 316.049 346.582 319.666 346.106L320.142 346.011ZM460.658 346.011H461.134C464.751 346.582 468.178 349.629 470.368 351.914C466.148 355.645 461.554 358.931 456.659 361.719C455.406 358.432 454.388 355.06 453.613 351.628L453.423 350.295C455.517 348.01 458.182 346.011 460.658 346.011ZM302.626 372.096C305.228 374.127 308.592 376.348 312.717 378.76C311.615 379.506 310.39 380.054 309.099 380.378C307.386 380.759 305.64 380.728 303.863 380.283C303.19 378.549 302.805 376.716 302.721 374.857L302.626 372.096ZM478.27 372.096L478.079 374.857C477.996 376.716 477.61 378.549 476.937 380.283C475.435 380.641 473.876 380.69 472.354 380.428C470.832 380.167 469.379 379.599 468.083 378.76C472.272 376.348 475.668 374.127 478.27 372.096Z" fill="url(#paint0_linear_3921_15299)" stroke="white" stroke-width="9.52"/>
<path fill-rule="evenodd" clip-rule="evenodd" d="M332.098 357.13C332.098 357.13 325.235 346.042 319.696 346.924C314.038 347.68 308.74 354.736 308.379 355.114C305.245 352.338 302.454 349.163 300.071 345.664C300.432 345.286 308.74 324.874 313.315 323.992C318.157 323.536 323.031 324.314 327.522 326.26L332.098 357.13Z" fill="url(#paint1_linear_3921_15299)" stroke="black" stroke-width="1.47802"/>
<path fill-rule="evenodd" clip-rule="evenodd" d="M347.147 345.286C347.147 346.042 344.739 375.274 335.107 385.48C325.475 395.686 309.462 401.986 303.803 400.474C298.265 398.836 285.382 369.352 285.382 369.352C285.382 369.352 298.987 383.464 309.101 381.07C319.214 378.676 325.234 361.036 327.161 352.342C329.087 343.774 327.522 326.764 327.522 326.764L347.268 345.286H347.147Z" fill="url(#paint2_linear_3921_15299)" stroke="black" stroke-width="1.47802"/>
<path fill-rule="evenodd" clip-rule="evenodd" d="M448.803 357.13C448.803 357.13 455.666 346.042 461.204 346.924C466.863 347.68 472.16 354.736 472.522 355.114C475.655 352.338 478.446 349.163 480.829 345.664C480.468 345.286 472.16 324.874 467.585 323.992C462.744 323.536 457.869 324.314 453.378 326.26L448.803 357.13Z" fill="url(#paint3_linear_3921_15299)" stroke="black" stroke-width="1.47802"/>
<path fill-rule="evenodd" clip-rule="evenodd" d="M433.753 345.286C433.753 346.042 436.161 375.274 445.793 385.48C455.425 395.686 471.438 401.986 477.097 400.474C482.636 398.836 495.518 369.352 495.518 369.352C495.518 369.352 481.913 383.464 471.8 381.07C461.686 378.676 455.666 361.036 453.74 352.342C451.813 343.774 453.378 326.764 453.378 326.764L433.633 345.286H433.753Z" fill="url(#paint4_linear_3921_15299)" stroke="black" stroke-width="1.47802"/>
<path fill-rule="evenodd" clip-rule="evenodd" d="M302.292 340.347C297.818 345.774 295.438 350.058 293.534 353.199C291.63 356.309 292.804 360.91 297.056 367.003C301.816 373.667 340.277 400.038 390.447 400.038C440.618 400.038 479.078 373.762 483.743 367.003C488.059 360.847 489.265 356.246 487.361 353.199C485.457 350.058 483.077 345.774 478.602 340.347C478.602 348.534 446.71 378.427 390.447 378.427C334.184 378.427 302.292 348.534 302.292 340.347Z" fill="url(#paint5_linear_3921_15299)" stroke="black" stroke-width="1.428"/>
<path fill-rule="evenodd" clip-rule="evenodd" d="M476.231 396.13L484.9 381.136L480.566 377.986C479.362 381.766 474.425 383.026 473.583 387.814C472.74 392.602 476.954 397.264 476.231 396.13Z" fill="url(#paint6_linear_3921_15299)" stroke="black" stroke-width="1.47802"/>
<path fill-rule="evenodd" clip-rule="evenodd" d="M484.2 391.78C484.2 391.78 485.765 385.102 480.829 384.22C476.013 383.464 473.364 388 474.086 386.236C474.809 384.22 477.698 382.33 478.18 375.652C478.662 368.974 477.819 365.32 477.819 365.32C477.819 365.32 479.745 356.752 487.571 357.886C495.518 359.146 495.879 365.446 495.879 367.714C495.879 369.982 495.156 371.242 495.156 371.242L484.2 391.78Z" fill="url(#paint7_linear_3921_15299)" stroke="black" stroke-width="1.47802"/>
<path d="M456.8 366.1L458.4 369L459.4 368.3L458.7 366.5L458.9 366.1L460.8 364.9L465.6 373.6V374L464.6 374.7L465.1 375.5L469.7 372.5L469.3 371.7L468.3 372.3H467.8L463 363.6L464.8 362.4H465.2L466.4 364L467.4 363.3L465.8 360.5L456.8 366.2V366.1ZM445.1 372.8L445.5 373.6L446.5 373.2L446.9 373.3L451.1 382.1V382.5L450.1 383.1L450.5 383.9L455.1 381.5L454.7 380.6L453.7 381H453.3L451.3 376.8L456 374.4L458 378.4V378.8L457 379.5L457.4 380.3L462.1 377.9L461.7 377.1L460.7 377.5L460.3 377.3L456 368.6L456.1 368.2L457.1 367.6L456.7 366.8L452 369.2L452.4 370L453.4 369.6L453.8 369.7L455.6 373.3L450.9 375.8L449.1 372.2L449.3 371.8L450.2 371.2L449.8 370.4L445.1 372.8ZM442.4 380.3L442.7 381.1L444 380.8L444.4 381L445.4 384.6L444.4 385C441.8 385.8 439.6 384.5 438.7 381.3C437.7 378.2 438.8 375.8 441.4 375L443 374.9L443.3 375.1L444.3 376.8L445.5 376.4L444.7 373.4C443.233 373.4 441.9 373.6 440.7 374C436.9 375.3 435.1 378.4 436.1 382.1C437.1 385.8 440.4 387.5 444.1 386.3C445.433 385.839 446.683 385.163 447.8 384.3L446.6 380.3L446.8 380L447.8 379.6L447.6 378.6L442.4 380.3ZM431.6 390.5L436.8 388.9L436.6 387.9L435.3 388.2L435 388.1L432.2 378.6L432.3 378.3L433.5 377.8L433.2 377L428 378.6L428.2 379.4L429.5 379.2L429.8 379.3L432.6 388.8L432.4 389.1L431.4 389.6L431.6 390.5ZM403.2 395.1L412.4 394.3L412.1 391H411L410.8 393L410.6 393.4L406.6 393.8L406.2 388.8H408.5L408.8 389L409 390.3H410L409.7 385.9H408.7V387.3L408.4 387.7L406.2 387.8L405.8 383.4L409.2 383.2L409.5 383.3L409.8 385L411 384.9L410.8 381.9L402.2 382.8V383.6H403.3L403.5 383.9L404.4 393.7L404.2 394L403.2 394.2V395.1ZM389.4 383V384H390.5L390.7 384.3L390.9 394.1L390.7 394.4L389.7 394.6V395.4H394.6V394.5H393.6L393.2 394.1V389.5L398.1 389.4L398.2 394L398 394.4H397V395.4H401.8V394.4H400.8L400.5 394L400.4 384.2L400.6 383.8H401.6V382.8H396.7V383.8L397.7 383.9L398.1 384.2V388.2L393.1 388.3V384.3L393.4 384H394.4V383H389.4ZM379 382.7V386H380.2L380.5 384L380.7 383.8H382.7V393.8L382.4 394.2H381.3V395.2H386.4V394.4L385.3 394.2L385 393.9L385.1 383.9H387.1L387.5 384.1L387.7 386.1H388.9V382.9L379 382.7ZM363.1 393.2L372.1 393.6L372.2 390.4L371.2 390.3L370.8 392.3L370.5 392.5L366.6 392.3L366.9 387.4L369.1 387.6L369.2 387.8L369.4 389.2H370.4L370.5 385H369.5L369.3 386.2L369.1 386.4H366.9L367.1 382L370.4 382.1L370.6 382.4L370.9 384H372V381L363.7 380.6V381.6L364.7 381.7L364.9 382L364.5 391.8L364.2 392.1H363.2V393.1L363.1 393.2ZM342.5 387.8L347.2 389.5L347.5 388.6L346.5 388.2L346.3 387.8L349.2 378.4L349.5 378.2L350.7 378.5L350.9 377.6L346.1 376L345.8 376.8L346.8 377.3L347.1 377.6L344.1 387L343.8 387.3L342.8 386.9L342.5 387.8ZM333.9 384.6C334.789 385.319 335.807 385.862 336.9 386.2C339.5 387 341.6 386 342.3 384C342.506 383.456 342.549 382.864 342.425 382.296C342.301 381.728 342.014 381.208 341.6 380.8L339.7 378.8C339.033 378 338.766 377.2 338.9 376.4C339.3 375.4 340.133 375.067 341.4 375.4L342.5 376.1V376.4L342.3 378.3L343.5 378.7L344.3 375.9C343.478 375.167 342.529 374.591 341.5 374.2C339.2 373.4 337.3 374.5 336.6 376.4C336.387 377.351 336.53 378.347 337 379.2C337.666 380.067 338.266 380.733 338.8 381.2C339.8 382.2 340.133 383.133 339.8 384C339.4 385.067 338.533 385.4 337.2 385L335.9 384.2L335.7 383.9L336.1 381.7L334.9 381.3L333.9 384.6ZM323.1 380L331.3 384L332.6 381L331.6 380.6L330.6 382.2L330.3 382.4L326.7 380.6L328.7 376.3L330.7 377.3V377.6L330.4 378.9L331.3 379.4L333 375.4L332.2 375L331.4 376.1L331.1 376.3L329.1 375.3L330.9 371.3L333.9 372.8L334.1 373.2L333.6 374.7L334.6 375.2L335.9 372.6L328.2 368.8L327.9 369.6L328.7 370.1L328.9 370.6L324.9 379.4L324.5 379.5L323.5 379.2L323.1 380ZM321.8 365.2L317.8 362.3L317.2 363.1L318.1 363.8V364.2L312.9 372.3L312.5 372.4L311.7 371.9L311.1 372.8L315.2 375.5C316.6 376.567 317.933 377 319.2 376.8C320.933 376.667 322.4 375.667 323.6 373.8C325.6 370.6 325.1 367.4 321.8 365.2ZM320.1 365.2L320.9 365.8C323.1 367.333 323.3 369.5 321.5 372.3C318.8 376.5 317.6 375.9 315.5 374.3L314.6 373.9L320.1 365.3V365.2ZM352.7 378.1L352.5 378.9L353.5 379.2L353.7 379.5L351.7 389.1L351.4 389.4L350.4 389.3L350.2 390.1L354.9 391.1L355.1 390.4L354.1 390L353.8 389.6L354.6 385.6H355C356.6 386 357 386.9 357 388.7C357 389.7 357 390.4 357.8 391.4C358.066 391.8 358.633 392.133 359.5 392.4L361.1 392.6L361.2 391.7H361.1C359.966 391.5 359.4 390.933 359.4 390C359.4 389 359.266 388 359 387C358.699 386.334 358.166 385.801 357.5 385.5C359.433 385.5 360.566 384.7 360.9 383.1C361.3 381.1 360.233 379.767 357.7 379.1L352.7 378.1ZM355.9 379.8L356.6 379.9C358.2 380.3 358.866 381.267 358.6 382.8C358.266 384.467 357.233 385.1 355.5 384.7L354.9 384.5L355.9 379.8ZM416.3 380.8L416.4 381.8H417.8L419.4 391.7L419.1 391.9L418.1 392.2L418.2 393L423.2 392.2V391.3L422 391.4L421.7 391.2L421.1 387.1H421.4C423.2 386.7 423.8 387.4 424.7 389.1C425.1 389.9 425.3 390.7 426.4 391.3C426.933 391.567 427.6 391.633 428.4 391.5L430.2 391L430 390.2H429.8C428.733 390.467 427.933 390.167 427.4 389.3C427 388.433 426.533 387.6 426 386.8C425.466 386.267 424.8 386 424 386C425.933 385.2 426.766 383.967 426.5 382.3C426.1 380.3 424.533 379.467 421.8 379.8L416.3 380.8ZM420.2 381.2H421C422.733 380.867 423.733 381.467 424 383C424.266 384.667 423.466 385.667 421.6 386H420.9L420.1 381.2H420.2Z" fill="black"/>
<path fill-rule="evenodd" clip-rule="evenodd" d="M304.669 396.13L296 381.136L300.335 377.986C301.539 381.766 306.475 383.026 307.318 387.814C308.16 392.602 303.947 397.264 304.669 396.13Z" fill="url(#paint8_linear_3921_15299)" stroke="black" stroke-width="1.47802"/>
<path fill-rule="evenodd" clip-rule="evenodd" d="M296.7 391.78C296.7 391.78 295.135 385.102 300.072 384.22C304.888 383.464 307.536 388 306.814 386.236C306.092 384.22 303.202 382.33 302.72 375.652C302.239 368.974 303.082 365.32 303.082 365.32C303.082 365.32 301.155 356.752 293.329 357.886C285.383 359.146 285.022 365.446 285.022 367.714C285.022 369.982 285.744 371.242 285.744 371.242L296.7 391.78Z" fill="url(#paint9_linear_3921_15299)" stroke="black" stroke-width="1.47802"/>
<path fill-rule="evenodd" clip-rule="evenodd" d="M390.567 373.56C390.567 373.56 299.665 346.596 300.267 244.788L300.869 109.968H480.144L480.746 244.032C481.348 345.84 390.446 373.434 390.446 373.434L390.567 373.56Z" fill="#0072C4" stroke="white" stroke-width="4.80356"/>
<path fill-rule="evenodd" clip-rule="evenodd" d="M313.301 140.1C313.501 140.1 314.501 139.1 315.601 138.1L319.601 135.7C320.801 135.2 322.901 134.7 323.801 134.2C325.154 133.572 326.35 132.65 327.301 131.5C327.401 129.7 327.701 128.4 327.701 126.4L331.701 124.4C333.701 123.8 334.001 123.1 335.901 122.8C337.101 122.4 339.101 122.4 340.801 122.4C342.701 122.4 343.801 123.8 345.501 124C347.501 124.8 348.501 125.4 350.101 126.8C350.901 127.9 351.501 128.8 353.101 129.7C354.167 130.5 355.401 131.167 356.801 131.7C358.401 132.6 359.701 133.1 360.901 134.4C362.101 135.2 362.601 136.4 363.501 137.2L367.401 140C369.001 141 370.601 141.8 373.101 141.6C374.501 141.467 376.001 141.467 377.601 141.6C379.534 141.533 381.301 141.7 382.901 142.1C384.901 142.1 386.401 142.3 388.201 142.5C389.867 142.767 391.601 142.867 393.401 142.8C395.134 143.2 396.901 143.333 398.701 143.2H409.301C411.367 143.2 413.101 143.333 414.501 143.6L419.801 143.2C421.801 143.2 423.401 142.9 425.501 142.8H431.801C433.501 143.3 435.601 143.6 436.801 144.5C438.301 144.9 439.001 145.6 440.501 146.1C441.946 146.718 443.242 147.639 444.301 148.8C445.485 150.095 446.494 151.541 447.301 153.1C448.301 154.6 448.701 156.4 449.501 158.2C449.967 159.933 450.234 161.767 450.301 163.7C450.634 165.433 450.767 167.267 450.701 169.2C450.201 171 450.201 173 449.501 174.7C449.434 176.7 449.201 178.4 448.801 179.8C448.501 181.5 448.001 182.5 448.001 184.6V190.1C448.001 191.9 447.501 193.1 447.301 195.1L444.601 201.1C443.431 201.914 442.415 202.93 441.601 204.1C440.801 204.9 440.434 205.467 440.501 205.8C442.001 206.3 441.601 207.4 441.601 209.3C441.734 210.967 442.001 212.7 442.401 214.5C442.534 216.167 442.867 217.6 443.401 218.8C444.101 219.6 444.301 219.2 442.701 219.2C441.701 220 440.501 219.6 440.101 218C439.262 216.671 438.748 215.164 438.601 213.6C438.401 211.8 438.067 210.233 437.601 208.9C437.301 206.7 436.701 206.7 434.601 206.6C433.601 205.733 432.067 205.333 430.001 205.4C428.001 205.4 427.801 205.2 427.701 207.4V212.9L426.201 217.2C425.101 218 424.601 219.4 423.201 220.3C422.501 222.1 421.601 222.4 419.801 222.8L417.601 220C418.601 218.2 419.601 218 420.201 216C421.001 214.5 421.501 213.5 422.001 212.1C421.201 210.9 420.601 210.3 419.801 208.6C418.974 207.247 418.303 205.804 417.801 204.3C416.701 203.8 414.801 203.7 413.801 203.1C411.901 202.6 411.501 204.7 409.301 204.7H404.001C401.701 204.7 401.101 205.9 399.101 205.8C398.434 205.933 397.067 205.933 395.001 205.8C393.401 206.4 391.501 206.2 389.701 206.2C387.901 206.067 386.267 205.8 384.801 205.4C383.134 204.867 381.401 204.5 379.601 204.3C377.301 204.3 376.501 204.4 375.001 205.4C373.901 206.1 372.201 207.7 371.001 208.6C370.401 209.9 370.101 212.1 369.301 213.6C369.001 215.3 368.301 216.2 367.801 217.6C367.206 219.134 366.869 220.756 366.801 222.4C366.601 225 366.101 224.7 364.501 223.9L362.201 220.3C362.601 218.3 363.001 217.4 363.001 215.3C362.601 213.6 361.801 213.8 360.801 214.9C360.801 216.9 360.801 218.5 359.901 219.6C359.581 220.846 358.793 221.92 357.701 222.6C357.201 224.2 355.901 224.9 354.701 225.5V223.8C353.801 222.1 354.701 220.6 354.701 218.4C354.701 216.4 354.601 215.1 355.101 213.4C355.101 211.4 354.301 209.6 354.001 208.2C353.301 206.7 352.901 206 351.001 205.4C349.601 204.8 347.701 204.2 346.801 203C345.938 201.804 344.761 200.869 343.401 200.3C341.801 199.7 340.901 199.1 339.601 198.3C338.601 197 337.601 196.5 337.001 194.8C336.201 193.6 336.101 191.3 335.601 189.7C335.415 188.086 335.011 186.505 334.401 185C334.233 183.361 333.864 181.748 333.301 180.2L332.201 175.1C332.267 173.167 332.101 171.333 331.701 169.6V164.1C331.501 162.5 331.401 160.1 331.001 159C331.001 156.8 330.801 155.7 330.201 154.2C329.401 152.8 329.401 152.2 328.001 151.9C327.001 153.1 325.501 153.767 323.501 153.9C322.101 153.6 320.201 153.3 318.601 152.7C317.267 152.3 316.034 151.767 314.901 151.1L312.601 148C312.301 146 311.901 144.9 311.801 142.8C311.801 141.4 311.801 142.2 313.401 140.1H313.301Z" fill="#BCBCBC"/>
<path fill-rule="evenodd" clip-rule="evenodd" d="M335.601 154.3L335.901 154C335.234 154.533 335.567 154.433 336.901 153.7C337.801 153.3 339.301 152.4 339.901 151.7C340.501 151.5 341.701 151 342.301 150.4C342.967 149.6 343.767 148.867 344.701 148.2C345.701 147.3 346.701 147 347.901 146.2C349.301 146.1 349.901 145.4 351.301 145.9C352.601 146.2 353.201 146.2 354.301 145.1C355.301 144.5 356.501 143.7 356.901 142.7V140.9C356.901 142.7 356.501 143.4 355.301 143.9C354.501 145 353.301 146.1 352.901 147.1C352.001 148.3 351.901 148.9 351.101 149.5C350.301 150.4 349.101 150.9 348.901 152.4C349.301 153 348.901 153.4 349.801 153.4C350.501 154.1 351.301 153.8 352.401 153.4C353.232 152.445 353.907 151.365 354.401 150.2L356.401 147.3C357.334 146.833 357.934 146.1 358.201 145.1C359.267 144.433 360.167 143.767 360.901 143.1C361.701 142.7 362.101 142.3 363.301 142.1C363.359 143.159 363.079 144.21 362.501 145.1C362.201 146.7 362.301 147.4 362.801 148.4C363.501 148.9 363.401 149.4 363.801 150.4C364.301 149.4 364.501 147.6 364.701 146.4V146.2C364.701 147.4 364.701 149 364.301 149.8C364.301 151.5 364.801 152.2 365.201 153.4C365.601 154.067 366.034 154.533 366.501 154.8C366.501 153.2 367.001 152.2 367.001 150.8C367.267 151.933 367.434 153.2 367.501 154.6C367.701 155.8 368.034 156.9 368.501 157.9C369.201 158.2 369.401 159.4 369.601 158.5C370.301 156.5 370.301 154.4 370.701 152.4C370.68 151.238 370.883 150.084 371.301 149L370.701 152.3C370.701 151.3 370.901 149.8 371.301 149V148.7L371.801 153.2C371.801 154.4 371.901 155.6 372.101 156.8C372.901 156.333 373.534 155.5 374.001 154.3C374.544 153.223 375.216 152.216 376.001 151.3L374.001 154.3C374.544 153.223 375.216 152.216 376.001 151.3V151L375.801 154.8C375.801 156.267 375.901 157.5 376.101 158.5C376.401 159.9 376.801 160.2 376.901 161.7C376.767 162.633 376.834 163.3 377.101 163.7C378.301 164 378.301 163.4 378.401 161.8C378.401 160 378.901 158.8 379.001 157.1C379.001 155 379.301 157.3 379.501 158.1C379.979 159.278 380.25 160.53 380.301 161.8C380.301 162.667 380.401 163.333 380.601 163.8C381.601 163.3 382.001 162.1 382.601 161.5L384.301 158.7C385.701 158.5 385.601 157.9 385.601 156.3C385.601 154.833 385.701 153.5 385.901 152.3L387.001 148.7C387.501 148.4 388.001 149.2 388.301 149.8C388.901 150.8 388.801 152 388.801 153.4L390.201 156.8C390.707 157.783 391.346 158.692 392.101 159.5C392.234 160.633 392.301 161.867 392.301 163.2C393.167 161.867 393.601 160.3 393.601 158.5C393.401 157.3 393.401 155.7 393.101 154.5C393.044 153.379 392.842 152.269 392.501 151.2C391.634 150.933 391.567 150.267 392.301 149.2C393.101 148.5 394.101 148.9 395.501 149C396.201 149.8 396.501 150.2 396.501 151.8C396.434 153.267 396.634 154.467 397.101 155.4C397.601 156.2 398.101 156.8 398.401 158.1C398.801 158.6 399.101 159.1 399.701 158.5C400.001 157.7 400.301 156 400.501 155.1C400.834 154.167 401.267 153.5 401.801 153.1C401.801 154.7 401.801 155.6 402.401 156.8L403.701 159.8C404.301 160.3 404.401 161.1 405.101 161.5C405.234 160.167 405.301 158.7 405.301 157.1V153.1C405.434 151.967 405.734 150.967 406.201 150.1C407.001 151.2 407.001 151.6 407.001 153.1C407.667 152.833 408.101 152.2 408.301 151.2C408.801 150.6 409.101 150.4 409.301 151.8L410.101 155.9C410.601 156.6 411.301 158.1 411.901 158.7L413.601 161C414.001 161.8 414.101 162.4 415.201 162.6C415.201 160.8 415.101 158.967 414.901 157.1C414.901 155.5 414.501 154.9 414.401 153.4C413.901 152.5 413.701 151.1 413.801 150.6C414.892 151.519 415.749 152.684 416.301 154L417.901 157.7L419.901 160.4C420.901 161.2 421.401 162.1 422.401 162.9C422.901 163.4 424.001 163.7 424.201 163.4C424.201 161.867 423.934 160.4 423.401 159C423.409 157.851 423.134 156.718 422.601 155.7C421.601 154.8 420.701 154.2 420.201 152.9C419.801 152.5 419.801 152.3 419.701 151.5C421.096 152.636 422.34 153.947 423.401 155.4C423.955 156.241 424.711 156.928 425.601 157.4C426.001 158 427.601 158.7 428.701 159C429.391 159.846 430.339 160.443 431.401 160.7L428.701 159C429.391 159.846 430.339 160.443 431.401 160.7V161C431.203 159.401 430.657 157.865 429.801 156.5C429.269 155.283 428.402 154.242 427.301 153.5C426.636 152.48 425.746 151.624 424.701 151C424.001 150.2 422.901 148.7 422.301 148.2C423.501 147.4 424.801 148.7 426.001 149.2C427.101 150.4 428.001 151.9 428.701 152.6C429.345 153.951 430.188 155.198 431.201 156.3C432.201 156.9 433.134 157.633 434.001 158.5C435.701 158.9 435.001 158.3 434.601 157.1C434.134 155.633 434.467 155.433 435.601 156.5L438.301 158.5C438.801 159 439.501 159.5 440.101 159C440.434 158.733 440.567 158.467 440.501 158.2C440.034 156.4 439.201 155.2 438.001 154.6C437.334 153.733 436.534 152.9 435.601 152.1L434.001 149.8L435.701 152C435.101 151.2 434.501 150.8 434.001 149.8H433.801C435.401 149.8 436.001 150.3 437.201 151C438.163 151.443 438.991 152.133 439.601 153C440.267 153.6 440.934 154.3 441.601 155.1L444.101 157.1C445.101 158.2 445.101 159 445.101 160.7C445.801 161.5 445.801 163.1 446.101 164C445.801 165.6 445.301 164.3 445.101 163.4C445.101 162.2 444.501 162.3 443.601 162.6C443.601 164.3 443.801 164.7 444.401 166C444.258 166.959 443.918 167.879 443.401 168.7C442.701 169.1 442.601 167.9 442.001 167.4C442.001 165.7 441.501 165.4 440.401 164.6V165.7C441.001 166.9 441.701 167.9 441.801 169.6C442.186 170.759 442.355 171.979 442.301 173.2C442.301 174.533 442.201 175.867 442.001 177.2L441.801 180.7V188.5C441.601 189.5 441.501 190.7 441.501 192.1V192.4C440.967 191.067 440.501 189.7 440.101 188.3C439.299 187.474 438.685 186.485 438.301 185.4L437.801 181.9C437.401 180.9 437.001 179.9 436.101 180.5C435.801 182.5 436.301 183.7 437.001 185.7C437.401 187 437.401 188.1 437.801 189.4C438.401 190.8 438.901 191 437.801 192.6C437.201 193.6 437.001 193.8 436.801 194.9C435.801 195.4 435.501 195.7 435.401 196.9C435.101 195.8 434.301 194.5 433.801 193.3L432.501 189.3C431.801 188.3 431.101 186.9 430.401 186.3C429.601 185.4 428.701 183.8 428.201 183C427.201 181.8 426.901 181 426.001 180.5C425.901 179.9 425.601 179.2 425.001 179.7C425.001 181.033 425.101 182.3 425.301 183.5C425.601 185.1 426.001 186 426.101 187.6V190.7L424.201 186.3C423.601 185.4 423.201 183.8 422.401 183.3C422.001 182.167 421.534 181.233 421.001 180.5C420.901 179.7 420.501 179.7 420.201 179.1C420.201 180.6 420.701 181.2 421.001 182.4C421.482 183.465 421.688 184.634 421.601 185.8C420.934 183.733 420.201 181.767 419.401 179.9C418.601 178.8 417.801 177.3 417.401 176.2C416.501 175.3 415.701 175.2 414.901 174.6C414.201 174.278 413.585 173.799 413.101 173.2C413.301 174.6 413.634 175.8 414.101 176.8C414.301 178.2 415.001 179.3 415.201 180.5C414.901 182.4 414.401 179.9 414.201 179.1C413.96 177.917 413.484 176.795 412.801 175.8L410.601 173.8C409.801 173.5 410.101 173.8 410.101 174.8C410.034 176.533 410.201 177.867 410.601 178.8C411.134 179.533 411.334 180.633 411.201 182.1L410.901 186.1V188.2C410.301 187.1 409.701 186.3 409.301 184.9C408.401 183.6 408.101 182.7 407.501 181.3C406.901 181 405.801 180.8 405.301 181.3C405.401 182.7 406.101 183.3 406.201 184.9C405.101 185.9 405.201 186.3 404.501 184.6C404.001 183.3 403.201 183.4 402.401 182.6C401.101 182.6 401.501 181.6 401.101 180.4C401.101 179.333 401.001 178.333 400.801 177.4C399.301 177.4 398.501 177.4 397.601 178.2C397.201 179 397.401 180.6 397.601 181.9V185.7C397.301 186.7 396.801 186.7 396.601 188C396.001 189.1 395.901 190.4 395.501 191.2C394.501 192.2 394.901 192.2 394.501 190.7V181.7L394.701 178.2C394.201 177.1 394.001 176.8 392.201 176.8C391.901 177.5 392.101 178.8 392.201 179.6C392.201 181.067 392.301 182.267 392.501 183.2C392.501 184.7 392.701 185.6 392.801 186.8C392.801 188.333 392.467 189.433 391.801 190.1C390.801 190.4 391.601 191.1 390.701 191.3C389.606 190.788 388.594 190.114 387.701 189.3C386.767 188.967 385.634 188.8 384.301 188.8C382.501 188.8 382.501 188.5 381.901 187.2C381.435 185.732 381.1 184.227 380.901 182.7C380.201 181.4 380.101 180.5 379.901 179C379.522 178.194 378.935 177.503 378.201 177C377.734 178.333 377.467 179.767 377.401 181.3C377.101 181.9 377.001 183.6 376.901 184.3C376.301 183.5 376.101 181.9 375.801 180.7C375.301 179.1 374.801 178 373.101 178.5C371.401 178.5 371.301 178.5 371.301 180.5L373.301 183.7V187.7C373.301 189.3 373.501 189.7 372.301 190.1C371.785 188.404 370.972 186.812 369.901 185.4C369.801 184.4 369.501 184.6 368.301 184.6C367.567 184.467 366.967 184.567 366.501 184.9V187.3C365.901 187.5 365.467 187.333 365.201 186.8C364.701 187.6 365.101 188.8 365.201 189.8C364.966 190.906 364.525 191.957 363.901 192.9C363.701 192.5 363.401 192.7 363.901 192.7L358.901 191.1C358.101 191.1 357.401 192 356.901 192.7C355.501 193.1 354.901 193.5 353.401 193.5C352.001 193.5 351.301 193.8 350.001 193.8C349.001 194 347.834 194.1 346.501 194.1C345.801 193.8 344.501 193.8 344.101 193.5C344.701 192.7 345.301 192.3 345.801 191.1L347.801 189.1L350.001 186.8C350.401 185.4 351.001 185.2 351.901 184.6C353.501 184.6 353.701 185.2 355.301 185.4C356.801 186 357.701 186.3 358.601 185.1C359.801 184.6 360.801 183.7 362.201 183.5L364.901 181.9C366.101 181.1 366.501 180.4 367.501 179.6C367.801 178.4 368.701 177.6 368.301 176.3C366.967 175.833 365.901 176 365.101 176.8C364.101 177.8 363.801 178.2 362.501 179C361.501 179.3 360.801 179.8 359.501 180.2C358.501 180.6 357.101 180.4 355.901 180.4C354.701 180.4 353.101 180.4 352.401 180.7C353.534 179.863 354.78 179.189 356.101 178.7C357.101 178 357.601 177.7 359.101 177.7C359.701 176.8 360.401 176.8 360.701 175.4C361.101 173.8 359.701 174.3 358.501 174.9C357.501 175.1 356.201 175.9 355.301 176.2C354.202 176.563 353.057 176.765 351.901 176.8C351.501 176.3 352.101 175.9 352.401 175.2C353.601 174.7 353.801 174.5 354.001 173.2C352.601 173.4 352.001 173.9 350.701 174C349.367 174.333 347.967 174.533 346.501 174.6H342.801C341.501 174.6 340.801 174.3 339.301 174.3C338.301 173.7 338.301 173.5 338.301 171.8C339.101 170.8 339.901 171 341.501 171L344.401 169.6C345.467 169.4 345.934 169.033 345.801 168.5H342.001C340.501 167.8 342.001 167.6 342.801 167.1C344.134 167.033 345.301 167.2 346.301 167.6C347.901 167.6 348.501 167 349.801 166C350.801 165.2 351.201 164.6 352.401 164C353.267 163.2 353.934 162.467 354.401 161.8C355.601 160.933 356.434 160.1 356.901 159.3C357.701 158.9 357.967 158.433 357.701 157.9C356.001 158.1 355.301 158.7 354.201 159.5C353.632 160.173 352.957 160.747 352.201 161.2C351.163 161.907 349.954 162.321 348.701 162.4L344.901 162.1C343.501 161.9 344.801 161.6 345.201 160.9C345.867 160.5 346.067 159.867 345.801 159C344.601 158.667 343.334 158.567 342.001 158.7H338.301C336.901 158.7 336.301 158.4 335.301 157.9C335.101 157.1 335.301 157.3 336.301 157.3C337.517 157.28 338.725 157.112 339.901 156.8C341.101 156.4 341.301 155.9 341.501 154.6C340.101 154.6 338.934 154.5 338.001 154.3H335.601ZM312.601 148C312.301 146 311.901 144.9 311.801 142.8C311.801 141.4 311.801 142.2 313.301 140.1C313.501 140.1 314.501 139.1 315.601 138.1L319.601 135.7C320.701 135.2 322.901 134.7 323.801 134.2C325.154 133.572 326.35 132.65 327.301 131.5C327.301 129.7 327.601 128.4 327.601 126.4L331.701 124.4C333.701 123.8 334.001 123.1 335.901 122.8C337.101 122.4 339.101 122.4 340.801 122.4C342.701 122.4 343.801 123.8 345.501 124C347.501 124.8 348.501 125.4 350.001 126.8C350.901 127.9 351.501 128.8 353.001 129.7C354.134 130.5 355.401 131.167 356.801 131.7C356.801 133.1 357.101 132.9 356.101 132.9C355.901 134.3 355.601 134.3 354.201 134.3C353.239 133.765 352.417 133.012 351.801 132.1C352.401 130.6 352.001 133.2 351.801 133.7C351.101 134.3 350.801 134.8 350.001 134.3C349.501 132.9 349.201 132 349.201 130.3C348.901 128.6 348.501 129.9 348.201 130.6C347.701 132.1 347.901 132.6 348.401 133.7L344.901 133.5C343.901 133.3 342.834 133.433 341.701 133.9C340.301 134.9 340.701 134.9 341.401 135.9C342.601 136.3 343.701 136.833 344.701 137.5C345.834 137.367 347.067 137.1 348.401 136.7C349.701 136.3 350.801 136.7 352.101 136.7L354.001 137.5C354.001 138.5 353.901 139.267 353.701 139.8C353.201 140.2 352.701 141.2 351.701 141.4C350.583 142.078 349.369 142.584 348.101 142.9C346.501 142.9 345.801 143.3 344.601 143.9C344.501 145.4 344.001 145.8 342.701 146.2C341.588 146.778 340.355 147.086 339.101 147.1C338.234 147.167 337.601 147.033 337.201 146.7C338.1 145.778 338.813 144.692 339.301 143.5C339.601 142.9 340.101 142.5 339.601 142C338.001 142 337.601 142 337.401 143.6C337.301 145.2 336.701 145.4 335.601 145.9C335.801 144.633 336.067 143.433 336.401 142.3L333.001 142.6C332.201 143.2 331.801 143.3 332.201 144.2C331.067 144.467 329.801 144.467 328.401 144.2C327.301 144.2 327.901 143.7 327.101 143.2C326.501 142.1 326.001 141.8 324.701 141.8C324.101 142.6 323.001 142.8 322.301 143.4C321.101 143.8 320.401 143.4 319.301 142.9C318.101 142.9 318.301 143.3 318.501 144.3C319.101 144.6 318.501 145 319.401 145.1C320.201 145.8 320.801 145.9 322.301 145.9C323.434 145.767 324.667 145.7 326.001 145.7C327.301 145.7 327.101 146 327.101 147.3C326.301 148 325.001 147.9 323.601 147.9L320.401 147.1C319.201 147 318.201 146.7 317.201 147.1C316.801 147.6 315.601 147.7 317.001 147.9C317.601 148.4 320.701 148.1 320.801 149.1C321.601 149.9 321.401 151 320.201 151C319.909 150.842 319.582 150.76 319.251 150.76C318.919 150.76 318.593 150.842 318.301 151L314.801 151.1C316.801 151.3 313.301 148.9 312.601 148Z" fill="#FEFEFE"/>
<path fill-rule="evenodd" clip-rule="evenodd" d="M321 138.7L319.4 139.8L316.2 142C315.6 142.5 315.6 142.8 314.9 142.8C316.1 142.7 316.7 142.3 317.9 141.8C319.3 141.667 320.4 141.267 321.2 140.6C322 140.4 321.2 139.3 321 138.6V138.7ZM333.2 125.7C333.4 125.7 333.7 126.4 334.2 127C334.734 127.867 335.034 128.9 335.1 130.1C335.4 128.7 335.9 127.7 336.1 126.2C335.7 125.4 335.7 125.2 334.5 125.1C334.5 125.9 334.7 125.3 333.2 125.6V125.7Z" fill="#BCBCBC"/>
<path fill-rule="evenodd" clip-rule="evenodd" d="M325.079 137.502C324.477 137.502 326.042 136.872 326.644 136.746C326.965 135.822 327.487 135.066 328.209 134.478C329.493 134.478 330.376 134.94 330.858 135.864C332.062 136.242 332.423 136.746 333.748 136.998C334.35 137.502 334.952 137.502 333.748 137.88C332.945 138.216 331.901 138.384 330.617 138.384C329.529 138.463 328.466 138.763 327.487 139.266C325.681 139.266 325.922 139.266 325.079 137.502Z" fill="#C4C4C2" stroke="black" stroke-width="1.10851"/>
<path fill-rule="evenodd" clip-rule="evenodd" d="M338 125.9V126.2C338 125.467 338.1 125.8 338.3 127.2C338.7 128.133 338.867 129.3 338.8 130.7C339.571 130.025 340.156 129.165 340.5 128.2C340.5 126 340.1 126 338 125.9ZM347.8 157.9H348.1C347.3 157.9 347.8 157.9 349.1 157.1C350.1 156.4 350.8 155.5 352.1 155.1C353.104 154.234 354.255 153.556 355.5 153.1C356.2 152.8 356.8 152.4 357.5 152.8C357.3 154.2 357 154.8 355.8 155.4C355.133 156.2 354.333 156.733 353.4 157C352.6 157.4 351.6 157.5 351.3 158.5C349.8 159.1 349.7 159 347.9 157.9H347.8ZM352.9 165.9L355.9 163.2C356.612 162.134 357.489 161.188 358.5 160.4L360.9 157.4L363 154.6C363 155.8 362.9 157.4 363.3 158.1C363.376 159.288 363.098 160.471 362.5 161.5C361.9 162.5 361.5 163.1 360 163.8C358.9 164.4 358.1 164.6 357.2 165.4L354.7 166.8C354 167.1 354.3 167 352.9 166V165.9ZM344.6 172.3H344.9C344.1 172.3 344.5 172.4 346 171.5C347 170.5 348.133 169.767 349.4 169.3C350.545 169.272 351.67 169 352.7 168.5C353.3 168.3 353.7 167.9 354.2 168.5C355.1 169.6 355.3 170 354 170.7C353.198 171.335 352.281 171.81 351.3 172.1C350.7 172.7 349.3 172.7 348 172.9C347 172.9 346.4 173.1 346 172.3L348.1 172.9C347.1 172.9 346.5 173.1 344.6 172.3ZM356 172.3V172.1C355.933 172.9 356.133 172.5 356.6 170.9C357.6 169.4 358 168.5 359.3 168.2C359.9 167.4 360.9 167.2 362.3 166.8C362.7 167.6 362.3 168.6 362.3 169.6C361.9 170.6 360.9 171.3 360.3 172.1C359.5 172.7 359.3 173.2 357.9 173.5C356.9 173.5 357.5 173.5 356.1 172.3H356Z" fill="#BCBCBC"/>
<path fill-rule="evenodd" clip-rule="evenodd" d="M330.001 136.2C330.001 137.066 329.567 137.533 328.701 137.6C327.401 137.7 327.301 137 327.301 136.2C327.434 135.333 327.901 134.866 328.701 134.8C329.567 134.866 330.001 135.333 330.001 136.2Z" fill="black"/>
<path fill-rule="evenodd" clip-rule="evenodd" d="M333.268 214.296H334.352C330.98 214.296 333.027 214.044 338.566 218.706C340.974 216.69 340.974 216.438 342.78 219.966C343.984 221.856 344.224 219.714 346.03 217.698C346.873 221.73 347.355 225.888 350.244 222.108C353.615 222.108 356.987 221.856 358.793 223.242C360.96 227.4 360.237 222.486 361.923 224.376C366.739 224.88 366.619 220.092 371.676 218.832C374.806 222.99 376.251 219.84 380.104 217.824C383.114 218.58 385.883 223.242 386.485 218.706C388.893 214.674 389.013 214.926 390.699 218.706C393.107 220.974 394.07 217.698 395.996 216.564C399.448 218.664 403.702 219.042 408.759 217.698C409.722 221.352 411.889 219.714 414.177 218.706C418.872 220.848 420.438 221.478 425.856 218.706C428.504 215.43 427.059 218.832 428.986 220.974C432.959 219.714 431.875 219.462 436.451 219.84C441.146 219.84 441.507 219.84 442.832 216.564C445.24 218.958 445.962 220.722 449.213 217.698C454.27 217.698 452.705 218.328 455.594 216.438C457.882 221.478 458.363 217.95 461.012 219.84C459.486 223.537 456.87 226.627 453.548 228.66C451.501 232.44 450.176 236.22 446.083 237.732C443.073 240.882 439.822 242.772 436.451 245.544C431.875 246.804 426.819 246.552 421.642 246.552H376.853C373.722 248.316 368.425 249.072 364.09 249.954C359.274 249.954 353.615 249.954 350.244 248.82C347.957 246.426 343.983 243.78 341.816 241.008C339.408 239.118 339.408 235.464 337.482 233.196C335.796 230.046 335.074 225.006 333.268 222.108V214.296Z" fill="#005120" stroke="#002B0D" stroke-width="1.64224"/>
<path fill-rule="evenodd" clip-rule="evenodd" d="M436.45 224.376V225.384C436.45 222.36 436.57 223.998 434.283 229.92C433.922 231.306 432.838 231.684 431.152 232.188M426.938 228.786H428.022C424.049 232.566 421.4 234.456 420.557 238.866L428.022 228.786C424.049 232.566 421.4 234.456 420.557 238.866M412.009 223.242C412.009 223.242 411.888 227.148 410.925 228.786L412.009 223.242ZM399.246 224.376H400.33H399.126C399.608 224.376 399.969 224.376 399.126 224.376H399.246ZM339.648 224.376C340.13 224.376 342.297 227.904 344.946 229.92C344.344 233.196 343.26 236.976 344.946 240M348.197 231.054C348.678 231.054 350.725 234.582 353.494 236.598L348.197 231.054C348.678 231.054 350.725 234.582 353.494 236.598V237.732C353.494 234.204 353.254 230.676 354.578 228.786C355.782 230.928 357.227 234.204 357.708 231.054C363.728 230.802 366.618 229.038 370.471 227.652C370.471 229.29 370.23 228.534 371.675 229.92M443.915 225.384H444.998C442.952 227.148 441.386 230.802 439.701 233.196M400.33 222.108H408.758H400.33Z" fill="#005120"/>
<path d="M436.45 224.376V225.384C436.45 222.36 436.57 223.998 434.283 229.92C433.922 231.306 432.838 231.684 431.152 232.188M426.938 228.786H428.022M428.022 228.786C424.049 232.566 421.4 234.456 420.557 238.866L428.022 228.786ZM412.009 223.242C412.009 223.242 411.888 227.148 410.925 228.786M407.795 231.054V232.062M399.126 224.376H400.33H399.246H399.126ZM399.126 224.376C399.608 224.376 399.969 224.376 399.126 224.376ZM339.648 224.376C340.13 224.376 342.297 227.904 344.946 229.92C344.344 233.196 343.26 236.976 344.946 240M353.494 236.598C350.725 234.582 348.678 231.054 348.197 231.054L353.494 236.598ZM353.494 236.598V237.732C353.494 234.204 353.254 230.676 354.578 228.786C355.782 230.928 357.227 234.204 357.708 231.054C363.728 230.802 366.618 229.038 370.471 227.652C370.471 229.29 370.23 228.534 371.675 229.92M443.915 225.384H444.998C442.952 227.148 441.386 230.802 439.701 233.196M400.33 222.108H408.758" stroke="#002B0D" stroke-width="1.64224"/>
<path fill-rule="evenodd" clip-rule="evenodd" d="M330.7 230C317.9 230 313.7 243.4 300.9 243.4H300.1V244.2C300.1 253.533 300.766 262.2 302.1 270.2C314 269.4 318.3 256.8 330.7 256.8C343.5 256.8 347.8 270.2 360.6 270.2C373.4 270.2 377.6 256.8 390.4 256.8C403.2 256.8 407.5 270.2 420.4 270.2C433.1 270.2 437.4 256.8 450.2 256.8C462.5 256.8 466.9 269.2 478.7 270.1C480.129 261.307 480.799 252.408 480.7 243.5H480C467.2 243.5 463 230.1 450.2 230.1C437.4 230.1 433 243.5 420.3 243.5C407.6 243.5 403.3 230.1 390.4 230.1C377.5 230.1 373.4 243.5 360.6 243.5C347.9 243.5 343.5 230.1 330.6 230.1L330.7 230ZM330.7 282.3C320.7 282.3 316 290.4 308.3 293.9C310.847 300.907 314.027 307.669 317.8 314.1C321.411 311.024 325.958 309.262 330.7 309.1C343.5 309.1 347.8 322.5 360.5 322.5C373.4 322.5 377.6 309.1 390.5 309.1C403.2 309.1 407.5 322.5 420.3 322.5C433 322.5 437.3 309.1 450.2 309.1C454.841 309.221 459.296 310.954 462.8 314C466.562 307.563 469.742 300.803 472.3 293.8C464.8 290.2 460 282.3 450.2 282.3C437.4 282.3 433 295.6 420.2 295.6C407.5 295.6 403.2 282.3 390.4 282.3C377.6 282.3 373.4 295.6 360.5 295.6C347.6 295.6 343.5 282.3 330.7 282.3ZM390.4 334.4C377.6 334.4 373.4 347.9 360.6 347.9C348.5 347.9 344 335.9 332.7 334.6C345.087 348.16 359.954 359.226 376.5 367.2C380.5 364.1 384.5 370.9 390.3 370.9C396.3 370.9 400.3 364 404.2 367C420.577 359.072 435.304 348.112 447.6 334.7C436.7 336.3 432.2 347.9 420.3 347.9C407.5 347.9 403.3 334.5 390.4 334.5V334.4Z" fill="white"/>
<path d="M311.52 289.304C315.674 287.826 319.896 286.565 324.17 285.525L343.808 305.3L327.664 308.701L311.52 289.304Z" stroke="#512007" stroke-width="0.615928"/>
<path d="M349.699 315.045C350.005 310.496 358.679 284.392 358.679 284.392M352.659 315.342L359.496 284.59M355.006 315.44L360.72 284.59M350.005 311.287C351.536 310.496 355.924 309.31 355.924 309.31M352.148 306.739C353.577 306.739 356.536 305.552 356.536 305.552M352.965 303.278C354.419 302.745 355.923 302.348 357.455 302.092M353.577 298.927L358.373 298.136M355.72 295.17C355.72 295.467 358.986 295.467 358.986 295.467M356.536 291.808L359.802 292.302" stroke="#512007" stroke-width="0.602709"/>
<path d="M402.379 334.986C402.017 327.205 391.777 282.549 391.777 282.549M398.885 333.464L390.813 282.718M395.271 329.573C395.03 326.697 389.367 282.887 389.367 282.887M402.017 328.558C400.21 327.205 395.03 325.175 395.03 325.175M399.487 320.777C397.801 320.777 394.307 318.747 394.307 318.747M398.524 314.857C396.806 313.946 395.031 313.266 393.222 312.827M397.801 307.414L392.138 306.061M395.271 300.986C395.271 301.494 391.415 301.494 391.415 301.494M394.307 295.235L390.451 296.081" stroke="#512007" stroke-width="0.571026"/>
<path d="M432.043 323.514C431.682 317.72 421.441 284.469 421.441 284.469M428.549 322.38L420.477 284.595M424.935 319.483C424.694 317.342 419.031 284.721 419.031 284.721M431.682 318.728C429.874 317.72 424.694 316.209 424.694 316.209M429.151 312.934C427.465 312.934 423.971 311.422 423.971 311.422M428.188 308.526C426.47 307.847 424.695 307.341 422.886 307.014M427.465 302.984L421.802 301.976M424.935 298.198C424.935 298.575 421.079 298.575 421.079 298.575M423.971 293.915L420.115 294.545" stroke="#512007" stroke-width="0.615928"/>
<path fill-rule="evenodd" clip-rule="evenodd" d="M387.182 328.097L388.267 236.152C388.267 236.152 391.399 235.774 391.399 236.152C391.399 236.53 391.038 327.719 390.676 328.097C390.315 328.475 386.821 328.727 387.182 328.097ZM421.519 240.183L420.796 317.391L418.387 320.414L419.11 240.183H421.519Z" fill="#DD8B59" stroke="#512007" stroke-width="0.615928"/>
<path fill-rule="evenodd" clip-rule="evenodd" d="M348.268 312.983C348.268 312.983 351.882 350.768 392.122 349.635C432.363 348.501 443.567 311.597 443.567 311.597L426.098 310.842C425.736 310.842 412.122 328.475 394.532 328.097C376.942 327.719 371.4 323.311 367.544 319.658C363.689 316.006 360.316 310.464 360.316 310.464L339.834 302.025L341.039 310.086L348.268 312.983ZM457.061 309.204L455.856 304.166V299.884L457.784 295.35C457.784 295.35 427.302 300.01 427.302 300.388L427.182 308.952L457.061 309.078V309.204Z" fill="#DD8B59" stroke="#512007" stroke-width="0.615928"/>
<path d="M346.941 312.605C348.026 312.605 356.098 314.494 356.098 314.494L364.531 326.208M451.277 299.884L450.554 307.441H455.494L455.132 299.884H451.277ZM446.096 300.262L445.735 308.323L448.867 307.945L449.229 300.262H446.096ZM440.795 308.323V302.025L443.928 300.891L444.289 307.189L440.795 308.323ZM434.771 307.945L435.494 302.403L439.109 302.781L439.35 308.7L434.771 307.945ZM428.145 307.945L428.506 303.159L432.121 302.781V308.323L428.145 307.945Z" stroke="#512007" stroke-width="0.615928"/>
<path d="M352.846 314.117C353.207 314.494 360.195 339.055 393.809 339.055C427.423 339.055 435.495 311.22 435.495 311.22" stroke="#512007" stroke-width="0.615928"/>
<path d="M440.795 311.976C440.795 311.976 424.651 348.502 393.808 345.983C363.085 343.464 358.146 331.372 355.736 325.075C353.327 318.777 351.881 313.739 351.881 313.739" stroke="#512007" stroke-width="0.615928"/>
<path fill-rule="evenodd" clip-rule="evenodd" d="M360.556 310.464C360.917 308.323 360.917 241.946 360.917 241.946L358.869 241.694L358.508 309.331L360.556 310.59V310.464ZM310.557 288.926L337.062 302.403L336.46 304.292C336.46 304.292 310.918 291.697 310.918 291.319C310.918 290.942 311.159 289.43 310.557 288.8V288.926Z" fill="#DD8B59" stroke="#512007" stroke-width="0.615928"/>
<path fill-rule="evenodd" clip-rule="evenodd" d="M322.725 284.896C322.725 285.903 326.58 308.323 326.58 308.323C326.58 308.323 328.99 308.701 328.99 308.323L324.893 285.274L322.725 284.896ZM347.303 285.526C348.628 285.526 372.603 281.495 372.603 281.495L372.121 285.526L348.628 288.045L347.303 285.526Z" fill="#DD8B59" stroke="#512007" stroke-width="0.615928"/>
<path fill-rule="evenodd" clip-rule="evenodd" d="M350.676 255.171C351.519 255.171 359.109 259.202 362.362 258.194C365.615 257.187 363.447 254.416 364.049 254.416C364.772 254.416 367.182 256.305 368.627 254.793C370.073 253.282 371.037 249 370.434 249.378C369.832 249.755 351.158 256.683 350.796 255.171H350.676Z" fill="#FECF3E" stroke="#512007" stroke-width="0.615928"/>
<path fill-rule="evenodd" clip-rule="evenodd" d="M347.664 264.366C348.989 264.744 376.338 256.683 376.338 256.683C376.338 256.683 376.338 259.202 375.977 259.202L347.664 266.885V264.366Z" fill="#DD8B59" stroke="#512007" stroke-width="0.615928"/>
<path fill-rule="evenodd" clip-rule="evenodd" d="M410.916 253.03C410.916 253.03 412.723 257.438 414.531 256.683C416.338 255.927 418.024 254.416 418.024 254.416C418.024 254.416 419.47 258.194 421.88 257.438C424.289 256.683 425.735 252.652 425.735 252.652C425.735 252.652 428.145 253.408 429.229 253.03C430.313 252.652 431.639 246.732 431.639 246.732L410.916 253.03ZM408.868 288.548C408.507 289.304 410.675 291.068 412.482 291.068C414.29 291.068 414.892 288.549 415.253 289.304C415.615 289.934 415.615 293.335 420.073 292.201C424.53 291.068 424.651 287.793 424.651 287.793C424.651 287.793 423.326 288.926 426.458 289.304C429.591 289.682 432.723 284.518 432.482 284.518C432 284.518 409.591 288.926 408.868 288.548Z" fill="#FECF3E" stroke="#512007" stroke-width="0.615928"/>
<path fill-rule="evenodd" clip-rule="evenodd" d="M348.749 253.66C348.529 254.795 348.612 255.971 348.99 257.06L371.882 248.999C371.882 248.999 372.845 247.11 371.882 247.11C370.918 247.11 348.388 254.415 348.629 253.786L348.749 253.66ZM378.869 248.622C379.472 248.622 402.242 240.938 402.242 240.938C402.242 240.938 402.604 244.213 402.242 244.213L380.918 250.763L378.749 248.622H378.869Z" fill="#DD8B59" stroke="#512007" stroke-width="0.615928"/>
<path fill-rule="evenodd" clip-rule="evenodd" d="M408.868 264.744C408.868 264.744 405.374 268.774 406.459 274.19C407.543 279.732 408.868 284.518 409.23 284.518C409.591 284.518 413.447 277.213 417.663 276.835C421.88 276.457 429.591 280.866 429.591 280.866C429.591 280.866 428.507 272.049 428.868 268.018C429.229 263.988 435.133 257.061 435.133 257.061L408.868 264.618V264.744Z" fill="#FECF3E" stroke="#512007" stroke-width="0.615928"/>
<path fill-rule="evenodd" clip-rule="evenodd" d="M377.062 258.068C377.062 258.068 376.339 261.469 376.701 261.469L406.459 253.408V251.015L377.062 257.942V258.068Z" fill="#DD8B59" stroke="#512007" stroke-width="0.615928"/>
<path fill-rule="evenodd" clip-rule="evenodd" d="M339.232 302.403C339.232 302.403 332.244 301.395 332.605 303.159C332.967 305.048 336.099 306.811 336.461 307.945C336.822 309.078 335.376 312.983 337.545 312.731C339.593 312.353 341.641 310.842 341.641 309.708L341.28 303.41L339.232 302.403Z" fill="#B6B6B4" stroke="#512007" stroke-width="0.615928"/>
<path fill-rule="evenodd" clip-rule="evenodd" d="M378.146 284.14V286.659L403.327 283.006L402.604 281.117L378.146 284.14Z" fill="#DD8B59" stroke="#512007" stroke-width="0.615928"/>
<path fill-rule="evenodd" clip-rule="evenodd" d="M348.267 288.548C348.748 288.548 348.267 291.823 351.158 291.067C353.929 290.311 354.652 288.548 354.652 288.548C354.652 288.548 355.375 292.579 359.23 292.201C363.086 291.823 365.254 287.415 365.254 287.415C365.254 287.415 365.495 290.689 367.905 289.556C370.314 288.422 371.037 285.903 371.037 285.903L348.989 289.178L348.267 288.548ZM348.267 266.884C348.267 266.884 345.134 268.018 346.218 274.568C347.303 281.117 349.833 284.896 350.074 284.896C350.315 284.896 353.206 278.598 357.423 277.59C361.64 276.331 368.989 280.865 368.989 280.865C368.989 280.865 368.266 274.945 369.351 269.529C370.124 266.002 371.694 262.72 373.929 259.957C373.929 259.957 349.351 266.884 348.387 266.884H348.267Z" fill="#FECF3E" stroke="#512007" stroke-width="0.615928"/>
<path fill-rule="evenodd" clip-rule="evenodd" d="M407.182 285.904L407.543 288.171C407.543 288.171 432.844 284.896 432.844 284.392C432.844 284.14 432.844 281.873 432.362 281.873C432.001 281.873 407.543 286.281 407.061 285.904H407.182ZM406.82 262.476L407.182 264.995L436.94 256.683C436.94 256.683 437.663 254.416 437.302 254.416C436.94 254.416 407.543 263.61 406.82 262.476Z" fill="#DD8B59" stroke="#512007" stroke-width="0.615928"/>
<path d="M456.579 293.208L434.893 257.438M432.001 282.251C432.363 281.243 433.447 259.201 433.447 259.201M409.954 250.763C409.954 250.763 409.592 253.03 409.954 253.03C410.315 253.03 432.001 247.488 432.001 247.11C432.001 246.732 434.17 244.591 432.363 244.969C430.676 245.347 410.676 251.896 409.954 250.763Z" stroke="#512007" stroke-width="0.615928"/>
<path fill-rule="evenodd" clip-rule="evenodd" d="M379.591 249.755C380.796 250.007 383.326 253.786 384.772 253.03C386.218 252.274 388.266 250.007 388.266 250.007C388.266 250.007 387.904 254.415 390.675 253.786C393.567 253.03 393.928 250.007 393.928 250.007C393.928 250.007 395.977 251.267 397.784 250.007C399.47 248.999 401.157 243.458 400.555 243.458C399.952 243.458 380.194 250.007 379.471 249.755H379.591ZM378.868 260.335C378.868 261.091 375.254 266.885 376.459 272.426C377.664 277.968 379.471 283.006 379.832 283.006C380.194 283.006 385.495 277.213 390.073 276.079C394.651 274.946 401.278 279.732 400.916 279.732C400.555 279.732 399.109 274.19 399.109 270.159C399.109 266.129 404.41 253.786 404.41 253.786L378.868 260.335ZM378.868 286.785C378.868 287.037 379.832 289.556 382.362 289.556C384.892 289.556 385.133 287.037 385.133 287.037C385.133 287.037 384.772 291.445 388.627 291.067C392.483 290.69 393.808 286.659 393.808 286.659C393.808 286.659 394.169 288.926 397.422 287.793C400.555 286.659 404.651 283.006 404.41 283.006C404.169 283.006 379.109 287.793 378.748 286.785H378.868Z" fill="#FECF3E" stroke="#512007" stroke-width="0.615928"/>
<path fill-rule="evenodd" clip-rule="evenodd" d="M381.717 267.268C382.212 267.289 382.68 267.515 383.016 267.897C383.353 268.278 383.531 268.784 383.512 269.302C383.492 269.821 383.277 270.31 382.913 270.662C382.549 271.014 382.066 271.2 381.571 271.179C381.076 271.158 380.608 270.932 380.272 270.551C379.935 270.169 379.757 269.664 379.776 269.145C379.795 268.627 380.011 268.138 380.375 267.786C380.739 267.434 381.221 267.248 381.717 267.268Z" fill="#BE0F17" stroke="#512007" stroke-width="0.603966"/>
<path fill-rule="evenodd" clip-rule="evenodd" d="M394.389 263.909C394.884 263.929 395.351 264.155 395.688 264.537C396.025 264.918 396.203 265.424 396.184 265.942C396.164 266.461 395.949 266.95 395.585 267.302C395.221 267.654 394.738 267.84 394.243 267.819C393.747 267.798 393.28 267.572 392.943 267.191C392.607 266.81 392.429 266.304 392.448 265.785C392.467 265.267 392.683 264.778 393.047 264.426C393.411 264.074 393.893 263.888 394.389 263.909Z" fill="#BE0F17" stroke="#512007" stroke-width="0.603966"/>
<path fill-rule="evenodd" clip-rule="evenodd" d="M388.053 270.821C388.548 270.841 389.016 271.067 389.352 271.449C389.689 271.83 389.867 272.336 389.848 272.854C389.828 273.373 389.613 273.862 389.249 274.214C388.885 274.566 388.402 274.752 387.907 274.731C387.411 274.71 386.944 274.485 386.607 274.103C386.271 273.722 386.093 273.216 386.112 272.698C386.131 272.179 386.347 271.69 386.711 271.338C387.075 270.986 387.557 270.8 388.053 270.821Z" fill="#BE0F17" stroke="#512007" stroke-width="0.603966"/>
<path fill-rule="evenodd" clip-rule="evenodd" d="M388.053 260.261C388.548 260.281 389.016 260.507 389.352 260.889C389.689 261.27 389.867 261.776 389.848 262.294C389.828 262.813 389.613 263.302 389.249 263.654C388.885 264.006 388.402 264.192 387.907 264.171C387.411 264.15 386.944 263.924 386.607 263.543C386.271 263.162 386.093 262.656 386.112 262.137C386.131 261.619 386.347 261.13 386.711 260.778C387.075 260.426 387.557 260.24 388.053 260.261Z" fill="#BE0F17" stroke="#512007" stroke-width="0.603966"/>
<path d="M390.676 237.16C390.676 236.908 401.52 241.946 401.52 242.324C401.52 242.702 440.073 296.232 440.435 296.232M421.158 242.324L431.037 246.732L434.17 254.793M360.195 241.694C359.833 241.694 371.038 250.511 371.038 250.511L372.484 257.69M322.123 295.098C326.942 292.957 360.918 261.847 360.918 261.847M312.967 289.178L351.159 255.549M376.701 260.587L412.845 323.311M408.507 286.533C408.507 286.533 412.724 301.27 416.941 303.537C420.087 305.302 423.143 307.236 426.098 309.33" stroke="#512007" stroke-width="0.615928"/>
<path d="M408.025 286.911C408.025 286.911 411.037 304.293 415.254 307.567C419.471 310.842 423.688 314.495 423.688 314.495" stroke="#512007" stroke-width="0.615928"/>
<path d="M379.025 285.609C379.025 285.609 383.122 309.792 391.555 315.334L406.977 325.536" stroke="#512007" stroke-width="0.615928"/>
<path d="M378.665 285.231C378.665 285.231 387.701 304.376 395.532 310.17C403.122 316.09 413.604 321.506 413.604 321.506M349.268 286.869C351.677 291.277 351.316 299.716 354.087 302.613C356.634 305.623 358.97 308.822 361.075 312.185M349.87 287.121C351.316 289.262 355.171 300.22 357.581 303.494C359.388 306.517 377.219 325.158 377.219 325.158" stroke="#512007" stroke-width="0.615928"/>
<path fill-rule="evenodd" clip-rule="evenodd" d="M371.315 326.04C371.315 326.403 371.246 326.764 371.113 327.1C370.98 327.436 370.785 327.742 370.538 327.999C370.292 328.256 370 328.46 369.679 328.6C369.357 328.739 369.012 328.81 368.664 328.81C368.316 328.81 367.971 328.739 367.65 328.6C367.328 328.46 367.036 328.256 366.79 327.999C366.544 327.742 366.349 327.436 366.215 327.1C366.082 326.764 366.014 326.403 366.014 326.04C366.014 325.305 366.293 324.6 366.79 324.08C367.287 323.561 367.961 323.269 368.664 323.269C369.367 323.269 370.041 323.561 370.538 324.08C371.036 324.6 371.315 325.305 371.315 326.04ZM384.206 331.959C384.206 332.594 383.965 333.203 383.536 333.651C383.106 334.1 382.524 334.352 381.917 334.352C381.31 334.352 380.728 334.1 380.298 333.651C379.869 333.203 379.628 332.594 379.628 331.959C379.628 331.325 379.869 330.716 380.298 330.267C380.728 329.818 381.31 329.566 381.917 329.566C382.524 329.566 383.106 329.818 383.536 330.267C383.965 330.716 384.206 331.325 384.206 331.959ZM400.712 333.471C400.712 334.105 400.471 334.714 400.041 335.163C399.612 335.612 399.03 335.864 398.423 335.864C397.816 335.864 397.233 335.612 396.804 335.163C396.375 334.714 396.134 334.105 396.134 333.471C396.134 332.836 396.375 332.227 396.804 331.779C397.233 331.33 397.816 331.078 398.423 331.078C399.03 331.078 399.612 331.33 400.041 331.779C400.471 332.227 400.712 332.836 400.712 333.471ZM415.049 327.803C414.969 329.146 414.326 329.86 413.121 329.944C411.917 329.776 411.274 329.062 411.194 327.803C411.194 326.669 412.037 325.536 413.121 325.536C414.326 325.62 414.969 326.375 415.049 327.803ZM426.615 320.624C426.454 321.883 425.691 322.555 424.326 322.639C423.121 322.639 422.037 321.757 422.037 320.624C422.037 319.49 423.121 318.608 424.326 318.608C425.691 318.692 426.454 319.364 426.615 320.624Z" fill="black" stroke="#512007" stroke-width="0.615928"/>
<path fill-rule="evenodd" clip-rule="evenodd" d="M358.663 242.03C357.579 242.785 340.109 247.194 342.519 246.816C344.928 246.438 359.025 250.594 358.663 249.335C358.302 248.075 358.663 242.785 358.663 242.03ZM388.422 236.614C387.699 236.614 377.579 240.644 377.94 240.644C378.301 240.644 389.506 243.919 389.145 243.163C388.783 242.408 388.783 237.621 388.422 236.614ZM418.903 240.266C418.18 240.644 406.253 243.541 408.421 243.919C410.59 244.297 418.542 247.194 418.542 246.438C418.542 245.808 418.542 240.644 418.903 240.14V240.266Z" fill="#FF0000" stroke="#512007" stroke-width="0.615928"/>
<path d="M406.254 325.914C406.615 320.12 416.856 286.869 416.856 286.869M409.748 324.78L417.82 286.995M413.362 321.883C413.603 319.742 419.266 287.121 419.266 287.121M406.615 321.128C408.423 320.12 413.603 318.609 413.603 318.609M409.145 315.334C410.832 315.334 414.326 313.822 414.326 313.822M410.109 310.925C411.826 310.247 413.601 309.741 415.41 309.414M410.832 305.384L416.495 304.376M413.362 300.597C413.362 300.975 417.218 300.975 417.218 300.975M414.326 296.315L418.181 296.945" stroke="#512007" stroke-width="0.615928"/>
<path d="M376.494 326.03C376.856 320.011 387.096 285.467 387.096 285.467M379.988 326.423L388.06 285.729M382.759 326.554L389.506 285.729M376.856 321.058C378.663 320.011 383.843 318.441 383.843 318.441M379.386 315.039C381.072 315.039 384.566 313.469 384.566 313.469M380.349 310.459C382.067 309.754 383.842 309.229 385.651 308.889M381.072 304.702L386.735 303.655M383.602 299.73C383.602 300.122 387.458 300.122 387.458 300.122M384.566 295.281L388.422 295.935" stroke="#512007" stroke-width="0.627785"/>
<path d="M372.428 322.043C372.066 316.214 361.826 282.76 361.826 282.76M368.934 320.902L360.862 282.886M365.319 317.988C365.078 315.834 359.416 283.013 359.416 283.013M372.066 317.228C370.259 316.214 365.078 314.693 365.078 314.693M369.536 311.398C367.85 311.398 364.356 309.878 364.356 309.878M368.572 306.963C366.855 306.281 365.08 305.771 363.271 305.443M367.85 301.388L362.187 300.374M365.319 296.572C365.319 296.952 361.464 296.952 361.464 296.952M364.356 292.264L360.5 292.897" stroke="#512007" stroke-width="0.617803"/>
<path fill-rule="evenodd" clip-rule="evenodd" d="M424.651 310.842L457.903 311.597L458.265 309.078L423.928 308.7L424.651 310.842ZM426.096 301.647C429.952 301.647 458.987 295.853 458.987 295.853C458.987 295.853 460.072 292.075 458.987 292.075C457.903 292.075 426.096 299.128 426.096 299.128V301.647Z" fill="#DD8B59" stroke="#512007" stroke-width="0.615928"/>
<path fill-rule="evenodd" clip-rule="evenodd" d="M388.053 265.54C388.548 265.561 389.016 265.787 389.352 266.168C389.689 266.55 389.867 267.056 389.848 267.574C389.828 268.093 389.613 268.582 389.249 268.934C388.885 269.286 388.402 269.472 387.907 269.451C387.411 269.43 386.944 269.204 386.607 268.823C386.271 268.441 386.093 267.936 386.112 267.417C386.131 266.899 386.347 266.41 386.711 266.058C387.075 265.706 387.557 265.52 388.053 265.54Z" fill="#BE0F17" stroke="#512007" stroke-width="0.603966"/>
<path d="M0 0H256V256H0V0Z" fill="#012169"/>
<path d="M256 0V32L161 128L256 221.5V256H222.5L127 162L34 256H0V222L93 128.5L0 37V0H31L127 94L220 0H256Z" fill="white"/>
<path d="M92 162L97.5 179L21 256H0V254.5L92 162ZM154 156L181 160L256 233.5V256L154 156ZM256 0L160 98L158 76L233 0H256ZM0 0.5L96.5 95L67 91L0 24.5V0.5Z" fill="#C8102E"/>
<path d="M88 0V256H168V0H88ZM0 88V168H256V88H0Z" fill="white"/>
<path d="M0 104V152H256V104H0ZM104 0V256H152V0H104Z" fill="#C8102E"/>
</g>
<defs>
<linearGradient id="paint0_linear_3921_15299" x1="100.738" y1="579.083" x2="125.967" y2="564.621" gradientUnits="userSpaceOnUse">
<stop stop-color="#A43907"/>
<stop offset="1" stop-color="white"/>
</linearGradient>
<linearGradient id="paint1_linear_3921_15299" x1="331.937" y1="350.733" x2="299.329" y2="332.872" gradientUnits="userSpaceOnUse">
<stop stop-color="#A43907"/>
<stop offset="1" stop-color="white"/>
</linearGradient>
<linearGradient id="paint2_linear_3921_15299" x1="352.234" y1="363.745" x2="281.525" y2="354.525" gradientUnits="userSpaceOnUse">
<stop stop-color="#A43907"/>
<stop offset="1" stop-color="white"/>
</linearGradient>
<linearGradient id="paint3_linear_3921_15299" x1="482.776" y1="333.774" x2="450.042" y2="335.516" gradientUnits="userSpaceOnUse">
<stop stop-color="#A43907"/>
<stop offset="1" stop-color="white"/>
</linearGradient>
<linearGradient id="paint4_linear_3921_15299" x1="496.058" y1="351.903" x2="426.533" y2="356.062" gradientUnits="userSpaceOnUse">
<stop stop-color="#A43907"/>
<stop offset="1" stop-color="white"/>
</linearGradient>
<linearGradient id="paint5_linear_3921_15299" x1="488.313" y1="370.145" x2="292.582" y2="370.145" gradientUnits="userSpaceOnUse">
<stop stop-color="#A43907"/>
<stop offset="1" stop-color="white"/>
</linearGradient>
<linearGradient id="paint6_linear_3921_15299" x1="297.962" y1="384.472" x2="584.236" y2="385.499" gradientUnits="userSpaceOnUse">
<stop stop-color="#A43907"/>
<stop offset="1" stop-color="white"/>
</linearGradient>
<linearGradient id="paint7_linear_3921_15299" x1="495.196" y1="368.937" x2="472.049" y2="369.607" gradientUnits="userSpaceOnUse">
<stop stop-color="#A43907"/>
<stop offset="1" stop-color="white"/>
</linearGradient>
<linearGradient id="paint8_linear_3921_15299" x1="291.795" y1="391.821" x2="314.225" y2="393.305" gradientUnits="userSpaceOnUse">
<stop stop-color="#A43907"/>
<stop offset="1" stop-color="white"/>
</linearGradient>
<linearGradient id="paint9_linear_3921_15299" x1="313.653" y1="388.56" x2="272.917" y2="378.511" gradientUnits="userSpaceOnUse">
<stop stop-color="#A43907"/>
<stop offset="1" stop-color="white"/>
</linearGradient>
<clipPath id="clip0_3921_15299">
<rect width="512" height="512" fill="white"/>
</clipPath>
</defs>
</svg>
