<svg width="512" height="512" viewBox="0 0 512 512" fill="none" xmlns="http://www.w3.org/2000/svg">
<g clip-path="url(#clip0_3921_15523)">
<path d="M0 256H512V512H0V256Z" fill="#00AB39"/>
<path d="M0 0H512V256H0V0Z" fill="white"/>
<path d="M339.5 113.2C306.054 131.186 274.438 152.386 245.1 176.5C230.8 189.1 234.8 199.1 234.3 210.3C234.7 217.9 232.6 224.9 228 229.1L196 235.6L193 226.8C194 222.3 197.7 220 205.6 222.8C206.2 217.1 201.6 214.8 196.1 212.7C194.1 211.2 191.9 210.1 192.1 205.1C191.2 193.7 209.5 205.9 209.6 205.9C209.7 205.9 209 194.4 200.6 192.1C196.1 190.5 194.2 185.7 195.9 182.1C199.5 174.8 206.4 182.7 211.7 183C211.5 178.2 210.1 174.8 206 171C203.8 169.6 198.4 168.6 198.3 166.3C198.2 163.3 203.3 161.9 210.5 162.8C209 158.4 204.2 155.6 197.6 153.6L193.7 146.8C191.9 143.4 191 143.3 195.3 136.8L208.1 128.3L203.9 127.8C204.4 123.2 204.5 121.6 205.6 113.9C201.4 119.5 196.3 118.5 191.6 120.9C191.6 120.9 178.4 123.2 174.2 128.9L140.9 127.1C133.9 128.1 127.9 130.1 126.6 137C110.6 138.6 93.6004 137.2 81.3004 152.6C89.7004 152.2 97.0004 150.2 106.4 151.4C106.4 151.4 114.4 151.6 116.1 160.1C116.3 160.4 118.8 160.4 118.8 160.4L121.8 162.8L123.1 159.5L125.8 161.5L126.6 157.9L129.3 159.7L129.5 155.5L133.1 158V152.4C133.1 152.4 146.2 152.4 150.2 160.8C150.4 160.9 113.4 167.6 77.6004 164.5L87.9004 159.4C74.9004 156.7 62.6004 154.4 51.1004 145.3C55.5004 161.7 77.9004 180.9 82.5004 180.8L78.1004 172.8L117 174.5C118.4 178.8 117.8 183.6 121.2 187.4C121.2 187.4 119.1 194.5 123.8 197.4C124 197.8 129.5 183 129.5 183C129.5 183 131.2 187 132.9 189.6C135.4 176.9 149.2 174.8 149.2 174.8L152.2 181.6C147.8 182.3 142.4 191.1 145.3 195.9C142.4 195.9 137.3 204.5 138.9 209.1C136.4 211.5 130.4 214.8 131.9 224.9C127.1 225.9 124.3 234.7 125.8 243.9C118.4 250.8 120.2 263.4 126.8 268.5C124.1 271 122.4 272.8 122.4 275.8C119.8 274.8 117.4 275.7 116.3 277.4C113.1 274.1 108.5 271.2 105.3 274.3C104.4 270.4 99.3004 266.2 93.9004 266.7C94.2004 262.6 92.1004 257.6 86.2004 255.8C86.2004 255.8 85.1004 236.7 79.2004 230.5C78.7004 227 79.6004 224.7 84.4004 221.9C89.1004 219.3 90.2004 217.3 89.8004 210.1C91.7004 205.3 93.1004 200.4 87.3004 197.1C87.4004 202.8 85.7004 205.6 83.3004 208.1C80.6004 207.7 79.6004 210.9 77.8004 212.4C75.1004 208.8 83.3004 203.4 77.2004 195.5C76.9004 195.2 73.0004 185.3 63.5004 185.5C65.5244 186.691 67.1881 188.407 68.315 190.467C69.4418 192.527 69.9897 194.854 69.9004 197.2C66.3844 205.005 65.8507 213.828 68.4004 222C64.4004 216 62.2004 204.8 58.9004 202.8C56.0004 202.3 54.6004 195.5 43.5004 197.4C48.3004 198.7 49.8004 202.4 51.1004 205.7C48.1004 207.3 49.6004 211.3 51.8004 214C51.4004 220.6 55.3004 224.4 61.1004 226.8L58.2004 253.4C55.9004 253.1 52.3004 262.2 50.9004 262.4C48.7004 263.8 44.7004 267.6 49.2004 268.7C47.9004 273.6 46.6004 276.5 39.4004 277.5C39.4004 277.5 47.1004 282.1 53.4004 274.3C60.2004 274.1 58.0004 266 61.3004 262.4C61.3004 262.3 63.1004 261.1 65.9004 253.9C67.1004 260.3 73.6004 279.9 88.4004 289.6C101.4 303.4 112 316.5 111.9 334.9C116.9 330.2 119.9 322.8 122.2 315.7C129.2 313.3 139.2 312.4 148.2 312.7C146.7 316 145 319.1 147.2 321.2C140.9 323.3 139.6 327.8 142.1 332.4C135.5 336.8 135.1 339.7 135 347.1C122.8 362.7 115.3 362.2 103.2 358.1C99.2004 355.8 93.2004 352.5 90.3004 354.3C85.1004 350.8 77.6004 350.3 76.3004 358.2C80.3004 354.9 82.6004 355.6 85.7004 358.7C85.1004 360.3 84.6004 361.8 86.9004 362.7L83.9004 366.1C78.3004 365.3 70.7004 365.3 68.8004 373.4C71.6004 371.1 78.0004 370.4 83.2004 372.8L86.1004 373.8L86.4004 377.7C86.4004 377.7 78.8004 376.5 76.7004 388.9C83.9004 381.3 89.0004 383.3 89.0004 383.3C91.7004 387.3 101.9 386.7 109.2 380.1C119.4 374.3 122.4 382.6 129 377.1C134.5 373.1 141 375.8 145.5 380.6C150.6 382.5 156 384.1 160.3 380.6C160.3 380.6 165.4 377.3 170.6 382.6C170.6 376.6 166.4 373.4 160.6 373.3L158.9 371.6C153.5 370.4 147.4 370.9 142.6 368.2C144.466 359.676 148.574 351.805 154.5 345.4C162.3 337 168.1 333.2 178.1 320.2C177.7 327.5 183.3 335.6 186.2 343.1C186.2 343.1 192.2 333.6 193 325.9C193.2 325.9 200.4 322.1 203.5 318.9C210.1 322.9 220.7 315.7 227.6 309.6C231.586 311.161 236.014 311.161 240 309.6C236 317.6 242.3 325.1 252.3 328.3C253.2 335.4 260.3 336.9 271.3 336.9C271.7 341.1 278.3 341.7 278.3 341.7C274.1 343.7 272 345.5 272.1 349.9C267.9 349.9 264.7 350.9 263.6 355.8C257.869 355.514 252.158 356.684 247 359.2C241.04 358.482 235.45 355.931 231 351.9C228.9 350.1 228.3 347.5 224.6 346.5C222.2 343.6 219.4 344.3 218.5 347C216 345 206.8 344.1 205.2 352.9C209.5 349.7 213.4 348.5 216.2 352.4C214.6 355.1 219.7 356.6 224.1 357.7C227.1 357.9 232.7 360.7 234.4 365.5C232.039 366.148 229.565 366.277 227.149 365.881C224.733 365.484 222.431 364.569 220.4 363.2C218.892 361.896 216.994 361.129 215.003 361.021C213.012 360.912 211.041 361.468 209.4 362.6C205.6 360.2 196.9 364.6 196.6 371.7C200.2 368.3 203.6 366.7 206.9 368.9C205.3 369.3 205.9 369.4 206.1 370.4L214.6 375.3C210.4 376.4 206.5 378.1 208.3 385.8C208.3 385.8 211.7 379.1 219.3 381.6C219.5 381.4 220.3 384 222.5 382.3C225.8 378.5 233.5 376.8 240 376.2C245.4 375.5 250.7 374 255.3 377C259.4 374.9 264 373.4 268.7 376.8C274.3 378.6 278.3 385 285.4 382.1C288.9 379.7 293.2 379.5 297.6 384.5C297.6 378.3 293 376.2 286.4 374.8L281.8 372.1C277.6 371.4 273.3 372.2 269 370.2C279.109 367.785 288.634 363.374 297.014 357.226C305.395 351.079 312.462 343.318 317.8 334.4L328.3 338.1C330.8 338.3 331 339.1 336.1 340.7C336.3 333.1 333.1 325.3 319.5 324.6L301.6 317.8C297.9 313.8 296.1 305.3 301 300.3C305.7 296.1 306.5 296.6 309.6 291.5C313.4 291.1 317 295 320.5 295C322.2 300 331.7 304.3 337.8 302.8C341.6 306.2 348.8 308.1 356.8 305.4C361.3 309.4 367.2 311 374.1 307.9C376 309.7 379.8 311.2 384.3 310.3C384.7 310.3 386.6 315.2 391.5 316.9C389.3 318.9 390.6 327.9 392.8 331.2C391.3 334.6 390.8 338.2 392.1 341.9C387.2 345 386.2 347.4 388.4 352.7C382 363.1 374.3 364.2 367 361L359.2 356.1L350.9 348C349.5 346.6 346.6 346.2 345.9 349.2C345.9 349.2 335.3 346.8 334.4 355.8C338.8 351.5 345.1 355.3 345.1 355.4C345.1 355.6 343.6 356.6 344.8 358.4C345 358.1 352.6 361.2 359.3 364C356.355 362.689 353.212 361.878 350 361.6C346.2 361.2 342.2 360.7 340.4 363.6C336.3 365.3 329.9 366.7 330.2 374.3C332.9 369.8 336.7 370 341.5 370.3C341.5 370.7 341.4 371.067 341.2 371.4C346.4 373.8 345.5 370.7 350.3 370.3C354.4 369.9 360.3 371.4 363.3 372.4C359.4 373.5 354.2 373.1 351.7 375.8C351.3 376.8 349.7 376.3 350.4 378.5C350.4 378.5 342.9 378.3 340.9 388.7C348.5 383.8 354.3 384 354.4 384L356.8 384.5C356.8 384.5 366 378.3 366.2 378.3C366.3 378.3 375 374.5 379.1 378.9C382.567 380.7 386.167 380.567 389.9 378.5C397.1 375.5 403.7 375.2 410.3 379.5L416.3 383.1L418.8 381.4C418.8 381.4 425.5 379.5 430.4 385.4C428.4 375.1 421 374.8 421 374.8L419.3 373.3L408.8 369.2C407.2 365.4 403.4 362.4 407.2 357.8C411.2 338.3 415.8 323.8 408.2 304C415.3 307 420.6 316.5 429.5 313.2C429.5 305.2 400.3 290.2 378 278.2C414.5 276.2 458.4 249.3 441.5 215.1L449.5 190.3C453.434 197.613 459.908 203.233 467.7 206.1C462.1 195.3 458.8 162.5 462.1 139.9C447.164 157.809 431.063 174.712 413.9 190.5C422.3 192.5 429.8 191.1 437.9 190.1L431.1 204.4C408.6 191.2 382.3 201.1 382.1 218.6C382.9 239.1 408.1 242 422.7 234.9C419.8 253.5 377 246.6 377 246.6C361.8 241.4 347.3 242.3 331.4 242.4C334.7 232.2 353.1 223.1 367.2 227.1C347.5 205.1 370 177.7 397 169.2C367.5 159.5 393 137 415 120.9C415 120.9 351.5 147.6 345.7 147.5C327.7 146.2 332.6 124.8 339.4 113.3L339.5 113.2ZM140 139C141.6 139 143.134 139.167 144.6 139.5C147.5 140.2 151 140.6 150.9 141.5C149.6 143.7 146.3 146.4 143.1 146.2C139.9 146.1 138.1 144.2 137 139.3C137.4 139.1 138.4 139 140 139ZM407.5 214.4C411.6 214.4 416.6 216.1 421.5 221.3C419.1 228 398.8 231.5 397.5 221.5C397.1 218.5 401.4 214.5 407.5 214.5V214.4Z" fill="#D21034" stroke="black" stroke-width="1.2"/>
<path d="M161 197.9L164 202.4M164 202.5C164 202.5 164 208.5 165.2 208.7M162.4 211.9L165.6 217.2M156.8 218.6L160.8 223M164 219.6C164 219.8 167.6 226.5 167.9 226.5M159.3 224.2C159.3 224.2 160.6 232.4 161.7 232.1M154 239.1L157.6 244.6M160.7 233.4C160.7 233.4 162.7 241.1 164.2 240.4M165.8 228.7C165.9 228.9 169.4 233.9 170.4 233.2M169.6 235.2L172.9 241.9M163.9 240.4C164.1 240.6 166.7 248.4 166.7 248.4M157.5 244.4C157.5 244.4 160 253 162.3 251.6M156.5 255.8C156.5 255.8 156.7 260.3 158.9 260.5M160.4 253.5C160.4 253.7 162.7 256.8 162.7 256.8M166.8 248.2L168.7 251.2M172.7 242.8L175.6 246.3M159.8 202.6C159.9 206.4 165.9 201.2 168.3 198M157.3 215.7C157.3 215.7 163.8 211.1 168.9 204.1M155 226.8C159.6 225.5 168.1 215.2 169.8 209.8M154.1 237C155.4 237.6 171.3 226.1 171.7 217.7M153.7 245.8C153.7 245.7 168.2 242.1 174.3 226.1M152.9 258C152.9 258 176.1 244.1 177.4 233.9M334 281.3C334 281.3 332.5 293.3 320.5 295.1M337.8 302.7C338 302.6 349.3 290.1 346.4 286.3M364.2 290.7C364.2 290.7 364 299.4 356.9 305.4M378.3 293.2C378.3 293.2 378.6 303.7 374.1 307.9M391.3 299.5C391.3 299.5 386.3 309.3 384.5 310.3M391.1 316.9C391.1 316.9 397.7 318.6 399.8 314.2M392.8 331.2C392.8 331.2 399 332.3 401.8 326.4M392.2 342.2C392.2 342.2 397.2 346.4 400.5 340.9M321.2 261.3C321.2 261.3 320.6 282.6 350.6 286.9C384.1 296.2 399.9 291.3 401.9 328.8C400.6 343.1 398.9 359.2 388.5 353.1M289.4 280.9C289.4 280.9 294.1 289.4 299.9 288.9C307.4 286.6 310.2 291.3 310.2 291.3M268.9 289.4C268.9 289.4 281.5 295.6 292.3 285.6M270.3 280.6C271.4 295.3 253.3 303.7 246.2 302.3M271.2 337C271.3 337 281 331.2 279 327.1M252 328.4C252.2 328.1 268.2 326.6 271.1 320.8M244.5 304.8C244.5 304.7 267.2 304.9 268.7 309.1M274.7 291.4C274.7 291.4 252.5 329.2 293.4 329.2M251.2 290.8C251.2 290.8 246.5 305 239.7 309.8M227.7 285.9C227.7 285.9 235.9 301.9 227.7 309.7M206.3 290.4C206.4 290.7 208.9 313 203.3 319.3M195.6 291.1C195.6 291.1 196.5 305.3 192.3 310.3C188.1 315.3 193.3 325.8 193.3 325.8M142.2 332.6C142.2 332.6 145.2 337.9 149.4 336.1M147.3 321.1C147.3 321.1 154 324.1 156.3 322.9M154.6 297.3C154.6 297.3 144.6 300.1 148.4 311.8C154.1 316.5 159.8 315.8 159.8 315.8M135 347.3C134.8 347.3 136 356.5 142.5 349.5C147 340.1 161.2 313.7 164.4 304.5M171 300.2C171 300.2 164.1 294.9 164.4 302.3C164.2 306.9 166.4 308.1 166.4 308.1C166.8 311.4 169.7 316.1 172.1 311.8C173.1 307.7 171.4 305.8 171.4 305.8M175.4 298.3C169.1 297.8 165.8 311.4 177.7 302.9M181.7 293.6C181.7 293.6 180.2 295.7 177.8 293.5C176.6 291.3 172.1 303.5 179.9 304C181.3 300.4 185.7 299.4 185.7 299.4M189.3 287.8C189.3 287.8 185.8 289.4 184.6 289.2C180.4 290.2 181.2 299.9 186.6 299.4C188.3 297.3 190.3 294.4 190.3 294.4M156.3 274.9C156.1 274.9 142.3 296.6 164 302.3M331 242.3C331 242.3 322.6 249.5 330.4 261C304.4 260.6 290.4 272.6 289.2 280.7C256 278.4 262 288.2 251.2 291.4C236.8 279.4 215.6 286.1 217 298.1C207.4 284.5 192.5 291.1 190.7 294.5C188.9 297.8 189.6 277.8 189.6 277.8C189.6 277.8 179.9 282.1 173.2 290.1V273.3C165.2 274.9 157.3 275 149 274.9M127.1 268.7C127.1 268.7 139.1 275.4 154.1 266.3M126.1 244.4C126.1 244.4 135.5 252.9 153.1 250.2M132 225C132 225 134.1 231.9 154.3 232.3M138.8 209.1C138.8 209.1 146.4 218.4 156.7 217.1M145.3 195.8C145.3 195.8 148.3 200.9 159.5 201.8M151.9 181.1C151.9 181.1 157.8 187.6 164.5 186.5M186.9 128.8C186.9 128.8 189.5 126.2 193.9 127.5M185 142.5C185 142.5 177 142.2 177.5 139C178.1 135.4 186 132.8 186 132.8C186 132.8 196.6 126 198.2 123.7M150.4 160.7L160.7 180.4L165.7 173L168.2 178.1L172.4 170.7L179.7 175.4L176.9 166.4L183 166C183 166 181.4 161.6 175.9 160.7L182.4 156.3C182.4 156.3 179.5 152.9 175 152.8C176.5 151.2 178.5 147.3 178.4 147.3L173.9 146.3C173.9 146.3 184.2 149.6 192.1 145M172.4 129C172.6 129.2 171.9 133.1 169.7 135.4M132.7 139.9C132.7 139.9 139.1 138.2 143.9 139.1C148.6 140.1 154.9 141.8 154.9 141.8C154.9 141.8 162.5 140.8 164.9 139M117 144.1C117 144.1 116.1 147.1 115.8 149.1C115.8 150.6 111.2 152.5 111.2 152.5M120 138C120 138 124 143 124.2 146C124.3 148.9 121.2 151 121.2 151M78.2 172.6L74 165.8L77.7 164.5M154 266.5C150.6 262.1 156.5 195.5 169 178C164.6 209.4 179 241.5 182.7 241.4M116.1 159.4C116.1 159.4 121.7 161.6 133.5 152.3M149.5 174.8L157.9 174.9M411.3 122.5C411.3 122.5 270.6 188.3 268.6 191.7C292.3 184.6 393 167.7 395.5 169.2C389.5 170.7 267.3 198.7 261.6 205.5C292.1 204.5 356 215.3 366 225.7C344.3 220.8 279.4 211.2 259.6 215.5C274.1 219 329.8 255 329.8 260.8C321.4 252.8 254.4 225.1 251.8 227.8C267.1 237 288.8 271.2 288.8 279.6C284.3 272.4 245.6 230.8 243.4 233.6C247.4 239.2 255.6 288.3 251.4 290.6C251.4 284.6 236.4 241.7 235.2 240.5C232.2 241.3 213 292.9 216.8 297.7C214.3 280.5 217.2 244.6 221.8 246C213.5 247.2 186.7 282.5 189.6 288C190.4 279.3 191.6 273.4 206.7 244.2C189.9 245.2 155.1 267.1 149.2 274.9C153.9 260.9 183.4 237.4 196.2 235.8M257 184.5C271.9 176.3 317.8 159.5 348.5 147.1M228 228.9C228 228.9 238 228.8 248.2 201.3C258.2 163.6 337.4 121.7 339 113.8M94 266.8C94 266.8 91.6 271.8 88.7 273.2M105.3 274.4C105.3 274.4 102.1 280.4 101.4 283.4M116.1 277.4C116.1 277.4 118.8 285.7 116.6 289.6M86 255.7C78 260.2 90.5 288.6 128.3 291.3M122.3 276C122.3 276 121.2 281 128.3 291.2C126.3 302.5 136.9 311.3 141.1 312.8M119.1 174.2L120.3 171.2L121.6 174.5H123.6L125 171.1L126.2 174.5H128.2L129.5 170.7L131.5 174.3H133.1L134.4 170L137 173.1L138 172.7L138.8 168.4L141.4 171.4L142.2 171L143.4 166.8L145.6 169.9L146.6 169.6L147.6 166L149.7 169.3M116.8 174.6L132.6 174.3C137.6 174.3 145.9 167.3 155.2 169.5M83.5 208.4C83.5 208.4 86.1 214 89.8 210.8M77.5 212.1C77.5 212.1 72.4 225.8 78.5 228.9M70.2 197.1C70.2 197.1 70.2 200.3 76.9 195.3M49.5 268.6C49.5 268.6 54.9 270.2 54 274.3M51.5 206C51.5 206 54.9 207.7 58.1 202.7M86.9 362.7C92.1 362.4 93.2 364.7 97.9 364.7C103.4 364.9 108.7 362.7 115.7 360.8M160.4 373.4C160.3 373.4 157.9 378.4 160 380.8M86.1 373.8C86.1 373.8 94.4 367.1 98.7 371.3C102.9 372.7 105.2 372.4 105.2 372.4M90.5 354.4C90.5 354.4 92.5 359.7 85.7 359M83.7 366.5C83.7 366.5 88 369.2 83.1 372.8M86.3 377.8C86.3 377.8 92.3 378.6 88.8 383.4M272.3 349.7C278.3 354.6 275.8 357.5 294.7 344.7M263.7 355.7C263.7 355.7 272.6 365.3 279 353.7M246.7 359.2L234.7 365.5M213 374.4C213 374.4 220.3 368.1 223.7 371.4C227.2 374.8 241.7 368.6 241.7 368.6M218.5 347C218.5 347 221 352 216.1 352.6M208.9 362.6C208.9 362.6 211.5 367.3 206.5 368.6M214.5 375.4C214.5 375.4 222.2 375.8 219.5 381.5M285.6 374.4C285.6 374.4 281.4 377.9 284.6 381.9M346.1 349.1C346.1 349.1 350.9 351.4 345.1 355.4M340.4 363.7C340.4 363.7 344 367.5 341.6 370.7M350.5 378.3C350.5 378.3 355.5 379.7 354.9 383.8M420.5 374.6C420.5 374.6 416.3 377.6 418.5 381.6M346.4 253C356.4 251.8 370.7 274 378 278.4M421.8 221.5C421.8 221.5 426.8 225.9 422.4 236.6M431.2 204.5C432.6 205.6 438.1 208.5 441.7 215.2M445.1 171.2L438.1 190.2M453 170.2C453 170.2 451.6 187.2 449.6 190.6M278 341.7C278 341.7 294.1 343.4 294.9 344.6C296.7 342.6 311.1 331 293.4 329.3C292.594 332.794 290.637 335.915 287.845 338.164C285.052 340.412 281.585 341.658 278 341.7ZM421.6 221.3C419.3 228.1 398.9 231.5 397.6 221.5C396.9 216.5 409.6 208.5 421.6 221.3Z" stroke="black" stroke-width="1.2" stroke-linejoin="round"/>
<path d="M139.801 139L147.701 140.4C147.701 140.4 142.201 147.8 139.801 139Z" fill="black" stroke="black" stroke-width="1.2" stroke-linejoin="round"/>
</g>
<defs>
<clipPath id="clip0_3921_15523">
<rect width="512" height="512" fill="white"/>
</clipPath>
</defs>
</svg>
