<svg width="512" height="512" viewBox="0 0 512 512" fill="none" xmlns="http://www.w3.org/2000/svg">
<g clip-path="url(#clip0_3921_15757)">
<path d="M0 0H512V512H0V0Z" fill="#000066"/>
<path d="M373.401 348.6C373.401 348.6 371.101 354.6 369.801 354.6C368.501 354.6 363.801 352.1 363.801 352.1C363.801 352.1 360.301 357.6 358.501 357.9C356.701 358.3 351.901 357.1 351.901 357.1C351.901 357.1 347.401 357.1 347.201 356.5C347.001 355.9 347.401 354.5 347.401 354.5C347.401 354.5 340.801 359.7 339.401 359.4C338.001 359.1 333.001 352.9 333.001 352.9L332.201 356.1L322.901 355.8L314.701 350.6C314.701 350.6 310.101 358.1 309.901 357.9C309.801 357.8 301.901 359.7 301.901 359.7L301.401 358.3L296.201 355.2C296.201 355.2 300.201 349.4 300.201 349.2L298.301 348.5L295.301 350.9L289.301 354.9L283.301 352.1L285.901 347.1L286.201 343.5L291.001 336.4L349.001 280L377.601 332.8L373.401 348.6Z" fill="#6A4C2D" stroke="black" stroke-width="0.9"/>
<path d="M414.6 352L429.6 351.5L423.3 348.3L480.8 346.1L472.7 343.1L465.5 333.3L435.7 331C435.7 331 433.4 329.3 429.7 330.2C429.7 327.9 426.8 324.8 426.8 324.8L408.5 323.5L397 331.3L404.7 351.1L414.6 352Z" fill="white" stroke="black" stroke-width="0.9"/>
<path d="M355.801 182.9L357.301 177.7C357.301 177.7 360.001 173.2 360.001 171.2C360.001 169.2 362.001 166.9 362.001 166.9C362.001 166.9 368.001 165.2 369.401 168.9C375.901 159 383.601 168.4 383.601 168.4L385.701 165.9L390.001 160.6C390.001 160.6 396.201 166.4 396.301 167.4C396.401 168.4 397.301 167.7 397.301 167.7L404.001 167.1C403.78 168.438 403.903 169.809 404.358 171.086C404.813 172.363 405.584 173.503 406.601 174.4C408.901 175.8 411.001 184 411.001 184L355.801 182.9Z" fill="url(#paint0_linear_3921_15757)" stroke="black" stroke-width="0.9"/>
<path d="M414.6 244.4C415.8 243.7 419.4 242.6 418.9 237.2C418.5 231.9 413.9 231.3 411.3 231.5C409.457 231.774 407.745 232.612 406.4 233.9L397.9 228.5C397.9 228.5 402.2 201.5 406.7 199.9C411 196.8 411.7 195.5 411.7 194.8C411.7 194 410.2 192.3 410.2 192.3L382.4 189L356.1 192C356.1 192 354.1 195.2 354.4 196.4C354.6 197.7 354.7 199 359.4 202.6C364.6 206.6 368.2 229.6 368.2 229.6C368.2 229.6 360.8 233.2 360.4 232.8C359.9 232.4 357.7 231.9 356.6 232.1C355.4 232.3 351.6 234.2 351.6 239.3C351.6 244.4 355.4 247.3 355.4 247.3C355.4 247.3 380.5 244.3 384.3 251.3C387.9 242.9 411.8 245.8 414.6 244.4Z" fill="#656263" stroke="black" stroke-width="0.9"/>
<path d="M441.599 216.5C441.599 216.5 441.899 213.5 443.999 212.2C445.999 210.8 459.999 210.1 463.299 212.2C466.699 214.2 467.899 224.5 467.899 224.5C467.899 224.5 469.899 228.2 470.099 230.8L470.499 235.2C470.499 235.2 481.699 249.7 481.799 262.8C482.999 271.6 482.799 295.4 479.299 304.4C479.288 310.918 477.601 317.323 474.399 323C474.399 323 475.499 325 475.399 327C475.299 329.2 474.199 331.1 474.199 331.1L490.399 339.1L484.399 336.9L490.399 341.9L483.599 338.7L487.599 342.7L477.799 338.3L482.099 342.5L474.699 339L478.999 343.5C478.899 343.2 472.599 340.7 472.599 340.7L472.899 343.1C472.899 343.1 467.899 342.8 467.899 339.1C465.399 337.6 463.699 335.7 463.699 335.7L452.199 333.7L439.199 294.7L442.199 228.7L442.999 225.4L441.599 216.5Z" fill="black" stroke="black" stroke-width="0.9" stroke-linejoin="round"/>
<path d="M433 427.4C433 427.4 426.2 413.4 422.9 413.1C419.9 407.4 433.4 360.5 459.4 357.8C473.7 359 460.6 374.3 451.2 369.6C452.3 373.7 457 379.6 457 379.6C457 379.6 438.4 387.6 433 427.4ZM343.2 429.4C343.2 429.4 348.8 413.4 352.2 413.2C355.5 413 343.2 359.8 316.5 359.4C302.1 360.6 315.3 376 324.8 371.3C323.7 375.5 318.9 381.3 318.9 381.3C318.9 381.3 337.7 389.5 343.2 429.4Z" fill="#FFBB00" stroke="black" stroke-width="0.9"/>
<path d="M367.701 329.4C367.701 329.3 361.101 331.4 365.301 338.6C365.701 335.8 368.601 334.1 368.601 334.1C368.601 334.1 364.101 339.5 368.901 344C369.501 339.7 372.201 338.4 372.201 338.4C372.201 338.4 368.801 348.2 372.201 350.2C372.601 346.3 375.201 344.6 375.201 344.6C375.201 344.6 372.101 353.4 374.801 355.4C375.101 352 377.401 350.6 377.401 350.6C377.401 350.6 376.001 359.6 379.501 360.3C379.601 357.1 382.201 354 382.201 354C382.201 354 381.001 361.4 386.601 361.8C386.601 358.9 387.601 355.7 387.601 355.7C387.601 355.7 390.201 363.7 393.801 362.3V355.6C393.801 355.6 396.101 363.2 400.501 361.8C399.901 359.6 400.801 357.1 400.801 357.1C400.801 357.1 403.101 361.8 407.301 360.3C408.001 358.9 407.101 356.1 407.101 356.1C407.101 356.1 413.101 362.4 415.101 358.6C416.901 354.8 410.101 353.6 410.101 353.6H414.701C414.701 353.6 413.301 349.6 407.101 348.8C409.201 347.8 411.401 348.6 411.401 348.6C411.401 348.6 410.101 343.7 403.801 343.2C406.201 342.4 408.901 343 408.901 343C408.901 343 408.101 338.4 401.201 337.1C402.201 335.9 405.201 336.3 405.201 336.3C405.201 336.3 402.401 332 399.201 332.3C396.201 332.5 367.601 329.3 367.701 329.3V329.4Z" fill="#00713D" stroke="black" stroke-width="0.9"/>
<path d="M395.8 352.6C395.8 352.6 398.3 353.8 398.3 354.9M397.3 350.6C397.3 350.6 400.5 352.9 400.5 354.6M400.1 349.5C400.1 349.5 402.7 351.1 402.8 353.5M404.4 350.5C404.4 350.5 405.7 353.3 405.3 353.8M407 352C407.2 354.2 406.8 354.3 406.8 354.3M375.3 338.1C375.3 338.1 378.3 340.1 378.1 342.8M375.1 340.5C375.1 340.5 376.5 341.8 376.2 342.7M378.8 338.2C378.8 338.2 380.8 341 380.2 342.9M382.2 340C382.2 340 383.2 341.7 382.3 342.7M383.9 340.8C383.9 340.8 384.9 342.6 383.9 343.2M382.6 346.6C382.6 346.6 385.5 347.2 385.9 349.3M384.3 344.6C384.3 344.6 387.3 344.8 387.6 348M388.2 343.5C388.3 343.5 390.2 347 389.9 348M392 343.9C392 343.9 392.8 347.1 392.2 348.2M394.5 345.1V348.9M390.7 340C390.7 340 392.6 340.7 392.5 342.5M392.5 338.3C392.5 338.3 394.9 339.7 394.6 342.3M395.2 337.2C395.2 337.2 397.3 339.7 396.5 342.4M398.8 337.8C398.8 337.8 398.1 340.8 398.4 342.1M401 339.9C401 339.9 399.7 340.9 400.4 342.2M389.3 351.6C389.3 351.6 389.8 354 389.3 354.3M386.4 350.3C386.4 350.3 387.8 352.9 387.4 354.2M383.2 350.2C383.2 350.2 384.9 352.1 384.8 353.6M380.6 350.6C380.6 350.6 382.2 352 382.1 352.9M379.3 352.8C379.3 352.8 380.8 354.3 380.7 354.7" stroke="#3EC26D" stroke-width="0.9" stroke-linecap="round"/>
<path d="M347.301 247.2L368.601 246.8C368.601 246.8 382.601 246.8 384.101 251.4C386.801 245.3 399.001 245.7 399.001 245.7L421.001 244.9L421.401 298.1C419.396 307.439 415.076 316.125 408.838 323.359C402.6 330.593 394.644 336.143 385.701 339.5C376.532 336.335 368.363 330.801 362.023 323.46C355.684 316.119 351.398 307.232 349.601 297.7L347.301 247.2Z" fill="white" stroke="black" stroke-width="0.9"/>
<path d="M354.9 247L385.9 329.6L413.9 245.2C405.2 245.8 386.5 243.8 384.2 251.8C380.6 244.7 361 247.5 354.9 247Z" fill="#006B00" stroke="black" stroke-width="0.9"/>
<path d="M376.001 291.7C377.201 292.3 377.101 269.3 378.701 268.6L379.901 263.8C378.601 261.4 372.501 261.6 370.301 263.6L371.801 267.9C374.801 272.8 374.201 292.2 376.001 291.7Z" fill="#FFC900" stroke="#006B00" stroke-width="0.5" stroke-linecap="round"/>
<path d="M367.7 113.7C367.7 113.7 369.9 111.2 370 110.6C370.1 110 380 109.6 385.8 98.6C389.1 92.9 385.8 96.2 385.8 96.2L385.6 93.5C385.6 93.5 389.6 89.5 388.2 87.5C386.7 85.4 387.2 90.2 384.8 90.1C382.4 90 383.7 84.9 383.7 84.9C383.7 84.9 383.5 84.3 382.8 84C381.8 84.1 382.1 85.9 381.2 86C380.3 86.3 379.5 82 379.5 82C379.5 82 378 80 376.7 86.2C377.4 92.9 381.7 91.6 381.7 95.9C381.7 100.3 377.9 103.7 376.8 103.9C375.8 103.9 376.1 100.1 376.1 100.1C376.1 100.1 375.5 98.3 375.1 98.3C374.7 98.3 377.3 97.9 376.9 93C376 87 375.3 94.4 373.7 94C372.1 93.8 373.3 88.6 373.9 88C374.5 87.4 373.2 84.9 369.8 91.3C369.5 94.3 369.1 90.5 368.4 90.7C367.2 93.2 367.4 94.9 369.1 97.2C371.6 99.5 373.1 101.8 373.1 103C372.9 104.2 371.6 106.9 369.9 106.9C368.2 106.9 369.9 103.6 369.9 102.5C369.8 101.5 366.8 97.5 366.8 97.5C366.8 97.5 364.7 94.1 364.8 94C365.1 93.9 364.7 93.4 363.7 96.8C362.7 100.3 361.5 94.6 361.5 94.6C361.5 94.6 360.1 98.8 363.1 101.4C360.8 101.1 360.6 102 360.6 102C360.6 103.2 363.6 103.7 364.1 105.8C364.6 107.9 360.9 109.1 360.9 109.1C360.9 109.1 362.4 111.1 366.6 107.1C366.587 108.707 366.022 110.26 365 111.5C366.4 112.1 367.5 112 367.7 113.7Z" fill="#CDAD56" stroke="black" stroke-width="0.9" stroke-linejoin="round"/>
<path d="M354 113.7L352 110.4C352 109.8 343 111 338.6 100C335.8 94.7 338.6 97.8 338.6 97.8L338.8 95.3C338.8 95.3 335.8 91.6 337.1 89.7C338.4 87.8 337.8 92.2 339.5 92.2C341.5 92.2 340.4 87.5 340.4 87.5C340.4 87.5 340.6 86.9 341.2 86.7C342 86.7 342.4 89.5 343.2 89.7C343.9 89.9 345.4 86.5 345.9 85.7C346.6 85.7 346.6 83 347.7 88.7C347.1 94.7 342.1 93.6 342.1 97.5C342.1 101.4 345.3 104.6 346.2 104.7C347.2 104.7 346.8 101.3 346.8 101.3C346.8 101.3 347.3 99.7 347.7 99.7C348 99.7 344.7 100.3 345.1 95.8C345.8 91.6 347.5 96.1 348.9 95.8C350.3 95.5 348.7 91.3 349.1 90.7C349.1 90.1 351.1 87.3 351.9 93.4C352.2 96.2 353.7 91 354.3 91.1C355.3 93.4 353.9 96.4 352.4 98.5C350.4 100.6 349.4 102.9 349.4 104C349.5 105 350 106.4 351.6 106.4C353.1 106.4 352.1 104.5 352.2 103.5C352.3 102.5 354.8 99.3 354.8 99.3C355.3 98.5 354.8 97 355.4 96.3C356.2 96.3 356.5 95.2 357.4 98.3C358.2 101.5 359.3 96.3 359.3 96.3C359.3 96.3 360.4 100.2 357.9 102.5C359.9 102.2 360 103.1 360 103.1C360 104.1 359 104.6 358.7 106.5C358.4 108.5 359.7 109.5 359.7 109.5C359.7 109.5 358.5 111.4 354.9 107.7C354.942 109.146 355.431 110.543 356.3 111.7C355.1 112.2 354.2 112.2 354 113.7Z" fill="#CDAD56" stroke="black" stroke-width="0.8" stroke-linejoin="round"/>
<path d="M408.7 259.3C406.8 257.6 406.7 259.1 405.7 258.7C405.3 258.5 404.9 258.167 404.5 257.7C404.233 257.433 403.833 257.233 403.3 257.1L402.8 258.6C402.7 259.1 403.3 259.9 403.3 260.6C403.3 261.733 402.633 262.533 401.3 263C401.7 262.3 401.9 262.2 401.8 261.3C401.8 260.8 400.4 259.9 400.6 259.5C400.8 258.7 401.2 257.9 400.9 257.2C400.4 257.6 399.6 257.4 399 257.6C398.6 257.8 398.5 258.7 397.9 259.1C397.3 259.5 395.7 259.2 394.4 258.5C395.2 257.9 395.8 258.3 396.6 257.7C397 257.4 396.9 256.2 397.3 255.9L399 255L398.4 253.6C398 253.2 396.4 253.3 396.1 252.9C395.4 252.1 395.6 251.1 394.9 250.3C396.7 250.9 396.4 251.8 396.9 251.7C397.767 251.3 398.433 251.2 398.9 251.4C399.4 251.6 400.3 252.7 400.7 252.9L401.3 251.3C401.5 250.8 400.6 249.9 400.7 249.4C401.1 248.4 401.9 247.5 402.2 246.5L402.6 249.3C402.7 249.7 403.6 250 403.7 250.5C403.7 251 403.2 252.1 403.3 252.5H405.1C405.6 252.3 405.9 251.1 406.4 251C407.333 250.867 408.3 250.867 409.3 251C408.5 251.8 407.9 251.7 407.4 252.4C407 252.7 407.6 253.7 406.4 254.4C406 254.6 404.9 254.3 404.5 254.6L405.5 255.8C405.9 256.2 407.5 256.3 407.8 256.8C408.467 257.6 408.767 258.433 408.7 259.3ZM361 260.1C362.9 258.5 363.1 259.9 364 259.5C364.467 259.3 364.867 258.967 365.2 258.5C365.467 258.233 365.867 258.033 366.4 257.9L366.9 259.4C367.1 259.9 366.4 260.7 366.4 261.4C366.467 262.6 367.133 263.433 368.4 263.9C368 263.1 367.8 263 367.9 262.1C367.9 261.6 369.3 260.7 369.2 260.3C368.8 259.5 368.667 258.733 368.8 258C369.4 258.4 370.1 258.2 370.7 258.4C371.3 258.6 371.2 259.5 371.9 259.9C372.6 260.3 374.1 260 375.3 259.3C374.6 258.7 373.9 259.1 373.2 258.6C372.8 258.3 372.8 257 372.4 256.7L370.7 255.8C371.1 255.4 371 254.8 371.4 254.4C371.8 254 373.3 254.1 373.6 253.7C374.3 252.9 374.2 251.9 374.9 251.1C373.1 251.7 373.3 252.6 372.9 252.5C371.967 252.1 371.233 252 370.7 252.2C370.3 252.4 369.4 253.5 369 253.7L368.4 252.1C368.2 251.6 369.2 250.7 369 250.2C368.7 249.2 367.8 248.4 367.5 247.4L367.1 250.1C367.1 250.6 366.1 250.8 366.1 251.3C366 251.8 366.5 252.9 366.5 253.3H364.7C364.2 253.1 363.8 251.9 363.3 251.8C362.367 251.667 361.433 251.667 360.5 251.8C361.2 252.6 361.8 252.6 362.3 253.2C362.7 253.5 362.2 254.5 363.3 255.2C363.7 255.4 364.8 255.1 365.2 255.4L364.2 256.6C363.8 257 362.2 257.2 361.9 257.6C361.233 258.4 360.933 259.233 361 260.1Z" fill="#FFC900"/>
<path d="M407.001 264.6C405.301 266 394.501 268.7 394.401 278.1C394.301 287.5 396.301 289.7 394.301 289.9C390.301 289.9 389.801 279.4 389.901 274.8C390.001 270.1 390.101 270.8 390.101 270.8C390.101 270.8 392.801 271.6 392.601 273.8C392.401 276 395.301 268.2 394.301 266.1C396.101 267.9 398.401 267.1 398.401 267.1C398.401 266.9 397.101 265.5 396.501 264.4C396.001 263.4 398.501 265 398.501 265C398.501 265 398.601 263.2 396.401 263.3C393.401 263.3 396.901 262.3 396.901 262.3C396.901 262.3 398.501 263.9 399.701 262.3C398.401 260.9 396.701 260.3 396.701 260.3C396.701 260.3 395.101 257.3 392.901 256.7C390.501 256.1 390.901 257.7 388.001 257.5C387.501 258.5 387.501 258.7 388.601 259C386.601 260.3 387.601 263 387.601 263C387.601 263 390.701 261.7 390.601 263.8C390.501 266 388.801 265.6 387.601 264.3C386.601 263.7 386.301 264.9 386.301 264.9L387.901 266.5C387.901 266.5 384.901 266.5 384.101 268.5C384.979 268.367 385.876 268.471 386.701 268.8C386.701 268.8 383.201 270.4 382.901 271.2C382.501 272 382.401 270.2 382.301 270.2L379.001 269.1L377.801 274.2C377.801 274.2 380.101 276.4 381.301 275.7C382.501 275 384.801 272.9 386.101 273.5C382.201 276.5 378.301 280.7 376.101 281.3C375.601 280.9 373.701 278.9 372.901 279.9C372.101 280.9 372.701 282 373.701 281.9C374.701 281.9 370.501 282.9 371.401 284.7C372.201 286.5 372.101 286.3 372.901 285.9C373.701 285.5 372.201 285.3 375.201 284.4C378.101 283.6 378.001 282.8 378.001 282.8C378.001 282.8 377.401 284.1 375.801 284.4C374.301 284.8 373.001 284.8 373.401 285.3C373.801 285.8 374.401 286.6 374.101 287.1C373.901 287.5 377.401 284.6 378.301 286.9C380.601 286.9 382.201 283.9 381.101 282.3C381.101 284.1 382.301 284.7 381.601 285.5C380.901 286.3 386.901 282.8 384.001 280.6C384.801 282.4 384.901 283.8 384.901 283.8C384.901 283.8 386.201 283.8 386.601 283.2C386.901 282.8 385.901 284.6 386.301 284.9C386.801 285.3 388.901 287.3 388.001 288.7C387.501 287.9 387.301 286.6 386.701 286.7C386.101 286.8 383.201 288.8 381.501 289C379.901 289 383.501 295.2 383.501 295.2C383.501 295.2 381.001 294.8 380.601 295C380.201 295.2 378.601 292.9 378.301 294.3C377.701 296.1 378.801 295.4 378.801 295.4C378.801 295.4 377.401 294.7 376.601 295.5C375.801 296.4 375.001 297.2 375.601 297.5C376.201 297.8 378.601 297.9 379.001 297.8C379.401 297.7 376.201 298 376.001 298.4C375.801 298.8 375.301 300.1 376.001 300.5C376.701 300.9 378.301 300.3 378.401 299.9C378.501 299.5 378.601 301.2 378.601 301.2C378.601 301.2 381.601 301.5 381.601 298.5C381.601 295.5 381.801 300.6 381.801 300.6C381.801 300.6 384.701 301.1 384.801 298.1C384.801 295.1 385.101 300.1 385.101 300.1C385.101 300.1 387.101 299.6 387.101 299.1C387.101 298.6 386.901 305.1 385.601 306.9C383.401 305.4 382.101 307.8 382.101 307.8C382.101 307.8 382.201 311.3 382.001 312.1C381.801 312.9 383.401 311.6 383.501 311.3C383.601 311 385.701 309.9 385.801 309.7L386.401 308.3C386.401 308.3 386.001 309.9 385.201 310.2C384.401 310.5 383.701 311.2 384.001 312C384.301 312.7 385.601 313.2 386.001 313.9C386.401 314.6 388.001 309.7 388.001 309.7L388.101 310.7C388.101 310.7 390.101 310.3 390.401 309.4C390.701 308.5 388.201 307.6 390.101 306C392.001 304.4 390.101 307.4 390.101 307.4C390.101 307.4 390.801 309.7 391.301 309.7C391.801 309.7 392.801 305.4 391.701 304.3L393.401 305.7C393.401 305.7 395.001 301.2 393.301 300.7L390.801 299.8C390.801 299.8 391.801 298.6 391.301 298.5C390.801 298.4 393.601 301.1 394.101 300.5C394.501 299.7 395.101 297.5 391.901 296.4C388.701 295.2 391.901 291.8 391.901 291.8C391.901 291.8 393.901 294.2 395.301 292.9C396.701 291.6 395.201 291.6 395.201 291.6C395.201 291.6 399.301 289 399.401 287.6L397.301 287.8C397.301 287.8 399.601 286.2 399.101 283.8C398.101 285 397.001 285 397.001 285C397.001 285 399.001 283 398.601 281.1C397.401 282.1 397.601 282.8 396.701 282.5C396.001 282.3 394.701 274.8 397.701 274.3C400.901 273.8 399.201 278 399.301 278C399.401 278 404.001 276 399.301 273C400.401 272.6 402.801 274.8 402.801 274.8C402.801 274.8 401.801 269.5 396.801 272.8C397.867 271.333 398.867 270.667 399.801 270.8C400.801 271.1 404.301 270.8 404.301 269.7C403.501 268.9 401.601 270 400.501 269.7C399.501 269.3 407.701 268.7 407.001 264.7V264.6Z" fill="#FFC900" stroke="#006B00" stroke-width="0.5" stroke-linecap="round" stroke-linejoin="round"/>
<path d="M371.6 267.7C371.6 267.7 376.1 265.2 378.3 268.3M380 273.1C380 273.1 378.5 274.7 378.2 274.7M383.1 278.1C383.1 278.1 387.2 278.5 389.9 274.1" stroke="#006B00" stroke-width="0.5" stroke-linecap="round"/>
<path d="M387.601 276.8C387.601 276.8 387.901 279.2 388.601 279.2C389.301 279.2 387.501 279.8 386.801 279.3C387.601 280.3 388.001 282.3 386.801 283" stroke="#006B00" stroke-width="0.5" stroke-linecap="round"/>
<path d="M385.399 306.8C385.399 306.8 383.999 308.5 382.199 308.6L385.399 306.8Z" fill="#E80000"/>
<path d="M385.399 306.8C385.399 306.8 383.999 308.5 382.199 308.6" stroke="#006B00" stroke-width="0.5" stroke-linecap="round"/>
<path d="M387.1 299.2C387.1 299.2 386.2 294.4 386.8 293.2C387.1 291.7 388.6 291.2 389.7 289.1" stroke="#006B00" stroke-width="0.5" stroke-linecap="round"/>
<path d="M386.699 295.8C386.699 295.8 385.599 298.6 380.699 297.7M387.999 288.6C387.999 288.6 388.299 292.4 383.899 291M382.499 271.4C382.499 271.4 380.699 273.1 381.499 275.4" stroke="#006B00" stroke-width="0.5" stroke-linecap="round"/>
<path d="M389.199 267.3C389.199 267.3 391.599 266.3 391.999 265.8C392.625 265.199 393.134 264.487 393.499 263.7C393.699 263 391.899 261.9 392.799 260.3C393.333 259.567 394.233 259.567 395.499 260.3C396.799 261.2 394.299 257.7 392.899 257.6C391.599 257.5 390.699 258.6 390.399 258.3C389.999 258.1 390.399 259.3 389.899 259.3C389.399 259.3 390.999 260.3 390.899 260.8C390.899 261.4 392.699 263.4 392.599 263.9C392.499 264.4 389.799 267.1 389.199 267.3Z" fill="#006B00"/>
<path d="M391 259.4C391.867 259.067 392.2 259.4 392 260.4C391.6 260.133 391.267 259.8 391 259.4Z" fill="#FFC900" stroke="#FFC900" stroke-width="0.5" stroke-linecap="round" stroke-linejoin="round"/>
<path d="M383.8 312.5C383.8 312.5 383.4 315 384.3 315.2C384.3 314.2 384.434 313.566 384.7 313.3L383.7 312.5H383.8ZM381.7 309.4C380.9 309.4 379.4 310.1 379.8 311C380.5 310.3 381.2 311 381.6 310.4C381.8 310.133 381.834 309.8 381.7 309.4ZM381.7 307.7C381.7 307.7 380.4 307.4 380.2 308.4C381 308.266 381.5 308.266 381.7 308.4V307.7ZM376 293.6C376 293.6 376.8 293.9 377 294.8C377.7 294.4 378 292.5 376 293.6ZM374 295.7C374.1 295.7 375.7 294.7 376 295.7C375.667 296.033 375.367 296.233 375.1 296.3C374.9 296.3 374.5 295.7 374.1 295.7H374ZM373.9 299.2C373.9 299.2 374.9 298.2 375.4 298.8C375.7 299.5 375 299.4 375 299.4L373.9 299.2ZM372.5 280C372.5 280 371.1 279.4 370.5 280.4C371.367 280.533 371.934 280.8 372.2 281.2C371.867 280.733 371.967 280.333 372.5 280ZM370 287.2C370 287.2 370 285.6 370.7 284.9C371.034 285.166 371.3 285.533 371.5 286C371 286.2 370.2 286.2 369.9 287.2H370ZM373.4 286C373.4 286 372 286.7 372.4 287.5C372.9 287 373.4 287.2 373.4 287.1V286.1V286Z" fill="#E80000" stroke="#006B00" stroke-width="0.5" stroke-linejoin="round"/>
<path d="M371.3 270.5C370.8 271.1 372 272.5 373.2 272.2C373.5 270.8 371.6 270 371.3 270.5Z" fill="#FFC900" stroke="#006B00" stroke-width="0.5" stroke-linejoin="round"/>
<path d="M372.699 269.4C372.699 269.4 372.899 270.5 373.899 270.2C373.799 269.3 372.999 268.7 372.999 268.7C372.999 268.9 373.199 269.3 372.699 269.4ZM373.399 272.7C373.399 272.7 373.899 273.4 375.099 272C374.599 272.2 373.599 271.7 373.599 271.7C373.599 271.7 373.599 272.7 373.399 272.7Z" fill="#E80000" stroke="#006B00" stroke-width="0.5" stroke-linejoin="round"/>
<path d="M371.3 267.9C370.8 268.5 371.5 269.3 372.7 269.1C373 267.7 371.6 267.4 371.3 267.9Z" fill="#FFC900" stroke="#006B00" stroke-width="0.5" stroke-linejoin="round"/>
<path d="M371.799 262.1C371.799 262.1 376.599 260.8 379.099 262.8C381.699 264.8 381.699 263 381.699 263C381.699 263 385.399 264.4 386.499 264.1C387.599 263.8 385.699 264.2 387.199 263.3C388.699 262.4 384.199 263.5 383.799 261.6C383.199 260.5 383.899 259 382.399 259.5C381.299 258.1 383.099 257.1 382.699 255.7C381.599 256.4 380.999 255.4 380.099 257.3C378.099 256.9 379.799 254.1 377.599 253.8C377.599 255.8 375.899 256 375.799 257.1C374.799 257.8 370.499 260.4 371.799 262.1Z" fill="url(#paint1_linear_3921_15757)"/>
<path d="M316.4 418.8C319.4 418 336.4 422.5 342.9 429.5C341.5 417 338.1 407.5 338.1 407.5C338.1 407.5 328 404.6 326.6 406C324.6 408.1 318.5 414.5 316.4 418.8ZM311.2 361.2C310 361.267 308.8 362.267 307.6 364.2C306.2 367.5 305.3 376 303.3 378C301.3 380 299.5 380.2 299.5 382C299.5 383.8 299.7 388 305.1 389.5C310.4 389.7 318.9 381 318.9 381C318.9 381 323.3 376.2 325 371.1C314.8 374.7 307.4 365.1 311.2 361.2ZM460 416.8C450.177 417.44 440.803 421.147 433.2 427.4C434.043 419.987 435.651 412.681 438 405.6C439.2 405.2 448 402.7 449.3 404.1C451.3 406.2 457.8 412.6 459.9 416.8H460ZM464.7 359.6C465.9 359.8 466.3 361.3 467.3 363.3C468.6 366.6 470 371.5 472 373.5C474 375.5 475.7 378.3 475.7 380.1C475.7 381.9 475.3 384.3 470 385.8C464.7 386 457 379.2 457 379.2C457 379.2 452.7 374.5 451 369.4C461.2 372.9 467.8 363.8 464.7 359.6Z" fill="#C01500" stroke="black" stroke-width="0.9"/>
<path d="M305.301 407.9C305.301 407.9 315.901 415.2 316.101 418.6C344.801 376 418.001 362.8 459.701 415.6C462.623 411.496 466.502 408.167 471.001 405.9C427.001 348.6 339.701 355.7 305.301 407.9Z" fill="#FFBB00" stroke="black" stroke-width="0.9"/>
<path d="M414 245.2H418.2L410.8 254.6L419.8 265L402.1 287.2L418.7 307.2C416.9 311.734 414.634 315.834 411.9 319.5L402.4 308.9L419.7 287.3L405.5 271.2L414 245.2ZM354.3 247.1L349.9 247.2L358.2 256.2L349.4 267.3L367.8 287.3L352.5 307.7C354.376 312.355 356.829 316.756 359.8 320.8L368.8 309.4L350.3 288.7L363.9 271.4L354.3 247.1Z" fill="#1E5AA6" stroke="black" stroke-width="0.9"/>
<path d="M375.001 300.8L368.501 309.6L391.901 336.8C396.101 334.7 399.301 332.3 402.901 329.4L390.701 315.3L395.701 300.6L402.801 308.9L380.401 337.5C376.217 335.653 372.313 333.229 368.801 330.3L380.601 315.3L375.001 300.8ZM367.801 287.2L372.001 292.6L369.301 285.3L367.801 287.2ZM398.401 292L401.901 287.4L400.601 285.6L398.401 292Z" fill="#1E5AA6" stroke="black" stroke-width="0.9"/>
<path d="M447.9 217.2C447.9 217.2 452 213.7 454.9 213.6" stroke="#FFF700" stroke-width="0.9" stroke-linecap="round"/>
<path d="M448.5 216.7C448.5 216.7 473.2 213.2 473.9 212.4M448.6 217C448.6 216.8 476.1 214.6 476.1 214.6" stroke="#FFF700" stroke-width="0.9" stroke-linecap="round"/>
<path d="M479.499 217.1C477.699 215.6 448.499 217 448.499 217L475.999 219.2M448.399 217C448.399 217 476.999 217.1 477.399 217.8M448.199 217.1C448.299 217.1 476.199 219.6 478.899 223.1" stroke="#FFF700" stroke-width="0.9" stroke-linecap="round"/>
<path d="M480.4 228.1C480.4 228.1 470.9 216.8 448.1 217.1" stroke="#FFF700" stroke-width="0.9" stroke-linecap="round"/>
<path d="M448.199 217.2C448.199 217.2 463.999 218.3 468.999 223.8" stroke="#FFF700" stroke-width="0.9" stroke-linecap="round"/>
<path d="M448.5 217C448.5 217 458.7 215 469.5 228" stroke="#FFF700" stroke-width="0.9" stroke-linecap="round"/>
<path d="M442 228.7C442 228.7 456.2 229.3 456.2 230.7C456.2 232.1 445.7 234.7 445.5 240.5C445.3 246.3 453.5 246.8 454.1 254.1C454.7 261.5 447.8 262.6 446.4 264.6C445 265.6 441.6 275.9 442.1 282.1C442.5 288.1 444.3 308.9 447.5 313.1C450 315 453.7 321.2 457.8 319.3C461.8 317.3 459 310.3 458.6 308.3C458.2 306.3 460.3 303.2 460.3 300.3C460.3 297.4 458.7 295 458.9 294.3C459 293.6 470.1 296.9 469.4 307.9C468.7 318.9 464.3 315.5 464.3 315.5C464.3 315.5 465.7 329 462.2 330.8C456 334.2 451.4 330.1 451.4 330.1L452 332.9L447.2 330.4C447.2 330.4 441.1 321.7 439.7 317.8C437.914 309.59 437.076 301.202 437.2 292.8C437.8 289 438.2 267.1 437.9 265.9C437.6 264.9 436.5 246.5 437.2 243.7C437.9 240.9 442.2 228.7 442.1 228.7H442Z" fill="url(#paint2_linear_3921_15757)" stroke="black" stroke-width="0.9"/>
<path d="M426.801 225C426.801 225 436.601 215.5 442.301 216.6C445.301 216.6 442.501 218.7 442.501 218.7C442.501 218.7 447.501 219.1 448.201 221.3C448.301 222.3 445.801 222.6 445.801 222.6C445.801 222.6 447.801 223 448.001 224.8C448.201 226.6 427.001 225.2 426.801 225.1V225Z" fill="#FF7000" stroke="black" stroke-width="0.9"/>
<path d="M427.301 224.7C427.301 224.7 437.901 223.3 442.301 218.8" stroke="black" stroke-width="0.9"/>
<path d="M438 221.8C438 221.8 445.8 221.5 445.8 222.6" stroke="black" stroke-width="0.9"/>
<path d="M465.699 335.4C465.699 335.4 472.299 333.9 474.199 331.5C475.199 330.7 481.099 340.3 465.699 335.5V335.4Z" fill="white" stroke="black" stroke-width="0.9" stroke-linejoin="round"/>
<path d="M463.901 280.3C463.901 280.3 464.701 285.4 462.301 288.9C461.101 290.3 457.301 292.6 457.301 294.3C457.301 296 458.701 298.2 458.501 300.1C458.201 302.1 456.101 304.1 456.201 305.7C456.201 307.3 458.601 316.2 458.301 316.4M451.701 263.6C451.701 263.6 446.401 265.4 445.301 270.6" stroke="white" stroke-width="0.9" stroke-linecap="round"/>
<path d="M449.4 221.8C449.4 221.8 451.2 226.8 457.1 222C453.3 216.9 449.4 221.9 449.4 221.8Z" fill="#C75B00" stroke="black" stroke-width="0.9"/>
<path d="M453.701 221.6C453.701 221.8 453.501 221.933 453.101 222C452.767 222 452.567 221.867 452.501 221.6C452.434 221.333 452.634 221.167 453.101 221.1C453.501 221.1 453.701 221.267 453.701 221.6Z" fill="black"/>
<path d="M401.7 210.2C401.7 210.2 412.7 222.2 419.9 222C421.2 225.5 416.7 228.8 414.9 230.3C411.2 229.2 407.9 230.6 399.5 220.1C400 213.5 401.8 210.4 401.7 210.1V210.2ZM416.7 182.3C418.1 177.9 421 174.3 423.4 174C422.8 170.6 428.7 155.6 445.7 149.9C446.7 157.6 438.4 165.1 438.4 165.1C438.4 165.1 463.5 160.8 468.6 154.4C468.1 157.3 463 175.1 436.2 175C446.4 184.6 433 192.3 427.2 190C437.8 182 424.2 177 416.7 182.3Z" fill="white" stroke="black" stroke-width="0.9"/>
<path d="M425.301 176C430.301 172.8 432.201 172.8 436.301 173.4C433.301 173.8 433.301 174 433.301 174C433.301 174 433.101 174.4 434.901 176C432.901 175.5 431.001 174.4 425.301 176Z" fill="#CCCCCD" stroke="#CCCCCC" stroke-width="0.9"/>
<path d="M423.301 174C423.301 174 433.301 168.6 438.901 165" stroke="black" stroke-width="0.9"/>
<path d="M414.7 230.3C414.7 230.3 428.5 234.1 430.1 214.3C427.1 205.7 422.9 187.3 429.3 181.9C423.4 177.9 417.1 182 417.1 182C416.7 183 411.5 190.4 418.5 203.4C401.8 199 408.6 214.7 408.6 214.7C409.3 212.2 418.1 209.9 420.3 222.5C421.3 225.6 414.3 230.5 414.7 230.3Z" fill="#0000FF" stroke="black" stroke-width="0.9"/>
<path d="M430.2 214.5C430.2 214.5 444.8 206.6 444.4 188.3C432 188.5 427.6 204.6 427.6 204.6L430.2 214.5Z" fill="#0000FF" stroke="black" stroke-width="0.9"/>
<path d="M364.9 213.5C364.9 213.5 354.1 222.9 347.9 219.9C343.4 222.7 338.1 217.9 338.1 217.9C338.1 217.9 344.3 240.9 366.7 224.2C366.467 220.581 365.864 216.996 364.9 213.5Z" fill="white" stroke="black" stroke-width="0.9"/>
<path d="M347.8 219.5C348.8 214.7 352.5 212.4 355.5 216.9C359.5 217.7 363.5 201.2 349.2 203.9C353.2 182.3 341.2 174.2 341.2 174.2C341.2 174.2 336.9 198.2 338.8 202.6C340.8 207 336 194.4 320.5 190.9C320.2 208.9 337.8 217.4 337.8 217.4C337.8 217.4 342.8 222 347.8 219.5Z" fill="#0000FF" stroke="black" stroke-width="0.9"/>
<path d="M349.199 203.8C349.199 203.8 342.499 209.5 343.999 217.3M338.999 203C338.999 203 337.399 208.6 340.799 216.5" stroke="black" stroke-width="0.9"/>
<path d="M338 218.4C338 218.4 341 213.3 347.8 219.8" stroke="black" stroke-width="0.9"/>
<path d="M339.2 183.2C339.2 183.1 328.9 183.2 335.1 193.6C330.5 195.1 320.3 188.4 327.4 179.6C304.4 179 295 168 295 157.8C301.7 164.8 317.9 162 323.6 166.3C316.6 159.8 318 150.8 318 150.8C318 150.8 337.7 156.7 341.2 174.1C340 177.5 339.5 183.5 339.2 183.2Z" fill="white" stroke="black" stroke-width="0.9"/>
<path d="M323.4 165.8C327.2 169.7 336.9 170.8 341.9 175.1" stroke="black" stroke-width="0.9"/>
<path d="M327.9 177.2C327.9 177.2 335.9 176.2 338.3 179C335.1 179 334.1 178.3 329.5 180C330.8 179.3 330.5 178.1 331.2 178.1C331.9 178.1 328.2 177.2 327.9 177.2Z" fill="#CCCCCD" stroke="#CCCCCC" stroke-width="0.6"/>
<path d="M368.101 114C368.101 114 372.501 110.2 377.401 113.7C375.201 120.2 367.401 117.7 367.401 117.7C367.401 117.7 367.601 121 366.801 122.5C368.401 123.7 369.701 127.6 369.701 127.6C369.701 127.6 377.701 125.6 379.501 129.2C382.501 128.8 384.801 129.2 384.801 129.2C384.801 129.2 391.001 127.6 393.201 127.6C395.401 127.6 402.501 129.4 403.201 130.7C403.901 132 406.201 140.7 407.701 140.7C409.301 140.5 403.901 142.7 402.501 140.5C401.101 138.3 401.501 143.4 401.501 143.4C401.501 143.4 405.901 148.1 406.401 149.1C406.901 150.1 403.701 158.6 406.101 164.5C404.001 164.7 403.801 166.9 403.801 166.9C403.701 169.5 400.401 170.2 400.401 170.2L399.601 166.7L397.401 168L398.401 165.2C398.401 165.2 401.401 158 401.601 155.6C401.801 153.2 398.801 149.1 396.501 149.1C394.201 149.1 392.501 156.5 392.501 156.5C392.501 156.5 391.301 162.1 391.701 162.6L390.101 160.8C390.101 160.8 389.101 164.2 388.301 165.2C387.501 166.2 385.801 166.7 385.801 166.7C385.801 166.7 384.701 163.3 385.001 162C385.301 160.7 391.401 155.6 391.001 152C390.401 148.3 391.001 149.2 390.801 149.1C390.601 149 387.701 146.4 387.501 144.9C387.401 143.5 383.601 146.8 378.701 145.7C377.201 148.4 377.001 155 377.001 155C377.001 155 376.501 162.9 377.501 163.8C378.501 164.7 374.901 166.7 374.901 166.7L372.301 170.2L371.301 168.2L369.601 169.4L370.601 166.8C370.601 164.8 373.101 159.4 373.101 154.8C373.101 150.2 373.501 145.5 373.501 145.5C373.501 145.5 368.601 145.2 368.801 150.1C368.901 155.1 367.601 155.4 367.801 156.8C368.101 158.2 369.401 162.2 369.001 163.4C368.601 164.6 367.001 165 367.001 165L366.701 165.6C366.701 165.6 361.901 167.8 362.001 168.8L361.901 166.2L361.601 162.4C361.601 162.4 364.501 160.6 364.501 156C364.501 151.4 363.801 150.8 364.001 149.8C364.001 148.8 364.701 144.9 364.601 144.5C364.501 144.1 361.901 145.5 361.101 145.5C360.301 145.5 362.501 142.9 362.801 140.9C363.001 138.9 360.201 142.7 357.801 140.5C358.901 138.1 360.601 137.4 360.801 135.5C361.001 133.6 359.001 137.1 357.201 135.8C357.301 134.1 359.201 132.6 359.201 132.6C359.201 132.6 357.701 132.4 357.101 132.6C355.901 132.2 358.401 130.4 358.501 127.7C358.601 125.1 357.101 124.1 357.101 124C357.101 123.9 354.501 121.6 354.101 120.7C353.701 119.8 353.701 118.7 353.701 118.7C353.701 118.7 349.401 121.9 344.301 115.3C348.901 111.3 353.901 114.3 353.901 114.3C353.901 114.3 355.201 110.6 361.201 110.8C367.201 111 368.401 114.5 368.201 114.1L368.101 114Z" fill="#923F00" stroke="black" stroke-width="0.9"/>
<path d="M400.9 181.4C400.9 181.4 411.9 181.7 412 187.6C412.1 193.5 408.7 191.9 408.6 191.9L400.6 190.9L400.9 181.4Z" fill="#0000FF" stroke="black" stroke-width="0.9"/>
<path d="M390.199 179.8C390.199 179.8 403.899 179.7 403.199 185.6C402.399 191.6 398.899 190.4 398.899 190.4L392.299 189.9L390.199 179.8Z" fill="#FFFEFF" stroke="black" stroke-width="0.9"/>
<path d="M382.5 179.1L390.5 179.8C390.5 179.8 395.2 180.4 395 185C394.8 189.6 390.1 189.7 390.1 189.7L382.4 189.2L382.5 179.1Z" fill="#0000FF" stroke="black" stroke-width="0.9"/>
<path d="M364.001 181.4C363.901 181.4 353.001 181.7 352.801 187.6C352.801 193.5 356.201 191.9 356.301 191.9L364.301 190.9L364.001 181.4Z" fill="white" stroke="black" stroke-width="0.9"/>
<path d="M374.6 179.8C374.6 179.8 361 179.7 361.7 185.6C362.5 191.6 366 190.4 366 190.4L372.6 189.9L374.6 179.8Z" fill="#0000FF" stroke="black" stroke-width="0.9"/>
<path d="M382.3 179.1L374.4 179.8C374.4 179.8 369.6 180.4 369.9 185C370.2 189.6 374.7 189.7 374.7 189.7L382.4 189.2L382.3 179.1Z" fill="white" stroke="black" stroke-width="0.9"/>
<path d="M403.501 245C403.501 245 409.201 236.6 411.601 237.5C413.701 238.2 412.101 244.7 411.101 245.3L403.501 245ZM364.501 246.5C362.701 244 360.101 237.1 357.701 239C355.701 239.7 357.201 246.2 358.201 246.8L364.501 246.5Z" fill="#5E0043" stroke="black" stroke-width="0.9"/>
<path d="M368.301 229.9C368.301 229.9 379.301 236.7 383.001 236.9C386.701 237.1 398.201 228 398.201 228" stroke="black" stroke-width="0.9"/>
<path d="M369.4 203L371.4 200.4L382.1 205.8L393 201L395 203.3L383 211.8L369.4 203Z" fill="#5E0043" stroke="black" stroke-width="0.9"/>
<path d="M360.9 203C361.8 204 368.6 212.4 369.9 219.3C371.2 226.2 369.2 209.8 369.2 209.8C369.2 209.8 377.7 214 378 216.7C378.2 219.3 382 216.5 382.2 216L357.6 200L360.9 203ZM403 202.5C403 202.5 394 214.3 395 227.1C393.2 221 394.7 210.8 394.7 210.8L392.7 212.1C392.7 212.1 390.7 220.7 388.2 222.1C387.8 221.1 387.666 220.633 387.8 220.7C388 220.8 385.1 224.2 384.5 224.6C383.9 225 384.7 236.6 384.7 236.6C384.7 236.6 385.7 245 386.7 244.9L384 246.4L382.9 223.9L385.4 221.4C385.4 221.4 388.8 217.3 389 213.3C388.126 214.042 387.103 214.588 386 214.9C386 214.9 385.5 220.6 384.2 221.4C382.9 222.2 382.8 223.6 382.8 223.6L382.5 216.2L403 202.5Z" fill="#474747" stroke="#474747" stroke-width="0.9" stroke-linejoin="round"/>
<path d="M382.5 216.1L384.2 251.6" stroke="black" stroke-width="0.9" stroke-linecap="round"/>
<path d="M360.699 233C360.699 233 364.699 235.5 366.199 242.7C379.599 241.7 383.699 246.5 383.699 246.5C383.699 246.5 394.699 241.2 399.699 242.2C401.557 239.063 403.846 236.202 406.499 233.7" stroke="black" stroke-width="0.9"/>
<path d="M355 198.3L382.5 216.3L407.1 199.6C407.1 199.6 412.3 196.8 411.8 194.8C411.3 192.8 409.6 193.5 408.8 193.8C407.8 194.2 382.9 211.8 382.9 211.8L356.4 195.1C356.4 195.1 354.4 194.5 354.1 195.7C353.7 197 354.8 197.7 355.1 198.3H355Z" fill="#B4B6B9" stroke="black" stroke-width="0.9"/>
<path d="M403.999 193.6C403.999 193.6 396.999 190.6 396.999 193.2C396.999 195.8 397.299 196.1 398.399 197.7C399.499 199.3 397.499 200.4 397.499 200.4L396.899 198.6C396.499 197.5 392.699 196.6 392.399 195.4C391.999 194 393.199 191.9 390.899 191.7C388.599 191.5 386.499 192.6 385.999 195.2C385.599 197.7 382.699 203.8 382.699 203.8L382.999 190.1C387.999 190.4 397.199 191.5 404.199 192.3C402.099 192 404.999 192.5 404.899 193.2C404.799 193.9 403.999 193.8 404.099 193.6H403.999ZM379.299 190.2C377.999 190.2 371.699 190.9 370.199 191.9C368.599 192.8 372.699 194.2 372.199 195.5C371.699 196.7 371.599 199.3 369.599 198.7C367.599 198.1 360.999 194.9 360.799 193.7C360.599 192.7 359.199 192.6 359.199 192.6C359.199 192.6 378.399 190 379.199 190.2H379.299Z" fill="#474747" stroke="#474747" stroke-width="0.9" stroke-linejoin="round"/>
<path d="M382.3 188.6V205.4M369.4 168.8L361.5 181.7" stroke="black" stroke-width="0.9"/>
<path d="M383.5 168.5C383.5 168.5 386.9 173.1 386.5 174.4C387.758 175.991 388.739 177.783 389.4 179.7" fill="url(#paint3_linear_3921_15757)"/>
<path d="M383.5 168.5C383.5 168.5 386.9 173.1 386.5 174.4C387.758 175.991 388.739 177.783 389.4 179.7" stroke="black" stroke-width="0.9"/>
<path d="M396.401 167.8C396.401 167.8 389.201 177.9 389.401 178.7" stroke="black" stroke-width="0.9"/>
<path d="M359.4 119.3C359.2 119.967 358.533 120.133 357.4 119.8C356.267 119.467 355.767 118.933 355.9 118.2C356.167 117.533 356.833 117.367 357.9 117.7C358.967 118.033 359.467 118.567 359.4 119.3ZM362.3 119C362.567 119.667 363.267 119.867 364.4 119.6C365.467 119.2 365.967 118.667 365.9 118C365.567 117.333 364.9 117.167 363.9 117.5C362.833 117.9 362.3 118.433 362.3 119.1V119Z" fill="black"/>
<path d="M446.999 330.2C446.999 330.2 444.199 330.7 444.299 331C444.399 331.2 436.499 331.5 436.299 331.2C436.199 331 435.199 332.6 435.199 332.6L436.399 331.8C436.399 331.8 438.399 333.8 438.999 333.6C439.499 333.5 438.699 334.4 438.899 334.6C439.099 334.8 439.599 334.2 439.599 334.2L452.599 334L446.999 330.2ZM451.799 334.3L441.099 334.6C441.099 334.6 438.499 337 438.299 337.6C438.099 338.2 439.999 338.3 439.999 338.3L440.599 340.3L441.999 339.8C441.999 339.8 450.999 341.2 459.299 339.3C463.499 337.9 464.299 336.1 461.299 335C458.299 333.9 451.799 334.3 451.799 334.3Z" fill="#FF7000" stroke="black" stroke-width="0.9" stroke-linejoin="round"/>
<path d="M415.399 356L434.399 355.2L430.899 352.2L482.699 350.1L480.899 346L422.899 348.3L429.899 351.6L414.299 352L414.699 353.7L410.699 353.5C410.699 353.5 415.199 355.3 415.399 356.1V356Z" fill="url(#paint4_linear_3921_15757)" stroke="black" stroke-width="0.9"/>
<path d="M436.799 250.4C435.299 249.6 428.599 248.7 421.199 253.6L421.499 270.7C421.499 270.7 432.399 264.8 437.699 266.2C437.399 260.9 437.399 254 436.799 250.4Z" fill="url(#paint5_linear_3921_15757)" stroke="black" stroke-width="0.9"/>
<path d="M331 302.5L286 347.3M351.1 302.8L314.5 351.1M349.5 290.3L300.6 349.4M299.1 348.6L303.9 343.1M358.8 320L339.8 346.2M339 349.6L339.5 359.6M367.5 329.2L347.4 354.3M363.9 352.4L372 339M367 336.4L357.2 347.4M364 325.9L357.3 334.1M355.4 314C355.4 314 334.9 343.9 335.3 346.3M353.3 310C352.8 310.4 335.6 333 335.6 333M334.6 340.3L331.6 344M327.6 349.8L322.9 356" stroke="black" stroke-width="0.9"/>
<path d="M328.799 233.7C328.799 233.7 327.399 238 328.799 240.2C330.199 242.4 338.799 260 338.799 260C338.799 260 344.799 252.7 346.999 252.5C349.199 252.3 348.199 271.5 348.199 271.5C348.199 271.5 344.599 274.8 342.399 274.6C340.199 274.4 347.799 282.1 347.599 288.6C347.399 295.1 337.599 327.6 334.099 328.2C330.599 328.8 335.699 322.2 335.499 320.5C335.299 318.8 334.299 319.9 333.499 317.9C332.699 315.9 334.699 312.9 334.299 310.9C333.899 309 332.199 309.4 331.999 308C331.799 306.6 333.099 306.2 332.999 304.7C332.699 303.1 330.599 303.5 330.799 302.1C330.999 300.7 331.199 301.3 330.999 298.7C330.799 296.1 330.399 300.5 328.199 300.7C325.999 300.9 324.199 305.9 324.199 305.9C324.199 305.9 319.899 311.9 315.499 309.2C318.099 314.8 316.099 317.2 315.099 317.3C314.099 317.5 315.899 321.7 313.599 321.9C311.199 322.1 315.299 331.2 312.599 331.9C315.599 333.3 313.199 335.1 313.199 335.1C313.199 335.1 306.299 335.7 307.799 344.6C287.699 337.5 277.799 325.2 277.999 312.8C278.199 300.4 282.099 289 291.799 284.8C294.599 274.6 299.299 263.5 299.299 263.5C299.299 263.5 298.499 259 299.099 256C299.699 253 302.499 250 302.499 250C302.499 250 302.099 243 302.299 239.4C302.499 235.8 303.899 234.3 304.099 232.3C304.299 230.3 303.499 220.3 305.499 218.4C307.499 216.7 311.199 216.9 313.199 215.7C315.199 214.5 317.699 212.3 320.199 212.5C322.899 212.7 324.999 214.5 324.999 214.5C324.999 214.5 334.699 214.5 335.299 218.2C335.899 221.9 333.299 223.4 333.299 223.4C333.299 223.4 334.699 228.7 328.799 233.7Z" fill="#8A9396" stroke="#2B2B2B" stroke-width="0.9"/>
<path d="M320.199 220C320.499 220.5 319.799 221.5 318.599 222.2C317.399 222.8 316.199 222.9 315.899 222.2C315.599 221.7 316.299 220.7 317.499 220.1C318.699 219.5 319.899 219.4 320.199 220Z" fill="#CECFCF" stroke="#2B2B2B" stroke-width="0.9"/>
<path d="M318.5 221C318.5 221.333 318.266 221.533 317.8 221.6C317.333 221.666 317.1 221.466 317.1 221C317.1 220.533 317.333 220.3 317.8 220.3C318.266 220.3 318.5 220.533 318.5 221Z" fill="black"/>
<path d="M333 227.5C333 227.5 335.4 238.2 332.5 245.6M333.7 222.8C333.7 222.8 338.4 229 337.8 236.8M334.2 221.5C334.3 221.5 338.2 224.8 338 227.1M335.1 220.1C335.1 220.1 337.7 221.9 338.3 223.7" stroke="#2B2B2B" stroke-width="0.4"/>
<path d="M333.901 219C333.901 219 324.701 234 325.901 243.4" stroke="black" stroke-width="0.9"/>
<path d="M334.5 218.6C334.5 218.6 322.3 225.8 320 249.6" stroke="#2B2B2B" stroke-width="0.4"/>
<path d="M333.101 223L328.301 226.6" stroke="black" stroke-width="0.9"/>
<path d="M315.5 251C315.5 251 322.3 222.7 334.3 218.6" stroke="#2B2B2B" stroke-width="0.4"/>
<path d="M339 260.5C339 260.5 345.5 252.3 347 252.6C348.6 252.9 348.1 271.5 348.1 271.5C348.1 271.5 343.3 275.1 342.2 275C341.2 274.8 347.6 283.7 347.5 287L347.2 290.4C347.2 290.4 347.2 288.4 345.7 285.2C344.2 282.1 345.1 278.4 335.3 270.4C332.8 265.4 340.1 273.4 341.6 272.2C343.1 271 338.9 260.6 339 260.5Z" fill="#2B2B2B" stroke="#2B2B2B" stroke-width="0.9"/>
<path d="M327.5 214.5C327.5 214.5 324.7 215.2 324.4 216.4C324 217.4 322.4 218.6 321.5 218.2C320.6 217.8 319 216.5 319 216.5" stroke="#2B2B2B" stroke-width="0.9"/>
<path d="M312 224C312 224 307.9 228.2 309.8 228.7C311.8 229.1 313.9 225.4 313.9 225.4C313.9 225.4 313.9 231.8 315.7 230.8C317.4 229.8 322.5 226.2 322.5 226.2C322.5 226.2 324.3 226 324.6 226.2C325 226.2 329.3 230 332.2 228.7C330.6 232.9 328.7 233.4 328.7 233.4C328.7 233.4 325.7 237.2 321.9 236.4C318 235.4 317 233.9 317 233.9C317 233.9 313.8 234.1 312.8 232.6C311.8 231.1 311.5 230.3 311.5 230.3C311.5 230.3 309.6 232.1 309.1 231.3C308.6 230.3 309.1 225.3 312 224.1V224Z" fill="#2B2B2B" stroke="#2B2B2B" stroke-width="0.9" stroke-linejoin="round"/>
<path d="M335.199 218.3C335.199 218.3 327.599 216.1 324.999 219.8C322.399 223.5 322.999 225.7 324.399 226" stroke="#2B2B2B" stroke-width="0.9"/>
<path d="M336.3 218.1C336.233 219.1 335.767 219.633 334.9 219.7C334.033 219.633 333.567 219.1 333.5 218.1C333.567 217.1 334.033 216.567 334.9 216.5C335.767 216.567 336.233 217.1 336.3 218.1Z" fill="black"/>
<path d="M314.3 237.5C314.3 237.5 317.3 242.2 321.1 243.5C324.9 244.8 318.5 246 314.8 243.5C312.2 239.8 312.8 237.2 312.8 237.2C312.8 237.2 313.6 236.5 314.3 237.5ZM340.7 265.5C340.7 265.5 332.1 253.5 329.6 252.8C327.1 252.1 331.5 251.6 334.1 254.2C336.8 256.7 333.4 250 333.4 250L340.7 265.5Z" fill="#2B2B2B" stroke="#2B2B2B" stroke-width="0.9"/>
<path d="M313.501 335.2C316.801 334.3 331.301 343.5 334.501 345.8C337.801 348.1 344.701 346.7 344.701 346.7C344.701 346.7 341.501 348.6 339.501 349C337.501 349.5 345.401 349.5 345.401 349.5C345.401 349.5 326.801 354.6 308.001 344.7C306.301 337 312.001 335.3 313.501 335.2Z" fill="#2B2B2B" stroke="#2B2B2B" stroke-width="0.9" stroke-linejoin="round"/>
<path d="M334.7 268.5C334.7 268.5 332.2 268 331 266.5C329.7 265.2 328 261.6 326.1 260.2C324.3 258.7 315.1 253.6 311.7 254C308.4 254.3 307.4 253.6 307 253.2C306.6 252.8 305.2 253.4 305.4 255.2C305.7 256.8 302.9 260.6 303.9 262.4C304.9 264.2 309.7 271.4 310.6 271.7C311.6 271.9 311 275.9 311 275.9C311 275.9 315.2 280.2 316.3 280.4C317.4 280.6 318.4 281.4 318.3 282.4C318.2 283.4 313.6 289 313.6 289C313.6 289 308.8 291.5 308.7 293C308.7 294.4 309.9 297.3 313.7 298.3C318.662 299.109 323.737 298.871 328.6 297.6C329.344 295.413 329.683 293.109 329.6 290.8C329.2 290.3 326.6 288.7 325.3 288.9C324 289.1 322.9 290.2 323 290.5C323 290.7 321.1 291.7 321.1 290.8C321.1 289.8 325 285.5 325.3 285.8C325.7 286.2 331.2 286.8 332.2 289.5C333.2 292.2 333.2 294.2 336 293.9C338.9 293.6 342.9 290.9 343.2 285.5C343.6 280.1 340 276.4 339.2 275.8C338.2 275.3 335.2 273.5 335 272.7C334.8 271.9 334.2 269.1 334.7 268.5Z" fill="#2B2B2B" stroke="#2B2B2B" stroke-width="0.9"/>
<path d="M283.299 292.6C283.299 292.6 292.499 290.2 294.899 290.3C297.199 290.3 306.199 294.5 308.899 297.1C311.399 299.6 316.799 305.7 320.299 305.1C323.799 304.5 324.799 303.9 324.799 303.9L323.399 306.5C323.399 306.5 320.599 307.3 319.199 306.9C317.699 306.6 314.999 305.7 312.199 302.9C309.399 300.1 300.799 292.9 293.399 293.4C286.099 293.9 281.899 301.1 281.899 301.1C281.899 301.1 281.899 297.6 282.299 296.8C282.599 296 280.699 298.5 280.699 298.5L283.299 292.6Z" fill="#2B2B2B" stroke="#2B2B2B" stroke-width="0.9"/>
<path d="M317.199 299.7C317.199 299.7 319.499 300.4 323.299 300.4C327.099 300.4 329.199 298.7 329.199 298.7L328.899 297.2L329.499 295.2C329.499 295.2 332.499 298.2 332.399 298.7C332.299 299.2 331.199 299.6 331.199 299.6L330.799 298.1L329.799 299.4C329.799 299.4 324.199 303.8 321.199 303.1C318.199 302.5 315.399 300.5 316.199 300.1C316.933 299.7 317.266 299.567 317.199 299.7ZM303.799 307.5C303.799 307.5 300.499 307.5 298.999 308.2C297.499 308.9 296.999 309.8 295.999 309.6C294.999 309.6 294.199 308.2 294.499 307.6C294.799 307 296.799 305.8 300.499 306.1C304.199 306.4 303.799 307.5 303.799 307.5ZM315.399 316.5C315.399 316.4 315.199 311.7 313.399 309.8C312.729 309.125 311.909 308.619 311.004 308.323C310.1 308.027 309.139 307.951 308.199 308.1C307.199 308.3 311.999 310.4 312.499 311.8C312.999 313.2 314.499 317 314.099 317.9C313.599 318.9 312.899 315.2 309.999 314.2C306.999 313.2 302.999 313.8 303.799 315.1C304.699 316.4 307.899 315.1 309.599 318C311.299 320.8 312.599 323.7 312.599 323.7L313.099 321.7L314.499 321.3L314.699 317.4L315.399 316.5Z" fill="#2B2B2B" stroke="#2B2B2B" stroke-width="0.9"/>
<path d="M313.001 331.7L310.001 325.7C310.001 325.7 309.001 321.8 306.501 320.7C304.001 319.7 300.501 319.9 300.501 321.2C300.501 322.5 306.001 324.2 306.301 324.9C306.701 325.6 306.501 326.8 306.001 326.9C305.601 326.9 303.101 325.9 301.901 326.2C300.601 326.5 299.901 328.2 298.101 327.7C296.201 327.2 294.701 321.3 295.401 320.7C296.101 320.1 294.001 321.7 293.601 320.2C293.201 318.7 294.201 313.9 293.601 313.2C292.801 312.7 289.301 310.6 289.301 310.2C289.301 309.8 289.501 286.5 308.901 305.8C300.601 295.9 297.301 297 295.801 296.9C294.601 296.9 287.101 297.6 285.201 307.2C283.301 316.8 281.001 310.8 281.001 310.8C281.001 310.8 280.601 315 282.601 316.2C284.601 317.4 281.601 320.8 281.601 320.8C281.601 320.8 278.101 312 278.601 308.1C277.768 314.734 279.176 321.457 282.601 327.2C289.059 334.598 297.182 340.356 306.301 344C313.401 333.2 313.101 331.9 313.101 331.7H313.001Z" fill="#2B2B2B" stroke="#2B2B2B" stroke-width="0.9" stroke-linejoin="round"/>
<path d="M300.301 331.8C300.301 331.8 304.301 332.3 305.301 334.3C306.401 336.3 306.901 339.4 306.901 339.4C307.501 338.1 307.901 337 309.101 336C310.301 335 311.401 335 311.301 334.2C311.301 333.5 307.201 329.2 305.101 329C303.101 328.7 299.401 331.2 299.401 331.2C299.401 331.2 298.701 332.2 300.401 331.8H300.301Z" fill="#8A9396" stroke="#2B2B2B" stroke-width="0.9" stroke-linejoin="round"/>
<path d="M309.301 342C309.301 342 319.501 346.7 336.201 347" stroke="#8A9396" stroke-width="0.9" stroke-linecap="round"/>
<path d="M343.201 294.9C343.201 294.9 342.301 303.4 335.801 320.2" stroke="#2B2B2B" stroke-width="0.9" stroke-linecap="round"/>
<path d="M342 300.1C342 300.1 340 306.2 334.5 310.8" stroke="#2B2B2B" stroke-width="0.9"/>
<path d="M312.199 406L313.999 404L314.499 404.5L314.399 404.7L314.199 404.9V405L314.399 405.2L316.699 407.2L316.899 407.4H316.999L317.199 407.3L317.599 406.6C317.666 406.333 317.666 406.066 317.599 405.8C317.599 405.6 317.499 405.333 317.299 405L317.999 404.6L318.999 406.5L316.299 409.5L315.699 409.1L315.899 408.9L315.999 408.7V408.5L315.799 408.3L313.499 406.3L313.299 406.1H313.099L312.999 406.3L312.799 406.5L312.199 406ZM315.999 401.7L319.299 398.5L320.899 399.3L320.599 399.9L319.799 399.8H319.199L318.699 400.3L318.099 400.9L319.099 401.9L319.199 401.7L319.499 401.3V401.1L319.299 400.8L319.099 400.7L319.599 400.2L321.199 401.8L320.799 402.3L320.599 402.1L320.299 401.9H320.099L319.799 402.2L319.599 402.4L320.499 403.3L320.599 403.4H320.699L320.899 403.3L321.299 402.9L321.799 402.2V401.5C321.799 401.166 321.733 400.866 321.599 400.6L322.299 400.3L323.299 402.3L319.899 405.5L319.399 405V404.9L319.699 404.6V404.4L319.499 404.2L317.399 402.1L317.099 401.9H316.999L316.799 402L316.599 402.2L316.099 401.7H315.999ZM322.899 395.2C323.566 394.6 324.233 394.333 324.899 394.4C325.699 394.4 326.366 394.733 326.899 395.4C327.233 395.8 327.466 396.266 327.599 396.8C327.733 397.333 327.666 397.8 327.399 398.2C327.266 398.666 326.933 399.1 326.399 399.5C325.866 399.9 325.266 400.133 324.599 400.2C323.733 400.2 323.033 399.866 322.499 399.2C321.966 398.533 321.733 397.866 321.799 397.2C321.799 396.4 322.133 395.733 322.799 395.2H322.899ZM323.399 395.8C323.133 396.066 322.999 396.4 322.999 396.8C322.999 397.2 323.199 397.666 323.599 398.2C323.999 398.733 324.433 399.033 324.899 399.1C325.299 399.1 325.633 399 325.899 398.8C326.233 398.533 326.399 398.2 326.399 397.8C326.399 397.4 326.199 396.933 325.799 396.4L324.899 395.7L324.099 395.5C323.833 395.5 323.599 395.6 323.399 395.8ZM328.799 390.4L329.199 390.1H329.299L331.899 388.4L331.799 388.2L332.199 387.9L333.899 389.1L333.399 389.7L332.799 389.4H331.699V389.8L333.499 392.3L333.699 392.6H333.999L334.399 392.4L334.799 393L332.599 394.5L332.199 393.9H332.299L332.599 393.6V393.4L332.399 393.1L330.599 390.5L330.499 390.4H330.399C330.266 390.466 330.166 390.6 330.099 390.8L329.999 391.4V392.1L329.299 392.3L328.799 390.3V390.4ZM333.699 387.2L337.599 384.8L338.999 386L338.499 386.6C338.299 386.4 338.066 386.266 337.799 386.2H337.199C336.999 386.2 336.799 386.3 336.599 386.5L335.899 386.9L336.599 388.1L336.799 387.9L337.099 387.7C337.166 387.633 337.166 387.566 337.099 387.5V387.1L336.899 386.9L337.499 386.6L338.699 388.6L338.099 388.9L337.999 388.7L337.799 388.4H337.599L337.199 388.6L336.999 388.7L337.599 389.7L337.699 390H337.799L338.099 389.9L338.499 389.6C338.766 389.466 338.966 389.3 339.099 389.1L339.399 388.4V387.4H340.099L340.499 389.4L336.499 391.8L336.099 391.2H336.299L336.499 390.9C336.566 390.9 336.566 390.833 336.499 390.7V390.4L334.899 387.9L334.699 387.6H334.599L334.299 387.7L334.099 387.8L333.699 387.2ZM339.199 383.9L342.199 382.4L342.799 382.1L343.599 382L344.199 382.2L344.699 382.7C344.899 383.1 344.899 383.466 344.699 383.8C344.499 384.133 344.299 384.466 344.099 384.8L345.699 385.4L345.999 385.5H346.399L346.599 385.3L346.999 386L345.399 386.8L342.799 385.5L342.399 385.7L342.899 386.7L343.099 387H343.499L343.699 386.8L344.099 387.5L341.699 388.7L341.399 388.1L341.599 387.9L341.799 387.8V387.4L340.299 384.6L340.199 384.4H339.799L339.599 384.6L339.199 383.9ZM341.399 383.8L341.999 385L342.799 384.6L343.299 384.2C343.433 384.133 343.499 384.033 343.499 383.9V383.4L343.199 383.2C343.066 383.133 342.933 383.133 342.799 383.2L342.199 383.4L341.399 383.8ZM345.299 380.8L348.399 379.4L349.099 379.2H349.799C350.066 379.2 350.299 379.266 350.499 379.4L350.899 380C351.033 380.333 351.033 380.666 350.899 381C350.766 381.333 350.499 381.666 350.099 382L351.699 382.7L351.999 382.8H352.499L352.699 382.7L352.999 383.3L351.399 384L348.799 382.6L348.399 382.8L348.899 383.8L348.999 384.1H349.399L349.699 384L349.999 384.7L347.499 385.7L347.199 385H347.399L347.699 384.8V384.4L346.399 381.6L346.299 381.3H345.899L345.699 381.5L345.299 380.8ZM347.499 380.8L348.099 382.1L348.799 381.7L349.499 381.4L349.699 381V380.6L349.399 380.3C349.266 380.233 349.133 380.233 348.999 380.3L348.399 380.4L347.499 380.8ZM353.499 377.4L354.699 376.9L357.699 380.3L357.999 380.6H358.399L358.599 381.3L356.199 382.2L355.999 381.4H356.099C356.233 381.4 356.333 381.333 356.399 381.2V381.1L356.199 380.8L355.899 380.4L354.399 381V381.9H354.999L355.199 382.5L353.199 383.2L352.999 382.5L353.299 382.4V382.2L353.399 382L353.499 377.4ZM354.399 380.2L355.399 379.8L354.399 378.6V380.2ZM357.799 375.8L360.099 375.1L361.899 378.1V374.6L364.399 373.9L364.599 374.6L364.299 374.7C364.166 374.7 364.099 374.766 364.099 374.9V375.2L364.899 378.2L364.999 378.5H365.699L365.899 379.1L363.399 379.9L363.199 379.1H363.399L363.599 379L363.699 378.8V378.6L362.699 375.4V380.1L361.999 380.3L359.599 376.4L360.499 379.6V379.8H361.199L361.399 380.4L359.299 381.1L359.099 380.3H359.299L359.499 380.2L359.599 380V379.7L358.699 376.7V376.5H357.999L357.799 375.8ZM368.599 373L371.399 372.5L372.399 372.4L372.999 372.6L373.499 373.1L373.799 373.7C373.866 374.166 373.766 374.566 373.499 374.9C373.233 375.233 372.766 375.5 372.099 375.7L371.099 375.8L371.399 376.8V377.1H372.099L372.199 377.8L369.599 378.3L369.499 377.6H369.699L369.999 377.5V377L369.499 374L369.399 373.8L369.299 373.7H368.799L368.599 373ZM370.699 373.5L370.999 375H371.499L372.099 374.7C372.233 374.633 372.299 374.533 372.299 374.4V373.9C372.299 373.7 372.199 373.533 371.999 373.4L370.699 373.5ZM374.399 372L377.699 371.5H378.399L379.099 371.6C379.366 371.733 379.566 371.9 379.699 372.1L379.899 372.7C379.966 373.166 379.866 373.533 379.599 373.8C379.333 374.066 378.999 374.266 378.599 374.4L379.899 375.6L380.199 375.8H380.899V376.6L379.199 376.8L377.199 374.7H376.799V375.8L376.999 376.2C377.133 376.266 377.266 376.266 377.399 376.2H377.599L377.699 377L375.099 377.3L374.999 376.6H375.199L375.499 376.5V376L375.199 373V372.8L374.999 372.7H374.499L374.399 372ZM376.399 372.6L376.699 374L377.499 373.9L378.199 373.7L378.499 373.4V373L378.399 372.6L377.999 372.4H377.399L376.399 372.6ZM384.199 370.8C385.066 370.8 385.766 371.033 386.299 371.5C386.833 372.033 387.166 372.7 387.299 373.5C387.299 374.033 387.166 374.533 386.899 375C386.699 375.4 386.366 375.733 385.899 376C385.566 376.266 385.066 376.433 384.399 376.5C383.599 376.5 382.933 376.3 382.399 375.9C381.733 375.433 381.399 374.766 381.399 373.9C381.399 373.033 381.633 372.333 382.099 371.8C382.633 371.2 383.299 370.866 384.099 370.8H384.199ZM384.199 371.8C383.799 371.8 383.466 371.933 383.199 372.2C382.933 372.6 382.833 373.133 382.899 373.8C382.899 374.4 383.066 374.866 383.399 375.2C383.733 375.533 384.066 375.666 384.399 375.6C384.733 375.533 385.066 375.366 385.399 375.1C385.666 374.7 385.766 374.2 385.699 373.6C385.699 373.133 385.633 372.8 385.499 372.6C385.366 372.266 385.166 372.033 384.899 371.9C384.633 371.766 384.399 371.7 384.199 371.7V371.8ZM388.299 370.8H392.099L392.699 371.2L393.099 371.8L393.199 372.4C393.199 372.866 393.033 373.266 392.699 373.6C392.366 373.933 391.866 374.1 391.199 374.1H390.199V375.1L390.299 375.3L390.399 375.4H390.899V376.2H388.299V375.4H388.799L388.899 375.3V371.5H388.299V370.8ZM390.299 371.7V373.2H391.399L391.699 372.9L391.799 372.4C391.799 372.133 391.699 371.933 391.499 371.8L390.899 371.7H390.299ZM394.199 370.8L397.499 371C397.766 371 397.999 371.066 398.199 371.2C398.466 371.2 398.699 371.3 398.899 371.5L399.399 372V372.7C399.399 373.1 399.266 373.433 398.999 373.7C398.666 373.9 398.299 374.033 397.899 374.1L398.899 375.5L399.099 375.7L399.299 375.8H399.599L399.799 375.9V376.6H397.999L396.399 374.1H395.999L395.899 375.1V375.5L395.999 375.6H396.499V376.4L393.799 376.2V375.5H394.399L394.499 375.4V375.1L394.799 372.1V371.8L394.699 371.7H394.299L394.099 371.6L394.199 370.8ZM396.199 371.8L395.999 373.3H397.599L397.899 373C398.033 372.933 398.099 372.833 398.099 372.7L397.999 372.3L397.699 372H396.999L396.099 371.8H396.199ZM400.999 371.3L403.499 371.7V372.4H402.899L402.699 372.8L402.399 375.8V376.2H402.699L402.999 376.3L402.899 377.1L400.299 376.7V376H400.899L400.999 375.7L401.399 372.7V372.2H401.099L400.799 372.1L400.899 371.3H400.999ZM406.599 372.1L407.799 372.3L408.699 376.8L408.799 377.2L409.199 377.3L409.099 378.1L406.499 377.6L406.599 376.9H407.099L407.199 376.8V376L405.499 375.7L405.199 376.2L405.099 376.4V376.5L405.199 376.6L405.599 376.7L405.499 377.5L403.399 377.1L403.499 376.4H403.799L403.999 376.3L404.199 376.1L406.599 372.1ZM405.899 375L406.899 375.2L406.699 373.6L405.899 375ZM410.999 373L413.399 373.5L413.499 377L415.299 374L417.699 374.6L417.499 375.3H416.999L416.799 375.6L416.099 378.6C416.033 378.733 416.033 378.8 416.099 378.8V379H416.299L416.599 379.1L416.399 379.9L413.899 379.2L414.099 378.5H414.699V378.3L415.599 375L413.199 379L412.499 378.9L412.299 374.3L411.499 377.5V377.9H411.799L412.099 378L411.899 378.7L409.699 378.2L409.899 377.5H410.499L410.699 377.2L411.399 374.2V373.8H411.199L410.899 373.7L411.099 372.9L410.999 373ZM421.999 376L424.699 377C425.033 377.066 425.299 377.2 425.499 377.4C425.699 377.533 425.833 377.7 425.899 377.9L426.099 378.5V379.2C425.899 379.666 425.566 380 425.099 380.2C424.699 380.333 424.199 380.266 423.599 380L422.699 379.7L422.399 380.7L422.299 380.9V381.1H422.599L422.799 381.3L422.599 382L420.099 381L420.399 380.4H420.499L420.799 380.5H420.999L421.099 380.2L422.099 377.3L422.199 377V376.9L421.899 376.8L421.699 376.7L421.999 376ZM423.499 377.5L422.999 378.9L423.399 379.1L423.999 379.2L424.399 379.1L424.699 378.7V378.1C424.566 377.9 424.366 377.766 424.099 377.7L423.499 377.5ZM427.499 378L430.499 379.4L431.199 379.7L431.699 380.2L431.999 380.9L431.799 381.6C431.666 381.933 431.399 382.166 430.999 382.3C430.666 382.433 430.299 382.433 429.899 382.3L430.399 384V384.3L430.599 384.5L430.799 384.6L430.999 384.7L430.699 385.4L429.199 384.7L428.499 381.8L428.099 381.7L427.699 382.7L427.499 383V383.1L427.799 383.3H427.999L427.699 384.1L425.299 383L425.599 382.3L425.799 382.4H426.299V382.1L427.599 379.3L427.699 379.1V379L427.499 378.8H427.199L427.499 378ZM428.999 379.6L428.399 380.9L429.099 381.3L429.799 381.5L430.299 381.4L430.499 381.1C430.566 380.966 430.566 380.833 430.499 380.7L430.399 380.3L429.799 380L428.999 379.6ZM436.499 382.2C437.233 382.6 437.733 383.133 437.999 383.8C438.199 384.533 438.099 385.266 437.699 386C437.433 386.466 437.099 386.833 436.699 387.1C436.299 387.366 435.833 387.5 435.299 387.5C434.766 387.5 434.266 387.366 433.799 387.1C433.133 386.7 432.666 386.2 432.399 385.6C432.066 384.866 432.133 384.1 432.599 383.3C433.066 382.5 433.599 382.033 434.199 381.9C434.933 381.633 435.699 381.733 436.499 382.2ZM436.099 382.9C435.699 382.7 435.366 382.7 435.099 382.9C434.566 383.1 434.166 383.466 433.899 384C433.633 384.533 433.533 385.033 433.599 385.5C433.666 385.966 433.866 386.266 434.199 386.4C434.533 386.533 434.899 386.533 435.299 386.4C435.766 386.2 436.099 385.866 436.299 385.4C436.499 384.933 436.633 384.566 436.699 384.3L436.599 383.5C436.466 383.233 436.299 383.033 436.099 382.9ZM440.499 384.3L440.999 384.6V384.8L443.499 386.4L443.699 386.3L444.099 386.5L443.699 388.5L442.899 388.3V387.6L442.799 387L442.499 386.7H442.399L442.199 386.8L440.599 389.5L440.399 389.8V389.9L440.499 390L440.899 390.3L440.499 390.9L438.199 389.5L438.599 388.9H438.799L439.099 389.1H439.199L439.399 388.8L441.099 386.1C441.166 385.966 441.166 385.9 441.099 385.9V385.8L440.599 385.7L439.999 385.8L439.399 386.2L438.999 385.6L440.499 384.3ZM445.399 387.6L449.099 390.2L448.599 392L447.899 391.8V391L447.699 390.4L447.199 390L446.499 389.5L445.699 390.5L445.899 390.7L446.299 390.9H446.499L446.799 390.6V390.5L447.499 390.9L446.099 392.7L445.599 392.3V392.1C445.733 392.033 445.799 391.933 445.799 391.8V391.6L445.499 391.3L445.299 391.2L444.599 392.2L444.399 392.4V392.5L444.599 392.7L444.999 392.9L445.799 393.3C446.066 393.366 446.333 393.366 446.599 393.3L447.399 392.9L447.799 393.5L446.099 394.8L442.199 392L442.699 391.4L443.099 391.7H443.299L443.499 391.4L445.199 389L445.399 388.7V388.6L445.199 388.4L444.999 388.2L445.399 387.6ZM451.499 395.4L453.499 397L452.999 397.6H452.899L452.599 397.4H452.499L452.299 397.6L451.299 398.9L450.599 398.4V398C450.333 398 450.099 397.933 449.899 397.8L449.199 397.3C448.799 397.033 448.499 396.666 448.299 396.2C448.166 395.733 448.166 395.266 448.299 394.8C448.299 394.333 448.499 393.866 448.899 393.4C449.299 392.933 449.699 392.666 450.099 392.6C450.499 392.4 450.933 392.333 451.399 392.4C451.866 392.466 452.299 392.666 452.699 393L453.199 393.5L453.599 394.1H453.799L454.199 394.4L453.499 396.1L452.799 395.8V394.8L452.699 394.2L452.299 393.8L451.699 393.5L450.899 393.7L450.099 394.3C449.833 394.633 449.666 394.966 449.599 395.3C449.466 395.633 449.466 395.966 449.599 396.3C449.599 396.5 449.699 396.666 449.899 396.8L450.399 397.1H450.899L451.199 396.9V396.7L451.399 396.5V396.4L451.199 396.1L450.999 396L451.499 395.4ZM457.299 397.1L458.299 398L456.499 402.1V402.6L456.699 402.9L456.199 403.5L454.199 401.7L454.799 401.2H454.899L455.199 401.4H455.299L455.499 401.1L455.699 400.6L454.499 399.6L453.899 399.8L453.699 399.9V400.2L453.999 400.4L453.499 401L451.999 399.5L452.499 399L452.699 399.2H452.899L453.199 399.1L457.299 397.1ZM455.299 399.1L455.999 399.9L456.599 398.4L455.299 399.1ZM460.899 400.3L461.299 400.7L461.199 400.8L463.199 403.1L463.499 403L463.799 403.3L462.899 405.1L462.199 404.8L462.399 404.1V403.5C462.399 403.3 462.333 403.166 462.199 403.1H461.899L459.699 405.3L459.399 405.6V405.8L459.699 406.1L459.199 406.7L457.399 404.7L457.899 404.2L457.999 404.3L458.299 404.6H458.399L458.699 404.3L460.999 402.1L461.099 402V401.9L460.699 401.7H459.999L459.399 401.8L459.099 401.1L460.899 400.3Z" fill="black"/>
<path d="M0 0H256V256H0V0Z" fill="#012169"/>
<path d="M256 0V32L161 128L256 221.5V256H222.5L127 162L34 256H0V222L93 128.5L0 37V0H31L127 94L220 0H256Z" fill="white"/>
<path d="M92 162L97.5 179L21 256H0V254.5L92 162ZM154 156L181 160L256 233.5V256L154 156ZM256 0L160 98L158 76L233 0H256ZM0 0.5L96.5 95L67 91L0 24.5V0.5Z" fill="#C8102E"/>
<path d="M88 0V256H168V0H88ZM0 88V168H256V88H0Z" fill="white"/>
<path d="M0 104V152H256V104H0ZM104 0V256H152V0H104Z" fill="#C8102E"/>
</g>
<defs>
<linearGradient id="paint0_linear_3921_15757" x1="413.403" y1="177.225" x2="413.712" y2="157.095" gradientUnits="userSpaceOnUse">
<stop stop-color="#474747"/>
<stop offset="1" stop-color="#FF5500"/>
</linearGradient>
<linearGradient id="paint1_linear_3921_15757" x1="406.555" y1="252.785" x2="406.59" y2="264.157" gradientUnits="userSpaceOnUse">
<stop stop-color="#B50000"/>
<stop offset="1" stop-color="#FFC500"/>
</linearGradient>
<linearGradient id="paint2_linear_3921_15757" x1="456.481" y1="259.733" x2="475.055" y2="259.49" gradientUnits="userSpaceOnUse">
<stop stop-color="#D5DFFF"/>
<stop offset="1" stop-color="white"/>
</linearGradient>
<linearGradient id="paint3_linear_3921_15757" x1="409.863" y1="173.406" x2="416.553" y2="173.406" gradientUnits="userSpaceOnUse">
<stop stop-color="#474747"/>
<stop offset="1" stop-color="#FF5500"/>
</linearGradient>
<linearGradient id="paint4_linear_3921_15757" x1="506.648" y1="353.144" x2="503.393" y2="332.913" gradientUnits="userSpaceOnUse">
<stop stop-color="#D5DFFF"/>
<stop offset="1" stop-color="white"/>
</linearGradient>
<linearGradient id="paint5_linear_3921_15757" x1="460.982" y1="266.666" x2="452.68" y2="253.279" gradientUnits="userSpaceOnUse">
<stop stop-color="#D5DFFF"/>
<stop offset="1" stop-color="white"/>
</linearGradient>
<clipPath id="clip0_3921_15757">
<rect width="512" height="512" fill="white"/>
</clipPath>
</defs>
</svg>
