<svg width="512" height="512" viewBox="0 0 512 512" fill="none" xmlns="http://www.w3.org/2000/svg">
<g clip-path="url(#clip0_3921_16036)">
<path fill-rule="evenodd" clip-rule="evenodd" d="M0 0H512V512H0V0Z" fill="#BE0027"/>
<path fill-rule="evenodd" clip-rule="evenodd" d="M20.5 20.5H490.5V491.5H20.5V20.5Z" fill="#3B5AA3"/>
<path fill-rule="evenodd" clip-rule="evenodd" d="M251.9 396.1C253.7 397.1 256.6 397.1 258.2 396.2C361.5 341.2 361.6 190.4 258.3 136.2C257.256 135.746 256.128 135.52 254.99 135.538C253.851 135.555 252.73 135.815 251.7 136.3C151 191.4 150.7 340.5 251.9 396.1Z" fill="#CBE0E5"/>
<path fill-rule="evenodd" clip-rule="evenodd" d="M251.899 398.9C253.499 400.2 256.699 400 258.199 398.9C334.299 341.9 334.799 306.4 331.399 306.4H180.699C178.399 306.4 181.999 342.5 251.899 398.8V398.9Z" fill="#ADD2D9"/>
<path fill-rule="evenodd" clip-rule="evenodd" d="M192.6 334.6C199.485 332.415 206.938 332.879 213.5 335.9C219.2 338.9 222.5 338.9 228.6 338.9C235.1 339 240.1 343.8 247.1 343.9C259.9 344.3 265.4 350.6 255.4 350.7C250.7 350.7 240.6 347.5 235.7 348.2C225.5 349.2 219 351.5 209.4 362.2L220.5 369.8C230.1 365.8 231.7 361.5 237 361.3C243 361.1 245 357.3 252 357.3C259.9 358.8 270.5 356.3 276.8 355C287.9 352.4 282.6 344.7 275.9 341.8C270.5 339.5 260.3 341.8 253.9 339.5C249.2 337.6 253.1 334.6 255.7 334C258.3 333.4 261.1 334.4 264.3 334.9C270.1 335.4 277.3 334.9 282.3 334C292.8 332.4 292.3 329.3 297.4 329.3C300.645 329.204 303.784 328.123 306.4 326.2C309.4 324.2 312.4 320.2 316 320.3L325.6 320.7L312 351L274 389.8L254.2 397.3L211 369L189 335.5L192.6 334.6Z" fill="#FDF9A1"/>
<path fill-rule="evenodd" clip-rule="evenodd" d="M242.4 305.1L329.4 304.7L331 297L325.4 296.4C322.2 296.2 316.9 299.7 313.3 299.7C310.7 299.7 307.8 295.1 305.3 295.2C300.9 295.2 300.5 299.2 296.3 299.2C292.9 299.2 291.5 296.6 287.1 296.8C282.5 297.1 282.9 299.6 277.1 299.5C269.4 299.3 266.4 292.6 260.3 292.5C250 292.5 249.7 302.3 242.4 305.1Z" fill="#179A3B"/>
<path fill-rule="evenodd" clip-rule="evenodd" d="M242.4 307L332 306.5V304.1L240.4 304.6L242.4 307Z" fill="#FDF9A1"/>
<path fill-rule="evenodd" clip-rule="evenodd" d="M279.199 334C280.599 339.2 282.099 341 287.599 342.4C293.099 343.7 301.499 338.4 296.299 333.2C291.299 328.4 286.099 327.2 281.699 322.8C272.299 313.6 258.199 290.9 258.199 275C258.199 261.2 256.899 233.1 256.899 206.5C256.899 204.7 251.699 211.3 251.699 213C251.899 236.6 251.899 254.3 252.799 278C254.299 295.4 262.599 307 269.799 317.6C273.099 322.6 277.799 328.1 279.199 333.9V334Z" fill="#A79270"/>
<path fill-rule="evenodd" clip-rule="evenodd" d="M211.899 207.3C210.699 209.5 214.599 206.7 215.499 206.3C220.499 204.6 222.499 198.3 231.099 202C237.899 205 247.099 203.3 242.299 206.2C236.299 209.8 224.599 213.7 224.299 231.2C225.299 232.9 225.499 232.6 226.299 230.8C227.999 226.8 236.599 215.6 240.799 216.6C242.499 217 247.399 211.6 247.599 213.1C247.999 217.5 240.799 226.3 240.899 238.1C240.899 240.9 244.299 241.8 245.899 239.9C247.499 238.2 248.399 236.4 251.299 234.2C256.299 230.1 254.899 212.7 255.499 213.5C258.999 218.1 259.499 231 264.899 236.3C269.199 240.7 272.799 238.6 271.899 232.5C269.899 220.2 264.099 223.7 261.399 211C260.799 208.5 260.699 206.3 263.899 207.3C267.899 208.5 270.299 210.3 273.299 214.9C276.299 219.2 281.799 223.3 285.099 225.9C290.699 230.2 292.699 226.4 289.999 220.9C286.565 214.548 280.955 209.649 274.199 207.1C269.599 205.5 267.899 205.4 263.799 204.6C262.799 204.4 261.499 202 263.499 200.8C267.866 197.653 272.956 195.658 278.299 195C283.299 194.9 287.299 198.9 290.799 200C297.899 201.8 297.799 197.3 294.799 194C292.199 191.2 286.799 186.5 281.799 187C271.599 188.3 272.199 188 265.999 192.2C263.699 193.5 261.199 195 262.099 193.4C264.399 189.3 262.199 190 265.799 185.8C268.499 182.8 270.499 180.5 273.299 179.8C275.899 179.1 279.299 176.4 280.299 175C282.899 171.5 280.699 169.5 276.799 170.7C273.399 171.7 271.499 173.9 269.199 174.5C263.699 176.2 259.199 188.8 258.599 190.5C257.699 192.7 256.799 191.6 256.899 189.8C257.699 181 258.499 166.1 255.399 160C250.699 151 251.099 155.2 249.299 159.5C247.058 165.91 247.058 172.89 249.299 179.3C249.999 182.6 252.699 186.3 253.299 189C253.599 191 251.999 188.3 251.199 187.1C248.199 182.6 245.999 179.5 241.199 177.1C236.382 175.147 231.105 174.627 225.999 175.6C224.699 176 227.499 178 228.699 178.9C231.899 181.5 237.999 182.3 242.099 184.9C245.699 186.9 248.399 188.4 249.499 191.4C249.999 193.6 250.699 196.9 249.299 196.8C245.399 196.6 239.399 193.3 227.099 194.6C220.799 195.5 215.399 200.9 211.899 207.3Z" fill="#239E46"/>
<path fill-rule="evenodd" clip-rule="evenodd" d="M238.699 319.8H242.299V325.8H238.699V319.8Z" fill="black"/>
<path fill-rule="evenodd" clip-rule="evenodd" d="M221 280.2C235.1 299.8 257.8 311.2 258.3 320.2L214 320C224.1 307.8 230.3 299.5 220.9 280.1L221 280.2Z" fill="#FDF9FF"/>
<path fill-rule="evenodd" clip-rule="evenodd" d="M208.101 320.6C227.401 324.9 250.301 327.2 265.001 320C265.001 324.3 260.201 330.4 256.201 330.4H219.301C223.601 329.8 226.001 328.5 233.001 328.1L213.401 328.4C211.301 328.4 207.401 322.7 208.101 320.6Z" fill="#A68861"/>
<path fill-rule="evenodd" clip-rule="evenodd" d="M251.7 406C252.764 406.5 253.925 406.759 255.1 406.759C256.276 406.759 257.437 406.5 258.5 406C369.6 346.9 369.7 184.7 258.7 126.4C257.597 125.854 256.382 125.569 255.15 125.569C253.919 125.569 252.704 125.854 251.6 126.4C143.3 185.7 143 346.1 251.7 405.9V406ZM252.3 392.6C253.225 393.03 254.231 393.252 255.25 393.252C256.269 393.252 257.276 393.03 258.2 392.6C351.2 337.9 352.3 193.3 258.3 141.5C256.5 140.2 253.9 140.6 252.1 141.5C163.1 194.2 158.1 332.9 252.3 392.5V392.6Z" fill="#BE0027"/>
<path d="M218.7 255.7C220.433 255.7 221.933 256.033 223.2 256.7C225 257.633 226.1 259.3 226.5 261.7H224.1C223.767 260.367 223.1 259.367 222.1 258.7C221.233 258.1 220.067 257.8 218.6 257.8C216.933 257.8 215.5 258.467 214.3 259.8C213.167 261.067 212.6 262.967 212.6 265.5C212.6 267.633 213.067 269.4 214 270.8C215 272.133 216.567 272.8 218.7 272.8C220.367 272.8 221.733 272.333 222.8 271.4C223.933 270.467 224.5 268.9 224.5 266.7H218.8V264.7H226.8V274.5H225.2L224.6 272.1C223.8 273.033 223.067 273.7 222.4 274.1C221.267 274.7 219.867 275 218.2 275C216.067 275 214.2 274.3 212.6 272.9C210.867 271.1 210 268.667 210 265.6C210 262.533 210.833 260.1 212.5 258.3C214.167 256.5 216.233 255.633 218.7 255.7Z" fill="#BD0728"/>
<path d="M236.5 256.2V267.6C236.5 268.934 236.734 270.034 237.2 270.9C237.934 272.234 239.2 272.9 241 272.9C243.067 272.9 244.5 272.2 245.3 270.8C245.7 270 245.9 268.934 245.9 267.6V256.2H248.4V266.6C248.4 268.8 248.067 270.534 247.4 271.8C246.334 274 244.267 275.1 241.2 275.1C238.067 275.1 235.934 274 234.8 271.8C234.2 270.534 233.9 268.8 233.9 266.6V256.2H236.5Z" fill="#BD0728"/>
<path d="M271.1 267L268.3 259L265.3 267H271.1ZM267 256.2H269.8L276.5 274.6H273.7L271.9 269.1H264.6L262.6 274.6H260.1L267 256.2Z" fill="#BD0728"/>
<path d="M285.1 256.1H288.7L293.9 271.7L299.2 256.1H302.7V274.5H300.3V259L295.1 274.5H292.7L287.4 259V274.5H285.1V256.1Z" fill="#BD0728"/>
</g>
<defs>
<clipPath id="clip0_3921_16036">
<rect width="512" height="512" fill="white"/>
</clipPath>
</defs>
</svg>
