<svg width="512" height="512" viewBox="0 0 512 512" fill="none" xmlns="http://www.w3.org/2000/svg">
<g clip-path="url(#clip0_3921_16054)">
<path d="M0 0H160V512H0V0Z" fill="#CE1126"/>
<path d="M160 0H512V256H160V0Z" fill="#FCD116"/>
<path d="M160 256H512V512H160V256Z" fill="#009E49"/>
<path d="M79.9766 198.976L60.4813 258.976L90.4814 268.724" fill="#000001"/>
<path d="M79.9766 198.976L99.4718 258.976L69.4717 268.724" fill="#000001"/>
<path d="M139.977 242.569H76.8886V274.113" fill="#000001"/>
<path d="M139.977 242.569L88.9373 279.651L70.3962 254.131" fill="#000001"/>
<path d="M117.059 313.103L97.5633 253.103L67.5632 262.85" fill="#000001"/>
<path d="M117.059 313.103L66.0193 276.021L84.5604 250.501" fill="#000001"/>
<path d="M42.8945 313.104L93.9338 276.021L75.3927 250.502" fill="#000001"/>
<path d="M42.8945 313.104L62.3898 253.103L92.3899 262.851" fill="#000001"/>
<path d="M19.9746 242.569L71.0139 279.651L89.555 254.131" fill="#000001"/>
<path d="M19.9746 242.569H83.0626V274.113" fill="#000001"/>
</g>
<defs>
<clipPath id="clip0_3921_16054">
<rect width="512" height="512" fill="white"/>
</clipPath>
</defs>
</svg>
