<svg width="512" height="512" viewBox="0 0 512 512" fill="none" xmlns="http://www.w3.org/2000/svg">
<g clip-path="url(#clip0_3921_17016)">
<path d="M0 0H512V512H0V0Z" fill="#FF0000"/>
<path fill-rule="evenodd" clip-rule="evenodd" d="M278.1 156.4L281 100.9C281 100.567 280.867 100.4 280.6 100.4C280.334 100.4 280.134 100.533 280 100.8L265.8 154.2L265.7 154.8C265.477 155.665 265.44 156.567 265.592 157.448C265.745 158.328 266.082 159.166 266.583 159.905C267.083 160.645 267.736 161.27 268.496 161.739C269.257 162.207 270.108 162.508 270.994 162.623C271.88 162.737 272.78 162.662 273.635 162.402C274.489 162.141 275.279 161.703 275.951 161.114C276.623 160.526 277.162 159.801 277.533 158.988C277.903 158.175 278.097 157.293 278.1 156.4ZM293.4 161.1L305 106.7C305 106.433 304.9 106.233 304.7 106.1C304.434 106.1 304.234 106.2 304.1 106.4L281.6 157L281.4 157.5C281.058 158.315 280.89 159.192 280.909 160.076C280.928 160.96 281.132 161.83 281.509 162.629C281.886 163.429 282.427 164.14 283.097 164.717C283.767 165.293 284.551 165.723 285.397 165.977C286.244 166.231 287.135 166.304 288.011 166.191C288.888 166.078 289.731 165.782 290.486 165.322C291.241 164.862 291.89 164.249 292.392 163.521C292.895 162.794 293.238 161.969 293.4 161.1ZM307.8 168.1L327.8 116.3C327.867 116.181 327.883 116.04 327.845 115.908C327.808 115.777 327.72 115.666 327.6 115.6C327.481 115.534 327.34 115.517 327.209 115.555C327.078 115.592 326.967 115.681 326.9 115.8L296.8 162.2L296.5 162.7C296.033 163.452 295.73 164.295 295.61 165.172C295.491 166.05 295.557 166.943 295.806 167.793C296.055 168.643 296.48 169.431 297.054 170.105C297.627 170.78 298.337 171.326 299.136 171.708C299.935 172.09 300.806 172.299 301.691 172.321C302.576 172.344 303.457 172.18 304.274 171.839C305.092 171.499 305.828 170.99 306.436 170.346C307.044 169.701 307.508 168.936 307.8 168.1ZM320.9 177.3L348.8 129.3C348.88 129.194 348.914 129.06 348.895 128.929C348.877 128.798 348.806 128.679 348.7 128.6C348.594 128.52 348.461 128.486 348.33 128.505C348.198 128.524 348.08 128.594 348 128.7L311 169.7L310.6 170.2C310.011 170.868 309.57 171.653 309.306 172.504C309.042 173.355 308.962 174.252 309.071 175.136C309.179 176.02 309.474 176.871 309.935 177.633C310.397 178.395 311.015 179.05 311.748 179.556C312.482 180.061 313.314 180.406 314.19 180.566C315.066 180.726 315.967 180.699 316.832 180.486C317.696 180.273 318.506 179.878 319.208 179.329C319.909 178.78 320.486 178.088 320.9 177.3ZM332.4 188.4L367.4 145.3C367.6 145.1 367.6 144.867 367.4 144.6H366.7L323.7 179.4L323.3 179.8C322.623 180.372 322.074 181.081 321.689 181.88C321.305 182.679 321.093 183.551 321.068 184.437C321.044 185.324 321.206 186.205 321.546 187.025C321.885 187.844 322.394 188.582 323.039 189.191C323.683 189.8 324.449 190.267 325.286 190.559C326.123 190.852 327.013 190.965 327.897 190.89C328.78 190.815 329.638 190.555 330.414 190.126C331.191 189.697 331.867 189.109 332.4 188.4ZM342.1 201.2L383.4 164C383.534 163.867 383.534 163.667 383.4 163.4L382.8 163.2L334.8 191L334.4 191.3C333.659 191.77 333.023 192.39 332.535 193.121C332.047 193.851 331.718 194.675 331.567 195.54C331.416 196.405 331.448 197.293 331.661 198.145C331.873 198.997 332.261 199.795 332.801 200.489C333.34 201.182 334.018 201.755 334.792 202.17C335.565 202.586 336.417 202.835 337.293 202.902C338.169 202.969 339.049 202.853 339.877 202.559C340.705 202.266 341.462 201.803 342.1 201.2ZM349.6 215.3L396.2 185.1C396.32 185.034 396.408 184.923 396.445 184.791C396.483 184.66 396.467 184.519 396.4 184.4C396.334 184.281 396.223 184.192 396.092 184.155C395.961 184.117 395.82 184.134 395.7 184.2L344.1 204.1L343.6 204.3C342.785 204.639 342.049 205.146 341.442 205.787C340.835 206.429 340.37 207.191 340.076 208.024C339.783 208.857 339.668 209.742 339.738 210.623C339.809 211.503 340.064 212.359 340.487 213.134C340.91 213.91 341.492 214.588 342.193 215.124C342.895 215.66 343.702 216.043 344.562 216.247C345.421 216.451 346.314 216.472 347.182 216.309C348.05 216.146 348.874 215.802 349.6 215.3ZM354.8 230.5L405.6 207.9C405.684 207.837 405.746 207.749 405.778 207.649C405.809 207.549 405.808 207.441 405.775 207.342C405.742 207.242 405.678 207.156 405.593 207.094C405.508 207.033 405.405 207 405.3 207L351 218.5L350.5 218.7C349.639 218.904 348.831 219.288 348.127 219.825C347.424 220.363 346.842 221.043 346.42 221.821C345.997 222.598 345.743 223.456 345.674 224.339C345.605 225.221 345.722 226.108 346.019 226.942C346.316 227.776 346.785 228.538 347.396 229.179C348.007 229.819 348.747 230.324 349.566 230.659C350.385 230.995 351.265 231.154 352.15 231.127C353.035 231.099 353.904 230.886 354.7 230.5M357.5 246.3L411.2 232C411.467 232 411.567 231.8 411.5 231.4C411.434 231.2 411.267 231.067 411 231L355.7 233.9H355.2C353.556 234.205 352.1 235.151 351.153 236.529C350.206 237.907 349.845 239.606 350.15 241.25C350.455 242.894 351.401 244.35 352.78 245.297C354.158 246.244 355.856 246.605 357.5 246.3ZM357.7 262.3L413 256.5C413.133 256.5 413.26 256.447 413.354 256.353C413.448 256.26 413.5 256.133 413.5 256C413.5 255.867 413.448 255.74 413.354 255.646C413.26 255.553 413.133 255.5 413 255.5L358 249.8H357.4C356.512 249.711 355.615 249.812 354.768 250.096C353.921 250.38 353.145 250.841 352.49 251.448C351.835 252.055 351.317 252.795 350.969 253.617C350.622 254.44 350.453 255.327 350.475 256.22C350.496 257.112 350.707 257.99 351.094 258.795C351.48 259.6 352.033 260.314 352.717 260.889C353.4 261.464 354.198 261.887 355.057 262.13C355.916 262.374 356.817 262.431 357.7 262.3ZM355.5 278.1L411 281C411.133 281.013 411.265 280.973 411.369 280.889C411.472 280.804 411.537 280.683 411.55 280.55C411.564 280.417 411.524 280.285 411.439 280.182C411.355 280.079 411.233 280.013 411.1 280L357.7 265.8L357.1 265.7C356.235 265.477 355.333 265.44 354.453 265.592C353.573 265.744 352.735 266.082 351.995 266.582C351.255 267.083 350.63 267.735 350.162 268.496C349.693 269.256 349.392 270.108 349.278 270.994C349.163 271.88 349.239 272.78 349.499 273.634C349.759 274.489 350.198 275.278 350.786 275.95C351.375 276.622 352.099 277.162 352.912 277.532C353.725 277.903 354.607 278.096 355.5 278.1ZM350.8 293.4L405.2 305C405.467 305 405.667 304.9 405.8 304.7C405.8 304.367 405.7 304.167 405.5 304.1L355 281.6L354.5 281.4C353.686 281.057 352.808 280.89 351.924 280.909C351.04 280.927 350.171 281.132 349.371 281.509C348.572 281.886 347.86 282.427 347.284 283.097C346.707 283.766 346.278 284.55 346.024 285.397C345.77 286.243 345.697 287.134 345.809 288.011C345.922 288.887 346.218 289.731 346.678 290.485C347.138 291.24 347.752 291.89 348.479 292.392C349.207 292.894 350.032 293.238 350.9 293.4M343.9 307.8L395.7 327.8C395.967 327.867 396.2 327.8 396.4 327.6C396.4 327.333 396.334 327.1 396.2 326.9L349.8 296.8L349.3 296.5C348.548 296.033 347.706 295.729 346.828 295.61C345.951 295.49 345.058 295.557 344.208 295.805C343.358 296.054 342.57 296.479 341.895 297.053C341.221 297.627 340.674 298.336 340.293 299.136C339.911 299.935 339.702 300.805 339.679 301.691C339.656 302.576 339.821 303.456 340.161 304.274C340.501 305.091 341.01 305.828 341.655 306.435C342.299 307.043 343.064 307.508 343.9 307.8ZM334.7 320.9L382.7 348.8C382.806 348.879 382.94 348.914 383.071 348.895C383.202 348.876 383.321 348.806 383.4 348.7C383.48 348.594 383.514 348.46 383.495 348.329C383.477 348.198 383.406 348.079 383.3 348L342.3 311L341.8 310.6C341.133 310.01 340.347 309.569 339.496 309.306C338.646 309.042 337.748 308.962 336.864 309.07C335.98 309.179 335.129 309.473 334.367 309.935C333.605 310.396 332.95 311.014 332.444 311.748C331.939 312.481 331.595 313.313 331.434 314.19C331.274 315.066 331.301 315.966 331.515 316.831C331.728 317.696 332.122 318.506 332.671 319.207C333.22 319.909 333.912 320.485 334.7 320.9ZM323.6 332.4L366.7 367.4C366.797 367.472 366.916 367.507 367.036 367.499C367.156 367.49 367.269 367.439 367.354 367.353C367.439 367.268 367.491 367.155 367.499 367.035C367.508 366.915 367.473 366.796 367.4 366.7L332.6 323.7L332.2 323.3C331.628 322.622 330.919 322.073 330.12 321.689C329.321 321.304 328.45 321.093 327.563 321.068C326.677 321.043 325.795 321.206 324.976 321.545C324.156 321.885 323.418 322.394 322.809 323.038C322.2 323.683 321.734 324.449 321.441 325.286C321.148 326.123 321.035 327.012 321.11 327.896C321.185 328.78 321.445 329.638 321.874 330.414C322.304 331.19 322.892 331.867 323.6 332.4ZM310.8 342.1L348 383.4C348.04 383.452 348.089 383.497 348.146 383.53C348.202 383.564 348.265 383.586 348.33 383.595C348.395 383.604 348.461 383.601 348.524 383.584C348.588 383.568 348.648 383.539 348.7 383.5C348.753 383.461 348.797 383.411 348.831 383.355C348.864 383.298 348.886 383.236 348.895 383.171C348.905 383.106 348.901 383.039 348.885 382.976C348.868 382.912 348.84 382.852 348.8 382.8L321 334.8L320.7 334.4C320.23 333.658 319.61 333.023 318.88 332.535C318.15 332.047 317.325 331.717 316.46 331.566C315.595 331.416 314.708 331.448 313.855 331.66C313.003 331.873 312.205 332.261 311.512 332.8C310.818 333.339 310.246 334.018 309.83 334.791C309.414 335.565 309.165 336.417 309.098 337.293C309.031 338.168 309.148 339.048 309.441 339.876C309.734 340.704 310.197 341.462 310.8 342.1ZM296.7 349.6L326.9 396.2C327.1 396.4 327.334 396.467 327.6 396.4C327.8 396.2 327.867 395.967 327.8 395.7L307.9 344.1L307.7 343.6C307.361 342.784 306.855 342.049 306.213 341.442C305.572 340.835 304.81 340.369 303.977 340.076C303.143 339.782 302.258 339.667 301.378 339.738C300.497 339.809 299.641 340.064 298.866 340.487C298.091 340.91 297.413 341.491 296.877 342.193C296.34 342.895 295.958 343.702 295.753 344.561C295.549 345.42 295.528 346.313 295.691 347.181C295.854 348.049 296.198 348.873 296.7 349.6ZM281.5 354.8L304.1 405.6C304.1 405.8 304.3 405.9 304.7 405.9C304.967 405.767 305.067 405.567 305 405.3L293.5 351L293.3 350.5C293.096 349.639 292.713 348.83 292.175 348.127C291.637 347.424 290.957 346.842 290.18 346.419C289.402 345.996 288.544 345.742 287.661 345.673C286.779 345.604 285.892 345.722 285.058 346.019C284.224 346.316 283.462 346.785 282.822 347.396C282.181 348.007 281.677 348.746 281.341 349.565C281.005 350.384 280.846 351.265 280.874 352.149C280.901 353.034 281.115 353.903 281.5 354.7M265.7 357.5L280 411.2C280 411.467 280.2 411.567 280.6 411.5C280.867 411.433 281 411.267 281 411L278.1 355.7V355.2C277.949 354.386 277.639 353.609 277.188 352.915C276.737 352.22 276.154 351.622 275.471 351.153C274.789 350.684 274.021 350.354 273.211 350.182C272.401 350.01 271.565 349.999 270.75 350.15C269.936 350.301 269.16 350.611 268.465 351.062C267.771 351.513 267.172 352.097 266.703 352.779C266.234 353.462 265.904 354.23 265.732 355.04C265.56 355.85 265.549 356.686 265.7 357.5ZM249.7 357.7L255.5 413C255.5 413.133 255.553 413.26 255.647 413.353C255.741 413.447 255.868 413.5 256 413.5C256.133 413.5 256.26 413.447 256.354 413.353C256.448 413.26 256.5 413.133 256.5 413L262.2 358V357.4C262.289 356.511 262.188 355.614 261.904 354.767C261.62 353.921 261.159 353.144 260.552 352.49C259.945 351.835 259.206 351.316 258.383 350.969C257.56 350.621 256.673 350.453 255.781 350.474C254.888 350.496 254.01 350.707 253.205 351.093C252.4 351.48 251.686 352.033 251.111 352.716C250.536 353.399 250.113 354.197 249.87 355.056C249.627 355.916 249.569 356.817 249.7 357.7ZM233.9 355.5L231 411C230.987 411.133 231.027 411.265 231.111 411.368C231.196 411.471 231.318 411.537 231.45 411.55C231.583 411.563 231.715 411.523 231.819 411.439C231.922 411.354 231.987 411.233 232 411.1L246.2 357.7L246.3 357.1C246.524 356.235 246.56 355.332 246.408 354.452C246.256 353.572 245.919 352.734 245.418 351.994C244.917 351.255 244.265 350.63 243.505 350.161C242.744 349.693 241.892 349.391 241.007 349.277C240.121 349.163 239.221 349.238 238.366 349.498C237.511 349.758 236.722 350.197 236.05 350.786C235.378 351.374 234.839 352.099 234.468 352.912C234.098 353.724 233.904 354.607 233.9 355.5ZM218.6 350.8L207 405.3C206.961 405.432 206.975 405.576 207.041 405.697C207.106 405.819 207.218 405.91 207.35 405.95C207.483 405.99 207.626 405.975 207.748 405.91C207.87 405.844 207.961 405.733 208 405.6L230.4 355L230.6 354.5C230.943 353.685 231.111 352.807 231.092 351.924C231.073 351.04 230.868 350.17 230.491 349.371C230.115 348.571 229.574 347.86 228.904 347.283C228.234 346.706 227.45 346.277 226.603 346.023C225.757 345.769 224.866 345.696 223.989 345.809C223.113 345.922 222.27 346.218 221.515 346.678C220.76 347.138 220.11 347.751 219.608 348.479C219.106 349.206 218.763 350.031 218.6 350.9M204.2 343.9L184.2 395.7C184.134 395.967 184.2 396.2 184.4 396.4C184.667 396.4 184.9 396.333 185.1 396.2L215.2 349.8L215.5 349.3C215.968 348.548 216.271 347.705 216.391 346.828C216.51 345.95 216.444 345.057 216.195 344.207C215.946 343.357 215.521 342.569 214.947 341.895C214.373 341.22 213.664 340.674 212.865 340.292C212.066 339.91 211.195 339.701 210.31 339.678C209.424 339.656 208.544 339.82 207.727 340.16C206.909 340.501 206.172 341.01 205.565 341.654C204.957 342.299 204.492 343.064 204.2 343.9ZM191.1 334.7L163.2 382.7C163.121 382.806 163.087 382.939 163.105 383.071C163.124 383.202 163.194 383.32 163.3 383.4C163.406 383.479 163.54 383.514 163.671 383.495C163.802 383.476 163.921 383.406 164 383.3L201 342.3L201.4 341.8C201.99 341.132 202.431 340.347 202.695 339.496C202.958 338.645 203.039 337.748 202.93 336.864C202.822 335.98 202.527 335.129 202.065 334.367C201.604 333.605 200.986 332.95 200.253 332.444C199.519 331.938 198.687 331.594 197.811 331.434C196.934 331.274 196.034 331.301 195.169 331.514C194.304 331.727 193.494 332.121 192.793 332.671C192.092 333.22 191.515 333.911 191.1 334.7ZM179.6 323.6L144.6 366.7C144.4 366.9 144.4 367.133 144.6 367.4C144.8 367.667 145.034 367.667 145.3 367.4L188.3 332.6L188.7 332.2C189.378 331.628 189.927 330.919 190.312 330.12C190.696 329.321 190.908 328.449 190.932 327.563C190.957 326.676 190.794 325.795 190.455 324.975C190.115 324.156 189.607 323.418 188.962 322.809C188.318 322.199 187.552 321.733 186.714 321.44C185.877 321.148 184.988 321.035 184.104 321.11C183.22 321.184 182.363 321.445 181.586 321.874C180.81 322.303 180.134 322.891 179.6 323.6ZM169.9 310.8L128.6 348C128.494 348.079 128.424 348.198 128.405 348.329C128.387 348.46 128.421 348.594 128.5 348.7C128.58 348.806 128.698 348.876 128.83 348.895C128.961 348.914 129.094 348.879 129.2 348.8L177.2 321L177.6 320.7C178.342 320.23 178.977 319.61 179.465 318.879C179.953 318.149 180.283 317.325 180.434 316.46C180.585 315.594 180.553 314.707 180.34 313.855C180.128 313.003 179.739 312.204 179.2 311.511C178.661 310.818 177.983 310.245 177.209 309.829C176.435 309.414 175.583 309.164 174.708 309.097C173.832 309.03 172.952 309.147 172.124 309.44C171.296 309.734 170.539 310.197 169.9 310.8ZM162.4 296.7L115.8 326.9C115.681 326.966 115.593 327.077 115.555 327.208C115.518 327.34 115.534 327.481 115.6 327.6C115.667 327.719 115.778 327.807 115.909 327.845C116.04 327.882 116.181 327.866 116.3 327.8L167.9 307.9L168.4 307.7C169.216 307.361 169.951 306.854 170.558 306.213C171.166 305.571 171.631 304.809 171.925 303.976C172.218 303.143 172.333 302.258 172.262 301.377C172.192 300.497 171.936 299.641 171.513 298.866C171.091 298.09 170.509 297.412 169.807 296.876C169.105 296.34 168.299 295.957 167.439 295.753C166.58 295.549 165.687 295.528 164.819 295.691C163.951 295.854 163.127 296.198 162.4 296.7ZM157.2 281.5L106.4 304.1C106.2 304.1 106.1 304.3 106.1 304.7C106.234 304.967 106.434 305.067 106.7 305L160.9 293.5L161.4 293.3C162.262 293.096 163.07 292.712 163.773 292.174C164.476 291.637 165.058 290.957 165.481 290.179C165.904 289.401 166.158 288.543 166.227 287.661C166.296 286.779 166.178 285.891 165.882 285.057C165.585 284.224 165.115 283.462 164.504 282.821C163.893 282.181 163.154 281.676 162.335 281.341C161.516 281.005 160.636 280.846 159.751 280.873C158.866 280.901 157.997 281.114 157.2 281.5ZM154.4 265.7L100.7 280C100.568 280.026 100.451 280.105 100.376 280.217C100.301 280.33 100.274 280.467 100.3 280.6C100.327 280.733 100.405 280.849 100.518 280.924C100.63 280.999 100.768 281.026 100.9 281L156.2 278.1H156.7C157.515 277.949 158.291 277.639 158.985 277.188C159.68 276.737 160.279 276.153 160.748 275.471C161.217 274.788 161.546 274.02 161.719 273.21C161.891 272.4 161.901 271.564 161.75 270.75C161.599 269.936 161.289 269.159 160.838 268.465C160.387 267.77 159.804 267.172 159.121 266.703C158.439 266.234 157.671 265.904 156.861 265.732C156.051 265.56 155.215 265.549 154.4 265.7ZM154.2 249.7L98.9004 255.5C98.7678 255.5 98.6406 255.553 98.5468 255.646C98.4531 255.74 98.4004 255.867 98.4004 256C98.4004 256.133 98.4531 256.26 98.5468 256.353C98.6406 256.447 98.7678 256.5 98.9004 256.5L153.9 262.2H154.5C155.389 262.289 156.286 262.188 157.133 261.904C157.979 261.62 158.756 261.159 159.411 260.552C160.066 259.945 160.584 259.205 160.932 258.383C161.279 257.56 161.448 256.673 161.426 255.78C161.405 254.887 161.194 254.009 160.807 253.204C160.421 252.399 159.867 251.686 159.184 251.111C158.501 250.536 157.703 250.113 156.844 249.869C155.985 249.626 155.084 249.568 154.2 249.7ZM156.4 233.9L100.9 231C100.768 230.987 100.635 231.027 100.532 231.111C100.429 231.195 100.364 231.317 100.35 231.45C100.337 231.583 100.377 231.715 100.461 231.818C100.546 231.921 100.668 231.987 100.8 232L154.2 246.2L154.8 246.3C155.665 246.523 156.568 246.56 157.448 246.408C158.328 246.256 159.166 245.918 159.906 245.417C160.646 244.917 161.27 244.265 161.739 243.504C162.207 242.743 162.509 241.892 162.623 241.006C162.738 240.12 162.662 239.22 162.402 238.365C162.142 237.511 161.703 236.721 161.115 236.049C160.526 235.377 159.801 234.838 158.989 234.468C158.176 234.097 157.294 233.904 156.4 233.9ZM161.1 218.6L106.7 207C106.434 207 106.234 207.1 106.1 207.3C106.1 207.567 106.2 207.767 106.4 207.9L157 230.4L157.5 230.6C158.315 230.943 159.193 231.11 160.077 231.091C160.96 231.072 161.83 230.868 162.63 230.491C163.429 230.114 164.14 229.573 164.717 228.903C165.294 228.233 165.723 227.45 165.977 226.603C166.231 225.756 166.304 224.866 166.191 223.989C166.079 223.112 165.783 222.269 165.323 221.514C164.863 220.76 164.249 220.11 163.522 219.608C162.794 219.106 161.969 218.762 161.1 218.6ZM168.1 204.2L116.3 184.2C116.181 184.134 116.04 184.117 115.909 184.155C115.778 184.192 115.667 184.281 115.6 184.4C115.534 184.519 115.518 184.66 115.555 184.791C115.593 184.923 115.681 185.034 115.8 185.1L162.2 215.2L162.7 215.5C163.453 215.967 164.295 216.27 165.173 216.39C166.05 216.51 166.943 216.443 167.793 216.194C168.643 215.946 169.431 215.52 170.106 214.947C170.78 214.373 171.326 213.663 171.708 212.864C172.09 212.065 172.299 211.195 172.322 210.309C172.344 209.424 172.18 208.544 171.84 207.726C171.499 206.909 170.99 206.172 170.346 205.564C169.702 204.957 168.937 204.492 168.1 204.2ZM177.3 191.1L129.3 163.2L128.6 163.4C128.467 163.667 128.467 163.867 128.6 164L169.8 201L170.2 201.4C170.868 201.989 171.654 202.43 172.504 202.694C173.355 202.958 174.252 203.038 175.136 202.93C176.021 202.821 176.872 202.526 177.634 202.065C178.395 201.603 179.051 200.985 179.556 200.252C180.062 199.519 180.406 198.686 180.566 197.81C180.727 196.934 180.699 196.034 180.486 195.169C180.273 194.304 179.879 193.494 179.33 192.793C178.781 192.091 178.089 191.514 177.3 191.1ZM188.4 179.6L145.3 144.6C145.204 144.528 145.085 144.493 144.965 144.501C144.845 144.51 144.732 144.561 144.647 144.646C144.562 144.731 144.51 144.844 144.502 144.964C144.493 145.085 144.528 145.204 144.6 145.3L179.4 188.3L179.8 188.7C180.373 189.377 181.082 189.926 181.881 190.311C182.68 190.696 183.551 190.907 184.438 190.932C185.324 190.957 186.206 190.794 187.025 190.454C187.844 190.115 188.583 189.606 189.192 188.962C189.801 188.317 190.267 187.551 190.56 186.714C190.853 185.877 190.965 184.987 190.891 184.104C190.816 183.22 190.555 182.362 190.126 181.586C189.697 180.81 189.109 180.133 188.4 179.6ZM201.2 169.9L164 128.6H163.4C163.134 128.733 163.067 128.933 163.2 129.2L191 177.2L191.3 177.6C191.771 178.342 192.391 178.977 193.121 179.465C193.851 179.953 194.675 180.283 195.541 180.433C196.406 180.584 197.293 180.552 198.145 180.34C198.998 180.127 199.796 179.739 200.489 179.2C201.182 178.661 201.755 177.982 202.171 177.209C202.587 176.435 202.836 175.583 202.903 174.707C202.97 173.832 202.853 172.951 202.56 172.124C202.267 171.296 201.804 170.538 201.2 169.9ZM215.3 162.4L185.1 115.8C185.034 115.681 184.923 115.592 184.792 115.555C184.661 115.517 184.52 115.534 184.4 115.6C184.281 115.666 184.193 115.777 184.155 115.908C184.118 116.04 184.134 116.181 184.2 116.3L204.1 167.9L204.3 168.4C204.639 169.216 205.146 169.951 205.788 170.558C206.429 171.165 207.191 171.631 208.024 171.924C208.857 172.218 209.743 172.333 210.623 172.262C211.504 172.191 212.359 171.936 213.135 171.513C213.91 171.09 214.588 170.509 215.124 169.807C215.66 169.105 216.043 168.298 216.247 167.439C216.452 166.579 216.473 165.687 216.31 164.819C216.146 163.951 215.803 163.126 215.3 162.4ZM230.5 157.2L207.9 106.4C207.837 106.316 207.75 106.254 207.649 106.223C207.549 106.191 207.442 106.192 207.342 106.226C207.243 106.259 207.156 106.322 207.095 106.408C207.033 106.493 207 106.595 207 106.7L218.5 160.9L218.7 161.4C218.905 162.261 219.288 163.07 219.826 163.773C220.364 164.476 221.043 165.058 221.821 165.481C222.599 165.903 223.457 166.158 224.339 166.227C225.222 166.296 226.109 166.178 226.943 165.881C227.777 165.584 228.539 165.115 229.179 164.504C229.82 163.893 230.324 163.154 230.66 162.335C230.995 161.516 231.155 160.635 231.127 159.75C231.1 158.866 230.886 157.997 230.5 157.2ZM246.3 154.4L232 100.7C232 100.433 231.8 100.333 231.4 100.4C231.2 100.467 231.067 100.633 231 100.9L233.9 156.2V156.7C234.205 158.344 235.151 159.8 236.53 160.747C237.212 161.216 237.98 161.546 238.79 161.718C239.6 161.89 240.436 161.901 241.25 161.75C242.065 161.599 242.841 161.289 243.535 160.838C244.23 160.387 244.829 159.803 245.298 159.121C245.767 158.438 246.096 157.67 246.269 156.86C246.441 156.05 246.451 155.214 246.3 154.4ZM262.3 154.2L256.5 98.8999C256.5 98.7673 256.448 98.6401 256.354 98.5463C256.26 98.4526 256.133 98.3999 256 98.3999C255.868 98.3999 255.741 98.4526 255.647 98.5463C255.553 98.6401 255.5 98.7673 255.5 98.8999L249.8 153.9V154.5C249.711 155.388 249.812 156.286 250.097 157.132C250.381 157.979 250.842 158.755 251.449 159.41C252.056 160.065 252.795 160.584 253.618 160.931C254.44 161.278 255.327 161.447 256.22 161.426C257.113 161.404 257.991 161.193 258.796 160.807C259.601 160.42 260.315 159.867 260.89 159.184C261.464 158.5 261.888 157.703 262.131 156.844C262.374 155.984 262.432 155.083 262.3 154.2ZM256 160.8C268.502 160.8 280.882 163.262 292.432 168.047C303.982 172.831 314.477 179.843 323.317 188.683C332.157 197.523 339.169 208.018 343.954 219.568C348.738 231.119 351.2 243.498 351.2 256C351.2 268.502 348.738 280.881 343.954 292.431C339.169 303.982 332.157 314.476 323.317 323.316C314.477 332.157 303.982 339.169 292.432 343.953C280.882 348.737 268.502 351.2 256 351.2C230.752 351.2 206.537 341.17 188.684 323.316C170.83 305.463 160.8 281.249 160.8 256C160.8 230.751 170.83 206.537 188.684 188.683C206.537 170.83 230.752 160.8 256 160.8ZM256 172.2C267.005 172.2 277.902 174.367 288.069 178.579C298.236 182.79 307.474 188.963 315.256 196.744C323.038 204.526 329.21 213.764 333.422 223.931C337.633 234.098 339.8 244.995 339.8 256C339.8 267.005 337.633 277.902 333.422 288.069C329.21 298.236 323.038 307.474 315.256 315.255C307.474 323.037 298.236 329.21 288.069 333.421C277.902 337.632 267.005 339.8 256 339.8C233.775 339.8 212.46 330.971 196.745 315.255C181.029 299.54 172.2 278.225 172.2 256C172.2 233.775 181.029 212.46 196.745 196.744C212.46 181.029 233.775 172.2 256 172.2ZM186 281.2C194.6 263.2 206.5 247.4 220.1 234.1C222.3 235.433 224.434 236.9 226.5 238.5C211.169 253.167 198.81 270.653 190.1 290C188.567 287.2 187.234 284.233 186.1 281.1M261.9 237.9L267.7 242.9L273.7 238.2L268 233.2C266 234.667 264 236.233 262 237.9M249.7 228.6L256 233.2C258 231.6 260.1 230.067 262.3 228.6L256 224L249.7 228.6ZM250.3 248.1C252.3 249.767 254.2 251.567 256 253.5L261.7 248.1L256 242.9C254 244.5 252.1 246.233 250.3 248.1ZM238.3 238.1L244.3 243C246.234 241.2 248.167 239.533 250.1 238C248.1 236.267 246.067 234.667 244 233.2L238.3 238.1ZM275.8 220.1C273.8 218.433 271.7 216.9 269.5 215.5C267.1 216.833 264.7 218.267 262.3 219.8L268.8 224.3C271.067 222.833 273.4 221.433 275.8 220.1ZM286.9 229.3L281.2 224.3L274.5 228.6L280.3 233.5L286.9 229.3ZM248.6 211.5L256.1 207L263.6 211.5L256.1 215.9L248.6 211.5ZM236.4 220.1C238.4 218.433 240.5 216.9 242.7 215.5C245.1 216.833 247.5 218.267 249.9 219.8L243.4 224.3L236.4 220.1ZM225.3 229.3L231 224.3L237.7 228.6L231.9 233.5L225.3 229.3ZM190.3 218.3C198.1 221.433 205.767 225.233 213.3 229.7C201.8 240.7 191.3 254 182.8 269.6C179.153 252.14 181.848 233.952 190.4 218.3M196.7 208.6C205.9 211.6 215 215.533 224 220.4L218.3 225.2C210.193 220.728 201.77 216.851 193.1 213.6L196.7 208.6ZM204.7 199.7C215.1 202.433 225.467 206.433 235.8 211.7L229.4 216.3C220.038 211.526 210.306 207.513 200.3 204.3L204.7 199.7ZM216.4 190.7L217 191L217.9 191.2C228.882 194.093 239.513 198.184 249.6 203.4L241.6 208C231.246 202.942 220.472 198.793 209.4 195.6C211.6 193.867 213.934 192.233 216.4 190.7ZM289.4 187.1L288.7 187.4C277.451 190.63 266.509 194.846 256 200C245.711 194.953 235.004 190.804 224 187.6L223.4 187.4C223.134 187.4 222.867 187.3 222.6 187.1C232.978 181.938 244.41 179.252 256 179.252C267.591 179.252 279.023 181.938 289.4 187.1ZM302.7 195.7L302 195.9C291.334 198.9 280.834 202.933 270.5 208L262.5 203.4C273.076 197.927 284.251 193.698 295.8 190.8C298.225 192.299 300.562 193.935 302.8 195.7M311.8 204.3C301.934 207.367 292.267 211.367 282.8 216.3L276.3 211.7C286.7 206.433 297.067 202.433 307.4 199.7L311.8 204.3ZM319 213.6C310.4 216.733 302 220.6 293.8 225.2L288.1 220.4C297.167 215.4 306.267 211.467 315.4 208.6L319 213.6ZM329.3 269.6C320.8 254 310.3 240.8 298.7 229.6C306.3 225.2 313.967 221.433 321.7 218.3C330.253 233.952 332.948 252.14 329.3 269.6ZM322 290C313.291 270.653 300.932 253.167 285.6 238.5C287.667 236.967 289.8 235.5 292 234.1C306.004 247.65 317.513 263.559 326 281.1C324.867 284.167 323.534 287.167 322 290.1M310.3 306.1C301.2 282.5 288.3 263.5 273.3 248.2L279.3 243.2C294.9 258.6 308 277.2 316.6 298.5C314.6 301.167 312.5 303.667 310.3 306M296 317.6L295 314.9C287.543 294.341 276.166 275.424 261.5 259.2L267.2 253.6C283.389 270.283 295.773 290.275 303.5 312.2C301.1 314.2 298.6 316 296 317.6ZM223.6 321.9L224.6 318.9C231.381 299.085 242.057 280.826 256 265.2C269.936 280.849 280.642 299.099 287.5 318.9L288.5 321.9C278.36 326.776 267.252 329.307 256 329.307C244.749 329.307 233.641 326.776 223.5 321.9M208.5 312.2C216.228 290.275 228.612 270.283 244.8 253.6C246.8 255.4 248.7 257.267 250.5 259.2C235.799 275.416 224.388 294.333 216.9 314.9L215.9 317.6C213.367 316 210.9 314.2 208.5 312.2ZM195.5 298.5C204.005 277.706 216.741 258.908 232.9 243.3C234.9 244.833 236.9 246.5 238.9 248.3C222.641 264.712 210.032 284.375 201.9 306C199.605 303.643 197.467 301.138 195.5 298.5Z" fill="#FFFF00"/>
</g>
<defs>
<clipPath id="clip0_3921_17016">
<rect width="512" height="512" fill="white"/>
</clipPath>
</defs>
</svg>
