<svg width="512" height="512" viewBox="0 0 512 512" fill="none" xmlns="http://www.w3.org/2000/svg">
<g clip-path="url(#clip0_3921_17019)">
<path d="M0 0H512V512H0V0Z" fill="#032EA1"/>
<path d="M0 128H512V384H0V128Z" fill="#E00025"/>
<path d="M183.922 241.38H329.586V297.444H183.922V241.38Z" fill="white" stroke="black" stroke-width="1.28" stroke-linejoin="bevel"/>
<path d="M322.162 272.228H326.642V293.348H322.162V272.228ZM183.922 261.86H329.586V268.26H183.922V261.86ZM183.922 252.9H329.586V258.788H183.922V252.9Z" fill="white" stroke="black" stroke-width="1.28" stroke-linejoin="bevel"/>
<path d="M183.922 244.196H329.586V249.7H183.922V244.196Z" fill="white" stroke="black" stroke-width="1.152" stroke-linejoin="bevel"/>
<path d="M222.321 272.228H226.929V293.348H222.321V272.228ZM285.041 272.228H289.649V293.348H285.041V272.228ZM185.201 272.228H189.681V293.348H185.201V272.228ZM194.161 272.228H198.641V293.348H194.161V272.228ZM203.761 272.228H208.241V293.348H203.761V272.228ZM213.361 272.228H217.841V293.348H213.361V272.228ZM293.745 272.228H298.353V293.348H293.745V272.228ZM303.345 272.228H307.953V293.348H303.345V272.228ZM312.945 272.228H317.553V293.348H312.945V272.228Z" fill="white" stroke="black" stroke-width="1.28" stroke-linejoin="bevel"/>
<path d="M126.961 300.26C128.299 299.554 129.485 298.592 130.452 297.428C131.418 296.264 132.146 294.921 132.593 293.476H379.761C380.208 294.921 380.936 296.264 381.902 297.428C382.869 298.592 384.055 299.554 385.393 300.26H126.961Z" fill="white" stroke="black" stroke-width="1.28"/>
<path d="M253.04 156.004C253.04 156.004 252.912 150.756 255.984 150.628C258.928 150.628 258.8 156.004 258.8 156.004H253.04ZM237.04 225.764V218.724C237.04 215.14 233.456 214.884 233.456 212.324C233.456 212.324 232.944 208.484 233.968 206.692C235.376 211.812 237.808 210.916 237.808 208.74C237.808 206.948 236.528 205.156 233.584 200.676C232.56 199.268 233.2 194.788 234.48 193.124C234.822 196.964 235.76 198.884 237.296 198.884C238.406 198.969 239.003 198.116 239.088 196.324C239.088 193.764 237.424 192.484 236.528 190.18C236.087 189.033 235.985 187.784 236.235 186.581C236.485 185.378 237.075 184.272 237.936 183.396C238.576 187.236 238.448 188.772 240.112 188.772C243.568 187.62 240.112 182.628 239.344 181.348C238.576 179.94 240.624 176.996 240.624 176.996C241.648 180.452 241.904 180.708 243.184 180.324C244.72 179.94 244.464 177.764 242.672 175.972C241.563 174.607 241.648 173.199 242.928 171.748C244.208 174.18 245.744 174.052 245.872 172.516L244.848 166.884H267.12L265.968 172.388C265.712 173.924 267.76 174.308 269.04 171.748C270.32 173.028 270.448 174.82 269.296 175.972C267.504 177.764 267.248 179.94 268.784 180.324C270.064 180.708 270.32 180.324 271.344 176.996C271.344 176.996 273.264 178.916 272.624 181.348C271.856 182.628 268.4 187.748 271.856 188.772C273.52 188.772 273.392 187.236 274.032 183.396C274.872 184.286 275.439 185.398 275.666 186.601C275.892 187.803 275.77 189.045 275.312 190.18C274.544 192.484 272.752 193.764 272.752 196.324C272.923 198.116 273.563 198.969 274.672 198.884C276.208 198.884 277.147 196.964 277.488 193.124C278.768 194.788 279.408 199.268 278.384 200.804C275.44 205.156 274.032 206.948 274.032 208.74C274.032 210.916 276.592 211.812 277.872 206.692C279.024 208.484 278.512 212.324 278.512 212.324C278.512 214.884 275.056 215.14 274.928 218.724V225.764H237.04ZM246.256 166.884L245.744 162.916H266.096L265.584 166.884H246.256ZM247.536 162.788L247.28 159.588H264.56L264.176 162.788H247.536ZM250.48 159.46L250.096 156.132H261.616L261.488 159.46H250.48ZM292.72 300.26C290.16 299.364 286.32 296.548 286.32 293.86V262.756L289.648 258.404H222.32L225.52 262.756V293.86C225.52 296.548 222.96 299.364 220.4 300.26H292.72Z" fill="white" stroke="black" stroke-width="1.28"/>
<path d="M234.096 272.228H238.704V293.348H234.096V272.228ZM273.008 272.228H277.616V293.348H273.008V272.228Z" fill="white" stroke="black" stroke-width="1.28" stroke-linejoin="bevel"/>
<path d="M221.04 223.076V258.404H290.16V223.076C289.35 223.349 288.622 223.819 288.041 224.445C287.459 225.071 287.044 225.833 286.832 226.66V241.764H224.496V226.66C224.496 226.66 223.728 224.1 220.912 223.076H221.04Z" fill="white" stroke="black" stroke-width="1.28"/>
<path d="M280.688 300.26C278.384 299.364 273.52 296.548 273.52 293.86V259.044C274.032 257.124 276.592 255.972 278.256 254.692H232.56C234.736 255.972 237.168 256.868 238.064 259.044V293.86C238.064 296.548 234.224 299.364 231.92 300.26H280.688Z" fill="white" stroke="black" stroke-width="1.28"/>
<path d="M286.832 255.076V229.988H280.56V227.556H230.896V230.116H224.496V255.076H286.832ZM270.96 300.26C268.656 299.364 265.456 296.548 265.456 293.86V264.164L267.248 261.476H244.592L246.512 264.036V293.86C246.512 296.548 243.184 299.364 241.008 300.26H270.96Z" fill="white" stroke="black" stroke-width="1.28"/>
<path d="M250.096 261.476H261.616V300.26H250.096V261.476Z" fill="white" stroke="black" stroke-width="1.28"/>
<path d="M267.632 252.9C267.632 250.34 275.056 250.212 278.896 248.036H232.816C236.656 250.212 243.952 250.34 243.952 252.9L245.488 257.892L264.688 258.66L267.632 252.9Z" fill="white" stroke="black" stroke-width="1.28" stroke-linejoin="bevel"/>
<path d="M276.593 225.764C276.593 219.492 276.849 217.188 278.769 217.188V236.9C274.033 238.692 270.705 244.58 270.705 244.58H241.009C241.009 244.58 237.681 238.692 232.945 236.9V217.06C235.249 217.06 235.249 219.62 235.249 225.636L276.593 225.764ZM278.769 223.204C278.769 216.036 285.041 215.268 285.041 215.268V221.668C282.609 221.54 281.457 223.716 281.457 226.788C281.457 229.988 283.377 229.988 283.377 229.988V248.164H278.769V223.204Z" fill="white" stroke="black" stroke-width="1.28"/>
<path d="M232.944 223.204C232.944 216.036 226.672 215.268 226.672 215.268V221.668C229.104 221.54 230.256 223.716 230.256 226.788C230.256 229.988 228.336 229.988 228.336 229.988V248.164H232.944V223.204Z" fill="white" stroke="black" stroke-width="1.28"/>
<path d="M245.104 173.668H267.12M242.544 180.58H269.424M239.984 188.9H271.856M237.296 199.012H275.056M236.4 210.532H275.312" stroke="black" stroke-width="1.024"/>
<path d="M224.625 248.42H286.833M244.337 248.42H267.377V256.868H244.337V248.42Z" stroke="black" stroke-width="1.28"/>
<path d="M241.52 229.476C245.36 234.084 244.848 241.892 244.848 246.5H267.12C267.12 241.892 266.608 234.084 270.448 229.476H241.52ZM253.936 176.996L250.864 175.332V170.852C252.144 171.236 253.424 171.364 253.68 173.412C254.064 170.468 254.96 170.724 256.112 169.572C257.392 170.724 258.032 170.468 258.544 173.412C258.544 171.364 260.08 171.236 261.232 170.852V175.332L258.288 176.868L253.936 176.996Z" fill="white" stroke="black" stroke-width="1.28"/>
<path d="M253.681 184.292L248.561 180.708V176.74C250.481 177.124 252.401 177.38 252.657 179.556C253.169 176.356 254.321 174.82 256.113 173.54C257.777 174.82 258.929 176.356 259.569 179.556C259.697 177.38 261.745 177.124 263.409 176.74V180.836L258.417 184.292H253.681Z" fill="white" stroke="black" stroke-width="1.28"/>
<path d="M253.296 195.684L247.536 190.564V184.548C249.584 185.06 251.888 185.316 252.144 188.516C252.784 184.036 254.064 181.604 255.984 179.812C258.032 181.604 259.312 184.036 260.08 188.516C260.336 185.316 262.64 185.06 264.688 184.548V190.564L258.8 195.684H253.296ZM264.048 202.468L258.928 209.764H252.912L247.664 202.468H264.048ZM244.592 214.628C247.066 215.908 248.346 219.151 248.432 224.356H263.28C263.365 219.151 264.645 215.908 267.12 214.628H244.592Z" fill="white" stroke="black" stroke-width="1.28"/>
<path d="M267.376 202.34V195.172C266.264 195.383 265.228 195.885 264.374 196.628C263.519 197.37 262.877 198.325 262.512 199.396C262.512 196.836 259.312 191.332 255.856 188.516C252.4 191.588 249.072 196.708 249.2 199.268C248.517 197.22 246.896 195.855 244.336 195.172V202.468L267.376 202.34Z" fill="white" stroke="black" stroke-width="1.28" stroke-linejoin="bevel"/>
<path d="M268.401 214.628V207.46C265.67 208.228 263.92 209.636 263.153 211.684C263.153 209.124 259.697 203.62 255.857 200.804C252.017 204.004 248.433 208.996 248.561 211.684C247.878 209.721 246.128 208.313 243.312 207.46V214.756L268.401 214.628Z" fill="white" stroke="black" stroke-width="1.28" stroke-linejoin="bevel"/>
<path d="M271.473 229.604V221.156C268.826 222.023 266.534 223.731 264.945 226.02C264.945 221.54 259.825 214.5 255.857 212.324C251.761 214.628 246.769 221.796 246.769 226.02C245.148 223.709 242.808 221.999 240.113 221.156V229.604H271.473Z" fill="white" stroke="black" stroke-width="1.28" stroke-linejoin="bevel"/>
<path d="M269.681 248.42V239.716C266.609 240.868 265.841 243.684 264.817 245.732C265.201 236.9 259.953 227.556 255.857 225.124C251.761 227.556 246.385 237.156 246.897 245.604C245.873 243.812 244.977 240.868 242.033 239.716V248.292L269.681 248.42Z" fill="white" stroke="black" stroke-width="1.28" stroke-linejoin="bevel"/>
<path d="M267.632 261.476V252.772C264.432 253.54 264.304 254.692 263.28 256.612C263.664 251.364 259.952 245.348 255.856 243.044C251.76 245.348 248.176 251.364 248.432 256.612C247.408 254.692 247.28 253.54 244.08 252.772V261.476H267.632Z" fill="white" stroke="black" stroke-width="1.28"/>
<path d="M132.72 293.476V267.364C131.824 264.036 128.88 260.964 126.832 260.452V237.412L131.568 239.972L137.072 264.164V293.604L132.72 293.476Z" fill="white" stroke="black" stroke-width="1.28"/>
<path d="M132.72 293.604V267.364C131.824 264.036 128.88 260.964 126.832 260.452V235.876C130.032 235.876 131.568 239.972 131.568 239.972L137.072 264.164V293.476L132.72 293.604Z" fill="white" stroke="black" stroke-width="1.28"/>
<path d="M129.264 300.26C131.44 299.364 134.64 296.548 134.64 293.86V261.092L133.104 258.532H189.04L186.864 261.092V293.86C186.958 295.217 187.41 296.524 188.175 297.648C188.939 298.773 189.989 299.674 191.216 300.26H129.264Z" fill="white" stroke="black" stroke-width="1.28"/>
<path d="M179.824 300.26C177.648 299.364 174.448 296.548 174.448 293.86V262.756L179.056 258.404H141.168L145.776 262.756V293.86C145.776 296.548 142.576 299.364 140.4 300.26H179.824Z" fill="white" stroke="black" stroke-width="1.28"/>
<path d="M174.576 300.26C172.4 299.364 169.072 296.548 169.072 293.86V265.7L172.144 261.476H148.08L151.152 265.7V293.86C151.152 296.548 147.952 299.364 145.648 300.26H174.576Z" fill="white" stroke="black" stroke-width="1.28"/>
<path d="M154.48 261.476H165.872V300.388H154.352L154.48 261.476Z" fill="white" stroke="black" stroke-width="1.28"/>
<path d="M138.736 272.228H143.344V293.348H138.736V272.228ZM178.16 272.228H182.64V293.348H178.032L178.16 272.228ZM134.768 236.644H140.4V258.404H134.768V236.644ZM134.768 232.548H140.272V236.644H134.768V232.548ZM180.336 241.38H188.144V258.02H180.336V241.38Z" fill="white"/>
<path d="M134.768 236.644H140.4V258.404H134.768V236.644ZM134.768 236.644H140.272V232.548H134.768V236.644ZM138.736 272.228H143.344V293.348H138.736V272.228ZM178.16 272.228H182.64V293.348H178.032L178.16 272.228ZM180.336 241.38H188.144V258.02H180.336V241.38Z" stroke="black" stroke-width="1.28" stroke-linejoin="bevel"/>
<path d="M140.271 258.148V221.028C141.807 221.028 142.063 226.532 145.647 226.532C147.567 226.532 147.439 224.228 146.287 222.436C145.391 220.772 144.239 218.596 145.775 214.372C146.927 217.572 149.743 218.596 149.231 216.676C148.335 213.22 145.647 212.58 147.695 207.332C148.335 211.684 151.151 211.556 150.511 208.996C149.743 206.052 148.079 204.772 150.127 200.676C151.279 205.412 152.687 205.156 152.687 202.212C152.687 197.86 152.687 193.252 158.063 191.588C158.063 191.588 158.447 187.748 160.495 187.748C162.543 187.748 162.799 191.588 162.799 191.588C168.303 193.252 168.175 197.988 168.175 202.212C168.175 205.156 169.583 205.412 170.735 200.676C172.783 204.772 171.119 206.052 170.351 208.996C169.711 211.556 172.527 211.684 173.167 207.332C175.215 212.58 172.527 213.22 171.631 216.676C171.119 218.596 173.935 217.572 175.087 214.372C176.623 218.596 175.471 220.772 174.575 222.436C173.551 224.228 173.295 226.532 175.215 226.532C178.799 226.532 179.055 221.156 180.591 221.156V258.148H140.271ZM131.439 230.116V258.404H134.639V230.116C133.53 229.519 132.463 229.519 131.439 230.116Z" fill="white" stroke="black" stroke-width="1.28"/>
<path d="M131.695 248.42C135.663 250.468 139.631 252.9 140.655 258.404H131.695V248.42ZM186.991 239.972V258.404H189.551V239.972C188.698 239.546 187.845 239.546 186.991 239.972Z" fill="white" stroke="black" stroke-width="1.28"/>
<path d="M189.551 248.42C185.583 250.34 181.615 252.644 180.591 258.276H189.551V248.42ZM163.183 205.284L165.487 203.364V200.804C164.804 200.804 164.164 201.231 163.567 202.084C163.319 201.262 162.907 200.499 162.358 199.839C161.808 199.179 161.131 198.637 160.367 198.244C159.592 198.609 158.898 199.125 158.327 199.763C157.755 200.4 157.317 201.146 157.039 201.956C156.527 201.188 155.887 200.762 155.119 200.676V203.236L157.423 205.284H163.183Z" fill="white" stroke="black" stroke-width="1.28"/>
<path d="M164.463 211.556L165.487 209.124V205.924C164.804 205.924 164.164 206.351 163.567 207.204C163.319 206.382 162.907 205.619 162.358 204.959C161.808 204.299 161.131 203.757 160.367 203.364C159.592 203.729 158.898 204.245 158.327 204.883C157.755 205.521 157.317 206.266 157.039 207.076C156.527 206.308 155.887 205.924 155.119 205.924V209.124L156.143 211.556H164.463Z" fill="white" stroke="black" stroke-width="1.28"/>
<path d="M164.721 220.004L168.049 215.78V211.684C166.939 211.684 166.001 212.367 165.233 213.732C164.337 210.788 162.673 210.276 160.369 208.868C157.937 210.148 156.273 210.788 155.505 213.604C154.481 212.196 153.841 211.812 152.561 211.684V215.78L156.017 220.004H164.721Z" fill="white" stroke="black" stroke-width="1.28"/>
<path d="M165.616 228.324C165.616 228.324 169.712 224.868 169.84 222.948V218.468C168.304 218.596 166.896 218.98 165.744 220.9C164.72 217.188 163.184 216.164 160.368 214.5C157.424 216.164 155.888 217.188 154.992 220.9C153.712 218.98 152.432 218.596 150.768 218.34V222.948C151.843 224.978 153.273 226.799 154.992 228.324H165.616Z" fill="white" stroke="black" stroke-width="1.28"/>
<path d="M167.279 243.684C167.279 243.684 172.911 237.668 173.039 235.236V228.324C170.906 228.495 169.029 230.031 167.407 232.932C166.298 227.3 163.951 223.119 160.367 220.388C156.527 223.204 154.479 227.172 153.199 232.932C151.578 230.031 149.743 228.495 147.695 228.324V235.236C148.079 237.668 153.327 243.684 153.327 243.684H167.279Z" fill="white" stroke="black" stroke-width="1.28"/>
<path d="M167.279 252.772C167.279 252.772 172.015 248.036 173.039 245.988V239.076C170.906 239.332 169.029 240.826 167.407 243.556C167.065 241.227 166.267 238.988 165.059 236.968C163.851 234.947 162.257 233.185 160.367 231.78C156.527 234.596 154.479 237.796 153.199 243.556C151.578 240.826 149.743 239.332 147.695 239.076V245.988C148.975 248.036 153.327 252.772 153.327 252.772H167.279Z" fill="white" stroke="black" stroke-width="1.28"/>
<path d="M169.2 258.148C167.92 252.132 166.64 247.652 160.112 243.172C153.456 247.652 152.304 252.132 150.896 258.148H169.2Z" fill="white" stroke="black" stroke-width="1.28"/>
<path d="M172.655 261.476V252.772C169.583 254.052 166.895 255.716 165.871 257.636C164.847 252.772 162.671 250.724 159.983 247.78C157.295 250.724 155.503 252.9 154.351 257.636C153.327 255.716 150.639 253.924 147.695 252.772V261.476H172.655Z" fill="white" stroke="black" stroke-width="1.28"/>
<path d="M379.376 293.476V267.364C380.272 264.036 383.216 260.964 385.264 260.452V237.412L380.528 239.972L375.024 264.164V293.604L379.376 293.476Z" fill="white" stroke="black" stroke-width="1.28"/>
<path d="M379.376 293.604V267.364C380.272 264.036 383.216 260.964 385.264 260.452V235.876C382.064 235.876 380.528 239.972 380.528 239.972L375.024 264.164V293.476L379.376 293.604Z" fill="white" stroke="black" stroke-width="1.28"/>
<path d="M382.832 300.26C380.656 299.364 377.456 296.548 377.456 293.86V261.092L378.992 258.532H323.056L325.232 261.092V293.86C325.138 295.217 324.686 296.524 323.921 297.648C323.157 298.773 322.107 299.674 320.88 300.26H382.832Z" fill="white" stroke="black" stroke-width="1.28"/>
<path d="M332.271 300.26C334.447 299.364 337.647 296.548 337.647 293.86V262.756L333.039 258.404H370.927L366.319 262.756V293.86C366.319 296.548 369.519 299.364 371.695 300.26H332.271Z" fill="white" stroke="black" stroke-width="1.28"/>
<path d="M337.519 300.26C339.695 299.364 343.023 296.548 343.023 293.86V265.7L339.951 261.476H364.015L360.943 265.7V293.86C360.943 296.548 364.143 299.364 366.447 300.26H337.519Z" fill="white" stroke="black" stroke-width="1.28"/>
<path d="M357.616 261.476H346.224V300.388H357.744L357.616 261.476Z" fill="white" stroke="black" stroke-width="1.28"/>
<path d="M373.36 272.228H368.752V293.348H373.36V272.228ZM333.936 272.228H329.456V293.348H334.064L333.936 272.228ZM377.328 236.644H371.696V258.404H377.328V236.644ZM377.328 232.548H371.824V236.644H377.328V232.548ZM331.76 241.38H323.952V258.02H331.76V241.38Z" fill="white"/>
<path d="M377.328 236.644H371.696V258.404H377.328V236.644ZM377.328 236.644H371.824V232.548H377.328V236.644ZM373.36 272.228H368.752V293.348H373.36V272.228ZM333.936 272.228H329.456V293.348H334.064L333.936 272.228ZM331.76 241.38H323.952V258.02H331.76V241.38Z" stroke="black" stroke-width="1.28" stroke-linejoin="bevel"/>
<path d="M371.824 258.148V221.028C370.288 221.028 370.032 226.532 366.448 226.532C364.528 226.532 364.656 224.228 365.808 222.436C366.704 220.772 367.856 218.596 366.32 214.372C365.168 217.572 362.352 218.596 362.864 216.676C363.76 213.22 366.448 212.58 364.4 207.332C363.76 211.684 360.944 211.556 361.584 208.996C362.352 206.052 364.016 204.772 361.968 200.676C360.816 205.412 359.408 205.156 359.408 202.212C359.408 197.86 359.408 193.252 354.032 191.588C354.032 191.588 353.648 187.748 351.6 187.748C349.552 187.748 349.296 191.588 349.296 191.588C343.792 193.252 343.92 197.988 343.92 202.212C343.92 205.156 342.512 205.412 341.36 200.676C339.312 204.772 340.976 206.052 341.744 208.996C342.384 211.556 339.568 211.684 338.928 207.332C336.88 212.58 339.568 213.22 340.464 216.676C340.976 218.596 338.16 217.572 337.008 214.372C335.472 218.596 336.624 220.772 337.52 222.436C338.544 224.228 338.8 226.532 336.88 226.532C333.296 226.532 333.04 221.156 331.504 221.156V258.148H371.824ZM380.656 230.116V258.404H377.456V230.116C378.566 229.519 379.632 229.519 380.656 230.116Z" fill="white" stroke="black" stroke-width="1.28"/>
<path d="M380.4 248.42C376.432 250.468 372.464 252.9 371.44 258.404H380.4V248.42ZM325.104 239.972V258.404H322.544V239.972C323.398 239.546 324.251 239.546 325.104 239.972Z" fill="white" stroke="black" stroke-width="1.28"/>
<path d="M322.545 248.42C326.513 250.34 330.481 252.644 331.505 258.276H322.545V248.42ZM348.913 205.284L346.609 203.364V200.804C347.291 200.804 347.931 201.231 348.529 202.084C348.777 201.262 349.188 200.499 349.738 199.839C350.288 199.179 350.965 198.637 351.729 198.244C352.503 198.609 353.197 199.125 353.769 199.763C354.341 200.4 354.778 201.146 355.057 201.956C355.569 201.188 356.209 200.762 356.977 200.676V203.236L354.673 205.284H348.913Z" fill="white" stroke="black" stroke-width="1.28"/>
<path d="M347.633 211.556L346.609 209.124V205.924C347.291 205.924 347.931 206.351 348.529 207.204C348.777 206.382 349.188 205.619 349.738 204.959C350.288 204.299 350.965 203.757 351.729 203.364C352.503 203.729 353.197 204.245 353.769 204.883C354.341 205.521 354.778 206.266 355.057 207.076C355.569 206.308 356.209 205.924 356.977 205.924V209.124L355.953 211.556H347.633Z" fill="white" stroke="black" stroke-width="1.28"/>
<path d="M347.375 220.004L344.047 215.78V211.684C345.156 211.684 346.095 212.367 346.863 213.732C347.759 210.788 349.423 210.276 351.727 208.868C354.159 210.148 355.823 210.788 356.591 213.604C357.615 212.196 358.255 211.812 359.535 211.684V215.78L356.079 220.004H347.375Z" fill="white" stroke="black" stroke-width="1.28"/>
<path d="M346.48 228.324C346.48 228.324 342.384 224.868 342.256 222.948V218.468C343.792 218.596 345.2 218.98 346.352 220.9C347.376 217.188 348.912 216.164 351.728 214.5C354.672 216.164 356.208 217.188 357.104 220.9C358.384 218.98 359.664 218.596 361.328 218.34V222.948C360.253 224.978 358.822 226.799 357.104 228.324H346.48Z" fill="white" stroke="black" stroke-width="1.28"/>
<path d="M344.816 243.684C344.816 243.684 339.184 237.668 339.056 235.236V228.324C341.19 228.495 343.067 230.031 344.688 232.932C345.798 227.3 348.144 223.119 351.728 220.388C355.568 223.204 357.616 227.172 358.896 232.932C360.518 230.031 362.352 228.495 364.4 228.324V235.236C364.016 237.668 358.768 243.684 358.768 243.684H344.816Z" fill="white" stroke="black" stroke-width="1.28"/>
<path d="M344.816 252.772C344.816 252.772 340.08 248.036 339.056 245.988V239.076C341.19 239.332 343.067 240.826 344.688 243.556C345.031 241.227 345.829 238.988 347.037 236.968C348.245 234.947 349.839 233.185 351.728 231.78C355.568 234.596 357.616 237.796 358.896 243.556C360.518 240.826 362.352 239.332 364.4 239.076V245.988C363.12 248.036 358.768 252.772 358.768 252.772H344.816Z" fill="white" stroke="black" stroke-width="1.28"/>
<path d="M342.895 258.148C344.175 252.132 345.455 247.652 351.983 243.172C358.639 247.652 359.791 252.132 361.199 258.148H342.895Z" fill="white" stroke="black" stroke-width="1.28"/>
<path d="M339.44 261.476V252.772C342.512 254.052 345.2 255.716 346.224 257.636C347.248 252.772 349.424 250.724 352.112 247.78C354.8 250.724 356.592 252.9 357.744 257.636C358.768 255.716 361.456 253.924 364.4 252.772V261.476H339.44Z" fill="white" stroke="black" stroke-width="1.28"/>
<path d="M99.0563 332.004H413.04V348.004H99.0563V332.004ZM90.7363 348.004H421.36V364.004H90.7363V348.004ZM115.568 307.94H396.4V318.308H115.568V307.94Z" fill="white" stroke="black" stroke-width="1.28"/>
<path d="M107.377 318.308H404.849V331.876H107.377V318.308ZM120.433 300.004H391.793V307.94H120.433V300.004Z" fill="white" stroke="black" stroke-width="1.28"/>
<path d="M149.873 300.004H170.353V364.004H149.873V300.004Z" fill="white" stroke="black" stroke-width="1.28"/>
<path d="M154.48 300.004H165.872V364.004H154.352L154.48 300.004ZM245.36 300.004H265.84V364.004H245.36V300.004Z" fill="white" stroke="black" stroke-width="1.28"/>
<path d="M250.096 300.004H261.616V364.004H250.096V300.004ZM341.616 300.004H362.096V364.004H341.616V300.004Z" fill="white" stroke="black" stroke-width="1.28"/>
<path d="M346.096 300.004H357.616V364.004H346.096V300.004Z" fill="white" stroke="black" stroke-width="1.28"/>
<path d="M132.721 293.476H379.761M154.225 355.94H166.001M154.225 347.876H166.001M154.225 339.94H166.001M154.225 331.876H166.001M154.225 323.94H166.001M154.225 315.876H166.001M154.225 307.94H166.001M250.225 355.94H261.233M250.225 347.876H261.233M250.225 339.94H261.233M250.225 331.876H261.233M250.225 323.94H261.233M250.225 315.876H261.233M250.225 307.94H261.233M345.969 355.94H357.745M345.969 347.876H357.745M345.969 339.94H357.745M345.969 331.876H357.745M345.969 323.94H357.745M345.969 315.876H357.745M345.969 307.94H357.745" stroke="black" stroke-width="1.28"/>
</g>
<defs>
<clipPath id="clip0_3921_17019">
<rect width="512" height="512" fill="white"/>
</clipPath>
</defs>
</svg>
