<svg width="512" height="512" viewBox="0 0 512 512" fill="none" xmlns="http://www.w3.org/2000/svg">
<g clip-path="url(#clip0_3921_17157)">
<path fill-rule="evenodd" clip-rule="evenodd" d="M0 0H512V512H0V0Z" fill="white"/>
<path fill-rule="evenodd" clip-rule="evenodd" d="M21.9746 167.546L84.3946 73.9515L99.9937 84.3549L37.5737 177.95L21.9746 167.546ZM45.3733 183.151L107.793 89.5565L123.392 99.9599L60.9725 193.555L45.3733 183.151ZM68.772 198.756L131.192 105.162L146.791 115.565L84.3712 209.16L68.772 198.756Z" fill="#000001"/>
<path fill-rule="evenodd" clip-rule="evenodd" d="M365.156 396.42L427.576 302.825L443.175 313.228L380.755 406.823L365.156 396.42ZM388.555 412.025L450.975 318.43L466.574 328.833L404.154 422.428L388.555 412.025ZM411.954 427.63L474.374 334.035L489.973 344.438L427.553 438.033L411.954 427.63Z" fill="#000001"/>
<path fill-rule="evenodd" clip-rule="evenodd" d="M388.566 344.42L466.562 396.437L388.566 344.42Z" fill="black"/>
<path d="M388.566 344.42L466.562 396.437" stroke="white" stroke-width="9.375"/>
<path fill-rule="evenodd" clip-rule="evenodd" d="M162.379 193.572C178.934 168.749 204.671 151.52 233.93 145.673C263.188 139.827 293.571 145.843 318.394 162.397C343.217 178.952 360.446 204.69 366.293 233.948C372.139 263.207 366.123 293.589 349.569 318.412L162.379 193.572Z" fill="#CD2E3A"/>
<path fill-rule="evenodd" clip-rule="evenodd" d="M162.379 193.572C145.824 218.395 139.808 248.778 145.655 278.036C151.501 307.295 168.731 333.032 193.554 349.587C218.377 366.142 248.759 372.158 278.018 366.311C307.276 360.465 333.014 343.235 349.569 318.412C357.846 306.001 360.854 290.809 357.931 276.18C355.008 261.551 346.393 248.682 333.981 240.405C321.57 232.127 306.379 229.119 291.749 232.043C277.12 234.966 264.251 243.581 255.974 255.992L162.379 193.572Z" fill="#0047A0"/>
<path d="M255.975 255.992C273.212 230.147 266.233 195.222 240.387 177.985C214.542 160.748 179.617 167.727 162.38 193.572C145.143 219.418 152.122 254.343 177.967 271.58C203.813 288.816 238.738 281.838 255.975 255.992Z" fill="#CD2E3A"/>
<path fill-rule="evenodd" clip-rule="evenodd" d="M84.4473 438.033L22.0273 344.438L37.6264 334.035L100.046 427.63L84.4473 438.033ZM107.846 422.428L45.426 328.833L61.0251 318.43L123.445 412.025L107.846 422.428ZM131.245 406.823L68.8247 313.228L84.4238 302.825L146.844 396.42L131.245 406.823Z" fill="#000001"/>
<path fill-rule="evenodd" clip-rule="evenodd" d="M427.629 209.16L365.209 115.565L380.808 105.161L443.228 198.756L427.629 209.16ZM451.028 193.555L388.608 99.9598L404.207 89.5565L466.627 183.151L451.028 193.555ZM474.426 177.95L412.006 84.3548L427.605 73.9515L490.025 167.546L474.426 177.95Z" fill="#000001"/>
<path fill-rule="evenodd" clip-rule="evenodd" d="M72.7363 378.231L96.135 362.626L72.7363 378.231ZM388.619 167.564L415.917 149.358L388.619 167.564ZM439.316 133.753L462.715 118.148L439.316 133.753Z" fill="black"/>
<path d="M72.7363 378.231L96.135 362.626M388.619 167.564L415.917 149.358M439.316 133.753L462.715 118.148" stroke="white" stroke-width="9.375"/>
</g>
<defs>
<clipPath id="clip0_3921_17157">
<rect width="512" height="512" fill="white"/>
</clipPath>
</defs>
</svg>
