<svg width="512" height="512" viewBox="0 0 512 512" fill="none" xmlns="http://www.w3.org/2000/svg">
<g clip-path="url(#clip0_3921_17382)">
<mask id="mask0_3921_17382" style="mask-type:luminance" maskUnits="userSpaceOnUse" x="-1" y="0" width="513" height="512">
<path d="M-0.0195312 0H511.902V511.922H-0.0195312V0Z" fill="white"/>
</mask>
<g mask="url(#mask0_3921_17382)">
<path fill-rule="evenodd" clip-rule="evenodd" d="M-128 383.941H639.882V511.922H-128V383.941ZM-128 0H639.882V127.98H-128V0Z" fill="#EE161F"/>
<path fill-rule="evenodd" clip-rule="evenodd" d="M-128 127.98H639.882V383.941H-128V127.98Z" fill="white"/>
<path d="M252.123 129.941C244.279 145.526 239.015 145.526 226.01 155.95C220.85 161.111 213.006 163.691 223.43 168.955C213.109 174.115 207.845 176.696 202.582 187.12L205.265 189.7C205.265 189.7 215.07 184.849 215.586 187.12C217.341 189.184 202.582 197.131 200.724 198.473C198.866 199.815 189.577 205.285 189.577 205.285C176.573 215.709 168.729 213.129 160.988 228.713L186.997 226.133C192.158 244.298 173.993 246.878 160.988 254.722L140.14 267.727C145.3 285.892 160.988 275.468 173.993 270.307L176.573 272.887V278.048L150.667 291.052C150.667 291.052 119.911 308.598 119.394 309.217C119.188 310.249 119.394 314.378 119.394 314.378C129.819 317.061 145.403 319.641 155.828 314.378C168.832 309.217 171.516 304.057 187.1 304.057C172.07 315.835 153.986 323.068 134.979 324.905V335.226C150.667 335.226 161.091 335.226 174.096 332.646L207.949 322.325C215.689 322.325 223.533 330.066 220.953 337.806C213.109 366.396 181.94 361.235 171.412 384.664L213.109 369.079C223.533 363.919 233.958 358.655 246.962 361.235C262.547 366.396 262.547 376.82 283.395 381.98L278.235 369.079C283.395 371.659 288.556 371.659 293.819 374.24C306.824 379.4 309.404 384.561 325.092 381.98C312.088 366.499 309.404 369.079 299.083 358.655C288.659 343.07 283.395 319.641 299.083 317.061L317.248 322.222C335.516 324.905 335.516 319.641 361.525 330.066C377.11 335.226 382.374 343.07 400.538 337.806C392.798 319.641 364.105 306.637 345.837 301.476C366.686 288.472 361.525 306.637 390.217 298.896V293.736C369.369 278.048 361.525 265.043 332.833 265.043L377.213 259.883V254.722C377.213 254.722 333.349 243.266 332.317 242.853C332.56 241.791 333.079 240.811 333.822 240.014C334.565 239.217 335.506 238.63 336.548 238.312C344.805 243.679 369.885 243.06 371.33 242.956C370.608 236.557 358.738 231.294 348.314 226.133C348.314 226.133 303.728 198.576 303.521 196.202C304.347 189.184 321.789 197.234 340.47 202.704C335.31 192.383 324.886 187.12 314.461 184.54L330.046 181.959C319.725 158.531 293.613 161.111 278.028 150.687C267.604 142.946 267.604 137.682 252.019 129.941H252.123Z" fill="#00A850"/>
<path fill-rule="evenodd" clip-rule="evenodd" d="M223.946 303.025C225.907 296.832 228.384 291.362 216.825 286.098C205.265 280.835 222.605 307.256 224.05 303.025H223.946ZM237.673 290.64C235.299 290.949 234.164 299.516 238.705 301.786C243.969 302.612 239.738 290.743 237.673 290.64ZM251.194 289.711C248.82 290.433 248.717 302.509 257.18 300.341C265.746 298.277 257.18 288.782 251.194 289.814V289.711ZM266.985 258.954C268.843 256.064 266.882 243.989 259.554 249.046C252.226 254.103 264.714 259.78 266.985 258.954ZM250.987 248.943C253.258 248.117 253.464 240.686 247.065 242.75C240.666 244.608 249.336 250.491 250.987 248.943ZM236.538 251.936C236.538 251.936 232.1 245.743 228.591 246.982C224.256 251.11 236.848 252.039 236.538 251.936ZM186.997 271.649C188.855 271.855 202.995 269.378 207.846 263.908C212.8 258.438 182.766 266.179 182.766 266.282C182.766 266.385 185.552 271.133 186.894 271.649H186.997ZM328.085 236.764C328.808 235.422 320.551 229.539 315.7 231.913C314.462 236.248 328.085 237.59 328.085 236.764ZM300.322 222.727C301.87 220.56 296.709 211.374 286.595 216.535C276.48 221.695 297.226 226.34 300.322 222.727ZM268.223 217.36C268.223 217.36 270.701 209.104 276.893 210.755C283.705 216.019 268.533 217.67 268.223 217.36ZM262.237 211.168C261.205 208.897 254.909 210.239 247.581 215.09C240.254 219.837 264.405 216.432 262.237 211.168ZM280.815 189.081C280.815 189.081 287.421 186.088 289.382 189.081C292.065 193.416 280.815 189.081 280.918 189.081H280.815ZM275.448 186.191C274.106 183.611 266.882 183.301 267.088 187.223C265.85 190.113 276.377 189.597 275.345 186.191H275.448ZM258.212 186.191C257.49 184.643 247.272 186.191 244.176 192.384C249.13 194.757 260.483 190.113 258.212 186.191ZM236.228 192.487C236.228 192.487 222.811 200.744 221.882 206.833C222.295 211.993 238.705 197.338 238.705 197.338C238.705 197.338 240.15 191.558 236.228 192.487ZM221.263 184.952C221.676 183.301 227.972 179.379 228.488 179.792C229.004 181.443 223.327 185.985 221.263 184.952ZM225.598 216.535C225.907 214.161 209.497 214.367 215.69 221.798C220.85 228.094 226.733 217.67 225.598 216.638V216.535ZM210.529 227.372C209.703 225.72 208.465 221.282 206.194 220.87C204.44 220.87 194.532 222.934 193.809 224.482C193.396 225.824 197.938 233.977 199.382 234.184C201.137 234.803 210.219 228.197 210.529 227.372ZM298.877 282.486C299.393 280.731 316.113 274.952 321.893 280.422C328.705 289.711 298.464 285.376 298.877 282.486ZM344.909 293.426C348.521 287.234 333.555 279.802 327.363 286.924C329.427 295.387 341.915 298.483 344.909 293.426Z" fill="white" stroke="white" stroke-width="3.19951" stroke-linecap="round" stroke-linejoin="round"/>
</g>
</g>
<defs>
<clipPath id="clip0_3921_17382">
<rect width="512" height="512" fill="white"/>
</clipPath>
</defs>
</svg>
