<svg width="512" height="512" viewBox="0 0 512 512" fill="none" xmlns="http://www.w3.org/2000/svg">
<g clip-path="url(#clip0_3921_17525)">
<path fill-rule="evenodd" clip-rule="evenodd" d="M0 0H170.7V512H0V0Z" fill="#00319C"/>
<path fill-rule="evenodd" clip-rule="evenodd" d="M170.699 0H341.299V512H170.699V0Z" fill="#FFDE00"/>
<path fill-rule="evenodd" clip-rule="evenodd" d="M341.301 0H512.001V512H341.301V0Z" fill="#DE2110"/>
<path fill-rule="evenodd" clip-rule="evenodd" d="M289.66 321.522L309.36 349.945C310.473 351.551 311.556 353.113 309.922 354.147C308.241 355.211 308.771 359.369 309.884 360.975C312.08 364.143 314.828 364.715 316.462 363.681L331.404 354.224C333.039 353.19 333.56 350.549 331.364 347.381C330.126 345.789 326.452 343.686 324.817 344.72C323.136 345.784 322.054 344.222 320.971 342.661L301.21 314.148" fill="#FF1900"/>
<path d="M289.66 321.522L309.36 349.945C310.473 351.551 311.556 353.113 309.922 354.147C308.241 355.211 308.771 359.369 309.884 360.975C312.08 364.143 314.828 364.715 316.462 363.681L331.404 354.224C333.039 353.19 333.56 350.549 331.364 347.381C330.126 345.789 326.452 343.686 324.817 344.72C323.136 345.784 322.054 344.222 320.971 342.661L301.21 314.148" stroke="black" stroke-width="0.730307"/>
<path fill-rule="evenodd" clip-rule="evenodd" d="M297.296 301.414C306.094 311.407 309.154 322.864 304.14 326.895C299.125 330.926 287.836 326.083 279.039 316.09C270.241 306.098 267.224 294.606 272.238 290.575C277.252 286.544 288.506 291.346 297.339 301.379L297.296 301.414Z" fill="#A77B3B" stroke="black" stroke-width="1.69805"/>
<path fill-rule="evenodd" clip-rule="evenodd" d="M209.637 309.881L192.245 339.647C191.263 341.329 190.307 342.964 188.595 342.051C186.835 341.112 183.212 343.47 182.229 345.152C180.291 348.47 181.02 351.065 182.731 351.978L198.38 360.327C200.091 361.24 202.786 360.471 204.724 357.153C205.637 355.372 205.907 351.287 204.195 350.374C202.435 349.434 203.39 347.799 204.346 346.164L221.792 316.304" fill="#FF1900"/>
<path d="M209.637 309.881L192.245 339.647C191.263 341.329 190.307 342.964 188.595 342.051C186.835 341.112 183.212 343.47 182.229 345.152C180.291 348.47 181.02 351.065 182.731 351.978L198.38 360.327C200.091 361.24 202.786 360.471 204.724 357.153C205.637 355.372 205.907 351.287 204.195 350.374C202.435 349.434 203.39 347.799 204.346 346.164L221.792 316.304" stroke="black" stroke-width="0.73025"/>
<path fill-rule="evenodd" clip-rule="evenodd" d="M265.826 289.182H249.976C249.416 289.717 244.935 318.082 240.063 329C234.126 342.272 216.26 353.992 216.26 353.992C216.26 353.992 226.901 357.204 230.149 359.344C230.934 359.13 247.96 355.544 249.976 334.726C251.936 355.544 238.046 365.017 238.046 365.017C238.046 365.017 257.929 370.69 257.929 384.016C257.929 370.744 277.755 365.017 277.755 365.017C277.755 365.017 267.786 355.544 265.826 334.672C269.746 355.544 284.868 359.13 285.708 359.291C288.901 357.204 299.542 353.939 299.542 353.939C299.542 353.939 281.732 342.326 275.795 329C270.923 318.135 266.386 289.664 265.882 289.182H265.826Z" fill="#A77B3B" stroke="black" stroke-width="1.6972"/>
<path fill-rule="evenodd" clip-rule="evenodd" d="M198.32 194.304L228.116 203.776C233.262 203.45 238.109 201.349 241.756 197.864C245.402 194.38 247.601 189.748 247.943 184.831C248.279 163.745 239.99 156.359 238.029 156.359L241.95 152.613L236.069 146.833C236.069 146.833 238.085 136.986 257.912 137.361C277.738 137.735 277.738 146.833 277.738 156.306C277.738 165.832 267.825 165.832 267.825 184.777C268.168 189.703 270.374 194.342 274.033 197.828C277.691 201.314 282.552 203.409 287.707 203.723L317.447 194.25V289.191H198.32V194.304Z" fill="#A77B3B" stroke="black" stroke-width="1.6972"/>
<path d="M243.947 198.089L245.926 203.792L247.917 198.089L249.896 203.792L253.866 198.089L255.804 204.096L257.836 198.089L260.763 204.096L263.784 198.089L265.763 203.792L267.755 198.089" stroke="black" stroke-width="0.136181"/>
<path d="M251.918 177.231L247.941 198.103M253.878 177.231V198.103M257.855 177.231V198.103M261.831 177.231L263.791 198.103M265.808 177.231L267.768 198.103" stroke="black" stroke-width="0.164245"/>
<path fill-rule="evenodd" clip-rule="evenodd" d="M178.493 137.414C158.667 146.887 158.667 165.886 158.667 175.358C159.339 183.975 158.667 364.973 158.667 364.973C158.667 364.973 159.955 354.269 168.58 346.027L178.437 336.555L188.35 327.082C195.631 320.767 198.264 308.083 198.264 298.61V165.886C198.264 165.886 198.264 156.359 178.437 137.414H178.493Z" fill="#A77B3B" stroke="black" stroke-width="1.6972"/>
<path d="M198.32 175.393C198.096 175.393 188.407 165.92 188.407 165.92L178.494 175.393L168.581 165.92L158.667 175.393" stroke="black" stroke-width="1.6972"/>
<path d="M198.32 184.807C198.096 184.807 188.407 194.279 188.407 194.279L178.494 184.807L168.581 194.279L158.667 184.807" stroke="black" stroke-width="1.6972"/>
<path d="M198.32 213.193C198.096 213.193 188.407 203.721 188.407 203.721L178.494 213.193L168.581 203.721L158.667 213.193" stroke="black" stroke-width="1.6972"/>
<path d="M188.294 165.917L188.406 327.145" stroke="black" stroke-width="2.33764"/>
<path d="M178.493 175.437L178.605 336.273" stroke="black" stroke-width="2.21463"/>
<path d="M168.595 165.917L168.707 346.089" stroke="black" stroke-width="2.34398"/>
<path fill-rule="evenodd" clip-rule="evenodd" d="M337.308 137.414C357.134 146.887 357.134 165.886 357.134 175.358C356.462 183.975 357.134 364.973 357.134 364.973C357.134 364.973 355.846 354.269 347.221 346.027L337.364 336.555L327.45 327.082C320.169 320.767 317.537 308.083 317.537 298.61V165.886C317.537 165.886 317.537 156.359 337.364 137.414H337.308Z" fill="#A77B3B" stroke="black" stroke-width="1.6972"/>
<path d="M317.48 175.393C317.704 175.393 327.394 165.92 327.394 165.92L337.307 175.393L347.22 165.92L357.133 175.393" stroke="black" stroke-width="1.6972"/>
<path d="M317.48 184.807C317.704 184.807 327.394 194.279 327.394 194.279L337.307 184.807L347.22 194.279L357.133 184.807" stroke="black" stroke-width="1.6972"/>
<path d="M317.48 213.193C317.704 213.193 327.394 203.721 327.394 203.721L337.307 213.193L347.22 203.721L357.133 213.193" stroke="black" stroke-width="1.6972"/>
<path d="M327.507 165.917L327.395 327.145" stroke="black" stroke-width="2.33764"/>
<path d="M337.305 175.437L337.193 336.273" stroke="black" stroke-width="2.21463"/>
<path d="M347.206 165.917L347.094 346.089" stroke="black" stroke-width="2.34398"/>
<path fill-rule="evenodd" clip-rule="evenodd" d="M231.821 307.254C226.565 319.308 217.315 327.163 211.266 324.754C205.218 322.346 204.541 310.539 209.797 298.485C215.053 286.431 224.355 278.597 230.403 281.006C236.452 283.414 237.15 295.171 231.873 307.275L231.821 307.254Z" fill="#A77B3B" stroke="black" stroke-width="1.69764"/>
<path fill-rule="evenodd" clip-rule="evenodd" d="M198.4 203.8H317.4V260.7H198.4V203.8Z" fill="#FF0000"/>
<path fill-rule="evenodd" clip-rule="evenodd" d="M198.4 260.7H317.4V289C317.4 308 287.7 308 257.9 327C228.1 308 198.4 308 198.4 289V260.7Z" fill="#564DFF"/>
<path d="M198.32 203.776H317.391V289.191C317.391 308.136 287.651 308.136 257.856 327.135C228.116 308.136 198.32 308.136 198.32 289.138V203.83V203.776Z" stroke="#FFFF00" stroke-width="1.36871"/>
<path fill-rule="evenodd" clip-rule="evenodd" d="M236.074 207.644C236.074 207.644 216.236 221.591 216.236 234.935C216.236 248.279 237.054 252.752 237.054 252.752C237.054 252.752 230.115 252.752 230.115 270.544C230.115 279.466 250.933 275.018 250.933 279.466C250.933 283.914 250.658 294.669 250.933 301.731C250.933 306.179 237.054 301.731 237.054 306.179C237.054 308.39 247.483 319.523 257.911 319.523C268.34 319.523 278.729 308.39 278.729 306.179C278.729 301.731 264.851 306.179 264.851 301.731V279.466C264.851 275.018 285.668 279.466 285.668 270.544C285.668 252.752 278.729 252.752 278.729 252.752C278.729 252.752 299.586 248.304 299.586 234.935C299.586 221.566 279.709 207.644 279.709 207.644C279.709 207.644 290.883 226.039 290.883 234.935C290.883 239.383 285.668 248.304 271.79 248.304C271.79 248.304 268.261 243.831 264.851 248.304C264.851 248.304 260.852 243.831 257.911 248.304C256.892 249.812 255.088 243.831 250.933 248.304C249.208 249.486 247.796 243.831 243.993 248.304C237.054 248.304 223.176 243.831 223.176 234.935C223.176 226.039 236.074 207.644 236.074 207.644Z" fill="#FFFF00" stroke="black" stroke-width="0.941647"/>
<path fill-rule="evenodd" clip-rule="evenodd" d="M236.437 287.322C235.026 288.227 238.24 302.727 239.181 303.355C240.593 304.235 248.943 304.235 250.315 303.355C251.296 302.727 250.315 289.107 248.943 288.227C247.532 287.322 237.417 286.719 236.398 287.322H236.437Z" fill="#FFFF00" stroke="black" stroke-width="0.941647"/>
<path fill-rule="evenodd" clip-rule="evenodd" d="M279.362 287.322C280.773 288.227 277.558 302.727 276.618 303.355C275.206 304.235 266.856 304.235 265.483 303.355C264.503 302.727 265.483 289.107 266.856 288.227C268.267 287.322 278.382 286.719 279.401 287.322H279.362Z" fill="#FFFF00" stroke="black" stroke-width="0.941647"/>
<path fill-rule="evenodd" clip-rule="evenodd" d="M250.731 281.982C250.731 283.311 249.971 284.586 248.619 285.526C247.267 286.466 245.433 286.994 243.521 286.994C241.608 286.994 239.774 286.466 238.422 285.526C237.07 284.586 236.311 283.311 236.311 281.982C236.311 280.653 237.07 279.378 238.422 278.438C239.774 277.498 241.608 276.97 243.521 276.97C245.433 276.97 247.267 277.498 248.619 278.438C249.971 279.378 250.731 280.653 250.731 281.982Z" fill="#FFFF00" stroke="black" stroke-width="1.12717"/>
<path fill-rule="evenodd" clip-rule="evenodd" d="M279.432 281.985C279.432 283.314 278.672 284.589 277.32 285.529C275.968 286.469 274.134 286.997 272.222 286.997C270.31 286.997 268.476 286.469 267.123 285.529C265.771 284.589 265.012 283.314 265.012 281.985C265.012 280.655 265.771 279.38 267.123 278.44C268.476 277.5 270.31 276.972 272.222 276.972C274.134 276.972 275.968 277.5 277.32 278.44C278.672 279.38 279.432 280.655 279.432 281.985Z" fill="#FFFF00" stroke="black" stroke-width="1.12719"/>
<path fill-rule="evenodd" clip-rule="evenodd" d="M270.4 311C270.4 312.2 268.8 313.2 266.9 313.2C265 313.2 263.5 312.2 263.5 311C263.5 309.8 265 308.8 266.9 308.8C268.8 308.8 270.4 309.8 270.4 311ZM252.4 311C252.4 312.2 250.8 313.2 248.9 313.2C247 313.2 245.4 312.2 245.4 311C245.4 309.8 247 308.8 248.9 308.8C250.8 308.8 252.3 309.8 252.3 311H252.4Z" fill="black"/>
<path fill-rule="evenodd" clip-rule="evenodd" d="M257.893 239.871L253.631 234.493L246.637 235.381L247.62 228.698L241.992 224.677L247.62 220.605L246.637 213.922L253.631 214.861L257.893 209.483L262.155 214.861L269.094 213.922L268.165 220.605L273.739 224.677L268.165 228.75L269.094 235.381L262.1 234.493L257.893 239.871Z" fill="#FFFF00" stroke="black" stroke-width="0.712176"/>
<path fill-rule="evenodd" clip-rule="evenodd" d="M287.594 260.666L299.523 266.393L311.453 260.666L299.523 254.993L287.594 260.666Z" fill="#FFFF00" stroke="black" stroke-width="0.729978"/>
<path fill-rule="evenodd" clip-rule="evenodd" d="M202.295 260.666L214.224 266.393L226.154 260.666L214.224 254.993L202.295 260.666Z" fill="#FFFF00" stroke="black" stroke-width="0.729978"/>
<path fill-rule="evenodd" clip-rule="evenodd" d="M306.146 294.654C302.494 292.338 296.342 293.492 292.893 295.385C289.445 297.277 285.997 299.169 285.533 306.027C281.572 299.437 284.691 293.344 289.937 290.465C292.725 289.193 295.899 288.921 298.879 289.698C301.86 290.476 304.449 292.251 306.174 294.7L306.146 294.654Z" fill="#FFFF00" stroke="black" stroke-width="0.730264"/>
<path fill-rule="evenodd" clip-rule="evenodd" d="M224.2 283.438C224.2 284.438 223.784 285.398 223.043 286.105C222.303 286.813 221.298 287.211 220.251 287.211C219.204 287.211 218.2 286.813 217.459 286.105C216.719 285.398 216.303 284.438 216.303 283.438C216.303 282.437 216.719 281.477 217.459 280.77C218.2 280.062 219.204 279.665 220.251 279.665C221.298 279.665 222.303 280.062 223.043 280.77C223.784 281.477 224.2 282.437 224.2 283.438Z" fill="#FFFF00" stroke="black" stroke-width="0.729978"/>
<path fill-rule="evenodd" clip-rule="evenodd" d="M220.2 296.737C220.2 297.738 219.784 298.698 219.043 299.405C218.303 300.113 217.298 300.51 216.251 300.51C215.204 300.51 214.2 300.113 213.459 299.405C212.719 298.698 212.303 297.738 212.303 296.737C212.303 295.737 212.719 294.777 213.459 294.069C214.2 293.362 215.204 292.964 216.251 292.964C217.298 292.964 218.303 293.362 219.043 294.069C219.784 294.777 220.2 295.737 220.2 296.737Z" fill="#FFFF00" stroke="black" stroke-width="0.729978"/>
<path fill-rule="evenodd" clip-rule="evenodd" d="M218.2 289.137C218.2 290.138 217.784 291.098 217.043 291.805C216.303 292.513 215.298 292.91 214.251 292.91C213.204 292.91 212.2 292.513 211.459 291.805C210.719 291.098 210.303 290.138 210.303 289.137C210.303 288.137 210.719 287.177 211.459 286.469C212.2 285.762 213.204 285.364 214.251 285.364C215.298 285.364 216.303 285.762 217.043 286.469C217.784 287.177 218.2 288.137 218.2 289.137Z" fill="#FFFF00" stroke="black" stroke-width="0.729978"/>
<path fill-rule="evenodd" clip-rule="evenodd" d="M228.098 296.737C228.098 297.738 227.682 298.698 226.942 299.405C226.201 300.113 225.197 300.51 224.15 300.51C223.102 300.51 222.098 300.113 221.358 299.405C220.617 298.698 220.201 297.738 220.201 296.737C220.201 295.737 220.617 294.777 221.358 294.069C222.098 293.362 223.102 292.964 224.15 292.964C225.197 292.964 226.201 293.362 226.942 294.069C227.682 294.777 228.098 295.737 228.098 296.737Z" fill="#FFFF00" stroke="black" stroke-width="0.729978"/>
<path fill-rule="evenodd" clip-rule="evenodd" d="M230.098 289.137C230.098 290.138 229.682 291.098 228.942 291.805C228.201 292.513 227.197 292.91 226.15 292.91C225.102 292.91 224.098 292.513 223.358 291.805C222.617 291.098 222.201 290.138 222.201 289.137C222.201 288.137 222.617 287.177 223.358 286.469C224.098 285.762 225.102 285.364 226.15 285.364C227.197 285.364 228.201 285.762 228.942 286.469C229.682 287.177 230.098 288.137 230.098 289.137Z" fill="#FFFF00" stroke="black" stroke-width="0.729978"/>
<path fill-rule="evenodd" clip-rule="evenodd" d="M224.2 291.037C224.2 292.038 223.784 292.998 223.043 293.705C222.303 294.413 221.298 294.81 220.251 294.81C219.204 294.81 218.2 294.413 217.459 293.705C216.719 292.998 216.303 292.038 216.303 291.037C216.303 290.037 216.719 289.077 217.459 288.369C218.2 287.662 219.204 287.264 220.251 287.264C221.298 287.264 222.303 287.662 223.043 288.369C223.784 289.077 224.2 290.037 224.2 291.037Z" fill="#FFFF00" stroke="black" stroke-width="0.729978"/>
<path fill-rule="evenodd" clip-rule="evenodd" d="M238.7 159C228.7 159 227.4 160.5 222.9 162C222.9 157.7 234 152.6 244 152.6C244 155.8 241.4 158.9 238.7 158.9V159Z" fill="#DA4500"/>
<path fill-rule="evenodd" clip-rule="evenodd" d="M254 148.8C254 150.9 252.2 152.6 250 152.6C247.8 152.6 246 150.9 246 148.8C246 146.7 247.8 145 250 145C252.2 145 254 146.7 254 148.8Z" fill="#CAC9C7"/>
<path fill-rule="evenodd" clip-rule="evenodd" d="M212.209 135.541V141.214H222.122V169.632H228.115V141.214H238.028V135.541H228.115V127.941H222.066V135.541H212.209Z" fill="#FFFF00" stroke="black" stroke-width="0.729978"/>
<path fill-rule="evenodd" clip-rule="evenodd" d="M243.999 152.6C235.935 152.155 227.86 153.241 220.199 155.8C220.199 149.9 226.999 143.1 238.699 143.1C241.399 143.1 243.999 149.4 243.999 152.6Z" fill="#DA4500"/>
<path fill-rule="evenodd" clip-rule="evenodd" d="M140.814 253.266C137.957 247.109 138.024 245.144 143.105 252.189L204.312 368.227L202.439 368.756L140.845 253.29L140.814 253.266Z" fill="#008500" stroke="black" stroke-width="0.268397"/>
<path fill-rule="evenodd" clip-rule="evenodd" d="M182.3 329.6C183 321 167.3 311.7 166.6 312.3C165.9 312.9 167.6 317.9 170.6 320.5C164.8 317.6 158.8 315.8 158.6 317.1C158.2 318.8 167.6 322.9 168.4 324.5C168.4 325.6 161.4 325.5 161.6 326.6C161.7 327.8 181.3 337.6 182.3 329.6ZM166.6 304.6C167.2 296 151.5 286.6 150.8 287.3C150.2 287.9 151.8 292.9 154.8 295.5C149.1 292.5 143.1 290.7 142.9 292C142.5 293.7 151.9 297.8 152.6 299.4C152.7 300.6 145.7 300.4 145.9 301.6C146 302.7 165.6 312.6 166.6 304.6ZM154.6 281.8C155.2 273.2 139.4 263.9 138.8 264.5C138.2 265.1 139.8 270.1 142.8 272.7C137 269.7 131 268 130.9 269.3C130.4 271 139.9 275.1 140.6 276.7C140.7 277.8 133.7 277.7 133.8 278.8C133.9 279.9 153.5 289.8 154.5 281.8H154.6ZM142.6 257.2C143.3 248.6 127.6 239.2 126.9 239.9C126.2 240.6 127.9 245.5 130.9 248.1C125.1 245.1 119.1 243.3 119 244.6C118.5 246.3 127.9 250.4 128.7 252C128.8 253.2 121.8 253 121.9 254.2C122 255.2 141.6 265.2 142.6 257.2Z" fill="#008F00"/>
<path fill-rule="evenodd" clip-rule="evenodd" d="M146.7 256C154.4 251.4 152.9 233.8 152 233.7C151.1 233.6 147.8 237.7 147.4 241.6C146.4 235.4 144.4 229.7 143.4 230.4C141.6 231.1 143.7 240.7 142.8 242.3C141.9 243 137.8 237.6 137 238.3C136.1 239.1 139.4 260 146.7 256ZM157.7 277.7C166.6 275.7 171.3 258.7 170.6 258.3C169.8 257.9 165.2 260.8 163.5 264.3C164.8 258.2 164.8 252.2 163.5 252.4C161.7 252.5 160.2 262.2 158.9 263.4C157.8 263.9 155.9 257.4 154.8 257.9C153.7 258.4 149.5 279.1 157.8 277.7H157.7ZM171 299.8C179 295.8 179.2 278.2 178.3 278C177.4 277.8 173.8 281.7 173 285.5C172.6 279.3 171.2 273.5 170 274C168.2 274.5 169.3 284.3 168.3 285.8C167.3 286.4 163.9 280.6 162.9 281.3C161.9 282 163.3 303.2 170.9 299.8H171ZM185.2 328.8C193.6 325.6 195.7 308 194.8 307.8C194 307.4 189.9 310.9 188.8 314.6C189.1 308.4 188.2 302.5 187 302.9C185.1 303.3 185.3 313.1 184.1 314.5C183.1 315.1 180.2 309 179.2 309.5C178.2 310.2 177.2 331.3 185.2 328.7V328.8Z" fill="#008F00"/>
<path fill-rule="evenodd" clip-rule="evenodd" d="M203.741 358.836C201.612 362.48 194.876 362.81 188.617 359.47C182.357 356.131 179.117 350.479 181.246 346.835C183.376 343.19 190.16 342.886 196.371 346.2C202.581 349.513 205.871 355.191 203.741 358.836Z" fill="#FF1900" stroke="black" stroke-width="0.73025"/>
<path fill-rule="evenodd" clip-rule="evenodd" d="M365.322 236.746L366.376 234.027L369.214 234.92L370.268 232.201L373.107 233.094L372.068 235.776L374.987 236.695L373.919 239.454L370.999 238.534L368.372 245.315L365.534 244.421L368.161 237.64L365.322 236.746ZM359.226 260.702L362.064 261.596L331.564 340.319L328.725 339.425L359.226 260.702Z" fill="#FFFF00" stroke="black" stroke-width="0.250748"/>
<path fill-rule="evenodd" clip-rule="evenodd" d="M327.784 337.624L333.542 339.437L325.127 361.158L319.369 359.345L327.784 337.624ZM361.641 246.247L370.278 248.967C375.995 250.767 363.029 263.447 363.029 263.447L357.312 261.646C357.312 261.646 355.883 244.433 361.641 246.247ZM369.579 246.426C369.133 247.575 367.52 248.098 365.939 247.6C364.357 247.102 363.416 245.774 363.846 244.663C364.277 243.552 365.905 242.99 367.486 243.489C369.068 243.987 370.009 245.315 369.564 246.464L369.579 246.426Z" fill="#FFFF00" stroke="black" stroke-width="0.250748"/>
<path fill-rule="evenodd" clip-rule="evenodd" d="M332.479 348.988C334.891 352.468 332.107 358.338 326.13 362.121C320.153 365.903 313.411 366.062 310.999 362.582C308.587 359.101 311.417 353.202 317.347 349.449C323.278 345.696 330.066 345.507 332.479 348.988Z" fill="#FF1900" stroke="black" stroke-width="0.730307"/>
</g>
<defs>
<clipPath id="clip0_3921_17525">
<rect width="512" height="512" fill="white"/>
</clipPath>
</defs>
</svg>
