<svg width="512" height="512" viewBox="0 0 512 512" fill="none" xmlns="http://www.w3.org/2000/svg">
<g clip-path="url(#clip0_3921_17720)">
<path d="M0 0H512V512H0V0Z" fill="#D20000"/>
<path d="M0 0H86.8L256 246.9L425.2 0H512L0 512H86.8L256 265.1L425.2 512H512L0 0ZM512 204.8V307.2L0 204.8V307.2L512 204.8ZM204.8 0L256 219.4L307.2 0H204.8ZM204.8 512L256 292.6L307.2 512H204.8Z" fill="#FFE600"/>
<path d="M255.999 338.3C301.452 338.3 338.299 301.453 338.299 256C338.299 210.547 301.452 173.7 255.999 173.7C210.546 173.7 173.699 210.547 173.699 256C173.699 301.453 210.546 338.3 255.999 338.3Z" fill="#FFE600" stroke="#D20000" stroke-width="18.3"/>
</g>
<defs>
<clipPath id="clip0_3921_17720">
<rect width="512" height="512" fill="white"/>
</clipPath>
</defs>
</svg>
