<svg width="512" height="512" viewBox="0 0 512 512" fill="none" xmlns="http://www.w3.org/2000/svg">
<g clip-path="url(#clip0_3921_17759)">
<mask id="mask0_3921_17759" style="mask-type:luminance" maskUnits="userSpaceOnUse" x="-1" y="0" width="513" height="512">
<path d="M-0.0390625 0H511.883V511.922H-0.0390625V0Z" fill="white"/>
</mask>
<g mask="url(#mask0_3921_17759)">
<path fill-rule="evenodd" clip-rule="evenodd" d="M-256 0H767.946V511.922H-256V0Z" fill="#0071BC"/>
<path fill-rule="evenodd" clip-rule="evenodd" d="M315.165 404.996C315.165 404.996 333.226 385.902 350.566 389.514C355.726 369.492 375.439 367.84 375.439 367.84C375.439 367.84 373.478 345.65 398.661 340.799C399.384 325.731 414.659 313.139 414.659 313.139C414.659 313.139 411.563 289.814 427.56 284.344C417.755 265.766 430.863 252.348 430.656 251.936C430.45 251.523 414.143 222.521 428.696 214.264C413.214 201.259 418.375 186.397 418.375 186.397C418.375 186.397 401.448 182.166 407.538 161.936C393.707 159.563 390.921 137.166 390.921 137.166C390.921 137.166 369.453 141.398 366.976 122.82C352.836 125.09 351.288 111.157 351.082 111.157C350.978 111.157 323.215 118.691 317.642 97.7398C306.908 103.21 302.16 93.3018 302.16 93.3018C302.16 93.3018 286.679 100.939 277.493 86.1803C259.122 97.6366 248.904 85.6643 248.904 85.6643C248.904 85.6643 224.753 101.662 216.805 89.2766C202.562 103.726 189.868 97.5334 189.868 97.5334C189.868 97.5334 179.134 116.524 161.691 111.673C157.769 129.425 137.747 129.735 137.747 129.735C137.747 129.735 139.811 145.423 115.866 149.551C112.77 167.923 100.281 171.122 100.281 171.122C100.281 171.122 101.52 188.977 90.1667 194.654C94.2951 204.769 83.7677 217.051 83.7677 217.051C83.7677 217.051 94.9144 231.19 79.7425 246.672C94.3983 250.491 83.8709 275.674 83.8709 275.674C83.8709 275.674 103.894 284.756 91.1988 301.476C105.648 306.018 101.107 317.577 101.313 324.286C110.602 328.414 118.653 326.35 114.731 344.928C143.01 348.024 129.593 363.712 129.593 363.712C129.593 363.712 142.804 364.228 137.643 374.652C161.691 374.136 165.2 392.714 165.2 392.714C165.2 392.714 187.597 386.831 190.59 395.501C193.48 404.17 180.785 462.587 180.785 462.587C180.785 462.587 161.898 462.587 147.758 447.518C114.834 446.693 122.162 425.019 121.646 425.019C121.13 425.019 110.706 428.941 105.339 410.879C83.2517 415.42 83.9741 396.842 83.7677 396.636C83.5613 396.533 73.8596 392.198 77.5751 383.012C54.8689 385.076 56.5202 362.886 56.5202 362.886C51.5662 360.822 49.7084 356.178 50.4309 351.533C47.541 350.501 27.3118 350.191 37.736 323.667C18.539 312.004 30.5113 298.586 30.5113 298.586C30.5113 298.586 3.88317 284.86 24.3187 269.068C9.25009 246.672 25.7637 235.319 25.7637 235.319C25.7637 235.319 4.60562 213.851 26.0733 198.576C22.5642 165.858 42.0709 158.118 42.0709 158.118C42.0709 158.118 31.7499 131.593 59.6166 120.446C61.3711 93.6114 80.7746 92.7858 80.7746 92.7858C80.7746 92.7858 81.2906 71.4213 111.738 73.5887C117.724 54.4948 138.572 58.3136 138.572 58.3136C138.572 58.3136 144.971 35.1946 173.251 46.3413C187.7 18.1649 209.065 32.6143 209.065 32.6143C209.065 32.6143 222.585 23.7383 229.397 26.4217C237.963 11.7659 256.232 25.9057 268.101 28.7956C272.436 27.1442 287.711 15.5847 299.477 30.1373C315.165 19.8163 328.479 38.3941 328.479 38.3941C328.479 38.3941 350.05 27.3506 360.061 52.4306C405.783 48.3022 399.177 78.1299 399.177 78.1299C399.177 78.1299 435.095 69.8731 427.251 105.687C459.968 107.958 456.665 129.425 456.665 129.425C456.665 129.425 477.307 145.113 468.225 159.15C486.596 159.975 479.888 177.728 479.888 177.728C479.888 177.728 493.924 183.094 482.262 204.975C509.199 226.546 487.422 247.807 487.422 247.704C487.112 247.498 501.768 265.043 488.557 285.169C492.583 317.164 476.379 325.318 476.379 325.318C476.379 325.318 480.507 345.96 462.548 351.843C462.136 376.097 439.223 379.09 439.223 379.09C439.223 379.09 445.416 389.618 422.606 400.764C421.677 417.072 397.939 418.31 397.939 418.31C397.939 418.31 395.668 448.241 365.428 440.191C358.203 464.135 322.802 457.014 322.08 456.704C321.357 456.395 315.268 405.306 315.268 405.099L315.165 404.996Z" fill="white" stroke="black" stroke-width="1.96099"/>
<path fill-rule="evenodd" clip-rule="evenodd" d="M95.8422 118.485C95.8422 118.485 103.48 125.091 102.035 134.999C100.59 144.907 94.9133 158.634 96.0487 168.852C96.7711 172.98 96.4615 180.308 96.4615 180.308C96.4615 180.308 89.6496 170.606 89.5464 160.182C89.4432 149.758 96.9775 139.85 96.9775 132.109C96.9775 124.368 95.6358 118.382 95.8422 118.485ZM92.0235 121.478C92.0235 121.478 82.1153 130.974 80.8768 140.159C79.8447 144.907 79.535 166.994 79.4318 176.902L77.6773 196.099C77.3676 200.434 84.902 188.668 85.418 179.173C85.0033 167.918 85.2446 156.649 86.1405 145.423C87.0694 141.295 86.863 136.857 88.2047 132.831L92.0235 121.478Z" fill="#217900" stroke="black" stroke-width="1.96099" stroke-linejoin="round"/>
<path fill-rule="evenodd" clip-rule="evenodd" d="M310.519 90.5151C310.519 90.5151 323.42 84.5289 327.032 73.4854C330.645 62.442 315.886 62.3388 313.925 65.8479C311.964 69.357 315.576 78.1299 314.647 80.4005C313.718 82.7743 308.455 88.3477 310.519 90.5151Z" fill="#FFD200" stroke="#EF8A10" stroke-width="1.96099"/>
<path fill-rule="evenodd" clip-rule="evenodd" d="M196.369 94.5404C196.369 94.5404 204.729 83.0841 202.562 71.6278C200.395 60.1715 187.39 67.293 187.39 71.3182C187.39 75.3434 194.821 81.2263 195.131 83.7034C195.441 86.1804 193.583 93.6115 196.369 94.5404ZM173.766 101.352C173.766 101.352 182.126 89.896 179.959 78.4397C177.792 66.9834 164.787 74.1049 164.787 78.13C164.787 82.1552 172.218 88.0382 172.528 90.5152C172.838 92.9923 170.98 100.423 173.766 101.352ZM148.686 109.093C148.686 109.093 157.046 97.6367 154.879 86.1804C152.712 74.7241 139.707 81.8456 139.707 85.8708C139.707 89.896 147.138 95.779 147.448 98.256C147.758 100.733 145.9 108.164 148.686 109.093ZM131.141 126.639C131.141 126.639 139.398 115.286 137.333 103.829C135.063 92.373 122.058 99.4945 122.058 103.52C122.058 107.545 129.489 113.428 129.799 115.905C130.109 118.382 128.251 125.813 131.038 126.742L131.141 126.639ZM112.563 143.772C112.563 143.772 120.82 132.315 118.756 120.859C116.485 109.403 103.48 116.524 103.48 120.549C103.48 124.575 110.912 130.458 111.221 132.935C111.531 135.412 109.673 142.843 112.46 143.772H112.563Z" fill="#FFD200" stroke="#EF8A10" stroke-width="2.68346"/>
<path fill-rule="evenodd" clip-rule="evenodd" d="M155.188 44.5869C155.188 44.5869 144.041 53.3597 143.113 64.9192C142.08 76.582 156.53 73.176 157.562 69.3573C158.594 65.5385 153.124 57.7977 153.434 55.3207C153.846 52.8437 157.562 46.2382 155.188 44.5869ZM192.344 33.1306C192.344 33.1306 181.197 41.9034 180.165 53.4629C179.133 65.1257 193.582 61.7197 194.718 57.901C195.853 54.0822 190.28 46.3414 190.589 43.8644C191.002 41.3874 194.718 34.7819 192.344 33.1306ZM53.9391 133.347C53.9391 133.347 56.2098 147.384 65.9115 153.783C75.6132 160.182 79.6384 146.042 76.7485 143.152C73.8587 140.263 64.4666 141.604 62.5056 140.056C60.4414 138.611 56.5194 132.006 53.9391 133.347ZM35.3613 180.824C35.3613 180.824 35.4646 195.067 44.031 202.911C52.5974 210.858 58.79 197.441 56.4162 194.138C54.0424 190.835 44.547 190.629 42.7925 188.874C41.0379 187.017 38.148 179.998 35.3613 180.824ZM78.1935 233.874C78.1935 233.874 73.033 220.663 62.2991 216.328C51.5653 211.89 50.43 226.649 53.8359 228.714C57.1387 230.984 66.2211 227.991 68.3885 229.023C70.6591 230.055 75.8196 235.732 78.1935 233.874ZM69.2142 210.961C69.2142 210.961 77.8839 199.608 75.9229 188.255C73.9619 176.696 60.8542 183.611 60.751 187.636C60.6478 191.661 67.9757 197.647 68.2853 200.124C68.595 202.601 66.5308 210.032 69.3174 210.961H69.2142ZM336.941 101.972C336.941 101.972 349.739 95.9854 353.455 84.942C357.17 73.8985 342.308 73.7953 340.347 77.3044C338.386 80.8136 341.998 89.5864 341.069 91.857C340.14 94.2309 334.877 99.8042 336.941 101.972ZM375.851 121.375C375.851 121.375 383.385 109.403 380.496 98.0496C377.606 86.7998 365.014 94.7469 365.324 98.7721C365.633 102.797 373.374 108.164 373.89 110.641C374.406 113.118 372.961 120.653 375.851 121.375ZM482.157 231.707C482.157 231.707 476.997 218.496 466.263 214.058C455.529 209.62 454.394 224.379 457.697 226.649C461.103 228.714 470.082 225.72 472.352 226.856C474.623 227.888 479.784 233.564 482.157 231.707ZM430.14 239.963C430.14 239.963 430.449 225.72 439.119 217.98C447.788 210.239 453.775 223.656 451.401 226.856C448.924 230.055 439.428 230.262 437.674 232.016C435.919 233.771 432.926 240.892 430.14 239.963ZM421.78 89.5864C421.78 89.5864 408.569 84.5291 398.041 89.5864C387.514 94.6437 397.835 105.481 401.757 104.345C405.679 103.21 409.291 94.6437 411.665 93.6116C414.039 92.5795 421.573 92.5795 421.78 89.5864ZM391.436 64.1968C391.436 64.1968 378.225 59.1395 367.698 64.1968C357.17 69.2541 367.491 80.0911 371.413 78.9558C375.335 77.8205 379.051 69.2541 381.321 68.222C383.592 67.1898 391.333 67.1899 391.436 64.1968ZM346.23 39.9424C346.23 39.9424 334.98 48.6121 333.845 60.2748C332.709 71.9375 347.262 68.6348 348.294 64.816C349.429 60.894 343.959 53.2565 344.372 50.7795C344.785 48.3024 348.604 41.697 346.23 40.0456V39.9424ZM316.712 33.0273C316.712 33.0273 311.551 46.2382 316.609 56.7656C321.666 67.2931 332.4 56.9721 331.368 53.1533C330.335 49.3345 321.563 45.5158 320.634 43.1419C319.705 40.7681 319.602 33.2338 316.712 33.0273ZM233.112 83.9099C233.112 83.9099 242.297 73.176 240.956 61.5133C239.614 49.8506 226.093 56.1464 225.784 60.1716C225.474 64.1968 232.492 70.4926 232.699 73.0728C232.699 75.5499 230.428 82.7746 233.112 83.9099Z" fill="#FFD200" stroke="#EF8A10" stroke-width="1.96099"/>
<path fill-rule="evenodd" clip-rule="evenodd" d="M282.963 107.029C282.963 107.029 304.946 108.474 306.082 121.065C307.217 133.657 300.818 141.294 300.818 141.294C300.818 141.294 303.605 168.542 282.034 176.489C259.018 179.276 222.895 177.108 222.895 177.108C222.895 177.108 212.367 179.792 208.032 157.808C203.697 135.824 202.459 120.24 202.459 120.24C202.459 120.24 204.626 107.958 220.108 107.235C235.589 106.409 282.86 107.338 283.066 107.029H282.963Z" fill="#8C8A8C" stroke="black" stroke-width="1.96099"/>
<path d="M300.715 141.191C300.715 141.191 288.846 155.95 290.085 161.833" stroke="black" stroke-width="1.96099" stroke-linecap="round"/>
<path fill-rule="evenodd" clip-rule="evenodd" d="M284.819 175.767C287.709 178.244 290.496 180.927 291.115 190.01L292.354 208.175L307.732 346.476L321.253 446.487L322.182 461.968C322.182 461.968 318.982 473.321 309.796 474.353C303.294 488.08 267.48 492.105 263.971 491.899C260.772 491.796 249.315 487.048 242.4 487.667C235.485 488.287 223.513 492.828 218.146 492.105C212.779 491.383 200.6 487.151 198.536 478.378C183.467 473.631 180.99 462.174 180.99 462.174L197.297 346.476L213.089 200.124C213.089 200.124 214.946 180.618 222.79 177.728C230.944 177.005 273.054 178.553 284.819 175.664V175.767Z" fill="#8C8A8C" stroke="black" stroke-width="1.96099"/>
<path d="M201.84 375.994L198.641 478.275M301.335 389.515L310.314 473.837" stroke="black" stroke-width="1.96099"/>
<path d="M38.4578 322.738L38.0449 323.976M463.477 319.125L463.786 320.158" stroke="black" stroke-width="1.0321"/>
<path d="M27.0024 184.643C27.0024 184.643 33.8143 193.932 34.9496 199.299C36.0849 204.666 38.4587 215.193 41.3486 219.528C44.3417 223.759 60.9585 247.807 61.9906 257.819C61.9906 264.321 54.9723 275.571 44.4449 275.777C37.9427 275.571 21.0162 271.236 20.2938 256.787C19.5713 242.337 25.4542 241.924 26.1767 233.048C26.8992 224.172 27.0024 184.849 27.0024 184.54V184.643Z" stroke="#6B18B5" stroke-width="1.96099" stroke-linejoin="round"/>
<path d="M142.7 57.7977C142.7 57.7977 135.682 58.2105 130.315 61.1004C126.187 63.6806 119.169 67.293 114.214 74.208C101.726 83.9098 82.8386 88.451 76.9556 96.6046C73.3433 102.075 73.5497 115.389 82.529 120.962C88.2055 124.265 104.926 129.322 112.976 117.35C121.233 105.274 116.279 101.868 120.201 94.0244C126.909 75.9626 142.597 57.9009 142.7 57.6944V57.7977ZM311.655 40.0455C311.655 40.0455 306.495 35.2979 300.612 33.5433C295.864 32.3048 288.02 32.8208 279.866 31.9952C264.075 29.8277 247.871 18.4746 237.963 19.8164C231.564 21.1581 222.172 30.5502 224.339 40.768C225.888 47.167 233.009 60.0683 247.355 57.488C261.598 55.011 261.495 51.8115 269.958 49.2312C290.497 37.6717 311.449 39.9423 311.655 39.9423V40.0455ZM479.268 202.911C480.507 200.227 478.236 195.273 476.791 189.287C475.243 184.643 473.076 177.418 467.605 171.019C461.103 156.57 462.239 136.65 455.84 129.013C451.298 124.162 438.294 121.169 430.76 128.496C426.218 133.244 417.342 148.21 427.044 159.047C436.746 169.884 440.977 165.755 447.686 171.432C463.683 182.166 471.424 200.95 479.268 202.911ZM473.695 329.653C475.759 326.556 479.784 320.88 479.268 316.029C478.959 312.107 481.023 300.548 481.332 295.387C482.777 279.699 492.685 266.798 489.899 253.071C488.351 246.775 478.959 237.589 468.844 240.273C462.548 242.234 448.615 249.871 451.814 264.011C455.014 278.254 459.555 277.945 462.651 286.305C471.321 303.437 465.748 323.77 473.695 329.653Z" stroke="#6B18B5" stroke-width="1.0321" stroke-linejoin="round"/>
<path d="M357.377 430.179C357.377 430.179 354.694 435.34 365.427 439.778M378.845 418C378.845 418 390.714 415.11 398.764 418M414.452 387.863C414.452 388.069 412.801 393.23 422.296 400.661M421.264 374.446C421.264 374.446 428.282 379.606 440.048 379.4M350.565 389.514C350.565 389.514 350.978 403.138 343.96 409.537M374.097 368.46C374.097 368.46 385.553 371.349 395.049 366.602M447.995 348.54C447.995 348.54 450.472 352.049 463.271 351.43M398.248 340.49C398.558 340.696 413.214 345.444 422.503 341.109M427.457 284.343C427.457 284.343 428.076 283.621 432.617 299.515M438.81 239.654C438.81 239.654 438.19 248.117 431.379 251.832M482.261 205.078C482.261 205.078 472.353 213.129 474.211 216.431M432.927 199.298C432.927 199.298 438.087 207.968 429.727 213.954M408.053 162.246C408.053 162.246 416.929 161.833 420.851 169.471M391.333 137.063H398.145M426.631 106.1C426.631 106.409 428.489 108.061 424.98 111.57M363.363 107.029C363.363 107.029 368.111 114.46 367.285 123.542M390.714 81.8454C392.778 81.639 399.796 78.5427 399.796 78.5427M360.267 52.3274C360.06 52.3274 357.583 61.6163 362.125 64.919M348.811 94.6435C348.811 104.552 356.655 102.075 351.288 111.57M329.614 86.3867C325.045 89.5814 320.885 93.325 317.228 97.5333M297.928 81.2262C297.928 81.2262 303.089 86.3867 301.85 93.4049M282.859 77.0978C282.859 77.0978 280.176 84.9417 276.667 87.0059M255.406 75.0336C255.199 75.4464 251.071 84.3225 248.181 85.9738M217.94 75.24C218.147 75.24 222.069 83.4968 216.908 89.483M209.271 32.6143C209.477 32.8207 210.096 39.0133 206.174 44.3802M172.115 46.6508C172.115 46.8572 173.87 53.6691 162.826 55.9397M151.37 109.402C151.576 109.815 161.897 111.467 161.897 111.467M125.671 133.244L138.159 129.322M105.648 148.726C106.061 148.726 114.317 150.17 116.382 149.138M99.8681 156.363C99.8681 156.363 102.552 157.808 100.281 171.638M59.6162 120.033L64.6735 127.464M42.793 158.221C42.793 158.014 47.7471 165.652 54.3525 167.097M81.7031 197.028C81.9096 197.028 89.7535 195.273 90.992 194.448M78.194 224.998C78.4004 224.998 77.9876 219.837 84.3866 216.328M69.7308 237.796C69.7308 238.002 75.717 245.433 79.8454 246.465M66.2217 251.935C66.8409 251.729 73.2399 246.156 80.671 246.569M64.1575 271.133C64.1575 271.133 64.3638 277.532 83.3545 275.88M66.0152 293.736C66.0152 293.529 71.5886 280.938 82.9417 276.19M81.2903 309.836C81.2903 309.836 82.9417 304.469 92.437 300.754M91.8177 330.994C91.8177 330.994 98.6296 325.421 101.107 324.595M100.281 347.508C100.281 347.508 104.409 351.843 114.73 344.412M50.5337 350.914C51.7722 350.707 66.7377 347.198 71.8982 355.042M56.4167 363.299C56.4167 363.299 72.311 361.235 74.3752 362.886M113.182 366.602C113.182 366.602 111.118 370.937 130.728 363.712M137.437 374.446C133.927 380.329 138.262 385.076 133.721 387.863M77.9876 382.703C78.5036 382.186 85.2123 379.916 84.1802 370.524M83.8705 396.842C84.6962 396.636 95.6365 391.888 97.9071 394.365M105.235 410.776C105.235 410.776 106.68 401.074 109.776 400.042M121.645 425.432C121.645 425.432 130.728 425.225 134.65 422.335M139.191 392.611C139.398 392.817 147.654 397.152 165.2 392.817M145.797 432.037C145.797 432.037 148.274 444.525 148.067 447.518" stroke="black" stroke-width="1.96099"/>
<path fill-rule="evenodd" clip-rule="evenodd" d="M462.364 238.594C461.873 234.662 459.855 230.921 457.319 229.242C454.258 227.494 451.587 227.828 449.305 230.243C445.882 233.866 446.035 236.642 446.527 240.574C447.195 244.883 448.884 248.066 451.596 250.123C454.784 251.854 457.455 251.52 459.61 249.121C462.842 245.523 463.071 242.699 462.389 238.791L462.364 238.594Z" fill="#DE2010" stroke="black" stroke-width="2.60249"/>
<path fill-rule="evenodd" clip-rule="evenodd" d="M460.608 217.643C460.117 213.711 458.099 209.97 455.563 208.29C452.503 206.543 449.831 206.877 447.549 209.292C444.126 212.914 444.279 215.69 444.771 219.622C445.439 223.931 447.129 227.114 449.84 229.171C453.028 230.903 455.7 230.569 457.854 228.17C461.087 224.571 461.315 221.747 460.633 217.839L460.608 217.643Z" fill="#DE2010" stroke="black" stroke-width="2.60249"/>
<path fill-rule="evenodd" clip-rule="evenodd" d="M456.293 195.37C455.458 191.496 453.119 187.947 450.446 186.497C447.244 185.025 444.612 185.593 442.551 188.199C439.46 192.108 439.856 194.86 440.691 198.733C441.735 202.967 443.698 205.99 446.58 207.8C449.908 209.245 452.54 208.677 454.475 206.098C457.379 202.229 457.358 199.396 456.335 195.564L456.293 195.37Z" fill="#DE2010" stroke="black" stroke-width="2.60249"/>
<path fill-rule="evenodd" clip-rule="evenodd" d="M448.575 172.026C446.78 168.493 443.614 165.658 440.659 164.937C437.187 164.33 434.787 165.55 433.459 168.595C431.466 173.163 432.551 175.723 434.346 179.256C436.435 183.084 439.103 185.506 442.352 186.522C445.938 187.07 448.338 185.851 449.552 182.863C451.373 178.382 450.631 175.648 448.665 172.203L448.575 172.026Z" fill="#DE2010" stroke="black" stroke-width="2.60249"/>
<path fill-rule="evenodd" clip-rule="evenodd" d="M440.319 153.242C438.524 149.709 435.358 146.873 432.403 146.152C428.931 145.546 426.531 146.765 425.203 149.811C423.21 154.379 424.295 156.939 426.09 160.472C428.179 164.299 430.847 166.721 434.096 167.738C437.682 168.286 440.082 167.066 441.296 164.079C443.117 159.598 442.375 156.864 440.409 153.418L440.319 153.242Z" fill="#DE2010" stroke="black" stroke-width="2.60249"/>
<path fill-rule="evenodd" clip-rule="evenodd" d="M428.602 134.422C426.515 131.054 423.12 128.497 420.114 128.029C416.604 127.718 414.316 129.137 413.25 132.284C411.651 137.004 412.949 139.463 415.036 142.831C417.442 146.468 420.306 148.655 423.629 149.393C427.248 149.636 429.536 148.217 430.493 145.138C431.929 140.519 430.958 137.857 428.707 134.59L428.602 134.422Z" fill="#DE2010" stroke="black" stroke-width="2.60249"/>
<path fill-rule="evenodd" clip-rule="evenodd" d="M415.484 116.241C413.08 113.091 409.454 110.874 406.417 110.698C402.893 110.729 400.753 112.362 399.996 115.597C398.861 120.45 400.391 122.772 402.794 125.922C405.54 129.31 408.602 131.21 411.981 131.623C415.607 131.514 417.747 129.881 418.402 126.724C419.384 121.987 418.16 119.432 415.604 116.399L415.484 116.241Z" fill="#DE2010" stroke="black" stroke-width="2.60249"/>
<path fill-rule="evenodd" clip-rule="evenodd" d="M399.882 99.4023C397.048 96.6337 393.138 94.9656 390.108 95.2321C386.626 95.7732 384.745 97.6992 384.465 101.01C384.046 105.976 385.896 108.052 388.73 110.821C391.938 113.774 395.243 115.211 398.646 115.129C402.218 114.496 404.099 112.57 404.289 109.351C404.574 104.523 402.993 102.172 400.024 99.5408L399.882 99.4023Z" fill="#DE2010" stroke="black" stroke-width="2.6025"/>
<path fill-rule="evenodd" clip-rule="evenodd" d="M382.293 83.7486C379.216 81.2525 375.169 79.9511 372.177 80.4951C368.759 81.3542 367.063 83.445 367.089 86.7675C367.128 91.7513 369.161 93.6479 372.239 96.1441C375.705 98.7902 379.128 99.9163 382.509 99.5223C386.008 98.5637 387.704 96.4729 387.597 93.25C387.436 88.4155 385.646 86.2202 382.447 83.8734L382.293 83.7486Z" fill="#DE2010" stroke="black" stroke-width="2.60249"/>
<path fill-rule="evenodd" clip-rule="evenodd" d="M363.627 71.3277C360.178 69.3771 355.971 68.7655 353.111 69.7987C349.883 71.2133 348.558 73.5566 349.135 76.8287C350.001 81.7368 352.321 83.2697 355.77 85.2203C359.627 87.2544 363.19 87.7966 366.458 86.8468C369.749 85.3206 371.075 82.9773 370.434 79.8168C369.473 75.0761 367.343 73.2085 363.799 71.4252L363.627 71.3277Z" fill="#DE2010" stroke="black" stroke-width="2.60249"/>
<path fill-rule="evenodd" clip-rule="evenodd" d="M342.743 60.3535C339.13 58.7249 334.886 58.4987 332.131 59.7881C329.046 61.4906 327.939 63.9448 328.812 67.1507C330.121 71.9597 332.57 73.275 336.183 74.9036C340.209 76.5782 343.806 76.7938 346.975 75.5504C350.113 73.7311 351.22 71.2768 350.294 68.1878C348.906 63.5541 346.615 61.8882 342.923 60.4349L342.743 60.3535Z" fill="#DE2010" stroke="black" stroke-width="2.60249"/>
<path fill-rule="evenodd" clip-rule="evenodd" d="M322.323 52.0637C318.61 50.6809 314.359 50.7398 311.697 52.2109C308.733 54.1164 307.793 56.6393 308.879 59.7795C310.508 64.4898 313.04 65.638 316.753 67.0208C320.883 68.4217 324.486 68.3956 327.564 66.9427C330.574 64.917 331.513 62.3942 330.383 59.3741C328.687 54.844 326.289 53.3354 322.509 52.1328L322.323 52.0637Z" fill="#DE2010" stroke="black" stroke-width="2.60249"/>
<path fill-rule="evenodd" clip-rule="evenodd" d="M301.573 45.522C297.764 44.4266 293.531 44.8097 290.989 46.4796C288.179 48.6059 287.434 51.1931 288.757 54.2414C290.74 58.8137 293.352 59.7652 297.161 60.8606C301.385 61.9423 304.976 61.6413 307.934 59.9577C310.78 57.7082 311.524 55.121 310.167 52.196C308.13 47.8084 305.624 46.4873 301.763 45.5767L301.573 45.522Z" fill="#DE2010" stroke="black" stroke-width="2.6025"/>
<path fill-rule="evenodd" clip-rule="evenodd" d="M278.64 41.6482C274.709 41.1524 270.585 42.1829 268.331 44.2244C265.881 46.7581 265.544 49.429 267.32 52.2373C269.984 56.4496 272.712 56.9875 276.643 57.4833C280.983 57.9015 284.485 57.0511 287.149 54.932C289.615 52.271 289.951 49.6001 288.16 46.9191C285.472 42.8975 282.792 41.9781 278.837 41.673L278.64 41.6482Z" fill="#DE2010" stroke="black" stroke-width="2.60249"/>
<path fill-rule="evenodd" clip-rule="evenodd" d="M256.079 40.4308C252.12 40.2719 248.099 41.65 246.027 43.8762C243.802 46.6095 243.694 49.2994 245.703 51.9461C248.716 55.9161 251.48 56.2196 255.439 56.3785C259.799 56.4253 263.216 55.2795 265.689 52.9411C267.919 50.0798 268.027 47.3898 266.013 44.8712C262.993 41.0934 260.244 40.4056 256.277 40.4388L256.079 40.4308Z" fill="#DE2010" stroke="black" stroke-width="2.6025"/>
<path fill-rule="evenodd" clip-rule="evenodd" d="M235.333 41.05C231.374 40.891 227.353 42.2691 225.281 44.4953C223.056 47.2286 222.948 49.9186 224.957 52.5652C227.97 56.5353 230.734 56.8387 234.693 56.9977C239.053 57.0445 242.47 55.8987 244.943 53.5603C247.173 50.6989 247.281 48.0089 245.267 45.4904C242.246 41.7125 239.498 41.0248 235.531 41.0579L235.333 41.05Z" fill="#DE2010" stroke="black" stroke-width="2.6025"/>
<path fill-rule="evenodd" clip-rule="evenodd" d="M211.161 44.0335C207.298 44.9165 203.778 47.2992 202.361 49.9902C200.929 53.2105 201.529 55.8349 204.161 57.8635C208.108 60.9063 210.855 60.4757 214.718 59.5927C218.938 58.4964 221.936 56.4962 223.711 53.5919C225.114 50.2466 224.514 47.6222 221.911 45.7186C218.007 42.8633 215.174 42.919 211.354 43.9894L211.161 44.0335Z" fill="#DE2010" stroke="black" stroke-width="2.60249"/>
<path fill-rule="evenodd" clip-rule="evenodd" d="M189.074 49.5212C185.297 50.7198 181.986 53.3847 180.795 56.1835C179.634 59.5109 180.449 62.0769 183.238 63.8815C187.423 66.5883 190.125 65.9326 193.902 64.734C198.018 63.2934 200.84 61.0527 202.37 58.0119C203.492 54.5622 202.678 51.9962 199.927 50.3138C195.8 47.7903 192.982 48.0794 189.263 49.4613L189.074 49.5212Z" fill="#DE2010" stroke="black" stroke-width="2.6025"/>
<path fill-rule="evenodd" clip-rule="evenodd" d="M168.961 58.2227C165.354 59.8626 162.383 62.9029 161.535 65.8235C160.778 69.2656 161.892 71.7163 164.877 73.1757C169.354 75.3648 171.959 74.392 175.566 72.752C179.481 70.8314 182.017 68.2705 183.173 65.0692C183.876 61.5104 182.762 59.0597 179.83 57.717C175.433 55.7029 172.669 56.3257 169.141 58.1407L168.961 58.2227Z" fill="#DE2010" stroke="black" stroke-width="2.60248"/>
<path fill-rule="evenodd" clip-rule="evenodd" d="M148.882 68.4992C145.428 70.4409 142.727 73.7236 142.131 76.7059C141.671 80.2 142.99 82.5467 146.088 83.7462C150.736 85.5453 153.248 84.3538 156.702 82.4121C160.439 80.1645 162.747 77.3966 163.626 74.1084C164.023 70.5026 162.704 68.1558 159.668 67.0681C155.115 65.4366 152.414 66.2928 149.054 68.4021L148.882 68.4992Z" fill="#DE2010" stroke="black" stroke-width="2.60248"/>
<path fill-rule="evenodd" clip-rule="evenodd" d="M129.917 81.3572C126.694 83.6628 124.366 87.2194 124.098 90.2489C124.02 93.7723 125.586 95.9618 128.797 96.8174C133.613 98.1009 135.98 96.6435 139.203 94.338C142.673 91.6976 144.667 88.6953 145.183 85.331C145.186 81.7034 143.62 79.5139 140.484 78.7625C135.78 77.6354 133.188 78.7801 130.078 81.242L129.917 81.3572Z" fill="#DE2010" stroke="black" stroke-width="2.60249"/>
<path fill-rule="evenodd" clip-rule="evenodd" d="M112.313 94.6504C109.297 97.2204 107.279 100.961 107.267 104.003C107.488 107.52 109.234 109.569 112.505 110.15C117.412 111.021 119.648 109.369 122.664 106.799C125.899 103.874 127.631 100.714 127.861 97.3181C127.557 93.7032 125.811 91.6541 122.623 91.1708C117.84 90.4458 115.355 91.8057 112.464 94.5219L112.313 94.6504Z" fill="#DE2010" stroke="black" stroke-width="2.60248"/>
<path fill-rule="evenodd" clip-rule="evenodd" d="M96.8139 110.889C93.9899 113.669 92.245 117.545 92.4517 120.579C92.924 124.071 94.8125 125.99 98.1172 126.335C103.074 126.852 105.186 125.044 108.01 122.264C111.026 119.115 112.527 115.839 112.513 112.435C111.951 108.851 110.063 106.933 106.848 106.679C102.026 106.299 99.6442 107.834 96.9551 110.75L96.8139 110.889Z" fill="#DE2010" stroke="black" stroke-width="2.60249"/>
<path fill-rule="evenodd" clip-rule="evenodd" d="M83.5081 128.935C80.9267 131.942 79.5124 135.95 79.9724 138.957C80.7353 142.397 82.7778 144.151 86.0997 144.218C91.0826 144.319 93.0355 142.339 95.6169 139.333C98.3592 135.943 99.5808 132.552 99.2817 129.162C98.4215 125.638 96.3791 123.884 93.1544 123.9C88.3174 123.925 86.0727 125.654 83.6372 128.785L83.5081 128.935Z" fill="#DE2010" stroke="black" stroke-width="2.60249"/>
<path fill-rule="evenodd" clip-rule="evenodd" d="M71.3436 147.328C69.0975 150.593 68.1187 154.729 68.8967 157.669C70.0222 161.009 72.24 162.535 75.5502 162.247C80.5154 161.816 82.2461 159.64 84.4923 156.376C86.8574 152.712 87.7105 149.211 87.0515 145.872C85.8204 142.459 83.6026 140.933 80.398 141.294C75.5912 141.834 73.5436 143.792 71.4559 147.165L71.3436 147.328Z" fill="#DE2010" stroke="black" stroke-width="2.60249"/>
<path fill-rule="evenodd" clip-rule="evenodd" d="M61.1547 168.268C59.5027 171.869 59.249 176.112 60.5204 178.875C62.2029 181.972 64.6499 183.094 67.8614 182.242C72.6787 180.965 74.0099 178.524 75.6618 174.922C77.3625 170.907 77.6014 167.311 76.3787 164.134C74.5797 160.984 72.1327 159.862 69.0377 160.767C64.3952 162.125 62.7145 164.406 61.2373 168.088L61.1547 168.268Z" fill="#DE2010" stroke="black" stroke-width="2.60249"/>
<path fill-rule="evenodd" clip-rule="evenodd" d="M53.0157 190.16C51.697 193.897 51.829 198.145 53.3457 200.781C55.3019 203.713 57.8406 204.609 60.9616 203.469C65.6432 201.76 66.7476 199.208 68.0663 195.472C69.3959 191.319 69.3079 187.716 67.8022 184.663C65.725 181.689 63.1864 180.793 60.1862 181.976C55.686 183.749 54.2189 186.173 53.0816 189.973L53.0157 190.16Z" fill="#DE2010" stroke="black" stroke-width="2.60247"/>
<path fill-rule="evenodd" clip-rule="evenodd" d="M46.1085 231.445C45.7425 234.608 46.9083 237.884 49.023 239.637C51.6361 241.532 54.3167 241.732 57.0649 240.235C61.1871 237.989 61.6348 235.789 62.0008 232.626C62.2757 229.138 61.3103 226.354 59.1046 224.276C56.3639 222.371 53.6832 222.172 51.0627 223.678C47.132 225.938 46.3013 228.109 46.1268 231.287L46.1085 231.445Z" fill="#DE2010" stroke="black" stroke-width="2.33111"/>
<path fill-rule="evenodd" clip-rule="evenodd" d="M47.928 212.181C47.0474 216.044 47.6667 220.249 49.4762 222.694C51.7563 225.381 54.3811 225.979 57.3506 224.489C61.8048 222.253 62.6087 219.591 63.4893 215.728C64.333 211.45 63.8316 207.881 61.9852 205.022C59.58 202.306 56.9553 201.708 54.1108 203.227C49.8441 205.505 48.6652 208.081 47.9721 211.988L47.928 212.181Z" fill="#DE2010" stroke="black" stroke-width="2.60249"/>
<path fill-rule="evenodd" clip-rule="evenodd" d="M445.828 202.291C448.167 199.539 450.782 198.679 453.672 199.711C452.639 192.486 450.369 190.113 447.479 190.938C444.796 191.764 443.557 195.48 445.724 202.291H445.828ZM449.646 223.966C452.433 221.385 454.807 220.869 457.697 221.901C457.181 214.677 455.117 212.096 452.33 212.819C449.543 213.541 447.995 216.947 449.646 223.862V223.966ZM440.358 182.372C442.215 179.069 444.279 177.727 447.479 177.934C444.589 171.328 441.802 169.471 439.325 171.019C436.848 172.567 436.539 176.489 440.358 182.372ZM430.759 162.762C432.41 159.459 434.75 157.946 437.777 158.221C434.991 151.512 432.101 149.758 429.624 151.306C427.25 152.854 426.94 156.776 430.759 162.659V162.762ZM407.64 126.432C408.81 122.992 410.874 121.134 413.833 120.859C410.014 114.666 406.917 113.428 404.75 115.389C402.583 117.35 402.892 121.168 407.64 126.432ZM392.468 110.641C393.431 107.201 395.461 105.308 398.557 104.964C394.429 98.9782 391.333 97.7397 389.269 99.8039C387.101 101.765 387.514 105.584 392.468 110.641ZM360.679 83.8064C360.542 80.1596 361.849 77.7514 364.601 76.5817C358.925 72.0404 355.519 71.9372 354.177 74.5175C352.732 76.9945 354.487 80.5036 360.679 83.8064ZM377.193 96.1916C377.812 92.476 379.257 90.515 382.353 89.6893C377.503 84.3224 374.2 83.5999 372.445 85.8706C370.588 88.1412 371.62 91.8567 377.296 96.1916H377.193ZM341.792 73.3822C341.31 69.8042 342.342 67.2584 344.888 65.7446C338.696 61.9258 335.496 62.0291 334.361 64.7125C333.226 67.396 335.29 70.8019 341.792 73.3822ZM322.492 65.0221C321.46 61.4098 322.079 59.036 324.556 56.9718C317.847 54.0819 314.648 54.8044 313.925 57.591C313.203 60.3777 315.68 63.3708 322.492 65.0221ZM301.747 58.6231C300.405 55.114 300.818 52.6369 303.088 50.3663C296.173 48.0957 292.974 49.0246 292.458 51.9145C291.942 54.8044 294.728 57.591 301.747 58.6231ZM281.311 54.7011C279.728 51.4672 279.969 48.715 282.033 46.4443C275.015 44.5866 271.919 45.7219 271.609 48.6118C271.3 51.5016 274.189 54.0819 281.311 54.5979V54.7011ZM259.637 53.0498C257.71 49.8847 257.71 47.1324 259.637 44.793C252.412 43.6577 249.316 45.1026 249.316 47.9925C249.419 50.8824 252.619 53.153 259.637 53.0498ZM217.321 56.1461C214.74 53.4626 214.018 51.0888 215.257 48.1989C208.032 48.8182 205.452 50.9856 206.174 53.7723C206.896 56.5589 210.509 58.1071 217.321 56.1461ZM238.169 53.4626C235.898 50.3663 235.589 47.9925 237.137 45.2058C229.912 44.8962 227.022 46.6508 227.435 49.5406C227.745 52.4305 231.151 54.3915 238.169 53.4626ZM196.885 60.6873C193.789 58.3135 192.86 56.0429 193.582 52.9466C186.564 54.7011 184.294 57.1782 185.429 59.8616C186.564 62.5451 190.383 63.474 196.782 60.5841L196.885 60.6873ZM157.665 78.6459C154.431 76.9945 152.883 74.6895 153.021 71.7308C146.415 74.8271 144.764 77.6138 146.312 79.9876C147.964 82.4646 151.886 82.6711 157.665 78.6459ZM176.553 68.9441C173.525 67.0175 172.287 64.5749 172.837 61.6162C165.922 63.7836 163.858 66.4671 165.2 69.0473C166.541 71.6276 170.36 72.2468 176.553 69.0473V68.9441ZM122.574 103.003C119.065 102.247 117.069 100.354 116.588 97.3269C110.808 101.662 109.673 104.861 111.737 106.822C113.801 108.886 117.723 108.164 122.574 103.107V103.003ZM139.294 89.4829C135.854 88.382 134.03 86.3178 133.824 83.2903C127.631 87.1091 126.393 90.2054 128.25 92.3728C130.211 94.5402 134.03 94.2306 139.294 89.4829ZM107.608 117.659C104.099 117.109 101.966 115.389 101.209 112.499C95.7393 117.246 95.0168 120.549 97.2875 122.304C99.4549 124.161 103.274 123.233 107.608 117.659ZM94.2944 134.999C90.7164 134.792 88.4114 133.244 87.3793 130.354C82.4252 135.721 82.0124 139.024 84.3862 140.675C86.76 142.326 90.4756 140.881 94.2944 134.999ZM83.1477 152.751C79.5698 153.163 77.0583 151.994 75.6134 149.242C71.485 155.331 71.485 158.634 74.1684 159.872C76.8519 161.111 80.2578 159.253 83.1477 152.751ZM73.3428 171.741C69.6272 172.464 67.2534 171.741 65.3956 169.264C62.1961 175.663 62.6089 178.966 65.3956 179.895C68.1822 180.721 71.2786 178.45 73.3428 171.638V171.741ZM65.4988 191.145C62.1273 192.521 59.375 192.108 57.242 189.906C55.1778 196.821 56.1067 200.021 58.8934 200.434C61.68 200.847 64.5699 198.06 65.4988 191.145ZM60.2351 212.819C57.0012 214.333 54.2489 214.092 51.9783 212.096C50.2237 219.115 51.4622 222.211 54.3521 222.417C57.242 222.727 59.8222 219.734 60.2351 212.716V212.819ZM58.1709 230.777C55.0058 232.429 52.2535 232.635 49.9141 231.397C48.882 237.073 50.4301 239.344 53.32 239.137C56.2099 238.931 58.4805 236.351 58.0677 230.777H58.1709ZM422.193 145.113C423.362 141.673 425.426 139.849 428.385 139.643C424.67 133.45 421.573 132.109 419.406 133.966C417.238 135.927 417.548 139.746 422.193 145.113ZM452.02 245.846C454.807 243.369 457.181 242.75 460.071 243.988C459.555 236.764 457.49 234.08 454.704 234.699C451.814 235.422 450.369 239.034 452.02 245.846Z" fill="#FFE300"/>
<path fill-rule="evenodd" clip-rule="evenodd" d="M423.638 127.98C423.534 127.98 415.381 136.031 416.826 145.939C418.168 155.847 424.463 168.026 423.328 178.244C422.193 188.461 420.232 195.273 420.232 195.273C420.232 195.273 429.83 184.436 429.933 174.012C430.037 163.691 423.431 149.861 423.431 142.223C423.431 134.586 423.741 127.774 423.638 127.877V127.98ZM438.603 161.008C438.603 161.008 432.204 165.755 432.823 176.489C433.443 187.223 444.589 207.039 444.589 207.039C444.589 207.039 452.743 223.759 452.433 228.094C452.227 232.429 453.981 223.966 453.156 214.367C452.33 204.872 440.048 183.817 440.048 183.817C440.048 183.817 437.468 179.482 437.674 172.361C437.984 165.136 438.706 161.111 438.603 161.008Z" fill="#217900" stroke="black" stroke-width="1.96099" stroke-linejoin="round"/>
<path fill-rule="evenodd" clip-rule="evenodd" d="M247.666 27.6601C247.666 25.3895 245.085 23.5317 241.989 23.5317C238.893 23.5317 236.416 25.3895 236.416 27.6601C236.416 29.8275 238.893 31.6853 241.989 31.6853C245.085 31.6853 247.562 29.8275 247.562 27.5569L247.666 27.6601ZM250.039 36.949C250.039 34.8848 247.356 33.1303 244.26 33.1303C241.06 33.1303 238.48 34.8848 238.48 37.0522C238.48 39.2197 241.06 40.871 244.26 40.871C247.459 40.871 250.039 39.1164 250.039 36.949ZM257.161 25.9056C257.161 25.9056 250.555 30.8596 253.239 32.8206C255.922 34.7816 263.56 28.4858 263.56 28.4858L257.161 25.9056ZM450.886 139.024C450.891 138.356 450.733 137.698 450.428 137.105C450.122 136.512 449.677 136.001 449.132 135.618C448.615 135.263 448.003 135.073 447.377 135.073C446.75 135.073 446.139 135.263 445.622 135.618C445.095 136.013 444.671 136.528 444.383 137.12C444.096 137.713 443.955 138.365 443.971 139.024C443.966 139.691 444.124 140.349 444.429 140.943C444.735 141.536 445.18 142.046 445.726 142.43C446.231 142.763 446.823 142.94 447.428 142.94C448.034 142.94 448.626 142.763 449.132 142.43C449.677 142.046 450.122 141.536 450.428 140.943C450.733 140.349 450.891 139.691 450.886 139.024ZM448.306 129.632C448.306 127.258 446.758 125.4 444.693 125.4C442.629 125.4 441.081 127.258 441.081 129.632C441.081 132.005 442.732 133.863 444.693 133.863C446.654 133.863 448.306 132.005 448.306 129.632ZM450.06 148.829C450.06 147.59 449.441 146.558 448.615 146.558C447.79 146.558 447.274 147.59 447.274 148.829C447.274 150.067 447.893 150.996 448.615 150.996C449.338 150.996 450.06 149.964 450.06 148.829ZM455.84 131.696C455.84 130.251 455.221 129.116 454.498 129.116C453.776 129.116 453.053 130.251 453.053 131.696C453.053 133.141 453.673 134.173 454.498 134.173C455.324 134.035 455.771 133.21 455.84 131.696ZM440.049 133.347C440.049 132.315 439.43 131.283 438.604 131.283C437.778 131.283 437.159 132.315 437.159 133.347C437.159 134.379 437.778 135.411 438.604 135.411C439.499 135.274 439.98 134.586 440.049 133.347ZM442.526 146.971C442.526 145.113 441.184 143.565 439.533 143.565C437.882 143.565 436.54 145.113 436.54 146.971C436.54 148.829 437.882 150.17 439.636 150.17C441.391 150.17 442.526 148.725 442.526 146.868V146.971ZM434.682 140.985C434.682 139.437 433.547 138.095 432.102 138.095C430.657 138.095 429.625 139.333 429.625 140.985C429.625 142.636 430.76 143.771 432.102 143.771C433.547 143.771 434.682 142.533 434.682 140.985ZM433.444 132.934C433.444 132.04 433.1 131.352 432.411 130.87C432.074 130.648 431.68 130.53 431.276 130.53C430.873 130.53 430.478 130.648 430.141 130.87C429.783 131.072 429.493 131.377 429.309 131.745C429.125 132.112 429.056 132.527 429.109 132.934C429.109 133.829 429.453 134.517 430.141 134.999C430.467 135.199 430.842 135.306 431.225 135.306C431.607 135.306 431.983 135.199 432.308 134.999C432.666 134.796 432.956 134.492 433.14 134.124C433.324 133.756 433.393 133.342 433.34 132.934H433.444ZM469.257 173.702C465.955 169.367 460.794 167.51 457.595 169.574C454.498 171.638 454.498 176.799 457.801 181.133C461.001 185.468 466.264 187.223 469.361 185.159C472.56 183.094 472.457 177.934 469.257 173.702ZM478.546 252.761C479.062 247.497 476.482 242.853 472.767 242.44C468.948 241.924 465.335 245.846 464.716 251.11C464.097 256.27 466.677 261.018 470.496 261.431C474.315 261.844 477.824 258.025 478.443 252.761H478.546ZM480.404 298.69C481.436 293.529 479.372 288.781 475.656 287.956C471.838 287.13 468.019 290.742 466.884 295.903C465.748 301.063 467.916 305.914 471.734 306.74C475.45 307.462 479.372 303.953 480.404 298.793V298.69ZM489.28 255.651C489.28 253.587 487.835 251.935 486.184 251.935C484.532 251.935 483.088 253.587 483.088 255.651C483.088 257.715 484.429 259.47 486.184 259.47C487.938 259.47 489.28 257.715 489.28 255.651ZM481.539 264.321L475.14 271.545C475.14 271.545 469.051 271.752 469.361 273.713C469.67 275.674 477.721 281.66 477.617 284.034C477.514 286.408 482.984 283.415 482.984 283.415L487.319 270.204C487.319 270.204 487.113 261.121 484.739 261.224C482.365 261.328 481.746 264.114 481.643 264.321H481.539ZM57.7591 261.431C57.7591 260.61 57.4329 259.822 56.8522 259.241C56.2716 258.661 55.484 258.334 54.6628 258.334C53.8416 258.334 53.0541 258.661 52.4734 259.241C51.8928 259.822 51.5665 260.61 51.5665 261.431C51.5665 262.252 51.8928 263.04 52.4734 263.62C53.0541 264.201 53.8416 264.527 54.6628 264.527C55.484 264.527 56.2716 264.201 56.8522 263.62C57.4329 263.04 57.7591 262.252 57.7591 261.431ZM60.649 252.142C60.649 250.284 59.2041 248.839 57.5527 248.839C55.9013 248.839 54.4564 250.284 54.4564 252.039C54.4564 253.793 55.9013 255.341 57.5527 255.341C59.2041 255.341 60.649 253.896 60.649 252.039V252.142ZM35.4658 207.452C34.3305 204.872 31.8534 203.427 30.0989 204.356C28.2411 205.078 27.725 207.865 28.8603 210.445C30.0989 213.025 32.4727 214.47 34.2273 213.541C36.085 212.819 36.6011 210.032 35.4658 207.452ZM43.0001 235.319C41.452 231.913 38.1493 230.055 35.7754 231.19C33.4016 232.326 32.4727 235.731 34.0208 239.034C35.569 242.337 38.9749 244.195 41.452 243.163C43.929 242.131 44.5483 238.621 43.0001 235.215V235.319ZM51.2569 255.651C51.6698 251.523 50.0184 247.601 47.3349 247.085C44.6515 246.569 42.1744 249.458 41.6584 253.587C41.1423 257.715 42.7937 261.637 45.4772 262.153C48.0574 262.669 50.6377 259.779 51.1537 255.651H51.2569ZM38.1492 258.541C39.6974 254.722 39.1813 250.594 36.7043 249.252C34.2273 247.91 31.131 250.181 29.4796 254C27.8282 257.818 28.4475 262.05 30.8213 263.289C33.1952 264.527 36.4979 262.463 38.046 258.644L38.1492 258.541Z" fill="#6B18B5"/>
<path fill-rule="evenodd" clip-rule="evenodd" d="M32.1632 249.768C32.1632 247.807 30.615 246.259 28.7572 246.259C26.8994 246.259 25.3513 247.911 25.3513 249.871C25.3513 251.832 26.8994 253.381 28.7572 253.381C30.615 253.381 32.1632 251.832 32.1632 249.871V249.768ZM29.4797 240.995C29.508 240.572 29.4489 240.147 29.306 239.747C29.1631 239.347 28.9395 238.981 28.6492 238.671C28.3588 238.362 28.0078 238.115 27.618 237.947C27.2282 237.778 26.808 237.692 26.3834 237.693C24.6288 237.693 23.2871 239.138 23.2871 240.995C23.2871 242.853 24.6288 244.195 26.3834 244.195C28.138 244.195 29.4797 242.75 29.4797 240.995ZM32.3696 223.966C32.3696 220.869 31.0278 218.496 29.2733 218.496C27.7251 218.496 26.3834 220.973 26.3834 223.966C26.3834 226.959 27.7251 229.436 29.3765 229.436C31.0279 229.436 32.3696 226.959 32.3696 223.966ZM41.5553 222.624C41.8649 219.631 40.936 217.051 39.2847 216.844C37.6333 216.638 35.9819 218.908 35.5691 221.798C35.1563 224.895 36.1884 227.372 37.8397 227.681C39.4911 227.991 41.1424 225.617 41.5553 222.624ZM106.887 92.1666C108.126 88.0382 106.887 83.7034 104.101 82.6713C101.314 81.6392 98.1143 84.3227 96.8758 88.5543C95.6373 92.7859 96.8758 97.0175 99.6625 98.0496C102.449 99.0817 105.649 96.3982 106.887 92.1666ZM94.502 111.054C98.1144 107.958 99.6625 103.623 97.9079 101.456C96.2566 99.2881 91.9218 100.011 88.2062 103.107C84.4906 106.203 83.0457 110.435 84.8003 112.705C86.4516 114.77 90.7865 114.15 94.502 111.054ZM87.2773 100.527C90.7865 97.9464 92.4378 94.2308 90.6832 92.2698C88.9287 90.3088 84.6971 91.1345 81.0847 93.7148C77.4724 96.3982 75.9242 100.114 77.5756 101.972C79.2269 103.829 83.665 103.21 87.2773 100.527ZM115.144 82.1552C117.621 80.4007 118.653 77.8204 117.518 76.4787C116.383 75.137 113.389 75.653 111.016 77.5108C108.642 79.3686 107.506 81.8456 108.642 83.1873C109.777 84.5291 112.77 84.1162 115.144 82.1552Z" fill="#6B18B5"/>
<path fill-rule="evenodd" clip-rule="evenodd" d="M100.59 100.01C102.241 97.4302 102.344 94.6435 100.796 93.8179C99.3514 92.9922 96.6679 94.3339 95.1197 96.9142C93.5716 99.4944 93.2619 102.281 94.8101 103.107C96.3582 103.932 98.9385 102.591 100.59 100.01ZM121.645 88.967C124.225 86.7996 125.257 83.8065 123.915 82.4648C122.47 81.123 119.271 81.7423 116.691 83.9097C114.11 86.0771 113.078 89.0702 114.42 90.5151C115.762 91.8569 118.961 91.2376 121.645 88.967ZM83.5602 114.666C85.934 114.563 87.7918 113.325 87.6886 111.983C87.4822 110.538 85.3148 109.506 82.9409 109.712C80.4639 109.712 78.6061 111.054 78.8125 112.396C79.019 113.737 81.0832 114.769 83.5602 114.666ZM129.489 75.4465C131.14 72.763 131.243 70.0795 129.695 69.2539C128.25 68.325 125.567 69.7699 124.019 72.3502C122.47 74.9304 122.264 77.6139 123.709 78.5428C125.257 79.3684 127.837 77.9235 129.489 75.4465Z" fill="#6B18B5"/>
<path fill-rule="evenodd" clip-rule="evenodd" d="M406.402 153.267C406.402 153.267 413.937 141.294 411.047 129.941C408.157 118.691 395.565 126.639 395.875 130.664C396.184 134.689 403.925 140.056 404.441 142.533C404.957 145.01 403.616 152.544 406.402 153.267Z" fill="#FFD200" stroke="#EF8A10" stroke-width="1.0321"/>
<path fill-rule="evenodd" clip-rule="evenodd" d="M261.805 53.5662C261.805 53.5662 289.052 54.5983 289.259 72.2472C289.155 75.0339 289.259 78.2334 288.226 86.1806C290.892 84.4046 293.052 81.9699 294.499 79.1127C295.946 76.2554 296.629 73.0727 296.483 69.8734C296.69 51.9148 272.229 39.7361 261.805 53.5662Z" fill="#217900" stroke="black" stroke-width="2.47704" stroke-linejoin="round"/>
<path fill-rule="evenodd" clip-rule="evenodd" d="M244.465 52.7403C244.465 52.7403 266.449 48.199 266.655 65.8479C266.861 83.3936 259.637 86.2835 259.637 86.2835C259.637 86.2835 276.563 82.6712 276.563 64.8158C276.666 46.8573 254.889 38.9101 244.465 52.7403Z" fill="#217900" stroke="black" stroke-width="2.47704" stroke-linejoin="round"/>
<path fill-rule="evenodd" clip-rule="evenodd" d="M319.189 433.791C319.189 433.791 422.09 404.789 453.053 278.46C434.991 408.092 322.389 449.17 322.389 449.17L319.086 433.791H319.189Z" fill="#F7DF73" stroke="black" stroke-width="2.68346" stroke-linejoin="round"/>
<path fill-rule="evenodd" clip-rule="evenodd" d="M329.716 441.739C332.916 441.739 340.759 432.966 345.301 432.037C349.842 431.108 350.358 426.464 345.094 426.257C339.934 426.154 335.393 432.14 335.393 432.14C335.393 432.14 330.955 436.062 326.207 436.475C321.562 436.991 324.556 442.874 329.716 441.635V441.739Z" fill="#8C1800"/>
<path fill-rule="evenodd" clip-rule="evenodd" d="M389.063 397.462C389.063 397.462 378.329 403.654 379.774 405.203C381.323 406.647 390.818 399.32 391.024 399.113C391.231 399.01 395.05 394.262 388.96 397.462H389.063Z" fill="#8C1800" stroke="#8C1800" stroke-width="2.68346"/>
<path fill-rule="evenodd" clip-rule="evenodd" d="M351.701 425.638C351.701 425.638 348.501 424.503 356.655 421.303C364.808 418.104 364.395 414.388 366.976 412.943C369.762 411.395 375.439 407.37 376.574 409.744C377.71 412.118 370.588 416.762 368.937 417.278C367.285 417.794 359.029 425.329 356.655 425.948C354.384 426.67 352.63 426.257 351.701 425.638Z" fill="#8C1800"/>
<path d="M404.958 381.774C397.94 389.618 397.939 389.411 397.939 389.411" stroke="#8C1800" stroke-width="3.19951" stroke-linecap="round"/>
<path d="M415.484 368.873L408.775 377.129" stroke="#8C1800" stroke-width="2.99309" stroke-linecap="round"/>
<path d="M426.011 352.152L418.477 364.125" stroke="#8C1800" stroke-width="2.68346" stroke-linecap="round"/>
<path d="M434.888 335.02L428.695 347.405M438.913 325.937L436.849 330.375" stroke="#8C1800" stroke-width="2.47704" stroke-linecap="round"/>
<path d="M443.454 314.068L441.803 319.228" stroke="#8C1800" stroke-width="1.44494" stroke-linecap="round"/>
<path fill-rule="evenodd" clip-rule="evenodd" d="M184.184 431.219C184.184 431.219 82.0994 401.57 51.4742 272.89C69.3389 404.999 181.043 446.749 181.043 446.749L184.184 431.219Z" fill="#F7DF73" stroke="black" stroke-width="2.65315" stroke-linejoin="round"/>
<path fill-rule="evenodd" clip-rule="evenodd" d="M173.766 439.159C170.669 439.159 162.825 430.283 158.284 429.251C153.846 428.219 153.433 423.574 158.491 423.471C163.651 423.264 168.192 429.457 168.192 429.457C168.192 429.457 172.63 433.379 177.275 433.895C181.919 434.411 178.926 440.294 173.766 439.056V439.159Z" fill="#8C1800"/>
<path fill-rule="evenodd" clip-rule="evenodd" d="M115.08 394.107C115.08 394.107 125.681 400.561 124.111 402.175C122.737 403.587 113.313 396.124 113.117 395.922C112.921 395.721 109.191 390.88 115.08 394.107Z" fill="#8C1800" stroke="#8C1800" stroke-width="2.65315"/>
<path fill-rule="evenodd" clip-rule="evenodd" d="M152.092 422.748C152.092 422.748 155.188 421.613 147.035 418.31C138.984 415.111 139.397 411.395 136.714 409.847C134.03 408.299 128.457 404.171 127.425 406.544C126.393 408.918 133.308 413.769 134.959 414.285C136.61 414.801 144.764 422.439 147.035 423.161C149.374 423.712 151.06 423.574 152.092 422.748Z" fill="#8C1800"/>
<path d="M99.375 378.173L106.246 386.039" stroke="#8C1800" stroke-width="3.18378" stroke-linecap="round"/>
<path d="M88.7745 365.063L95.4492 373.333" stroke="#8C1800" stroke-width="2.98479" stroke-linecap="round"/>
<path d="M78.3701 347.919L85.8301 360.223" stroke="#8C1800" stroke-width="2.78581" stroke-linecap="round"/>
<path d="M69.5363 330.574L75.8184 343.28M65.6099 321.296L67.5731 325.733" stroke="#8C1800" stroke-width="2.58682" stroke-linecap="round"/>
<path d="M61.0945 309.194L62.8613 314.64" stroke="#8C1800" stroke-width="1.59189" stroke-linecap="round"/>
<path fill-rule="evenodd" clip-rule="evenodd" d="M458.11 255.135C458.626 263.082 466.367 270.617 463.271 284.55C459.452 300.135 445.725 337.497 448.202 343.999C444.074 338.426 444.796 333.265 444.487 325.421C444.177 317.577 455.736 288.885 456.769 279.08C456.769 270.307 457.594 258.438 458.11 255.135Z" fill="#217900" stroke="black" stroke-width="2.47704" stroke-linejoin="round"/>
<path fill-rule="evenodd" clip-rule="evenodd" d="M458.11 255.341C458.11 255.341 470.701 271.339 470.082 284.034C469.36 296.625 462.341 311.488 464.715 318.093C460.587 312.52 459.555 308.907 459.245 301.167C458.935 293.426 465.438 284.859 464.199 276.396C462.961 267.933 458.007 255.341 458.007 255.341H458.11ZM43.8248 258.85C43.3088 266.798 37.4258 273.919 40.4189 287.749C44.3409 303.334 58.171 323.253 55.9004 346.063C59.7532 340.26 61.7344 333.416 61.577 326.453C61.8866 318.712 46.1986 292.6 45.1665 282.795C45.1665 274.022 44.3409 262.153 43.8248 258.85Z" fill="#217900" stroke="black" stroke-width="2.47704" stroke-linejoin="round"/>
<path fill-rule="evenodd" clip-rule="evenodd" d="M43.826 259.057C43.826 259.057 31.4408 274.539 32.1632 287.233C32.3697 295.593 47.8512 330.891 45.5805 337.497C49.6057 331.923 50.741 332.543 50.5346 324.079C45.9934 302.509 37.943 288.678 39.2847 280.318C40.6264 271.958 44.0324 259.057 43.826 259.057Z" fill="#217900" stroke="black" stroke-width="2.47704" stroke-linejoin="round"/>
<path d="M254.156 117.204L284.558 211.462H384.053L303.904 269.786L334.444 364.044L254.295 305.859L174.146 364.044L204.547 269.786L124.26 211.462H223.479L254.156 117.204Z" fill="white" stroke="black" stroke-width="2.07297" stroke-linecap="square" stroke-linejoin="round"/>
</g>
</g>
<defs>
<clipPath id="clip0_3921_17759">
<rect width="512" height="512" fill="white"/>
</clipPath>
</defs>
</svg>
