<svg width="512" height="512" viewBox="0 0 512 512" fill="none" xmlns="http://www.w3.org/2000/svg">
<g clip-path="url(#clip0_3921_17872)">
<path d="M0 0H512V512H0V0Z" fill="white"/>
<path d="M256 0H512V512H256V0Z" fill="#CF142B"/>
<path d="M90.1798 53.7261H127.822V89.4825C129.251 89.3811 130.725 89.616 132.131 90.1689C133.538 90.7218 134.838 91.5778 135.93 92.6705C137.023 93.7632 137.879 95.0632 138.432 96.4694C138.985 97.8756 139.22 99.3503 139.118 100.779H174.875V138.421H139.118C139.22 139.85 138.985 141.324 138.432 142.731C137.879 144.137 137.023 145.437 135.93 146.529C134.838 147.622 133.538 148.478 132.131 149.031C130.725 149.584 129.251 149.819 127.822 149.717V185.474H90.1798V149.717C88.7512 149.819 87.2765 149.584 85.8703 149.031C84.4641 148.478 83.1641 147.622 82.0714 146.529C80.9787 145.437 80.1226 144.137 79.5697 142.731C79.0169 141.324 78.782 139.85 78.8834 138.421H43.127V100.779H78.8834C78.782 99.3503 79.0169 97.8756 79.5697 96.4694C80.1226 95.0632 80.9787 93.7632 82.0714 92.6705C83.1641 91.5778 84.4641 90.7218 85.8703 90.1689C87.2765 89.616 88.7512 89.3811 90.1798 89.4825V53.7261Z" stroke="#CF142B" stroke-width="4.70528"/>
<path d="M127.602 89.5008C129.061 89.3613 130.576 89.5758 132.023 90.1266C133.471 90.6775 134.81 91.5492 135.931 92.6705C137.053 93.7917 137.924 95.1308 138.475 96.5784C139.026 98.0259 139.24 99.5408 139.101 100.999V138.2C139.24 139.659 139.026 141.174 138.475 142.622C137.924 144.069 137.053 145.408 135.931 146.529C134.81 147.651 133.471 148.522 132.023 149.073C130.576 149.624 129.061 149.839 127.602 149.699H90.4012C88.9427 149.839 87.4277 149.624 85.9802 149.073C84.5327 148.522 83.1936 147.651 82.0723 146.529C80.951 145.408 80.0794 144.069 79.5285 142.622C78.9776 141.174 78.7632 139.659 78.9027 138.2V100.999C78.7632 99.5408 78.9776 98.0259 79.5285 96.5784C80.0794 95.1308 80.951 93.7917 82.0723 92.6705C83.1936 91.5492 84.5327 90.6775 85.9802 90.1266C87.4277 89.5758 88.9427 89.3613 90.4012 89.5008H127.602Z" fill="white"/>
<path d="M90.4005 53.9468H127.602V185.253H90.4005V53.9468ZM43.3477 101H174.654V138.201H43.3477V101Z" fill="white" stroke="black" stroke-width="0.44112"/>
<path d="M92.5333 56.0786H125.47V183.121H92.5333V56.0786ZM45.4805 103.131H172.523V136.068H45.4805V103.131Z" fill="white" stroke="black" stroke-width="0.88224"/>
<path d="M109.002 149.008C125.243 149.008 138.41 135.841 138.41 119.6C138.41 103.358 125.243 90.1919 109.002 90.1919C92.7602 90.1919 79.5938 103.358 79.5938 119.6C79.5938 135.841 92.7602 149.008 109.002 149.008Z" fill="white" stroke="black" stroke-width="0.88224"/>
<path d="M109 141.362C121.019 141.362 130.762 131.619 130.762 119.6C130.762 107.581 121.019 97.8379 109 97.8379C96.9814 97.8379 87.2383 107.581 87.2383 119.6C87.2383 131.619 96.9814 141.362 109 141.362Z" fill="white" stroke="black" stroke-width="0.88224"/>
<path d="M137.342 96.0277C136.321 96.8088 134.382 98.8031 133.206 100.264L132.112 99.5842C133.61 98.2884 135.687 96.3677 136.836 94.9984L137.342 96.0277ZM136.413 94.3275C134.566 94.8698 131.037 95.9082 129.53 96.864L129.199 96.3861C129.833 95.4763 130.55 91.736 130.523 90.6699L131.671 90.9272C131.295 91.8462 130.927 93.8129 130.826 95.0903C132.011 94.8789 134.823 93.9599 135.623 93.381L136.413 94.3275Z" fill="white" stroke="black" stroke-width="0.44112" stroke-linejoin="round"/>
<path d="M138.783 98.5375H137.326C137.456 97.7679 137.247 96.8039 136.732 95.8018C136.217 94.7997 135.427 93.8182 134.49 93.0162C133.552 92.2143 132.523 91.639 131.567 91.3835C130.612 91.128 129.787 91.2072 129.226 91.6085C128.665 92.0097 128.401 92.7093 128.476 93.5941C128.552 94.4788 128.963 95.4968 129.643 96.483C130.323 97.4693 131.231 98.366 132.221 99.028C133.212 99.6899 134.226 100.078 135.099 100.13L136.129 98.9014L137.398 100.171L135.978 101.59C134.654 101.393 133.351 100.917 132.157 100.195C130.963 99.4723 129.906 98.5201 129.058 97.4024C128.209 96.2847 127.588 95.0275 127.238 93.7157C126.888 92.404 126.815 91.0682 127.026 89.7988C128.279 89.5907 129.595 89.6581 130.89 89.9965C132.185 90.3349 133.429 90.9366 134.54 91.7621C135.65 92.5876 136.603 93.6181 137.334 94.7859C138.065 95.9537 138.559 97.2322 138.783 98.5375Z" fill="white" stroke="black" stroke-width="0.44112" stroke-linejoin="round"/>
<path d="M132.572 147.942C131.791 146.922 129.797 144.983 128.335 143.807L129.015 142.713C130.311 144.211 132.232 146.288 133.601 147.437L132.572 147.942ZM134.272 147.014C133.73 145.167 132.691 141.638 131.736 140.131L132.214 139.8C133.123 140.434 136.864 141.151 137.93 141.123L137.672 142.272C136.753 141.895 134.787 141.528 133.509 141.426C133.721 142.612 134.64 145.424 135.219 146.224L134.272 147.014Z" fill="white" stroke="black" stroke-width="0.44112" stroke-linejoin="round"/>
<path d="M130.063 149.383V147.926C130.833 148.056 131.797 147.847 132.799 147.332C133.801 146.817 134.782 146.027 135.584 145.09C136.386 144.153 136.962 143.123 137.217 142.167C137.473 141.212 137.393 140.387 136.992 139.826C136.591 139.265 135.891 139.001 135.007 139.076C134.122 139.152 133.104 139.563 132.118 140.243C131.131 140.923 130.235 141.831 129.573 142.821C128.911 143.812 128.522 144.826 128.47 145.699L129.699 146.729L128.43 147.998L127.011 146.578C127.208 145.254 127.684 143.951 128.406 142.757C129.128 141.563 130.08 140.506 131.198 139.658C132.316 138.809 133.573 138.189 134.885 137.838C136.197 137.488 137.532 137.415 138.802 137.626C139.01 138.879 138.942 140.196 138.604 141.491C138.266 142.786 137.664 144.029 136.838 145.14C136.013 146.25 134.982 147.203 133.815 147.934C132.647 148.665 131.368 149.159 130.063 149.383Z" fill="white" stroke="black" stroke-width="0.44112" stroke-linejoin="round"/>
<path d="M80.6584 143.173C81.6785 142.391 83.6176 140.397 84.7939 138.936L85.8876 139.616C84.3896 140.912 82.3126 142.832 81.1639 144.202L80.6584 143.173ZM81.5866 144.873C83.4338 144.33 86.9628 143.292 88.4699 142.336L88.8008 142.814C88.1667 143.724 87.4499 147.464 87.4774 148.53L86.3287 148.273C86.7055 147.354 87.0731 145.387 87.1742 144.11C85.9886 144.321 83.1765 145.24 82.377 145.819L81.5866 144.873Z" fill="white" stroke="black" stroke-width="0.44112" stroke-linejoin="round"/>
<path d="M79.217 140.663H80.6745C80.5442 141.432 80.7533 142.396 81.268 143.398C81.7826 144.4 82.5727 145.382 83.5101 146.184C84.4475 146.986 85.4774 147.561 86.4329 147.817C87.3883 148.072 88.2134 147.993 88.7744 147.592C89.3353 147.191 89.5993 146.491 89.5236 145.606C89.4479 144.721 89.0369 143.703 88.3572 142.717C87.6774 141.731 86.7688 140.834 85.7786 140.172C84.7884 139.51 83.7745 139.122 82.9012 139.07L81.871 140.299L80.6019 139.03L82.0218 137.611C83.3459 137.808 84.649 138.283 85.8429 139.006C87.0369 139.728 88.0938 140.68 88.9424 141.798C89.7911 142.916 90.4115 144.173 90.762 145.484C91.1124 146.796 91.1846 148.132 90.9737 149.401C89.7215 149.609 88.4045 149.542 87.1095 149.204C85.8146 148.865 84.5709 148.264 83.4603 147.438C82.3498 146.613 81.3975 145.582 80.6661 144.414C79.9348 143.247 79.4409 141.968 79.217 140.663Z" fill="white" stroke="black" stroke-width="0.44112" stroke-linejoin="round"/>
<path d="M85.43 91.2581C86.2112 92.2781 88.2054 94.2172 89.6666 95.3936L88.9866 96.4872C87.6908 94.9892 85.7701 92.9123 84.4008 91.7635L85.43 91.2581ZM83.7299 92.1862C84.2721 94.0334 85.3106 97.5624 86.2663 99.0696L85.7884 99.4004C84.8786 98.7663 81.1383 98.0495 80.0723 98.077L80.3296 96.9283C81.2486 97.3051 83.2152 97.6727 84.4927 97.7738C84.2813 96.5883 83.3623 93.7761 82.7833 92.9766L83.7299 92.1862Z" fill="white" stroke="black" stroke-width="0.44112" stroke-linejoin="round"/>
<path d="M87.9389 89.8171V91.2746C87.1693 91.1443 86.2053 91.3534 85.2032 91.8681C84.2011 92.3827 83.2195 93.1728 82.4176 94.1102C81.6157 95.0476 81.0404 96.0775 80.7848 97.033C80.5293 97.9884 80.6086 98.8135 81.0098 99.3745C81.4111 99.9354 82.1107 100.199 82.9954 100.124C83.8802 100.048 84.8981 99.637 85.8844 98.9573C86.8706 98.2775 87.7674 97.3689 88.4293 96.3787C89.0913 95.3884 89.4797 94.3746 89.5315 93.5013L88.3028 92.4711L89.572 91.202L90.9909 92.6218C90.794 93.946 90.3184 95.2491 89.596 96.443C88.8737 97.637 87.9215 98.6939 86.8038 99.5425C85.6861 100.391 84.4289 101.012 83.1171 101.362C81.8054 101.712 80.4696 101.785 79.2001 101.574C78.9921 100.322 79.0595 99.0046 79.3979 97.7096C79.7363 96.4147 80.338 95.171 81.1635 94.0604C81.989 92.9499 83.0195 91.9976 84.1873 91.2662C85.355 90.5349 86.6336 90.041 87.9389 89.8171Z" fill="white" stroke="black" stroke-width="0.44112" stroke-linejoin="round"/>
<path d="M85.6474 136.05C84.9858 134.892 84.1127 133.412 83.6348 133.026C83.9289 132.824 84.3241 132.53 84.5263 132.475C84.5171 133.21 85.6291 134.736 85.6291 134.736L87.2649 133.66C86.8054 132.953 86.401 132.411 86.0702 132.199C86.4745 131.905 86.9065 131.657 87.0259 131.629C87.0351 131.988 87.2465 132.585 87.8714 133.32C87.8714 133.32 89.397 132.512 89.8932 131.887L90.5365 132.934C89.8197 133.072 86.6032 135.076 85.6474 136.05ZM83.3775 122.109C81.659 122.421 80.7859 123.882 81.08 125.527C81.3741 127.191 82.8629 128.33 84.4987 128.055C86.1345 127.77 87.0627 126.263 86.7502 124.516C86.4378 122.77 85.096 121.796 83.3775 122.109ZM83.6256 123.101C85.0041 122.853 86.1621 123.524 86.3551 124.59C86.5481 125.656 85.6934 126.713 84.3057 126.961C82.918 127.209 81.8152 126.327 81.659 125.435C81.4936 124.526 82.238 123.349 83.6256 123.101ZM86.9892 112.992C86.4194 113.893 85.1604 114.72 84.0484 115.483C83.8922 114.692 83.304 114.187 82.6239 114.141C81.8979 114.104 81.1535 114.683 81.0249 115.069C80.8411 115.602 80.6113 117.89 80.6113 117.89C82.045 117.78 85.1788 118.028 86.254 118.423L86.3826 117.21C85.675 117.394 84.076 117.063 84.076 117.063L84.1127 116.53L85.7669 115.225C85.9783 115.06 87.2189 113.902 87.2557 113.075C87.2649 112.818 87.0443 112.882 86.9892 112.992ZM83.6716 117.045C83.0191 117.063 81.659 116.99 81.2822 116.824C81.4292 115.51 81.8336 115.042 82.532 115.106C83.1753 115.17 83.8554 115.538 83.6716 117.045ZM89.9392 100.76C88.6893 100.861 87.127 102.038 87.1638 103.049C87.173 103.582 87.3568 104.317 88.0644 104.85C88.7629 105.383 89.4889 105.539 90.0678 105.429C90.6284 105.328 91.5566 104.547 91.5474 104.115C91.5474 103.692 90.5549 102.516 89.93 102.516L90.9685 101.404C91.235 102.047 92.301 102.984 92.6962 103.104C92.2459 104.179 91.6853 105.3 90.509 105.842C89.3326 106.394 88.1104 106.366 86.9984 105.319C85.9507 104.326 86.3551 102.414 87.0168 101.67C87.7428 100.852 89.0937 100.503 89.1213 99.8688L89.9392 100.76ZM95.8024 94.5754L96.023 98.7477C96.023 98.7477 96.1057 100.227 95.7656 101.146L97.0614 100.236C96.556 99.8321 96.6571 98.5914 96.6571 98.5914L98.7524 97.4703C98.7524 97.4703 99.7449 98.1044 99.6438 98.8763L101.427 98.1503C100.388 97.7551 99.1016 96.8453 99.1016 96.8453L95.8024 94.5754ZM96.4733 95.8712L98.3848 97.1394L96.5192 98.1411L96.4733 95.8712ZM105.829 91.5151C105.59 92.5352 105.847 94.5478 106.224 96.2204C107.52 96.1009 108.512 95.9723 108.953 95.4209L109.073 96.7994C107.795 96.7994 106.389 96.9464 105.103 97.1486C105.121 95.2647 104.928 92.7925 104.395 91.7265L105.829 91.5151ZM115.561 92.1309C114.964 92.9947 114.467 94.9614 114.21 96.6523C115.46 97.0199 116.434 97.2589 117.05 96.9005L116.655 98.233C115.469 97.7735 114.1 97.3875 112.831 97.1027C113.53 95.3657 114.256 92.9855 114.155 91.8092L115.561 92.1309ZM125.403 96.588L121.764 98.6558C121.764 98.6558 120.478 99.4002 119.503 99.5104L120.891 100.246C121.029 99.6207 122.187 99.152 122.187 99.152L124.135 100.521C124.135 100.521 124.007 101.707 123.271 101.955L124.714 103.223C124.613 102.12 124.843 100.549 124.843 100.549L125.403 96.588ZM124.54 97.7643L124.255 100.053L122.518 98.8304L124.54 97.7643ZM127.333 106.329L126.764 105.254C127.701 105.181 130.522 103.526 131.818 102.681L132.02 103.049L130.807 108.59C131.892 108.158 133.61 107.258 134.079 106.761L134.722 107.984C133.518 107.809 131.285 108.912 129.594 109.941L129.429 109.647L130.467 104.252C130.467 104.252 127.664 105.521 127.333 106.329ZM135.88 114.343C135.77 113.525 135.751 112.965 135.356 112.781L135.31 112.441L136.312 112.275C136.725 113.351 137.194 116.347 137.13 117.118L136.101 117.284L136.055 116.999C136.395 116.613 136.055 115.198 136.055 115.198C134.529 115.354 131.873 115.786 131.496 116.31L131.257 114.894C131.8 115.078 134.474 114.793 135.88 114.343ZM130.945 126.511C131.515 125.61 132.792 124.792 133.904 124.039C134.06 124.829 134.639 125.344 135.329 125.38C136.055 125.426 136.799 124.866 136.928 124.47C137.121 123.937 137.36 121.658 137.36 121.658C135.926 121.75 132.801 121.484 131.726 121.079L131.588 122.292C132.296 122.118 133.895 122.449 133.895 122.449L133.858 122.982L132.195 124.277C131.974 124.443 130.724 125.592 130.678 126.419C130.669 126.676 130.89 126.603 130.945 126.511ZM134.299 122.476C134.952 122.467 136.312 122.55 136.689 122.715C136.532 124.029 136.119 124.498 135.42 124.425C134.777 124.351 134.106 123.983 134.299 122.476ZM129.098 130.159L128.243 131.629C128.905 131.528 129.824 132.052 130.568 132.539C130.816 133.201 131.79 134.892 131.717 136.546L132.82 134.653C132.333 134.432 131.763 134.193 131.395 132.42C132.847 131.878 133.932 131.703 134.391 131.96L135.365 130.306C134.235 130.986 131.579 131.685 131.138 131.538C130.678 131.271 129.373 130.867 129.098 130.159Z" fill="black"/>
<path d="M122.555 142.446C123.189 142.446 123.704 141.932 123.704 141.297C123.704 140.663 123.189 140.148 122.555 140.148C121.921 140.148 121.406 140.663 121.406 141.297C121.406 141.932 121.921 142.446 122.555 142.446Z" fill="black"/>
<path d="M95.4437 142.446C96.0781 142.446 96.5924 141.932 96.5924 141.297C96.5924 140.663 96.0781 140.148 95.4437 140.148C94.8092 140.148 94.2949 140.663 94.2949 141.297C94.2949 141.932 94.8092 142.446 95.4437 142.446Z" fill="black"/>
<path d="M110.793 147.663C110.673 147.746 110.352 147.58 110.278 147.323C110.278 147.406 110.26 147.663 110.104 147.81C109.727 148.168 109.322 147.994 109.001 147.994C108.679 147.994 108.275 148.168 107.898 147.81C107.742 147.663 107.723 147.406 107.723 147.323C107.65 147.58 107.328 147.746 107.209 147.663C107.098 147.58 107.154 147.222 107.374 147.075C107.301 147.093 107.043 147.158 106.859 147.056C106.4 146.808 106.446 146.367 106.345 146.064C106.244 145.761 105.95 145.43 106.179 144.961C106.271 144.768 106.51 144.667 106.584 144.64C106.317 144.649 106.069 144.391 106.106 144.263C106.152 144.125 106.51 144.07 106.722 144.235C106.666 144.171 106.538 143.95 106.575 143.739C106.666 143.224 107.098 143.132 107.356 142.939C107.622 142.746 107.843 142.37 108.357 142.443C108.569 142.471 108.734 142.664 108.789 142.728C108.697 142.48 108.863 142.158 109.001 142.158C109.139 142.158 109.304 142.48 109.212 142.728C109.267 142.664 109.433 142.471 109.644 142.443C110.159 142.37 110.379 142.746 110.646 142.939C110.903 143.132 111.335 143.224 111.427 143.739C111.464 143.95 111.335 144.171 111.28 144.235C111.491 144.07 111.85 144.125 111.896 144.263C111.932 144.391 111.684 144.649 111.418 144.64C111.491 144.667 111.73 144.768 111.822 144.961C112.052 145.43 111.758 145.761 111.657 146.064C111.556 146.367 111.601 146.808 111.142 147.056C110.958 147.158 110.701 147.093 110.627 147.075C110.848 147.222 110.903 147.58 110.793 147.663ZM108.146 146.376C108.293 146.487 107.898 146.818 108.054 147.231C108.229 147.718 108.716 147.571 109.001 147.571C109.286 147.571 109.773 147.718 109.947 147.231C110.104 146.818 109.708 146.487 109.855 146.376C110.002 146.266 110.205 146.744 110.637 146.735C111.16 146.707 111.17 146.211 111.252 145.935C111.344 145.66 111.638 145.246 111.225 144.924C110.885 144.649 110.434 144.924 110.379 144.75C110.324 144.575 110.839 144.538 110.967 144.116C111.105 143.61 110.627 143.454 110.398 143.279C110.159 143.114 109.855 142.71 109.423 142.994C109.065 143.243 109.185 143.748 109.001 143.748C108.817 143.748 108.936 143.243 108.578 142.994C108.146 142.71 107.843 143.114 107.604 143.279C107.374 143.454 106.896 143.61 107.034 144.116C107.163 144.538 107.677 144.575 107.622 144.75C107.567 144.924 107.117 144.649 106.777 144.924C106.363 145.246 106.657 145.66 106.749 145.935C106.832 146.211 106.841 146.707 107.365 146.735C107.797 146.744 107.999 146.266 108.146 146.376Z" fill="black"/>
<path d="M109 147.029C108.918 147.029 108.817 146.836 108.872 146.68C108.844 146.726 108.743 146.836 108.614 146.854C108.302 146.9 108.173 146.671 108.017 146.56C107.861 146.441 107.604 146.386 107.548 146.082C107.521 145.954 107.604 145.816 107.631 145.779C107.502 145.88 107.291 145.843 107.264 145.761C107.236 145.687 107.392 145.531 107.548 145.531C107.502 145.522 107.365 145.457 107.309 145.347C107.172 145.062 107.346 144.869 107.411 144.686C107.466 144.502 107.438 144.235 107.714 144.088C107.824 144.024 107.98 144.061 108.026 144.079C107.888 143.987 107.861 143.776 107.925 143.721C107.999 143.675 108.192 143.776 108.238 143.923C108.238 143.877 108.247 143.721 108.339 143.638C108.568 143.417 108.807 143.528 109 143.528C109.193 143.528 109.432 143.417 109.662 143.638C109.754 143.721 109.763 143.877 109.763 143.923C109.809 143.776 110.002 143.675 110.076 143.721C110.14 143.776 110.112 143.987 109.975 144.079C110.021 144.061 110.177 144.024 110.287 144.088C110.563 144.235 110.535 144.502 110.59 144.686C110.655 144.869 110.829 145.062 110.691 145.347C110.636 145.457 110.498 145.522 110.452 145.531C110.609 145.531 110.765 145.687 110.737 145.761C110.71 145.843 110.498 145.88 110.37 145.779C110.397 145.816 110.48 145.954 110.452 146.082C110.397 146.386 110.14 146.441 109.984 146.56C109.828 146.671 109.699 146.9 109.386 146.854C109.258 146.836 109.157 146.726 109.129 146.68C109.184 146.836 109.083 147.029 109 147.029ZM109 145.981C109.102 145.981 109.037 146.257 109.23 146.386C109.46 146.542 109.625 146.331 109.754 146.239C109.883 146.147 110.14 146.055 110.057 145.788C109.993 145.559 109.717 145.54 109.745 145.439C109.772 145.347 110.011 145.494 110.204 145.347C110.425 145.173 110.269 144.952 110.223 144.805C110.168 144.658 110.168 144.382 109.883 144.373C109.644 144.364 109.543 144.621 109.46 144.566C109.377 144.511 109.598 144.327 109.515 144.107C109.414 143.84 109.157 143.923 109 143.923C108.844 143.923 108.587 143.84 108.486 144.107C108.403 144.327 108.624 144.511 108.541 144.566C108.458 144.621 108.357 144.364 108.118 144.373C107.833 144.382 107.833 144.658 107.778 144.805C107.732 144.952 107.576 145.173 107.797 145.347C107.99 145.494 108.228 145.347 108.256 145.439C108.284 145.54 108.008 145.559 107.944 145.788C107.861 146.055 108.118 146.147 108.247 146.239C108.375 146.331 108.541 146.542 108.771 146.386C108.964 146.257 108.899 145.981 109 145.981Z" fill="black"/>
<path d="M109.002 145.641C109.245 145.641 109.443 145.444 109.443 145.2C109.443 144.956 109.245 144.759 109.002 144.759C108.758 144.759 108.561 144.956 108.561 145.2C108.561 145.444 108.758 145.641 109.002 145.641Z" fill="black"/>
<path d="M94 135.4C103.963 134.995 113.937 134.995 123.9 135.4" stroke="black" stroke-width="0.4" stroke-linecap="round" stroke-linejoin="round"/>
<path d="M107.799 108.8L108.599 109.8M109.799 121.8L109.899 123.8M107.899 121.8C108.199 122.2 108.599 123.3 108.599 123.8" stroke="black" stroke-width="0.2" stroke-linecap="round" stroke-linejoin="round"/>
<path d="M114.1 135.3C113.8 135.4 113.1 135.8 113.1 136.1C113.1 136.4 113.9 136.4 114.1 136.5C113.7 136.7 112.5 136.9 111.9 136.6C111.5 136.9 108.6 136.2 108 136.2C107.771 136.153 107.565 136.028 107.419 135.845C107.273 135.662 107.196 135.434 107.2 135.2C107.2 134.933 107.367 134.7 107.7 134.5C107.5 134.2 108.4 133.5 109.2 133.1C107.9 133.2 106.2 132.7 105.8 132.2C104.934 131.867 104.334 132.167 104 133.1C103.867 134.633 103.234 135.3 102.1 135.1C101.5 135.167 101.167 135.3 101.1 135.5L103.1 136.1C104.5 137.4 103.7 138.4 103.4 138.6C103 138.8 102.5 138.833 101.9 138.7C101.567 138.7 101.367 138.8 101.3 139C100.9 139.133 100.634 139.133 100.5 139C100.5 138.9 100.7 138 101.3 138C101.6 137.9 102.2 137.7 102.3 137.4C102.4 137.1 101.1 137.2 100.3 136.8C99.5004 136.733 99.2337 136.133 99.5004 135C99.7004 133.8 101.2 133.6 101.9 133.6C101.9 133.1 101.9 132.1 102.6 131.6C103.6 130.6 105.1 130.9 106.4 131C107.475 130.402 108.672 130.06 109.9 130C111.1 129.9 116.5 128.5 118.9 128.8C118.4 127.9 118.5 126 119.5 125.4C120.8 124.7 122.2 126.7 122.5 126.4C122.7 126 122.234 125.367 121.1 124.5L121 124L121.1 123.2C121.2 123.2 122 123.4 122.1 123.7C122.367 124.1 122.667 124.2 123 124C123.3 123.8 122.9 123.9 122.7 123.3L122.4 122.6C122.6 122.4 123.4 121.8 123.9 121.6L124.4 122.4C124.9 123.1 125.4 122.9 125.6 123.4C125.6 123.667 125.7 124 125.9 124.4C126.413 125.351 127.173 126.145 128.1 126.7C128.3 126.833 128.434 127 128.5 127.2L128.3 127.8H127.3C126.634 127.4 126.2 127.233 126 127.3C125 127.4 124.5 128.8 123.3 128.8C122.1 128.6 121.3 127 120.7 127.5C120.1 128 122.3 129.4 122 130C122.267 130.2 122.4 130.533 122.4 131C123.6 130.8 124.4 130 124.8 129.4C125.334 128.533 125.8 128.033 126.2 127.9C126.667 127.833 126.934 127.967 127 128.3L127.6 128.4C127.867 128.6 127.867 128.833 127.6 129.1L127.3 128.9C127.1 128.9 126.867 129 126.6 129.2L125.9 130.3L124.6 131.6L124.7 132.6L125.1 132.7V133.2C125.1 133.5 124 134.8 123.6 134.8C123.1 134.8 122.8 134.2 122.8 134C122.3 134.2 122 133.6 122 133.4C121.8 133.7 121 134.1 120.7 134.2C120.434 134.4 120.267 134.333 120.2 134C120.1 134.3 119.3 134.5 119.2 134.6L116.2 135.2L114.1 135.3Z" fill="white" stroke="black" stroke-width="0.3" stroke-linecap="round" stroke-linejoin="round"/>
<path d="M117.399 126.4C117.399 126.8 116.899 127.7 117.699 128.4C118.366 128.733 118.899 129.133 119.299 129.6C119.366 130.133 119.299 130.433 119.099 130.5C118.599 130.3 117.899 131.2 117.699 131.8C117.399 131 116.799 131.2 116.099 131.3C116.233 130.433 115.699 129.9 114.499 129.7C114.499 129.5 114.366 129.267 114.099 129C113.799 128.8 112.899 129 112.899 128.8C112.799 128.6 113.299 128.2 112.999 127.8C112.799 127.4 111.699 127.6 111.399 127.5C111.466 127.033 111.433 126.633 111.299 126.3C110.999 125.8 109.899 126 109.299 125.9C109.833 125.5 109.966 125.033 109.699 124.5C109.499 124 108.199 124.6 108.199 123.9C108.199 123.6 109.699 123.4 110.199 123.4L114.299 124.2C114.699 124.5 117.399 125.3 117.399 126.4Z" fill="white" stroke="black" stroke-width="0.2" stroke-linecap="round" stroke-linejoin="round"/>
<path d="M122 133.4C122.866 133 123.733 132.4 124.6 131.6M108.6 131C109.3 131 111 131.3 111.5 131.9C112 132.5 112.3 133.6 109 134.4C110 134.4 111.4 134.2 112 134.4C112.4 134.2 113.5 133.9 114 134C113.8 134.1 113.2 134.3 113.2 134.6C113.2 134.9 113.4 135 113.9 135.1M117.1 132.9C118.3 133.1 119.9 132.8 120.1 134" stroke="black" stroke-width="0.3" stroke-linecap="round" stroke-linejoin="round"/>
<path d="M120.999 123.5L122.699 124.8C123.365 125.2 123.499 124.9 123.099 123.9M112.899 128.8C113.999 128.5 115.699 128.3 116.699 128.3M111.399 127.5C113.199 127 115.199 127.2 116.499 127.2M116.199 131.2C116.532 130.733 117.099 130.233 117.899 129.7M114.499 129.7L116.999 128.9M114.299 124.2C115.299 123.2 116.499 123.3 117.599 122.8C118.199 122.267 118.832 121.6 119.499 120.8C119.699 120.533 120.132 120.4 120.799 120.4C121.799 120.467 121.732 120.633 120.599 120.9C119.899 120.9 119.899 121.3 119.599 121.9C119.465 122.367 119.499 122.833 119.699 123.3L119.199 124.7L119.499 125.3M109.299 125.9C111.899 125.3 115.599 126.3 116.299 126.3" stroke="black" stroke-width="0.2" stroke-linecap="round" stroke-linejoin="round"/>
<path d="M124.999 130C125.899 129.5 125.899 128.6 126.999 128.3M122.799 134C123.899 133.5 124.099 133 124.799 132.6M125.499 126C124.999 126 124.899 125.6 124.399 125.5C123.865 125.5 123.565 125.7 123.499 126.1C123.432 126.5 123.665 126.7 124.199 126.7L125.499 126.6M122.999 122C123.532 122.066 123.932 122 124.199 121.8M125.199 124C125.199 124 124.899 124 124.799 123.8C124.599 123.666 124.565 123.5 124.699 123.3L125.099 123.4C125.365 123.666 125.399 123.866 125.199 124Z" stroke="black" stroke-width="0.1" stroke-linecap="round" stroke-linejoin="round"/>
<path d="M109.499 113.5C109.484 113.512 109.467 113.518 109.448 113.517C109.43 113.517 109.41 113.509 109.39 113.495C109.37 113.48 109.351 113.46 109.333 113.434C109.315 113.409 109.3 113.379 109.286 113.346C109.273 113.313 109.263 113.278 109.257 113.243C109.25 113.208 109.248 113.173 109.249 113.141C109.25 113.109 109.255 113.08 109.264 113.056C109.272 113.031 109.284 113.012 109.299 113C109.246 113 109.195 112.979 109.158 112.941C109.12 112.904 109.099 112.853 109.099 112.8C109.099 112.747 109.12 112.696 109.158 112.658C109.195 112.621 109.246 112.6 109.299 112.6C109.277 112.633 109.246 112.644 109.212 112.631C109.177 112.617 109.143 112.579 109.117 112.526C109.09 112.473 109.073 112.409 109.07 112.348C109.067 112.287 109.077 112.233 109.099 112.2C109.066 112.207 109.029 112.187 108.996 112.146C108.964 112.104 108.938 112.043 108.924 111.977C108.918 111.944 108.915 111.911 108.915 111.879C108.915 111.847 108.919 111.818 108.926 111.792C108.94 111.74 108.966 111.707 108.999 111.7C108.974 111.712 108.944 111.703 108.916 111.674C108.889 111.645 108.866 111.599 108.853 111.546C108.84 111.493 108.837 111.437 108.846 111.391C108.854 111.345 108.874 111.312 108.899 111.3C108.864 111.286 108.83 111.247 108.805 111.19C108.781 111.133 108.767 111.064 108.767 110.998C108.767 110.932 108.781 110.874 108.805 110.836C108.83 110.799 108.864 110.786 108.899 110.8C108.876 110.843 108.844 110.863 108.809 110.855C108.774 110.848 108.739 110.814 108.713 110.761C108.686 110.708 108.67 110.64 108.667 110.572C108.665 110.505 108.676 110.443 108.699 110.4C108.682 110.395 108.666 110.385 108.65 110.368C108.635 110.352 108.62 110.33 108.609 110.303C108.597 110.277 108.587 110.247 108.581 110.215C108.574 110.183 108.571 110.15 108.571 110.117C108.571 110.084 108.574 110.053 108.581 110.024C108.587 109.995 108.597 109.97 108.609 109.95C108.62 109.93 108.635 109.915 108.65 109.906C108.666 109.898 108.682 109.895 108.699 109.9C108.682 109.897 108.666 109.888 108.651 109.873C108.636 109.858 108.622 109.838 108.61 109.813C108.586 109.762 108.573 109.696 108.573 109.63C108.573 109.564 108.586 109.502 108.61 109.459C108.634 109.416 108.666 109.395 108.699 109.4C108.673 109.425 108.642 109.428 108.615 109.408C108.587 109.388 108.564 109.347 108.55 109.294C108.537 109.241 108.535 109.181 108.544 109.125C108.553 109.07 108.573 109.025 108.599 109C108.566 109.001 108.534 108.977 108.511 108.931C108.487 108.885 108.474 108.823 108.474 108.756C108.474 108.69 108.487 108.626 108.511 108.578C108.534 108.529 108.566 108.501 108.599 108.5C108.582 108.503 108.566 108.5 108.55 108.491C108.535 108.481 108.521 108.466 108.509 108.445C108.486 108.403 108.472 108.342 108.472 108.276C108.472 108.209 108.486 108.143 108.509 108.091C108.533 108.04 108.565 108.007 108.599 108C108.572 108.008 108.545 107.995 108.526 107.963C108.507 107.932 108.496 107.884 108.496 107.831C108.496 107.778 108.507 107.724 108.526 107.68C108.545 107.637 108.572 107.608 108.599 107.6C108.563 107.615 108.529 107.603 108.504 107.567C108.479 107.531 108.465 107.474 108.465 107.408C108.465 107.341 108.479 107.272 108.504 107.214C108.529 107.156 108.563 107.115 108.599 107.1C108.582 107.097 108.567 107.088 108.555 107.073C108.542 107.058 108.532 107.037 108.525 107.012C108.51 106.961 108.51 106.896 108.523 106.829C108.53 106.796 108.539 106.764 108.552 106.735C108.564 106.706 108.579 106.68 108.595 106.658C108.628 106.615 108.666 106.594 108.699 106.6C108.682 106.6 108.666 106.593 108.653 106.58C108.639 106.567 108.628 106.549 108.621 106.526C108.613 106.502 108.609 106.475 108.609 106.444C108.608 106.414 108.611 106.381 108.618 106.348C108.624 106.316 108.634 106.283 108.647 106.253C108.659 106.223 108.675 106.195 108.691 106.172C108.708 106.149 108.726 106.131 108.745 106.118C108.763 106.106 108.782 106.1 108.799 106.1C108.776 106.075 108.765 106.031 108.768 105.976C108.77 105.922 108.787 105.861 108.813 105.808C108.84 105.755 108.874 105.714 108.909 105.693C108.944 105.673 108.976 105.675 108.999 105.7C108.958 105.712 108.924 105.697 108.904 105.659C108.884 105.621 108.88 105.562 108.894 105.496C108.907 105.43 108.936 105.361 108.975 105.306C109.013 105.25 109.058 105.212 109.099 105.2C109.102 105.17 109.11 105.136 109.122 105.1C109.133 105.063 109.149 105.024 109.168 104.987C109.187 104.949 109.209 104.913 109.231 104.88C109.254 104.848 109.277 104.821 109.299 104.8C109.27 104.805 109.252 104.788 109.248 104.752C109.244 104.716 109.255 104.664 109.279 104.604C109.303 104.545 109.338 104.481 109.379 104.426C109.419 104.37 109.461 104.325 109.499 104.3C109.506 104.267 109.521 104.228 109.542 104.186C109.563 104.145 109.59 104.103 109.62 104.063C109.649 104.023 109.681 103.988 109.713 103.959C109.744 103.931 109.774 103.91 109.799 103.9C109.8 103.875 109.81 103.842 109.827 103.805C109.845 103.768 109.87 103.727 109.9 103.688C109.93 103.648 109.963 103.61 109.998 103.577C110.033 103.544 110.068 103.517 110.099 103.5C110.1 103.471 110.115 103.432 110.142 103.388C110.17 103.344 110.208 103.296 110.252 103.253C110.296 103.209 110.343 103.17 110.387 103.143C110.432 103.116 110.471 103.101 110.499 103.1C110.488 103.08 110.494 103.048 110.516 103.007C110.538 102.967 110.574 102.921 110.619 102.876C110.664 102.83 110.716 102.789 110.766 102.757C110.817 102.725 110.863 102.705 110.899 102.7" fill="white"/>
<path d="M109.499 113.5C109.484 113.512 109.467 113.518 109.448 113.517C109.43 113.517 109.41 113.509 109.39 113.495C109.37 113.48 109.351 113.46 109.333 113.434C109.315 113.409 109.3 113.379 109.286 113.346C109.273 113.313 109.263 113.278 109.257 113.243C109.25 113.208 109.248 113.173 109.249 113.141C109.25 113.109 109.255 113.08 109.264 113.056C109.272 113.031 109.284 113.012 109.299 113C109.246 113 109.195 112.979 109.158 112.941C109.12 112.904 109.099 112.853 109.099 112.8C109.099 112.747 109.12 112.696 109.158 112.658C109.195 112.621 109.246 112.6 109.299 112.6C109.277 112.633 109.246 112.644 109.212 112.631C109.177 112.617 109.143 112.579 109.117 112.526C109.09 112.473 109.073 112.409 109.07 112.348C109.067 112.287 109.077 112.233 109.099 112.2C109.066 112.207 109.029 112.187 108.996 112.146C108.964 112.104 108.938 112.043 108.924 111.977C108.918 111.944 108.915 111.911 108.915 111.879C108.915 111.847 108.919 111.818 108.926 111.792C108.94 111.74 108.966 111.707 108.999 111.7C108.974 111.712 108.944 111.703 108.916 111.674C108.889 111.645 108.866 111.599 108.853 111.546C108.84 111.493 108.837 111.437 108.846 111.391C108.854 111.345 108.874 111.312 108.899 111.3C108.864 111.286 108.83 111.247 108.805 111.19C108.781 111.133 108.767 111.064 108.767 110.998C108.767 110.932 108.781 110.874 108.805 110.836C108.83 110.799 108.864 110.786 108.899 110.8C108.876 110.843 108.844 110.863 108.809 110.855C108.774 110.848 108.739 110.814 108.713 110.761C108.686 110.708 108.67 110.64 108.667 110.572C108.665 110.505 108.676 110.443 108.699 110.4C108.682 110.395 108.666 110.385 108.65 110.368C108.635 110.352 108.62 110.33 108.609 110.303C108.597 110.277 108.587 110.247 108.581 110.215C108.574 110.183 108.571 110.15 108.571 110.117C108.571 110.084 108.574 110.053 108.581 110.024C108.587 109.995 108.597 109.97 108.609 109.95C108.62 109.93 108.635 109.915 108.65 109.906C108.666 109.898 108.682 109.895 108.699 109.9C108.682 109.897 108.666 109.888 108.651 109.873C108.636 109.858 108.622 109.838 108.61 109.813C108.586 109.762 108.573 109.696 108.573 109.63C108.573 109.564 108.586 109.502 108.61 109.459C108.634 109.416 108.666 109.395 108.699 109.4C108.673 109.425 108.642 109.428 108.615 109.408C108.587 109.388 108.564 109.347 108.55 109.294C108.537 109.241 108.535 109.181 108.544 109.125C108.553 109.07 108.573 109.025 108.599 109C108.566 109.001 108.534 108.977 108.511 108.931C108.487 108.885 108.474 108.823 108.474 108.756C108.474 108.69 108.487 108.626 108.511 108.578C108.534 108.529 108.566 108.501 108.599 108.5C108.582 108.503 108.566 108.5 108.55 108.491C108.535 108.481 108.521 108.466 108.509 108.445C108.486 108.403 108.472 108.342 108.472 108.276C108.472 108.209 108.486 108.143 108.509 108.091C108.533 108.04 108.565 108.007 108.599 108C108.572 108.008 108.545 107.995 108.526 107.963C108.507 107.932 108.496 107.884 108.496 107.831C108.496 107.778 108.507 107.724 108.526 107.68C108.545 107.637 108.572 107.608 108.599 107.6C108.563 107.615 108.529 107.603 108.504 107.567C108.479 107.531 108.465 107.474 108.465 107.408C108.465 107.341 108.479 107.272 108.504 107.214C108.529 107.156 108.563 107.115 108.599 107.1C108.582 107.097 108.567 107.088 108.555 107.073C108.542 107.058 108.532 107.037 108.525 107.012C108.51 106.961 108.51 106.896 108.523 106.829C108.53 106.796 108.539 106.764 108.552 106.735C108.564 106.706 108.579 106.68 108.595 106.658C108.628 106.615 108.666 106.594 108.699 106.6C108.682 106.6 108.666 106.593 108.653 106.58C108.639 106.567 108.628 106.549 108.621 106.526C108.613 106.502 108.609 106.475 108.609 106.444C108.608 106.414 108.611 106.381 108.618 106.348C108.624 106.316 108.634 106.283 108.647 106.253C108.659 106.223 108.675 106.195 108.691 106.172C108.708 106.149 108.726 106.131 108.745 106.118C108.763 106.106 108.782 106.1 108.799 106.1C108.776 106.075 108.765 106.031 108.768 105.976C108.77 105.922 108.787 105.861 108.813 105.808C108.84 105.755 108.874 105.714 108.909 105.693C108.944 105.673 108.976 105.675 108.999 105.7C108.958 105.712 108.924 105.697 108.904 105.659C108.884 105.621 108.88 105.562 108.894 105.496C108.907 105.43 108.936 105.361 108.975 105.306C109.013 105.25 109.058 105.212 109.099 105.2C109.102 105.17 109.11 105.136 109.122 105.1C109.133 105.063 109.149 105.024 109.168 104.987C109.187 104.949 109.209 104.913 109.231 104.88C109.254 104.848 109.277 104.821 109.299 104.8C109.27 104.805 109.252 104.788 109.248 104.752C109.244 104.716 109.255 104.664 109.279 104.604C109.303 104.545 109.338 104.481 109.379 104.426C109.419 104.37 109.461 104.325 109.499 104.3C109.506 104.267 109.521 104.228 109.542 104.186C109.563 104.145 109.59 104.103 109.62 104.063C109.649 104.023 109.681 103.988 109.713 103.959C109.744 103.931 109.774 103.91 109.799 103.9C109.8 103.875 109.81 103.842 109.827 103.805C109.845 103.768 109.87 103.727 109.9 103.688C109.93 103.648 109.963 103.61 109.998 103.577C110.033 103.544 110.068 103.517 110.099 103.5C110.1 103.471 110.115 103.432 110.142 103.388C110.17 103.344 110.208 103.296 110.252 103.253C110.296 103.209 110.343 103.17 110.387 103.143C110.432 103.116 110.471 103.101 110.499 103.1C110.488 103.08 110.494 103.048 110.516 103.007C110.538 102.967 110.574 102.921 110.619 102.876C110.664 102.83 110.716 102.789 110.766 102.757C110.817 102.725 110.863 102.705 110.899 102.7" stroke="black" stroke-width="0.1" stroke-linecap="round" stroke-linejoin="round"/>
<path d="M110 113.3L109.5 113.5M109.9 112.9L109.3 113M109.8 112.5L109.2 112.6M109.8 112L109.1 112.2M109.7 111.6L109 111.7M109.6 111.2H108.9M109.6 110.7L108.8 110.8M109.5 110.3H108.7M109.5 109.8L108.7 109.9M109.5 109.4H108.6M109.6 109H108.6M109.6 108.5H108.6M109.6 108.1H108.6M109.6 107.7L108.6 107.6M109.7 107.3L108.7 107.1M109.8 106.9L108.8 106.6M109.9 106.4L108.9 106.1M110.1 106.1L109 105.7M110.2 105.7L109.2 105.2M110.4 105.3L109.4 104.8M110.7 105L109.5 104.3M110.9 104.7L109.9 103.9M111.2 104.3L110.2 103.5M111.5 104L110.5 103M111.8 103.8L110.8 102.7" stroke="black" stroke-width="0.1" stroke-linecap="round" stroke-linejoin="round"/>
<path d="M115.8 107.2L114.3 107.4L114.2 108.9C115.7 110.3 117.1 112.1 117.2 113.9C117.667 114.167 118 114.633 118.2 115.3C119.2 114.7 120.3 113.8 121.2 113.6C121.8 113.5 122.9 113.4 123.4 113.7L126.9 115.9C127.567 116.367 128.1 116.867 128.5 117.4C128.9 118 128.9 118.9 128.8 119.2L126.7 118.6C126.567 118.2 126.6 117.8 126.8 117.4C127 117.2 126.967 117.033 126.7 116.9C126.433 116.767 126.2 116.733 126 116.8L125.3 116.4C125.1 116.1 122.8 115.2 122.5 115.1C122.033 115.033 121.567 115.167 121.1 115.5C120.9 115.8 120.1 117 119.5 117.5C119.367 117.7 119.367 117.867 119.5 118L121.7 118.1C122.6 118.2 123.7 119.1 124.1 119.7L127.8 123.4C128.133 123.733 128.3 124.1 128.3 124.5H126.3L126 122.8C125.667 122.533 125.367 122.467 125.1 122.6C124.967 122.6 124.767 122.367 124.5 121.9C123.967 121.193 123.284 120.612 122.5 120.2C122.167 120 121.8 119.933 121.4 120C120.933 119.867 120.4 119.867 119.8 120C119.2 120.2 117.7 120.7 116.2 120.8C115.533 121.067 114.3 121.4 112.5 121.8L107.8 122.5C107.473 123.802 106.779 124.982 105.8 125.9C105.4 126.5 105.367 126.933 105.7 127.2C106 127.5 108.1 127.5 108.7 127.5H110.4C110.8 127.633 111.267 127.9 111.8 128.3C112.133 128.567 112.367 128.867 112.5 129.2L113 129.9H110.5C110.5 129.233 110.267 128.9 109.8 128.9C109.533 129.167 109.133 129.267 108.6 129.2L103.6 129.1C103 129.1 102.6 128.3 102.8 127.6V125.9L101.5 127.3C100.8 128 101.2 128.8 101.5 129.2L104.1 132.2L106.1 133.8C106.367 134.333 106.7 134.767 107.1 135.1H104L104.2 134.3C104.2 133.967 103.967 133.8 103.5 133.8C103.1 133.667 102.8 133.4 102.6 133C102.09 131.994 101.414 131.081 100.6 130.3C100.2 129.9 98.9999 128.6 98.6999 128.5C98.4999 128.367 98.4999 128.1 98.6999 127.7C98.9999 127.4 99.6999 126.2 99.9999 125.4C100.2 124.8 99.9999 124.8 99.8999 124.6C98.4333 123.533 97.2999 122.3 96.4999 120.9C96.2999 121 94.6999 121 93.9999 120.6C93.3333 120.333 92.7333 120.433 92.1999 120.9C91.9333 121.433 91.9999 121.933 92.3999 122.4C93.0666 122.867 93.7333 123.533 94.3999 124.4C95.0999 125.4 94.4999 125.9 93.5999 126.6C93.7999 127 93.5999 126.9 93.7999 127.5C94.0999 127.9 94.0999 128.9 93.7999 129.2C93.2666 129.333 92.7999 129.667 92.3999 130.2C91.9333 130.6 91.7999 130.267 91.9999 129.2C91.9333 128.667 91.6999 128.233 91.2999 127.9C90.8999 127.4 91.0999 126.2 91.2999 125.9C91.6999 125.433 91.6999 124.867 91.2999 124.2C90.6999 123.7 89.6999 122.6 89.7999 121.1C89.9999 119.1 91.9999 118.5 93.0999 119.1C94.8999 119.7 96.0666 119.833 96.5999 119.5C97.0666 118.633 97.8333 117.867 98.8999 117.2C99.8999 116.6 102.1 115.7 104.1 115.4L109.2 113.6C109.8 113.267 110 112.867 109.8 112.4C109.2 109 109.4 105.4 112.1 103.5L112.8 101.9C112.8 102.2 113.4 102.9 113.6 103.3L117.8 104.9L118.9 105.2C119.167 105.267 119.367 105.467 119.5 105.8C119.633 106.267 119.567 106.6 119.3 106.8C119.1 106.8 118.1 106.5 117.8 106.8C117.8 107 118.1 107.2 118.7 107.4C118.767 107.667 118.633 107.867 118.3 108L117.7 107.9L115.8 107.2Z" fill="white" stroke="black" stroke-width="0.3" stroke-linecap="round" stroke-linejoin="round"/>
<path d="M112.399 105C112.399 107 112.999 108.333 114.199 109M118.199 115.3C118.374 116.124 118.374 116.976 118.199 117.8M102.799 125.9C104.399 125.2 105.799 123.4 105.699 122.3M105.699 122.3C105.699 121.7 105.199 120.7 103.699 120.6M105.699 122.3C106.099 122.5 107.099 122.3 107.799 122.5M115.799 117.3C116.899 117.3 118.599 118.1 119.399 118M115.099 119.8C116.099 120 116.099 120.5 118.399 120.4M114.599 112.8C115.799 112.8 116.599 113.4 117.199 113.8" stroke="black" stroke-width="0.3" stroke-linecap="round" stroke-linejoin="round"/>
<path d="M105.5 123.3C106.367 123.433 106.967 123.133 107.3 122.4M112.3 105C112.3 106.7 113 107.2 114.3 107.4" stroke="black" stroke-width="0.2" stroke-linecap="round" stroke-linejoin="round"/>
<path d="M119 105.3C118.866 105.767 119.066 106 119.6 106M115.8 104C115.3 105.5 118.1 105.7 118.2 106.6M102.6 115.8C103.9 116.4 103.8 119.1 103.8 120.6" stroke="black" stroke-width="0.1" stroke-linecap="round" stroke-linejoin="round"/>
<path d="M117.5 106.6C116.913 107.725 116.095 108.713 115.1 109.5C113.601 110.59 111.902 111.371 110.1 111.8H109.1C108.633 111.8 108.3 111.533 108.1 111C107.9 110.7 107.9 109.4 108.4 109.2L110 108.9C110.333 108.9 110.533 109.066 110.6 109.4C110.666 109.733 110.466 109.866 110 109.8C109.6 109.8 109 109.5 108.7 109.8C108.4 109.8 108.3 110.5 108.4 110.8C108.666 111.133 108.933 111.333 109.2 111.4H110C111.866 110.866 113.466 110.1 114.8 109.1C115.8 108.4 116.8 107 117.1 106.3L117.5 106.6ZM110 109.3C109.5 109.1 108.5 109.3 108.5 109.5C108.9 109.3 109.4 109.3 110 109.5C110.266 109.433 110.266 109.366 110 109.3ZM113.7 104.6L114 104.2C114 104.1 113.8 103.1 114.9 103.6C115.9 104.2 115.1 104.6 115 104.7L114.8 105.2" fill="white"/>
<path d="M113.7 104.6L114 104.2C114 104.1 113.8 103.1 114.9 103.6C115.9 104.2 115.1 104.6 115 104.7L114.8 105.2M117.5 106.6C116.913 107.725 116.095 108.713 115.1 109.5C113.601 110.59 111.902 111.371 110.1 111.8H109.1C108.633 111.8 108.3 111.533 108.1 111C107.9 110.7 107.9 109.4 108.4 109.2L110 108.9C110.333 108.9 110.533 109.066 110.6 109.4C110.666 109.733 110.466 109.866 110 109.8C109.6 109.8 109 109.5 108.7 109.8C108.4 109.8 108.3 110.5 108.4 110.8C108.666 111.133 108.933 111.333 109.2 111.4H110C111.866 110.866 113.466 110.1 114.8 109.1C115.8 108.4 116.8 107 117.1 106.3L117.5 106.6ZM110 109.3C109.5 109.1 108.5 109.3 108.5 109.5C108.9 109.3 109.4 109.3 110 109.5C110.266 109.433 110.266 109.366 110 109.3Z" stroke="black" stroke-width="0.1" stroke-linecap="round" stroke-linejoin="round"/>
<path d="M112 103.7L117.9 106.7" stroke="black" stroke-width="0.2" stroke-linecap="round" stroke-linejoin="round"/>
<path d="M104.5 104L100.5 103.6C99.8997 103.6 98.4997 105.6 97.7997 105.7C97.0997 105.8 96.2997 104.2 95.1997 104.7C94.6997 105 95.1997 107.1 94.8997 107.3C94.5997 107.5 93.5997 106.3 92.8997 106.7C92.3997 107.1 93.4997 109.9 93.1997 110.2C92.8997 110.5 91.5997 109 91.1997 109.2C90.6997 109.5 91.5997 113.8 91.1997 114C90.7997 114.2 88.8997 112.9 88.5997 113.4C88.3997 114 91.2997 115.4 92.0997 115.4L92.9997 115.1L95.7997 115.4L97.1997 114.1C99.1997 111.4 101.5 108.8 104.5 109V104Z" fill="white" stroke="black" stroke-width="0.2" stroke-linecap="round" stroke-linejoin="round"/>
<path d="M95.3996 104.6L99.3996 104.4M92.9996 106.7L94.9996 106M91.1996 109.2L92.9996 108.4M88.5996 113.4L91.0996 111.2M92.9996 115C93.9996 113.2 96.0996 111.2 97.8996 110.1M91.1996 114C92.6996 112.2 96.8996 109.2 98.1996 109M94.8996 107.3C96.5996 106.5 99.1996 106.4 101.1 106.3M97.6996 105.7C97.9996 105.7 101 105.3 102.3 105.4M93.1996 110.2C95.4663 108.8 97.8663 107.7 100.4 106.9" stroke="black" stroke-width="0.2" stroke-linecap="round" stroke-linejoin="round"/>
<path d="M112.999 138.8L113.299 139.3L112.699 139.4L94.3994 133.9C93.7994 133.8 93.9994 132.9 94.5994 133.1L112.999 138.8ZM95.3994 113.1C95.1994 112.7 94.9661 112.467 94.6994 112.4C94.3661 112.533 94.1661 112.7 94.0994 112.9C94.0994 113.1 94.6994 113.5 94.8994 113.6L95.3994 113.1ZM97.0994 113.8L95.5994 115.3C95.5327 115.633 95.6327 115.767 95.8994 115.7L97.3994 114.1C97.5327 113.767 97.4327 113.667 97.0994 113.8ZM96.2994 115.3L101.099 120.3H102.099L101.999 119.3L96.9994 114.6L96.2994 115.3Z" fill="white" stroke="black" stroke-width="0.3" stroke-linecap="round" stroke-linejoin="round"/>
<path d="M101.399 119.7L96.6992 114.9" stroke="black" stroke-width="0.1" stroke-linecap="round" stroke-linejoin="round"/>
<path d="M107.8 105.9C107.8 105.633 107.9 105.433 108.1 105.3C108.3 105.167 108.433 105.167 108.5 105.3C108.566 105.433 108.7 105.533 108.9 105.6H109.2L109.4 105.1L109.5 105L109.7 104.8L109.8 104.5C110.066 104.633 110.2 104.633 110.2 104.5L110.4 103.5C110.8 103.6 110.6 103.2 110.8 103.1C111.2 103.3 111.3 102.6 111.1 102.4C111.1 101.933 111.433 101.733 112.1 101.8L111.3 100.9C110.9 100.367 110.1 100.033 108.9 99.8999C107.9 99.8999 106.9 100.9 106.5 101.4C106.1 101.9 105.3 102 105.1 102L104.4 101.7H103.4C103.133 101.833 102.8 101.9 102.4 101.9L100.9 102C100.6 102.1 100.9 102.8 101.2 102.8C101.5 102.8 102.2 102.8 102.4 103C102.945 103.197 103.535 103.231 104.1 103.1C104.9 102.8 105.4 103.4 106.3 103.6H106.6C106.6 104.133 106.533 104.4 106.4 104.4H105.6L104.8 104C104.4 103.933 104.133 103.967 104 104.1C102.091 105.189 100.342 106.535 98.7996 108.1C98.3996 108.9 97.7996 109.3 97.1996 110.5C96.8996 111.1 96.1996 111.8 95.8996 112.9C95.1996 113.1 94.5996 113.7 94.4996 113.9C94.4329 114.1 94.4996 114.233 94.6996 114.3L95.0996 114.6C95.0996 114.733 95.1996 114.833 95.3996 114.9C95.3329 115.033 95.3996 115.167 95.5996 115.3L97.1996 113.7C97.2663 113.033 97.4329 112.467 97.6996 112C98.5996 111 99.6996 109.4 99.8996 109C100.1 108.6 101.9 108 102.3 107.5L102.4 110.5L103.4 113.5C103.533 114.5 103.533 115.233 103.4 115.7C103.4 116.033 103.566 116.267 103.9 116.4C104.3 116.6 105.7 116.4 106.2 116.5L108.2 116.9C108.957 116.745 109.745 116.888 110.4 117.3C110.7 117.6 111.4 119.1 111.6 119.7C111.9 120.3 113.3 121.1 113.6 121.5C113.8 121.8 114.1 122.7 114 123.1C113.933 123.5 114.066 123.7 114.4 123.7L116.2 124L117.2 124.5L118.6 124.6C119 124.6 119 123.9 118.8 123.9L117.6 123.6C117.1 123.6 116.2 122.7 115.9 122.3L115.1 120.7L113.1 117.9L112.1 115.6C111.966 115.2 111.7 115 111.3 115C110.2 114.7 109.8 114.5 108.6 114.3C107.7 114.1 107.6 114.1 107.5 113.5C107.5 113 107.1 112.1 107.3 111.5L107.5 110.3L107.8 109.3L107.9 107.3L107.8 105.9ZM108.6 111.1H107.7V110.8C107.7 110.8 107.6 110.6 107.7 110.6V110L108.6 109.9V111.1Z" fill="white" stroke="black" stroke-width="0.3" stroke-linecap="round" stroke-linejoin="round"/>
<path d="M106.599 103.7C106.665 103.833 106.899 103.8 107.299 103.6C107.832 103.533 108.032 103.733 107.899 104.2C107.765 104.666 107.899 104.933 108.299 105C108.699 104.866 108.932 104.666 108.999 104.4L109.499 103.9C109.632 103.5 109.965 103.4 110.499 103.6M111.099 102.4C110.699 102.466 110.365 102.233 110.099 101.7C110.099 101.166 109.765 100.866 109.099 100.8C108.399 100.8 107.099 101.2 106.899 101.9L106.799 102.9C106.532 102.9 106.365 102.966 106.299 103.1V103.6M102.299 107.6L103.599 107" stroke="black" stroke-width="0.3" stroke-linecap="round" stroke-linejoin="round"/>
<path d="M103.6 107C103.934 107.867 104.3 108.5 104.7 108.9M105.4 109.2C105.934 109.467 106.434 109.467 106.9 109.2M103.8 115.2C105.1 115.2 105.6 115.9 106.8 116.2C107.8 116.5 109.3 116.3 110.8 117M103.4 111C103.734 111.267 104.134 111.4 104.6 111.4M105.1 111.4C105.9 111.533 106.4 111.8 106.6 112.2M104.9 112.9C105.5 113.5 106.7 114 107.5 114.1" stroke="black" stroke-width="0.2" stroke-linecap="round" stroke-linejoin="round"/>
<path d="M105.799 104.3C106.399 106.3 106.499 107.1 107.899 107.3C106.699 107.233 105.833 106.233 105.299 104.3M104.799 104C105.333 106.067 106.366 107.2 107.899 107.4M115.099 122.8C114.899 122.667 114.733 122.4 114.599 122L114.099 121L113.699 121.2C113.699 121.2 113.499 121 113.699 121L113.899 120.8L113.499 120.1C113.366 120.1 113.433 120.033 113.699 119.9C113.899 119.833 113.966 119.833 113.899 119.9L114.299 120.6H114.499C114.699 120.467 114.766 120.533 114.699 120.8L114.399 120.9L114.899 121.9C115.099 122.233 115.166 122.567 115.099 122.9M115.099 120.7L113.599 121.5M112.199 120.4L114.199 119.4M111.899 120.1L113.899 119.1M95.3992 114.9L95.9992 114.2M94.9992 114.6L95.6992 114M94.6992 114.3L95.3992 113.7M107.699 110.8H108.399M107.699 110.3H108.299M107.699 110.6L108.299 110.5M109.099 104.8L109.499 105" stroke="black" stroke-width="0.1" stroke-linecap="round" stroke-linejoin="round"/>
</g>
<defs>
<clipPath id="clip0_3921_17872">
<rect width="512" height="512" fill="white"/>
</clipPath>
</defs>
</svg>
