<svg width="512" height="512" viewBox="0 0 512 512" fill="none" xmlns="http://www.w3.org/2000/svg">
<g clip-path="url(#clip0_3921_17933)">
<path d="M0 0H512V512H0V0Z" fill="#D21034"/>
<path d="M128 128H384V384H128V128Z" fill="#007E3A"/>
<path d="M287.999 341.3C335.109 341.3 373.299 303.11 373.299 256C373.299 208.89 335.109 170.7 287.999 170.7C240.889 170.7 202.699 208.89 202.699 256C202.699 303.11 240.889 341.3 287.999 341.3Z" fill="white"/>
<path d="M308.599 341.3C349.413 341.3 382.499 303.11 382.499 256C382.499 208.89 349.413 170.7 308.599 170.7C267.785 170.7 234.699 208.89 234.699 256C234.699 303.11 267.785 341.3 308.599 341.3Z" fill="#007E3A"/>
</g>
<defs>
<clipPath id="clip0_3921_17933">
<rect width="512" height="512" fill="white"/>
</clipPath>
</defs>
</svg>
