<svg width="512" height="512" viewBox="0 0 512 512" fill="none" xmlns="http://www.w3.org/2000/svg">
<g clip-path="url(#clip0_3921_18333)">
<mask id="mask0_3921_18333" style="mask-type:luminance" maskUnits="userSpaceOnUse" x="0" y="0" width="512" height="512">
<path d="M0 0H511.922V511.922H0V0Z" fill="white"/>
</mask>
<g mask="url(#mask0_3921_18333)">
<path fill-rule="evenodd" clip-rule="evenodd" d="M0 0H767.882V159.975H0V0Z" fill="#009A00"/>
<path fill-rule="evenodd" clip-rule="evenodd" d="M0 159.976H767.882V175.973H0V159.976Z" fill="white"/>
<path fill-rule="evenodd" clip-rule="evenodd" d="M0 175.973H767.882V335.949H0V175.973Z" fill="#000001"/>
<path fill-rule="evenodd" clip-rule="evenodd" d="M0 335.949H767.882V351.946H0V335.949Z" fill="white"/>
<path fill-rule="evenodd" clip-rule="evenodd" d="M0 351.946H767.882V511.922H0V351.946Z" fill="#FFCA00"/>
<path fill-rule="evenodd" clip-rule="evenodd" d="M0 0V511.922L336.052 255.961L0 0Z" fill="#FF0000"/>
<path fill-rule="evenodd" clip-rule="evenodd" d="M198.472 332.955L147.28 295.49L96.191 332.955L116.007 272.681L64.4023 235.525L127.98 235.835L147.28 175.457L166.683 235.835L230.158 235.525L178.553 272.681L198.472 332.955Z" fill="#FFCA00"/>
<path fill-rule="evenodd" clip-rule="evenodd" d="M102.797 290.949H139.746C142.739 294.252 149.345 295.594 155.64 290.949C167.2 284.55 189.596 290.949 189.596 290.949L194.035 286.202L183.301 251.007L179.379 246.879C179.379 246.879 171.122 241.924 155.434 243.576C139.746 245.227 134.276 242.957 134.276 242.957C134.276 242.957 120.446 244.608 116.627 246.672L112.189 251.11L102.9 291.052L102.797 290.949Z" fill="white" stroke="black" stroke-width="1.13531" stroke-linecap="round" stroke-linejoin="round"/>
<path d="M110.229 281.763C110.229 281.763 145.526 277.429 155.641 290.949C149.964 294.871 144.907 295.077 139.437 291.155C140.366 289.711 152.132 277.429 182.166 281.557" stroke="black" stroke-width="1.13531" stroke-linecap="round" stroke-linejoin="round"/>
<path d="M148.003 246.569L147.693 285.376M179.379 247.188L185.984 277.945" stroke="black" stroke-width="1.13531"/>
<path d="M116.937 246.672L113.324 262.566" stroke="black" stroke-width="1.13531" stroke-linecap="round" stroke-linejoin="round"/>
<path fill-rule="evenodd" clip-rule="evenodd" d="M78.8516 295.18L87.5212 305.295C88.5533 305.914 89.5166 305.914 90.4111 305.295L103.209 289.813L108.679 283.208C109.053 282.789 109.337 282.299 109.514 281.766C109.692 281.234 109.759 280.671 109.711 280.112L120.032 270.823C120.72 271.029 121.408 271.132 122.097 271.132C121.168 270.823 120.445 270.41 121.271 269.275L123.541 267.52L125.399 269.791C125.399 269.791 122.819 273.197 122.509 273.197H119.723L114.253 278.048L116.626 280.112L120.239 289.917L124.574 286.82L121.787 276.809L127.98 270.1L125.606 266.488L127.154 264.424C127.154 264.424 148.518 277.841 156.775 274.229C156.982 274.332 157.291 264.63 157.291 264.63C157.291 264.63 135.101 262.36 134.585 258.025C134.069 253.69 139.539 253.071 139.539 253.071L137.165 249.768L137.681 247.91L141.603 252.864L150.273 245.33L201.775 304.056C204.561 302.921 205.181 302.199 205.387 299.412L154.814 241.511L158.736 237.383C159.459 236.557 159.768 236.144 159.768 234.803L165.651 229.642C167.247 230.196 168.598 231.292 169.47 232.738L185.777 219.011C186.19 219.424 187.532 219.837 188.357 219.321L215.192 193.519L185.984 214.161L184.951 213.438C184.951 212.612 185.984 212.406 184.951 210.858C183.816 209.516 182.062 212.2 181.855 212.2C181.649 212.2 177.624 210.755 176.695 209L176.488 213.748L168.954 220.663L163.277 220.456L155.021 228.404L153.988 231.5L155.33 234.08C155.33 234.08 150.995 237.899 150.995 237.692C150.995 237.486 150.066 236.557 149.963 236.351L153.782 233.048L154.298 230.674L153.06 228.713C152.647 229.023 147.899 234.08 147.589 233.564L133.862 217.773L134.585 214.883L125.812 205.388C122.716 204.356 117.555 204.149 116.523 211.064C115.801 212.716 109.092 211.271 109.092 211.271L105.583 212.096L85.2506 240.892L96.6037 254.516L119.723 225.204L120.342 216.947L125.193 222.314C126.844 222.589 128.392 222.417 129.837 221.798L143.564 237.073L141.294 239.344L143.358 241.614L145.628 239.963L146.661 241.305L143.564 243.369C141.603 242.234 139.849 240.686 140.055 238.312L132.314 244.711L132.005 246.052L109.092 265.043L107.028 265.353L106.512 271.236L121.477 258.85V257.096L123.025 258.334L134.585 249.046C134.585 249.046 135.411 250.078 135.101 250.078C134.791 250.078 124.78 259.367 124.78 259.367L124.574 260.399L122.819 261.947L121.787 261.224L107.854 273.61H105.789L98.0486 281.247C96.0876 281.453 94.3331 281.66 92.6817 282.795L78.8516 295.18Z" fill="black" stroke="black" stroke-width="1.13531" stroke-linecap="round" stroke-linejoin="round"/>
</g>
</g>
<defs>
<clipPath id="clip0_3921_18333">
<rect width="512" height="512" fill="white"/>
</clipPath>
</defs>
</svg>
