<svg width="512" height="512" viewBox="0 0 512 512" fill="none" xmlns="http://www.w3.org/2000/svg">
<g clip-path="url(#clip0_3921_18805)">
<mask id="mask0_3921_18805" style="mask-type:luminance" maskUnits="userSpaceOnUse" x="0" y="0" width="512" height="512">
<path d="M0 0H512V512H0V0Z" fill="white"/>
</mask>
<g mask="url(#mask0_3921_18805)">
<path fill-rule="evenodd" clip-rule="evenodd" d="M-23.3008 -21.6001H531.399V531.4H-23.3008V-21.6001Z" fill="#EF2D29"/>
<path fill-rule="evenodd" clip-rule="evenodd" d="M164.6 341.3H541V549H164.6V341.3Z" fill="#009025"/>
<path fill-rule="evenodd" clip-rule="evenodd" d="M164.6 -19.3999H541V170.6H164.6V-19.3999Z" fill="white"/>
<path d="M137.381 76.2993H114.899C113.659 76.2993 112.654 77.2445 112.654 78.4104V89.0182C112.654 90.1841 113.659 91.1293 114.899 91.1293H137.381C138.621 91.1293 139.625 90.1841 139.625 89.0182V78.4104C139.625 77.2445 138.621 76.2993 137.381 76.2993Z" fill="white" stroke="#EF2D28" stroke-width="0.258335"/>
<path d="M136.816 76.9272H115.485C114.31 76.9272 113.357 77.7943 113.357 78.8639V88.5993C113.357 89.6689 114.31 90.5359 115.485 90.5359H136.816C137.99 90.5359 138.943 89.6689 138.943 88.5993V78.8639C138.943 77.7943 137.99 76.9272 136.816 76.9272Z" fill="white" stroke="#EF2D28" stroke-width="0.246034"/>
<path fill-rule="evenodd" clip-rule="evenodd" d="M125.256 80.6157L126.545 80.6668L126.598 81.259L127.662 81.8001L128.486 81.116L129.483 81.6571L128.552 82.2493L128.778 83.0661L129.948 83.0151V84.0871L129.017 84.0463L128.539 84.7201L129.602 85.4859L128.778 86.1189L127.888 85.445L126.598 85.7105L126.665 86.7009L125.256 86.803L125.07 85.8432L123.9 85.3532L123.249 86.027L122.252 85.5267L122.837 84.761L122.132 84.2709H121.135L121.082 82.8721L122.079 82.964L122.783 82.1472L121.959 81.5142L123.023 80.7995L123.78 81.3815L125.07 81.1977L125.256 80.6157Z" fill="white" stroke="#EF2D28" stroke-width="0.155327"/>
<path d="M125.623 84.7731C126.411 84.7731 127.049 84.23 127.049 83.5601C127.049 82.8902 126.411 82.3472 125.623 82.3472C124.836 82.3472 124.197 82.8902 124.197 83.5601C124.197 84.23 124.836 84.7731 125.623 84.7731Z" fill="white" stroke="#EF2D28" stroke-width="0.167268"/>
<path fill-rule="evenodd" clip-rule="evenodd" d="M116.811 77.5381L114.723 79.3875L116.811 77.5381ZM118.196 77.5381L116.108 79.3875L118.196 77.5381ZM119.563 77.5381L117.494 79.3875L119.563 77.5381ZM120.948 77.5381L118.88 79.3875L120.948 77.5381ZM122.334 77.5381L120.265 79.3875L122.334 77.5381ZM123.72 77.5381L121.651 79.3875L123.72 77.5381ZM125.105 77.5381L123.036 79.3875L125.105 77.5381ZM126.491 77.5381L124.422 79.3875L126.491 77.5381ZM127.876 77.5381L125.788 79.3875L127.876 77.5381ZM129.262 77.5381L127.154 79.3875L129.262 77.5381ZM130.609 77.5381L128.54 79.3875L130.609 77.5381ZM131.994 77.5381L129.926 79.3875L131.994 77.5381ZM126.471 77.5381L124.422 79.3875L126.471 77.5381ZM133.399 77.5381L131.331 79.3875L133.399 77.5381ZM134.785 77.5381L132.716 79.3875L134.785 77.5381ZM136.171 77.5381L134.102 79.3875L136.171 77.5381ZM137.556 77.5381L135.488 79.3875L137.556 77.5381ZM135.488 77.5381L137.556 79.3875L135.488 77.5381ZM134.102 77.5381L136.171 79.3875L134.102 77.5381ZM132.716 77.5381L134.785 79.3875L132.716 77.5381ZM131.331 77.5381L133.399 79.3875L131.331 77.5381ZM129.945 77.5381L132.014 79.3875L129.945 77.5381ZM128.559 77.5381L130.628 79.3875L128.559 77.5381ZM127.174 77.5381L129.262 79.3875L127.174 77.5381ZM125.788 77.5381L127.857 79.3875L125.788 77.5381ZM124.383 77.5381L126.471 79.3875L124.383 77.5381ZM123.017 77.5381L125.086 79.3875L123.017 77.5381ZM121.631 77.5381L123.7 79.3875L121.631 77.5381ZM120.246 77.5381L122.314 79.3875L120.246 77.5381ZM125.788 77.5381L127.857 79.3875L125.788 77.5381ZM118.88 77.5381L120.929 79.3875L118.88 77.5381ZM117.474 77.5381L119.563 79.3875L117.474 77.5381ZM116.089 77.5381L118.177 79.3875L116.089 77.5381ZM114.703 77.5381L116.811 79.3875L114.703 77.5381ZM116.811 88.0412L114.742 89.908L116.811 88.0412ZM118.177 88.0412L116.089 89.908L118.177 88.0412ZM119.582 88.0412L117.494 89.908L119.582 88.0412ZM120.948 88.0412L118.88 89.908L120.948 88.0412ZM122.334 88.0412L120.265 89.908L122.334 88.0412ZM123.72 88.0412L121.651 89.908L123.72 88.0412ZM125.105 88.0412L123.056 89.908L125.105 88.0412ZM126.491 88.0412L124.422 89.908L126.491 88.0412ZM127.876 88.0412L125.788 89.908L127.876 88.0412ZM129.243 88.0412L127.154 89.908L129.243 88.0412ZM130.667 88.0412L128.579 89.908L130.667 88.0412ZM132.033 88.0412L129.965 89.908L132.033 88.0412ZM126.491 88.0412L124.422 89.908L126.491 88.0412ZM133.399 88.0412L131.331 89.908L133.399 88.0412ZM134.785 88.0412L132.716 89.908L134.785 88.0412ZM136.171 88.0412L134.102 89.908L136.171 88.0412ZM137.556 88.0412L135.488 89.908L137.556 88.0412ZM135.488 88.0412L137.556 89.908L135.488 88.0412ZM134.102 88.0412L136.171 89.908L134.102 88.0412ZM132.716 88.0412L134.785 89.908L132.716 88.0412ZM131.331 88.0412L133.399 89.908L131.331 88.0412ZM129.945 88.0412L132.014 89.908L129.945 88.0412ZM128.559 88.0412L130.648 89.908L128.559 88.0412ZM127.154 88.0412L129.243 89.908L127.154 88.0412ZM125.788 88.0412L127.857 89.908L125.788 88.0412ZM124.422 88.0412L126.491 89.908L124.422 88.0412ZM123.036 88.0412L125.105 89.908L123.036 88.0412ZM121.651 88.0412L123.72 89.908L121.651 88.0412ZM120.265 88.0412L122.334 89.908L120.265 88.0412ZM125.808 88.0412L127.876 89.908L125.808 88.0412ZM118.899 88.0412L120.948 89.908L118.899 88.0412ZM117.494 88.0412L119.582 89.908L117.494 88.0412ZM116.108 88.0412L118.196 89.908L116.108 88.0412ZM114.742 88.0412L116.811 89.908L114.742 88.0412Z" fill="white"/>
<path d="M116.811 77.5381L114.723 79.3875M118.196 77.5381L116.108 79.3875M119.563 77.5381L117.494 79.3875M120.948 77.5381L118.88 79.3875M122.334 77.5381L120.265 79.3875M123.72 77.5381L121.651 79.3875M125.105 77.5381L123.036 79.3875M126.491 77.5381L124.422 79.3875L126.471 77.5381M127.876 77.5381L125.788 79.3875M129.262 77.5381L127.154 79.3875M130.609 77.5381L128.54 79.3875M131.994 77.5381L129.926 79.3875M133.399 77.5381L131.331 79.3875M134.785 77.5381L132.716 79.3875M136.171 77.5381L134.102 79.3875M137.556 77.5381L135.488 79.3875M135.488 77.5381L137.556 79.3875M134.102 77.5381L136.171 79.3875M132.716 77.5381L134.785 79.3875M131.331 77.5381L133.399 79.3875M129.945 77.5381L132.014 79.3875M128.559 77.5381L130.628 79.3875M127.174 77.5381L129.262 79.3875M125.788 77.5381L127.857 79.3875M124.383 77.5381L126.471 79.3875M123.017 77.5381L125.086 79.3875M121.631 77.5381L123.7 79.3875M120.246 77.5381L122.314 79.3875M118.88 77.5381L120.929 79.3875M117.474 77.5381L119.563 79.3875M116.089 77.5381L118.177 79.3875M114.703 77.5381L116.811 79.3875M116.811 88.0412L114.742 89.908M118.177 88.0412L116.089 89.908M119.582 88.0412L117.494 89.908M120.948 88.0412L118.88 89.908M122.334 88.0412L120.265 89.908M123.72 88.0412L121.651 89.908M125.105 88.0412L123.056 89.908M126.491 88.0412L124.422 89.908M127.876 88.0412L125.788 89.908M129.243 88.0412L127.154 89.908M130.667 88.0412L128.579 89.908M132.033 88.0412L129.965 89.908M133.399 88.0412L131.331 89.908M134.785 88.0412L132.716 89.908M136.171 88.0412L134.102 89.908M137.556 88.0412L135.488 89.908M135.488 88.0412L137.556 89.908M134.102 88.0412L136.171 89.908M132.716 88.0412L134.785 89.908M131.331 88.0412L133.399 89.908M129.945 88.0412L132.014 89.908M128.559 88.0412L130.648 89.908M127.154 88.0412L129.243 89.908M125.788 88.0412L127.857 89.908M124.422 88.0412L126.491 89.908M123.036 88.0412L125.105 89.908M121.651 88.0412L123.72 89.908M120.265 88.0412L122.334 89.908M125.808 88.0412L127.876 89.908M118.899 88.0412L120.948 89.908M117.494 88.0412L119.582 89.908M116.108 88.0412L118.196 89.908M114.742 88.0412L116.811 89.908" stroke="#EF2D28" stroke-width="0.246034"/>
<path d="M46.7815 75.5996H24.299C23.0595 75.5996 22.0547 76.5448 22.0547 77.7107V88.3185C22.0547 89.4844 23.0595 90.4296 24.299 90.4296H46.7815C48.021 90.4296 49.0258 89.4844 49.0258 88.3185V77.7107C49.0258 76.5448 48.021 75.5996 46.7815 75.5996Z" fill="white" stroke="#EF2D28" stroke-width="0.258335"/>
<path d="M46.216 76.2275H24.8851C23.7102 76.2275 22.7578 77.0946 22.7578 78.1642V87.8996C22.7578 88.9691 23.7102 89.8362 24.8851 89.8362H46.216C47.3909 89.8362 48.3433 88.9691 48.3433 87.8996V78.1642C48.3433 77.0946 47.3909 76.2275 46.216 76.2275Z" fill="white" stroke="#EF2D28" stroke-width="0.246034"/>
<path fill-rule="evenodd" clip-rule="evenodd" d="M34.6561 79.916L35.9454 79.9671L35.9986 80.5592L37.0619 81.1004L37.886 80.4163L38.8829 80.9574L37.9525 81.5496L38.1785 82.3664L39.3482 82.3154V83.3874L38.4177 83.3466L37.9392 84.0204L39.0026 84.7862L38.1785 85.4192L37.2879 84.7453L35.9986 85.0108L36.065 86.0012L34.6561 86.1033L34.47 85.1435L33.3003 84.6534L32.649 85.3273L31.6521 84.827L32.237 84.0613L31.5325 83.5712H30.5356L30.4824 82.1724L31.4793 82.2643L32.1838 81.4475L31.3597 80.8145L32.423 80.0998L33.1807 80.6818L34.47 80.498L34.6561 79.916Z" fill="white" stroke="#EF2D28" stroke-width="0.155327"/>
<path d="M35.0235 84.0734C35.8109 84.0734 36.4493 83.5303 36.4493 82.8604C36.4493 82.1905 35.8109 81.6475 35.0235 81.6475C34.236 81.6475 33.5977 82.1905 33.5977 82.8604C33.5977 83.5303 34.236 84.0734 35.0235 84.0734Z" fill="white" stroke="#EF2D28" stroke-width="0.167268"/>
<path fill-rule="evenodd" clip-rule="evenodd" d="M26.2112 76.8384L24.123 78.6878L26.2112 76.8384ZM27.5969 76.8384L25.5087 78.6878L27.5969 76.8384ZM28.963 76.8384L26.8943 78.6878L28.963 76.8384ZM30.3486 76.8384L28.2799 78.6878L30.3486 76.8384ZM31.7343 76.8384L29.6656 78.6878L31.7343 76.8384ZM33.1199 76.8384L31.0512 78.6878L33.1199 76.8384ZM34.5055 76.8384L32.4368 78.6878L34.5055 76.8384ZM35.8912 76.8384L33.8225 78.6878L35.8912 76.8384ZM37.2768 76.8384L35.1886 78.6878L37.2768 76.8384ZM38.6625 76.8384L36.5547 78.6878L38.6625 76.8384ZM40.0091 76.8384L37.9404 78.6878L40.0091 76.8384ZM41.3947 76.8384L39.326 78.6878L41.3947 76.8384ZM35.8717 76.8384L33.8225 78.6878L35.8717 76.8384ZM42.7998 76.8384L40.7311 78.6878L42.7998 76.8384ZM44.1855 76.8384L42.1168 78.6878L44.1855 76.8384ZM45.5711 76.8384L43.5024 78.6878L45.5711 76.8384ZM46.9568 76.8384L44.8881 78.6878L46.9568 76.8384ZM44.8881 76.8384L46.9568 78.6878L44.8881 76.8384ZM43.5024 76.8384L45.5711 78.6878L43.5024 76.8384ZM42.1168 76.8384L44.1855 78.6878L42.1168 76.8384ZM40.7311 76.8384L42.7998 78.6878L40.7311 76.8384ZM39.3455 76.8384L41.4142 78.6878L39.3455 76.8384ZM37.9599 76.8384L40.0286 78.6878L37.9599 76.8384ZM36.5742 76.8384L38.6625 78.6878L36.5742 76.8384ZM35.1886 76.8384L37.2573 78.6878L35.1886 76.8384ZM33.7835 76.8384L35.8717 78.6878L33.7835 76.8384ZM32.4173 76.8384L34.486 78.6878L32.4173 76.8384ZM31.0317 76.8384L33.1004 78.6878L31.0317 76.8384ZM29.6461 76.8384L31.7148 78.6878L29.6461 76.8384ZM35.1886 76.8384L37.2573 78.6878L35.1886 76.8384ZM28.2799 76.8384L30.3291 78.6878L28.2799 76.8384ZM26.8748 76.8384L28.963 78.6878L26.8748 76.8384ZM25.4892 76.8384L27.5774 78.6878L25.4892 76.8384ZM24.1035 76.8384L26.2112 78.6878L24.1035 76.8384ZM26.2112 87.3415L24.1425 89.2083L26.2112 87.3415ZM27.5774 87.3415L25.4892 89.2083L27.5774 87.3415ZM28.9825 87.3415L26.8943 89.2083L28.9825 87.3415ZM30.3486 87.3415L28.2799 89.2083L30.3486 87.3415ZM31.7343 87.3415L29.6656 89.2083L31.7343 87.3415ZM33.1199 87.3415L31.0512 89.2083L33.1199 87.3415ZM34.5055 87.3415L32.4564 89.2083L34.5055 87.3415ZM35.8912 87.3415L33.8225 89.2083L35.8912 87.3415ZM37.2768 87.3415L35.1886 89.2083L37.2768 87.3415ZM38.6429 87.3415L36.5547 89.2083L38.6429 87.3415ZM40.0676 87.3415L37.9794 89.2083L40.0676 87.3415ZM41.4337 87.3415L39.365 89.2083L41.4337 87.3415ZM35.8912 87.3415L33.8225 89.2083L35.8912 87.3415ZM42.7998 87.3415L40.7311 89.2083L42.7998 87.3415ZM44.1855 87.3415L42.1168 89.2083L44.1855 87.3415ZM45.5711 87.3415L43.5024 89.2083L45.5711 87.3415ZM46.9568 87.3415L44.8881 89.2083L46.9568 87.3415ZM44.8881 87.3415L46.9568 89.2083L44.8881 87.3415ZM43.5024 87.3415L45.5711 89.2083L43.5024 87.3415ZM42.1168 87.3415L44.1855 89.2083L42.1168 87.3415ZM40.7311 87.3415L42.7998 89.2083L40.7311 87.3415ZM39.3455 87.3415L41.4142 89.2083L39.3455 87.3415ZM37.9599 87.3415L40.0481 89.2083L37.9599 87.3415ZM36.5547 87.3415L38.6429 89.2083L36.5547 87.3415ZM35.1886 87.3415L37.2573 89.2083L35.1886 87.3415ZM33.8225 87.3415L35.8912 89.2083L33.8225 87.3415ZM32.4368 87.3415L34.5055 89.2083L32.4368 87.3415ZM31.0512 87.3415L33.1199 89.2083L31.0512 87.3415ZM29.6656 87.3415L31.7343 89.2083L29.6656 87.3415ZM35.2081 87.3415L37.2768 89.2083L35.2081 87.3415ZM28.2995 87.3415L30.3486 89.2083L28.2995 87.3415ZM26.8943 87.3415L28.9825 89.2083L26.8943 87.3415ZM25.5087 87.3415L27.5969 89.2083L25.5087 87.3415ZM24.1425 87.3415L26.2112 89.2083L24.1425 87.3415Z" fill="white"/>
<path d="M26.2112 76.8384L24.123 78.6878M27.5969 76.8384L25.5087 78.6878M28.963 76.8384L26.8943 78.6878M30.3486 76.8384L28.2799 78.6878M31.7343 76.8384L29.6656 78.6878M33.1199 76.8384L31.0512 78.6878M34.5055 76.8384L32.4368 78.6878M35.8912 76.8384L33.8225 78.6878L35.8717 76.8384M37.2768 76.8384L35.1886 78.6878M38.6625 76.8384L36.5547 78.6878M40.0091 76.8384L37.9404 78.6878M41.3947 76.8384L39.326 78.6878M42.7998 76.8384L40.7311 78.6878M44.1855 76.8384L42.1168 78.6878M45.5711 76.8384L43.5024 78.6878M46.9568 76.8384L44.8881 78.6878M44.8881 76.8384L46.9568 78.6878M43.5024 76.8384L45.5711 78.6878M42.1168 76.8384L44.1855 78.6878M40.7311 76.8384L42.7998 78.6878M39.3455 76.8384L41.4142 78.6878M37.9599 76.8384L40.0286 78.6878M36.5742 76.8384L38.6625 78.6878M35.1886 76.8384L37.2573 78.6878M33.7835 76.8384L35.8717 78.6878M32.4173 76.8384L34.486 78.6878M31.0317 76.8384L33.1004 78.6878M29.6461 76.8384L31.7148 78.6878M28.2799 76.8384L30.3291 78.6878M26.8748 76.8384L28.963 78.6878M25.4892 76.8384L27.5774 78.6878M24.1035 76.8384L26.2112 78.6878M26.2112 87.3415L24.1425 89.2083M27.5774 87.3415L25.4892 89.2083M28.9825 87.3415L26.8943 89.2083M30.3486 87.3415L28.2799 89.2083M31.7343 87.3415L29.6656 89.2083M33.1199 87.3415L31.0512 89.2083M34.5055 87.3415L32.4564 89.2083M35.8912 87.3415L33.8225 89.2083M37.2768 87.3415L35.1886 89.2083M38.6429 87.3415L36.5547 89.2083M40.0676 87.3415L37.9794 89.2083M41.4337 87.3415L39.365 89.2083M42.7998 87.3415L40.7311 89.2083M44.1855 87.3415L42.1168 89.2083M45.5711 87.3415L43.5024 89.2083M46.9568 87.3415L44.8881 89.2083M44.8881 87.3415L46.9568 89.2083M43.5024 87.3415L45.5711 89.2083M42.1168 87.3415L44.1855 89.2083M40.7311 87.3415L42.7998 89.2083M39.3455 87.3415L41.4142 89.2083M37.9599 87.3415L40.0481 89.2083M36.5547 87.3415L38.6429 89.2083M35.1886 87.3415L37.2573 89.2083M33.8225 87.3415L35.8912 89.2083M32.4368 87.3415L34.5055 89.2083M31.0512 87.3415L33.1199 89.2083M29.6656 87.3415L31.7343 89.2083M35.2081 87.3415L37.2768 89.2083M28.2995 87.3415L30.3486 89.2083M26.8943 87.3415L28.9825 89.2083M25.5087 87.3415L27.5969 89.2083M24.1425 87.3415L26.2112 89.2083" stroke="#EF2D28" stroke-width="0.246034"/>
<path fill-rule="evenodd" clip-rule="evenodd" d="M64.4696 106.704C30.9123 139.617 16.5969 143.774 23.3272 146.431C30.0576 149.088 51.6612 132.097 74.1371 109.55C96.613 87.0027 110.38 66.9194 103.65 64.2629C96.9195 61.6063 100.171 71.728 64.4696 106.704Z" fill="white" stroke="#EF2D28" stroke-width="0.411759"/>
<path fill-rule="evenodd" clip-rule="evenodd" d="M36.101 130.699L47.8691 133.787C36.8036 144.308 24.3524 148.617 20.898 146.768C17.4437 144.919 27.1236 140.592 36.1205 130.717L36.101 130.699Z" fill="white" stroke="#EF2D28" stroke-width="0.239883"/>
<path fill-rule="evenodd" clip-rule="evenodd" d="M36.1584 131.91L45.8535 134.376C35.0748 144.492 24.4102 147.361 21.6538 146.119C18.8783 144.895 27.4138 141.422 36.1584 131.91Z" fill="white" stroke="#EF2D28" stroke-width="0.232155"/>
<path d="M72.2695 105.311C72.242 105.469 72.1596 106.177 72.0909 106.458C72.0909 106.848 72.0496 107.141 72.0084 107.447C71.8984 107.715 71.9122 107.959 71.5823 108.057C71.4291 108.3 71.1866 108.49 70.8951 108.594C70.6307 108.782 70.3396 108.938 70.0293 109.058C69.7034 109.18 69.342 109.205 68.9985 109.131L68.2288 108.594C68.1738 108.35 68.1188 107.996 68.0501 107.752C68.1569 108.077 68.2169 108.414 68.2288 108.753C68.2013 109.119 68.0501 109.29 67.8852 109.583" stroke="#EF2D28" stroke-width="0.233139"/>
<path d="M69.0815 110.408L68.9991 110.335C69.2052 110.518 69.1228 110.433 68.6555 110.176C68.3348 110.046 67.9637 109.948 67.5422 109.883H66.3327C65.8654 109.883 65.5493 109.944 65.2195 110.03C64.9721 110.249 64.6147 110.372 64.3536 110.567C64.1215 110.723 63.9449 110.934 63.8451 111.177C63.6114 111.385 63.4602 111.702 63.2403 111.861C63.1441 112.215 62.9517 112.202 62.8143 112.471C63.2266 112.495 63.5427 112.544 63.7626 112.776C64.1199 112.935 63.4602 112.617 63.3228 112.471C63.0479 112.398 62.9792 112.325 62.5531 112.325C62.1683 112.202 61.9209 112.41 61.5223 112.471C61.2887 112.593 61.22 112.63 60.9176 112.63" stroke="#EF2D28" stroke-width="0.233139"/>
<path d="M64.4883 114.281C64.3096 114.281 63.5125 114.415 63.1963 114.281C62.839 114.196 62.6466 114.037 62.4267 113.744C62.3167 113.537 62.4267 114.11 62.4267 114.354C62.3854 114.806 62.2343 114.806 61.9869 115.111C61.7395 115.258 61.4783 115.453 61.2172 115.575C60.9882 115.741 60.7275 115.869 60.4475 115.953C60.1543 116.059 59.8978 116.185 59.6779 116.332C59.3893 116.515 59.403 116.735 59.2381 117.028C59.2793 117.394 59.348 117.613 59.5817 117.784C59.6916 118.041 59.9115 118.297 60.1039 118.468C60.3101 118.834 60.5575 118.993 60.0215 119.078C59.7191 119.2 59.5542 119.103 59.2381 119.078" stroke="#EF2D28" stroke-width="0.233139"/>
<path d="M58.9453 119.594C58.7254 119.545 57.9832 119.325 57.6534 119.215H56.4439C55.9904 119.252 55.8941 119.374 55.5093 119.52C55.2482 119.752 55.0833 119.911 54.7259 120.058C54.5472 120.265 54.1761 120.631 54.0387 120.9C53.9267 121.216 53.8711 121.545 53.8738 121.876C53.8738 122.328 54.0112 122.413 54.0387 122.804C54.1336 123.14 54.3121 123.453 54.561 123.719C54.5885 123.801 54.6434 123.85 54.7259 123.866" stroke="#EF2D28" stroke-width="0.233139"/>
<path d="M54.8926 124.814C54.8535 124.814 54.7755 125.007 54.6486 125.171C54.3656 125.46 54.3364 125.479 53.9168 125.479C53.5265 125.46 53.5752 125.325 53.302 125.238C53.1752 125.045 53.019 124.891 52.8727 124.631C52.7751 124.477 52.6873 124.236 52.5799 124.091C52.4628 123.908 52.3262 123.773 52.2091 123.61C52.092 123.561 52.053 123.513 51.8969 123.484C52.2482 123.542 52.2872 123.667 52.5116 123.851L52.8141 124.39C52.8532 124.65 52.9312 124.853 52.941 125.171C52.941 125.508 52.941 125.739 52.8141 126.018C52.6677 126.163 52.5702 126.317 52.3848 126.442C52.2307 126.59 52.0902 126.751 51.9652 126.924L51.409 127.281C51.2333 127.387 51.0284 127.493 50.7454 127.521C50.3844 127.493 50.277 127.396 50.0136 127.281C49.7794 127.117 49.6037 127.011 49.3988 126.857C49.2307 126.72 49.0857 126.557 48.9695 126.375C48.6475 126.298 48.4328 126.327 48.2376 126.5C48.0728 126.615 47.9306 126.759 47.818 126.924C47.7204 126.972 47.5448 127.117 47.4472 127.165" stroke="#EF2D28" stroke-width="0.232711"/>
<path d="M48.1785 127.333C48.2756 127.369 48.6395 127.621 48.7851 127.705C48.8822 128.03 49.0399 128.198 49.0884 128.547C49.1612 128.868 49.1895 129.216 49.1733 129.593C49.0884 129.978 48.9307 130.254 48.7851 130.555C48.5425 130.723 48.4211 130.844 48.1057 131.012C47.8145 131.068 47.487 131.096 47.123 131.096C46.8804 131.168 46.4436 131.204 46.2131 131.096C45.8734 131.048 45.6186 130.916 45.376 130.795C45.097 130.639 44.9271 130.483 44.6238 130.339C44.454 130.13 44.2518 129.906 44.0172 129.665C43.8231 129.413 43.6897 129.268 43.5562 128.992C43.6937 129.296 43.8191 129.597 43.9323 129.894C44.1143 130.206 44.2113 130.326 44.2356 130.711C44.3569 131.024 44.3205 131.409 44.3205 131.769C44.2841 132.01 44.272 132.467 44.1628 132.671V132.9" stroke="#EF2D28" stroke-width="0.22948"/>
<path d="M36.9593 134.137V134.259C36.9333 133.956 36.9788 134.102 37.0959 134.695C37.3106 134.939 37.8765 135.009 38.3059 134.904C38.6962 134.608 38.6962 134.381 39.3988 134.259C40.1014 134.294 40.3746 134.468 40.7649 134.695C41.1757 134.839 41.5197 135.104 41.7407 135.445C41.8773 135.811 41.9554 136.073 41.487 136.213C41.0798 136.458 40.61 136.608 40.1209 136.649C39.5744 136.649 39.1646 136.597 38.9109 136.876C38.5206 137.225 38.5596 137.434 38.5596 138.062C38.423 138.254 38.4035 138.83 38.3059 139.057C37.9686 139.211 37.5916 139.284 37.213 139.266C37.0764 138.917 36.9398 138.324 36.8422 137.957C36.7446 137.574 36.7251 137.015 36.4714 136.754C36.2462 136.454 35.9618 136.194 35.6322 135.986C35.4348 135.786 35.1775 135.641 34.8906 135.567C35.3785 135.777 35.437 136.021 35.4956 136.544C35.0857 136.719 34.9686 136.858 34.2856 136.876C33.6025 136.823 33.4464 136.666 33.1927 136.317C33.1341 136.876 32.939 137.05 32.8024 137.539C32.5682 137.853 32.4706 138.184 32.2169 138.62C32.3145 139.144 32.5487 139.161 32.5682 139.807C32.7243 140.243 32.7243 140.644 33.0561 140.906C33.2122 141.08 33.3293 141.098 33.6806 141.115C32.978 141.115 32.5487 141.046 32.0803 140.801L31.1045 140.138C30.664 139.842 30.1685 139.618 29.6408 139.475C29.0748 139.475 28.665 139.423 28.4308 139.702C28.0925 139.935 27.8453 140.301 27.6892 140.801C27.5916 141.36 27.5331 141.743 27.8258 142.11C28.021 142.529 28.0795 142.686 27.8258 143.191C27.5331 143.54 27.1232 143.593 26.4597 143.732C25.9913 143.709 25.588 143.639 25.2497 143.523" stroke="#EF2D28" stroke-width="0.239883"/>
<path fill-rule="evenodd" clip-rule="evenodd" d="M102.635 77.0754C117.518 51.3153 127.388 29.3643 124.697 28.1218C121.978 26.8664 107.696 46.7805 92.8138 72.5406L102.635 77.0754Z" fill="white" stroke="#EF2D28" stroke-width="0.312784"/>
<path fill-rule="evenodd" clip-rule="evenodd" d="M101.651 76.6402C116.009 51.7892 125.896 30.7817 123.743 29.7876C121.568 28.7833 108.152 48.1614 93.7942 73.0124" fill="white"/>
<path d="M101.651 76.6402C116.009 51.7892 125.896 30.7817 123.743 29.7876C121.568 28.7833 108.152 48.1614 93.7942 73.0124" stroke="#EF2D28" stroke-width="0.274784"/>
<path fill-rule="evenodd" clip-rule="evenodd" d="M99.1859 63.6762C97.4378 66.5804 95.5857 69.9078 93.7946 73.0081L101.674 76.6462C103.465 73.5459 105.428 70.2697 107.065 67.3143L99.1859 63.6762Z" fill="white" stroke="#EF2D28" stroke-width="0.311862"/>
<path fill-rule="evenodd" clip-rule="evenodd" d="M99.871 64.6796C98.1139 67.5993 96.9066 69.8106 95.1065 72.9264L100.988 75.6421C102.779 72.5418 104.116 70.3508 105.753 67.3954L99.871 64.6796Z" fill="white" stroke="#EF2D28" stroke-width="0.311862"/>
<path fill-rule="evenodd" clip-rule="evenodd" d="M104.146 68.0479L100.206 66.2289L96.7136 72.2745L100.653 74.0935L104.146 68.0479ZM104.146 68.0479L96.7136 72.2745L104.146 68.0479ZM100.653 74.0935L100.206 66.2289L100.653 74.0935ZM121.914 37.293L117.974 35.4739L121.914 37.293Z" fill="white"/>
<path d="M104.146 68.0479L100.206 66.2289M104.146 68.0479L100.653 74.0935M104.146 68.0479L96.7136 72.2745M100.206 66.2289L96.7136 72.2745M100.206 66.2289L100.653 74.0935M96.7136 72.2745L100.653 74.0935M121.914 37.293L117.974 35.4739" stroke="#EF2D28" stroke-width="0.311862"/>
<path d="M121.891 34.4327C121.286 34.5857 120.684 34.2781 120.547 33.7457C120.411 33.2133 120.791 32.6576 121.396 32.5046C122.001 32.3516 122.603 32.6591 122.74 33.1916C122.876 33.724 122.496 34.2796 121.891 34.4327Z" fill="#EF0000" stroke="#EF2D28" stroke-width="0.404089"/>
<path fill-rule="evenodd" clip-rule="evenodd" d="M96.8293 106.104C130.387 139.017 144.702 143.174 137.972 145.831C131.241 148.487 109.638 131.497 87.1617 108.95C64.6859 86.4026 50.9186 66.3193 57.6489 63.6628C64.3793 61.0062 61.1277 71.1279 96.8293 106.104Z" fill="white" stroke="#EF2D28" stroke-width="0.411759"/>
<path fill-rule="evenodd" clip-rule="evenodd" d="M125.098 129.999L113.33 133.087C124.396 143.608 136.847 147.917 140.301 146.068C143.756 144.218 134.076 139.891 125.079 130.016L125.098 129.999Z" fill="white" stroke="#EF2D28" stroke-width="0.239883"/>
<path fill-rule="evenodd" clip-rule="evenodd" d="M125.041 131.31L115.346 133.776C126.124 143.892 136.789 146.761 139.545 145.519C142.321 144.295 133.785 140.822 125.041 131.31Z" fill="white" stroke="#EF2D28" stroke-width="0.232155"/>
<path d="M89.0293 104.71C89.0568 104.869 89.1392 105.577 89.208 105.858C89.208 106.248 89.2492 106.541 89.2904 106.846C89.4004 107.115 89.3866 107.359 89.7165 107.457C89.8697 107.7 90.1123 107.89 90.4037 107.994C90.6681 108.182 90.9592 108.338 91.2696 108.458C91.5954 108.58 91.9568 108.605 92.3004 108.531L93.07 107.994C93.125 107.75 93.18 107.396 93.2487 107.152C93.1419 107.477 93.0819 107.814 93.07 108.153C93.0975 108.519 93.2487 108.69 93.4136 108.983" stroke="#EF2D28" stroke-width="0.233139"/>
<path d="M92.2193 109.808L92.3017 109.735C92.0956 109.918 92.178 109.832 92.6453 109.576C92.966 109.446 93.3371 109.348 93.7586 109.283H94.9681C95.4354 109.283 95.7515 109.344 96.0813 109.43C96.3287 109.649 96.6861 109.771 96.9472 109.967C97.1793 110.122 97.3559 110.334 97.4557 110.577C97.6894 110.785 97.8406 111.102 98.0605 111.261C98.1567 111.615 98.3491 111.602 98.4865 111.871C98.0742 111.895 97.7581 111.944 97.5382 112.176C97.1808 112.335 97.8406 112.017 97.978 111.871C98.2529 111.798 98.3216 111.724 98.7477 111.724C99.1325 111.602 99.3799 111.81 99.7785 111.871C100.012 111.993 100.081 112.03 100.383 112.03" stroke="#EF2D28" stroke-width="0.233139"/>
<path d="M96.8125 113.581C96.9912 113.581 97.7883 113.715 98.1044 113.581C98.4618 113.496 98.6542 113.337 98.8741 113.044C98.9841 112.836 98.8741 113.41 98.8741 113.654C98.9153 114.106 99.0665 114.106 99.3139 114.411C99.5613 114.557 99.8224 114.753 100.084 114.875C100.313 115.041 100.573 115.169 100.853 115.253C101.146 115.359 101.403 115.485 101.623 115.632C101.912 115.815 101.898 116.034 102.063 116.327C102.021 116.694 101.953 116.913 101.719 117.084C101.609 117.34 101.389 117.597 101.197 117.768C100.991 118.134 100.743 118.292 101.279 118.378C101.582 118.5 101.747 118.402 102.063 118.378" stroke="#EF2D28" stroke-width="0.233139"/>
<path d="M102.254 118.994C102.474 118.945 103.216 118.725 103.546 118.615H104.755C105.209 118.652 105.305 118.774 105.69 118.92C105.951 119.152 106.116 119.311 106.473 119.457C106.652 119.665 107.023 120.031 107.161 120.3C107.273 120.616 107.328 120.945 107.325 121.276C107.325 121.728 107.188 121.813 107.161 122.204C107.066 122.54 106.887 122.853 106.638 123.119C106.611 123.201 106.556 123.249 106.473 123.266" stroke="#EF2D28" stroke-width="0.233139"/>
<path d="M106.309 124.214C106.348 124.214 106.426 124.407 106.553 124.571C106.836 124.86 106.865 124.879 107.284 124.879C107.675 124.86 107.626 124.725 107.899 124.638C108.026 124.446 108.182 124.291 108.329 124.031C108.426 123.877 108.514 123.636 108.621 123.492C108.738 123.309 108.875 123.174 108.992 123.01C109.109 122.962 109.148 122.914 109.304 122.885C108.953 122.943 108.914 123.068 108.69 123.251L108.387 123.79C108.348 124.051 108.27 124.253 108.26 124.571C108.26 124.908 108.26 125.139 108.387 125.419C108.533 125.563 108.631 125.717 108.816 125.843C108.971 125.991 109.111 126.152 109.236 126.324L109.792 126.681C109.968 126.787 110.173 126.893 110.456 126.922C110.817 126.893 110.924 126.797 111.188 126.681C111.422 126.517 111.597 126.411 111.802 126.257C111.971 126.12 112.115 125.957 112.232 125.775C112.554 125.698 112.768 125.727 112.964 125.901C113.128 126.015 113.271 126.159 113.383 126.324C113.481 126.373 113.656 126.517 113.754 126.565" stroke="#EF2D28" stroke-width="0.232711"/>
<path d="M113.12 126.732C113.023 126.768 112.659 127.021 112.514 127.105C112.417 127.43 112.259 127.598 112.21 127.947C112.138 128.267 112.109 128.616 112.126 128.993C112.21 129.378 112.368 129.654 112.514 129.955C112.756 130.123 112.878 130.243 113.193 130.412C113.484 130.468 113.812 130.496 114.176 130.496C114.418 130.568 114.855 130.604 115.086 130.496C115.425 130.448 115.68 130.316 115.923 130.195C116.202 130.039 116.372 129.883 116.675 129.738C116.845 129.53 117.047 129.306 117.282 129.065C117.476 128.813 117.609 128.668 117.743 128.392C117.605 128.696 117.48 128.997 117.367 129.294C117.185 129.606 117.087 129.726 117.063 130.111C116.942 130.424 116.978 130.809 116.978 131.169C117.015 131.41 117.027 131.867 117.136 132.071V132.3" stroke="#EF2D28" stroke-width="0.22948"/>
<path d="M124.24 133.436V133.558C124.266 133.256 124.22 133.401 124.103 133.995C123.889 134.239 123.323 134.309 122.893 134.204C122.503 133.907 122.503 133.681 121.8 133.558C121.098 133.593 120.825 133.768 120.434 133.995C120.024 134.139 119.68 134.403 119.459 134.745C119.322 135.111 119.244 135.373 119.712 135.513C120.119 135.758 120.589 135.908 121.078 135.949C121.625 135.949 122.035 135.896 122.288 136.175C122.679 136.524 122.64 136.734 122.64 137.362C122.776 137.554 122.796 138.13 122.893 138.356C123.231 138.511 123.608 138.583 123.986 138.566C124.123 138.217 124.259 137.624 124.357 137.257C124.455 136.873 124.474 136.315 124.728 136.053C124.953 135.754 125.237 135.494 125.567 135.286C125.764 135.086 126.022 134.94 126.309 134.867C125.821 135.076 125.762 135.321 125.704 135.844C126.113 136.018 126.231 136.158 126.914 136.175C127.597 136.123 127.753 135.966 128.007 135.617C128.065 136.175 128.26 136.35 128.397 136.838C128.631 137.153 128.729 137.484 128.982 137.92C128.885 138.444 128.651 138.461 128.631 139.107C128.475 139.543 128.475 139.944 128.143 140.206C127.987 140.38 127.87 140.398 127.519 140.415C128.221 140.415 128.651 140.345 129.119 140.101L130.095 139.438C130.535 139.142 131.031 138.917 131.558 138.775C132.124 138.775 132.534 138.723 132.768 139.002C133.107 139.235 133.354 139.601 133.51 140.101C133.608 140.659 133.666 141.043 133.373 141.41C133.178 141.828 133.12 141.985 133.373 142.491C133.666 142.84 134.076 142.893 134.74 143.032C135.208 143.009 135.611 142.939 135.95 142.823" stroke="#EF2D28" stroke-width="0.239883"/>
<path fill-rule="evenodd" clip-rule="evenodd" d="M58.5641 76.3757C43.6816 50.6156 33.8113 28.6646 36.5025 27.4221C39.2214 26.1667 53.5029 46.0808 68.3854 71.8409L58.5641 76.3757Z" fill="white" stroke="#EF2D28" stroke-width="0.312784"/>
<path fill-rule="evenodd" clip-rule="evenodd" d="M59.5478 75.9405C45.1905 51.0895 35.303 30.082 37.456 29.0879C39.6311 28.0836 53.0477 47.4617 67.405 72.3127" fill="white"/>
<path d="M59.5478 75.9405C45.1905 51.0895 35.303 30.082 37.456 29.0879C39.6311 28.0836 53.0477 47.4617 67.405 72.3127" stroke="#EF2D28" stroke-width="0.274784"/>
<path fill-rule="evenodd" clip-rule="evenodd" d="M62.0133 62.9765C63.7614 65.8807 65.6135 69.2081 67.4047 72.3084L59.5254 75.9465C57.7342 72.8462 55.7712 69.57 54.134 66.6146L62.0133 62.9765Z" fill="white" stroke="#EF2D28" stroke-width="0.311862"/>
<path fill-rule="evenodd" clip-rule="evenodd" d="M61.3283 63.9799C63.0853 66.8996 64.2926 69.1109 66.0927 72.2267L60.211 74.9424C58.4198 71.8421 57.0837 69.651 55.4465 66.6956L61.3283 63.9799Z" fill="white" stroke="#EF2D28" stroke-width="0.311862"/>
<path fill-rule="evenodd" clip-rule="evenodd" d="M57.0533 67.3482L60.9929 65.5292L64.4856 71.5748L60.546 73.3938L57.0533 67.3482ZM57.0533 67.3482L64.4856 71.5748L57.0533 67.3482ZM60.546 73.3938L60.9929 65.5292L60.546 73.3938ZM39.2852 36.5933L43.2248 34.7742L39.2852 36.5933Z" fill="white"/>
<path d="M57.0533 67.3482L60.9929 65.5292M57.0533 67.3482L60.546 73.3938M57.0533 67.3482L64.4856 71.5748M60.9929 65.5292L64.4856 71.5748M60.9929 65.5292L60.546 73.3938M64.4856 71.5748L60.546 73.3938M39.2852 36.5933L43.2248 34.7742" stroke="#EF2D28" stroke-width="0.311862"/>
<path d="M39.3083 33.733C39.9137 33.886 40.5151 33.5784 40.6517 33.046C40.7884 32.5136 40.4084 31.9579 39.8031 31.8049C39.1977 31.6519 38.5963 31.9594 38.4597 32.4919C38.323 33.0243 38.703 33.5799 39.3083 33.733Z" fill="#EF0000" stroke="#EF2D28" stroke-width="0.404089"/>
<path fill-rule="evenodd" clip-rule="evenodd" d="M70.4651 63.2471C70.4651 84.8813 70.5952 93.0291 69.0079 94.1457C67.4987 95.3495 25.5273 94.1457 25.5273 100.322C25.5273 106.498 60.0828 112.709 70.4651 112.709C84.3081 112.709 91.2209 106.521 91.2036 94.1457V63.2645H70.4651V63.2471Z" fill="white" stroke="#EF2D28" stroke-width="0.284092"/>
<path fill-rule="evenodd" clip-rule="evenodd" d="M70.4727 69.4229V72.5109C77.3334 73.5397 84.3379 73.5397 91.1987 72.5109V69.4229C84.3379 70.4516 77.3334 70.4516 70.4727 69.4229Z" fill="white" stroke="#EF2D28" stroke-width="0.246034"/>
<path fill-rule="evenodd" clip-rule="evenodd" d="M70.4727 63.2466V66.3347C77.3334 67.3634 84.3379 67.3634 91.1987 66.3347V63.2466C84.3379 64.2753 77.3334 64.2753 70.4727 63.2466Z" fill="white" stroke="#EF2D28" stroke-width="0.246034"/>
<path fill-rule="evenodd" clip-rule="evenodd" d="M70.4727 66.3345V69.4226C77.3334 70.4513 84.3379 70.4513 91.1987 69.4226V66.3345C84.3379 67.3632 77.3334 67.3632 70.4727 66.3345Z" fill="white" stroke="#EF2D28" stroke-width="0.246034"/>
<path fill-rule="evenodd" clip-rule="evenodd" d="M70.4727 72.5107V75.5988C77.3334 76.6276 84.3379 76.6276 91.1987 75.5988V72.5107C84.3379 73.5395 77.3334 73.5395 70.4727 72.5107Z" fill="white" stroke="#EF2D28" stroke-width="0.246034"/>
<path d="M71.4162 68.751C71.9394 68.751 72.3636 68.4522 72.3636 68.0835C72.3636 67.7149 71.9394 67.416 71.4162 67.416C70.8929 67.416 70.4688 67.7149 70.4688 68.0835C70.4688 68.4522 70.8929 68.751 71.4162 68.751Z" fill="white" stroke="#EF2D28" stroke-width="0.232579"/>
<path d="M75.1837 69.0835C75.707 69.0835 76.1311 68.7847 76.1311 68.416C76.1311 68.0474 75.707 67.7485 75.1837 67.7485C74.6605 67.7485 74.2363 68.0474 74.2363 68.416C74.2363 68.7847 74.6605 69.0835 75.1837 69.0835Z" fill="white" stroke="#EF2D28" stroke-width="0.232579"/>
<path d="M78.963 69.4229C79.4863 69.4229 79.9104 69.124 79.9104 68.7554C79.9104 68.3867 79.4863 68.0879 78.963 68.0879C78.4398 68.0879 78.0156 68.3867 78.0156 68.7554C78.0156 69.124 78.4398 69.4229 78.963 69.4229Z" fill="white" stroke="#EF2D28" stroke-width="0.232579"/>
<path d="M82.7306 69.4229C83.2538 69.4229 83.678 69.124 83.678 68.7554C83.678 68.3867 83.2538 68.0879 82.7306 68.0879C82.2074 68.0879 81.7832 68.3867 81.7832 68.7554C81.7832 69.124 82.2074 69.4229 82.7306 69.4229Z" fill="white" stroke="#EF2D28" stroke-width="0.232579"/>
<path d="M86.5001 69.0835C87.0234 69.0835 87.4475 68.7847 87.4475 68.416C87.4475 68.0474 87.0234 67.7485 86.5001 67.7485C85.9769 67.7485 85.5527 68.0474 85.5527 68.416C85.5527 68.7847 85.9769 69.0835 86.5001 69.0835Z" fill="white" stroke="#EF2D28" stroke-width="0.232579"/>
<path d="M90.2775 68.751C90.8007 68.751 91.2249 68.4522 91.2249 68.0835C91.2249 67.7149 90.8007 67.416 90.2775 67.416C89.7542 67.416 89.3301 67.7149 89.3301 68.0835C89.3301 68.4522 89.7542 68.751 90.2775 68.751Z" fill="white" stroke="#EF2D28" stroke-width="0.232579"/>
<path fill-rule="evenodd" clip-rule="evenodd" d="M70.473 78.688L91.199 95.3848L70.473 78.688ZM72.5417 78.688L91.2185 93.5179L72.5417 78.688ZM75.2934 79.3161L91.2185 91.686L75.2934 79.3161ZM77.3621 79.2986L91.2185 89.8192L77.3621 79.2986ZM79.4503 79.3161L91.199 87.9698L79.4503 79.3161ZM81.519 79.3161L91.199 86.1204L81.519 79.3161ZM83.5877 79.3161L91.199 84.2536L83.5877 79.3161ZM85.6954 79.3161L91.238 83.0148L85.6954 79.3161ZM87.7446 79.3161L91.2185 81.7936L87.7446 79.3161ZM89.8328 79.3161L91.199 80.5374L89.8328 79.3161ZM70.473 80.5374L91.199 97.2516L70.473 80.5374ZM91.199 78.7054L68.3652 97.2342L91.199 78.7054ZM89.1107 78.688L69.0678 94.7741L89.1107 78.688ZM86.359 79.3161L70.4534 91.6686L86.359 79.3161ZM84.2708 79.3161L70.4534 89.8192L84.2708 79.3161ZM82.2216 79.3161L70.473 87.9698L82.2216 79.3161ZM80.1529 79.3161L70.473 86.1204L80.1529 79.3161ZM78.0842 79.3161L70.473 84.2536L78.0842 79.3161ZM75.9765 79.3161L70.4534 83.0148L75.9765 79.3161ZM73.9078 79.3161L70.4534 81.7936L73.9078 79.3161ZM71.8196 79.3161L70.4534 80.5374L71.8196 79.3161ZM91.199 80.5374L68.3652 99.1184L91.199 80.5374ZM91.199 82.4216L68.3652 100.95L91.199 82.4216ZM91.199 84.2536L68.3652 102.8L91.199 84.2536ZM91.199 86.103L68.3652 104.684L91.199 86.103ZM91.199 87.9872L68.3652 106.516L91.199 87.9872ZM91.199 89.8192L68.3652 108.365L91.199 89.8192ZM91.199 91.6686L68.3652 110.215L91.199 91.6686ZM91.199 93.5354L68.3652 112.082L91.199 93.5354ZM91.199 95.3848L69.7509 112.692L91.199 95.3848ZM91.199 97.2342L71.8391 112.692L91.199 97.2342ZM90.4964 99.7116L75.2739 112.082L90.4964 99.7116ZM89.8328 102.172L77.3816 112.064L89.8328 102.172ZM88.4472 105.26L82.2021 110.197L88.4472 105.26ZM70.473 82.3868L90.5159 98.4554L70.473 82.3868ZM70.473 84.2361L90.5159 100.322L70.473 84.2361ZM70.473 86.1204L89.8328 101.561L70.473 86.1204ZM70.473 87.9523L89.8328 103.428L70.473 87.9523ZM70.473 89.8192L89.1303 104.649L70.473 89.8192ZM69.7704 91.0579L88.4472 105.888L69.7704 91.0579ZM69.7704 92.9247L87.0616 106.533L69.7704 92.9247ZM69.0873 94.146L86.3785 107.755L69.0873 94.146ZM68.3652 95.3673L84.9538 108.348L68.3652 95.3673ZM68.3652 97.2167L84.2708 109.587L68.3652 97.2167ZM68.3652 99.0835L82.2216 110.197L68.3652 99.0835Z" fill="white"/>
<path d="M70.473 78.688L91.199 95.3848L69.7509 112.692M72.5417 78.688L91.2185 93.5179M75.2934 79.3161L91.2185 91.686M77.3621 79.2986L91.2185 89.8192M79.4503 79.3161L91.199 87.9698M81.519 79.3161L91.199 86.1204M83.5877 79.3161L91.199 84.2536L68.3652 102.8M85.6954 79.3161L91.238 83.0148M87.7446 79.3161L91.2185 81.7936M89.8328 79.3161L91.199 80.5374L68.3652 99.1184M70.473 80.5374L91.199 97.2516M91.199 78.7054L68.3652 97.2342M89.1107 78.688L69.0678 94.7741M86.359 79.3161L70.4534 91.6686M84.2708 79.3161L70.4534 89.8192M82.2216 79.3161L70.473 87.9698M80.1529 79.3161L70.473 86.1204L89.8328 101.561M78.0842 79.3161L70.473 84.2536M75.9765 79.3161L70.4534 83.0148M73.9078 79.3161L70.4534 81.7936M71.8196 79.3161L70.4534 80.5374M91.199 82.4216L68.3652 100.95M91.199 86.103L68.3652 104.684M91.199 87.9872L68.3652 106.516M91.199 89.8192L68.3652 108.365M91.199 91.6686L68.3652 110.215M91.199 93.5354L68.3652 112.082M91.199 97.2342L71.8391 112.692M90.4964 99.7116L75.2739 112.082M89.8328 102.172L77.3816 112.064M88.4472 105.26L82.2021 110.197M70.473 82.3868L90.5159 98.4554M70.473 84.2361L90.5159 100.322M70.473 87.9523L89.8328 103.428M70.473 89.8192L89.1303 104.649M69.7704 91.0579L88.4472 105.888M69.7704 92.9247L87.0616 106.533M69.0873 94.146L86.3785 107.755M68.3652 95.3673L84.9538 108.348M68.3652 97.2167L84.2708 109.587M68.3652 99.0835L82.2216 110.197" stroke="#EF2D28" stroke-width="0.246034"/>
<path fill-rule="evenodd" clip-rule="evenodd" d="M70.4727 75.6167V78.7048C77.3334 79.7335 84.3379 79.7335 91.1987 78.7048V75.6167C84.3379 76.6455 77.3334 76.6455 70.4727 75.6167Z" fill="white" stroke="#EF2D28" stroke-width="0.246034"/>
<path fill-rule="evenodd" clip-rule="evenodd" d="M68.3848 100.95L80.836 110.843L68.3848 100.95ZM68.3848 102.817L79.4503 111.453L68.3848 102.817ZM68.3848 104.649L78.0647 112.081L68.3848 104.649ZM68.3848 106.498L75.3129 112.081L68.3848 106.498ZM68.3652 108.365L73.9078 112.692L68.3652 108.365ZM68.3652 110.215L71.8196 112.692L68.3652 110.215Z" fill="white"/>
<path d="M68.3848 100.95L80.836 110.843M68.3848 102.817L79.4503 111.453M68.3848 104.649L78.0647 112.081M68.3848 106.498L75.3129 112.081M68.3652 108.365L73.9078 112.692M68.3652 110.215L71.8196 112.692" stroke="#EF2D28" stroke-width="0.246034"/>
<path d="M71.4162 78.0328C71.9394 78.0328 72.3636 77.7339 72.3636 77.3653C72.3636 76.9966 71.9394 76.6978 71.4162 76.6978C70.8929 76.6978 70.4688 76.9966 70.4688 77.3653C70.4688 77.7339 70.8929 78.0328 71.4162 78.0328Z" fill="white" stroke="#EF2D28" stroke-width="0.232579"/>
<path d="M75.1837 78.3653C75.707 78.3653 76.1311 78.0664 76.1311 77.6978C76.1311 77.3291 75.707 77.0303 75.1837 77.0303C74.6605 77.0303 74.2363 77.3291 74.2363 77.6978C74.2363 78.0664 74.6605 78.3653 75.1837 78.3653Z" fill="white" stroke="#EF2D28" stroke-width="0.232579"/>
<path d="M78.963 78.6875C79.4863 78.6875 79.9104 78.3887 79.9104 78.02C79.9104 77.6514 79.4863 77.3525 78.963 77.3525C78.4398 77.3525 78.0156 77.6514 78.0156 78.02C78.0156 78.3887 78.4398 78.6875 78.963 78.6875Z" fill="white" stroke="#EF2D28" stroke-width="0.232579"/>
<path d="M82.7306 78.6875C83.2538 78.6875 83.678 78.3887 83.678 78.02C83.678 77.6514 83.2538 77.3525 82.7306 77.3525C82.2074 77.3525 81.7832 77.6514 81.7832 78.02C81.7832 78.3887 82.2074 78.6875 82.7306 78.6875Z" fill="white" stroke="#EF2D28" stroke-width="0.232579"/>
<path d="M86.5001 78.3653C87.0234 78.3653 87.4475 78.0664 87.4475 77.6978C87.4475 77.3291 87.0234 77.0303 86.5001 77.0303C85.9769 77.0303 85.5527 77.3291 85.5527 77.6978C85.5527 78.0664 85.9769 78.3653 86.5001 78.3653Z" fill="white" stroke="#EF2D28" stroke-width="0.232579"/>
<path d="M90.2775 78.0328C90.8007 78.0328 91.2249 77.7339 91.2249 77.3653C91.2249 76.9966 90.8007 76.6978 90.2775 76.6978C89.7542 76.6978 89.3301 76.9966 89.3301 77.3653C89.3301 77.7339 89.7542 78.0328 90.2775 78.0328Z" fill="white" stroke="#EF2D28" stroke-width="0.232579"/>
<path fill-rule="evenodd" clip-rule="evenodd" d="M40.7311 107.754L65.614 94.7739L40.7311 107.754ZM39.3455 107.126L62.8623 94.7739L39.3455 107.126ZM38.6624 105.888L60.091 94.7739L38.6624 105.888ZM37.9598 104.666L56.6367 94.7739L37.9598 104.666ZM36.5547 103.428L53.8459 94.7739L36.5547 103.428ZM37.2573 101.578L49.0059 95.3846L37.2573 101.578ZM36.5547 100.322L45.532 95.3846L36.5547 100.322ZM36.5547 98.4727L42.7998 95.3846L36.5547 98.4727ZM42.7998 108.365L66.2971 95.9952L42.7998 108.365ZM44.888 108.976L66.9996 97.234L44.888 108.976ZM46.9567 109.604L67.7022 98.4727L46.9567 109.604ZM49.0254 110.215L66.3166 100.95L49.0254 110.215ZM51.7772 110.215L66.9996 102.189L51.7772 110.215ZM53.8459 110.843L66.9801 104.038L53.8459 110.843ZM55.9146 111.453L66.2971 105.888L55.9146 111.453ZM58.6858 111.471L66.9801 107.126L58.6858 111.471ZM61.4571 112.081L66.9996 108.976L61.4571 112.081ZM64.2674 112.081L67.7217 110.232L64.2674 112.081Z" fill="white"/>
<path d="M40.7311 107.754L65.614 94.7739M39.3455 107.126L62.8623 94.7739M38.6624 105.888L60.091 94.7739M37.9598 104.666L56.6367 94.7739M36.5547 103.428L53.8459 94.7739M37.2573 101.578L49.0059 95.3846M36.5547 100.322L45.532 95.3846M36.5547 98.4727L42.7998 95.3846M42.7998 108.365L66.2971 95.9952M44.888 108.976L66.9996 97.234M46.9567 109.604L67.7022 98.4727M49.0254 110.215L66.3166 100.95M51.7772 110.215L66.9996 102.189M53.8459 110.843L66.9801 104.038M55.9146 111.453L66.2971 105.888M58.6858 111.471L66.9801 107.126M61.4571 112.081L66.9996 108.976M64.2674 112.081L67.7217 110.232" stroke="#EF2D28" stroke-width="0.246034"/>
<path fill-rule="evenodd" clip-rule="evenodd" d="M69.0684 94.1636H65.6141C64.4633 100.297 64.4633 106.559 65.6141 112.692H69.0684C67.9176 106.559 67.9176 100.297 69.0684 94.1636Z" fill="white" stroke="#EF2D28" stroke-width="0.246034"/>
<path fill-rule="evenodd" clip-rule="evenodd" d="M28.2793 102.8L36.5736 96.6235L28.2793 102.8ZM28.2793 98.4729L36.5736 105.888L28.2793 98.4729Z" fill="white"/>
<path d="M28.2793 102.8L36.5736 96.6235M28.2793 98.4729L36.5736 105.888" stroke="#EF2D28" stroke-width="0.246034"/>
<path fill-rule="evenodd" clip-rule="evenodd" d="M40.7305 95.3721L36.5775 95.9909C35.6563 99.9135 35.6563 103.206 36.5775 107.129L40.7305 108.355C39.8093 104.444 39.8093 99.2947 40.7305 95.3721Z" fill="white" stroke="#EF2D28" stroke-width="0.175128"/>
<path fill-rule="evenodd" clip-rule="evenodd" d="M91.2024 64.4687V61.3457C88.0737 61.3806 85.9976 59.5138 85.9976 57.647L75.6463 57.6644C75.6463 59.5138 73.5995 61.3806 70.4707 61.3806V64.4687H91.2024Z" fill="white" stroke="#EF2D28" stroke-width="0.301158"/>
<path fill-rule="evenodd" clip-rule="evenodd" d="M76.3672 53.9653H85.2665V57.6815H76.3672V53.9653ZM77.1283 50.2491H84.5249V53.9653H77.1088L77.1283 50.2491ZM77.1283 46.5504H84.5249V50.2491H77.1088L77.1283 46.5504ZM77.8699 41.5954H83.7833V46.5504H77.8699V41.5954ZM77.6162 37.2686H84.0565V41.5954H77.6162V37.2686Z" fill="white"/>
<path d="M84.5249 50.2491H77.1283L77.1088 53.9653H84.5249V50.2491ZM84.5249 50.2491V46.5504H77.1283L77.1088 50.2491H84.5249ZM76.3672 53.9653H85.2665V57.6815H76.3672V53.9653ZM77.8699 41.5954H83.7833V46.5504H77.8699V41.5954ZM77.6162 37.2686H84.0565V41.5954H77.6162V37.2686Z" stroke="#EF2D28" stroke-width="0.258335"/>
<path d="M81.1701 39.1357C85.9035 39.1357 89.7406 36.5033 89.7406 33.2561C89.7406 30.0089 85.9035 27.3765 81.1701 27.3765C76.4368 27.3765 72.5996 30.0089 72.5996 33.2561C72.5996 36.5033 76.4368 39.1357 81.1701 39.1357Z" fill="white" stroke="#EF2D28" stroke-width="0.250097"/>
<path fill-rule="evenodd" clip-rule="evenodd" d="M85.4646 32.9417C85.4646 34.5643 87.6022 37.2686 87.6022 37.2686C86.0494 38.3503 83.5287 39.1354 81.1692 39.1354C78.8098 39.1354 75.8656 38.6818 74.7363 37.2686C74.7363 37.2686 76.8739 34.5817 76.8739 32.9591C76.8739 31.3366 74.7363 29.2429 74.7363 29.2429C76.6106 28.0573 78.8677 27.4104 81.1894 27.3936C83.5287 27.3936 86.0292 28.1787 87.6022 29.2429C87.6022 29.2429 85.4646 31.3366 85.4646 32.9591V32.9417Z" fill="white" stroke="#EF2D28" stroke-width="0.250097"/>
<path fill-rule="evenodd" clip-rule="evenodd" d="M84.0327 32.9417C84.0327 34.5643 86.1702 37.8967 86.1702 37.8967C84.6175 38.9435 83.5487 39.1179 81.1691 39.1179C78.7895 39.1179 77.2973 39.3099 76.168 37.8967C76.168 37.8967 78.3056 34.5817 78.3056 32.9417C78.3056 31.3017 76.168 28.6148 76.168 28.6148C77.7207 27.568 78.7895 27.3936 81.1691 27.3936C83.5285 27.3936 84.6175 27.568 86.1702 28.6148C86.1702 28.6148 84.0327 31.3191 84.0327 32.9417Z" fill="white" stroke="#EF2D28" stroke-width="0.250097"/>
<path d="M72.5985 35.4019C73.7791 35.4019 74.7361 34.5739 74.7361 33.5525C74.7361 32.5311 73.7791 31.7031 72.5985 31.7031C71.418 31.7031 70.4609 32.5311 70.4609 33.5525C70.4609 34.5739 71.418 35.4019 72.5985 35.4019Z" fill="white" stroke="#EF2D28" stroke-width="0.250097"/>
<path d="M89.7528 35.4019C90.9334 35.4019 91.8904 34.5739 91.8904 33.5525C91.8904 32.5311 90.9334 31.7031 89.7528 31.7031C88.5723 31.7031 87.6152 32.5311 87.6152 33.5525C87.6152 34.5739 88.5723 35.4019 89.7528 35.4019Z" fill="white" stroke="#EF2D28" stroke-width="0.250097"/>
<path d="M81.1864 35.4019C82.367 35.4019 83.324 34.5739 83.324 33.5525C83.324 32.5311 82.367 31.7031 81.1864 31.7031C80.0059 31.7031 79.0488 32.5311 79.0488 33.5525C79.0488 34.5739 80.0059 35.4019 81.1864 35.4019Z" fill="white" stroke="#EF2D28" stroke-width="0.250097"/>
<path d="M81.1864 29.2256C82.367 29.2256 83.324 28.3976 83.324 27.3762C83.324 26.3549 82.367 25.5269 81.1864 25.5269C80.0059 25.5269 79.0488 26.3549 79.0488 27.3762C79.0488 28.3976 80.0059 29.2256 81.1864 29.2256Z" fill="white" stroke="#EF2D28" stroke-width="0.250097"/>
<path d="M74.919 64.4688C76.1417 64.4688 77.1329 63.6408 77.1329 62.6194C77.1329 61.598 76.1417 60.77 74.919 60.77C73.6963 60.77 72.7051 61.598 72.7051 62.6194C72.7051 63.6408 73.6963 64.4688 74.919 64.4688Z" fill="white" stroke="#EF2D28" stroke-width="0.254523"/>
<path d="M86.7471 64.4688C87.9698 64.4688 88.961 63.6408 88.961 62.6194C88.961 61.598 87.9698 60.77 86.7471 60.77C85.5244 60.77 84.5332 61.598 84.5332 62.6194C84.5332 63.6408 85.5244 64.4688 86.7471 64.4688Z" fill="white" stroke="#EF2D28" stroke-width="0.254523"/>
<path fill-rule="evenodd" clip-rule="evenodd" d="M75.6504 57.6641H86.0099L80.8301 63.2297L75.6504 57.6641Z" fill="white" stroke="#EF2D28" stroke-width="0.254523"/>
<path d="M80.8212 64.456C82.4515 64.456 83.7732 63.352 83.7732 61.9902C83.7732 60.6284 82.4515 59.5244 80.8212 59.5244C79.1908 59.5244 77.8691 60.6284 77.8691 61.9902C77.8691 63.352 79.1908 64.456 80.8212 64.456Z" fill="white" stroke="#EF2D28" stroke-width="0.339368"/>
<path d="M84.5175 80.5918H70.3294C69.8552 80.5918 69.4707 80.8886 69.4707 81.2548V83.645C69.4707 84.0112 69.8552 84.308 70.3294 84.308H84.5175C84.9918 84.308 85.3762 84.0112 85.3762 83.645V81.2548C85.3762 80.8886 84.9918 80.5918 84.5175 80.5918Z" fill="white" stroke="#EF2D28" stroke-width="0.239883"/>
<path fill-rule="evenodd" clip-rule="evenodd" d="M90.2151 77.5041C88.3025 77.5041 86.7608 78.9522 86.7608 80.7318V83.5407C86.7478 83.9561 86.8271 84.3696 86.9942 84.7573C87.1613 85.145 87.4127 85.4992 87.734 85.7994C88.0553 86.0996 88.44 86.3399 88.8659 86.5062C89.2918 86.6725 89.7504 86.7617 90.2151 86.7684C90.6798 86.7617 91.1384 86.6725 91.5642 86.5062C91.9901 86.3399 92.3749 86.0996 92.6962 85.7994C93.0175 85.4992 93.2689 85.145 93.436 84.7573C93.6031 84.3696 93.6824 83.9561 93.6694 83.5407V80.7492C93.685 80.3324 93.6076 79.9171 93.4418 79.5273C93.2759 79.1376 93.0249 78.7813 92.7033 78.4792C92.3817 78.1771 91.9961 77.9353 91.5689 77.7679C91.1417 77.6005 90.6815 77.5108 90.2151 77.5041ZM90.2151 78.7254C89.0636 78.7254 88.1464 79.8943 88.1464 81.325V82.9475C88.1464 84.3782 89.0636 85.5297 90.2151 85.5297C91.3665 85.5297 92.2838 84.3782 92.2838 82.9475V81.325C92.2838 79.8943 91.3665 78.7428 90.2151 78.7428V78.7254ZM72.2409 78.1147C71.0699 78.1147 70.1722 79.2662 70.1722 80.7143V83.5756C70.1722 85.0063 71.0894 86.1578 72.2409 86.1578C73.3923 86.1578 74.3096 85.0063 74.3096 83.5756V80.6969C74.3096 79.2488 73.3923 78.0973 72.2409 78.0973V78.1147ZM72.2409 76.8934C71.7762 76.9002 71.3176 76.9893 70.8917 77.1557C70.4658 77.322 70.0811 77.5622 69.7598 77.8624C69.4385 78.1626 69.187 78.5169 69.02 78.9046C68.8529 79.2923 68.7736 79.7058 68.7865 80.1211V84.1688C68.7736 84.5841 68.8529 84.9976 69.02 85.3854C69.187 85.7731 69.4385 86.1273 69.7598 86.4275C70.0811 86.7277 70.4658 86.9679 70.8917 87.1343C71.3176 87.3006 71.7762 87.3898 72.2409 87.3965C74.1534 87.3965 75.6952 85.9484 75.6952 84.1688V80.1211C75.7108 79.7044 75.6334 79.289 75.4675 78.8992C75.3017 78.5095 75.0506 78.1532 74.7291 77.8511C74.4075 77.549 74.0219 77.3072 73.5947 77.1398C73.1675 76.9724 72.7072 76.8827 72.2409 76.876V76.8934Z" fill="white" stroke="#EF2D28" stroke-width="0.239883"/>
<path fill-rule="evenodd" clip-rule="evenodd" d="M66.6979 79.3535C65.5464 79.3535 64.6292 80.505 64.6292 81.9356V82.6161C64.6292 84.0467 65.5464 85.1982 66.6979 85.1982C67.8688 85.1982 68.7861 84.0467 68.7861 82.6161V81.9356C68.7861 80.505 67.8493 79.3535 66.6979 79.3535ZM66.6979 78.1322C66.2332 78.139 65.7746 78.2281 65.3487 78.3944C64.9228 78.5608 64.5381 78.801 64.2168 79.1012C63.8955 79.4014 63.6441 79.7556 63.477 80.1434C63.3099 80.5311 63.2306 80.9446 63.2436 81.3599V83.2093C63.2306 83.6246 63.3099 84.0381 63.477 84.4258C63.6441 84.8135 63.8955 85.1677 64.2168 85.468C64.5381 85.7682 64.9228 86.0084 65.3487 86.1747C65.7746 86.3411 66.2332 86.4302 66.6979 86.437C68.6105 86.437 70.1717 84.9889 70.1717 83.2093V81.3599C70.1874 80.9417 70.1093 80.5249 69.9423 80.134C69.7752 79.7431 69.5224 79.386 69.1988 79.0837C68.8752 78.7814 68.4872 78.5399 68.0577 78.3735C67.6283 78.2072 67.1659 78.1192 66.6979 78.1147V78.1322Z" fill="white" stroke="#EF2D28" stroke-width="0.239883"/>
<path fill-rule="evenodd" clip-rule="evenodd" d="M58.4283 77.6466C56.3206 77.6466 54.6696 78.9335 54.6696 80.5324V83.7497C54.6696 85.3291 56.3557 86.6356 58.4283 86.6356C60.5009 86.6356 62.152 85.3486 62.152 83.7302V80.5324C62.152 78.9335 60.4658 77.6466 58.4283 77.6466ZM58.4283 76.2817C57.5919 76.2867 56.7657 76.3839 55.9973 76.5674C55.229 76.7509 54.534 77.0173 53.9524 77.351C53.3708 77.6847 52.9143 78.0791 52.6093 78.5114C52.3042 78.9437 52.1568 79.4053 52.1754 79.8695V84.3932C52.1473 84.859 52.2866 85.3232 52.5852 85.7588C52.8838 86.1943 53.3356 86.5925 53.9144 86.9302C54.4932 87.2678 55.1874 87.538 55.9563 87.7251C56.7253 87.9122 57.5537 88.0125 58.3932 88.02C61.871 88.02 64.6461 86.4016 64.6461 84.3932V79.8695C64.6695 79.4053 64.5267 78.9432 64.226 78.5099C63.9252 78.0766 63.4726 77.6807 62.8943 77.3452C62.316 77.0097 61.6234 76.7412 60.8568 76.5553C60.0902 76.3694 59.2648 76.2698 58.4283 76.2622V76.2817Z" fill="white" stroke="#EF2D28" stroke-width="0.235547"/>
<path fill-rule="evenodd" clip-rule="evenodd" d="M103.374 78.2575C101.266 78.2575 99.6149 79.5444 99.6149 81.1433V84.3606C99.6149 85.94 101.301 87.2464 103.374 87.2464C105.446 87.2464 107.097 85.9595 107.097 84.3411V81.1433C107.097 79.5444 105.411 78.2575 103.374 78.2575ZM103.374 76.8925C102.537 76.8976 101.711 76.9947 100.943 77.1782C100.174 77.3618 99.4793 77.6281 98.8977 77.9618C98.3161 78.2955 97.8596 78.6899 97.5546 79.1222C97.2496 79.5545 97.1021 80.0162 97.1207 80.4803V85.004C97.0926 85.4698 97.2319 85.934 97.5305 86.3696C97.8291 86.8052 98.281 87.2034 98.8598 87.541C99.4386 87.8786 100.133 88.1488 100.902 88.336C101.671 88.5231 102.499 88.6233 103.339 88.6308C106.816 88.6308 109.591 87.0124 109.591 85.004V80.4803C109.615 80.0162 109.472 79.554 109.171 79.1207C108.871 78.6874 108.418 78.2915 107.84 77.956C107.261 77.6205 106.569 77.352 105.802 77.1661C105.036 76.9802 104.21 76.8806 103.374 76.873V76.8925Z" fill="white" stroke="#EF2D28" stroke-width="0.235547"/>
<path d="M99.447 80.5918H92.0504C91.8025 80.5918 91.6016 80.8886 91.6016 81.2548V83.645C91.6016 84.0112 91.8025 84.308 92.0504 84.308H99.447C99.6949 84.308 99.8959 84.0112 99.8959 83.645V81.2548C99.8959 80.8886 99.6949 80.5918 99.447 80.5918Z" fill="white" stroke="#EF2D28" stroke-width="0.239883"/>
<path d="M88.557 79.9814H84.2635C84.1126 79.9814 83.9902 80.372 83.9902 80.8538V84.064C83.9902 84.5458 84.1126 84.9364 84.2635 84.9364H88.557C88.7079 84.9364 88.8302 84.5458 88.8302 84.064V80.8538C88.8302 80.372 88.7079 79.9814 88.557 79.9814Z" fill="white" stroke="#EF2D28" stroke-width="0.239883"/>
<path d="M65.7425 79.9814H61.449C61.2981 79.9814 61.1758 80.372 61.1758 80.8538V84.064C61.1758 84.5458 61.2981 84.9364 61.449 84.9364H65.7425C65.8934 84.9364 66.0157 84.5458 66.0157 84.064V80.8538C66.0157 80.372 65.8934 79.9814 65.7425 79.9814Z" fill="white" stroke="#EF2D28" stroke-width="0.239883"/>
<path d="M55.1061 79.353H46.4801C46.189 79.353 45.9531 79.8451 45.9531 80.4522V84.4301C45.9531 85.0372 46.189 85.5293 46.4801 85.5293H55.1061C55.3971 85.5293 55.6331 85.0372 55.6331 84.4301V80.4522C55.6331 79.8451 55.3971 79.353 55.1061 79.353Z" fill="white" stroke="#EF2D28" stroke-width="0.239883"/>
<path d="M114.63 79.9814H106.609C106.34 79.9814 106.121 80.4736 106.121 81.0806V85.0585C106.121 85.6656 106.34 86.1577 106.609 86.1577H114.63C114.9 86.1577 115.118 85.6656 115.118 85.0585V81.0806C115.118 80.4736 114.9 79.9814 114.63 79.9814Z" fill="white" stroke="#EF2D28" stroke-width="0.239883"/>
</g>
</g>
<defs>
<clipPath id="clip0_3921_18805">
<rect width="512" height="512" fill="white"/>
</clipPath>
</defs>
</svg>
