<svg width="512" height="512" viewBox="0 0 512 512" fill="none" xmlns="http://www.w3.org/2000/svg">
<g clip-path="url(#clip0_3921_18967)">
<mask id="mask0_3921_18967" style="mask-type:luminance" maskUnits="userSpaceOnUse" x="0" y="0" width="512" height="512">
<path d="M0.0136719 0H511.935V511.922H0.0136719V0Z" fill="white"/>
</mask>
<g mask="url(#mask0_3921_18967)">
<path fill-rule="evenodd" clip-rule="evenodd" d="M-83.484 0L-84 511.922H596.154L-83.484 0Z" fill="#000001"/>
<path fill-rule="evenodd" clip-rule="evenodd" d="M595.638 511.922L596.154 0H-84L595.638 511.922Z" fill="#FF0000"/>
<path d="M335.962 127.361L326.88 126.948C324.093 120.343 316.249 117.866 311.398 120.756C307.063 121.065 284.048 120.343 284.048 120.343L300.871 127.671C304.999 138.92 319.449 141.604 319.449 141.604C318.21 162.246 298.497 138.92 281.983 150.686C270.217 157.808 270.011 166.168 263.612 179.895C260.488 184.635 257.04 189.152 253.291 193.415L267.224 192.383L262.786 198.163L279.3 195.789C279.3 195.789 277.133 197.647 275.791 199.092C278.268 199.608 294.678 195.273 294.678 195.273L293.543 200.537C301.903 197.131 312.327 193.725 312.327 193.725C312.327 193.725 316.043 196.821 319.449 198.163L321.822 188.771L331.215 191.145L333.588 181.649C347.728 200.537 352.476 219.424 378.382 224.172L376.008 214.677C383.232 217.773 396.65 224.378 396.65 224.378L398.714 220.044C409.964 228.094 419.356 227.991 425.549 228.816L420.904 217.05L425.652 219.424L418.53 200.537L425.652 202.911L416.156 188.771L419.666 186.397L418.633 179.276C432.67 184.023 451.661 191.145 453.931 207.658C456.305 233.564 427.922 240.686 409.138 238.312C423.278 250.078 449.184 245.33 461.053 233.564C465.531 228.033 468.737 221.585 470.445 214.677C472.819 221.798 477.566 231.19 477.566 240.686C475.192 261.844 446.81 268.965 428.026 271.339C449.184 283.105 486.958 268.965 489.332 238.312C489.332 212.303 472.819 200.537 465.697 188.771L463.323 176.076C464.355 176.283 470.445 179.379 470.445 179.379C470.445 179.379 466.316 171.535 465.697 169.883C465.697 169.883 458.369 149.861 455.686 145.423C456.099 145.113 461.053 146.248 461.053 146.248L441.649 121.994L447.119 121.375C447.119 121.375 424.826 103.726 418.633 101.455L425.755 99.0814C411.512 92.0631 394.998 96.7076 380.859 106.203L383.232 99.0814L378.898 99.4943V91.4439L383.232 84.9417L376.214 82.5678L380.859 70.8019L373.84 73.1757L376.214 61.3066C376.214 61.3066 370.847 63.7836 367.648 63.3708C367.751 63.6804 371.466 55.4236 371.466 55.4236C369.196 51.9145 371.466 44.793 371.466 44.793C354.953 47.1668 352.579 49.5406 343.187 63.6804C328.944 89.6893 333.692 101.455 336.065 127.361H335.962Z" fill="#FFCC00" stroke="#FFCC00" stroke-width="2.37383"/>
<path fill-rule="evenodd" clip-rule="evenodd" d="M425.134 166.168C426.373 168.232 439.687 174.631 449.802 180.411C447.118 169.471 427.405 167.097 425.031 166.168H425.134Z" fill="#FF0000" stroke="#FF0000" stroke-width="3.0963"/>
<path fill-rule="evenodd" clip-rule="evenodd" d="M100.746 425.638L85.6771 416.04L65.5511 425.741L70.0924 408.505L54.6109 392.301L72.4662 391.269L83.0968 371.659L89.5991 388.173L111.48 392.198L97.7527 403.551L100.746 425.638ZM139.243 341.419L132.225 338.116L125.619 341.935L126.651 334.297L120.872 329.137L128.509 327.692L131.606 320.674L135.321 327.485L142.959 328.311L137.592 333.884L139.243 341.419ZM173.199 293.117L157.924 285.685L143.062 293.942L145.436 277.222L132.947 265.663L149.667 262.773L156.686 247.291L164.736 262.36L181.559 264.218L169.896 276.603L173.199 293.117ZM103.326 226.03L85.3675 216.948L67.8218 226.649L70.7116 206.833L56.0558 193.003L75.8721 189.803L84.4386 171.535L93.7275 189.39L113.647 191.868L99.5072 206.317L103.326 226.03ZM38.8197 295.697L20.6548 284.963L2.59303 296.006L7.23748 275.364L-8.86328 261.637L12.1916 259.573L20.3451 240.067L28.6019 259.47L49.76 261.225L33.9689 275.158L38.8197 295.697Z" fill="white"/>
</g>
</g>
<defs>
<clipPath id="clip0_3921_18967">
<rect width="512" height="512" fill="white"/>
</clipPath>
</defs>
</svg>
