<svg width="512" height="512" viewBox="0 0 512 512" fill="none" xmlns="http://www.w3.org/2000/svg">
<g clip-path="url(#clip0_3921_18983)">
<mask id="mask0_3921_18983" style="mask-type:luminance" maskUnits="userSpaceOnUse" x="0" y="0" width="512" height="512">
<path d="M0 0H512V512H0V0Z" fill="white"/>
</mask>
<g mask="url(#mask0_3921_18983)">
<path fill-rule="evenodd" clip-rule="evenodd" d="M-95 0H673V512H-95V0Z" fill="#0C590B"/>
<path fill-rule="evenodd" clip-rule="evenodd" d="M-95 0H97.5V512H-95V0Z" fill="white"/>
<path fill-rule="evenodd" clip-rule="evenodd" d="M403.699 225.4L372.499 218.8L356.099 246.1L352.699 214.5L321.699 207.3L350.699 194.3L347.999 162.6L369.399 186.2L398.699 173.8L382.799 201.4L403.799 225.4H403.699Z" fill="white"/>
<path fill-rule="evenodd" clip-rule="evenodd" d="M415.4 306C408.766 320.54 399.318 333.622 387.6 344.49C375.882 355.358 362.128 363.797 347.131 369.32C332.133 374.842 316.191 377.339 300.223 376.667C284.256 375.994 268.579 372.165 254.1 365.4C239.541 358.674 226.45 349.142 215.578 337.352C204.706 325.561 196.265 311.743 190.739 296.687C185.213 281.631 182.709 265.634 183.372 249.609C184.034 233.585 187.85 217.848 194.6 203.3C201.378 188.208 211.228 174.695 223.522 163.623C235.815 152.552 250.283 144.166 266 139C261.882 142.428 257.943 146.066 254.2 149.9C234.69 171.507 224.333 199.846 225.313 228.941C226.293 258.036 238.533 285.614 259.453 305.859C280.372 326.104 308.336 337.435 337.448 337.461C366.56 337.487 394.544 326.207 415.5 306H415.4Z" fill="white"/>
</g>
</g>
<defs>
<clipPath id="clip0_3921_18983">
<rect width="512" height="512" fill="white"/>
</clipPath>
</defs>
</svg>
