<svg width="512" height="512" viewBox="0 0 512 512" fill="none" xmlns="http://www.w3.org/2000/svg">
<g clip-path="url(#clip0_3921_19001)">
<path d="M0 0H512V512H0V0Z" fill="#00247D"/>
<path d="M332.2 268.1C324.491 275.573 319.049 285.071 316.5 295.5C311.8 322.3 305.5 328.3 295.8 322.5C295.8 337 306.5 338.1 311.1 329.7C311.1 343.2 315.2 354.9 324.5 364.9C328.5 369.2 329.2 366.3 327.3 361.6C325.5 356.9 325.5 341.9 321.7 333.2C327.7 338.3 336.5 335.4 335.7 321.4C328.1 326.8 320.5 326.6 319.7 313.9C318.7 299 323.7 277.4 332.2 268.1ZM323.1 161.2C323.6 155.9 322.7 150.4 319.4 147C313.1 140.3 306.9 142.5 302.3 147.9C295.4 143.4 291.8 159.2 283.9 156.5C285.2 161.6 287.3 163.8 291.2 162.1C287.1 166.5 291.2 171.8 286.4 177.1C295.1 180.5 299.8 174.7 299.4 164.7C300.104 165.551 300.998 166.224 302.011 166.663C303.024 167.102 304.127 167.295 305.229 167.227C306.331 167.159 307.401 166.831 308.352 166.27C309.303 165.709 310.107 164.932 310.7 164C306.1 162.3 306.1 157.5 307.9 153C310.7 146.3 323.9 146.6 323.1 161.2Z" fill="#F7E017" stroke="black" stroke-width="0.4"/>
<path d="M343.299 238.4C333.399 244.6 315.299 242 313.699 226.7C311.999 211.3 324.499 204.5 327.899 202.5C333.099 199.4 337.199 204.9 335.499 211.4C341.299 208.9 342.499 200.9 339.799 196.3C347.399 197 354.499 190.1 357.499 180.3C354.799 183.3 347.499 181.3 341.499 180.8C343.299 178.4 343.299 173.7 342.699 171.2C336.399 178.9 327.299 175.4 315.199 197.8C318.062 185.643 320.729 173.442 323.199 161.2C323.899 146.6 310.799 146.2 307.999 153C310.999 157 309.399 161.9 308.299 169.2C306.999 177.8 304.299 197.8 301.799 204.5C301.099 194 295.299 193.3 294.199 188.3C292.499 189.6 291.599 193.1 291.899 195.6C289.899 192.9 282.799 196.2 280.199 192.2C277.399 198.9 281.899 205.5 286.499 208.4C283.799 208.6 283.199 212.5 280.199 212.5C284.199 218.1 288.299 220.3 292.999 220.8C297.799 221.2 301.299 223.3 304.199 230.2C308.899 241.3 326.599 248.5 343.299 238.4Z" fill="#337321" stroke="black" stroke-width="0.4"/>
<path d="M367.9 224.9C362.3 243.3 347 256.4 340.1 258.4C324.73 263.906 310.496 272.176 298.1 282.8C297.033 282.533 296.166 282.1 295.5 281.5C292.3 278.8 289.7 270.2 295.3 262.8C312.8 243.3 331.6 251.8 343.3 238.4C333.5 244.6 315.4 242 313.7 226.6C324.3 230 343.5 230.2 358.7 210.6C360.8 213.3 366.7 221.8 367.9 224.9Z" fill="#F7E017" stroke="black" stroke-width="0.4"/>
<path d="M332.199 268.1C323.299 277.1 318.699 299.1 319.699 313.9C319.966 318.034 320.866 320.9 322.399 322.5C322.999 314.1 327.999 292.3 340.499 282.5C355.954 270.173 367.574 253.696 373.999 235C372.799 231.2 370.999 228.5 367.399 225.9C361.399 245.8 344.999 255.3 332.299 268.2L332.199 268.1Z" fill="#337321" stroke="black" stroke-width="0.4"/>
<path d="M362.199 216.3C358.122 223.351 352.168 229.132 344.999 233C346.499 231 346.999 228.4 346.999 226.3C338.299 230.3 320.799 229.9 313.699 226.8C324.299 230.1 343.499 230.3 358.699 210.8C360.233 212.733 361.399 214.6 362.199 216.4V216.3Z" fill="#316D3A" stroke="black" stroke-width="0.4"/>
<path d="M295.301 262.8C281.101 278.7 290.501 292.6 296.001 295.7C294.501 306.7 303.301 305.4 303.101 314.7C306.601 312.3 307.601 305.9 307.101 300.7C311.501 306.5 322.801 300.1 325.301 310.7C326.801 299 319.101 287.2 309.601 288.3C313.601 284.1 311.301 277.3 307.601 275.5C306.901 284.1 298.601 284.1 295.501 281.5C292.301 278.8 289.701 270.2 295.301 262.8Z" fill="#337321" stroke="black" stroke-width="0.4"/>
<path d="M326 363.8C324.5 364.8 324.7 367.3 325.6 368.8C327.6 371.9 324.2 379 330.6 380.5C332.467 380.767 333.8 379.6 334.6 377C336.5 370 330.3 369.3 329.7 366C329.2 362.6 327.4 363 326.1 363.8H326Z" fill="#F7E017" stroke="black" stroke-width="0.4"/>
<path d="M331.4 377C329.4 378 327.4 379.7 328.4 387.7C328.7 391 328.5 399 326.1 399.1C327.6 400 330.7 400.9 332.1 398.9C333.3 401.4 336.1 400.7 337.3 397.6C338.7 399 340.8 396.6 340.8 394.5C342.1 395.5 344.8 394 344 389.3C345.6 389.9 347.7 388.6 348.4 387.3C346.1 386.8 340.2 383 338.8 380C337.4 377 333.8 375.6 331.4 377Z" fill="#F7E017" stroke="black" stroke-width="0.4"/>
<path d="M299.1 152.4C300.033 150.734 301.1 149.234 302.3 147.9M334.6 181.8C336.266 180.8 338.566 180.467 341.5 180.8M332 398.9C331.4 397.8 331.1 393.1 331.6 390.3M337.3 397.6C336.3 396.6 334.3 393.4 333.9 390.6M340.8 394.5C338.333 392.067 336.541 389.035 335.6 385.7M344 389.2C342.5 388.8 337.8 385.2 335.8 381.3" stroke="black" stroke-width="0.4"/>
<path d="M429.9 263C452.8 286 454.2 304.1 450.7 314.8C448.9 304.8 439.4 289.3 429.5 285.3L429.9 263Z" fill="#F7E017" stroke="black" stroke-width="0.4"/>
<path d="M389.001 250.2H431.401V310C431.401 361 407.501 391.2 383.401 407.2C359.101 391.2 335.301 361 335.301 310V250H365.001C365.001 253.2 365.301 257.8 368.301 262.5C375.301 261.7 383.301 255.5 388.801 250.1L389.001 250.2Z" fill="#337321" stroke="black" stroke-width="0.4"/>
<path d="M431.399 250.2V310C431.266 325.4 429.299 338.967 425.499 350.7L383.399 258.5L341.199 350.7C337.181 337.511 335.191 323.787 335.299 310V250L431.399 250.2Z" fill="#006EC7" stroke="black" stroke-width="0.4"/>
<path d="M426.801 346.4C426.001 349.1 424.701 353.5 423.601 356.2L383.401 267L343.001 356.2C342.001 353.5 340.601 349.2 339.801 346.4L383.301 250.4L426.801 346.4Z" fill="#F7E017"/>
<path d="M402.5 379.2L406.5 381.6C408.696 375.349 409.381 368.667 408.5 362.1C406 369.4 397.8 369.1 395.6 373.6C396.934 374.466 398.167 375.4 399.3 376.4C395.695 380.663 391.275 384.165 386.3 386.7V339C386.3 335.6 385.3 332.8 385.3 330V320.2C385.3 318 385 314.8 383.3 314.8C381.6 314.8 381.3 318 381.3 320.2V330.1C381.3 332.8 380.3 336.1 380.3 339V386.6C378.3 379.5 370.3 381.9 366.5 374.8C368.034 374.333 369.534 374.266 371 374.6C368.2 363.3 360.6 362.4 359.1 359C359.1 363.7 357.4 374.6 360.1 379.3C360.634 378.366 361.467 377.533 362.6 376.8C365.7 385 380 385 383.3 398.6C386 393.6 395.7 387.8 402.5 379.1V379.2Z" fill="#F7E017" stroke="black" stroke-width="0.4"/>
<path d="M383.299 339.6C386.499 339.6 396.499 338.4 400.199 338.4C401.199 338.4 401.899 336.7 401.899 334.6C401.899 332.5 401.099 330.9 400.199 330.9C396.599 330.9 386.499 329.7 383.299 329.7C380.099 329.7 370.099 330.9 366.499 330.9C365.499 330.9 364.699 332.6 364.699 334.6C364.699 336.7 365.499 338.4 366.499 338.4C370.099 338.4 380.199 339.6 383.299 339.6ZM381.299 320.1C380.606 319.488 379.723 319.135 378.799 319.1C376.699 319.1 374.899 321 374.899 323.2C374.899 325.5 376.599 327.4 378.799 327.4C380.799 327.4 382.599 325.5 382.599 323.2C382.599 321.5 384.699 321.5 384.699 323.2C384.699 326.9 382.099 329.8 378.699 329.8C375.399 329.8 372.699 326.8 372.699 323.2C372.699 319.6 375.499 316.7 378.699 316.7C379.766 316.7 380.699 316.967 381.499 317.5L381.299 320.1Z" fill="#F7E017" stroke="black" stroke-width="0.4"/>
<path d="M366.5 338.4C367.5 338.4 368.2 336.7 368.2 334.6C368.2 332.5 367.4 330.9 366.5 330.9" fill="#F7E017"/>
<path d="M366.5 338.4C367.5 338.4 368.2 336.7 368.2 334.6C368.2 332.5 367.4 330.9 366.5 330.9" stroke="black" stroke-width="0.4"/>
<path d="M367.9 338.4C368.9 338.4 369.6 336.7 369.6 334.6C369.6 332.5 368.8 330.9 367.9 330.9M377 339.2C378.2 339.2 379.1 337.2 379.1 334.6C379.1 332 378.2 330.1 377.1 330.1M379.2 339.4C380.4 339.4 381.4 337.2 381.4 334.6C381.4 332 380.4 329.9 379.2 329.9M386.4 339.4C387.6 339.4 388.5 337.3 388.5 334.6C388.5 331.9 387.5 329.8 386.4 329.8M388.6 339.3C389.8 339.3 390.8 337.3 390.8 334.6C390.8 332.1 389.8 330 388.6 330M398.6 338.5C399.6 338.5 400.4 336.8 400.4 334.6C400.4 332.5 399.6 330.8 398.6 330.8M362.6 376.9C363.733 376.033 365.066 375.366 366.6 374.9L362.6 376.9ZM400.5 377.4L399.4 376.4L400.5 377.4ZM402.5 379.2C405.252 375.846 407.293 371.967 408.5 367.8L402.5 379.2Z" fill="#F7E017"/>
<path d="M367.9 338.4C368.9 338.4 369.6 336.7 369.6 334.6C369.6 332.5 368.8 330.9 367.9 330.9M377 339.2C378.2 339.2 379.1 337.2 379.1 334.6C379.1 332 378.2 330.1 377.1 330.1M379.2 339.4C380.4 339.4 381.4 337.2 381.4 334.6C381.4 332 380.4 329.9 379.2 329.9M386.4 339.4C387.6 339.4 388.5 337.3 388.5 334.6C388.5 331.9 387.5 329.8 386.4 329.8M388.6 339.3C389.8 339.3 390.8 337.3 390.8 334.6C390.8 332.1 389.8 330 388.6 330M398.6 338.5C399.6 338.5 400.4 336.8 400.4 334.6C400.4 332.5 399.6 330.8 398.6 330.8M362.6 376.9C363.733 376.033 365.066 375.366 366.6 374.9M400.5 377.4L399.4 376.4M402.5 379.2C405.252 375.846 407.293 371.967 408.5 367.8" stroke="black" stroke-width="0.4"/>
<path d="M374.801 292.6C374.801 291.5 375.501 291 376.401 290.2C377.401 289.3 377.901 288.8 378.801 288.8H391.101C391.834 288.733 392.167 289.166 392.101 290.1V310C392.234 310.933 391.901 311.366 391.101 311.3H374.801V292.4" fill="white"/>
<path d="M374.801 292.6C374.801 291.5 375.501 291 376.401 290.2C377.401 289.3 377.901 288.8 378.801 288.8H391.101C391.834 288.733 392.167 289.166 392.101 290.1V310C392.234 310.933 391.901 311.366 391.101 311.3H374.801V292.4" stroke="black" stroke-width="0.4"/>
<path d="M388 313C389.6 313 389.4 312.9 390.5 311.5C391.6 310.1 391.5 310.3 391.5 309V290.8C391.567 289.933 391.233 289.533 390.5 289.6H379.2C378.3 289.6 377.9 290.1 377 291C376.2 291.7 375.5 292.1 375.5 293.1V313H388Z" fill="#E5E5E5" stroke="black" stroke-width="0.4"/>
<path d="M389.201 312.5C389.267 313.434 388.934 313.867 388.201 313.8H375.901C374.901 313.8 374.801 313.5 374.801 312.5V292.7C374.734 291.767 375.101 291.334 375.901 291.4H388.101C389.101 291.4 389.201 291.7 389.201 292.7V312.5Z" fill="white" stroke="black" stroke-width="0.4"/>
<path d="M413 238.6C415.3 241.7 416 246 414.8 250.1H411.2C412.7 244.8 411.8 239.7 405.5 239.1C396 238.1 385 259.9 368.5 262.6C363.5 255.7 363.8 242.6 370 236.4C366.8 225.4 360.1 213.4 355.5 208.3C352.5 207.7 348.9 207.3 346.6 207.5C349.741 200.836 355.021 195.415 361.6 192.1L364.3 187.7C364.9 179.1 399 183.1 406.3 188.4C406.3 198 409.3 229.9 412.9 238.6H413Z" fill="#96877D" stroke="black" stroke-width="0.4"/>
<path d="M371.601 244.4C370.801 229.6 365.801 217.4 358.801 209.1C361.339 209.804 364.007 209.909 366.592 209.406C369.178 208.902 371.612 207.805 373.701 206.2C379.701 201.4 395.801 192.8 401.701 196.5C402.201 197.7 402.401 200.5 402.101 202.2C400.701 197.8 385.201 204.7 380.801 206.8C376.701 209.1 374.801 212.2 376.301 219.2C373.901 216.8 374.701 214.4 372.201 212.7C373.201 215.6 374.001 220.7 374.301 225C373.301 222 371.701 215.6 368.101 211.8C371.902 222.779 373.466 234.408 372.701 246C375.201 246 380.701 243 382.901 241C381.001 244.3 375.401 246.6 371.701 247.5C369.898 251.132 369.006 255.147 369.101 259.2C368.801 255.1 369.901 245 371.601 244.4ZM413.001 238.6C409.801 234.5 404.001 232.3 396.701 234.6C397.901 234 400.301 232.9 402.401 232.4C402.201 230.1 400.401 220.1 400.101 217.7L402.101 216.7C403.101 222.7 404.501 229.5 405.301 232.3C406.001 232.5 407.501 232.9 408.801 233.7C408.201 231.3 405.001 214.6 405.101 212.7L407.901 211C408.719 220.334 410.393 229.573 412.901 238.6H413.001Z" fill="black"/>
<path d="M411.301 250.2C412.701 244.8 411.801 239.8 405.501 239.1C400.501 238.6 395.301 244.3 389.001 250.1L411.301 250.2ZM370.101 202.3C367.301 202.8 361.101 202.1 357.901 200.9C358.101 199.9 358.434 198.866 358.901 197.8C356.901 199.3 353.201 202.3 351.801 204.5C356.201 205.5 365.501 206.1 370.101 202.3Z" fill="#96877D" stroke="black" stroke-width="0.4"/>
<path d="M370 236.4C371.067 240.066 371.667 243.4 371.8 246.4M361.6 192.1C359.9 195.1 358.4 198.2 357.9 200.9C361.1 202.1 367.3 202.8 370.1 202.3" stroke="black" stroke-width="0.4"/>
<path d="M355.5 208.3L358.8 209.1C361.338 209.804 364.006 209.909 366.592 209.405C369.177 208.902 371.611 207.805 373.7 206.2C378.3 202.2 391 189.8 405.3 188.5" stroke="black" stroke-width="0.4"/>
<path d="M351.801 204.5C356.301 205.5 365.501 206.1 370.101 202.3C378.894 194.275 389.979 189.204 401.801 187.8" stroke="black" stroke-width="0.4"/>
<path d="M429.901 263C445.501 276 457.001 288.4 460.401 308.3C463.801 328.3 470.101 333.6 477.901 328.3C476.001 339.8 466.401 341.2 458.201 332.3C458.901 345.6 454.501 361.6 442.901 367.3C442.201 359.3 446.601 353.1 445.301 346.5C444.801 343.6 444.601 336.9 447.801 333.8C441.601 336.3 431.901 331.6 431.001 320.8C438.001 324.8 447.201 325.4 450.701 314.8C454.201 304.2 452.701 285.9 429.901 263.1V263ZM449.601 159.2C454.401 144.2 467.101 145.7 471.401 152.1C483.901 143.7 485.501 162.7 496.201 159C495.999 160.874 495.09 162.6 493.659 163.827C492.228 165.053 490.383 165.687 488.501 165.6C492.601 170 486.801 176.7 495.501 180.7C488.101 185.1 477.701 180.5 474.901 168.3C472.501 174 463.801 174 460.201 169.3C467.901 167 467.301 158.5 463.001 155.2C458.701 151.8 451.001 153.2 449.601 159.2ZM411.801 192.4C415.164 205.116 421.467 216.865 430.201 226.7C439.201 236.4 452.701 234 460.201 224.7C460.401 243.2 444.201 244.7 435.201 238.9C431.301 236.3 428.201 237.6 431.901 241.7C437.701 248 450.301 252.6 465.201 256.4C491.201 263 482.001 287.7 474.401 287.4C476.601 287.4 478.401 284.7 475.201 281.3C452.601 257 406.601 266.6 407.301 212.4C402.501 226.6 382.601 221.1 391.901 204.2C394.901 207.1 400.101 207.3 401.601 202.9C402.801 199.4 402.001 193.4 396.801 188.3C397.601 188.2 399.501 188.3 399.301 185.7C399.501 187.2 400.701 189.4 403.601 188.7C404.401 190.2 405.301 191.3 406.501 190.7C406.701 190.6 407.501 190.2 407.101 188.6C407.401 191.6 410.301 192.6 411.801 192.4Z" fill="#337321" stroke="black" stroke-width="0.4"/>
<path d="M435.3 238.9C446.1 247.3 458.3 247.3 469.5 231.8C473 226.8 478.6 222.7 482.5 222.2C486.4 221.7 486.3 217.3 489.2 216.4C487.4 215.8 486.6 213.1 483.8 213.4C490.8 210.6 488.8 203.9 492.2 200.7C489.4 201.9 485 196.9 481 203.3C482 200.3 480.7 196.9 479.7 195.6C480 198.9 474.2 199.6 473 208C472.4 212.8 470.3 212.5 469.9 205.1C469.6 199.8 467.5 184.9 464.9 177.4C462.3 169.9 461.7 159.5 465.2 158C464.667 156.933 463.933 156 463 155.2C458.7 151.9 451.1 153.2 449.6 159.2C444.8 174.3 458.4 183 457.2 199.4C455.2 187.2 438.6 184.1 438.8 172.1C433.4 175 434.2 180.3 436.2 184.5C432.9 178.3 425.2 188.5 418.7 180.1C418 191.2 426.2 195.4 432.9 195.9C432.235 197.239 431.849 198.699 431.767 200.192C431.685 201.685 431.908 203.179 432.423 204.583C432.937 205.987 433.733 207.271 434.761 208.357C435.788 209.443 437.027 210.308 438.4 210.9C438.6 198.5 460 203.6 460.2 224.9C460.4 243.1 444 244.6 435.2 238.9H435.3ZM465.2 256.4C491.2 263 482 287.7 474.4 287.4C469.5 287.4 464.9 282.4 464.6 278.3C459 281.8 460.5 288.8 464.8 291.6C453 289.9 448.1 299.1 447.8 309.2C450 304.5 456.5 304.2 458.9 305.2C461.3 306.2 467.6 306.8 470.1 303.4C468.1 305.5 471.4 310.4 468.5 314.2C478.3 313.7 482.5 302.9 480.9 298.1C493.5 284.4 491.1 261.9 465.2 256.4ZM445.4 361.8C447.1 363.1 446.9 365.8 445.7 367.4C443.4 370.8 446.9 378.8 439.8 380.2C437.667 380.466 436.233 379.133 435.5 376.2C433.5 368.2 440.5 367.7 441.3 364C442.1 360.3 444 360.8 445.4 361.8Z" fill="#F7E017" stroke="black" stroke-width="0.4"/>
<path d="M439 376.2C441.3 377.6 443.3 379.5 442 388.3C441.5 392 441.4 401 444.1 401.3C442.4 402.1 438.9 403 437.5 400.7C436 403.4 432.8 402.4 431.7 398.9C430 400.4 427.7 397.6 427.9 395.2C426.4 396.2 423.5 394.5 424.4 389.2C422.6 389.9 420.4 388.3 419.6 386.9C422.2 386.4 428.9 382.5 430.6 379.2C432.3 375.9 436.3 374.6 439 376.2Z" fill="#F7E017" stroke="black" stroke-width="0.4"/>
<path d="M437.5 400.7C438.2 399.5 438.7 394.3 438.2 391.1M431.7 399C432.9 398 435.2 394.4 435.7 391.3M427.9 395.3C429.3 394.5 433 389.3 433.9 385.7M424.4 389.3C428.334 387.502 431.617 384.534 433.8 380.8" stroke="black" stroke-width="0.4"/>
<path d="M407.3 212.5C407 235.2 415 246.7 426 254.2C421.9 251.2 423.6 241.3 418.1 238.1C419.4 238 421.5 240.1 424.7 239.3C423.2 235.1 420.6 228.7 414.5 227.8C416.1 227.6 419.5 228.2 421.8 227.2C418.6 221.4 410.2 224.2 407.3 212.5ZM405.4 190.8C404.733 190.466 404.133 189.8 403.6 188.8C400.6 189.5 399.6 187.2 399.3 185.8C399.5 188.3 397.6 188.2 396.8 188.3C402 193.5 402.8 199.5 401.6 202.9C400.1 207.3 394.9 207.1 391.9 204.2C391.5 213.7 401.8 216.8 405.5 204.9C405.5 206.9 407.6 206.7 408.2 209.3C410.8 204.3 408.8 196.9 405.4 190.8Z" fill="#F7E017" stroke="black" stroke-width="0.4"/>
<path d="M389 145.8C384.693 140.562 382.357 133.981 382.4 127.2C382.6 122.4 384.3 117 390.2 119.2C388.4 119.2 389.7 123.7 387.7 124.2C389.3 124.8 391.4 123.2 391.7 122.2C392.1 123.8 394.5 123.4 394.7 125.2C395.7 124.2 394.7 119.9 393.2 119C394.2 118.4 394.8 115 394.3 113.3C393.4 113.5 392 115 391.7 117.3C392.2 115.5 391.7 111 389 110.3C388.3 111.6 388.1 114.6 389.1 116.3C386.7 115.6 383.1 117.5 382.3 119.9C382.5 116.9 382.9 112.8 384.3 110.1C384.9 109.2 383.6 107.7 382.7 109.8C380.8 105.6 376 103.4 373.9 105.5C371.7 107.5 368.9 104.5 367.1 107.8C365.3 111.1 359.3 111.5 359.6 115C359.8 117.1 359.4 120.4 358.5 121.6C356.4 124.4 359.5 126.6 360.1 129.1C359.7 120.7 371 104.3 382.3 110.7C381.3 112.8 380.3 117 380 122.1C379.5 129.7 380.5 140.3 386.6 146.5L389 145.8Z" fill="#337321" stroke="black" stroke-width="0.4"/>
<path d="M392.401 119.3C392.301 117.3 395.201 114.7 399.101 114.8C403.801 114.8 407.401 120 411.101 119.5C414.901 119 413.101 121.5 412.301 122.1C411.871 122.457 411.55 122.927 411.374 123.457C411.197 123.987 411.172 124.556 411.301 125.1C411.601 126.3 411.101 127.1 409.601 125.9C406.201 123.4 402.901 126.9 398.501 124.9C394.701 123.3 392.501 122.3 392.401 119.3Z" fill="#C8102E" stroke="black" stroke-width="0.4"/>
<path d="M373.2 171.7C371.3 164.7 364.2 157.1 360.8 155.3L360.6 151.6C362.5 150.6 367 146.5 369 144.1C383 152.1 402 140.8 410.7 129.1L414.1 131.5L412.4 134.1L410.6 133C408.5 136.1 400.5 145 398.1 147C400.996 147.851 403.984 148.355 407 148.5C414.8 141.9 421 135.9 424 135.5L426.4 139.5L424.2 141.3L422.4 140.1C412.707 151.253 405.361 164.245 400.8 178.3C395.6 176.9 377 177.8 373.2 171.7Z" fill="#96877D" stroke="black" stroke-width="0.4"/>
<path d="M397.999 147C396.799 146.6 395.866 146.2 395.199 145.8C393.699 147.4 389.999 148.8 385.199 149.1" stroke="black" stroke-width="0.4"/>
<path d="M374.001 169.3C372.701 161 374.701 151.8 378.201 149.1C382.42 152.13 387.508 153.709 392.701 153.601C397.894 153.493 402.912 151.703 407.001 148.5" stroke="black" stroke-width="0.4"/>
<path d="M374 165C379.9 164.7 392.8 166 396 166.5C399.2 167 404.4 168.6 403.7 170.5M376.7 163.8L378.4 161.8L376.7 159.8L375 161.8L376.7 163.8Z" stroke="black" stroke-width="0.4"/>
<path d="M380.7 122.5C378.6 118.9 372.7 117.8 371.4 122.5C370.9 124.7 370 126.9 368.6 127.9C367.2 128.9 367.6 131.9 368.2 133.2C369.6 136.5 368.3 139.6 371.2 141.7C371.2 139.1 374.4 136.5 377.1 135.8C379.8 135.1 383.9 132.3 384.4 129C384.9 125.7 385.9 123.1 380.7 122.5Z" fill="#337321" stroke="black" stroke-width="0.4"/>
<path d="M367.3 154.4H368.1V160.4L368.5 160.7L372.9 157.7L373.3 158.5L368.9 161.5V162.1L373.3 165.1L372.9 165.9L368.5 162.9L368.1 163.2V169.2H367.3V163.2L366.9 162.9L362.5 165.9L362.1 165.2L366.5 162.2V161.6L362.1 158.6L362.5 157.8L366.9 160.8L367.3 160.5V154.4Z" fill="#96877D" stroke="black" stroke-width="0.4"/>
<path d="M374 169.2C373.255 170.162 372.3 170.941 371.209 171.478C370.117 172.015 368.917 172.296 367.7 172.3C362.8 172.3 358.9 167.6 358.9 161.8C358.9 156 362.8 151.3 367.7 151.3C370.634 151.433 372.967 152.8 374.7 155.4C374.2 156.8 373.7 159.7 373.7 161.1C373.3 157.5 370.7 154.6 367.7 154.6C364.3 154.6 361.7 157.9 361.7 161.8C361.7 165.7 364.3 169 367.7 169C370.4 169 372.9 166.7 373.5 163.6C373.5 165 373.6 168.2 373.9 169.2H374Z" fill="#96877D" stroke="black" stroke-width="0.4"/>
<path d="M364 179.3C363.057 177.986 362.534 176.417 362.5 174.8C363.3 174.8 364.9 175.4 365.6 176.3C365.6 175.1 365.2 172.7 365.4 171.6C366.4 172.1 368.5 173.5 369.3 175.1C369.1 174.1 368.7 171.1 369.1 169.4C370.2 170.2 372.1 172.3 372.5 173.7C372.5 171.5 373.2 167.8 373.8 166.9C374.6 167.9 375.9 168.9 376.8 170.2C376.9 168.4 377.7 166.2 378.8 165.7C380.111 167.679 380.934 169.941 381.2 172.3C382 171.9 383.2 170.3 383.6 169.3C384.267 170.3 384.5 171.767 384.3 173.7C385.44 172.585 386.298 171.214 386.8 169.7C387.5 170.4 388.9 172 389.3 173.8C389.1 172.4 389.2 169.8 388.8 168.4C390.267 169.334 391.2 170.667 391.6 172.4C392 170.9 392.8 168.2 393.6 167.4C394.43 169.188 394.873 171.13 394.9 173.1C395.4 172.1 396.2 170.1 396.9 169.6C397.5 170.8 397.5 173.5 397.3 174.9C397.979 173.808 398.861 172.858 399.9 172.1C399.9 172.7 400.1 174.1 399.9 175.1C400.7 174.5 402.1 171.5 402.6 169.9C403.9 170.7 405.2 173.4 405.3 174.7C406.645 173.791 407.772 172.596 408.6 171.2C408.6 171.9 408.9 174.1 408.6 175.7C409.1 175 409.6 173.7 409.9 173.1C410.3 174.3 410 176.9 409.7 178.3C410.633 177.434 411.567 176.967 412.5 176.9C412.5 178.8 411.5 182.1 410.4 184.6C401.4 181.6 382.8 180.5 364 179.3Z" fill="#337321" stroke="black" stroke-width="0.4"/>
<path d="M395.1 120.5C395.1 119.7 396.6 117.8 399.4 117.8C402.6 117.8 405.7 120.8 408.4 120.5C411 120.3 409.7 121.4 409.1 121.6C408.433 121.866 408.2 122.266 408.4 122.8C408.666 123.4 408.266 123.533 407.2 123.2C404.8 122.2 402.5 123.6 399.4 122.8C396.7 122.1 395.2 121.8 395.1 120.5Z" fill="#F7E017"/>
<path d="M366.9 186C364.1 190 361.3 189.3 360.7 186.7C360.2 184.1 362.2 182.9 361.5 180.7C360.7 178.5 362.7 177.5 363.6 178.5C364.5 179.5 367.6 176.3 368.8 179.6C370 182.9 371.2 185.3 370.4 186.6C369.6 187.9 367.4 187.3 366.9 185.9V186ZM378.9 180C378.3 178.5 381.2 175.7 382.7 177.7C384.2 179.7 386.6 175.5 387.9 178.7L390.2 185.2C390.9 187 386.7 188 385.4 186.4C385.6 187.4 381.8 188.3 380.7 185.3L378.9 179.9V180ZM398.2 181.8C397.5 180.2 400.9 178 402.7 180.8C403.2 179.7 406.5 179.4 406.7 182.8L407.2 189.6C407.2 190.9 405.2 192.1 403.6 188.7C400.8 189.4 399.6 187.6 399.3 185.7L398.2 181.8Z" fill="#F7E017" stroke="black" stroke-width="0.4"/>
<path d="M368.699 179.6C368.199 178.4 370.999 176.2 372.899 177.9C374.799 179.6 377.499 176.5 378.599 179.4C380.899 185.5 380.999 185.9 380.399 187.1C379.699 188.3 376.699 187.8 375.899 186.2C375.799 187.3 373.199 187.2 371.899 186.2C370.299 185.2 369.299 181.6 368.699 179.6ZM388.299 179.8C387.599 178.1 391.999 176.6 393.899 179.6C394.899 178.6 396.999 178.5 398.199 181.8C399.399 184.933 399.566 186.9 398.699 187.7C398.099 188.3 395.799 188.7 395.099 187.2C394.099 188 390.899 187.3 390.199 185.2C389.533 183.2 388.866 181.4 388.199 179.8H388.299ZM406.799 183.1C406.699 181.6 409.099 180.8 409.899 183.1C410.899 185.4 413.699 183.3 413.899 187.1C413.899 187.8 413.599 190.6 412.699 191.9C411.799 193.3 407.499 191.9 407.199 189.1C406.899 186.2 406.799 184.6 406.799 183.1Z" fill="#337321" stroke="black" stroke-width="0.4"/>
<path d="M366.899 186C365.899 184.3 364.399 181.6 362.699 184.5M375.999 186.2C375.255 185.056 374.683 183.809 374.299 182.5M385.399 186.4C384.487 185.622 383.739 184.67 383.199 183.6M384.499 180.6C386.199 180.8 387.299 182.6 387.799 183.5C388.299 184.4 389.399 185.8 390.199 186M395.099 187.3C394.433 186.233 394.033 185.3 393.899 184.5M393.899 179.6C394.499 180.533 394.933 181.4 395.199 182.2M403.599 188.7C402.965 187.183 401.928 185.868 400.599 184.9M403.199 182.6C403.299 185.9 406.999 186.1 407.199 188.4M409.999 183.1C410.333 183.833 410.499 184.833 410.499 186.1" stroke="black" stroke-width="0.4"/>
<path d="M0 0H256V256H0V0Z" fill="#012169"/>
<path d="M256 0V32L161 128L256 221.5V256H222.5L127 162L34 256H0V222L93 128.5L0 37V0H31L127 94L220 0H256Z" fill="white"/>
<path d="M92 162L97.5 179L21 256H0V254.5L92 162ZM154 156L181 160L256 233.5V256L154 156ZM256 0L160 98L158 76L233 0H256ZM0 0.5L96.5 95L67 91L0 24.5V0.5Z" fill="#C8102E"/>
<path d="M88 0V256H168V0H88ZM0 88V168H256V88H0Z" fill="white"/>
<path d="M0 104V152H256V104H0ZM104 0V256H152V0H104Z" fill="#C8102E"/>
</g>
<defs>
<clipPath id="clip0_3921_19001">
<rect width="512" height="512" fill="white"/>
</clipPath>
</defs>
</svg>
