<svg width="512" height="512" viewBox="0 0 512 512" fill="none" xmlns="http://www.w3.org/2000/svg">
<g clip-path="url(#clip0_3921_19212)">
<path d="M0 341H512V512H0V341Z" fill="#0038A8"/>
<path d="M0 170.7H512V341.3H0V170.7Z" fill="white"/>
<path d="M0 0H512V170.7H0V0Z" fill="#D52B1E"/>
<path d="M256.457 321.475C292.617 321.475 321.931 292.161 321.931 256.001C321.931 219.84 292.617 190.526 256.457 190.526C220.296 190.526 190.982 219.84 190.982 256.001C190.982 292.161 220.296 321.475 256.457 321.475Z" stroke="black" stroke-width="1.70667"/>
<path d="M256.457 309.839C286.191 309.839 310.295 285.735 310.295 256.001C310.295 226.267 286.191 202.163 256.457 202.163C226.723 202.163 202.619 226.267 202.619 256.001C202.619 285.735 226.723 309.839 256.457 309.839Z" stroke="black" stroke-width="0.77576"/>
<path d="M256.456 297.271C279.249 297.271 297.726 278.794 297.726 256.001C297.726 233.208 279.249 214.73 256.456 214.73C233.663 214.73 215.186 233.208 215.186 256.001C215.186 278.794 233.663 297.271 256.456 297.271Z" stroke="black" stroke-width="0.620608"/>
<path d="M221.599 281.3L213.999 285.8L211.699 281.8L210.899 280.1C210.817 279.656 210.888 279.198 211.099 278.8C211.299 278.333 211.633 277.966 212.099 277.7C212.434 277.425 212.85 277.267 213.283 277.249C213.715 277.231 214.142 277.354 214.499 277.6L215.299 278.2V277.5L215.399 276.9L215.699 276.2L217.199 273.8L218.799 276.4L217.199 279.1L216.899 279.9L216.999 280.5L217.199 280.7L220.199 278.9L221.599 281.3ZM215.699 281.6L215.099 280.6L214.699 280L214.199 279.8L213.699 279.9C213.433 280.033 213.266 280.233 213.199 280.5L213.599 281.5L214.199 282.5L215.699 281.6ZM208.599 275.7L206.299 268.7L208.099 268.2L209.499 272.5L210.799 272.1L209.499 268.1L211.199 267.5L212.499 271.5L214.199 271L212.699 266.5L214.699 265.9L216.999 272.9L208.599 275.7ZM205.599 265.4L204.999 260.9C204.933 259.9 205.099 259.133 205.499 258.6C205.899 258.066 206.533 257.733 207.399 257.6C208.266 257.6 208.999 257.8 209.599 258.2C210.133 258.733 210.466 259.533 210.599 260.6L210.799 262L213.999 261.7L214.299 264.4L205.599 265.4ZM208.999 262.3L208.899 261.6C208.899 261.066 208.766 260.733 208.499 260.6L207.799 260.3L207.099 260.6C206.966 260.8 206.899 261.166 206.899 261.7L206.999 262.5L208.999 262.3ZM205.299 248.8L205.599 246.1L210.799 246.7C211.333 246.7 211.799 246.833 212.199 247.1C212.733 247.3 213.133 247.6 213.399 248L213.999 249.2C214.152 249.824 214.152 250.476 213.999 251.1L213.799 252.5C213.799 253.033 213.633 253.433 213.299 253.7L212.499 254.5L211.399 255C210.866 255.133 210.366 255.166 209.899 255.1L204.699 254.5L204.999 251.8L210.299 252.4C210.833 252.4 211.233 252.3 211.499 252.1C211.766 251.9 211.933 251.566 211.999 251.1L211.699 249.9C211.499 249.633 211.166 249.466 210.699 249.4L205.299 248.8ZM206.399 242.4L208.099 237.5C208.366 236.7 208.799 236.166 209.399 235.9C209.658 235.759 209.944 235.677 210.238 235.66C210.532 235.643 210.826 235.69 211.099 235.8C211.502 235.949 211.846 236.225 212.08 236.585C212.314 236.945 212.426 237.371 212.399 237.8C212.799 237.133 213.199 236.8 213.599 236.8C214.08 236.605 214.618 236.605 215.099 236.8C215.525 236.885 215.912 237.107 216.201 237.432C216.489 237.757 216.664 238.167 216.699 238.6V239.6L216.299 240.8L214.799 245.3L206.399 242.4ZM210.599 240.9L210.999 239.8C211.199 239.4 211.233 239.066 211.099 238.8C211.099 238.666 210.933 238.533 210.599 238.4H209.899L209.399 239.2L208.999 240.4L210.599 240.9ZM213.899 242.1L214.399 240.7V239.7L213.899 239.2H213.199C212.999 239.4 212.833 239.733 212.699 240.2L212.199 241.5L213.899 242.1ZM210.599 231.8L211.999 229.4L217.699 232.8L219.899 229.2L221.799 230.3L218.199 236.3L210.599 231.8ZM215.999 223.7L217.699 221.6L224.499 227.2L222.699 229.3L215.999 223.7ZM227.799 219.1L230.099 218.1C230.433 218.7 230.599 219.3 230.599 219.9C230.649 220.451 230.545 221.004 230.299 221.5L229.099 223C228.517 223.527 227.838 223.934 227.099 224.2C226.433 224.4 225.699 224.4 224.899 224.2C223.983 223.869 223.184 223.278 222.599 222.5C221.599 221.433 221.166 220.333 221.299 219.2C221.299 218.066 221.866 217.066 222.999 216.2C223.675 215.589 224.505 215.174 225.399 215C226.276 214.919 227.155 215.13 227.899 215.6L226.399 217.6L225.799 217.3H225.099L224.399 217.7C223.933 218.1 223.733 218.6 223.799 219.2C223.799 219.666 224.099 220.166 224.699 220.7C225.366 221.5 225.899 221.933 226.299 222C226.699 222.066 227.133 221.933 227.599 221.6C228.066 221.266 228.266 220.9 228.199 220.5C228.199 220.1 228.066 219.633 227.799 219.1ZM237.199 215.7L234.499 217.2L234.799 218.7L232.299 220L231.099 210.6L233.699 209.2L240.799 215.5L238.299 216.8L237.199 215.7ZM235.799 214.3L233.499 212L234.099 215.2L235.799 214.3ZM244.199 205.3L248.199 204.6C248.859 204.465 249.539 204.465 250.199 204.6C250.666 204.666 251.099 204.9 251.499 205.3C251.899 205.566 252.233 205.966 252.499 206.5L252.899 208.2C253.099 209.2 253.099 209.933 252.899 210.4L252.299 211.9L251.299 212.8L249.699 213.3L245.699 214L244.199 205.3ZM247.199 206.8L247.999 211.5H248.699C249.233 211.366 249.599 211.2 249.799 211C249.999 210.8 250.166 210.566 250.299 210.3V208.7C250.099 207.766 249.833 207.166 249.499 206.9C249.033 206.566 248.499 206.5 247.899 206.7L247.199 206.8ZM255.499 203.8L262.799 204V206L258.199 205.8L258.099 207.2L262.299 207.3V209.1L257.999 209V210.7L262.699 210.9L262.599 212.9L255.099 212.6L255.499 203.8ZM266.099 204.6L268.799 205.2L267.199 211.7L271.299 212.7L270.799 214.8L263.999 213.2L266.099 204.6ZM280.299 209.3L284.199 211.6C285.066 212.066 285.599 212.633 285.799 213.3C285.933 213.966 285.799 214.666 285.399 215.4C285.007 216.085 284.36 216.588 283.599 216.8C282.933 217 282.099 216.8 281.099 216.2L279.799 215.5L278.199 218.3L275.799 216.9L280.299 209.3ZM280.799 213.9L281.299 214.3L282.399 214.6L282.999 214.2L283.199 213.4C283.133 213.133 282.866 212.866 282.399 212.6L281.799 212.2L280.799 213.9ZM288.399 224.2L286.099 222.1L284.799 222.9L282.799 220.9L291.199 216.8L293.399 218.8L289.799 227.5L287.799 225.5L288.399 224.2ZM289.299 222.4L290.699 219.4L287.899 221.1L289.299 222.4ZM290.299 228.3L297.599 223.3L300.199 227L301.199 228.8L301.099 230.1C300.899 230.5 300.566 230.866 300.099 231.2C299.766 231.495 299.344 231.671 298.899 231.7L297.699 231.5L296.899 230.9V232.3L296.599 232.9L295.199 235.4L293.499 232.9L294.899 230.2L295.199 229.4L294.999 228.7L294.799 228.5L291.799 230.5L290.299 228.3ZM296.299 227.6L296.899 228.6L297.399 229L297.899 229.3L298.399 229.1L298.799 228.5L298.399 227.5L297.699 226.5L296.299 227.6ZM298.999 240.8L297.799 237.9L296.299 238L295.299 235.5L304.699 235.3L305.699 238L298.799 244.4L297.799 241.7L298.999 240.8ZM300.499 239.6L303.099 237.5L299.799 237.7L300.499 239.6ZM302.799 249.2L304.599 248.9L305.299 253.1L301.499 253.7L300.099 251.7C299.369 250.21 299.192 248.508 299.599 246.9C299.866 246.233 300.333 245.666 300.999 245.2C301.679 244.712 302.469 244.403 303.299 244.3C304.168 244.135 305.065 244.204 305.899 244.5C306.672 244.792 307.336 245.316 307.799 246C308.133 246.6 308.366 247.366 308.499 248.3V250.5L307.999 251.8L306.699 252.8L305.799 250.2C306.066 250.066 306.299 249.866 306.499 249.6C306.633 249.266 306.666 248.933 306.599 248.6C306.57 248.324 306.484 248.057 306.347 247.816C306.209 247.575 306.022 247.365 305.799 247.2C305.266 246.933 304.599 246.866 303.799 247C302.799 247.133 302.133 247.4 301.799 247.8C301.623 248.023 301.496 248.281 301.427 248.557C301.358 248.833 301.348 249.12 301.399 249.4L301.699 250.3L302.299 251.1H303.099L302.799 249.2ZM308.599 262L308.299 264.7L303.099 264.3L301.699 263.9L300.499 263L299.899 261.9L299.799 259.9L299.999 258.5L300.399 257.3L301.299 256.4L302.299 255.9H303.899L309.099 256.3L308.899 259L303.499 258.5C303.033 258.5 302.633 258.6 302.299 258.8C302.033 259.066 301.866 259.433 301.799 259.9C301.733 260.366 301.833 260.733 302.099 261C302.366 261.333 302.733 261.5 303.199 261.5L308.599 262ZM298.799 271.4L299.799 268.4L298.599 267.5L299.399 264.9L306.799 270.8L305.799 273.6L296.399 274L297.399 271.3L298.799 271.4ZM300.799 271.4H304.099L301.399 269.6L300.799 271.4ZM303.999 278.6L302.399 281.2H298.999L300.599 284.2L298.999 286.8L296.399 281.2L293.199 279.4L294.599 277L297.799 278.9L303.999 278.6Z" fill="black"/>
<path d="M265.201 225.4C265.201 225.4 290.101 236.2 285.701 258.4C281.301 280.6 267.501 280.4 262.101 282.8C256.601 285.3 252.901 288.8 250.701 288.3C248.601 287.8 245.701 286.1 245.701 286.1C245.701 286.1 245.501 289.8 249.901 290.4C254.301 291.1 259.901 284.7 262.801 284C265.701 283.3 282.401 281.4 286.601 258.9C291.401 234.8 265.301 226.1 265.201 225.4Z" fill="#009B3A" stroke="black" stroke-width="0.1"/>
<path d="M277.699 230.201C277.83 230.908 277.884 231.534 277.851 231.981C277.818 232.428 277.7 232.67 277.517 232.67C277.334 232.67 277.095 232.428 276.839 231.981C276.582 231.534 276.322 230.908 276.099 230.201C275.946 229.714 275.815 229.206 275.717 228.714C275.62 228.221 275.557 227.759 275.535 227.362C275.513 226.965 275.531 226.643 275.589 226.422C275.647 226.201 275.743 226.086 275.869 226.086C275.995 226.086 276.148 226.201 276.317 226.422C276.485 226.643 276.665 226.965 276.841 227.362C277.018 227.759 277.187 228.221 277.336 228.714C277.485 229.206 277.609 229.714 277.699 230.201ZM276.899 230.401C277.148 230.85 277.38 231.323 277.577 231.786C277.774 232.248 277.932 232.689 278.039 233.076C278.146 233.462 278.2 233.785 278.196 234.02C278.192 234.255 278.131 234.397 278.016 234.435C277.902 234.473 277.738 234.406 277.536 234.24C277.334 234.073 277.099 233.811 276.848 233.473C276.598 233.134 276.337 232.727 276.087 232.282C275.836 231.837 275.601 231.365 275.399 230.901C275.088 230.185 274.87 229.521 274.783 229.023C274.696 228.524 274.745 228.22 274.92 228.161C275.096 228.102 275.389 228.293 275.749 228.701C276.109 229.109 276.515 229.709 276.899 230.401ZM274.399 232.001C274.837 232.13 275.267 232.279 275.667 232.441C276.066 232.602 276.426 232.773 276.726 232.943C277.027 233.113 277.261 233.279 277.416 233.431C277.572 233.583 277.645 233.719 277.632 233.831C277.619 233.943 277.519 234.028 277.34 234.082C277.16 234.135 276.904 234.157 276.585 234.145C276.266 234.133 275.891 234.087 275.482 234.011C275.073 233.935 274.637 233.83 274.199 233.701C273.315 233.441 272.478 233.102 271.872 232.759C271.266 232.416 270.94 232.096 270.966 231.871C270.993 231.645 271.369 231.532 272.013 231.557C272.657 231.581 273.515 231.741 274.399 232.001Z" fill="#009B3A" stroke="black" stroke-width="0.1"/>
<path d="M274.8 231.1C275.183 231.358 275.552 231.632 275.886 231.905C276.22 232.179 276.512 232.447 276.746 232.694C276.979 232.942 277.15 233.164 277.248 233.347C277.346 233.531 277.369 233.673 277.317 233.765C277.264 233.857 277.137 233.897 276.942 233.883C276.747 233.869 276.488 233.802 276.18 233.684C275.872 233.567 275.521 233.402 275.147 233.199C274.773 232.996 274.383 232.758 274 232.5C273.558 232.24 273.11 231.942 272.689 231.63C272.268 231.318 271.886 231 271.571 230.699C271.257 230.398 271.018 230.123 270.873 229.895C270.729 229.667 270.682 229.491 270.737 229.381C270.792 229.272 270.947 229.231 271.19 229.262C271.433 229.293 271.758 229.396 272.14 229.561C272.522 229.727 272.951 229.952 273.395 230.218C273.839 230.485 274.285 230.787 274.7 231.1H274.8Z" fill="#009B3A" stroke="black" stroke-width="0.1"/>
<path d="M275.8 230.701C276.226 231.05 276.674 231.471 277.102 231.921C277.529 232.371 277.921 232.836 278.239 233.269C278.557 233.703 278.791 234.092 278.918 234.397C279.045 234.702 279.06 234.914 278.962 235.011C278.865 235.109 278.658 235.089 278.361 234.954C278.064 234.818 277.688 234.572 277.27 234.239C276.851 233.906 276.403 233.497 275.971 233.052C275.538 232.607 275.135 232.142 274.8 231.701C274.448 231.236 274.185 230.815 274.039 230.483C273.893 230.152 273.871 229.923 273.974 229.82C274.076 229.717 274.301 229.745 274.623 229.9C274.944 230.055 275.352 230.332 275.8 230.701Z" fill="#009B3A" stroke="black" stroke-width="0.1"/>
<path d="M277.5 233.801L276.4 234.401C276.1 234.501 275.8 234.101 275.2 234.401C274.6 234.867 274.2 235.301 274 235.701C273.8 236.101 274.133 236.167 275 235.901C275.666 235.434 276.1 235.034 276.3 234.701C276.6 234.401 277.3 234.101 277.6 234.001L278.6 232.501C278.8 232.101 279.8 231.501 280.2 230.601C280.5 230.001 280.4 229.401 279.9 229.601C279.396 229.968 278.985 230.447 278.7 231.001C278.4 231.501 278.7 232.001 278.4 232.501L277.5 233.801ZM285.3 236.401C285.321 237.865 285.216 239.238 285.006 240.218C284.797 241.197 284.5 241.703 284.182 241.623C283.864 241.544 283.55 240.886 283.309 239.794C283.069 238.702 282.921 237.265 282.9 235.801C282.889 235.076 282.909 234.365 282.959 233.71C283.01 233.055 283.089 232.469 283.193 231.984C283.297 231.499 283.423 231.125 283.564 230.884C283.706 230.643 283.86 230.539 284.017 230.578C284.175 230.618 284.333 230.8 284.483 231.113C284.632 231.427 284.771 231.867 284.89 232.408C285.009 232.949 285.106 233.579 285.177 234.265C285.247 234.95 285.289 235.676 285.3 236.401Z" fill="#009B3A" stroke="black" stroke-width="0.1"/>
<path d="M284 236.3C284.302 237.717 284.472 239.08 284.47 240.091C284.469 241.102 284.296 241.678 283.991 241.691C283.686 241.704 283.274 241.154 282.844 240.162C282.414 239.17 282.002 237.817 281.7 236.4C281.553 235.705 281.437 235.017 281.358 234.375C281.28 233.732 281.242 233.149 281.244 232.658C281.247 232.166 281.291 231.776 281.374 231.51C281.458 231.244 281.578 231.107 281.729 231.107C281.88 231.107 282.059 231.244 282.255 231.51C282.451 231.776 282.66 232.166 282.871 232.658C283.081 233.149 283.29 233.732 283.483 234.375C283.677 235.017 283.853 235.705 284 236.4V236.3Z" fill="#009B3A" stroke="black" stroke-width="0.1"/>
<path d="M279.999 237.601C280.614 237.972 281.236 238.395 281.819 238.841C282.403 239.286 282.934 239.742 283.373 240.175C283.813 240.608 284.15 241.008 284.359 241.345C284.569 241.682 284.646 241.947 284.585 242.122C284.525 242.297 284.327 242.377 284.008 242.356C283.688 242.335 283.255 242.214 282.738 242.001C282.222 241.788 281.637 241.489 281.025 241.126C280.412 240.762 279.789 240.344 279.199 239.901C278.649 239.529 278.115 239.131 277.627 238.728C277.139 238.324 276.707 237.924 276.355 237.55C276.004 237.177 275.739 236.836 275.577 236.548C275.415 236.261 275.359 236.032 275.412 235.874C275.464 235.716 275.624 235.634 275.883 235.63C276.142 235.626 276.495 235.702 276.921 235.853C277.347 236.004 277.838 236.228 278.366 236.51C278.895 236.793 279.449 237.129 279.999 237.501V237.601Z" fill="#009B3A" stroke="black" stroke-width="0.1"/>
<path d="M280.8 236.4C281.709 237.502 282.502 238.649 283.004 239.588C283.506 240.527 283.676 241.181 283.477 241.406C283.279 241.632 282.727 241.41 281.943 240.79C281.16 240.17 280.209 239.202 279.3 238.1C278.85 237.554 278.423 236.992 278.045 236.445C277.667 235.898 277.344 235.377 277.096 234.912C276.847 234.447 276.677 234.048 276.596 233.735C276.515 233.423 276.524 233.205 276.622 233.094C276.721 232.982 276.907 232.979 277.17 233.085C277.433 233.191 277.768 233.403 278.156 233.71C278.544 234.017 278.977 234.413 279.431 234.874C279.885 235.336 280.35 235.854 280.8 236.4Z" fill="#009B3A" stroke="black" stroke-width="0.1"/>
<path d="M282.401 236.3C282.76 236.971 283.092 237.648 283.376 238.293C283.661 238.939 283.893 239.539 284.059 240.06C284.225 240.58 284.322 241.012 284.344 241.329C284.366 241.647 284.314 241.844 284.189 241.91C284.064 241.975 283.87 241.908 283.617 241.712C283.364 241.516 283.058 241.195 282.715 240.767C282.373 240.339 282.001 239.812 281.621 239.217C281.241 238.623 280.86 237.971 280.501 237.3C280.141 236.629 279.81 235.952 279.525 235.307C279.241 234.662 279.009 234.061 278.843 233.541C278.677 233.02 278.58 232.588 278.558 232.271C278.535 231.953 278.588 231.756 278.713 231.69C278.838 231.625 279.032 231.692 279.285 231.888C279.538 232.084 279.844 232.405 280.187 232.833C280.529 233.261 280.901 233.788 281.281 234.383C281.661 234.978 282.041 235.629 282.401 236.3Z" fill="#009B3A" stroke="black" stroke-width="0.1"/>
<path d="M283.8 241.5L281.9 241.9C281.6 241.9 281.3 241.2 280.3 241.4C279.3 241.6 278.5 242.3 278.3 242.7C277.9 243.234 278.3 243.434 279.5 243.3C280.7 243.1 281.1 242.3 281.7 242.2L283.8 241.8L285.6 240.1C286.1 239.6 287.6 239.1 288.4 238.1C289.1 237.3 289.1 236.5 288.4 236.6C287.592 236.88 286.869 237.362 286.3 238C285.8 238.6 285.9 239.5 285.3 240L283.8 241.5ZM289.3 246.7C289.182 247.413 289.037 248.105 288.872 248.738C288.708 249.371 288.527 249.932 288.342 250.389C288.156 250.846 287.968 251.191 287.79 251.403C287.611 251.615 287.445 251.69 287.3 251.624C287.156 251.559 287.036 251.353 286.948 251.02C286.86 250.687 286.805 250.232 286.786 249.682C286.768 249.132 286.786 248.497 286.84 247.814C286.894 247.131 286.982 246.413 287.1 245.7C287.219 244.988 287.364 244.296 287.529 243.663C287.693 243.03 287.873 242.469 288.059 242.011C288.245 241.554 288.432 241.21 288.611 240.998C288.79 240.786 288.956 240.711 289.101 240.776C289.245 240.842 289.365 241.047 289.453 241.381C289.541 241.714 289.596 242.168 289.615 242.719C289.633 243.269 289.615 243.903 289.561 244.587C289.507 245.27 289.419 245.988 289.3 246.7Z" fill="#009B3A" stroke="black" stroke-width="0.1"/>
<path d="M287.999 246.401C288.076 247.219 288.114 248.083 288.111 248.922C288.107 249.761 288.062 250.551 287.978 251.228C287.895 251.904 287.775 252.448 287.63 252.814C287.485 253.18 287.319 253.357 287.144 253.332C286.969 253.307 286.791 253.08 286.625 252.67C286.458 252.26 286.308 251.678 286.187 250.972C286.065 250.266 285.976 249.457 285.926 248.61C285.876 247.763 285.867 246.903 285.899 246.101C285.863 245.349 285.86 244.595 285.888 243.887C285.917 243.179 285.977 242.533 286.065 241.989C286.153 241.446 286.267 241.017 286.4 240.732C286.532 240.446 286.68 240.309 286.835 240.33C286.989 240.351 287.146 240.53 287.295 240.854C287.445 241.178 287.583 241.641 287.703 242.213C287.822 242.784 287.918 243.452 287.987 244.174C288.055 244.895 288.093 245.653 288.099 246.401H287.999Z" fill="#009B3A" stroke="black" stroke-width="0.1"/>
<path d="M283.999 246.801C284.477 247.269 284.937 247.766 285.352 248.262C285.767 248.758 286.128 249.243 286.415 249.687C286.701 250.132 286.906 250.527 287.017 250.849C287.129 251.171 287.145 251.413 287.064 251.561C286.983 251.709 286.807 251.76 286.547 251.711C286.287 251.661 285.947 251.513 285.549 251.274C285.151 251.035 284.702 250.71 284.23 250.319C283.757 249.929 283.271 249.48 282.799 249.001C282.257 248.525 281.711 247.987 281.204 247.429C280.696 246.87 280.239 246.306 279.869 245.779C279.498 245.251 279.223 244.775 279.065 244.386C278.907 243.996 278.869 243.704 278.955 243.532C279.042 243.36 279.249 243.311 279.562 243.391C279.876 243.47 280.286 243.675 280.763 243.99C281.239 244.305 281.77 244.722 282.313 245.209C282.857 245.696 283.399 246.241 283.899 246.801H283.999Z" fill="#009B3A" stroke="black" stroke-width="0.1"/>
<path d="M284.999 245.9C285.346 246.536 285.667 247.184 285.942 247.807C286.217 248.43 286.442 249.016 286.604 249.53C286.766 250.045 286.861 250.479 286.885 250.808C286.908 251.136 286.859 251.352 286.741 251.444C286.623 251.536 286.438 251.502 286.196 251.343C285.954 251.185 285.66 250.905 285.331 250.52C285.002 250.136 284.645 249.653 284.279 249.101C283.913 248.548 283.546 247.936 283.199 247.3C282.802 246.635 282.421 245.928 282.084 245.227C281.747 244.527 281.462 243.851 281.25 243.248C281.038 242.645 280.903 242.129 280.857 241.738C280.81 241.347 280.851 241.09 280.979 240.985C281.106 240.88 281.316 240.93 281.593 241.132C281.87 241.333 282.208 241.681 282.582 242.15C282.957 242.62 283.358 243.199 283.759 243.847C284.16 244.495 284.549 245.196 284.899 245.9H284.999Z" fill="#009B3A" stroke="black" stroke-width="0.1"/>
<path d="M286.5 246C286.735 246.739 286.942 247.482 287.109 248.185C287.276 248.888 287.399 249.538 287.473 250.098C287.546 250.658 287.568 251.116 287.537 251.448C287.505 251.779 287.421 251.977 287.29 252.029C287.159 252.082 286.982 251.988 286.771 251.754C286.56 251.52 286.318 251.149 286.059 250.664C285.8 250.178 285.529 249.587 285.261 248.924C284.994 248.261 284.735 247.539 284.5 246.8C284.265 246.061 284.058 245.319 283.891 244.616C283.724 243.913 283.6 243.262 283.527 242.703C283.453 242.143 283.432 241.684 283.463 241.353C283.495 241.021 283.578 240.824 283.71 240.771C283.841 240.719 284.017 240.812 284.229 241.046C284.44 241.281 284.682 241.651 284.941 242.137C285.2 242.623 285.471 243.214 285.739 243.876C286.006 244.539 286.265 245.261 286.5 246Z" fill="#009B3A" stroke="black" stroke-width="0.1"/>
<path d="M286.999 251.5H284.999C284.699 251.5 284.599 250.7 283.599 250.7C282.466 250.767 281.699 251.067 281.299 251.6C280.899 252 281.266 252.267 282.399 252.4C283.599 252.4 284.199 251.8 284.799 251.7H286.899L288.899 250.4C289.499 250 291.199 249.8 292.099 249C292.899 248.4 293.099 247.5 292.399 247.6C291.525 247.716 290.697 248.061 289.999 248.6C289.399 249 289.399 249.9 288.699 250.3L286.899 251.5M289.599 258.2C288.832 259.423 288.013 260.501 287.321 261.197C286.628 261.893 286.12 262.15 285.908 261.911C285.696 261.673 285.797 260.958 286.189 259.924C286.581 258.891 287.232 257.623 287.999 256.4C288.766 255.178 289.585 254.1 290.278 253.404C290.97 252.708 291.478 252.451 291.69 252.69C291.902 252.928 291.801 253.643 291.409 254.676C291.017 255.71 290.366 256.978 289.599 258.2Z" fill="#009B3A"/>
<path d="M286.999 251.5H284.999C284.699 251.5 284.599 250.7 283.599 250.7C282.466 250.767 281.699 251.067 281.299 251.6C280.899 252 281.266 252.267 282.399 252.4C283.599 252.4 284.199 251.8 284.799 251.7H286.899L288.899 250.4C289.499 250 291.199 249.8 292.099 249C292.899 248.4 293.099 247.5 292.399 247.6C291.525 247.716 290.697 248.061 289.999 248.6C289.399 249 289.399 249.9 288.699 250.3L286.899 251.5M289.599 258.2C288.832 259.423 288.013 260.501 287.321 261.197C286.628 261.893 286.12 262.15 285.908 261.911C285.696 261.673 285.797 260.958 286.189 259.924C286.581 258.891 287.232 257.623 287.999 256.4C288.766 255.178 289.585 254.1 290.278 253.404C290.97 252.708 291.478 252.451 291.69 252.69C291.902 252.928 291.801 253.643 291.409 254.676C291.017 255.71 290.366 256.978 289.599 258.2Z" stroke="black" stroke-width="0.1"/>
<path d="M288.599 257.4C288.319 258.129 288.018 258.835 287.712 259.477C287.405 260.12 287.101 260.688 286.815 261.147C286.529 261.606 286.267 261.949 286.045 262.155C285.822 262.361 285.644 262.426 285.519 262.347C285.394 262.269 285.326 262.047 285.318 261.696C285.309 261.344 285.362 260.869 285.471 260.299C285.581 259.728 285.746 259.072 285.956 258.369C286.167 257.666 286.419 256.929 286.699 256.2C287.264 254.729 287.906 253.381 288.483 252.454C289.061 251.526 289.527 251.094 289.779 251.253C290.031 251.412 290.048 252.149 289.827 253.302C289.606 254.455 289.164 255.929 288.599 257.4ZM284.699 256.1C285.182 257.351 285.54 258.635 285.694 259.67C285.848 260.705 285.786 261.405 285.52 261.617C285.255 261.829 284.809 261.536 284.28 260.801C283.751 260.067 283.182 258.951 282.699 257.7C282.216 256.449 281.858 255.165 281.704 254.131C281.55 253.096 281.612 252.396 281.878 252.183C282.143 251.971 282.589 252.265 283.118 252.999C283.647 253.734 284.216 254.849 284.699 256.1Z" fill="#009B3A" stroke="black" stroke-width="0.1"/>
<path d="M286 255.7C286.15 257.329 286.177 258.923 286.077 260.132C285.976 261.34 285.756 262.064 285.464 262.143C285.173 262.223 284.833 261.652 284.521 260.556C284.209 259.46 283.95 257.929 283.8 256.3C283.726 255.493 283.681 254.687 283.668 253.926C283.655 253.166 283.674 252.467 283.724 251.868C283.773 251.27 283.853 250.784 283.958 250.439C284.063 250.094 284.192 249.896 284.336 249.857C284.481 249.818 284.638 249.937 284.8 250.21C284.962 250.482 285.125 250.901 285.279 251.444C285.434 251.987 285.577 252.642 285.701 253.372C285.824 254.102 285.926 254.893 286 255.7Z" fill="#009B3A" stroke="black" stroke-width="0.1"/>
<path d="M287.401 256.5C287.324 257.294 287.22 258.078 287.095 258.807C286.969 259.535 286.824 260.195 286.668 260.747C286.512 261.299 286.347 261.734 286.185 262.025C286.022 262.317 285.864 262.46 285.72 262.447C285.575 262.434 285.447 262.265 285.343 261.949C285.239 261.633 285.16 261.176 285.112 260.606C285.064 260.035 285.047 259.361 285.062 258.622C285.077 257.883 285.124 257.094 285.201 256.3C285.277 255.506 285.381 254.723 285.507 253.994C285.633 253.265 285.778 252.606 285.934 252.054C286.09 251.502 286.254 251.067 286.417 250.775C286.579 250.484 286.737 250.34 286.882 250.353C287.026 250.366 287.154 250.536 287.259 250.852C287.363 251.168 287.441 251.624 287.49 252.195C287.538 252.766 287.555 253.44 287.539 254.179C287.524 254.917 287.477 255.706 287.401 256.5Z" fill="#009B3A" stroke="black" stroke-width="0.1"/>
<path d="M285.601 261.7L283.901 260.9C283.601 260.7 283.801 260 282.901 259.6C281.768 259.2 280.968 259.134 280.501 259.4C279.968 259.667 280.201 260.1 281.201 260.7C282.201 261.2 283.001 260.8 283.601 261.1L285.601 261.9L287.801 261.5C288.501 261.5 290.101 261.9 291.201 261.5C292.201 261.3 292.701 260.5 292.101 260.3C291.258 260.038 290.361 260.004 289.501 260.2C288.801 260.4 288.401 261.2 287.701 261.4C287.201 261.4 285.701 261.8 285.601 261.7ZM286.601 269.9C285.981 270.433 285.352 270.927 284.749 271.353C284.146 271.78 283.581 272.131 283.087 272.387C282.593 272.643 282.179 272.799 281.869 272.845C281.559 272.891 281.359 272.827 281.28 272.656C281.201 272.485 281.245 272.211 281.41 271.85C281.574 271.488 281.856 271.046 282.238 270.549C282.621 270.051 283.097 269.509 283.64 268.951C284.183 268.394 284.781 267.833 285.401 267.3C286.007 266.782 286.621 266.302 287.208 265.888C287.796 265.474 288.345 265.134 288.825 264.888C289.304 264.642 289.705 264.494 290.003 264.454C290.302 264.413 290.493 264.48 290.565 264.65C290.637 264.821 290.589 265.092 290.424 265.449C290.259 265.805 289.98 266.239 289.602 266.727C289.225 267.214 288.757 267.745 288.225 268.29C287.693 268.834 287.107 269.382 286.501 269.9" fill="#009B3A"/>
<path d="M286.601 269.9C285.981 270.433 285.352 270.927 284.749 271.353C284.146 271.78 283.581 272.131 283.087 272.387C282.593 272.643 282.179 272.799 281.869 272.845C281.559 272.891 281.359 272.827 281.28 272.656C281.201 272.485 281.245 272.211 281.41 271.85C281.574 271.488 281.856 271.046 282.238 270.549C282.621 270.051 283.097 269.509 283.64 268.951C284.183 268.394 284.781 267.833 285.401 267.3C286.007 266.782 286.621 266.302 287.208 265.888C287.796 265.474 288.345 265.134 288.825 264.888C289.304 264.642 289.705 264.494 290.003 264.454C290.302 264.413 290.493 264.48 290.565 264.65C290.637 264.821 290.589 265.092 290.424 265.449C290.259 265.805 289.98 266.239 289.602 266.727C289.225 267.214 288.757 267.745 288.225 268.29C287.693 268.834 287.107 269.382 286.501 269.9M285.601 261.7L283.901 260.9C283.601 260.7 283.801 260 282.901 259.6C281.768 259.2 280.968 259.134 280.501 259.4C279.968 259.667 280.201 260.1 281.201 260.7C282.201 261.2 283.001 260.8 283.601 261.1L285.601 261.9L287.801 261.5C288.501 261.5 290.101 261.9 291.201 261.5C292.201 261.3 292.701 260.5 292.101 260.3C291.258 260.038 290.361 260.004 289.501 260.2C288.801 260.4 288.401 261.2 287.701 261.4C287.201 261.4 285.701 261.8 285.601 261.7Z" stroke="black" stroke-width="0.1"/>
<path d="M285.601 268.7C285.068 269.474 284.472 270.252 283.863 270.972C283.253 271.692 282.646 272.334 282.09 272.846C281.535 273.358 281.045 273.727 280.661 273.922C280.277 274.118 280.009 274.135 279.879 273.972C279.749 273.809 279.76 273.471 279.911 272.985C280.062 272.498 280.35 271.877 280.75 271.171C281.151 270.464 281.653 269.692 282.217 268.916C282.782 268.139 283.393 267.381 284.001 266.7C284.534 265.926 285.129 265.148 285.739 264.428C286.348 263.708 286.955 263.066 287.511 262.554C288.067 262.042 288.557 261.673 288.941 261.478C289.324 261.282 289.592 261.265 289.722 261.428C289.853 261.591 289.842 261.929 289.691 262.415C289.539 262.902 289.252 263.523 288.852 264.23C288.451 264.936 287.949 265.708 287.384 266.485C286.82 267.261 286.209 268.02 285.601 268.7Z" fill="#009B3A" stroke="black" stroke-width="0.1"/>
<path d="M281.8 265.8C281.861 266.603 281.888 267.411 281.879 268.177C281.87 268.944 281.825 269.655 281.748 270.269C281.67 270.883 281.561 271.388 281.427 271.756C281.292 272.124 281.135 272.347 280.965 272.413C280.794 272.479 280.613 272.385 280.432 272.139C280.251 271.892 280.073 271.497 279.909 270.976C279.745 270.455 279.598 269.818 279.477 269.101C279.355 268.385 279.261 267.603 279.2 266.8C279.139 265.997 279.112 265.19 279.121 264.423C279.13 263.656 279.174 262.945 279.252 262.331C279.329 261.717 279.438 261.212 279.573 260.844C279.707 260.476 279.864 260.253 280.035 260.187C280.206 260.122 280.387 260.215 280.568 260.461C280.749 260.708 280.926 261.103 281.09 261.624C281.254 262.145 281.401 262.782 281.523 263.499C281.645 264.215 281.739 264.997 281.8 265.8Z" fill="#009B3A" stroke="black" stroke-width="0.1"/>
<path d="M283.3 265.801C282.966 267.066 282.578 268.167 282.194 268.941C281.811 269.715 281.452 270.121 281.172 270.099C280.891 270.076 280.703 269.627 280.637 268.817C280.57 268.006 280.627 266.879 280.8 265.601C280.926 264.674 281.109 263.698 281.333 262.753C281.558 261.807 281.819 260.917 282.095 260.154C282.37 259.391 282.654 258.776 282.922 258.358C283.19 257.94 283.436 257.731 283.64 257.747C283.843 257.763 283.999 258.005 284.094 258.452C284.19 258.899 284.222 259.539 284.189 260.321C284.156 261.104 284.059 262.007 283.904 262.958C283.75 263.91 283.543 264.883 283.3 265.801Z" fill="#009B3A" stroke="black" stroke-width="0.1"/>
<path d="M284.6 267.1C284.275 267.901 283.923 268.683 283.565 269.401C283.207 270.119 282.85 270.759 282.513 271.284C282.176 271.809 281.867 272.208 281.603 272.461C281.339 272.713 281.126 272.812 280.975 272.753C280.67 272.634 280.638 271.876 280.887 270.647C281.135 269.418 281.643 267.819 282.3 266.2C282.631 265.387 282.988 264.594 283.352 263.868C283.716 263.142 284.078 262.496 284.419 261.968C284.76 261.439 285.072 261.038 285.339 260.787C285.605 260.537 285.819 260.442 285.971 260.507C286.122 260.573 286.206 260.798 286.219 261.17C286.232 261.542 286.173 262.053 286.045 262.675C285.918 263.296 285.725 264.016 285.477 264.792C285.229 265.569 284.931 266.387 284.6 267.2" fill="#009B3A"/>
<path d="M284.6 267.1C284.275 267.901 283.923 268.683 283.565 269.401C283.207 270.119 282.85 270.759 282.513 271.284C282.176 271.809 281.867 272.208 281.603 272.461C281.339 272.713 281.126 272.812 280.975 272.753C280.67 272.634 280.638 271.876 280.887 270.647C281.135 269.418 281.643 267.819 282.3 266.2C282.631 265.387 282.988 264.594 283.352 263.868C283.716 263.142 284.078 262.496 284.419 261.968C284.76 261.439 285.072 261.038 285.339 260.787C285.605 260.537 285.819 260.442 285.971 260.507C286.122 260.573 286.206 260.798 286.219 261.17C286.232 261.542 286.173 262.053 286.045 262.675C285.918 263.296 285.725 264.016 285.477 264.792C285.229 265.569 284.931 266.387 284.6 267.2" stroke="black" stroke-width="0.1"/>
<path d="M280.999 272.3L279.299 270.8C279.099 270.5 279.499 269.8 278.599 269C277.88 268.366 276.958 268.011 275.999 268C275.332 268 275.466 268.533 276.399 269.6C277.799 271.2 278.399 270.4 278.899 270.9L280.799 272.5L283.499 272.9C284.199 273 285.799 274.2 287.199 274.2C288.399 274.2 289.199 273.6 288.499 273.1C287.694 272.552 286.767 272.209 285.799 272.1C284.899 272.1 284.199 272.8 283.299 272.7L280.899 272.3M278.499 280.1C277.548 280.314 276.559 280.482 275.608 280.591C274.656 280.7 273.768 280.748 273.012 280.73C272.255 280.712 271.649 280.629 271.241 280.487C270.833 280.346 270.633 280.149 270.656 279.913C270.68 279.677 270.926 279.407 271.377 279.125C271.828 278.842 272.471 278.554 273.256 278.282C274.042 278.011 274.95 277.763 275.911 277.558C276.872 277.353 277.859 277.197 278.799 277.1C279.75 276.886 280.74 276.718 281.691 276.609C282.642 276.5 283.53 276.452 284.287 276.47C285.043 276.488 285.649 276.571 286.057 276.713C286.466 276.854 286.666 277.051 286.642 277.287C286.618 277.523 286.372 277.793 285.921 278.075C285.47 278.358 284.828 278.646 284.042 278.918C283.256 279.189 282.348 279.437 281.387 279.642C280.427 279.847 279.439 280.003 278.499 280.1Z" fill="#009B3A"/>
<path d="M280.999 272.3L279.299 270.8C279.099 270.5 279.499 269.8 278.599 269C277.88 268.366 276.958 268.011 275.999 268C275.332 268 275.466 268.533 276.399 269.6C277.799 271.2 278.399 270.4 278.899 270.9L280.799 272.5L283.499 272.9C284.199 273 285.799 274.2 287.199 274.2C288.399 274.2 289.199 273.6 288.499 273.1C287.694 272.552 286.767 272.209 285.799 272.1C284.899 272.1 284.199 272.8 283.299 272.7L280.899 272.3M278.499 280.1C277.548 280.314 276.559 280.482 275.608 280.591C274.656 280.7 273.768 280.748 273.012 280.73C272.255 280.712 271.649 280.629 271.241 280.487C270.833 280.346 270.633 280.149 270.656 279.913C270.68 279.677 270.926 279.407 271.377 279.125C271.828 278.842 272.471 278.554 273.256 278.282C274.042 278.011 274.95 277.763 275.911 277.558C276.872 277.353 277.859 277.197 278.799 277.1C279.75 276.886 280.74 276.718 281.691 276.609C282.642 276.5 283.53 276.452 284.287 276.47C285.043 276.488 285.649 276.571 286.057 276.713C286.466 276.854 286.666 277.051 286.642 277.287C286.618 277.523 286.372 277.793 285.921 278.075C285.47 278.358 284.828 278.646 284.042 278.918C283.256 279.189 282.348 279.437 281.387 279.642C280.427 279.847 279.439 280.003 278.499 280.1Z" stroke="black" stroke-width="0.1"/>
<path d="M278.401 278.401C276.807 278.982 275.298 279.391 274.171 279.547C273.045 279.702 272.384 279.592 272.321 279.24C272.258 278.887 272.797 278.317 273.831 277.642C274.865 276.968 276.318 276.239 277.901 275.601C279.494 275.019 281.004 274.61 282.13 274.455C283.256 274.299 283.917 274.409 283.98 274.762C284.043 275.115 283.504 275.685 282.47 276.359C281.436 277.033 279.984 277.762 278.401 278.401Z" fill="#009B3A" stroke="black" stroke-width="0.1"/>
<path d="M276.101 273.5C275.39 274.865 274.613 276.081 273.909 276.931C273.205 277.78 272.62 278.207 272.259 278.135C271.898 278.063 271.784 277.496 271.938 276.537C272.093 275.577 272.505 274.288 273.101 272.9C273.464 272.056 273.883 271.202 274.33 270.397C274.777 269.592 275.241 268.856 275.69 268.239C276.139 267.622 276.562 267.139 276.93 266.823C277.298 266.508 277.603 266.367 277.823 266.411C278.043 266.455 278.172 266.683 278.203 267.078C278.234 267.473 278.165 268.027 278.002 268.701C277.838 269.375 277.583 270.153 277.255 270.982C276.927 271.81 276.533 272.67 276.101 273.5Z" fill="#009B3A" stroke="black" stroke-width="0.1"/>
<path d="M277.699 274.4C277.087 275.093 276.45 275.758 275.825 276.358C275.199 276.957 274.597 277.48 274.053 277.895C273.509 278.31 273.033 278.611 272.653 278.779C272.274 278.947 271.997 278.979 271.84 278.874C271.682 278.769 271.646 278.528 271.735 278.166C271.824 277.804 272.035 277.328 272.356 276.764C272.677 276.2 273.102 275.559 273.607 274.879C274.112 274.199 274.687 273.493 275.299 272.8C276.535 271.402 277.847 270.145 278.945 269.306C280.044 268.467 280.84 268.115 281.159 268.327C281.477 268.539 281.291 269.298 280.643 270.437C279.994 271.576 278.935 273.002 277.699 274.4Z" fill="#009B3A" stroke="black" stroke-width="0.1"/>
<path d="M278.1 276.4C277.333 277.014 276.53 277.604 275.743 278.129C274.956 278.655 274.203 279.105 273.534 279.449C272.865 279.794 272.296 280.025 271.863 280.128C271.43 280.231 271.143 280.204 271.022 280.047C270.901 279.891 270.949 279.609 271.161 279.22C271.373 278.831 271.746 278.345 272.254 277.792C272.762 277.24 273.394 276.634 274.109 276.015C274.824 275.396 275.604 274.777 276.4 274.2C277.897 273.057 279.427 272.076 280.654 271.474C281.881 270.871 282.705 270.697 282.944 270.989C283.182 271.28 282.817 272.014 281.927 273.029C281.037 274.044 279.697 275.257 278.2 276.4" fill="#009B3A"/>
<path d="M278.1 276.4C277.333 277.014 276.53 277.604 275.743 278.129C274.956 278.655 274.203 279.105 273.534 279.449C272.865 279.794 272.296 280.025 271.863 280.128C271.43 280.231 271.143 280.204 271.022 280.047C270.901 279.891 270.949 279.609 271.161 279.22C271.373 278.831 271.746 278.345 272.254 277.792C272.762 277.24 273.394 276.634 274.109 276.015C274.824 275.396 275.604 274.777 276.4 274.2C277.897 273.057 279.427 272.076 280.654 271.474C281.881 270.871 282.705 270.697 282.944 270.989C283.182 271.28 282.817 272.014 281.927 273.029C281.037 274.044 279.697 275.257 278.2 276.4" stroke="black" stroke-width="0.1"/>
<path d="M271.8 279.2L271.1 276.9C271 276.4 271.8 275.9 271.4 274.7C271.026 273.67 270.323 272.792 269.4 272.2C268.9 271.9 268.4 272.5 268.9 274C269.4 275.5 270.4 276 270.7 276.7L271.5 279.3C272.1 279.6 273.2 280.7 273.9 281.3C274.6 281.8 275.5 283.8 276.9 284.6C277.9 285.3 278.9 285.2 278.7 284.3C278.207 283.313 277.488 282.456 276.6 281.8C275.8 281.2 274.6 281.5 273.9 280.9C273.4 280.5 271.8 279.3 271.9 279.2" fill="#009B3A"/>
<path d="M271.8 279.2L271.1 276.9C271 276.4 271.8 275.9 271.4 274.7C271.026 273.67 270.323 272.792 269.4 272.2C268.9 271.9 268.4 272.5 268.9 274C269.4 275.5 270.4 276 270.7 276.7L271.5 279.3C272.1 279.6 273.2 280.7 273.9 281.3C274.6 281.8 275.5 283.8 276.9 284.6C277.9 285.3 278.9 285.2 278.7 284.3C278.207 283.313 277.488 282.456 276.6 281.8C275.8 281.2 274.6 281.5 273.9 280.9C273.4 280.5 271.8 279.3 271.9 279.2" stroke="black" stroke-width="0.1"/>
<path d="M268 285.9C266.295 285.919 264.67 285.741 263.475 285.405C262.279 285.068 261.609 284.6 261.609 284.102C261.609 283.604 262.279 283.114 263.475 282.74C264.67 282.365 266.295 282.136 268 282.1C269.705 282.081 271.33 282.259 272.525 282.595C273.721 282.932 274.391 283.399 274.391 283.898C274.391 284.396 273.721 284.886 272.525 285.26C271.33 285.635 269.705 285.864 268 285.9Z" fill="#009B3A" stroke="black" stroke-width="0.1"/>
<path d="M267.099 280C265.968 281.458 264.736 282.729 263.674 283.535C262.612 284.34 261.806 284.614 261.435 284.296C261.064 283.978 261.157 283.093 261.694 281.838C262.231 280.582 263.168 279.058 264.299 277.6C265.431 276.143 266.663 274.871 267.725 274.065C268.787 273.26 269.593 272.986 269.964 273.304C270.335 273.623 270.242 274.507 269.705 275.763C269.168 277.018 268.231 278.543 267.099 280Z" fill="#009B3A" stroke="black" stroke-width="0.1"/>
<path d="M267.999 283.001C266.591 283.513 265.268 283.828 264.257 283.892C263.246 283.956 262.61 283.765 262.456 283.352C262.303 282.939 262.642 282.329 263.416 281.626C264.19 280.924 265.35 280.173 266.699 279.501C268.108 278.988 269.43 278.673 270.441 278.609C271.453 278.545 272.089 278.736 272.243 279.149C272.396 279.563 272.057 280.173 271.283 280.875C270.509 281.578 269.348 282.329 267.999 283.001ZM269.799 226.001C270.52 226.673 271.119 227.336 271.48 227.859C271.84 228.382 271.936 228.728 271.748 228.828C271.56 228.929 271.102 228.776 270.464 228.401C269.826 228.026 269.054 227.455 268.299 226.801C267.88 226.437 267.479 226.058 267.122 225.689C266.765 225.32 266.46 224.969 266.226 224.658C265.992 224.346 265.835 224.082 265.765 223.882C265.695 223.681 265.712 223.549 265.817 223.493C265.921 223.437 266.111 223.459 266.373 223.558C266.634 223.656 266.963 223.829 267.338 224.065C267.713 224.301 268.125 224.595 268.549 224.928C268.973 225.261 269.398 225.627 269.799 226.001ZM267.799 227.701C268.904 227.846 269.98 228.075 270.79 228.337C271.599 228.599 272.076 228.873 272.116 229.098C272.156 229.323 271.755 229.482 271.002 229.539C270.248 229.596 269.204 229.546 268.099 229.401C266.994 229.256 265.919 229.027 265.109 228.765C264.3 228.503 263.823 228.229 263.783 228.003C263.743 227.778 264.144 227.619 264.897 227.563C265.65 227.506 266.694 227.556 267.799 227.701Z" fill="#009B3A" stroke="black" stroke-width="0.1"/>
<path d="M268.6 226.6C269.623 227.12 270.563 227.691 271.211 228.19C271.86 228.688 272.165 229.073 272.059 229.258C271.953 229.444 271.445 229.416 270.646 229.18C269.847 228.944 268.823 228.52 267.8 228C267.293 227.743 266.801 227.47 266.353 227.198C265.905 226.925 265.509 226.657 265.188 226.411C264.539 225.912 264.234 225.528 264.34 225.342C264.446 225.156 264.955 225.185 265.753 225.421C266.552 225.657 267.576 226.081 268.6 226.6ZM239.1 279.5C239.1 279.5 244.6 280.7 249.4 282.4C254.1 284.1 261.4 290.1 263.4 290.4C265.5 290.5 268.5 289.8 269.7 286.6C266.3 287.6 264.3 288.9 261.1 287.1C260 286.7 256.3 283.3 252.1 281.5C248.118 279.948 244.043 278.646 239.9 277.6L239.1 279.5ZM245 229.9L251.3 226.5L244.3 228.3L243.5 229.5L245 229.9Z" fill="#009B3A" stroke="black" stroke-width="0.1"/>
<path d="M251.001 231.401C248.501 231.001 244.701 230.101 242.301 229.901C244.001 228.101 246.301 225.001 247.701 223.101C246.701 224.901 245.301 227.301 244.701 229.101C246.401 230.001 249.101 230.701 251.001 231.401Z" fill="#009B3A" stroke="black" stroke-width="0.1"/>
<path d="M243.801 230.3L249.401 225.9L242.901 228.9L242.301 230.2H243.801" fill="#009B3A"/>
<path d="M243.801 230.3L249.401 225.9L242.901 228.9L242.301 230.2H243.801" stroke="black" stroke-width="0.1"/>
<path d="M249.799 231.301C247.299 230.901 243.599 230.001 241.199 229.801C242.799 227.901 244.999 224.801 246.399 222.801C245.399 224.601 244.099 227.101 243.499 228.901C245.199 229.901 247.899 230.601 249.799 231.301Z" fill="#009B3A" stroke="black" stroke-width="0.1"/>
<path d="M242.9 230.6L249.5 227.9L242.4 229L241.4 230.2L242.9 230.6Z" fill="#009B3A" stroke="black" stroke-width="0.1"/>
<path d="M249.001 231.401C246.601 231.201 242.701 230.701 240.301 230.801C241.701 228.701 243.501 225.201 244.701 223.101C244.001 225.101 242.901 227.701 242.601 229.601C244.401 230.401 247.101 230.901 249.101 231.401" fill="#009B3A"/>
<path d="M249.001 231.401C246.601 231.201 242.701 230.701 240.301 230.801C241.701 228.701 243.501 225.201 244.701 223.101C244.001 225.101 242.901 227.701 242.601 229.601C244.401 230.401 247.101 230.901 249.101 231.401" stroke="black" stroke-width="0.1"/>
<path d="M242.201 230.7L246.701 225.2L241.001 229.4L240.801 230.9L242.201 230.6" fill="#009B3A"/>
<path d="M242.201 230.7L246.701 225.2L241.001 229.4L240.801 230.9L242.201 230.6" stroke="black" stroke-width="0.1"/>
<path d="M248.999 231.8C246.399 231.8 242.199 231.5 239.699 231.8C240.999 229.3 242.499 225.4 243.499 223C242.999 225.2 242.099 228.2 241.899 230.3C243.899 231 246.899 231.3 248.999 231.8Z" fill="#009B3A" stroke="black" stroke-width="0.1"/>
<path d="M241.299 232L246.699 226.7L240.199 230.4L239.699 231.9H241.299" fill="#009B3A"/>
<path d="M241.299 232L246.699 226.7L240.199 230.4L239.699 231.9H241.299" stroke="black" stroke-width="0.1"/>
<path d="M247.801 232C245.001 232 240.601 231.8 237.801 232.1C239.601 229.4 242.201 225.1 243.801 222.4C242.801 224.8 241.101 228.2 240.501 230.4C242.501 231.2 245.601 231.4 247.801 231.9" fill="#009B3A"/>
<path d="M247.801 232C245.001 232 240.601 231.8 237.801 232.1C239.601 229.4 242.201 225.1 243.801 222.4C242.801 224.8 241.101 228.2 240.501 230.4C242.501 231.2 245.601 231.4 247.801 231.9" stroke="black" stroke-width="0.1"/>
<path d="M239.501 232.3L246.501 226.4L238.501 230.6L237.801 232.3H239.501Z" fill="#009B3A" stroke="black" stroke-width="0.1"/>
<path d="M246.801 232.1C244.001 232.5 239.601 233 236.801 233.7C238.45 230.334 239.951 226.897 241.301 223.4C240.701 225.9 239.601 229.4 239.301 231.7C241.401 232.1 244.501 232 246.801 232.1Z" fill="#009B3A" stroke="black" stroke-width="0.1"/>
<path d="M238.6 233.501L243.9 226.101L237.2 232.101L236.9 234.001L238.5 233.501" fill="#009B3A"/>
<path d="M238.6 233.501L243.9 226.101L237.2 232.101L236.9 234.001L238.5 233.501" stroke="black" stroke-width="0.1"/>
<path d="M245.199 233C242.399 233.3 237.999 233.5 235.199 234C236.799 231.3 238.999 226.8 240.199 224C239.499 226.5 238.199 229.9 237.799 232.2C239.799 232.7 242.999 232.7 245.199 233Z" fill="#009B3A" stroke="black" stroke-width="0.1"/>
<path d="M237.6 234.301L244.4 228.301L236.7 232.501L235.9 234.301H237.6Z" fill="#009B3A" stroke="black" stroke-width="0.1"/>
<path d="M244.4 233.3C241.5 233.9 237.1 234.6 234.4 235.5C235.7 232.6 237.4 227.9 238.4 225C237.9 227.6 237 231 236.8 233.4C238.9 233.7 242.1 233.3 244.4 233.3Z" fill="#009B3A" stroke="black" stroke-width="0.1"/>
<path d="M236.5 234.6L240.8 226.5L234.9 233.5V235.3L236.5 234.6Z" fill="#009B3A" stroke="black" stroke-width="0.1"/>
<path d="M244.399 233.801C241.399 234.501 236.599 235.601 233.699 236.701C234.799 233.401 236.099 228.101 236.899 224.801C236.599 227.701 235.899 231.601 236.099 234.201C238.399 234.401 241.899 233.901 244.399 233.801Z" fill="#009B3A" stroke="black" stroke-width="0.1"/>
<path d="M235.601 236.4L241.101 228.4L234.101 234.9L233.801 236.9L235.601 236.4Z" fill="#009B3A" stroke="black" stroke-width="0.1"/>
<path d="M243.199 234.7C240.199 235.7 235.499 236.9 232.699 238.1C233.699 234.8 234.699 229.5 235.299 226.2C235.099 229.1 234.699 233 234.899 235.5C237.299 235.6 240.699 234.9 243.199 234.7Z" fill="#009B3A" stroke="black" stroke-width="0.1"/>
<path d="M234.499 237.601L238.699 228.601L232.699 236.401V238.401L234.499 237.601Z" fill="#009B3A" stroke="black" stroke-width="0.1"/>
<path d="M241.999 235.901C238.999 236.601 234.199 237.501 231.199 238.501C232.499 235.301 233.999 230.001 234.899 226.801C234.499 229.701 233.699 233.501 233.699 236.101C236.099 236.401 239.499 235.901 241.999 235.901Z" fill="#009B3A" stroke="black" stroke-width="0.1"/>
<path d="M233.5 238.5L240.3 231.5L232.3 236.7L231.6 238.7L233.6 238.5" fill="#009B3A"/>
<path d="M233.5 238.5L240.3 231.5L232.3 236.7L231.6 238.7L233.6 238.5" stroke="black" stroke-width="0.1"/>
<path d="M240.7 237.1C237.7 237.5 232.9 237.9 230 238.7C231.4 235.5 233.2 230.4 234.3 227.2C233.7 230 232.7 233.9 232.5 236.5C234.8 237 238.2 236.9 240.7 237.1Z" fill="#009B3A" stroke="black" stroke-width="0.1"/>
<path d="M232.2 237.8L236.8 229L230.5 236.4V238.4L232.2 237.8Z" fill="#009B3A" stroke="black" stroke-width="0.1"/>
<path d="M241 236C237.7 237.4 232.6 239.3 229.5 241C230.5 237 231.5 230.8 232.2 227C232.1 230.3 231.6 234.9 231.9 237.8C234.6 237.8 238.3 236.6 241.1 236.1" fill="#009B3A"/>
<path d="M241 236C237.7 237.4 232.6 239.3 229.5 241C230.5 237 231.5 230.8 232.2 227C232.1 230.3 231.6 234.9 231.9 237.8C234.6 237.8 238.3 236.6 241.1 236.1" stroke="black" stroke-width="0.1"/>
<path d="M231.5 240.4L237.1 230.4L229.8 238.9L229.6 241.3L231.6 240.4" fill="#009B3A"/>
<path d="M231.5 240.4L237.1 230.4L229.8 238.9L229.6 241.3L231.6 240.4" stroke="black" stroke-width="0.1"/>
<path d="M239.8 237.301C236.5 238.801 231.4 241.001 228.4 242.801C229.2 238.801 230 232.701 230.5 228.801C230.5 232.101 230.3 236.701 230.7 239.501C233.4 239.301 237 238.001 239.7 237.301" fill="#009B3A"/>
<path d="M239.8 237.301C236.5 238.801 231.4 241.001 228.4 242.801C229.2 238.801 230 232.701 230.5 228.801C230.5 232.101 230.3 236.701 230.7 239.501C233.4 239.301 237 238.001 239.7 237.301" stroke="black" stroke-width="0.1"/>
<path d="M230.4 242L234.4 231.2L228.4 240.8L228.5 243.1L230.4 242Z" fill="#009B3A" stroke="black" stroke-width="0.1"/>
<path d="M238.3 238.201C235.1 239.801 230 242.001 227 243.801C227.8 239.801 228.6 233.701 229 229.801C229.1 233.101 228.9 237.601 229.3 240.501C231.9 240.201 235.6 238.901 238.3 238.201Z" fill="#009B3A" stroke="black" stroke-width="0.1"/>
<path d="M229.5 243.3L235.7 233.7L227.8 241.5L227.5 243.9L229.5 243.3Z" fill="#009B3A" stroke="black" stroke-width="0.1"/>
<path d="M238 237.7C235.2 240 230.6 243.4 228 246C228 242 227.4 235.8 227.1 232C227.9 235.2 228.6 239.6 229.6 242.2C232.1 241.3 235.5 239.1 238.1 237.7" fill="#009B3A"/>
<path d="M238 237.7C235.2 240 230.6 243.4 228 246C228 242 227.4 235.8 227.1 232C227.9 235.2 228.6 239.6 229.6 242.2C232.1 241.3 235.5 239.1 238.1 237.7" stroke="black" stroke-width="0.1"/>
<path d="M229.8 243.701L230.5 232.301L227.5 243.301L228.3 245.501L229.8 243.701Z" fill="#009B3A" stroke="black" stroke-width="0.1"/>
<path d="M237.201 238.8C234.301 241.1 229.701 244.4 227.201 246.9C227.201 242.9 226.601 236.9 226.301 233C227.001 236.2 227.701 240.6 228.701 243.2C231.301 242.3 234.701 240.1 237.201 238.8Z" fill="#009B3A" stroke="black" stroke-width="0.1"/>
<path d="M229 245.6L232 234.5L227 244.7L227.3 247L229.1 245.6" fill="#009B3A"/>
<path d="M229 245.6L232 234.5L227 244.7L227.3 247L229.1 245.6" stroke="black" stroke-width="0.1"/>
<path d="M236.9 239C234.2 241.7 229.8 245.7 227.4 248.6C226.9 244.6 225.7 238.3 225 234.5C226 237.6 227.3 242 228.6 244.6C231.2 243.4 234.4 240.7 236.9 239Z" fill="#009B3A" stroke="black" stroke-width="0.1"/>
<path d="M228.999 247L229.599 235.2L226.699 246.7L227.599 248.9L229.099 247.1" fill="#009B3A"/>
<path d="M228.999 247L229.599 235.2L226.699 246.7L227.599 248.9L229.099 247.1" stroke="black" stroke-width="0.1"/>
<path d="M236 241C233.1 243.4 228.5 247 225.8 249.7C225.8 245.5 225 239.2 224.6 235.2C225.5 238.5 226.3 243 227.4 245.7C230 244.7 233.4 242.4 236 241Z" fill="#009B3A" stroke="black" stroke-width="0.1"/>
<path d="M228.2 248.4L232.3 237.2L226.1 247.2L226.3 249.6L228.2 248.4Z" fill="#009B3A" stroke="black" stroke-width="0.1"/>
<path d="M235.999 241C233.399 243.8 229.299 247.9 226.999 250.8C226.599 246.7 225.399 240.4 224.699 236.5C225.699 239.6 226.899 244.1 228.199 246.7C230.599 245.5 233.599 242.7 235.999 241Z" fill="#009B3A" stroke="black" stroke-width="0.1"/>
<path d="M228.4 249L227.9 237.2L225.9 248.9L227.1 250.9L228.4 248.9" fill="#009B3A"/>
<path d="M228.4 249L227.9 237.2L225.9 248.9L227.1 250.9L228.4 248.9" stroke="black" stroke-width="0.1"/>
<path d="M234.701 242C232.201 244.7 228.201 248.8 226.001 251.8C225.501 247.6 224.101 241.3 223.301 237.4C224.401 240.6 225.701 245.1 227.101 247.7C229.401 246.4 232.401 243.7 234.701 241.9" fill="#009B3A"/>
<path d="M234.701 242C232.201 244.7 228.201 248.8 226.001 251.8C225.501 247.6 224.101 241.3 223.301 237.4C224.401 240.6 225.701 245.1 227.101 247.7C229.401 246.4 232.401 243.7 234.701 241.9" stroke="black" stroke-width="0.1"/>
<path d="M227.7 250.2L229 238.2L225.5 249.5L226.2 251.8L227.7 250.2Z" fill="#009B3A" stroke="black" stroke-width="0.1"/>
<path d="M234.2 242.4C231.9 245.4 228.2 249.9 226.2 253C225.4 249 223.6 242.8 222.5 239C223.8 242 225.5 246.4 227 248.9C229.2 247.4 232 244.3 234.2 242.4Z" fill="#009B3A" stroke="black" stroke-width="0.1"/>
<path d="M227.6 251.301L226.9 239.301L225.4 251.201L226.4 253.201L227.6 251.201" fill="#009B3A"/>
<path d="M227.6 251.301L226.9 239.301L225.4 251.201L226.4 253.201L227.6 251.201" stroke="black" stroke-width="0.1"/>
<path d="M234 243.001C231.8 246.201 228.3 251.001 226.5 254.201C225.5 250.201 223.3 244.101 222 240.301C223.5 243.301 225.4 247.601 227 250.001C229.2 248.401 231.8 245.201 234 243.001Z" fill="#009B3A" stroke="black" stroke-width="0.1"/>
<path d="M228.399 252.4L229.599 240.4L226.199 251.7L226.899 254.1L228.399 252.4Z" fill="#009B3A" stroke="black" stroke-width="0.1"/>
<path d="M233.5 244.201C231.6 247.601 228.6 252.801 227.1 256.301C225.7 252.401 223.1 246.701 221.4 243.101C223.2 245.901 225.4 249.901 227.3 252.101C229.3 250.101 231.6 246.601 233.5 244.101" fill="#009B3A"/>
<path d="M233.5 244.201C231.6 247.601 228.6 252.801 227.1 256.301C225.7 252.401 223.1 246.701 221.4 243.101C223.2 245.901 225.4 249.901 227.3 252.101C229.3 250.101 231.6 246.601 233.5 244.101" stroke="black" stroke-width="0.1"/>
<path d="M228 253.4L224.6 242L225.7 254L227.3 255.7L228 253.4Z" fill="#009B3A" stroke="black" stroke-width="0.1"/>
<path d="M233.4 245.5C231.4 248.9 228.4 254.1 226.8 257.6C225.3 253.7 222.7 248 221 244.4C222.8 247.2 225 251.2 227 253.4C229 251.4 231.5 247.9 233.4 245.5Z" fill="#009B3A" stroke="black" stroke-width="0.1"/>
<path d="M228.101 255.601L226.901 243.601L225.801 255.601L227.001 257.601L228.101 255.601Z" fill="#009B3A" stroke="black" stroke-width="0.1"/>
<path d="M233.599 246.6C231.599 250 228.399 255 226.799 258.5C225.399 254.6 222.799 248.8 221.199 245.2C222.999 248 225.199 252 226.999 254.2C229.199 252.4 231.599 248.9 233.599 246.6Z" fill="#009B3A" stroke="black" stroke-width="0.1"/>
<path d="M227.999 256.5L225.799 244.7L225.699 256.8L226.999 258.7L227.999 256.5Z" fill="#009B3A" stroke="black" stroke-width="0.1"/>
<path d="M232.8 248.301C230.6 251.501 227.2 256.301 225.4 259.701C224.2 255.701 221.9 249.701 220.4 246.101C222.1 249.001 224.1 253.101 225.8 255.501C228 253.701 230.7 250.501 232.8 248.301Z" fill="#009B3A" stroke="black" stroke-width="0.1"/>
<path d="M226.999 257.801L227.999 245.801L224.699 257.201L225.499 259.501L226.999 257.801Z" fill="#009B3A" stroke="black" stroke-width="0.1"/>
<path d="M232.9 248.6C231.1 252.1 228.1 257.4 226.6 260.9C225.1 257.1 222.2 251.5 220.4 248C222.4 250.7 224.7 254.6 226.7 256.6C228.7 254.6 231 251 232.9 248.6Z" fill="#009B3A" stroke="black" stroke-width="0.1"/>
<path d="M226.6 258.801L222.9 247.601L224.3 259.601L225.9 261.201L226.6 258.801Z" fill="#009B3A" stroke="black" stroke-width="0.1"/>
<path d="M232.4 249.5C231.1 253.3 229 259.2 228 263C226 259.6 222.3 254.7 220 251.7C222.3 253.9 225.2 257.2 227.5 258.7C229.2 256.4 230.9 252.3 232.4 249.5Z" fill="#009B3A" stroke="black" stroke-width="0.1"/>
<path d="M229.9 259.8L225.9 248.7L227.6 260.6L229.2 262.1L229.9 259.7" fill="#009B3A"/>
<path d="M229.9 259.8L225.9 248.7L227.6 260.6L229.2 262.1L229.9 259.7" stroke="black" stroke-width="0.1"/>
<path d="M232.4 250.7C231.1 254.5 229 260.4 228.1 264.2C226.1 260.8 222.3 256 220.1 253C222.3 255.2 225.2 258.4 227.5 260C229.2 257.6 230.9 253.5 232.4 250.7Z" fill="#009B3A" stroke="black" stroke-width="0.1"/>
<path d="M229.899 261.601L224.699 251.301L227.699 262.801L229.499 264.101L229.899 261.601Z" fill="#009B3A" stroke="black" stroke-width="0.1"/>
<path d="M232 251.601C231.2 255.601 229.8 261.701 229.3 265.601C226.8 262.601 222.6 258.301 220 255.601C222.5 257.601 225.8 260.301 228.2 261.601C229.6 258.901 230.8 254.601 232 251.601Z" fill="#009B3A" stroke="black" stroke-width="0.1"/>
<path d="M230.2 263.301L227.5 251.601L227.9 263.701L229.4 265.501L230.2 263.301Z" fill="#009B3A" stroke="black" stroke-width="0.1"/>
<path d="M232 252.9C231.6 256.9 230.7 263.2 230.7 267.2C227.9 264.5 223.3 260.8 220.5 258.5C223.2 260 226.7 262.4 229.2 263.3C230.3 260.5 231.2 256 232 252.9Z" fill="#009B3A" stroke="black" stroke-width="0.1"/>
<path d="M230.4 264.1L223 255.7L228.6 265.9L230.6 266.6L230.4 264.1Z" fill="#009B3A" stroke="black" stroke-width="0.1"/>
<path d="M232.2 254.301C231.7 258.301 230.8 264.601 230.8 268.601C228 265.901 223.4 262.201 220.6 259.901C223.3 261.401 226.8 263.801 229.3 264.701C230.5 261.901 231.3 257.501 232.2 254.301Z" fill="#009B3A" stroke="black" stroke-width="0.1"/>
<path d="M231.2 266L225.5 256L229.1 267.3L231 268.5L231.2 266.1" fill="#009B3A"/>
<path d="M231.2 266L225.5 256L229.1 267.3L231 268.5L231.2 266.1" stroke="black" stroke-width="0.1"/>
<path d="M232.499 256C232.199 260 231.599 266.4 231.699 270.4C228.799 267.8 224.099 264.4 221.199 262.3C223.899 263.6 227.499 265.8 230.099 266.5C231.099 263.6 231.699 259.2 232.499 256Z" fill="#009B3A" stroke="black" stroke-width="0.1"/>
<path d="M232 268C231.8 268 225 259 225 259L230 269.6L232 270.4V268Z" fill="#009B3A" stroke="black" stroke-width="0.1"/>
<path d="M232.601 257.9C232.301 261.9 231.801 268.3 231.901 272.3C228.508 269.452 224.97 266.782 221.301 264.3C224.001 265.6 227.701 267.7 230.301 268.4C231.301 265.5 231.801 261.1 232.601 257.9Z" fill="#009B3A" stroke="black" stroke-width="0.1"/>
<path d="M232.6 269.401L227.6 258.801L230.4 270.401L232.1 271.901L232.6 269.401Z" fill="#009B3A" stroke="black" stroke-width="0.1"/>
<path d="M232.799 259C232.799 263.2 232.899 269.6 233.399 273.5C230.399 271.5 225.299 268.6 222.199 266.9C224.999 267.9 228.799 269.6 231.399 269.9C232.099 266.9 232.399 262.4 232.699 259.1" fill="#009B3A"/>
<path d="M232.799 259C232.799 263.2 232.899 269.6 233.399 273.5C230.399 271.5 225.299 268.6 222.199 266.9C224.999 267.9 228.799 269.6 231.399 269.9C232.099 266.9 232.399 262.4 232.699 259.1" stroke="black" stroke-width="0.1"/>
<path d="M233.4 269L224.4 262.9L232 271.2L234.1 271.4L233.4 269Z" fill="#009B3A" stroke="black" stroke-width="0.1"/>
<path d="M233 259.5C233.4 263.6 233.7 270 234.4 273.9C230.673 271.673 226.835 269.637 222.9 267.8C225.7 268.6 229.6 270.1 232.2 270.4C232.8 267.4 232.8 262.8 233 259.5Z" fill="#009B3A" stroke="black" stroke-width="0.1"/>
<path d="M234.4 271.3L226.9 262.7L232.6 273L234.6 273.8L234.4 271.3Z" fill="#009B3A" stroke="black" stroke-width="0.1"/>
<path d="M233.7 261C234.2 265.2 234.8 271.5 235.7 275.4C232.4 273.6 227.2 271.4 223.9 269.9C226.9 270.6 230.7 271.9 233.4 272C233.8 269 233.6 264.4 233.7 261Z" fill="#009B3A" stroke="black" stroke-width="0.1"/>
<path d="M235.8 272.7L227 266.5L234.5 275H236.5L235.8 272.7Z" fill="#009B3A" stroke="black" stroke-width="0.1"/>
<path d="M234 262.801C234.8 266.801 235.8 273.101 236.9 277.001C233.5 275.401 228.2 273.701 224.9 272.601C227.8 273.001 231.8 273.901 234.4 273.801C234.6 270.701 234.1 266.201 234 262.801Z" fill="#009B3A" stroke="black" stroke-width="0.1"/>
<path d="M236.8 274.001L229.5 265.301L235 275.701L237 276.501L236.8 274.001Z" fill="#009B3A" stroke="black" stroke-width="0.1"/>
<path d="M234.4 264C235.6 267.9 237.2 274 238.7 277.7C235.2 276.7 229.7 275.6 226.4 274.9C229.3 274.9 233.3 275.3 235.9 274.9C235.9 271.7 234.9 267.3 234.4 263.9" fill="#009B3A"/>
<path d="M234.4 264C235.6 267.9 237.2 274 238.7 277.7C235.2 276.7 229.7 275.6 226.4 274.9C229.3 274.9 233.3 275.3 235.9 274.9C235.9 271.7 234.9 267.3 234.4 263.9" stroke="black" stroke-width="0.1"/>
<path d="M237.2 274.001L227 271.801L236.7 276.601L238.7 275.901L237.2 274.001Z" fill="#009B3A" stroke="black" stroke-width="0.1"/>
<path d="M235.1 265.201C236.3 269.101 237.9 275.201 239.3 278.901C235.8 277.901 230.3 276.801 227 276.101C229.9 276.101 234 276.501 236.5 276.101C236.5 272.901 235.5 268.501 235.1 265.101" fill="#009B3A"/>
<path d="M235.1 265.201C236.3 269.101 237.9 275.201 239.3 278.901C235.8 277.901 230.3 276.801 227 276.101C229.9 276.101 234 276.501 236.5 276.101C236.5 272.901 235.5 268.501 235.1 265.101" stroke="black" stroke-width="0.1"/>
<path d="M238.9 275.001C238.9 275.201 229.1 270.301 229.1 270.301L237.9 277.501L239.9 277.301L238.9 275.101" fill="#009B3A"/>
<path d="M238.9 275.001C238.9 275.201 229.1 270.301 229.1 270.301L237.9 277.501L239.9 277.301L238.9 275.101" stroke="black" stroke-width="0.1"/>
<path d="M234.6 265.9C236.6 269.4 239.4 275.1 241.6 278.4C238 278.1 232.4 278.3 229 278.4C231.8 277.7 235.8 277.2 238.2 276.2C237.6 273.2 235.7 269 234.6 265.9Z" fill="#009B3A" stroke="black" stroke-width="0.1"/>
<path d="M240.399 276.101L230.199 273.301L239.799 278.701L241.799 278.101L240.399 276.101Z" fill="#009B3A" stroke="black" stroke-width="0.1"/>
<path d="M235.7 267.4C237.7 270.9 240.5 276.6 242.7 279.8C239.1 279.6 233.5 279.8 230.1 280C233 279.3 237 278.7 239.4 277.7C238.6 274.7 236.8 270.5 235.6 267.4" fill="#009B3A"/>
<path d="M235.7 267.4C237.7 270.9 240.5 276.6 242.7 279.8C239.1 279.6 233.5 279.8 230.1 280C233 279.3 237 278.7 239.4 277.7C238.6 274.7 236.8 270.5 235.6 267.4" stroke="black" stroke-width="0.1"/>
<path d="M241.699 277.001L232.199 271.301L240.499 279.301H242.699L241.699 277.001Z" fill="#009B3A" stroke="black" stroke-width="0.1"/>
<path d="M236.399 268.301C238.699 271.601 242.099 276.901 244.599 279.901C240.999 280.101 235.599 281.101 232.199 281.701C234.999 280.701 238.799 279.501 241.099 278.101C240.099 275.101 237.799 271.301 236.399 268.301Z" fill="#009B3A" stroke="black" stroke-width="0.1"/>
<path d="M242.399 277.8L232.199 277.6L242.299 280.6L244.099 279.5L242.399 277.8ZM248.399 228.2L255.699 226.9L248.399 227.1L247.099 227.8L248.399 228.2Z" fill="#009B3A" stroke="black" stroke-width="0.1"/>
<path d="M252.401 229.7C250.301 229.1 247.001 228 244.801 227.5L252.801 223.9C251.101 224.9 248.801 226.3 247.501 227.3C248.701 228.1 250.901 229 252.501 229.7" fill="#009B3A"/>
<path d="M252.401 229.7C250.301 229.1 247.001 228 244.801 227.5L252.801 223.9C251.101 224.9 248.801 226.3 247.501 227.3C248.701 228.1 250.901 229 252.501 229.7" stroke="black" stroke-width="0.1"/>
<path d="M247.999 228.4L255.199 226.4L247.799 227.4L246.699 228.2L247.999 228.4Z" fill="#009B3A" stroke="black" stroke-width="0.1"/>
<path d="M252.8 230.3C250.3 230 246.4 229.5 244 229.5C245.8 227.9 248.4 225.1 250 223.5C249 225 247.2 227.1 246.5 228.6C248.2 229.3 250.9 229.7 252.8 230.3Z" fill="#009B3A" stroke="black" stroke-width="0.1"/>
<path d="M245.399 229L252.799 228L245.599 227.9L244.199 228.5L245.399 228.9" fill="#009B3A"/>
<path d="M245.399 229L252.799 228L245.599 227.9L244.199 228.5L245.399 228.9" stroke="black" stroke-width="0.1"/>
<path d="M250.9 230.501C248.6 230.101 245.2 229.301 242.9 229.101C245 228.101 248.2 226.101 250.2 225.101C248.7 226.101 246.6 227.601 245.5 228.601C246.9 229.301 249.2 229.901 250.9 230.601" fill="#009B3A"/>
<path d="M250.9 230.501C248.6 230.101 245.2 229.301 242.9 229.101C245 228.101 248.2 226.101 250.2 225.101C248.7 226.101 246.6 227.601 245.5 228.601C246.9 229.301 249.2 229.901 250.9 230.601" stroke="black" stroke-width="0.1"/>
<path d="M244.801 228.8L251.301 226L244.101 228L243.301 228.8H244.801Z" fill="#009B3A" stroke="black" stroke-width="0.1"/>
<path d="M250.7 231.401C248.7 230.601 245.9 229.301 244 228.701C245.5 227.401 247.5 225.001 248.8 223.601C247.8 225.001 246.5 226.901 246 228.301C247.2 229.301 249.2 230.401 250.7 231.301" fill="#009B3A"/>
<path d="M250.7 231.401C248.7 230.601 245.9 229.301 244 228.701C245.5 227.401 247.5 225.001 248.8 223.601C247.8 225.001 246.5 226.901 246 228.301C247.2 229.301 249.2 230.401 250.7 231.301" stroke="black" stroke-width="0.1"/>
<path d="M245.1 229.301L250.2 227.101L244.7 227.901L244 228.901L245.1 229.301ZM241 277.001H230.4L241.1 279.701L242.9 278.501L240.9 277.001" fill="#009B3A"/>
<path d="M241 277.001H230.4L241.1 279.701L242.9 278.501L240.9 277.001M245.1 229.301L250.2 227.101L244.7 227.901L244 228.901L245.1 229.301Z" stroke="black" stroke-width="0.1"/>
<path d="M242.8 277.6L232 275L242.3 280L244.3 279.4L242.7 277.4" fill="#009B3A"/>
<path d="M242.8 277.6L232 275L242.3 280L244.3 279.4L242.7 277.4" stroke="black" stroke-width="0.1"/>
<path d="M244.5 278.3L233.9 277.7L244.5 281L246.3 280L244.5 278.3Z" fill="#009B3A" stroke="black" stroke-width="0.1"/>
<path d="M237.8 270.801C240.5 273.801 244.7 278.701 247.6 281.401C244 281.901 238.6 283.401 235.4 284.201C238 283.001 241.7 281.501 243.8 280.001C242.4 277.201 239.6 273.601 237.8 270.801Z" fill="#009B3A" stroke="black" stroke-width="0.1"/>
<path d="M246 278.801L235.4 275.301L245.4 281.301L247.4 280.801L246 278.801Z" fill="#009B3A" stroke="black" stroke-width="0.1"/>
<path d="M238.801 271.5C241.801 274.2 246.301 278.6 249.401 281C246.001 282 240.901 284.1 237.801 285.4C240.201 283.8 243.801 281.9 245.601 280.1C244.001 277.4 240.801 274.1 238.801 271.5Z" fill="#009B3A" stroke="black" stroke-width="0.1"/>
<path d="M246.801 279.5L236.801 281.5L247.401 282.2L248.901 280.7L246.901 279.5" fill="#009B3A"/>
<path d="M246.801 279.5L236.801 281.5L247.401 282.2L248.901 280.7L246.901 279.5" stroke="black" stroke-width="0.1"/>
<path d="M244.801 278.801L234.301 279.601L245.101 281.501L246.801 280.201L244.801 278.801Z" fill="#009B3A" stroke="black" stroke-width="0.1"/>
<path d="M246.701 279.4L235.801 277.7L246.501 282L248.501 281.2L246.701 279.4Z" fill="#009B3A" stroke="black" stroke-width="0.1"/>
<path d="M248.5 280L237.9 280.2L248.7 282.6L250.4 281.5L248.5 280Z" fill="#009B3A" stroke="black" stroke-width="0.1"/>
<path d="M241.201 273C244.201 275.8 248.701 280.4 251.801 282.8C248.201 283.6 243.001 285.4 239.801 286.5C242.301 285.1 245.901 283.5 247.901 281.8C246.301 279 243.201 275.6 241.201 273Z" fill="#009B3A" stroke="black" stroke-width="0.1"/>
<path d="M249.999 280.4L239.199 277.7L249.599 282.9L251.599 282.3L249.999 280.4Z" fill="#009B3A" stroke="black" stroke-width="0.1"/>
<path d="M242.199 273.601C245.499 276.101 250.299 280.201 253.599 282.301C249.77 283.894 246 285.628 242.299 287.501C244.599 285.801 247.999 283.601 249.699 281.701C247.899 279.101 244.499 276.101 242.199 273.601Z" fill="#009B3A" stroke="black" stroke-width="0.1"/>
<path d="M251 281L241 283.7H251.7L253 282.1L251 281Z" fill="#009B3A" stroke="black" stroke-width="0.1"/>
<path d="M264.6 266.1L256.5 260.5L248.5 266.1L251.5 257.1L244.4 251.6H253.4L256.5 242.6L259.5 251.6H268.6L261.6 257.2L264.6 266.2V266.1Z" fill="#FEDF00" stroke="black" stroke-width="0.5"/>
</g>
<defs>
<clipPath id="clip0_3921_19212">
<rect width="512" height="512" fill="white"/>
</clipPath>
</defs>
</svg>
