<svg width="512" height="512" viewBox="0 0 512 512" fill="none" xmlns="http://www.w3.org/2000/svg">
<g clip-path="url(#clip0_3921_19918)">
<mask id="mask0_3921_19918" style="mask-type:luminance" maskUnits="userSpaceOnUse" x="0" y="0" width="512" height="513">
<path d="M0.0136719 0H511.97V512.029H0.0136719V0Z" fill="white"/>
</mask>
<g mask="url(#mask0_3921_19918)">
<path fill-rule="evenodd" clip-rule="evenodd" d="M-20 0H748.007V512.029H-20V0Z" fill="white"/>
<path fill-rule="evenodd" clip-rule="evenodd" d="M-20 0H748.007V255.978H-20V0Z" fill="#DF0000"/>
<path fill-rule="evenodd" clip-rule="evenodd" d="M157.154 42.9161C136.944 47.2465 118.839 58.3998 105.881 74.5027C92.9223 90.6057 85.9 110.677 85.9933 131.346C86.0865 152.016 93.2895 172.023 106.392 188.008C119.495 203.994 137.7 214.983 157.949 219.131C144.315 223.121 129.941 223.889 115.96 221.373C101.979 218.857 88.7736 213.127 77.3861 204.634C65.9986 196.141 56.7403 185.119 50.3415 172.436C43.9428 159.753 40.5787 145.757 40.5146 131.552C40.4505 117.346 43.6883 103.32 49.9724 90.5801C56.2564 77.84 65.415 66.7345 76.7254 58.1396C88.0359 49.5447 101.189 43.6955 115.147 41.0536C129.104 38.4117 143.485 39.0493 157.154 42.9161Z" fill="white"/>
<path fill-rule="evenodd" clip-rule="evenodd" d="M125.942 117.332L112.287 107.362L129.266 107.217L134.468 91.1059L139.886 107.217H156.792L143.21 117.332L148.412 133.444L134.612 123.546L120.885 133.516L125.942 117.332ZM144.727 172.892L131 162.921L147.978 162.777L153.252 146.665L158.599 162.705H175.577L161.85 172.819L167.124 188.931L153.397 179.105L139.669 189.076L144.727 172.892ZM207.078 172.458L193.35 162.488L210.257 162.343L215.531 146.232L220.877 162.343H237.928L224.273 172.458L229.547 188.57L215.748 178.672L202.02 188.642L207.078 172.458ZM225.646 117.405L211.918 107.434L228.897 107.29L234.099 91.1781L239.518 107.217H256.424L242.841 117.332L248.043 133.444L234.243 123.618L220.516 133.588L225.646 117.405ZM176.3 80.9188L162.572 70.9484L179.551 70.8039L184.825 54.6924L190.172 70.8039H207.15L193.423 80.9188L198.697 96.958L184.97 87.1322L171.242 97.1025L176.3 80.9188Z" fill="white"/>
</g>
</g>
<defs>
<clipPath id="clip0_3921_19918">
<rect width="512" height="512" fill="white"/>
</clipPath>
</defs>
</svg>
