<svg width="512" height="512" viewBox="0 0 512 512" fill="none" xmlns="http://www.w3.org/2000/svg">
<g clip-path="url(#clip0_3921_20554)">
<path d="M512 512V0H0V512H512Z" fill="#000066"/>
<path d="M0 0H256V256H0V0Z" fill="#012169"/>
<path d="M256 0V32L161 128L256 221.5V256H222.5L127 162L34 256H0V222L93 128.5L0 37V0H31L127 94L220 0H256Z" fill="white"/>
<path d="M92 162L97.5 179L21 256H0V254.5L92 162ZM154 156L181 160L256 233.5V256L154 156ZM256 0L160 98L158 76L233 0H256ZM0 0.5L96.5 95L67 91L0 24.5V0.5Z" fill="#C8102E"/>
<path d="M88 0V256H168V0H88ZM0 88V168H256V88H0Z" fill="white"/>
<path d="M0 104V152H256V104H0ZM104 0V256H152V0H104Z" fill="#C8102E"/>
<path d="M477 217.4C476.8 278.3 467 343.8 387.7 375C308.4 343.8 298.7 278.3 298.5 217.4H477Z" fill="#128BBF"/>
<path d="M387.701 375C423.701 360.9 446.001 337.8 458.901 313.2C456.389 312.508 453.745 312.439 451.201 313C449.201 312.9 374.501 307.4 365.701 304.2C358.001 301.4 328.901 306.5 315.301 311.4C328.001 337.6 350.001 360.2 387.701 375Z" fill="#E8ECE9"/>
<path d="M332.301 337.3C333.746 336.97 335.242 336.936 336.701 337.2C337.701 337.4 338.001 337.5 338.401 336.3C338.801 335.1 339.601 335.4 340.401 336C341.001 336.6 342.801 336.3 343.401 335.3C344.001 334.433 344.534 334.4 345.001 335.2C345.701 335.8 346.001 335.6 346.701 335.4C347.401 335.3 348.501 334.4 349.101 333.4C349.767 332.333 350.434 332.033 351.101 332.5C351.501 333.166 352.034 333.433 352.701 333.3C353.367 333.3 353.634 333.8 353.501 334.8C353.401 335.6 353.801 335.8 355.501 334.5C356.901 335.9 357.401 335.3 357.401 333.8C357.401 332.3 357.001 326.5 356.401 325.8C355.801 325.1 355.301 322.8 355.201 321C355.001 317.7 355.001 317.5 351.001 315.5C351.001 314.3 350.701 313.9 347.801 314C347.901 313.7 347.401 312.5 346.801 312C346.201 311.5 346.201 311.3 346.501 310C347.601 310 348.901 309.9 349.501 309C350.301 308 352.501 308.1 353.901 308.7C355.234 309.3 357.134 309.4 359.601 309C360.734 308.2 362.201 307.333 364.001 306.4C365.801 305.4 366.301 305 366.401 303.7C366.601 300.2 365.401 296.2 364.401 294.4C363.401 292.6 363.201 290.2 361.801 287.4C360.301 284.2 360.301 283.4 358.701 281.4C358.167 281 357.801 280.333 357.601 279.4C357.501 278.4 357.101 276.9 355.901 275.8C352.901 273.1 351.901 264.5 350.701 258.1C350.001 254.4 350.501 245.8 348.901 244.4C346.301 242.4 345.001 242.7 343.301 242C342.001 240.3 341.401 236.8 340.301 233.7C338.301 234 337.101 235.9 335.801 236.6C334.501 237.3 334.401 237.3 334.401 239C334.401 240.866 333.467 243.166 331.601 245.9C329.901 248.6 327.001 247.9 324.601 251.9C319.201 245.4 319.101 243.6 318.601 241.7C318.301 239.9 317.401 239.5 314.401 236.9C314.401 236.1 314.001 233 314.301 231.3C312.001 229.4 310.301 229.7 309.301 231.1C308.301 232.4 307.501 234.5 305.801 235.2C304.801 236.5 301.801 239.7 299.301 243.4C301.601 277.1 309.301 310.6 332.301 337.4V337.3Z" fill="#69522B"/>
<path d="M477 217.4C477 194.5 475.7 172.3 476.3 152.8C446.6 139.6 407.6 136.9 387.7 136.9C367.8 136.9 328.8 139.6 299.2 152.8C299.8 172.3 298.5 194.5 298.5 217.4H477Z" fill="#BCA76B"/>
<path d="M303.4 244C304.657 245.702 305.636 247.592 306.3 249.6C307 248.2 307.5 247.6 307.7 246.7C307.9 245.8 308.8 244.2 308.4 243.2C308 242.2 307.7 241.6 308.8 242.2C309.8 242.9 309.7 244.2 309.5 245.9C308.8 250.6 306.8 251.6 306.5 254.8C309.5 261.5 307.3 263.9 310.4 270.5C310.9 270.8 312.2 270.3 312.6 270.4C314.2 269.2 315.5 269.6 317.8 270.1C320.1 270.6 321.4 272.2 321.4 273.7C321.4 275.1 321.4 275.5 321.9 276.4C322.4 277.3 323.4 278.6 323.2 279.6C323.134 280.533 323.267 281.2 323.6 281.6C323.9 282.1 323.6 283.2 323.3 283.8C322.9 284.467 323.234 285.467 324.3 286.8C325.4 288.3 328.1 294.4 328.1 298C328.1 301.6 328.3 303.2 329.8 303.9C331.3 304.6 331.8 305.1 331.5 306.7C331.4 308.2 332.2 316.3 332.5 317.5C332.6 318.8 333.1 318.5 333.7 319.2C334.3 319.9 334.7 320.6 336.7 320.6H341.7C343.324 322.898 344.417 325.528 344.9 328.3C345.3 330.3 345.3 333.1 345.9 333.1C346.7 333.1 347.4 333.2 347.2 330.7C347 328.2 346.8 327.8 345.9 326.5C344.9 325.433 344.6 324.567 345 323.9C345.5 323.2 345.6 321.9 345.4 320.9C345.2 319.9 344.9 318.5 346.6 320.4L349.2 323.5C349.734 324.367 349.934 325.4 349.8 326.6C349.667 327.8 349.934 328.167 350.6 327.7C351.3 327.1 352.1 328.1 351.7 329.3C351.3 330.567 351.734 331.4 353 331.8C354.2 332.2 354.7 332.4 355 333.3C355.3 334.2 356.2 334.6 356.2 332.8C356.2 331.1 355.5 327.4 355.1 326.2C354.7 325 354.1 322.6 354.1 321.2C354.034 319.867 353.7 319.133 353.1 319C352.234 318.667 351.734 318.167 351.6 317.5C351.467 316.833 351.134 316.533 350.6 316.6C350.067 316.6 349.667 316.333 349.4 315.8C349.267 315.4 348.934 315.2 348.4 315.2C348 315.2 347.2 315.5 347 314.7C346.7 313.9 346.4 312.7 345.9 312.2C345.4 311.5 344.9 311.3 344.9 309.2C344.9 307 344.9 306.7 344.1 305.9C343.4 305.1 342.3 303.1 341.8 302.2C341.3 301.4 340.8 300.5 340.8 302.3C340.8 304.1 340.8 305.1 342 305.8C343.2 306.5 343.4 306.5 343 307.5C342.5 308.5 343 309.1 343.2 309.8C343.3 310.5 343.7 311.1 343.2 311.8C342.534 312.467 342.167 312.267 342.1 311.2C342.138 310.08 341.861 308.971 341.3 308C340.834 307.067 340.334 306.733 339.8 307C339.3 307.6 338.8 307 339.2 306.6C339.467 306.2 339.467 305.867 339.2 305.6C338.934 305.333 338.934 304.967 339.2 304.5C339.7 303.9 339.7 303.5 339.4 302.2C339.1 300.9 337 294.2 336 292.6C335 291 335.2 289.8 336.4 291.4C337.8 292.933 338.634 294.333 338.9 295.6C338.967 296.8 339.2 297.633 339.6 298.1C340 298.633 340.334 298.367 340.6 297.3C340.7 296.3 341.5 296.6 340.1 294.6C338.7 292.6 336.2 289.2 335.3 283.1C334.3 277 333.9 272.9 332.9 271.3C331.9 269.7 331.6 269.3 331.5 267.7C331.567 266.033 331.367 264.6 330.9 263.4C330.2 262.3 329.7 262.1 329.6 263.8C329.5 265.5 329.7 269.4 330.2 270.1C330.7 270.8 330.4 272.5 330.2 273.5C330.2 274.5 328.6 275.5 331.8 277.4C333.1 278.1 332.9 279.2 332.8 279.9C332.6 280.633 332.2 280.467 331.6 279.4C330.934 278.333 330.267 277.5 329.6 276.9C328.9 276.3 328.8 275.9 328.9 274.6C329 273.2 329.3 272.2 328.9 271.7C328.5 271.367 328.234 271.6 328.1 272.4C327.9 273.2 327.7 275.4 327.4 275.9C327.067 276.5 326.734 276.167 326.4 274.9C326.265 273.021 326.573 271.137 327.3 269.4C328.034 267.267 328.167 264.8 327.7 262C327.2 259 327.5 258.2 325.2 255.8C322.9 253.4 320.4 251 319.4 248C318.3 245 318.1 242.4 316.9 241C315.802 239.627 314.484 238.444 313 237.5V233C313 231.933 312.434 231.433 311.3 231.5C310.167 231.767 309.2 232.667 308.4 234.2C307.7 235.6 307.1 235 306 237.5C304.9 240 303.4 241.3 303.4 244Z" fill="#CFA763"/>
<path d="M310.4 272.3C311.066 272.9 311.966 273 313.1 272.6C314.3 272 315.6 270.3 317.2 271.9C318.749 273.712 319.6 276.017 319.6 278.4C319.6 280.6 319.6 284.5 322.1 286.8C324.5 288.934 325.766 291.4 325.9 294.2C325.9 297.2 327.1 301.6 327.4 302.7C327.733 304.034 328.3 305.134 329.1 306C329.9 306.8 330.5 309 330.6 311.3C330.6 313.7 330.3 315.3 330.6 316.5C330.9 317.6 330.6 318.6 329.6 318C328.8 317.4 328.6 317.1 328.1 316.2C327.6 315.3 327.1 315.4 327.5 316.9C328 318.3 329.5 319.7 330.8 319.7C332.1 319.7 332.4 319.9 333.2 320.7C334 321.4 334.1 321.7 335.4 321.7C336.391 321.66 337.379 321.83 338.3 322.2C339.5 322.6 339.5 322.4 340.3 322.2C340.966 322.067 341.566 322.6 342.1 323.8C342.6 325.1 343.7 328.6 343.7 329.5C343.566 330.5 343.8 331.5 344.4 332.5C345.3 334 344.9 334.4 344.1 333.8C343.3 333.2 343.3 333.4 342.8 333.5C342.266 333.567 341.666 333.334 341 332.8C340.2 332.3 340.7 332.4 340 331.3C339.2 329.967 338.766 329.734 338.7 330.6C338.7 331.5 338.6 332.6 338 332.1C337.4 331.6 337.1 331.6 336.6 332.1C336.1 332.6 335.9 332.9 335.4 332C334.9 331.1 334.1 331 333.5 330.8C332.9 330.6 332.9 330.6 332.6 329.8C332.2 328.934 331.533 328.567 330.6 328.7C329.933 328.7 329.533 328.367 329.4 327.7C329.2 327.1 328.866 326.667 328.4 326.4C328 326.2 328.2 325.4 328.1 324.8C328 324.2 327.5 324.4 327.1 324.2C326.7 324 326.4 324.2 326.4 323.2C326.4 322.2 326 321.9 325.7 321.2C325.5 320.534 325.566 319.834 325.9 319.1C326.4 318 325.9 317.8 325.4 317.1C324.9 316.4 325.4 315.8 323.7 314.4C322.2 313.1 321.4 314.2 320.9 311.1C320.4 307.9 319.5 301.3 318.6 300.2C317.8 299.134 317 298.434 316.2 298.1C315.4 297.8 314.8 298 314.7 296.1C314.6 294.2 314 292 312.8 290.8L310.6 288.8C309.933 288.334 309.933 287.334 310.6 285.8C311.4 284.1 311.1 281.9 311 280.8C310.8 279.667 310.733 278.5 310.8 277.3C310.95 276.165 310.882 275.011 310.6 273.9C310.3 273.1 309.9 272.9 310.4 272.3Z" fill="#CFA763"/>
<path d="M340 325.3C339.4 326.4 338.8 326.1 338.2 325.5C337.6 324.9 336.9 324.9 337.2 323.8C337.5 322.8 337.4 322.6 336.6 322L336.3 321.8H335.4C334.1 321.8 334 321.4 333.2 320.6L332.7 320.2V320.9C332.7 321.9 332.7 321.8 331.7 322.1C330.6 322.4 330.7 321.1 330.6 320.1L330.4 319.6C329.2 319.4 328 318.2 327.5 316.9C327.1 315.4 327.6 315.2 328.1 316.2C328.6 317.2 328.8 317.4 329.7 318C330.6 318.6 330.9 317.6 330.6 316.5L330.5 315.2C330.306 314.81 329.99 314.494 329.6 314.3C328 313.7 328.6 313.5 328.6 312.3C328.733 311.1 328.367 310.867 327.5 311.6C326.633 312.267 326.267 311.6 326.4 309.6C326.6 306.6 325.1 307.6 324.8 309C324.5 310.4 324 309.5 323.5 307.6C322.9 305.6 322.1 305.1 322 307C322 308.6 321.5 308.933 320.5 308L320.9 311C321.4 314.2 322.2 313 323.7 314.4C325.3 315.8 324.8 316.4 325.4 317.1C326 317.767 326.167 318.433 325.9 319.1C325.567 319.833 325.5 320.533 325.7 321.2C326 321.9 326.4 322.2 326.4 323.2C326.4 324.2 326.7 324 327.1 324.2L327.8 324.4L328.6 323.4C329.8 322.2 331.6 323.4 332.1 324.9C332.7 326.367 333.433 326.6 334.3 325.6C335.2 324.4 334.9 324.6 335.8 325.6C336.8 326.7 337.2 326.6 337.2 326.6C337.2 326.6 338.2 326.2 338.9 326.7C339.6 327.2 339.9 327.2 341.2 325.4C342.5 323.6 340.6 324.1 340 325.3Z" fill="#D7C99C"/>
<path d="M341 338.8C344.198 338.333 347.324 337.459 350.3 336.2C351.915 337.386 353.752 338.236 355.7 338.7C353.5 339.1 352.067 339.034 351.4 338.5C351.7 339.2 352.5 340.3 353 340.4C350.9 340.3 348.4 339.8 347.6 339C345.8 339.8 342.6 340 340.9 338.8H341ZM345.1 341.8L350.6 342.7C349.2 343.8 350.4 344.9 352.7 344.7C351.6 344.9 350.4 345.3 351.2 345.5C353.2 345.9 358.6 344.4 359.7 343.8C357.8 346.2 348.8 348.4 345.1 341.8ZM348.8 347.6C349.9 347.1 352.8 347.3 354 347.9C352.6 348.4 349.7 348.4 348.8 347.6Z" fill="#7FB8C1"/>
<path d="M353 347.5C355 347.2 360.7 348.5 362.7 347.4C362 349.1 358.4 349.4 357.2 349C355.933 348.467 354.867 348.2 354 348.2C354.4 347.9 353.7 347.9 353 347.5ZM355 350.3C356.6 350.5 362 349.9 363.6 349.3C365.4 349.8 368.9 350.7 369.6 350.6C368 351.6 364.8 351.1 363.8 350.6C360.8 351.6 358.5 351.9 355.1 350.3H355Z" fill="#7FB8C1"/>
<path d="M357.601 351.201C359.667 351.601 361.734 351.401 363.801 350.601C364.401 350.901 366.001 351.301 367.501 351.201C368.567 351.867 369.767 352.334 371.101 352.601C369.701 353.201 364.901 352.601 363.901 352.101C361.298 352.042 358.711 352.518 356.301 353.501C356.327 353.043 356.459 352.598 356.684 352.2C356.909 351.801 357.223 351.459 357.601 351.201ZM355.101 340.201C356.701 340.801 362.901 340.601 366.001 339.201C367.201 338.501 368.001 339.501 366.601 340.001C361.501 341.701 357.501 342.401 354.601 340.901C353.401 340.301 353.301 339.701 355.101 340.301V340.201ZM385.001 332.101C381.5 334 377.623 335.102 373.646 335.327C369.67 335.551 365.693 334.894 362.001 333.401C361.101 333.101 360.401 333.401 361.501 334.101C362.501 334.801 368.301 336.301 369.701 336.401C371.101 336.501 370.601 337.101 369.701 337.401C368.901 337.601 368.701 338.201 369.701 337.801C370.901 337.301 377.201 337.201 379.701 338.501C380.767 339.034 381.201 339.034 381.001 338.501C381.001 338.101 381.467 337.834 382.401 337.701C383.201 337.701 383.701 337.301 383.001 337.101C382.334 336.834 382.267 336.634 382.801 336.501C383.334 336.234 383.267 336.001 382.601 335.801C381.901 335.701 381.401 335.501 382.101 335.201C382.901 334.801 383.734 334.567 384.601 334.501C384.801 333.901 384.401 332.501 385.001 332.101Z" fill="#7FB8C1"/>
<path d="M372.5 333.001C376.8 333.201 384.7 331.301 388.9 327.201C390.4 328.101 392.4 329.101 393.5 329.201C394.6 329.301 395.5 330.401 393.9 330.401C392.3 330.401 389.9 329.701 388.9 329.201C384.002 332.181 378.329 333.643 372.6 333.401C371.4 333.401 371.2 332.801 372.6 332.901L372.5 333.001ZM365.7 320.801C365.2 320.901 362.7 321.501 362 321.501C361.2 321.501 360.767 321.701 360.7 322.101C360.7 322.601 360.9 322.901 359.9 322.801C358.9 322.701 357.9 323.101 357.7 323.301C357.5 323.501 357.3 323.901 358.3 324.001C359.3 324.101 359.9 324.201 361.1 323.701C362.3 323.201 363.3 322.301 364.6 322.301C365.9 322.301 367.1 320.601 365.7 320.801Z" fill="#7FB8C1"/>
<path d="M362.201 323.8C364.8 325.096 367.612 325.909 370.501 326.2C372.401 326 372.001 326.9 370.501 327.2C367.501 327.8 364.001 326.6 361.501 324.6C360.301 323.6 361.401 323.3 362.201 323.8Z" fill="#7FB8C1"/>
<path d="M387.201 326.401C383.201 327.701 379.101 327.201 377.401 326.801C375.701 326.401 374.201 326.201 375.401 327.301C376.401 328.301 380.101 329.101 382.101 328.601C374.901 330.201 373.001 330.101 371.101 329.801C369.301 329.501 366.001 329.601 364.501 329.701C363.501 329.701 362.001 329.701 361.301 329.201C360.701 328.901 360.501 328.201 362.401 328.301C364.401 328.367 364.567 328.234 362.901 327.901C361.201 327.701 358.901 328.301 361.201 329.701C363.501 331.101 368.401 329.701 371.501 330.501C374.255 331.224 377.141 331.284 379.922 330.676C382.703 330.067 385.301 328.808 387.501 327.001C387.901 326.701 388.501 326.001 387.201 326.401ZM377.801 322.401C377.001 322.401 375.501 321.901 374.801 321.601C373.901 321.201 372.801 321.201 373.601 322.301C374.501 323.301 378.101 324.001 379.301 323.501C380.501 323.001 380.101 322.401 381.301 323.201C382.634 324.001 383.834 324.434 384.901 324.501C385.901 324.567 385.968 324.367 385.101 323.901C383.801 323.201 383.601 323.201 383.501 322.701C383.401 322.201 383.201 321.901 384.201 322.201C385.201 322.501 386.201 323.001 386.901 322.601C387.601 322.201 389.001 321.401 390.201 321.401L390.501 320.601C388.801 320.501 387.601 321.001 387.101 321.201C386.634 321.401 385.901 321.467 384.901 321.401C383.901 321.201 382.701 321.101 382.401 320.901C382.001 320.634 382.167 320.434 382.901 320.301C383.701 320.101 383.901 319.601 382.901 319.801C381.801 320.001 378.901 319.901 377.401 319.401C375.901 318.901 375.201 318.901 374.601 319.101C374.001 319.301 374.101 320.101 375.001 320.101C375.901 320.101 378.001 320.301 378.801 321.101C379.467 321.634 379.401 321.734 378.601 321.401C377.701 321.101 376.201 321.301 377.801 322.401ZM413.101 319.801C410.101 321.801 406.701 322.401 402.501 322.701C401.201 322.701 401.601 323.101 402.701 323.201C407.001 323.601 412.101 322.001 413.701 320.201C414.301 319.801 414.201 319.001 413.101 319.801ZM393.101 324.701C395.507 325.041 397.881 325.576 400.201 326.301C401.201 326.301 401.601 326.067 401.401 325.601C401.201 325.201 401.001 324.801 403.001 324.901H410.301C410.901 324.701 412.501 323.501 413.101 323.401C411.401 323.501 404.101 323.901 403.101 323.801C402.301 323.734 401.634 323.867 401.101 324.201C400.701 324.601 400.167 324.667 399.501 324.401C398.801 324.101 397.501 323.701 396.701 324.101C396.001 324.601 394.501 324.101 393.101 324.701Z" fill="#7FB8C1"/>
<path d="M410.3 325C410.9 324.7 412.5 323.5 413.1 323.4C414.4 323.4 415.9 323.9 416.6 324C417.2 324 418 324 417.5 323.4C417 322.8 417.5 321.9 419.5 322.2C421.5 322.4 422.5 322.8 424.5 322.6C426.4 322.4 427.2 323.8 430.9 322.4C430.6 323.8 431.3 323.9 432 323.6C432.667 323.2 433.533 323.434 434.6 324.3C435.8 325.2 442.9 325.3 444.6 325C446.3 324.7 447.1 325.6 445.9 326C444.7 326.4 444.267 326.834 444.6 327.3C444.9 327.7 445.2 328.2 443.6 328C442.1 327.8 441.8 328.3 441 328.9C440.2 329.4 440 329.6 437.9 329.2C435.7 328.9 435.3 329.2 434.2 329.3C433.308 329.515 432.374 329.481 431.5 329.2C429.824 328.643 428.029 328.539 426.3 328.9C424.7 329.3 423.5 329.9 422.2 329.4C420.8 329.1 420.7 329.2 421.6 328.4C422.5 327.6 422.6 327.6 424.3 327.4C426 327.2 427.3 326.7 426.1 326.1C424.9 325.5 424.5 325.5 422.9 326.2C421.4 327 420.6 327.5 418.9 326.5C417.2 325.5 416.2 325.8 415 326.1C413.8 326.4 412 325.7 410.3 324.9V325ZM416.1 327.8C413.9 328.2 413.3 326.8 410.9 327C410.2 327.1 408.9 328 410.7 328C412.5 327.8 414.4 328.8 416.2 328.6C417.9 328.5 417.2 327.7 416.2 327.8H416.1ZM413.5 329.5C414.7 329.1 417.1 329.9 418.2 329.7C419.2 329.5 420.2 330.2 419.1 330.5C418.1 330.8 415.4 329.9 414.3 330.2C413.1 330.6 411.9 330.2 413.5 329.5ZM390.2 335.8C391.8 335.8 397.6 335.6 399.9 330.8C400.033 330.334 400.4 330.3 401 330.7C401.7 331.2 404.4 332.7 409.4 333.2C410.8 333.3 412.4 334 409.5 333.8C406.7 333.7 402.2 332.8 400.7 332C398.2 336 393.7 336.4 390.2 336.3C388.2 336.3 388.7 335.7 390.2 335.8Z" fill="#7FB8C1"/>
<path d="M402.8 329.201C402 330.201 399.3 332.201 398.1 332.201C396.9 332.301 393.1 332.001 392.3 331.601C391.3 331.301 390.3 331.401 391.5 332.301C393.336 333.295 395.417 333.745 397.5 333.601C398.8 333.301 400.3 332.801 401.3 333.501C402.3 334.101 404.3 335.301 405.3 335.101C406.684 334.803 408.115 334.803 409.5 335.101C410.2 335.501 411.5 336.501 409.5 335.901C407.7 335.301 406.1 335.901 405.2 335.401C406.2 336.801 408.4 339.001 410.3 339.001C410.8 339.001 411 339.801 410.1 340.201C411.1 340.601 413.1 341.001 414.3 339.901C414.033 340.301 414.166 340.634 414.7 340.901C415.1 341.101 415.7 341.401 414.8 341.501C413.9 341.601 412 341.801 411.4 341.501C414.953 343.597 419.119 344.409 423.2 343.801C424.2 343.601 424.7 343.201 423.2 343.201C419.9 343.301 419.7 343.201 419.2 342.901C418.533 342.567 418.666 342.267 419.6 342.001C420.5 341.701 422.8 341.401 423.8 341.401C424.8 341.401 425.8 341.001 423.8 341.001C421.8 341.001 419.3 341.001 418.4 340.701C417.4 340.301 416.7 339.901 417.7 339.201C418.7 338.501 419.7 338.701 420.3 338.201C417 338.101 413.1 336.401 415.3 334.801C415.766 334.534 415.6 334.367 414.8 334.301C413.302 334.12 411.847 333.68 410.5 333.001C409.5 332.401 410.2 332.001 411 331.801C408.05 331.89 405.159 330.973 402.8 329.201ZM431.4 329.101C429.429 330.262 427.187 330.883 424.9 330.901C423.5 331.034 423.333 331.267 424.4 331.601C425.666 331.801 426.6 331.834 427.2 331.701C427.6 331.501 428.1 331.567 428.7 331.901C429.633 332.301 430.866 332.301 432.4 331.901C433.8 331.501 436 331.301 436.9 331.401C437.9 331.401 438.9 331.401 437 330.901C435.152 330.523 433.247 330.523 431.4 330.901C430.7 331.201 428.7 331.001 429.8 330.701C430.866 330.301 431.7 329.867 432.3 329.401L431.4 329.101ZM430.4 332.901C428.701 334.229 426.649 335.029 424.5 335.201C426.5 335.901 428.3 338.001 429.5 337.901C428.9 338.301 428.2 338.901 427.3 338.901C429.096 339.167 430.93 338.815 432.5 337.901C435.5 338.701 439.2 338.201 440.5 337.101C438.6 337.101 436.3 336.501 435.3 335.601C435.723 335.583 436.138 335.476 436.517 335.286C436.897 335.097 437.231 334.829 437.5 334.501C435.3 334.901 431.5 333.801 430.5 332.901H430.4Z" fill="#7FB8C1"/>
<path d="M427.301 339C428.167 338.733 428.934 338.367 429.601 337.9C428.001 338.4 420.901 337.3 418.801 335.4C416.801 333.6 416.801 335 418.201 336.4C419.701 337.6 422.201 339.6 427.301 338.9V339ZM432.501 343.4C431.601 343.9 427.501 344.2 426.101 343.9C424.701 343.567 424.167 343.7 424.501 344.3C424.801 344.8 424.901 345.3 423.801 345.1C422.455 345.025 421.105 345.16 419.801 345.5C419.001 345.8 418.001 346.5 419.801 346.2C421.534 345.8 423.101 345.7 424.501 345.9C425.801 346.3 430.501 346.4 431.401 346C432.301 345.6 431.701 345.6 431.201 345.6C430.734 345.6 430.734 345.4 431.201 345C431.934 344.6 432.367 344.067 432.501 343.4ZM391.901 337.8C390.201 338.5 384.301 340.1 382.801 340.2C380.801 341.067 379.301 341.5 378.301 341.5C379.641 342.248 381.169 342.596 382.701 342.5C382.101 343 380.701 343.7 380.201 344C381.801 343.8 383.601 344.2 384.401 344.3C382.458 345.298 380.28 345.748 378.101 345.6C378.567 346.4 379.234 346.867 380.101 347C378.301 347.4 376.101 347.4 374.901 347C375.301 348 375.834 348.567 376.501 348.7C375.001 348.9 373.001 349.2 371.301 348.2C372.634 349.867 375.401 350.467 379.601 350C382.703 349.659 385.682 348.598 388.301 346.9C386.601 347.1 384.301 347.2 383.001 346.9C385.919 346.13 388.713 344.952 391.301 343.4C390.234 343.4 389.367 343.133 388.701 342.6C391.27 342.644 393.831 342.307 396.301 341.6C395.011 341.315 393.851 340.612 393.001 339.6C398.315 341.095 403.92 341.232 409.301 340C410.101 339.8 410.201 338.8 408.601 339C405.901 339.1 400.601 338.3 399.201 337.7C400.601 338.633 401.934 339.2 403.201 339.4C401.311 339.942 399.327 340.079 397.38 339.804C395.433 339.528 393.566 338.845 391.901 337.8Z" fill="#7FB8C1"/>
<path d="M380.2 344.001C380.7 343.701 382.1 343.001 382.7 342.401C381.6 342.701 379 342.101 378.3 341.501C379.3 341.501 380.8 341.067 382.8 340.201C379.2 340.101 376.8 340.101 375.5 339.401C374.2 338.701 371.9 338.901 371.1 339.101C370.1 339.301 370.5 340.801 374.1 340.401C371.844 341.412 369.346 341.759 366.9 341.401C367.3 342.801 367.366 343.867 367.1 344.601C369.2 345.801 374.6 347.301 377.2 347.101C374.9 346.101 373.6 345.201 375.5 345.101C377.5 344.801 378.5 344.401 380.2 344.001ZM374.2 350.301C378.8 349.901 385.1 349.801 390.1 345.601C391.3 344.601 392.1 344.901 390.9 346.001C386.47 349.418 381.089 351.374 375.5 351.601C373 351.601 371.8 350.401 374.2 350.301ZM409.2 342.601C408 343.001 404.7 343.601 403.7 343.401C402.7 343.201 401.3 343.201 400.6 343.701C399.733 344.234 399.8 344.534 400.8 344.601C401.8 344.601 403.2 344.801 403.9 344.701C403.033 345.301 402.5 345.801 402.3 346.201C403.8 345.801 406.7 346.501 407.5 347.001C406.833 347.201 406.2 347.067 405.6 346.601C408.3 349.401 416.1 349.401 417.3 348.901C416.766 349.367 416.2 349.701 415.6 349.901C417.8 350.301 420.4 350.301 422.8 348.801C422 348.901 419.5 348.801 418.9 348.701C419.434 348.162 420.083 347.751 420.8 347.501C419.8 347.401 416.8 347.501 416 347.801C416.3 347.301 416.8 346.501 417.4 346.301C413.968 346.536 410.521 346.198 407.2 345.301C409.9 345.601 412.9 344.001 414.2 344.001C412.1 344.001 409.7 343.501 409.2 342.601ZM399.3 344.701C397.426 345.083 395.586 345.618 393.8 346.301C393 346.801 392.2 347.001 393.8 347.001L394.5 346.901C393.8 346.901 393 346.901 394.3 346.401C395.5 345.867 397.166 345.301 399.3 344.701ZM395.5 349.201C396.2 349.201 399.1 349.201 400.3 348.201C401.5 349.201 403.9 350.401 405.3 350.401C406.833 350.467 406.866 350.667 405.4 351.001C404.1 351.101 401.5 350.401 400.2 349.401C398.5 350.001 397 349.401 395.5 349.201ZM372.9 362.201C375.9 363.401 379.9 364.201 382.9 363.301C384.5 364.801 387.9 364.901 389.8 364.501C391.597 363.987 393.502 363.987 395.3 364.501C397.3 365.301 401.6 365.301 402.8 366.301L398.8 366.401C398.333 366.601 398.6 366.934 399.6 367.401C396.3 367.201 390.6 368.601 388.8 370.101C389.295 369.017 390.102 368.106 391.117 367.483C392.132 366.859 393.309 366.552 394.5 366.601C392.7 366.001 387.1 365.901 385.3 367.101C384.773 366.519 384.365 365.839 384.1 365.101C381.1 366.801 375.2 364.401 372.9 362.301V362.201ZM365.1 356.801C368.766 356.201 371.166 355.301 372.3 354.101C372.9 354.701 375.5 355.301 378.4 354.401C377.866 355.067 377.733 355.634 378 356.101C375.696 356.279 373.435 356.819 371.3 357.701C370.1 358.301 366.5 358.701 365.3 358.101C364.166 357.434 364.1 357.001 365.1 356.801Z" fill="#7FB8C1"/>
<path d="M378.001 356.1C375.697 356.278 373.436 356.818 371.301 357.7L371.701 359.5C376.478 358.156 381.451 357.648 386.401 358C384.901 358 382.101 359.5 380.601 359.7C383.425 359.556 386.255 359.825 389.001 360.5C390.001 360.833 390.167 361.367 389.501 362.1C388.801 362.8 388.501 362.9 390.001 362.9C391.501 362.9 394.801 362.8 396.201 361.4C395.601 360.8 394.201 361 393.701 360.6C394.701 360.2 395.901 359.5 396.301 359C394.794 359.07 393.285 358.969 391.801 358.7C390.901 358.5 390.301 358.2 391.401 357.7C392.334 357.1 392.967 356.6 393.301 356.2C391.301 356.7 388.401 357.2 385.901 355.2C387.232 355.435 388.599 355.366 389.901 355C389.212 354.548 388.422 354.273 387.601 354.2C389.601 353.2 393.601 352.4 398.501 354.3C400.901 354.1 403.501 354.3 405.401 354.7C406.201 353.9 407.801 352.1 408.701 351.7C402.901 352.1 392.701 351 392.801 348C390.901 350.4 386.701 351.8 384.801 351.4C384.601 352.3 385.401 353.4 386.101 353.9C384.101 354.3 380.801 354.6 379.201 354.3C380.201 355.2 381.801 356 382.801 355.9C380.801 355.9 379.601 356.3 378.001 356.1Z" fill="#7FB8C1"/>
<path d="M390 363C391.5 363 394.8 362.8 396.2 361.4C395.6 360.8 394.2 361 393.7 360.6C394.7 360.2 395.9 359.5 396.3 359C400.4 358.6 404.1 358.8 405.8 358.3C407.5 357.8 412.1 358.1 412.9 357.8C409 358.4 408.3 358.8 408.1 359.4C407.9 360 409.3 360.6 410.3 360.6C408.5 360.5 406.3 362.3 406.1 363C403.8 361.7 402.7 363.3 402.4 363.8C401.4 363.4 398.2 363.5 396.6 364.9C394.4 364.3 393 363.9 390.9 364.3C392.2 364 391.9 363.1 389.9 362.9L390 363ZM408.7 351.6H413.9C413.2 351.9 412.4 352.6 412.2 352.8C415.5 352.4 420 352.2 421.3 352.4C419.7 352.1 418.1 353.2 417.3 353.7C416.566 354.234 416.8 354.567 418 354.7C419.1 354.9 420.7 355.7 418.6 355.4C416.6 355.1 412.6 355.1 411.6 355.3C410.6 355.5 410 355 411.4 354.8C412.733 354.534 413.766 354.167 414.5 353.7C413.3 354 411.1 354 410.5 353.7C409.7 353.6 409.3 353.2 410.1 353C410.9 352.8 410.3 352.5 409.5 352.6C408.7 352.7 406.5 353.6 405.4 354.7C406.733 353.3 407.833 352.3 408.7 351.7V351.6ZM393.8 353.8C394.596 354.766 395.608 355.532 396.754 356.036C397.901 356.539 399.149 356.767 400.4 356.7C401 356.7 402.2 357.6 400.7 357.7C396.6 357.7 394.5 356.7 392.7 354.2C392.3 353.6 393 352.9 393.8 353.8ZM445.8 331.8C444.6 332.6 443 334 444.1 336.1L444.4 335.9C449.081 330.297 453.232 324.271 456.8 317.9V317.2C455.51 318.31 454.06 319.221 452.5 319.9C453.1 321.4 450.4 323.4 448.9 324C449.5 325 449.3 326.4 448 326.7C448.3 327.6 447.3 327.6 446.2 328.1C445.066 328.567 444.333 329.034 444 329.5C444.666 329.1 445.333 328.967 446 329.1C446.5 329.2 446.6 329.9 445.7 330.1C445.036 330.232 444.437 330.585 444 331.1C445.2 330.7 447 330.9 445.8 331.8ZM359.8 309.7C361.3 310.7 363.8 312.4 367.2 312.2C368.9 313.5 371.5 314.6 372.7 314.8C370.4 315.8 368 316.5 367.3 317.2C366.3 316.2 365 316.4 364.7 315.9C363.766 316.634 363.7 317.2 364.5 317.6C365.1 318 370 318.8 371.2 318.5C372.5 318.1 372.8 319.1 371.8 319.5C369.2 320.4 364 319.5 362.3 316.7C360.6 313.9 359 312.8 354.3 315.4C353.7 314 353.7 313.7 352.8 313.7C351.9 313.7 350.1 312.5 351.4 312.5C352.8 312.6 356.7 312 359.8 309.7Z" fill="#7FB8C1"/>
<path d="M361.001 316C360.201 316.1 357.901 317.4 357.001 317.5C356.201 317.5 354.801 318.7 356.301 318.8C357.801 318.8 359.701 317.2 360.801 317.1C361.801 316.9 362.001 315.7 361.001 315.9V316ZM367.401 320.5V321.8C367.201 322.2 367.201 322.6 367.901 322.1C368.434 321.434 368.967 321.2 369.501 321.4C370.201 321.7 371.801 321.7 372.501 321.6C373.201 321.5 373.501 321.4 372.501 320.9C371.611 320.544 370.658 320.374 369.701 320.4C369.034 320.4 368.434 320.3 367.901 320.1C367.367 319.9 367.201 320.034 367.401 320.5ZM390.501 320.6L390.201 321.4C392.001 321.4 396.401 321.7 397.801 322.6C399.201 321.6 398.901 321.2 399.901 321.4C400.901 321.6 402.101 321.9 402.701 321.6C403.167 321.4 403.667 321.367 404.201 321.5C405.067 321.634 405.934 321.434 406.801 320.9C407.724 320.371 408.744 320.031 409.801 319.9C410.801 319.9 411.801 319.7 410.201 319.5C408.55 319.353 406.887 319.523 405.301 320C404.501 320.3 402.001 320.5 400.601 320.5C399.201 320.5 397.101 321.2 395.401 320.8C393.801 320.3 391.401 320.6 390.501 320.6ZM418.301 320C420.401 321 424.701 321.8 428.101 321.7C428.701 321.7 429.901 322.3 428.401 322.4C424.601 322.8 421.134 322.134 418.001 320.4C417.101 320 417.401 319.6 418.301 320ZM420.501 320C423.901 319.734 426.167 320 427.301 320.8C429.201 320.2 432.601 319.9 433.301 320.1C434.201 320.2 435.001 319.9 433.301 319.4C430.859 318.961 428.369 318.86 425.901 319.1C424.601 319.3 420.501 319.5 419.101 319.3C419.701 319.3 420.167 319.5 420.501 319.9V320ZM433.301 321.2C434.901 320.4 439.301 321.2 440.701 320.6C439.701 321.7 443.901 321.8 447.401 320.9C446.101 321.8 443.101 321.9 441.901 322.5C440.601 323 439.901 322.6 438.901 322.2C437.901 321.8 435.501 320.9 433.301 321.2Z" fill="#7FB8C1"/>
<path d="M447.401 321C443.901 321.8 439.801 321.7 440.701 320.6C439.401 321.2 434.901 320.4 433.301 321.2C434.901 320.2 436.201 321 437.301 319C438.101 319.2 439.801 319.3 440.301 318.5C441.301 318.7 443.201 319.2 443.701 319.7C444.201 320.2 445.101 319.6 444.401 318.7C446.001 318.2 445.001 319.4 448.701 318.5L452.101 317.9C450.662 319.087 449.083 320.095 447.401 320.9V321Z" fill="#7FB8C1"/>
<path d="M477 217.4C476.8 278.3 467 343.8 387.7 375C308.4 343.8 298.7 278.3 298.5 217.4H477Z" stroke="black" stroke-width="1.8"/>
<path d="M333.9 244.8C332.62 246.539 331.066 248.058 329.3 249.3C327.5 250.5 325.1 251.5 326.5 253.8C327.7 255.9 328.8 256.2 329.1 257.8C329.167 259.6 329.833 260.8 331.1 261.4C332.3 261.7 332.8 261.4 332.8 264.2C332.8 267 332.8 267.9 334 268.9C335.2 269.9 335 271.1 335.5 273.4C336 275.9 336 281.2 337.7 284.9C339.2 288.5 342.7 295.3 342.3 296.7C341.9 298.1 341.4 299.1 343 300.8C344.5 302.5 345.6 305 345.6 306.4C345.8 307.8 346.1 308.4 347.6 307.8C349.2 307.3 349.9 306.8 350.5 306.1C351.033 305.5 352.033 305.6 353.5 306.4C355 307.2 357.1 307.9 358.5 307.2C359.7 306.3 360.3 305.2 361.5 305.2C363.3 304 364 301.2 364.4 300.5C364.8 299.8 364.6 299.7 363.8 298.9C363 298.1 363.4 296.8 363.2 295.5C363.2 294.3 362.5 292.3 361.1 289.5C359.4 286.7 358.6 283.2 357.5 282.3C356.5 281.3 356 279.1 355.9 278.1C355.8 277.1 354.5 276.1 353.7 275.5C353 274.5 352.2 273.5 351.3 268.9C350.3 264.4 349.7 261.2 349.7 260.4C349.833 259.733 349.5 259.4 348.7 259.4C348.1 259 347.7 257.7 347.9 257.1C348.2 256.4 347.6 255.8 347.3 255.1C347.095 254.06 347.31 252.981 347.9 252.1C348.4 251.2 348.3 249.1 347.8 247.3C347.3 245.5 346.8 243.9 344.7 243.7C342.6 243.5 342.1 242.8 341.4 241.2C340.662 239.449 340.061 237.644 339.6 235.8C339.3 235.3 338.9 235.1 337.4 236.5C335.8 237.7 335.4 238.2 335.4 240.5C335.4 242.1 335.5 242.6 336 243.5C336.6 244.5 336.7 244.7 337.1 247.1C337.5 249.5 339.7 253.4 336.9 255.6C333.9 257.9 334.3 258.3 334.5 259.9C334.6 261.5 333.7 262.5 333.2 260.3C332.7 258.1 333.2 256.8 334.8 255.8C336.3 254.8 337.8 253.5 336.7 252.1C335.741 250.132 335.197 247.987 335.1 245.8C335.1 244.067 334.7 243.733 333.9 244.8Z" fill="#CFA763"/>
<path d="M310.699 277.7L310.899 280.8C310.999 281.9 311.299 284.2 310.599 285.8C309.599 287.5 309.999 288.3 310.599 288.8C312.199 288.4 312.399 286.6 311.999 285.8C311.599 284.733 311.666 283.733 312.199 282.8C312.733 282 312.733 281.333 312.199 280.8C311.799 280.1 311.799 280.1 312.399 278.3C312.799 276.7 311.699 276.7 310.699 277.7ZM327.299 302.8C326.999 301.5 325.899 297.2 325.799 294.2C325.799 291.4 324.566 288.933 322.099 286.8C320.099 285 319.699 282.3 319.599 280.1C318.199 279.233 317.599 279.567 317.799 281.1C317.799 283 319.499 283.8 319.399 286.3C319.099 288.8 319.099 288.2 320.299 289.4C321.499 290.6 322.099 291.8 321.299 292.4C320.633 293.067 320.699 293.633 321.499 294.1C322.499 294.4 322.499 295.4 322.499 296.3C322.199 297.2 323.099 297.3 323.699 298.1C324.099 298.7 324.199 300.2 323.699 301.1C323.199 302 323.099 303.4 323.999 302.6C324.999 301.9 325.399 302.6 325.999 303.8C326.599 304.8 327.199 304.5 327.799 304.2L327.299 302.7V302.8ZM319.699 249C318.699 249 318.099 249.9 318.699 252.9C318.999 254.7 317.599 254.2 316.999 253.3C316.599 252.4 316.099 250.5 315.199 248.8C314.099 247.1 314.599 250 314.399 251.5C314.399 253 315.399 253 316.199 254.4C317.199 255.6 316.399 256.2 315.299 256.2C314.299 256.2 314.899 258.2 315.199 259.7C315.499 261.2 314.899 261.4 314.099 260.2C313.299 259 313.799 257.2 313.999 255C313.999 252.9 314.299 253.3 312.799 252.9C311.399 252.3 311.599 251.9 312.099 250.7C312.599 249.5 313.099 248.8 312.599 248.2C311.799 247.6 311.933 247.2 312.999 247C313.999 246.9 313.699 246.1 314.599 245.9C315.499 245.7 315.899 245.9 316.099 244.3C316.099 242.9 316.599 242 317.699 242.5C318.299 244.6 319.099 247.9 319.699 249ZM343.499 272.1C343.799 269.4 343.499 266.5 344.699 265.5C345.899 264.5 347.399 262.4 347.299 266.8C347.199 271.2 346.999 270.8 346.099 272C345.099 273 344.399 273.2 345.299 275C346.199 276.5 346.299 276.7 346.199 279.3C346.099 281.9 346.099 282.9 347.099 284.2C348.099 285.5 348.399 285.6 348.699 287C349.038 288.653 349.835 290.178 350.999 291.4C352.199 292.4 353.499 295.4 353.599 297.5C353.699 299.6 355.599 300 357.199 301.5C358.999 302.9 356.799 304 355.599 303.3C354.199 302.6 354.799 303.3 353.999 304.1C353.399 305.233 352.833 305.1 352.299 303.7C351.599 302.1 349.499 301 348.399 300.7C347.399 300.3 346.399 298.7 345.599 297C345.233 296.275 344.695 295.65 344.033 295.18C343.371 294.71 342.604 294.407 341.799 294.3C342.199 295.5 342.366 296.3 342.299 296.7C341.899 298.1 341.399 299.1 342.999 300.8C344.499 302.5 345.599 305 345.599 306.4C345.799 307.8 346.099 308.4 347.599 307.8C349.199 307.3 349.899 306.8 350.499 306.1C351.033 305.5 352.033 305.6 353.499 306.4C354.999 307.2 357.099 307.9 358.499 307.2C359.699 306.3 360.299 305.2 361.499 305.2C363.299 304 363.999 301.2 364.399 300.5C364.799 299.8 364.599 299.7 363.799 298.9C362.999 298.1 363.399 296.8 363.199 295.5C363.199 294.3 362.499 292.3 361.099 289.5C359.399 286.7 358.599 283.2 357.499 282.3C356.499 281.3 355.999 279.1 355.899 278.1C355.799 277.1 354.499 276.1 353.699 275.5C352.999 274.5 352.199 273.5 351.299 268.9L349.799 261.3C348.799 262.767 348.199 263.067 347.999 262.2C347.533 260.8 346.999 260.467 346.399 261.2C345.899 261.8 345.799 260.4 345.799 259.8C345.799 259.2 345.799 259 344.999 259C344.399 259 344.999 258 344.699 256C344.399 254.1 343.999 253.8 343.699 256.2C343.499 258.5 342.099 259.9 342.699 260.4C343.166 260.933 343.066 261.967 342.399 263.5C342.041 264.652 342.112 265.896 342.599 267C342.999 268 342.299 270 342.099 271.7C341.799 273.3 343.099 275 343.499 272.1ZM332.699 264.1C332.699 266.8 332.699 267.9 333.999 268.9C335.099 269.9 334.999 270.9 335.499 273.4C335.999 275.9 335.999 281.2 337.699 284.9L339.499 288.7C340.299 288 340.999 286.9 341.199 286.2C341.699 285.3 340.499 283.5 339.499 282C338.499 280.5 339.699 280 340.599 278C341.499 276 340.599 275.9 339.099 275.4C337.699 274.9 337.699 273.6 336.899 271.5C336.099 269.4 336.199 268.5 336.699 267.4C337.233 266.2 336.899 265.433 335.699 265.1C334.699 264.8 335.099 264.1 335.399 262.7C335.799 261.5 335.999 261.2 334.499 261.6C333.499 261.867 332.899 262.167 332.699 262.5V264.1Z" fill="#D7C99C"/>
<path d="M357.399 263.2L354.199 297.2M366.799 284C365.429 290.059 363.828 296.063 361.999 302M407.499 267.6C409.899 269.8 413.099 270.3 416.499 272M423.199 282.7L421.399 295.8M421.399 283.3L418.399 296.7M364.599 284.4C363.199 290.1 361.199 295.2 359.399 300.4" stroke="black" stroke-width="0.4"/>
<path d="M432.399 316.1H432.099L431.799 316.2H431.199L430.999 316.3H430.699L430.499 316.5V316.7L430.199 317L429.999 317.2L429.699 317.5V317.6L429.499 317.8L429.399 318C428.673 318.556 427.808 318.902 426.899 319C426.299 319.2 424.899 319.2 424.199 319C422.866 319.134 421.799 318.934 420.999 318.4C419.999 318.134 419.099 318.234 418.299 318.7C417.799 319 417.699 319.5 416.999 319.7C416.699 320.2 414.999 320.1 414.399 319.9C412.899 320 412.099 319.6 410.999 319.2C410.399 318.8 409.299 318.4 408.499 319.2C408.033 319.6 407.366 319.934 406.499 320.2C405.099 320.2 403.499 320.4 402.499 319.8C401.399 319.8 400.899 319.1 399.899 318.8C398.699 318.6 398.099 319.2 397.299 319.5C396.633 320.034 395.666 320.234 394.399 320.1C393.199 320 391.699 320.2 390.899 319.7C389.966 319.434 389.133 319.1 388.399 318.7C387.699 318.1 386.399 318.7 385.699 319C384.599 319.2 384.199 320 382.699 320L379.799 319C378.799 318.6 377.899 317.9 376.299 318C375.833 318.6 374.999 318.9 373.799 318.9C372.799 318.9 371.966 318.834 371.299 318.7C369.299 318.7 368.499 316.7 367.099 315.6L360.299 308.8C360.699 307.6 360.799 307.4 360.199 306.6C360.499 305.4 359.599 305.2 359.999 304C360.499 303.1 358.999 303.3 358.699 302.8L356.699 301.8C356.099 301.334 355.433 300.934 354.699 300.6L352.699 299.6L351.099 298.4L349.499 297.4L347.899 296.4L346.099 295.2C345.299 294.8 344.466 294.467 343.599 294.2C342.999 294.1 342.799 292.7 343.899 292.7C344.699 292.834 345.366 293.167 345.899 293.7C346.899 294.1 347.933 294.434 348.999 294.7L351.099 295.7L353.499 296.7L355.699 297.9L357.399 298.9L358.599 299.8C359.254 299.975 359.867 300.281 360.399 300.7C360.999 300.967 361.499 301.3 361.899 301.7C362.499 301.8 366.299 303.7 366.099 303.5C369.799 304.2 371.399 304.4 375.099 304.9L402.099 305.3L411.799 301.3L414.799 296.6L429.199 293.9C428.899 293.6 454.499 293 455.099 295.2C455.299 296.1 455.999 297.9 455.099 298.3C454.599 298.6 430.999 295.3 430.599 297.5C430.499 298.4 430.599 304.1 430.799 305L431.199 307.8L431.599 310.6L431.999 313.4L432.399 316.1Z" fill="#666666"/>
<path d="M359.2 279.8C354.934 284.667 350.5 288.9 345.9 292.5M383.1 259.7L397.1 247.5M376.8 271.7C379.7 273.7 382.8 275.4 387.1 276.5M374.9 253.3C376.6 256.1 378.7 258.8 384.8 260.3M370.8 225.7C368.44 228.625 365.426 230.954 362 232.5M375.9 242.7C377.9 244.7 380.7 245.8 383.6 246.9M375.9 284.9C377.3 291.9 378.5 297.5 380.1 303.2" stroke="black" stroke-width="0.4"/>
<path d="M374.801 303.001C382.055 295.911 387.982 287.579 392.301 278.401M407.301 251.301C409.501 253.801 412.001 255.601 415.801 256.601M417.301 242.301C419.301 245.901 421.801 248.501 424.001 251.501M395.801 231.301C395.601 234.801 393.401 238.301 391.901 241.301" stroke="black" stroke-width="0.4"/>
<path d="M400.801 233C398.201 235.9 395.801 239 392.201 240.8M401.201 220.4C399.298 221.753 397.252 222.893 395.101 223.8M427.901 247.3C425.701 249.8 423.601 252.8 420.001 255M428.301 268.5C425.501 271.1 423.101 274.2 419.901 276.2M428.801 293.9C434.251 290.966 439.408 287.517 444.201 283.6C440.101 287.5 436.001 291.5 431.401 294.4M430.001 247.8C431.001 250.1 433.001 252.6 435.001 254.3" stroke="black" stroke-width="0.4"/>
<path d="M427 224.6L426.6 294.5L431.6 294.2L429.6 224.4L427 224.6Z" fill="#BCA76B" stroke="#472B1F" stroke-width="0.3"/>
<path d="M430.4 314.6C431.533 315.267 432.5 316.033 433.3 316.9C435.6 319.1 437 319.1 440.3 316.9C441.3 317.1 442.6 317.8 443.9 317.5L447.3 317.1C448.6 316.7 448.8 315.1 449.3 314C449.833 312.667 450.533 311.467 451.4 310.4C452.733 309.6 453.833 308.633 454.7 307.5C455.7 306.5 455.5 305.1 455.3 303.8L455 300.1C454.8 298.5 456.2 297.3 456 295.6C455.3 295.1 454 294.8 453 294.5C451.124 294.063 449.219 293.762 447.3 293.6L442.6 293.3L438.1 293C436.3 293 434.567 293.067 432.9 293.2C431.7 293.4 430.2 293.2 429.1 293.9C428.7 295.1 428.467 296.267 428.4 297.4L428.2 300.7C428.2 302.7 428 304.7 428.6 306.6L429.4 311.3C429.267 312.567 429.6 313.667 430.4 314.6Z" fill="#333333" stroke="black" stroke-width="1.2"/>
<path d="M436.1 280.7L443.1 293.7M453.4 294.3C451.4 292.1 449.8 289.567 448.6 286.7" stroke="black" stroke-width="0.4"/>
<path d="M452.999 274.1L455.299 275.7C454.699 274.966 453.933 274.433 452.999 274.1ZM448.199 274.7L447.899 274.8L444.699 287.4L448.199 274.7ZM463.499 275.3C462.699 275.3 461.899 275.533 461.099 276L462.499 275.5L464.299 275.3H463.299H463.499ZM448.499 286.7H447.899C448.503 286.691 449.096 286.866 449.599 287.2L448.499 286.7ZM449.799 287.3C450.666 287.966 451.499 288.433 452.299 288.7L449.799 287.3ZM457.299 288L452.999 289C454.499 289 455.799 288.4 457.299 288Z" fill="#472B1F"/>
<path d="M448.401 274L444.801 287.4L448.601 286.6L452.601 288.9L458.801 287.7L461.901 288.1C462.901 283.8 462.601 278.8 465.101 275.1L462.601 275.5L458.601 276.9L455.301 275.7L452.801 273.9L448.401 274Z" fill="white"/>
<path d="M454.299 275.6C453.521 276.802 453.041 278.174 452.899 279.6C452.899 279.6 451.099 278.9 450.099 278.8H447.099L446.199 282.1C446.299 282.1 448.699 281.7 449.699 281.9C450.499 282 451.999 282.8 451.999 282.8L450.799 287.8L451.599 288.3L453.199 288.8L453.999 288.6C454.199 286.8 454.633 285.2 455.299 283.8C455.299 283.8 457.799 284.5 459.199 284.4L462.599 284C462.599 283 462.733 281.933 462.999 280.8C462.499 280.9 460.399 281.5 459.299 281.3C458.199 281.3 456.299 280.3 456.299 280.3C456.566 279.1 456.999 277.966 457.599 276.9L454.299 275.6Z" fill="#C8102E"/>
<path d="M445.801 274C443.765 268.284 442.258 262.393 441.301 256.4" stroke="black" stroke-width="0.6"/>
<path d="M447.302 275C447.302 275 451.302 274 452.902 274.3C454.702 274.7 455.802 276.7 457.602 276.9C459.602 277.3 461.402 275.4 463.602 275.2L466.502 275.5L465.102 280.5L463.902 284.5V288.2C463.902 288.2 460.602 287.4 458.902 287.6C456.602 287.9 454.902 289 452.702 288.8C451.002 288.5 450.302 287.2 448.702 286.8C447.502 286.5 444.102 287.3 444.102 287.3L447.302 275Z" stroke="#472B1F" stroke-width="1.2"/>
<path d="M448.001 274.8L446.401 274.9L441.301 292.9L443.601 293L448.001 274.8Z" fill="#BCA76B" stroke="#472B1F" stroke-width="0.3"/>
<path d="M446.401 275C445.701 274.5 445.101 273.4 445.501 272.7C445.901 271.9 447.301 271.7 448.101 271.9C449.101 272.2 450.401 273.2 450.101 274.2C449.701 275.4 447.501 275.6 446.401 274.9V275Z" fill="#BCA76B" stroke="#472B1F" stroke-width="0.3"/>
<path d="M464.899 275.3C462.499 278.9 462.699 283.7 461.699 287.9L463.899 288.3V284.6L464.999 280.5L466.399 275.6L464.899 275.3Z" fill="#472B1F"/>
<path d="M435.801 260.8C438.401 262.5 441.001 267 444.501 270.6M440.601 254.2C438.546 248.128 437.334 241.802 437.001 235.4M433.201 283.1L437.201 293.5M437.201 230.5C433.701 229.5 430.501 227.2 430.001 225.2M414.801 233.9C417.001 234 424.801 228.3 426.001 225.2M434.601 281.6L440.101 293.2M434.101 285.5L438.101 284.1M434.901 287.7L439.101 285.9M436.601 292.1L441.201 290.1M431.801 269.1L437.501 275.1M420.001 283.6L416.101 296.6M418.901 286.5H422.901M418.001 289.7L422.501 289.8M416.901 293L421.901 294" stroke="black" stroke-width="0.4"/>
<path d="M430 222.8C429.1 222.5 426.7 222.4 425.7 223.2C425.3 223.6 425.7 225 426.3 225C427.6 225 429.3 225 429.9 224.8C430.3 224.3 430.7 223 430.1 222.8H430Z" fill="#BCA76B" stroke="#472B1F" stroke-width="0.4"/>
<path d="M416 233.701C417.6 240.501 424.8 239.401 424.6 233.101L416 233.701Z" fill="#BCA76B"/>
<path d="M416 233.701C417.6 240.501 424.8 239.401 424.6 233.101" stroke="#472B1F" stroke-width="0.5"/>
<path d="M422.602 233.401C424.802 241.201 434.202 240.001 433.702 232.801L422.602 233.401Z" fill="#BCA76B"/>
<path d="M422.602 233.401C424.802 241.201 434.202 240.001 433.702 232.801" stroke="#472B1F" stroke-width="0.6"/>
<path d="M430.601 233.2C432.601 239 435.601 238 439.301 232.7L430.601 233.2ZM441.301 230.5L414.801 232.1V233.8L441.601 232.4L441.301 230.5ZM416.901 257.1C418.601 264.6 426.101 263.5 425.901 256.7L416.901 257.1Z" fill="#BCA76B"/>
<path d="M430.601 233.2C432.601 239 435.601 238 439.301 232.7M416.901 257.1C418.601 264.6 426.101 263.5 425.901 256.7M441.301 230.5L414.801 232.1V233.8L441.601 232.4L441.301 230.5Z" stroke="#472B1F" stroke-width="0.5"/>
<path d="M423.801 256.8C426.001 265.5 435.801 264.2 435.401 256.4L423.801 256.8Z" fill="#BCA76B"/>
<path d="M423.801 256.8C426.001 265.5 435.801 264.2 435.401 256.4" stroke="#472B1F" stroke-width="0.6"/>
<path d="M432.001 256.8C434.201 263.1 437.301 262 441.201 256.3L432.001 256.8ZM443.301 254L415.701 255.3V257.1L443.701 256.2L443.301 254ZM416.201 278.2C418.001 286 425.601 284.7 425.401 277.6L416.201 278.2Z" fill="#BCA76B"/>
<path d="M432.001 256.8C434.201 263.1 437.301 262 441.201 256.3M416.201 278.2C418.001 286 425.601 284.7 425.401 277.6M443.301 254L415.701 255.3V257.1L443.701 256.2L443.301 254Z" stroke="#472B1F" stroke-width="0.5"/>
<path d="M423.301 278C425.101 289.4 435.601 285.3 435.201 277.2L423.301 278Z" fill="#BCA76B"/>
<path d="M423.301 278C425.101 289.4 435.601 285.3 435.201 277.2" stroke="#472B1F" stroke-width="0.6"/>
<path d="M431.701 277.7C434.101 284.2 437.301 282.9 441.001 277L431.701 277.7Z" fill="#BCA76B"/>
<path d="M431.701 277.7C434.101 284.2 437.301 282.9 441.001 277" stroke="#472B1F" stroke-width="0.6"/>
<path d="M443.3 274.7L415 276.3V278.3L443.5 276.8L443.3 274.7Z" fill="#BCA76B" stroke="#472B1F" stroke-width="0.5"/>
<path d="M433.701 244.301L423.201 244.501V247.201H433.801L433.701 244.301ZM433.701 266.401L423.301 266.701V269.401L433.901 269.301L433.701 266.401Z" fill="#BCA76B" stroke="#472B1F" stroke-width="0.3"/>
<path d="M407.601 278.5L415.401 297.1M368.501 284.3C367.501 290.3 366.301 297.6 364.801 303.3" stroke="black" stroke-width="0.6"/>
<path d="M455.3 295.6C447.468 294.033 439.444 293.662 431.5 294.5C426.3 294.8 421 295.1 416.2 296.5C415.467 296.767 414.834 297.1 414.3 297.5C412.9 298.8 412.8 301.1 411.6 302.5C410.4 304.1 406.2 306.5 404.6 307.6C393.4 307.9 380.8 307.6 366.6 305.6L364.8 303.4L363.9 302.6L366 303.4L371.1 303.5L383.4 303.1C383.4 303.1 393.7 303.1 398.8 302.8L407.6 302.1C408.267 302.1 408.867 302 409.4 301.8C410.4 301.2 410.5 300.1 411.1 299.2C411.7 298.5 412.1 297.4 412.9 296.8C415.1 295.3 417.9 295.4 420.3 294.9C423.3 294.3 425.9 294.2 428.8 293.8L438.9 292.9H445.4C448.7 293 452.4 292.9 455.2 294.5C455.8 294.7 456.7 295.3 456.3 295.9C456.1 296.2 455.6 295.6 455.2 295.6H455.3Z" fill="black" stroke="black" stroke-width="0.4"/>
<path d="M403.7 220.4C405.4 221.7 408.4 222.8 411.5 223.3M400.2 267.7C396.786 270.123 393.004 271.98 389 273.2M410.1 300.8L403.9 284.7M405.2 279.4L412.4 297.9M404.3 284.2L409 282.5" stroke="black" stroke-width="0.4"/>
<path d="M401.199 218L399.699 303.9L404.699 303.6L403.799 218H401.199Z" fill="#BCA76B" stroke="#472B1F" stroke-width="0.3"/>
<path d="M407.301 231.3C409.445 235.33 412.903 238.506 417.101 240.3" stroke="black" stroke-width="0.6"/>
<path d="M390.699 226C392.299 233.4 399.799 232.3 399.599 225.5L390.699 226Z" fill="#BCA76B"/>
<path d="M390.699 226C392.299 233.4 399.799 232.3 399.599 225.5" stroke="#472B1F" stroke-width="0.5"/>
<path d="M397.6 225.7C399.7 234.3 409.5 233 409.1 225.2L397.6 225.7Z" fill="#BCA76B"/>
<path d="M397.6 225.7C399.7 234.3 409.5 233 409.1 225.2" stroke="#472B1F" stroke-width="0.6"/>
<path d="M405.8 225.7C408 231.9 411.8 232.5 414.9 225.1L405.8 225.7ZM417.1 222.9L389.5 224.1V226.1L417.4 224.9L417.1 222.9ZM390.7 243.2C392.3 250.7 399.8 249.6 399.6 242.8L390.7 243.2Z" fill="#BCA76B"/>
<path d="M405.8 225.7C408 231.9 411.8 232.5 414.9 225.1M390.7 243.2C392.3 250.7 399.8 249.6 399.6 242.8M417.1 222.9L389.5 224.1V226.1L417.4 224.9L417.1 222.9Z" stroke="#472B1F" stroke-width="0.5"/>
<path d="M397.6 243C399.7 251.6 409.5 250.3 409.1 242.5L397.6 243Z" fill="#BCA76B"/>
<path d="M397.6 243C399.7 251.6 409.5 250.3 409.1 242.5" stroke="#472B1F" stroke-width="0.6"/>
<path d="M405.8 243C408 249.3 414.3 248.2 414.9 242.4L405.8 243ZM417.1 240.2L389.5 241.4V243.4L417.4 242.2L417.1 240.2Z" fill="#BCA76B"/>
<path d="M405.8 243C408 249.3 414.3 248.2 414.9 242.4M417.1 240.2L389.5 241.4V243.4L417.4 242.2L417.1 240.2Z" stroke="#472B1F" stroke-width="0.5"/>
<path d="M398.9 252.9C396.4 254.5 394.1 256.5 390.9 257.5" stroke="black" stroke-width="0.6"/>
<path d="M389.799 259.5C391.499 266.9 398.999 265.9 398.799 259L389.799 259.5Z" fill="#BCA76B"/>
<path d="M389.799 259.5C391.499 266.9 398.999 265.9 398.799 259" stroke="#472B1F" stroke-width="0.5"/>
<path d="M396.799 259.101C398.799 267.901 408.699 266.601 408.299 258.801L396.799 259.101Z" fill="#BCA76B"/>
<path d="M396.799 259.101C398.799 267.901 408.699 266.601 408.299 258.801" stroke="#472B1F" stroke-width="0.6"/>
<path d="M405 259.1C407.1 265.5 412.8 263.5 414 258.7L405 259.1ZM416.3 256.4L388.6 257.6V259.6L416.6 258.4L416.3 256.4Z" fill="#BCA76B"/>
<path d="M405 259.1C407.1 265.5 412.8 263.5 414 258.7M416.3 256.4L388.6 257.6V259.6L416.6 258.4L416.3 256.4Z" stroke="#472B1F" stroke-width="0.5"/>
<path d="M393.3 279.1C392.5 287.7 389.1 295.3 386.9 303.3M396.3 279.3C395.6 287.5 393 295.2 390.9 303M398.9 278.5C398.178 286.729 396.807 294.887 394.8 302.9" stroke="black" stroke-width="0.4"/>
<path d="M390.199 275.001C391.799 282.501 399.399 281.401 399.199 274.601L390.199 275.001Z" fill="#BCA76B"/>
<path d="M390.199 275.001C391.799 282.501 399.399 281.401 399.199 274.601" stroke="#472B1F" stroke-width="0.5"/>
<path d="M397.1 274.801C399.2 283.401 409.1 282.101 408.7 274.301L397.1 274.801Z" fill="#BCA76B"/>
<path d="M397.1 274.801C399.2 283.401 409.1 282.101 408.7 274.301" stroke="#472B1F" stroke-width="0.6"/>
<path d="M405.4 274.8C407.4 281 413 279.8 414.4 274.2L405.4 274.8ZM416.7 272L389 273.2V275.2L416.9 274L416.7 272Z" fill="#BCA76B"/>
<path d="M405.4 274.8C407.4 281 413 279.8 414.4 274.2M416.7 272L389 273.2V275.2L416.9 274L416.7 272Z" stroke="#472B1F" stroke-width="0.5"/>
<path d="M407.8 234.4L397.9 234.9V237.5H407.9L407.8 234.4ZM407.5 251.3L398.7 251.5V254H407.5V251.3ZM408 267.5L398.5 267.9V270.4H408.1L408 267.5Z" fill="#BCA76B" stroke="#472B1F" stroke-width="0.2"/>
<path d="M393 282.3L398.2 283.3M391.9 287L397.9 287.2M390.9 290.5L397.1 292.3M389.3 295.9L396.5 295.6M388 300.4L395.6 300.2M386.3 279C385.3 287.7 391 295.9 393.8 303.2M409.5 298.7L414.3 297.2M408.3 296L413.8 293.7M406.6 291.9L412.3 290.2M405.3 287.9L410.8 286.5" stroke="black" stroke-width="0.4"/>
<path d="M375.401 318.5L373.501 318.2L371.601 317.5L370.001 316.4L368.401 315.1L366.701 313.4L365.001 311.6C364.401 311.067 363.867 310.5 363.401 309.9C362.901 309.4 362.901 308.6 362.401 308C361.801 307.9 360.801 307.8 360.801 306.9C360.601 306.234 360.267 305.834 359.801 305.7C359.501 305.7 359.401 306.2 359.601 305.9C359.201 305.7 359.301 306.6 359.301 306.1L358.801 307.1C358.467 307.767 358.667 308.234 359.401 308.5C360.101 308.5 360.201 309.4 360.801 309.7L362.501 311.3C363.101 312 363.501 312.3 363.901 313.1C364.301 313.7 364.767 314.167 365.301 314.5L366.401 316L368.101 317.3L369.601 318.2L371.401 319C372.001 319.2 372.767 319.334 373.701 319.4C374.367 319.467 375.034 319.334 375.701 319C376.401 318.5 375.701 318.6 375.401 318.5ZM415.701 299C414.701 301.1 413.301 304.1 411.501 306C417.501 307.1 422.201 305.5 427.501 304.6C426.983 302.168 426.882 299.666 427.201 297.2C422.901 297.6 419.901 298.5 415.701 299Z" fill="black"/>
<path d="M416.2 299.6C415.4 301.5 414.9 303.4 413.4 305.1C418.2 306.1 422.2 304.6 426.6 303.8C425.7 302.1 426 300.1 426.3 298.2L416.2 299.6Z" fill="#333333"/>
<path d="M365.199 308.1L382.299 309.4C396.721 309.836 411.156 309.268 425.499 307.7C426.099 307.7 426.999 307.5 427.199 308C427.399 308.5 426.499 309.4 425.899 309.5C410.199 311.5 394.299 310.8 378.599 310.7L369.199 309.7L365.199 308.1Z" fill="black"/>
<path d="M371.4 269.7C367 273.1 362.6 276.5 357.6 278.5M372.1 253.5C368.1 256.5 364.1 260 359.8 261.8" stroke="black" stroke-width="0.6"/>
<path d="M370.6 224V304.2L374.9 303.9L372.4 223.5L370.6 224Z" fill="#BCA76B" stroke="#472B1F" stroke-width="0.3"/>
<path d="M372.4 223.5C375.9 227.5 378.8 229.6 381.8 232.2" stroke="black" stroke-width="0.6"/>
<path d="M373.501 221.2C372.601 220.8 370.201 220.7 369.301 221.8C368.801 222.4 369.301 224.4 369.801 224.4C371.101 224.4 372.801 224.5 373.201 224C373.801 223.4 374.201 221.5 373.501 221.2Z" fill="#BCA76B" stroke="#472B1F" stroke-width="0.4"/>
<path d="M370.999 314.6C371.133 313.934 371.566 313.6 372.299 313.6C373.099 313.534 373.766 313.6 374.299 313.8C374.766 313.867 375.199 314.067 375.599 314.4C375.933 314.8 376.333 315.067 376.799 315.2C378.199 315.8 377.399 314.1 378.299 314H380.299C380.766 314.2 381.099 314.467 381.299 314.8C381.699 315.134 381.966 315.434 382.099 315.7C382.199 316.1 383.799 316.8 383.799 315.8C384.199 315.2 383.999 314 385.099 314.1C386.233 314.167 387.333 314.3 388.399 314.5C388.933 314.634 389.433 314.9 389.899 315.3C390.299 315.5 390.299 316 390.699 316C391.699 316.8 391.599 315.3 391.899 314.8C392.199 314.3 392.899 314.5 393.399 314.2C394.066 314 394.833 313.867 395.699 313.8L397.199 314.7C397.666 314.967 397.999 315.367 398.199 315.9C398.333 316.567 398.666 316.767 399.199 316.5C399.499 315.9 399.999 315.9 400.399 315.5C400.866 315.5 401.233 315.267 401.499 314.8C401.799 314.8 402.099 314.2 402.299 313.9C402.966 313.7 403.733 313.6 404.599 313.6C405.399 313.734 406.066 313.967 406.599 314.3C406.799 314.634 407.099 314.9 407.499 315.1C407.699 315.6 408.299 315.2 408.699 315.1L409.999 314.3C410.399 313.9 410.966 313.7 411.699 313.7C412.599 313.6 412.999 314 413.699 314.1C414.433 314.3 415.033 314.534 415.499 314.8C416.033 315.267 416.566 315.334 417.099 315C417.699 315 417.299 313.8 417.499 313.6C418.199 313 419.899 313.1 420.799 313.4C421.599 313.4 422.299 313.467 422.899 313.6C423.299 313.8 423.566 314.134 423.699 314.6C423.899 315.1 425.199 315.1 425.699 314.8C426.099 314.8 425.599 314.1 425.399 313.9C425.066 313.7 424.833 313.4 424.699 313C425.299 312.7 425.699 313.3 426.199 313.4L427.299 314.1C427.766 314.367 428.366 314.5 429.099 314.5C429.899 314.7 429.499 315.8 428.699 315.5C427.899 315.7 427.066 315.767 426.199 315.7C424.933 315.567 423.699 315.534 422.499 315.6L420.099 315.9L417.999 316L415.399 316.1L412.999 316.4H410.999C409.799 316.6 408.566 316.667 407.299 316.6L405.299 316.7L402.999 316.9L400.699 317L396.699 317.1L394.399 316.9H392.399C391.899 316.6 390.899 316.9 390.399 316.7L387.399 316.6H381.499L379.499 316.5H375.999C375.099 316.3 374.199 316.5 373.399 316.1C372.299 315.9 370.799 315.5 370.899 314.6H370.999Z" fill="black" stroke="black" stroke-width="0.8"/>
<path d="M361.301 233.8C362.701 239 369.301 238.2 369.101 233.5L361.301 233.8Z" fill="#BCA76B"/>
<path d="M361.301 233.8C362.701 239 369.301 238.2 369.101 233.5" stroke="#472B1F" stroke-width="0.4"/>
<path d="M367.301 233.6C369.301 239.6 377.801 238.8 377.501 233.4L367.301 233.6Z" fill="#BCA76B"/>
<path d="M367.301 233.6C369.301 239.6 377.801 238.8 377.501 233.4" stroke="#472B1F" stroke-width="0.5"/>
<path d="M374.601 233.6C376.401 238.1 379.801 238.4 382.601 233.2L374.601 233.6ZM384.401 231.7L360.301 232.5V233.8L384.601 233.1L384.401 231.7Z" fill="#BCA76B"/>
<path d="M374.601 233.6C376.401 238.1 379.801 238.4 382.601 233.2M384.401 231.7L360.301 232.5V233.8L384.601 233.1L384.401 231.7Z" stroke="#472B1F" stroke-width="0.4"/>
<path d="M367.9 243.4C365.7 245.3 361.8 247.7 360 247.4" stroke="black" stroke-width="0.6"/>
<path d="M363.499 236.7C358.299 256.6 351.499 277.6 345.199 294.4" stroke="black" stroke-width="0.6"/>
<path d="M361.1 248.8C362.5 254.4 369.3 253.5 369.1 248.4L361.1 248.8Z" fill="#BCA76B"/>
<path d="M361.1 248.8C362.5 254.4 369.3 253.5 369.1 248.4" stroke="#472B1F" stroke-width="0.4"/>
<path d="M366.799 248.7C368.599 256.2 377.499 255 377.199 248.3L366.799 248.7Z" fill="#BCA76B"/>
<path d="M366.799 248.7C368.599 256.2 377.499 255 377.199 248.3" stroke="#472B1F" stroke-width="0.6"/>
<path d="M374.799 248.5C376.799 253.3 380.599 253.7 383.699 248.3L374.799 248.5ZM384.799 246L359.999 247V248.8L384.999 247.8L384.799 246ZM359.699 263.1C361.299 270 368.699 268.9 368.399 262.7L359.699 263.1Z" fill="#BCA76B"/>
<path d="M374.799 248.5C376.799 253.3 380.599 253.7 383.699 248.3M359.699 263.1C361.299 270 368.699 268.9 368.399 262.7M384.799 246L359.999 247V248.8L384.999 247.8L384.799 246Z" stroke="#472B1F" stroke-width="0.5"/>
<path d="M366.5 263C368.6 273 378.9 271.6 378.5 262.4L366.5 263Z" fill="#BCA76B"/>
<path d="M366.5 263C368.6 273 378.9 271.6 378.5 262.4" stroke="#472B1F" stroke-width="0.7"/>
<path d="M374.499 263C376.599 268.7 380.499 269.2 383.399 262.4L374.499 263ZM385.499 260.3L357.199 261.5L357.299 263.1L385.699 262.3L385.499 260.3ZM359.199 279.7C360.899 287.2 368.899 286.1 368.599 279.4L359.199 279.7Z" fill="#BCA76B"/>
<path d="M374.499 263C376.599 268.7 380.499 269.2 383.399 262.4M359.199 279.7C360.899 287.2 368.899 286.1 368.599 279.4M385.499 260.3L357.199 261.5L357.299 263.1L385.699 262.3L385.499 260.3Z" stroke="#472B1F" stroke-width="0.5"/>
<path d="M380 283.7C381.734 290.7 383.7 297.2 385.9 303.2M377.9 283.4C378.969 290.085 380.574 296.673 382.7 303.1" stroke="black" stroke-width="0.6"/>
<path d="M366.5 279.5C368.5 289.4 378.9 288.5 378.8 279L366.5 279.5Z" fill="#BCA76B"/>
<path d="M366.5 279.5C368.5 289.4 378.9 288.5 378.8 279" stroke="#472B1F" stroke-width="0.6"/>
<path d="M375.199 279.499C377.599 285.699 381.499 286.299 384.799 278.999L375.199 279.499ZM386.999 276.399L355.699 277.599V279.999L387.499 278.799L386.999 276.399Z" fill="#BCA76B"/>
<path d="M375.199 279.499C377.599 285.699 381.499 286.299 384.799 278.999M386.999 276.399L355.699 277.599V279.999L387.499 278.799L386.999 276.399Z" stroke="#472B1F" stroke-width="0.6"/>
<path d="M376.899 241.1L367.899 241.4V243.4H376.899V241.1ZM376.899 255.7L367.899 256V258H376.899V255.7ZM377.499 271.6L367.799 271.9V273.9H377.599L377.499 271.6Z" fill="#BCA76B" stroke="#472B1F" stroke-width="0.2"/>
<path d="M380.901 285.8L375.801 286.8M381.701 289.6L376.601 290.7M382.901 293.9L377.701 293.7M384.401 298L379.001 298.9M360.301 297.2L365.701 298.2M361.901 292.8L366.701 293.8M363.101 289.4L367.601 290.5M364.001 286.3L368.001 287.1" stroke="black" stroke-width="0.4"/>
<path d="M428.201 304.3C437.201 303.9 447.901 302.8 455.301 305.7M428.901 307.3C437.175 305.528 445.757 305.803 453.901 308.1M429.701 313.3C436.205 311.795 442.955 311.693 449.501 313M430.401 314.7C436.512 316.123 442.861 316.191 449.001 314.9" stroke="black" stroke-width="0.9"/>
<path d="M342.801 293.7L362.201 305.5L362.701 305L356.501 300.7C352.237 297.816 347.636 295.465 342.801 293.7Z" fill="black"/>
<path d="M436.1 303.3L435.9 296.9M438.1 296.9V303.6M441.7 303.6V296.7M445.8 297.3V304M448.2 297.2V304.1M451.4 298V304.2M453.1 297.9V304.9M436.9 306.2V312.3M434.9 306.5V312.3M440.2 306.3L440 312.1M442.2 306.2V312M445.2 306.2L444.8 311.8M447.9 306.9L446.9 312.1" stroke="black" stroke-width="0.4"/>
<path d="M428.4 297.3C437.4 296.3 446.2 297.5 455.1 298.3" stroke="black" stroke-width="0.9"/>
<path d="M477 217.4C477 194.5 475.7 172.3 476.3 152.8C446.6 139.6 407.6 136.9 387.7 136.9C367.8 136.9 328.8 139.6 299.2 152.8C299.8 172.3 298.5 194.5 298.5 217.4H477Z" stroke="black" stroke-width="1.8"/>
<path d="M382.4 180.2C382.4 180.2 385.6 185 386.5 187.5C386.9 188.834 387.067 190.167 387 191.5C386.8 193.9 385.9 196.3 385.2 198.5C384.6 200.1 383.5 201.3 384.2 202.9C384.4 203.6 384.7 204.3 385.5 204.2C385.9 204 386.267 203.667 386.6 203.2L387.5 202.6C387.9 202.4 388.5 202.7 388.9 202.4C389.3 201.934 389.4 201.5 389.2 201.1C389 200.8 388.5 201.1 388.1 201.1C387.5 201.1 386.9 201.5 386.5 201.2C386 201 385.8 199.7 385.8 199.7L387.2 195.8C387.867 194.867 388.3 193.8 388.5 192.6V191.5C388.5 190.834 388.6 190.267 388.8 189.8C389.1 189.5 389.8 189.8 389.9 189.5C390.5 188.2 388 187.3 387.5 185.9C387.3 185.4 387.5 184.9 387.2 184.4C386.8 183.2 385.5 181.3 385.5 181.3L382.4 180.2Z" fill="#69737C" stroke="black" stroke-width="0.7"/>
<path d="M392.401 184C392.401 184 395.301 187.5 395.601 189.6C395.534 190.133 395.401 190.6 395.201 191C395.201 191.8 395.701 192.5 395.701 193.2C395.501 195.7 394.301 197.9 393.701 200.2L392.301 206.3L394.201 206.1L394.501 203.1L395.901 197.9L396.801 194.2C397.267 193.533 397.601 192.8 397.801 192C398.201 190.933 398.267 189.866 398.001 188.8L397.001 188.1L395.601 185.9C395.101 185.1 394.601 183.3 394.601 183.3C394.301 183.5 392.401 183.9 392.401 183.9V184Z" fill="#66452B" stroke="black" stroke-width="0.7"/>
<path d="M379 177.4L381 179.1L384.5 181.1L386.2 181.3L388 182L390.2 181.9L391.9 183.6L392.4 183.9L394.3 183.7L395 182.9L398.6 177.4L397.7 168.4L380.7 169.5L379 177.4Z" fill="white"/>
<path d="M397.401 162.3C399.776 164.101 401.925 166.183 403.801 168.5C405.101 170.1 405.901 172.4 408.001 173.4C410.901 176.4 423.201 180 423.201 181C420.401 179.8 419.201 183.7 416.401 183C413.901 183.8 411.701 182.1 409.501 181.2C406.172 180.854 402.813 181.443 399.801 182.9C398.201 183.8 396.301 182.5 395.001 182.9L394.801 183.2L394.601 183.4M379.001 177.4C377.001 176.4 375.601 174.6 373.701 173.6C372.301 171.6 370.501 169.6 370.601 166.9C370.401 164.2 369.601 160.5 370.901 157.9C370.001 155.9 368.801 155.3 367.701 153.3C367.001 150.6 364.201 149 365.901 146.9C367.701 145.2 369.001 143.3 371.401 142.4C373.408 142.005 375.486 142.178 377.401 142.9C379.801 143.1 381.201 145.2 382.401 147.1C383.999 149.585 385.056 152.379 385.501 155.3C386.701 157.6 389.701 158.1 391.901 159.1C393.901 160.1 395.801 160.8 397.401 162.3" fill="white"/>
<path d="M410.901 178.2C409.901 178.1 407.601 179 408.201 177.6C405.801 177.4 403.301 178 401.001 177.2C398.62 176.104 396.143 175.234 393.601 174.6C391.101 174.5 388.201 175 386.201 173C384.201 171.9 381.401 172.7 379.601 171C378.702 170.256 377.976 169.325 377.475 168.271C376.974 167.217 376.71 166.066 376.701 164.9C376.401 162.5 375.501 159.4 378.101 157.9C379.901 157.4 381.501 157.9 382.501 156.2C384.615 155.975 386.741 156.507 388.501 157.7C390.901 158.7 393.301 159.4 395.501 160.7C397.501 162.166 399.401 163.733 401.201 165.4C402.934 167 404.367 168.833 405.501 170.9C406.701 173.2 409.101 174.4 411.201 175.7C412.401 176 415.301 177.4 412.601 177.7C412.001 177.966 411.401 178.133 410.801 178.2H410.901Z" fill="black"/>
<path d="M386.701 170.5C385.447 170.421 384.239 170.006 383.201 169.3C382.501 168.9 380.501 167.7 381.801 166.8C382.801 166.8 384.001 167.2 384.901 166.5C386.301 166.2 387.901 166.2 389.101 165.5C390.301 164.8 391.701 165.3 393.101 164.9C393.901 164.4 393.801 162.5 395.201 162.9C396.501 162.5 396.201 165 395.001 164.2C394.301 165.2 396.301 165.6 396.801 166.2C397.901 167.4 395.501 167.7 395.301 168.6C393.801 169.1 392.701 167.2 391.301 167.6C390.901 168.2 391.301 169.2 390.201 169C388.901 168.2 387.801 169 386.501 169.2C386.901 169.5 386.101 170.5 386.601 170.5H386.701ZM412.801 179.5C412.101 179.1 411.201 179.5 410.401 179.5L408.801 179.3C408.101 179.3 406.601 178.4 406.401 179.6C406.401 180 407.701 180.3 406.601 180.4C405.601 180.6 404.601 180.1 403.601 179.7C403.201 179.3 402.401 178.9 402.601 179.7C402.901 180.6 402.101 180.9 401.401 180.9C400.408 180.913 399.445 180.557 398.701 179.9C398.201 180.5 399.401 181.4 400.101 181.4C400.801 182 399.101 181.8 398.701 181.7C397.967 181.566 397.334 181.633 396.801 181.9C396.001 182.1 396.001 182.9 397.001 182.8C397.934 183.266 398.901 183.3 399.901 182.9C400.834 182.3 401.901 181.9 403.101 181.7L405.801 181.3C407.134 181.166 408.367 181.133 409.501 181.2C410.501 181.7 411.501 181.2 412.201 180.8C412.801 180.6 414.301 180 413.201 179.6L412.801 179.5Z" fill="#69737C"/>
<path d="M409.5 181.2C410.034 181.2 410.5 181.133 410.9 181L412.3 180.4C413 180.4 413.3 179.6 412.6 179.4L411.5 178.9L410.2 178.1L411.1 177.1L412.5 176.8H413.5L415 177.4L416.6 178.1L417.9 178.5C418.367 178.766 418.867 178.933 419.4 179C420 179.2 420.2 179.7 420.8 179.7C421.4 179.7 421.934 179.9 422.4 180.3C422.7 180.4 423.4 180.7 423.4 181L421.9 180.8C421.5 180.8 421.3 181.2 420.8 181.2C420.6 181.7 419.8 181.7 419.5 182.2L417.8 183.2C417.337 183.336 416.84 183.301 416.4 183.1H414.7C414.15 183.149 413.596 183.045 413.1 182.8C412.634 182.666 412.2 182.433 411.8 182.1L409.9 181.4L409.4 181.2H409.5ZM372.9 142.1C372.367 142.1 371.867 142.166 371.4 142.3C370.581 142.501 369.846 142.956 369.3 143.6C368.604 144.439 367.797 145.179 366.9 145.8L365.9 146.8C366.4 147.2 367.2 147.3 367.5 146.8C368.017 146.102 368.706 145.55 369.5 145.2C370.3 145.2 371.034 145.266 371.7 145.4C372.3 145.8 372.9 146.033 373.5 146.1C373.967 146.1 374.434 146.2 374.9 146.4L376.9 146.9C377.7 147.033 378.5 147.033 379.3 146.9H379.8L379.6 147.5C379.6 147.966 379.767 148.4 380.1 148.8L380.8 150L381.4 151.4L381.9 152.6C382.034 153 382.234 153.366 382.5 153.7L383.5 155L384.1 156.1C384.434 156.5 384.834 156.733 385.3 156.8L386.7 156.6H386.5C386.1 156.266 385.834 155.9 385.7 155.5L385.4 154.1C385.4 153.633 385.3 153.2 385.1 152.8L384.7 151.6L384.2 150.5L383.7 149.2L383 147.9L382.3 146.8L381.8 146.3L381.5 145.6C381.1 145.2 380.767 144.766 380.5 144.3C379.834 143.833 379.1 143.433 378.3 143.1L375.6 142.4L373.3 142.1H372.9Z" fill="black"/>
<path d="M381.399 154.3C381.399 153.6 380.599 153.9 380.299 154.3L379.099 155.6C378.299 156.2 377.199 156.3 376.399 156.9C376.066 157.366 375.599 157.8 374.999 158.2C374.333 158.466 373.799 158.933 373.399 159.6C373.299 160 372.999 160.7 373.399 161.1C374.099 161.4 373.399 162 373.499 162.4C373.899 162.866 374.399 162.966 374.999 162.7C375.666 162.3 376.233 161.866 376.699 161.4C377.209 160.62 377.894 159.969 378.699 159.5C379.23 159.366 379.715 159.089 380.099 158.7C380.499 158.3 380.099 157.7 380.799 157.6C381.266 157.266 381.633 156.866 381.899 156.4C382.299 155.9 381.699 155.4 381.799 154.9C381.799 154.633 381.699 154.433 381.499 154.3H381.399Z" fill="#69737C"/>
<path d="M390.899 206.8H387.599C386.999 206.5 386.599 205.6 385.899 206L384.199 206.8C383.634 207.114 383.154 207.56 382.799 208.1C382.699 208.4 381.699 208.8 382.499 208.8C383.299 208.8 383.699 208.1 384.499 208L386.199 207.9H387.799L389.599 208.1C390.399 208.1 389.199 208.6 388.899 208.8L386.899 209.3L384.899 209.5L382.899 210.5C382.599 210.8 381.799 211.2 382.599 211.2C383.199 211.2 383.799 211.1 384.399 210.9L387.399 210.1L389.399 209.6C389.899 209.6 390.999 209.4 390.699 210.1C390.223 210.615 389.644 211.024 388.999 211.3C388.533 211.7 387.999 211.933 387.399 212C386.899 211.8 385.799 212.2 386.599 212.7C386.999 213.4 387.799 212.9 388.199 212.7L389.999 211.9L391.999 211.1C392.666 210.9 393.266 210.634 393.799 210.3C394.599 209.8 395.099 209.7 395.299 209C395.499 208.4 395.899 208.033 396.499 207.9L398.299 207.7C398.999 207.7 398.799 206.4 398.199 206.4L396.599 205.4C395.948 205.079 395.223 204.941 394.499 205C394.215 205.041 393.943 205.142 393.701 205.298C393.46 205.453 393.254 205.658 393.099 205.9C392.699 206.3 392.599 207.1 391.899 206.9C391.566 206.967 391.233 206.934 390.899 206.8ZM374.699 210.8C374.699 210.8 375.299 208.6 376.099 207.8C378.071 206.468 380.276 205.518 382.599 205C380.599 205.7 378.099 205.1 376.099 205.7C374.499 206.2 371.699 208.3 371.699 208.3C371.699 208.3 372.699 206.1 373.599 205.2C375.899 202.6 379.599 202.3 382.499 202.7L385.699 203.2C385.699 203.2 386.199 203.5 385.999 204C385.499 205 383.999 205.6 382.999 206.1C379.999 207.6 376.499 208.7 374.699 210.9V210.8Z" fill="#66452B" stroke="black" stroke-width="0.7"/>
<path d="M384.501 202.7C381.901 204.5 375.901 207.7 376.101 207.8C376.101 207.8 381.201 206.6 383.501 205.5C384.401 205.1 385.501 204.8 385.801 204C385.801 203.467 385.634 203.034 385.301 202.7H384.501Z" fill="#69737C" stroke="black" stroke-width="0.7"/>
<path d="M396.8 189.2C396.2 189.2 396.1 190.3 396 190.9C396 191.4 396 192.2 396.5 192.2C397 192.2 397.2 191.2 397.2 190.7C397.2 190.2 397.3 189.2 396.8 189.2Z" fill="#69737C"/>
<path d="M394.2 206.1C394.2 205.6 393.5 205.9 393.3 206.1C392.633 206.166 392.066 206.4 391.6 206.8L390.2 207.6L387.7 209L386.5 209.4C386.3 209.533 386.333 209.6 386.6 209.6C387.266 209.733 387.866 209.7 388.4 209.5L390.4 208.9L391.8 208.2L393.3 207.8C393.8 207.4 393.6 207.1 394.3 207.1C394.7 207.1 394.7 206.4 394.3 206.4L394.2 206.1Z" fill="#69737C" stroke="black" stroke-width="0.7"/>
<path d="M388.301 211.6C388.767 211.6 389.234 211.5 389.701 211.3L391.301 210.8L392.101 210.4C392.567 210.066 392.901 209.633 393.101 209.1L393.801 208C393.734 207.6 393.567 207.533 393.301 207.8L392.301 208.4L391.501 209.1L390.601 210.4L390.001 210.8L388.501 211.4L388.301 211.6Z" fill="#69737C" stroke="black" stroke-width="0.7"/>
<path d="M394.499 178C394.699 178.2 394.799 178.533 394.799 179L394.999 180.2L394.499 181.4V182.2L394.299 183.7C394.099 184.1 393.399 183.7 392.999 183.9C392.599 183.966 392.266 183.866 391.999 183.6L390.999 182.6C390.466 182.133 390.066 181.633 389.799 181.1L388.999 180L388.799 179.4M390.199 181.9H387.999C387.599 181.9 387.233 181.833 386.899 181.7C386.633 181.633 386.399 181.5 386.199 181.3H385.499M385.499 181.3L384.799 180.3C384.533 180.3 384.299 180.166 384.099 179.9C383.899 179.766 383.733 179.566 383.599 179.3L383.199 178.7L382.799 177.9V177.7M385.499 181.3C385.499 181.8 384.799 181.3 384.499 181.2L383.799 180.9L383.199 180.5C382.866 180.433 382.633 180.3 382.499 180.1L381.499 179.6L380.599 178.9L379.599 178C379.266 177.8 379.066 177.5 378.999 177.1L378.699 176.1V175.6" stroke="black" stroke-width="0.7"/>
<path d="M410.9 181.6L411.9 181.5L412.9 181.2C413.3 181.1 413.6 180.7 413.9 180.8L415.1 180.7C415.203 180.561 415.34 180.451 415.498 180.381C415.655 180.311 415.829 180.283 416 180.3L417 180.4L418 180.7L419 181.2C419.3 181.4 418.7 181.6 418.6 181.7C418.3 181.9 417.9 181.7 417.6 182C417.267 182.2 417.034 182.433 416.9 182.7C416.634 182.966 416.334 183.1 416 183.1H414.3L413.3 182.9C413.034 182.633 412.734 182.466 412.4 182.4C411.934 182.266 411.5 182.066 411.1 181.8L410.9 181.6Z" fill="#BCA76B"/>
<path d="M368 150.9C367.2 150.833 366.4 150.867 365.6 151L363.4 151.1C362.6 150.967 361.8 150.967 361 151.1L357.5 152H352.7C351.5 152.1 352.7 150.7 353.4 150.7C354.933 150.233 356.4 149.9 357.8 149.7L361.2 148.9L363.9 148.2C364.9 148 365.833 147.967 366.7 148.1L369.7 147.2C370.5 146.8 371.5 147 372.3 146.5C372.833 145.9 373.6 145.667 374.6 145.8C375.467 145.933 376.233 146.367 376.9 147.1C377.5 148 375.6 147.9 376.1 148.8C375.7 149.133 375.233 149.267 374.7 149.2C374.167 149.267 373.7 149.233 373.3 149.1L371.3 147.9C370.6 147.8 370.6 149 369.8 148.9C368.667 149.167 367.5 149.267 366.3 149.2C367.033 149.467 367.7 149.8 368.3 150.2C368.6 150.6 368.2 150.7 367.9 150.8L368 150.9Z" fill="black" stroke="black" stroke-width="0.4"/>
<path d="M372.6 147.6L373.3 147.3L373.8 146.6C373.8 146.6 374.4 147.6 374.1 147.9C373.7 148.3 372.6 147.6 372.6 147.6ZM374.6 145.9C374.7 145.8 374 145.3 374.6 145.2C375.1 144.5 376 145 376.7 145.2C378.166 145.6 379.4 146.3 380.4 147.3C381.7 148.8 381.9 150.8 383 152.5L384 155C384.2 155.6 385.2 156.3 384.7 157C384 157.4 383.4 157 382.8 156.7C382 156.7 382.4 157.6 382.9 157.7C383.5 157.9 383.7 158.8 382.9 158.7L380.5 158.5C379.9 158.1 380.7 157.5 381 157.3C381.4 157 382.1 156.7 382 156C382 155 381.2 154 381 153L380.3 150.5C379.9 148.8 378.3 147.5 376.7 147L374.7 146L374.6 145.9Z" fill="white"/>
<path d="M380.399 146.8L381.099 147.1L381.799 148.2L381.999 148.8C382.066 149.066 382.232 149.3 382.499 149.5L382.799 150.4L383.099 151.2L383.399 151.9C383.532 152.1 383.466 152.266 383.199 152.4L382.699 152.1C382.366 151.833 382.166 151.533 382.099 151.2L381.799 150.6L381.599 149.9L381.299 149.1L380.899 148.3C380.799 148 380.299 147.3 380.399 146.9V146.8ZM375.199 144.8L374.699 144.5L374.199 144.2C373.899 144.3 374.199 143.9 373.999 144L373.799 143.6L373.499 143.3C373.499 143.3 373.299 143.1 373.499 143.1H373.999L374.499 143.3H375.699C375.966 143.366 376.099 143.5 376.099 143.7L376.399 144.1V144.5L375.899 144.7L375.399 144.8H375.099H375.199Z" fill="#BCA76B"/>
<path d="M374.7 144.5L373.9 144.6C373.766 144.6 373.6 144.7 373.4 144.9L372.9 145.1L372.4 144.9C372.4 144.9 372.4 144.7 372.2 144.6L371.8 144.4C371.666 144.4 371.6 144.3 371.6 144.1V143.6C371.666 143.466 371.8 143.433 372 143.5H373L373.5 143.3C373.633 143.3 373.766 143.4 373.9 143.6L374.7 144.5ZM376.1 143.7L376.7 143.5L377.4 143.6C377.666 143.6 377.9 143.7 378.1 143.9L378.8 144.2L379.4 144.5L380.1 144.9L380.6 145.4C380.666 145.666 380.6 145.766 380.4 145.7L379.7 145.4L379.1 145.2L378.4 145L377.6 144.6L377.1 144.5L376.3 144C376.3 144 376 143.8 376.1 143.7Z" fill="white"/>
<path d="M379.4 148.5C378.5 148.4 377.7 148.8 376.7 148.5C376.1 148.567 375.533 148.8 375 149.2C374.2 149.1 374 150.2 373.4 150.2C372.8 150 372.2 149.6 371.6 149.8C372.8 150.267 373.933 150.867 375 151.6C375.6 152.134 376.266 152.534 377 152.8C377.4 153 378 153.5 377.8 154.1C377.6 154.7 376.5 155 376.5 155.7C376.4 156.4 375.6 156.7 375.3 157.3C374.833 157.7 374.5 158.167 374.3 158.7C374.5 159.5 375.3 158.9 375.3 158.4C375.5 157.9 376 157.1 376.5 157.4C377 158.1 377.6 157 378.2 157.3C378.6 157.834 379 157.834 379.4 157.3C379.8 157.2 380.4 156.9 380 156.3C380 155.8 380.7 155.8 381 155.5C381.5 155.3 382 154.7 381.5 154.3C381.1 153.6 381.5 152.8 381 152.3C380.5 151.6 381 150.7 380.6 150C380.4 149.334 380.033 148.8 379.5 148.4L379.4 148.5Z" fill="black"/>
<path d="M403.501 172.9C402.501 172.9 401.701 173.6 400.601 173.7C399.401 173.9 401.001 174.4 401.301 174.7C402.367 175.233 403.434 175.666 404.501 176C406.101 176.5 406.701 176.7 407.801 176.5C408.901 176.3 408.101 175.2 407.801 174.7C407.201 173.7 406.101 173.3 405.401 172.6C404.734 172.133 404.067 172.233 403.401 172.9H403.501Z" fill="#69737C"/>
<path d="M402.799 175L401.699 175.2C401.166 175.266 400.733 175.2 400.399 175C399.866 175 399.399 174.866 398.999 174.6C398.666 174.466 398.333 174.233 397.999 173.9C397.799 173.6 398.399 173.5 398.599 173.5C399.066 173.366 399.566 173.333 400.099 173.4L401.599 174.1L402.699 174.8L402.799 175ZM407.799 174.7C407.799 175.2 407.099 174.7 406.799 174.9C406.266 174.9 405.799 174.8 405.399 174.6L402.999 173.7C402.699 173.6 401.899 173.2 402.399 172.8C402.866 172.466 403.399 172.233 403.999 172.1L405.599 172.7C406.133 172.833 406.666 173.133 407.199 173.6C407.599 173.866 407.799 174.233 407.799 174.7Z" fill="white"/>
<path d="M394 169.8C393.2 170.2 392.367 170.4 391.5 170.4C390.7 170.7 389.401 170 389.101 171C388.701 171.9 389.7 172.2 390.3 172.6C391.9 173.4 393.7 173.4 395.4 173.5C395.9 173.5 397.401 173.3 396.701 172.7C395.767 172.034 395 171.234 394.4 170.3C394.2 170.167 394.067 170 394 169.8ZM402.701 170.3L401.701 170L400.4 169.4C399.8 168.934 399.201 168.6 398.601 168.4C398.334 168.134 398.367 167.967 398.701 167.9C399.001 167.9 399.1 167.5 399.4 167.8C399.867 168 400.234 168.3 400.5 168.7C400.9 169.1 401.301 169.367 401.701 169.5C402.234 169.7 402.567 169.967 402.701 170.3ZM401.5 171.9C401.5 171.9 400.001 172.4 399.201 172.1L397.601 171.6C396.934 171.267 396.334 170.867 395.8 170.4C395.4 169.9 395.9 169.1 396.5 169.4C397 169.2 396.8 168.4 397.4 168.8C398.2 169.067 398.967 169.5 399.701 170.1L401 171.2L401.5 171.9ZM389.701 160.8C390.701 161.1 392.001 161.6 392.701 162.5C393.501 163.6 391.7 164.3 390.9 163.6C389.567 162.934 388.2 162.367 386.8 161.9C385.4 162.1 387.4 162.9 387.8 163.2C388.467 163.6 388.834 164.167 388.9 164.9C387.9 165.7 386.9 164.9 385.8 164.8C384.8 164.7 384.1 163.8 383.4 163C382.934 162.334 382.367 162.134 381.701 162.4C381.701 163.4 382.301 163.6 382.701 164.4C383.101 164.8 384.601 166 383.201 166.1C382.65 165.97 382.134 165.724 381.686 165.379C381.238 165.034 380.868 164.598 380.601 164.1C380.001 163.5 379.6 162.1 380.8 162C381.934 161.334 383.167 161 384.5 161C385.9 160.9 387.4 161.1 388.8 160.7C388.9 160.7 389.801 160.3 389.701 160.7V160.8Z" fill="#69737C"/>
<path d="M378.999 161.6L378.699 162.5V163.6L378.999 164.5L379.699 165.2L380.399 165.8L381.099 166.1L381.899 166.3C382.233 166.3 382.466 166.2 382.599 166C382.799 165.8 382.733 165.666 382.399 165.6C382.133 165.6 381.933 165.433 381.799 165.1C381.466 164.966 381.266 164.733 381.199 164.4L380.799 163.8L380.299 163.2L379.599 162.5L379.099 161.8L378.999 161.6ZM388.299 165.3L385.999 164.8C385.189 164.526 384.488 164 383.999 163.3L382.099 161.8C381.399 161.6 381.099 162.6 381.599 163L382.999 164.7L384.799 166C385.653 166.492 386.614 166.767 387.599 166.8C388.266 166.666 388.733 166.333 388.999 165.8C388.933 165.466 388.699 165.3 388.299 165.3ZM386.199 170C385.692 170.132 385.154 170.06 384.699 169.8C384.233 169.466 383.899 169.133 383.699 168.8C383.299 168.2 382.866 167.866 382.399 167.8C381.799 167.6 381.466 167.833 381.399 168.5C381.599 168.9 381.866 169.233 382.199 169.5C382.733 170.033 383.333 170.366 383.999 170.5C384.399 170.766 384.766 170.866 385.099 170.8C385.633 170.933 385.999 170.833 386.199 170.5V170ZM391.399 168.5C391.933 168.766 392.099 169.166 391.899 169.7C391.714 169.917 391.484 170.091 391.225 170.212C390.966 170.333 390.685 170.397 390.399 170.4L388.899 170.3L387.399 169.6C386.999 169.333 386.666 168.933 386.399 168.4C386.199 168 386.999 167.8 387.299 167.9C387.766 168.166 388.199 168.5 388.599 168.9L389.899 169.2C390.366 169.4 390.733 169.333 390.999 169L391.399 168.5ZM395.999 167.4C396.266 167.933 396.099 168.366 395.499 168.7H394.199L392.399 167.8C391.933 167.6 391.566 167.333 391.299 167C391.099 166.5 391.699 166 392.199 166.3C392.866 166.433 393.566 166.666 394.299 167L395.799 167.4H395.999Z" fill="white"/>
<path d="M394.601 183.4L394.801 183.2L395.001 182.9C396.301 182.5 398.201 183.8 399.801 182.9C402.813 181.443 406.172 180.854 409.501 181.2C411.701 182.1 413.901 183.8 416.401 183C419.201 183.7 420.401 179.8 423.201 181C423.201 180 410.901 176.4 408.001 173.4C405.901 172.4 405.101 170.1 403.801 168.5C401.925 166.183 399.776 164.101 397.401 162.3C395.801 160.8 393.901 160.1 391.901 159.1C389.701 158.1 386.701 157.6 385.501 155.3C385.056 152.379 383.999 149.585 382.401 147.1C381.201 145.2 379.801 143.1 377.401 142.9C375.486 142.178 373.408 142.005 371.401 142.4C369.001 143.3 367.701 145.2 365.901 146.9C364.201 149 367.001 150.6 367.701 153.3C368.801 155.3 370.001 155.9 370.901 157.9C369.601 160.5 370.401 164.2 370.601 166.9C370.501 169.6 372.301 171.6 373.701 173.6C375.601 174.6 377.001 176.4 379.001 177.4" stroke="black" stroke-width="0.7"/>
</g>
<defs>
<clipPath id="clip0_3921_20554">
<rect width="512" height="512" fill="white"/>
</clipPath>
</defs>
</svg>
