<svg width="512" height="512" viewBox="0 0 512 512" fill="none" xmlns="http://www.w3.org/2000/svg">
<g clip-path="url(#clip0_3921_20796)">
<path d="M0 0H512V512H0V0Z" fill="#EE1C25"/>
<path d="M0 0H512V341.3H0V0Z" fill="#0B4EA2"/>
<path d="M0 0H512V170.7H0V0Z" fill="white"/>
<path d="M203.199 395.5C157.299 373.5 91.6992 329.5 91.6992 242.7C91.6992 155.9 95.7992 116.5 95.7992 116.5H310.599C310.599 116.5 314.799 155.9 314.799 242.7C314.799 329.5 248.999 373.4 203.199 395.5Z" fill="white"/>
<path d="M203.2 384C161.1 363.7 100.9 323.5 100.9 243.8C100.9 164.1 104.7 128 104.7 128H301.7C301.7 128 305.5 164.2 305.5 243.8C305.5 323.4 245.3 363.8 203.2 384Z" fill="#EE1C25"/>
<path d="M212.199 223C223.599 223.2 245.899 223.6 265.699 217C265.699 217 265.099 224 265.099 232.3C265.099 240.6 265.699 247.6 265.699 247.6C248.291 242.804 230.237 240.779 212.199 241.6V285.6H194.199V241.6C176.161 240.779 158.107 242.804 140.699 247.6C140.699 247.6 141.299 240.6 141.299 232.3C141.299 224 140.699 217 140.699 217C160.599 223.6 182.799 223.2 194.199 223V195.3C179.857 194.948 165.558 197.01 151.899 201.4C151.899 201.4 152.399 194.4 152.399 186.1C152.399 177.8 151.899 170.7 151.899 170.7C168.899 176.4 183.799 176.9 194.099 176.7C193.599 159.3 188.499 137.3 188.499 137.3C188.499 137.3 198.999 138.1 203.199 138.1C207.399 138.1 217.899 137.3 217.899 137.3C217.899 137.3 212.799 159.3 212.199 176.8C226.538 177.222 240.844 175.193 254.499 170.8C254.499 170.8 253.999 177.8 253.999 186.1C253.999 194.4 254.499 201.4 254.499 201.4C237.499 195.7 222.599 195.3 212.199 195.4V223Z" fill="white"/>
<path d="M203.199 280.8C181.999 280.8 170.599 310.2 170.599 310.2C170.599 310.2 164.299 296.2 146.999 296.2C135.299 296.2 126.699 306.7 121.199 316.4C142.499 350.2 176.499 371.1 203.199 384C229.899 371.1 263.899 350.2 285.199 316.3C279.699 306.7 271.099 296.3 259.399 296.3C242.099 296.3 235.799 310.3 235.799 310.3C235.799 310.3 224.399 280.8 203.199 280.8Z" fill="#0B4EA2"/>
</g>
<defs>
<clipPath id="clip0_3921_20796">
<rect width="512" height="512" fill="white"/>
</clipPath>
</defs>
</svg>
