<svg width="512" height="512" viewBox="0 0 512 512" fill="none" xmlns="http://www.w3.org/2000/svg">
<g clip-path="url(#clip0_3921_20902)">
<path d="M0 0H512V512H0V0Z" fill="#12AD2B"/>
<path d="M0 146.3H512V365.7H0V146.3Z" fill="#FFCE00"/>
<path d="M0 0V512L192 256" fill="#D21034"/>
<path d="M276.9 195.166L256.402 258.253L287.946 268.503" fill="#000001"/>
<path d="M276.9 195.166L297.399 258.253L265.855 268.503" fill="#000001"/>
<path d="M339.986 241.002H273.652V274.169" fill="#000001"/>
<path d="M339.986 241.002L286.321 279.992L266.826 253.159" fill="#000001"/>
<path d="M315.889 315.165L295.39 252.078L263.847 262.327" fill="#000001"/>
<path d="M315.889 315.165L262.223 276.175L281.718 249.342" fill="#000001"/>
<path d="M237.908 315.165L291.574 276.175L272.078 249.342" fill="#000001"/>
<path d="M237.908 315.165L258.407 252.078L289.95 262.327" fill="#000001"/>
<path d="M213.811 241.001L267.476 279.991L286.971 253.158" fill="#000001"/>
<path d="M213.811 241.001H280.145V274.168" fill="#000001"/>
<path d="M426.002 195.166L405.504 258.253L437.047 268.503" fill="#000001"/>
<path d="M426.002 195.166L446.5 258.253L414.957 268.503" fill="#000001"/>
<path d="M489.088 241.002H422.754V274.169" fill="#000001"/>
<path d="M489.088 241.002L435.423 279.992L415.927 253.159" fill="#000001"/>
<path d="M464.99 315.165L444.492 252.078L412.948 262.327" fill="#000001"/>
<path d="M464.99 315.165L411.325 276.175L430.82 249.342" fill="#000001"/>
<path d="M387.01 315.165L440.675 276.175L421.18 249.342" fill="#000001"/>
<path d="M387.01 315.165L407.508 252.078L439.052 262.327" fill="#000001"/>
<path d="M362.912 241.001L416.577 279.991L436.073 253.158" fill="#000001"/>
<path d="M362.912 241.001H429.246V274.168" fill="#000001"/>
</g>
<defs>
<clipPath id="clip0_3921_20902">
<rect width="512" height="512" fill="white"/>
</clipPath>
</defs>
</svg>
