<svg width="512" height="512" viewBox="0 0 512 512" fill="none" xmlns="http://www.w3.org/2000/svg">
<g clip-path="url(#clip0_3921_21849)">
<mask id="mask0_3921_21849" style="mask-type:luminance" maskUnits="userSpaceOnUse" x="0" y="0" width="513" height="513">
<path d="M0 0H512.01V512.01H0V0Z" fill="white"/>
</mask>
<g mask="url(#mask0_3921_21849)">
<path fill-rule="evenodd" clip-rule="evenodd" d="M0 0H768.015V256.005H341.34L0 0Z" fill="#ED2939"/>
<path fill-rule="evenodd" clip-rule="evenodd" d="M0 512.01H768.015V256.005H341.34L0 512.01Z" fill="#002395"/>
<path fill-rule="evenodd" clip-rule="evenodd" d="M0 0L341.34 256.005L0 512.01V0Z" fill="white"/>
<path d="M172.263 193.198L172.377 189.329C172.377 189.329 170.215 185.916 172.718 182.275C172.718 182.275 167.484 179.431 168.736 175.107C168.736 175.107 163.957 173.969 164.299 168.735C164.299 168.735 159.178 168.394 158.61 163.957C158.61 163.957 153.489 164.867 151.328 160.543C151.328 160.543 146.321 161.567 144.842 158.04C144.842 158.04 140.063 159.747 137.105 155.651C137.105 155.651 131.985 157.699 129.823 153.83C127.775 157.699 122.655 155.651 122.655 155.651C119.811 159.747 114.918 157.926 114.918 157.926C113.553 161.567 108.546 160.543 108.546 160.543C106.271 164.753 101.151 163.957 101.151 163.957C100.696 168.28 95.4617 168.621 95.4617 168.621C95.7062 170.034 95.4084 171.487 94.6279 172.689C93.8473 173.892 92.6416 174.755 91.2518 175.107C92.3896 179.431 87.2695 182.161 87.2695 182.161C89.7727 185.802 87.6109 189.216 87.6109 189.216V192.857L172.263 193.198Z" fill="#FFFF00"/>
<path d="M172.296 193.242V189.231C172.296 189.231 170.233 185.792 172.755 182.353C172.755 182.353 167.482 179.488 168.743 175.132C168.743 175.132 163.928 173.986 164.272 168.713C164.272 168.713 159.113 168.369 158.54 164.014C158.54 164.014 153.496 164.816 151.318 160.575C151.318 160.575 146.274 161.492 144.899 158.054C144.899 158.054 139.97 159.773 137.104 155.646C137.104 155.646 131.945 157.71 129.882 153.812C127.704 157.71 122.545 155.646 122.545 155.646C119.794 159.658 114.865 157.939 114.865 157.939C113.489 161.492 108.56 160.575 108.56 160.575C106.267 164.816 101.109 164.014 101.109 164.014C100.65 168.255 95.4919 168.599 95.4919 168.599C95.7071 170.004 95.3922 171.439 94.6084 172.626C93.8246 173.812 92.6277 174.664 91.2504 175.018C92.3968 179.373 87.2383 182.124 87.2383 182.124C89.7602 185.792 87.5822 189.231 87.5822 189.231V192.899L172.296 193.242Z" stroke="black" stroke-width="0.343883"/>
<path d="M170.328 188.306C157.016 186.94 141.655 183.754 129.822 190.467C121.858 185.802 110.821 186.03 101.377 187.054C96.3708 187.851 90.3404 187.851 84.9928 188.761L84.1963 188.875C74.4112 189.557 65.6502 186.599 57.2305 182.958C59.9612 198.091 62.9195 213.679 64.3986 229.608C67.5844 253.046 53.2482 272.844 59.051 296.055C62.5781 307.206 74.8664 313.691 86.1306 314.943C96.9252 315.651 107.651 317.172 118.217 319.494C120.131 319.965 121.997 320.612 123.792 321.428C126.244 322.482 128.453 324.031 130.277 325.979C136.421 319.722 145.296 318.015 154.171 317.105C169.873 315.17 189.443 316.194 199.114 301.858V301.062C204.348 293.097 203.665 281.036 201.39 272.048C201.162 268.976 200.366 266.245 199.911 263.173C190.239 237.686 198.545 209.014 202.641 183.299C197.635 186.03 191.946 187.395 186.257 188.761C181.63 189.216 176.927 189.216 172.148 188.761L170.328 188.306Z" fill="#FF0000"/>
<path d="M190.24 261.58C190.126 263.287 191.036 264.539 191.378 266.132C193.198 277.282 195.019 292.073 183.413 299.014C170.897 306.979 154.172 303.565 139.494 307.889C136.536 308.685 132.44 311.302 130.392 313.236C129.026 312.44 127.775 311.075 126.068 310.278C113.893 303.907 98.1918 305.955 84.5382 302.541C77.7114 300.266 70.5433 295.032 68.7228 287.977C64.2854 269.545 74.9807 253.843 73.7291 235.639C72.8536 221.97 70.7207 208.41 67.3574 195.133C78.384 199.948 90.6532 201.143 102.402 198.546C111.277 197.408 121.744 197.408 129.936 201.049C134.724 199.232 139.74 198.084 144.842 197.636C154.285 198.546 164.412 200.253 174.083 200.253C180.321 199.797 186.419 198.176 192.06 195.474C188.647 217.092 182.275 239.848 190.126 261.467" fill="#80CFE1"/>
<path d="M171.012 265.904L170.898 245.537H173.401L142.225 225.398V215.044H145.184L129.596 203.894L114.122 215.044H117.08V225.398L86.3594 245.537H88.635L88.8625 265.79H170.784" fill="white"/>
<path d="M170.92 265.913V245.51H173.327L142.376 225.451L142.261 215.135H145.242L129.652 203.902L114.176 215.021H117.157L117.271 225.451L86.3203 245.51H88.8422V265.798L170.92 265.913Z" stroke="black" stroke-width="1.37553"/>
<path d="M180.57 292.529V298.901H80.4434V292.415H180.57" fill="white"/>
<path d="M180.549 292.62V298.925H80.3594V292.506H180.549V292.62Z" stroke="black" stroke-width="1.37553"/>
<path d="M87.0426 292.187V270.569H91.0249L90.7974 292.415L91.0249 270.797L85.3359 270.683V266.132H174.767V270.683H169.192H173.288V292.301" fill="white"/>
<path d="M87.0086 292.161V270.612H91.0207L90.7915 292.39L91.0207 270.841L85.2891 270.612V266.027L174.703 266.142V270.727H169.201L169.315 292.505L169.086 270.727H173.213L173.327 292.276" stroke="black" stroke-width="1.37553"/>
<path d="M106.266 286.888V271.873H94.1152V286.774L106.152 286.888" stroke="black" stroke-width="1.37553"/>
<path d="M97.5541 274.968V283.68H103.056V274.968H97.4395M165.073 286.889L164.958 271.988H153.037V286.889H165.073Z" stroke="black" stroke-width="1.37553"/>
<path d="M156.248 275.083V283.794H161.751V275.083H156.248ZM164.96 262.474V247.573H152.924V262.474H164.96Z" stroke="black" stroke-width="1.37553"/>
<path d="M156.132 250.668V259.38H161.634V250.668H156.132ZM106.152 262.474V247.459H94.1152V262.36H106.152V262.474Z" stroke="black" stroke-width="1.37553"/>
<path d="M127.932 262.474V247.459H115.895V262.36H127.932M97.4395 250.554V259.265H102.942V250.554H97.4395Z" stroke="black" stroke-width="1.37553"/>
<path d="M119.105 250.554V259.265H124.608V250.554H119.105ZM144.669 262.474V247.574L132.632 247.459V262.36L144.669 262.474Z" stroke="black" stroke-width="1.37553"/>
<path d="M135.842 250.554V259.265H141.459V250.554H135.842Z" stroke="black" stroke-width="1.37553"/>
<path d="M147.687 257.939L147.801 292.528H113.098L112.984 257.825H147.687" fill="white"/>
<path d="M112.688 267.747H147.765M117.044 292.506V267.977M143.524 292.506V268.091M147.651 257.89L147.765 292.506H113.031L112.917 257.89H147.651ZM160.375 243.104L140.887 228.89H118.763L99.2754 243.104H160.375ZM120.483 216.97V225.681H139.053V216.97H120.483Z" stroke="black" stroke-width="1.37553"/>
<path d="M129.652 206.883L139.969 214.219H119.449L129.766 206.883M125.525 219.147V223.503H134.008V219.147H125.525Z" stroke="black" stroke-width="1.37553"/>
<path d="M171.352 202.073C174.311 202.073 174.993 214.134 174.993 220.164C179.061 221.748 182.689 224.284 185.575 227.56H157.357C160.178 224.314 163.726 221.78 167.711 220.164C167.711 214.134 168.394 201.959 171.352 202.073Z" fill="white"/>
<path d="M137.334 258.806H139.855L139.053 260.296C139.053 260.296 140.314 261.786 139.053 263.62L139.741 264.767H137.448L138.021 263.62C138.021 263.62 136.875 261.557 138.021 260.182L137.334 258.921M171.265 202.068C174.245 202.068 174.933 214.104 174.933 220.179C177.455 220.866 183.072 224.42 185.48 227.514H157.28C159.687 224.42 165.304 220.866 167.711 220.179C167.711 214.104 168.399 202.068 171.265 202.068ZM114.521 258.806H117.043L116.356 260.182C116.356 260.182 117.502 261.786 116.356 263.62L117.043 264.767H114.521L115.209 263.62C115.209 263.62 114.063 261.557 115.209 260.182L114.521 258.806ZM119.68 258.806H122.202L121.514 260.182C121.514 260.182 122.66 261.786 121.514 263.62L122.202 264.767H119.68L120.368 263.62C120.368 263.62 119.221 261.557 120.368 260.182L119.68 258.806ZM125.412 258.806H127.819L127.131 260.182C127.131 260.182 128.277 261.786 127.131 263.62L127.819 264.767H125.412L125.985 263.62C125.985 263.62 124.838 261.557 125.985 260.182L125.297 258.806H125.412ZM131.716 258.806H134.238L133.436 260.296C133.436 260.296 134.697 261.786 133.436 263.62L134.124 264.767H131.716L132.404 263.62C132.404 263.62 131.258 261.557 132.404 260.182L131.716 258.806ZM142.951 258.921H145.472L144.67 260.296C144.67 260.296 145.931 261.786 144.67 263.62L145.358 264.767H143.065L143.638 263.62C143.638 263.62 142.492 261.557 143.638 260.182L142.951 258.921Z" stroke="black" stroke-width="1.37553"/>
<path d="M130.505 336.789C142.945 337.114 155.324 334.948 166.915 330.417L183.526 328.938L183.754 348.963C169.873 356.7 137.673 358.407 130.505 358.293C123.451 358.293 90.7957 356.7 76.8008 348.963L77.0283 328.824L93.5264 330.303C105.318 334.843 117.871 337.083 130.505 336.903" fill="#FFFF00"/>
<path d="M130.454 336.864C143.523 336.864 159.457 334.228 167.023 330.331L183.415 328.955L183.759 349.014C169.888 356.694 137.562 358.413 130.569 358.299C123.576 358.184 90.7913 356.694 76.6914 348.9L76.9207 328.841L93.4279 330.331C100.994 334.228 117.501 336.864 130.454 336.864Z" stroke="black" stroke-width="0.343883"/>
<path d="M34.3614 251.112L48.9252 255.664L44.4878 279.216L30.8342 281.378C30.8342 281.378 28.5586 268.976 34.3614 251.112Z" fill="#FFFF00"/>
<path d="M34.3927 251.127L48.8365 255.712L44.4804 279.209L30.7244 281.387C30.7244 281.387 28.4317 269.008 34.3927 251.127Z" stroke="black" stroke-width="0.343883"/>
<path d="M44.4876 278.988L30.834 281.378L39.4813 268.976L44.4876 278.988Z" fill="#7E7E7E"/>
<path d="M44.4806 278.98L30.7246 281.272L39.4367 269.008L44.4806 278.98Z" stroke="black" stroke-width="0.343883"/>
<path d="M25.715 268.065L39.71 269.089C40.0513 280.923 41.4167 326.093 95.4622 328.596L93.7555 345.094C27.9906 345.777 23.0981 289.57 25.715 268.065Z" fill="#FFFF00"/>
<path d="M77.0365 348.441L93.5437 344.888M25.6808 268.091L39.666 269.008C40.0099 280.928 41.3855 326.09 95.4925 328.611L93.773 345.117C27.9734 345.804 23.0442 289.64 25.6808 268.091Z" stroke="black" stroke-width="0.343883"/>
<path d="M225.397 251.227L210.947 255.778L215.498 279.33L229.266 281.606C229.266 281.606 231.541 269.09 225.397 251.227Z" fill="#FFFF00"/>
<path d="M225.372 251.241L210.928 255.826L215.513 279.324L229.269 281.616C229.269 281.616 231.562 269.237 225.372 251.241Z" stroke="black" stroke-width="0.343883"/>
<path d="M215.5 279.102L229.267 281.491L220.506 269.203L215.5 279.102Z" fill="#7E7E7E"/>
<path d="M215.512 279.095L229.268 281.502L220.441 269.237L215.512 279.095Z" stroke="black" stroke-width="0.343883"/>
<path d="M234.272 268.18L220.278 269.204C220.05 281.037 219.026 326.321 164.98 328.711L166.801 345.095C232.566 345.891 237.117 289.684 234.272 268.18Z" fill="#FFFF00"/>
<path d="M183.53 348.44L167.022 345.002M234.198 268.205L220.212 269.122C219.983 281.043 219.066 326.318 164.959 328.725L166.793 345.116C232.593 345.919 237.063 289.754 234.198 268.32V268.205Z" stroke="black" stroke-width="0.343883"/>
<path d="M121.745 346.801C121.366 347.029 120.873 347.104 120.266 347.029L117.649 346.915L117.876 343.615L120.493 343.729C121.024 343.729 121.403 343.843 121.631 344.07C122.238 344.298 122.465 344.791 122.314 345.549C122.314 346.156 122.124 346.536 121.745 346.687M117.307 351.921L117.649 347.939L120.607 348.166C121.423 348.219 122.23 347.976 122.883 347.484C123.414 346.953 123.679 346.308 123.679 345.549C123.744 345.178 123.715 344.797 123.596 344.439C123.477 344.082 123.271 343.76 122.996 343.501C122.42 343.017 121.7 342.737 120.948 342.705L116.625 342.477L116.056 351.807L117.307 351.921ZM126.865 344.184H130.051L131.189 344.412C131.568 344.639 131.757 345.094 131.757 345.777C131.757 346.801 131.644 346.915 131.302 347.142C130.923 347.37 130.43 347.484 129.823 347.484H126.751V344.184M126.751 352.49V348.508H129.709C130.316 348.508 130.733 348.584 130.961 348.735C131.416 348.887 131.644 349.266 131.644 349.873V351.466L131.757 352.262L131.871 352.604H133.464V352.376L133.009 351.807V349.759C133.009 349.152 132.857 348.773 132.554 348.621L131.757 347.939L132.895 347.142L133.123 345.663C133.123 344.601 132.668 343.881 131.757 343.501L129.937 343.16H125.5V352.49H126.751ZM136.764 350.556C136.155 349.813 135.797 348.897 135.74 347.939C135.74 346.649 136.005 345.663 136.536 344.981C137.143 344.222 137.94 343.843 138.926 343.843C139.912 343.843 140.746 344.146 141.429 344.753C142.036 345.36 142.415 346.232 142.567 347.37C142.567 348.432 142.339 349.342 141.884 350.101C141.429 350.859 140.594 351.314 139.381 351.466C138.243 351.466 137.371 351.163 136.764 350.556ZM135.171 344.639C134.576 345.632 134.298 346.784 134.374 347.939C134.439 349.196 134.919 350.397 135.74 351.352C136.215 351.779 136.775 352.1 137.382 352.296C137.99 352.492 138.632 352.558 139.267 352.49C139.964 352.503 140.655 352.357 141.286 352.061C141.917 351.765 142.472 351.328 142.908 350.783C143.59 349.739 143.91 348.5 143.818 347.256C143.862 346.087 143.455 344.947 142.68 344.07C141.77 343.008 140.481 342.553 138.812 342.705C137.143 342.705 135.929 343.35 135.171 344.639ZM179.204 331.099C179.996 330.924 180.821 330.963 181.593 331.213C182.655 331.592 183.414 332.351 183.869 333.489L182.503 333.716C182.415 333.424 182.269 333.153 182.073 332.918C181.878 332.683 181.637 332.491 181.366 332.351C180.745 332.127 180.074 332.087 179.431 332.237C178.578 332.366 177.806 332.813 177.269 333.489C176.814 334.247 176.701 335.271 176.928 336.561C177.08 337.699 177.459 338.533 178.066 339.064C178.749 339.747 179.621 339.974 180.683 339.747C181.478 339.621 182.204 339.218 182.731 338.609C183.262 338.078 183.414 337.281 183.186 336.219L180.228 336.675L180 335.651L184.21 334.968L185.007 339.974H184.21L183.755 338.836L182.617 339.974C182.021 340.444 181.317 340.757 180.569 340.884C179.496 341.029 178.407 340.787 177.497 340.202C176.468 339.329 175.782 338.12 175.563 336.788C175.324 335.459 175.566 334.087 176.245 332.92C176.952 331.946 178.016 331.291 179.204 331.099ZM188.761 330.417L191.72 329.279L192.857 329.165C193.388 329.165 193.768 329.506 193.995 330.189C194.223 330.872 194.223 331.327 193.995 331.554L192.744 332.351L189.899 333.489L188.761 330.417ZM191.72 338.154L190.24 334.399L193.085 333.375L194.223 333.147C194.678 333.147 195.057 333.451 195.36 334.058L195.929 335.537L196.271 336.219L196.498 336.447L197.977 335.878V335.764C197.75 335.764 197.522 335.613 197.295 335.309L196.953 334.627L196.498 333.489C196.271 332.958 196.005 332.579 195.702 332.351L194.678 332.123C195.057 331.82 195.285 331.441 195.36 330.986L195.247 329.62C194.792 328.558 194.071 328.027 193.085 328.027L191.264 328.255L187.055 329.848L190.468 338.609L191.72 338.154ZM202.642 333.603L197.295 325.638L203.211 321.883L203.894 322.907L199.001 325.979L200.708 328.255L205.146 325.524L205.714 326.434L201.277 329.279L203.098 331.896L207.99 328.71L208.673 329.62L202.642 333.489M207.421 319.721L208.9 318.015C209.659 317.256 210.417 316.915 211.176 316.991C212.161 317.111 213.08 317.551 213.793 318.242C214.445 318.818 214.919 319.568 215.158 320.404C215.31 321.011 215.31 321.542 215.158 321.997L214.476 322.793L212.883 324.5L207.421 319.721ZM215.386 323.362C216.599 322.225 216.865 320.897 216.182 319.38C215.779 318.51 215.198 317.735 214.476 317.104C213.612 316.35 212.542 315.874 211.403 315.739C210.799 315.661 210.185 315.747 209.624 315.987C209.064 316.227 208.578 316.613 208.218 317.104L205.601 319.835L212.883 326.207L215.386 323.362ZM220.961 316.08L212.655 311.188L213.338 310.05L221.644 314.943L220.961 316.08ZM224.261 310.391L215.158 306.864L217.889 300.493L219.027 300.948L216.751 306.182L219.482 307.206L221.53 302.427L222.668 302.882L220.62 307.661L223.578 308.798L225.854 303.565L226.991 304.02L224.261 310.391ZM228.357 299.355L218.913 297.307L219.254 295.828L227.902 292.869L220.278 291.276L220.506 290.139L229.95 292.073L229.722 293.552L220.961 296.51L228.584 298.217L228.357 299.355ZM227.56 287.408L227.674 286.27C228.281 286.27 228.736 286.156 229.039 285.929C229.798 285.625 230.177 284.943 230.177 283.881V282.515C229.95 281.757 229.494 281.34 228.812 281.264C228.281 281.264 227.902 281.378 227.674 281.605C227.371 281.908 227.143 282.402 226.991 283.084L226.536 284.222L225.74 286.042C225.285 286.649 224.64 286.877 223.805 286.725C223.01 286.599 222.285 286.196 221.757 285.587C221.226 285.056 221.037 284.222 221.189 283.084C221.189 282.174 221.492 281.378 222.099 280.695C222.706 280.088 223.502 279.823 224.488 279.898V281.036C223.881 281.036 223.464 281.15 223.237 281.378C222.63 281.681 222.326 282.326 222.326 283.312C222.25 283.919 222.326 284.45 222.554 284.905C222.781 285.36 223.161 285.549 223.692 285.474C224.223 285.549 224.602 285.398 224.83 285.018L225.512 283.426L225.854 282.174C226.081 281.491 226.347 280.998 226.65 280.695C226.908 280.42 227.23 280.214 227.588 280.095C227.945 279.976 228.327 279.948 228.698 280.012C229.76 280.164 230.519 280.619 230.974 281.378C231.353 282.136 231.467 283.046 231.315 284.108C231.325 284.601 231.229 285.09 231.033 285.541C230.836 285.993 230.544 286.397 230.177 286.725C229.81 287.011 229.389 287.219 228.939 287.337C228.489 287.454 228.02 287.478 227.56 287.408ZM32.0862 286.725L32.3137 287.863C31.7828 288.015 31.4035 288.242 31.1759 288.546C30.5691 288.925 30.3416 289.683 30.4933 290.821L30.9484 292.073C31.4035 292.831 31.9724 293.135 32.6551 292.983C33.1102 292.831 33.4515 292.604 33.6791 292.3L33.9067 290.707V289.342L34.3618 287.522C34.5893 286.915 35.1203 286.536 35.9547 286.384C36.7566 286.299 37.5628 286.5 38.2303 286.953C38.9888 287.332 39.3681 288.091 39.3681 289.228C39.5049 289.658 39.5552 290.11 39.5161 290.56C39.4771 291.009 39.3494 291.446 39.1405 291.845C38.8371 292.528 38.1545 292.983 37.0925 293.211L36.865 292.073C37.3201 291.921 37.6993 291.694 38.0028 291.39C38.3062 290.935 38.4199 290.252 38.3441 289.342C38.2682 288.659 38.0027 288.166 37.5476 287.863C37.4078 287.707 37.2276 287.592 37.0268 287.532C36.826 287.472 36.6125 287.468 36.4098 287.522C36.1986 287.555 36.0011 287.648 35.8401 287.789C35.6791 287.93 35.5611 288.113 35.4996 288.318L35.272 290.025V291.39L34.8169 292.983C34.6414 293.293 34.3955 293.558 34.099 293.755C33.8026 293.953 33.4639 294.078 33.1102 294.121C31.9724 294.348 31.138 294.121 30.607 293.438C29.9788 292.741 29.5814 291.867 29.4692 290.935C29.3166 290.464 29.2681 289.966 29.327 289.475C29.386 288.984 29.551 288.512 29.8106 288.091C30.0795 287.723 30.4194 287.412 30.8103 287.178C31.2011 286.943 31.6349 286.789 32.0862 286.725ZM31.5173 299.127L40.7335 296.283L43.0091 302.768L41.8713 303.223L40.0508 297.876L37.2063 298.672L38.7992 303.565L37.6614 303.906L36.1823 299.013L32.9964 299.924L34.8169 305.385L33.6791 305.726L31.5173 299.127ZM35.6134 310.391L44.1469 305.84L45.0571 307.433L39.1405 313.577L47.674 312.212L48.5843 313.691L40.0508 318.242L39.4819 317.104L44.4882 314.487L45.3985 314.032L46.65 313.35L38.1165 314.829L37.5476 313.691L43.3504 307.547L43.0091 307.774L42.0988 308.23L41.1886 308.798L36.1823 311.415L35.6134 310.278M51.4288 322.793C51.0495 322.793 50.6323 322.566 50.1772 322.111L48.3567 320.29L50.7461 318.015L52.5666 319.835L53.2493 320.859C53.4768 321.466 53.3251 321.959 52.7941 322.338C52.2632 322.718 51.8081 322.907 51.4288 322.907M44.602 323.704L47.5603 320.973L49.6083 323.249C50.1988 323.798 50.9646 324.12 51.7701 324.159C52.4957 324.07 53.1737 323.751 53.7044 323.249C54.3112 322.718 54.6146 322.073 54.6146 321.314C54.6146 320.556 54.3112 319.911 53.7044 319.38L50.7461 316.308L43.6917 322.793L44.602 323.704ZM53.1355 331.213L58.1418 323.249L64.1721 326.89L63.6032 327.914L58.5969 324.955L57.1178 327.345L61.669 330.075L60.9863 330.986L56.4351 328.255L54.7284 330.986L59.7347 333.944L59.1658 334.968L53.0217 331.213M68.1544 329.734L71.2265 330.644L72.1367 331.213C72.516 331.592 72.5919 332.085 72.3643 332.692C72.2126 333.223 71.9092 333.603 71.4541 333.83L69.9749 333.716L67.1304 332.806L68.1544 329.734ZM65.5375 337.585L66.6753 333.716L69.6336 334.627L70.7714 335.195C71.0748 335.499 71.1127 335.954 70.8852 336.561L70.5438 337.926L70.3163 338.723V338.95L71.9092 339.519V339.292L71.6816 338.609L71.9092 337.812L72.2505 336.675C72.4022 336.144 72.4022 335.764 72.2505 335.537L71.6816 334.627C72.1367 334.551 72.5539 334.361 72.9332 334.058L73.7297 332.92C74.0331 331.858 73.8434 330.986 73.1608 330.303L71.4541 329.506L67.2442 328.141L64.2859 337.016L65.4237 337.471" fill="#009FC5"/>
<path d="M78.5091 175.676C79.6469 172.945 89.7733 165.777 123.338 168.849C123.338 168.849 129.027 172.377 132.327 171.921C134.148 171.694 131.189 172.035 128.686 169.987C126.183 167.939 125.614 163.729 131.417 163.843C137.22 163.957 158.724 165.208 159.065 167.143C159.407 169.077 147.687 169.873 143.364 169.76C138.926 169.76 139.495 171.921 143.819 171.694C157.472 171.239 172.264 166.46 188.193 177.61C190.014 178.862 183.3 179.09 178.18 176.928C178.18 176.928 164.299 177.724 158.383 176.7C158.383 176.7 153.831 180.455 147.687 180.114C148.484 182.048 145.412 189.216 126.638 183.868C123.452 184.779 112.188 186.713 113.326 183.299C110.368 183.299 105.134 184.21 104.337 182.503C103.654 180.91 113.553 178.293 115.374 176.473C115.374 176.473 94.2108 176.7 90.2285 175.335C90.2285 175.335 77.7127 178.066 78.5091 175.676Z" fill="#BC715F"/>
<path d="M85.3345 205.259C85.6759 204.69 85.9035 203.552 86.8137 203.552C88.9755 204.121 90.3409 207.99 92.9578 205.487C93.868 205.259 94.0956 206.511 94.8921 206.624C95.461 208.786 97.1677 206.283 98.3055 206.397C101.288 205.141 104.582 204.824 107.749 205.487C107.749 207.535 106.156 209.81 104.108 211.062C104.108 213.11 106.043 214.475 106.043 216.637C105.701 217.433 106.043 218.685 104.905 218.913C103.312 218.571 101.833 218.457 100.581 217.661C100.429 217.433 100.24 217.282 100.012 217.206C99.7846 218.002 100.922 218.685 101.378 219.481C100.581 220.619 99.3295 219.481 98.3055 219.481C97.9641 220.278 98.3055 221.188 97.509 221.757C96.1436 221.643 95.8023 220.164 95.0058 219.481C94.2094 220.392 95.6885 220.961 95.8023 221.643C95.3472 224.374 95.3472 227.105 92.6165 228.925L90.796 229.835C90.3409 228.356 90.5684 226.308 90.2271 224.829C89.0893 226.65 88.2928 228.243 86.8137 229.722C84.8794 229.039 83.7416 226.877 83.4003 225.057C82.9732 223.997 82.8751 222.834 83.1186 221.717C83.3621 220.601 83.9361 219.584 84.7656 218.799C84.1967 217.661 82.1487 218.002 81.9211 216.409C78.9629 214.475 77.37 219.823 75.4357 216.978C75.1676 215.644 75.2022 214.266 75.537 212.947C75.8717 211.628 76.4981 210.4 77.3699 209.355C77.0286 208.217 75.6633 208.559 74.8668 207.99C72.9325 206.397 70.3156 204.804 70.4294 201.959C72.9451 200.987 75.6925 200.781 78.3249 201.369C80.9573 201.956 83.3569 203.31 85.2208 205.259" fill="#008737"/>
<path d="M87.8385 205.032C87.8385 207.307 89.4314 205.601 90.683 206.966C89.659 206.625 88.9763 208.673 88.066 207.535L87.3834 208.104C87.7247 208.9 88.5212 209.014 87.7247 209.811C86.7007 210.266 86.5869 208.9 86.018 208.445C86.0939 208.142 86.018 207.876 85.7904 207.649C85.2595 208.104 84.5768 208.293 83.7424 208.218C83.5148 207.763 83.0597 207.08 83.5148 206.852C84.3113 205.714 85.5629 207.194 86.1318 206.511C86.2456 205.828 85.6767 205.032 86.4731 204.463C86.9282 204.577 87.6109 204.349 87.8385 204.918M94.0964 206.852C94.0964 207.307 93.8688 207.99 94.4377 208.218C95.2721 207.914 95.9548 208.142 96.4858 208.9C96.6375 209.431 96.4858 209.811 96.0306 210.038L94.8928 209.811L94.4377 209.242C93.8688 209.014 93.6413 209.469 93.2999 209.697C93.5275 210.152 94.2102 210.493 93.9826 211.062C93.2999 211.745 92.9586 210.379 92.1621 210.721C91.707 210.493 92.3897 209.469 91.5932 209.128C90.5692 209.128 91.2519 210.721 90.0003 210.152C89.5452 209.583 89.0901 209.014 89.659 208.331C89.9488 208.177 90.2794 208.116 90.6052 208.157C90.9311 208.198 91.2365 208.338 91.4794 208.559C92.2759 207.763 92.2759 204.463 94.0964 206.852ZM86.3593 210.266C86.8145 210.948 86.2456 211.972 86.8145 212.769C87.9523 210.835 88.8625 213.224 90.1141 212.996C90.4554 213.452 90.1141 214.134 90.2279 214.589C88.7487 215.044 86.9282 215.5 85.6767 214.248L85.2215 214.703C86.018 215.386 86.8145 216.296 86.1318 217.548C84.994 217.775 83.2873 217.775 82.7184 216.637C82.4908 215.613 83.4011 214.931 82.377 214.248C81.6944 215.158 81.6944 216.41 80.1014 215.5C79.8812 215.391 79.6852 215.24 79.5251 215.054C79.365 214.868 79.2441 214.652 79.1697 214.418C79.0953 214.184 79.0689 213.937 79.0922 213.693C79.1154 213.449 79.1878 213.212 79.305 212.996C80.4428 211.403 82.1495 212.996 83.1735 212.2C83.4011 210.835 82.8322 209.697 84.0837 208.9C85.2215 208.787 85.6767 209.583 86.3593 210.266Z" fill="#FFFF00"/>
<path d="M90.5682 211.062C90.113 213.337 88.2926 210.948 87.4961 210.834C88.6339 208.9 89.3166 211.517 90.5682 211.062ZM96.0296 213.565C94.8918 213.906 94.8918 212.427 94.3229 211.858L94.8918 211.403L96.0296 213.565Z" fill="white"/>
<path d="M94.4377 213.11C94.6652 213.907 93.5274 214.589 94.5515 215.158L95.3479 214.362C96.334 214.514 97.1305 214.893 97.7373 215.5C98.42 217.32 96.5995 217.32 95.6893 217.775H94.779C95.0066 217.206 94.3239 216.979 94.0963 216.638C93.9009 216.619 93.7039 216.651 93.5244 216.73C93.345 216.81 93.1892 216.935 93.0723 217.093C93.2999 218.23 94.6652 219.027 93.1861 219.937C92.0483 219.937 90.3416 220.392 90.4554 218.799C90.0003 217.889 91.5932 216.524 89.8865 216.524C89.3176 217.662 88.7487 218.799 87.2695 217.662L87.3833 215.955C88.7487 215.955 90.4554 216.182 91.1381 214.589C91.4794 213.452 90.4554 212.428 91.3656 211.517C92.8448 211.176 93.6412 212.2 94.3239 213.11" fill="#FFFF00"/>
<path d="M93.2989 215.726C93.754 216.637 92.73 216.637 92.1611 217.092C91.6301 217.092 91.175 216.864 90.7957 216.409C90.5681 215.385 91.3646 215.271 91.9335 214.93C92.5024 214.589 92.8437 215.385 93.2989 215.726Z" fill="black"/>
<path d="M92.5035 216.182C92.3518 216.41 92.1622 216.524 91.9346 216.524L91.707 215.386C92.3139 215.386 92.5793 215.689 92.5035 216.296" fill="white"/>
</g>
</g>
<defs>
<clipPath id="clip0_3921_21849">
<rect width="512" height="512" fill="white"/>
</clipPath>
</defs>
</svg>
