<svg width="512" height="512" viewBox="0 0 512 512" fill="none" xmlns="http://www.w3.org/2000/svg">
<g clip-path="url(#clip0_3921_22003)">
<path d="M0 0H512V512H0V0Z" fill="#002395"/>
<path d="M0 0H312.3V210H0V0Z" fill="white"/>
<path d="M0 0H102.4V204.8H0V0Z" fill="#002395"/>
<path d="M204.801 0H307.201V204.8H204.801V0Z" fill="#ED2939"/>
<path d="M282.399 234.2L298.899 260.5H345.799V352L310.499 297L263.199 372.5H286.199L310.599 329L360.499 418.6L410.399 329L434.699 372.5H457.699L410.499 297L375.299 352V301.4H396.399L412.099 276.4H375.299V260.4H422.199L438.699 234.2H282.399ZM337.399 346.2H286.199V364.2H337.399V346.2ZM434.699 346.2H383.499V364.2H434.699V346.2Z" fill="white"/>
<path d="M360.481 436.48L376.225 485.12L334.881 455.04H386.081L344.737 485.12L360.481 436.48Z" fill="white"/>
<path d="M302.879 392.96L318.623 441.6L277.279 411.52H328.479L287.135 441.6L302.879 392.96Z" fill="white"/>
<path d="M418.08 392.96L433.824 441.6L392.48 411.52H443.68L402.336 441.6L418.08 392.96Z" fill="white"/>
<path d="M254.241 263.68L269.985 312.32L228.641 282.24H279.841L238.497 312.32L254.241 263.68Z" fill="white"/>
<path d="M466.719 263.68L482.463 312.32L441.119 282.24H492.319L450.975 312.32L466.719 263.68Z" fill="white"/>
</g>
<defs>
<clipPath id="clip0_3921_22003">
<rect width="512" height="512" fill="white"/>
</clipPath>
</defs>
</svg>
