<svg width="512" height="512" viewBox="0 0 512 512" fill="none" xmlns="http://www.w3.org/2000/svg">
<g clip-path="url(#clip0_3921_22066)">
<path d="M0 0H512V512H0V0Z" fill="#00843D"/>
<path d="M381.3 56.7002C389.812 60.281 397.446 65.6642 403.678 72.4789C409.909 79.2936 414.59 87.3779 417.397 96.1752C420.204 104.973 421.071 114.274 419.939 123.438C418.806 132.603 415.7 141.413 410.836 149.262C405.971 157.111 399.463 163.813 391.76 168.905C384.057 173.998 375.341 177.36 366.214 178.761C357.087 180.162 347.764 179.567 338.888 177.019C330.012 174.471 321.794 170.029 314.8 164C328.851 170.08 344.617 170.913 359.23 166.348C373.843 161.783 386.332 152.123 394.423 139.127C402.514 126.13 405.67 110.66 403.317 95.5323C400.964 80.4047 393.257 66.6247 381.6 56.7002H381.3ZM320.8 103.5L327.6 81.2002L308.7 95.2002H332.5L313.6 81.2002L320.8 103.5ZM320.8 70.7002L327.6 48.7002L308.7 62.3002H332.5L313.6 48.7002L320.8 70.7002ZM352.9 87.7002L360.1 65.4002L341.2 79.0002H364.6L345.7 65.4002L352.9 87.7002ZM287.9 119.4L295.5 97.4002L276.5 111.1H299.6L280.7 97.5002L287.9 119.4ZM320.4 136.4L328 114.1L309 127.7H332.1L313.2 114.1L320.4 136.4Z" fill="white"/>
<path d="M92.1992 0H230.499V512H92.1992V0Z" fill="#D22630"/>
<path d="M125.801 0H121.301L112.601 7.6L109.201 4.6H112.201L111.801 0.8H105.801L95.6008 11.3V15.1H100.601V12.1L102.801 14.4L97.1008 18.9L99.8008 21.5L92.2008 29.1V33.6L105.401 21.6L102.801 18.9L108.101 13.9L103.501 9.4L106.501 6.4L112.601 12.1L125.801 0ZM91.8008 0V9.4L95.2008 6.4V2.6H98.6008L101.301 0H91.8008ZM117.501 0H113.701L114.501 2.3L117.501 0Z" fill="#383739"/>
<path d="M125.401 0H121.701L112.601 8.3L108.401 4.5H112.201L111.501 1.5H106.501L96.0012 11.3V14.3H99.8012V10.6L103.501 14L97.9012 18.9L100.501 21.5L92.2012 29.1V33.3L104.701 21.5L102.001 19L107.701 14L102.701 9.5L106.601 6.1L112.601 11.8L125.401 0ZM92.2012 0V9L94.8012 6V2.3H98.6012L100.601 0H92.2012ZM116.801 0H114.501V1.5L116.801 0Z" fill="#FFC72C"/>
<path d="M92.1992 59.2998V64.2998L99.7992 71.7998L96.9992 73.9998L102.699 79.2998L100.399 81.4998V78.0998H95.4992V81.9998L106.099 92.1998H111.699L112.099 88.3998H109.499L113.299 85.3998L121.599 92.9998L112.899 100.9L109.499 97.8998H112.499L112.099 94.0998H105.699L95.0992 104.3V108.1H100.099V105.1L102.299 106.9L96.5992 112.2L99.2992 114.9L91.6992 122V127L104.899 114.9L102.299 112.2L107.599 106.9L103.099 102.8L106.099 99.7998L112.099 105.4L125.299 93.3998L112.099 80.8998L106.099 86.4998L103.099 83.4998L107.599 79.3998L102.299 74.0998L104.899 71.7998L91.6992 59.2998H92.1992ZM92.1992 83.8998V102.8L95.1992 99.3998V95.5998H98.5992L101.299 93.2998L98.5992 90.6998H95.1992V86.8998L92.1992 83.8998ZM114.899 90.2998L113.999 92.9998L114.399 95.5998L117.399 92.9998L114.899 90.2998Z" fill="#383739"/>
<path d="M92.1992 60V64L100.499 71.5L97.8992 74.2L103.499 79.5L99.7992 82.5V78.7H95.9992V82L106.599 91.8H111.499L111.799 88.8H108.099L112.599 85L121.599 93.3L112.599 101.3L108.399 97.5H112.199L111.499 94.5H106.499L95.9992 104.3V107.7H99.7992V103.9L103.499 106.9L97.8992 112.2L100.499 114.9L92.1992 122.4V126.2L104.699 114.9L101.999 112.2L107.699 106.9L102.699 102.8L106.599 99L112.599 105L125.399 93.3L112.599 81.6L106.599 87.3L102.799 83.5L107.699 79.4L101.999 74L104.699 71.7L92.1992 60ZM92.1992 84.3V102L94.7992 99.4V95.6H98.5992L100.599 93.3L98.1992 91.1H94.7992V87.3L92.1992 84.3ZM114.899 91.1L114.499 93V94.8L116.799 93L114.899 91.1Z" fill="#FFC72C"/>
<path d="M92.2008 155.7V160.6L99.8008 168.1L97.1008 170.4L102.801 175.4L100.501 177.6V174.6H95.6008V178.3L106.201 188.2H111.801L112.201 184.8H109.601L113.401 181.8L121.701 189.3L113.001 196.9L109.601 193.9H112.601L112.201 190.4H105.801L95.2008 200.6V204.4H100.201V201L102.401 203.3L96.7008 208.6L99.4008 210.8L91.8008 218.4V222.9L105.001 210.5L102.401 208.2L107.701 202.9L103.201 198.4L106.201 195.7L112.201 201.4L125.401 188.9L112.201 176.9L106.201 182.5L103.201 179.5L107.701 174.9L102.401 170L105.001 167.4L91.8008 155.3L92.2008 155.7ZM92.2008 179.9V198.8L95.2008 195.8V192H98.6008L101.301 189.3L98.6008 186.7H95.2008V182.9L92.2008 179.9ZM114.901 186.7L114.101 189.3L114.501 192L117.501 189.3L114.901 186.7Z" fill="#383739"/>
<path d="M92.2012 156V159.8L100.501 167.8L97.9012 170.4L103.501 175.4L99.8012 178.7V175H96.0012V178.4L106.601 188.3H111.501L111.801 185.3H108.101L112.601 181.5L121.601 189.5L112.601 197.7L108.401 193.9H112.201L111.501 190.9H106.501L96.0012 200.3V203.7H99.8012V199.9L103.501 202.9L97.9012 208.2L100.501 210.5L92.2012 218V223L104.701 211.6L102.001 209L107.701 203.7L102.701 199.1L106.601 195.7L112.601 201.4L125.401 190.1L112.601 178L106.601 183.6L102.801 180.2L107.701 175.7L102.001 170.7L104.701 168.1L92.2012 156ZM92.2012 180.6V198.4L94.8012 195.7V192H98.6012L100.601 189.3L98.2012 187H94.8012V183.3L92.2012 180.6ZM114.901 187.4L114.501 189.4V191.2L116.801 189.3L114.901 187.4Z" fill="#FFC72C"/>
<path d="M92.2008 251.7V256.9L99.8008 264.1L97.1008 266.4L102.801 271.7L100.501 273.9V270.5H95.6008V274.3L106.201 284.5H111.801L112.201 280.7H109.601L113.401 277.7L121.701 285.3L113.001 293.3L109.601 290.2H112.601L112.201 286.4H105.801L95.2008 296.6V300.4H100.201V297.4L102.401 299.6L96.7008 304.6L99.4008 307.2L91.8008 314.8V319.3L105.001 307.2L102.401 304.6L107.701 299.6L103.201 295.1L106.201 292.1L112.201 297.8L125.401 285.7L112.201 273.6L106.201 279.2L103.201 276.2L107.701 271.7L102.401 266.4L105.001 264.1L91.8008 251.7H92.2008ZM92.2008 276.2V295.2L95.2008 292.1V288.3H98.6008L101.301 285.7L98.6008 283H95.2008V279.2L92.2008 276.2ZM114.901 283L114.101 285.3L114.501 287.9L117.501 285.3L114.901 283Z" fill="#383739"/>
<path d="M92.2012 252.4V256.2L100.501 264.2L97.9012 266.4L103.501 271.7L99.8012 274.7V270.9H96.0012V274.7L106.601 284.2H111.501L111.801 281.5H108.101L112.601 277.3L121.601 285.7L112.601 294L108.401 290.2H112.201L111.501 287.2H106.501L96.0012 297V300H99.8012V296.2L103.501 299.6L97.9012 304.6L100.501 307.2L92.2012 314.8V318.5L104.701 307.2L102.001 304.6L107.701 299.6L102.701 295.1L106.601 291.3L112.601 297.3L125.401 285.7L112.601 273.9L106.601 279.6L102.801 275.8L107.701 272.1L102.001 266.4L104.701 264.1L92.2012 252.4ZM92.2012 276.6V294.7L94.8012 292.1V288.3H98.6012L100.601 286L98.2012 283.8H94.8012V280L92.2012 277V276.6ZM114.901 283.8L114.501 285.3V287.2L116.801 285.2L114.901 283.8Z" fill="#FFC72C"/>
<path d="M92.2008 348V353L99.8008 360.5L97.1008 362.7L102.801 368L100.501 370.3V366.5H95.6008V370.3L106.201 380.5H111.801L112.201 376.7H109.601L113.401 373.7L121.701 381.3L113.001 389.2L109.601 386.2H112.601L112.201 382.4H105.801L95.2008 392.6V396.4H100.201V393.4L102.401 395.2L96.7008 400.5L99.4008 403.2L91.8008 410.4V415.3L105.001 403.2L102.401 400.5L107.701 395.2L103.201 391.1L106.201 388.1L112.201 393.7L125.401 381.7L112.201 369.2L106.201 374.8L103.201 371.8L107.701 367.7L102.401 362.4L105.001 360.1L92.2008 348ZM92.2008 372.6V391.5L95.2008 388.1V384.3H98.6008L101.301 382L98.6008 379.4H95.2008V375.6L92.2008 372.6ZM114.901 379L114.101 381.6L114.501 384.3L117.501 381.6L114.901 379Z" fill="#383739"/>
<path d="M92.2012 348.8V352.5L100.501 360.1L97.9012 362.7L103.501 368L99.8012 371V367.3H96.0012V370.7L106.601 380.5H111.501L111.801 377.5H108.101L112.601 373.7L121.601 382L112.601 390L108.401 386.2H112.201L111.501 383.2H106.501L96.0012 393V396.8H99.8012V393L103.501 395.6L98.0012 401L100.601 403.7L92.3012 411.2V415L104.801 403.7L102.101 401L107.801 395.7L102.801 391.6L106.701 387.8L112.701 393.8L125.501 382.1L112.701 370.4L106.701 376.1L102.901 372.3L107.801 368.1L102.101 362.8L104.801 360.6L92.2012 348.8ZM92.2012 372.9V390.7L94.8012 388.1V384.3H98.6012L100.601 382L98.2012 379.7H94.8012V376L92.2012 372.9ZM114.901 379.7L114.501 381.7V383.5L116.801 381.6L114.901 379.7Z" fill="#FFC72C"/>
<path d="M196.5 0H201.4L209.7 7.6L213.5 4.6H210L210.7 0.8H216L226.6 11.3V15.1H222.1V12.1L219.4 14.4L225.1 18.9L222.5 21.5L230 29.1V33.6L217.2 21.6L219.8 18.9L214.1 13.9L219.1 9.4L215.7 6.4L209.7 12.1L196.5 0ZM230.5 0V9.4L227.1 6.4V2.6H224.1L221.4 0H230.5ZM205.2 0H208.6L207.8 2.3L205.2 0Z" fill="#383739"/>
<path d="M197.201 0H201.001L209.701 8.3L214.201 4.5H210.501L211.201 1.5H215.401L226.701 11.3V14.7H223.001V11L219.301 14L225.301 18.9L222.701 21.5L231.001 29.1V33.3L218.001 21.9L220.701 19.3L215.401 14L219.201 9.4L215.401 6L209.401 11.7L197.201 0ZM230.501 0V9L227.501 6V2.3H224.001L221.801 0H230.501ZM205.501 0H207.801V1.5L205.501 0Z" fill="#FFC72C"/>
<path d="M230.5 59.2998V64.2998L222.5 71.7998L225.2 74.0998L219.5 79.3998L222.2 81.5998V78.1998H226.7V81.9998L216.1 92.1998H210.8L210.1 88.3998H213.1L209.7 85.3998L201.4 92.9998L209.7 100.9L213.5 97.8998H210L210.7 94.0998H216L226.6 104.3V108.1H222.1V105.1L219.4 106.9L225.1 112.2L222.5 114.9L230 122V127L217.2 114.9L219.8 112.2L214.1 106.9L219.1 102.8L215.7 99.7998L209.7 105.4L196.4 93.3998L209.6 80.8998L215.6 86.4998L219.1 83.4998L214.1 79.3998L220 73.9998L217.4 71.6998L230.5 59.2998ZM230.5 83.8998V102.8L227.1 99.3998V95.5998H224.1L221.4 93.2998L224.1 90.6998H227.1V86.8998L230.5 83.8998ZM207.8 90.2998L208.2 92.9998V95.5998L205.2 92.9998L207.8 90.2998Z" fill="#383739"/>
<path d="M230.5 60V64L222.2 71.5L224.8 74.2L219.2 79.5L222.6 82.5V78.7H226.3V82L215.8 91.8H211.6L210.8 88.8H214.6L210.1 85L201.1 93.3L210.1 101.3L214.6 97.5H210.8L211.6 94.5H215.4L226 104.3V107.7H222.2V103.9L218.4 106.9L224.4 112.2L221.8 114.9L230.1 122.4V126.2L217.3 115L219.9 112.3L214.6 107L219.2 102.9L215.4 99.1L209.4 105.1L196.9 93.4L209.3 81.7L215.3 87.4L219.2 83.6L215.4 79.5L220.7 74.2L218 71.9L230.5 60ZM230.5 84.3V102L227.5 99.4V95.6H224L221.7 93.3L224 91.1H227.7V87.3L230.5 84.3ZM207.8 91V94.7L205.6 92.9L207.8 91Z" fill="#FFC72C"/>
<path d="M230.5 155.7V160.6L222.5 168.1L225.2 170.4L219.5 175.4L222.2 177.6V174.6H226.7V178.3L216.1 188.2H210.8L210.1 184.8H213.1L209.7 181.8L201.4 189.3L209.7 196.9L213.5 193.9H210L210.7 190.4H216L226.6 200.6V204.4H222.1V201L219.4 203.3L225.1 208.6L222.5 210.8L230 218.4V222.9L217.2 210.5L219.8 208.2L214.1 202.9L219.1 198.4L215.7 195.7L209.7 201.4L196.4 188.9L209.6 176.9L215.6 182.5L219.1 179.5L214.1 174.9L219.8 170L217.2 167.4L230.4 155.3L230.5 155.7ZM230.5 179.9V198.8L227.1 195.8V192H224.1L221.4 189.3L224.1 186.7H227.1V182.9L230.5 179.9ZM207.8 186.7L208.2 189.3V192L205.2 189.3L207.8 186.7Z" fill="#383739"/>
<path d="M230.5 156V159.8L222.2 167.8L224.8 170.4L219.2 175.4L222.6 178.7V175H226.3V178.4L215.8 188.3H211.6L210.8 185.3H214.6L210.1 181.5L201.1 189.5L210.1 197.7L214.6 193.9H210.8L211.6 190.9H215.4L226.7 200.4V203.8H223V200L219.3 203L225.3 208.3L222.7 210.6L231 218.1V223.1L218 211.5L220.7 208.9L215.4 203.6L219.9 199L216.1 195.6L210.1 201.3L197.6 190L210.1 177.9L216.1 183.5L219.9 180.1L215.4 175.6L220.7 170.6L218 168L230.5 156ZM230.5 180.6V198.4L227.5 195.7V192H224L221.7 189.3L224 187H227.7V183.3L230.5 180.6ZM207.8 187.4V191.2L205.6 189.3L207.8 187.4Z" fill="#FFC72C"/>
<path d="M230.5 251.7V256.9L222.5 264.1L225.2 266.4L219.5 271.7L222.2 273.9V270.5H226.7V274.3L216.1 284.5H210.8L210.1 280.7H213.1L209.7 277.7L201.4 285.3L209.7 293.3L213.5 290.2H210L210.7 286.4H216L226.6 296.6V300.4H222.1V297.4L219.4 299.6L225.1 304.6L222.5 307.2L230 314.8V319.3L217.2 307.2L219.8 304.6L214.1 299.6L219.1 294.7L215.7 291.7L209.7 297.4L196.4 285.3L209.6 273.2L215.6 278.9L219.1 275.9L214.1 271.3L219.8 266L217.2 263.7L230.4 251.3L230.5 251.7ZM230.5 276.2V295.2L227 292V288.2H224L221.3 285.6L224 282.9H227V279.1L230.5 276.2ZM207.8 283L208.2 285.3V287.9L205.2 285.3L207.8 283Z" fill="#383739"/>
<path d="M230.5 252.4V256.2L222.2 264.5L224.8 266.8L219.2 272.1L222.6 275.1V271.3H226.3V275.1L215.8 284.5H211.6L210.8 281.9H214.6L210.1 277.7L201.1 286L210.1 294.4L214.6 290.6H210.8L211.6 287.6H215.4L226 297.4V300.4H222.2V296.6L218.4 300L224.4 305L221.8 307.6L230.1 315.1V318.9L217.3 307.6L219.9 304.9L214.6 300L219.2 294.7L215.4 291L209.4 297L196.9 285.3L209.3 273.6L215.3 279.2L219.2 275.5L214.6 271.7L219.9 266L217.3 263.7L230.5 252.4ZM230.5 276.6V294.7L227.5 292.1V288.3H224L221.7 286L224 283.8H227.7V280L230.4 277L230.5 276.6ZM207.8 283.8V287.2L205.6 285.2L207.8 283.8Z" fill="#FFC72C"/>
<path d="M230.5 348V353L222.5 360.5L225.2 362.7L219.5 368L222.2 370.3V366.5H226.7V370.3L216.1 380.5H210.8L210.1 376.7H213.1L209.7 373.7L201.4 381.3L209.7 389.2L213.5 386.2H210L210.7 382.4H216L226.6 393V396.8H222.1V393.8L219.4 395.6L225.1 400.9L222.5 403.6L230 410.7V415.7L217.2 403.6L219.8 400.9L214.1 395.6L219.1 391.5L215.7 388.5L209.7 394.1L196.4 381.6L209.6 369.2L215.6 374.8L219.1 371.8L214.1 367.7L219.8 362.4L217.2 360.1L230.5 348ZM230.5 372.6V391.5L227 388V384.2H224L221.3 381.9L224 379.3H227V375.5L230.5 372.6ZM207.8 379L208.2 381.6V384.3L205.2 381.6L207.8 379Z" fill="#383739"/>
<path d="M230.5 348.8V352.5L222.2 360.1L224.8 362.7L219.2 368L222.6 371V367.3H226.3V370.7L215.8 380.5H211.6L210.8 377.5H214.6L210.1 373.7L201.1 382L210.1 390L214.6 386.2H210.8L211.6 383.2H215.4L226.7 393V396.8H223V393L219.3 395.6L225.3 400.9L222.7 403.6L231 411.1V414.9L218 403.6L220.7 400.9L215.4 395.6L219.9 391.5L216.1 387.7L210.1 393.7L197.6 382L210.1 370.3L216.1 376L219.9 372.2L215.4 368L220.7 362.7L218 360.5L230.5 348.8ZM230.5 372.9V390.7L227.5 388.1V384.3H224L221.7 382L224 379.7H227.7V376L230.5 372.9ZM207.8 379.7V383.5L205.6 381.6L207.8 379.7Z" fill="#FFC72C"/>
<path d="M103.5 452.7C103.9 455.7 106.2 458 106.9 461C108.1 458 108.9 455.3 108.1 452C107.7 449.3 105.8 447.4 105.4 445.1C103.2 447.1 102.8 450.1 103.5 452.7ZM102.8 465.1C104.745 467.709 107.327 469.775 110.3 471.1C109.6 468.5 110.7 467.1 111.8 465.1C113.4 462.9 114.1 461 113 458.3C112.413 459.667 111.639 460.946 110.7 462.1C109.6 463.6 108.8 465.1 108.4 467.4C107.005 466.204 105.967 464.647 105.4 462.9C104.147 460.684 102.315 458.852 100.1 457.6C100.9 460.2 101.3 462.9 102.8 465.1ZM113.4 472.7C113.4 474.2 112.6 475.7 113 477.2L108.4 473.5C106.097 472.408 104.051 470.84 102.4 468.9C102.533 471.966 103.8 474.5 106.2 476.5L114.9 481.4C114.5 478.7 115.6 476.4 116.4 473.8C116.765 472.634 116.818 471.393 116.555 470.2C116.292 469.007 115.721 467.904 114.9 467C114.9 469 114.1 470.8 113.4 472.7ZM119.4 482.5L122.4 488.2C119.8 487.4 117.1 485.5 114.9 484.4C111.9 482.5 108.4 481.8 105.8 479.5C106.9 484.5 110.3 487.1 115.2 489C119 490 121.7 489.3 125.8 491.2C125.355 488.318 124.479 485.52 123.2 482.9L120.2 477.2C119.331 478.822 119.049 480.694 119.4 482.5ZM130 490.1C130.954 491.726 132.251 493.125 133.8 494.2C130 494.2 126.2 492 122.4 492C120.2 492 117.9 492.7 115.2 492C118.2 494.2 121.2 495.8 125.1 496.5C129.6 496.9 133.8 495.8 138.7 496.5C136.632 494.712 134.934 492.538 133.7 490.1C131.9 487.1 130 484.8 126.2 484.4C127.7 485.9 128.9 488.2 130 490.1ZM144 496.9C136.8 498 130.4 499.5 123.2 499.5C130.707 502.398 138.998 502.54 146.6 499.9C150.064 498.37 153.812 497.586 157.6 497.6C164.223 498.342 170.309 501.599 174.6 506.7L176.8 504.8C172.281 501.094 166.987 498.451 161.31 497.066C155.633 495.682 149.717 495.59 144 496.8V496.9Z" fill="#FFC72C"/>
<path d="M109.599 59.9996L98.1992 52.9996V36.9996L109.599 30.1996V21.4996L119.799 15.0996H128.499L144.699 6.09961H178.699L194.199 15.0996H202.499L213.099 21.4996V30.1996L224.399 36.9996V52.9996L213.099 59.7996V68.4996L202.499 74.4996H194.199L178.299 83.5996H144.299L128.099 74.5996H119.799L109.599 68.8996V59.9996Z" fill="#383739"/>
<path d="M144.299 6.40039L128.499 15.4004H120.199L109.599 21.5004V30.2004L98.1992 37.0004V53.0004L109.599 59.8004V68.5004L119.799 74.5004H128.499L144.299 83.6004H178.299L194.299 74.6004H202.499L212.699 68.5004V59.8004L224.099 53.0004V37.0004L212.699 30.2004V21.5004L202.499 15.5004H194.199L178.299 6.50039L144.299 6.40039ZM145.099 10.2004H177.599L193.099 18.9004H201.399L208.999 23.4004V32.1004L220.299 38.9004V51.0004L208.999 57.8004V66.5004L201.399 71.5004H193.099L177.599 80.0004H145.499L129.199 71.7004H120.999L113.499 66.7004V58.1004L101.999 51.4004V39.3004L113.399 32.5004V23.5004L120.899 18.9004H129.199L145.099 10.2004Z" fill="#00843D"/>
<path d="M161 45.3002V10.2002H145L129.1 19.2002H121L113.5 23.8002V32.5002L102.5 39.3002V45.0002H161.5V79.4002H177.7L193.6 70.7002H201.9L209.4 66.1002V57.4002L220.8 50.6002V45.3002H161Z" fill="#FFC72C"/>
<path d="M102.4 45.3002V51.0002L113.7 57.8002V66.5002L121.3 71.0002H129.3L145.1 79.7002H161V45.3002H220V39.7002L208.6 32.9002V23.9002L201.8 18.9002H193.5L177.5 10.2002H161.7V45.3002H102.4Z" fill="white"/>
<path d="M126.599 22.7L123.899 20L121.299 21.5L123.899 24.2L120.199 26.5H128.499L134.899 32.5L137.199 30.2L130.699 24.2V20.4L126.599 22.7Z" fill="#383739"/>
<path d="M139.8 21.1994L136.8 18.8994L134.1 20.3994L136.8 22.9994L133 25.2994H141L147.7 31.2994L149.7 29.0994L143.6 23.0994V19.2994L139.8 21.1994ZM125.4 30.1994L122.4 27.5994L119.8 29.0994L122.8 31.6994L119 33.9994H126.6L133.4 39.9994L135.7 37.7994L129.2 31.7994V27.9994L125.4 30.1994Z" fill="#383739"/>
<path d="M161.299 9.7998H154.199L150.399 13.5998H143.599L138.299 16.1998L139.799 18.8998L144.299 16.5998H146.299L153.799 24.8998L161.299 19.9998V9.7998Z" fill="#383739"/>
<path d="M123.999 20.3998L126.199 22.6998L124.299 23.7998L121.699 21.4998L123.999 20.3998ZM129.999 20.7998V24.5998L136.399 30.1998L134.499 32.1998L128.499 26.0998H121.999L130.399 20.7998H129.999ZM136.799 19.2998L139.099 21.4998L137.099 22.6998L134.899 20.3998L136.799 19.2998ZM142.799 19.5998V23.3998L149.299 29.0998L147.699 30.9998L141.299 24.9998H134.499L142.799 19.5998Z" fill="#D22630"/>
<path d="M122.798 27.6002L125.398 29.9002L123.198 31.4002L120.898 28.7002L122.798 27.6002ZM129.198 28.0002V31.7002L135.198 37.4002L133.798 39.3002L127.298 33.3002H120.998L129.198 28.0002ZM160.998 10.2002H154.998L150.998 14.0002H143.498L138.998 16.2002L139.698 18.5002L144.198 16.2002H146.498L153.298 24.2002L160.898 19.6002L160.998 10.2002Z" fill="#D22630"/>
<path d="M126.599 67.9994L123.899 70.2994L121.299 68.2994L123.899 66.0994L120.199 63.8994H128.499L134.899 57.3994L137.199 59.6994L130.699 65.6994V69.9994L126.599 67.9994Z" fill="#383739"/>
<path d="M139.8 68.7998L136.8 71.3998L134.1 69.4998L136.8 67.2998L133 64.9998H141L147.7 58.5998L149.7 60.7998L143.2 66.7998V70.9998L139.8 68.7998ZM125.4 60.4998L122.4 63.0998L119.8 61.1998L122.8 58.5998L119 56.5998H126.6L133.4 50.2998L135.7 52.4998L129.2 58.4998V62.2998L125.4 60.4998Z" fill="#383739"/>
<path d="M161.299 80.0994H154.199L150.399 76.6994H143.599L138.299 74.0994L139.799 71.0994L144.299 73.6994H146.299L153.799 65.3994L161.299 69.8994V80.0994Z" fill="#383739"/>
<path d="M123.999 69.9002L126.199 67.6002L124.299 66.1002L121.699 68.4002L123.999 69.9002ZM129.999 69.5002V65.7002L136.399 59.7002L134.499 58.2002L128.499 64.2002H121.999L130.399 69.5002H129.999ZM136.799 71.0002L139.099 68.8002L137.099 67.3002L134.899 69.5002L136.799 71.0002ZM142.799 70.3002V66.5002L149.299 60.8002L147.699 59.3002L141.299 65.3002H134.499L142.799 70.3002Z" fill="#D22630"/>
<path d="M122.798 62.3L125.398 60.1L123.198 58.9L120.898 61.2L122.798 62.3ZM129.198 62.3V58.6L135.198 52.6L133.798 51L127.298 57H120.998L129.198 62.3ZM160.998 79.7H154.998L151.098 76.3H143.598L139.098 73.7L139.798 71.4L144.298 74.1H146.598L153.398 65.7L160.998 70.3V79.7Z" fill="#D22630"/>
<path d="M121.999 34L118.599 32.5L114.499 35.5V36.3L107.699 45.3L114.499 54V54.8L118.599 57.8L121.999 56.7L120.199 55.2V52.9L120.899 51.8H124.699V38.9H120.899L120.199 38.2V35.5L121.999 34Z" fill="#383739"/>
<path d="M114.9 35.8994L118.6 32.8994L121.3 33.9994L119.8 35.0994V37.7994L120.5 38.8994H124.3V50.9994H120.5L119.8 52.0994V55.0994L121.3 56.2994L118.6 57.0994L114.9 54.3994V53.6994L108 44.9994L114.8 36.6994L114.9 35.8994Z" fill="#D22630"/>
<path d="M195.7 22.7L198.4 20L201.4 21.5L198.4 24.2L202.2 26.5H194.6L187.8 32.5L185.5 30.2L192 24.2V20.4L195.7 22.7Z" fill="#383739"/>
<path d="M182.901 21.1994L185.501 18.8994L188.201 20.3994L185.501 22.9994L189.301 25.2994H181.801L174.901 31.2994L172.701 29.0994L179.101 23.0994V19.2994L182.901 21.1994ZM196.901 30.1994L199.501 27.5994L202.201 29.0994L199.501 31.6994L203.301 33.9994H195.301L188.601 39.9994L186.601 37.7994L192.701 31.3994V27.5994L196.901 30.1994Z" fill="#383739"/>
<path d="M161.301 9.7998H168.101L171.901 13.5998H178.701L184.001 16.1998L183.001 18.9998L178.001 16.6998H176.201L169.001 24.9998L161.401 20.0998L161.301 9.7998Z" fill="#383739"/>
<path d="M198.801 20.3998L196.101 22.6998L198.401 23.7998L200.601 21.4998L198.801 20.3998ZM192.301 20.7998V24.5998L186.301 30.1998L187.801 32.1998L194.201 26.0998H200.601L192.701 20.7998H192.301ZM185.501 19.2998L183.301 21.4998L185.201 22.6998L187.801 20.3998L185.501 19.2998ZM179.501 19.5998V23.3998L173.801 29.0998L175.301 30.9998L181.301 24.9998H187.801L179.501 19.5998Z" fill="#D22630"/>
<path d="M199.501 27.6002L197.201 29.9002L199.201 31.4002L201.801 28.7002L199.501 27.6002ZM193.501 28.0002V31.7002L187.001 37.4002L189.001 39.3002L195.401 33.3002H201.801L193.501 28.0002ZM161.301 10.2002H168.101L172.001 14.0002H178.801L183.801 16.2002L182.601 18.5002L178.401 16.2002H176.201L169.001 24.2002L161.401 19.6002L161.301 10.2002Z" fill="#D22630"/>
<path d="M195.7 67.9994L198.4 70.2994L201.4 68.2994L198.4 66.0994L202.2 63.8994H194.6L187.8 57.3994L185.5 59.6994L192 65.6994V69.9994L195.7 67.9994Z" fill="#383739"/>
<path d="M182.901 68.7998L185.501 71.3998L188.201 69.4998L185.501 67.2998L189.301 64.9998H181.801L174.901 58.5998L172.701 60.7998L179.101 66.7998V70.9998L182.901 68.7998ZM196.901 60.4998L199.501 63.0998L202.201 61.1998L199.501 58.5998L203.301 56.5998H195.301L188.601 50.2998L186.601 52.4998L193.101 58.4998V62.6998L196.901 60.4998Z" fill="#383739"/>
<path d="M161.301 80.0994H168.101L171.901 76.6994H178.701L184.001 74.0994L182.901 71.0994L177.901 73.6994H176.101L168.901 65.3994L161.301 69.8994V80.0994Z" fill="#383739"/>
<path d="M198.801 69.9002L196.101 67.6002L198.401 66.1002L200.601 68.4002L198.801 69.9002ZM192.301 69.5002V65.7002L186.301 59.7002L187.801 58.2002L194.201 64.2002H200.601L192.701 69.5002H192.301ZM185.501 71.0002L183.301 68.8002L185.201 67.3002L187.801 69.5002L185.501 71.0002ZM179.501 70.3002V66.5002L173.801 61.2002L175.301 59.7002L181.801 65.7002H188.201L179.901 70.7002L179.501 70.3002Z" fill="#D22630"/>
<path d="M199.501 62.3L197.201 60.1L199.201 58.9L201.801 61.2L199.501 62.3ZM193.501 62.3V58.6L187.001 52.6L189.001 51L195.401 57H201.801L193.501 62.3ZM161.301 79.3H168.101L172.001 76H178.801L183.801 73.4L182.601 71.1L178.401 73.8H176.201L169.001 65.5L161.401 70L161.301 79.3Z" fill="#D22630"/>
<path d="M200.302 34L204.002 32.5L207.802 35.5V36.3L215.402 45.3L207.802 53.7V54.4L203.302 57.4L199.902 56.3L202.202 54.8V52.9L201.402 51.8H197.602V38.9H201.402L202.202 38.2V35.5L200.302 34Z" fill="#383739"/>
<path d="M207.8 35.8994L203.7 32.8994L201.4 33.9994L202.9 35.0994V37.7994L201.8 38.8994H198.4V50.9994H202.2L202.9 52.0994V55.0994L201.4 56.2994L203.7 57.0994L207.4 54.3994V53.6994L214.2 44.9994L207.8 36.6994V35.8994Z" fill="#D22630"/>
<path d="M116.399 52.1L114.399 50.6V50L110.699 45L114.499 40.2V39.4L116.399 37.9L119.399 40.5H117.499L120.499 43.5H126.999L131.899 39.8V28.3H144.699L159.799 19.3V17L157.199 15.5H156.799L154.199 17L153.799 18.5L151.899 15.9L155.699 12.5H156.099L160.599 9.5H162.099L166.299 12.5H166.999L170.799 15.9L168.499 18.5V17L165.899 15.5H165.099L162.999 17V19.3L177.999 28.3H190.499V39L195.799 42.8H202.299L204.899 40.2H202.999L206.399 37.5L208.299 39V39.8L212.099 44.7L208.299 49.6V50.4L206.399 51.9L202.999 49H204.899L202.299 46.4H195.799L190.499 50.2V60.7H177.699L162.899 70V72.3L165.099 73.8H165.899L168.099 72.3L168.499 71.1L170.799 73.8L166.999 76.8H166.299L162.099 79.8H160.599L156.099 76.8H155.699L151.899 73.8L153.799 71.1L154.199 72.3L156.799 73.8H157.199L159.499 72.3V70L144.699 61H132.299V50.2L127.299 46.4H120.999L117.999 49H119.899L116.399 52.1Z" fill="#383739"/>
<path d="M161.3 74.4002L162.9 75.6002L161.3 77.1002V74.4002ZM156.4 76.7002L160.2 79.7002H161V77.5002L158.7 75.5002L161 74.1002V69.5002L145 59.7002H133.7V49.9002L126.9 45.3002H117.8L115.5 48.0002L113.3 45.3002H110.6L114.4 49.9002V50.6002L115.5 51.8002L118.2 49.8002H117V49.5002L120 46.5002H126.9L132.2 50.3002V60.8002H144.6L159.7 70.3002V72.9002L157.5 74.4002H156.3L153.7 72.9002V71.8002L152.2 73.7002L156 76.3002L156.4 76.7002ZM116 42.7002L117.9 45.0002H114L116 42.7002ZM161.3 13.2002L159.5 14.4002L161 15.4002L161.3 13.2002ZM204.4 45.3002L205.9 47.3002L207.9 45.3002H204.4ZM166.3 13.3002L162.1 10.2002H161.3V12.8002L163.6 14.4002L161.3 16.2002V20.8002L177.6 30.2002H188.9V40.1002L194.9 45.0002H204L206.3 42.3002L209 45.0002H211.6L207.8 40.4002V39.7002L206.3 38.2002L204 40.0002H205.2V40.3002L202.2 43.7002H195.4L190.1 39.6002V29.0002H177.6L162.5 20.0002V17.3002L165.1 15.3002H165.9L168.5 17.3002V18.0002L170 16.1002L166.6 13.1002L166.3 13.3002Z" fill="#FFC72C"/>
<path d="M161 77.0002L159.5 75.6002L161 74.4002V77.0002ZM117.9 45.3002L116 47.3002L114.1 45.3002H117.9ZM166.3 76.7002L162.1 79.7002H161.3V77.5002L163.6 75.5002L161.3 74.1002V69.5002L177.3 59.7002H188.9V49.9002L194.9 45.3002H204L206.3 48.0002L209 45.3002H211.6L207.8 49.9002V50.6002L206.3 51.8002L204 49.8002H205.2V49.5002L202.2 46.5002H195.4L190.1 50.3002V60.8002H177.6L162.5 70.3002V72.9002L165.1 74.4002H165.9L168.5 72.9002V71.8002L170 73.7002L166.6 76.3002L166.3 76.7002ZM206.3 42.7002L204.8 45.0002H208.6L206.3 42.7002ZM156.4 13.2002L160.2 10.2002H161V12.8002L158.7 14.4002L161 16.2002V20.8002L145 30.2002H133.7V40.1002L126.9 45.3002H117.8L115.5 42.7002L113.3 45.3002H110.6L114.4 40.8002V40.1002L115.5 38.5002L118.2 40.5002H117V40.8002L120 44.2002H126.9L132.2 40.1002V29.0002H144.6L159.7 20.0002V17.3002L157.5 15.3002H156.3L153.7 17.3002V18.0002L152.2 16.1002L156 13.1002L156.4 13.2002ZM161.4 15.5002L162.9 14.4002L161.3 13.2002L161.4 15.5002Z" fill="white"/>
<path d="M161 45.3002V21.2002L145.5 30.2002H134V40.1002L128 44.6002H161.2V68.8002L177.2 58.9002H188.5V49.5002L194.5 45.0002L161 45.3002Z" fill="#00843D"/>
<path d="M128 45.2998L133.8 49.8998V59.2998H145L160.9 69.0998V44.9998H194.5L188.5 40.3998V30.1998H177.1L161.2 20.7998V45.2998H128Z" fill="#D22630"/>
<path d="M144.3 33.2996L141.7 30.5996L138.7 32.4996L141.7 35.0996L137.9 37.0996H145.5L152.3 43.4996L154.5 41.1996L148.1 35.1996V31.3996L144.3 33.2996ZM178.3 56.6996L181 59.2996L183.6 57.7996L181 55.1996L184.4 52.8996H176.8L170 46.8996L168.1 49.0996L174.6 55.0996V58.9996L178.3 56.6996ZM144.3 56.6996L141.7 59.2996L138.7 57.7996L141.7 55.1996L137.9 52.8996H145.5L152.3 46.8996L154.5 49.0996L148.1 55.0996V58.9996L144.3 56.6996ZM178.3 33.2996L181 30.5996L183.6 32.4996L181 35.0996L184.4 37.0996H176.8L170 43.4996L168.1 41.1996L174.6 35.1996V31.3996L178.3 33.2996Z" fill="#383739"/>
<path d="M181 59.0004L178.3 56.7004L180.6 55.2004L182.9 57.4004L181 59.0004ZM175 58.6004V54.8004L168.5 49.1004L170 47.2004L176.5 53.2004H183.3L175 58.6004ZM141.3 31.4004L144 33.6004L142 34.8004L139.4 32.5004L141.3 31.4004ZM147.7 31.4004V35.0004L153.7 41.0004L152.3 42.6004L145.9 36.6004H139.9L147.4 31.6004L147.7 31.4004Z" fill="#D22630"/>
<path d="M181 31.4004L178.3 33.6004L180.6 34.8004L182.9 32.5004L181 31.4004ZM175 31.4004V35.0004L168.5 41.5004L170 43.0004L176.5 37.0004H183.3L175 31.4004ZM141.3 58.9004L144 56.7004L142 55.2004L139.4 57.4004L141.3 58.9004ZM147.7 58.6004V54.8004L153.7 49.1004L152.3 47.2004L145.9 53.2004H139.9L148.1 58.6004H147.7Z" fill="#00843D"/>
<path d="M178.301 45.3L161.301 56.7L144.301 45.3L161.301 34L178.301 45.3Z" fill="#383739"/>
<path d="M161 34L145 45.3H177.5L161.3 34V55.5L177.6 45.3H145.5L161.3 56L161 34Z" fill="white"/>
<path d="M165.901 49.0996V52.0996H156.901V49.0996H150.801V41.0996H156.801V38.0996H165.801V41.0996H171.501V48.6996L165.901 49.0996Z" fill="#383739"/>
<path d="M157.2 38.5V41.5H151.2V45H161V38.5H157.2ZM161.3 45H171.2V41.2H165.5V38.5H161.7V45H161.3ZM151.1 45V48.7H157.1V51.7H161V45.3L151.1 45ZM161.3 51.8H165.1V48.8H171.1V45H161.3V51.8Z" fill="#D22630"/>
<path d="M190 173.8V169H204V163.7H217.6V118.7H204V113.8H190.4V108.9H176.8V104H146.6V109H132.3V113.8H118.6V118.8H105V164H118.6V168.9H132.3V173.9H145.9V178.7H176.5V173.8H190Z" fill="#383739"/>
<path d="M146.201 104.3V109.2H132.601V114.2H119.001V119H105.801V163.2H119.401V168.5H133.001V173.5H146.601V178.3H176.801V173.4H190.101V168.5H203.701V163.2H217.301V119H203.701V114.1H190.001V109.6H176.401V104.6L146.201 104.3ZM150.001 108.1H172.701V113H186.301V117.9H199.901V122.8H213.501V159.8H199.901V164.8H186.301V169.7H172.701V174.6H150.001V170H136.001V165.1H122.401V160.2H108.801V123.2H122.401V118.2H136.001V113.4H149.601L150.001 108.1Z" fill="#FFC72C"/>
<path d="M136.8 169.3V164.3H123.2V159.5H109.6V123.2H123.2V118.2H136.8V113.4H150.4V108H172.3V113.3H185.9V118.2H199.5V123.1H213.1V159.4H199.5V164.3H186V169.2H172.4V174.1H150.4V169.1L136.8 169.3Z" fill="#D22630"/>
<path d="M139.8 117.1L136 114.1V119.4L133 121.7V118.3L129.6 121.3L126.6 118.3V121.7L122.8 119V124L119.8 126.2V123.2L116 125.8L112.2 123.2V126.2L109.2 123.6V137.9H105V144.7H108.8V158.7L112.6 156.1V159.1L116.4 156.4L119.8 159.1V156.1L122.8 158.3V163.3L126.6 160.6V164L129.6 161L133 164V160.6L136.4 162.9V168.1L140.2 165.1V168.9L143.2 165.9L147 168.9V165.1L150 167.8V173.1L154.5 168.9V173.9L161.3 170L167.8 173.8V169L172.7 173.2V167.9L175.7 165.2V169L179.5 166L182.5 169V165.2L186.3 168.2V163L189.7 160.7V164.1L192.7 161.1L196.1 164.1V160.7L199.9 163.3V158.8L202.9 156.5V159.5L206.7 156.9L210.1 159.6V156.6L213.5 159.2V144.8H217.3V138H213.5V123.7L209.7 126.3V123.3L206.3 125.9L202.5 123.3V126.3L200 124V119L196.2 121.7V118.3L192.8 121.3L189.8 118.3V121.7L186 119.4V114.1L182.6 116.8V113L179.2 116.8L175.8 113V116.8L172.8 114.5V109.2L167.8 113.4V108.4L161.4 112.2L154.6 108.4V113.4L150.1 109.2V114.5L146.7 116.8V113L143.3 116.8L139.9 113L139.8 117.1Z" fill="#383739"/>
<path d="M113 127V124L116 126.2L119.4 123.9V126.9L122.8 124.3V158.3L119 155.7V158.7L116 156.4L113 158.7V155.7L109.2 158.3V144.3H105.4V138.3H109.2V124.7L113 127ZM140.2 114.1L143.2 116.8L146.2 114.1V117.9L150 114.9V167.8L146.2 165.1V168.5L143.2 165.5L140.2 168.5V164.7L136.4 167.7V115L140.2 117.6V114.1ZM182.2 114.1L179.2 116.8L176.1 114.1V117.9L172.3 114.9V167.8L176.1 165.1V168.5L179.1 165.5L182.1 168.5V164.7L185.9 167.7V115L182.1 117.6L182.2 114.1ZM209.7 127V124L206.3 126.2L203.3 123.9V126.9L199.5 124.3V158.3L203.3 155.7V158.7L206.3 156.4L209.7 158.7V155.7L213.1 158.3V144.3H216.9V138.3H213V124.7L209.7 127Z" fill="#00843D"/>
<path d="M126.999 119L129.599 121.7L132.599 119V122L136.399 119.8V162.8L132.599 160.6V163.6L129.599 161L126.999 163.6V160.6L123.199 162.9V119.8L126.999 122V119ZM154.999 114.1L150.399 110V172.7L154.899 168.5V173.8L161.299 169.7L167.299 173.4V168.5L172.299 172.7V110L167.299 114.1V108.8L161.299 112.6L154.899 108.8L154.999 114.1ZM195.699 119.1L192.699 121.7L190.099 119V122L186.299 119.8V162.8L190.099 160.6V163.6L192.699 161L195.699 163.6V160.6L199.499 162.9V119.8L195.699 122V119.1Z" fill="#FFC72C"/>
<path d="M114.5 135.3L116 135.7L117.5 135.3C118.081 134.483 118.479 133.552 118.669 132.569C118.859 131.586 118.835 130.573 118.6 129.6L117.1 131.5L116 130L114.9 131.5L113.4 129.6C113.4 131.5 113.4 133.8 114.4 135.3H114.5ZM128.9 131.5L127.7 130.4V128L125.1 130.3L129.6 134.8L134.1 130.3L131.5 128V130.3L130.7 131.4V127.6L132.7 125.7L129.7 123.5L127 125.7L128.9 127.7V131.5ZM142.5 127L141.3 126.2V124L138.7 126.3L143.2 130.8L147.7 126.3L145.1 124V126.3L144.3 127.1V123.3L146.3 121.8L143.3 119.1L140.6 121.8L142.5 123.3V127Z" fill="#383739"/>
<path d="M116.001 130.7L117.101 132.3L118.301 130.7C118.301 132.7 118.301 134.1 117.101 134.5C116.961 134.652 116.791 134.772 116.601 134.855C116.412 134.938 116.208 134.98 116.001 134.98C115.795 134.98 115.59 134.938 115.401 134.855C115.212 134.772 115.042 134.652 114.901 134.5C114.101 133.967 113.701 132.7 113.701 130.7L115.201 132.3L116.001 130.7ZM144.001 123.2V128.1L145.501 126.2V124.7L147.401 126.2L143.601 130L139.401 126.2L140.901 124.7V126.2L142.901 128.1V123.1L140.901 121.7L143.201 119.7L145.501 121.7L144.001 123.2Z" fill="white"/>
<path d="M130.401 127.3V132.3L131.901 130.3V129L133.801 130.5L130.001 134.2L125.801 130.5L127.301 129V130.5L129.301 132.4V127.4L127.301 125.9L129.601 124L131.901 126L130.401 127.3Z" fill="#D22630"/>
<path d="M207.8 135.3L206.3 135.7L204.8 135.3C203.7 133.8 203.7 131.5 203.7 129.6L205.6 131.5L206.3 130L207.4 131.5L209.4 129.6C209.4 131.5 209.4 133.8 207.8 135.3ZM193.8 131.5L194.6 130.4V128L197.2 130.3L192.7 134.8L188.2 130.3L190.8 128V130.3L192 131.4V127.6L190 125.7L192.7 123.5L195.7 125.7L193.8 127.7V131.5ZM179.8 127L181 126.2V124L183.6 126.3L179.1 130.8L174.6 126.3L177.2 124V126.3L178.3 127.1V123.3L176.5 121.8L179.1 119.1L182.1 121.8L179.9 123.3L179.8 127Z" fill="#383739"/>
<path d="M206.301 130.7L205.601 132.3L204.001 130.7C204.001 132.767 204.401 134.034 205.201 134.5C205.332 134.729 205.522 134.918 205.75 135.05C205.978 135.182 206.237 135.252 206.501 135.252C206.764 135.252 207.023 135.182 207.252 135.05C207.48 134.918 207.669 134.729 207.801 134.5C208.601 133.967 209.001 132.7 209.001 130.7L207.401 132.3L206.301 130.7ZM178.701 123.2V128.1L176.801 126.2V124.7L175.301 126.2L179.101 130L182.901 126.2L181.401 124.7V126.2L179.901 128.1V123.1L181.401 121.7L179.101 119.7L176.801 121.7L178.701 123.2Z" fill="white"/>
<path d="M192.3 127.3V132.3L190.4 130.3V129L188.9 130.5L192.7 134.2L196.5 130.5L195 129V130.5L193.5 132.4V127.4L195 125.9L192.7 124L190.4 126L192.3 127.3Z" fill="#D22630"/>
<path d="M166.3 128.5L165.1 126.5L168.9 123.2L165.1 120.5V122.5L164 123.5V119.8L167.4 117.5L161.4 113L155.3 117.5L158.7 120.2V123.9L157.2 122.4V120.5L153.4 123.2L157.2 127L156.1 128.9L166.3 128.5Z" fill="#383739"/>
<path d="M156.401 128.5L157.901 126.5L154.201 123.2L156.801 121.2V122.4L159.101 124.4V119.8L155.701 117.5L161.301 113.7L166.601 117.5L163.601 119.8V124.3L165.901 122.4V121.3L168.501 123.2L164.701 127L165.901 128.5H156.401Z" fill="#D22630"/>
<path d="M158.701 117.5L161.301 119.4L164.001 117.5L161.301 115.6L158.701 117.5Z" fill="#383739"/>
<path d="M161.3 116L163.3 117.5L161.3 119L159.1 117.5L161.3 116Z" fill="#00843D"/>
<path d="M114.5 147.399C114.711 147.236 114.952 147.117 115.21 147.048C115.468 146.979 115.736 146.963 116 146.999L117.5 147.399C118.026 148.166 118.395 149.029 118.583 149.939C118.772 150.849 118.778 151.787 118.6 152.699L117.1 151.099L116 153.099L114.9 151.099L113.4 153.099C113.4 151.499 113.4 149.299 114.4 147.699L114.5 147.399ZM128.9 151.099L127.7 152.299V154.499L125.1 151.899L129.6 147.699L134.1 151.899L131.5 154.499V152.299L130.7 151.099V154.899L132.7 156.899L129.7 159.099L127 156.799L128.9 154.899V151.099ZM142.5 155.299L141.3 156.399V158.699L138.7 156.399L143.2 151.899L147.7 156.399L145.1 158.699V156.399L144.3 155.299V159.099L146.3 160.999L143.3 163.199L140.6 160.999L142.5 159.499V155.299Z" fill="#383739"/>
<path d="M116.001 151.9L117.101 150.4L118.301 151.9C118.301 150 118.301 148.1 117.101 147.7C116.961 147.548 116.791 147.428 116.601 147.345C116.412 147.262 116.208 147.22 116.001 147.22C115.795 147.22 115.59 147.262 115.401 147.345C115.212 147.428 115.042 147.548 114.901 147.7C114.101 148.567 113.701 149.967 113.701 151.9L115.201 150.4L116.001 151.9ZM144.001 159.5V154.5L145.501 156.5V157.9L147.401 156.4L143.601 152.7L139.401 156.4L140.901 157.9V156.4L142.901 154.5V159.5L140.901 161L143.201 162.9L145.501 160.9L144.001 159.5Z" fill="white"/>
<path d="M130.401 155V150.4L131.901 151.9V153.4L133.801 151.9L130.001 148.1L125.801 151.9L127.301 153.4V152L129.301 150.5V155L127.301 156.5L129.601 158.5L131.901 156.5L130.401 155Z" fill="#D22630"/>
<path d="M207.8 147.399C207.589 147.236 207.348 147.117 207.09 147.048C206.832 146.979 206.564 146.963 206.3 146.999L204.8 147.399C203.7 148.899 203.7 151.099 203.7 152.699L205.6 150.699L206.3 152.699L207.4 150.699L209.4 152.699C209.4 151.099 209.4 148.899 207.8 147.399ZM193.8 151.099L194.6 152.299V154.499L197.2 151.899L192.7 147.699L188.2 151.899L190.8 154.499V152.299L192 151.099V154.899L190 156.899L192.7 159.099L195.7 156.799L193.8 154.899V151.099ZM179.8 154.899L181 156.099V158.299L183.6 156.099L179.1 151.499L174.6 156.099L177.2 158.299V156.099L178.3 154.899V158.699L176.5 160.599L179.1 162.899L182.1 160.599L179.9 159.099L179.8 154.899Z" fill="#383739"/>
<path d="M206.301 151.9L205.601 150.4L204.001 151.9C204.001 150 204.401 148.1 205.201 147.7C205.332 147.471 205.522 147.282 205.75 147.15C205.978 147.018 206.237 146.948 206.501 146.948C206.764 146.948 207.023 147.018 207.252 147.15C207.48 147.282 207.669 147.471 207.801 147.7C208.601 148.567 209.001 149.967 209.001 151.9L207.401 150.4L206.301 151.9ZM178.701 159.5V154.5L176.801 156.5V157.9L175.301 156.4L179.101 152.7L182.901 156.4L181.401 157.9V156.4L179.901 154.5V159.5L181.401 161L179.101 162.9L176.801 160.9L178.701 159.5Z" fill="white"/>
<path d="M192.3 155V150.4L190.4 151.9V153.4L189 152L192.8 148.2L196.6 152L195.1 153.5V152L193.6 150.5V155L195.1 156.2L192.8 158.4L190.5 156.2L192.3 155Z" fill="#D22630"/>
<path d="M166.3 153.8L165.1 155.7L168.9 159.5L165.1 162.1V160.2L164 158.7V162.5L167.4 165.1L161.4 169.3L155.3 165.1L158.7 162.5V158.7L157.2 160.2V162.1L153.4 159.5L157.2 155.7L156.1 153.7L166.3 153.8Z" fill="#383739"/>
<path d="M156.401 154.2L157.901 156.1L154.201 159.5L156.801 161.3V159.8L159.101 157.9V162.9L155.701 165.1L161.301 168.9L166.601 165.1L163.601 162.9V157.9L165.901 159.9V161.3L168.501 159.5L164.701 155.7L165.901 154.2H156.401Z" fill="#D22630"/>
<path d="M158.701 165.1L161.301 162.9L164.001 165.1L161.301 167.1L158.701 165.1Z" fill="#383739"/>
<path d="M161.3 166.3L163.3 165.1L161.3 163.6L159.1 165.1L161.3 166.3Z" fill="#00843D"/>
<path d="M209.7 139H204V136.8H186L172.7 128.5H150L137.2 136.8H118.6V139.1H112.6V143.6H118.6V146.2H137.2L150 154.5H172.7L185.5 146.2H203.7V143.6H209.7V139Z" fill="#383739"/>
<path d="M150 128.5L137.2 137.2H119V139.4H113.4V143.2H119.4V145.5H137.5L150.4 153.8H173L185.4 145.5H203.6V142.8H209.6V139.8H203.6V137.5H185.1L172.6 129.2L150 128.5ZM150 130H172.3L183.6 137.5V138.7H197V143.6H184V145.1L172.3 152.7H150.3L138.7 145.1V143.6H125.4V138.6H138.7V137.6L150 130Z" fill="#D22630"/>
<path d="M172.301 130.4L183.601 137.9V139.1H196.501V143.6H183.601V145.1L172.301 152.7H150.301L139.101 145.1V143.6H125.801V139.8H139.101V138.3L150.401 130.7L172.301 130.4Z" fill="#D22630"/>
<path d="M144.699 145.5L149.699 149.3L152.699 147L150.699 145.5L149.699 146.2L148.499 145.5L167.399 131.5H163.599L144.699 145.5ZM154.999 151H158.799L177.699 137L172.699 133.3L168.999 135.6L171.299 137.1L172.799 135.9L173.899 137.1L154.999 151ZM162.999 151H166.699L147.799 137L149.399 136L150.399 137L152.399 135.6L149.399 133.3L144.399 137.1L162.999 151ZM173.999 145.4L172.799 146.1L171.299 145.4L169.299 146.9L172.799 149.2L177.699 145.4L158.799 131.4H154.999L173.999 145.4ZM140.699 141.2L144.099 143.5L147.499 141.2L143.699 139L140.699 141.2Z" fill="#383739"/>
<path d="M158 141.301L161.3 143.601L164.7 141.301L161 139.101L158 141.301ZM181.8 141.301L178 143.601L175 141.301L178.3 139.101L181.8 141.301Z" fill="#383739"/>
<path d="M177.2 145.501L173.1 148.901L170.4 146.901L171.5 145.901L173.1 146.901L174.6 145.501L156.4 131.901H159.1L177.2 145.501ZM165.9 150.801H163.2L145.1 137.201L149.6 133.801L152.3 135.701L150.8 136.701L149.6 135.701L147.7 137.201L165.9 150.801ZM159.1 150.801H156.4L174.6 137.201L173.1 135.701L171.5 136.701L170.5 135.701L173.1 133.701L177.2 137.201L159.1 150.801ZM163.2 131.801H165.9L147.7 145.501L149.7 147.001L150.7 145.901L152.3 146.901L149.6 148.901L145.1 145.501L163.2 131.801Z" fill="#FFC72C"/>
<path d="M144.299 139.801L146.999 141.301L144.299 143.301L141.699 141.301L144.299 139.801ZM161.299 139.801L163.999 141.301L161.299 143.301L158.699 141.301L161.299 139.801ZM178.299 139.801L175.699 141.301L178.299 143.301L180.999 141.301L178.299 139.801Z" fill="#00843D"/>
<path d="M102.8 233.9L101.6 235.8L103.9 237.7L101.6 239.2L102.8 241.1L105.4 241.5L108.1 239.5L114.9 243.3V240.3L110.7 237.7L114.5 235V231.3L108.1 235.8L105.4 233.5L102.8 233.9ZM102.8 221.8L101.6 223.7L103.9 225.6L101.6 227.5L102.8 229L105.4 229.4L108.1 227.4L114.9 231.3V228.3L110.7 225.6L114.5 222.9V219.2L108.1 223.7L105.4 221.4L102.8 221.8ZM102.8 253.2L101.6 251.2L103.9 249.4L101.6 247.9L102.8 245.9L105.4 245.6L108.1 247.5L114.9 243.7V246.7L110.7 249.4L114.5 252V255.8L108.1 251.3L105.4 253.5L102.8 253.2ZM219.9 233.9L221 235.8L218.8 237.7L221 239.2L219.5 241.1L216.9 241.5L214.2 239.5L207.8 243.3V240.3L211.6 237.7L207.8 235V231.3L214.2 235.8L216.9 233.5L219.9 233.9ZM219.5 221.8L221 223.7L218.8 225.6L221 227.5L219.5 229L216.9 229.4L214.2 227.4L207.8 231.3V228.3L211.6 225.6L207.8 222.9V219.2L214.2 223.7L216.9 221.4L219.5 221.8ZM219.5 253.2L221 251.2L218.8 249.4L221 247.9L219.5 245.9L216.9 245.6L214.2 247.5L207.8 243.7V246.7L211.6 249.4L207.8 252V255.8L214.2 251.3L216.9 253.5L219.5 253.2ZM193.1 201V206H196.9V208.2H200.6V204.4H197.6V201H193.1ZM204.4 209V213.9H207.8V216.1H211.6V212.4H207.8V209H204.4ZM128.9 201.4V205.9H125V208.2H121.6V204.4H125V201L128.9 201.4ZM193.1 273.9V269H196.9V266.8H200.6V270.5H197.6V273.9H193.1ZM128.9 273.9V269H125V266.8H121.6V270.5H125V273.9H128.9ZM204.4 266.4V260.7H207.8V258.5H211.6V262.2H207.8V266L204.4 266.4ZM118 208.6V213.5H114V215.8H110.6V212H114V208.6H118ZM118 265.6V260.7H114V258.5H110.6V262.2H114V266L118 265.6ZM174.7 200.6L171.7 198L169 200.3L171.3 202.9L168.3 205.6H172.8L174.3 204L176.2 205.6H180.7L177.7 202.9L180 200.3L177.3 198L174.3 200.6H174.7ZM161.1 200.6L158.1 198L155.4 200.3L157.7 202.9L154.7 205.6H159.2L161.1 204L162.6 205.6H167.1L164.1 202.9L166.4 200.3L163.7 198L161.1 200.6ZM147.5 200.6L150.1 198L153.1 200.3L150.5 202.9L153.9 205.6H148.9L147.5 204L146 205.6H141.4L144.4 202.9L142.2 200.3L144.8 198L147.5 200.6ZM174.3 273.6L171.6 276.2L169 273.9L171.3 271.7L168.3 268.7H172.8L174.3 270.2L176.2 268.7H180.7L177.7 271.7L180 273.9L177.3 276.2L174.3 273.6ZM161.1 273.6L158.1 276.2L155.4 273.9L157.7 271.7L154.7 268.7H159.2L161.1 270.2L162.6 268.7H167.1L164.1 271.7L166.4 273.9L163.7 276.2L161.1 273.6ZM147.5 273.6L150.1 276.2L153.1 273.9L150.5 271.7L153.9 268.7H148.9L147.5 270.2L146 268.7H141.4L144.4 271.7L142.2 273.9L144.8 276.2L147.5 273.6Z" fill="#383739"/>
<path d="M114.5 240.3V243L108.1 239.2L105.4 241.1H103.2L102 239.6L104.3 237.6L102 235.8L103.2 234.3H105.4L108.1 236.2L114.5 232.4V234.7L109.5 238.1L114.5 240.3ZM114.5 228.3V230.9L108 227L105.3 228.9H103.1L101.9 227.4L104.2 225.4L101.9 223.6L103.1 222.1H105.3L108 224L114.4 220.2V222.5L109.9 225.5L114.5 228.3ZM114.5 246.7V244.1L108.1 247.9L105.4 245.9H103.2L102 247.5L104.3 249.4L102 251.3L103.2 252.8H105.4L108.1 250.9L114.5 254.7V252.4L109.5 249.4L114.5 246.7ZM207.8 240.3V243L213.8 239.2L216.5 241.1H219.2L219.9 239.6L217.6 237.6L219.9 235.8L219.2 234.3H216.5L213.9 236.2L207.9 232.4V234.7L212.4 237.7L207.8 240.3ZM207.8 228.3V230.9L213.8 227.1L216.5 229H219.2L219.9 227.5L217.6 225.5L219.9 223.7L219.2 222.2H216.5L214 224L208 220.2V222.5L212.5 225.5L207.8 228.3ZM207.8 246.7V244.1L213.8 247.9L216.5 245.9H219.2L219.9 247.5L217.6 249.4L219.9 251.3L219.2 252.8H216.5L213.9 250.9L207.9 254.7V252.4L212.4 249.4L207.8 246.7ZM196.5 201.4V204.8H199.9V207.8H196.9V205.6H193V201.8L196.5 201.4ZM207.5 209.4V212.4H210.5V216.1H207.8V213.5H204V209.3L207.5 209.4ZM125.1 201.8V204.8H121.7V207.8H124.7V205.6H128.5V201.8H125.1ZM196.9 273.6V270.6H199.9V266.8H196.9V269.4H193V273.6H196.9ZM125.1 273.6V270.6H121.7V266.8H124.7V269.4H128.5V273.6H125.1ZM207.4 266V262.2H210.4V259.2H207.8V261.5H204V265.6L207.4 266ZM114.4 209.3V212.3H111.1V216.1H114.1V213.5H117.9V209.3H114.4ZM114.4 266V262.2H111.1V259.2H114.1V261.5H117.9V265.6L114.4 266ZM171.2 198.8L174.2 201.4L177.2 198.8L179.2 200.6L176.8 203.3L179.5 205.6H176L174 204L172.6 205.6H168.8L171.4 203.3L169.2 200.6L171.2 198.8ZM157.9 198.8L160.9 201.4L163.6 198.8L165.9 200.6L163.6 203.3L166.3 205.6H162.5L161 204L159 205.6H155.3L158.3 203.3L156.1 200.6L157.9 198.8ZM150.4 198.8L147.4 201.4L144.7 198.8L142.5 200.6L144.7 203.3L142.1 205.6H145.9L147.4 204L149.3 205.6H153L150 203.3L152.3 200.6L150.4 198.8ZM171.5 276.2L174.2 273.6L177.2 276.2L179.2 274.3L176.8 272.1L179.5 269.4H176L174 270.9L172.6 269.4H168.8L171.4 272.1L169.2 274.3L171.5 276.2ZM157.9 276.2L160.9 273.6L163.6 276.2L165.9 274.3L163.6 272.1L166.3 269.4H162.5L161 271L159 269.5H155.3L158.3 272.2L156.1 274.4L157.9 276.2ZM150.4 276.2L147.4 273.6L144.7 276.2L142.5 274.3L144.7 272.1L142.1 269.4H145.9L147.4 270.9L149.3 269.4H153L150 272.1L152.3 274.3L150.4 276.2Z" fill="#00843D"/>
<path d="M124.7 261.5V269H197.2V261.5H208.2V213.5H197.2V205.9H125.1V213.5H114.5V261.5H124.7Z" fill="#383739"/>
<path d="M125.4 206V213.9H115V261H125.5V268.6H197.3V261H207.9V213.8H197.3V206.2H125.5L125.4 206ZM130 209H192.7V216.5L195.4 218.8H205.2V256.6H195.4L192.7 258.5V266H130V258.5L127.3 256.5H118V218.8H127.4L130.1 216.8V209.3L130 209Z" fill="#FFC72C"/>
<path d="M130.401 209.3V216.5L139.801 209.3H130.401ZM182.501 209.3L192.001 216.5V209.3H182.501ZM118.301 219.2V225.6L127.001 219.2H118.301ZM195.301 219.2L204.401 225.6V219.2H195.301ZM204.401 249.4L195.401 256.2H204.401V249.4ZM118.301 249.4V256.2H127.001L118.301 249.4ZM130.301 258.4V265.6H139.801L130.301 258.4ZM192.001 258.4L182.501 265.6H192.001V258.4Z" fill="#D22630"/>
<path d="M182.099 209.3L204.399 226V249.4L181.799 266H140.199L118.199 249.4V226.7L140.599 209.7L182.099 209.3Z" fill="#00843D"/>
<path d="M123.6 251.7L120.9 248.7L123.2 246L120.9 243L123.2 240.3L120.9 237.7L123.2 234.7L120.9 232L123.2 229L120.9 226.3L123.6 223.3H199L201.7 226.3L199 229L201.7 232L199 234.7L201.7 237.7L199 240.3L201.7 243L199 246L201.7 248.6L199 251.6L123.6 251.7ZM175.3 213.1L172.3 210.5L169.7 213.1L167 210.5L164 213.1L161.3 210.5L158.3 213.1L155.7 210.5L153 213.1L150 210.5L147 213.1V262.2L150 264.5L153 262.2L155.7 264.5L158.3 262.2L161.3 264.5L164 262.2L167 264.5L169.7 262.2L172.3 264.5L175.3 261.9V213.1Z" fill="#383739"/>
<path d="M169.3 213.1L167 210.8L164.4 213.1V262L167 264.2L169.3 262V213.1ZM157.9 213.1L155.7 210.8L153 213.1V262L155.7 264.2L158.3 262L157.9 213.1Z" fill="#FFC72C"/>
<path d="M123.599 251.3L121.299 248.6L123.599 246H198.999L200.999 248.6L198.699 251.3H123.599ZM198.999 235L200.999 237.7L198.699 239.9H123.499L121.199 237.7L123.499 235H198.999ZM198.999 229L200.999 226.3L198.699 223.7H123.499L121.199 226.3L123.499 229H198.999Z" fill="#FFC72C"/>
<path d="M175 213.1L172.3 210.8L169.7 213.1V262L172.3 264.2L174.9 262L175 213.1ZM152.7 213.1L150 210.8L147.4 213.1V262L150 264.2L152.7 262V213.1Z" fill="#D22630"/>
<path d="M123.601 245.6L121.301 243L123.601 240.3H199.001L201.001 243L198.701 245.6H123.601ZM123.601 234.3L121.301 232L123.601 229.4H199.001L201.001 232L198.701 234.7L123.601 234.3Z" fill="#D22630"/>
<path d="M164.001 261.9L161.301 264.1L158.701 261.9V213L161.301 210.7L164.001 213V261.9Z" fill="#D22630"/>
<path d="M186.699 214.2H135.699V218H129.199V257H135.999V260.7H186.999V257H193.499V218.5H186.999V214.3L186.699 214.2Z" fill="#383739"/>
<path d="M136 214.6V218.4H129.6V256.2H136V260.7H141.3L130.7 252V223L141.3 214.2H136V214.6ZM181.4 214.6L191.6 223.3V251.7L181.4 260.3H186.7V256.6H192.7V218.8H186.3V214.6H181.4Z" fill="#D22630"/>
<path d="M142 214.6L131.1 223.6V251.3L142.1 260.3H180.2L191.6 251.3V223.7L180.2 214.7L142 214.6ZM142.5 216.1H179.9L189.7 224.4V251L179.9 259H142.5L132.6 250.6V224.2L142.5 216.1Z" fill="#00843D"/>
<path d="M152.7 250.9L154.2 251.7V253.5L152.2 255.5L155.3 258.5H152.3L150.3 256.5L148.1 258.5H145.5L148.5 255.5L146.2 253.5L146.6 251.7L148.1 250.9L150.4 252.8L152.7 250.9ZM163.2 250.9L165.2 251.7V253.5L163.2 255.5L166.2 258.5H163.2L161.3 256.5L159.1 258.5H156.1L159.1 255.5L157.1 253.5V251.7L159.1 250.9L161.3 252.8L163.2 250.9ZM170 250.9L168.5 251.7L168.1 253.5L170.1 255.5L167.1 258.5H170.1L172.3 256.5L174.2 258.5H177.2L174.2 255.5L176.1 253.5V251.7L174.1 250.9L172.3 252.8L170 250.9ZM152.7 224.1L154.2 223.3V221.4L152.2 219.5L155.3 216.5H152.3L150.3 218.4L148.1 216.5H145.5L148.5 219.5L146.2 221.5L146.6 223.3L148.1 224.1L150.4 222.1L152.7 224.1ZM163.2 224.1L165.2 223.3V221.4L163.2 219.5L166.2 216.5H163.2L161.3 218.4L159.1 216.5H156.1L159.1 219.5L157.1 221.5V223.3L159.1 224.1L161.3 222.1L163.2 224.1ZM170 224.1L168.5 223.3L168.1 221.4L170.1 219.5L167.1 216.5H170.1L172.3 218.4L174.2 216.5H177.2L174.2 219.5L176.1 221.5V223.3L174.1 224.1L172.3 222.1L170 224.1ZM189.3 227.1L187.8 228.6L189.3 229.7V232L186.7 230.1L184.7 231.6H183L182.2 230.1L184.2 228.6L182.2 226.7L183 225.6H184.9L186.8 226.7L189.4 224.8L189.3 227.1ZM189.3 236.1L187.8 237.7L189.3 238.8V241.1L186.7 239.1L184.7 240.7H183L182.2 239.2L184.2 237.7L182.2 235.7L183 234.7H184.9L186.8 235.7L189.4 233.9L189.3 236.1ZM189.3 247.9L187.8 246.7L189.3 245.2V243L186.7 244.9L184.7 243.3H183L182.2 244.9L184.2 246.7L182.2 248.3L183 249.3L184.9 249.8L186.8 248.3L189.4 250.1L189.3 247.9ZM133 227L134.9 228.5L133 229.6V231.9L135.7 230L137.5 231.5H139.5L140.2 230L138.7 228.5L140.2 226.6L139.4 225.5H137.5L135.7 226.6L133 224.7V227ZM133 236L134.9 237.6L133 238.7V241L135.7 239L137.5 240.6H139.5L140.2 239.1L138.7 237.6L140.2 235.6L139.4 234.6H137.5L135.7 235.6L133 233.8V236ZM133 247.8L134.9 246.6L133 245.1V243L135.7 244.9L137.5 243.3H139.5L140.2 244.9L138.7 246.7L140.2 248.3L139.4 249.3L137.5 249.8L135.7 248.3L133 250.1V247.8Z" fill="#00843D"/>
<path d="M142.8 216.5L133.4 224.1L135.7 226.3L137.5 224.8H139.8L140.6 226.8L139.1 228.6L140.6 230.1L139.8 231.6L137.5 232L135.7 230.5L133 232.8V233.5L135.7 235.5L137.5 233.9H139.8L140.6 235.8L139.1 237.7L140.6 239.2L139.8 240.7L137.5 241.1L135.7 239.6L133 241.8V242.6L135.7 244.5L137.5 243H139.8L140.6 244.9L139.1 246.7L140.6 248.3L139.8 249.8L137.5 250.1L135.7 248.6L133.4 250.6L142.8 258.5H144.8L147.8 255.5L145.8 253.9L146.2 251.7L148.2 250.5L150.4 252.5L152.3 250.5L154.5 251.7V253.9L153 255.4L155.7 258.4L158.7 255.4L156.8 253.9V251.7L159.1 250.5L161.3 252.5L163.3 250.5L165.5 251.7V253.9L163.6 255.4L166.6 258.4L169.6 255.4L167.8 253.9V251.7L170 250.5L172.3 252.5L174.2 250.5L176.1 251.7L176.5 253.9L174.5 255.4L177.5 258.4H179.9L189.3 250.9L186.7 248.6L185.2 250.1H182.9L181.8 248.3L183.3 246.7L181.8 244.9L182.8 243.3L185.2 243L186.7 244.5L189.3 242.5V241.8L186.7 239.6L185.2 241.1H182.9L181.8 239.1L183.3 237.7L181.8 235.7L182.8 234.3H185.2L186.7 235.4L189.3 233.5V232.8L186.7 230.5L185.2 232H182.9L181.8 230.1L183.3 228.6L181.8 226.7L182.8 225.2H185.2L186.7 226.3L189.3 224.4L179.9 216.5H177.6L174.6 219.5L176.5 221V223.3L174.2 224.4L172.3 222.9L170 224.4L168.1 223.4L167.8 221L169.7 219.5L166.7 216.5L163.7 219.5L165.9 221L165.5 223.3L163.2 224.4L161.3 222.9L159.1 224.4L157.1 223.4L156.8 221L158.7 219.5L155.7 216.5L153 219.5L155 221L154.5 223.3L152.3 224.4L150.3 222.9L148.1 224.4L146.2 223.4V221L147.7 219.5L144.7 216.5H142.8ZM133 236.5V238.5L134.1 237.7L133 236.5Z" fill="#D22630"/>
<path d="M150.4 257L148.9 258.5H151.9L150.4 257ZM161.4 257L159.8 258.5H162.8L161.4 257ZM172.3 257L170.4 258.5H173.8L172.3 257ZM148.9 216.5L150.4 218L151.9 216.5H148.9ZM159.5 216.5L161.3 218L162.9 216.5H159.5ZM170.8 216.5L172.3 218L173.8 216.5H170.8ZM189.3 227.8L188.2 228.6L189.3 229.4V227.8ZM189.3 236.5L188.2 237.7L189.3 238.4V236.5ZM189.3 245.6L188.2 246.7L189.3 247.5V245.6ZM133 227.5V229.4L134.1 228.6L133 227.5ZM133 236.5V238.5L134.1 237.7L133 236.5ZM133 245.6V247.5L134.1 246.7L133 245.6Z" fill="white"/>
<path d="M170.4 234.3V231.3H167.4V227.5H154.9V231.3H151.5V234.7H147.4V240.7H151.9V243.7H155.3V247.5H167.3V243.7H170.4V240.7H174.9V234.3H170.4Z" fill="#383739"/>
<path d="M161 228.2V232L156 234.7V237.3H147.4V235H151.9V231.6H155.3V227.8L161 228.2ZM161.3 247.2V243.3L166.6 240.3V238.1H174.6V240.7H170V243.7H167V247.5L161.3 247.2Z" fill="#FFC72C"/>
<path d="M166.301 237.3V234.7L161.301 231.7V227.8H167.001V231.6H170.001V235H174.601V237.3H166.301ZM147.701 237.7H156.101V240.3L161.001 243.3V247.1H155.701V243.3H152.301V240.3H147.701V237.7Z" fill="white"/>
<path d="M156 238V240.3L161 243V237.7L156 238Z" fill="#D22630"/>
<path d="M161 232L156 235V237.3H161V232Z" fill="#00843D"/>
<path d="M166.301 237.3V235L161.301 232V237.3H166.301Z" fill="#D22630"/>
<path d="M161.301 243L166.301 240.3V237.7H161.301V243Z" fill="#00843D"/>
<path d="M117.099 302V311.7H108.099V321.2H98.1992V346.9H108.099V355.9H117.099V366.1H151.499L157.899 369.9L154.899 371.4H142.499L141.299 370.3H152.699L149.699 367.3H133.399L140.899 374.8H156.099L160.999 371.4L165.899 374.8H180.899L188.599 367.3H172.299L169.299 370.3H180.599L179.099 371.4H167.099L163.999 370L169.999 366.2H204.799V355.2H214.199V346.2H223.699V321.2H214.199V312.2H204.799V302.4H169.999L163.999 298.6L166.999 296.7H179.099L180.199 297.9H168.999L172.399 301.3H188.299L181.099 293.7H165.999L160.999 296.7L155.799 293.7H140.699L133.499 301.3H149.699L152.699 297.9H141.399L142.599 296.7H154.999L157.999 298.7L151.599 302.4L117.099 302Z" fill="#D22630"/>
<path d="M169.999 365.4H204.799V355.2H214.199V346.2H223.699V321.2H214.199V312.2H204.799V302.2H169.999L155.699 293.6H140.599L134.099 300.4H149.299L151.899 297.8H140.599L142.499 295.8H154.899L171.199 305.7H200.599V315.9H210.099V324.9H219.899V342.7H210.099V351.4H200.599V361.2H171.199L154.899 371.4H142.499L140.499 369.5H151.999L149.399 367.3H133.999L140.799 374.1H155.599L169.999 365.4ZM151.099 361.6H120.999V351.8H111.599V342.8H101.999V325H111.499V315.9H120.899V305.7H151.099L167.399 295.9H180.199L181.799 297.8H170.399L173.099 300.4H188.099L181.399 293.6H166.299L152.699 302.3H118.299V312.1H108.799V321.1H98.1992V346.1H108.099V355.1H117.499V365.4H151.499L166.299 374.1H181.299L187.799 367.3H172.699L170.399 369.5H181.799L179.799 371.5H166.999L151.099 361.6Z" fill="#FFC72C"/>
<path d="M198.4 348.8V359H170.8L161.3 364.6L151.9 359H124.3V348.8H115V340H105V328H114.9V319H124.3V309H152L161.4 303.4L170.9 309.1H198.5V318.9H207.9V327.9H217.4V340.1H207.9V349.1L198.4 348.8Z" fill="#00843D"/>
<path d="M127.699 345.4V355.2H142.799L127.799 345L127.699 345.4ZM127.699 321.9V312.5H142.799L127.799 322.3L127.699 321.9ZM194.599 345.4V355.2H179.499L194.599 345V345.4ZM194.599 321.9V312.5H179.499L194.599 322.3V321.9Z" fill="#383739"/>
<path d="M128.5 345.7L141.7 354.8H128.5V345.7ZM128.5 321.9L141.7 312.9H128.5V321.9ZM194.2 345.7L180.6 354.8H194.2V345.7ZM194.2 321.9L180.6 312.9H194.2V321.9Z" fill="#D22630"/>
<path d="M147.4 331V326H145.4L137.2 321.2L129.6 326.1H127.7V331.1H124V336.3H127.8V341.3H129.3L137.3 346.5L145.6 341.2H147.1V336.3H153.1V331H147.4Z" fill="#383739"/>
<path d="M137.5 321.2L145.1 326.1H130L137.5 321.2ZM145.1 341.2L137.5 346.2L130 341.2H145.1ZM142.8 331.4V336.3H133.8V331.8L142.8 331.4Z" fill="#D22630"/>
<path d="M146.6 336.3V340.8H137.6V336.3H146.6ZM137.2 336.3V340.8H128V336.3H137.2ZM152.2 331.3V336.3H143.6V331.8L152.2 331.3ZM133.4 331.3V336.3H124.4V331.8L133.4 331.3ZM146.6 326.5V331H137.6V326.5H146.6ZM137.2 326.5V331H128V326.5H137.2Z" fill="#FFC72C"/>
<path d="M130.7 332.501V335.201H127V332.501H130.7ZM134.5 327.601V330.201H130.7V327.601H134.5ZM144.3 327.601V330.201H139.8V327.601H144.3ZM140.6 332.601V335.201H136V332.501L140.6 332.601ZM150 332.601V335.201H146V332.501L150 332.601ZM144.3 337.401V340.101H139.8V337.401H144.3ZM134.5 337.401V340.101H130.7V337.401H134.5Z" fill="#383739"/>
<path d="M130.4 332.5H127V334.8H130.7L130.4 332.5ZM134.1 328H130.7V329.9H134.5L134.1 328ZM144 328H140.2V329.9H144V328ZM139.8 332.5H136V334.5H139.8V332.5ZM149.3 332.5H145.9V334.5H149.3V332.5ZM143.6 337.8H139.8V339.7H143.6V337.8ZM133.8 337.8H130.4V339.7H134.1L133.8 337.8Z" fill="white"/>
<path d="M175.3 331V326H177.3L184.8 321.2H185.2L193.1 326.1H195V331.1H198.8V336.3H195V341.3H192.7L185.2 346.5L177.2 341.2H175.3V336.3H170V331H175.3Z" fill="#383739"/>
<path d="M185.2 321.2L177.6 326.1H192.7L185.2 321.2ZM177.6 341.2L185.2 346.2L192.7 341.2H177.6ZM179.5 331.4V336.3H188.9V331.8L179.5 331.4Z" fill="#D22630"/>
<path d="M175.7 336.3V340.8H185.2V336.3H175.7ZM185.2 336.3V340.8H194.6V336.3H185.2ZM170 331.3V336.3H179.1V331.8L170 331.3ZM189 331.3V336.3H198.4V331.8L189 331.3ZM175.7 326.5V331H185.2V326.5H175.7ZM185.2 326.5V331H194.6V326.5H185.2Z" fill="#FFC72C"/>
<path d="M191.601 332.501V335.201H195.701V332.501H191.601ZM187.801 327.601V330.201H192.001V327.601H187.801ZM178.301 327.601V330.201H182.101V327.601H178.301ZM182.101 332.601V335.201H185.901V332.501L182.101 332.601ZM172.301 332.601V335.201H176.501V332.501L172.301 332.601ZM178.301 337.401V340.101H182.101V337.401H178.301ZM187.801 337.401V340.101H192.001V337.401H187.801Z" fill="#383739"/>
<path d="M191.999 332.5H195.699V334.8H191.999V332.5ZM188.199 328H191.999V329.9H188.199V328ZM178.699 328H182.099V329.9H178.299L178.699 328ZM182.499 332.9H185.899V334.8H182.099L182.499 332.9ZM172.699 332.9H176.499V334.8H172.699V332.9ZM178.699 337.9H182.099V339.7H178.299L178.699 337.9ZM188.199 337.9H191.999V339.7H188.199V337.9Z" fill="white"/>
<path d="M171.2 322.7V327.6H169.2L161.3 332.9L153 327.6H151.5V322.6H146.6V317.4H151.6V312.4H153L161.3 307.6L169.3 312.5H171.2V317.4H175.7V322.7H171.2Z" fill="#383739"/>
<path d="M161.299 332.5L168.899 327.6H153.799L161.299 332.5ZM168.899 312.5L161.299 308L153.799 312.5H168.899Z" fill="#FFC72C"/>
<path d="M170.8 317.399V312.899H161.3V317.399H170.8ZM161 317.399V312.899H151.9V317.399H161ZM175.3 322.399V317.799H166.3V322.299L175.3 322.399ZM165.9 322.399V317.799H156.9V322.299L165.9 322.399ZM156.4 322.399V317.799H147V322.299L156.4 322.399ZM170.8 327.199V322.699H161.3V327.199H170.8ZM161 327.199V322.699H151.9V327.199H161Z" fill="#D22630"/>
<path d="M158.7 313.6V316.6H154.5V313.6H158.7ZM168.1 313.6V316.6H164V313.6H168.1ZM153.8 318.9V321.6H149.6V318.9H153.8ZM163.2 318.9V321.6H159.5V318.9H163.2ZM173.1 318.9V321.6H168.9V318.9H173.1ZM158.3 323.9V326.5H154.5V323.8L158.3 323.9ZM168.1 323.9V326.5H164V323.8L168.1 323.9Z" fill="#383739"/>
<path d="M158 314.399H155V316.299H158V314.399ZM167.8 314.399H164.4V316.299H167.8V314.399ZM153.4 319.299H149.6V321.199H153.4V319.299ZM162.9 319.299H159.5V321.199H163.2L162.9 319.299ZM172.7 319.299H168.9V321.199H172.7V319.299ZM157.9 324.199H154.9V326.099H157.9V324.199ZM167.8 324.199H164.4V326.099H167.8V324.199Z" fill="white"/>
<path d="M171.2 349.9V355.2H169.2L161.3 360.5L153 355.2H151.5V350.2H146.6V345H151.6V340H153L161.3 335.2L169.3 340.1H171.2V345H175.7V350.3L171.2 349.9Z" fill="#383739"/>
<path d="M161.299 359.3L168.899 354.8H153.799L161.299 359.3ZM168.899 339.7L161.299 335.2L153.799 339.7H168.899Z" fill="#FFC72C"/>
<path d="M170.8 344.601V340.101H161.3V344.601H170.8ZM161 344.601V340.101H151.9V344.601H161ZM175.3 349.601V345.001H166.3V349.501L175.3 349.601ZM165.9 349.601V345.001H156.9V349.501L165.9 349.601ZM156.4 349.601V345.001H147V349.501L156.4 349.601ZM170.8 354.401V350.001H161.3V354.501L170.8 354.401ZM161 354.401V350.001H151.9V354.501L161 354.401Z" fill="#D22630"/>
<path d="M158.7 341.2V343.5H154.5V341.2H158.7ZM168.1 341.2V343.5H164V341.2H168.1ZM153.8 346.2V348.8H149.6V346L153.8 346.2ZM163.2 346.2V348.8H159.5V346L163.2 346.2ZM173.1 346.2V348.8H168.9V346L173.1 346.2ZM158.3 351V353.7H154.5V351H158.3ZM168.1 351V353.7H164V351H168.1Z" fill="#383739"/>
<path d="M158 341.601H155V343.101H158V341.601ZM167.8 341.601H164.4V343.101H167.8V341.601ZM153.4 346.501H149.6V348.001H153.4V346.501ZM162.9 346.501H159.5V348.001H163.2L162.9 346.501ZM172.7 346.501H168.9V348.001H172.7V346.501ZM157.9 351.501H154.9V353.301H157.9V351.501ZM167.8 351.501H164.4V353.301H167.8V351.501Z" fill="white"/>
<path d="M108.801 408.8L144.801 390H177.601L213.501 408.8V440.6L177.501 460.2H144.701L108.801 440.6V408.8Z" fill="#383739"/>
<path d="M145.099 390L109.199 408.8V440.6L145.099 459.5H177.599L213.099 440.5V409.2L177.599 390.3L145.099 390ZM145.499 392.6H176.799L210.799 410.7V439.1L176.799 457.2H145.499L111.499 439.1V410.7L145.499 392.6Z" fill="#00843D"/>
<path d="M161.299 424.7V456.8H176.799L210.499 438.7V425.1H161.299V393H145.499L112.199 410.7V424.7H161.299Z" fill="#FFC72C"/>
<path d="M161 424.7V456.8H145.9L111.9 438.7V425.1H161.3V393H176.8L210.5 410.7V424.7H161Z" fill="white"/>
<path d="M164.4 455V445.9L161.4 447.8L158.4 445.8V454.9H148.9L155.3 450.4V443.6L145.5 437.6H139V411.9H145.4L155.2 405.9V399.4L148.8 394.9H158.6V403.9L161.6 402L164.6 404V394.9H173.7L167.7 399.4V405.8L177.1 411.8H183.9V437.6H177.1L167.7 443.6V450.4L173.7 454.9L164.4 455Z" fill="#383739"/>
<path d="M164.7 395.2V404.7L161.3 402.8V405.4L176.1 414.9H181V424.7H183.3V412H176.8L167 406V398.7L172.3 395H164.7V395.2ZM139.4 425.1V437.1H145.9L155.7 443.6V450.4L150 454.6H157.6V445L161.3 447V444.3L146.3 434.8H141.7V425L139.4 425.1Z" fill="#FFC72C"/>
<path d="M150 395.2L155.7 399V406.2L145.9 412.2H139.4V424.7H141.7V415H146.2L161.3 405.5V402.9L157.6 404.8V395.3L150 395.2ZM181 425.1V434.9H176L161.3 444.4V447L164.7 445.1V454.6H172.3L167 450.8V443.6L176.8 437.2H183.3V425L181 425.1Z" fill="white"/>
<path d="M142 434.5H146.6L161.3 444L176.1 434.5H180.6V415H176.1L161 406L146.6 415H142.1L142 434.5Z" fill="#D22630"/>
<path d="M171.5 429.6H174.5V428.1H172.3V425.5H177.3V432.3H172.3V436.8H162.5V430H167V433H165.1V434.2H169.7V431.5L150.7 420.2H147.7V421.7H150.4V424.3H145V417.5H150V412.6H159.7V419.4H155.6V416.8H157.1V415.6H152.6V417.9L171.5 429.6ZM169.7 418.3V415.6H165V416.8H167V419.4H162.4V412.6H172.2V417.6H177.5V424.3H172.5V421.7H174.8V420.2H171.8L153 431.5V434.2H157.6V433H156V430H160.5V436.8H150.3V432.3H145.3V425.5H150.7V428.1H147.3V429.6H150.7L169.7 418.3Z" fill="#383739"/>
<path d="M170.001 431.5V434.5H164.701V432.6H166.701V430.4H162.901V436.4H171.901V432H176.901V426H172.701V427.8H174.901V430.1H171.201L152.201 418.4V415.4H157.601V417.3H156.001V419.1H159.701V413.1H150.301V418.1H145.301V424.1H149.901V422.1H147.301V419.9H151.001L170.001 431.5ZM171.201 420.2H174.901V422.1H172.701V424H176.801V418H172.001V413H163.001V419H166.701V417.2H164.801V415.2H170.101V418.2L151.201 429.6H147.501V427.7H150.101V425.8H145.601V431.8H150.501V436.4H159.901V430.8H156.201V433H157.701V435H152.401V431.9L171.201 420.2Z" fill="white"/>
<path d="M203 426.6V436.4H199V432.6H194.5V436.4H190V427H194.5V430.4H198.7V426.6H203ZM187.8 439.8V449.7H183.6V446.3H179.1V450H175V439.8H179.2V443.6H183.7V439.8H187.8ZM202.9 423.2V413.4H199.1V416.8H194.6V413H190.1V423.2H194.6V419.4H198.8V423.2H202.9ZM119.4 426.6V436.4H123.6V432.6H128.5V436.4H132.3V427H128V430.4H123.5V426.6H119.4ZM119.4 423.2V413.4H123.6V416.8H128.5V413H132.3V423.2H128V419.4H123.5V423.2H119.4ZM187.8 410V399.8H183.6V403.6H179.1V399.8H175V410H179.2V406.2H183.7V410H187.8ZM134.9 439.8V449.7H138.7V446.3H143.6V450H147.4V439.8H143.6V443.6H139V439.8H134.9ZM134.9 409.6V399.8H138.7V403.6H143.6V399.8H147.4V410H143.6V406.2H139V410L134.9 409.6ZM190.4 402.8V410.4H204L190.4 402.8ZM132.3 446.6V439.1H117.9L132.3 446.6ZM132.3 402.8V410.4H117.9L132.3 402.8ZM190.4 446.6V439.1H204L190.4 446.6Z" fill="#383739"/>
<path d="M199.101 432.6V436.4H202.901V427H199.101V430.4H194.201V426.6H190.401V436.1H194.201V432.3L199.101 432.6ZM184.101 445.9V449.7H187.401V440.2H183.601V444H178.701V440.2H175.301V449.2H179.101V446L184.101 445.9ZM199.101 417.2V413.4H202.901V422.8H199.101V419H194.201V422.8H190.401V413.8H194.201V417.2H199.101ZM123.601 432.2V436.1H119.801V427H123.601V430.4H128.501V426.6H131.901V436.1H128.001V432.3L123.601 432.2ZM123.601 417.2V413.4H119.801V422.8H123.601V419H128.501V422.8H131.901V413.8H128.001V417.2H123.601ZM184.001 403.9V400.2H187.401V409.6H183.601V405.8H178.701V409.6H175.301V400.2H179.101V403.9H184.001ZM138.701 445.9V449.7H134.901V440.2H138.701V444H143.601V440.2H147.401V449.2H143.601V446L138.701 445.9ZM138.701 403.9V400.2H134.901V409.6H138.701V405.8H143.601V409.6H147.401V400.2H143.601V403.9H138.701Z" fill="#D22630"/>
<path d="M190.8 403.6V410H203L190.8 403.6ZM119.4 439.5L131.9 446.3V439.5H119.4Z" fill="#FFC72C"/>
<path d="M131.9 403.6L119.4 410H132.3L131.9 403.6ZM190.9 439.5V446.3L202.9 439.5H190.9Z" fill="white"/>
<path d="M219.2 452.7C218.4 455.7 216.2 458 215.4 461C214.6 458 213.4 455.3 214.2 452C214.6 449.3 216.9 447.4 217.2 445.1C219.5 447.1 219.9 450.1 219.2 452.7ZM219.9 465.1C217.955 467.709 215.373 469.775 212.4 471.1C212.7 468.5 211.6 467.1 210.4 465.1C209 462.9 208.2 461 209.7 458.3C210.162 459.645 210.801 460.923 211.6 462.1C213.1 463.6 213.9 465.1 213.9 467.4C215.294 466.204 216.332 464.647 216.9 462.9C218.261 460.63 220.237 458.792 222.6 457.6C221.8 460.2 221.4 462.9 219.9 465.1ZM208.9 472.7L209.7 477.2L214.2 473.5C216.267 472.3 218.267 470.766 220.2 468.9C220.14 470.384 219.749 471.836 219.057 473.151C218.366 474.466 217.389 475.609 216.2 476.5C213.5 478.4 210.1 479.5 207.8 481.4C207.733 478.8 207.233 476.266 206.3 473.8C205.935 472.634 205.881 471.393 206.144 470.2C206.408 469.007 206.978 467.904 207.8 467L208.9 472.7ZM202.9 482.5C202.5 484.5 201 486.3 199.9 488.2C202.9 487.4 205.2 485.5 207.4 484.4C210.8 482.5 214.2 481.8 216.9 479.5C215.4 484.5 211.9 487.1 207.1 489C203.7 490 201.1 489.3 196.9 491.2C197.344 488.318 198.221 485.52 199.5 482.9L202.2 477.2C202.9 478.7 203.7 480.6 202.9 482.5ZM192.7 490.1C191.746 491.726 190.449 493.125 188.9 494.2C192.7 494.2 196.1 492 200.3 492C202.5 492 204.8 492.7 207.1 492C204.167 494.266 201 495.766 197.6 496.5C193.1 496.9 188.9 495.8 183.6 496.5C185.8 494.7 187.467 492.566 188.6 490.1C190.8 487.1 192.3 484.8 196.1 484.4C194.6 485.9 193.8 488.2 192.3 490.1H192.7ZM178.3 496.9C185.5 498 192.3 499.5 199.5 499.5C191.874 502.496 183.422 502.638 175.7 499.9C172.359 498.424 168.753 497.641 165.1 497.6C160.2 498 154.5 499.9 148.1 506.7L145.5 504.8C149.941 500.96 155.231 498.231 160.934 496.84C166.638 495.449 172.59 495.435 178.3 496.8V496.9Z" fill="#FFC72C"/>
</g>
<defs>
<clipPath id="clip0_3921_22066">
<rect width="512" height="512" fill="white"/>
</clipPath>
</defs>
</svg>
