<svg width="512" height="512" viewBox="0 0 512 512" fill="none" xmlns="http://www.w3.org/2000/svg">
<g clip-path="url(#clip0_3921_22271)">
<path d="M0 0H512V512H0V0Z" fill="#009FCA"/>
<path fill-rule="evenodd" clip-rule="evenodd" d="M477.999 226.3L485.099 246.7L466.699 234.1L448.199 246.7L455.299 226.3L436.799 213.7H459.699L466.699 193.3L473.699 213.7H496.499L477.999 226.3ZM420.799 389.1L427.799 409.5L409.399 396.8L390.999 409.5L397.999 389.1L379.599 376.4H402.399L409.399 356L416.399 376.5H439.299L420.799 389.1ZM478.099 352.2L485.099 372.6L466.699 360L448.199 372.6L455.299 352.2L436.799 339.6H459.699L466.699 319.2L473.699 339.6H496.499L478.099 352.2ZM231.899 470.2L238.999 490.7L220.599 478L202.099 490.7L209.199 470.3L190.699 457.7H213.499L220.499 437.3L227.599 457.7H250.399L231.899 470.2ZM274.999 381.8L267.999 361.4L286.399 374L304.799 361.4L297.799 381.8L316.199 394.4H293.399L286.399 414.8L279.399 394.4H256.599L274.999 381.8ZM342.299 288.8L335.199 268.4L353.599 281L372.099 268.4L365.099 288.8L383.499 301.4H360.699L353.699 321.8L346.699 301.4H323.799L342.299 288.8ZM398.799 269.5L391.799 249.1L410.199 261.7L428.599 249.1L421.599 269.5L439.999 282.1H417.199L410.199 302.5L403.199 282.1H380.299L398.799 269.5ZM342.299 430.5L335.199 410.1L353.599 422.7L372.099 410.1L365.099 430.5L383.499 443.1H360.699L353.699 463.5L346.699 443.1H323.799L342.299 430.5ZM274.999 446.9L267.999 426.5L286.399 439.1L304.799 426.5L297.799 446.9L316.199 459.5H293.399L286.399 479.9L279.399 459.5H256.599L274.999 446.9Z" fill="#FFF40D"/>
<path d="M0 0H256V256H0V0Z" fill="#012169"/>
<path d="M256 0V32L161 128L256 221.5V256H222.5L127 162L34 256H0V222L93 128.5L0 37V0H31L127 94L220 0H256Z" fill="white"/>
<path d="M92 162L97.5 179L21 256H0V254.5L92 162ZM154 156L181 160L256 233.5V256L154 156ZM256 0L160 98L158 76L233 0H256ZM0 0.5L96.5 95L67 91L0 24.5V0.5Z" fill="#C8102E"/>
<path d="M88 0V256H168V0H88ZM0 88V168H256V88H0Z" fill="white"/>
<path d="M0 104V152H256V104H0ZM104 0V256H152V0H104Z" fill="#C8102E"/>
</g>
<defs>
<clipPath id="clip0_3921_22271">
<rect width="512" height="512" fill="white"/>
</clipPath>
</defs>
</svg>
