<svg width="512" height="512" viewBox="0 0 512 512" fill="none" xmlns="http://www.w3.org/2000/svg">
<g clip-path="url(#clip0_3921_23019)">
<path d="M0 0H512V512H0V0Z" fill="#000066"/>
<path d="M290.953 124.691L475.956 124.026L475.587 288.785C475.587 288.785 482.088 313.906 398.01 351.955C428.228 348.852 461.179 316.639 461.179 316.639C461.179 316.639 474.552 299.425 481.128 309.029C487.703 318.634 493.762 323.51 498.564 327.279C503.367 331.047 507.135 341.316 499.968 348.852C492.727 356.462 481.423 357.423 478.32 348.187C473.518 350.626 444.039 386.311 383.602 388.01C322.132 386.976 288.515 347.818 288.515 347.818C288.515 347.818 280.314 360.895 268.567 350.626C257.262 337.179 265.833 328.608 265.833 328.608C265.833 328.608 275.438 323.141 278.245 319.373C282.678 314.201 284.082 307.33 291.544 307.33C300.558 308.069 303.956 315.236 303.956 315.236C303.956 315.236 334.84 347.818 368.161 351.955C293.022 315.901 290.214 293.588 290.584 288.121L290.953 124.691Z" fill="white"/>
<path d="M295.386 129.198L471.818 128.164V286.717C472.188 307.404 437.463 328.313 383.233 355.059C327.303 326.244 295.016 308.734 294.721 286.348L295.386 129.198Z" fill="#006129" stroke="black" stroke-width="1.40378"/>
<path d="M319.398 152.619L329.742 137.325L340.307 152.693" stroke="#FFC72C" stroke-width="1.40378"/>
<path d="M331.886 146.856C331.886 147.404 331.668 147.931 331.28 148.319C330.892 148.707 330.365 148.925 329.817 148.925C329.268 148.925 328.742 148.707 328.354 148.319C327.966 147.931 327.748 147.404 327.748 146.856C327.748 146.307 327.966 145.781 328.354 145.393C328.742 145.005 329.268 144.787 329.817 144.787C330.365 144.787 330.892 145.005 331.28 145.393C331.668 145.781 331.886 146.307 331.886 146.856Z" fill="#FFC72C" stroke="black" stroke-width="0.664947"/>
<path d="M321.32 163.923H337.5C337.5 163.923 337.722 161.855 335.801 160.599C344.297 159.417 342.081 152.028 349.1 151.585C350.577 151.807 345.406 154.762 345.406 154.762C345.406 154.762 341.194 157.717 343.189 159.269C344.667 160.525 345.406 158.53 345.553 157.052C345.701 155.575 352.425 154.614 351.464 150.403C349.912 146.93 340.603 152.767 340.603 152.767L333.954 152.693C333.51 151.954 331.737 148.999 329.816 148.999C327.6 148.999 325.974 152.693 325.974 152.693H310.976C310.976 152.693 310.459 156.609 318.069 157.348C319.768 159.564 321.098 160.155 322.65 160.746C321.665 161.535 321.221 162.594 321.32 163.923ZM322.502 160.673H335.949H322.502Z" fill="#FFC72C"/>
<path d="M322.502 160.673H335.949M321.32 163.923H337.5C337.5 163.923 337.722 161.855 335.801 160.599C344.297 159.417 342.081 152.028 349.1 151.585C350.577 151.807 345.406 154.762 345.406 154.762C345.406 154.762 341.194 157.717 343.189 159.269C344.667 160.525 345.406 158.53 345.553 157.052C345.701 155.575 352.425 154.614 351.464 150.403C349.912 146.93 340.603 152.767 340.603 152.767L333.954 152.693C333.51 151.954 331.737 148.999 329.816 148.999C327.6 148.999 325.974 152.693 325.974 152.693H310.976C310.976 152.693 310.459 156.609 318.069 157.348C319.768 159.564 321.098 160.155 322.65 160.746C321.665 161.535 321.221 162.594 321.32 163.923Z" stroke="black" stroke-width="0.664947"/>
<path d="M316.369 152.767C316.369 152.767 317.404 159.047 322.428 160.524L316.369 152.767Z" fill="#FFC72C"/>
<path d="M316.369 152.767C316.369 152.767 317.404 159.047 322.428 160.524" stroke="black" stroke-width="0.664947"/>
<path d="M315.556 152.62C316 150.255 316.96 149.812 317.921 146.709C318.068 143.754 315.556 144.123 316.295 142.276C317.576 140.109 316.96 138.212 314.448 136.587C314.965 139.321 311.197 141.906 311.197 144.123C311.197 146.339 313.118 145.896 312.897 149.295C313.044 151.216 312.379 150.772 312.158 152.62H315.556Z" fill="url(#paint0_linear_3921_23019)" stroke="black" stroke-width="0.664947"/>
<path d="M331.736 137.769C331.736 138.278 331.534 138.767 331.174 139.127C330.814 139.487 330.325 139.69 329.816 139.69C329.306 139.69 328.817 139.487 328.457 139.127C328.097 138.767 327.895 138.278 327.895 137.769C327.895 137.259 328.097 136.771 328.457 136.41C328.817 136.05 329.306 135.848 329.816 135.848C330.325 135.848 330.814 136.05 331.174 136.41C331.534 136.771 331.736 137.259 331.736 137.769Z" fill="#FFC72C" stroke="black" stroke-width="0.664947"/>
<path d="M318.807 183.133L329.15 167.839L339.716 183.207" stroke="#FFC72C" stroke-width="1.40378"/>
<path d="M331.294 177.37C331.294 177.918 331.076 178.444 330.688 178.832C330.3 179.22 329.774 179.438 329.225 179.438C328.676 179.438 328.15 179.22 327.762 178.832C327.374 178.444 327.156 177.918 327.156 177.37C327.156 176.821 327.374 176.295 327.762 175.907C328.15 175.519 328.676 175.301 329.225 175.301C329.774 175.301 330.3 175.519 330.688 175.907C331.076 176.295 331.294 176.821 331.294 177.37Z" fill="#FFC72C" stroke="black" stroke-width="0.664947"/>
<path d="M320.728 194.437H336.908C336.908 194.437 337.13 192.368 335.209 191.112C343.706 189.93 341.489 182.542 348.508 182.099C349.986 182.32 344.814 185.276 344.814 185.276C344.814 185.276 340.602 188.231 342.597 189.782C344.075 191.038 344.814 189.044 344.962 187.566C345.109 186.088 351.833 185.128 350.872 180.916C349.321 177.444 340.011 183.281 340.011 183.281L333.362 183.207C332.919 182.468 331.145 179.513 329.225 179.513C327.008 179.513 325.383 183.207 325.383 183.207H310.384C310.384 183.207 309.867 187.123 317.477 187.861C319.176 190.078 320.506 190.669 322.058 191.26C321.073 192.048 320.629 193.107 320.728 194.437ZM321.91 191.186H335.357H321.91Z" fill="#FFC72C"/>
<path d="M321.91 191.186H335.357M320.728 194.437H336.908C336.908 194.437 337.13 192.368 335.209 191.112C343.706 189.93 341.489 182.542 348.508 182.099C349.986 182.32 344.814 185.276 344.814 185.276C344.814 185.276 340.602 188.231 342.597 189.782C344.075 191.038 344.814 189.044 344.962 187.566C345.109 186.088 351.833 185.128 350.872 180.916C349.321 177.444 340.011 183.281 340.011 183.281L333.362 183.207C332.919 182.468 331.145 179.513 329.225 179.513C327.008 179.513 325.383 183.207 325.383 183.207H310.384C310.384 183.207 309.867 187.123 317.477 187.861C319.176 190.078 320.506 190.669 322.058 191.26C321.073 192.048 320.629 193.107 320.728 194.437Z" stroke="black" stroke-width="0.664947"/>
<path d="M315.777 183.28C315.777 183.28 316.812 189.56 321.836 191.038L315.777 183.28Z" fill="#FFC72C"/>
<path d="M315.777 183.28C315.777 183.28 316.812 189.56 321.836 191.038" stroke="black" stroke-width="0.664947"/>
<path d="M314.965 183.133C315.408 180.769 316.368 180.326 317.329 177.223C317.477 174.267 314.965 174.637 315.703 172.79C316.984 170.622 316.368 168.726 313.856 167.101C314.373 169.834 310.605 172.42 310.605 174.637C310.605 176.853 312.526 176.41 312.305 179.808C312.453 181.729 311.788 181.286 311.566 183.133H314.965Z" fill="url(#paint1_linear_3921_23019)" stroke="black" stroke-width="0.664947"/>
<path d="M331.145 168.282C331.145 168.792 330.942 169.28 330.582 169.641C330.222 170.001 329.733 170.203 329.224 170.203C328.714 170.203 328.226 170.001 327.865 169.641C327.505 169.28 327.303 168.792 327.303 168.282C327.303 167.773 327.505 167.284 327.865 166.924C328.226 166.564 328.714 166.361 329.224 166.361C329.733 166.361 330.222 166.564 330.582 166.924C330.942 167.284 331.145 167.773 331.145 168.282Z" fill="#FFC72C" stroke="black" stroke-width="0.664947"/>
<path d="M318.586 213.203L328.93 197.909L339.495 213.277" stroke="#FFC72C" stroke-width="1.40378"/>
<path d="M331.073 207.44C331.073 207.988 330.855 208.515 330.467 208.903C330.079 209.291 329.553 209.509 329.004 209.509C328.456 209.509 327.929 209.291 327.541 208.903C327.154 208.515 326.936 207.988 326.936 207.44C326.936 206.891 327.154 206.365 327.541 205.977C327.929 205.589 328.456 205.371 329.004 205.371C329.553 205.371 330.079 205.589 330.467 205.977C330.855 206.365 331.073 206.891 331.073 207.44Z" fill="#FFC72C" stroke="black" stroke-width="0.664947"/>
<path d="M320.507 224.507H336.688C336.688 224.507 336.909 222.439 334.988 221.183C343.485 220.001 341.268 212.612 348.287 212.169C349.765 212.391 344.593 215.346 344.593 215.346C344.593 215.346 340.382 218.301 342.377 219.853C343.854 221.109 344.593 219.114 344.741 217.636C344.889 216.159 351.612 215.198 350.652 210.987C349.1 207.514 339.791 213.351 339.791 213.351L333.141 213.277C332.698 212.538 330.925 209.583 329.004 209.583C326.787 209.583 325.162 213.277 325.162 213.277H310.164C310.164 213.277 309.646 217.193 317.256 217.932C318.956 220.148 320.286 220.739 321.837 221.33C320.852 222.118 320.409 223.177 320.507 224.507ZM321.689 221.257H335.136H321.689Z" fill="#FFC72C"/>
<path d="M321.689 221.257H335.136M320.507 224.507H336.688C336.688 224.507 336.909 222.439 334.988 221.183C343.485 220.001 341.268 212.612 348.287 212.169C349.765 212.391 344.593 215.346 344.593 215.346C344.593 215.346 340.382 218.301 342.377 219.853C343.854 221.109 344.593 219.114 344.741 217.636C344.889 216.159 351.612 215.198 350.652 210.987C349.1 207.514 339.791 213.351 339.791 213.351L333.141 213.277C332.698 212.538 330.925 209.583 329.004 209.583C326.787 209.583 325.162 213.277 325.162 213.277H310.164C310.164 213.277 309.646 217.193 317.256 217.932C318.956 220.148 320.286 220.739 321.837 221.33C320.852 222.118 320.409 223.177 320.507 224.507Z" stroke="black" stroke-width="0.664947"/>
<path d="M315.557 213.351C315.557 213.351 316.591 219.631 321.615 221.108L315.557 213.351Z" fill="#FFC72C"/>
<path d="M315.557 213.351C315.557 213.351 316.591 219.631 321.615 221.108" stroke="black" stroke-width="0.664947"/>
<path d="M314.744 213.204C315.187 210.839 316.148 210.396 317.108 207.293C317.256 204.338 314.744 204.707 315.483 202.86C316.763 200.693 316.148 198.796 313.636 197.171C314.153 199.905 310.385 202.49 310.385 204.707C310.385 206.923 312.306 206.48 312.084 209.879C312.232 211.8 311.567 211.356 311.345 213.204H314.744Z" fill="url(#paint2_linear_3921_23019)" stroke="black" stroke-width="0.664947"/>
<path d="M330.924 198.353C330.924 198.862 330.722 199.351 330.361 199.711C330.001 200.071 329.512 200.274 329.003 200.274C328.494 200.274 328.005 200.071 327.645 199.711C327.284 199.351 327.082 198.862 327.082 198.353C327.082 197.843 327.284 197.355 327.645 196.994C328.005 196.634 328.494 196.432 329.003 196.432C329.512 196.432 330.001 196.634 330.361 196.994C330.722 197.355 330.924 197.843 330.924 198.353Z" fill="#FFC72C" stroke="black" stroke-width="0.664947"/>
<path d="M338.312 245.785L348.656 230.491L359.221 245.859" stroke="#FFC72C" stroke-width="1.40378"/>
<path d="M350.8 240.022C350.8 240.571 350.582 241.097 350.194 241.485C349.806 241.873 349.28 242.091 348.731 242.091C348.182 242.091 347.656 241.873 347.268 241.485C346.88 241.097 346.662 240.571 346.662 240.022C346.662 239.473 346.88 238.947 347.268 238.559C347.656 238.171 348.182 237.953 348.731 237.953C349.28 237.953 349.806 238.171 350.194 238.559C350.582 238.947 350.8 239.473 350.8 240.022Z" fill="#FFC72C" stroke="black" stroke-width="0.664947"/>
<path d="M340.234 257.089H356.414C356.414 257.089 356.636 255.021 354.715 253.765C363.211 252.583 360.995 245.194 368.014 244.751C369.491 244.973 364.32 247.928 364.32 247.928C364.32 247.928 360.108 250.883 362.103 252.435C363.581 253.691 364.32 251.696 364.467 250.218C364.615 248.741 371.339 247.78 370.378 243.569C368.827 240.096 359.517 245.933 359.517 245.933L352.868 245.859C352.425 245.12 350.651 242.165 348.73 242.165C346.514 242.165 344.888 245.859 344.888 245.859H329.89C329.89 245.859 329.373 249.775 336.983 250.514C338.682 252.73 340.012 253.321 341.564 253.912C340.579 254.701 340.135 255.76 340.234 257.089ZM341.416 253.839H354.863H341.416Z" fill="#FFC72C"/>
<path d="M341.416 253.839H354.863M340.234 257.089H356.414C356.414 257.089 356.636 255.021 354.715 253.765C363.211 252.583 360.995 245.194 368.014 244.751C369.491 244.973 364.32 247.928 364.32 247.928C364.32 247.928 360.108 250.883 362.103 252.435C363.581 253.691 364.32 251.696 364.467 250.218C364.615 248.741 371.339 247.78 370.378 243.569C368.827 240.096 359.517 245.933 359.517 245.933L352.868 245.859C352.425 245.12 350.651 242.165 348.73 242.165C346.514 242.165 344.888 245.859 344.888 245.859H329.89C329.89 245.859 329.373 249.775 336.983 250.514C338.682 252.73 340.012 253.321 341.564 253.912C340.579 254.701 340.135 255.76 340.234 257.089Z" stroke="black" stroke-width="0.664947"/>
<path d="M335.283 245.933C335.283 245.933 336.318 252.213 341.342 253.69L335.283 245.933Z" fill="#FFC72C"/>
<path d="M335.283 245.933C335.283 245.933 336.318 252.213 341.342 253.69" stroke="black" stroke-width="0.664947"/>
<path d="M334.47 245.786C334.914 243.421 335.874 242.978 336.835 239.875C336.982 236.92 334.47 237.289 335.209 235.442C336.49 233.275 335.874 231.378 333.362 229.753C333.879 232.487 330.111 235.073 330.111 237.289C330.111 239.505 332.032 239.062 331.811 242.461C331.958 244.382 331.293 243.938 331.072 245.786H334.47Z" fill="url(#paint3_linear_3921_23019)" stroke="black" stroke-width="0.664947"/>
<path d="M350.651 230.935C350.651 231.444 350.448 231.933 350.088 232.293C349.728 232.653 349.239 232.856 348.73 232.856C348.22 232.856 347.731 232.653 347.371 232.293C347.011 231.933 346.809 231.444 346.809 230.935C346.809 230.425 347.011 229.937 347.371 229.576C347.731 229.216 348.22 229.014 348.73 229.014C349.239 229.014 349.728 229.216 350.088 229.576C350.448 229.937 350.651 230.425 350.651 230.935Z" fill="#FFC72C" stroke="black" stroke-width="0.664947"/>
<path d="M316 272.457L326.344 257.163L336.909 272.531" stroke="#FFC72C" stroke-width="1.40378"/>
<path d="M328.487 266.694C328.487 267.242 328.269 267.769 327.881 268.157C327.493 268.545 326.967 268.762 326.418 268.762C325.87 268.762 325.344 268.545 324.956 268.157C324.568 267.769 324.35 267.242 324.35 266.694C324.35 266.145 324.568 265.619 324.956 265.231C325.344 264.843 325.87 264.625 326.418 264.625C326.967 264.625 327.493 264.843 327.881 265.231C328.269 265.619 328.487 266.145 328.487 266.694Z" fill="#FFC72C" stroke="black" stroke-width="0.664947"/>
<path d="M317.921 283.761H334.102C334.102 283.761 334.323 281.693 332.402 280.437C340.899 279.254 338.682 271.866 345.701 271.423C347.179 271.644 342.007 274.6 342.007 274.6C342.007 274.6 337.796 277.555 339.791 279.107C341.268 280.363 342.007 278.368 342.155 276.89C342.303 275.413 349.026 274.452 348.066 270.241C346.514 266.768 337.205 272.605 337.205 272.605L330.555 272.531C330.112 271.792 328.339 268.837 326.418 268.837C324.201 268.837 322.576 272.531 322.576 272.531H307.578C307.578 272.531 307.061 276.447 314.67 277.186C316.37 279.402 317.7 279.993 319.251 280.584C318.266 281.372 317.823 282.431 317.921 283.761ZM319.103 280.51H332.55H319.103Z" fill="#FFC72C"/>
<path d="M319.103 280.51H332.55M317.921 283.761H334.102C334.102 283.761 334.323 281.693 332.402 280.437C340.899 279.254 338.682 271.866 345.701 271.423C347.179 271.644 342.007 274.6 342.007 274.6C342.007 274.6 337.796 277.555 339.791 279.107C341.268 280.363 342.007 278.368 342.155 276.89C342.303 275.413 349.026 274.452 348.066 270.241C346.514 266.768 337.205 272.605 337.205 272.605L330.555 272.531C330.112 271.792 328.339 268.837 326.418 268.837C324.201 268.837 322.576 272.531 322.576 272.531H307.578C307.578 272.531 307.061 276.447 314.67 277.186C316.37 279.402 317.7 279.993 319.251 280.584C318.266 281.372 317.823 282.431 317.921 283.761Z" stroke="black" stroke-width="0.664947"/>
<path d="M312.971 272.604C312.971 272.604 314.005 278.885 319.029 280.362L312.971 272.604Z" fill="#FFC72C"/>
<path d="M312.971 272.604C312.971 272.604 314.005 278.885 319.029 280.362" stroke="black" stroke-width="0.664947"/>
<path d="M312.158 272.457C312.601 270.093 313.562 269.65 314.522 266.547C314.67 263.591 312.158 263.961 312.897 262.114C314.177 259.947 313.562 258.05 311.05 256.425C311.567 259.158 307.799 261.744 307.799 263.961C307.799 266.177 309.72 265.734 309.498 269.133C309.646 271.054 308.981 270.61 308.759 272.457H312.158Z" fill="url(#paint4_linear_3921_23019)" stroke="black" stroke-width="0.664947"/>
<path d="M328.338 257.606C328.338 258.116 328.136 258.605 327.775 258.965C327.415 259.325 326.927 259.527 326.417 259.527C325.908 259.527 325.419 259.325 325.059 258.965C324.698 258.605 324.496 258.116 324.496 257.606C324.496 257.097 324.698 256.608 325.059 256.248C325.419 255.888 325.908 255.686 326.417 255.686C326.927 255.686 327.415 255.888 327.775 256.248C328.136 256.608 328.338 257.097 328.338 257.606Z" fill="#FFC72C" stroke="black" stroke-width="0.664947"/>
<path d="M316.59 303.931L326.933 288.638L337.499 304.005" stroke="#FFC72C" stroke-width="1.40378"/>
<path d="M329.077 298.168C329.077 298.717 328.859 299.243 328.471 299.631C328.083 300.019 327.557 300.237 327.008 300.237C326.46 300.237 325.933 300.019 325.545 299.631C325.157 299.243 324.939 298.717 324.939 298.168C324.939 297.62 325.157 297.093 325.545 296.706C325.933 296.318 326.46 296.1 327.008 296.1C327.557 296.1 328.083 296.318 328.471 296.706C328.859 297.093 329.077 297.62 329.077 298.168Z" fill="#FFC72C" stroke="black" stroke-width="0.664947"/>
<path d="M318.511 315.236H334.692C334.692 315.236 334.913 313.167 332.992 311.911C341.489 310.729 339.272 303.341 346.291 302.897C347.769 303.119 342.597 306.074 342.597 306.074C342.597 306.074 338.386 309.03 340.381 310.581C341.858 311.837 342.597 309.842 342.745 308.365C342.893 306.887 349.616 305.927 348.655 301.715C347.104 298.243 337.795 304.08 337.795 304.08L331.145 304.006C330.702 303.267 328.929 300.312 327.008 300.312C324.791 300.312 323.166 304.006 323.166 304.006H308.168C308.168 304.006 307.65 307.921 315.26 308.66C316.96 310.877 318.29 311.468 319.841 312.059C318.856 312.847 318.413 313.906 318.511 315.236ZM319.693 311.985H333.14H319.693Z" fill="#FFC72C"/>
<path d="M319.693 311.985H333.14M318.511 315.236H334.692C334.692 315.236 334.913 313.167 332.992 311.911C341.489 310.729 339.272 303.341 346.291 302.897C347.769 303.119 342.597 306.074 342.597 306.074C342.597 306.074 338.386 309.03 340.381 310.581C341.858 311.837 342.597 309.842 342.745 308.365C342.893 306.887 349.616 305.927 348.655 301.715C347.104 298.243 337.795 304.08 337.795 304.08L331.145 304.006C330.702 303.267 328.929 300.312 327.008 300.312C324.791 300.312 323.166 304.006 323.166 304.006H308.168C308.168 304.006 307.65 307.921 315.26 308.66C316.96 310.877 318.29 311.468 319.841 312.059C318.856 312.847 318.413 313.906 318.511 315.236Z" stroke="black" stroke-width="0.664947"/>
<path d="M313.561 304.079C313.561 304.079 314.595 310.359 319.619 311.837L313.561 304.079Z" fill="#FFC72C"/>
<path d="M313.561 304.079C313.561 304.079 314.595 310.359 319.619 311.837" stroke="black" stroke-width="0.664947"/>
<path d="M312.748 303.932C313.191 301.568 314.152 301.124 315.112 298.021C315.26 295.066 312.748 295.435 313.487 293.588C314.767 291.421 314.152 289.525 311.639 287.899C312.157 290.633 308.389 293.219 308.389 295.435C308.389 297.652 310.31 297.209 310.088 300.607C310.236 302.528 309.571 302.085 309.349 303.932H312.748Z" fill="url(#paint5_linear_3921_23019)" stroke="black" stroke-width="0.664947"/>
<path d="M328.928 289.081C328.928 289.591 328.725 290.079 328.365 290.439C328.005 290.8 327.516 291.002 327.007 291.002C326.497 291.002 326.009 290.8 325.649 290.439C325.288 290.079 325.086 289.591 325.086 289.081C325.086 288.572 325.288 288.083 325.649 287.723C326.009 287.363 326.497 287.16 327.007 287.16C327.516 287.16 328.005 287.363 328.365 287.723C328.725 288.083 328.928 288.572 328.928 289.081Z" fill="#FFC72C" stroke="black" stroke-width="0.664947"/>
<path d="M427.488 153.137L437.832 137.843L448.397 153.21" stroke="#FFC72C" stroke-width="1.40378"/>
<path d="M439.975 147.373C439.975 147.922 439.757 148.448 439.369 148.836C438.981 149.224 438.455 149.442 437.907 149.442C437.358 149.442 436.832 149.224 436.444 148.836C436.056 148.448 435.838 147.922 435.838 147.373C435.838 146.825 436.056 146.299 436.444 145.911C436.832 145.523 437.358 145.305 437.907 145.305C438.455 145.305 438.981 145.523 439.369 145.911C439.757 146.299 439.975 146.825 439.975 147.373Z" fill="#FFC72C" stroke="black" stroke-width="0.664947"/>
<path d="M429.41 164.441H445.59C445.59 164.441 445.812 162.372 443.891 161.116C452.387 159.934 450.171 152.546 457.19 152.103C458.667 152.324 453.495 155.279 453.495 155.279C453.495 155.279 449.284 158.235 451.279 159.786C452.757 161.042 453.495 159.048 453.643 157.57C453.791 156.092 460.514 155.132 459.554 150.92C458.002 147.448 448.693 153.285 448.693 153.285L442.044 153.211C441.6 152.472 439.827 149.517 437.906 149.517C435.69 149.517 434.064 153.211 434.064 153.211H419.066C419.066 153.211 418.549 157.127 426.159 157.865C427.858 160.082 429.188 160.673 430.74 161.264C429.754 162.052 429.311 163.111 429.41 164.441ZM430.592 161.19H444.038H430.592Z" fill="#FFC72C"/>
<path d="M430.592 161.19H444.038M429.41 164.441H445.59C445.59 164.441 445.812 162.372 443.891 161.116C452.387 159.934 450.171 152.546 457.19 152.103C458.667 152.324 453.495 155.279 453.495 155.279C453.495 155.279 449.284 158.235 451.279 159.786C452.757 161.042 453.495 159.048 453.643 157.57C453.791 156.092 460.514 155.132 459.554 150.92C458.002 147.448 448.693 153.285 448.693 153.285L442.044 153.211C441.6 152.472 439.827 149.517 437.906 149.517C435.69 149.517 434.064 153.211 434.064 153.211H419.066C419.066 153.211 418.549 157.127 426.159 157.865C427.858 160.082 429.188 160.673 430.74 161.264C429.754 162.052 429.311 163.111 429.41 164.441Z" stroke="black" stroke-width="0.664947"/>
<path d="M424.459 153.284C424.459 153.284 425.493 159.564 430.517 161.042L424.459 153.284Z" fill="#FFC72C"/>
<path d="M424.459 153.284C424.459 153.284 425.493 159.564 430.517 161.042" stroke="black" stroke-width="0.664947"/>
<path d="M423.646 153.137C424.089 150.773 425.05 150.33 426.01 147.226C426.158 144.271 423.646 144.641 424.385 142.793C425.666 140.626 425.05 138.73 422.538 137.104C423.055 139.838 419.287 142.424 419.287 144.641C419.287 146.857 421.208 146.414 420.986 149.812C421.134 151.733 420.469 151.29 420.248 153.137H423.646Z" fill="url(#paint6_linear_3921_23019)" stroke="black" stroke-width="0.664947"/>
<path d="M439.826 138.286C439.826 138.796 439.624 139.284 439.264 139.645C438.903 140.005 438.415 140.207 437.905 140.207C437.396 140.207 436.907 140.005 436.547 139.645C436.187 139.284 435.984 138.796 435.984 138.286C435.984 137.777 436.187 137.288 436.547 136.928C436.907 136.568 437.396 136.365 437.905 136.365C438.415 136.365 438.903 136.568 439.264 136.928C439.624 137.288 439.826 137.777 439.826 138.286Z" fill="#FFC72C" stroke="black" stroke-width="0.664947"/>
<path d="M426.453 183.058L436.797 167.765L447.362 183.132" stroke="#FFC72C" stroke-width="1.40378"/>
<path d="M438.94 177.295C438.94 177.844 438.722 178.37 438.334 178.758C437.946 179.146 437.42 179.364 436.871 179.364C436.323 179.364 435.797 179.146 435.409 178.758C435.021 178.37 434.803 177.844 434.803 177.295C434.803 176.747 435.021 176.22 435.409 175.832C435.797 175.445 436.323 175.227 436.871 175.227C437.42 175.227 437.946 175.445 438.334 175.832C438.722 176.22 438.94 176.747 438.94 177.295Z" fill="#FFC72C" stroke="black" stroke-width="0.664947"/>
<path d="M428.374 194.363H444.555C444.555 194.363 444.776 192.294 442.856 191.038C451.352 189.856 449.136 182.468 456.154 182.024C457.632 182.246 452.46 185.201 452.46 185.201C452.46 185.201 448.249 188.157 450.244 189.708C451.721 190.964 452.46 188.969 452.608 187.492C452.756 186.014 459.479 185.054 458.519 180.842C456.967 177.37 447.658 183.207 447.658 183.207L441.008 183.133C440.565 182.394 438.792 179.438 436.871 179.438C434.655 179.438 433.029 183.133 433.029 183.133H418.031C418.031 183.133 417.514 187.048 425.124 187.787C426.823 190.004 428.153 190.595 429.704 191.186C428.719 191.974 428.276 193.033 428.374 194.363ZM429.557 191.112H443.003H429.557Z" fill="#FFC72C"/>
<path d="M429.557 191.112H443.003M428.374 194.363H444.555C444.555 194.363 444.776 192.294 442.856 191.038C451.352 189.856 449.136 182.468 456.154 182.024C457.632 182.246 452.46 185.201 452.46 185.201C452.46 185.201 448.249 188.157 450.244 189.708C451.721 190.964 452.46 188.969 452.608 187.492C452.756 186.014 459.479 185.054 458.519 180.842C456.967 177.37 447.658 183.207 447.658 183.207L441.008 183.133C440.565 182.394 438.792 179.438 436.871 179.438C434.655 179.438 433.029 183.133 433.029 183.133H418.031C418.031 183.133 417.514 187.048 425.124 187.787C426.823 190.004 428.153 190.595 429.704 191.186C428.719 191.974 428.276 193.033 428.374 194.363Z" stroke="black" stroke-width="0.664947"/>
<path d="M423.424 183.206C423.424 183.206 424.458 189.486 429.482 190.964L423.424 183.206Z" fill="#FFC72C"/>
<path d="M423.424 183.206C423.424 183.206 424.458 189.486 429.482 190.964" stroke="black" stroke-width="0.664947"/>
<path d="M422.611 183.059C423.054 180.695 424.015 180.251 424.975 177.148C425.123 174.193 422.611 174.562 423.35 172.715C424.63 170.548 424.015 168.652 421.503 167.026C422.02 169.76 418.252 172.346 418.252 174.562C418.252 176.779 420.173 176.336 419.951 179.734C420.099 181.655 419.434 181.212 419.212 183.059H422.611Z" fill="url(#paint7_linear_3921_23019)" stroke="black" stroke-width="0.664947"/>
<path d="M438.791 168.208C438.791 168.718 438.589 169.206 438.228 169.566C437.868 169.927 437.38 170.129 436.87 170.129C436.361 170.129 435.872 169.927 435.512 169.566C435.152 169.206 434.949 168.718 434.949 168.208C434.949 167.699 435.152 167.21 435.512 166.85C435.872 166.489 436.361 166.287 436.87 166.287C437.38 166.287 437.868 166.489 438.228 166.85C438.589 167.21 438.791 167.699 438.791 168.208Z" fill="#FFC72C" stroke="black" stroke-width="0.664947"/>
<path d="M425.125 213.721L435.469 198.427L446.034 213.794" stroke="#FFC72C" stroke-width="1.40378"/>
<path d="M437.612 207.957C437.612 208.506 437.394 209.032 437.006 209.42C436.618 209.808 436.092 210.026 435.543 210.026C434.995 210.026 434.469 209.808 434.081 209.42C433.693 209.032 433.475 208.506 433.475 207.957C433.475 207.409 433.693 206.883 434.081 206.495C434.469 206.107 434.995 205.889 435.543 205.889C436.092 205.889 436.618 206.107 437.006 206.495C437.394 206.883 437.612 207.409 437.612 207.957Z" fill="#FFC72C" stroke="black" stroke-width="0.664947"/>
<path d="M427.046 225.025H443.227C443.227 225.025 443.448 222.956 441.527 221.7C450.024 220.518 447.807 213.13 454.826 212.686C456.304 212.908 451.132 215.863 451.132 215.863C451.132 215.863 446.921 218.819 448.916 220.37C450.393 221.626 451.132 219.631 451.28 218.154C451.428 216.676 458.151 215.716 457.191 211.504C455.639 208.032 446.33 213.869 446.33 213.869L439.68 213.795C439.237 213.056 437.464 210.101 435.543 210.101C433.326 210.101 431.701 213.795 431.701 213.795H416.703C416.703 213.795 416.186 217.711 423.795 218.449C425.495 220.666 426.825 221.257 428.376 221.848C427.391 222.636 426.948 223.695 427.046 225.025ZM428.228 221.774H441.675H428.228Z" fill="#FFC72C"/>
<path d="M428.228 221.774H441.675M427.046 225.025H443.227C443.227 225.025 443.448 222.956 441.527 221.7C450.024 220.518 447.807 213.13 454.826 212.686C456.304 212.908 451.132 215.863 451.132 215.863C451.132 215.863 446.921 218.819 448.916 220.37C450.393 221.626 451.132 219.631 451.28 218.154C451.428 216.676 458.151 215.716 457.191 211.504C455.639 208.032 446.33 213.869 446.33 213.869L439.68 213.795C439.237 213.056 437.464 210.101 435.543 210.101C433.326 210.101 431.701 213.795 431.701 213.795H416.703C416.703 213.795 416.186 217.711 423.795 218.449C425.495 220.666 426.825 221.257 428.376 221.848C427.391 222.636 426.948 223.695 427.046 225.025Z" stroke="black" stroke-width="0.664947"/>
<path d="M422.096 213.868C422.096 213.868 423.13 220.148 428.154 221.626L422.096 213.868Z" fill="#FFC72C"/>
<path d="M422.096 213.868C422.096 213.868 423.13 220.148 428.154 221.626" stroke="black" stroke-width="0.664947"/>
<path d="M421.283 213.721C421.726 211.357 422.687 210.914 423.647 207.81C423.795 204.855 421.283 205.225 422.022 203.377C423.302 201.21 422.687 199.314 420.175 197.688C420.692 200.422 416.924 203.008 416.924 205.225C416.924 207.441 418.845 206.998 418.623 210.396C418.771 212.317 418.106 211.874 417.884 213.721H421.283Z" fill="url(#paint8_linear_3921_23019)" stroke="black" stroke-width="0.664947"/>
<path d="M437.463 198.87C437.463 199.38 437.261 199.868 436.9 200.228C436.54 200.589 436.052 200.791 435.542 200.791C435.033 200.791 434.544 200.589 434.184 200.228C433.823 199.868 433.621 199.38 433.621 198.87C433.621 198.361 433.823 197.872 434.184 197.512C434.544 197.152 435.033 196.949 435.542 196.949C436.052 196.949 436.54 197.152 436.9 197.512C437.261 197.872 437.463 198.361 437.463 198.87Z" fill="#FFC72C" stroke="black" stroke-width="0.664947"/>
<path d="M426.676 243.791L437.019 228.497L447.585 243.865" stroke="#FFC72C" stroke-width="1.40378"/>
<path d="M439.163 238.028C439.163 238.576 438.945 239.103 438.557 239.491C438.169 239.878 437.643 240.096 437.094 240.096C436.545 240.096 436.019 239.878 435.631 239.491C435.243 239.103 435.025 238.576 435.025 238.028C435.025 237.479 435.243 236.953 435.631 236.565C436.019 236.177 436.545 235.959 437.094 235.959C437.643 235.959 438.169 236.177 438.557 236.565C438.945 236.953 439.163 237.479 439.163 238.028Z" fill="#FFC72C" stroke="black" stroke-width="0.664947"/>
<path d="M428.597 255.095H444.777C444.777 255.095 444.999 253.027 443.078 251.771C451.575 250.588 449.358 243.2 456.377 242.757C457.855 242.978 452.683 245.934 452.683 245.934C452.683 245.934 448.472 248.889 450.466 250.441C451.944 251.697 452.683 249.702 452.831 248.224C452.979 246.746 459.702 245.786 458.741 241.575C457.19 238.102 447.881 243.939 447.881 243.939L441.231 243.865C440.788 243.126 439.015 240.171 437.094 240.171C434.877 240.171 433.252 243.865 433.252 243.865H418.253C418.253 243.865 417.736 247.781 425.346 248.52C427.046 250.736 428.375 251.327 429.927 251.918C428.942 252.706 428.499 253.765 428.597 255.095ZM429.779 251.844H443.226H429.779Z" fill="#FFC72C"/>
<path d="M429.779 251.844H443.226M428.597 255.095H444.777C444.777 255.095 444.999 253.027 443.078 251.771C451.575 250.588 449.358 243.2 456.377 242.757C457.855 242.978 452.683 245.934 452.683 245.934C452.683 245.934 448.472 248.889 450.466 250.441C451.944 251.697 452.683 249.702 452.831 248.224C452.979 246.746 459.702 245.786 458.741 241.575C457.19 238.102 447.881 243.939 447.881 243.939L441.231 243.865C440.788 243.126 439.015 240.171 437.094 240.171C434.877 240.171 433.252 243.865 433.252 243.865H418.253C418.253 243.865 417.736 247.781 425.346 248.52C427.046 250.736 428.375 251.327 429.927 251.918C428.942 252.706 428.499 253.765 428.597 255.095Z" stroke="black" stroke-width="0.664947"/>
<path d="M423.646 243.938C423.646 243.938 424.681 250.219 429.705 251.696L423.646 243.938Z" fill="#FFC72C"/>
<path d="M423.646 243.938C423.646 243.938 424.681 250.219 429.705 251.696" stroke="black" stroke-width="0.664947"/>
<path d="M422.834 243.791C423.277 241.427 424.237 240.984 425.198 237.881C425.346 234.925 422.834 235.295 423.573 233.448C424.853 231.281 424.237 229.384 421.725 227.759C422.243 230.492 418.475 233.078 418.475 235.295C418.475 237.511 420.396 237.068 420.174 240.467C420.322 242.388 419.657 241.944 419.435 243.791H422.834Z" fill="url(#paint9_linear_3921_23019)" stroke="black" stroke-width="0.664947"/>
<path d="M439.014 228.94C439.014 229.45 438.811 229.939 438.451 230.299C438.091 230.659 437.602 230.861 437.093 230.861C436.583 230.861 436.095 230.659 435.735 230.299C435.374 229.939 435.172 229.45 435.172 228.94C435.172 228.431 435.374 227.942 435.735 227.582C436.095 227.222 436.583 227.02 437.093 227.02C437.602 227.02 438.091 227.222 438.451 227.582C438.811 227.942 439.014 228.431 439.014 228.94Z" fill="#FFC72C" stroke="black" stroke-width="0.664947"/>
<path d="M426.307 273.934L436.65 258.641L447.216 274.008" stroke="#FFC72C" stroke-width="1.40378"/>
<path d="M438.794 268.171C438.794 268.72 438.576 269.246 438.188 269.634C437.8 270.022 437.274 270.24 436.725 270.24C436.176 270.24 435.65 270.022 435.262 269.634C434.874 269.246 434.656 268.72 434.656 268.171C434.656 267.623 434.874 267.096 435.262 266.708C435.65 266.32 436.176 266.103 436.725 266.103C437.274 266.103 437.8 266.32 438.188 266.708C438.576 267.096 438.794 267.623 438.794 268.171Z" fill="#FFC72C" stroke="black" stroke-width="0.664947"/>
<path d="M428.228 285.239H444.408C444.408 285.239 444.63 283.17 442.709 281.914C451.206 280.732 448.989 273.344 456.008 272.9C457.486 273.122 452.314 276.077 452.314 276.077C452.314 276.077 448.102 279.033 450.097 280.584C451.575 281.84 452.314 279.845 452.462 278.368C452.609 276.89 459.333 275.93 458.372 271.718C456.821 268.246 447.511 274.082 447.511 274.082L440.862 274.009C440.419 273.27 438.645 270.314 436.725 270.314C434.508 270.314 432.883 274.009 432.883 274.009H417.884C417.884 274.009 417.367 277.924 424.977 278.663C426.676 280.88 428.006 281.471 429.558 282.062C428.573 282.85 428.129 283.909 428.228 285.239ZM429.41 281.988H442.857H429.41Z" fill="#FFC72C"/>
<path d="M429.41 281.988H442.857M428.228 285.239H444.408C444.408 285.239 444.63 283.17 442.709 281.914C451.206 280.732 448.989 273.344 456.008 272.9C457.486 273.122 452.314 276.077 452.314 276.077C452.314 276.077 448.102 279.033 450.097 280.584C451.575 281.84 452.314 279.845 452.462 278.368C452.609 276.89 459.333 275.93 458.372 271.718C456.821 268.246 447.511 274.082 447.511 274.082L440.862 274.009C440.419 273.27 438.645 270.314 436.725 270.314C434.508 270.314 432.883 274.009 432.883 274.009H417.884C417.884 274.009 417.367 277.924 424.977 278.663C426.676 280.88 428.006 281.471 429.558 282.062C428.573 282.85 428.129 283.909 428.228 285.239Z" stroke="black" stroke-width="0.664947"/>
<path d="M423.277 274.082C423.277 274.082 424.312 280.362 429.336 281.84L423.277 274.082Z" fill="#FFC72C"/>
<path d="M423.277 274.082C423.277 274.082 424.312 280.362 429.336 281.84" stroke="black" stroke-width="0.664947"/>
<path d="M422.465 273.935C422.908 271.571 423.868 271.127 424.829 268.024C424.977 265.069 422.465 265.438 423.203 263.591C424.484 261.424 423.868 259.528 421.356 257.902C421.873 260.636 418.105 263.222 418.105 265.438C418.105 267.655 420.026 267.212 419.805 270.61C419.953 272.531 419.288 272.088 419.066 273.935H422.465Z" fill="url(#paint10_linear_3921_23019)" stroke="black" stroke-width="0.664947"/>
<path d="M438.645 259.084C438.645 259.594 438.442 260.082 438.082 260.442C437.722 260.803 437.233 261.005 436.724 261.005C436.214 261.005 435.726 260.803 435.365 260.442C435.005 260.082 434.803 259.594 434.803 259.084C434.803 258.575 435.005 258.086 435.365 257.726C435.726 257.365 436.214 257.163 436.724 257.163C437.233 257.163 437.722 257.365 438.082 257.726C438.442 258.086 438.645 258.575 438.645 259.084Z" fill="#FFC72C" stroke="black" stroke-width="0.664947"/>
<path d="M426.453 304.226L436.797 288.933L447.362 304.3" stroke="#FFC72C" stroke-width="1.40378"/>
<path d="M438.94 298.463C438.94 299.012 438.722 299.538 438.334 299.926C437.946 300.314 437.42 300.532 436.871 300.532C436.323 300.532 435.797 300.314 435.409 299.926C435.021 299.538 434.803 299.012 434.803 298.463C434.803 297.915 435.021 297.388 435.409 297C435.797 296.612 436.323 296.395 436.871 296.395C437.42 296.395 437.946 296.612 438.334 297C438.722 297.388 438.94 297.915 438.94 298.463Z" fill="#FFC72C" stroke="black" stroke-width="0.664947"/>
<path d="M428.374 315.531H444.555C444.555 315.531 444.776 313.462 442.856 312.206C451.352 311.024 449.136 303.636 456.154 303.192C457.632 303.414 452.46 306.369 452.46 306.369C452.46 306.369 448.249 309.325 450.244 310.876C451.721 312.132 452.46 310.137 452.608 308.66C452.756 307.182 459.479 306.222 458.519 302.01C456.967 298.538 447.658 304.374 447.658 304.374L441.008 304.301C440.565 303.562 438.792 300.606 436.871 300.606C434.655 300.606 433.029 304.301 433.029 304.301H418.031C418.031 304.301 417.514 308.216 425.124 308.955C426.823 311.172 428.153 311.763 429.704 312.354C428.719 313.142 428.276 314.201 428.374 315.531ZM429.557 312.28H443.003H429.557Z" fill="#FFC72C"/>
<path d="M429.557 312.28H443.003M428.374 315.531H444.555C444.555 315.531 444.776 313.462 442.856 312.206C451.352 311.024 449.136 303.636 456.154 303.192C457.632 303.414 452.46 306.369 452.46 306.369C452.46 306.369 448.249 309.325 450.244 310.876C451.721 312.132 452.46 310.137 452.608 308.66C452.756 307.182 459.479 306.222 458.519 302.01C456.967 298.538 447.658 304.374 447.658 304.374L441.008 304.301C440.565 303.562 438.792 300.606 436.871 300.606C434.655 300.606 433.029 304.301 433.029 304.301H418.031C418.031 304.301 417.514 308.216 425.124 308.955C426.823 311.172 428.153 311.763 429.704 312.354C428.719 313.142 428.276 314.201 428.374 315.531Z" stroke="black" stroke-width="0.664947"/>
<path d="M423.424 304.374C423.424 304.374 424.458 310.654 429.482 312.132L423.424 304.374Z" fill="#FFC72C"/>
<path d="M423.424 304.374C423.424 304.374 424.458 310.654 429.482 312.132" stroke="black" stroke-width="0.664947"/>
<path d="M422.611 304.227C423.054 301.863 424.015 301.419 424.975 298.316C425.123 295.361 422.611 295.73 423.35 293.883C424.63 291.716 424.015 289.82 421.503 288.194C422.02 290.928 418.252 293.514 418.252 295.73C418.252 297.947 420.173 297.504 419.951 300.902C420.099 302.823 419.434 302.38 419.212 304.227H422.611Z" fill="url(#paint11_linear_3921_23019)" stroke="black" stroke-width="0.664947"/>
<path d="M438.791 289.376C438.791 289.885 438.589 290.374 438.228 290.734C437.868 291.095 437.38 291.297 436.87 291.297C436.361 291.297 435.872 291.095 435.512 290.734C435.152 290.374 434.949 289.885 434.949 289.376C434.949 288.867 435.152 288.378 435.512 288.018C435.872 287.657 436.361 287.455 436.87 287.455C437.38 287.455 437.868 287.657 438.228 288.018C438.589 288.378 438.791 288.867 438.791 289.376Z" fill="#FFC72C" stroke="black" stroke-width="0.664947"/>
<path d="M394.019 318.487C394.019 318.487 398.23 328.239 403.033 322.181C407.835 316.27 406.136 313.684 406.136 313.684L395.349 307.848L392.172 314.497L394.019 318.487Z" fill="#FFC72C" stroke="black" stroke-width="0.664947"/>
<path d="M403.328 317.231C403.328 317.231 404.067 317.305 404.584 316.27C405.175 315.236 403.328 314.793 402.442 313.611L401.555 315.458L403.328 317.231ZM378.947 314.571L369.49 319.743C369.49 319.743 364.761 320.703 364.466 319.743C364.096 318.856 364.54 318.044 367.052 317.896C369.49 317.822 376.139 311.69 376.139 311.69L378.947 314.645V314.571ZM379.095 146.192L379.39 149.59C379.538 150.773 377.543 153.285 377.469 153.137C377.395 152.989 376.361 153.285 376.509 153.949C376.657 154.614 377.986 154.91 377.986 154.91C377.986 154.91 377.469 157.348 377.986 157.496C378.577 157.57 376.509 160.599 377.986 161.412C379.538 162.224 382.124 163.333 383.306 163.111C384.488 162.889 383.306 167.618 383.306 167.618L379.981 174.637L398.009 172.79L394.315 166.879C394.315 166.879 392.541 165.623 392.985 162.224C393.502 158.9 392.763 143.532 392.763 143.532L379.907 141.759L379.095 146.192ZM375.77 172.937C375.77 172.937 369.933 175.597 370.155 182.838C368.677 189.857 367.864 196.876 367.864 196.876C367.864 196.876 360.919 204.707 358.851 207.589C356.708 210.396 353.531 216.085 352.423 217.637C351.241 219.114 346.66 224.138 346.734 226.059C346.882 227.906 345.7 236.255 350.28 237.142C351.462 237.659 355.23 227.537 355.23 227.537C355.23 227.537 355.452 223.252 354.122 222.365C352.866 221.626 356.93 218.819 356.93 218.819L366.535 211.652C368.308 210.174 373.11 204.855 373.11 204.855L375.77 172.937Z" fill="#FFC6B5" stroke="black" stroke-width="0.664947"/>
<path d="M382.493 167.395C382.493 167.395 383.971 171.533 387.37 170.794C390.768 170.055 394.758 166.952 394.758 166.952C394.758 166.952 397.935 166.804 398.378 167.322C398.822 167.839 406.949 175.596 406.653 178.035C406.432 180.547 402.959 179.808 401.629 181.433C400.299 183.059 398.231 187.196 398.822 190.299C399.413 193.255 401.186 197.244 400.964 198.796C400.743 200.347 399.487 200.791 399.487 201.603C399.487 202.416 400.521 203.82 400.521 205.297C400.521 206.849 399.043 209.065 399.339 210.617C399.56 212.095 399.634 216.528 399.634 216.528L399.339 237.215C399.339 237.215 400.521 237.88 400.595 239.062C400.743 240.17 408.574 274.23 408.574 274.23C408.574 274.23 408.205 275.339 407.392 275.191C406.579 275.043 410.569 280.436 410.643 281.988C410.717 283.54 414.78 295.435 414.633 297.06C414.485 298.686 413.894 302.38 413.598 302.454C413.229 302.601 416.184 309.99 415.667 311.098C415.224 312.28 410.495 312.206 410.495 312.206L409.165 311.911C409.165 311.911 409.239 313.462 408.352 313.61C407.466 313.758 400.521 313.24 400.521 313.24C400.521 313.24 398.526 316.27 397.344 316.196C396.162 316.048 394.61 313.979 394.315 314.275C393.945 314.644 395.349 316.639 395.054 317.23C394.61 317.821 388.7 319.077 387.517 316.27C386.335 313.462 388.256 314.201 387.813 313.61C387.517 313.019 384.858 311.467 383.971 311.911C383.232 312.428 386.114 313.093 385.966 314.275C385.818 315.457 383.38 317.23 382.493 317.23C381.607 317.23 379.316 312.871 375.992 313.314C372.741 313.832 370.672 314.644 370.672 314.644C370.672 314.644 366.756 316.27 365.131 315.9C363.506 315.605 362.767 314.275 362.767 313.61C362.767 312.871 363.949 309.842 363.875 308.881C363.727 307.995 362.767 307.034 362.767 305.631C362.767 304.227 365.5 299.424 365.5 299.424L365.353 277.851C365.353 277.851 362.914 277.851 362.767 276.373C362.693 274.895 366.535 242.313 367.2 240.17L369.268 230.565C369.268 230.565 367.495 231.452 367.347 230.565C367.274 229.827 372.667 211.208 372.667 211.208C372.667 211.208 373.554 201.899 373.554 199.461C373.554 197.023 373.11 193.624 373.11 193.624C373.11 193.624 368.308 191.555 368.16 188.452C367.717 183.502 372.741 180.768 373.332 179.143L375.696 172.493C375.696 172.493 378.282 168.06 382.493 167.395Z" fill="white" stroke="black" stroke-width="0.664947"/>
<path d="M380.721 316.048C380.721 316.048 369.343 321.959 367.718 322.476C366.092 322.993 365.058 320.481 366.683 320.038C368.309 319.521 370.895 319.299 370.895 319.299C370.895 319.299 367.053 316.27 367.2 316.122L372.52 314.201C372.668 314.201 374.145 317.156 375.18 317.009C376.647 316.297 378.034 315.43 379.317 314.423L380.721 316.048Z" fill="#FFC72C" stroke="black" stroke-width="0.664947"/>
<path d="M396.68 319.299C397.788 320.703 398.157 323.067 400.669 321.664C403.107 320.26 399.413 317.674 399.413 317.674L396.68 319.299Z" fill="#FFC6B5" stroke="black" stroke-width="0.664947"/>
<path d="M401.186 319.078C401.186 319.078 402.369 320.038 403.403 318.93C404.437 317.895 401.334 315.679 401.334 315.679L399.783 317.452L401.186 319.078ZM406.211 178.626C406.358 178.626 410.052 190.152 410.57 193.107C411.013 196.062 412.564 207.736 411.973 209.361C411.382 210.987 405.398 218.818 404.733 220.813C404.068 222.808 399.783 230.418 399.783 230.418C399.783 230.418 398.748 237.954 398.305 238.25C397.862 238.545 399.487 240.466 399.339 241.057C399.118 241.796 395.941 245.047 394.537 244.751C393.133 244.456 390.843 242.756 390.843 241.205C390.621 239.727 390.843 234.629 391.951 233.373C392.985 232.043 398.527 219.114 398.822 218.301C399.192 217.415 403.846 207.219 403.994 205.519C404.142 203.82 402.516 199.683 400.891 198.205C397.197 187.344 398.674 180.842 406.211 178.626Z" fill="#FFC6B5" stroke="black" stroke-width="0.664947"/>
<path d="M378.651 145.526C378.651 145.526 381.311 145.896 382.714 145.083C384.118 144.27 385.744 143.901 386.926 145.526C388.108 147.152 388.92 147.004 388.92 147.004C388.92 147.004 387.147 151.437 388.92 151.88C390.62 152.324 391.506 152.324 391.58 152.915C391.654 153.506 390.103 154.762 390.546 155.353C390.989 155.944 391.802 156.609 391.95 157.126C392.097 157.643 390.915 159.564 391.211 160.081C391.58 160.525 392.689 162.372 393.353 162.372C394.092 162.372 393.575 165.327 395.718 164.588C397.786 163.849 397.713 162.002 397.713 162.002C397.713 162.002 399.929 161.707 400.52 159.712C401.111 157.717 402.441 157.2 402.441 157.2C402.441 157.2 405.249 155.722 401.554 153.358C401.554 136.956 390.768 138.729 390.768 138.729C390.768 138.729 389.512 135.774 387.369 136.143C385.226 136.513 385.152 138.951 383.675 138.729C382.123 138.508 381.754 137.473 381.68 137.547C381.532 137.695 380.202 140.059 380.202 140.576C380.202 141.167 376.139 139.837 376.508 142.793C376.878 145.896 378.872 145.748 378.725 145.526H378.651Z" fill="#9C5100" stroke="black" stroke-width="0.664947"/>
<path d="M397.713 171.977C397.713 171.977 387.296 178.626 387.517 180.991M400.078 173.159C400.078 173.159 397.713 175.745 397.565 175.745M403.181 175.966C403.181 175.966 398.009 180.178 398.821 182.838M378.873 171.386C378.873 171.386 377.322 174.563 377.691 175.597C378.06 176.631 380.646 180.621 380.942 183.059C381.311 185.571 380.942 187.271 380.942 187.271M376.139 177.223C376.139 177.223 376.583 180.917 377.322 181.655C378.06 182.394 379.907 185.571 380.129 186.827M375.179 192.812C375.179 192.812 378.282 194.289 381.09 188.453M385.596 184.389C385.523 184.389 383.38 190.078 387.148 192.221C390.916 194.363 393.724 194.068 395.275 193.477C396.974 192.96 398.748 191.851 398.748 191.851M383.971 191.408C383.971 191.408 384.193 199.092 395.571 206.702M384.488 198.649C384.488 198.649 384.34 205.446 388.773 208.475M382.124 190.669C382.124 190.669 378.725 200.791 375.992 201.752M381.09 198.058C381.09 198.058 380.942 205.298 379.981 207.884M379.095 209.657C379.095 209.657 381.385 212.612 383.971 212.317C386.557 212.021 387.665 209.066 389.364 209.509C391.138 210.027 392.763 211.43 396.827 211.061M390.99 214.09C390.99 214.09 390.99 220.075 392.098 220.666C393.133 221.257 392.615 226.724 392.615 226.724M376.73 211.283C376.73 211.283 376.583 216.898 375.918 218.893C375.253 220.887 373.775 224.286 374.071 227.241M369.564 230.492C370.155 230.271 372.15 228.497 372.15 228.497M373.184 229.753C373.184 229.753 368.16 251.327 369.564 264.183M374.366 230.862C374.366 230.862 371.78 246.968 372.962 250.071M373.11 230.344L382.937 231.083M384.34 229.753C384.34 229.753 387 231.231 390.768 230.935M383.158 237.659C383.158 237.659 382.715 265.217 381.976 271.349M397.565 243.939C397.565 243.939 400.595 268.172 402.368 270.389M391.729 246.968C391.729 246.968 393.576 268.394 394.684 270.315M365.131 277.777C365.131 277.777 368.825 276.595 372.076 273.123C375.77 278.147 381.533 273.344 381.533 273.344C381.533 273.344 390.399 279.403 394.389 272.605C400.521 276.595 403.55 272.014 403.55 272.014C403.55 272.014 405.767 275.413 407.392 275.044M397.713 277.408C397.713 277.408 402.22 298.834 409.017 304.892" stroke="black" stroke-width="0.664947"/>
<path d="M374.218 275.191C374.218 275.191 374.735 293.071 375.769 305.705M373.331 295.435C373.331 295.435 372.74 307.109 372.075 307.996M366.46 309.104C366.46 309.104 367.716 314.202 374.144 309.473C380.572 304.819 380.719 311.246 380.941 311.911C381.163 312.65 382.197 317.674 384.635 313.463M389.807 306.592C389.807 306.592 388.773 316.935 398.008 309.399C407.243 301.789 408.795 309.252 409.09 311.616M389.955 141.537C389.955 141.537 389.142 146.709 394.609 146.192C393.87 149.073 396.087 149.96 396.087 149.96M400.077 153.137C400.224 153.137 402.589 154.614 400.077 156.535M392.171 157.2C392.171 157.2 393.353 158.678 394.609 158.309C395.939 157.939 398.008 159.565 398.008 159.565C398.008 159.565 399.781 160.156 400.003 159.786M385.004 161.633C385.004 161.633 388.994 163.185 391.654 156.905M377.69 154.984L379.98 155.132M351.683 228.867L351.905 233.965M346.881 228.424C346.881 228.424 350.206 233.965 349.836 236.846" stroke="black" stroke-width="0.664947"/>
<path d="M377.986 157.348H380.129L378.282 158.16M390.99 239.949C390.99 239.949 393.428 239.653 393.354 243.791C394.906 238.619 398.083 238.545 398.083 238.545" stroke="black" stroke-width="0.664947" stroke-linejoin="round"/>
<path d="M380.941 150.773C381.311 150.773 382.567 150.329 382.788 150.699C383.084 150.994 381.385 151.29 380.941 150.773Z" stroke="black" stroke-width="1.25601" stroke-linejoin="round"/>
<path d="M382.568 357.128C413.417 355.698 442.481 342.253 463.544 319.669C463.249 319.373 470.12 309.769 475.587 311.098C481.054 312.428 488.96 328.609 498.565 332.081C503.367 339.617 497.235 346.488 495.166 347.818C493.097 349.148 483.788 352.99 482.458 347.523C481.055 341.982 478.321 343.09 478.321 343.09C478.321 343.09 434.36 385.942 383.603 384.243C331.146 384.538 287.85 343.016 287.85 343.016L284.082 347.153C284.082 347.153 279.945 351.586 277.876 351.291C275.808 350.995 266.868 345.085 266.203 339.248C265.538 333.411 271.67 329.643 271.67 329.643C271.67 329.643 286.816 317.97 288.515 311.837C291.988 308.365 298.49 314.202 298.49 314.202C298.49 314.202 338.313 359.861 382.568 357.054V357.128Z" fill="#FFC72C" stroke="black" stroke-width="1.40378"/>
<path d="M270.709 330.53C270.709 330.53 274.773 329.495 276.25 331.194C277.728 332.894 288.071 343.016 288.071 343.016" stroke="black" stroke-width="1.40378"/>
<path d="M280.018 335.332L275.881 338.361C275.881 338.361 286.224 340.43 283.86 347.227M494.87 330.234C494.87 330.234 492.875 329.126 489.698 331.49C486.447 333.928 478.394 342.942 478.394 342.942" stroke="black" stroke-width="1.40378"/>
<path d="M485.709 335.036L490.142 338.435C490.142 338.435 480.906 339.1 482.901 347.818" stroke="black" stroke-width="1.40378"/>
<path d="M323.018 341.464C322.723 342.203 321.984 341.464 321.393 341.612C319.915 341.612 318.586 342.646 317.256 343.385L303.661 351.29C303.316 351.093 303.242 350.798 303.44 350.404L307.134 333.411C307.281 332.45 307.577 331.194 306.616 330.455C306.247 330.16 306.838 329.642 307.134 330.16L314.079 335.11C313.857 335.775 313.414 335.258 313.044 335.036C312.084 334.075 310.902 334.962 310.976 336.144L308.464 347.301L317.773 341.833C318.807 341.39 319.62 339.912 318.512 339.026C318.068 338.73 317.329 338.065 318.068 337.917L323.018 341.464ZM327.895 365.106C327.747 365.55 327.501 365.624 327.156 365.328L319.029 360.895C319.078 360.402 319.3 360.304 319.694 360.599C320.433 361.117 321.615 361.338 322.206 360.452L325.161 355.058L329.299 347.522C329.89 346.562 329.225 345.453 328.338 345.084C328.043 344.936 327.599 344.788 327.969 344.493C328.116 344.271 328.56 344.715 328.781 344.788L336.613 349.074C336.514 349.517 336.293 349.591 335.948 349.295C335.209 348.778 334.027 348.557 333.436 349.443L330.481 354.837L326.343 362.373C325.752 363.259 326.417 364.441 327.304 364.811L327.895 365.106ZM359.369 357.718L357.152 363.924C356.192 363.85 356.857 362.668 356.561 362.077C356.415 360.662 355.842 359.325 354.918 358.243C353.995 357.161 352.764 356.385 351.39 356.019C349.173 355.428 346.957 356.536 345.627 358.309C343.701 360.94 342.572 364.069 342.376 367.323C342.308 368.251 342.492 369.18 342.908 370.012C343.324 370.844 343.957 371.549 344.74 372.051C346.043 372.865 347.566 373.252 349.099 373.16L350.651 368.505C350.872 367.471 349.764 366.806 348.951 366.584C348.804 366.288 349.099 365.845 349.469 366.215L357.596 369.17C357.596 370.13 356.414 369.022 355.749 369.465C354.788 369.835 354.714 371.017 354.271 371.904L353.311 374.711C349.567 374.957 346.021 374.169 342.671 372.347C339.642 370.426 337.5 366.658 338.165 362.964C338.608 359.787 340.603 356.831 343.484 355.428C346.144 353.95 349.395 354.024 352.202 355.132C353.68 355.723 355.01 356.561 356.192 357.644C356.931 358.605 358.261 358.605 358.852 357.57L359.369 357.718ZM372.594 378.996C372.594 379.292 372.594 379.661 372.151 379.44L362.841 378.036C362.792 377.593 362.94 377.445 363.285 377.593C364.024 377.74 365.206 377.74 365.501 376.854C365.846 375.573 366.092 374.292 366.24 373.012L367.865 362.225C368.087 361.486 367.865 360.599 367.053 360.304L365.575 359.934C365.477 359.59 365.624 359.442 366.018 359.491L375.328 360.969C375.426 361.363 375.278 361.511 374.884 361.412C374.146 361.191 373.037 361.264 372.668 362.151C372.323 363.382 372.077 364.638 371.929 365.919L370.304 376.706C370.082 377.445 370.304 378.405 371.19 378.701L372.668 378.996H372.594ZM397.862 372.938L397.493 379.513L380.795 380.326C380.696 379.932 380.844 379.76 381.238 379.809C382.051 379.809 383.159 379.44 383.307 378.479L383.085 373.603L382.568 363.703C382.642 362.742 381.829 362.003 380.869 362.077C380.573 361.929 379.761 362.373 379.834 361.855C379.687 361.412 380.352 361.634 380.573 361.56L389.883 361.043C389.981 361.535 389.809 361.732 389.365 361.634C388.553 361.634 387.444 361.782 387.149 362.816C387.149 364.244 387.198 365.648 387.297 367.027L387.814 377.371C387.814 378.184 388.553 378.996 389.439 378.849C390.769 378.775 392.173 378.849 393.503 378.479C395.35 377.962 396.31 376.115 396.828 374.416C397.197 373.972 396.828 372.79 397.566 372.938H397.862ZM410.791 356.831C410.348 356.831 410.57 357.422 410.422 357.718C409.732 363.284 408.994 368.8 408.206 374.268C408.058 375.524 407.762 376.928 406.58 377.519C406.137 377.74 406.506 378.405 406.95 378.036L412.491 376.337C412.417 375.45 411.309 376.337 410.718 376.115C409.462 376.115 409.24 374.563 409.462 373.603C409.462 372.913 409.535 372.248 409.683 371.608L416.037 369.687C416.875 370.672 417.687 371.707 418.475 372.79C419.066 373.825 417.737 374.268 416.998 374.489C416.554 374.489 416.85 375.228 417.219 374.933L425.568 372.421C425.568 371.46 424.386 372.421 423.869 371.682C422.243 370.574 421.135 368.948 419.879 367.471L410.791 356.831ZM410.791 363.481L415.224 368.874L409.831 370.5L410.791 363.481ZM439.31 344.419L441.748 348.852C441.01 349.591 440.566 348.039 439.901 347.818C439.335 347.364 438.648 347.087 437.925 347.021C437.203 346.955 436.477 347.104 435.838 347.448L434.36 348.261L441.601 361.782C441.97 362.89 443.374 363.111 444.334 362.52C444.679 362.126 444.925 362.151 445.073 362.594C443.842 363.333 442.561 364.023 441.231 364.663L436.429 367.249C436.133 366.904 436.232 366.658 436.724 366.51C436.985 366.416 437.22 366.261 437.411 366.059C437.601 365.858 437.741 365.614 437.82 365.348C437.899 365.082 437.915 364.802 437.866 364.529C437.816 364.256 437.704 363.998 437.537 363.776L430.37 350.477C429.041 351.216 427.415 351.807 427.046 353.433C426.676 354.541 427.194 355.797 427.194 356.684C426.824 357.127 426.676 356.536 426.455 356.24L424.46 352.398L439.31 344.419ZM450.614 337.696L455.195 343.828C456.23 343.089 457.116 341.907 456.821 340.577C456.968 339.543 455.491 338.361 456.008 337.622C456.303 337.474 456.525 338.213 456.747 338.435L462.066 345.453C461.327 346.192 460.884 344.641 460.145 344.419C459.111 343.68 457.707 343.311 456.599 344.124C455.86 344.419 455.786 344.838 456.377 345.38C457.559 347.005 458.791 348.606 460.071 350.182C460.81 350.921 461.845 350.182 462.51 349.591C464.283 348.409 465.834 346.488 465.76 344.271C465.908 343.237 465.243 342.203 465.243 341.316C465.687 340.799 465.76 341.612 465.982 341.907L468.494 346.34L455.491 356.166C454.974 355.797 455.491 355.502 455.86 355.28C457.042 354.541 456.673 352.989 455.86 352.177L447.437 341.168C446.699 340.208 445.369 340.725 444.704 341.39C444.334 341.833 443.965 341.02 444.482 340.947L456.673 331.711L459.998 336.144C459.259 336.883 458.52 335.184 457.707 335.11C456.082 334.223 454.161 334.888 452.831 335.996L450.541 337.696" fill="black"/>
<path d="M0 0H256V256H0V0Z" fill="#012169"/>
<path d="M256 0V32L161 128L256 221.5V256H222.5L127 162L34 256H0V222L93 128.5L0 37V0H31L127 94L220 0H256Z" fill="white"/>
<path d="M92 162L97.5 179L21 256H0V254.5L92 162ZM154 156L181 160L256 233.5V256L154 156ZM256 0L160 98L158 76L233 0H256ZM0 0.5L96.5 95L67 91L0 24.5V0.5Z" fill="#C8102E"/>
<path d="M88 0V256H168V0H88ZM0 88V168H256V88H0Z" fill="white"/>
<path d="M0 104V152H256V104H0ZM104 0V256H152V0H104Z" fill="#C8102E"/>
</g>
<defs>
<linearGradient id="paint0_linear_3921_23019" x1="313.267" y1="148.119" x2="304.864" y2="146.88" gradientUnits="userSpaceOnUse">
<stop stop-color="#FF0000"/>
<stop offset="1" stop-color="#FFFF00"/>
</linearGradient>
<linearGradient id="paint1_linear_3921_23019" x1="312.676" y1="178.633" x2="304.272" y2="177.394" gradientUnits="userSpaceOnUse">
<stop stop-color="#FF0000"/>
<stop offset="1" stop-color="#FFFF00"/>
</linearGradient>
<linearGradient id="paint2_linear_3921_23019" x1="312.455" y1="208.703" x2="304.051" y2="207.464" gradientUnits="userSpaceOnUse">
<stop stop-color="#FF0000"/>
<stop offset="1" stop-color="#FFFF00"/>
</linearGradient>
<linearGradient id="paint3_linear_3921_23019" x1="332.182" y1="241.285" x2="323.778" y2="240.046" gradientUnits="userSpaceOnUse">
<stop stop-color="#FF0000"/>
<stop offset="1" stop-color="#FFFF00"/>
</linearGradient>
<linearGradient id="paint4_linear_3921_23019" x1="309.869" y1="267.957" x2="301.465" y2="266.718" gradientUnits="userSpaceOnUse">
<stop stop-color="#FF0000"/>
<stop offset="1" stop-color="#FFFF00"/>
</linearGradient>
<linearGradient id="paint5_linear_3921_23019" x1="310.459" y1="299.432" x2="302.055" y2="298.193" gradientUnits="userSpaceOnUse">
<stop stop-color="#FF0000"/>
<stop offset="1" stop-color="#FFFF00"/>
</linearGradient>
<linearGradient id="paint6_linear_3921_23019" x1="421.357" y1="148.637" x2="412.954" y2="147.398" gradientUnits="userSpaceOnUse">
<stop stop-color="#FF0000"/>
<stop offset="1" stop-color="#FFFF00"/>
</linearGradient>
<linearGradient id="paint7_linear_3921_23019" x1="420.322" y1="178.559" x2="411.918" y2="177.32" gradientUnits="userSpaceOnUse">
<stop stop-color="#FF0000"/>
<stop offset="1" stop-color="#FFFF00"/>
</linearGradient>
<linearGradient id="paint8_linear_3921_23019" x1="418.994" y1="209.221" x2="410.59" y2="207.982" gradientUnits="userSpaceOnUse">
<stop stop-color="#FF0000"/>
<stop offset="1" stop-color="#FFFF00"/>
</linearGradient>
<linearGradient id="paint9_linear_3921_23019" x1="420.545" y1="239.291" x2="412.141" y2="238.052" gradientUnits="userSpaceOnUse">
<stop stop-color="#FF0000"/>
<stop offset="1" stop-color="#FFFF00"/>
</linearGradient>
<linearGradient id="paint10_linear_3921_23019" x1="420.176" y1="269.435" x2="411.772" y2="268.196" gradientUnits="userSpaceOnUse">
<stop stop-color="#FF0000"/>
<stop offset="1" stop-color="#FFFF00"/>
</linearGradient>
<linearGradient id="paint11_linear_3921_23019" x1="420.322" y1="299.727" x2="411.918" y2="298.488" gradientUnits="userSpaceOnUse">
<stop stop-color="#FF0000"/>
<stop offset="1" stop-color="#FFFF00"/>
</linearGradient>
<clipPath id="clip0_3921_23019">
<rect width="512" height="512" fill="white"/>
</clipPath>
</defs>
</svg>
