<svg width="512" height="512" viewBox="0 0 512 512" fill="none" xmlns="http://www.w3.org/2000/svg">
<g clip-path="url(#clip0_3921_23247)">
<mask id="mask0_3921_23247" style="mask-type:luminance" maskUnits="userSpaceOnUse" x="0" y="-1" width="513" height="513">
<path d="M0.0800781 -0.0214844H512.039V511.95H0.0800781V-0.0214844Z" fill="white"/>
</mask>
<g mask="url(#mask0_3921_23247)">
<path d="M-1.5 0.100586H1019.02V511.829H-1.5V0.100586Z" fill="#006400"/>
<path d="M-1.5 73.2041H1019.02V438.724H-1.5V73.2041Z" fill="#FFD200"/>
<path d="M-1.5 146.309H1019.02V365.621H-1.5V146.309Z" fill="#D40000"/>
<path d="M-1.5 219.412H1019.02V292.516H-1.5V219.412Z" fill="#000001"/>
<path d="M-1.5 0.100586V511.829L338.672 255.965L-1.5 0.100586Z" fill="black" stroke="black" stroke-width="24.333"/>
<path d="M-1.5 0.100586V511.829L338.672 255.965L-1.5 0.100586Z" fill="white"/>
<path d="M127.887 127.302L195.314 335.283L18.9102 206.741H236.985L60.4597 335.283L127.887 127.302Z" fill="#D40000"/>
<path d="M99.0934 309.209L110.999 307.015L132.989 306.163L141.129 306.894L159.352 309.94L160.689 308.112V294.953L162.876 283.622L166.52 272.169L170.53 263.031L175.632 253.528L183.893 255.599H186.08L186.323 254.015L168.829 239.029L150.605 225.017L124.242 205.279L121.812 204.67L119.018 183.957L116.952 177.743L114.158 175.306L108.934 173.601L103.103 173.844L100.43 175.306L94.8413 176.525L91.9255 177.012L89.9817 179.327L89.7387 182.251L97.8785 182.495L99.9439 183.348L99.7009 184.201L95.0843 184.81L92.8974 185.541L95.4487 187.49L98.1215 188.465L101.523 189.683L102.252 192.12L102.495 223.555L100.673 228.429L100.065 237.567L102.738 248.532L95.9347 256.33L92.047 263.275L91.3181 267.539L89.2527 271.804L89.0098 274.484L90.3462 277.408L95.5702 294.71L98.243 308.965L99.0934 309.209Z" fill="#FFCC00"/>
<path d="M105.411 173.113C103.225 173.113 102.253 173.357 100.187 174.454C98.4727 175.428 96.5643 176.011 94.5988 176.159C91.5616 176.159 89.1318 178.352 89.1318 181.155V182.982L93.5054 182.86C106.383 183.226 94.7203 184.444 93.7484 184.566C90.5897 185.175 94.4773 187.734 98.2435 189.074C102.253 190.293 102.01 189.562 102.01 207.35C102.01 221.849 102.01 223.921 100.795 227.21C99.2154 232.084 99.2154 239.394 100.795 244.268C101.524 246.217 102.01 247.923 102.01 248.289C102.01 248.654 100.066 250.847 97.7576 253.528C93.5054 258.401 90.9541 263.397 90.9541 266.93C90.8026 268.067 90.3864 269.152 89.7392 270.098C88.1599 272.169 88.1599 275.703 89.6177 277.043C91.1971 278.505 97.6361 303.604 97.7576 308.356C97.7576 310.061 98.0006 310.061 107.841 308.112C115.86 306.528 134.691 306.163 144.288 307.381C148.662 307.99 153.764 308.965 155.587 309.33C161.418 310.914 161.175 311.158 161.175 304.091C161.22 292.957 163.321 281.927 167.371 271.56C169.694 265.653 172.498 259.948 175.754 254.502C175.754 254.502 177.941 254.746 180.614 255.477C185.595 256.696 187.053 256.574 187.053 254.259C187.053 253.04 181.829 248.654 156.194 228.672C145.855 220.185 135.197 212.097 124.242 204.426C123.432 204.426 122.906 204.142 122.663 203.573L120.841 191.998C119.99 186.028 118.775 180.18 118.289 178.962C116.67 175.388 113.187 173.438 107.841 173.113H105.411ZM105.533 174.332H107.963C115.981 174.819 117.439 177.012 119.626 191.389L121.084 202.842C121.165 203.736 119.869 205.076 117.196 206.863C112.601 210.101 108.507 214.001 105.047 218.438L103.468 220.631L103.103 215.514V201.136C103.468 190.536 103.103 189.562 99.7014 188.343C96.9071 187.369 93.2624 186.394 94.2344 185.785C95.4493 185.054 96.6642 185.541 99.5799 184.688C100.795 184.444 100.673 184.566 100.43 183.592C100.187 182.008 98.4865 181.155 93.9914 181.398C90.3467 181.642 89.9822 181.52 90.2252 180.546C90.7921 178.596 92.6145 177.418 95.6922 177.012C97.5536 176.806 99.3637 176.27 101.038 175.428C102.394 174.611 103.951 174.189 105.533 174.21V174.332ZM123.635 205.766H124.121C126.186 206.132 185.838 252.918 185.838 254.259C185.838 254.827 185.433 255.112 184.623 255.112C184.137 255.112 168.951 250.847 150.97 245.608C122.299 237.079 118.168 235.861 116.953 234.277C116.088 233.215 115.606 231.892 115.584 230.521C115.562 229.15 116.001 227.812 116.832 226.723C117.415 226.013 117.83 225.18 118.046 224.286C118.046 222.824 115.009 226.479 114.402 228.55C113.794 230.987 115.009 235.13 116.832 236.47C117.56 237.079 123.027 238.907 128.981 240.734C139.186 243.659 139.915 244.024 140.401 245.73C141.615 249.751 137.363 254.502 131.289 255.843C129.015 256.401 126.87 257.394 124.971 258.767C118.67 264.005 111.628 268.276 104.075 271.438C103.589 271.804 102.982 273.753 102.617 275.581C101.888 279.601 101.645 280.211 100.43 280.211C99.7824 280.292 99.7014 279.723 100.187 278.505C101.038 276.068 100.916 273.144 100.066 273.144C99.4989 273.144 99.2155 273.875 99.2155 275.337C99.2155 276.555 98.851 278.018 98.365 278.383C97.7576 279.114 97.6361 278.627 97.8791 275.581C98.122 273.509 98.0005 271.926 97.7576 271.926C97.1501 271.926 96.0567 274.972 95.6922 277.652C95.5303 279.277 95.2873 279.155 94.9633 277.286C94.5988 275.824 94.7203 274.85 95.8137 273.022C96.5041 271.698 96.9175 270.247 97.0286 268.758C97.0286 267.174 98.2435 265.59 103.954 259.863C107.598 256.086 112.093 251.335 113.673 249.263C116.467 245.852 116.589 245.608 116.467 242.075C116.467 240.125 116.224 238.298 115.981 238.054C115.252 237.323 114.28 241.222 114.766 243.293C115.009 245.243 114.766 245.852 110.757 250.604C107.873 253.915 104.832 257.087 101.645 260.107C96.9071 264.493 95.2063 266.93 95.2063 269.123C95.2063 269.854 94.7203 271.56 93.9914 273.144C93.2624 274.728 93.0195 276.312 93.2624 276.677C93.4244 277.083 93.3029 277.083 92.898 276.677C92.331 276.19 92.2905 274.972 92.7765 273.022C93.0546 271.991 93.137 270.916 93.0195 269.854C92.412 268.636 91.5616 270.098 91.1971 273.144C90.9541 274.85 90.5897 276.19 90.2252 275.946C89.3748 275.459 89.6177 272.291 90.7112 270.585C91.3186 269.732 91.926 267.783 92.2905 266.199C93.1409 261.691 95.0848 258.036 99.3369 253.162L103.225 248.532L102.01 244.512C100.38 239.079 100.296 233.298 101.767 227.819C103.306 223.271 106.545 218.519 111.486 213.564C116.346 208.812 121.084 205.888 123.635 205.766ZM141.858 244.999C142.012 244.987 142.167 244.998 142.314 245.029C142.461 245.061 142.597 245.113 142.711 245.182C142.826 245.251 142.918 245.336 142.98 245.43C143.043 245.524 143.074 245.627 143.073 245.73C142.999 245.873 142.859 245.998 142.674 246.085C142.489 246.173 142.268 246.221 142.041 246.221C141.814 246.221 141.592 246.173 141.407 246.085C141.222 245.998 141.083 245.873 141.008 245.73C141.002 245.561 141.083 245.396 141.238 245.263C141.393 245.13 141.612 245.036 141.858 244.999ZM144.896 245.364C145.049 245.353 145.204 245.363 145.352 245.395C145.499 245.426 145.634 245.478 145.749 245.548C145.863 245.617 145.955 245.701 146.017 245.796C146.08 245.89 146.112 245.992 146.111 246.095C146.036 246.239 145.896 246.363 145.711 246.451C145.526 246.539 145.305 246.586 145.078 246.586C144.851 246.586 144.629 246.539 144.444 246.451C144.259 246.363 144.12 246.239 144.045 246.095C144.039 245.927 144.12 245.762 144.275 245.628C144.43 245.495 144.649 245.402 144.896 245.364ZM148.054 245.974C148.208 245.962 148.363 245.973 148.51 246.004C148.657 246.036 148.793 246.088 148.907 246.157C149.022 246.226 149.114 246.31 149.176 246.405C149.239 246.499 149.27 246.601 149.269 246.705C149.195 246.848 149.055 246.972 148.87 247.06C148.685 247.148 148.464 247.195 148.237 247.195C148.01 247.195 147.788 247.148 147.603 247.06C147.418 246.972 147.279 246.848 147.204 246.705C147.198 246.536 147.279 246.371 147.434 246.238C147.589 246.104 147.808 246.011 148.054 245.974ZM150.97 246.583C151.124 246.571 151.279 246.582 151.426 246.613C151.573 246.645 151.708 246.697 151.823 246.766C151.938 246.835 152.03 246.92 152.092 247.014C152.154 247.108 152.186 247.211 152.185 247.314C152.11 247.457 151.971 247.581 151.786 247.669C151.601 247.757 151.379 247.805 151.152 247.805C150.925 247.805 150.704 247.757 150.519 247.669C150.334 247.581 150.194 247.457 150.12 247.314C150.113 247.145 150.195 246.98 150.35 246.847C150.505 246.714 150.724 246.62 150.97 246.583ZM143.316 247.314C143.47 247.302 143.625 247.313 143.772 247.344C143.919 247.376 144.055 247.428 144.169 247.497C144.284 247.566 144.376 247.651 144.438 247.745C144.5 247.839 144.532 247.942 144.531 248.045C144.457 248.188 144.317 248.313 144.132 248.4C143.947 248.488 143.726 248.536 143.499 248.536C143.272 248.536 143.05 248.488 142.865 248.4C142.68 248.313 142.541 248.188 142.466 248.045C142.46 247.876 142.541 247.711 142.696 247.578C142.851 247.445 143.07 247.351 143.316 247.314ZM146.232 247.801C146.386 247.79 146.541 247.8 146.688 247.832C146.835 247.863 146.97 247.915 147.085 247.984C147.2 248.053 147.291 248.138 147.354 248.232C147.416 248.327 147.448 248.429 147.447 248.532C147.372 248.676 147.233 248.8 147.048 248.888C146.863 248.976 146.641 249.023 146.414 249.023C146.187 249.023 145.966 248.976 145.781 248.888C145.596 248.8 145.456 248.676 145.382 248.532C145.375 248.363 145.457 248.198 145.612 248.065C145.767 247.932 145.986 247.839 146.232 247.801ZM152.55 248.045C152.703 248.033 152.858 248.044 153.005 248.075C153.152 248.107 153.288 248.159 153.403 248.228C153.517 248.297 153.609 248.382 153.671 248.476C153.734 248.57 153.765 248.673 153.764 248.776C153.69 248.919 153.55 249.044 153.365 249.131C153.18 249.219 152.959 249.267 152.732 249.267C152.505 249.267 152.283 249.219 152.098 249.131C151.913 249.044 151.774 248.919 151.699 248.776C151.693 248.607 151.774 248.442 151.929 248.309C152.084 248.176 152.303 248.082 152.55 248.045ZM149.269 248.045C149.423 248.033 149.578 248.044 149.725 248.075C149.872 248.107 150.008 248.159 150.122 248.228C150.237 248.297 150.329 248.382 150.391 248.476C150.453 248.57 150.485 248.673 150.484 248.776C150.41 248.919 150.27 249.044 150.085 249.131C149.9 249.219 149.679 249.267 149.452 249.267C149.225 249.267 149.003 249.219 148.818 249.131C148.633 249.044 148.494 248.919 148.419 248.776C148.413 248.607 148.494 248.442 148.649 248.309C148.804 248.176 149.023 248.082 149.269 248.045ZM155.344 248.776C155.465 248.776 159.839 249.751 165.063 251.213L174.661 254.015L172.838 257.305L169.923 262.666C168.708 265.102 168.465 265.102 162.633 263.762C156.316 262.3 146.354 260.96 136.148 260.107L126.429 259.254L130.074 257.914L136.513 254.99C138.943 253.65 139.915 253.406 143.681 253.771C149.188 254.096 152.712 253.122 154.25 250.847L155.465 248.776H155.344ZM144.653 249.507C144.806 249.495 144.962 249.506 145.109 249.537C145.256 249.569 145.391 249.621 145.506 249.69C145.62 249.759 145.712 249.844 145.774 249.938C145.837 250.033 145.869 250.135 145.868 250.238C145.793 250.381 145.653 250.506 145.468 250.594C145.283 250.682 145.062 250.729 144.835 250.729C144.608 250.729 144.387 250.682 144.201 250.594C144.016 250.506 143.877 250.381 143.802 250.238C143.796 250.069 143.877 249.904 144.032 249.771C144.187 249.638 144.407 249.544 144.653 249.507ZM151.456 249.507C151.61 249.495 151.765 249.506 151.912 249.537C152.059 249.569 152.194 249.621 152.309 249.69C152.424 249.759 152.515 249.844 152.578 249.938C152.64 250.033 152.672 250.135 152.671 250.238C152.579 250.357 152.44 250.457 152.268 250.527C152.097 250.597 151.9 250.634 151.699 250.634C151.498 250.634 151.301 250.597 151.13 250.527C150.959 250.457 150.819 250.357 150.727 250.238C150.721 250.069 150.802 249.904 150.957 249.771C151.112 249.638 151.331 249.544 151.578 249.507H151.456ZM141.737 249.507C141.89 249.495 142.046 249.506 142.193 249.537C142.34 249.569 142.475 249.621 142.59 249.69C142.705 249.759 142.796 249.844 142.859 249.938C142.921 250.033 142.953 250.135 142.952 250.238C142.877 250.381 142.738 250.506 142.553 250.594C142.368 250.682 142.146 250.729 141.919 250.729C141.692 250.729 141.471 250.682 141.286 250.594C141.101 250.506 140.961 250.381 140.887 250.238C140.919 250.091 141.017 249.953 141.169 249.844C141.321 249.736 141.519 249.66 141.737 249.629V249.507ZM148.176 249.751C148.457 249.727 148.741 249.778 148.967 249.891C149.194 250.005 149.346 250.173 149.391 250.36C149.316 250.503 149.177 250.627 148.992 250.715C148.807 250.803 148.585 250.851 148.358 250.851C148.131 250.851 147.91 250.803 147.725 250.715C147.54 250.627 147.4 250.503 147.325 250.36C147.358 250.212 147.456 250.075 147.608 249.966C147.76 249.857 147.958 249.782 148.176 249.751ZM140.158 251.091C140.311 251.079 140.466 251.09 140.613 251.121C140.76 251.153 140.896 251.205 141.011 251.274C141.125 251.343 141.217 251.428 141.279 251.522C141.342 251.616 141.373 251.719 141.372 251.822C141.298 251.965 141.158 252.09 140.973 252.177C140.788 252.265 140.567 252.313 140.34 252.313C140.113 252.313 139.891 252.265 139.706 252.177C139.521 252.09 139.382 251.965 139.307 251.822C139.301 251.653 139.382 251.488 139.537 251.355C139.692 251.222 139.911 251.128 140.158 251.091ZM143.195 251.091C143.365 251.076 143.538 251.089 143.699 251.127C143.861 251.166 144.007 251.229 144.125 251.312C144.243 251.395 144.331 251.495 144.38 251.605C144.43 251.715 144.44 251.831 144.41 251.944C144.335 252.087 144.196 252.211 144.011 252.299C143.826 252.387 143.604 252.435 143.377 252.435C143.15 252.435 142.929 252.387 142.744 252.299C142.559 252.211 142.419 252.087 142.344 251.944C142.338 251.775 142.419 251.61 142.574 251.477C142.729 251.343 142.949 251.25 143.195 251.213V251.091ZM146.354 251.335C146.635 251.311 146.918 251.362 147.145 251.475C147.372 251.589 147.523 251.757 147.568 251.944C147.494 252.087 147.354 252.211 147.169 252.299C146.984 252.387 146.763 252.435 146.536 252.435C146.309 252.435 146.087 252.387 145.902 252.299C145.717 252.211 145.578 252.087 145.503 251.944C145.535 251.796 145.634 251.659 145.786 251.55C145.938 251.441 146.136 251.366 146.354 251.335ZM149.755 251.335C149.909 251.323 150.064 251.333 150.211 251.365C150.358 251.397 150.493 251.449 150.608 251.518C150.723 251.587 150.815 251.671 150.877 251.766C150.939 251.86 150.971 251.962 150.97 252.066C150.896 252.209 150.756 252.333 150.571 252.421C150.386 252.509 150.165 252.556 149.938 252.556C149.71 252.556 149.489 252.509 149.304 252.421C149.119 252.333 148.979 252.209 148.905 252.066C148.899 251.897 148.98 251.732 149.135 251.599C149.29 251.465 149.509 251.372 149.755 251.335ZM125.093 261.204C139.434 261.584 153.71 263.297 167.736 266.321C167.857 266.443 167.007 269.367 165.67 272.9L163.241 280.211C163.241 280.779 162.228 280.901 160.203 280.576C150.12 278.992 120.962 279.114 109.785 280.82C103.346 281.795 102.496 281.673 102.982 280.332L104.197 276.068L104.925 272.778L111.486 269.367C115.86 267.132 120.01 264.48 123.878 261.447H124.971L125.093 261.204ZM92.2905 278.505C92.6955 278.505 93.3434 278.83 94.2344 279.48C95.4493 280.211 96.9071 280.82 97.5146 280.82C100.673 280.82 102.374 285.328 105.047 300.314L106.019 305.675C106.262 306.894 106.019 307.137 103.225 307.746C99.8229 308.478 98.9725 308.599 98.9725 308.112C98.9725 306.894 95.5707 291.42 94.1129 285.937L92.169 278.627H92.2905V278.505ZM127.037 280.942H130.56L129.345 282.16C127.28 284.597 126.308 284.719 124.85 283.135L123.635 281.307C123.635 281.064 125.214 280.82 127.037 280.82V280.942ZM134.448 280.942H141.008L139.55 282.404C137.849 284.353 137.728 284.353 135.905 282.404L134.448 280.82V280.942ZM144.41 280.942H145.989C146.84 280.942 148.419 280.942 149.391 281.185L151.213 281.551L149.512 283.135C148.459 284.11 147.811 284.597 147.568 284.597L145.868 282.647L144.41 280.942ZM154.736 281.307L156.194 281.673C157.045 281.916 158.867 282.038 160.203 282.16H162.633L160.811 283.744L158.624 285.328C158.503 285.328 157.409 284.353 156.559 283.257L154.736 281.307ZM118.046 281.429H118.289C118.37 281.835 117.965 282.526 117.074 283.5L115.86 285.206L114.037 283.744L112.215 282.16L115.131 281.795L118.046 281.429ZM120.841 281.673L122.785 283.378L124.728 285.206L121.084 285.45L117.439 285.572L119.14 283.744L120.841 281.673ZM142.709 281.673C143.033 281.673 143.357 281.795 143.681 282.038L145.26 284.11C145.908 285.003 145.503 285.409 144.045 285.328L141.008 284.719L139.55 284.353L141.13 282.769C141.777 281.957 142.344 281.551 142.83 281.551L142.709 281.673ZM132.625 281.673C133.192 281.591 133.84 282.119 134.569 283.257C135.419 284.597 135.419 284.597 132.139 284.597H128.859L130.56 283.013C131.37 282.201 132.058 281.795 132.625 281.795V281.673ZM153.279 281.916L154.736 283.378C156.437 285.003 156.68 285.815 155.465 285.815L152.064 285.45L149.391 285.206L151.335 283.622L153.279 281.916ZM110.514 282.769C110.919 282.769 111.567 283.257 112.458 284.231L113.916 285.815L110.878 286.303L106.626 286.912C105.735 287.156 106.14 286.506 107.841 284.962C109.218 283.582 110.109 282.851 110.514 282.769ZM106.019 282.769H106.505C107.477 283.013 107.477 283.257 105.776 284.962L103.954 286.79L103.346 285.206C102.86 283.988 102.982 283.622 104.075 283.135L106.019 282.769ZM161.904 284.962C162.147 284.962 162.147 285.206 161.904 285.693C161.661 286.668 160.568 286.912 160.568 285.937C160.568 285.693 160.851 285.409 161.418 285.084L161.904 284.962ZM135.905 286.912C145.26 286.912 154.736 287.156 157.045 287.399C160.811 287.887 161.175 288.008 161.175 289.47C161.175 291.176 160.689 291.298 155.587 290.445C154.129 290.08 147.933 289.592 141.98 289.105C130.426 288.407 118.832 288.815 107.355 290.323C105.047 290.567 104.44 290.323 104.44 289.592C104.44 288.008 116.832 286.912 135.905 286.912ZM123.392 290.445H129.952L128.495 292.029C126.672 293.979 126.551 293.979 124.85 292.029L123.392 290.445ZM131.896 290.445L133.597 292.151L135.298 294.1L131.775 294.222H128.252L130.074 292.273L131.896 290.445ZM134.448 290.445H141.008L139.55 292.029C137.849 293.979 137.728 293.979 135.905 292.029L134.448 290.445ZM118.897 290.445C119.14 290.445 118.856 291.054 118.046 292.273C117.074 293.491 116.467 294.141 116.224 294.222C115.819 294.141 115.212 293.613 114.402 292.638L112.944 291.054H115.131C116.242 291.06 117.349 290.896 118.411 290.567L118.897 290.445ZM121.327 291.054L122.906 292.516L124.728 294.1L121.57 294.344L118.046 294.588L119.747 292.76L121.327 291.054ZM142.466 291.054L144.167 293.004C146.111 295.075 145.989 295.197 141.615 294.344L139.55 293.979L141.008 292.516L142.466 291.054ZM144.896 291.054H147.811C150.889 290.973 151.456 291.704 149.512 293.248C148.054 294.466 148.054 294.466 146.354 292.638L144.896 291.054ZM107.72 291.664C109.178 291.664 109.056 291.785 107.234 293.613C105.897 294.953 105.776 294.953 105.29 293.979C105.047 292.679 105.857 291.907 107.72 291.664ZM154.858 291.907L157.288 292.151L160.082 292.638L158.503 294.1L157.045 295.562L155.708 293.857L154.493 291.907H154.858ZM111.121 292.516C111.445 292.516 111.891 292.801 112.458 293.369C113.673 294.588 113.673 294.588 112.701 295.075L109.785 295.562H107.841L109.421 293.857C110.231 293.044 110.757 292.598 111 292.516H111.121ZM152.55 292.882C152.955 292.801 153.44 293.207 154.007 294.1L155.101 295.562H152.55C150.93 295.562 150.12 295.319 150.12 294.831C150.363 294.263 150.889 293.735 151.699 293.248L152.55 292.882ZM160.325 294.466C160.568 294.466 160.649 294.669 160.568 295.075C160.568 296.294 159.475 297.146 158.989 296.294C158.908 295.887 159.11 295.441 159.596 294.953L160.325 294.466ZM128.859 295.928C139.429 295.928 151.092 296.659 158.017 297.877L159.96 298.243V303.604C159.96 307.625 159.717 308.965 159.11 308.965L153.036 307.746C138.987 305.358 124.675 304.948 110.514 306.528L107.72 306.894L106.991 302.386L106.505 297.756C106.505 297.756 109.299 297.146 112.579 296.781C116.589 296.172 122.542 295.928 128.859 295.928Z" fill="black"/>
<path d="M150.12 265.468C146.475 265.468 143.924 268.026 143.924 271.803C143.924 277.652 150.484 280.576 154.372 276.433C158.26 272.291 155.587 265.468 150.12 265.468ZM150.12 266.93C151.409 266.93 152.645 267.443 153.556 268.357C154.467 269.271 154.979 270.511 154.979 271.803C154.979 275.459 150.97 277.895 147.69 276.312C144.41 274.484 144.653 268.879 148.176 267.417L150.12 266.93Z" fill="black"/>
<path d="M125.7 264.737C122.055 264.737 119.504 267.296 119.504 271.073C119.504 276.921 126.064 279.845 129.952 275.703C133.84 271.56 131.167 264.737 125.7 264.737ZM125.7 266.199C126.989 266.199 128.225 266.713 129.136 267.627C130.048 268.541 130.56 269.78 130.56 271.073C130.56 274.728 126.55 277.165 123.27 275.581C119.99 273.753 120.233 268.149 123.756 266.687L125.7 266.199Z" fill="black"/>
<path d="M105.411 177.134C104.903 177.165 104.425 177.393 104.066 177.775C103.708 178.157 103.494 178.666 103.467 179.205C103.467 179.804 103.691 180.378 104.09 180.801C104.488 181.225 105.029 181.463 105.593 181.463C106.157 181.463 106.698 181.225 107.096 180.801C107.495 180.378 107.719 179.804 107.719 179.205C107.705 178.904 107.633 178.61 107.508 178.34C107.382 178.07 107.206 177.83 106.989 177.636C106.773 177.442 106.521 177.297 106.249 177.211C105.978 177.124 105.692 177.098 105.411 177.134ZM105.532 177.865C105.899 177.863 106.252 178.001 106.522 178.249C106.792 178.497 106.959 178.839 106.99 179.205C106.99 179.56 106.836 179.901 106.563 180.153C106.29 180.404 105.919 180.545 105.532 180.545C105.145 180.545 104.775 180.404 104.501 180.153C104.228 179.901 104.074 179.56 104.074 179.205C104.105 178.839 104.272 178.497 104.542 178.249C104.812 178.001 105.166 177.863 105.532 177.865Z" fill="black"/>
</g>
</g>
<defs>
<clipPath id="clip0_3921_23247">
<rect width="512" height="512" fill="white"/>
</clipPath>
</defs>
</svg>
