<svg width="170" height="34" viewBox="0 0 170 34" fill="none" xmlns="http://www.w3.org/2000/svg">
<g clip-path="url(#clip0_3903_46045)">
<mask id="mask0_3903_46045" style="mask-type:luminance" maskUnits="userSpaceOnUse" x="0" y="0" width="170" height="34">
<path d="M170 0H0V34H170V0Z" fill="white"/>
</mask>
<g mask="url(#mask0_3903_46045)">
<mask id="mask1_3903_46045" style="mask-type:luminance" maskUnits="userSpaceOnUse" x="0" y="0" width="170" height="34">
<path d="M169.918 0H0V34H169.918V0Z" fill="white"/>
</mask>
<g mask="url(#mask1_3903_46045)">
<mask id="mask2_3903_46045" style="mask-type:luminance" maskUnits="userSpaceOnUse" x="0" y="0" width="7" height="7">
<path d="M4.30721 0H2.15361C0.964202 0 0 0.964202 0 2.15361V4.3113C0 5.5007 0.964202 6.4649 2.15361 6.4649H4.30721C5.49661 6.4649 6.46082 5.5007 6.46082 4.3113V2.15361C6.46082 0.964202 5.49661 0 4.30721 0Z" fill="white"/>
</mask>
<g mask="url(#mask2_3903_46045)">
<path d="M6.46082 0H0V6.4649H6.46082V0Z" fill="url(#paint0_linear_3903_46045)"/>
</g>
<mask id="mask3_3903_46045" style="mask-type:luminance" maskUnits="userSpaceOnUse" x="0" y="0" width="35" height="34">
<path d="M8.61851 0V19.3906C8.61851 20.2394 8.78576 21.0799 9.1107 21.864C9.43564 22.6481 9.91191 23.3606 10.5123 23.9606C11.1127 24.5606 11.8254 25.0364 12.6097 25.3608C13.394 25.6853 14.2346 25.852 15.0834 25.8514V6.4649H19.3906C20.5222 6.4649 21.6427 6.68786 22.6882 7.12103C23.7336 7.5542 24.6834 8.1891 25.4834 8.98946C26.2834 9.78981 26.9178 10.7399 27.3505 11.7856C27.7832 12.8312 28.0056 13.9518 28.005 15.0834V28.0091H15.0834C12.7973 28.0091 10.6047 27.1012 8.98776 25.4851C7.37083 23.8689 6.4619 21.6768 6.46082 19.3906V8.61851H0V19.3906C0.000955326 22.7365 1.11379 25.9873 3.16357 28.6318C5.21336 31.2763 8.08384 33.1647 11.3238 34H34.4699V15.0834C34.4705 13.1028 34.0808 11.1415 33.3233 9.31155C32.5657 7.48157 31.4551 5.81876 30.0548 4.41808C28.6545 3.0174 26.9919 1.9063 25.1622 1.14824C23.3324 0.390174 21.3712 -7.27297e-08 19.3906 0H8.61851Z" fill="white"/>
</mask>
<g mask="url(#mask3_3903_46045)">
<path d="M34.4699 0H0V34H34.4699V0Z" fill="url(#paint1_linear_3903_46045)"/>
</g>
<path d="M60.6618 9.96668C60.6618 5.25081 56.9839 1.11523 50.9481 1.11523C44.9123 1.11523 41.2344 5.25081 41.2344 9.96668C41.2344 14.7888 44.7938 18.9244 50.9481 18.9244C57.1024 18.9244 60.6618 14.7888 60.6618 9.96668ZM46.4856 9.96668C46.4856 7.51475 47.9976 5.21812 50.9481 5.21812C54.0048 5.21812 55.4106 7.51884 55.4106 9.96668C55.4106 12.5208 53.8986 14.6785 50.9481 14.6785C47.9976 14.6785 46.4856 12.5208 46.4856 9.96668Z" fill="white"/>
<path d="M67.5145 0H64.7969V24.3558H70.232V2.71755C70.232 2.36067 70.1617 2.0073 70.0251 1.67759C69.8886 1.34788 69.6884 1.0483 69.436 0.795951C69.1837 0.543604 68.8841 0.343431 68.5544 0.206861C68.2247 0.0702914 67.8713 0 67.5145 0Z" fill="white"/>
<path d="M68.8308 29.1398H52.4233V24.9266C52.4223 24.1823 52.1261 23.4689 51.5999 22.9426C51.0736 22.4163 50.3601 22.1202 49.6159 22.1191H46.8125V24.9266V30.3617C46.8125 31.1344 47.1195 31.8755 47.6659 32.422C48.2124 32.9684 48.9535 33.2754 49.7262 33.2754H70.8781V31.2035C70.8809 30.9331 70.8299 30.6649 70.7281 30.4143C70.6264 30.1638 70.476 29.936 70.2855 29.744C70.0951 29.552 69.8684 29.3998 69.6187 29.2961C69.369 29.1924 69.1012 29.1392 68.8308 29.1398Z" fill="white"/>
<path d="M99.9675 0H97.2132V11.0786H91.8516V15.5288H97.2132V34H102.718V2.75433C102.718 2.39282 102.647 2.03475 102.509 1.7006C102.371 1.36645 102.169 1.06279 101.914 0.806971C101.658 0.551155 101.355 0.348208 101.021 0.20974C100.687 0.0712719 100.329 -3.99076e-07 99.9675 0Z" fill="white"/>
<path d="M167.87 29.1398H151.467V24.9266C151.465 24.1823 151.169 23.4689 150.643 22.9426C150.117 22.4163 149.403 22.1202 148.659 22.1191H145.852V30.3617C145.853 31.132 146.158 31.8706 146.702 32.4165C147.245 32.9623 147.983 33.2711 148.753 33.2754H169.921V31.2035C169.924 30.9328 169.873 30.6642 169.771 30.4134C169.669 30.1626 169.518 29.9346 169.327 29.7425C169.136 29.5505 168.909 29.3984 168.659 29.2949C168.409 29.1914 168.141 29.1387 167.87 29.1398Z" fill="white"/>
<path d="M150.492 14.7847C152.71 17.3653 155.562 19.3242 158.767 20.4691L161.035 16.8729C156.949 15.2383 152.972 12.7374 152.972 8.23807V1.11523H147.578V8.27485C147.578 12.9866 142.903 15.9003 138.547 18.0253L141.534 21.5111C144.918 19.8234 148.551 17.5717 150.492 14.7847Z" fill="white"/>
<path d="M166.541 3.06366e-06H163.803V3.78005H158.445V7.91563H163.803V10.8988H158.445V15.0752H163.803V24.5192H169.275V2.7339C169.275 2.37473 169.205 2.01898 169.068 1.68704C168.93 1.35511 168.729 1.05351 168.475 0.799542C168.221 0.545569 167.92 0.344213 167.588 0.207012C167.256 0.069812 166.9 -0.000535022 166.541 3.06366e-06Z" fill="white"/>
<path d="M121.94 19.4271C129.705 19.4271 134.494 15.4346 134.494 10.2529C134.494 4.96487 129.709 0.935547 121.94 0.935547C113.738 0.935547 109.133 4.85454 109.133 10.2529C109.133 15.4673 113.808 19.4271 121.94 19.4271ZM121.94 5.1079C126.435 5.1079 129.206 7.16752 129.206 10.2692C129.206 13.2565 126.472 15.2711 121.94 15.2711C117.261 15.2711 114.421 13.2932 114.421 10.2692C114.425 7.12257 117.261 5.1079 121.94 5.1079Z" fill="white"/>
<path d="M136.009 24.8228H124.526V20.7363H118.915V24.8228H105.43V29.1423H138.093V26.9723C138.09 26.4146 137.871 25.8799 137.482 25.4794C137.094 25.079 136.567 24.8438 136.009 24.8228Z" fill="white"/>
<path d="M80.5905 21.9119V15.5287H89.2254V11.4422H80.5905V6.18687H91.5343V2.08398H77.8035C77.0828 2.08398 76.3915 2.3703 75.8819 2.87994C75.3723 3.38958 75.0859 4.08079 75.0859 4.80153V23.1664C75.0859 23.9202 75.3834 24.6435 75.9136 25.1791C76.4439 25.7148 77.1642 26.0195 77.9179 26.027H78.0201C84.1499 26.027 88.4612 25.8758 94.0843 25.0953V21.1191C89.6071 21.663 85.1005 21.9278 80.5905 21.9119Z" fill="white"/>
</g>
</g>
</g>
<defs>
<linearGradient id="paint0_linear_3903_46045" x1="0.27151" y1="3.55365" x2="34.2882" y2="3.55365" gradientUnits="userSpaceOnUse">
<stop stop-color="#004FA2"/>
<stop offset="1" stop-color="#32B6A0"/>
</linearGradient>
<linearGradient id="paint1_linear_3903_46045" x1="0.0376779" y1="16.3848" x2="34.142" y2="16.3848" gradientUnits="userSpaceOnUse">
<stop stop-color="#004FA2"/>
<stop offset="1" stop-color="#32B6A0"/>
</linearGradient>
<clipPath id="clip0_3903_46045">
<rect width="170" height="34" fill="white"/>
</clipPath>
</defs>
</svg>
