<svg width="416" height="84" viewBox="0 0 416 84" fill="none" xmlns="http://www.w3.org/2000/svg">
<g clip-path="url(#clip0_3903_45939)">
<mask id="mask0_3903_45939" style="mask-type:luminance" maskUnits="userSpaceOnUse" x="0" y="0" width="416" height="84">
<path d="M416 0H0V84H416V0Z" fill="white"/>
</mask>
<g mask="url(#mask0_3903_45939)">
<mask id="mask1_3903_45939" style="mask-type:luminance" maskUnits="userSpaceOnUse" x="0" y="0" width="416" height="84">
<path d="M416 0H0V84H416V0Z" fill="white"/>
</mask>
<g mask="url(#mask1_3903_45939)">
<mask id="mask2_3903_45939" style="mask-type:luminance" maskUnits="userSpaceOnUse" x="0" y="0" width="416" height="84">
<path d="M416 0H0V84H416V0Z" fill="white"/>
</mask>
<g mask="url(#mask2_3903_45939)">
<mask id="mask3_3903_45939" style="mask-type:luminance" maskUnits="userSpaceOnUse" x="0" y="0" width="416" height="84">
<path d="M416 0H0V84H416V0Z" fill="white"/>
</mask>
<g mask="url(#mask3_3903_45939)">
<mask id="mask4_3903_45939" style="mask-type:luminance" maskUnits="userSpaceOnUse" x="0" y="0" width="416" height="84">
<path d="M415.8 0H0V83.2H415.8V0Z" fill="white"/>
</mask>
<g mask="url(#mask4_3903_45939)">
<mask id="mask5_3903_45939" style="mask-type:luminance" maskUnits="userSpaceOnUse" x="0" y="0" width="16" height="16">
<path d="M10.54 0H5.27C2.35946 0 0 2.35946 0 5.27V10.55C0 13.4605 2.35946 15.82 5.27 15.82H10.54C13.4505 15.82 15.81 13.4605 15.81 10.55V5.27C15.81 2.35946 13.4505 0 10.54 0Z" fill="white"/>
</mask>
<g mask="url(#mask5_3903_45939)">
<path d="M15.81 0H0V15.82H15.81V0Z" fill="url(#paint0_linear_3903_45939)"/>
</g>
<mask id="mask6_3903_45939" style="mask-type:luminance" maskUnits="userSpaceOnUse" x="0" y="0" width="85" height="84">
<path d="M21.09 0V47.45C21.09 49.527 21.4993 51.5837 22.2944 53.5025C23.0896 55.4213 24.255 57.1647 25.7242 58.6329C27.1933 60.1011 28.9374 61.2655 30.8567 62.0594C32.776 62.8533 34.833 63.2613 36.91 63.26V15.82H47.45C50.2191 15.82 52.9611 16.3656 55.5193 17.4256C58.0775 18.4856 60.4018 20.0392 62.3593 21.9977C64.3169 23.9562 65.8695 26.2813 66.9283 28.84C67.987 31.3987 68.5313 34.1409 68.53 36.91V68.54H36.91C31.3157 68.54 25.9503 66.3183 21.9936 62.3635C18.0369 58.4086 15.8127 53.0443 15.81 47.45V21.09H0V47.45C0.00233774 55.6376 2.72552 63.5923 7.74145 70.0636C12.7574 76.5349 19.7816 81.1559 27.71 83.2H84.35V36.91C84.3513 32.0634 83.3978 27.264 81.544 22.7859C79.6902 18.3078 76.9724 14.2388 73.5458 10.8113C70.1192 7.38375 66.0509 4.66483 61.5733 2.8098C57.0958 0.954778 52.2966 -1.77974e-07 47.45 0H21.09Z" fill="white"/>
</mask>
<g mask="url(#mask6_3903_45939)">
<path d="M84.35 0H0V83.2H84.35V0Z" fill="url(#paint1_linear_3903_45939)"/>
</g>
<path d="M148.438 24.3944C148.438 12.8544 139.438 2.73438 124.668 2.73438C109.898 2.73438 100.898 12.8544 100.898 24.3944C100.898 36.1944 109.608 46.3144 124.668 46.3144C139.728 46.3144 148.438 36.1944 148.438 24.3944ZM113.748 24.3944C113.748 18.3944 117.448 12.7744 124.668 12.7744C132.148 12.7744 135.588 18.4044 135.588 24.3944C135.588 30.6444 131.888 35.9244 124.668 35.9244C117.448 35.9244 113.748 30.6444 113.748 24.3944Z" fill="#262626"/>
<path d="M165.215 0H158.562V59.6H171.866V6.65C171.866 5.77671 171.692 4.91197 171.357 4.10515C171.023 3.29834 170.532 2.56525 169.915 1.94774C169.297 1.33023 168.565 0.840395 167.758 0.506201C166.952 0.172007 166.088 0 165.215 0Z" fill="#262626"/>
<path d="M168.427 71.3128H128.277V61.0028C128.274 59.1816 127.55 57.4357 126.262 56.1479C124.974 54.8601 123.228 54.1354 121.407 54.1328H114.547V61.0028V74.3028C114.547 76.1938 115.298 78.0073 116.635 79.3445C117.972 80.6816 119.786 81.4328 121.677 81.4328H173.437V76.3628C173.443 75.7011 173.319 75.0448 173.07 74.4317C172.821 73.8186 172.453 73.2611 171.987 72.7913C171.521 72.3216 170.966 71.949 170.355 71.6952C169.744 71.4414 169.089 71.3114 168.427 71.3128Z" fill="#262626"/>
<path d="M244.626 0H237.886V27.11H224.766V38H237.886V83.2H251.356V6.74C251.357 5.85536 251.184 4.97915 250.846 4.16147C250.509 3.34379 250.013 2.6007 249.388 1.97471C248.763 1.34871 248.021 0.852085 247.203 0.513246C246.386 0.174406 245.51 -9.76551e-07 244.626 0Z" fill="#262626"/>
<path d="M410.778 71.3128H370.638V61.0028C370.636 59.1816 369.911 57.4357 368.623 56.1479C367.336 54.8601 365.59 54.1354 363.768 54.1328H356.898V74.3028C356.901 76.1878 357.649 77.9953 358.979 79.331C360.309 80.6667 362.113 81.4222 363.998 81.4328H415.798V76.3628C415.805 75.7003 415.68 75.0431 415.43 74.4294C415.181 73.8156 414.812 73.2576 414.345 72.7878C413.878 72.3179 413.322 71.9455 412.71 71.6923C412.097 71.4391 411.441 71.3101 410.778 71.3128Z" fill="#262626"/>
<path d="M368.261 36.1844C373.69 42.4992 380.669 47.2928 388.511 50.0944L394.061 41.2944C384.061 37.2944 374.331 31.1744 374.331 20.1644V2.73438H361.131V20.2544C361.131 31.7844 349.691 38.9144 339.031 44.1144L346.341 52.6444C354.621 48.5144 363.511 43.0044 368.261 36.1844Z" fill="#262626"/>
<path d="M407.529 7.49695e-06H400.829V9.25001H387.719V19.37H400.829V26.67H387.719V36.89H400.829V60H414.219V6.69001C414.22 5.81109 414.048 4.94056 413.712 4.1283C413.376 3.31604 412.884 2.57801 412.262 1.95653C411.641 1.33504 410.903 0.842309 410.09 0.506572C409.278 0.170834 408.408 -0.00130923 407.529 7.49695e-06Z" fill="#262626"/>
<path d="M298.387 47.539C317.387 47.539 329.107 37.769 329.107 25.089C329.107 12.149 317.397 2.28906 298.387 2.28906C278.317 2.28906 267.047 11.879 267.047 25.089C267.047 37.849 278.487 47.539 298.387 47.539ZM298.387 12.499C309.387 12.499 316.167 17.539 316.167 25.129C316.167 32.439 309.477 37.369 298.387 37.369C286.937 37.369 279.987 32.529 279.987 25.129C279.997 17.429 286.937 12.499 298.387 12.499Z" fill="#262626"/>
<path d="M332.83 60.7422H304.73V50.7422H291V60.7422H258V71.3122H337.93V66.0022C337.921 64.6375 337.385 63.3289 336.435 62.3491C335.485 61.3693 334.194 60.7937 332.83 60.7422Z" fill="#262626"/>
<path d="M197.22 53.6216V38.0016H218.35V28.0016H197.22V15.1416H224V5.10156H190.4C188.636 5.10156 186.945 5.80218 185.698 7.0493C184.451 8.29642 183.75 9.98787 183.75 11.7516V56.6916C183.75 58.5361 184.478 60.306 185.775 61.6168C187.073 62.9275 188.836 63.6732 190.68 63.6916H190.93C205.93 63.6916 216.48 63.3216 230.24 61.4116V51.6816C219.284 53.0127 208.256 53.6606 197.22 53.6216Z" fill="#262626"/>
</g>
</g>
</g>
</g>
</g>
</g>
<defs>
<linearGradient id="paint0_linear_3903_45939" x1="0.6644" y1="8.696" x2="83.9052" y2="8.696" gradientUnits="userSpaceOnUse">
<stop stop-color="#004FA2"/>
<stop offset="1" stop-color="#32B6A0"/>
</linearGradient>
<linearGradient id="paint1_linear_3903_45939" x1="0.0922" y1="40.0946" x2="83.5474" y2="40.0946" gradientUnits="userSpaceOnUse">
<stop stop-color="#004FA2"/>
<stop offset="1" stop-color="#32B6A0"/>
</linearGradient>
<clipPath id="clip0_3903_45939">
<rect width="416" height="84" fill="white"/>
</clipPath>
</defs>
</svg>
