<svg width="228" height="228" viewBox="0 0 228 228" fill="none" xmlns="http://www.w3.org/2000/svg">
<g clip-path="url(#clip0_3903_45997)">
<mask id="mask0_3903_45997" style="mask-type:luminance" maskUnits="userSpaceOnUse" x="0" y="0" width="228" height="228">
<path d="M228 0H0V228H228V0Z" fill="white"/>
</mask>
<g mask="url(#mask0_3903_45997)">
<g filter="url(#filter0_d_3903_45997)">
<path d="M113.57 219.14C174.084 219.14 223.14 170.084 223.14 109.57C223.14 49.0562 174.084 0 113.57 0C53.0562 0 4 49.0562 4 109.57C4 170.084 53.0562 219.14 113.57 219.14Z" fill="white"/>
</g>
<mask id="mask1_3903_45997" style="mask-type:luminance" maskUnits="userSpaceOnUse" x="14" y="90" width="200" height="40">
<path d="M214 90H14V130H214V90Z" fill="white"/>
</mask>
<g mask="url(#mask1_3903_45997)">
<mask id="mask2_3903_45997" style="mask-type:luminance" maskUnits="userSpaceOnUse" x="14" y="90" width="8" height="8">
<path d="M19.0697 90H16.5349C15.1349 90 14 91.1344 14 92.5337V95.0721C14 96.4714 15.1349 97.6058 16.5349 97.6058H19.0697C20.4697 97.6058 21.6046 96.4714 21.6046 95.0721V92.5337C21.6046 91.1344 20.4697 90 19.0697 90Z" fill="white"/>
</mask>
<g mask="url(#mask2_3903_45997)">
<path d="M21.6046 90H14V97.6058H21.6046V90Z" fill="url(#paint0_linear_3903_45997)"/>
</g>
<mask id="mask3_3903_45997" style="mask-type:luminance" maskUnits="userSpaceOnUse" x="14" y="90" width="41" height="40">
<path d="M24.1443 90V112.813C24.1443 113.811 24.3412 114.8 24.7236 115.722C25.1061 116.645 25.6667 117.483 26.3733 118.189C27.08 118.895 27.9189 119.455 28.8421 119.836C29.7653 120.218 30.7547 120.414 31.7537 120.413V97.6058H36.8235C38.1554 97.6058 39.4743 97.8681 40.7048 98.3777C41.9353 98.8873 43.0533 99.6342 43.9949 100.576C44.9365 101.517 45.6833 102.635 46.1925 103.865C46.7018 105.096 46.9636 106.414 46.963 107.745V122.952H31.7537C29.0629 122.952 26.4821 121.884 24.5789 119.982C22.6757 118.081 21.6059 115.502 21.6046 112.813V100.139H14V112.813C14.0011 116.749 15.311 120.573 17.7236 123.684C20.1363 126.796 23.515 129.017 27.3285 130H54.5724V107.745C54.573 105.415 54.1144 103.108 53.2227 100.955C52.331 98.8018 51.0238 96.8456 49.3756 95.1977C47.7274 93.5499 45.7705 92.2427 43.6168 91.3509C41.4631 90.459 39.1547 90 36.8235 90H24.1443Z" fill="white"/>
</mask>
<g mask="url(#mask3_3903_45997)">
<path d="M54.5724 90H14V130H54.5724V90Z" fill="url(#paint1_linear_3903_45997)"/>
</g>
<path d="M85.3982 101.726C85.3982 96.1779 81.069 91.3125 73.9646 91.3125C66.8602 91.3125 62.5312 96.1779 62.5312 101.726C62.5312 107.399 66.7207 112.264 73.9646 112.264C81.2085 112.264 85.3982 107.399 85.3982 101.726ZM68.7122 101.726C68.7122 98.8413 70.4918 96.1394 73.9646 96.1394C77.5625 96.1394 79.2173 98.8462 79.2173 101.726C79.2173 104.731 77.4374 107.269 73.9646 107.269C70.4918 107.269 68.7122 104.731 68.7122 101.726Z" fill="#262626"/>
<path d="M93.4642 90H90.2656V118.654H96.6629V93.1971C96.6629 92.7773 96.5802 92.3615 96.4194 91.9736C96.2587 91.5857 96.023 91.2333 95.726 90.9364C95.429 90.6395 95.0764 90.404 94.6883 90.2434C94.3002 90.0827 93.8843 90 93.4642 90Z" fill="#262626"/>
<path d="M95.0179 124.283H75.7058V119.326C75.7045 118.451 75.3559 117.611 74.7365 116.992C74.1171 116.373 73.2773 116.025 72.4013 116.023H69.1016V119.326V125.721C69.1016 126.63 69.463 127.502 70.1061 128.144C70.7493 128.787 71.6216 129.148 72.5312 129.148H97.4278V126.711C97.4309 126.393 97.3709 126.077 97.2512 125.783C97.1314 125.488 96.9544 125.22 96.7302 124.994C96.5061 124.768 96.2393 124.589 95.9454 124.467C95.6514 124.345 95.3362 124.282 95.0179 124.283Z" fill="#262626"/>
<path d="M131.67 90H128.428V103.034H122.117V108.269H128.428V130H134.907V93.2404C134.908 92.8151 134.824 92.3938 134.662 92.0007C134.5 91.6076 134.261 91.2503 133.961 90.9494C133.66 90.6484 133.303 90.4097 132.91 90.2468C132.517 90.0838 132.095 90 131.67 90Z" fill="#262626"/>
<path d="M211.588 124.283H192.281V119.326C192.28 118.451 191.931 117.611 191.312 116.992C190.692 116.373 189.852 116.025 188.976 116.023H185.672V125.721C185.673 126.627 186.033 127.496 186.673 128.138C187.313 128.78 188.18 129.143 189.087 129.148H214.003V126.711C214.006 126.392 213.946 126.076 213.826 125.781C213.706 125.486 213.528 125.218 213.304 124.992C213.079 124.766 212.812 124.587 212.517 124.465C212.223 124.344 211.907 124.282 211.588 124.283Z" fill="#262626"/>
<path d="M191.13 107.394C193.741 110.43 197.098 112.735 200.87 114.082L203.54 109.851C198.73 107.928 194.05 104.986 194.05 99.6923V91.3125H187.7V99.7356C187.7 105.279 182.198 108.707 177.07 111.207L180.586 115.308C184.569 113.322 188.845 110.673 191.13 107.394Z" fill="#262626"/>
<path d="M210.021 90H206.798V94.4471H200.492V99.3125H206.798V102.822H200.492V107.736H206.798V118.846H213.239V93.2163C213.239 92.7938 213.156 92.3753 212.995 91.9848C212.834 91.5942 212.597 91.2394 212.298 90.9406C211.999 90.6418 211.644 90.405 211.253 90.2435C210.862 90.0821 210.444 89.9994 210.021 90Z" fill="#262626"/>
<path d="M157.528 112.856C166.667 112.856 172.304 108.159 172.304 102.063C172.304 95.842 166.672 91.1016 157.528 91.1016C147.874 91.1016 142.453 95.7122 142.453 102.063C142.453 108.198 147.956 112.856 157.528 112.856ZM157.528 96.0102C162.819 96.0102 166.08 98.4333 166.08 102.082C166.08 105.597 162.862 107.967 157.528 107.967C152.02 107.967 148.677 105.64 148.677 102.082C148.682 98.3804 152.02 96.0102 157.528 96.0102Z" fill="#262626"/>
<path d="M174.095 119.202H160.579V114.395H153.975V119.202H138.102V124.284H176.548V121.731C176.544 121.075 176.286 120.446 175.829 119.975C175.372 119.504 174.751 119.227 174.095 119.202Z" fill="#262626"/>
<path d="M108.862 115.778V108.268H119.025V103.461H108.862V97.2782H121.743V92.4512H105.581C104.733 92.4512 103.92 92.7881 103.32 93.3877C102.72 93.9872 102.383 94.8004 102.383 95.6484V117.254C102.383 118.141 102.733 118.992 103.357 119.622C103.981 120.252 104.829 120.611 105.716 120.619H105.836C113.051 120.619 118.126 120.442 124.745 119.523V114.845C119.475 115.485 114.17 115.797 108.862 115.778Z" fill="#262626"/>
</g>
</g>
</g>
<defs>
<filter id="filter0_d_3903_45997" x="0" y="0" width="227.14" height="227.14" filterUnits="userSpaceOnUse" color-interpolation-filters="sRGB">
<feFlood flood-opacity="0" result="BackgroundImageFix"/>
<feColorMatrix in="SourceAlpha" type="matrix" values="0 0 0 0 0 0 0 0 0 0 0 0 0 0 0 0 0 0 127 0" result="hardAlpha"/>
<feOffset dy="4"/>
<feGaussianBlur stdDeviation="2"/>
<feComposite in2="hardAlpha" operator="out"/>
<feColorMatrix type="matrix" values="0 0 0 0 0 0 0 0 0 0 0 0 0 0 0 0 0 0 0.25 0"/>
<feBlend mode="normal" in2="BackgroundImageFix" result="effect1_dropShadow_3903_45997"/>
<feBlend mode="normal" in="SourceGraphic" in2="effect1_dropShadow_3903_45997" result="shape"/>
</filter>
<linearGradient id="paint0_linear_3903_45997" x1="14.3196" y1="94.1808" x2="54.3584" y2="94.1808" gradientUnits="userSpaceOnUse">
<stop stop-color="#004FA2"/>
<stop offset="1" stop-color="#32B6A0"/>
</linearGradient>
<linearGradient id="paint1_linear_3903_45997" x1="14.0443" y1="109.276" x2="54.1863" y2="109.276" gradientUnits="userSpaceOnUse">
<stop stop-color="#004FA2"/>
<stop offset="1" stop-color="#32B6A0"/>
</linearGradient>
<clipPath id="clip0_3903_45997">
<rect width="228" height="228" fill="white"/>
</clipPath>
</defs>
</svg>
