<svg width="256" height="512" viewBox="0 0 256 512" fill="none" xmlns="http://www.w3.org/2000/svg">
<path d="M160 64.0044C160 52.2044 153.5 41.4044 143.1 35.8044C132.7 30.2044 120.1 30.8044 110.3 37.4044L14.3 101.404C-0.5 111.204 -4.4 131.004 5.4 145.804C15.2 160.604 35.1 164.504 49.8 154.704L96 123.804V416.004H32C14.3 416.004 0 430.304 0 448.004C0 465.704 14.3 480.004 32 480.004H128H224C241.7 480.004 256 465.704 256 448.004C256 430.304 241.7 416.004 224 416.004H160V64.0044Z" fill="black"/>
</svg>
