<svg width="384" height="512" viewBox="0 0 384 512" fill="none" xmlns="http://www.w3.org/2000/svg">
<g clip-path="url(#clip0_3932_57076)">
<mask id="mask0_3932_57076" style="mask-type:luminance" maskUnits="userSpaceOnUse" x="0" y="0" width="384" height="512">
<path d="M384 0H0V512H384V0Z" fill="white"/>
</mask>
<g mask="url(#mask0_3932_57076)">
<mask id="mask1_3932_57076" style="mask-type:luminance" maskUnits="userSpaceOnUse" x="0" y="0" width="384" height="512">
<path d="M384 0H0V512H384V0Z" fill="white"/>
</mask>
<g mask="url(#mask1_3932_57076)">
<mask id="mask2_3932_57076" style="mask-type:luminance" maskUnits="userSpaceOnUse" x="0" y="0" width="384" height="512">
<path d="M384 0H0V512H384V0Z" fill="white"/>
</mask>
<g mask="url(#mask2_3932_57076)">
<mask id="mask3_3932_57076" style="mask-type:luminance" maskUnits="userSpaceOnUse" x="0" y="0" width="384" height="512">
<path d="M384 0H0V512H384V0Z" fill="white"/>
</mask>
<g mask="url(#mask3_3932_57076)">
<mask id="mask4_3932_57076" style="mask-type:luminance" maskUnits="userSpaceOnUse" x="0" y="0" width="384" height="512">
<path d="M384 0H0V512H384V0Z" fill="white"/>
</mask>
<g mask="url(#mask4_3932_57076)">
<mask id="mask5_3932_57076" style="mask-type:luminance" maskUnits="userSpaceOnUse" x="0" y="0" width="384" height="512">
<path d="M384 0H0V512H384V0Z" fill="white"/>
</mask>
<g mask="url(#mask5_3932_57076)">
<mask id="mask6_3932_57076" style="mask-type:luminance" maskUnits="userSpaceOnUse" x="0" y="0" width="384" height="512">
<path d="M384 0H0V512H384V0Z" fill="white"/>
</mask>
<g mask="url(#mask6_3932_57076)">
<mask id="mask7_3932_57076" style="mask-type:luminance" maskUnits="userSpaceOnUse" x="0" y="0" width="384" height="512">
<path d="M384 0H0V512H384V0Z" fill="white"/>
</mask>
<g mask="url(#mask7_3932_57076)">
<mask id="mask8_3932_57076" style="mask-type:luminance" maskUnits="userSpaceOnUse" x="0" y="0" width="384" height="512">
<path d="M384 0H0V512H384V0Z" fill="white"/>
</mask>
<g mask="url(#mask8_3932_57076)">
<mask id="mask9_3932_57076" style="mask-type:luminance" maskUnits="userSpaceOnUse" x="0" y="0" width="384" height="512">
<path d="M384 0H0V512H384V0Z" fill="white"/>
</mask>
<g mask="url(#mask9_3932_57076)">
<mask id="mask10_3932_57076" style="mask-type:luminance" maskUnits="userSpaceOnUse" x="0" y="0" width="384" height="512">
<path d="M384 0H0V512H384V0Z" fill="white"/>
</mask>
<g mask="url(#mask10_3932_57076)">
<mask id="mask11_3932_57076" style="mask-type:luminance" maskUnits="userSpaceOnUse" x="0" y="0" width="384" height="512">
<path d="M384 0H0V512H384V0Z" fill="white"/>
</mask>
<g mask="url(#mask11_3932_57076)">
<mask id="mask12_3932_57076" style="mask-type:luminance" maskUnits="userSpaceOnUse" x="0" y="0" width="384" height="512">
<path d="M384 0H0V512H384V0Z" fill="white"/>
</mask>
<g mask="url(#mask12_3932_57076)">
<mask id="mask13_3932_57076" style="mask-type:luminance" maskUnits="userSpaceOnUse" x="0" y="0" width="384" height="512">
<path d="M384 0H0V512H384V0Z" fill="white"/>
</mask>
<g mask="url(#mask13_3932_57076)">
<path d="M188.998 77.6024C196.498 61.6024 189.698 42.5024 173.698 35.0024C157.698 27.5024 138.598 34.3024 131.098 50.3024L2.99777 322.402C-1.70223 332.302 -0.902231 343.903 4.89777 353.203C10.6978 362.503 20.9978 368.003 31.9978 368.003H255.998V448.003C255.998 465.703 270.298 480.003 287.998 480.003C305.698 480.003 319.998 465.703 319.998 448.003V368.003H351.998C369.698 368.003 383.998 353.703 383.998 336.003C383.998 318.302 369.698 304.003 351.998 304.003H319.998V160.002C319.998 142.302 305.698 128.002 287.998 128.002C270.298 128.002 255.998 142.302 255.998 160.002V304.003H82.3978L188.998 77.6024Z" fill="black"/>
</g>
</g>
</g>
</g>
</g>
</g>
</g>
</g>
</g>
</g>
</g>
</g>
</g>
</g>
</g>
<defs>
<clipPath id="clip0_3932_57076">
<rect width="384" height="512" fill="white"/>
</clipPath>
</defs>
</svg>
