<svg width="320" height="512" viewBox="0 0 320 512" fill="none" xmlns="http://www.w3.org/2000/svg">
<g clip-path="url(#clip0_3932_57134)">
<mask id="mask0_3932_57134" style="mask-type:luminance" maskUnits="userSpaceOnUse" x="0" y="0" width="320" height="512">
<path d="M320 0H0V512H320V0Z" fill="white"/>
</mask>
<g mask="url(#mask0_3932_57134)">
<mask id="mask1_3932_57134" style="mask-type:luminance" maskUnits="userSpaceOnUse" x="0" y="0" width="320" height="512">
<path d="M320 0H0V512H320V0Z" fill="white"/>
</mask>
<g mask="url(#mask1_3932_57134)">
<mask id="mask2_3932_57134" style="mask-type:luminance" maskUnits="userSpaceOnUse" x="0" y="0" width="320" height="512">
<path d="M320 0H0V512H320V0Z" fill="white"/>
</mask>
<g mask="url(#mask2_3932_57134)">
<mask id="mask3_3932_57134" style="mask-type:luminance" maskUnits="userSpaceOnUse" x="0" y="0" width="320" height="512">
<path d="M320 0H0V512H320V0Z" fill="white"/>
</mask>
<g mask="url(#mask3_3932_57134)">
<mask id="mask4_3932_57134" style="mask-type:luminance" maskUnits="userSpaceOnUse" x="0" y="0" width="320" height="512">
<path d="M320 0H0V512H320V0Z" fill="white"/>
</mask>
<g mask="url(#mask4_3932_57134)">
<mask id="mask5_3932_57134" style="mask-type:luminance" maskUnits="userSpaceOnUse" x="0" y="0" width="320" height="512">
<path d="M320 0H0V512H320V0Z" fill="white"/>
</mask>
<g mask="url(#mask5_3932_57134)">
<mask id="mask6_3932_57134" style="mask-type:luminance" maskUnits="userSpaceOnUse" x="0" y="0" width="320" height="512">
<path d="M320 0H0V512H320V0Z" fill="white"/>
</mask>
<g mask="url(#mask6_3932_57134)">
<mask id="mask7_3932_57134" style="mask-type:luminance" maskUnits="userSpaceOnUse" x="0" y="0" width="320" height="512">
<path d="M320 0H0V512H320V0Z" fill="white"/>
</mask>
<g mask="url(#mask7_3932_57134)">
<mask id="mask8_3932_57134" style="mask-type:luminance" maskUnits="userSpaceOnUse" x="0" y="0" width="320" height="512">
<path d="M320 0H0V512H320V0Z" fill="white"/>
</mask>
<g mask="url(#mask8_3932_57134)">
<mask id="mask9_3932_57134" style="mask-type:luminance" maskUnits="userSpaceOnUse" x="0" y="0" width="320" height="512">
<path d="M320 0H0V512H320V0Z" fill="white"/>
</mask>
<g mask="url(#mask9_3932_57134)">
<mask id="mask10_3932_57134" style="mask-type:luminance" maskUnits="userSpaceOnUse" x="0" y="0" width="320" height="512">
<path d="M320 0H0V512H320V0Z" fill="white"/>
</mask>
<g mask="url(#mask10_3932_57134)">
<mask id="mask11_3932_57134" style="mask-type:luminance" maskUnits="userSpaceOnUse" x="0" y="0" width="320" height="512">
<path d="M320 0H0V512H320V0Z" fill="white"/>
</mask>
<g mask="url(#mask11_3932_57134)">
<mask id="mask12_3932_57134" style="mask-type:luminance" maskUnits="userSpaceOnUse" x="0" y="0" width="320" height="512">
<path d="M320 0H0V512H320V0Z" fill="white"/>
</mask>
<g mask="url(#mask12_3932_57134)">
<mask id="mask13_3932_57134" style="mask-type:luminance" maskUnits="userSpaceOnUse" x="0" y="0" width="320" height="512">
<path d="M320 0H0V512H320V0Z" fill="white"/>
</mask>
<g mask="url(#mask13_3932_57134)">
<path d="M32.4977 58.3C35.2977 43.1 48.4977 32 63.9977 32H255.998C273.698 32 287.998 46.3 287.998 64C287.998 81.7 273.698 96 255.998 96H90.6977L70.2977 208H183.998C259.098 208 319.998 268.9 319.998 344C319.998 419.1 259.098 480 183.998 480H100.498C61.0977 480 25.0977 457.7 7.49772 422.5L3.39772 414.3C-4.50228 398.5 1.89772 379.3 17.6977 371.4C33.4977 363.5 52.6977 369.9 60.5977 385.7L64.6977 393.9C71.4977 407.5 85.2977 416 100.498 416H183.998C223.798 416 255.998 383.8 255.998 344C255.998 304.2 223.798 272 183.998 272H31.9977C22.4977 272 13.4977 267.8 7.39772 260.5C1.29772 253.2 -1.20228 243.6 0.497717 234.3L32.4977 58.3Z" fill="black"/>
</g>
</g>
</g>
</g>
</g>
</g>
</g>
</g>
</g>
</g>
</g>
</g>
</g>
</g>
</g>
<defs>
<clipPath id="clip0_3932_57134">
<rect width="320" height="512" fill="white"/>
</clipPath>
</defs>
</svg>
