<svg width="320" height="512" viewBox="0 0 320 512" fill="none" xmlns="http://www.w3.org/2000/svg">
<path d="M232.4 84.698C243.8 71.198 242.1 50.998 228.6 39.598C215.1 28.198 194.9 29.8981 183.5 43.3981L38.6 214.698C14.7 242.898 1.1 278.398 0.1 315.198C0.1 316.598 0 318.098 0 319.498C0 319.698 0 319.798 0 319.998C0 408.398 71.6 479.998 160 479.998C248.4 479.998 320 408.398 320 319.998C320 234.498 252.9 164.598 168.5 160.198L232.4 84.598V84.698ZM256 319.998C256 345.459 245.886 369.877 227.882 387.88C209.879 405.884 185.461 415.998 160 415.998C134.539 415.998 110.121 405.884 92.1178 387.88C74.1143 369.877 64 345.459 64 319.998C64 294.537 74.1143 270.119 92.1178 252.116C110.121 234.112 134.539 223.998 160 223.998C185.461 223.998 209.879 234.112 227.882 252.116C245.886 270.119 256 294.537 256 319.998Z" fill="black"/>
</svg>
