<svg width="320" height="512" viewBox="0 0 320 512" fill="none" xmlns="http://www.w3.org/2000/svg">
<path d="M304 160C304 89.3 246.7 32 176 32H144C73.3 32 16 89.3 16 160C16 194.6 29.7 226 52 249C20.5 272.3 0 309.8 0 352C0 422.7 57.3 480 128 480H192C262.7 480 320 422.7 320 352C320 309.8 299.5 272.3 268 249C290.3 226 304 194.6 304 160ZM176.1 288H192C227.3 288 256 316.7 256 352C256 387.3 227.3 416 192 416H128C92.7 416 64 387.3 64 352C64 316.7 92.7 288 128 288H143.9H144H176H176.1ZM176.1 224H144C108.7 224 80 195.3 80 160C80 124.7 108.7 96 144 96H176C211.3 96 240 124.7 240 160C240 195.3 211.4 224 176 224H176.1Z" fill="black"/>
</svg>
