<svg width="640" height="512" viewBox="0 0 640 512" fill="none" xmlns="http://www.w3.org/2000/svg">
<g clip-path="url(#clip0_3932_57206)">
<mask id="mask0_3932_57206" style="mask-type:luminance" maskUnits="userSpaceOnUse" x="0" y="0" width="640" height="512">
<path d="M640 0H0V512H640V0Z" fill="white"/>
</mask>
<g mask="url(#mask0_3932_57206)">
<mask id="mask1_3932_57206" style="mask-type:luminance" maskUnits="userSpaceOnUse" x="0" y="0" width="640" height="512">
<path d="M640 0H0V512H640V0Z" fill="white"/>
</mask>
<g mask="url(#mask1_3932_57206)">
<mask id="mask2_3932_57206" style="mask-type:luminance" maskUnits="userSpaceOnUse" x="0" y="0" width="640" height="512">
<path d="M640 0H0V512H640V0Z" fill="white"/>
</mask>
<g mask="url(#mask2_3932_57206)">
<mask id="mask3_3932_57206" style="mask-type:luminance" maskUnits="userSpaceOnUse" x="0" y="0" width="640" height="512">
<path d="M640 0H0V512H640V0Z" fill="white"/>
</mask>
<g mask="url(#mask3_3932_57206)">
<mask id="mask4_3932_57206" style="mask-type:luminance" maskUnits="userSpaceOnUse" x="0" y="0" width="640" height="512">
<path d="M640 0H0V512H640V0Z" fill="white"/>
</mask>
<g mask="url(#mask4_3932_57206)">
<mask id="mask5_3932_57206" style="mask-type:luminance" maskUnits="userSpaceOnUse" x="0" y="0" width="640" height="512">
<path d="M640 0H0V512H640V0Z" fill="white"/>
</mask>
<g mask="url(#mask5_3932_57206)">
<mask id="mask6_3932_57206" style="mask-type:luminance" maskUnits="userSpaceOnUse" x="0" y="0" width="640" height="512">
<path d="M640 0H0V512H640V0Z" fill="white"/>
</mask>
<g mask="url(#mask6_3932_57206)">
<mask id="mask7_3932_57206" style="mask-type:luminance" maskUnits="userSpaceOnUse" x="0" y="0" width="640" height="512">
<path d="M640 0H0V512H640V0Z" fill="white"/>
</mask>
<g mask="url(#mask7_3932_57206)">
<mask id="mask8_3932_57206" style="mask-type:luminance" maskUnits="userSpaceOnUse" x="0" y="0" width="640" height="512">
<path d="M640 0H0V512H640V0Z" fill="white"/>
</mask>
<g mask="url(#mask8_3932_57206)">
<mask id="mask9_3932_57206" style="mask-type:luminance" maskUnits="userSpaceOnUse" x="0" y="0" width="640" height="512">
<path d="M640 0H0V512H640V0Z" fill="white"/>
</mask>
<g mask="url(#mask9_3932_57206)">
<mask id="mask10_3932_57206" style="mask-type:luminance" maskUnits="userSpaceOnUse" x="0" y="0" width="640" height="512">
<path d="M640 0H0V512H640V0Z" fill="white"/>
</mask>
<g mask="url(#mask10_3932_57206)">
<mask id="mask11_3932_57206" style="mask-type:luminance" maskUnits="userSpaceOnUse" x="0" y="0" width="640" height="512">
<path d="M640 0H0V512H640V0Z" fill="white"/>
</mask>
<g mask="url(#mask11_3932_57206)">
<mask id="mask12_3932_57206" style="mask-type:luminance" maskUnits="userSpaceOnUse" x="0" y="0" width="640" height="512">
<path d="M640 0H0V512H640V0Z" fill="white"/>
</mask>
<g mask="url(#mask12_3932_57206)">
<mask id="mask13_3932_57206" style="mask-type:luminance" maskUnits="userSpaceOnUse" x="0" y="0" width="640" height="512">
<path d="M640 0H0V512H640V0Z" fill="white"/>
</mask>
<g mask="url(#mask13_3932_57206)">
<path d="M322.1 252V251L270.9 185.2C270.9 185.2 258.9 186.8 245.9 200.3C236.9 209.6 3.80007 439.4 2.50007 441.2C-4.49993 451.2 4.10007 448 18.2001 442.9C19.0001 442.9 132.7 406.3 132.7 406.3C133.2 405.7 132.6 406.2 133.3 405.7C132.9 400.6 132.5 379.5 132.3 378C131.7 372.8 134.5 371.1 139.3 369.1L231.9 335.3C232.5 334.5 320.4 253.6 322.1 252ZM482.2 372.1C495.5 388.2 502.9 385.4 513 381.4C516.2 380.2 628.4 333.8 630.8 332.5C638.8 328.2 629.1 315.8 623.6 309.1C621.5 306.6 418.5 63.4999 416.4 60.7999C406.7 48.5999 402.1 47.8999 378 47.9999C367.8 47.9999 271.2 48.4999 261.5 48.5999C242.3 48.6999 228.6 48.2999 242.3 65.4999C250 74.9999 476.5 365.2 482.2 372.1ZM634.9 373.7C632.6 373.4 610.3 369 596.9 366.5C596.9 366.5 481.9 416.9 479.4 418.1C463.4 425.4 452.5 414.9 442.7 403.5L385.6 329.5C380.2 328.6 325.2 319.9 320.3 320.2C317.2 320.4 310.7 321 305.9 323.1C301 325.2 160.7 375.9 155.7 377.8C150.6 379.8 144.3 381.4 144.6 385.4C144.8 387.9 146.6 388 149.2 388.9C151.9 389.7 450.1 456.5 457.2 458C472.8 461.3 495.7 468.5 510.8 459.7C512.9 458.5 634.6 383.3 636.6 381.9C642 377.9 640.9 375.1 634.9 373.7Z" fill="black"/>
</g>
</g>
</g>
</g>
</g>
</g>
</g>
</g>
</g>
</g>
</g>
</g>
</g>
</g>
</g>
<defs>
<clipPath id="clip0_3932_57206">
<rect width="640" height="512" fill="white"/>
</clipPath>
</defs>
</svg>
