<svg width="512" height="512" viewBox="0 0 512 512" fill="none" xmlns="http://www.w3.org/2000/svg">
<path d="M384 48C392.8 48 400 55.2 400 64V448C400 456.8 392.8 464 384 464H96C87.2 464 80 456.8 80 448V64C80 55.2 87.2 48 96 48H384ZM96 0C60.7 0 32 28.7 32 64V448C32 483.3 60.7 512 96 512H384C419.3 512 448 483.3 448 448V64C448 28.7 419.3 0 384 0H96ZM240 256C256.974 256 273.252 249.257 285.255 237.255C297.257 225.253 304 208.974 304 192C304 175.026 297.257 158.747 285.255 146.745C273.252 134.743 256.974 128 240 128C223.026 128 206.747 134.743 194.745 146.745C182.743 158.747 176 175.026 176 192C176 208.974 182.743 225.253 194.745 237.255C206.747 249.257 223.026 256 240 256ZM208 288C163.8 288 128 323.8 128 368C128 376.8 135.2 384 144 384H336C344.8 384 352 376.8 352 368C352 323.8 316.2 288 272 288H208ZM512 80C512 71.2 504.8 64 496 64C487.2 64 480 71.2 480 80V144C480 152.8 487.2 160 496 160C504.8 160 512 152.8 512 144V80ZM496 192C487.2 192 480 199.2 480 208V272C480 280.8 487.2 288 496 288C504.8 288 512 280.8 512 272V208C512 199.2 504.8 192 496 192ZM512 336C512 327.2 504.8 320 496 320C487.2 320 480 327.2 480 336V400C480 408.8 487.2 416 496 416C504.8 416 512 408.8 512 400V336Z" fill="black"/>
</svg>
