<svg width="512" height="512" viewBox="0 0 512 512" fill="none" xmlns="http://www.w3.org/2000/svg">
<path d="M159.703 237.398C108.403 308.298 43.1029 348.198 14.0029 326.598C-15.1971 304.898 2.80275 229.998 54.2029 159.098C105.503 88.198 170.803 48.298 199.903 69.898C229.003 91.498 211.003 166.498 159.703 237.398ZM510.903 180.098C437.103 303.498 319.003 367.798 246.403 323.698C221.403 308.498 205.103 282.498 197.403 249.898C163.803 314.698 104.603 363.698 33.3029 383.098C83.1029 442.398 157.403 479.998 240.303 479.998C390.303 479.998 511.903 356.898 511.903 205.098C512.003 196.598 511.603 188.298 510.903 180.098Z" fill="black"/>
</svg>
