<svg width="640" height="512" viewBox="0 0 640 512" fill="none" xmlns="http://www.w3.org/2000/svg">
<path d="M14 325.3C16.3 321.1 19.2 320.4 23.7 322.8C34.1 328.4 44.3 334.2 54.9 339.5C95.4673 359.729 138.21 375.263 182.3 385.8C203.147 390.83 224.242 394.768 245.5 397.6C276.98 401.831 308.746 403.57 340.5 402.8C357.9 402.4 375.3 401 392.6 399C448.769 392.453 503.74 378.045 555.9 356.2C558.8 355 561.8 354.2 565 355C571.7 356.8 574 364 569.1 368.9C566.12 371.64 562.908 374.116 559.5 376.3C528.8 397.4 495.3 412.7 459.9 424.2C435.387 432.1 410.27 437.986 384.8 441.8C367.183 444.498 349.416 446.102 331.6 446.6C330.761 446.651 329.927 446.751 329.1 446.9H308C307.173 446.751 306.339 446.651 305.5 446.6C301.9 446.4 298.3 446.3 294.8 446.2C277.91 445.434 261.08 443.665 244.4 440.9C217.011 436.436 190.096 429.44 164 420C110.32 400.641 60.8818 371.1 18.4 333C16.6 331.4 15.4 329.2 14 327.3V325.3ZM172 65.1L167.7 65.7C153.95 67.3972 140.865 72.5966 129.7 80.8C127.3 82.5 125.1 84.3 122.6 86.2C122.388 85.7595 122.253 85.2861 122.2 84.8C121.8 82.1 121.4 79.3 120.9 76.6C120.2 72 117.9 70 113.3 70H101.8C94.9 70 93.6 71.3 93.6 78.2V287.5C93.6 288.5 93.6 289.5 93.7 290.5C93.9 293.5 95.7 295.4 98.6 295.5C105.6 295.6 112.7 295.6 119.7 295.5C122.6 295.5 124.4 293.5 124.7 290.5C124.8 289.5 124.8 288.5 124.8 287.5V215.1C125.9 216 126.5 216.5 127 217C144.9 231.9 165.5 236.8 188 232.4C208.4 228.4 222.6 215.9 231.8 197.5C238.8 183.6 241.7 168.8 242.1 153.4C242.6 136.3 240.9 119.5 234 103.6C225.5 84 211.4 71.1 190.1 66.7C186.9 66 183.6 65.7 180.3 65.2C177.5 65.1 174.8 65.1 172 65.1ZM124.6 107C124.543 106.346 124.672 105.688 124.973 105.104C125.274 104.52 125.734 104.034 126.3 103.7C140 94.2 155.1 89.2 171.9 90.5C186.8 91.6 199 98.9 205.4 116.4C209.3 127.1 210.3 138.2 210.3 149.4C210.3 159.8 209.5 170 206.3 180C199.5 201.3 183.9 209.4 163.7 208.5C149.7 207.9 137.5 202.5 126.3 194.6C125.741 194.259 125.287 193.77 124.987 193.188C124.688 192.606 124.554 191.953 124.6 191.3C124.7 177.2 124.6 163.2 124.6 149.1C124.6 135 124.7 121.1 124.6 107ZM330.3 65.1C329.3 65.2 328.3 65.4 327.4 65.5C317.655 65.911 307.975 67.2844 298.5 69.6C292.4 71.2 286.5 73.4 280.6 75.4C277 76.6 275.2 79.2 275.3 83.1C275.4 86.4 275.2 89.7 275.3 93C275.4 97.8 277.4 99.1 282.1 97.9C289.9 95.9 297.7 93.7 305.6 92.2C317.9 89.9 330.3 88.9 342.8 90.8C349.3 91.8 355.4 93.7 359.6 99.2C363.3 104 364.7 109.7 364.9 115.6C365.2 123.9 365.1 132.2 365.2 140.5C365.176 140.972 365.109 141.44 365 141.9C364.5 141.8 364.1 141.9 363.7 141.8C353.202 139.212 342.492 137.572 331.7 136.9C320.4 136.3 309.2 137 298.4 140.8C285.5 145.3 275.1 153.1 269 165.7C264.3 175.5 263.6 185.9 265.1 196.4C267.1 210.4 274.1 221.2 286.5 228.1C298.4 234.7 311.3 235.5 324.4 233.5C339.5 231.2 352.9 224.8 364.7 215.1C365.182 214.664 365.72 214.294 366.3 214C366.9 217.8 367.4 221.4 368.1 225C368.7 228.1 370.6 230.1 373.5 230.2C378.9 230.3 384.4 230.3 389.8 230.2C391.053 230.19 392.253 229.695 393.148 228.818C394.043 227.942 394.564 226.752 394.6 225.5C394.683 224.569 394.717 223.634 394.7 222.7V116.7C394.749 112.383 394.448 108.069 393.8 103.8C391.9 90.9 386.4 80.3 374.8 73.4C368.1 69.4 360.7 67.4 353 66.3C349.4 65.8 345.8 65.5 342.2 65C338.3 65.1 334.3 65.1 330.3 65.1ZM365.3 192.8C365.338 193.388 365.219 193.976 364.955 194.503C364.692 195.03 364.293 195.477 363.8 195.8C352.6 203.9 340.3 209.3 326.4 210.7C320.7 211.3 315 211.1 309.6 208.9C306.632 207.815 303.963 206.045 301.808 203.734C299.654 201.423 298.075 198.636 297.2 195.6C295.217 189.29 295.183 182.53 297.1 176.2C299.6 167.9 305.5 163.2 313.5 160.6C321.529 158.179 329.97 157.43 338.3 158.4C346.7 159.1 354.9 160.7 363.3 161.8C364.9 162 365.4 162.8 365.4 164.4C365.3 169.2 365.4 173.9 365.4 178.7C365.4 183.5 365.2 188.1 365.3 192.8ZM625.2 322.2C624.2 317.2 620.4 315.3 616.1 313.9C609.283 311.756 602.232 310.447 595.1 310C582.007 308.882 568.823 309.521 555.9 311.9C541.6 314.6 528 319.2 515.9 327.5C514.46 328.426 513.205 329.613 512.2 331C511.85 331.598 511.625 332.261 511.539 332.949C511.453 333.636 511.508 334.334 511.7 335C512.1 336.5 513.8 336.9 515.3 336.8C516.035 336.817 516.77 336.783 517.5 336.7C525.3 335.9 533 335 540.8 334.2C552.2 333.1 563.7 332.4 575.1 333.3C579.98 333.706 584.805 334.61 589.5 336C594.6 337.4 596.9 341.2 597.1 346.4C597.5 354.4 595.7 362.1 593.6 369.7C589.5 385.1 583.6 400 577.8 414.8C577.377 415.768 577.043 416.772 576.8 417.8C576.3 420.7 578 422.6 580.9 421.9C582.69 421.498 584.344 420.636 585.7 419.4C590.212 415.206 594.454 410.73 598.4 406C611.2 389.6 618.7 370.7 623.1 350.4C623.9 346.8 624.5 343.1 625.2 339.5V322.2ZM493.1 199C480.2 163.3 467.3 127.567 454.4 91.8C452.4 86.1 450.2 80.5 448.1 74.9C447 72 444.9 70.1 441.7 70.1C434.1 70 426.5 69.9 418.8 70C416.3 70 415.1 72 415.6 74.5C416.082 76.5775 416.717 78.6165 417.5 80.6C437.1 129.1 456.8 177.6 476.6 226.1C478.3 230.2 478.7 233.7 476.8 237.9C473.5 245.2 470.9 252.9 467.5 260.2C464.5 266.7 459.5 271.6 452.3 273.5C447.278 274.812 442.057 275.185 436.9 274.6C434.4 274.4 431.9 273.8 429.4 273.6C426 273.4 424.3 274.9 424.2 278.4C424.1 281.733 424.1 285.033 424.2 288.3C424.3 293.8 426.2 296.3 431.6 297.2C437.172 298.309 442.823 298.978 448.5 299.2C465.6 299.6 479.2 292.7 488 277.8C491.542 271.916 494.618 265.764 497.2 259.4C520.9 199.6 544.433 139.733 567.8 79.8C568.53 78.0296 569.066 76.1855 569.4 74.3C569.8 71.5 568.5 69.9 565.7 69.9C559.1 69.8 552.4 69.9 545.8 69.9C544.12 69.7825 542.449 70.2306 541.054 71.173C539.658 72.1154 538.618 73.4979 538.1 75.1C537.6 76.5 537 77.8 536.5 79.2L501.7 179.2C499.2 186.4 496.6 193.7 494 201.4C493.6 200.3 493.4 199.7 493.1 199Z" fill="black"/>
</svg>
