<svg width="448" height="512" viewBox="0 0 448 512" fill="none" xmlns="http://www.w3.org/2000/svg">
<path d="M257.202 162.7C208.502 164.5 87.7023 178.2 87.7023 280.2C87.7023 389.7 226.002 394.2 271.202 323.4C277.702 333.6 306.602 360.9 316.502 370.2L373.302 314.2C373.302 314.2 341.002 288.9 341.002 261.4V114.3C341.002 89 316.502 32 228.702 32C140.702 32 94.0023 87 94.0023 136.3L167.502 143.1C183.802 93.6 221.702 93.6 221.702 93.6C262.402 93.5 257.202 123.4 257.202 162.7ZM257.202 249.5C257.202 329.5 173.002 317.5 173.002 266.7C173.002 219.5 223.502 210 257.202 208.9V249.5ZM393.202 413C385.502 423 323.202 480 218.702 480C114.202 480 34.2023 408.5 9.70234 379C2.90234 371.3 10.7023 367.7 15.2023 370.7C88.5023 415.2 203.002 488.5 387.702 401C395.202 397.3 401.002 403 393.202 413ZM433.002 415.2C426.502 431 417.002 442 411.802 446.2C406.302 450.7 402.302 448.9 405.302 442.4C408.302 435.9 424.602 395.9 418.002 387.4C411.502 379.1 381.002 383.1 370.002 384.2C359.202 385.2 357.002 386.2 356.002 383.9C353.702 378.2 377.702 368.4 393.502 366.4C409.202 364.6 434.502 365.6 439.502 372.1C443.202 377.2 439.502 399.2 433.002 415.2Z" fill="black"/>
</svg>
