<svg width="576" height="512" viewBox="0 0 576 512" fill="none" xmlns="http://www.w3.org/2000/svg">
<path d="M420.55 301.935C415.803 301.935 411.163 300.527 407.216 297.89C403.27 295.253 400.193 291.505 398.377 287.119C396.56 282.734 396.085 277.908 397.011 273.253C397.937 268.597 400.223 264.321 403.579 260.964C406.936 257.608 411.212 255.322 415.868 254.396C420.523 253.47 425.349 253.945 429.734 255.762C434.12 257.578 437.868 260.654 440.505 264.601C443.142 268.548 444.55 273.188 444.55 277.935C444.55 284.3 442.021 290.405 437.521 294.905C433.02 299.406 426.915 301.935 420.55 301.935ZM155.45 301.935C150.703 301.935 146.063 300.527 142.116 297.89C138.17 295.253 135.093 291.505 133.277 287.119C131.46 282.734 130.985 277.908 131.911 273.253C132.837 268.597 135.123 264.321 138.479 260.964C141.836 257.608 146.112 255.322 150.768 254.396C155.423 253.47 160.249 253.945 164.634 255.762C169.02 257.578 172.768 260.654 175.405 264.601C178.042 268.548 179.45 273.188 179.45 277.935C179.45 284.3 176.921 290.405 172.421 294.905C167.92 299.406 161.815 301.935 155.45 301.935ZM429.15 157.455L477.09 74.4547C477.853 73.318 478.374 72.0368 478.621 70.6905C478.869 69.3442 478.837 67.9613 478.529 66.6277C478.22 65.2941 477.641 64.038 476.827 62.9374C476.013 61.8367 474.982 60.9148 473.797 60.2289C472.612 59.5429 471.3 59.1075 469.94 58.9496C468.58 58.7917 467.202 58.9146 465.892 59.3107C464.582 59.7069 463.367 60.3679 462.322 61.2527C461.278 62.1375 460.426 63.2274 459.82 64.4547L411.28 148.525C372.507 131.135 330.494 122.145 288 122.145C245.506 122.145 203.493 131.135 164.72 148.525L116.18 64.4547C115.574 63.2274 114.722 62.1375 113.678 61.2527C112.633 60.3679 111.418 59.7069 110.108 59.3107C108.798 58.9146 107.42 58.7917 106.06 58.9496C104.7 59.1075 103.387 59.5429 102.203 60.2289C101.018 60.9148 99.9871 61.8367 99.1732 62.9374C98.3593 64.038 97.7801 65.2941 97.4714 66.6277C97.1627 67.9613 97.1311 69.3442 97.3786 70.6905C97.626 72.0368 98.1473 73.318 98.91 74.4547L146.85 157.455C64.53 202.225 8.24 285.555 0 384.005H576C567.76 285.555 511.46 202.225 429.15 157.455Z" fill="black"/>
</svg>
