<svg width="320" height="512" viewBox="0 0 320 512" fill="none" xmlns="http://www.w3.org/2000/svg">
<g clip-path="url(#clip0_3932_57720)">
<mask id="mask0_3932_57720" style="mask-type:luminance" maskUnits="userSpaceOnUse" x="0" y="0" width="320" height="512">
<path d="M320 0H0V512H320V0Z" fill="white"/>
</mask>
<g mask="url(#mask0_3932_57720)">
<mask id="mask1_3932_57720" style="mask-type:luminance" maskUnits="userSpaceOnUse" x="0" y="0" width="320" height="512">
<path d="M320 0H0V512H320V0Z" fill="white"/>
</mask>
<g mask="url(#mask1_3932_57720)">
<mask id="mask2_3932_57720" style="mask-type:luminance" maskUnits="userSpaceOnUse" x="0" y="0" width="320" height="512">
<path d="M320 0H0V512H320V0Z" fill="white"/>
</mask>
<g mask="url(#mask2_3932_57720)">
<mask id="mask3_3932_57720" style="mask-type:luminance" maskUnits="userSpaceOnUse" x="0" y="0" width="320" height="512">
<path d="M320 0H0V512H320V0Z" fill="white"/>
</mask>
<g mask="url(#mask3_3932_57720)">
<mask id="mask4_3932_57720" style="mask-type:luminance" maskUnits="userSpaceOnUse" x="0" y="0" width="320" height="512">
<path d="M320 0H0V512H320V0Z" fill="white"/>
</mask>
<g mask="url(#mask4_3932_57720)">
<mask id="mask5_3932_57720" style="mask-type:luminance" maskUnits="userSpaceOnUse" x="0" y="0" width="320" height="512">
<path d="M320 0H0V512H320V0Z" fill="white"/>
</mask>
<g mask="url(#mask5_3932_57720)">
<mask id="mask6_3932_57720" style="mask-type:luminance" maskUnits="userSpaceOnUse" x="0" y="0" width="320" height="512">
<path d="M320 0H0V512H320V0Z" fill="white"/>
</mask>
<g mask="url(#mask6_3932_57720)">
<mask id="mask7_3932_57720" style="mask-type:luminance" maskUnits="userSpaceOnUse" x="0" y="0" width="320" height="512">
<path d="M320 0H0V512H320V0Z" fill="white"/>
</mask>
<g mask="url(#mask7_3932_57720)">
<mask id="mask8_3932_57720" style="mask-type:luminance" maskUnits="userSpaceOnUse" x="0" y="0" width="320" height="512">
<path d="M320 0H0V512H320V0Z" fill="white"/>
</mask>
<g mask="url(#mask8_3932_57720)">
<mask id="mask9_3932_57720" style="mask-type:luminance" maskUnits="userSpaceOnUse" x="0" y="0" width="320" height="512">
<path d="M320 0H0V512H320V0Z" fill="white"/>
</mask>
<g mask="url(#mask9_3932_57720)">
<mask id="mask10_3932_57720" style="mask-type:luminance" maskUnits="userSpaceOnUse" x="0" y="0" width="320" height="512">
<path d="M320 0H0V512H320V0Z" fill="white"/>
</mask>
<g mask="url(#mask10_3932_57720)">
<mask id="mask11_3932_57720" style="mask-type:luminance" maskUnits="userSpaceOnUse" x="0" y="0" width="320" height="512">
<path d="M320 0H0V512H320V0Z" fill="white"/>
</mask>
<g mask="url(#mask11_3932_57720)">
<mask id="mask12_3932_57720" style="mask-type:luminance" maskUnits="userSpaceOnUse" x="0" y="0" width="320" height="512">
<path d="M320 0H0V512H320V0Z" fill="white"/>
</mask>
<g mask="url(#mask12_3932_57720)">
<mask id="mask13_3932_57720" style="mask-type:luminance" maskUnits="userSpaceOnUse" x="0" y="0" width="320" height="512">
<path d="M320 0H0V512H320V0Z" fill="white"/>
</mask>
<g mask="url(#mask13_3932_57720)">
<path d="M96 128C96 92.7 124.7 64 160 64C195.3 64 224 92.7 224 128C224 169.6 203.3 204.6 177.4 232.1C171.5 238.3 165.6 243.9 160 248.8C154.4 243.9 148.5 238.3 142.6 232.1C116.7 204.6 96 169.6 96 128ZM160 0C89.3 0 32 57.3 32 128C32 180.4 53.5 223.5 78.8 256H32C14.3 256 0 270.3 0 288C0 305.7 14.3 320 32 320H128V480C128 497.7 142.3 512 160 512C177.7 512 192 497.7 192 480V320H288C305.7 320 320 305.7 320 288C320 270.3 305.7 256 288 256H241.2C266.6 223.5 288 180.4 288 128C288 57.3 230.7 0 160 0Z" fill="black"/>
</g>
</g>
</g>
</g>
</g>
</g>
</g>
</g>
</g>
</g>
</g>
</g>
</g>
</g>
</g>
<defs>
<clipPath id="clip0_3932_57720">
<rect width="320" height="512" fill="white"/>
</clipPath>
</defs>
</svg>
