<svg width="640" height="512" viewBox="0 0 640 512" fill="none" xmlns="http://www.w3.org/2000/svg">
<path d="M14.9953 14.9953C24.3953 5.69532 39.5953 5.69532 48.9953 14.9953L111.995 77.9953V39.9953C111.995 26.6953 122.695 15.9953 135.995 15.9953C149.295 15.9953 159.995 26.6953 159.995 39.9953V135.995C159.995 149.295 149.295 159.995 135.995 159.995H39.9953C26.6953 159.995 15.9953 149.295 15.9953 135.995C15.9953 122.695 26.6953 111.995 39.9953 111.995H78.0953L14.9953 48.9953C5.69532 39.5953 5.69532 24.3953 14.9953 14.9953ZM133.495 243.895C158.595 193.595 222.695 111.995 319.995 111.995C417.295 111.995 481.395 193.595 506.495 243.895C510.295 251.495 510.295 260.395 506.495 268.095C481.395 318.395 417.295 399.995 319.995 399.995C222.695 399.995 158.595 318.395 133.495 268.095C129.695 260.495 129.695 251.595 133.495 243.895ZM319.995 319.995C336.969 319.995 353.248 313.252 365.25 301.25C377.252 289.248 383.995 272.969 383.995 255.995C383.995 239.021 377.252 222.743 365.25 210.74C353.248 198.738 336.969 191.995 319.995 191.995C303.021 191.995 286.743 198.738 274.74 210.74C262.738 222.743 255.995 239.021 255.995 255.995C255.995 272.969 262.738 289.248 274.74 301.25C286.743 313.252 303.021 319.995 319.995 319.995ZM590.995 14.9953C600.395 5.59532 615.595 5.59532 624.895 14.9953C634.195 24.3953 634.295 39.5953 624.895 48.8953L561.895 111.895H599.995C613.295 111.895 623.995 122.595 623.995 135.895C623.995 149.195 613.295 159.895 599.995 159.895H503.995C490.695 159.895 479.995 149.195 479.995 135.895V39.9953C479.995 26.6953 490.695 15.9953 503.995 15.9953C517.295 15.9953 527.995 26.6953 527.995 39.9953V78.0953L590.995 15.0953V14.9953ZM14.9953 496.995C5.59532 487.595 5.59532 472.395 14.9953 463.095L77.9953 400.095H39.9953C26.6953 400.095 15.9953 389.395 15.9953 376.095C15.9953 362.795 26.6953 352.095 39.9953 352.095H135.995C149.295 352.095 159.995 362.795 159.995 376.095V472.095C159.995 485.395 149.295 496.095 135.995 496.095C122.695 496.095 111.995 485.395 111.995 472.095V433.895L48.9953 496.995C39.5953 506.395 24.3953 506.395 15.0953 496.995H14.9953ZM590.995 496.995L527.995 433.995V471.995C527.995 485.295 517.295 495.995 503.995 495.995C490.695 495.995 479.995 485.295 479.995 471.995V375.995C479.995 362.695 490.695 351.995 503.995 351.995H599.995C613.295 351.995 623.995 362.695 623.995 375.995C623.995 389.295 613.295 399.995 599.995 399.995H561.895L624.895 462.995C634.295 472.395 634.295 487.595 624.895 496.895C615.495 506.195 600.295 506.295 590.995 496.895V496.995Z" fill="black"/>
</svg>
