<svg width="512" height="512" viewBox="0 0 512 512" fill="none" xmlns="http://www.w3.org/2000/svg">
<path d="M125.7 160.002H176C193.7 160.002 208 174.302 208 192.002C208 209.702 193.7 224.002 176 224.002H48C30.3 224.002 16 209.702 16 192.002V64.0016C16 46.3016 30.3 32.0016 48 32.0016C65.7 32.0016 80 46.3016 80 64.0016V115.202L97.6 97.6016C185.1 10.1016 326.9 10.1016 414.4 97.6016C501.9 185.102 501.9 326.902 414.4 414.402C326.9 501.902 185.1 501.902 97.6 414.402C85.1 401.902 85.1 381.602 97.6 369.102C110.1 356.602 130.4 356.602 142.9 369.102C205.4 431.602 306.7 431.602 369.2 369.102C431.7 306.602 431.7 205.302 369.2 142.802C306.7 80.3016 205.4 80.3016 142.9 142.802L125.7 160.002Z" fill="black"/>
</svg>
