<svg width="320" height="512" viewBox="0 0 320 512" fill="none" xmlns="http://www.w3.org/2000/svg">
<g clip-path="url(#clip0_3932_486)">
<mask id="mask0_3932_486" style="mask-type:luminance" maskUnits="userSpaceOnUse" x="0" y="0" width="320" height="512">
<path d="M320 0H0V512H320V0Z" fill="white"/>
</mask>
<g mask="url(#mask0_3932_486)">
<mask id="mask1_3932_486" style="mask-type:luminance" maskUnits="userSpaceOnUse" x="0" y="0" width="320" height="512">
<path d="M320 0H0V512H320V0Z" fill="white"/>
</mask>
<g mask="url(#mask1_3932_486)">
<mask id="mask2_3932_486" style="mask-type:luminance" maskUnits="userSpaceOnUse" x="0" y="0" width="320" height="512">
<path d="M320 0H0V512H320V0Z" fill="white"/>
</mask>
<g mask="url(#mask2_3932_486)">
<mask id="mask3_3932_486" style="mask-type:luminance" maskUnits="userSpaceOnUse" x="0" y="0" width="320" height="512">
<path d="M320 0H0V512H320V0Z" fill="white"/>
</mask>
<g mask="url(#mask3_3932_486)">
<mask id="mask4_3932_486" style="mask-type:luminance" maskUnits="userSpaceOnUse" x="0" y="0" width="320" height="512">
<path d="M320 0H0V512H320V0Z" fill="white"/>
</mask>
<g mask="url(#mask4_3932_486)">
<mask id="mask5_3932_486" style="mask-type:luminance" maskUnits="userSpaceOnUse" x="0" y="0" width="320" height="512">
<path d="M320 0H0V512H320V0Z" fill="white"/>
</mask>
<g mask="url(#mask5_3932_486)">
<mask id="mask6_3932_486" style="mask-type:luminance" maskUnits="userSpaceOnUse" x="0" y="0" width="320" height="512">
<path d="M320 0H0V512H320V0Z" fill="white"/>
</mask>
<g mask="url(#mask6_3932_486)">
<mask id="mask7_3932_486" style="mask-type:luminance" maskUnits="userSpaceOnUse" x="0" y="0" width="320" height="512">
<path d="M320 0H0V512H320V0Z" fill="white"/>
</mask>
<g mask="url(#mask7_3932_486)">
<mask id="mask8_3932_486" style="mask-type:luminance" maskUnits="userSpaceOnUse" x="0" y="0" width="320" height="512">
<path d="M320 0H0V512H320V0Z" fill="white"/>
</mask>
<g mask="url(#mask8_3932_486)">
<mask id="mask9_3932_486" style="mask-type:luminance" maskUnits="userSpaceOnUse" x="0" y="0" width="320" height="512">
<path d="M320 0H0V512H320V0Z" fill="white"/>
</mask>
<g mask="url(#mask9_3932_486)">
<mask id="mask10_3932_486" style="mask-type:luminance" maskUnits="userSpaceOnUse" x="0" y="0" width="320" height="512">
<path d="M320 0H0V512H320V0Z" fill="white"/>
</mask>
<g mask="url(#mask10_3932_486)">
<mask id="mask11_3932_486" style="mask-type:luminance" maskUnits="userSpaceOnUse" x="0" y="0" width="320" height="512">
<path d="M320 0H0V512H320V0Z" fill="white"/>
</mask>
<g mask="url(#mask11_3932_486)">
<mask id="mask12_3932_486" style="mask-type:luminance" maskUnits="userSpaceOnUse" x="0" y="0" width="320" height="512">
<path d="M320 0H0V512H320V0Z" fill="white"/>
</mask>
<g mask="url(#mask12_3932_486)">
<mask id="mask13_3932_486" style="mask-type:luminance" maskUnits="userSpaceOnUse" x="0" y="0" width="320" height="512">
<path d="M320 0H0V512H320V0Z" fill="white"/>
</mask>
<g mask="url(#mask13_3932_486)">
<path d="M182.605 9.39844C170.105 -3.10156 149.805 -3.10156 137.305 9.39844L41.3047 105.398C28.8047 117.898 28.8047 138.198 41.3047 150.698C53.8047 163.198 74.1047 163.198 86.6047 150.698L128.005 109.298V402.698L86.6047 361.398C74.1047 348.898 53.8047 348.898 41.3047 361.398C28.8047 373.898 28.8047 394.198 41.3047 406.698L137.305 502.698C149.805 515.198 170.105 515.198 182.605 502.698L278.605 406.698C291.105 394.198 291.105 373.898 278.605 361.398C266.105 348.898 245.805 348.898 233.305 361.398L192.005 402.698V109.298L233.405 150.698C245.905 163.198 266.205 163.198 278.705 150.698C291.205 138.198 291.205 117.898 278.705 105.398L182.705 9.39844H182.605Z" fill="black"/>
</g>
</g>
</g>
</g>
</g>
</g>
</g>
</g>
</g>
</g>
</g>
</g>
</g>
</g>
</g>
<defs>
<clipPath id="clip0_3932_486">
<rect width="320" height="512" fill="white"/>
</clipPath>
</defs>
</svg>
