<svg width="448" height="512" viewBox="0 0 448 512" fill="none" xmlns="http://www.w3.org/2000/svg">
<g clip-path="url(#clip0_3932_58382)">
<mask id="mask0_3932_58382" style="mask-type:luminance" maskUnits="userSpaceOnUse" x="0" y="0" width="448" height="512">
<path d="M448 0H0V512H448V0Z" fill="white"/>
</mask>
<g mask="url(#mask0_3932_58382)">
<mask id="mask1_3932_58382" style="mask-type:luminance" maskUnits="userSpaceOnUse" x="0" y="0" width="448" height="512">
<path d="M448 0H0V512H448V0Z" fill="white"/>
</mask>
<g mask="url(#mask1_3932_58382)">
<mask id="mask2_3932_58382" style="mask-type:luminance" maskUnits="userSpaceOnUse" x="0" y="0" width="448" height="512">
<path d="M448 0H0V512H448V0Z" fill="white"/>
</mask>
<g mask="url(#mask2_3932_58382)">
<mask id="mask3_3932_58382" style="mask-type:luminance" maskUnits="userSpaceOnUse" x="0" y="0" width="448" height="512">
<path d="M448 0H0V512H448V0Z" fill="white"/>
</mask>
<g mask="url(#mask3_3932_58382)">
<mask id="mask4_3932_58382" style="mask-type:luminance" maskUnits="userSpaceOnUse" x="0" y="0" width="448" height="512">
<path d="M448 0H0V512H448V0Z" fill="white"/>
</mask>
<g mask="url(#mask4_3932_58382)">
<mask id="mask5_3932_58382" style="mask-type:luminance" maskUnits="userSpaceOnUse" x="0" y="0" width="448" height="512">
<path d="M448 0H0V512H448V0Z" fill="white"/>
</mask>
<g mask="url(#mask5_3932_58382)">
<mask id="mask6_3932_58382" style="mask-type:luminance" maskUnits="userSpaceOnUse" x="0" y="0" width="448" height="512">
<path d="M448 0H0V512H448V0Z" fill="white"/>
</mask>
<g mask="url(#mask6_3932_58382)">
<mask id="mask7_3932_58382" style="mask-type:luminance" maskUnits="userSpaceOnUse" x="0" y="0" width="448" height="512">
<path d="M448 0H0V512H448V0Z" fill="white"/>
</mask>
<g mask="url(#mask7_3932_58382)">
<mask id="mask8_3932_58382" style="mask-type:luminance" maskUnits="userSpaceOnUse" x="0" y="0" width="448" height="512">
<path d="M448 0H0V512H448V0Z" fill="white"/>
</mask>
<g mask="url(#mask8_3932_58382)">
<mask id="mask9_3932_58382" style="mask-type:luminance" maskUnits="userSpaceOnUse" x="0" y="0" width="448" height="512">
<path d="M448 0H0V512H448V0Z" fill="white"/>
</mask>
<g mask="url(#mask9_3932_58382)">
<mask id="mask10_3932_58382" style="mask-type:luminance" maskUnits="userSpaceOnUse" x="0" y="0" width="448" height="512">
<path d="M448 0H0V512H448V0Z" fill="white"/>
</mask>
<g mask="url(#mask10_3932_58382)">
<mask id="mask11_3932_58382" style="mask-type:luminance" maskUnits="userSpaceOnUse" x="0" y="0" width="448" height="512">
<path d="M448 0H0V512H448V0Z" fill="white"/>
</mask>
<g mask="url(#mask11_3932_58382)">
<mask id="mask12_3932_58382" style="mask-type:luminance" maskUnits="userSpaceOnUse" x="0" y="0" width="448" height="512">
<path d="M448 0H0V512H448V0Z" fill="white"/>
</mask>
<g mask="url(#mask12_3932_58382)">
<mask id="mask13_3932_58382" style="mask-type:luminance" maskUnits="userSpaceOnUse" x="0" y="0" width="448" height="512">
<path d="M448 0H0V512H448V0Z" fill="white"/>
</mask>
<g mask="url(#mask13_3932_58382)">
<path d="M438.6 150.597C451.1 138.097 451.1 117.797 438.6 105.297L342.6 9.29688C330.1 -3.20312 309.8 -3.20312 297.3 9.29688C284.8 21.7969 284.8 42.0969 297.3 54.5969L338.7 95.9969H32C14.3 95.9969 0 110.297 0 127.997C0 145.697 14.3 159.997 32 159.997H338.7L297.3 201.397C284.8 213.897 284.8 234.197 297.3 246.697C309.8 259.197 330.1 259.197 342.6 246.697L438.6 150.697V150.597ZM105.3 502.597C117.8 515.097 138.1 515.097 150.6 502.597C163.1 490.097 163.1 469.797 150.6 457.297L109.3 415.997H416C433.7 415.997 448 401.697 448 383.997C448 366.297 433.7 351.997 416 351.997H109.3L150.7 310.597C163.2 298.097 163.2 277.797 150.7 265.297C138.2 252.797 117.9 252.797 105.4 265.297L9.4 361.297C-3.1 373.797 -3.1 394.097 9.4 406.597L105.4 502.597H105.3Z" fill="black"/>
</g>
</g>
</g>
</g>
</g>
</g>
</g>
</g>
</g>
</g>
</g>
</g>
</g>
</g>
</g>
<defs>
<clipPath id="clip0_3932_58382">
<rect width="448" height="512" fill="white"/>
</clipPath>
</defs>
</svg>
