<svg width="576" height="512" viewBox="0 0 576 512" fill="none" xmlns="http://www.w3.org/2000/svg">
<path d="M450.7 38.0049C442.4 32.0049 431.6 30.3049 421.9 33.6049L373.9 49.6049C357.1 55.2049 348.1 73.3049 353.7 90.1049C359.3 106.905 377.4 115.905 394.2 110.305L400.1 108.305V160.005H384C366.3 160.005 352 174.305 352 192.005C352 209.705 366.3 224.005 384 224.005H432H480C497.7 224.005 512 209.705 512 192.005C512 174.305 497.7 160.005 480 160.005H464V64.0049C464 53.7049 459.1 44.1049 450.7 38.0049ZM160 480.005C169 480.005 177.5 476.205 183.6 469.605L271.6 373.605C283.5 360.605 282.7 340.305 269.6 328.405C256.5 316.505 236.3 317.305 224.4 330.405L192 365.705V64.0049C192 46.3049 177.7 32.0049 160 32.0049C142.3 32.0049 128 46.3049 128 64.0049V365.705L95.6004 330.405C83.7004 317.405 63.4004 316.505 50.4004 328.405C37.4004 340.305 36.5004 360.605 48.4004 373.605L136.4 469.605C142.5 476.205 151 480.005 160 480.005ZM418.3 307.005C422.102 305.206 426.221 304.173 430.422 303.966C434.623 303.759 438.823 304.381 442.784 305.797C446.744 307.213 450.387 309.395 453.504 312.219C456.621 315.043 459.151 318.453 460.95 322.255C462.75 326.057 463.782 330.176 463.989 334.376C464.197 338.577 463.575 342.778 462.159 346.738C460.742 350.699 458.56 354.341 455.736 357.459C452.912 360.576 449.502 363.106 445.7 364.905C441.899 366.704 437.78 367.737 433.579 367.944C429.378 368.151 425.177 367.529 421.217 366.113C417.257 364.697 413.614 362.515 410.497 359.691C407.38 356.867 404.849 353.457 403.05 349.655C401.251 345.853 400.219 341.734 400.011 337.533C399.804 333.333 400.426 329.132 401.842 325.172C403.258 321.211 405.441 317.568 408.265 314.451C411.088 311.334 414.499 308.804 418.3 307.005ZM405.1 419.805L398.3 429.005C387.8 443.205 390.8 463.205 405 473.805C419.2 484.405 439.2 481.305 449.8 467.105L498.6 401.305C512.6 382.405 520.1 359.605 520.1 336.105C520.1 287.505 480.7 248.105 432.1 248.105C383.5 248.105 344.1 287.505 344.1 336.105C344.1 375.305 369.7 408.505 405.2 419.905L405.1 419.805Z" fill="black"/>
</svg>
