<svg width="576" height="512" viewBox="0 0 576 512" fill="none" xmlns="http://www.w3.org/2000/svg">
<g clip-path="url(#clip0_3932_1016)">
<mask id="mask0_3932_1016" style="mask-type:luminance" maskUnits="userSpaceOnUse" x="0" y="0" width="576" height="512">
<path d="M576 0H0V512H576V0Z" fill="white"/>
</mask>
<g mask="url(#mask0_3932_1016)">
<mask id="mask1_3932_1016" style="mask-type:luminance" maskUnits="userSpaceOnUse" x="0" y="0" width="576" height="512">
<path d="M576 0H0V512H576V0Z" fill="white"/>
</mask>
<g mask="url(#mask1_3932_1016)">
<mask id="mask2_3932_1016" style="mask-type:luminance" maskUnits="userSpaceOnUse" x="0" y="0" width="576" height="512">
<path d="M576 0H0V512H576V0Z" fill="white"/>
</mask>
<g mask="url(#mask2_3932_1016)">
<mask id="mask3_3932_1016" style="mask-type:luminance" maskUnits="userSpaceOnUse" x="0" y="0" width="576" height="512">
<path d="M576 0H0V512H576V0Z" fill="white"/>
</mask>
<g mask="url(#mask3_3932_1016)">
<mask id="mask4_3932_1016" style="mask-type:luminance" maskUnits="userSpaceOnUse" x="0" y="0" width="576" height="512">
<path d="M576 0H0V512H576V0Z" fill="white"/>
</mask>
<g mask="url(#mask4_3932_1016)">
<mask id="mask5_3932_1016" style="mask-type:luminance" maskUnits="userSpaceOnUse" x="0" y="0" width="576" height="512">
<path d="M576 0H0V512H576V0Z" fill="white"/>
</mask>
<g mask="url(#mask5_3932_1016)">
<mask id="mask6_3932_1016" style="mask-type:luminance" maskUnits="userSpaceOnUse" x="0" y="0" width="576" height="512">
<path d="M576 0H0V512H576V0Z" fill="white"/>
</mask>
<g mask="url(#mask6_3932_1016)">
<mask id="mask7_3932_1016" style="mask-type:luminance" maskUnits="userSpaceOnUse" x="0" y="0" width="576" height="512">
<path d="M576 0H0V512H576V0Z" fill="white"/>
</mask>
<g mask="url(#mask7_3932_1016)">
<mask id="mask8_3932_1016" style="mask-type:luminance" maskUnits="userSpaceOnUse" x="0" y="0" width="576" height="512">
<path d="M576 0H0V512H576V0Z" fill="white"/>
</mask>
<g mask="url(#mask8_3932_1016)">
<mask id="mask9_3932_1016" style="mask-type:luminance" maskUnits="userSpaceOnUse" x="0" y="0" width="576" height="512">
<path d="M576 0H0V512H576V0Z" fill="white"/>
</mask>
<g mask="url(#mask9_3932_1016)">
<mask id="mask10_3932_1016" style="mask-type:luminance" maskUnits="userSpaceOnUse" x="0" y="0" width="576" height="512">
<path d="M576 0H0V512H576V0Z" fill="white"/>
</mask>
<g mask="url(#mask10_3932_1016)">
<mask id="mask11_3932_1016" style="mask-type:luminance" maskUnits="userSpaceOnUse" x="0" y="0" width="576" height="512">
<path d="M576 0H0V512H576V0Z" fill="white"/>
</mask>
<g mask="url(#mask11_3932_1016)">
<mask id="mask12_3932_1016" style="mask-type:luminance" maskUnits="userSpaceOnUse" x="0" y="0" width="576" height="512">
<path d="M576 0H0V512H576V0Z" fill="white"/>
</mask>
<g mask="url(#mask12_3932_1016)">
<mask id="mask13_3932_1016" style="mask-type:luminance" maskUnits="userSpaceOnUse" x="0" y="0" width="576" height="512">
<path d="M576 0H0V512H576V0Z" fill="white"/>
</mask>
<g mask="url(#mask13_3932_1016)">
<path d="M112 0C85.5 0 64 21.5 64 48V256H48C21.5 256 0 277.5 0 304V400C0 408 2 415.6 5.4 422.2C9.2 420.5 13.2 419.1 17.4 418.1C30.5 415 44.1 408.3 54.7 399.5C76.9 380.8 109 379.4 132.8 396.1C150.8 408.5 172.9 416.4 192 416.4C213.1 416.4 234 407.9 251.2 396.1C273.3 380.6 302.8 380.6 324.9 396.1C343.3 408.8 364.5 416.4 384.1 416.4C403.1 416.4 425.3 408.5 443.3 396.1C467.1 379.4 499.1 380.8 521.4 399.5C532 408.3 545.6 415.1 558.7 418.1C562.9 419.1 566.9 420.5 570.7 422.2C574 415.6 576 408 576 400V304C576 277.5 554.5 256 528 256H480V109.3L505.4 134.7C517.9 147.2 538.2 147.2 550.7 134.7C563.2 122.2 563.2 101.9 550.7 89.4L470.7 9.4C458.2 -3.1 437.9 -3.1 425.4 9.4L345.4 89.4C332.9 101.9 332.9 122.2 345.4 134.7C357.9 147.2 378.2 147.2 390.7 134.7L416 109.3V256H288V48C288 21.5 266.5 0 240 0H112ZM306.5 421.9C295.4 414 280.6 414 269.5 421.9C247 437.4 219.5 448 192 448C165.1 448 136.7 437.2 114.6 421.9C102.7 413.4 86.5 414.1 75.4 423.6C61 435.5 42.9 444.6 24.8 448.8C7.6 452.8 -3.1 470 0.9 487.2C4.9 504.4 22.1 515.1 39.3 511.1C63.8 505.4 84.2 494.6 97.5 486.1C126.5 501.7 159 512 192 512C223.9 512 252.6 502.1 272.4 493.1C278.2 490.4 283.5 487.8 288 485.4C292.5 487.8 297.7 490.5 303.6 493.1C323.4 502.1 352.1 512 384 512C417 512 449.5 501.7 478.5 486.2C491.9 494.6 512.2 505.5 536.7 511.2C553.9 515.2 571.1 504.5 575.1 487.3C579.1 470.1 568.4 452.9 551.2 448.9C533.1 444.7 515 435.6 500.6 423.7C489.5 414.3 473.3 413.6 461.4 422C439.4 437.2 410.9 448 384 448C356.5 448 329 437.4 306.5 421.9Z" fill="black"/>
</g>
</g>
</g>
</g>
</g>
</g>
</g>
</g>
</g>
</g>
</g>
</g>
</g>
</g>
</g>
<defs>
<clipPath id="clip0_3932_1016">
<rect width="576" height="512" fill="white"/>
</clipPath>
</defs>
</svg>
