<svg width="576" height="512" viewBox="0 0 576 512" fill="none" xmlns="http://www.w3.org/2000/svg">
<path d="M450.7 38C459 44 464 53.7 464 64V160H480C497.7 160 512 174.3 512 192C512 209.7 497.7 224 480 224H432H384C366.3 224 352 209.7 352 192C352 174.3 366.3 160 384 160H400V108.4L394.1 110.4C377.3 116 359.2 106.9 353.6 90.2C348 73.5 357.1 55.3 373.8 49.7L421.8 33.7C431.6 30.4 442.3 32.1 450.6 38.1L450.7 38ZM160 32C169 32 177.5 35.8 183.6 42.4L271.6 138.4C283.5 151.4 282.7 171.7 269.6 183.6C256.5 195.5 236.3 194.7 224.4 181.6L192 146.3V448C192 465.7 177.7 480 160 480C142.3 480 128 465.7 128 448V146.3L95.6004 181.6C83.7004 194.6 63.4004 195.5 50.4004 183.6C37.4004 171.7 36.5004 151.4 48.4004 138.4L136.4 42.4C142.5 35.8 151 32 160 32ZM445.7 364.9C449.502 363.101 452.912 360.571 455.736 357.454C458.56 354.337 460.742 350.694 462.159 346.733C463.575 342.773 464.197 338.572 463.989 334.372C463.782 330.171 462.75 326.052 460.95 322.25C459.151 318.448 456.621 315.038 453.504 312.214C450.387 309.39 446.744 307.208 442.784 305.792C438.823 304.376 434.623 303.754 430.422 303.961C426.221 304.168 422.102 305.201 418.3 307C414.499 308.799 411.088 311.329 408.265 314.446C405.441 317.563 403.258 321.206 401.842 325.167C400.426 329.127 399.804 333.328 400.011 337.528C400.219 341.729 401.251 345.848 403.05 349.65C404.849 353.452 407.38 356.862 410.497 359.686C413.614 362.51 417.257 364.692 421.217 366.108C425.177 367.524 429.378 368.146 433.579 367.939C437.78 367.732 441.899 366.699 445.7 364.9ZM405 419.8C369.6 408.4 344 375.2 344 336C344 287.4 383.4 248 432 248C480.6 248 520 287.4 520 336C520 359.5 512.5 382.3 498.5 401.2L449.7 467C439.2 481.2 419.1 484.2 404.9 473.7C390.7 463.2 387.7 443.1 398.2 428.9L405 419.7V419.8Z" fill="black"/>
</svg>
