<svg width="384" height="512" viewBox="0 0 384 512" fill="none" xmlns="http://www.w3.org/2000/svg">
<g clip-path="url(#clip0_3932_1074)">
<mask id="mask0_3932_1074" style="mask-type:luminance" maskUnits="userSpaceOnUse" x="0" y="0" width="384" height="512">
<path d="M384 0H0V512H384V0Z" fill="white"/>
</mask>
<g mask="url(#mask0_3932_1074)">
<mask id="mask1_3932_1074" style="mask-type:luminance" maskUnits="userSpaceOnUse" x="0" y="0" width="384" height="512">
<path d="M384 0H0V512H384V0Z" fill="white"/>
</mask>
<g mask="url(#mask1_3932_1074)">
<mask id="mask2_3932_1074" style="mask-type:luminance" maskUnits="userSpaceOnUse" x="0" y="0" width="384" height="512">
<path d="M384 0H0V512H384V0Z" fill="white"/>
</mask>
<g mask="url(#mask2_3932_1074)">
<mask id="mask3_3932_1074" style="mask-type:luminance" maskUnits="userSpaceOnUse" x="0" y="0" width="384" height="512">
<path d="M384 0H0V512H384V0Z" fill="white"/>
</mask>
<g mask="url(#mask3_3932_1074)">
<mask id="mask4_3932_1074" style="mask-type:luminance" maskUnits="userSpaceOnUse" x="0" y="0" width="384" height="512">
<path d="M384 0H0V512H384V0Z" fill="white"/>
</mask>
<g mask="url(#mask4_3932_1074)">
<mask id="mask5_3932_1074" style="mask-type:luminance" maskUnits="userSpaceOnUse" x="0" y="0" width="384" height="512">
<path d="M384 0H0V512H384V0Z" fill="white"/>
</mask>
<g mask="url(#mask5_3932_1074)">
<mask id="mask6_3932_1074" style="mask-type:luminance" maskUnits="userSpaceOnUse" x="0" y="0" width="384" height="512">
<path d="M384 0H0V512H384V0Z" fill="white"/>
</mask>
<g mask="url(#mask6_3932_1074)">
<mask id="mask7_3932_1074" style="mask-type:luminance" maskUnits="userSpaceOnUse" x="0" y="0" width="384" height="512">
<path d="M384 0H0V512H384V0Z" fill="white"/>
</mask>
<g mask="url(#mask7_3932_1074)">
<mask id="mask8_3932_1074" style="mask-type:luminance" maskUnits="userSpaceOnUse" x="0" y="0" width="384" height="512">
<path d="M384 0H0V512H384V0Z" fill="white"/>
</mask>
<g mask="url(#mask8_3932_1074)">
<mask id="mask9_3932_1074" style="mask-type:luminance" maskUnits="userSpaceOnUse" x="0" y="0" width="384" height="512">
<path d="M384 0H0V512H384V0Z" fill="white"/>
</mask>
<g mask="url(#mask9_3932_1074)">
<mask id="mask10_3932_1074" style="mask-type:luminance" maskUnits="userSpaceOnUse" x="0" y="0" width="384" height="512">
<path d="M384 0H0V512H384V0Z" fill="white"/>
</mask>
<g mask="url(#mask10_3932_1074)">
<mask id="mask11_3932_1074" style="mask-type:luminance" maskUnits="userSpaceOnUse" x="0" y="0" width="384" height="512">
<path d="M384 0H0V512H384V0Z" fill="white"/>
</mask>
<g mask="url(#mask11_3932_1074)">
<mask id="mask12_3932_1074" style="mask-type:luminance" maskUnits="userSpaceOnUse" x="0" y="0" width="384" height="512">
<path d="M384 0H0V512H384V0Z" fill="white"/>
</mask>
<g mask="url(#mask12_3932_1074)">
<mask id="mask13_3932_1074" style="mask-type:luminance" maskUnits="userSpaceOnUse" x="0" y="0" width="384" height="512">
<path d="M384 0H0V512H384V0Z" fill="white"/>
</mask>
<g mask="url(#mask13_3932_1074)">
<path d="M214.597 9.39844C202.097 -3.10156 181.797 -3.10156 169.297 9.39844L41.2969 137.398C28.7969 149.898 28.7969 170.198 41.2969 182.698C53.7969 195.198 74.0969 195.198 86.5969 182.698L159.997 109.298V479.998C159.997 497.698 174.297 511.998 191.997 511.998C209.697 511.998 223.997 497.698 223.997 479.998V109.298L297.397 182.698C309.897 195.198 330.197 195.198 342.697 182.698C355.197 170.198 355.197 149.898 342.697 137.398L214.697 9.39844H214.597Z" fill="black"/>
</g>
</g>
</g>
</g>
</g>
</g>
</g>
</g>
</g>
</g>
</g>
</g>
</g>
</g>
</g>
<defs>
<clipPath id="clip0_3932_1074">
<rect width="384" height="512" fill="white"/>
</clipPath>
</defs>
</svg>
