<svg width="576" height="512" viewBox="0 0 576 512" fill="none" xmlns="http://www.w3.org/2000/svg">
<path d="M183.597 42.4C177.497 35.8 168.997 32 159.997 32C150.997 32 142.497 35.8 136.397 42.4L48.3966 138.4C36.4966 151.4 37.2966 171.7 50.3966 183.6C63.4966 195.5 83.6966 194.7 95.5966 181.6L127.997 146.3V448C127.997 465.7 142.297 480 159.997 480C177.697 480 191.997 465.7 191.997 448V146.3L224.397 181.7C236.297 194.7 256.597 195.6 269.597 183.7C282.597 171.8 283.497 151.5 271.597 138.5L183.597 42.5V42.4ZM319.997 64C319.997 81.7 334.297 96 351.997 96H402.697L329.297 169.4C320.097 178.6 317.397 192.3 322.397 204.3C327.397 216.3 338.997 224.1 351.997 224.1H479.997C497.697 224.1 511.997 209.8 511.997 192.1C511.997 174.4 497.697 160.1 479.997 160.1H429.297L502.697 86.7C511.897 77.5 514.597 63.8 509.597 51.8C504.597 39.8 492.997 32 479.997 32H351.997C334.297 32 319.997 46.3 319.997 64ZM415.997 256C403.897 256 392.797 262.8 387.397 273.7L323.397 401.7L307.397 433.7C299.497 449.5 305.897 468.7 321.697 476.6C337.497 484.5 356.697 478.1 364.597 462.3L371.797 448H460.197L467.397 462.3C475.297 478.1 494.497 484.5 510.297 476.6C526.097 468.7 532.497 449.5 524.597 433.7L508.597 401.7L444.597 273.7C439.197 262.8 428.097 256 415.997 256ZM395.797 400L415.997 359.6L436.197 400H395.797Z" fill="black"/>
</svg>
