<svg width="576" height="512" viewBox="0 0 576 512" fill="none" xmlns="http://www.w3.org/2000/svg">
<g clip-path="url(#clip0_3932_1306)">
<mask id="mask0_3932_1306" style="mask-type:luminance" maskUnits="userSpaceOnUse" x="0" y="0" width="576" height="512">
<path d="M576 0H0V512H576V0Z" fill="white"/>
</mask>
<g mask="url(#mask0_3932_1306)">
<mask id="mask1_3932_1306" style="mask-type:luminance" maskUnits="userSpaceOnUse" x="0" y="0" width="576" height="512">
<path d="M576 0H0V512H576V0Z" fill="white"/>
</mask>
<g mask="url(#mask1_3932_1306)">
<mask id="mask2_3932_1306" style="mask-type:luminance" maskUnits="userSpaceOnUse" x="0" y="0" width="576" height="512">
<path d="M576 0H0V512H576V0Z" fill="white"/>
</mask>
<g mask="url(#mask2_3932_1306)">
<mask id="mask3_3932_1306" style="mask-type:luminance" maskUnits="userSpaceOnUse" x="0" y="0" width="576" height="512">
<path d="M576 0H0V512H576V0Z" fill="white"/>
</mask>
<g mask="url(#mask3_3932_1306)">
<mask id="mask4_3932_1306" style="mask-type:luminance" maskUnits="userSpaceOnUse" x="0" y="0" width="576" height="512">
<path d="M576 0H0V512H576V0Z" fill="white"/>
</mask>
<g mask="url(#mask4_3932_1306)">
<mask id="mask5_3932_1306" style="mask-type:luminance" maskUnits="userSpaceOnUse" x="0" y="0" width="576" height="512">
<path d="M576 0H0V512H576V0Z" fill="white"/>
</mask>
<g mask="url(#mask5_3932_1306)">
<mask id="mask6_3932_1306" style="mask-type:luminance" maskUnits="userSpaceOnUse" x="0" y="0" width="576" height="512">
<path d="M576 0H0V512H576V0Z" fill="white"/>
</mask>
<g mask="url(#mask6_3932_1306)">
<mask id="mask7_3932_1306" style="mask-type:luminance" maskUnits="userSpaceOnUse" x="0" y="0" width="576" height="512">
<path d="M576 0H0V512H576V0Z" fill="white"/>
</mask>
<g mask="url(#mask7_3932_1306)">
<mask id="mask8_3932_1306" style="mask-type:luminance" maskUnits="userSpaceOnUse" x="0" y="0" width="576" height="512">
<path d="M576 0H0V512H576V0Z" fill="white"/>
</mask>
<g mask="url(#mask8_3932_1306)">
<mask id="mask9_3932_1306" style="mask-type:luminance" maskUnits="userSpaceOnUse" x="0" y="0" width="576" height="512">
<path d="M576 0H0V512H576V0Z" fill="white"/>
</mask>
<g mask="url(#mask9_3932_1306)">
<mask id="mask10_3932_1306" style="mask-type:luminance" maskUnits="userSpaceOnUse" x="0" y="0" width="576" height="512">
<path d="M576 0H0V512H576V0Z" fill="white"/>
</mask>
<g mask="url(#mask10_3932_1306)">
<mask id="mask11_3932_1306" style="mask-type:luminance" maskUnits="userSpaceOnUse" x="0" y="0" width="576" height="512">
<path d="M576 0H0V512H576V0Z" fill="white"/>
</mask>
<g mask="url(#mask11_3932_1306)">
<mask id="mask12_3932_1306" style="mask-type:luminance" maskUnits="userSpaceOnUse" x="0" y="0" width="576" height="512">
<path d="M576 0H0V512H576V0Z" fill="white"/>
</mask>
<g mask="url(#mask12_3932_1306)">
<mask id="mask13_3932_1306" style="mask-type:luminance" maskUnits="userSpaceOnUse" x="0" y="0" width="576" height="512">
<path d="M576 0H0V512H576V0Z" fill="white"/>
</mask>
<g mask="url(#mask13_3932_1306)">
<path d="M151.597 42.4C145.497 35.8 136.997 32 127.997 32C118.997 32 110.497 35.8 104.397 42.4L16.3966 138.4C4.49657 151.4 5.29657 171.7 18.3966 183.6C31.4966 195.5 51.6966 194.7 63.5966 181.6L95.9966 146.3V448C95.9966 465.7 110.297 480 127.997 480C145.697 480 159.997 465.7 159.997 448V146.3L192.397 181.7C204.297 194.7 224.597 195.6 237.597 183.7C250.597 171.8 251.497 151.5 239.597 138.5L151.597 42.5V42.4ZM319.997 480H351.997C369.697 480 383.997 465.7 383.997 448C383.997 430.3 369.697 416 351.997 416H319.997C302.297 416 287.997 430.3 287.997 448C287.997 465.7 302.297 480 319.997 480ZM319.997 352H415.997C433.697 352 447.997 337.7 447.997 320C447.997 302.3 433.697 288 415.997 288H319.997C302.297 288 287.997 302.3 287.997 320C287.997 337.7 302.297 352 319.997 352ZM319.997 224H479.997C497.697 224 511.997 209.7 511.997 192C511.997 174.3 497.697 160 479.997 160H319.997C302.297 160 287.997 174.3 287.997 192C287.997 209.7 302.297 224 319.997 224ZM319.997 96H543.997C561.697 96 575.997 81.7 575.997 64C575.997 46.3 561.697 32 543.997 32H319.997C302.297 32 287.997 46.3 287.997 64C287.997 81.7 302.297 96 319.997 96Z" fill="black"/>
</g>
</g>
</g>
</g>
</g>
</g>
</g>
</g>
</g>
</g>
</g>
</g>
</g>
</g>
</g>
<defs>
<clipPath id="clip0_3932_1306">
<rect width="576" height="512" fill="white"/>
</clipPath>
</defs>
</svg>
