<svg width="576" height="512" viewBox="0 0 576 512" fill="none" xmlns="http://www.w3.org/2000/svg">
<path d="M183.597 469.6C177.497 476.2 168.997 480 159.997 480C150.997 480 142.497 476.2 136.397 469.6L48.3966 373.6C36.4966 360.6 37.2966 340.3 50.3966 328.4C63.4966 316.5 83.6966 317.3 95.5966 330.4L127.997 365.7V64C127.997 46.3 142.297 32 159.997 32C177.697 32 191.997 46.3 191.997 64V365.7L224.397 330.3C236.297 317.3 256.597 316.4 269.597 328.3C282.597 340.2 283.497 360.5 271.597 373.5L183.597 469.5V469.6ZM319.997 320C319.997 302.3 334.297 288 351.997 288H479.997C492.897 288 504.597 295.8 509.597 307.8C514.597 319.8 511.797 333.5 502.697 342.7L429.297 416H479.997C497.697 416 511.997 430.3 511.997 448C511.997 465.7 497.697 480 479.997 480H351.997C339.097 480 327.397 472.2 322.397 460.2C317.397 448.2 320.197 434.5 329.297 425.3L402.697 352H351.997C334.297 352 319.997 337.7 319.997 320ZM415.997 32C428.097 32 439.197 38.8 444.597 49.7L508.597 177.7L524.597 209.7C532.497 225.5 526.097 244.7 510.297 252.6C494.497 260.5 475.297 254.1 467.397 238.3L460.197 224H371.797L364.597 238.3C356.697 254.1 337.497 260.5 321.697 252.6C305.897 244.7 299.497 225.5 307.397 209.7L323.397 177.7L387.397 49.7C392.797 38.8 403.897 32 415.997 32ZM395.797 176H436.197L415.997 135.6L395.797 176Z" fill="black"/>
</svg>
