<svg width="576" height="512" viewBox="0 0 576 512" fill="none" xmlns="http://www.w3.org/2000/svg">
<path d="M183.604 469.6C177.504 476.2 169.004 480 160.004 480C151.004 480 142.504 476.2 136.404 469.6L48.4044 373.6C36.5044 360.6 37.3044 340.3 50.4044 328.4C63.5044 316.5 83.7044 317.3 95.6044 330.4L128.004 365.7V64C128.004 46.3 142.304 32 160.004 32C177.704 32 192.004 46.3 192.004 64V365.7L224.404 330.3C236.304 317.3 256.604 316.4 269.604 328.3C282.604 340.2 283.504 360.5 271.604 373.5L183.604 469.5V469.6ZM320.004 64C320.004 46.3 334.304 32 352.004 32H480.004C492.904 32 504.604 39.8 509.604 51.8C514.604 63.8 511.805 77.5 502.705 86.7L429.304 160H480.004C497.705 160 512.004 174.3 512.004 192C512.004 209.7 497.705 224 480.004 224H352.004C339.104 224 327.404 216.2 322.404 204.2C317.404 192.2 320.204 178.5 329.304 169.3L402.705 96H352.004C334.304 96 320.004 81.7 320.004 64ZM416.004 256C428.104 256 439.205 262.8 444.604 273.7L508.604 401.7L524.604 433.7C532.504 449.5 526.104 468.7 510.304 476.6C494.504 484.5 475.304 478.1 467.404 462.3L460.205 448H371.804L364.604 462.3C356.705 478.1 337.504 484.5 321.705 476.6C305.905 468.7 299.504 449.5 307.404 433.7L323.404 401.7L387.404 273.7C392.804 262.9 403.904 256 416.004 256ZM395.804 400H436.205L416.004 359.6L395.804 400Z" fill="black"/>
</svg>
