<svg width="448" height="512" viewBox="0 0 448 512" fill="none" xmlns="http://www.w3.org/2000/svg">
<g clip-path="url(#clip0_3932_370)">
<mask id="mask0_3932_370" style="mask-type:luminance" maskUnits="userSpaceOnUse" x="0" y="0" width="448" height="512">
<path d="M448 0H0V512H448V0Z" fill="white"/>
</mask>
<g mask="url(#mask0_3932_370)">
<mask id="mask1_3932_370" style="mask-type:luminance" maskUnits="userSpaceOnUse" x="0" y="0" width="448" height="512">
<path d="M448 0H0V512H448V0Z" fill="white"/>
</mask>
<g mask="url(#mask1_3932_370)">
<mask id="mask2_3932_370" style="mask-type:luminance" maskUnits="userSpaceOnUse" x="0" y="0" width="448" height="512">
<path d="M448 0H0V512H448V0Z" fill="white"/>
</mask>
<g mask="url(#mask2_3932_370)">
<mask id="mask3_3932_370" style="mask-type:luminance" maskUnits="userSpaceOnUse" x="0" y="0" width="448" height="512">
<path d="M448 0H0V512H448V0Z" fill="white"/>
</mask>
<g mask="url(#mask3_3932_370)">
<mask id="mask4_3932_370" style="mask-type:luminance" maskUnits="userSpaceOnUse" x="0" y="0" width="448" height="512">
<path d="M448 0H0V512H448V0Z" fill="white"/>
</mask>
<g mask="url(#mask4_3932_370)">
<mask id="mask5_3932_370" style="mask-type:luminance" maskUnits="userSpaceOnUse" x="0" y="0" width="448" height="512">
<path d="M448 0H0V512H448V0Z" fill="white"/>
</mask>
<g mask="url(#mask5_3932_370)">
<mask id="mask6_3932_370" style="mask-type:luminance" maskUnits="userSpaceOnUse" x="0" y="0" width="448" height="512">
<path d="M448 0H0V512H448V0Z" fill="white"/>
</mask>
<g mask="url(#mask6_3932_370)">
<mask id="mask7_3932_370" style="mask-type:luminance" maskUnits="userSpaceOnUse" x="0" y="0" width="448" height="512">
<path d="M448 0H0V512H448V0Z" fill="white"/>
</mask>
<g mask="url(#mask7_3932_370)">
<mask id="mask8_3932_370" style="mask-type:luminance" maskUnits="userSpaceOnUse" x="0" y="0" width="448" height="512">
<path d="M448 0H0V512H448V0Z" fill="white"/>
</mask>
<g mask="url(#mask8_3932_370)">
<mask id="mask9_3932_370" style="mask-type:luminance" maskUnits="userSpaceOnUse" x="0" y="0" width="448" height="512">
<path d="M448 0H0V512H448V0Z" fill="white"/>
</mask>
<g mask="url(#mask9_3932_370)">
<mask id="mask10_3932_370" style="mask-type:luminance" maskUnits="userSpaceOnUse" x="0" y="0" width="448" height="512">
<path d="M448 0H0V512H448V0Z" fill="white"/>
</mask>
<g mask="url(#mask10_3932_370)">
<mask id="mask11_3932_370" style="mask-type:luminance" maskUnits="userSpaceOnUse" x="0" y="0" width="448" height="512">
<path d="M448 0H0V512H448V0Z" fill="white"/>
</mask>
<g mask="url(#mask11_3932_370)">
<mask id="mask12_3932_370" style="mask-type:luminance" maskUnits="userSpaceOnUse" x="0" y="0" width="448" height="512">
<path d="M448 0H0V512H448V0Z" fill="white"/>
</mask>
<g mask="url(#mask12_3932_370)">
<mask id="mask13_3932_370" style="mask-type:luminance" maskUnits="userSpaceOnUse" x="0" y="0" width="448" height="512">
<path d="M448 0H0V512H448V0Z" fill="white"/>
</mask>
<g mask="url(#mask13_3932_370)">
<path d="M297.4 9.39844C309.9 -3.10156 330.2 -3.10156 342.7 9.39844L438.7 105.398C451.2 117.898 451.2 138.198 438.7 150.698L342.7 246.698C330.2 259.198 309.9 259.198 297.4 246.698C284.9 234.198 284.9 213.898 297.4 201.398L338.7 159.998H128C92.7 159.998 64 188.698 64 223.998V255.998C64 273.698 49.7 287.998 32 287.998C14.3 287.998 0 273.698 0 255.998V223.998C0 153.298 57.3 95.9984 128 95.9984H338.7L297.4 54.5984C284.9 42.0984 284.9 21.7984 297.4 9.29844V9.39844ZM201.4 265.398C213.9 252.898 234.2 252.898 246.7 265.398L342.7 361.398C355.2 373.898 355.2 394.198 342.7 406.698L246.7 502.698C234.2 515.198 213.9 515.198 201.4 502.698C188.9 490.198 188.9 469.898 201.4 457.398L242.7 415.998H96C78.3 415.998 64 430.298 64 447.998V479.998C64 497.698 49.7 511.998 32 511.998C14.3 511.998 0 497.698 0 479.998V447.998C0 394.998 43 351.998 96 351.998H242.7L201.3 310.598C188.8 298.098 188.8 277.798 201.3 265.298L201.4 265.398Z" fill="black"/>
</g>
</g>
</g>
</g>
</g>
</g>
</g>
</g>
</g>
</g>
</g>
</g>
</g>
</g>
</g>
<defs>
<clipPath id="clip0_3932_370">
<rect width="448" height="512" fill="white"/>
</clipPath>
</defs>
</svg>
