<svg width="384" height="512" viewBox="0 0 384 512" fill="none" xmlns="http://www.w3.org/2000/svg">
<g clip-path="url(#clip0_3932_1368)">
<mask id="mask0_3932_1368" style="mask-type:luminance" maskUnits="userSpaceOnUse" x="0" y="0" width="384" height="512">
<path d="M384 0H0V512H384V0Z" fill="white"/>
</mask>
<g mask="url(#mask0_3932_1368)">
<mask id="mask1_3932_1368" style="mask-type:luminance" maskUnits="userSpaceOnUse" x="0" y="0" width="384" height="512">
<path d="M384 0H0V512H384V0Z" fill="white"/>
</mask>
<g mask="url(#mask1_3932_1368)">
<mask id="mask2_3932_1368" style="mask-type:luminance" maskUnits="userSpaceOnUse" x="0" y="0" width="384" height="512">
<path d="M384 0H0V512H384V0Z" fill="white"/>
</mask>
<g mask="url(#mask2_3932_1368)">
<mask id="mask3_3932_1368" style="mask-type:luminance" maskUnits="userSpaceOnUse" x="0" y="0" width="384" height="512">
<path d="M384 0H0V512H384V0Z" fill="white"/>
</mask>
<g mask="url(#mask3_3932_1368)">
<mask id="mask4_3932_1368" style="mask-type:luminance" maskUnits="userSpaceOnUse" x="0" y="0" width="384" height="512">
<path d="M384 0H0V512H384V0Z" fill="white"/>
</mask>
<g mask="url(#mask4_3932_1368)">
<mask id="mask5_3932_1368" style="mask-type:luminance" maskUnits="userSpaceOnUse" x="0" y="0" width="384" height="512">
<path d="M384 0H0V512H384V0Z" fill="white"/>
</mask>
<g mask="url(#mask5_3932_1368)">
<mask id="mask6_3932_1368" style="mask-type:luminance" maskUnits="userSpaceOnUse" x="0" y="0" width="384" height="512">
<path d="M384 0H0V512H384V0Z" fill="white"/>
</mask>
<g mask="url(#mask6_3932_1368)">
<mask id="mask7_3932_1368" style="mask-type:luminance" maskUnits="userSpaceOnUse" x="0" y="0" width="384" height="512">
<path d="M384 0H0V512H384V0Z" fill="white"/>
</mask>
<g mask="url(#mask7_3932_1368)">
<mask id="mask8_3932_1368" style="mask-type:luminance" maskUnits="userSpaceOnUse" x="0" y="0" width="384" height="512">
<path d="M384 0H0V512H384V0Z" fill="white"/>
</mask>
<g mask="url(#mask8_3932_1368)">
<mask id="mask9_3932_1368" style="mask-type:luminance" maskUnits="userSpaceOnUse" x="0" y="0" width="384" height="512">
<path d="M384 0H0V512H384V0Z" fill="white"/>
</mask>
<g mask="url(#mask9_3932_1368)">
<mask id="mask10_3932_1368" style="mask-type:luminance" maskUnits="userSpaceOnUse" x="0" y="0" width="384" height="512">
<path d="M384 0H0V512H384V0Z" fill="white"/>
</mask>
<g mask="url(#mask10_3932_1368)">
<mask id="mask11_3932_1368" style="mask-type:luminance" maskUnits="userSpaceOnUse" x="0" y="0" width="384" height="512">
<path d="M384 0H0V512H384V0Z" fill="white"/>
</mask>
<g mask="url(#mask11_3932_1368)">
<mask id="mask12_3932_1368" style="mask-type:luminance" maskUnits="userSpaceOnUse" x="0" y="0" width="384" height="512">
<path d="M384 0H0V512H384V0Z" fill="white"/>
</mask>
<g mask="url(#mask12_3932_1368)">
<mask id="mask13_3932_1368" style="mask-type:luminance" maskUnits="userSpaceOnUse" x="0" y="0" width="384" height="512">
<path d="M384 0H0V512H384V0Z" fill="white"/>
</mask>
<g mask="url(#mask13_3932_1368)">
<path d="M192.002 32C209.702 32 224.002 46.3 224.002 64V199.5L335.502 132.6C350.702 123.5 370.302 128.4 379.402 143.6C388.502 158.8 383.602 178.4 368.402 187.5L254.202 256L368.502 324.6C383.702 333.7 388.602 353.3 379.502 368.5C370.402 383.7 350.802 388.6 335.602 379.5L224.002 312.5V448C224.002 465.7 209.702 480 192.002 480C174.302 480 160.002 465.7 160.002 448V312.5L48.5019 379.4C33.3019 388.5 13.7019 383.6 4.60192 368.4C-4.49808 353.2 0.401912 333.6 15.6019 324.5L129.802 256L15.5019 187.4C0.301907 178.3 -4.59808 158.7 4.50192 143.5C13.6019 128.3 33.2019 123.4 48.4019 132.5L160.002 199.5V64C160.002 46.3 174.302 32 192.002 32Z" fill="black"/>
</g>
</g>
</g>
</g>
</g>
</g>
</g>
</g>
</g>
</g>
</g>
</g>
</g>
</g>
</g>
<defs>
<clipPath id="clip0_3932_1368">
<rect width="384" height="512" fill="white"/>
</clipPath>
</defs>
</svg>
