<svg width="576" height="512" viewBox="0 0 576 512" fill="none" xmlns="http://www.w3.org/2000/svg">
<g clip-path="url(#clip0_3932_1426)">
<mask id="mask0_3932_1426" style="mask-type:luminance" maskUnits="userSpaceOnUse" x="0" y="0" width="576" height="512">
<path d="M576 0H0V512H576V0Z" fill="white"/>
</mask>
<g mask="url(#mask0_3932_1426)">
<mask id="mask1_3932_1426" style="mask-type:luminance" maskUnits="userSpaceOnUse" x="0" y="0" width="576" height="512">
<path d="M576 0H0V512H576V0Z" fill="white"/>
</mask>
<g mask="url(#mask1_3932_1426)">
<mask id="mask2_3932_1426" style="mask-type:luminance" maskUnits="userSpaceOnUse" x="0" y="0" width="576" height="512">
<path d="M576 0H0V512H576V0Z" fill="white"/>
</mask>
<g mask="url(#mask2_3932_1426)">
<mask id="mask3_3932_1426" style="mask-type:luminance" maskUnits="userSpaceOnUse" x="0" y="0" width="576" height="512">
<path d="M576 0H0V512H576V0Z" fill="white"/>
</mask>
<g mask="url(#mask3_3932_1426)">
<mask id="mask4_3932_1426" style="mask-type:luminance" maskUnits="userSpaceOnUse" x="0" y="0" width="576" height="512">
<path d="M576 0H0V512H576V0Z" fill="white"/>
</mask>
<g mask="url(#mask4_3932_1426)">
<mask id="mask5_3932_1426" style="mask-type:luminance" maskUnits="userSpaceOnUse" x="0" y="0" width="576" height="512">
<path d="M576 0H0V512H576V0Z" fill="white"/>
</mask>
<g mask="url(#mask5_3932_1426)">
<mask id="mask6_3932_1426" style="mask-type:luminance" maskUnits="userSpaceOnUse" x="0" y="0" width="576" height="512">
<path d="M576 0H0V512H576V0Z" fill="white"/>
</mask>
<g mask="url(#mask6_3932_1426)">
<mask id="mask7_3932_1426" style="mask-type:luminance" maskUnits="userSpaceOnUse" x="0" y="0" width="576" height="512">
<path d="M576 0H0V512H576V0Z" fill="white"/>
</mask>
<g mask="url(#mask7_3932_1426)">
<mask id="mask8_3932_1426" style="mask-type:luminance" maskUnits="userSpaceOnUse" x="0" y="0" width="576" height="512">
<path d="M576 0H0V512H576V0Z" fill="white"/>
</mask>
<g mask="url(#mask8_3932_1426)">
<mask id="mask9_3932_1426" style="mask-type:luminance" maskUnits="userSpaceOnUse" x="0" y="0" width="576" height="512">
<path d="M576 0H0V512H576V0Z" fill="white"/>
</mask>
<g mask="url(#mask9_3932_1426)">
<mask id="mask10_3932_1426" style="mask-type:luminance" maskUnits="userSpaceOnUse" x="0" y="0" width="576" height="512">
<path d="M576 0H0V512H576V0Z" fill="white"/>
</mask>
<g mask="url(#mask10_3932_1426)">
<mask id="mask11_3932_1426" style="mask-type:luminance" maskUnits="userSpaceOnUse" x="0" y="0" width="576" height="512">
<path d="M576 0H0V512H576V0Z" fill="white"/>
</mask>
<g mask="url(#mask11_3932_1426)">
<mask id="mask12_3932_1426" style="mask-type:luminance" maskUnits="userSpaceOnUse" x="0" y="0" width="576" height="512">
<path d="M576 0H0V512H576V0Z" fill="white"/>
</mask>
<g mask="url(#mask12_3932_1426)">
<mask id="mask13_3932_1426" style="mask-type:luminance" maskUnits="userSpaceOnUse" x="0" y="0" width="576" height="512">
<path d="M576 0H0V512H576V0Z" fill="white"/>
</mask>
<g mask="url(#mask13_3932_1426)">
<path d="M517.5 309.2C556.3 269.2 575.6 229.2 576 193.1C576.8 127.6 516.6 74.9003 406.6 58.1003C277.9 38.4003 118.1 73.6003 0 140.5C52 114 110.6 92.3003 170.7 82.3003C245.2 61.8003 323.7 56.9003 392 67.5003C544.5 91.3003 588.8 195 490.8 299.2C480.6 310 468.8 320.3 455.8 329.8L304.9 103.4L114.7 388.9C49.1 359.5 38.2 298.7 95.6 237.7C116.4 215.5 143.9 195.8 175.1 179.6C195.1 167.4 214.8 157 237.1 148.9C172 169.2 114.4 201.8 75.5 241.8C47.8 270.4 34.1 298.9 33.8 324.7C33.3 359.8 57.2 389.8 102.2 407.7L67.7 459.4H169.3L191.3 425C213.5 426 236.6 425 259.9 422.3L237.1 459.4H372.6L340 406.3C358.6 401 376.9 394.8 394.5 387.6L440.4 459.4H542L468.6 349C487.1 336.9 503.6 323.5 517.5 309.2ZM329.9 389.7L304.9 349.1L272.2 402.4C248.8 405.9 225.5 407.5 203 406.8L304.9 247.5L383.6 370.5C366.4 377.9 348.3 384.4 329.9 389.7Z" fill="black"/>
</g>
</g>
</g>
</g>
</g>
</g>
</g>
</g>
</g>
</g>
</g>
</g>
</g>
</g>
</g>
<defs>
<clipPath id="clip0_3932_1426">
<rect width="576" height="512" fill="white"/>
</clipPath>
</defs>
</svg>
