<svg width="576" height="512" viewBox="0 0 576 512" fill="none" xmlns="http://www.w3.org/2000/svg">
<path d="M64 32C28.7 32 0 60.7 0 96V416C0 451.3 28.7 480 64 480H512C547.3 480 576 451.3 576 416V96C576 60.7 547.3 32 512 32H64ZM213.5 173.3L285.5 317.3C291.4 329.2 286.6 343.6 274.8 349.5C263 355.4 248.5 350.6 242.6 338.8L233.2 319.9H150.9L141.5 338.8C135.6 350.7 121.2 355.5 109.3 349.5C97.4 343.5 92.6 329.2 98.6 317.3L170.6 173.3C174.7 165.2 183 160 192.1 160C201.2 160 209.5 165.1 213.6 173.3H213.5ZM213.1 279.9L192 237.7L170.9 279.9H213.1ZM304 184C304 170.7 314.7 160 328 160H384C437 160 480 203 480 256C480 309 437 352 384 352H328C314.7 352 304 341.3 304 328V184ZM352 208V304H384C410.5 304 432 282.5 432 256C432 229.5 410.5 208 384 208H352Z" fill="black"/>
</svg>
