<svg width="448" height="512" viewBox="0 0 448 512" fill="none" xmlns="http://www.w3.org/2000/svg">
<path d="M253.5 51.7C248.6 39.8 236.9 32 224 32C211.1 32 199.4 39.8 194.5 51.7L122.7 224H32C14.3 224 0 238.3 0 256C0 273.7 14.3 288 32 288H96L82.7 320H32C14.3 320 0 334.3 0 352C0 369.7 14.3 384 32 384H56L34.5 435.7C27.7 452 35.4 470.7 51.7 477.5C68 484.3 86.7 476.6 93.5 460.3L125.3 384H322.7L354.5 460.3C361.3 476.6 380 484.3 396.3 477.5C412.6 470.7 420.3 452 413.5 435.7L392 384H416C433.7 384 448 369.7 448 352C448 334.3 433.7 320 416 320H365.3L352 288H416C433.7 288 448 273.7 448 256C448 238.3 433.7 224 416 224H325.3L253.5 51.7ZM256 224H192L224 147.2L256 224ZM165.3 288H282.7L296 320H152L165.3 288Z" fill="black"/>
</svg>
