<svg width="512" height="512" viewBox="0 0 512 512" fill="none" xmlns="http://www.w3.org/2000/svg">
<path d="M493.6 444.998C482.4 450.298 469.1 448.598 459.5 440.598L288 297.698V415.998C288 428.398 280.8 439.698 269.6 444.998C258.4 450.298 245.1 448.598 235.5 440.598L64 297.698V415.998C64 433.698 49.7 447.998 32 447.998C14.3 447.998 0 433.698 0 415.998V95.998C0 78.298 14.3 63.998 32 63.998C49.7 63.998 64 78.298 64 95.998V214.298L235.5 71.398C245 63.498 258.3 61.698 269.6 66.998C280.9 72.298 288 83.598 288 95.998V214.298L459.5 71.398C469 63.498 482.3 61.698 493.6 66.998C504.9 72.298 512 83.598 512 95.998V415.998C512 428.398 504.8 439.698 493.6 444.998Z" fill="black"/>
</svg>
