<svg width="320" height="512" viewBox="0 0 320 512" fill="none" xmlns="http://www.w3.org/2000/svg">
<path d="M267.5 440.602C277 448.502 290.3 450.302 301.6 445.002C312.9 439.702 320 428.402 320 416.002V96.0019C320 83.6019 312.8 72.3019 301.6 67.0019C290.4 61.7019 277.1 63.4019 267.5 71.4019L75.5 231.402L64 241.002V96.0019C64 78.3019 49.7 64.0019 32 64.0019C14.3 64.0019 0 78.3019 0 96.0019V416.002C0 433.702 14.3 448.002 32 448.002C49.7 448.002 64 433.702 64 416.002V271.002L75.5 280.602L267.5 440.602Z" fill="black"/>
</svg>
