<svg width="320" height="512" viewBox="0 0 320 512" fill="none" xmlns="http://www.w3.org/2000/svg">
<g clip-path="url(#clip0_3932_2091)">
<mask id="mask0_3932_2091" style="mask-type:luminance" maskUnits="userSpaceOnUse" x="0" y="0" width="320" height="512">
<path d="M320 0H0V512H320V0Z" fill="white"/>
</mask>
<g mask="url(#mask0_3932_2091)">
<mask id="mask1_3932_2091" style="mask-type:luminance" maskUnits="userSpaceOnUse" x="0" y="0" width="320" height="512">
<path d="M320 0H0V512H320V0Z" fill="white"/>
</mask>
<g mask="url(#mask1_3932_2091)">
<mask id="mask2_3932_2091" style="mask-type:luminance" maskUnits="userSpaceOnUse" x="0" y="0" width="320" height="512">
<path d="M320 0H0V512H320V0Z" fill="white"/>
</mask>
<g mask="url(#mask2_3932_2091)">
<mask id="mask3_3932_2091" style="mask-type:luminance" maskUnits="userSpaceOnUse" x="0" y="0" width="320" height="512">
<path d="M320 0H0V512H320V0Z" fill="white"/>
</mask>
<g mask="url(#mask3_3932_2091)">
<mask id="mask4_3932_2091" style="mask-type:luminance" maskUnits="userSpaceOnUse" x="0" y="0" width="320" height="512">
<path d="M320 0H0V512H320V0Z" fill="white"/>
</mask>
<g mask="url(#mask4_3932_2091)">
<mask id="mask5_3932_2091" style="mask-type:luminance" maskUnits="userSpaceOnUse" x="0" y="0" width="320" height="512">
<path d="M320 0H0V512H320V0Z" fill="white"/>
</mask>
<g mask="url(#mask5_3932_2091)">
<mask id="mask6_3932_2091" style="mask-type:luminance" maskUnits="userSpaceOnUse" x="0" y="0" width="320" height="512">
<path d="M320 0H0V512H320V0Z" fill="white"/>
</mask>
<g mask="url(#mask6_3932_2091)">
<mask id="mask7_3932_2091" style="mask-type:luminance" maskUnits="userSpaceOnUse" x="0" y="0" width="320" height="512">
<path d="M320 0H0V512H320V0Z" fill="white"/>
</mask>
<g mask="url(#mask7_3932_2091)">
<mask id="mask8_3932_2091" style="mask-type:luminance" maskUnits="userSpaceOnUse" x="0" y="0" width="320" height="512">
<path d="M320 0H0V512H320V0Z" fill="white"/>
</mask>
<g mask="url(#mask8_3932_2091)">
<mask id="mask9_3932_2091" style="mask-type:luminance" maskUnits="userSpaceOnUse" x="0" y="0" width="320" height="512">
<path d="M320 0H0V512H320V0Z" fill="white"/>
</mask>
<g mask="url(#mask9_3932_2091)">
<mask id="mask10_3932_2091" style="mask-type:luminance" maskUnits="userSpaceOnUse" x="0" y="0" width="320" height="512">
<path d="M320 0H0V512H320V0Z" fill="white"/>
</mask>
<g mask="url(#mask10_3932_2091)">
<mask id="mask11_3932_2091" style="mask-type:luminance" maskUnits="userSpaceOnUse" x="0" y="0" width="320" height="512">
<path d="M320 0H0V512H320V0Z" fill="white"/>
</mask>
<g mask="url(#mask11_3932_2091)">
<mask id="mask12_3932_2091" style="mask-type:luminance" maskUnits="userSpaceOnUse" x="0" y="0" width="320" height="512">
<path d="M320 0H0V512H320V0Z" fill="white"/>
</mask>
<g mask="url(#mask12_3932_2091)">
<mask id="mask13_3932_2091" style="mask-type:luminance" maskUnits="userSpaceOnUse" x="0" y="0" width="320" height="512">
<path d="M320 0H0V512H320V0Z" fill="white"/>
</mask>
<g mask="url(#mask13_3932_2091)">
<path d="M144 0C126.3 0 112 14.3 112 32V64H37.6C16.8 64 0 80.8 0 101.6V224V265.7V288V406.3C0 429.3 18.7 448 41.7 448H112V480C112 497.7 126.3 512 144 512C161.7 512 176 497.7 176 480V448H208C269.9 448 320 397.9 320 336C320 295.9 298.9 260.7 267.3 240.9C280.3 222.6 288 200.2 288 176C288 114.1 237.9 64 176 64V32C176 14.3 161.7 0 144 0ZM112 128V224H64V128H112ZM176 224V128C202.5 128 224 149.5 224 176C224 202.5 202.5 224 176 224ZM112 288V384H64V288H112ZM176 384V288H208C234.5 288 256 309.5 256 336C256 362.5 234.5 384 208 384H176Z" fill="black"/>
</g>
</g>
</g>
</g>
</g>
</g>
</g>
</g>
</g>
</g>
</g>
</g>
</g>
</g>
</g>
<defs>
<clipPath id="clip0_3932_2091">
<rect width="320" height="512" fill="white"/>
</clipPath>
</defs>
</svg>
