<svg width="512" height="512" viewBox="0 0 512 512" fill="none" xmlns="http://www.w3.org/2000/svg">
<path d="M423.995 0C411.595 0 399.795 4.9 390.995 13.7L233.495 171.2C222.995 181.7 213.695 193.3 205.795 205.8L132.695 321.6C125.395 333.1 116.895 343.8 107.195 353.5L69.8953 390.7L121.195 442L158.495 404.7C168.095 395.1 178.795 386.5 190.395 379.2L306.195 306.1C318.695 298.2 330.295 288.9 340.795 278.4L498.295 121C506.995 112.3 511.995 100.4 511.995 88C511.995 75.6 507.095 63.8 498.295 55L456.995 13.7C448.195 4.9 436.395 0 423.995 0ZM511.995 432C511.995 410.783 503.567 390.434 488.564 375.431C473.561 360.429 453.213 352 431.995 352C410.778 352 390.43 360.429 375.427 375.431C360.424 390.434 351.995 410.783 351.995 432C351.995 453.217 360.424 473.566 375.427 488.569C390.43 503.571 410.778 512 431.995 512C453.213 512 473.561 503.571 488.564 488.569C503.567 473.566 511.995 453.217 511.995 432ZM14.9953 399C5.59532 408.4 5.59532 423.6 14.9953 432.9L78.9953 496.9C88.3953 506.3 103.595 506.3 112.895 496.9C122.195 487.5 122.295 472.3 112.895 463L48.9953 399C39.5953 389.6 24.3953 389.6 15.0953 399H14.9953Z" fill="black"/>
</svg>
