<svg width="512" height="512" viewBox="0 0 512 512" fill="none" xmlns="http://www.w3.org/2000/svg">
<g clip-path="url(#clip0_3932_2340)">
<mask id="mask0_3932_2340" style="mask-type:luminance" maskUnits="userSpaceOnUse" x="0" y="0" width="512" height="512">
<path d="M512 0H0V512H512V0Z" fill="white"/>
</mask>
<g mask="url(#mask0_3932_2340)">
<mask id="mask1_3932_2340" style="mask-type:luminance" maskUnits="userSpaceOnUse" x="0" y="0" width="512" height="512">
<path d="M512 0H0V512H512V0Z" fill="white"/>
</mask>
<g mask="url(#mask1_3932_2340)">
<mask id="mask2_3932_2340" style="mask-type:luminance" maskUnits="userSpaceOnUse" x="0" y="0" width="512" height="512">
<path d="M512 0H0V512H512V0Z" fill="white"/>
</mask>
<g mask="url(#mask2_3932_2340)">
<mask id="mask3_3932_2340" style="mask-type:luminance" maskUnits="userSpaceOnUse" x="0" y="0" width="512" height="512">
<path d="M512 0H0V512H512V0Z" fill="white"/>
</mask>
<g mask="url(#mask3_3932_2340)">
<mask id="mask4_3932_2340" style="mask-type:luminance" maskUnits="userSpaceOnUse" x="0" y="0" width="512" height="512">
<path d="M512 0H0V512H512V0Z" fill="white"/>
</mask>
<g mask="url(#mask4_3932_2340)">
<mask id="mask5_3932_2340" style="mask-type:luminance" maskUnits="userSpaceOnUse" x="0" y="0" width="512" height="512">
<path d="M512 0H0V512H512V0Z" fill="white"/>
</mask>
<g mask="url(#mask5_3932_2340)">
<mask id="mask6_3932_2340" style="mask-type:luminance" maskUnits="userSpaceOnUse" x="0" y="0" width="512" height="512">
<path d="M512 0H0V512H512V0Z" fill="white"/>
</mask>
<g mask="url(#mask6_3932_2340)">
<mask id="mask7_3932_2340" style="mask-type:luminance" maskUnits="userSpaceOnUse" x="0" y="0" width="512" height="512">
<path d="M512 0H0V512H512V0Z" fill="white"/>
</mask>
<g mask="url(#mask7_3932_2340)">
<mask id="mask8_3932_2340" style="mask-type:luminance" maskUnits="userSpaceOnUse" x="0" y="0" width="512" height="512">
<path d="M512 0H0V512H512V0Z" fill="white"/>
</mask>
<g mask="url(#mask8_3932_2340)">
<mask id="mask9_3932_2340" style="mask-type:luminance" maskUnits="userSpaceOnUse" x="0" y="0" width="512" height="512">
<path d="M512 0H0V512H512V0Z" fill="white"/>
</mask>
<g mask="url(#mask9_3932_2340)">
<mask id="mask10_3932_2340" style="mask-type:luminance" maskUnits="userSpaceOnUse" x="0" y="0" width="512" height="512">
<path d="M512 0H0V512H512V0Z" fill="white"/>
</mask>
<g mask="url(#mask10_3932_2340)">
<mask id="mask11_3932_2340" style="mask-type:luminance" maskUnits="userSpaceOnUse" x="0" y="0" width="512" height="512">
<path d="M512 0H0V512H512V0Z" fill="white"/>
</mask>
<g mask="url(#mask11_3932_2340)">
<mask id="mask12_3932_2340" style="mask-type:luminance" maskUnits="userSpaceOnUse" x="0" y="0" width="512" height="512">
<path d="M512 0H0V512H512V0Z" fill="white"/>
</mask>
<g mask="url(#mask12_3932_2340)">
<mask id="mask13_3932_2340" style="mask-type:luminance" maskUnits="userSpaceOnUse" x="0" y="0" width="512" height="512">
<path d="M512 0H0V512H512V0Z" fill="white"/>
</mask>
<g mask="url(#mask13_3932_2340)">
<path d="M62.7 223.402C57.9 223.802 53 224.002 48 224.002C32.4 224.002 17.2 222.002 2.8 218.102C19.2 107.102 107.1 19.2017 218.1 2.80162C222 17.2017 224 32.4016 224 48.0017C224 52.9017 223.8 57.8017 223.4 62.7017C222.7 71.5017 229.2 79.2017 238 80.0017C246.8 80.8017 254.5 74.2017 255.3 65.4016C255.8 59.7016 256 53.9017 256 48.1017C256 31.6017 254.1 15.5017 250.4 0.201628C252.2 0.201628 254.1 0.101628 256 0.101628C397.4 0.00162657 512 114.602 512 256.002C512 257.902 512 259.702 511.9 261.602C496.5 258.002 480.5 256.002 464 256.002C458.2 256.002 452.4 256.202 446.7 256.702C437.9 257.402 431.3 265.202 432.1 274.002C432.9 282.802 440.6 289.402 449.4 288.602C454.2 288.202 459.1 288.002 464.1 288.002C479.7 288.002 494.9 290.002 509.3 293.902C492.8 404.902 404.9 492.802 293.9 509.202C290 494.802 288 479.602 288 464.002C288 459.102 288.2 454.202 288.6 449.302C289.3 440.502 282.8 432.802 274 432.002C265.2 431.202 257.5 437.802 256.7 446.602C256.2 452.302 256 458.102 256 463.902C256 480.402 257.9 496.502 261.6 511.802C259.8 511.802 257.9 511.902 256 511.902C114.6 512.002 0 397.402 0 256.002C0 254.102 0 252.302 0.1 250.402C15.4 254.102 31.5 256.002 48 256.002C53.8 256.002 59.6 255.802 65.3 255.302C74.1 254.602 80.7 246.802 79.9 238.002C79.1 229.202 71.4 222.602 62.6 223.402H62.7ZM121.3 208.002C113.3 211.702 109.7 221.202 113.4 229.202C117.1 237.202 126.6 240.802 134.6 237.102C179.8 216.302 216.3 179.902 237.1 134.602C240.8 126.602 237.3 117.102 229.2 113.402C221.1 109.702 211.7 113.202 208 121.302C190.4 159.602 159.5 190.502 121.3 208.002ZM398.5 282.702C394.8 274.702 385.3 271.102 377.3 274.802C332.1 295.602 295.6 332.002 274.8 377.302C271.1 385.302 274.6 394.802 282.7 398.502C290.8 402.202 300.2 398.702 303.9 390.602C321.5 352.302 352.4 321.402 390.6 303.902C398.6 300.202 402.2 290.702 398.5 282.702Z" fill="black"/>
</g>
</g>
</g>
</g>
</g>
</g>
</g>
</g>
</g>
</g>
</g>
</g>
</g>
</g>
</g>
<defs>
<clipPath id="clip0_3932_2340">
<rect width="512" height="512" fill="white"/>
</clipPath>
</defs>
</svg>
