<svg width="512" height="512" viewBox="0 0 512 512" fill="none" xmlns="http://www.w3.org/2000/svg">
<g clip-path="url(#clip0_3932_2584)">
<mask id="mask0_3932_2584" style="mask-type:luminance" maskUnits="userSpaceOnUse" x="0" y="0" width="512" height="512">
<path d="M512 0H0V512H512V0Z" fill="white"/>
</mask>
<g mask="url(#mask0_3932_2584)">
<mask id="mask1_3932_2584" style="mask-type:luminance" maskUnits="userSpaceOnUse" x="0" y="0" width="512" height="512">
<path d="M512 0H0V512H512V0Z" fill="white"/>
</mask>
<g mask="url(#mask1_3932_2584)">
<mask id="mask2_3932_2584" style="mask-type:luminance" maskUnits="userSpaceOnUse" x="0" y="0" width="512" height="512">
<path d="M512 0H0V512H512V0Z" fill="white"/>
</mask>
<g mask="url(#mask2_3932_2584)">
<mask id="mask3_3932_2584" style="mask-type:luminance" maskUnits="userSpaceOnUse" x="0" y="0" width="512" height="512">
<path d="M512 0H0V512H512V0Z" fill="white"/>
</mask>
<g mask="url(#mask3_3932_2584)">
<mask id="mask4_3932_2584" style="mask-type:luminance" maskUnits="userSpaceOnUse" x="0" y="0" width="512" height="512">
<path d="M512 0H0V512H512V0Z" fill="white"/>
</mask>
<g mask="url(#mask4_3932_2584)">
<mask id="mask5_3932_2584" style="mask-type:luminance" maskUnits="userSpaceOnUse" x="0" y="0" width="512" height="512">
<path d="M512 0H0V512H512V0Z" fill="white"/>
</mask>
<g mask="url(#mask5_3932_2584)">
<mask id="mask6_3932_2584" style="mask-type:luminance" maskUnits="userSpaceOnUse" x="0" y="0" width="512" height="512">
<path d="M512 0H0V512H512V0Z" fill="white"/>
</mask>
<g mask="url(#mask6_3932_2584)">
<mask id="mask7_3932_2584" style="mask-type:luminance" maskUnits="userSpaceOnUse" x="0" y="0" width="512" height="512">
<path d="M512 0H0V512H512V0Z" fill="white"/>
</mask>
<g mask="url(#mask7_3932_2584)">
<mask id="mask8_3932_2584" style="mask-type:luminance" maskUnits="userSpaceOnUse" x="0" y="0" width="512" height="512">
<path d="M512 0H0V512H512V0Z" fill="white"/>
</mask>
<g mask="url(#mask8_3932_2584)">
<mask id="mask9_3932_2584" style="mask-type:luminance" maskUnits="userSpaceOnUse" x="0" y="0" width="512" height="512">
<path d="M512 0H0V512H512V0Z" fill="white"/>
</mask>
<g mask="url(#mask9_3932_2584)">
<mask id="mask10_3932_2584" style="mask-type:luminance" maskUnits="userSpaceOnUse" x="0" y="0" width="512" height="512">
<path d="M512 0H0V512H512V0Z" fill="white"/>
</mask>
<g mask="url(#mask10_3932_2584)">
<mask id="mask11_3932_2584" style="mask-type:luminance" maskUnits="userSpaceOnUse" x="0" y="0" width="512" height="512">
<path d="M512 0H0V512H512V0Z" fill="white"/>
</mask>
<g mask="url(#mask11_3932_2584)">
<mask id="mask12_3932_2584" style="mask-type:luminance" maskUnits="userSpaceOnUse" x="0" y="0" width="512" height="512">
<path d="M512 0H0V512H512V0Z" fill="white"/>
</mask>
<g mask="url(#mask12_3932_2584)">
<mask id="mask13_3932_2584" style="mask-type:luminance" maskUnits="userSpaceOnUse" x="0" y="0" width="512" height="512">
<path d="M512 0H0V512H512V0Z" fill="white"/>
</mask>
<g mask="url(#mask13_3932_2584)">
<path d="M448.609 225.617C475.479 225.797 484.179 218.187 487.529 213.247C499.999 196.927 480.469 165.647 434.679 141.917C452.439 108.337 464.789 78.2371 471.019 56.6171C474.399 44.7871 472.109 37.6171 471.469 36.3671C469.749 46.8871 455.619 84.8271 423.269 136.417C398.269 125.197 366.749 116.317 329.499 112.617C320.559 95.6771 294.619 48.7571 269.019 23.6871C252.179 7.13707 238.699 1.06707 228.179 0.217078H228.129C214.299 -1.33293 205.459 6.06707 200.729 11.2171C183.529 29.7471 176.399 60.0871 175.729 95.2871C168.489 82.9371 158.559 70.6571 147.229 69.3571H147.049C126.389 65.8771 108.659 98.5771 111.049 150.647C72.6891 152.027 40.0491 156.397 18.0491 161.877C8.14906 164.327 1.82906 169.147 0.289062 171.597C1.28906 171.217 22.6891 162.377 111.849 162.377C117.069 215.377 141.599 264.197 137.849 255.567C128.119 270.967 99.6091 317.927 90.5391 353.267C84.6691 376.147 86.1691 390.877 90.6891 400.407C96.2591 413.157 107.099 417.127 113.889 418.667C138.889 424.377 169.269 415.037 200.589 397.527C193.059 410.367 186.689 426.037 191.529 436.867C198.839 456.517 236.019 455.527 279.969 427.417C300.149 459.597 320.039 485.357 335.669 501.537C338.235 504.303 341.181 506.691 344.419 508.627C349.559 511.837 352.999 511.997 352.999 511.997C344.759 505.247 318.999 473.997 290.459 420.217C312.679 404.217 336.109 381.347 357.929 350.947C480.749 355.547 501.219 326.187 505.929 319.307C520.599 299.427 509.359 261.867 448.609 225.617ZM370.759 331.837C394.569 294.127 401.099 264.067 400.209 239.507C428.069 257.077 447.389 277.087 449.269 298.337C450.409 311.267 441.169 327.457 370.759 331.837ZM216.899 387.687C226.659 381.457 236.429 374.567 246.099 367.197C252.779 380.527 259.699 393.297 266.699 405.387C226.099 427.247 197.859 418.147 216.899 387.687ZM431.899 216.337C421.609 210.997 410.739 205.997 399.519 201.287C407.466 189.217 415.05 176.912 422.259 164.387C461.319 188.487 468.159 217.567 431.899 216.337ZM279.179 397.997C273.669 386.647 268.179 374.497 262.679 361.557C305.929 362.827 325.099 342.827 325.959 341.147C325.959 341.217 300.959 356.787 263.429 353.397C294.066 327.808 322.517 299.71 348.489 269.397C357.196 259.19 365.506 248.82 373.419 238.287C373.059 237.997 371.879 235.287 356.909 226.287C305.209 286.557 254.569 324.287 224.159 342.207C203.569 331.027 183.319 310.427 168.449 280.717C148.449 240.797 138.449 198.327 136.879 164.647C149.179 165.557 162.149 166.817 175.729 168.527C153.439 205.327 161.339 231.527 162.259 232.757C162.259 232.687 161.309 203.587 182.399 173.187C191.386 225.676 206.375 276.959 227.069 326.027C227.999 325.647 228.909 326.907 245.739 317.777C219.409 243.307 211.979 179.607 211.739 144.347C231.739 131.927 259.919 124.547 293.369 126.537C337.939 129.207 379.729 141.787 409.689 157.247C402.562 167.687 394.786 178.51 386.359 189.717C365.629 151.997 339.099 145.837 337.499 145.997C337.609 145.997 363.399 160.067 379.019 193.217C341.522 179.456 302.941 168.849 263.679 161.507C250.614 159.086 237.478 157.069 224.289 155.457C224.219 155.907 222.479 157.307 222.129 175.787C299.999 190.277 358.779 215.677 389.359 232.997C390.099 256.547 382.409 284.607 363.949 312.567C339.349 349.877 307.559 379.797 279.179 397.997ZM306.579 110.997C262.019 109.337 232.999 118.427 211.889 131.667C213.889 79.3671 233.199 55.2871 250.099 56.3871C266.999 52.1471 304.999 108.547 306.579 110.997ZM175.929 114.097C176.409 126.207 177.519 138.717 179.139 151.377C164.589 150.527 150.399 150.127 136.739 150.117C136.659 153.357 136.619 99.117 161.409 100.527H161.499C167.259 101.617 172.129 107.407 175.929 114.097ZM147.869 276.097C168.629 315.797 191.169 336.667 213.119 348.407C166.329 373.167 135.589 368.407 128.199 352.917C127.999 352.707 117.069 337.617 147.869 276.107V276.097Z" fill="black"/>
</g>
</g>
</g>
</g>
</g>
</g>
</g>
</g>
</g>
</g>
</g>
</g>
</g>
</g>
</g>
<defs>
<clipPath id="clip0_3932_2584">
<rect width="512" height="512" fill="white"/>
</clipPath>
</defs>
</svg>
