<svg width="640" height="512" viewBox="0 0 640 512" fill="none" xmlns="http://www.w3.org/2000/svg">
<path d="M296 136V88H344V136H296ZM288 32C261.5 32 240 53.5 240 80V84H121.6C111.2 62.7 89.3 48 64 48C28.7 48 0 76.7 0 112C0 147.3 28.7 176 64 176C89.3 176 111.2 161.3 121.6 140H188.5C129.6 179.6 89.6 245 84.5 320H80C53.5 320 32 341.5 32 368V432C32 458.5 53.5 480 80 480H144C170.5 480 192 458.5 192 432V368C192 341.5 170.5 320 144 320H140.7C146.6 253 189.2 196.6 248.2 170.9C256.8 183.6 271.4 192 288 192H352C368.6 192 383.1 183.6 391.8 170.9C450.8 196.6 493.4 253 499.3 320H496C469.5 320 448 341.5 448 368V432C448 458.5 469.5 480 496 480H560C586.5 480 608 458.5 608 432V368C608 341.5 586.5 320 560 320H555.5C550.5 245 510.4 179.6 451.5 140H518.4C528.8 161.3 550.7 176 576 176C611.3 176 640 147.3 640 112C640 76.7 611.3 48 576 48C550.7 48 528.8 62.7 518.4 84H400V80C400 53.5 378.5 32 352 32H288ZM88 376H136V424H88V376ZM504 424V376H552V424H504Z" fill="black"/>
</svg>
