<svg width="576" height="512" viewBox="0 0 576 512" fill="none" xmlns="http://www.w3.org/2000/svg">
<g clip-path="url(#clip0_3932_2890)">
<mask id="mask0_3932_2890" style="mask-type:luminance" maskUnits="userSpaceOnUse" x="0" y="0" width="576" height="512">
<path d="M576 0H0V512H576V0Z" fill="white"/>
</mask>
<g mask="url(#mask0_3932_2890)">
<mask id="mask1_3932_2890" style="mask-type:luminance" maskUnits="userSpaceOnUse" x="0" y="0" width="576" height="512">
<path d="M576 0H0V512H576V0Z" fill="white"/>
</mask>
<g mask="url(#mask1_3932_2890)">
<mask id="mask2_3932_2890" style="mask-type:luminance" maskUnits="userSpaceOnUse" x="0" y="0" width="576" height="512">
<path d="M576 0H0V512H576V0Z" fill="white"/>
</mask>
<g mask="url(#mask2_3932_2890)">
<mask id="mask3_3932_2890" style="mask-type:luminance" maskUnits="userSpaceOnUse" x="0" y="0" width="576" height="512">
<path d="M576 0H0V512H576V0Z" fill="white"/>
</mask>
<g mask="url(#mask3_3932_2890)">
<mask id="mask4_3932_2890" style="mask-type:luminance" maskUnits="userSpaceOnUse" x="0" y="0" width="576" height="512">
<path d="M576 0H0V512H576V0Z" fill="white"/>
</mask>
<g mask="url(#mask4_3932_2890)">
<mask id="mask5_3932_2890" style="mask-type:luminance" maskUnits="userSpaceOnUse" x="0" y="0" width="576" height="512">
<path d="M576 0H0V512H576V0Z" fill="white"/>
</mask>
<g mask="url(#mask5_3932_2890)">
<mask id="mask6_3932_2890" style="mask-type:luminance" maskUnits="userSpaceOnUse" x="0" y="0" width="576" height="512">
<path d="M576 0H0V512H576V0Z" fill="white"/>
</mask>
<g mask="url(#mask6_3932_2890)">
<mask id="mask7_3932_2890" style="mask-type:luminance" maskUnits="userSpaceOnUse" x="0" y="0" width="576" height="512">
<path d="M576 0H0V512H576V0Z" fill="white"/>
</mask>
<g mask="url(#mask7_3932_2890)">
<mask id="mask8_3932_2890" style="mask-type:luminance" maskUnits="userSpaceOnUse" x="0" y="0" width="576" height="512">
<path d="M576 0H0V512H576V0Z" fill="white"/>
</mask>
<g mask="url(#mask8_3932_2890)">
<mask id="mask9_3932_2890" style="mask-type:luminance" maskUnits="userSpaceOnUse" x="0" y="0" width="576" height="512">
<path d="M576 0H0V512H576V0Z" fill="white"/>
</mask>
<g mask="url(#mask9_3932_2890)">
<mask id="mask10_3932_2890" style="mask-type:luminance" maskUnits="userSpaceOnUse" x="0" y="0" width="576" height="512">
<path d="M576 0H0V512H576V0Z" fill="white"/>
</mask>
<g mask="url(#mask10_3932_2890)">
<mask id="mask11_3932_2890" style="mask-type:luminance" maskUnits="userSpaceOnUse" x="0" y="0" width="576" height="512">
<path d="M576 0H0V512H576V0Z" fill="white"/>
</mask>
<g mask="url(#mask11_3932_2890)">
<mask id="mask12_3932_2890" style="mask-type:luminance" maskUnits="userSpaceOnUse" x="0" y="0" width="576" height="512">
<path d="M576 0H0V512H576V0Z" fill="white"/>
</mask>
<g mask="url(#mask12_3932_2890)">
<mask id="mask13_3932_2890" style="mask-type:luminance" maskUnits="userSpaceOnUse" x="0" y="0" width="576" height="512">
<path d="M576 0H0V512H576V0Z" fill="white"/>
</mask>
<g mask="url(#mask13_3932_2890)">
<path d="M173.199 0C171.399 0 169.699 0.7 168.399 2C138.499 32.3 119.999 74 119.999 120C119.999 146.2 125.999 170.9 136.599 193C114.599 195.4 92.7988 202.1 72.3988 213.5C37.8988 232.8 13.2988 262.4 0.398789 296C-0.301211 297.7 -0.101211 299.7 0.898789 301.2C3.09879 304.9 8.29879 305.5 11.4988 302.5C64.1988 254.3 157.999 245.1 204.999 324C251.999 402.9 196.899 477.1 127.399 497.2C123.199 498.4 121.099 503.1 123.299 506.8C124.299 508.4 125.899 509.5 127.799 509.8C164.299 515.7 202.999 509.9 237.499 490.6C257.899 479.2 274.899 464.1 287.999 446.8C301.099 464.1 318.099 479.2 338.499 490.6C372.999 509.9 411.799 515.8 448.199 509.8C450.099 509.5 451.699 508.4 452.699 506.8C454.899 503.1 452.799 498.4 448.599 497.2C379.099 477.1 323.999 403 370.999 324C417.999 245 511.699 254.2 564.499 302.6C567.699 305.5 572.899 304.9 575.099 301.3C576.099 299.7 576.199 297.8 575.599 296.1C562.699 262.5 538.099 232.9 503.499 213.6C483.099 202.2 461.299 195.5 439.299 193.1C449.999 170.9 455.999 146.2 455.999 120C455.999 74 437.499 32.3 407.599 2C406.299 0.7 404.599 0 402.799 0C397.799 0 394.399 5.2 396.099 9.9C421.699 80.5 385.599 176 287.999 176C190.399 176 154.299 80.5 179.899 9.9C181.599 5.2 178.299 0 173.199 0ZM239.999 272C239.999 259.27 245.056 247.061 254.058 238.059C263.059 229.057 275.268 224 287.999 224C300.729 224 312.938 229.057 321.94 238.059C330.942 247.061 335.999 259.27 335.999 272C335.999 284.73 330.942 296.939 321.94 305.941C312.938 314.943 300.729 320 287.999 320C275.268 320 263.059 314.943 254.058 305.941C245.056 296.939 239.999 284.73 239.999 272ZM181.699 417.6C187.999 405.8 191.499 392.5 190.299 377.8C170.799 359.8 156.299 336.4 149.099 310C136.599 301.9 122.899 298.2 109.099 297.6C100.099 297.2 90.9988 298.2 81.9988 300.3C89.7988 357.4 120.699 407.1 164.899 439.7C171.699 433 177.499 425.6 181.699 417.6ZM287.999 64C259.199 64 231.699 69.9 206.799 80.5C208.799 88.8 211.799 96.7 215.799 104C222.599 116.4 232.499 127.1 245.899 134.3C259.199 130.2 273.399 128 288.099 128C302.799 128 316.899 130.2 330.299 134.3C343.699 127.1 353.599 116.4 360.399 104C364.399 96.7 367.399 88.8 369.399 80.5C344.299 69.9 316.799 64 287.999 64ZM426.899 310C419.699 336.4 405.199 359.7 385.699 377.8C384.499 392.5 387.899 405.9 394.299 417.6C398.599 425.6 404.299 433 411.099 439.7C455.399 407.1 486.299 357.4 493.999 300.3C484.999 298.1 475.899 297.2 466.899 297.6C453.099 298.2 439.399 302 426.899 310Z" fill="black"/>
</g>
</g>
</g>
</g>
</g>
</g>
</g>
</g>
</g>
</g>
</g>
</g>
</g>
</g>
</g>
<defs>
<clipPath id="clip0_3932_2890">
<rect width="576" height="512" fill="white"/>
</clipPath>
</defs>
</svg>
