<svg width="512" height="512" viewBox="0 0 512 512" fill="none" xmlns="http://www.w3.org/2000/svg">
<path d="M166 116.895C166 140.295 149.6 165.995 93.5 165.995H23.4L44.4 77.1953H112.2C154.3 77.1953 166 100.495 166 116.895ZM292.2 77.1953H224.4L205.7 165.995H275.8C329.6 165.995 345.9 140.295 345.9 116.895C346 100.495 334.3 77.1953 292.2 77.1953ZM88.8 208.095H21L0 296.895H70.1C126.2 296.895 142.6 273.495 142.6 247.795C142.6 231.495 130.9 208.095 88.8 208.095ZM268.9 208.095H201.1L182.4 296.895H252.5C306.3 296.895 322.6 273.495 322.6 247.795C322.6 231.495 310.9 208.095 268.9 208.095ZM458.2 154.295H390.4L371.7 243.095H441.8C495.6 243.095 511.9 219.695 511.9 193.995C512 177.695 500.3 154.295 458.2 154.295ZM430.2 292.195H362.4L343.7 380.995H413.8C469.9 380.995 483.9 357.595 483.9 331.895C483.9 315.595 472.3 292.195 430.2 292.195ZM240.8 345.995H173L154.3 434.795H224.4C280.5 434.795 294.5 409.095 294.5 385.695C294.6 369.395 282.9 345.995 240.8 345.995Z" fill="black"/>
</svg>
