<svg width="512" height="512" viewBox="0 0 512 512" fill="none" xmlns="http://www.w3.org/2000/svg">
<path d="M0 64C0 28.7 28.7 0 64 0H128H160H470.1C491.2 0 506.5 20.1 501 40.4L494.5 64H336C327.2 64 320 71.2 320 80C320 88.8 327.2 96 336 96H485.8L468.3 160H336C327.2 160 320 167.2 320 176C320 184.8 327.2 192 336 192H459.6L442.1 256H336C327.2 256 320 263.2 320 272C320 280.8 327.2 288 336 288H433.5L416 352H160L151.3 256H64C28.7 256 0 227.3 0 192V64ZM145.5 192L133.8 64H64V192H145.5ZM144 384H432C458.5 384 480 405.5 480 432V464C480 490.5 458.5 512 432 512H144C117.5 512 96 490.5 96 464V432C96 405.5 117.5 384 144 384ZM288 480C296.487 480 304.626 476.629 310.627 470.627C316.629 464.626 320 456.487 320 448C320 439.513 316.629 431.374 310.627 425.373C304.626 419.371 296.487 416 288 416C279.513 416 271.374 419.371 265.373 425.373C259.371 431.374 256 439.513 256 448C256 456.487 259.371 464.626 265.373 470.627C271.374 476.629 279.513 480 288 480Z" fill="black"/>
</svg>
