<svg width="576" height="512" viewBox="0 0 576 512" fill="none" xmlns="http://www.w3.org/2000/svg">
<g clip-path="url(#clip0_3932_3074)">
<mask id="mask0_3932_3074" style="mask-type:luminance" maskUnits="userSpaceOnUse" x="0" y="0" width="576" height="512">
<path d="M576 0H0V512H576V0Z" fill="white"/>
</mask>
<g mask="url(#mask0_3932_3074)">
<mask id="mask1_3932_3074" style="mask-type:luminance" maskUnits="userSpaceOnUse" x="0" y="0" width="576" height="512">
<path d="M576 0H0V512H576V0Z" fill="white"/>
</mask>
<g mask="url(#mask1_3932_3074)">
<mask id="mask2_3932_3074" style="mask-type:luminance" maskUnits="userSpaceOnUse" x="0" y="0" width="576" height="512">
<path d="M576 0H0V512H576V0Z" fill="white"/>
</mask>
<g mask="url(#mask2_3932_3074)">
<mask id="mask3_3932_3074" style="mask-type:luminance" maskUnits="userSpaceOnUse" x="0" y="0" width="576" height="512">
<path d="M576 0H0V512H576V0Z" fill="white"/>
</mask>
<g mask="url(#mask3_3932_3074)">
<mask id="mask4_3932_3074" style="mask-type:luminance" maskUnits="userSpaceOnUse" x="0" y="0" width="576" height="512">
<path d="M576 0H0V512H576V0Z" fill="white"/>
</mask>
<g mask="url(#mask4_3932_3074)">
<mask id="mask5_3932_3074" style="mask-type:luminance" maskUnits="userSpaceOnUse" x="0" y="0" width="576" height="512">
<path d="M576 0H0V512H576V0Z" fill="white"/>
</mask>
<g mask="url(#mask5_3932_3074)">
<mask id="mask6_3932_3074" style="mask-type:luminance" maskUnits="userSpaceOnUse" x="0" y="0" width="576" height="512">
<path d="M576 0H0V512H576V0Z" fill="white"/>
</mask>
<g mask="url(#mask6_3932_3074)">
<mask id="mask7_3932_3074" style="mask-type:luminance" maskUnits="userSpaceOnUse" x="0" y="0" width="576" height="512">
<path d="M576 0H0V512H576V0Z" fill="white"/>
</mask>
<g mask="url(#mask7_3932_3074)">
<mask id="mask8_3932_3074" style="mask-type:luminance" maskUnits="userSpaceOnUse" x="0" y="0" width="576" height="512">
<path d="M576 0H0V512H576V0Z" fill="white"/>
</mask>
<g mask="url(#mask8_3932_3074)">
<mask id="mask9_3932_3074" style="mask-type:luminance" maskUnits="userSpaceOnUse" x="0" y="0" width="576" height="512">
<path d="M576 0H0V512H576V0Z" fill="white"/>
</mask>
<g mask="url(#mask9_3932_3074)">
<mask id="mask10_3932_3074" style="mask-type:luminance" maskUnits="userSpaceOnUse" x="0" y="0" width="576" height="512">
<path d="M576 0H0V512H576V0Z" fill="white"/>
</mask>
<g mask="url(#mask10_3932_3074)">
<mask id="mask11_3932_3074" style="mask-type:luminance" maskUnits="userSpaceOnUse" x="0" y="0" width="576" height="512">
<path d="M576 0H0V512H576V0Z" fill="white"/>
</mask>
<g mask="url(#mask11_3932_3074)">
<mask id="mask12_3932_3074" style="mask-type:luminance" maskUnits="userSpaceOnUse" x="0" y="0" width="576" height="512">
<path d="M576 0H0V512H576V0Z" fill="white"/>
</mask>
<g mask="url(#mask12_3932_3074)">
<mask id="mask13_3932_3074" style="mask-type:luminance" maskUnits="userSpaceOnUse" x="0" y="0" width="576" height="512">
<path d="M576 0H0V512H576V0Z" fill="white"/>
</mask>
<g mask="url(#mask13_3932_3074)">
<path d="M224.002 351.995L196.802 52.2956C194.202 24.1956 216.302 -0.00443984 244.602 -0.00443984H534.102C555.202 -0.00443984 570.502 20.0956 565.002 40.3956L558.502 63.9956H400.002C391.202 63.9956 384.002 71.1956 384.002 79.9956C384.002 88.7956 391.202 95.9956 400.002 95.9956H549.802L532.302 159.995H400.002C391.202 159.995 384.002 167.195 384.002 175.995C384.002 184.795 391.202 191.995 400.002 191.995H523.602L506.102 255.995H400.002C391.202 255.995 384.002 263.195 384.002 271.995C384.002 280.795 391.202 287.995 400.002 287.995H497.502L480.002 351.995H224.002ZM208.002 383.995H496.002C522.502 383.995 544.002 405.495 544.002 431.995V463.995C544.002 490.495 522.502 511.995 496.002 511.995H208.002C181.502 511.995 160.002 490.495 160.002 463.995V431.995C160.002 405.495 181.502 383.995 208.002 383.995ZM352.002 479.995C360.488 479.995 368.628 476.624 374.629 470.623C380.63 464.622 384.002 456.482 384.002 447.995C384.002 439.509 380.63 431.369 374.629 425.368C368.628 419.367 360.488 415.995 352.002 415.995C343.515 415.995 335.375 419.367 329.374 425.368C323.373 431.369 320.002 439.509 320.002 447.995C320.002 456.482 323.373 464.622 329.374 470.623C335.375 476.624 343.515 479.995 352.002 479.995ZM147.502 30.6956C158.302 37.3956 162.802 51.6956 158.102 64.0956L136.102 121.895C131.902 132.795 121.602 139.495 110.802 138.295L77.5016 134.695C63.9016 176.895 63.9016 223.095 77.5016 265.395L110.802 261.795C121.702 260.595 132.002 267.295 136.102 278.195L158.102 335.995C162.802 348.395 158.302 362.695 147.502 369.395L103.502 396.595C93.8016 402.595 81.6016 400.795 73.7016 392.295C-24.5984 285.995 -24.5984 113.995 73.7016 7.79557C81.6016 -0.704438 93.8016 -2.50443 103.502 3.49557L147.502 30.6956Z" fill="black"/>
</g>
</g>
</g>
</g>
</g>
</g>
</g>
</g>
</g>
</g>
</g>
</g>
</g>
</g>
</g>
<defs>
<clipPath id="clip0_3932_3074">
<rect width="576" height="512" fill="white"/>
</clipPath>
</defs>
</svg>
