<svg width="448" height="512" viewBox="0 0 448 512" fill="none" xmlns="http://www.w3.org/2000/svg">
<path d="M162.4 196C167.2 191.1 168.6 190.9 198.8 190.9C226 190.9 226.9 191 230.9 193C236.7 195.9 239.2 200 239.2 206.6C239.2 212.5 236.8 216.6 231.6 220C228.8 221.8 227.1 221.9 200.5 222.1C184.1 222.2 171 221.9 169 221.3C158.7 218.4 154.9 203.6 162.4 196ZM223.8 290.5C169.9 290.5 168 290.7 163.6 294.6C160.1 297.7 157.9 304 158.5 308.5C159.2 313.2 163.3 318.6 167.7 320.5C169.9 321.5 181.8 322.2 224 321.7L271.9 321.1L281.1 319.6C290.1 314.5 291.6 302.2 284.2 295.2C278.9 290.5 279.2 290.5 223.8 290.5ZM447.2 420.6C443.7 449 424.2 471 396.1 478.1C388.9 479.9 386.4 480 223.2 479.9C65.4 479.9 57.3 479.8 51.2 478.1C42.8 475.9 35.6 472.6 28.9 468.1C23.3 464.3 15 456.3 11.9 451.7C8.1 446.1 3.7 436.4 1.9 429.7C0.1 423 0 420.3 0 256.3C0 93.1995 0 89.6995 1.8 82.5995C8.1 57.8995 27.7 38.9995 53 33.3996C60.3 31.7996 385.1 31.4995 393 33.0995C414.2 37.3995 430.9 50.1996 440.6 69.4995C448.3 84.7995 447.6 67.9995 447.9 250.1C448.1 365.9 447.9 414.6 447.2 420.6ZM361.8 235.4C360.7 230.4 357.6 225.8 354.1 223.9C353 223.3 346.1 222.6 338.6 222.2C326.2 221.6 324.8 221.4 320.8 219.1C314.6 215.5 312.9 211.5 312.8 200.8C312.8 180.4 304.3 161.4 287.5 144.3C275.5 132.1 262.2 123.8 246.9 119.2C243.3 118.1 235.1 117.7 207.7 117.4C164.8 116.9 155.2 117.8 140.6 123.6C113.6 134.3 94.3 157 87.2 186C85.9 191.4 85.6 200.2 85.3 250.3C84.9 313.1 85.3 322.4 89.3 334.8C99 365.5 126.4 388.2 153.9 393.2C163.1 394.9 276.1 395.3 287.6 393.7C307.7 391 323.5 382.9 338.3 367.8C349 356.9 355.7 345 360.1 329.3C363.3 318.4 363 240.9 361.8 235.4Z" fill="black"/>
</svg>
