<svg width="576" height="512" viewBox="0 0 576 512" fill="none" xmlns="http://www.w3.org/2000/svg">
<path d="M153.7 144.8C160.6 161.1 174.3 176 192 176H384C401.7 176 415.4 161.1 422.3 144.8C434.4 116.1 462.9 96 496 96C540.2 96 576 131.8 576 176C576 206.4 559 232.9 534 246.4C530.4 248.3 528 251.9 528 256C528 260.1 530.4 263.7 534 265.6C559 279.1 576 305.6 576 336C576 380.2 540.2 416 496 416C462.9 416 434.4 395.9 422.3 367.2C415.4 350.9 401.7 336 384 336H192C174.3 336 160.6 350.9 153.7 367.2C141.6 395.9 113.1 416 80 416C35.8 416 0 380.2 0 336C0 305.6 17 279.1 42 265.6C45.6 263.7 48 260.1 48 256C48 251.9 45.6 248.3 42 246.4C17 232.9 0 206.4 0 176C0 131.8 35.8 96 80 96C113.1 96 141.6 116.1 153.7 144.8Z" fill="black"/>
</svg>
