<svg width="448" height="512" viewBox="0 0 448 512" fill="none" xmlns="http://www.w3.org/2000/svg">
<g clip-path="url(#clip0_3932_3531)">
<mask id="mask0_3932_3531" style="mask-type:luminance" maskUnits="userSpaceOnUse" x="0" y="0" width="448" height="512">
<path d="M448 0H0V512H448V0Z" fill="white"/>
</mask>
<g mask="url(#mask0_3932_3531)">
<mask id="mask1_3932_3531" style="mask-type:luminance" maskUnits="userSpaceOnUse" x="0" y="0" width="448" height="512">
<path d="M448 0H0V512H448V0Z" fill="white"/>
</mask>
<g mask="url(#mask1_3932_3531)">
<mask id="mask2_3932_3531" style="mask-type:luminance" maskUnits="userSpaceOnUse" x="0" y="0" width="448" height="512">
<path d="M448 0H0V512H448V0Z" fill="white"/>
</mask>
<g mask="url(#mask2_3932_3531)">
<mask id="mask3_3932_3531" style="mask-type:luminance" maskUnits="userSpaceOnUse" x="0" y="0" width="448" height="512">
<path d="M448 0H0V512H448V0Z" fill="white"/>
</mask>
<g mask="url(#mask3_3932_3531)">
<mask id="mask4_3932_3531" style="mask-type:luminance" maskUnits="userSpaceOnUse" x="0" y="0" width="448" height="512">
<path d="M448 0H0V512H448V0Z" fill="white"/>
</mask>
<g mask="url(#mask4_3932_3531)">
<mask id="mask5_3932_3531" style="mask-type:luminance" maskUnits="userSpaceOnUse" x="0" y="0" width="448" height="512">
<path d="M448 0H0V512H448V0Z" fill="white"/>
</mask>
<g mask="url(#mask5_3932_3531)">
<mask id="mask6_3932_3531" style="mask-type:luminance" maskUnits="userSpaceOnUse" x="0" y="0" width="448" height="512">
<path d="M448 0H0V512H448V0Z" fill="white"/>
</mask>
<g mask="url(#mask6_3932_3531)">
<mask id="mask7_3932_3531" style="mask-type:luminance" maskUnits="userSpaceOnUse" x="0" y="0" width="448" height="512">
<path d="M448 0H0V512H448V0Z" fill="white"/>
</mask>
<g mask="url(#mask7_3932_3531)">
<mask id="mask8_3932_3531" style="mask-type:luminance" maskUnits="userSpaceOnUse" x="0" y="0" width="448" height="512">
<path d="M448 0H0V512H448V0Z" fill="white"/>
</mask>
<g mask="url(#mask8_3932_3531)">
<mask id="mask9_3932_3531" style="mask-type:luminance" maskUnits="userSpaceOnUse" x="0" y="0" width="448" height="512">
<path d="M448 0H0V512H448V0Z" fill="white"/>
</mask>
<g mask="url(#mask9_3932_3531)">
<mask id="mask10_3932_3531" style="mask-type:luminance" maskUnits="userSpaceOnUse" x="0" y="0" width="448" height="512">
<path d="M448 0H0V512H448V0Z" fill="white"/>
</mask>
<g mask="url(#mask10_3932_3531)">
<mask id="mask11_3932_3531" style="mask-type:luminance" maskUnits="userSpaceOnUse" x="0" y="0" width="448" height="512">
<path d="M448 0H0V512H448V0Z" fill="white"/>
</mask>
<g mask="url(#mask11_3932_3531)">
<mask id="mask12_3932_3531" style="mask-type:luminance" maskUnits="userSpaceOnUse" x="0" y="0" width="448" height="512">
<path d="M448 0H0V512H448V0Z" fill="white"/>
</mask>
<g mask="url(#mask12_3932_3531)">
<mask id="mask13_3932_3531" style="mask-type:luminance" maskUnits="userSpaceOnUse" x="0" y="0" width="448" height="512">
<path d="M448 0H0V512H448V0Z" fill="white"/>
</mask>
<g mask="url(#mask13_3932_3531)">
<path d="M160 208.5C160 237.6 144.4 262.4 122.8 276.3C105.6 287.4 91.3 302.4 81.1 320H302.9C292.7 302.4 278.4 287.4 261.2 276.3C239.6 262.4 224 237.6 224 208.5V64H160V208.5ZM288 64V208.5C288 214.2 291.1 219.4 295.9 222.5C307.1 229.7 317.4 238 326.8 247.3L366.1 208L359.1 201C349.7 191.6 349.7 176.4 359.1 167.1C368.5 157.8 383.7 157.7 393 167.1L417 191.1L441 215.1C450.4 224.5 450.4 239.7 441 249C431.6 258.3 416.4 258.4 407.1 249L400.1 242L356.8 285.3C374 314.1 384 347.9 384 384C384 423.4 372.1 460.1 351.8 490.5C342.2 504.9 325.3 512 308 512H76.1C58.8 512 41.9 504.9 32.3 490.5C11.9 460.1 0 423.4 0 384C0 316.2 35.1 256.7 88.1 222.5C92.9 219.4 96 214.2 96 208.5V64C78.3 64 64 49.7 64 32C64 14.3 78.3 0 96 0H112H272H288C305.7 0 320 14.3 320 32C320 49.7 305.7 64 288 64Z" fill="black"/>
</g>
</g>
</g>
</g>
</g>
</g>
</g>
</g>
</g>
</g>
</g>
</g>
</g>
</g>
</g>
<defs>
<clipPath id="clip0_3932_3531">
<rect width="448" height="512" fill="white"/>
</clipPath>
</defs>
</svg>
