<svg width="448" height="512" viewBox="0 0 448 512" fill="none" xmlns="http://www.w3.org/2000/svg">
<g clip-path="url(#clip0_3932_3647)">
<mask id="mask0_3932_3647" style="mask-type:luminance" maskUnits="userSpaceOnUse" x="0" y="0" width="448" height="512">
<path d="M448 0H0V512H448V0Z" fill="white"/>
</mask>
<g mask="url(#mask0_3932_3647)">
<mask id="mask1_3932_3647" style="mask-type:luminance" maskUnits="userSpaceOnUse" x="0" y="0" width="448" height="512">
<path d="M448 0H0V512H448V0Z" fill="white"/>
</mask>
<g mask="url(#mask1_3932_3647)">
<mask id="mask2_3932_3647" style="mask-type:luminance" maskUnits="userSpaceOnUse" x="0" y="0" width="448" height="512">
<path d="M448 0H0V512H448V0Z" fill="white"/>
</mask>
<g mask="url(#mask2_3932_3647)">
<mask id="mask3_3932_3647" style="mask-type:luminance" maskUnits="userSpaceOnUse" x="0" y="0" width="448" height="512">
<path d="M448 0H0V512H448V0Z" fill="white"/>
</mask>
<g mask="url(#mask3_3932_3647)">
<mask id="mask4_3932_3647" style="mask-type:luminance" maskUnits="userSpaceOnUse" x="0" y="0" width="448" height="512">
<path d="M448 0H0V512H448V0Z" fill="white"/>
</mask>
<g mask="url(#mask4_3932_3647)">
<mask id="mask5_3932_3647" style="mask-type:luminance" maskUnits="userSpaceOnUse" x="0" y="0" width="448" height="512">
<path d="M448 0H0V512H448V0Z" fill="white"/>
</mask>
<g mask="url(#mask5_3932_3647)">
<mask id="mask6_3932_3647" style="mask-type:luminance" maskUnits="userSpaceOnUse" x="0" y="0" width="448" height="512">
<path d="M448 0H0V512H448V0Z" fill="white"/>
</mask>
<g mask="url(#mask6_3932_3647)">
<mask id="mask7_3932_3647" style="mask-type:luminance" maskUnits="userSpaceOnUse" x="0" y="0" width="448" height="512">
<path d="M448 0H0V512H448V0Z" fill="white"/>
</mask>
<g mask="url(#mask7_3932_3647)">
<mask id="mask8_3932_3647" style="mask-type:luminance" maskUnits="userSpaceOnUse" x="0" y="0" width="448" height="512">
<path d="M448 0H0V512H448V0Z" fill="white"/>
</mask>
<g mask="url(#mask8_3932_3647)">
<mask id="mask9_3932_3647" style="mask-type:luminance" maskUnits="userSpaceOnUse" x="0" y="0" width="448" height="512">
<path d="M448 0H0V512H448V0Z" fill="white"/>
</mask>
<g mask="url(#mask9_3932_3647)">
<mask id="mask10_3932_3647" style="mask-type:luminance" maskUnits="userSpaceOnUse" x="0" y="0" width="448" height="512">
<path d="M448 0H0V512H448V0Z" fill="white"/>
</mask>
<g mask="url(#mask10_3932_3647)">
<mask id="mask11_3932_3647" style="mask-type:luminance" maskUnits="userSpaceOnUse" x="0" y="0" width="448" height="512">
<path d="M448 0H0V512H448V0Z" fill="white"/>
</mask>
<g mask="url(#mask11_3932_3647)">
<mask id="mask12_3932_3647" style="mask-type:luminance" maskUnits="userSpaceOnUse" x="0" y="0" width="448" height="512">
<path d="M448 0H0V512H448V0Z" fill="white"/>
</mask>
<g mask="url(#mask12_3932_3647)">
<mask id="mask13_3932_3647" style="mask-type:luminance" maskUnits="userSpaceOnUse" x="0" y="0" width="448" height="512">
<path d="M448 0H0V512H448V0Z" fill="white"/>
</mask>
<g mask="url(#mask13_3932_3647)">
<path d="M0 96C0 43 43 0 96 0H384H416C433.7 0 448 14.3 448 32V352C448 369.7 433.7 384 416 384V448C433.7 448 448 462.3 448 480C448 497.7 433.7 512 416 512H384H96C43 512 0 469 0 416V96ZM64 416C64 433.7 78.3 448 96 448H352V384H96C78.3 384 64 398.3 64 416ZM247.4 283.8C243.7 287.5 241.2 288 240 288C238.8 288 236.3 287.5 232.6 283.8C228.8 280.1 224.6 273.8 220.8 264.9C214.6 250.4 210 230.6 208.6 208H271.6C270.1 230.6 265.6 250.4 259.4 264.9C255.6 273.8 251.4 280.1 247.6 283.8H247.4ZM290.1 273.9C297.4 255.6 302.1 232.8 303.5 208H334.6C329.9 235.9 313.2 259.7 290.1 273.9ZM290.1 110.1C313.3 124.3 330 148.1 334.6 176H303.5C302.1 151.3 297.4 128.5 290.1 110.1ZM368 192C368 158.052 354.514 125.495 330.51 101.49C306.505 77.4857 273.948 64 240 64C206.052 64 173.495 77.4857 149.49 101.49C125.486 125.495 112 158.052 112 192C112 225.948 125.486 258.505 149.49 282.51C173.495 306.514 206.052 320 240 320C273.948 320 306.505 306.514 330.51 282.51C354.514 258.505 368 225.948 368 192ZM145.3 208H176.4C177.8 232.7 182.5 255.5 189.8 273.9C166.6 259.7 149.9 235.9 145.3 208ZM176.4 176H145.3C150 148.1 166.7 124.3 189.8 110.1C182.5 128.4 177.8 151.2 176.4 176ZM232.5 100.2C236.2 96.5 238.7 96 239.9 96C241.1 96 243.6 96.5 247.3 100.2C251.1 103.9 255.3 110.2 259.1 119.1C265.3 133.6 269.9 153.4 271.3 176H208.3C209.8 153.4 214.3 133.6 220.5 119.1C224.3 110.2 228.5 103.9 232.3 100.2H232.5Z" fill="black"/>
</g>
</g>
</g>
</g>
</g>
</g>
</g>
</g>
</g>
</g>
</g>
</g>
</g>
</g>
</g>
<defs>
<clipPath id="clip0_3932_3647">
<rect width="448" height="512" fill="white"/>
</clipPath>
</defs>
</svg>
