<svg width="448" height="512" viewBox="0 0 448 512" fill="none" xmlns="http://www.w3.org/2000/svg">
<g clip-path="url(#clip0_3932_3879)">
<mask id="mask0_3932_3879" style="mask-type:luminance" maskUnits="userSpaceOnUse" x="0" y="0" width="448" height="512">
<path d="M448 0H0V512H448V0Z" fill="white"/>
</mask>
<g mask="url(#mask0_3932_3879)">
<mask id="mask1_3932_3879" style="mask-type:luminance" maskUnits="userSpaceOnUse" x="0" y="0" width="448" height="512">
<path d="M448 0H0V512H448V0Z" fill="white"/>
</mask>
<g mask="url(#mask1_3932_3879)">
<mask id="mask2_3932_3879" style="mask-type:luminance" maskUnits="userSpaceOnUse" x="0" y="0" width="448" height="512">
<path d="M448 0H0V512H448V0Z" fill="white"/>
</mask>
<g mask="url(#mask2_3932_3879)">
<mask id="mask3_3932_3879" style="mask-type:luminance" maskUnits="userSpaceOnUse" x="0" y="0" width="448" height="512">
<path d="M448 0H0V512H448V0Z" fill="white"/>
</mask>
<g mask="url(#mask3_3932_3879)">
<mask id="mask4_3932_3879" style="mask-type:luminance" maskUnits="userSpaceOnUse" x="0" y="0" width="448" height="512">
<path d="M448 0H0V512H448V0Z" fill="white"/>
</mask>
<g mask="url(#mask4_3932_3879)">
<mask id="mask5_3932_3879" style="mask-type:luminance" maskUnits="userSpaceOnUse" x="0" y="0" width="448" height="512">
<path d="M448 0H0V512H448V0Z" fill="white"/>
</mask>
<g mask="url(#mask5_3932_3879)">
<mask id="mask6_3932_3879" style="mask-type:luminance" maskUnits="userSpaceOnUse" x="0" y="0" width="448" height="512">
<path d="M448 0H0V512H448V0Z" fill="white"/>
</mask>
<g mask="url(#mask6_3932_3879)">
<mask id="mask7_3932_3879" style="mask-type:luminance" maskUnits="userSpaceOnUse" x="0" y="0" width="448" height="512">
<path d="M448 0H0V512H448V0Z" fill="white"/>
</mask>
<g mask="url(#mask7_3932_3879)">
<mask id="mask8_3932_3879" style="mask-type:luminance" maskUnits="userSpaceOnUse" x="0" y="0" width="448" height="512">
<path d="M448 0H0V512H448V0Z" fill="white"/>
</mask>
<g mask="url(#mask8_3932_3879)">
<mask id="mask9_3932_3879" style="mask-type:luminance" maskUnits="userSpaceOnUse" x="0" y="0" width="448" height="512">
<path d="M448 0H0V512H448V0Z" fill="white"/>
</mask>
<g mask="url(#mask9_3932_3879)">
<mask id="mask10_3932_3879" style="mask-type:luminance" maskUnits="userSpaceOnUse" x="0" y="0" width="448" height="512">
<path d="M448 0H0V512H448V0Z" fill="white"/>
</mask>
<g mask="url(#mask10_3932_3879)">
<mask id="mask11_3932_3879" style="mask-type:luminance" maskUnits="userSpaceOnUse" x="0" y="0" width="448" height="512">
<path d="M448 0H0V512H448V0Z" fill="white"/>
</mask>
<g mask="url(#mask11_3932_3879)">
<mask id="mask12_3932_3879" style="mask-type:luminance" maskUnits="userSpaceOnUse" x="0" y="0" width="448" height="512">
<path d="M448 0H0V512H448V0Z" fill="white"/>
</mask>
<g mask="url(#mask12_3932_3879)">
<mask id="mask13_3932_3879" style="mask-type:luminance" maskUnits="userSpaceOnUse" x="0" y="0" width="448" height="512">
<path d="M448 0H0V512H448V0Z" fill="white"/>
</mask>
<g mask="url(#mask13_3932_3879)">
<path d="M0 96C0 43 43 0 96 0H384H416C433.7 0 448 14.3 448 32V352C448 369.7 433.7 384 416 384V448C433.7 448 448 462.3 448 480C448 497.7 433.7 512 416 512H384H96C43 512 0 469 0 416V96ZM64 416C64 433.7 78.3 448 96 448H352V384H96C78.3 384 64 398.3 64 416ZM208 112V160H160C151.2 160 144 167.2 144 176V208C144 216.8 151.2 224 160 224H208V272C208 280.8 215.2 288 224 288H256C264.8 288 272 280.8 272 272V224H320C328.8 224 336 216.8 336 208V176C336 167.2 328.8 160 320 160H272V112C272 103.2 264.8 96 256 96H224C215.2 96 208 103.2 208 112Z" fill="black"/>
</g>
</g>
</g>
</g>
</g>
</g>
</g>
</g>
</g>
</g>
</g>
</g>
</g>
</g>
</g>
<defs>
<clipPath id="clip0_3932_3879">
<rect width="448" height="512" fill="white"/>
</clipPath>
</defs>
</svg>
