<svg width="320" height="512" viewBox="0 0 320 512" fill="none" xmlns="http://www.w3.org/2000/svg">
<path d="M96 0C82.7 0 72 10.7 72 24C72 37.3 82.7 48 96 48C100.4 48 104 51.6 104 56V120.9C104 133.1 96.8 144 86.8 151C53.7 174.1 32 212.5 32 256V448C32 483.3 60.7 512 96 512H224C259.3 512 288 483.3 288 448V256C288 212.5 266.3 174.1 233.2 151C223.2 144 216 133.1 216 120.9V56C216 51.6 219.6 48 224 48C237.3 48 248 37.3 248 24C248 10.7 237.3 0 224 0H216H104H96ZM160 382C133.5 382 112 361.9 112 337C112 320.2 134.1 288.9 148.3 270.6C154.3 262.8 165.8 262.8 171.8 270.6C185.9 288.9 208 320.2 208 337C208 361.9 186.5 382 160 382Z" fill="black"/>
</svg>
