<svg width="512" height="512" viewBox="0 0 512 512" fill="none" xmlns="http://www.w3.org/2000/svg">
<path d="M176 56C176 42.7 186.7 32 200 32H216C229.3 32 240 42.7 240 56C240 69.3 229.3 80 216 80H200C186.7 80 176 69.3 176 56ZM200 104H216C229.3 104 240 114.7 240 128C240 141.3 229.3 152 216 152H200C186.7 152 176 141.3 176 128C176 114.7 186.7 104 200 104ZM56 176H72C85.3 176 96 186.7 96 200C96 213.3 85.3 224 72 224H56C42.7 224 32 213.3 32 200C32 186.7 42.7 176 56 176ZM0 283.4C0 268.3 12.3 256 27.4 256H484.6C499.7 256 512 268.3 512 283.4C512 353.9 467.6 414.1 405.3 437.5L403.5 452C401.5 468 387.9 480 371.7 480H140.2C124.1 480 110.4 468 108.4 452L106.6 437.6C44.4 414.1 0 353.9 0 283.4ZM224 200C224 186.7 234.7 176 248 176H264C277.3 176 288 186.7 288 200C288 213.3 277.3 224 264 224H248C234.7 224 224 213.3 224 200ZM128 200C128 186.7 138.7 176 152 176H168C181.3 176 192 186.7 192 200C192 213.3 181.3 224 168 224H152C138.7 224 128 213.3 128 200ZM104 104H120C133.3 104 144 114.7 144 128C144 141.3 133.3 152 120 152H104C90.7 152 80 141.3 80 128C80 114.7 90.7 104 104 104ZM320 200C320 186.7 330.7 176 344 176H360C373.3 176 384 186.7 384 200C384 213.3 373.3 224 360 224H344C330.7 224 320 213.3 320 200ZM296 104H312C325.3 104 336 114.7 336 128C336 141.3 325.3 152 312 152H296C282.7 152 272 141.3 272 128C272 114.7 282.7 104 296 104ZM416 200C416 186.7 426.7 176 440 176H456C469.3 176 480 186.7 480 200C480 213.3 469.3 224 456 224H440C426.7 224 416 213.3 416 200ZM392 104H408C421.3 104 432 114.7 432 128C432 141.3 421.3 152 408 152H392C378.7 152 368 141.3 368 128C368 114.7 378.7 104 392 104ZM296 32H312C325.3 32 336 42.7 336 56C336 69.3 325.3 80 312 80H296C282.7 80 272 69.3 272 56C272 42.7 282.7 32 296 32Z" fill="black"/>
</svg>
