<svg width="640" height="512" viewBox="0 0 640 512" fill="none" xmlns="http://www.w3.org/2000/svg">
<path d="M58.904 42.0979C61.904 35.9979 68.504 32.4979 75.204 33.3979L320.004 63.9979L564.804 33.3979C571.504 32.5979 578.104 36.0979 581.104 42.0979L622.804 125.498C631.804 143.398 622.204 165.098 603.004 170.598L439.604 217.298C425.704 221.298 410.804 215.398 403.404 202.998L320.004 63.9979L236.604 202.998C229.204 215.398 214.304 221.298 200.404 217.298L37.104 170.598C17.804 165.098 8.30394 143.398 17.304 125.498L58.904 42.0979ZM321.104 127.998L376.004 219.398C390.904 244.198 420.604 255.998 448.504 247.998L576.004 211.598V378.598C576.004 400.598 561.004 419.798 539.604 425.198L335.504 476.198C325.304 478.798 314.604 478.798 304.504 476.198L100.404 425.198C79.004 419.698 64.004 400.498 64.004 378.498V211.498L191.604 247.998C219.404 255.998 249.204 244.198 264.104 219.398L318.904 127.998H321.104Z" fill="black"/>
</svg>
