<svg width="512" height="512" viewBox="0 0 512 512" fill="none" xmlns="http://www.w3.org/2000/svg">
<g clip-path="url(#clip0_3932_4530)">
<mask id="mask0_3932_4530" style="mask-type:luminance" maskUnits="userSpaceOnUse" x="0" y="0" width="512" height="512">
<path d="M512 0H0V512H512V0Z" fill="white"/>
</mask>
<g mask="url(#mask0_3932_4530)">
<mask id="mask1_3932_4530" style="mask-type:luminance" maskUnits="userSpaceOnUse" x="0" y="0" width="512" height="512">
<path d="M512 0H0V512H512V0Z" fill="white"/>
</mask>
<g mask="url(#mask1_3932_4530)">
<mask id="mask2_3932_4530" style="mask-type:luminance" maskUnits="userSpaceOnUse" x="0" y="0" width="512" height="512">
<path d="M512 0H0V512H512V0Z" fill="white"/>
</mask>
<g mask="url(#mask2_3932_4530)">
<mask id="mask3_3932_4530" style="mask-type:luminance" maskUnits="userSpaceOnUse" x="0" y="0" width="512" height="512">
<path d="M512 0H0V512H512V0Z" fill="white"/>
</mask>
<g mask="url(#mask3_3932_4530)">
<mask id="mask4_3932_4530" style="mask-type:luminance" maskUnits="userSpaceOnUse" x="0" y="0" width="512" height="512">
<path d="M512 0H0V512H512V0Z" fill="white"/>
</mask>
<g mask="url(#mask4_3932_4530)">
<mask id="mask5_3932_4530" style="mask-type:luminance" maskUnits="userSpaceOnUse" x="0" y="0" width="512" height="512">
<path d="M512 0H0V512H512V0Z" fill="white"/>
</mask>
<g mask="url(#mask5_3932_4530)">
<mask id="mask6_3932_4530" style="mask-type:luminance" maskUnits="userSpaceOnUse" x="0" y="0" width="512" height="512">
<path d="M512 0H0V512H512V0Z" fill="white"/>
</mask>
<g mask="url(#mask6_3932_4530)">
<mask id="mask7_3932_4530" style="mask-type:luminance" maskUnits="userSpaceOnUse" x="0" y="0" width="512" height="512">
<path d="M512 0H0V512H512V0Z" fill="white"/>
</mask>
<g mask="url(#mask7_3932_4530)">
<mask id="mask8_3932_4530" style="mask-type:luminance" maskUnits="userSpaceOnUse" x="0" y="0" width="512" height="512">
<path d="M512 0H0V512H512V0Z" fill="white"/>
</mask>
<g mask="url(#mask8_3932_4530)">
<mask id="mask9_3932_4530" style="mask-type:luminance" maskUnits="userSpaceOnUse" x="0" y="0" width="512" height="512">
<path d="M512 0H0V512H512V0Z" fill="white"/>
</mask>
<g mask="url(#mask9_3932_4530)">
<mask id="mask10_3932_4530" style="mask-type:luminance" maskUnits="userSpaceOnUse" x="0" y="0" width="512" height="512">
<path d="M512 0H0V512H512V0Z" fill="white"/>
</mask>
<g mask="url(#mask10_3932_4530)">
<mask id="mask11_3932_4530" style="mask-type:luminance" maskUnits="userSpaceOnUse" x="0" y="0" width="512" height="512">
<path d="M512 0H0V512H512V0Z" fill="white"/>
</mask>
<g mask="url(#mask11_3932_4530)">
<mask id="mask12_3932_4530" style="mask-type:luminance" maskUnits="userSpaceOnUse" x="0" y="0" width="512" height="512">
<path d="M512 0H0V512H512V0Z" fill="white"/>
</mask>
<g mask="url(#mask12_3932_4530)">
<mask id="mask13_3932_4530" style="mask-type:luminance" maskUnits="userSpaceOnUse" x="0" y="0" width="512" height="512">
<path d="M512 0H0V512H512V0Z" fill="white"/>
</mask>
<g mask="url(#mask13_3932_4530)">
<path d="M92.5 0H208C248 0 260 24 272 48C284 72 296 96 336 96H421.2C436 96 448 108 448 122.8C448 126.2 447.3 129.6 446.1 132.8L409.6 224L384 288H128L112 224L64.9 35.4C64.3 33.1 64 30.8 64 28.5C64 12.8 76.8 0 92.5 0ZM79 224L95 288H80C71.2 288 64 295.2 64 304C64 312.8 71.2 320 80 320H128H384H432C440.8 320 448 312.8 448 304C448 295.2 440.8 288 432 288H418.5L444.1 224H464C490.5 224 512 245.5 512 272V384H0V272C0 245.5 21.5 224 48 224H79ZM0 416H512V464C512 490.5 490.5 512 464 512H48C21.5 512 0 490.5 0 464V416Z" fill="black"/>
</g>
</g>
</g>
</g>
</g>
</g>
</g>
</g>
</g>
</g>
</g>
</g>
</g>
</g>
</g>
<defs>
<clipPath id="clip0_3932_4530">
<rect width="512" height="512" fill="white"/>
</clipPath>
</defs>
</svg>
