<svg width="512" height="512" viewBox="0 0 512 512" fill="none" xmlns="http://www.w3.org/2000/svg">
<g clip-path="url(#clip0_3932_4652)">
<mask id="mask0_3932_4652" style="mask-type:luminance" maskUnits="userSpaceOnUse" x="0" y="0" width="512" height="512">
<path d="M512 0H0V512H512V0Z" fill="white"/>
</mask>
<g mask="url(#mask0_3932_4652)">
<mask id="mask1_3932_4652" style="mask-type:luminance" maskUnits="userSpaceOnUse" x="0" y="0" width="512" height="512">
<path d="M512 0H0V512H512V0Z" fill="white"/>
</mask>
<g mask="url(#mask1_3932_4652)">
<mask id="mask2_3932_4652" style="mask-type:luminance" maskUnits="userSpaceOnUse" x="0" y="0" width="512" height="512">
<path d="M512 0H0V512H512V0Z" fill="white"/>
</mask>
<g mask="url(#mask2_3932_4652)">
<mask id="mask3_3932_4652" style="mask-type:luminance" maskUnits="userSpaceOnUse" x="0" y="0" width="512" height="512">
<path d="M512 0H0V512H512V0Z" fill="white"/>
</mask>
<g mask="url(#mask3_3932_4652)">
<mask id="mask4_3932_4652" style="mask-type:luminance" maskUnits="userSpaceOnUse" x="0" y="0" width="512" height="512">
<path d="M512 0H0V512H512V0Z" fill="white"/>
</mask>
<g mask="url(#mask4_3932_4652)">
<mask id="mask5_3932_4652" style="mask-type:luminance" maskUnits="userSpaceOnUse" x="0" y="0" width="512" height="512">
<path d="M512 0H0V512H512V0Z" fill="white"/>
</mask>
<g mask="url(#mask5_3932_4652)">
<mask id="mask6_3932_4652" style="mask-type:luminance" maskUnits="userSpaceOnUse" x="0" y="0" width="512" height="512">
<path d="M512 0H0V512H512V0Z" fill="white"/>
</mask>
<g mask="url(#mask6_3932_4652)">
<mask id="mask7_3932_4652" style="mask-type:luminance" maskUnits="userSpaceOnUse" x="0" y="0" width="512" height="512">
<path d="M512 0H0V512H512V0Z" fill="white"/>
</mask>
<g mask="url(#mask7_3932_4652)">
<mask id="mask8_3932_4652" style="mask-type:luminance" maskUnits="userSpaceOnUse" x="0" y="0" width="512" height="512">
<path d="M512 0H0V512H512V0Z" fill="white"/>
</mask>
<g mask="url(#mask8_3932_4652)">
<mask id="mask9_3932_4652" style="mask-type:luminance" maskUnits="userSpaceOnUse" x="0" y="0" width="512" height="512">
<path d="M512 0H0V512H512V0Z" fill="white"/>
</mask>
<g mask="url(#mask9_3932_4652)">
<mask id="mask10_3932_4652" style="mask-type:luminance" maskUnits="userSpaceOnUse" x="0" y="0" width="512" height="512">
<path d="M512 0H0V512H512V0Z" fill="white"/>
</mask>
<g mask="url(#mask10_3932_4652)">
<mask id="mask11_3932_4652" style="mask-type:luminance" maskUnits="userSpaceOnUse" x="0" y="0" width="512" height="512">
<path d="M512 0H0V512H512V0Z" fill="white"/>
</mask>
<g mask="url(#mask11_3932_4652)">
<mask id="mask12_3932_4652" style="mask-type:luminance" maskUnits="userSpaceOnUse" x="0" y="0" width="512" height="512">
<path d="M512 0H0V512H512V0Z" fill="white"/>
</mask>
<g mask="url(#mask12_3932_4652)">
<mask id="mask13_3932_4652" style="mask-type:luminance" maskUnits="userSpaceOnUse" x="0" y="0" width="512" height="512">
<path d="M512 0H0V512H512V0Z" fill="white"/>
</mask>
<g mask="url(#mask13_3932_4652)">
<path d="M400 0C417.7 0 432 14.3 432 32V50.2C444.5 52.5 456.7 56.6 468.2 62.3L478.3 67.4C494.1 75.3 500.5 94.5 492.6 110.3C484.7 126.1 465.5 132.5 449.7 124.6L439.5 119.5C429.6 114.5 418.6 112 407.5 112H405.8C376 112 351.9 136.1 351.9 165.9C351.9 187.9 365.3 207.7 385.8 215.9L437.8 236.7C482.5 254.6 511.9 297.9 511.9 346.1V349.5C511.9 400.7 478.3 444.1 431.9 458.7V480C431.9 497.7 417.6 512 399.9 512C382.2 512 367.9 497.7 367.9 480V460.6C352.9 457.1 338.5 450.9 325.6 442.3L302.2 426.7C287.5 416.9 283.5 397 293.3 382.3C303.1 367.6 323 363.6 337.7 373.4L361.2 389C372 396.2 384.6 400 397.5 400C425.4 400 448 377.4 448 349.5V346.1C448 324.1 434.6 304.3 414.1 296.1L362.1 275.3C317.3 257.4 288 214.1 288 165.9C288 114 321.5 70 368 54.2V32C368 14.3 382.3 0 400 0ZM0 64C0 46.3 14.3 32 32 32H112C191.5 32 256 96.5 256 176C256 234.8 220.8 285.3 170.3 307.7L221.7 436.1C228.3 452.5 220.3 471.1 203.9 477.7C187.5 484.3 168.9 476.3 162.3 459.9L106.3 320H64V448C64 465.7 49.7 480 32 480C14.3 480 0 465.7 0 448V288V64ZM64 256H112C156.2 256 192 220.2 192 176C192 131.8 156.2 96 112 96H64V256Z" fill="black"/>
</g>
</g>
</g>
</g>
</g>
</g>
</g>
</g>
</g>
</g>
</g>
</g>
</g>
</g>
</g>
<defs>
<clipPath id="clip0_3932_4652">
<rect width="512" height="512" fill="white"/>
</clipPath>
</defs>
</svg>
