<svg width="576" height="512" viewBox="0 0 576 512" fill="none" xmlns="http://www.w3.org/2000/svg">
<path d="M32 32C14.3 32 0 46.3 0 64C0 81.7 14.3 96 32 96H72V160H0V288C53 288 96 331 96 384V448C96 465.7 110.3 480 128 480H160C177.7 480 192 465.7 192 448V384C192 331 235 288 288 288C341 288 384 331 384 384V448C384 465.7 398.3 480 416 480H448C465.7 480 480 465.7 480 448V384C480 331 523 288 576 288V160H504V96H544C561.7 96 576 81.7 576 64C576 46.3 561.7 32 544 32H32ZM456 96V160H376V96H456ZM328 96V160H248V96H328ZM200 96V160H120V96H200Z" fill="black"/>
</svg>
