<svg width="640" height="512" viewBox="0 0 640 512" fill="none" xmlns="http://www.w3.org/2000/svg">
<path d="M64 32C46.3 32 32 46.3 32 64C32 81.7 46.3 96 64 96H104V160H32V288C85 288 128 331 128 384V448C128 465.7 142.3 480 160 480H192C209.7 480 224 465.7 224 448V384C224 331 267 288 320 288C326.3 288 332.4 288.6 338.3 289.7C367.1 231.8 426.9 192 496 192C538.5 192 577.6 207.1 608 232.2V160H536V96H576C593.7 96 608 81.7 608 64C608 46.3 593.7 32 576 32H64ZM488 96V160H408V96H488ZM360 96V160H280V96H360ZM232 96V160H152V96H232ZM496 512C534.191 512 570.818 496.829 597.823 469.823C624.829 442.818 640 406.191 640 368C640 329.809 624.829 293.182 597.823 266.177C570.818 239.171 534.191 224 496 224C457.809 224 421.182 239.171 394.177 266.177C367.171 293.182 352 329.809 352 368C352 406.191 367.171 442.818 394.177 469.823C421.182 496.829 457.809 512 496 512ZM496 416C502.365 416 508.47 418.529 512.971 423.029C517.471 427.53 520 433.635 520 440C520 446.365 517.471 452.47 512.971 456.971C508.47 461.471 502.365 464 496 464C489.635 464 483.53 461.471 479.029 456.971C474.529 452.47 472 446.365 472 440C472 433.635 474.529 427.53 479.029 423.029C483.53 418.529 489.635 416 496 416ZM496 272C504.8 272 512 279.2 512 288V368C512 376.8 504.8 384 496 384C487.2 384 480 376.8 480 368V288C480 279.2 487.2 272 496 272Z" fill="black"/>
</svg>
