<svg width="640" height="512" viewBox="0 0 640 512" fill="none" xmlns="http://www.w3.org/2000/svg">
<path d="M32 64C32 46.3 46.3 32 64 32H576C593.7 32 608 46.3 608 64C608 81.7 593.7 96 576 96H536V160H528C466.1 160 416 210.1 416 272V296.6C406.1 302.4 397.8 310.7 392.2 320.7C374.6 300.7 348.8 288 320 288C267 288 224 331 224 384V448C224 465.7 209.7 480 192 480H160C142.3 480 128 465.7 128 448V384C128 331 85 288 32 288V160H104V96H64C46.3 96 32 81.7 32 64ZM408 96V160H488V96H408ZM360 160V96H280V160H360ZM152 96V160H232V96H152ZM528 240C510.3 240 496 254.3 496 272V320H560V272C560 254.3 545.7 240 528 240ZM448 272C448 227.8 483.8 192 528 192C572.2 192 608 227.8 608 272V320C625.7 320 640 334.3 640 352V480C640 497.7 625.7 512 608 512H448C430.3 512 416 497.7 416 480V352C416 334.3 430.3 320 448 320V272Z" fill="black"/>
</svg>
