<svg width="576" height="512" viewBox="0 0 576 512" fill="none" xmlns="http://www.w3.org/2000/svg">
<g clip-path="url(#clip0_3932_4786)">
<mask id="mask0_3932_4786" style="mask-type:luminance" maskUnits="userSpaceOnUse" x="0" y="0" width="576" height="512">
<path d="M576 0H0V512H576V0Z" fill="white"/>
</mask>
<g mask="url(#mask0_3932_4786)">
<mask id="mask1_3932_4786" style="mask-type:luminance" maskUnits="userSpaceOnUse" x="0" y="0" width="576" height="512">
<path d="M576 0H0V512H576V0Z" fill="white"/>
</mask>
<g mask="url(#mask1_3932_4786)">
<mask id="mask2_3932_4786" style="mask-type:luminance" maskUnits="userSpaceOnUse" x="0" y="0" width="576" height="512">
<path d="M576 0H0V512H576V0Z" fill="white"/>
</mask>
<g mask="url(#mask2_3932_4786)">
<mask id="mask3_3932_4786" style="mask-type:luminance" maskUnits="userSpaceOnUse" x="0" y="0" width="576" height="512">
<path d="M576 0H0V512H576V0Z" fill="white"/>
</mask>
<g mask="url(#mask3_3932_4786)">
<mask id="mask4_3932_4786" style="mask-type:luminance" maskUnits="userSpaceOnUse" x="0" y="0" width="576" height="512">
<path d="M576 0H0V512H576V0Z" fill="white"/>
</mask>
<g mask="url(#mask4_3932_4786)">
<mask id="mask5_3932_4786" style="mask-type:luminance" maskUnits="userSpaceOnUse" x="0" y="0" width="576" height="512">
<path d="M576 0H0V512H576V0Z" fill="white"/>
</mask>
<g mask="url(#mask5_3932_4786)">
<mask id="mask6_3932_4786" style="mask-type:luminance" maskUnits="userSpaceOnUse" x="0" y="0" width="576" height="512">
<path d="M576 0H0V512H576V0Z" fill="white"/>
</mask>
<g mask="url(#mask6_3932_4786)">
<mask id="mask7_3932_4786" style="mask-type:luminance" maskUnits="userSpaceOnUse" x="0" y="0" width="576" height="512">
<path d="M576 0H0V512H576V0Z" fill="white"/>
</mask>
<g mask="url(#mask7_3932_4786)">
<mask id="mask8_3932_4786" style="mask-type:luminance" maskUnits="userSpaceOnUse" x="0" y="0" width="576" height="512">
<path d="M576 0H0V512H576V0Z" fill="white"/>
</mask>
<g mask="url(#mask8_3932_4786)">
<mask id="mask9_3932_4786" style="mask-type:luminance" maskUnits="userSpaceOnUse" x="0" y="0" width="576" height="512">
<path d="M576 0H0V512H576V0Z" fill="white"/>
</mask>
<g mask="url(#mask9_3932_4786)">
<mask id="mask10_3932_4786" style="mask-type:luminance" maskUnits="userSpaceOnUse" x="0" y="0" width="576" height="512">
<path d="M576 0H0V512H576V0Z" fill="white"/>
</mask>
<g mask="url(#mask10_3932_4786)">
<mask id="mask11_3932_4786" style="mask-type:luminance" maskUnits="userSpaceOnUse" x="0" y="0" width="576" height="512">
<path d="M576 0H0V512H576V0Z" fill="white"/>
</mask>
<g mask="url(#mask11_3932_4786)">
<mask id="mask12_3932_4786" style="mask-type:luminance" maskUnits="userSpaceOnUse" x="0" y="0" width="576" height="512">
<path d="M576 0H0V512H576V0Z" fill="white"/>
</mask>
<g mask="url(#mask12_3932_4786)">
<mask id="mask13_3932_4786" style="mask-type:luminance" maskUnits="userSpaceOnUse" x="0" y="0" width="576" height="512">
<path d="M576 0H0V512H576V0Z" fill="white"/>
</mask>
<g mask="url(#mask13_3932_4786)">
<path d="M566.6 9.39686C579.1 21.8969 579.1 42.1969 566.6 54.6969L374.6 246.697L409.3 281.397C413.5 285.597 415.9 291.397 415.9 297.397C415.9 309.897 405.8 319.997 393.3 319.997H364.3L256 211.697V182.597C256 170.097 266.1 159.997 278.6 159.997C284.6 159.997 290.4 162.397 294.6 166.597L329.3 201.297L521.3 9.29688C533.8 -3.20312 554.1 -3.20312 566.6 9.29688V9.39686ZM222.6 234.897L341.1 353.397C344.8 396.097 329.4 438.597 298.8 469.197C271.4 496.597 234.2 511.997 195.5 511.997H22.1C9.9 511.997 0 502.097 0 489.897C0 483.597 2.7 477.597 7.3 473.397L133.7 359.697C137.9 355.997 133.3 349.297 128.3 351.797L77.2 377.397C71.1 380.397 64 375.997 64 369.197C64 337.697 76.5 307.497 98.8 285.197L106.8 277.197C137.4 246.597 179.9 231.297 222.6 234.897ZM464 351.997C485.217 351.997 505.566 360.425 520.569 375.428C535.571 390.431 544 410.779 544 431.997C544 453.214 535.571 473.562 520.569 488.565C505.566 503.568 485.217 511.997 464 511.997C442.783 511.997 422.434 503.568 407.431 488.565C392.429 473.562 384 453.214 384 431.997C384 410.779 392.429 390.431 407.431 375.428C422.434 360.425 442.783 351.997 464 351.997Z" fill="black"/>
</g>
</g>
</g>
</g>
</g>
</g>
</g>
</g>
</g>
</g>
</g>
</g>
</g>
</g>
</g>
<defs>
<clipPath id="clip0_3932_4786">
<rect width="576" height="512" fill="white"/>
</clipPath>
</defs>
</svg>
