<svg width="512" height="512" viewBox="0 0 512 512" fill="none" xmlns="http://www.w3.org/2000/svg">
<path d="M61.1 224C45 224 32 211 32 194.9C32 193 32.2 191.2 32.6 189.3C37.9 168.3 78.8 32 256 32C433.2 32 474.1 168.3 479.4 189.3C479.9 191.2 480 193 480 194.9C480 211 467 224 450.9 224H61.1ZM144 128C144 123.757 142.314 119.687 139.314 116.686C136.313 113.686 132.243 112 128 112C123.757 112 119.687 113.686 116.686 116.686C113.686 119.687 112 123.757 112 128C112 132.243 113.686 136.313 116.686 139.314C119.687 142.314 123.757 144 128 144C132.243 144 136.313 142.314 139.314 139.314C142.314 136.313 144 132.243 144 128ZM384 144C388.243 144 392.313 142.314 395.314 139.314C398.314 136.313 400 132.243 400 128C400 123.757 398.314 119.687 395.314 116.686C392.313 113.686 388.243 112 384 112C379.757 112 375.687 113.686 372.686 116.686C369.686 119.687 368 123.757 368 128C368 132.243 369.686 136.313 372.686 139.314C375.687 142.314 379.757 144 384 144ZM272 96C272 91.7565 270.314 87.6869 267.314 84.6863C264.313 81.6857 260.243 80 256 80C251.757 80 247.687 81.6857 244.686 84.6863C241.686 87.6869 240 91.7565 240 96C240 100.243 241.686 104.313 244.686 107.314C247.687 110.314 251.757 112 256 112C260.243 112 264.313 110.314 267.314 107.314C270.314 104.313 272 100.243 272 96ZM16 304C16 277.5 37.5 256 64 256H448C474.5 256 496 277.5 496 304C496 330.5 474.5 352 448 352H64C37.5 352 16 330.5 16 304ZM32 400C32 391.2 39.2 384 48 384H464C472.8 384 480 391.2 480 400V416C480 451.3 451.3 480 416 480H96C60.7 480 32 451.3 32 416V400Z" fill="black"/>
</svg>
