<svg width="448" height="512" viewBox="0 0 448 512" fill="none" xmlns="http://www.w3.org/2000/svg">
<path d="M0 32V160H128V32H0ZM120 152H8V40H120V152ZM160 32V160H288V32H160ZM280 152H168V40H280V152ZM320 32V160H448V32H320ZM440 152H328V40H440V152ZM0 192V320H128V192H0ZM120 312H8V200H120V312ZM160 192V320H288V192H160ZM280 312H168V200H280V312ZM320 192V320H448V192H320ZM440 312H328V200H440V312ZM0 352V480H128V352H0ZM120 472H8V360H120V472ZM160 352V480H288V352H160ZM280 472H168V360H280V472ZM320 352V480H448V352H320Z" fill="black"/>
</svg>
