<svg width="640" height="512" viewBox="0 0 640 512" fill="none" xmlns="http://www.w3.org/2000/svg">
<g clip-path="url(#clip0_3932_5898)">
<mask id="mask0_3932_5898" style="mask-type:luminance" maskUnits="userSpaceOnUse" x="0" y="0" width="640" height="512">
<path d="M640 0H0V512H640V0Z" fill="white"/>
</mask>
<g mask="url(#mask0_3932_5898)">
<mask id="mask1_3932_5898" style="mask-type:luminance" maskUnits="userSpaceOnUse" x="0" y="0" width="640" height="512">
<path d="M640 0H0V512H640V0Z" fill="white"/>
</mask>
<g mask="url(#mask1_3932_5898)">
<mask id="mask2_3932_5898" style="mask-type:luminance" maskUnits="userSpaceOnUse" x="0" y="0" width="640" height="512">
<path d="M640 0H0V512H640V0Z" fill="white"/>
</mask>
<g mask="url(#mask2_3932_5898)">
<mask id="mask3_3932_5898" style="mask-type:luminance" maskUnits="userSpaceOnUse" x="0" y="0" width="640" height="512">
<path d="M640 0H0V512H640V0Z" fill="white"/>
</mask>
<g mask="url(#mask3_3932_5898)">
<mask id="mask4_3932_5898" style="mask-type:luminance" maskUnits="userSpaceOnUse" x="0" y="0" width="640" height="512">
<path d="M640 0H0V512H640V0Z" fill="white"/>
</mask>
<g mask="url(#mask4_3932_5898)">
<mask id="mask5_3932_5898" style="mask-type:luminance" maskUnits="userSpaceOnUse" x="0" y="0" width="640" height="512">
<path d="M640 0H0V512H640V0Z" fill="white"/>
</mask>
<g mask="url(#mask5_3932_5898)">
<mask id="mask6_3932_5898" style="mask-type:luminance" maskUnits="userSpaceOnUse" x="0" y="0" width="640" height="512">
<path d="M640 0H0V512H640V0Z" fill="white"/>
</mask>
<g mask="url(#mask6_3932_5898)">
<mask id="mask7_3932_5898" style="mask-type:luminance" maskUnits="userSpaceOnUse" x="0" y="0" width="640" height="512">
<path d="M640 0H0V512H640V0Z" fill="white"/>
</mask>
<g mask="url(#mask7_3932_5898)">
<mask id="mask8_3932_5898" style="mask-type:luminance" maskUnits="userSpaceOnUse" x="0" y="0" width="640" height="512">
<path d="M640 0H0V512H640V0Z" fill="white"/>
</mask>
<g mask="url(#mask8_3932_5898)">
<mask id="mask9_3932_5898" style="mask-type:luminance" maskUnits="userSpaceOnUse" x="0" y="0" width="640" height="512">
<path d="M640 0H0V512H640V0Z" fill="white"/>
</mask>
<g mask="url(#mask9_3932_5898)">
<mask id="mask10_3932_5898" style="mask-type:luminance" maskUnits="userSpaceOnUse" x="0" y="0" width="640" height="512">
<path d="M640 0H0V512H640V0Z" fill="white"/>
</mask>
<g mask="url(#mask10_3932_5898)">
<mask id="mask11_3932_5898" style="mask-type:luminance" maskUnits="userSpaceOnUse" x="0" y="0" width="640" height="512">
<path d="M640 0H0V512H640V0Z" fill="white"/>
</mask>
<g mask="url(#mask11_3932_5898)">
<mask id="mask12_3932_5898" style="mask-type:luminance" maskUnits="userSpaceOnUse" x="0" y="0" width="640" height="512">
<path d="M640 0H0V512H640V0Z" fill="white"/>
</mask>
<g mask="url(#mask12_3932_5898)">
<mask id="mask13_3932_5898" style="mask-type:luminance" maskUnits="userSpaceOnUse" x="0" y="0" width="640" height="512">
<path d="M640 0H0V512H640V0Z" fill="white"/>
</mask>
<g mask="url(#mask13_3932_5898)">
<path d="M184 48H328C332.4 48 336 51.6 336 56V96H176V56C176 51.6 179.6 48 184 48ZM128 56V96H64C28.7 96 0 124.7 0 160V256H192H352H360.2C392.5 216.9 441.3 192 496 192C501.4 192 506.7 192.2 512 192.7V160C512 124.7 483.3 96 448 96H384V56C384 25.1 358.9 0 328 0H184C153.1 0 128 25.1 128 56ZM320 352H224C206.3 352 192 337.7 192 320V288H0V416C0 451.3 28.7 480 64 480H360.2C335.1 449.6 320 410.5 320 368C320 362.6 320.2 357.3 320.7 352H320ZM640 368C640 329.809 624.829 293.182 597.823 266.177C570.818 239.171 534.191 224 496 224C457.809 224 421.182 239.171 394.177 266.177C367.171 293.182 352 329.809 352 368C352 406.191 367.171 442.818 394.177 469.823C421.182 496.829 457.809 512 496 512C534.191 512 570.818 496.829 597.823 469.823C624.829 442.818 640 406.191 640 368ZM496 288C504.8 288 512 295.2 512 304V352H544C552.8 352 560 359.2 560 368C560 376.8 552.8 384 544 384H496C487.2 384 480 376.8 480 368V304C480 295.2 487.2 288 496 288Z" fill="black"/>
</g>
</g>
</g>
</g>
</g>
</g>
</g>
</g>
</g>
</g>
</g>
</g>
</g>
</g>
</g>
<defs>
<clipPath id="clip0_3932_5898">
<rect width="640" height="512" fill="white"/>
</clipPath>
</defs>
</svg>
