<svg width="576" height="512" viewBox="0 0 576 512" fill="none" xmlns="http://www.w3.org/2000/svg">
<path d="M287.999 32C133.269 32 7.78906 132.32 7.78906 256C7.78906 379.68 133.269 480 287.999 480C442.729 480 568.209 379.68 568.209 256C568.209 132.32 442.729 32 287.999 32ZM202.609 389.19L64.0991 390.55L141.349 99.81H274.789C337.939 99.81 359.719 128.46 352.789 172.65C352.422 174.961 351.922 177.248 351.289 179.5C345.643 178.215 339.87 177.567 334.079 177.57C291.729 177.57 257.389 211.45 257.389 253.22C257.389 290.36 284.529 321.22 320.319 327.67C302.079 364.83 264.159 388.59 202.609 389.19ZM357.999 207.11H389.999L367.839 297.42H332.429L321.239 261.79L313.409 297.42H275.579L302.209 207.11H333.549L348.549 243.86L357.999 207.11ZM503.859 389.19H306.789L322.629 328C326.427 328.556 330.261 328.833 334.099 328.83C376.439 328.83 410.789 294.96 410.789 253.18C410.789 220.53 389.789 192.72 360.409 182.12L381.739 99.77H474.239L421.189 305.13H525.059L503.859 389.19ZM211.699 269.39H186.999L173.199 325.86H197.899C214.039 325.86 230.009 322.68 235.839 299.21C241.399 276.9 227.849 269.39 211.699 269.39ZM232.999 170H211.659L199.999 217.71H221.369C239.369 217.71 256.749 203.07 260.579 187.57C265.229 168.71 251.069 170 232.999 170Z" fill="black"/>
</svg>
