<svg width="448" height="512" viewBox="0 0 448 512" fill="none" xmlns="http://www.w3.org/2000/svg">
<g clip-path="url(#clip0_3932_6134)">
<mask id="mask0_3932_6134" style="mask-type:luminance" maskUnits="userSpaceOnUse" x="0" y="0" width="448" height="512">
<path d="M448 0H0V512H448V0Z" fill="white"/>
</mask>
<g mask="url(#mask0_3932_6134)">
<mask id="mask1_3932_6134" style="mask-type:luminance" maskUnits="userSpaceOnUse" x="0" y="0" width="448" height="512">
<path d="M448 0H0V512H448V0Z" fill="white"/>
</mask>
<g mask="url(#mask1_3932_6134)">
<mask id="mask2_3932_6134" style="mask-type:luminance" maskUnits="userSpaceOnUse" x="0" y="0" width="448" height="512">
<path d="M448 0H0V512H448V0Z" fill="white"/>
</mask>
<g mask="url(#mask2_3932_6134)">
<mask id="mask3_3932_6134" style="mask-type:luminance" maskUnits="userSpaceOnUse" x="0" y="0" width="448" height="512">
<path d="M448 0H0V512H448V0Z" fill="white"/>
</mask>
<g mask="url(#mask3_3932_6134)">
<mask id="mask4_3932_6134" style="mask-type:luminance" maskUnits="userSpaceOnUse" x="0" y="0" width="448" height="512">
<path d="M448 0H0V512H448V0Z" fill="white"/>
</mask>
<g mask="url(#mask4_3932_6134)">
<mask id="mask5_3932_6134" style="mask-type:luminance" maskUnits="userSpaceOnUse" x="0" y="0" width="448" height="512">
<path d="M448 0H0V512H448V0Z" fill="white"/>
</mask>
<g mask="url(#mask5_3932_6134)">
<mask id="mask6_3932_6134" style="mask-type:luminance" maskUnits="userSpaceOnUse" x="0" y="0" width="448" height="512">
<path d="M448 0H0V512H448V0Z" fill="white"/>
</mask>
<g mask="url(#mask6_3932_6134)">
<mask id="mask7_3932_6134" style="mask-type:luminance" maskUnits="userSpaceOnUse" x="0" y="0" width="448" height="512">
<path d="M448 0H0V512H448V0Z" fill="white"/>
</mask>
<g mask="url(#mask7_3932_6134)">
<mask id="mask8_3932_6134" style="mask-type:luminance" maskUnits="userSpaceOnUse" x="0" y="0" width="448" height="512">
<path d="M448 0H0V512H448V0Z" fill="white"/>
</mask>
<g mask="url(#mask8_3932_6134)">
<mask id="mask9_3932_6134" style="mask-type:luminance" maskUnits="userSpaceOnUse" x="0" y="0" width="448" height="512">
<path d="M448 0H0V512H448V0Z" fill="white"/>
</mask>
<g mask="url(#mask9_3932_6134)">
<mask id="mask10_3932_6134" style="mask-type:luminance" maskUnits="userSpaceOnUse" x="0" y="0" width="448" height="512">
<path d="M448 0H0V512H448V0Z" fill="white"/>
</mask>
<g mask="url(#mask10_3932_6134)">
<mask id="mask11_3932_6134" style="mask-type:luminance" maskUnits="userSpaceOnUse" x="0" y="0" width="448" height="512">
<path d="M448 0H0V512H448V0Z" fill="white"/>
</mask>
<g mask="url(#mask11_3932_6134)">
<mask id="mask12_3932_6134" style="mask-type:luminance" maskUnits="userSpaceOnUse" x="0" y="0" width="448" height="512">
<path d="M448 0H0V512H448V0Z" fill="white"/>
</mask>
<g mask="url(#mask12_3932_6134)">
<mask id="mask13_3932_6134" style="mask-type:luminance" maskUnits="userSpaceOnUse" x="0" y="0" width="448" height="512">
<path d="M448 0H0V512H448V0Z" fill="white"/>
</mask>
<g mask="url(#mask13_3932_6134)">
<path d="M86.4 5.5L61.8 47.6C58 54.1 56 61.6 56 69.2V72C56 94.1 73.9 112 96 112C118.1 112 136 94.1 136 72V69.2C136 61.6 134 54.2 130.2 47.6L105.6 5.5C103.6 2.1 100 0 96 0C92 0 88.4 2.1 86.4 5.5ZM214.4 5.5L189.8 47.6C186 54.1 184 61.6 184 69.2V72C184 94.1 201.9 112 224 112C246.1 112 264 94.1 264 72V69.2C264 61.6 262 54.2 258.2 47.6L233.6 5.5C231.6 2.1 228 0 224 0C220 0 216.4 2.1 214.4 5.5ZM317.8 47.6C314 54.1 312 61.6 312 69.2V72C312 94.1 329.9 112 352 112C374.1 112 392 94.1 392 72V69.2C392 61.6 390 54.2 386.2 47.6L361.6 5.5C359.6 2.1 356 0 352 0C348 0 344.4 2.1 342.4 5.5L317.8 47.6ZM128 176C128 158.3 113.7 144 96 144C78.3 144 64 158.3 64 176V224C28.7 224 0 252.7 0 288V359C8.3 364.2 18.1 368 28.8 368C42.3 368 56 361.9 67.2 354.6C72.6 351.1 77.1 347.5 80.2 344.9C81.7 343.6 82.9 342.5 83.7 341.8C84.1 341.4 84.4 341.2 84.5 341L84.6 340.9C87.7 337.7 92 336 96.5 336.1C101 336.2 105.1 338.2 108.1 341.5L108.2 341.6C108.3 341.7 108.6 342 108.9 342.3C109.6 343 110.6 344 112 345.3C114.8 347.9 118.8 351.4 123.8 354.8C134 361.9 146.8 367.9 160.1 367.9C173.4 367.9 186.2 361.9 196.4 354.8C201.4 351.3 205.4 347.9 208.2 345.3C209.6 344 210.6 343 211.3 342.3C211.6 342 211.9 341.7 212 341.6L212.1 341.5C215.1 338 219.5 336.1 224.1 336.1C228.7 336.1 233.1 338.1 236.1 341.5L236.2 341.6C236.3 341.7 236.6 342 236.9 342.3C237.6 343 238.6 344 240 345.3C242.8 347.9 246.8 351.4 251.8 354.8C262 361.9 274.8 367.9 288.1 367.9C301.4 367.9 314.2 361.9 324.4 354.8C329.4 351.3 333.4 347.9 336.2 345.3C337.6 344 338.6 343 339.3 342.3C339.6 342 339.9 341.7 340 341.6L340.1 341.5C343 338.1 347.2 336.2 351.7 336.1C356.2 336 360.4 337.7 363.6 340.9L363.7 341C363.9 341.2 364.1 341.4 364.5 341.8C365.3 342.5 366.4 343.6 368 344.9C371.1 347.5 375.5 351.1 381 354.6C392.2 361.9 405.9 368 419.4 368C430.1 368 439.9 364.1 448.2 359V288C448.2 252.7 419.5 224 384.2 224V176C384.2 158.3 369.9 144 352.2 144C334.5 144 320.2 158.3 320.2 176V224H256V176C256 158.3 241.7 144 224 144C206.3 144 192 158.3 192 176V224H128V176ZM448 394.6C439.5 397.9 429.8 400 419.2 400C396.7 400 376.8 390.1 363.4 381.4C359.3 378.7 355.6 376 352.5 373.6C349.7 376 346.4 378.6 342.7 381.1C329.8 390 310.6 400 288 400C265.4 400 246.2 390 233.4 381.1C229.9 378.7 226.7 376.2 224 373.9C221.3 376.2 218.1 378.6 214.6 381.1C201.8 390 182.6 400 160 400C137.4 400 118.2 390 105.4 381.1C101.7 378.5 98.4 375.9 95.6 373.6C92.5 376 88.8 378.7 84.7 381.4C71.2 390.1 51.3 400 28.8 400C18.2 400 8.5 397.8 0 394.6V480C0 497.7 14.3 512 32 512H416C433.7 512 448 497.7 448 480V394.6Z" fill="black"/>
</g>
</g>
</g>
</g>
</g>
</g>
</g>
</g>
</g>
</g>
</g>
</g>
</g>
</g>
</g>
<defs>
<clipPath id="clip0_3932_6134">
<rect width="448" height="512" fill="white"/>
</clipPath>
</defs>
</svg>
