<svg width="448" height="512" viewBox="0 0 448 512" fill="none" xmlns="http://www.w3.org/2000/svg">
<g clip-path="url(#clip0_3932_6366)">
<mask id="mask0_3932_6366" style="mask-type:luminance" maskUnits="userSpaceOnUse" x="0" y="0" width="448" height="512">
<path d="M448 0H0V512H448V0Z" fill="white"/>
</mask>
<g mask="url(#mask0_3932_6366)">
<mask id="mask1_3932_6366" style="mask-type:luminance" maskUnits="userSpaceOnUse" x="0" y="0" width="448" height="512">
<path d="M448 0H0V512H448V0Z" fill="white"/>
</mask>
<g mask="url(#mask1_3932_6366)">
<mask id="mask2_3932_6366" style="mask-type:luminance" maskUnits="userSpaceOnUse" x="0" y="0" width="448" height="512">
<path d="M448 0H0V512H448V0Z" fill="white"/>
</mask>
<g mask="url(#mask2_3932_6366)">
<mask id="mask3_3932_6366" style="mask-type:luminance" maskUnits="userSpaceOnUse" x="0" y="0" width="448" height="512">
<path d="M448 0H0V512H448V0Z" fill="white"/>
</mask>
<g mask="url(#mask3_3932_6366)">
<mask id="mask4_3932_6366" style="mask-type:luminance" maskUnits="userSpaceOnUse" x="0" y="0" width="448" height="512">
<path d="M448 0H0V512H448V0Z" fill="white"/>
</mask>
<g mask="url(#mask4_3932_6366)">
<mask id="mask5_3932_6366" style="mask-type:luminance" maskUnits="userSpaceOnUse" x="0" y="0" width="448" height="512">
<path d="M448 0H0V512H448V0Z" fill="white"/>
</mask>
<g mask="url(#mask5_3932_6366)">
<mask id="mask6_3932_6366" style="mask-type:luminance" maskUnits="userSpaceOnUse" x="0" y="0" width="448" height="512">
<path d="M448 0H0V512H448V0Z" fill="white"/>
</mask>
<g mask="url(#mask6_3932_6366)">
<mask id="mask7_3932_6366" style="mask-type:luminance" maskUnits="userSpaceOnUse" x="0" y="0" width="448" height="512">
<path d="M448 0H0V512H448V0Z" fill="white"/>
</mask>
<g mask="url(#mask7_3932_6366)">
<mask id="mask8_3932_6366" style="mask-type:luminance" maskUnits="userSpaceOnUse" x="0" y="0" width="448" height="512">
<path d="M448 0H0V512H448V0Z" fill="white"/>
</mask>
<g mask="url(#mask8_3932_6366)">
<mask id="mask9_3932_6366" style="mask-type:luminance" maskUnits="userSpaceOnUse" x="0" y="0" width="448" height="512">
<path d="M448 0H0V512H448V0Z" fill="white"/>
</mask>
<g mask="url(#mask9_3932_6366)">
<mask id="mask10_3932_6366" style="mask-type:luminance" maskUnits="userSpaceOnUse" x="0" y="0" width="448" height="512">
<path d="M448 0H0V512H448V0Z" fill="white"/>
</mask>
<g mask="url(#mask10_3932_6366)">
<mask id="mask11_3932_6366" style="mask-type:luminance" maskUnits="userSpaceOnUse" x="0" y="0" width="448" height="512">
<path d="M448 0H0V512H448V0Z" fill="white"/>
</mask>
<g mask="url(#mask11_3932_6366)">
<mask id="mask12_3932_6366" style="mask-type:luminance" maskUnits="userSpaceOnUse" x="0" y="0" width="448" height="512">
<path d="M448 0H0V512H448V0Z" fill="white"/>
</mask>
<g mask="url(#mask12_3932_6366)">
<mask id="mask13_3932_6366" style="mask-type:luminance" maskUnits="userSpaceOnUse" x="0" y="0" width="448" height="512">
<path d="M448 0H0V512H448V0Z" fill="white"/>
</mask>
<g mask="url(#mask13_3932_6366)">
<path d="M152 24C152 10.7 141.3 0 128 0C114.7 0 104 10.7 104 24V64H64C28.7 64 0 92.7 0 128V144V192V448C0 483.3 28.7 512 64 512H384C419.3 512 448 483.3 448 448V192V144V128C448 92.7 419.3 64 384 64H344V24C344 10.7 333.3 0 320 0C306.7 0 296 10.7 296 24V64H152V24ZM48 192H128V248H48V192ZM48 296H128V360H48V296ZM176 296H272V360H176V296ZM320 296H400V360H320V296ZM400 248H320V192H400V248ZM400 408V448C400 456.8 392.8 464 384 464H320V408H400ZM272 408V464H176V408H272ZM128 408V464H64C55.2 464 48 456.8 48 448V408H128ZM272 248H176V192H272V248Z" fill="black"/>
</g>
</g>
</g>
</g>
</g>
</g>
</g>
</g>
</g>
</g>
</g>
</g>
</g>
</g>
</g>
<defs>
<clipPath id="clip0_3932_6366">
<rect width="448" height="512" fill="white"/>
</clipPath>
</defs>
</svg>
