<svg width="800" height="800" viewBox="0 0 800 800" fill="none" xmlns="http://www.w3.org/2000/svg">
<g clip-path="url(#clip0_3932_6656)">
<mask id="mask0_3932_6656" style="mask-type:luminance" maskUnits="userSpaceOnUse" x="0" y="0" width="800" height="800">
<path d="M800 0H0V800H800V0Z" fill="white"/>
</mask>
<g mask="url(#mask0_3932_6656)">
<mask id="mask1_3932_6656" style="mask-type:luminance" maskUnits="userSpaceOnUse" x="0" y="0" width="800" height="800">
<path d="M800 0H0V800H800V0Z" fill="white"/>
</mask>
<g mask="url(#mask1_3932_6656)">
<mask id="mask2_3932_6656" style="mask-type:luminance" maskUnits="userSpaceOnUse" x="0" y="0" width="800" height="800">
<path d="M800 0H0V800H800V0Z" fill="white"/>
</mask>
<g mask="url(#mask2_3932_6656)">
<mask id="mask3_3932_6656" style="mask-type:luminance" maskUnits="userSpaceOnUse" x="0" y="0" width="800" height="800">
<path d="M800 0H0V800H800V0Z" fill="white"/>
</mask>
<g mask="url(#mask3_3932_6656)">
<mask id="mask4_3932_6656" style="mask-type:luminance" maskUnits="userSpaceOnUse" x="0" y="0" width="800" height="800">
<path d="M800 0H0V800H800V0Z" fill="white"/>
</mask>
<g mask="url(#mask4_3932_6656)">
<mask id="mask5_3932_6656" style="mask-type:luminance" maskUnits="userSpaceOnUse" x="0" y="0" width="800" height="800">
<path d="M800 0H0V800H800V0Z" fill="white"/>
</mask>
<g mask="url(#mask5_3932_6656)">
<mask id="mask6_3932_6656" style="mask-type:luminance" maskUnits="userSpaceOnUse" x="0" y="0" width="800" height="800">
<path d="M800 0H0V800H800V0Z" fill="white"/>
</mask>
<g mask="url(#mask6_3932_6656)">
<mask id="mask7_3932_6656" style="mask-type:luminance" maskUnits="userSpaceOnUse" x="0" y="0" width="800" height="800">
<path d="M800 0H0V800H800V0Z" fill="white"/>
</mask>
<g mask="url(#mask7_3932_6656)">
<mask id="mask8_3932_6656" style="mask-type:luminance" maskUnits="userSpaceOnUse" x="0" y="0" width="800" height="800">
<path d="M800 0H0V800H800V0Z" fill="white"/>
</mask>
<g mask="url(#mask8_3932_6656)">
<mask id="mask9_3932_6656" style="mask-type:luminance" maskUnits="userSpaceOnUse" x="0" y="0" width="800" height="800">
<path d="M800 0H0V800H800V0Z" fill="white"/>
</mask>
<g mask="url(#mask9_3932_6656)">
<mask id="mask10_3932_6656" style="mask-type:luminance" maskUnits="userSpaceOnUse" x="0" y="0" width="800" height="800">
<path d="M800 0H0V800H800V0Z" fill="white"/>
</mask>
<g mask="url(#mask10_3932_6656)">
<mask id="mask11_3932_6656" style="mask-type:luminance" maskUnits="userSpaceOnUse" x="0" y="0" width="800" height="800">
<path d="M800 0H0V800H800V0Z" fill="white"/>
</mask>
<g mask="url(#mask11_3932_6656)">
<mask id="mask12_3932_6656" style="mask-type:luminance" maskUnits="userSpaceOnUse" x="0" y="0" width="800" height="800">
<path d="M800 0H0V800H800V0Z" fill="white"/>
</mask>
<g mask="url(#mask12_3932_6656)">
<path fill-rule="evenodd" clip-rule="evenodd" d="M399.999 320V400H479.999C479.999 355.8 444.199 320 399.999 320ZM399.999 160V240C488.239 240 559.999 311.76 559.999 400H639.999C639.999 267.44 532.559 160 399.999 160ZM399.999 0V80C576.439 80 719.999 223.56 719.999 400H799.999C799.999 179.08 620.919 0 399.999 0ZM586.079 729.355C585.599 730.795 585.639 730.595 586.079 729.355V729.355ZM564.679 623.125C536.879 608.165 508.759 591.118 479.679 579.238C423.479 556.318 427.279 624.075 387.159 646.035C361.079 660.315 324.279 634.437 301.519 620.117C261.759 595.077 226.519 562.124 197.239 524.004C182.239 504.524 149.119 467.886 153.199 440.566C159.679 397.206 210.959 395.032 196.279 341.992C188.439 313.592 174.399 285.641 163.879 258.281C149.799 221.601 143.999 198.117 102.919 200.117C73.239 201.557 53.5592 214.247 35.3192 238.047C-14.0408 302.327 -6.60086 388.992 26.5591 459.512C73.5191 559.312 153.999 653.399 239.959 714.199C298.439 755.559 375.479 793.113 446.279 799.473C498.119 804.153 570.639 776.124 589.199 719.844C587.919 723.764 586.679 727.555 586.079 729.355C586.519 727.955 587.479 725.124 589.199 719.844C591.079 714.164 591.999 711.319 592.439 710.039C591.879 711.719 590.599 715.647 589.239 719.727C605.559 670.127 607.559 646.205 564.679 623.125ZM592.439 710.039C592.759 708.999 592.759 709.079 592.439 710.039V710.039Z" fill="black"/>
</g>
</g>
</g>
</g>
</g>
</g>
</g>
</g>
</g>
</g>
</g>
</g>
</g>
</g>
<defs>
<clipPath id="clip0_3932_6656">
<rect width="800" height="800" fill="white"/>
</clipPath>
</defs>
</svg>
