<svg width="640" height="512" viewBox="0 0 640 512" fill="none" xmlns="http://www.w3.org/2000/svg">
<path d="M213.1 64.8L202.7 96H128C92.7 96 64 124.7 64 160V416C64 451.3 92.7 480 128 480H512C547.3 480 576 451.3 576 416V160C576 124.7 547.3 96 512 96H437.3L426.9 64.8C420.4 45.2 402.1 32 381.4 32H258.6C237.9 32 219.6 45.2 213.1 64.8ZM448 256C448 264.8 440.8 272 432 272H355.3C349.1 272 344 266.9 344 260.7C344 257.7 345.2 254.8 347.3 252.7L371 229C357.4 215.6 339.1 208 320 208C300.8 208 282.3 215.6 268.7 229.3L249 249C239.6 258.4 224.4 258.4 215.1 249C205.8 239.6 205.7 224.4 215.1 215.1L234.8 195.4C257.4 172.7 288 160 320 160C351.8 160 382.4 172.6 405 195L428.7 171.3C430.8 169.2 433.7 168 436.7 168C442.9 168 448 173.1 448 179.3V256ZM192 320C192 311.2 199.2 304 208 304H284.7C290.9 304 296 309.1 296 315.3C296 318.3 294.8 321.2 292.7 323.3L269 347C282.6 360.4 300.9 368 320 368C339.2 368 357.7 360.4 371.3 346.7L391 327C400.4 317.6 415.6 317.6 424.9 327C434.2 336.4 434.3 351.6 424.9 360.9L405.2 380.6C382.6 403.3 352 416 320 416C288.2 416 257.6 403.4 235 381L211.3 404.7C209.2 406.8 206.3 408 203.3 408C197.1 408 192 402.9 192 396.7V320Z" fill="black"/>
</svg>
