<svg width="512" height="512" viewBox="0 0 512 512" fill="none" xmlns="http://www.w3.org/2000/svg">
<path d="M220.6 121.2L271.1 96H448V192H333.2C311.3 176.9 284.7 168 256 168C227.3 168 200.8 176.9 178.8 192H64V128H192C201.9 128 211.7 125.7 220.6 121.2ZM0 128V416C0 451.3 28.7 480 64 480H448C483.3 480 512 451.3 512 416V96C512 60.7 483.3 32 448 32H271.1C261.2 32 251.4 34.3 242.5 38.8L192 64H160V48C160 39.2 152.8 32 144 32H80C71.2 32 64 39.2 64 48V64C28.7 64 0 92.7 0 128ZM168 304C168 280.661 177.271 258.278 193.775 241.775C210.278 225.271 232.661 216 256 216C279.339 216 301.722 225.271 318.225 241.775C334.729 258.278 344 280.661 344 304C344 327.339 334.729 349.722 318.225 366.225C301.722 382.729 279.339 392 256 392C232.661 392 210.278 382.729 193.775 366.225C177.271 349.722 168 327.339 168 304Z" fill="black"/>
</svg>
