<svg width="576" height="512" viewBox="0 0 576 512" fill="none" xmlns="http://www.w3.org/2000/svg">
<g clip-path="url(#clip0_3932_6834)">
<mask id="mask0_3932_6834" style="mask-type:luminance" maskUnits="userSpaceOnUse" x="0" y="0" width="576" height="512">
<path d="M576 0H0V512H576V0Z" fill="white"/>
</mask>
<g mask="url(#mask0_3932_6834)">
<mask id="mask1_3932_6834" style="mask-type:luminance" maskUnits="userSpaceOnUse" x="0" y="0" width="576" height="512">
<path d="M576 0H0V512H576V0Z" fill="white"/>
</mask>
<g mask="url(#mask1_3932_6834)">
<mask id="mask2_3932_6834" style="mask-type:luminance" maskUnits="userSpaceOnUse" x="0" y="0" width="576" height="512">
<path d="M576 0H0V512H576V0Z" fill="white"/>
</mask>
<g mask="url(#mask2_3932_6834)">
<mask id="mask3_3932_6834" style="mask-type:luminance" maskUnits="userSpaceOnUse" x="0" y="0" width="576" height="512">
<path d="M576 0H0V512H576V0Z" fill="white"/>
</mask>
<g mask="url(#mask3_3932_6834)">
<mask id="mask4_3932_6834" style="mask-type:luminance" maskUnits="userSpaceOnUse" x="0" y="0" width="576" height="512">
<path d="M576 0H0V512H576V0Z" fill="white"/>
</mask>
<g mask="url(#mask4_3932_6834)">
<mask id="mask5_3932_6834" style="mask-type:luminance" maskUnits="userSpaceOnUse" x="0" y="0" width="576" height="512">
<path d="M576 0H0V512H576V0Z" fill="white"/>
</mask>
<g mask="url(#mask5_3932_6834)">
<mask id="mask6_3932_6834" style="mask-type:luminance" maskUnits="userSpaceOnUse" x="0" y="0" width="576" height="512">
<path d="M576 0H0V512H576V0Z" fill="white"/>
</mask>
<g mask="url(#mask6_3932_6834)">
<mask id="mask7_3932_6834" style="mask-type:luminance" maskUnits="userSpaceOnUse" x="0" y="0" width="576" height="512">
<path d="M576 0H0V512H576V0Z" fill="white"/>
</mask>
<g mask="url(#mask7_3932_6834)">
<mask id="mask8_3932_6834" style="mask-type:luminance" maskUnits="userSpaceOnUse" x="0" y="0" width="576" height="512">
<path d="M576 0H0V512H576V0Z" fill="white"/>
</mask>
<g mask="url(#mask8_3932_6834)">
<mask id="mask9_3932_6834" style="mask-type:luminance" maskUnits="userSpaceOnUse" x="0" y="0" width="576" height="512">
<path d="M576 0H0V512H576V0Z" fill="white"/>
</mask>
<g mask="url(#mask9_3932_6834)">
<mask id="mask10_3932_6834" style="mask-type:luminance" maskUnits="userSpaceOnUse" x="0" y="0" width="576" height="512">
<path d="M576 0H0V512H576V0Z" fill="white"/>
</mask>
<g mask="url(#mask10_3932_6834)">
<mask id="mask11_3932_6834" style="mask-type:luminance" maskUnits="userSpaceOnUse" x="0" y="0" width="576" height="512">
<path d="M576 0H0V512H576V0Z" fill="white"/>
</mask>
<g mask="url(#mask11_3932_6834)">
<mask id="mask12_3932_6834" style="mask-type:luminance" maskUnits="userSpaceOnUse" x="0" y="0" width="576" height="512">
<path d="M576 0H0V512H576V0Z" fill="white"/>
</mask>
<g mask="url(#mask12_3932_6834)">
<mask id="mask13_3932_6834" style="mask-type:luminance" maskUnits="userSpaceOnUse" x="0" y="0" width="576" height="512">
<path d="M576 0H0V512H576V0Z" fill="white"/>
</mask>
<g mask="url(#mask13_3932_6834)">
<path d="M64 144C64 117.5 85.5 96 112 96C138.5 96 160 117.5 160 144V256H64V144ZM0 144V368C0 429.9 50.1 480 112 480C173.9 480 224 429.9 224 368V189.6C225.8 208.7 232.2 227.6 243.8 244.4L372.3 431.7C407.8 483.4 477.6 496 528.3 459.8C579 423.6 591.3 352.3 555.8 300.6L427.3 113.3C391.8 61.5 321.9 49 271.3 85.2C243.3 105.2 227 136 224 168.2V144C224 82.1 173.9 32 112 32C50.1 32 0 82.1 0 144ZM296.6 208.2C280.6 184.9 286.6 152.9 308.5 137.2C329.7 122.1 359 126.9 374.5 149.4L441.5 247L361.6 303L296.6 208.2ZM491 407.7C490.2 408.3 489.4 408.8 488.6 409.3L492.6 406.5C492.1 406.9 491.6 407.3 491 407.7Z" fill="black"/>
</g>
</g>
</g>
</g>
</g>
</g>
</g>
</g>
</g>
</g>
</g>
</g>
</g>
</g>
</g>
<defs>
<clipPath id="clip0_3932_6834">
<rect width="576" height="512" fill="white"/>
</clipPath>
</defs>
</svg>
