<svg width="640" height="512" viewBox="0 0 640 512" fill="none" xmlns="http://www.w3.org/2000/svg">
<path d="M176.004 8C169.404 8 163.604 12 161.104 18.1L131.704 92.1L55.6043 68.9C49.3043 67 42.5043 69.1 38.4043 74.2C34.3043 79.3 33.8043 86.4 37.0043 92.1L76.5043 161.2L10.9043 206.4C5.50428 210.1 2.90429 216.7 4.40429 223.1C5.90429 229.5 11.1043 234.3 17.5043 235.3L96.2043 247.5L90.6043 327C90.1043 333.5 93.7043 339.7 99.6043 342.5C105.504 345.3 112.504 344.3 117.404 339.9L152.704 307.4L162.204 272L172.604 233.4C180.604 203.5 203.104 181.3 230.504 172.5L271.504 113.3C282.804 97 297.904 84.4 315.004 76.1C314.604 75.5 314.204 74.9 313.704 74.3C309.604 69.2 302.804 67.1 296.504 69L220.304 92.1L190.904 18.1C188.404 12 182.604 8 176.004 8ZM367.704 161.5L503.304 197.8C509.804 199.6 514.604 205.2 515.104 212L519.704 268.5L318.204 214.5L350.404 167.9C354.204 162.3 361.204 159.8 367.704 161.5ZM297.804 131.5L249.904 200.8C228.304 203.8 209.604 219.4 203.604 241.8L193.204 280.4L176.604 342.2L168.304 373.1C163.704 390.2 173.904 407.7 190.904 412.3L206.404 416.4C223.504 421 241.004 410.8 245.604 393.8L253.904 362.9L501.204 429.2L492.904 460.1C488.304 477.2 498.504 494.7 515.504 499.3L531.004 503.4C548.104 508 565.604 497.8 570.204 480.8L578.504 449.9L595.004 388L605.404 349.4C611.404 327 602.904 304.2 585.804 290.7L579.004 206.7C576.304 173 552.604 144.7 520.004 135.9L384.204 99.7C351.504 90.9 316.904 103.7 297.704 131.5H297.804ZM280.804 262.5C283.851 263.314 286.707 264.721 289.211 266.639C291.714 268.557 293.815 270.949 295.393 273.679C296.972 276.409 297.997 279.423 298.411 282.55C298.825 285.676 298.619 288.853 297.804 291.9C296.99 294.947 295.584 297.803 293.666 300.306C291.748 302.809 289.355 304.91 286.625 306.489C283.895 308.068 280.881 309.093 277.755 309.507C274.628 309.92 271.451 309.714 268.404 308.9C262.251 307.256 257.004 303.234 253.815 297.721C250.627 292.207 249.76 285.653 251.404 279.5C253.049 273.347 257.07 268.099 262.584 264.911C268.097 261.723 274.651 260.856 280.804 262.5ZM498.704 345.7C499.379 342.511 500.695 339.493 502.574 336.829C504.453 334.166 506.855 331.913 509.633 330.208C512.411 328.503 515.507 327.382 518.733 326.914C521.958 326.445 525.246 326.638 528.394 327.481C531.543 328.324 534.487 329.8 537.046 331.818C539.605 333.836 541.727 336.355 543.281 339.22C544.836 342.085 545.79 345.237 546.086 348.483C546.382 351.729 546.014 355.001 545.004 358.1C544.19 361.147 542.784 364.003 540.866 366.506C538.948 369.009 536.555 371.11 533.825 372.689C531.095 374.268 528.081 375.293 524.955 375.707C521.828 376.12 518.651 375.914 515.604 375.1C512.558 374.286 509.701 372.879 507.198 370.961C504.695 369.043 502.594 366.651 501.015 363.921C499.437 361.191 498.411 358.177 497.998 355.05C497.584 351.924 497.79 348.747 498.604 345.7H498.704Z" fill="black"/>
</svg>
