<svg width="512" height="512" viewBox="0 0 512 512" fill="none" xmlns="http://www.w3.org/2000/svg">
<path d="M165.4 96H346.6C360.2 96 372.3 104.6 376.8 117.4L402.9 192H109.1L135.2 117.4C139.7 104.6 151.8 96 165.4 96ZM74.8 96.3L39.6 196.8C16.4 206.4 0 229.3 0 256V336C0 359.7 12.9 380.4 32 391.4V448C32 465.7 46.3 480 64 480H96C113.7 480 128 465.7 128 448V400H384V448C384 465.7 398.3 480 416 480H448C465.7 480 480 465.7 480 448V391.4C499.1 380.3 512 359.7 512 336V256C512 229.3 495.6 206.4 472.4 196.8L437.2 96.3C423.7 57.8 387.4 32 346.6 32H165.4C124.6 32 88.3 57.8 74.8 96.3ZM208 272H304C312.8 272 320 279.2 320 288V320C320 328.8 312.8 336 304 336H208C199.2 336 192 328.8 192 320V288C192 279.2 199.2 272 208 272ZM48 280C48 266.7 58.7 256 72 256H104C117.3 256 128 266.7 128 280C128 293.3 117.3 304 104 304H72C58.7 304 48 293.3 48 280ZM408 256H440C453.3 256 464 266.7 464 280C464 293.3 453.3 304 440 304H408C394.7 304 384 293.3 384 280C384 266.7 394.7 256 408 256Z" fill="black"/>
</svg>
