<svg width="512" height="512" viewBox="0 0 512 512" fill="none" xmlns="http://www.w3.org/2000/svg">
<path d="M279.995 24C279.995 10.7 269.295 0 255.995 0C242.695 0 231.995 10.7 231.995 24V104C231.995 117.3 242.695 128 255.995 128C269.295 128 279.995 117.3 279.995 104V24ZM185.795 224H326.195C332.995 224 338.995 228.3 341.295 234.6L360.295 288H151.695L170.795 234.6C173.095 228.2 179.095 224 185.895 224H185.795ZM110.495 213.1L82.1953 292.4C62.0953 300.9 47.9953 320.8 47.9953 344V384V448V480C47.9953 497.7 62.2953 512 79.9953 512H95.9953C113.695 512 127.995 497.7 127.995 480V448H383.995V480C383.995 497.7 398.295 512 415.995 512H431.995C449.695 512 463.995 497.7 463.995 480V448V384V344C463.995 320.8 449.895 300.9 429.795 292.4L401.495 213.1C390.095 181.3 359.995 160 326.195 160H185.795C151.995 160 121.795 181.3 110.495 213.1ZM127.995 344C134.36 344 140.465 346.529 144.966 351.029C149.467 355.53 151.995 361.635 151.995 368C151.995 374.365 149.467 380.47 144.966 384.971C140.465 389.471 134.36 392 127.995 392C121.63 392 115.526 389.471 111.025 384.971C106.524 380.47 103.995 374.365 103.995 368C103.995 361.635 106.524 355.53 111.025 351.029C115.526 346.529 121.63 344 127.995 344ZM359.995 368C359.995 361.635 362.524 355.53 367.025 351.029C371.526 346.529 377.63 344 383.995 344C390.36 344 396.465 346.529 400.966 351.029C405.467 355.53 407.995 361.635 407.995 368C407.995 374.365 405.467 380.47 400.966 384.971C396.465 389.471 390.36 392 383.995 392C377.63 392 371.526 389.471 367.025 384.971C362.524 380.47 359.995 374.365 359.995 368ZM38.9953 39C29.5953 48.4 29.5953 63.6 38.9953 72.9L86.9953 120.9C96.3953 130.3 111.595 130.3 120.895 120.9C130.195 111.5 130.295 96.3 120.895 87L72.9953 39C63.5953 29.6 48.3953 29.6 39.0953 39H38.9953ZM438.995 39L390.995 87C381.595 96.4 381.595 111.6 390.995 120.9C400.395 130.2 415.595 130.3 424.895 120.9L472.895 72.9C482.295 63.5 482.295 48.3 472.895 39C463.495 29.7 448.295 29.6 438.995 39Z" fill="black"/>
</svg>
