<svg width="512" height="512" viewBox="0 0 512 512" fill="none" xmlns="http://www.w3.org/2000/svg">
<g clip-path="url(#clip0_3932_7024)">
<mask id="mask0_3932_7024" style="mask-type:luminance" maskUnits="userSpaceOnUse" x="0" y="0" width="512" height="512">
<path d="M512 0H0V512H512V0Z" fill="white"/>
</mask>
<g mask="url(#mask0_3932_7024)">
<mask id="mask1_3932_7024" style="mask-type:luminance" maskUnits="userSpaceOnUse" x="0" y="0" width="512" height="512">
<path d="M512 0H0V512H512V0Z" fill="white"/>
</mask>
<g mask="url(#mask1_3932_7024)">
<mask id="mask2_3932_7024" style="mask-type:luminance" maskUnits="userSpaceOnUse" x="0" y="0" width="512" height="512">
<path d="M512 0H0V512H512V0Z" fill="white"/>
</mask>
<g mask="url(#mask2_3932_7024)">
<mask id="mask3_3932_7024" style="mask-type:luminance" maskUnits="userSpaceOnUse" x="0" y="0" width="512" height="512">
<path d="M512 0H0V512H512V0Z" fill="white"/>
</mask>
<g mask="url(#mask3_3932_7024)">
<mask id="mask4_3932_7024" style="mask-type:luminance" maskUnits="userSpaceOnUse" x="0" y="0" width="512" height="512">
<path d="M512 0H0V512H512V0Z" fill="white"/>
</mask>
<g mask="url(#mask4_3932_7024)">
<mask id="mask5_3932_7024" style="mask-type:luminance" maskUnits="userSpaceOnUse" x="0" y="0" width="512" height="512">
<path d="M512 0H0V512H512V0Z" fill="white"/>
</mask>
<g mask="url(#mask5_3932_7024)">
<mask id="mask6_3932_7024" style="mask-type:luminance" maskUnits="userSpaceOnUse" x="0" y="0" width="512" height="512">
<path d="M512 0H0V512H512V0Z" fill="white"/>
</mask>
<g mask="url(#mask6_3932_7024)">
<mask id="mask7_3932_7024" style="mask-type:luminance" maskUnits="userSpaceOnUse" x="0" y="0" width="512" height="512">
<path d="M512 0H0V512H512V0Z" fill="white"/>
</mask>
<g mask="url(#mask7_3932_7024)">
<mask id="mask8_3932_7024" style="mask-type:luminance" maskUnits="userSpaceOnUse" x="0" y="0" width="512" height="512">
<path d="M512 0H0V512H512V0Z" fill="white"/>
</mask>
<g mask="url(#mask8_3932_7024)">
<mask id="mask9_3932_7024" style="mask-type:luminance" maskUnits="userSpaceOnUse" x="0" y="0" width="512" height="512">
<path d="M512 0H0V512H512V0Z" fill="white"/>
</mask>
<g mask="url(#mask9_3932_7024)">
<mask id="mask10_3932_7024" style="mask-type:luminance" maskUnits="userSpaceOnUse" x="0" y="0" width="512" height="512">
<path d="M512 0H0V512H512V0Z" fill="white"/>
</mask>
<g mask="url(#mask10_3932_7024)">
<mask id="mask11_3932_7024" style="mask-type:luminance" maskUnits="userSpaceOnUse" x="0" y="0" width="512" height="512">
<path d="M512 0H0V512H512V0Z" fill="white"/>
</mask>
<g mask="url(#mask11_3932_7024)">
<mask id="mask12_3932_7024" style="mask-type:luminance" maskUnits="userSpaceOnUse" x="0" y="0" width="512" height="512">
<path d="M512 0H0V512H512V0Z" fill="white"/>
</mask>
<g mask="url(#mask12_3932_7024)">
<mask id="mask13_3932_7024" style="mask-type:luminance" maskUnits="userSpaceOnUse" x="0" y="0" width="512" height="512">
<path d="M512 0H0V512H512V0Z" fill="white"/>
</mask>
<g mask="url(#mask13_3932_7024)">
<path d="M346.699 6C337.599 17 319.999 42.3 319.999 72C319.999 112 335.299 127.3 359.999 152C384.699 176.7 399.999 192 439.999 192C469.699 192 494.999 174.4 505.999 165.3C509.999 162 511.999 157.1 511.999 152C511.999 146.9 509.999 142 505.999 138.8C494.599 129.7 467.699 112 431.999 112C399.999 112 391.999 120 391.999 120C391.999 120 399.999 112 399.999 80C399.999 44.3 382.299 17.4 373.199 6C369.999 2 365.099 0 359.999 0C354.899 0 349.999 2 346.699 6ZM244.599 136C204.599 136 167.499 154.1 142.899 184.2L203.399 244.7C209.599 250.9 209.599 261.1 203.399 267.3C197.199 273.5 186.999 273.5 180.799 267.3L125.499 212V212.1L2.19923 477.9C-2.00076 487 -0.100769 497.8 6.99924 505C14.0992 512.2 24.8992 514 34.0992 509.8L168.799 447.4L116.699 395.3C110.499 389.1 110.499 378.9 116.699 372.7C122.899 366.5 133.099 366.5 139.299 372.7L199.699 433L299.899 386.6C346.299 365.1 376.099 318.6 376.099 267.4C375.999 194.8 317.199 136 244.599 136Z" fill="black"/>
</g>
</g>
</g>
</g>
</g>
</g>
</g>
</g>
</g>
</g>
</g>
</g>
</g>
</g>
</g>
<defs>
<clipPath id="clip0_3932_7024">
<rect width="512" height="512" fill="white"/>
</clipPath>
</defs>
</svg>
