<svg width="640" height="512" viewBox="0 0 640 512" fill="none" xmlns="http://www.w3.org/2000/svg">
<g clip-path="url(#clip0_3932_7144)">
<mask id="mask0_3932_7144" style="mask-type:luminance" maskUnits="userSpaceOnUse" x="0" y="0" width="640" height="512">
<path d="M640 0H0V512H640V0Z" fill="white"/>
</mask>
<g mask="url(#mask0_3932_7144)">
<mask id="mask1_3932_7144" style="mask-type:luminance" maskUnits="userSpaceOnUse" x="0" y="0" width="640" height="512">
<path d="M640 0H0V512H640V0Z" fill="white"/>
</mask>
<g mask="url(#mask1_3932_7144)">
<mask id="mask2_3932_7144" style="mask-type:luminance" maskUnits="userSpaceOnUse" x="0" y="0" width="640" height="512">
<path d="M640 0H0V512H640V0Z" fill="white"/>
</mask>
<g mask="url(#mask2_3932_7144)">
<mask id="mask3_3932_7144" style="mask-type:luminance" maskUnits="userSpaceOnUse" x="0" y="0" width="640" height="512">
<path d="M640 0H0V512H640V0Z" fill="white"/>
</mask>
<g mask="url(#mask3_3932_7144)">
<mask id="mask4_3932_7144" style="mask-type:luminance" maskUnits="userSpaceOnUse" x="0" y="0" width="640" height="512">
<path d="M640 0H0V512H640V0Z" fill="white"/>
</mask>
<g mask="url(#mask4_3932_7144)">
<mask id="mask5_3932_7144" style="mask-type:luminance" maskUnits="userSpaceOnUse" x="0" y="0" width="640" height="512">
<path d="M640 0H0V512H640V0Z" fill="white"/>
</mask>
<g mask="url(#mask5_3932_7144)">
<mask id="mask6_3932_7144" style="mask-type:luminance" maskUnits="userSpaceOnUse" x="0" y="0" width="640" height="512">
<path d="M640 0H0V512H640V0Z" fill="white"/>
</mask>
<g mask="url(#mask6_3932_7144)">
<mask id="mask7_3932_7144" style="mask-type:luminance" maskUnits="userSpaceOnUse" x="0" y="0" width="640" height="512">
<path d="M640 0H0V512H640V0Z" fill="white"/>
</mask>
<g mask="url(#mask7_3932_7144)">
<mask id="mask8_3932_7144" style="mask-type:luminance" maskUnits="userSpaceOnUse" x="0" y="0" width="640" height="512">
<path d="M640 0H0V512H640V0Z" fill="white"/>
</mask>
<g mask="url(#mask8_3932_7144)">
<mask id="mask9_3932_7144" style="mask-type:luminance" maskUnits="userSpaceOnUse" x="0" y="0" width="640" height="512">
<path d="M640 0H0V512H640V0Z" fill="white"/>
</mask>
<g mask="url(#mask9_3932_7144)">
<mask id="mask10_3932_7144" style="mask-type:luminance" maskUnits="userSpaceOnUse" x="0" y="0" width="640" height="512">
<path d="M640 0H0V512H640V0Z" fill="white"/>
</mask>
<g mask="url(#mask10_3932_7144)">
<mask id="mask11_3932_7144" style="mask-type:luminance" maskUnits="userSpaceOnUse" x="0" y="0" width="640" height="512">
<path d="M640 0H0V512H640V0Z" fill="white"/>
</mask>
<g mask="url(#mask11_3932_7144)">
<mask id="mask12_3932_7144" style="mask-type:luminance" maskUnits="userSpaceOnUse" x="0" y="0" width="640" height="512">
<path d="M640 0H0V512H640V0Z" fill="white"/>
</mask>
<g mask="url(#mask12_3932_7144)">
<mask id="mask13_3932_7144" style="mask-type:luminance" maskUnits="userSpaceOnUse" x="0" y="0" width="640" height="512">
<path d="M640 0H0V512H640V0Z" fill="white"/>
</mask>
<g mask="url(#mask13_3932_7144)">
<path d="M0 32C0 14.3 14.3 0 32 0H48C92.2 0 128 35.8 128 80V368C128 376.8 135.2 384 144 384H608C625.7 384 640 398.3 640 416C640 433.7 625.7 448 608 448H541.3C543.1 453 544 458.4 544 464C544 490.5 522.5 512 496 512C469.5 512 448 490.5 448 464C448 458.4 449 453 450.7 448H253.3C255.1 453 256 458.4 256 464C256 490.5 234.5 512 208 512C181.5 512 160 490.5 160 464C160 458.4 161 453 162.7 448H144C99.8 448 64 412.2 64 368V80C64 71.2 56.8 64 48 64H32C14.3 64 0 49.7 0 32ZM432 96V56C432 51.6 428.4 48 424 48H344C339.6 48 336 51.6 336 56V96H432ZM288 96V56C288 25.1 313.1 0 344 0H424C454.9 0 480 25.1 480 56V96V320H288V96ZM512 320V96H528C554.5 96 576 117.5 576 144V272C576 298.5 554.5 320 528 320H512ZM240 96H256V320H240C213.5 320 192 298.5 192 272V144C192 117.5 213.5 96 240 96Z" fill="black"/>
</g>
</g>
</g>
</g>
</g>
</g>
</g>
</g>
</g>
</g>
</g>
</g>
</g>
</g>
</g>
<defs>
<clipPath id="clip0_3932_7144">
<rect width="640" height="512" fill="white"/>
</clipPath>
</defs>
</svg>
