<svg width="512" height="512" viewBox="0 0 512 512" fill="none" xmlns="http://www.w3.org/2000/svg">
<g clip-path="url(#clip0_3932_7264)">
<mask id="mask0_3932_7264" style="mask-type:luminance" maskUnits="userSpaceOnUse" x="0" y="0" width="512" height="512">
<path d="M512 0H0V512H512V0Z" fill="white"/>
</mask>
<g mask="url(#mask0_3932_7264)">
<mask id="mask1_3932_7264" style="mask-type:luminance" maskUnits="userSpaceOnUse" x="0" y="0" width="512" height="512">
<path d="M512 0H0V512H512V0Z" fill="white"/>
</mask>
<g mask="url(#mask1_3932_7264)">
<mask id="mask2_3932_7264" style="mask-type:luminance" maskUnits="userSpaceOnUse" x="0" y="0" width="512" height="512">
<path d="M512 0H0V512H512V0Z" fill="white"/>
</mask>
<g mask="url(#mask2_3932_7264)">
<mask id="mask3_3932_7264" style="mask-type:luminance" maskUnits="userSpaceOnUse" x="0" y="0" width="512" height="512">
<path d="M512 0H0V512H512V0Z" fill="white"/>
</mask>
<g mask="url(#mask3_3932_7264)">
<mask id="mask4_3932_7264" style="mask-type:luminance" maskUnits="userSpaceOnUse" x="0" y="0" width="512" height="512">
<path d="M512 0H0V512H512V0Z" fill="white"/>
</mask>
<g mask="url(#mask4_3932_7264)">
<mask id="mask5_3932_7264" style="mask-type:luminance" maskUnits="userSpaceOnUse" x="0" y="0" width="512" height="512">
<path d="M512 0H0V512H512V0Z" fill="white"/>
</mask>
<g mask="url(#mask5_3932_7264)">
<mask id="mask6_3932_7264" style="mask-type:luminance" maskUnits="userSpaceOnUse" x="0" y="0" width="512" height="512">
<path d="M512 0H0V512H512V0Z" fill="white"/>
</mask>
<g mask="url(#mask6_3932_7264)">
<mask id="mask7_3932_7264" style="mask-type:luminance" maskUnits="userSpaceOnUse" x="0" y="0" width="512" height="512">
<path d="M512 0H0V512H512V0Z" fill="white"/>
</mask>
<g mask="url(#mask7_3932_7264)">
<mask id="mask8_3932_7264" style="mask-type:luminance" maskUnits="userSpaceOnUse" x="0" y="0" width="512" height="512">
<path d="M512 0H0V512H512V0Z" fill="white"/>
</mask>
<g mask="url(#mask8_3932_7264)">
<mask id="mask9_3932_7264" style="mask-type:luminance" maskUnits="userSpaceOnUse" x="0" y="0" width="512" height="512">
<path d="M512 0H0V512H512V0Z" fill="white"/>
</mask>
<g mask="url(#mask9_3932_7264)">
<mask id="mask10_3932_7264" style="mask-type:luminance" maskUnits="userSpaceOnUse" x="0" y="0" width="512" height="512">
<path d="M512 0H0V512H512V0Z" fill="white"/>
</mask>
<g mask="url(#mask10_3932_7264)">
<mask id="mask11_3932_7264" style="mask-type:luminance" maskUnits="userSpaceOnUse" x="0" y="0" width="512" height="512">
<path d="M512 0H0V512H512V0Z" fill="white"/>
</mask>
<g mask="url(#mask11_3932_7264)">
<mask id="mask12_3932_7264" style="mask-type:luminance" maskUnits="userSpaceOnUse" x="0" y="0" width="512" height="512">
<path d="M512 0H0V512H512V0Z" fill="white"/>
</mask>
<g mask="url(#mask12_3932_7264)">
<mask id="mask13_3932_7264" style="mask-type:luminance" maskUnits="userSpaceOnUse" x="0" y="0" width="512" height="512">
<path d="M512 0H0V512H512V0Z" fill="white"/>
</mask>
<g mask="url(#mask13_3932_7264)">
<path d="M64 0C46.3 0 32 14.3 32 32V96C32 113.7 46.3 128 64 128H144V160H87C55.4 160 28.5 183.1 23.7 214.4L1.1 364.1C0.4 368.8 0 373.6 0 378.4V448C0 483.3 28.7 512 64 512H448C483.3 512 512 483.3 512 448V378.4C512 373.6 511.6 368.8 510.9 364L488.2 214.4C483.5 183.1 456.6 160 425 160H208V128H288C305.7 128 320 113.7 320 96V32C320 14.3 305.7 0 288 0H64ZM96 48H256C264.8 48 272 55.2 272 64C272 72.8 264.8 80 256 80H96C87.2 80 80 72.8 80 64C80 55.2 87.2 48 96 48ZM64 432C64 423.2 71.2 416 80 416H432C440.8 416 448 423.2 448 432C448 440.8 440.8 448 432 448H80C71.2 448 64 440.8 64 432ZM112 264C105.635 264 99.5303 261.471 95.0294 256.971C90.5286 252.47 88 246.365 88 240C88 233.635 90.5286 227.53 95.0294 223.029C99.5303 218.529 105.635 216 112 216C118.365 216 124.47 218.529 128.971 223.029C133.471 227.53 136 233.635 136 240C136 246.365 133.471 252.47 128.971 256.971C124.47 261.471 118.365 264 112 264ZM232 240C232 246.365 229.471 252.47 224.971 256.971C220.47 261.471 214.365 264 208 264C201.635 264 195.53 261.471 191.029 256.971C186.529 252.47 184 246.365 184 240C184 233.635 186.529 227.53 191.029 223.029C195.53 218.529 201.635 216 208 216C214.365 216 220.47 218.529 224.971 223.029C229.471 227.53 232 233.635 232 240ZM160 344C153.635 344 147.53 341.471 143.029 336.971C138.529 332.47 136 326.365 136 320C136 313.635 138.529 307.53 143.029 303.029C147.53 298.529 153.635 296 160 296C166.365 296 172.47 298.529 176.971 303.029C181.471 307.53 184 313.635 184 320C184 326.365 181.471 332.47 176.971 336.971C172.47 341.471 166.365 344 160 344ZM328 240C328 246.365 325.471 252.47 320.971 256.971C316.47 261.471 310.365 264 304 264C297.635 264 291.53 261.471 287.029 256.971C282.529 252.47 280 246.365 280 240C280 233.635 282.529 227.53 287.029 223.029C291.53 218.529 297.635 216 304 216C310.365 216 316.47 218.529 320.971 223.029C325.471 227.53 328 233.635 328 240ZM256 344C249.635 344 243.53 341.471 239.029 336.971C234.529 332.47 232 326.365 232 320C232 313.635 234.529 307.53 239.029 303.029C243.53 298.529 249.635 296 256 296C262.365 296 268.47 298.529 272.971 303.029C277.471 307.53 280 313.635 280 320C280 326.365 277.471 332.47 272.971 336.971C268.47 341.471 262.365 344 256 344ZM424 240C424 243.152 423.379 246.273 422.173 249.184C420.967 252.096 419.199 254.742 416.971 256.971C414.742 259.199 412.096 260.967 409.184 262.173C406.273 263.379 403.152 264 400 264C396.848 264 393.727 263.379 390.816 262.173C387.904 260.967 385.258 259.199 383.029 256.971C380.801 254.742 379.033 252.096 377.827 249.184C376.621 246.273 376 243.152 376 240C376 236.848 376.621 233.727 377.827 230.816C379.033 227.904 380.801 225.258 383.029 223.029C385.258 220.801 387.904 219.033 390.816 217.827C393.727 216.621 396.848 216 400 216C403.152 216 406.273 216.621 409.184 217.827C412.096 219.033 414.742 220.801 416.971 223.029C419.199 225.258 420.967 227.904 422.173 230.816C423.379 233.727 424 236.848 424 240ZM352 344C345.635 344 339.53 341.471 335.029 336.971C330.529 332.47 328 326.365 328 320C328 313.635 330.529 307.53 335.029 303.029C339.53 298.529 345.635 296 352 296C358.365 296 364.47 298.529 368.971 303.029C373.471 307.53 376 313.635 376 320C376 326.365 373.471 332.47 368.971 336.971C364.47 341.471 358.365 344 352 344Z" fill="black"/>
</g>
</g>
</g>
</g>
</g>
</g>
</g>
</g>
</g>
</g>
</g>
</g>
</g>
</g>
</g>
<defs>
<clipPath id="clip0_3932_7264">
<rect width="512" height="512" fill="white"/>
</clipPath>
</defs>
</svg>
