<svg width="576" height="512" viewBox="0 0 576 512" fill="none" xmlns="http://www.w3.org/2000/svg">
<path d="M0 432C0 458.5 21.5 480 48 480H528C554.5 480 576 458.5 576 432V430.9H514.3L482.4 395.8L450.5 430.9H246.8V267.1H181L262.7 82.4H341.3L369.4 145.6V82.4H466.6L483.5 130L500.5 82.4H576V80C576 53.5 554.5 32 528 32H48C21.5 32 0 53.5 0 80V432ZM440.4 410.3L482.6 364L524.6 410.3H576L508 338.2L576 266.1H525.4L483.4 312.8L441.9 266.1H390.5L458 338.6L390.6 410.2V377.1H307.6V354.9H388.5V322.6H307.6V300.2H390.6V267.1H268.6V410.3H440.4ZM536.7 338.3L576 380.2V296.9L536.7 338.3ZM500.4 246.3L537.3 145.7V246.3H576V103H515.8L483.6 192.3L451.7 103H390.5V246.1L327.3 103H276.1L213.7 246.3H256.7L268.6 217.6H334.5L346.5 246.3H429.2V146L466 246.3H500.4ZM282 185.4L301.5 138.5L320.9 185.4H282Z" fill="black"/>
</svg>
