<svg width="576" height="512" viewBox="0 0 576 512" fill="none" xmlns="http://www.w3.org/2000/svg">
<path d="M470.1 231.3C470.1 231.3 477.7 268.5 479.4 276.3H446C449.3 267.4 462 232.8 462 232.8C461.8 233.1 465.3 223.7 467.3 217.9L470.1 231.3ZM576 80V432C576 458.5 554.5 480 528 480H48C21.5 480 0 458.5 0 432V80C0 53.5 21.5 32 48 32H528C554.5 32 576 53.5 576 80ZM152.5 331.2L215.7 176H173.2L133.9 282L129.6 260.5L115.6 189.1C113.3 179.2 106.2 176.4 97.4 176H32.7L32 179.1C47.8 183.1 61.9 188.9 74.2 196.2L110 331.2H152.5ZM246.9 331.4L272.1 176H231.9L206.8 331.4H246.9ZM386.8 280.6C387 262.9 376.2 249.4 353.1 238.3C339 231.2 330.4 226.4 330.4 219.1C330.6 212.5 337.7 205.7 353.5 205.7C366.6 205.4 376.2 208.5 383.4 211.6L387 213.3L392.5 179.7C384.6 176.6 372 173.1 356.5 173.1C316.8 173.1 288.9 194.3 288.7 224.5C288.4 246.8 308.7 259.2 323.9 266.7C339.4 274.3 344.7 279.3 344.7 286C344.5 296.4 332.1 301.2 320.6 301.2C304.6 301.2 296 298.7 282.9 292.9L277.6 290.4L272 325.3C281.4 329.6 298.8 333.4 316.8 333.6C359 333.7 386.5 312.8 386.8 280.6ZM528 331.4L495.6 176H464.5C454.9 176 447.6 178.8 443.5 188.9L383.8 331.4H426C426 331.4 432.9 312.2 434.4 308.1H486C487.2 313.6 490.8 331.4 490.8 331.4H528Z" fill="black"/>
</svg>
