<svg width="640" height="512" viewBox="0 0 640 512" fill="none" xmlns="http://www.w3.org/2000/svg">
<g clip-path="url(#clip0_3932_7470)">
<mask id="mask0_3932_7470" style="mask-type:luminance" maskUnits="userSpaceOnUse" x="0" y="0" width="640" height="512">
<path d="M640 0H0V512H640V0Z" fill="white"/>
</mask>
<g mask="url(#mask0_3932_7470)">
<mask id="mask1_3932_7470" style="mask-type:luminance" maskUnits="userSpaceOnUse" x="0" y="0" width="640" height="512">
<path d="M640 0H0V512H640V0Z" fill="white"/>
</mask>
<g mask="url(#mask1_3932_7470)">
<mask id="mask2_3932_7470" style="mask-type:luminance" maskUnits="userSpaceOnUse" x="0" y="0" width="640" height="512">
<path d="M640 0H0V512H640V0Z" fill="white"/>
</mask>
<g mask="url(#mask2_3932_7470)">
<mask id="mask3_3932_7470" style="mask-type:luminance" maskUnits="userSpaceOnUse" x="0" y="0" width="640" height="512">
<path d="M640 0H0V512H640V0Z" fill="white"/>
</mask>
<g mask="url(#mask3_3932_7470)">
<mask id="mask4_3932_7470" style="mask-type:luminance" maskUnits="userSpaceOnUse" x="0" y="0" width="640" height="512">
<path d="M640 0H0V512H640V0Z" fill="white"/>
</mask>
<g mask="url(#mask4_3932_7470)">
<mask id="mask5_3932_7470" style="mask-type:luminance" maskUnits="userSpaceOnUse" x="0" y="0" width="640" height="512">
<path d="M640 0H0V512H640V0Z" fill="white"/>
</mask>
<g mask="url(#mask5_3932_7470)">
<mask id="mask6_3932_7470" style="mask-type:luminance" maskUnits="userSpaceOnUse" x="0" y="0" width="640" height="512">
<path d="M640 0H0V512H640V0Z" fill="white"/>
</mask>
<g mask="url(#mask6_3932_7470)">
<mask id="mask7_3932_7470" style="mask-type:luminance" maskUnits="userSpaceOnUse" x="0" y="0" width="640" height="512">
<path d="M640 0H0V512H640V0Z" fill="white"/>
</mask>
<g mask="url(#mask7_3932_7470)">
<mask id="mask8_3932_7470" style="mask-type:luminance" maskUnits="userSpaceOnUse" x="0" y="0" width="640" height="512">
<path d="M640 0H0V512H640V0Z" fill="white"/>
</mask>
<g mask="url(#mask8_3932_7470)">
<mask id="mask9_3932_7470" style="mask-type:luminance" maskUnits="userSpaceOnUse" x="0" y="0" width="640" height="512">
<path d="M640 0H0V512H640V0Z" fill="white"/>
</mask>
<g mask="url(#mask9_3932_7470)">
<mask id="mask10_3932_7470" style="mask-type:luminance" maskUnits="userSpaceOnUse" x="0" y="0" width="640" height="512">
<path d="M640 0H0V512H640V0Z" fill="white"/>
</mask>
<g mask="url(#mask10_3932_7470)">
<mask id="mask11_3932_7470" style="mask-type:luminance" maskUnits="userSpaceOnUse" x="0" y="0" width="640" height="512">
<path d="M640 0H0V512H640V0Z" fill="white"/>
</mask>
<g mask="url(#mask11_3932_7470)">
<mask id="mask12_3932_7470" style="mask-type:luminance" maskUnits="userSpaceOnUse" x="0" y="0" width="640" height="512">
<path d="M640 0H0V512H640V0Z" fill="white"/>
</mask>
<g mask="url(#mask12_3932_7470)">
<mask id="mask13_3932_7470" style="mask-type:luminance" maskUnits="userSpaceOnUse" x="0" y="0" width="640" height="512">
<path d="M640 0H0V512H640V0Z" fill="white"/>
</mask>
<g mask="url(#mask13_3932_7470)">
<path d="M160 64C160 28.7 188.7 0 224 0H576C611.3 0 640 28.7 640 64V352C640 387.3 611.3 416 576 416H336.8C325 390.5 306.9 368.5 284.4 352H384V320C384 302.3 398.3 288 416 288H480C497.7 288 512 302.3 512 320V352H576V64H224V113.1C205.2 102.2 183.3 96 160 96V64ZM160 128C172.607 128 185.09 130.483 196.738 135.308C208.385 140.132 218.968 147.203 227.882 156.118C236.797 165.032 243.868 175.615 248.692 187.262C253.517 198.91 256 211.393 256 224C256 236.607 253.517 249.09 248.692 260.738C243.868 272.385 236.797 282.968 227.882 291.882C218.968 300.797 208.385 307.868 196.738 312.692C185.09 317.517 172.607 320 160 320C147.393 320 134.91 317.517 123.262 312.692C111.615 307.868 101.032 300.797 92.1177 291.882C83.2033 282.968 76.132 272.385 71.3076 260.738C66.4831 249.09 64 236.607 64 224C64 211.393 66.4831 198.91 71.3076 187.262C76.132 175.615 83.2033 165.032 92.1177 156.118C101.032 147.203 111.615 140.132 123.262 135.308C134.91 130.483 147.393 128 160 128ZM133.3 352H186.6C260.3 352 320 411.7 320 485.3C320 500 308.1 512 293.3 512H26.7C11.9 512 0 500.1 0 485.3C0 411.7 59.7 352 133.3 352Z" fill="black"/>
</g>
</g>
</g>
</g>
</g>
</g>
</g>
</g>
</g>
</g>
</g>
</g>
</g>
</g>
</g>
<defs>
<clipPath id="clip0_3932_7470">
<rect width="640" height="512" fill="white"/>
</clipPath>
</defs>
</svg>
