<svg width="640" height="512" viewBox="0 0 640 512" fill="none" xmlns="http://www.w3.org/2000/svg">
<g clip-path="url(#clip0_3932_7528)">
<mask id="mask0_3932_7528" style="mask-type:luminance" maskUnits="userSpaceOnUse" x="0" y="0" width="640" height="512">
<path d="M640 0H0V512H640V0Z" fill="white"/>
</mask>
<g mask="url(#mask0_3932_7528)">
<mask id="mask1_3932_7528" style="mask-type:luminance" maskUnits="userSpaceOnUse" x="0" y="0" width="640" height="512">
<path d="M640 0H0V512H640V0Z" fill="white"/>
</mask>
<g mask="url(#mask1_3932_7528)">
<mask id="mask2_3932_7528" style="mask-type:luminance" maskUnits="userSpaceOnUse" x="0" y="0" width="640" height="512">
<path d="M640 0H0V512H640V0Z" fill="white"/>
</mask>
<g mask="url(#mask2_3932_7528)">
<mask id="mask3_3932_7528" style="mask-type:luminance" maskUnits="userSpaceOnUse" x="0" y="0" width="640" height="512">
<path d="M640 0H0V512H640V0Z" fill="white"/>
</mask>
<g mask="url(#mask3_3932_7528)">
<mask id="mask4_3932_7528" style="mask-type:luminance" maskUnits="userSpaceOnUse" x="0" y="0" width="640" height="512">
<path d="M640 0H0V512H640V0Z" fill="white"/>
</mask>
<g mask="url(#mask4_3932_7528)">
<mask id="mask5_3932_7528" style="mask-type:luminance" maskUnits="userSpaceOnUse" x="0" y="0" width="640" height="512">
<path d="M640 0H0V512H640V0Z" fill="white"/>
</mask>
<g mask="url(#mask5_3932_7528)">
<mask id="mask6_3932_7528" style="mask-type:luminance" maskUnits="userSpaceOnUse" x="0" y="0" width="640" height="512">
<path d="M640 0H0V512H640V0Z" fill="white"/>
</mask>
<g mask="url(#mask6_3932_7528)">
<mask id="mask7_3932_7528" style="mask-type:luminance" maskUnits="userSpaceOnUse" x="0" y="0" width="640" height="512">
<path d="M640 0H0V512H640V0Z" fill="white"/>
</mask>
<g mask="url(#mask7_3932_7528)">
<mask id="mask8_3932_7528" style="mask-type:luminance" maskUnits="userSpaceOnUse" x="0" y="0" width="640" height="512">
<path d="M640 0H0V512H640V0Z" fill="white"/>
</mask>
<g mask="url(#mask8_3932_7528)">
<mask id="mask9_3932_7528" style="mask-type:luminance" maskUnits="userSpaceOnUse" x="0" y="0" width="640" height="512">
<path d="M640 0H0V512H640V0Z" fill="white"/>
</mask>
<g mask="url(#mask9_3932_7528)">
<mask id="mask10_3932_7528" style="mask-type:luminance" maskUnits="userSpaceOnUse" x="0" y="0" width="640" height="512">
<path d="M640 0H0V512H640V0Z" fill="white"/>
</mask>
<g mask="url(#mask10_3932_7528)">
<mask id="mask11_3932_7528" style="mask-type:luminance" maskUnits="userSpaceOnUse" x="0" y="0" width="640" height="512">
<path d="M640 0H0V512H640V0Z" fill="white"/>
</mask>
<g mask="url(#mask11_3932_7528)">
<mask id="mask12_3932_7528" style="mask-type:luminance" maskUnits="userSpaceOnUse" x="0" y="0" width="640" height="512">
<path d="M640 0H0V512H640V0Z" fill="white"/>
</mask>
<g mask="url(#mask12_3932_7528)">
<mask id="mask13_3932_7528" style="mask-type:luminance" maskUnits="userSpaceOnUse" x="0" y="0" width="640" height="512">
<path d="M640 0H0V512H640V0Z" fill="white"/>
</mask>
<g mask="url(#mask13_3932_7528)">
<path d="M155.602 17.2988C163.002 2.9989 179.902 -3.6011 195.002 1.8989L320.002 47.4989L445.002 1.8989C460.102 -3.6011 477.002 2.9989 484.402 17.2988L563.202 170.199C592.002 225.999 573.502 292.499 524.702 326.799L556.102 412.999L597.102 397.999C613.702 391.999 632.102 400.499 638.102 417.099C644.102 433.699 635.602 452.099 619.002 458.099L547.902 483.999L476.802 509.999C460.202 516.099 441.802 507.499 435.802 490.899C429.802 474.299 438.302 455.899 454.902 449.899L495.902 434.899L464.602 348.699C405.202 353.899 348.402 314.699 334.602 253.499L320.002 188.799L305.402 253.499C291.602 314.799 234.802 353.899 175.402 348.699L144.102 434.899L185.102 449.899C201.702 455.899 210.302 474.299 204.202 490.899C198.102 507.499 179.802 516.099 163.202 509.999L92.2021 484.099L21.1021 458.199C4.50207 452.099 -4.09793 433.799 2.00207 417.199C8.10207 400.599 26.4021 391.999 43.0021 398.099L84.0021 413.099L115.302 326.899C66.5021 292.499 48.1021 225.999 76.9021 170.199L155.602 17.2988ZM199.602 71.6989L172.402 124.499L261.602 156.999L274.702 99.0989L199.602 71.6989ZM440.502 71.6989L365.402 99.0989L378.502 156.999L467.702 124.499L440.502 71.6989Z" fill="black"/>
</g>
</g>
</g>
</g>
</g>
</g>
</g>
</g>
</g>
</g>
</g>
</g>
</g>
</g>
</g>
<defs>
<clipPath id="clip0_3932_7528">
<rect width="640" height="512" fill="white"/>
</clipPath>
</defs>
</svg>
