<svg width="576" height="512" viewBox="0 0 576 512" fill="none" xmlns="http://www.w3.org/2000/svg">
<path d="M96 80C96 53.5 117.5 32 144 32H432C458.5 32 480 53.5 480 80V384H96V80ZM409 127C399.6 117.6 384.4 117.6 375.1 127L264.1 238L217.1 191C207.7 181.6 192.5 181.6 183.2 191C173.9 200.4 173.8 215.6 183.2 224.9L247.2 288.9C256.6 298.3 271.8 298.3 281.1 288.9L409 161C418.4 151.6 418.4 136.4 409 127.1V127ZM0 336C0 309.5 21.5 288 48 288H64V416H512V288H528C554.5 288 576 309.5 576 336V432C576 458.5 554.5 480 528 480H48C21.5 480 0 458.5 0 432V336Z" fill="black"/>
</svg>
