<svg width="800" height="800" viewBox="0 0 800 800" fill="none" xmlns="http://www.w3.org/2000/svg">
<g clip-path="url(#clip0_3932_7716)">
<mask id="mask0_3932_7716" style="mask-type:luminance" maskUnits="userSpaceOnUse" x="0" y="0" width="800" height="800">
<path d="M800 0H0V800H800V0Z" fill="white"/>
</mask>
<g mask="url(#mask0_3932_7716)">
<mask id="mask1_3932_7716" style="mask-type:luminance" maskUnits="userSpaceOnUse" x="0" y="0" width="800" height="800">
<path d="M800 0H0V800H800V0Z" fill="white"/>
</mask>
<g mask="url(#mask1_3932_7716)">
<mask id="mask2_3932_7716" style="mask-type:luminance" maskUnits="userSpaceOnUse" x="0" y="0" width="800" height="800">
<path d="M800 0H0V800H800V0Z" fill="white"/>
</mask>
<g mask="url(#mask2_3932_7716)">
<mask id="mask3_3932_7716" style="mask-type:luminance" maskUnits="userSpaceOnUse" x="0" y="0" width="800" height="800">
<path d="M800 0H0V800H800V0Z" fill="white"/>
</mask>
<g mask="url(#mask3_3932_7716)">
<mask id="mask4_3932_7716" style="mask-type:luminance" maskUnits="userSpaceOnUse" x="0" y="0" width="800" height="800">
<path d="M800 0H0V800H800V0Z" fill="white"/>
</mask>
<g mask="url(#mask4_3932_7716)">
<mask id="mask5_3932_7716" style="mask-type:luminance" maskUnits="userSpaceOnUse" x="0" y="0" width="800" height="800">
<path d="M800 0H0V800H800V0Z" fill="white"/>
</mask>
<g mask="url(#mask5_3932_7716)">
<mask id="mask6_3932_7716" style="mask-type:luminance" maskUnits="userSpaceOnUse" x="0" y="0" width="800" height="800">
<path d="M800 0H0V800H800V0Z" fill="white"/>
</mask>
<g mask="url(#mask6_3932_7716)">
<mask id="mask7_3932_7716" style="mask-type:luminance" maskUnits="userSpaceOnUse" x="0" y="0" width="800" height="800">
<path d="M800 0H0V800H800V0Z" fill="white"/>
</mask>
<g mask="url(#mask7_3932_7716)">
<mask id="mask8_3932_7716" style="mask-type:luminance" maskUnits="userSpaceOnUse" x="0" y="0" width="800" height="800">
<path d="M800 0H0V800H800V0Z" fill="white"/>
</mask>
<g mask="url(#mask8_3932_7716)">
<mask id="mask9_3932_7716" style="mask-type:luminance" maskUnits="userSpaceOnUse" x="0" y="0" width="800" height="800">
<path d="M800 0H0V800H800V0Z" fill="white"/>
</mask>
<g mask="url(#mask9_3932_7716)">
<mask id="mask10_3932_7716" style="mask-type:luminance" maskUnits="userSpaceOnUse" x="0" y="0" width="800" height="800">
<path d="M800 0H0V800H800V0Z" fill="white"/>
</mask>
<g mask="url(#mask10_3932_7716)">
<mask id="mask11_3932_7716" style="mask-type:luminance" maskUnits="userSpaceOnUse" x="0" y="0" width="800" height="800">
<path d="M800 0H0V800H800V0Z" fill="white"/>
</mask>
<g mask="url(#mask11_3932_7716)">
<mask id="mask12_3932_7716" style="mask-type:luminance" maskUnits="userSpaceOnUse" x="0" y="0" width="800" height="800">
<path d="M800 0H0V800H800V0Z" fill="white"/>
</mask>
<g mask="url(#mask12_3932_7716)">
<path d="M670.968 400V188.206L482.761 0H0V800H670.968V645.161H800V400H670.968ZM490.323 44.0516L626.916 180.645H490.323V44.0516ZM645.161 774.194H25.8065V25.8065H464.516V206.452H645.161V400H619.355V425.806H610.748L565.019 391.51L529.032 319.535V232.258H455.781L425.806 307.2V348.387L435.084 387.097H299.11L283.561 464.826L300.542 532.761L258.065 568.71V541.935H51.6129V748.387H258.065V602.503L307.523 560.658L310.077 570.865L340.413 632.258H585.987L598.89 619.355H619.355V645.161H645.161V774.194ZM451.613 346.8V312.155L473.252 258.065H503.226V325.626L544.658 408.49L602.155 451.613H619.355V593.548H588.206L575.303 606.452H356.361L334.748 563.239L309.987 464.194L320.245 412.903H468.142L451.613 346.8ZM122.129 696.774H146.658L232.258 624.348V722.581H77.4194V567.742H232.258V590.542L137.213 670.968H135.935L113.961 638L92.4903 652.31L122.129 696.774ZM774.194 619.355H645.161V425.806H774.194V619.355Z" fill="black"/>
<path d="M258.069 112.176L318.017 61.4532L301.359 41.75L258.069 78.3823V51.6081H51.6172V258.06H258.069V112.176ZM232.262 100.214L137.217 180.64H135.94L113.966 147.672L92.4946 161.982L122.133 206.447H146.662L232.262 134.021V232.253H77.4236V77.4145H232.262V100.214Z" fill="black"/>
<path d="M258.069 357.34L318.017 306.617L301.359 286.914L258.069 323.546V296.772H51.6172V503.224H258.069V357.34ZM232.262 345.379L137.217 425.804H135.94L113.966 392.837L92.4946 407.146L122.133 451.611H146.662L232.262 379.185V477.417H77.4236V322.579H232.262V345.379Z" fill="black"/>
</g>
</g>
</g>
</g>
</g>
</g>
</g>
</g>
</g>
</g>
</g>
</g>
</g>
</g>
<defs>
<clipPath id="clip0_3932_7716">
<rect width="800" height="800" fill="white"/>
</clipPath>
</defs>
</svg>
