<svg width="448" height="512" viewBox="0 0 448 512" fill="none" xmlns="http://www.w3.org/2000/svg">
<path d="M226.6 48H117.3L134.4 60.8C140.4 65.3 144 72.4 144 80C144 87.6 140.4 94.7 134.4 99.2L127.9 104.1C117.9 111.6 111.9 123.4 111.9 136L111.6 227C111.6 237.2 116.5 246.9 124.8 252.8L126.7 254.1C136.6 261.2 150 261.1 159.9 254L209.8 217.7C220.5 209.9 235.5 212.3 243.3 223C251.1 233.7 248.7 248.7 238 256.5L188.1 292.8L134.3 331.9C127 337.2 121.3 344.1 117.4 352H66.8C72.1 329.9 84.6 310.1 102.7 295.7C101.4 294.9 100.1 294 98.9 293.1L97 291.8C76 276.8 63.6 252.6 63.7 226.8L64 135.8C64.1 116 70.7 97.1 82.6 81.9L82.2 81.6C70.7 73 64 59.6 64 45.3C64 20.3 84.3 0 109.3 0H226.6C331.2 0 416 84.8 416 189.4C416 200.5 415 211.6 413.1 222.6L390.1 352H341.3L365.8 214.2C367.3 206 368 197.7 368 189.4C368 111.3 304.7 48 226.6 48ZM85.2 432L68.7 464H379.3L362.7 432H85.2ZM400.9 401.3L427.4 452.5C430.4 458.3 432 464.7 432 471.2C432 493.7 413.8 512 391.2 512H56.8C34.2 512 16 493.8 16 471.2C16 464.7 17.6 458.3 20.6 452.5L47.1 401.3C52.5 390.7 63.5 384 75.5 384H372.5C384.5 384 395.4 390.7 400.9 401.3ZM172 128C177.304 128 182.391 130.107 186.142 133.858C189.893 137.609 192 142.696 192 148C192 153.304 189.893 158.391 186.142 162.142C182.391 165.893 177.304 168 172 168C166.696 168 161.609 165.893 157.858 162.142C154.107 158.391 152 153.304 152 148C152 142.696 154.107 137.609 157.858 133.858C161.609 130.107 166.696 128 172 128Z" fill="black"/>
</svg>
