<svg width="448" height="512" viewBox="0 0 448 512" fill="none" xmlns="http://www.w3.org/2000/svg">
<path d="M80 80V192C80 194.5 81.2 196.9 83.2 198.4L134.4 236.8C141.2 241.9 144.8 250.2 143.9 258.7L133.5 352H85.2L94.6 267L54.4 236.8C40.3 226.2 32 209.6 32 192V72C32 49.9 49.9 32 72 32H376C398.1 32 416 49.9 416 72V192C416 209.6 407.7 226.2 393.6 236.8L353.4 267L362.8 352H314.5L304.1 258.7C303.2 250.3 306.8 241.9 313.6 236.8L364.8 198.4C366.8 196.9 368 194.5 368 192V80H304V104C304 117.3 293.3 128 280 128C266.7 128 256 117.3 256 104V80H192V104C192 117.3 181.3 128 168 128C154.7 128 144 117.3 144 104V80H80ZM84.7 464H363.3L346.7 432H101.2L84.7 464ZM356.6 384C368.6 384 379.5 390.7 385 401.3L411.5 452.5C414.5 458.3 416.1 464.7 416.1 471.2C416.1 493.7 397.9 512 375.3 512H72.8C50.2 512 32 493.8 32 471.2C32 464.7 33.6 458.3 36.6 452.5L63.1 401.3C68.5 390.7 79.5 384 91.5 384H356.5H356.6ZM208 288C199.2 288 192 280.8 192 272V224C192 206.3 206.3 192 224 192C241.7 192 256 206.3 256 224V272C256 280.8 248.8 288 240 288H208Z" fill="black"/>
</svg>
