<svg width="320" height="512" viewBox="0 0 320 512" fill="none" xmlns="http://www.w3.org/2000/svg">
<g clip-path="url(#clip0_3932_8144)">
<mask id="mask0_3932_8144" style="mask-type:luminance" maskUnits="userSpaceOnUse" x="0" y="0" width="320" height="512">
<path d="M320 0H0V512H320V0Z" fill="white"/>
</mask>
<g mask="url(#mask0_3932_8144)">
<mask id="mask1_3932_8144" style="mask-type:luminance" maskUnits="userSpaceOnUse" x="0" y="0" width="320" height="512">
<path d="M320 0H0V512H320V0Z" fill="white"/>
</mask>
<g mask="url(#mask1_3932_8144)">
<mask id="mask2_3932_8144" style="mask-type:luminance" maskUnits="userSpaceOnUse" x="0" y="0" width="320" height="512">
<path d="M320 0H0V512H320V0Z" fill="white"/>
</mask>
<g mask="url(#mask2_3932_8144)">
<mask id="mask3_3932_8144" style="mask-type:luminance" maskUnits="userSpaceOnUse" x="0" y="0" width="320" height="512">
<path d="M320 0H0V512H320V0Z" fill="white"/>
</mask>
<g mask="url(#mask3_3932_8144)">
<mask id="mask4_3932_8144" style="mask-type:luminance" maskUnits="userSpaceOnUse" x="0" y="0" width="320" height="512">
<path d="M320 0H0V512H320V0Z" fill="white"/>
</mask>
<g mask="url(#mask4_3932_8144)">
<mask id="mask5_3932_8144" style="mask-type:luminance" maskUnits="userSpaceOnUse" x="0" y="0" width="320" height="512">
<path d="M320 0H0V512H320V0Z" fill="white"/>
</mask>
<g mask="url(#mask5_3932_8144)">
<mask id="mask6_3932_8144" style="mask-type:luminance" maskUnits="userSpaceOnUse" x="0" y="0" width="320" height="512">
<path d="M320 0H0V512H320V0Z" fill="white"/>
</mask>
<g mask="url(#mask6_3932_8144)">
<mask id="mask7_3932_8144" style="mask-type:luminance" maskUnits="userSpaceOnUse" x="0" y="0" width="320" height="512">
<path d="M320 0H0V512H320V0Z" fill="white"/>
</mask>
<g mask="url(#mask7_3932_8144)">
<mask id="mask8_3932_8144" style="mask-type:luminance" maskUnits="userSpaceOnUse" x="0" y="0" width="320" height="512">
<path d="M320 0H0V512H320V0Z" fill="white"/>
</mask>
<g mask="url(#mask8_3932_8144)">
<mask id="mask9_3932_8144" style="mask-type:luminance" maskUnits="userSpaceOnUse" x="0" y="0" width="320" height="512">
<path d="M320 0H0V512H320V0Z" fill="white"/>
</mask>
<g mask="url(#mask9_3932_8144)">
<mask id="mask10_3932_8144" style="mask-type:luminance" maskUnits="userSpaceOnUse" x="0" y="0" width="320" height="512">
<path d="M320 0H0V512H320V0Z" fill="white"/>
</mask>
<g mask="url(#mask10_3932_8144)">
<mask id="mask11_3932_8144" style="mask-type:luminance" maskUnits="userSpaceOnUse" x="0" y="0" width="320" height="512">
<path d="M320 0H0V512H320V0Z" fill="white"/>
</mask>
<g mask="url(#mask11_3932_8144)">
<mask id="mask12_3932_8144" style="mask-type:luminance" maskUnits="userSpaceOnUse" x="0" y="0" width="320" height="512">
<path d="M320 0H0V512H320V0Z" fill="white"/>
</mask>
<g mask="url(#mask12_3932_8144)">
<mask id="mask13_3932_8144" style="mask-type:luminance" maskUnits="userSpaceOnUse" x="0" y="0" width="320" height="512">
<path d="M320 0H0V512H320V0Z" fill="white"/>
</mask>
<g mask="url(#mask13_3932_8144)">
<path d="M95.9994 64C95.9994 47.0261 102.742 30.7475 114.745 18.7452C126.747 6.74284 143.026 0 159.999 0C176.973 0 193.252 6.74284 205.254 18.7452C217.257 30.7475 223.999 47.0261 223.999 64C223.999 80.9739 217.257 97.2525 205.254 109.255C193.252 121.257 176.973 128 159.999 128C143.026 128 126.747 121.257 114.745 109.255C102.742 97.2525 95.9994 80.9739 95.9994 64ZM143.999 384V480C143.999 497.7 129.699 512 111.999 512C94.2994 512 79.9994 497.7 79.9994 480V287.8L59.0994 321C49.6994 336 29.8994 340.4 14.9994 331C0.0994339 321.6 -4.50057 301.9 4.89943 287L44.7994 223.7C69.6994 184 113.199 160 159.999 160C206.799 160 250.299 184 275.199 223.6L315.099 287C324.499 302 319.999 321.7 305.099 331.1C290.199 340.5 270.399 336 260.999 321.1L239.999 287.8V480C239.999 497.7 225.699 512 207.999 512C190.299 512 175.999 497.7 175.999 480V384H143.999Z" fill="black"/>
</g>
</g>
</g>
</g>
</g>
</g>
</g>
</g>
</g>
</g>
</g>
</g>
</g>
</g>
</g>
<defs>
<clipPath id="clip0_3932_8144">
<rect width="320" height="512" fill="white"/>
</clipPath>
</defs>
</svg>
