<svg width="384" height="512" viewBox="0 0 384 512" fill="none" xmlns="http://www.w3.org/2000/svg">
<g clip-path="url(#clip0_3932_8318)">
<mask id="mask0_3932_8318" style="mask-type:luminance" maskUnits="userSpaceOnUse" x="0" y="0" width="384" height="512">
<path d="M384 0H0V512H384V0Z" fill="white"/>
</mask>
<g mask="url(#mask0_3932_8318)">
<mask id="mask1_3932_8318" style="mask-type:luminance" maskUnits="userSpaceOnUse" x="0" y="0" width="384" height="512">
<path d="M384 0H0V512H384V0Z" fill="white"/>
</mask>
<g mask="url(#mask1_3932_8318)">
<mask id="mask2_3932_8318" style="mask-type:luminance" maskUnits="userSpaceOnUse" x="0" y="0" width="384" height="512">
<path d="M384 0H0V512H384V0Z" fill="white"/>
</mask>
<g mask="url(#mask2_3932_8318)">
<mask id="mask3_3932_8318" style="mask-type:luminance" maskUnits="userSpaceOnUse" x="0" y="0" width="384" height="512">
<path d="M384 0H0V512H384V0Z" fill="white"/>
</mask>
<g mask="url(#mask3_3932_8318)">
<mask id="mask4_3932_8318" style="mask-type:luminance" maskUnits="userSpaceOnUse" x="0" y="0" width="384" height="512">
<path d="M384 0H0V512H384V0Z" fill="white"/>
</mask>
<g mask="url(#mask4_3932_8318)">
<mask id="mask5_3932_8318" style="mask-type:luminance" maskUnits="userSpaceOnUse" x="0" y="0" width="384" height="512">
<path d="M384 0H0V512H384V0Z" fill="white"/>
</mask>
<g mask="url(#mask5_3932_8318)">
<mask id="mask6_3932_8318" style="mask-type:luminance" maskUnits="userSpaceOnUse" x="0" y="0" width="384" height="512">
<path d="M384 0H0V512H384V0Z" fill="white"/>
</mask>
<g mask="url(#mask6_3932_8318)">
<mask id="mask7_3932_8318" style="mask-type:luminance" maskUnits="userSpaceOnUse" x="0" y="0" width="384" height="512">
<path d="M384 0H0V512H384V0Z" fill="white"/>
</mask>
<g mask="url(#mask7_3932_8318)">
<mask id="mask8_3932_8318" style="mask-type:luminance" maskUnits="userSpaceOnUse" x="0" y="0" width="384" height="512">
<path d="M384 0H0V512H384V0Z" fill="white"/>
</mask>
<g mask="url(#mask8_3932_8318)">
<mask id="mask9_3932_8318" style="mask-type:luminance" maskUnits="userSpaceOnUse" x="0" y="0" width="384" height="512">
<path d="M384 0H0V512H384V0Z" fill="white"/>
</mask>
<g mask="url(#mask9_3932_8318)">
<mask id="mask10_3932_8318" style="mask-type:luminance" maskUnits="userSpaceOnUse" x="0" y="0" width="384" height="512">
<path d="M384 0H0V512H384V0Z" fill="white"/>
</mask>
<g mask="url(#mask10_3932_8318)">
<mask id="mask11_3932_8318" style="mask-type:luminance" maskUnits="userSpaceOnUse" x="0" y="0" width="384" height="512">
<path d="M384 0H0V512H384V0Z" fill="white"/>
</mask>
<g mask="url(#mask11_3932_8318)">
<mask id="mask12_3932_8318" style="mask-type:luminance" maskUnits="userSpaceOnUse" x="0" y="0" width="384" height="512">
<path d="M384 0H0V512H384V0Z" fill="white"/>
</mask>
<g mask="url(#mask12_3932_8318)">
<mask id="mask13_3932_8318" style="mask-type:luminance" maskUnits="userSpaceOnUse" x="0" y="0" width="384" height="512">
<path d="M384 0H0V512H384V0Z" fill="white"/>
</mask>
<g mask="url(#mask13_3932_8318)">
<path d="M256 64C256 47.0261 249.257 30.7475 237.254 18.7452C225.252 6.74284 208.973 0 192 0C175.026 0 158.747 6.74284 146.745 18.7452C134.742 30.7475 128 47.0261 128 64C128 80.9739 134.742 97.2525 146.745 109.255C158.747 121.257 175.026 128 192 128C208.973 128 225.252 121.257 237.254 109.255C249.257 97.2525 256 80.9739 256 64ZM152.9 169.3C129.2 160.9 108.4 145 94.0996 123.5L74.5996 94.2C64.7996 79.5 44.9996 75.6 30.1996 85.4C15.3996 95.2 11.4996 115.1 21.2996 129.8L40.8996 159C58.9996 186.1 83.6996 207.4 112 221.4V480C112 497.7 126.3 512 144 512C161.7 512 176 497.7 176 480V384H208V480C208 497.7 222.3 512 240 512C257.7 512 272 497.7 272 480V221.6C301.1 207.4 326.4 185.4 344.7 157.4L362.9 129.5C372.5 114.7 368.3 94.9 353.5 85.2C338.7 75.5 318.9 79.7 309.2 94.6L291 122.4C269.2 155.8 232.1 176 192.2 176C179.6 176 167.3 174 155.6 170.2C154.7 169.9 153.8 169.5 152.9 169.3Z" fill="black"/>
</g>
</g>
</g>
</g>
</g>
</g>
</g>
</g>
</g>
</g>
</g>
</g>
</g>
</g>
</g>
<defs>
<clipPath id="clip0_3932_8318">
<rect width="384" height="512" fill="white"/>
</clipPath>
</defs>
</svg>
