<svg width="512" height="512" viewBox="0 0 512 512" fill="none" xmlns="http://www.w3.org/2000/svg">
<path d="M447.797 64H63.9969C40.3969 64 21.2969 83.1 21.2969 106.7V170.6H63.9969V106.7H447.797V405.3H298.597V448H447.997C471.597 448 490.697 428.9 490.697 405.3V106.7C490.697 83.1 471.397 64 447.797 64ZM21.2969 383.6V447.5H85.1969C85.1969 412.2 56.5969 383.6 21.2969 383.6ZM21.2969 298.6V341C80.1969 341 127.897 389.1 127.897 448H170.597C170.697 365.6 103.697 298.7 21.2969 298.6ZM213.397 448H256.097C255.597 318.5 150.797 213.7 21.2969 213.4V255.8C127.297 255.6 213.297 342 213.397 448Z" fill="black"/>
</svg>
