<svg width="512" height="512" viewBox="0 0 512 512" fill="none" xmlns="http://www.w3.org/2000/svg">
<g clip-path="url(#clip0_3932_10122)">
<mask id="mask0_3932_10122" style="mask-type:luminance" maskUnits="userSpaceOnUse" x="0" y="0" width="512" height="512">
<path d="M512 0H0V512H512V0Z" fill="white"/>
</mask>
<g mask="url(#mask0_3932_10122)">
<mask id="mask1_3932_10122" style="mask-type:luminance" maskUnits="userSpaceOnUse" x="0" y="0" width="512" height="512">
<path d="M512 0H0V512H512V0Z" fill="white"/>
</mask>
<g mask="url(#mask1_3932_10122)">
<mask id="mask2_3932_10122" style="mask-type:luminance" maskUnits="userSpaceOnUse" x="0" y="0" width="512" height="512">
<path d="M512 0H0V512H512V0Z" fill="white"/>
</mask>
<g mask="url(#mask2_3932_10122)">
<mask id="mask3_3932_10122" style="mask-type:luminance" maskUnits="userSpaceOnUse" x="0" y="0" width="512" height="512">
<path d="M512 0H0V512H512V0Z" fill="white"/>
</mask>
<g mask="url(#mask3_3932_10122)">
<mask id="mask4_3932_10122" style="mask-type:luminance" maskUnits="userSpaceOnUse" x="0" y="0" width="512" height="512">
<path d="M512 0H0V512H512V0Z" fill="white"/>
</mask>
<g mask="url(#mask4_3932_10122)">
<mask id="mask5_3932_10122" style="mask-type:luminance" maskUnits="userSpaceOnUse" x="0" y="0" width="512" height="512">
<path d="M512 0H0V512H512V0Z" fill="white"/>
</mask>
<g mask="url(#mask5_3932_10122)">
<mask id="mask6_3932_10122" style="mask-type:luminance" maskUnits="userSpaceOnUse" x="0" y="0" width="512" height="512">
<path d="M512 0H0V512H512V0Z" fill="white"/>
</mask>
<g mask="url(#mask6_3932_10122)">
<mask id="mask7_3932_10122" style="mask-type:luminance" maskUnits="userSpaceOnUse" x="0" y="0" width="512" height="512">
<path d="M512 0H0V512H512V0Z" fill="white"/>
</mask>
<g mask="url(#mask7_3932_10122)">
<mask id="mask8_3932_10122" style="mask-type:luminance" maskUnits="userSpaceOnUse" x="0" y="0" width="512" height="512">
<path d="M512 0H0V512H512V0Z" fill="white"/>
</mask>
<g mask="url(#mask8_3932_10122)">
<mask id="mask9_3932_10122" style="mask-type:luminance" maskUnits="userSpaceOnUse" x="0" y="0" width="512" height="512">
<path d="M512 0H0V512H512V0Z" fill="white"/>
</mask>
<g mask="url(#mask9_3932_10122)">
<mask id="mask10_3932_10122" style="mask-type:luminance" maskUnits="userSpaceOnUse" x="0" y="0" width="512" height="512">
<path d="M512 0H0V512H512V0Z" fill="white"/>
</mask>
<g mask="url(#mask10_3932_10122)">
<mask id="mask11_3932_10122" style="mask-type:luminance" maskUnits="userSpaceOnUse" x="0" y="0" width="512" height="512">
<path d="M512 0H0V512H512V0Z" fill="white"/>
</mask>
<g mask="url(#mask11_3932_10122)">
<mask id="mask12_3932_10122" style="mask-type:luminance" maskUnits="userSpaceOnUse" x="0" y="0" width="512" height="512">
<path d="M512 0H0V512H512V0Z" fill="white"/>
</mask>
<g mask="url(#mask12_3932_10122)">
<mask id="mask13_3932_10122" style="mask-type:luminance" maskUnits="userSpaceOnUse" x="0" y="0" width="512" height="512">
<path d="M512 0H0V512H512V0Z" fill="white"/>
</mask>
<g mask="url(#mask13_3932_10122)">
<path d="M406.5 399.6C387.4 352.9 341.5 320 288 320H224C170.5 320 124.6 352.9 105.5 399.6C69.9 362.2 48 311.7 48 256C48 141.1 141.1 48 256 48C370.9 48 464 141.1 464 256C464 311.7 442.1 362.2 406.5 399.6ZM366.4 432.3C334.4 452.4 296.6 464 256 464C215.4 464 177.6 452.4 145.5 432.3C152.8 395.6 185.2 368 224 368H288C326.8 368 359.2 395.6 366.5 432.3H366.4ZM256 512C323.895 512 389.01 485.029 437.019 437.019C485.029 389.01 512 323.895 512 256C512 188.105 485.029 122.99 437.019 74.9807C389.01 26.9714 323.895 0 256 0C188.105 0 122.99 26.9714 74.9807 74.9807C26.9714 122.99 0 188.105 0 256C0 323.895 26.9714 389.01 74.9807 437.019C122.99 485.029 188.105 512 256 512ZM256 240C245.391 240 235.217 235.786 227.716 228.284C220.214 220.783 216 210.609 216 200C216 189.391 220.214 179.217 227.716 171.716C235.217 164.214 245.391 160 256 160C266.609 160 276.783 164.214 284.284 171.716C291.786 179.217 296 189.391 296 200C296 210.609 291.786 220.783 284.284 228.284C276.783 235.786 266.609 240 256 240ZM168 200C168 223.339 177.271 245.722 193.775 262.225C210.278 278.729 232.661 288 256 288C279.339 288 301.722 278.729 318.225 262.225C334.729 245.722 344 223.339 344 200C344 176.661 334.729 154.278 318.225 137.775C301.722 121.271 279.339 112 256 112C232.661 112 210.278 121.271 193.775 137.775C177.271 154.278 168 176.661 168 200Z" fill="black"/>
</g>
</g>
</g>
</g>
</g>
</g>
</g>
</g>
</g>
</g>
</g>
</g>
</g>
</g>
</g>
<defs>
<clipPath id="clip0_3932_10122">
<rect width="512" height="512" fill="white"/>
</clipPath>
</defs>
</svg>
