<svg width="640" height="512" viewBox="0 0 640 512" fill="none" xmlns="http://www.w3.org/2000/svg">
<g clip-path="url(#clip0_3932_10238)">
<mask id="mask0_3932_10238" style="mask-type:luminance" maskUnits="userSpaceOnUse" x="0" y="0" width="640" height="512">
<path d="M640 0H0V512H640V0Z" fill="white"/>
</mask>
<g mask="url(#mask0_3932_10238)">
<mask id="mask1_3932_10238" style="mask-type:luminance" maskUnits="userSpaceOnUse" x="0" y="0" width="640" height="512">
<path d="M640 0H0V512H640V0Z" fill="white"/>
</mask>
<g mask="url(#mask1_3932_10238)">
<mask id="mask2_3932_10238" style="mask-type:luminance" maskUnits="userSpaceOnUse" x="0" y="0" width="640" height="512">
<path d="M640 0H0V512H640V0Z" fill="white"/>
</mask>
<g mask="url(#mask2_3932_10238)">
<mask id="mask3_3932_10238" style="mask-type:luminance" maskUnits="userSpaceOnUse" x="0" y="0" width="640" height="512">
<path d="M640 0H0V512H640V0Z" fill="white"/>
</mask>
<g mask="url(#mask3_3932_10238)">
<mask id="mask4_3932_10238" style="mask-type:luminance" maskUnits="userSpaceOnUse" x="0" y="0" width="640" height="512">
<path d="M640 0H0V512H640V0Z" fill="white"/>
</mask>
<g mask="url(#mask4_3932_10238)">
<mask id="mask5_3932_10238" style="mask-type:luminance" maskUnits="userSpaceOnUse" x="0" y="0" width="640" height="512">
<path d="M640 0H0V512H640V0Z" fill="white"/>
</mask>
<g mask="url(#mask5_3932_10238)">
<mask id="mask6_3932_10238" style="mask-type:luminance" maskUnits="userSpaceOnUse" x="0" y="0" width="640" height="512">
<path d="M640 0H0V512H640V0Z" fill="white"/>
</mask>
<g mask="url(#mask6_3932_10238)">
<mask id="mask7_3932_10238" style="mask-type:luminance" maskUnits="userSpaceOnUse" x="0" y="0" width="640" height="512">
<path d="M640 0H0V512H640V0Z" fill="white"/>
</mask>
<g mask="url(#mask7_3932_10238)">
<mask id="mask8_3932_10238" style="mask-type:luminance" maskUnits="userSpaceOnUse" x="0" y="0" width="640" height="512">
<path d="M640 0H0V512H640V0Z" fill="white"/>
</mask>
<g mask="url(#mask8_3932_10238)">
<mask id="mask9_3932_10238" style="mask-type:luminance" maskUnits="userSpaceOnUse" x="0" y="0" width="640" height="512">
<path d="M640 0H0V512H640V0Z" fill="white"/>
</mask>
<g mask="url(#mask9_3932_10238)">
<mask id="mask10_3932_10238" style="mask-type:luminance" maskUnits="userSpaceOnUse" x="0" y="0" width="640" height="512">
<path d="M640 0H0V512H640V0Z" fill="white"/>
</mask>
<g mask="url(#mask10_3932_10238)">
<mask id="mask11_3932_10238" style="mask-type:luminance" maskUnits="userSpaceOnUse" x="0" y="0" width="640" height="512">
<path d="M640 0H0V512H640V0Z" fill="white"/>
</mask>
<g mask="url(#mask11_3932_10238)">
<mask id="mask12_3932_10238" style="mask-type:luminance" maskUnits="userSpaceOnUse" x="0" y="0" width="640" height="512">
<path d="M640 0H0V512H640V0Z" fill="white"/>
</mask>
<g mask="url(#mask12_3932_10238)">
<mask id="mask13_3932_10238" style="mask-type:luminance" maskUnits="userSpaceOnUse" x="0" y="0" width="640" height="512">
<path d="M640 0H0V512H640V0Z" fill="white"/>
</mask>
<g mask="url(#mask13_3932_10238)">
<path d="M480 48C480 21.5 458.5 0 432 0H336C309.5 0 288 21.5 288 48V96H224V24C224 10.7 213.3 0 200 0C186.7 0 176 10.7 176 24V96H112V24C112 10.7 101.3 0 88 0C74.7 0 64 10.7 64 24V96H48C21.5 96 0 117.5 0 144V240V464C0 490.5 21.5 512 48 512H304H336H432H592C618.5 512 640 490.5 640 464V240C640 213.5 618.5 192 592 192H480V48ZM576 368V400C576 408.8 568.8 416 560 416H528C519.2 416 512 408.8 512 400V368C512 359.2 519.2 352 528 352H560C568.8 352 576 359.2 576 368ZM240 416H208C199.2 416 192 408.8 192 400V368C192 359.2 199.2 352 208 352H240C248.8 352 256 359.2 256 368V400C256 408.8 248.8 416 240 416ZM128 400C128 408.8 120.8 416 112 416H80C71.2 416 64 408.8 64 400V368C64 359.2 71.2 352 80 352H112C120.8 352 128 359.2 128 368V400ZM560 256C568.8 256 576 263.2 576 272V304C576 312.8 568.8 320 560 320H528C519.2 320 512 312.8 512 304V272C512 263.2 519.2 256 528 256H560ZM256 176V208C256 216.8 248.8 224 240 224H208C199.2 224 192 216.8 192 208V176C192 167.2 199.2 160 208 160H240C248.8 160 256 167.2 256 176ZM112 160C120.8 160 128 167.2 128 176V208C128 216.8 120.8 224 112 224H80C71.2 224 64 216.8 64 208V176C64 167.2 71.2 160 80 160H112ZM256 304C256 312.8 248.8 320 240 320H208C199.2 320 192 312.8 192 304V272C192 263.2 199.2 256 208 256H240C248.8 256 256 263.2 256 272V304ZM112 320H80C71.2 320 64 312.8 64 304V272C64 263.2 71.2 256 80 256H112C120.8 256 128 263.2 128 272V304C128 312.8 120.8 320 112 320ZM416 272V304C416 312.8 408.8 320 400 320H368C359.2 320 352 312.8 352 304V272C352 263.2 359.2 256 368 256H400C408.8 256 416 263.2 416 272ZM400 64C408.8 64 416 71.2 416 80V112C416 120.8 408.8 128 400 128H368C359.2 128 352 120.8 352 112V80C352 71.2 359.2 64 368 64H400ZM416 176V208C416 216.8 408.8 224 400 224H368C359.2 224 352 216.8 352 208V176C352 167.2 359.2 160 368 160H400C408.8 160 416 167.2 416 176Z" fill="black"/>
</g>
</g>
</g>
</g>
</g>
</g>
</g>
</g>
</g>
</g>
</g>
</g>
</g>
</g>
</g>
<defs>
<clipPath id="clip0_3932_10238">
<rect width="640" height="512" fill="white"/>
</clipPath>
</defs>
</svg>
