<svg width="800" height="800" viewBox="0 0 800 800" fill="none" xmlns="http://www.w3.org/2000/svg">
<g clip-path="url(#clip0_3932_10758)">
<mask id="mask0_3932_10758" style="mask-type:luminance" maskUnits="userSpaceOnUse" x="0" y="0" width="800" height="800">
<path d="M800 0H0V800H800V0Z" fill="white"/>
</mask>
<g mask="url(#mask0_3932_10758)">
<mask id="mask1_3932_10758" style="mask-type:luminance" maskUnits="userSpaceOnUse" x="0" y="0" width="800" height="800">
<path d="M800 0H0V800H800V0Z" fill="white"/>
</mask>
<g mask="url(#mask1_3932_10758)">
<mask id="mask2_3932_10758" style="mask-type:luminance" maskUnits="userSpaceOnUse" x="0" y="0" width="800" height="800">
<path d="M800 0H0V800H800V0Z" fill="white"/>
</mask>
<g mask="url(#mask2_3932_10758)">
<mask id="mask3_3932_10758" style="mask-type:luminance" maskUnits="userSpaceOnUse" x="0" y="0" width="800" height="800">
<path d="M800 0H0V800H800V0Z" fill="white"/>
</mask>
<g mask="url(#mask3_3932_10758)">
<mask id="mask4_3932_10758" style="mask-type:luminance" maskUnits="userSpaceOnUse" x="0" y="0" width="800" height="800">
<path d="M800 0H0V800H800V0Z" fill="white"/>
</mask>
<g mask="url(#mask4_3932_10758)">
<mask id="mask5_3932_10758" style="mask-type:luminance" maskUnits="userSpaceOnUse" x="0" y="0" width="800" height="800">
<path d="M800 0H0V800H800V0Z" fill="white"/>
</mask>
<g mask="url(#mask5_3932_10758)">
<mask id="mask6_3932_10758" style="mask-type:luminance" maskUnits="userSpaceOnUse" x="0" y="0" width="800" height="800">
<path d="M800 0H0V800H800V0Z" fill="white"/>
</mask>
<g mask="url(#mask6_3932_10758)">
<mask id="mask7_3932_10758" style="mask-type:luminance" maskUnits="userSpaceOnUse" x="0" y="0" width="800" height="800">
<path d="M800 0H0V800H800V0Z" fill="white"/>
</mask>
<g mask="url(#mask7_3932_10758)">
<mask id="mask8_3932_10758" style="mask-type:luminance" maskUnits="userSpaceOnUse" x="0" y="0" width="800" height="800">
<path d="M800 0H0V800H800V0Z" fill="white"/>
</mask>
<g mask="url(#mask8_3932_10758)">
<mask id="mask9_3932_10758" style="mask-type:luminance" maskUnits="userSpaceOnUse" x="0" y="0" width="800" height="800">
<path d="M800 0H0V800H800V0Z" fill="white"/>
</mask>
<g mask="url(#mask9_3932_10758)">
<mask id="mask10_3932_10758" style="mask-type:luminance" maskUnits="userSpaceOnUse" x="0" y="0" width="800" height="800">
<path d="M800 0H0V800H800V0Z" fill="white"/>
</mask>
<g mask="url(#mask10_3932_10758)">
<path d="M504.412 200H95.5878C42.7961 200 0 242.796 0 295.588V704.412C0 757.204 42.7961 800 95.5878 800H504.412C557.204 800 600 757.204 600 704.412V295.588C600 242.796 557.204 200 504.412 200Z" fill="black"/>
<path d="M505.512 599.998V295.586C505.512 295.025 505.582 294.675 505.654 294.467C505.727 294.259 505.803 294.195 505.803 294.195C505.803 294.195 505.738 294.27 505.529 294.342C505.321 294.414 504.973 294.486 504.412 294.486H200V504.41C200 557.366 242.632 599.998 295.588 599.998H505.512Z" fill="black"/>
<path d="M295.588 0C242.632 0 200 42.6323 200 95.5879V105.516H504.412C506.032 105.516 507.647 105.538 509.258 105.578C510.869 105.62 512.476 105.682 514.078 105.766C515.68 105.849 517.277 105.952 518.869 106.076C520.461 106.201 522.049 106.345 523.631 106.51C525.213 106.674 526.788 106.86 528.359 107.065C529.931 107.269 531.497 107.493 533.057 107.737C534.616 107.98 536.169 108.243 537.717 108.526C539.265 108.808 540.808 109.109 542.344 109.43C543.879 109.75 545.407 110.091 546.93 110.449C548.452 110.808 549.969 111.185 551.478 111.58C552.988 111.976 554.489 112.388 555.984 112.821C557.48 113.253 558.969 113.704 560.449 114.172C563.411 115.109 566.342 116.118 569.242 117.196C572.142 118.273 575.011 119.42 577.846 120.635C580.681 121.85 583.483 123.133 586.248 124.481C589.013 125.829 591.742 127.242 594.434 128.719C597.125 130.196 599.779 131.735 602.393 133.336C605.006 134.937 607.58 136.599 610.111 138.32C612.643 140.042 615.131 141.823 617.576 143.66C620.021 145.498 622.421 147.391 624.775 149.34C627.13 151.289 629.438 153.293 631.697 155.35C633.956 157.406 636.166 159.516 638.326 161.676C640.486 163.836 642.596 166.046 644.652 168.305C646.709 170.564 648.715 172.873 650.664 175.227C652.613 177.581 654.506 179.981 656.344 182.426C658.181 184.871 659.962 187.36 661.684 189.891C663.405 192.422 665.067 194.994 666.668 197.608C668.269 200.221 669.809 202.875 671.285 205.567C672.762 208.258 674.175 210.987 675.523 213.752C676.871 216.517 678.154 219.32 679.369 222.155C680.584 224.989 681.733 227.858 682.811 230.758C683.889 233.658 684.897 236.59 685.834 239.551C686.302 241.032 686.753 242.521 687.186 244.016C687.618 245.511 688.03 247.013 688.426 248.522C688.821 250.031 689.198 251.548 689.557 253.07C689.915 254.593 690.255 256.121 690.576 257.656C690.897 259.192 691.198 260.734 691.481 262.281C691.763 263.829 692.026 265.384 692.27 266.944C692.513 268.503 692.739 270.07 692.943 271.641C693.148 273.212 693.332 274.787 693.496 276.369C693.661 277.951 693.805 279.539 693.93 281.131C694.054 282.723 694.157 284.32 694.24 285.922C694.323 287.524 694.386 289.131 694.428 290.742C694.47 292.353 694.492 293.968 694.492 295.588V600H704.412C757.367 600 800 557.368 800 504.412V95.5879C800 42.6323 757.367 0 704.412 0H295.588Z" fill="black"/>
</g>
</g>
</g>
</g>
</g>
</g>
</g>
</g>
</g>
</g>
</g>
</g>
<defs>
<clipPath id="clip0_3932_10758">
<rect width="800" height="800" fill="white"/>
</clipPath>
</defs>
</svg>
