<svg width="640" height="512" viewBox="0 0 640 512" fill="none" xmlns="http://www.w3.org/2000/svg">
<path d="M144 480C64.5 480 0 415.5 0 336C0 273.2 40.2 219.8 96.2 200.1C96.1 197.4 96 194.7 96 192C96 103.6 167.6 32 256 32C315.3 32 367 64.2 394.7 112.2C409.9 102 428.3 96 448 96C501 96 544 139 544 192C544 204.2 541.7 215.8 537.6 226.6C596 238.4 640 290.1 640 352C640 422.7 582.7 480 512 480H144ZM223 313L303 393C312.4 402.4 327.6 402.4 336.9 393L416.9 313C426.3 303.6 426.3 288.4 416.9 279.1C407.5 269.8 392.3 269.7 383 279.1L344 318.1V184C344 170.7 333.3 160 320 160C306.7 160 296 170.7 296 184V318.1L257 279.1C247.6 269.7 232.4 269.7 223.1 279.1C213.8 288.5 213.7 303.7 223.1 313H223Z" fill="black"/>
</svg>
