<svg width="640" height="512" viewBox="0 0 640 512" fill="none" xmlns="http://www.w3.org/2000/svg">
<g clip-path="url(#clip0_3932_10870)">
<mask id="mask0_3932_10870" style="mask-type:luminance" maskUnits="userSpaceOnUse" x="0" y="0" width="640" height="512">
<path d="M640 0H0V512H640V0Z" fill="white"/>
</mask>
<g mask="url(#mask0_3932_10870)">
<mask id="mask1_3932_10870" style="mask-type:luminance" maskUnits="userSpaceOnUse" x="0" y="0" width="640" height="512">
<path d="M640 0H0V512H640V0Z" fill="white"/>
</mask>
<g mask="url(#mask1_3932_10870)">
<mask id="mask2_3932_10870" style="mask-type:luminance" maskUnits="userSpaceOnUse" x="0" y="0" width="640" height="512">
<path d="M640 0H0V512H640V0Z" fill="white"/>
</mask>
<g mask="url(#mask2_3932_10870)">
<mask id="mask3_3932_10870" style="mask-type:luminance" maskUnits="userSpaceOnUse" x="0" y="0" width="640" height="512">
<path d="M640 0H0V512H640V0Z" fill="white"/>
</mask>
<g mask="url(#mask3_3932_10870)">
<mask id="mask4_3932_10870" style="mask-type:luminance" maskUnits="userSpaceOnUse" x="0" y="0" width="640" height="512">
<path d="M640 0H0V512H640V0Z" fill="white"/>
</mask>
<g mask="url(#mask4_3932_10870)">
<mask id="mask5_3932_10870" style="mask-type:luminance" maskUnits="userSpaceOnUse" x="0" y="0" width="640" height="512">
<path d="M640 0H0V512H640V0Z" fill="white"/>
</mask>
<g mask="url(#mask5_3932_10870)">
<mask id="mask6_3932_10870" style="mask-type:luminance" maskUnits="userSpaceOnUse" x="0" y="0" width="640" height="512">
<path d="M640 0H0V512H640V0Z" fill="white"/>
</mask>
<g mask="url(#mask6_3932_10870)">
<mask id="mask7_3932_10870" style="mask-type:luminance" maskUnits="userSpaceOnUse" x="0" y="0" width="640" height="512">
<path d="M640 0H0V512H640V0Z" fill="white"/>
</mask>
<g mask="url(#mask7_3932_10870)">
<mask id="mask8_3932_10870" style="mask-type:luminance" maskUnits="userSpaceOnUse" x="0" y="0" width="640" height="512">
<path d="M640 0H0V512H640V0Z" fill="white"/>
</mask>
<g mask="url(#mask8_3932_10870)">
<mask id="mask9_3932_10870" style="mask-type:luminance" maskUnits="userSpaceOnUse" x="0" y="0" width="640" height="512">
<path d="M640 0H0V512H640V0Z" fill="white"/>
</mask>
<g mask="url(#mask9_3932_10870)">
<mask id="mask10_3932_10870" style="mask-type:luminance" maskUnits="userSpaceOnUse" x="0" y="0" width="640" height="512">
<path d="M640 0H0V512H640V0Z" fill="white"/>
</mask>
<g mask="url(#mask10_3932_10870)">
<mask id="mask11_3932_10870" style="mask-type:luminance" maskUnits="userSpaceOnUse" x="0" y="0" width="640" height="512">
<path d="M640 0H0V512H640V0Z" fill="white"/>
</mask>
<g mask="url(#mask11_3932_10870)">
<mask id="mask12_3932_10870" style="mask-type:luminance" maskUnits="userSpaceOnUse" x="0" y="0" width="640" height="512">
<path d="M640 0H0V512H640V0Z" fill="white"/>
</mask>
<g mask="url(#mask12_3932_10870)">
<mask id="mask13_3932_10870" style="mask-type:luminance" maskUnits="userSpaceOnUse" x="0" y="0" width="640" height="512">
<path d="M640 0H0V512H640V0Z" fill="white"/>
</mask>
<g mask="url(#mask13_3932_10870)">
<path d="M407.906 319.918L177.106 316.99C176.392 316.974 175.692 316.791 175.062 316.457C174.431 316.123 173.887 315.645 173.474 315.064C173.074 314.459 172.821 313.769 172.735 313.049C172.649 312.329 172.733 311.598 172.98 310.917C173.38 309.789 174.1 308.803 175.052 308.078C176.005 307.354 177.148 306.924 178.341 306.841L411.281 303.905C438.912 302.645 468.827 280.331 479.303 253.121L492.589 218.579C492.947 217.642 493.125 216.646 493.113 215.643C493.116 215.095 493.061 214.548 492.949 214.012C485.582 181.839 467.938 152.941 442.685 131.689C417.433 110.438 385.946 97.9883 352.988 96.2249C320.03 94.4615 287.394 103.48 260.018 121.916C232.642 140.352 212.015 167.202 201.257 198.405C189.991 189.898 176.36 185.102 162.249 184.679C148.138 184.256 134.245 188.228 122.49 196.045C110.734 203.862 101.698 215.138 96.63 228.314C91.5621 241.49 90.7129 255.915 94.2 269.595C41.924 271.111 0 313.733 0 366.125C0.00312627 370.796 0.347039 375.461 1.029 380.083C1.18191 381.154 1.71511 382.134 2.5312 382.845C3.3473 383.556 4.39183 383.949 5.474 383.954L431.574 384.005C431.617 384.005 431.654 383.986 431.696 383.985C432.885 383.963 434.037 383.564 434.985 382.845C435.932 382.126 436.626 381.124 436.967 379.985L440.24 368.72C444.14 355.32 442.688 342.92 436.14 333.82C430.124 325.428 420.09 320.492 407.906 319.918ZM513.856 221.105C511.715 221.105 509.585 221.167 507.465 221.269C506.708 221.325 505.986 221.608 505.393 222.082C504.8 222.555 504.364 223.196 504.141 223.922L495.064 255.115C491.164 268.515 492.615 280.901 499.164 290.005C505.184 298.405 515.218 303.328 527.402 303.905L576.602 306.844C577.293 306.868 577.97 307.051 578.579 307.38C579.188 307.708 579.712 308.173 580.112 308.738C580.52 309.343 580.779 310.036 580.868 310.761C580.957 311.485 580.874 312.22 580.626 312.907C580.226 314.032 579.507 315.016 578.557 315.74C577.606 316.464 576.466 316.895 575.275 316.982L524.15 319.921C496.396 321.191 466.481 343.495 456.005 370.705L452.31 380.311C452.157 380.713 452.102 381.146 452.149 381.574C452.196 382.002 452.344 382.413 452.581 382.772C452.818 383.132 453.137 383.43 453.512 383.641C453.887 383.853 454.307 383.973 454.737 383.991C454.783 383.991 454.825 384.008 454.873 384.008H630.783C631.803 384.016 632.798 383.692 633.617 383.083C634.436 382.475 635.035 381.617 635.322 380.638C638.441 369.574 640.017 358.132 640.004 346.638C640 277.305 583.524 221.105 513.856 221.105Z" fill="black"/>
</g>
</g>
</g>
</g>
</g>
</g>
</g>
</g>
</g>
</g>
</g>
</g>
</g>
</g>
</g>
<defs>
<clipPath id="clip0_3932_10870">
<rect width="640" height="512" fill="white"/>
</clipPath>
</defs>
</svg>
