<svg width="640" height="512" viewBox="0 0 640 512" fill="none" xmlns="http://www.w3.org/2000/svg">
<path d="M144 480C64.5 480 0 415.5 0 336C0 273.2 40.2 219.8 96.2 200.1C96.1 197.4 96 194.7 96 192C96 103.6 167.6 32 256 32C315.3 32 367 64.2 394.7 112.2C409.9 102 428.3 96 448 96C501 96 544 139 544 192C544 204.2 541.7 215.8 537.6 226.6C596 238.4 640 290.1 640 352C640 422.7 582.7 480 512 480H144ZM223 263C213.6 272.4 213.6 287.6 223 296.9C232.4 306.2 247.6 306.3 256.9 296.9L295.9 257.9V392C295.9 405.3 306.6 416 319.9 416C333.2 416 343.9 405.3 343.9 392V257.9L382.9 296.9C392.3 306.3 407.5 306.3 416.8 296.9C426.1 287.5 426.2 272.3 416.8 263L336.8 183C327.4 173.6 312.2 173.6 302.9 183L222.9 263H223Z" fill="black"/>
</svg>
