<svg width="576" height="512" viewBox="0 0 576 512" fill="none" xmlns="http://www.w3.org/2000/svg">
<g clip-path="url(#clip0_3932_10988)">
<mask id="mask0_3932_10988" style="mask-type:luminance" maskUnits="userSpaceOnUse" x="0" y="0" width="576" height="512">
<path d="M576 0H0V512H576V0Z" fill="white"/>
</mask>
<g mask="url(#mask0_3932_10988)">
<mask id="mask1_3932_10988" style="mask-type:luminance" maskUnits="userSpaceOnUse" x="0" y="0" width="576" height="512">
<path d="M576 0H0V512H576V0Z" fill="white"/>
</mask>
<g mask="url(#mask1_3932_10988)">
<mask id="mask2_3932_10988" style="mask-type:luminance" maskUnits="userSpaceOnUse" x="0" y="0" width="576" height="512">
<path d="M576 0H0V512H576V0Z" fill="white"/>
</mask>
<g mask="url(#mask2_3932_10988)">
<mask id="mask3_3932_10988" style="mask-type:luminance" maskUnits="userSpaceOnUse" x="0" y="0" width="576" height="512">
<path d="M576 0H0V512H576V0Z" fill="white"/>
</mask>
<g mask="url(#mask3_3932_10988)">
<mask id="mask4_3932_10988" style="mask-type:luminance" maskUnits="userSpaceOnUse" x="0" y="0" width="576" height="512">
<path d="M576 0H0V512H576V0Z" fill="white"/>
</mask>
<g mask="url(#mask4_3932_10988)">
<mask id="mask5_3932_10988" style="mask-type:luminance" maskUnits="userSpaceOnUse" x="0" y="0" width="576" height="512">
<path d="M576 0H0V512H576V0Z" fill="white"/>
</mask>
<g mask="url(#mask5_3932_10988)">
<mask id="mask6_3932_10988" style="mask-type:luminance" maskUnits="userSpaceOnUse" x="0" y="0" width="576" height="512">
<path d="M576 0H0V512H576V0Z" fill="white"/>
</mask>
<g mask="url(#mask6_3932_10988)">
<mask id="mask7_3932_10988" style="mask-type:luminance" maskUnits="userSpaceOnUse" x="0" y="0" width="576" height="512">
<path d="M576 0H0V512H576V0Z" fill="white"/>
</mask>
<g mask="url(#mask7_3932_10988)">
<mask id="mask8_3932_10988" style="mask-type:luminance" maskUnits="userSpaceOnUse" x="0" y="0" width="576" height="512">
<path d="M576 0H0V512H576V0Z" fill="white"/>
</mask>
<g mask="url(#mask8_3932_10988)">
<mask id="mask9_3932_10988" style="mask-type:luminance" maskUnits="userSpaceOnUse" x="0" y="0" width="576" height="512">
<path d="M576 0H0V512H576V0Z" fill="white"/>
</mask>
<g mask="url(#mask9_3932_10988)">
<mask id="mask10_3932_10988" style="mask-type:luminance" maskUnits="userSpaceOnUse" x="0" y="0" width="576" height="512">
<path d="M576 0H0V512H576V0Z" fill="white"/>
</mask>
<g mask="url(#mask10_3932_10988)">
<mask id="mask11_3932_10988" style="mask-type:luminance" maskUnits="userSpaceOnUse" x="0" y="0" width="576" height="512">
<path d="M576 0H0V512H576V0Z" fill="white"/>
</mask>
<g mask="url(#mask11_3932_10988)">
<mask id="mask12_3932_10988" style="mask-type:luminance" maskUnits="userSpaceOnUse" x="0" y="0" width="576" height="512">
<path d="M576 0H0V512H576V0Z" fill="white"/>
</mask>
<g mask="url(#mask12_3932_10988)">
<mask id="mask13_3932_10988" style="mask-type:luminance" maskUnits="userSpaceOnUse" x="0" y="0" width="576" height="512">
<path d="M576 0H0V512H576V0Z" fill="white"/>
</mask>
<g mask="url(#mask13_3932_10988)">
<path d="M481.2 -0.00156845C417 -0.00156845 363.5 46.4984 353.7 107.598C389.1 125.198 413.9 160.898 415.8 202.698C439 213.698 457.8 232.398 468.9 255.398C472.9 255.798 477 255.998 481.2 255.998C516.1 255.998 547.9 242.198 571.1 219.898C576.2 214.998 577.5 207.398 574.3 201.198C571.1 194.998 564.2 191.498 557.3 192.598C552.4 193.398 547.3 193.898 542.1 193.898C493.1 193.898 453.7 154.598 453.7 106.498C453.7 73.8984 471.7 45.3984 498.6 30.3984C504.7 26.9984 507.9 19.8984 506.4 12.9984C504.9 6.09844 499.1 0.998433 492.1 0.398438C488.5 0.0984319 484.8 -0.101562 481.2 -0.101562V-0.00156845ZM367.9 383.898C412.1 383.898 447.9 348.098 447.9 303.898C447.9 264.598 419.5 231.798 382.1 225.198C383.3 219.598 384 213.898 384 207.998C384 163.798 348.2 127.998 304 127.998C287 127.998 271.2 133.298 258.2 142.398C241.3 114.598 210.8 95.9984 176 95.9984C123 95.9984 80 138.998 80 191.998V193.298C34.6 200.898 0 240.398 0 287.898C0 340.898 43 383.898 96 383.898H367.9ZM85.4 420.098C74.4 412.698 59.5 415.698 52.1 426.798L20.1 474.798C12.7 485.798 15.7 500.698 26.8 508.098C37.9 515.498 52.7 512.498 60.1 501.398L92.1 453.398C99.5 442.398 96.5 427.498 85.4 420.098ZM181.4 420.098C170.4 412.698 155.5 415.698 148.1 426.798L116.1 474.798C108.7 485.798 111.7 500.698 122.8 508.098C133.9 515.498 148.7 512.498 156.1 501.398L188.1 453.398C195.5 442.398 192.5 427.498 181.4 420.098ZM277.4 420.098C266.4 412.698 251.5 415.698 244.1 426.798L212.1 474.798C204.7 485.798 207.7 500.698 218.8 508.098C229.9 515.498 244.7 512.498 252.1 501.398L284.1 453.398C291.5 442.398 288.5 427.498 277.4 420.098ZM373.4 420.098C362.4 412.698 347.5 415.698 340.1 426.798L308.1 474.798C300.7 485.798 303.7 500.698 314.8 508.098C325.9 515.498 340.7 512.498 348.1 501.398L380.1 453.398C387.5 442.398 384.5 427.498 373.4 420.098Z" fill="black"/>
</g>
</g>
</g>
</g>
</g>
</g>
</g>
</g>
</g>
</g>
</g>
</g>
</g>
</g>
</g>
<defs>
<clipPath id="clip0_3932_10988">
<rect width="576" height="512" fill="white"/>
</clipPath>
</defs>
</svg>
