<svg width="512" height="512" viewBox="0 0 512 512" fill="none" xmlns="http://www.w3.org/2000/svg">
<g clip-path="url(#clip0_3932_10812)">
<mask id="mask0_3932_10812" style="mask-type:luminance" maskUnits="userSpaceOnUse" x="0" y="0" width="512" height="512">
<path d="M512 0H0V512H512V0Z" fill="white"/>
</mask>
<g mask="url(#mask0_3932_10812)">
<mask id="mask1_3932_10812" style="mask-type:luminance" maskUnits="userSpaceOnUse" x="0" y="0" width="512" height="512">
<path d="M512 0H0V512H512V0Z" fill="white"/>
</mask>
<g mask="url(#mask1_3932_10812)">
<mask id="mask2_3932_10812" style="mask-type:luminance" maskUnits="userSpaceOnUse" x="0" y="0" width="512" height="512">
<path d="M512 0H0V512H512V0Z" fill="white"/>
</mask>
<g mask="url(#mask2_3932_10812)">
<mask id="mask3_3932_10812" style="mask-type:luminance" maskUnits="userSpaceOnUse" x="0" y="0" width="512" height="512">
<path d="M512 0H0V512H512V0Z" fill="white"/>
</mask>
<g mask="url(#mask3_3932_10812)">
<mask id="mask4_3932_10812" style="mask-type:luminance" maskUnits="userSpaceOnUse" x="0" y="0" width="512" height="512">
<path d="M512 0H0V512H512V0Z" fill="white"/>
</mask>
<g mask="url(#mask4_3932_10812)">
<mask id="mask5_3932_10812" style="mask-type:luminance" maskUnits="userSpaceOnUse" x="0" y="0" width="512" height="512">
<path d="M512 0H0V512H512V0Z" fill="white"/>
</mask>
<g mask="url(#mask5_3932_10812)">
<mask id="mask6_3932_10812" style="mask-type:luminance" maskUnits="userSpaceOnUse" x="0" y="0" width="512" height="512">
<path d="M512 0H0V512H512V0Z" fill="white"/>
</mask>
<g mask="url(#mask6_3932_10812)">
<mask id="mask7_3932_10812" style="mask-type:luminance" maskUnits="userSpaceOnUse" x="0" y="0" width="512" height="512">
<path d="M512 0H0V512H512V0Z" fill="white"/>
</mask>
<g mask="url(#mask7_3932_10812)">
<mask id="mask8_3932_10812" style="mask-type:luminance" maskUnits="userSpaceOnUse" x="0" y="0" width="512" height="512">
<path d="M512 0H0V512H512V0Z" fill="white"/>
</mask>
<g mask="url(#mask8_3932_10812)">
<mask id="mask9_3932_10812" style="mask-type:luminance" maskUnits="userSpaceOnUse" x="0" y="0" width="512" height="512">
<path d="M512 0H0V512H512V0Z" fill="white"/>
</mask>
<g mask="url(#mask9_3932_10812)">
<mask id="mask10_3932_10812" style="mask-type:luminance" maskUnits="userSpaceOnUse" x="0" y="0" width="512" height="512">
<path d="M512 0H0V512H512V0Z" fill="white"/>
</mask>
<g mask="url(#mask10_3932_10812)">
<mask id="mask11_3932_10812" style="mask-type:luminance" maskUnits="userSpaceOnUse" x="0" y="0" width="512" height="512">
<path d="M512 0H0V512H512V0Z" fill="white"/>
</mask>
<g mask="url(#mask11_3932_10812)">
<mask id="mask12_3932_10812" style="mask-type:luminance" maskUnits="userSpaceOnUse" x="0" y="0" width="512" height="512">
<path d="M512 0H0V512H512V0Z" fill="white"/>
</mask>
<g mask="url(#mask12_3932_10812)">
<mask id="mask13_3932_10812" style="mask-type:luminance" maskUnits="userSpaceOnUse" x="0" y="0" width="512" height="512">
<path d="M512 0H0V512H512V0Z" fill="white"/>
</mask>
<g mask="url(#mask13_3932_10812)">
<path d="M0 224C0 277 43 320 96 320H143.2L290 202.5C307.6 188.4 332.6 188.5 350.2 202.7C367.8 216.9 373 241.3 363 261.5L333.7 320H352H416C469 320 512 277 512 224C512 171 469 128 416 128C415.5 128 414.9 128 414.4 128C415.5 122.8 416 117.5 416 112C416 67.8 380.2 32 336 32C311.7 32 289.9 42.9 275.2 60C256.5 24.3 219.1 0 176 0C114.1 0 64 50.1 64 112C64 119.1 64.7 126.1 65.9 132.8C27.6 145.4 0 181.5 0 224ZM330.1 227.6C324.3 222.9 315.9 222.9 310 227.5L150 355.5C144.7 359.7 142.6 366.9 144.9 373.3C147.2 379.7 153.2 384 160 384H230.1L177.7 488.8C174.3 495.5 176.1 503.7 182 508.4C187.9 513.1 196.2 513.1 202.1 508.5L362.1 380.5C367.4 376.3 369.5 369.1 367.2 362.7C364.9 356.3 358.9 352 352.1 352H281.9L334.3 247.2C337.7 240.5 335.9 232.3 330.1 227.6Z" fill="black"/>
</g>
</g>
</g>
</g>
</g>
</g>
</g>
</g>
</g>
</g>
</g>
</g>
</g>
</g>
</g>
<defs>
<clipPath id="clip0_3932_10812">
<rect width="512" height="512" fill="white"/>
</clipPath>
</defs>
</svg>
