<svg width="616" height="512" viewBox="0 0 616 512" fill="none" xmlns="http://www.w3.org/2000/svg">
<path d="M148.6 303.997C156.8 372.497 216 419.497 294.6 415.297C345.8 458.597 431.4 461.097 481 409.697C550.2 410.797 599.5 365.097 612.5 310.197C627.3 247.697 594.3 177.697 520.4 155.097C487.4 66.9974 389 53.5974 333.9 70.0974C276.6 87.3974 249.6 123.297 234.6 179.797C226.8 182.497 208.1 188.697 189.6 203.897C201.3 203.897 204.8 212.797 204.8 223.397V243.797C204.8 254.497 196.1 263.297 185.3 263.297H165.1C154.4 263.297 145.6 257.297 145.6 246.597V239.997H98.8C95 239.997 88 244.297 88 251.897V292.297C88 298.697 93.3 304.097 99.7 304.097H148.6V303.997ZM376 311.997C365.3 358.297 397.7 384.397 431.3 398.797C324.1 432.597 259.7 347.997 296 287.997C262.8 309.597 262.3 359.197 266.8 380.897C248.9 368.497 213 348.497 209.4 301.097C206.4 261.197 230.9 225.397 266.4 207.197C297 191.397 369.9 198.697 400 247.997C385.9 199.997 346.2 177.897 298.2 173.197C329.1 142.497 362.6 122.897 412.4 129.497C482.2 138.797 545.6 212.297 480.1 279.997C515.1 263.697 528.8 225.597 527.6 203.097L538.1 222.697C549.9 244.697 553.3 270.297 547.5 294.697C538.3 333.697 506.9 363.497 467.8 371.197C435.7 377.497 384.7 366.097 376 311.997ZM128 207.997H88.2C79.3 207.997 72 200.697 72 191.797V152.197C72 143.297 79.3 135.997 88.2 135.997H128C136.9 135.997 144.2 143.297 144.2 152.197V191.797C144.2 200.697 136.9 207.997 128 207.997ZM10.1 167.997C4.5 167.997 0 163.497 0 157.897V130.097C0 124.497 4.5 119.997 10.1 119.997H37.8C43.3 119.997 47.9 124.497 47.9 130.097V157.897C47.9 163.497 43.4 167.997 37.8 167.997H10.1ZM168 142.697V121.297C168 116.197 172.2 111.997 177.3 111.997H198.7C203.8 111.997 208 116.197 208 121.297V142.697C208 147.797 203.8 151.997 198.7 151.997H177.3C172.2 151.997 168 147.797 168 142.697ZM56 235.497V260.497C56 266.797 50.9 271.997 44.6 271.997H19.4C13.1 271.997 8 266.797 8 260.497V235.497C8 229.197 13.1 223.997 19.4 223.997H44.5C50.9 223.997 56 229.197 56 235.497Z" fill="black"/>
</svg>
