<svg width="640" height="512" viewBox="0 0 640 512" fill="none" xmlns="http://www.w3.org/2000/svg">
<path d="M495.8 0C501.3 0 506.7 0.2 512.1 0.7C519.1 1.3 524.9 6.4 526.4 13.2C527.9 20 524.8 27.1 518.7 30.5C474.3 55.7 444.3 103.5 444.3 158.3C444.3 239.3 509.8 304.9 590.5 304.9C599.1 304.9 607.5 304.2 615.6 302.8C622.5 301.6 629.4 305 632.6 311.3C635.8 317.6 634.5 325.1 629.5 330C595 363.6 547.8 384.4 495.9 384.4C486.6 384.4 477.5 383.7 468.5 382.5C457.3 359.9 438.7 341.6 415.9 330.8C413.2 272.3 365.6 225.5 306.7 224.1C305 213.7 304.1 203.1 304.1 192.3C304 86.1 389.8 0 495.8 0ZM447.9 431.9C447.9 476.1 412.1 511.9 367.9 511.9H96C43 511.9 0 468.9 0 415.9C0 368.3 34.6 328.9 80 321.3V320C80 267 123 224 176 224C210.9 224 241.4 242.6 258.2 270.4C271.2 261.3 287 256 304 256C348.2 256 384 291.8 384 336C384 341.9 383.4 347.7 382.1 353.2C419.5 359.9 447.9 392.6 447.9 431.9Z" fill="black"/>
</svg>
