<svg width="640" height="512" viewBox="0 0 640 512" fill="none" xmlns="http://www.w3.org/2000/svg">
<g clip-path="url(#clip0_3932_11456)">
<mask id="mask0_3932_11456" style="mask-type:luminance" maskUnits="userSpaceOnUse" x="0" y="0" width="640" height="512">
<path d="M640 0H0V512H640V0Z" fill="white"/>
</mask>
<g mask="url(#mask0_3932_11456)">
<mask id="mask1_3932_11456" style="mask-type:luminance" maskUnits="userSpaceOnUse" x="0" y="0" width="640" height="512">
<path d="M640 0H0V512H640V0Z" fill="white"/>
</mask>
<g mask="url(#mask1_3932_11456)">
<mask id="mask2_3932_11456" style="mask-type:luminance" maskUnits="userSpaceOnUse" x="0" y="0" width="640" height="512">
<path d="M640 0H0V512H640V0Z" fill="white"/>
</mask>
<g mask="url(#mask2_3932_11456)">
<mask id="mask3_3932_11456" style="mask-type:luminance" maskUnits="userSpaceOnUse" x="0" y="0" width="640" height="512">
<path d="M640 0H0V512H640V0Z" fill="white"/>
</mask>
<g mask="url(#mask3_3932_11456)">
<mask id="mask4_3932_11456" style="mask-type:luminance" maskUnits="userSpaceOnUse" x="0" y="0" width="640" height="512">
<path d="M640 0H0V512H640V0Z" fill="white"/>
</mask>
<g mask="url(#mask4_3932_11456)">
<mask id="mask5_3932_11456" style="mask-type:luminance" maskUnits="userSpaceOnUse" x="0" y="0" width="640" height="512">
<path d="M640 0H0V512H640V0Z" fill="white"/>
</mask>
<g mask="url(#mask5_3932_11456)">
<mask id="mask6_3932_11456" style="mask-type:luminance" maskUnits="userSpaceOnUse" x="0" y="0" width="640" height="512">
<path d="M640 0H0V512H640V0Z" fill="white"/>
</mask>
<g mask="url(#mask6_3932_11456)">
<mask id="mask7_3932_11456" style="mask-type:luminance" maskUnits="userSpaceOnUse" x="0" y="0" width="640" height="512">
<path d="M640 0H0V512H640V0Z" fill="white"/>
</mask>
<g mask="url(#mask7_3932_11456)">
<mask id="mask8_3932_11456" style="mask-type:luminance" maskUnits="userSpaceOnUse" x="0" y="0" width="640" height="512">
<path d="M640 0H0V512H640V0Z" fill="white"/>
</mask>
<g mask="url(#mask8_3932_11456)">
<mask id="mask9_3932_11456" style="mask-type:luminance" maskUnits="userSpaceOnUse" x="0" y="0" width="640" height="512">
<path d="M640 0H0V512H640V0Z" fill="white"/>
</mask>
<g mask="url(#mask9_3932_11456)">
<mask id="mask10_3932_11456" style="mask-type:luminance" maskUnits="userSpaceOnUse" x="0" y="0" width="640" height="512">
<path d="M640 0H0V512H640V0Z" fill="white"/>
</mask>
<g mask="url(#mask10_3932_11456)">
<mask id="mask11_3932_11456" style="mask-type:luminance" maskUnits="userSpaceOnUse" x="0" y="0" width="640" height="512">
<path d="M640 0H0V512H640V0Z" fill="white"/>
</mask>
<g mask="url(#mask11_3932_11456)">
<mask id="mask12_3932_11456" style="mask-type:luminance" maskUnits="userSpaceOnUse" x="0" y="0" width="640" height="512">
<path d="M640 0H0V512H640V0Z" fill="white"/>
</mask>
<g mask="url(#mask12_3932_11456)">
<mask id="mask13_3932_11456" style="mask-type:luminance" maskUnits="userSpaceOnUse" x="0" y="0" width="640" height="512">
<path d="M640 0H0V512H640V0Z" fill="white"/>
</mask>
<g mask="url(#mask13_3932_11456)">
<path d="M226.121 388.165C226.121 387.422 225.904 386.694 225.496 386.073C225.089 385.451 224.508 384.962 223.827 384.665C223.317 384.422 222.762 384.29 222.198 384.28L72.6016 384.3C69.4972 384.286 66.4421 383.522 63.6971 382.072C60.9521 380.622 58.5988 378.529 56.8378 375.972C55.0769 373.415 53.9608 370.47 53.5846 367.389C53.2085 364.307 53.5835 361.18 54.6776 358.275L81.5866 255.692C83.6005 248.525 87.8032 242.167 93.6074 237.505C99.4116 232.844 106.527 230.112 113.96 229.692H262.527C264.001 229.603 265.411 229.053 266.557 228.122C267.704 227.19 268.529 225.923 268.919 224.498L279.688 183.367C280.041 182.415 280.004 181.363 279.586 180.438C279.167 179.513 278.399 178.792 277.451 178.43C277.012 178.257 276.545 178.169 276.074 178.169C276.011 178.169 275.948 178.169 275.885 178.174H127.382C105.206 179.347 83.947 187.403 66.5634 201.222C49.1799 215.04 36.5362 233.934 30.3916 255.274L3.48464 358.824C0.31935 367.495 -0.710807 376.8 0.481335 385.954C1.67348 395.107 5.05284 403.838 10.3335 411.409C15.6141 418.979 22.6407 425.167 30.8186 429.447C38.9966 433.728 48.0852 435.975 57.3156 436C58.269 436 59.2223 435.976 60.1756 435.928H208.744C210.215 435.83 211.62 435.277 212.764 434.347C213.909 433.417 214.737 432.155 215.135 430.735L225.841 389.6C226.026 389.144 226.121 388.657 226.121 388.165ZM306.66 81.2C306.825 80.7633 306.91 80.3001 306.911 79.833C306.913 79.3292 306.816 78.8298 306.625 78.3638C306.433 77.8977 306.151 77.4743 305.795 77.1179C305.439 76.7614 305.016 76.4791 304.55 76.2873C304.084 76.0954 303.585 75.9978 303.081 76C303.017 76 302.953 76 302.889 76H261.889C260.413 76.0856 259.001 76.634 257.854 77.5675C256.708 78.501 255.885 79.772 255.502 81.2L234.155 162.115H285.286L306.66 81.2ZM180.366 368.249H231.502L263.454 245.69H212.323L180.366 368.249ZM511.855 79.723C511.816 78.7403 511.4 77.8103 510.691 77.128C509.983 76.4456 509.038 76.0636 508.055 76.062C507.997 76.062 507.918 76.062 507.825 76.069H466.825C465.326 76.1193 463.882 76.6426 462.699 77.564C461.517 78.4853 460.656 79.7575 460.241 81.198L368.912 430.634C368.739 431.058 368.65 431.511 368.65 431.969C368.652 432.993 369.06 433.974 369.784 434.698C370.508 435.422 371.49 435.83 372.514 435.832C372.57 435.832 372.626 435.832 372.683 435.832H413.683C415.157 435.743 416.567 435.194 417.713 434.263C418.86 433.331 419.685 432.064 420.075 430.639L511.535 81.2C511.744 80.7357 511.853 80.2324 511.855 79.723ZM324.651 384.47H283.651C282.182 384.578 280.782 385.134 279.639 386.063C278.496 386.992 277.665 388.248 277.259 389.664L266.522 430.8C266.345 431.237 266.254 431.703 266.254 432.174C266.248 432.673 266.341 433.169 266.528 433.632C266.715 434.095 266.992 434.517 267.342 434.873C267.693 435.228 268.11 435.511 268.571 435.705C269.031 435.898 269.525 435.998 270.025 436C270.085 436 270.191 436 270.325 435.988H311.23C312.705 435.904 314.117 435.356 315.264 434.424C316.411 433.492 317.236 432.222 317.621 430.795L328.39 389.664C328.63 389.095 328.726 388.475 328.669 387.859C328.612 387.244 328.403 386.653 328.062 386.137C327.721 385.622 327.258 385.199 326.714 384.905C326.171 384.612 325.563 384.458 324.945 384.456C324.837 384.456 324.728 384.456 324.619 384.47H324.651ZM635.975 76.07H594.975C593.508 76.1546 592.105 76.694 590.959 77.6132C589.814 78.5324 588.983 79.7858 588.583 81.199L497.123 430.635C496.971 431.068 496.894 431.523 496.894 431.982C496.899 433.004 497.308 433.982 498.032 434.703C498.756 435.425 499.735 435.831 500.757 435.833C500.813 435.833 500.869 435.833 500.926 435.833H541.894C543.367 435.739 544.774 435.189 545.919 434.258C547.065 433.327 547.892 432.063 548.286 430.64L639.682 81.2C639.891 80.7363 640 80.2337 640.002 79.725C639.932 78.7585 639.499 77.8542 638.791 77.1932C638.082 76.5323 637.15 76.1636 636.181 76.161C636.113 76.161 636.044 76.161 635.975 76.167V76.07ZM371.564 225.236L382.364 184.136C382.514 183.689 382.59 183.22 382.591 182.748C382.584 181.728 382.174 180.752 381.451 180.032C380.728 179.313 379.75 178.908 378.73 178.906C378.673 178.906 378.617 178.906 378.561 178.906H337.461C335.992 179.029 334.595 179.595 333.454 180.528C332.313 181.46 331.482 182.717 331.07 184.132L320.236 225.232C320.064 225.711 319.976 226.216 319.976 226.725C319.976 226.794 319.976 226.863 319.976 226.931C320.044 227.882 320.469 228.772 321.165 229.422C321.862 230.073 322.779 230.436 323.733 230.438C323.809 230.438 323.913 230.438 324.033 230.426H365.162C366.639 230.344 368.053 229.799 369.202 228.867C370.352 227.935 371.178 226.665 371.564 225.236Z" fill="black"/>
</g>
</g>
</g>
</g>
</g>
</g>
</g>
</g>
</g>
</g>
</g>
</g>
</g>
</g>
</g>
<defs>
<clipPath id="clip0_3932_11456">
<rect width="640" height="512" fill="white"/>
</clipPath>
</defs>
</svg>
