<svg width="448" height="512" viewBox="0 0 448 512" fill="none" xmlns="http://www.w3.org/2000/svg">
<g clip-path="url(#clip0_3932_11572)">
<mask id="mask0_3932_11572" style="mask-type:luminance" maskUnits="userSpaceOnUse" x="0" y="0" width="448" height="512">
<path d="M448 0H0V512H448V0Z" fill="white"/>
</mask>
<g mask="url(#mask0_3932_11572)">
<mask id="mask1_3932_11572" style="mask-type:luminance" maskUnits="userSpaceOnUse" x="0" y="0" width="448" height="512">
<path d="M448 0H0V512H448V0Z" fill="white"/>
</mask>
<g mask="url(#mask1_3932_11572)">
<mask id="mask2_3932_11572" style="mask-type:luminance" maskUnits="userSpaceOnUse" x="0" y="0" width="448" height="512">
<path d="M448 0H0V512H448V0Z" fill="white"/>
</mask>
<g mask="url(#mask2_3932_11572)">
<mask id="mask3_3932_11572" style="mask-type:luminance" maskUnits="userSpaceOnUse" x="0" y="0" width="448" height="512">
<path d="M448 0H0V512H448V0Z" fill="white"/>
</mask>
<g mask="url(#mask3_3932_11572)">
<mask id="mask4_3932_11572" style="mask-type:luminance" maskUnits="userSpaceOnUse" x="0" y="0" width="448" height="512">
<path d="M448 0H0V512H448V0Z" fill="white"/>
</mask>
<g mask="url(#mask4_3932_11572)">
<mask id="mask5_3932_11572" style="mask-type:luminance" maskUnits="userSpaceOnUse" x="0" y="0" width="448" height="512">
<path d="M448 0H0V512H448V0Z" fill="white"/>
</mask>
<g mask="url(#mask5_3932_11572)">
<mask id="mask6_3932_11572" style="mask-type:luminance" maskUnits="userSpaceOnUse" x="0" y="0" width="448" height="512">
<path d="M448 0H0V512H448V0Z" fill="white"/>
</mask>
<g mask="url(#mask6_3932_11572)">
<mask id="mask7_3932_11572" style="mask-type:luminance" maskUnits="userSpaceOnUse" x="0" y="0" width="448" height="512">
<path d="M448 0H0V512H448V0Z" fill="white"/>
</mask>
<g mask="url(#mask7_3932_11572)">
<mask id="mask8_3932_11572" style="mask-type:luminance" maskUnits="userSpaceOnUse" x="0" y="0" width="448" height="512">
<path d="M448 0H0V512H448V0Z" fill="white"/>
</mask>
<g mask="url(#mask8_3932_11572)">
<mask id="mask9_3932_11572" style="mask-type:luminance" maskUnits="userSpaceOnUse" x="0" y="0" width="448" height="512">
<path d="M448 0H0V512H448V0Z" fill="white"/>
</mask>
<g mask="url(#mask9_3932_11572)">
<mask id="mask10_3932_11572" style="mask-type:luminance" maskUnits="userSpaceOnUse" x="0" y="0" width="448" height="512">
<path d="M448 0H0V512H448V0Z" fill="white"/>
</mask>
<g mask="url(#mask10_3932_11572)">
<mask id="mask11_3932_11572" style="mask-type:luminance" maskUnits="userSpaceOnUse" x="0" y="0" width="448" height="512">
<path d="M448 0H0V512H448V0Z" fill="white"/>
</mask>
<g mask="url(#mask11_3932_11572)">
<mask id="mask12_3932_11572" style="mask-type:luminance" maskUnits="userSpaceOnUse" x="0" y="0" width="448" height="512">
<path d="M448 0H0V512H448V0Z" fill="white"/>
</mask>
<g mask="url(#mask12_3932_11572)">
<mask id="mask13_3932_11572" style="mask-type:luminance" maskUnits="userSpaceOnUse" x="0" y="0" width="448" height="512">
<path d="M448 0H0V512H448V0Z" fill="white"/>
</mask>
<g mask="url(#mask13_3932_11572)">
<path d="M80 104C86.3652 104 92.4697 101.471 96.9706 96.9706C101.471 92.4697 104 86.3652 104 80C104 73.6348 101.471 67.5303 96.9706 63.0294C92.4697 58.5286 86.3652 56 80 56C73.6348 56 67.5303 58.5286 63.0294 63.0294C58.5286 67.5303 56 73.6348 56 80C56 86.3652 58.5286 92.4697 63.0294 96.9706C67.5303 101.471 73.6348 104 80 104ZM160 80C160 112.8 140.3 141 112 153.3V241.1C130.8 230.2 152.7 224 176 224H272C307.3 224 336 195.3 336 160V153.3C307.7 141 288 112.8 288 80C288 35.8 323.8 0 368 0C412.2 0 448 35.8 448 80C448 112.8 428.3 141 400 153.3V160C400 230.7 342.7 288 272 288H176C140.7 288 112 316.7 112 352V358.7C140.3 371 160 399.2 160 432C160 476.2 124.2 512 80 512C35.8 512 0 476.2 0 432C0 399.2 19.7 371 48 358.7V352V153.3C19.7 141 0 112.8 0 80C0 35.8 35.8 0 80 0C124.2 0 160 35.8 160 80ZM392 80C392 73.6348 389.471 67.5303 384.971 63.0294C380.47 58.5286 374.365 56 368 56C361.635 56 355.53 58.5286 351.029 63.0294C346.529 67.5303 344 73.6348 344 80C344 86.3652 346.529 92.4697 351.029 96.9706C355.53 101.471 361.635 104 368 104C374.365 104 380.47 101.471 384.971 96.9706C389.471 92.4697 392 86.3652 392 80ZM80 456C86.3652 456 92.4697 453.471 96.9706 448.971C101.471 444.47 104 438.365 104 432C104 425.635 101.471 419.53 96.9706 415.029C92.4697 410.529 86.3652 408 80 408C73.6348 408 67.5303 410.529 63.0294 415.029C58.5286 419.53 56 425.635 56 432C56 438.365 58.5286 444.47 63.0294 448.971C67.5303 453.471 73.6348 456 80 456Z" fill="black"/>
</g>
</g>
</g>
</g>
</g>
</g>
</g>
</g>
</g>
</g>
</g>
</g>
</g>
</g>
</g>
<defs>
<clipPath id="clip0_3932_11572">
<rect width="448" height="512" fill="white"/>
</clipPath>
</defs>
</svg>
