<svg width="640" height="512" viewBox="0 0 640 512" fill="none" xmlns="http://www.w3.org/2000/svg">
<path d="M320 336C341.217 336 361.566 327.571 376.569 312.569C391.571 297.566 400 277.217 400 256C400 234.783 391.571 214.434 376.569 199.431C361.566 184.429 341.217 176 320 176C298.783 176 278.434 184.429 263.431 199.431C248.429 214.434 240 234.783 240 256C240 277.217 248.429 297.566 263.431 312.569C278.434 327.571 298.783 336 320 336ZM476.8 288C462 361 397.4 416 320 416C242.6 416 178 361 163.2 288H32C14.3 288 0 273.7 0 256C0 238.3 14.3 224 32 224H163.2C178 151 242.6 96 320 96C397.4 96 462 151 476.8 224H608C625.7 224 640 238.3 640 256C640 273.7 625.7 288 608 288H476.8Z" fill="black"/>
</svg>
