<svg width="448" height="512" viewBox="0 0 448 512" fill="none" xmlns="http://www.w3.org/2000/svg">
<g clip-path="url(#clip0_3932_11748)">
<mask id="mask0_3932_11748" style="mask-type:luminance" maskUnits="userSpaceOnUse" x="0" y="0" width="448" height="512">
<path d="M448 0H0V512H448V0Z" fill="white"/>
</mask>
<g mask="url(#mask0_3932_11748)">
<mask id="mask1_3932_11748" style="mask-type:luminance" maskUnits="userSpaceOnUse" x="0" y="0" width="448" height="512">
<path d="M448 0H0V512H448V0Z" fill="white"/>
</mask>
<g mask="url(#mask1_3932_11748)">
<mask id="mask2_3932_11748" style="mask-type:luminance" maskUnits="userSpaceOnUse" x="0" y="0" width="448" height="512">
<path d="M448 0H0V512H448V0Z" fill="white"/>
</mask>
<g mask="url(#mask2_3932_11748)">
<mask id="mask3_3932_11748" style="mask-type:luminance" maskUnits="userSpaceOnUse" x="0" y="0" width="448" height="512">
<path d="M448 0H0V512H448V0Z" fill="white"/>
</mask>
<g mask="url(#mask3_3932_11748)">
<mask id="mask4_3932_11748" style="mask-type:luminance" maskUnits="userSpaceOnUse" x="0" y="0" width="448" height="512">
<path d="M448 0H0V512H448V0Z" fill="white"/>
</mask>
<g mask="url(#mask4_3932_11748)">
<mask id="mask5_3932_11748" style="mask-type:luminance" maskUnits="userSpaceOnUse" x="0" y="0" width="448" height="512">
<path d="M448 0H0V512H448V0Z" fill="white"/>
</mask>
<g mask="url(#mask5_3932_11748)">
<mask id="mask6_3932_11748" style="mask-type:luminance" maskUnits="userSpaceOnUse" x="0" y="0" width="448" height="512">
<path d="M448 0H0V512H448V0Z" fill="white"/>
</mask>
<g mask="url(#mask6_3932_11748)">
<mask id="mask7_3932_11748" style="mask-type:luminance" maskUnits="userSpaceOnUse" x="0" y="0" width="448" height="512">
<path d="M448 0H0V512H448V0Z" fill="white"/>
</mask>
<g mask="url(#mask7_3932_11748)">
<mask id="mask8_3932_11748" style="mask-type:luminance" maskUnits="userSpaceOnUse" x="0" y="0" width="448" height="512">
<path d="M448 0H0V512H448V0Z" fill="white"/>
</mask>
<g mask="url(#mask8_3932_11748)">
<mask id="mask9_3932_11748" style="mask-type:luminance" maskUnits="userSpaceOnUse" x="0" y="0" width="448" height="512">
<path d="M448 0H0V512H448V0Z" fill="white"/>
</mask>
<g mask="url(#mask9_3932_11748)">
<mask id="mask10_3932_11748" style="mask-type:luminance" maskUnits="userSpaceOnUse" x="0" y="0" width="448" height="512">
<path d="M448 0H0V512H448V0Z" fill="white"/>
</mask>
<g mask="url(#mask10_3932_11748)">
<mask id="mask11_3932_11748" style="mask-type:luminance" maskUnits="userSpaceOnUse" x="0" y="0" width="448" height="512">
<path d="M448 0H0V512H448V0Z" fill="white"/>
</mask>
<g mask="url(#mask11_3932_11748)">
<mask id="mask12_3932_11748" style="mask-type:luminance" maskUnits="userSpaceOnUse" x="0" y="0" width="448" height="512">
<path d="M448 0H0V512H448V0Z" fill="white"/>
</mask>
<g mask="url(#mask12_3932_11748)">
<mask id="mask13_3932_11748" style="mask-type:luminance" maskUnits="userSpaceOnUse" x="0" y="0" width="448" height="512">
<path d="M448 0H0V512H448V0Z" fill="white"/>
</mask>
<g mask="url(#mask13_3932_11748)">
<path d="M80 56C86.3652 56 92.4697 58.5286 96.9706 63.0294C101.471 67.5303 104 73.6348 104 80C104 86.3652 101.471 92.4697 96.9706 96.9706C92.4697 101.471 86.3652 104 80 104C73.6348 104 67.5303 101.471 63.0294 96.9706C58.5286 92.4697 56 86.3652 56 80C56 73.6348 58.5286 67.5303 63.0294 63.0294C67.5303 58.5286 73.6348 56 80 56ZM112.4 153.2C140.4 140.8 160 112.7 160 80C160 35.8 124.2 0 80 0C35.8 0 0 35.8 0 80C0 112.8 19.7 141 48 153.3V358.7C19.7 371 0 399.2 0 432C0 476.2 35.8 512 80 512C124.2 512 160 476.2 160 432C160 399.2 140.3 371 112 358.7V272C138.7 292.1 172 304 208 304H294.7C307 332.3 335.2 352 368 352C412.2 352 448 316.2 448 272C448 227.8 412.2 192 368 192C335.2 192 307 211.7 294.7 240H208C158.1 240 117 201.9 112.4 153.2ZM80 408C86.3652 408 92.4697 410.529 96.9706 415.029C101.471 419.53 104 425.635 104 432C104 438.365 101.471 444.47 96.9706 448.971C92.4697 453.471 86.3652 456 80 456C73.6348 456 67.5303 453.471 63.0294 448.971C58.5286 444.47 56 438.365 56 432C56 425.635 58.5286 419.53 63.0294 415.029C67.5303 410.529 73.6348 408 80 408ZM344 272C344 265.635 346.529 259.53 351.029 255.029C355.53 250.529 361.635 248 368 248C374.365 248 380.47 250.529 384.971 255.029C389.471 259.53 392 265.635 392 272C392 278.365 389.471 284.47 384.971 288.971C380.47 293.471 374.365 296 368 296C361.635 296 355.53 293.471 351.029 288.971C346.529 284.47 344 278.365 344 272Z" fill="black"/>
</g>
</g>
</g>
</g>
</g>
</g>
</g>
</g>
</g>
</g>
</g>
</g>
</g>
</g>
</g>
<defs>
<clipPath id="clip0_3932_11748">
<rect width="448" height="512" fill="white"/>
</clipPath>
</defs>
</svg>
