<svg width="384" height="512" viewBox="0 0 384 512" fill="none" xmlns="http://www.w3.org/2000/svg">
<path d="M255 39.8013C259.3 22.7013 248.9 5.30127 231.7 1.00127C214.5 -3.29873 197.2 7.10127 193 24.2013L181.9 68.6012C96.1 87.8013 32 164.401 32 256.001C32 314.101 57.8 366.201 98.7 401.401L81 472.201C76.7 489.301 87.1 506.701 104.3 511.001C121.5 515.301 138.8 504.901 143.1 487.701L156.1 435.601C165.1 439.001 174.5 441.801 184.1 443.801L177 472.201C172.7 489.301 183.1 506.701 200.3 511.001C217.5 515.301 234.8 504.901 239.1 487.701L249.5 446.301C282.9 441.901 313.6 428.901 339.3 409.601C353.4 399.001 356.3 378.901 345.7 364.801C335.1 350.701 315 347.801 300.9 358.401C290.7 366.101 279.2 372.301 266.9 376.701L321 160.001C330.4 159.701 339.5 155.301 345.6 147.201C356.2 133.101 353.4 113.001 339.2 102.401C338.1 101.601 337 100.801 335.9 100.001L351 39.8013C355.3 22.7013 344.9 5.30127 327.7 1.00127C310.5 -3.29873 293.2 7.10127 289 24.2013L277.2 71.5013C267.9 68.8013 258.4 66.9013 248.6 65.6012L255 39.8013ZM163.2 143.301L117.3 326.801C103.9 306.501 96 282.201 96 256.001C96 207.301 123.2 165.001 163.2 143.301ZM171.8 372.801L232.9 128.201C242.8 128.901 252.4 130.701 261.6 133.501L199.6 381.601C189.9 379.701 180.6 376.801 171.8 372.801Z" fill="black"/>
</svg>
