<svg width="512" height="512" viewBox="0 0 512 512" fill="none" xmlns="http://www.w3.org/2000/svg">
<g clip-path="url(#clip0_3932_11984)">
<mask id="mask0_3932_11984" style="mask-type:luminance" maskUnits="userSpaceOnUse" x="0" y="0" width="512" height="512">
<path d="M512 0H0V512H512V0Z" fill="white"/>
</mask>
<g mask="url(#mask0_3932_11984)">
<mask id="mask1_3932_11984" style="mask-type:luminance" maskUnits="userSpaceOnUse" x="0" y="0" width="512" height="512">
<path d="M512 0H0V512H512V0Z" fill="white"/>
</mask>
<g mask="url(#mask1_3932_11984)">
<mask id="mask2_3932_11984" style="mask-type:luminance" maskUnits="userSpaceOnUse" x="0" y="0" width="512" height="512">
<path d="M512 0H0V512H512V0Z" fill="white"/>
</mask>
<g mask="url(#mask2_3932_11984)">
<mask id="mask3_3932_11984" style="mask-type:luminance" maskUnits="userSpaceOnUse" x="0" y="0" width="512" height="512">
<path d="M512 0H0V512H512V0Z" fill="white"/>
</mask>
<g mask="url(#mask3_3932_11984)">
<mask id="mask4_3932_11984" style="mask-type:luminance" maskUnits="userSpaceOnUse" x="0" y="0" width="512" height="512">
<path d="M512 0H0V512H512V0Z" fill="white"/>
</mask>
<g mask="url(#mask4_3932_11984)">
<mask id="mask5_3932_11984" style="mask-type:luminance" maskUnits="userSpaceOnUse" x="0" y="0" width="512" height="512">
<path d="M512 0H0V512H512V0Z" fill="white"/>
</mask>
<g mask="url(#mask5_3932_11984)">
<mask id="mask6_3932_11984" style="mask-type:luminance" maskUnits="userSpaceOnUse" x="0" y="0" width="512" height="512">
<path d="M512 0H0V512H512V0Z" fill="white"/>
</mask>
<g mask="url(#mask6_3932_11984)">
<mask id="mask7_3932_11984" style="mask-type:luminance" maskUnits="userSpaceOnUse" x="0" y="0" width="512" height="512">
<path d="M512 0H0V512H512V0Z" fill="white"/>
</mask>
<g mask="url(#mask7_3932_11984)">
<mask id="mask8_3932_11984" style="mask-type:luminance" maskUnits="userSpaceOnUse" x="0" y="0" width="512" height="512">
<path d="M512 0H0V512H512V0Z" fill="white"/>
</mask>
<g mask="url(#mask8_3932_11984)">
<mask id="mask9_3932_11984" style="mask-type:luminance" maskUnits="userSpaceOnUse" x="0" y="0" width="512" height="512">
<path d="M512 0H0V512H512V0Z" fill="white"/>
</mask>
<g mask="url(#mask9_3932_11984)">
<mask id="mask10_3932_11984" style="mask-type:luminance" maskUnits="userSpaceOnUse" x="0" y="0" width="512" height="512">
<path d="M512 0H0V512H512V0Z" fill="white"/>
</mask>
<g mask="url(#mask10_3932_11984)">
<mask id="mask11_3932_11984" style="mask-type:luminance" maskUnits="userSpaceOnUse" x="0" y="0" width="512" height="512">
<path d="M512 0H0V512H512V0Z" fill="white"/>
</mask>
<g mask="url(#mask11_3932_11984)">
<mask id="mask12_3932_11984" style="mask-type:luminance" maskUnits="userSpaceOnUse" x="0" y="0" width="512" height="512">
<path d="M512 0H0V512H512V0Z" fill="white"/>
</mask>
<g mask="url(#mask12_3932_11984)">
<mask id="mask13_3932_11984" style="mask-type:luminance" maskUnits="userSpaceOnUse" x="0" y="0" width="512" height="512">
<path d="M512 0H0V512H512V0Z" fill="white"/>
</mask>
<g mask="url(#mask13_3932_11984)">
<path d="M123.605 391.3C136.505 381.9 153.205 379.5 168.205 384.9C194.705 394.5 224.405 400 256.005 400C380.705 400 464.005 319.5 464.005 240C464.005 160.5 380.705 80 256.005 80C131.305 80 48.0046 160.5 48.0046 240C48.0046 272 60.4046 302.8 83.7046 329.2C92.3046 338.9 96.5046 351.7 95.5046 364.7C94.1046 382.8 89.8046 399.4 84.2046 414.1C101.205 406.2 115.305 397.4 123.605 391.4V391.3ZM21.2047 431.9C23.0046 429.2 24.7046 426.5 26.3046 423.8C36.3047 407.2 45.8046 385.4 47.7046 360.9C17.7046 326.8 0.00463906 285.1 0.00463906 240C0.00463906 125.1 114.605 32 256.005 32C397.405 32 512.005 125.1 512.005 240C512.005 354.9 397.405 448 256.005 448C218.905 448 183.705 441.6 151.905 430.1C140.005 438.8 120.605 450.7 97.6046 460.7C82.5046 467.3 65.3047 473.3 47.5046 476.8C46.7046 477 45.9046 477.1 45.1046 477.3C40.7046 478.1 36.4046 478.8 31.9046 479.2C31.7046 479.2 31.4047 479.3 31.2047 479.3C26.1046 479.8 21.0046 480.1 15.9046 480.1C9.40466 480.1 3.60466 476.2 1.10466 470.2C-1.39534 464.2 0.00463867 457.4 4.50466 452.8C8.60466 448.6 12.3046 444.1 15.8046 439.3C17.5046 437 19.1046 434.7 20.6046 432.4C20.7047 432.2 20.8046 432.1 20.9046 431.9H21.2047Z" fill="black"/>
</g>
</g>
</g>
</g>
</g>
</g>
</g>
</g>
</g>
</g>
</g>
</g>
</g>
</g>
</g>
<defs>
<clipPath id="clip0_3932_11984">
<rect width="512" height="512" fill="white"/>
</clipPath>
</defs>
</svg>
