<svg width="640" height="512" viewBox="0 0 640 512" fill="none" xmlns="http://www.w3.org/2000/svg">
<g clip-path="url(#clip0_3932_12216)">
<mask id="mask0_3932_12216" style="mask-type:luminance" maskUnits="userSpaceOnUse" x="0" y="0" width="640" height="512">
<path d="M640 0H0V512H640V0Z" fill="white"/>
</mask>
<g mask="url(#mask0_3932_12216)">
<mask id="mask1_3932_12216" style="mask-type:luminance" maskUnits="userSpaceOnUse" x="0" y="0" width="640" height="512">
<path d="M640 0H0V512H640V0Z" fill="white"/>
</mask>
<g mask="url(#mask1_3932_12216)">
<mask id="mask2_3932_12216" style="mask-type:luminance" maskUnits="userSpaceOnUse" x="0" y="0" width="640" height="512">
<path d="M640 0H0V512H640V0Z" fill="white"/>
</mask>
<g mask="url(#mask2_3932_12216)">
<mask id="mask3_3932_12216" style="mask-type:luminance" maskUnits="userSpaceOnUse" x="0" y="0" width="640" height="512">
<path d="M640 0H0V512H640V0Z" fill="white"/>
</mask>
<g mask="url(#mask3_3932_12216)">
<mask id="mask4_3932_12216" style="mask-type:luminance" maskUnits="userSpaceOnUse" x="0" y="0" width="640" height="512">
<path d="M640 0H0V512H640V0Z" fill="white"/>
</mask>
<g mask="url(#mask4_3932_12216)">
<mask id="mask5_3932_12216" style="mask-type:luminance" maskUnits="userSpaceOnUse" x="0" y="0" width="640" height="512">
<path d="M640 0H0V512H640V0Z" fill="white"/>
</mask>
<g mask="url(#mask5_3932_12216)">
<mask id="mask6_3932_12216" style="mask-type:luminance" maskUnits="userSpaceOnUse" x="0" y="0" width="640" height="512">
<path d="M640 0H0V512H640V0Z" fill="white"/>
</mask>
<g mask="url(#mask6_3932_12216)">
<mask id="mask7_3932_12216" style="mask-type:luminance" maskUnits="userSpaceOnUse" x="0" y="0" width="640" height="512">
<path d="M640 0H0V512H640V0Z" fill="white"/>
</mask>
<g mask="url(#mask7_3932_12216)">
<mask id="mask8_3932_12216" style="mask-type:luminance" maskUnits="userSpaceOnUse" x="0" y="0" width="640" height="512">
<path d="M640 0H0V512H640V0Z" fill="white"/>
</mask>
<g mask="url(#mask8_3932_12216)">
<mask id="mask9_3932_12216" style="mask-type:luminance" maskUnits="userSpaceOnUse" x="0" y="0" width="640" height="512">
<path d="M640 0H0V512H640V0Z" fill="white"/>
</mask>
<g mask="url(#mask9_3932_12216)">
<mask id="mask10_3932_12216" style="mask-type:luminance" maskUnits="userSpaceOnUse" x="0" y="0" width="640" height="512">
<path d="M640 0H0V512H640V0Z" fill="white"/>
</mask>
<g mask="url(#mask10_3932_12216)">
<mask id="mask11_3932_12216" style="mask-type:luminance" maskUnits="userSpaceOnUse" x="0" y="0" width="640" height="512">
<path d="M640 0H0V512H640V0Z" fill="white"/>
</mask>
<g mask="url(#mask11_3932_12216)">
<mask id="mask12_3932_12216" style="mask-type:luminance" maskUnits="userSpaceOnUse" x="0" y="0" width="640" height="512">
<path d="M640 0H0V512H640V0Z" fill="white"/>
</mask>
<g mask="url(#mask12_3932_12216)">
<mask id="mask13_3932_12216" style="mask-type:luminance" maskUnits="userSpaceOnUse" x="0" y="0" width="640" height="512">
<path d="M640 0H0V512H640V0Z" fill="white"/>
</mask>
<g mask="url(#mask13_3932_12216)">
<path d="M88.1985 309.1C97.9986 290.8 94.9986 268.3 80.6985 253.3C59.3985 230.9 47.9986 204 47.9986 176C47.9986 112.5 111.799 48 207.999 48C304.199 48 367.999 112.5 367.999 176C367.999 239.5 304.199 304 207.999 304C194.899 304 182.199 302.7 170.199 300.4C159.799 298.4 148.999 299.8 139.499 304.6C135.399 306.7 131.199 308.7 126.899 310.6C110.899 317.8 93.9986 324.1 76.9986 328.6C79.7986 324 82.3986 319.5 84.8986 315C85.9986 313.1 87.0985 311.1 88.0985 309.1H88.1985ZM-0.0014463 176C-0.0014463 217.8 17.1986 256.1 45.8986 286.3C44.9986 288 43.9986 289.8 43.0985 291.4C32.7985 309.8 20.7985 327.9 6.49855 343.5C-0.101449 350.5 -1.80145 360.7 1.89855 369.4C5.79855 378.3 14.3986 384 23.9986 384C66.9986 384 110.499 370.7 146.699 354.3C151.499 352.1 156.299 349.8 160.899 347.5C175.999 350.5 191.799 352 207.999 352C322.899 352 415.999 273.2 415.999 176C415.999 78.8 322.899 0 207.999 0C93.0985 0 -0.0014463 78.8 -0.0014463 176ZM431.999 480C448.199 480 463.899 478.4 479.099 475.5C483.699 477.8 488.499 480.1 493.299 482.3C529.499 498.7 572.999 512 615.999 512C625.599 512 634.199 506.3 637.999 497.5C641.799 488.7 639.999 478.5 633.399 471.6C619.199 456 607.199 437.9 596.799 419.5C595.898 417.8 594.899 416.1 593.999 414.4C622.799 384.1 639.999 345.8 639.999 304C639.999 209.6 552.099 132.5 441.799 128.2C445.899 143.4 447.999 159.4 447.999 176V176.6C535.199 183.3 591.999 244.1 591.999 304C591.999 332 580.599 358.9 559.299 381.2C544.999 396.2 541.999 418.8 551.799 437C552.898 439 553.999 441 554.999 442.9C557.499 447.4 560.199 451.9 562.899 456.5C545.899 452 528.999 445.8 512.999 438.5C508.699 436.6 504.499 434.6 500.399 432.5C490.899 427.7 480.099 426.3 469.699 428.3C457.599 430.7 444.999 431.9 431.899 431.9C370.199 431.9 321.899 405.4 295.099 369.6C279.099 375 262.299 379 245.099 381.4C278.999 439.8 349.999 480 431.999 480Z" fill="black"/>
</g>
</g>
</g>
</g>
</g>
</g>
</g>
</g>
</g>
</g>
</g>
</g>
</g>
</g>
</g>
<defs>
<clipPath id="clip0_3932_12216">
<rect width="640" height="512" fill="white"/>
</clipPath>
</defs>
</svg>
