<svg width="512" height="512" viewBox="0 0 512 512" fill="none" xmlns="http://www.w3.org/2000/svg">
<g clip-path="url(#clip0_3932_12448)">
<mask id="mask0_3932_12448" style="mask-type:luminance" maskUnits="userSpaceOnUse" x="0" y="0" width="512" height="512">
<path d="M512 0H0V512H512V0Z" fill="white"/>
</mask>
<g mask="url(#mask0_3932_12448)">
<mask id="mask1_3932_12448" style="mask-type:luminance" maskUnits="userSpaceOnUse" x="0" y="0" width="512" height="512">
<path d="M512 0H0V512H512V0Z" fill="white"/>
</mask>
<g mask="url(#mask1_3932_12448)">
<mask id="mask2_3932_12448" style="mask-type:luminance" maskUnits="userSpaceOnUse" x="0" y="0" width="512" height="512">
<path d="M512 0H0V512H512V0Z" fill="white"/>
</mask>
<g mask="url(#mask2_3932_12448)">
<mask id="mask3_3932_12448" style="mask-type:luminance" maskUnits="userSpaceOnUse" x="0" y="0" width="512" height="512">
<path d="M512 0H0V512H512V0Z" fill="white"/>
</mask>
<g mask="url(#mask3_3932_12448)">
<mask id="mask4_3932_12448" style="mask-type:luminance" maskUnits="userSpaceOnUse" x="0" y="0" width="512" height="512">
<path d="M512 0H0V512H512V0Z" fill="white"/>
</mask>
<g mask="url(#mask4_3932_12448)">
<mask id="mask5_3932_12448" style="mask-type:luminance" maskUnits="userSpaceOnUse" x="0" y="0" width="512" height="512">
<path d="M512 0H0V512H512V0Z" fill="white"/>
</mask>
<g mask="url(#mask5_3932_12448)">
<mask id="mask6_3932_12448" style="mask-type:luminance" maskUnits="userSpaceOnUse" x="0" y="0" width="512" height="512">
<path d="M512 0H0V512H512V0Z" fill="white"/>
</mask>
<g mask="url(#mask6_3932_12448)">
<mask id="mask7_3932_12448" style="mask-type:luminance" maskUnits="userSpaceOnUse" x="0" y="0" width="512" height="512">
<path d="M512 0H0V512H512V0Z" fill="white"/>
</mask>
<g mask="url(#mask7_3932_12448)">
<mask id="mask8_3932_12448" style="mask-type:luminance" maskUnits="userSpaceOnUse" x="0" y="0" width="512" height="512">
<path d="M512 0H0V512H512V0Z" fill="white"/>
</mask>
<g mask="url(#mask8_3932_12448)">
<mask id="mask9_3932_12448" style="mask-type:luminance" maskUnits="userSpaceOnUse" x="0" y="0" width="512" height="512">
<path d="M512 0H0V512H512V0Z" fill="white"/>
</mask>
<g mask="url(#mask9_3932_12448)">
<mask id="mask10_3932_12448" style="mask-type:luminance" maskUnits="userSpaceOnUse" x="0" y="0" width="512" height="512">
<path d="M512 0H0V512H512V0Z" fill="white"/>
</mask>
<g mask="url(#mask10_3932_12448)">
<mask id="mask11_3932_12448" style="mask-type:luminance" maskUnits="userSpaceOnUse" x="0" y="0" width="512" height="512">
<path d="M512 0H0V512H512V0Z" fill="white"/>
</mask>
<g mask="url(#mask11_3932_12448)">
<mask id="mask12_3932_12448" style="mask-type:luminance" maskUnits="userSpaceOnUse" x="0" y="0" width="512" height="512">
<path d="M512 0H0V512H512V0Z" fill="white"/>
</mask>
<g mask="url(#mask12_3932_12448)">
<mask id="mask13_3932_12448" style="mask-type:luminance" maskUnits="userSpaceOnUse" x="0" y="0" width="512" height="512">
<path d="M512 0H0V512H512V0Z" fill="white"/>
</mask>
<g mask="url(#mask13_3932_12448)">
<path d="M0 256C0 188.105 26.9714 122.99 74.9807 74.9807C122.99 26.9714 188.105 0 256 0C323.895 0 389.01 26.9714 437.019 74.9807C485.029 122.99 512 188.105 512 256C512 323.895 485.029 389.01 437.019 437.019C389.01 485.029 323.895 512 256 512C188.105 512 122.99 485.029 74.9807 437.019C26.9714 389.01 0 323.895 0 256ZM256 288C247.513 288 239.374 284.629 233.373 278.627C227.371 272.626 224 264.487 224 256C224 247.513 227.371 239.374 233.373 233.373C239.374 227.371 247.513 224 256 224C264.487 224 272.626 227.371 278.627 233.373C284.629 239.374 288 247.513 288 256C288 264.487 284.629 272.626 278.627 278.627C272.626 284.629 264.487 288 256 288ZM160 256C160 281.461 170.114 305.879 188.118 323.882C206.121 341.886 230.539 352 256 352C281.461 352 305.879 341.886 323.882 323.882C341.886 305.879 352 281.461 352 256C352 230.539 341.886 206.121 323.882 188.118C305.879 170.114 281.461 160 256 160C230.539 160 206.121 170.114 188.118 188.118C170.114 206.121 160 230.539 160 256ZM96 240C96 205 113.5 168.9 141.2 141.2C168.9 113.5 205 96 240 96C248.8 96 256 88.8 256 80C256 71.2 248.8 64 240 64C194.6 64 150.8 86.3 118.5 118.5C86.2 150.7 64 194.6 64 240C64 248.8 71.2 256 80 256C88.8 256 96 248.8 96 240Z" fill="black"/>
</g>
</g>
</g>
</g>
</g>
</g>
</g>
</g>
</g>
</g>
</g>
</g>
</g>
</g>
</g>
<defs>
<clipPath id="clip0_3932_12448">
<rect width="512" height="512" fill="white"/>
</clipPath>
</defs>
</svg>
