<svg width="496" height="512" viewBox="0 0 496 512" fill="none" xmlns="http://www.w3.org/2000/svg">
<path d="M247.6 8C389.4 8 496 118.1 496 256C496 403.1 377.5 504 247.6 504C113.6 504 0 394.5 0 256C0 123.1 104.7 8 247.6 8ZM248.4 52.7C130.2 52.7 44.7 150.6 44.7 256C44.7 365.8 135.9 458.8 248.4 458.8C351.6 458.8 451.2 377.7 451.2 256C451.3 142.2 361 52.7 248.4 52.7ZM248 113.2C166.1 113.2 145.5 190.5 145.5 256C145.5 321.5 166.1 398.8 248 398.8C329.9 398.8 350.5 321.5 350.5 256C350.5 190.5 329.9 113.2 248 113.2ZM248 167.1C251.3 167.1 254.4 167.6 257.2 168.3C263.1 173.4 266 180.4 260.3 190.2L205.8 290.4C204.1 277.7 203.9 265.3 203.9 256C203.9 227.2 205.9 167.1 248 167.1ZM288.8 213.3C291.7 228.7 292.1 244.7 292.1 256C292.1 284.9 290.1 344.9 248 344.9C234.5 344.9 215.4 337.2 227.9 318.5L288.8 213.3Z" fill="black"/>
</svg>
