<svg width="448" height="512" viewBox="0 0 448 512" fill="none" xmlns="http://www.w3.org/2000/svg">
<path d="M225.818 0C226.078 0.15 442.388 124.51 442.938 124.72C445.938 125.9 446.638 128.18 446.638 131.28C446.565 214.727 446.565 298.18 446.638 381.64C446.73 382.833 446.455 384.025 445.851 385.058C445.247 386.091 444.343 386.915 443.258 387.42C421.888 399.42 235.398 505.71 224.328 512H221.328C141.998 466.34 3.07826 386.56 2.92826 386.48C2.32253 386.195 1.81804 385.733 1.48212 385.154C1.14621 384.575 0.994857 383.907 1.04826 383.24C1.04826 382.37 1.04826 157.3 0.99826 130.14C0.921864 129.117 1.16203 128.095 1.68618 127.213C2.21033 126.331 2.99309 125.632 3.92826 125.21C27.1883 112.11 213.198 6 224.068 0H225.818ZM215.398 20.42L215.178 20.26C150.432 57.12 85.7049 93.99 20.9983 130.87C20.9983 130.99 21.0783 131.1 21.1283 131.22L51.9883 142.86C44.2783 148.86 43.6683 148.86 41.3383 147.99C41.2383 147.99 17.1683 138.71 14.5383 137.99V368.42C15.4183 367.01 78.6083 257.51 78.6683 257.42C80.2883 254.6 81.6683 255.5 87.7883 255.9C89.1883 255.99 89.2683 256.12 88.5683 257.32C47.3783 328.65 52.1683 320.32 21.0883 374.26C20.2783 375.66 20.4783 375.39 22.3383 375.39H208.838C210.278 375.39 210.528 375.16 210.538 373.75V364.87C210.538 363.53 212.898 364.06 192.168 363.87C184.708 363.8 178.028 360.65 170.788 351.17C163.408 341.51 156.168 331.74 148.938 321.96C146.658 318.88 145.488 319.58 132.178 319.58C130.428 319.58 130.398 319.58 130.418 321.4C130.708 347.61 130.568 346.67 131.418 354.06C131.938 358.43 133.578 358.26 141.108 358.87C144.248 359.13 144.988 362.95 141.628 363.79C140.058 364.18 110.028 364.3 107.958 363.69C107.421 363.543 106.952 363.215 106.628 362.762C106.305 362.309 106.147 361.758 106.183 361.203C106.218 360.647 106.444 360.121 106.822 359.712C107.2 359.304 107.707 359.038 108.258 358.96C111.548 358.2 114.418 359.77 114.918 354.52C116.218 340.86 116.088 345.52 116.018 275.1C116.018 264.28 115.668 262.52 110.658 261.55C109.438 261.31 107.118 261.39 105.968 261C103.088 260 103.968 256.16 107.738 256.15C141.408 256.15 153.818 255.08 163.798 261.01C171.538 265.62 175.798 272.49 176.308 281.41C177.188 296 169.798 303.76 161.308 314C161.148 314.137 161.019 314.307 160.931 314.499C160.842 314.691 160.797 314.899 160.797 315.11C160.797 315.321 160.842 315.529 160.931 315.721C161.019 315.913 161.148 316.083 161.308 316.22C163.908 319.47 166.308 322.85 169.018 326.05C196.578 359.28 193.128 356.59 210.298 359.11C211.188 359.24 211.298 358.69 211.298 357.96V346.96C211.298 345.96 211.618 345.53 212.708 345.7C220.532 346.89 228.498 346.789 236.288 345.4C237.368 345.25 237.788 345.6 237.768 346.73C237.768 346.84 238.648 373.42 238.638 373.53C238.588 375.05 239.308 375.15 240.528 375.15H427.238C400.085 328.117 373.005 281.177 345.998 234.33C348.258 233.67 345.598 234.33 352.688 232.94C354.688 232.55 354.738 232.53 355.798 234.38C363.108 247.02 433.108 368.38 433.168 368.44V138C431.448 138.5 329.868 176.72 327.408 177.68C326.328 178.1 325.858 177.88 325.498 176.8C324.868 174.9 324.158 173.04 323.408 171.18C323.088 170.39 323.318 170.05 324.058 169.79C324.158 169.79 419.588 133.94 427.058 131.02C361.638 93.45 296.498 56.02 231.058 18.42L317.878 168.81L317.598 169.14C308.028 168.24 307.138 167.54 305.798 165.2C304.798 163.51 232.298 37.49 223.798 23.04C214.698 37.71 140.238 169.25 138.428 169.36C135.498 169.53 132.548 169.44 129.178 169.44C158.012 119.613 186.738 69.9467 215.358 20.44L215.398 20.42ZM267.328 150.34C269.193 150.195 271.045 149.91 272.868 149.49C274.558 149.19 275.398 149.69 275.468 151.41C275.468 151.52 275.538 170.47 274.608 171.86C273.678 173.25 272.728 173.08 272.008 171.67C267.008 161.98 278.228 162.01 232.888 159.67C232.188 159.67 231.888 159.9 231.888 160.6C231.888 160.73 235.608 282.6 235.618 282.71C235.618 283.6 236.138 283.91 236.828 284.22C239.803 285.403 242.708 286.755 245.528 288.27C252.838 292.6 256.908 299.11 257.938 307.58C259.378 319.38 255.168 343.35 225.728 344.72C222.978 344.85 197.468 345.8 191.588 321.47C186.928 302.21 199.848 288.77 211.478 285.07C212.085 284.96 212.628 284.625 212.999 284.132C213.37 283.639 213.541 283.024 213.478 282.41C213.578 276.78 216.478 175.31 217.188 161.06C217.238 159.98 216.568 159.9 215.838 159.91C183.488 160.43 179.088 159.57 175.618 168.43C173.198 174.61 171.478 169.75 171.668 168.66C172.728 162.66 173.832 156.66 174.978 150.66C175.378 148.55 176.408 148.05 178.408 148.8C183.998 150.91 185.128 150.5 215.658 150.72C217.388 150.72 217.438 150.64 217.478 148.87C218.158 121.38 218.058 126.28 218.478 119.32C218.548 118.74 218.426 118.152 218.132 117.647C217.838 117.142 217.387 116.746 216.848 116.52C211.248 113.61 208.098 108.97 207.948 102.65C207.598 87.84 225.668 80.98 235.328 91.14C242.168 98.33 241.128 110.05 232.878 115.29C232.117 115.709 231.499 116.346 231.103 117.12C230.708 117.893 230.553 118.768 230.658 119.63C230.658 120.22 230.548 115.32 231.658 149.68C231.658 150.58 232.088 150.8 232.898 150.79C232.998 150.79 255.898 150.7 267.368 150.42L267.328 150.34ZM68.2683 141.7C88.1083 137.19 100.948 141.14 120.758 143.39C123.518 143.7 124.498 144.61 124.378 147.39C124.168 152.39 123.218 169.72 123.138 170.54C123.118 171.045 122.954 171.533 122.665 171.948C122.376 172.363 121.975 172.686 121.508 172.88C117.448 174.58 117.898 168.43 117.508 165.59C114.378 143.16 43.6383 132.89 42.8783 190.99C42.5683 214.91 59.8783 244.62 96.9583 241.87C124.198 239.87 115.958 221.68 121.798 221.4C122.239 221.341 122.687 221.39 123.104 221.545C123.521 221.699 123.894 221.953 124.19 222.284C124.486 222.616 124.696 223.015 124.802 223.446C124.908 223.878 124.907 224.329 124.798 224.76C122.968 235.61 121.378 243.71 121.348 243.91C119.808 253.08 34.6483 266 27.9983 201.85C25.2883 176 38.4383 148.48 68.2683 141.7ZM148.268 229.37H128.778C128.198 229.417 127.618 229.266 127.135 228.941C126.652 228.615 126.293 228.136 126.118 227.58C128.498 223.83 132.008 228.5 131.978 221.44C131.898 195.69 132.188 183.44 132.208 181.34C132.208 177.92 131.678 176.69 128.888 176.4C121.888 175.68 125.778 173.03 127.778 173.02C139.618 172.92 150.398 172.84 157.828 173.74C166.598 174.81 174.538 186.37 165.758 196.36C163.758 198.61 161.758 200.78 159.618 203.09C160.568 204.24 166.518 211.91 176.898 222.77C179.558 225.55 183.048 226.28 186.778 225.9C187.353 225.906 187.907 225.688 188.323 225.292C188.739 224.896 188.985 224.354 189.008 223.78C189.308 220.36 189.268 228.51 189.458 183.2C189.458 177.55 189.118 176.62 186.228 176.37C182.278 176.02 182.228 174.11 185.538 173L204.628 172.91C204.948 172.91 209.118 173.44 205.628 176.29C205.628 176.34 205.468 176.29 205.388 176.29C201.778 176.55 201.448 177.29 201.388 180.91C201.118 224.84 201.458 221.14 201.798 223.73C201.908 224.57 202.068 225.96 206.898 225.87C209.388 225.87 210.758 229.24 206.898 229.27C196.528 229.35 186.158 229.27 175.788 229.34C165.118 229.34 162.318 223.14 151.578 208.52C149.978 206.34 143.268 206.16 143.378 208.15C144.258 224.62 143.378 225.93 147.378 225.82C152.128 225.72 152.108 229.39 148.208 229.37H148.268ZM423.268 219.22C422.058 226.35 423.438 229.6 417.968 229.56C356.418 229.14 370.148 229.34 367.248 229.25C366.017 229.129 364.801 228.885 363.618 228.52C361.088 227.92 365.098 227.29 363.238 222.92C361.808 219.55 360.458 216.14 359.128 212.73C359.013 212.295 358.751 211.914 358.386 211.652C358.022 211.389 357.577 211.261 357.128 211.29C352.27 211.056 347.404 211.08 342.548 211.36C342.216 211.404 341.898 211.522 341.617 211.705C341.337 211.889 341.101 212.133 340.928 212.42C339.348 216.04 337.858 219.71 336.418 223.42C335.148 226.65 344.278 224.74 348.608 225.58C351.608 226.15 353.138 229.3 349.268 229.31H322.898C319.978 229.31 319.808 226.16 322.158 226.1C323.375 226.156 324.581 225.858 325.632 225.242C326.683 224.626 327.532 223.719 328.078 222.63C329.578 219.63 330.878 216.63 332.188 213.54C350.368 171.4 349.248 173.37 350.608 171.93C350.777 171.689 351.001 171.492 351.263 171.355C351.524 171.219 351.814 171.148 352.108 171.148C352.403 171.148 352.693 171.219 352.954 171.355C353.215 171.492 353.44 171.689 353.608 171.93C356.538 175.27 372.008 216.64 377.228 223.85C379.228 226.55 382.968 225.85 383.588 225.85C387.198 225.98 387.588 224.74 387.718 221.56C387.808 219.69 387.798 222.73 387.788 180.32C387.788 175.86 385.428 176.58 382.238 176.05C381.978 176.05 379.678 175.42 382.158 172.99C382.368 172.79 381.268 172.75 403.858 172.84C406.178 172.84 409.178 175.59 402.648 176.29C402.28 176.273 401.912 176.337 401.57 176.476C401.229 176.614 400.921 176.825 400.668 177.094C400.416 177.363 400.224 177.683 400.107 178.033C399.989 178.382 399.949 178.753 399.988 179.12C399.918 180.75 399.798 218.01 400.278 220.33C400.429 221.058 400.84 221.707 401.435 222.154C402.029 222.601 402.767 222.817 403.508 222.76C416.758 223.19 418.428 223.2 419.508 219.35C421.178 213.57 423.638 216.83 423.238 219.16L423.268 219.22ZM318.548 283.59C314.308 283.59 314.128 280.2 317.938 280.18C353.848 280.02 346.048 280.56 355.128 279.53C356.808 279.34 357.508 279.77 357.378 281.42C357.118 284.81 356.738 288.2 356.378 291.58C356.128 293.74 353.178 294.19 352.978 291.43C352.598 286.12 350.828 286.98 337.348 286.35C335.768 286.28 335.708 286.35 335.708 287.87V304C335.708 305.65 335.708 305.6 337.328 305.47C340.448 305.22 347.638 305.81 353.018 303.95C353.488 303.79 356.318 302.16 356.088 305.71C356.088 305.92 355.328 316.06 354.908 317.1C354.378 318.39 353.028 318.61 352.328 317.42C351.158 315.42 352.328 312.34 348.618 312.12C333.198 311.22 335.708 309.57 335.708 318.12C335.708 330.37 334.948 334.23 339.598 334.36C356.238 334.84 353.998 334.36 356.028 328.65C356.868 326.28 359.528 326.88 359.208 329.23C358.768 332.44 358.358 335.66 357.978 338.87C357.978 339.23 357.818 341.27 353.318 341.26C316.158 341.18 318.778 341.07 318.108 340.95C315.388 340.44 315.908 337.95 318.328 337.5C319.428 337.31 322.328 338.04 322.488 334.94C324.928 278.72 322.418 283.6 318.578 283.61L318.548 283.59ZM318.138 174.07C320.598 174.68 321.268 175.83 321.088 178.72C320.758 184.02 320.748 187.72 320.538 188.41C319.878 190.64 317.388 190.53 317.198 188.14C316.818 183.33 314.148 180.32 309.628 178.99C283.348 171.26 276.818 194.45 282.458 209.21C288.338 224.62 304.458 225.13 311.318 222.99C317.238 221.14 317.198 216.49 318.228 215.41C319.458 214.11 320.478 213.57 321.348 216.51C321.348 216.61 321.918 228.4 315.348 229.26C313.748 229.47 295.968 232.95 282.668 225.87C261.668 214.68 265.928 190.4 275.788 180.54C289.788 166.48 315.698 173.48 318.108 174.07H318.138ZM289.798 280.14C293.078 280.14 293.458 283.14 289.958 283.57C287.348 283.89 284.958 283.15 284.958 289.03C284.958 291.03 284.768 318.08 285.358 330.48C285.468 332.77 286.508 334 288.798 334.13C310.798 335.34 303.748 332.48 307.588 327.79C309.418 325.55 310.348 328.63 310.348 328.87C310.698 342.49 306.348 341.26 305.158 341.27L266.998 341.08C265.068 340.85 264.938 338.08 266.578 337.7C268.578 337.22 271.518 338.1 271.708 334.9C272.708 319.03 272.278 290.25 272.048 287.09C271.778 283.32 269.248 283.82 266.368 283.38C263.898 283 264.368 280.16 266.708 280.16C268.158 280.14 284.678 280.13 289.798 280.14ZM258.168 222.35C258.238 226.43 261.028 225.81 264.168 225.93C266.778 226.03 266.698 229.34 264.098 229.36C257.618 229.36 250.398 229.36 242.488 229.3C238.648 229.3 239.108 225.95 242.488 225.93C246.978 225.93 245.728 227.54 245.898 180.39C245.898 175.31 242.628 176.85 241.178 176.16C238.598 174.93 239.818 173.07 241.588 173.01C242.878 173.01 261.778 172.6 262.758 173.22C263.738 173.84 264.628 174.87 262.338 176.08C261.338 176.6 258.478 175.8 258.188 178.55C258.188 178.76 257.368 180.18 258.118 222.35H258.168ZM221.258 496.62C221.741 496.943 222.308 497.115 222.888 497.115C223.469 497.115 224.036 496.943 224.518 496.62C241.518 486.83 406.518 393.05 421.938 384.11C421.798 383.68 433.198 383.93 240.418 383.84C239.198 383.84 238.848 384.21 238.888 385.4C238.888 385.5 240.138 429.91 240.108 435.78C240.014 438.401 239.556 440.995 238.748 443.49C238.198 445.32 239.128 442.99 225.248 475.72C224.518 477.44 224.248 477.93 223.248 475.64C219.058 465.3 214.968 454.92 210.678 444.64C209.173 441.25 208.488 437.554 208.678 433.85C208.838 431.39 209.478 417.73 210.188 385.85C210.188 383.9 210.188 383.85 208.188 383.85H25.1883C27.7683 385.48 203.508 486.42 221.188 496.61L221.258 496.62ZM130.358 307.87C130.358 310.27 130.718 310.66 133.118 310.87C144.658 312.04 154.118 314.61 158.758 303.55C164.758 289.09 161.418 269.14 146.278 264.71C144.278 264.12 130.278 261.95 130.338 266.22C130.388 274.26 130.348 277.83 130.358 307.87ZM236.108 292.82C236.108 294.95 237.178 331.5 237.198 331.95C237.538 341.89 211.618 337.72 211.968 329.36C212.048 327.36 213.338 291.94 213.068 289.93C198.968 297.37 198.648 330.14 219.508 338.73C223.466 340.448 227.91 340.678 232.024 339.379C236.138 338.08 239.645 335.339 241.898 331.66C246.808 323.9 248.738 302.19 236.468 292.66C236.351 292.709 236.231 292.749 236.108 292.78V292.82ZM223.828 94.82C213.998 94.82 214.098 109.57 223.758 109.69C233.418 109.81 233.858 94.81 223.828 94.78V94.82ZM143.678 198.65C143.678 200.45 144.088 201.05 145.848 201.23C159.468 202.62 158.358 190.23 158.008 187.87C156.318 176.65 143.628 177.67 143.658 180.06C143.708 184.56 143.628 193.74 143.678 198.65ZM355.998 205.05L349.898 189.21C347.738 194.69 345.738 199.78 343.668 205.05H355.998Z" fill="black"/>
</svg>
