<svg width="384" height="512" viewBox="0 0 384 512" fill="none" xmlns="http://www.w3.org/2000/svg">
<g clip-path="url(#clip0_3932_12964)">
<mask id="mask0_3932_12964" style="mask-type:luminance" maskUnits="userSpaceOnUse" x="0" y="0" width="384" height="512">
<path d="M384 0H0V512H384V0Z" fill="white"/>
</mask>
<g mask="url(#mask0_3932_12964)">
<mask id="mask1_3932_12964" style="mask-type:luminance" maskUnits="userSpaceOnUse" x="0" y="0" width="384" height="512">
<path d="M384 0H0V512H384V0Z" fill="white"/>
</mask>
<g mask="url(#mask1_3932_12964)">
<mask id="mask2_3932_12964" style="mask-type:luminance" maskUnits="userSpaceOnUse" x="0" y="0" width="384" height="512">
<path d="M384 0H0V512H384V0Z" fill="white"/>
</mask>
<g mask="url(#mask2_3932_12964)">
<mask id="mask3_3932_12964" style="mask-type:luminance" maskUnits="userSpaceOnUse" x="0" y="0" width="384" height="512">
<path d="M384 0H0V512H384V0Z" fill="white"/>
</mask>
<g mask="url(#mask3_3932_12964)">
<mask id="mask4_3932_12964" style="mask-type:luminance" maskUnits="userSpaceOnUse" x="0" y="0" width="384" height="512">
<path d="M384 0H0V512H384V0Z" fill="white"/>
</mask>
<g mask="url(#mask4_3932_12964)">
<mask id="mask5_3932_12964" style="mask-type:luminance" maskUnits="userSpaceOnUse" x="0" y="0" width="384" height="512">
<path d="M384 0H0V512H384V0Z" fill="white"/>
</mask>
<g mask="url(#mask5_3932_12964)">
<mask id="mask6_3932_12964" style="mask-type:luminance" maskUnits="userSpaceOnUse" x="0" y="0" width="384" height="512">
<path d="M384 0H0V512H384V0Z" fill="white"/>
</mask>
<g mask="url(#mask6_3932_12964)">
<mask id="mask7_3932_12964" style="mask-type:luminance" maskUnits="userSpaceOnUse" x="0" y="0" width="384" height="512">
<path d="M384 0H0V512H384V0Z" fill="white"/>
</mask>
<g mask="url(#mask7_3932_12964)">
<mask id="mask8_3932_12964" style="mask-type:luminance" maskUnits="userSpaceOnUse" x="0" y="0" width="384" height="512">
<path d="M384 0H0V512H384V0Z" fill="white"/>
</mask>
<g mask="url(#mask8_3932_12964)">
<mask id="mask9_3932_12964" style="mask-type:luminance" maskUnits="userSpaceOnUse" x="0" y="0" width="384" height="512">
<path d="M384 0H0V512H384V0Z" fill="white"/>
</mask>
<g mask="url(#mask9_3932_12964)">
<mask id="mask10_3932_12964" style="mask-type:luminance" maskUnits="userSpaceOnUse" x="0" y="0" width="384" height="512">
<path d="M384 0H0V512H384V0Z" fill="white"/>
</mask>
<g mask="url(#mask10_3932_12964)">
<mask id="mask11_3932_12964" style="mask-type:luminance" maskUnits="userSpaceOnUse" x="0" y="0" width="384" height="512">
<path d="M384 0H0V512H384V0Z" fill="white"/>
</mask>
<g mask="url(#mask11_3932_12964)">
<mask id="mask12_3932_12964" style="mask-type:luminance" maskUnits="userSpaceOnUse" x="0" y="0" width="384" height="512">
<path d="M384 0H0V512H384V0Z" fill="white"/>
</mask>
<g mask="url(#mask12_3932_12964)">
<mask id="mask13_3932_12964" style="mask-type:luminance" maskUnits="userSpaceOnUse" x="0" y="0" width="384" height="512">
<path d="M384 0H0V512H384V0Z" fill="white"/>
</mask>
<g mask="url(#mask13_3932_12964)">
<path d="M176 0C149.5 0 128 21.5 128 48V128H48C21.5 128 0 149.5 0 176V208C0 234.5 21.5 256 48 256H128V464C128 490.5 149.5 512 176 512H208C234.5 512 256 490.5 256 464V256H336C362.5 256 384 234.5 384 208V176C384 149.5 362.5 128 336 128H256V48C256 21.5 234.5 0 208 0H176Z" fill="black"/>
</g>
</g>
</g>
</g>
</g>
</g>
</g>
</g>
</g>
</g>
</g>
</g>
</g>
</g>
</g>
<defs>
<clipPath id="clip0_3932_12964">
<rect width="384" height="512" fill="white"/>
</clipPath>
</defs>
</svg>
