<svg width="448" height="512" viewBox="0 0 448 512" fill="none" xmlns="http://www.w3.org/2000/svg">
<path d="M96 256C96 167.6 167.6 96 256 96C297 96 334.3 111.4 362.7 136.7C375.9 148.5 396.1 147.4 407.9 134.2C419.7 121 418.6 100.8 405.4 89C365.8 53.5 313.4 32 256.1 32C132.3 32 32 132.3 32 256C32 379.7 132.3 480 256 480C313.4 480 365.7 458.4 405.3 423C418.5 411.2 419.6 391 407.8 377.8C396 364.6 375.8 363.5 362.6 375.3C334.3 400.6 297 416 256 416V320V311.3C256 298.5 266.4 288 279.3 288C283.9 288 288.4 289.4 292.2 291.9L302.3 298.6C317 308.4 336.9 304.4 346.7 289.7C356.5 275 352.5 255.1 337.8 245.3L327.7 238.6C313.4 229 296.5 223.9 279.3 223.9C266.9 223.9 255.1 226.5 244.4 231.2C238.9 226.7 231.8 223.9 224.1 223.9C206.4 223.9 192.1 238.2 192.1 255.9V311.2V320V402.7C135.5 378 96 321.6 96 256Z" fill="black"/>
</svg>
