<svg width="576" height="512" viewBox="0 0 576 512" fill="none" xmlns="http://www.w3.org/2000/svg">
<g clip-path="url(#clip0_3932_13272)">
<mask id="mask0_3932_13272" style="mask-type:luminance" maskUnits="userSpaceOnUse" x="0" y="0" width="576" height="512">
<path d="M576 0H0V512H576V0Z" fill="white"/>
</mask>
<g mask="url(#mask0_3932_13272)">
<mask id="mask1_3932_13272" style="mask-type:luminance" maskUnits="userSpaceOnUse" x="0" y="0" width="576" height="512">
<path d="M576 0H0V512H576V0Z" fill="white"/>
</mask>
<g mask="url(#mask1_3932_13272)">
<mask id="mask2_3932_13272" style="mask-type:luminance" maskUnits="userSpaceOnUse" x="0" y="0" width="576" height="512">
<path d="M576 0H0V512H576V0Z" fill="white"/>
</mask>
<g mask="url(#mask2_3932_13272)">
<mask id="mask3_3932_13272" style="mask-type:luminance" maskUnits="userSpaceOnUse" x="0" y="0" width="576" height="512">
<path d="M576 0H0V512H576V0Z" fill="white"/>
</mask>
<g mask="url(#mask3_3932_13272)">
<mask id="mask4_3932_13272" style="mask-type:luminance" maskUnits="userSpaceOnUse" x="0" y="0" width="576" height="512">
<path d="M576 0H0V512H576V0Z" fill="white"/>
</mask>
<g mask="url(#mask4_3932_13272)">
<mask id="mask5_3932_13272" style="mask-type:luminance" maskUnits="userSpaceOnUse" x="0" y="0" width="576" height="512">
<path d="M576 0H0V512H576V0Z" fill="white"/>
</mask>
<g mask="url(#mask5_3932_13272)">
<mask id="mask6_3932_13272" style="mask-type:luminance" maskUnits="userSpaceOnUse" x="0" y="0" width="576" height="512">
<path d="M576 0H0V512H576V0Z" fill="white"/>
</mask>
<g mask="url(#mask6_3932_13272)">
<mask id="mask7_3932_13272" style="mask-type:luminance" maskUnits="userSpaceOnUse" x="0" y="0" width="576" height="512">
<path d="M576 0H0V512H576V0Z" fill="white"/>
</mask>
<g mask="url(#mask7_3932_13272)">
<mask id="mask8_3932_13272" style="mask-type:luminance" maskUnits="userSpaceOnUse" x="0" y="0" width="576" height="512">
<path d="M576 0H0V512H576V0Z" fill="white"/>
</mask>
<g mask="url(#mask8_3932_13272)">
<mask id="mask9_3932_13272" style="mask-type:luminance" maskUnits="userSpaceOnUse" x="0" y="0" width="576" height="512">
<path d="M576 0H0V512H576V0Z" fill="white"/>
</mask>
<g mask="url(#mask9_3932_13272)">
<mask id="mask10_3932_13272" style="mask-type:luminance" maskUnits="userSpaceOnUse" x="0" y="0" width="576" height="512">
<path d="M576 0H0V512H576V0Z" fill="white"/>
</mask>
<g mask="url(#mask10_3932_13272)">
<mask id="mask11_3932_13272" style="mask-type:luminance" maskUnits="userSpaceOnUse" x="0" y="0" width="576" height="512">
<path d="M576 0H0V512H576V0Z" fill="white"/>
</mask>
<g mask="url(#mask11_3932_13272)">
<mask id="mask12_3932_13272" style="mask-type:luminance" maskUnits="userSpaceOnUse" x="0" y="0" width="576" height="512">
<path d="M576 0H0V512H576V0Z" fill="white"/>
</mask>
<g mask="url(#mask12_3932_13272)">
<mask id="mask13_3932_13272" style="mask-type:luminance" maskUnits="userSpaceOnUse" x="0" y="0" width="576" height="512">
<path d="M576 0H0V512H576V0Z" fill="white"/>
</mask>
<g mask="url(#mask13_3932_13272)">
<path d="M82.5016 98.8971C81.9016 81.6971 84.5016 65.0971 95.2016 50.6971C95.5016 58.0971 96.4016 65.1971 99.4016 72.2971C105.302 44.7971 119.102 22.9971 141.702 6.79704C139.802 12.6971 138.202 18.5971 138.702 24.4971C147.402 17.0971 157.502 6.69704 183.102 1.79704C197.802 -1.00295 212.802 -0.202952 225.202 2.79704C263.702 12.0971 286.202 37.0971 294.902 75.0971C300.202 98.1971 295.602 120.097 286.602 141.497C281.402 153.897 274.602 165.897 265.902 176.597C263.902 174.697 262.002 172.797 260.102 170.997C217.302 130.197 233.302 145.797 222.702 133.597C221.602 132.397 221.702 131.397 222.602 129.997C230.902 116.497 234.402 101.797 232.602 85.9971C231.502 76.1971 228.302 67.0971 221.302 59.7971C206.802 44.4971 182.102 44.7971 167.802 60.3971C156.402 72.8971 153.702 87.797 156.902 103.997C157.102 105.297 157.302 106.697 156.902 107.897C153.502 121.597 152.302 135.497 154.402 149.497C154.502 149.997 154.502 150.597 154.502 151.097C154.502 151.397 154.402 151.597 154.302 152.197C132.502 141.197 118.302 123.897 111.102 99.9971C102.802 117.797 100.002 135.497 104.502 154.097C88.9016 138.897 83.2016 119.797 82.5016 98.8971ZM552.102 222.097C540.502 210.497 527.102 201.697 512.002 195.497C499.202 190.297 486.002 187.597 472.102 188.397C462.102 188.997 452.502 191.497 443.102 194.797C440.602 195.697 438.002 196.397 435.402 196.997C430.502 198.197 428.102 193.897 430.702 190.197C433.902 185.597 434.102 185.997 445.702 178.197C446.302 177.797 446.902 177.397 447.902 176.697H445.402C444.802 176.697 444.202 176.897 443.502 176.997C424.202 180.297 412.802 192.497 394.602 206.597C384.202 214.697 380.802 210.397 382.602 206.097C384.002 202.597 385.902 199.397 387.702 196.097C388.702 194.297 390.002 192.697 391.202 190.997C391.002 190.797 390.702 190.697 390.502 190.497C363.502 208.797 343.802 232.897 332.802 263.797C333.102 264.097 333.502 264.397 333.802 264.697C334.102 264.097 334.302 263.497 334.702 262.997C345.102 250.897 357.502 241.197 371.302 233.197C389.502 222.597 408.802 214.897 430.002 212.997C434.302 212.597 438.702 212.897 443.102 212.897C441.302 213.597 439.602 213.797 437.802 213.997C419.302 216.397 402.302 222.997 386.302 232.497C356.102 250.397 331.802 274.697 311.202 302.897C310.902 303.297 310.802 303.797 310.502 304.197C325.002 309.497 334.502 321.497 346.602 329.797C346.802 329.697 346.902 329.597 347.002 329.397L348.202 326.697C360.402 299.797 375.202 274.397 394.902 252.197C411.602 233.397 432.902 226.897 457.402 232.197C463.302 233.497 468.802 236.597 474.602 238.997C476.902 237.597 479.702 235.797 482.602 234.297C491.002 229.997 500.002 227.297 509.302 225.297C524.002 222.197 538.802 220.397 553.802 223.997V223.497C553.302 223.097 552.602 222.697 552.102 222.097ZM316.702 397.597C277.302 364.597 293.902 378.097 274.002 361.997C273.202 362.897 274.002 361.797 272.102 364.997C260.902 384.097 246.602 400.297 228.102 412.597C217.802 419.397 206.602 424.397 194.002 424.397C172.402 424.397 155.802 414.897 144.602 396.597C132.602 377.097 131.302 355.897 136.402 333.997C144.202 300.197 166.502 278.797 175.002 269.697C156.302 263.497 142.002 271.397 128.602 283.597C129.402 269.697 132.902 257.397 140.402 246.297C116.102 256.897 94.5016 271.297 75.6016 290.197C75.3016 284.397 81.0016 246.497 81.2016 245.497C81.5016 242.797 80.6016 240.197 78.2016 238.097C54.0016 262.797 33.7016 289.897 22.1016 322.697C29.5016 316.797 37.0016 311.297 45.7016 306.497C37.4016 328.797 26.1016 359.297 37.9016 407.597C42.5016 426.597 49.8016 444.397 62.0016 459.897C64.9016 463.597 68.3016 466.797 71.5016 470.197C71.7016 469.997 71.9016 469.897 72.1016 469.697C70.7016 462.697 69.9016 455.597 70.6016 447.797C72.8016 450.997 74.5016 453.797 76.5016 456.397C89.1016 472.397 105.202 483.797 123.702 491.997C148.702 503.297 174.802 505.297 201.602 500.597C256.502 490.897 292.302 451.997 317.602 401.797C318.602 399.997 318.202 398.897 316.702 397.597ZM488.702 351.197C479.202 348.097 466.502 346.997 460.002 348.297C469.902 352.297 474.102 354.897 478.802 360.297C491.402 374.697 489.202 394.997 473.402 405.897C461.702 413.997 448.502 416.397 434.502 414.997C433.302 414.897 432.202 414.597 431.502 414.397C434.302 410.697 437.502 407.397 439.602 403.597C449.002 386.797 445.002 361.497 430.902 347.497C428.802 345.397 426.302 343.597 423.902 341.597C423.602 342.897 423.802 343.697 424.002 344.397C428.202 360.997 415.902 376.797 399.202 376.197C391.602 375.897 385.302 372.397 379.602 367.697C360.102 351.597 340.502 335.597 321.102 319.397C315.202 314.497 308.602 311.297 301.002 310.697C296.402 310.297 291.702 310.097 287.102 309.797C281.202 309.397 278.302 306.997 276.702 301.397C275.802 297.997 275.202 294.597 274.502 291.197C273.002 283.097 268.302 278.197 260.202 276.997C255.802 276.297 251.302 275.997 246.902 275.497C233.902 274.097 227.102 268.097 224.302 255.197C219.302 266.197 222.702 277.597 231.602 285.097C236.102 288.897 240.902 292.397 245.402 296.297C250.002 300.097 252.802 304.997 253.302 311.097C253.702 315.797 254.102 320.597 255.102 325.197C257.302 335.797 264.002 343.597 272.102 350.297C288.602 363.997 305.102 377.597 321.602 391.397C339.502 406.397 335.502 424.197 334.602 447.397C333.702 470.297 346.802 490.297 368.102 498.597C369.102 498.997 370.102 499.197 371.702 499.697C356.002 481.497 361.602 455.597 372.402 447.397C372.702 449.597 372.802 451.697 373.302 453.797C382.702 497.897 418.702 517.997 458.302 510.697C474.302 507.797 488.902 501.797 501.202 490.897C503.202 489.097 504.902 486.797 507.102 484.397C487.802 488.997 471.302 484.497 456.202 473.797C456.902 473.497 457.502 473.497 458.102 473.497C479.402 475.297 498.702 470.097 515.102 456.097C534.602 439.497 541.702 413.197 532.502 390.097C524.202 369.997 508.902 357.797 488.702 351.197ZM99.4016 179.297C94.1016 170.097 86.2016 163.697 77.3016 157.997C91.0016 157.497 103.902 158.197 116.902 161.697C109.902 149.497 108.402 136.997 111.902 122.997C117.202 134.897 125.602 143.097 135.502 149.797C155.202 162.997 171.202 169.397 182.202 179.997C185.602 183.297 188.502 187.097 191.802 190.897C191.002 188.797 190.402 186.797 189.602 184.897C184.602 174.297 176.602 166.297 167.002 159.897C165.202 158.697 164.202 157.397 163.602 155.397C160.302 142.897 160.602 130.297 162.902 117.797C163.902 112.297 165.702 106.897 167.402 101.497C168.202 99.0971 169.702 96.8971 171.402 94.8971C172.002 101.797 171.402 120.397 191.002 140.897C201.802 152.197 213.402 162.797 224.902 173.597C233.902 182.097 243.202 190.297 250.402 200.397C251.502 201.997 252.602 203.697 254.202 205.097C249.202 192.097 240.002 180.997 230.002 171.297C220.402 161.997 210.602 152.897 200.802 143.897C197.502 140.897 196.202 137.197 195.702 132.997C194.502 122.597 195.702 112.397 200.002 102.797C200.502 101.797 201.102 100.797 201.902 99.4971C202.402 103.697 202.502 107.397 203.302 111.097C208.102 134.197 223.702 147.397 252.602 174.597C262.602 183.997 271.902 193.797 278.202 206.197C283.002 215.497 285.502 225.197 283.902 235.797C283.802 236.397 284.402 237.497 285.002 237.797C291.202 240.397 295.002 244.697 294.702 252.097C302.402 249.497 307.202 244.097 311.102 237.597C315.302 257.797 302.002 287.897 283.902 296.297C284.302 291.797 288.902 272.897 267.402 268.597C260.602 267.297 254.602 267.297 244.502 266.497C249.202 257.497 254.902 245.897 245.002 244.097C220.102 239.497 192.202 245.997 187.202 248.697C195.402 249.097 203.502 249.697 210.702 251.997C208.702 258.497 206.702 264.697 204.902 270.897C203.002 277.397 207.002 285.497 214.202 280.497C215.402 279.597 216.502 278.597 217.502 277.797C214.402 295.697 214.602 293.697 214.702 296.097C215.002 306.297 224.202 303.897 230.402 303.397C227.902 315.197 200.902 330.697 185.002 329.197C192.002 324.497 197.702 318.897 200.902 311.297C194.402 312.097 188.002 312.897 181.702 313.697L181.402 312.797C186.102 309.397 189.402 304.997 191.602 299.697C200.302 278.597 188.002 261.697 166.602 259.797C157.502 258.997 148.802 260.597 140.702 265.297C146.902 249.697 157.902 238.697 173.302 230.797C158.102 226.497 164.402 228.097 148.702 224.497C163.302 215.197 178.902 211.297 195.202 209.897C190.002 206.697 147.102 206.297 125.002 230.797C132.902 232.197 140.502 233.597 148.202 234.997C124.402 241.997 104.202 254.697 85.8016 270.597C86.9016 265.797 88.5016 261.097 89.1016 256.297C89.7016 251.797 89.9016 247.097 89.2016 242.697C87.7016 233.297 80.3016 227.597 69.5016 226.397C61.6016 225.497 53.9016 226.497 46.2016 227.697C45.3016 227.797 44.5016 227.997 43.3016 227.697C59.1016 212.897 79.3016 205.997 96.4016 194.197C102.402 189.697 103.202 185.997 99.4016 179.297ZM227.802 206.097C231.102 222.097 240.402 231.597 251.602 230.397C247.002 219.097 239.502 210.897 227.802 206.097Z" fill="black"/>
</g>
</g>
</g>
</g>
</g>
</g>
</g>
</g>
</g>
</g>
</g>
</g>
</g>
</g>
</g>
<defs>
<clipPath id="clip0_3932_13272">
<rect width="576" height="512" fill="white"/>
</clipPath>
</defs>
</svg>
