<svg width="448" height="512" viewBox="0 0 448 512" fill="none" xmlns="http://www.w3.org/2000/svg">
<path d="M380.2 245.603C383.2 238.003 385.7 231.603 385.4 221.203L381.1 230.203C385.5 217.003 385.1 203.103 384.7 189.803C384.5 183.803 384.4 178.003 384.7 172.403L382.9 171.903C381.4 126.703 342.3 78.8031 307.6 62.5031C277.6 48.7031 231.5 46.3031 210.3 56.7031C211.6 55.6031 214.5 54.7031 217.1 54.0031L217.4 53.9031C220.7 52.9031 223.4 52.2031 221.4 51.0031C202.2 52.9031 196.5 56.5031 190.3 60.4031H190.2C185.6 63.3031 180.7 66.4031 169.9 69.1031C166.4 72.5031 171.6 71.1031 175.7 70.0031C179.8 68.9031 182.9 68.1031 175.6 72.4031C172.1 73.4031 169 73.7031 166 74.0031H165.9C157.6 74.8031 150.1 75.6031 135.2 91.0031C136 92.3031 138.6 90.8031 140.5 89.7031L140.6 89.6031C142.9 88.2031 144 87.6031 138.9 94.0031C119.8 91.6031 78.6003 137.703 69.8003 153.003L74.4003 153.803C71.2003 161.803 67.6003 168.603 64.4003 174.603C60.1003 182.703 56.5003 189.503 55.7003 195.903C55.4003 201.003 54.7003 206.903 54.0003 213.203C53.9003 214.203 53.8003 215.203 53.7003 216.203L53.6003 216.803C50.6003 244.103 46.9003 277.603 57.5003 289.803L56.2003 302.803C56.8003 304.003 57.3003 305.103 57.8003 306.303C58.0003 306.703 58.2003 307.103 58.3003 307.403C59.3003 309.503 60.3003 311.603 61.6003 313.603L58.6003 313.803C65.6003 335.903 69.4003 336.303 73.7003 336.703C78.1003 337.103 83.0003 337.603 92.4003 360.903C89.7003 360.003 86.9003 359.003 83.0003 353.703C82.5003 357.803 88.8003 370.003 96.1003 379.503L93.0003 383.103C95.1003 386.803 97.8003 389.303 100.6 391.903C101.6 392.803 102.7 393.803 103.7 394.803C91.8003 388.303 106.9 408.503 115.6 420.003C116.4 421.103 117.1 422.003 117.8 422.903C119.2 424.803 120.3 426.303 120.7 427.003L123.1 422.803C122.8 428.903 127.4 436.703 136.2 447.503L143.5 447.203C146.5 453.203 157.5 463.903 164.2 464.403L159.8 470.203C167.9 472.803 170.1 474.503 172.5 476.403C175.1 478.503 177.9 480.703 188.6 484.503L184.4 477.103C187.9 480.103 190.6 483.003 193.2 485.803L193.3 485.903C198.5 491.503 203.2 496.503 213 501.203C223.7 504.903 229.6 505.903 235.7 507.003C236 507.003 236.3 507.103 236.6 507.103C242 507.903 247.8 508.903 257.4 511.603C256.3 511.503 255.2 511.503 254.1 511.503C251.8 511.403 249.4 511.403 247.1 511.403C232.7 511.203 217.9 511.003 204.4 506.203C107.8 480.503 19.5003 367.203 26.0003 250.603C25.4003 240.703 25.7003 229.703 26.0003 219.903C26.4003 206.403 26.7003 195.103 24.4003 191.603L25.4003 188.503C30.7003 171.103 37.1003 150.303 49.2003 125.703L49.1003 125.503V125.403C49.5003 125.803 52.5003 128.803 57.9003 119.603C58.7003 117.803 59.5003 115.903 60.3003 114.003C60.8003 112.903 61.2003 111.803 61.7003 110.803C64.2003 104.703 66.8003 98.5031 70.1003 92.9031L72.7003 92.3031C74.4003 82.2031 89.7003 68.5031 102.5 57.1031L103.6 56.1031C109.3 51.0031 114.3 46.4031 117.2 43.0031L117.9 47.4031C134.9 31.5031 162.5 19.9031 183.5 11.0031L184 10.8031C188.8 8.80313 193.3 6.90312 197.3 5.10312C193.9 8.90312 199.5 7.80312 207.3 6.10312C212.1 5.10312 217.7 4.00313 222.6 3.70312L218.7 5.8032C216 7.20319 213.3 8.60313 210.7 10.4031C218.8 8.40313 222.4 9.00314 226.4 9.60314H226.7C230.2 10.2031 234 10.8031 241.3 9.80313C235.7 10.6031 229 12.8031 230.1 13.6031C238 14.5031 242.9 13.5031 247.3 12.6031H247.5C253 11.5031 257.8 10.6031 266.8 13.5031L265.8 8.70312C273.1 11.3031 278.5 13.0031 283.3 14.5031L283.8 14.6031C293.8 17.6031 301.4 19.9031 318 28.7031C321.2 28.9031 323.3 28.2031 325.4 27.5031H325.5C329.1 26.4031 332.5 25.4031 340.7 28.7031C341 29.2031 341.2 29.7031 341.4 30.1031C341.5 30.3031 341.6 30.6031 341.7 30.8031V30.9031C342.7 33.5031 343.5 35.5031 356.3 43.0031C358 42.3031 353.6 38.3031 349.9 34.8031C349.9 34.8031 349.9 34.8031 349.8 34.7031C349.6 34.6031 349.5 34.4031 349.3 34.3031C381.5 51.6031 416.6 88.4031 427.3 127.803C421.3 116.703 422.1 122.303 423 128.303C423.6 132.303 424.2 136.403 422.8 135.803C427.3 147.903 430.9 160.303 433.2 173.203L432.4 170.303L432.3 170.003C429 158.103 422.7 135.703 412.4 120.703C412 125.003 409.6 124.603 407.2 124.203H407.1C403.8 123.603 400.9 123.103 405.2 136.803C407.8 140.603 408.3 139.203 408.7 137.903C409.2 136.403 409.6 135.203 413.4 143.103C413.5 147.203 414.4 151.303 415.5 155.803L415.6 156.403C415.7 156.703 415.7 156.903 415.8 157.203L415.9 157.803C416.5 160.403 417.2 163.203 417.7 166.203C416.6 166.003 415.4 164.003 414.3 162.003C412.9 159.603 411.5 157.303 410.6 158.803C413 170.303 417.1 176.203 418.6 177.103C418.3 177.703 418 177.803 417.5 177.803C416.7 177.803 415.7 177.903 415.6 183.103C416.3 196.803 418.9 195.603 420.9 194.703C421.5 194.403 422.1 194.103 422.6 194.303C422 196.803 421 199.403 419.9 202.203C417.1 209.303 413.9 217.603 416.5 228.303C415.7 225.303 414.5 222.303 413.4 219.403L413.3 219.003C413.1 218.503 412.9 218.003 412.7 217.503C412.4 216.703 412.1 215.903 411.8 215.203C411.2 219.603 411.5 222.903 411.7 225.803C411.7 226.003 411.7 226.303 411.7 226.503C412.1 231.803 412.4 236.503 408.7 246.403C413 232.203 412.5 219.503 408.5 225.603C409.5 236.503 404.8 246.003 400.5 254.503L400.4 254.703C396.8 261.803 393.6 268.203 394.5 274.003L389.3 266.903C381.8 277.803 382.3 280.203 382.8 282.403V282.503C383.3 284.403 383.8 286.303 379.4 293.303C381.1 290.403 380.7 289.703 380.4 289.103C380 288.303 379.7 287.603 382.1 284.003C380.5 284.103 376.6 287.903 372 292.503C368.1 296.403 363.5 300.903 359.2 304.303C321.7 334.403 276.9 338.303 233.6 322.103C233.8 321.103 233.4 320.003 230.5 318.003C193.7 289.803 172 265.903 179.6 210.503C181.7 208.903 183.2 204.703 184.9 199.703L185.1 199.303L185.2 199.003V198.903C188.1 190.503 191.7 180.103 199.5 175.103C207.3 157.803 230.8 141.803 255.9 141.403C281.5 140.003 303.1 155.103 314 169.303C294.2 150.903 261.9 145.303 234.3 158.903C206.1 171.603 189.3 202.703 191.8 233.603C192.1 233.203 192.4 233.003 192.7 232.803L192.8 232.703L192.9 232.603C193.5 232.103 194 231.703 194.3 229.303C193.4 289.503 259.1 333.603 306.4 311.303L307 312.603C319.7 309.103 322.9 306.103 327.3 301.903L327.4 301.803C329.6 299.703 332.1 297.303 336.3 294.503C336 295.203 335 296.203 333.9 297.203C331.7 299.303 329.3 301.703 332.3 301.803C337.3 300.503 350.8 288.403 360.8 279.503C361.4 279.003 362 278.503 362.5 278.003C364 276.703 365.3 275.503 366.5 274.403L366.8 274.103C368.7 269.903 368.4 268.503 368.1 267.103V267.003C367.7 265.403 367.3 263.703 370.5 257.403L377.8 253.703C378.6 251.603 379.3 249.603 380 247.703C380.2 247.103 380.5 246.503 380.7 245.903L380.3 245.703L380.2 245.603ZM247.8 334.103C241.8 331.103 234.1 325.203 233 322.703L232.6 323.003C232.3 323.603 232.1 324.303 232.4 325.203C220.2 319.503 209 310.903 199.8 300.303C204.7 307.403 209.9 314.403 216.8 319.803C209.9 317.503 201.7 308.003 195.2 300.503L195.1 300.403C190.8 295.403 187.2 291.303 185.4 290.903C205.2 326.403 265.9 353.203 297.7 339.903C283 340.403 264.3 340.203 247.8 334.103ZM327.1 214.403L327 214.203C326.5 212.703 325.9 211.103 325.3 210.803C326.7 205.003 330.7 200.103 329.7 215.403C328.7 219.203 327.9 216.903 327.1 214.403ZM322.9 236.603C321.6 244.503 317.9 252.103 312.8 259.103C313 257.103 311.6 256.703 310.2 256.303C307.3 255.503 304.3 254.703 315.8 240.203C315.3 242.103 313.7 244.803 312.1 247.503L311.8 247.903C308.2 253.803 305.1 258.903 315.8 252.203L316.8 250.403C319.4 245.903 321.8 241.603 322.8 236.603H322.9ZM267.3 270.503C274.4 271.103 281.4 271.103 288.3 269.403C285.8 271.803 283.1 274.203 280 276.603C268.9 274.903 258.8 270.603 267.3 270.503ZM174.7 282.103C178.3 289.203 181.1 293.603 183.7 297.803L183.8 298.003C186.1 301.703 188.2 305.103 190.6 309.703C185.5 305.503 181.9 300.203 178.1 294.703L177.8 294.203C176.4 292.103 175 290.003 173.4 288.003L174.6 282.103H174.7ZM182.2 272.503C183.8 275.803 185.4 278.903 187.9 281.603L190.5 289.303L189.2 287.203C186 281.903 182.9 276.603 181.2 270.503L182 272.103L182.2 272.503ZM421.1 230.903C418.8 248.303 413.4 265.503 405.1 281.203C412.7 266.303 417.6 250.303 419.9 234.003L421.1 230.903ZM35.6003 110.603C36.0003 111.403 37.0003 111.103 37.9003 110.903C39.8003 110.403 41.5003 110.003 37.8003 118.503C37.3003 118.803 36.8003 119.203 36.3003 119.503C34.9003 120.403 33.5003 121.403 32.4003 122.503C34.3003 118.703 35.9003 115.103 35.6003 110.603ZM25.3003 152.303C24.6003 156.003 23.8003 160.203 21.9003 166.203C22.1003 164.303 21.9003 162.703 21.7003 161.303V161.203C21.3003 157.803 21.0003 154.903 26.0003 148.403C25.7003 149.603 25.5003 150.903 25.3003 152.203V152.303Z" fill="black"/>
</svg>
