<svg width="448" height="512" viewBox="0 0 448 512" fill="none" xmlns="http://www.w3.org/2000/svg">
<g clip-path="url(#clip0_3932_13398)">
<mask id="mask0_3932_13398" style="mask-type:luminance" maskUnits="userSpaceOnUse" x="0" y="0" width="448" height="512">
<path d="M448 0H0V512H448V0Z" fill="white"/>
</mask>
<g mask="url(#mask0_3932_13398)">
<mask id="mask1_3932_13398" style="mask-type:luminance" maskUnits="userSpaceOnUse" x="0" y="0" width="448" height="512">
<path d="M448 0H0V512H448V0Z" fill="white"/>
</mask>
<g mask="url(#mask1_3932_13398)">
<mask id="mask2_3932_13398" style="mask-type:luminance" maskUnits="userSpaceOnUse" x="0" y="0" width="448" height="512">
<path d="M448 0H0V512H448V0Z" fill="white"/>
</mask>
<g mask="url(#mask2_3932_13398)">
<mask id="mask3_3932_13398" style="mask-type:luminance" maskUnits="userSpaceOnUse" x="0" y="0" width="448" height="512">
<path d="M448 0H0V512H448V0Z" fill="white"/>
</mask>
<g mask="url(#mask3_3932_13398)">
<mask id="mask4_3932_13398" style="mask-type:luminance" maskUnits="userSpaceOnUse" x="0" y="0" width="448" height="512">
<path d="M448 0H0V512H448V0Z" fill="white"/>
</mask>
<g mask="url(#mask4_3932_13398)">
<mask id="mask5_3932_13398" style="mask-type:luminance" maskUnits="userSpaceOnUse" x="0" y="0" width="448" height="512">
<path d="M448 0H0V512H448V0Z" fill="white"/>
</mask>
<g mask="url(#mask5_3932_13398)">
<mask id="mask6_3932_13398" style="mask-type:luminance" maskUnits="userSpaceOnUse" x="0" y="0" width="448" height="512">
<path d="M448 0H0V512H448V0Z" fill="white"/>
</mask>
<g mask="url(#mask6_3932_13398)">
<mask id="mask7_3932_13398" style="mask-type:luminance" maskUnits="userSpaceOnUse" x="0" y="0" width="448" height="512">
<path d="M448 0H0V512H448V0Z" fill="white"/>
</mask>
<g mask="url(#mask7_3932_13398)">
<mask id="mask8_3932_13398" style="mask-type:luminance" maskUnits="userSpaceOnUse" x="0" y="0" width="448" height="512">
<path d="M448 0H0V512H448V0Z" fill="white"/>
</mask>
<g mask="url(#mask8_3932_13398)">
<mask id="mask9_3932_13398" style="mask-type:luminance" maskUnits="userSpaceOnUse" x="0" y="0" width="448" height="512">
<path d="M448 0H0V512H448V0Z" fill="white"/>
</mask>
<g mask="url(#mask9_3932_13398)">
<mask id="mask10_3932_13398" style="mask-type:luminance" maskUnits="userSpaceOnUse" x="0" y="0" width="448" height="512">
<path d="M448 0H0V512H448V0Z" fill="white"/>
</mask>
<g mask="url(#mask10_3932_13398)">
<mask id="mask11_3932_13398" style="mask-type:luminance" maskUnits="userSpaceOnUse" x="0" y="0" width="448" height="512">
<path d="M448 0H0V512H448V0Z" fill="white"/>
</mask>
<g mask="url(#mask11_3932_13398)">
<mask id="mask12_3932_13398" style="mask-type:luminance" maskUnits="userSpaceOnUse" x="0" y="0" width="448" height="512">
<path d="M448 0H0V512H448V0Z" fill="white"/>
</mask>
<g mask="url(#mask12_3932_13398)">
<mask id="mask13_3932_13398" style="mask-type:luminance" maskUnits="userSpaceOnUse" x="0" y="0" width="448" height="512">
<path d="M448 0H0V512H448V0Z" fill="white"/>
</mask>
<g mask="url(#mask13_3932_13398)">
<path d="M446.5 68.0019C446.1 66.5019 445.6 65.0019 445.1 63.5019C444.2 61.0019 443.1 58.7019 441.8 56.4019C440.4 54.0019 438.8 51.6019 437.1 49.5019C435 47.0019 432.7 44.7019 430.2 42.7019C429.1 41.8019 428 41.0019 426.9 40.2019C425.6 39.3019 424.3 38.5019 422.9 37.8019C421.1 36.8019 419.3 36.0019 417.4 35.3019C415.7 34.6019 413.9 34.0019 412 33.6019C408.2 32.6019 404.1 32.1019 400 32.1019H48C21.5 32.0019 0 53.5019 0 80.0019V432.002C0 436.102 0.5 440.202 1.5 444.002C3.5 451.702 7.3 458.602 12.5 464.302C13.5 465.402 14.6 466.502 15.8 467.602C21.5 472.802 28.4 476.602 36.1 478.602C39.9 479.602 44 480.102 48.1 480.102H400.1C426.6 480.102 448.1 458.602 448.1 432.102V80.0019C448 75.9019 447.5 71.8019 446.5 68.0019ZM416 432.002C416 440.802 408.8 448.002 400 448.002H224V256.002H32V80.0019C32 71.2019 39.2 64.0019 48 64.0019H224V256.002H416V432.002Z" fill="black"/>
</g>
</g>
</g>
</g>
</g>
</g>
</g>
</g>
</g>
</g>
</g>
</g>
</g>
</g>
</g>
<defs>
<clipPath id="clip0_3932_13398">
<rect width="448" height="512" fill="white"/>
</clipPath>
</defs>
</svg>
