<svg width="512" height="512" viewBox="0 0 512 512" fill="none" xmlns="http://www.w3.org/2000/svg">
<path d="M448 416V352H64V416H448ZM448 480H64C28.7 480 0 451.3 0 416V352C0 316.7 28.7 288 64 288H448C483.3 288 512 316.7 512 352V416C512 451.3 483.3 480 448 480ZM288 160C288 195.3 259.3 224 224 224H64C28.7 224 0 195.3 0 160V96C0 60.7 28.7 32 64 32H208H224H368C412.2 32 448 67.8 448 112V128H486.1C507.5 128 518.2 153.9 503.1 169L433 239C423.6 248.4 408.4 248.4 399.1 239L329 169C313.9 153.9 324.6 128 346 128H384.1V112C384.1 103.2 376.9 96 368.1 96H288.1V160H288Z" fill="black"/>
</svg>
