<svg width="448" height="512" viewBox="0 0 448 512" fill="none" xmlns="http://www.w3.org/2000/svg">
<path d="M0 96C0 60.7 28.7 32 64 32H384C419.3 32 448 60.7 448 96V416C448 451.3 419.3 480 384 480H64C28.7 480 0 451.3 0 416V96ZM352 352C352 343.513 348.629 335.374 342.627 329.373C336.626 323.371 328.487 320 320 320C311.513 320 303.374 323.371 297.373 329.373C291.371 335.374 288 343.513 288 352C288 360.487 291.371 368.626 297.373 374.627C303.374 380.629 311.513 384 320 384C328.487 384 336.626 380.629 342.627 374.627C348.629 368.626 352 360.487 352 352ZM128 192C136.487 192 144.626 188.629 150.627 182.627C156.629 176.626 160 168.487 160 160C160 151.513 156.629 143.374 150.627 137.373C144.626 131.371 136.487 128 128 128C119.513 128 111.374 131.371 105.373 137.373C99.3714 143.374 96 151.513 96 160C96 168.487 99.3714 176.626 105.373 182.627C111.374 188.629 119.513 192 128 192Z" fill="black"/>
</svg>
