<svg width="448" height="512" viewBox="0 0 448 512" fill="none" xmlns="http://www.w3.org/2000/svg">
<path d="M64 32C28.7 32 0 60.7 0 96V416C0 451.3 28.7 480 64 480H384C419.3 480 448 451.3 448 416V96C448 60.7 419.3 32 384 32H64ZM224 224C232.487 224 240.626 227.371 246.627 233.373C252.629 239.374 256 247.513 256 256C256 264.487 252.629 272.626 246.627 278.627C240.626 284.629 232.487 288 224 288C215.513 288 207.374 284.629 201.373 278.627C195.371 272.626 192 264.487 192 256C192 247.513 195.371 239.374 201.373 233.373C207.374 227.371 215.513 224 224 224Z" fill="black"/>
</svg>
