<svg width="640" height="512" viewBox="0 0 640 512" fill="none" xmlns="http://www.w3.org/2000/svg">
<g clip-path="url(#clip0_3932_13878)">
<mask id="mask0_3932_13878" style="mask-type:luminance" maskUnits="userSpaceOnUse" x="0" y="0" width="640" height="512">
<path d="M640 0H0V512H640V0Z" fill="white"/>
</mask>
<g mask="url(#mask0_3932_13878)">
<mask id="mask1_3932_13878" style="mask-type:luminance" maskUnits="userSpaceOnUse" x="0" y="0" width="640" height="512">
<path d="M640 0H0V512H640V0Z" fill="white"/>
</mask>
<g mask="url(#mask1_3932_13878)">
<mask id="mask2_3932_13878" style="mask-type:luminance" maskUnits="userSpaceOnUse" x="0" y="0" width="640" height="512">
<path d="M640 0H0V512H640V0Z" fill="white"/>
</mask>
<g mask="url(#mask2_3932_13878)">
<mask id="mask3_3932_13878" style="mask-type:luminance" maskUnits="userSpaceOnUse" x="0" y="0" width="640" height="512">
<path d="M640 0H0V512H640V0Z" fill="white"/>
</mask>
<g mask="url(#mask3_3932_13878)">
<mask id="mask4_3932_13878" style="mask-type:luminance" maskUnits="userSpaceOnUse" x="0" y="0" width="640" height="512">
<path d="M640 0H0V512H640V0Z" fill="white"/>
</mask>
<g mask="url(#mask4_3932_13878)">
<mask id="mask5_3932_13878" style="mask-type:luminance" maskUnits="userSpaceOnUse" x="0" y="0" width="640" height="512">
<path d="M640 0H0V512H640V0Z" fill="white"/>
</mask>
<g mask="url(#mask5_3932_13878)">
<mask id="mask6_3932_13878" style="mask-type:luminance" maskUnits="userSpaceOnUse" x="0" y="0" width="640" height="512">
<path d="M640 0H0V512H640V0Z" fill="white"/>
</mask>
<g mask="url(#mask6_3932_13878)">
<mask id="mask7_3932_13878" style="mask-type:luminance" maskUnits="userSpaceOnUse" x="0" y="0" width="640" height="512">
<path d="M640 0H0V512H640V0Z" fill="white"/>
</mask>
<g mask="url(#mask7_3932_13878)">
<mask id="mask8_3932_13878" style="mask-type:luminance" maskUnits="userSpaceOnUse" x="0" y="0" width="640" height="512">
<path d="M640 0H0V512H640V0Z" fill="white"/>
</mask>
<g mask="url(#mask8_3932_13878)">
<mask id="mask9_3932_13878" style="mask-type:luminance" maskUnits="userSpaceOnUse" x="0" y="0" width="640" height="512">
<path d="M640 0H0V512H640V0Z" fill="white"/>
</mask>
<g mask="url(#mask9_3932_13878)">
<mask id="mask10_3932_13878" style="mask-type:luminance" maskUnits="userSpaceOnUse" x="0" y="0" width="640" height="512">
<path d="M640 0H0V512H640V0Z" fill="white"/>
</mask>
<g mask="url(#mask10_3932_13878)">
<mask id="mask11_3932_13878" style="mask-type:luminance" maskUnits="userSpaceOnUse" x="0" y="0" width="640" height="512">
<path d="M640 0H0V512H640V0Z" fill="white"/>
</mask>
<g mask="url(#mask11_3932_13878)">
<mask id="mask12_3932_13878" style="mask-type:luminance" maskUnits="userSpaceOnUse" x="0" y="0" width="640" height="512">
<path d="M640 0H0V512H640V0Z" fill="white"/>
</mask>
<g mask="url(#mask12_3932_13878)">
<mask id="mask13_3932_13878" style="mask-type:luminance" maskUnits="userSpaceOnUse" x="0" y="0" width="640" height="512">
<path d="M640 0H0V512H640V0Z" fill="white"/>
</mask>
<g mask="url(#mask13_3932_13878)">
<path d="M274.902 34.2937C246.802 6.19377 201.202 6.19377 173.102 34.2937L34.3016 173.094C6.20155 201.194 6.20155 246.794 34.3016 274.894L173.102 413.694C201.202 441.794 246.802 441.794 274.902 413.694L413.702 274.894C441.802 246.794 441.802 201.194 413.702 173.094L274.902 34.2937ZM200.002 223.994C200.002 217.628 202.53 211.524 207.031 207.023C211.532 202.522 217.636 199.994 224.002 199.994C230.367 199.994 236.471 202.522 240.972 207.023C245.473 211.524 248.002 217.628 248.002 223.994C248.002 230.359 245.473 236.463 240.972 240.964C236.471 245.465 230.367 247.994 224.002 247.994C217.636 247.994 211.532 245.465 207.031 240.964C202.53 236.463 200.002 230.359 200.002 223.994ZM96.0016 199.994C102.367 199.994 108.471 202.522 112.972 207.023C117.473 211.524 120.002 217.628 120.002 223.994C120.002 230.359 117.473 236.463 112.972 240.964C108.471 245.465 102.367 247.994 96.0016 247.994C89.6364 247.994 83.5319 245.465 79.031 240.964C74.5301 236.463 72.0016 230.359 72.0016 223.994C72.0016 217.628 74.5301 211.524 79.031 207.023C83.5319 202.522 89.6364 199.994 96.0016 199.994ZM224.002 375.994C217.636 375.994 211.532 373.465 207.031 368.964C202.53 364.463 200.002 358.359 200.002 351.994C200.002 345.628 202.53 339.524 207.031 335.023C211.532 330.522 217.636 327.994 224.002 327.994C230.367 327.994 236.471 330.522 240.972 335.023C245.473 339.524 248.002 345.628 248.002 351.994C248.002 358.359 245.473 364.463 240.972 368.964C236.471 373.465 230.367 375.994 224.002 375.994ZM352.002 199.994C358.367 199.994 364.471 202.522 368.972 207.023C373.473 211.524 376.002 217.628 376.002 223.994C376.002 230.359 373.473 236.463 368.972 240.964C364.471 245.465 358.367 247.994 352.002 247.994C345.636 247.994 339.532 245.465 335.031 240.964C330.53 236.463 328.002 230.359 328.002 223.994C328.002 217.628 330.53 211.524 335.031 207.023C339.532 202.522 345.636 199.994 352.002 199.994ZM224.002 119.994C217.636 119.994 211.532 117.465 207.031 112.964C202.53 108.463 200.002 102.359 200.002 95.9938C200.002 89.6285 202.53 83.5241 207.031 79.0232C211.532 74.5224 217.636 71.9938 224.002 71.9938C230.367 71.9938 236.471 74.5224 240.972 79.0232C245.473 83.5241 248.002 89.6285 248.002 95.9938C248.002 102.359 245.473 108.463 240.972 112.964C236.471 117.465 230.367 119.994 224.002 119.994ZM320.002 447.994C320.002 483.294 348.702 511.994 384.002 511.994H576.002C611.302 511.994 640.002 483.294 640.002 447.994V255.994C640.002 220.694 611.302 191.994 576.002 191.994H461.702C473.302 227.994 464.802 268.994 436.302 297.494L320.002 413.794V447.994ZM480.002 327.994C486.367 327.994 492.471 330.522 496.972 335.023C501.473 339.524 504.002 345.628 504.002 351.994C504.002 358.359 501.473 364.463 496.972 368.964C492.471 373.465 486.367 375.994 480.002 375.994C473.636 375.994 467.532 373.465 463.031 368.964C458.53 364.463 456.002 358.359 456.002 351.994C456.002 345.628 458.53 339.524 463.031 335.023C467.532 330.522 473.636 327.994 480.002 327.994Z" fill="black"/>
</g>
</g>
</g>
</g>
</g>
</g>
</g>
</g>
</g>
</g>
</g>
</g>
</g>
</g>
</g>
<defs>
<clipPath id="clip0_3932_13878">
<rect width="640" height="512" fill="white"/>
</clipPath>
</defs>
</svg>
