<svg width="448" height="512" viewBox="0 0 448 512" fill="none" xmlns="http://www.w3.org/2000/svg">
<g clip-path="url(#clip0_3932_13936)">
<mask id="mask0_3932_13936" style="mask-type:luminance" maskUnits="userSpaceOnUse" x="0" y="0" width="448" height="512">
<path d="M448 0H0V512H448V0Z" fill="white"/>
</mask>
<g mask="url(#mask0_3932_13936)">
<mask id="mask1_3932_13936" style="mask-type:luminance" maskUnits="userSpaceOnUse" x="0" y="0" width="448" height="512">
<path d="M448 0H0V512H448V0Z" fill="white"/>
</mask>
<g mask="url(#mask1_3932_13936)">
<mask id="mask2_3932_13936" style="mask-type:luminance" maskUnits="userSpaceOnUse" x="0" y="0" width="448" height="512">
<path d="M448 0H0V512H448V0Z" fill="white"/>
</mask>
<g mask="url(#mask2_3932_13936)">
<mask id="mask3_3932_13936" style="mask-type:luminance" maskUnits="userSpaceOnUse" x="0" y="0" width="448" height="512">
<path d="M448 0H0V512H448V0Z" fill="white"/>
</mask>
<g mask="url(#mask3_3932_13936)">
<mask id="mask4_3932_13936" style="mask-type:luminance" maskUnits="userSpaceOnUse" x="0" y="0" width="448" height="512">
<path d="M448 0H0V512H448V0Z" fill="white"/>
</mask>
<g mask="url(#mask4_3932_13936)">
<mask id="mask5_3932_13936" style="mask-type:luminance" maskUnits="userSpaceOnUse" x="0" y="0" width="448" height="512">
<path d="M448 0H0V512H448V0Z" fill="white"/>
</mask>
<g mask="url(#mask5_3932_13936)">
<mask id="mask6_3932_13936" style="mask-type:luminance" maskUnits="userSpaceOnUse" x="0" y="0" width="448" height="512">
<path d="M448 0H0V512H448V0Z" fill="white"/>
</mask>
<g mask="url(#mask6_3932_13936)">
<mask id="mask7_3932_13936" style="mask-type:luminance" maskUnits="userSpaceOnUse" x="0" y="0" width="448" height="512">
<path d="M448 0H0V512H448V0Z" fill="white"/>
</mask>
<g mask="url(#mask7_3932_13936)">
<mask id="mask8_3932_13936" style="mask-type:luminance" maskUnits="userSpaceOnUse" x="0" y="0" width="448" height="512">
<path d="M448 0H0V512H448V0Z" fill="white"/>
</mask>
<g mask="url(#mask8_3932_13936)">
<mask id="mask9_3932_13936" style="mask-type:luminance" maskUnits="userSpaceOnUse" x="0" y="0" width="448" height="512">
<path d="M448 0H0V512H448V0Z" fill="white"/>
</mask>
<g mask="url(#mask9_3932_13936)">
<mask id="mask10_3932_13936" style="mask-type:luminance" maskUnits="userSpaceOnUse" x="0" y="0" width="448" height="512">
<path d="M448 0H0V512H448V0Z" fill="white"/>
</mask>
<g mask="url(#mask10_3932_13936)">
<mask id="mask11_3932_13936" style="mask-type:luminance" maskUnits="userSpaceOnUse" x="0" y="0" width="448" height="512">
<path d="M448 0H0V512H448V0Z" fill="white"/>
</mask>
<g mask="url(#mask11_3932_13936)">
<mask id="mask12_3932_13936" style="mask-type:luminance" maskUnits="userSpaceOnUse" x="0" y="0" width="448" height="512">
<path d="M448 0H0V512H448V0Z" fill="white"/>
</mask>
<g mask="url(#mask12_3932_13936)">
<mask id="mask13_3932_13936" style="mask-type:luminance" maskUnits="userSpaceOnUse" x="0" y="0" width="448" height="512">
<path d="M448 0H0V512H448V0Z" fill="white"/>
</mask>
<g mask="url(#mask13_3932_13936)">
<path d="M201 10.2953C215.3 2.49532 232.6 2.49532 247 10.2953L422.3 105.995C427.4 108.795 430.6 114.195 430.6 119.995C430.6 125.795 427.4 131.195 422.3 133.995L231.7 237.995C226.9 240.595 221.2 240.595 216.4 237.995L25.7 133.995C20.6 131.195 17.4 125.795 17.4 119.995C17.4 114.195 20.6 108.795 25.7 105.995L201 10.2953ZM23.7 169.995L199.7 265.995C204.8 268.795 208 274.195 208 279.995V495.995C208 501.595 205 506.895 200.2 509.795C195.4 512.695 189.3 512.795 184.4 510.095L25 423.095C9.6 414.695 0 398.595 0 380.995V183.995C0 178.395 3 173.095 7.8 170.195C12.6 167.295 18.7 167.195 23.6 169.895L23.7 169.995ZM424.4 169.995C429.4 167.295 435.4 167.395 440.2 170.295C445 173.195 448 178.395 448 184.095V380.995C448 398.595 438.4 414.695 423 423.095L263.7 509.995C258.7 512.695 252.7 512.595 247.9 509.695C243.1 506.795 240.1 501.595 240.1 495.895V279.995C240.1 274.095 243.3 268.795 248.4 265.995L424.4 169.995Z" fill="black"/>
</g>
</g>
</g>
</g>
</g>
</g>
</g>
</g>
</g>
</g>
</g>
</g>
</g>
</g>
</g>
<defs>
<clipPath id="clip0_3932_13936">
<rect width="448" height="512" fill="white"/>
</clipPath>
</defs>
</svg>
