<svg width="512" height="512" viewBox="0 0 512 512" fill="none" xmlns="http://www.w3.org/2000/svg">
<path d="M87 481.802H160.7V408.202H87V481.802ZM25.4 346.602V408.202H87V346.602H25.4ZM491.6 176.902C468.6 102.702 409.2 43.602 335 20.302C164.9 -32.798 8 93.702 8 255.902H103.8C103.8 154.102 204.8 75.402 311.9 114.202C351.6 128.502 383.4 160.302 397.7 199.902C436.8 306.902 358 407.702 256.3 407.902V408.202H256V504.002C418.6 504.002 544.8 347.202 491.6 176.902ZM256.3 407.902V312.602H160.7V408.202H256V407.902H256.3Z" fill="black"/>
</svg>
