<svg width="448" height="512" viewBox="0 0 448 512" fill="none" xmlns="http://www.w3.org/2000/svg">
<path d="M272 96C272 89.6965 270.758 83.4548 268.346 77.6312C265.934 71.8076 262.398 66.5161 257.941 62.0589C253.484 57.6017 248.192 54.066 242.369 51.6538C236.545 49.2416 230.303 48 224 48C217.697 48 211.455 49.2416 205.631 51.6538C199.808 54.066 194.516 57.6017 190.059 62.0589C185.602 66.5161 182.066 71.8076 179.654 77.6312C177.242 83.4548 176 89.6965 176 96C176 102.303 177.242 108.545 179.654 114.369C182.066 120.192 185.602 125.484 190.059 129.941C194.516 134.398 199.808 137.934 205.631 140.346C211.455 142.758 217.697 144 224 144C230.303 144 236.545 142.758 242.369 140.346C248.192 137.934 253.484 134.398 257.941 129.941C262.398 125.484 265.934 120.192 268.346 114.369C270.758 108.545 272 102.303 272 96ZM272 416C272 409.697 270.758 403.455 268.346 397.631C265.934 391.808 262.398 386.516 257.941 382.059C253.484 377.602 248.192 374.066 242.369 371.654C236.545 369.242 230.303 368 224 368C217.697 368 211.455 369.242 205.631 371.654C199.808 374.066 194.516 377.602 190.059 382.059C185.602 386.516 182.066 391.808 179.654 397.631C177.242 403.455 176 409.697 176 416C176 422.303 177.242 428.545 179.654 434.369C182.066 440.192 185.602 445.484 190.059 449.941C194.516 454.398 199.808 457.934 205.631 460.346C211.455 462.758 217.697 464 224 464C230.303 464 236.545 462.758 242.369 460.346C248.192 457.934 253.484 454.398 257.941 449.941C262.398 445.484 265.934 440.192 268.346 434.369C270.758 428.545 272 422.303 272 416ZM400 288C417.7 288 432 273.7 432 256C432 238.3 417.7 224 400 224H48C30.3 224 16 238.3 16 256C16 273.7 30.3 288 48 288H400Z" fill="black"/>
</svg>
