<svg width="640" height="512" viewBox="0 0 640 512" fill="none" xmlns="http://www.w3.org/2000/svg">
<g clip-path="url(#clip0_3932_14206)">
<mask id="mask0_3932_14206" style="mask-type:luminance" maskUnits="userSpaceOnUse" x="0" y="0" width="640" height="512">
<path d="M640 0H0V512H640V0Z" fill="white"/>
</mask>
<g mask="url(#mask0_3932_14206)">
<mask id="mask1_3932_14206" style="mask-type:luminance" maskUnits="userSpaceOnUse" x="0" y="0" width="640" height="512">
<path d="M640 0H0V512H640V0Z" fill="white"/>
</mask>
<g mask="url(#mask1_3932_14206)">
<mask id="mask2_3932_14206" style="mask-type:luminance" maskUnits="userSpaceOnUse" x="0" y="0" width="640" height="512">
<path d="M640 0H0V512H640V0Z" fill="white"/>
</mask>
<g mask="url(#mask2_3932_14206)">
<mask id="mask3_3932_14206" style="mask-type:luminance" maskUnits="userSpaceOnUse" x="0" y="0" width="640" height="512">
<path d="M640 0H0V512H640V0Z" fill="white"/>
</mask>
<g mask="url(#mask3_3932_14206)">
<mask id="mask4_3932_14206" style="mask-type:luminance" maskUnits="userSpaceOnUse" x="0" y="0" width="640" height="512">
<path d="M640 0H0V512H640V0Z" fill="white"/>
</mask>
<g mask="url(#mask4_3932_14206)">
<mask id="mask5_3932_14206" style="mask-type:luminance" maskUnits="userSpaceOnUse" x="0" y="0" width="640" height="512">
<path d="M640 0H0V512H640V0Z" fill="white"/>
</mask>
<g mask="url(#mask5_3932_14206)">
<mask id="mask6_3932_14206" style="mask-type:luminance" maskUnits="userSpaceOnUse" x="0" y="0" width="640" height="512">
<path d="M640 0H0V512H640V0Z" fill="white"/>
</mask>
<g mask="url(#mask6_3932_14206)">
<mask id="mask7_3932_14206" style="mask-type:luminance" maskUnits="userSpaceOnUse" x="0" y="0" width="640" height="512">
<path d="M640 0H0V512H640V0Z" fill="white"/>
</mask>
<g mask="url(#mask7_3932_14206)">
<mask id="mask8_3932_14206" style="mask-type:luminance" maskUnits="userSpaceOnUse" x="0" y="0" width="640" height="512">
<path d="M640 0H0V512H640V0Z" fill="white"/>
</mask>
<g mask="url(#mask8_3932_14206)">
<mask id="mask9_3932_14206" style="mask-type:luminance" maskUnits="userSpaceOnUse" x="0" y="0" width="640" height="512">
<path d="M640 0H0V512H640V0Z" fill="white"/>
</mask>
<g mask="url(#mask9_3932_14206)">
<mask id="mask10_3932_14206" style="mask-type:luminance" maskUnits="userSpaceOnUse" x="0" y="0" width="640" height="512">
<path d="M640 0H0V512H640V0Z" fill="white"/>
</mask>
<g mask="url(#mask10_3932_14206)">
<mask id="mask11_3932_14206" style="mask-type:luminance" maskUnits="userSpaceOnUse" x="0" y="0" width="640" height="512">
<path d="M640 0H0V512H640V0Z" fill="white"/>
</mask>
<g mask="url(#mask11_3932_14206)">
<mask id="mask12_3932_14206" style="mask-type:luminance" maskUnits="userSpaceOnUse" x="0" y="0" width="640" height="512">
<path d="M640 0H0V512H640V0Z" fill="white"/>
</mask>
<g mask="url(#mask12_3932_14206)">
<mask id="mask13_3932_14206" style="mask-type:luminance" maskUnits="userSpaceOnUse" x="0" y="0" width="640" height="512">
<path d="M640 0H0V512H640V0Z" fill="white"/>
</mask>
<g mask="url(#mask13_3932_14206)">
<path d="M349.897 236.3H283.797V176.9H349.897V236.3ZM349.897 32H283.797V92.7H349.897V32ZM428.097 176.8H361.997V236.2H428.097V176.8ZM271.797 104.7H205.697V164.8H271.797V104.7ZM349.897 104.7H283.797V164.8H349.897V104.7ZM626.697 204.7C612.297 195 579.097 191.5 553.597 196.3C550.297 172.3 536.897 151.4 512.497 132.6L498.497 123.3L489.197 137.3C470.797 165.1 465.797 210.9 485.497 241.1C476.797 245.8 459.697 252.2 437.097 251.8H2.39671C-6.30329 302.6 8.19672 368.6 46.3967 413.9C83.4967 457.8 139.097 480.1 211.797 480.1C369.197 480.1 485.697 407.6 540.197 275.9C561.597 276.3 607.797 276 631.497 230.7C632.997 228.2 638.097 217.5 639.997 213.6L626.697 204.7ZM115.597 176.8H49.5967V236.2H115.697V176.8H115.597ZM193.697 176.8H127.597V236.2H193.697V176.8ZM271.797 176.8H205.697V236.2H271.797V176.8ZM193.697 104.7H127.597V164.8H193.697V104.7Z" fill="black"/>
</g>
</g>
</g>
</g>
</g>
</g>
</g>
</g>
</g>
</g>
</g>
</g>
</g>
</g>
</g>
<defs>
<clipPath id="clip0_3932_14206">
<rect width="640" height="512" fill="white"/>
</clipPath>
</defs>
</svg>
