<svg width="320" height="512" viewBox="0 0 320 512" fill="none" xmlns="http://www.w3.org/2000/svg">
<path d="M160.001 0C177.701 0 192.001 14.3 192.001 32V67.7C193.601 67.9 195.101 68.1 196.701 68.4C197.101 68.5 197.401 68.5 197.801 68.6L245.801 77.4C263.201 80.6 274.701 97.3 271.501 114.6C268.301 131.9 251.601 143.5 234.301 140.3L186.801 131.6C155.501 127 127.901 130.1 108.501 137.8C89.1014 145.5 81.3018 156.1 79.5014 165.9C77.5014 176.6 79.0014 182.6 80.7014 186.3C82.5014 190.2 86.2014 194.6 93.5014 199.5C109.801 210.2 134.801 217.2 167.201 225.8L170.101 226.6C198.701 234.2 233.701 243.4 259.701 260.4C273.901 269.7 287.301 282.3 295.601 299.9C304.101 317.8 305.901 337.8 302.001 359.1C295.101 397.1 268.901 422.5 236.401 435.8C222.701 441.4 207.801 445 192.001 446.8V480C192.001 497.7 177.701 512 160.001 512C142.301 512 128.001 497.7 128.001 480V445.1C127.601 445 127.101 445 126.701 444.9H126.501C102.101 441.1 62.0014 430.6 35.0014 418.6C18.9014 411.4 11.6014 392.5 18.8014 376.4C26.0014 360.3 44.9014 353 61.0014 360.2C81.9014 369.5 116.301 378.7 136.201 381.8C168.101 386.5 194.401 383.8 212.201 376.5C229.101 369.6 236.801 359.6 239.001 347.6C240.901 337 239.401 330.9 237.701 327.2C235.801 323.2 232.101 318.8 224.701 313.9C208.301 303.2 183.201 296.2 150.701 287.6L147.901 286.9C119.401 279.3 84.4014 270 58.4014 253C44.2014 243.7 30.9014 231 22.6014 213.4C14.2014 195.5 12.5014 175.5 16.5014 154.2C23.7014 116 52.3014 91.2 84.8014 78.3C98.1014 73 112.701 69.4 128.001 67.3V32C128.001 14.3 142.301 0 160.001 0Z" fill="black"/>
</svg>
