<svg width="576" height="512" viewBox="0 0 576 512" fill="none" xmlns="http://www.w3.org/2000/svg">
<g clip-path="url(#clip0_3932_14324)">
<mask id="mask0_3932_14324" style="mask-type:luminance" maskUnits="userSpaceOnUse" x="0" y="0" width="576" height="512">
<path d="M576 0H0V512H576V0Z" fill="white"/>
</mask>
<g mask="url(#mask0_3932_14324)">
<mask id="mask1_3932_14324" style="mask-type:luminance" maskUnits="userSpaceOnUse" x="0" y="0" width="576" height="512">
<path d="M576 0H0V512H576V0Z" fill="white"/>
</mask>
<g mask="url(#mask1_3932_14324)">
<mask id="mask2_3932_14324" style="mask-type:luminance" maskUnits="userSpaceOnUse" x="0" y="0" width="576" height="512">
<path d="M576 0H0V512H576V0Z" fill="white"/>
</mask>
<g mask="url(#mask2_3932_14324)">
<mask id="mask3_3932_14324" style="mask-type:luminance" maskUnits="userSpaceOnUse" x="0" y="0" width="576" height="512">
<path d="M576 0H0V512H576V0Z" fill="white"/>
</mask>
<g mask="url(#mask3_3932_14324)">
<mask id="mask4_3932_14324" style="mask-type:luminance" maskUnits="userSpaceOnUse" x="0" y="0" width="576" height="512">
<path d="M576 0H0V512H576V0Z" fill="white"/>
</mask>
<g mask="url(#mask4_3932_14324)">
<mask id="mask5_3932_14324" style="mask-type:luminance" maskUnits="userSpaceOnUse" x="0" y="0" width="576" height="512">
<path d="M576 0H0V512H576V0Z" fill="white"/>
</mask>
<g mask="url(#mask5_3932_14324)">
<mask id="mask6_3932_14324" style="mask-type:luminance" maskUnits="userSpaceOnUse" x="0" y="0" width="576" height="512">
<path d="M576 0H0V512H576V0Z" fill="white"/>
</mask>
<g mask="url(#mask6_3932_14324)">
<mask id="mask7_3932_14324" style="mask-type:luminance" maskUnits="userSpaceOnUse" x="0" y="0" width="576" height="512">
<path d="M576 0H0V512H576V0Z" fill="white"/>
</mask>
<g mask="url(#mask7_3932_14324)">
<mask id="mask8_3932_14324" style="mask-type:luminance" maskUnits="userSpaceOnUse" x="0" y="0" width="576" height="512">
<path d="M576 0H0V512H576V0Z" fill="white"/>
</mask>
<g mask="url(#mask8_3932_14324)">
<mask id="mask9_3932_14324" style="mask-type:luminance" maskUnits="userSpaceOnUse" x="0" y="0" width="576" height="512">
<path d="M576 0H0V512H576V0Z" fill="white"/>
</mask>
<g mask="url(#mask9_3932_14324)">
<mask id="mask10_3932_14324" style="mask-type:luminance" maskUnits="userSpaceOnUse" x="0" y="0" width="576" height="512">
<path d="M576 0H0V512H576V0Z" fill="white"/>
</mask>
<g mask="url(#mask10_3932_14324)">
<mask id="mask11_3932_14324" style="mask-type:luminance" maskUnits="userSpaceOnUse" x="0" y="0" width="576" height="512">
<path d="M576 0H0V512H576V0Z" fill="white"/>
</mask>
<g mask="url(#mask11_3932_14324)">
<mask id="mask12_3932_14324" style="mask-type:luminance" maskUnits="userSpaceOnUse" x="0" y="0" width="576" height="512">
<path d="M576 0H0V512H576V0Z" fill="white"/>
</mask>
<g mask="url(#mask12_3932_14324)">
<mask id="mask13_3932_14324" style="mask-type:luminance" maskUnits="userSpaceOnUse" x="0" y="0" width="576" height="512">
<path d="M576 0H0V512H576V0Z" fill="white"/>
</mask>
<g mask="url(#mask13_3932_14324)">
<path d="M0 32C0 14.3 14.3 0 32 0H104.9C132.4 0 156.9 17.6 165.6 43.8L257.7 320C287.8 320.5 314.5 334.9 331.7 357L533.8 289.6C550.6 284 568.7 293.1 574.3 309.8C579.9 326.5 570.8 344.7 554.1 350.3L352 417.7C351.1 469.9 308.5 512 256 512C203 512 160 469 160 416C160 385.2 174.5 357.8 197 340.2L104.9 64H32C14.3 64 0 49.7 0 32ZM244.8 134.5C239.3 117.7 248.5 99.6 265.3 94.2L311 79.4L330.8 140.3L391.7 120.5L371.8 59.6L417.5 44.8C434.3 39.3 452.4 48.5 457.8 65.3L507.2 217.5C512.7 234.3 503.5 252.4 486.7 257.8L334.5 307.2C317.7 312.7 299.6 303.5 294.2 286.7L244.8 134.5Z" fill="black"/>
</g>
</g>
</g>
</g>
</g>
</g>
</g>
</g>
</g>
</g>
</g>
</g>
</g>
</g>
</g>
<defs>
<clipPath id="clip0_3932_14324">
<rect width="576" height="512" fill="white"/>
</clipPath>
</defs>
</svg>
