<svg width="384" height="512" viewBox="0 0 384 512" fill="none" xmlns="http://www.w3.org/2000/svg">
<path d="M288 32C270.3 32 256 46.3 256 64H224C206.3 64 192 78.3 192 96C192 113.7 206.3 128 224 128H256V177.1C237.2 166.2 215.3 160 192 160C121.3 160 64 217.3 64 288C64 358.7 121.3 416 192 416C216.5 416 239.4 409.1 258.8 397.2C263.8 408.3 275 416 288 416C305.7 416 320 401.7 320 384V288V128C337.7 128 352 113.7 352 96C352 78.3 337.7 64 320 64C320 46.3 305.7 32 288 32ZM128 288C128 271.026 134.743 254.747 146.745 242.745C158.747 230.743 175.026 224 192 224C208.974 224 225.253 230.743 237.255 242.745C249.257 254.747 256 271.026 256 288C256 304.974 249.257 321.253 237.255 333.255C225.253 345.257 208.974 352 192 352C175.026 352 158.747 345.257 146.745 333.255C134.743 321.253 128 304.974 128 288ZM32 448C14.3 448 0 462.3 0 480C0 497.7 14.3 512 32 512H352C369.7 512 384 497.7 384 480C384 462.3 369.7 448 352 448H32Z" fill="black"/>
</svg>
