<svg width="448" height="512" viewBox="0 0 448 512" fill="none" xmlns="http://www.w3.org/2000/svg">
<path d="M96 151.4V360.6C105.7 366.2 113.8 374.3 119.4 384H328.6C328.6 383.9 328.7 383.8 328.7 383.7L324.2 375.8L292.2 319.8C290.8 319.9 289.4 319.9 288 319.9C252.7 319.9 224 291.2 224 255.9C224 220.6 252.7 191.9 288 191.9C289.4 191.9 290.8 191.9 292.2 192L324.2 136L328.7 128.1L328.6 127.8H119.4C113.8 137.5 105.7 145.6 96 151.2V151.4ZM384.3 352C419.5 352.2 448 380.7 448 416C448 451.3 419.3 480 384 480C360.3 480 339.6 467.1 328.6 448H119.4C108.3 467.1 87.7 480 64 480C28.7 480 0 451.3 0 416C0 392.3 12.9 371.6 32 360.6V151.4C12.9 140.4 0 119.7 0 96C0 60.7 28.7 32 64 32C87.7 32 108.4 44.9 119.4 64H328.6C339.7 44.9 360.3 32 384 32C419.3 32 448 60.7 448 96C448 131.3 419.5 159.8 384.3 160L379.8 167.9L347.8 223.9L345.5 227.9C349.7 236.4 352 245.9 352 256C352 266.1 349.7 275.6 345.5 284.1L347.8 288.1L379.8 344.1L384.3 352Z" fill="black"/>
</svg>
