<svg width="448" height="512" viewBox="0 0 448 512" fill="none" xmlns="http://www.w3.org/2000/svg">
<path d="M303.976 108.136C268.203 72.459 234.19 38.35 224.05 0C214.093 38.35 179.8 72.459 144.031 108.136C90.4699 161.7 29.7189 222.356 29.7189 313.436C27.3819 420.736 112.471 509.616 219.772 511.953C327.073 514.29 415.951 429.2 418.288 321.9C418.349 319.079 418.349 316.258 418.288 313.436C418.288 222.356 357.537 161.7 303.976 108.136ZM129.65 331.136C123.71 338.606 118.609 346.705 114.439 355.289C114.129 355.97 113.67 356.572 113.095 357.051C112.521 357.53 111.845 357.873 111.12 358.055H109.461C105.128 358.055 100.242 349.574 100.242 349.574C98.9519 347.546 97.7529 345.425 96.5549 343.213L95.7249 341.461C84.4779 315.741 94.2499 279.143 94.2499 279.143C99.0668 261.306 106.926 244.434 117.481 229.27C123.931 219.64 130.951 210.405 138.503 201.613L147.722 210.832L191.234 255.266C192.05 256.179 192.502 257.36 192.502 258.585C192.502 259.81 192.05 260.991 191.234 261.904L145.783 312.33L129.65 331.136ZM226.262 458.447C213.332 458.374 200.697 454.571 189.874 447.496C179.051 440.421 170.499 430.374 165.244 418.559C159.989 406.745 158.254 393.665 160.247 380.89C162.24 368.114 167.877 356.184 176.481 346.532C190.681 329.661 208.009 313.068 226.815 291.219C249.124 315.004 263.69 331.319 277.979 349.205C279.099 350.585 280.086 352.066 280.929 353.63C288.745 364.751 292.931 378.018 292.913 391.611C292.937 400.364 291.237 409.036 287.91 417.131C284.583 425.227 279.694 432.588 273.522 438.795C267.35 445.001 260.016 449.931 251.939 453.303C243.862 456.675 235.2 458.423 226.447 458.447H226.262ZM352.374 351.6C351.945 352.978 351.14 354.209 350.048 355.154C348.957 356.099 347.624 356.72 346.198 356.947H344.903C342.259 356.09 340.025 354.284 338.634 351.877C326.985 334.403 313.779 318.019 299.178 302.925L281.39 284.49L222.303 223.185C209.894 211.687 198.078 199.564 186.903 186.863C186.628 186.382 186.32 185.92 185.981 185.481C183.971 182.655 182.388 179.549 181.281 176.262V174.51C180.462 169.498 180.874 164.363 182.479 159.545C184.085 154.728 186.837 150.372 190.499 146.854C201.931 135.423 213.454 123.9 224.332 111.915C236.316 125.19 249.132 137.915 261.76 150.542C287.525 174.536 310.84 201.033 331.36 229.642C348.685 254.174 358.109 283.41 358.371 313.442C358.224 326.384 356.204 339.237 352.374 351.6Z" fill="black"/>
</svg>
