<svg width="640" height="512" viewBox="0 0 640 512" fill="none" xmlns="http://www.w3.org/2000/svg">
<path d="M96 64C96 46.3 110.3 32 128 32H160C177.7 32 192 46.3 192 64V224V288V448C192 465.7 177.7 480 160 480H128C110.3 480 96 465.7 96 448V384H64C46.3 384 32 369.7 32 352V288C14.3 288 0 273.7 0 256C0 238.3 14.3 224 32 224V160C32 142.3 46.3 128 64 128H96V64ZM544 64V128H576C593.7 128 608 142.3 608 160V224C625.7 224 640 238.3 640 256C640 273.7 625.7 288 608 288V352C608 369.7 593.7 384 576 384H544V448C544 465.7 529.7 480 512 480H480C462.3 480 448 465.7 448 448V288V224V64C448 46.3 462.3 32 480 32H512C529.7 32 544 46.3 544 64ZM416 224V288H224V224H416Z" fill="black"/>
</svg>
