<svg width="512" height="512" viewBox="0 0 512 512" fill="none" xmlns="http://www.w3.org/2000/svg">
<g clip-path="url(#clip0_3932_15104)">
<mask id="mask0_3932_15104" style="mask-type:luminance" maskUnits="userSpaceOnUse" x="0" y="0" width="512" height="512">
<path d="M512 0H0V512H512V0Z" fill="white"/>
</mask>
<g mask="url(#mask0_3932_15104)">
<mask id="mask1_3932_15104" style="mask-type:luminance" maskUnits="userSpaceOnUse" x="0" y="0" width="512" height="512">
<path d="M512 0H0V512H512V0Z" fill="white"/>
</mask>
<g mask="url(#mask1_3932_15104)">
<mask id="mask2_3932_15104" style="mask-type:luminance" maskUnits="userSpaceOnUse" x="0" y="0" width="512" height="512">
<path d="M512 0H0V512H512V0Z" fill="white"/>
</mask>
<g mask="url(#mask2_3932_15104)">
<mask id="mask3_3932_15104" style="mask-type:luminance" maskUnits="userSpaceOnUse" x="0" y="0" width="512" height="512">
<path d="M512 0H0V512H512V0Z" fill="white"/>
</mask>
<g mask="url(#mask3_3932_15104)">
<mask id="mask4_3932_15104" style="mask-type:luminance" maskUnits="userSpaceOnUse" x="0" y="0" width="512" height="512">
<path d="M512 0H0V512H512V0Z" fill="white"/>
</mask>
<g mask="url(#mask4_3932_15104)">
<mask id="mask5_3932_15104" style="mask-type:luminance" maskUnits="userSpaceOnUse" x="0" y="0" width="512" height="512">
<path d="M512 0H0V512H512V0Z" fill="white"/>
</mask>
<g mask="url(#mask5_3932_15104)">
<mask id="mask6_3932_15104" style="mask-type:luminance" maskUnits="userSpaceOnUse" x="0" y="0" width="512" height="512">
<path d="M512 0H0V512H512V0Z" fill="white"/>
</mask>
<g mask="url(#mask6_3932_15104)">
<mask id="mask7_3932_15104" style="mask-type:luminance" maskUnits="userSpaceOnUse" x="0" y="0" width="512" height="512">
<path d="M512 0H0V512H512V0Z" fill="white"/>
</mask>
<g mask="url(#mask7_3932_15104)">
<mask id="mask8_3932_15104" style="mask-type:luminance" maskUnits="userSpaceOnUse" x="0" y="0" width="512" height="512">
<path d="M512 0H0V512H512V0Z" fill="white"/>
</mask>
<g mask="url(#mask8_3932_15104)">
<mask id="mask9_3932_15104" style="mask-type:luminance" maskUnits="userSpaceOnUse" x="0" y="0" width="512" height="512">
<path d="M512 0H0V512H512V0Z" fill="white"/>
</mask>
<g mask="url(#mask9_3932_15104)">
<mask id="mask10_3932_15104" style="mask-type:luminance" maskUnits="userSpaceOnUse" x="0" y="0" width="512" height="512">
<path d="M512 0H0V512H512V0Z" fill="white"/>
</mask>
<g mask="url(#mask10_3932_15104)">
<mask id="mask11_3932_15104" style="mask-type:luminance" maskUnits="userSpaceOnUse" x="0" y="0" width="512" height="512">
<path d="M512 0H0V512H512V0Z" fill="white"/>
</mask>
<g mask="url(#mask11_3932_15104)">
<mask id="mask12_3932_15104" style="mask-type:luminance" maskUnits="userSpaceOnUse" x="0" y="0" width="512" height="512">
<path d="M512 0H0V512H512V0Z" fill="white"/>
</mask>
<g mask="url(#mask12_3932_15104)">
<mask id="mask13_3932_15104" style="mask-type:luminance" maskUnits="userSpaceOnUse" x="0" y="0" width="512" height="512">
<path d="M512 0H0V512H512V0Z" fill="white"/>
</mask>
<g mask="url(#mask13_3932_15104)">
<path d="M398.3 3.40026C382.5 -4.49974 363.3 1.90026 355.4 17.7003C347.5 33.5003 353.9 52.6003 369.6 60.6003L370 60.8003C370.4 61.0003 371.1 61.4003 372.1 62.0003C374.1 63.2003 377.1 65.0003 380.8 67.6003C388.3 72.8003 398.4 80.8003 408.5 91.8003C428.5 113.4 448 146 448 192C448 209.7 462.3 224 480 224C497.7 224 512 209.7 512 192C512 126 483.5 78.6003 455.5 48.3003C441.6 33.2003 427.7 22.2003 417.3 15.0003C412 11.3003 407.6 8.60026 404.3 6.70026C402.7 5.70026 401.3 5.00026 400.3 4.50026C399.8 4.20026 399.4 4.00026 399.1 3.80026L398.7 3.60026L398.5 3.50026H398.4C398.4 3.50026 398.4 3.50026 384.1 32.1003L398.3 3.40026ZM128.7 227.5C134.9 171.5 182.4 128 240 128C301.9 128 352 178.1 352 240C352 269.3 340.8 295.9 322.4 315.9C305.4 334.3 288 361 288 393.9V400C288 426.5 266.5 448 240 448C222.3 448 208 462.3 208 480C208 497.7 222.3 512 240 512C301.9 512 352 461.9 352 400V393.9C352 384.1 357.4 372.2 369.4 359.2C398.3 327.9 416 286 416 240C416 142.8 337.2 64.0003 240 64.0003C149.4 64.0003 74.8 132.5 65.1 220.5C63.2 238.1 75.8 253.9 93.4 255.8C111 257.7 126.8 245.1 128.7 227.5ZM32 512C40.4869 512 48.6263 508.629 54.6274 502.628C60.6286 496.627 64 488.487 64 480C64 471.513 60.6286 463.374 54.6274 457.373C48.6263 451.372 40.4869 448 32 448C23.5131 448 15.3737 451.372 9.37258 457.373C3.37142 463.374 0 471.513 0 480C0 488.487 3.37142 496.627 9.37258 502.628C15.3737 508.629 23.5131 512 32 512ZM192 352C192 343.513 188.629 335.374 182.627 329.373C176.626 323.372 168.487 320 160 320C151.513 320 143.374 323.372 137.373 329.373C131.371 335.374 128 343.513 128 352C128 360.487 131.371 368.627 137.373 374.628C143.374 380.629 151.513 384 160 384C168.487 384 176.626 380.629 182.627 374.628C188.629 368.627 192 360.487 192 352ZM41.4 361.4C28.9 373.9 28.9 394.2 41.4 406.7L105.4 470.7C117.9 483.2 138.2 483.2 150.7 470.7C163.2 458.2 163.2 437.9 150.7 425.4L86.7 361.4C74.2 348.9 53.9 348.9 41.4 361.4ZM208 240C208 222.3 222.3 208 240 208C257.7 208 272 222.3 272 240C272 253.3 282.7 264 296 264C309.3 264 320 253.3 320 240C320 195.8 284.2 160 240 160C195.8 160 160 195.8 160 240C160 253.3 170.7 264 184 264C197.3 264 208 253.3 208 240Z" fill="black"/>
</g>
</g>
</g>
</g>
</g>
</g>
</g>
</g>
</g>
</g>
</g>
</g>
</g>
</g>
</g>
<defs>
<clipPath id="clip0_3932_15104">
<rect width="512" height="512" fill="white"/>
</clipPath>
</defs>
</svg>
