<svg width="512" height="512" viewBox="0 0 512 512" fill="none" xmlns="http://www.w3.org/2000/svg">
<g clip-path="url(#clip0_3932_15394)">
<mask id="mask0_3932_15394" style="mask-type:luminance" maskUnits="userSpaceOnUse" x="0" y="0" width="512" height="512">
<path d="M512 0H0V512H512V0Z" fill="white"/>
</mask>
<g mask="url(#mask0_3932_15394)">
<mask id="mask1_3932_15394" style="mask-type:luminance" maskUnits="userSpaceOnUse" x="0" y="0" width="512" height="512">
<path d="M512 0H0V512H512V0Z" fill="white"/>
</mask>
<g mask="url(#mask1_3932_15394)">
<mask id="mask2_3932_15394" style="mask-type:luminance" maskUnits="userSpaceOnUse" x="0" y="0" width="512" height="512">
<path d="M512 0H0V512H512V0Z" fill="white"/>
</mask>
<g mask="url(#mask2_3932_15394)">
<mask id="mask3_3932_15394" style="mask-type:luminance" maskUnits="userSpaceOnUse" x="0" y="0" width="512" height="512">
<path d="M512 0H0V512H512V0Z" fill="white"/>
</mask>
<g mask="url(#mask3_3932_15394)">
<mask id="mask4_3932_15394" style="mask-type:luminance" maskUnits="userSpaceOnUse" x="0" y="0" width="512" height="512">
<path d="M512 0H0V512H512V0Z" fill="white"/>
</mask>
<g mask="url(#mask4_3932_15394)">
<mask id="mask5_3932_15394" style="mask-type:luminance" maskUnits="userSpaceOnUse" x="0" y="0" width="512" height="512">
<path d="M512 0H0V512H512V0Z" fill="white"/>
</mask>
<g mask="url(#mask5_3932_15394)">
<mask id="mask6_3932_15394" style="mask-type:luminance" maskUnits="userSpaceOnUse" x="0" y="0" width="512" height="512">
<path d="M512 0H0V512H512V0Z" fill="white"/>
</mask>
<g mask="url(#mask6_3932_15394)">
<mask id="mask7_3932_15394" style="mask-type:luminance" maskUnits="userSpaceOnUse" x="0" y="0" width="512" height="512">
<path d="M512 0H0V512H512V0Z" fill="white"/>
</mask>
<g mask="url(#mask7_3932_15394)">
<mask id="mask8_3932_15394" style="mask-type:luminance" maskUnits="userSpaceOnUse" x="0" y="0" width="512" height="512">
<path d="M512 0H0V512H512V0Z" fill="white"/>
</mask>
<g mask="url(#mask8_3932_15394)">
<mask id="mask9_3932_15394" style="mask-type:luminance" maskUnits="userSpaceOnUse" x="0" y="0" width="512" height="512">
<path d="M512 0H0V512H512V0Z" fill="white"/>
</mask>
<g mask="url(#mask9_3932_15394)">
<mask id="mask10_3932_15394" style="mask-type:luminance" maskUnits="userSpaceOnUse" x="0" y="0" width="512" height="512">
<path d="M512 0H0V512H512V0Z" fill="white"/>
</mask>
<g mask="url(#mask10_3932_15394)">
<mask id="mask11_3932_15394" style="mask-type:luminance" maskUnits="userSpaceOnUse" x="0" y="0" width="512" height="512">
<path d="M512 0H0V512H512V0Z" fill="white"/>
</mask>
<g mask="url(#mask11_3932_15394)">
<mask id="mask12_3932_15394" style="mask-type:luminance" maskUnits="userSpaceOnUse" x="0" y="0" width="512" height="512">
<path d="M512 0H0V512H512V0Z" fill="white"/>
</mask>
<g mask="url(#mask12_3932_15394)">
<mask id="mask13_3932_15394" style="mask-type:luminance" maskUnits="userSpaceOnUse" x="0" y="0" width="512" height="512">
<path d="M512 0H0V512H512V0Z" fill="white"/>
</mask>
<g mask="url(#mask13_3932_15394)">
<path d="M266.3 48.3L232.5 73.6C227.1 77.6 224 84 224 90.7V99.8C224 106.6 229.5 112.1 236.3 112.1C238.7 112.1 241.1 111.4 243.1 110L284.9 82.1C286.9 80.8 289.3 80 291.7 80H292.7C298.9 80 304 85.1 304 91.3C304 94.3 302.8 97.2 300.7 99.3L280.8 119.2C275 125 267.9 129.4 260.1 132L233.6 140.8C227.8 142.7 224 148.1 224 154.2C224 157.9 222.5 161.5 219.9 164.2L202 182.1C195.6 188.5 192.1 197.1 192.1 206.1V210.4C192.1 226.8 205.7 240.1 222 240.1C233 240.1 243.2 233.9 248.1 224.1L252.1 216C254.5 211.2 259.5 208.1 264.9 208.1C269.4 208.1 273.6 210.2 276.3 213.8L292.6 235.5C294.7 238.4 298.1 240 301.7 240C310.1 240 315.6 231.1 311.8 223.6L310.7 221.3C307.2 214.3 310.7 205.8 318.2 203.3L339.4 196.2C347 193.7 352.1 186.6 352.1 178.6C352.1 168.3 360.4 160 370.7 160H400C408.8 160 416 167.2 416 176C416 184.8 408.8 192 400 192H379.3C372.1 192 365.1 194.9 360 200L355.3 204.7C353.2 206.8 352 209.7 352 212.7C352 218.9 357.1 224 363.3 224H374.6C380.6 224 386.4 226.4 390.6 230.6L397.1 237.1C398.9 238.9 399.9 241.4 399.9 243.9C399.9 246.4 398.9 248.9 397.1 250.7L389.6 258.2C386 262 384 266.9 384 272C384 277.1 386 282 389.7 285.7L408 304C418.2 314.2 432.1 320 446.6 320H454C460.5 299.8 464 278.3 464 256C464 144.6 376.4 53.6 266.3 48.3ZM438.3 356.2C434.6 353.6 430.1 352.1 425.3 352.1C419.3 352.1 413.5 349.7 409.3 345.5L396 332C388.3 324.3 378 320 367.1 320C357.4 320 347.9 316.5 340.5 310.2L314 287.4C302.4 277.5 287.6 272 272.3 272H251.4C238.8 272 226.4 275.7 215.9 282.7L188.5 301C170.7 312.9 160 332.9 160 354.3V357.5C160 374.5 166.7 390.8 178.7 402.8L194.7 418.8C203.2 427.3 214.7 432.1 226.7 432.1H248C261.3 432.1 272 442.8 272 456.1C272 458.6 272.4 461.1 273.1 463.4C344.4 457.6 405.6 415.8 438.3 356.2ZM0 256C0 188.105 26.9714 122.99 74.9807 74.9807C122.99 26.9714 188.105 0 256 0C323.895 0 389.01 26.9714 437.019 74.9807C485.029 122.99 512 188.105 512 256C512 323.895 485.029 389.01 437.019 437.019C389.01 485.029 323.895 512 256 512C188.105 512 122.99 485.029 74.9807 437.019C26.9714 389.01 0 323.895 0 256ZM187.3 100.7C181.1 94.5 170.9 94.5 164.7 100.7L132.7 132.7C126.5 138.9 126.5 149.1 132.7 155.3C138.9 161.5 149.1 161.5 155.3 155.3L187.3 123.3C193.5 117.1 193.5 106.9 187.3 100.7Z" fill="black"/>
</g>
</g>
</g>
</g>
</g>
</g>
</g>
</g>
</g>
</g>
</g>
</g>
</g>
</g>
</g>
<defs>
<clipPath id="clip0_3932_15394">
<rect width="512" height="512" fill="white"/>
</clipPath>
</defs>
</svg>
