<svg width="640" height="512" viewBox="0 0 640 512" fill="none" xmlns="http://www.w3.org/2000/svg">
<g clip-path="url(#clip0_3932_15510)">
<mask id="mask0_3932_15510" style="mask-type:luminance" maskUnits="userSpaceOnUse" x="0" y="0" width="640" height="512">
<path d="M640 0H0V512H640V0Z" fill="white"/>
</mask>
<g mask="url(#mask0_3932_15510)">
<mask id="mask1_3932_15510" style="mask-type:luminance" maskUnits="userSpaceOnUse" x="0" y="0" width="640" height="512">
<path d="M640 0H0V512H640V0Z" fill="white"/>
</mask>
<g mask="url(#mask1_3932_15510)">
<mask id="mask2_3932_15510" style="mask-type:luminance" maskUnits="userSpaceOnUse" x="0" y="0" width="640" height="512">
<path d="M640 0H0V512H640V0Z" fill="white"/>
</mask>
<g mask="url(#mask2_3932_15510)">
<mask id="mask3_3932_15510" style="mask-type:luminance" maskUnits="userSpaceOnUse" x="0" y="0" width="640" height="512">
<path d="M640 0H0V512H640V0Z" fill="white"/>
</mask>
<g mask="url(#mask3_3932_15510)">
<mask id="mask4_3932_15510" style="mask-type:luminance" maskUnits="userSpaceOnUse" x="0" y="0" width="640" height="512">
<path d="M640 0H0V512H640V0Z" fill="white"/>
</mask>
<g mask="url(#mask4_3932_15510)">
<mask id="mask5_3932_15510" style="mask-type:luminance" maskUnits="userSpaceOnUse" x="0" y="0" width="640" height="512">
<path d="M640 0H0V512H640V0Z" fill="white"/>
</mask>
<g mask="url(#mask5_3932_15510)">
<mask id="mask6_3932_15510" style="mask-type:luminance" maskUnits="userSpaceOnUse" x="0" y="0" width="640" height="512">
<path d="M640 0H0V512H640V0Z" fill="white"/>
</mask>
<g mask="url(#mask6_3932_15510)">
<mask id="mask7_3932_15510" style="mask-type:luminance" maskUnits="userSpaceOnUse" x="0" y="0" width="640" height="512">
<path d="M640 0H0V512H640V0Z" fill="white"/>
</mask>
<g mask="url(#mask7_3932_15510)">
<mask id="mask8_3932_15510" style="mask-type:luminance" maskUnits="userSpaceOnUse" x="0" y="0" width="640" height="512">
<path d="M640 0H0V512H640V0Z" fill="white"/>
</mask>
<g mask="url(#mask8_3932_15510)">
<mask id="mask9_3932_15510" style="mask-type:luminance" maskUnits="userSpaceOnUse" x="0" y="0" width="640" height="512">
<path d="M640 0H0V512H640V0Z" fill="white"/>
</mask>
<g mask="url(#mask9_3932_15510)">
<mask id="mask10_3932_15510" style="mask-type:luminance" maskUnits="userSpaceOnUse" x="0" y="0" width="640" height="512">
<path d="M640 0H0V512H640V0Z" fill="white"/>
</mask>
<g mask="url(#mask10_3932_15510)">
<mask id="mask11_3932_15510" style="mask-type:luminance" maskUnits="userSpaceOnUse" x="0" y="0" width="640" height="512">
<path d="M640 0H0V512H640V0Z" fill="white"/>
</mask>
<g mask="url(#mask11_3932_15510)">
<mask id="mask12_3932_15510" style="mask-type:luminance" maskUnits="userSpaceOnUse" x="0" y="0" width="640" height="512">
<path d="M640 0H0V512H640V0Z" fill="white"/>
</mask>
<g mask="url(#mask12_3932_15510)">
<mask id="mask13_3932_15510" style="mask-type:luminance" maskUnits="userSpaceOnUse" x="0" y="0" width="640" height="512">
<path d="M640 0H0V512H640V0Z" fill="white"/>
</mask>
<g mask="url(#mask13_3932_15510)">
<path d="M606.002 189.505L551.202 299.405L496.302 189.505H458.802L469.702 210.105C458.202 191.105 433.802 184.105 406.402 184.105C374.602 184.105 338.502 192.805 334.902 227.205H368.602C370.002 213.405 384.302 205.405 403.602 205.405C429.602 205.405 444.602 215.005 444.602 238.405V241.805C431.902 241.805 416.602 241.905 402.902 242.205C360.502 243.105 333.302 252.205 326.202 276.605C327.202 271.405 327.702 266.005 327.702 260.405C327.702 208.305 288.002 184.205 252.302 184.205C231.002 184.205 209.302 189.705 193.602 208.405V127.805H161.502V297.305C161.502 307.605 160.902 320.205 160.402 330.405H191.902C192.602 324.105 193.002 317.505 193.002 310.905C206.602 327.505 228.402 335.805 251.702 335.805C288.602 335.805 316.602 313.905 325.002 281.605C324.502 284.405 324.302 287.405 324.302 290.605C324.302 314.705 345.402 335.605 384.902 335.605C411.502 335.605 430.702 329.905 446.802 310.105C446.802 316.705 447.102 323.405 447.902 330.305H477.702C477.002 322.105 476.702 312.805 476.702 303.505V237.905C476.702 228.605 475.002 220.705 471.902 214.105L533.402 330.205L504.902 384.305H540.802L640.002 189.505H606.002ZM243.702 313.805C214.102 313.805 193.502 292.305 193.502 260.005C193.502 227.605 214.102 206.205 243.702 206.205C273.502 206.205 293.902 227.605 293.902 260.005C293.902 292.305 273.502 313.805 243.702 313.805ZM444.602 266.505C444.602 296.505 426.702 314.905 393.002 314.905C367.902 314.905 358.002 301.505 358.002 289.105C358.002 270.005 376.102 264.705 405.202 263.805C418.302 263.305 432.802 263.205 444.602 263.205V266.505ZM32.7016 268.105H161.502V259.605C161.502 207.905 128.402 184.205 83.1016 184.205C26.3016 184.205 0.101562 215.005 0.101562 261.805C0.101562 304.305 25.4016 335.805 82.6016 335.805C114.002 335.805 150.602 324.105 157.002 289.705H123.902C111.902 325.505 36.2016 326.405 32.7016 268.105ZM127.702 246.705H33.3016C40.2016 190.105 125.402 192.005 127.702 246.705Z" fill="black"/>
</g>
</g>
</g>
</g>
</g>
</g>
</g>
</g>
</g>
</g>
</g>
</g>
</g>
</g>
</g>
<defs>
<clipPath id="clip0_3932_15510">
<rect width="640" height="512" fill="white"/>
</clipPath>
</defs>
</svg>
