<svg width="448" height="512" viewBox="0 0 448 512" fill="none" xmlns="http://www.w3.org/2000/svg">
<path d="M8 256C8 241.148 13.9 226.904 24.402 216.402C34.9041 205.9 49.1479 200 64 200C78.8521 200 93.0959 205.9 103.598 216.402C114.1 226.904 120 241.148 120 256C120 270.852 114.1 285.096 103.598 295.598C93.0959 306.1 78.8521 312 64 312C49.1479 312 34.9041 306.1 24.402 295.598C13.9 285.096 8 270.852 8 256ZM168 256C168 241.148 173.9 226.904 184.402 216.402C194.904 205.9 209.148 200 224 200C238.852 200 253.096 205.9 263.598 216.402C274.1 226.904 280 241.148 280 256C280 270.852 274.1 285.096 263.598 295.598C253.096 306.1 238.852 312 224 312C209.148 312 194.904 306.1 184.402 295.598C173.9 285.096 168 270.852 168 256ZM384 200C398.852 200 413.096 205.9 423.598 216.402C434.1 226.904 440 241.148 440 256C440 270.852 434.1 285.096 423.598 295.598C413.096 306.1 398.852 312 384 312C369.148 312 354.904 306.1 344.402 295.598C333.9 285.096 328 270.852 328 256C328 241.148 333.9 226.904 344.402 216.402C354.904 205.9 369.148 200 384 200Z" fill="black"/>
</svg>
