<svg width="640" height="512" viewBox="0 0 640 512" fill="none" xmlns="http://www.w3.org/2000/svg">
<path d="M87.2 53.5H0V458.5H100.4C50.7 405.9 21.6 333.2 21.7 246.4C21.6 169.7 45.7 103.7 87.2 53.5ZM325.4 63.2C279.5 63.3 240.3 96.7 236.2 146.4H406.1C405 96.7 371.6 63.3 325.4 63.2ZM556.1 53.6H556.4L556.3 53.5L556.1 53.6ZM556.4 53.6C587.8 96.3 605.1 151.1 602.6 216.3C603.1 222.3 603.1 228 602.6 240.4H230.2C230 350.1 269.1 435.3 368.8 435.7C437.3 435.4 486.8 384.7 520.7 329.6L617.1 377.8C599.7 408.7 580.6 435.6 559.2 458.6H640V53.6H556.4Z" fill="black"/>
</svg>
