<svg width="384" height="512" viewBox="0 0 384 512" fill="none" xmlns="http://www.w3.org/2000/svg">
<path d="M384 348C382.25 358.75 370.25 458 368.5 480C250.621 475.701 148.605 475.257 0 480V454.5C45.457 445.552 60.627 446.481 61 419.25C62.793 346.928 64.524 175.107 61 97.25C59.971 68.79 48.87 70.485 0 61.25V35.75C73.886 38.108 255.933 44.301 362.999 32C359.499 70.25 355.249 158.5 355.249 158.5H332C320.947 115.665 313.241 68 277.25 68H140.25C130 68 129.5 71.5 129.5 77.75V241.5C187.5 242 218 239 218 239C247.77 238.049 245.56 230.498 258.75 173.749H284.5C280.093 275.1 280.59 235.578 282.75 333.999H257C247.845 293.913 247.935 272.954 217.499 272.499C217.499 272.499 195.999 270.499 129.499 270.499V409.499C129.499 435.499 143.749 447.749 173.749 447.749H263C326.636 447.749 329.564 422.753 361.751 347.999H384V348Z" fill="black"/>
</svg>
