<svg width="512" height="512" viewBox="0 0 512 512" fill="none" xmlns="http://www.w3.org/2000/svg">
<g clip-path="url(#clip0_3932_16241)">
<mask id="mask0_3932_16241" style="mask-type:luminance" maskUnits="userSpaceOnUse" x="0" y="0" width="512" height="512">
<path d="M512 0H0V512H512V0Z" fill="white"/>
</mask>
<g mask="url(#mask0_3932_16241)">
<mask id="mask1_3932_16241" style="mask-type:luminance" maskUnits="userSpaceOnUse" x="0" y="0" width="512" height="512">
<path d="M512 0H0V512H512V0Z" fill="white"/>
</mask>
<g mask="url(#mask1_3932_16241)">
<mask id="mask2_3932_16241" style="mask-type:luminance" maskUnits="userSpaceOnUse" x="0" y="0" width="512" height="512">
<path d="M512 0H0V512H512V0Z" fill="white"/>
</mask>
<g mask="url(#mask2_3932_16241)">
<mask id="mask3_3932_16241" style="mask-type:luminance" maskUnits="userSpaceOnUse" x="0" y="0" width="512" height="512">
<path d="M512 0H0V512H512V0Z" fill="white"/>
</mask>
<g mask="url(#mask3_3932_16241)">
<mask id="mask4_3932_16241" style="mask-type:luminance" maskUnits="userSpaceOnUse" x="0" y="0" width="512" height="512">
<path d="M512 0H0V512H512V0Z" fill="white"/>
</mask>
<g mask="url(#mask4_3932_16241)">
<mask id="mask5_3932_16241" style="mask-type:luminance" maskUnits="userSpaceOnUse" x="0" y="0" width="512" height="512">
<path d="M512 0H0V512H512V0Z" fill="white"/>
</mask>
<g mask="url(#mask5_3932_16241)">
<mask id="mask6_3932_16241" style="mask-type:luminance" maskUnits="userSpaceOnUse" x="0" y="0" width="512" height="512">
<path d="M512 0H0V512H512V0Z" fill="white"/>
</mask>
<g mask="url(#mask6_3932_16241)">
<mask id="mask7_3932_16241" style="mask-type:luminance" maskUnits="userSpaceOnUse" x="0" y="0" width="512" height="512">
<path d="M512 0H0V512H512V0Z" fill="white"/>
</mask>
<g mask="url(#mask7_3932_16241)">
<mask id="mask8_3932_16241" style="mask-type:luminance" maskUnits="userSpaceOnUse" x="0" y="0" width="512" height="512">
<path d="M512 0H0V512H512V0Z" fill="white"/>
</mask>
<g mask="url(#mask8_3932_16241)">
<mask id="mask9_3932_16241" style="mask-type:luminance" maskUnits="userSpaceOnUse" x="0" y="0" width="512" height="512">
<path d="M512 0H0V512H512V0Z" fill="white"/>
</mask>
<g mask="url(#mask9_3932_16241)">
<mask id="mask10_3932_16241" style="mask-type:luminance" maskUnits="userSpaceOnUse" x="0" y="0" width="512" height="512">
<path d="M512 0H0V512H512V0Z" fill="white"/>
</mask>
<g mask="url(#mask10_3932_16241)">
<mask id="mask11_3932_16241" style="mask-type:luminance" maskUnits="userSpaceOnUse" x="0" y="0" width="512" height="512">
<path d="M512 0H0V512H512V0Z" fill="white"/>
</mask>
<g mask="url(#mask11_3932_16241)">
<mask id="mask12_3932_16241" style="mask-type:luminance" maskUnits="userSpaceOnUse" x="0" y="0" width="512" height="512">
<path d="M512 0H0V512H512V0Z" fill="white"/>
</mask>
<g mask="url(#mask12_3932_16241)">
<mask id="mask13_3932_16241" style="mask-type:luminance" maskUnits="userSpaceOnUse" x="0" y="0" width="512" height="512">
<path d="M512 0H0V512H512V0Z" fill="white"/>
</mask>
<g mask="url(#mask13_3932_16241)">
<path d="M341.603 29.1985L240.103 130.798L230.703 121.398C218.203 108.898 197.903 108.898 185.403 121.398C172.903 133.898 172.903 154.198 185.403 166.698L345.403 326.698C357.903 339.198 378.203 339.198 390.703 326.698C403.203 314.198 403.203 293.898 390.703 281.398L381.303 271.998L482.803 170.398C521.803 131.398 521.803 68.1985 482.803 29.2985C443.803 -9.60156 380.603 -9.70157 341.703 29.2985L341.603 29.1985ZM55.4027 323.298C40.4027 338.298 32.0027 358.698 32.0027 379.898V422.298L5.40269 462.198C-3.09731 474.898 -1.39731 491.798 9.40269 502.598C20.2027 513.398 37.1027 515.098 49.8027 506.598L89.7027 479.998H132.103C153.303 479.998 173.703 471.598 188.703 456.598L309.403 335.898L264.103 290.598L143.403 411.298C140.403 414.298 136.303 415.998 132.103 415.998H96.0027V379.898C96.0027 375.698 97.7027 371.598 100.703 368.598L221.403 247.898L176.103 202.598L55.4027 323.298Z" fill="black"/>
</g>
</g>
</g>
</g>
</g>
</g>
</g>
</g>
</g>
</g>
</g>
</g>
</g>
</g>
</g>
<defs>
<clipPath id="clip0_3932_16241">
<rect width="512" height="512" fill="white"/>
</clipPath>
</defs>
</svg>
