<svg width="1000" height="474" viewBox="0 0 1000 474" fill="none" xmlns="http://www.w3.org/2000/svg">
<g clip-path="url(#clip0_3932_16192)">
<mask id="mask0_3932_16192" style="mask-type:luminance" maskUnits="userSpaceOnUse" x="0" y="0" width="1000" height="474">
<path d="M1000 0H0V474H1000V0Z" fill="white"/>
</mask>
<g mask="url(#mask0_3932_16192)">
<mask id="mask1_3932_16192" style="mask-type:luminance" maskUnits="userSpaceOnUse" x="0" y="0" width="1000" height="474">
<path d="M1000 0H0V474H1000V0Z" fill="white"/>
</mask>
<g mask="url(#mask1_3932_16192)">
<mask id="mask2_3932_16192" style="mask-type:luminance" maskUnits="userSpaceOnUse" x="0" y="0" width="1000" height="474">
<path d="M1000 0H0V474H1000V0Z" fill="white"/>
</mask>
<g mask="url(#mask2_3932_16192)">
<mask id="mask3_3932_16192" style="mask-type:luminance" maskUnits="userSpaceOnUse" x="0" y="0" width="1000" height="474">
<path d="M1000 0H0V474H1000V0Z" fill="white"/>
</mask>
<g mask="url(#mask3_3932_16192)">
<mask id="mask4_3932_16192" style="mask-type:luminance" maskUnits="userSpaceOnUse" x="0" y="0" width="1000" height="474">
<path d="M1000 0H0V474H1000V0Z" fill="white"/>
</mask>
<g mask="url(#mask4_3932_16192)">
<mask id="mask5_3932_16192" style="mask-type:luminance" maskUnits="userSpaceOnUse" x="0" y="0" width="1000" height="474">
<path d="M1000 0H0V474H1000V0Z" fill="white"/>
</mask>
<g mask="url(#mask5_3932_16192)">
<mask id="mask6_3932_16192" style="mask-type:luminance" maskUnits="userSpaceOnUse" x="0" y="0" width="1000" height="474">
<path d="M1000 0H0V474H1000V0Z" fill="white"/>
</mask>
<g mask="url(#mask6_3932_16192)">
<mask id="mask7_3932_16192" style="mask-type:luminance" maskUnits="userSpaceOnUse" x="0" y="0" width="1000" height="474">
<path d="M1000 0H0V474H1000V0Z" fill="white"/>
</mask>
<g mask="url(#mask7_3932_16192)">
<mask id="mask8_3932_16192" style="mask-type:luminance" maskUnits="userSpaceOnUse" x="0" y="0" width="1000" height="474">
<path d="M1000 0H0V474H1000V0Z" fill="white"/>
</mask>
<g mask="url(#mask8_3932_16192)">
<mask id="mask9_3932_16192" style="mask-type:luminance" maskUnits="userSpaceOnUse" x="0" y="0" width="1000" height="474">
<path d="M1000 0H0V474H1000V0Z" fill="white"/>
</mask>
<g mask="url(#mask9_3932_16192)">
<mask id="mask10_3932_16192" style="mask-type:luminance" maskUnits="userSpaceOnUse" x="0" y="0" width="1000" height="474">
<path d="M999.97 0H0V473.765H999.97V0Z" fill="white"/>
</mask>
<g mask="url(#mask10_3932_16192)">
<path d="M499.561 434.065C430.335 433.963 365.505 422.005 308.187 403.382C251.141 384.847 202.422 360.233 163.191 336.179C122.377 311.153 92.0129 287.015 71.3555 269.013C60.616 259.654 52.8727 252.268 47.4238 246.868C44.6694 244.139 42.7155 242.127 41.3125 240.655C40.6143 239.923 40.1223 239.397 39.7657 239.013C39.5896 238.823 39.465 238.688 39.375 238.589C39.3309 238.541 39.3005 238.505 39.2774 238.48C39.2468 238.449 39.4039 238.62 39.375 238.589C39.465 238.688 39.5896 238.823 39.7657 239.013C40.1239 239.398 40.617 239.919 41.3165 240.651C42.7211 242.122 44.6738 244.133 47.4298 246.862C52.8808 252.26 60.626 259.642 71.3672 268.999C92.0275 286.997 122.392 311.13 163.207 336.151C202.437 360.201 251.155 384.812 308.199 403.345C365.514 421.965 430.339 433.92 499.561 434.022H499.781C499.843 434.023 499.905 434.02 499.967 434.02V434.064C499.905 434.064 499.843 434.066 499.781 434.066L499.561 434.065Z" fill="black"/>
<path d="M39.7657 239.013C40.1223 239.397 40.6143 239.923 41.3125 240.655C42.7155 242.127 44.6694 244.139 47.4238 246.868C52.8727 252.268 60.616 259.654 71.3555 269.013C92.013 287.015 122.377 311.153 163.191 336.179C202.422 360.233 251.141 384.847 308.187 403.382C365.505 422.005 430.335 433.963 499.561 434.065L499.781 434.066C499.843 434.066 499.905 434.064 499.967 434.064V434.02C499.905 434.02 499.843 434.023 499.781 434.022H499.561C430.339 433.92 365.514 421.965 308.199 403.345C251.155 384.812 202.437 360.201 163.207 336.151C122.392 311.13 92.0275 286.997 71.3672 268.999C60.626 259.642 52.8808 252.26 47.4298 246.862C44.6738 244.133 42.7211 242.122 41.3165 240.651C40.617 239.919 40.1239 239.398 39.7657 239.013ZM39.7657 239.013C39.5896 238.823 39.465 238.688 39.375 238.589M39.375 238.589C39.3309 238.541 39.3005 238.505 39.2774 238.48C39.2468 238.449 39.4039 238.62 39.375 238.589Z" stroke="black" stroke-width="79.3988" stroke-linecap="round" stroke-linejoin="round"/>
<path d="M500.414 434.065C569.64 433.963 634.47 422.005 691.787 403.382C748.834 384.847 797.553 360.233 836.784 336.179C877.598 311.153 907.962 287.015 928.619 269.013C939.359 259.654 947.102 252.268 952.551 246.868C955.306 244.139 957.259 242.127 958.662 240.655C959.361 239.923 959.853 239.397 960.209 239.013C960.385 238.823 960.51 238.688 960.6 238.589C960.644 238.541 960.674 238.505 960.697 238.48C960.728 238.449 960.571 238.62 960.6 238.589C960.51 238.688 960.385 238.823 960.209 239.013C959.851 239.398 959.358 239.919 958.658 240.651C957.254 242.122 955.301 244.133 952.545 246.862C947.094 252.26 939.349 259.642 928.607 268.999C907.947 286.997 877.583 311.13 836.768 336.151C797.537 360.201 748.819 384.812 691.775 403.345C634.46 421.965 569.635 433.92 500.414 434.022H500.193C500.131 434.023 500.07 434.02 500.008 434.02V434.064C500.07 434.064 500.131 434.066 500.193 434.066L500.414 434.065Z" fill="black"/>
<path d="M960.209 239.013C959.853 239.397 959.361 239.923 958.662 240.655C957.259 242.127 955.306 244.139 952.551 246.868C947.102 252.268 939.359 259.654 928.619 269.013C907.962 287.015 877.598 311.153 836.783 336.179C797.553 360.233 748.834 384.847 691.787 403.382C634.47 422.005 569.64 433.963 500.414 434.065L500.193 434.066C500.131 434.066 500.07 434.064 500.008 434.064V434.02C500.07 434.02 500.131 434.023 500.193 434.022H500.414C569.635 433.92 634.46 421.965 691.775 403.345C748.819 384.812 797.537 360.201 836.768 336.151C877.583 311.13 907.947 286.997 928.607 268.999C939.349 259.642 947.094 252.26 952.545 246.862C955.301 244.133 957.254 242.122 958.658 240.651C959.358 239.919 959.851 239.398 960.209 239.013ZM960.209 239.013C960.385 238.823 960.51 238.688 960.6 238.589M960.6 238.589C960.644 238.541 960.674 238.505 960.697 238.48C960.728 238.449 960.571 238.62 960.6 238.589Z" stroke="black" stroke-width="79.3988" stroke-linecap="round" stroke-linejoin="round"/>
</g>
</g>
</g>
</g>
</g>
</g>
</g>
</g>
</g>
</g>
</g>
</g>
<defs>
<clipPath id="clip0_3932_16192">
<rect width="1000" height="474" fill="white"/>
</clipPath>
</defs>
</svg>
