<svg width="640" height="512" viewBox="0 0 640 512" fill="none" xmlns="http://www.w3.org/2000/svg">
<g clip-path="url(#clip0_3932_16367)">
<mask id="mask0_3932_16367" style="mask-type:luminance" maskUnits="userSpaceOnUse" x="0" y="0" width="640" height="512">
<path d="M640 0H0V512H640V0Z" fill="white"/>
</mask>
<g mask="url(#mask0_3932_16367)">
<mask id="mask1_3932_16367" style="mask-type:luminance" maskUnits="userSpaceOnUse" x="0" y="0" width="640" height="512">
<path d="M640 0H0V512H640V0Z" fill="white"/>
</mask>
<g mask="url(#mask1_3932_16367)">
<mask id="mask2_3932_16367" style="mask-type:luminance" maskUnits="userSpaceOnUse" x="0" y="0" width="640" height="512">
<path d="M640 0H0V512H640V0Z" fill="white"/>
</mask>
<g mask="url(#mask2_3932_16367)">
<mask id="mask3_3932_16367" style="mask-type:luminance" maskUnits="userSpaceOnUse" x="0" y="0" width="640" height="512">
<path d="M640 0H0V512H640V0Z" fill="white"/>
</mask>
<g mask="url(#mask3_3932_16367)">
<mask id="mask4_3932_16367" style="mask-type:luminance" maskUnits="userSpaceOnUse" x="0" y="0" width="640" height="512">
<path d="M640 0H0V512H640V0Z" fill="white"/>
</mask>
<g mask="url(#mask4_3932_16367)">
<mask id="mask5_3932_16367" style="mask-type:luminance" maskUnits="userSpaceOnUse" x="0" y="0" width="640" height="512">
<path d="M640 0H0V512H640V0Z" fill="white"/>
</mask>
<g mask="url(#mask5_3932_16367)">
<mask id="mask6_3932_16367" style="mask-type:luminance" maskUnits="userSpaceOnUse" x="0" y="0" width="640" height="512">
<path d="M640 0H0V512H640V0Z" fill="white"/>
</mask>
<g mask="url(#mask6_3932_16367)">
<mask id="mask7_3932_16367" style="mask-type:luminance" maskUnits="userSpaceOnUse" x="0" y="0" width="640" height="512">
<path d="M640 0H0V512H640V0Z" fill="white"/>
</mask>
<g mask="url(#mask7_3932_16367)">
<mask id="mask8_3932_16367" style="mask-type:luminance" maskUnits="userSpaceOnUse" x="0" y="0" width="640" height="512">
<path d="M640 0H0V512H640V0Z" fill="white"/>
</mask>
<g mask="url(#mask8_3932_16367)">
<mask id="mask9_3932_16367" style="mask-type:luminance" maskUnits="userSpaceOnUse" x="0" y="0" width="640" height="512">
<path d="M640 0H0V512H640V0Z" fill="white"/>
</mask>
<g mask="url(#mask9_3932_16367)">
<mask id="mask10_3932_16367" style="mask-type:luminance" maskUnits="userSpaceOnUse" x="0" y="0" width="640" height="512">
<path d="M640 0H0V512H640V0Z" fill="white"/>
</mask>
<g mask="url(#mask10_3932_16367)">
<mask id="mask11_3932_16367" style="mask-type:luminance" maskUnits="userSpaceOnUse" x="0" y="0" width="640" height="512">
<path d="M640 0H0V512H640V0Z" fill="white"/>
</mask>
<g mask="url(#mask11_3932_16367)">
<mask id="mask12_3932_16367" style="mask-type:luminance" maskUnits="userSpaceOnUse" x="0" y="0" width="640" height="512">
<path d="M640 0H0V512H640V0Z" fill="white"/>
</mask>
<g mask="url(#mask12_3932_16367)">
<mask id="mask13_3932_16367" style="mask-type:luminance" maskUnits="userSpaceOnUse" x="0" y="0" width="640" height="512">
<path d="M640 0H0V512H640V0Z" fill="white"/>
</mask>
<g mask="url(#mask13_3932_16367)">
<path d="M38.7978 5.09781C28.3978 -3.10219 13.2978 -1.20219 5.09781 9.19781C-3.10219 19.5978 -1.20219 34.6978 9.19781 42.8978L601.198 506.898C611.598 515.098 626.698 513.198 634.898 502.798C643.098 492.398 641.198 477.298 630.798 469.098L525.598 386.698C565.198 346.098 591.998 300.598 605.498 268.298C608.798 260.398 608.798 251.598 605.498 243.698C590.598 207.998 559.298 155.998 512.498 112.598C465.498 68.7978 400.798 31.9978 319.998 31.9978C251.798 31.9978 194.998 58.2978 150.698 92.7978L38.7978 5.09781ZM189.798 123.398C225.998 97.6978 269.498 79.9978 319.998 79.9978C385.198 79.9978 438.798 109.598 479.898 147.698C518.398 183.498 544.998 225.998 558.598 255.998C545.998 283.998 521.998 322.798 487.698 356.898L433.898 314.698C442.998 297.098 448.098 277.198 448.098 255.998C448.098 185.298 390.798 127.998 320.098 127.998C287.898 127.998 258.398 139.898 235.898 159.498L189.798 123.398ZM394.898 284.198L313.398 220.298C317.598 211.798 319.998 202.098 319.998 191.998C319.998 186.498 319.298 181.098 317.998 175.998C318.698 175.998 319.298 175.998 319.998 175.998C364.198 175.998 399.998 211.798 399.998 255.998C399.998 265.898 398.198 275.398 394.898 284.198ZM446.198 447.498L404.298 414.498C378.798 425.398 350.698 431.998 319.998 431.998C254.798 431.998 201.198 402.398 160.098 364.298C121.598 328.498 94.9978 285.998 81.3978 255.998C89.6978 237.598 102.898 214.498 120.798 191.198L83.0978 161.498C60.2978 191.198 43.9978 220.798 34.4978 243.698C31.1978 251.598 31.1978 260.398 34.4978 268.298C49.3978 303.998 80.6978 355.998 127.498 399.398C174.498 443.198 239.198 479.998 319.998 479.998C367.798 479.998 409.898 467.098 446.198 447.498ZM358.198 378.198L301.998 333.998C278.498 328.598 258.898 312.798 248.298 291.698L192.198 247.498C191.998 250.298 191.898 253.098 191.898 255.998C191.898 326.698 249.198 383.998 319.898 383.998C333.198 383.998 345.998 381.998 358.098 378.198H358.198Z" fill="black"/>
</g>
</g>
</g>
</g>
</g>
</g>
</g>
</g>
</g>
</g>
</g>
</g>
</g>
</g>
</g>
<defs>
<clipPath id="clip0_3932_16367">
<rect width="640" height="512" fill="white"/>
</clipPath>
</defs>
</svg>
