<svg width="512" height="512" viewBox="0 0 512 512" fill="none" xmlns="http://www.w3.org/2000/svg">
<g clip-path="url(#clip0_3932_17941)">
<mask id="mask0_3932_17941" style="mask-type:luminance" maskUnits="userSpaceOnUse" x="0" y="0" width="512" height="512">
<path d="M512 0H0V512H512V0Z" fill="white"/>
</mask>
<g mask="url(#mask0_3932_17941)">
<mask id="mask1_3932_17941" style="mask-type:luminance" maskUnits="userSpaceOnUse" x="0" y="0" width="512" height="512">
<path d="M512 0H0V512H512V0Z" fill="white"/>
</mask>
<g mask="url(#mask1_3932_17941)">
<mask id="mask2_3932_17941" style="mask-type:luminance" maskUnits="userSpaceOnUse" x="0" y="0" width="512" height="512">
<path d="M512 0H0V512H512V0Z" fill="white"/>
</mask>
<g mask="url(#mask2_3932_17941)">
<mask id="mask3_3932_17941" style="mask-type:luminance" maskUnits="userSpaceOnUse" x="0" y="0" width="512" height="512">
<path d="M512 0H0V512H512V0Z" fill="white"/>
</mask>
<g mask="url(#mask3_3932_17941)">
<mask id="mask4_3932_17941" style="mask-type:luminance" maskUnits="userSpaceOnUse" x="0" y="0" width="512" height="512">
<path d="M512 0H0V512H512V0Z" fill="white"/>
</mask>
<g mask="url(#mask4_3932_17941)">
<mask id="mask5_3932_17941" style="mask-type:luminance" maskUnits="userSpaceOnUse" x="0" y="0" width="512" height="512">
<path d="M512 0H0V512H512V0Z" fill="white"/>
</mask>
<g mask="url(#mask5_3932_17941)">
<mask id="mask6_3932_17941" style="mask-type:luminance" maskUnits="userSpaceOnUse" x="0" y="0" width="512" height="512">
<path d="M512 0H0V512H512V0Z" fill="white"/>
</mask>
<g mask="url(#mask6_3932_17941)">
<mask id="mask7_3932_17941" style="mask-type:luminance" maskUnits="userSpaceOnUse" x="0" y="0" width="512" height="512">
<path d="M512 0H0V512H512V0Z" fill="white"/>
</mask>
<g mask="url(#mask7_3932_17941)">
<mask id="mask8_3932_17941" style="mask-type:luminance" maskUnits="userSpaceOnUse" x="0" y="0" width="512" height="512">
<path d="M512 0H0V512H512V0Z" fill="white"/>
</mask>
<g mask="url(#mask8_3932_17941)">
<mask id="mask9_3932_17941" style="mask-type:luminance" maskUnits="userSpaceOnUse" x="0" y="0" width="512" height="512">
<path d="M512 0H0V512H512V0Z" fill="white"/>
</mask>
<g mask="url(#mask9_3932_17941)">
<mask id="mask10_3932_17941" style="mask-type:luminance" maskUnits="userSpaceOnUse" x="0" y="0" width="512" height="512">
<path d="M512 0H0V512H512V0Z" fill="white"/>
</mask>
<g mask="url(#mask10_3932_17941)">
<mask id="mask11_3932_17941" style="mask-type:luminance" maskUnits="userSpaceOnUse" x="0" y="0" width="512" height="512">
<path d="M512 0H0V512H512V0Z" fill="white"/>
</mask>
<g mask="url(#mask11_3932_17941)">
<mask id="mask12_3932_17941" style="mask-type:luminance" maskUnits="userSpaceOnUse" x="0" y="0" width="512" height="512">
<path d="M512 0H0V512H512V0Z" fill="white"/>
</mask>
<g mask="url(#mask12_3932_17941)">
<mask id="mask13_3932_17941" style="mask-type:luminance" maskUnits="userSpaceOnUse" x="0" y="0" width="512" height="512">
<path d="M512 0H0V512H512V0Z" fill="white"/>
</mask>
<g mask="url(#mask13_3932_17941)">
<path d="M464 256C464 311.165 442.086 364.071 403.078 403.078C364.071 442.086 311.165 464 256 464C200.835 464 147.929 442.086 108.922 403.078C69.9142 364.071 48 311.165 48 256C48 200.835 69.9142 147.929 108.922 108.922C147.929 69.9142 200.835 48 256 48C311.165 48 364.071 69.9142 403.078 108.922C442.086 147.929 464 200.835 464 256ZM256 0C188.105 0 122.99 26.9714 74.9807 74.9807C26.9714 122.99 0 188.105 0 256C0 323.895 26.9714 389.01 74.9807 437.019C122.99 485.029 188.105 512 256 512C323.895 512 389.01 485.029 437.019 437.019C485.029 389.01 512 323.895 512 256C512 188.105 485.029 122.99 437.019 74.9807C389.01 26.9714 323.895 0 256 0ZM176.4 240C184.887 240 193.026 236.629 199.027 230.627C205.029 224.626 208.4 216.487 208.4 208C208.4 199.513 205.029 191.374 199.027 185.373C193.026 179.371 184.887 176 176.4 176C167.913 176 159.774 179.371 153.773 185.373C147.771 191.374 144.4 199.513 144.4 208C144.4 216.487 147.771 224.626 153.773 230.627C159.774 236.629 167.913 240 176.4 240ZM368.4 208C368.4 199.513 365.029 191.374 359.027 185.373C353.026 179.371 344.887 176 336.4 176C327.913 176 319.774 179.371 313.773 185.373C307.771 191.374 304.4 199.513 304.4 208C304.4 216.487 307.771 224.626 313.773 230.627C319.774 236.629 327.913 240 336.4 240C344.887 240 353.026 236.629 359.027 230.627C365.029 224.626 368.4 216.487 368.4 208ZM184 328C170.7 328 160 338.7 160 352C160 365.3 170.7 376 184 376H328C341.3 376 352 365.3 352 352C352 338.7 341.3 328 328 328H184Z" fill="black"/>
</g>
</g>
</g>
</g>
</g>
</g>
</g>
</g>
</g>
</g>
</g>
</g>
</g>
</g>
</g>
<defs>
<clipPath id="clip0_3932_17941">
<rect width="512" height="512" fill="white"/>
</clipPath>
</defs>
</svg>
