<svg width="512" height="512" viewBox="0 0 512 512" fill="none" xmlns="http://www.w3.org/2000/svg">
<g clip-path="url(#clip0_3932_17825)">
<mask id="mask0_3932_17825" style="mask-type:luminance" maskUnits="userSpaceOnUse" x="0" y="0" width="512" height="512">
<path d="M512 0H0V512H512V0Z" fill="white"/>
</mask>
<g mask="url(#mask0_3932_17825)">
<mask id="mask1_3932_17825" style="mask-type:luminance" maskUnits="userSpaceOnUse" x="0" y="0" width="512" height="512">
<path d="M512 0H0V512H512V0Z" fill="white"/>
</mask>
<g mask="url(#mask1_3932_17825)">
<mask id="mask2_3932_17825" style="mask-type:luminance" maskUnits="userSpaceOnUse" x="0" y="0" width="512" height="512">
<path d="M512 0H0V512H512V0Z" fill="white"/>
</mask>
<g mask="url(#mask2_3932_17825)">
<mask id="mask3_3932_17825" style="mask-type:luminance" maskUnits="userSpaceOnUse" x="0" y="0" width="512" height="512">
<path d="M512 0H0V512H512V0Z" fill="white"/>
</mask>
<g mask="url(#mask3_3932_17825)">
<mask id="mask4_3932_17825" style="mask-type:luminance" maskUnits="userSpaceOnUse" x="0" y="0" width="512" height="512">
<path d="M512 0H0V512H512V0Z" fill="white"/>
</mask>
<g mask="url(#mask4_3932_17825)">
<mask id="mask5_3932_17825" style="mask-type:luminance" maskUnits="userSpaceOnUse" x="0" y="0" width="512" height="512">
<path d="M512 0H0V512H512V0Z" fill="white"/>
</mask>
<g mask="url(#mask5_3932_17825)">
<mask id="mask6_3932_17825" style="mask-type:luminance" maskUnits="userSpaceOnUse" x="0" y="0" width="512" height="512">
<path d="M512 0H0V512H512V0Z" fill="white"/>
</mask>
<g mask="url(#mask6_3932_17825)">
<mask id="mask7_3932_17825" style="mask-type:luminance" maskUnits="userSpaceOnUse" x="0" y="0" width="512" height="512">
<path d="M512 0H0V512H512V0Z" fill="white"/>
</mask>
<g mask="url(#mask7_3932_17825)">
<mask id="mask8_3932_17825" style="mask-type:luminance" maskUnits="userSpaceOnUse" x="0" y="0" width="512" height="512">
<path d="M512 0H0V512H512V0Z" fill="white"/>
</mask>
<g mask="url(#mask8_3932_17825)">
<mask id="mask9_3932_17825" style="mask-type:luminance" maskUnits="userSpaceOnUse" x="0" y="0" width="512" height="512">
<path d="M512 0H0V512H512V0Z" fill="white"/>
</mask>
<g mask="url(#mask9_3932_17825)">
<mask id="mask10_3932_17825" style="mask-type:luminance" maskUnits="userSpaceOnUse" x="0" y="0" width="512" height="512">
<path d="M512 0H0V512H512V0Z" fill="white"/>
</mask>
<g mask="url(#mask10_3932_17825)">
<mask id="mask11_3932_17825" style="mask-type:luminance" maskUnits="userSpaceOnUse" x="0" y="0" width="512" height="512">
<path d="M512 0H0V512H512V0Z" fill="white"/>
</mask>
<g mask="url(#mask11_3932_17825)">
<mask id="mask12_3932_17825" style="mask-type:luminance" maskUnits="userSpaceOnUse" x="0" y="0" width="512" height="512">
<path d="M512 0H0V512H512V0Z" fill="white"/>
</mask>
<g mask="url(#mask12_3932_17825)">
<mask id="mask13_3932_17825" style="mask-type:luminance" maskUnits="userSpaceOnUse" x="0" y="0" width="512" height="512">
<path d="M512 0H0V512H512V0Z" fill="white"/>
</mask>
<g mask="url(#mask13_3932_17825)">
<path d="M464 256C464 200.835 442.086 147.929 403.078 108.922C364.071 69.9142 311.165 48 256 48C200.835 48 147.929 69.9142 108.922 108.922C69.9142 147.929 48 200.835 48 256C48 311.165 69.9142 364.071 108.922 403.078C147.929 442.086 200.835 464 256 464C311.165 464 364.071 442.086 403.078 403.078C442.086 364.071 464 311.165 464 256ZM0 256C0 188.105 26.9714 122.99 74.9807 74.9807C122.99 26.9714 188.105 0 256 0C323.895 0 389.01 26.9714 437.019 74.9807C485.029 122.99 512 188.105 512 256C512 323.895 485.029 389.01 437.019 437.019C389.01 485.029 323.895 512 256 512C188.105 512 122.99 485.029 74.9807 437.019C26.9714 389.01 0 323.895 0 256ZM130.7 313.9C126.5 300.3 137.8 288 152 288H364.5C378.7 288 390 300.4 385.8 313.9C369 368.4 318.2 408 258.2 408C198.2 408 147.4 368.4 130.7 313.9ZM133.5 130.6L223.4 178.5C234.1 184.2 234.1 199.6 223.4 205.3L133.5 253.2C125.6 257.4 116 251.7 116 242.7C116 239.9 117 237.2 118.8 235.1L154.8 191.9L118.8 148.7C117 146.6 116 143.9 116 141.1C116 132.1 125.6 126.4 133.5 130.6ZM396 141.1C396 143.9 395 146.6 393.2 148.7L357.2 191.9L393.2 235.1C395 237.2 396 239.9 396 242.7C396 251.7 386.4 257.4 378.5 253.2L288.6 205.3C277.9 199.6 277.9 184.2 288.6 178.5L378.5 130.6C386.4 126.4 396 132.1 396 141.1Z" fill="black"/>
</g>
</g>
</g>
</g>
</g>
</g>
</g>
</g>
</g>
</g>
</g>
</g>
</g>
</g>
</g>
<defs>
<clipPath id="clip0_3932_17825">
<rect width="512" height="512" fill="white"/>
</clipPath>
</defs>
</svg>
