<svg width="512" height="512" viewBox="0 0 512 512" fill="none" xmlns="http://www.w3.org/2000/svg">
<g clip-path="url(#clip0_3932_17651)">
<mask id="mask0_3932_17651" style="mask-type:luminance" maskUnits="userSpaceOnUse" x="0" y="0" width="512" height="512">
<path d="M512 0H0V512H512V0Z" fill="white"/>
</mask>
<g mask="url(#mask0_3932_17651)">
<mask id="mask1_3932_17651" style="mask-type:luminance" maskUnits="userSpaceOnUse" x="0" y="0" width="512" height="512">
<path d="M512 0H0V512H512V0Z" fill="white"/>
</mask>
<g mask="url(#mask1_3932_17651)">
<mask id="mask2_3932_17651" style="mask-type:luminance" maskUnits="userSpaceOnUse" x="0" y="0" width="512" height="512">
<path d="M512 0H0V512H512V0Z" fill="white"/>
</mask>
<g mask="url(#mask2_3932_17651)">
<mask id="mask3_3932_17651" style="mask-type:luminance" maskUnits="userSpaceOnUse" x="0" y="0" width="512" height="512">
<path d="M512 0H0V512H512V0Z" fill="white"/>
</mask>
<g mask="url(#mask3_3932_17651)">
<mask id="mask4_3932_17651" style="mask-type:luminance" maskUnits="userSpaceOnUse" x="0" y="0" width="512" height="512">
<path d="M512 0H0V512H512V0Z" fill="white"/>
</mask>
<g mask="url(#mask4_3932_17651)">
<mask id="mask5_3932_17651" style="mask-type:luminance" maskUnits="userSpaceOnUse" x="0" y="0" width="512" height="512">
<path d="M512 0H0V512H512V0Z" fill="white"/>
</mask>
<g mask="url(#mask5_3932_17651)">
<mask id="mask6_3932_17651" style="mask-type:luminance" maskUnits="userSpaceOnUse" x="0" y="0" width="512" height="512">
<path d="M512 0H0V512H512V0Z" fill="white"/>
</mask>
<g mask="url(#mask6_3932_17651)">
<mask id="mask7_3932_17651" style="mask-type:luminance" maskUnits="userSpaceOnUse" x="0" y="0" width="512" height="512">
<path d="M512 0H0V512H512V0Z" fill="white"/>
</mask>
<g mask="url(#mask7_3932_17651)">
<mask id="mask8_3932_17651" style="mask-type:luminance" maskUnits="userSpaceOnUse" x="0" y="0" width="512" height="512">
<path d="M512 0H0V512H512V0Z" fill="white"/>
</mask>
<g mask="url(#mask8_3932_17651)">
<mask id="mask9_3932_17651" style="mask-type:luminance" maskUnits="userSpaceOnUse" x="0" y="0" width="512" height="512">
<path d="M512 0H0V512H512V0Z" fill="white"/>
</mask>
<g mask="url(#mask9_3932_17651)">
<mask id="mask10_3932_17651" style="mask-type:luminance" maskUnits="userSpaceOnUse" x="0" y="0" width="512" height="512">
<path d="M512 0H0V512H512V0Z" fill="white"/>
</mask>
<g mask="url(#mask10_3932_17651)">
<mask id="mask11_3932_17651" style="mask-type:luminance" maskUnits="userSpaceOnUse" x="0" y="0" width="512" height="512">
<path d="M512 0H0V512H512V0Z" fill="white"/>
</mask>
<g mask="url(#mask11_3932_17651)">
<mask id="mask12_3932_17651" style="mask-type:luminance" maskUnits="userSpaceOnUse" x="0" y="0" width="512" height="512">
<path d="M512 0H0V512H512V0Z" fill="white"/>
</mask>
<g mask="url(#mask12_3932_17651)">
<mask id="mask13_3932_17651" style="mask-type:luminance" maskUnits="userSpaceOnUse" x="0" y="0" width="512" height="512">
<path d="M512 0H0V512H512V0Z" fill="white"/>
</mask>
<g mask="url(#mask13_3932_17651)">
<path d="M338.9 446.8C313.5 457.8 285.5 464 256 464C141.1 464 48 370.9 48 256C48 141.1 141.1 48 256 48C370.9 48 464 141.1 464 256C464 278.4 460.5 299.9 453.9 320.1C457 324.6 459.6 329.5 461.7 334.7C474.4 333.1 486.8 335.1 497.9 339.7C507 313.5 511.9 285.3 511.9 256C512 114.6 397.4 0 256 0C114.6 0 0 114.6 0 256C0 397.4 114.6 512 256 512C291.4 512 325.1 504.8 355.7 491.8C350.9 486.3 347.2 479.6 345.3 472.1L338.8 446.8H338.9ZM296 316C296 309.1 292.9 302.8 288.7 297.7C284.4 292.5 278.6 288 272 284.3C258.7 276.9 241.4 272 224 272C220.4 272 217.2 274.5 216.3 278C215.4 281.5 216.9 285.2 220.1 287L220.3 287.1C220.5 287.2 220.8 287.4 221.2 287.6C222 288.1 223.2 288.8 224.6 289.7C227.4 291.6 231.1 294.2 234.8 297.3C238.5 300.4 242 303.9 244.4 307.4C246.9 310.9 247.9 313.8 247.9 316C247.9 318.2 246.9 321 244.4 324.6C241.9 328.1 238.5 331.5 234.8 334.7C231.1 337.8 227.4 340.4 224.6 342.3C223.2 343.2 222 343.9 221.2 344.4C220.8 344.6 220.5 344.8 220.3 344.9L220.1 345C217.6 346.4 216 349.1 216 352C216 354.9 217.6 357.6 220.1 359L220.3 359.1C220.5 359.2 220.8 359.4 221.2 359.6C222 360.1 223.2 360.8 224.6 361.7C227.4 363.6 231.1 366.2 234.8 369.3C238.5 372.4 242 375.9 244.4 379.4C246.9 382.9 247.9 385.8 247.9 388C247.9 390.2 246.9 393 244.4 396.6C241.9 400.1 238.5 403.5 234.8 406.7C231.1 409.8 227.4 412.4 224.6 414.3C223.2 415.2 222 415.9 221.2 416.4C220.8 416.6 220.5 416.8 220.3 416.9L220.1 417C216.9 418.8 215.4 422.5 216.3 426C217.2 429.5 220.4 432 224 432C241.4 432 258.7 427.1 271.9 419.7C278.5 416 284.4 411.5 288.6 406.3C292.9 401.2 295.9 394.9 295.9 388C295.9 381.1 292.8 374.8 288.6 369.7C284.3 364.5 278.5 360 271.9 356.3C269.2 354.8 266.2 353.3 263.2 352C266.3 350.7 269.2 349.3 271.9 347.7C278.5 344 284.4 339.5 288.6 334.3C292.9 329.2 295.9 322.9 295.9 316H296ZM176.4 240C184.887 240 193.026 236.629 199.027 230.627C205.029 224.626 208.4 216.487 208.4 208C208.4 199.513 205.029 191.374 199.027 185.373C193.026 179.371 184.887 176 176.4 176C167.913 176 159.774 179.371 153.773 185.373C147.771 191.374 144.4 199.513 144.4 208C144.4 216.487 147.771 224.626 153.773 230.627C159.774 236.629 167.913 240 176.4 240ZM335.7 220C346.3 220 355.6 223.8 361.1 229.7C368.7 237.8 381.3 238.2 389.4 230.6C397.5 223 397.9 210.4 390.3 202.3C375.7 186.8 355 180 335.6 180C316.2 180 295.5 186.8 281 202.3C273.4 210.4 273.9 223 281.9 230.6C289.9 238.2 302.6 237.7 310.2 229.7C315.7 223.9 325 220 335.6 220H335.7ZM434 352.3C428 329.1 405.2 315.3 382.9 321.5C360.6 327.7 347.5 351.6 353.4 374.9L376.3 464.2C378.5 472.9 387.5 478.1 396.1 475.6L481 451.8C503.2 445.6 516.4 421.7 510.5 398.4C504.6 375.1 481.7 361.4 459.4 367.6L439.2 373.2L433.8 352.2L434 352.3Z" fill="black"/>
</g>
</g>
</g>
</g>
</g>
</g>
</g>
</g>
</g>
</g>
</g>
</g>
</g>
</g>
</g>
<defs>
<clipPath id="clip0_3932_17651">
<rect width="512" height="512" fill="white"/>
</clipPath>
</defs>
</svg>
