<svg width="512" height="512" viewBox="0 0 512 512" fill="none" xmlns="http://www.w3.org/2000/svg">
<g clip-path="url(#clip0_3932_18347)">
<mask id="mask0_3932_18347" style="mask-type:luminance" maskUnits="userSpaceOnUse" x="0" y="0" width="512" height="512">
<path d="M512 0H0V512H512V0Z" fill="white"/>
</mask>
<g mask="url(#mask0_3932_18347)">
<mask id="mask1_3932_18347" style="mask-type:luminance" maskUnits="userSpaceOnUse" x="0" y="0" width="512" height="512">
<path d="M512 0H0V512H512V0Z" fill="white"/>
</mask>
<g mask="url(#mask1_3932_18347)">
<mask id="mask2_3932_18347" style="mask-type:luminance" maskUnits="userSpaceOnUse" x="0" y="0" width="512" height="512">
<path d="M512 0H0V512H512V0Z" fill="white"/>
</mask>
<g mask="url(#mask2_3932_18347)">
<mask id="mask3_3932_18347" style="mask-type:luminance" maskUnits="userSpaceOnUse" x="0" y="0" width="512" height="512">
<path d="M512 0H0V512H512V0Z" fill="white"/>
</mask>
<g mask="url(#mask3_3932_18347)">
<mask id="mask4_3932_18347" style="mask-type:luminance" maskUnits="userSpaceOnUse" x="0" y="0" width="512" height="512">
<path d="M512 0H0V512H512V0Z" fill="white"/>
</mask>
<g mask="url(#mask4_3932_18347)">
<mask id="mask5_3932_18347" style="mask-type:luminance" maskUnits="userSpaceOnUse" x="0" y="0" width="512" height="512">
<path d="M512 0H0V512H512V0Z" fill="white"/>
</mask>
<g mask="url(#mask5_3932_18347)">
<mask id="mask6_3932_18347" style="mask-type:luminance" maskUnits="userSpaceOnUse" x="0" y="0" width="512" height="512">
<path d="M512 0H0V512H512V0Z" fill="white"/>
</mask>
<g mask="url(#mask6_3932_18347)">
<mask id="mask7_3932_18347" style="mask-type:luminance" maskUnits="userSpaceOnUse" x="0" y="0" width="512" height="512">
<path d="M512 0H0V512H512V0Z" fill="white"/>
</mask>
<g mask="url(#mask7_3932_18347)">
<mask id="mask8_3932_18347" style="mask-type:luminance" maskUnits="userSpaceOnUse" x="0" y="0" width="512" height="512">
<path d="M512 0H0V512H512V0Z" fill="white"/>
</mask>
<g mask="url(#mask8_3932_18347)">
<mask id="mask9_3932_18347" style="mask-type:luminance" maskUnits="userSpaceOnUse" x="0" y="0" width="512" height="512">
<path d="M512 0H0V512H512V0Z" fill="white"/>
</mask>
<g mask="url(#mask9_3932_18347)">
<mask id="mask10_3932_18347" style="mask-type:luminance" maskUnits="userSpaceOnUse" x="0" y="0" width="512" height="512">
<path d="M512 0H0V512H512V0Z" fill="white"/>
</mask>
<g mask="url(#mask10_3932_18347)">
<mask id="mask11_3932_18347" style="mask-type:luminance" maskUnits="userSpaceOnUse" x="0" y="0" width="512" height="512">
<path d="M512 0H0V512H512V0Z" fill="white"/>
</mask>
<g mask="url(#mask11_3932_18347)">
<mask id="mask12_3932_18347" style="mask-type:luminance" maskUnits="userSpaceOnUse" x="0" y="0" width="512" height="512">
<path d="M512 0H0V512H512V0Z" fill="white"/>
</mask>
<g mask="url(#mask12_3932_18347)">
<mask id="mask13_3932_18347" style="mask-type:luminance" maskUnits="userSpaceOnUse" x="0" y="0" width="512" height="512">
<path d="M512 0H0V512H512V0Z" fill="white"/>
</mask>
<g mask="url(#mask13_3932_18347)">
<path d="M464 256C464 200.835 442.086 147.929 403.078 108.922C364.071 69.9142 311.165 48 256 48C200.835 48 147.929 69.9142 108.922 108.922C69.9142 147.929 48 200.835 48 256C48 311.165 69.9142 364.071 108.922 403.078C147.929 442.086 200.835 464 256 464C311.165 464 364.071 442.086 403.078 403.078C442.086 364.071 464 311.165 464 256ZM0 256C0 188.105 26.9714 122.99 74.9807 74.9807C122.99 26.9714 188.105 0 256 0C323.895 0 389.01 26.9714 437.019 74.9807C485.029 122.99 512 188.105 512 256C512 323.895 485.029 389.01 437.019 437.019C389.01 485.029 323.895 512 256 512C188.105 512 122.99 485.029 74.9807 437.019C26.9714 389.01 0 323.895 0 256ZM177.6 318.1C192.8 334.5 218.8 352 256 352C293.2 352 319.2 334.5 334.4 318.1C343.4 308.4 358.6 307.7 368.3 316.7C378 325.7 378.7 340.9 369.7 350.6C347.7 374.4 309.7 400 256.1 400C202.5 400 164.4 374.5 142.5 350.6C133.5 340.9 134.1 325.7 143.9 316.7C153.7 307.7 168.8 308.3 177.8 318.1H177.6ZM144.4 208C144.4 199.513 147.771 191.374 153.773 185.373C159.774 179.371 167.913 176 176.4 176C184.887 176 193.026 179.371 199.027 185.373C205.029 191.374 208.4 199.513 208.4 208C208.4 216.487 205.029 224.626 199.027 230.627C193.026 236.629 184.887 240 176.4 240C167.913 240 159.774 236.629 153.773 230.627C147.771 224.626 144.4 216.487 144.4 208ZM310.2 229.7C302.6 237.8 290 238.2 281.9 230.6C273.8 223 273.4 210.4 281 202.3C295.5 186.8 316.2 180 335.6 180C355 180 375.7 186.8 390.2 202.3C397.8 210.4 397.3 223 389.3 230.6C381.3 238.2 368.6 237.7 361 229.7C355.5 223.9 346.2 220 335.6 220C325 220 315.7 223.8 310.2 229.7Z" fill="black"/>
</g>
</g>
</g>
</g>
</g>
</g>
</g>
</g>
</g>
</g>
</g>
</g>
</g>
</g>
</g>
<defs>
<clipPath id="clip0_3932_18347">
<rect width="512" height="512" fill="white"/>
</clipPath>
</defs>
</svg>
