<svg width="512" height="512" viewBox="0 0 512 512" fill="none" xmlns="http://www.w3.org/2000/svg">
<g clip-path="url(#clip0_3932_17999)">
<mask id="mask0_3932_17999" style="mask-type:luminance" maskUnits="userSpaceOnUse" x="0" y="0" width="512" height="512">
<path d="M512 0H0V512H512V0Z" fill="white"/>
</mask>
<g mask="url(#mask0_3932_17999)">
<mask id="mask1_3932_17999" style="mask-type:luminance" maskUnits="userSpaceOnUse" x="0" y="0" width="512" height="512">
<path d="M512 0H0V512H512V0Z" fill="white"/>
</mask>
<g mask="url(#mask1_3932_17999)">
<mask id="mask2_3932_17999" style="mask-type:luminance" maskUnits="userSpaceOnUse" x="0" y="0" width="512" height="512">
<path d="M512 0H0V512H512V0Z" fill="white"/>
</mask>
<g mask="url(#mask2_3932_17999)">
<mask id="mask3_3932_17999" style="mask-type:luminance" maskUnits="userSpaceOnUse" x="0" y="0" width="512" height="512">
<path d="M512 0H0V512H512V0Z" fill="white"/>
</mask>
<g mask="url(#mask3_3932_17999)">
<mask id="mask4_3932_17999" style="mask-type:luminance" maskUnits="userSpaceOnUse" x="0" y="0" width="512" height="512">
<path d="M512 0H0V512H512V0Z" fill="white"/>
</mask>
<g mask="url(#mask4_3932_17999)">
<mask id="mask5_3932_17999" style="mask-type:luminance" maskUnits="userSpaceOnUse" x="0" y="0" width="512" height="512">
<path d="M512 0H0V512H512V0Z" fill="white"/>
</mask>
<g mask="url(#mask5_3932_17999)">
<mask id="mask6_3932_17999" style="mask-type:luminance" maskUnits="userSpaceOnUse" x="0" y="0" width="512" height="512">
<path d="M512 0H0V512H512V0Z" fill="white"/>
</mask>
<g mask="url(#mask6_3932_17999)">
<mask id="mask7_3932_17999" style="mask-type:luminance" maskUnits="userSpaceOnUse" x="0" y="0" width="512" height="512">
<path d="M512 0H0V512H512V0Z" fill="white"/>
</mask>
<g mask="url(#mask7_3932_17999)">
<mask id="mask8_3932_17999" style="mask-type:luminance" maskUnits="userSpaceOnUse" x="0" y="0" width="512" height="512">
<path d="M512 0H0V512H512V0Z" fill="white"/>
</mask>
<g mask="url(#mask8_3932_17999)">
<mask id="mask9_3932_17999" style="mask-type:luminance" maskUnits="userSpaceOnUse" x="0" y="0" width="512" height="512">
<path d="M512 0H0V512H512V0Z" fill="white"/>
</mask>
<g mask="url(#mask9_3932_17999)">
<mask id="mask10_3932_17999" style="mask-type:luminance" maskUnits="userSpaceOnUse" x="0" y="0" width="512" height="512">
<path d="M512 0H0V512H512V0Z" fill="white"/>
</mask>
<g mask="url(#mask10_3932_17999)">
<mask id="mask11_3932_17999" style="mask-type:luminance" maskUnits="userSpaceOnUse" x="0" y="0" width="512" height="512">
<path d="M512 0H0V512H512V0Z" fill="white"/>
</mask>
<g mask="url(#mask11_3932_17999)">
<mask id="mask12_3932_17999" style="mask-type:luminance" maskUnits="userSpaceOnUse" x="0" y="0" width="512" height="512">
<path d="M512 0H0V512H512V0Z" fill="white"/>
</mask>
<g mask="url(#mask12_3932_17999)">
<mask id="mask13_3932_17999" style="mask-type:luminance" maskUnits="userSpaceOnUse" x="0" y="0" width="512" height="512">
<path d="M512 0H0V512H512V0Z" fill="white"/>
</mask>
<g mask="url(#mask13_3932_17999)">
<path d="M256 48C200.835 48 147.929 69.9142 108.922 108.922C69.9142 147.929 48 200.835 48 256C48 311.165 69.9142 364.071 108.922 403.078C147.929 442.086 200.835 464 256 464C311.165 464 364.071 442.086 403.078 403.078C442.086 364.071 464 311.165 464 256C464 200.835 442.086 147.929 403.078 108.922C364.071 69.9142 311.165 48 256 48ZM512 256C512 323.895 485.029 389.01 437.019 437.019C389.01 485.029 323.895 512 256 512C188.105 512 122.99 485.029 74.9807 437.019C26.9714 389.01 0 323.895 0 256C0 188.105 26.9714 122.99 74.9807 74.9807C122.99 26.9714 188.105 0 256 0C323.895 0 389.01 26.9714 437.019 74.9807C485.029 122.99 512 188.105 512 256ZM144.4 208C144.4 199.513 147.771 191.374 153.773 185.373C159.774 179.371 167.913 176 176.4 176C184.887 176 193.026 179.371 199.027 185.373C205.029 191.374 208.4 199.513 208.4 208C208.4 216.487 205.029 224.626 199.027 230.627C193.026 236.629 184.887 240 176.4 240C167.913 240 159.774 236.629 153.773 230.627C147.771 224.626 144.4 216.487 144.4 208ZM336.4 176C344.887 176 353.026 179.371 359.027 185.373C365.029 191.374 368.4 199.513 368.4 208C368.4 216.487 365.029 224.626 359.027 230.627C353.026 236.629 344.887 240 336.4 240C327.913 240 319.774 236.629 313.773 230.627C307.771 224.626 304.4 216.487 304.4 208C304.4 199.513 307.771 191.374 313.773 185.373C319.774 179.371 327.913 176 336.4 176Z" fill="black"/>
</g>
</g>
</g>
</g>
</g>
</g>
</g>
</g>
</g>
</g>
</g>
</g>
</g>
</g>
</g>
<defs>
<clipPath id="clip0_3932_17999">
<rect width="512" height="512" fill="white"/>
</clipPath>
</defs>
</svg>
