<svg width="512" height="512" viewBox="0 0 512 512" fill="none" xmlns="http://www.w3.org/2000/svg">
<g clip-path="url(#clip0_3932_16897)">
<mask id="mask0_3932_16897" style="mask-type:luminance" maskUnits="userSpaceOnUse" x="0" y="0" width="512" height="512">
<path d="M512 0H0V512H512V0Z" fill="white"/>
</mask>
<g mask="url(#mask0_3932_16897)">
<mask id="mask1_3932_16897" style="mask-type:luminance" maskUnits="userSpaceOnUse" x="0" y="0" width="512" height="512">
<path d="M512 0H0V512H512V0Z" fill="white"/>
</mask>
<g mask="url(#mask1_3932_16897)">
<mask id="mask2_3932_16897" style="mask-type:luminance" maskUnits="userSpaceOnUse" x="0" y="0" width="512" height="512">
<path d="M512 0H0V512H512V0Z" fill="white"/>
</mask>
<g mask="url(#mask2_3932_16897)">
<mask id="mask3_3932_16897" style="mask-type:luminance" maskUnits="userSpaceOnUse" x="0" y="0" width="512" height="512">
<path d="M512 0H0V512H512V0Z" fill="white"/>
</mask>
<g mask="url(#mask3_3932_16897)">
<mask id="mask4_3932_16897" style="mask-type:luminance" maskUnits="userSpaceOnUse" x="0" y="0" width="512" height="512">
<path d="M512 0H0V512H512V0Z" fill="white"/>
</mask>
<g mask="url(#mask4_3932_16897)">
<mask id="mask5_3932_16897" style="mask-type:luminance" maskUnits="userSpaceOnUse" x="0" y="0" width="512" height="512">
<path d="M512 0H0V512H512V0Z" fill="white"/>
</mask>
<g mask="url(#mask5_3932_16897)">
<mask id="mask6_3932_16897" style="mask-type:luminance" maskUnits="userSpaceOnUse" x="0" y="0" width="512" height="512">
<path d="M512 0H0V512H512V0Z" fill="white"/>
</mask>
<g mask="url(#mask6_3932_16897)">
<mask id="mask7_3932_16897" style="mask-type:luminance" maskUnits="userSpaceOnUse" x="0" y="0" width="512" height="512">
<path d="M512 0H0V512H512V0Z" fill="white"/>
</mask>
<g mask="url(#mask7_3932_16897)">
<mask id="mask8_3932_16897" style="mask-type:luminance" maskUnits="userSpaceOnUse" x="0" y="0" width="512" height="512">
<path d="M512 0H0V512H512V0Z" fill="white"/>
</mask>
<g mask="url(#mask8_3932_16897)">
<mask id="mask9_3932_16897" style="mask-type:luminance" maskUnits="userSpaceOnUse" x="0" y="0" width="512" height="512">
<path d="M512 0H0V512H512V0Z" fill="white"/>
</mask>
<g mask="url(#mask9_3932_16897)">
<mask id="mask10_3932_16897" style="mask-type:luminance" maskUnits="userSpaceOnUse" x="0" y="0" width="512" height="512">
<path d="M512 0H0V512H512V0Z" fill="white"/>
</mask>
<g mask="url(#mask10_3932_16897)">
<mask id="mask11_3932_16897" style="mask-type:luminance" maskUnits="userSpaceOnUse" x="0" y="0" width="512" height="512">
<path d="M512 0H0V512H512V0Z" fill="white"/>
</mask>
<g mask="url(#mask11_3932_16897)">
<mask id="mask12_3932_16897" style="mask-type:luminance" maskUnits="userSpaceOnUse" x="0" y="0" width="512" height="512">
<path d="M512 0H0V512H512V0Z" fill="white"/>
</mask>
<g mask="url(#mask12_3932_16897)">
<mask id="mask13_3932_16897" style="mask-type:luminance" maskUnits="userSpaceOnUse" x="0" y="0" width="512" height="512">
<path d="M512 0H0V512H512V0Z" fill="white"/>
</mask>
<g mask="url(#mask13_3932_16897)">
<path d="M476.8 126.3C497.1 120.8 512 102.7 512 81C512 61 483.4 20.6 470.4 3.3C467.2 -1.1 460.8 -1.1 457.6 3.3C448.1 15.9 430.5 40.5 421.6 60.8C421.3 61.5 421 62.2 420.7 62.9C417.8 69.7 416 76 416 81C416 107 437.5 128 464 128C468.4 128 472.7 127.4 476.8 126.3ZM395.4 41.2C355.3 15.2 307.4 1.78814e-06 256 1.78814e-06C114.6 1.78814e-06 0 114.6 0 256C0 397.4 114.6 512 256 512C397.4 512 512 397.4 512 256C512 220.2 504.7 186.1 491.4 155.2C482.8 158.3 473.6 160 464 160C455.1 160 446.4 158.5 438.3 155.8C454.7 185.5 464 219.7 464 256C464 370.9 370.9 464 256 464C141.1 464 48 370.9 48 256C48 141.1 141.1 48 256 48C304.7 48 349.4 64.7 384.9 92.7C384.3 88.9 384 85 384 81C384 69.6 387.8 58.6 391.1 50.5C392.4 47.4 393.8 44.3 395.4 41.2ZM375 336.5C385.4 320.4 368.2 304 349.5 308.4C320.6 315.2 289 318.9 255.9 318.9C222.8 318.9 191.2 315.2 162.3 308.4C143.6 304 126.4 320.4 136.8 336.5C161.4 374.6 205.5 400 255.9 400C306.3 400 350.4 374.6 375 336.5ZM217.6 228.8C219.7 231.6 223.3 232.7 226.5 231.6C229.7 230.5 232 227.5 232 224C232 206.1 225.3 188.4 215.4 175.2C205.6 162.2 191.5 152 176 152C160.5 152 146.4 162.2 136.6 175.2C126.7 188.4 120 206.1 120 224C120 227.4 122.2 230.5 125.5 231.6C128.8 232.7 132.4 231.6 134.4 228.8L134.6 228.6C134.8 228.4 135 228.1 135.3 227.7C135.9 226.9 136.9 225.7 138.1 224.3C140.6 221.5 144.1 217.7 148.3 214C157.1 206.2 167.1 200 176 200C184.9 200 194.9 206.2 203.7 214C207.9 217.7 211.4 221.5 213.9 224.3C215.1 225.7 216.1 226.9 216.7 227.7C217 228.1 217.3 228.4 217.4 228.6L217.6 228.8ZM377.6 228.8C379.7 231.6 383.3 232.7 386.5 231.6C389.7 230.5 392 227.5 392 224C392 206.1 385.3 188.4 375.4 175.2C365.6 162.2 351.5 152 336 152C320.5 152 306.4 162.2 296.6 175.2C286.7 188.4 280 206.1 280 224C280 227.4 282.2 230.5 285.5 231.6C288.8 232.7 292.4 231.6 294.4 228.8L294.6 228.6C294.8 228.4 295 228.1 295.3 227.7C295.9 226.9 296.9 225.7 298.1 224.3C300.6 221.5 304.1 217.7 308.3 214C317.1 206.2 327.1 200 336 200C344.9 200 354.9 206.2 363.7 214C367.9 217.7 371.4 221.5 373.9 224.3C375.1 225.7 376.1 226.9 376.7 227.7C377 228.1 377.3 228.4 377.4 228.6L377.6 228.8Z" fill="black"/>
</g>
</g>
</g>
</g>
</g>
</g>
</g>
</g>
</g>
</g>
</g>
</g>
</g>
</g>
</g>
<defs>
<clipPath id="clip0_3932_16897">
<rect width="512" height="512" fill="white"/>
</clipPath>
</defs>
</svg>
