<svg width="512" height="512" viewBox="0 0 512 512" fill="none" xmlns="http://www.w3.org/2000/svg">
<g clip-path="url(#clip0_3932_18115)">
<mask id="mask0_3932_18115" style="mask-type:luminance" maskUnits="userSpaceOnUse" x="0" y="0" width="512" height="512">
<path d="M512 0H0V512H512V0Z" fill="white"/>
</mask>
<g mask="url(#mask0_3932_18115)">
<mask id="mask1_3932_18115" style="mask-type:luminance" maskUnits="userSpaceOnUse" x="0" y="0" width="512" height="512">
<path d="M512 0H0V512H512V0Z" fill="white"/>
</mask>
<g mask="url(#mask1_3932_18115)">
<mask id="mask2_3932_18115" style="mask-type:luminance" maskUnits="userSpaceOnUse" x="0" y="0" width="512" height="512">
<path d="M512 0H0V512H512V0Z" fill="white"/>
</mask>
<g mask="url(#mask2_3932_18115)">
<mask id="mask3_3932_18115" style="mask-type:luminance" maskUnits="userSpaceOnUse" x="0" y="0" width="512" height="512">
<path d="M512 0H0V512H512V0Z" fill="white"/>
</mask>
<g mask="url(#mask3_3932_18115)">
<mask id="mask4_3932_18115" style="mask-type:luminance" maskUnits="userSpaceOnUse" x="0" y="0" width="512" height="512">
<path d="M512 0H0V512H512V0Z" fill="white"/>
</mask>
<g mask="url(#mask4_3932_18115)">
<mask id="mask5_3932_18115" style="mask-type:luminance" maskUnits="userSpaceOnUse" x="0" y="0" width="512" height="512">
<path d="M512 0H0V512H512V0Z" fill="white"/>
</mask>
<g mask="url(#mask5_3932_18115)">
<mask id="mask6_3932_18115" style="mask-type:luminance" maskUnits="userSpaceOnUse" x="0" y="0" width="512" height="512">
<path d="M512 0H0V512H512V0Z" fill="white"/>
</mask>
<g mask="url(#mask6_3932_18115)">
<mask id="mask7_3932_18115" style="mask-type:luminance" maskUnits="userSpaceOnUse" x="0" y="0" width="512" height="512">
<path d="M512 0H0V512H512V0Z" fill="white"/>
</mask>
<g mask="url(#mask7_3932_18115)">
<mask id="mask8_3932_18115" style="mask-type:luminance" maskUnits="userSpaceOnUse" x="0" y="0" width="512" height="512">
<path d="M512 0H0V512H512V0Z" fill="white"/>
</mask>
<g mask="url(#mask8_3932_18115)">
<mask id="mask9_3932_18115" style="mask-type:luminance" maskUnits="userSpaceOnUse" x="0" y="0" width="512" height="512">
<path d="M512 0H0V512H512V0Z" fill="white"/>
</mask>
<g mask="url(#mask9_3932_18115)">
<mask id="mask10_3932_18115" style="mask-type:luminance" maskUnits="userSpaceOnUse" x="0" y="0" width="512" height="512">
<path d="M512 0H0V512H512V0Z" fill="white"/>
</mask>
<g mask="url(#mask10_3932_18115)">
<mask id="mask11_3932_18115" style="mask-type:luminance" maskUnits="userSpaceOnUse" x="0" y="0" width="512" height="512">
<path d="M512 0H0V512H512V0Z" fill="white"/>
</mask>
<g mask="url(#mask11_3932_18115)">
<mask id="mask12_3932_18115" style="mask-type:luminance" maskUnits="userSpaceOnUse" x="0" y="0" width="512" height="512">
<path d="M512 0H0V512H512V0Z" fill="white"/>
</mask>
<g mask="url(#mask12_3932_18115)">
<mask id="mask13_3932_18115" style="mask-type:luminance" maskUnits="userSpaceOnUse" x="0" y="0" width="512" height="512">
<path d="M512 0H0V512H512V0Z" fill="white"/>
</mask>
<g mask="url(#mask13_3932_18115)">
<path d="M400 406.1V288C400 274.7 389.3 264 376 264C362.7 264 352 274.7 352 288V440.6C323.3 455.6 290.6 464 256 464C221.4 464 188.7 455.5 160 440.6V288C160 274.7 149.3 264 136 264C122.7 264 112 274.7 112 288V406.1C72.6 368.2 48 315 48 256C48 141.1 141.1 48 256 48C370.9 48 464 141.1 464 256C464 315 439.4 368.2 400 406.1ZM256 512C323.895 512 389.01 485.029 437.019 437.019C485.029 389.01 512 323.895 512 256C512 188.105 485.029 122.99 437.019 74.9807C389.01 26.9714 323.895 0 256 0C188.105 0 122.99 26.9714 74.9807 74.9807C26.9714 122.99 0 188.105 0 256C0 323.895 26.9714 389.01 74.9807 437.019C122.99 485.029 188.105 512 256 512ZM159.6 220C170.2 220 179.5 223.8 185 229.7C192.6 237.8 205.2 238.2 213.3 230.6C221.4 223 221.8 210.4 214.2 202.3C199.7 186.8 179 180 159.6 180C140.2 180 119.5 186.8 105 202.3C97.4 210.4 97.9 223 105.9 230.6C113.9 238.2 126.6 237.7 134.2 229.7C139.7 223.9 149 220 159.6 220ZM326.2 229.7C331.7 223.9 341 220 351.6 220C362.2 220 371.5 223.8 377 229.7C384.6 237.8 397.2 238.2 405.3 230.6C413.4 223 413.8 210.4 406.2 202.3C391.7 186.8 371 180 351.6 180C332.2 180 311.5 186.8 297 202.3C289.4 210.4 289.9 223 297.9 230.6C305.9 238.2 318.6 237.7 326.2 229.7ZM208 320V352C208 378.5 229.5 400 256 400C282.5 400 304 378.5 304 352V320C304 293.5 282.5 272 256 272C229.5 272 208 293.5 208 320Z" fill="black"/>
</g>
</g>
</g>
</g>
</g>
</g>
</g>
</g>
</g>
</g>
</g>
</g>
</g>
</g>
</g>
<defs>
<clipPath id="clip0_3932_18115">
<rect width="512" height="512" fill="white"/>
</clipPath>
</defs>
</svg>
