<svg width="640" height="512" viewBox="0 0 640 512" fill="none" xmlns="http://www.w3.org/2000/svg">
<g clip-path="url(#clip0_3932_17187)">
<mask id="mask0_3932_17187" style="mask-type:luminance" maskUnits="userSpaceOnUse" x="0" y="0" width="640" height="512">
<path d="M640 0H0V512H640V0Z" fill="white"/>
</mask>
<g mask="url(#mask0_3932_17187)">
<mask id="mask1_3932_17187" style="mask-type:luminance" maskUnits="userSpaceOnUse" x="0" y="0" width="640" height="512">
<path d="M640 0H0V512H640V0Z" fill="white"/>
</mask>
<g mask="url(#mask1_3932_17187)">
<mask id="mask2_3932_17187" style="mask-type:luminance" maskUnits="userSpaceOnUse" x="0" y="0" width="640" height="512">
<path d="M640 0H0V512H640V0Z" fill="white"/>
</mask>
<g mask="url(#mask2_3932_17187)">
<mask id="mask3_3932_17187" style="mask-type:luminance" maskUnits="userSpaceOnUse" x="0" y="0" width="640" height="512">
<path d="M640 0H0V512H640V0Z" fill="white"/>
</mask>
<g mask="url(#mask3_3932_17187)">
<mask id="mask4_3932_17187" style="mask-type:luminance" maskUnits="userSpaceOnUse" x="0" y="0" width="640" height="512">
<path d="M640 0H0V512H640V0Z" fill="white"/>
</mask>
<g mask="url(#mask4_3932_17187)">
<mask id="mask5_3932_17187" style="mask-type:luminance" maskUnits="userSpaceOnUse" x="0" y="0" width="640" height="512">
<path d="M640 0H0V512H640V0Z" fill="white"/>
</mask>
<g mask="url(#mask5_3932_17187)">
<mask id="mask6_3932_17187" style="mask-type:luminance" maskUnits="userSpaceOnUse" x="0" y="0" width="640" height="512">
<path d="M640 0H0V512H640V0Z" fill="white"/>
</mask>
<g mask="url(#mask6_3932_17187)">
<mask id="mask7_3932_17187" style="mask-type:luminance" maskUnits="userSpaceOnUse" x="0" y="0" width="640" height="512">
<path d="M640 0H0V512H640V0Z" fill="white"/>
</mask>
<g mask="url(#mask7_3932_17187)">
<mask id="mask8_3932_17187" style="mask-type:luminance" maskUnits="userSpaceOnUse" x="0" y="0" width="640" height="512">
<path d="M640 0H0V512H640V0Z" fill="white"/>
</mask>
<g mask="url(#mask8_3932_17187)">
<mask id="mask9_3932_17187" style="mask-type:luminance" maskUnits="userSpaceOnUse" x="0" y="0" width="640" height="512">
<path d="M640 0H0V512H640V0Z" fill="white"/>
</mask>
<g mask="url(#mask9_3932_17187)">
<mask id="mask10_3932_17187" style="mask-type:luminance" maskUnits="userSpaceOnUse" x="0" y="0" width="640" height="512">
<path d="M640 0H0V512H640V0Z" fill="white"/>
</mask>
<g mask="url(#mask10_3932_17187)">
<mask id="mask11_3932_17187" style="mask-type:luminance" maskUnits="userSpaceOnUse" x="0" y="0" width="640" height="512">
<path d="M640 0H0V512H640V0Z" fill="white"/>
</mask>
<g mask="url(#mask11_3932_17187)">
<mask id="mask12_3932_17187" style="mask-type:luminance" maskUnits="userSpaceOnUse" x="0" y="0" width="640" height="512">
<path d="M640 0H0V512H640V0Z" fill="white"/>
</mask>
<g mask="url(#mask12_3932_17187)">
<mask id="mask13_3932_17187" style="mask-type:luminance" maskUnits="userSpaceOnUse" x="0" y="0" width="640" height="512">
<path d="M640 0H0V512H640V0Z" fill="white"/>
</mask>
<g mask="url(#mask13_3932_17187)">
<path d="M516.097 325.5C517.097 328.5 518.197 331.5 519.397 334.4C522.697 342.5 527.797 352.9 535.897 361C539.797 364.9 544.097 368.4 548.597 371.3C506.397 454.8 419.897 512 319.997 512C220.097 512 133.597 454.8 91.3968 371.4C95.8968 368.5 100.097 365.1 104.097 361.1C112.197 353 117.297 342.5 120.597 334.5C121.797 331.6 122.897 328.6 123.897 325.6C152.497 406.2 229.497 464 319.997 464C410.497 464 487.497 406.2 516.097 325.5ZM319.997 48C218.597 48 134.197 120.5 115.697 216.5C108.997 213.4 101.397 212.2 93.3968 213.4C86.5968 214.3 77.1968 215.8 66.7968 217.8C85.2968 94.5 191.597 0 319.997 0C448.397 0 554.697 94.5 573.197 217.7C562.897 215.7 553.397 214.2 546.597 213.3C538.597 212.1 530.897 213.4 524.297 216.4C505.797 120.5 421.397 48 319.997 48ZM78.4968 341.1C59.9968 356.7 31.9968 355.5 14.2968 337.7C-4.40319 319 -4.80319 288.9 13.5968 270.5C22.1968 261.9 43.6968 255.4 64.0968 250.9C77.0968 248.1 89.5968 246.1 97.9968 244.9C103.397 244.1 107.897 248.6 106.997 253.9C103.897 275.4 95.5968 324.1 81.4968 338.3C80.5968 339.3 79.5968 340.1 78.5968 341L78.4968 341.1ZM561.497 341.1C560.697 340.5 559.997 339.8 559.197 339.1C558.997 338.9 558.697 338.7 558.497 338.4C544.397 324.3 535.997 275.5 532.997 254C532.197 248.6 536.697 244.1 541.997 245C542.997 245.1 544.197 245.3 545.297 245.5C553.497 246.7 564.497 248.5 575.897 251C596.297 255.4 617.797 261.9 626.397 270.6C644.797 289 644.397 319.1 625.697 337.8C607.997 355.5 579.997 356.8 561.497 341.2V341.1ZM438.997 336.5C414.397 374.6 370.297 400 319.897 400C269.497 400 225.397 374.6 200.797 336.5C190.397 320.4 207.597 304 226.297 308.4C255.197 315.2 286.797 318.9 319.897 318.9C352.997 318.9 384.597 315.2 413.497 308.4C432.197 304 449.397 320.4 438.997 336.5ZM281.597 228.8L281.397 228.6C281.197 228.4 280.997 228.1 280.697 227.7C280.097 226.9 279.097 225.7 277.897 224.3C275.397 221.5 271.897 217.7 267.697 214C258.897 206.2 248.897 200 239.997 200C231.097 200 221.097 206.2 212.297 214C208.097 217.7 204.597 221.5 202.097 224.3C200.897 225.7 199.897 226.9 199.297 227.7C198.997 228.1 198.697 228.4 198.597 228.6L198.397 228.8C196.297 231.6 192.697 232.7 189.497 231.6C186.297 230.5 183.997 227.5 183.997 224C183.997 206.1 190.697 188.4 200.597 175.2C210.397 162.2 224.497 152 239.997 152C255.497 152 269.597 162.2 279.397 175.2C289.297 188.4 295.997 206.1 295.997 224C295.997 227.4 293.797 230.5 290.497 231.6C287.197 232.7 283.597 231.6 281.597 228.8ZM441.597 228.8L441.397 228.6C441.197 228.4 440.997 228.1 440.697 227.7C440.097 226.9 439.097 225.7 437.897 224.3C435.397 221.5 431.897 217.7 427.697 214C418.897 206.2 408.897 200 399.997 200C391.097 200 381.097 206.2 372.297 214C368.097 217.7 364.597 221.5 362.097 224.3C360.897 225.7 359.897 226.9 359.297 227.7C358.997 228.1 358.697 228.4 358.597 228.6L358.397 228.8C356.297 231.6 352.697 232.7 349.497 231.6C346.297 230.5 343.997 227.5 343.997 224C343.997 206.1 350.697 188.4 360.597 175.2C370.397 162.2 384.497 152 399.997 152C415.497 152 429.597 162.2 439.397 175.2C449.297 188.4 455.997 206.1 455.997 224C455.997 227.4 453.797 230.5 450.497 231.6C447.197 232.7 443.597 231.6 441.597 228.8Z" fill="black"/>
</g>
</g>
</g>
</g>
</g>
</g>
</g>
</g>
</g>
</g>
</g>
</g>
</g>
</g>
</g>
<defs>
<clipPath id="clip0_3932_17187">
<rect width="640" height="512" fill="white"/>
</clipPath>
</defs>
</svg>
