<svg width="512" height="512" viewBox="0 0 512 512" fill="none" xmlns="http://www.w3.org/2000/svg">
<g clip-path="url(#clip0_3932_18463)">
<mask id="mask0_3932_18463" style="mask-type:luminance" maskUnits="userSpaceOnUse" x="0" y="0" width="512" height="512">
<path d="M512 0H0V512H512V0Z" fill="white"/>
</mask>
<g mask="url(#mask0_3932_18463)">
<mask id="mask1_3932_18463" style="mask-type:luminance" maskUnits="userSpaceOnUse" x="0" y="0" width="512" height="512">
<path d="M512 0H0V512H512V0Z" fill="white"/>
</mask>
<g mask="url(#mask1_3932_18463)">
<mask id="mask2_3932_18463" style="mask-type:luminance" maskUnits="userSpaceOnUse" x="0" y="0" width="512" height="512">
<path d="M512 0H0V512H512V0Z" fill="white"/>
</mask>
<g mask="url(#mask2_3932_18463)">
<mask id="mask3_3932_18463" style="mask-type:luminance" maskUnits="userSpaceOnUse" x="0" y="0" width="512" height="512">
<path d="M512 0H0V512H512V0Z" fill="white"/>
</mask>
<g mask="url(#mask3_3932_18463)">
<mask id="mask4_3932_18463" style="mask-type:luminance" maskUnits="userSpaceOnUse" x="0" y="0" width="512" height="512">
<path d="M512 0H0V512H512V0Z" fill="white"/>
</mask>
<g mask="url(#mask4_3932_18463)">
<mask id="mask5_3932_18463" style="mask-type:luminance" maskUnits="userSpaceOnUse" x="0" y="0" width="512" height="512">
<path d="M512 0H0V512H512V0Z" fill="white"/>
</mask>
<g mask="url(#mask5_3932_18463)">
<mask id="mask6_3932_18463" style="mask-type:luminance" maskUnits="userSpaceOnUse" x="0" y="0" width="512" height="512">
<path d="M512 0H0V512H512V0Z" fill="white"/>
</mask>
<g mask="url(#mask6_3932_18463)">
<mask id="mask7_3932_18463" style="mask-type:luminance" maskUnits="userSpaceOnUse" x="0" y="0" width="512" height="512">
<path d="M512 0H0V512H512V0Z" fill="white"/>
</mask>
<g mask="url(#mask7_3932_18463)">
<mask id="mask8_3932_18463" style="mask-type:luminance" maskUnits="userSpaceOnUse" x="0" y="0" width="512" height="512">
<path d="M512 0H0V512H512V0Z" fill="white"/>
</mask>
<g mask="url(#mask8_3932_18463)">
<mask id="mask9_3932_18463" style="mask-type:luminance" maskUnits="userSpaceOnUse" x="0" y="0" width="512" height="512">
<path d="M512 0H0V512H512V0Z" fill="white"/>
</mask>
<g mask="url(#mask9_3932_18463)">
<mask id="mask10_3932_18463" style="mask-type:luminance" maskUnits="userSpaceOnUse" x="0" y="0" width="512" height="512">
<path d="M512 0H0V512H512V0Z" fill="white"/>
</mask>
<g mask="url(#mask10_3932_18463)">
<mask id="mask11_3932_18463" style="mask-type:luminance" maskUnits="userSpaceOnUse" x="0" y="0" width="512" height="512">
<path d="M512 0H0V512H512V0Z" fill="white"/>
</mask>
<g mask="url(#mask11_3932_18463)">
<mask id="mask12_3932_18463" style="mask-type:luminance" maskUnits="userSpaceOnUse" x="0" y="0" width="512" height="512">
<path d="M512 0H0V512H512V0Z" fill="white"/>
</mask>
<g mask="url(#mask12_3932_18463)">
<mask id="mask13_3932_18463" style="mask-type:luminance" maskUnits="userSpaceOnUse" x="0" y="0" width="512" height="512">
<path d="M512 0H0V512H512V0Z" fill="white"/>
</mask>
<g mask="url(#mask13_3932_18463)">
<path d="M464 256C464 200.835 442.086 147.929 403.078 108.922C364.071 69.9142 311.165 48 256 48C200.835 48 147.929 69.9142 108.922 108.922C69.9142 147.929 48 200.835 48 256C48 311.165 69.9142 364.071 108.922 403.078C147.929 442.086 200.835 464 256 464C311.165 464 364.071 442.086 403.078 403.078C442.086 364.071 464 311.165 464 256ZM0 256C0 188.105 26.9714 122.99 74.9807 74.9807C122.99 26.9714 188.105 0 256 0C323.895 0 389.01 26.9714 437.019 74.9807C485.029 122.99 512 188.105 512 256C512 323.895 485.029 389.01 437.019 437.019C389.01 485.029 323.895 512 256 512C188.105 512 122.99 485.029 74.9807 437.019C26.9714 389.01 0 323.895 0 256ZM176.5 320.3C196.1 302.1 223.8 288 256 288C288.2 288 315.9 302.1 335.5 320.3C354.5 338.1 368 362 368 384C368 389.4 365.3 394.4 360.8 397.4C356.3 400.4 350.6 400.8 345.6 398.7L328.4 391.2C305.6 381.2 280.9 376.1 256 376.1C231.1 376.1 206.4 381.3 183.6 391.2L166.4 398.7C161.5 400.9 155.7 400.4 151.2 397.4C146.7 394.4 144 389.4 144 384C144 362 157.5 338.1 176.5 320.3ZM133.5 146.7L223.4 194.6C234.1 200.3 234.1 215.7 223.4 221.4L133.5 269.3C125.6 273.5 116 267.8 116 258.8C116 256 117 253.3 118.8 251.2L154.8 208L118.8 164.8C117 162.7 116 160 116 157.2C116 148.2 125.6 142.5 133.5 146.7ZM396 157.1C396 159.9 395 162.6 393.2 164.7L357.2 207.9L393.2 251.1C395 253.2 396 255.9 396 258.7C396 267.7 386.4 273.4 378.5 269.2L288.6 221.3C277.9 215.6 277.9 200.2 288.6 194.5L378.5 146.6C386.4 142.4 396 148.1 396 157.1Z" fill="black"/>
</g>
</g>
</g>
</g>
</g>
</g>
</g>
</g>
</g>
</g>
</g>
</g>
</g>
</g>
</g>
<defs>
<clipPath id="clip0_3932_18463">
<rect width="512" height="512" fill="white"/>
</clipPath>
</defs>
</svg>
