<svg width="512" height="512" viewBox="0 0 512 512" fill="none" xmlns="http://www.w3.org/2000/svg">
<path d="M192 96V108L96 96C78.3 96 64 110.3 64 128C64 145.7 78.3 160 96 160L192 148L223 144.1L224 144L225 144.1L256 148L352 160C369.7 160 384 145.7 384 128C384 110.3 369.7 96 352 96L256 108V96C256 78.3 241.7 64 224 64C206.3 64 192 78.3 192 96ZM32 256C14.3 256 0 270.3 0 288V352C0 369.7 14.3 384 32 384H132.1C152.3 413 186 432 224 432C262 432 295.7 413 315.9 384H352C369.7 384 384 398.3 384 416C384 433.7 398.3 448 416 448H480C497.7 448 512 433.7 512 416C512 327.6 440.4 256 352 256H320L297.4 233.4C291.4 227.4 283.3 224 274.8 224H256V180.2L224 176.2L192 180.2V224H173.3C164.8 224 156.7 227.4 150.7 233.4L128 256H32Z" fill="black"/>
</svg>
