<svg width="448" height="512" viewBox="0 0 448 512" fill="none" xmlns="http://www.w3.org/2000/svg">
<path d="M96 0C60.7 0 32 28.7 32 64V288H144C150.1 288 155.6 291.4 158.3 296.8L176 332.2L225.7 232.8C228.4 227.4 234 224 240 224C246 224 251.6 227.4 254.3 232.8L281.9 288H352C360.8 288 368 295.2 368 304C368 312.8 360.8 320 352 320H272C265.9 320 260.4 316.6 257.7 311.2L240 275.8L190.3 375.2C187.6 380.6 182 384 176 384C170 384 164.4 380.6 161.7 375.2L134.1 320H32V448C32 483.3 60.7 512 96 512H352C387.3 512 416 483.3 416 448V160H288C270.3 160 256 145.7 256 128V0H96ZM288 0V128H416L288 0Z" fill="black"/>
</svg>
