<svg width="576" height="512" viewBox="0 0 576 512" fill="none" xmlns="http://www.w3.org/2000/svg">
<g clip-path="url(#clip0_3932_20331)">
<mask id="mask0_3932_20331" style="mask-type:luminance" maskUnits="userSpaceOnUse" x="0" y="0" width="576" height="512">
<path d="M576 0H0V512H576V0Z" fill="white"/>
</mask>
<g mask="url(#mask0_3932_20331)">
<mask id="mask1_3932_20331" style="mask-type:luminance" maskUnits="userSpaceOnUse" x="0" y="0" width="576" height="512">
<path d="M576 0H0V512H576V0Z" fill="white"/>
</mask>
<g mask="url(#mask1_3932_20331)">
<mask id="mask2_3932_20331" style="mask-type:luminance" maskUnits="userSpaceOnUse" x="0" y="0" width="576" height="512">
<path d="M576 0H0V512H576V0Z" fill="white"/>
</mask>
<g mask="url(#mask2_3932_20331)">
<mask id="mask3_3932_20331" style="mask-type:luminance" maskUnits="userSpaceOnUse" x="0" y="0" width="576" height="512">
<path d="M576 0H0V512H576V0Z" fill="white"/>
</mask>
<g mask="url(#mask3_3932_20331)">
<mask id="mask4_3932_20331" style="mask-type:luminance" maskUnits="userSpaceOnUse" x="0" y="0" width="576" height="512">
<path d="M576 0H0V512H576V0Z" fill="white"/>
</mask>
<g mask="url(#mask4_3932_20331)">
<mask id="mask5_3932_20331" style="mask-type:luminance" maskUnits="userSpaceOnUse" x="0" y="0" width="576" height="512">
<path d="M576 0H0V512H576V0Z" fill="white"/>
</mask>
<g mask="url(#mask5_3932_20331)">
<mask id="mask6_3932_20331" style="mask-type:luminance" maskUnits="userSpaceOnUse" x="0" y="0" width="576" height="512">
<path d="M576 0H0V512H576V0Z" fill="white"/>
</mask>
<g mask="url(#mask6_3932_20331)">
<mask id="mask7_3932_20331" style="mask-type:luminance" maskUnits="userSpaceOnUse" x="0" y="0" width="576" height="512">
<path d="M576 0H0V512H576V0Z" fill="white"/>
</mask>
<g mask="url(#mask7_3932_20331)">
<mask id="mask8_3932_20331" style="mask-type:luminance" maskUnits="userSpaceOnUse" x="0" y="0" width="576" height="512">
<path d="M576 0H0V512H576V0Z" fill="white"/>
</mask>
<g mask="url(#mask8_3932_20331)">
<mask id="mask9_3932_20331" style="mask-type:luminance" maskUnits="userSpaceOnUse" x="0" y="0" width="576" height="512">
<path d="M576 0H0V512H576V0Z" fill="white"/>
</mask>
<g mask="url(#mask9_3932_20331)">
<mask id="mask10_3932_20331" style="mask-type:luminance" maskUnits="userSpaceOnUse" x="0" y="0" width="576" height="512">
<path d="M576 0H0V512H576V0Z" fill="white"/>
</mask>
<g mask="url(#mask10_3932_20331)">
<mask id="mask11_3932_20331" style="mask-type:luminance" maskUnits="userSpaceOnUse" x="0" y="0" width="576" height="512">
<path d="M576 0H0V512H576V0Z" fill="white"/>
</mask>
<g mask="url(#mask11_3932_20331)">
<mask id="mask12_3932_20331" style="mask-type:luminance" maskUnits="userSpaceOnUse" x="0" y="0" width="576" height="512">
<path d="M576 0H0V512H576V0Z" fill="white"/>
</mask>
<g mask="url(#mask12_3932_20331)">
<mask id="mask13_3932_20331" style="mask-type:luminance" maskUnits="userSpaceOnUse" x="0" y="0" width="576" height="512">
<path d="M576 0H0V512H576V0Z" fill="white"/>
</mask>
<g mask="url(#mask13_3932_20331)">
<path d="M64 0C28.7 0 0 28.7 0 64V448C0 483.3 28.7 512 64 512H320C355.3 512 384 483.3 384 448V428.7C381.3 429.8 378.6 430.7 375.8 431.4L315.7 446.4C312.7 447.1 309.7 447.6 306.7 447.8C305.8 447.9 304.9 448 304 448H240C233.9 448 228.4 444.6 225.7 439.2L216.9 421.5C215.2 418.1 211.8 416 208.1 416C204.4 416 200.9 418.1 199.3 421.5L190.5 439.2C187.6 445.1 181.3 448.6 174.8 448C168.3 447.4 162.7 442.9 160.9 436.7L144 381L134.2 413.8C128.1 434.1 109.4 448 88.2 448H80C71.2 448 64 440.8 64 432C64 423.2 71.2 416 80 416H88.2C95.3 416 101.5 411.4 103.5 404.6L118.4 355.1C121.8 343.8 132.2 336 144 336C155.8 336 166.2 343.8 169.6 355.1L181.2 393.7C188.6 387.5 198 384 208 384C223.9 384 238.4 393 245.5 407.2L249.9 416H258.8C255.7 407.2 255.1 397.6 257.4 388.2L272.4 328.1C275.2 316.8 281 306.6 289.2 298.4L384 203.6V160H256C238.3 160 224 145.7 224 128V0H64ZM256 0V128H384L256 0ZM549.8 139.7C534.2 124.1 508.9 124.1 493.2 139.7L463.8 169.1L534.8 240.1L564.2 210.7C579.8 195.1 579.8 169.8 564.2 154.1L549.8 139.7ZM311.9 321C307.8 325.1 304.9 330.2 303.5 335.9L288.5 396C287.1 401.5 288.7 407.2 292.7 411.2C296.7 415.2 302.4 416.8 307.9 415.4L368 400.4C373.6 399 378.8 396.1 382.9 392L512.1 262.7L441.1 191.7L311.9 321Z" fill="black"/>
</g>
</g>
</g>
</g>
</g>
</g>
</g>
</g>
</g>
</g>
</g>
</g>
</g>
</g>
</g>
<defs>
<clipPath id="clip0_3932_20331">
<rect width="576" height="512" fill="white"/>
</clipPath>
</defs>
</svg>
