<svg width="384" height="512" viewBox="0 0 384 512" fill="none" xmlns="http://www.w3.org/2000/svg">
<g clip-path="url(#clip0_3932_19923)">
<mask id="mask0_3932_19923" style="mask-type:luminance" maskUnits="userSpaceOnUse" x="0" y="0" width="384" height="512">
<path d="M384 0H0V512H384V0Z" fill="white"/>
</mask>
<g mask="url(#mask0_3932_19923)">
<mask id="mask1_3932_19923" style="mask-type:luminance" maskUnits="userSpaceOnUse" x="0" y="0" width="384" height="512">
<path d="M384 0H0V512H384V0Z" fill="white"/>
</mask>
<g mask="url(#mask1_3932_19923)">
<mask id="mask2_3932_19923" style="mask-type:luminance" maskUnits="userSpaceOnUse" x="0" y="0" width="384" height="512">
<path d="M384 0H0V512H384V0Z" fill="white"/>
</mask>
<g mask="url(#mask2_3932_19923)">
<mask id="mask3_3932_19923" style="mask-type:luminance" maskUnits="userSpaceOnUse" x="0" y="0" width="384" height="512">
<path d="M384 0H0V512H384V0Z" fill="white"/>
</mask>
<g mask="url(#mask3_3932_19923)">
<mask id="mask4_3932_19923" style="mask-type:luminance" maskUnits="userSpaceOnUse" x="0" y="0" width="384" height="512">
<path d="M384 0H0V512H384V0Z" fill="white"/>
</mask>
<g mask="url(#mask4_3932_19923)">
<mask id="mask5_3932_19923" style="mask-type:luminance" maskUnits="userSpaceOnUse" x="0" y="0" width="384" height="512">
<path d="M384 0H0V512H384V0Z" fill="white"/>
</mask>
<g mask="url(#mask5_3932_19923)">
<mask id="mask6_3932_19923" style="mask-type:luminance" maskUnits="userSpaceOnUse" x="0" y="0" width="384" height="512">
<path d="M384 0H0V512H384V0Z" fill="white"/>
</mask>
<g mask="url(#mask6_3932_19923)">
<mask id="mask7_3932_19923" style="mask-type:luminance" maskUnits="userSpaceOnUse" x="0" y="0" width="384" height="512">
<path d="M384 0H0V512H384V0Z" fill="white"/>
</mask>
<g mask="url(#mask7_3932_19923)">
<mask id="mask8_3932_19923" style="mask-type:luminance" maskUnits="userSpaceOnUse" x="0" y="0" width="384" height="512">
<path d="M384 0H0V512H384V0Z" fill="white"/>
</mask>
<g mask="url(#mask8_3932_19923)">
<mask id="mask9_3932_19923" style="mask-type:luminance" maskUnits="userSpaceOnUse" x="0" y="0" width="384" height="512">
<path d="M384 0H0V512H384V0Z" fill="white"/>
</mask>
<g mask="url(#mask9_3932_19923)">
<mask id="mask10_3932_19923" style="mask-type:luminance" maskUnits="userSpaceOnUse" x="0" y="0" width="384" height="512">
<path d="M384 0H0V512H384V0Z" fill="white"/>
</mask>
<g mask="url(#mask10_3932_19923)">
<mask id="mask11_3932_19923" style="mask-type:luminance" maskUnits="userSpaceOnUse" x="0" y="0" width="384" height="512">
<path d="M384 0H0V512H384V0Z" fill="white"/>
</mask>
<g mask="url(#mask11_3932_19923)">
<mask id="mask12_3932_19923" style="mask-type:luminance" maskUnits="userSpaceOnUse" x="0" y="0" width="384" height="512">
<path d="M384 0H0V512H384V0Z" fill="white"/>
</mask>
<g mask="url(#mask12_3932_19923)">
<mask id="mask13_3932_19923" style="mask-type:luminance" maskUnits="userSpaceOnUse" x="0" y="0" width="384" height="512">
<path d="M384 0H0V512H384V0Z" fill="white"/>
</mask>
<g mask="url(#mask13_3932_19923)">
<path d="M64 0C28.7 0 0 28.7 0 64V448C0 483.3 28.7 512 64 512H320C355.3 512 384 483.3 384 448V160H256C238.3 160 224 145.7 224 128V0H64ZM256 0V128H384L256 0ZM64 80C64 71.2 71.2 64 80 64H144C152.8 64 160 71.2 160 80C160 88.8 152.8 96 144 96H80C71.2 96 64 88.8 64 80ZM64 144C64 135.2 71.2 128 80 128H144C152.8 128 160 135.2 160 144C160 152.8 152.8 160 144 160H80C71.2 160 64 152.8 64 144ZM192 216C200.8 216 208 223.2 208 232V249.3C216.5 250.5 224.7 252.4 232.1 254.4C240.6 256.7 245.7 265.4 243.4 274C241.1 282.6 232.4 287.6 223.8 285.3C212.7 282.3 201.8 280.1 191.7 280C183.3 279.9 174.3 281.8 168.1 285.5C162.4 288.9 160 292.8 160 298.3C160 302 161.3 304.8 167.3 308.4C174.2 312.5 183.9 315.5 196.5 319.3L197 319.4C208.3 322.8 222.3 327 233.3 334C245.4 341.6 255.7 353.7 256 372.2C256.3 391.5 246.4 405.5 233.1 413.8C225.4 418.6 216.7 421.4 208 422.9V440C208 448.8 200.8 456 192 456C183.2 456 176 448.8 176 440V422.2C164.8 420.1 154.3 416.5 145.1 413.3C143 412.6 140.9 411.9 138.9 411.2C130.5 408.4 126 399.3 128.8 391C131.6 382.7 140.7 378.1 149 380.9C151.5 381.7 153.8 382.5 156.1 383.3C169.7 387.9 180.7 391.7 192.4 392C201.5 392.3 210.3 390.3 216.1 386.7C221.2 383.5 224 379.4 223.9 372.7C223.8 368.1 222.1 364.9 216.2 361.1C209.4 356.8 199.7 353.7 187.2 349.9L185.6 349.4C174.6 346.1 161.3 342.1 150.8 335.7C138.8 328.5 128.2 316.8 128.1 298.4C128 279 138.9 265.6 151.9 257.9C159.4 253.5 167.7 250.7 176 249.2V232C176 223.2 183.2 216 192 216Z" fill="black"/>
</g>
</g>
</g>
</g>
</g>
</g>
</g>
</g>
</g>
</g>
</g>
</g>
</g>
</g>
</g>
<defs>
<clipPath id="clip0_3932_19923">
<rect width="384" height="512" fill="white"/>
</clipPath>
</defs>
</svg>
