<svg width="512" height="512" viewBox="0 0 512 512" fill="none" xmlns="http://www.w3.org/2000/svg">
<g clip-path="url(#clip0_3932_19575)">
<mask id="mask0_3932_19575" style="mask-type:luminance" maskUnits="userSpaceOnUse" x="0" y="0" width="512" height="512">
<path d="M512 0H0V512H512V0Z" fill="white"/>
</mask>
<g mask="url(#mask0_3932_19575)">
<mask id="mask1_3932_19575" style="mask-type:luminance" maskUnits="userSpaceOnUse" x="0" y="0" width="512" height="512">
<path d="M512 0H0V512H512V0Z" fill="white"/>
</mask>
<g mask="url(#mask1_3932_19575)">
<mask id="mask2_3932_19575" style="mask-type:luminance" maskUnits="userSpaceOnUse" x="0" y="0" width="512" height="512">
<path d="M512 0H0V512H512V0Z" fill="white"/>
</mask>
<g mask="url(#mask2_3932_19575)">
<mask id="mask3_3932_19575" style="mask-type:luminance" maskUnits="userSpaceOnUse" x="0" y="0" width="512" height="512">
<path d="M512 0H0V512H512V0Z" fill="white"/>
</mask>
<g mask="url(#mask3_3932_19575)">
<mask id="mask4_3932_19575" style="mask-type:luminance" maskUnits="userSpaceOnUse" x="0" y="0" width="512" height="512">
<path d="M512 0H0V512H512V0Z" fill="white"/>
</mask>
<g mask="url(#mask4_3932_19575)">
<mask id="mask5_3932_19575" style="mask-type:luminance" maskUnits="userSpaceOnUse" x="0" y="0" width="512" height="512">
<path d="M512 0H0V512H512V0Z" fill="white"/>
</mask>
<g mask="url(#mask5_3932_19575)">
<mask id="mask6_3932_19575" style="mask-type:luminance" maskUnits="userSpaceOnUse" x="0" y="0" width="512" height="512">
<path d="M512 0H0V512H512V0Z" fill="white"/>
</mask>
<g mask="url(#mask6_3932_19575)">
<mask id="mask7_3932_19575" style="mask-type:luminance" maskUnits="userSpaceOnUse" x="0" y="0" width="512" height="512">
<path d="M512 0H0V512H512V0Z" fill="white"/>
</mask>
<g mask="url(#mask7_3932_19575)">
<mask id="mask8_3932_19575" style="mask-type:luminance" maskUnits="userSpaceOnUse" x="0" y="0" width="512" height="512">
<path d="M512 0H0V512H512V0Z" fill="white"/>
</mask>
<g mask="url(#mask8_3932_19575)">
<mask id="mask9_3932_19575" style="mask-type:luminance" maskUnits="userSpaceOnUse" x="0" y="0" width="512" height="512">
<path d="M512 0H0V512H512V0Z" fill="white"/>
</mask>
<g mask="url(#mask9_3932_19575)">
<mask id="mask10_3932_19575" style="mask-type:luminance" maskUnits="userSpaceOnUse" x="0" y="0" width="512" height="512">
<path d="M512 0H0V512H512V0Z" fill="white"/>
</mask>
<g mask="url(#mask10_3932_19575)">
<mask id="mask11_3932_19575" style="mask-type:luminance" maskUnits="userSpaceOnUse" x="0" y="0" width="512" height="512">
<path d="M512 0H0V512H512V0Z" fill="white"/>
</mask>
<g mask="url(#mask11_3932_19575)">
<mask id="mask12_3932_19575" style="mask-type:luminance" maskUnits="userSpaceOnUse" x="0" y="0" width="512" height="512">
<path d="M512 0H0V512H512V0Z" fill="white"/>
</mask>
<g mask="url(#mask12_3932_19575)">
<mask id="mask13_3932_19575" style="mask-type:luminance" maskUnits="userSpaceOnUse" x="0" y="0" width="512" height="512">
<path d="M512 0H0V512H512V0Z" fill="white"/>
</mask>
<g mask="url(#mask13_3932_19575)">
<path d="M0 64C0 28.7 28.7 0 64 0H224V128C224 145.7 238.3 160 256 160H384V304H176C140.7 304 112 332.7 112 368V512H64C28.7 512 0 483.3 0 448V64ZM384 128H256V0L384 128ZM200 352H216C238.1 352 256 369.9 256 392V400C256 408.8 248.8 416 240 416C231.2 416 224 408.8 224 400V392C224 387.6 220.4 384 216 384H200C195.6 384 192 387.6 192 392V472C192 476.4 195.6 480 200 480H216C220.4 480 224 476.4 224 472V464C224 455.2 231.2 448 240 448C248.8 448 256 455.2 256 464V472C256 494.1 238.1 512 216 512H200C177.9 512 160 494.1 160 472V392C160 369.9 177.9 352 200 352ZM333.1 352H368C376.8 352 384 359.2 384 368C384 376.8 376.8 384 368 384H333.1C325.9 384 320 389.9 320 397.1C320 402.3 323 407 327.8 409.1L365.2 425.7C381.5 432.9 392 449.1 392 466.9C392 491.8 371.8 512 346.9 512H304C295.2 512 288 504.8 288 496C288 487.2 295.2 480 304 480H346.9C354.1 480 360 474.1 360 466.9C360 461.7 357 457 352.2 454.9L314.8 438.3C298.5 431.1 288 414.9 288 397.1C288 372.2 308.2 352 333.1 352ZM432 352C440.8 352 448 359.2 448 368V399.6C448 422.6 453.5 445.2 464 465.6C474.5 445.3 480 422.7 480 399.6V368C480 359.2 487.2 352 496 352C504.8 352 512 359.2 512 368V399.6C512 434.3 501.7 468.3 482.4 497.2L477.3 504.9C474.3 509.4 469.3 512 464 512C458.7 512 453.7 509.3 450.7 504.9L445.6 497.2C426.3 468.3 416 434.3 416 399.6V368C416 359.2 423.2 352 432 352Z" fill="black"/>
</g>
</g>
</g>
</g>
</g>
</g>
</g>
</g>
</g>
</g>
</g>
</g>
</g>
</g>
</g>
<defs>
<clipPath id="clip0_3932_19575">
<rect width="512" height="512" fill="white"/>
</clipPath>
</defs>
</svg>
