<svg width="576" height="512" viewBox="0 0 576 512" fill="none" xmlns="http://www.w3.org/2000/svg">
<g clip-path="url(#clip0_3932_20099)">
<mask id="mask0_3932_20099" style="mask-type:luminance" maskUnits="userSpaceOnUse" x="0" y="0" width="576" height="512">
<path d="M576 0H0V512H576V0Z" fill="white"/>
</mask>
<g mask="url(#mask0_3932_20099)">
<mask id="mask1_3932_20099" style="mask-type:luminance" maskUnits="userSpaceOnUse" x="0" y="0" width="576" height="512">
<path d="M576 0H0V512H576V0Z" fill="white"/>
</mask>
<g mask="url(#mask1_3932_20099)">
<mask id="mask2_3932_20099" style="mask-type:luminance" maskUnits="userSpaceOnUse" x="0" y="0" width="576" height="512">
<path d="M576 0H0V512H576V0Z" fill="white"/>
</mask>
<g mask="url(#mask2_3932_20099)">
<mask id="mask3_3932_20099" style="mask-type:luminance" maskUnits="userSpaceOnUse" x="0" y="0" width="576" height="512">
<path d="M576 0H0V512H576V0Z" fill="white"/>
</mask>
<g mask="url(#mask3_3932_20099)">
<mask id="mask4_3932_20099" style="mask-type:luminance" maskUnits="userSpaceOnUse" x="0" y="0" width="576" height="512">
<path d="M576 0H0V512H576V0Z" fill="white"/>
</mask>
<g mask="url(#mask4_3932_20099)">
<mask id="mask5_3932_20099" style="mask-type:luminance" maskUnits="userSpaceOnUse" x="0" y="0" width="576" height="512">
<path d="M576 0H0V512H576V0Z" fill="white"/>
</mask>
<g mask="url(#mask5_3932_20099)">
<mask id="mask6_3932_20099" style="mask-type:luminance" maskUnits="userSpaceOnUse" x="0" y="0" width="576" height="512">
<path d="M576 0H0V512H576V0Z" fill="white"/>
</mask>
<g mask="url(#mask6_3932_20099)">
<mask id="mask7_3932_20099" style="mask-type:luminance" maskUnits="userSpaceOnUse" x="0" y="0" width="576" height="512">
<path d="M576 0H0V512H576V0Z" fill="white"/>
</mask>
<g mask="url(#mask7_3932_20099)">
<mask id="mask8_3932_20099" style="mask-type:luminance" maskUnits="userSpaceOnUse" x="0" y="0" width="576" height="512">
<path d="M576 0H0V512H576V0Z" fill="white"/>
</mask>
<g mask="url(#mask8_3932_20099)">
<mask id="mask9_3932_20099" style="mask-type:luminance" maskUnits="userSpaceOnUse" x="0" y="0" width="576" height="512">
<path d="M576 0H0V512H576V0Z" fill="white"/>
</mask>
<g mask="url(#mask9_3932_20099)">
<mask id="mask10_3932_20099" style="mask-type:luminance" maskUnits="userSpaceOnUse" x="0" y="0" width="576" height="512">
<path d="M576 0H0V512H576V0Z" fill="white"/>
</mask>
<g mask="url(#mask10_3932_20099)">
<mask id="mask11_3932_20099" style="mask-type:luminance" maskUnits="userSpaceOnUse" x="0" y="0" width="576" height="512">
<path d="M576 0H0V512H576V0Z" fill="white"/>
</mask>
<g mask="url(#mask11_3932_20099)">
<mask id="mask12_3932_20099" style="mask-type:luminance" maskUnits="userSpaceOnUse" x="0" y="0" width="576" height="512">
<path d="M576 0H0V512H576V0Z" fill="white"/>
</mask>
<g mask="url(#mask12_3932_20099)">
<mask id="mask13_3932_20099" style="mask-type:luminance" maskUnits="userSpaceOnUse" x="0" y="0" width="576" height="512">
<path d="M576 0H0V512H576V0Z" fill="white"/>
</mask>
<g mask="url(#mask13_3932_20099)">
<path d="M0 64C0 28.7 28.7 0 64 0H224V128C224 145.7 238.3 160 256 160H384V299.6L289.3 394.3C281.1 402.5 275.3 412.8 272.5 424L257.5 484.1C255.2 493.5 255.7 503.1 258.9 511.9H64C28.7 511.9 0 483.2 0 447.9V64ZM384 128H256V0L384 128ZM549.8 235.7L564.2 250.1C579.8 265.7 579.8 291 564.2 306.7L534.8 336.1L463.8 265.1L493.2 235.7C508.8 220.1 534.1 220.1 549.8 235.7ZM311.9 417L441.1 287.8L512.1 358.8L382.9 487.9C378.8 492 373.7 494.9 368 496.3L307.9 511.3C302.4 512.7 296.7 511.1 292.7 507.1C288.7 503.1 287.1 497.4 288.5 491.9L303.5 431.8C304.9 426.2 307.8 421 311.9 416.9V417Z" fill="black"/>
</g>
</g>
</g>
</g>
</g>
</g>
</g>
</g>
</g>
</g>
</g>
</g>
</g>
</g>
</g>
<defs>
<clipPath id="clip0_3932_20099">
<rect width="576" height="512" fill="white"/>
</clipPath>
</defs>
</svg>
