<svg width="512" height="512" viewBox="0 0 512 512" fill="none" xmlns="http://www.w3.org/2000/svg">
<g clip-path="url(#clip0_3932_20745)">
<mask id="mask0_3932_20745" style="mask-type:luminance" maskUnits="userSpaceOnUse" x="0" y="0" width="512" height="512">
<path d="M512 0H0V512H512V0Z" fill="white"/>
</mask>
<g mask="url(#mask0_3932_20745)">
<mask id="mask1_3932_20745" style="mask-type:luminance" maskUnits="userSpaceOnUse" x="0" y="0" width="512" height="512">
<path d="M512 0H0V512H512V0Z" fill="white"/>
</mask>
<g mask="url(#mask1_3932_20745)">
<mask id="mask2_3932_20745" style="mask-type:luminance" maskUnits="userSpaceOnUse" x="0" y="0" width="512" height="512">
<path d="M512 0H0V512H512V0Z" fill="white"/>
</mask>
<g mask="url(#mask2_3932_20745)">
<mask id="mask3_3932_20745" style="mask-type:luminance" maskUnits="userSpaceOnUse" x="0" y="0" width="512" height="512">
<path d="M512 0H0V512H512V0Z" fill="white"/>
</mask>
<g mask="url(#mask3_3932_20745)">
<mask id="mask4_3932_20745" style="mask-type:luminance" maskUnits="userSpaceOnUse" x="0" y="0" width="512" height="512">
<path d="M512 0H0V512H512V0Z" fill="white"/>
</mask>
<g mask="url(#mask4_3932_20745)">
<mask id="mask5_3932_20745" style="mask-type:luminance" maskUnits="userSpaceOnUse" x="0" y="0" width="512" height="512">
<path d="M512 0H0V512H512V0Z" fill="white"/>
</mask>
<g mask="url(#mask5_3932_20745)">
<mask id="mask6_3932_20745" style="mask-type:luminance" maskUnits="userSpaceOnUse" x="0" y="0" width="512" height="512">
<path d="M512 0H0V512H512V0Z" fill="white"/>
</mask>
<g mask="url(#mask6_3932_20745)">
<mask id="mask7_3932_20745" style="mask-type:luminance" maskUnits="userSpaceOnUse" x="0" y="0" width="512" height="512">
<path d="M512 0H0V512H512V0Z" fill="white"/>
</mask>
<g mask="url(#mask7_3932_20745)">
<mask id="mask8_3932_20745" style="mask-type:luminance" maskUnits="userSpaceOnUse" x="0" y="0" width="512" height="512">
<path d="M512 0H0V512H512V0Z" fill="white"/>
</mask>
<g mask="url(#mask8_3932_20745)">
<mask id="mask9_3932_20745" style="mask-type:luminance" maskUnits="userSpaceOnUse" x="0" y="0" width="512" height="512">
<path d="M512 0H0V512H512V0Z" fill="white"/>
</mask>
<g mask="url(#mask9_3932_20745)">
<mask id="mask10_3932_20745" style="mask-type:luminance" maskUnits="userSpaceOnUse" x="0" y="0" width="512" height="512">
<path d="M512 0H0V512H512V0Z" fill="white"/>
</mask>
<g mask="url(#mask10_3932_20745)">
<mask id="mask11_3932_20745" style="mask-type:luminance" maskUnits="userSpaceOnUse" x="0" y="0" width="512" height="512">
<path d="M512 0H0V512H512V0Z" fill="white"/>
</mask>
<g mask="url(#mask11_3932_20745)">
<mask id="mask12_3932_20745" style="mask-type:luminance" maskUnits="userSpaceOnUse" x="0" y="0" width="512" height="512">
<path d="M512 0H0V512H512V0Z" fill="white"/>
</mask>
<g mask="url(#mask12_3932_20745)">
<mask id="mask13_3932_20745" style="mask-type:luminance" maskUnits="userSpaceOnUse" x="0" y="0" width="512" height="512">
<path d="M512 0H0V512H512V0Z" fill="white"/>
</mask>
<g mask="url(#mask13_3932_20745)">
<path d="M48 256C48 141.1 141.1 48 256 48C319.1 48 375.6 76.1 413.8 120.5C422.4 130.6 437.6 131.7 447.6 123.1C457.6 114.5 458.8 99.3 450.2 89.3C403.3 34.6 333.7 0 256 0C114.6 0 0 114.6 0 256V296C0 309.3 10.7 320 24 320C37.3 320 48 309.3 48 296V256ZM506.5 203.1C503.8 190.1 491 181.8 478.1 184.6C465.2 187.4 456.8 200.1 459.6 213C462.5 226.9 464.1 241.3 464.1 256.1V296.1C464.1 309.4 474.8 320.1 488.1 320.1C501.4 320.1 512.1 309.4 512.1 296.1V256C512.1 237.9 510.2 220.2 506.6 203.1H506.5ZM256 80C237 80 218.6 83 201.5 88.6C186.3 93.6 182.8 112.3 193.2 124.5C200.3 132.8 212 135.3 222.6 132.4C233.2 129.5 244.4 128 256 128C326.7 128 384 185.3 384 256V280.9C384 306.1 382.5 331.2 379.6 356.2C377.9 370.8 389 384 403.8 384C415.6 384 425.7 375.4 427.1 363.7C430.4 336.3 432.1 308.7 432.1 281V256C432.1 158.8 353.3 80 256.1 80H256ZM150.7 148.7C141.6 138.1 125.4 137.3 116.8 148.3C93.7 178 80 215.4 80 256V280.9C80 305.1 77.4 329.3 72.2 352.8C68.8 368.4 80.1 384 96.1 384C106.6 384 116 377 118.3 366.7C124.7 338.6 128 309.9 128 280.9V256C128 228.8 136.5 203.6 150.9 182.9C158.1 172.5 158.9 158.3 150.7 148.7ZM256 160C203 160 160 203 160 256V280.9C160 316.8 155.4 352.4 146.2 387C142.4 401.3 152.9 416 167.7 416C177.2 416 185.6 409.8 188.1 400.6C198.6 361.6 204 321.4 204 280.9V256C204 227.3 227.3 204 256 204C284.7 204 308 227.3 308 256V280.9C308 317.2 304.5 353.3 297.6 388.8C294.9 402.7 305.3 416 319.4 416C329.6 416 338.4 409 340.4 399C348.1 360.2 352 320.7 352 280.9V256C352 203 309 160 256 160ZM280 256C280 242.7 269.3 232 256 232C242.7 232 232 242.7 232 256V280.9C232 340.8 221 400.2 199.5 456.1L193.6 471.4C188.8 483.8 195 497.7 207.4 502.4C219.8 507.1 233.7 501 238.4 488.6L244.3 473.3C267.9 411.9 280 346.7 280 280.9V256Z" fill="black"/>
</g>
</g>
</g>
</g>
</g>
</g>
</g>
</g>
</g>
</g>
</g>
</g>
</g>
</g>
</g>
<defs>
<clipPath id="clip0_3932_20745">
<rect width="512" height="512" fill="white"/>
</clipPath>
</defs>
</svg>
