<svg width="384" height="512" viewBox="0 0 384 512" fill="none" xmlns="http://www.w3.org/2000/svg">
<g clip-path="url(#clip0_3932_21035)">
<mask id="mask0_3932_21035" style="mask-type:luminance" maskUnits="userSpaceOnUse" x="0" y="0" width="384" height="512">
<path d="M384 0H0V512H384V0Z" fill="white"/>
</mask>
<g mask="url(#mask0_3932_21035)">
<mask id="mask1_3932_21035" style="mask-type:luminance" maskUnits="userSpaceOnUse" x="0" y="0" width="384" height="512">
<path d="M384 0H0V512H384V0Z" fill="white"/>
</mask>
<g mask="url(#mask1_3932_21035)">
<mask id="mask2_3932_21035" style="mask-type:luminance" maskUnits="userSpaceOnUse" x="0" y="0" width="384" height="512">
<path d="M384 0H0V512H384V0Z" fill="white"/>
</mask>
<g mask="url(#mask2_3932_21035)">
<mask id="mask3_3932_21035" style="mask-type:luminance" maskUnits="userSpaceOnUse" x="0" y="0" width="384" height="512">
<path d="M384 0H0V512H384V0Z" fill="white"/>
</mask>
<g mask="url(#mask3_3932_21035)">
<mask id="mask4_3932_21035" style="mask-type:luminance" maskUnits="userSpaceOnUse" x="0" y="0" width="384" height="512">
<path d="M384 0H0V512H384V0Z" fill="white"/>
</mask>
<g mask="url(#mask4_3932_21035)">
<mask id="mask5_3932_21035" style="mask-type:luminance" maskUnits="userSpaceOnUse" x="0" y="0" width="384" height="512">
<path d="M384 0H0V512H384V0Z" fill="white"/>
</mask>
<g mask="url(#mask5_3932_21035)">
<mask id="mask6_3932_21035" style="mask-type:luminance" maskUnits="userSpaceOnUse" x="0" y="0" width="384" height="512">
<path d="M384 0H0V512H384V0Z" fill="white"/>
</mask>
<g mask="url(#mask6_3932_21035)">
<mask id="mask7_3932_21035" style="mask-type:luminance" maskUnits="userSpaceOnUse" x="0" y="0" width="384" height="512">
<path d="M384 0H0V512H384V0Z" fill="white"/>
</mask>
<g mask="url(#mask7_3932_21035)">
<mask id="mask8_3932_21035" style="mask-type:luminance" maskUnits="userSpaceOnUse" x="0" y="0" width="384" height="512">
<path d="M384 0H0V512H384V0Z" fill="white"/>
</mask>
<g mask="url(#mask8_3932_21035)">
<mask id="mask9_3932_21035" style="mask-type:luminance" maskUnits="userSpaceOnUse" x="0" y="0" width="384" height="512">
<path d="M384 0H0V512H384V0Z" fill="white"/>
</mask>
<g mask="url(#mask9_3932_21035)">
<mask id="mask10_3932_21035" style="mask-type:luminance" maskUnits="userSpaceOnUse" x="0" y="0" width="384" height="512">
<path d="M384 0H0V512H384V0Z" fill="white"/>
</mask>
<g mask="url(#mask10_3932_21035)">
<mask id="mask11_3932_21035" style="mask-type:luminance" maskUnits="userSpaceOnUse" x="0" y="0" width="384" height="512">
<path d="M384 0H0V512H384V0Z" fill="white"/>
</mask>
<g mask="url(#mask11_3932_21035)">
<mask id="mask12_3932_21035" style="mask-type:luminance" maskUnits="userSpaceOnUse" x="0" y="0" width="384" height="512">
<path d="M384 0H0V512H384V0Z" fill="white"/>
</mask>
<g mask="url(#mask12_3932_21035)">
<mask id="mask13_3932_21035" style="mask-type:luminance" maskUnits="userSpaceOnUse" x="0" y="0" width="384" height="512">
<path d="M384 0H0V512H384V0Z" fill="white"/>
</mask>
<g mask="url(#mask13_3932_21035)">
<path d="M372.5 256.5L371.8 254.6C337.8 160.8 282 76.5 209.1 8.5L205.8 5.5C202.1 2 197.1 0 192 0C186.9 0 181.9 2 178.2 5.5L174.9 8.5C102 76.5 46.2 160.8 12.2 254.6L11.5 256.5C3.9 277.3 0 299.4 0 321.6C0 426.7 86.8 512 192 512C297.2 512 384 426.7 384 321.6C384 299.4 380.1 277.4 372.5 256.5ZM281.7 306C285.8 315.3 287.9 325.4 287.9 335.5C287.9 388.5 244.9 432 191.9 432C138.9 432 95.9 388.5 95.9 335.5C95.9 325.4 98 315.2 102.1 306L104 301.7C119.8 266.3 141.9 234 169.3 206.6L178.2 197.7C181.8 194.1 186.7 192.1 191.8 192.1C196.9 192.1 201.8 194.1 205.4 197.7L214.3 206.6C241.7 234 263.9 266.3 279.6 301.7L281.5 306H281.7Z" fill="black"/>
</g>
</g>
</g>
</g>
</g>
</g>
</g>
</g>
</g>
</g>
</g>
</g>
</g>
</g>
</g>
<defs>
<clipPath id="clip0_3932_21035">
<rect width="384" height="512" fill="white"/>
</clipPath>
</defs>
</svg>
