<svg width="512" height="512" viewBox="0 0 512 512" fill="none" xmlns="http://www.w3.org/2000/svg">
<path d="M503.523 241.479C503.403 239.919 503.283 238.359 503.283 236.799V236.679L502.923 231.999V231.879C501.656 217.979 499.207 204.213 495.603 190.729C495.603 190.609 495.603 190.609 495.483 190.489L494.403 186.489C494.283 186.249 494.283 186.009 494.163 185.889C493.803 184.689 493.443 183.369 493.083 182.169C492.963 181.929 492.963 181.569 492.843 181.329C492.483 180.129 492.123 178.929 491.763 177.849C491.643 177.489 491.523 177.249 491.403 176.849C491.043 175.649 490.683 174.569 490.203 173.369L489.843 172.289C489.483 171.209 489.003 170.009 488.643 168.929C488.545 168.588 488.425 168.254 488.283 167.929C487.803 166.849 487.443 165.649 486.963 164.569C486.843 164.329 486.723 163.969 486.603 163.729C486.123 162.529 485.603 161.449 485.163 160.249C485.163 160.129 485.043 160.009 485.043 159.889C483.483 156.049 481.803 152.209 480.043 148.489L479.683 147.769C479.203 146.769 478.843 145.969 478.363 145.129C478.123 144.649 477.883 144.049 477.643 143.569C477.283 142.729 476.803 142.009 476.443 141.169C476.083 140.569 475.843 139.969 475.443 139.369C475.043 138.769 474.603 137.929 474.243 137.089C473.883 136.489 473.523 135.769 473.163 135.169C472.803 134.569 472.323 133.729 471.963 133.009C471.607 132.317 471.206 131.649 470.763 131.009C470.403 130.289 469.923 129.689 469.563 129.009C469.203 128.329 468.723 127.689 468.363 127.009C468.003 126.329 467.523 125.689 467.163 125.089C466.803 124.489 466.323 123.649 465.843 122.929C465.485 122.302 465.085 121.701 464.643 121.129L463.203 118.999C462.845 118.372 462.445 117.771 462.003 117.199C461.523 116.479 460.923 115.639 460.443 114.919C460.083 114.439 459.723 113.839 459.363 113.359L457.563 110.839C457.203 110.359 456.963 109.999 456.563 109.519C455.563 108.199 454.763 106.999 453.803 105.799C446.612 96.37 438.755 87.4673 430.293 79.1591C424.573 73.194 418.463 67.615 412.003 62.4591C408.003 58.9791 403.843 55.7391 399.523 52.6191C391.788 46.859 383.556 41.799 374.923 37.4991C372.523 36.1791 370.123 34.9791 367.723 33.7791C350.066 25.1359 331.465 18.572 312.293 14.2191C310.373 13.8591 308.453 13.3791 306.653 13.0191H306.533C305.533 12.8991 304.733 12.6591 303.773 12.5391C291.235 10.1823 278.527 8.84464 265.773 8.53906H255.143C239.857 8.72002 224.624 10.3946 209.663 13.5391C176.073 20.6191 146.433 34.7791 126.753 52.5391C125.673 53.5391 124.833 54.2191 124.353 54.6991L123.873 55.1791H124.003C124.035 55.1791 124.066 55.1664 124.088 55.1439C124.111 55.1214 124.123 55.0909 124.123 55.0591L124.003 55.1791C124.068 55.1139 124.152 55.0717 124.243 55.0591C138.883 46.2991 159.163 39.0591 173.683 35.4991L179.563 34.0591C179.923 33.9391 180.403 33.9391 180.763 33.8191C182.443 33.4591 184.123 33.0991 185.923 32.7391C186.163 32.7391 186.523 32.6191 186.763 32.6191C250.943 20.9391 319.343 40.1391 367.003 85.6091C377.283 95.3758 386.312 106.38 393.883 118.369C424.243 167.569 421.363 229.479 397.723 265.959C363.283 318.959 286.373 337.229 238.723 290.799C222.733 275.289 213.542 254.073 213.163 231.799C212.987 221.137 215.116 210.563 219.403 200.799C221.083 196.959 232.483 175.129 237.643 176.209C224.563 173.449 200.093 178.849 182.933 204.399C167.573 227.319 168.413 262.599 177.933 287.679C171.884 275.306 167.795 262.068 165.813 248.439C153.573 165.889 209.123 95.4391 260.123 77.9291C232.643 53.9291 163.653 55.6191 112.413 93.2891C82.5333 115.289 61.1833 146.449 49.9033 183.649C51.5833 162.769 59.5033 131.569 75.7033 99.7691C58.5433 108.649 36.7033 136.769 25.9033 162.649C10.3033 200.079 4.90332 244.839 9.82332 287.439C10.1833 290.679 10.5433 293.799 10.9033 297.039C30.8233 414.149 132.903 503.419 255.683 503.419C392.773 503.419 504.003 392.189 504.003 254.999C503.883 250.479 503.763 245.919 503.523 241.479Z" fill="black"/>
</svg>
