<svg width="496" height="512" viewBox="0 0 496 512" fill="none" xmlns="http://www.w3.org/2000/svg">
<path d="M248 8C111.03 8 0 119.03 0 256C0 392.97 111.03 504 248 504C384.97 504 496 392.97 496 256C496 119.03 384.97 8 248 8ZM248 496.21C115.34 496.21 7.79 388.66 7.79 256C7.79 123.34 115.34 15.79 248 15.79C380.66 15.79 488.21 123.34 488.21 256C488.21 388.66 380.66 496.21 248 496.21ZM248 36.29C126.66 36.29 28.29 134.66 28.29 256C28.29 377.34 126.66 475.71 248 475.71C369.34 475.71 467.71 377.34 467.71 256C467.71 134.66 369.34 36.29 248 36.29ZM248 467.51C131.19 467.51 36.49 372.82 36.49 256C36.49 139.18 131.19 44.49 248 44.49C364.81 44.49 459.51 139.19 459.51 256C459.51 372.81 364.81 467.51 248 467.51ZM434.23 304.53C429.794 321.609 423.02 337.994 414.1 353.22L339.97 317.34L401.45 372.16C390.808 386.227 378.292 398.774 364.25 409.45L309.45 347.88L345.33 422.15C330.132 431.107 313.767 437.915 296.7 442.38L269.41 363.91L274.2 446.84C265.59 448.02 256.8 448.64 247.87 448.64C238.94 448.64 230.15 448.02 221.54 446.84L226.3 364.38L199.15 442.41C182.08 437.952 165.708 431.154 150.5 422.21L186.43 347.87L131.56 409.51C117.515 398.835 104.993 386.292 94.34 372.23L155.93 317.33L81.67 353.26C72.7468 338.035 65.9694 321.65 61.53 304.57L139.37 277.46L57.14 282.22C55.98 273.65 55.36 264.9 55.36 256.01C55.36 247.01 55.99 238.17 57.18 229.5L139.56 234.27L61.62 207.11C66.0906 190.033 72.8982 173.655 81.85 158.44L156.07 194.36L94.55 139.5C105.225 125.455 117.768 112.933 131.83 102.28L186.59 163.81L150.76 89.64C165.972 80.722 182.344 73.948 199.41 69.51L226.28 146.76L221.57 65.15C230.18 63.97 238.96 63.35 247.89 63.35C256.82 63.35 265.6 63.97 274.21 65.15L269.47 147.31L296.52 69.55C313.79 74.05 330.12 80.9 345.15 89.72L309.33 163.84L364.05 102.37C378.105 113.022 390.635 125.548 401.29 139.6L339.84 194.37L413.96 158.51C422.902 173.719 429.7 190.09 434.16 207.16L356.35 234.26L438.59 229.51C439.78 238.17 440.41 247.01 440.41 256C440.41 264.88 439.8 273.63 438.63 282.19L356.51 277.44L434.23 304.53Z" fill="black"/>
</svg>
