<svg width="576" height="512" viewBox="0 0 576 512" fill="none" xmlns="http://www.w3.org/2000/svg">
<g clip-path="url(#clip0_3932_21159)">
<mask id="mask0_3932_21159" style="mask-type:luminance" maskUnits="userSpaceOnUse" x="0" y="0" width="576" height="512">
<path d="M576 0H0V512H576V0Z" fill="white"/>
</mask>
<g mask="url(#mask0_3932_21159)">
<mask id="mask1_3932_21159" style="mask-type:luminance" maskUnits="userSpaceOnUse" x="0" y="0" width="576" height="512">
<path d="M576 0H0V512H576V0Z" fill="white"/>
</mask>
<g mask="url(#mask1_3932_21159)">
<mask id="mask2_3932_21159" style="mask-type:luminance" maskUnits="userSpaceOnUse" x="0" y="0" width="576" height="512">
<path d="M576 0H0V512H576V0Z" fill="white"/>
</mask>
<g mask="url(#mask2_3932_21159)">
<mask id="mask3_3932_21159" style="mask-type:luminance" maskUnits="userSpaceOnUse" x="0" y="0" width="576" height="512">
<path d="M576 0H0V512H576V0Z" fill="white"/>
</mask>
<g mask="url(#mask3_3932_21159)">
<mask id="mask4_3932_21159" style="mask-type:luminance" maskUnits="userSpaceOnUse" x="0" y="0" width="576" height="512">
<path d="M576 0H0V512H576V0Z" fill="white"/>
</mask>
<g mask="url(#mask4_3932_21159)">
<mask id="mask5_3932_21159" style="mask-type:luminance" maskUnits="userSpaceOnUse" x="0" y="0" width="576" height="512">
<path d="M576 0H0V512H576V0Z" fill="white"/>
</mask>
<g mask="url(#mask5_3932_21159)">
<mask id="mask6_3932_21159" style="mask-type:luminance" maskUnits="userSpaceOnUse" x="0" y="0" width="576" height="512">
<path d="M576 0H0V512H576V0Z" fill="white"/>
</mask>
<g mask="url(#mask6_3932_21159)">
<mask id="mask7_3932_21159" style="mask-type:luminance" maskUnits="userSpaceOnUse" x="0" y="0" width="576" height="512">
<path d="M576 0H0V512H576V0Z" fill="white"/>
</mask>
<g mask="url(#mask7_3932_21159)">
<mask id="mask8_3932_21159" style="mask-type:luminance" maskUnits="userSpaceOnUse" x="0" y="0" width="576" height="512">
<path d="M576 0H0V512H576V0Z" fill="white"/>
</mask>
<g mask="url(#mask8_3932_21159)">
<mask id="mask9_3932_21159" style="mask-type:luminance" maskUnits="userSpaceOnUse" x="0" y="0" width="576" height="512">
<path d="M576 0H0V512H576V0Z" fill="white"/>
</mask>
<g mask="url(#mask9_3932_21159)">
<mask id="mask10_3932_21159" style="mask-type:luminance" maskUnits="userSpaceOnUse" x="0" y="0" width="576" height="512">
<path d="M576 0H0V512H576V0Z" fill="white"/>
</mask>
<g mask="url(#mask10_3932_21159)">
<mask id="mask11_3932_21159" style="mask-type:luminance" maskUnits="userSpaceOnUse" x="0" y="0" width="576" height="512">
<path d="M576 0H0V512H576V0Z" fill="white"/>
</mask>
<g mask="url(#mask11_3932_21159)">
<mask id="mask12_3932_21159" style="mask-type:luminance" maskUnits="userSpaceOnUse" x="0" y="0" width="576" height="512">
<path d="M576 0H0V512H576V0Z" fill="white"/>
</mask>
<g mask="url(#mask12_3932_21159)">
<mask id="mask13_3932_21159" style="mask-type:luminance" maskUnits="userSpaceOnUse" x="0" y="0" width="576" height="512">
<path d="M576 0H0V512H576V0Z" fill="white"/>
</mask>
<g mask="url(#mask13_3932_21159)">
<path d="M180.5 141.5C219.7 108.5 272.6 80 336 80C399.4 80 452.3 108.5 491.5 141.5C530.6 174.5 558.4 213.9 572.5 241.3C577.2 250.5 577.2 261.4 572.5 270.6C558.4 298 530.6 337.4 491.5 370.4C452.3 403.5 399.4 432 336 432C272.6 432 219.7 403.5 180.5 370.5C164.3 356.8 150 342 137.8 327.4L48.0999 379.6C35.5999 386.9 19.6999 384.9 9.39987 374.7C-0.900126 364.5 -3.00013 348.7 4.19987 336.1L49.9999 256L4.19987 175.9C-3.00013 163.3 -0.800111 147.5 9.49987 137.3C19.7999 127.1 35.5999 125.1 48.1999 132.4L137.9 184.7C150.1 170.1 164.4 155.3 180.6 141.6L180.5 141.5ZM448 256C448 247.513 444.628 239.374 438.627 233.373C432.626 227.371 424.487 224 416 224C407.513 224 399.374 227.371 393.372 233.373C387.371 239.374 384 247.513 384 256C384 264.487 387.371 272.626 393.372 278.627C399.374 284.629 407.513 288 416 288C424.487 288 432.626 284.629 438.627 278.627C444.628 272.626 448 264.487 448 256Z" fill="black"/>
</g>
</g>
</g>
</g>
</g>
</g>
</g>
</g>
</g>
</g>
</g>
</g>
</g>
</g>
</g>
<defs>
<clipPath id="clip0_3932_21159">
<rect width="576" height="512" fill="white"/>
</clipPath>
</defs>
</svg>
