<svg width="640" height="512" viewBox="0 0 640 512" fill="none" xmlns="http://www.w3.org/2000/svg">
<g clip-path="url(#clip0_3932_21507)">
<mask id="mask0_3932_21507" style="mask-type:luminance" maskUnits="userSpaceOnUse" x="0" y="0" width="640" height="512">
<path d="M640 0H0V512H640V0Z" fill="white"/>
</mask>
<g mask="url(#mask0_3932_21507)">
<mask id="mask1_3932_21507" style="mask-type:luminance" maskUnits="userSpaceOnUse" x="0" y="0" width="640" height="512">
<path d="M640 0H0V512H640V0Z" fill="white"/>
</mask>
<g mask="url(#mask1_3932_21507)">
<mask id="mask2_3932_21507" style="mask-type:luminance" maskUnits="userSpaceOnUse" x="0" y="0" width="640" height="512">
<path d="M640 0H0V512H640V0Z" fill="white"/>
</mask>
<g mask="url(#mask2_3932_21507)">
<mask id="mask3_3932_21507" style="mask-type:luminance" maskUnits="userSpaceOnUse" x="0" y="0" width="640" height="512">
<path d="M640 0H0V512H640V0Z" fill="white"/>
</mask>
<g mask="url(#mask3_3932_21507)">
<mask id="mask4_3932_21507" style="mask-type:luminance" maskUnits="userSpaceOnUse" x="0" y="0" width="640" height="512">
<path d="M640 0H0V512H640V0Z" fill="white"/>
</mask>
<g mask="url(#mask4_3932_21507)">
<mask id="mask5_3932_21507" style="mask-type:luminance" maskUnits="userSpaceOnUse" x="0" y="0" width="640" height="512">
<path d="M640 0H0V512H640V0Z" fill="white"/>
</mask>
<g mask="url(#mask5_3932_21507)">
<mask id="mask6_3932_21507" style="mask-type:luminance" maskUnits="userSpaceOnUse" x="0" y="0" width="640" height="512">
<path d="M640 0H0V512H640V0Z" fill="white"/>
</mask>
<g mask="url(#mask6_3932_21507)">
<mask id="mask7_3932_21507" style="mask-type:luminance" maskUnits="userSpaceOnUse" x="0" y="0" width="640" height="512">
<path d="M640 0H0V512H640V0Z" fill="white"/>
</mask>
<g mask="url(#mask7_3932_21507)">
<mask id="mask8_3932_21507" style="mask-type:luminance" maskUnits="userSpaceOnUse" x="0" y="0" width="640" height="512">
<path d="M640 0H0V512H640V0Z" fill="white"/>
</mask>
<g mask="url(#mask8_3932_21507)">
<mask id="mask9_3932_21507" style="mask-type:luminance" maskUnits="userSpaceOnUse" x="0" y="0" width="640" height="512">
<path d="M640 0H0V512H640V0Z" fill="white"/>
</mask>
<g mask="url(#mask9_3932_21507)">
<mask id="mask10_3932_21507" style="mask-type:luminance" maskUnits="userSpaceOnUse" x="0" y="0" width="640" height="512">
<path d="M640 0H0V512H640V0Z" fill="white"/>
</mask>
<g mask="url(#mask10_3932_21507)">
<mask id="mask11_3932_21507" style="mask-type:luminance" maskUnits="userSpaceOnUse" x="0" y="0" width="640" height="512">
<path d="M640 0H0V512H640V0Z" fill="white"/>
</mask>
<g mask="url(#mask11_3932_21507)">
<mask id="mask12_3932_21507" style="mask-type:luminance" maskUnits="userSpaceOnUse" x="0" y="0" width="640" height="512">
<path d="M640 0H0V512H640V0Z" fill="white"/>
</mask>
<g mask="url(#mask12_3932_21507)">
<mask id="mask13_3932_21507" style="mask-type:luminance" maskUnits="userSpaceOnUse" x="0" y="0" width="640" height="512">
<path d="M640 0H0V512H640V0Z" fill="white"/>
</mask>
<g mask="url(#mask13_3932_21507)">
<path d="M175 389.4C165.2 405.4 160 423.7 160 442.5C150 446 139.2 448 128 448C75 448 32 405 32 352V64C14.3 64 0 49.7 0 32C0 14.3 14.3 0 32 0H96H160H224C241.7 0 256 14.3 256 32C256 49.7 241.7 64 224 64V309.9L175 389.5V389.4ZM96 64V160H160V64H96ZM352 0H480H512C529.7 0 544 14.3 544 32C544 49.7 529.7 64 512 64V214.9L629.7 406.2C636.4 417.1 640 429.7 640 442.6C640 480.9 608.9 512 570.6 512H261.4C223.1 512 192 480.9 192 442.6C192 429.8 195.6 417.2 202.3 406.2L320 214.9V64C302.3 64 288 49.7 288 32C288 14.3 302.3 0 320 0H352ZM384 64V224C384 229.9 382.4 235.7 379.3 240.8L330.5 320H501.5L452.7 240.8C449.6 235.8 448 230 448 224V64H384Z" fill="black"/>
</g>
</g>
</g>
</g>
</g>
</g>
</g>
</g>
</g>
</g>
</g>
</g>
</g>
</g>
</g>
<defs>
<clipPath id="clip0_3932_21507">
<rect width="640" height="512" fill="white"/>
</clipPath>
</defs>
</svg>
