<svg width="512" height="512" viewBox="0 0 512 512" fill="none" xmlns="http://www.w3.org/2000/svg">
<path d="M64 32C28.7 32 0 60.7 0 96V416C0 451.3 28.7 480 64 480H448C483.3 480 512 451.3 512 416V160C512 124.7 483.3 96 448 96H289.9L247 53.1C233.5 39.6 215.2 32 196.1 32H64ZM48 96C48 87.2 55.2 80 64 80H196.1C202.5 80 208.6 82.5 213.1 87L258.4 132.3C265.9 139.8 276.1 144 286.7 144H448C456.8 144 464 151.2 464 160V192H48V96ZM48 240H464V416C464 424.8 456.8 432 448 432H64C55.2 432 48 424.8 48 416V240Z" fill="black"/>
</svg>
