<svg width="448" height="512" viewBox="0 0 448 512" fill="none" xmlns="http://www.w3.org/2000/svg">
<path d="M254 52.8C249.3 40.3 237.3 32 224 32C210.7 32 198.7 40.3 194 52.8L57.8 416H32C14.3 416 0 430.3 0 448C0 465.7 14.3 480 32 480H128C145.7 480 160 465.7 160 448C160 430.3 145.7 416 128 416H126.2L144.2 368H303.8L321.8 416H320C302.3 416 288 430.3 288 448C288 465.7 302.3 480 320 480H416C433.7 480 448 465.7 448 448C448 430.3 433.7 416 416 416H390.2L254 52.8ZM279.8 304H168.2L224 155.1L279.8 304Z" fill="black"/>
</svg>
