<svg width="512" height="512" viewBox="0 0 512 512" fill="none" xmlns="http://www.w3.org/2000/svg">
<path d="M247.497 25.3992C233.997 28.6992 221.097 32.5992 208.897 37.0992C142.897 61.5992 96.6969 103.599 65.9969 153.599C47.6969 183.399 35.0969 215.899 26.7969 248.999L264.497 486.599C277.997 483.299 290.897 479.399 303.097 474.899C369.097 450.399 415.297 408.399 445.997 358.399C464.297 328.599 476.897 296.099 485.097 263.099L247.497 25.3992ZM495.197 205.299C501.297 148.499 496.597 93.0992 487.497 48.8992C484.797 35.9992 474.497 25.9992 461.397 23.7992C403.197 14.0992 351.497 11.7992 305.797 15.8992L495.197 205.299ZM206.097 495.999L16.7969 306.699C10.6969 363.499 15.3969 418.899 24.4969 463.099C27.1969 475.999 37.4969 485.999 50.5969 488.199C108.797 497.899 160.497 500.199 206.197 496.099L206.097 495.999ZM260.697 164.699C266.897 158.499 277.097 158.499 283.297 164.699L347.297 228.699C353.497 234.899 353.497 245.099 347.297 251.299C341.097 257.499 330.897 257.499 324.697 251.299L260.697 187.299C254.497 181.099 254.497 170.899 260.697 164.699ZM212.697 212.699C218.897 206.499 229.097 206.499 235.297 212.699L299.297 276.699C305.497 282.899 305.497 293.099 299.297 299.299C293.097 305.499 282.897 305.499 276.697 299.299L212.697 235.299C206.497 229.099 206.497 218.899 212.697 212.699ZM164.697 260.699C170.897 254.499 181.097 254.499 187.297 260.699L251.297 324.699C257.497 330.899 257.497 341.099 251.297 347.299C245.097 353.499 234.897 353.499 228.697 347.299L164.697 283.299C158.497 277.099 158.497 266.899 164.697 260.699Z" fill="black"/>
</svg>
