<svg width="512" height="512" viewBox="0 0 512 512" fill="none" xmlns="http://www.w3.org/2000/svg">
<path d="M207.997 237.4H185.797C183.697 237.4 182.097 239 182.097 241.1V292.8C182.097 294.9 183.697 296.5 185.797 296.5H207.997C210.097 296.5 211.697 294.9 211.697 292.8V241.1C211.697 239 210.097 237.4 207.997 237.4ZM326.197 237.4H303.997C301.897 237.4 300.297 239 300.297 241.1V292.8C300.297 294.9 301.897 296.5 303.997 296.5H326.197C328.297 296.5 329.897 294.9 329.897 292.8V241.1C329.797 239 328.197 237.4 326.197 237.4ZM458.197 112.3C455.897 109.1 453.597 105.9 451.097 102.8C441.297 90.3 430.297 78.8 418.297 68.4C413.797 64.5 409.197 60.8 404.397 57.2C402.797 56 401.197 54.9 399.597 53.7C371.997 34.1 340.297 20 305.997 13C289.797 9.7 273.097 8 255.997 8C238.897 8 222.097 9.7 205.997 13C171.697 20.1 139.997 34.2 112.697 53.8C111.097 54.9 109.497 56.1 107.897 57.3C103.097 60.9 98.4969 64.6 93.9969 68.5C90.9969 71.1 88.0969 73.8 85.1969 76.5C82.2969 79.2 79.4969 82 76.7969 84.9C71.2969 90.6 66.0969 96.7 61.1969 102.9C58.7969 106 56.3969 109.2 54.0969 112.4C25.1969 153 8.29688 202.5 8.29688 256C8.29688 258 8.39686 260 8.39686 262C8.49686 262.7 8.49687 263.3 8.49687 264C8.59687 265.3 8.59687 266.7 8.69687 268C8.69687 268.8 8.79688 269.5 8.79688 270.3C8.79688 271.6 8.89687 272.8 8.99687 274C9.09687 274.8 9.09687 275.6 9.19687 276.4C9.29687 277.5 9.39687 278.7 9.49687 279.9C9.49687 280.7 9.59687 281.5 9.69687 282.3C9.79687 283.5 9.99688 284.7 10.0969 285.9C10.1969 286.7 10.2969 287.4 10.3969 288.2C10.4969 289.5 10.6969 290.8 10.8969 292.1C10.9969 292.7 11.0969 293.4 11.1969 294L12.0969 299.7C12.1969 300.3 12.2969 300.8 12.3969 301.4C12.6969 302.7 12.8969 304.1 13.1969 305.4C13.3969 306.2 13.4969 307 13.6969 307.8C13.8969 308.8 14.1969 309.9 14.3969 311C14.5969 311.9 14.7969 312.7 14.9969 313.6C15.1969 314.6 15.3969 315.6 15.6969 316.6C15.8969 317.5 16.1969 318.4 16.3969 319.3C16.6969 320.3 16.8969 321.2 17.1969 322.2C17.4969 323.1 17.6969 324 17.9969 324.9C18.1969 325.8 18.4969 326.8 18.7969 327.7C19.0969 328.6 19.2969 329.5 19.5969 330.4C19.8969 331.4 20.1969 332.3 20.4969 333.2C21.0969 334.8 21.5969 336.5 22.1969 338.1C22.5969 339.1 22.8969 340 23.1969 340.9C23.4969 341.9 23.8969 342.9 24.2969 343.9C24.5969 344.7 24.8969 345.4 25.1969 346.2L26.3969 349.2C26.6969 349.9 26.9969 350.7 27.2969 351.4C27.6969 352.4 28.1969 353.4 28.5969 354.4L29.4969 356.5C29.9969 357.5 30.3969 358.5 30.8969 359.5C31.1969 360.2 31.4969 360.8 31.7969 361.5C32.2969 362.5 32.7969 363.6 33.2969 364.6C33.4969 365.2 33.7969 365.7 34.0969 366.3C34.6969 367.4 35.1969 368.5 35.7969 369.6C35.8969 369.8 35.9969 369.9 36.0969 370.1C38.2969 374.2 40.4969 378.3 42.8969 382.3C43.0969 382.7 43.3969 383.1 43.5969 383.5C44.2969 384.6 44.8969 385.7 45.5969 386.8C45.8969 387.3 46.1969 387.7 46.4969 388.2C47.0969 389.3 47.7969 390.3 48.4969 391.4C48.7969 391.9 49.0969 392.3 49.3969 392.8C50.0969 393.9 50.7969 394.9 51.4969 396C51.6969 396.4 51.9969 396.8 52.2969 397.2C52.9969 398.3 53.7969 399.4 54.5969 400.5C54.7969 400.7 54.8969 401 55.0969 401.2C92.5969 452.9 149.497 489.7 215.097 500.6C215.997 500.7 216.797 500.9 217.697 501C218.697 501.2 219.797 501.4 220.797 501.5C221.797 501.6 222.697 501.8 223.597 501.9C224.597 502.1 225.597 502.2 226.597 502.3C227.497 502.4 228.497 502.5 229.497 502.6C230.497 502.7 231.397 502.8 232.397 502.9C233.397 503 234.497 503.1 235.497 503.2C236.397 503.3 237.297 503.3 238.197 503.4C239.297 503.5 240.497 503.5 241.597 503.6C242.397 503.6 243.297 503.7 244.097 503.7C245.397 503.7 246.697 503.8 247.997 503.8C248.697 503.9 249.397 503.9 250.097 503.9C252.097 504 254.097 504 256.097 504C258.097 504 260.097 503.9 262.097 503.9C262.797 503.9 263.497 503.8 264.197 503.8C265.497 503.8 266.797 503.8 268.097 503.7C268.897 503.7 269.797 503.6 270.597 503.6C271.697 503.5 272.897 503.5 273.997 503.4C274.897 503.4 275.797 503.3 276.697 503.2C277.697 503.1 278.797 503 279.797 502.9C280.797 502.8 281.697 502.7 282.697 502.6C283.597 502.5 284.597 502.4 285.597 502.3C286.597 502.2 287.597 502 288.597 501.9C289.597 501.8 290.497 501.6 291.397 501.5C292.397 501.3 293.497 501.2 294.497 501C295.397 500.9 296.197 500.7 297.097 500.6C362.697 489.6 419.597 452.9 457.197 398.2C457.397 398 457.497 397.7 457.697 397.5C458.497 396.4 459.197 395.3 459.997 394.2C460.197 393.8 460.497 393.4 460.797 393C461.497 391.9 462.197 390.9 462.897 389.8C463.197 389.3 463.497 388.9 463.797 388.4C464.397 387.3 465.097 386.3 465.797 385.2C466.097 384.7 466.397 384.3 466.697 383.8C467.397 382.7 467.997 381.6 468.697 380.5C468.897 380.1 469.197 379.7 469.397 379.3C471.797 375.3 473.997 371.2 476.197 367.1C476.297 366.9 476.397 366.8 476.497 366.6C477.097 365.5 477.597 364.4 478.197 363.3C478.397 362.7 478.697 362.2 478.997 361.6C479.497 360.6 479.997 359.5 480.497 358.5C480.797 357.8 481.097 357.2 481.397 356.5C481.897 355.5 482.397 354.5 482.797 353.5L483.697 351.4C484.197 350.4 484.597 349.4 484.997 348.4C485.297 347.7 485.597 346.9 485.897 346.2L487.097 343.2C487.397 342.4 487.697 341.7 487.997 340.9C488.397 339.9 488.697 338.9 489.097 337.9C489.497 336.9 489.797 336 490.097 335.1C490.697 333.5 491.297 331.8 491.797 330.2C492.097 329.2 492.397 328.3 492.697 327.4C492.997 326.5 493.197 325.6 493.497 324.7C493.697 323.8 493.997 322.8 494.297 321.9C494.597 321 494.897 320.1 495.097 319.2C495.397 318.2 495.597 317.3 495.897 316.3C496.097 315.4 496.397 314.5 496.597 313.6C496.797 312.6 497.097 311.6 497.297 310.6C497.497 309.7 497.697 308.9 497.897 308C498.097 307 498.397 305.9 498.597 304.8C498.797 304 498.897 303.2 499.097 302.4C499.397 301.1 499.697 299.7 499.897 298.4C499.997 297.8 500.097 297.3 500.197 296.7L501.097 291C501.197 290.4 501.297 289.7 501.397 289.1C501.497 287.8 501.697 286.5 501.897 285.2C501.997 284.4 502.097 283.7 502.197 282.9C502.297 281.7 502.497 280.5 502.597 279.3C502.597 278.5 502.697 277.7 502.797 276.9C502.897 275.8 502.997 274.6 503.097 273.4C503.197 272.6 503.197 271.8 503.297 271C503.397 272.7 503.397 271.5 503.497 270.3C503.497 269.5 503.597 268.8 503.597 268C503.697 266.7 503.797 265.3 503.797 264C503.897 263.3 503.897 262.7 503.897 262C503.997 260 503.997 258 503.997 256C503.997 202.5 487.097 153 458.197 112.3ZM447.997 371.5C438.597 387 427.397 401.4 414.397 414.4C393.797 435 369.897 451.1 343.197 462.4C329.297 468.2 314.997 472.7 300.297 475.6V399.8C300.297 341.2 211.697 341.2 211.697 399.8V475.6C196.997 472.7 182.697 468.3 168.797 462.4C142.097 451.1 118.197 435 97.5969 414.4C84.5969 401.4 73.3969 387 63.9969 371.5V300.2C63.9969 298.1 65.5969 296.5 67.6969 296.5H89.7969C91.8969 296.5 93.4969 298.1 93.4969 300.2V326H123.097V182C123.097 179.9 124.697 178.3 126.797 178.3H148.897C150.997 178.3 152.597 179.9 152.597 182V207.9H182.097V182C182.097 179.9 183.697 178.3 185.797 178.3H207.997C210.097 178.3 211.697 179.9 211.697 182V207.9H241.197V182C241.197 177.2 247.697 178.3 250.697 178.3V88.1C246.297 86.1 243.297 81.4 243.297 76.6C243.297 59.8 268.697 59.8 268.697 76.6C268.697 81.4 265.697 86 261.297 88.1V92C267.597 90.6 273.997 89.7 280.497 89.7C289.897 89.7 298.897 93.2 306.797 93.2C313.997 93.2 321.997 89.7 326.197 89.7C328.297 89.7 329.897 91.3 329.897 93.4V141.8C329.897 147.4 311.197 148.3 307.497 148.3C298.897 148.3 290.897 144.8 282.097 144.8C275.097 144.8 267.997 146 261.297 147.6V178.3C264.297 178.3 270.797 177.2 270.797 182V207.9H300.297V182C300.297 179.9 301.897 178.3 303.997 178.3H326.197C328.297 178.3 329.897 179.9 329.897 182V207.9H359.397V182C359.397 179.9 360.997 178.3 363.097 178.3H385.197C387.297 178.3 388.897 179.9 388.897 182V326H418.397V300.2C418.397 298.1 419.997 296.5 422.097 296.5H444.297C446.397 296.5 447.997 298.1 447.997 300.2V371.5Z" fill="black"/>
</svg>
