<svg width="448" height="512" viewBox="0 0 448 512" fill="none" xmlns="http://www.w3.org/2000/svg">
<g clip-path="url(#clip0_3932_21833)">
<mask id="mask0_3932_21833" style="mask-type:luminance" maskUnits="userSpaceOnUse" x="0" y="0" width="448" height="512">
<path d="M448 0H0V512H448V0Z" fill="white"/>
</mask>
<g mask="url(#mask0_3932_21833)">
<mask id="mask1_3932_21833" style="mask-type:luminance" maskUnits="userSpaceOnUse" x="0" y="0" width="448" height="512">
<path d="M448 0H0V512H448V0Z" fill="white"/>
</mask>
<g mask="url(#mask1_3932_21833)">
<mask id="mask2_3932_21833" style="mask-type:luminance" maskUnits="userSpaceOnUse" x="0" y="0" width="448" height="512">
<path d="M448 0H0V512H448V0Z" fill="white"/>
</mask>
<g mask="url(#mask2_3932_21833)">
<mask id="mask3_3932_21833" style="mask-type:luminance" maskUnits="userSpaceOnUse" x="0" y="0" width="448" height="512">
<path d="M448 0H0V512H448V0Z" fill="white"/>
</mask>
<g mask="url(#mask3_3932_21833)">
<mask id="mask4_3932_21833" style="mask-type:luminance" maskUnits="userSpaceOnUse" x="0" y="0" width="448" height="512">
<path d="M448 0H0V512H448V0Z" fill="white"/>
</mask>
<g mask="url(#mask4_3932_21833)">
<mask id="mask5_3932_21833" style="mask-type:luminance" maskUnits="userSpaceOnUse" x="0" y="0" width="448" height="512">
<path d="M448 0H0V512H448V0Z" fill="white"/>
</mask>
<g mask="url(#mask5_3932_21833)">
<mask id="mask6_3932_21833" style="mask-type:luminance" maskUnits="userSpaceOnUse" x="0" y="0" width="448" height="512">
<path d="M448 0H0V512H448V0Z" fill="white"/>
</mask>
<g mask="url(#mask6_3932_21833)">
<mask id="mask7_3932_21833" style="mask-type:luminance" maskUnits="userSpaceOnUse" x="0" y="0" width="448" height="512">
<path d="M448 0H0V512H448V0Z" fill="white"/>
</mask>
<g mask="url(#mask7_3932_21833)">
<mask id="mask8_3932_21833" style="mask-type:luminance" maskUnits="userSpaceOnUse" x="0" y="0" width="448" height="512">
<path d="M448 0H0V512H448V0Z" fill="white"/>
</mask>
<g mask="url(#mask8_3932_21833)">
<mask id="mask9_3932_21833" style="mask-type:luminance" maskUnits="userSpaceOnUse" x="0" y="0" width="448" height="512">
<path d="M448 0H0V512H448V0Z" fill="white"/>
</mask>
<g mask="url(#mask9_3932_21833)">
<mask id="mask10_3932_21833" style="mask-type:luminance" maskUnits="userSpaceOnUse" x="0" y="0" width="448" height="512">
<path d="M448 0H0V512H448V0Z" fill="white"/>
</mask>
<g mask="url(#mask10_3932_21833)">
<mask id="mask11_3932_21833" style="mask-type:luminance" maskUnits="userSpaceOnUse" x="0" y="0" width="448" height="512">
<path d="M448 0H0V512H448V0Z" fill="white"/>
</mask>
<g mask="url(#mask11_3932_21833)">
<mask id="mask12_3932_21833" style="mask-type:luminance" maskUnits="userSpaceOnUse" x="0" y="0" width="448" height="512">
<path d="M448 0H0V512H448V0Z" fill="white"/>
</mask>
<g mask="url(#mask12_3932_21833)">
<mask id="mask13_3932_21833" style="mask-type:luminance" maskUnits="userSpaceOnUse" x="0" y="0" width="448" height="512">
<path d="M448 0H0V512H448V0Z" fill="white"/>
</mask>
<g mask="url(#mask13_3932_21833)">
<path d="M303.703 96.2013C314.803 85.1013 419.203 19.2013 442.903 43.0013C466.603 66.7013 400.803 171.101 389.703 182.201C378.603 193.301 350.303 183.101 326.603 159.301C302.803 135.601 292.503 107.301 303.703 96.2013ZM109.903 68.1013C73.6026 47.5013 22.0026 24.6013 5.60263 41.1013C-10.9974 57.7013 12.7026 110.501 33.5026 146.801C52.0026 114.601 78.3026 87.5013 109.903 68.1013ZM406.703 174.001C410.003 185.301 409.403 194.701 404.003 200.101C383.703 220.401 316.503 173.101 294.703 130.001C276.703 97.7013 283.603 76.6013 309.603 81.3013C315.303 77.7013 321.903 73.7013 329.203 69.7013C299.403 54.2013 265.603 45.4013 229.703 45.4013C110.603 45.4013 14.1026 141.901 14.1026 261.001C14.1026 380.001 110.603 476.601 229.703 476.601C348.803 476.601 445.303 380.101 445.303 261.001C445.303 222.601 435.203 186.501 417.603 155.201C413.703 162.201 410.003 168.501 406.703 174.001Z" fill="black"/>
</g>
</g>
</g>
</g>
</g>
</g>
</g>
</g>
</g>
</g>
</g>
</g>
</g>
</g>
</g>
<defs>
<clipPath id="clip0_3932_21833">
<rect width="448" height="512" fill="white"/>
</clipPath>
</defs>
</svg>
