<svg width="448" height="512" viewBox="0 0 448 512" fill="none" xmlns="http://www.w3.org/2000/svg">
<path d="M224 96C135.6 96 64 167.6 64 256C64 344.4 135.6 416 224 416C301.4 416 366 361 380.8 288H256C238.3 288 224 273.7 224 256C224 238.3 238.3 224 256 224H400C425.8 224 449.6 245.4 447.2 274.6C437.8 389.6 341.4 480 224 480C100.3 480 0 379.7 0 256C0 132.3 100.3 32 224 32C281.4 32 333.7 53.6 373.3 89C386.5 100.8 387.6 121 375.8 134.2C364 147.4 343.8 148.5 330.6 136.7C302.3 111.4 265 96 224 96Z" fill="black"/>
</svg>
