<svg width="512" height="512" viewBox="0 0 512 512" fill="none" xmlns="http://www.w3.org/2000/svg">
<path d="M249.86 33.4844V59.5544C236.28 80.1744 226 168.144 225.39 274.904C237.13 259.284 244.52 241.574 244.52 226.664V209.784C244.49 204.464 245.27 199.254 246.71 194.134C247.36 191.994 248.1 190.054 249.33 188.314C250.56 186.564 252.76 184.524 256.01 184.524C259.25 184.524 261.46 186.574 262.69 188.314C263.92 190.064 264.66 191.994 265.31 194.134C266.75 199.254 267.53 204.464 267.5 209.784V226.664C267.5 241.574 274.89 259.284 286.63 274.904C286 168.144 275.72 80.1744 262.14 59.5544V33.4844H249.86ZM223.52 181.254C214 183.404 204.82 186.444 196.06 190.334C204.96 206.454 205.82 222.974 197.77 227.624C189.77 232.244 175.92 223.394 166.41 207.804C154.83 216.594 144.53 227.124 135.85 238.894C150.58 248.514 158.74 261.814 154.17 269.554C149.63 277.254 134.14 276.694 118.7 268.594C112.92 281.844 108.95 296.104 107.05 311.014C116.73 311.194 125.72 313.394 133.23 317.054C151.01 316.754 166 315.094 173.72 312.834C179.27 286.484 196.74 264.604 220.04 253.324C220.77 227.774 221.92 203.654 223.52 181.254ZM288.48 181.254C290.07 203.654 291.23 227.774 291.95 253.324C315.24 264.604 332.72 286.484 338.27 312.834C345.99 315.094 360.98 316.754 378.76 317.054C386.27 313.394 395.26 311.204 404.94 311.014C403.04 296.104 399.08 281.844 393.29 268.594C377.85 276.694 362.36 277.254 357.82 269.554C353.25 261.814 361.42 248.504 376.14 238.894C367.46 227.124 357.16 216.594 345.58 207.804C336.07 223.394 322.22 232.244 314.22 227.624C306.17 222.974 307.03 206.464 315.93 190.334C307.099 186.416 297.905 183.375 288.48 181.254ZM256 189.854C252.77 189.854 250.14 198.664 249.91 209.784H249.86V226.664C249.86 268.084 200.85 321.704 156.37 321.704C104.37 321.704 33.62 320.254 0 350.874V353.384C9.42 370.504 20.58 386.554 33.18 401.354C45.7 380.264 84.77 360.404 141.2 360.004C186.88 361.024 220.23 380.334 231.96 400.874C231.97 400.884 231.95 400.914 231.96 400.924C239.63 403.064 247.81 404.154 256 404.134C264.19 404.154 272.37 403.064 280.04 400.924C280.05 400.914 280.03 400.884 280.04 400.874C291.78 380.334 325.12 361.024 370.8 360.004C427.23 360.394 466.29 380.264 478.82 401.354C491.42 386.554 502.58 370.494 512 353.384V350.874C478.39 320.254 407.63 321.704 355.63 321.704C311.15 321.704 262.14 268.084 262.14 226.664V209.784H262.09C261.86 198.664 259.23 189.854 256 189.854ZM256 286.444C278.42 286.444 296.6 304.624 296.6 327.044C296.6 349.464 278.42 367.694 256 367.694C233.58 367.694 215.4 349.464 215.4 327.044C215.4 304.624 233.58 286.444 256 286.444ZM256 294.084C237.81 294.084 223.04 308.854 223.04 327.044C223.04 345.234 237.81 360.004 256 360.004C274.19 360.004 288.96 345.234 288.96 327.044C288.96 308.854 274.19 294.084 256 294.084ZM256 300.224C270.81 300.224 282.82 312.234 282.82 327.044C282.82 341.854 270.81 353.864 256 353.864C241.19 353.864 229.18 341.854 229.18 327.044C229.18 312.234 241.19 300.224 256 300.224ZM141.2 366.894C131.01 366.964 119.6 367.254 110.7 368.554C111.13 372.974 112.21 387.184 117.81 398.314C126.92 395.754 136.17 394.414 145.43 394.414C186.71 395.354 216.91 428.764 223.69 468.884L223.8 473.584C234.2 475.494 244.99 476.524 256.01 476.524C267.04 476.524 277.82 475.504 288.22 473.584L288.33 468.884C295.11 428.764 325.31 395.354 366.59 394.414C375.85 394.414 385.1 395.754 394.21 398.314C399.81 387.184 400.89 372.974 401.32 368.554C392.42 367.254 381 366.974 370.82 366.894C352.06 367.314 335.63 371.064 322.21 376.564C309.67 392.594 293.05 406.594 272.63 409.634C272.54 409.654 272.46 409.674 272.36 409.684C272.31 409.694 272.25 409.724 272.2 409.734C266.96 410.804 261.57 411.334 256.01 411.334C250.46 411.334 245.06 410.804 239.82 409.734C239.77 409.724 239.71 409.694 239.66 409.684C239.56 409.664 239.49 409.644 239.39 409.634C218.97 406.604 202.36 392.594 189.81 376.564C176.39 371.074 159.95 367.314 141.2 366.894Z" fill="black"/>
</svg>
