<svg width="496" height="512" viewBox="0 0 496 512" fill="none" xmlns="http://www.w3.org/2000/svg">
<path d="M248 504C111.25 504 0 392.75 0 256C0 119.25 111.25 8 248 8C384.75 8 496 119.25 496 256C496 392.75 384.75 504 248 504ZM248 24.53C120.37 24.53 16.53 128.37 16.53 256C16.53 383.63 120.37 487.47 248 487.47C375.63 487.47 479.47 383.63 479.47 256C479.47 128.37 375.63 24.53 248 24.53ZM275.62 46.34V70.96C305.895 75.4208 334.6 87.285 359.19 105.5L376.58 88.14C347.83 66.08 313.28 51.25 275.62 46.34ZM220.25 46.41C182.61 51.35 148.09 66.21 119.37 88.26L136.65 105.62H136.73C160.8 87.78 189.28 75.56 220.25 70.95V46.41ZM232.5 96.58V179.45C222.46 181.48 213.08 185.39 204.83 190.87L146.21 132.28L124.28 154.21L182.95 212.88C177.48 221.11 173.5 230.47 171.48 240.5H88.58V271.5H171.48C173.5 281.52 177.49 290.81 182.95 299.04L124.28 357.73L146.21 379.66L204.83 321.04C213.224 326.618 222.621 330.513 232.5 332.51V415.41H263.5V332.51C273.55 330.48 282.87 326.45 291.12 320.96L349.79 379.65L371.72 357.72L313.05 299.03C318.51 290.8 322.52 281.51 324.55 271.49H407.42V240.49H324.55C322.53 230.47 318.52 221.11 313.05 212.87L371.72 154.2L349.79 132.27L291.12 190.94C282.87 185.45 273.55 181.47 263.5 179.44V96.58H232.5ZM415.74 127.3L398.38 144.66C416.642 169.274 428.55 198.013 433.05 228.33H457.67C452.72 190.64 437.84 156.04 415.74 127.3ZM80.19 127.43C58.13 156.15 43.28 190.69 38.34 228.34H62.99C67.59 197.38 79.75 168.89 97.58 144.82L80.19 127.43ZM38.34 283.67C43.26 321.31 58.09 355.85 80.14 384.57L97.5 367.18C79.69 343.11 67.58 314.61 62.99 283.66H38.34V283.67ZM433.04 283.67C428.43 314.66 416.24 343.17 398.37 367.27L415.73 384.63C437.81 355.89 452.71 321.34 457.66 283.67H433.04ZM136.66 406.38L119.3 423.74C148.03 445.83 182.6 460.72 220.26 465.67V441.03C189.27 436.4 160.73 424.24 136.66 406.38ZM359.19 406.43C335.1 424.27 306.61 436.51 275.62 441.1V465.67C313.29 460.75 347.83 445.88 376.58 423.82L359.27 406.43H359.19Z" fill="black"/>
</svg>
