<svg width="512" height="512" viewBox="0 0 512 512" fill="none" xmlns="http://www.w3.org/2000/svg">
<path d="M495.902 166.6C499.102 175.3 496.402 185 489.502 191.2L446.202 230.6C447.302 238.9 447.902 247.4 447.902 256C447.902 264.6 447.302 273.1 446.202 281.4L489.502 320.8C496.402 327 499.102 336.7 495.902 345.4C491.502 357.3 486.202 368.7 480.102 379.7L475.402 387.8C468.802 398.8 461.402 409.2 453.302 419C447.402 426.2 437.602 428.6 428.802 425.8L373.102 408.1C359.702 418.4 344.902 427 329.102 433.5L316.602 490.6C314.602 499.7 307.602 506.9 298.402 508.4C284.602 510.7 270.402 511.9 255.902 511.9C241.402 511.9 227.202 510.7 213.402 508.4C204.202 506.9 197.202 499.7 195.202 490.6L182.702 433.5C166.902 427 152.102 418.4 138.702 408.1L83.1018 425.9C74.3018 428.7 64.5018 426.2 58.6018 419.1C50.5018 409.3 43.1018 398.9 36.5018 387.9L31.8018 379.8C25.7018 368.8 20.4018 357.4 16.0018 345.5C12.8018 336.8 15.5018 327.1 22.4018 320.9L65.7018 281.5C64.6018 273.1 64.0018 264.6 64.0018 256C64.0018 247.4 64.6018 238.9 65.7018 230.6L22.4018 191.2C15.5018 185 12.8018 175.3 16.0018 166.6C20.4018 154.7 25.7018 143.3 31.8018 132.3L36.5018 124.2C43.1018 113.2 50.5018 102.8 58.6018 93C64.5018 85.8 74.3018 83.4 83.1018 86.2L138.802 103.9C152.202 93.6 167.002 85 182.802 78.5L195.302 21.4C197.302 12.3 204.302 5.1 213.502 3.6C227.302 1.2 241.502 0 256.002 0C270.502 0 284.702 1.2 298.502 3.5C307.702 5 314.702 12.2 316.702 21.3L329.202 78.4C345.002 84.9 359.802 93.5 373.202 103.8L428.902 86.1C437.702 83.3 447.502 85.8 453.402 92.9C461.502 102.7 468.902 113.1 475.502 124.1L480.202 132.2C486.302 143.2 491.602 154.6 496.002 166.5L495.902 166.6ZM256.002 336C277.219 336 297.567 327.571 312.57 312.569C327.573 297.566 336.002 277.217 336.002 256C336.002 234.783 327.573 214.434 312.57 199.431C297.567 184.429 277.219 176 256.002 176C234.785 176 214.436 184.429 199.433 199.431C184.43 214.434 176.002 234.783 176.002 256C176.002 277.217 184.43 297.566 199.433 312.569C214.436 327.571 234.785 336 256.002 336Z" fill="black"/>
</svg>
