<svg width="512" height="512" viewBox="0 0 512 512" fill="none" xmlns="http://www.w3.org/2000/svg">
<path d="M257 8C120 8 9 119 9 256C9 393 120 504 257 504C394 504 505 393 505 256C505 119 394 8 257 8ZM207.5 382.8L81.8 257.1L207.5 131.4L242.7 166.8L218.5 191L207.4 179.9L130.2 257.1L207.4 334.3L234 307.7L180.9 254.8L205.3 230.4L282.5 307.6L207.5 382.8ZM306.5 380.6L271.3 345.4L295.4 321L306.5 332.1L383.7 254.9L306.5 177.7L280 204.2L333.1 257.1L308.7 281.5L231.5 204.3L306.5 129.3L432.2 255L306.5 380.6Z" fill="black"/>
</svg>
