<svg width="448" height="512" viewBox="0 0 448 512" fill="none" xmlns="http://www.w3.org/2000/svg">
<g clip-path="url(#clip0_3932_22555)">
<mask id="mask0_3932_22555" style="mask-type:luminance" maskUnits="userSpaceOnUse" x="0" y="0" width="448" height="512">
<path d="M448 0H0V512H448V0Z" fill="white"/>
</mask>
<g mask="url(#mask0_3932_22555)">
<mask id="mask1_3932_22555" style="mask-type:luminance" maskUnits="userSpaceOnUse" x="0" y="0" width="448" height="512">
<path d="M448 0H0V512H448V0Z" fill="white"/>
</mask>
<g mask="url(#mask1_3932_22555)">
<mask id="mask2_3932_22555" style="mask-type:luminance" maskUnits="userSpaceOnUse" x="0" y="0" width="448" height="512">
<path d="M448 0H0V512H448V0Z" fill="white"/>
</mask>
<g mask="url(#mask2_3932_22555)">
<mask id="mask3_3932_22555" style="mask-type:luminance" maskUnits="userSpaceOnUse" x="0" y="0" width="448" height="512">
<path d="M448 0H0V512H448V0Z" fill="white"/>
</mask>
<g mask="url(#mask3_3932_22555)">
<mask id="mask4_3932_22555" style="mask-type:luminance" maskUnits="userSpaceOnUse" x="0" y="0" width="448" height="512">
<path d="M448 0H0V512H448V0Z" fill="white"/>
</mask>
<g mask="url(#mask4_3932_22555)">
<mask id="mask5_3932_22555" style="mask-type:luminance" maskUnits="userSpaceOnUse" x="0" y="0" width="448" height="512">
<path d="M448 0H0V512H448V0Z" fill="white"/>
</mask>
<g mask="url(#mask5_3932_22555)">
<mask id="mask6_3932_22555" style="mask-type:luminance" maskUnits="userSpaceOnUse" x="0" y="0" width="448" height="512">
<path d="M448 0H0V512H448V0Z" fill="white"/>
</mask>
<g mask="url(#mask6_3932_22555)">
<mask id="mask7_3932_22555" style="mask-type:luminance" maskUnits="userSpaceOnUse" x="0" y="0" width="448" height="512">
<path d="M448 0H0V512H448V0Z" fill="white"/>
</mask>
<g mask="url(#mask7_3932_22555)">
<mask id="mask8_3932_22555" style="mask-type:luminance" maskUnits="userSpaceOnUse" x="0" y="0" width="448" height="512">
<path d="M448 0H0V512H448V0Z" fill="white"/>
</mask>
<g mask="url(#mask8_3932_22555)">
<mask id="mask9_3932_22555" style="mask-type:luminance" maskUnits="userSpaceOnUse" x="0" y="0" width="448" height="512">
<path d="M448 0H0V512H448V0Z" fill="white"/>
</mask>
<g mask="url(#mask9_3932_22555)">
<mask id="mask10_3932_22555" style="mask-type:luminance" maskUnits="userSpaceOnUse" x="0" y="0" width="448" height="512">
<path d="M448 0H0V512H448V0Z" fill="white"/>
</mask>
<g mask="url(#mask10_3932_22555)">
<mask id="mask11_3932_22555" style="mask-type:luminance" maskUnits="userSpaceOnUse" x="0" y="0" width="448" height="512">
<path d="M448 0H0V512H448V0Z" fill="white"/>
</mask>
<g mask="url(#mask11_3932_22555)">
<mask id="mask12_3932_22555" style="mask-type:luminance" maskUnits="userSpaceOnUse" x="0" y="0" width="448" height="512">
<path d="M448 0H0V512H448V0Z" fill="white"/>
</mask>
<g mask="url(#mask12_3932_22555)">
<mask id="mask13_3932_22555" style="mask-type:luminance" maskUnits="userSpaceOnUse" x="0" y="0" width="448" height="512">
<path d="M448 0H0V512H448V0Z" fill="white"/>
</mask>
<g mask="url(#mask13_3932_22555)">
<path d="M439.551 236.047L244.001 40.4467C238.587 35.0381 231.248 32 223.596 32C215.943 32 208.604 35.0381 203.191 40.4467L162.531 81.0767L214.051 132.597C241.111 123.457 266.731 149.367 257.441 176.277L307.101 225.937C341.331 214.137 368.281 256.937 342.571 282.627C316.081 309.117 272.361 279.757 286.571 245.287L240.221 198.997V320.847C265.521 333.387 262.481 362.697 249.301 375.847C242.861 382.282 234.13 385.897 225.026 385.897C215.922 385.897 207.19 382.282 200.751 375.847C183.181 358.247 189.681 328.937 212.001 319.847V196.847C191.201 188.337 187.401 166.107 193.361 151.847L142.571 100.997L8.4508 235.137C3.03978 240.549 0 247.888 0 255.542C0 263.195 3.03978 270.534 8.4508 275.947L204.061 471.547C209.473 476.954 216.81 479.992 224.461 479.992C232.111 479.992 239.449 476.954 244.861 471.547L439.551 276.857C444.962 271.444 448.002 264.105 448.002 256.452C448.002 248.798 444.962 241.459 439.551 236.047Z" fill="black"/>
</g>
</g>
</g>
</g>
</g>
</g>
</g>
</g>
</g>
</g>
</g>
</g>
</g>
</g>
</g>
<defs>
<clipPath id="clip0_3932_22555">
<rect width="448" height="512" fill="white"/>
</clipPath>
</defs>
</svg>
