<svg width="592" height="512" viewBox="0 0 592 512" fill="none" xmlns="http://www.w3.org/2000/svg">
<path d="M565.7 118.095C563.4 111.995 556.4 108.895 550.4 111.495C544.7 113.895 541.9 120.395 544.1 126.095C555 155.095 561 186.595 561 219.395C561 353.995 460.7 465.095 330.8 482.095V358.395C338.7 356.895 346.3 354.795 353.8 352.195V456.195C460.5 430.295 539.7 334.095 539.7 219.395C539.7 127.595 488.9 47.5955 413.9 6.09551C408.2 2.89551 400.9 5.19551 398 11.0955C395.3 16.5955 397.4 23.2955 402.7 26.1955C470.6 63.7955 516.6 136.195 516.6 219.395C516.6 312.695 458.7 392.495 376.8 424.795V332.595C391 328.095 401.7 314.895 401.7 299.095C401.7 285.995 394.9 274.695 384.4 268.595C392.7 189.095 428.9 209.995 428.9 184.695V169.995C428.9 131.995 341 8.19551 299.9 5.29551C297.4 5.09551 294.9 5.09551 292.3 5.29551C251.1 8.29551 163.2 131.995 163.2 169.995V184.795C163.2 210.095 199.5 189.095 207.7 268.695C197.1 274.795 190.4 286.095 190.4 299.195C190.4 314.995 201 328.195 215.2 332.695V424.895C133.3 392.695 75.4 312.895 75.4 219.495C75.4 136.395 121.4 63.9955 189.3 26.2955C194.7 23.2955 196.7 16.6955 194 11.1955C191.1 5.29551 183.9 2.99551 178.1 6.19551C103.1 47.6955 52.3 127.695 52.3 219.495C52.3 334.195 131.5 430.295 238.2 456.295V352.295C245.8 354.795 253.3 356.895 261.2 358.495V482.195C131.4 465.195 31 354.095 31 219.495C31 186.695 37 155.195 47.9 126.195C50.1 120.395 47.3 113.995 41.6 111.595C35.6 108.995 28.6 111.995 26.3 118.195C14.5 149.695 8 183.795 8 219.495C8 374.595 130.6 501.095 284.3 507.295V361.395C291.1 361.795 299.3 361.895 307.7 361.395V507.195C461.4 501.095 584 374.595 584 219.495C584 183.795 577.5 149.695 565.7 118.095ZM365.9 275.495C378.9 275.495 389.6 285.995 389.6 299.195C389.6 312.295 379 322.895 365.9 322.895C352.9 322.895 342.2 312.395 342.2 299.195C342.2 286.095 352.8 275.495 365.9 275.495ZM226.1 322.795C212.9 322.795 202.4 312.095 202.4 299.095C202.4 286.095 212.9 275.395 226.1 275.395C239.2 275.395 249.8 285.995 249.8 299.095C249.8 312.095 239.3 322.795 226.1 322.795Z" fill="black"/>
</svg>
