<svg width="640" height="512" viewBox="0 0 640 512" fill="none" xmlns="http://www.w3.org/2000/svg">
<g clip-path="url(#clip0_3932_22917)">
<mask id="mask0_3932_22917" style="mask-type:luminance" maskUnits="userSpaceOnUse" x="0" y="0" width="640" height="512">
<path d="M640 0H0V512H640V0Z" fill="white"/>
</mask>
<g mask="url(#mask0_3932_22917)">
<mask id="mask1_3932_22917" style="mask-type:luminance" maskUnits="userSpaceOnUse" x="0" y="0" width="640" height="512">
<path d="M640 0H0V512H640V0Z" fill="white"/>
</mask>
<g mask="url(#mask1_3932_22917)">
<mask id="mask2_3932_22917" style="mask-type:luminance" maskUnits="userSpaceOnUse" x="0" y="0" width="640" height="512">
<path d="M640 0H0V512H640V0Z" fill="white"/>
</mask>
<g mask="url(#mask2_3932_22917)">
<mask id="mask3_3932_22917" style="mask-type:luminance" maskUnits="userSpaceOnUse" x="0" y="0" width="640" height="512">
<path d="M640 0H0V512H640V0Z" fill="white"/>
</mask>
<g mask="url(#mask3_3932_22917)">
<mask id="mask4_3932_22917" style="mask-type:luminance" maskUnits="userSpaceOnUse" x="0" y="0" width="640" height="512">
<path d="M640 0H0V512H640V0Z" fill="white"/>
</mask>
<g mask="url(#mask4_3932_22917)">
<mask id="mask5_3932_22917" style="mask-type:luminance" maskUnits="userSpaceOnUse" x="0" y="0" width="640" height="512">
<path d="M640 0H0V512H640V0Z" fill="white"/>
</mask>
<g mask="url(#mask5_3932_22917)">
<mask id="mask6_3932_22917" style="mask-type:luminance" maskUnits="userSpaceOnUse" x="0" y="0" width="640" height="512">
<path d="M640 0H0V512H640V0Z" fill="white"/>
</mask>
<g mask="url(#mask6_3932_22917)">
<mask id="mask7_3932_22917" style="mask-type:luminance" maskUnits="userSpaceOnUse" x="0" y="0" width="640" height="512">
<path d="M640 0H0V512H640V0Z" fill="white"/>
</mask>
<g mask="url(#mask7_3932_22917)">
<mask id="mask8_3932_22917" style="mask-type:luminance" maskUnits="userSpaceOnUse" x="0" y="0" width="640" height="512">
<path d="M640 0H0V512H640V0Z" fill="white"/>
</mask>
<g mask="url(#mask8_3932_22917)">
<mask id="mask9_3932_22917" style="mask-type:luminance" maskUnits="userSpaceOnUse" x="0" y="0" width="640" height="512">
<path d="M640 0H0V512H640V0Z" fill="white"/>
</mask>
<g mask="url(#mask9_3932_22917)">
<mask id="mask10_3932_22917" style="mask-type:luminance" maskUnits="userSpaceOnUse" x="0" y="0" width="640" height="512">
<path d="M640 0H0V512H640V0Z" fill="white"/>
</mask>
<g mask="url(#mask10_3932_22917)">
<mask id="mask11_3932_22917" style="mask-type:luminance" maskUnits="userSpaceOnUse" x="0" y="0" width="640" height="512">
<path d="M640 0H0V512H640V0Z" fill="white"/>
</mask>
<g mask="url(#mask11_3932_22917)">
<mask id="mask12_3932_22917" style="mask-type:luminance" maskUnits="userSpaceOnUse" x="0" y="0" width="640" height="512">
<path d="M640 0H0V512H640V0Z" fill="white"/>
</mask>
<g mask="url(#mask12_3932_22917)">
<mask id="mask13_3932_22917" style="mask-type:luminance" maskUnits="userSpaceOnUse" x="0" y="0" width="640" height="512">
<path d="M640 0H0V512H640V0Z" fill="white"/>
</mask>
<g mask="url(#mask13_3932_22917)">
<path d="M400.1 194.796C389.2 197.596 380.2 199.096 371 202.396C363.7 204.296 356.3 206.296 347.8 208.496L347.2 208.596C343 209.796 342.6 209.896 338.7 205.396C334 200.096 330.6 196.696 324.1 193.496C304.4 183.896 285.4 186.696 267.7 198.196C246.5 211.896 235.6 232.196 235.9 257.396C236.2 282.396 253.3 302.896 277.1 306.296C299.1 309.096 316.9 301.696 330.9 285.796C333 283.196 334.9 280.496 337 277.496C337.8 276.496 338.5 275.396 339.3 274.196H279.2C272.7 274.196 271.1 270.196 273.3 264.896C277.3 255.196 284.8 238.996 289.2 230.896C290.1 229.096 292.3 225.096 296.1 225.096H397.2C401.7 211.696 409 198.196 418.8 185.396C441.5 155.496 468.1 139.896 506 133.396C537.8 127.796 567.7 130.896 594.9 149.296C619.5 166.096 634.7 188.896 638.8 218.796C644.1 260.896 631.9 295.096 602.1 324.396C582.4 345.296 557.2 358.396 528.2 364.296C522.6 365.296 517.1 365.796 511.7 366.296C508.8 366.496 506 366.796 503.2 367.096C474.9 366.496 449 358.396 427.2 339.696C411.9 326.396 401.3 310.096 396.1 291.196C392.4 298.496 388.1 305.596 382.1 312.296C360.5 341.896 331.2 360.296 294.2 365.196C263.6 369.296 235.3 363.396 210.3 344.696C187.3 327.196 174.2 304.196 170.8 275.496C166.7 241.496 176.7 210.096 197.2 184.196C219.4 155.196 248.7 136.796 284.5 130.296C313.8 124.096 341.8 128.396 367.1 145.596C383.6 156.496 395.4 171.396 403.2 189.496C405.1 192.296 403.8 193.896 400.1 194.796ZM48.3 200.396C47.05 200.396 46.74 199.796 47.36 198.796L53.91 190.396C54.53 189.496 56.09 188.896 57.34 188.896H168.6C169.8 188.896 170.1 189.796 169.5 190.696L164.2 198.796C163.6 199.796 162 200.696 161.1 200.696L48.3 200.396ZM1.24601 229.096C1.4782e-05 229.096 -0.311585 228.396 0.311615 227.496L6.85501 219.096C7.47901 218.196 9.03701 217.496 10.28 217.496H152.4C153.6 217.496 154.2 218.496 153.9 219.396L151.4 226.896C151.1 228.096 149.9 228.796 148.6 228.796L1.24601 229.096ZM75.72 255.896C75.1 256.796 75.41 257.696 76.65 257.696L144.6 257.996C145.5 257.996 146.8 257.096 146.8 255.896L147.4 248.396C147.4 247.096 146.8 246.196 145.5 246.196H83.2C81.95 246.196 80.71 247.096 80.08 248.096L75.72 255.896ZM577.2 237.896C577 235.296 576.9 233.096 576.5 230.896C570.9 200.096 542.5 182.596 512.9 189.496C483.9 195.996 465.2 214.396 458.4 243.696C452.8 267.996 464.6 292.596 487 302.596C504.2 310.096 521.3 309.196 537.8 300.696C562.4 287.096 575.8 267.996 577.4 241.196C577.3 239.996 577.3 238.896 577.2 237.896Z" fill="black"/>
</g>
</g>
</g>
</g>
</g>
</g>
</g>
</g>
</g>
</g>
</g>
</g>
</g>
</g>
</g>
<defs>
<clipPath id="clip0_3932_22917">
<rect width="640" height="512" fill="white"/>
</clipPath>
</defs>
</svg>
