<svg width="448" height="512" viewBox="0 0 448 512" fill="none" xmlns="http://www.w3.org/2000/svg">
<path d="M299.9 191.2C305 228.5 295.2 270.2 264 291.9C241.7 307.4 211.2 306 193.2 297.6C156.1 280.3 143.7 239 146.4 200.4C150.7 139.5 187.3 112.5 221.7 112.9C268.6 112.7 293.5 144.7 299.9 191.2ZM448 88V424C448 454.9 422.9 480 392 480H56C25.1 480 0 454.9 0 424V88C0 57.1 25.1 32 56 32H392C422.9 32 448 57.1 448 88ZM330 313.2C330 313.2 329.9 279.2 329.9 95.9H300.9V136.2C300.1 136.5 299.7 135.7 299.3 135C289.7 114.3 263.4 88.7 223.3 89C171.4 89.4 136.1 120.2 122.7 166.8C118.4 181.7 116.9 196.9 117.2 212.4C118.9 290.3 162.3 330.2 229.6 327.6C258.5 326.5 284.1 310.6 298.6 282.4C299.1 281.4 299.7 280.5 300.3 279.5C300.5 279.6 300.7 279.6 300.9 279.7C301.2 283.5 301.1 310.4 301 314.2C300.8 329 299 343.7 293.8 357.7C286 378.7 271.5 392.4 249.3 397.2C231.5 401.1 213.7 401 196.1 396C174.6 389.9 159.6 377 155 354.2C154.7 352.6 153.7 352.9 152.7 352.9H125.9C126.7 363.5 129.1 373.2 134.4 382.1C158.6 422.6 217.1 430.6 262.6 419.5C312.5 407.2 329.9 364.6 330 313.2Z" fill="black"/>
</svg>
