<svg width="512" height="512" viewBox="0 0 512 512" fill="none" xmlns="http://www.w3.org/2000/svg">
<path d="M256 8C119.1 8 8 119.1 8 256C8 392.9 119.1 504 256 504C392.9 504 504 392.9 504 256C504 119.1 392.9 8 256 8ZM185.3 380C152.413 380 120.873 366.936 97.6188 343.681C74.3643 320.427 61.3 288.887 61.3 256C61.3 223.113 74.3643 191.573 97.6188 168.319C120.873 145.064 152.413 132 185.3 132C216.6 132 245.4 143 268.3 164.3L234.7 196.9C221.5 184 203.4 177.8 185.3 177.8C142.4 177.8 108.1 213.3 108.1 255.9C108.1 298.5 142.3 334 185.3 334C217.9 334 250.2 314.9 255.4 280.7H185.3V238.1H302.2C303.49 244.924 304.126 251.855 304.1 258.8C304.1 329.6 256.6 380 185.3 380ZM415.5 273.8V309.3H380V273.8H344.5V238.3H380V202.8H415.5V238.3H450.7V273.8H415.5Z" fill="black"/>
</svg>
