<svg width="512" height="512" viewBox="0 0 512 512" fill="none" xmlns="http://www.w3.org/2000/svg">
<path d="M301.1 212C305.5 216.4 305.5 223.9 301.1 228.3L291.4 238C287 242.7 279.5 242.7 274.8 238L264.3 227.5C259.9 222.8 259.9 215.6 264.3 210.9L274 201.2C278.4 196.8 285.9 196.8 290.6 201.2L301.1 212ZM270.9 192.3C273.9 189.3 273.9 184.5 270.9 181.8C268.1 178.8 263.4 178.8 260.4 181.8C257.6 184.6 257.6 189.3 260.4 192.3C263.5 195.1 268.2 195.1 270.9 192.3ZM244.9 197.6C241.9 200.4 241.9 205.1 244.9 207.8C247.7 210.8 252.4 210.8 255.4 207.8C258.2 205 258.2 200.3 255.4 197.6C252.4 194.6 247.7 194.6 244.9 197.6ZM317.4 184.3C297.5 169.9 283.6 141.1 305.5 116.2C327.1 91.3 346.2 99 365.3 117C377.2 128.3 394.6 141.9 382.5 165.2C370 188.7 337.4 198.4 317.4 184.3ZM365.1 139.8C356.2 129.8 341.8 146.7 349.6 155.9C357 164.9 381.7 158.3 365.1 139.8ZM504 256C504 393 393 504 256 504C119 504 8 393 8 256C8 119 119 8 256 8C393 8 504 119 504 256ZM437.8 298.6C440.3 282.5 417.6 282 412.6 272.9C399 248.8 384.9 236.1 358.1 242.5C369.7 234.5 381.6 236.4 381.6 236.4C381.9 230 381.6 223.4 372.2 211.5C376.1 199 372.5 189.1 372.5 189.1C388 180.5 399.3 164.7 401.6 145.9C405.2 114.9 382.8 86.7 351.8 83.1C329.7 80.6 308.1 90.8 297.5 108.8C274.3 148.9 298.9 179.7 319.9 190.2C305.5 188.8 285.6 178.3 279.8 155.9C273.2 130.2 282.6 106.1 288.7 94.5C288.7 94.5 284.3 88.7 280.7 85.6C280.7 85.6 266.9 85.6 256.1 90.9C268 75.7 281.3 76.5 281.3 76.5C281.3 70.1 280.7 61.6 277.7 54.9C272.3 43.9 253.9 42 246 57.7C246.1 57.5 246.3 57.3 246.4 57.2C241.4 69.1 245.3 113.1 263.3 144.4C260.8 145.8 254.2 150.5 250.3 154.4C228.7 164.1 194.1 214.7 194.1 214.7C165.9 225.5 116.9 265.6 123.5 294.4C123.8 297.4 124.9 299.9 126.5 301.9C123.7 304.1 121 306.9 118.2 310.2C106.3 324 112.9 345.4 135.9 334.6C151.7 327.4 165.5 314.4 172.2 304.2C172.2 304.2 166.7 299.2 155.9 299.8C183.6 293.2 190.2 290.4 202.1 290.7C210.1 294.6 210.1 256.4 210.1 256.4C210.1 241.7 207.9 225.4 199 214.9C211.5 227.1 228.1 247.6 227 275.5C226.2 293.8 211.8 298.5 211.8 298.5C202.7 315.1 168.6 364.4 181.4 404.5C181.4 404.5 171.7 389.6 171.2 382.4C153.8 401.8 124.7 434.7 146.6 446.9C173.2 461.6 255.4 358.3 272.8 304.6C307.4 283.8 328.2 257.3 336.7 239.6C358.7 283.1 432 334.1 437.8 298.6Z" fill="black"/>
</svg>
