<svg width="448" height="512" viewBox="0 0 448 512" fill="none" xmlns="http://www.w3.org/2000/svg">
<path d="M52.1 93.6993C35.7 87.0993 27.7 68.4994 34.3 52.0994C40.9 35.6994 59.5 27.6994 75.9 34.2994L395.9 162.299C408 167.099 416 178.899 416 191.999C416 205.099 408 216.899 395.9 221.699L75.9 349.699C59.5 356.299 40.9 348.299 34.3 331.899C27.7 315.499 35.7 296.899 52.1 290.299L297.8 191.999L52.1 93.6993ZM416 415.999C433.7 415.999 448 430.299 448 447.999C448 465.699 433.7 479.999 416 479.999H32C14.3 479.999 0 465.699 0 447.999C0 430.299 14.3 415.999 32 415.999H416Z" fill="black"/>
</svg>
