<svg width="384" height="512" viewBox="0 0 384 512" fill="none" xmlns="http://www.w3.org/2000/svg">
<g clip-path="url(#clip0_3932_23357)">
<mask id="mask0_3932_23357" style="mask-type:luminance" maskUnits="userSpaceOnUse" x="0" y="0" width="384" height="512">
<path d="M384 0H0V512H384V0Z" fill="white"/>
</mask>
<g mask="url(#mask0_3932_23357)">
<mask id="mask1_3932_23357" style="mask-type:luminance" maskUnits="userSpaceOnUse" x="0" y="0" width="384" height="512">
<path d="M384 0H0V512H384V0Z" fill="white"/>
</mask>
<g mask="url(#mask1_3932_23357)">
<mask id="mask2_3932_23357" style="mask-type:luminance" maskUnits="userSpaceOnUse" x="0" y="0" width="384" height="512">
<path d="M384 0H0V512H384V0Z" fill="white"/>
</mask>
<g mask="url(#mask2_3932_23357)">
<mask id="mask3_3932_23357" style="mask-type:luminance" maskUnits="userSpaceOnUse" x="0" y="0" width="384" height="512">
<path d="M384 0H0V512H384V0Z" fill="white"/>
</mask>
<g mask="url(#mask3_3932_23357)">
<mask id="mask4_3932_23357" style="mask-type:luminance" maskUnits="userSpaceOnUse" x="0" y="0" width="384" height="512">
<path d="M384 0H0V512H384V0Z" fill="white"/>
</mask>
<g mask="url(#mask4_3932_23357)">
<mask id="mask5_3932_23357" style="mask-type:luminance" maskUnits="userSpaceOnUse" x="0" y="0" width="384" height="512">
<path d="M384 0H0V512H384V0Z" fill="white"/>
</mask>
<g mask="url(#mask5_3932_23357)">
<mask id="mask6_3932_23357" style="mask-type:luminance" maskUnits="userSpaceOnUse" x="0" y="0" width="384" height="512">
<path d="M384 0H0V512H384V0Z" fill="white"/>
</mask>
<g mask="url(#mask6_3932_23357)">
<mask id="mask7_3932_23357" style="mask-type:luminance" maskUnits="userSpaceOnUse" x="0" y="0" width="384" height="512">
<path d="M384 0H0V512H384V0Z" fill="white"/>
</mask>
<g mask="url(#mask7_3932_23357)">
<mask id="mask8_3932_23357" style="mask-type:luminance" maskUnits="userSpaceOnUse" x="0" y="0" width="384" height="512">
<path d="M384 0H0V512H384V0Z" fill="white"/>
</mask>
<g mask="url(#mask8_3932_23357)">
<mask id="mask9_3932_23357" style="mask-type:luminance" maskUnits="userSpaceOnUse" x="0" y="0" width="384" height="512">
<path d="M384 0H0V512H384V0Z" fill="white"/>
</mask>
<g mask="url(#mask9_3932_23357)">
<mask id="mask10_3932_23357" style="mask-type:luminance" maskUnits="userSpaceOnUse" x="0" y="0" width="384" height="512">
<path d="M384 0H0V512H384V0Z" fill="white"/>
</mask>
<g mask="url(#mask10_3932_23357)">
<mask id="mask11_3932_23357" style="mask-type:luminance" maskUnits="userSpaceOnUse" x="0" y="0" width="384" height="512">
<path d="M384 0H0V512H384V0Z" fill="white"/>
</mask>
<g mask="url(#mask11_3932_23357)">
<mask id="mask12_3932_23357" style="mask-type:luminance" maskUnits="userSpaceOnUse" x="0" y="0" width="384" height="512">
<path d="M384 0H0V512H384V0Z" fill="white"/>
</mask>
<g mask="url(#mask12_3932_23357)">
<mask id="mask13_3932_23357" style="mask-type:luminance" maskUnits="userSpaceOnUse" x="0" y="0" width="384" height="512">
<path d="M384 0H0V512H384V0Z" fill="white"/>
</mask>
<g mask="url(#mask13_3932_23357)">
<path d="M61.2969 189.303C60.1969 199.303 66.4969 208.403 66.4969 208.403C67.1969 200.903 68.6969 195.603 70.4969 191.803C70.8969 202.103 73.6969 215.303 83.2969 225.903C90.1969 233.503 118.897 249.203 138.197 232.003C139.197 234.403 140.297 237.303 141.197 240.503C144.097 250.803 138.497 265.803 138.497 265.803C138.497 265.803 153.597 248.703 152.397 233.303C163.197 232.803 173.797 224.903 173.497 213.803C173.497 213.803 154.597 224.203 137.997 205.003C128.297 193.803 97.0969 163.003 54.8969 173.203C59.1969 174.203 63.7969 175.603 68.3969 177.303H68.2969C64.0969 179.303 61.7969 184.403 61.2969 189.303ZM89.5969 187.503C109.097 198.503 126.997 213.203 134.497 224.503C128.797 227.803 112.797 234.903 96.4969 222.803C86.1969 215.203 86.6969 196.603 89.5969 187.503ZM231.697 233.303C230.497 248.803 245.597 265.803 245.597 265.803C245.597 265.803 239.997 250.803 242.897 240.503C243.797 237.303 244.897 234.503 245.897 232.003C265.197 249.303 293.897 233.503 300.697 225.903C310.297 215.303 312.997 202.103 313.497 191.803C315.297 195.603 316.897 200.903 317.497 208.403C317.497 208.403 323.897 199.303 322.697 189.303C322.097 184.303 319.797 179.303 315.697 177.503H315.597C320.197 175.703 324.797 174.303 329.097 173.403C286.797 163.203 255.697 194.003 245.997 205.203C229.297 224.403 210.497 214.003 210.497 214.003C210.297 224.903 220.897 232.903 231.697 233.303ZM294.397 187.503C297.397 196.603 297.797 215.203 287.397 222.903C271.097 235.003 255.197 227.903 249.497 224.503C256.997 213.103 274.897 198.503 294.397 187.503ZM159.997 418.503H130.597C125.097 418.503 122.397 420.103 121.097 421.403C119.197 423.403 118.897 426.103 120.197 429.503C123.697 438.603 131.597 446.003 133.897 448.103C136.997 450.803 141.397 452.403 145.697 452.403C150.097 452.403 153.997 450.703 156.697 447.803C164.197 439.603 168.597 430.703 169.697 428.003C170.297 426.503 170.997 423.503 168.797 421.203C166.997 419.403 164.097 418.503 159.997 418.503ZM349.197 317.303C346.797 335.203 336.197 351.103 324.597 361.003C321.497 338.303 320.897 305.503 320.897 298.603C320.897 283.903 330.397 274.103 333.097 272.503C335.597 271.003 338.497 269.503 341.397 267.903C359.397 258.303 381.797 246.303 381.797 224.203C381.797 208.003 372.497 201.003 366.397 196.403C365.597 195.803 364.897 195.303 364.197 194.703C362.097 193.003 360.497 191.703 359.897 190.303C355.497 180.503 356.297 156.103 358.197 152.703C358.797 152.103 374.897 131.803 369.997 113.503C367.997 106.103 363.097 100.203 355.897 96.5031C350.597 93.8031 343.997 92.3031 336.397 92.0031C336.297 90.0031 335.897 88.1031 335.497 86.1031C334.897 83.5031 334.397 80.8031 334.597 78.0031C334.997 73.3031 335.397 69.0031 336.797 66.7031C345.197 53.4031 365.597 49.1031 365.797 49.1031L378.097 46.7031L369.997 37.2031C369.897 37.0031 352.697 19.7031 323.697 19.7031C315.797 19.7031 307.697 21.0031 299.597 23.6031C275.397 31.4031 256.697 54.1031 250.197 62.9031C247.097 61.9031 243.897 61.0031 240.597 60.2031C236.397 44.4031 249.597 21.7031 249.597 21.7031C249.597 21.7031 235.997 18.7031 215.897 36.9031C213.297 30.4031 207.797 16.4031 214.097 -0.296875C184.597 10.1031 177.197 26.0031 174.997 40.4031C167.397 35.0031 168.297 17.3031 167.797 12.8031C160.297 13.7031 138.597 34.7031 139.597 61.1031C137.597 61.6031 135.697 62.2031 133.697 62.8031C127.197 54.0031 108.597 31.3031 84.2969 23.5031C76.3969 21.3031 68.2969 20.0031 60.3969 20.0031C31.3969 20.0031 14.2969 37.3031 14.0969 37.5031L5.99688 46.9031L18.2969 49.3031C18.4969 49.3031 38.8969 53.6031 47.2969 66.9031C48.6969 69.1031 49.0969 73.5031 49.4969 78.2031C49.6969 81.0031 49.0969 83.7031 48.5969 86.3031C48.1969 88.2031 47.7969 90.2031 47.6969 92.2031C39.9969 92.5031 33.4969 94.0031 28.1969 96.7031C20.9969 100.403 16.0969 106.303 14.0969 113.703C9.09687 131.903 25.2969 152.203 25.8969 152.903C27.7969 156.303 28.5969 180.703 24.1969 190.503C23.5969 191.903 21.9969 193.203 19.8969 194.903C19.1969 195.403 18.4969 196.003 17.6969 196.603C11.5969 201.203 2.29688 208.303 2.29688 224.403C2.29688 246.503 24.6969 258.503 42.6969 268.103C45.6969 269.703 48.4969 271.203 50.9969 272.703C53.6969 274.303 63.1969 284.103 63.1969 298.803C63.1969 305.703 62.5969 338.503 59.4969 361.203C47.8969 351.303 37.2969 335.303 34.8969 317.403C34.8969 317.403 5.69687 340.003 14.2969 388.203C19.4969 417.703 37.4969 434.303 61.2969 442.903C70.0969 462.003 90.6969 488.603 128.597 492.503C142.997 504.303 162.997 512.003 192.197 512.003H192.397C221.497 512.003 241.497 504.303 255.997 492.503C293.897 488.603 314.497 462.003 323.297 442.903C347.097 434.203 364.997 417.703 370.297 388.203C378.497 339.803 349.197 317.303 349.197 317.303ZM305.697 37.7031C311.297 35.9031 317.297 35.0031 323.397 35.0031C334.397 35.0031 343.297 38.0031 348.097 40.0031C344.997 41.4031 341.697 43.2031 338.397 45.3031C335.997 44.9031 332.797 44.5031 329.197 44.5031C318.697 44.5031 308.697 47.6031 300.497 53.4031C288.197 62.1031 282.497 70.3031 279.797 75.8031C277.597 74.5031 275.297 73.3031 272.697 72.1031C271.097 71.3031 269.597 70.6031 267.997 69.9031C274.097 60.8031 287.897 43.4031 305.697 37.7031ZM326.697 55.9031C325.897 56.9031 325.097 58.0031 324.397 59.1031C321.097 64.3031 320.497 70.7031 319.997 76.9031C319.497 83.3031 318.897 89.4031 315.597 93.9031C311.397 94.7031 307.497 95.6031 304.097 96.6031C301.797 93.5031 298.497 89.6031 293.597 85.4031C294.997 80.6031 299.097 69.3031 307.097 62.9031C312.697 58.6031 319.297 56.2031 326.697 55.9031ZM45.5969 45.3031C42.2969 43.1031 38.9969 41.3031 35.8969 40.0031C40.6969 38.0031 49.5969 35.0031 60.5969 35.0031C66.6969 35.0031 72.5969 35.9031 78.2969 37.7031C96.0969 43.5031 109.897 60.9031 115.997 69.8031C114.397 70.5031 112.797 71.2031 111.197 72.0031C108.697 73.2031 106.297 74.5031 104.097 75.7031C101.497 70.3031 95.7969 62.0031 83.3969 53.3031C75.0969 47.5031 65.1969 44.4031 54.5969 44.4031C51.1969 44.5031 47.9969 44.9031 45.5969 45.3031ZM90.2969 85.4031C85.3969 89.6031 81.9969 93.4031 79.7969 96.6031C76.3969 95.7031 72.4969 94.7031 68.2969 93.9031C64.9969 89.5031 64.4969 83.4031 63.9969 77.0031C63.4969 70.8031 62.8969 64.4031 59.5969 59.2031C58.8969 58.1031 58.0969 57.0031 57.2969 56.0031C64.6969 56.3031 71.2969 58.6031 76.7969 63.0031C84.7969 69.3031 88.8969 80.6031 90.2969 85.4031ZM58.0969 259.903C55.3969 258.303 52.4969 256.803 49.6969 255.303C34.7969 247.303 19.4969 239.003 19.4969 224.803C19.4969 213.703 23.7969 210.203 28.3969 206.603L28.8969 206.203C29.5969 205.603 30.2969 205.003 31.0969 204.403C30.1969 211.603 29.1969 217.703 28.3969 219.303C28.3969 219.303 40.4969 204.303 44.0969 175.003C45.4969 163.503 42.9969 140.703 38.9969 132.003C39.1969 136.903 38.9969 141.803 38.6969 146.403C38.2969 145.603 37.8969 144.803 37.3969 144.203C34.1969 140.203 25.5969 126.703 27.9969 117.603C28.8969 114.103 31.0969 111.603 34.6969 109.803C38.4969 107.903 43.4969 106.903 49.7969 106.903C62.0969 106.903 75.6969 110.603 82.6969 112.903C107.797 120.903 138.097 143.803 146.797 150.603C146.997 150.803 147.197 150.903 147.197 150.903L152.797 154.803L149.297 149.003C149.097 148.703 130.197 117.603 96.0969 102.503C98.0969 99.6031 103.497 94.4031 117.697 87.4031C139.097 76.9031 164.197 71.6031 191.997 71.6031C219.897 71.6031 244.897 76.9031 266.297 87.4031C280.497 94.3031 285.897 99.6031 287.897 102.503C253.897 117.603 234.997 148.703 234.797 149.003L231.297 154.803L236.897 150.903C236.897 150.903 237.097 150.803 237.297 150.603C245.997 143.803 276.297 120.803 301.397 112.903C308.397 110.703 321.997 106.903 334.297 106.903C340.597 106.903 345.597 107.903 349.397 109.803C352.897 111.603 355.097 114.203 356.097 117.603C358.597 126.703 349.997 140.203 346.697 144.203C346.197 144.803 345.797 145.503 345.397 146.403C345.097 141.803 344.897 136.903 345.097 132.003C341.097 140.803 338.597 163.503 339.997 175.003C343.597 204.303 355.697 219.303 355.697 219.303C354.897 217.703 353.897 211.603 352.997 204.403C353.697 205.003 354.497 205.603 355.197 206.203L355.697 206.603C360.297 210.303 364.597 213.703 364.597 224.803C364.597 239.003 349.197 247.303 334.397 255.303C331.497 256.803 328.697 258.403 325.997 259.903C317.297 264.903 307.997 276.603 306.897 294.103C305.997 308.703 307.797 344.003 310.297 370.003C297.897 374.803 283.597 376.403 270.597 376.803C268.597 372.703 266.697 368.303 265.097 363.703C264.397 361.703 245.497 312.603 238.697 301.503C244.197 340.503 256.197 375.203 262.197 391.103C258.697 390.603 254.897 390.403 250.497 390.403H133.497C129.097 390.403 125.197 390.703 121.797 391.103C127.797 375.203 139.897 340.503 145.297 301.503C138.497 312.703 119.597 361.803 118.897 363.703C117.297 368.303 115.397 372.703 113.397 376.803C100.397 376.403 86.1969 374.803 73.6969 370.003C76.1969 344.003 77.9969 308.803 77.0969 294.103C76.1969 276.703 66.7969 264.903 58.0969 259.903ZM34.7969 404.603C22.6969 384.603 26.0969 350.503 31.0969 345.503C41.9969 379.903 78.2969 389.803 105.497 390.903C102.797 395.103 100.297 398.503 98.4969 400.903L97.0969 402.303C89.8969 410.103 88.4969 420.803 92.9969 434.103C70.2969 434.003 46.6969 424.303 34.7969 404.603ZM80.4969 448.103C86.4969 449.203 92.6969 450.003 99.0969 450.503C102.597 458.503 106.497 466.403 111.397 473.603C96.9969 467.703 86.9969 457.603 80.4969 448.103ZM191.997 498.203C131.397 498.103 113.697 452.403 107.097 433.503C103.397 423.003 103.697 415.303 107.997 410.403C110.897 407.103 117.497 403.203 132.597 403.203H251.397C266.497 403.203 273.197 407.103 275.997 410.403C280.197 415.203 280.497 423.003 276.897 433.503C270.297 452.303 252.597 498.103 191.997 498.203ZM272.597 473.603C277.497 466.403 281.397 458.503 284.897 450.503C291.297 450.003 297.497 449.203 303.497 448.103C296.997 457.603 286.997 467.703 272.597 473.603ZM349.197 404.603C337.197 424.303 313.597 433.903 291.097 434.303C295.597 421.003 294.197 410.203 286.997 402.503C286.597 402.003 286.097 401.503 285.597 401.003C283.797 398.603 281.297 395.203 278.597 391.003C305.797 389.803 342.097 380.003 352.997 345.603C357.997 350.603 361.397 384.703 349.197 404.603ZM191.897 187.703H192.097C204.797 187.603 219.297 169.903 219.297 169.903C209.397 175.903 200.497 178.003 191.997 178.203C183.497 178.003 174.597 175.903 164.697 169.903C164.697 169.903 179.197 187.503 191.897 187.703ZM253.597 418.403H224.197C219.997 418.403 216.997 419.303 215.297 421.103C213.097 423.403 213.797 426.303 214.397 427.803C215.397 430.403 219.897 439.103 227.397 447.103C230.097 450.003 233.997 451.603 238.397 451.603C242.797 451.603 247.097 450.003 250.197 447.403C252.497 445.403 260.397 438.203 263.897 429.303C265.197 426.003 264.897 423.303 262.997 421.403C261.697 420.103 258.997 418.503 253.597 418.403Z" fill="black"/>
</g>
</g>
</g>
</g>
</g>
</g>
</g>
</g>
</g>
</g>
</g>
</g>
</g>
</g>
</g>
<defs>
<clipPath id="clip0_3932_23357">
<rect width="384" height="512" fill="white"/>
</clipPath>
</defs>
</svg>
