<svg width="256" height="512" viewBox="0 0 256 512" fill="none" xmlns="http://www.w3.org/2000/svg">
<g clip-path="url(#clip0_3932_23533)">
<mask id="mask0_3932_23533" style="mask-type:luminance" maskUnits="userSpaceOnUse" x="0" y="0" width="256" height="512">
<path d="M256 0H0V512H256V0Z" fill="white"/>
</mask>
<g mask="url(#mask0_3932_23533)">
<mask id="mask1_3932_23533" style="mask-type:luminance" maskUnits="userSpaceOnUse" x="0" y="0" width="256" height="512">
<path d="M256 0H0V512H256V0Z" fill="white"/>
</mask>
<g mask="url(#mask1_3932_23533)">
<mask id="mask2_3932_23533" style="mask-type:luminance" maskUnits="userSpaceOnUse" x="0" y="0" width="256" height="512">
<path d="M256 0H0V512H256V0Z" fill="white"/>
</mask>
<g mask="url(#mask2_3932_23533)">
<mask id="mask3_3932_23533" style="mask-type:luminance" maskUnits="userSpaceOnUse" x="0" y="0" width="256" height="512">
<path d="M256 0H0V512H256V0Z" fill="white"/>
</mask>
<g mask="url(#mask3_3932_23533)">
<mask id="mask4_3932_23533" style="mask-type:luminance" maskUnits="userSpaceOnUse" x="0" y="0" width="256" height="512">
<path d="M256 0H0V512H256V0Z" fill="white"/>
</mask>
<g mask="url(#mask4_3932_23533)">
<mask id="mask5_3932_23533" style="mask-type:luminance" maskUnits="userSpaceOnUse" x="0" y="0" width="256" height="512">
<path d="M256 0H0V512H256V0Z" fill="white"/>
</mask>
<g mask="url(#mask5_3932_23533)">
<mask id="mask6_3932_23533" style="mask-type:luminance" maskUnits="userSpaceOnUse" x="0" y="0" width="256" height="512">
<path d="M256 0H0V512H256V0Z" fill="white"/>
</mask>
<g mask="url(#mask6_3932_23533)">
<mask id="mask7_3932_23533" style="mask-type:luminance" maskUnits="userSpaceOnUse" x="0" y="0" width="256" height="512">
<path d="M256 0H0V512H256V0Z" fill="white"/>
</mask>
<g mask="url(#mask7_3932_23533)">
<mask id="mask8_3932_23533" style="mask-type:luminance" maskUnits="userSpaceOnUse" x="0" y="0" width="256" height="512">
<path d="M256 0H0V512H256V0Z" fill="white"/>
</mask>
<g mask="url(#mask8_3932_23533)">
<mask id="mask9_3932_23533" style="mask-type:luminance" maskUnits="userSpaceOnUse" x="0" y="0" width="256" height="512">
<path d="M256 0H0V512H256V0Z" fill="white"/>
</mask>
<g mask="url(#mask9_3932_23533)">
<mask id="mask10_3932_23533" style="mask-type:luminance" maskUnits="userSpaceOnUse" x="0" y="0" width="256" height="512">
<path d="M256 0H0V512H256V0Z" fill="white"/>
</mask>
<g mask="url(#mask10_3932_23533)">
<mask id="mask11_3932_23533" style="mask-type:luminance" maskUnits="userSpaceOnUse" x="0" y="0" width="256" height="512">
<path d="M256 0H0V512H256V0Z" fill="white"/>
</mask>
<g mask="url(#mask11_3932_23533)">
<mask id="mask12_3932_23533" style="mask-type:luminance" maskUnits="userSpaceOnUse" x="0" y="0" width="256" height="512">
<path d="M256 0H0V512H256V0Z" fill="white"/>
</mask>
<g mask="url(#mask12_3932_23533)">
<path d="M209.805 391.099L195.705 415.699L191.105 495.899C191.105 504.799 162.805 511.999 128.005 511.999C93.2047 511.999 64.9047 504.799 64.9047 495.899L59.1047 416.499L44.2047 391.099C85.4047 408.399 170.205 407.799 209.805 391.099ZM13.8047 137.799L27.4047 263.299C33.3047 243.299 48.2047 216.299 67.4047 208.099C73.7047 205.399 80.1047 205.399 86.1047 208.999C91.3047 211.999 95.7047 218.299 96.2047 220.799C97.4047 227.299 94.2047 229.899 91.7047 229.899C88.7047 229.899 86.4047 225.299 84.9047 222.599C80.8047 215.299 74.6047 214.999 68.0047 219.799C61.1047 224.799 55.1047 233.199 50.9047 240.499C45.8047 249.299 41.5047 258.999 38.9047 268.699C37.4047 274.299 36.0047 283.299 38.3047 288.599C39.3047 290.799 40.8047 292.199 43.2047 292.199C48.2047 292.199 55.5047 285.599 59.0047 282.099C63.5047 277.599 69.3047 270.599 71.5047 266.099L76.7047 250.599C79.3047 243.799 86.6047 244.999 86.6047 250.599C86.6047 260.799 82.9047 264.199 76.6047 285.299C70.8047 304.799 69.0047 311.099 69.0047 311.099C68.3047 313.899 65.6047 318.599 62.7047 318.599C61.5047 318.599 60.6047 318.199 60.1047 317.399C59.1047 315.999 59.2047 312.099 59.3047 311.099C59.5047 307.899 65.6047 288.899 66.6047 285.899C64.6047 288.099 62.5047 290.299 60.2047 292.499C54.8047 297.599 46.1047 304.299 38.7047 304.299C35.3047 304.299 33.1047 303.399 31.0047 301.899L38.6047 381.499C40.6047 386.499 77.8047 398.599 126.805 398.599C175.905 398.599 213.105 386.399 215.005 381.499L225.905 286.899C220.205 292.099 213.605 298.499 206.305 301.699C200.905 303.999 188.905 305.499 188.905 295.999C188.905 290.799 198.005 281.199 203.305 274.499C204.705 272.799 208.005 268.599 208.005 266.399C208.005 263.499 202.005 264.199 196.305 268.899C193.105 271.599 190.105 275.199 187.605 278.599C183.305 284.599 181.005 289.799 179.105 294.099C172.905 308.299 175.005 302.699 170.005 316.099C165.005 329.399 165.805 327.899 164.805 330.099C163.905 331.999 162.605 333.599 160.805 334.599C158.905 335.599 156.305 335.499 154.705 334.299C153.805 333.699 153.405 332.399 153.405 330.599C153.405 329.699 153.505 328.799 153.705 327.899C155.205 321.799 161.505 309.799 168.705 293.599C170.305 289.899 169.705 290.999 169.505 291.299C163.305 297.299 158.605 300.199 155.105 301.799C149.305 304.399 142.105 304.399 140.605 297.699C140.505 297.299 140.505 296.899 140.405 296.499C128.605 305.699 116.105 308.199 120.405 288.399C115.805 296.599 107.805 303.299 98.0047 303.299C93.9047 303.299 90.9047 301.899 89.4047 298.199C87.1047 292.699 90.7047 283.299 94.0047 274.399C95.7047 269.899 98.0047 264.499 101.105 258.199C102.705 254.799 105.305 252.799 108.705 253.699C109.305 253.899 109.805 254.099 110.305 254.399C112.905 256.199 111.905 258.899 110.605 261.599C106.805 269.099 103.505 274.599 101.305 282.399C100.405 285.699 99.3047 291.399 102.805 291.399C105.205 291.399 107.505 290.599 109.705 288.999C114.305 285.599 118.005 280.499 120.805 275.499C122.805 271.899 125.205 267.199 126.405 263.199C126.905 261.499 127.505 259.899 128.205 258.399C129.305 255.899 130.805 253.299 133.405 253.299C134.705 253.299 135.805 253.799 136.605 254.799C138.305 256.999 137.905 259.299 137.005 261.699C135.005 267.299 132.305 272.299 130.105 278.399C128.805 281.899 127.405 286.399 127.405 290.099C127.405 293.499 131.105 292.699 134.205 291.299C136.605 290.199 139.005 288.499 141.005 286.799C142.205 281.899 141.905 282.999 167.405 218.599C168.705 215.299 171.105 213.899 173.505 213.899C174.705 213.899 175.705 214.299 176.705 214.999C178.405 216.299 178.405 219.099 177.705 221.199C177.005 223.099 177.105 222.499 173.205 231.699C168.005 243.799 164.605 252.499 160.005 263.599C158.105 268.199 152.305 282.499 151.305 285.899C150.705 288.099 150.005 291.699 152.305 291.699C157.705 291.699 171.605 278.599 175.405 274.699C175.605 274.399 175.905 274.299 176.305 274.099C176.905 272.199 177.505 270.399 178.005 268.599C179.405 264.799 180.705 260.399 183.305 257.299C184.105 256.299 185.005 255.699 186.005 255.699C188.805 255.699 190.205 256.899 190.205 259.699C190.205 260.799 189.505 264.799 189.105 265.899C190.505 264.399 192.005 262.899 193.605 261.399C208.605 247.499 219.305 254.599 219.305 261.599C219.305 268.999 210.405 279.299 205.505 284.999C203.905 286.899 200.605 290.399 200.505 291.399C200.505 292.699 201.405 293.199 202.705 293.199C204.705 293.199 209.105 289.699 210.705 288.499C215.705 284.599 222.505 278.599 227.305 274.399L242.105 137.599C211.605 154.699 44.5047 154.799 13.8047 137.799ZM243.505 129.299C243.505 150.299 12.3047 150.299 12.3047 129.299C12.3047 120.499 64.1047 113.399 127.905 113.399C136.905 113.399 145.705 113.499 154.205 113.799L166.805 65.0986L228.105 0.598602C229.505 -0.801398 233.905 0.3986 238.005 4.0986C242.105 7.7986 244.605 11.9986 243.305 13.3986L243.205 13.4986L185.905 73.9986L175.905 114.699C215.805 117.299 243.505 122.799 243.505 129.299ZM174.105 133.899C174.105 133.099 173.205 132.399 171.605 131.799L171.405 132.599C171.405 133.899 166.405 134.999 160.305 134.999C154.205 134.999 149.205 133.899 149.205 132.599C149.205 132.499 149.205 132.399 149.305 132.299L149.505 131.599C147.705 132.199 146.505 132.999 146.505 133.899C146.505 135.999 152.705 137.599 160.205 137.599C167.905 137.699 174.105 135.999 174.105 133.899Z" fill="black"/>
</g>
</g>
</g>
</g>
</g>
</g>
</g>
</g>
</g>
</g>
</g>
</g>
</g>
</g>
<defs>
<clipPath id="clip0_3932_23533">
<rect width="256" height="512" fill="white"/>
</clipPath>
</defs>
</svg>
