<svg width="640" height="512" viewBox="0 0 640 512" fill="none" xmlns="http://www.w3.org/2000/svg">
<g clip-path="url(#clip0_3932_24363)">
<mask id="mask0_3932_24363" style="mask-type:luminance" maskUnits="userSpaceOnUse" x="0" y="0" width="640" height="512">
<path d="M640 0H0V512H640V0Z" fill="white"/>
</mask>
<g mask="url(#mask0_3932_24363)">
<mask id="mask1_3932_24363" style="mask-type:luminance" maskUnits="userSpaceOnUse" x="0" y="0" width="640" height="512">
<path d="M640 0H0V512H640V0Z" fill="white"/>
</mask>
<g mask="url(#mask1_3932_24363)">
<mask id="mask2_3932_24363" style="mask-type:luminance" maskUnits="userSpaceOnUse" x="0" y="0" width="640" height="512">
<path d="M640 0H0V512H640V0Z" fill="white"/>
</mask>
<g mask="url(#mask2_3932_24363)">
<mask id="mask3_3932_24363" style="mask-type:luminance" maskUnits="userSpaceOnUse" x="0" y="0" width="640" height="512">
<path d="M640 0H0V512H640V0Z" fill="white"/>
</mask>
<g mask="url(#mask3_3932_24363)">
<mask id="mask4_3932_24363" style="mask-type:luminance" maskUnits="userSpaceOnUse" x="0" y="0" width="640" height="512">
<path d="M640 0H0V512H640V0Z" fill="white"/>
</mask>
<g mask="url(#mask4_3932_24363)">
<mask id="mask5_3932_24363" style="mask-type:luminance" maskUnits="userSpaceOnUse" x="0" y="0" width="640" height="512">
<path d="M640 0H0V512H640V0Z" fill="white"/>
</mask>
<g mask="url(#mask5_3932_24363)">
<mask id="mask6_3932_24363" style="mask-type:luminance" maskUnits="userSpaceOnUse" x="0" y="0" width="640" height="512">
<path d="M640 0H0V512H640V0Z" fill="white"/>
</mask>
<g mask="url(#mask6_3932_24363)">
<mask id="mask7_3932_24363" style="mask-type:luminance" maskUnits="userSpaceOnUse" x="0" y="0" width="640" height="512">
<path d="M640 0H0V512H640V0Z" fill="white"/>
</mask>
<g mask="url(#mask7_3932_24363)">
<mask id="mask8_3932_24363" style="mask-type:luminance" maskUnits="userSpaceOnUse" x="0" y="0" width="640" height="512">
<path d="M640 0H0V512H640V0Z" fill="white"/>
</mask>
<g mask="url(#mask8_3932_24363)">
<mask id="mask9_3932_24363" style="mask-type:luminance" maskUnits="userSpaceOnUse" x="0" y="0" width="640" height="512">
<path d="M640 0H0V512H640V0Z" fill="white"/>
</mask>
<g mask="url(#mask9_3932_24363)">
<mask id="mask10_3932_24363" style="mask-type:luminance" maskUnits="userSpaceOnUse" x="0" y="0" width="640" height="512">
<path d="M640 0H0V512H640V0Z" fill="white"/>
</mask>
<g mask="url(#mask10_3932_24363)">
<mask id="mask11_3932_24363" style="mask-type:luminance" maskUnits="userSpaceOnUse" x="0" y="0" width="640" height="512">
<path d="M640 0H0V512H640V0Z" fill="white"/>
</mask>
<g mask="url(#mask11_3932_24363)">
<mask id="mask12_3932_24363" style="mask-type:luminance" maskUnits="userSpaceOnUse" x="0" y="0" width="640" height="512">
<path d="M640 0H0V512H640V0Z" fill="white"/>
</mask>
<g mask="url(#mask12_3932_24363)">
<mask id="mask13_3932_24363" style="mask-type:luminance" maskUnits="userSpaceOnUse" x="0" y="0" width="640" height="512">
<path d="M640 0H0V512H640V0Z" fill="white"/>
</mask>
<g mask="url(#mask13_3932_24363)">
<path d="M156.6 46.3027C164.5 30.5027 158.1 11.3026 142.3 3.40267C126.5 -4.49733 107.3 1.90268 99.4 17.7027L13.5 189.403C4.6 207.203 0 226.803 0 246.703V256.003C0 326.703 57.3 384.003 128 384.003H200H208V383.703C243.2 381.003 273.4 360.903 290.1 332.003C298.9 316.703 293.7 297.103 278.4 288.303C263.1 279.503 243.5 284.703 234.7 300.003C227.7 312.003 214.8 320.003 200 320.003C177.9 320.003 160 302.103 160 280.003C160 257.903 177.9 240.003 200 240.003C214.8 240.003 227.7 248.003 234.7 260.003C243.5 275.303 263.1 280.503 278.4 271.703C293.7 262.903 298.9 243.303 290.1 228.003C277.3 205.903 256.5 188.903 231.7 180.903L312.5 158.903C329.5 154.303 339.6 136.703 335 119.603C330.4 102.503 312.8 92.5027 295.7 97.1027L194.9 124.603L276.5 56.6026C290.1 45.3027 291.9 25.1026 280.6 11.5026C269.3 -2.09733 249.1 -3.89733 235.5 7.40267L133.6 92.3027L156.6 46.3027ZM483.4 465.703C475.5 481.503 481.9 500.703 497.7 508.603C513.5 516.503 532.7 510.103 540.6 494.303L626.5 322.603C635.4 304.803 640 285.203 640 265.403V256.003C640 185.303 582.7 128.003 512 128.003H440H432V128.303C396.8 131.003 366.6 151.103 349.9 180.003C341 195.303 346.3 214.903 361.6 223.703C376.9 232.503 396.5 227.303 405.3 212.003C412.3 200.003 425.2 192.003 440 192.003C462.1 192.003 480 209.903 480 232.003C480 254.103 462.1 272.003 440 272.003C425.2 272.003 412.3 264.003 405.3 252.003C396.4 236.703 376.9 231.503 361.6 240.303C346.3 249.103 341.1 268.703 349.9 284.003C362.7 306.103 383.5 323.103 408.3 331.103L327.5 353.103C310.4 357.803 300.4 375.303 305 392.403C309.6 409.503 327.2 419.503 344.3 414.903L445 387.403L363.4 455.403C349.8 466.703 348 486.903 359.3 500.503C370.6 514.103 390.8 515.903 404.4 504.603L506.3 419.703L483.3 465.703H483.4Z" fill="black"/>
</g>
</g>
</g>
</g>
</g>
</g>
</g>
</g>
</g>
</g>
</g>
</g>
</g>
</g>
</g>
<defs>
<clipPath id="clip0_3932_24363">
<rect width="640" height="512" fill="white"/>
</clipPath>
</defs>
</svg>
