<svg width="576" height="512" viewBox="0 0 576 512" fill="none" xmlns="http://www.w3.org/2000/svg">
<g clip-path="url(#clip0_3932_24951)">
<mask id="mask0_3932_24951" style="mask-type:luminance" maskUnits="userSpaceOnUse" x="0" y="0" width="576" height="512">
<path d="M576 0H0V512H576V0Z" fill="white"/>
</mask>
<g mask="url(#mask0_3932_24951)">
<mask id="mask1_3932_24951" style="mask-type:luminance" maskUnits="userSpaceOnUse" x="0" y="0" width="576" height="512">
<path d="M576 0H0V512H576V0Z" fill="white"/>
</mask>
<g mask="url(#mask1_3932_24951)">
<mask id="mask2_3932_24951" style="mask-type:luminance" maskUnits="userSpaceOnUse" x="0" y="0" width="576" height="512">
<path d="M576 0H0V512H576V0Z" fill="white"/>
</mask>
<g mask="url(#mask2_3932_24951)">
<mask id="mask3_3932_24951" style="mask-type:luminance" maskUnits="userSpaceOnUse" x="0" y="0" width="576" height="512">
<path d="M576 0H0V512H576V0Z" fill="white"/>
</mask>
<g mask="url(#mask3_3932_24951)">
<mask id="mask4_3932_24951" style="mask-type:luminance" maskUnits="userSpaceOnUse" x="0" y="0" width="576" height="512">
<path d="M576 0H0V512H576V0Z" fill="white"/>
</mask>
<g mask="url(#mask4_3932_24951)">
<mask id="mask5_3932_24951" style="mask-type:luminance" maskUnits="userSpaceOnUse" x="0" y="0" width="576" height="512">
<path d="M576 0H0V512H576V0Z" fill="white"/>
</mask>
<g mask="url(#mask5_3932_24951)">
<mask id="mask6_3932_24951" style="mask-type:luminance" maskUnits="userSpaceOnUse" x="0" y="0" width="576" height="512">
<path d="M576 0H0V512H576V0Z" fill="white"/>
</mask>
<g mask="url(#mask6_3932_24951)">
<mask id="mask7_3932_24951" style="mask-type:luminance" maskUnits="userSpaceOnUse" x="0" y="0" width="576" height="512">
<path d="M576 0H0V512H576V0Z" fill="white"/>
</mask>
<g mask="url(#mask7_3932_24951)">
<mask id="mask8_3932_24951" style="mask-type:luminance" maskUnits="userSpaceOnUse" x="0" y="0" width="576" height="512">
<path d="M576 0H0V512H576V0Z" fill="white"/>
</mask>
<g mask="url(#mask8_3932_24951)">
<mask id="mask9_3932_24951" style="mask-type:luminance" maskUnits="userSpaceOnUse" x="0" y="0" width="576" height="512">
<path d="M576 0H0V512H576V0Z" fill="white"/>
</mask>
<g mask="url(#mask9_3932_24951)">
<mask id="mask10_3932_24951" style="mask-type:luminance" maskUnits="userSpaceOnUse" x="0" y="0" width="576" height="512">
<path d="M576 0H0V512H576V0Z" fill="white"/>
</mask>
<g mask="url(#mask10_3932_24951)">
<mask id="mask11_3932_24951" style="mask-type:luminance" maskUnits="userSpaceOnUse" x="0" y="0" width="576" height="512">
<path d="M576 0H0V512H576V0Z" fill="white"/>
</mask>
<g mask="url(#mask11_3932_24951)">
<mask id="mask12_3932_24951" style="mask-type:luminance" maskUnits="userSpaceOnUse" x="0" y="0" width="576" height="512">
<path d="M576 0H0V512H576V0Z" fill="white"/>
</mask>
<g mask="url(#mask12_3932_24951)">
<mask id="mask13_3932_24951" style="mask-type:luminance" maskUnits="userSpaceOnUse" x="0" y="0" width="576" height="512">
<path d="M576 0H0V512H576V0Z" fill="white"/>
</mask>
<g mask="url(#mask13_3932_24951)">
<path d="M170.202 80.7983C161.002 46.9983 180.802 11.9984 214.602 2.39831C248.602 -7.20169 284.002 12.5984 293.602 46.5984L323.902 153.698L337.102 83.9983C343.702 49.2983 377.202 26.4984 411.902 33.0984C443.302 39.0984 464.902 66.9983 463.902 97.9983C473.902 95.3983 484.702 95.1983 495.402 97.8983C529.702 106.498 550.502 141.198 542.002 175.498L486.702 397.198C469.802 464.698 409.202 511.998 339.602 511.998C328.402 511.998 317.102 511.998 305.902 511.998C249.002 511.998 193.702 492.998 148.702 458.098L56.7018 386.498C28.8018 364.798 23.8018 324.598 45.5018 296.698C67.2018 268.798 107.402 263.798 135.302 285.498L152.302 298.698L100.502 167.498C87.5018 134.598 103.702 97.3983 136.502 84.4983C147.602 80.0983 159.202 79.0984 170.202 80.7983ZM247.302 59.5984C244.902 51.0984 236.102 46.1983 227.602 48.5984C219.102 50.9984 214.202 59.7983 216.602 68.2983L271.402 250.698C274.902 262.998 268.102 275.898 256.002 279.998C243.902 284.098 230.702 277.998 226.002 266.098L174.902 138.098C171.702 129.898 162.402 125.798 154.102 129.098C145.802 132.398 141.802 141.598 145.102 149.898L218.402 335.498C230.402 365.798 194.702 392.498 169.002 372.498L105.902 323.398C98.9018 317.998 88.9018 319.198 83.4018 326.198C77.9018 333.198 79.2018 343.198 86.2018 348.698L178.202 420.298C214.702 448.698 259.602 464.098 305.902 464.098C317.102 464.098 328.402 464.098 339.602 464.098C387.102 464.098 428.602 431.698 440.102 385.598L495.502 163.998C497.602 155.398 492.402 146.698 483.902 144.598C475.402 142.498 466.602 147.698 464.502 156.198L438.502 260.198C435.602 271.798 425.002 279.998 413.002 279.998C396.502 279.998 384.102 264.998 387.202 248.798L415.702 98.9983C417.402 90.2983 411.702 81.8983 403.002 80.2983C394.302 78.6983 385.902 84.2983 384.302 92.9983L352.502 259.998C350.302 271.598 340.102 279.998 328.302 279.998C317.302 279.998 307.602 272.698 304.602 262.098L247.402 59.5984H247.302Z" fill="black"/>
</g>
</g>
</g>
</g>
</g>
</g>
</g>
</g>
</g>
</g>
</g>
</g>
</g>
</g>
</g>
<defs>
<clipPath id="clip0_3932_24951">
<rect width="576" height="512" fill="white"/>
</clipPath>
</defs>
</svg>
