<svg width="640" height="512" viewBox="0 0 640 512" fill="none" xmlns="http://www.w3.org/2000/svg">
<g clip-path="url(#clip0_3932_23715)">
<mask id="mask0_3932_23715" style="mask-type:luminance" maskUnits="userSpaceOnUse" x="0" y="0" width="640" height="512">
<path d="M640 0H0V512H640V0Z" fill="white"/>
</mask>
<g mask="url(#mask0_3932_23715)">
<mask id="mask1_3932_23715" style="mask-type:luminance" maskUnits="userSpaceOnUse" x="0" y="0" width="640" height="512">
<path d="M640 0H0V512H640V0Z" fill="white"/>
</mask>
<g mask="url(#mask1_3932_23715)">
<mask id="mask2_3932_23715" style="mask-type:luminance" maskUnits="userSpaceOnUse" x="0" y="0" width="640" height="512">
<path d="M640 0H0V512H640V0Z" fill="white"/>
</mask>
<g mask="url(#mask2_3932_23715)">
<mask id="mask3_3932_23715" style="mask-type:luminance" maskUnits="userSpaceOnUse" x="0" y="0" width="640" height="512">
<path d="M640 0H0V512H640V0Z" fill="white"/>
</mask>
<g mask="url(#mask3_3932_23715)">
<mask id="mask4_3932_23715" style="mask-type:luminance" maskUnits="userSpaceOnUse" x="0" y="0" width="640" height="512">
<path d="M640 0H0V512H640V0Z" fill="white"/>
</mask>
<g mask="url(#mask4_3932_23715)">
<mask id="mask5_3932_23715" style="mask-type:luminance" maskUnits="userSpaceOnUse" x="0" y="0" width="640" height="512">
<path d="M640 0H0V512H640V0Z" fill="white"/>
</mask>
<g mask="url(#mask5_3932_23715)">
<mask id="mask6_3932_23715" style="mask-type:luminance" maskUnits="userSpaceOnUse" x="0" y="0" width="640" height="512">
<path d="M640 0H0V512H640V0Z" fill="white"/>
</mask>
<g mask="url(#mask6_3932_23715)">
<mask id="mask7_3932_23715" style="mask-type:luminance" maskUnits="userSpaceOnUse" x="0" y="0" width="640" height="512">
<path d="M640 0H0V512H640V0Z" fill="white"/>
</mask>
<g mask="url(#mask7_3932_23715)">
<mask id="mask8_3932_23715" style="mask-type:luminance" maskUnits="userSpaceOnUse" x="0" y="0" width="640" height="512">
<path d="M640 0H0V512H640V0Z" fill="white"/>
</mask>
<g mask="url(#mask8_3932_23715)">
<mask id="mask9_3932_23715" style="mask-type:luminance" maskUnits="userSpaceOnUse" x="0" y="0" width="640" height="512">
<path d="M640 0H0V512H640V0Z" fill="white"/>
</mask>
<g mask="url(#mask9_3932_23715)">
<mask id="mask10_3932_23715" style="mask-type:luminance" maskUnits="userSpaceOnUse" x="0" y="0" width="640" height="512">
<path d="M640 0H0V512H640V0Z" fill="white"/>
</mask>
<g mask="url(#mask10_3932_23715)">
<mask id="mask11_3932_23715" style="mask-type:luminance" maskUnits="userSpaceOnUse" x="0" y="0" width="640" height="512">
<path d="M640 0H0V512H640V0Z" fill="white"/>
</mask>
<g mask="url(#mask11_3932_23715)">
<mask id="mask12_3932_23715" style="mask-type:luminance" maskUnits="userSpaceOnUse" x="0" y="0" width="640" height="512">
<path d="M640 0H0V512H640V0Z" fill="white"/>
</mask>
<g mask="url(#mask12_3932_23715)">
<mask id="mask13_3932_23715" style="mask-type:luminance" maskUnits="userSpaceOnUse" x="0" y="0" width="640" height="512">
<path d="M640 0H0V512H640V0Z" fill="white"/>
</mask>
<g mask="url(#mask13_3932_23715)">
<path d="M240 32C240 23.5131 243.371 15.3737 249.373 9.37258C255.374 3.37142 263.513 0 272 0C280.487 0 288.626 3.37142 294.627 9.37258C300.629 15.3737 304 23.5131 304 32C304 40.4869 300.629 48.6263 294.627 54.6274C288.626 60.6286 280.487 64 272 64C263.513 64 255.374 60.6286 249.373 54.6274C243.371 48.6263 240 40.4869 240 32ZM192 48C200.487 48 208.626 51.3714 214.627 57.3726C220.629 63.3737 224 71.5131 224 80C224 88.4869 220.629 96.6263 214.627 102.627C208.626 108.629 200.487 112 192 112C183.513 112 175.374 108.629 169.373 102.627C163.371 96.6263 160 88.4869 160 80C160 71.5131 163.371 63.3737 169.373 57.3726C175.374 51.3714 183.513 48 192 48ZM160 128C177.7 128 192 142.3 192 160H200C213.3 160 224 170.7 224 184V200C224 201.7 223.8 203.4 223.5 205.1C280.3 229.6 320 286.2 320 352C320 440.4 248.4 512 160 512C71.6 512 0 440.4 0 352C0 286.2 39.7 229.6 96.5 205.1C96.1 203.5 96 201.8 96 200V184C96 170.7 106.7 160 120 160H128C128 142.3 142.3 128 160 128ZM160 448C172.607 448 185.09 445.517 196.738 440.692C208.385 435.868 218.968 428.797 227.882 419.882C236.797 410.968 243.868 400.385 248.692 388.738C253.517 377.09 256 364.607 256 352C256 339.393 253.517 326.91 248.692 315.262C243.868 303.615 236.797 293.032 227.882 284.118C218.968 275.203 208.385 268.132 196.738 263.308C185.09 258.483 172.607 256 160 256C147.393 256 134.91 258.483 123.262 263.308C111.615 268.132 101.032 275.203 92.1177 284.118C83.2033 293.032 76.132 303.615 71.3076 315.262C66.4831 326.91 64 339.393 64 352C64 364.607 66.4831 377.09 71.3076 388.738C76.132 400.385 83.2033 410.968 92.1177 419.882C101.032 428.797 111.615 435.868 123.262 440.692C134.91 445.517 147.393 448 160 448ZM352 352C352 326.1 346.9 301.5 337.6 278.9C354.5 246 382.4 219.8 416.5 205C416.1 203.4 416 201.7 416 199.9V184C416 170.7 426.7 160 440 160H448C448 142.3 462.3 128 480 128C497.7 128 512 142.3 512 160H520C533.3 160 544 170.7 544 184V200C544 201.7 543.8 203.4 543.5 205.1C600.3 229.6 640 286.2 640 352C640 440.4 568.4 512 480 512C418 512 364.2 476.7 337.6 425.1C346.9 402.6 352 377.9 352 352ZM576 352C576 326.539 565.886 302.121 547.882 284.118C529.879 266.114 505.461 256 480 256C454.539 256 430.121 266.114 412.118 284.118C394.114 302.121 384 326.539 384 352C384 377.461 394.114 401.879 412.118 419.882C430.121 437.886 454.539 448 480 448C505.461 448 529.879 437.886 547.882 419.882C565.886 401.879 576 377.461 576 352ZM368 0C376.487 0 384.626 3.37142 390.627 9.37258C396.629 15.3737 400 23.5131 400 32C400 40.4869 396.629 48.6263 390.627 54.6274C384.626 60.6286 376.487 64 368 64C359.513 64 351.374 60.6286 345.373 54.6274C339.371 48.6263 336 40.4869 336 32C336 23.5131 339.371 15.3737 345.373 9.37258C351.374 3.37142 359.513 0 368 0ZM448 48C456.487 48 464.626 51.3714 470.627 57.3726C476.629 63.3737 480 71.5131 480 80C480 88.4869 476.629 96.6263 470.627 102.627C464.626 108.629 456.487 112 448 112C439.513 112 431.374 108.629 425.373 102.627C419.371 96.6263 416 88.4869 416 80C416 71.5131 419.371 63.3737 425.373 57.3726C431.374 51.3714 439.513 48 448 48Z" fill="black"/>
</g>
</g>
</g>
</g>
</g>
</g>
</g>
</g>
</g>
</g>
</g>
</g>
</g>
</g>
</g>
<defs>
<clipPath id="clip0_3932_23715">
<rect width="640" height="512" fill="white"/>
</clipPath>
</defs>
</svg>
