<svg width="576" height="512" viewBox="0 0 576 512" fill="none" xmlns="http://www.w3.org/2000/svg">
<g clip-path="url(#clip0_3932_23953)">
<mask id="mask0_3932_23953" style="mask-type:luminance" maskUnits="userSpaceOnUse" x="0" y="0" width="576" height="512">
<path d="M576 0H0V512H576V0Z" fill="white"/>
</mask>
<g mask="url(#mask0_3932_23953)">
<mask id="mask1_3932_23953" style="mask-type:luminance" maskUnits="userSpaceOnUse" x="0" y="0" width="576" height="512">
<path d="M576 0H0V512H576V0Z" fill="white"/>
</mask>
<g mask="url(#mask1_3932_23953)">
<mask id="mask2_3932_23953" style="mask-type:luminance" maskUnits="userSpaceOnUse" x="0" y="0" width="576" height="512">
<path d="M576 0H0V512H576V0Z" fill="white"/>
</mask>
<g mask="url(#mask2_3932_23953)">
<mask id="mask3_3932_23953" style="mask-type:luminance" maskUnits="userSpaceOnUse" x="0" y="0" width="576" height="512">
<path d="M576 0H0V512H576V0Z" fill="white"/>
</mask>
<g mask="url(#mask3_3932_23953)">
<mask id="mask4_3932_23953" style="mask-type:luminance" maskUnits="userSpaceOnUse" x="0" y="0" width="576" height="512">
<path d="M576 0H0V512H576V0Z" fill="white"/>
</mask>
<g mask="url(#mask4_3932_23953)">
<mask id="mask5_3932_23953" style="mask-type:luminance" maskUnits="userSpaceOnUse" x="0" y="0" width="576" height="512">
<path d="M576 0H0V512H576V0Z" fill="white"/>
</mask>
<g mask="url(#mask5_3932_23953)">
<mask id="mask6_3932_23953" style="mask-type:luminance" maskUnits="userSpaceOnUse" x="0" y="0" width="576" height="512">
<path d="M576 0H0V512H576V0Z" fill="white"/>
</mask>
<g mask="url(#mask6_3932_23953)">
<mask id="mask7_3932_23953" style="mask-type:luminance" maskUnits="userSpaceOnUse" x="0" y="0" width="576" height="512">
<path d="M576 0H0V512H576V0Z" fill="white"/>
</mask>
<g mask="url(#mask7_3932_23953)">
<mask id="mask8_3932_23953" style="mask-type:luminance" maskUnits="userSpaceOnUse" x="0" y="0" width="576" height="512">
<path d="M576 0H0V512H576V0Z" fill="white"/>
</mask>
<g mask="url(#mask8_3932_23953)">
<mask id="mask9_3932_23953" style="mask-type:luminance" maskUnits="userSpaceOnUse" x="0" y="0" width="576" height="512">
<path d="M576 0H0V512H576V0Z" fill="white"/>
</mask>
<g mask="url(#mask9_3932_23953)">
<mask id="mask10_3932_23953" style="mask-type:luminance" maskUnits="userSpaceOnUse" x="0" y="0" width="576" height="512">
<path d="M576 0H0V512H576V0Z" fill="white"/>
</mask>
<g mask="url(#mask10_3932_23953)">
<mask id="mask11_3932_23953" style="mask-type:luminance" maskUnits="userSpaceOnUse" x="0" y="0" width="576" height="512">
<path d="M576 0H0V512H576V0Z" fill="white"/>
</mask>
<g mask="url(#mask11_3932_23953)">
<mask id="mask12_3932_23953" style="mask-type:luminance" maskUnits="userSpaceOnUse" x="0" y="0" width="576" height="512">
<path d="M576 0H0V512H576V0Z" fill="white"/>
</mask>
<g mask="url(#mask12_3932_23953)">
<mask id="mask13_3932_23953" style="mask-type:luminance" maskUnits="userSpaceOnUse" x="0" y="0" width="576" height="512">
<path d="M576 0H0V512H576V0Z" fill="white"/>
</mask>
<g mask="url(#mask13_3932_23953)">
<path d="M163.9 136.905C134.5 107.105 134.5 58.7047 163.9 28.9047C193.3 -0.895317 240.9 -0.895317 270.3 28.9047L288 46.9047L305.7 28.9047C335.1 -0.895317 382.7 -0.895317 412.1 28.9047C441.5 58.7047 441.5 107.105 412.1 136.905L310.5 240.105C304.3 246.405 296.2 249.505 288 249.505C279.8 249.505 271.7 246.405 265.5 240.105L163.9 136.905ZM568.2 336.305C581.3 354.105 577.5 379.105 559.7 392.205L433.1 485.505C409.7 502.705 381.5 512.005 352.4 512.005H192H32C14.3 512.005 0 497.705 0 480.005V416.005C0 398.305 14.3 384.005 32 384.005H68.8L113.7 348.005C136.4 329.805 164.6 320.005 193.7 320.005H272H288H352C369.7 320.005 384 334.305 384 352.005C384 369.705 369.7 384.005 352 384.005H288H272C263.2 384.005 256 391.205 256 400.005C256 408.805 263.2 416.005 272 416.005H392.6L512.3 327.805C530.1 314.705 555.1 318.505 568.2 336.305ZM193.6 384.005H192.7C193 384.005 193.3 384.005 193.6 384.005Z" fill="black"/>
</g>
</g>
</g>
</g>
</g>
</g>
</g>
</g>
</g>
</g>
</g>
</g>
</g>
</g>
</g>
<defs>
<clipPath id="clip0_3932_23953">
<rect width="576" height="512" fill="white"/>
</clipPath>
</defs>
</svg>
