<svg width="512" height="512" viewBox="0 0 512 512" fill="none" xmlns="http://www.w3.org/2000/svg">
<path d="M64 128H241.6C240.6 133.2 240 138.5 240 144V160H208H64C55.2 160 48 152.8 48 144C48 135.2 55.2 128 64 128ZM288 144C288 126.3 302.3 112 320 112H344C410.3 112 464 165.7 464 232V280C464 332.5 430.3 377.1 383.3 393.4C383.8 390.3 384 387.2 384 384C384 364 374.8 346.1 360.4 334.3C365.3 325.3 368 314.9 368 304C368 288.9 362.7 275 354 264C362.8 253 368 239.1 368 224V184C368 170.7 357.3 160 344 160C330.7 160 320 170.7 320 184V224C320 232.8 312.8 240 304 240C295.2 240 288 232.8 288 224V184V144ZM320 64C302 64 285.4 70 272 80H64C28.7 80 0 108.7 0 144C0 179.3 28.7 208 64 208H146C144.7 213.1 144 218.5 144 224C144 249.3 158.7 271.2 180 281.6C177.4 288.6 176 296.1 176 304C176 324 185.2 341.9 199.6 353.7C194.7 362.7 192 373.1 192 384C192 419.3 220.7 448 256 448H320H344C436.8 448 512 372.8 512 280V232C512 139.2 436.8 64 344 64H320ZM256 400C247.2 400 240 392.8 240 384C240 375.2 247.2 368 256 368H304H320C328.8 368 336 375.2 336 384C336 392.8 328.8 400 320 400H256ZM240 224C240 229.5 240.7 234.9 242 240H240H208C199.2 240 192 232.8 192 224C192 215.2 199.2 208 208 208H240V224ZM264 288H304C312.8 288 320 295.2 320 304C320 312.8 312.8 320 304 320H256H240C231.2 320 224 312.8 224 304C224 295.2 231.2 288 240 288H264Z" fill="black"/>
</svg>
