<svg width="576" height="512" viewBox="0 0 576 512" fill="none" xmlns="http://www.w3.org/2000/svg">
<path d="M7.8 207.7C-5.3 189.9 -1.5 164.9 16.3 151.8L142.9 58.5C166.2 41.3 194.5 32 223.5 32H384H544C561.7 32 576 46.3 576 64V128C576 145.7 561.7 160 544 160H507.2L462.3 196C439.6 214.2 411.4 224 382.3 224H304H288H224C206.3 224 192 209.7 192 192C192 174.3 206.3 160 224 160H288H304C312.8 160 320 152.8 320 144C320 135.2 312.8 128 304 128H183.4L63.7 216.2C45.9 229.3 20.9 225.5 7.8 207.7ZM382.4 160H383.3C383 160 382.7 160 382.4 160ZM568.2 304.3C581.3 322.1 577.5 347.1 559.7 360.2L433.1 453.5C409.7 470.7 381.5 480 352.4 480H192H32C14.3 480 0 465.7 0 448V384C0 366.3 14.3 352 32 352H68.8L113.7 316C136.4 297.8 164.6 288 193.7 288H272H288H352C369.7 288 384 302.3 384 320C384 337.7 369.7 352 352 352H288H272C263.2 352 256 359.2 256 368C256 376.8 263.2 384 272 384H392.6L512.3 295.8C530.1 282.7 555.1 286.5 568.2 304.3ZM193.6 352H192.7C193 352 193.3 352 193.6 352Z" fill="black"/>
</svg>
