<svg width="448" height="512" viewBox="0 0 448 512" fill="none" xmlns="http://www.w3.org/2000/svg">
<path d="M192 0C209.7 0 224 14.3 224 32V144H160V32C160 14.3 174.3 0 192 0ZM64 64C64 46.3 78.3 32 96 32C113.7 32 128 46.3 128 64V144H64V64ZM256 64C256 46.3 270.3 32 288 32C305.7 32 320 46.3 320 64V160C320 177.7 305.7 192 288 192C270.3 192 256 177.7 256 160V64ZM352 128C352 110.3 366.3 96 384 96C401.7 96 416 110.3 416 128V192C416 209.7 401.7 224 384 224C366.3 224 352 209.7 352 192V128ZM256 216V215.4C265.4 220.8 276.3 224 288 224C301.2 224 313.4 220 323.6 213.2C332.3 238.1 356.1 256 384 256C395.7 256 406.6 252.9 416 247.4V256C416 308.3 390.9 354.8 352 384V480C352 497.7 337.7 512 320 512H160C142.3 512 128 497.7 128 480V401.6C110.7 393.7 94.8 382.8 81.1 369.1L69.5 357.5C45.5 333.5 32 300.9 32 267V240C32 204.7 60.7 176 96 176H184C206.1 176 224 193.9 224 216C224 238.1 206.1 256 184 256H128C119.2 256 112 263.2 112 272C112 280.8 119.2 288 128 288H184C223.8 288 256 255.8 256 216Z" fill="black"/>
</svg>
