<svg width="448" height="512" viewBox="0 0 448 512" fill="none" xmlns="http://www.w3.org/2000/svg">
<path d="M144 64C144 55.2 151.2 48 160 48C168.8 48 176 55.2 176 64C176 73.1 181.1 81.4 189.3 85.5C197.5 89.6 207.2 88.7 214.4 83.2C217.1 81.2 220.4 80 224 80C232.8 80 240 87.2 240 96C240 105.1 245.1 113.4 253.3 117.5C261.5 121.6 271.2 120.7 278.4 115.2C281.1 113.2 284.4 112 288 112C296.8 112 304 119.2 304 128C304 137.1 309.1 145.4 317.3 149.5C325.5 153.6 335.2 152.7 342.4 147.2C345.1 145.2 348.4 144 352 144C360.8 144 368 151.2 368 160V264C368 295.3 348 322 320 331.9C310.4 335.3 304 344.4 304 354.5V488C304 501.3 314.7 512 328 512C341.3 512 352 501.3 352 488V370.2C390 350.1 416 310.1 416 264V160C416 124.7 387.3 96 352 96C349.2 96 346.4 96.2 343.7 96.5C332.8 77.1 311.9 64 288 64C285.2 64 282.4 64.2 279.7 64.5C268.8 45.1 247.9 32 224 32C221.2 32 218.4 32.2 215.7 32.5C204.8 13.1 183.9 0 160 0C124.7 0 96 28.7 96 64V128.3C84.3 135.7 73.5 144.7 64 155.2L54.6 165.7C40 181.8 32 202.8 32 224.6V237.4C32 287 56.2 333.5 96.8 361.9L105.7 368.1C112.6 372.9 120.1 376.7 128 379.4V488C128 501.3 138.7 512 152 512C165.3 512 176 501.3 176 488V359.9C176 347.3 166.2 336.8 153.6 336C146.3 335.5 139.3 333.1 133.3 328.9L124.4 322.7C96.6 303.1 80 271.3 80 237.4V224.6C80 214.7 83.7 205.2 90.3 197.8L99.7 187.3C103.5 183.1 107.6 179.2 112 175.7V208C112 216.8 119.2 224 128 224C136.8 224 144 216.8 144 208V142.3V128V64Z" fill="black"/>
</svg>
