<svg width="640" height="512" viewBox="0 0 640 512" fill="none" xmlns="http://www.w3.org/2000/svg">
<path d="M272.2 64.6L221.1 115.7C205.8 119.9 191.6 127.6 179.6 138.2L153 161.9C142.8 171 129.5 176 115.8 176H96V304C116.4 304.6 135.8 312.9 150.3 327.4L185.9 363L192.9 370L219.9 397C226.1 403.2 236.3 403.2 242.5 397C244.2 395.3 245.5 393.3 246.2 391.2C249 383.5 255.5 377.7 263.5 375.9C271.5 374.1 279.9 376.5 285.7 382.4L296.5 393C308.1 404.6 326.9 404.6 338.4 393C343.8 387.6 346.7 380.7 347 373.6C347.4 364.8 352.6 357 360.6 353.2C368.6 349.4 377.9 350.2 385 355.3C394.4 362 407.5 361.1 415.9 352.7C425.3 343.3 425.3 328.1 415.9 318.8L340.1 243L304.3 276C277 301.2 235.1 301.6 207.3 276.9C175.6 248.7 174.9 199.5 205.7 170.4L275.8 104.2C303.2 78.4 339.4 64 377.1 64C413.2 64 448.1 77.3 475 101.2L505.1 128H544H584H624C632.8 128 640 135.2 640 144V352C640 369.7 625.7 384 608 384H576C564.2 384 553.8 377.6 548.3 368H463.4C460 374.7 455.5 381.1 449.9 386.7C432.8 403.8 409.1 410.5 386.9 406.8C383.3 414.1 378.4 420.9 372.3 427C345 454.3 302.3 457 271.9 435.1C246.8 455.9 209.4 454.6 185.9 431L159 404L152 397L116.4 361.4C110.9 355.9 103.7 352.7 96 352.1C96 369.7 81.6 384 64 384H32C14.3 384 0 369.7 0 352V144C0 135.2 7.2 128 16 128H56H96H115.8C117.8 128 119.7 127.3 121.1 126L147.6 102.4C175.5 77.7 211.4 64 248.7 64H259C263.4 64 267.9 64.2 272.2 64.6ZM544 320V176H496C490.1 176 484.4 173.8 480.1 169.9L443.2 137.1C425 120.9 401.5 112 377.1 112C351.7 112 327.3 121.7 308.8 139.1L238.7 205.3C228.4 215.1 228.6 231.6 239.2 241C248.5 249.3 262.6 249.1 271.7 240.7L343.6 174.3C353.3 165.3 368.5 165.9 377.5 175.7C386.5 185.5 385.9 200.6 376.1 209.6L375.3 210.4L449.7 284.8C459.7 294.8 466.2 307.1 469.1 319.9H544V320ZM64 336C64 331.757 62.3143 327.687 59.3137 324.686C56.3131 321.686 52.2435 320 48 320C43.7565 320 39.6869 321.686 36.6863 324.686C33.6857 327.687 32 331.757 32 336C32 340.243 33.6857 344.313 36.6863 347.314C39.6869 350.314 43.7565 352 48 352C52.2435 352 56.3131 350.314 59.3137 347.314C62.3143 344.313 64 340.243 64 336ZM592 352C596.243 352 600.313 350.314 603.314 347.314C606.314 344.313 608 340.243 608 336C608 331.757 606.314 327.687 603.314 324.686C600.313 321.686 596.243 320 592 320C587.757 320 583.687 321.686 580.686 324.686C577.686 327.687 576 331.757 576 336C576 340.243 577.686 344.313 580.686 347.314C583.687 350.314 587.757 352 592 352Z" fill="black"/>
</svg>
