<svg width="640" height="512" viewBox="0 0 640 512" fill="none" xmlns="http://www.w3.org/2000/svg">
<g clip-path="url(#clip0_3932_24661)">
<mask id="mask0_3932_24661" style="mask-type:luminance" maskUnits="userSpaceOnUse" x="0" y="0" width="640" height="512">
<path d="M640 0H0V512H640V0Z" fill="white"/>
</mask>
<g mask="url(#mask0_3932_24661)">
<mask id="mask1_3932_24661" style="mask-type:luminance" maskUnits="userSpaceOnUse" x="0" y="0" width="640" height="512">
<path d="M640 0H0V512H640V0Z" fill="white"/>
</mask>
<g mask="url(#mask1_3932_24661)">
<mask id="mask2_3932_24661" style="mask-type:luminance" maskUnits="userSpaceOnUse" x="0" y="0" width="640" height="512">
<path d="M640 0H0V512H640V0Z" fill="white"/>
</mask>
<g mask="url(#mask2_3932_24661)">
<mask id="mask3_3932_24661" style="mask-type:luminance" maskUnits="userSpaceOnUse" x="0" y="0" width="640" height="512">
<path d="M640 0H0V512H640V0Z" fill="white"/>
</mask>
<g mask="url(#mask3_3932_24661)">
<mask id="mask4_3932_24661" style="mask-type:luminance" maskUnits="userSpaceOnUse" x="0" y="0" width="640" height="512">
<path d="M640 0H0V512H640V0Z" fill="white"/>
</mask>
<g mask="url(#mask4_3932_24661)">
<mask id="mask5_3932_24661" style="mask-type:luminance" maskUnits="userSpaceOnUse" x="0" y="0" width="640" height="512">
<path d="M640 0H0V512H640V0Z" fill="white"/>
</mask>
<g mask="url(#mask5_3932_24661)">
<mask id="mask6_3932_24661" style="mask-type:luminance" maskUnits="userSpaceOnUse" x="0" y="0" width="640" height="512">
<path d="M640 0H0V512H640V0Z" fill="white"/>
</mask>
<g mask="url(#mask6_3932_24661)">
<mask id="mask7_3932_24661" style="mask-type:luminance" maskUnits="userSpaceOnUse" x="0" y="0" width="640" height="512">
<path d="M640 0H0V512H640V0Z" fill="white"/>
</mask>
<g mask="url(#mask7_3932_24661)">
<mask id="mask8_3932_24661" style="mask-type:luminance" maskUnits="userSpaceOnUse" x="0" y="0" width="640" height="512">
<path d="M640 0H0V512H640V0Z" fill="white"/>
</mask>
<g mask="url(#mask8_3932_24661)">
<mask id="mask9_3932_24661" style="mask-type:luminance" maskUnits="userSpaceOnUse" x="0" y="0" width="640" height="512">
<path d="M640 0H0V512H640V0Z" fill="white"/>
</mask>
<g mask="url(#mask9_3932_24661)">
<mask id="mask10_3932_24661" style="mask-type:luminance" maskUnits="userSpaceOnUse" x="0" y="0" width="640" height="512">
<path d="M640 0H0V512H640V0Z" fill="white"/>
</mask>
<g mask="url(#mask10_3932_24661)">
<mask id="mask11_3932_24661" style="mask-type:luminance" maskUnits="userSpaceOnUse" x="0" y="0" width="640" height="512">
<path d="M640 0H0V512H640V0Z" fill="white"/>
</mask>
<g mask="url(#mask11_3932_24661)">
<mask id="mask12_3932_24661" style="mask-type:luminance" maskUnits="userSpaceOnUse" x="0" y="0" width="640" height="512">
<path d="M640 0H0V512H640V0Z" fill="white"/>
</mask>
<g mask="url(#mask12_3932_24661)">
<mask id="mask13_3932_24661" style="mask-type:luminance" maskUnits="userSpaceOnUse" x="0" y="0" width="640" height="512">
<path d="M640 0H0V512H640V0Z" fill="white"/>
</mask>
<g mask="url(#mask13_3932_24661)">
<path d="M38.7978 5.09781C28.3978 -3.10219 13.2978 -1.20219 5.09781 9.19781C-3.10219 19.5978 -1.20219 34.6978 9.19781 42.8978L601.198 506.898C611.598 515.098 626.698 513.198 634.898 502.798C643.098 492.398 641.198 477.298 630.798 469.098L495.798 363.298C494.698 351.998 489.498 340.998 480.498 332.598L346.298 209.598L322.898 227.798L296.898 207.498L374.098 147.398C381.098 141.998 391.098 143.198 396.598 150.198C402.098 157.198 400.798 167.198 393.798 172.698L372.898 188.898L511.998 316.798V127.998H511.298L507.398 125.498L434.798 78.9978C419.498 69.1978 401.598 63.9978 383.398 63.9978C361.598 63.9978 340.398 71.4978 323.398 85.1978L233.698 157.798L207.898 137.498L289.698 71.2978C278.098 66.3978 265.598 63.8978 252.898 63.8978C233.998 63.9978 215.698 69.5978 199.998 79.9978L164.498 103.698L38.7978 5.09781ZM413.598 421.898L127.998 196.798V351.998H156.198L247.598 435.398C267.198 453.298 297.498 451.898 315.398 432.298C320.898 426.198 324.598 419.098 326.498 411.698L343.498 427.298C362.998 445.198 393.398 443.898 411.298 424.398C412.098 423.598 412.798 422.698 413.498 421.798L413.598 421.898ZM95.9978 171.598L40.5978 127.998H15.9978C7.19781 127.998 -0.00221378 135.198 -0.00221378 143.998V351.998C-0.00221378 369.698 14.2978 383.998 31.9978 383.998H63.9978C81.6978 383.998 95.9978 369.698 95.9978 351.998V171.598ZM47.9978 319.998C52.2413 319.998 56.3109 321.683 59.3115 324.684C62.3121 327.685 63.9978 331.754 63.9978 335.998C63.9978 340.241 62.3121 344.311 59.3115 347.311C56.3109 350.312 52.2413 351.998 47.9978 351.998C43.7543 351.998 39.6847 350.312 36.6841 347.311C33.6835 344.311 31.9978 340.241 31.9978 335.998C31.9978 331.754 33.6835 327.685 36.6841 324.684C39.6847 321.683 43.7543 319.998 47.9978 319.998ZM543.998 127.998V351.998C543.998 369.698 558.298 383.998 575.998 383.998H607.998C625.698 383.998 639.998 369.698 639.998 351.998V143.998C639.998 135.198 632.798 127.998 623.998 127.998H543.998ZM575.998 335.998C575.998 331.754 577.683 327.685 580.684 324.684C583.685 321.683 587.754 319.998 591.998 319.998C596.241 319.998 600.311 321.683 603.312 324.684C606.312 327.685 607.998 331.754 607.998 335.998C607.998 340.241 606.312 344.311 603.312 347.311C600.311 350.312 596.241 351.998 591.998 351.998C587.754 351.998 583.685 350.312 580.684 347.311C577.683 344.311 575.998 340.241 575.998 335.998Z" fill="black"/>
</g>
</g>
</g>
</g>
</g>
</g>
</g>
</g>
</g>
</g>
</g>
</g>
</g>
</g>
</g>
<defs>
<clipPath id="clip0_3932_24661">
<rect width="640" height="512" fill="white"/>
</clipPath>
</defs>
</svg>
