<svg width="640" height="512" viewBox="0 0 640 512" fill="none" xmlns="http://www.w3.org/2000/svg">
<path d="M96 32C96 14.3 81.7 0 64 0C46.3 0 32 14.3 32 32V96V155.1V155.8V192V213.9C32 228.1 37.1 241.8 46.3 252.6L131.6 352H128C114.7 352 104 362.7 104 376C104 389.3 114.7 400 128 400H160H288H352H480H512C525.3 400 536 389.3 536 376C536 362.7 525.3 352 512 352H508.4L593.7 252.5C602.9 241.7 608 228 608 213.8V192V155.8V155.1V96V32C608 14.3 593.7 0 576 0C558.3 0 544 14.3 544 32V96V144.8L474.7 237.2C469 244.8 458.6 246.8 450.5 242C440.8 236.3 438.4 223.3 445.4 214.5L473 180C483.8 166.5 481.9 146.7 468.6 135.5C455.3 124.3 435.6 125.7 424.1 138.7L377.4 191.2C361 209.7 352 233.4 352 258.1V320V352H288V320V258.1C288 233.5 279 209.7 262.6 191.3L215.9 138.8C204.4 125.8 184.6 124.4 171.4 135.6C158.2 146.8 156.2 166.5 167 180.1L194.6 214.6C201.6 223.4 199.3 236.4 189.5 242.1C181.4 246.9 170.9 244.8 165.3 237.3L96 144.8V96V32ZM160 480V512H288V480H352V512H480V480H512C525.3 480 536 469.3 536 456C536 442.7 525.3 432 512 432H480H352H288H160H128C114.7 432 104 442.7 104 456C104 469.3 114.7 480 128 480H160Z" fill="black"/>
</svg>
