<svg width="448" height="512" viewBox="0 0 448 512" fill="none" xmlns="http://www.w3.org/2000/svg">
<path d="M232 0C209.9 0 192 17.9 192 40V204.2C183.5 196.6 172.3 192 160 192C133.5 192 112 213.5 112 240V247V320C112 328.8 104.8 336 96 336C87.2 336 80 328.8 80 320V264.3C78 265.7 76.1 267.3 74.2 268.8L55 284.8C40.4 297 32 315 32 334V372C32 410 48.9 446 78.1 470.3L83.5 474.8C112.3 498.8 148.5 511.9 185.9 511.9H304C374.7 511.9 432 454.6 432 383.9V320V288C432 261.5 410.5 240 384 240C371.6 240 360.4 244.7 351.9 252.3C350 227.5 329.3 208 304 208C291.7 208 280.5 212.6 272 220.2V40C272 17.9 254.1 0 232 0Z" fill="black"/>
</svg>
