<svg width="512" height="512" viewBox="0 0 512 512" fill="none" xmlns="http://www.w3.org/2000/svg">
<g clip-path="url(#clip0_3932_24539)">
<mask id="mask0_3932_24539" style="mask-type:luminance" maskUnits="userSpaceOnUse" x="0" y="0" width="512" height="512">
<path d="M512 0H0V512H512V0Z" fill="white"/>
</mask>
<g mask="url(#mask0_3932_24539)">
<mask id="mask1_3932_24539" style="mask-type:luminance" maskUnits="userSpaceOnUse" x="0" y="0" width="512" height="512">
<path d="M512 0H0V512H512V0Z" fill="white"/>
</mask>
<g mask="url(#mask1_3932_24539)">
<mask id="mask2_3932_24539" style="mask-type:luminance" maskUnits="userSpaceOnUse" x="0" y="0" width="512" height="512">
<path d="M512 0H0V512H512V0Z" fill="white"/>
</mask>
<g mask="url(#mask2_3932_24539)">
<mask id="mask3_3932_24539" style="mask-type:luminance" maskUnits="userSpaceOnUse" x="0" y="0" width="512" height="512">
<path d="M512 0H0V512H512V0Z" fill="white"/>
</mask>
<g mask="url(#mask3_3932_24539)">
<mask id="mask4_3932_24539" style="mask-type:luminance" maskUnits="userSpaceOnUse" x="0" y="0" width="512" height="512">
<path d="M512 0H0V512H512V0Z" fill="white"/>
</mask>
<g mask="url(#mask4_3932_24539)">
<mask id="mask5_3932_24539" style="mask-type:luminance" maskUnits="userSpaceOnUse" x="0" y="0" width="512" height="512">
<path d="M512 0H0V512H512V0Z" fill="white"/>
</mask>
<g mask="url(#mask5_3932_24539)">
<mask id="mask6_3932_24539" style="mask-type:luminance" maskUnits="userSpaceOnUse" x="0" y="0" width="512" height="512">
<path d="M512 0H0V512H512V0Z" fill="white"/>
</mask>
<g mask="url(#mask6_3932_24539)">
<mask id="mask7_3932_24539" style="mask-type:luminance" maskUnits="userSpaceOnUse" x="0" y="0" width="512" height="512">
<path d="M512 0H0V512H512V0Z" fill="white"/>
</mask>
<g mask="url(#mask7_3932_24539)">
<mask id="mask8_3932_24539" style="mask-type:luminance" maskUnits="userSpaceOnUse" x="0" y="0" width="512" height="512">
<path d="M512 0H0V512H512V0Z" fill="white"/>
</mask>
<g mask="url(#mask8_3932_24539)">
<mask id="mask9_3932_24539" style="mask-type:luminance" maskUnits="userSpaceOnUse" x="0" y="0" width="512" height="512">
<path d="M512 0H0V512H512V0Z" fill="white"/>
</mask>
<g mask="url(#mask9_3932_24539)">
<mask id="mask10_3932_24539" style="mask-type:luminance" maskUnits="userSpaceOnUse" x="0" y="0" width="512" height="512">
<path d="M512 0H0V512H512V0Z" fill="white"/>
</mask>
<g mask="url(#mask10_3932_24539)">
<mask id="mask11_3932_24539" style="mask-type:luminance" maskUnits="userSpaceOnUse" x="0" y="0" width="512" height="512">
<path d="M512 0H0V512H512V0Z" fill="white"/>
</mask>
<g mask="url(#mask11_3932_24539)">
<mask id="mask12_3932_24539" style="mask-type:luminance" maskUnits="userSpaceOnUse" x="0" y="0" width="512" height="512">
<path d="M512 0H0V512H512V0Z" fill="white"/>
</mask>
<g mask="url(#mask12_3932_24539)">
<mask id="mask13_3932_24539" style="mask-type:luminance" maskUnits="userSpaceOnUse" x="0" y="0" width="512" height="512">
<path d="M512 0H0V512H512V0Z" fill="white"/>
</mask>
<g mask="url(#mask13_3932_24539)">
<path d="M336.003 16V80C336.003 88.8 328.803 96 320.003 96C311.203 96 304.003 88.8 304.003 80V16C304.003 7.2 311.203 0 320.003 0C328.803 0 336.003 7.2 336.003 16ZM237.303 23.1L269.303 71.1C274.203 78.5 272.203 88.4 264.903 93.3C257.603 98.2 247.603 96.2 242.703 88.9L210.703 40.9C205.803 33.5 207.803 23.6 215.103 18.7C222.403 13.8 232.403 15.8 237.303 23.1ZM135.003 119C144.403 109.6 159.603 109.6 168.903 119L292.703 242.7C302.803 252.8 320.003 245.6 320.003 231.4V192C320.003 174.3 334.303 160 352.003 160C369.703 160 384.003 174.3 384.003 192V345.6C384.003 402.7 354.003 455.6 305.103 485C241.103 523.4 159.303 513.3 106.603 460.6L7.00312 361C-2.39687 351.6 -2.39687 336.4 7.00312 327.1C16.4031 317.8 31.6031 317.7 40.9031 327.1L93.9031 380.1C100.003 386.2 109.903 386.2 116.003 380.1C122.103 374 122.103 364.1 116.003 358L23.0031 265C13.6031 255.6 13.6031 240.4 23.0031 231.1C32.4031 221.8 47.6031 221.7 56.9031 231.1L149.903 324.1C156.003 330.2 165.903 330.2 172.003 324.1C178.103 318 178.103 308.1 172.003 302L55.0031 185C45.6031 175.6 45.6031 160.4 55.0031 151.1C64.4031 141.8 79.6031 141.7 88.9031 151.1L205.903 268.1C212.003 274.2 221.903 274.2 228.003 268.1C234.103 262 234.103 252.1 228.003 246L135.003 153C125.603 143.6 125.603 128.4 135.003 119.1V119ZM433.103 484.9C408.903 499.4 382.203 507 355.403 508C403.503 468.4 432.003 409 432.003 345.6V247.5C440.203 247.4 448.003 241.1 448.003 231.5V192C448.003 174.3 462.303 160 480.003 160C497.703 160 512.003 174.3 512.003 192V345.6C512.003 402.7 482.003 455.6 433.103 485V484.9ZM424.903 18.7C432.303 23.6 434.203 33.5 429.303 40.9L397.303 88.9C392.403 96.3 382.503 98.2 375.103 93.3C367.703 88.4 365.803 78.5 370.703 71.1L402.703 23.1C407.603 15.7 417.503 13.8 424.903 18.7Z" fill="black"/>
</g>
</g>
</g>
</g>
</g>
</g>
</g>
</g>
</g>
</g>
</g>
</g>
</g>
</g>
</g>
<defs>
<clipPath id="clip0_3932_24539">
<rect width="512" height="512" fill="white"/>
</clipPath>
</defs>
</svg>
