<svg width="512" height="512" viewBox="0 0 512 512" fill="none" xmlns="http://www.w3.org/2000/svg">
<g clip-path="url(#clip0_3932_23773)">
<mask id="mask0_3932_23773" style="mask-type:luminance" maskUnits="userSpaceOnUse" x="0" y="0" width="512" height="512">
<path d="M512 0H0V512H512V0Z" fill="white"/>
</mask>
<g mask="url(#mask0_3932_23773)">
<mask id="mask1_3932_23773" style="mask-type:luminance" maskUnits="userSpaceOnUse" x="0" y="0" width="512" height="512">
<path d="M512 0H0V512H512V0Z" fill="white"/>
</mask>
<g mask="url(#mask1_3932_23773)">
<mask id="mask2_3932_23773" style="mask-type:luminance" maskUnits="userSpaceOnUse" x="0" y="0" width="512" height="512">
<path d="M512 0H0V512H512V0Z" fill="white"/>
</mask>
<g mask="url(#mask2_3932_23773)">
<mask id="mask3_3932_23773" style="mask-type:luminance" maskUnits="userSpaceOnUse" x="0" y="0" width="512" height="512">
<path d="M512 0H0V512H512V0Z" fill="white"/>
</mask>
<g mask="url(#mask3_3932_23773)">
<mask id="mask4_3932_23773" style="mask-type:luminance" maskUnits="userSpaceOnUse" x="0" y="0" width="512" height="512">
<path d="M512 0H0V512H512V0Z" fill="white"/>
</mask>
<g mask="url(#mask4_3932_23773)">
<mask id="mask5_3932_23773" style="mask-type:luminance" maskUnits="userSpaceOnUse" x="0" y="0" width="512" height="512">
<path d="M512 0H0V512H512V0Z" fill="white"/>
</mask>
<g mask="url(#mask5_3932_23773)">
<mask id="mask6_3932_23773" style="mask-type:luminance" maskUnits="userSpaceOnUse" x="0" y="0" width="512" height="512">
<path d="M512 0H0V512H512V0Z" fill="white"/>
</mask>
<g mask="url(#mask6_3932_23773)">
<mask id="mask7_3932_23773" style="mask-type:luminance" maskUnits="userSpaceOnUse" x="0" y="0" width="512" height="512">
<path d="M512 0H0V512H512V0Z" fill="white"/>
</mask>
<g mask="url(#mask7_3932_23773)">
<mask id="mask8_3932_23773" style="mask-type:luminance" maskUnits="userSpaceOnUse" x="0" y="0" width="512" height="512">
<path d="M512 0H0V512H512V0Z" fill="white"/>
</mask>
<g mask="url(#mask8_3932_23773)">
<mask id="mask9_3932_23773" style="mask-type:luminance" maskUnits="userSpaceOnUse" x="0" y="0" width="512" height="512">
<path d="M512 0H0V512H512V0Z" fill="white"/>
</mask>
<g mask="url(#mask9_3932_23773)">
<mask id="mask10_3932_23773" style="mask-type:luminance" maskUnits="userSpaceOnUse" x="0" y="0" width="512" height="512">
<path d="M512 0H0V512H512V0Z" fill="white"/>
</mask>
<g mask="url(#mask10_3932_23773)">
<mask id="mask11_3932_23773" style="mask-type:luminance" maskUnits="userSpaceOnUse" x="0" y="0" width="512" height="512">
<path d="M512 0H0V512H512V0Z" fill="white"/>
</mask>
<g mask="url(#mask11_3932_23773)">
<mask id="mask12_3932_23773" style="mask-type:luminance" maskUnits="userSpaceOnUse" x="0" y="0" width="512" height="512">
<path d="M512 0H0V512H512V0Z" fill="white"/>
</mask>
<g mask="url(#mask12_3932_23773)">
<mask id="mask13_3932_23773" style="mask-type:luminance" maskUnits="userSpaceOnUse" x="0" y="0" width="512" height="512">
<path d="M512 0H0V512H512V0Z" fill="white"/>
</mask>
<g mask="url(#mask13_3932_23773)">
<path d="M287.996 32C287.996 14.3 273.696 0 255.996 0C238.296 0 223.996 14.3 223.996 32V240C223.996 248.8 216.796 256 207.996 256C199.196 256 191.996 248.8 191.996 240V64C191.996 46.3 177.696 32 159.996 32C142.296 32 127.996 46.3 127.996 64V336C127.996 337.5 127.996 339.1 128.096 340.6L67.596 283C51.596 267.8 26.296 268.4 10.996 284.4C-4.30397 300.4 -3.60398 325.7 12.396 341L124.796 448C167.896 489.1 225.196 512 284.796 512H303.996C401.196 512 479.996 433.2 479.996 336V128C479.996 110.3 465.696 96 447.996 96C430.296 96 415.996 110.3 415.996 128V240C415.996 248.8 408.796 256 399.996 256C391.196 256 383.996 248.8 383.996 240V64C383.996 46.3 369.696 32 351.996 32C334.296 32 319.996 46.3 319.996 64V240C319.996 248.8 312.796 256 303.996 256C295.196 256 287.996 248.8 287.996 240V32ZM239.996 336C239.996 331.757 241.682 327.687 244.682 324.686C247.683 321.686 251.752 320 255.996 320C260.239 320 264.309 321.686 267.31 324.686C270.31 327.687 271.996 331.757 271.996 336C271.996 340.243 270.31 344.313 267.31 347.314C264.309 350.314 260.239 352 255.996 352C251.752 352 247.683 350.314 244.682 347.314C241.682 344.313 239.996 340.243 239.996 336ZM319.996 352C324.239 352 328.309 353.686 331.31 356.686C334.31 359.687 335.996 363.757 335.996 368C335.996 372.243 334.31 376.313 331.31 379.314C328.309 382.314 324.239 384 319.996 384C315.752 384 311.683 382.314 308.682 379.314C305.682 376.313 303.996 372.243 303.996 368C303.996 363.757 305.682 359.687 308.682 356.686C311.683 353.686 315.752 352 319.996 352ZM367.996 336C367.996 331.757 369.682 327.687 372.682 324.686C375.683 321.686 379.752 320 383.996 320C388.239 320 392.309 321.686 395.31 324.686C398.31 327.687 399.996 331.757 399.996 336C399.996 340.243 398.31 344.313 395.31 347.314C392.309 350.314 388.239 352 383.996 352C379.752 352 375.683 350.314 372.682 347.314C369.682 344.313 367.996 340.243 367.996 336ZM351.996 416C356.239 416 360.309 417.686 363.31 420.686C366.31 423.687 367.996 427.757 367.996 432C367.996 436.243 366.31 440.313 363.31 443.314C360.309 446.314 356.239 448 351.996 448C347.752 448 343.683 446.314 340.682 443.314C337.682 440.313 335.996 436.243 335.996 432C335.996 427.757 337.682 423.687 340.682 420.686C343.683 417.686 347.752 416 351.996 416ZM239.996 432C239.996 427.757 241.682 423.687 244.682 420.686C247.683 417.686 251.752 416 255.996 416C260.239 416 264.309 417.686 267.31 420.686C270.31 423.687 271.996 427.757 271.996 432C271.996 436.243 270.31 440.313 267.31 443.314C264.309 446.314 260.239 448 255.996 448C251.752 448 247.683 446.314 244.682 443.314C241.682 440.313 239.996 436.243 239.996 432ZM191.996 384C196.239 384 200.309 385.686 203.31 388.686C206.31 391.687 207.996 395.757 207.996 400C207.996 404.243 206.31 408.313 203.31 411.314C200.309 414.314 196.239 416 191.996 416C187.752 416 183.683 414.314 180.682 411.314C177.682 408.313 175.996 404.243 175.996 400C175.996 395.757 177.682 391.687 180.682 388.686C183.683 385.686 187.752 384 191.996 384Z" fill="black"/>
</g>
</g>
</g>
</g>
</g>
</g>
</g>
</g>
</g>
</g>
</g>
</g>
</g>
</g>
</g>
<defs>
<clipPath id="clip0_3932_23773">
<rect width="512" height="512" fill="white"/>
</clipPath>
</defs>
</svg>
