<svg width="576" height="512" viewBox="0 0 576 512" fill="none" xmlns="http://www.w3.org/2000/svg">
<g clip-path="url(#clip0_3932_23835)">
<mask id="mask0_3932_23835" style="mask-type:luminance" maskUnits="userSpaceOnUse" x="0" y="0" width="576" height="512">
<path d="M576 0H0V512H576V0Z" fill="white"/>
</mask>
<g mask="url(#mask0_3932_23835)">
<mask id="mask1_3932_23835" style="mask-type:luminance" maskUnits="userSpaceOnUse" x="0" y="0" width="576" height="512">
<path d="M576 0H0V512H576V0Z" fill="white"/>
</mask>
<g mask="url(#mask1_3932_23835)">
<mask id="mask2_3932_23835" style="mask-type:luminance" maskUnits="userSpaceOnUse" x="0" y="0" width="576" height="512">
<path d="M576 0H0V512H576V0Z" fill="white"/>
</mask>
<g mask="url(#mask2_3932_23835)">
<mask id="mask3_3932_23835" style="mask-type:luminance" maskUnits="userSpaceOnUse" x="0" y="0" width="576" height="512">
<path d="M576 0H0V512H576V0Z" fill="white"/>
</mask>
<g mask="url(#mask3_3932_23835)">
<mask id="mask4_3932_23835" style="mask-type:luminance" maskUnits="userSpaceOnUse" x="0" y="0" width="576" height="512">
<path d="M576 0H0V512H576V0Z" fill="white"/>
</mask>
<g mask="url(#mask4_3932_23835)">
<mask id="mask5_3932_23835" style="mask-type:luminance" maskUnits="userSpaceOnUse" x="0" y="0" width="576" height="512">
<path d="M576 0H0V512H576V0Z" fill="white"/>
</mask>
<g mask="url(#mask5_3932_23835)">
<mask id="mask6_3932_23835" style="mask-type:luminance" maskUnits="userSpaceOnUse" x="0" y="0" width="576" height="512">
<path d="M576 0H0V512H576V0Z" fill="white"/>
</mask>
<g mask="url(#mask6_3932_23835)">
<mask id="mask7_3932_23835" style="mask-type:luminance" maskUnits="userSpaceOnUse" x="0" y="0" width="576" height="512">
<path d="M576 0H0V512H576V0Z" fill="white"/>
</mask>
<g mask="url(#mask7_3932_23835)">
<mask id="mask8_3932_23835" style="mask-type:luminance" maskUnits="userSpaceOnUse" x="0" y="0" width="576" height="512">
<path d="M576 0H0V512H576V0Z" fill="white"/>
</mask>
<g mask="url(#mask8_3932_23835)">
<mask id="mask9_3932_23835" style="mask-type:luminance" maskUnits="userSpaceOnUse" x="0" y="0" width="576" height="512">
<path d="M576 0H0V512H576V0Z" fill="white"/>
</mask>
<g mask="url(#mask9_3932_23835)">
<mask id="mask10_3932_23835" style="mask-type:luminance" maskUnits="userSpaceOnUse" x="0" y="0" width="576" height="512">
<path d="M576 0H0V512H576V0Z" fill="white"/>
</mask>
<g mask="url(#mask10_3932_23835)">
<mask id="mask11_3932_23835" style="mask-type:luminance" maskUnits="userSpaceOnUse" x="0" y="0" width="576" height="512">
<path d="M576 0H0V512H576V0Z" fill="white"/>
</mask>
<g mask="url(#mask11_3932_23835)">
<mask id="mask12_3932_23835" style="mask-type:luminance" maskUnits="userSpaceOnUse" x="0" y="0" width="576" height="512">
<path d="M576 0H0V512H576V0Z" fill="white"/>
</mask>
<g mask="url(#mask12_3932_23835)">
<mask id="mask13_3932_23835" style="mask-type:luminance" maskUnits="userSpaceOnUse" x="0" y="0" width="576" height="512">
<path d="M576 0H0V512H576V0Z" fill="white"/>
</mask>
<g mask="url(#mask13_3932_23835)">
<path d="M312 24V34.5C318.4 35.7 324.6 37.2 330.2 38.7C343 42.1 350.6 55.3 347.2 68.1C343.8 80.9 330.6 88.5 317.8 85.1C306.9 82.2 296.7 80.2 287.6 80.1C280.3 80 272.9 81.8 268.2 84.5C266.1 85.8 265.1 86.9 264.7 87.5C264.4 88 264 88.7 264 90.3C264 90.6 264 90.8 264 90.9C264.2 91.1 264.9 92.1 267.3 93.5C273.1 97 281.7 99.7 294.7 103.6L295.6 103.9C306.7 107.2 321.5 111.7 333.5 119.2C347.2 127.8 359.6 142.1 359.9 164.1C360.2 186.6 348.5 203 333.2 212.6C326.5 216.7 319.3 219.6 311.9 221.4V232C311.9 245.3 301.2 256 287.9 256C274.6 256 263.9 245.3 263.9 232V220.6C254.4 218.3 245.7 215.3 238.3 212.8C236.2 212.1 234.2 211.4 232.3 210.8C219.7 206.6 212.9 193 217.1 180.4C221.3 167.8 234.9 161 247.5 165.2C250.1 166.1 252.5 166.9 254.8 167.7C268.4 172.3 278.2 175.6 288.7 176C296.7 176.3 303.8 174.4 307.9 171.9C309.8 170.7 310.7 169.7 311.1 169C311.5 168.4 312 167.2 311.9 164.9V164.7C311.9 163.7 311.9 162.6 307.9 160.1C302.2 156.5 293.6 153.7 280.8 149.8L278.9 149.2C268.1 146 253.9 141.7 242.5 134.8C229 126.7 216 112.8 215.9 90.7C215.8 67.8 228.8 52.1 243.6 43.3C250 39.5 256.9 36.9 263.8 35.1V24C263.8 10.7 274.5 0 287.8 0C301.1 0 311.8 10.7 311.8 24H312ZM568.2 336.3C581.3 354.1 577.5 379.1 559.7 392.2L433.1 485.5C409.7 502.7 381.5 512 352.4 512H192H32C14.3 512 0 497.7 0 480V416C0 398.3 14.3 384 32 384H68.8L113.7 348C136.4 329.8 164.6 320 193.7 320H272H288H352C369.7 320 384 334.3 384 352C384 369.7 369.7 384 352 384H288H272C263.2 384 256 391.2 256 400C256 408.8 263.2 416 272 416H392.6L512.3 327.8C530.1 314.7 555.1 318.5 568.2 336.3ZM193.6 384H192.7C193 384 193.3 384 193.6 384Z" fill="black"/>
</g>
</g>
</g>
</g>
</g>
</g>
</g>
</g>
</g>
</g>
</g>
</g>
</g>
</g>
</g>
<defs>
<clipPath id="clip0_3932_23835">
<rect width="576" height="512" fill="white"/>
</clipPath>
</defs>
</svg>
