<svg width="512" height="512" viewBox="0 0 512 512" fill="none" xmlns="http://www.w3.org/2000/svg">
<path d="M64 80C55.2 80 48 87.2 48 96V258C53.1 256.7 58.5 256 64 256H448C453.5 256 458.9 256.7 464 258V96C464 87.2 456.8 80 448 80H64ZM48 320V416C48 424.8 55.2 432 64 432H448C456.8 432 464 424.8 464 416V320C464 311.2 456.8 304 448 304H64C55.2 304 48 311.2 48 320ZM0 320V96C0 60.7 28.7 32 64 32H448C483.3 32 512 60.7 512 96V320V416C512 451.3 483.3 480 448 480H64C28.7 480 0 451.3 0 416V320ZM280 368C280 361.635 282.529 355.53 287.029 351.029C291.53 346.529 297.635 344 304 344C310.365 344 316.47 346.529 320.971 351.029C325.471 355.53 328 361.635 328 368C328 374.365 325.471 380.47 320.971 384.971C316.47 389.471 310.365 392 304 392C297.635 392 291.53 389.471 287.029 384.971C282.529 380.47 280 374.365 280 368ZM400 344C406.365 344 412.47 346.529 416.971 351.029C421.471 355.53 424 361.635 424 368C424 374.365 421.471 380.47 416.971 384.971C412.47 389.471 406.365 392 400 392C393.635 392 387.53 389.471 383.029 384.971C378.529 380.47 376 374.365 376 368C376 361.635 378.529 355.53 383.029 351.029C387.53 346.529 393.635 344 400 344Z" fill="black"/>
</svg>
