<svg width="512" height="512" viewBox="0 0 512 512" fill="none" xmlns="http://www.w3.org/2000/svg">
<path d="M225.8 468.199L223.3 465.899L48.1 303.199C17.4 274.699 0 234.699 0 192.799V189.499C0 119.099 50 58.6986 119.2 45.4986C158.6 37.8986 198.9 46.9986 231 69.5986C240 75.9986 248.4 83.3986 256 91.8986C260.2 87.0986 264.7 82.6986 269.5 78.5986C273.2 75.3986 277 72.3986 281 69.5986C313.1 46.9986 353.4 37.8986 392.8 45.3986C462 58.5986 512 119.099 512 189.499V192.799C512 234.699 494.6 274.699 463.9 303.199L288.7 465.899L286.2 468.199C278 475.799 267.2 480.099 256 480.099C244.8 480.099 234 475.899 225.8 468.199ZM239.1 144.999C238.7 144.699 238.4 144.299 238.1 143.899L220.3 123.899L220.2 123.799C197.1 97.8988 162.2 86.0986 128.2 92.5986C81.6 101.499 48 142.099 48 189.499V192.799C48 221.299 59.9 248.599 80.8 267.999L256 430.699L431.2 267.999C452.1 248.599 464 221.299 464 192.799V189.499C464 142.199 430.4 101.499 383.9 92.5986C349.9 86.0986 314.9 97.9986 291.9 123.799C291.9 123.799 291.9 123.799 291.8 123.899C291.7 123.999 291.8 123.899 291.7 123.999L273.9 143.999C273.6 144.399 273.2 144.699 272.9 145.099C268.4 149.599 262.3 152.099 256 152.099C249.7 152.099 243.6 149.599 239.1 145.099V144.999Z" fill="black"/>
</svg>
