<svg width="576" height="512" viewBox="0 0 576 512" fill="none" xmlns="http://www.w3.org/2000/svg">
<path d="M256 32C238.3 32 224 46.3 224 64V66.3V165.9C224 171.5 219.5 176 213.9 176C210.3 176 206.9 174.1 205.1 170.9L157.1 87C83 123.5 32 199.8 32 288V352H544V285.6C543.1 198.4 492.3 123.2 418.9 87L370.9 170.9C369.1 174.1 365.7 176 362.1 176C356.5 176 352 171.5 352 165.9V66.3V64C352 46.3 337.7 32 320 32H256ZM16.6 384C7.4 384 0 391.4 0 400.6C0 405.3 2 409.8 5.8 412.5C27.5 428.4 111.8 480 288 480C464.2 480 548.5 428.4 570.2 412.5C574 409.7 576 405.3 576 400.6C576 391.4 568.6 384 559.4 384H16.6Z" fill="black"/>
</svg>
