<svg width="640" height="512" viewBox="0 0 640 512" fill="none" xmlns="http://www.w3.org/2000/svg">
<g clip-path="url(#clip0_3932_26081)">
<mask id="mask0_3932_26081" style="mask-type:luminance" maskUnits="userSpaceOnUse" x="0" y="0" width="640" height="512">
<path d="M640 0H0V512H640V0Z" fill="white"/>
</mask>
<g mask="url(#mask0_3932_26081)">
<mask id="mask1_3932_26081" style="mask-type:luminance" maskUnits="userSpaceOnUse" x="0" y="0" width="640" height="512">
<path d="M640 0H0V512H640V0Z" fill="white"/>
</mask>
<g mask="url(#mask1_3932_26081)">
<mask id="mask2_3932_26081" style="mask-type:luminance" maskUnits="userSpaceOnUse" x="0" y="0" width="640" height="512">
<path d="M640 0H0V512H640V0Z" fill="white"/>
</mask>
<g mask="url(#mask2_3932_26081)">
<mask id="mask3_3932_26081" style="mask-type:luminance" maskUnits="userSpaceOnUse" x="0" y="0" width="640" height="512">
<path d="M640 0H0V512H640V0Z" fill="white"/>
</mask>
<g mask="url(#mask3_3932_26081)">
<mask id="mask4_3932_26081" style="mask-type:luminance" maskUnits="userSpaceOnUse" x="0" y="0" width="640" height="512">
<path d="M640 0H0V512H640V0Z" fill="white"/>
</mask>
<g mask="url(#mask4_3932_26081)">
<mask id="mask5_3932_26081" style="mask-type:luminance" maskUnits="userSpaceOnUse" x="0" y="0" width="640" height="512">
<path d="M640 0H0V512H640V0Z" fill="white"/>
</mask>
<g mask="url(#mask5_3932_26081)">
<mask id="mask6_3932_26081" style="mask-type:luminance" maskUnits="userSpaceOnUse" x="0" y="0" width="640" height="512">
<path d="M640 0H0V512H640V0Z" fill="white"/>
</mask>
<g mask="url(#mask6_3932_26081)">
<mask id="mask7_3932_26081" style="mask-type:luminance" maskUnits="userSpaceOnUse" x="0" y="0" width="640" height="512">
<path d="M640 0H0V512H640V0Z" fill="white"/>
</mask>
<g mask="url(#mask7_3932_26081)">
<mask id="mask8_3932_26081" style="mask-type:luminance" maskUnits="userSpaceOnUse" x="0" y="0" width="640" height="512">
<path d="M640 0H0V512H640V0Z" fill="white"/>
</mask>
<g mask="url(#mask8_3932_26081)">
<mask id="mask9_3932_26081" style="mask-type:luminance" maskUnits="userSpaceOnUse" x="0" y="0" width="640" height="512">
<path d="M640 0H0V512H640V0Z" fill="white"/>
</mask>
<g mask="url(#mask9_3932_26081)">
<mask id="mask10_3932_26081" style="mask-type:luminance" maskUnits="userSpaceOnUse" x="0" y="0" width="640" height="512">
<path d="M640 0H0V512H640V0Z" fill="white"/>
</mask>
<g mask="url(#mask10_3932_26081)">
<mask id="mask11_3932_26081" style="mask-type:luminance" maskUnits="userSpaceOnUse" x="0" y="0" width="640" height="512">
<path d="M640 0H0V512H640V0Z" fill="white"/>
</mask>
<g mask="url(#mask11_3932_26081)">
<mask id="mask12_3932_26081" style="mask-type:luminance" maskUnits="userSpaceOnUse" x="0" y="0" width="640" height="512">
<path d="M640 0H0V512H640V0Z" fill="white"/>
</mask>
<g mask="url(#mask12_3932_26081)">
<mask id="mask13_3932_26081" style="mask-type:luminance" maskUnits="userSpaceOnUse" x="0" y="0" width="640" height="512">
<path d="M640 0H0V512H640V0Z" fill="white"/>
</mask>
<g mask="url(#mask13_3932_26081)">
<path d="M407.002 46.9953C416.402 37.5953 431.602 37.5953 440.902 46.9953L458.102 64.1953C460.002 64.0953 462.002 63.9953 463.902 63.9953H495.902C507.102 63.9953 517.802 66.2953 527.502 70.4953L543.002 54.9953C552.402 45.5953 567.602 45.5953 576.902 54.9953C586.202 64.3953 586.302 79.5953 576.902 88.8953L564.002 101.895C571.602 114.095 576.002 128.595 576.002 143.995C576.002 154.195 583.402 162.795 592.702 166.995C620.602 179.495 640.002 207.495 640.002 239.995C640.002 266.195 627.402 289.395 608.002 303.995V335.995C608.002 344.795 600.802 351.995 592.002 351.995H560.002C551.202 351.995 544.002 344.795 544.002 335.995V319.995H480.002V335.995C480.002 344.795 472.802 351.995 464.002 351.995H432.002C423.202 351.995 416.002 344.795 416.002 335.995V318.395C404.202 315.995 393.302 310.995 384.002 303.995C382.502 302.895 381.102 301.695 379.702 300.495C362.702 285.795 352.002 264.095 352.002 239.995C352.002 231.195 344.802 223.995 336.002 223.995C327.202 223.995 320.002 231.195 320.002 239.995C320.002 284.695 346.202 323.195 384.002 341.195V351.995C384.002 369.695 398.302 383.995 416.002 383.995H448.002V447.995C448.002 465.695 433.702 479.995 416.002 479.995H352.002C334.302 479.995 320.002 465.695 320.002 447.995V371.995C300.202 379.695 278.602 383.995 256.002 383.995C233.402 383.995 211.802 379.695 192.002 371.995V447.995C192.002 465.695 177.702 479.995 160.002 479.995H96.0019C78.3019 479.995 64.0019 465.695 64.0019 447.995V329.095L45.9019 369.695C40.5019 381.795 26.3019 387.295 14.2019 381.895C2.10192 376.495 -3.29808 362.395 2.10192 350.295L24.0019 300.895C29.3019 288.995 32.0019 276.195 32.0019 263.195C32.0019 155.695 117.202 67.9953 223.802 64.0953L224.002 63.9953H231.202H256.002H288.002C329.702 63.9953 371.402 76.0953 405.202 89.6953C406.902 87.8953 408.702 86.0953 410.502 84.4953L407.002 80.9953C397.602 71.5953 397.602 56.3953 407.002 47.0953V46.9953ZM480.002 231.995C480.002 225.63 477.473 219.526 472.972 215.025C468.472 210.524 462.367 207.995 456.002 207.995C449.637 207.995 443.532 210.524 439.031 215.025C434.53 219.526 432.002 225.63 432.002 231.995C432.002 238.36 434.53 244.465 439.031 248.966C443.532 253.467 449.637 255.995 456.002 255.995C462.367 255.995 468.472 253.467 472.972 248.966C477.473 244.465 480.002 238.36 480.002 231.995ZM568.002 255.995C574.367 255.995 580.472 253.467 584.973 248.966C589.473 244.465 592.002 238.36 592.002 231.995C592.002 225.63 589.473 219.526 584.973 215.025C580.472 210.524 574.367 207.995 568.002 207.995C561.637 207.995 555.532 210.524 551.031 215.025C546.531 219.526 544.002 225.63 544.002 231.995C544.002 238.36 546.531 244.465 551.031 248.966C555.532 253.467 561.637 255.995 568.002 255.995ZM480.002 143.995C480.002 139.752 478.316 135.682 475.316 132.682C472.315 129.681 468.245 127.995 464.002 127.995C459.758 127.995 455.689 129.681 452.688 132.682C449.688 135.682 448.002 139.752 448.002 143.995C448.002 148.239 449.688 152.308 452.688 155.309C455.689 158.31 459.758 159.995 464.002 159.995C468.245 159.995 472.315 158.31 475.316 155.309C478.316 152.308 480.002 148.239 480.002 143.995ZM528.002 159.995C532.245 159.995 536.315 158.31 539.316 155.309C542.316 152.308 544.002 148.239 544.002 143.995C544.002 139.752 542.316 135.682 539.316 132.682C536.315 129.681 532.245 127.995 528.002 127.995C523.758 127.995 519.689 129.681 516.688 132.682C513.688 135.682 512.002 139.752 512.002 143.995C512.002 148.239 513.688 152.308 516.688 155.309C519.689 158.31 523.758 159.995 528.002 159.995Z" fill="black"/>
</g>
</g>
</g>
</g>
</g>
</g>
</g>
</g>
</g>
</g>
</g>
</g>
</g>
</g>
</g>
<defs>
<clipPath id="clip0_3932_26081">
<rect width="640" height="512" fill="white"/>
</clipPath>
</defs>
</svg>
