<svg width="512" height="512" viewBox="0 0 512 512" fill="none" xmlns="http://www.w3.org/2000/svg">
<path d="M260.353 254.882L131.538 33.1035C131.343 32.7672 131.064 32.4881 130.727 32.2944C130.391 32.1006 130.009 31.9991 129.62 32C129.232 32.0009 128.851 32.1042 128.515 32.2996C128.179 32.4949 127.901 32.7753 127.709 33.1125L0.299588 254.891C0.103328 255.23 0 255.616 0 256.008C0 256.4 0.103328 256.786 0.299588 257.126L129.116 478.904C129.31 479.24 129.589 479.52 129.926 479.713C130.263 479.907 130.645 480.009 131.033 480.008C131.422 480.007 131.803 479.904 132.139 479.708C132.475 479.513 132.753 479.232 132.946 478.895L260.358 257.117C260.553 256.776 260.655 256.391 260.654 255.998C260.653 255.606 260.549 255.221 260.353 254.882ZM299.431 229.169C299.621 229.505 299.897 229.785 300.231 229.98C300.565 230.175 300.944 230.279 301.331 230.28H367.84C368.228 230.275 368.609 230.169 368.944 229.971C369.279 229.774 369.556 229.492 369.748 229.154C369.94 228.816 370.041 228.434 370.039 228.045C370.038 227.657 369.934 227.275 369.74 226.939L259.115 33.1145C258.924 32.7779 258.648 32.4978 258.315 32.3026C257.981 32.1074 257.601 32.0042 257.215 32.0035H190.707C190.318 32.0082 189.937 32.1145 189.602 32.3119C189.268 32.5094 188.99 32.7911 188.798 33.129C188.606 33.4668 188.506 33.8492 188.507 34.2379C188.509 34.6266 188.612 35.0081 188.807 35.3445L299.431 229.169ZM511.7 254.89L384.9 33.1155C384.708 32.7782 384.43 32.4976 384.094 32.3023C383.759 32.107 383.378 32.0039 382.99 32.0035H316.39C316.001 32.0072 315.619 32.1128 315.284 32.3098C314.948 32.5068 314.67 32.7882 314.477 33.1261C314.285 33.4641 314.184 33.8466 314.185 34.2357C314.186 34.6247 314.289 35.0067 314.484 35.3435L440.652 256.004L314.481 476.664C314.286 477 314.183 477.382 314.182 477.771C314.181 478.161 314.282 478.543 314.474 478.881C314.667 479.219 314.945 479.5 315.281 479.697C315.616 479.894 315.998 480 316.387 480.004H382.987C383.374 480.003 383.754 479.899 384.089 479.704C384.424 479.509 384.701 479.228 384.893 478.892L511.7 257.118C511.894 256.778 511.996 256.394 511.996 256.004C511.996 255.613 511.894 255.229 511.7 254.89ZM366.016 284.921H299.508C299.121 284.921 298.741 285.025 298.408 285.22C298.074 285.415 297.798 285.695 297.608 286.032L188.808 476.663C188.613 476.999 188.51 477.381 188.508 477.769C188.507 478.158 188.607 478.54 188.799 478.878C188.991 479.216 189.269 479.498 189.603 479.695C189.938 479.893 190.319 479.999 190.708 480.004H257.217C257.603 480.003 257.983 479.9 258.317 479.705C258.65 479.509 258.926 479.229 259.117 478.893L367.917 288.262C368.111 287.925 368.215 287.544 368.216 287.155C368.217 286.766 368.117 286.384 367.925 286.046C367.733 285.708 367.455 285.426 367.12 285.229C366.785 285.031 366.404 284.925 366.016 284.921Z" fill="black"/>
</svg>
