<svg width="512" height="512" viewBox="0 0 512 512" fill="none" xmlns="http://www.w3.org/2000/svg">
<path d="M256.003 96C268.733 96 280.942 90.9429 289.944 81.9411C298.946 72.9394 304.003 60.7304 304.003 48C304.003 35.2696 298.946 23.0606 289.944 14.0589C280.942 5.05713 268.733 0 256.003 0C243.272 0 231.063 5.05713 222.062 14.0589C213.06 23.0606 208.003 35.2696 208.003 48C208.003 60.7304 213.06 72.9394 222.062 81.9411C231.063 90.9429 243.272 96 256.003 96ZM176.003 192C188.733 192 200.942 186.943 209.944 177.941C218.946 168.939 224.003 156.73 224.003 144C224.003 131.27 218.946 119.061 209.944 110.059C200.942 101.057 188.733 96 176.003 96C163.272 96 151.063 101.057 142.062 110.059C133.06 119.061 128.003 131.27 128.003 144C128.003 156.73 133.06 168.939 142.062 177.941C151.063 186.943 163.272 192 176.003 192ZM276.803 383.8C277.803 383.9 278.903 384 280.003 384C319.803 384 352.003 416.2 352.003 456V478.7C352.003 495.1 368.003 506.6 383.603 501.5L396.403 497.2C414.403 491.2 433.703 490.7 452.003 495.7L471.403 501C489.303 505.9 505.803 489.4 500.903 471.5L495.603 452C490.603 433.7 491.203 414.4 497.103 396.4L501.403 383.6C506.603 368.1 495.003 352 478.603 352C444.003 352 415.903 323.9 415.903 289.3V257.3C415.903 240.9 399.903 229.4 384.303 234.5L371.503 238.8C353.503 244.8 334.203 245.3 315.903 240.3L286.303 232.2C283.403 231.4 280.403 231.2 277.603 231.5C281.803 241.2 283.403 252.3 281.303 263.8L275.003 298.7C273.503 307.1 273.603 315.7 275.503 324L280.803 347.9C283.603 360.6 281.903 373.1 276.803 383.8ZM127.603 234.5C112.103 229.3 96.0027 240.9 96.0027 257.3V289.3C96.0027 323.9 67.9027 352 33.3027 352C16.9027 352 5.40266 368 10.5027 383.6L14.8027 396.4C20.8027 414.4 21.3027 433.7 16.3027 452L11.0027 471.4C6.20266 489.4 22.6027 505.8 40.5027 501L60.0027 495.6C78.3027 490.6 97.6027 491.1 115.603 497.1L128.403 501.4C143.903 506.6 160.003 495 160.003 478.6V446.6C160.003 412 188.103 383.9 222.703 383.9C239.103 383.9 250.603 367.9 245.503 352.3L241.203 339.5C235.203 321.5 234.703 302.2 239.703 283.9L245.003 264.5C249.903 246.6 233.403 230.1 215.503 235L196.003 240.4C177.703 245.4 158.403 244.8 140.403 238.9L127.603 234.6V234.5ZM384.003 144C384.003 131.27 378.946 119.061 369.944 110.059C360.942 101.057 348.733 96 336.003 96C323.272 96 311.063 101.057 302.062 110.059C293.06 119.061 288.003 131.27 288.003 144C288.003 156.73 293.06 168.939 302.062 177.941C311.063 186.943 323.272 192 336.003 192C348.733 192 360.942 186.943 369.944 177.941C378.946 168.939 384.003 156.73 384.003 144Z" fill="black"/>
</svg>
