<svg width="512" height="512" viewBox="0 0 512 512" fill="none" xmlns="http://www.w3.org/2000/svg">
<g clip-path="url(#clip0_3932_26263)">
<mask id="mask0_3932_26263" style="mask-type:luminance" maskUnits="userSpaceOnUse" x="0" y="0" width="512" height="512">
<path d="M512 0H0V512H512V0Z" fill="white"/>
</mask>
<g mask="url(#mask0_3932_26263)">
<mask id="mask1_3932_26263" style="mask-type:luminance" maskUnits="userSpaceOnUse" x="0" y="0" width="512" height="512">
<path d="M512 0H0V512H512V0Z" fill="white"/>
</mask>
<g mask="url(#mask1_3932_26263)">
<mask id="mask2_3932_26263" style="mask-type:luminance" maskUnits="userSpaceOnUse" x="0" y="0" width="512" height="512">
<path d="M512 0H0V512H512V0Z" fill="white"/>
</mask>
<g mask="url(#mask2_3932_26263)">
<mask id="mask3_3932_26263" style="mask-type:luminance" maskUnits="userSpaceOnUse" x="0" y="0" width="512" height="512">
<path d="M512 0H0V512H512V0Z" fill="white"/>
</mask>
<g mask="url(#mask3_3932_26263)">
<mask id="mask4_3932_26263" style="mask-type:luminance" maskUnits="userSpaceOnUse" x="0" y="0" width="512" height="512">
<path d="M512 0H0V512H512V0Z" fill="white"/>
</mask>
<g mask="url(#mask4_3932_26263)">
<mask id="mask5_3932_26263" style="mask-type:luminance" maskUnits="userSpaceOnUse" x="0" y="0" width="512" height="512">
<path d="M512 0H0V512H512V0Z" fill="white"/>
</mask>
<g mask="url(#mask5_3932_26263)">
<mask id="mask6_3932_26263" style="mask-type:luminance" maskUnits="userSpaceOnUse" x="0" y="0" width="512" height="512">
<path d="M512 0H0V512H512V0Z" fill="white"/>
</mask>
<g mask="url(#mask6_3932_26263)">
<mask id="mask7_3932_26263" style="mask-type:luminance" maskUnits="userSpaceOnUse" x="0" y="0" width="512" height="512">
<path d="M512 0H0V512H512V0Z" fill="white"/>
</mask>
<g mask="url(#mask7_3932_26263)">
<mask id="mask8_3932_26263" style="mask-type:luminance" maskUnits="userSpaceOnUse" x="0" y="0" width="512" height="512">
<path d="M512 0H0V512H512V0Z" fill="white"/>
</mask>
<g mask="url(#mask8_3932_26263)">
<mask id="mask9_3932_26263" style="mask-type:luminance" maskUnits="userSpaceOnUse" x="0" y="0" width="512" height="512">
<path d="M512 0H0V512H512V0Z" fill="white"/>
</mask>
<g mask="url(#mask9_3932_26263)">
<mask id="mask10_3932_26263" style="mask-type:luminance" maskUnits="userSpaceOnUse" x="0" y="0" width="512" height="512">
<path d="M512 0H0V512H512V0Z" fill="white"/>
</mask>
<g mask="url(#mask10_3932_26263)">
<mask id="mask11_3932_26263" style="mask-type:luminance" maskUnits="userSpaceOnUse" x="0" y="0" width="512" height="512">
<path d="M512 0H0V512H512V0Z" fill="white"/>
</mask>
<g mask="url(#mask11_3932_26263)">
<mask id="mask12_3932_26263" style="mask-type:luminance" maskUnits="userSpaceOnUse" x="0" y="0" width="512" height="512">
<path d="M512 0H0V512H512V0Z" fill="white"/>
</mask>
<g mask="url(#mask12_3932_26263)">
<mask id="mask13_3932_26263" style="mask-type:luminance" maskUnits="userSpaceOnUse" x="0" y="0" width="512" height="512">
<path d="M512 0H0V512H512V0Z" fill="white"/>
</mask>
<g mask="url(#mask13_3932_26263)">
<path d="M76.3783 370.297C77.4244 378.149 75.9778 386.13 72.2427 393.115C68.5077 400.099 62.6729 405.734 55.5624 409.224C48.4519 412.713 40.4248 413.881 32.6148 412.562C24.8047 411.243 17.6064 407.504 12.0361 401.873C6.46586 396.242 2.80521 389.003 1.57108 381.179C0.336945 373.356 1.59169 365.342 5.15814 358.269C8.72458 351.197 14.4225 345.424 21.4473 341.765C28.4721 338.106 36.4689 336.746 44.3083 337.877C-33.9717 226.527 96.3083 147.347 96.3083 147.347C90.4483 190.347 88.0683 238.507 88.0683 238.507C20.7583 279.997 88.9983 302.567 127.878 311.377C137.787 338.328 155.721 361.592 179.264 378.032C202.806 394.472 230.824 403.297 259.538 403.317C261.458 403.317 263.308 403.107 265.208 403.037L265.318 421.897C166.098 423.287 106.618 392.757 76.3783 370.297ZM184.378 42.5973C185.328 35.3687 184.153 28.02 180.998 21.4473C178.011 15.2105 173.377 9.90857 167.595 6.11408C161.814 2.31958 155.106 0.176852 148.196 -0.0826411C141.285 -0.342133 134.435 1.29148 128.386 4.64171C122.336 7.99195 117.317 12.9314 113.871 18.9266C110.424 24.9217 108.681 31.7447 108.83 38.6583C108.979 45.5719 111.015 52.3134 114.716 58.1545C118.418 63.9958 123.645 68.7143 129.833 71.8008C136.022 74.8874 142.936 76.2243 149.828 75.6673C127.278 105.577 95.9983 165.237 97.4083 265.667L119.248 265.517C119.248 264.617 119.108 263.747 119.108 262.837C119.127 234.859 127.503 207.524 143.163 184.338C158.823 161.153 181.051 143.174 206.998 132.707C214.998 94.9973 237.698 18.4073 280.798 88.4173C280.798 88.4173 328.938 90.7973 371.978 96.6573C371.978 96.6573 294.138 -31.3427 184.388 42.5973H184.378ZM488.568 176.767C494.91 173.748 500.289 169.027 504.107 163.131C507.924 157.235 510.03 150.395 510.189 143.373C510.349 136.351 508.556 129.422 505.01 123.359C501.464 117.295 496.305 112.335 490.106 109.031C483.908 105.727 476.914 104.209 469.904 104.645C462.893 105.081 456.141 107.455 450.4 111.501C444.659 115.548 440.154 121.109 437.387 127.565C434.62 134.022 433.7 141.119 434.728 148.067C402.998 126.127 344.888 98.9974 251.278 100.327L251.418 122.827C254.118 122.677 256.808 122.417 259.558 122.417C287.7 122.427 315.189 130.895 338.458 146.723C361.727 162.55 379.701 185.007 390.048 211.177C429.148 220.177 495.108 242.757 428.508 283.717C428.508 283.717 426.168 331.847 420.298 374.877C420.298 374.877 553.748 293.717 469.298 180.267C475.932 180.838 482.597 179.63 488.608 176.767H488.568ZM374.058 436.237C395.488 403.777 420.478 346.547 419.198 256.577L399.678 256.717C399.758 258.777 399.978 260.787 399.978 262.867C399.963 291.482 391.2 319.408 374.866 342.902C358.532 366.397 335.406 384.337 308.588 394.317C299.738 433.267 277.148 500.977 235.818 433.807C235.818 433.807 187.698 431.467 144.628 425.587C144.628 425.587 224.548 556.927 336.528 476.587C336.822 481.446 338.058 486.201 340.168 490.587C343.1 496.719 347.626 501.951 353.272 505.735C358.918 509.519 365.478 511.716 372.264 512.096C379.05 512.477 385.814 511.027 391.848 507.898C397.882 504.77 402.964 500.077 406.564 494.311C410.163 488.545 412.146 481.918 412.307 475.123C412.468 468.329 410.8 461.615 407.478 455.686C404.156 449.756 399.301 444.828 393.422 441.417C387.543 438.007 380.855 436.238 374.058 436.297V436.237Z" fill="black"/>
</g>
</g>
</g>
</g>
</g>
</g>
</g>
</g>
</g>
</g>
</g>
</g>
</g>
</g>
</g>
<defs>
<clipPath id="clip0_3932_26263">
<rect width="512" height="512" fill="white"/>
</clipPath>
</defs>
</svg>
