<svg width="512" height="512" viewBox="0 0 512 512" fill="none" xmlns="http://www.w3.org/2000/svg">
<g clip-path="url(#clip0_3932_26549)">
<mask id="mask0_3932_26549" style="mask-type:luminance" maskUnits="userSpaceOnUse" x="0" y="0" width="512" height="512">
<path d="M512 0H0V512H512V0Z" fill="white"/>
</mask>
<g mask="url(#mask0_3932_26549)">
<mask id="mask1_3932_26549" style="mask-type:luminance" maskUnits="userSpaceOnUse" x="0" y="0" width="512" height="512">
<path d="M512 0H0V512H512V0Z" fill="white"/>
</mask>
<g mask="url(#mask1_3932_26549)">
<mask id="mask2_3932_26549" style="mask-type:luminance" maskUnits="userSpaceOnUse" x="0" y="0" width="512" height="512">
<path d="M512 0H0V512H512V0Z" fill="white"/>
</mask>
<g mask="url(#mask2_3932_26549)">
<mask id="mask3_3932_26549" style="mask-type:luminance" maskUnits="userSpaceOnUse" x="0" y="0" width="512" height="512">
<path d="M512 0H0V512H512V0Z" fill="white"/>
</mask>
<g mask="url(#mask3_3932_26549)">
<mask id="mask4_3932_26549" style="mask-type:luminance" maskUnits="userSpaceOnUse" x="0" y="0" width="512" height="512">
<path d="M512 0H0V512H512V0Z" fill="white"/>
</mask>
<g mask="url(#mask4_3932_26549)">
<mask id="mask5_3932_26549" style="mask-type:luminance" maskUnits="userSpaceOnUse" x="0" y="0" width="512" height="512">
<path d="M512 0H0V512H512V0Z" fill="white"/>
</mask>
<g mask="url(#mask5_3932_26549)">
<mask id="mask6_3932_26549" style="mask-type:luminance" maskUnits="userSpaceOnUse" x="0" y="0" width="512" height="512">
<path d="M512 0H0V512H512V0Z" fill="white"/>
</mask>
<g mask="url(#mask6_3932_26549)">
<mask id="mask7_3932_26549" style="mask-type:luminance" maskUnits="userSpaceOnUse" x="0" y="0" width="512" height="512">
<path d="M512 0H0V512H512V0Z" fill="white"/>
</mask>
<g mask="url(#mask7_3932_26549)">
<mask id="mask8_3932_26549" style="mask-type:luminance" maskUnits="userSpaceOnUse" x="0" y="0" width="512" height="512">
<path d="M512 0H0V512H512V0Z" fill="white"/>
</mask>
<g mask="url(#mask8_3932_26549)">
<mask id="mask9_3932_26549" style="mask-type:luminance" maskUnits="userSpaceOnUse" x="0" y="0" width="512" height="512">
<path d="M512 0H0V512H512V0Z" fill="white"/>
</mask>
<g mask="url(#mask9_3932_26549)">
<mask id="mask10_3932_26549" style="mask-type:luminance" maskUnits="userSpaceOnUse" x="0" y="0" width="512" height="512">
<path d="M512 0H0V512H512V0Z" fill="white"/>
</mask>
<g mask="url(#mask10_3932_26549)">
<mask id="mask11_3932_26549" style="mask-type:luminance" maskUnits="userSpaceOnUse" x="0" y="0" width="512" height="512">
<path d="M512 0H0V512H512V0Z" fill="white"/>
</mask>
<g mask="url(#mask11_3932_26549)">
<mask id="mask12_3932_26549" style="mask-type:luminance" maskUnits="userSpaceOnUse" x="0" y="0" width="512" height="512">
<path d="M512 0H0V512H512V0Z" fill="white"/>
</mask>
<g mask="url(#mask12_3932_26549)">
<mask id="mask13_3932_26549" style="mask-type:luminance" maskUnits="userSpaceOnUse" x="0" y="0" width="512" height="512">
<path d="M512 0H0V512H512V0Z" fill="white"/>
</mask>
<g mask="url(#mask13_3932_26549)">
<path d="M488.6 23.4C519.8 54.6 519.8 105.3 488.6 136.5L136.6 488.5C105.4 519.7 54.7 519.7 23.5 488.5C-7.7 457.3 -7.7 406.6 23.5 375.4L375.5 23.4C406.7 -7.8 457.4 -7.8 488.6 23.4ZM443.3 92.7C437.1 86.5 426.9 86.5 420.7 92.7C408.2 105.2 396.9 107.8 383.2 110.3L380.7 110.7C366.9 113.2 349.1 116.3 332.7 132.7C316 149.4 311.8 168.7 308.6 183.6L308.4 184.6C305 200.2 302.4 211 292.7 220.7C283 230.4 272.2 233 256.6 236.4L255.6 236.6C240.7 239.8 221.4 244 204.7 260.7C188 277.4 183.8 296.7 180.6 311.6L180.4 312.6C177 328.2 174.4 339 164.7 348.7C155.5 357.9 146.7 359.5 132 362.1L131.1 362.3C115.5 365.1 96.2 369.2 76.7 388.7C70.5 394.9 70.5 405.1 76.7 411.3C82.9 417.5 93.1 417.5 99.3 411.3C111.8 398.8 123.1 396.2 136.8 393.7L139.3 393.3C153.1 390.8 170.9 387.7 187.3 371.3C204 354.6 208.2 335.3 211.4 320.4L211.6 319.4C215 303.8 217.6 293 227.3 283.3C237 273.6 247.8 271 263.4 267.6L264.4 267.4C279.3 264.2 298.6 260 315.3 243.3C332 226.6 336.2 207.3 339.4 192.4L339.6 191.4C343 175.8 345.6 165 355.3 155.3C364.5 146.1 373.3 144.5 388 141.9L388.9 141.7C404.5 138.9 423.8 134.8 443.3 115.3C449.5 109.1 449.5 98.9 443.3 92.7ZM191.2 479.2L479.2 191.2L495 207C505.9 217.9 512 232.6 512 248C512 263.4 505.9 278.1 495 289L289 495C278.1 505.9 263.4 512 248 512C232.6 512 217.9 505.9 207 495L191.2 479.2ZM17 305C6.1 294.1 0 279.4 0 264C0 248.6 6.1 233.9 17 223L223 17C233.9 6.1 248.6 1.43052e-05 264 1.43052e-05C279.4 1.43052e-05 294.1 6.1 305 17L320.8 32.8L32.8 320.8L17 305Z" fill="black"/>
</g>
</g>
</g>
</g>
</g>
</g>
</g>
</g>
</g>
</g>
</g>
</g>
</g>
</g>
</g>
<defs>
<clipPath id="clip0_3932_26549">
<rect width="512" height="512" fill="white"/>
</clipPath>
</defs>
</svg>
