<svg width="384" height="512" viewBox="0 0 384 512" fill="none" xmlns="http://www.w3.org/2000/svg">
<g clip-path="url(#clip0_3932_26783)">
<mask id="mask0_3932_26783" style="mask-type:luminance" maskUnits="userSpaceOnUse" x="0" y="0" width="384" height="512">
<path d="M384 0H0V512H384V0Z" fill="white"/>
</mask>
<g mask="url(#mask0_3932_26783)">
<mask id="mask1_3932_26783" style="mask-type:luminance" maskUnits="userSpaceOnUse" x="0" y="0" width="384" height="512">
<path d="M384 0H0V512H384V0Z" fill="white"/>
</mask>
<g mask="url(#mask1_3932_26783)">
<mask id="mask2_3932_26783" style="mask-type:luminance" maskUnits="userSpaceOnUse" x="0" y="0" width="384" height="512">
<path d="M384 0H0V512H384V0Z" fill="white"/>
</mask>
<g mask="url(#mask2_3932_26783)">
<mask id="mask3_3932_26783" style="mask-type:luminance" maskUnits="userSpaceOnUse" x="0" y="0" width="384" height="512">
<path d="M384 0H0V512H384V0Z" fill="white"/>
</mask>
<g mask="url(#mask3_3932_26783)">
<mask id="mask4_3932_26783" style="mask-type:luminance" maskUnits="userSpaceOnUse" x="0" y="0" width="384" height="512">
<path d="M384 0H0V512H384V0Z" fill="white"/>
</mask>
<g mask="url(#mask4_3932_26783)">
<mask id="mask5_3932_26783" style="mask-type:luminance" maskUnits="userSpaceOnUse" x="0" y="0" width="384" height="512">
<path d="M384 0H0V512H384V0Z" fill="white"/>
</mask>
<g mask="url(#mask5_3932_26783)">
<mask id="mask6_3932_26783" style="mask-type:luminance" maskUnits="userSpaceOnUse" x="0" y="0" width="384" height="512">
<path d="M384 0H0V512H384V0Z" fill="white"/>
</mask>
<g mask="url(#mask6_3932_26783)">
<mask id="mask7_3932_26783" style="mask-type:luminance" maskUnits="userSpaceOnUse" x="0" y="0" width="384" height="512">
<path d="M384 0H0V512H384V0Z" fill="white"/>
</mask>
<g mask="url(#mask7_3932_26783)">
<mask id="mask8_3932_26783" style="mask-type:luminance" maskUnits="userSpaceOnUse" x="0" y="0" width="384" height="512">
<path d="M384 0H0V512H384V0Z" fill="white"/>
</mask>
<g mask="url(#mask8_3932_26783)">
<mask id="mask9_3932_26783" style="mask-type:luminance" maskUnits="userSpaceOnUse" x="0" y="0" width="384" height="512">
<path d="M384 0H0V512H384V0Z" fill="white"/>
</mask>
<g mask="url(#mask9_3932_26783)">
<mask id="mask10_3932_26783" style="mask-type:luminance" maskUnits="userSpaceOnUse" x="0" y="0" width="384" height="512">
<path d="M384 0H0V512H384V0Z" fill="white"/>
</mask>
<g mask="url(#mask10_3932_26783)">
<mask id="mask11_3932_26783" style="mask-type:luminance" maskUnits="userSpaceOnUse" x="0" y="0" width="384" height="512">
<path d="M384 0H0V512H384V0Z" fill="white"/>
</mask>
<g mask="url(#mask11_3932_26783)">
<mask id="mask12_3932_26783" style="mask-type:luminance" maskUnits="userSpaceOnUse" x="0" y="0" width="384" height="512">
<path d="M384 0H0V512H384V0Z" fill="white"/>
</mask>
<g mask="url(#mask12_3932_26783)">
<mask id="mask13_3932_26783" style="mask-type:luminance" maskUnits="userSpaceOnUse" x="0" y="0" width="384" height="512">
<path d="M384 0H0V512H384V0Z" fill="white"/>
</mask>
<g mask="url(#mask13_3932_26783)">
<path d="M32 0C14.3 0 0 14.3 0 32C0 49.7 14.3 64 32 64V75C32 117.4 48.9 158.1 78.9 188.1L146.7 256L78.9 323.9C48.9 353.9 32 394.6 32 437V448C14.3 448 0 462.3 0 480C0 497.7 14.3 512 32 512H64H320H352C369.7 512 384 497.7 384 480C384 462.3 369.7 448 352 448V437C352 394.6 335.1 353.9 305.1 323.9L237.3 256L305.2 188.1C335.2 158.1 352.1 117.4 352.1 75V64C369.8 64 384.1 49.7 384.1 32C384.1 14.3 369.8 0 352.1 0H320H64H32ZM96 75V64H288V75C288 100.5 277.9 124.9 259.9 142.9L192 210.7L124.1 142.8C106.1 124.9 96 100.4 96 75Z" fill="black"/>
</g>
</g>
</g>
</g>
</g>
</g>
</g>
</g>
</g>
</g>
</g>
</g>
</g>
</g>
</g>
<defs>
<clipPath id="clip0_3932_26783">
<rect width="384" height="512" fill="white"/>
</clipPath>
</defs>
</svg>
