<svg width="576" height="512" viewBox="0 0 576 512" fill="none" xmlns="http://www.w3.org/2000/svg">
<g clip-path="url(#clip0_3932_27189)">
<mask id="mask0_3932_27189" style="mask-type:luminance" maskUnits="userSpaceOnUse" x="0" y="0" width="576" height="512">
<path d="M576 0H0V512H576V0Z" fill="white"/>
</mask>
<g mask="url(#mask0_3932_27189)">
<mask id="mask1_3932_27189" style="mask-type:luminance" maskUnits="userSpaceOnUse" x="0" y="0" width="576" height="512">
<path d="M576 0H0V512H576V0Z" fill="white"/>
</mask>
<g mask="url(#mask1_3932_27189)">
<mask id="mask2_3932_27189" style="mask-type:luminance" maskUnits="userSpaceOnUse" x="0" y="0" width="576" height="512">
<path d="M576 0H0V512H576V0Z" fill="white"/>
</mask>
<g mask="url(#mask2_3932_27189)">
<mask id="mask3_3932_27189" style="mask-type:luminance" maskUnits="userSpaceOnUse" x="0" y="0" width="576" height="512">
<path d="M576 0H0V512H576V0Z" fill="white"/>
</mask>
<g mask="url(#mask3_3932_27189)">
<mask id="mask4_3932_27189" style="mask-type:luminance" maskUnits="userSpaceOnUse" x="0" y="0" width="576" height="512">
<path d="M576 0H0V512H576V0Z" fill="white"/>
</mask>
<g mask="url(#mask4_3932_27189)">
<mask id="mask5_3932_27189" style="mask-type:luminance" maskUnits="userSpaceOnUse" x="0" y="0" width="576" height="512">
<path d="M576 0H0V512H576V0Z" fill="white"/>
</mask>
<g mask="url(#mask5_3932_27189)">
<mask id="mask6_3932_27189" style="mask-type:luminance" maskUnits="userSpaceOnUse" x="0" y="0" width="576" height="512">
<path d="M576 0H0V512H576V0Z" fill="white"/>
</mask>
<g mask="url(#mask6_3932_27189)">
<mask id="mask7_3932_27189" style="mask-type:luminance" maskUnits="userSpaceOnUse" x="0" y="0" width="576" height="512">
<path d="M576 0H0V512H576V0Z" fill="white"/>
</mask>
<g mask="url(#mask7_3932_27189)">
<mask id="mask8_3932_27189" style="mask-type:luminance" maskUnits="userSpaceOnUse" x="0" y="0" width="576" height="512">
<path d="M576 0H0V512H576V0Z" fill="white"/>
</mask>
<g mask="url(#mask8_3932_27189)">
<mask id="mask9_3932_27189" style="mask-type:luminance" maskUnits="userSpaceOnUse" x="0" y="0" width="576" height="512">
<path d="M576 0H0V512H576V0Z" fill="white"/>
</mask>
<g mask="url(#mask9_3932_27189)">
<mask id="mask10_3932_27189" style="mask-type:luminance" maskUnits="userSpaceOnUse" x="0" y="0" width="576" height="512">
<path d="M576 0H0V512H576V0Z" fill="white"/>
</mask>
<g mask="url(#mask10_3932_27189)">
<mask id="mask11_3932_27189" style="mask-type:luminance" maskUnits="userSpaceOnUse" x="0" y="0" width="576" height="512">
<path d="M576 0H0V512H576V0Z" fill="white"/>
</mask>
<g mask="url(#mask11_3932_27189)">
<mask id="mask12_3932_27189" style="mask-type:luminance" maskUnits="userSpaceOnUse" x="0" y="0" width="576" height="512">
<path d="M576 0H0V512H576V0Z" fill="white"/>
</mask>
<g mask="url(#mask12_3932_27189)">
<mask id="mask13_3932_27189" style="mask-type:luminance" maskUnits="userSpaceOnUse" x="0" y="0" width="576" height="512">
<path d="M576 0H0V512H576V0Z" fill="white"/>
</mask>
<g mask="url(#mask13_3932_27189)">
<path d="M543.8 287.6C560.8 287.6 575.8 273.6 575.8 255.5C576.8 246.5 572.8 238.5 564.8 231.5L512 185V64C512 46.3 497.7 32 480 32H448C430.3 32 416 46.3 416 64V100.7L309.5 7C303.5 2 295.5 0 288.5 0C281.5 0 273.5 1 266.5 8L10 231.5C3 238.5 0 246.5 0 255.5C0 273.5 14 287.6 32 287.6H64V448C64 483.3 92.7 512 128 512H448.5C484 512 512.7 483.2 512.5 447.7L511.8 287.5H543.8V287.6ZM288 160C304.974 160 321.253 166.743 333.255 178.745C345.257 190.747 352 207.026 352 224C352 240.974 345.257 257.253 333.255 269.255C321.253 281.257 304.974 288 288 288C271.026 288 254.747 281.257 242.745 269.255C230.743 257.253 224 240.974 224 224C224 207.026 230.743 190.747 242.745 178.745C254.747 166.743 271.026 160 288 160ZM176 400C176 355.8 211.8 320 256 320H320C364.2 320 400 355.8 400 400C400 408.8 392.8 416 384 416H192C183.2 416 176 408.8 176 400Z" fill="black"/>
</g>
</g>
</g>
</g>
</g>
</g>
</g>
</g>
</g>
</g>
</g>
</g>
</g>
</g>
</g>
<defs>
<clipPath id="clip0_3932_27189">
<rect width="576" height="512" fill="white"/>
</clipPath>
</defs>
</svg>
