<svg width="576" height="512" viewBox="0 0 576 512" fill="none" xmlns="http://www.w3.org/2000/svg">
<g clip-path="url(#clip0_3932_27653)">
<mask id="mask0_3932_27653" style="mask-type:luminance" maskUnits="userSpaceOnUse" x="0" y="0" width="576" height="512">
<path d="M576 0H0V512H576V0Z" fill="white"/>
</mask>
<g mask="url(#mask0_3932_27653)">
<mask id="mask1_3932_27653" style="mask-type:luminance" maskUnits="userSpaceOnUse" x="0" y="0" width="576" height="512">
<path d="M576 0H0V512H576V0Z" fill="white"/>
</mask>
<g mask="url(#mask1_3932_27653)">
<mask id="mask2_3932_27653" style="mask-type:luminance" maskUnits="userSpaceOnUse" x="0" y="0" width="576" height="512">
<path d="M576 0H0V512H576V0Z" fill="white"/>
</mask>
<g mask="url(#mask2_3932_27653)">
<mask id="mask3_3932_27653" style="mask-type:luminance" maskUnits="userSpaceOnUse" x="0" y="0" width="576" height="512">
<path d="M576 0H0V512H576V0Z" fill="white"/>
</mask>
<g mask="url(#mask3_3932_27653)">
<mask id="mask4_3932_27653" style="mask-type:luminance" maskUnits="userSpaceOnUse" x="0" y="0" width="576" height="512">
<path d="M576 0H0V512H576V0Z" fill="white"/>
</mask>
<g mask="url(#mask4_3932_27653)">
<mask id="mask5_3932_27653" style="mask-type:luminance" maskUnits="userSpaceOnUse" x="0" y="0" width="576" height="512">
<path d="M576 0H0V512H576V0Z" fill="white"/>
</mask>
<g mask="url(#mask5_3932_27653)">
<mask id="mask6_3932_27653" style="mask-type:luminance" maskUnits="userSpaceOnUse" x="0" y="0" width="576" height="512">
<path d="M576 0H0V512H576V0Z" fill="white"/>
</mask>
<g mask="url(#mask6_3932_27653)">
<mask id="mask7_3932_27653" style="mask-type:luminance" maskUnits="userSpaceOnUse" x="0" y="0" width="576" height="512">
<path d="M576 0H0V512H576V0Z" fill="white"/>
</mask>
<g mask="url(#mask7_3932_27653)">
<mask id="mask8_3932_27653" style="mask-type:luminance" maskUnits="userSpaceOnUse" x="0" y="0" width="576" height="512">
<path d="M576 0H0V512H576V0Z" fill="white"/>
</mask>
<g mask="url(#mask8_3932_27653)">
<mask id="mask9_3932_27653" style="mask-type:luminance" maskUnits="userSpaceOnUse" x="0" y="0" width="576" height="512">
<path d="M576 0H0V512H576V0Z" fill="white"/>
</mask>
<g mask="url(#mask9_3932_27653)">
<mask id="mask10_3932_27653" style="mask-type:luminance" maskUnits="userSpaceOnUse" x="0" y="0" width="576" height="512">
<path d="M576 0H0V512H576V0Z" fill="white"/>
</mask>
<g mask="url(#mask10_3932_27653)">
<mask id="mask11_3932_27653" style="mask-type:luminance" maskUnits="userSpaceOnUse" x="0" y="0" width="576" height="512">
<path d="M576 0H0V512H576V0Z" fill="white"/>
</mask>
<g mask="url(#mask11_3932_27653)">
<mask id="mask12_3932_27653" style="mask-type:luminance" maskUnits="userSpaceOnUse" x="0" y="0" width="576" height="512">
<path d="M576 0H0V512H576V0Z" fill="white"/>
</mask>
<g mask="url(#mask12_3932_27653)">
<mask id="mask13_3932_27653" style="mask-type:luminance" maskUnits="userSpaceOnUse" x="0" y="0" width="576" height="512">
<path d="M576 0H0V512H576V0Z" fill="white"/>
</mask>
<g mask="url(#mask13_3932_27653)">
<path d="M306.801 6.09844C295.601 -2.00156 280.401 -2.00156 269.201 6.09844L93.2008 134.098C82.0008 142.298 77.3008 156.698 81.6008 169.898C85.9008 183.098 98.1008 191.998 112.001 191.998H128.001V264.998C129.701 265.998 131.301 266.998 132.901 268.098C150.901 280.498 173.001 288.398 192.101 288.398C213.201 288.398 234.101 279.898 251.301 268.098C273.401 252.598 302.901 252.598 325.001 268.098C343.401 280.798 364.601 288.398 384.201 288.398C403.201 288.398 425.401 280.498 443.401 268.098C444.901 267.098 446.401 266.098 447.901 265.198L447.601 191.998H464.001C477.901 191.998 490.101 183.098 494.401 169.898C498.701 156.698 494.001 142.298 482.801 134.098L306.801 6.09844ZM269.501 309.898C247.001 325.398 219.501 335.998 192.001 335.998C165.101 335.998 136.701 325.198 114.601 309.898C102.701 301.398 86.5008 302.098 75.4008 311.598C61.0008 323.498 42.9007 332.598 24.8008 336.798C7.60075 340.798 -3.09925 357.998 0.900752 375.198C4.90075 392.398 22.1007 403.098 39.3008 399.098C63.8008 393.398 84.2008 382.598 97.5008 374.098C126.501 389.698 159.001 399.998 192.001 399.998C223.901 399.998 252.601 390.098 272.401 381.098C278.201 378.398 283.501 375.798 288.001 373.398C292.501 375.798 297.701 378.498 303.601 381.098C323.401 390.098 352.101 399.998 384.001 399.998C417.001 399.998 449.501 389.698 478.501 374.198C491.901 382.598 512.201 393.498 536.701 399.198C553.901 403.198 571.101 392.498 575.101 375.298C579.101 358.098 568.401 340.898 551.201 336.898C533.101 332.698 515.001 323.598 500.601 311.698C489.501 302.198 473.301 301.598 461.401 309.998C439.401 325.198 410.901 335.998 384.001 335.998C356.501 335.998 329.001 325.398 306.501 309.898C295.401 301.998 280.601 301.998 269.501 309.898ZM384.001 447.998C356.501 447.998 329.001 437.398 306.501 421.898C295.401 413.998 280.601 413.998 269.501 421.898C247.001 437.398 219.501 447.998 192.001 447.998C165.101 447.998 136.701 437.198 114.601 421.898C102.701 413.398 86.5008 414.098 75.4008 423.598C61.0008 435.498 42.9007 444.598 24.8008 448.798C7.60075 452.798 -3.09925 469.998 0.900752 487.198C4.90075 504.398 22.1007 515.098 39.3008 511.098C63.8008 505.398 84.2008 494.598 97.5008 486.098C126.501 501.698 159.001 511.998 192.001 511.998C223.901 511.998 252.601 502.098 272.401 493.098C278.201 490.398 283.501 487.798 288.001 485.398C292.501 487.798 297.701 490.498 303.601 493.098C323.401 502.098 352.101 511.998 384.001 511.998C417.001 511.998 449.501 501.698 478.501 486.198C491.901 494.598 512.201 505.498 536.701 511.198C553.901 515.198 571.101 504.498 575.101 487.298C579.101 470.098 568.401 452.898 551.201 448.898C533.101 444.698 515.001 435.598 500.601 423.698C489.501 414.298 473.301 413.598 461.401 421.998C439.401 437.198 410.901 447.998 384.001 447.998Z" fill="black"/>
</g>
</g>
</g>
</g>
</g>
</g>
</g>
</g>
</g>
</g>
</g>
</g>
</g>
</g>
</g>
<defs>
<clipPath id="clip0_3932_27653">
<rect width="576" height="512" fill="white"/>
</clipPath>
</defs>
</svg>
