<svg width="640" height="512" viewBox="0 0 640 512" fill="none" xmlns="http://www.w3.org/2000/svg">
<g clip-path="url(#clip0_3932_27421)">
<mask id="mask0_3932_27421" style="mask-type:luminance" maskUnits="userSpaceOnUse" x="0" y="0" width="640" height="512">
<path d="M640 0H0V512H640V0Z" fill="white"/>
</mask>
<g mask="url(#mask0_3932_27421)">
<mask id="mask1_3932_27421" style="mask-type:luminance" maskUnits="userSpaceOnUse" x="0" y="0" width="640" height="512">
<path d="M640 0H0V512H640V0Z" fill="white"/>
</mask>
<g mask="url(#mask1_3932_27421)">
<mask id="mask2_3932_27421" style="mask-type:luminance" maskUnits="userSpaceOnUse" x="0" y="0" width="640" height="512">
<path d="M640 0H0V512H640V0Z" fill="white"/>
</mask>
<g mask="url(#mask2_3932_27421)">
<mask id="mask3_3932_27421" style="mask-type:luminance" maskUnits="userSpaceOnUse" x="0" y="0" width="640" height="512">
<path d="M640 0H0V512H640V0Z" fill="white"/>
</mask>
<g mask="url(#mask3_3932_27421)">
<mask id="mask4_3932_27421" style="mask-type:luminance" maskUnits="userSpaceOnUse" x="0" y="0" width="640" height="512">
<path d="M640 0H0V512H640V0Z" fill="white"/>
</mask>
<g mask="url(#mask4_3932_27421)">
<mask id="mask5_3932_27421" style="mask-type:luminance" maskUnits="userSpaceOnUse" x="0" y="0" width="640" height="512">
<path d="M640 0H0V512H640V0Z" fill="white"/>
</mask>
<g mask="url(#mask5_3932_27421)">
<mask id="mask6_3932_27421" style="mask-type:luminance" maskUnits="userSpaceOnUse" x="0" y="0" width="640" height="512">
<path d="M640 0H0V512H640V0Z" fill="white"/>
</mask>
<g mask="url(#mask6_3932_27421)">
<mask id="mask7_3932_27421" style="mask-type:luminance" maskUnits="userSpaceOnUse" x="0" y="0" width="640" height="512">
<path d="M640 0H0V512H640V0Z" fill="white"/>
</mask>
<g mask="url(#mask7_3932_27421)">
<mask id="mask8_3932_27421" style="mask-type:luminance" maskUnits="userSpaceOnUse" x="0" y="0" width="640" height="512">
<path d="M640 0H0V512H640V0Z" fill="white"/>
</mask>
<g mask="url(#mask8_3932_27421)">
<mask id="mask9_3932_27421" style="mask-type:luminance" maskUnits="userSpaceOnUse" x="0" y="0" width="640" height="512">
<path d="M640 0H0V512H640V0Z" fill="white"/>
</mask>
<g mask="url(#mask9_3932_27421)">
<mask id="mask10_3932_27421" style="mask-type:luminance" maskUnits="userSpaceOnUse" x="0" y="0" width="640" height="512">
<path d="M640 0H0V512H640V0Z" fill="white"/>
</mask>
<g mask="url(#mask10_3932_27421)">
<mask id="mask11_3932_27421" style="mask-type:luminance" maskUnits="userSpaceOnUse" x="0" y="0" width="640" height="512">
<path d="M640 0H0V512H640V0Z" fill="white"/>
</mask>
<g mask="url(#mask11_3932_27421)">
<mask id="mask12_3932_27421" style="mask-type:luminance" maskUnits="userSpaceOnUse" x="0" y="0" width="640" height="512">
<path d="M640 0H0V512H640V0Z" fill="white"/>
</mask>
<g mask="url(#mask12_3932_27421)">
<mask id="mask13_3932_27421" style="mask-type:luminance" maskUnits="userSpaceOnUse" x="0" y="0" width="640" height="512">
<path d="M640 0H0V512H640V0Z" fill="white"/>
</mask>
<g mask="url(#mask13_3932_27421)">
<path d="M320.7 352C328.8 262.3 404.2 192 496 192C504.9 192 513.6 192.7 522.1 193.9L309.5 7C303.5 2 295.5 0 288.5 0C281.5 0 273.5 1 266.5 8L10 231.5C3 238.5 0 246.5 0 255.5C0 273.5 14 287.6 32 287.6H64V357.3C63.9 358.2 63.9 359.1 63.9 360.1V472C63.9 494.1 81.8 512 103.9 512H119.9C121.1 512 122.3 511.9 123.5 511.8C125 511.9 126.5 512 128 512H160H184C206.1 512 224 494.1 224 472V448V384C224 366.3 238.3 352 256 352H320H320.7ZM496 512C534.191 512 570.818 496.829 597.823 469.823C624.829 442.818 640 406.191 640 368C640 329.809 624.829 293.182 597.823 266.177C570.818 239.171 534.191 224 496 224C457.809 224 421.182 239.171 394.177 266.177C367.171 293.182 352 329.809 352 368C352 406.191 367.171 442.818 394.177 469.823C421.182 496.829 457.809 512 496 512ZM555.3 331.3L518.6 368L555.3 404.7C561.5 410.9 561.5 421.1 555.3 427.3C549.1 433.5 538.9 433.5 532.7 427.3L496 390.6L459.3 427.3C453.1 433.5 442.9 433.5 436.7 427.3C430.5 421.1 430.5 410.9 436.7 404.7L473.4 368L436.7 331.3C430.5 325.1 430.5 314.9 436.7 308.7C442.9 302.5 453.1 302.5 459.3 308.7L496 345.4L532.7 308.7C538.9 302.5 549.1 302.5 555.3 308.7C561.5 314.9 561.5 325.1 555.3 331.3Z" fill="black"/>
</g>
</g>
</g>
</g>
</g>
</g>
</g>
</g>
</g>
</g>
</g>
</g>
</g>
</g>
</g>
<defs>
<clipPath id="clip0_3932_27421">
<rect width="640" height="512" fill="white"/>
</clipPath>
</defs>
</svg>
