<svg width="576" height="512" viewBox="0 0 576 512" fill="none" xmlns="http://www.w3.org/2000/svg">
<g clip-path="url(#clip0_3932_27015)">
<mask id="mask0_3932_27015" style="mask-type:luminance" maskUnits="userSpaceOnUse" x="0" y="0" width="576" height="512">
<path d="M576 0H0V512H576V0Z" fill="white"/>
</mask>
<g mask="url(#mask0_3932_27015)">
<mask id="mask1_3932_27015" style="mask-type:luminance" maskUnits="userSpaceOnUse" x="0" y="0" width="576" height="512">
<path d="M576 0H0V512H576V0Z" fill="white"/>
</mask>
<g mask="url(#mask1_3932_27015)">
<mask id="mask2_3932_27015" style="mask-type:luminance" maskUnits="userSpaceOnUse" x="0" y="0" width="576" height="512">
<path d="M576 0H0V512H576V0Z" fill="white"/>
</mask>
<g mask="url(#mask2_3932_27015)">
<mask id="mask3_3932_27015" style="mask-type:luminance" maskUnits="userSpaceOnUse" x="0" y="0" width="576" height="512">
<path d="M576 0H0V512H576V0Z" fill="white"/>
</mask>
<g mask="url(#mask3_3932_27015)">
<mask id="mask4_3932_27015" style="mask-type:luminance" maskUnits="userSpaceOnUse" x="0" y="0" width="576" height="512">
<path d="M576 0H0V512H576V0Z" fill="white"/>
</mask>
<g mask="url(#mask4_3932_27015)">
<mask id="mask5_3932_27015" style="mask-type:luminance" maskUnits="userSpaceOnUse" x="0" y="0" width="576" height="512">
<path d="M576 0H0V512H576V0Z" fill="white"/>
</mask>
<g mask="url(#mask5_3932_27015)">
<mask id="mask6_3932_27015" style="mask-type:luminance" maskUnits="userSpaceOnUse" x="0" y="0" width="576" height="512">
<path d="M576 0H0V512H576V0Z" fill="white"/>
</mask>
<g mask="url(#mask6_3932_27015)">
<mask id="mask7_3932_27015" style="mask-type:luminance" maskUnits="userSpaceOnUse" x="0" y="0" width="576" height="512">
<path d="M576 0H0V512H576V0Z" fill="white"/>
</mask>
<g mask="url(#mask7_3932_27015)">
<mask id="mask8_3932_27015" style="mask-type:luminance" maskUnits="userSpaceOnUse" x="0" y="0" width="576" height="512">
<path d="M576 0H0V512H576V0Z" fill="white"/>
</mask>
<g mask="url(#mask8_3932_27015)">
<mask id="mask9_3932_27015" style="mask-type:luminance" maskUnits="userSpaceOnUse" x="0" y="0" width="576" height="512">
<path d="M576 0H0V512H576V0Z" fill="white"/>
</mask>
<g mask="url(#mask9_3932_27015)">
<mask id="mask10_3932_27015" style="mask-type:luminance" maskUnits="userSpaceOnUse" x="0" y="0" width="576" height="512">
<path d="M576 0H0V512H576V0Z" fill="white"/>
</mask>
<g mask="url(#mask10_3932_27015)">
<mask id="mask11_3932_27015" style="mask-type:luminance" maskUnits="userSpaceOnUse" x="0" y="0" width="576" height="512">
<path d="M576 0H0V512H576V0Z" fill="white"/>
</mask>
<g mask="url(#mask11_3932_27015)">
<mask id="mask12_3932_27015" style="mask-type:luminance" maskUnits="userSpaceOnUse" x="0" y="0" width="576" height="512">
<path d="M576 0H0V512H576V0Z" fill="white"/>
</mask>
<g mask="url(#mask12_3932_27015)">
<mask id="mask13_3932_27015" style="mask-type:luminance" maskUnits="userSpaceOnUse" x="0" y="0" width="576" height="512">
<path d="M576 0H0V512H576V0Z" fill="white"/>
</mask>
<g mask="url(#mask13_3932_27015)">
<path d="M543.8 287.6C560.8 287.6 575.8 273.6 575.8 255.5C576.8 246.5 572.8 238.5 564.8 231.5L512 185V64C512 46.3 497.7 32 480 32H448C430.3 32 416 46.3 416 64V100.7L309.5 7C303.5 2 295.5 0 288.5 0C281.5 0 273.5 1 266.5 8L10 231.5C3 238.5 0 246.5 0 255.5C0 273.5 14 287.6 32 287.6H64V357.3C63.9 358.2 63.9 359.1 63.9 360.1V472C63.9 494.1 81.8 512 103.9 512H119.9C121.1 512 122.3 511.9 123.5 511.8C125 511.9 126.5 512 128 512H160H184C206.1 512 224 494.1 224 472V448V384C224 366.3 238.3 352 256 352H320C337.7 352 352 366.3 352 384V448V472C352 494.1 369.9 512 392 512H416H448.5C449.9 512 451.3 512 452.7 511.9C453.8 512 454.9 512 456 512H472C494.1 512 512 494.1 512 472V455.8C512.3 453.2 512.5 450.5 512.5 447.7L511.8 287.5H543.8V287.6Z" fill="black"/>
</g>
</g>
</g>
</g>
</g>
</g>
</g>
</g>
</g>
</g>
</g>
</g>
</g>
</g>
</g>
<defs>
<clipPath id="clip0_3932_27015">
<rect width="576" height="512" fill="white"/>
</clipPath>
</defs>
</svg>
