<svg width="576" height="512" viewBox="0 0 576 512" fill="none" xmlns="http://www.w3.org/2000/svg">
<g clip-path="url(#clip0_3932_27885)">
<mask id="mask0_3932_27885" style="mask-type:luminance" maskUnits="userSpaceOnUse" x="0" y="0" width="576" height="512">
<path d="M576 0H0V512H576V0Z" fill="white"/>
</mask>
<g mask="url(#mask0_3932_27885)">
<mask id="mask1_3932_27885" style="mask-type:luminance" maskUnits="userSpaceOnUse" x="0" y="0" width="576" height="512">
<path d="M576 0H0V512H576V0Z" fill="white"/>
</mask>
<g mask="url(#mask1_3932_27885)">
<mask id="mask2_3932_27885" style="mask-type:luminance" maskUnits="userSpaceOnUse" x="0" y="0" width="576" height="512">
<path d="M576 0H0V512H576V0Z" fill="white"/>
</mask>
<g mask="url(#mask2_3932_27885)">
<mask id="mask3_3932_27885" style="mask-type:luminance" maskUnits="userSpaceOnUse" x="0" y="0" width="576" height="512">
<path d="M576 0H0V512H576V0Z" fill="white"/>
</mask>
<g mask="url(#mask3_3932_27885)">
<mask id="mask4_3932_27885" style="mask-type:luminance" maskUnits="userSpaceOnUse" x="0" y="0" width="576" height="512">
<path d="M576 0H0V512H576V0Z" fill="white"/>
</mask>
<g mask="url(#mask4_3932_27885)">
<mask id="mask5_3932_27885" style="mask-type:luminance" maskUnits="userSpaceOnUse" x="0" y="0" width="576" height="512">
<path d="M576 0H0V512H576V0Z" fill="white"/>
</mask>
<g mask="url(#mask5_3932_27885)">
<mask id="mask6_3932_27885" style="mask-type:luminance" maskUnits="userSpaceOnUse" x="0" y="0" width="576" height="512">
<path d="M576 0H0V512H576V0Z" fill="white"/>
</mask>
<g mask="url(#mask6_3932_27885)">
<mask id="mask7_3932_27885" style="mask-type:luminance" maskUnits="userSpaceOnUse" x="0" y="0" width="576" height="512">
<path d="M576 0H0V512H576V0Z" fill="white"/>
</mask>
<g mask="url(#mask7_3932_27885)">
<mask id="mask8_3932_27885" style="mask-type:luminance" maskUnits="userSpaceOnUse" x="0" y="0" width="576" height="512">
<path d="M576 0H0V512H576V0Z" fill="white"/>
</mask>
<g mask="url(#mask8_3932_27885)">
<mask id="mask9_3932_27885" style="mask-type:luminance" maskUnits="userSpaceOnUse" x="0" y="0" width="576" height="512">
<path d="M576 0H0V512H576V0Z" fill="white"/>
</mask>
<g mask="url(#mask9_3932_27885)">
<mask id="mask10_3932_27885" style="mask-type:luminance" maskUnits="userSpaceOnUse" x="0" y="0" width="576" height="512">
<path d="M576 0H0V512H576V0Z" fill="white"/>
</mask>
<g mask="url(#mask10_3932_27885)">
<mask id="mask11_3932_27885" style="mask-type:luminance" maskUnits="userSpaceOnUse" x="0" y="0" width="576" height="512">
<path d="M576 0H0V512H576V0Z" fill="white"/>
</mask>
<g mask="url(#mask11_3932_27885)">
<mask id="mask12_3932_27885" style="mask-type:luminance" maskUnits="userSpaceOnUse" x="0" y="0" width="576" height="512">
<path d="M576 0H0V512H576V0Z" fill="white"/>
</mask>
<g mask="url(#mask12_3932_27885)">
<mask id="mask13_3932_27885" style="mask-type:luminance" maskUnits="userSpaceOnUse" x="0" y="0" width="576" height="512">
<path d="M576 0H0V512H576V0Z" fill="white"/>
</mask>
<g mask="url(#mask13_3932_27885)">
<path d="M543.8 287.6C560.8 287.6 575.8 273.6 575.8 255.5C576.8 246.5 572.8 238.5 564.8 231.5L309.5 7C303.5 2 295.5 0 288.5 0C281.5 0 273.5 1 266.5 8L10 231.5C3 238.5 0 246.5 0 255.5C0 273.5 14 287.6 32 287.6H64V448C64 483.3 92.7 512 128 512H448.5C484 512 512.7 483.2 512.5 447.7L511.8 287.5H543.8V287.6ZM256 208C256 199.2 263.2 192 272 192H304C312.8 192 320 199.2 320 208V256H368C376.8 256 384 263.2 384 272V304C384 312.8 376.8 320 368 320H320V368C320 376.8 312.8 384 304 384H272C263.2 384 256 376.8 256 368V320H208C199.2 320 192 312.8 192 304V272C192 263.2 199.2 256 208 256H256V208Z" fill="black"/>
</g>
</g>
</g>
</g>
</g>
</g>
</g>
</g>
</g>
</g>
</g>
</g>
</g>
</g>
</g>
<defs>
<clipPath id="clip0_3932_27885">
<rect width="576" height="512" fill="white"/>
</clipPath>
</defs>
</svg>
