<svg width="384" height="512" viewBox="0 0 384 512" fill="none" xmlns="http://www.w3.org/2000/svg">
<path d="M121.9 116.198C138.3 103.098 158.7 95.9984 179.6 95.9984H223C250.1 95.9984 272 117.898 272 144.998C272 156.498 268 167.398 260.9 175.998H32C14.3 175.998 0 190.298 0 207.998C0 225.698 14.3 239.998 32 239.998H155.5L104.9 268.898C103.2 269.898 101.5 270.898 99.8 271.998H32C14.3 271.998 0 286.298 0 303.998C0 321.698 14.3 335.998 32 335.998H52.3C49.5 345.898 48 356.398 48 366.998C48 429.398 98.6 479.998 161 479.998H204.4C239.9 479.998 274.4 467.898 302.1 445.698L308 440.998C321.8 429.998 324 409.798 313 395.998C302 382.198 281.8 379.998 268 390.998L262.1 395.698C245.7 408.798 225.4 415.898 204.4 415.898H161C133.9 415.898 112 393.998 112 366.898C112 355.398 116 344.498 123.1 335.898H352C369.7 335.898 384 321.598 384 303.898C384 286.198 369.7 271.898 352 271.898H228.5L279.1 242.998C280.8 241.998 282.5 240.998 284.2 239.898H352C369.7 239.898 384 225.598 384 207.898C384 190.198 369.7 175.898 352 175.898H331.7C334.5 165.898 336 155.498 336 144.898C336 82.4984 285.4 31.8984 223 31.8984H179.6C144.1 31.8984 109.6 43.9984 81.9 66.1984L76 70.9984C62.2 81.9984 60 102.198 71 115.998C82 129.798 102.2 131.998 116 120.998L121.9 116.298V116.198Z" fill="black"/>
</svg>
