<svg width="512" height="512" viewBox="0 0 512 512" fill="none" xmlns="http://www.w3.org/2000/svg">
<path d="M267.403 211.6C242.303 235.3 226.603 268.9 226.603 306.2C226.603 335.5 236.303 362.5 252.603 384.2L203.103 434C198.703 432.4 194.003 431.5 189.103 431.5C178.303 431.5 168.203 435.7 160.603 443.3C153.003 450.9 148.803 461.1 148.803 471.9C148.803 482.7 153.003 492.8 160.603 500.4C168.203 508 178.403 512 189.103 512C199.903 512 210.003 508.1 217.703 500.4C225.303 492.8 229.503 482.6 229.503 471.9C229.503 467.7 228.903 463.7 227.603 459.8L277.603 409.6C299.603 426.5 327.003 436.5 356.903 436.5C428.803 436.5 486.903 378.2 486.903 306.3C486.903 241.1 439.203 187.1 376.703 177.6V116C394.203 108.6 404.903 92.2 404.903 73.1C404.903 47 384.003 25.2 357.903 25.2C331.803 25.2 311.203 47 311.203 73.1C311.203 92.2 321.903 108.6 339.403 116V177.2C324.203 179.3 309.803 183.9 296.703 190.8C269.103 169.9 179.203 105.1 127.803 66C129.003 61.6 129.803 57 129.803 52.2C129.803 23.4 106.303 0 77.4031 0C48.6031 0 25.2031 23.4 25.2031 52.2C25.2031 81.1 48.6031 104.5 77.4031 104.5C87.2031 104.5 96.3031 101.6 104.203 96.9L267.403 211.6ZM356.903 375.2C318.803 375.2 287.903 344.3 287.903 306.2C287.903 268.1 318.803 237.2 356.903 237.2C395.003 237.2 425.903 268.1 425.903 306.2C425.903 344.3 395.003 375.2 356.903 375.2Z" fill="black"/>
</svg>
