<svg width="576" height="512" viewBox="0 0 576 512" fill="none" xmlns="http://www.w3.org/2000/svg">
<path d="M320 33.8V160H48.5C100.2 82.8 188.1 32 288 32C298.8 32 309.5 32.6 320 33.8ZM352 160V39.1C424.9 55.7 487.2 99.8 527.5 160H352ZM29.9 192H96V320H0C0 274 10.8 230.6 29.9 192ZM192 320H128V192H448V320H384V352H576V432C576 458.5 554.5 480 528 480H352V352C352 316.7 323.3 288 288 288C252.7 288 224 316.7 224 352V480H48C21.5 480 0 458.5 0 432V352H192V320ZM480 320V192H546.1C565.3 230.6 576 274 576 320H480Z" fill="black"/>
</svg>
