<svg width="576" height="512" viewBox="0 0 576 512" fill="none" xmlns="http://www.w3.org/2000/svg">
<path d="M160 80H512C520.8 80 528 87.2 528 96V320C528 328.8 520.8 336 512 336H490.8L388.1 178.9C383.7 172.1 376.1 168 368 168C359.9 168 352.3 172.1 347.9 178.9L295.7 258.7L283.3 241.8C278.8 235.6 271.6 232 263.9 232C256.2 232 249.1 235.6 244.5 241.8L175.6 336H160C151.2 336 144 328.8 144 320V96C144 87.2 151.2 80 160 80ZM96 96V320C96 355.3 124.7 384 160 384H512C547.3 384 576 355.3 576 320V96C576 60.7 547.3 32 512 32H160C124.7 32 96 60.7 96 96ZM48 120C48 106.7 37.3 96 24 96C10.7 96 0 106.7 0 120V344C0 419.1 60.9 480 136 480H456C469.3 480 480 469.3 480 456C480 442.7 469.3 432 456 432H136C87.4 432 48 392.6 48 344V120ZM256 144C256 135.513 252.629 127.374 246.627 121.373C240.626 115.371 232.487 112 224 112C215.513 112 207.374 115.371 201.373 121.373C195.371 127.374 192 135.513 192 144C192 152.487 195.371 160.626 201.373 166.627C207.374 172.629 215.513 176 224 176C232.487 176 240.626 172.629 246.627 166.627C252.629 160.626 256 152.487 256 144Z" fill="black"/>
</svg>
