<svg width="448" height="512" viewBox="0 0 448 512" fill="none" xmlns="http://www.w3.org/2000/svg">
<path d="M89.5 323.602H53.93V186.202H89.5V323.602ZM156.1 250.502L165.2 186.202H211.5V323.602H180.5V230.902L167.1 323.602H145.8L132.8 232.902L132.7 323.602H101.5V186.202H147.6C148.1 194.502 150.4 204.302 151.9 215.602L156.1 250.502ZM223.7 323.602V186.202H250.3C267.3 186.202 277.3 187.102 283.3 188.602C289.4 190.302 294 192.802 297.2 196.502C300.3 199.802 302.3 203.102 303 208.502C303.9 212.902 304.4 221.602 304.4 234.702V282.902C304.4 295.202 303.7 303.402 302.5 307.602C301.4 311.702 299.4 315.002 296.5 317.302C293.7 319.702 290.1 321.402 285.8 322.302C281.6 323.102 275.2 323.602 266.7 323.602H223.7ZM259.2 209.702V299.102C264.3 299.102 267.5 298.102 268.6 296.802C269.7 294.802 270.4 289.202 270.4 280.102V226.802C270.4 220.602 270.3 216.602 269.7 214.802C269.4 213.002 268.5 211.802 267.1 210.102C265.7 210.102 263 209.702 259.2 209.702ZM316.5 323.602V186.202H350.6V230.102C353.5 227.702 356.7 225.202 360.1 223.502C363.7 222.002 368.9 221.102 372.9 221.102C377.7 221.102 381.8 221.902 385.2 223.302C388.6 224.802 391.2 226.802 393.2 229.502C394.9 232.102 395.9 234.802 396.3 237.302C396.7 239.902 396.1 245.302 396.1 253.502V292.102C396.1 300.302 396.3 306.402 395.3 310.502C394.2 314.502 391.5 318.102 387.5 320.102C383.4 324.002 378.6 325.402 372.9 325.402C368.9 325.402 363.7 324.502 360.2 322.902C356.7 321.102 353.5 318.402 350.6 314.902L348.5 323.602H316.5ZM361.6 302.902C362.3 301.102 362.6 296.902 362.6 290.402V255.002C362.6 249.402 362.3 245.502 361.5 243.802C360.8 241.902 357.8 241.102 355.7 241.102C353.7 241.102 352.3 241.902 351.6 243.402C351 244.902 350.6 248.802 350.6 255.002V291.402C350.6 297.502 351 301.402 351.8 303.002C352.4 304.702 353.9 305.502 355.9 305.502C358.1 305.502 360.1 304.702 361.6 302.902ZM418.4 32.0416C434.1 33.2716 447.1 47.2816 447.1 63.9216V448.102C447.1 464.502 435.2 478.502 418.9 479.102C418.6 479.102 418.4 480.002 418.1 480.002H29.88C29.6 480.002 29.32 479.102 29.04 479.902C13.31 478.502 1.093 466.102 0 449.702L0.0186 61.7816C1.081 45.8816 13.82 33.0916 30.26 31.1016H417.7C417.9 31.1016 418.2 32.0116 418.4 32.0416ZM30.27 41.2616C19 42.0116 10.02 51.0116 9.257 62.4016V449.702C9.63 455.102 11.91 460.202 15.7 464.002C19.48 467.902 24.51 470.302 29.89 470.702H418.1C429.6 469.702 438.7 459.102 438.7 448.102V63.9116C438.7 58.1716 436.6 52.6516 432.7 48.4516C428.8 44.2416 423.4 41.6716 417.7 41.2616H30.27Z" fill="black"/>
</svg>
