<svg width="512" height="512" viewBox="0 0 512 512" fill="none" xmlns="http://www.w3.org/2000/svg">
<path d="M121 32C91.6 32 66 52 58.9 80.5L1.9 308.4C0.6 313.5 0 318.7 0 323.9V416C0 451.3 28.7 480 64 480H448C483.3 480 512 451.3 512 416V323.9C512 318.7 511.4 313.5 510.1 308.4L453.1 80.5C446 52 420.4 32 391 32H121ZM121 96H391L439 288H387.8C375.7 288 364.6 294.8 359.2 305.7L344.9 334.3C339.5 345.1 328.4 352 316.3 352H195.8C183.7 352 172.6 345.2 167.2 334.3L152.9 305.7C147.5 294.9 136.4 288 124.3 288H73L121 96Z" fill="black"/>
</svg>
