<svg width="192" height="512" viewBox="0 0 192 512" fill="none" xmlns="http://www.w3.org/2000/svg">
<path d="M48 80C48 67.2696 53.0571 55.0606 62.0589 46.0589C71.0606 37.0571 83.2696 32 96 32C108.73 32 120.939 37.0571 129.941 46.0589C138.943 55.0606 144 67.2696 144 80C144 92.7304 138.943 104.939 129.941 113.941C120.939 122.943 108.73 128 96 128C83.2696 128 71.0606 122.943 62.0589 113.941C53.0571 104.939 48 92.7304 48 80ZM0 224C0 206.3 14.3 192 32 192H96C113.7 192 128 206.3 128 224V448H160C177.7 448 192 462.3 192 480C192 497.7 177.7 512 160 512H32C14.3 512 0 497.7 0 480C0 462.3 14.3 448 32 448H64V256H32C14.3 256 0 241.7 0 224Z" fill="black"/>
</svg>
