<svg width="448" height="512" viewBox="0 0 448 512" fill="none" xmlns="http://www.w3.org/2000/svg">
<g clip-path="url(#clip0_3932_28856)">
<mask id="mask0_3932_28856" style="mask-type:luminance" maskUnits="userSpaceOnUse" x="0" y="0" width="448" height="512">
<path d="M448 0H0V512H448V0Z" fill="white"/>
</mask>
<g mask="url(#mask0_3932_28856)">
<mask id="mask1_3932_28856" style="mask-type:luminance" maskUnits="userSpaceOnUse" x="0" y="0" width="448" height="512">
<path d="M448 0H0V512H448V0Z" fill="white"/>
</mask>
<g mask="url(#mask1_3932_28856)">
<mask id="mask2_3932_28856" style="mask-type:luminance" maskUnits="userSpaceOnUse" x="0" y="0" width="448" height="512">
<path d="M448 0H0V512H448V0Z" fill="white"/>
</mask>
<g mask="url(#mask2_3932_28856)">
<mask id="mask3_3932_28856" style="mask-type:luminance" maskUnits="userSpaceOnUse" x="0" y="0" width="448" height="512">
<path d="M448 0H0V512H448V0Z" fill="white"/>
</mask>
<g mask="url(#mask3_3932_28856)">
<mask id="mask4_3932_28856" style="mask-type:luminance" maskUnits="userSpaceOnUse" x="0" y="0" width="448" height="512">
<path d="M448 0H0V512H448V0Z" fill="white"/>
</mask>
<g mask="url(#mask4_3932_28856)">
<mask id="mask5_3932_28856" style="mask-type:luminance" maskUnits="userSpaceOnUse" x="0" y="0" width="448" height="512">
<path d="M448 0H0V512H448V0Z" fill="white"/>
</mask>
<g mask="url(#mask5_3932_28856)">
<mask id="mask6_3932_28856" style="mask-type:luminance" maskUnits="userSpaceOnUse" x="0" y="0" width="448" height="512">
<path d="M448 0H0V512H448V0Z" fill="white"/>
</mask>
<g mask="url(#mask6_3932_28856)">
<mask id="mask7_3932_28856" style="mask-type:luminance" maskUnits="userSpaceOnUse" x="0" y="0" width="448" height="512">
<path d="M448 0H0V512H448V0Z" fill="white"/>
</mask>
<g mask="url(#mask7_3932_28856)">
<mask id="mask8_3932_28856" style="mask-type:luminance" maskUnits="userSpaceOnUse" x="0" y="0" width="448" height="512">
<path d="M448 0H0V512H448V0Z" fill="white"/>
</mask>
<g mask="url(#mask8_3932_28856)">
<mask id="mask9_3932_28856" style="mask-type:luminance" maskUnits="userSpaceOnUse" x="0" y="0" width="448" height="512">
<path d="M448 0H0V512H448V0Z" fill="white"/>
</mask>
<g mask="url(#mask9_3932_28856)">
<mask id="mask10_3932_28856" style="mask-type:luminance" maskUnits="userSpaceOnUse" x="0" y="0" width="448" height="512">
<path d="M448 0H0V512H448V0Z" fill="white"/>
</mask>
<g mask="url(#mask10_3932_28856)">
<mask id="mask11_3932_28856" style="mask-type:luminance" maskUnits="userSpaceOnUse" x="0" y="0" width="448" height="512">
<path d="M448 0H0V512H448V0Z" fill="white"/>
</mask>
<g mask="url(#mask11_3932_28856)">
<mask id="mask12_3932_28856" style="mask-type:luminance" maskUnits="userSpaceOnUse" x="0" y="0" width="448" height="512">
<path d="M448 0H0V512H448V0Z" fill="white"/>
</mask>
<g mask="url(#mask12_3932_28856)">
<mask id="mask13_3932_28856" style="mask-type:luminance" maskUnits="userSpaceOnUse" x="0" y="0" width="448" height="512">
<path d="M448 0H0V512H448V0Z" fill="white"/>
</mask>
<g mask="url(#mask13_3932_28856)">
<path d="M224.097 141.003C160.497 141.003 109.197 192.303 109.197 255.903C109.197 319.503 160.497 370.803 224.097 370.803C287.697 370.803 338.997 319.503 338.997 255.903C338.997 192.303 287.697 141.003 224.097 141.003ZM224.097 330.603C182.997 330.603 149.397 297.103 149.397 255.903C149.397 214.703 182.897 181.203 224.097 181.203C265.297 181.203 298.797 214.703 298.797 255.903C298.797 297.103 265.197 330.603 224.097 330.603ZM370.497 136.303C370.497 151.203 358.497 163.103 343.697 163.103C328.797 163.103 316.897 151.103 316.897 136.303C316.897 121.503 328.897 109.503 343.697 109.503C358.497 109.503 370.497 121.503 370.497 136.303ZM446.597 163.503C444.897 127.603 436.697 95.8031 410.397 69.6031C384.197 43.4031 352.397 35.2031 316.497 33.4031C279.497 31.3031 168.597 31.3031 131.597 33.4031C95.7969 35.1031 63.9969 43.3031 37.6969 69.5031C11.3969 95.7031 3.29688 127.503 1.49687 163.403C-0.603123 200.403 -0.603123 311.303 1.49687 348.303C3.19688 384.203 11.3969 416.003 37.6969 442.203C63.9969 468.403 95.6969 476.603 131.597 478.403C168.597 480.503 279.497 480.503 316.497 478.403C352.397 476.703 384.197 468.503 410.397 442.203C436.597 416.003 444.797 384.203 446.597 348.303C448.697 311.303 448.697 200.503 446.597 163.503ZM398.797 388.003C390.997 407.603 375.897 422.703 356.197 430.603C326.697 442.303 256.697 439.603 224.097 439.603C191.497 439.603 121.397 442.203 91.9969 430.603C72.3969 422.803 57.2969 407.703 49.3969 388.003C37.6969 358.503 40.3969 288.503 40.3969 255.903C40.3969 223.303 37.7969 153.203 49.3969 123.803C57.1969 104.203 72.2969 89.1031 91.9969 81.2031C121.497 69.5031 191.497 72.2031 224.097 72.2031C256.697 72.2031 326.797 69.6031 356.197 81.2031C375.797 89.0031 390.897 104.103 398.797 123.803C410.497 153.303 407.797 223.303 407.797 255.903C407.797 288.503 410.497 358.603 398.797 388.003Z" fill="black"/>
</g>
</g>
</g>
</g>
</g>
</g>
</g>
</g>
</g>
</g>
</g>
</g>
</g>
</g>
</g>
<defs>
<clipPath id="clip0_3932_28856">
<rect width="448" height="512" fill="white"/>
</clipPath>
</defs>
</svg>
