<svg width="640" height="512" viewBox="0 0 640 512" fill="none" xmlns="http://www.w3.org/2000/svg">
<path d="M616 160H548.7C511.2 70.7 422.9 8 320 8C183 8 72 119 72 256C72 272.4 73.6 288.5 76.7 304H24C10.7 304 0 314.8 0 328C0 341.3 10.7 352 24 352H91.3C128.8 441.3 217.1 504 320 504C457 504 568 393 568 256C568 239.6 566.4 223.5 563.3 208H616C629.3 208 640 197.2 640 184C640 170.7 629.3 160 616 160ZM520 256C520 366.5 430.5 456 320 456C244.3 456 178.4 414 144.5 352H424C437.3 352 448 341.2 448 328C448 314.7 437.3 304 424 304H125.8C122 288.6 120 272.6 120 256C120 145.5 209.5 56 320 56C395.7 56 461.6 98 495.5 160H216C202.7 160 192 170.8 192 184C192 197.3 202.7 208 216 208H514.2C518 223.4 520 239.4 520 256ZM216 232H424C437.3 232 448 242.7 448 256C448 269.2 437.3 280 424 280H216C202.7 280 192 269.3 192 256C192 242.8 202.7 232 216 232Z" fill="black"/>
</svg>
