<svg width="384" height="512" viewBox="0 0 384 512" fill="none" xmlns="http://www.w3.org/2000/svg">
<g clip-path="url(#clip0_3932_29162)">
<mask id="mask0_3932_29162" style="mask-type:luminance" maskUnits="userSpaceOnUse" x="0" y="0" width="384" height="512">
<path d="M384 0H0V512H384V0Z" fill="white"/>
</mask>
<g mask="url(#mask0_3932_29162)">
<mask id="mask1_3932_29162" style="mask-type:luminance" maskUnits="userSpaceOnUse" x="0" y="0" width="384" height="512">
<path d="M384 0H0V512H384V0Z" fill="white"/>
</mask>
<g mask="url(#mask1_3932_29162)">
<mask id="mask2_3932_29162" style="mask-type:luminance" maskUnits="userSpaceOnUse" x="0" y="0" width="384" height="512">
<path d="M384 0H0V512H384V0Z" fill="white"/>
</mask>
<g mask="url(#mask2_3932_29162)">
<mask id="mask3_3932_29162" style="mask-type:luminance" maskUnits="userSpaceOnUse" x="0" y="0" width="384" height="512">
<path d="M384 0H0V512H384V0Z" fill="white"/>
</mask>
<g mask="url(#mask3_3932_29162)">
<mask id="mask4_3932_29162" style="mask-type:luminance" maskUnits="userSpaceOnUse" x="0" y="0" width="384" height="512">
<path d="M384 0H0V512H384V0Z" fill="white"/>
</mask>
<g mask="url(#mask4_3932_29162)">
<mask id="mask5_3932_29162" style="mask-type:luminance" maskUnits="userSpaceOnUse" x="0" y="0" width="384" height="512">
<path d="M384 0H0V512H384V0Z" fill="white"/>
</mask>
<g mask="url(#mask5_3932_29162)">
<mask id="mask6_3932_29162" style="mask-type:luminance" maskUnits="userSpaceOnUse" x="0" y="0" width="384" height="512">
<path d="M384 0H0V512H384V0Z" fill="white"/>
</mask>
<g mask="url(#mask6_3932_29162)">
<mask id="mask7_3932_29162" style="mask-type:luminance" maskUnits="userSpaceOnUse" x="0" y="0" width="384" height="512">
<path d="M384 0H0V512H384V0Z" fill="white"/>
</mask>
<g mask="url(#mask7_3932_29162)">
<mask id="mask8_3932_29162" style="mask-type:luminance" maskUnits="userSpaceOnUse" x="0" y="0" width="384" height="512">
<path d="M384 0H0V512H384V0Z" fill="white"/>
</mask>
<g mask="url(#mask8_3932_29162)">
<mask id="mask9_3932_29162" style="mask-type:luminance" maskUnits="userSpaceOnUse" x="0" y="0" width="384" height="512">
<path d="M384 0H0V512H384V0Z" fill="white"/>
</mask>
<g mask="url(#mask9_3932_29162)">
<mask id="mask10_3932_29162" style="mask-type:luminance" maskUnits="userSpaceOnUse" x="0" y="0" width="384" height="512">
<path d="M384 0H0V512H384V0Z" fill="white"/>
</mask>
<g mask="url(#mask10_3932_29162)">
<mask id="mask11_3932_29162" style="mask-type:luminance" maskUnits="userSpaceOnUse" x="0" y="0" width="384" height="512">
<path d="M384 0H0V512H384V0Z" fill="white"/>
</mask>
<g mask="url(#mask11_3932_29162)">
<mask id="mask12_3932_29162" style="mask-type:luminance" maskUnits="userSpaceOnUse" x="0" y="0" width="384" height="512">
<path d="M384 0H0V512H384V0Z" fill="white"/>
</mask>
<g mask="url(#mask12_3932_29162)">
<mask id="mask13_3932_29162" style="mask-type:luminance" maskUnits="userSpaceOnUse" x="0" y="0" width="384" height="512">
<path d="M384 0H0V512H384V0Z" fill="white"/>
</mask>
<g mask="url(#mask13_3932_29162)">
<path d="M277.745 312.9C287.545 306.2 301.145 300.4 301.145 300.4C301.145 300.4 262.445 307.4 223.945 310.6C176.845 314.5 126.245 315.3 100.845 311.9C40.7453 303.9 133.845 281.8 133.845 281.8C133.845 281.8 97.7453 279.4 53.2453 300.8C0.745117 326.2 183.245 337.8 277.745 312.9ZM192.345 280.8C173.345 238.1 109.245 200.6 192.345 135C296.005 53.2 242.845 0 242.845 0C264.345 84.5 167.245 110.1 132.145 162.6C108.245 198.5 143.845 237 192.345 280.8ZM306.945 104.6C307.045 104.6 131.745 148.4 215.445 244.8C240.145 273.2 208.945 298.8 208.945 298.8C208.945 298.8 271.645 266.4 242.845 225.9C215.945 188.1 195.345 169.3 306.945 104.6ZM300.845 375.1C300.299 376.053 299.626 376.927 298.845 377.7C427.145 344 379.945 258.8 318.645 280.4C315.335 281.617 312.474 283.814 310.445 286.7C314.025 285.404 317.704 284.401 321.445 283.7C352.445 277.2 396.945 325.2 300.845 375.1ZM348.005 437.4C348.005 437.4 362.505 449.3 332.105 458.6C274.205 476.1 91.3053 481.4 40.5053 459.3C22.2053 451.4 56.5053 440.3 67.3053 438C78.5053 435.6 85.0053 436 85.0053 436C64.7053 421.7 -46.2947 464.1 28.6053 476.2C232.845 509.4 401.005 461.3 348.005 437.4ZM124.445 396C45.7453 418 172.345 463.4 272.545 420.5C262.773 416.703 253.339 412.087 244.345 406.7C199.645 415.2 178.945 415.8 138.345 411.2C104.845 407.4 124.445 396 124.445 396ZM304.245 493.2C225.545 508 128.445 506.3 70.9453 496.8C70.9453 496.7 82.7453 506.5 143.345 510.4C235.545 516.3 377.145 507.1 380.445 463.5C380.445 463.5 374.045 480 304.245 493.2ZM260.645 353C201.445 364.4 167.145 364.1 123.845 359.6C90.3453 356.1 112.245 339.9 112.245 339.9C25.4453 368.7 160.445 401.3 281.745 365.8C273.906 363.032 266.722 358.674 260.645 353Z" fill="black"/>
</g>
</g>
</g>
</g>
</g>
</g>
</g>
</g>
</g>
</g>
</g>
</g>
</g>
</g>
</g>
<defs>
<clipPath id="clip0_3932_29162">
<rect width="384" height="512" fill="white"/>
</clipPath>
</defs>
</svg>
