<svg width="576" height="512" viewBox="0 0 576 512" fill="none" xmlns="http://www.w3.org/2000/svg">
<path d="M246 315.7L224.8 283.8C222.7 280.6 223.1 276.4 225.8 273.7C228.5 271 232.7 270.6 235.9 272.7L265.4 292.4C267.5 293.8 270.3 292.4 270.4 289.8L279.7 8C279.8 3.5 283.5 0 288 0C292.5 0 296.1 3.5 296.3 8L305.7 289.9C305.8 292.4 308.6 293.8 310.7 292.5L340.2 272.8C343.4 270.7 347.6 271.1 350.3 273.8C353 276.5 353.4 280.7 351.3 283.9L330 315.7C328.7 317.6 329.8 320.2 332 320.6L369.6 328.1C373.3 328.8 376 332.1 376 335.9C376 339.7 373.3 343 369.6 343.7L332 351.4C329.8 351.8 328.7 354.4 330 356.3L351.2 388.2C353.3 391.4 352.9 395.6 350.2 398.3C347.5 401 343.3 401.4 340.1 399.3L313.8 381.7C311.6 380.3 308.7 381.9 308.8 384.5L310.9 446C370.6 435.2 416 382.9 416 320C416 283 400.3 249.6 375.2 226.3C368.2 219.8 368.7 207.7 376.2 201.9C410.1 175.5 432 134.3 432 88C432 71.2 429.1 55 423.8 40C419.2 27 434 10 445.2 18C498.7 56 537.9 112.8 553 178.7C553.5 180.8 552.8 183 551.3 184.6L522.9 213C518.9 217 521.7 223.9 527.4 223.9H553.4C556.8 223.9 559.6 226.5 559.7 229.9C559.8 233.2 559.9 236.5 559.9 239.9C559.9 257.4 558.2 274.6 555.1 291.2C554.9 292.4 554.2 293.6 553.4 294.5L506.9 341C502.9 345 505.7 351.9 511.4 351.9H526C530.6 351.9 533.7 356.7 531.7 360.9C487.2 450.5 394.8 512 288 512C181.2 512 88.8 450.5 44.3 361C42.2 356.8 45.3 352 50 352H64.5C70.2 352 73.1 345.1 69 341.1L22.6 294.6C21.7 293.7 21.1 292.6 20.9 291.3C17.7 274.7 16 257.5 16 240C16 236.7 16.1 233.3 16.2 230C16.3 226.6 19.1 224 22.5 224H48.5C54.2 224 57.1 217.1 53 213.1L24.6 184.6C23.1 183.1 22.4 180.8 22.9 178.7C38.1 112.8 77.3 56 130.8 18C142.1 10 156.8 26.9 152.2 40C146.9 55 144 71.2 144 88C144 134.3 165.9 175.5 199.8 201.9C207.3 207.7 207.8 219.8 200.8 226.3C175.7 249.6 160 283 160 320C160 382.9 205.4 435.2 265.1 446L267.2 384.5C267.3 381.9 264.4 380.3 262.2 381.7L235.9 399.3C232.7 401.4 228.5 401 225.8 398.3C223.1 395.6 222.7 391.4 224.8 388.2L246 356.3C247.3 354.4 246.2 351.8 244 351.4L206.4 343.9C202.7 343.2 200 339.9 200 336.1C200 332.3 202.7 329 206.4 328.3L244 320.8C246.2 320.4 247.3 317.8 246 315.9V315.7Z" fill="black"/>
</svg>
