<svg width="448" height="512" viewBox="0 0 448 512" fill="none" xmlns="http://www.w3.org/2000/svg">
<g clip-path="url(#clip0_3932_29632)">
<mask id="mask0_3932_29632" style="mask-type:luminance" maskUnits="userSpaceOnUse" x="0" y="0" width="448" height="512">
<path d="M448 0H0V512H448V0Z" fill="white"/>
</mask>
<g mask="url(#mask0_3932_29632)">
<mask id="mask1_3932_29632" style="mask-type:luminance" maskUnits="userSpaceOnUse" x="0" y="0" width="448" height="512">
<path d="M448 0H0V512H448V0Z" fill="white"/>
</mask>
<g mask="url(#mask1_3932_29632)">
<mask id="mask2_3932_29632" style="mask-type:luminance" maskUnits="userSpaceOnUse" x="0" y="0" width="448" height="512">
<path d="M448 0H0V512H448V0Z" fill="white"/>
</mask>
<g mask="url(#mask2_3932_29632)">
<mask id="mask3_3932_29632" style="mask-type:luminance" maskUnits="userSpaceOnUse" x="0" y="0" width="448" height="512">
<path d="M448 0H0V512H448V0Z" fill="white"/>
</mask>
<g mask="url(#mask3_3932_29632)">
<mask id="mask4_3932_29632" style="mask-type:luminance" maskUnits="userSpaceOnUse" x="0" y="0" width="448" height="512">
<path d="M448 0H0V512H448V0Z" fill="white"/>
</mask>
<g mask="url(#mask4_3932_29632)">
<mask id="mask5_3932_29632" style="mask-type:luminance" maskUnits="userSpaceOnUse" x="0" y="0" width="448" height="512">
<path d="M448 0H0V512H448V0Z" fill="white"/>
</mask>
<g mask="url(#mask5_3932_29632)">
<mask id="mask6_3932_29632" style="mask-type:luminance" maskUnits="userSpaceOnUse" x="0" y="0" width="448" height="512">
<path d="M448 0H0V512H448V0Z" fill="white"/>
</mask>
<g mask="url(#mask6_3932_29632)">
<mask id="mask7_3932_29632" style="mask-type:luminance" maskUnits="userSpaceOnUse" x="0" y="0" width="448" height="512">
<path d="M448 0H0V512H448V0Z" fill="white"/>
</mask>
<g mask="url(#mask7_3932_29632)">
<mask id="mask8_3932_29632" style="mask-type:luminance" maskUnits="userSpaceOnUse" x="0" y="0" width="448" height="512">
<path d="M448 0H0V512H448V0Z" fill="white"/>
</mask>
<g mask="url(#mask8_3932_29632)">
<mask id="mask9_3932_29632" style="mask-type:luminance" maskUnits="userSpaceOnUse" x="0" y="0" width="448" height="512">
<path d="M448 0H0V512H448V0Z" fill="white"/>
</mask>
<g mask="url(#mask9_3932_29632)">
<mask id="mask10_3932_29632" style="mask-type:luminance" maskUnits="userSpaceOnUse" x="0" y="0" width="448" height="512">
<path d="M448 0H0V512H448V0Z" fill="white"/>
</mask>
<g mask="url(#mask10_3932_29632)">
<mask id="mask11_3932_29632" style="mask-type:luminance" maskUnits="userSpaceOnUse" x="0" y="0" width="448" height="512">
<path d="M448 0H0V512H448V0Z" fill="white"/>
</mask>
<g mask="url(#mask11_3932_29632)">
<mask id="mask12_3932_29632" style="mask-type:luminance" maskUnits="userSpaceOnUse" x="0" y="0" width="448" height="512">
<path d="M448 0H0V512H448V0Z" fill="white"/>
</mask>
<g mask="url(#mask12_3932_29632)">
<mask id="mask13_3932_29632" style="mask-type:luminance" maskUnits="userSpaceOnUse" x="0" y="0" width="448" height="512">
<path d="M448 0H0V512H448V0Z" fill="white"/>
</mask>
<g mask="url(#mask13_3932_29632)">
<path d="M0.6 92.0984C0.6 58.7984 27.4 31.9984 60.4 31.9984C90.4 31.9984 114.9 53.8984 119.6 82.1984C152.2 74.5984 186.7 82.7984 216.1 112.198L171.8 156.498C151.3 135.998 129.2 140.198 116.4 152.998C102.1 167.298 102.1 190.898 116.4 205.198L215.9 304.698L171.9 348.998C84.2 261.798 122.2 299.298 72.1 249.298C45.3 222.798 37.1 184.498 47.3 150.398C20.4 144.598 0.6 120.698 0.6 92.0984ZM130.1 208.498L174.4 252.798C184.4 242.798 264.1 163.098 274.1 152.998C288.4 138.698 311.7 138.698 326 152.998C338.8 165.798 343 187.998 322.5 208.398L366.5 252.698C397.7 221.498 405 185.098 395.4 151.498C424.6 147.398 447.3 122.298 447.3 91.9984C447.3 58.7984 420.5 31.8984 387.5 31.8984C357.2 31.8984 332.1 54.3984 328 83.4984C294.2 73.5984 256.3 81.9984 229.7 108.598C211.4 127.698 158.6 180.098 130.1 208.498ZM396.4 360.698C404.6 327.998 395.5 292.198 370.1 266.798C358.3 254.598 375.1 271.498 270.6 167.098L226.3 211.398L326 311.098C340.3 325.398 340.3 348.698 326 362.998C313.2 375.798 291 379.998 270.6 359.498L226.6 403.798C254.2 433.998 294.6 442.598 329.3 431.798C334.8 459.198 359 479.898 388.2 479.898C421.2 479.898 448 453.098 448 419.798C448 389.598 425.5 364.798 396.4 360.698ZM312.1 307.598L268.1 263.298C181.1 349.698 217.7 313.698 168.4 363.098C154.1 377.398 130.8 377.398 116.5 363.098C103.4 349.698 99.6 327.798 119.7 307.698L75.7 263.398C45.5 293.598 37.7 328.598 46.2 361.698C19.5 367.698 0 391.598 0 419.898C0 453.198 26.8 479.998 59.8 479.998C88.4 479.998 112.3 460.198 118.4 433.298C151.1 441.498 186.9 432.698 212.6 407.298C244.7 375.298 224.8 394.898 312.1 307.598Z" fill="black"/>
</g>
</g>
</g>
</g>
</g>
</g>
</g>
</g>
</g>
</g>
</g>
</g>
</g>
</g>
</g>
<defs>
<clipPath id="clip0_3932_29632">
<rect width="448" height="512" fill="white"/>
</clipPath>
</defs>
</svg>
