<svg width="448" height="512" viewBox="0 0 448 512" fill="none" xmlns="http://www.w3.org/2000/svg">
<path d="M286.17 419C282.61 419 279.13 420.056 276.17 422.034C273.21 424.011 270.903 426.823 269.54 430.112C268.178 433.401 267.821 437.02 268.516 440.512C269.21 444.003 270.925 447.211 273.442 449.728C275.959 452.245 279.167 453.96 282.658 454.654C286.15 455.349 289.769 454.992 293.058 453.63C296.347 452.267 299.159 449.96 301.136 447C303.114 444.04 304.17 440.56 304.17 437C304.17 432.226 302.274 427.648 298.898 424.272C295.522 420.896 290.944 419 286.17 419ZM398.09 271.4C388.59 256.78 358.72 218.95 310.83 197.69C304.763 194.983 298.637 192.56 292.45 190.42C296.519 180.473 298.5 169.796 298.271 159.052C298.042 148.307 295.606 137.724 291.117 127.96C286.627 118.196 280.179 109.459 272.172 102.29C264.164 95.1222 254.77 89.6761 244.57 86.29C232.16 82.19 221.24 80.29 212.16 80.52C211.56 78.52 210.27 69.52 221.56 45.52L198.66 32L193.18 39.56C184.49 51.62 176.26 63.11 168.84 74.45C166.116 73.8065 163.343 73.3884 160.55 73.2C119.02 70.75 121.55 70.87 119.49 70.87C68.88 70.87 68.74 122.99 68.74 116.75L66.38 153.43C64.77 180.43 86.13 203.64 114.01 205.28L122.94 205.82C105.959 215.497 90.3847 227.455 76.65 241.36C14 304.66 14 374 14 429.77V463.41L37.32 433.61C40.446 446.733 45.3443 459.369 51.88 471.17C57.66 481.3 66.75 480.62 71.52 478.5C75.73 476.63 81.52 471.58 75.27 458.39C67.2795 441.61 61.962 423.683 59.51 405.26L106.33 345.43L81.67 419.54C139.9 377.14 239.05 357.78 317.92 380.95C352.12 391 385.37 381.64 402.66 357.11C403.38 356.11 403.86 354.95 404.51 353.89C406.31 363.261 407.248 372.778 407.31 382.32C407.31 405.62 403.62 435.25 392.43 463.96C389.91 470.42 394.19 478.46 401.03 479.7C408.45 481.27 416.36 476.6 419.4 468.55C429 443 434 414 434 382.32C434 343.74 421 304.86 398.09 271.4ZM142.37 128.58L126.67 127.65L125.28 149.44L138.41 150.22C137.828 156.736 137.935 163.296 138.73 169.79L116.35 168.45C114.738 168.383 113.155 167.999 111.691 167.32C110.227 166.641 108.911 165.68 107.819 164.492C106.727 163.304 105.88 161.913 105.326 160.397C104.772 158.882 104.522 157.272 104.59 155.66L107 119C108 106.83 120.87 107.73 120.26 107.68L149.37 109.41C146.587 115.627 144.248 122.033 142.37 128.58ZM290.79 300.76C288.672 302.401 286.006 303.172 283.339 302.913C280.672 302.655 278.204 301.387 276.44 299.37L266.76 287.88L232.34 314.88C230.703 316.167 228.632 316.774 226.558 316.573C224.485 316.371 222.569 315.378 221.21 313.8L205.43 295.16C204.238 293.61 203.71 291.651 203.962 289.713C204.213 287.774 205.223 286.015 206.77 284.82L241.34 257.64L227.2 240.9L210.11 254.35C208.55 255.566 206.585 256.14 204.616 255.954C202.648 255.768 200.824 254.836 199.52 253.35C199.52 253.35 195.8 248.93 195.72 248.82C194.532 247.267 194.009 245.305 194.265 243.367C194.522 241.428 195.538 239.67 197.09 238.48L214 225.19C214 225.19 195.49 203.19 195.4 203.05C194.632 202.055 194.068 200.918 193.739 199.705C193.411 198.492 193.325 197.226 193.487 195.979C193.649 194.733 194.054 193.53 194.681 192.441C195.308 191.351 196.144 190.396 197.14 189.63C199.24 187.97 201.901 187.186 204.565 187.442C207.23 187.697 209.693 188.972 211.44 191L292.53 287.32C293.299 288.317 293.863 289.455 294.192 290.67C294.52 291.885 294.606 293.152 294.445 294.401C294.283 295.649 293.877 296.853 293.25 297.944C292.623 299.035 291.787 299.992 290.79 300.76ZM187.44 419C183.88 419 180.4 420.056 177.44 422.034C174.48 424.011 172.173 426.823 170.81 430.112C169.448 433.401 169.091 437.02 169.786 440.512C170.48 444.003 172.195 447.211 174.712 449.728C177.229 452.245 180.437 453.96 183.928 454.654C187.42 455.349 191.039 454.992 194.328 453.63C197.617 452.267 200.429 449.96 202.406 447C204.384 444.04 205.44 440.56 205.44 437C205.44 432.226 203.544 427.648 200.168 424.272C196.792 420.896 192.214 419 187.44 419Z" fill="black"/>
</svg>
