<svg width="512" height="512" viewBox="0 0 512 512" fill="none" xmlns="http://www.w3.org/2000/svg">
<g clip-path="url(#clip0_3932_29934)">
<mask id="mask0_3932_29934" style="mask-type:luminance" maskUnits="userSpaceOnUse" x="0" y="0" width="512" height="512">
<path d="M512 0H0V512H512V0Z" fill="white"/>
</mask>
<g mask="url(#mask0_3932_29934)">
<mask id="mask1_3932_29934" style="mask-type:luminance" maskUnits="userSpaceOnUse" x="0" y="0" width="512" height="512">
<path d="M512 0H0V512H512V0Z" fill="white"/>
</mask>
<g mask="url(#mask1_3932_29934)">
<mask id="mask2_3932_29934" style="mask-type:luminance" maskUnits="userSpaceOnUse" x="0" y="0" width="512" height="512">
<path d="M512 0H0V512H512V0Z" fill="white"/>
</mask>
<g mask="url(#mask2_3932_29934)">
<mask id="mask3_3932_29934" style="mask-type:luminance" maskUnits="userSpaceOnUse" x="0" y="0" width="512" height="512">
<path d="M512 0H0V512H512V0Z" fill="white"/>
</mask>
<g mask="url(#mask3_3932_29934)">
<mask id="mask4_3932_29934" style="mask-type:luminance" maskUnits="userSpaceOnUse" x="0" y="0" width="512" height="512">
<path d="M512 0H0V512H512V0Z" fill="white"/>
</mask>
<g mask="url(#mask4_3932_29934)">
<mask id="mask5_3932_29934" style="mask-type:luminance" maskUnits="userSpaceOnUse" x="0" y="0" width="512" height="512">
<path d="M512 0H0V512H512V0Z" fill="white"/>
</mask>
<g mask="url(#mask5_3932_29934)">
<mask id="mask6_3932_29934" style="mask-type:luminance" maskUnits="userSpaceOnUse" x="0" y="0" width="512" height="512">
<path d="M512 0H0V512H512V0Z" fill="white"/>
</mask>
<g mask="url(#mask6_3932_29934)">
<mask id="mask7_3932_29934" style="mask-type:luminance" maskUnits="userSpaceOnUse" x="0" y="0" width="512" height="512">
<path d="M512 0H0V512H512V0Z" fill="white"/>
</mask>
<g mask="url(#mask7_3932_29934)">
<mask id="mask8_3932_29934" style="mask-type:luminance" maskUnits="userSpaceOnUse" x="0" y="0" width="512" height="512">
<path d="M512 0H0V512H512V0Z" fill="white"/>
</mask>
<g mask="url(#mask8_3932_29934)">
<mask id="mask9_3932_29934" style="mask-type:luminance" maskUnits="userSpaceOnUse" x="0" y="0" width="512" height="512">
<path d="M512 0H0V512H512V0Z" fill="white"/>
</mask>
<g mask="url(#mask9_3932_29934)">
<mask id="mask10_3932_29934" style="mask-type:luminance" maskUnits="userSpaceOnUse" x="0" y="0" width="512" height="512">
<path d="M512 0H0V512H512V0Z" fill="white"/>
</mask>
<g mask="url(#mask10_3932_29934)">
<mask id="mask11_3932_29934" style="mask-type:luminance" maskUnits="userSpaceOnUse" x="0" y="0" width="512" height="512">
<path d="M512 0H0V512H512V0Z" fill="white"/>
</mask>
<g mask="url(#mask11_3932_29934)">
<mask id="mask12_3932_29934" style="mask-type:luminance" maskUnits="userSpaceOnUse" x="0" y="0" width="512" height="512">
<path d="M512 0H0V512H512V0Z" fill="white"/>
</mask>
<g mask="url(#mask12_3932_29934)">
<mask id="mask13_3932_29934" style="mask-type:luminance" maskUnits="userSpaceOnUse" x="0" y="0" width="512" height="512">
<path d="M512 0H0V512H512V0Z" fill="white"/>
</mask>
<g mask="url(#mask13_3932_29934)">
<path d="M245.8 3.69844C251.7 -1.20156 260.4 -1.20156 266.3 3.69844L314.3 43.6984C320.2 48.5984 321.8 56.8984 318.1 63.5984L318 63.6984L317.7 64.2984C317.4 64.7984 317 65.5984 316.5 66.5984C315.5 68.5984 313.9 71.5984 312.1 75.1984C311.6 76.0984 311.2 77.0984 310.7 78.0984C344.9 97.3985 368 133.998 368 175.998C368 217.998 344.9 254.598 310.7 273.798C311.2 274.798 311.7 275.798 312.1 276.698C313.9 280.398 315.4 283.298 316.5 285.298C317 286.298 317.4 287.098 317.7 287.598L318 288.198L318.1 288.298C321.7 294.998 320.1 303.298 314.3 308.198L272 343.498V363.298L307.6 338.798L348.7 310.598C391.5 281.198 417.1 232.598 417.1 180.598C417.1 149.498 407.9 118.998 390.6 93.0984L387.8 88.8984C383.8 82.8984 384.3 74.8984 389.1 69.3984C393.9 63.8984 401.8 62.3984 408.3 65.6984L401.1 79.9984C408.3 65.6984 408.3 65.6984 408.3 65.6984H408.4L408.7 65.8984L409.7 66.3984C410.5 66.7984 411.7 67.4984 413.2 68.2984C416.1 69.9984 420.2 72.3985 425 75.5984C434.6 81.9985 447.5 91.6984 460.4 104.598C486.1 130.298 513.1 170.198 513.1 223.898C513.1 276.998 486.7 324.398 461.9 357.498C449.3 374.198 436.8 387.798 427.4 397.198C422.7 401.898 418.7 405.598 415.9 408.098C414.5 409.398 413.4 410.298 412.6 410.998L411.7 411.798L411.4 411.998L411.3 412.098C411.3 412.098 411.3 412.098 401.1 399.798L411.3 412.098C406.2 416.398 398.9 416.998 393.1 413.698L317.5 370.698L284.8 393.198L330.3 424.498C332.1 424.098 334 423.798 336 423.798C349.3 423.798 360 434.498 360 447.798C360 461.098 349.3 471.798 336 471.798C323.8 471.798 313.7 462.698 312.2 450.798L272 423.398V452.298C281.6 457.798 288 468.198 288 479.998C288 497.698 273.7 511.998 256 511.998C238.3 511.998 224 497.698 224 479.998C224 468.198 230.4 457.798 240 452.298V424.098L199.7 451.798C197.8 463.298 187.9 471.998 176 471.998C162.7 471.998 152 461.298 152 447.998C152 434.698 162.7 423.998 176 423.998C178.2 423.998 180.4 424.298 182.5 424.898L228.3 393.398L195.6 370.898L120 413.898C114.2 417.198 107 416.598 101.8 412.298L112 399.998C101.8 412.298 101.8 412.298 101.7 412.298L101.6 412.198L101.3 411.998L100.4 411.198C99.6 410.498 98.5 409.498 97.1 408.298C94.3 405.798 90.4 402.098 85.6 397.398C76.2 387.998 63.7 374.398 51.1 357.698C26.4 324.498 0 277.098 0 223.998C0 170.298 26.9 130.398 52.7 104.698C65.6 91.7984 78.5 82.0984 88.1 75.6984C93 72.4985 97 69.9984 99.9 68.3984C101.4 67.5984 102.5 66.8984 103.4 66.4984L104.4 65.9984L104.7 65.7984H104.8C104.8 65.7984 104.8 65.7984 112 80.0984L104.8 65.7984C111.3 62.5984 119.1 64.0984 124 69.4984C128.9 74.8984 129.3 82.8984 125.3 88.9984L122.5 93.1984C105.2 118.998 96 149.498 96 180.598C96 232.498 121.6 281.198 164.4 310.598L205.5 338.798L240 362.598V343.498L197.8 308.298C191.9 303.398 190.3 295.098 194 288.398L194.1 288.298L194.4 287.698C194.7 287.198 195.1 286.398 195.6 285.398C196.6 283.398 198.2 280.398 200 276.798C200.5 275.898 200.9 274.898 201.4 273.898C167.1 254.598 144 217.998 144 175.998C144 133.998 167.1 97.3985 201.3 78.1984C200.8 77.1984 200.3 76.1984 199.9 75.2984C198.1 71.5984 196.6 68.6984 195.5 66.6984C195 65.6984 194.6 64.8984 194.3 64.3984L194 63.7984L193.9 63.6984C190.3 56.9984 191.9 48.6984 197.7 43.7984L245.7 3.79844L245.8 3.69844ZM220.2 122.898C203.2 134.398 192 153.898 192 175.998C192 198.098 203.2 217.598 220.2 229.098C227 210.198 232 190.898 232 175.998C232 161.098 227 141.798 220.2 122.898ZM291.7 229.098C308.7 217.598 319.9 198.098 319.9 175.998C319.9 153.898 308.7 134.398 291.7 122.898C285 141.798 280 161.098 280 175.998C280 190.898 285 210.198 291.8 229.098H291.7Z" fill="black"/>
</g>
</g>
</g>
</g>
</g>
</g>
</g>
</g>
</g>
</g>
</g>
</g>
</g>
</g>
</g>
<defs>
<clipPath id="clip0_3932_29934">
<rect width="512" height="512" fill="white"/>
</clipPath>
</defs>
</svg>
