<svg width="448" height="512" viewBox="0 0 448 512" fill="none" xmlns="http://www.w3.org/2000/svg">
<path d="M64 32C28.7 32 0 60.7 0 96V416C0 451.3 28.7 480 64 480H384C419.3 480 448 451.3 448 416V96C448 60.7 419.3 32 384 32H64ZM320.8 233L297.5 256.1L320.8 279C344.9 302.9 344.9 342 320.8 365.9C296.7 389.8 257.4 389.8 233.2 365.9L224.7 357.5C213.4 373.5 195 384 173.8 384C139.7 384 111.9 356.5 111.9 322.6V189.4C111.9 155.6 139.6 128 173.8 128C194.9 128 213.4 138.5 224.7 154.5L233.2 146.1C257.3 122.2 296.6 122.2 320.8 146.1C345 170 344.9 209.1 320.8 233Z" fill="black"/>
</svg>
