<svg width="576" height="512" viewBox="0 0 576 512" fill="none" xmlns="http://www.w3.org/2000/svg">
<path d="M291.2 388.4C322.4 369.6 355.9 352 392.3 352H448C452.6 352 457.1 351.8 461.6 351.3L546.9 473.2C550.9 478.9 558.2 481.4 564.8 479.3C571.4 477.2 576 471 576 464V224C576 153.3 518.7 96 448 96H392.3C355.9 96 322.4 78.4 291.2 59.6C262.3 42.1 228.3 32 192 32C86 32 0 118 0 224C0 295.1 38.6 357.1 96 390.3V456C96 469.3 106.7 480 120 480C133.3 480 144 469.3 144 456V410C159.3 413.9 175.4 416 192 416C197.4 416 202.7 415.8 208 415.3V456C208 469.3 218.7 480 232 480C245.3 480 256 469.3 256 456V405.1C268.4 400.7 280.2 395.1 291.2 388.4ZM448 200C454.365 200 460.47 202.529 464.971 207.029C469.471 211.53 472 217.635 472 224C472 230.365 469.471 236.47 464.971 240.971C460.47 245.471 454.365 248 448 248C441.635 248 435.53 245.471 431.029 240.971C426.529 236.47 424 230.365 424 224C424 217.635 426.529 211.53 431.029 207.029C435.53 202.529 441.635 200 448 200Z" fill="black"/>
</svg>
