<svg width="640" height="512" viewBox="0 0 640 512" fill="none" xmlns="http://www.w3.org/2000/svg">
<path d="M343.996 24V168C343.996 181.3 333.296 192 319.996 192C306.696 192 295.996 181.3 295.996 168V24C295.996 10.7 306.696 0 319.996 0C333.296 0 343.996 10.7 343.996 24ZM191.996 320C191.996 302.3 206.296 288 223.996 288H415.996C433.696 288 447.996 302.3 447.996 320V352H191.996V320ZM114.696 410.5C122.796 394.2 139.496 384 157.596 384H482.296C500.496 384 517.096 394.3 525.196 410.5L552.796 465.7C563.496 487 547.996 512 524.196 512H115.796C91.9959 512 76.4959 487 87.1959 465.7L114.796 410.5H114.696ZM36.2959 138.3C43.7959 127.4 58.7959 124.7 69.6959 132.2L173.696 204.2C184.596 211.7 187.296 226.7 179.796 237.6C172.296 248.5 157.296 251.2 146.396 243.7L42.3959 171.7C31.4959 164.2 28.7959 149.2 36.2959 138.3ZM570.396 132.2C581.296 124.7 596.196 127.4 603.796 138.3C611.396 149.2 608.596 164.1 597.696 171.7L493.696 243.7C482.796 251.2 467.896 248.5 460.296 237.6C452.696 226.7 455.496 211.8 466.396 204.2L570.396 132.2Z" fill="black"/>
</svg>
