<svg width="640" height="512" viewBox="0 0 640 512" fill="none" xmlns="http://www.w3.org/2000/svg">
<path d="M64 96C64 60.7 92.7 32 128 32H512C547.3 32 576 60.7 576 96V352H512V96H128V352H64V96ZM0 403.2C0 392.6 8.6 384 19.2 384H620.8C631.4 384 640 392.6 640 403.2C640 445.6 605.6 480 563.2 480H76.8C34.4 480 0 445.6 0 403.2ZM288 160C288 151.2 295.2 144 304 144H336C344.8 144 352 151.2 352 160V208H400C408.8 208 416 215.2 416 224V256C416 264.8 408.8 272 400 272H352V320C352 328.8 344.8 336 336 336H304C295.2 336 288 328.8 288 320V272H240C231.2 272 224 264.8 224 256V224C224 215.2 231.2 208 240 208H288V160Z" fill="black"/>
</svg>
