<svg width="384" height="512" viewBox="0 0 384 512" fill="none" xmlns="http://www.w3.org/2000/svg">
<path d="M144 32C161.7 32 176 46.3 176 64V96.7C181.3 96.3 186.6 96 192 96C197.4 96 202.7 96.2 208 96.7V64C208 46.3 222.3 32 240 32C257.7 32 272 46.3 272 64V113.4C326.9 138.6 367.8 188.9 380.2 249.6C383.7 266.9 372.5 283.8 355.2 287.3C337.9 290.8 321 279.6 317.5 262.3C311.4 232.4 295 206.4 272.1 188V256C272.1 273.7 257.8 288 240.1 288C222.4 288 208.1 273.7 208.1 256V161C202.9 160.3 197.5 160 192.1 160C186.7 160 181.3 160.3 176.1 161V256C176.1 273.7 161.8 288 144.1 288C126.4 288 112.1 273.7 112.1 256V188.1C82.7 211.5 64 247.6 64 288C64 358.7 121.3 416 192 416H352C369.7 416 384 430.3 384 448C384 465.7 369.7 480 352 480H192H32C14.3 480 0 465.7 0 448C0 430.3 14.3 416 32 416H48.9C18.5 382 0 337.2 0 288C0 210.5 45.9 143.7 112 113.4V64C112 46.3 126.3 32 144 32Z" fill="black"/>
</svg>
