<svg width="512" height="512" viewBox="0 0 512 512" fill="none" xmlns="http://www.w3.org/2000/svg">
<path d="M225.8 367.105L207 316.105C207 316.105 176.5 350.105 130.8 350.105C90.3 350.105 61.6 314.905 61.6 258.605C61.6 186.505 98 160.705 133.7 160.705C200.2 160.705 208.5 214.005 234.6 295.605C253.4 352.505 288.6 398.205 390 398.205C462.7 398.205 512 375.905 512 317.305C512 244.405 449.3 236.705 397 225.205C371.2 219.305 363.6 208.805 363.6 191.205C363.6 171.305 379.4 159.505 405.2 159.505C433.4 159.505 448.6 170.105 450.9 195.305L509.5 188.305C504.8 135.505 468.4 113.805 408.6 113.805C355.8 113.805 304.2 133.705 304.2 197.705C304.2 237.605 323.6 262.805 372.2 274.505C417.1 285.105 452 288.305 452 320.205C452 341.905 430.9 350.705 391 350.705C331.8 350.705 307.1 319.605 293.1 276.805C261.1 180.005 249.5 113.805 131.8 113.805C45.7 113.805 0 168.305 0 261.005C0 350.105 45.7 398.205 127.9 398.205C194.1 398.205 225.8 367.105 225.8 367.105Z" fill="black"/>
</svg>
