<svg width="576" height="512" viewBox="0 0 576 512" fill="none" xmlns="http://www.w3.org/2000/svg">
<path d="M264.5 5.19844C279.4 -1.70156 296.6 -1.70156 311.5 5.19844L530.1 106.198C538.6 110.098 544 118.598 544 127.998C544 137.398 538.6 145.898 530.1 149.798L311.5 250.798C296.6 257.698 279.4 257.698 264.5 250.798L45.9 149.798C37.4 145.798 32 137.298 32 127.998C32 118.698 37.4 110.098 45.9 106.198L264.5 5.19844ZM476.9 209.598L530.1 234.198C538.6 238.098 544 246.598 544 255.998C544 265.398 538.6 273.898 530.1 277.798L311.5 378.798C296.6 385.698 279.4 385.698 264.5 378.798L45.9 277.798C37.4 273.798 32 265.298 32 255.998C32 246.698 37.4 238.098 45.9 234.198L99.1 209.598L251.1 279.798C274.5 290.598 301.5 290.598 324.9 279.798L476.9 209.598ZM324.9 407.798L476.9 337.598L530.1 362.198C538.6 366.098 544 374.598 544 383.998C544 393.398 538.6 401.898 530.1 405.798L311.5 506.798C296.6 513.698 279.4 513.698 264.5 506.798L45.9 405.798C37.4 401.798 32 393.298 32 383.998C32 374.698 37.4 366.098 45.9 362.198L99.1 337.598L251.1 407.798C274.5 418.598 301.5 418.598 324.9 407.798Z" fill="black"/>
</svg>
