<svg width="512" height="512" viewBox="0 0 512 512" fill="none" xmlns="http://www.w3.org/2000/svg">
<g clip-path="url(#clip0_3932_30510)">
<mask id="mask0_3932_30510" style="mask-type:luminance" maskUnits="userSpaceOnUse" x="0" y="0" width="512" height="512">
<path d="M512 0H0V512H512V0Z" fill="white"/>
</mask>
<g mask="url(#mask0_3932_30510)">
<mask id="mask1_3932_30510" style="mask-type:luminance" maskUnits="userSpaceOnUse" x="0" y="0" width="512" height="512">
<path d="M512 0H0V512H512V0Z" fill="white"/>
</mask>
<g mask="url(#mask1_3932_30510)">
<mask id="mask2_3932_30510" style="mask-type:luminance" maskUnits="userSpaceOnUse" x="0" y="0" width="512" height="512">
<path d="M512 0H0V512H512V0Z" fill="white"/>
</mask>
<g mask="url(#mask2_3932_30510)">
<mask id="mask3_3932_30510" style="mask-type:luminance" maskUnits="userSpaceOnUse" x="0" y="0" width="512" height="512">
<path d="M512 0H0V512H512V0Z" fill="white"/>
</mask>
<g mask="url(#mask3_3932_30510)">
<mask id="mask4_3932_30510" style="mask-type:luminance" maskUnits="userSpaceOnUse" x="0" y="0" width="512" height="512">
<path d="M512 0H0V512H512V0Z" fill="white"/>
</mask>
<g mask="url(#mask4_3932_30510)">
<mask id="mask5_3932_30510" style="mask-type:luminance" maskUnits="userSpaceOnUse" x="0" y="0" width="512" height="512">
<path d="M512 0H0V512H512V0Z" fill="white"/>
</mask>
<g mask="url(#mask5_3932_30510)">
<mask id="mask6_3932_30510" style="mask-type:luminance" maskUnits="userSpaceOnUse" x="0" y="0" width="512" height="512">
<path d="M512 0H0V512H512V0Z" fill="white"/>
</mask>
<g mask="url(#mask6_3932_30510)">
<mask id="mask7_3932_30510" style="mask-type:luminance" maskUnits="userSpaceOnUse" x="0" y="0" width="512" height="512">
<path d="M512 0H0V512H512V0Z" fill="white"/>
</mask>
<g mask="url(#mask7_3932_30510)">
<mask id="mask8_3932_30510" style="mask-type:luminance" maskUnits="userSpaceOnUse" x="0" y="0" width="512" height="512">
<path d="M512 0H0V512H512V0Z" fill="white"/>
</mask>
<g mask="url(#mask8_3932_30510)">
<mask id="mask9_3932_30510" style="mask-type:luminance" maskUnits="userSpaceOnUse" x="0" y="0" width="512" height="512">
<path d="M512 0H0V512H512V0Z" fill="white"/>
</mask>
<g mask="url(#mask9_3932_30510)">
<mask id="mask10_3932_30510" style="mask-type:luminance" maskUnits="userSpaceOnUse" x="0" y="0" width="512" height="512">
<path d="M512 0H0V512H512V0Z" fill="white"/>
</mask>
<g mask="url(#mask10_3932_30510)">
<mask id="mask11_3932_30510" style="mask-type:luminance" maskUnits="userSpaceOnUse" x="0" y="0" width="512" height="512">
<path d="M512 0H0V512H512V0Z" fill="white"/>
</mask>
<g mask="url(#mask11_3932_30510)">
<mask id="mask12_3932_30510" style="mask-type:luminance" maskUnits="userSpaceOnUse" x="0" y="0" width="512" height="512">
<path d="M512 0H0V512H512V0Z" fill="white"/>
</mask>
<g mask="url(#mask12_3932_30510)">
<mask id="mask13_3932_30510" style="mask-type:luminance" maskUnits="userSpaceOnUse" x="0" y="0" width="512" height="512">
<path d="M512 0H0V512H512V0Z" fill="white"/>
</mask>
<g mask="url(#mask13_3932_30510)">
<path d="M385.1 419.1C349.7 447.2 304.8 464 256 464C207.2 464 162.3 447.2 126.9 419.1L207.3 338.7C221.6 347.1 238.3 352 256.1 352C273.9 352 290.6 347.2 304.9 338.7L385.3 419.1H385.1ZM453.2 419.3C489.9 374.9 512 318.1 512 256C512 193.9 489.9 137.1 453.2 92.7L465 81C474.4 71.6 474.4 56.4 465 47.1C455.6 37.8 440.4 37.7 431.1 47.1L419.3 58.8C374.9 22.1 318.1 0 256 0C193.9 0 137.1 22.1 92.7 58.8L81 47C71.6 37.6 56.4 37.6 47.1 47C37.8 56.4 37.7 71.6 47.1 80.9L58.8 92.7C22.1 137.1 0 193.9 0 256C0 318.1 22.1 374.9 58.8 419.3L47 431C37.6 440.4 37.6 455.6 47 464.9C56.4 474.2 71.6 474.3 80.9 464.9L92.7 453.1C137.1 489.9 193.9 512 256 512C318.1 512 374.9 489.9 419.3 453.2L431 465C440.4 474.4 455.6 474.4 464.9 465C474.2 455.6 474.3 440.4 464.9 431.1L453.1 419.3H453.2ZM419.1 385.2L338.7 304.8C347.1 290.5 352 273.8 352 256C352 238.2 347.2 221.5 338.7 207.2L419.1 126.8C447.2 162.3 464 207.2 464 256C464 304.8 447.2 349.7 419.1 385.1V385.2ZM385.1 92.9L304.7 173.3C290.4 164.9 273.7 160 255.9 160C238.1 160 221.4 164.8 207.1 173.3L126.9 92.9C162.3 64.8 207.2 48 256 48C304.8 48 349.7 64.8 385.1 92.9ZM173.3 304.8L92.9 385.1C64.8 349.7 48 304.8 48 256C48 207.2 64.8 162.3 92.9 126.9L173.3 207.3C164.9 221.6 160 238.3 160 256.1C160 273.9 164.8 290.6 173.3 304.9V304.8ZM208 256C208 243.27 213.057 231.061 222.059 222.059C231.061 213.057 243.27 208 256 208C268.73 208 280.939 213.057 289.941 222.059C298.943 231.061 304 243.27 304 256C304 268.73 298.943 280.939 289.941 289.941C280.939 298.943 268.73 304 256 304C243.27 304 231.061 298.943 222.059 289.941C213.057 280.939 208 268.73 208 256Z" fill="black"/>
</g>
</g>
</g>
</g>
</g>
</g>
</g>
</g>
</g>
</g>
</g>
</g>
</g>
</g>
</g>
<defs>
<clipPath id="clip0_3932_30510">
<rect width="512" height="512" fill="white"/>
</clipPath>
</defs>
</svg>
