<svg width="384" height="512" viewBox="0 0 384 512" fill="none" xmlns="http://www.w3.org/2000/svg">
<path d="M297.2 248.9C311.6 228.3 320 203.2 320 176C320 105.3 262.7 48 192 48C121.3 48 64 105.3 64 176C64 203.2 72.4 228.3 86.8 248.9C90.5 254.2 94.9 260.2 99.6 266.6C112.5 284.3 127.9 305.5 139.4 326.4C149.8 345.4 155.1 365.2 157.7 383.9H109C106.8 371.9 103.1 360.2 97.2 349.4C87.3 331.4 75 314.5 62.7 297.6C57.5 290.5 52.3 283.4 47.3 276.2C27.6 247.9 16 213.3 16 176C16 78.8 94.8 0 192 0C289.2 0 368 78.8 368 176C368 213.3 356.4 247.9 336.6 276.3C331.6 283.5 326.4 290.6 321.2 297.7C308.9 314.5 296.6 331.4 286.7 349.5C280.8 360.3 277.1 372 274.9 384H226.4C229 365.3 234.3 345.4 244.7 326.5C256.2 305.6 271.6 284.4 284.5 266.7C289.2 260.3 293.5 254.3 297.2 249V248.9ZM192 128C165.5 128 144 149.5 144 176C144 184.8 136.8 192 128 192C119.2 192 112 184.8 112 176C112 131.8 147.8 96 192 96C200.8 96 208 103.2 208 112C208 120.8 200.8 128 192 128ZM192 512C147.8 512 112 476.2 112 432V416H272V432C272 476.2 236.2 512 192 512Z" fill="black"/>
</svg>
