<svg width="384" height="512" viewBox="0 0 384 512" fill="none" xmlns="http://www.w3.org/2000/svg">
<g clip-path="url(#clip0_3932_30628)">
<mask id="mask0_3932_30628" style="mask-type:luminance" maskUnits="userSpaceOnUse" x="0" y="0" width="384" height="512">
<path d="M384 0H0V512H384V0Z" fill="white"/>
</mask>
<g mask="url(#mask0_3932_30628)">
<mask id="mask1_3932_30628" style="mask-type:luminance" maskUnits="userSpaceOnUse" x="0" y="0" width="384" height="512">
<path d="M384 0H0V512H384V0Z" fill="white"/>
</mask>
<g mask="url(#mask1_3932_30628)">
<mask id="mask2_3932_30628" style="mask-type:luminance" maskUnits="userSpaceOnUse" x="0" y="0" width="384" height="512">
<path d="M384 0H0V512H384V0Z" fill="white"/>
</mask>
<g mask="url(#mask2_3932_30628)">
<mask id="mask3_3932_30628" style="mask-type:luminance" maskUnits="userSpaceOnUse" x="0" y="0" width="384" height="512">
<path d="M384 0H0V512H384V0Z" fill="white"/>
</mask>
<g mask="url(#mask3_3932_30628)">
<mask id="mask4_3932_30628" style="mask-type:luminance" maskUnits="userSpaceOnUse" x="0" y="0" width="384" height="512">
<path d="M384 0H0V512H384V0Z" fill="white"/>
</mask>
<g mask="url(#mask4_3932_30628)">
<mask id="mask5_3932_30628" style="mask-type:luminance" maskUnits="userSpaceOnUse" x="0" y="0" width="384" height="512">
<path d="M384 0H0V512H384V0Z" fill="white"/>
</mask>
<g mask="url(#mask5_3932_30628)">
<mask id="mask6_3932_30628" style="mask-type:luminance" maskUnits="userSpaceOnUse" x="0" y="0" width="384" height="512">
<path d="M384 0H0V512H384V0Z" fill="white"/>
</mask>
<g mask="url(#mask6_3932_30628)">
<mask id="mask7_3932_30628" style="mask-type:luminance" maskUnits="userSpaceOnUse" x="0" y="0" width="384" height="512">
<path d="M384 0H0V512H384V0Z" fill="white"/>
</mask>
<g mask="url(#mask7_3932_30628)">
<mask id="mask8_3932_30628" style="mask-type:luminance" maskUnits="userSpaceOnUse" x="0" y="0" width="384" height="512">
<path d="M384 0H0V512H384V0Z" fill="white"/>
</mask>
<g mask="url(#mask8_3932_30628)">
<mask id="mask9_3932_30628" style="mask-type:luminance" maskUnits="userSpaceOnUse" x="0" y="0" width="384" height="512">
<path d="M384 0H0V512H384V0Z" fill="white"/>
</mask>
<g mask="url(#mask9_3932_30628)">
<mask id="mask10_3932_30628" style="mask-type:luminance" maskUnits="userSpaceOnUse" x="0" y="0" width="384" height="512">
<path d="M384 0H0V512H384V0Z" fill="white"/>
</mask>
<g mask="url(#mask10_3932_30628)">
<mask id="mask11_3932_30628" style="mask-type:luminance" maskUnits="userSpaceOnUse" x="0" y="0" width="384" height="512">
<path d="M384 0H0V512H384V0Z" fill="white"/>
</mask>
<g mask="url(#mask11_3932_30628)">
<mask id="mask12_3932_30628" style="mask-type:luminance" maskUnits="userSpaceOnUse" x="0" y="0" width="384" height="512">
<path d="M384 0H0V512H384V0Z" fill="white"/>
</mask>
<g mask="url(#mask12_3932_30628)">
<path d="M190.4 74.0981C196 57.2981 186.9 39.1981 170.2 33.5981C153.5 27.9981 135.3 37.0981 129.7 53.7981L1.69968 437.798C-3.90032 454.598 5.19967 472.698 21.8997 478.298C38.5997 483.898 56.7997 474.798 62.3997 458.098L190.4 74.0981ZM261.3 32.3981C243.9 29.4981 227.4 41.2981 224.5 58.6981L160.5 442.698C157.6 460.098 169.4 476.598 186.8 479.498C204.2 482.398 220.7 470.598 223.6 453.198L287.6 69.1981C290.5 51.7981 278.7 35.2981 261.3 32.3981ZM352 31.9981C334.3 31.9981 320 46.2981 320 63.9981V447.998C320 465.698 334.3 479.998 352 479.998C369.7 479.998 384 465.698 384 447.998V63.9981C384 46.2981 369.7 31.9981 352 31.9981Z" fill="black"/>
</g>
</g>
</g>
</g>
</g>
</g>
</g>
</g>
</g>
</g>
</g>
</g>
</g>
</g>
<defs>
<clipPath id="clip0_3932_30628">
<rect width="384" height="512" fill="white"/>
</clipPath>
</defs>
</svg>
