<svg width="448" height="512" viewBox="0 0 448 512" fill="none" xmlns="http://www.w3.org/2000/svg">
<path d="M100.28 447.998H7.4V148.898H100.28V447.998ZM53.79 108.098C24.09 108.098 0 83.4978 0 53.7978C2.1258e-07 39.5318 5.66714 25.8501 15.7547 15.7625C25.8423 5.67496 39.524 0.0078125 53.79 0.0078125C68.056 0.0078125 81.7377 5.67496 91.8253 15.7625C101.913 25.8501 107.58 39.5318 107.58 53.7978C107.58 83.4978 83.48 108.098 53.79 108.098ZM447.9 447.998H355.22V302.398C355.22 267.698 354.52 223.198 306.93 223.198C258.64 223.198 251.24 260.898 251.24 299.898V447.998H158.46V148.898H247.54V189.698H248.84C261.24 166.198 291.53 141.398 336.72 141.398C430.72 141.398 448 203.298 448 283.698V447.998H447.9Z" fill="black"/>
</svg>
