<svg width="640" height="512" viewBox="0 0 640 512" fill="none" xmlns="http://www.w3.org/2000/svg">
<g clip-path="url(#clip0_3932_30686)">
<mask id="mask0_3932_30686" style="mask-type:luminance" maskUnits="userSpaceOnUse" x="0" y="0" width="640" height="512">
<path d="M640 0H0V512H640V0Z" fill="white"/>
</mask>
<g mask="url(#mask0_3932_30686)">
<mask id="mask1_3932_30686" style="mask-type:luminance" maskUnits="userSpaceOnUse" x="0" y="0" width="640" height="512">
<path d="M640 0H0V512H640V0Z" fill="white"/>
</mask>
<g mask="url(#mask1_3932_30686)">
<mask id="mask2_3932_30686" style="mask-type:luminance" maskUnits="userSpaceOnUse" x="0" y="0" width="640" height="512">
<path d="M640 0H0V512H640V0Z" fill="white"/>
</mask>
<g mask="url(#mask2_3932_30686)">
<mask id="mask3_3932_30686" style="mask-type:luminance" maskUnits="userSpaceOnUse" x="0" y="0" width="640" height="512">
<path d="M640 0H0V512H640V0Z" fill="white"/>
</mask>
<g mask="url(#mask3_3932_30686)">
<mask id="mask4_3932_30686" style="mask-type:luminance" maskUnits="userSpaceOnUse" x="0" y="0" width="640" height="512">
<path d="M640 0H0V512H640V0Z" fill="white"/>
</mask>
<g mask="url(#mask4_3932_30686)">
<mask id="mask5_3932_30686" style="mask-type:luminance" maskUnits="userSpaceOnUse" x="0" y="0" width="640" height="512">
<path d="M640 0H0V512H640V0Z" fill="white"/>
</mask>
<g mask="url(#mask5_3932_30686)">
<mask id="mask6_3932_30686" style="mask-type:luminance" maskUnits="userSpaceOnUse" x="0" y="0" width="640" height="512">
<path d="M640 0H0V512H640V0Z" fill="white"/>
</mask>
<g mask="url(#mask6_3932_30686)">
<mask id="mask7_3932_30686" style="mask-type:luminance" maskUnits="userSpaceOnUse" x="0" y="0" width="640" height="512">
<path d="M640 0H0V512H640V0Z" fill="white"/>
</mask>
<g mask="url(#mask7_3932_30686)">
<mask id="mask8_3932_30686" style="mask-type:luminance" maskUnits="userSpaceOnUse" x="0" y="0" width="640" height="512">
<path d="M640 0H0V512H640V0Z" fill="white"/>
</mask>
<g mask="url(#mask8_3932_30686)">
<mask id="mask9_3932_30686" style="mask-type:luminance" maskUnits="userSpaceOnUse" x="0" y="0" width="640" height="512">
<path d="M640 0H0V512H640V0Z" fill="white"/>
</mask>
<g mask="url(#mask9_3932_30686)">
<mask id="mask10_3932_30686" style="mask-type:luminance" maskUnits="userSpaceOnUse" x="0" y="0" width="640" height="512">
<path d="M640 0H0V512H640V0Z" fill="white"/>
</mask>
<g mask="url(#mask10_3932_30686)">
<mask id="mask11_3932_30686" style="mask-type:luminance" maskUnits="userSpaceOnUse" x="0" y="0" width="640" height="512">
<path d="M640 0H0V512H640V0Z" fill="white"/>
</mask>
<g mask="url(#mask11_3932_30686)">
<mask id="mask12_3932_30686" style="mask-type:luminance" maskUnits="userSpaceOnUse" x="0" y="0" width="640" height="512">
<path d="M640 0H0V512H640V0Z" fill="white"/>
</mask>
<g mask="url(#mask12_3932_30686)">
<mask id="mask13_3932_30686" style="mask-type:luminance" maskUnits="userSpaceOnUse" x="0" y="0" width="640" height="512">
<path d="M640 0H0V512H640V0Z" fill="white"/>
</mask>
<g mask="url(#mask13_3932_30686)">
<path d="M38.7978 5.09781C28.3978 -3.10219 13.2978 -1.20219 5.09781 9.19781C-3.10219 19.5978 -1.20219 34.6978 9.19781 42.8978L601.198 506.898C611.598 515.098 626.698 513.198 634.898 502.798C643.098 492.398 641.198 477.298 630.798 469.098L489.298 358.198L579.798 267.698C636.298 211.198 636.298 119.698 579.798 63.1978C529.798 13.1978 450.998 6.69781 393.498 47.7978L391.898 48.8978C377.498 59.1978 374.198 79.1978 384.498 93.4978C394.798 107.798 414.798 111.198 429.098 100.898L430.698 99.7978C462.798 76.8978 506.698 80.4978 534.498 108.398C565.998 139.898 565.998 190.898 534.498 222.398L438.498 318.398L406.598 293.398C430.898 239.598 420.098 175.098 376.998 131.998C324.798 79.6978 242.498 75.7979 185.698 120.298L38.7978 5.09781ZM238.998 161.998C269.098 147.098 306.698 152.098 331.798 177.298C351.798 197.298 359.298 225.598 353.498 251.798L238.998 161.998ZM116.598 187.898L60.1978 244.298C3.69781 300.798 3.69781 392.298 60.1978 448.798C110.198 498.798 188.998 505.298 246.498 464.198L248.098 463.098C262.498 452.798 265.798 432.798 255.498 418.498C245.198 404.198 225.198 400.798 210.898 411.098L209.298 412.198C177.198 435.098 133.298 431.498 105.498 403.598C73.9978 371.998 73.9978 320.998 105.498 289.498L167.298 227.698L116.698 187.798L116.598 187.898ZM220.898 269.998C218.798 309.798 233.098 350.098 263.098 379.998C301.998 418.898 357.498 430.998 406.698 416.298L220.898 269.998Z" fill="black"/>
</g>
</g>
</g>
</g>
</g>
</g>
</g>
</g>
</g>
</g>
</g>
</g>
</g>
</g>
</g>
<defs>
<clipPath id="clip0_3932_30686">
<rect width="640" height="512" fill="white"/>
</clipPath>
</defs>
</svg>
