<svg width="512" height="512" viewBox="0 0 512 512" fill="none" xmlns="http://www.w3.org/2000/svg">
<g clip-path="url(#clip0_3932_31042)">
<mask id="mask0_3932_31042" style="mask-type:luminance" maskUnits="userSpaceOnUse" x="0" y="0" width="512" height="512">
<path d="M512 0H0V512H512V0Z" fill="white"/>
</mask>
<g mask="url(#mask0_3932_31042)">
<mask id="mask1_3932_31042" style="mask-type:luminance" maskUnits="userSpaceOnUse" x="0" y="0" width="512" height="512">
<path d="M512 0H0V512H512V0Z" fill="white"/>
</mask>
<g mask="url(#mask1_3932_31042)">
<mask id="mask2_3932_31042" style="mask-type:luminance" maskUnits="userSpaceOnUse" x="0" y="0" width="512" height="512">
<path d="M512 0H0V512H512V0Z" fill="white"/>
</mask>
<g mask="url(#mask2_3932_31042)">
<mask id="mask3_3932_31042" style="mask-type:luminance" maskUnits="userSpaceOnUse" x="0" y="0" width="512" height="512">
<path d="M512 0H0V512H512V0Z" fill="white"/>
</mask>
<g mask="url(#mask3_3932_31042)">
<mask id="mask4_3932_31042" style="mask-type:luminance" maskUnits="userSpaceOnUse" x="0" y="0" width="512" height="512">
<path d="M512 0H0V512H512V0Z" fill="white"/>
</mask>
<g mask="url(#mask4_3932_31042)">
<mask id="mask5_3932_31042" style="mask-type:luminance" maskUnits="userSpaceOnUse" x="0" y="0" width="512" height="512">
<path d="M512 0H0V512H512V0Z" fill="white"/>
</mask>
<g mask="url(#mask5_3932_31042)">
<mask id="mask6_3932_31042" style="mask-type:luminance" maskUnits="userSpaceOnUse" x="0" y="0" width="512" height="512">
<path d="M512 0H0V512H512V0Z" fill="white"/>
</mask>
<g mask="url(#mask6_3932_31042)">
<mask id="mask7_3932_31042" style="mask-type:luminance" maskUnits="userSpaceOnUse" x="0" y="0" width="512" height="512">
<path d="M512 0H0V512H512V0Z" fill="white"/>
</mask>
<g mask="url(#mask7_3932_31042)">
<mask id="mask8_3932_31042" style="mask-type:luminance" maskUnits="userSpaceOnUse" x="0" y="0" width="512" height="512">
<path d="M512 0H0V512H512V0Z" fill="white"/>
</mask>
<g mask="url(#mask8_3932_31042)">
<mask id="mask9_3932_31042" style="mask-type:luminance" maskUnits="userSpaceOnUse" x="0" y="0" width="512" height="512">
<path d="M512 0H0V512H512V0Z" fill="white"/>
</mask>
<g mask="url(#mask9_3932_31042)">
<mask id="mask10_3932_31042" style="mask-type:luminance" maskUnits="userSpaceOnUse" x="0" y="0" width="512" height="512">
<path d="M512 0H0V512H512V0Z" fill="white"/>
</mask>
<g mask="url(#mask10_3932_31042)">
<mask id="mask11_3932_31042" style="mask-type:luminance" maskUnits="userSpaceOnUse" x="0" y="0" width="512" height="512">
<path d="M512 0H0V512H512V0Z" fill="white"/>
</mask>
<g mask="url(#mask11_3932_31042)">
<mask id="mask12_3932_31042" style="mask-type:luminance" maskUnits="userSpaceOnUse" x="0" y="0" width="512" height="512">
<path d="M512 0H0V512H512V0Z" fill="white"/>
</mask>
<g mask="url(#mask12_3932_31042)">
<mask id="mask13_3932_31042" style="mask-type:luminance" maskUnits="userSpaceOnUse" x="0" y="0" width="512" height="512">
<path d="M512 0H0V512H512V0Z" fill="white"/>
</mask>
<g mask="url(#mask13_3932_31042)">
<path d="M256 0C273.7 0 288 14.3 288 32V66.7C368.4 80.1 431.9 143.6 445.3 224H480C497.7 224 512 238.3 512 256C512 273.7 497.7 288 480 288H445.3C431.9 368.4 368.4 431.9 288 445.3V480C288 497.7 273.7 512 256 512C238.3 512 224 497.7 224 480V445.3C143.6 431.9 80.1 368.4 66.7 288H32C14.3 288 0 273.7 0 256C0 238.3 14.3 224 32 224H66.7C80.1 143.6 143.6 80.1 224 66.7V32C224 14.3 238.3 0 256 0ZM128 256C128 289.948 141.486 322.505 165.49 346.51C189.495 370.514 222.052 384 256 384C289.948 384 322.505 370.514 346.51 346.51C370.514 322.505 384 289.948 384 256C384 222.052 370.514 189.495 346.51 165.49C322.505 141.486 289.948 128 256 128C222.052 128 189.495 141.486 165.49 165.49C141.486 189.495 128 222.052 128 256ZM256 176C277.217 176 297.566 184.429 312.569 199.431C327.571 214.434 336 234.783 336 256C336 277.217 327.571 297.566 312.569 312.569C297.566 327.571 277.217 336 256 336C234.783 336 214.434 327.571 199.431 312.569C184.429 297.566 176 277.217 176 256C176 234.783 184.429 214.434 199.431 199.431C214.434 184.429 234.783 176 256 176Z" fill="black"/>
</g>
</g>
</g>
</g>
</g>
</g>
</g>
</g>
</g>
</g>
</g>
</g>
</g>
</g>
</g>
<defs>
<clipPath id="clip0_3932_31042">
<rect width="512" height="512" fill="white"/>
</clipPath>
</defs>
</svg>
