<svg width="512" height="512" viewBox="0 0 512 512" fill="none" xmlns="http://www.w3.org/2000/svg">
<path d="M0 81.1016H77.8V289.802C77.8 322.902 92.8 342.602 105 350.802C92.3 361.902 53.8 371.702 24.8 348.002C7.8 334.002 0 310.702 0 289.002V81.1016ZM485.9 254.602V232.602H509.7V155.802H483.6C473.5 109.502 432.4 75.1016 383.3 75.1016C326.7 75.1016 280.6 121.102 280.6 177.802V357.002C296.6 359.302 316 356.702 332.3 343.002C349.4 329.002 357.1 305.802 357.1 284.002V277.302H395.9V200.502H357.1V177.202C357.1 142.602 409.3 142.602 409.3 177.202V254.302C409.3 310.902 455.3 357.002 512 357.002V280.502C497.5 280.502 485.9 268.802 485.9 254.602ZM191.6 155.602V268.602C191.6 284.002 167.8 284.002 167.8 268.602V155.602H91V288.302C91 312.102 99 342.302 136 352.202C173 362.002 194.2 341.602 194.2 341.602C192.1 355.002 179.7 364.902 159.3 366.902C143.8 368.502 124.1 363.302 114.3 359.102V429.402C139.4 436.902 165.8 439.202 191.9 434.102C239 425.002 268.7 385.702 268.7 333.302V155.102H191.6V155.602Z" fill="black"/>
</svg>
