<svg width="448" height="512" viewBox="0 0 448 512" fill="none" xmlns="http://www.w3.org/2000/svg">
<path d="M22.7 33.4038C36.2 29.3038 50.8 34.5038 58.6 46.3038L224 294.304L389.4 46.2038C397.2 34.5038 411.8 29.2038 425.3 33.3038C438.8 37.4038 448 49.9038 448 64.0038V448.004C448 465.704 433.7 480.004 416 480.004C398.3 480.004 384 465.704 384 448.004V169.704L250.6 369.804C244.7 378.704 234.7 384.004 224 384.004C213.3 384.004 203.3 378.704 197.4 369.804L64 169.704V448.004C64 465.704 49.7 480.004 32 480.004C14.3 480.004 0 465.704 0 448.004V64.0038C0 49.9038 9.2 37.5038 22.7 33.4038Z" fill="black"/>
</svg>
