<svg width="512" height="512" viewBox="0 0 512 512" fill="none" xmlns="http://www.w3.org/2000/svg">
<g clip-path="url(#clip0_3932_31642)">
<mask id="mask0_3932_31642" style="mask-type:luminance" maskUnits="userSpaceOnUse" x="0" y="0" width="512" height="512">
<path d="M512 0H0V512H512V0Z" fill="white"/>
</mask>
<g mask="url(#mask0_3932_31642)">
<mask id="mask1_3932_31642" style="mask-type:luminance" maskUnits="userSpaceOnUse" x="0" y="0" width="512" height="512">
<path d="M512 0H0V512H512V0Z" fill="white"/>
</mask>
<g mask="url(#mask1_3932_31642)">
<mask id="mask2_3932_31642" style="mask-type:luminance" maskUnits="userSpaceOnUse" x="0" y="0" width="512" height="512">
<path d="M512 0H0V512H512V0Z" fill="white"/>
</mask>
<g mask="url(#mask2_3932_31642)">
<mask id="mask3_3932_31642" style="mask-type:luminance" maskUnits="userSpaceOnUse" x="0" y="0" width="512" height="512">
<path d="M512 0H0V512H512V0Z" fill="white"/>
</mask>
<g mask="url(#mask3_3932_31642)">
<mask id="mask4_3932_31642" style="mask-type:luminance" maskUnits="userSpaceOnUse" x="0" y="0" width="512" height="512">
<path d="M512 0H0V512H512V0Z" fill="white"/>
</mask>
<g mask="url(#mask4_3932_31642)">
<mask id="mask5_3932_31642" style="mask-type:luminance" maskUnits="userSpaceOnUse" x="0" y="0" width="512" height="512">
<path d="M512 0H0V512H512V0Z" fill="white"/>
</mask>
<g mask="url(#mask5_3932_31642)">
<mask id="mask6_3932_31642" style="mask-type:luminance" maskUnits="userSpaceOnUse" x="0" y="0" width="512" height="512">
<path d="M512 0H0V512H512V0Z" fill="white"/>
</mask>
<g mask="url(#mask6_3932_31642)">
<mask id="mask7_3932_31642" style="mask-type:luminance" maskUnits="userSpaceOnUse" x="0" y="0" width="512" height="512">
<path d="M512 0H0V512H512V0Z" fill="white"/>
</mask>
<g mask="url(#mask7_3932_31642)">
<mask id="mask8_3932_31642" style="mask-type:luminance" maskUnits="userSpaceOnUse" x="0" y="0" width="512" height="512">
<path d="M512 0H0V512H512V0Z" fill="white"/>
</mask>
<g mask="url(#mask8_3932_31642)">
<mask id="mask9_3932_31642" style="mask-type:luminance" maskUnits="userSpaceOnUse" x="0" y="0" width="512" height="512">
<path d="M512 0H0V512H512V0Z" fill="white"/>
</mask>
<g mask="url(#mask9_3932_31642)">
<mask id="mask10_3932_31642" style="mask-type:luminance" maskUnits="userSpaceOnUse" x="0" y="0" width="512" height="512">
<path d="M512 0H0V512H512V0Z" fill="white"/>
</mask>
<g mask="url(#mask10_3932_31642)">
<mask id="mask11_3932_31642" style="mask-type:luminance" maskUnits="userSpaceOnUse" x="0" y="0" width="512" height="512">
<path d="M512 0H0V512H512V0Z" fill="white"/>
</mask>
<g mask="url(#mask11_3932_31642)">
<mask id="mask12_3932_31642" style="mask-type:luminance" maskUnits="userSpaceOnUse" x="0" y="0" width="512" height="512">
<path d="M512 0H0V512H512V0Z" fill="white"/>
</mask>
<g mask="url(#mask12_3932_31642)">
<mask id="mask13_3932_31642" style="mask-type:luminance" maskUnits="userSpaceOnUse" x="0" y="0" width="512" height="512">
<path d="M512 0H0V512H512V0Z" fill="white"/>
</mask>
<g mask="url(#mask13_3932_31642)">
<path d="M416 208C416 253.9 401.1 296.3 376 330.7L502.6 457.4C515.1 469.9 515.1 490.2 502.6 502.7C490.1 515.2 469.8 515.2 457.3 502.7L330.7 376C296.3 401.2 253.9 416 208 416C93.1 416 0 322.9 0 208C0 93.1 93.1 0 208 0C322.9 0 416 93.1 416 208ZM104 216V280C104 293.3 114.7 304 128 304C141.3 304 152 293.3 152 280V216C152 202.7 141.3 192 128 192C114.7 192 104 202.7 104 216ZM184 120V280C184 293.3 194.7 304 208 304C221.3 304 232 293.3 232 280V120C232 106.7 221.3 96 208 96C194.7 96 184 106.7 184 120ZM264 184V280C264 293.3 274.7 304 288 304C301.3 304 312 293.3 312 280V184C312 170.7 301.3 160 288 160C274.7 160 264 170.7 264 184Z" fill="black"/>
</g>
</g>
</g>
</g>
</g>
</g>
</g>
</g>
</g>
</g>
</g>
</g>
</g>
</g>
</g>
<defs>
<clipPath id="clip0_3932_31642">
<rect width="512" height="512" fill="white"/>
</clipPath>
</defs>
</svg>
