<svg width="448" height="512" viewBox="0 0 448 512" fill="none" xmlns="http://www.w3.org/2000/svg">
<path d="M232.266 511.89C231.266 508.63 230.576 496.06 230.876 487.31C231.426 471.42 231.876 462.59 232.276 458.55C232.916 452.35 235.146 437.83 235.556 437.17C236.156 436.17 235.956 409.3 235.316 404.04C235.006 401.46 234.686 392.14 234.626 383.31C234.496 366.84 234.096 363.19 231.896 358.55C230.796 356.23 230.666 354.71 230.896 347.12C231.075 342.881 230.961 338.634 230.556 334.41C228.556 321.41 227.096 306.71 227.306 300.51C227.516 294.31 227.736 293.36 229.366 290.84C232.416 286.13 235.876 276.84 237.986 267.57C240.246 257.71 241.866 250.39 242.576 246.83C243.688 241.714 245.165 236.685 246.996 231.78C249.266 225.53 249.486 216.39 247.366 216.39C247.066 216.39 245.986 217.61 244.956 219.1C243.926 220.59 240.196 223.9 236.666 226.46C228.296 232.54 224.966 235.85 224.006 239.04C223.046 242.23 223.006 246.27 223.846 246.8C224.186 247.01 225.136 249.2 225.956 251.68C227.582 256.64 227.831 261.949 226.676 267.04C226.286 268.81 225.676 272.51 225.216 275.27C224.756 278.03 224.216 281.73 223.966 283.49C223.788 285.011 223.257 286.47 222.416 287.75C221.416 288.75 221.276 288.66 220.366 287.22C219.624 285.729 219.137 284.123 218.926 282.47C218.676 280.73 217.296 275.36 215.846 270.54C212.566 259.64 212.326 254.39 214.846 249.54C215.665 248.111 216.23 246.552 216.516 244.93C216.516 242.54 214.316 239.61 209.106 235.04C202.106 228.86 200.476 227.12 198.876 223.74C197.166 220.14 195.816 219.68 194.336 222.2C192.556 225.2 191.736 231.31 191.336 244.2L190.996 256.39L192.996 258.64C196.206 262.34 205.066 275.09 206.776 278.47C210.186 285.21 211.116 290.16 211.186 302.03C211.256 313.9 212.136 324.78 213.186 326.74C213.546 327.4 213.696 328.09 213.526 328.26C213.356 328.43 213.936 330.35 214.816 332.53C215.865 335.436 216.557 338.458 216.876 341.53C217.246 345.017 217.817 348.479 218.586 351.9C220.816 361.46 221.356 365.98 220.976 372.04C220.776 375.31 220.446 383.11 220.246 389.36C218.936 431.12 218.396 447.36 218.246 450.57C218.126 452.57 217.856 462.08 217.646 471.64C217.286 487.94 216.346 499.01 215.226 500.29C214.586 501.02 207.156 495.38 202.706 490.8C198.956 486.93 198.706 486.01 199.876 480.85C200.576 477.85 202.136 462.56 203.206 448.23C203.566 443.45 204.016 437.73 204.206 435.52C205.036 426.15 205.866 415.17 206.816 400.74C207.376 392.28 208.146 384.3 208.536 383.01C208.926 381.72 209.426 373.12 209.666 363.9L210.096 347.13L207.836 342.83C206.116 339.55 202.966 335.89 194.616 327.49C188.616 321.42 182.776 315.19 181.706 313.64L179.756 310.83L180.506 299.93C181.596 284.22 181.606 251.36 180.506 240.87L179.616 232.17L176.336 227.65C170.476 219.57 170.536 219.9 170.116 194.38C170.016 188.31 169.736 182.88 169.486 182.32C168.656 180.45 166.436 179.66 160.946 179.27C152.086 178.65 149.946 177.37 137.096 164.72C130.946 158.72 124.756 152.72 123.346 151.53C120.536 149.11 120.556 149.53 122.786 141.9L124.136 137.25L122.446 134.25C121.686 132.831 120.82 131.47 119.856 130.18C118.526 128.67 114.356 119.29 113.856 116.69C113.67 116.019 113.651 115.311 113.803 114.631C113.955 113.951 114.272 113.318 114.726 112.79C116.956 109.93 118.126 107.11 119.176 102.06C121.506 90.87 126.916 75.97 129.776 72.84C132.956 69.37 137.476 71.84 139.186 77.84C140.526 82.63 140.556 87.63 139.286 96.39C138.749 100.072 138.415 103.781 138.286 107.5C138.286 111.5 138.476 112.19 140.536 114.89C143.866 119.26 148.266 122.3 155.736 125.41C157.442 126.121 159.033 127.082 160.456 128.26C171.626 138.98 179.076 144.44 183.406 145.11C188.586 145.91 191.406 149.65 193.406 158.5C194.716 164.15 197.406 169.64 198.866 169.64C200.056 169.397 201.187 168.924 202.196 168.25C204.196 167.03 204.446 166.52 204.446 164.07C204.183 158.085 203.514 152.125 202.446 146.23C202.076 144.57 201.666 142.17 201.516 140.88C201.366 139.59 200.906 137.03 200.516 135.19C197.966 124.03 196.866 119.73 196.416 119.19C194.866 117.19 192.336 108.99 191.486 103.27C189.846 92.16 187.486 89.04 178.576 85.88C173.691 84.0797 169.171 81.41 165.236 78C164.086 77 161.236 74.78 158.886 72.94C156.536 71.1 154.476 69.41 154.286 69.18C153.44 68.448 152.541 67.7795 151.596 67.18C145.356 62.96 142.756 60.18 140.336 55.18L137.896 50.18L137.676 37.18L137.456 24.18L144.366 17.63C148.316 13.88 152.846 10.28 154.956 9.2C158.266 7.51 159.406 7.31 166.326 7.2C174.856 7.01 176.446 7.2 177.986 8.76C179.526 10.32 179.346 15.16 177.696 17.26C177.097 17.9346 176.641 18.7239 176.356 19.58C176.356 20.16 173.746 24.49 170.936 28.58C169.878 30.7511 169.083 33.0406 168.566 35.4C189.006 48.79 190.116 39.17 182.636 64.4L193.996 66.92C197.106 58.26 200.466 49.66 202.606 40.7C202.896 33.07 190.606 36.51 187.206 32.02C184.876 26.09 190.336 17.84 193.266 12.82C194.866 10.48 199.886 8.12 202.086 8.67C202.966 8.89 206.246 8.32 209.456 7.39C211.92 6.61578 214.446 6.05373 217.006 5.71C219.046 5.48927 221.056 5.05694 223.006 4.42C226.656 3.31 227.506 3.25 229.356 4.02C231.245 4.66893 233.195 5.1246 235.176 5.38C237.272 5.66283 239.303 6.30919 241.176 7.29C242.75 8.21179 244.428 8.94039 246.176 9.46C248.686 10.14 249.176 10.03 253.226 7.79L257.576 5.39L268.316 5C278.756 4.6 279.126 4.53 283.576 2.32L288.156 0L290.616 1.43C292.376 2.43 293.756 4.16 295.466 7.43C297.826 11.94 297.846 12.01 296.836 14.8C295.956 17.24 295.946 18.1 296.736 21.19C297.262 23.2177 297.965 25.1953 298.836 27.1C299.479 28.357 299.921 29.7066 300.146 31.1C300.456 35.43 300.146 36.4 297.736 38.02C295.566 39.49 290.736 45.93 290.736 47.36C290.489 48.3956 290.13 49.4015 289.666 50.36C284.666 61.87 282.906 63.92 275.406 67.36C266.206 71.56 263.106 72.55 259.196 72.55C256.096 72.55 255.196 72.8 254.656 73.81C253.488 75.2461 252.109 76.497 250.566 77.52C248.743 78.7375 247.24 80.3773 246.186 82.3C245.704 83.5203 244.827 84.5445 243.696 85.21C242.764 85.5937 241.928 86.1774 241.246 86.92C239.033 88.8639 236.694 90.6611 234.246 92.3C230.916 94.64 227.376 97.3 226.376 98.3C225.706 99.022 224.897 99.6004 223.996 100C223.166 100.374 222.436 100.939 221.866 101.65C220.556 103.04 220.376 103.76 220.726 106.25C221.036 108.246 221.511 110.213 222.146 112.13C223.466 115.93 223.456 119.99 222.146 122.7C220.836 125.41 221.256 129.35 223.496 132.29C225.496 134.92 225.656 136.85 224.206 141.13C223.454 144.039 223.098 147.036 223.146 150.04C223.146 154.92 223.366 156.32 224.606 158.42C225.846 160.52 226.426 160.9 227.846 160.74C229.846 160.51 230.146 159.69 232.556 148.62C234.736 138.62 236.266 136.7 246.316 131.54C249.256 130.03 253.776 127.54 256.316 126.1C258.856 124.66 263.106 122.41 265.686 121.19C271.629 118.589 276.852 114.584 280.906 109.52C288.016 100.73 290.906 93.3 293.756 76.22C294.112 73.46 295.09 70.8168 296.616 68.49C298.045 66.2638 299.026 63.781 299.506 61.18C300.506 55.88 302.356 52.1 305.086 49.67C309.786 45.49 311.086 48.58 309.676 60.54C309.216 64.4 308.576 70.87 308.236 74.92L307.626 82.28L312.076 86.37L316.526 90.46L316.636 98.88C316.696 103.51 317.106 108.41 317.556 109.77L318.376 112.24L311.946 118.52C303.406 126.85 299.066 132.45 295.186 140.13C293.416 143.62 291.446 147.24 290.806 148.13C288.626 151.24 284.346 161.13 282.046 168.39L279.756 175.61L272.756 182.1C268.926 185.67 264.756 189.35 263.586 190.27C260.536 192.59 259.326 195.42 259.326 200.27C259.222 202.787 259.77 205.287 260.916 207.53C261.713 209.095 262.411 210.708 263.006 212.36C263.353 213.409 263.885 214.388 264.576 215.25C265.976 216.84 266.496 231.37 265.406 238.47C264.726 242.95 261.776 250.47 260.706 250.47C258.916 250.47 256.646 259.74 255.636 271.21C255.456 273.21 255.016 277.15 254.636 279.91C254.256 282.67 253.636 289.91 253.286 295.96C252.516 308.18 253.096 314.73 255.286 319.11C258.696 325.8 255.806 331.8 244.286 341.95L240.286 345.44L240.356 350.63C240.41 353.62 240.793 356.594 241.496 359.5C246.106 375.5 246.226 376.42 245.876 396.63C245.416 423.03 245.616 436.9 246.506 440.78C247.001 443.091 247.361 445.428 247.586 447.78C247.756 449.78 248.246 453.11 248.666 455.14C249.136 457.4 249.446 466.14 249.456 477.88V496.94L247.646 499.57C244.936 503.48 232.536 513.11 232.156 511.86L232.266 511.89ZM261.796 466.78C261.616 466.48 261.466 459.91 261.466 452.19C261.466 438.13 260.576 424.65 259.206 417.74C258.806 415.74 258.396 408.04 258.306 400.68C258.156 388.75 256.906 376.31 255.666 374.3C255.006 373.23 252.666 356.64 252.666 353C252.666 348.77 253.666 347 257.946 343.87C262.226 340.74 262.806 340.73 263.426 343.15C263.706 344.25 264.876 348.77 266.026 353.15C269.956 368.27 270.166 369.42 270.076 374.89C269.976 380.67 269.946 381.02 268.336 392.62C267.336 399.69 267.166 405.01 267.336 421.05C267.506 440.45 266.696 456.78 265.336 462.32C264.626 465.1 262.536 467.8 261.906 466.75L261.796 466.78ZM190.796 429.2C190.025 425.637 189.448 422.035 189.066 418.41C188.686 414.785 188.108 411.183 187.336 407.62C186.814 405.49 186.479 403.318 186.336 401.13C186.026 397.94 185.426 393.67 185.006 391.65C184.006 386.86 181.656 372.3 181.586 370.58C181.586 369.84 181.246 366.53 180.886 363.22C180.216 357.01 180.046 335.55 180.666 334.93C181.666 333.93 187.296 337.69 191.996 342.36L197.276 347.61L196.826 354.08C196.576 357.64 196.226 364.31 196.046 368.91C195.866 373.51 195.556 378.78 195.376 380.62C195.196 382.46 194.766 389.98 194.436 397.34C193.646 414.75 192.496 428.63 191.786 429.34C191.718 429.412 191.634 429.466 191.541 429.499C191.448 429.531 191.348 429.541 191.25 429.528C191.152 429.514 191.059 429.477 190.979 429.42C190.898 429.363 190.832 429.288 190.786 429.2H190.796ZM103.616 162.61C124.686 175.4 121.456 176.76 132.106 180.27C145.106 184.56 150.976 187.4 155.256 197.14C111.596 233.28 86.2464 255 78.5464 268C47.5464 320 72.5464 369.59 141.296 355.21C127.116 384.44 63.2964 383.84 42.6164 350.31C17.9364 310.36 20.5264 232.01 103.616 162.65V162.61ZM314.406 341.61C371.066 348.49 396.726 303.87 360.946 252.38C360.946 252.38 334.076 223.04 296.666 184.38C299.666 168.93 306.156 152.26 327.236 130.56C416.436 194.07 419.236 272.17 419.696 279.92C423.996 350.56 340.996 371.1 314.406 341.63V341.61Z" fill="black"/>
</svg>
