<svg width="576" height="512" viewBox="0 0 576 512" fill="none" xmlns="http://www.w3.org/2000/svg">
<path d="M565.6 36.2002C572.1 40.7002 576 48.1002 576 56.0002V392C576 402 569.8 410.9 560.5 414.4L392.5 478.4C387.3 480.4 381.6 480.5 376.4 478.7L192.5 417.5L32.5 478.5C25.1 481.3 16.8 480.3 10.3 475.8C3.8 471.3 0 463.9 0 456V120C0 110 6.1 101.1 15.5 97.6002L183.5 33.6002C188.7 31.6002 194.4 31.5002 199.6 33.3002L383.5 94.5002L543.5 33.5002C550.9 30.7002 559.2 31.7002 565.7 36.2002H565.6ZM48 136.5V421.2L168 375.5V90.8002L48 136.5ZM360 422.7V137.3L216 89.3002V374.7L360 422.7ZM408 421.2L528 375.5V90.8002L408 136.5V421.2Z" fill="black"/>
</svg>
