<svg width="512" height="512" viewBox="0 0 512 512" fill="none" xmlns="http://www.w3.org/2000/svg">
<g clip-path="url(#clip0_3932_32004)">
<mask id="mask0_3932_32004" style="mask-type:luminance" maskUnits="userSpaceOnUse" x="0" y="0" width="512" height="512">
<path d="M512 0H0V512H512V0Z" fill="white"/>
</mask>
<g mask="url(#mask0_3932_32004)">
<mask id="mask1_3932_32004" style="mask-type:luminance" maskUnits="userSpaceOnUse" x="0" y="0" width="512" height="512">
<path d="M512 0H0V512H512V0Z" fill="white"/>
</mask>
<g mask="url(#mask1_3932_32004)">
<mask id="mask2_3932_32004" style="mask-type:luminance" maskUnits="userSpaceOnUse" x="0" y="0" width="512" height="512">
<path d="M512 0H0V512H512V0Z" fill="white"/>
</mask>
<g mask="url(#mask2_3932_32004)">
<mask id="mask3_3932_32004" style="mask-type:luminance" maskUnits="userSpaceOnUse" x="0" y="0" width="512" height="512">
<path d="M512 0H0V512H512V0Z" fill="white"/>
</mask>
<g mask="url(#mask3_3932_32004)">
<mask id="mask4_3932_32004" style="mask-type:luminance" maskUnits="userSpaceOnUse" x="0" y="0" width="512" height="512">
<path d="M512 0H0V512H512V0Z" fill="white"/>
</mask>
<g mask="url(#mask4_3932_32004)">
<mask id="mask5_3932_32004" style="mask-type:luminance" maskUnits="userSpaceOnUse" x="0" y="0" width="512" height="512">
<path d="M512 0H0V512H512V0Z" fill="white"/>
</mask>
<g mask="url(#mask5_3932_32004)">
<mask id="mask6_3932_32004" style="mask-type:luminance" maskUnits="userSpaceOnUse" x="0" y="0" width="512" height="512">
<path d="M512 0H0V512H512V0Z" fill="white"/>
</mask>
<g mask="url(#mask6_3932_32004)">
<mask id="mask7_3932_32004" style="mask-type:luminance" maskUnits="userSpaceOnUse" x="0" y="0" width="512" height="512">
<path d="M512 0H0V512H512V0Z" fill="white"/>
</mask>
<g mask="url(#mask7_3932_32004)">
<mask id="mask8_3932_32004" style="mask-type:luminance" maskUnits="userSpaceOnUse" x="0" y="0" width="512" height="512">
<path d="M512 0H0V512H512V0Z" fill="white"/>
</mask>
<g mask="url(#mask8_3932_32004)">
<mask id="mask9_3932_32004" style="mask-type:luminance" maskUnits="userSpaceOnUse" x="0" y="0" width="512" height="512">
<path d="M512 0H0V512H512V0Z" fill="white"/>
</mask>
<g mask="url(#mask9_3932_32004)">
<mask id="mask10_3932_32004" style="mask-type:luminance" maskUnits="userSpaceOnUse" x="0" y="0" width="512" height="512">
<path d="M512 0H0V512H512V0Z" fill="white"/>
</mask>
<g mask="url(#mask10_3932_32004)">
<mask id="mask11_3932_32004" style="mask-type:luminance" maskUnits="userSpaceOnUse" x="0" y="0" width="512" height="512">
<path d="M512 0H0V512H512V0Z" fill="white"/>
</mask>
<g mask="url(#mask11_3932_32004)">
<mask id="mask12_3932_32004" style="mask-type:luminance" maskUnits="userSpaceOnUse" x="0" y="0" width="512" height="512">
<path d="M512 0H0V512H512V0Z" fill="white"/>
</mask>
<g mask="url(#mask12_3932_32004)">
<mask id="mask13_3932_32004" style="mask-type:luminance" maskUnits="userSpaceOnUse" x="0" y="0" width="512" height="512">
<path d="M512 0H0V512H512V0Z" fill="white"/>
</mask>
<g mask="url(#mask13_3932_32004)">
<path d="M480.997 30.9984C445.097 -4.80155 386.897 -4.80155 350.997 30.9984L335.997 45.9984L322.897 32.9984C294.797 4.89847 249.197 4.89847 221.097 32.9984L134.997 118.998C125.597 128.398 125.597 143.598 134.997 152.898C144.397 162.198 159.597 162.298 168.897 152.898L254.997 66.8984C264.397 57.4984 279.597 57.4984 288.897 66.8984L302.097 79.9984L186.297 195.698L316.297 325.698L480.997 160.998C516.897 125.098 516.897 66.8984 480.997 31.0984V30.9984ZM293.697 348.298L163.697 218.298L99.4971 282.498C51.4971 330.498 18.6971 391.698 5.39708 458.298L0.397077 483.298C-1.20292 491.198 1.29708 499.298 6.99708 504.998C12.6971 510.698 20.7971 513.098 28.6971 511.598L53.6971 506.598C120.297 493.298 181.497 460.498 229.497 412.498L293.697 348.298Z" fill="black"/>
</g>
</g>
</g>
</g>
</g>
</g>
</g>
</g>
</g>
</g>
</g>
</g>
</g>
</g>
</g>
<defs>
<clipPath id="clip0_3932_32004">
<rect width="512" height="512" fill="white"/>
</clipPath>
</defs>
</svg>
