<svg width="512" height="512" viewBox="0 0 512 512" fill="none" xmlns="http://www.w3.org/2000/svg">
<path d="M337.8 14.8C341.5 5.8 350.3 0 360 0H472C485.3 0 496 10.7 496 24V136C496 145.7 490.2 154.5 481.2 158.2C472.2 161.9 461.9 159.9 455 153L416 114L391.3 138.7C407 163.3 416 192.6 416 224C416 304.2 357 370.6 280 382.2V408H304C317.3 408 328 418.7 328 432C328 445.3 317.3 456 304 456H280V488C280 501.3 269.3 512 256 512C242.7 512 232 501.3 232 488V456H208C194.7 456 184 445.3 184 432C184 418.7 194.7 408 208 408H232V382.2C155 370.6 96 304.2 96 224C96 135.6 167.6 64 256 64C295.6 64 331.9 78.4 359.8 102.2L382.1 80L343 41C336.1 34.1 334.1 23.8 337.8 14.8ZM352 224C352 198.539 341.886 174.121 323.882 156.118C305.879 138.114 281.461 128 256 128C230.539 128 206.121 138.114 188.118 156.118C170.114 174.121 160 198.539 160 224C160 249.461 170.114 273.879 188.118 291.882C206.121 309.886 230.539 320 256 320C281.461 320 305.879 309.886 323.882 291.882C341.886 273.879 352 249.461 352 224Z" fill="black"/>
</svg>
