<svg width="512" height="512" viewBox="0 0 512 512" fill="none" xmlns="http://www.w3.org/2000/svg">
<path d="M376 0C366.3 0 357.5 5.8 353.8 14.8C350.1 23.8 352.1 34.1 359 41L392.4 74.4L370.3 96.4L345 71C335.6 61.6 320.4 61.6 311.1 71C301.8 80.4 301.7 95.6 311.1 104.9L336.5 130.3L307.8 159C279.4 139.5 245.1 128 208 128C110.8 128 32 206.8 32 304C32 401.2 110.8 480 208 480C305.2 480 384 401.2 384 304C384 267 372.6 232.6 353 204.2L381.6 175.6L407 201C416.4 210.4 431.6 210.4 440.9 201C450.2 191.6 450.3 176.4 440.9 167.1L415.5 141.7L437.6 119.6L471 153C477.9 159.9 488.2 161.9 497.2 158.2C506.2 154.5 512 145.7 512 136V24C512 10.7 501.3 0 488 0H376ZM96 304C96 289.292 98.897 274.728 104.525 261.139C110.154 247.551 118.404 235.204 128.804 224.804C139.204 214.404 151.551 206.154 165.139 200.525C178.728 194.897 193.292 192 208 192C222.708 192 237.272 194.897 250.861 200.525C264.449 206.154 276.796 214.404 287.196 224.804C297.596 235.204 305.846 247.551 311.475 261.139C317.103 274.728 320 289.292 320 304C320 318.708 317.103 333.272 311.475 346.861C305.846 360.449 297.596 372.796 287.196 383.196C276.796 393.596 264.449 401.846 250.861 407.475C237.272 413.103 222.708 416 208 416C193.292 416 178.728 413.103 165.139 407.475C151.551 401.846 139.204 393.596 128.804 383.196C118.404 372.796 110.154 360.449 104.525 346.861C98.897 333.272 96 318.708 96 304Z" fill="black"/>
</svg>
