<svg width="448" height="512" viewBox="0 0 448 512" fill="none" xmlns="http://www.w3.org/2000/svg">
<path d="M432.999 179.105C432.999 81.9048 369.289 53.4048 369.289 53.4048C306.769 24.7048 140.729 25.0048 78.8087 53.4048C78.8087 53.4048 15.0887 81.9048 15.0887 179.105C15.0887 294.805 8.48895 438.505 120.719 468.205C161.229 478.905 196.039 481.205 224.049 479.605C274.859 476.805 303.369 461.505 303.369 461.505L301.669 424.605C301.669 424.605 265.359 436.005 224.549 434.705C184.139 433.305 141.549 430.305 134.919 380.705C134.304 376.097 134.003 371.453 134.019 366.805C219.649 387.705 292.669 375.905 312.769 373.505C368.889 366.805 417.769 332.205 423.999 300.605C433.799 250.805 432.999 179.105 432.999 179.105ZM357.879 304.305H311.249V190.105C311.249 140.405 247.249 138.505 247.249 197.005V259.505H200.919V196.995C200.919 138.495 136.919 140.395 136.919 190.095V304.295H90.1887C90.1887 182.195 84.9887 156.395 108.599 129.295C134.499 100.395 188.419 98.4948 212.429 135.395L224.029 154.895L235.629 135.395C259.739 98.2948 313.749 100.595 339.459 129.295C363.169 156.595 357.859 182.295 357.859 304.295L357.879 304.305Z" fill="black"/>
</svg>
