<svg width="640" height="512" viewBox="0 0 640 512" fill="none" xmlns="http://www.w3.org/2000/svg">
<path d="M180.5 74.2578C80.813 74.2578 0 155.629 0 255.996C0 356.363 80.819 437.734 180.5 437.734C280.181 437.734 361 356.369 361 255.996C361 155.623 280.191 74.2578 180.5 74.2578ZM468.75 84.9038C418.905 84.9038 378.505 161.523 378.505 255.999C378.505 350.475 418.911 427.099 468.756 427.099C518.601 427.099 559.007 350.48 559.007 255.999H559C559 161.496 518.6 84.9038 468.752 84.9038H468.75ZM608.256 102.725C590.73 102.725 576.521 171.353 576.521 255.999C576.521 340.645 590.721 409.273 608.256 409.273C625.791 409.273 640 340.627 640 255.996C640 171.347 625.785 102.725 608.258 102.725H608.256Z" fill="black"/>
</svg>
