<svg width="512" height="512" viewBox="0 0 512 512" fill="none" xmlns="http://www.w3.org/2000/svg">
<g clip-path="url(#clip0_3932_32608)">
<mask id="mask0_3932_32608" style="mask-type:luminance" maskUnits="userSpaceOnUse" x="0" y="0" width="512" height="512">
<path d="M512 0H0V512H512V0Z" fill="white"/>
</mask>
<g mask="url(#mask0_3932_32608)">
<mask id="mask1_3932_32608" style="mask-type:luminance" maskUnits="userSpaceOnUse" x="0" y="0" width="512" height="512">
<path d="M512 0H0V512H512V0Z" fill="white"/>
</mask>
<g mask="url(#mask1_3932_32608)">
<mask id="mask2_3932_32608" style="mask-type:luminance" maskUnits="userSpaceOnUse" x="0" y="0" width="512" height="512">
<path d="M512 0H0V512H512V0Z" fill="white"/>
</mask>
<g mask="url(#mask2_3932_32608)">
<mask id="mask3_3932_32608" style="mask-type:luminance" maskUnits="userSpaceOnUse" x="0" y="0" width="512" height="512">
<path d="M512 0H0V512H512V0Z" fill="white"/>
</mask>
<g mask="url(#mask3_3932_32608)">
<mask id="mask4_3932_32608" style="mask-type:luminance" maskUnits="userSpaceOnUse" x="0" y="0" width="512" height="512">
<path d="M512 0H0V512H512V0Z" fill="white"/>
</mask>
<g mask="url(#mask4_3932_32608)">
<mask id="mask5_3932_32608" style="mask-type:luminance" maskUnits="userSpaceOnUse" x="0" y="0" width="512" height="512">
<path d="M512 0H0V512H512V0Z" fill="white"/>
</mask>
<g mask="url(#mask5_3932_32608)">
<mask id="mask6_3932_32608" style="mask-type:luminance" maskUnits="userSpaceOnUse" x="0" y="0" width="512" height="512">
<path d="M512 0H0V512H512V0Z" fill="white"/>
</mask>
<g mask="url(#mask6_3932_32608)">
<mask id="mask7_3932_32608" style="mask-type:luminance" maskUnits="userSpaceOnUse" x="0" y="0" width="512" height="512">
<path d="M512 0H0V512H512V0Z" fill="white"/>
</mask>
<g mask="url(#mask7_3932_32608)">
<mask id="mask8_3932_32608" style="mask-type:luminance" maskUnits="userSpaceOnUse" x="0" y="0" width="512" height="512">
<path d="M512 0H0V512H512V0Z" fill="white"/>
</mask>
<g mask="url(#mask8_3932_32608)">
<mask id="mask9_3932_32608" style="mask-type:luminance" maskUnits="userSpaceOnUse" x="0" y="0" width="512" height="512">
<path d="M512 0H0V512H512V0Z" fill="white"/>
</mask>
<g mask="url(#mask9_3932_32608)">
<mask id="mask10_3932_32608" style="mask-type:luminance" maskUnits="userSpaceOnUse" x="0" y="0" width="512" height="512">
<path d="M512 0H0V512H512V0Z" fill="white"/>
</mask>
<g mask="url(#mask10_3932_32608)">
<mask id="mask11_3932_32608" style="mask-type:luminance" maskUnits="userSpaceOnUse" x="0" y="0" width="512" height="512">
<path d="M512 0H0V512H512V0Z" fill="white"/>
</mask>
<g mask="url(#mask11_3932_32608)">
<mask id="mask12_3932_32608" style="mask-type:luminance" maskUnits="userSpaceOnUse" x="0" y="0" width="512" height="512">
<path d="M512 0H0V512H512V0Z" fill="white"/>
</mask>
<g mask="url(#mask12_3932_32608)">
<mask id="mask13_3932_32608" style="mask-type:luminance" maskUnits="userSpaceOnUse" x="0" y="0" width="512" height="512">
<path d="M512 0H0V512H512V0Z" fill="white"/>
</mask>
<g mask="url(#mask13_3932_32608)">
<path d="M99.0034 414.299C100.103 419.999 96.7034 425.399 91.0034 426.599C85.6034 427.699 80.1034 424.299 79.0034 418.599C77.9034 413.199 81.3034 407.499 86.7034 406.299C92.1034 405.099 97.8034 408.599 99.0034 414.299ZM242.103 485.699C235.803 490.299 234.103 499.099 238.403 505.699C243.003 512.299 251.803 513.999 258.403 509.399C264.703 504.799 266.403 495.999 261.803 489.399C257.603 482.899 248.703 481.099 242.103 485.699ZM156.103 23.399C162.403 21.999 166.403 15.699 165.003 9.39897C163.903 2.79897 157.603 -1.20103 151.303 0.298977C145.003 1.69897 141.003 7.99897 142.203 14.299C143.603 20.899 149.803 24.899 156.103 23.399ZM34.4034 226.299C24.4034 219.399 10.7034 221.999 3.80336 232.299C-3.09664 242.299 -0.496655 256.299 9.50336 263.199C19.5034 270.299 33.2034 267.799 40.1034 257.499C47.0034 247.099 44.4034 233.399 34.4034 226.299ZM306.403 55.399C317.003 49.099 320.103 35.399 314.103 25.099C307.803 14.499 294.403 11.0989 284.103 17.399C273.803 23.699 270.403 37.3989 276.703 47.999C282.703 58.2989 296.103 61.699 306.403 55.399ZM115.303 113.399C123.003 107.999 124.703 97.3989 119.603 89.699C114.503 81.999 103.903 80.299 96.5034 85.399C88.8034 90.799 87.1034 101.399 92.2034 109.099C97.3034 116.899 107.803 118.599 115.303 113.399ZM487.603 269.399C480.203 271.099 475.303 278.499 477.003 286.299C478.403 293.699 485.903 298.599 493.303 296.899C500.703 295.499 505.603 287.999 503.903 280.299C502.403 272.899 495.003 267.999 487.603 269.399ZM527.303 212.599C526.203 206.899 520.703 203.499 515.303 204.599C509.603 205.699 506.203 211.499 507.303 217.199C508.403 222.599 513.903 226.299 519.603 225.199C525.003 223.699 528.703 218.299 527.303 212.599ZM447.003 138.899C438.403 144.899 436.403 156.599 442.103 165.199C447.803 173.799 459.503 175.799 468.103 170.099C476.403 164.099 478.403 152.399 472.703 143.799C467.003 135.099 455.303 132.899 447.003 138.899ZM440.703 278.299C467.003 321.399 455.803 378.299 414.403 407.399C397.003 419.699 377.303 425.099 357.503 424.499C345.503 471.599 288.103 489.099 252.403 457.099C251.303 457.999 249.803 458.799 248.703 459.999C209.603 487.099 156.403 477.399 129.303 437.699C119.603 423.399 114.703 407.099 114.203 390.799C48.8034 379.899 24.2034 296.799 73.1034 251.099C44.8034 204.199 73.7034 143.699 126.503 136.199C151.603 69.999 234.103 38.599 290.103 81.999C357.503 59.699 426.403 111.399 421.003 183.099C462.103 195.699 473.803 249.999 440.703 278.299ZM370.703 352.599C367.603 331.999 329.803 347.999 327.603 325.499C324.503 293.499 371.303 224.399 367.603 197.499C364.203 173.499 348.203 168.399 334.203 168.099C320.803 167.799 317.303 170.099 312.803 172.699C309.903 174.399 306.203 177.599 301.103 172.399C294.803 166.399 290.003 160.699 281.703 159.499C269.403 157.499 264.003 161.499 255.103 169.199C251.703 172.099 243.103 182.099 235.103 178.299C231.703 176.599 219.703 170.599 211.103 166.899C194.803 159.799 171.103 171.499 162.503 186.899C149.603 209.799 124.503 299.999 120.803 311.999C112.203 338.599 131.703 360.599 157.703 359.099C168.803 358.499 176.003 354.499 183.103 341.699C187.103 334.299 224.803 233.999 227.703 229.099C229.703 225.699 236.603 221.099 242.303 223.999C248.003 227.099 249.203 233.399 248.303 239.099C247.203 248.799 220.303 309.999 219.403 316.799C216.003 339.699 246.303 343.399 258.003 320.799C261.703 313.699 303.703 228.199 307.403 222.499C311.703 216.199 314.803 214.199 319.103 214.499C322.203 214.499 327.403 215.399 326.203 225.399C324.803 234.799 291.103 297.699 287.303 313.099C282.703 333.699 293.903 354.499 312.203 363.699C323.603 369.399 374.703 379.399 370.703 352.599ZM376.403 444.899C366.103 452.299 363.503 466.899 370.703 477.499C377.803 488.099 392.103 490.599 402.703 483.499C413.303 476.099 415.803 461.499 408.703 450.899C401.303 440.299 387.003 437.399 376.403 444.899Z" fill="black"/>
</g>
</g>
</g>
</g>
</g>
</g>
</g>
</g>
</g>
</g>
</g>
</g>
</g>
</g>
</g>
<defs>
<clipPath id="clip0_3932_32608">
<rect width="512" height="512" fill="white"/>
</clipPath>
</defs>
</svg>
