<svg width="496" height="512" viewBox="0 0 496 512" fill="none" xmlns="http://www.w3.org/2000/svg">
<path d="M214.5 209.6V275.8L248 309.3L281.3 276V209.6L247.9 176.2L214.5 209.6ZM248 8C111 8 0 119 0 256C0 393 111 504 248 504C385 504 496 393 496 256C496 119 385 8 248 8ZM393.1 422.4L367 441.6L341 422.4V356.9L307.6 323.5L274.2 356.9V422.4L248 441.6L221.9 422.4V356.9L188.5 323.5L155 356.9V422.4L128.9 441.6L102.8 422.4V335.4L162.3 275.9V188L221.8 128.5V52.9L247.9 33.7L274 52.9V128.5L333.5 188V275.6L393.2 335.3V422.4H393.1Z" fill="black"/>
</svg>
