<svg width="640" height="512" viewBox="0 0 640 512" fill="none" xmlns="http://www.w3.org/2000/svg">
<path d="M640 317.898C640 409.198 600.6 466.398 529.7 466.398C467.1 466.398 433.9 431.798 372.8 329.798L341.4 277.198C333.1 264.698 326.9 252.998 320.2 242.198C300.1 275.998 273.1 325.198 273.1 325.198C206.1 441.798 168.5 466.398 116.2 466.398C43.42 466.398 0 409.098 0 320.498C0 177.498 79.78 42.3984 183.9 42.3984C234.1 42.3984 277.7 67.0784 328.7 131.898C365.8 81.7984 406.8 42.3984 459.3 42.3984C558.4 42.3984 640 168.098 640 317.898ZM287.4 192.198C244.5 130.098 216.5 111.698 183 111.698C121.1 111.698 69.22 217.798 69.22 321.698C69.22 370.198 87.7 397.398 118.8 397.398C149 397.398 167.8 378.398 222 293.598C222 293.598 246.7 254.498 287.4 192.198ZM531.2 397.398C563.4 397.398 578.1 369.898 578.1 322.498C578.1 198.298 523.8 97.0784 454.9 97.0784C421.7 97.0784 393.8 122.998 360 175.098C369.4 188.898 379.1 204.098 389.3 220.498L426.8 282.898C485.5 376.998 500.3 397.398 531.2 397.398Z" fill="black"/>
</svg>
