<svg width="384" height="512" viewBox="0 0 384 512" fill="none" xmlns="http://www.w3.org/2000/svg">
<path d="M192 0C139 0 96 43 96 96V256C96 309 139 352 192 352C245 352 288 309 288 256V96C288 43 245 0 192 0ZM64 216C64 202.7 53.3 192 40 192C26.7 192 16 202.7 16 216V256C16 345.1 82.2 418.7 168 430.4V464H120C106.7 464 96 474.7 96 488C96 501.3 106.7 512 120 512H192H264C277.3 512 288 501.3 288 488C288 474.7 277.3 464 264 464H216V430.4C301.8 418.7 368 345.1 368 256V216C368 202.7 357.3 192 344 192C330.7 192 320 202.7 320 216V256C320 326.7 262.7 384 192 384C121.3 384 64 326.7 64 256V216Z" fill="black"/>
</svg>
