<svg width="384" height="512" viewBox="0 0 384 512" fill="none" xmlns="http://www.w3.org/2000/svg">
<path d="M16 64C16 28.7 44.7 0 80 0H304C339.3 0 368 28.7 368 64V448C368 483.3 339.3 512 304 512H80C44.7 512 16 483.3 16 448V64ZM224 448C224 439.513 220.629 431.374 214.627 425.373C208.626 419.371 200.487 416 192 416C183.513 416 175.374 419.371 169.373 425.373C163.371 431.374 160 439.513 160 448C160 456.487 163.371 464.626 169.373 470.627C175.374 476.629 183.513 480 192 480C200.487 480 208.626 476.629 214.627 470.627C220.629 464.626 224 456.487 224 448ZM304 64H80V384H304V64Z" fill="black"/>
</svg>
