<svg width="576" height="512" viewBox="0 0 576 512" fill="none" xmlns="http://www.w3.org/2000/svg">
<path d="M64 64C28.7 64 0 92.7 0 128V384C0 419.3 28.7 448 64 448H512C547.3 448 576 419.3 576 384V128C576 92.7 547.3 64 512 64H64ZM272 192H496C504.8 192 512 199.2 512 208C512 216.8 504.8 224 496 224H272C263.2 224 256 216.8 256 208C256 199.2 263.2 192 272 192ZM256 304C256 295.2 263.2 288 272 288H496C504.8 288 512 295.2 512 304C512 312.8 504.8 320 496 320H272C263.2 320 256 312.8 256 304ZM164 152V165.9C171.5 167.1 178.6 168.8 185.1 170.6C195.8 173.4 202.1 184.4 199.3 195.1C196.5 205.8 185.5 212.1 174.8 209.3C163.8 206.4 153.2 204.3 143.6 204.1C135.7 204 127.6 205.9 122.1 209.1C117.3 211.9 115.9 214.7 115.9 218.4C115.9 220.2 116 221.9 121.2 225.1C127.5 228.9 136.7 231.8 149.5 235.6L150.2 235.8C161.4 239.2 175.8 243.5 187.3 250.8C200.2 258.9 211.6 272.1 211.9 292.4C212.2 313.3 201.4 328.5 187.1 337.4C179.9 341.9 171.9 344.7 163.9 346.4V360C163.9 371 154.9 380 143.9 380C132.9 380 123.9 371 123.9 360V345.4C113.6 343.2 103.9 339.9 95.7 337C93.6 336.3 91.6 335.6 89.6 334.9C79.1 331.4 73.5 320.1 77 309.6C80.5 299.1 91.8 293.5 102.3 297C104.8 297.8 107.2 298.7 109.5 299.4C123.1 304 133.5 307.5 144.6 307.9C153.2 308.2 161.1 306.3 166 303.2C170.1 300.7 172 297.7 171.9 292.7C171.9 289.8 171.1 287.7 166 284.5C159.7 280.5 150.6 277.6 138 273.8L136.3 273.3C125.4 270 111.7 265.9 100.7 259.3C88 251.6 76.1 238.8 76 218.6C75.9 197.5 87.8 182.9 101.8 174.7C108.7 170.6 116.3 167.9 124 166.2V152C124 141 133 132 144 132C155 132 164 141 164 152Z" fill="black"/>
</svg>
