<svg width="640" height="512" viewBox="0 0 640 512" fill="none" xmlns="http://www.w3.org/2000/svg">
<g clip-path="url(#clip0_3932_33934)">
<mask id="mask0_3932_33934" style="mask-type:luminance" maskUnits="userSpaceOnUse" x="0" y="0" width="640" height="512">
<path d="M640 0H0V512H640V0Z" fill="white"/>
</mask>
<g mask="url(#mask0_3932_33934)">
<mask id="mask1_3932_33934" style="mask-type:luminance" maskUnits="userSpaceOnUse" x="0" y="0" width="640" height="512">
<path d="M640 0H0V512H640V0Z" fill="white"/>
</mask>
<g mask="url(#mask1_3932_33934)">
<mask id="mask2_3932_33934" style="mask-type:luminance" maskUnits="userSpaceOnUse" x="0" y="0" width="640" height="512">
<path d="M640 0H0V512H640V0Z" fill="white"/>
</mask>
<g mask="url(#mask2_3932_33934)">
<mask id="mask3_3932_33934" style="mask-type:luminance" maskUnits="userSpaceOnUse" x="0" y="0" width="640" height="512">
<path d="M640 0H0V512H640V0Z" fill="white"/>
</mask>
<g mask="url(#mask3_3932_33934)">
<mask id="mask4_3932_33934" style="mask-type:luminance" maskUnits="userSpaceOnUse" x="0" y="0" width="640" height="512">
<path d="M640 0H0V512H640V0Z" fill="white"/>
</mask>
<g mask="url(#mask4_3932_33934)">
<mask id="mask5_3932_33934" style="mask-type:luminance" maskUnits="userSpaceOnUse" x="0" y="0" width="640" height="512">
<path d="M640 0H0V512H640V0Z" fill="white"/>
</mask>
<g mask="url(#mask5_3932_33934)">
<mask id="mask6_3932_33934" style="mask-type:luminance" maskUnits="userSpaceOnUse" x="0" y="0" width="640" height="512">
<path d="M640 0H0V512H640V0Z" fill="white"/>
</mask>
<g mask="url(#mask6_3932_33934)">
<mask id="mask7_3932_33934" style="mask-type:luminance" maskUnits="userSpaceOnUse" x="0" y="0" width="640" height="512">
<path d="M640 0H0V512H640V0Z" fill="white"/>
</mask>
<g mask="url(#mask7_3932_33934)">
<mask id="mask8_3932_33934" style="mask-type:luminance" maskUnits="userSpaceOnUse" x="0" y="0" width="640" height="512">
<path d="M640 0H0V512H640V0Z" fill="white"/>
</mask>
<g mask="url(#mask8_3932_33934)">
<mask id="mask9_3932_33934" style="mask-type:luminance" maskUnits="userSpaceOnUse" x="0" y="0" width="640" height="512">
<path d="M640 0H0V512H640V0Z" fill="white"/>
</mask>
<g mask="url(#mask9_3932_33934)">
<mask id="mask10_3932_33934" style="mask-type:luminance" maskUnits="userSpaceOnUse" x="0" y="0" width="640" height="512">
<path d="M640 0H0V512H640V0Z" fill="white"/>
</mask>
<g mask="url(#mask10_3932_33934)">
<mask id="mask11_3932_33934" style="mask-type:luminance" maskUnits="userSpaceOnUse" x="0" y="0" width="640" height="512">
<path d="M640 0H0V512H640V0Z" fill="white"/>
</mask>
<g mask="url(#mask11_3932_33934)">
<mask id="mask12_3932_33934" style="mask-type:luminance" maskUnits="userSpaceOnUse" x="0" y="0" width="640" height="512">
<path d="M640 0H0V512H640V0Z" fill="white"/>
</mask>
<g mask="url(#mask12_3932_33934)">
<mask id="mask13_3932_33934" style="mask-type:luminance" maskUnits="userSpaceOnUse" x="0" y="0" width="640" height="512">
<path d="M640 0H0V512H640V0Z" fill="white"/>
</mask>
<g mask="url(#mask13_3932_33934)">
<path d="M168.8 462.301C160.9 458.301 157.7 448.701 161.6 440.801L192 380.201V336.001C192 331.801 193.7 327.701 196.7 324.701L256 265.401V242.201L139.2 344.001C87.8 395.301 0 358.901 0 286.301C0 245.201 30.6 210.501 71.4 205.401L231.3 181.501L181.7 140.201C176.6 136.001 174.7 129.101 176.8 122.801L190.7 81.101L161.7 23.0009C157.7 15.101 161 5.50094 168.9 1.50094C176.8 -2.49906 186.4 0.800944 190.4 8.70094L222.4 72.701C224.3 76.501 224.6 80.901 223.3 84.901L210.8 122.501L256 160.501V137.901C256 123.001 266.1 110.601 279.8 106.901V63.701C279.8 59.201 283.5 55.5009 288 55.5009C292.5 55.5009 296.2 59.201 296.2 63.701V107.001C309.9 110.601 320 123.101 320 138.001V160.601L365.4 122.801L352.8 85.101C351.5 81.101 351.8 76.701 353.7 72.901L385.7 8.90094C389.7 1.00094 399.3 -2.19906 407.2 1.70094C415.1 5.60094 418.3 15.3009 414.4 23.2009L385.4 81.301L399.3 123.001C401.4 129.201 399.4 136.101 394.4 140.401L344.8 181.701L504.7 205.601C527.2 208.401 546.5 220.201 559.4 237.001C556.7 239.601 554.2 242.401 552.1 245.601C543.5 232.701 528.8 224.101 512.1 224.101C495.4 224.101 480.7 232.601 472.1 245.601C463.5 232.701 448.8 224.101 432.1 224.101C410.4 224.101 392.1 238.401 386.2 258.201C375.5 261.401 366.4 268.301 360.3 277.401L320.1 242.401V265.501L352.5 297.901C352.2 299.901 352.1 302.001 352.1 304.101C352.1 320.801 360.6 335.501 373.6 344.101C369.6 346.701 366.1 350.001 363 353.601L320 310.601V360.601C320 378.301 305.7 392.601 288 392.601C270.3 392.601 256 378.301 256 360.601V310.601L224 342.601V384.001C224 386.501 223.4 388.901 222.3 391.201L190.3 455.201C186.3 463.101 176.7 466.301 168.8 462.401V462.301ZM512 256.001C520.8 256.001 528 263.201 528 272.001V288.001H576V272.001C576 263.201 583.2 256.001 592 256.001C600.8 256.001 608 263.201 608 272.001V288.001H624C632.8 288.001 640 295.201 640 304.001C640 312.801 632.8 320.001 624 320.001H608V368.001H624C632.8 368.001 640 375.201 640 384.001C640 392.801 632.8 400.001 624 400.001H608V448.001H624C632.8 448.001 640 455.201 640 464.001C640 472.801 632.8 480.001 624 480.001H608V496.001C608 504.801 600.8 512.001 592 512.001C583.2 512.001 576 504.801 576 496.001V480.001H528V496.001C528 504.801 520.8 512.001 512 512.001C503.2 512.001 496 504.801 496 496.001V480.001H448V496.001C448 504.801 440.8 512.001 432 512.001C423.2 512.001 416 504.801 416 496.001V480.001H400C391.2 480.001 384 472.801 384 464.001C384 455.201 391.2 448.001 400 448.001H416V400.001H400C391.2 400.001 384 392.801 384 384.001C384 375.201 391.2 368.001 400 368.001H416V320.001H400C391.2 320.001 384 312.801 384 304.001C384 295.201 391.2 288.001 400 288.001H416V272.001C416 263.201 423.2 256.001 432 256.001C440.8 256.001 448 263.201 448 272.001V288.001H496V272.001C496 263.201 503.2 256.001 512 256.001ZM528 368.001H576V320.001H528V368.001ZM528 448.001H576V400.001H528V448.001ZM448 320.001V368.001H496V320.001H448ZM448 400.001V448.001H496V400.001H448Z" fill="black"/>
</g>
</g>
</g>
</g>
</g>
</g>
</g>
</g>
</g>
</g>
</g>
</g>
</g>
</g>
</g>
<defs>
<clipPath id="clip0_3932_33934">
<rect width="640" height="512" fill="white"/>
</clipPath>
</defs>
</svg>
