<svg width="640" height="512" viewBox="0 0 640 512" fill="none" xmlns="http://www.w3.org/2000/svg">
<g clip-path="url(#clip0_3932_33818)">
<mask id="mask0_3932_33818" style="mask-type:luminance" maskUnits="userSpaceOnUse" x="0" y="0" width="640" height="512">
<path d="M640 0H0V512H640V0Z" fill="white"/>
</mask>
<g mask="url(#mask0_3932_33818)">
<mask id="mask1_3932_33818" style="mask-type:luminance" maskUnits="userSpaceOnUse" x="0" y="0" width="640" height="512">
<path d="M640 0H0V512H640V0Z" fill="white"/>
</mask>
<g mask="url(#mask1_3932_33818)">
<mask id="mask2_3932_33818" style="mask-type:luminance" maskUnits="userSpaceOnUse" x="0" y="0" width="640" height="512">
<path d="M640 0H0V512H640V0Z" fill="white"/>
</mask>
<g mask="url(#mask2_3932_33818)">
<mask id="mask3_3932_33818" style="mask-type:luminance" maskUnits="userSpaceOnUse" x="0" y="0" width="640" height="512">
<path d="M640 0H0V512H640V0Z" fill="white"/>
</mask>
<g mask="url(#mask3_3932_33818)">
<mask id="mask4_3932_33818" style="mask-type:luminance" maskUnits="userSpaceOnUse" x="0" y="0" width="640" height="512">
<path d="M640 0H0V512H640V0Z" fill="white"/>
</mask>
<g mask="url(#mask4_3932_33818)">
<mask id="mask5_3932_33818" style="mask-type:luminance" maskUnits="userSpaceOnUse" x="0" y="0" width="640" height="512">
<path d="M640 0H0V512H640V0Z" fill="white"/>
</mask>
<g mask="url(#mask5_3932_33818)">
<mask id="mask6_3932_33818" style="mask-type:luminance" maskUnits="userSpaceOnUse" x="0" y="0" width="640" height="512">
<path d="M640 0H0V512H640V0Z" fill="white"/>
</mask>
<g mask="url(#mask6_3932_33818)">
<mask id="mask7_3932_33818" style="mask-type:luminance" maskUnits="userSpaceOnUse" x="0" y="0" width="640" height="512">
<path d="M640 0H0V512H640V0Z" fill="white"/>
</mask>
<g mask="url(#mask7_3932_33818)">
<mask id="mask8_3932_33818" style="mask-type:luminance" maskUnits="userSpaceOnUse" x="0" y="0" width="640" height="512">
<path d="M640 0H0V512H640V0Z" fill="white"/>
</mask>
<g mask="url(#mask8_3932_33818)">
<mask id="mask9_3932_33818" style="mask-type:luminance" maskUnits="userSpaceOnUse" x="0" y="0" width="640" height="512">
<path d="M640 0H0V512H640V0Z" fill="white"/>
</mask>
<g mask="url(#mask9_3932_33818)">
<mask id="mask10_3932_33818" style="mask-type:luminance" maskUnits="userSpaceOnUse" x="0" y="0" width="640" height="512">
<path d="M640 0H0V512H640V0Z" fill="white"/>
</mask>
<g mask="url(#mask10_3932_33818)">
<mask id="mask11_3932_33818" style="mask-type:luminance" maskUnits="userSpaceOnUse" x="0" y="0" width="640" height="512">
<path d="M640 0H0V512H640V0Z" fill="white"/>
</mask>
<g mask="url(#mask11_3932_33818)">
<mask id="mask12_3932_33818" style="mask-type:luminance" maskUnits="userSpaceOnUse" x="0" y="0" width="640" height="512">
<path d="M640 0H0V512H640V0Z" fill="white"/>
</mask>
<g mask="url(#mask12_3932_33818)">
<mask id="mask13_3932_33818" style="mask-type:luminance" maskUnits="userSpaceOnUse" x="0" y="0" width="640" height="512">
<path d="M640 0H0V512H640V0Z" fill="white"/>
</mask>
<g mask="url(#mask13_3932_33818)">
<path d="M400 0C405 0 409.8 2.4 412.8 6.4C447.5 52.7 490.9 81.3 546.3 117.9C551.5 121.3 556.8 124.9 562.3 128.5C591.2 147.7 608 180.2 608 214.6C608 243.2 596.7 269.1 578.2 288H221.8C203.4 269 192 243.1 192 214.6C192 180.2 208.7 147.7 237.7 128.5C243.1 124.9 248.5 121.4 253.7 117.9C309.1 81.3 352.5 52.7 387.2 6.4C390.2 2.4 395 0 400 0ZM288 512V440C288 426.7 277.3 416 264 416C250.7 416 240 426.7 240 440V512H192C174.3 512 160 497.7 160 480V352C160 334.3 174.3 320 192 320H608C625.7 320 640 334.3 640 352V480C640 497.7 625.7 512 608 512H560V440C560 426.7 549.3 416 536 416C522.7 416 512 426.7 512 440V512H448V454C448 435 439.6 417 425 404.8L400 384L375 404.8C360.4 417 352 435 352 454V512H288ZM70.4 5.2C76.1 0.9 83.9 0.9 89.6 5.2L105.6 17.2C139.8 42.9 160 83.2 160 126V128H0V126C0 83.2 20.2 42.9 54.4 17.2L70.4 5.2ZM0 160H160V296.6C140.9 307.7 128 328.3 128 352V480C128 489.6 130.1 498.6 133.8 506.8C127.2 510.2 119.8 512 112 512H48C21.5 512 0 490.5 0 464V176V160Z" fill="black"/>
</g>
</g>
</g>
</g>
</g>
</g>
</g>
</g>
</g>
</g>
</g>
</g>
</g>
</g>
</g>
<defs>
<clipPath id="clip0_3932_33818">
<rect width="640" height="512" fill="white"/>
</clipPath>
</defs>
</svg>
