<svg width="512" height="512" viewBox="0 0 512 512" fill="none" xmlns="http://www.w3.org/2000/svg">
<g clip-path="url(#clip0_3932_34114)">
<mask id="mask0_3932_34114" style="mask-type:luminance" maskUnits="userSpaceOnUse" x="0" y="0" width="512" height="512">
<path d="M512 0H0V512H512V0Z" fill="white"/>
</mask>
<g mask="url(#mask0_3932_34114)">
<mask id="mask1_3932_34114" style="mask-type:luminance" maskUnits="userSpaceOnUse" x="0" y="0" width="512" height="512">
<path d="M512 0H0V512H512V0Z" fill="white"/>
</mask>
<g mask="url(#mask1_3932_34114)">
<mask id="mask2_3932_34114" style="mask-type:luminance" maskUnits="userSpaceOnUse" x="0" y="0" width="512" height="512">
<path d="M512 0H0V512H512V0Z" fill="white"/>
</mask>
<g mask="url(#mask2_3932_34114)">
<mask id="mask3_3932_34114" style="mask-type:luminance" maskUnits="userSpaceOnUse" x="0" y="0" width="512" height="512">
<path d="M512 0H0V512H512V0Z" fill="white"/>
</mask>
<g mask="url(#mask3_3932_34114)">
<mask id="mask4_3932_34114" style="mask-type:luminance" maskUnits="userSpaceOnUse" x="0" y="0" width="512" height="512">
<path d="M512 0H0V512H512V0Z" fill="white"/>
</mask>
<g mask="url(#mask4_3932_34114)">
<mask id="mask5_3932_34114" style="mask-type:luminance" maskUnits="userSpaceOnUse" x="0" y="0" width="512" height="512">
<path d="M512 0H0V512H512V0Z" fill="white"/>
</mask>
<g mask="url(#mask5_3932_34114)">
<mask id="mask6_3932_34114" style="mask-type:luminance" maskUnits="userSpaceOnUse" x="0" y="0" width="512" height="512">
<path d="M512 0H0V512H512V0Z" fill="white"/>
</mask>
<g mask="url(#mask6_3932_34114)">
<mask id="mask7_3932_34114" style="mask-type:luminance" maskUnits="userSpaceOnUse" x="0" y="0" width="512" height="512">
<path d="M512 0H0V512H512V0Z" fill="white"/>
</mask>
<g mask="url(#mask7_3932_34114)">
<mask id="mask8_3932_34114" style="mask-type:luminance" maskUnits="userSpaceOnUse" x="0" y="0" width="512" height="512">
<path d="M512 0H0V512H512V0Z" fill="white"/>
</mask>
<g mask="url(#mask8_3932_34114)">
<mask id="mask9_3932_34114" style="mask-type:luminance" maskUnits="userSpaceOnUse" x="0" y="0" width="512" height="512">
<path d="M512 0H0V512H512V0Z" fill="white"/>
</mask>
<g mask="url(#mask9_3932_34114)">
<mask id="mask10_3932_34114" style="mask-type:luminance" maskUnits="userSpaceOnUse" x="0" y="0" width="512" height="512">
<path d="M512 0H0V512H512V0Z" fill="white"/>
</mask>
<g mask="url(#mask10_3932_34114)">
<mask id="mask11_3932_34114" style="mask-type:luminance" maskUnits="userSpaceOnUse" x="0" y="0" width="512" height="512">
<path d="M512 0H0V512H512V0Z" fill="white"/>
</mask>
<g mask="url(#mask11_3932_34114)">
<mask id="mask12_3932_34114" style="mask-type:luminance" maskUnits="userSpaceOnUse" x="0" y="0" width="512" height="512">
<path d="M512 0H0V512H512V0Z" fill="white"/>
</mask>
<g mask="url(#mask12_3932_34114)">
<mask id="mask13_3932_34114" style="mask-type:luminance" maskUnits="userSpaceOnUse" x="0" y="0" width="512" height="512">
<path d="M512 0H0V512H512V0Z" fill="white"/>
</mask>
<g mask="url(#mask13_3932_34114)">
<path d="M88 0C74.7 0 64 10.7 64 24C64 62.9 87.4 83.4 103.1 97.1L104.2 98.1C120.5 112.3 128 119.9 128 136C128 149.3 138.7 160 152 160C165.3 160 176 149.3 176 136C176 97.1 152.6 76.6 136.9 62.9L135.8 61.9C119.5 47.7 112 40.1 112 24C112 10.7 101.3 0 88 0ZM32 192C14.3 192 0 206.3 0 224V416C0 469 43 512 96 512H288C341 512 384 469 384 416H400C461.9 416 512 365.9 512 304C512 242.1 461.9 192 400 192H352H32ZM384 256H400C426.5 256 448 277.5 448 304C448 330.5 426.5 352 400 352H384V256ZM224 24C224 10.7 213.3 0 200 0C186.7 0 176 10.7 176 24C176 62.9 199.4 83.4 215.1 97.1L216.2 98.1C232.5 112.3 240 119.9 240 136C240 149.3 250.7 160 264 160C277.3 160 288 149.3 288 136C288 97.1 264.6 76.6 248.9 62.9L247.8 61.9C231.5 47.7 224 40.1 224 24Z" fill="black"/>
</g>
</g>
</g>
</g>
</g>
</g>
</g>
</g>
</g>
</g>
</g>
</g>
</g>
</g>
</g>
<defs>
<clipPath id="clip0_3932_34114">
<rect width="512" height="512" fill="white"/>
</clipPath>
</defs>
</svg>
