<svg width="448" height="512" viewBox="0 0 448 512" fill="none" xmlns="http://www.w3.org/2000/svg">
<path d="M224.003 507.997C217.303 507.997 210.503 506.197 204.603 502.797L142.903 466.297C133.703 461.097 138.203 459.297 141.203 458.297C153.503 453.997 156.003 453.097 169.103 445.597C170.503 444.797 172.303 445.097 173.703 445.997L221.103 474.097C222.803 475.097 225.203 475.097 226.803 474.097L411.503 367.497C413.203 366.497 414.303 364.497 414.303 362.497V149.297C414.303 147.197 413.203 145.297 411.403 144.197L226.803 37.6968C225.103 36.6968 222.803 36.6968 221.103 37.6968L36.6031 144.297C34.8031 145.297 33.7031 147.297 33.7031 149.397V362.497C33.7031 364.497 34.8031 366.497 36.6031 367.397L87.2031 396.597C114.703 410.297 131.503 394.197 131.503 377.897V167.497C131.503 164.497 133.903 162.197 136.903 162.197H160.303C163.203 162.197 165.703 164.497 165.703 167.497V377.997C165.703 414.597 145.703 435.597 111.003 435.597C100.303 435.597 91.9031 435.597 68.5031 423.997L20.1031 396.097C8.10313 389.197 0.703125 376.297 0.703125 362.397V149.297C0.703125 135.497 8.10313 122.497 20.1031 115.597L204.603 8.99687C216.303 2.39687 231.803 2.39687 243.403 8.99687L428.103 115.697C440.103 122.597 447.503 135.497 447.503 149.397V362.497C447.503 376.297 440.103 389.197 428.103 396.197L243.403 502.797C237.503 506.197 230.803 507.997 224.003 507.997ZM373.103 297.897C373.103 257.997 346.103 247.397 289.403 239.897C232.003 232.297 226.203 228.397 226.203 214.997C226.203 203.897 231.103 189.097 273.603 189.097C311.503 189.097 325.503 197.297 331.303 222.897C331.803 225.297 334.003 227.097 336.503 227.097H360.503C362.003 227.097 363.403 226.497 364.403 225.397C365.403 224.297 365.903 222.797 365.803 221.297C362.103 177.197 332.803 156.697 273.603 156.697C220.903 156.697 189.503 178.897 189.503 216.197C189.503 256.597 220.803 267.797 271.303 272.797C331.803 278.697 336.503 287.597 336.503 299.497C336.503 320.097 319.903 328.897 281.003 328.897C232.103 328.897 221.403 316.597 217.803 292.297C217.403 289.697 215.203 287.797 212.503 287.797H188.603C185.603 287.797 183.303 290.197 183.303 293.097C183.303 324.197 200.203 361.297 281.103 361.297C339.503 361.197 373.103 338.097 373.103 297.897Z" fill="black"/>
</svg>
