<svg width="448" height="512" viewBox="0 0 448 512" fill="none" xmlns="http://www.w3.org/2000/svg">
<path d="M369.8 37.3986C384.5 47.1986 388.5 67.0986 378.7 81.7986L337.1 143.999H400C417.7 143.999 432 158.299 432 175.999C432 193.699 417.7 207.999 400 207.999H294.5L230.5 303.999H400C417.7 303.999 432 318.299 432 335.999C432 353.699 417.7 367.999 400 367.999H187.8L122.6 465.699C112.8 480.399 92.9 484.399 78.2 474.599C63.5 464.799 59.5 444.899 69.3 430.199L110.9 367.999H48C30.3 367.999 16 353.699 16 335.999C16 318.299 30.3 303.999 48 303.999H153.5L217.5 207.999H48C30.3 207.999 16 193.699 16 175.999C16 158.299 30.3 143.999 48 143.999H260.2L325.4 46.2986C335.2 31.5986 355.1 27.5986 369.8 37.3986Z" fill="black"/>
</svg>
