<svg width="448" height="512" viewBox="0 0 448 512" fill="none" xmlns="http://www.w3.org/2000/svg">
<path d="M224 96C181.565 96 140.869 112.857 110.863 142.863C80.8571 172.869 64 213.565 64 256C64 298.435 80.8571 339.131 110.863 369.137C140.869 399.143 181.565 416 224 416C266.435 416 307.131 399.143 337.137 369.137C367.143 339.131 384 298.435 384 256C384 213.565 367.143 172.869 337.137 142.863C307.131 112.857 266.435 96 224 96ZM448 256C448 315.409 424.4 372.384 382.392 414.392C340.384 456.4 283.409 480 224 480C164.592 480 107.616 456.4 65.6081 414.392C23.5999 372.384 0 315.409 0 256C0 196.592 23.5999 139.616 65.6081 97.6081C107.616 55.5999 164.592 32 224 32C283.409 32 340.384 55.5999 382.392 97.6081C424.4 139.616 448 196.592 448 256Z" fill="black"/>
</svg>
