<svg width="640" height="512" viewBox="0 0 640 512" fill="none" xmlns="http://www.w3.org/2000/svg">
<g clip-path="url(#clip0_3932_34384)">
<mask id="mask0_3932_34384" style="mask-type:luminance" maskUnits="userSpaceOnUse" x="0" y="0" width="640" height="512">
<path d="M640 0H0V512H640V0Z" fill="white"/>
</mask>
<g mask="url(#mask0_3932_34384)">
<mask id="mask1_3932_34384" style="mask-type:luminance" maskUnits="userSpaceOnUse" x="0" y="0" width="640" height="512">
<path d="M640 0H0V512H640V0Z" fill="white"/>
</mask>
<g mask="url(#mask1_3932_34384)">
<mask id="mask2_3932_34384" style="mask-type:luminance" maskUnits="userSpaceOnUse" x="0" y="0" width="640" height="512">
<path d="M640 0H0V512H640V0Z" fill="white"/>
</mask>
<g mask="url(#mask2_3932_34384)">
<mask id="mask3_3932_34384" style="mask-type:luminance" maskUnits="userSpaceOnUse" x="0" y="0" width="640" height="512">
<path d="M640 0H0V512H640V0Z" fill="white"/>
</mask>
<g mask="url(#mask3_3932_34384)">
<mask id="mask4_3932_34384" style="mask-type:luminance" maskUnits="userSpaceOnUse" x="0" y="0" width="640" height="512">
<path d="M640 0H0V512H640V0Z" fill="white"/>
</mask>
<g mask="url(#mask4_3932_34384)">
<mask id="mask5_3932_34384" style="mask-type:luminance" maskUnits="userSpaceOnUse" x="0" y="0" width="640" height="512">
<path d="M640 0H0V512H640V0Z" fill="white"/>
</mask>
<g mask="url(#mask5_3932_34384)">
<mask id="mask6_3932_34384" style="mask-type:luminance" maskUnits="userSpaceOnUse" x="0" y="0" width="640" height="512">
<path d="M640 0H0V512H640V0Z" fill="white"/>
</mask>
<g mask="url(#mask6_3932_34384)">
<mask id="mask7_3932_34384" style="mask-type:luminance" maskUnits="userSpaceOnUse" x="0" y="0" width="640" height="512">
<path d="M640 0H0V512H640V0Z" fill="white"/>
</mask>
<g mask="url(#mask7_3932_34384)">
<mask id="mask8_3932_34384" style="mask-type:luminance" maskUnits="userSpaceOnUse" x="0" y="0" width="640" height="512">
<path d="M640 0H0V512H640V0Z" fill="white"/>
</mask>
<g mask="url(#mask8_3932_34384)">
<mask id="mask9_3932_34384" style="mask-type:luminance" maskUnits="userSpaceOnUse" x="0" y="0" width="640" height="512">
<path d="M640 0H0V512H640V0Z" fill="white"/>
</mask>
<g mask="url(#mask9_3932_34384)">
<mask id="mask10_3932_34384" style="mask-type:luminance" maskUnits="userSpaceOnUse" x="0" y="0" width="640" height="512">
<path d="M640 0H0V512H640V0Z" fill="white"/>
</mask>
<g mask="url(#mask10_3932_34384)">
<mask id="mask11_3932_34384" style="mask-type:luminance" maskUnits="userSpaceOnUse" x="0" y="0" width="640" height="512">
<path d="M640 0H0V512H640V0Z" fill="white"/>
</mask>
<g mask="url(#mask11_3932_34384)">
<mask id="mask12_3932_34384" style="mask-type:luminance" maskUnits="userSpaceOnUse" x="0" y="0" width="640" height="512">
<path d="M640 0H0V512H640V0Z" fill="white"/>
</mask>
<g mask="url(#mask12_3932_34384)">
<mask id="mask13_3932_34384" style="mask-type:luminance" maskUnits="userSpaceOnUse" x="0" y="0" width="640" height="512">
<path d="M640 0H0V512H640V0Z" fill="white"/>
</mask>
<g mask="url(#mask13_3932_34384)">
<path d="M48.2 66.8C48.1 66 48 65.1 48 64.3C48 64.2 48 64.2 48 64.1C48 55.3 55.2 48.1 64 48.1C64.9 48.1 65.9 48.2 66.8 48.3C74.3 49.5 80 56.1 80 64C80 72.8 72.8 80 64 80C56.1 80 49.5 74.3 48.2 66.8ZM0 64C0 90.9 16.5 113.9 40 123.3V228.7C16.5 238.1 0 261.1 0 288C0 323.3 28.7 352 64 352C90.9 352 113.9 335.5 123.3 312H324.7C334.2 335.5 357.2 352 384 352C419.3 352 448 323.3 448 288C448 261.1 431.5 238.1 408 228.7V123.3C431.5 113.8 448 90.8 448 64C448 28.7 419.3 0 384 0C357.1 0 334.1 16.5 324.7 40H123.3C113.9 16.5 90.9 0 64 0C28.7 0 0 28.7 0 64ZM368 64C368 59.7565 369.686 55.6869 372.686 52.6863C375.687 49.6857 379.757 48 384 48C388.243 48 392.313 49.6857 395.314 52.6863C398.314 55.6869 400 59.7565 400 64C400 68.2435 398.314 72.3131 395.314 75.3137C392.313 78.3143 388.243 80 384 80C379.757 80 375.687 78.3143 372.686 75.3137C369.686 72.3131 368 68.2435 368 64ZM324.7 88C331.2 104 344 116.9 360 123.3V228.7C344 235.2 331.1 248 324.7 264H123.3C116.8 248 104 235.1 88 228.7V123.3C104 116.8 116.9 104 123.3 88H324.7ZM384 272C388.243 272 392.313 273.686 395.314 276.686C398.314 279.687 400 283.757 400 288C400 292.243 398.314 296.313 395.314 299.314C392.313 302.314 388.243 304 384 304C379.757 304 375.687 302.314 372.686 299.314C369.686 296.313 368 292.243 368 288C368 283.757 369.686 279.687 372.686 276.686C375.687 273.686 379.757 272 384 272ZM80 288C80 295.9 74.3 302.5 66.8 303.8C66 303.9 65.1 304 64.3 304H64.1C55.3 304 48.1 296.8 48.1 288C48.1 287.1 48.2 286.1 48.3 285.2C49.5 277.7 56.1 272 64 272C72.8 272 80 279.2 80 288ZM471.3 248H516.7C523.2 264 536 276.9 552 283.3V388.7C536 395.2 523.1 408 516.7 424H315.3C308.8 408 296 395.1 280 388.7V352H232V388.7C208.5 398.2 192 421.2 192 448C192 483.3 220.7 512 256 512C282.9 512 305.9 495.5 315.3 472H516.7C526.2 495.5 549.2 512 576 512C611.3 512 640 483.3 640 448C640 421.1 623.5 398.1 600 388.7V283.3C623.5 273.8 640 250.8 640 224C640 188.7 611.3 160 576 160C549.1 160 526.1 176.5 516.7 200H448V216.4C457.8 225.2 465.8 235.9 471.3 248ZM560.2 221.3C560.489 219.167 561.205 217.114 562.306 215.264C563.407 213.414 564.87 211.805 566.607 210.534C568.345 209.263 570.321 208.355 572.417 207.866C574.513 207.376 576.687 207.315 578.807 207.685C580.928 208.055 582.952 208.85 584.758 210.021C586.565 211.192 588.116 212.715 589.32 214.5C590.524 216.285 591.355 218.294 591.764 220.407C592.173 222.521 592.151 224.695 591.7 226.8C591.411 228.933 590.695 230.986 589.594 232.836C588.493 234.686 587.03 236.295 585.293 237.566C583.555 238.837 581.579 239.745 579.483 240.234C577.387 240.724 575.213 240.785 573.093 240.415C570.972 240.045 568.948 239.25 567.142 238.079C565.335 236.908 563.784 235.385 562.58 233.6C561.376 231.815 560.545 229.806 560.136 227.693C559.727 225.579 559.749 223.405 560.2 221.3ZM271.8 450.7C271.511 452.833 270.795 454.886 269.694 456.736C268.593 458.586 267.13 460.195 265.393 461.466C263.655 462.737 261.679 463.645 259.583 464.134C257.487 464.624 255.313 464.685 253.193 464.315C251.072 463.945 249.048 463.15 247.242 461.979C245.435 460.808 243.884 459.285 242.68 457.5C241.476 455.715 240.645 453.706 240.236 451.593C239.827 449.479 239.849 447.305 240.3 445.2C240.589 443.067 241.305 441.014 242.406 439.164C243.507 437.314 244.97 435.705 246.707 434.434C248.445 433.163 250.421 432.255 252.517 431.766C254.613 431.276 256.787 431.215 258.907 431.585C261.028 431.955 263.052 432.75 264.858 433.921C266.665 435.092 268.216 436.615 269.42 438.4C270.624 440.185 271.455 442.194 271.864 444.307C272.273 446.421 272.251 448.595 271.8 450.7ZM573.3 463.7C565.8 462.4 560.1 455.8 560.1 447.9C560.1 439.1 567.3 431.9 576.1 431.9C584 431.9 590.6 437.6 591.9 445.1V445.2C592 446.1 592.1 447 592.1 447.9C592.1 456.7 584.9 463.9 576.1 463.9C575.2 463.9 574.2 463.8 573.3 463.7Z" fill="black"/>
</g>
</g>
</g>
</g>
</g>
</g>
</g>
</g>
</g>
</g>
</g>
</g>
</g>
</g>
</g>
<defs>
<clipPath id="clip0_3932_34384">
<rect width="640" height="512" fill="white"/>
</clipPath>
</defs>
</svg>
