<svg width="576" height="512" viewBox="0 0 576 512" fill="none" xmlns="http://www.w3.org/2000/svg">
<path d="M48 115.8C38.2 107 32 94.2 32 80C32 53.5 53.5 32 80 32C94.2 32 107 38.2 115.8 48H460.2C469 38.2 481.8 32 496 32C522.5 32 544 53.5 544 80C544 94.2 537.8 107 528 115.8V396.2C537.8 405 544 417.8 544 432C544 458.5 522.5 480 496 480C481.8 480 469 473.8 460.2 464H115.8C107 473.8 94.2 480 80 480C53.5 480 32 458.5 32 432C32 417.8 38.2 405 48 396.2V115.8ZM125.3 96C120.5 109.6 109.7 120.4 96 125.3V386.7C109.6 391.5 120.4 402.3 125.3 416H450.7C455.5 402.4 466.3 391.6 480 386.7V125.3C466.4 120.5 455.6 109.7 450.7 96H125.3ZM128 160C128 142.3 142.3 128 160 128H288C305.7 128 320 142.3 320 160V256C320 273.7 305.7 288 288 288H160C142.3 288 128 273.7 128 256V160ZM256 320H288C323.3 320 352 291.3 352 256V224H416C433.7 224 448 238.3 448 256V352C448 369.7 433.7 384 416 384H288C270.3 384 256 369.7 256 352V320Z" fill="black"/>
</svg>
