<svg width="320" height="512" viewBox="0 0 320 512" fill="none" xmlns="http://www.w3.org/2000/svg">
<g clip-path="url(#clip0_3932_34500)">
<mask id="mask0_3932_34500" style="mask-type:luminance" maskUnits="userSpaceOnUse" x="0" y="0" width="320" height="512">
<path d="M320 0H0V512H320V0Z" fill="white"/>
</mask>
<g mask="url(#mask0_3932_34500)">
<mask id="mask1_3932_34500" style="mask-type:luminance" maskUnits="userSpaceOnUse" x="0" y="0" width="320" height="512">
<path d="M320 0H0V512H320V0Z" fill="white"/>
</mask>
<g mask="url(#mask1_3932_34500)">
<mask id="mask2_3932_34500" style="mask-type:luminance" maskUnits="userSpaceOnUse" x="0" y="0" width="320" height="512">
<path d="M320 0H0V512H320V0Z" fill="white"/>
</mask>
<g mask="url(#mask2_3932_34500)">
<mask id="mask3_3932_34500" style="mask-type:luminance" maskUnits="userSpaceOnUse" x="0" y="0" width="320" height="512">
<path d="M320 0H0V512H320V0Z" fill="white"/>
</mask>
<g mask="url(#mask3_3932_34500)">
<mask id="mask4_3932_34500" style="mask-type:luminance" maskUnits="userSpaceOnUse" x="0" y="0" width="320" height="512">
<path d="M320 0H0V512H320V0Z" fill="white"/>
</mask>
<g mask="url(#mask4_3932_34500)">
<mask id="mask5_3932_34500" style="mask-type:luminance" maskUnits="userSpaceOnUse" x="0" y="0" width="320" height="512">
<path d="M320 0H0V512H320V0Z" fill="white"/>
</mask>
<g mask="url(#mask5_3932_34500)">
<mask id="mask6_3932_34500" style="mask-type:luminance" maskUnits="userSpaceOnUse" x="0" y="0" width="320" height="512">
<path d="M320 0H0V512H320V0Z" fill="white"/>
</mask>
<g mask="url(#mask6_3932_34500)">
<mask id="mask7_3932_34500" style="mask-type:luminance" maskUnits="userSpaceOnUse" x="0" y="0" width="320" height="512">
<path d="M320 0H0V512H320V0Z" fill="white"/>
</mask>
<g mask="url(#mask7_3932_34500)">
<mask id="mask8_3932_34500" style="mask-type:luminance" maskUnits="userSpaceOnUse" x="0" y="0" width="320" height="512">
<path d="M320 0H0V512H320V0Z" fill="white"/>
</mask>
<g mask="url(#mask8_3932_34500)">
<mask id="mask9_3932_34500" style="mask-type:luminance" maskUnits="userSpaceOnUse" x="0" y="0" width="320" height="512">
<path d="M320 0H0V512H320V0Z" fill="white"/>
</mask>
<g mask="url(#mask9_3932_34500)">
<mask id="mask10_3932_34500" style="mask-type:luminance" maskUnits="userSpaceOnUse" x="0" y="0" width="320" height="512">
<path d="M320 0H0V512H320V0Z" fill="white"/>
</mask>
<g mask="url(#mask10_3932_34500)">
<mask id="mask11_3932_34500" style="mask-type:luminance" maskUnits="userSpaceOnUse" x="0" y="0" width="320" height="512">
<path d="M320 0H0V512H320V0Z" fill="white"/>
</mask>
<g mask="url(#mask11_3932_34500)">
<mask id="mask12_3932_34500" style="mask-type:luminance" maskUnits="userSpaceOnUse" x="0" y="0" width="320" height="512">
<path d="M320 0H0V512H320V0Z" fill="white"/>
</mask>
<g mask="url(#mask12_3932_34500)">
<mask id="mask13_3932_34500" style="mask-type:luminance" maskUnits="userSpaceOnUse" x="0" y="0" width="320" height="512">
<path d="M320 0H0V512H320V0Z" fill="white"/>
</mask>
<g mask="url(#mask13_3932_34500)">
<path d="M275.098 334C247.698 351.4 209.998 358.3 185.098 360.9L205.998 381.5L282.298 457.8C310.198 486.4 264.798 531.1 236.598 503.5C217.498 484.1 189.498 456.1 160.298 426.9L83.9983 503.4C55.7983 530.9 10.3983 485.8 38.5983 457.7C57.9983 438.3 85.6983 410.3 114.898 381.4L135.498 360.8C110.898 358.2 72.5983 351.7 44.8983 333.9C12.2983 312.9 -2.00177 300.6 10.5983 274.9C17.9983 260.3 38.2983 248 65.1983 269.2C65.1983 269.2 101.498 298.1 160.098 298.1C218.698 298.1 254.998 269.2 254.998 269.2C281.898 248.1 302.098 260.3 309.598 274.9C321.998 300.6 307.698 312.9 275.098 334ZM30.2983 129.7C30.2983 58 88.5983 0 159.998 0C231.398 0 289.698 58 289.698 129.7C289.698 201.1 231.398 259.1 159.998 259.1C88.5983 259.1 30.2983 201.1 30.2983 129.7ZM96.2983 129.7C96.2983 164.8 124.898 193.4 159.998 193.4C195.098 193.4 223.698 164.8 223.698 129.7C223.698 94.3 195.098 65.7 159.998 65.7C124.898 65.7 96.2983 94.3 96.2983 129.7Z" fill="black"/>
</g>
</g>
</g>
</g>
</g>
</g>
</g>
</g>
</g>
</g>
</g>
</g>
</g>
</g>
</g>
<defs>
<clipPath id="clip0_3932_34500">
<rect width="320" height="512" fill="white"/>
</clipPath>
</defs>
</svg>
