<svg width="496" height="512" viewBox="0 0 496 512" fill="none" xmlns="http://www.w3.org/2000/svg">
<g clip-path="url(#clip0_3932_34660)">
<mask id="mask0_3932_34660" style="mask-type:luminance" maskUnits="userSpaceOnUse" x="0" y="0" width="496" height="512">
<path d="M496 0H0V512H496V0Z" fill="white"/>
</mask>
<g mask="url(#mask0_3932_34660)">
<mask id="mask1_3932_34660" style="mask-type:luminance" maskUnits="userSpaceOnUse" x="0" y="0" width="496" height="512">
<path d="M496 0H0V512H496V0Z" fill="white"/>
</mask>
<g mask="url(#mask1_3932_34660)">
<mask id="mask2_3932_34660" style="mask-type:luminance" maskUnits="userSpaceOnUse" x="0" y="0" width="496" height="512">
<path d="M496 0H0V512H496V0Z" fill="white"/>
</mask>
<g mask="url(#mask2_3932_34660)">
<mask id="mask3_3932_34660" style="mask-type:luminance" maskUnits="userSpaceOnUse" x="0" y="0" width="496" height="512">
<path d="M496 0H0V512H496V0Z" fill="white"/>
</mask>
<g mask="url(#mask3_3932_34660)">
<mask id="mask4_3932_34660" style="mask-type:luminance" maskUnits="userSpaceOnUse" x="0" y="0" width="496" height="512">
<path d="M496 0H0V512H496V0Z" fill="white"/>
</mask>
<g mask="url(#mask4_3932_34660)">
<mask id="mask5_3932_34660" style="mask-type:luminance" maskUnits="userSpaceOnUse" x="0" y="0" width="496" height="512">
<path d="M496 0H0V512H496V0Z" fill="white"/>
</mask>
<g mask="url(#mask5_3932_34660)">
<mask id="mask6_3932_34660" style="mask-type:luminance" maskUnits="userSpaceOnUse" x="0" y="0" width="496" height="512">
<path d="M496 0H0V512H496V0Z" fill="white"/>
</mask>
<g mask="url(#mask6_3932_34660)">
<mask id="mask7_3932_34660" style="mask-type:luminance" maskUnits="userSpaceOnUse" x="0" y="0" width="496" height="512">
<path d="M496 0H0V512H496V0Z" fill="white"/>
</mask>
<g mask="url(#mask7_3932_34660)">
<mask id="mask8_3932_34660" style="mask-type:luminance" maskUnits="userSpaceOnUse" x="0" y="0" width="496" height="512">
<path d="M496 0H0V512H496V0Z" fill="white"/>
</mask>
<g mask="url(#mask8_3932_34660)">
<mask id="mask9_3932_34660" style="mask-type:luminance" maskUnits="userSpaceOnUse" x="0" y="0" width="496" height="512">
<path d="M496 0H0V512H496V0Z" fill="white"/>
</mask>
<g mask="url(#mask9_3932_34660)">
<mask id="mask10_3932_34660" style="mask-type:luminance" maskUnits="userSpaceOnUse" x="0" y="0" width="496" height="512">
<path d="M496 0H0V512H496V0Z" fill="white"/>
</mask>
<g mask="url(#mask10_3932_34660)">
<mask id="mask11_3932_34660" style="mask-type:luminance" maskUnits="userSpaceOnUse" x="0" y="0" width="496" height="512">
<path d="M496 0H0V512H496V0Z" fill="white"/>
</mask>
<g mask="url(#mask11_3932_34660)">
<mask id="mask12_3932_34660" style="mask-type:luminance" maskUnits="userSpaceOnUse" x="0" y="0" width="496" height="512">
<path d="M496 0H0V512H496V0Z" fill="white"/>
</mask>
<g mask="url(#mask12_3932_34660)">
<mask id="mask13_3932_34660" style="mask-type:luminance" maskUnits="userSpaceOnUse" x="0" y="0" width="496" height="512">
<path d="M496 0H0V512H496V0Z" fill="white"/>
</mask>
<g mask="url(#mask13_3932_34660)">
<path d="M235.762 10.2332C243.262 9.92315 250.762 9.95315 258.262 10.1433C261.872 10.2833 265.462 10.5432 269.052 10.8732C273.972 11.1432 278.842 11.9032 283.722 12.4932C286.652 12.9232 289.552 13.4732 292.472 13.9532C300.372 15.2832 308.142 17.2332 315.862 19.3532C328.102 22.8232 340.052 27.2732 351.622 32.5632C378.182 44.8032 402.562 61.7733 423.252 82.4433C443.282 102.533 459.972 125.993 472.142 151.633C473.272 154.223 474.582 156.733 475.612 159.373C478.422 165.803 481.002 172.343 483.192 179.003C487.332 191.333 490.532 203.993 492.612 216.833C493.182 219.973 493.652 223.133 494.012 226.303C494.562 230.133 494.952 233.993 495.192 237.863C496.022 246.203 496.032 254.593 495.962 262.963C495.892 267.933 495.702 272.903 495.212 277.853C494.972 281.233 494.702 284.613 494.232 287.973C493.842 290.693 493.602 293.433 493.122 296.143C492.222 301.293 491.422 306.453 490.252 311.553C486.152 330.053 479.952 348.103 471.742 365.183C455.972 398.013 432.912 427.353 404.622 450.303C387.32 464.449 368.174 476.177 347.712 485.163C341.502 487.843 335.252 490.413 328.842 492.573C325.332 493.733 321.832 494.953 318.272 495.963C311.652 497.843 304.982 499.603 298.232 500.963C293.572 501.873 288.892 502.693 284.202 503.443C278.952 504.103 273.702 504.883 268.412 505.183C261.722 505.843 255.002 506.023 248.292 505.993C241.472 506.023 234.642 505.873 227.842 505.203C224.552 504.973 221.272 504.703 218.012 504.253C215.292 503.863 212.552 503.623 209.842 503.143C205.722 502.423 201.592 501.773 197.492 500.923C193.242 499.983 189.002 499.033 184.802 497.903C176.172 495.733 167.722 492.893 159.392 489.773C148.902 485.653 138.602 481.023 128.752 475.523C126.612 474.373 124.472 473.233 122.402 471.953C111.182 465.373 100.542 457.853 90.4819 449.613C55.8019 421.203 29.0719 383.183 14.1319 340.913C11.0419 332.173 8.42195 323.263 6.33195 314.233C4.85195 308.073 3.81195 301.813 2.75195 295.573C2.35195 293.223 2.14195 290.843 1.80195 288.483C1.20195 284.523 1.05195 280.523 0.631949 276.543C-0.168051 267.073 -0.078051 257.553 0.121949 248.053C0.261949 244.543 0.461949 241.043 0.821949 237.543C1.13195 234.373 1.28195 231.173 1.74195 228.023C2.15195 225.213 2.39195 222.373 2.90195 219.583C3.60195 215.643 4.20195 211.683 5.02195 207.763C8.45195 191.243 13.492 175.033 20.2819 159.583C21.4319 156.663 22.8719 153.863 24.1419 150.993C32.1919 134.283 42.042 118.433 53.632 103.933C73.632 78.5533 98.7319 57.2532 126.902 41.4632C134.402 37.3132 142.062 33.4131 149.972 30.0932C165.792 23.2131 182.382 18.1432 199.282 14.7132C202.792 14.0432 206.322 13.4733 209.842 12.8632C212.462 12.3932 215.122 12.1632 217.752 11.7832C221.282 11.2532 224.852 11.1032 228.402 10.7432C230.862 10.5032 233.312 10.3832 235.762 10.2332ZM244.402 34.6432C235.172 34.7432 225.972 35.6332 216.832 36.8731C209.532 37.9531 202.302 39.4731 195.122 41.1731C181.212 44.6731 167.642 49.5133 154.662 55.5933C144.202 60.5833 134.072 66.2932 124.482 72.8132C120.302 75.7332 116.082 78.6132 112.142 81.8432C107.062 85.8132 102.162 90.0133 97.4619 94.4333C94.9519 96.6731 92.6519 99.1331 90.2419 101.493C62.0219 130.283 41.802 166.883 32.742 206.183C30.702 214.623 29.2019 223.203 28.3019 231.833C27.2019 240.723 26.8619 249.683 26.8919 258.633C27.0019 265.773 27.2719 272.913 28.1119 280.003C28.732 287.123 29.9819 294.163 31.3119 301.183C32.382 305.833 33.3419 310.503 34.6419 315.093C40.9319 338.473 51.1419 360.793 64.7119 380.843C73.3519 393.823 83.492 405.773 94.6919 416.613C110.972 432.433 129.742 445.653 150.032 455.833C157.312 459.353 164.692 462.703 172.302 465.463C177.342 467.223 182.362 469.033 187.522 470.443C198.782 473.673 210.292 476.043 221.912 477.503C224.822 477.793 227.722 478.113 230.632 478.403C244.452 479.483 258.372 479.403 272.172 477.973C276.622 477.373 281.092 476.983 285.522 476.193C289.152 475.523 292.802 474.943 296.392 474.093C300.522 473.113 304.672 472.183 308.752 471.023C335.252 463.683 360.332 451.313 382.332 434.823C398.112 423.003 412.292 409.063 424.452 393.543C427.712 389.523 430.622 385.233 433.582 380.993C436.972 375.933 440.162 370.743 443.182 365.453C445.582 361.013 447.922 356.543 450.132 352.003C455.822 339.953 460.412 327.383 463.882 314.513C466.472 304.503 468.632 294.353 469.782 284.063C471.552 270.593 471.722 256.963 471.072 243.413C470.782 239.523 470.402 235.643 470.072 231.753C467.842 212.673 463.282 193.843 456.252 175.953C450.302 160.823 442.722 146.323 433.642 132.823C420.952 114.023 405.402 97.1433 387.672 82.9932C362.622 62.9932 333.202 48.4433 302.022 40.9132C294.242 38.9832 286.332 37.5732 278.392 36.4632C274.482 35.8731 270.542 35.6432 266.622 35.2232C259.232 34.6532 251.812 34.5032 244.402 34.6432ZM139.262 83.5333C152.562 74.6433 167.342 68.1531 182.562 63.3532C179.392 65.1232 176.122 66.7332 173.032 68.6432C161.822 75.3232 151.512 83.5433 142.652 93.1332C135.852 100.563 129.892 108.863 125.642 118.023C122.352 124.883 120.002 132.213 118.782 139.733C117.852 144.583 117.482 149.543 117.612 154.483C117.742 168.143 122.052 181.563 128.902 193.303C134.822 203.523 142.532 212.633 151.262 220.563C156.112 224.923 161.502 228.653 166.212 233.163C168.472 235.353 170.702 237.583 172.642 240.073C175.262 243.383 177.532 247.063 178.632 251.173C179.532 254.193 179.292 257.373 179.322 260.483C179.342 264.583 179.282 268.683 179.352 272.783C179.492 276.323 179.332 279.873 179.462 283.413C179.542 285.793 179.482 288.173 179.512 290.553C179.672 296.323 179.572 302.083 179.662 307.853C179.772 310.763 179.682 313.673 179.792 316.593C179.822 318.223 179.922 319.873 179.762 321.503C178.852 321.623 177.942 321.683 177.032 321.663C166.042 321.663 155.152 319.033 145.082 314.733C139.082 312.033 133.272 308.843 127.992 304.903C122.242 300.713 116.902 295.943 112.202 290.593C105.672 283.353 100.222 275.203 95.5819 266.643C94.5119 264.613 93.3419 262.623 92.4019 260.523C91.2419 257.883 89.782 255.383 88.7319 252.703C84.6819 243.023 82.1619 232.763 80.6519 222.393C80.1619 217.953 79.5619 213.513 79.4519 209.043C78.7519 193.313 80.2919 177.493 84.1219 162.223C86.242 154.073 88.8919 146.043 92.4319 138.393C98.7519 124.193 107.772 111.213 118.732 100.203C125.012 94.0033 131.862 88.3633 139.262 83.5333ZM314.632 63.4132C317.372 64.1533 320.042 65.1532 322.722 66.0932C329.082 68.4231 335.402 70.9333 341.432 74.0533C354.542 80.4933 366.742 88.8632 377.252 99.0232C387.452 108.973 395.992 120.623 402.392 133.363C403.672 136.113 405.032 138.823 406.202 141.623C412.512 156.723 416.202 172.883 417.432 189.193C417.842 193.733 417.872 198.283 417.882 202.833C417.952 214.473 416.392 226.083 413.582 237.363C411.612 244.633 409.232 251.853 405.722 258.543C402.542 265.183 399.042 271.703 394.882 277.783C387.942 288.253 379.282 297.653 369.062 305.003C358.582 312.643 346.422 318.023 333.662 320.383C330.152 321.073 326.582 321.463 323.002 321.593C321.152 321.653 319.282 321.753 317.442 321.493C317.162 319.343 317.442 317.183 317.432 315.033C317.402 311.303 317.572 307.583 317.532 303.863C317.722 296.843 317.552 289.813 317.742 282.793C317.772 280.413 317.712 278.033 317.772 275.653C317.942 270.583 317.732 265.513 317.912 260.443C318.012 257.453 317.672 254.403 318.422 251.483C319.082 248.983 320.202 246.623 321.512 244.403C325.972 237.093 332.572 231.443 339.192 226.143C344.572 221.963 349.662 217.373 354.212 212.303C361.892 203.933 368.382 194.423 372.992 184.033C375.492 178.103 377.512 171.933 378.542 165.573C379.402 161.203 379.602 156.743 379.552 152.303C379.532 144.453 378.152 136.653 375.912 129.133C374.162 123.403 371.642 117.953 368.822 112.683C364.952 105.753 360.172 99.3733 354.862 93.4833C344.922 82.6333 333.112 73.5432 320.262 66.3832C318.412 65.3632 316.422 64.5633 314.632 63.4132ZM213.832 121.863C214.812 120.683 215.822 119.533 216.952 118.483C216.342 119.413 215.682 120.293 215.002 121.163C211.902 125.043 209.462 129.473 207.972 134.223C207.102 137.493 206.292 140.823 206.242 144.223C206.172 146.743 206.162 149.293 206.562 151.793C207.692 159.423 210.892 166.643 215.332 172.913C217.332 175.613 219.582 178.183 222.252 180.243C223.872 181.513 225.782 182.333 227.592 183.293C230.702 184.973 233.912 186.523 236.662 188.773C239.332 190.863 241.212 194.103 241.062 197.563C241.052 271.233 241.062 344.903 241.052 418.583C241.052 419.933 240.972 421.283 241.092 422.623C241.222 424.103 241.912 425.453 242.562 426.773C243.422 428.433 244.342 430.113 245.742 431.393C246.592 432.163 247.712 432.793 248.892 432.633C250.392 432.433 251.552 431.283 252.342 430.063C253.302 428.553 254.022 426.903 254.622 425.213C255.382 423.083 255.062 420.793 255.162 418.583C255.302 414.553 255.142 410.523 255.302 406.493C255.332 400.603 255.332 394.723 255.362 388.833C255.502 385.213 255.392 381.593 255.472 377.973C255.622 373.943 255.452 369.913 255.612 365.883C255.642 359.893 255.642 353.903 255.682 347.913C255.822 344.293 255.702 340.673 255.792 337.053C255.932 333.123 255.772 329.193 255.932 325.273C255.962 319.283 255.962 313.293 255.992 307.303C256.152 303.363 255.982 299.423 256.182 295.483C256.472 296.923 256.312 298.403 256.402 299.863C256.592 303.473 256.822 307.093 257.162 310.703C257.482 314.143 257.602 317.593 258.022 321.023C258.392 324.123 258.532 327.243 258.972 330.333C259.542 334.423 259.842 338.543 260.512 342.623C261.972 351.663 263.342 360.733 265.602 369.613C266.732 374.433 268.002 379.223 269.602 383.913C272.142 391.813 275.322 399.583 279.912 406.533C281.642 409.173 283.782 411.513 286.012 413.743C286.282 413.993 286.562 414.253 286.892 414.453C287.492 414.703 288.202 414.383 288.592 413.883C289.302 413.003 289.762 411.943 290.292 410.953C294.342 403.153 298.472 395.393 302.632 387.643C303.332 386.333 304.072 385.023 305.192 384.033C306.942 382.463 309.032 381.343 311.172 380.403C314.052 379.183 317.072 378.213 320.202 377.983C326.782 377.363 333.312 378.733 339.762 379.833C343.452 380.413 347.162 381.003 350.892 381.243C354.632 381.343 358.372 381.293 362.102 380.963C370.652 380.043 379.092 378.003 387.042 374.713C392.342 372.473 397.502 369.883 402.352 366.783C413.812 359.573 423.812 350.213 432.392 339.773C433.562 338.353 434.642 336.873 435.852 335.493C434.652 338.733 433.182 341.863 431.692 344.973C430.442 347.873 428.852 350.583 427.422 353.393C422.262 363.023 416.402 372.303 409.672 380.913C405.642 386.123 401.142 390.963 396.342 395.483C389.702 401.533 382.272 406.853 373.912 410.243C365.702 413.613 356.602 414.873 347.822 413.533C344.262 412.953 340.812 411.843 337.412 410.653C334.622 409.683 332.022 408.273 329.382 406.963C325.952 405.253 322.742 403.153 319.672 400.883C322.382 403.943 325.362 406.743 328.372 409.493C332.642 413.253 337.112 416.803 342.002 419.723C345.982 422.173 350.292 424.123 354.842 425.233C356.302 425.603 357.802 425.693 359.292 425.833C358.042 426.933 356.662 427.873 355.302 428.813C345.692 435.353 335.292 440.673 324.612 445.243C303.752 453.943 281.442 459.213 258.872 460.583C254.212 460.823 249.552 460.943 244.892 460.943C239.912 460.833 234.922 460.813 229.972 460.293C218.772 459.533 207.682 457.563 196.802 454.863C186.452 452.153 176.252 448.743 166.502 444.313C157.792 440.453 149.382 435.893 141.512 430.523C139.682 429.213 137.772 427.993 136.142 426.443C142.742 425.253 149.172 423.053 155.132 419.963C160.872 417.103 166.122 413.303 170.762 408.893C173.002 406.703 175.052 404.303 176.952 401.803C173.522 403.933 170.022 405.953 166.332 407.583C161.922 409.743 157.262 411.353 152.522 412.603C146.792 414.123 140.782 414.333 134.912 413.743C126.782 412.793 119.052 409.473 112.402 404.763C108.082 401.823 104.182 398.333 100.442 394.703C90.5119 384.543 82.2419 372.893 74.7819 360.843C70.8419 354.573 67.2519 348.093 63.6619 341.623C62.6119 339.583 61.5119 337.573 60.4819 335.523C63.3319 338.443 66.0519 341.493 68.9119 344.403C77.9019 353.373 87.4719 361.843 98.0719 368.883C105.622 373.783 113.742 378.113 122.632 379.913C125.742 380.643 128.952 380.383 132.102 380.723C134.872 381.003 137.662 380.923 140.442 381.023C145.492 381.083 150.552 381.063 155.602 380.863C159.252 380.703 162.872 380.203 166.492 379.773C168.562 379.523 170.602 379.063 172.632 378.573C176.512 377.623 180.742 377.613 184.462 379.183C189.222 381.033 192.902 384.823 195.842 388.893C198.002 391.913 199.902 395.113 201.502 398.473C202.662 400.903 203.962 403.263 205.052 405.733C206.052 407.973 207.202 410.153 208.472 412.253C209.142 413.273 209.872 414.403 211.092 414.803C212.152 414.053 212.802 412.893 213.372 411.773C215.472 407.613 216.792 403.123 218.262 398.723C220.282 392.133 222.042 385.453 223.452 378.703C225.662 369.453 226.702 359.983 227.992 350.573C228.552 346.593 228.822 342.583 229.302 338.603C230.172 327.963 231.202 317.333 231.542 306.663C231.622 304.803 231.782 302.953 231.792 301.093C231.802 296.743 232.042 292.403 232.012 288.063C232.002 285.683 232.002 283.303 232.012 280.933C232.062 275.863 231.812 270.793 231.792 265.723C231.592 259.113 231.082 252.523 230.502 245.943C229.772 240.063 228.952 234.163 227.382 228.433C225.332 220.683 221.792 213.403 217.582 206.613C214.422 201.543 210.792 196.733 206.492 192.583C202.612 188.723 197.912 185.503 192.552 184.133C191.052 183.723 189.492 183.683 187.962 183.493C188.032 180.503 188.662 177.563 189.222 174.643C190.812 166.933 193.022 159.343 195.982 152.043C197.502 148.013 199.392 144.143 201.372 140.323C204.822 133.763 208.992 127.533 213.832 121.863ZM245.102 123.563C245.452 123.503 245.812 123.443 246.172 123.373C246.362 125.163 246.262 126.953 246.272 128.743V166.873C246.262 168.613 246.402 170.363 246.122 172.093C245.762 172.063 245.412 172.043 245.062 172.043C244.112 168.293 243.342 164.493 242.442 160.733C242.062 159.203 241.862 157.643 241.372 156.143C239.672 155.903 237.942 155.973 236.222 155.943C231.162 155.933 226.092 155.943 221.032 155.933C219.372 155.923 217.712 156.023 216.052 155.903C216.022 155.513 215.792 154.993 216.212 154.723C217.492 154.073 218.932 153.843 220.272 153.373C223.702 152.233 227.152 151.213 230.582 150.063C231.972 149.583 233.482 149.343 234.742 148.523C234.782 147.963 234.762 147.393 234.692 146.843C233.462 146.293 232.162 145.973 230.882 145.563C227.752 144.533 224.592 143.603 221.472 142.543C219.682 141.923 217.802 141.543 216.062 140.753C216.032 140.383 215.992 140.023 215.952 139.663C221.042 139.473 226.152 139.723 231.252 139.543C234.612 139.413 237.982 139.623 241.342 139.473C241.462 139.083 241.602 138.703 241.712 138.313C242.792 133.373 244.042 128.483 245.102 123.563ZM251.072 123.363C251.432 123.413 251.792 123.483 252.152 123.563C253.132 127.413 253.882 131.323 254.862 135.173C255.222 136.593 255.422 138.053 255.892 139.443C258.422 139.623 260.962 139.433 263.502 139.493C268.662 139.613 273.832 139.613 278.992 139.563C279.752 139.553 280.512 139.593 281.272 139.643C281.232 140.003 281.202 140.363 281.172 140.723C279.352 141.553 277.392 141.973 275.502 142.613C271.772 143.843 268.022 145.003 264.282 146.183C263.712 146.353 263.162 146.603 262.612 146.823C262.462 147.373 262.432 147.943 262.492 148.513C263.362 148.993 264.312 149.323 265.262 149.603C270.142 151.123 274.992 152.743 279.892 154.203C280.272 154.333 280.672 154.473 281.022 154.693C281.422 154.963 281.252 155.483 281.172 155.873C279.512 156.003 277.862 155.903 276.202 155.913C271.032 155.923 265.872 155.903 260.702 155.923C259.092 155.953 257.482 155.903 255.882 156.133C255.362 157.803 255.162 159.553 254.712 161.243C253.772 164.813 253.192 168.483 252.172 172.023C251.812 172.033 251.462 172.043 251.112 172.083C250.822 170.353 250.962 168.603 250.962 166.863V128.733C250.982 126.953 250.882 125.153 251.072 123.363ZM65.0519 168.333C66.172 166.183 67.1319 163.933 68.4219 161.873C66.6019 169.433 65.5119 177.143 64.8019 184.873C64.0019 192.583 63.9519 200.363 64.2619 208.103C65.312 228.043 69.8019 247.933 78.4919 265.983C81.4819 271.973 84.8419 277.813 88.9919 283.093C95.1119 290.563 101.522 297.853 108.832 304.183C113.632 308.283 118.822 311.963 124.372 314.983C127.642 316.633 130.882 318.373 134.312 319.663C139.322 321.693 144.502 323.273 149.732 324.603C153.562 325.563 157.512 326.013 161.252 327.313C166.252 328.883 170.722 331.923 174.282 335.743C179.212 340.973 182.372 347.613 184.482 354.413C185.472 357.313 186.072 360.323 186.652 363.333C186.802 364.083 186.872 364.853 186.812 365.623C180.312 368.403 173.552 370.683 166.552 371.803C162.442 372.583 158.262 372.793 154.092 372.883C143.842 373.123 133.622 371.123 123.972 367.763C120.232 366.343 116.482 364.913 112.942 363.043C104.882 359.203 97.3019 354.343 90.4819 348.583C87.562 346.033 84.6519 343.453 82.0819 340.553C72.922 330.723 65.782 319.143 60.292 306.903C57.902 301.353 55.6819 295.723 53.9219 289.943C52.7519 286.003 51.562 282.053 50.6619 278.033C49.9119 275.093 49.442 272.083 48.792 269.113C48.332 266.973 48.1019 264.793 47.7619 262.633C46.9119 257.203 46.4819 251.703 46.4319 246.203C46.542 240.023 46.6819 233.833 47.5019 227.703C47.902 224.843 48.172 221.963 48.652 219.103C49.632 213.403 50.792 207.733 52.3619 202.173C55.452 190.523 59.8419 179.223 65.0519 168.333ZM428.782 161.893C429.882 163.553 430.692 165.373 431.562 167.153C433.662 171.603 435.802 176.053 437.582 180.643C445.192 199.403 449.882 219.433 450.622 239.693C450.642 241.453 450.692 243.213 450.732 244.983C450.862 254.553 449.462 264.073 447.552 273.433C446.822 277.023 446.012 280.603 444.972 284.123C440.932 298.843 434.972 313.123 426.562 325.903C418.352 338.473 407.552 349.453 394.722 357.313C388.992 360.903 382.932 363.953 376.672 366.503C370.892 368.693 364.962 370.533 358.872 371.613C352.472 372.663 345.962 373.133 339.472 372.843C331.552 372.363 323.692 370.773 316.262 367.993C314.322 367.193 312.322 366.533 310.422 365.663C310.212 364.153 310.672 362.673 310.952 361.203C312.112 355.463 313.982 349.843 316.652 344.623C319.022 340.113 322.172 335.973 326.112 332.723C328.542 330.673 331.352 329.113 334.272 327.893C337.852 326.393 341.742 325.923 345.512 325.063C352.742 323.353 359.882 321.133 366.662 318.063C377.012 313.413 386.372 306.683 394.312 298.603C395.902 296.993 397.542 295.423 399.052 293.733C402.422 289.973 405.762 286.163 408.902 282.203C416.382 272.133 421.722 260.613 425.612 248.723C427.192 243.423 428.822 238.123 429.822 232.673C430.452 229.803 430.862 226.893 431.342 223.993C432.212 217.903 432.932 211.773 433.022 205.613C433.142 198.963 433.162 192.293 432.492 185.673C431.762 177.683 430.622 169.713 428.782 161.893Z" fill="black"/>
</g>
</g>
</g>
</g>
</g>
</g>
</g>
</g>
</g>
</g>
</g>
</g>
</g>
</g>
</g>
<defs>
<clipPath id="clip0_3932_34660">
<rect width="496" height="512" fill="white"/>
</clipPath>
</defs>
</svg>
