<svg width="640" height="512" viewBox="0 0 640 512" fill="none" xmlns="http://www.w3.org/2000/svg">
<path d="M471.098 102.701C471.098 102.701 470.798 121.001 470.798 123.001C461.698 120.001 396.398 98.9013 335.098 96.7013C283.198 94.9013 212.298 92.4013 112.098 154.001C92.6982 166.401 38.1982 200.101 12.4982 263.701C6.99823 277.001 -0.101779 307.001 6.99823 335.101C10.2982 347.901 15.8982 360.001 23.4982 370.801C40.8982 395.801 70.0982 412.401 101.598 415.201C145.998 419.101 179.698 399.201 191.598 361.901C199.798 336.101 191.598 298.301 160.098 279.001C134.498 263.301 106.798 266.901 90.8982 277.401C76.9982 286.601 69.0982 300.901 69.2982 316.601C69.5982 344.401 93.5982 359.201 110.798 359.201C116.198 359.201 121.498 358.301 126.598 356.501C133.098 354.701 139.898 350.001 139.898 341.601C139.898 329.501 128.298 326.801 123.098 327.701C120.198 328.201 118.598 329.701 111.298 330.101C109.298 329.901 99.2982 327.001 99.2982 316.101V316.001C99.4982 303.701 112.498 298.001 124.798 299.101C157.098 301.901 172.498 339.801 153.298 364.801C134.998 388.501 76.6982 388.001 53.5982 344.401C27.5982 295.201 66.2982 233.201 140.598 246.001C173.798 251.701 224.198 281.501 242.998 350.301H288.898C283.198 332.701 279.998 282.001 331.598 282.001C388.298 282.001 395.498 321.901 411.398 350.301H459.998C447.198 332.001 438.298 311.601 441.098 294.501C446.698 260.701 480.798 276.101 523.498 277.101C589.998 277.501 625.598 250.101 626.598 249.101C630.298 246.001 633.098 233.301 633.598 231.401C634.898 226.301 630.398 229.001 630.398 229.001C621.698 234.201 599.898 244.201 579.498 244.601C554.198 245.101 503.298 219.201 497.898 216.401C497.598 216.001 497.998 217.601 486.898 190.901C575.298 249.201 605.198 231.401 632.098 212.601C632.898 212.001 636.398 209.701 635.698 206.901C621.898 158.801 613.298 144.201 601.198 137.301C564.198 115.701 476.198 102.601 471.998 102.001C472.098 101.901 471.098 101.701 471.098 102.701ZM606.698 178.101C606.353 188.074 602.061 197.5 594.766 204.308C587.471 211.115 577.77 214.746 567.798 214.401C557.826 214.057 548.399 209.765 541.592 202.469C534.784 195.174 531.153 185.474 531.498 175.501C531.843 165.529 536.135 156.102 543.43 149.295C550.725 142.487 560.426 138.857 570.398 139.201C580.37 139.546 589.797 143.838 596.605 151.133C603.412 158.429 607.043 168.129 606.698 178.101ZM570.098 150.201C566.541 149.899 562.96 150.323 559.572 151.45C556.184 152.576 553.061 154.38 550.393 156.752C547.725 159.124 545.568 162.015 544.054 165.247C542.539 168.48 541.698 171.987 541.583 175.556C541.467 179.124 542.079 182.678 543.382 186.002C544.684 189.326 546.65 192.35 549.158 194.889C551.667 197.429 554.667 199.432 557.975 200.775C561.282 202.118 564.829 202.773 568.398 202.701C571.955 203.004 575.537 202.579 578.925 201.453C582.312 200.327 585.435 198.523 588.103 196.151C590.771 193.778 592.928 190.888 594.443 187.655C595.958 184.423 596.798 180.915 596.914 177.347C597.029 173.779 596.417 170.225 595.115 166.901C593.812 163.577 591.847 160.553 589.338 158.013C586.829 155.473 583.83 153.471 580.522 152.128C577.214 150.785 573.667 150.129 570.098 150.201ZM574.398 179.001C558.998 179.001 558.998 163.401 574.398 163.401C589.798 163.401 589.798 179.001 574.398 179.001Z" fill="black"/>
</svg>
