<svg width="640" height="512" viewBox="0 0 640 512" fill="none" xmlns="http://www.w3.org/2000/svg">
<path d="M423.3 440.703C423.3 466.003 403 486.303 377.7 486.303C352.4 486.303 331.9 466.003 331.9 440.703C331.9 415.403 352.5 394.903 377.7 394.903C403.1 394.903 423.3 415.403 423.3 440.703ZM169.4 394.903C144.1 394.903 123.8 415.503 123.8 440.703C123.8 465.903 144.1 486.303 169.4 486.303C194.7 486.303 215.2 466.003 215.2 440.703C215.2 415.403 194.7 394.903 169.4 394.903ZM461.1 124.903C158.9 124.903 81.9 112.103 0 25.7031C34.4 77.4031 53.3 174.603 373.1 169.903C706.4 164.903 503.1 256.003 443.9 358.803C630.6 192.103 763.3 124.903 461.1 124.903Z" fill="black"/>
</svg>
