<svg width="496" height="512" viewBox="0 0 496 512" fill="none" xmlns="http://www.w3.org/2000/svg">
<g clip-path="url(#clip0_3932_34782)">
<mask id="mask0_3932_34782" style="mask-type:luminance" maskUnits="userSpaceOnUse" x="0" y="0" width="496" height="512">
<path d="M496 0H0V512H496V0Z" fill="white"/>
</mask>
<g mask="url(#mask0_3932_34782)">
<mask id="mask1_3932_34782" style="mask-type:luminance" maskUnits="userSpaceOnUse" x="0" y="0" width="496" height="512">
<path d="M496 0H0V512H496V0Z" fill="white"/>
</mask>
<g mask="url(#mask1_3932_34782)">
<mask id="mask2_3932_34782" style="mask-type:luminance" maskUnits="userSpaceOnUse" x="0" y="0" width="496" height="512">
<path d="M496 0H0V512H496V0Z" fill="white"/>
</mask>
<g mask="url(#mask2_3932_34782)">
<mask id="mask3_3932_34782" style="mask-type:luminance" maskUnits="userSpaceOnUse" x="0" y="0" width="496" height="512">
<path d="M496 0H0V512H496V0Z" fill="white"/>
</mask>
<g mask="url(#mask3_3932_34782)">
<mask id="mask4_3932_34782" style="mask-type:luminance" maskUnits="userSpaceOnUse" x="0" y="0" width="496" height="512">
<path d="M496 0H0V512H496V0Z" fill="white"/>
</mask>
<g mask="url(#mask4_3932_34782)">
<mask id="mask5_3932_34782" style="mask-type:luminance" maskUnits="userSpaceOnUse" x="0" y="0" width="496" height="512">
<path d="M496 0H0V512H496V0Z" fill="white"/>
</mask>
<g mask="url(#mask5_3932_34782)">
<mask id="mask6_3932_34782" style="mask-type:luminance" maskUnits="userSpaceOnUse" x="0" y="0" width="496" height="512">
<path d="M496 0H0V512H496V0Z" fill="white"/>
</mask>
<g mask="url(#mask6_3932_34782)">
<mask id="mask7_3932_34782" style="mask-type:luminance" maskUnits="userSpaceOnUse" x="0" y="0" width="496" height="512">
<path d="M496 0H0V512H496V0Z" fill="white"/>
</mask>
<g mask="url(#mask7_3932_34782)">
<mask id="mask8_3932_34782" style="mask-type:luminance" maskUnits="userSpaceOnUse" x="0" y="0" width="496" height="512">
<path d="M496 0H0V512H496V0Z" fill="white"/>
</mask>
<g mask="url(#mask8_3932_34782)">
<mask id="mask9_3932_34782" style="mask-type:luminance" maskUnits="userSpaceOnUse" x="0" y="0" width="496" height="512">
<path d="M496 0H0V512H496V0Z" fill="white"/>
</mask>
<g mask="url(#mask9_3932_34782)">
<mask id="mask10_3932_34782" style="mask-type:luminance" maskUnits="userSpaceOnUse" x="0" y="0" width="496" height="512">
<path d="M496 0H0V512H496V0Z" fill="white"/>
</mask>
<g mask="url(#mask10_3932_34782)">
<mask id="mask11_3932_34782" style="mask-type:luminance" maskUnits="userSpaceOnUse" x="0" y="0" width="496" height="512">
<path d="M496 0H0V512H496V0Z" fill="white"/>
</mask>
<g mask="url(#mask11_3932_34782)">
<mask id="mask12_3932_34782" style="mask-type:luminance" maskUnits="userSpaceOnUse" x="0" y="0" width="496" height="512">
<path d="M496 0H0V512H496V0Z" fill="white"/>
</mask>
<g mask="url(#mask12_3932_34782)">
<mask id="mask13_3932_34782" style="mask-type:luminance" maskUnits="userSpaceOnUse" x="0" y="0" width="496" height="512">
<path d="M496 0H0V512H496V0Z" fill="white"/>
</mask>
<g mask="url(#mask13_3932_34782)">
<path d="M313.9 32.7C143.7 32.7 61.3 256.5 166.4 387.8C202.9 433.2 255 463.4 313.9 463.4C350.2 463.4 384.2 452.3 413.3 433C369.5 472.2 311.4 496 248 496C244.1 496 240 496 236.1 495.7C104.6 489.6 0 381.1 0 248C0 111 111 0 248 0H248.8C311.9 0.3 369.5 24.1 413.2 63.1C384.2 43.7 350.1 32.7 313.9 32.7ZM415.7 430.4C374.8 455.1 325 454 283.7 424.6C339.9 404.1 381.4 333 381.4 248C381.4 163.3 340.2 92.2 284 71.4C325.8 42.2 375.2 41.1 416.9 66.4C522.8 165.1 522.4 332.1 415.7 430.4Z" fill="black"/>
</g>
</g>
</g>
</g>
</g>
</g>
</g>
</g>
</g>
</g>
</g>
</g>
</g>
</g>
</g>
<defs>
<clipPath id="clip0_3932_34782">
<rect width="496" height="512" fill="white"/>
</clipPath>
</defs>
</svg>
