<svg width="576" height="512" viewBox="0 0 576 512" fill="none" xmlns="http://www.w3.org/2000/svg">
<g clip-path="url(#clip0_3932_34840)">
<mask id="mask0_3932_34840" style="mask-type:luminance" maskUnits="userSpaceOnUse" x="0" y="0" width="576" height="512">
<path d="M576 0H0V512H576V0Z" fill="white"/>
</mask>
<g mask="url(#mask0_3932_34840)">
<mask id="mask1_3932_34840" style="mask-type:luminance" maskUnits="userSpaceOnUse" x="0" y="0" width="576" height="512">
<path d="M576 0H0V512H576V0Z" fill="white"/>
</mask>
<g mask="url(#mask1_3932_34840)">
<mask id="mask2_3932_34840" style="mask-type:luminance" maskUnits="userSpaceOnUse" x="0" y="0" width="576" height="512">
<path d="M576 0H0V512H576V0Z" fill="white"/>
</mask>
<g mask="url(#mask2_3932_34840)">
<mask id="mask3_3932_34840" style="mask-type:luminance" maskUnits="userSpaceOnUse" x="0" y="0" width="576" height="512">
<path d="M576 0H0V512H576V0Z" fill="white"/>
</mask>
<g mask="url(#mask3_3932_34840)">
<mask id="mask4_3932_34840" style="mask-type:luminance" maskUnits="userSpaceOnUse" x="0" y="0" width="576" height="512">
<path d="M576 0H0V512H576V0Z" fill="white"/>
</mask>
<g mask="url(#mask4_3932_34840)">
<mask id="mask5_3932_34840" style="mask-type:luminance" maskUnits="userSpaceOnUse" x="0" y="0" width="576" height="512">
<path d="M576 0H0V512H576V0Z" fill="white"/>
</mask>
<g mask="url(#mask5_3932_34840)">
<mask id="mask6_3932_34840" style="mask-type:luminance" maskUnits="userSpaceOnUse" x="0" y="0" width="576" height="512">
<path d="M576 0H0V512H576V0Z" fill="white"/>
</mask>
<g mask="url(#mask6_3932_34840)">
<mask id="mask7_3932_34840" style="mask-type:luminance" maskUnits="userSpaceOnUse" x="0" y="0" width="576" height="512">
<path d="M576 0H0V512H576V0Z" fill="white"/>
</mask>
<g mask="url(#mask7_3932_34840)">
<mask id="mask8_3932_34840" style="mask-type:luminance" maskUnits="userSpaceOnUse" x="0" y="0" width="576" height="512">
<path d="M576 0H0V512H576V0Z" fill="white"/>
</mask>
<g mask="url(#mask8_3932_34840)">
<mask id="mask9_3932_34840" style="mask-type:luminance" maskUnits="userSpaceOnUse" x="0" y="0" width="576" height="512">
<path d="M576 0H0V512H576V0Z" fill="white"/>
</mask>
<g mask="url(#mask9_3932_34840)">
<mask id="mask10_3932_34840" style="mask-type:luminance" maskUnits="userSpaceOnUse" x="0" y="0" width="576" height="512">
<path d="M576 0H0V512H576V0Z" fill="white"/>
</mask>
<g mask="url(#mask10_3932_34840)">
<mask id="mask11_3932_34840" style="mask-type:luminance" maskUnits="userSpaceOnUse" x="0" y="0" width="576" height="512">
<path d="M576 0H0V512H576V0Z" fill="white"/>
</mask>
<g mask="url(#mask11_3932_34840)">
<mask id="mask12_3932_34840" style="mask-type:luminance" maskUnits="userSpaceOnUse" x="0" y="0" width="576" height="512">
<path d="M576 0H0V512H576V0Z" fill="white"/>
</mask>
<g mask="url(#mask12_3932_34840)">
<mask id="mask13_3932_34840" style="mask-type:luminance" maskUnits="userSpaceOnUse" x="0" y="0" width="576" height="512">
<path d="M576 0H0V512H576V0Z" fill="white"/>
</mask>
<g mask="url(#mask13_3932_34840)">
<path d="M572.6 421.402C578.2 411.902 577.3 406.202 567.2 409.802C564.2 404.902 560.2 400.302 556.1 396.002C559 386.302 555.4 381.802 545.3 386.802C540.7 383.602 535 380.302 529.4 377.602C529.4 362.502 517.8 366.002 511.8 371.902C501.4 370.402 493.1 371.602 485 377.602C485.3 371.102 485.3 364.602 485.3 357.902C497.9 357.902 525.5 346.902 531.2 321.702C532.6 314.902 532.8 307.902 530.9 299.802C527.9 286.302 516.6 278.502 505.8 274.102C505 268.202 498.2 259.802 490.9 258.202C483.6 256.602 478.5 263.102 476.8 268.502C468.3 268.502 457.6 271.302 455.7 276.902C450.3 276.402 444.6 275.502 438.9 275.002C441.6 273.102 444.3 271.502 447.3 270.402C452.7 261.202 461.9 259.002 473 258.802V256.002C492.5 255.502 516 250.102 526.8 237.902C539.5 224.102 541.4 200.602 539.2 182.802C536.8 165.502 529.5 145.202 514.6 134.702C506.2 128.802 493 133.902 491.9 144.202C489.7 163.802 493.1 174.202 453.3 169.302C443 145.502 428.7 124.702 410.6 109.302C341 49.6023 242.9 55.5023 166.4 71.7023C186.1 76.3022 207.5 80.3023 226.1 88.2023C199.9 90.6023 173.4 99.5023 149.9 111.402C117.1 128.402 105.9 141.302 93.1997 153.802C108.1 151.602 122.1 148.702 137 150.002C127.3 155.402 118.6 162.202 110.5 170.002C84.6998 170.902 86.6998 164.702 84.2998 144.102C83.1998 133.602 69.9997 128.702 61.5997 134.402C33.4997 154.302 28.0998 214.302 49.3997 237.902C60.1997 250.102 84.4998 255.202 104.3 255.702C104 256.802 104 257.602 104 258.402C114.8 258.902 123.5 261.102 128.6 270.002C131.6 271.102 134.3 272.702 136.7 274.602C131.3 275.102 125.6 276.002 120.2 276.502C116.9 269.902 106.5 268.402 99.0997 268.402C97.4997 262.702 92.5997 256.202 84.9997 258.102C78.1997 260.002 70.8997 268.102 70.0997 274.002C47.5997 283.502 39.9997 300.802 44.9997 321.602C50.2997 346.402 77.9997 357.802 90.8997 357.802V377.502C84.2998 372.502 76.5997 370.002 64.0997 371.802C58.5997 366.302 46.7997 361.702 46.7997 377.502C40.8997 380.202 35.3997 383.402 30.8997 386.702C21.0998 381.802 17.2997 385.002 19.7997 395.902C15.6997 400.202 11.9998 404.502 8.69975 409.702C-1.50025 406.002 -2.30025 411.902 3.29975 421.302C2.19975 424.802 1.69975 428.302 1.39975 432.102C0.89975 463.702 45.9997 496.102 74.8997 497.202C92.1998 497.702 109.5 488.802 117.9 473.702C231.1 478.602 344.6 477.802 458.1 473.702C466.2 488.802 483.5 498.002 500.8 497.202C530 496.102 575.1 463.702 574.3 432.102C574.5 428.402 573.6 424.902 572.6 421.402ZM498.8 167.402C499.9 164.402 501.2 159.002 501.2 152.802C501.2 146.902 508 144.702 515.3 152.002C526.4 163.602 530.2 192.502 529.1 203.102C525 189.502 516.1 174.102 498.8 167.402ZM494.2 174.102C513.7 180.302 522.8 201.702 523.9 223.002C522.8 225.702 520.9 228.402 519 230.602C513.3 236.502 503.6 240.602 492.8 242.802C497.1 221.502 493.1 195.502 480.1 179.802C485 179.002 491 177.402 494.2 174.102ZM470.1 180.902C483.9 192.802 490.1 220.102 484.2 244.402C480.1 244.902 476.1 245.202 472.6 245.202C470.7 223.302 465.8 201.202 458.3 180.602C462 180.902 466.4 180.902 470.1 180.902ZM47.4997 203.002C46.3997 192.502 49.8997 163.502 61.2997 151.902C68.2997 144.602 75.3997 146.802 75.3997 152.702C75.3997 158.902 76.7998 164.302 77.7998 167.302C60.4998 174.102 51.5997 189.502 47.4997 203.002ZM57.1997 230.602C55.2997 228.402 53.6997 225.702 52.2997 223.002C53.6997 201.702 62.5997 180.302 81.9997 174.102C85.1997 177.302 91.1997 179.002 96.0997 179.802C83.0997 195.502 79.0997 221.402 83.3997 242.802C72.5997 240.602 62.8997 236.802 57.1997 230.602ZM105.1 245.202C101 245.202 96.9997 244.902 92.3997 244.402C87.7998 225.802 90.4997 205.502 97.7998 191.402V191.702L110 186.602C114.9 184.702 119.7 182.802 124.9 181.702C114.2 201.402 107.5 223.002 105.1 245.202ZM289.1 82.5023C331 82.5023 365.3 116.502 365.3 158.402C365.3 200.602 331 234.602 289.1 234.602C247.2 234.602 212.9 200.602 212.9 158.402C212.9 116.602 247.2 82.5023 289.1 82.5023ZM404.7 256.802C404.4 274.602 397.7 305.702 381.7 313.802C368.5 320.402 375.2 306.302 365.2 255.702C378.5 256.002 391.8 256.002 404.7 256.802ZM350.7 255.202C351.5 260.102 354.5 295.502 349.1 297.102C337.5 300.602 309.1 301.402 298 296.002C293.9 293.002 293.4 260.102 293.7 254.902V255.202C312.6 254.902 331.8 254.902 350.7 255.202ZM278.3 309.002C265.3 312.502 236.7 313.102 223.7 307.402C217.2 304.702 219.9 265.002 221.8 255.802C241 255.302 260.2 255.302 279.6 255.002V255.302C280.7 263.602 282.9 306.502 278.3 309.002ZM171.8 257.902C184 257.102 196.4 256.502 208.6 256.302C206.2 271.702 205.6 299.802 203.7 308.502C202.6 315.302 199.4 315.302 194 312.802C172.1 303.002 166.4 277.602 171.8 257.902ZM136.4 289.202C144.2 288.102 152.1 287.302 159.9 286.502C161.5 292.702 163.7 298.402 166.9 304.102C176.9 321.102 210.9 339.802 212 311.102C218.2 326.002 252.8 323.302 266.9 321.902C282.6 320.502 290.7 320.502 293.7 307.602C306.1 311.902 324.5 311.702 337.7 310.602C349 309.802 358.5 310.102 362.3 301.702C363.4 306.802 364.2 313.302 366.9 318.502C377.7 339.802 404.2 319.902 413.7 286.902C422.3 287.702 431.3 288.802 440.2 289.602C439.8 290.902 436.4 296.902 447.5 301.202C399.9 348.202 351.8 389.002 284.3 408.202C221.1 387.402 172.2 348.702 128.4 301.702C138 298.302 138.8 292.902 136.4 289.202ZM114.8 461.702C111 479.502 92.8997 491.402 75.0997 490.602C55.8997 489.802 28.5998 473.602 15.8997 454.102C13.1997 423.002 59.6997 392.802 82.0997 399.502C96.9997 403.802 109.9 430.302 115.6 453.502C115.6 456.502 115.3 459.202 114.8 461.702ZM106.1 395.702C105.6 382.202 105.6 368.702 105.8 355.202H106.1C108.8 353.602 111.8 351.402 113.9 348.702C120.4 347.102 126.9 343.602 129 339.502C132.3 332.402 122 332.002 123.6 327.102C126.3 326.002 129.3 324.902 131.4 323.602C160.6 352.802 190 380.102 228.7 400.602C191.9 411.902 156.3 428.202 122.8 447.602C121.6 429.002 115.1 411.702 106.1 395.702ZM443.7 460.302C340.7 463.802 237.5 464.402 134.3 460.302C134.3 460.602 134.3 460.602 134 460.602V460.302H134.3C169.4 438.702 206.5 421.102 246.7 409.502C258.3 414.602 269.7 419.002 281.6 422.702C283.8 423.502 283.8 423.502 285.9 422.702C300.2 418.602 314.3 413.502 328.1 407.302C369.6 419.002 406.9 439.002 443.7 460.302ZM454.2 447.902C418.3 428.402 381.2 412.002 342.3 400.302C380.4 380.302 414.2 353.002 445.8 323.602C448 325.002 450.4 326.002 453.4 326.802C453.4 327.602 453.7 328.702 453.9 329.202C449.3 331.902 446.1 335.402 448 339.502C450.2 343.302 456.6 347.102 463.1 348.402C465.5 351.102 468.2 353.502 471.2 355.202C471.2 369.002 470.9 382.802 470.4 396.502L470.7 396.202C461.4 412.102 455.2 433.202 454.2 447.902ZM560.1 454.102C547.4 473.602 520.1 489.802 500.9 490.602C481.6 491.502 460.4 477.402 460.4 453.602C466.1 430.402 479.3 403.902 493.9 399.602C516.6 392.702 563.1 423.002 560.1 454.102ZM372.9 75.2023C369.1 3.10221 272.1 -4.4978 246.9 51.7022C291.5 27.4022 337.2 36.0023 372.9 75.2023ZM74.7998 407.102C59.0998 408.702 25.2997 432.502 25.2997 450.302C25.2997 461.902 40.9997 469.802 57.4997 465.202C69.6997 462.002 88.5997 447.602 93.3997 437.902C99.3997 426.302 89.6998 405.202 74.7998 407.102ZM290.7 230.902C319.3 230.902 342.6 209.302 342.6 182.502C342.6 146.402 302.1 124.402 270.4 138.202C279.9 141.202 286.9 149.802 286.9 159.802C286.9 183.102 253.6 191.802 240.4 171.102C233.1 205.202 259.8 230.902 290.7 230.902ZM67.9997 474.102C68.4997 480.602 80.1997 486.802 89.5997 483.602C96.3997 480.902 104.2 473.102 106.9 467.402C109.9 460.402 105.8 447.402 97.1997 449.002C88.2997 450.602 67.4997 465.702 67.9997 474.102ZM501.2 407.102C486.3 405.202 476.6 426.302 482.3 437.902C487.2 447.602 506.4 462.002 518.5 465.202C535 469.802 550.7 462.002 550.7 450.302C550.7 432.502 516.9 408.702 501.2 407.102ZM478.8 449.002C470.4 447.402 466.4 460.302 469.3 467.402C471.7 473.102 479.6 480.902 486.6 483.602C495.8 486.802 507.7 480.602 507.9 474.102C508.8 465.702 487.7 450.602 478.8 449.002Z" fill="black"/>
</g>
</g>
</g>
</g>
</g>
</g>
</g>
</g>
</g>
</g>
</g>
</g>
</g>
</g>
</g>
<defs>
<clipPath id="clip0_3932_34840">
<rect width="576" height="512" fill="white"/>
</clipPath>
</defs>
</svg>
