<svg width="512" height="512" viewBox="0 0 512 512" fill="none" xmlns="http://www.w3.org/2000/svg">
<path d="M294.75 188.19H248.83V342H296.3C363.92 342 379.42 290.66 379.42 265.09C379.42 223.45 352.88 188.19 294.75 188.19ZM256 8C119 8 8 119 8 256C8 393 119 504 256 504C393 504 504 393 504 256C504 119 393 8 256 8ZM175.21 368.76H145.37V161.26H175.21V368.76ZM160.29 137.62C156.419 137.62 152.636 136.472 149.417 134.322C146.199 132.171 143.691 129.115 142.21 125.539C140.728 121.963 140.341 118.028 141.096 114.232C141.851 110.436 143.715 106.949 146.452 104.212C149.189 101.475 152.676 99.6111 156.472 98.856C160.268 98.1009 164.203 98.4885 167.779 99.9697C171.355 101.451 174.411 103.959 176.562 107.177C178.712 110.396 179.86 114.179 179.86 118.05C179.842 123.235 177.774 128.202 174.108 131.868C170.442 135.534 165.475 137.602 160.29 137.62ZM300 369H219V161.26H299.6C376.33 161.26 410.04 216.09 410.04 265.11C410 318.39 368.38 369 300 369Z" fill="black"/>
</svg>
