<svg width="640" height="512" viewBox="0 0 640 512" fill="none" xmlns="http://www.w3.org/2000/svg">
<path d="M181.5 197.1L194.4 203.5C200.3 206.5 206.8 208 213.5 208C237 208 256.1 188.9 256.1 165.4V144C256.1 108.7 227.4 80 192.1 80H128C92.7 80 64 108.7 64 144V165.4C64 188.9 83.1 208 106.6 208C113.2 208 119.7 206.5 125.7 203.5L138.6 197.1L147 192.9L135.1 185C130.6 182 128 177 128 171.7V168C128 154.7 138.7 144 152 144H168C181.3 144 192 154.7 192 168V171.7C192 177 189.3 182 184.9 185L173.1 192.9L181.5 197.1ZM172.9 246.5L160 240L147.1 246.4C134.5 252.7 120.6 256 106.6 256C103 256 99.5 255.8 96 255.4V256C96 291.3 124.7 320 160 320H224C241.7 320 256 334.3 256 352C256 369.7 241.7 384 224 384H384V336V320C384 296.3 396.9 275.6 416 264.6C425.4 259.2 436.3 256 448 256V240C448 213.5 469.5 192 496 192C504.8 192 512 199.2 512 208V240V256V304C512 312.8 519.2 320 528 320C536.8 320 544 312.8 544 304V204.3C544 156.1 513.2 113.3 467.4 98L458.9 95.2C450.9 92.5 446.3 84.1 448.5 75.9C450.7 67.7 458.8 62.7 467.1 64.3L487 68.3C576 86.1 640 164.2 640 254.9V256C640 379.7 539.7 480 416 480H414.9H256H255.4C132 480 32 380 32 256.6V256V216.8C21.9 202.2 16 184.5 16 165.4V144V142.6C6.7 139.3 0 130.5 0 120C0 106.7 10.7 96 24 96H26.8C44.8 58.2 83.3 32 128 32H192C236.7 32 275.2 58.2 293.2 96H296C309.3 96 320 106.7 320 120C320 130.5 313.3 139.3 304 142.6V144V165.4C304 166.8 304 168.2 303.9 169.7C315.9 163.5 329.6 160.1 344 160.1H352C369.7 160.1 384 174.4 384 192.1C384 209.8 369.7 224.1 352 224.1H344C330.7 224.1 320 234.8 320 248.1V256.1H376.4C361.2 273.1 352 295.5 352 320.1H320C277.7 320.1 241.8 292.7 229 254.8C223.9 255.7 218.7 256.1 213.4 256.1C199.3 256.1 185.5 252.8 172.9 246.5ZM96 128C100.243 128 104.313 129.686 107.314 132.686C110.314 135.687 112 139.757 112 144C112 148.243 110.314 152.313 107.314 155.314C104.313 158.314 100.243 160 96 160C91.7565 160 87.6869 158.314 84.6863 155.314C81.6857 152.313 80 148.243 80 144C80 139.757 81.6857 135.687 84.6863 132.686C87.6869 129.686 91.7565 128 96 128ZM208 144C208 139.757 209.686 135.687 212.686 132.686C215.687 129.686 219.757 128 224 128C228.243 128 232.313 129.686 235.314 132.686C238.314 135.687 240 139.757 240 144C240 148.243 238.314 152.313 235.314 155.314C232.313 158.314 228.243 160 224 160C219.757 160 215.687 158.314 212.686 155.314C209.686 152.313 208 148.243 208 144Z" fill="black"/>
</svg>
