<svg width="448" height="512" viewBox="0 0 448 512" fill="none" xmlns="http://www.w3.org/2000/svg">
<g clip-path="url(#clip0_3932_34904)">
<mask id="mask0_3932_34904" style="mask-type:luminance" maskUnits="userSpaceOnUse" x="0" y="0" width="448" height="512">
<path d="M448 0H0V512H448V0Z" fill="white"/>
</mask>
<g mask="url(#mask0_3932_34904)">
<mask id="mask1_3932_34904" style="mask-type:luminance" maskUnits="userSpaceOnUse" x="0" y="0" width="448" height="512">
<path d="M448 0H0V512H448V0Z" fill="white"/>
</mask>
<g mask="url(#mask1_3932_34904)">
<mask id="mask2_3932_34904" style="mask-type:luminance" maskUnits="userSpaceOnUse" x="0" y="0" width="448" height="512">
<path d="M448 0H0V512H448V0Z" fill="white"/>
</mask>
<g mask="url(#mask2_3932_34904)">
<mask id="mask3_3932_34904" style="mask-type:luminance" maskUnits="userSpaceOnUse" x="0" y="0" width="448" height="512">
<path d="M448 0H0V512H448V0Z" fill="white"/>
</mask>
<g mask="url(#mask3_3932_34904)">
<mask id="mask4_3932_34904" style="mask-type:luminance" maskUnits="userSpaceOnUse" x="0" y="0" width="448" height="512">
<path d="M448 0H0V512H448V0Z" fill="white"/>
</mask>
<g mask="url(#mask4_3932_34904)">
<mask id="mask5_3932_34904" style="mask-type:luminance" maskUnits="userSpaceOnUse" x="0" y="0" width="448" height="512">
<path d="M448 0H0V512H448V0Z" fill="white"/>
</mask>
<g mask="url(#mask5_3932_34904)">
<mask id="mask6_3932_34904" style="mask-type:luminance" maskUnits="userSpaceOnUse" x="0" y="0" width="448" height="512">
<path d="M448 0H0V512H448V0Z" fill="white"/>
</mask>
<g mask="url(#mask6_3932_34904)">
<mask id="mask7_3932_34904" style="mask-type:luminance" maskUnits="userSpaceOnUse" x="0" y="0" width="448" height="512">
<path d="M448 0H0V512H448V0Z" fill="white"/>
</mask>
<g mask="url(#mask7_3932_34904)">
<mask id="mask8_3932_34904" style="mask-type:luminance" maskUnits="userSpaceOnUse" x="0" y="0" width="448" height="512">
<path d="M448 0H0V512H448V0Z" fill="white"/>
</mask>
<g mask="url(#mask8_3932_34904)">
<mask id="mask9_3932_34904" style="mask-type:luminance" maskUnits="userSpaceOnUse" x="0" y="0" width="448" height="512">
<path d="M448 0H0V512H448V0Z" fill="white"/>
</mask>
<g mask="url(#mask9_3932_34904)">
<mask id="mask10_3932_34904" style="mask-type:luminance" maskUnits="userSpaceOnUse" x="0" y="0" width="448" height="512">
<path d="M448 0H0V512H448V0Z" fill="white"/>
</mask>
<g mask="url(#mask10_3932_34904)">
<mask id="mask11_3932_34904" style="mask-type:luminance" maskUnits="userSpaceOnUse" x="0" y="0" width="448" height="512">
<path d="M448 0H0V512H448V0Z" fill="white"/>
</mask>
<g mask="url(#mask11_3932_34904)">
<mask id="mask12_3932_34904" style="mask-type:luminance" maskUnits="userSpaceOnUse" x="0" y="0" width="448" height="512">
<path d="M448 0H0V512H448V0Z" fill="white"/>
</mask>
<g mask="url(#mask12_3932_34904)">
<mask id="mask13_3932_34904" style="mask-type:luminance" maskUnits="userSpaceOnUse" x="0" y="0" width="448" height="512">
<path d="M448 0H0V512H448V0Z" fill="white"/>
</mask>
<g mask="url(#mask13_3932_34904)">
<path d="M-0.0031085 64C-0.0031085 46.3 14.2969 32 31.9969 32H415.997C433.697 32 447.997 46.3 447.997 64C447.997 81.7 433.697 96 415.997 96H31.9969C14.2969 96 -0.0031085 81.7 -0.0031085 64ZM191.997 192C191.997 174.3 206.297 160 223.997 160H415.997C433.697 160 447.997 174.3 447.997 192C447.997 209.7 433.697 224 415.997 224H223.997C206.297 224 191.997 209.7 191.997 192ZM223.997 288H415.997C433.697 288 447.997 302.3 447.997 320C447.997 337.7 433.697 352 415.997 352H223.997C206.297 352 191.997 337.7 191.997 320C191.997 302.3 206.297 288 223.997 288ZM-0.0031085 448C-0.0031085 430.3 14.2969 416 31.9969 416H415.997C433.697 416 447.997 430.3 447.997 448C447.997 465.7 433.697 480 415.997 480H31.9969C14.2969 480 -0.0031085 465.7 -0.0031085 448ZM0.196888 268.6C-8.00313 262.2 -8.00313 249.7 0.196888 243.3L102.097 164C112.597 155.8 127.897 163.3 127.897 176.6V335.3C127.897 348.6 112.597 356.1 102.097 347.9L0.196888 268.6Z" fill="black"/>
</g>
</g>
</g>
</g>
</g>
</g>
</g>
</g>
</g>
</g>
</g>
</g>
</g>
</g>
</g>
<defs>
<clipPath id="clip0_3932_34904">
<rect width="448" height="512" fill="white"/>
</clipPath>
</defs>
</svg>
