<svg width="384" height="512" viewBox="0 0 384 512" fill="none" xmlns="http://www.w3.org/2000/svg">
<g clip-path="url(#clip0_3932_35024)">
<mask id="mask0_3932_35024" style="mask-type:luminance" maskUnits="userSpaceOnUse" x="0" y="0" width="384" height="512">
<path d="M384 0H0V512H384V0Z" fill="white"/>
</mask>
<g mask="url(#mask0_3932_35024)">
<mask id="mask1_3932_35024" style="mask-type:luminance" maskUnits="userSpaceOnUse" x="0" y="0" width="384" height="512">
<path d="M384 0H0V512H384V0Z" fill="white"/>
</mask>
<g mask="url(#mask1_3932_35024)">
<mask id="mask2_3932_35024" style="mask-type:luminance" maskUnits="userSpaceOnUse" x="0" y="0" width="384" height="512">
<path d="M384 0H0V512H384V0Z" fill="white"/>
</mask>
<g mask="url(#mask2_3932_35024)">
<mask id="mask3_3932_35024" style="mask-type:luminance" maskUnits="userSpaceOnUse" x="0" y="0" width="384" height="512">
<path d="M384 0H0V512H384V0Z" fill="white"/>
</mask>
<g mask="url(#mask3_3932_35024)">
<mask id="mask4_3932_35024" style="mask-type:luminance" maskUnits="userSpaceOnUse" x="0" y="0" width="384" height="512">
<path d="M384 0H0V512H384V0Z" fill="white"/>
</mask>
<g mask="url(#mask4_3932_35024)">
<mask id="mask5_3932_35024" style="mask-type:luminance" maskUnits="userSpaceOnUse" x="0" y="0" width="384" height="512">
<path d="M384 0H0V512H384V0Z" fill="white"/>
</mask>
<g mask="url(#mask5_3932_35024)">
<mask id="mask6_3932_35024" style="mask-type:luminance" maskUnits="userSpaceOnUse" x="0" y="0" width="384" height="512">
<path d="M384 0H0V512H384V0Z" fill="white"/>
</mask>
<g mask="url(#mask6_3932_35024)">
<mask id="mask7_3932_35024" style="mask-type:luminance" maskUnits="userSpaceOnUse" x="0" y="0" width="384" height="512">
<path d="M384 0H0V512H384V0Z" fill="white"/>
</mask>
<g mask="url(#mask7_3932_35024)">
<mask id="mask8_3932_35024" style="mask-type:luminance" maskUnits="userSpaceOnUse" x="0" y="0" width="384" height="512">
<path d="M384 0H0V512H384V0Z" fill="white"/>
</mask>
<g mask="url(#mask8_3932_35024)">
<mask id="mask9_3932_35024" style="mask-type:luminance" maskUnits="userSpaceOnUse" x="0" y="0" width="384" height="512">
<path d="M384 0H0V512H384V0Z" fill="white"/>
</mask>
<g mask="url(#mask9_3932_35024)">
<mask id="mask10_3932_35024" style="mask-type:luminance" maskUnits="userSpaceOnUse" x="0" y="0" width="384" height="512">
<path d="M384 0H0V512H384V0Z" fill="white"/>
</mask>
<g mask="url(#mask10_3932_35024)">
<mask id="mask11_3932_35024" style="mask-type:luminance" maskUnits="userSpaceOnUse" x="0" y="0" width="384" height="512">
<path d="M384 0H0V512H384V0Z" fill="white"/>
</mask>
<g mask="url(#mask11_3932_35024)">
<mask id="mask12_3932_35024" style="mask-type:luminance" maskUnits="userSpaceOnUse" x="0" y="0" width="384" height="512">
<path d="M384 0H0V512H384V0Z" fill="white"/>
</mask>
<g mask="url(#mask12_3932_35024)">
<mask id="mask13_3932_35024" style="mask-type:luminance" maskUnits="userSpaceOnUse" x="0" y="0" width="384" height="512">
<path d="M384 0H0V512H384V0Z" fill="white"/>
</mask>
<g mask="url(#mask13_3932_35024)">
<path d="M384.002 312.7C328.902 449.4 196.902 366.7 196.902 366.7C156.402 448.5 89.5023 501.1 12.3023 501.4C-3.79773 501.4 -4.29773 477 12.3023 477C76.7023 476.7 132.802 434.3 169.502 366.9C128.402 382.8 50.9023 394.8 7.90227 284.7C116.902 239.8 167.002 295.9 186.202 330.2C196.102 305.8 203.202 279.3 207.802 250.5C207.802 250.5 68.1023 272.4 58.3023 152.4C177.402 104.5 210.902 229.1 210.902 229.1C212.502 212.4 214.202 176.5 214.202 175.7C214.202 175.7 107.902 102 176.102 10.5C300.702 53.5 237.502 172.9 237.502 172.9C238.002 174.5 238.002 196.7 237.502 206.3C237.502 206.3 282.702 117.3 373.902 148.8C369.702 282.8 232.002 255.2 232.002 255.2C227.602 282.6 220.802 308.6 212.002 332.7C212.002 332.7 295.002 240.9 384.002 312.7Z" fill="black"/>
</g>
</g>
</g>
</g>
</g>
</g>
</g>
</g>
</g>
</g>
</g>
</g>
</g>
</g>
</g>
<defs>
<clipPath id="clip0_3932_35024">
<rect width="384" height="512" fill="white"/>
</clipPath>
</defs>
</svg>
