<svg width="512" height="512" viewBox="0 0 512 512" fill="none" xmlns="http://www.w3.org/2000/svg">
<path d="M368.401 18.3L312.701 74.1L437.901 199.3L493.601 143.6C515.501 121.7 515.501 86.3 493.601 64.4L447.601 18.3C425.701 -3.6 390.301 -3.6 368.401 18.3ZM288.001 94.6L278.801 97.4L134.701 140.6C114.801 146.6 99.001 161.8 92.401 181.6L3.80096 445.8C0.000952244 457.1 2.80096 469.7 11.101 478.2L164.701 324.7C161.701 318.4 160.001 311.4 160.001 304C160.001 277.5 181.501 256 208.001 256C234.501 256 256.001 277.5 256.001 304C256.001 330.5 234.501 352 208.001 352C200.601 352 193.601 350.3 187.301 347.3L33.701 500.9C42.301 509.2 54.801 512.1 66.101 508.2L330.401 419.6C350.101 413 365.401 397.2 371.401 377.3L414.601 233.2L417.401 224L288.001 94.6Z" fill="black"/>
</svg>
