<svg width="576" height="512" viewBox="0 0 576 512" fill="none" xmlns="http://www.w3.org/2000/svg">
<g clip-path="url(#clip0_3932_35910)">
<mask id="mask0_3932_35910" style="mask-type:luminance" maskUnits="userSpaceOnUse" x="0" y="0" width="576" height="512">
<path d="M576 0H0V512H576V0Z" fill="white"/>
</mask>
<g mask="url(#mask0_3932_35910)">
<mask id="mask1_3932_35910" style="mask-type:luminance" maskUnits="userSpaceOnUse" x="0" y="0" width="576" height="512">
<path d="M576 0H0V512H576V0Z" fill="white"/>
</mask>
<g mask="url(#mask1_3932_35910)">
<mask id="mask2_3932_35910" style="mask-type:luminance" maskUnits="userSpaceOnUse" x="0" y="0" width="576" height="512">
<path d="M576 0H0V512H576V0Z" fill="white"/>
</mask>
<g mask="url(#mask2_3932_35910)">
<mask id="mask3_3932_35910" style="mask-type:luminance" maskUnits="userSpaceOnUse" x="0" y="0" width="576" height="512">
<path d="M576 0H0V512H576V0Z" fill="white"/>
</mask>
<g mask="url(#mask3_3932_35910)">
<mask id="mask4_3932_35910" style="mask-type:luminance" maskUnits="userSpaceOnUse" x="0" y="0" width="576" height="512">
<path d="M576 0H0V512H576V0Z" fill="white"/>
</mask>
<g mask="url(#mask4_3932_35910)">
<mask id="mask5_3932_35910" style="mask-type:luminance" maskUnits="userSpaceOnUse" x="0" y="0" width="576" height="512">
<path d="M576 0H0V512H576V0Z" fill="white"/>
</mask>
<g mask="url(#mask5_3932_35910)">
<mask id="mask6_3932_35910" style="mask-type:luminance" maskUnits="userSpaceOnUse" x="0" y="0" width="576" height="512">
<path d="M576 0H0V512H576V0Z" fill="white"/>
</mask>
<g mask="url(#mask6_3932_35910)">
<mask id="mask7_3932_35910" style="mask-type:luminance" maskUnits="userSpaceOnUse" x="0" y="0" width="576" height="512">
<path d="M576 0H0V512H576V0Z" fill="white"/>
</mask>
<g mask="url(#mask7_3932_35910)">
<mask id="mask8_3932_35910" style="mask-type:luminance" maskUnits="userSpaceOnUse" x="0" y="0" width="576" height="512">
<path d="M576 0H0V512H576V0Z" fill="white"/>
</mask>
<g mask="url(#mask8_3932_35910)">
<mask id="mask9_3932_35910" style="mask-type:luminance" maskUnits="userSpaceOnUse" x="0" y="0" width="576" height="512">
<path d="M576 0H0V512H576V0Z" fill="white"/>
</mask>
<g mask="url(#mask9_3932_35910)">
<mask id="mask10_3932_35910" style="mask-type:luminance" maskUnits="userSpaceOnUse" x="0" y="0" width="576" height="512">
<path d="M576 0H0V512H576V0Z" fill="white"/>
</mask>
<g mask="url(#mask10_3932_35910)">
<mask id="mask11_3932_35910" style="mask-type:luminance" maskUnits="userSpaceOnUse" x="0" y="0" width="576" height="512">
<path d="M576 0H0V512H576V0Z" fill="white"/>
</mask>
<g mask="url(#mask11_3932_35910)">
<mask id="mask12_3932_35910" style="mask-type:luminance" maskUnits="userSpaceOnUse" x="0" y="0" width="576" height="512">
<path d="M576 0H0V512H576V0Z" fill="white"/>
</mask>
<g mask="url(#mask12_3932_35910)">
<mask id="mask13_3932_35910" style="mask-type:luminance" maskUnits="userSpaceOnUse" x="0" y="0" width="576" height="512">
<path d="M576 0H0V512H576V0Z" fill="white"/>
</mask>
<g mask="url(#mask13_3932_35910)">
<path d="M80 96C92.7304 96 104.939 90.9429 113.941 81.9411C122.943 72.9394 128 60.7304 128 48C128 35.2696 122.943 23.0606 113.941 14.0589C104.939 5.05713 92.7304 0 80 0C67.2696 0 55.0606 5.05713 46.0589 14.0589C37.0571 23.0606 32 35.2696 32 48C32 60.7304 37.0571 72.9394 46.0589 81.9411C55.0606 90.9429 67.2696 96 80 96ZM64 128C28.7 128 0 156.7 0 192V320C0 337.7 14.3 352 32 352C41.8 352 50.5 347.6 56.4 340.8L80.4 485.3C83.3 502.7 99.8 514.5 117.2 511.6C134.6 508.7 146.4 492.2 143.5 474.8L123.1 352H138.8L168.8 486.9C172.6 504.2 189.7 515 207 511.2C224.3 507.4 235.1 490.3 231.3 473L174 215L290.3 268.8C290.8 269.1 291.4 269.3 291.9 269.5C300.5 273.1 309.9 272.6 317.8 268.8C321.2 267.2 324.4 264.9 327.1 262.1C330.2 258.9 332.6 255.1 334.2 250.7C334.3 250.4 334.4 250 334.5 249.7L337 242.2C342.7 225.1 355.3 211.3 371.7 204L379.7 200.5C380.7 200.1 381.6 199.7 382.6 199.3L365.7 262.8C360.1 283.9 365.6 306.4 380.4 322.5L451.1 399.6L473.1 487.7C477.4 504.8 494.8 515.3 511.9 511C529 506.7 539.5 489.3 535.2 472.2L512.2 380.1C510.3 372.3 506.4 365.2 501 359.3L451.5 305.3L470.8 239.8L480.4 262.8C484.8 273.4 492.9 282.1 503.2 287.3L529.9 300.6C545.7 308.5 564.9 302.1 572.8 286.3C580.7 270.5 574.3 251.3 558.5 243.4L537 232.7L521.7 195.9C504.5 154.8 464.3 128 419.7 128C396.9 128 374.4 132.8 353.6 142L345.6 145.5C321.2 156.4 301 174.5 287.5 197.1L157.3 136.9C144.7 131 130.9 128 117 128H64ZM464 96C476.73 96 488.939 90.9429 497.941 81.9411C506.943 72.9394 512 60.7304 512 48C512 35.2696 506.943 23.0606 497.941 14.0589C488.939 5.05713 476.73 0 464 0C451.27 0 439.061 5.05713 430.059 14.0589C421.057 23.0606 416 35.2696 416 48C416 60.7304 421.057 72.9394 430.059 81.9411C439.061 90.9429 451.27 96 464 96ZM349.7 335.6L324.7 398L265.3 457.4C252.8 469.9 252.8 490.2 265.3 502.7C277.8 515.2 298.1 515.2 310.6 502.7L372.3 441C376.9 436.4 380.5 430.9 382.9 424.9L397.4 388.7L356.7 344.3C354.2 341.6 351.9 338.7 349.7 335.7V335.6Z" fill="black"/>
</g>
</g>
</g>
</g>
</g>
</g>
</g>
</g>
</g>
</g>
</g>
</g>
</g>
</g>
</g>
<defs>
<clipPath id="clip0_3932_35910">
<rect width="576" height="512" fill="white"/>
</clipPath>
</defs>
</svg>
