<svg width="640" height="512" viewBox="0 0 640 512" fill="none" xmlns="http://www.w3.org/2000/svg">
<path d="M360 72C360 61.3913 355.786 51.2172 348.284 43.7157C340.783 36.2143 330.609 32 320 32C309.391 32 299.217 36.2143 291.716 43.7157C284.214 51.2172 280 61.3913 280 72C280 82.6087 284.214 92.7828 291.716 100.284C299.217 107.786 309.391 112 320 112C330.609 112 340.783 107.786 348.284 100.284C355.786 92.7828 360 82.6087 360 72ZM144 208C154.609 208 164.783 203.786 172.284 196.284C179.786 188.783 184 178.609 184 168C184 157.391 179.786 147.217 172.284 139.716C164.783 132.214 154.609 128 144 128C133.391 128 123.217 132.214 115.716 139.716C108.214 147.217 104 157.391 104 168C104 178.609 108.214 188.783 115.716 196.284C123.217 203.786 133.391 208 144 208ZM32 416C14.3 416 0 430.3 0 448C0 465.7 14.3 480 32 480H608C625.7 480 640 465.7 640 448C640 430.3 625.7 416 608 416H32ZM496 208C506.609 208 516.783 203.786 524.284 196.284C531.786 188.783 536 178.609 536 168C536 157.391 531.786 147.217 524.284 139.716C516.783 132.214 506.609 128 496 128C485.391 128 475.217 132.214 467.716 139.716C460.214 147.217 456 157.391 456 168C456 178.609 460.214 188.783 467.716 196.284C475.217 203.786 485.391 208 496 208ZM200 313.5L226.9 363.4C233.2 375.1 247.7 379.4 259.4 373.2C271.1 367 275.4 352.4 269.2 340.7L232.9 273.2C234.6 271.5 236.1 269.6 237.2 267.4L264 217.5V272C264 289.7 278.3 304 296 304H344C361.7 304 376 289.7 376 272V217.5L402.9 267.4C404.1 269.6 405.5 271.5 407.2 273.2L370.9 340.7C364.6 352.4 369 366.9 380.7 373.2C392.4 379.5 406.9 375.1 413.2 363.4L440 313.5V352C440 369.7 454.3 384 472 384H520C537.7 384 552 369.7 552 352V313.5L578.9 363.4C585.2 375.1 599.7 379.4 611.4 373.2C623.1 367 627.4 352.4 621.2 340.7L583.3 270.4C568 241.9 538.2 224.1 505.8 224.1H486.2C469.9 224.1 454.3 228.6 440.8 236.7L407.2 174.4C391.9 145.9 362.1 128.1 329.7 128.1H310.2C277.8 128.1 248.1 145.9 232.7 174.4L199.1 236.7C185.6 228.6 170 224.1 153.7 224.1H134.2C101.8 224.1 72.1 241.9 56.7 270.4L18.9 340.6C12.6 352.3 17 366.8 28.7 373.1C40.4 379.4 54.9 375 61.2 363.3L88 313.5V352C88 369.7 102.3 384 120 384H168C185.7 384 200 369.7 200 352V313.5Z" fill="black"/>
</svg>
