<svg width="640" height="512" viewBox="0 0 640 512" fill="none" xmlns="http://www.w3.org/2000/svg">
<g clip-path="url(#clip0_3932_35970)">
<mask id="mask0_3932_35970" style="mask-type:luminance" maskUnits="userSpaceOnUse" x="0" y="0" width="640" height="512">
<path d="M640 0H0V512H640V0Z" fill="white"/>
</mask>
<g mask="url(#mask0_3932_35970)">
<mask id="mask1_3932_35970" style="mask-type:luminance" maskUnits="userSpaceOnUse" x="0" y="0" width="640" height="512">
<path d="M640 0H0V512H640V0Z" fill="white"/>
</mask>
<g mask="url(#mask1_3932_35970)">
<mask id="mask2_3932_35970" style="mask-type:luminance" maskUnits="userSpaceOnUse" x="0" y="0" width="640" height="512">
<path d="M640 0H0V512H640V0Z" fill="white"/>
</mask>
<g mask="url(#mask2_3932_35970)">
<mask id="mask3_3932_35970" style="mask-type:luminance" maskUnits="userSpaceOnUse" x="0" y="0" width="640" height="512">
<path d="M640 0H0V512H640V0Z" fill="white"/>
</mask>
<g mask="url(#mask3_3932_35970)">
<mask id="mask4_3932_35970" style="mask-type:luminance" maskUnits="userSpaceOnUse" x="0" y="0" width="640" height="512">
<path d="M640 0H0V512H640V0Z" fill="white"/>
</mask>
<g mask="url(#mask4_3932_35970)">
<mask id="mask5_3932_35970" style="mask-type:luminance" maskUnits="userSpaceOnUse" x="0" y="0" width="640" height="512">
<path d="M640 0H0V512H640V0Z" fill="white"/>
</mask>
<g mask="url(#mask5_3932_35970)">
<mask id="mask6_3932_35970" style="mask-type:luminance" maskUnits="userSpaceOnUse" x="0" y="0" width="640" height="512">
<path d="M640 0H0V512H640V0Z" fill="white"/>
</mask>
<g mask="url(#mask6_3932_35970)">
<mask id="mask7_3932_35970" style="mask-type:luminance" maskUnits="userSpaceOnUse" x="0" y="0" width="640" height="512">
<path d="M640 0H0V512H640V0Z" fill="white"/>
</mask>
<g mask="url(#mask7_3932_35970)">
<mask id="mask8_3932_35970" style="mask-type:luminance" maskUnits="userSpaceOnUse" x="0" y="0" width="640" height="512">
<path d="M640 0H0V512H640V0Z" fill="white"/>
</mask>
<g mask="url(#mask8_3932_35970)">
<mask id="mask9_3932_35970" style="mask-type:luminance" maskUnits="userSpaceOnUse" x="0" y="0" width="640" height="512">
<path d="M640 0H0V512H640V0Z" fill="white"/>
</mask>
<g mask="url(#mask9_3932_35970)">
<mask id="mask10_3932_35970" style="mask-type:luminance" maskUnits="userSpaceOnUse" x="0" y="0" width="640" height="512">
<path d="M640 0H0V512H640V0Z" fill="white"/>
</mask>
<g mask="url(#mask10_3932_35970)">
<mask id="mask11_3932_35970" style="mask-type:luminance" maskUnits="userSpaceOnUse" x="0" y="0" width="640" height="512">
<path d="M640 0H0V512H640V0Z" fill="white"/>
</mask>
<g mask="url(#mask11_3932_35970)">
<mask id="mask12_3932_35970" style="mask-type:luminance" maskUnits="userSpaceOnUse" x="0" y="0" width="640" height="512">
<path d="M640 0H0V512H640V0Z" fill="white"/>
</mask>
<g mask="url(#mask12_3932_35970)">
<mask id="mask13_3932_35970" style="mask-type:luminance" maskUnits="userSpaceOnUse" x="0" y="0" width="640" height="512">
<path d="M640 0H0V512H640V0Z" fill="white"/>
</mask>
<g mask="url(#mask13_3932_35970)">
<path d="M335.499 4.00313L623.499 164.003C638.899 172.603 644.499 192.103 635.899 207.503C627.299 222.903 607.799 228.503 592.399 219.903L319.999 68.6031L47.499 220.003C32.099 228.603 12.599 223.003 3.99896 207.603C-4.60104 192.203 0.998952 172.703 16.399 164.103L304.499 4.00313C314.199 -1.39687 325.899 -1.39687 335.599 4.00313H335.499ZM319.999 160.003C330.608 160.003 340.782 164.217 348.283 171.719C355.785 179.22 359.999 189.395 359.999 200.003C359.999 210.612 355.785 220.786 348.283 228.287C340.782 235.789 330.608 240.003 319.999 240.003C309.39 240.003 299.216 235.789 291.715 228.287C284.213 220.786 279.999 210.612 279.999 200.003C279.999 189.395 284.213 179.22 291.715 171.719C299.216 164.217 309.39 160.003 319.999 160.003ZM143.999 256.003C154.608 256.003 164.782 260.217 172.283 267.719C179.785 275.22 183.999 285.395 183.999 296.003C183.999 306.612 179.785 316.786 172.283 324.287C164.782 331.789 154.608 336.003 143.999 336.003C133.39 336.003 123.216 331.789 115.715 324.287C108.213 316.786 103.999 306.612 103.999 296.003C103.999 285.395 108.213 275.22 115.715 267.719C123.216 260.217 133.39 256.003 143.999 256.003ZM455.999 296.003C455.999 285.395 460.213 275.22 467.715 267.719C475.216 260.217 485.39 256.003 495.999 256.003C506.608 256.003 516.782 260.217 524.283 267.719C531.785 275.22 535.999 285.395 535.999 296.003C535.999 306.612 531.785 316.786 524.283 324.287C516.782 331.789 506.608 336.003 495.999 336.003C485.39 336.003 475.216 331.789 467.715 324.287C460.213 316.786 455.999 306.612 455.999 296.003ZM226.899 491.403L199.999 441.503V480.003C199.999 497.703 185.699 512.003 167.999 512.003H119.999C102.299 512.003 87.999 497.703 87.999 480.003V441.503L61.099 491.403C54.799 503.103 40.299 507.403 28.599 501.203C16.899 495.003 12.599 480.403 18.799 468.703L56.699 398.403C71.999 369.903 101.799 352.103 134.199 352.103H153.699C169.999 352.103 185.599 356.603 199.099 364.703L232.699 302.403C247.999 273.903 277.799 256.103 310.199 256.103H329.699C362.099 256.103 391.799 273.903 407.199 302.403L440.799 364.703C454.299 356.603 469.899 352.103 486.199 352.103H505.699C538.099 352.103 567.799 369.903 583.199 398.403L621.099 468.703C627.399 480.403 622.999 494.903 611.299 501.203C599.599 507.503 585.099 503.103 578.799 491.403L551.999 441.503V480.003C551.999 497.703 537.699 512.003 519.999 512.003H471.999C454.299 512.003 439.999 497.703 439.999 480.003V441.503L413.099 491.403C406.799 503.103 392.299 507.403 380.599 501.203C368.899 495.003 364.599 480.403 370.799 468.703L407.099 401.203C405.399 399.503 403.899 397.603 402.799 395.403L375.999 345.503V400.003C375.999 417.703 361.699 432.003 343.999 432.003H295.999C278.299 432.003 263.999 417.703 263.999 400.003V345.503L237.099 395.403C235.899 397.603 234.499 399.503 232.799 401.203L269.099 468.703C275.399 480.403 270.999 494.903 259.299 501.203C247.599 507.503 233.099 503.103 226.799 491.403H226.899Z" fill="black"/>
</g>
</g>
</g>
</g>
</g>
</g>
</g>
</g>
</g>
</g>
</g>
</g>
</g>
</g>
</g>
<defs>
<clipPath id="clip0_3932_35970">
<rect width="640" height="512" fill="white"/>
</clipPath>
</defs>
</svg>
