<svg width="640" height="512" viewBox="0 0 640 512" fill="none" xmlns="http://www.w3.org/2000/svg">
<g clip-path="url(#clip0_3932_36378)">
<mask id="mask0_3932_36378" style="mask-type:luminance" maskUnits="userSpaceOnUse" x="0" y="0" width="640" height="512">
<path d="M640 0H0V512H640V0Z" fill="white"/>
</mask>
<g mask="url(#mask0_3932_36378)">
<mask id="mask1_3932_36378" style="mask-type:luminance" maskUnits="userSpaceOnUse" x="0" y="0" width="640" height="512">
<path d="M640 0H0V512H640V0Z" fill="white"/>
</mask>
<g mask="url(#mask1_3932_36378)">
<mask id="mask2_3932_36378" style="mask-type:luminance" maskUnits="userSpaceOnUse" x="0" y="0" width="640" height="512">
<path d="M640 0H0V512H640V0Z" fill="white"/>
</mask>
<g mask="url(#mask2_3932_36378)">
<mask id="mask3_3932_36378" style="mask-type:luminance" maskUnits="userSpaceOnUse" x="0" y="0" width="640" height="512">
<path d="M640 0H0V512H640V0Z" fill="white"/>
</mask>
<g mask="url(#mask3_3932_36378)">
<mask id="mask4_3932_36378" style="mask-type:luminance" maskUnits="userSpaceOnUse" x="0" y="0" width="640" height="512">
<path d="M640 0H0V512H640V0Z" fill="white"/>
</mask>
<g mask="url(#mask4_3932_36378)">
<mask id="mask5_3932_36378" style="mask-type:luminance" maskUnits="userSpaceOnUse" x="0" y="0" width="640" height="512">
<path d="M640 0H0V512H640V0Z" fill="white"/>
</mask>
<g mask="url(#mask5_3932_36378)">
<mask id="mask6_3932_36378" style="mask-type:luminance" maskUnits="userSpaceOnUse" x="0" y="0" width="640" height="512">
<path d="M640 0H0V512H640V0Z" fill="white"/>
</mask>
<g mask="url(#mask6_3932_36378)">
<mask id="mask7_3932_36378" style="mask-type:luminance" maskUnits="userSpaceOnUse" x="0" y="0" width="640" height="512">
<path d="M640 0H0V512H640V0Z" fill="white"/>
</mask>
<g mask="url(#mask7_3932_36378)">
<mask id="mask8_3932_36378" style="mask-type:luminance" maskUnits="userSpaceOnUse" x="0" y="0" width="640" height="512">
<path d="M640 0H0V512H640V0Z" fill="white"/>
</mask>
<g mask="url(#mask8_3932_36378)">
<mask id="mask9_3932_36378" style="mask-type:luminance" maskUnits="userSpaceOnUse" x="0" y="0" width="640" height="512">
<path d="M640 0H0V512H640V0Z" fill="white"/>
</mask>
<g mask="url(#mask9_3932_36378)">
<mask id="mask10_3932_36378" style="mask-type:luminance" maskUnits="userSpaceOnUse" x="0" y="0" width="640" height="512">
<path d="M640 0H0V512H640V0Z" fill="white"/>
</mask>
<g mask="url(#mask10_3932_36378)">
<mask id="mask11_3932_36378" style="mask-type:luminance" maskUnits="userSpaceOnUse" x="0" y="0" width="640" height="512">
<path d="M640 0H0V512H640V0Z" fill="white"/>
</mask>
<g mask="url(#mask11_3932_36378)">
<mask id="mask12_3932_36378" style="mask-type:luminance" maskUnits="userSpaceOnUse" x="0" y="0" width="640" height="512">
<path d="M640 0H0V512H640V0Z" fill="white"/>
</mask>
<g mask="url(#mask12_3932_36378)">
<mask id="mask13_3932_36378" style="mask-type:luminance" maskUnits="userSpaceOnUse" x="0" y="0" width="640" height="512">
<path d="M640 0H0V512H640V0Z" fill="white"/>
</mask>
<g mask="url(#mask13_3932_36378)">
<path d="M400 96C412.73 96 424.939 90.9429 433.941 81.9411C442.943 72.9394 448 60.7304 448 48C448 35.2696 442.943 23.0606 433.941 14.0589C424.939 5.05713 412.73 0 400 0C387.27 0 375.061 5.05713 366.059 14.0589C357.057 23.0606 352 35.2696 352 48C352 60.7304 357.057 72.9394 366.059 81.9411C375.061 90.9429 387.27 96 400 96ZM427.2 160L365.4 111.2C348.1 97.6 323.7 97.4 306.3 110.9L223.2 175.1C192.5 198.9 194.7 245.9 227.5 266.7L288 305.1V416C288 433.7 302.3 448 320 448C337.7 448 352 433.7 352 416V288C352 277.3 346.7 267.3 337.8 261.4L295 232.9L355.3 184.4L396 217C401.7 221.5 408.7 224 416 224H480C497.7 224 512 209.7 512 192C512 174.3 497.7 160 480 160H427.2ZM56 384C56 364.904 63.5857 346.591 77.0883 333.088C90.5909 319.586 108.904 312 128 312C147.096 312 165.409 319.586 178.912 333.088C192.414 346.591 200 364.904 200 384C200 403.096 192.414 421.409 178.912 434.912C165.409 448.414 147.096 456 128 456C108.904 456 90.5909 448.414 77.0883 434.912C63.5857 421.409 56 403.096 56 384ZM256 384C256 350.052 242.514 317.495 218.51 293.49C194.505 269.486 161.948 256 128 256C94.0523 256 61.495 269.486 37.4903 293.49C13.4857 317.495 0 350.052 0 384C0 417.948 13.4857 450.505 37.4903 474.51C61.495 498.514 94.0523 512 128 512C161.948 512 194.505 498.514 218.51 474.51C242.514 450.505 256 417.948 256 384ZM440 384C440 364.904 447.586 346.591 461.088 333.088C474.591 319.586 492.904 312 512 312C531.096 312 549.409 319.586 562.912 333.088C576.414 346.591 584 364.904 584 384C584 403.096 576.414 421.409 562.912 434.912C549.409 448.414 531.096 456 512 456C492.904 456 474.591 448.414 461.088 434.912C447.586 421.409 440 403.096 440 384ZM640 384C640 350.052 626.514 317.495 602.51 293.49C578.505 269.486 545.948 256 512 256C478.052 256 445.495 269.486 421.49 293.49C397.486 317.495 384 350.052 384 384C384 417.948 397.486 450.505 421.49 474.51C445.495 498.514 478.052 512 512 512C545.948 512 578.505 498.514 602.51 474.51C626.514 450.505 640 417.948 640 384Z" fill="black"/>
</g>
</g>
</g>
</g>
</g>
</g>
</g>
</g>
</g>
</g>
</g>
</g>
</g>
</g>
</g>
<defs>
<clipPath id="clip0_3932_36378">
<rect width="640" height="512" fill="white"/>
</clipPath>
</defs>
</svg>
