<svg width="640" height="512" viewBox="0 0 640 512" fill="none" xmlns="http://www.w3.org/2000/svg">
<g clip-path="url(#clip0_3932_38134)">
<mask id="mask0_3932_38134" style="mask-type:luminance" maskUnits="userSpaceOnUse" x="0" y="0" width="640" height="512">
<path d="M640 0H0V512H640V0Z" fill="white"/>
</mask>
<g mask="url(#mask0_3932_38134)">
<mask id="mask1_3932_38134" style="mask-type:luminance" maskUnits="userSpaceOnUse" x="0" y="0" width="640" height="512">
<path d="M640 0H0V512H640V0Z" fill="white"/>
</mask>
<g mask="url(#mask1_3932_38134)">
<mask id="mask2_3932_38134" style="mask-type:luminance" maskUnits="userSpaceOnUse" x="0" y="0" width="640" height="512">
<path d="M640 0H0V512H640V0Z" fill="white"/>
</mask>
<g mask="url(#mask2_3932_38134)">
<mask id="mask3_3932_38134" style="mask-type:luminance" maskUnits="userSpaceOnUse" x="0" y="0" width="640" height="512">
<path d="M640 0H0V512H640V0Z" fill="white"/>
</mask>
<g mask="url(#mask3_3932_38134)">
<mask id="mask4_3932_38134" style="mask-type:luminance" maskUnits="userSpaceOnUse" x="0" y="0" width="640" height="512">
<path d="M640 0H0V512H640V0Z" fill="white"/>
</mask>
<g mask="url(#mask4_3932_38134)">
<mask id="mask5_3932_38134" style="mask-type:luminance" maskUnits="userSpaceOnUse" x="0" y="0" width="640" height="512">
<path d="M640 0H0V512H640V0Z" fill="white"/>
</mask>
<g mask="url(#mask5_3932_38134)">
<mask id="mask6_3932_38134" style="mask-type:luminance" maskUnits="userSpaceOnUse" x="0" y="0" width="640" height="512">
<path d="M640 0H0V512H640V0Z" fill="white"/>
</mask>
<g mask="url(#mask6_3932_38134)">
<mask id="mask7_3932_38134" style="mask-type:luminance" maskUnits="userSpaceOnUse" x="0" y="0" width="640" height="512">
<path d="M640 0H0V512H640V0Z" fill="white"/>
</mask>
<g mask="url(#mask7_3932_38134)">
<mask id="mask8_3932_38134" style="mask-type:luminance" maskUnits="userSpaceOnUse" x="0" y="0" width="640" height="512">
<path d="M640 0H0V512H640V0Z" fill="white"/>
</mask>
<g mask="url(#mask8_3932_38134)">
<mask id="mask9_3932_38134" style="mask-type:luminance" maskUnits="userSpaceOnUse" x="0" y="0" width="640" height="512">
<path d="M640 0H0V512H640V0Z" fill="white"/>
</mask>
<g mask="url(#mask9_3932_38134)">
<mask id="mask10_3932_38134" style="mask-type:luminance" maskUnits="userSpaceOnUse" x="0" y="0" width="640" height="512">
<path d="M640 0H0V512H640V0Z" fill="white"/>
</mask>
<g mask="url(#mask10_3932_38134)">
<mask id="mask11_3932_38134" style="mask-type:luminance" maskUnits="userSpaceOnUse" x="0" y="0" width="640" height="512">
<path d="M640 0H0V512H640V0Z" fill="white"/>
</mask>
<g mask="url(#mask11_3932_38134)">
<mask id="mask12_3932_38134" style="mask-type:luminance" maskUnits="userSpaceOnUse" x="0" y="0" width="640" height="512">
<path d="M640 0H0V512H640V0Z" fill="white"/>
</mask>
<g mask="url(#mask12_3932_38134)">
<mask id="mask13_3932_38134" style="mask-type:luminance" maskUnits="userSpaceOnUse" x="0" y="0" width="640" height="512">
<path d="M640 0H0V512H640V0Z" fill="white"/>
</mask>
<g mask="url(#mask13_3932_38134)">
<path d="M207.998 96C220.729 96 232.938 90.9429 241.94 81.9411C250.941 72.9394 255.998 60.7304 255.998 48C255.998 35.2696 250.941 23.0606 241.94 14.0589C232.938 5.05713 220.729 0 207.998 0C195.268 0 183.059 5.05713 174.057 14.0589C165.056 23.0606 159.998 35.2696 159.998 48C159.998 60.7304 165.056 72.9394 174.057 81.9411C183.059 90.9429 195.268 96 207.998 96ZM123.698 200.5C124.698 200.1 125.598 199.7 126.598 199.3L109.698 262.8C104.098 283.9 109.598 306.4 124.398 322.5L195.098 399.6L217.098 487.7C221.398 504.8 238.798 515.3 255.898 511C272.998 506.7 283.498 489.3 279.198 472.2L256.198 380.1C254.298 372.3 250.398 365.2 244.998 359.3L195.498 305.3L214.798 239.8L224.398 262.8C228.798 273.4 236.898 282.1 247.198 287.3L273.898 300.6C289.698 308.5 308.898 302.1 316.798 286.3C324.698 270.5 318.298 251.3 302.498 243.4L280.998 232.7L265.698 195.9C248.498 154.8 208.298 128 163.698 128C140.898 128 118.398 132.8 97.5984 142L89.5984 145.5C56.6984 160.1 31.4984 187.9 20.1984 222L17.5984 229.8C11.9984 246.6 21.0984 264.7 37.7984 270.3C54.4984 275.9 72.6984 266.8 78.2984 250.1L80.8984 242.3C86.5984 225.2 99.1984 211.4 115.598 204.1L123.598 200.6L123.698 200.5ZM93.6984 335.6L68.6984 398L9.39844 457.4C-3.10156 469.9 -3.10156 490.2 9.39844 502.7C21.8984 515.2 42.1984 515.2 54.6984 502.7L116.298 441C120.898 436.4 124.498 430.9 126.898 424.9L141.398 388.7L100.698 344.3C98.1984 341.6 95.8984 338.7 93.6984 335.7V335.6ZM441.398 454.6C453.898 467.1 474.198 467.1 486.698 454.6C499.198 442.1 499.198 421.8 486.698 409.3L461.298 384H479.998C568.398 384 639.998 312.4 639.998 224C639.998 135.6 568.398 64 479.998 64H351.998C334.298 64 319.998 78.3 319.998 96C319.998 113.7 334.298 128 351.998 128H479.998C532.998 128 575.998 171 575.998 224C575.998 277 532.998 320 479.998 320H461.298L486.698 294.6C499.198 282.1 499.198 261.8 486.698 249.3C474.198 236.8 453.898 236.8 441.398 249.3L361.398 329.3C348.898 341.8 348.898 362.1 361.398 374.6L441.398 454.6Z" fill="black"/>
</g>
</g>
</g>
</g>
</g>
</g>
</g>
</g>
</g>
</g>
</g>
</g>
</g>
</g>
</g>
<defs>
<clipPath id="clip0_3932_38134">
<rect width="640" height="512" fill="white"/>
</clipPath>
</defs>
</svg>
