<svg width="576" height="512" viewBox="0 0 576 512" fill="none" xmlns="http://www.w3.org/2000/svg">
<g clip-path="url(#clip0_3932_36846)">
<mask id="mask0_3932_36846" style="mask-type:luminance" maskUnits="userSpaceOnUse" x="0" y="0" width="576" height="512">
<path d="M576 0H0V512H576V0Z" fill="white"/>
</mask>
<g mask="url(#mask0_3932_36846)">
<mask id="mask1_3932_36846" style="mask-type:luminance" maskUnits="userSpaceOnUse" x="0" y="0" width="576" height="512">
<path d="M576 0H0V512H576V0Z" fill="white"/>
</mask>
<g mask="url(#mask1_3932_36846)">
<mask id="mask2_3932_36846" style="mask-type:luminance" maskUnits="userSpaceOnUse" x="0" y="0" width="576" height="512">
<path d="M576 0H0V512H576V0Z" fill="white"/>
</mask>
<g mask="url(#mask2_3932_36846)">
<mask id="mask3_3932_36846" style="mask-type:luminance" maskUnits="userSpaceOnUse" x="0" y="0" width="576" height="512">
<path d="M576 0H0V512H576V0Z" fill="white"/>
</mask>
<g mask="url(#mask3_3932_36846)">
<mask id="mask4_3932_36846" style="mask-type:luminance" maskUnits="userSpaceOnUse" x="0" y="0" width="576" height="512">
<path d="M576 0H0V512H576V0Z" fill="white"/>
</mask>
<g mask="url(#mask4_3932_36846)">
<mask id="mask5_3932_36846" style="mask-type:luminance" maskUnits="userSpaceOnUse" x="0" y="0" width="576" height="512">
<path d="M576 0H0V512H576V0Z" fill="white"/>
</mask>
<g mask="url(#mask5_3932_36846)">
<mask id="mask6_3932_36846" style="mask-type:luminance" maskUnits="userSpaceOnUse" x="0" y="0" width="576" height="512">
<path d="M576 0H0V512H576V0Z" fill="white"/>
</mask>
<g mask="url(#mask6_3932_36846)">
<mask id="mask7_3932_36846" style="mask-type:luminance" maskUnits="userSpaceOnUse" x="0" y="0" width="576" height="512">
<path d="M576 0H0V512H576V0Z" fill="white"/>
</mask>
<g mask="url(#mask7_3932_36846)">
<mask id="mask8_3932_36846" style="mask-type:luminance" maskUnits="userSpaceOnUse" x="0" y="0" width="576" height="512">
<path d="M576 0H0V512H576V0Z" fill="white"/>
</mask>
<g mask="url(#mask8_3932_36846)">
<mask id="mask9_3932_36846" style="mask-type:luminance" maskUnits="userSpaceOnUse" x="0" y="0" width="576" height="512">
<path d="M576 0H0V512H576V0Z" fill="white"/>
</mask>
<g mask="url(#mask9_3932_36846)">
<mask id="mask10_3932_36846" style="mask-type:luminance" maskUnits="userSpaceOnUse" x="0" y="0" width="576" height="512">
<path d="M576 0H0V512H576V0Z" fill="white"/>
</mask>
<g mask="url(#mask10_3932_36846)">
<mask id="mask11_3932_36846" style="mask-type:luminance" maskUnits="userSpaceOnUse" x="0" y="0" width="576" height="512">
<path d="M576 0H0V512H576V0Z" fill="white"/>
</mask>
<g mask="url(#mask11_3932_36846)">
<mask id="mask12_3932_36846" style="mask-type:luminance" maskUnits="userSpaceOnUse" x="0" y="0" width="576" height="512">
<path d="M576 0H0V512H576V0Z" fill="white"/>
</mask>
<g mask="url(#mask12_3932_36846)">
<mask id="mask13_3932_36846" style="mask-type:luminance" maskUnits="userSpaceOnUse" x="0" y="0" width="576" height="512">
<path d="M576 0H0V512H576V0Z" fill="white"/>
</mask>
<g mask="url(#mask13_3932_36846)">
<path d="M112 48C112 35.2696 117.057 23.0606 126.058 14.0589C135.06 5.05713 147.269 0 160 0C172.73 0 184.939 5.05713 193.941 14.0589C202.942 23.0606 208 35.2696 208 48C208 60.7304 202.942 72.9394 193.941 81.9411C184.939 90.9429 172.73 96 160 96C147.269 96 135.06 90.9429 126.058 81.9411C117.057 72.9394 112 60.7304 112 48ZM152 352V480C152 497.7 137.7 512 120 512C102.3 512 87.9996 497.7 87.9996 480V256.9L59.3996 304.5C50.2996 319.6 30.5996 324.5 15.4996 315.4C0.399618 306.3 -4.50039 286.6 4.59962 271.5L62.8996 174.5C80.2996 145.6 111.5 127.9 145.2 127.9H174.9C208.6 127.9 239.8 145.6 257.2 174.5L302.1 249.2C286 266.8 273.5 287.7 265.5 310.7C263.6 308.9 262 306.8 260.6 304.4L232 256.9V480C232 497.7 217.7 512 200 512C182.3 512 168 497.7 168 480V352H152ZM432 224C470.191 224 506.818 239.171 533.823 266.177C560.828 293.182 576 329.809 576 368C576 406.191 560.828 442.818 533.823 469.823C506.818 496.829 470.191 512 432 512C393.808 512 357.181 496.829 330.176 469.823C303.171 442.818 288 406.191 288 368C288 329.809 303.171 293.182 330.176 266.177C357.181 239.171 393.808 224 432 224ZM432 464C438.365 464 444.469 461.471 448.97 456.971C453.471 452.47 456 446.365 456 440C456 433.635 453.471 427.53 448.97 423.029C444.469 418.529 438.365 416 432 416C425.634 416 419.53 418.529 415.029 423.029C410.528 427.53 408 433.635 408 440C408 446.365 410.528 452.47 415.029 456.971C419.53 461.471 425.634 464 432 464ZM368 321.6V328C368 336.8 375.2 344 384 344C392.8 344 400 336.8 400 328V321.6C400 316.3 404.3 312 409.6 312H450.1C457.8 312 464 318.2 464 325.9C464 331.1 461.1 335.8 456.6 338.2L424.6 355C419.3 357.8 416 363.2 416 369.2V384C416 392.8 423.2 400 432 400C440.8 400 448 392.8 448 384V378.9L471.5 366.6C486.6 358.7 496 343 496 326C496 300.6 475.4 280.1 450.1 280.1H409.6C386.6 280.1 368 298.7 368 321.7V321.6Z" fill="black"/>
</g>
</g>
</g>
</g>
</g>
</g>
</g>
</g>
</g>
</g>
</g>
</g>
</g>
</g>
</g>
<defs>
<clipPath id="clip0_3932_36846">
<rect width="576" height="512" fill="white"/>
</clipPath>
</defs>
</svg>
