<svg width="448" height="512" viewBox="0 0 448 512" fill="none" xmlns="http://www.w3.org/2000/svg">
<g clip-path="url(#clip0_3932_36554)">
<mask id="mask0_3932_36554" style="mask-type:luminance" maskUnits="userSpaceOnUse" x="0" y="0" width="448" height="512">
<path d="M448 0H0V512H448V0Z" fill="white"/>
</mask>
<g mask="url(#mask0_3932_36554)">
<mask id="mask1_3932_36554" style="mask-type:luminance" maskUnits="userSpaceOnUse" x="0" y="0" width="448" height="512">
<path d="M448 0H0V512H448V0Z" fill="white"/>
</mask>
<g mask="url(#mask1_3932_36554)">
<mask id="mask2_3932_36554" style="mask-type:luminance" maskUnits="userSpaceOnUse" x="0" y="0" width="448" height="512">
<path d="M448 0H0V512H448V0Z" fill="white"/>
</mask>
<g mask="url(#mask2_3932_36554)">
<mask id="mask3_3932_36554" style="mask-type:luminance" maskUnits="userSpaceOnUse" x="0" y="0" width="448" height="512">
<path d="M448 0H0V512H448V0Z" fill="white"/>
</mask>
<g mask="url(#mask3_3932_36554)">
<mask id="mask4_3932_36554" style="mask-type:luminance" maskUnits="userSpaceOnUse" x="0" y="0" width="448" height="512">
<path d="M448 0H0V512H448V0Z" fill="white"/>
</mask>
<g mask="url(#mask4_3932_36554)">
<mask id="mask5_3932_36554" style="mask-type:luminance" maskUnits="userSpaceOnUse" x="0" y="0" width="448" height="512">
<path d="M448 0H0V512H448V0Z" fill="white"/>
</mask>
<g mask="url(#mask5_3932_36554)">
<mask id="mask6_3932_36554" style="mask-type:luminance" maskUnits="userSpaceOnUse" x="0" y="0" width="448" height="512">
<path d="M448 0H0V512H448V0Z" fill="white"/>
</mask>
<g mask="url(#mask6_3932_36554)">
<mask id="mask7_3932_36554" style="mask-type:luminance" maskUnits="userSpaceOnUse" x="0" y="0" width="448" height="512">
<path d="M448 0H0V512H448V0Z" fill="white"/>
</mask>
<g mask="url(#mask7_3932_36554)">
<mask id="mask8_3932_36554" style="mask-type:luminance" maskUnits="userSpaceOnUse" x="0" y="0" width="448" height="512">
<path d="M448 0H0V512H448V0Z" fill="white"/>
</mask>
<g mask="url(#mask8_3932_36554)">
<mask id="mask9_3932_36554" style="mask-type:luminance" maskUnits="userSpaceOnUse" x="0" y="0" width="448" height="512">
<path d="M448 0H0V512H448V0Z" fill="white"/>
</mask>
<g mask="url(#mask9_3932_36554)">
<mask id="mask10_3932_36554" style="mask-type:luminance" maskUnits="userSpaceOnUse" x="0" y="0" width="448" height="512">
<path d="M448 0H0V512H448V0Z" fill="white"/>
</mask>
<g mask="url(#mask10_3932_36554)">
<mask id="mask11_3932_36554" style="mask-type:luminance" maskUnits="userSpaceOnUse" x="0" y="0" width="448" height="512">
<path d="M448 0H0V512H448V0Z" fill="white"/>
</mask>
<g mask="url(#mask11_3932_36554)">
<mask id="mask12_3932_36554" style="mask-type:luminance" maskUnits="userSpaceOnUse" x="0" y="0" width="448" height="512">
<path d="M448 0H0V512H448V0Z" fill="white"/>
</mask>
<g mask="url(#mask12_3932_36554)">
<mask id="mask13_3932_36554" style="mask-type:luminance" maskUnits="userSpaceOnUse" x="0" y="0" width="448" height="512">
<path d="M448 0H0V512H448V0Z" fill="white"/>
</mask>
<g mask="url(#mask13_3932_36554)">
<path d="M271.998 48C271.998 41.6965 270.757 35.4548 268.344 29.6312C265.932 23.8076 262.396 18.5161 257.939 14.0589C253.482 9.60166 248.19 6.06601 242.367 3.65378C236.543 1.24156 230.301 0 223.998 0C217.695 0 211.453 1.24156 205.629 3.65378C199.806 6.06601 194.514 9.60166 190.057 14.0589C185.6 18.5161 182.064 23.8076 179.652 29.6312C177.24 35.4548 175.998 41.6965 175.998 48C175.998 54.3035 177.24 60.5452 179.652 66.3688C182.064 72.1924 185.6 77.4839 190.057 81.9411C194.514 86.3983 199.806 89.934 205.629 92.3462C211.453 94.7584 217.695 96 223.998 96C230.301 96 236.543 94.7584 242.367 92.3462C248.19 89.934 253.482 86.3983 257.939 81.9411C262.396 77.4839 265.932 72.1924 268.344 66.3688C270.757 60.5452 271.998 54.3035 271.998 48ZM263.998 235.3L311.398 292.4C322.698 306 342.898 307.9 356.498 296.6C370.098 285.3 371.998 265.1 360.698 251.5L286.998 162.6C268.798 140.6 241.698 127.9 213.098 127.9H177.098C143.398 127.9 112.198 145.6 94.7981 174.5L36.4981 271.5C27.3981 286.6 32.2981 306.3 47.3981 315.4C62.4981 324.5 82.1981 319.6 91.2981 304.5L119.998 256.9V480C119.998 497.7 134.298 512 151.998 512C169.698 512 183.998 497.7 183.998 480V352H199.998V480C199.998 497.7 214.298 512 231.998 512C249.698 512 263.998 497.7 263.998 480V235.3ZM351.998 376C351.998 371.6 355.598 368 359.998 368C364.398 368 367.998 371.6 367.998 376V488C367.998 501.3 378.698 512 391.998 512C405.298 512 415.998 501.3 415.998 488V376C415.998 345.1 390.898 320 359.998 320C329.098 320 303.998 345.1 303.998 376V384C303.998 397.3 314.698 408 327.998 408C341.298 408 351.998 397.3 351.998 384V376Z" fill="black"/>
</g>
</g>
</g>
</g>
</g>
</g>
</g>
</g>
</g>
</g>
</g>
</g>
</g>
</g>
</g>
<defs>
<clipPath id="clip0_3932_36554">
<rect width="448" height="512" fill="white"/>
</clipPath>
</defs>
</svg>
