<svg width="576" height="512" viewBox="0 0 576 512" fill="none" xmlns="http://www.w3.org/2000/svg">
<path d="M265.206 192C290.606 192 315.006 199.1 336.006 211.9V512H144.006V337.7L90.4056 428.3C79.2056 447.3 54.6056 453.6 35.6056 442.4C16.6056 431.2 10.3056 406.6 21.5056 387.6L97.7056 258.8C122.206 217.4 166.706 192 214.806 192H265.206ZM160.006 80C160.006 58.7827 168.434 38.4344 183.437 23.4315C198.44 8.42855 218.788 0 240.006 0C261.223 0 281.571 8.42855 296.574 23.4315C311.577 38.4344 320.006 58.7827 320.006 80C320.006 101.217 311.577 121.566 296.574 136.569C281.571 151.571 261.223 160 240.006 160C218.788 160 198.44 151.571 183.437 136.569C168.434 121.566 160.006 101.217 160.006 80ZM448.006 0C456.806 0 464.006 7.2 464.006 16V132.3C473.606 137.8 480.006 148.2 480.006 160V269.3L496.006 264V208C496.006 199.2 503.206 192 512.006 192H528.006C536.806 192 544.006 199.2 544.006 208V292.5C544.006 299.4 539.606 305.5 533.106 307.7L480.006 325.3V352H528.006C536.806 352 544.006 359.2 544.006 368V384C544.006 392.8 536.806 400 528.006 400H484.006L507.006 492.1C509.506 502.2 501.906 512 491.506 512H432.006C423.206 512 416.006 504.8 416.006 496V400H400.006C382.306 400 368.006 385.7 368.006 368V224C368.006 206.3 382.306 192 400.006 192V160C400.006 148.2 406.406 137.8 416.006 132.3V32C407.206 32 400.006 24.8 400.006 16C400.006 7.2 407.206 0 416.006 0H432.006H448.006Z" fill="black"/>
</svg>
