<svg width="384" height="512" viewBox="0 0 384 512" fill="none" xmlns="http://www.w3.org/2000/svg">
<path d="M191.998 48C191.998 35.2696 197.055 23.0606 206.057 14.0589C215.059 5.05713 227.268 0 239.998 0C252.729 0 264.938 5.05713 273.939 14.0589C282.941 23.0606 287.998 35.2696 287.998 48C287.998 60.7304 282.941 72.9394 273.939 81.9411C264.938 90.9429 252.729 96 239.998 96C227.268 96 215.059 90.9429 206.057 81.9411C197.055 72.9394 191.998 60.7304 191.998 48ZM243.298 230.7L224.198 307L273.898 356.7C282.898 365.7 287.998 377.9 287.998 390.6V480C287.998 497.7 273.698 512 255.998 512C238.298 512 223.998 497.7 223.998 480V397.3L150.098 323.4C134.298 307.6 127.898 284.8 133.198 263.1L153.598 179.1C161.898 145 196.298 124.2 230.298 132.7C249.298 137.5 265.898 149.1 276.698 165.4L305.098 208H335.998V184C335.998 170.7 346.698 160 359.998 160C373.298 160 383.998 170.7 383.998 184V239.8C383.998 239.9 383.998 240 383.998 240V240.2V488C383.998 501.3 373.298 512 359.998 512C346.698 512 335.998 501.3 335.998 488V272H296.598C280.598 272 265.598 264 256.698 250.6L243.398 230.6L243.298 230.7ZM81.0981 471.9L117.298 334C120.298 338.2 123.698 342.2 127.398 345.9L169.298 387.8L142.898 488.1C138.398 505.2 120.898 515.4 103.798 510.9C86.6981 506.4 76.4981 488.9 80.9981 471.8L81.0981 471.9ZM136.598 125.9L101.398 266.5C98.3981 278.6 86.4981 286.4 74.1981 284.4L26.2981 276.4C12.2981 274.1 3.39814 260.1 7.09814 246.4L31.8981 155C41.3981 120.2 72.9981 96 109.098 96H113.298C128.898 96 140.398 110.7 136.598 125.8V125.9Z" fill="black"/>
</svg>
