<svg width="512" height="512" viewBox="0 0 512 512" fill="none" xmlns="http://www.w3.org/2000/svg">
<g clip-path="url(#clip0_3932_37140)">
<mask id="mask0_3932_37140" style="mask-type:luminance" maskUnits="userSpaceOnUse" x="0" y="0" width="512" height="512">
<path d="M512 0H0V512H512V0Z" fill="white"/>
</mask>
<g mask="url(#mask0_3932_37140)">
<mask id="mask1_3932_37140" style="mask-type:luminance" maskUnits="userSpaceOnUse" x="0" y="0" width="512" height="512">
<path d="M512 0H0V512H512V0Z" fill="white"/>
</mask>
<g mask="url(#mask1_3932_37140)">
<mask id="mask2_3932_37140" style="mask-type:luminance" maskUnits="userSpaceOnUse" x="0" y="0" width="512" height="512">
<path d="M512 0H0V512H512V0Z" fill="white"/>
</mask>
<g mask="url(#mask2_3932_37140)">
<mask id="mask3_3932_37140" style="mask-type:luminance" maskUnits="userSpaceOnUse" x="0" y="0" width="512" height="512">
<path d="M512 0H0V512H512V0Z" fill="white"/>
</mask>
<g mask="url(#mask3_3932_37140)">
<mask id="mask4_3932_37140" style="mask-type:luminance" maskUnits="userSpaceOnUse" x="0" y="0" width="512" height="512">
<path d="M512 0H0V512H512V0Z" fill="white"/>
</mask>
<g mask="url(#mask4_3932_37140)">
<mask id="mask5_3932_37140" style="mask-type:luminance" maskUnits="userSpaceOnUse" x="0" y="0" width="512" height="512">
<path d="M512 0H0V512H512V0Z" fill="white"/>
</mask>
<g mask="url(#mask5_3932_37140)">
<mask id="mask6_3932_37140" style="mask-type:luminance" maskUnits="userSpaceOnUse" x="0" y="0" width="512" height="512">
<path d="M512 0H0V512H512V0Z" fill="white"/>
</mask>
<g mask="url(#mask6_3932_37140)">
<mask id="mask7_3932_37140" style="mask-type:luminance" maskUnits="userSpaceOnUse" x="0" y="0" width="512" height="512">
<path d="M512 0H0V512H512V0Z" fill="white"/>
</mask>
<g mask="url(#mask7_3932_37140)">
<mask id="mask8_3932_37140" style="mask-type:luminance" maskUnits="userSpaceOnUse" x="0" y="0" width="512" height="512">
<path d="M512 0H0V512H512V0Z" fill="white"/>
</mask>
<g mask="url(#mask8_3932_37140)">
<mask id="mask9_3932_37140" style="mask-type:luminance" maskUnits="userSpaceOnUse" x="0" y="0" width="512" height="512">
<path d="M512 0H0V512H512V0Z" fill="white"/>
</mask>
<g mask="url(#mask9_3932_37140)">
<mask id="mask10_3932_37140" style="mask-type:luminance" maskUnits="userSpaceOnUse" x="0" y="0" width="512" height="512">
<path d="M512 0H0V512H512V0Z" fill="white"/>
</mask>
<g mask="url(#mask10_3932_37140)">
<mask id="mask11_3932_37140" style="mask-type:luminance" maskUnits="userSpaceOnUse" x="0" y="0" width="512" height="512">
<path d="M512 0H0V512H512V0Z" fill="white"/>
</mask>
<g mask="url(#mask11_3932_37140)">
<mask id="mask12_3932_37140" style="mask-type:luminance" maskUnits="userSpaceOnUse" x="0" y="0" width="512" height="512">
<path d="M512 0H0V512H512V0Z" fill="white"/>
</mask>
<g mask="url(#mask12_3932_37140)">
<mask id="mask13_3932_37140" style="mask-type:luminance" maskUnits="userSpaceOnUse" x="0" y="0" width="512" height="512">
<path d="M512 0H0V512H512V0Z" fill="white"/>
</mask>
<g mask="url(#mask13_3932_37140)">
<path d="M288 0C305.7 0 320 14.3 320 32V41.8C320 96.4 292.1 146.4 247.5 175.4L247.7 175.7L304.5 256H392C407.1 256 421.3 263.1 430.4 275.2L473.6 332.8C484.2 346.9 481.3 367 467.2 377.6C453.1 388.2 433 385.3 422.4 371.2L384 320H288H286.6L378.9 462.6C388.5 477.4 384.3 497.2 369.4 506.9C354.5 516.6 334.8 512.3 325.1 497.4L164.5 249.2C161.6 258.4 160 268.2 160 278.2V352C160 369.7 145.7 384 128 384C110.3 384 96 369.7 96 352V278.2C96 213.1 135.6 154.5 196.1 130.3C232.3 115.8 256 80.8 256 41.8V32C256 14.3 270.3 0 288 0ZM112 32C124.73 32 136.939 37.0571 145.941 46.0589C154.943 55.0606 160 67.2696 160 80C160 92.7304 154.943 104.939 145.941 113.941C136.939 122.943 124.73 128 112 128C99.2696 128 87.0606 122.943 78.0589 113.941C69.0571 104.939 64 92.7304 64 80C64 67.2696 69.0571 55.0606 78.0589 46.0589C87.0606 37.0571 99.2696 32 112 32Z" fill="black"/>
</g>
</g>
</g>
</g>
</g>
</g>
</g>
</g>
</g>
</g>
</g>
</g>
</g>
</g>
</g>
<defs>
<clipPath id="clip0_3932_37140">
<rect width="512" height="512" fill="white"/>
</clipPath>
</defs>
</svg>
