<svg width="320" height="512" viewBox="0 0 320 512" fill="none" xmlns="http://www.w3.org/2000/svg">
<g clip-path="url(#clip0_3932_36204)">
<mask id="mask0_3932_36204" style="mask-type:luminance" maskUnits="userSpaceOnUse" x="0" y="0" width="320" height="512">
<path d="M320 0H0V512H320V0Z" fill="white"/>
</mask>
<g mask="url(#mask0_3932_36204)">
<mask id="mask1_3932_36204" style="mask-type:luminance" maskUnits="userSpaceOnUse" x="0" y="0" width="320" height="512">
<path d="M320 0H0V512H320V0Z" fill="white"/>
</mask>
<g mask="url(#mask1_3932_36204)">
<mask id="mask2_3932_36204" style="mask-type:luminance" maskUnits="userSpaceOnUse" x="0" y="0" width="320" height="512">
<path d="M320 0H0V512H320V0Z" fill="white"/>
</mask>
<g mask="url(#mask2_3932_36204)">
<mask id="mask3_3932_36204" style="mask-type:luminance" maskUnits="userSpaceOnUse" x="0" y="0" width="320" height="512">
<path d="M320 0H0V512H320V0Z" fill="white"/>
</mask>
<g mask="url(#mask3_3932_36204)">
<mask id="mask4_3932_36204" style="mask-type:luminance" maskUnits="userSpaceOnUse" x="0" y="0" width="320" height="512">
<path d="M320 0H0V512H320V0Z" fill="white"/>
</mask>
<g mask="url(#mask4_3932_36204)">
<mask id="mask5_3932_36204" style="mask-type:luminance" maskUnits="userSpaceOnUse" x="0" y="0" width="320" height="512">
<path d="M320 0H0V512H320V0Z" fill="white"/>
</mask>
<g mask="url(#mask5_3932_36204)">
<mask id="mask6_3932_36204" style="mask-type:luminance" maskUnits="userSpaceOnUse" x="0" y="0" width="320" height="512">
<path d="M320 0H0V512H320V0Z" fill="white"/>
</mask>
<g mask="url(#mask6_3932_36204)">
<mask id="mask7_3932_36204" style="mask-type:luminance" maskUnits="userSpaceOnUse" x="0" y="0" width="320" height="512">
<path d="M320 0H0V512H320V0Z" fill="white"/>
</mask>
<g mask="url(#mask7_3932_36204)">
<mask id="mask8_3932_36204" style="mask-type:luminance" maskUnits="userSpaceOnUse" x="0" y="0" width="320" height="512">
<path d="M320 0H0V512H320V0Z" fill="white"/>
</mask>
<g mask="url(#mask8_3932_36204)">
<mask id="mask9_3932_36204" style="mask-type:luminance" maskUnits="userSpaceOnUse" x="0" y="0" width="320" height="512">
<path d="M320 0H0V512H320V0Z" fill="white"/>
</mask>
<g mask="url(#mask9_3932_36204)">
<mask id="mask10_3932_36204" style="mask-type:luminance" maskUnits="userSpaceOnUse" x="0" y="0" width="320" height="512">
<path d="M320 0H0V512H320V0Z" fill="white"/>
</mask>
<g mask="url(#mask10_3932_36204)">
<mask id="mask11_3932_36204" style="mask-type:luminance" maskUnits="userSpaceOnUse" x="0" y="0" width="320" height="512">
<path d="M320 0H0V512H320V0Z" fill="white"/>
</mask>
<g mask="url(#mask11_3932_36204)">
<mask id="mask12_3932_36204" style="mask-type:luminance" maskUnits="userSpaceOnUse" x="0" y="0" width="320" height="512">
<path d="M320 0H0V512H320V0Z" fill="white"/>
</mask>
<g mask="url(#mask12_3932_36204)">
<mask id="mask13_3932_36204" style="mask-type:luminance" maskUnits="userSpaceOnUse" x="0" y="0" width="320" height="512">
<path d="M320 0H0V512H320V0Z" fill="white"/>
</mask>
<g mask="url(#mask13_3932_36204)">
<path d="M112 48C112 35.2696 117.057 23.0606 126.058 14.0589C135.06 5.05713 147.269 0 160 0C172.73 0 184.939 5.05713 193.941 14.0589C202.942 23.0606 208 35.2696 208 48C208 60.7304 202.942 72.9394 193.941 81.9411C184.939 90.9429 172.73 96 160 96C147.269 96 135.06 90.9429 126.058 81.9411C117.057 72.9394 112 60.7304 112 48ZM152 352V480C152 497.7 137.7 512 120 512C102.3 512 87.9996 497.7 87.9996 480V256.9L59.3996 304.5C50.2996 319.6 30.5996 324.5 15.4996 315.4C0.399618 306.3 -4.50039 286.6 4.59962 271.5L62.8996 174.5C80.2996 145.6 111.5 127.9 145.2 127.9H174.9C208.6 127.9 239.8 145.6 257.2 174.5L315.5 271.5C324.6 286.6 319.7 306.3 304.6 315.4C289.5 324.5 269.8 319.6 260.7 304.5L232 256.9V480C232 497.7 217.7 512 200 512C182.3 512 168 497.7 168 480V352H152Z" fill="black"/>
</g>
</g>
</g>
</g>
</g>
</g>
</g>
</g>
</g>
</g>
</g>
</g>
</g>
</g>
</g>
<defs>
<clipPath id="clip0_3932_36204">
<rect width="320" height="512" fill="white"/>
</clipPath>
</defs>
</svg>
