<svg width="384" height="512" viewBox="0 0 384 512" fill="none" xmlns="http://www.w3.org/2000/svg">
<path d="M192 0C204.73 0 216.939 5.05713 225.941 14.0589C234.942 23.0606 240 35.2696 240 48C240 60.7304 234.942 72.9394 225.941 81.9411C216.939 90.9429 204.73 96 192 96C179.269 96 167.06 90.9429 158.058 81.9411C149.057 72.9394 144 60.7304 144 48C144 35.2696 149.057 23.0606 158.058 14.0589C167.06 5.05713 179.269 0 192 0ZM120 383C106.2 379.4 95.9996 366.9 95.9996 352V296.9L91.3996 304.5C82.2996 319.6 62.5996 324.5 47.4996 315.4C32.3996 306.3 27.4996 286.6 36.5996 271.5L94.8996 174.5C109.9 149.6 135.2 133 163.6 128.9C167.7 128.3 171.8 127.9 176.1 127.9H177.2H189.7H192C193.4 127.9 194.8 128 196.1 128.2C231.8 131.1 261.5 157.5 268.2 193.2L274.3 225.7C318.6 234.3 352 273.2 352 320V352C352 369.7 337.7 384 320 384H304H264V480C264 497.7 249.7 512 232 512C214.3 512 200 497.7 200 480V384H192H184V480C184 497.7 169.7 512 152 512C134.3 512 120 497.7 120 480V383Z" fill="black"/>
</svg>
