<svg width="384" height="512" viewBox="0 0 384 512" fill="none" xmlns="http://www.w3.org/2000/svg">
<path d="M64 32C46.3 32 32 46.3 32 64V128C14.3 128 0 142.3 0 160C0 177.7 14.3 192 32 192V224C14.3 224 0 238.3 0 256C0 273.7 14.3 288 32 288V352V448C32 465.7 46.3 480 64 480C81.7 480 96 465.7 96 448V384H176C244.4 384 303.7 345 332.8 288H352C369.7 288 384 273.7 384 256C384 238.3 369.7 224 352 224H351.3C351.8 218.7 352 213.4 352 208C352 202.6 351.8 197.3 351.3 192H352C369.7 192 384 177.7 384 160C384 142.3 369.7 128 352 128H332.8C303.7 71 244.4 32 176 32H64ZM254.4 128H96V96H176C206.5 96 234.2 108.2 254.4 128ZM96 192H286.9C287.6 197.2 288 202.6 288 208C288 213.4 287.6 218.8 286.9 224H96V192ZM254.4 288C234.2 307.8 206.5 320 176 320H96V288H254.4Z" fill="black"/>
</svg>
