<svg width="496" height="512" viewBox="0 0 496 512" fill="none" xmlns="http://www.w3.org/2000/svg">
<g clip-path="url(#clip0_3932_38428)">
<mask id="mask0_3932_38428" style="mask-type:luminance" maskUnits="userSpaceOnUse" x="0" y="0" width="496" height="512">
<path d="M496 0H0V512H496V0Z" fill="white"/>
</mask>
<g mask="url(#mask0_3932_38428)">
<mask id="mask1_3932_38428" style="mask-type:luminance" maskUnits="userSpaceOnUse" x="0" y="0" width="496" height="512">
<path d="M496 0H0V512H496V0Z" fill="white"/>
</mask>
<g mask="url(#mask1_3932_38428)">
<mask id="mask2_3932_38428" style="mask-type:luminance" maskUnits="userSpaceOnUse" x="0" y="0" width="496" height="512">
<path d="M496 0H0V512H496V0Z" fill="white"/>
</mask>
<g mask="url(#mask2_3932_38428)">
<mask id="mask3_3932_38428" style="mask-type:luminance" maskUnits="userSpaceOnUse" x="0" y="0" width="496" height="512">
<path d="M496 0H0V512H496V0Z" fill="white"/>
</mask>
<g mask="url(#mask3_3932_38428)">
<mask id="mask4_3932_38428" style="mask-type:luminance" maskUnits="userSpaceOnUse" x="0" y="0" width="496" height="512">
<path d="M496 0H0V512H496V0Z" fill="white"/>
</mask>
<g mask="url(#mask4_3932_38428)">
<mask id="mask5_3932_38428" style="mask-type:luminance" maskUnits="userSpaceOnUse" x="0" y="0" width="496" height="512">
<path d="M496 0H0V512H496V0Z" fill="white"/>
</mask>
<g mask="url(#mask5_3932_38428)">
<mask id="mask6_3932_38428" style="mask-type:luminance" maskUnits="userSpaceOnUse" x="0" y="0" width="496" height="512">
<path d="M496 0H0V512H496V0Z" fill="white"/>
</mask>
<g mask="url(#mask6_3932_38428)">
<mask id="mask7_3932_38428" style="mask-type:luminance" maskUnits="userSpaceOnUse" x="0" y="0" width="496" height="512">
<path d="M496 0H0V512H496V0Z" fill="white"/>
</mask>
<g mask="url(#mask7_3932_38428)">
<mask id="mask8_3932_38428" style="mask-type:luminance" maskUnits="userSpaceOnUse" x="0" y="0" width="496" height="512">
<path d="M496 0H0V512H496V0Z" fill="white"/>
</mask>
<g mask="url(#mask8_3932_38428)">
<mask id="mask9_3932_38428" style="mask-type:luminance" maskUnits="userSpaceOnUse" x="0" y="0" width="496" height="512">
<path d="M496 0H0V512H496V0Z" fill="white"/>
</mask>
<g mask="url(#mask9_3932_38428)">
<mask id="mask10_3932_38428" style="mask-type:luminance" maskUnits="userSpaceOnUse" x="0" y="0" width="496" height="512">
<path d="M496 0H0V512H496V0Z" fill="white"/>
</mask>
<g mask="url(#mask10_3932_38428)">
<mask id="mask11_3932_38428" style="mask-type:luminance" maskUnits="userSpaceOnUse" x="0" y="0" width="496" height="512">
<path d="M496 0H0V512H496V0Z" fill="white"/>
</mask>
<g mask="url(#mask11_3932_38428)">
<mask id="mask12_3932_38428" style="mask-type:luminance" maskUnits="userSpaceOnUse" x="0" y="0" width="496" height="512">
<path d="M496 0H0V512H496V0Z" fill="white"/>
</mask>
<g mask="url(#mask12_3932_38428)">
<mask id="mask13_3932_38428" style="mask-type:luminance" maskUnits="userSpaceOnUse" x="0" y="0" width="496" height="512">
<path d="M496 0H0V512H496V0Z" fill="white"/>
</mask>
<g mask="url(#mask13_3932_38428)">
<path d="M323.002 262.098L322.902 249.098C322.902 249.098 344.602 229.298 344.002 227.898L334.502 207.898C333.902 206.498 305.002 207.398 305.002 207.398L295.602 198.098C295.602 198.098 295.802 169.598 294.402 168.998L274.302 159.798C272.902 159.198 253.602 180.798 253.602 180.798L240.502 180.598C240.502 180.598 220.002 159.198 218.602 159.798L198.602 168.098C197.202 168.598 198.802 196.998 198.802 196.998L189.702 206.098C189.702 206.098 160.502 205.198 160.002 206.498L151.902 226.298C151.302 227.698 172.902 247.298 172.902 247.298L173.002 260.198C173.002 260.198 151.302 279.998 151.902 281.398L161.402 301.398C162.002 302.798 190.902 301.898 190.902 301.898L200.302 311.198C200.302 311.198 200.102 342.998 201.502 343.498L221.602 351.798C223.002 352.398 242.302 328.298 242.302 328.298L255.402 328.498C255.402 328.498 275.902 352.298 277.202 351.798L297.202 344.298C298.602 343.698 297.002 312.198 297.002 312.198L306.102 303.098C306.102 303.098 335.302 303.998 335.802 302.598L343.902 282.798C344.602 281.698 323.002 262.098 323.002 262.098ZM278.102 253.398C278.802 270.498 265.302 284.998 248.002 285.798C230.702 286.598 215.902 273.298 215.202 256.198C214.502 239.098 228.002 224.598 245.302 223.898C262.602 223.098 277.402 236.398 278.102 253.398ZM479.302 215.498L382.302 118.498L382.202 118.598C307.102 45.2981 186.802 45.7981 112.402 120.198C61.5016 171.198 84.6016 148.098 16.7016 215.498C-5.59845 237.798 -5.59845 274.198 16.7016 296.498C86.6016 365.898 63.1016 342.498 114.102 393.498L114.202 393.398C189.302 466.698 309.602 466.298 384.002 391.798C435.002 340.898 411.902 363.898 479.302 296.498C501.602 274.198 501.602 237.798 479.302 215.498ZM140.402 363.798C80.8016 304.298 80.8016 207.798 140.402 148.298C199.902 88.6981 296.402 88.7981 356.002 148.298C415.502 207.798 415.602 304.298 356.002 363.898C296.402 423.398 200.002 423.298 140.402 363.798Z" fill="black"/>
</g>
</g>
</g>
</g>
</g>
</g>
</g>
</g>
</g>
</g>
</g>
</g>
</g>
</g>
</g>
<defs>
<clipPath id="clip0_3932_38428">
<rect width="496" height="512" fill="white"/>
</clipPath>
</defs>
</svg>
