<svg width="640" height="512" viewBox="0 0 640 512" fill="none" xmlns="http://www.w3.org/2000/svg">
<path d="M212.9 344.301C216.7 344.201 235.7 342.901 238.5 342.101C236.1 339.501 194.9 341.101 170.5 292.501C166.2 283.901 163 274.901 164.1 264.901C167 239.401 197 234.901 216.1 246.401C252.1 268.001 279.4 337.701 329.8 343.901C366.8 348.401 414.4 326.901 438 298.501C437.4 298.401 437.2 298.301 437 298.401C436.6 298.501 436.2 298.601 435.9 298.702C402.6 310.802 341.6 308.401 301.2 283.901C263.6 261.101 248.1 225.201 249.4 209.301C251.2 188.001 272.3 186.101 285.3 189.701C299.7 193.601 309.7 207.301 324.2 217.101C339.8 227.501 357.1 230.801 375.5 227.401C390.4 224.701 409.9 215.101 412 212.901C410.9 212.801 410.2 212.801 409.5 212.701C403.3 212.101 397.1 211.901 391 211.001C279.8 194.501 262.1 47.4015 138.5 37.9015C94.2 34.5015 39.1 46.0014 2.2 72.9014C1.4 73.5014 0.7 74.1015 0 74.7015C0.1 74.9015 0.1 75.0014 0.2 75.2015C1 75.2015 1.8 75.1015 2.6 75.0015C8.9 74.0015 15.1 74.2015 21.3 75.3014C45.1 79.6014 69 98.4011 77.2 151.801C82.5 186.101 76.5 202.601 85.2 237.901C104.2 315.001 176.2 345.501 212.9 344.301ZM75.3 64.9014C74.4 63.9014 74.4 63.7015 74 62.9015C86.1 60.3015 98.2 58.8014 110.6 58.1014C109.5 72.8014 88.4 79.4014 75.3 64.9014ZM272.2 415.401C229.4 416.601 180.2 388.702 148.7 354.001C144.1 349.001 131.9 333.802 130.1 330.601L130.5 330.202C137.1 334.302 156.2 348.802 185.3 357.202C209.5 364.202 233.4 363.501 256.9 353.901C279.6 344.601 297.9 353.401 300 356.801C281.5 360.601 279.9 361.202 276 364.702C270.9 369.101 271.4 376.401 283 381.901C309.2 394.301 346 379.101 380.2 407.301C382.6 409.301 388.3 415.101 390.3 418.001C390.2 418.202 390 418.301 389.9 418.501C385.1 417.001 373.5 411.001 349.7 409.202C325 407.202 303.4 414.501 272.2 415.401ZM447 163.401C463.4 158.201 488.3 150.001 513.5 160.101C529.6 166.601 539.7 178.801 545.6 194.701C549.1 204.101 550.7 214.401 550.7 223.401C550.5 223.401 550.3 223.401 550.1 223.501C549.9 223.101 549.7 222.601 549.6 222.201C544.6 200.201 519.7 178.401 482 192.301C431.8 210.901 351.6 202.001 305.1 144.301C304.4 143.401 302.7 142.601 303.8 141.101C303.9 140.901 305.9 141.701 306.8 142.401C324.9 155.801 345.1 164.301 367.1 168.601C397.6 174.701 421.7 171.501 447 163.401ZM549.7 280.901C517.3 281.101 515.9 331.001 446.1 345.301C427.9 349.001 407.4 349.901 401.2 349.501V349.101C404 347.601 415.9 346.501 430.9 332.501C438.8 325.202 446.2 317.401 453.7 309.601C473.2 289.401 495.1 267.401 535.6 270.601C558.7 272.401 564.9 278.801 571.7 283.301C572 283.501 572.1 283.801 572.4 284.201C571.9 284.201 571.7 284.301 571.5 284.201C564.5 281.501 557.2 280.901 549.7 280.901ZM537.4 256.801C537.3 257.001 537.3 257.201 537.2 257.401C508.3 253.001 489.2 249.501 468.7 261.401C451.7 271.301 437.3 281.901 406.7 285.801C379.6 289.201 361.6 288.201 340.6 277.801C340.3 277.601 340 277.401 339.6 277.201C339.6 277.001 339.7 276.901 339.7 276.701C364.6 280.501 376.1 281.801 395.2 270.901C417.5 258.001 435.3 244.301 466.5 239.901C496.1 235.801 517.8 242.401 537.4 256.801ZM268.6 97.3014C268 96.7015 267.5 96.1015 266.5 95.0015C274.1 95.0015 296.2 93.8015 319.9 103.401C339.6 111.401 352.1 124.401 370.1 136.301C381.2 143.601 393.5 145.601 406.5 144.401C410.8 144.001 415 143.201 419.3 142.701C419.7 142.601 420.2 142.701 420.8 143.001C420.2 143.401 419.6 143.901 419 144.201C410.9 148.201 402.3 150.501 393.4 151.301C367.3 153.901 343.1 147.601 320 135.901C300.7 126.001 283.6 113.001 268.6 97.3014ZM640 335.702C636.5 338.802 617.3 347.301 597.3 341.001C585 337.101 577.8 326.101 565.7 316.901C555.7 309.301 544.8 309.001 537.6 308.501C538.2 307.702 538.5 307.302 538.8 307.101C553.6 297.901 569.3 294.901 586.1 300.601C598.6 304.802 605.3 314.101 616.5 324.801C627.3 335.201 637.5 334.701 639.6 335.301C639.7 335.201 639.8 335.302 640 335.702ZM427.5 472.702C429.7 473.902 429.1 474.202 429 474.702C410.5 473.302 395.1 467.101 382.2 452.501C360.4 427.801 340.5 424.601 333.6 422.801C334.1 422.601 334.4 422.401 334.7 422.401C347.8 422.501 360.8 423.101 373.6 426.301C398.9 432.701 408.6 451.702 415.2 461.601C418.4 466.401 422.5 469.902 427.5 472.702Z" fill="black"/>
</svg>
