<svg width="640" height="512" viewBox="0 0 640 512" fill="none" xmlns="http://www.w3.org/2000/svg">
<path d="M640 24.8984C559.2 78.4984 550.6 117.399 543.6 129.299C536.9 141.499 531.9 189.599 520.3 212.899C508.6 236.499 466.1 255.099 454.2 262.899C442.5 270.699 425.9 300.999 412.3 327.099C304.2 322.699 244.9 365.899 153.1 420.699C182.5 410.999 196.4 403.999 196.4 403.999C290.6 367.999 335.7 335.698 477.5 354.798C478.6 354.798 479.4 355.399 480.3 355.599C484.2 357.799 485.6 362.499 483.4 366.399L429.5 462.199C427 466.899 421.7 469.399 416.4 468.298C289.6 444.499 189.5 485.599 97.5 486.899C24.1 487.999 0 453.399 0 451.798C0 450.698 0.6 450.099 1.7 450.099C1.7 450.099 40 450.098 104.8 434.798C178.4 294.499 244 245.399 315.4 245.399C315.4 245.399 387.1 245.399 406 307.298C428.8 267.599 434.3 258.099 434.3 258.099C439.6 248.699 469.3 180.899 520.7 116.699C572.2 52.6984 611.1 36.7984 640 24.8984Z" fill="black"/>
</svg>
