<svg width="576" height="512" viewBox="0 0 576 512" fill="none" xmlns="http://www.w3.org/2000/svg">
<g clip-path="url(#clip0_3932_38905)">
<mask id="mask0_3932_38905" style="mask-type:luminance" maskUnits="userSpaceOnUse" x="0" y="0" width="576" height="512">
<path d="M576 0H0V512H576V0Z" fill="white"/>
</mask>
<g mask="url(#mask0_3932_38905)">
<mask id="mask1_3932_38905" style="mask-type:luminance" maskUnits="userSpaceOnUse" x="0" y="0" width="576" height="512">
<path d="M576 0H0V512H576V0Z" fill="white"/>
</mask>
<g mask="url(#mask1_3932_38905)">
<mask id="mask2_3932_38905" style="mask-type:luminance" maskUnits="userSpaceOnUse" x="0" y="0" width="576" height="512">
<path d="M576 0H0V512H576V0Z" fill="white"/>
</mask>
<g mask="url(#mask2_3932_38905)">
<mask id="mask3_3932_38905" style="mask-type:luminance" maskUnits="userSpaceOnUse" x="0" y="0" width="576" height="512">
<path d="M576 0H0V512H576V0Z" fill="white"/>
</mask>
<g mask="url(#mask3_3932_38905)">
<mask id="mask4_3932_38905" style="mask-type:luminance" maskUnits="userSpaceOnUse" x="0" y="0" width="576" height="512">
<path d="M576 0H0V512H576V0Z" fill="white"/>
</mask>
<g mask="url(#mask4_3932_38905)">
<mask id="mask5_3932_38905" style="mask-type:luminance" maskUnits="userSpaceOnUse" x="0" y="0" width="576" height="512">
<path d="M576 0H0V512H576V0Z" fill="white"/>
</mask>
<g mask="url(#mask5_3932_38905)">
<mask id="mask6_3932_38905" style="mask-type:luminance" maskUnits="userSpaceOnUse" x="0" y="0" width="576" height="512">
<path d="M576 0H0V512H576V0Z" fill="white"/>
</mask>
<g mask="url(#mask6_3932_38905)">
<mask id="mask7_3932_38905" style="mask-type:luminance" maskUnits="userSpaceOnUse" x="0" y="0" width="576" height="512">
<path d="M576 0H0V512H576V0Z" fill="white"/>
</mask>
<g mask="url(#mask7_3932_38905)">
<mask id="mask8_3932_38905" style="mask-type:luminance" maskUnits="userSpaceOnUse" x="0" y="0" width="576" height="512">
<path d="M576 0H0V512H576V0Z" fill="white"/>
</mask>
<g mask="url(#mask8_3932_38905)">
<mask id="mask9_3932_38905" style="mask-type:luminance" maskUnits="userSpaceOnUse" x="0" y="0" width="576" height="512">
<path d="M576 0H0V512H576V0Z" fill="white"/>
</mask>
<g mask="url(#mask9_3932_38905)">
<mask id="mask10_3932_38905" style="mask-type:luminance" maskUnits="userSpaceOnUse" x="0" y="0" width="576" height="512">
<path d="M576 0H0V512H576V0Z" fill="white"/>
</mask>
<g mask="url(#mask10_3932_38905)">
<mask id="mask11_3932_38905" style="mask-type:luminance" maskUnits="userSpaceOnUse" x="0" y="0" width="576" height="512">
<path d="M576 0H0V512H576V0Z" fill="white"/>
</mask>
<g mask="url(#mask11_3932_38905)">
<mask id="mask12_3932_38905" style="mask-type:luminance" maskUnits="userSpaceOnUse" x="0" y="0" width="576" height="512">
<path d="M576 0H0V512H576V0Z" fill="white"/>
</mask>
<g mask="url(#mask12_3932_38905)">
<mask id="mask13_3932_38905" style="mask-type:luminance" maskUnits="userSpaceOnUse" x="0" y="0" width="576" height="512">
<path d="M576 0H0V512H576V0Z" fill="white"/>
</mask>
<g mask="url(#mask13_3932_38905)">
<path d="M400 96V96.7C394.7 96.3 389.4 96 384 96H256C239.5 96 223.5 98.1 208.2 102C208.1 100 208 98 208 96C208 43 251 0 304 0C357 0 400 43 400 96ZM384 128C387.5 128 391 128.1 394.4 128.3C398.6 128.6 402.8 129 407 129.6C424.6 109.1 450.8 96 480 96H491.5C501.9 96 509.5 105.8 507 115.9L493.2 171.1C509 185.9 521.9 203.9 530.7 224H544C561.7 224 576 238.3 576 256V352C576 369.7 561.7 384 544 384H512C502.9 396.1 492.1 406.9 480 416V480C480 497.7 465.7 512 448 512H416C398.3 512 384 497.7 384 480V448H256V480C256 497.7 241.7 512 224 512H192C174.3 512 160 497.7 160 480V416C125.1 389.8 101.3 349.7 96.8 304H68C30.4 304 0 273.6 0 236C0 198.4 30.4 168 68 168H72C85.3 168 96 178.7 96 192C96 205.3 85.3 216 72 216H68C57 216 48 225 48 236C48 247 57 256 68 256H99.2C111.3 196.2 156.9 148.5 215.5 133.2C228.4 129.8 242 128 256 128H384ZM448 264C448 257.635 445.471 251.53 440.971 247.029C436.47 242.529 430.365 240 424 240C417.635 240 411.53 242.529 407.029 247.029C402.529 251.53 400 257.635 400 264C400 270.365 402.529 276.47 407.029 280.971C411.53 285.471 417.635 288 424 288C430.365 288 436.47 285.471 440.971 280.971C445.471 276.47 448 270.365 448 264Z" fill="black"/>
</g>
</g>
</g>
</g>
</g>
</g>
</g>
</g>
</g>
</g>
</g>
</g>
</g>
</g>
</g>
<defs>
<clipPath id="clip0_3932_38905">
<rect width="576" height="512" fill="white"/>
</clipPath>
</defs>
</svg>
