<svg width="448" height="512" viewBox="0 0 448 512" fill="none" xmlns="http://www.w3.org/2000/svg">
<path d="M64 32C28.7 32 0 60.7 0 96V416C0 451.3 28.7 480 64 480H384C419.3 480 448 451.3 448 416V96C448 60.7 419.3 32 384 32H64ZM235.5 116C276.5 116 311.8 128.9 336.9 151.2C362.1 173.4 376.7 205.3 376.7 240C376.8 275.3 360.1 306.3 334.3 327C308.4 347.8 273.7 359.4 235.5 359.4C192 359.4 151.7 343.3 151.7 343.3V395.1C159.1 397.3 171.4 402.1 163.6 409.9H104.8C97.1 402.1 108.4 397.5 116.9 395.1V175.5C97.1 190.9 87 204.3 81.8 214.2C87.8 233.6 76.5 232.7 76.5 232.7L56 199.7C56 199.7 128.7 116 235.5 116ZM231.9 338.9C261.9 338.9 287.9 327.6 305.8 309.7C323.7 291.6 333.7 268.1 333.8 239.5C333.7 210.2 324.3 184.9 307.1 165.9C289.9 147 264.4 134.6 231.9 134.5C205.2 134.4 172.1 143.5 151.7 158.2V323.1C170.3 332.4 198.5 339 231.9 338.9Z" fill="black"/>
</svg>
