<svg width="640" height="512" viewBox="0 0 640 512" fill="none" xmlns="http://www.w3.org/2000/svg">
<g clip-path="url(#clip0_3932_39263)">
<mask id="mask0_3932_39263" style="mask-type:luminance" maskUnits="userSpaceOnUse" x="0" y="0" width="640" height="512">
<path d="M640 0H0V512H640V0Z" fill="white"/>
</mask>
<g mask="url(#mask0_3932_39263)">
<mask id="mask1_3932_39263" style="mask-type:luminance" maskUnits="userSpaceOnUse" x="0" y="0" width="640" height="512">
<path d="M640 0H0V512H640V0Z" fill="white"/>
</mask>
<g mask="url(#mask1_3932_39263)">
<mask id="mask2_3932_39263" style="mask-type:luminance" maskUnits="userSpaceOnUse" x="0" y="0" width="640" height="512">
<path d="M640 0H0V512H640V0Z" fill="white"/>
</mask>
<g mask="url(#mask2_3932_39263)">
<mask id="mask3_3932_39263" style="mask-type:luminance" maskUnits="userSpaceOnUse" x="0" y="0" width="640" height="512">
<path d="M640 0H0V512H640V0Z" fill="white"/>
</mask>
<g mask="url(#mask3_3932_39263)">
<mask id="mask4_3932_39263" style="mask-type:luminance" maskUnits="userSpaceOnUse" x="0" y="0" width="640" height="512">
<path d="M640 0H0V512H640V0Z" fill="white"/>
</mask>
<g mask="url(#mask4_3932_39263)">
<mask id="mask5_3932_39263" style="mask-type:luminance" maskUnits="userSpaceOnUse" x="0" y="0" width="640" height="512">
<path d="M640 0H0V512H640V0Z" fill="white"/>
</mask>
<g mask="url(#mask5_3932_39263)">
<mask id="mask6_3932_39263" style="mask-type:luminance" maskUnits="userSpaceOnUse" x="0" y="0" width="640" height="512">
<path d="M640 0H0V512H640V0Z" fill="white"/>
</mask>
<g mask="url(#mask6_3932_39263)">
<mask id="mask7_3932_39263" style="mask-type:luminance" maskUnits="userSpaceOnUse" x="0" y="0" width="640" height="512">
<path d="M640 0H0V512H640V0Z" fill="white"/>
</mask>
<g mask="url(#mask7_3932_39263)">
<mask id="mask8_3932_39263" style="mask-type:luminance" maskUnits="userSpaceOnUse" x="0" y="0" width="640" height="512">
<path d="M640 0H0V512H640V0Z" fill="white"/>
</mask>
<g mask="url(#mask8_3932_39263)">
<mask id="mask9_3932_39263" style="mask-type:luminance" maskUnits="userSpaceOnUse" x="0" y="0" width="640" height="512">
<path d="M640 0H0V512H640V0Z" fill="white"/>
</mask>
<g mask="url(#mask9_3932_39263)">
<mask id="mask10_3932_39263" style="mask-type:luminance" maskUnits="userSpaceOnUse" x="0" y="0" width="640" height="512">
<path d="M640 0H0V512H640V0Z" fill="white"/>
</mask>
<g mask="url(#mask10_3932_39263)">
<mask id="mask11_3932_39263" style="mask-type:luminance" maskUnits="userSpaceOnUse" x="0" y="0" width="640" height="512">
<path d="M640 0H0V512H640V0Z" fill="white"/>
</mask>
<g mask="url(#mask11_3932_39263)">
<mask id="mask12_3932_39263" style="mask-type:luminance" maskUnits="userSpaceOnUse" x="0" y="0" width="640" height="512">
<path d="M640 0H0V512H640V0Z" fill="white"/>
</mask>
<g mask="url(#mask12_3932_39263)">
<mask id="mask13_3932_39263" style="mask-type:luminance" maskUnits="userSpaceOnUse" x="0" y="0" width="640" height="512">
<path d="M640 0H0V512H640V0Z" fill="white"/>
</mask>
<g mask="url(#mask13_3932_39263)">
<path d="M256 0C221 0 192 59.5 192 93.7V178.3L8.1 283.4C3.1 286.2 0 291.6 0 297.3V362.8C0 373.4 10.2 381.1 20.4 378.2L192 329.2V400.1L134.4 443.3C130.4 446.3 128 451.1 128 456.1V498.1C128 505.9 134.3 512.1 142 512.1C143.3 512.1 144.6 511.9 145.9 511.6L256 480L366.1 511.5C367.4 511.9 368.7 512 370 512C376 512 381.1 508.3 383.1 503C344.5 470.7 320 422.2 320 368C320 307.4 350.6 254 397.1 222.4L320 178.3V93.7C320 59.5 292 0 256 0ZM496 512C534.191 512 570.818 496.829 597.823 469.823C624.829 442.818 640 406.191 640 368C640 329.809 624.829 293.182 597.823 266.177C570.818 239.171 534.191 224 496 224C457.809 224 421.182 239.171 394.177 266.177C367.171 293.182 352 329.809 352 368C352 406.191 367.171 442.818 394.177 469.823C421.182 496.829 457.809 512 496 512ZM496 416C502.365 416 508.47 418.529 512.971 423.029C517.471 427.53 520 433.635 520 440C520 446.365 517.471 452.47 512.971 456.971C508.47 461.471 502.365 464 496 464C489.635 464 483.53 461.471 479.029 456.971C474.529 452.47 472 446.365 472 440C472 433.635 474.529 427.53 479.029 423.029C483.53 418.529 489.635 416 496 416ZM496 272C504.8 272 512 279.2 512 288V368C512 376.8 504.8 384 496 384C487.2 384 480 376.8 480 368V288C480 279.2 487.2 272 496 272Z" fill="black"/>
</g>
</g>
</g>
</g>
</g>
</g>
</g>
</g>
</g>
</g>
</g>
</g>
</g>
</g>
</g>
<defs>
<clipPath id="clip0_3932_39263">
<rect width="640" height="512" fill="white"/>
</clipPath>
</defs>
</svg>
