<svg width="576" height="512" viewBox="0 0 576 512" fill="none" xmlns="http://www.w3.org/2000/svg">
<g clip-path="url(#clip0_3932_39667)">
<mask id="mask0_3932_39667" style="mask-type:luminance" maskUnits="userSpaceOnUse" x="0" y="0" width="576" height="512">
<path d="M576 0H0V512H576V0Z" fill="white"/>
</mask>
<g mask="url(#mask0_3932_39667)">
<mask id="mask1_3932_39667" style="mask-type:luminance" maskUnits="userSpaceOnUse" x="0" y="0" width="576" height="512">
<path d="M576 0H0V512H576V0Z" fill="white"/>
</mask>
<g mask="url(#mask1_3932_39667)">
<mask id="mask2_3932_39667" style="mask-type:luminance" maskUnits="userSpaceOnUse" x="0" y="0" width="576" height="512">
<path d="M576 0H0V512H576V0Z" fill="white"/>
</mask>
<g mask="url(#mask2_3932_39667)">
<mask id="mask3_3932_39667" style="mask-type:luminance" maskUnits="userSpaceOnUse" x="0" y="0" width="576" height="512">
<path d="M576 0H0V512H576V0Z" fill="white"/>
</mask>
<g mask="url(#mask3_3932_39667)">
<mask id="mask4_3932_39667" style="mask-type:luminance" maskUnits="userSpaceOnUse" x="0" y="0" width="576" height="512">
<path d="M576 0H0V512H576V0Z" fill="white"/>
</mask>
<g mask="url(#mask4_3932_39667)">
<mask id="mask5_3932_39667" style="mask-type:luminance" maskUnits="userSpaceOnUse" x="0" y="0" width="576" height="512">
<path d="M576 0H0V512H576V0Z" fill="white"/>
</mask>
<g mask="url(#mask5_3932_39667)">
<mask id="mask6_3932_39667" style="mask-type:luminance" maskUnits="userSpaceOnUse" x="0" y="0" width="576" height="512">
<path d="M576 0H0V512H576V0Z" fill="white"/>
</mask>
<g mask="url(#mask6_3932_39667)">
<mask id="mask7_3932_39667" style="mask-type:luminance" maskUnits="userSpaceOnUse" x="0" y="0" width="576" height="512">
<path d="M576 0H0V512H576V0Z" fill="white"/>
</mask>
<g mask="url(#mask7_3932_39667)">
<mask id="mask8_3932_39667" style="mask-type:luminance" maskUnits="userSpaceOnUse" x="0" y="0" width="576" height="512">
<path d="M576 0H0V512H576V0Z" fill="white"/>
</mask>
<g mask="url(#mask8_3932_39667)">
<mask id="mask9_3932_39667" style="mask-type:luminance" maskUnits="userSpaceOnUse" x="0" y="0" width="576" height="512">
<path d="M576 0H0V512H576V0Z" fill="white"/>
</mask>
<g mask="url(#mask9_3932_39667)">
<mask id="mask10_3932_39667" style="mask-type:luminance" maskUnits="userSpaceOnUse" x="0" y="0" width="576" height="512">
<path d="M576 0H0V512H576V0Z" fill="white"/>
</mask>
<g mask="url(#mask10_3932_39667)">
<mask id="mask11_3932_39667" style="mask-type:luminance" maskUnits="userSpaceOnUse" x="0" y="0" width="576" height="512">
<path d="M576 0H0V512H576V0Z" fill="white"/>
</mask>
<g mask="url(#mask11_3932_39667)">
<mask id="mask12_3932_39667" style="mask-type:luminance" maskUnits="userSpaceOnUse" x="0" y="0" width="576" height="512">
<path d="M576 0H0V512H576V0Z" fill="white"/>
</mask>
<g mask="url(#mask12_3932_39667)">
<mask id="mask13_3932_39667" style="mask-type:luminance" maskUnits="userSpaceOnUse" x="0" y="0" width="576" height="512">
<path d="M576 0H0V512H576V0Z" fill="white"/>
</mask>
<g mask="url(#mask13_3932_39667)">
<path d="M570.906 372.3C559.606 386.5 532.106 396.6 532.106 396.6L327.006 470.2V415.9L477.906 362.1C495.006 356 497.706 347.3 483.706 342.7C469.806 338.1 444.606 339.4 427.506 345.6L327.006 381.1V324.7C350.206 316.9 374.106 311.1 402.706 307.9C443.606 303.4 493.606 308.5 532.906 323.4C577.106 337.4 582.106 358.1 570.906 372.3ZM346.506 279.8V140.8C346.506 124.5 343.506 109.5 328.206 105.2C316.506 101.4 309.206 112.3 309.206 128.6V476.5L215.406 446.7V32C255.306 39.4 313.406 56.9 344.606 67.4C424.106 94.7 451.006 128.7 451.006 205.2C451.006 279.7 405.006 308 346.506 279.8ZM43.2058 410.2C-2.19423 397.4 -9.79424 370.7 10.9058 355.4C30.0058 341.2 62.6058 330.5 62.6058 330.5L197.106 282.7V337.2L100.306 371.8C83.2058 377.9 80.6058 386.6 94.5058 391.2C108.406 395.8 133.606 394.5 150.706 388.3L197.106 371.4V420.2C145.506 429.5 95.7058 427.5 43.2058 410.2Z" fill="black"/>
</g>
</g>
</g>
</g>
</g>
</g>
</g>
</g>
</g>
</g>
</g>
</g>
</g>
</g>
</g>
<defs>
<clipPath id="clip0_3932_39667">
<rect width="576" height="512" fill="white"/>
</clipPath>
</defs>
</svg>
