<svg width="512" height="512" viewBox="0 0 512 512" fill="none" xmlns="http://www.w3.org/2000/svg">
<g clip-path="url(#clip0_3932_40307)">
<mask id="mask0_3932_40307" style="mask-type:luminance" maskUnits="userSpaceOnUse" x="0" y="0" width="512" height="512">
<path d="M512 0H0V512H512V0Z" fill="white"/>
</mask>
<g mask="url(#mask0_3932_40307)">
<mask id="mask1_3932_40307" style="mask-type:luminance" maskUnits="userSpaceOnUse" x="0" y="0" width="512" height="512">
<path d="M512 0H0V512H512V0Z" fill="white"/>
</mask>
<g mask="url(#mask1_3932_40307)">
<mask id="mask2_3932_40307" style="mask-type:luminance" maskUnits="userSpaceOnUse" x="0" y="0" width="512" height="512">
<path d="M512 0H0V512H512V0Z" fill="white"/>
</mask>
<g mask="url(#mask2_3932_40307)">
<mask id="mask3_3932_40307" style="mask-type:luminance" maskUnits="userSpaceOnUse" x="0" y="0" width="512" height="512">
<path d="M512 0H0V512H512V0Z" fill="white"/>
</mask>
<g mask="url(#mask3_3932_40307)">
<mask id="mask4_3932_40307" style="mask-type:luminance" maskUnits="userSpaceOnUse" x="0" y="0" width="512" height="512">
<path d="M512 0H0V512H512V0Z" fill="white"/>
</mask>
<g mask="url(#mask4_3932_40307)">
<mask id="mask5_3932_40307" style="mask-type:luminance" maskUnits="userSpaceOnUse" x="0" y="0" width="512" height="512">
<path d="M512 0H0V512H512V0Z" fill="white"/>
</mask>
<g mask="url(#mask5_3932_40307)">
<mask id="mask6_3932_40307" style="mask-type:luminance" maskUnits="userSpaceOnUse" x="0" y="0" width="512" height="512">
<path d="M512 0H0V512H512V0Z" fill="white"/>
</mask>
<g mask="url(#mask6_3932_40307)">
<mask id="mask7_3932_40307" style="mask-type:luminance" maskUnits="userSpaceOnUse" x="0" y="0" width="512" height="512">
<path d="M512 0H0V512H512V0Z" fill="white"/>
</mask>
<g mask="url(#mask7_3932_40307)">
<mask id="mask8_3932_40307" style="mask-type:luminance" maskUnits="userSpaceOnUse" x="0" y="0" width="512" height="512">
<path d="M512 0H0V512H512V0Z" fill="white"/>
</mask>
<g mask="url(#mask8_3932_40307)">
<mask id="mask9_3932_40307" style="mask-type:luminance" maskUnits="userSpaceOnUse" x="0" y="0" width="512" height="512">
<path d="M512 0H0V512H512V0Z" fill="white"/>
</mask>
<g mask="url(#mask9_3932_40307)">
<mask id="mask10_3932_40307" style="mask-type:luminance" maskUnits="userSpaceOnUse" x="0" y="0" width="512" height="512">
<path d="M512 0H0V512H512V0Z" fill="white"/>
</mask>
<g mask="url(#mask10_3932_40307)">
<mask id="mask11_3932_40307" style="mask-type:luminance" maskUnits="userSpaceOnUse" x="0" y="0" width="512" height="512">
<path d="M512 0H0V512H512V0Z" fill="white"/>
</mask>
<g mask="url(#mask11_3932_40307)">
<mask id="mask12_3932_40307" style="mask-type:luminance" maskUnits="userSpaceOnUse" x="0" y="0" width="512" height="512">
<path d="M512 0H0V512H512V0Z" fill="white"/>
</mask>
<g mask="url(#mask12_3932_40307)">
<mask id="mask13_3932_40307" style="mask-type:luminance" maskUnits="userSpaceOnUse" x="0" y="0" width="512" height="512">
<path d="M512 0H0V512H512V0Z" fill="white"/>
</mask>
<g mask="url(#mask13_3932_40307)">
<path d="M254.4 6.59657C257.9 2.29657 263.4 0.0965759 268.9 0.896575C315.8 7.19657 352 47.3966 352 95.9966C352 107.197 350.1 117.997 346.5 127.997H352C387.3 127.997 416 156.697 416 191.997C416 211.097 407.6 228.297 394.3 239.997H408C447.8 239.997 480 272.197 480 311.997C480 335.197 469 355.796 452 368.997C486.1 374.697 512 404.296 512 439.997C512 479.796 479.8 511.997 440 511.997H72C32.2 511.997 0 479.796 0 439.997C0 404.296 25.9 374.697 60 368.997C43 355.796 32 335.197 32 311.997C32 272.197 64.2 239.997 104 239.997H117.7C104.4 228.297 96 211.097 96 191.997C96 156.697 124.7 127.997 160 127.997H176.2C220.3 127.897 256 92.0966 256 47.9966C256 38.7966 254.5 30.0966 251.7 21.8966C249.9 16.6966 250.9 10.7966 254.5 6.49657L254.4 6.59657Z" fill="black"/>
</g>
</g>
</g>
</g>
</g>
</g>
</g>
</g>
</g>
</g>
</g>
</g>
</g>
</g>
</g>
<defs>
<clipPath id="clip0_3932_40307">
<rect width="512" height="512" fill="white"/>
</clipPath>
</defs>
</svg>
