<svg width="512" height="512" viewBox="0 0 512 512" fill="none" xmlns="http://www.w3.org/2000/svg">
<path d="M288 32C288 14.3 273.7 0 256 0C238.3 0 224 14.3 224 32V256C224 273.7 238.3 288 256 288C273.7 288 288 273.7 288 256V32ZM143.5 120.6C157.1 109.3 158.9 89.1 147.6 75.5C136.3 61.9 116.1 60.1 102.5 71.4C49.7 115.4 16 181.8 16 256C16 388.5 123.5 496 256 496C388.5 496 496 388.5 496 256C496 181.8 462.2 115.4 409.4 71.4C395.8 60.1 375.6 62 364.3 75.5C353 89 354.9 109.3 368.4 120.6C407.3 152.9 431.9 201.6 431.9 256C431.9 353.2 353.1 432 255.9 432C158.7 432 79.9 353.2 79.9 256C79.9 201.6 104.6 152.9 143.4 120.6H143.5Z" fill="black"/>
</svg>
