<svg width="512" height="512" viewBox="0 0 512 512" fill="none" xmlns="http://www.w3.org/2000/svg">
<g clip-path="url(#clip0_3932_40599)">
<mask id="mask0_3932_40599" style="mask-type:luminance" maskUnits="userSpaceOnUse" x="0" y="0" width="512" height="512">
<path d="M512 0H0V512H512V0Z" fill="white"/>
</mask>
<g mask="url(#mask0_3932_40599)">
<mask id="mask1_3932_40599" style="mask-type:luminance" maskUnits="userSpaceOnUse" x="0" y="0" width="512" height="512">
<path d="M512 0H0V512H512V0Z" fill="white"/>
</mask>
<g mask="url(#mask1_3932_40599)">
<mask id="mask2_3932_40599" style="mask-type:luminance" maskUnits="userSpaceOnUse" x="0" y="0" width="512" height="512">
<path d="M512 0H0V512H512V0Z" fill="white"/>
</mask>
<g mask="url(#mask2_3932_40599)">
<mask id="mask3_3932_40599" style="mask-type:luminance" maskUnits="userSpaceOnUse" x="0" y="0" width="512" height="512">
<path d="M512 0H0V512H512V0Z" fill="white"/>
</mask>
<g mask="url(#mask3_3932_40599)">
<mask id="mask4_3932_40599" style="mask-type:luminance" maskUnits="userSpaceOnUse" x="0" y="0" width="512" height="512">
<path d="M512 0H0V512H512V0Z" fill="white"/>
</mask>
<g mask="url(#mask4_3932_40599)">
<mask id="mask5_3932_40599" style="mask-type:luminance" maskUnits="userSpaceOnUse" x="0" y="0" width="512" height="512">
<path d="M512 0H0V512H512V0Z" fill="white"/>
</mask>
<g mask="url(#mask5_3932_40599)">
<mask id="mask6_3932_40599" style="mask-type:luminance" maskUnits="userSpaceOnUse" x="0" y="0" width="512" height="512">
<path d="M512 0H0V512H512V0Z" fill="white"/>
</mask>
<g mask="url(#mask6_3932_40599)">
<mask id="mask7_3932_40599" style="mask-type:luminance" maskUnits="userSpaceOnUse" x="0" y="0" width="512" height="512">
<path d="M512 0H0V512H512V0Z" fill="white"/>
</mask>
<g mask="url(#mask7_3932_40599)">
<mask id="mask8_3932_40599" style="mask-type:luminance" maskUnits="userSpaceOnUse" x="0" y="0" width="512" height="512">
<path d="M512 0H0V512H512V0Z" fill="white"/>
</mask>
<g mask="url(#mask8_3932_40599)">
<mask id="mask9_3932_40599" style="mask-type:luminance" maskUnits="userSpaceOnUse" x="0" y="0" width="512" height="512">
<path d="M512 0H0V512H512V0Z" fill="white"/>
</mask>
<g mask="url(#mask9_3932_40599)">
<mask id="mask10_3932_40599" style="mask-type:luminance" maskUnits="userSpaceOnUse" x="0" y="0" width="512" height="512">
<path d="M512 0H0V512H512V0Z" fill="white"/>
</mask>
<g mask="url(#mask10_3932_40599)">
<mask id="mask11_3932_40599" style="mask-type:luminance" maskUnits="userSpaceOnUse" x="0" y="0" width="512" height="512">
<path d="M512 0H0V512H512V0Z" fill="white"/>
</mask>
<g mask="url(#mask11_3932_40599)">
<mask id="mask12_3932_40599" style="mask-type:luminance" maskUnits="userSpaceOnUse" x="0" y="0" width="512" height="512">
<path d="M512 0H0V512H512V0Z" fill="white"/>
</mask>
<g mask="url(#mask12_3932_40599)">
<mask id="mask13_3932_40599" style="mask-type:luminance" maskUnits="userSpaceOnUse" x="0" y="0" width="512" height="512">
<path d="M512 0H0V512H512V0Z" fill="white"/>
</mask>
<g mask="url(#mask13_3932_40599)">
<path d="M128 0C92.7 0 64 28.7 64 64V160H128V64H354.7L384 93.3V160H448V93.3C448 76.3 441.3 60 429.3 48L400 18.7C388 6.7 371.7 0 354.7 0H128ZM384 352V384V448H128V384V368V352H384ZM448 384H480C497.7 384 512 369.7 512 352V256C512 220.7 483.3 192 448 192H64C28.7 192 0 220.7 0 256V352C0 369.7 14.3 384 32 384H64V448C64 483.3 92.7 512 128 512H384C419.3 512 448 483.3 448 448V384ZM432 248C438.365 248 444.47 250.529 448.971 255.029C453.471 259.53 456 265.635 456 272C456 278.365 453.471 284.47 448.971 288.971C444.47 293.471 438.365 296 432 296C425.635 296 419.53 293.471 415.029 288.971C410.529 284.47 408 278.365 408 272C408 265.635 410.529 259.53 415.029 255.029C419.53 250.529 425.635 248 432 248Z" fill="black"/>
</g>
</g>
</g>
</g>
</g>
</g>
</g>
</g>
</g>
</g>
</g>
</g>
</g>
</g>
</g>
<defs>
<clipPath id="clip0_3932_40599">
<rect width="512" height="512" fill="white"/>
</clipPath>
</defs>
</svg>
