<svg width="432" height="512" viewBox="0 0 432 512" fill="none" xmlns="http://www.w3.org/2000/svg">
<g clip-path="url(#clip0_3932_40717)">
<mask id="mask0_3932_40717" style="mask-type:luminance" maskUnits="userSpaceOnUse" x="0" y="0" width="432" height="512">
<path d="M432 0H0V512H432V0Z" fill="white"/>
</mask>
<g mask="url(#mask0_3932_40717)">
<mask id="mask1_3932_40717" style="mask-type:luminance" maskUnits="userSpaceOnUse" x="0" y="0" width="432" height="512">
<path d="M432 0H0V512H432V0Z" fill="white"/>
</mask>
<g mask="url(#mask1_3932_40717)">
<mask id="mask2_3932_40717" style="mask-type:luminance" maskUnits="userSpaceOnUse" x="0" y="0" width="432" height="512">
<path d="M432 0H0V512H432V0Z" fill="white"/>
</mask>
<g mask="url(#mask2_3932_40717)">
<mask id="mask3_3932_40717" style="mask-type:luminance" maskUnits="userSpaceOnUse" x="0" y="0" width="432" height="512">
<path d="M432 0H0V512H432V0Z" fill="white"/>
</mask>
<g mask="url(#mask3_3932_40717)">
<mask id="mask4_3932_40717" style="mask-type:luminance" maskUnits="userSpaceOnUse" x="0" y="0" width="432" height="512">
<path d="M432 0H0V512H432V0Z" fill="white"/>
</mask>
<g mask="url(#mask4_3932_40717)">
<mask id="mask5_3932_40717" style="mask-type:luminance" maskUnits="userSpaceOnUse" x="0" y="0" width="432" height="512">
<path d="M432 0H0V512H432V0Z" fill="white"/>
</mask>
<g mask="url(#mask5_3932_40717)">
<mask id="mask6_3932_40717" style="mask-type:luminance" maskUnits="userSpaceOnUse" x="0" y="0" width="432" height="512">
<path d="M432 0H0V512H432V0Z" fill="white"/>
</mask>
<g mask="url(#mask6_3932_40717)">
<mask id="mask7_3932_40717" style="mask-type:luminance" maskUnits="userSpaceOnUse" x="0" y="0" width="432" height="512">
<path d="M432 0H0V512H432V0Z" fill="white"/>
</mask>
<g mask="url(#mask7_3932_40717)">
<mask id="mask8_3932_40717" style="mask-type:luminance" maskUnits="userSpaceOnUse" x="0" y="0" width="432" height="512">
<path d="M432 0H0V512H432V0Z" fill="white"/>
</mask>
<g mask="url(#mask8_3932_40717)">
<mask id="mask9_3932_40717" style="mask-type:luminance" maskUnits="userSpaceOnUse" x="0" y="0" width="432" height="512">
<path d="M432 0H0V512H432V0Z" fill="white"/>
</mask>
<g mask="url(#mask9_3932_40717)">
<mask id="mask10_3932_40717" style="mask-type:luminance" maskUnits="userSpaceOnUse" x="0" y="0" width="432" height="512">
<path d="M432 0H0V512H432V0Z" fill="white"/>
</mask>
<g mask="url(#mask10_3932_40717)">
<mask id="mask11_3932_40717" style="mask-type:luminance" maskUnits="userSpaceOnUse" x="0" y="0" width="432" height="512">
<path d="M432 0H0V512H432V0Z" fill="white"/>
</mask>
<g mask="url(#mask11_3932_40717)">
<mask id="mask12_3932_40717" style="mask-type:luminance" maskUnits="userSpaceOnUse" x="0" y="0" width="432" height="512">
<path d="M432 0H0V512H432V0Z" fill="white"/>
</mask>
<g mask="url(#mask12_3932_40717)">
<mask id="mask13_3932_40717" style="mask-type:luminance" maskUnits="userSpaceOnUse" x="0" y="0" width="432" height="512">
<path d="M432 0H0V512H432V0Z" fill="white"/>
</mask>
<g mask="url(#mask13_3932_40717)">
<path d="M407.003 111.898L308.503 102.898L322.503 69.498C332.903 45.998 311.703 29.098 293.803 32.498L22.5032 76.898C7.40322 79.598 -3.49678 95.198 1.10322 113.498L106.203 461.798C112.703 483.098 142.903 485.998 153.903 468.798L189.203 387.998L424.403 156.698C440.803 139.898 428.703 113.798 407.003 111.898ZM297.603 53.598C302.703 52.898 305.103 56.098 302.803 60.998L286.003 100.898L108.603 84.598L297.603 53.598ZM22.7032 107.898C19.6032 102.798 23.7032 97.898 28.8032 98.798L277.503 121.498L180.603 352.198L22.7032 107.898ZM136.003 456.398C133.403 460.398 128.103 459.498 126.603 455.198L43.5032 179.698L171.203 377.298C164.203 392.298 136.003 456.398 136.003 456.398ZM408.803 141.898L210.103 337.298L299.803 123.598L406.203 133.298C410.203 134.398 411.903 138.598 408.803 141.898Z" fill="black"/>
</g>
</g>
</g>
</g>
</g>
</g>
</g>
</g>
</g>
</g>
</g>
</g>
</g>
</g>
</g>
<defs>
<clipPath id="clip0_3932_40717">
<rect width="432" height="512" fill="white"/>
</clipPath>
</defs>
</svg>
