<svg width="448" height="512" viewBox="0 0 448 512" fill="none" xmlns="http://www.w3.org/2000/svg">
<g clip-path="url(#clip0_3932_40891)">
<mask id="mask0_3932_40891" style="mask-type:luminance" maskUnits="userSpaceOnUse" x="0" y="0" width="448" height="512">
<path d="M448 0H0V512H448V0Z" fill="white"/>
</mask>
<g mask="url(#mask0_3932_40891)">
<mask id="mask1_3932_40891" style="mask-type:luminance" maskUnits="userSpaceOnUse" x="0" y="0" width="448" height="512">
<path d="M448 0H0V512H448V0Z" fill="white"/>
</mask>
<g mask="url(#mask1_3932_40891)">
<mask id="mask2_3932_40891" style="mask-type:luminance" maskUnits="userSpaceOnUse" x="0" y="0" width="448" height="512">
<path d="M448 0H0V512H448V0Z" fill="white"/>
</mask>
<g mask="url(#mask2_3932_40891)">
<mask id="mask3_3932_40891" style="mask-type:luminance" maskUnits="userSpaceOnUse" x="0" y="0" width="448" height="512">
<path d="M448 0H0V512H448V0Z" fill="white"/>
</mask>
<g mask="url(#mask3_3932_40891)">
<mask id="mask4_3932_40891" style="mask-type:luminance" maskUnits="userSpaceOnUse" x="0" y="0" width="448" height="512">
<path d="M448 0H0V512H448V0Z" fill="white"/>
</mask>
<g mask="url(#mask4_3932_40891)">
<mask id="mask5_3932_40891" style="mask-type:luminance" maskUnits="userSpaceOnUse" x="0" y="0" width="448" height="512">
<path d="M448 0H0V512H448V0Z" fill="white"/>
</mask>
<g mask="url(#mask5_3932_40891)">
<mask id="mask6_3932_40891" style="mask-type:luminance" maskUnits="userSpaceOnUse" x="0" y="0" width="448" height="512">
<path d="M448 0H0V512H448V0Z" fill="white"/>
</mask>
<g mask="url(#mask6_3932_40891)">
<mask id="mask7_3932_40891" style="mask-type:luminance" maskUnits="userSpaceOnUse" x="0" y="0" width="448" height="512">
<path d="M448 0H0V512H448V0Z" fill="white"/>
</mask>
<g mask="url(#mask7_3932_40891)">
<mask id="mask8_3932_40891" style="mask-type:luminance" maskUnits="userSpaceOnUse" x="0" y="0" width="448" height="512">
<path d="M448 0H0V512H448V0Z" fill="white"/>
</mask>
<g mask="url(#mask8_3932_40891)">
<mask id="mask9_3932_40891" style="mask-type:luminance" maskUnits="userSpaceOnUse" x="0" y="0" width="448" height="512">
<path d="M448 0H0V512H448V0Z" fill="white"/>
</mask>
<g mask="url(#mask9_3932_40891)">
<mask id="mask10_3932_40891" style="mask-type:luminance" maskUnits="userSpaceOnUse" x="0" y="0" width="448" height="512">
<path d="M448 0H0V512H448V0Z" fill="white"/>
</mask>
<g mask="url(#mask10_3932_40891)">
<mask id="mask11_3932_40891" style="mask-type:luminance" maskUnits="userSpaceOnUse" x="0" y="0" width="448" height="512">
<path d="M448 0H0V512H448V0Z" fill="white"/>
</mask>
<g mask="url(#mask11_3932_40891)">
<mask id="mask12_3932_40891" style="mask-type:luminance" maskUnits="userSpaceOnUse" x="0" y="0" width="448" height="512">
<path d="M448 0H0V512H448V0Z" fill="white"/>
</mask>
<g mask="url(#mask12_3932_40891)">
<mask id="mask13_3932_40891" style="mask-type:luminance" maskUnits="userSpaceOnUse" x="0" y="0" width="448" height="512">
<path d="M448 0H0V512H448V0Z" fill="white"/>
</mask>
<g mask="url(#mask13_3932_40891)">
<path d="M64 256C64 344.4 135.6 416 224 416C252.9 416 280 408.3 303.4 394.9L231.4 308.5C220.1 294.9 221.9 274.7 235.5 263.4C249.1 252.1 269.3 253.9 280.6 267.5L351.5 352.6C371.9 325.8 384 292.3 384 256C384 167.6 312.4 96 224 96C135.6 96 64 167.6 64 256ZM344.9 444.6C310 467 268.5 480 224 480C100.3 480 0 379.7 0 256C0 132.3 100.3 32 224 32C347.7 32 448 132.3 448 256C448 312.1 427.4 363.4 393.3 402.7L440.6 459.5C451.9 473.1 450.1 493.3 436.5 504.6C422.9 515.9 402.7 514.1 391.4 500.5L344.8 444.6H344.9Z" fill="black"/>
</g>
</g>
</g>
</g>
</g>
</g>
</g>
</g>
</g>
</g>
</g>
</g>
</g>
</g>
</g>
<defs>
<clipPath id="clip0_3932_40891">
<rect width="448" height="512" fill="white"/>
</clipPath>
</defs>
</svg>
