<svg width="448" height="512" viewBox="0 0 448 512" fill="none" xmlns="http://www.w3.org/2000/svg">
<path d="M0 80C0 53.5 21.5 32 48 32H144C170.5 32 192 53.5 192 80V176C192 202.5 170.5 224 144 224H48C21.5 224 0 202.5 0 176V80ZM64 96V160H128V96H64ZM0 336C0 309.5 21.5 288 48 288H144C170.5 288 192 309.5 192 336V432C192 458.5 170.5 480 144 480H48C21.5 480 0 458.5 0 432V336ZM64 352V416H128V352H64ZM304 32H400C426.5 32 448 53.5 448 80V176C448 202.5 426.5 224 400 224H304C277.5 224 256 202.5 256 176V80C256 53.5 277.5 32 304 32ZM384 96H320V160H384V96ZM256 304C256 295.2 263.2 288 272 288H336C344.8 288 352 295.2 352 304C352 312.8 359.2 320 368 320H400C408.8 320 416 312.8 416 304C416 295.2 423.2 288 432 288C440.8 288 448 295.2 448 304V400C448 408.8 440.8 416 432 416H368C359.2 416 352 408.8 352 400C352 391.2 344.8 384 336 384C327.2 384 320 391.2 320 400V464C320 472.8 312.8 480 304 480H272C263.2 480 256 472.8 256 464V304ZM368 480C363.757 480 359.687 478.314 356.686 475.314C353.686 472.313 352 468.243 352 464C352 459.757 353.686 455.687 356.686 452.686C359.687 449.686 363.757 448 368 448C372.243 448 376.313 449.686 379.314 452.686C382.314 455.687 384 459.757 384 464C384 468.243 382.314 472.313 379.314 475.314C376.313 478.314 372.243 480 368 480ZM432 480C427.757 480 423.687 478.314 420.686 475.314C417.686 472.313 416 468.243 416 464C416 459.757 417.686 455.687 420.686 452.686C423.687 449.686 427.757 448 432 448C436.243 448 440.313 449.686 443.314 452.686C446.314 455.687 448 459.757 448 464C448 468.243 446.314 472.313 443.314 475.314C440.313 478.314 436.243 480 432 480Z" fill="black"/>
</svg>
