<svg width="448" height="512" viewBox="0 0 448 512" fill="none" xmlns="http://www.w3.org/2000/svg">
<path d="M440.497 386.7H411.197C409.697 400.2 400.697 417.5 378.197 417.5C357.697 417.5 342.897 403.3 328.697 381.7C372.897 347.5 403.397 294.2 403.397 228.7C403.497 111.2 306.797 32 204.997 32C105.297 32 7.29688 111.7 7.29688 228.7C7.29688 362.8 138.597 450.3 256.297 417.7C275.997 451.3 301.997 480 351.497 480C433.297 480 442.297 404.7 440.497 386.7ZM296.997 329.2C277.497 300 253.297 277 205.497 277C174.997 277 151.197 287 136.497 299.8L148.697 324.1C154.897 321.1 161.697 320.1 168.497 320.1C203.997 320.1 222.197 350.9 237.697 381.4C227.697 384.4 216.997 385.6 204.997 385.6C129.997 385.6 97.4969 332.6 97.4969 228.9C97.4969 124.5 129.997 71 204.997 71C281.197 71 313.697 124.5 313.697 228.7C313.797 270.5 308.297 304.3 296.997 329.2Z" fill="black"/>
</svg>
