<svg width="512" height="512" viewBox="0 0 512 512" fill="none" xmlns="http://www.w3.org/2000/svg">
<path d="M216.003 186.7C192.103 200.5 176.003 226.4 176.003 256H32.0026C14.3026 256 -0.197377 241.6 2.00264 224.1C10.7026 154 47.8026 92.7001 101.303 52.0001C115.403 41.3001 135.103 46.7001 144.003 62.0001L216.003 186.7ZM256.003 336C270.603 336 284.203 332.1 296.003 325.3L368.003 450.1C376.803 465.4 371.703 485.2 355.403 492C324.803 504.9 291.203 512 256.003 512C220.803 512 187.103 504.9 156.603 492C140.303 485.1 135.203 465.4 144.003 450.1L216.003 325.3C227.803 332.1 241.403 336 256.003 336ZM480.003 256H336.003C336.003 226.4 319.903 200.5 296.003 186.7L368.003 62.0001C376.803 46.7001 396.603 41.3001 410.703 52.0001C464.303 92.7001 501.303 154 510.103 224.1C512.303 241.6 497.703 256 480.103 256H480.003ZM256.003 208C268.733 208 280.942 213.057 289.944 222.059C298.945 231.061 304.003 243.27 304.003 256C304.003 268.73 298.945 280.939 289.944 289.941C280.942 298.943 268.733 304 256.003 304C243.272 304 231.063 298.943 222.062 289.941C213.06 280.939 208.003 268.73 208.003 256C208.003 243.27 213.06 231.061 222.062 222.059C231.063 213.057 243.272 208 256.003 208Z" fill="black"/>
</svg>
