<svg width="640" height="512" viewBox="0 0 640 512" fill="none" xmlns="http://www.w3.org/2000/svg">
<path d="M320 96C178.6 96 64 210.6 64 352V448C64 465.7 49.7 480 32 480C14.3 480 0 465.7 0 448V352C0 175.3 143.3 32 320 32C496.7 32 640 175.3 640 352V448C640 465.7 625.7 480 608 480C590.3 480 576 465.7 576 448V352C576 210.6 461.4 96 320 96ZM320 288C284.7 288 256 316.7 256 352V448C256 465.7 241.7 480 224 480C206.3 480 192 465.7 192 448V352C192 281.3 249.3 224 320 224C390.7 224 448 281.3 448 352V448C448 465.7 433.7 480 416 480C398.3 480 384 465.7 384 448V352C384 316.7 355.3 288 320 288ZM160 352V448C160 465.7 145.7 480 128 480C110.3 480 96 465.7 96 448V352C96 228.3 196.3 128 320 128C443.7 128 544 228.3 544 352V448C544 465.7 529.7 480 512 480C494.3 480 480 465.7 480 448V352C480 263.6 408.4 192 320 192C231.6 192 160 263.6 160 352Z" fill="black"/>
</svg>
