<svg width="640" height="512" viewBox="0 0 640 512" fill="none" xmlns="http://www.w3.org/2000/svg">
<g clip-path="url(#clip0_3932_41256)">
<mask id="mask0_3932_41256" style="mask-type:luminance" maskUnits="userSpaceOnUse" x="0" y="0" width="640" height="512">
<path d="M640 0H0V512H640V0Z" fill="white"/>
</mask>
<g mask="url(#mask0_3932_41256)">
<mask id="mask1_3932_41256" style="mask-type:luminance" maskUnits="userSpaceOnUse" x="0" y="0" width="640" height="512">
<path d="M640 0H0V512H640V0Z" fill="white"/>
</mask>
<g mask="url(#mask1_3932_41256)">
<mask id="mask2_3932_41256" style="mask-type:luminance" maskUnits="userSpaceOnUse" x="0" y="0" width="640" height="512">
<path d="M640 0H0V512H640V0Z" fill="white"/>
</mask>
<g mask="url(#mask2_3932_41256)">
<mask id="mask3_3932_41256" style="mask-type:luminance" maskUnits="userSpaceOnUse" x="0" y="0" width="640" height="512">
<path d="M640 0H0V512H640V0Z" fill="white"/>
</mask>
<g mask="url(#mask3_3932_41256)">
<mask id="mask4_3932_41256" style="mask-type:luminance" maskUnits="userSpaceOnUse" x="0" y="0" width="640" height="512">
<path d="M640 0H0V512H640V0Z" fill="white"/>
</mask>
<g mask="url(#mask4_3932_41256)">
<mask id="mask5_3932_41256" style="mask-type:luminance" maskUnits="userSpaceOnUse" x="0" y="0" width="640" height="512">
<path d="M640 0H0V512H640V0Z" fill="white"/>
</mask>
<g mask="url(#mask5_3932_41256)">
<mask id="mask6_3932_41256" style="mask-type:luminance" maskUnits="userSpaceOnUse" x="0" y="0" width="640" height="512">
<path d="M640 0H0V512H640V0Z" fill="white"/>
</mask>
<g mask="url(#mask6_3932_41256)">
<mask id="mask7_3932_41256" style="mask-type:luminance" maskUnits="userSpaceOnUse" x="0" y="0" width="640" height="512">
<path d="M640 0H0V512H640V0Z" fill="white"/>
</mask>
<g mask="url(#mask7_3932_41256)">
<mask id="mask8_3932_41256" style="mask-type:luminance" maskUnits="userSpaceOnUse" x="0" y="0" width="640" height="512">
<path d="M640 0H0V512H640V0Z" fill="white"/>
</mask>
<g mask="url(#mask8_3932_41256)">
<mask id="mask9_3932_41256" style="mask-type:luminance" maskUnits="userSpaceOnUse" x="0" y="0" width="640" height="512">
<path d="M640 0H0V512H640V0Z" fill="white"/>
</mask>
<g mask="url(#mask9_3932_41256)">
<mask id="mask10_3932_41256" style="mask-type:luminance" maskUnits="userSpaceOnUse" x="0" y="0" width="640" height="512">
<path d="M640 0H0V512H640V0Z" fill="white"/>
</mask>
<g mask="url(#mask10_3932_41256)">
<mask id="mask11_3932_41256" style="mask-type:luminance" maskUnits="userSpaceOnUse" x="0" y="0" width="640" height="512">
<path d="M640 0H0V512H640V0Z" fill="white"/>
</mask>
<g mask="url(#mask11_3932_41256)">
<mask id="mask12_3932_41256" style="mask-type:luminance" maskUnits="userSpaceOnUse" x="0" y="0" width="640" height="512">
<path d="M640 0H0V512H640V0Z" fill="white"/>
</mask>
<g mask="url(#mask12_3932_41256)">
<mask id="mask13_3932_41256" style="mask-type:luminance" maskUnits="userSpaceOnUse" x="0" y="0" width="640" height="512">
<path d="M640 0H0V512H640V0Z" fill="white"/>
</mask>
<g mask="url(#mask13_3932_41256)">
<path d="M353.8 54.0989L330.2 6.29894C326.3 -2.00106 314.1 -2.30106 309.8 6.29894L286.2 54.0989L233.9 61.5989C224.6 62.9989 220.6 74.4989 227.5 81.3989L265.5 118.399L256.5 170.499C255.1 179.799 264.7 186.999 273.3 182.699L320.2 157.899L366.8 182.299C375.4 186.599 385.1 179.399 383.6 170.099L374.6 117.999L412.6 81.3989C419.4 74.5989 415.5 63.0989 406.2 61.5989L353.9 54.0989H353.8ZM256 255.999C238.3 255.999 224 270.299 224 287.999V479.999C224 497.699 238.3 511.999 256 511.999H384C401.7 511.999 416 497.699 416 479.999V287.999C416 270.299 401.7 255.999 384 255.999H256ZM32 319.999C14.3 319.999 0 334.299 0 351.999V479.999C0 497.699 14.3 511.999 32 511.999H160C177.7 511.999 192 497.699 192 479.999V351.999C192 334.299 177.7 319.999 160 319.999H32ZM448 415.999V479.999C448 497.699 462.3 511.999 480 511.999H608C625.7 511.999 640 497.699 640 479.999V415.999C640 398.299 625.7 383.999 608 383.999H480C462.3 383.999 448 398.299 448 415.999Z" fill="black"/>
</g>
</g>
</g>
</g>
</g>
</g>
</g>
</g>
</g>
</g>
</g>
</g>
</g>
</g>
</g>
<defs>
<clipPath id="clip0_3932_41256">
<rect width="640" height="512" fill="white"/>
</clipPath>
</defs>
</svg>
