<svg width="512" height="512" viewBox="0 0 512 512" fill="none" xmlns="http://www.w3.org/2000/svg">
<path d="M418.2 177.203C412.8 175.403 407.4 173.703 402 172.103C402.9 168.403 403.7 164.703 404.5 161.003C416.8 101.403 408.7 53.5031 381.4 37.7031C355.1 22.6031 312.2 38.3031 268.8 76.1031C264.5 79.8031 260.3 83.7031 256.3 87.6031C253.6 85.0031 250.8 82.4031 248 79.9031C202.5 39.5031 156.9 22.5031 129.6 38.4031C103.4 53.6031 95.6 98.7031 106.6 155.103C107.7 160.703 108.9 166.203 110.3 171.803C103.9 173.603 97.6 175.603 91.7 177.703C38.3 196.203 0 225.403 0 255.603C0 286.803 40.8 318.103 96.3 337.103C100.8 338.603 105.3 340.103 109.9 341.403C108.4 347.403 107.1 353.303 105.9 359.403C95.4 414.903 103.6 458.903 129.8 474.003C156.8 489.603 202.2 473.603 246.4 434.903C249.9 431.803 253.4 428.603 256.9 425.203C261.3 429.503 265.9 433.603 270.5 437.603C313.3 474.403 355.6 489.303 381.7 474.203C408.7 458.603 417.5 411.303 406.1 353.703C405.2 349.303 404.2 344.803 403.1 340.203C406.3 339.303 409.4 338.303 412.5 337.303C470.2 318.203 512 287.303 512 255.603C512 225.303 472.6 195.903 418.2 177.203ZM282.9 92.3031C320.1 59.9031 354.8 47.2031 370.6 56.3031C387.5 66.0031 394 105.203 383.4 156.703C382.7 160.103 382 163.403 381.1 166.703C358.9 161.703 336.4 158.103 313.8 156.103C300.8 137.503 286.6 119.703 271.2 103.003C275.1 99.3031 278.9 95.8031 282.9 92.3031ZM167.2 307.503C172.3 316.203 177.5 324.903 183 333.403C167.4 331.703 151.9 329.203 136.6 325.903C141 311.503 146.5 296.603 152.9 281.403C157.5 290.203 162.2 298.903 167.2 307.503ZM136.9 187.203C151.3 184.003 166.6 181.403 182.5 179.403C177.2 187.703 172 196.203 167.1 204.803C162.2 213.303 157.4 222.003 152.9 230.803C146.6 215.903 141.3 201.303 136.9 187.203ZM164.3 256.103C170.9 242.303 178.1 228.803 185.7 215.503C193.3 202.203 201.5 189.303 210.1 176.603C225.1 175.503 240.4 174.903 256 174.903C271.6 174.903 287 175.503 301.9 176.603C310.4 189.203 318.5 202.103 326.2 215.303C333.9 228.503 341.1 242.003 347.9 255.703C341.2 269.503 334 283.103 326.3 296.503C318.7 309.803 310.6 322.703 302.1 335.503C287.2 336.603 271.7 337.103 256 337.103C240.3 337.103 225.1 336.603 210.4 335.703C201.7 323.003 193.5 310.003 185.8 296.703C178.1 283.403 171 269.903 164.3 256.103ZM344.9 307.303C350 298.503 354.8 289.603 359.5 280.603C365.9 295.103 371.5 309.803 376.4 324.903C360.9 328.403 345.2 331.103 329.4 332.903C334.8 324.503 339.9 315.903 344.9 307.303ZM359.3 230.803C354.6 222.003 349.8 213.203 344.8 204.603C339.9 196.103 334.8 187.703 329.5 179.403C345.6 181.403 361 184.103 375.4 187.403C370.8 202.203 365.4 216.603 359.3 230.803ZM256.2 118.303C266.7 129.703 276.6 141.703 285.8 154.103C266 153.203 246.1 153.203 226.3 154.103C236.1 141.203 246.2 129.203 256.2 118.303ZM140.2 57.0031C157 47.2031 194.3 61.2031 233.6 96.0031C236.1 98.2031 238.6 100.603 241.2 103.003C225.7 119.703 211.4 137.503 198.3 156.103C175.7 158.103 153.3 161.603 131.1 166.503C129.8 161.403 128.7 156.203 127.6 151.003C118.2 102.603 124.4 66.1031 140.2 57.0031ZM115.7 320.603C111.5 319.403 107.4 318.103 103.3 316.703C82 310.003 57.8 299.403 40.3 285.503C30.2 278.503 23.4 267.703 21.5 255.603C21.5 237.303 53.1 213.903 98.7 198.003C104.4 196.003 110.2 194.203 116 192.503C122.8 214.203 131 235.503 140.5 256.103C130.9 277.003 122.6 298.603 115.7 320.603ZM232.3 418.603C215.8 433.703 196.7 445.703 175.9 453.903C164.8 459.203 152 459.703 140.6 455.203C124.7 446.003 118.1 410.703 127.1 363.203C128.2 357.603 129.4 352.003 130.8 346.503C153.2 351.303 175.8 354.603 198.7 356.303C211.9 375.003 226.4 392.903 241.9 409.703C238.7 412.803 235.5 415.803 232.3 418.603ZM256.8 394.303C246.6 383.303 236.4 371.103 226.5 358.003C236.1 358.403 246 358.603 256 358.603C266.3 358.603 276.4 358.403 286.4 357.903C277.2 370.603 267.3 382.703 256.8 394.303ZM387.5 424.303C386.6 436.503 380.6 447.903 371 455.603C355.1 464.803 321.2 452.803 284.6 421.403C280.4 417.803 276.2 413.903 271.9 409.903C287.2 393.003 301.3 375.103 314.1 356.303C337 354.403 359.8 350.903 382.3 345.803C383.3 349.903 384.2 354.003 385 358.003C389.9 379.603 390.7 402.103 387.5 424.303ZM405.7 316.803C402.9 317.703 400.1 318.603 397.2 319.403C390.2 297.603 381.6 276.303 371.7 255.603C381.3 235.203 389.4 214.203 396.2 192.703C401.4 194.203 406.4 195.803 411.2 197.403C457.8 213.403 490.5 237.203 490.5 255.403C490.5 275.003 455.6 300.303 405.7 316.803ZM256 301.803C281.3 301.803 301.8 281.303 301.8 256.003C301.8 230.703 281.3 210.203 256 210.203C230.7 210.203 210.2 230.703 210.2 256.003C210.2 281.303 230.7 301.803 256 301.803Z" fill="black"/>
</svg>
