<svg width="576" height="512" viewBox="0 0 576 512" fill="none" xmlns="http://www.w3.org/2000/svg">
<g clip-path="url(#clip0_3932_41376)">
<mask id="mask0_3932_41376" style="mask-type:luminance" maskUnits="userSpaceOnUse" x="0" y="0" width="576" height="512">
<path d="M576 0H0V512H576V0Z" fill="white"/>
</mask>
<g mask="url(#mask0_3932_41376)">
<mask id="mask1_3932_41376" style="mask-type:luminance" maskUnits="userSpaceOnUse" x="0" y="0" width="576" height="512">
<path d="M576 0H0V512H576V0Z" fill="white"/>
</mask>
<g mask="url(#mask1_3932_41376)">
<mask id="mask2_3932_41376" style="mask-type:luminance" maskUnits="userSpaceOnUse" x="0" y="0" width="576" height="512">
<path d="M576 0H0V512H576V0Z" fill="white"/>
</mask>
<g mask="url(#mask2_3932_41376)">
<mask id="mask3_3932_41376" style="mask-type:luminance" maskUnits="userSpaceOnUse" x="0" y="0" width="576" height="512">
<path d="M576 0H0V512H576V0Z" fill="white"/>
</mask>
<g mask="url(#mask3_3932_41376)">
<mask id="mask4_3932_41376" style="mask-type:luminance" maskUnits="userSpaceOnUse" x="0" y="0" width="576" height="512">
<path d="M576 0H0V512H576V0Z" fill="white"/>
</mask>
<g mask="url(#mask4_3932_41376)">
<mask id="mask5_3932_41376" style="mask-type:luminance" maskUnits="userSpaceOnUse" x="0" y="0" width="576" height="512">
<path d="M576 0H0V512H576V0Z" fill="white"/>
</mask>
<g mask="url(#mask5_3932_41376)">
<mask id="mask6_3932_41376" style="mask-type:luminance" maskUnits="userSpaceOnUse" x="0" y="0" width="576" height="512">
<path d="M576 0H0V512H576V0Z" fill="white"/>
</mask>
<g mask="url(#mask6_3932_41376)">
<mask id="mask7_3932_41376" style="mask-type:luminance" maskUnits="userSpaceOnUse" x="0" y="0" width="576" height="512">
<path d="M576 0H0V512H576V0Z" fill="white"/>
</mask>
<g mask="url(#mask7_3932_41376)">
<mask id="mask8_3932_41376" style="mask-type:luminance" maskUnits="userSpaceOnUse" x="0" y="0" width="576" height="512">
<path d="M576 0H0V512H576V0Z" fill="white"/>
</mask>
<g mask="url(#mask8_3932_41376)">
<mask id="mask9_3932_41376" style="mask-type:luminance" maskUnits="userSpaceOnUse" x="0" y="0" width="576" height="512">
<path d="M576 0H0V512H576V0Z" fill="white"/>
</mask>
<g mask="url(#mask9_3932_41376)">
<mask id="mask10_3932_41376" style="mask-type:luminance" maskUnits="userSpaceOnUse" x="0" y="0" width="576" height="512">
<path d="M576 0H0V512H576V0Z" fill="white"/>
</mask>
<g mask="url(#mask10_3932_41376)">
<mask id="mask11_3932_41376" style="mask-type:luminance" maskUnits="userSpaceOnUse" x="0" y="0" width="576" height="512">
<path d="M576 0H0V512H576V0Z" fill="white"/>
</mask>
<g mask="url(#mask11_3932_41376)">
<mask id="mask12_3932_41376" style="mask-type:luminance" maskUnits="userSpaceOnUse" x="0" y="0" width="576" height="512">
<path d="M576 0H0V512H576V0Z" fill="white"/>
</mask>
<g mask="url(#mask12_3932_41376)">
<mask id="mask13_3932_41376" style="mask-type:luminance" maskUnits="userSpaceOnUse" x="0" y="0" width="576" height="512">
<path d="M576 0H0V512H576V0Z" fill="white"/>
</mask>
<g mask="url(#mask13_3932_41376)">
<path d="M250.602 211.742L256.402 207.642L262.202 211.742L260.102 204.942L265.802 200.642L258.702 200.542L256.402 193.742L254.102 200.542L246.902 200.642L252.602 204.942L250.602 211.742ZM314.302 211.742L320.102 207.642L325.902 211.742L323.802 204.942L329.502 200.642L322.302 200.542L320.002 193.742L317.702 200.542L310.502 200.642L316.202 204.942L314.302 211.742ZM223.002 262.242H219.602C214.802 262.242 215.802 266.242 215.802 274.342C215.802 279.042 213.502 280.442 210.002 280.442C206.502 280.442 204.202 279.042 204.202 274.342V237.742C204.202 233.042 206.502 231.642 210.002 231.642C213.502 231.642 215.802 233.042 215.802 237.742C215.802 244.942 215.102 248.242 219.602 248.242H223.002C227.702 248.142 226.802 244.342 226.802 235.942C226.802 226.042 220.102 221.842 210.002 221.842H209.802C199.702 221.842 193.002 226.042 193.002 235.942V276.002C193.002 286.402 199.702 290.102 209.802 290.102H210.002C220.102 290.102 226.802 286.302 226.802 276.002C226.802 266.142 227.902 262.242 223.002 262.242ZM142.302 279.642H127.602V260.342H139.002C141.502 260.342 142.802 259.042 142.802 256.542V254.442C142.802 251.942 141.502 250.642 139.002 250.642H127.602V232.342H142.002C144.502 232.342 145.802 231.042 145.802 228.542V226.442C145.802 223.942 144.502 222.642 142.002 222.642H120.302C117.902 222.542 116.602 223.942 116.602 226.442V285.542C116.602 288.042 117.902 289.342 120.402 289.342H142.302C144.802 289.342 146.102 288.042 146.102 285.542V283.442C146.102 280.942 144.802 279.642 142.302 279.642ZM100.302 261.142C104.902 259.142 107.602 255.142 107.602 248.742V236.842C107.602 226.742 100.902 222.742 90.8024 222.742H77.4024C74.9024 222.742 73.6024 224.042 73.6024 226.542V285.642C73.6024 288.142 74.9024 289.442 77.4024 289.442H80.8024C83.3024 289.442 84.6024 288.142 84.6024 285.642V262.742H90.2024L97.6024 286.242C97.8158 287.202 98.3676 288.054 99.157 288.642C99.9465 289.229 100.921 289.513 101.902 289.442H105.202C108.002 289.442 109.202 287.642 108.402 285.042L100.302 261.142ZM96.5024 247.142C96.5024 251.942 94.0024 253.242 90.4024 253.242H84.6024V232.342H90.4024C94.0024 232.342 96.5024 233.642 96.5024 238.442V247.142ZM176.002 226.002C175.95 225.503 175.8 225.019 175.56 224.578C175.321 224.137 174.997 223.747 174.607 223.432C174.217 223.116 173.768 222.88 173.287 222.738C172.806 222.595 172.301 222.549 171.802 222.602H164.902C164.416 222.558 163.925 222.612 163.459 222.76C162.993 222.907 162.562 223.147 162.189 223.463C161.817 223.78 161.512 224.167 161.291 224.603C161.07 225.039 160.938 225.514 160.902 226.002L149.902 285.202C149.402 287.902 150.802 289.302 153.302 289.302H156.302C156.803 289.351 157.309 289.299 157.789 289.148C158.27 288.997 158.714 288.751 159.097 288.424C159.48 288.098 159.793 287.697 160.017 287.246C160.242 286.796 160.372 286.304 160.402 285.802L162.202 274.502H174.402L176.202 285.802C176.232 286.304 176.363 286.796 176.588 287.246C176.812 287.697 177.125 288.098 177.508 288.424C177.89 288.751 178.335 288.997 178.815 289.148C179.296 289.299 179.801 289.351 180.302 289.302H183.802C186.402 289.302 187.702 287.902 187.202 285.202L176.002 226.002ZM163.702 265.302L168.402 235.602L173.102 265.302H163.702ZM253.002 285.502V232.302H260.502C263.002 232.302 264.302 231.002 264.302 228.502V226.402C264.302 223.902 263.002 222.602 260.502 222.602H234.702C232.202 222.602 230.902 223.902 230.902 226.402V228.502C230.902 231.002 232.202 232.302 234.702 232.302H242.002V285.502C242.002 288.002 243.302 289.302 245.802 289.302H249.202C251.702 289.342 253.002 288.002 253.002 285.542V285.502ZM501.002 284.702H481.602V258.002H497.702C497.969 258.018 498.236 257.977 498.486 257.882C498.736 257.787 498.963 257.641 499.152 257.452C499.341 257.263 499.488 257.036 499.583 256.786C499.678 256.536 499.718 256.269 499.702 256.002V255.202C499.718 254.935 499.678 254.668 499.583 254.418C499.488 254.168 499.341 253.941 499.152 253.752C498.963 253.563 498.736 253.416 498.486 253.321C498.236 253.227 497.969 253.186 497.702 253.202H481.602V227.402H500.702C500.969 227.418 501.236 227.377 501.486 227.282C501.736 227.187 501.963 227.041 502.152 226.852C502.341 226.663 502.488 226.436 502.583 226.186C502.678 225.936 502.718 225.669 502.702 225.402V224.602C502.724 224.338 502.687 224.073 502.592 223.825C502.498 223.578 502.349 223.355 502.157 223.173C501.966 222.991 501.735 222.854 501.483 222.772C501.232 222.691 500.965 222.667 500.702 222.702H478.502C478.245 222.637 477.975 222.636 477.717 222.7C477.458 222.764 477.22 222.891 477.022 223.068C476.825 223.246 476.674 223.47 476.583 223.72C476.492 223.97 476.465 224.239 476.502 224.502V287.502C476.488 287.764 476.53 288.026 476.627 288.27C476.724 288.514 476.873 288.734 477.063 288.914C477.253 289.095 477.48 289.232 477.729 289.317C477.978 289.401 478.241 289.43 478.502 289.402H501.002C501.263 289.43 501.527 289.401 501.776 289.317C502.024 289.232 502.252 289.095 502.442 288.914C502.632 288.734 502.781 288.514 502.878 288.27C502.974 288.026 503.017 287.764 503.002 287.502V286.702C503.021 286.436 502.981 286.17 502.887 285.921C502.792 285.672 502.645 285.447 502.455 285.26C502.264 285.074 502.036 284.931 501.785 284.842C501.535 284.752 501.268 284.718 501.002 284.742V284.702ZM407.902 221.802H407.102C397.002 221.802 391.802 226.502 391.802 235.902V276.002C391.802 285.302 397.002 290.102 407.102 290.102H407.902C418.002 290.102 423.202 285.302 423.202 276.002V235.902C423.202 226.542 418.002 221.842 407.902 221.842V221.802ZM418.102 274.202C418.002 282.202 415.102 285.302 407.602 285.302C400.102 285.302 397.102 282.202 397.102 274.202V237.602C397.102 229.702 400.102 226.502 407.602 226.502C415.102 226.502 418.102 229.702 418.102 237.602V274.202ZM371.602 259.702C377.702 258.102 380.802 253.602 380.802 246.402V236.702C380.802 227.302 375.602 222.602 365.502 222.602H351.802C351.541 222.574 351.278 222.603 351.029 222.687C350.78 222.771 350.553 222.909 350.363 223.089C350.173 223.27 350.024 223.49 349.927 223.734C349.83 223.978 349.788 224.24 349.802 224.502V287.502C349.788 287.764 349.83 288.026 349.927 288.27C350.024 288.514 350.173 288.734 350.363 288.914C350.553 289.095 350.78 289.232 351.029 289.317C351.278 289.401 351.541 289.43 351.802 289.402H353.002C353.258 289.427 353.516 289.395 353.758 289.308C354 289.221 354.219 289.082 354.401 288.9C354.583 288.719 354.722 288.499 354.808 288.257C354.895 288.016 354.927 287.758 354.902 287.502V260.602H366.502L376.902 287.802C377.076 288.264 377.393 288.659 377.807 288.929C378.22 289.198 378.709 289.329 379.202 289.302H380.702C382.102 289.302 382.702 288.302 382.202 287.002L371.602 259.702ZM365.202 255.802H355.002V227.302H365.202C372.702 227.302 375.702 230.402 375.702 238.402V244.802C375.702 252.642 372.702 255.842 365.202 255.842V255.802ZM451.102 222.702H437.402C437.145 222.637 436.875 222.636 436.617 222.7C436.358 222.764 436.12 222.891 435.922 223.068C435.725 223.246 435.574 223.47 435.483 223.72C435.392 223.97 435.365 224.239 435.402 224.502V287.502C435.388 287.764 435.43 288.026 435.527 288.27C435.624 288.514 435.773 288.734 435.963 288.914C436.153 289.095 436.38 289.232 436.629 289.317C436.878 289.401 437.141 289.43 437.402 289.402H438.602C438.858 289.427 439.116 289.395 439.358 289.308C439.6 289.221 439.819 289.082 440.001 288.9C440.183 288.719 440.322 288.499 440.408 288.257C440.495 288.016 440.527 287.758 440.502 287.502V261.402H451.102C461.202 261.402 466.402 256.602 466.402 247.302V236.802C466.402 227.402 461.202 222.702 451.102 222.702ZM461.302 245.502C461.302 253.402 458.302 256.602 450.802 256.602H440.602V227.402H450.802C458.302 227.302 461.302 230.502 461.302 238.402V245.502ZM259.502 308.002L257.202 301.202L254.902 308.002L247.802 308.102L253.502 312.402L251.402 319.202L257.202 315.102L263.002 319.202L260.902 312.402L266.602 308.102L259.502 308.002ZM487.102 171.902C475.437 167.529 463.554 163.758 451.502 160.602C471.102 82.6023 463.102 25.9023 429.202 6.70229C394.702 -12.6577 343.302 11.0023 291.002 61.9423C294.402 65.2423 297.802 68.6423 301.202 72.1423C383.702 -7.8577 420.802 18.6423 422.102 19.3423C444.502 32.0423 458.102 75.1423 437.602 157.142C409.756 150.758 381.481 146.414 353.002 144.142C281.102 43.6423 212.402 2.00229 170.802 2.00229C140.002 2.00229 127.002 23.0023 123.202 29.7423C105.102 61.7423 109.902 113.942 123.302 163.542C52.8024 183.842 2.60237 217.642 3.00237 258.542C3.50237 318.142 106.202 346.342 125.102 351.342C104.602 433.242 115.002 486.942 147.402 505.242C175.402 521.042 222.502 511.242 285.602 450.042C282.202 446.742 278.802 443.342 275.402 439.842C192.902 519.842 155.702 493.342 154.502 492.642C132.202 480.042 118.502 437.042 139.002 354.742C151.402 357.642 180.802 364.242 223.602 367.742C295.502 468.142 364.202 509.742 405.702 509.742C436.502 509.742 449.502 488.742 453.302 482.042C471.302 450.142 466.602 397.942 453.202 348.242C605.502 304.442 609.402 218.042 487.102 171.942V171.902ZM135.902 36.8423C138.802 31.7423 147.802 16.5423 170.802 16.5423C207.602 16.5423 269.602 56.1423 334.102 142.742C302.817 140.981 271.449 141.282 240.202 143.642C253.182 125.327 267.275 107.827 282.402 91.2423C279.002 87.7489 275.602 84.3356 272.202 81.0023C253.857 101.22 236.918 122.67 221.502 145.202C193.043 147.944 164.829 152.824 137.102 159.802C136.902 158.402 112.802 77.6023 135.902 36.8023V36.8423ZM440.702 475.142C437.802 480.242 428.902 495.442 405.802 495.442C369.102 495.442 307.102 456.042 242.502 369.242C273.787 371.058 305.158 370.757 336.402 368.342C323.423 386.657 309.329 404.156 294.202 420.742C297.602 424.242 301.002 427.642 304.402 430.942C322.771 410.744 339.712 389.292 355.102 366.742C402.402 362.042 435.402 353.242 439.502 352.142C462.202 436.542 444.002 469.142 440.702 475.142ZM449.802 336.542C446.202 324.642 442.102 312.442 437.402 300.142C435.285 300.162 433.196 299.65 431.326 298.655C429.457 297.659 427.867 296.211 426.702 294.442L426.602 294.542C425.015 296.033 423.19 297.25 421.202 298.142C426.902 312.442 431.802 326.542 435.902 340.342C412.227 346.312 388.171 350.656 363.902 353.342C367.402 348.042 381.102 327.142 396.102 299.142C393.964 298.358 391.945 297.281 390.102 295.942C389.002 297.142 386.502 300.142 379.202 300.142C373.002 311.342 361.802 331.042 345.302 355.342C307.921 358.637 270.337 358.971 232.902 356.342C225.002 345.142 211.402 325.242 196.102 298.542C195.064 298.123 194.061 297.621 193.102 297.042C191.202 298.642 189.202 300.242 180.502 300.242C186.802 311.442 198.002 330.942 214.302 354.842C190.002 352.552 165.882 348.643 142.102 343.142C146.002 329.142 150.702 314.842 156.202 300.242C153.002 300.242 150.802 300.442 147.802 299.242C145.592 300.032 143.246 300.373 140.902 300.242C136.002 313.642 131.802 326.742 128.202 339.642C-31.6976 297.002 -12.0976 216.002 126.702 175.642C130.302 187.542 134.402 199.742 139.102 212.042C149.502 212.042 152.002 215.442 153.502 217.342C154.168 216.51 154.941 215.77 155.802 215.142C150.002 200.442 144.902 185.942 140.602 171.842C147.602 170.042 173.002 163.442 212.602 158.842C196.702 183.142 185.902 202.742 179.802 214.142C182.856 215.921 185.137 218.773 186.202 222.142C188.726 218.421 192.267 215.505 196.402 213.742C202.902 202.042 214.302 181.842 231.202 156.842C268.584 153.546 306.168 153.211 343.602 155.842C375.102 200.442 372.502 203.942 386.102 220.342C388.736 216.876 392.364 214.294 396.502 212.942C390.102 201.542 378.902 181.942 362.202 157.442C402.602 161.542 427.202 167.442 434.402 169.142C430.402 183.542 425.502 198.342 419.802 213.342C422.328 214.318 424.638 215.778 426.602 217.642L426.702 217.742C427.701 216.228 429.012 214.945 430.547 213.979C432.082 213.013 433.805 212.387 435.602 212.142C440.502 198.742 444.802 185.542 448.402 172.642C460.08 175.727 471.594 179.398 482.902 183.642C589.002 223.542 556.902 271.542 555.502 274.042C535.702 309.142 475.402 329.242 449.802 336.542ZM335.402 222.542H334.202C333.947 222.517 333.689 222.549 333.447 222.636C333.205 222.723 332.986 222.862 332.804 223.043C332.622 223.225 332.483 223.445 332.396 223.686C332.31 223.928 332.278 224.186 332.302 224.442V274.242C332.302 282.142 329.702 285.342 322.202 285.342C314.702 285.342 312.102 282.242 312.102 274.242V224.442C312.137 224.184 312.112 223.922 312.028 223.676C311.945 223.429 311.806 223.206 311.622 223.022C311.439 222.838 311.215 222.699 310.969 222.616C310.722 222.533 310.46 222.507 310.202 222.542H309.002C308.741 222.514 308.478 222.543 308.229 222.627C307.98 222.711 307.753 222.849 307.563 223.029C307.373 223.21 307.224 223.43 307.127 223.674C307.03 223.918 306.988 224.18 307.002 224.442V275.942C307.002 285.542 312.002 290.042 322.102 290.042H322.502C332.602 290.042 337.602 285.442 337.602 275.942V224.442C337.59 224.17 337.523 223.904 337.404 223.659C337.285 223.414 337.118 223.196 336.912 223.018C336.706 222.84 336.466 222.706 336.206 222.624C335.947 222.542 335.673 222.514 335.402 222.542ZM321.702 308.002L319.402 301.202L317.102 308.002L310.002 308.102L315.702 312.402L313.602 319.202L319.402 315.102L325.202 319.202L323.102 312.402L328.802 308.102L321.702 308.002ZM290.602 315.402L288.302 308.602L286.002 315.402L278.902 315.502L284.602 319.802L282.502 326.602L288.302 322.502L294.102 326.602L292.002 319.802L297.702 315.502L290.602 315.402ZM295.702 284.602H276.302V257.902H292.402C292.669 257.918 292.936 257.877 293.186 257.782C293.436 257.687 293.663 257.541 293.852 257.352C294.041 257.163 294.188 256.936 294.283 256.686C294.378 256.436 294.418 256.169 294.402 255.902V255.102C294.418 254.835 294.378 254.568 294.283 254.318C294.188 254.068 294.041 253.841 293.852 253.652C293.663 253.463 293.436 253.316 293.186 253.221C292.936 253.127 292.669 253.086 292.402 253.102H276.302V227.302H295.402C295.669 227.318 295.936 227.277 296.186 227.182C296.436 227.087 296.663 226.941 296.852 226.752C297.041 226.563 297.188 226.336 297.283 226.086C297.378 225.836 297.418 225.569 297.402 225.302V224.502C297.424 224.238 297.387 223.973 297.292 223.725C297.198 223.478 297.049 223.255 296.857 223.073C296.666 222.891 296.435 222.754 296.183 222.672C295.932 222.591 295.665 222.567 295.402 222.602H273.202C272.941 222.574 272.678 222.603 272.429 222.687C272.181 222.771 271.953 222.909 271.763 223.089C271.573 223.27 271.424 223.49 271.327 223.734C271.23 223.978 271.188 224.24 271.202 224.502V287.502C271.188 287.764 271.23 288.026 271.327 288.27C271.424 288.514 271.573 288.734 271.763 288.914C271.953 289.095 272.181 289.232 272.429 289.317C272.678 289.401 272.941 289.43 273.202 289.402H295.702C295.965 289.437 296.232 289.413 296.483 289.332C296.735 289.25 296.966 289.113 297.157 288.931C297.349 288.749 297.498 288.526 297.592 288.278C297.687 288.031 297.724 287.766 297.702 287.502V286.702C297.739 286.428 297.712 286.149 297.625 285.887C297.539 285.625 297.394 285.386 297.201 285.188C297.009 284.989 296.774 284.837 296.514 284.743C296.255 284.648 295.977 284.614 295.702 284.642V284.602ZM288.302 185.202L286.002 192.002L278.902 192.102L284.602 196.402L282.502 203.202L288.302 199.102L294.102 203.202L292.002 196.402L297.702 192.102L290.602 192.002L288.302 185.202Z" fill="black"/>
</g>
</g>
</g>
</g>
</g>
</g>
</g>
</g>
</g>
</g>
</g>
</g>
</g>
</g>
</g>
<defs>
<clipPath id="clip0_3932_41376">
<rect width="576" height="512" fill="white"/>
</clipPath>
</defs>
</svg>
