<svg width="512" height="512" viewBox="0 0 512 512" fill="none" xmlns="http://www.w3.org/2000/svg">
<path d="M256.496 504C117.196 504 8.99604 387.8 13.1964 249.9C15.9964 170.7 56.3964 97.7 129.696 49.5C129.996 49.5 131.596 48.9 130.796 50.3C124.996 55.8 19.4964 180.1 116.696 276.7C166.496 326.2 206.696 279.2 206.696 279.2C245.196 229.1 206.096 153.3 206.096 153.3C196.096 128.4 160.396 113.2 160.396 113.2L189.196 81.4C213.596 91.9 232.396 120.1 232.396 120.1C233.196 90.5 210.496 58.7 210.496 58.7L255.096 8L299.396 58.1C278.896 86.9 277.496 120.7 277.496 120.7C291.296 97.7 320.996 81.4 320.996 81.4L349.496 113.2C322.096 122.1 304.096 153.1 304.096 153.1C288.296 181.6 276.996 242.5 304.696 280.4C337.096 325 392.396 277.6 392.396 277.6C495.096 185.7 381.896 52.6 381.896 52.6C375.796 47.1 382.696 49.8 382.696 49.8C432.796 86.3 497.296 134.2 498.896 254.6C500.896 400.2 398.996 504 256.496 504Z" fill="black"/>
</svg>
