<svg width="576" height="512" viewBox="0 0 576 512" fill="none" xmlns="http://www.w3.org/2000/svg">
<path d="M64 80C55.2 80 48 87.2 48 96V416C48 424.8 55.2 432 64 432H512C520.8 432 528 424.8 528 416V96C528 87.2 520.8 80 512 80H64ZM0 96C0 60.7 28.7 32 64 32H512C547.3 32 576 60.7 576 96V416C576 451.3 547.3 480 512 480H64C28.7 480 0 451.3 0 416V96ZM96 160C96 151.513 99.3714 143.374 105.373 137.373C111.374 131.371 119.513 128 128 128C136.487 128 144.626 131.371 150.627 137.373C156.629 143.374 160 151.513 160 160C160 168.487 156.629 176.626 150.627 182.627C144.626 188.629 136.487 192 128 192C119.513 192 111.374 188.629 105.373 182.627C99.3714 176.626 96 168.487 96 160ZM200 160C200 146.7 210.7 136 224 136H448C461.3 136 472 146.7 472 160C472 173.3 461.3 184 448 184H224C210.7 184 200 173.3 200 160ZM200 256C200 242.7 210.7 232 224 232H448C461.3 232 472 242.7 472 256C472 269.3 461.3 280 448 280H224C210.7 280 200 269.3 200 256ZM200 352C200 338.7 210.7 328 224 328H448C461.3 328 472 338.7 472 352C472 365.3 461.3 376 448 376H224C210.7 376 200 365.3 200 352ZM128 288C119.513 288 111.374 284.629 105.373 278.627C99.3714 272.626 96 264.487 96 256C96 247.513 99.3714 239.374 105.373 233.373C111.374 227.371 119.513 224 128 224C136.487 224 144.626 227.371 150.627 233.373C156.629 239.374 160 247.513 160 256C160 264.487 156.629 272.626 150.627 278.627C144.626 284.629 136.487 288 128 288ZM96 352C96 343.513 99.3714 335.374 105.373 329.373C111.374 323.371 119.513 320 128 320C136.487 320 144.626 323.371 150.627 329.373C156.629 335.374 160 343.513 160 352C160 360.487 156.629 368.626 150.627 374.627C144.626 380.629 136.487 384 128 384C119.513 384 111.374 380.629 105.373 374.627C99.3714 368.626 96 360.487 96 352Z" fill="black"/>
</svg>
