<svg width="512" height="512" viewBox="0 0 512 512" fill="none" xmlns="http://www.w3.org/2000/svg">
<path d="M341.52 285.557C375.17 285.557 423.86 278.617 423.86 238.557C424.08 231.817 424.72 236.737 402.98 142.317C398.36 123.167 394.3 114.477 360.67 97.6669C334.58 84.3269 277.75 62.2969 260.94 62.2969C245.28 62.2969 240.74 82.4669 222.07 82.4669C204.07 82.4669 190.76 67.4069 173.95 67.4069C157.81 67.4069 147.29 78.4069 139.17 101.027C111.67 178.577 112.89 175.297 113.05 179.297C113.05 204.097 210.69 285.407 341.52 285.407M429 254.837C433.65 276.837 433.65 279.187 433.65 282.087C433.65 319.747 391.32 340.647 335.65 340.647C209.91 340.727 99.74 266.997 99.74 218.317C99.7295 211.535 101.111 204.823 103.8 198.597C58.56 200.857 0 208.927 0 260.627C0 345.297 200.63 449.627 359.49 449.627C481.28 449.627 512 394.547 512 351.047C512 316.837 482.41 277.997 429.07 254.807" fill="black"/>
</svg>
