<svg width="512" height="512" viewBox="0 0 512 512" fill="none" xmlns="http://www.w3.org/2000/svg">
<path d="M205 34.7967C216.5 39.8967 224 51.3967 224 63.9967V127.997H336C433.2 127.997 512 206.797 512 303.997C512 417.297 430.5 467.897 411.8 478.097C409.3 479.497 406.5 479.997 403.7 479.997C392.8 479.997 384 471.097 384 460.297C384 452.797 388.3 445.897 393.8 440.797C403.2 431.997 416 414.397 416 384.097C416 331.097 373 288.097 320 288.097H224V352.097C224 364.697 216.6 376.197 205 381.297C193.4 386.397 180 384.297 170.6 375.897L10.6 231.897C3.9 225.697 0 217.097 0 207.997C0 198.897 3.9 190.297 10.6 184.197L170.6 40.1967C180 31.6967 193.5 29.5967 205 34.7967Z" fill="black"/>
</svg>
