<svg width="512" height="512" viewBox="0 0 512 512" fill="none" xmlns="http://www.w3.org/2000/svg">
<path d="M217.9 105.9L340.7 228.7C347.9 235.9 352 245.8 352 256C352 266.2 347.9 276.1 340.7 283.3L217.9 406.1C211.5 412.5 202.9 416 193.9 416C175.2 416 160 400.8 160 382.1V320H32C14.3 320 0 305.7 0 288V224C0 206.3 14.3 192 32 192H160V129.9C160 111.2 175.2 96 193.9 96C202.9 96 211.5 99.6 217.9 105.9ZM352 416H416C433.7 416 448 401.7 448 384V128C448 110.3 433.7 96 416 96H352C334.3 96 320 81.7 320 64C320 46.3 334.3 32 352 32H416C469 32 512 75 512 128V384C512 437 469 480 416 480H352C334.3 480 320 465.7 320 448C320 430.3 334.3 416 352 416Z" fill="black"/>
</svg>
