<svg width="512" height="512" viewBox="0 0 512 512" fill="none" xmlns="http://www.w3.org/2000/svg">
<path d="M334.5 413.997C343.3 417.797 353.5 415.997 360.5 409.397L504.5 273.397C509.3 268.897 512 262.597 512 255.997C512 249.397 509.3 243.097 504.5 238.597L360.5 102.597C353.5 95.9976 343.3 94.1976 334.5 97.9976C325.7 101.797 320 110.497 320 119.997V191.997H32C14.3 191.997 0 206.297 0 223.997V287.997C0 305.697 14.3 319.997 32 319.997H320V391.997C320 401.597 325.7 410.197 334.5 413.997Z" fill="black"/>
</svg>
