<svg width="512" height="512" viewBox="0 0 512 512" fill="none" xmlns="http://www.w3.org/2000/svg">
<path d="M64 208C64 215.8 68.4 226.7 81.1 238.3C126.5 214.1 188.9 200 256 200C323.1 200 385.5 214.1 430.9 238.3C443.6 226.7 448 215.8 448 208C448 195.7 437.2 176 400.1 157.4C364.9 139.8 314 128 256 128C198 128 147.1 139.8 111.9 157.4C74.8 176 64 195.7 64 208ZM256 248C209 248 166.7 255.6 133.1 267.7C166.3 280.2 208.8 288 256 288C303.2 288 345.7 280.2 378.9 267.7C345.3 255.6 303 248 256 248ZM0 208C0 158.4 39.4 122.2 83.3 100.2C129.1 77.3 190.3 64 256 64C321.7 64 382.9 77.3 428.7 100.2C472.6 122.2 512 158.4 512 208V304C512 353.6 472.6 389.8 428.7 411.8C382.9 434.7 321.7 448 256 448C190.3 448 129.1 434.7 83.3 411.8C39.4 389.8 0 353.6 0 304V208Z" fill="black"/>
</svg>
