<svg width="640" height="512" viewBox="0 0 640 512" fill="none" xmlns="http://www.w3.org/2000/svg">
<path d="M288 32H213.2C186.1 32 161.9 49.1 152.9 74.6L35.1 407.2C33 413.1 32 419.2 32 425.4C32 455.5 56.5 480 86.6 480H288V416C288 398.3 302.3 384 320 384C337.7 384 352 398.3 352 416V480H384V352C384 328.3 396.9 307.6 416 296.6V272C416 213.7 460.6 165.8 517.5 160.5L487.1 74.6C478 49.1 453.9 32 426.8 32H352V96C352 113.7 337.7 128 320 128C302.3 128 288 113.7 288 96V32ZM352 224V288C352 305.7 337.7 320 320 320C302.3 320 288 305.7 288 288V224C288 206.3 302.3 192 320 192C337.7 192 352 206.3 352 224ZM528 240C545.7 240 560 254.3 560 272V320H496V272C496 254.3 510.3 240 528 240ZM448 272V320C430.3 320 416 334.3 416 352V480C416 497.7 430.3 512 448 512H608C625.7 512 640 497.7 640 480V352C640 334.3 625.7 320 608 320V272C608 227.8 572.2 192 528 192C483.8 192 448 227.8 448 272Z" fill="black"/>
</svg>
