<svg width="640" height="512" viewBox="0 0 640 512" fill="none" xmlns="http://www.w3.org/2000/svg">
<path d="M32 32C14.3 32 0 46.3 0 64V448C0 465.7 14.3 480 32 480C49.7 480 64 465.7 64 448V266.3L149.2 96H64V64C64 46.3 49.7 32 32 32ZM405.2 96H330.8L325.4 106.7L234.8 288H309.1L314.5 277.3L405.2 96ZM362.8 288H437.1L442.5 277.3L533.2 96H458.8L453.4 106.7L362.8 288ZM202.8 96L197.4 106.7L106.8 288H181.1L186.5 277.3L277.2 96H202.8ZM490.8 288H576V448C576 465.7 590.3 480 608 480C625.7 480 640 465.7 640 448V64C640 46.3 625.7 32 608 32C590.3 32 576 46.3 576 64V117.7L490.8 288Z" fill="black"/>
</svg>
