<svg width="640" height="512" viewBox="0 0 640 512" fill="none" xmlns="http://www.w3.org/2000/svg">
<path d="M64 116.804C64 101.004 84.5 94.8034 93.3 107.904L192 256.004V116.804C192 101.004 212.5 94.8034 221.3 107.904L320 256.004V116.804C320 101.004 340.5 94.8034 349.3 107.904L448 256.004V116.804C448 101.004 468.5 94.8034 477.3 107.904L606.8 302.204C621 323.504 605.7 351.904 580.2 351.904H512H448H384H320H256H192H64V116.804ZM32 384.004H608C625.7 384.004 640 398.304 640 416.004C640 433.704 625.7 448.004 608 448.004H32C14.3 448.004 0 433.704 0 416.004C0 398.304 14.3 384.004 32 384.004Z" fill="black"/>
</svg>
