<svg width="640" height="512" viewBox="0 0 640 512" fill="none" xmlns="http://www.w3.org/2000/svg">
<g clip-path="url(#clip0_3932_42002)">
<mask id="mask0_3932_42002" style="mask-type:luminance" maskUnits="userSpaceOnUse" x="0" y="0" width="640" height="512">
<path d="M640 0H0V512H640V0Z" fill="white"/>
</mask>
<g mask="url(#mask0_3932_42002)">
<mask id="mask1_3932_42002" style="mask-type:luminance" maskUnits="userSpaceOnUse" x="0" y="0" width="640" height="512">
<path d="M640 0H0V512H640V0Z" fill="white"/>
</mask>
<g mask="url(#mask1_3932_42002)">
<mask id="mask2_3932_42002" style="mask-type:luminance" maskUnits="userSpaceOnUse" x="0" y="0" width="640" height="512">
<path d="M640 0H0V512H640V0Z" fill="white"/>
</mask>
<g mask="url(#mask2_3932_42002)">
<mask id="mask3_3932_42002" style="mask-type:luminance" maskUnits="userSpaceOnUse" x="0" y="0" width="640" height="512">
<path d="M640 0H0V512H640V0Z" fill="white"/>
</mask>
<g mask="url(#mask3_3932_42002)">
<mask id="mask4_3932_42002" style="mask-type:luminance" maskUnits="userSpaceOnUse" x="0" y="0" width="640" height="512">
<path d="M640 0H0V512H640V0Z" fill="white"/>
</mask>
<g mask="url(#mask4_3932_42002)">
<mask id="mask5_3932_42002" style="mask-type:luminance" maskUnits="userSpaceOnUse" x="0" y="0" width="640" height="512">
<path d="M640 0H0V512H640V0Z" fill="white"/>
</mask>
<g mask="url(#mask5_3932_42002)">
<mask id="mask6_3932_42002" style="mask-type:luminance" maskUnits="userSpaceOnUse" x="0" y="0" width="640" height="512">
<path d="M640 0H0V512H640V0Z" fill="white"/>
</mask>
<g mask="url(#mask6_3932_42002)">
<mask id="mask7_3932_42002" style="mask-type:luminance" maskUnits="userSpaceOnUse" x="0" y="0" width="640" height="512">
<path d="M640 0H0V512H640V0Z" fill="white"/>
</mask>
<g mask="url(#mask7_3932_42002)">
<mask id="mask8_3932_42002" style="mask-type:luminance" maskUnits="userSpaceOnUse" x="0" y="0" width="640" height="512">
<path d="M640 0H0V512H640V0Z" fill="white"/>
</mask>
<g mask="url(#mask8_3932_42002)">
<mask id="mask9_3932_42002" style="mask-type:luminance" maskUnits="userSpaceOnUse" x="0" y="0" width="640" height="512">
<path d="M640 0H0V512H640V0Z" fill="white"/>
</mask>
<g mask="url(#mask9_3932_42002)">
<mask id="mask10_3932_42002" style="mask-type:luminance" maskUnits="userSpaceOnUse" x="0" y="0" width="640" height="512">
<path d="M640 0H0V512H640V0Z" fill="white"/>
</mask>
<g mask="url(#mask10_3932_42002)">
<mask id="mask11_3932_42002" style="mask-type:luminance" maskUnits="userSpaceOnUse" x="0" y="0" width="640" height="512">
<path d="M640 0H0V512H640V0Z" fill="white"/>
</mask>
<g mask="url(#mask11_3932_42002)">
<mask id="mask12_3932_42002" style="mask-type:luminance" maskUnits="userSpaceOnUse" x="0" y="0" width="640" height="512">
<path d="M640 0H0V512H640V0Z" fill="white"/>
</mask>
<g mask="url(#mask12_3932_42002)">
<mask id="mask13_3932_42002" style="mask-type:luminance" maskUnits="userSpaceOnUse" x="0" y="0" width="640" height="512">
<path d="M640 0H0V512H640V0Z" fill="white"/>
</mask>
<g mask="url(#mask13_3932_42002)">
<path d="M352 0H608C625.7 0 640 14.3 640 32V480C640 497.7 625.7 512 608 512H352C334.3 512 320 497.7 320 480V32C320 14.3 334.3 0 352 0ZM480 200C466.7 200 456 210.7 456 224V288C456 301.3 466.7 312 480 312C493.3 312 504 301.3 504 288V224C504 210.7 493.3 200 480 200ZM504 384C504 370.7 493.3 360 480 360C466.7 360 456 370.7 456 384V448C456 461.3 466.7 472 480 472C493.3 472 504 461.3 504 448V384ZM480 40C466.7 40 456 50.7 456 64V128C456 141.3 466.7 152 480 152C493.3 152 504 141.3 504 128V64C504 50.7 493.3 40 480 40ZM32 96H288V160H248V224H288V320C235 320 192 363 192 416V480C192 497.7 177.7 512 160 512H128C110.3 512 96 497.7 96 480V416C96 363 53 320 0 320V224H72V160H32C14.3 160 0 145.7 0 128C0 110.3 14.3 96 32 96ZM200 160H120V224H200V160Z" fill="black"/>
</g>
</g>
</g>
</g>
</g>
</g>
</g>
</g>
</g>
</g>
</g>
</g>
</g>
</g>
</g>
<defs>
<clipPath id="clip0_3932_42002">
<rect width="640" height="512" fill="white"/>
</clipPath>
</defs>
</svg>
