<svg width="640" height="512" viewBox="0 0 640 512" fill="none" xmlns="http://www.w3.org/2000/svg">
<path d="M24 64H56H80V88V176V256V336V424V448H56H24C10.7 448 0 437.3 0 424C0 410.7 10.7 400 24 400H32V360H24C10.7 360 0 349.3 0 336C0 322.7 10.7 312 24 312H32V280H24C10.7 280 0 269.3 0 256C0 242.7 10.7 232 24 232H32V200H24C10.7 200 0 189.3 0 176C0 162.7 10.7 152 24 152H32V112H24C10.7 112 0 101.3 0 88C0 74.7 10.7 64 24 64ZM112 64H528V448H112V64ZM640 88C640 101.3 629.3 112 616 112H608V152H616C629.3 152 640 162.7 640 176C640 189.3 629.3 200 616 200H608V232H616C629.3 232 640 242.7 640 256C640 269.3 629.3 280 616 280H608V312H616C629.3 312 640 322.7 640 336C640 349.3 629.3 360 616 360H608V400H616C629.3 400 640 410.7 640 424C640 437.3 629.3 448 616 448H584H560V424V336V256V176V88V64H584H616C629.3 64 640 74.7 640 88Z" fill="black"/>
</svg>
