<svg width="512" height="512" viewBox="0 0 512 512" fill="none" xmlns="http://www.w3.org/2000/svg">
<path d="M177.9 494.102C159.2 512.802 128.8 512.802 110 494.102L17.9 401.902C-0.8 383.201 -0.8 352.801 17.9 334.002L68.6 283.301L116.6 331.301C122.8 337.502 133 337.502 139.2 331.301C145.4 325.101 145.4 314.902 139.2 308.702L91.2 260.702L132.6 219.302L180.6 267.301C186.8 273.502 197 273.502 203.2 267.301C209.4 261.101 209.4 250.902 203.2 244.702L155.2 196.702L196.6 155.302L244.6 203.302C250.8 209.502 261 209.502 267.2 203.302C273.4 197.102 273.4 186.902 267.2 180.702L219.2 132.702L260.6 91.3016L308.6 139.302C314.8 145.502 325 145.502 331.2 139.302C337.4 133.102 337.4 122.902 331.2 116.702L283.2 68.7016L333.9 18.0016C352.6 -0.69845 383 -0.69845 401.8 18.0016L493.9 110.102C512.6 128.802 512.6 159.202 493.9 178.002L177.9 494.102Z" fill="black"/>
</svg>
