<svg width="512" height="512" viewBox="0 0 512 512" fill="none" xmlns="http://www.w3.org/2000/svg">
<path d="M0 64C0 46.3 14.3 32 32 32H112C191.5 32 256 96.5 256 176C256 234.8 220.8 285.3 170.3 307.7L221.7 436.1C228.3 452.5 220.3 471.1 203.9 477.7C187.5 484.3 168.9 476.3 162.3 459.9L106.3 320H64V448C64 465.7 49.7 480 32 480C14.3 480 0 465.7 0 448V288V64ZM64 256H112C156.2 256 192 220.2 192 176C192 131.8 156.2 96 112 96H64V256ZM320 160H400C461.9 160 512 210.1 512 272C512 333.9 461.9 384 400 384H352V480C352 497.7 337.7 512 320 512C302.3 512 288 497.7 288 480V352V192C288 174.3 302.3 160 320 160ZM400 320C426.5 320 448 298.5 448 272C448 245.5 426.5 224 400 224H352V320H400Z" fill="black"/>
</svg>
