<svg width="512" height="512" viewBox="0 0 512 512" fill="none" xmlns="http://www.w3.org/2000/svg">
<g clip-path="url(#clip0_3932_42490)">
<mask id="mask0_3932_42490" style="mask-type:luminance" maskUnits="userSpaceOnUse" x="0" y="0" width="512" height="512">
<path d="M512 0H0V512H512V0Z" fill="white"/>
</mask>
<g mask="url(#mask0_3932_42490)">
<mask id="mask1_3932_42490" style="mask-type:luminance" maskUnits="userSpaceOnUse" x="0" y="0" width="512" height="512">
<path d="M512 0H0V512H512V0Z" fill="white"/>
</mask>
<g mask="url(#mask1_3932_42490)">
<mask id="mask2_3932_42490" style="mask-type:luminance" maskUnits="userSpaceOnUse" x="0" y="0" width="512" height="512">
<path d="M512 0H0V512H512V0Z" fill="white"/>
</mask>
<g mask="url(#mask2_3932_42490)">
<mask id="mask3_3932_42490" style="mask-type:luminance" maskUnits="userSpaceOnUse" x="0" y="0" width="512" height="512">
<path d="M512 0H0V512H512V0Z" fill="white"/>
</mask>
<g mask="url(#mask3_3932_42490)">
<mask id="mask4_3932_42490" style="mask-type:luminance" maskUnits="userSpaceOnUse" x="0" y="0" width="512" height="512">
<path d="M512 0H0V512H512V0Z" fill="white"/>
</mask>
<g mask="url(#mask4_3932_42490)">
<mask id="mask5_3932_42490" style="mask-type:luminance" maskUnits="userSpaceOnUse" x="0" y="0" width="512" height="512">
<path d="M512 0H0V512H512V0Z" fill="white"/>
</mask>
<g mask="url(#mask5_3932_42490)">
<mask id="mask6_3932_42490" style="mask-type:luminance" maskUnits="userSpaceOnUse" x="0" y="0" width="512" height="512">
<path d="M512 0H0V512H512V0Z" fill="white"/>
</mask>
<g mask="url(#mask6_3932_42490)">
<mask id="mask7_3932_42490" style="mask-type:luminance" maskUnits="userSpaceOnUse" x="0" y="0" width="512" height="512">
<path d="M512 0H0V512H512V0Z" fill="white"/>
</mask>
<g mask="url(#mask7_3932_42490)">
<mask id="mask8_3932_42490" style="mask-type:luminance" maskUnits="userSpaceOnUse" x="0" y="0" width="512" height="512">
<path d="M512 0H0V512H512V0Z" fill="white"/>
</mask>
<g mask="url(#mask8_3932_42490)">
<mask id="mask9_3932_42490" style="mask-type:luminance" maskUnits="userSpaceOnUse" x="0" y="0" width="512" height="512">
<path d="M512 0H0V512H512V0Z" fill="white"/>
</mask>
<g mask="url(#mask9_3932_42490)">
<mask id="mask10_3932_42490" style="mask-type:luminance" maskUnits="userSpaceOnUse" x="0" y="0" width="512" height="512">
<path d="M512 0H0V512H512V0Z" fill="white"/>
</mask>
<g mask="url(#mask10_3932_42490)">
<mask id="mask11_3932_42490" style="mask-type:luminance" maskUnits="userSpaceOnUse" x="0" y="0" width="512" height="512">
<path d="M512 0H0V512H512V0Z" fill="white"/>
</mask>
<g mask="url(#mask11_3932_42490)">
<mask id="mask12_3932_42490" style="mask-type:luminance" maskUnits="userSpaceOnUse" x="0" y="0" width="512" height="512">
<path d="M512 0H0V512H512V0Z" fill="white"/>
</mask>
<g mask="url(#mask12_3932_42490)">
<mask id="mask13_3932_42490" style="mask-type:luminance" maskUnits="userSpaceOnUse" x="0" y="0" width="512" height="512">
<path d="M512 0H0V512H512V0Z" fill="white"/>
</mask>
<g mask="url(#mask13_3932_42490)">
<path d="M508.522 249.752L486.702 236.242C486.532 234.242 486.362 232.312 486.152 230.362L504.872 212.862C505.786 212.008 506.466 210.935 506.849 209.744C507.232 208.554 507.304 207.285 507.06 206.058C506.816 204.832 506.262 203.688 505.453 202.735C504.643 201.782 503.603 201.051 502.432 200.612L478.432 191.612C477.892 189.732 477.352 187.832 476.762 185.972L491.762 165.142C492.492 164.126 492.95 162.94 493.093 161.697C493.236 160.454 493.059 159.195 492.579 158.039C492.1 156.883 491.333 155.869 490.352 155.093C489.37 154.316 488.207 153.803 486.972 153.602L461.552 149.452C460.652 147.722 459.762 146.002 458.822 144.302L469.502 120.882C470.021 119.743 470.24 118.489 470.138 117.241C470.037 115.993 469.618 114.792 468.922 113.751C468.226 112.71 467.275 111.865 466.16 111.294C465.046 110.724 463.804 110.448 462.552 110.492L436.732 111.402C435.539 109.922 434.336 108.456 433.122 107.002L439.002 81.8422C439.287 80.6236 439.256 79.3526 438.912 78.1493C438.569 76.946 437.924 75.8502 437.039 74.9654C436.154 74.0805 435.058 73.4359 433.855 73.0924C432.652 72.7489 431.381 72.7178 430.162 73.0022L405.002 78.9322C403.556 77.7122 402.089 76.5089 400.602 75.3222L401.512 49.5022C401.565 48.2467 401.296 46.9985 400.729 45.8769C400.163 44.7552 399.318 43.7976 398.276 43.0954C397.233 42.3933 396.029 41.9701 394.776 41.8662C393.524 41.7624 392.266 41.9813 391.122 42.5022L367.702 53.2322C366.002 52.2922 364.272 51.3922 362.552 50.5022L358.402 25.0822C358.201 23.8472 357.688 22.684 356.912 21.7028C356.135 20.7216 355.121 19.9548 353.966 19.4751C352.81 18.9954 351.551 18.8187 350.308 18.9617C349.065 19.1047 347.879 19.5627 346.862 20.2922L326.002 35.2622C324.142 34.6722 322.252 34.1322 320.362 33.5922L311.362 9.59218C310.923 8.42119 310.193 7.38161 309.24 6.57181C308.286 5.76202 307.143 5.20879 305.916 4.96449C304.69 4.72019 303.421 4.79289 302.23 5.17571C301.04 5.55853 299.967 6.23881 299.112 7.15218L281.612 25.8722C279.662 25.6622 277.702 25.4922 275.732 25.3222L262.252 3.48218C261.593 2.41745 260.673 1.53871 259.58 0.929293C258.486 0.319878 257.254 0 256.002 0C254.75 0 253.519 0.319878 252.425 0.929293C251.331 1.53871 250.411 2.41745 249.752 3.48218L236.242 25.3022C234.242 25.4722 232.312 25.6422 230.362 25.8522L212.862 7.13218C212.008 6.21881 210.935 5.53853 209.744 5.15571C208.554 4.77289 207.285 4.70019 206.059 4.94449C204.832 5.18879 203.688 5.74202 202.735 6.55181C201.782 7.36161 201.051 8.40119 200.612 9.57218L191.612 33.5722C189.722 34.1222 187.822 34.6522 185.952 35.2522L165.132 20.2522C164.116 19.5227 162.93 19.0647 161.687 18.9217C160.444 18.7787 159.185 18.9554 158.029 19.4351C156.873 19.9148 155.859 20.6816 155.083 21.6628C154.306 22.644 153.793 23.8072 153.592 25.0422L149.442 50.4522C147.712 51.3522 145.992 52.2422 144.282 53.1822L120.882 42.5522C119.739 42.0314 118.481 41.8124 117.228 41.9162C115.976 42.0201 114.771 42.4433 113.729 43.1454C112.687 43.8476 111.842 44.8052 111.275 45.9269C110.709 47.0485 110.439 48.2967 110.492 49.5522L111.412 75.3622C109.922 76.5522 108.412 77.7522 106.992 78.9722L81.8422 73.0022C80.6236 72.7178 79.3526 72.7489 78.1493 73.0924C76.946 73.4359 75.8501 74.0805 74.9653 74.9654C74.0805 75.8502 73.4358 76.946 73.0923 78.1493C72.7488 79.3526 72.7178 80.6236 73.0022 81.8422L78.9322 107.002C77.7022 108.452 76.5022 109.932 75.3122 111.412L49.5022 110.502C48.2517 110.465 47.0119 110.744 45.8982 111.314C44.7845 111.884 43.833 112.726 43.1322 113.762C42.4379 114.804 42.0211 116.005 41.9214 117.253C41.8216 118.501 42.0422 119.754 42.5622 120.892L53.2222 144.302C52.2822 146.002 51.3922 147.732 50.4922 149.462L25.0822 153.602C23.8472 153.803 22.684 154.316 21.7027 155.093C20.7215 155.869 19.9547 156.883 19.475 158.039C18.9954 159.195 18.8186 160.454 18.9616 161.697C19.1046 162.94 19.5626 164.126 20.2922 165.142L35.2922 185.962C34.7022 187.832 34.1622 189.732 33.6122 191.622L9.61219 200.622C8.4412 201.061 7.40162 201.792 6.59182 202.745C5.78202 203.698 5.2288 204.842 4.9845 206.068C4.74019 207.295 4.81289 208.564 5.19571 209.754C5.57854 210.945 6.25882 212.018 7.17219 212.872L25.8922 230.372C25.6822 232.322 25.5122 234.282 25.3422 236.252L3.48219 249.752C2.41746 250.411 1.53871 251.331 0.929293 252.425C0.319878 253.519 0 254.75 0 256.002C0 257.254 0.319878 258.486 0.929293 259.58C1.53871 260.673 2.41746 261.593 3.48219 262.252L25.3022 275.762C25.4722 277.762 25.6422 279.682 25.8522 281.632L7.13219 299.132C6.21882 299.987 5.53854 301.06 5.15571 302.25C4.77289 303.441 4.70019 304.709 4.9445 305.936C5.1888 307.163 5.74202 308.306 6.55182 309.259C7.36162 310.212 8.4012 310.943 9.57219 311.382L33.5722 320.382C34.1222 322.272 34.6522 324.162 35.2522 326.032L20.2522 346.862C19.5226 347.879 19.0646 349.065 18.9216 350.308C18.7786 351.551 18.9554 352.81 19.435 353.966C19.9147 355.121 20.6815 356.135 21.6627 356.912C22.644 357.688 23.8072 358.201 25.0422 358.402L50.4622 362.552C51.3622 364.272 52.2522 366.002 53.1922 367.692L42.5622 391.122C42.0422 392.261 41.8216 393.513 41.9214 394.761C42.0211 396.009 42.4379 397.211 43.1322 398.252C43.8125 399.309 44.76 400.167 45.8786 400.739C46.9972 401.312 48.2473 401.578 49.5022 401.512L75.3322 400.602C76.5122 402.082 77.7122 403.549 78.9322 405.002L73.0022 430.162C72.7178 431.381 72.7488 432.652 73.0923 433.855C73.4358 435.058 74.0805 436.154 74.9653 437.039C75.8501 437.924 76.946 438.569 78.1493 438.912C79.3526 439.256 80.6236 439.287 81.8422 439.002L107.002 433.072C108.456 434.292 109.926 435.496 111.412 436.682L110.492 462.502C110.448 463.754 110.724 464.996 111.294 466.11C111.865 467.225 112.71 468.176 113.751 468.872C114.792 469.568 115.993 469.987 117.241 470.088C118.489 470.19 119.743 469.971 120.882 469.452L144.312 458.772C146.002 459.712 147.732 460.602 149.452 461.502L153.602 486.922C153.802 488.158 154.315 489.322 155.091 490.303C155.868 491.285 156.883 492.052 158.039 492.531C159.196 493.01 160.455 493.185 161.698 493.04C162.942 492.895 164.127 492.435 165.142 491.702L185.972 476.702C187.832 477.302 189.732 477.832 191.622 478.382L200.622 502.382C201.064 503.551 201.795 504.589 202.748 505.397C203.702 506.205 204.845 506.757 206.07 507.001C207.296 507.245 208.563 507.173 209.753 506.792C210.943 506.411 212.017 505.733 212.872 504.822L230.372 486.102C232.322 486.312 234.292 486.482 236.252 486.652L249.762 508.472C250.421 509.537 251.341 510.416 252.435 511.025C253.529 511.635 254.76 511.954 256.012 511.954C257.264 511.954 258.496 511.635 259.59 511.025C260.683 510.416 261.603 509.537 262.262 508.472L275.772 486.652C277.772 486.482 279.702 486.312 281.652 486.092L299.152 504.822C300.008 505.733 301.081 506.411 302.271 506.792C303.461 507.173 304.729 507.245 305.954 507.001C307.18 506.757 308.323 506.205 309.276 505.397C310.229 504.589 310.961 503.551 311.402 502.382L320.402 478.382C322.292 477.832 324.182 477.302 326.052 476.702L346.872 491.702C347.887 492.435 349.073 492.895 350.316 493.04C351.559 493.185 352.819 493.01 353.975 492.531C355.132 492.052 356.147 491.285 356.923 490.303C357.7 489.322 358.212 488.158 358.412 486.922L362.562 461.502C364.282 460.602 366.012 459.712 367.712 458.772L391.132 469.452C392.272 469.971 393.525 470.19 394.773 470.088C396.021 469.987 397.223 469.568 398.263 468.872C399.304 468.176 400.15 467.225 400.72 466.11C401.291 464.996 401.567 463.754 401.522 462.502L400.612 436.682C402.092 435.489 403.559 434.286 405.012 433.072L430.162 439.002C431.381 439.287 432.652 439.256 433.855 438.912C435.058 438.569 436.154 437.924 437.039 437.039C437.924 436.154 438.569 435.058 438.912 433.855C439.256 432.652 439.287 431.381 439.002 430.162L433.072 405.002C434.292 403.556 435.496 402.089 436.682 400.602L462.502 401.512C463.756 401.568 465.002 401.297 466.119 400.726C467.236 400.154 468.185 399.302 468.872 398.252C469.568 397.212 469.987 396.01 470.088 394.763C470.19 393.515 469.971 392.262 469.452 391.122L458.772 367.702C459.712 366.002 460.602 364.272 461.502 362.552L486.922 358.402C488.157 358.201 489.32 357.688 490.302 356.912C491.283 356.135 492.05 355.121 492.529 353.966C493.009 352.81 493.186 351.551 493.043 350.308C492.9 349.065 492.442 347.879 491.712 346.862L476.712 326.032C477.302 324.162 477.842 322.272 478.382 320.382L502.382 311.382C503.553 310.943 504.593 310.212 505.403 309.259C506.212 308.306 506.766 307.163 507.01 305.936C507.254 304.709 507.182 303.441 506.799 302.25C506.416 301.06 505.736 299.987 504.822 299.132L486.102 281.632C486.312 279.682 486.482 277.722 486.652 275.762L508.472 262.252C509.537 261.593 510.416 260.673 511.025 259.58C511.635 258.486 511.954 257.254 511.954 256.002C511.954 254.75 511.635 253.519 511.025 252.425C510.416 251.331 509.537 250.411 508.472 249.752H508.522ZM357.522 378.832C353.915 378.058 350.149 378.748 347.05 380.751C343.952 382.754 341.777 385.905 341.002 389.512L333.362 425.182C308.781 436.317 282.087 442.016 255.101 441.888C228.116 441.76 201.477 435.81 177.002 424.442L169.362 388.782C168.983 387 168.257 385.31 167.224 383.808C166.192 382.307 164.874 381.024 163.345 380.032C161.817 379.04 160.108 378.359 158.316 378.028C156.524 377.697 154.684 377.722 152.902 378.102L121.392 384.862C115.548 378.831 110.116 372.413 105.132 365.652H258.302C260.022 365.652 261.192 365.362 261.192 363.742V309.552C261.192 307.982 260.022 307.642 258.302 307.642H213.472L213.522 273.292H262.002C266.412 273.292 285.662 274.572 291.792 299.162C293.702 306.712 297.962 331.302 300.852 339.162C303.742 347.982 315.452 365.622 327.952 365.622H407.002C401.705 372.72 395.91 379.434 389.662 385.712L357.522 378.832ZM383.292 413.322C383.292 416.334 382.4 419.279 380.727 421.784C379.055 424.289 376.678 426.242 373.896 427.397C371.114 428.552 368.052 428.857 365.097 428.273C362.143 427.689 359.427 426.242 357.294 424.116C355.16 421.99 353.705 419.279 353.111 416.326C352.518 413.373 352.812 410.31 353.958 407.525C355.104 404.739 357.049 402.356 359.549 400.675C362.049 398.994 364.99 398.092 368.002 398.082H368.442C372.408 398.194 376.174 399.85 378.938 402.696C381.702 405.542 383.246 409.355 383.242 413.322H383.292ZM157.672 412.642C157.67 415.656 156.775 418.601 155.1 421.105C153.424 423.61 151.044 425.562 148.26 426.714C145.475 427.866 142.412 428.167 139.457 427.579C136.501 426.991 133.787 425.539 131.656 423.409C129.525 421.278 128.074 418.563 127.486 415.608C126.897 412.653 127.198 409.589 128.35 406.805C129.503 404.02 131.454 401.64 133.959 399.965C136.464 398.289 139.409 397.394 142.422 397.392H142.872C146.83 397.522 150.581 399.186 153.334 402.032C156.087 404.878 157.624 408.683 157.622 412.642H157.672ZM69.5722 234.152L102.402 219.552C104.07 218.813 105.576 217.753 106.834 216.431C108.092 215.11 109.076 213.553 109.732 211.851C110.388 210.148 110.702 208.333 110.655 206.51C110.609 204.686 110.204 202.889 109.462 201.222L102.692 186.002H129.252V305.732H75.6522C69.0347 282.486 66.9702 258.181 69.5722 234.152ZM58.3122 198.092C58.3109 196.091 58.7038 194.109 59.4684 192.259C60.2331 190.41 61.3546 188.729 62.7688 187.313C64.183 185.897 65.8623 184.773 67.7108 184.006C69.5593 183.239 71.5408 182.844 73.5422 182.842H74.0022C76.9966 182.927 79.8997 183.892 82.3487 185.617C84.7977 187.342 86.684 189.751 87.7718 192.542C88.8596 195.333 89.1008 198.383 88.4651 201.31C87.8294 204.238 86.345 206.913 84.1975 209.001C82.0501 211.09 79.3347 212.499 76.3907 213.053C73.4468 213.607 70.4049 213.281 67.6451 212.116C64.8853 210.951 62.5301 208.999 60.8737 206.503C59.2174 204.007 58.3334 201.078 58.3322 198.082L58.3122 198.092ZM213.472 222.582L213.522 187.262H276.782C280.062 187.262 299.852 191.032 299.852 205.882C299.852 218.172 284.662 222.582 272.172 222.582H213.472ZM399.002 306.712C389.202 307.842 378.372 302.592 377.002 296.622C371.222 264.132 361.612 257.222 346.432 245.222C365.292 233.272 384.892 215.582 384.892 191.962C384.892 166.442 367.402 150.372 355.492 142.482C338.732 131.482 320.212 129.252 315.222 129.252H116.322C143.825 98.5238 180.691 77.72 221.212 70.0622L244.682 94.6622C245.937 95.9831 247.441 97.0427 249.107 97.7803C250.774 98.5176 252.569 98.9184 254.391 98.9593C256.212 99.0002 258.024 98.6805 259.722 98.0185C261.419 97.3566 262.969 96.3654 264.282 95.1021L290.542 70.1021C317.293 75.1131 342.632 85.887 364.799 101.676C386.967 117.464 405.432 137.889 418.912 161.532L400.912 202.102C399.45 205.476 399.374 209.291 400.7 212.72C402.027 216.15 404.65 218.92 408.002 220.432L442.592 235.762C443.67 246.577 443.804 257.465 442.992 268.302H423.712C421.802 268.302 421.022 269.572 421.022 271.432V280.252C421.002 301.002 409.312 305.582 399.002 306.712ZM240.002 60.2122C240.01 56.1807 241.615 52.3166 244.466 49.4659C247.317 46.6152 251.181 45.0102 255.212 45.0022H255.662C258.658 45.0848 261.564 46.0491 264.015 47.7745C266.466 49.4998 268.354 51.9095 269.442 54.7023C270.53 57.495 270.771 60.5467 270.134 63.4755C269.497 66.4044 268.01 69.0804 265.86 71.1687C263.71 73.257 260.992 74.6649 258.046 75.2163C255.1 75.7677 252.056 75.438 249.297 74.2688C246.537 73.0993 244.183 71.1422 242.53 68.642C240.877 66.1417 239.998 63.2096 240.002 60.2122ZM436.842 214.002C434.841 214.002 432.859 213.608 431.01 212.842C429.161 212.076 427.481 210.954 426.066 209.539C424.651 208.123 423.528 206.443 422.762 204.594C421.996 202.745 421.602 200.764 421.602 198.762C421.602 196.761 421.996 194.779 422.762 192.93C423.528 191.081 424.651 189.401 426.066 187.986C427.481 186.571 429.161 185.448 431.01 184.682C432.859 183.916 434.841 183.522 436.842 183.522H437.282C441.324 183.581 445.177 185.242 447.994 188.141C450.811 191.041 452.361 194.94 452.302 198.982C452.244 203.024 450.582 206.877 447.683 209.694C444.784 212.511 440.884 214.061 436.842 214.002Z" fill="black"/>
</g>
</g>
</g>
</g>
</g>
</g>
</g>
</g>
</g>
</g>
</g>
</g>
</g>
</g>
</g>
<defs>
<clipPath id="clip0_3932_42490">
<rect width="512" height="512" fill="white"/>
</clipPath>
</defs>
</svg>
