<svg width="512" height="512" viewBox="0 0 512 512" fill="none" xmlns="http://www.w3.org/2000/svg">
<g clip-path="url(#clip0_3932_42664)">
<mask id="mask0_3932_42664" style="mask-type:luminance" maskUnits="userSpaceOnUse" x="0" y="0" width="512" height="512">
<path d="M512 0H0V512H512V0Z" fill="white"/>
</mask>
<g mask="url(#mask0_3932_42664)">
<mask id="mask1_3932_42664" style="mask-type:luminance" maskUnits="userSpaceOnUse" x="0" y="0" width="512" height="512">
<path d="M512 0H0V512H512V0Z" fill="white"/>
</mask>
<g mask="url(#mask1_3932_42664)">
<mask id="mask2_3932_42664" style="mask-type:luminance" maskUnits="userSpaceOnUse" x="0" y="0" width="512" height="512">
<path d="M512 0H0V512H512V0Z" fill="white"/>
</mask>
<g mask="url(#mask2_3932_42664)">
<mask id="mask3_3932_42664" style="mask-type:luminance" maskUnits="userSpaceOnUse" x="0" y="0" width="512" height="512">
<path d="M512 0H0V512H512V0Z" fill="white"/>
</mask>
<g mask="url(#mask3_3932_42664)">
<mask id="mask4_3932_42664" style="mask-type:luminance" maskUnits="userSpaceOnUse" x="0" y="0" width="512" height="512">
<path d="M512 0H0V512H512V0Z" fill="white"/>
</mask>
<g mask="url(#mask4_3932_42664)">
<mask id="mask5_3932_42664" style="mask-type:luminance" maskUnits="userSpaceOnUse" x="0" y="0" width="512" height="512">
<path d="M512 0H0V512H512V0Z" fill="white"/>
</mask>
<g mask="url(#mask5_3932_42664)">
<mask id="mask6_3932_42664" style="mask-type:luminance" maskUnits="userSpaceOnUse" x="0" y="0" width="512" height="512">
<path d="M512 0H0V512H512V0Z" fill="white"/>
</mask>
<g mask="url(#mask6_3932_42664)">
<mask id="mask7_3932_42664" style="mask-type:luminance" maskUnits="userSpaceOnUse" x="0" y="0" width="512" height="512">
<path d="M512 0H0V512H512V0Z" fill="white"/>
</mask>
<g mask="url(#mask7_3932_42664)">
<mask id="mask8_3932_42664" style="mask-type:luminance" maskUnits="userSpaceOnUse" x="0" y="0" width="512" height="512">
<path d="M512 0H0V512H512V0Z" fill="white"/>
</mask>
<g mask="url(#mask8_3932_42664)">
<mask id="mask9_3932_42664" style="mask-type:luminance" maskUnits="userSpaceOnUse" x="0" y="0" width="512" height="512">
<path d="M512 0H0V512H512V0Z" fill="white"/>
</mask>
<g mask="url(#mask9_3932_42664)">
<mask id="mask10_3932_42664" style="mask-type:luminance" maskUnits="userSpaceOnUse" x="0" y="0" width="512" height="512">
<path d="M512 0H0V512H512V0Z" fill="white"/>
</mask>
<g mask="url(#mask10_3932_42664)">
<mask id="mask11_3932_42664" style="mask-type:luminance" maskUnits="userSpaceOnUse" x="0" y="0" width="512" height="512">
<path d="M512 0H0V512H512V0Z" fill="white"/>
</mask>
<g mask="url(#mask11_3932_42664)">
<mask id="mask12_3932_42664" style="mask-type:luminance" maskUnits="userSpaceOnUse" x="0" y="0" width="512" height="512">
<path d="M512 0H0V512H512V0Z" fill="white"/>
</mask>
<g mask="url(#mask12_3932_42664)">
<mask id="mask13_3932_42664" style="mask-type:luminance" maskUnits="userSpaceOnUse" x="0" y="0" width="512" height="512">
<path d="M512 0H0V512H512V0Z" fill="white"/>
</mask>
<g mask="url(#mask13_3932_42664)">
<path d="M192 96H320L367.4 24.9C374.5 14.2 366.9 0 354.1 0H157.9C145.1 0 137.5 14.2 144.6 24.9L192 96ZM320 128H192C188.2 130.5 183.9 133.3 179 136.4C122.3 172.7 0 250.9 0 416C0 469 43 512 96 512H416C469 512 512 469 512 416C512 250.9 389.7 172.7 333 136.4C328.2 133.3 323.8 130.5 320 128ZM289.9 336L336.9 383C346.3 392.4 346.3 407.6 336.9 416.9C327.5 426.2 312.3 426.3 303 416.9L256 369.9L209 416.9C199.6 426.3 184.4 426.3 175.1 416.9C165.8 407.5 165.7 392.3 175.1 383L222.1 336L175.1 289C165.7 279.6 165.7 264.4 175.1 255.1C184.5 245.8 199.7 245.7 209 255.1L256 302.1L303 255.1C312.4 245.7 327.6 245.7 336.9 255.1C346.2 264.5 346.3 279.7 336.9 289L289.9 336Z" fill="black"/>
</g>
</g>
</g>
</g>
</g>
</g>
</g>
</g>
</g>
</g>
</g>
</g>
</g>
</g>
</g>
<defs>
<clipPath id="clip0_3932_42664">
<rect width="512" height="512" fill="white"/>
</clipPath>
</defs>
</svg>
