<svg width="640" height="512" viewBox="0 0 640 512" fill="none" xmlns="http://www.w3.org/2000/svg">
<g clip-path="url(#clip0_3932_42836)">
<mask id="mask0_3932_42836" style="mask-type:luminance" maskUnits="userSpaceOnUse" x="0" y="0" width="640" height="512">
<path d="M640 0H0V512H640V0Z" fill="white"/>
</mask>
<g mask="url(#mask0_3932_42836)">
<mask id="mask1_3932_42836" style="mask-type:luminance" maskUnits="userSpaceOnUse" x="0" y="0" width="640" height="512">
<path d="M640 0H0V512H640V0Z" fill="white"/>
</mask>
<g mask="url(#mask1_3932_42836)">
<mask id="mask2_3932_42836" style="mask-type:luminance" maskUnits="userSpaceOnUse" x="0" y="0" width="640" height="512">
<path d="M640 0H0V512H640V0Z" fill="white"/>
</mask>
<g mask="url(#mask2_3932_42836)">
<mask id="mask3_3932_42836" style="mask-type:luminance" maskUnits="userSpaceOnUse" x="0" y="0" width="640" height="512">
<path d="M640 0H0V512H640V0Z" fill="white"/>
</mask>
<g mask="url(#mask3_3932_42836)">
<mask id="mask4_3932_42836" style="mask-type:luminance" maskUnits="userSpaceOnUse" x="0" y="0" width="640" height="512">
<path d="M640 0H0V512H640V0Z" fill="white"/>
</mask>
<g mask="url(#mask4_3932_42836)">
<mask id="mask5_3932_42836" style="mask-type:luminance" maskUnits="userSpaceOnUse" x="0" y="0" width="640" height="512">
<path d="M640 0H0V512H640V0Z" fill="white"/>
</mask>
<g mask="url(#mask5_3932_42836)">
<mask id="mask6_3932_42836" style="mask-type:luminance" maskUnits="userSpaceOnUse" x="0" y="0" width="640" height="512">
<path d="M640 0H0V512H640V0Z" fill="white"/>
</mask>
<g mask="url(#mask6_3932_42836)">
<mask id="mask7_3932_42836" style="mask-type:luminance" maskUnits="userSpaceOnUse" x="0" y="0" width="640" height="512">
<path d="M640 0H0V512H640V0Z" fill="white"/>
</mask>
<g mask="url(#mask7_3932_42836)">
<mask id="mask8_3932_42836" style="mask-type:luminance" maskUnits="userSpaceOnUse" x="0" y="0" width="640" height="512">
<path d="M640 0H0V512H640V0Z" fill="white"/>
</mask>
<g mask="url(#mask8_3932_42836)">
<mask id="mask9_3932_42836" style="mask-type:luminance" maskUnits="userSpaceOnUse" x="0" y="0" width="640" height="512">
<path d="M640 0H0V512H640V0Z" fill="white"/>
</mask>
<g mask="url(#mask9_3932_42836)">
<mask id="mask10_3932_42836" style="mask-type:luminance" maskUnits="userSpaceOnUse" x="0" y="0" width="640" height="512">
<path d="M640 0H0V512H640V0Z" fill="white"/>
</mask>
<g mask="url(#mask10_3932_42836)">
<path d="M301.836 378.923C301.236 380.003 301.536 379.523 301.836 378.923V378.923ZM550.966 291.923C530.854 291.917 511.009 296.536 492.966 305.423C487.066 293.523 480.966 283.123 479.966 275.323C478.766 266.223 477.466 260.823 478.866 250.023C480.266 239.223 486.566 223.923 486.466 222.823C486.366 221.723 485.066 216.223 472.166 216.123C459.266 216.023 448.166 218.623 446.876 222.023C444.598 228.237 442.826 234.624 441.576 241.123C439.276 252.823 415.786 294.623 402.486 316.423C398.086 307.923 394.386 300.423 393.586 294.423C392.386 285.323 391.086 279.923 392.486 269.123C393.886 258.323 400.186 243.023 400.086 241.923C399.986 240.823 398.686 235.323 385.796 235.223C372.906 235.123 361.796 237.723 360.496 241.123C359.196 244.523 357.796 252.523 355.196 260.223C352.596 267.923 321.306 337.523 313.116 355.623C308.916 364.823 305.316 372.223 302.716 377.223C302.316 378.023 302.016 378.523 301.816 378.923C302.116 378.423 302.316 377.923 302.316 378.123C300.116 382.423 298.816 384.823 298.816 384.823V384.923C297.116 388.123 295.216 391.023 294.316 391.023C293.716 391.023 292.416 382.623 294.616 371.123C299.316 346.923 310.416 309.323 310.316 308.023C310.216 307.323 312.416 300.823 303.016 297.323C293.916 294.023 290.616 299.523 289.816 299.523C289.016 299.523 288.416 301.523 288.416 301.523C288.416 301.523 298.516 259.123 269.026 259.123C250.626 259.123 225.026 279.323 212.446 297.623C204.546 301.923 187.446 311.223 169.446 321.123C162.546 324.923 155.446 328.823 148.746 332.523C148.246 332.023 147.846 331.523 147.346 331.023C111.556 292.823 45.4764 265.823 48.2764 214.523C49.2764 195.823 55.7764 146.723 175.346 87.1236C273.346 38.3236 351.696 51.7235 365.186 81.5235C384.586 124.023 323.296 203.123 221.526 214.523C182.736 218.823 162.346 203.823 157.246 198.223C151.946 192.323 151.146 192.023 149.146 193.123C145.846 194.923 147.946 200.123 149.146 203.223C152.146 211.123 164.646 225.123 185.936 232.123C204.636 238.223 250.116 241.623 305.106 220.323C366.886 196.523 414.976 130.223 400.876 74.7236C386.516 18.3236 292.996 -0.17647 204.566 31.2236C151.876 49.9236 94.8964 79.3236 53.9064 117.623C5.21643 163.223 -2.57357 202.923 0.62644 219.523C12.0164 278.423 93.1964 316.823 125.686 345.223C124.086 346.123 122.586 346.923 121.186 347.723C104.896 355.823 43.0064 388.223 27.5164 422.423C10.0164 461.223 30.4164 489.023 43.8064 492.823C85.5964 504.423 128.386 483.523 151.376 449.223C174.366 414.923 171.576 370.123 160.976 349.723C160.876 349.423 160.676 349.223 160.576 348.923C164.776 346.423 169.076 343.923 173.376 341.423C181.666 336.523 189.766 332.023 196.866 328.123C192.866 338.923 189.966 351.923 188.466 370.723C186.666 392.723 195.766 421.223 207.566 432.423C212.766 437.323 219.056 437.423 222.956 437.423C236.756 437.423 242.956 426.023 249.846 412.423C258.346 395.823 265.846 376.523 265.846 376.523C265.846 376.523 256.446 428.723 282.146 428.723C291.536 428.723 300.936 416.623 305.146 410.423V410.523C305.146 410.523 305.346 410.123 305.846 409.323C306.846 407.823 307.346 406.923 307.346 406.923V406.623C311.146 400.123 319.446 385.223 331.936 360.623C348.136 328.823 363.626 289.123 363.626 289.123C365.123 297.85 367.194 306.469 369.826 314.923C372.626 324.423 378.526 334.823 383.226 344.923C379.426 350.123 377.126 353.123 377.126 353.123C377.134 353.2 377.169 353.271 377.226 353.323C374.226 357.323 370.826 361.623 367.326 365.823C354.536 381.023 339.326 398.423 337.326 403.423C334.926 409.323 335.526 413.723 340.126 417.123C343.526 419.723 349.526 420.123 355.816 419.623C367.316 418.823 375.416 416.023 379.316 414.223C386.506 411.645 393.302 408.077 399.506 403.623C412.006 394.423 419.606 381.223 418.906 363.823C418.506 354.223 415.406 344.623 411.606 335.623C412.706 334.023 413.906 332.323 415.006 330.623C434.796 301.723 450.096 270.003 450.096 270.003C451.593 278.73 453.664 287.349 456.296 295.803C458.696 303.903 463.386 312.803 467.686 321.503C449.096 336.603 437.596 354.103 433.596 365.603C426.196 386.903 431.996 396.503 442.896 398.703C447.796 399.703 454.796 397.403 459.996 395.203C467.719 392.631 475.001 388.887 481.586 384.103C494.086 374.903 506.176 362.003 505.376 344.503C505.076 336.603 502.876 328.703 499.976 321.103C515.676 314.503 536.066 310.903 562.066 313.903C617.746 320.403 628.646 355.203 626.546 369.703C624.446 384.203 612.746 392.303 608.846 394.703C604.946 397.103 603.746 398.003 604.046 399.803C604.546 402.403 606.346 402.303 609.646 401.703C614.246 400.903 638.836 389.903 639.936 363.003C641.536 329.003 608.846 291.603 550.936 291.903L550.966 291.923ZM121.786 436.623C103.396 456.723 77.5964 464.323 66.5064 457.923C54.6064 451.003 59.3064 421.423 81.9964 400.003C95.7964 387.003 113.586 375.003 125.386 367.603C128.086 366.003 131.986 363.603 136.786 360.703C137.586 360.203 137.986 360.003 137.986 360.003C138.886 359.403 139.886 358.903 140.886 358.303C149.176 388.703 141.186 415.503 121.786 436.603V436.623ZM256.146 345.223C249.746 360.923 236.256 400.923 228.056 398.823C221.056 397.023 216.756 366.523 226.656 336.523C231.656 321.423 242.256 303.423 248.556 296.423C258.646 285.123 269.746 281.523 272.346 286.023C275.846 291.923 260.146 335.423 256.146 345.223ZM367.146 398.223C364.446 399.623 361.946 400.523 360.746 399.823C359.846 399.323 361.846 397.423 361.846 397.423C361.846 397.423 375.746 382.523 381.246 375.723C384.446 371.723 388.146 367.023 392.136 361.823C392.136 362.323 392.236 362.823 392.236 363.423C392.106 381.323 374.916 393.423 367.116 398.223H367.146ZM452.726 378.723C450.726 377.323 451.026 372.623 457.726 358.023C460.326 352.323 466.316 342.723 476.726 333.523C477.905 337.006 478.545 340.648 478.626 344.323C478.526 366.823 462.426 375.223 452.736 378.723H452.726Z" fill="black"/>
</g>
</g>
</g>
</g>
</g>
</g>
</g>
</g>
</g>
</g>
</g>
</g>
<defs>
<clipPath id="clip0_3932_42836">
<rect width="640" height="512" fill="white"/>
</clipPath>
</defs>
</svg>
