<svg width="640" height="512" viewBox="0 0 640 512" fill="none" xmlns="http://www.w3.org/2000/svg">
<path d="M117.901 62.4C101.101 56.8 92.1007 38.7 97.7007 21.9C103.301 5.1 121.401 -3.9 138.201 1.7L251.201 39.4C265.001 15.8 290.701 0 320.001 0C364.201 0 400.001 35.8 400.001 80C400.001 83 399.801 85.9 399.501 88.8L522.101 129.7C538.901 135.3 547.901 153.4 542.301 170.2C536.701 187 518.601 196 501.801 190.4L366.401 145.2C361.901 148.4 357.101 151.1 352.001 153.4V480C352.001 497.7 337.701 512 320.001 512H128.001C110.301 512 96.0007 497.7 96.0007 480C96.0007 462.3 110.301 448 128.001 448H288.001V153.3C267.001 144.1 250.801 126.3 243.801 104.3L117.901 62.3V62.4ZM200.401 288L128.001 163.8L55.6007 288H200.401ZM128.001 384C65.1007 384 12.8007 350 2.00075 305.1C-0.599261 294.1 3.00075 282.8 8.70075 273L103.901 109.8C108.901 101.2 118.101 96 128.001 96C137.901 96 147.101 101.3 152.101 109.8L247.301 273C253.001 282.8 256.601 294.1 254.001 305.1C243.201 350 190.901 384 128.001 384ZM510.801 291.8L438.401 416H583.301L510.801 291.8ZM636.801 433.1C626.001 478 573.701 512 510.801 512C447.901 512 395.601 478 384.801 433.1C382.201 422.1 385.801 410.8 391.501 401L486.701 237.8C491.701 229.2 500.901 224 510.801 224C520.701 224 529.901 229.3 534.901 237.8L630.101 401C635.801 410.8 639.401 422.1 636.801 433.1Z" fill="black"/>
</svg>
