<svg width="640" height="512" viewBox="0 0 640 512" fill="none" xmlns="http://www.w3.org/2000/svg">
<path d="M383.999 32H511.999C529.699 32 543.999 46.3 543.999 64C543.999 81.7 529.699 96 511.999 96H398.399C393.199 121.8 375.499 143.1 351.999 153.3V448H511.999C529.699 448 543.999 462.3 543.999 480C543.999 497.7 529.699 512 511.999 512H319.999H127.999C110.299 512 95.9992 497.7 95.9992 480C95.9992 462.3 110.299 448 127.999 448H287.999V153.3C264.499 143 246.799 121.7 241.599 96H127.999C110.299 96 95.9992 81.7 95.9992 64C95.9992 46.3 110.299 32 127.999 32H255.999C270.599 12.6 293.799 0 319.999 0C346.199 0 369.399 12.6 383.999 32ZM439.599 320H584.399L511.999 195.8L439.599 320ZM511.999 416C449.099 416 396.799 382 385.999 337.1C383.399 326.1 386.999 314.8 392.699 305L487.899 141.8C492.899 133.2 502.099 128 511.999 128C521.899 128 531.099 133.3 536.099 141.8L631.299 305C636.999 314.8 640.599 326.1 637.999 337.1C627.199 382 574.899 416 511.999 416ZM126.799 195.8L54.3992 320H199.299L126.799 195.8ZM0.899186 337.1C-1.70082 326.1 1.89918 314.8 7.59918 305L102.799 141.8C107.799 133.2 116.999 128 126.899 128C136.799 128 145.999 133.3 150.999 141.8L246.199 305C251.899 314.8 255.499 326.1 252.899 337.1C241.999 382 189.699 416 126.799 416C63.8992 416 11.6992 382 0.899186 337.1Z" fill="black"/>
</svg>
