<svg width="512" height="512" viewBox="0 0 512 512" fill="none" xmlns="http://www.w3.org/2000/svg">
<g clip-path="url(#clip0_3932_43470)">
<mask id="mask0_3932_43470" style="mask-type:luminance" maskUnits="userSpaceOnUse" x="0" y="0" width="512" height="512">
<path d="M512 0H0V512H512V0Z" fill="white"/>
</mask>
<g mask="url(#mask0_3932_43470)">
<mask id="mask1_3932_43470" style="mask-type:luminance" maskUnits="userSpaceOnUse" x="0" y="0" width="512" height="512">
<path d="M512 0H0V512H512V0Z" fill="white"/>
</mask>
<g mask="url(#mask1_3932_43470)">
<mask id="mask2_3932_43470" style="mask-type:luminance" maskUnits="userSpaceOnUse" x="0" y="0" width="512" height="512">
<path d="M512 0H0V512H512V0Z" fill="white"/>
</mask>
<g mask="url(#mask2_3932_43470)">
<mask id="mask3_3932_43470" style="mask-type:luminance" maskUnits="userSpaceOnUse" x="0" y="0" width="512" height="512">
<path d="M512 0H0V512H512V0Z" fill="white"/>
</mask>
<g mask="url(#mask3_3932_43470)">
<mask id="mask4_3932_43470" style="mask-type:luminance" maskUnits="userSpaceOnUse" x="0" y="0" width="512" height="512">
<path d="M512 0H0V512H512V0Z" fill="white"/>
</mask>
<g mask="url(#mask4_3932_43470)">
<mask id="mask5_3932_43470" style="mask-type:luminance" maskUnits="userSpaceOnUse" x="0" y="0" width="512" height="512">
<path d="M512 0H0V512H512V0Z" fill="white"/>
</mask>
<g mask="url(#mask5_3932_43470)">
<mask id="mask6_3932_43470" style="mask-type:luminance" maskUnits="userSpaceOnUse" x="0" y="0" width="512" height="512">
<path d="M512 0H0V512H512V0Z" fill="white"/>
</mask>
<g mask="url(#mask6_3932_43470)">
<mask id="mask7_3932_43470" style="mask-type:luminance" maskUnits="userSpaceOnUse" x="0" y="0" width="512" height="512">
<path d="M512 0H0V512H512V0Z" fill="white"/>
</mask>
<g mask="url(#mask7_3932_43470)">
<mask id="mask8_3932_43470" style="mask-type:luminance" maskUnits="userSpaceOnUse" x="0" y="0" width="512" height="512">
<path d="M512 0H0V512H512V0Z" fill="white"/>
</mask>
<g mask="url(#mask8_3932_43470)">
<mask id="mask9_3932_43470" style="mask-type:luminance" maskUnits="userSpaceOnUse" x="0" y="0" width="512" height="512">
<path d="M512 0H0V512H512V0Z" fill="white"/>
</mask>
<g mask="url(#mask9_3932_43470)">
<mask id="mask10_3932_43470" style="mask-type:luminance" maskUnits="userSpaceOnUse" x="0" y="0" width="512" height="512">
<path d="M512 0H0V512H512V0Z" fill="white"/>
</mask>
<g mask="url(#mask10_3932_43470)">
<mask id="mask11_3932_43470" style="mask-type:luminance" maskUnits="userSpaceOnUse" x="0" y="0" width="512" height="512">
<path d="M512 0H0V512H512V0Z" fill="white"/>
</mask>
<g mask="url(#mask11_3932_43470)">
<mask id="mask12_3932_43470" style="mask-type:luminance" maskUnits="userSpaceOnUse" x="0" y="0" width="512" height="512">
<path d="M512 0H0V512H512V0Z" fill="white"/>
</mask>
<g mask="url(#mask12_3932_43470)">
<mask id="mask13_3932_43470" style="mask-type:luminance" maskUnits="userSpaceOnUse" x="0" y="0" width="512" height="512">
<path d="M512 0H0V512H512V0Z" fill="white"/>
</mask>
<g mask="url(#mask13_3932_43470)">
<path d="M464.998 6.99709C456.498 -1.50291 442.998 -2.40291 433.398 4.89709L329.398 84.8971C323.498 89.3971 319.998 96.4971 319.998 103.897V157.997L234.398 243.597C241.098 247.797 247.398 252.897 253.198 258.697C258.998 264.497 264.098 270.897 268.298 277.497L353.898 191.997H407.998C415.498 191.997 422.498 188.497 426.998 182.597L506.998 78.5971C514.398 68.9971 513.498 55.4971 504.898 46.9971L464.998 6.99709ZM121.398 281.397L9.39844 393.397C-3.10156 405.897 -3.10156 426.197 9.39844 438.697L73.3984 502.697C85.8984 515.197 106.198 515.197 118.698 502.697L230.698 390.697C260.898 360.497 260.898 311.597 230.698 281.397C200.498 251.197 151.598 251.197 121.398 281.397Z" fill="black"/>
</g>
</g>
</g>
</g>
</g>
</g>
</g>
</g>
</g>
</g>
</g>
</g>
</g>
</g>
</g>
<defs>
<clipPath id="clip0_3932_43470">
<rect width="512" height="512" fill="white"/>
</clipPath>
</defs>
</svg>
