<svg width="576" height="512" viewBox="0 0 576 512" fill="none" xmlns="http://www.w3.org/2000/svg">
<path d="M0 80V128C0 145.7 14.3 160 32 160H48H96V80C96 53.5 74.5 32 48 32C21.5 32 0 53.5 0 80ZM112 32C122 45.4 128 62 128 80V384C128 419.3 156.7 448 192 448C227.3 448 256 419.3 256 384V378.7C256 346.3 282.3 320 314.7 320H480V128C480 75 437 32 384 32H112ZM464 480C525.9 480 576 429.9 576 368C576 359.2 568.8 352 560 352H314.7C300 352 288 363.9 288 378.7V384C288 437 245 480 192 480H368H464Z" fill="black"/>
</svg>
