<svg width="927" height="880" viewBox="0 0 927 880" fill="none" xmlns="http://www.w3.org/2000/svg">
<g clip-path="url(#clip0_3932_43704)">
<mask id="mask0_3932_43704" style="mask-type:luminance" maskUnits="userSpaceOnUse" x="0" y="0" width="927" height="880">
<path d="M927 0H0V880H927V0Z" fill="white"/>
</mask>
<g mask="url(#mask0_3932_43704)">
<mask id="mask1_3932_43704" style="mask-type:luminance" maskUnits="userSpaceOnUse" x="0" y="0" width="927" height="880">
<path d="M927 0H0V880H927V0Z" fill="white"/>
</mask>
<g mask="url(#mask1_3932_43704)">
<mask id="mask2_3932_43704" style="mask-type:luminance" maskUnits="userSpaceOnUse" x="0" y="0" width="927" height="880">
<path d="M927 0H0V880H927V0Z" fill="white"/>
</mask>
<g mask="url(#mask2_3932_43704)">
<mask id="mask3_3932_43704" style="mask-type:luminance" maskUnits="userSpaceOnUse" x="0" y="0" width="927" height="880">
<path d="M927 0H0V880H927V0Z" fill="white"/>
</mask>
<g mask="url(#mask3_3932_43704)">
<mask id="mask4_3932_43704" style="mask-type:luminance" maskUnits="userSpaceOnUse" x="0" y="0" width="927" height="880">
<path d="M927 0H0V880H927V0Z" fill="white"/>
</mask>
<g mask="url(#mask4_3932_43704)">
<mask id="mask5_3932_43704" style="mask-type:luminance" maskUnits="userSpaceOnUse" x="0" y="0" width="927" height="880">
<path d="M927 0H0V880H927V0Z" fill="white"/>
</mask>
<g mask="url(#mask5_3932_43704)">
<mask id="mask6_3932_43704" style="mask-type:luminance" maskUnits="userSpaceOnUse" x="0" y="0" width="927" height="880">
<path d="M927 0H0V880H927V0Z" fill="white"/>
</mask>
<g mask="url(#mask6_3932_43704)">
<mask id="mask7_3932_43704" style="mask-type:luminance" maskUnits="userSpaceOnUse" x="0" y="0" width="927" height="880">
<path d="M927 0H0V880H927V0Z" fill="white"/>
</mask>
<g mask="url(#mask7_3932_43704)">
<mask id="mask8_3932_43704" style="mask-type:luminance" maskUnits="userSpaceOnUse" x="0" y="0" width="927" height="880">
<path d="M927 0H0V880H927V0Z" fill="white"/>
</mask>
<g mask="url(#mask8_3932_43704)">
<mask id="mask9_3932_43704" style="mask-type:luminance" maskUnits="userSpaceOnUse" x="0" y="0" width="927" height="880">
<path d="M927 0H0V880H927V0Z" fill="white"/>
</mask>
<g mask="url(#mask9_3932_43704)">
<path d="M327.055 295.587V704.412C327.055 757.203 369.847 800 422.634 800H831.422C884.209 800 927.002 757.203 927.002 704.412V295.587C927.002 242.796 884.209 200 831.422 200H422.634C369.847 200 327.055 242.796 327.055 295.587Z" fill="black"/>
<path d="M127.07 504.412C127.07 557.367 169.699 600 222.65 600H232.577V295.588C232.577 293.968 232.599 292.353 232.639 290.742C232.681 289.131 232.743 287.523 232.827 285.922C232.91 284.32 233.013 282.723 233.137 281.131C233.262 279.538 233.406 277.951 233.571 276.369C233.735 274.787 233.921 273.211 234.126 271.64C234.33 270.069 234.554 268.503 234.797 266.943C235.041 265.383 235.304 263.831 235.586 262.283C235.869 260.735 236.17 259.191 236.491 257.656C236.811 256.12 237.152 254.593 237.51 253.07C237.868 251.547 238.245 250.03 238.641 248.521C239.036 247.012 239.449 245.511 239.881 244.015C240.313 242.52 240.764 241.031 241.232 239.55C242.169 236.589 243.178 233.658 244.255 230.758C245.333 227.857 246.48 224.989 247.695 222.154C248.91 219.319 250.192 216.517 251.54 213.752C252.888 210.986 254.301 208.258 255.778 205.566C257.254 202.875 258.794 200.221 260.395 197.607C261.996 194.994 263.657 192.42 265.379 189.888C267.1 187.357 268.881 184.868 270.718 182.424C272.555 179.979 274.448 177.578 276.397 175.224C278.346 172.87 280.35 170.562 282.406 168.302C284.463 166.043 286.572 163.834 288.732 161.674C290.892 159.513 293.101 157.404 295.36 155.347C297.619 153.291 299.928 151.285 302.282 149.336C304.635 147.386 307.036 145.493 309.48 143.656C311.925 141.819 314.413 140.037 316.944 138.316C319.475 136.595 322.047 134.933 324.66 133.332C327.274 131.731 329.928 130.191 332.619 128.715C335.31 127.238 338.039 125.824 340.804 124.476C343.569 123.128 346.371 121.846 349.205 120.631C352.04 119.415 354.908 118.267 357.808 117.189C360.708 116.111 363.639 115.102 366.6 114.166C368.081 113.697 369.57 113.246 371.065 112.814C372.56 112.382 374.061 111.969 375.57 111.574C377.079 111.178 378.596 110.801 380.118 110.443C381.641 110.085 383.169 109.744 384.704 109.424C386.239 109.103 387.781 108.802 389.329 108.519C390.876 108.237 392.431 107.974 393.99 107.73C395.55 107.486 397.116 107.261 398.687 107.056C400.258 106.852 401.834 106.668 403.415 106.504C404.997 106.339 406.585 106.194 408.177 106.07C409.769 105.946 411.365 105.843 412.967 105.76C414.569 105.676 416.176 105.614 417.787 105.572C419.398 105.53 421.013 105.508 422.632 105.508H727.018V95.5879C727.018 42.6323 684.389 0 631.438 0H222.65C169.699 0 127.07 42.6323 127.07 95.5879V504.412Z" fill="black"/>
<path d="M227.442 697.388C224.596 696.21 221.464 695.902 218.443 696.503C215.422 697.103 212.646 698.587 210.468 700.764L57.8421 853.404C55.664 855.583 54.1809 858.359 53.5802 861.381C52.9796 864.404 53.2884 867.536 54.4676 870.383C55.6468 873.23 57.6435 875.663 60.2052 877.375C62.7669 879.087 65.7786 880.001 68.8596 880.001H221.479C223.526 880.002 225.553 879.599 227.443 878.816C229.334 878.033 231.052 876.885 232.499 875.437C233.947 873.99 235.094 872.272 235.878 870.381C236.661 868.49 237.063 866.463 237.063 864.416V711.783C237.063 708.701 236.148 705.688 234.436 703.126C232.723 700.564 230.289 698.567 227.442 697.388ZM205.902 749.399V848.837H106.467L205.902 749.399Z" fill="black"/>
<path d="M221.483 711.777V864.414H68.8594L221.483 711.777Z" fill="black"/>
<path d="M12.0825 695.249C8.87828 698.455 7.07812 702.803 7.07812 707.336C7.07812 711.869 8.87828 716.217 12.0825 719.423L132.799 840.15C136.005 843.355 140.353 845.155 144.885 845.155C149.418 845.155 153.765 843.355 156.971 840.15L197.211 799.906C200.416 796.7 202.216 792.353 202.216 787.819C202.216 783.286 200.416 778.939 197.211 775.733L76.4945 655.005C73.2886 651.801 68.9414 650 64.4087 650C59.8759 650 55.5287 651.801 52.3228 655.005L12.0825 695.249ZM48.3484 707.336L64.4086 691.274L160.95 787.824L144.889 803.885L48.3484 707.336Z" fill="black"/>
<path d="M24.1719 707.34L64.4102 667.098L185.125 787.824L144.887 828.066L24.1719 707.34Z" fill="black"/>
</g>
</g>
</g>
</g>
</g>
</g>
</g>
</g>
</g>
</g>
</g>
<defs>
<clipPath id="clip0_3932_43704">
<rect width="927" height="880" fill="white"/>
</clipPath>
</defs>
</svg>
