<svg width="460" height="512" viewBox="0 0 460 512" fill="none" xmlns="http://www.w3.org/2000/svg">
<path d="M220.6 130.297L153.4 158.497V43.1969L98.7 233.497L153.4 209.297V339.597L220.6 130.297ZM137.4 33.5969L136.1 38.2969L120.9 91.1969C80.6 106.697 52 145.797 52 191.497C52 243.797 86.3 287.397 135.4 296.997V350.597C57.5 340.097 0 272.397 0 191.597C0 111.097 59.8 44.3969 137.4 33.5969ZM448.8 480.797C437.6 491.997 425.7 493.097 420.2 491.297C414.8 489.497 393.1 471.397 359.8 446.897C326.5 422.297 326.2 411.197 316.8 390.197C307.4 369.297 286.4 347.597 259.3 337.797L249.6 323.097C224.9 339.997 196.6 349.997 168.3 351.797L170.4 345.197L186.3 295.697C232.8 283.797 267.2 241.697 267.2 191.497C267.2 136.997 228.8 89.3969 171.2 84.3969V32.2969C254.4 37.3969 320 106.797 320 191.597C320 225.197 308.8 256.297 291 281.997L305.6 291.597C315.4 318.697 337.1 339.597 358 348.997C378.9 358.397 390.2 358.697 414.8 391.997C439.4 425.197 457.5 446.897 459.3 452.297C461.1 457.697 460 469.597 448.8 480.797ZM438.9 462.897C438.9 458.497 435.3 454.897 430.9 454.897C426.5 454.897 422.9 458.497 422.9 462.897C422.9 467.297 426.5 470.897 430.9 470.897C435.3 470.897 438.9 467.297 438.9 462.897Z" fill="black"/>
</svg>
