<svg width="640" height="512" viewBox="0 0 640 512" fill="none" xmlns="http://www.w3.org/2000/svg">
<path d="M539.712 237.308C542.776 225.051 544.002 212.487 544.002 199.924C544.002 107.382 468.62 32 376.078 32C298.858 32 231.444 85.012 213.058 159.781C197.736 146.605 178.124 139.251 157.901 139.251C111.63 139.251 73.9387 176.941 73.9387 223.212C73.9387 230.566 74.8587 238.227 77.0037 245.581C34.1037 265.806 6.21875 309.319 6.21875 356.815C6.21775 424.843 61.6817 480 129.403 480H510.601C578.321 480 633.785 424.843 633.785 356.816C633.786 300.432 594.869 250.791 539.712 237.308ZM199.882 401.554C199.882 409.828 192.834 416.875 184.561 416.875H153.612C145.338 416.875 138.291 409.827 138.291 401.554V290.626C138.291 282.353 145.339 275.305 153.612 275.305H184.561C192.835 275.305 199.882 282.353 199.882 290.626V401.554ZM289.359 401.554C289.359 409.828 282.311 416.875 274.037 416.875H243.088C234.814 416.875 227.767 409.827 227.767 401.554V270.096C227.767 261.822 234.815 254.775 243.088 254.775H274.037C282.311 254.775 289.359 261.823 289.359 270.096V401.554ZM378.836 401.554C378.836 409.828 371.789 416.875 363.515 416.875H332.566C324.292 416.875 317.244 409.827 317.244 401.554V238.84C317.244 230.566 324.292 223.519 332.566 223.519H363.515C371.789 223.519 378.836 230.567 378.836 238.84V401.554ZM465.863 401.554C465.863 409.828 458.815 416.875 450.541 416.875H422.044C413.77 416.875 406.723 409.827 406.723 401.554V176.941C406.723 168.362 413.77 161.313 422.044 161.313H450.541C458.815 161.313 465.863 168.361 465.863 176.941V401.554Z" fill="black"/>
</svg>
