<svg width="448" height="512" viewBox="0 0 448 512" fill="none" xmlns="http://www.w3.org/2000/svg">
<path d="M32 32C14.3 32 0 46.3 0 64V448C0 465.7 14.3 480 32 480C49.7 480 64 465.7 64 448V96H192C227.3 96 256 124.7 256 160V320C256 337.7 270.3 352 288 352C305.7 352 320 337.7 320 320V160C320 89.3 262.7 32 192 32H32ZM320 480C390.7 480 448 422.7 448 352V64C448 46.3 433.7 32 416 32C398.3 32 384 46.3 384 64V352C384 387.3 355.3 416 320 416H192V192C192 174.3 177.7 160 160 160C142.3 160 128 174.3 128 192V448C128 465.7 142.3 480 160 480H320Z" fill="black"/>
</svg>
