<svg width="512" height="512" viewBox="0 0 512 512" fill="none" xmlns="http://www.w3.org/2000/svg">
<path d="M269.4 2.9C265.2 1 260.7 0 256 0C251.3 0 246.8 1 242.6 2.9L54.3005 82.8C32.3005 92.1 15.9005 113.8 16.0005 140C16.5005 239.2 57.3005 420.7 229.6 503.2C246.3 511.2 265.7 511.2 282.4 503.2C454.7 420.7 495.5 239.2 496 140C496.1 113.8 479.7 92.1 457.7 82.8L269.4 2.9ZM160.9 286.2C165.7 287.4 170.8 288 176 288C211.3 288 240 259.3 240 224V160H284.2C296.3 160 307.4 166.8 312.8 177.7L320 192H384C392.8 192 400 199.2 400 208V240C400 284.2 364.2 320 320 320H272V370.7C272 378 266.1 384 258.7 384C256.9 384 255.1 383.6 253.5 382.9L154.8 340.6C148.2 337.8 144 331.3 144 324.2C144 321.4 144.6 318.7 145.9 316.2L160.9 286.2ZM160 160H200H208V192V224C208 241.7 193.7 256 176 256C158.3 256 144 241.7 144 224V176C144 167.2 151.2 160 160 160ZM288 208C288 203.757 286.315 199.687 283.314 196.686C280.314 193.686 276.244 192 272 192C267.757 192 263.687 193.686 260.687 196.686C257.686 199.687 256 203.757 256 208C256 212.243 257.686 216.313 260.687 219.314C263.687 222.314 267.757 224 272 224C276.244 224 280.314 222.314 283.314 219.314C286.315 216.313 288 212.243 288 208Z" fill="black"/>
</svg>
