<svg width="512" height="512" viewBox="0 0 512 512" fill="none" xmlns="http://www.w3.org/2000/svg">
<path d="M269.4 2.9C265.2 1 260.7 0 256 0C251.3 0 246.8 1 242.6 2.9L54.3005 82.8C32.3005 92.1 15.9005 113.8 16.0005 140C16.5005 239.2 57.3005 420.7 229.6 503.2C246.3 511.2 265.7 511.2 282.4 503.2C454.7 420.7 495.5 239.2 496 140C496.1 113.8 479.7 92.1 457.7 82.8L269.4 2.9ZM144 221.3C144 187.5 171.4 160 205.3 160C221.5 160 237.1 166.5 248.6 177.9L256 185.3L263.4 177.9C274.9 166.4 290.5 160 306.7 160C340.5 160 368 187.4 368 221.3C368 237.5 361.5 253.1 350.1 264.6L267.4 347.3C261.2 353.5 251 353.5 244.8 347.3L162.1 264.6C150.6 253.1 144.2 237.5 144.2 221.3H144Z" fill="black"/>
</svg>
