<svg width="512" height="512" viewBox="0 0 512 512" fill="none" xmlns="http://www.w3.org/2000/svg">
<g clip-path="url(#clip0_3932_44301)">
<mask id="mask0_3932_44301" style="mask-type:luminance" maskUnits="userSpaceOnUse" x="0" y="0" width="512" height="512">
<path d="M512 0H0V512H512V0Z" fill="white"/>
</mask>
<g mask="url(#mask0_3932_44301)">
<mask id="mask1_3932_44301" style="mask-type:luminance" maskUnits="userSpaceOnUse" x="0" y="0" width="512" height="512">
<path d="M512 0H0V512H512V0Z" fill="white"/>
</mask>
<g mask="url(#mask1_3932_44301)">
<mask id="mask2_3932_44301" style="mask-type:luminance" maskUnits="userSpaceOnUse" x="0" y="0" width="512" height="512">
<path d="M512 0H0V512H512V0Z" fill="white"/>
</mask>
<g mask="url(#mask2_3932_44301)">
<mask id="mask3_3932_44301" style="mask-type:luminance" maskUnits="userSpaceOnUse" x="0" y="0" width="512" height="512">
<path d="M512 0H0V512H512V0Z" fill="white"/>
</mask>
<g mask="url(#mask3_3932_44301)">
<mask id="mask4_3932_44301" style="mask-type:luminance" maskUnits="userSpaceOnUse" x="0" y="0" width="512" height="512">
<path d="M512 0H0V512H512V0Z" fill="white"/>
</mask>
<g mask="url(#mask4_3932_44301)">
<mask id="mask5_3932_44301" style="mask-type:luminance" maskUnits="userSpaceOnUse" x="0" y="0" width="512" height="512">
<path d="M512 0H0V512H512V0Z" fill="white"/>
</mask>
<g mask="url(#mask5_3932_44301)">
<mask id="mask6_3932_44301" style="mask-type:luminance" maskUnits="userSpaceOnUse" x="0" y="0" width="512" height="512">
<path d="M512 0H0V512H512V0Z" fill="white"/>
</mask>
<g mask="url(#mask6_3932_44301)">
<mask id="mask7_3932_44301" style="mask-type:luminance" maskUnits="userSpaceOnUse" x="0" y="0" width="512" height="512">
<path d="M512 0H0V512H512V0Z" fill="white"/>
</mask>
<g mask="url(#mask7_3932_44301)">
<mask id="mask8_3932_44301" style="mask-type:luminance" maskUnits="userSpaceOnUse" x="0" y="0" width="512" height="512">
<path d="M512 0H0V512H512V0Z" fill="white"/>
</mask>
<g mask="url(#mask8_3932_44301)">
<mask id="mask9_3932_44301" style="mask-type:luminance" maskUnits="userSpaceOnUse" x="0" y="0" width="512" height="512">
<path d="M512 0H0V512H512V0Z" fill="white"/>
</mask>
<g mask="url(#mask9_3932_44301)">
<mask id="mask10_3932_44301" style="mask-type:luminance" maskUnits="userSpaceOnUse" x="0" y="0" width="512" height="512">
<path d="M512 0H0V512H512V0Z" fill="white"/>
</mask>
<g mask="url(#mask10_3932_44301)">
<mask id="mask11_3932_44301" style="mask-type:luminance" maskUnits="userSpaceOnUse" x="0" y="0" width="512" height="512">
<path d="M512 0H0V512H512V0Z" fill="white"/>
</mask>
<g mask="url(#mask11_3932_44301)">
<mask id="mask12_3932_44301" style="mask-type:luminance" maskUnits="userSpaceOnUse" x="0" y="0" width="512" height="512">
<path d="M512 0H0V512H512V0Z" fill="white"/>
</mask>
<g mask="url(#mask12_3932_44301)">
<mask id="mask13_3932_44301" style="mask-type:luminance" maskUnits="userSpaceOnUse" x="0" y="0" width="512" height="512">
<path d="M512 0H0V512H512V0Z" fill="white"/>
</mask>
<g mask="url(#mask13_3932_44301)">
<path d="M404.9 331C407.1 329.9 409.3 328.7 411.4 327.3L419.7 322.5C421.2 321.4 424.1 319.1 428.4 315.8L428.9 315.3C432.3 311.9 436.1 310.3 440.2 310.4C442 310.4 444.1 310.9 446.6 311.9L477.6 284.4C478.5 283.7 479.3 283.1 480.2 282.6H480.4C483.7 280.7 486.4 280.8 488.6 283C492.5 285.1 492.8 288.6 489.5 293.6L456.9 322C457.1 322.5 457.3 323 457.3 323.5C457.8 325.7 457.6 327.9 456.8 330.1C456.1 331.6 455 333 453.7 334.3C452.3 335.7 451 337.1 449.5 338.5L430.7 352.2C429 353.4 427.3 354.5 425.6 355.5C423.5 356.8 421.3 358 419 359.1C418 359.5 417.1 360 416.1 360.4C410.2 362.9 404.2 364.6 397.9 365.4C395 389.9 386.6 412.5 372.8 433.2C355.3 458.9 331.4 478.6 301 492C270.8 505.5 238 512.2 202.8 512.2C154.2 511.7 114.8 500.8 84.6 479.4C49.5 454.4 32 421.5 32 380.3V374.7C33.2 346.6 41.5 320.1 56.8 294.9C71.9 270 93.9 253.2 122.9 244.4C137.8 240 152.8 237.8 167.9 237.8C183.4 237.8 199.5 240.7 216 246.4C232.5 252.1 251.2 261.9 271.9 275.9L326 312.2C341.1 322 354.8 328.7 367.2 332.2C364.6 307.1 355.5 285.6 339.9 267.7C324.2 249.6 304.3 236.4 280 228L256.7 220C235.3 212.5 219.4 205.1 209 197.8C180.8 178.7 165.2 152.6 162 119.3L161.5 109.5C161.5 77.4 174.5 50.6 200.5 29C223.5 9.7 251.1 0 283 0C307 0 328.6 6.9 347.7 20.8C366.9 34.8 377.8 54.6 380.3 80.2L380.8 90.2C380.8 108.8 376 124.7 366.4 137.9C356.6 151.1 347.9 157.8 340.4 157.8C338.8 157.7 337.3 157.5 335.9 157.2L301.9 189.2C296.4 192.2 292.7 191.7 290.8 187.6C288.9 185.4 289 182.7 291.3 179.4L291.5 179.2C292 178.5 292.7 177.7 293.5 176.8L325.1 146.8C324.7 145.3 324.5 143.7 324.5 142C324.5 137.9 326.1 134.4 329.4 131.6C343.2 119.2 350.2 104.9 350.2 88.8C350.2 72.8 344.1 59.3 332 48.4C319.9 37.5 303.3 31.9 282.3 31.6C256.1 31.6 234.5 39.5 217.6 55.3C200.7 71.1 192.3 89.9 192.3 112C192.3 129.8 199.2 145.9 212.9 160.3C226.5 174.5 247.5 185.7 275.9 193.8C315.7 205.3 346.1 224.8 367.2 252.1C385.9 276.3 396.3 303.4 398.5 333.5C400.7 332.8 402.8 332 405 330.9L404.9 331ZM294.1 178.7C294.1 179.8 294.7 180.3 295.9 180.3C296 180.3 305.6 171.4 324.7 153.7C324.7 151.3 319.6 154.6 309.4 163.7C299.2 172.9 294.1 177.9 294.1 178.6V178.7ZM302.1 185.1C302.1 184.1 301.6 183.6 300.6 183.6C299.5 183.6 298.5 184.1 297.7 185.2C295.8 185.1 294.4 185.3 293.5 185.9C293.1 186.1 293 186.4 293 186.6C293 187.3 293.5 187.9 294.5 188.2H297.8C300.7 187.1 302.2 186 302.2 184.9L302.1 185.1ZM324.7 165.2C324.7 162.4 323.1 162.4 319.8 165.2C318.2 166.7 316.2 168.7 313.8 171.4C313 172 311.2 173.6 308.5 176.3C305.7 179.2 304.3 181 304.3 181.6L304.5 182.9C305.2 183.1 305.7 183.3 306 183.3C306.1 183.3 309.3 180.4 315.5 174.6C321.7 168.8 324.8 165.7 324.8 165.3L324.7 165.2ZM484.4 285.2L453.8 312.2C455.6 313.2 457 314.6 457.8 316.4L488 289.4C488.2 288.2 488.1 287.2 487.5 286.5C486.9 286 485.9 285.6 484.4 285.2ZM482.8 284.3L482.1 283.6L455.1 305.5L456.7 307.5L482.7 284.4L482.8 284.3ZM366.6 363.9C358.6 361.8 351.2 359.3 344.4 356.4C329.1 350.2 310.1 339.4 287.4 324L250 298.7C234.2 288.6 219.8 281.1 206.8 276.1C193.7 271.2 180.8 268.8 168.2 268.8H162.7C130.5 270.5 105.5 282.6 87.7 305C71.1 325.8 62.7 350.3 62.7 378.6C62.7 410.4 75.5 435.3 100.9 453.3C126.3 471.4 161.1 480.4 205.3 480.4C240 480.4 269.3 474.2 293.1 461.8C316.8 449.4 335.2 433 348.3 412.6C358.1 397.1 364.2 380.8 366.5 363.8L366.6 363.9Z" fill="black"/>
</g>
</g>
</g>
</g>
</g>
</g>
</g>
</g>
</g>
</g>
</g>
</g>
</g>
</g>
</g>
<defs>
<clipPath id="clip0_3932_44301">
<rect width="512" height="512" fill="white"/>
</clipPath>
</defs>
</svg>
