<svg width="512" height="512" viewBox="0 0 512 512" fill="none" xmlns="http://www.w3.org/2000/svg">
<path d="M403.5 455.41C360.864 487.097 309.121 504.142 256 504C118.81 504 8 393 8 256C8 118.81 119 8.00009 256 8.00009C317.185 7.94768 376.22 30.5709 421.7 71.5001C422.261 72.0114 422.645 72.6883 422.795 73.4326C422.946 74.1768 422.855 74.9496 422.536 75.6387C422.217 76.3278 421.687 76.8972 421.022 77.2643C420.357 77.6314 419.593 77.7771 418.84 77.6801C400.042 75.1703 381.095 73.9408 362.13 74.0001C232.77 74.0001 139.73 127.47 139.73 229.35C139.73 338.35 231.86 375.23 316.56 408.08C350.2 421.08 381.96 433.44 403.56 449.67C404.003 450.004 404.363 450.436 404.61 450.932C404.858 451.428 404.987 451.975 404.987 452.53C404.987 453.085 404.858 453.632 404.61 454.128C404.363 454.624 404.003 455.056 403.56 455.39L403.5 455.41ZM503 233.09C502.912 232.142 502.456 231.266 501.73 230.65C449.97 187.65 408.11 170.17 357.25 170.17C273.12 170.17 277 222.34 277 223.8C277 266.4 329.06 285.8 389.34 308.29C420.41 319.88 452.53 331.86 482.02 348.22C482.463 348.457 482.95 348.598 483.451 348.634C483.952 348.67 484.455 348.6 484.927 348.428C485.399 348.256 485.829 347.987 486.19 347.637C486.55 347.288 486.833 346.866 487.02 346.4C501.071 310.383 506.542 271.588 503 233.09Z" fill="black"/>
</svg>
