<svg width="448" height="512" viewBox="0 0 448 512" fill="none" xmlns="http://www.w3.org/2000/svg">
<path d="M388.321 104.1C388.169 103.025 387.646 102.037 386.842 101.307C386.039 100.577 385.006 100.15 383.921 100.1C381.921 100.1 346.691 99.3 346.691 99.3C346.691 99.3 325.081 78.48 317.071 70.47V503.2L442.761 472C442.761 472 388.721 106.5 388.321 104.1ZM288.651 70.47C286.731 64.4135 284.32 58.5239 281.441 52.86C271.001 32.85 255.421 22 237.001 22C235.656 21.9533 234.311 22.0878 233.001 22.4C232.601 21.6 231.801 21.2 231.401 20.4C223.401 11.63 213.001 7.63003 200.581 8.00003C176.581 8.80003 152.581 26 133.331 56.83C119.721 78.45 109.331 105.67 106.511 126.89C78.8913 135.29 59.6813 141.3 59.2812 141.7C45.2812 146.1 44.8713 146.5 43.2812 159.7C42.0812 169.7 5.28125 451.52 5.28125 451.52L307.861 504V65.67C306.389 65.7254 304.92 65.859 303.461 66.07C303.461 66.07 297.861 67.67 288.651 70.47ZM233.411 87.69C217.411 92.49 199.781 98.09 182.571 103.3C187.371 84.48 196.981 65.67 208.191 53.3C212.591 48.9 218.601 43.69 225.401 40.49C232.211 54.86 233.811 74.48 233.411 87.69ZM200.581 24.44C205.624 24.2811 210.612 25.5127 215.001 28C208.601 31.2 202.191 36.41 196.191 42.41C180.981 58.83 169.371 84.41 164.571 108.86C150.151 113.27 135.741 117.67 122.571 121.67C131.331 83.28 163.751 25.24 200.581 24.44ZM154.151 244.61C155.751 270.22 223.401 275.83 227.401 336.27C230.201 383.91 202.181 416.33 161.751 418.74C112.921 421.94 86.1012 393.12 86.1012 393.12L96.5013 349.12C96.5013 349.12 123.321 369.54 144.941 367.94C158.941 367.14 164.161 355.53 163.751 347.52C161.751 313.9 106.511 315.9 102.911 260.66C99.7113 214.22 130.131 167.39 197.381 162.98C223.381 161.38 236.611 167.79 236.611 167.79L221.401 225.39C221.401 225.39 204.191 217.39 183.771 218.99C154.151 221 153.751 239.8 154.151 244.61ZM249.421 82.88C249.421 70.88 247.821 53.66 242.211 39.25C260.631 42.85 269.431 63.25 273.441 75.68C266.235 77.68 258.228 80.08 249.421 82.88Z" fill="black"/>
</svg>
