<svg width="512" height="512" viewBox="0 0 512 512" fill="none" xmlns="http://www.w3.org/2000/svg">
<path d="M64 32C28.7 32 0 60.7 0 96C0 131.3 28.7 160 64 160H65C68.7 248.9 142 320 232 320H288V128H264H88.8H64C46.3 128 32 113.7 32 96C32 78.3 46.3 64 64 64H464C472.8 64 480 56.8 480 48C480 39.2 472.8 32 464 32H64ZM224 456C224 469.3 234.7 480 248 480H320V407.8L255.9 385.4C243.4 381 229.7 387.6 225.3 400.1C220.9 412.6 227.5 426.3 240 430.7L244.5 432.3C233 433.9 224 443.9 224 456ZM352 479.3C388.4 476 421.5 461.7 448.1 439.7L361.6 405.1C358.6 406.9 355.4 408.3 352 409.4V479.3ZM472.6 415C497.2 384.7 512 346.1 512 304C512 291.7 510.7 279.7 508.3 268.1L382.8 355.1C383.6 358.5 384 362.1 384 365.7C384 370.3 383.3 374.7 382.1 378.8L472.6 415ZM336 128H320V320H338.3C348.2 320 357.4 323.2 364.9 328.5L498.4 236.1C471.8 172.6 409.1 128 336 128ZM168 192C168 185.635 170.529 179.53 175.029 175.029C179.53 170.529 185.635 168 192 168C198.365 168 204.47 170.529 208.971 175.029C213.471 179.53 216 185.635 216 192C216 198.365 213.471 204.47 208.971 208.971C204.47 213.471 198.365 216 192 216C185.635 216 179.53 213.471 175.029 208.971C170.529 204.47 168 198.365 168 192Z" fill="black"/>
</svg>
