<svg width="640" height="512" viewBox="0 0 640 512" fill="none" xmlns="http://www.w3.org/2000/svg">
<path d="M192 128C192 110.3 206.3 96 224 96C241.7 96 256 110.3 256 128V135.8C256 163.5 253.6 191.1 248.9 218.3L164.5 243.6C123.9 255.8 96.1 293.2 96.1 335.6V407.5C96.1 447.5 128.6 480 168.6 480C194.6 480 218.6 466.1 231.5 443.5L245.4 419.2C272.2 372.2 291.9 321.5 303.8 268.7L398.2 240.4L385.7 277.9C382.4 287.7 384.1 298.4 390.1 306.7C396.1 315 405.8 320 416.1 320H544C561.7 320 576 305.7 576 288C576 270.3 561.7 256 544 256H460.4L478.4 202.1C482.2 190.8 479.3 178.3 471 169.7C462.7 161.1 450.3 157.9 438.8 161.3L316.4 198.1C318.8 177.4 320 156.7 320 135.8V128C320 75 277 32 224 32C171 32 128 75 128 128V160C128 177.7 142.3 192 160 192C177.7 192 192 177.7 192 160V128ZM182.8 305L231.8 290.3C221.4 324.1 207.3 356.7 189.7 387.5L175.8 411.8C174.3 414.4 171.5 416.1 168.4 416.1C163.7 416.1 159.9 412.3 159.9 407.6V335.6C159.9 321.5 169.2 309 182.7 304.9L182.8 305ZM24 368C10.7 368 0 378.7 0 392C0 405.3 10.7 416 24 416H64.3C64.1 413.2 64 410.4 64 407.5V368H24ZM616 416C629.3 416 640 405.3 640 392C640 378.7 629.3 368 616 368H305.9C299.2 384.3 291.7 400.3 283.6 416H616Z" fill="black"/>
</svg>
