<svg width="640" height="512" viewBox="0 0 640 512" fill="none" xmlns="http://www.w3.org/2000/svg">
<path d="M576 0C593.7 0 608 14.3 608 32V480C608 497.7 593.7 512 576 512C558.3 512 544 497.7 544 480V32C544 14.3 558.3 0 576 0ZM448 96C465.7 96 480 110.3 480 128V480C480 497.7 465.7 512 448 512C430.3 512 416 497.7 416 480V128C416 110.3 430.3 96 448 96ZM352 224V480C352 497.7 337.7 512 320 512C302.3 512 288 497.7 288 480V224C288 206.3 302.3 192 320 192C337.7 192 352 206.3 352 224ZM192 288C209.7 288 224 302.3 224 320V480C224 497.7 209.7 512 192 512C174.3 512 160 497.7 160 480V320C160 302.3 174.3 288 192 288ZM96 416V480C96 497.7 81.7 512 64 512C46.3 512 32 497.7 32 480V416C32 398.3 46.3 384 64 384C81.7 384 96 398.3 96 416Z" fill="black"/>
</svg>
