<svg width="512" height="512" viewBox="0 0 512 512" fill="none" xmlns="http://www.w3.org/2000/svg">
<path d="M223.998 32H63.9984C46.2984 32 31.9984 46.3 31.9984 64V128C31.9984 145.7 46.2984 160 63.9984 160H441.398C445.598 160 449.698 158.3 452.698 155.3L500.698 107.3C506.898 101.1 506.898 90.9 500.698 84.7L452.698 36.7C449.698 33.7 445.598 32 441.398 32H287.998C287.998 14.3 273.698 0 255.998 0C238.298 0 223.998 14.3 223.998 32ZM479.998 256C479.998 238.3 465.698 224 447.998 224H287.998V192H223.998V224H70.5984C66.3984 224 62.2984 225.7 59.2984 228.7L11.2984 276.7C5.09845 282.9 5.09845 293.1 11.2984 299.3L59.2984 347.3C62.2984 350.3 66.3984 352 70.5984 352H447.998C465.698 352 479.998 337.7 479.998 320V256ZM287.998 480V384H223.998V480C223.998 497.7 238.298 512 255.998 512C273.698 512 287.998 497.7 287.998 480Z" fill="black"/>
</svg>
