<svg width="512" height="512" viewBox="0 0 512 512" fill="none" xmlns="http://www.w3.org/2000/svg">
<g clip-path="url(#clip0_3932_44661)">
<mask id="mask0_3932_44661" style="mask-type:luminance" maskUnits="userSpaceOnUse" x="0" y="0" width="512" height="512">
<path d="M512 0H0V512H512V0Z" fill="white"/>
</mask>
<g mask="url(#mask0_3932_44661)">
<mask id="mask1_3932_44661" style="mask-type:luminance" maskUnits="userSpaceOnUse" x="0" y="0" width="512" height="512">
<path d="M512 0H0V512H512V0Z" fill="white"/>
</mask>
<g mask="url(#mask1_3932_44661)">
<mask id="mask2_3932_44661" style="mask-type:luminance" maskUnits="userSpaceOnUse" x="0" y="0" width="512" height="512">
<path d="M512 0H0V512H512V0Z" fill="white"/>
</mask>
<g mask="url(#mask2_3932_44661)">
<mask id="mask3_3932_44661" style="mask-type:luminance" maskUnits="userSpaceOnUse" x="0" y="0" width="512" height="512">
<path d="M512 0H0V512H512V0Z" fill="white"/>
</mask>
<g mask="url(#mask3_3932_44661)">
<mask id="mask4_3932_44661" style="mask-type:luminance" maskUnits="userSpaceOnUse" x="0" y="0" width="512" height="512">
<path d="M512 0H0V512H512V0Z" fill="white"/>
</mask>
<g mask="url(#mask4_3932_44661)">
<mask id="mask5_3932_44661" style="mask-type:luminance" maskUnits="userSpaceOnUse" x="0" y="0" width="512" height="512">
<path d="M512 0H0V512H512V0Z" fill="white"/>
</mask>
<g mask="url(#mask5_3932_44661)">
<mask id="mask6_3932_44661" style="mask-type:luminance" maskUnits="userSpaceOnUse" x="0" y="0" width="512" height="512">
<path d="M512 0H0V512H512V0Z" fill="white"/>
</mask>
<g mask="url(#mask6_3932_44661)">
<mask id="mask7_3932_44661" style="mask-type:luminance" maskUnits="userSpaceOnUse" x="0" y="0" width="512" height="512">
<path d="M512 0H0V512H512V0Z" fill="white"/>
</mask>
<g mask="url(#mask7_3932_44661)">
<mask id="mask8_3932_44661" style="mask-type:luminance" maskUnits="userSpaceOnUse" x="0" y="0" width="512" height="512">
<path d="M512 0H0V512H512V0Z" fill="white"/>
</mask>
<g mask="url(#mask8_3932_44661)">
<mask id="mask9_3932_44661" style="mask-type:luminance" maskUnits="userSpaceOnUse" x="0" y="0" width="512" height="512">
<path d="M512 0H0V512H512V0Z" fill="white"/>
</mask>
<g mask="url(#mask9_3932_44661)">
<mask id="mask10_3932_44661" style="mask-type:luminance" maskUnits="userSpaceOnUse" x="0" y="0" width="512" height="512">
<path d="M512 0H0V512H512V0Z" fill="white"/>
</mask>
<g mask="url(#mask10_3932_44661)">
<mask id="mask11_3932_44661" style="mask-type:luminance" maskUnits="userSpaceOnUse" x="0" y="0" width="512" height="512">
<path d="M512 0H0V512H512V0Z" fill="white"/>
</mask>
<g mask="url(#mask11_3932_44661)">
<mask id="mask12_3932_44661" style="mask-type:luminance" maskUnits="userSpaceOnUse" x="0" y="0" width="512" height="512">
<path d="M512 0H0V512H512V0Z" fill="white"/>
</mask>
<g mask="url(#mask12_3932_44661)">
<mask id="mask13_3932_44661" style="mask-type:luminance" maskUnits="userSpaceOnUse" x="0" y="0" width="512" height="512">
<path d="M512 0H0V512H512V0Z" fill="white"/>
</mask>
<g mask="url(#mask13_3932_44661)">
<path d="M194.597 7.50157L200.397 30.8016C177.697 36.3016 155.997 45.3016 135.997 57.4016L123.697 36.8016C145.697 23.5016 169.597 13.6016 194.597 7.50157ZM317.497 7.50157L311.697 30.8016C334.297 36.3016 355.997 45.3016 375.997 57.4016L388.397 36.8016C366.397 23.5016 342.397 13.6016 317.397 7.50157H317.497ZM36.7969 123.701C23.4969 145.701 13.5969 169.601 7.49687 194.601L30.7969 200.401C36.2969 177.701 45.2969 156.001 57.3969 136.001L36.7969 123.701ZM23.9969 256.001C23.9969 244.401 24.8969 232.701 26.5969 221.201L2.89687 217.601C-0.903123 243.001 -0.903123 268.901 2.89687 294.301L26.5969 290.702C24.8969 279.302 23.9969 267.601 23.9969 256.001ZM388.297 475.202L375.997 454.601C355.997 466.702 334.397 475.601 311.797 481.202L317.597 504.501C342.497 498.301 366.397 488.501 388.397 475.202H388.297ZM487.997 256.001C487.997 267.601 487.097 279.301 485.397 290.801L509.097 294.401C512.897 269.001 512.897 243.101 509.097 217.701L485.397 221.301C487.097 232.801 487.997 244.401 487.997 256.101V256.001ZM504.497 317.401L481.197 311.601C475.597 334.302 466.697 355.901 454.597 375.901L475.197 388.301C488.497 366.301 498.397 342.301 504.497 317.301V317.401ZM290.697 485.401C267.697 488.901 244.197 488.901 221.197 485.401L217.597 509.101C242.997 512.902 268.897 512.902 294.297 509.101L290.697 485.401ZM442.697 393.601C428.897 412.302 412.297 428.902 393.497 442.702L407.697 462.001C428.397 446.801 446.697 428.601 461.897 407.901L442.597 393.501L442.697 393.601ZM393.597 69.2016C412.397 83.0016 428.897 99.6016 442.797 118.401L462.097 104.001C446.897 83.4016 428.597 65.1016 407.997 49.9016L393.597 69.2016ZM69.1969 118.401C82.9969 99.6016 99.5969 83.1016 118.397 69.2016L103.997 49.9016C83.3969 65.1016 65.0969 83.4016 49.8969 104.001L69.1969 118.401ZM475.197 123.701L454.597 136.001C466.697 156.001 475.597 177.601 481.197 200.201L504.497 194.401C498.297 169.501 488.497 145.601 475.197 123.601V123.701ZM221.197 26.6016C244.197 23.1016 267.697 23.1016 290.697 26.6016L294.297 2.90157C268.897 -0.99844 243.097 -0.99844 217.597 2.90157L221.197 26.6016ZM81.5969 468.401L31.9969 480.001L43.5969 430.401L20.1969 425.001L8.59688 474.501C7.69688 478.501 7.79687 482.601 8.89687 486.601C9.99687 490.601 12.0969 494.101 14.9969 497.001C17.8969 499.901 21.4969 502.001 25.3969 503.101C29.2969 504.202 33.4969 504.301 37.4969 503.401L86.9969 492.001L81.5969 468.401ZM25.1969 403.601L48.5969 409.001L56.5969 374.601C44.8969 355.001 36.1969 333.802 30.7969 311.601L7.49687 317.401C12.6969 338.601 20.6969 359.101 31.0969 378.202L25.1969 403.501V403.601ZM137.197 455.601L102.797 463.601L108.197 487.001L133.497 481.101C152.697 491.501 173.097 499.501 194.297 504.702L200.097 481.401C177.997 475.901 156.797 467.101 137.297 455.401L137.097 455.601H137.197ZM255.997 48.0016C218.797 48.0016 182.397 58.0016 150.397 76.9016C118.397 95.8016 91.9969 122.901 74.0969 155.501C56.1969 188.101 47.1969 224.801 48.2969 261.901C49.3969 299.001 60.2969 335.202 80.0969 366.702L59.9969 452.001L145.297 432.001C172.597 449.202 203.497 459.801 235.597 463.001C267.697 466.202 300.097 461.901 330.197 450.401C360.297 438.901 387.397 420.601 409.197 396.801C430.997 373.001 446.997 344.601 455.997 313.601C464.997 282.601 466.497 250.001 460.697 218.301C454.897 186.601 441.697 156.701 422.297 130.901C402.897 105.101 377.797 84.2016 348.897 69.9016C319.997 55.6016 288.297 48.0016 255.997 48.0016Z" fill="black"/>
</g>
</g>
</g>
</g>
</g>
</g>
</g>
</g>
</g>
</g>
</g>
</g>
</g>
</g>
</g>
<defs>
<clipPath id="clip0_3932_44661">
<rect width="512" height="512" fill="white"/>
</clipPath>
</defs>
</svg>
