<svg width="512" height="512" viewBox="0 0 512 512" fill="none" xmlns="http://www.w3.org/2000/svg">
<path d="M481.197 64H375.197C360.697 64 348.597 75.8 348.597 90.3V129.9H163.297V90.3C163.297 75.8 151.297 64 136.697 64H30.6969C16.0969 64 4.29688 75.8 4.29688 90.3V421.7C4.29688 436.2 16.0969 448 30.8969 448H481.297C496.097 448 507.897 436.2 507.897 421.7V90.3C507.697 75.8 495.897 64 481.197 64ZM149.797 355.8C113.197 355.8 83.3969 326.1 83.3969 289.4C83.3969 252.5 113.097 222.8 149.797 222.8C186.697 222.8 216.397 252.5 216.397 289.4C216.397 326.1 186.697 355.8 149.797 355.8ZM362.197 355.8C325.297 355.8 295.597 326.1 295.597 289.2C295.597 252.6 325.297 222.8 362.197 222.8C398.797 222.8 428.597 252.5 428.597 289.2C428.597 326.1 398.797 355.8 362.197 355.8Z" fill="black"/>
</svg>
