<svg width="448" height="512" viewBox="0 0 448 512" fill="none" xmlns="http://www.w3.org/2000/svg">
<path d="M448 449.002L301.2 300.202C321.2 272.302 333.1 238.002 333.1 201.002C333.1 107.902 258.4 32.1017 166.6 32.1017C74.7 32.0017 0 107.802 0 200.902C0 294.002 74.7 369.802 166.5 369.802C206.3 369.802 242.8 355.602 271.5 331.902L417.5 480.002L448 449.002ZM166.5 330.802C95.9 330.802 38.4 272.502 38.4 200.902C38.4 129.302 95.9 71.0017 166.5 71.0017C237.1 71.0017 294.6 129.302 294.6 200.902C294.6 272.502 237.2 330.802 166.5 330.802Z" fill="black"/>
</svg>
