<svg width="448" height="512" viewBox="0 0 448 512" fill="none" xmlns="http://www.w3.org/2000/svg">
<path d="M0 32L69.71 150.75L10.85 139.23L80.69 230.26C77.66 247.276 77.66 264.694 80.69 281.71L10.85 372.74L69.71 361.22L0 480L118.75 410.29L107.23 469.15L198.26 399.31C215.28 402.35 232.73 402.35 249.74 399.31L340.77 469.15L329.25 410.29L448 480L378.29 361.22L437.15 372.74L367.31 281.71C370.34 264.7 370.35 247.27 367.31 230.26L437.15 139.23L378.29 150.75L448 32L329.25 101.71L340.77 42.81L249.71 112.68C241.21 111.16 232.61 110.39 224 110.39C215.39 110.39 206.79 111.17 198.29 112.68L107.23 42.81L118.75 101.71L0 32ZM224 131.78C255.8 131.78 287.6 143.9 311.85 168.15C360.35 216.65 360.34 295.36 311.85 343.85C263.36 392.34 184.65 392.31 136.15 343.82C87.65 295.32 87.66 216.61 136.15 168.12C160.39 143.87 192.2 131.78 224 131.78ZM224 168.44C201.58 168.44 179.17 176.96 162.08 194.05C127.9 228.23 127.89 283.73 162.08 317.92C196.27 352.11 251.73 352.1 285.92 317.92C320.1 283.74 320.11 228.24 285.92 194.05C268.83 176.96 246.42 168.44 224 168.44Z" fill="black"/>
</svg>
