<svg width="512" height="512" viewBox="0 0 512 512" fill="none" xmlns="http://www.w3.org/2000/svg">
<path d="M27.5 162.2L9 187.1H99.5L106.4 56.4L27.5 162.2ZM396.3 45.7L267.7 32L403.4 179.2L396.3 45.7ZM112.2 218.3L101 196.3H9.9L234.8 458L112.2 218.3ZM114.2 187.1H398.2L316.7 98.6L256.3 33L114.2 187.1ZM411.5 196.2L277.6 458L502.4 196.3H411.5V196.2ZM415.4 69L406 56.4L406.9 73.7L413 187.1H503.3L415.4 69ZM113.5 93.5L108.9 179.1L244.7 32L116.1 45.7L113.5 93.5ZM401.2 196.2H111.2L153.6 279.1L256.3 480L401.2 196.2Z" fill="black"/>
</svg>
