<svg width="448" height="512" viewBox="0 0 448 512" fill="none" xmlns="http://www.w3.org/2000/svg">
<g clip-path="url(#clip0_3932_45023)">
<mask id="mask0_3932_45023" style="mask-type:luminance" maskUnits="userSpaceOnUse" x="0" y="0" width="448" height="512">
<path d="M448 0H0V512H448V0Z" fill="white"/>
</mask>
<g mask="url(#mask0_3932_45023)">
<mask id="mask1_3932_45023" style="mask-type:luminance" maskUnits="userSpaceOnUse" x="0" y="0" width="448" height="512">
<path d="M448 0H0V512H448V0Z" fill="white"/>
</mask>
<g mask="url(#mask1_3932_45023)">
<mask id="mask2_3932_45023" style="mask-type:luminance" maskUnits="userSpaceOnUse" x="0" y="0" width="448" height="512">
<path d="M448 0H0V512H448V0Z" fill="white"/>
</mask>
<g mask="url(#mask2_3932_45023)">
<mask id="mask3_3932_45023" style="mask-type:luminance" maskUnits="userSpaceOnUse" x="0" y="0" width="448" height="512">
<path d="M448 0H0V512H448V0Z" fill="white"/>
</mask>
<g mask="url(#mask3_3932_45023)">
<mask id="mask4_3932_45023" style="mask-type:luminance" maskUnits="userSpaceOnUse" x="0" y="0" width="448" height="512">
<path d="M448 0H0V512H448V0Z" fill="white"/>
</mask>
<g mask="url(#mask4_3932_45023)">
<mask id="mask5_3932_45023" style="mask-type:luminance" maskUnits="userSpaceOnUse" x="0" y="0" width="448" height="512">
<path d="M448 0H0V512H448V0Z" fill="white"/>
</mask>
<g mask="url(#mask5_3932_45023)">
<mask id="mask6_3932_45023" style="mask-type:luminance" maskUnits="userSpaceOnUse" x="0" y="0" width="448" height="512">
<path d="M448 0H0V512H448V0Z" fill="white"/>
</mask>
<g mask="url(#mask6_3932_45023)">
<mask id="mask7_3932_45023" style="mask-type:luminance" maskUnits="userSpaceOnUse" x="0" y="0" width="448" height="512">
<path d="M448 0H0V512H448V0Z" fill="white"/>
</mask>
<g mask="url(#mask7_3932_45023)">
<mask id="mask8_3932_45023" style="mask-type:luminance" maskUnits="userSpaceOnUse" x="0" y="0" width="448" height="512">
<path d="M448 0H0V512H448V0Z" fill="white"/>
</mask>
<g mask="url(#mask8_3932_45023)">
<mask id="mask9_3932_45023" style="mask-type:luminance" maskUnits="userSpaceOnUse" x="0" y="0" width="448" height="512">
<path d="M448 0H0V512H448V0Z" fill="white"/>
</mask>
<g mask="url(#mask9_3932_45023)">
<mask id="mask10_3932_45023" style="mask-type:luminance" maskUnits="userSpaceOnUse" x="0" y="0" width="448" height="512">
<path d="M448 0H0V512H448V0Z" fill="white"/>
</mask>
<g mask="url(#mask10_3932_45023)">
<mask id="mask11_3932_45023" style="mask-type:luminance" maskUnits="userSpaceOnUse" x="0" y="0" width="448" height="512">
<path d="M448 0H0V512H448V0Z" fill="white"/>
</mask>
<g mask="url(#mask11_3932_45023)">
<mask id="mask12_3932_45023" style="mask-type:luminance" maskUnits="userSpaceOnUse" x="0" y="0" width="448" height="512">
<path d="M448 0H0V512H448V0Z" fill="white"/>
</mask>
<g mask="url(#mask12_3932_45023)">
<mask id="mask13_3932_45023" style="mask-type:luminance" maskUnits="userSpaceOnUse" x="0" y="0" width="448" height="512">
<path d="M448 0H0V512H448V0Z" fill="white"/>
</mask>
<g mask="url(#mask13_3932_45023)">
<path d="M368 128C368 172.4 342.6 211.5 304 234.4V256C304 273.7 289.7 288 272 288H176C158.3 288 144 273.7 144 256V234.4C105.4 211.4 80.0003 172.3 80.0003 128C80.0003 57.3 144.5 0 224 0C303.5 0 368 57.3 368 128ZM168 176C176.487 176 184.627 172.629 190.628 166.627C196.629 160.626 200 152.487 200 144C200 135.513 196.629 127.374 190.628 121.373C184.627 115.371 176.487 112 168 112C159.513 112 151.374 115.371 145.373 121.373C139.372 127.374 136 135.513 136 144C136 152.487 139.372 160.626 145.373 166.627C151.374 172.629 159.513 176 168 176ZM312 144C312 135.513 308.629 127.374 302.628 121.373C296.627 115.371 288.487 112 280 112C271.513 112 263.374 115.371 257.373 121.373C251.372 127.374 248 135.513 248 144C248 152.487 251.372 160.626 257.373 166.627C263.374 172.629 271.513 176 280 176C288.487 176 296.627 172.629 302.628 166.627C308.629 160.626 312 152.487 312 144ZM3.40026 273.7C11.3003 257.9 30.5003 251.5 46.3003 259.4L224 348.2L401.7 259.4C417.5 251.5 436.7 257.9 444.6 273.7C452.5 289.5 446.1 308.7 430.3 316.6L295.6 384L430.4 451.4C446.2 459.3 452.6 478.5 444.7 494.3C436.8 510.1 417.6 516.5 401.8 508.6L224 419.8L46.3003 508.6C30.5003 516.5 11.3003 510.1 3.40026 494.3C-4.49974 478.5 1.90026 459.3 17.7003 451.4L152.4 384L17.7003 316.6C1.90026 308.7 -4.49974 289.5 3.40026 273.7Z" fill="black"/>
</g>
</g>
</g>
</g>
</g>
</g>
</g>
</g>
</g>
</g>
</g>
</g>
</g>
</g>
</g>
<defs>
<clipPath id="clip0_3932_45023">
<rect width="448" height="512" fill="white"/>
</clipPath>
</defs>
</svg>
