<svg width="448" height="512" viewBox="0 0 448 512" fill="none" xmlns="http://www.w3.org/2000/svg">
<path d="M94.12 315.1C94.12 341 72.96 362.16 47.06 362.16C21.16 362.16 0 341 0 315.1C0 289.2 21.16 268.04 47.06 268.04H94.12V315.1ZM117.84 315.1C117.84 289.2 139 268.04 164.9 268.04C190.8 268.04 211.96 289.2 211.96 315.1V432.94C211.96 458.84 190.8 480 164.9 480C139 480 117.84 458.84 117.84 432.94V315.1ZM164.9 126.12C139 126.12 117.84 104.96 117.84 79.06C117.84 53.16 139 32 164.9 32C190.8 32 211.96 53.16 211.96 79.06V126.12H164.9ZM164.9 149.84C190.8 149.84 211.96 171 211.96 196.9C211.96 222.8 190.8 243.96 164.9 243.96H47.06C21.16 243.96 0 222.8 0 196.9C0 171 21.16 149.84 47.06 149.84H164.9ZM353.88 196.9C353.88 171 375.04 149.84 400.94 149.84C426.84 149.84 448 171 448 196.9C448 222.8 426.84 243.96 400.94 243.96H353.88V196.9ZM330.16 196.9C330.16 222.8 309 243.96 283.1 243.96C257.2 243.96 236.04 222.8 236.04 196.9V79.06C236.04 53.16 257.2 32 283.1 32C309 32 330.16 53.16 330.16 79.06V196.9ZM283.1 385.88C309 385.88 330.16 407.04 330.16 432.94C330.16 458.84 309 480 283.1 480C257.2 480 236.04 458.84 236.04 432.94V385.88H283.1ZM283.1 362.16C257.2 362.16 236.04 341 236.04 315.1C236.04 289.2 257.2 268.04 283.1 268.04H400.94C426.84 268.04 448 289.2 448 315.1C448 341 426.84 362.16 400.94 362.16H283.1Z" fill="black"/>
</svg>
