<svg width="512" height="512" viewBox="0 0 512 512" fill="none" xmlns="http://www.w3.org/2000/svg">
<path d="M0 416C0 433.7 14.3 448 32 448H86.7C99 476.3 127.2 496 160 496C192.8 496 221 476.3 233.3 448H480C497.7 448 512 433.7 512 416C512 398.3 497.7 384 480 384H233.3C221 355.7 192.8 336 160 336C127.2 336 99 355.7 86.7 384H32C14.3 384 0 398.3 0 416ZM128 416C128 407.513 131.371 399.374 137.373 393.373C143.374 387.371 151.513 384 160 384C168.487 384 176.626 387.371 182.627 393.373C188.629 399.374 192 407.513 192 416C192 424.487 188.629 432.626 182.627 438.627C176.626 444.629 168.487 448 160 448C151.513 448 143.374 444.629 137.373 438.627C131.371 432.626 128 424.487 128 416ZM320 256C320 247.513 323.371 239.374 329.373 233.373C335.374 227.371 343.513 224 352 224C360.487 224 368.626 227.371 374.627 233.373C380.629 239.374 384 247.513 384 256C384 264.487 380.629 272.626 374.627 278.627C368.626 284.629 360.487 288 352 288C343.513 288 335.374 284.629 329.373 278.627C323.371 272.626 320 264.487 320 256ZM352 176C319.2 176 291 195.7 278.7 224H32C14.3 224 0 238.3 0 256C0 273.7 14.3 288 32 288H278.7C291 316.3 319.2 336 352 336C384.8 336 413 316.3 425.3 288H480C497.7 288 512 273.7 512 256C512 238.3 497.7 224 480 224H425.3C413 195.7 384.8 176 352 176ZM192 128C183.513 128 175.374 124.629 169.373 118.627C163.371 112.626 160 104.487 160 96C160 87.5131 163.371 79.3737 169.373 73.3726C175.374 67.3714 183.513 64 192 64C200.487 64 208.626 67.3714 214.627 73.3726C220.629 79.3737 224 87.5131 224 96C224 104.487 220.629 112.626 214.627 118.627C208.626 124.629 200.487 128 192 128ZM265.3 64C253 35.7 224.8 16 192 16C159.2 16 131 35.7 118.7 64H32C14.3 64 0 78.3 0 96C0 113.7 14.3 128 32 128H118.7C131 156.3 159.2 176 192 176C224.8 176 253 156.3 265.3 128H480C497.7 128 512 113.7 512 96C512 78.3 497.7 64 480 64H265.3Z" fill="black"/>
</svg>
