<svg width="512" height="512" viewBox="0 0 512 512" fill="none" xmlns="http://www.w3.org/2000/svg">
<g clip-path="url(#clip0_3932_45149)">
<mask id="mask0_3932_45149" style="mask-type:luminance" maskUnits="userSpaceOnUse" x="0" y="0" width="512" height="512">
<path d="M512 0H0V512H512V0Z" fill="white"/>
</mask>
<g mask="url(#mask0_3932_45149)">
<mask id="mask1_3932_45149" style="mask-type:luminance" maskUnits="userSpaceOnUse" x="0" y="0" width="512" height="512">
<path d="M512 0H0V512H512V0Z" fill="white"/>
</mask>
<g mask="url(#mask1_3932_45149)">
<mask id="mask2_3932_45149" style="mask-type:luminance" maskUnits="userSpaceOnUse" x="0" y="0" width="512" height="512">
<path d="M512 0H0V512H512V0Z" fill="white"/>
</mask>
<g mask="url(#mask2_3932_45149)">
<mask id="mask3_3932_45149" style="mask-type:luminance" maskUnits="userSpaceOnUse" x="0" y="0" width="512" height="512">
<path d="M512 0H0V512H512V0Z" fill="white"/>
</mask>
<g mask="url(#mask3_3932_45149)">
<mask id="mask4_3932_45149" style="mask-type:luminance" maskUnits="userSpaceOnUse" x="0" y="0" width="512" height="512">
<path d="M512 0H0V512H512V0Z" fill="white"/>
</mask>
<g mask="url(#mask4_3932_45149)">
<mask id="mask5_3932_45149" style="mask-type:luminance" maskUnits="userSpaceOnUse" x="0" y="0" width="512" height="512">
<path d="M512 0H0V512H512V0Z" fill="white"/>
</mask>
<g mask="url(#mask5_3932_45149)">
<mask id="mask6_3932_45149" style="mask-type:luminance" maskUnits="userSpaceOnUse" x="0" y="0" width="512" height="512">
<path d="M512 0H0V512H512V0Z" fill="white"/>
</mask>
<g mask="url(#mask6_3932_45149)">
<mask id="mask7_3932_45149" style="mask-type:luminance" maskUnits="userSpaceOnUse" x="0" y="0" width="512" height="512">
<path d="M512 0H0V512H512V0Z" fill="white"/>
</mask>
<g mask="url(#mask7_3932_45149)">
<mask id="mask8_3932_45149" style="mask-type:luminance" maskUnits="userSpaceOnUse" x="0" y="0" width="512" height="512">
<path d="M512 0H0V512H512V0Z" fill="white"/>
</mask>
<g mask="url(#mask8_3932_45149)">
<mask id="mask9_3932_45149" style="mask-type:luminance" maskUnits="userSpaceOnUse" x="0" y="0" width="512" height="512">
<path d="M512 0H0V512H512V0Z" fill="white"/>
</mask>
<g mask="url(#mask9_3932_45149)">
<mask id="mask10_3932_45149" style="mask-type:luminance" maskUnits="userSpaceOnUse" x="0" y="0" width="512" height="512">
<path d="M512 0H0V512H512V0Z" fill="white"/>
</mask>
<g mask="url(#mask10_3932_45149)">
<mask id="mask11_3932_45149" style="mask-type:luminance" maskUnits="userSpaceOnUse" x="0" y="0" width="512" height="512">
<path d="M512 0H0V512H512V0Z" fill="white"/>
</mask>
<g mask="url(#mask11_3932_45149)">
<mask id="mask12_3932_45149" style="mask-type:luminance" maskUnits="userSpaceOnUse" x="0" y="0" width="512" height="512">
<path d="M512 0H0V512H512V0Z" fill="white"/>
</mask>
<g mask="url(#mask12_3932_45149)">
<mask id="mask13_3932_45149" style="mask-type:luminance" maskUnits="userSpaceOnUse" x="0" y="0" width="512" height="512">
<path d="M512 0H0V512H512V0Z" fill="white"/>
</mask>
<g mask="url(#mask13_3932_45149)">
<path d="M187.699 153.7C153.699 153.7 125.999 179.4 125.999 211.4C125.999 243.1 153.699 269.1 187.699 269.1C221.699 269.1 249.399 243.1 249.399 211.4C249.399 179.4 221.699 153.7 187.699 153.7ZM331.099 153.7C297.099 153.7 269.399 179.4 269.399 211.4C269.399 243.1 297.099 269.1 331.099 269.1C365.399 269.1 392.799 243.1 392.799 211.4C392.899 179.4 365.399 153.7 331.099 153.7ZM487.699 243.7L481.699 248V49.7C481.699 22.3 461.099 0 435.699 0H76.5993C51.1993 0 30.5993 22.3 30.5993 49.7V248C28.5993 246.6 26.2993 245.1 24.2993 243.7C9.19934 233.1 -0.800656 247.7 8.29935 261.4C26.5993 284 61.3993 311.7 114.599 333.4C58.2993 525.1 251.999 555.7 248.899 457.5C248.899 456.8 249.199 400.9 249.199 360.9C254.299 362 258.599 363.2 262.899 364C262.899 403.7 263.199 456.8 263.199 457.5C260.099 555.8 453.799 525.2 397.499 333.5C450.599 311.8 485.499 284.1 503.799 261.5C512.899 247.7 502.899 233.2 487.699 243.7ZM457.199 262.9C388.299 300.3 328.899 294 296.599 292.6C272.899 291.7 263.999 301.7 262.899 317.5C252.599 309.8 244.299 302 242.599 300.4C237.499 295 228.899 292.4 215.499 292.7C183.799 293.8 125.799 300.1 58.0993 264.7V72.3C58.0993 37.4 66.9993 26.6 98.6993 26.6H416.399C446.699 26.6 457.299 39.5 457.299 72.3V262.9H457.199Z" fill="black"/>
</g>
</g>
</g>
</g>
</g>
</g>
</g>
</g>
</g>
</g>
</g>
</g>
</g>
</g>
</g>
<defs>
<clipPath id="clip0_3932_45149">
<rect width="512" height="512" fill="white"/>
</clipPath>
</defs>
</svg>
