<svg width="640" height="512" viewBox="0 0 640 512" fill="none" xmlns="http://www.w3.org/2000/svg">
<g clip-path="url(#clip0_3932_45265)">
<mask id="mask0_3932_45265" style="mask-type:luminance" maskUnits="userSpaceOnUse" x="0" y="0" width="640" height="512">
<path d="M640 0H0V512H640V0Z" fill="white"/>
</mask>
<g mask="url(#mask0_3932_45265)">
<mask id="mask1_3932_45265" style="mask-type:luminance" maskUnits="userSpaceOnUse" x="0" y="0" width="640" height="512">
<path d="M640 0H0V512H640V0Z" fill="white"/>
</mask>
<g mask="url(#mask1_3932_45265)">
<mask id="mask2_3932_45265" style="mask-type:luminance" maskUnits="userSpaceOnUse" x="0" y="0" width="640" height="512">
<path d="M640 0H0V512H640V0Z" fill="white"/>
</mask>
<g mask="url(#mask2_3932_45265)">
<mask id="mask3_3932_45265" style="mask-type:luminance" maskUnits="userSpaceOnUse" x="0" y="0" width="640" height="512">
<path d="M640 0H0V512H640V0Z" fill="white"/>
</mask>
<g mask="url(#mask3_3932_45265)">
<mask id="mask4_3932_45265" style="mask-type:luminance" maskUnits="userSpaceOnUse" x="0" y="0" width="640" height="512">
<path d="M640 0H0V512H640V0Z" fill="white"/>
</mask>
<g mask="url(#mask4_3932_45265)">
<mask id="mask5_3932_45265" style="mask-type:luminance" maskUnits="userSpaceOnUse" x="0" y="0" width="640" height="512">
<path d="M640 0H0V512H640V0Z" fill="white"/>
</mask>
<g mask="url(#mask5_3932_45265)">
<mask id="mask6_3932_45265" style="mask-type:luminance" maskUnits="userSpaceOnUse" x="0" y="0" width="640" height="512">
<path d="M640 0H0V512H640V0Z" fill="white"/>
</mask>
<g mask="url(#mask6_3932_45265)">
<mask id="mask7_3932_45265" style="mask-type:luminance" maskUnits="userSpaceOnUse" x="0" y="0" width="640" height="512">
<path d="M640 0H0V512H640V0Z" fill="white"/>
</mask>
<g mask="url(#mask7_3932_45265)">
<mask id="mask8_3932_45265" style="mask-type:luminance" maskUnits="userSpaceOnUse" x="0" y="0" width="640" height="512">
<path d="M640 0H0V512H640V0Z" fill="white"/>
</mask>
<g mask="url(#mask8_3932_45265)">
<mask id="mask9_3932_45265" style="mask-type:luminance" maskUnits="userSpaceOnUse" x="0" y="0" width="640" height="512">
<path d="M640 0H0V512H640V0Z" fill="white"/>
</mask>
<g mask="url(#mask9_3932_45265)">
<mask id="mask10_3932_45265" style="mask-type:luminance" maskUnits="userSpaceOnUse" x="0" y="0" width="640" height="512">
<path d="M640 0H0V512H640V0Z" fill="white"/>
</mask>
<g mask="url(#mask10_3932_45265)">
<mask id="mask11_3932_45265" style="mask-type:luminance" maskUnits="userSpaceOnUse" x="0" y="0" width="640" height="512">
<path d="M640 0H0V512H640V0Z" fill="white"/>
</mask>
<g mask="url(#mask11_3932_45265)">
<mask id="mask12_3932_45265" style="mask-type:luminance" maskUnits="userSpaceOnUse" x="0" y="0" width="640" height="512">
<path d="M640 0H0V512H640V0Z" fill="white"/>
</mask>
<g mask="url(#mask12_3932_45265)">
<mask id="mask13_3932_45265" style="mask-type:luminance" maskUnits="userSpaceOnUse" x="0" y="0" width="640" height="512">
<path d="M640 0H0V512H640V0Z" fill="white"/>
</mask>
<g mask="url(#mask13_3932_45265)">
<path d="M448 32V43C448 81.2 463.2 117.8 490.2 144.8L511.2 165.8C532.2 186.8 544 215.3 544 245V256C544 273.7 529.7 288 512 288C494.3 288 480 273.7 480 256V245C480 232.3 474.9 220.1 465.9 211.1L444.9 190.1C405.9 151.1 384 98.1 384 43V32C384 14.3 398.3 0 416 0C433.7 0 448 14.3 448 32ZM576 256V245C576 206.8 560.8 170.2 533.8 143.2L512.8 122.2C491.8 101.2 480 72.7 480 43V32C480 14.3 494.3 0 512 0C529.7 0 544 14.3 544 32V43C544 55.7 549.1 67.9 558.1 76.9L579.1 97.9C618.1 136.9 640 189.8 640 245V256C640 273.7 625.7 288 608 288C590.3 288 576 273.7 576 256ZM0 416C0 380.7 28.7 352 64 352H416C433.7 352 448 366.3 448 384V480C448 497.7 433.7 512 416 512H64C28.7 512 0 483.3 0 448V416ZM224 416V448H384V416H224ZM512 352C529.7 352 544 366.3 544 384V480C544 497.7 529.7 512 512 512C494.3 512 480 497.7 480 480V384C480 366.3 494.3 352 512 352ZM608 352C625.7 352 640 366.3 640 384V480C640 497.7 625.7 512 608 512C590.3 512 576 497.7 576 480V384C576 366.3 590.3 352 608 352Z" fill="black"/>
</g>
</g>
</g>
</g>
</g>
</g>
</g>
</g>
</g>
</g>
</g>
</g>
</g>
</g>
</g>
<defs>
<clipPath id="clip0_3932_45265">
<rect width="640" height="512" fill="white"/>
</clipPath>
</defs>
</svg>
