<svg width="512" height="512" viewBox="0 0 512 512" fill="none" xmlns="http://www.w3.org/2000/svg">
<g clip-path="url(#clip0_3932_45327)">
<mask id="mask0_3932_45327" style="mask-type:luminance" maskUnits="userSpaceOnUse" x="0" y="0" width="512" height="512">
<path d="M512 0H0V512H512V0Z" fill="white"/>
</mask>
<g mask="url(#mask0_3932_45327)">
<mask id="mask1_3932_45327" style="mask-type:luminance" maskUnits="userSpaceOnUse" x="0" y="0" width="512" height="512">
<path d="M512 0H0V512H512V0Z" fill="white"/>
</mask>
<g mask="url(#mask1_3932_45327)">
<mask id="mask2_3932_45327" style="mask-type:luminance" maskUnits="userSpaceOnUse" x="0" y="0" width="512" height="512">
<path d="M512 0H0V512H512V0Z" fill="white"/>
</mask>
<g mask="url(#mask2_3932_45327)">
<mask id="mask3_3932_45327" style="mask-type:luminance" maskUnits="userSpaceOnUse" x="0" y="0" width="512" height="512">
<path d="M512 0H0V512H512V0Z" fill="white"/>
</mask>
<g mask="url(#mask3_3932_45327)">
<mask id="mask4_3932_45327" style="mask-type:luminance" maskUnits="userSpaceOnUse" x="0" y="0" width="512" height="512">
<path d="M512 0H0V512H512V0Z" fill="white"/>
</mask>
<g mask="url(#mask4_3932_45327)">
<mask id="mask5_3932_45327" style="mask-type:luminance" maskUnits="userSpaceOnUse" x="0" y="0" width="512" height="512">
<path d="M512 0H0V512H512V0Z" fill="white"/>
</mask>
<g mask="url(#mask5_3932_45327)">
<mask id="mask6_3932_45327" style="mask-type:luminance" maskUnits="userSpaceOnUse" x="0" y="0" width="512" height="512">
<path d="M512 0H0V512H512V0Z" fill="white"/>
</mask>
<g mask="url(#mask6_3932_45327)">
<mask id="mask7_3932_45327" style="mask-type:luminance" maskUnits="userSpaceOnUse" x="0" y="0" width="512" height="512">
<path d="M512 0H0V512H512V0Z" fill="white"/>
</mask>
<g mask="url(#mask7_3932_45327)">
<mask id="mask8_3932_45327" style="mask-type:luminance" maskUnits="userSpaceOnUse" x="0" y="0" width="512" height="512">
<path d="M512 0H0V512H512V0Z" fill="white"/>
</mask>
<g mask="url(#mask8_3932_45327)">
<mask id="mask9_3932_45327" style="mask-type:luminance" maskUnits="userSpaceOnUse" x="0" y="0" width="512" height="512">
<path d="M512 0H0V512H512V0Z" fill="white"/>
</mask>
<g mask="url(#mask9_3932_45327)">
<mask id="mask10_3932_45327" style="mask-type:luminance" maskUnits="userSpaceOnUse" x="0" y="0" width="512" height="512">
<path d="M512 0H0V512H512V0Z" fill="white"/>
</mask>
<g mask="url(#mask10_3932_45327)">
<mask id="mask11_3932_45327" style="mask-type:luminance" maskUnits="userSpaceOnUse" x="0" y="0" width="512" height="512">
<path d="M512 0H0V512H512V0Z" fill="white"/>
</mask>
<g mask="url(#mask11_3932_45327)">
<mask id="mask12_3932_45327" style="mask-type:luminance" maskUnits="userSpaceOnUse" x="0" y="0" width="512" height="512">
<path d="M512 0H0V512H512V0Z" fill="white"/>
</mask>
<g mask="url(#mask12_3932_45327)">
<mask id="mask13_3932_45327" style="mask-type:luminance" maskUnits="userSpaceOnUse" x="0" y="0" width="512" height="512">
<path d="M512 0H0V512H512V0Z" fill="white"/>
</mask>
<g mask="url(#mask13_3932_45327)">
<path d="M341.095 140.6C339.095 144.5 339.495 149.2 342.295 152.6C349.295 161.1 355.195 170.7 359.495 181L407.995 160.2V120C407.995 106.7 418.695 96 431.995 96C445.295 96 455.995 106.7 455.995 120V139.6L478.495 129.9C490.695 124.7 504.795 130.3 509.995 142.5C515.195 154.7 509.595 168.8 497.395 174L441.395 198L367.795 229.5C367.295 239 365.695 248.1 362.995 256.8C361.795 260.6 362.895 264.8 365.795 267.6C396.695 296.9 415.995 338.2 415.995 384C415.995 428.7 397.695 469 368.195 498.1C358.295 507.8 344.495 512 330.695 512H181.295C167.395 512 153.595 507.8 143.795 498.1C114.295 469 95.9954 428.7 95.9954 384C95.9954 338.2 115.295 296.9 146.095 267.7C148.995 264.9 150.095 260.8 148.895 256.9C146.195 248.2 144.595 239 144.095 229.6L70.4954 198.1L14.4954 174.1C2.39539 168.8 -3.30461 154.7 1.89539 142.5C7.09539 130.3 21.1954 124.7 33.3954 129.9L55.9954 139.6V120C55.9954 106.7 66.6954 96 79.9954 96C93.2954 96 103.995 106.7 103.995 120V160.2L152.595 181C156.895 170.7 162.695 161.1 169.795 152.6C172.595 149.2 173.095 144.5 170.995 140.6C163.995 127.2 159.995 112.1 159.995 96C159.995 43 202.995 0 255.995 0C308.995 0 351.995 43 351.995 96C351.995 112.1 347.995 127.2 341.095 140.6ZM223.995 96C228.239 96 232.308 94.3143 235.309 91.3137C238.31 88.3131 239.995 84.2435 239.995 80C239.995 75.7565 238.31 71.6869 235.309 68.6863C232.308 65.6857 228.239 64 223.995 64C219.752 64 215.682 65.6857 212.682 68.6863C209.681 71.6869 207.995 75.7565 207.995 80C207.995 84.2435 209.681 88.3131 212.682 91.3137C215.682 94.3143 219.752 96 223.995 96ZM271.995 224C271.995 219.757 270.31 215.687 267.309 212.686C264.308 209.686 260.239 208 255.995 208C251.752 208 247.682 209.686 244.682 212.686C241.681 215.687 239.995 219.757 239.995 224C239.995 228.243 241.681 232.313 244.682 235.314C247.682 238.314 251.752 240 255.995 240C260.239 240 264.308 238.314 267.309 235.314C270.31 232.313 271.995 228.243 271.995 224ZM255.995 304C260.239 304 264.308 302.314 267.309 299.314C270.31 296.313 271.995 292.243 271.995 288C271.995 283.757 270.31 279.687 267.309 276.686C264.308 273.686 260.239 272 255.995 272C251.752 272 247.682 273.686 244.682 276.686C241.681 279.687 239.995 283.757 239.995 288C239.995 292.243 241.681 296.313 244.682 299.314C247.682 302.314 251.752 304 255.995 304ZM271.995 352C271.995 347.757 270.31 343.687 267.309 340.686C264.308 337.686 260.239 336 255.995 336C251.752 336 247.682 337.686 244.682 340.686C241.681 343.687 239.995 347.757 239.995 352C239.995 356.243 241.681 360.313 244.682 363.314C247.682 366.314 251.752 368 255.995 368C260.239 368 264.308 366.314 267.309 363.314C270.31 360.313 271.995 356.243 271.995 352ZM287.995 96C292.239 96 296.308 94.3143 299.309 91.3137C302.31 88.3131 303.995 84.2435 303.995 80C303.995 75.7565 302.31 71.6869 299.309 68.6863C296.308 65.6857 292.239 64 287.995 64C283.752 64 279.682 65.6857 276.682 68.6863C273.681 71.6869 271.995 75.7565 271.995 80C271.995 84.2435 273.681 88.3131 276.682 91.3137C279.682 94.3143 283.752 96 287.995 96ZM239.995 120V123.2C239.995 126.4 240.795 129.5 242.295 132.2L251.295 149.1C252.195 150.8 253.995 151.9 255.995 151.9C257.995 151.9 259.795 150.8 260.695 149.1L269.695 132.2C271.195 129.4 271.995 126.3 271.995 123.2V120C271.995 111.2 264.795 104 255.995 104C247.195 104 239.995 111.2 239.995 120Z" fill="black"/>
</g>
</g>
</g>
</g>
</g>
</g>
</g>
</g>
</g>
</g>
</g>
</g>
</g>
</g>
</g>
<defs>
<clipPath id="clip0_3932_45327">
<rect width="512" height="512" fill="white"/>
</clipPath>
</defs>
</svg>
