<svg width="512" height="512" viewBox="0 0 512 512" fill="none" xmlns="http://www.w3.org/2000/svg">
<g clip-path="url(#clip0_3932_45501)">
<mask id="mask0_3932_45501" style="mask-type:luminance" maskUnits="userSpaceOnUse" x="0" y="0" width="512" height="512">
<path d="M512 0H0V512H512V0Z" fill="white"/>
</mask>
<g mask="url(#mask0_3932_45501)">
<mask id="mask1_3932_45501" style="mask-type:luminance" maskUnits="userSpaceOnUse" x="0" y="0" width="512" height="512">
<path d="M512 0H0V512H512V0Z" fill="white"/>
</mask>
<g mask="url(#mask1_3932_45501)">
<mask id="mask2_3932_45501" style="mask-type:luminance" maskUnits="userSpaceOnUse" x="0" y="0" width="512" height="512">
<path d="M512 0H0V512H512V0Z" fill="white"/>
</mask>
<g mask="url(#mask2_3932_45501)">
<mask id="mask3_3932_45501" style="mask-type:luminance" maskUnits="userSpaceOnUse" x="0" y="0" width="512" height="512">
<path d="M512 0H0V512H512V0Z" fill="white"/>
</mask>
<g mask="url(#mask3_3932_45501)">
<mask id="mask4_3932_45501" style="mask-type:luminance" maskUnits="userSpaceOnUse" x="0" y="0" width="512" height="512">
<path d="M512 0H0V512H512V0Z" fill="white"/>
</mask>
<g mask="url(#mask4_3932_45501)">
<mask id="mask5_3932_45501" style="mask-type:luminance" maskUnits="userSpaceOnUse" x="0" y="0" width="512" height="512">
<path d="M512 0H0V512H512V0Z" fill="white"/>
</mask>
<g mask="url(#mask5_3932_45501)">
<mask id="mask6_3932_45501" style="mask-type:luminance" maskUnits="userSpaceOnUse" x="0" y="0" width="512" height="512">
<path d="M512 0H0V512H512V0Z" fill="white"/>
</mask>
<g mask="url(#mask6_3932_45501)">
<mask id="mask7_3932_45501" style="mask-type:luminance" maskUnits="userSpaceOnUse" x="0" y="0" width="512" height="512">
<path d="M512 0H0V512H512V0Z" fill="white"/>
</mask>
<g mask="url(#mask7_3932_45501)">
<mask id="mask8_3932_45501" style="mask-type:luminance" maskUnits="userSpaceOnUse" x="0" y="0" width="512" height="512">
<path d="M512 0H0V512H512V0Z" fill="white"/>
</mask>
<g mask="url(#mask8_3932_45501)">
<mask id="mask9_3932_45501" style="mask-type:luminance" maskUnits="userSpaceOnUse" x="0" y="0" width="512" height="512">
<path d="M512 0H0V512H512V0Z" fill="white"/>
</mask>
<g mask="url(#mask9_3932_45501)">
<mask id="mask10_3932_45501" style="mask-type:luminance" maskUnits="userSpaceOnUse" x="0" y="0" width="512" height="512">
<path d="M512 0H0V512H512V0Z" fill="white"/>
</mask>
<g mask="url(#mask10_3932_45501)">
<mask id="mask11_3932_45501" style="mask-type:luminance" maskUnits="userSpaceOnUse" x="0" y="0" width="512" height="512">
<path d="M512 0H0V512H512V0Z" fill="white"/>
</mask>
<g mask="url(#mask11_3932_45501)">
<mask id="mask12_3932_45501" style="mask-type:luminance" maskUnits="userSpaceOnUse" x="0" y="0" width="512" height="512">
<path d="M512 0H0V512H512V0Z" fill="white"/>
</mask>
<g mask="url(#mask12_3932_45501)">
<mask id="mask13_3932_45501" style="mask-type:luminance" maskUnits="userSpaceOnUse" x="0" y="0" width="512" height="512">
<path d="M512 0H0V512H512V0Z" fill="white"/>
</mask>
<g mask="url(#mask13_3932_45501)">
<path d="M175.2 476.6C165.5 458.6 160 437.9 160 416C160 375.7 179 337.8 211.2 313.6L275.2 265.6C283.3 259.6 288 250.1 288 240V96H128V240C128 260.1 118.5 279.1 102.4 291.2L38.4 339.2C14.2 357.3 0 385.8 0 416C0 469 43 512 96 512C116.8 512 137 505.3 153.6 492.8L175.2 476.6ZM128 64H288V48C288 33.5 291.9 19.8 298.7 8.1C291 3 281.9 0 272 0H176C149.5 0 128 21.5 128 48V64ZM320 96V240C320 260.1 310.5 279.1 294.4 291.2L230.4 339.2C206.2 357.3 192 385.8 192 416C192 469 235 512 288 512C308.8 512 329 505.3 345.6 492.8L460.8 406.4C493 382.2 512 344.3 512 304V96H320ZM512 64V48C512 21.5 490.5 0 464 0H368C341.5 0 320 21.5 320 48V64H512Z" fill="black"/>
</g>
</g>
</g>
</g>
</g>
</g>
</g>
</g>
</g>
</g>
</g>
</g>
</g>
</g>
</g>
<defs>
<clipPath id="clip0_3932_45501">
<rect width="512" height="512" fill="white"/>
</clipPath>
</defs>
</svg>
