<svg width="640" height="512" viewBox="0 0 640 512" fill="none" xmlns="http://www.w3.org/2000/svg">
<path d="M111.4 256.302L117.2 321.302L111.4 389.602C111.1 392.102 109.2 394.002 107 394.002C104.8 394.002 102.8 392.102 102.8 389.602L97.2 321.302L102.8 256.302C102.8 254.102 104.7 252.102 107 252.102C109.2 252.102 111.1 254.102 111.4 256.302ZM132.8 210.702C130 210.702 128.1 212.902 127.8 215.702L122.8 321.302L127.8 389.602C128.1 392.402 130 394.602 132.8 394.602C135.3 394.602 137.5 392.402 137.5 389.602L143.3 321.302L137.5 215.702C137.5 212.902 135.3 210.702 132.8 210.702ZM158.3 186.602C155.2 186.602 153 188.802 152.7 191.902L148.3 321.902L152.7 389.702C153 392.802 155.2 395.002 158.3 395.002C161.1 395.002 163.6 392.802 163.6 389.702L168.9 321.902L163.6 191.902C163.6 188.802 161.1 186.602 158.3 186.602ZM7.2 283.202C5.8 283.202 5 284.302 4.7 285.702L0 321.302L4.7 356.302C5 357.702 5.8 358.802 7.2 358.802C8.6 358.802 9.4 357.702 9.7 356.302L15.3 321.302L9.7 285.702C9.4 284.302 8.6 283.202 7.2 283.202ZM30.8 261.302C29.4 261.302 28.3 262.402 28.3 263.802L21.9 321.302L28.3 377.402C28.3 379.102 29.4 380.202 30.8 380.202C32.2 380.202 33.3 379.102 33.6 377.702L40.8 321.302L33.6 263.802C33.3 262.402 32.2 261.302 30.8 261.302ZM56.1 249.902C54.4 249.902 53 251.302 52.8 253.202L47 321.302L52.8 387.102C53.1 388.802 54.5 390.202 56.1 390.202C57.8 390.202 59.2 388.802 59.2 387.102L66.1 321.302L59.2 253.202C59.2 251.302 57.8 249.902 56.1 249.902ZM81.4 247.702C79.5 247.702 77.8 249.102 77.8 251.302L72 321.302L77.8 389.102C77.8 391.302 79.5 392.702 81.4 392.702C83.3 392.702 85 391.302 85.3 389.102L91.7 321.302L85.3 251.302C85 249.102 83.3 247.702 81.4 247.702ZM322.8 136.802C321.7 136.002 320 135.402 318.6 135.402C316.4 135.402 314.4 136.202 313 137.302C311.1 139.002 309.9 141.502 309.7 144.002V144.802L306.4 321.502L308.1 354.002L309.8 385.702C310.1 390.402 314 394.302 318.7 394.302C323.4 394.302 327.3 390.402 327.3 385.702L331.2 321.502L327.3 144.002C326.9 141.002 325.3 138.202 322.8 136.802ZM296.1 152.102C294.7 151.302 293.3 150.702 291.7 150.702C290.1 150.702 288.6 151.302 287.3 152.102C285.1 153.502 283.7 156.002 283.7 158.802L283.4 160.502L280.6 321.302C280.6 321.302 280.6 321.602 283.7 386.902V387.202C283.7 388.902 284.3 390.502 285.4 391.902C287.1 393.802 289.3 395.002 291.8 395.002C294 395.002 296 393.902 297.4 392.502C299.1 391.102 299.9 389.202 299.9 386.902L300.2 380.202L303.3 321.602L300 158.802C299.7 156.002 298.3 153.502 296.1 152.102ZM184.7 174.602C181.6 174.602 178.9 177.402 178.9 180.702L174.5 321.302L178.9 388.502C179.2 391.802 181.7 394.302 184.7 394.302C188 394.302 190.5 391.802 190.8 388.502L195.8 321.302L190.8 180.702C190.6 177.402 188.1 174.602 184.7 174.602ZM561.4 237.402C550.6 237.402 540.3 239.602 530.8 243.502C524.4 172.702 465 117.102 392.5 117.102C374.7 117.102 357.5 120.402 342.2 126.502C336.1 128.702 334.4 130.902 334.4 135.702V385.402C334.4 390.402 338.3 394.002 343 394.602H561.3C604.6 394.602 639.9 359.602 639.9 316.302C640 272.702 604.7 237.402 561.4 237.402ZM264.7 177.102C260.5 177.102 257.2 180.402 256.9 184.902L253.6 321.602L256.9 387.202C257.2 391.402 260.5 394.702 264.7 394.702C268.9 394.702 272.2 391.402 272.2 387.202L276.1 321.602L272.2 184.902C271.9 180.402 268.9 177.102 264.7 177.102ZM211.1 169.302C207.8 169.302 204.7 172.402 204.7 176.002L200.8 321.302L204.7 388.202C205 391.802 207.8 394.602 211.1 394.602C214.7 394.602 217.5 391.802 217.8 388.202L222.2 321.302L217.8 176.002C217.5 172.402 214.7 169.302 211.1 169.302ZM237.8 172.702C233.9 172.702 230.9 175.802 230.9 179.602L227 321.302L230.9 387.702C231.2 391.602 234 394.602 237.8 394.602C241.6 394.602 244.7 391.502 244.7 387.702L248.9 321.302L244.7 179.602C244.7 175.702 241.7 172.702 237.8 172.702Z" fill="black"/>
</svg>
