<svg width="448" height="512" viewBox="0 0 448 512" fill="none" xmlns="http://www.w3.org/2000/svg">
<g clip-path="url(#clip0_3932_45737)">
<mask id="mask0_3932_45737" style="mask-type:luminance" maskUnits="userSpaceOnUse" x="0" y="0" width="448" height="512">
<path d="M448 0H0V512H448V0Z" fill="white"/>
</mask>
<g mask="url(#mask0_3932_45737)">
<mask id="mask1_3932_45737" style="mask-type:luminance" maskUnits="userSpaceOnUse" x="0" y="0" width="448" height="512">
<path d="M448 0H0V512H448V0Z" fill="white"/>
</mask>
<g mask="url(#mask1_3932_45737)">
<mask id="mask2_3932_45737" style="mask-type:luminance" maskUnits="userSpaceOnUse" x="0" y="0" width="448" height="512">
<path d="M448 0H0V512H448V0Z" fill="white"/>
</mask>
<g mask="url(#mask2_3932_45737)">
<mask id="mask3_3932_45737" style="mask-type:luminance" maskUnits="userSpaceOnUse" x="0" y="0" width="448" height="512">
<path d="M448 0H0V512H448V0Z" fill="white"/>
</mask>
<g mask="url(#mask3_3932_45737)">
<mask id="mask4_3932_45737" style="mask-type:luminance" maskUnits="userSpaceOnUse" x="0" y="0" width="448" height="512">
<path d="M448 0H0V512H448V0Z" fill="white"/>
</mask>
<g mask="url(#mask4_3932_45737)">
<mask id="mask5_3932_45737" style="mask-type:luminance" maskUnits="userSpaceOnUse" x="0" y="0" width="448" height="512">
<path d="M448 0H0V512H448V0Z" fill="white"/>
</mask>
<g mask="url(#mask5_3932_45737)">
<mask id="mask6_3932_45737" style="mask-type:luminance" maskUnits="userSpaceOnUse" x="0" y="0" width="448" height="512">
<path d="M448 0H0V512H448V0Z" fill="white"/>
</mask>
<g mask="url(#mask6_3932_45737)">
<mask id="mask7_3932_45737" style="mask-type:luminance" maskUnits="userSpaceOnUse" x="0" y="0" width="448" height="512">
<path d="M448 0H0V512H448V0Z" fill="white"/>
</mask>
<g mask="url(#mask7_3932_45737)">
<mask id="mask8_3932_45737" style="mask-type:luminance" maskUnits="userSpaceOnUse" x="0" y="0" width="448" height="512">
<path d="M448 0H0V512H448V0Z" fill="white"/>
</mask>
<g mask="url(#mask8_3932_45737)">
<mask id="mask9_3932_45737" style="mask-type:luminance" maskUnits="userSpaceOnUse" x="0" y="0" width="448" height="512">
<path d="M448 0H0V512H448V0Z" fill="white"/>
</mask>
<g mask="url(#mask9_3932_45737)">
<mask id="mask10_3932_45737" style="mask-type:luminance" maskUnits="userSpaceOnUse" x="0" y="0" width="448" height="512">
<path d="M448 0H0V512H448V0Z" fill="white"/>
</mask>
<g mask="url(#mask10_3932_45737)">
<mask id="mask11_3932_45737" style="mask-type:luminance" maskUnits="userSpaceOnUse" x="0" y="0" width="448" height="512">
<path d="M448 0H0V512H448V0Z" fill="white"/>
</mask>
<g mask="url(#mask11_3932_45737)">
<mask id="mask12_3932_45737" style="mask-type:luminance" maskUnits="userSpaceOnUse" x="0" y="0" width="448" height="512">
<path d="M448 0H0V512H448V0Z" fill="white"/>
</mask>
<g mask="url(#mask12_3932_45737)">
<mask id="mask13_3932_45737" style="mask-type:luminance" maskUnits="userSpaceOnUse" x="0" y="0" width="448" height="512">
<path d="M448 0H0V512H448V0Z" fill="white"/>
</mask>
<g mask="url(#mask13_3932_45737)">
<path d="M427.2 203C427.2 90.9003 336.3 0.000329762 224.2 0.000329762C112.1 -0.19967 21.2003 90.6003 21.0003 202.6C20.9235 245.561 34.4874 287.436 59.7374 322.193C84.9875 356.95 120.62 382.794 161.5 396V497.7C161.5 501.493 163.007 505.13 165.689 507.812C168.37 510.493 172.008 512 175.8 512H272.2C275.993 512 279.63 510.493 282.312 507.812C284.994 505.13 286.5 501.493 286.5 497.7V396.1C327.343 382.901 362.956 357.107 388.233 322.417C413.509 287.726 427.151 245.922 427.2 203ZM155.6 203C155.6 112.2 292.9 112.2 292.9 203C292.8 292.9 155.6 294 155.6 203Z" fill="black"/>
</g>
</g>
</g>
</g>
</g>
</g>
</g>
</g>
</g>
</g>
</g>
</g>
</g>
</g>
</g>
<defs>
<clipPath id="clip0_3932_45737">
<rect width="448" height="512" fill="white"/>
</clipPath>
</defs>
</svg>
