<svg width="576" height="512" viewBox="0 0 576 512" fill="none" xmlns="http://www.w3.org/2000/svg">
<path d="M183.1 235.3C216.8 256 246 283.4 268.9 315.8C275.9 325.7 282.3 336.1 288 346.8C293.7 336 300.1 325.7 307.1 315.8C330 283.4 359.2 256 392.9 235.3C437.6 207.8 490.1 192 546 192H555.9C567 192 576 201 576 212.1C576 360.1 456.1 480 308.1 480H288H267.9C119.9 480 0 360.1 0 212.1C0 201 9 192 20.1 192H30C85.9 192 138.4 207.8 183.1 235.3ZM301.5 37.6C317.2 54.5 362.6 109.4 385.9 202.2C347.9 223.8 314.5 253 288 287.8C261.5 253 228.1 223.9 190.1 202.2C213.3 109.4 258.7 54.5 274.5 37.6C278 33.9 282.9 32 288 32C293.1 32 298 33.9 301.5 37.6Z" fill="black"/>
</svg>
