<svg width="448" height="512" viewBox="0 0 448 512" fill="none" xmlns="http://www.w3.org/2000/svg">
<path d="M63.9977 391.782C-15.4123 303.592 -8.0022 167.422 80.6377 87.6423C169.278 7.86224 305.438 14.6423 384.848 102.882C464.258 191.122 456.848 327.242 368.208 407.022C349.468 423.892 432.208 450.112 410.208 459.282C328.148 493.492 156.298 494.282 63.9777 391.782H63.9977ZM277.308 180.182L315.808 139.322C306.198 130.432 283.808 112.492 239.638 111.722C187.308 110.812 143.778 140.022 142.868 191.722C142.668 203.052 143.158 228.442 172.288 246.552C206.748 267.972 258.808 268.062 258.288 298.812C257.918 320.092 231.868 324.622 219.698 324.412C216.698 324.362 189.468 323.952 172.088 299.792L132.088 342.402C160.248 369.402 191.088 375.022 215.578 375.452C225.808 375.632 311.998 375.782 313.418 294.452C313.698 278.642 311.348 254.732 284.558 237.862C250.198 216.222 199.558 218.412 200.128 188.112C200.538 164.862 231.128 162.742 237.658 162.852C238.088 162.852 264.278 163.112 277.278 180.222L277.308 180.182Z" fill="black"/>
</svg>
