<svg width="512" height="512" viewBox="0 0 512 512" fill="none" xmlns="http://www.w3.org/2000/svg">
<g clip-path="url(#clip0_3932_46031)">
<mask id="mask0_3932_46031" style="mask-type:luminance" maskUnits="userSpaceOnUse" x="0" y="0" width="512" height="512">
<path d="M512 0H0V512H512V0Z" fill="white"/>
</mask>
<g mask="url(#mask0_3932_46031)">
<mask id="mask1_3932_46031" style="mask-type:luminance" maskUnits="userSpaceOnUse" x="0" y="0" width="512" height="512">
<path d="M512 0H0V512H512V0Z" fill="white"/>
</mask>
<g mask="url(#mask1_3932_46031)">
<mask id="mask2_3932_46031" style="mask-type:luminance" maskUnits="userSpaceOnUse" x="0" y="0" width="512" height="512">
<path d="M512 0H0V512H512V0Z" fill="white"/>
</mask>
<g mask="url(#mask2_3932_46031)">
<mask id="mask3_3932_46031" style="mask-type:luminance" maskUnits="userSpaceOnUse" x="0" y="0" width="512" height="512">
<path d="M512 0H0V512H512V0Z" fill="white"/>
</mask>
<g mask="url(#mask3_3932_46031)">
<mask id="mask4_3932_46031" style="mask-type:luminance" maskUnits="userSpaceOnUse" x="0" y="0" width="512" height="512">
<path d="M512 0H0V512H512V0Z" fill="white"/>
</mask>
<g mask="url(#mask4_3932_46031)">
<mask id="mask5_3932_46031" style="mask-type:luminance" maskUnits="userSpaceOnUse" x="0" y="0" width="512" height="512">
<path d="M512 0H0V512H512V0Z" fill="white"/>
</mask>
<g mask="url(#mask5_3932_46031)">
<mask id="mask6_3932_46031" style="mask-type:luminance" maskUnits="userSpaceOnUse" x="0" y="0" width="512" height="512">
<path d="M512 0H0V512H512V0Z" fill="white"/>
</mask>
<g mask="url(#mask6_3932_46031)">
<mask id="mask7_3932_46031" style="mask-type:luminance" maskUnits="userSpaceOnUse" x="0" y="0" width="512" height="512">
<path d="M512 0H0V512H512V0Z" fill="white"/>
</mask>
<g mask="url(#mask7_3932_46031)">
<mask id="mask8_3932_46031" style="mask-type:luminance" maskUnits="userSpaceOnUse" x="0" y="0" width="512" height="512">
<path d="M512 0H0V512H512V0Z" fill="white"/>
</mask>
<g mask="url(#mask8_3932_46031)">
<mask id="mask9_3932_46031" style="mask-type:luminance" maskUnits="userSpaceOnUse" x="0" y="0" width="512" height="512">
<path d="M512 0H0V512H512V0Z" fill="white"/>
</mask>
<g mask="url(#mask9_3932_46031)">
<mask id="mask10_3932_46031" style="mask-type:luminance" maskUnits="userSpaceOnUse" x="0" y="0" width="512" height="512">
<path d="M512 0H0V512H512V0Z" fill="white"/>
</mask>
<g mask="url(#mask10_3932_46031)">
<mask id="mask11_3932_46031" style="mask-type:luminance" maskUnits="userSpaceOnUse" x="0" y="0" width="512" height="512">
<path d="M512 0H0V512H512V0Z" fill="white"/>
</mask>
<g mask="url(#mask11_3932_46031)">
<mask id="mask12_3932_46031" style="mask-type:luminance" maskUnits="userSpaceOnUse" x="0" y="0" width="512" height="512">
<path d="M512 0H0V512H512V0Z" fill="white"/>
</mask>
<g mask="url(#mask12_3932_46031)">
<mask id="mask13_3932_46031" style="mask-type:luminance" maskUnits="userSpaceOnUse" x="0" y="0" width="512" height="512">
<path d="M512 0H0V512H512V0Z" fill="white"/>
</mask>
<g mask="url(#mask13_3932_46031)">
<path d="M158.403 32.6012C163.203 20.2012 157.003 6.30127 144.603 1.60127C132.203 -3.09873 118.303 3.00127 113.603 15.4012L81.1025 100.001C73.2025 120.701 78.1025 144.101 93.8025 159.701L151.203 217.101L70.8025 190.301C68.4025 189.501 66.5025 187.601 65.7025 185.201L46.8025 128.401C42.6025 115.801 29.0025 109.001 16.4025 113.201C3.80254 117.401 -2.99746 131.001 1.20254 143.601L20.1025 200.401C25.7025 217.101 38.8025 230.201 55.5025 235.801L116.103 256.001L55.6025 276.201C38.9025 281.801 25.8025 294.901 20.2025 311.601L1.20254 368.401C-2.99746 381.001 3.80254 394.601 16.4025 398.801C29.0025 403.001 42.6025 396.201 46.8025 383.601L65.7025 326.801C66.5025 324.401 68.4025 322.501 70.8025 321.701L151.203 294.901L93.7025 352.301C78.1025 368.001 73.1025 391.401 81.1025 412.001L113.603 496.601C118.403 509.001 132.203 515.101 144.603 510.401C157.003 505.701 163.103 491.801 158.403 479.401L125.903 394.801C124.803 391.801 125.503 388.501 127.703 386.301L160.003 353.901C161.003 406.001 203.603 448.001 256.003 448.001C308.403 448.001 351.003 406.101 352.003 353.901L384.303 386.201C386.503 388.401 387.203 391.801 386.103 394.701L353.603 479.301C348.803 491.701 355.003 505.601 367.403 510.301C379.803 515.001 393.703 508.901 398.403 496.501L430.903 412.001C438.803 391.301 433.903 367.901 418.203 352.301L360.803 294.901L441.203 321.701C443.603 322.501 445.503 324.401 446.303 326.801L465.203 383.601C469.403 396.201 483.003 403.001 495.603 398.801C508.203 394.601 515.003 381.001 510.803 368.401L491.903 311.601C486.303 294.901 473.203 281.801 456.503 276.201L395.903 256.001L456.403 235.801C473.103 230.201 486.203 217.101 491.803 200.401L510.703 143.601C514.903 131.001 508.103 117.401 495.503 113.201C482.903 109.001 469.303 115.801 465.103 128.401L446.203 185.201C445.403 187.601 443.503 189.501 441.103 190.301L360.703 217.101L418.103 159.701C433.703 144.101 438.703 120.701 430.803 100.001L398.403 15.4012C393.603 3.00127 379.803 -3.19873 367.403 1.60127C355.003 6.40127 348.903 20.2012 353.603 32.6012L386.103 117.201C387.203 120.201 386.503 123.501 384.303 125.701L336.003 174.101V160.001C336.003 128.201 317.403 100.701 290.503 87.8012C281.403 83.4012 272.003 91.1012 272.003 101.201V112.001C272.003 120.801 264.803 128.001 256.003 128.001C247.203 128.001 240.003 120.801 240.003 112.001V101.201C240.003 91.1012 230.603 83.5012 221.503 87.8012C194.603 100.701 176.003 128.201 176.003 160.001V174.101L127.703 125.801C125.503 123.601 124.803 120.201 125.903 117.301L158.403 32.7012V32.6012Z" fill="black"/>
</g>
</g>
</g>
</g>
</g>
</g>
</g>
</g>
</g>
</g>
</g>
</g>
</g>
</g>
</g>
<defs>
<clipPath id="clip0_3932_46031">
<rect width="512" height="512" fill="white"/>
</clipPath>
</defs>
</svg>
