<svg width="448" height="512" viewBox="0 0 448 512" fill="none" xmlns="http://www.w3.org/2000/svg">
<path d="M384 32C419.3 32 448 60.7 448 96V416C448 451.3 419.3 480 384 480H64C28.7 480 0 451.3 0 416V96C0 60.7 28.7 32 64 32H384ZM105.1 187C66.4 187 35 218.3 35 257C35 295.7 66.4 327 105.1 327C129.9 327 151.6 314.2 164.1 294.8L164.6 294.1L164.2 293.5C157.7 282.9 154 270.4 154 257C154 243.4 157.9 230.7 164.6 219.9C152.2 200.1 130.2 187 105.1 187ZM224 187C199.2 187 177.5 199.8 165 219.2L164.5 219.9L164.9 220.5C171.4 231.1 175.1 243.6 175.1 257C175.1 270.6 171.2 283.3 164.5 294.1C176.9 313.8 198.9 327 224 327C248.8 327 270.5 314.2 283 294.8L283.5 294.1L283.1 293.5C276.6 282.9 272.9 270.4 272.9 257C272.9 243.4 276.8 230.7 283.5 219.9C271.1 200.2 249.1 187 224 187ZM342.9 187C318.1 187 296.4 199.8 283.9 219.2L283.4 219.9L283.8 220.5C290.3 231.1 294 243.6 294 257C294 270.6 290.1 283.3 283.4 294.1C295.8 313.9 317.8 327 342.9 327C381.6 327 413 295.7 413 257C413 218.3 381.6 187 342.9 187Z" fill="black"/>
</svg>
