<svg width="448" height="512" viewBox="0 0 448 512" fill="none" xmlns="http://www.w3.org/2000/svg">
<path d="M56 32H392C422.9 32 448 57.1 448 88V424C448 454.9 422.9 480 392 480H56C25.1 480 0 454.9 0 424V88C0 57.1 25.1 32 56 32ZM270.9 274.2C277.5 221.3 296.8 204.7 322.3 204.7C347.6 204.7 367.2 224.9 367.2 254.4C367.2 283.9 347.5 304.1 322.3 304.1C294.4 304.1 276 282.6 270.9 274.2ZM244.2 232.4C236 216.9 229.9 196.1 225 176.8H195.3H162.1V254.9C162.1 283.3 149.2 304.3 123.9 304.3C98.6 304.3 84.1 283.4 84.1 255L84.4 176.9H48.2V255C48.2 277.8 55.6 298.5 69.1 313.2C83 328.4 101.9 336.4 123.9 336.4C167.6 336.4 198.1 302.9 198.1 254.9V202.4C202.7 219.7 213.5 252.9 234.3 282.1L215 392.6H251.8L264.6 314.2C268.8 317.7 273.3 320.8 278 323.6C290.3 331.4 304.4 335.8 318.9 336.2H319C319.5 336.2 320.1 336.2 320.6 336.2C321.2 336.2 321.7 336.2 322.3 336.2C367.4 336.2 403.2 301.3 403.2 254.3C403.2 207.3 367.3 172.1 322.3 172.1C276.9 172.1 251.4 201.8 244.2 232.2V232.4Z" fill="black"/>
</svg>
