<svg width="448" height="512" viewBox="0 0 448 512" fill="none" xmlns="http://www.w3.org/2000/svg">
<path d="M120.8 335.5C114.9 335.1 108.2 334.7 100.6 334.2C97.3 338.3 94 342.6 94 347.7C94 366.2 159.5 366.2 159.5 346.2C159.5 337.9 152.1 337.5 120.7 335.5H120.8ZM128.6 217.6C96.3 217.6 94.9 262.1 127.9 262.1C160.4 262.1 159.6 217.6 128.6 217.6ZM384 32H64C28.7 32 0 60.7 0 96V416C0 451.3 28.7 480 64 480H384C419.3 480 448 451.3 448 416V96C448 60.7 419.3 32 384 32ZM243.9 172.2C229.4 172.2 221 163.8 221 149.3C221 134.8 229.4 127 243.9 127C258.6 127 267 134.8 267 149.3C267 163.8 258.6 172.2 243.9 172.2ZM149.6 195H199.1V216.6L175.7 218.4C180.3 224.2 185.1 232.4 185.1 244.1C185.1 292.8 127.9 291.3 110.9 286.5L102.5 299.9C107.5 300.2 112.3 300.5 116.8 300.7C173.1 303.9 197.3 305.3 197.3 339.2C197.3 368.4 171.6 384.9 127.4 384.9C81.4 384.9 63.9 373.3 63.9 353.2C63.9 341.8 69 335.7 77.9 327.3C69.5 323.8 66.7 317.4 66.7 310.5C66.7 300.9 74.1 294.2 89.7 279.9L89.9 279.7C77.5 273.6 68.1 260.4 68.1 241.6C68.1 190 124.7 188.3 149.7 194.8L149.6 195ZM270.5 303.1L283.5 304.9V325H211.1V304.9C213.8 304.5 216.1 304.2 218 304C227.9 302.8 228.1 302.7 228.1 298V223.3C228.1 218.9 227.2 218.6 218 215.5C216.1 214.8 213.8 214.1 211.1 213.1L213.9 192.5H266.5V298C266.5 302.1 266.7 302.6 270.6 303.1H270.5ZM377.1 292.7L384 315C373.1 320.4 357.1 325.2 342.6 325.2C312.4 325.2 300.9 313 300.9 284.3V217.7C300.9 216.9 300.9 216.3 300.7 215.9C299.9 214.7 296.5 215.2 281.1 215.2V192.6C303.4 190.1 312.3 178.9 315.1 151.2H339.3C339.3 184.5 338.7 189.2 340 189.8C340.3 189.9 340.7 189.8 341.3 189.8H377.1V215.2H339.3V275.9C339.3 276.1 339.3 276.4 339.3 276.8C339.1 283.1 338.4 307.2 377.2 292.7H377.1Z" fill="black"/>
</svg>
