<svg width="448" height="512" viewBox="0 0 448 512" fill="none" xmlns="http://www.w3.org/2000/svg">
<path d="M64 32C28.7 32 0 60.7 0 96V416C0 451.3 28.7 480 64 480H384C419.3 480 448 451.3 448 416V96C448 60.7 419.3 32 384 32H64ZM154.7 128.7C164.4 126.1 174.6 131 178.4 140.3L198.4 188.3C201.8 196.5 199.4 205.9 192.6 211.5L168 231.7C184.6 266.9 213.1 295.4 248.3 312L268.5 287.3C274.1 280.5 283.5 278.1 291.7 281.5L339.7 301.5C349 305.4 353.9 315.5 351.3 325.2L339.3 369.2C336.9 378 329 384 320 384C196.3 384 96 283.7 96 160C96 151 102 143.1 110.7 140.7L154.7 128.7Z" fill="black"/>
</svg>
