<svg width="448" height="512" viewBox="0 0 448 512" fill="none" xmlns="http://www.w3.org/2000/svg">
<path d="M64 32C28.7 32 0 60.7 0 96V416C0 451.3 28.7 480 64 480H384C419.3 480 448 451.3 448 416V96C448 60.7 419.3 32 384 32H64ZM384 160C384 195.3 355.3 224 320 224C304.6 224 290.5 218.6 279.4 209.5L194.1 256L279.4 302.5C290.4 293.4 304.6 288 320 288C355.3 288 384 316.7 384 352C384 387.3 355.3 416 320 416C284.7 416 256 387.3 256 352C256 349.5 256.1 347.1 256.4 344.7L174.5 300C162.8 312.3 146.3 320 128 320C92.7 320 64 291.3 64 256C64 220.7 92.7 192 128 192C146.3 192 162.8 199.7 174.5 212L256.4 167.3C256.1 164.9 256 162.4 256 160C256 124.7 284.7 96 320 96C355.3 96 384 124.7 384 160Z" fill="black"/>
</svg>
