<svg width="448" height="512" viewBox="0 0 448 512" fill="none" xmlns="http://www.w3.org/2000/svg">
<path d="M64 80C55.2 80 48 87.2 48 96V416C48 424.8 55.2 432 64 432H384C392.8 432 400 424.8 400 416V96C400 87.2 392.8 80 384 80H64ZM0 96C0 60.7 28.7 32 64 32H384C419.3 32 448 60.7 448 96V416C448 451.3 419.3 480 384 480H64C28.7 480 0 451.3 0 416V96ZM224 160C230.7 160 237 162.8 241.6 167.7L345.6 279.7C352.1 286.7 353.8 296.9 350 305.6C346.2 314.3 337.5 320 328 320H120C110.5 320 101.8 314.3 98 305.6C94.2 296.9 95.9 286.7 102.4 279.7L206.4 167.7C210.9 162.8 217.3 160 224 160Z" fill="black"/>
</svg>
