<svg width="448" height="512" viewBox="0 0 448 512" fill="none" xmlns="http://www.w3.org/2000/svg">
<path d="M448 96C448 60.7 419.3 32 384 32H64C28.7 32 0 60.7 0 96V416C0 451.3 28.7 480 64 480H384C419.3 480 448 451.3 448 416V96ZM64 256C64 200.7 108.7 156 164 156C191 156 213.5 165.8 231 182.2L203.9 208.3C196.5 201.2 183.6 192.9 164.1 192.9C130 192.9 102.2 221.1 102.2 256.1C102.2 291 130 319.3 164.1 319.3C203.7 319.3 218.5 290.8 220.9 276.2H164V241.8H258.4C259.4 246.8 260 251.9 260 258.4C260 315.5 221.7 356 164 356C108.7 356 64 311.3 64 256ZM355 274.2V303.2H325.8V274.2H296.8V245H325.8V216H355V245H384V274.2H355Z" fill="black"/>
</svg>
