<svg width="448" height="512" viewBox="0 0 448 512" fill="none" xmlns="http://www.w3.org/2000/svg">
<path d="M384 432C392.8 432 400 424.8 400 416V96C400 87.2 392.8 80 384 80H64C55.2 80 48 87.2 48 96V416C48 424.8 55.2 432 64 432H384ZM448 416C448 451.3 419.3 480 384 480H64C28.7 480 0 451.3 0 416V96C0 60.7 28.7 32 64 32H384C419.3 32 448 60.7 448 96V416ZM224 352C217.3 352 211 349.2 206.4 344.3L102.4 232.3C95.9 225.3 94.2 215.1 98 206.4C101.8 197.7 110.5 192 120 192H328C337.5 192 346.2 197.7 350 206.4C353.8 215.1 352.1 225.3 345.6 232.3L241.6 344.3C237.1 349.2 230.7 352 224 352Z" fill="black"/>
</svg>
