<svg width="448" height="512" viewBox="0 0 448 512" fill="none" xmlns="http://www.w3.org/2000/svg">
<path d="M165.6 309.1C184.2 316.8 192.9 338 185.2 356.5C177.5 375 156.2 383.7 137.6 375.9L109.1 364.1C114.1 374.7 122.9 383.5 134.5 388.3C159.7 398.8 188.6 386.9 199.1 361.8C204.2 349.7 204.2 336.3 199.2 324.1C194.1 312 184.7 302.5 172.5 297.4C160.4 292.4 147.5 292.6 136.1 296.9L165.6 309.1ZM448 96C448 60.7 419.3 32 384 32H64C28.7 32 0 60.7 0 96V240.7L116.6 288.8C128.6 280.6 142.8 276.7 157.3 277.5L212.7 197.3V196.2C212.7 148 252 108.7 300.3 108.7C348.6 108.7 387.9 148 387.9 196.2C387.9 245.4 347 284.9 298.3 283.7L219.3 340C220.9 378.5 190.2 408.8 153.6 408.8C121.8 408.8 95.1 386.1 89.1 356.1L0 319.2V416C0 451.3 28.7 480 64 480H384C419.3 480 448 451.3 448 416V96ZM241.9 196.2C241.9 211.689 248.053 226.543 259.005 237.495C269.957 248.447 284.811 254.6 300.3 254.6C315.789 254.6 330.643 248.447 341.595 237.495C352.547 226.543 358.7 211.689 358.7 196.2C358.7 180.711 352.547 165.857 341.595 154.905C330.643 143.953 315.789 137.8 300.3 137.8C284.811 137.8 269.957 143.953 259.005 154.905C248.053 165.857 241.9 180.711 241.9 196.2ZM256.5 196.1C256.5 184.457 261.125 173.291 269.358 165.058C277.591 156.825 288.757 152.2 300.4 152.2C312.043 152.2 323.209 156.825 331.442 165.058C339.675 173.291 344.3 184.457 344.3 196.1C344.3 207.743 339.675 218.909 331.442 227.142C323.209 235.375 312.043 240 300.4 240C288.757 240 277.591 235.375 269.358 227.142C261.125 218.909 256.5 207.743 256.5 196.1Z" fill="black"/>
</svg>
