<svg width="448" height="512" viewBox="0 0 448 512" fill="none" xmlns="http://www.w3.org/2000/svg">
<path d="M448 96C448 60.7 419.3 32 384 32H64C28.7 32 0 60.7 0 96V416C0 451.3 28.7 480 64 480H384C419.3 480 448 451.3 448 416V96ZM210.7 280.8C208.9 275.3 207.3 270 205.7 264.9C192.8 223 184.7 196.5 147.7 196.5C125.3 196.5 102.6 212.6 102.6 257.7C102.6 292.9 120.6 314.9 145.9 314.9C174.5 314.9 193.5 293.6 193.5 293.6L205.2 325.5C205.2 325.5 185.4 344.9 144 344.9C92.7 344.9 64.1 314.8 64.1 259.1C64.1 201.2 92.7 167.1 146.6 167.1C214.5 167.1 225.9 202.4 243 255.5C244.4 259.9 245.9 264.4 247.4 269C256.2 295.8 271.6 315.2 308.6 315.2C333.5 315.2 346.7 309.7 346.7 296.1C346.7 278.6 329.8 274.9 306.7 269.7C303.5 269 300.2 268.3 296.8 267.5C266.4 260.2 254.3 244.4 254.3 219.5C254.3 179.5 286.6 167.1 319.5 167.1C356.9 167.1 379.6 180.7 382.5 213.7L345.8 218.1C344.3 202.3 334.8 195.7 317.2 195.7C301.1 195.7 291.2 203 291.2 215.5C291.2 226.5 296 233.1 312.1 236.8C314.3 237.3 316.6 237.8 318.8 238.2C349.9 244.7 383.9 251.9 383.9 294.3C384 331 353.2 344.9 307.8 344.9C244.4 344.9 222.4 316.3 210.7 280.8Z" fill="black"/>
</svg>
