<svg width="448" height="512" viewBox="0 0 448 512" fill="none" xmlns="http://www.w3.org/2000/svg">
<path d="M0 96C0 60.7 28.7 32 64 32H384C419.3 32 448 60.7 448 96V416C448 451.3 419.3 480 384 480H64C28.7 480 0 451.3 0 416V96ZM75.7 160.6C68.8 162.5 64 168.8 64 176V336C64 344.8 71.2 352 80 352C88.8 352 96 344.8 96 336V233.8L162.3 344.3C166 350.5 173.4 353.4 180.3 351.5C187.2 349.6 192 343.3 192 336.1V176C192 167.2 184.8 160 176 160C167.2 160 160 167.2 160 176V278.2L93.7 167.8C90 161.6 82.6 158.7 75.7 160.6ZM224 176V240V336C224 344.8 231.2 352 240 352C248.8 352 256 344.8 256 336V256H304C312.8 256 320 248.8 320 240C320 231.2 312.8 224 304 224H256V192H304C312.8 192 320 184.8 320 176C320 167.2 312.8 160 304 160H240C231.2 160 224 167.2 224 176ZM384 176C384 167.2 376.8 160 368 160C359.2 160 352 167.2 352 176V336C352 344.8 359.2 352 368 352C376.8 352 384 344.8 384 336V176Z" fill="black"/>
</svg>
