<svg width="448" height="512" viewBox="0 0 448 512" fill="none" xmlns="http://www.w3.org/2000/svg">
<path d="M384 32C419.3 32 448 60.7 448 96V416C448 451.3 419.3 480 384 480H64C28.7 480 0 451.3 0 416V96C0 60.7 28.7 32 64 32H384ZM160 144C146.7 144 136 154.7 136 168C136 181.3 146.7 192 160 192H254.1L119 327C109.6 336.4 109.6 351.6 119 360.9C128.4 370.2 143.6 370.3 152.9 360.9L287.9 225.9V328C287.9 341.3 298.6 352 311.9 352C325.2 352 335.9 341.3 335.9 328V168C335.9 154.7 325.2 144 311.9 144H160Z" fill="black"/>
</svg>
