<svg width="448" height="512" viewBox="0 0 448 512" fill="none" xmlns="http://www.w3.org/2000/svg">
<path d="M64 32C28.7 32 0 60.7 0 96V416C0 451.3 28.7 480 64 480H384C419.3 480 448 451.3 448 416V96C448 60.7 419.3 32 384 32H64ZM154 154C154 163.3 149.2 171.4 141.9 176H330.8C338.1 176 344 181.9 344 189.2C344 191 343.6 192.9 342.9 194.6L312 264L342.9 333.4C343.6 335.1 344 336.9 344 338.8C344 346.1 338.1 352 330.8 352H144V384H112V352V176V174.5C105.9 169.7 102 162.3 102 154C102 139.6 113.6 128 128 128C142.4 128 154 139.6 154 154Z" fill="black"/>
</svg>
