<svg width="448" height="512" viewBox="0 0 448 512" fill="none" xmlns="http://www.w3.org/2000/svg">
<path d="M400 96C400 87.2 392.8 80 384 80H64C55.2 80 48 87.2 48 96V416C48 424.8 55.2 432 64 432H384C392.8 432 400 424.8 400 416V96ZM384 32C419.3 32 448 60.7 448 96V416C448 451.3 419.3 480 384 480H64C28.7 480 0 451.3 0 416V96C0 60.7 28.7 32 64 32H384ZM320 256C320 262.7 317.2 269 312.3 273.6L200.3 377.6C193.3 384.1 183.1 385.8 174.4 382C165.7 378.2 160 369.5 160 360V152C160 142.5 165.7 133.8 174.4 130C183.1 126.2 193.3 127.9 200.3 134.4L312.3 238.4C317.2 242.9 320 249.3 320 256Z" fill="black"/>
</svg>
