<svg width="512" height="512" viewBox="0 0 512 512" fill="none" xmlns="http://www.w3.org/2000/svg">
<path d="M0 256C0 114.6 114.6 0 256 0C289 0 320.6 6.3 349.6 17.7C357 20.6 361.1 28.4 359.4 36.1C357.7 43.8 350.6 49.1 342.7 48.5C337.9 48.2 333 48 328.1 48C213.2 48 120.1 141.1 120.1 256C120.1 370.9 213.2 464 328.1 464C333 464 337.9 463.8 342.7 463.5C350.6 463 357.7 468.2 359.4 475.9C361.1 483.6 357 491.4 349.6 494.3C320.6 505.7 289 512 256 512C114.6 512 0 397.4 0 256ZM375.4 137.4C378.9 130.3 389.1 130.3 392.6 137.4L424.1 201.2C425.5 204 428.2 206 431.3 206.5L501.7 216.7C509.6 217.8 512.7 227.5 507 233.1L456.1 282.7C453.8 284.9 452.8 288.1 453.3 291.2L465.3 361.3C466.6 369.1 458.4 375.1 451.4 371.4L388.4 338.3C385.6 336.8 382.3 336.8 379.5 338.3L316.5 371.4C309.5 375.1 301.2 369.1 302.6 361.3L314.6 291.2C315.1 288.1 314.1 284.9 311.8 282.7L261 233.1C255.3 227.5 258.4 217.9 266.3 216.7L336.7 206.5C339.8 206 342.5 204.1 343.9 201.2L375.4 137.4Z" fill="black"/>
</svg>
