<svg width="576" height="512" viewBox="0 0 576 512" fill="none" xmlns="http://www.w3.org/2000/svg">
<path d="M309.498 13.5C305.498 5.2 297.098 0 287.898 0C278.698 0 270.298 5.2 266.298 13.5L197.698 154.8L44.4979 177.5C35.4979 178.8 27.9979 185.1 25.1979 193.8C22.3979 202.5 24.6979 211.9 31.0979 218.3L142.198 328.4L115.998 483.9C114.498 492.9 118.198 502 125.698 507.4C133.198 512.8 142.998 513.4 150.998 509.1L287.998 435.9L424.998 509.1C433.098 513.4 442.898 512.8 450.298 507.4C457.698 502 461.498 492.9 459.998 483.9L433.598 328.4L544.798 218.2C551.298 211.8 553.498 202.3 550.698 193.7C547.898 185.1 540.398 178.8 531.398 177.4L378.098 154.8L309.498 13.5ZM287.998 384.7V79.1L340.498 187.2C343.998 194.3 350.698 199.3 358.598 200.5L476.898 218L390.998 303C385.498 308.5 382.898 316.3 384.198 324L404.398 443.6L299.198 387.5C295.698 385.6 291.798 384.7 287.998 384.7Z" fill="black"/>
</svg>
