<svg width="320" height="512" viewBox="0 0 320 512" fill="none" xmlns="http://www.w3.org/2000/svg">
<g clip-path="url(#clip0_3932_47091)">
<mask id="mask0_3932_47091" style="mask-type:luminance" maskUnits="userSpaceOnUse" x="0" y="0" width="320" height="512">
<path d="M320 0H0V512H320V0Z" fill="white"/>
</mask>
<g mask="url(#mask0_3932_47091)">
<mask id="mask1_3932_47091" style="mask-type:luminance" maskUnits="userSpaceOnUse" x="0" y="0" width="320" height="512">
<path d="M320 0H0V512H320V0Z" fill="white"/>
</mask>
<g mask="url(#mask1_3932_47091)">
<mask id="mask2_3932_47091" style="mask-type:luminance" maskUnits="userSpaceOnUse" x="0" y="0" width="320" height="512">
<path d="M320 0H0V512H320V0Z" fill="white"/>
</mask>
<g mask="url(#mask2_3932_47091)">
<mask id="mask3_3932_47091" style="mask-type:luminance" maskUnits="userSpaceOnUse" x="0" y="0" width="320" height="512">
<path d="M320 0H0V512H320V0Z" fill="white"/>
</mask>
<g mask="url(#mask3_3932_47091)">
<mask id="mask4_3932_47091" style="mask-type:luminance" maskUnits="userSpaceOnUse" x="0" y="0" width="320" height="512">
<path d="M320 0H0V512H320V0Z" fill="white"/>
</mask>
<g mask="url(#mask4_3932_47091)">
<mask id="mask5_3932_47091" style="mask-type:luminance" maskUnits="userSpaceOnUse" x="0" y="0" width="320" height="512">
<path d="M320 0H0V512H320V0Z" fill="white"/>
</mask>
<g mask="url(#mask5_3932_47091)">
<mask id="mask6_3932_47091" style="mask-type:luminance" maskUnits="userSpaceOnUse" x="0" y="0" width="320" height="512">
<path d="M320 0H0V512H320V0Z" fill="white"/>
</mask>
<g mask="url(#mask6_3932_47091)">
<mask id="mask7_3932_47091" style="mask-type:luminance" maskUnits="userSpaceOnUse" x="0" y="0" width="320" height="512">
<path d="M320 0H0V512H320V0Z" fill="white"/>
</mask>
<g mask="url(#mask7_3932_47091)">
<mask id="mask8_3932_47091" style="mask-type:luminance" maskUnits="userSpaceOnUse" x="0" y="0" width="320" height="512">
<path d="M320 0H0V512H320V0Z" fill="white"/>
</mask>
<g mask="url(#mask8_3932_47091)">
<mask id="mask9_3932_47091" style="mask-type:luminance" maskUnits="userSpaceOnUse" x="0" y="0" width="320" height="512">
<path d="M320 0H0V512H320V0Z" fill="white"/>
</mask>
<g mask="url(#mask9_3932_47091)">
<mask id="mask10_3932_47091" style="mask-type:luminance" maskUnits="userSpaceOnUse" x="0" y="0" width="320" height="512">
<path d="M320 0H0V512H320V0Z" fill="white"/>
</mask>
<g mask="url(#mask10_3932_47091)">
<mask id="mask11_3932_47091" style="mask-type:luminance" maskUnits="userSpaceOnUse" x="0" y="0" width="320" height="512">
<path d="M320 0H0V512H320V0Z" fill="white"/>
</mask>
<g mask="url(#mask11_3932_47091)">
<mask id="mask12_3932_47091" style="mask-type:luminance" maskUnits="userSpaceOnUse" x="0" y="0" width="320" height="512">
<path d="M320 0H0V512H320V0Z" fill="white"/>
</mask>
<g mask="url(#mask12_3932_47091)">
<mask id="mask13_3932_47091" style="mask-type:luminance" maskUnits="userSpaceOnUse" x="0" y="0" width="320" height="512">
<path d="M320 0H0V512H320V0Z" fill="white"/>
</mask>
<g mask="url(#mask13_3932_47091)">
<path d="M112 160.4C112 124.9 140.8 96 176.4 96C183.3 96 190.2 97.1 196.8 99.3L278 126.4C294.8 132 312.9 122.9 318.5 106.2C324.1 89.5 315 71.3 298.3 65.7L217 38.6C203.9 34.2 190.2 32 176.4 32C105.5 32 48 89.5 48 160.4V224H32C14.3 224 0 238.3 0 256C0 273.7 14.3 288 32 288H48V332.5C48 349.9 43.3 367 34.3 381.9L4.6 431.5C-1.3 441.4 -1.5 453.7 4.2 463.7C9.9 473.7 20.5 480 32 480H288C305.7 480 320 465.7 320 448C320 430.3 305.7 416 288 416H88.5L89.2 414.9C104.1 390 112 361.5 112 332.5V288H224C241.7 288 256 273.7 256 256C256 238.3 241.7 224 224 224H112V160.4Z" fill="black"/>
</g>
</g>
</g>
</g>
</g>
</g>
</g>
</g>
</g>
</g>
</g>
</g>
</g>
</g>
</g>
<defs>
<clipPath id="clip0_3932_47091">
<rect width="320" height="512" fill="white"/>
</clipPath>
</defs>
</svg>
