<svg width="576" height="512" viewBox="0 0 576 512" fill="none" xmlns="http://www.w3.org/2000/svg">
<g clip-path="url(#clip0_3932_47207)">
<mask id="mask0_3932_47207" style="mask-type:luminance" maskUnits="userSpaceOnUse" x="0" y="0" width="576" height="512">
<path d="M576 0H0V512H576V0Z" fill="white"/>
</mask>
<g mask="url(#mask0_3932_47207)">
<mask id="mask1_3932_47207" style="mask-type:luminance" maskUnits="userSpaceOnUse" x="0" y="0" width="576" height="512">
<path d="M576 0H0V512H576V0Z" fill="white"/>
</mask>
<g mask="url(#mask1_3932_47207)">
<mask id="mask2_3932_47207" style="mask-type:luminance" maskUnits="userSpaceOnUse" x="0" y="0" width="576" height="512">
<path d="M576 0H0V512H576V0Z" fill="white"/>
</mask>
<g mask="url(#mask2_3932_47207)">
<mask id="mask3_3932_47207" style="mask-type:luminance" maskUnits="userSpaceOnUse" x="0" y="0" width="576" height="512">
<path d="M576 0H0V512H576V0Z" fill="white"/>
</mask>
<g mask="url(#mask3_3932_47207)">
<mask id="mask4_3932_47207" style="mask-type:luminance" maskUnits="userSpaceOnUse" x="0" y="0" width="576" height="512">
<path d="M576 0H0V512H576V0Z" fill="white"/>
</mask>
<g mask="url(#mask4_3932_47207)">
<mask id="mask5_3932_47207" style="mask-type:luminance" maskUnits="userSpaceOnUse" x="0" y="0" width="576" height="512">
<path d="M576 0H0V512H576V0Z" fill="white"/>
</mask>
<g mask="url(#mask5_3932_47207)">
<mask id="mask6_3932_47207" style="mask-type:luminance" maskUnits="userSpaceOnUse" x="0" y="0" width="576" height="512">
<path d="M576 0H0V512H576V0Z" fill="white"/>
</mask>
<g mask="url(#mask6_3932_47207)">
<mask id="mask7_3932_47207" style="mask-type:luminance" maskUnits="userSpaceOnUse" x="0" y="0" width="576" height="512">
<path d="M576 0H0V512H576V0Z" fill="white"/>
</mask>
<g mask="url(#mask7_3932_47207)">
<mask id="mask8_3932_47207" style="mask-type:luminance" maskUnits="userSpaceOnUse" x="0" y="0" width="576" height="512">
<path d="M576 0H0V512H576V0Z" fill="white"/>
</mask>
<g mask="url(#mask8_3932_47207)">
<mask id="mask9_3932_47207" style="mask-type:luminance" maskUnits="userSpaceOnUse" x="0" y="0" width="576" height="512">
<path d="M576 0H0V512H576V0Z" fill="white"/>
</mask>
<g mask="url(#mask9_3932_47207)">
<mask id="mask10_3932_47207" style="mask-type:luminance" maskUnits="userSpaceOnUse" x="0" y="0" width="576" height="512">
<path d="M576 0H0V512H576V0Z" fill="white"/>
</mask>
<g mask="url(#mask10_3932_47207)">
<mask id="mask11_3932_47207" style="mask-type:luminance" maskUnits="userSpaceOnUse" x="0" y="0" width="576" height="512">
<path d="M576 0H0V512H576V0Z" fill="white"/>
</mask>
<g mask="url(#mask11_3932_47207)">
<mask id="mask12_3932_47207" style="mask-type:luminance" maskUnits="userSpaceOnUse" x="0" y="0" width="576" height="512">
<path d="M576 0H0V512H576V0Z" fill="white"/>
</mask>
<g mask="url(#mask12_3932_47207)">
<mask id="mask13_3932_47207" style="mask-type:luminance" maskUnits="userSpaceOnUse" x="0" y="0" width="576" height="512">
<path d="M576 0H0V512H576V0Z" fill="white"/>
</mask>
<g mask="url(#mask13_3932_47207)">
<path d="M561.703 199.6C560.403 199.9 562.003 199.6 561.703 199.6V199.6ZM555.503 122.2C547.803 99.9 550.403 115 542.103 85.3C540.503 78.8 538.503 70.8 535.903 65.3C531.503 56.6 531.303 57.8 531.303 55.8C531.303 50.5 562.003 10.5 550.303 8.9C544.603 8.3 538.103 20.5 529.703 25.9C521.103 30.1 521.703 30.9 519.403 30.9C516.803 30.9 513.703 27.9 513.203 25.9C511.203 20.2 515.103 0 509.603 0C506.003 0 497.303 24.8 492.603 25.8C487.403 27.1 464.703 14.4 417.503 43.8C392.203 57 330.603 109 330.503 109.1C323.803 113.8 310.503 113.8 295.003 125.1C250.603 155.2 185.403 134.5 184.303 134.1C73.7027 107.3 56.3027 118.9 25.3027 145.6C4.50272 163.5 1.60272 182.1 1.10272 184.5C-3.09728 204.9 6.30272 232.8 7.80272 248.8C9.60272 268.1 5.10272 266.5 15.5027 347.1C16.0027 348.1 19.6027 347.1 20.6027 348.6C20.6027 357 16.8027 360.7 16.5027 361.6C15.0027 366.1 15.0027 372.1 16.5027 377.6C18.8027 385.8 24.7027 414.8 24.7027 424.5C24.7027 466.3 25.1027 468.5 27.3027 473.9C31.2027 483.9 39.8027 483 44.3027 485.9C47.4027 489.4 43.8027 494.4 45.3027 498.4C45.8027 500.4 48.9027 502.4 51.5027 503.4C60.7027 507 78.5027 503.7 81.4027 500.9C83.0027 499.4 81.9027 496.4 84.5027 495.9C89.6027 495.9 95.3027 495.4 98.9027 493.4C104.003 490.9 103.003 487.4 100.403 482.9C100.003 482.1 93.4027 469.6 90.6027 466.9C88.5027 464.9 85.5027 463.9 83.4027 462.4C77.6027 457.5 73.1027 443 73.1027 442.9C68.5027 423.5 62.8027 396.6 69.0027 376.1C73.6027 358.9 108.503 288.4 108.603 288.3C112.703 281.8 125.603 276.8 135.903 281.3C141.903 283.2 155.203 303.3 201.303 312.2C249.203 320.9 298.703 310.2 313.503 310.2C316.303 312.2 311.603 323.2 313.003 349.1C313.003 375.5 312.603 362.8 308.903 379C306.703 388.7 312.303 402.2 307.403 425.9C306.003 435.7 297.503 458.6 299.203 469.3C299.703 470.3 300.203 471.3 300.703 472.8C301.203 477.3 302.203 481.3 305.303 482.8C312.603 486.4 317.303 479.3 315.103 494.3C314.403 497.4 312.503 506.3 316.603 509.3C321.003 513 347.203 512.7 353.103 509.8C355.703 508.3 354.703 505.3 359.503 502.4C361.403 501.5 370.803 502 370.803 495.9C371.103 494.1 361.603 476 361.503 475.9C358.903 472.4 352.303 471.4 350.203 467.9C343.303 457.8 348.503 415.3 350.703 408.5C353.703 397.5 356.303 386.1 359.403 376.1C370.403 333.6 369.703 325.5 375.903 307.8C376.703 306 382.303 284.7 386.203 277.9C395.503 260.9 407.903 245.5 419.703 230.5C437.703 207.6 453.703 183.6 471.703 160.7C477.803 153.7 479.903 147 489.703 152.7C500.503 158.4 511.303 159.7 521.603 169.7C536.203 182.5 531.803 187.9 533.403 192.6C534.903 197.6 541.103 203.1 548.303 202.1C558.703 200.1 561.303 199.6 561.703 199.6C564.303 199.1 567.403 194.6 568.903 191.6C572.003 186.1 576.103 182.6 576.103 175.1C576.103 167.4 575.703 172.3 555.503 122.2Z" fill="black"/>
</g>
</g>
</g>
</g>
</g>
</g>
</g>
</g>
</g>
</g>
</g>
</g>
</g>
</g>
</g>
<defs>
<clipPath id="clip0_3932_47207">
<rect width="576" height="512" fill="white"/>
</clipPath>
</defs>
</svg>
