<svg width="448" height="512" viewBox="0 0 448 512" fill="none" xmlns="http://www.w3.org/2000/svg">
<path d="M176 0C158.3 0 144 14.3 144 32C144 49.7 158.3 64 176 64H192V98.4C92.3 113.8 16 200 16 304C16 418.9 109.1 512 224 512C338.9 512 432 418.9 432 304C432 262.2 419.7 223.3 398.5 190.8L422.6 166.7C435.1 154.2 435.1 133.9 422.6 121.4C410.1 108.9 389.8 108.9 377.3 121.4L355.7 143C327.6 120 293.5 104.2 256 98.4V64H272C289.7 64 304 49.7 304 32C304 14.3 289.7 0 272 0H176ZM288 204C316.7 204 340 227.3 340 256V352C340 380.7 316.7 404 288 404C259.3 404 236 380.7 236 352V256C236 227.3 259.3 204 288 204ZM276 256V352C276 358.6 281.4 364 288 364C294.6 364 300 358.6 300 352V256C300 249.4 294.6 244 288 244C281.4 244 276 249.4 276 256ZM159.5 244C154.1 244 149.3 247.5 147.6 252.6L147 254.3C143.5 264.8 132.2 270.4 121.7 266.9C111.2 263.4 105.6 252.1 109.1 241.6L109.7 239.9C116.9 218.4 136.9 204 159.5 204C188.5 204 212 227.5 212 256.5V258.7C212 272.1 207.1 285.1 198.2 295.1L159.2 339C153 346 149.2 354.7 148.3 363.9H192C203 363.9 212 372.9 212 383.9C212 394.9 203 403.9 192 403.9H128C117 403.9 108 394.9 108 383.9V368.3C108 347.7 115.5 327.9 129.2 312.5L168.2 268.6C170.6 265.9 171.9 262.4 171.9 258.8V256.6C171.9 249.7 166.3 244.1 159.4 244.1L159.5 244Z" fill="black"/>
</svg>
