<svg width="576" height="512" viewBox="0 0 576 512" fill="none" xmlns="http://www.w3.org/2000/svg">
<path d="M547.598 103.8L490.298 13.1C485.198 5 476.098 0 466.398 0H109.598C99.8978 0 90.7978 5 85.6978 13.1L28.2978 103.8C-1.30222 150.6 24.8978 215.7 80.1978 223.2C84.1978 223.7 88.2978 224 92.2978 224C118.398 224 141.598 212.6 157.498 195C173.398 212.6 196.598 224 222.698 224C248.798 224 271.998 212.6 287.898 195C303.798 212.6 326.998 224 353.098 224C379.298 224 402.398 212.6 418.298 195C434.298 212.6 457.398 224 483.498 224C487.598 224 491.598 223.7 495.598 223.2C551.098 215.8 577.398 150.7 547.698 103.8H547.598ZM499.698 254.9H499.598C494.298 255.6 488.898 256 483.398 256C470.998 256 459.098 254.1 447.998 250.7V384H127.998V250.6C116.798 254.1 104.798 256 92.3978 256C86.8978 256 81.3978 255.6 76.0978 254.9H75.9978C71.8978 254.3 67.8978 253.6 63.9978 252.6V384V448C63.9978 483.3 92.6978 512 127.998 512H447.998C483.298 512 511.998 483.3 511.998 448V384V252.6C507.998 253.6 503.998 254.4 499.698 254.9Z" fill="black"/>
</svg>
