<svg width="512" height="512" viewBox="0 0 512 512" fill="none" xmlns="http://www.w3.org/2000/svg">
<g clip-path="url(#clip0_3932_47333)">
<mask id="mask0_3932_47333" style="mask-type:luminance" maskUnits="userSpaceOnUse" x="0" y="0" width="512" height="512">
<path d="M512 0H0V512H512V0Z" fill="white"/>
</mask>
<g mask="url(#mask0_3932_47333)">
<mask id="mask1_3932_47333" style="mask-type:luminance" maskUnits="userSpaceOnUse" x="0" y="0" width="512" height="512">
<path d="M512 0H0V512H512V0Z" fill="white"/>
</mask>
<g mask="url(#mask1_3932_47333)">
<mask id="mask2_3932_47333" style="mask-type:luminance" maskUnits="userSpaceOnUse" x="0" y="0" width="512" height="512">
<path d="M512 0H0V512H512V0Z" fill="white"/>
</mask>
<g mask="url(#mask2_3932_47333)">
<mask id="mask3_3932_47333" style="mask-type:luminance" maskUnits="userSpaceOnUse" x="0" y="0" width="512" height="512">
<path d="M512 0H0V512H512V0Z" fill="white"/>
</mask>
<g mask="url(#mask3_3932_47333)">
<mask id="mask4_3932_47333" style="mask-type:luminance" maskUnits="userSpaceOnUse" x="0" y="0" width="512" height="512">
<path d="M512 0H0V512H512V0Z" fill="white"/>
</mask>
<g mask="url(#mask4_3932_47333)">
<mask id="mask5_3932_47333" style="mask-type:luminance" maskUnits="userSpaceOnUse" x="0" y="0" width="512" height="512">
<path d="M512 0H0V512H512V0Z" fill="white"/>
</mask>
<g mask="url(#mask5_3932_47333)">
<mask id="mask6_3932_47333" style="mask-type:luminance" maskUnits="userSpaceOnUse" x="0" y="0" width="512" height="512">
<path d="M512 0H0V512H512V0Z" fill="white"/>
</mask>
<g mask="url(#mask6_3932_47333)">
<mask id="mask7_3932_47333" style="mask-type:luminance" maskUnits="userSpaceOnUse" x="0" y="0" width="512" height="512">
<path d="M512 0H0V512H512V0Z" fill="white"/>
</mask>
<g mask="url(#mask7_3932_47333)">
<mask id="mask8_3932_47333" style="mask-type:luminance" maskUnits="userSpaceOnUse" x="0" y="0" width="512" height="512">
<path d="M512 0H0V512H512V0Z" fill="white"/>
</mask>
<g mask="url(#mask8_3932_47333)">
<mask id="mask9_3932_47333" style="mask-type:luminance" maskUnits="userSpaceOnUse" x="0" y="0" width="512" height="512">
<path d="M512 0H0V512H512V0Z" fill="white"/>
</mask>
<g mask="url(#mask9_3932_47333)">
<mask id="mask10_3932_47333" style="mask-type:luminance" maskUnits="userSpaceOnUse" x="0" y="0" width="512" height="512">
<path d="M512 0H0V512H512V0Z" fill="white"/>
</mask>
<g mask="url(#mask10_3932_47333)">
<mask id="mask11_3932_47333" style="mask-type:luminance" maskUnits="userSpaceOnUse" x="0" y="0" width="512" height="512">
<path d="M512 0H0V512H512V0Z" fill="white"/>
</mask>
<g mask="url(#mask11_3932_47333)">
<mask id="mask12_3932_47333" style="mask-type:luminance" maskUnits="userSpaceOnUse" x="0" y="0" width="512" height="512">
<path d="M512 0H0V512H512V0Z" fill="white"/>
</mask>
<g mask="url(#mask12_3932_47333)">
<mask id="mask13_3932_47333" style="mask-type:luminance" maskUnits="userSpaceOnUse" x="0" y="0" width="512" height="512">
<path d="M512 0H0V512H512V0Z" fill="white"/>
</mask>
<g mask="url(#mask13_3932_47333)">
<path d="M320 64C320 47.0261 313.257 30.7475 301.255 18.7452C289.253 6.74284 272.974 0 256 0C239.026 0 222.747 6.74284 210.745 18.7452C198.743 30.7475 192 47.0261 192 64C192 80.9739 198.743 97.2525 210.745 109.255C222.747 121.257 239.026 128 256 128C272.974 128 289.253 121.257 301.255 109.255C313.257 97.2525 320 80.9739 320 64ZM224 160C188.7 160 160 188.7 160 224V272C160 289.7 174.3 304 192 304H193.8L204.9 403.5C206.7 419.7 220.4 432 236.7 432H275.4C291.7 432 305.4 419.7 307.2 403.5L318.2 304H320C337.7 304 352 289.7 352 272V224C352 188.7 323.3 160 288 160H224ZM132.3 394.2C145.3 391.8 154 379.3 151.6 366.3C149.2 353.3 136.7 344.6 123.7 347C91.3 352.9 62.8 361.2 41.7 371.8C31.2 377.1 21.4 383.5 13.9 391.4C6.4 399.5 0 410.5 0 424C0 445.4 15.5 460.1 29.1 469C43.8 478.6 63.4 486.3 85.5 492.4C130.2 504.7 190.4 512 256 512C321.6 512 381.8 504.7 426.4 492.4C448.5 486.3 468.2 478.6 482.8 469C496.5 460.1 511.9 445.4 511.9 424C511.9 410.5 505.5 399.5 497.9 391.4C490.4 383.5 480.6 377.1 470.1 371.8C449.1 361.2 420.6 352.9 388.1 347C375.1 344.6 362.6 353.3 360.2 366.3C357.8 379.3 366.5 391.8 379.5 394.2C409.7 399.7 433.2 407 448.5 414.7C451.7 416.3 454.3 417.8 456.4 419.2C460 421.6 460 426.4 456.4 428.8C447.6 434.5 433.3 440.6 413.4 446.1C374.3 457 318.5 464 256 464C193.5 464 137.7 457 98.3 446.1C78.4 440.6 64.1 434.5 55.3 428.8C51.7 426.4 51.7 421.6 55.3 419.2C57.4 417.8 60.1 416.3 63.2 414.7C78.5 407 102 399.8 132.2 394.2H132.3Z" fill="black"/>
</g>
</g>
</g>
</g>
</g>
</g>
</g>
</g>
</g>
</g>
</g>
</g>
</g>
</g>
</g>
<defs>
<clipPath id="clip0_3932_47333">
<rect width="512" height="512" fill="white"/>
</clipPath>
</defs>
</svg>
