<svg width="448" height="512" viewBox="0 0 448 512" fill="none" xmlns="http://www.w3.org/2000/svg">
<path d="M136.5 294.2L195.3 317.1C204.4 280.3 220.7 256 250.3 256C299.7 256 321.7 319.6 392.7 319.6C408.3 319.6 428.6 316.8 448 306.3V368C448 429.8 397.6 480 335.7 480H0L41.8 424L0 368L41.7 312L0 256.1L41.8 200.1L0 144.1L41.8 88L0 32H335.7C397.6 32 448 82.3 448 144.1V195.4C438.8 231.7 422.1 256 393 256C343.4 256 321.4 192.5 250.6 192.5C214.7 192.5 155.4 207.1 136.5 294.1V294.2Z" fill="black"/>
</svg>
