<svg width="512" height="512" viewBox="0 0 512 512" fill="none" xmlns="http://www.w3.org/2000/svg">
<path d="M480.302 187.7L484.502 215.7V243.7L459.402 287.8L419.602 366.2L363.502 433.7L284.402 471.5L266.702 496L259.002 508L249.402 512C249.402 512 266.702 448.4 268.802 448.4C270.902 448.4 289.102 449.1 289.102 449.1L355.802 410.5L263.302 436.6L207.402 473.4L184.602 501.4L178.002 502.8L198.802 429.2L205.702 423.7L226.402 436.6L314.702 391.4L371.502 339.9L386.302 271.5L260.902 294.8L276.102 276.6L102.702 223.3L184.602 212.8L18.6016 89.9L133.502 108L32.2016 0L285.102 126.6L253.602 88.6L378.002 163L234.702 64L253.402 102.4L203.802 84.3L158.302 0L352.902 122L310.002 66.2L418.002 162.6L430.002 153.7L409.002 137.3L413.202 99.5L451.002 89.1L480.202 113.8L491.702 118L484.702 124.2L493.202 136.2L480.102 143.6L469.802 163.8L480.302 187.7Z" fill="black"/>
</svg>
