<svg width="512" height="512" viewBox="0 0 512 512" fill="none" xmlns="http://www.w3.org/2000/svg">
<path d="M32 64C14.3 64 0 78.3 0 96C0 113.7 14.3 128 32 128H47.3L136.9 256L47.3 384H32C14.3 384 0 398.3 0 416C0 433.7 14.3 448 32 448H64C74.4 448 84.2 442.9 90.2 434.4L176 311.8L261.8 434.4C267.8 443 277.6 448 288 448H320C337.7 448 352 433.7 352 416C352 398.3 337.7 384 320 384H304.7L215.1 256L304.7 128H320C337.7 128 352 113.7 352 96C352 78.3 337.7 64 320 64H288C277.6 64 267.8 69.1 261.8 77.6L176 200.2L90.2 77.6C84.2 69.1 74.4 64 64 64H32ZM480 320C480 308.9 474.3 298.6 464.8 292.8C455.3 287 443.6 286.4 433.7 291.4L401.7 307.4C385.9 315.3 379.5 334.5 387.4 350.3C393 361.5 404.3 368 416 368V448C398.3 448 384 462.3 384 480C384 497.7 398.3 512 416 512H448H480C497.7 512 512 497.7 512 480C512 462.3 497.7 448 480 448V320Z" fill="black"/>
</svg>
