<svg width="512" height="512" viewBox="0 0 512 512" fill="none" xmlns="http://www.w3.org/2000/svg">
<path d="M184 48H328C332.4 48 336 51.6 336 56V96H176V56C176 51.6 179.6 48 184 48ZM128 56V96V128V480H384V128V96V56C384 25.1 358.9 0 328 0H184C153.1 0 128 25.1 128 56ZM96 96H64C28.7 96 0 124.7 0 160V416C0 451.3 28.7 480 64 480H96V96ZM416 480H448C483.3 480 512 451.3 512 416V160C512 124.7 483.3 96 448 96H416V480ZM224 208C224 199.2 231.2 192 240 192H272C280.8 192 288 199.2 288 208V256H336C344.8 256 352 263.2 352 272V304C352 312.8 344.8 320 336 320H288V368C288 376.8 280.8 384 272 384H240C231.2 384 224 376.8 224 368V320H176C167.2 320 160 312.8 160 304V272C160 263.2 167.2 256 176 256H224V208Z" fill="black"/>
</svg>
