<svg width="512" height="512" viewBox="0 0 512 512" fill="none" xmlns="http://www.w3.org/2000/svg">
<path d="M480 32.0003C480 20.9003 474.3 10.6003 464.8 4.80031C455.3 -0.999696 443.6 -1.59969 433.7 3.40031L401.7 19.4003C385.9 27.3003 379.5 46.5003 387.4 62.3003C393 73.5003 404.3 80.0003 416 80.0003V160C398.3 160 384 174.3 384 192C384 209.7 398.3 224 416 224H448H480C497.7 224 512 209.7 512 192C512 174.3 497.7 160 480 160V32.0003ZM32 64.0003C14.3 64.0003 0 78.3003 0 96.0003C0 113.7 14.3 128 32 128H47.3L136.9 256L47.3 384H32C14.3 384 0 398.3 0 416C0 433.7 14.3 448 32 448H64C74.4 448 84.2 442.9 90.2 434.4L176 311.8L261.8 434.4C267.8 443 277.6 448 288 448H320C337.7 448 352 433.7 352 416C352 398.3 337.7 384 320 384H304.7L215.1 256L304.7 128H320C337.7 128 352 113.7 352 96.0003C352 78.3003 337.7 64.0003 320 64.0003H288C277.6 64.0003 267.8 69.1003 261.8 77.6003L176 200.2L90.2 77.6003C84.2 69.1003 74.4 64.0003 64 64.0003H32Z" fill="black"/>
</svg>
