<svg width="640" height="512" viewBox="0 0 640 512" fill="none" xmlns="http://www.w3.org/2000/svg">
<path d="M593.095 192.596C594.238 191.847 595.516 191.331 596.858 191.077C598.2 190.823 599.579 190.835 600.916 191.114C602.254 191.392 603.523 191.931 604.652 192.7C605.78 193.47 606.747 194.453 607.495 195.596C608.244 196.738 608.76 198.017 609.014 199.359C609.268 200.701 609.256 202.08 608.977 203.417C608.699 204.754 608.16 206.024 607.391 207.152C606.621 208.281 605.638 209.247 604.495 209.996C602.188 211.508 599.374 212.041 596.674 211.478C593.973 210.916 591.607 209.303 590.095 206.996C588.583 204.689 588.05 201.875 588.613 199.175C589.175 196.474 590.788 194.108 593.095 192.596ZM545.995 204.796C544.839 199.871 544.665 194.767 545.482 189.775C546.299 184.783 548.091 180.001 550.756 175.702C553.421 171.403 556.907 167.67 561.014 164.718C565.122 161.766 569.771 159.652 574.695 158.496C584.641 156.162 595.106 157.875 603.789 163.257C612.472 168.639 618.661 177.25 620.995 187.196C623.329 197.142 621.616 207.607 616.234 216.29C610.852 224.973 602.241 231.162 592.295 233.496C582.349 235.83 571.884 234.117 563.201 228.735C554.518 223.353 548.329 214.742 545.995 204.796ZM433.695 336.696C436.895 341.296 439.495 345.696 440.995 350.096C441.995 353.196 443.395 357.396 446.495 358.996C446.695 359.096 446.795 359.196 446.995 359.196C452.695 361.296 467.295 360.896 467.295 360.896H494.095C496.395 360.896 516.495 360.896 515.995 358.596C513.595 347.796 501.095 345.896 491.595 340.296C482.895 335.096 474.595 329.196 470.795 318.996C468.795 313.796 469.995 301.596 473.395 297.196C475.895 293.996 479.495 291.896 483.395 290.996C487.695 290.096 492.195 290.896 496.495 291.296C501.795 291.796 507.095 292.796 512.395 293.496C522.695 294.796 532.995 295.396 543.395 295.096C560.495 294.596 577.595 291.896 593.795 286.396C605.095 282.596 616.195 277.496 625.795 270.296C636.695 262.196 633.895 262.896 622.795 264.096C609.495 265.496 596.195 265.696 582.895 264.896C570.495 264.196 558.195 262.696 546.995 256.996C538.195 252.396 530.595 247.896 523.595 240.796C522.595 239.696 521.895 236.596 523.795 234.596C525.695 232.696 529.595 233.796 530.795 234.796C542.995 244.996 561.295 253.396 580.095 254.296C590.295 254.796 600.195 254.996 610.495 254.596C615.595 254.396 623.295 254.396 628.395 254.296C630.995 254.296 638.195 254.996 639.595 252.196C639.995 251.396 639.995 250.396 639.895 249.496C638.395 208.596 635.395 162.596 592.595 142.996C560.695 128.396 512.895 105.796 492.695 96.3955C487.995 94.1955 482.495 97.6955 482.495 102.896C482.495 116.496 483.195 136.196 483.195 153.996C473.495 144.096 457.195 137.896 444.795 132.196C430.695 125.696 416.095 120.196 401.295 115.596C371.495 106.396 340.595 100.696 309.595 97.5955C274.395 94.0955 238.595 95.7955 203.895 102.896C146.995 115.096 90.7952 142.596 48.1952 182.696C22.0952 207.296 1.59519 242.396 0.195191 277.896C-1.80481 328.196 12.2952 355.196 38.1952 383.096C79.4952 427.496 168.395 433.696 204.395 381.096C220.595 357.396 224.095 325.296 212.395 299.096C200.595 272.896 173.595 253.996 144.995 253.096C122.795 252.396 99.0952 263.696 90.4952 284.196C83.9952 299.896 87.6952 319.296 99.4952 331.496C104.095 336.296 110.395 340.196 117.195 338.596C121.195 337.696 124.595 334.696 125.195 330.596C126.095 324.596 120.795 320.696 117.595 316.096C111.795 307.796 112.895 295.196 120.295 288.196C126.495 282.196 135.595 280.396 144.195 280.496C152.195 280.496 160.395 281.896 167.295 285.996C176.995 291.696 183.495 302.196 185.695 313.196C192.395 346.196 165.495 373.096 129.095 375.196C110.495 376.296 91.4952 371.396 76.9952 359.696C40.0952 329.896 31.0952 269.396 73.1952 236.996C113.195 206.296 163.595 214.196 193.395 230.196C217.195 242.996 234.895 263.796 248.395 286.896C255.095 298.496 260.895 310.596 266.195 322.996C271.295 334.796 276.095 346.796 286.395 355.496C293.195 361.296 301.595 361.096 310.495 361.096H361.295C368.195 361.096 366.495 356.496 363.495 353.396C356.795 346.496 347.095 344.996 338.095 342.496C317.595 336.896 319.695 309.696 325.395 309.696C343.695 309.696 344.295 310.296 360.295 309.996C383.495 309.696 390.495 308.296 408.595 314.996C418.295 318.596 427.595 328.096 433.695 336.696Z" fill="black"/>
</svg>
