<svg width="448" height="512" viewBox="0 0 448 512" fill="none" xmlns="http://www.w3.org/2000/svg">
<path d="M0 80.0019V229.502C0 246.502 6.7 262.802 18.7 274.802L194.7 450.802C219.7 475.802 260.2 475.802 285.2 450.802L418.7 317.302C443.7 292.302 443.7 251.802 418.7 226.802L242.7 50.8019C230.7 38.8019 214.4 32.1019 197.4 32.1019H48C21.5 32.0019 0 53.5019 0 80.0019ZM112 112.002C120.487 112.002 128.626 115.373 134.627 121.375C140.629 127.376 144 135.515 144 144.002C144 152.489 140.629 160.628 134.627 166.629C128.626 172.631 120.487 176.002 112 176.002C103.513 176.002 95.3737 172.631 89.3726 166.629C83.3714 160.628 80 152.489 80 144.002C80 135.515 83.3714 127.376 89.3726 121.375C95.3737 115.373 103.513 112.002 112 112.002Z" fill="black"/>
</svg>
