<svg width="576" height="512" viewBox="0 0 576 512" fill="none" xmlns="http://www.w3.org/2000/svg">
<path d="M380.8 416C422.3 375.3 448 318.7 448 256C448 132.3 347.7 32 224 32C100.3 32 0 132.3 0 256C0 379.7 100.3 480 224 480H544C561.7 480 576 465.7 576 448C576 430.3 561.7 416 544 416H380.8ZM224 160C249.461 160 273.879 170.114 291.882 188.118C309.886 206.121 320 230.539 320 256C320 281.461 309.886 305.879 291.882 323.882C273.879 341.886 249.461 352 224 352C198.539 352 174.121 341.886 156.118 323.882C138.114 305.879 128 281.461 128 256C128 230.539 138.114 206.121 156.118 188.118C174.121 170.114 198.539 160 224 160ZM288 256C288 239.026 281.257 222.747 269.255 210.745C257.253 198.743 240.974 192 224 192C207.026 192 190.747 198.743 178.745 210.745C166.743 222.747 160 239.026 160 256C160 272.974 166.743 289.253 178.745 301.255C190.747 313.257 207.026 320 224 320C240.974 320 257.253 313.257 269.255 301.255C281.257 289.253 288 272.974 288 256Z" fill="black"/>
</svg>
