<svg width="576" height="512" viewBox="0 0 576 512" fill="none" xmlns="http://www.w3.org/2000/svg">
<g clip-path="url(#clip0_3932_48597)">
<mask id="mask0_3932_48597" style="mask-type:luminance" maskUnits="userSpaceOnUse" x="0" y="0" width="576" height="512">
<path d="M576 0H0V512H576V0Z" fill="white"/>
</mask>
<g mask="url(#mask0_3932_48597)">
<mask id="mask1_3932_48597" style="mask-type:luminance" maskUnits="userSpaceOnUse" x="0" y="0" width="576" height="512">
<path d="M576 0H0V512H576V0Z" fill="white"/>
</mask>
<g mask="url(#mask1_3932_48597)">
<mask id="mask2_3932_48597" style="mask-type:luminance" maskUnits="userSpaceOnUse" x="0" y="0" width="576" height="512">
<path d="M576 0H0V512H576V0Z" fill="white"/>
</mask>
<g mask="url(#mask2_3932_48597)">
<mask id="mask3_3932_48597" style="mask-type:luminance" maskUnits="userSpaceOnUse" x="0" y="0" width="576" height="512">
<path d="M576 0H0V512H576V0Z" fill="white"/>
</mask>
<g mask="url(#mask3_3932_48597)">
<mask id="mask4_3932_48597" style="mask-type:luminance" maskUnits="userSpaceOnUse" x="0" y="0" width="576" height="512">
<path d="M576 0H0V512H576V0Z" fill="white"/>
</mask>
<g mask="url(#mask4_3932_48597)">
<mask id="mask5_3932_48597" style="mask-type:luminance" maskUnits="userSpaceOnUse" x="0" y="0" width="576" height="512">
<path d="M576 0H0V512H576V0Z" fill="white"/>
</mask>
<g mask="url(#mask5_3932_48597)">
<mask id="mask6_3932_48597" style="mask-type:luminance" maskUnits="userSpaceOnUse" x="0" y="0" width="576" height="512">
<path d="M576 0H0V512H576V0Z" fill="white"/>
</mask>
<g mask="url(#mask6_3932_48597)">
<mask id="mask7_3932_48597" style="mask-type:luminance" maskUnits="userSpaceOnUse" x="0" y="0" width="576" height="512">
<path d="M576 0H0V512H576V0Z" fill="white"/>
</mask>
<g mask="url(#mask7_3932_48597)">
<mask id="mask8_3932_48597" style="mask-type:luminance" maskUnits="userSpaceOnUse" x="0" y="0" width="576" height="512">
<path d="M576 0H0V512H576V0Z" fill="white"/>
</mask>
<g mask="url(#mask8_3932_48597)">
<mask id="mask9_3932_48597" style="mask-type:luminance" maskUnits="userSpaceOnUse" x="0" y="0" width="576" height="512">
<path d="M576 0H0V512H576V0Z" fill="white"/>
</mask>
<g mask="url(#mask9_3932_48597)">
<mask id="mask10_3932_48597" style="mask-type:luminance" maskUnits="userSpaceOnUse" x="0" y="0" width="576" height="512">
<path d="M576 0H0V512H576V0Z" fill="white"/>
</mask>
<g mask="url(#mask10_3932_48597)">
<mask id="mask11_3932_48597" style="mask-type:luminance" maskUnits="userSpaceOnUse" x="0" y="0" width="576" height="512">
<path d="M576 0H0V512H576V0Z" fill="white"/>
</mask>
<g mask="url(#mask11_3932_48597)">
<mask id="mask12_3932_48597" style="mask-type:luminance" maskUnits="userSpaceOnUse" x="0" y="0" width="576" height="512">
<path d="M576 0H0V512H576V0Z" fill="white"/>
</mask>
<g mask="url(#mask12_3932_48597)">
<mask id="mask13_3932_48597" style="mask-type:luminance" maskUnits="userSpaceOnUse" x="0" y="0" width="576" height="512">
<path d="M576 0H0V512H576V0Z" fill="white"/>
</mask>
<g mask="url(#mask13_3932_48597)">
<path d="M152.8 37.2009C120.6 75.3009 96.7 119.801 82.9 167.701C82.9 167.901 82.8 168.001 82.8 168.201C43.5 184.401 16 223.001 16 268.001C16 327.601 64.4 376.001 124 376.001C183.6 376.001 232 327.601 232 268.001C232 214.501 193.1 170.101 142 161.501C157.7 119.701 182.4 81.9009 214.3 50.8009C216.1 49.2009 218.3 48.2009 220.6 47.7009C257.8 36.2009 297.3 34.4009 335.4 42.5009C454.7 67.6009 534 180.701 517.1 301.301C508.7 363.901 478.5 414.001 429.4 452.701C379.3 492.401 321.9 507.001 259.2 504.901L235.2 503.901C247.6 506.701 260.2 508.801 272.8 510.201C313.5 514.401 354.2 512.301 392.9 497.701C486.9 462.201 542.2 395.401 555.8 295.201C560.6 242.601 550 189.801 525 143.201C454.6 11.3009 290.8 -38.3991 159 32.0009C156.6 33.4009 154.5 35.1009 152.7 37.2009H152.8ZM309.4 433.901C307.3 445.401 305.2 455.801 294.8 465.201C348 464.201 418 436.001 456.6 368.101C496.3 298.201 494.2 228.201 450.3 160.301C413.8 105.001 360.5 77.9009 293.7 73.7009C295.2 76.0009 296.9 78.1009 298.9 80.0009L304.1 86.3009C329.2 117.601 341.7 154.201 346.9 193.801C349 209.501 345.9 224.101 333.3 235.601C329.1 238.701 328.1 241.901 329.1 246.001L336.4 263.701L365.7 318.001C370.9 329.501 369.9 337.801 359.4 346.201C356.2 348.701 352.7 350.801 349 352.501L330.2 360.901L333.3 374.501C336.4 380.801 334.3 387.001 330.2 392.201C327.7 394.601 326.4 398.101 327.1 401.601C329.2 413.101 325 421.401 314.6 426.701C312.5 427.701 310.4 431.901 309.4 434.001V433.901ZM175.8 430.801C192.5 442.301 210.3 451.701 229 456.901C253 462.101 270.8 450.601 273.9 426.601C274.9 418.201 279.1 412.001 286.4 408.901C293.7 404.701 294.8 401.601 288.5 395.301L279.1 386.901L292.7 382.701C299 380.601 300 377.501 297.9 371.201C296.5 368.201 295.5 365.001 294.8 361.801C291.7 347.201 292.7 346.101 306.3 343.001C314.7 339.901 322 336.701 328.2 330.501C331.3 328.401 331.3 326.301 329.2 322.101L312.5 291.801C311.5 289.901 310.4 288.001 309.4 286.101C303 274.401 296.4 262.501 293.7 249.001C291.6 239.601 292.7 231.301 302.1 225.001C307.3 220.801 310.5 215.601 310.5 208.301C310.1 198.201 309 188.001 307.4 178.001C301.1 140.401 284.4 109.101 256.2 83.0009C251 78.8009 246.8 76.7009 239.5 78.8009L203.9 91.5009C205.9 92.7009 207.9 93.9009 209.9 95.1009C216.2 98.8009 222.1 102.401 226.9 107.201C257.2 133.301 268.7 168.801 272.8 207.401C273.8 215.801 272.8 224.101 265.5 229.301C257.1 234.501 255.1 241.801 258.2 250.201C263.1 263.401 268.6 276.201 274.9 288.801L291.6 318.001C285.3 326.401 278 329.501 269.7 332.601C257.2 335.701 255.1 339.901 259.3 353.501C259.9 355.001 260.7 356.301 261.4 357.701C263.5 362.901 262.4 366.101 257.2 368.101L244.7 371.201L249.9 375.401L254.1 379.601C258.3 384.801 258.3 388.001 252 390.001C244.7 394.201 240.5 399.401 240.5 407.701C240.5 420.201 233.2 427.501 221.7 431.701C217.9 432.701 214.1 433.201 210.2 432.701L175.7 430.601L175.8 430.801Z" fill="black"/>
</g>
</g>
</g>
</g>
</g>
</g>
</g>
</g>
</g>
</g>
</g>
</g>
</g>
</g>
</g>
<defs>
<clipPath id="clip0_3932_48597">
<rect width="576" height="512" fill="white"/>
</clipPath>
</defs>
</svg>
