<svg width="576" height="512" viewBox="0 0 576 512" fill="none" xmlns="http://www.w3.org/2000/svg">
<path d="M96 32C43 32 0 75 0 128V192C0 227.3 28.7 256 64 256H512C547.3 256 576 227.3 576 192V128C576 75 533 32 480 32H96ZM224 96C250.5 96 272 117.5 272 144V200C272 213.3 261.3 224 248 224H200C186.7 224 176 213.3 176 200V144C176 117.5 197.5 96 224 96ZM304 144C304 117.5 325.5 96 352 96C378.5 96 400 117.5 400 144V200C400 213.3 389.3 224 376 224H328C314.7 224 304 213.3 304 200V144ZM96 128C122.5 128 144 149.5 144 176V200C144 213.3 133.3 224 120 224H72C58.7 224 48 213.3 48 200V176C48 149.5 69.5 128 96 128ZM432 176C432 149.5 453.5 128 480 128C506.5 128 528 149.5 528 176V200C528 213.3 517.3 224 504 224H456C442.7 224 432 213.3 432 200V176ZM96 480H480C533 480 576 437 576 384V352C576 316.7 547.3 288 512 288H64C28.7 288 0 316.7 0 352V384C0 437 43 480 96 480ZM96 416C69.5 416 48 394.5 48 368V344C48 330.7 58.7 320 72 320H120C133.3 320 144 330.7 144 344V368C144 394.5 122.5 416 96 416ZM176 368V344C176 330.7 186.7 320 200 320H248C261.3 320 272 330.7 272 344V368C272 394.5 250.5 416 224 416C197.5 416 176 394.5 176 368ZM352 416C325.5 416 304 394.5 304 368V344C304 330.7 314.7 320 328 320H376C389.3 320 400 330.7 400 344V368C400 394.5 378.5 416 352 416ZM432 368V344C432 330.7 442.7 320 456 320H504C517.3 320 528 330.7 528 344V368C528 394.5 506.5 416 480 416C453.5 416 432 394.5 432 368Z" fill="black"/>
</svg>
