<svg width="576" height="512" viewBox="0 0 576 512" fill="none" xmlns="http://www.w3.org/2000/svg">
<path d="M0 128C0 75 43 32 96 32H480C533 32 576 75 576 128V384C576 437 533 480 480 480H96C43 480 0 437 0 384V128ZM176 176V232C176 245.3 186.7 256 200 256H248C261.3 256 272 245.3 272 232V176C272 149.5 250.5 128 224 128C197.5 128 176 149.5 176 176ZM352 128C325.5 128 304 149.5 304 176V232C304 245.3 314.7 256 328 256H376C389.3 256 400 245.3 400 232V176C400 149.5 378.5 128 352 128ZM48 208V232C48 245.3 58.7 256 72 256H120C133.3 256 144 245.3 144 232V208C144 181.5 122.5 160 96 160C69.5 160 48 181.5 48 208ZM96 384C122.5 384 144 362.5 144 336V312C144 298.7 133.3 288 120 288H72C58.7 288 48 298.7 48 312V336C48 362.5 69.5 384 96 384ZM176 336C176 362.5 197.5 384 224 384C250.5 384 272 362.5 272 336V312C272 298.7 261.3 288 248 288H200C186.7 288 176 298.7 176 312V336ZM352 384C378.5 384 400 362.5 400 336V312C400 298.7 389.3 288 376 288H328C314.7 288 304 298.7 304 312V336C304 362.5 325.5 384 352 384ZM432 208V232C432 245.3 442.7 256 456 256H504C517.3 256 528 245.3 528 232V208C528 181.5 506.5 160 480 160C453.5 160 432 181.5 432 208ZM480 384C506.5 384 528 362.5 528 336V312C528 298.7 517.3 288 504 288H456C442.7 288 432 298.7 432 312V336C432 362.5 453.5 384 480 384Z" fill="black"/>
</svg>
