<svg width="576" height="512" viewBox="0 0 576 512" fill="none" xmlns="http://www.w3.org/2000/svg">
<path d="M128 112C128 85.5 149.5 64 176 64C202.5 64 224 85.5 224 112V276.5C224 293.8 231.1 308.4 239.3 319C249.8 332.6 256 349.5 256 368C256 412.2 220.2 448 176 448C131.8 448 96 412.2 96 368C96 349.5 102.2 332.6 112.7 319.1C120.9 308.5 128 293.9 128 276.6V112ZM176 0C114.1 0 64 50.1 64 112V276.4C64 276.5 63.9 276.7 63.8 277C63.6 277.6 63 278.6 62.1 279.8C43.2 304.2 32 334.8 32 368C32 447.5 96.5 512 176 512C255.5 512 320 447.5 320 368C320 334.8 308.8 304.2 289.9 279.9C289 278.7 288.4 277.7 288.2 277.1C288.1 276.8 288 276.6 288 276.5V112C288 50.1 237.9 0 176 0ZM176 416C202.5 416 224 394.5 224 368C224 347.1 210.6 329.3 192 322.7V272C192 263.2 184.8 256 176 256C167.2 256 160 263.2 160 272V322.7C141.4 329.3 128 347.1 128 368C128 394.5 149.5 416 176 416ZM512 352H480V64C480 46.3 465.7 32 448 32C430.3 32 416 46.3 416 64V352H384C371.1 352 359.4 359.8 354.4 371.8C349.4 383.8 352.2 397.5 361.3 406.7L425.3 470.7C431.3 476.7 439.4 480.1 447.9 480.1C456.4 480.1 464.5 476.7 470.5 470.7L534.5 406.7C543.7 397.5 546.4 383.8 541.4 371.8C536.4 359.8 524.8 352 511.8 352H512Z" fill="black"/>
</svg>
