<svg width="576" height="512" viewBox="0 0 576 512" fill="none" xmlns="http://www.w3.org/2000/svg">
<path d="M9.39844 86.5984C-3.10156 74.0984 -3.10156 53.8984 9.39844 41.3984C21.8984 28.8984 42.1984 28.8984 54.6984 41.3984L246.698 233.398C259.198 245.898 259.198 266.198 246.698 278.698L54.6984 470.698C42.1984 483.198 21.8984 483.198 9.39844 470.698C-3.10156 458.198 -3.10156 437.898 9.39844 425.398L178.698 255.998L9.39844 86.5984ZM255.998 415.998H543.998C561.698 415.998 575.998 430.298 575.998 447.998C575.998 465.698 561.698 479.998 543.998 479.998H255.998C238.298 479.998 223.998 465.698 223.998 447.998C223.998 430.298 238.298 415.998 255.998 415.998Z" fill="black"/>
</svg>
