<svg width="576" height="512" viewBox="0 0 576 512" fill="none" xmlns="http://www.w3.org/2000/svg">
<g clip-path="url(#clip0_3932_49147)">
<mask id="mask0_3932_49147" style="mask-type:luminance" maskUnits="userSpaceOnUse" x="0" y="0" width="576" height="512">
<path d="M576 0H0V512H576V0Z" fill="white"/>
</mask>
<g mask="url(#mask0_3932_49147)">
<mask id="mask1_3932_49147" style="mask-type:luminance" maskUnits="userSpaceOnUse" x="0" y="0" width="576" height="512">
<path d="M576 0H0V512H576V0Z" fill="white"/>
</mask>
<g mask="url(#mask1_3932_49147)">
<mask id="mask2_3932_49147" style="mask-type:luminance" maskUnits="userSpaceOnUse" x="0" y="0" width="576" height="512">
<path d="M576 0H0V512H576V0Z" fill="white"/>
</mask>
<g mask="url(#mask2_3932_49147)">
<mask id="mask3_3932_49147" style="mask-type:luminance" maskUnits="userSpaceOnUse" x="0" y="0" width="576" height="512">
<path d="M576 0H0V512H576V0Z" fill="white"/>
</mask>
<g mask="url(#mask3_3932_49147)">
<mask id="mask4_3932_49147" style="mask-type:luminance" maskUnits="userSpaceOnUse" x="0" y="0" width="576" height="512">
<path d="M576 0H0V512H576V0Z" fill="white"/>
</mask>
<g mask="url(#mask4_3932_49147)">
<mask id="mask5_3932_49147" style="mask-type:luminance" maskUnits="userSpaceOnUse" x="0" y="0" width="576" height="512">
<path d="M576 0H0V512H576V0Z" fill="white"/>
</mask>
<g mask="url(#mask5_3932_49147)">
<mask id="mask6_3932_49147" style="mask-type:luminance" maskUnits="userSpaceOnUse" x="0" y="0" width="576" height="512">
<path d="M576 0H0V512H576V0Z" fill="white"/>
</mask>
<g mask="url(#mask6_3932_49147)">
<mask id="mask7_3932_49147" style="mask-type:luminance" maskUnits="userSpaceOnUse" x="0" y="0" width="576" height="512">
<path d="M576 0H0V512H576V0Z" fill="white"/>
</mask>
<g mask="url(#mask7_3932_49147)">
<mask id="mask8_3932_49147" style="mask-type:luminance" maskUnits="userSpaceOnUse" x="0" y="0" width="576" height="512">
<path d="M576 0H0V512H576V0Z" fill="white"/>
</mask>
<g mask="url(#mask8_3932_49147)">
<mask id="mask9_3932_49147" style="mask-type:luminance" maskUnits="userSpaceOnUse" x="0" y="0" width="576" height="512">
<path d="M576 0H0V512H576V0Z" fill="white"/>
</mask>
<g mask="url(#mask9_3932_49147)">
<mask id="mask10_3932_49147" style="mask-type:luminance" maskUnits="userSpaceOnUse" x="0" y="0" width="576" height="512">
<path d="M576 0H0V512H576V0Z" fill="white"/>
</mask>
<g mask="url(#mask10_3932_49147)">
<mask id="mask11_3932_49147" style="mask-type:luminance" maskUnits="userSpaceOnUse" x="0" y="0" width="576" height="512">
<path d="M576 0H0V512H576V0Z" fill="white"/>
</mask>
<g mask="url(#mask11_3932_49147)">
<mask id="mask12_3932_49147" style="mask-type:luminance" maskUnits="userSpaceOnUse" x="0" y="0" width="576" height="512">
<path d="M576 0H0V512H576V0Z" fill="white"/>
</mask>
<g mask="url(#mask12_3932_49147)">
<mask id="mask13_3932_49147" style="mask-type:luminance" maskUnits="userSpaceOnUse" x="0" y="0" width="576" height="512">
<path d="M576 0H0V512H576V0Z" fill="white"/>
</mask>
<g mask="url(#mask13_3932_49147)">
<path d="M64 128V96H128V416H96C78.3 416 64 430.3 64 448C64 465.7 78.3 480 96 480H224C241.7 480 256 465.7 256 448C256 430.3 241.7 416 224 416H192V96H256V128C256 145.7 270.3 160 288 160C305.7 160 320 145.7 320 128V80C320 53.5 298.5 32 272 32H160H48C21.5 32 0 53.5 0 80V128C0 145.7 14.3 160 32 160C49.7 160 64 145.7 64 128ZM502.6 41.4C490.1 28.9 469.8 28.9 457.3 41.4L393.3 105.4C384.1 114.6 381.4 128.3 386.4 140.3C391.4 152.3 403 160.1 416 160.1H448V352H416C403.1 352 391.4 359.8 386.4 371.8C381.4 383.8 384.2 397.5 393.3 406.7L457.3 470.7C469.8 483.2 490.1 483.2 502.6 470.7L566.6 406.7C575.8 397.5 578.5 383.8 573.5 371.8C568.5 359.8 556.9 352 543.9 352H512V160H544C556.9 160 568.6 152.2 573.6 140.2C578.6 128.2 575.8 114.5 566.7 105.3L502.7 41.3L502.6 41.4Z" fill="black"/>
</g>
</g>
</g>
</g>
</g>
</g>
</g>
</g>
</g>
</g>
</g>
</g>
</g>
</g>
</g>
<defs>
<clipPath id="clip0_3932_49147">
<rect width="576" height="512" fill="white"/>
</clipPath>
</defs>
</svg>
