<svg width="512" height="512" viewBox="0 0 512 512" fill="none" xmlns="http://www.w3.org/2000/svg">
<path d="M488.228 241.7L508.928 248.8C499.328 224.9 485.028 211.8 477.228 204L484.328 185.8C484.528 185.8 496.628 158 481.828 155.1C481.228 143.8 475.228 128.1 463.428 128.1C455.828 117.5 445.728 115.8 432.728 122.2C423.645 126.633 415.147 132.175 407.428 138.7C402.128 132.3 404.428 139.1 404.428 108.9C367.328 84.6 359.028 97.2 329.628 111.9L330.128 112.4C308.099 104.654 285.055 100.173 261.728 99.1C256.228 90.4 243.128 80 236.628 74L261.428 81.1C255.928 75.6 234.628 68.2 227.228 65.9C245.428 61.8 257.028 45.1 269.728 32.9C234.828 22.8 201.828 27 171.828 44.7L183.828 0.5L181.998 0C150.398 24.2 148.998 41.9 148.298 45.5C147.398 43.1 141.998 25.9 133.098 18.5C129.794 26.5782 129.615 35.5975 132.598 43.8C135.598 52.2 138.498 58.6 140.998 62.7C124.998 59.4 112.698 57.8 91.7982 62.7H88.0982L121.098 77C100.913 95.888 84.9919 118.866 74.3982 144.4L72.6982 152.8L74.3982 154.5L81.9982 149.8C78.6982 161.4 76.6982 169.2 75.3982 175.6C64.5175 187.845 55.181 201.38 47.5982 215.9C32.5982 216.9 15.7982 226.7 7.29817 230.2L10.2982 233.6L39.0982 234.6C38.5982 235.6 38.3982 236.8 37.8982 237.8C30.5982 244.2 -1.90183 275.5 4.89817 318.5L25.0982 296.1C25.5982 297.8 25.7982 299.5 26.2982 301.3C26.2982 326.8 26.6982 390.9 91.1982 451.8C134.798 491.8 187.198 512 248.698 512C370.398 512 471.698 424.7 471.698 300.5C478.498 290.8 470.498 303.5 488.398 275.4L501.398 289.7L503.898 289.2C502.049 277.538 499.068 266.084 494.998 255C493.493 250.217 491.194 245.721 488.198 241.7H488.228ZM397.998 111.2L397.498 133.1C402.998 151.2 414.398 150.3 419.898 150.3L416.498 145.6L438.898 140.2C429.905 140.702 420.891 140.702 411.898 140.2C424.698 138.1 445.198 111.2 454.898 128.9C458.298 136.5 461.298 146.1 464.198 156.7L465.898 150.8C464.644 145.834 464.072 140.72 464.198 135.6C469.598 136.1 472.998 139 473.498 145.7C473.998 152.1 475.198 160.5 476.898 171L481.598 159.7C486.198 159.7 486.098 156.1 479.098 180.4C458.198 171.7 443.998 172 432.598 172L450.798 156C425.498 164.2 417.798 166.8 395.998 176.9C394.898 171.5 390.998 163.4 379.998 157C376.798 160.8 377.198 157.9 379.298 171.8H376.798C375.559 163.619 372.704 155.766 368.398 148.7L372.598 145.3C380.998 138.2 384.398 131 383.198 123.4C382.698 117 377.798 109.9 369.698 102.7C375.298 99.3 384.898 102.3 397.998 111.2ZM358.398 101.1C361.098 103 369.798 106.5 377.298 118.3C381.498 126.7 381.298 128.1 380.698 129.4C380.198 131.8 380.198 133.7 377.698 136.5C375.998 139 372.298 141.2 365.898 144.1C358.298 131.1 349.398 120.5 338.098 112.9L358.398 101.1ZM90.9982 143.1L92.1982 141.4C93.3982 138.5 96.3982 133.8 101.498 126.2L103.998 122.8L90.9982 135.1L96.3982 130.4L86.2982 139.7L82.0982 140.9C94.3982 116.8 105.198 99.6 114.598 90.7C123.898 81.4 130.598 74.7 134.798 71.3L128.398 72.5C117.098 68.3 108.998 65.4 103.598 64.1C106.098 63.6 107.298 63.6 106.798 63.6C117.098 63.6 124.298 64.1 127.698 64.8C132.87 66.4582 138.267 67.3016 143.698 67.3L144.198 65.6L135.798 29.8L149.298 58.8C152.115 54.4303 154.114 49.5849 155.198 44.5C156.898 38.1 160.598 31.5 165.298 25.1C169.998 18.7 172.898 14.5 174.598 13.8C171.997 22.1081 169.861 30.5545 168.198 39.1L166.498 46.2L165.998 50.9L168.498 53.4C190.398 39.9 213.998 34 239.798 34.5L260.898 35C249.098 48.5 233.098 56.9 212.398 59.8C204.662 61.2231 196.848 62.1915 188.998 62.7L188.798 62.2L186.298 61C181.541 60.0068 176.587 60.7146 172.298 63C169.798 62.8 167.398 62.5 165.198 62.3L162.698 64L163.198 65.2C165.198 65.4 167.098 65.7 169.398 65.9L167.398 69.3L170.798 68.8L160.198 80.1C155.998 83.1 154.798 86.5 155.998 89.4L161.398 86H162.598C168.744 77.8467 177.814 72.3972 187.898 70.8V67.8C194.298 68.3 200.898 68.8 207.298 69C213.698 69 215.698 69.5 212.698 70.2C219.884 74.245 226.799 78.7546 233.398 83.7C246.898 93.8 256.998 105.6 263.398 119.1C272.198 137.3 276.898 156.2 276.898 175.7C276.854 185.21 275.849 194.692 273.898 204C270.368 219.902 264.998 235.339 257.898 250L260.398 250.5C278.598 230.8 302.298 234.5 309.598 234.5L303.198 240.4L325.598 258.1L323.898 288.8C318.498 276.5 307.398 267.7 290.898 261C307.398 275.8 314.498 282.1 312.798 281.2C307.998 278.4 309.298 279.3 301.998 277.5C306.098 281.6 319.498 296.3 320.198 298.2L320.398 298.4L320.198 298.6C320.198 300.4 321.798 297.4 306.198 321.5C230.998 306.2 199.928 278.8 164.998 258.3L176.798 259.5C164.998 241 161.198 241.8 138.398 233.4L148.998 225C140.198 222 130.798 222 120.698 225.5L128.298 214.9L127.098 213.2C112.198 217.5 107.298 222.4 104.498 224.5C103.398 219 101.698 212.1 92.1982 195.7L90.9982 222.7L77.7982 217.7C79.2982 192.5 83.1982 167.2 90.9982 143.1ZM367.498 473.1C317.598 498.1 311.398 495.5 308.498 497C278.698 485.2 257.598 465.3 244.998 438.2L274.998 454.7C265.198 445.4 256.698 438.2 236.598 410.4L248.398 433.5L230.698 425.9C244.898 447 254.198 477.6 297.298 499.4C176.498 523.6 98.2982 427.3 96.3982 425.1C107.497 434.326 119.337 442.62 131.798 449.9C135.198 451.6 138.898 452.4 141.898 451.1L125.898 430.4C135.098 434.6 135.398 434.9 194.998 459.4C152.498 438.7 121.198 418.6 101.798 399.2C101.298 405.6 100.598 409.3 100.598 409.3C109.303 416.601 116.359 425.668 121.298 435.9C82.2982 417 63.6982 388.3 49.9982 353.3C99.8982 408.4 168.898 390.8 170.498 390.4C205.298 406.8 240.398 414 284.398 401C287.698 401 304.698 418 309.698 440.1L313.898 437.1L311.398 413.5C320.398 422.5 336.298 436.1 345.798 426.5C330.198 421.2 322.298 417 316.298 394.8C320.898 399 323.898 403.8 344.098 409.8L345.298 408.6L334.798 394.4C346.498 389.6 331.298 395.4 366.798 383.6C371.098 417.9 375.798 432.8 367.498 473.1ZM482.798 258.7L480.298 259.2L483.298 268.5C479.798 274.4 459.598 312.8 411.698 348.2C372.198 378 335.098 387.3 330.798 388.5L323.198 381.4L321.998 384.4L336.298 400.4L329.198 395.7L332.598 399.9H331.398L309.498 386.4L318.798 413L299.798 385.1L298.598 387.6L306.198 416.6C300.098 408.4 285.198 384 249.398 377L281.898 398.2C250.738 402.929 218.919 400.744 188.698 391.8C184.498 390.6 179.798 389.3 175.198 387.6L176.398 384.6L131.598 362.2L157.698 384.6C99.9982 393.7 44.6982 359.2 31.2982 301.2L28.7982 284.8L6.52817 307.1C26.0282 249.6 32.1282 249.2 57.9282 237C48.8282 231.7 56.3282 233.7 19.5282 227.7C35.3282 221.9 52.5282 212.3 92.5282 232.9C93.6952 232.199 94.936 231.629 96.2282 231.2C96.8282 228 96.6282 230.4 97.2282 219.4C101.128 229.4 100.828 228.1 100.228 228.7L101.928 229.2C114.628 222.7 110.828 224.7 118.928 220.3L113.528 233.8L135.828 228L127.428 236.4L129.928 238.9C134.428 237.1 160.228 242.3 170.728 254.9L147.128 252.4C186.528 275.4 198.628 306.4 202.928 322L204.628 320.8C201.828 298.5 192.228 286.9 188.628 280.7C192.828 285.7 227.828 315.3 299.028 326.7C287.728 326.2 275.928 332.1 264.128 345.6L310.828 325.4L301.528 347.3C309.128 337.2 316.328 323.7 322.728 307.7V307.2L323.928 304.2L322.728 320.2C336.228 278.4 348.028 241.7 358.128 210.5L371.628 182.7V180.7L366.228 176.5H376.328L382.228 180.7L384.728 179.5L381.328 163.5L393.628 182.4L435.428 162.2L420.628 175.2L421.128 178.1L438.828 177.6C449.932 178.001 460.978 179.406 471.828 181.8L448.228 184.3L447.028 187.3L473.628 210.4C483.493 220.306 492.523 231.009 500.628 242.4C489.428 239.1 490.328 239 479.428 239L491.728 271.5L482.798 258.7ZM476.698 187.4L472.798 200.4L458.498 188.6L476.698 187.4ZM221.898 194.5C223.598 205.1 226.598 212.2 230.698 216.4C221.398 223 203.198 230.3 184.198 232.4L184.698 233.6C193.044 234.864 201.573 234.004 209.498 231.1L202.398 244.1C206.598 242.4 212.498 237 220.098 229.3C231.998 223.8 232.798 224.2 240.298 213.3C227.598 206.9 224.598 199.6 221.898 194.5ZM225.598 92.2C219.198 88.8 214.998 95.2 213.298 111.1C211.598 127 215.798 140.6 225.098 150.7C234.398 160.8 243.298 161.3 251.198 153.7C259.098 146.1 254.598 130.1 239.898 106C236.391 100.262 231.48 95.5127 225.628 92.2H225.598ZM220.898 138.5C226.298 140.7 231.398 140.4 233.198 127.9V123.2L231.998 123.7C227.698 120.6 229.498 119.2 230.298 117.5L230.798 117C229.898 115.8 225.798 108.9 218.298 121.7C217.798 108.2 218.798 99.8 221.298 96.9C222.498 94.4 225.998 95.7 232.598 101.1C238.998 106.5 243.898 117.1 247.798 133.6C254.298 161.6 227.998 159.8 220.898 138.5ZM175.898 133C177.498 133.3 185.198 131.9 185.198 118.2H184.698C179.298 117.1 182.498 112.7 183.998 112.3C182.298 109.3 180.598 108.1 178.598 107.6C170.498 107.6 166.998 120.3 170.498 128.8C171.004 129.881 171.761 130.826 172.705 131.557C173.65 132.287 174.754 132.782 175.928 133H175.898ZM215.998 82.9L213.498 83.4L213.998 86.4C223.077 85.9039 232.115 87.9469 240.098 92.3C237.598 86.8 230.098 78 211.798 78L212.298 80.5L215.998 82.9ZM144.198 132.3C165.898 149.1 160.698 153.7 190.698 155.9L187.798 151.2C196.209 144.038 201.514 133.893 202.598 122.9C204.298 106.9 201.398 93.4 193.798 81.6L206.798 74C206.834 73.6976 206.808 73.3911 206.722 73.099C206.636 72.8068 206.492 72.5351 206.298 72.3C204.085 71.4316 201.69 71.1321 199.331 71.4291C196.973 71.7261 194.727 72.6101 192.798 74C180.098 80.7 164.798 94.9 163.798 96.4C162.098 98.1 160.398 102.3 158.398 109.9C156.493 117.623 155.519 125.546 155.498 133.5C150.798 125.5 144.998 127.1 135.598 127.6L142.698 135.2C126.198 135.2 119.398 150.6 119.098 151.2C125.898 151.2 123.698 143.6 149.098 138.9C144.798 132.6 145.798 133.9 144.198 132.3ZM162.898 113.6C164.098 106 166.298 100.6 169.298 96.4C174.698 90 179.898 86.3 185.298 84.6C189.498 82.9 192.398 85.8 195.398 93.9C197.891 102.089 198.907 110.655 198.398 119.2C197.898 128.5 194.998 136.4 189.998 142.3C187.098 145.7 184.598 148.2 183.598 149.9C179.827 150.28 176.021 150.112 172.298 149.4L165.198 146L159.798 139.6C160.598 129.6 161.098 120.8 162.898 113.6ZM204.898 169.7C170.098 184.1 170.198 183.7 168.798 184C147.998 188.7 149.798 159.6 149.898 159.2L155.798 158L155.298 155.5C135.098 152.9 124.298 159.7 122.798 160.4C123.298 160.9 125.798 163.8 128.698 169.7C132.898 163.3 137.498 159.6 143.898 159.1C142.165 170.332 142.743 181.8 145.598 192.8C145.698 193.3 148.198 210.2 173.098 216.9C184.398 219.9 200.098 218.1 221.998 211.5L212.798 212C208.598 197.2 206.398 187.2 206.898 182.5C218.198 173.7 228.798 171.2 237.598 174.9H240.098L228.298 167.3L221.198 167.8C215.298 169 208.898 172 201.798 176.2L204.898 169.7Z" fill="black"/>
</svg>
