<svg width="512" height="512" viewBox="0 0 512 512" fill="none" xmlns="http://www.w3.org/2000/svg">
<g clip-path="url(#clip0_3932_49323)">
<mask id="mask0_3932_49323" style="mask-type:luminance" maskUnits="userSpaceOnUse" x="0" y="0" width="512" height="512">
<path d="M512 0H0V512H512V0Z" fill="white"/>
</mask>
<g mask="url(#mask0_3932_49323)">
<mask id="mask1_3932_49323" style="mask-type:luminance" maskUnits="userSpaceOnUse" x="0" y="0" width="512" height="512">
<path d="M512 0H0V512H512V0Z" fill="white"/>
</mask>
<g mask="url(#mask1_3932_49323)">
<mask id="mask2_3932_49323" style="mask-type:luminance" maskUnits="userSpaceOnUse" x="0" y="0" width="512" height="512">
<path d="M512 0H0V512H512V0Z" fill="white"/>
</mask>
<g mask="url(#mask2_3932_49323)">
<mask id="mask3_3932_49323" style="mask-type:luminance" maskUnits="userSpaceOnUse" x="0" y="0" width="512" height="512">
<path d="M512 0H0V512H512V0Z" fill="white"/>
</mask>
<g mask="url(#mask3_3932_49323)">
<mask id="mask4_3932_49323" style="mask-type:luminance" maskUnits="userSpaceOnUse" x="0" y="0" width="512" height="512">
<path d="M512 0H0V512H512V0Z" fill="white"/>
</mask>
<g mask="url(#mask4_3932_49323)">
<mask id="mask5_3932_49323" style="mask-type:luminance" maskUnits="userSpaceOnUse" x="0" y="0" width="512" height="512">
<path d="M512 0H0V512H512V0Z" fill="white"/>
</mask>
<g mask="url(#mask5_3932_49323)">
<mask id="mask6_3932_49323" style="mask-type:luminance" maskUnits="userSpaceOnUse" x="0" y="0" width="512" height="512">
<path d="M512 0H0V512H512V0Z" fill="white"/>
</mask>
<g mask="url(#mask6_3932_49323)">
<mask id="mask7_3932_49323" style="mask-type:luminance" maskUnits="userSpaceOnUse" x="0" y="0" width="512" height="512">
<path d="M512 0H0V512H512V0Z" fill="white"/>
</mask>
<g mask="url(#mask7_3932_49323)">
<mask id="mask8_3932_49323" style="mask-type:luminance" maskUnits="userSpaceOnUse" x="0" y="0" width="512" height="512">
<path d="M512 0H0V512H512V0Z" fill="white"/>
</mask>
<g mask="url(#mask8_3932_49323)">
<mask id="mask9_3932_49323" style="mask-type:luminance" maskUnits="userSpaceOnUse" x="0" y="0" width="512" height="512">
<path d="M512 0H0V512H512V0Z" fill="white"/>
</mask>
<g mask="url(#mask9_3932_49323)">
<mask id="mask10_3932_49323" style="mask-type:luminance" maskUnits="userSpaceOnUse" x="0" y="0" width="512" height="512">
<path d="M512 0H0V512H512V0Z" fill="white"/>
</mask>
<g mask="url(#mask10_3932_49323)">
<mask id="mask11_3932_49323" style="mask-type:luminance" maskUnits="userSpaceOnUse" x="0" y="0" width="512" height="512">
<path d="M512 0H0V512H512V0Z" fill="white"/>
</mask>
<g mask="url(#mask11_3932_49323)">
<mask id="mask12_3932_49323" style="mask-type:luminance" maskUnits="userSpaceOnUse" x="0" y="0" width="512" height="512">
<path d="M512 0H0V512H512V0Z" fill="white"/>
</mask>
<g mask="url(#mask12_3932_49323)">
<mask id="mask13_3932_49323" style="mask-type:luminance" maskUnits="userSpaceOnUse" x="0" y="0" width="512" height="512">
<path d="M512 0H0V512H512V0Z" fill="white"/>
</mask>
<g mask="url(#mask13_3932_49323)">
<path d="M208 88.286C208 78.286 214.286 66.572 225.715 66.572C236.857 66.572 243.429 78.286 243.429 88.286C243.429 98.571 236.857 110 225.715 110C214.286 110 208 98.571 208 88.286ZM512 248.286C512 284.287 500.571 350.572 475.714 378C452.856 402.858 388.286 439.143 354.857 448.572L353.714 448.858V481.429C353.714 497.715 341.142 512 324.571 512C314.571 512 305.142 506.286 299.999 497.714C294.572 506.286 285.143 512 275.143 512C265.143 512 255.714 506.286 250.285 497.714C245.143 506.286 235.714 512 225.715 512C215.429 512 206.286 506.286 200.857 497.714C195.714 506.286 186.286 512 176.286 512C157.429 512 146.857 496.286 146.857 479.143C130.571 491.428 111.142 498.571 90.286 498.571C68.286 498.571 46.857 490.286 30 475.714C40.285 475.428 50.571 473.428 60.285 470C39.428 464.286 20.857 451.143 8.285 433.714C29.655 438.359 54.494 435.387 75.428 422.571C53.428 400.571 18.857 363.714 6.856 335.143C1.143 321.714 0 303.714 0 289.429C0 239.715 20.286 129.429 86.286 129.429C96.857 129.429 105.143 134.287 109.429 144.286C113.108 138.902 117.116 133.749 121.429 128.858C123.429 126.286 127.143 123.429 128.572 120.572C136.571 108.001 140.286 99.43 150.286 86.572C182.571 45.428 232 17.143 285.143 17.143C291.143 17.143 297.143 17.428 302.857 18.286C313.714 6.571 328.857 0 344.572 0C359.143 0 374.286 6 384.572 16.286C385.429 17.144 386 18.572 386 19.714C386 23.428 375.715 33.143 373.143 36C377.429 37.429 388.857 42.858 388.857 48C388.857 50.857 386 53.143 384.286 55.143C415.715 82.857 433.715 122.286 440.572 163.143C444.858 158 450.857 154.571 457.715 154.571C468.286 154.571 478.572 161.715 486.286 168.572C507.143 187.143 512 221.714 512 248.286ZM188 89.428C188 107.714 200.571 126.571 220.286 126.571C240 126.571 252.571 107.714 252.571 89.428C252.571 71.428 240 52.571 220.286 52.571C200.571 52.571 188 71.429 188 89.428ZM237.714 194C237.714 174.286 241.428 154.857 246.285 135.714C194.246 215.248 232.754 320.285 315.143 320.285C336.571 320.285 357.714 312.571 375.143 300.285C377.143 292.856 378.857 285.428 378.857 277.713C378.857 263.427 372.571 256.285 358.285 256.285C353.714 256.285 349.142 257.142 344.856 257.999C281.513 270.667 237.714 261.668 237.714 194ZM196.572 448.858C196.572 437.715 187.714 428.001 176.286 428.001C164.857 428.001 156.286 437.716 156.286 448.858V481.429C156.286 492.572 164.857 502.571 176.286 502.571C187.714 502.571 196.572 492.856 196.572 481.429V448.858ZM245.715 448.858C245.715 437.715 237.143 428.001 225.715 428.001C214.286 428.001 205.429 437.716 205.429 448.858V481.429C205.429 492.572 214.286 502.571 225.715 502.571C237.143 502.571 245.715 492.571 245.715 481.429V448.858ZM295.428 448.858C295.428 437.715 286.571 428.001 275.143 428.001C263.714 428.001 254.857 437.716 254.857 448.858V481.429C254.857 492.572 263.714 502.571 275.143 502.571C286.571 502.571 295.428 492.856 295.428 481.429V448.858ZM345.143 448.858C345.143 437.715 336.286 428.001 324.857 428.001C313.429 428.001 304.571 437.716 304.571 448.858V481.429C304.571 492.572 313.429 502.571 324.857 502.571C336.286 502.571 345.143 492.571 345.143 481.429V448.858ZM421.714 286C390.857 345.142 331.429 388.572 263.143 388.572C166.572 388.572 102.572 304 102.572 212C102.572 195.143 104.572 178.571 108.572 162.286C88.572 196.001 78.858 234.858 78.858 273.715C78.858 334.001 103.715 395.43 150.287 434.572C155.43 424.858 165.144 418.286 176.287 418.286C186.287 418.286 195.715 424 200.858 432.572C206.287 424.001 215.429 418.286 225.716 418.286C235.716 418.286 245.144 424 250.287 432.572C255.716 424.001 265.144 418.286 275.145 418.286C285.145 418.286 294.573 424 300.002 432.572C305.145 424.001 314.573 418.286 324.574 418.286C335.431 418.286 345.431 424.858 350.288 434.286C393.715 398 418.857 342.286 421.714 286ZM432.286 186.286C432.286 132.572 397.715 80.572 339.714 80.572C309.429 80.572 281.143 95.715 260.857 117.429C240.862 183.812 233.41 254 302.286 254C331.091 254 399.643 225.462 386.572 290.857C415.429 264.857 432.286 225.143 432.286 186.286Z" fill="black"/>
</g>
</g>
</g>
</g>
</g>
</g>
</g>
</g>
</g>
</g>
</g>
</g>
</g>
</g>
</g>
<defs>
<clipPath id="clip0_3932_49323">
<rect width="512" height="512" fill="white"/>
</clipPath>
</defs>
</svg>
