<svg width="448" height="512" viewBox="0 0 448 512" fill="none" xmlns="http://www.w3.org/2000/svg">
<path d="M202.9 8.42856C212.8 2.69856 228.9 2.60856 238.85 8.21856L430 115.848C440 121.448 448 135.288 448 146.708V363.998C448 375.438 439.94 389.288 430 394.998L238.81 503.738C228.88 509.398 212.81 509.308 202.96 503.528L17.86 395.118C8 389.338 0 375.378 0 363.998V146.708C0 135.268 8 121.348 17.91 115.628L202.9 8.42856ZM125.5 208.258C109.56 208.258 93.61 208.398 77.67 208.398V309.848H96.8V279.998H125.5C175.21 279.998 175.06 208.258 125.5 208.258ZM265.64 308.548L234.91 273.908C271.91 266.398 269.71 208.678 224.04 208.398C207.95 208.398 191.87 208.258 175.78 208.258V309.848H194.91V275.938H213.32L242.88 309.848H265.64V308.548ZM224.05 226.228C247.39 226.228 247.31 258.688 224.05 258.688H194.92V226.228H224.05ZM128.49 224.628C149.67 224.628 149.6 263.478 128.49 263.478H96.18V224.638L128.49 224.628ZM321.14 206.378C252.68 206.378 250.14 312.178 321.14 312.178C390.62 312.168 390.55 206.378 321.14 206.378ZM321.14 223.768C365.26 223.768 365.94 294.628 321.14 294.628C276.34 294.628 276.71 223.768 321.14 223.768Z" fill="black"/>
</svg>
