<svg width="384" height="512" viewBox="0 0 384 512" fill="none" xmlns="http://www.w3.org/2000/svg">
<g clip-path="url(#clip0_3932_49447)">
<mask id="mask0_3932_49447" style="mask-type:luminance" maskUnits="userSpaceOnUse" x="0" y="0" width="384" height="512">
<path d="M384 0H0V512H384V0Z" fill="white"/>
</mask>
<g mask="url(#mask0_3932_49447)">
<mask id="mask1_3932_49447" style="mask-type:luminance" maskUnits="userSpaceOnUse" x="0" y="0" width="384" height="512">
<path d="M384 0H0V512H384V0Z" fill="white"/>
</mask>
<g mask="url(#mask1_3932_49447)">
<mask id="mask2_3932_49447" style="mask-type:luminance" maskUnits="userSpaceOnUse" x="0" y="0" width="384" height="512">
<path d="M384 0H0V512H384V0Z" fill="white"/>
</mask>
<g mask="url(#mask2_3932_49447)">
<mask id="mask3_3932_49447" style="mask-type:luminance" maskUnits="userSpaceOnUse" x="0" y="0" width="384" height="512">
<path d="M384 0H0V512H384V0Z" fill="white"/>
</mask>
<g mask="url(#mask3_3932_49447)">
<mask id="mask4_3932_49447" style="mask-type:luminance" maskUnits="userSpaceOnUse" x="0" y="0" width="384" height="512">
<path d="M384 0H0V512H384V0Z" fill="white"/>
</mask>
<g mask="url(#mask4_3932_49447)">
<mask id="mask5_3932_49447" style="mask-type:luminance" maskUnits="userSpaceOnUse" x="0" y="0" width="384" height="512">
<path d="M384 0H0V512H384V0Z" fill="white"/>
</mask>
<g mask="url(#mask5_3932_49447)">
<mask id="mask6_3932_49447" style="mask-type:luminance" maskUnits="userSpaceOnUse" x="0" y="0" width="384" height="512">
<path d="M384 0H0V512H384V0Z" fill="white"/>
</mask>
<g mask="url(#mask6_3932_49447)">
<mask id="mask7_3932_49447" style="mask-type:luminance" maskUnits="userSpaceOnUse" x="0" y="0" width="384" height="512">
<path d="M384 0H0V512H384V0Z" fill="white"/>
</mask>
<g mask="url(#mask7_3932_49447)">
<mask id="mask8_3932_49447" style="mask-type:luminance" maskUnits="userSpaceOnUse" x="0" y="0" width="384" height="512">
<path d="M384 0H0V512H384V0Z" fill="white"/>
</mask>
<g mask="url(#mask8_3932_49447)">
<mask id="mask9_3932_49447" style="mask-type:luminance" maskUnits="userSpaceOnUse" x="0" y="0" width="384" height="512">
<path d="M384 0H0V512H384V0Z" fill="white"/>
</mask>
<g mask="url(#mask9_3932_49447)">
<mask id="mask10_3932_49447" style="mask-type:luminance" maskUnits="userSpaceOnUse" x="0" y="0" width="384" height="512">
<path d="M384 0H0V512H384V0Z" fill="white"/>
</mask>
<g mask="url(#mask10_3932_49447)">
<mask id="mask11_3932_49447" style="mask-type:luminance" maskUnits="userSpaceOnUse" x="0" y="0" width="384" height="512">
<path d="M384 0H0V512H384V0Z" fill="white"/>
</mask>
<g mask="url(#mask11_3932_49447)">
<mask id="mask12_3932_49447" style="mask-type:luminance" maskUnits="userSpaceOnUse" x="0" y="0" width="384" height="512">
<path d="M384 0H0V512H384V0Z" fill="white"/>
</mask>
<g mask="url(#mask12_3932_49447)">
<mask id="mask13_3932_49447" style="mask-type:luminance" maskUnits="userSpaceOnUse" x="0" y="0" width="384" height="512">
<path d="M384 0H0V512H384V0Z" fill="white"/>
</mask>
<g mask="url(#mask13_3932_49447)">
<path d="M31.9965 32C31.9965 14.3 46.2965 0 63.9965 0H319.996C337.697 0 351.996 14.3 351.996 32C351.996 49.7 337.697 64 319.996 64H290.496L301.896 212.2C338.596 232.1 367.596 265.4 381.396 306.9L382.396 309.9C385.696 319.7 383.996 330.4 377.996 338.7C371.996 347 362.296 352 351.996 352H31.9965C21.6965 352 12.0965 347.1 5.9965 338.7C-0.103517 330.3 -1.7035 319.6 1.5965 309.9L2.5965 306.9C16.3965 265.4 45.3965 232.1 82.0965 212.2L93.4965 64H63.9965C46.2965 64 31.9965 49.7 31.9965 32ZM159.996 384H223.996V480C223.996 497.7 209.696 512 191.996 512C174.296 512 159.996 497.7 159.996 480V384Z" fill="black"/>
</g>
</g>
</g>
</g>
</g>
</g>
</g>
</g>
</g>
</g>
</g>
</g>
</g>
</g>
</g>
<defs>
<clipPath id="clip0_3932_49447">
<rect width="384" height="512" fill="white"/>
</clipPath>
</defs>
</svg>
