<svg width="512" height="512" viewBox="0 0 512 512" fill="none" xmlns="http://www.w3.org/2000/svg">
<path d="M323.8 477.205C285.6 488.105 245.7 466.005 234.8 427.805L229.1 407.805C225.4 394.805 218.7 382.805 209.6 372.805L158.3 316.405C149.4 306.605 150.1 291.405 159.9 282.505C169.7 273.605 184.9 274.305 193.8 284.105L245.1 340.505C259.2 356.005 269.5 374.505 275.2 394.605L280.9 414.605C284.5 427.305 297.8 434.705 310.6 431.105C323.4 427.505 330.7 414.205 327.1 401.405L321.4 381.405C315.7 361.505 306.7 342.705 294.8 325.905C289.6 318.605 289 309.005 293.1 301.005C297.2 293.005 305.4 288.005 314.4 288.005H448C456.8 288.005 464 280.805 464 272.005C464 265.205 459.7 259.305 453.6 257.005C446.2 254.205 440.6 248.005 438.7 240.305C436.8 232.605 438.8 224.505 444 218.605C446.5 215.805 448 212.105 448 208.005C448 200.205 442.4 193.705 435 192.305C426.8 190.705 419.9 185.005 417 177.105C414.1 169.205 415.4 160.405 420.6 153.805C422.7 151.105 424 147.705 424 143.905C424 137.205 419.8 131.305 413.8 129.005C402.3 124.505 396.1 112.105 399.4 100.205C399.8 98.9047 400 97.4047 400 95.9047C400 87.1047 392.8 79.9047 384 79.9047H286.5C273.9 79.9047 261.5 83.6047 251 90.6047L189.3 131.705C178.3 139.105 163.4 136.105 156 125.005C148.6 113.905 151.6 99.1047 162.7 91.7047L224.4 50.6047C242.8 38.3047 264.4 31.8047 286.5 31.8047H384C418.7 31.8047 446.9 59.4047 448 93.8047C462.6 105.505 472 123.505 472 143.805C472 148.305 471.5 152.605 470.7 156.805C486.1 168.505 496 187.005 496 207.805C496 214.305 495 220.605 493.2 226.505C504.8 238.305 512 254.305 512 272.005C512 307.305 483.4 336.005 448 336.005H355.7C360.4 346.405 364.4 357.205 367.5 368.205L373.2 388.205C384.1 426.405 362 466.305 323.8 477.205ZM32 384.005C14.3 384.005 0 369.705 0 352.005V128.005C0 110.305 14.3 96.0047 32 96.0047H96C113.7 96.0047 128 110.305 128 128.005V352.005C128 369.705 113.7 384.005 96 384.005H32Z" fill="black"/>
</svg>
