<svg width="640" height="512" viewBox="0 0 640 512" fill="none" xmlns="http://www.w3.org/2000/svg">
<path d="M128 72C134.365 72 140.47 74.5286 144.971 79.0294C149.471 83.5303 152 89.6348 152 96C152 102.365 149.471 108.47 144.971 112.971C140.47 117.471 134.365 120 128 120C121.635 120 115.53 117.471 111.029 112.971C106.529 108.47 104 102.365 104 96C104 89.6348 106.529 83.5303 111.029 79.0294C115.53 74.5286 121.635 72 128 72ZM160 169.3C188.3 157 208 128.8 208 96C208 51.8 172.2 16 128 16C83.8 16 48 51.8 48 96C48 128.8 67.7 157 96 169.3V224H32C14.3 224 0 238.3 0 256C0 273.7 14.3 288 32 288H288V342.7C259.7 355 240 383.2 240 416C240 460.2 275.8 496 320 496C364.2 496 400 460.2 400 416C400 383.2 380.3 355 352 342.7V288H608C625.7 288 640 273.7 640 256C640 238.3 625.7 224 608 224H544V169.3C572.3 157 592 128.8 592 96C592 51.8 556.2 16 512 16C467.8 16 432 51.8 432 96C432 128.8 451.7 157 480 169.3V224H160V169.3ZM488 96C488 89.6348 490.529 83.5303 495.029 79.0294C499.53 74.5286 505.635 72 512 72C518.365 72 524.47 74.5286 528.971 79.0294C533.471 83.5303 536 89.6348 536 96C536 102.365 533.471 108.47 528.971 112.971C524.47 117.471 518.365 120 512 120C505.635 120 499.53 117.471 495.029 112.971C490.529 108.47 488 102.365 488 96ZM320 392C326.365 392 332.47 394.529 336.971 399.029C341.471 403.53 344 409.635 344 416C344 422.365 341.471 428.47 336.971 432.971C332.47 437.471 326.365 440 320 440C313.635 440 307.53 437.471 303.029 432.971C298.529 428.47 296 422.365 296 416C296 409.635 298.529 403.53 303.029 399.029C307.53 394.529 313.635 392 320 392Z" fill="black"/>
</svg>
