<svg width="576" height="512" viewBox="0 0 576 512" fill="none" xmlns="http://www.w3.org/2000/svg">
<path d="M192 64C86 64 0 150 0 256C0 362 86 448 192 448H384C490 448 576 362 576 256C576 150 490 64 384 64H192ZM384 160C409.461 160 433.879 170.114 451.882 188.118C469.886 206.121 480 230.539 480 256C480 281.461 469.886 305.879 451.882 323.882C433.879 341.886 409.461 352 384 352C358.539 352 334.121 341.886 316.118 323.882C298.114 305.879 288 281.461 288 256C288 230.539 298.114 206.121 316.118 188.118C334.121 170.114 358.539 160 384 160Z" fill="black"/>
</svg>
