<svg width="576" height="512" viewBox="0 0 576 512" fill="none" xmlns="http://www.w3.org/2000/svg">
<path d="M384 128C454.7 128 512 185.3 512 256C512 326.7 454.7 384 384 384H192C121.3 384 64 326.7 64 256C64 185.3 121.3 128 192 128H384ZM576 256C576 150 490 64 384 64H192C86 64 0 150 0 256C0 362 86 448 192 448H384C490 448 576 362 576 256ZM192 352C217.461 352 241.879 341.886 259.882 323.882C277.886 305.879 288 281.461 288 256C288 230.539 277.886 206.121 259.882 188.118C241.879 170.114 217.461 160 192 160C166.539 160 142.121 170.114 124.118 188.118C106.114 206.121 96 230.539 96 256C96 281.461 106.114 305.879 124.118 323.882C142.121 341.886 166.539 352 192 352Z" fill="black"/>
</svg>
