<svg width="640" height="512" viewBox="0 0 640 512" fill="none" xmlns="http://www.w3.org/2000/svg">
<path d="M444.198 0C397.198 49.6 383.998 126.5 383.998 192C383.998 350.8 356.698 439 341.298 475.9C331.298 499.9 308.098 512 285.898 512H47.9982C36.4982 512 25.7982 505.8 20.1982 495.8C14.5982 485.8 14.5982 473.5 20.5982 463.6C30.3982 445.9 35.9982 425.4 41.0982 405.9C52.2982 362.8 63.9982 293.5 63.9982 192C63.9982 86 106.998 0 159.998 0H444.198ZM511.998 384C458.998 384 415.998 298 415.998 192C415.998 86 458.998 0 511.998 0C564.998 0 607.998 86 607.998 192C607.998 298 564.998 384 511.998 384ZM511.998 256C529.698 256 543.998 227.3 543.998 192C543.998 156.7 529.698 128 511.998 128C494.298 128 479.998 156.7 479.998 192C479.998 227.3 494.298 256 511.998 256ZM143.998 208C143.998 203.757 142.312 199.687 139.312 196.686C136.311 193.686 132.242 192 127.998 192C123.755 192 119.685 193.686 116.684 196.686C113.684 199.687 111.998 203.757 111.998 208C111.998 212.243 113.684 216.313 116.684 219.314C119.685 222.314 123.755 224 127.998 224C132.242 224 136.311 222.314 139.312 219.314C142.312 216.313 143.998 212.243 143.998 208ZM207.998 208C207.998 203.757 206.312 199.687 203.312 196.686C200.311 193.686 196.242 192 191.998 192C187.755 192 183.685 193.686 180.684 196.686C177.684 199.687 175.998 203.757 175.998 208C175.998 212.243 177.684 216.313 180.684 219.314C183.685 222.314 187.755 224 191.998 224C196.242 224 200.311 222.314 203.312 219.314C206.312 216.313 207.998 212.243 207.998 208ZM255.998 224C260.242 224 264.311 222.314 267.312 219.314C270.312 216.313 271.998 212.243 271.998 208C271.998 203.757 270.312 199.687 267.312 196.686C264.311 193.686 260.242 192 255.998 192C251.755 192 247.685 193.686 244.684 196.686C241.684 199.687 239.998 203.757 239.998 208C239.998 212.243 241.684 216.313 244.684 219.314C247.685 222.314 251.755 224 255.998 224ZM335.998 208C335.998 203.757 334.312 199.687 331.312 196.686C328.311 193.686 324.242 192 319.998 192C315.755 192 311.685 193.686 308.684 196.686C305.684 199.687 303.998 203.757 303.998 208C303.998 212.243 305.684 216.313 308.684 219.314C311.685 222.314 315.755 224 319.998 224C324.242 224 328.311 222.314 331.312 219.314C334.312 216.313 335.998 212.243 335.998 208Z" fill="black"/>
</svg>
