<svg width="448" height="512" viewBox="0 0 448 512" fill="none" xmlns="http://www.w3.org/2000/svg">
<path d="M186.1 52.0984C169.3 39.0984 148.7 31.9984 127.5 31.9984C74.7 31.9984 32 74.6984 32 127.498V133.698C32 149.498 35.7 164.998 42.7 179.198L66.2 226.298C70.7 235.198 73.8 244.698 75.6 254.498L112.3 460.298C114.3 471.498 123.9 479.698 135.2 480.098C146.5 480.498 156.6 472.698 159.2 461.698L188.1 340.398C192.2 323.698 207 311.998 224 311.998C241 311.998 255.8 323.698 259.8 340.298L288.7 461.598C291.3 472.698 301.4 480.398 312.7 479.998C324 479.598 333.6 471.398 335.6 460.198L372.3 254.398C374.1 244.598 377.2 235.098 381.7 226.198L405.2 179.098C412.3 164.998 415.9 149.398 415.9 133.598V131.498C415.9 76.4984 371.3 31.8984 316.3 31.8984C292.2 31.8984 268.9 40.6984 250.7 56.4984L247.5 59.2984L267 74.4984C274 79.8984 275.2 89.9984 269.8 96.9984C264.4 103.998 254.3 105.198 247.3 99.7984L222.9 80.7984L185.9 51.9984L186.1 52.0984Z" fill="black"/>
</svg>
