<svg width="576" height="512" viewBox="0 0 576 512" fill="none" xmlns="http://www.w3.org/2000/svg">
<g clip-path="url(#clip0_3932_49927)">
<mask id="mask0_3932_49927" style="mask-type:luminance" maskUnits="userSpaceOnUse" x="0" y="0" width="576" height="512">
<path d="M576 0H0V512H576V0Z" fill="white"/>
</mask>
<g mask="url(#mask0_3932_49927)">
<mask id="mask1_3932_49927" style="mask-type:luminance" maskUnits="userSpaceOnUse" x="0" y="0" width="576" height="512">
<path d="M576 0H0V512H576V0Z" fill="white"/>
</mask>
<g mask="url(#mask1_3932_49927)">
<mask id="mask2_3932_49927" style="mask-type:luminance" maskUnits="userSpaceOnUse" x="0" y="0" width="576" height="512">
<path d="M576 0H0V512H576V0Z" fill="white"/>
</mask>
<g mask="url(#mask2_3932_49927)">
<mask id="mask3_3932_49927" style="mask-type:luminance" maskUnits="userSpaceOnUse" x="0" y="0" width="576" height="512">
<path d="M576 0H0V512H576V0Z" fill="white"/>
</mask>
<g mask="url(#mask3_3932_49927)">
<mask id="mask4_3932_49927" style="mask-type:luminance" maskUnits="userSpaceOnUse" x="0" y="0" width="576" height="512">
<path d="M576 0H0V512H576V0Z" fill="white"/>
</mask>
<g mask="url(#mask4_3932_49927)">
<mask id="mask5_3932_49927" style="mask-type:luminance" maskUnits="userSpaceOnUse" x="0" y="0" width="576" height="512">
<path d="M576 0H0V512H576V0Z" fill="white"/>
</mask>
<g mask="url(#mask5_3932_49927)">
<mask id="mask6_3932_49927" style="mask-type:luminance" maskUnits="userSpaceOnUse" x="0" y="0" width="576" height="512">
<path d="M576 0H0V512H576V0Z" fill="white"/>
</mask>
<g mask="url(#mask6_3932_49927)">
<mask id="mask7_3932_49927" style="mask-type:luminance" maskUnits="userSpaceOnUse" x="0" y="0" width="576" height="512">
<path d="M576 0H0V512H576V0Z" fill="white"/>
</mask>
<g mask="url(#mask7_3932_49927)">
<mask id="mask8_3932_49927" style="mask-type:luminance" maskUnits="userSpaceOnUse" x="0" y="0" width="576" height="512">
<path d="M576 0H0V512H576V0Z" fill="white"/>
</mask>
<g mask="url(#mask8_3932_49927)">
<mask id="mask9_3932_49927" style="mask-type:luminance" maskUnits="userSpaceOnUse" x="0" y="0" width="576" height="512">
<path d="M576 0H0V512H576V0Z" fill="white"/>
</mask>
<g mask="url(#mask9_3932_49927)">
<mask id="mask10_3932_49927" style="mask-type:luminance" maskUnits="userSpaceOnUse" x="0" y="0" width="576" height="512">
<path d="M576 0H0V512H576V0Z" fill="white"/>
</mask>
<g mask="url(#mask10_3932_49927)">
<mask id="mask11_3932_49927" style="mask-type:luminance" maskUnits="userSpaceOnUse" x="0" y="0" width="576" height="512">
<path d="M576 0H0V512H576V0Z" fill="white"/>
</mask>
<g mask="url(#mask11_3932_49927)">
<mask id="mask12_3932_49927" style="mask-type:luminance" maskUnits="userSpaceOnUse" x="0" y="0" width="576" height="512">
<path d="M576 0H0V512H576V0Z" fill="white"/>
</mask>
<g mask="url(#mask12_3932_49927)">
<mask id="mask13_3932_49927" style="mask-type:luminance" maskUnits="userSpaceOnUse" x="0" y="0" width="576" height="512">
<path d="M576 0H0V512H576V0Z" fill="white"/>
</mask>
<g mask="url(#mask13_3932_49927)">
<path d="M80.3 44.0006C69.8 69.9006 64 98.2006 64 128.001C64 157.801 69.8 186.101 80.3 212.001C86.9 228.401 79 247.001 62.6 253.701C46.2 260.401 27.6 252.401 20.9 236.001C7.4 202.601 0 166.101 0 128.001C0 89.9006 7.4 53.4006 20.9 20.0006C27.6 3.60062 46.2 -4.29938 62.6 2.30062C79 8.90062 86.9 27.6006 80.3 44.0006ZM555.1 20.0006C568.6 53.4006 576 89.9006 576 128.001C576 166.101 568.6 202.601 555.1 236.001C548.5 252.401 529.8 260.301 513.4 253.701C497 247.101 489.1 228.401 495.7 212.001C506.2 186.101 512 157.801 512 128.001C512 98.2006 506.2 69.9006 495.7 44.0006C489.1 27.6006 497 9.00062 513.4 2.30062C529.8 -4.39938 548.4 3.60062 555.1 20.0006ZM352 128.001C352 151.701 339.1 172.401 320 183.401V480.001C320 497.701 305.7 512.001 288 512.001C270.3 512.001 256 497.701 256 480.001V183.401C236.9 172.301 224 151.701 224 128.001C224 92.7006 252.7 64.0006 288 64.0006C323.3 64.0006 352 92.7006 352 128.001ZM170.6 76.8006C163.8 92.4006 160 109.701 160 128.001C160 146.301 163.8 163.601 170.6 179.201C177.7 195.401 170.3 214.301 154.1 221.301C137.9 228.301 119 221.001 112 204.801C101.7 181.201 96 155.201 96 128.001C96 100.801 101.7 74.8006 112 51.2006C119.1 35.0006 137.9 27.6006 154.1 34.7006C170.3 41.8006 177.7 60.6006 170.6 76.8006ZM464 51.2006C474.3 74.8006 480 100.801 480 128.001C480 155.201 474.3 181.201 464 204.801C456.9 221.001 438.1 228.401 421.9 221.301C405.7 214.201 398.3 195.401 405.4 179.201C412.2 163.601 416 146.301 416 128.001C416 109.701 412.2 92.4006 405.4 76.8006C398.3 60.6006 405.7 41.7006 421.9 34.7006C438.1 27.7006 457 35.0006 464 51.2006Z" fill="black"/>
</g>
</g>
</g>
</g>
</g>
</g>
</g>
</g>
</g>
</g>
</g>
</g>
</g>
</g>
</g>
<defs>
<clipPath id="clip0_3932_49927">
<rect width="576" height="512" fill="white"/>
</clipPath>
</defs>
</svg>
