<svg width="640" height="512" viewBox="0 0 640 512" fill="none" xmlns="http://www.w3.org/2000/svg">
<g clip-path="url(#clip0_3932_50101)">
<mask id="mask0_3932_50101" style="mask-type:luminance" maskUnits="userSpaceOnUse" x="0" y="0" width="640" height="512">
<path d="M640 0H0V512H640V0Z" fill="white"/>
</mask>
<g mask="url(#mask0_3932_50101)">
<mask id="mask1_3932_50101" style="mask-type:luminance" maskUnits="userSpaceOnUse" x="0" y="0" width="640" height="512">
<path d="M640 0H0V512H640V0Z" fill="white"/>
</mask>
<g mask="url(#mask1_3932_50101)">
<mask id="mask2_3932_50101" style="mask-type:luminance" maskUnits="userSpaceOnUse" x="0" y="0" width="640" height="512">
<path d="M640 0H0V512H640V0Z" fill="white"/>
</mask>
<g mask="url(#mask2_3932_50101)">
<mask id="mask3_3932_50101" style="mask-type:luminance" maskUnits="userSpaceOnUse" x="0" y="0" width="640" height="512">
<path d="M640 0H0V512H640V0Z" fill="white"/>
</mask>
<g mask="url(#mask3_3932_50101)">
<mask id="mask4_3932_50101" style="mask-type:luminance" maskUnits="userSpaceOnUse" x="0" y="0" width="640" height="512">
<path d="M640 0H0V512H640V0Z" fill="white"/>
</mask>
<g mask="url(#mask4_3932_50101)">
<mask id="mask5_3932_50101" style="mask-type:luminance" maskUnits="userSpaceOnUse" x="0" y="0" width="640" height="512">
<path d="M640 0H0V512H640V0Z" fill="white"/>
</mask>
<g mask="url(#mask5_3932_50101)">
<mask id="mask6_3932_50101" style="mask-type:luminance" maskUnits="userSpaceOnUse" x="0" y="0" width="640" height="512">
<path d="M640 0H0V512H640V0Z" fill="white"/>
</mask>
<g mask="url(#mask6_3932_50101)">
<mask id="mask7_3932_50101" style="mask-type:luminance" maskUnits="userSpaceOnUse" x="0" y="0" width="640" height="512">
<path d="M640 0H0V512H640V0Z" fill="white"/>
</mask>
<g mask="url(#mask7_3932_50101)">
<mask id="mask8_3932_50101" style="mask-type:luminance" maskUnits="userSpaceOnUse" x="0" y="0" width="640" height="512">
<path d="M640 0H0V512H640V0Z" fill="white"/>
</mask>
<g mask="url(#mask8_3932_50101)">
<mask id="mask9_3932_50101" style="mask-type:luminance" maskUnits="userSpaceOnUse" x="0" y="0" width="640" height="512">
<path d="M640 0H0V512H640V0Z" fill="white"/>
</mask>
<g mask="url(#mask9_3932_50101)">
<mask id="mask10_3932_50101" style="mask-type:luminance" maskUnits="userSpaceOnUse" x="0" y="0" width="640" height="512">
<path d="M640 0H0V512H640V0Z" fill="white"/>
</mask>
<g mask="url(#mask10_3932_50101)">
<mask id="mask11_3932_50101" style="mask-type:luminance" maskUnits="userSpaceOnUse" x="0" y="0" width="640" height="512">
<path d="M640 0H0V512H640V0Z" fill="white"/>
</mask>
<g mask="url(#mask11_3932_50101)">
<mask id="mask12_3932_50101" style="mask-type:luminance" maskUnits="userSpaceOnUse" x="0" y="0" width="640" height="512">
<path d="M640 0H0V512H640V0Z" fill="white"/>
</mask>
<g mask="url(#mask12_3932_50101)">
<mask id="mask13_3932_50101" style="mask-type:luminance" maskUnits="userSpaceOnUse" x="0" y="0" width="640" height="512">
<path d="M640 0H0V512H640V0Z" fill="white"/>
</mask>
<g mask="url(#mask13_3932_50101)">
<path d="M96 64C96 28.7 124.7 0 160 0H266.3C292.5 0 316 15.9 325.7 40.2L373.7 160H480V126.2C480 101.4 485.8 76.9 496.9 54.6L499.4 49.6C507.3 33.8 526.5 27.4 542.3 35.3C558.1 43.2 564.5 62.4 556.6 78.2L554.1 83.2C547.4 96.5 544 111.2 544 126.1V160H600C622.1 160 640 177.9 640 200V245.4C640 261.9 631.5 277.3 617.4 286.1L574.1 313.2C559.9 307.3 544.3 304 528 304C488.7 304 453.9 322.9 432 352H352C352 369.7 337.7 384 320 384H311.8C310.1 388.8 308.1 393.5 306 398.1L311.8 403.9C324.3 416.4 324.3 436.7 311.8 449.2L289.2 471.8C276.7 484.3 256.4 484.3 243.9 471.8L238.1 466C233.5 468.2 228.8 470.1 224 471.8V480C224 497.7 209.7 512 192 512H160C142.3 512 128 497.7 128 480V471.8C123.2 470.1 118.5 468.1 113.9 466L108.1 471.8C95.6 484.3 75.3 484.3 62.8 471.8L40.2 449.1C27.7 436.6 27.7 416.3 40.2 403.8L46 398C43.8 393.4 41.9 388.7 40.2 383.9H32C14.3 383.9 0 369.6 0 351.9V320C0 302.3 14.3 288 32 288H40.2C41.9 283.2 43.9 278.5 46 273.9L40.2 268.1C27.7 255.6 27.7 235.3 40.2 222.8L62.8 200.2C71.8 191.2 84.7 188.7 95.9 192.6V192V160V64H96ZM266.3 64H160V160H192H304.7L266.3 64ZM176 256C154.783 256 134.434 264.429 119.431 279.431C104.429 294.434 96 314.783 96 336C96 357.217 104.429 377.566 119.431 392.569C134.434 407.571 154.783 416 176 416C197.217 416 217.566 407.571 232.569 392.569C247.571 377.566 256 357.217 256 336C256 314.783 247.571 294.434 232.569 279.431C217.566 264.429 197.217 256 176 256ZM528 448C534.365 448 540.47 445.471 544.971 440.971C549.471 436.47 552 430.365 552 424C552 417.635 549.471 411.53 544.971 407.029C540.47 402.529 534.365 400 528 400C521.635 400 515.53 402.529 511.029 407.029C506.529 411.53 504 417.635 504 424C504 430.365 506.529 436.47 511.029 440.971C515.53 445.471 521.635 448 528 448ZM528 512C479.4 512 440 472.6 440 424C440 394.2 454.8 367.9 477.4 352C491.7 341.9 509.2 336 528 336C530.7 336 533.3 336.1 535.9 336.3C580.8 340.3 616 378 616 424C616 472.6 576.6 512 528 512Z" fill="black"/>
</g>
</g>
</g>
</g>
</g>
</g>
</g>
</g>
</g>
</g>
</g>
</g>
</g>
</g>
</g>
<defs>
<clipPath id="clip0_3932_50101">
<rect width="640" height="512" fill="white"/>
</clipPath>
</defs>
</svg>
