<svg width="640" height="512" viewBox="0 0 640 512" fill="none" xmlns="http://www.w3.org/2000/svg">
<path d="M345.6 108.798C337.3 97.7977 322.9 93.2977 309.9 97.5977C296.9 101.898 288 114.198 288 127.998V383.998C288 401.698 302.3 415.998 320 415.998C337.7 415.998 352 401.698 352 383.998V223.998L438.4 339.198C444.4 347.298 453.9 351.998 464 351.998C474.1 351.998 483.6 347.298 489.6 339.198L576 223.998V383.998C576 401.698 590.3 415.998 608 415.998C625.7 415.998 640 401.698 640 383.998V127.998C640 114.198 631.2 101.998 618.1 97.5977C605 93.1977 590.6 97.6977 582.4 108.798L464 266.698L345.6 108.798ZM0 127.998C0 145.698 14.3 159.998 32 159.998H96V383.998C96 401.698 110.3 415.998 128 415.998C145.7 415.998 160 401.698 160 383.998V159.998H224C241.7 159.998 256 145.698 256 127.998C256 110.298 241.7 95.9977 224 95.9977H32C14.3 95.9977 0 110.298 0 127.998Z" fill="black"/>
</svg>
