<svg width="496" height="512" viewBox="0 0 496 512" fill="none" xmlns="http://www.w3.org/2000/svg">
<path d="M248 8.79688C111 8.79688 0 119.797 0 256.797C0 393.797 111 504.797 248 504.797C385 504.797 496 393.797 496 256.797C496 119.797 385 8.79688 248 8.79688ZM248 491.597C118.3 491.597 13.2 386.497 13.2 256.797C13.2 127.097 118.3 21.9969 248 21.9969C377.7 21.9969 482.8 127.097 482.8 256.797C482.8 386.497 377.7 491.597 248 491.597ZM403.1 163.097V116.297H209.3V197.997H54.2L90.9 243.997H208.6V440.797H257.4V244.997H340.7V197.997H257.4V163.197H403.1V163.097ZM329.8 208.197V232.097H246.9V429.497H220.1V232.097H96.3L76.2 208.197H220.1V127.597H391.9V151.997H246.9V208.197H329.8ZM168.5 139.197L156.1 118.497L158.2 142.297L134.7 147.697L158 153.097L155.9 177.097L168.2 156.597L190.4 166.097L174.7 147.997L190.5 129.897L168.5 139.197ZM138.9 119.497L148.2 107.997L135.5 113.897L127.5 101.497L129.2 115.397L114.9 119.197L128.6 121.897L127.8 136.597L134.6 124.397L148.4 129.697L138.9 119.497ZM304.3 264.697L291.2 270.297L283.9 258.097L285.2 272.297L271.3 275.497L285.2 278.697L284 292.897L291.3 280.697L304.4 286.197L295 275.497L304.3 264.697ZM411.2 187.497L390.3 196.597L378.3 176.997L380.5 199.697L358.2 205.097L380.4 209.997L378.6 232.897L390.1 213.297L411.3 222.097L396.2 205.097L411.2 187.497ZM248 29.8969C122.7 29.8969 21.1 131.497 21.1 256.797C21.1 382.097 122.7 483.697 248 483.697C373.3 483.697 474.9 382.097 474.9 256.797C474.9 131.497 373.3 29.8969 248 29.8969ZM342.6 195.997V246.997H259.3V442.697H206.6V245.897H89.9L49.9 195.997H207.3V114.397H405.1V165.097H259.4V195.997H342.6ZM248 43.1969C308.3 43.1969 362.8 68.1969 401.6 108.397H202.5V189.997H45.1C73.1 104.797 153.4 43.1969 248 43.1969ZM248 470.297C130.1 470.297 34.4 374.697 34.4 256.797C34.4 235.597 37.5 214.997 43.3 195.697L87.1 251.997H201.8V448.797H266.4V252.997H349.7V190.297H266.5V171.097H412.1V120.297C442.9 157.297 461.4 204.897 461.4 256.797C461.5 374.697 365.9 470.297 248 470.297ZM178.8 274.997L167.8 253.597L169.5 278.097L145.8 281.997L169.6 287.897L165.9 311.697L178.9 290.797L200.4 301.597L184.6 282.797L201.5 265.697L178.8 274.997Z" fill="black"/>
</svg>
