<svg width="640" height="512" viewBox="0 0 640 512" fill="none" xmlns="http://www.w3.org/2000/svg">
<path d="M48 32C21.5 32 0 53.5 0 80V336C0 362.5 21.5 384 48 384H65.1C72.9 329.7 119.5 288 176 288C232.5 288 279.1 329.7 286.9 384H488H496H608C625.7 384 640 369.7 640 352C640 334.3 625.7 320 608 320H544V80C544 53.5 522.5 32 496 32H48ZM80 96C88.8 96 96 103.2 96 112V243.2C84.6 249.1 73.8 256.1 64 264.2V112C64 103.2 71.2 96 80 96ZM176 224C170.6 224 165.3 224.2 160 224.7V112C160 103.2 167.2 96 176 96C184.8 96 192 103.2 192 112V224.7C186.7 224.2 181.4 224 176 224ZM256 243.2V112C256 103.2 263.2 96 272 96C280.8 96 288 103.2 288 112V264.2C278.2 256.1 267.4 249 256 243.2ZM368 96C376.8 96 384 103.2 384 112V304C384 312.8 376.8 320 368 320C359.2 320 352 312.8 352 304V112C352 103.2 359.2 96 368 96ZM480 112V304C480 312.8 472.8 320 464 320C455.2 320 448 312.8 448 304V112C448 103.2 455.2 96 464 96C472.8 96 480 103.2 480 112ZM176 480C197.217 480 217.566 471.571 232.569 456.569C247.571 441.566 256 421.217 256 400C256 378.783 247.571 358.434 232.569 343.431C217.566 328.429 197.217 320 176 320C154.783 320 134.434 328.429 119.431 343.431C104.429 358.434 96 378.783 96 400C96 421.217 104.429 441.566 119.431 456.569C134.434 471.571 154.783 480 176 480ZM176 368C184.487 368 192.626 371.371 198.627 377.373C204.629 383.374 208 391.513 208 400C208 408.487 204.629 416.626 198.627 422.627C192.626 428.629 184.487 432 176 432C167.513 432 159.374 428.629 153.373 422.627C147.371 416.626 144 408.487 144 400C144 391.513 147.371 383.374 153.373 377.373C159.374 371.371 167.513 368 176 368Z" fill="black"/>
</svg>
