<svg width="512" height="512" viewBox="0 0 512 512" fill="none" xmlns="http://www.w3.org/2000/svg">
<g clip-path="url(#clip0_3932_50919)">
<mask id="mask0_3932_50919" style="mask-type:luminance" maskUnits="userSpaceOnUse" x="0" y="0" width="512" height="512">
<path d="M512 0H0V512H512V0Z" fill="white"/>
</mask>
<g mask="url(#mask0_3932_50919)">
<mask id="mask1_3932_50919" style="mask-type:luminance" maskUnits="userSpaceOnUse" x="0" y="0" width="512" height="512">
<path d="M512 0H0V512H512V0Z" fill="white"/>
</mask>
<g mask="url(#mask1_3932_50919)">
<mask id="mask2_3932_50919" style="mask-type:luminance" maskUnits="userSpaceOnUse" x="0" y="0" width="512" height="512">
<path d="M512 0H0V512H512V0Z" fill="white"/>
</mask>
<g mask="url(#mask2_3932_50919)">
<mask id="mask3_3932_50919" style="mask-type:luminance" maskUnits="userSpaceOnUse" x="0" y="0" width="512" height="512">
<path d="M512 0H0V512H512V0Z" fill="white"/>
</mask>
<g mask="url(#mask3_3932_50919)">
<mask id="mask4_3932_50919" style="mask-type:luminance" maskUnits="userSpaceOnUse" x="0" y="0" width="512" height="512">
<path d="M512 0H0V512H512V0Z" fill="white"/>
</mask>
<g mask="url(#mask4_3932_50919)">
<mask id="mask5_3932_50919" style="mask-type:luminance" maskUnits="userSpaceOnUse" x="0" y="0" width="512" height="512">
<path d="M512 0H0V512H512V0Z" fill="white"/>
</mask>
<g mask="url(#mask5_3932_50919)">
<mask id="mask6_3932_50919" style="mask-type:luminance" maskUnits="userSpaceOnUse" x="0" y="0" width="512" height="512">
<path d="M512 0H0V512H512V0Z" fill="white"/>
</mask>
<g mask="url(#mask6_3932_50919)">
<mask id="mask7_3932_50919" style="mask-type:luminance" maskUnits="userSpaceOnUse" x="0" y="0" width="512" height="512">
<path d="M512 0H0V512H512V0Z" fill="white"/>
</mask>
<g mask="url(#mask7_3932_50919)">
<mask id="mask8_3932_50919" style="mask-type:luminance" maskUnits="userSpaceOnUse" x="0" y="0" width="512" height="512">
<path d="M512 0H0V512H512V0Z" fill="white"/>
</mask>
<g mask="url(#mask8_3932_50919)">
<mask id="mask9_3932_50919" style="mask-type:luminance" maskUnits="userSpaceOnUse" x="0" y="0" width="512" height="512">
<path d="M512 0H0V512H512V0Z" fill="white"/>
</mask>
<g mask="url(#mask9_3932_50919)">
<mask id="mask10_3932_50919" style="mask-type:luminance" maskUnits="userSpaceOnUse" x="0" y="0" width="512" height="512">
<path d="M512 0H0V512H512V0Z" fill="white"/>
</mask>
<g mask="url(#mask10_3932_50919)">
<mask id="mask11_3932_50919" style="mask-type:luminance" maskUnits="userSpaceOnUse" x="0" y="0" width="512" height="512">
<path d="M512 0H0V512H512V0Z" fill="white"/>
</mask>
<g mask="url(#mask11_3932_50919)">
<mask id="mask12_3932_50919" style="mask-type:luminance" maskUnits="userSpaceOnUse" x="0" y="0" width="512" height="512">
<path d="M512 0H0V512H512V0Z" fill="white"/>
</mask>
<g mask="url(#mask12_3932_50919)">
<mask id="mask13_3932_50919" style="mask-type:luminance" maskUnits="userSpaceOnUse" x="0" y="0" width="512" height="512">
<path d="M512 0H0V512H512V0Z" fill="white"/>
</mask>
<g mask="url(#mask13_3932_50919)">
<path d="M343.903 213.398L245.303 311.998L310.703 377.398C318.603 385.298 321.803 396.798 319.103 407.698C316.403 418.598 308.303 427.298 297.603 430.598L41.6025 510.598C30.2025 514.098 17.8025 511.098 9.40254 502.698C1.00253 494.298 -2.09746 481.798 1.50254 470.498L81.5025 214.498C84.8025 203.798 93.5025 195.598 104.403 192.998C115.303 190.398 126.803 193.498 134.703 201.398L200.003 266.698L298.603 168.098C284.303 153.498 284.403 130.098 298.903 115.598L394.303 20.1984C421.203 -6.70155 464.803 -6.70155 491.803 20.1984C518.803 47.0984 518.703 90.6984 491.803 117.698L396.403 213.098C381.903 227.598 358.503 227.698 343.903 213.398Z" fill="black"/>
</g>
</g>
</g>
</g>
</g>
</g>
</g>
</g>
</g>
</g>
</g>
</g>
</g>
</g>
</g>
<defs>
<clipPath id="clip0_3932_50919">
<rect width="512" height="512" fill="white"/>
</clipPath>
</defs>
</svg>
