<svg width="512" height="512" viewBox="0 0 512 512" fill="none" xmlns="http://www.w3.org/2000/svg">
<g clip-path="url(#clip0_3932_50977)">
<mask id="mask0_3932_50977" style="mask-type:luminance" maskUnits="userSpaceOnUse" x="0" y="0" width="512" height="512">
<path d="M512 0H0V512H512V0Z" fill="white"/>
</mask>
<g mask="url(#mask0_3932_50977)">
<mask id="mask1_3932_50977" style="mask-type:luminance" maskUnits="userSpaceOnUse" x="0" y="0" width="512" height="512">
<path d="M512 0H0V512H512V0Z" fill="white"/>
</mask>
<g mask="url(#mask1_3932_50977)">
<mask id="mask2_3932_50977" style="mask-type:luminance" maskUnits="userSpaceOnUse" x="0" y="0" width="512" height="512">
<path d="M512 0H0V512H512V0Z" fill="white"/>
</mask>
<g mask="url(#mask2_3932_50977)">
<mask id="mask3_3932_50977" style="mask-type:luminance" maskUnits="userSpaceOnUse" x="0" y="0" width="512" height="512">
<path d="M512 0H0V512H512V0Z" fill="white"/>
</mask>
<g mask="url(#mask3_3932_50977)">
<mask id="mask4_3932_50977" style="mask-type:luminance" maskUnits="userSpaceOnUse" x="0" y="0" width="512" height="512">
<path d="M512 0H0V512H512V0Z" fill="white"/>
</mask>
<g mask="url(#mask4_3932_50977)">
<mask id="mask5_3932_50977" style="mask-type:luminance" maskUnits="userSpaceOnUse" x="0" y="0" width="512" height="512">
<path d="M512 0H0V512H512V0Z" fill="white"/>
</mask>
<g mask="url(#mask5_3932_50977)">
<mask id="mask6_3932_50977" style="mask-type:luminance" maskUnits="userSpaceOnUse" x="0" y="0" width="512" height="512">
<path d="M512 0H0V512H512V0Z" fill="white"/>
</mask>
<g mask="url(#mask6_3932_50977)">
<mask id="mask7_3932_50977" style="mask-type:luminance" maskUnits="userSpaceOnUse" x="0" y="0" width="512" height="512">
<path d="M512 0H0V512H512V0Z" fill="white"/>
</mask>
<g mask="url(#mask7_3932_50977)">
<mask id="mask8_3932_50977" style="mask-type:luminance" maskUnits="userSpaceOnUse" x="0" y="0" width="512" height="512">
<path d="M512 0H0V512H512V0Z" fill="white"/>
</mask>
<g mask="url(#mask8_3932_50977)">
<mask id="mask9_3932_50977" style="mask-type:luminance" maskUnits="userSpaceOnUse" x="0" y="0" width="512" height="512">
<path d="M512 0H0V512H512V0Z" fill="white"/>
</mask>
<g mask="url(#mask9_3932_50977)">
<mask id="mask10_3932_50977" style="mask-type:luminance" maskUnits="userSpaceOnUse" x="0" y="0" width="512" height="512">
<path d="M512 0H0V512H512V0Z" fill="white"/>
</mask>
<g mask="url(#mask10_3932_50977)">
<mask id="mask11_3932_50977" style="mask-type:luminance" maskUnits="userSpaceOnUse" x="0" y="0" width="512" height="512">
<path d="M512 0H0V512H512V0Z" fill="white"/>
</mask>
<g mask="url(#mask11_3932_50977)">
<mask id="mask12_3932_50977" style="mask-type:luminance" maskUnits="userSpaceOnUse" x="0" y="0" width="512" height="512">
<path d="M512 0H0V512H512V0Z" fill="white"/>
</mask>
<g mask="url(#mask12_3932_50977)">
<mask id="mask13_3932_50977" style="mask-type:luminance" maskUnits="userSpaceOnUse" x="0" y="0" width="512" height="512">
<path d="M512 0H0V512H512V0Z" fill="white"/>
</mask>
<g mask="url(#mask13_3932_50977)">
<path d="M240.8 4.80031C250.3 10.6003 256 20.9003 256 32.0003V104H345C348.6 90.2003 361.1 80.0003 376 80.0003H464C490.5 80.0003 512 101.5 512 128C512 154.5 490.5 176 464 176H376C361.1 176 348.6 165.8 345 152H256V224C256 235.1 250.3 245.4 240.8 251.2C231.3 257 219.6 257.6 209.7 252.6L17.7 156.6C6.8 151.2 0 140.1 0 128C0 115.9 6.8 104.8 17.7 99.4003L209.7 3.40031C219.6 -1.59969 231.4 -0.999696 240.8 4.80031ZM288 256C288 238.3 302.3 224 320 224H480C497.7 224 512 238.3 512 256V320C512 337.7 497.7 352 480 352H320C302.3 352 288 337.7 288 320V256ZM32 384H128C145.7 384 160 398.3 160 416V480C160 497.7 145.7 512 128 512H32C14.3 512 0 497.7 0 480V416C0 398.3 14.3 384 32 384ZM224 384H480C497.7 384 512 398.3 512 416V480C512 497.7 497.7 512 480 512H224C206.3 512 192 497.7 192 480V416C192 398.3 206.3 384 224 384Z" fill="black"/>
</g>
</g>
</g>
</g>
</g>
</g>
</g>
</g>
</g>
</g>
</g>
</g>
</g>
</g>
</g>
<defs>
<clipPath id="clip0_3932_50977">
<rect width="512" height="512" fill="white"/>
</clipPath>
</defs>
</svg>
