<svg width="640" height="512" viewBox="0 0 640 512" fill="none" xmlns="http://www.w3.org/2000/svg">
<path d="M96 32C60.7 32 32 60.7 32 96V128C14.3 128 0 142.3 0 160V256C0 273.7 14.3 288 32 288V320C14.3 320 0 334.3 0 352C0 369.7 14.3 384 32 384H64C64 437 107 480 160 480C213 480 256 437 256 384H384C384 437 427 480 480 480C533 480 576 437 576 384H608C625.7 384 640 369.7 640 352C640 334.3 625.7 320 608 320V288C608 252.7 579.3 224 544 224H539.8C539.4 222.9 538.9 221.9 538.5 220.8L485.7 102C475.4 78.9 452.5 64 427.2 64H375.4C364.4 44.9 343.7 32 320 32H96ZM384 128H427.2L469.9 224H384V128ZM112 384C112 371.27 117.057 359.061 126.059 350.059C135.061 341.057 147.27 336 160 336C172.73 336 184.939 341.057 193.941 350.059C202.943 359.061 208 371.27 208 384C208 396.73 202.943 408.939 193.941 417.941C184.939 426.943 172.73 432 160 432C147.27 432 135.061 426.943 126.059 417.941C117.057 408.939 112 396.73 112 384ZM480 336C492.73 336 504.939 341.057 513.941 350.059C522.943 359.061 528 371.27 528 384C528 396.73 522.943 408.939 513.941 417.941C504.939 426.943 492.73 432 480 432C467.27 432 455.061 426.943 446.059 417.941C437.057 408.939 432 396.73 432 384C432 371.27 437.057 359.061 446.059 350.059C455.061 341.057 467.27 336 480 336ZM253.3 135.1L288 187.1V144C288 135.2 295.2 128 304 128C312.8 128 320 135.2 320 144V240C320 247.1 315.4 253.3 308.6 255.3C301.8 257.3 294.6 254.7 290.7 248.9L256 196.9V240C256 248.8 248.8 256 240 256C231.2 256 224 248.8 224 240V144C224 136.9 228.6 130.7 235.4 128.7C242.2 126.7 249.4 129.3 253.3 135.1ZM128 144V208C128 216.8 135.2 224 144 224C152.8 224 160 216.8 160 208V144C160 135.2 167.2 128 176 128C184.8 128 192 135.2 192 144V208C192 234.5 170.5 256 144 256C117.5 256 96 234.5 96 208V144C96 135.2 103.2 128 112 128C120.8 128 128 135.2 128 144Z" fill="black"/>
</svg>
