<svg width="640" height="512" viewBox="0 0 640 512" fill="none" xmlns="http://www.w3.org/2000/svg">
<path d="M32 96C32 60.7 60.7 32 96 32H320C343.7 32 364.4 44.9 375.4 64H427.2C452.5 64 475.4 78.9 485.7 102L538.5 220.8C539 221.9 539.4 222.9 539.8 224H544C579.3 224 608 252.7 608 288V320C625.7 320 640 334.3 640 352C640 369.7 625.7 384 608 384H576C576 437 533 480 480 480C427 480 384 437 384 384H256C256 437 213 480 160 480C107 480 64 437 64 384H32C14.3 384 0 369.7 0 352C0 334.3 14.3 320 32 320V288C14.3 288 0 273.7 0 256V160C0 142.3 14.3 128 32 128V96ZM384 224H469.9L427.2 128H384V224ZM160 432C172.73 432 184.939 426.943 193.941 417.941C202.943 408.939 208 396.73 208 384C208 371.27 202.943 359.061 193.941 350.059C184.939 341.057 172.73 336 160 336C147.27 336 135.061 341.057 126.059 350.059C117.057 359.061 112 371.27 112 384C112 396.73 117.057 408.939 126.059 417.941C135.061 426.943 147.27 432 160 432ZM528 384C528 371.27 522.943 359.061 513.941 350.059C504.939 341.057 492.73 336 480 336C467.27 336 455.061 341.057 446.059 350.059C437.057 359.061 432 371.27 432 384C432 396.73 437.057 408.939 446.059 417.941C455.061 426.943 467.27 432 480 432C492.73 432 504.939 426.943 513.941 417.941C522.943 408.939 528 396.73 528 384Z" fill="black"/>
</svg>
