<svg width="512" height="512" viewBox="0 0 512 512" fill="none" xmlns="http://www.w3.org/2000/svg">
<path d="M38.3024 241.3L15.1024 200.6C5.90244 184.4 6.70244 164.1 19.6024 150.6C61.4024 106.8 144.702 48 256.002 48C367.302 48 450.602 106.8 492.402 150.6C505.302 164.1 506.102 184.4 496.902 200.6L473.802 241.3C466.302 254.5 450.502 260.6 436.002 255.9L354.902 229.3C341.802 225 332.902 212.7 332.902 198.9V144C283.302 125.9 228.902 125.9 179.302 144V198.8C179.302 212.6 170.402 224.9 157.302 229.2L76.1024 255.8C61.6024 260.5 45.8024 254.4 38.3024 241.2V241.3ZM32.0024 336C32.0024 327.2 39.2024 320 48.0024 320H80.0024C88.8024 320 96.0024 327.2 96.0024 336V368C96.0024 376.8 88.8024 384 80.0024 384H48.0024C39.2024 384 32.0024 376.8 32.0024 368V336ZM32.0024 432C32.0024 423.2 39.2024 416 48.0024 416H80.0024C88.8024 416 96.0024 423.2 96.0024 432V464C96.0024 472.8 88.8024 480 80.0024 480H48.0024C39.2024 480 32.0024 472.8 32.0024 464V432ZM144.002 320H176.002C184.802 320 192.002 327.2 192.002 336V368C192.002 376.8 184.802 384 176.002 384H144.002C135.202 384 128.002 376.8 128.002 368V336C128.002 327.2 135.202 320 144.002 320ZM224.002 336C224.002 327.2 231.202 320 240.002 320H272.002C280.802 320 288.002 327.2 288.002 336V368C288.002 376.8 280.802 384 272.002 384H240.002C231.202 384 224.002 376.8 224.002 368V336ZM336.002 320H368.002C376.802 320 384.002 327.2 384.002 336V368C384.002 376.8 376.802 384 368.002 384H336.002C327.202 384 320.002 376.8 320.002 368V336C320.002 327.2 327.202 320 336.002 320ZM416.002 336C416.002 327.2 423.202 320 432.002 320H464.002C472.802 320 480.002 327.2 480.002 336V368C480.002 376.8 472.802 384 464.002 384H432.002C423.202 384 416.002 376.8 416.002 368V336ZM432.002 416H464.002C472.802 416 480.002 423.2 480.002 432V464C480.002 472.8 472.802 480 464.002 480H432.002C423.202 480 416.002 472.8 416.002 464V432C416.002 423.2 423.202 416 432.002 416ZM128.002 432C128.002 423.2 135.202 416 144.002 416H368.002C376.802 416 384.002 423.2 384.002 432V464C384.002 472.8 376.802 480 368.002 480H144.002C135.202 480 128.002 472.8 128.002 464V432Z" fill="black"/>
</svg>
