<svg width="320" height="512" viewBox="0 0 320 512" fill="none" xmlns="http://www.w3.org/2000/svg">
<g clip-path="url(#clip0_3932_51567)">
<mask id="mask0_3932_51567" style="mask-type:luminance" maskUnits="userSpaceOnUse" x="0" y="0" width="320" height="512">
<path d="M320 0H0V512H320V0Z" fill="white"/>
</mask>
<g mask="url(#mask0_3932_51567)">
<mask id="mask1_3932_51567" style="mask-type:luminance" maskUnits="userSpaceOnUse" x="0" y="0" width="320" height="512">
<path d="M320 0H0V512H320V0Z" fill="white"/>
</mask>
<g mask="url(#mask1_3932_51567)">
<mask id="mask2_3932_51567" style="mask-type:luminance" maskUnits="userSpaceOnUse" x="0" y="0" width="320" height="512">
<path d="M320 0H0V512H320V0Z" fill="white"/>
</mask>
<g mask="url(#mask2_3932_51567)">
<mask id="mask3_3932_51567" style="mask-type:luminance" maskUnits="userSpaceOnUse" x="0" y="0" width="320" height="512">
<path d="M320 0H0V512H320V0Z" fill="white"/>
</mask>
<g mask="url(#mask3_3932_51567)">
<mask id="mask4_3932_51567" style="mask-type:luminance" maskUnits="userSpaceOnUse" x="0" y="0" width="320" height="512">
<path d="M320 0H0V512H320V0Z" fill="white"/>
</mask>
<g mask="url(#mask4_3932_51567)">
<mask id="mask5_3932_51567" style="mask-type:luminance" maskUnits="userSpaceOnUse" x="0" y="0" width="320" height="512">
<path d="M320 0H0V512H320V0Z" fill="white"/>
</mask>
<g mask="url(#mask5_3932_51567)">
<mask id="mask6_3932_51567" style="mask-type:luminance" maskUnits="userSpaceOnUse" x="0" y="0" width="320" height="512">
<path d="M320 0H0V512H320V0Z" fill="white"/>
</mask>
<g mask="url(#mask6_3932_51567)">
<mask id="mask7_3932_51567" style="mask-type:luminance" maskUnits="userSpaceOnUse" x="0" y="0" width="320" height="512">
<path d="M320 0H0V512H320V0Z" fill="white"/>
</mask>
<g mask="url(#mask7_3932_51567)">
<mask id="mask8_3932_51567" style="mask-type:luminance" maskUnits="userSpaceOnUse" x="0" y="0" width="320" height="512">
<path d="M320 0H0V512H320V0Z" fill="white"/>
</mask>
<g mask="url(#mask8_3932_51567)">
<mask id="mask9_3932_51567" style="mask-type:luminance" maskUnits="userSpaceOnUse" x="0" y="0" width="320" height="512">
<path d="M320 0H0V512H320V0Z" fill="white"/>
</mask>
<g mask="url(#mask9_3932_51567)">
<mask id="mask10_3932_51567" style="mask-type:luminance" maskUnits="userSpaceOnUse" x="0" y="0" width="320" height="512">
<path d="M320 0H0V512H320V0Z" fill="white"/>
</mask>
<g mask="url(#mask10_3932_51567)">
<mask id="mask11_3932_51567" style="mask-type:luminance" maskUnits="userSpaceOnUse" x="0" y="0" width="320" height="512">
<path d="M320 0H0V512H320V0Z" fill="white"/>
</mask>
<g mask="url(#mask11_3932_51567)">
<mask id="mask12_3932_51567" style="mask-type:luminance" maskUnits="userSpaceOnUse" x="0" y="0" width="320" height="512">
<path d="M320 0H0V512H320V0Z" fill="white"/>
</mask>
<g mask="url(#mask12_3932_51567)">
<mask id="mask13_3932_51567" style="mask-type:luminance" maskUnits="userSpaceOnUse" x="0" y="0" width="320" height="512">
<path d="M320 0H0V512H320V0Z" fill="white"/>
</mask>
<g mask="url(#mask13_3932_51567)">
<path d="M309.798 480.3C296.198 494.8 259.798 512 212.398 512C91.5984 512 65.3984 423.2 65.3984 371.4V227.4H17.8984C12.3984 227.4 7.89844 222.9 7.89844 217.4V149.4C7.89844 142.2 12.3984 135.8 19.1984 133.4C81.1984 111.6 100.698 57.4 103.498 16.3C104.298 5.3 109.998 0 119.598 0H190.498C195.998 0 200.498 4.5 200.498 10V125.2H283.498C288.998 125.2 293.498 129.6 293.498 135.1V216.8C293.498 222.3 288.998 226.8 283.498 226.8H200.098V360C200.098 394.2 223.798 413.6 268.098 395.8C272.898 393.9 277.098 392.6 280.798 393.6C284.298 394.5 286.598 397 288.198 401.5L310.198 465.8C311.998 470.8 313.498 476.4 309.798 480.3Z" fill="black"/>
</g>
</g>
</g>
</g>
</g>
</g>
</g>
</g>
</g>
</g>
</g>
</g>
</g>
</g>
</g>
<defs>
<clipPath id="clip0_3932_51567">
<rect width="320" height="512" fill="white"/>
</clipPath>
</defs>
</svg>
