<svg width="384" height="512" viewBox="0 0 384 512" fill="none" xmlns="http://www.w3.org/2000/svg">
<g clip-path="url(#clip0_3932_51625)">
<mask id="mask0_3932_51625" style="mask-type:luminance" maskUnits="userSpaceOnUse" x="0" y="0" width="384" height="512">
<path d="M384 0H0V512H384V0Z" fill="white"/>
</mask>
<g mask="url(#mask0_3932_51625)">
<mask id="mask1_3932_51625" style="mask-type:luminance" maskUnits="userSpaceOnUse" x="0" y="0" width="384" height="512">
<path d="M384 0H0V512H384V0Z" fill="white"/>
</mask>
<g mask="url(#mask1_3932_51625)">
<mask id="mask2_3932_51625" style="mask-type:luminance" maskUnits="userSpaceOnUse" x="0" y="0" width="384" height="512">
<path d="M384 0H0V512H384V0Z" fill="white"/>
</mask>
<g mask="url(#mask2_3932_51625)">
<mask id="mask3_3932_51625" style="mask-type:luminance" maskUnits="userSpaceOnUse" x="0" y="0" width="384" height="512">
<path d="M384 0H0V512H384V0Z" fill="white"/>
</mask>
<g mask="url(#mask3_3932_51625)">
<mask id="mask4_3932_51625" style="mask-type:luminance" maskUnits="userSpaceOnUse" x="0" y="0" width="384" height="512">
<path d="M384 0H0V512H384V0Z" fill="white"/>
</mask>
<g mask="url(#mask4_3932_51625)">
<mask id="mask5_3932_51625" style="mask-type:luminance" maskUnits="userSpaceOnUse" x="0" y="0" width="384" height="512">
<path d="M384 0H0V512H384V0Z" fill="white"/>
</mask>
<g mask="url(#mask5_3932_51625)">
<mask id="mask6_3932_51625" style="mask-type:luminance" maskUnits="userSpaceOnUse" x="0" y="0" width="384" height="512">
<path d="M384 0H0V512H384V0Z" fill="white"/>
</mask>
<g mask="url(#mask6_3932_51625)">
<mask id="mask7_3932_51625" style="mask-type:luminance" maskUnits="userSpaceOnUse" x="0" y="0" width="384" height="512">
<path d="M384 0H0V512H384V0Z" fill="white"/>
</mask>
<g mask="url(#mask7_3932_51625)">
<mask id="mask8_3932_51625" style="mask-type:luminance" maskUnits="userSpaceOnUse" x="0" y="0" width="384" height="512">
<path d="M384 0H0V512H384V0Z" fill="white"/>
</mask>
<g mask="url(#mask8_3932_51625)">
<mask id="mask9_3932_51625" style="mask-type:luminance" maskUnits="userSpaceOnUse" x="0" y="0" width="384" height="512">
<path d="M384 0H0V512H384V0Z" fill="white"/>
</mask>
<g mask="url(#mask9_3932_51625)">
<mask id="mask10_3932_51625" style="mask-type:luminance" maskUnits="userSpaceOnUse" x="0" y="0" width="384" height="512">
<path d="M384 0H0V512H384V0Z" fill="white"/>
</mask>
<g mask="url(#mask10_3932_51625)">
<mask id="mask11_3932_51625" style="mask-type:luminance" maskUnits="userSpaceOnUse" x="0" y="0" width="384" height="512">
<path d="M384 0H0V512H384V0Z" fill="white"/>
</mask>
<g mask="url(#mask11_3932_51625)">
<mask id="mask12_3932_51625" style="mask-type:luminance" maskUnits="userSpaceOnUse" x="0" y="0" width="384" height="512">
<path d="M384 0H0V512H384V0Z" fill="white"/>
</mask>
<g mask="url(#mask12_3932_51625)">
<mask id="mask13_3932_51625" style="mask-type:luminance" maskUnits="userSpaceOnUse" x="0" y="0" width="384" height="512">
<path d="M384 0H0V512H384V0Z" fill="white"/>
</mask>
<g mask="url(#mask13_3932_51625)">
<path d="M95.9994 32C113.699 32 127.999 46.3 127.999 64V99.3L247.199 65.2C264.199 60.3 281.899 70.2 286.799 87.2C291.699 104.2 281.799 121.9 264.799 126.8L127.999 165.9V195.3L247.199 161.2C264.199 156.3 281.899 166.2 286.799 183.2C291.699 200.2 281.799 217.9 264.799 222.8L127.999 261.9V416H191.799C259.999 416 316.199 362.5 319.599 294.4L319.999 286.4C320.899 268.7 335.899 255.2 353.599 256C371.299 256.8 384.799 271.9 383.999 289.6L383.599 297.6C378.499 399.8 294.099 480 191.799 480H95.9994C78.2994 480 63.9994 465.7 63.9994 448V280.1L40.7994 286.7C23.7994 291.6 6.09944 281.7 1.19944 264.7C-3.70056 247.7 6.19944 230 23.1994 225.1L63.9994 213.6V184.1L40.7994 190.7C23.7994 195.6 6.09944 185.7 1.19944 168.7C-3.70056 151.7 6.19944 134 23.1994 129.1L63.9994 117.6V64C63.9994 46.3 78.2994 32 95.9994 32Z" fill="black"/>
</g>
</g>
</g>
</g>
</g>
</g>
</g>
</g>
</g>
</g>
</g>
</g>
</g>
</g>
</g>
<defs>
<clipPath id="clip0_3932_51625">
<rect width="384" height="512" fill="white"/>
</clipPath>
</defs>
</svg>
