<svg width="448" height="512" viewBox="0 0 448 512" fill="none" xmlns="http://www.w3.org/2000/svg">
<g clip-path="url(#clip0_3932_52057)">
<mask id="mask0_3932_52057" style="mask-type:luminance" maskUnits="userSpaceOnUse" x="0" y="0" width="448" height="512">
<path d="M448 0H0V512H448V0Z" fill="white"/>
</mask>
<g mask="url(#mask0_3932_52057)">
<mask id="mask1_3932_52057" style="mask-type:luminance" maskUnits="userSpaceOnUse" x="0" y="0" width="448" height="512">
<path d="M448 0H0V512H448V0Z" fill="white"/>
</mask>
<g mask="url(#mask1_3932_52057)">
<mask id="mask2_3932_52057" style="mask-type:luminance" maskUnits="userSpaceOnUse" x="0" y="0" width="448" height="512">
<path d="M448 0H0V512H448V0Z" fill="white"/>
</mask>
<g mask="url(#mask2_3932_52057)">
<mask id="mask3_3932_52057" style="mask-type:luminance" maskUnits="userSpaceOnUse" x="0" y="0" width="448" height="512">
<path d="M448 0H0V512H448V0Z" fill="white"/>
</mask>
<g mask="url(#mask3_3932_52057)">
<mask id="mask4_3932_52057" style="mask-type:luminance" maskUnits="userSpaceOnUse" x="0" y="0" width="448" height="512">
<path d="M448 0H0V512H448V0Z" fill="white"/>
</mask>
<g mask="url(#mask4_3932_52057)">
<mask id="mask5_3932_52057" style="mask-type:luminance" maskUnits="userSpaceOnUse" x="0" y="0" width="448" height="512">
<path d="M448 0H0V512H448V0Z" fill="white"/>
</mask>
<g mask="url(#mask5_3932_52057)">
<mask id="mask6_3932_52057" style="mask-type:luminance" maskUnits="userSpaceOnUse" x="0" y="0" width="448" height="512">
<path d="M448 0H0V512H448V0Z" fill="white"/>
</mask>
<g mask="url(#mask6_3932_52057)">
<mask id="mask7_3932_52057" style="mask-type:luminance" maskUnits="userSpaceOnUse" x="0" y="0" width="448" height="512">
<path d="M448 0H0V512H448V0Z" fill="white"/>
</mask>
<g mask="url(#mask7_3932_52057)">
<mask id="mask8_3932_52057" style="mask-type:luminance" maskUnits="userSpaceOnUse" x="0" y="0" width="448" height="512">
<path d="M448 0H0V512H448V0Z" fill="white"/>
</mask>
<g mask="url(#mask8_3932_52057)">
<mask id="mask9_3932_52057" style="mask-type:luminance" maskUnits="userSpaceOnUse" x="0" y="0" width="448" height="512">
<path d="M448 0H0V512H448V0Z" fill="white"/>
</mask>
<g mask="url(#mask9_3932_52057)">
<mask id="mask10_3932_52057" style="mask-type:luminance" maskUnits="userSpaceOnUse" x="0" y="0" width="448" height="512">
<path d="M448 0H0V512H448V0Z" fill="white"/>
</mask>
<g mask="url(#mask10_3932_52057)">
<mask id="mask11_3932_52057" style="mask-type:luminance" maskUnits="userSpaceOnUse" x="0" y="0" width="448" height="512">
<path d="M448 0H0V512H448V0Z" fill="white"/>
</mask>
<g mask="url(#mask11_3932_52057)">
<mask id="mask12_3932_52057" style="mask-type:luminance" maskUnits="userSpaceOnUse" x="0" y="0" width="448" height="512">
<path d="M448 0H0V512H448V0Z" fill="white"/>
</mask>
<g mask="url(#mask12_3932_52057)">
<mask id="mask13_3932_52057" style="mask-type:luminance" maskUnits="userSpaceOnUse" x="0" y="0" width="448" height="512">
<path d="M448 0H0V512H448V0Z" fill="white"/>
</mask>
<g mask="url(#mask13_3932_52057)">
<path d="M224 64C179.8 64 144 99.8 144 144V192H384C419.3 192 448 220.7 448 256V448C448 483.3 419.3 512 384 512H64C28.7 512 0 483.3 0 448V256C0 220.7 28.7 192 64 192H80V144C80 64.5 144.5 0 224 0C281.5 0 331 33.7 354.1 82.3C361.7 98.3 354.9 117.4 338.9 124.9C322.9 132.4 303.8 125.7 296.3 109.7C283.4 82.6 255.9 64 224 64ZM256 384C273.7 384 288 369.7 288 352C288 334.3 273.7 320 256 320H192C174.3 320 160 334.3 160 352C160 369.7 174.3 384 192 384H256Z" fill="black"/>
</g>
</g>
</g>
</g>
</g>
</g>
</g>
</g>
</g>
</g>
</g>
</g>
</g>
</g>
</g>
<defs>
<clipPath id="clip0_3932_52057">
<rect width="448" height="512" fill="white"/>
</clipPath>
</defs>
</svg>
