<svg width="641" height="512" viewBox="0 0 641 512" fill="none" xmlns="http://www.w3.org/2000/svg">
<path d="M494.697 295.605C444.397 295.605 411.197 256.705 401.897 241.705C413.797 146.405 448.697 116.305 494.697 116.305C540.197 116.305 575.597 152.705 575.597 206.005C575.597 259.305 540.197 295.705 494.697 295.705V295.605ZM494.697 57.8047C412.797 57.8047 366.897 111.205 353.697 166.205C338.797 138.205 327.797 100.705 319.197 65.9048H205.997V206.905C205.997 258.005 182.697 295.905 137.197 295.905C91.6969 295.905 65.5969 258.105 65.5969 206.905L66.0969 65.9048H0.796875V206.905C0.796875 248.005 14.0969 285.305 38.3969 312.005C63.3969 339.505 97.5969 353.805 137.197 353.805C215.997 353.805 270.997 293.405 270.997 206.905V112.105C279.197 143.305 298.797 203.205 336.297 255.705L301.297 455.105H367.697L390.797 313.805C398.397 320.105 406.497 325.805 414.997 330.805C437.197 344.805 462.697 352.705 488.897 353.605C488.897 353.605 492.897 353.805 494.997 353.805C576.197 353.805 640.897 290.905 640.897 206.005C640.897 121.105 576.097 57.9048 494.897 57.9048L494.697 57.8047Z" fill="black"/>
</svg>
