<svg width="448" height="512" viewBox="0 0 448 512" fill="none" xmlns="http://www.w3.org/2000/svg">
<g clip-path="url(#clip0_3932_52942)">
<mask id="mask0_3932_52942" style="mask-type:luminance" maskUnits="userSpaceOnUse" x="0" y="0" width="448" height="512">
<path d="M448 0H0V512H448V0Z" fill="white"/>
</mask>
<g mask="url(#mask0_3932_52942)">
<mask id="mask1_3932_52942" style="mask-type:luminance" maskUnits="userSpaceOnUse" x="0" y="0" width="448" height="512">
<path d="M448 0H0V512H448V0Z" fill="white"/>
</mask>
<g mask="url(#mask1_3932_52942)">
<mask id="mask2_3932_52942" style="mask-type:luminance" maskUnits="userSpaceOnUse" x="0" y="0" width="448" height="512">
<path d="M448 0H0V512H448V0Z" fill="white"/>
</mask>
<g mask="url(#mask2_3932_52942)">
<mask id="mask3_3932_52942" style="mask-type:luminance" maskUnits="userSpaceOnUse" x="0" y="0" width="448" height="512">
<path d="M448 0H0V512H448V0Z" fill="white"/>
</mask>
<g mask="url(#mask3_3932_52942)">
<mask id="mask4_3932_52942" style="mask-type:luminance" maskUnits="userSpaceOnUse" x="0" y="0" width="448" height="512">
<path d="M448 0H0V512H448V0Z" fill="white"/>
</mask>
<g mask="url(#mask4_3932_52942)">
<mask id="mask5_3932_52942" style="mask-type:luminance" maskUnits="userSpaceOnUse" x="0" y="0" width="448" height="512">
<path d="M448 0H0V512H448V0Z" fill="white"/>
</mask>
<g mask="url(#mask5_3932_52942)">
<mask id="mask6_3932_52942" style="mask-type:luminance" maskUnits="userSpaceOnUse" x="0" y="0" width="448" height="512">
<path d="M448 0H0V512H448V0Z" fill="white"/>
</mask>
<g mask="url(#mask6_3932_52942)">
<mask id="mask7_3932_52942" style="mask-type:luminance" maskUnits="userSpaceOnUse" x="0" y="0" width="448" height="512">
<path d="M448 0H0V512H448V0Z" fill="white"/>
</mask>
<g mask="url(#mask7_3932_52942)">
<mask id="mask8_3932_52942" style="mask-type:luminance" maskUnits="userSpaceOnUse" x="0" y="0" width="448" height="512">
<path d="M448 0H0V512H448V0Z" fill="white"/>
</mask>
<g mask="url(#mask8_3932_52942)">
<mask id="mask9_3932_52942" style="mask-type:luminance" maskUnits="userSpaceOnUse" x="0" y="0" width="448" height="512">
<path d="M448 0H0V512H448V0Z" fill="white"/>
</mask>
<g mask="url(#mask9_3932_52942)">
<mask id="mask10_3932_52942" style="mask-type:luminance" maskUnits="userSpaceOnUse" x="0" y="0" width="448" height="512">
<path d="M448 0H0V512H448V0Z" fill="white"/>
</mask>
<g mask="url(#mask10_3932_52942)">
<mask id="mask11_3932_52942" style="mask-type:luminance" maskUnits="userSpaceOnUse" x="0" y="0" width="448" height="512">
<path d="M448 0H0V512H448V0Z" fill="white"/>
</mask>
<g mask="url(#mask11_3932_52942)">
<mask id="mask12_3932_52942" style="mask-type:luminance" maskUnits="userSpaceOnUse" x="0" y="0" width="448" height="512">
<path d="M448 0H0V512H448V0Z" fill="white"/>
</mask>
<g mask="url(#mask12_3932_52942)">
<mask id="mask13_3932_52942" style="mask-type:luminance" maskUnits="userSpaceOnUse" x="0" y="0" width="448" height="512">
<path d="M448 0H0V512H448V0Z" fill="white"/>
</mask>
<g mask="url(#mask13_3932_52942)">
<path d="M240 80H342.7C334.8 60.5 322.3 43.5 306.5 30.1L240 80ZM277.7 11.8C261.3 4.2 243.2 0 224 0C170.3 0 124.3 33.1 105.3 80H186.7L277.7 11.8ZM224 256C294.7 256 352 198.7 352 128C352 122.6 351.7 117.2 351 112H97C96.3 117.2 96 122.6 96 128C96 198.7 153.3 256 224 256ZM124 312.4C114.3 315.5 104.9 319.4 96 324.1V512H243.7L181.5 408.2L124 312.4ZM157 305.2L204.3 384H272C316.2 384 352 419.8 352 464C352 482 346 498.6 336 512H418.3C434.7 512 448 498.7 448 482.3C448 383.8 368.2 304 269.7 304H178.3C171.1 304 164 304.4 157 305.3V305.2ZM0 482.3C0 498.7 13.3 512 29.7 512H64V345.4C24.9 378.1 0 427.3 0 482.3ZM320 464C320 437.5 298.5 416 272 416H223.5L280.6 511.2C303 507.2 320 487.6 320 464Z" fill="black"/>
</g>
</g>
</g>
</g>
</g>
</g>
</g>
</g>
</g>
</g>
</g>
</g>
</g>
</g>
</g>
<defs>
<clipPath id="clip0_3932_52942">
<rect width="448" height="512" fill="white"/>
</clipPath>
</defs>
</svg>
