<svg width="640" height="512" viewBox="0 0 640 512" fill="none" xmlns="http://www.w3.org/2000/svg">
<g clip-path="url(#clip0_3932_53348)">
<mask id="mask0_3932_53348" style="mask-type:luminance" maskUnits="userSpaceOnUse" x="0" y="0" width="640" height="512">
<path d="M640 0H0V512H640V0Z" fill="white"/>
</mask>
<g mask="url(#mask0_3932_53348)">
<mask id="mask1_3932_53348" style="mask-type:luminance" maskUnits="userSpaceOnUse" x="0" y="0" width="640" height="512">
<path d="M640 0H0V512H640V0Z" fill="white"/>
</mask>
<g mask="url(#mask1_3932_53348)">
<mask id="mask2_3932_53348" style="mask-type:luminance" maskUnits="userSpaceOnUse" x="0" y="0" width="640" height="512">
<path d="M640 0H0V512H640V0Z" fill="white"/>
</mask>
<g mask="url(#mask2_3932_53348)">
<mask id="mask3_3932_53348" style="mask-type:luminance" maskUnits="userSpaceOnUse" x="0" y="0" width="640" height="512">
<path d="M640 0H0V512H640V0Z" fill="white"/>
</mask>
<g mask="url(#mask3_3932_53348)">
<mask id="mask4_3932_53348" style="mask-type:luminance" maskUnits="userSpaceOnUse" x="0" y="0" width="640" height="512">
<path d="M640 0H0V512H640V0Z" fill="white"/>
</mask>
<g mask="url(#mask4_3932_53348)">
<mask id="mask5_3932_53348" style="mask-type:luminance" maskUnits="userSpaceOnUse" x="0" y="0" width="640" height="512">
<path d="M640 0H0V512H640V0Z" fill="white"/>
</mask>
<g mask="url(#mask5_3932_53348)">
<mask id="mask6_3932_53348" style="mask-type:luminance" maskUnits="userSpaceOnUse" x="0" y="0" width="640" height="512">
<path d="M640 0H0V512H640V0Z" fill="white"/>
</mask>
<g mask="url(#mask6_3932_53348)">
<mask id="mask7_3932_53348" style="mask-type:luminance" maskUnits="userSpaceOnUse" x="0" y="0" width="640" height="512">
<path d="M640 0H0V512H640V0Z" fill="white"/>
</mask>
<g mask="url(#mask7_3932_53348)">
<mask id="mask8_3932_53348" style="mask-type:luminance" maskUnits="userSpaceOnUse" x="0" y="0" width="640" height="512">
<path d="M640 0H0V512H640V0Z" fill="white"/>
</mask>
<g mask="url(#mask8_3932_53348)">
<mask id="mask9_3932_53348" style="mask-type:luminance" maskUnits="userSpaceOnUse" x="0" y="0" width="640" height="512">
<path d="M640 0H0V512H640V0Z" fill="white"/>
</mask>
<g mask="url(#mask9_3932_53348)">
<mask id="mask10_3932_53348" style="mask-type:luminance" maskUnits="userSpaceOnUse" x="0" y="0" width="640" height="512">
<path d="M640 0H0V512H640V0Z" fill="white"/>
</mask>
<g mask="url(#mask10_3932_53348)">
<mask id="mask11_3932_53348" style="mask-type:luminance" maskUnits="userSpaceOnUse" x="0" y="0" width="640" height="512">
<path d="M640 0H0V512H640V0Z" fill="white"/>
</mask>
<g mask="url(#mask11_3932_53348)">
<mask id="mask12_3932_53348" style="mask-type:luminance" maskUnits="userSpaceOnUse" x="0" y="0" width="640" height="512">
<path d="M640 0H0V512H640V0Z" fill="white"/>
</mask>
<g mask="url(#mask12_3932_53348)">
<mask id="mask13_3932_53348" style="mask-type:luminance" maskUnits="userSpaceOnUse" x="0" y="0" width="640" height="512">
<path d="M640 0H0V512H640V0Z" fill="white"/>
</mask>
<g mask="url(#mask13_3932_53348)">
<path d="M224 256C257.948 256 290.505 242.514 314.51 218.51C338.514 194.505 352 161.948 352 128C352 94.0523 338.514 61.495 314.51 37.4903C290.505 13.4857 257.948 0 224 0C190.052 0 157.495 13.4857 133.49 37.4903C109.486 61.495 96 94.0523 96 128C96 161.948 109.486 194.505 133.49 218.51C157.495 242.514 190.052 256 224 256ZM178.3 304C79.8 304 0 383.8 0 482.3C0 498.7 13.3 512 29.7 512H322.8C319.7 503.2 319.1 493.6 321.4 484.2L336.4 424.1C339.2 412.8 345 402.6 353.2 394.4L393.5 354.1C361.4 323.1 317.8 304 269.6 304H178.3ZM613.8 235.7C598.2 220.1 572.9 220.1 557.2 235.7L527.8 265.1L598.8 336.1L628.2 306.7C643.8 291.1 643.8 265.8 628.2 250.1L613.8 235.7ZM375.9 417C371.8 421.1 368.9 426.2 367.5 431.9L352.5 492C351.1 497.5 352.7 503.2 356.7 507.2C360.7 511.2 366.4 512.8 371.9 511.4L432 496.4C437.6 495 442.8 492.1 446.9 488L576.1 358.7L505.1 287.7L375.9 417Z" fill="black"/>
</g>
</g>
</g>
</g>
</g>
</g>
</g>
</g>
</g>
</g>
</g>
</g>
</g>
</g>
</g>
<defs>
<clipPath id="clip0_3932_53348">
<rect width="640" height="512" fill="white"/>
</clipPath>
</defs>
</svg>
