<svg width="640" height="512" viewBox="0 0 640 512" fill="none" xmlns="http://www.w3.org/2000/svg">
<g clip-path="url(#clip0_3932_53930)">
<mask id="mask0_3932_53930" style="mask-type:luminance" maskUnits="userSpaceOnUse" x="0" y="0" width="640" height="512">
<path d="M640 0H0V512H640V0Z" fill="white"/>
</mask>
<g mask="url(#mask0_3932_53930)">
<mask id="mask1_3932_53930" style="mask-type:luminance" maskUnits="userSpaceOnUse" x="0" y="0" width="640" height="512">
<path d="M640 0H0V512H640V0Z" fill="white"/>
</mask>
<g mask="url(#mask1_3932_53930)">
<mask id="mask2_3932_53930" style="mask-type:luminance" maskUnits="userSpaceOnUse" x="0" y="0" width="640" height="512">
<path d="M640 0H0V512H640V0Z" fill="white"/>
</mask>
<g mask="url(#mask2_3932_53930)">
<mask id="mask3_3932_53930" style="mask-type:luminance" maskUnits="userSpaceOnUse" x="0" y="0" width="640" height="512">
<path d="M640 0H0V512H640V0Z" fill="white"/>
</mask>
<g mask="url(#mask3_3932_53930)">
<mask id="mask4_3932_53930" style="mask-type:luminance" maskUnits="userSpaceOnUse" x="0" y="0" width="640" height="512">
<path d="M640 0H0V512H640V0Z" fill="white"/>
</mask>
<g mask="url(#mask4_3932_53930)">
<mask id="mask5_3932_53930" style="mask-type:luminance" maskUnits="userSpaceOnUse" x="0" y="0" width="640" height="512">
<path d="M640 0H0V512H640V0Z" fill="white"/>
</mask>
<g mask="url(#mask5_3932_53930)">
<mask id="mask6_3932_53930" style="mask-type:luminance" maskUnits="userSpaceOnUse" x="0" y="0" width="640" height="512">
<path d="M640 0H0V512H640V0Z" fill="white"/>
</mask>
<g mask="url(#mask6_3932_53930)">
<mask id="mask7_3932_53930" style="mask-type:luminance" maskUnits="userSpaceOnUse" x="0" y="0" width="640" height="512">
<path d="M640 0H0V512H640V0Z" fill="white"/>
</mask>
<g mask="url(#mask7_3932_53930)">
<mask id="mask8_3932_53930" style="mask-type:luminance" maskUnits="userSpaceOnUse" x="0" y="0" width="640" height="512">
<path d="M640 0H0V512H640V0Z" fill="white"/>
</mask>
<g mask="url(#mask8_3932_53930)">
<mask id="mask9_3932_53930" style="mask-type:luminance" maskUnits="userSpaceOnUse" x="0" y="0" width="640" height="512">
<path d="M640 0H0V512H640V0Z" fill="white"/>
</mask>
<g mask="url(#mask9_3932_53930)">
<mask id="mask10_3932_53930" style="mask-type:luminance" maskUnits="userSpaceOnUse" x="0" y="0" width="640" height="512">
<path d="M640 0H0V512H640V0Z" fill="white"/>
</mask>
<g mask="url(#mask10_3932_53930)">
<mask id="mask11_3932_53930" style="mask-type:luminance" maskUnits="userSpaceOnUse" x="0" y="0" width="640" height="512">
<path d="M640 0H0V512H640V0Z" fill="white"/>
</mask>
<g mask="url(#mask11_3932_53930)">
<mask id="mask12_3932_53930" style="mask-type:luminance" maskUnits="userSpaceOnUse" x="0" y="0" width="640" height="512">
<path d="M640 0H0V512H640V0Z" fill="white"/>
</mask>
<g mask="url(#mask12_3932_53930)">
<mask id="mask13_3932_53930" style="mask-type:luminance" maskUnits="userSpaceOnUse" x="0" y="0" width="640" height="512">
<path d="M640 0H0V512H640V0Z" fill="white"/>
</mask>
<g mask="url(#mask13_3932_53930)">
<path d="M38.7978 5.09781C28.3978 -3.10219 13.2978 -1.20219 5.09781 9.19781C-3.10219 19.5978 -1.20219 34.6978 9.19781 42.8978L601.198 506.898C611.598 515.098 626.698 513.198 634.898 502.798C643.098 492.398 641.198 477.298 630.798 469.098L440.598 319.998H618.698C630.498 319.998 639.998 310.398 639.998 298.698C639.998 239.798 592.198 191.998 533.298 191.998H490.698C474.798 191.998 459.698 195.498 446.098 201.698C447.398 208.898 447.998 216.398 447.998 223.998C447.998 254.198 437.498 281.998 419.998 303.898L394.798 284.198C408.098 267.698 415.998 246.798 415.998 223.998C415.998 170.998 372.998 127.998 319.998 127.998C288.898 127.998 261.298 142.798 243.698 165.698L203.098 133.898C216.098 119.698 223.998 100.798 223.998 79.9977C223.998 35.7977 188.198 -0.00221091 143.998 -0.00221091C116.298 -0.00221091 91.8978 14.0978 77.4978 35.4978L38.7978 5.09781ZM106.698 191.998C47.7978 191.998 -0.00221378 239.798 -0.00221378 298.698C-0.00221378 310.398 9.59781 319.998 21.2978 319.998H234.698C234.898 319.998 235.098 319.998 235.398 319.998C214.798 301.798 200.198 277.198 194.598 249.198L121.798 191.998H106.698ZM261.298 351.998C187.698 351.998 127.998 411.698 127.998 485.298C127.998 499.998 139.898 511.998 154.698 511.998H485.298C495.798 511.998 504.798 505.998 509.198 497.198L324.898 351.998H261.298ZM511.998 159.998C533.215 159.998 553.563 151.569 568.566 136.567C583.569 121.564 591.998 101.215 591.998 79.9977C591.998 58.7804 583.569 38.4322 568.566 23.4293C553.563 8.42635 533.215 -0.00221091 511.998 -0.00221091C490.78 -0.00221091 470.432 8.42635 455.429 23.4293C440.426 38.4322 431.998 58.7804 431.998 79.9977C431.998 101.215 440.426 121.564 455.429 136.567C470.432 151.569 490.78 159.998 511.998 159.998Z" fill="black"/>
</g>
</g>
</g>
</g>
</g>
</g>
</g>
</g>
</g>
</g>
</g>
</g>
</g>
</g>
</g>
<defs>
<clipPath id="clip0_3932_53930">
<rect width="640" height="512" fill="white"/>
</clipPath>
</defs>
</svg>
