<svg width="640" height="512" viewBox="0 0 640 512" fill="none" xmlns="http://www.w3.org/2000/svg">
<path d="M224 0C257.948 0 290.505 13.4857 314.51 37.4903C338.514 61.495 352 94.0523 352 128C352 161.948 338.514 194.505 314.51 218.51C290.505 242.514 257.948 256 224 256C190.052 256 157.495 242.514 133.49 218.51C109.486 194.505 96 161.948 96 128C96 94.0523 109.486 61.495 133.49 37.4903C157.495 13.4857 190.052 0 224 0ZM178.3 304H269.7C281.5 304 293.1 305.2 304.2 307.3C302.1 325.8 311.6 342.9 326 352.1C309.4 362.7 299.3 383.7 306 405.4C310 418.3 315.4 430.9 322.4 443C329.4 455.1 337.6 466.1 346.8 476C362.5 492.9 386.4 494.4 404 484.7V485.6C404 494.8 406.7 504.1 411.9 511.9H29.7C13.3 512 0 498.7 0 482.3C0 383.8 79.8 304 178.3 304ZM436 218.2C436 211.2 440.5 204.9 447.3 203.4C457.8 201 468.8 199.7 480 199.7C491.2 199.7 502.2 201 512.7 203.4C519.5 204.9 524 211.2 524 218.2V235.9C524 243.7 528.8 250.7 535.6 254.6C542.4 258.5 550.7 259.1 557.4 255.2L571.2 247.3C577.3 243.8 584.9 244.6 589.7 249.7C597.3 257.8 604 266.9 609.8 276.9C615.6 286.9 620.1 297.3 623.3 307.9C625.4 314.6 622.2 321.6 616.1 325.1L601.7 333.4C595.2 337.1 591.7 344.3 591.7 351.8C591.7 359.3 595.2 366.5 601.7 370.2L616.1 378.5C622.2 382 625.3 389 623.3 395.7C620 406.3 615.5 416.7 609.8 426.7C604.1 436.7 597.3 445.8 589.7 453.9C584.9 459 577.2 459.8 571.2 456.3L557.4 448.4C550.7 444.5 542.3 445.1 535.6 449C528.8 452.9 524 459.9 524 467.7V485.4C524 492.4 519.5 498.7 512.7 500.2C502.2 502.6 491.2 503.9 480 503.9C468.8 503.9 457.8 502.6 447.3 500.2C440.5 498.7 436 492.4 436 485.4V467.8C436 459.9 431.1 452.9 424.3 448.9C417.5 445 409.1 444.4 402.3 448.3L388.8 456.1C382.7 459.6 375.1 458.8 370.3 453.7C362.7 445.6 356 436.5 350.2 426.5C344.4 416.5 339.9 406.1 336.7 395.5C334.6 388.8 337.8 381.8 343.9 378.3L357.9 370.2C364.4 366.4 368 359.1 368 351.6C368 344.1 364.5 336.8 357.9 333L343.9 324.9C337.8 321.4 334.7 314.4 336.7 307.7C340 297.1 344.4 286.7 350.2 276.7C356 266.7 362.7 257.6 370.3 249.5C375.1 244.4 382.7 243.6 388.8 247.1L402.4 254.9C409.2 258.8 417.6 258.2 424.4 254.3C431.3 250.4 436.1 243.3 436.1 235.4V218.2H436ZM528.1 351.7C528.396 345.206 527.373 338.718 525.092 332.631C522.811 326.543 519.319 320.98 514.828 316.28C510.337 311.579 504.94 307.838 498.962 305.282C492.985 302.725 486.551 301.407 480.05 301.407C473.549 301.407 467.115 302.725 461.138 305.282C455.16 307.838 449.763 311.579 445.272 316.28C440.781 320.98 437.289 326.543 435.008 332.631C432.727 338.718 431.704 345.206 432 351.7C431.704 358.194 432.727 364.682 435.008 370.769C437.289 376.857 440.781 382.42 445.272 387.12C449.763 391.821 455.16 395.562 461.138 398.118C467.115 400.675 473.549 401.993 480.05 401.993C486.551 401.993 492.985 400.675 498.962 398.118C504.94 395.562 510.337 391.821 514.828 387.12C519.319 382.42 522.811 376.857 525.092 370.769C527.373 364.682 528.396 358.194 528.1 351.7Z" fill="black"/>
</svg>
