<svg width="640" height="512" viewBox="0 0 640 512" fill="none" xmlns="http://www.w3.org/2000/svg">
<g clip-path="url(#clip0_3932_53638)">
<mask id="mask0_3932_53638" style="mask-type:luminance" maskUnits="userSpaceOnUse" x="0" y="0" width="640" height="512">
<path d="M640 0H0V512H640V0Z" fill="white"/>
</mask>
<g mask="url(#mask0_3932_53638)">
<mask id="mask1_3932_53638" style="mask-type:luminance" maskUnits="userSpaceOnUse" x="0" y="0" width="640" height="512">
<path d="M640 0H0V512H640V0Z" fill="white"/>
</mask>
<g mask="url(#mask1_3932_53638)">
<mask id="mask2_3932_53638" style="mask-type:luminance" maskUnits="userSpaceOnUse" x="0" y="0" width="640" height="512">
<path d="M640 0H0V512H640V0Z" fill="white"/>
</mask>
<g mask="url(#mask2_3932_53638)">
<mask id="mask3_3932_53638" style="mask-type:luminance" maskUnits="userSpaceOnUse" x="0" y="0" width="640" height="512">
<path d="M640 0H0V512H640V0Z" fill="white"/>
</mask>
<g mask="url(#mask3_3932_53638)">
<mask id="mask4_3932_53638" style="mask-type:luminance" maskUnits="userSpaceOnUse" x="0" y="0" width="640" height="512">
<path d="M640 0H0V512H640V0Z" fill="white"/>
</mask>
<g mask="url(#mask4_3932_53638)">
<mask id="mask5_3932_53638" style="mask-type:luminance" maskUnits="userSpaceOnUse" x="0" y="0" width="640" height="512">
<path d="M640 0H0V512H640V0Z" fill="white"/>
</mask>
<g mask="url(#mask5_3932_53638)">
<mask id="mask6_3932_53638" style="mask-type:luminance" maskUnits="userSpaceOnUse" x="0" y="0" width="640" height="512">
<path d="M640 0H0V512H640V0Z" fill="white"/>
</mask>
<g mask="url(#mask6_3932_53638)">
<mask id="mask7_3932_53638" style="mask-type:luminance" maskUnits="userSpaceOnUse" x="0" y="0" width="640" height="512">
<path d="M640 0H0V512H640V0Z" fill="white"/>
</mask>
<g mask="url(#mask7_3932_53638)">
<mask id="mask8_3932_53638" style="mask-type:luminance" maskUnits="userSpaceOnUse" x="0" y="0" width="640" height="512">
<path d="M640 0H0V512H640V0Z" fill="white"/>
</mask>
<g mask="url(#mask8_3932_53638)">
<mask id="mask9_3932_53638" style="mask-type:luminance" maskUnits="userSpaceOnUse" x="0" y="0" width="640" height="512">
<path d="M640 0H0V512H640V0Z" fill="white"/>
</mask>
<g mask="url(#mask9_3932_53638)">
<mask id="mask10_3932_53638" style="mask-type:luminance" maskUnits="userSpaceOnUse" x="0" y="0" width="640" height="512">
<path d="M640 0H0V512H640V0Z" fill="white"/>
</mask>
<g mask="url(#mask10_3932_53638)">
<mask id="mask11_3932_53638" style="mask-type:luminance" maskUnits="userSpaceOnUse" x="0" y="0" width="640" height="512">
<path d="M640 0H0V512H640V0Z" fill="white"/>
</mask>
<g mask="url(#mask11_3932_53638)">
<mask id="mask12_3932_53638" style="mask-type:luminance" maskUnits="userSpaceOnUse" x="0" y="0" width="640" height="512">
<path d="M640 0H0V512H640V0Z" fill="white"/>
</mask>
<g mask="url(#mask12_3932_53638)">
<mask id="mask13_3932_53638" style="mask-type:luminance" maskUnits="userSpaceOnUse" x="0" y="0" width="640" height="512">
<path d="M640 0H0V512H640V0Z" fill="white"/>
</mask>
<g mask="url(#mask13_3932_53638)">
<path d="M144 160C165.217 160 185.566 151.571 200.569 136.569C215.571 121.566 224 101.217 224 80C224 58.7827 215.571 38.4344 200.569 23.4315C185.566 8.42855 165.217 0 144 0C122.783 0 102.434 8.42855 87.4315 23.4315C72.4285 38.4344 64 58.7827 64 80C64 101.217 72.4285 121.566 87.4315 136.569C102.434 151.571 122.783 160 144 160ZM512 160C533.217 160 553.566 151.571 568.569 136.569C583.571 121.566 592 101.217 592 80C592 58.7827 583.571 38.4344 568.569 23.4315C553.566 8.42855 533.217 0 512 0C490.783 0 470.434 8.42855 455.431 23.4315C440.429 38.4344 432 58.7827 432 80C432 101.217 440.429 121.566 455.431 136.569C470.434 151.571 490.783 160 512 160ZM0 298.7C0 310.4 9.6 320 21.3 320H234.7C234.9 320 235.1 320 235.4 320C208.8 296.5 192.1 262.2 192.1 224C192.1 216.4 192.8 209 194 201.7C180.4 195.4 165.3 192 149.4 192H106.7C47.8 192 0 239.8 0 298.7ZM320 320C344 320 365.9 311.2 382.7 296.7C385.2 293 387.9 289.4 390.7 286C393.4 282.7 396.4 279.9 399.7 277.7C410 262.3 416 243.9 416 224C416 171 373 128 320 128C267 128 224 171 224 224C224 277 267 320 320 320ZM385.4 380.2C375.1 374.3 367.3 364 364.6 352H261.3C187.7 352 128 411.7 128 485.3C128 500 139.9 512 154.7 512H455.2C453.1 506.8 452 501.1 452 495.6V492.6C450.7 491.9 449.3 491.1 448 490.3L445.4 491.8C428.6 501.5 404.9 499.8 390.7 482.1C386.2 476.5 382.1 470.6 378.3 464.5L378.2 464.3L378.1 464.1L375.7 460L375.6 459.8L375.5 459.6C372.1 453.4 369.1 447 366.5 440.3C358.3 419.1 368.7 397.7 385.5 388L388.2 386.5C388.2 385.7 388.2 385 388.2 384.2C388.2 383.4 388.2 382.7 388.2 381.9L385.5 380.4L385.4 380.2ZM533.3 192H490.7C474.8 192 459.7 195.5 446.1 201.7C447.4 208.9 448 216.4 448 224C448 241.4 444.5 257.9 438.3 273C440.8 273.9 443.2 275 445.4 276.3L448 277.8C449.3 277 450.6 276.2 452 275.5V272.5C452 253.1 465.3 233.4 487.8 229.9C495.7 228.7 503.8 228 512 228C520.2 228 528.3 228.6 536.2 229.9C558.7 233.4 572 253.1 572 272.5V275.5C573.3 276.2 574.7 277 576 277.8L578.6 276.3C595.4 266.6 619.1 268.3 633.3 286C635.6 288.8 637.8 291.8 639.9 294.7C637.8 237.6 590.9 192 533.3 192ZM624.6 355.9C630.9 352.3 634.1 344.8 631.4 337.9C629.3 332.4 626.8 327.1 624 322L621.7 318C618.6 312.9 615.2 308.1 611.5 303.5C606.9 297.8 598.8 296.8 592.5 300.5L589.6 302.2C580.4 307.5 569.2 306.2 560 300.9C550.8 295.6 543.9 286.4 543.9 275.8V272.4C543.9 265.1 539 258.6 531.8 257.5C525.3 256.5 518.7 256 511.9 256C505.1 256 498.5 256.5 492 257.5C484.8 258.6 479.9 265.1 479.9 272.4V275.8C479.9 286.4 473 295.6 463.8 300.9C454.6 306.2 443.4 307.5 434.2 302.2L431.3 300.5C425 296.9 416.9 297.9 412.3 303.5C408.6 308.1 405.2 313 402.1 318.1L399.8 322C397 327.1 394.5 332.4 392.4 337.9C389.8 344.7 392.9 352.2 399.2 355.8L402.1 357.5C411.3 362.8 415.8 373.3 415.8 383.9C415.8 394.5 411.3 405 402.1 410.3L399.1 412C392.8 415.6 389.6 423.1 392.3 429.9C394.4 435.4 396.9 440.6 399.7 445.7L402.1 449.8C405.1 454.9 408.5 459.7 412.2 464.3C416.8 470 424.9 471 431.2 467.3L434.1 465.6C443.3 460.3 454.5 461.6 463.7 466.9C472.9 472.2 479.8 481.4 479.8 492V495.4C479.8 502.7 484.7 509.2 491.9 510.3C498.4 511.3 505 511.8 511.8 511.8C518.6 511.8 525.2 511.3 531.7 510.3C538.9 509.2 543.8 502.7 543.8 495.4V492C543.8 481.4 550.7 472.2 559.9 466.9C569.1 461.6 580.3 460.3 589.5 465.6L592.4 467.3C598.7 470.9 606.8 469.9 611.4 464.3C615.1 459.7 618.5 454.9 621.5 449.8L623.9 445.6C626.7 440.5 629.2 435.3 631.3 429.8C633.9 423 630.8 415.5 624.5 411.9L621.5 410.2C612.3 404.9 607.8 394.4 607.8 383.8C607.8 373.2 612.3 362.7 621.5 357.4L624.5 355.7L624.6 355.9ZM472 384C472 373.391 476.214 363.217 483.716 355.716C491.217 348.214 501.391 344 512 344C522.609 344 532.783 348.214 540.284 355.716C547.786 363.217 552 373.391 552 384C552 394.609 547.786 404.783 540.284 412.284C532.783 419.786 522.609 424 512 424C501.391 424 491.217 419.786 483.716 412.284C476.214 404.783 472 394.609 472 384Z" fill="black"/>
</g>
</g>
</g>
</g>
</g>
</g>
</g>
</g>
</g>
</g>
</g>
</g>
</g>
</g>
</g>
<defs>
<clipPath id="clip0_3932_53638">
<rect width="640" height="512" fill="white"/>
</clipPath>
</defs>
</svg>
