<svg width="640" height="512" viewBox="0 0 640 512" fill="none" xmlns="http://www.w3.org/2000/svg">
<path d="M96 128C96 94.0523 109.486 61.495 133.49 37.4903C157.495 13.4857 190.052 0 224 0C257.948 0 290.505 13.4857 314.51 37.4903C338.514 61.495 352 94.0523 352 128C352 161.948 338.514 194.505 314.51 218.51C290.505 242.514 257.948 256 224 256C190.052 256 157.495 242.514 133.49 218.51C109.486 194.505 96 161.948 96 128ZM0 482.3C0 383.8 79.8 304 178.3 304H269.7C368.2 304 448 383.8 448 482.3C448 498.7 434.7 512 418.3 512H29.7C13.3 512 0 498.7 0 482.3ZM625 177L497 305C487.6 314.4 472.4 314.4 463.1 305L399.1 241C389.7 231.6 389.7 216.4 399.1 207.1C408.5 197.8 423.7 197.7 433 207.1L480 254.1L591 143C600.4 133.6 615.6 133.6 624.9 143C634.2 152.4 634.3 167.6 624.9 176.9L625 177Z" fill="black"/>
</svg>
