<svg width="640" height="512" viewBox="0 0 640 512" fill="none" xmlns="http://www.w3.org/2000/svg">
<g clip-path="url(#clip0_3932_54106)">
<mask id="mask0_3932_54106" style="mask-type:luminance" maskUnits="userSpaceOnUse" x="0" y="0" width="640" height="512">
<path d="M640 0H0V512H640V0Z" fill="white"/>
</mask>
<g mask="url(#mask0_3932_54106)">
<mask id="mask1_3932_54106" style="mask-type:luminance" maskUnits="userSpaceOnUse" x="0" y="0" width="640" height="512">
<path d="M640 0H0V512H640V0Z" fill="white"/>
</mask>
<g mask="url(#mask1_3932_54106)">
<mask id="mask2_3932_54106" style="mask-type:luminance" maskUnits="userSpaceOnUse" x="0" y="0" width="640" height="512">
<path d="M640 0H0V512H640V0Z" fill="white"/>
</mask>
<g mask="url(#mask2_3932_54106)">
<mask id="mask3_3932_54106" style="mask-type:luminance" maskUnits="userSpaceOnUse" x="0" y="0" width="640" height="512">
<path d="M640 0H0V512H640V0Z" fill="white"/>
</mask>
<g mask="url(#mask3_3932_54106)">
<mask id="mask4_3932_54106" style="mask-type:luminance" maskUnits="userSpaceOnUse" x="0" y="0" width="640" height="512">
<path d="M640 0H0V512H640V0Z" fill="white"/>
</mask>
<g mask="url(#mask4_3932_54106)">
<mask id="mask5_3932_54106" style="mask-type:luminance" maskUnits="userSpaceOnUse" x="0" y="0" width="640" height="512">
<path d="M640 0H0V512H640V0Z" fill="white"/>
</mask>
<g mask="url(#mask5_3932_54106)">
<mask id="mask6_3932_54106" style="mask-type:luminance" maskUnits="userSpaceOnUse" x="0" y="0" width="640" height="512">
<path d="M640 0H0V512H640V0Z" fill="white"/>
</mask>
<g mask="url(#mask6_3932_54106)">
<mask id="mask7_3932_54106" style="mask-type:luminance" maskUnits="userSpaceOnUse" x="0" y="0" width="640" height="512">
<path d="M640 0H0V512H640V0Z" fill="white"/>
</mask>
<g mask="url(#mask7_3932_54106)">
<mask id="mask8_3932_54106" style="mask-type:luminance" maskUnits="userSpaceOnUse" x="0" y="0" width="640" height="512">
<path d="M640 0H0V512H640V0Z" fill="white"/>
</mask>
<g mask="url(#mask8_3932_54106)">
<mask id="mask9_3932_54106" style="mask-type:luminance" maskUnits="userSpaceOnUse" x="0" y="0" width="640" height="512">
<path d="M640 0H0V512H640V0Z" fill="white"/>
</mask>
<g mask="url(#mask9_3932_54106)">
<mask id="mask10_3932_54106" style="mask-type:luminance" maskUnits="userSpaceOnUse" x="0" y="0" width="640" height="512">
<path d="M640 0H0V512H640V0Z" fill="white"/>
</mask>
<g mask="url(#mask10_3932_54106)">
<mask id="mask11_3932_54106" style="mask-type:luminance" maskUnits="userSpaceOnUse" x="0" y="0" width="640" height="512">
<path d="M640 0H0V512H640V0Z" fill="white"/>
</mask>
<g mask="url(#mask11_3932_54106)">
<mask id="mask12_3932_54106" style="mask-type:luminance" maskUnits="userSpaceOnUse" x="0" y="0" width="640" height="512">
<path d="M640 0H0V512H640V0Z" fill="white"/>
</mask>
<g mask="url(#mask12_3932_54106)">
<mask id="mask13_3932_54106" style="mask-type:luminance" maskUnits="userSpaceOnUse" x="0" y="0" width="640" height="512">
<path d="M640 0H0V512H640V0Z" fill="white"/>
</mask>
<g mask="url(#mask13_3932_54106)">
<path d="M96 128C96 94.0523 109.486 61.495 133.49 37.4903C157.495 13.4857 190.052 0 224 0C257.948 0 290.505 13.4857 314.51 37.4903C338.514 61.495 352 94.0523 352 128C352 161.948 338.514 194.505 314.51 218.51C290.505 242.514 257.948 256 224 256C190.052 256 157.495 242.514 133.49 218.51C109.486 194.505 96 161.948 96 128ZM0 482.3C0 383.8 79.8 304 178.3 304H269.7C368.2 304 448 383.8 448 482.3C448 498.7 434.7 512 418.3 512H29.7C13.3 512 0 498.7 0 482.3ZM471 143C480.4 133.6 495.6 133.6 504.9 143L551.9 190L598.9 143C608.3 133.6 623.5 133.6 632.8 143C642.1 152.4 642.2 167.6 632.8 176.9L585.8 223.9L632.8 270.9C642.2 280.3 642.2 295.5 632.8 304.8C623.4 314.1 608.2 314.2 598.9 304.8L551.9 257.8L504.9 304.8C495.5 314.2 480.3 314.2 471 304.8C461.7 295.4 461.6 280.2 471 270.9L518 223.9L471 176.9C461.6 167.5 461.6 152.3 471 143Z" fill="black"/>
</g>
</g>
</g>
</g>
</g>
</g>
</g>
</g>
</g>
</g>
</g>
</g>
</g>
</g>
</g>
<defs>
<clipPath id="clip0_3932_54106">
<rect width="640" height="512" fill="white"/>
</clipPath>
</defs>
</svg>
