<svg width="640" height="512" viewBox="0 0 640 512" fill="none" xmlns="http://www.w3.org/2000/svg">
<g clip-path="url(#clip0_3932_53988)">
<mask id="mask0_3932_53988" style="mask-type:luminance" maskUnits="userSpaceOnUse" x="0" y="0" width="640" height="512">
<path d="M640 0H0V512H640V0Z" fill="white"/>
</mask>
<g mask="url(#mask0_3932_53988)">
<mask id="mask1_3932_53988" style="mask-type:luminance" maskUnits="userSpaceOnUse" x="0" y="0" width="640" height="512">
<path d="M640 0H0V512H640V0Z" fill="white"/>
</mask>
<g mask="url(#mask1_3932_53988)">
<mask id="mask2_3932_53988" style="mask-type:luminance" maskUnits="userSpaceOnUse" x="0" y="0" width="640" height="512">
<path d="M640 0H0V512H640V0Z" fill="white"/>
</mask>
<g mask="url(#mask2_3932_53988)">
<mask id="mask3_3932_53988" style="mask-type:luminance" maskUnits="userSpaceOnUse" x="0" y="0" width="640" height="512">
<path d="M640 0H0V512H640V0Z" fill="white"/>
</mask>
<g mask="url(#mask3_3932_53988)">
<mask id="mask4_3932_53988" style="mask-type:luminance" maskUnits="userSpaceOnUse" x="0" y="0" width="640" height="512">
<path d="M640 0H0V512H640V0Z" fill="white"/>
</mask>
<g mask="url(#mask4_3932_53988)">
<mask id="mask5_3932_53988" style="mask-type:luminance" maskUnits="userSpaceOnUse" x="0" y="0" width="640" height="512">
<path d="M640 0H0V512H640V0Z" fill="white"/>
</mask>
<g mask="url(#mask5_3932_53988)">
<mask id="mask6_3932_53988" style="mask-type:luminance" maskUnits="userSpaceOnUse" x="0" y="0" width="640" height="512">
<path d="M640 0H0V512H640V0Z" fill="white"/>
</mask>
<g mask="url(#mask6_3932_53988)">
<mask id="mask7_3932_53988" style="mask-type:luminance" maskUnits="userSpaceOnUse" x="0" y="0" width="640" height="512">
<path d="M640 0H0V512H640V0Z" fill="white"/>
</mask>
<g mask="url(#mask7_3932_53988)">
<mask id="mask8_3932_53988" style="mask-type:luminance" maskUnits="userSpaceOnUse" x="0" y="0" width="640" height="512">
<path d="M640 0H0V512H640V0Z" fill="white"/>
</mask>
<g mask="url(#mask8_3932_53988)">
<mask id="mask9_3932_53988" style="mask-type:luminance" maskUnits="userSpaceOnUse" x="0" y="0" width="640" height="512">
<path d="M640 0H0V512H640V0Z" fill="white"/>
</mask>
<g mask="url(#mask9_3932_53988)">
<mask id="mask10_3932_53988" style="mask-type:luminance" maskUnits="userSpaceOnUse" x="0" y="0" width="640" height="512">
<path d="M640 0H0V512H640V0Z" fill="white"/>
</mask>
<g mask="url(#mask10_3932_53988)">
<mask id="mask11_3932_53988" style="mask-type:luminance" maskUnits="userSpaceOnUse" x="0" y="0" width="640" height="512">
<path d="M640 0H0V512H640V0Z" fill="white"/>
</mask>
<g mask="url(#mask11_3932_53988)">
<mask id="mask12_3932_53988" style="mask-type:luminance" maskUnits="userSpaceOnUse" x="0" y="0" width="640" height="512">
<path d="M640 0H0V512H640V0Z" fill="white"/>
</mask>
<g mask="url(#mask12_3932_53988)">
<mask id="mask13_3932_53988" style="mask-type:luminance" maskUnits="userSpaceOnUse" x="0" y="0" width="640" height="512">
<path d="M640 0H0V512H640V0Z" fill="white"/>
</mask>
<g mask="url(#mask13_3932_53988)">
<path d="M48 48H136C149.3 48 160 37.3 160 24C160 10.7 149.3 0 136 0H32C14.3 0 0 14.3 0 32V136C0 149.3 10.7 160 24 160C37.3 160 48 149.3 48 136V48ZM175.8 224C182.103 224 188.345 222.758 194.169 220.346C199.992 217.934 205.284 214.398 209.741 209.941C214.198 205.484 217.734 200.192 220.146 194.369C222.558 188.545 223.8 182.303 223.8 176C223.8 169.697 222.558 163.455 220.146 157.631C217.734 151.808 214.198 146.516 209.741 142.059C205.284 137.602 199.992 134.066 194.169 131.654C188.345 129.242 182.103 128 175.8 128C169.497 128 163.255 129.242 157.431 131.654C151.608 134.066 146.316 137.602 141.859 142.059C137.402 146.516 133.866 151.808 131.454 157.631C129.042 163.455 127.8 169.697 127.8 176C127.8 182.303 129.042 188.545 131.454 194.369C133.866 200.192 137.402 205.484 141.859 209.941C146.316 214.398 151.608 217.934 157.431 220.346C163.255 222.758 169.497 224 175.8 224ZM149.3 256C119.9 256 96 279.9 96 309.3C96 324 107.9 336 122.7 336H178.8C186.8 301.9 211.6 274.3 244 262.4C236.5 258.3 227.8 256 218.7 256H149.3ZM517.3 336C532 336 544 324.1 544 309.3C544 279.8 520.1 256 490.7 256H421.3C412.1 256 403.5 258.3 396 262.4C428.4 274.3 453.2 301.9 461.2 336H517.3ZM427.9 336C419.3 311.7 398 293.4 372 289C368.1 288.3 364.1 288 360 288H280C275.9 288 271.9 288.3 268 289C242 293.4 220.7 311.7 212.1 336C209.4 343.5 208 351.6 208 360C208 373.3 218.7 384 232 384H408C421.3 384 432 373.3 432 360C432 351.6 430.6 343.5 427.9 336ZM464 224C470.303 224 476.545 222.758 482.369 220.346C488.192 217.934 493.484 214.398 497.941 209.941C502.398 205.484 505.934 200.192 508.346 194.369C510.758 188.545 512 182.303 512 176C512 169.697 510.758 163.455 508.346 157.631C505.934 151.808 502.398 146.516 497.941 142.059C493.484 137.602 488.192 134.066 482.369 131.654C476.545 129.242 470.303 128 464 128C457.697 128 451.455 129.242 445.631 131.654C439.808 134.066 434.516 137.602 430.059 142.059C425.602 146.516 422.066 151.808 419.654 157.631C417.242 163.455 416 169.697 416 176C416 182.303 417.242 188.545 419.654 194.369C422.066 200.192 425.602 205.484 430.059 209.941C434.516 214.398 439.808 217.934 445.631 220.346C451.455 222.758 457.697 224 464 224ZM384 192C384 175.026 377.257 158.747 365.255 146.745C353.253 134.743 336.974 128 320 128C303.026 128 286.747 134.743 274.745 146.745C262.743 158.747 256 175.026 256 192C256 208.974 262.743 225.253 274.745 237.255C286.747 249.257 303.026 256 320 256C336.974 256 353.253 249.257 365.255 237.255C377.257 225.253 384 208.974 384 192ZM504 48H592V136C592 149.3 602.7 160 616 160C629.3 160 640 149.3 640 136V32C640 14.3 625.7 0 608 0H504C490.7 0 480 10.7 480 24C480 37.3 490.7 48 504 48ZM48 464V376C48 362.7 37.3 352 24 352C10.7 352 0 362.7 0 376V480C0 497.7 14.3 512 32 512H136C149.3 512 160 501.3 160 488C160 474.7 149.3 464 136 464H48ZM504 464C490.7 464 480 474.7 480 488C480 501.3 490.7 512 504 512H608C625.7 512 640 497.7 640 480V376C640 362.7 629.3 352 616 352C602.7 352 592 362.7 592 376V464H504Z" fill="black"/>
</g>
</g>
</g>
</g>
</g>
</g>
</g>
</g>
</g>
</g>
</g>
</g>
</g>
</g>
</g>
<defs>
<clipPath id="clip0_3932_53988">
<rect width="640" height="512" fill="white"/>
</clipPath>
</defs>
</svg>
