<svg width="640" height="512" viewBox="0 0 640 512" fill="none" xmlns="http://www.w3.org/2000/svg">
<path d="M64 104V192H160V96H72C67.6 96 64 99.6 64 104ZM546 192L465.1 96H384V192H546ZM320 192V96H224V192H320ZM592 384H576C576 437 533 480 480 480C427 480 384 437 384 384H256C256 437 213 480 160 480C107 480 64 437 64 384H48C21.5 384 0 362.5 0 336V104C0 64.2 32.2 32 72 32H192H352H465.1C484 32 501.9 40.3 514.1 54.8L625 186.5C634.7 198 640 212.6 640 227.7V336C640 362.5 618.5 384 592 384ZM528 384C528 371.27 522.943 359.061 513.941 350.059C504.939 341.057 492.73 336 480 336C467.27 336 455.061 341.057 446.059 350.059C437.057 359.061 432 371.27 432 384C432 396.73 437.057 408.939 446.059 417.941C455.061 426.943 467.27 432 480 432C492.73 432 504.939 426.943 513.941 417.941C522.943 408.939 528 396.73 528 384ZM160 432C172.73 432 184.939 426.943 193.941 417.941C202.943 408.939 208 396.73 208 384C208 371.27 202.943 359.061 193.941 350.059C184.939 341.057 172.73 336 160 336C147.27 336 135.061 341.057 126.059 350.059C117.057 359.061 112 371.27 112 384C112 396.73 117.057 408.939 126.059 417.941C135.061 426.943 147.27 432 160 432Z" fill="black"/>
</svg>
