<svg width="448" height="512" viewBox="0 0 448 512" fill="none" xmlns="http://www.w3.org/2000/svg">
<path d="M368 80H400V112H368V80ZM352 32C334.3 32 320 46.3 320 64H128C128 46.3 113.7 32 96 32H32C14.3 32 0 46.3 0 64V128C0 145.7 14.3 160 32 160V352C14.3 352 0 366.3 0 384V448C0 465.7 14.3 480 32 480H96C113.7 480 128 465.7 128 448H320C320 465.7 334.3 480 352 480H416C433.7 480 448 465.7 448 448V384C448 366.3 433.7 352 416 352V160C433.7 160 448 145.7 448 128V64C448 46.3 433.7 32 416 32H352ZM96 160C113.7 160 128 145.7 128 128H320C320 145.7 334.3 160 352 160V352C334.3 352 320 366.3 320 384H128C128 366.3 113.7 352 96 352V160ZM48 400H80V432H48V400ZM368 432V400H400V432H368ZM48 112V80H80V112H48Z" fill="black"/>
</svg>
