<svg width="640" height="512" viewBox="0 0 640 512" fill="none" xmlns="http://www.w3.org/2000/svg">
<path d="M192 288C206.708 288 221.272 285.103 234.861 279.475C248.449 273.846 260.796 265.596 271.196 255.196C281.596 244.796 289.846 232.449 295.475 218.861C301.103 205.272 304 190.708 304 176C304 161.292 301.103 146.728 295.475 133.139C289.846 119.551 281.596 107.204 271.196 96.804C260.796 86.4039 248.449 78.154 234.861 72.5255C221.272 66.897 206.708 64 192 64C177.292 64 162.728 66.897 149.139 72.5255C135.551 78.154 123.204 86.4039 112.804 96.804C102.404 107.204 94.154 119.551 88.5255 133.139C82.897 146.728 80 161.292 80 176C80 190.708 82.897 205.272 88.5255 218.861C94.154 232.449 102.404 244.796 112.804 255.196C123.204 265.596 135.551 273.846 149.139 279.475C162.728 285.103 177.292 288 192 288ZM368 176C368 262.3 305.9 334.1 224 349.1V384H256C273.7 384 288 398.3 288 416C288 433.7 273.7 448 256 448H224V480C224 497.7 209.7 512 192 512C174.3 512 160 497.7 160 480V448H128C110.3 448 96 433.7 96 416C96 398.3 110.3 384 128 384H160V349.1C78.1 334.1 16 262.3 16 176C16 78.8 94.8 0 192 0C289.2 0 368 78.8 368 176ZM344 318C358.6 302.4 370.8 284.6 380 265C398.8 279.4 422.4 288 448 288C509.9 288 560 237.9 560 176C560 114.1 509.9 64 448 64C422.4 64 398.9 72.6 380 87C370.7 67.5 358.5 49.6 344 34C373.1 12.6 409.1 0 448 0C545.2 0 624 78.8 624 176C624 262.3 561.9 334.1 480 349.1V384H512C529.7 384 544 398.3 544 416C544 433.7 529.7 448 512 448H480V480C480 497.7 465.7 512 448 512C430.3 512 416 497.7 416 480V448H384C366.3 448 352 433.7 352 416C352 398.3 366.3 384 384 384H416V349.1C389.4 344.2 364.9 333.4 344 318Z" fill="black"/>
</svg>
