<svg width="448" height="512" viewBox="0 0 448 512" fill="none" xmlns="http://www.w3.org/2000/svg">
<g clip-path="url(#clip0_3932_54464)">
<mask id="mask0_3932_54464" style="mask-type:luminance" maskUnits="userSpaceOnUse" x="0" y="0" width="448" height="512">
<path d="M448 0H0V512H448V0Z" fill="white"/>
</mask>
<g mask="url(#mask0_3932_54464)">
<mask id="mask1_3932_54464" style="mask-type:luminance" maskUnits="userSpaceOnUse" x="0" y="0" width="448" height="512">
<path d="M448 0H0V512H448V0Z" fill="white"/>
</mask>
<g mask="url(#mask1_3932_54464)">
<mask id="mask2_3932_54464" style="mask-type:luminance" maskUnits="userSpaceOnUse" x="0" y="0" width="448" height="512">
<path d="M448 0H0V512H448V0Z" fill="white"/>
</mask>
<g mask="url(#mask2_3932_54464)">
<mask id="mask3_3932_54464" style="mask-type:luminance" maskUnits="userSpaceOnUse" x="0" y="0" width="448" height="512">
<path d="M448 0H0V512H448V0Z" fill="white"/>
</mask>
<g mask="url(#mask3_3932_54464)">
<mask id="mask4_3932_54464" style="mask-type:luminance" maskUnits="userSpaceOnUse" x="0" y="0" width="448" height="512">
<path d="M448 0H0V512H448V0Z" fill="white"/>
</mask>
<g mask="url(#mask4_3932_54464)">
<mask id="mask5_3932_54464" style="mask-type:luminance" maskUnits="userSpaceOnUse" x="0" y="0" width="448" height="512">
<path d="M448 0H0V512H448V0Z" fill="white"/>
</mask>
<g mask="url(#mask5_3932_54464)">
<mask id="mask6_3932_54464" style="mask-type:luminance" maskUnits="userSpaceOnUse" x="0" y="0" width="448" height="512">
<path d="M448 0H0V512H448V0Z" fill="white"/>
</mask>
<g mask="url(#mask6_3932_54464)">
<mask id="mask7_3932_54464" style="mask-type:luminance" maskUnits="userSpaceOnUse" x="0" y="0" width="448" height="512">
<path d="M448 0H0V512H448V0Z" fill="white"/>
</mask>
<g mask="url(#mask7_3932_54464)">
<mask id="mask8_3932_54464" style="mask-type:luminance" maskUnits="userSpaceOnUse" x="0" y="0" width="448" height="512">
<path d="M448 0H0V512H448V0Z" fill="white"/>
</mask>
<g mask="url(#mask8_3932_54464)">
<mask id="mask9_3932_54464" style="mask-type:luminance" maskUnits="userSpaceOnUse" x="0" y="0" width="448" height="512">
<path d="M448 0H0V512H448V0Z" fill="white"/>
</mask>
<g mask="url(#mask9_3932_54464)">
<mask id="mask10_3932_54464" style="mask-type:luminance" maskUnits="userSpaceOnUse" x="0" y="0" width="448" height="512">
<path d="M448 0H0V512H448V0Z" fill="white"/>
</mask>
<g mask="url(#mask10_3932_54464)">
<mask id="mask11_3932_54464" style="mask-type:luminance" maskUnits="userSpaceOnUse" x="0" y="0" width="448" height="512">
<path d="M448 0H0V512H448V0Z" fill="white"/>
</mask>
<g mask="url(#mask11_3932_54464)">
<mask id="mask12_3932_54464" style="mask-type:luminance" maskUnits="userSpaceOnUse" x="0" y="0" width="448" height="512">
<path d="M448 0H0V512H448V0Z" fill="white"/>
</mask>
<g mask="url(#mask12_3932_54464)">
<mask id="mask13_3932_54464" style="mask-type:luminance" maskUnits="userSpaceOnUse" x="0" y="0" width="448" height="512">
<path d="M448 0H0V512H448V0Z" fill="white"/>
</mask>
<g mask="url(#mask13_3932_54464)">
<path d="M151.2 69.7L207.1 237.4L196.1 270.5C193.4 278.7 192 287.2 192 295.8V464C192 478.5 195.9 492.2 202.7 503.9C195 509 185.9 512 176 512H48C21.5 512 0 490.5 0 464V270.5C0 261 2.8 251.8 8.1 243.9L56 172.1C61.3 164.2 64.1 155 64.1 145.5V128V54.3V48C64 21.5 85.5 0 112 0H116.5C116.7 0 116.9 0 117.1 0C117.5 0 117.9 0 118.3 0C137.1 0 152.4 9.7 162.4 18.8C171.6 27.2 190.8 40 224 40C257.2 40 276.4 27.2 285.7 18.8C295.7 9.7 311 0 329.7 0C330.1 0 330.5 0 330.9 0C331.1 0 331.3 0 331.5 0H336C362.5 0 384 21.5 384 48V54.3V128V145.5C384 155 386.8 164.2 392.1 172.1L440 243.9C445.3 251.8 448.1 261 448.1 270.5V464C448.1 490.5 426.6 512 400.1 512H272C245.5 512 224 490.5 224 464V295.8C224 290.6 224.8 285.5 226.5 280.6L296.8 69.7C279.4 79.7 255.4 88 224 88C192.6 88 168.6 79.7 151.2 69.7ZM96 456C106.609 456 116.783 451.786 124.284 444.284C131.786 436.783 136 426.609 136 416C136 405.391 131.786 395.217 124.284 387.716C116.783 380.214 106.609 376 96 376C85.3913 376 75.2172 380.214 67.7157 387.716C60.2143 395.217 56 405.391 56 416C56 426.609 60.2143 436.783 67.7157 444.284C75.2172 451.786 85.3913 456 96 456ZM63.5 255.5C58.8 260.2 58.8 267.8 63.5 272.5L79 288L63.5 303.5C58.8 308.2 58.8 315.8 63.5 320.5C68.2 325.2 75.8 325.2 80.5 320.5L96 305L111.5 320.5C116.2 325.2 123.8 325.2 128.5 320.5C133.2 315.8 133.2 308.2 128.5 303.5L113 288L128.5 272.5C133.2 267.8 133.2 260.2 128.5 255.5C123.8 250.8 116.2 250.8 111.5 255.5L96 271L80.5 255.5C75.8 250.8 68.2 250.8 63.5 255.5ZM304 280V288V320C304 328.8 311.2 336 320 336H352H360C373.3 336 384 325.3 384 312C384 298.7 373.3 288 360 288H352V280C352 266.7 341.3 256 328 256C314.7 256 304 266.7 304 280Z" fill="black"/>
</g>
</g>
</g>
</g>
</g>
</g>
</g>
</g>
</g>
</g>
</g>
</g>
</g>
</g>
</g>
<defs>
<clipPath id="clip0_3932_54464">
<rect width="448" height="512" fill="white"/>
</clipPath>
</defs>
</svg>
