<svg width="448" height="512" viewBox="0 0 448 512" fill="none" xmlns="http://www.w3.org/2000/svg">
<path d="M276.199 150.5V151.2C258.299 98.6 233.599 47.8 205.399 0C248.699 29.2 272.399 100 276.199 150.5ZM308.899 272.2C316.499 290.4 319.899 309.7 319.899 329.2C319.899 406.9 262.099 470.2 182.099 468.6L185.899 468.3C260.099 421.6 295.199 349.7 295.199 263.2C295.199 225.1 288.699 187.3 276.299 151.2C277.299 162.9 277.299 174.9 277.299 186.6C277.299 278.4 259.199 428.2 160.699 466.6C94.9993 455.2 49.3993 398 49.3993 329.2C49.3993 253.6 106.799 186.9 184.799 186.9C201.599 186.9 218.499 190 233.899 196.5C235.599 181.4 240.399 166.6 247.299 153.2C227.399 146 206.099 142.5 184.799 142.5C23.2993 142.5 -53.9007 338.4 54.8993 456.2C122.799 530.8 246.899 530.1 314.699 456.2C371.299 394.9 375.599 313.8 351.099 255.2C338.399 263.2 323.999 269.1 308.899 272.2ZM418.099 11.7C387.099 78.2 336.799 58.9 302.299 91.8C289.899 103.8 281.699 125.8 281.699 142.3C281.699 156.4 286.199 169.4 293.699 181.1C341.099 170.1 391.999 135.1 411.899 90.4C411.199 95.9 407.099 104.8 404.699 109.6C384.399 145.3 340.099 175.2 304.999 194.5C319.799 208.9 338.699 220.3 359.999 220.3C438.999 220.3 470.099 85.7 418.099 11.7Z" fill="black"/>
</svg>
