<svg width="512" height="512" viewBox="0 0 512 512" fill="none" xmlns="http://www.w3.org/2000/svg">
<path d="M0 64C0 46.3 14.3 32 32 32H88H136H192C209.7 32 224 46.3 224 64C224 81.7 209.7 96 192 96V400C192 444.2 156.2 480 112 480C67.8 480 32 444.2 32 400V96C14.3 96 0 81.7 0 64ZM136 96H88V256H136V96ZM288 64C288 46.3 302.3 32 320 32H376H424H480C497.7 32 512 46.3 512 64C512 81.7 497.7 96 480 96V400C480 444.2 444.2 480 400 480C355.8 480 320 444.2 320 400V96C302.3 96 288 81.7 288 64ZM424 96H376V256H424V96Z" fill="black"/>
</svg>
