<svg width="512" height="512" viewBox="0 0 512 512" fill="none" xmlns="http://www.w3.org/2000/svg">
<g clip-path="url(#clip0_3932_54590)">
<mask id="mask0_3932_54590" style="mask-type:luminance" maskUnits="userSpaceOnUse" x="0" y="0" width="512" height="512">
<path d="M512 0H0V512H512V0Z" fill="white"/>
</mask>
<g mask="url(#mask0_3932_54590)">
<mask id="mask1_3932_54590" style="mask-type:luminance" maskUnits="userSpaceOnUse" x="0" y="0" width="512" height="512">
<path d="M512 0H0V512H512V0Z" fill="white"/>
</mask>
<g mask="url(#mask1_3932_54590)">
<mask id="mask2_3932_54590" style="mask-type:luminance" maskUnits="userSpaceOnUse" x="0" y="0" width="512" height="512">
<path d="M512 0H0V512H512V0Z" fill="white"/>
</mask>
<g mask="url(#mask2_3932_54590)">
<mask id="mask3_3932_54590" style="mask-type:luminance" maskUnits="userSpaceOnUse" x="0" y="0" width="512" height="512">
<path d="M512 0H0V512H512V0Z" fill="white"/>
</mask>
<g mask="url(#mask3_3932_54590)">
<mask id="mask4_3932_54590" style="mask-type:luminance" maskUnits="userSpaceOnUse" x="0" y="0" width="512" height="512">
<path d="M512 0H0V512H512V0Z" fill="white"/>
</mask>
<g mask="url(#mask4_3932_54590)">
<mask id="mask5_3932_54590" style="mask-type:luminance" maskUnits="userSpaceOnUse" x="0" y="0" width="512" height="512">
<path d="M512 0H0V512H512V0Z" fill="white"/>
</mask>
<g mask="url(#mask5_3932_54590)">
<mask id="mask6_3932_54590" style="mask-type:luminance" maskUnits="userSpaceOnUse" x="0" y="0" width="512" height="512">
<path d="M512 0H0V512H512V0Z" fill="white"/>
</mask>
<g mask="url(#mask6_3932_54590)">
<mask id="mask7_3932_54590" style="mask-type:luminance" maskUnits="userSpaceOnUse" x="0" y="0" width="512" height="512">
<path d="M512 0H0V512H512V0Z" fill="white"/>
</mask>
<g mask="url(#mask7_3932_54590)">
<mask id="mask8_3932_54590" style="mask-type:luminance" maskUnits="userSpaceOnUse" x="0" y="0" width="512" height="512">
<path d="M512 0H0V512H512V0Z" fill="white"/>
</mask>
<g mask="url(#mask8_3932_54590)">
<mask id="mask9_3932_54590" style="mask-type:luminance" maskUnits="userSpaceOnUse" x="0" y="0" width="512" height="512">
<path d="M512 0H0V512H512V0Z" fill="white"/>
</mask>
<g mask="url(#mask9_3932_54590)">
<mask id="mask10_3932_54590" style="mask-type:luminance" maskUnits="userSpaceOnUse" x="0" y="0" width="512" height="512">
<path d="M512 0H0V512H512V0Z" fill="white"/>
</mask>
<g mask="url(#mask10_3932_54590)">
<mask id="mask11_3932_54590" style="mask-type:luminance" maskUnits="userSpaceOnUse" x="0" y="0" width="512" height="512">
<path d="M512 0H0V512H512V0Z" fill="white"/>
</mask>
<g mask="url(#mask11_3932_54590)">
<mask id="mask12_3932_54590" style="mask-type:luminance" maskUnits="userSpaceOnUse" x="0" y="0" width="512" height="512">
<path d="M512 0H0V512H512V0Z" fill="white"/>
</mask>
<g mask="url(#mask12_3932_54590)">
<mask id="mask13_3932_54590" style="mask-type:luminance" maskUnits="userSpaceOnUse" x="0" y="0" width="512" height="512">
<path d="M512 0H0V512H512V0Z" fill="white"/>
</mask>
<g mask="url(#mask13_3932_54590)">
<path d="M444.006 49.9014C431.306 38.2014 379.906 0.901353 265.306 0.401353C265.306 0.401353 130.206 -7.69865 64.4057 52.7014C27.8057 89.3014 14.9057 143.001 13.5057 209.501C12.1057 276.001 10.4057 400.601 130.506 434.401H130.606L130.506 486.001C130.506 486.001 129.706 506.901 143.506 511.101C160.106 516.301 169.906 500.401 185.806 483.301C194.506 473.901 206.506 460.101 215.606 449.601C297.806 456.501 360.906 440.701 368.106 438.401C384.706 433.001 478.606 421.001 493.806 296.401C509.606 167.801 486.206 86.6013 444.006 49.9014ZM457.906 287.001C445.006 391.001 368.906 397.601 354.906 402.101C348.906 404.001 293.406 417.801 223.706 413.301C223.706 413.301 171.706 476.001 155.506 492.301C150.206 497.601 144.406 497.101 144.506 486.601C144.506 479.701 144.906 400.901 144.906 400.901C144.806 400.901 144.806 400.901 144.906 400.901C43.1057 372.701 49.1057 266.601 50.2057 211.101C51.3057 155.601 61.8057 110.101 92.8057 79.5014C148.506 29.0014 263.206 36.5014 263.206 36.5014C360.106 36.9014 406.506 66.1013 417.306 75.9014C453.006 106.501 471.206 179.701 457.906 287.001ZM318.906 206.201C319.306 214.801 306.406 215.401 306.006 206.801C304.906 184.801 294.606 174.101 273.406 172.901C264.806 172.401 265.606 159.501 274.106 160.001C302.006 161.501 317.506 177.501 318.906 206.201ZM339.206 217.501C340.206 175.101 313.706 141.901 263.406 138.201C254.906 137.601 255.806 124.701 264.306 125.301C322.306 129.501 353.206 169.401 352.106 217.801C352.006 226.401 339.006 226.001 339.206 217.501ZM386.206 230.901C386.306 239.501 373.306 239.601 373.306 231.001C372.706 149.501 318.406 105.101 252.506 104.601C244.006 104.501 244.006 91.7014 252.506 91.7014C326.206 92.2014 385.506 143.101 386.206 230.901ZM374.906 329.001V329.201C364.106 348.201 343.906 369.201 323.106 362.501L322.906 362.201C301.806 356.301 252.106 330.701 220.706 305.701C204.506 292.901 189.706 277.801 178.306 263.301C168.006 250.401 157.606 235.101 147.506 216.701C126.206 178.201 121.506 161.001 121.506 161.001C114.806 140.201 135.706 120.001 154.806 109.201H155.006C164.206 104.401 173.006 106.001 178.906 113.101C178.906 113.101 191.306 127.901 196.606 135.201C201.606 142.001 208.306 152.901 211.806 159.001C217.906 169.901 214.106 181.001 208.106 185.601L196.106 195.201C190.006 200.101 190.806 209.201 190.806 209.201C190.806 209.201 208.606 276.501 275.106 293.501C275.106 293.501 284.206 294.301 289.106 288.201L298.706 276.201C303.306 270.201 314.406 266.401 325.306 272.501C340.006 280.801 358.706 293.701 371.106 305.401C378.106 311.101 379.706 319.801 374.906 329.001Z" fill="black"/>
</g>
</g>
</g>
</g>
</g>
</g>
</g>
</g>
</g>
</g>
</g>
</g>
</g>
</g>
</g>
<defs>
<clipPath id="clip0_3932_54590">
<rect width="512" height="512" fill="white"/>
</clipPath>
</defs>
</svg>
