<svg width="640" height="512" viewBox="0 0 640 512" fill="none" xmlns="http://www.w3.org/2000/svg">
<g clip-path="url(#clip0_3932_54766)">
<mask id="mask0_3932_54766" style="mask-type:luminance" maskUnits="userSpaceOnUse" x="0" y="0" width="640" height="512">
<path d="M640 0H0V512H640V0Z" fill="white"/>
</mask>
<g mask="url(#mask0_3932_54766)">
<mask id="mask1_3932_54766" style="mask-type:luminance" maskUnits="userSpaceOnUse" x="0" y="0" width="640" height="512">
<path d="M640 0H0V512H640V0Z" fill="white"/>
</mask>
<g mask="url(#mask1_3932_54766)">
<mask id="mask2_3932_54766" style="mask-type:luminance" maskUnits="userSpaceOnUse" x="0" y="0" width="640" height="512">
<path d="M640 0H0V512H640V0Z" fill="white"/>
</mask>
<g mask="url(#mask2_3932_54766)">
<mask id="mask3_3932_54766" style="mask-type:luminance" maskUnits="userSpaceOnUse" x="0" y="0" width="640" height="512">
<path d="M640 0H0V512H640V0Z" fill="white"/>
</mask>
<g mask="url(#mask3_3932_54766)">
<mask id="mask4_3932_54766" style="mask-type:luminance" maskUnits="userSpaceOnUse" x="0" y="0" width="640" height="512">
<path d="M640 0H0V512H640V0Z" fill="white"/>
</mask>
<g mask="url(#mask4_3932_54766)">
<mask id="mask5_3932_54766" style="mask-type:luminance" maskUnits="userSpaceOnUse" x="0" y="0" width="640" height="512">
<path d="M640 0H0V512H640V0Z" fill="white"/>
</mask>
<g mask="url(#mask5_3932_54766)">
<mask id="mask6_3932_54766" style="mask-type:luminance" maskUnits="userSpaceOnUse" x="0" y="0" width="640" height="512">
<path d="M640 0H0V512H640V0Z" fill="white"/>
</mask>
<g mask="url(#mask6_3932_54766)">
<mask id="mask7_3932_54766" style="mask-type:luminance" maskUnits="userSpaceOnUse" x="0" y="0" width="640" height="512">
<path d="M640 0H0V512H640V0Z" fill="white"/>
</mask>
<g mask="url(#mask7_3932_54766)">
<mask id="mask8_3932_54766" style="mask-type:luminance" maskUnits="userSpaceOnUse" x="0" y="0" width="640" height="512">
<path d="M640 0H0V512H640V0Z" fill="white"/>
</mask>
<g mask="url(#mask8_3932_54766)">
<mask id="mask9_3932_54766" style="mask-type:luminance" maskUnits="userSpaceOnUse" x="0" y="0" width="640" height="512">
<path d="M640 0H0V512H640V0Z" fill="white"/>
</mask>
<g mask="url(#mask9_3932_54766)">
<mask id="mask10_3932_54766" style="mask-type:luminance" maskUnits="userSpaceOnUse" x="0" y="0" width="640" height="512">
<path d="M640 0H0V512H640V0Z" fill="white"/>
</mask>
<g mask="url(#mask10_3932_54766)">
<mask id="mask11_3932_54766" style="mask-type:luminance" maskUnits="userSpaceOnUse" x="0" y="0" width="640" height="512">
<path d="M640 0H0V512H640V0Z" fill="white"/>
</mask>
<g mask="url(#mask11_3932_54766)">
<mask id="mask12_3932_54766" style="mask-type:luminance" maskUnits="userSpaceOnUse" x="0" y="0" width="640" height="512">
<path d="M640 0H0V512H640V0Z" fill="white"/>
</mask>
<g mask="url(#mask12_3932_54766)">
<mask id="mask13_3932_54766" style="mask-type:luminance" maskUnits="userSpaceOnUse" x="0" y="0" width="640" height="512">
<path d="M640 0H0V512H640V0Z" fill="white"/>
</mask>
<g mask="url(#mask13_3932_54766)">
<path d="M281 22L305.8 4.7C307.1 3.8 308.5 2.9 309.9 2.3C313.1 0.7 316.6 0 320 0C323.4 0 326.9 0.7 330.1 2.2C331.5 2.9 332.9 3.7 334.2 4.6L359 22C393 45.8 430.8 63.5 470.8 74.4L493.8 80.7C495.6 81.2 497.4 81.8 499 82.7C502.2 84.4 504.9 86.7 507.1 89.5C510.9 94.4 512.7 100.8 511.8 107.3C511.4 110.1 510.6 112.7 509.3 115.1C507.6 118.3 505.3 121 502.5 123.2C498.2 126.4 492.9 128.3 487.4 128.1H480V184.2L486.4 189.3L491.6 193.4C512.7 210.1 536.6 223 562.1 231.5L591 241.1C592.6 241.6 594.2 242.3 595.6 243.1C598.7 244.8 601.4 247.2 603.4 250C605.4 252.8 606.9 256.1 607.5 259.6C608 262.3 608.1 265.1 607.6 267.9C607.1 270.7 606.2 273.3 604.9 275.7C603.2 278.8 600.8 281.5 598 283.5C595.2 285.5 591.9 287 588.4 287.6C586.8 287.9 585.1 288 583.4 288H544V353.9C564.5 376.7 591.4 393.1 621.4 400.6C632 403 640 412.6 640 424C640 437.3 629.3 448 616 448H576V480C576 497.7 561.7 512 544 512C526.3 512 512 497.7 512 480V448H352V480C352 497.7 337.7 512 320 512C302.3 512 288 497.7 288 480V448H128V480C128 497.7 113.7 512 96 512C78.3 512 64 497.7 64 480V448H24C10.7 448 0 437.3 0 424C0 412.6 8 403 18.6 400.6C48.6 393 75.5 376.7 96 353.9V288H56.6C54.9 288 53.2 287.9 51.6 287.6C48.1 286.9 44.8 285.5 42 283.5C39.2 281.5 36.8 278.8 35 275.7C33.7 273.3 32.7 270.7 32.3 267.9C31.9 265.1 31.9 262.3 32.4 259.6C33.1 256.1 34.5 252.8 36.5 250C38.5 247.2 41.2 244.8 44.3 243.1C45.7 242.3 47.3 241.6 48.9 241.1L77.8 231.5C103.3 223 127.2 210.1 148.3 193.4L153.5 189.3L159.9 184.2V176V128H152.4C146.9 128.1 141.6 126.3 137.3 123.1C134.5 121 132.2 118.3 130.5 115C129.3 112.6 128.4 110 128 107.2C127.1 100.7 128.9 94.4 132.7 89.4C134.8 86.6 137.5 84.3 140.8 82.6C142.4 81.8 144.2 81.1 146 80.6L169 74.3C209.2 63.5 247 45.8 281 22ZM416 128H320H224V192H296H344H416V128ZM160 288V352H296H320H344H480V288H344H320H296H160Z" fill="black"/>
</g>
</g>
</g>
</g>
</g>
</g>
</g>
</g>
</g>
</g>
</g>
</g>
</g>
</g>
</g>
<defs>
<clipPath id="clip0_3932_54766">
<rect width="640" height="512" fill="white"/>
</clipPath>
</defs>
</svg>
