<svg width="640" height="512" viewBox="0 0 640 512" fill="none" xmlns="http://www.w3.org/2000/svg">
<path d="M144 320C122.783 320 102.434 311.571 87.4315 296.569C72.4285 281.566 64 261.217 64 240C64 218.783 72.4285 198.434 87.4315 183.431C102.434 168.429 122.783 160 144 160C165.217 160 185.566 168.429 200.569 183.431C215.571 198.434 224 218.783 224 240C224 261.217 215.571 281.566 200.569 296.569C185.566 311.571 165.217 320 144 320ZM263.8 320C279.1 297.1 288 269.6 288 240C288 160.5 223.5 96 144 96C64.5 96 0 160.5 0 240C0 319.5 64.5 384 144 384H496C575.5 384 640 319.5 640 240C640 160.5 575.5 96 496 96C416.5 96 352 160.5 352 240C352 269.6 360.9 297.1 376.2 320H263.8ZM496 160C517.217 160 537.566 168.429 552.569 183.431C567.571 198.434 576 218.783 576 240C576 261.217 567.571 281.566 552.569 296.569C537.566 311.571 517.217 320 496 320C474.783 320 454.434 311.571 439.431 296.569C424.429 281.566 416 261.217 416 240C416 218.783 424.429 198.434 439.431 183.431C454.434 168.429 474.783 160 496 160Z" fill="black"/>
</svg>
