<svg width="512" height="512" viewBox="0 0 512 512" fill="none" xmlns="http://www.w3.org/2000/svg">
<g clip-path="url(#clip0_3932_55296)">
<mask id="mask0_3932_55296" style="mask-type:luminance" maskUnits="userSpaceOnUse" x="0" y="0" width="512" height="512">
<path d="M512 0H0V512H512V0Z" fill="white"/>
</mask>
<g mask="url(#mask0_3932_55296)">
<mask id="mask1_3932_55296" style="mask-type:luminance" maskUnits="userSpaceOnUse" x="0" y="0" width="512" height="512">
<path d="M512 0H0V512H512V0Z" fill="white"/>
</mask>
<g mask="url(#mask1_3932_55296)">
<mask id="mask2_3932_55296" style="mask-type:luminance" maskUnits="userSpaceOnUse" x="0" y="0" width="512" height="512">
<path d="M512 0H0V512H512V0Z" fill="white"/>
</mask>
<g mask="url(#mask2_3932_55296)">
<mask id="mask3_3932_55296" style="mask-type:luminance" maskUnits="userSpaceOnUse" x="0" y="0" width="512" height="512">
<path d="M512 0H0V512H512V0Z" fill="white"/>
</mask>
<g mask="url(#mask3_3932_55296)">
<mask id="mask4_3932_55296" style="mask-type:luminance" maskUnits="userSpaceOnUse" x="0" y="0" width="512" height="512">
<path d="M512 0H0V512H512V0Z" fill="white"/>
</mask>
<g mask="url(#mask4_3932_55296)">
<mask id="mask5_3932_55296" style="mask-type:luminance" maskUnits="userSpaceOnUse" x="0" y="0" width="512" height="512">
<path d="M512 0H0V512H512V0Z" fill="white"/>
</mask>
<g mask="url(#mask5_3932_55296)">
<mask id="mask6_3932_55296" style="mask-type:luminance" maskUnits="userSpaceOnUse" x="0" y="0" width="512" height="512">
<path d="M512 0H0V512H512V0Z" fill="white"/>
</mask>
<g mask="url(#mask6_3932_55296)">
<mask id="mask7_3932_55296" style="mask-type:luminance" maskUnits="userSpaceOnUse" x="0" y="0" width="512" height="512">
<path d="M512 0H0V512H512V0Z" fill="white"/>
</mask>
<g mask="url(#mask7_3932_55296)">
<mask id="mask8_3932_55296" style="mask-type:luminance" maskUnits="userSpaceOnUse" x="0" y="0" width="512" height="512">
<path d="M512 0H0V512H512V0Z" fill="white"/>
</mask>
<g mask="url(#mask8_3932_55296)">
<mask id="mask9_3932_55296" style="mask-type:luminance" maskUnits="userSpaceOnUse" x="0" y="0" width="512" height="512">
<path d="M512 0H0V512H512V0Z" fill="white"/>
</mask>
<g mask="url(#mask9_3932_55296)">
<mask id="mask10_3932_55296" style="mask-type:luminance" maskUnits="userSpaceOnUse" x="0" y="0" width="512" height="512">
<path d="M512 0H0V512H512V0Z" fill="white"/>
</mask>
<g mask="url(#mask10_3932_55296)">
<mask id="mask11_3932_55296" style="mask-type:luminance" maskUnits="userSpaceOnUse" x="0" y="0" width="512" height="512">
<path d="M512 0H0V512H512V0Z" fill="white"/>
</mask>
<g mask="url(#mask11_3932_55296)">
<mask id="mask12_3932_55296" style="mask-type:luminance" maskUnits="userSpaceOnUse" x="0" y="0" width="512" height="512">
<path d="M512 0H0V512H512V0Z" fill="white"/>
</mask>
<g mask="url(#mask12_3932_55296)">
<mask id="mask13_3932_55296" style="mask-type:luminance" maskUnits="userSpaceOnUse" x="0" y="0" width="512" height="512">
<path d="M512 0H0V512H512V0Z" fill="white"/>
</mask>
<g mask="url(#mask13_3932_55296)">
<path d="M511.8 267.4C485.7 276.1 458.4 281.2 430.8 282.5C440 177.2 399.3 78.3 327.6 10.1C434.1 41.1 512 139.5 512 256C512 259.8 511.9 263.6 511.8 267.4ZM507.9 302.1C502.1 334.1 490.3 364.1 473.7 390.8C376.2 439.3 256 433.4 161.8 366.3C185.5 330.1 217.2 298.6 256.3 274.5C336.2 317.7 426.4 325.3 507.9 302.1ZM271.9 246.6C269.4 155.7 230.8 73.9 170 14.9C196.8 5.2 225.8 0 256 0C258.7 0 261.3 0 263.9 0.1C354.7 60.3 409.6 167.3 398.6 282.4C355.5 280 312.2 268.3 271.8 246.5L271.9 246.6ZM138 28.8C158.6 47.1 176.7 68.2 191.7 91.4C95.9 136.1 30.6 220.8 7.3 316.9C2.5 297.4 0 277 0 256C0 157.2 56 71.5 138 28.8ZM207.6 119.3C227.1 157.9 238.6 201.2 239.9 247C162.5 294.6 110.9 368.9 90.2 451C66 430.4 45.6 405.4 30.4 377.2C37.1 268.5 102.3 167.3 207.5 119.3H207.6ZM256 512C205.3 512 158 497.3 118.2 471.8C123.8 444.8 133 418.7 145.6 394.1C232.2 454.6 338.1 468.8 433 441C387 485 324.7 512 256 512Z" fill="black"/>
</g>
</g>
</g>
</g>
</g>
</g>
</g>
</g>
</g>
</g>
</g>
</g>
</g>
</g>
</g>
<defs>
<clipPath id="clip0_3932_55296">
<rect width="512" height="512" fill="white"/>
</clipPath>
</defs>
</svg>
