<svg width="640" height="512" viewBox="0 0 640 512" fill="none" xmlns="http://www.w3.org/2000/svg">
<path d="M576 64H64C28.7 64 0 92.7 0 128V384C0 419.3 28.7 448 64 448H184.4C208.6 448 230.8 434.3 241.6 412.6L273.6 348.6C282.4 331.1 300.3 320 319.9 320C339.5 320 357.4 331.1 366.2 348.6L398.2 412.6C409 434.3 431.2 448 455.4 448H576C611.3 448 640 419.3 640 384V128C640 92.7 611.3 64 576 64ZM96 240C96 223.026 102.743 206.747 114.745 194.745C126.747 182.743 143.026 176 160 176C176.974 176 193.253 182.743 205.255 194.745C217.257 206.747 224 223.026 224 240C224 256.974 217.257 273.252 205.255 285.255C193.253 297.257 176.974 304 160 304C143.026 304 126.747 297.257 114.745 285.255C102.743 273.252 96 256.974 96 240ZM480 176C496.974 176 513.253 182.743 525.255 194.745C537.257 206.747 544 223.026 544 240C544 256.974 537.257 273.252 525.255 285.255C513.253 297.257 496.974 304 480 304C463.026 304 446.747 297.257 434.745 285.255C422.743 273.252 416 256.974 416 240C416 223.026 422.743 206.747 434.745 194.745C446.747 182.743 463.026 176 480 176Z" fill="black"/>
</svg>
