<svg width="576" height="512" viewBox="0 0 576 512" fill="none" xmlns="http://www.w3.org/2000/svg">
<g clip-path="url(#clip0_3932_55366)">
<mask id="mask0_3932_55366" style="mask-type:luminance" maskUnits="userSpaceOnUse" x="0" y="0" width="576" height="512">
<path d="M576 0H0V512H576V0Z" fill="white"/>
</mask>
<g mask="url(#mask0_3932_55366)">
<mask id="mask1_3932_55366" style="mask-type:luminance" maskUnits="userSpaceOnUse" x="0" y="0" width="576" height="512">
<path d="M576 0H0V512H576V0Z" fill="white"/>
</mask>
<g mask="url(#mask1_3932_55366)">
<mask id="mask2_3932_55366" style="mask-type:luminance" maskUnits="userSpaceOnUse" x="0" y="0" width="576" height="512">
<path d="M576 0H0V512H576V0Z" fill="white"/>
</mask>
<g mask="url(#mask2_3932_55366)">
<mask id="mask3_3932_55366" style="mask-type:luminance" maskUnits="userSpaceOnUse" x="0" y="0" width="576" height="512">
<path d="M576 0H0V512H576V0Z" fill="white"/>
</mask>
<g mask="url(#mask3_3932_55366)">
<mask id="mask4_3932_55366" style="mask-type:luminance" maskUnits="userSpaceOnUse" x="0" y="0" width="576" height="512">
<path d="M576 0H0V512H576V0Z" fill="white"/>
</mask>
<g mask="url(#mask4_3932_55366)">
<mask id="mask5_3932_55366" style="mask-type:luminance" maskUnits="userSpaceOnUse" x="0" y="0" width="576" height="512">
<path d="M576 0H0V512H576V0Z" fill="white"/>
</mask>
<g mask="url(#mask5_3932_55366)">
<mask id="mask6_3932_55366" style="mask-type:luminance" maskUnits="userSpaceOnUse" x="0" y="0" width="576" height="512">
<path d="M576 0H0V512H576V0Z" fill="white"/>
</mask>
<g mask="url(#mask6_3932_55366)">
<mask id="mask7_3932_55366" style="mask-type:luminance" maskUnits="userSpaceOnUse" x="0" y="0" width="576" height="512">
<path d="M576 0H0V512H576V0Z" fill="white"/>
</mask>
<g mask="url(#mask7_3932_55366)">
<mask id="mask8_3932_55366" style="mask-type:luminance" maskUnits="userSpaceOnUse" x="0" y="0" width="576" height="512">
<path d="M576 0H0V512H576V0Z" fill="white"/>
</mask>
<g mask="url(#mask8_3932_55366)">
<mask id="mask9_3932_55366" style="mask-type:luminance" maskUnits="userSpaceOnUse" x="0" y="0" width="576" height="512">
<path d="M576 0H0V512H576V0Z" fill="white"/>
</mask>
<g mask="url(#mask9_3932_55366)">
<mask id="mask10_3932_55366" style="mask-type:luminance" maskUnits="userSpaceOnUse" x="0" y="0" width="576" height="512">
<path d="M576 0H0V512H576V0Z" fill="white"/>
</mask>
<g mask="url(#mask10_3932_55366)">
<mask id="mask11_3932_55366" style="mask-type:luminance" maskUnits="userSpaceOnUse" x="0" y="0" width="576" height="512">
<path d="M576 0H0V512H576V0Z" fill="white"/>
</mask>
<g mask="url(#mask11_3932_55366)">
<mask id="mask12_3932_55366" style="mask-type:luminance" maskUnits="userSpaceOnUse" x="0" y="0" width="576" height="512">
<path d="M576 0H0V512H576V0Z" fill="white"/>
</mask>
<g mask="url(#mask12_3932_55366)">
<mask id="mask13_3932_55366" style="mask-type:luminance" maskUnits="userSpaceOnUse" x="0" y="0" width="576" height="512">
<path d="M576 0H0V512H576V0Z" fill="white"/>
</mask>
<g mask="url(#mask13_3932_55366)">
<path d="M20.8016 34.0027C37.3016 27.8027 55.8016 36.2027 62.0016 52.7027L172.202 346.703L257.302 55.0027C261.302 41.3027 273.802 32.0027 288.002 32.0027C302.202 32.0027 314.702 41.4027 318.702 55.0027L403.802 346.703L514.002 52.8027C520.202 36.3027 538.602 27.9027 555.202 34.1027C571.802 40.3027 580.102 58.8027 573.902 75.3027L429.902 459.303C425.102 472.203 412.502 480.603 398.702 480.003C384.902 479.403 373.002 470.203 369.202 457.003L288.002 178.303L206.702 457.003C202.802 470.203 190.902 479.503 177.202 480.003C163.502 480.503 150.902 472.203 146.002 459.303L2.00158 75.2027C-4.19842 58.7027 4.20158 40.2027 20.8016 34.0027Z" fill="black"/>
</g>
</g>
</g>
</g>
</g>
</g>
</g>
</g>
</g>
</g>
</g>
</g>
</g>
</g>
</g>
<defs>
<clipPath id="clip0_3932_55366">
<rect width="576" height="512" fill="white"/>
</clipPath>
</defs>
</svg>
