<svg width="512" height="512" viewBox="0 0 512 512" fill="none" xmlns="http://www.w3.org/2000/svg">
<g clip-path="url(#clip0_3932_55544)">
<mask id="mask0_3932_55544" style="mask-type:luminance" maskUnits="userSpaceOnUse" x="0" y="0" width="512" height="512">
<path d="M512 0H0V512H512V0Z" fill="white"/>
</mask>
<g mask="url(#mask0_3932_55544)">
<mask id="mask1_3932_55544" style="mask-type:luminance" maskUnits="userSpaceOnUse" x="0" y="0" width="512" height="512">
<path d="M512 0H0V512H512V0Z" fill="white"/>
</mask>
<g mask="url(#mask1_3932_55544)">
<mask id="mask2_3932_55544" style="mask-type:luminance" maskUnits="userSpaceOnUse" x="0" y="0" width="512" height="512">
<path d="M512 0H0V512H512V0Z" fill="white"/>
</mask>
<g mask="url(#mask2_3932_55544)">
<mask id="mask3_3932_55544" style="mask-type:luminance" maskUnits="userSpaceOnUse" x="0" y="0" width="512" height="512">
<path d="M512 0H0V512H512V0Z" fill="white"/>
</mask>
<g mask="url(#mask3_3932_55544)">
<mask id="mask4_3932_55544" style="mask-type:luminance" maskUnits="userSpaceOnUse" x="0" y="0" width="512" height="512">
<path d="M512 0H0V512H512V0Z" fill="white"/>
</mask>
<g mask="url(#mask4_3932_55544)">
<mask id="mask5_3932_55544" style="mask-type:luminance" maskUnits="userSpaceOnUse" x="0" y="0" width="512" height="512">
<path d="M512 0H0V512H512V0Z" fill="white"/>
</mask>
<g mask="url(#mask5_3932_55544)">
<mask id="mask6_3932_55544" style="mask-type:luminance" maskUnits="userSpaceOnUse" x="0" y="0" width="512" height="512">
<path d="M512 0H0V512H512V0Z" fill="white"/>
</mask>
<g mask="url(#mask6_3932_55544)">
<mask id="mask7_3932_55544" style="mask-type:luminance" maskUnits="userSpaceOnUse" x="0" y="0" width="512" height="512">
<path d="M512 0H0V512H512V0Z" fill="white"/>
</mask>
<g mask="url(#mask7_3932_55544)">
<mask id="mask8_3932_55544" style="mask-type:luminance" maskUnits="userSpaceOnUse" x="0" y="0" width="512" height="512">
<path d="M512 0H0V512H512V0Z" fill="white"/>
</mask>
<g mask="url(#mask8_3932_55544)">
<mask id="mask9_3932_55544" style="mask-type:luminance" maskUnits="userSpaceOnUse" x="0" y="0" width="512" height="512">
<path d="M512 0H0V512H512V0Z" fill="white"/>
</mask>
<g mask="url(#mask9_3932_55544)">
<mask id="mask10_3932_55544" style="mask-type:luminance" maskUnits="userSpaceOnUse" x="0" y="0" width="512" height="512">
<path d="M512 0H0V512H512V0Z" fill="white"/>
</mask>
<g mask="url(#mask10_3932_55544)">
<mask id="mask11_3932_55544" style="mask-type:luminance" maskUnits="userSpaceOnUse" x="0" y="0" width="512" height="512">
<path d="M512 0H0V512H512V0Z" fill="white"/>
</mask>
<g mask="url(#mask11_3932_55544)">
<mask id="mask12_3932_55544" style="mask-type:luminance" maskUnits="userSpaceOnUse" x="0" y="0" width="512" height="512">
<path d="M512 0H0V512H512V0Z" fill="white"/>
</mask>
<g mask="url(#mask12_3932_55544)">
<mask id="mask13_3932_55544" style="mask-type:luminance" maskUnits="userSpaceOnUse" x="0" y="0" width="512" height="512">
<path d="M512 0H0V512H512V0Z" fill="white"/>
</mask>
<g mask="url(#mask13_3932_55544)">
<path d="M464 6.09811C473.5 -2.40189 488 -2.00189 497 6.99811L505 14.9981C514 23.9981 514.4 38.4981 505.9 47.9981L420.1 143.898C417.5 146.798 416 150.598 416 154.598V175.998C416 184.798 408.8 191.998 400 191.998H384.2C379.6 191.998 375.3 193.898 372.3 197.298L100.7 500.898C94.3 507.998 85.3 511.998 75.8 511.998C67 511.998 58.5 508.498 52.3 502.198L9.7 459.698C3.5 453.398 0 444.998 0 436.198C0 426.698 4 417.698 11.1 411.398L122.7 311.598C126.1 308.598 128 304.198 128 299.698V271.998C128 263.198 135.2 255.998 144 255.998H178.6C182.5 255.998 186.3 254.498 189.3 251.898L464 6.09811ZM432 287.998C435.6 287.998 438.7 290.398 439.7 293.798L454.5 345.498L506.2 360.298C509.6 361.298 512 364.398 512 367.998C512 371.598 509.6 374.698 506.2 375.698L454.5 390.498L439.7 442.198C438.7 445.598 435.6 447.998 432 447.998C428.4 447.998 425.3 445.598 424.3 442.198L409.5 390.498L357.8 375.698C354.4 374.698 352 371.598 352 367.998C352 364.398 354.4 361.298 357.8 360.298L409.5 345.498L424.3 293.798C425.3 290.398 428.4 287.998 432 287.998ZM87.7 69.7981L102.5 121.498L154.2 136.298C157.6 137.298 160 140.398 160 143.998C160 147.598 157.6 150.698 154.2 151.698L102.5 166.498L87.7 218.198C86.7 221.598 83.6 223.998 80 223.998C76.4 223.998 73.3 221.598 72.3 218.198L57.5 166.498L5.8 151.698C2.4 150.698 0 147.598 0 143.998C0 140.398 2.4 137.298 5.8 136.298L57.5 121.498L72.3 69.7981C73.3 66.3981 76.4 63.9981 80 63.9981C83.6 63.9981 86.7 66.3981 87.7 69.7981ZM208 -0.00184868C211.7 -0.00184868 214.9 2.49811 215.8 6.09811L222.6 33.3981L249.9 40.1981C253.5 41.0981 256 44.2981 256 47.9981C256 51.6981 253.5 54.8981 249.9 55.7981L222.6 62.5981L215.8 89.8981C214.9 93.4981 211.7 95.9981 208 95.9981C204.3 95.9981 201.1 93.4981 200.2 89.8981L193.4 62.5981L166.1 55.7981C162.5 54.8981 160 51.6981 160 47.9981C160 44.2981 162.5 41.0981 166.1 40.1981L193.4 33.3981L200.2 6.09811C201.1 2.49811 204.3 -0.00184868 208 -0.00184868Z" fill="black"/>
</g>
</g>
</g>
</g>
</g>
</g>
</g>
</g>
</g>
</g>
</g>
</g>
</g>
</g>
</g>
<defs>
<clipPath id="clip0_3932_55544">
<rect width="512" height="512" fill="white"/>
</clipPath>
</defs>
</svg>
