<svg width="512" height="512" viewBox="0 0 512 512" fill="none" xmlns="http://www.w3.org/2000/svg">
<path d="M256 16C123.452 16 16 123.452 16 256C16 388.548 123.452 496 256 496C388.548 496 496 388.548 496 256C496 123.452 388.548 16 256 16ZM121.69 429.122C70.056 388.972 36.741 326.322 36.741 256C36.7304 234.268 39.9616 212.656 46.328 191.878L149.228 173.983L149.107 184.95L135.164 186.963C135.164 186.963 135.02 199.463 135.02 206.512C134.974 208.498 135.392 210.468 136.24 212.264C137.088 214.061 138.344 215.635 139.907 216.861L149.375 224.261L121.69 429.122ZM227.382 145.852L235.862 138.234C235.862 138.234 242.796 132.854 235.719 128.89C228.531 124.866 196.189 94.39 196.189 94.39C190.841 88.913 187.932 87.043 180.729 94.39C180.729 94.39 148.387 124.864 141.2 128.89C134.122 132.854 141.056 138.234 141.056 138.234L149.537 145.852L149.489 150.221L75.982 131.045C115.626 74.107 181.514 36.745 256 36.745C287.256 36.7416 318.149 43.4361 346.6 56.3777C375.051 69.3193 400.398 88.2075 420.934 111.77L227.422 149.47L227.382 145.852ZM261.445 475.121L227.545 224.264L237.012 216.864C238.575 215.638 239.831 214.064 240.679 212.267C241.528 210.471 241.946 208.501 241.9 206.515C241.9 199.471 241.756 186.966 241.756 186.966L227.813 184.953L227.697 174.479L469.408 205.87C473.285 222.298 475.248 239.12 475.259 256C475.259 375.074 379.831 472.212 261.445 475.121Z" fill="black"/>
</svg>
