<svg width="576" height="512" viewBox="0 0 576 512" fill="none" xmlns="http://www.w3.org/2000/svg">
<path d="M128.001 127.7C128.001 74.9 170.901 32 223.701 32C272.001 32 312.701 68 318.701 115.9L319.701 124.1C321.901 141.6 309.501 157.6 291.901 159.8C274.301 162 258.401 149.6 256.201 132L255.201 123.8C253.201 107.9 239.701 96 223.701 96C206.201 96 192.001 110.2 192.001 127.7V224H384.001V127.7C384.001 74.9 426.901 32 479.701 32C528.001 32 568.701 68 574.701 115.9L575.701 124.1C577.901 141.6 565.501 157.6 547.901 159.8C530.301 162 514.401 149.6 512.201 132L511.201 123.8C509.201 107.9 495.701 96 479.701 96C462.201 96 448.001 110.2 448.001 127.7V361C446.401 362 444.701 363 443.201 364.1C425.201 376.5 403.101 384.4 384.001 384.4V288H192.001V384.5C173.001 384.5 150.801 376.6 132.901 364.2C131.301 363.1 129.701 362 128.001 361.1V127.7ZM306.501 389.9C329.001 405.4 356.501 416 384.001 416C410.901 416 439.401 405.2 461.401 389.9C473.301 381.4 489.501 382.1 500.601 391.6C515.001 403.5 533.101 412.6 551.201 416.8C568.401 420.8 579.101 438 575.101 455.2C571.101 472.4 553.901 483.1 536.701 479.1C512.201 473.4 491.801 462.6 478.501 454.1C449.501 469.7 417.001 480 384.001 480C352.101 480 323.401 470.1 303.601 461.1C297.801 458.4 292.501 455.8 288.001 453.4C283.501 455.8 278.301 458.5 272.401 461.1C252.601 470.1 223.901 480 192.001 480C159.001 480 126.501 469.7 97.5008 454.2C84.1008 462.6 63.8008 473.5 39.3008 479.2C22.1007 483.2 4.90075 472.5 0.900752 455.3C-3.09925 438.1 7.60075 420.9 24.8008 416.9C42.9007 412.7 61.0008 403.6 75.4008 391.7C86.5008 382.3 102.701 381.6 114.601 390C136.701 405.2 165.101 416 192.001 416C219.501 416 247.001 405.4 269.501 389.9C280.601 382 295.401 382 306.501 389.9Z" fill="black"/>
</svg>
