<svg width="576" height="512" viewBox="0 0 576 512" fill="none" xmlns="http://www.w3.org/2000/svg">
<path d="M269.501 69.8987C280.601 61.9987 295.401 61.9987 306.501 69.8987C329.001 85.3987 356.501 95.9987 384.001 95.9987C410.901 95.9987 439.401 85.1987 461.401 69.8987C473.301 61.3987 489.501 62.0987 500.601 71.5987C515.001 83.4987 533.101 92.5987 551.201 96.7987C568.401 100.799 579.101 117.999 575.101 135.199C571.101 152.399 553.901 163.099 536.701 159.099C512.201 153.399 491.801 142.599 478.501 134.099C449.501 149.699 417.001 159.999 384.001 159.999C352.101 159.999 323.401 150.099 303.601 141.099C297.801 138.399 292.501 135.799 288.001 133.399C283.501 135.799 278.301 138.499 272.401 141.099C252.601 150.099 223.901 159.999 192.001 159.999C159.001 159.999 126.501 149.699 97.5008 134.199C84.1008 142.599 63.8008 153.499 39.3008 159.199C22.1007 163.199 4.90075 152.499 0.900752 135.299C-3.09925 118.099 7.60075 100.899 24.8008 96.8987C42.8008 92.5987 61.0008 83.4987 75.3008 71.5987C86.4008 62.0987 102.601 61.4987 114.501 69.8987C136.701 85.1987 165.101 95.9987 192.001 95.9987C219.501 95.9987 247.001 85.3987 269.501 69.8987ZM306.501 357.899C329.001 373.399 356.501 383.999 384.001 383.999C410.901 383.999 439.401 373.199 461.401 357.899C473.301 349.399 489.501 350.099 500.601 359.599C515.001 371.499 533.101 380.599 551.201 384.799C568.401 388.799 579.101 405.999 575.101 423.199C571.101 440.399 553.901 451.099 536.701 447.099C512.201 441.399 491.801 430.599 478.501 422.099C449.501 437.699 417.001 447.999 384.001 447.999C352.101 447.999 323.401 438.099 303.601 429.099C297.801 426.399 292.501 423.799 288.001 421.399C283.501 423.799 278.301 426.499 272.401 429.099C252.601 438.099 223.901 447.999 192.001 447.999C159.001 447.999 126.501 437.699 97.5008 422.199C84.1008 430.599 63.8008 441.499 39.3008 447.199C22.1007 451.199 4.90075 440.499 0.900752 423.299C-3.09925 406.099 7.60075 388.899 24.8008 384.899C42.9007 380.699 61.0008 371.599 75.4008 359.699C86.5008 350.299 102.701 349.599 114.601 357.999C136.701 373.199 165.101 383.999 192.001 383.999C219.501 383.999 247.001 373.399 269.501 357.899C280.601 349.999 295.401 349.999 306.501 357.899ZM306.501 213.899C329.001 229.399 356.501 239.999 384.001 239.999C410.901 239.999 439.401 229.199 461.401 213.899C473.301 205.399 489.501 206.099 500.601 215.599C515.001 227.499 533.101 236.599 551.201 240.799C568.401 244.799 579.101 261.999 575.101 279.199C571.101 296.399 553.901 307.099 536.701 303.099C512.201 297.399 491.801 286.599 478.501 278.099C449.501 293.699 417.001 303.999 384.001 303.999C352.101 303.999 323.401 294.099 303.601 285.099C297.801 282.399 292.501 279.799 288.001 277.399C283.501 279.799 278.301 282.499 272.401 285.099C252.601 294.099 223.901 303.999 192.001 303.999C159.001 303.999 126.501 293.699 97.5008 278.199C84.1008 286.599 63.8008 297.499 39.3008 303.199C22.1007 307.199 4.90075 296.499 0.900752 279.299C-3.09925 262.099 7.60075 244.899 24.8008 240.899C42.9007 236.699 61.0008 227.599 75.4008 215.699C86.5008 206.199 102.701 205.599 114.601 213.999C136.701 229.199 165.101 239.999 192.001 239.999C219.501 239.999 247.001 229.399 269.501 213.899C280.601 205.999 295.401 205.999 306.501 213.899Z" fill="black"/>
</svg>
