<svg width="512" height="512" viewBox="0 0 512 512" fill="none" xmlns="http://www.w3.org/2000/svg">
<path d="M502.169 201.67C516.689 287.53 471.229 369.59 388.999 409.8C401.999 443.9 376.599 480 340.678 480C327.443 479.99 314.716 474.902 305.121 465.785C295.526 456.668 289.795 444.218 289.108 431C282.668 431.19 224.908 431 212.778 430.36C212.504 437.146 210.896 443.812 208.044 449.976C205.192 456.141 201.154 461.683 196.159 466.285C191.165 470.888 185.312 474.461 178.936 476.801C172.559 479.14 165.785 480.2 158.998 479.92C125.138 478.56 101.049 445.08 111.998 412C74.7885 398.89 39.4585 377.13 12.3785 341.2C-0.621504 323.92 11.8985 299.4 33.2185 299.4C79.5285 299.4 65.4385 245.23 76.3685 189.14C94.7985 95.2 193.118 32 288.089 32C390.569 32 485.239 102.67 502.169 201.67ZM373.509 388.28C415.509 369.1 454.839 331.57 469.798 286.14C510.279 163.05 405.648 58.14 288.089 58.14C204.639 58.14 117.768 113.56 102.018 194.14C92.4885 243.05 107.018 325.49 33.2685 325.49C58.2085 358.6 91.5985 378.11 126.998 389.54C151.658 367.74 190.868 374.07 206.828 403.88C221.048 404.88 286.019 405.06 294.729 404.7C298.246 397.83 303.256 391.835 309.393 387.155C315.53 382.474 322.637 379.228 330.192 377.653C337.748 376.078 345.56 376.215 353.056 378.054C360.551 379.893 367.54 383.387 373.509 388.28ZM205.118 187.13C205.118 152.39 255.958 152.38 255.958 187.13C255.958 221.88 205.118 221.87 205.118 187.13ZM321.689 187.13C321.689 152.39 372.548 152.38 372.548 187.13C372.548 221.88 321.689 221.88 321.689 187.13ZM199.078 257.82C195.638 240.88 221.258 235.64 224.698 252.61L224.758 252.89C228.898 274.31 254.609 296.89 288.879 295.96C324.559 295.02 348.129 273.75 352.988 253.19C357.448 237.14 381.589 242.83 378.458 259.19C373.228 281.37 347.249 321.19 286.999 322.09C244.449 322.09 206.118 294.25 199.098 257.84L199.078 257.82Z" fill="black"/>
</svg>
