<svg width="640" height="512" viewBox="0 0 640 512" fill="none" xmlns="http://www.w3.org/2000/svg">
<path d="M372.2 52C372.2 72.9 359.8 91 342 99.2L448 192L552.4 171.1C547.1 163.4 544 154 544 144C544 117.5 565.5 96 592 96C618.5 96 640 117.5 640 144C640 170 619.4 191.1 593.6 192L481 442.3C470.7 465.3 447.8 480 422.6 480H217.4C192.2 480 169.4 465.2 159 442.3L46.4 192C20.6 191.1 0 170 0 144C0 117.5 21.5 96 48 96C74.5 96 96 117.5 96 144C96 154.1 92.9 163.4 87.6 171.1L192 192L298.1 99.1C280.4 90.8 268.1 72.8 268.1 52C268.1 23.3 291.4 0 320.1 0C348.8 0 372.1 23.3 372.1 52H372.2Z" fill="black"/>
</svg>
