<svg width="512" height="512" viewBox="0 0 512 512" fill="none" xmlns="http://www.w3.org/2000/svg">
<path d="M407 177.599C414.6 153.599 393.6 130.799 369.6 135.899C347.6 140.699 340.8 107.799 362.5 103.099C412.6 92.1988 454.8 140.199 439 187.899C432.2 209.099 400.2 198.699 407 177.599ZM214.8 446.699C108.5 446.699 0 395.299 0 310.399C0 266.099 28 214.999 76.3 166.699C176 66.9987 279.5 65.798 249.9 160.999C245.9 174.099 262.2 166.699 262.2 166.999C341.7 133.399 402.7 150.199 376.2 218.399C372.5 227.799 377.3 229.299 384.5 231.499C520.2 273.799 419.3 446.699 214.8 446.699ZM358.5 300.399C353.1 244.699 280 206.399 195.1 214.699C110.3 223.299 46.3 274.999 51.7 330.699C57.1 386.399 130.2 424.699 215.1 416.399C299.9 407.799 363.9 356.099 358.5 300.399ZM347.9 35.0988C322 40.6988 331.1 78.7988 356.2 73.3988C428.5 58.1988 491 126.199 467.9 197.399C460.5 221.599 497 234.399 505.3 209.399C537.2 109.599 450.2 13.4988 347.9 35.0988ZM269.4 346.099C252.3 384.899 202.6 406.099 160.3 392.399C119.5 379.299 102.3 338.999 120 302.699C137.7 267.299 183.1 247.299 223.4 257.599C265.4 268.399 286.5 307.799 269.4 346.099ZM183.1 316.099C170.2 310.699 153.1 316.399 145.1 328.999C136.8 341.899 140.8 356.999 153.7 362.999C166.8 368.999 184.5 363.299 192.8 350.099C200.8 336.999 196.5 321.799 183.1 316.099ZM215.7 302.699C210.6 300.999 204.3 303.299 201.4 308.099C198.5 313.199 200 318.699 205.1 320.999C210.2 322.999 216.8 320.699 219.7 315.599C222.5 310.399 220.8 304.699 215.7 302.699Z" fill="black"/>
</svg>
