<svg width="640" height="512" viewBox="0 0 640 512" fill="none" xmlns="http://www.w3.org/2000/svg">
<g clip-path="url(#clip0_3932_56142)">
<mask id="mask0_3932_56142" style="mask-type:luminance" maskUnits="userSpaceOnUse" x="0" y="0" width="640" height="512">
<path d="M640 0H0V512H640V0Z" fill="white"/>
</mask>
<g mask="url(#mask0_3932_56142)">
<mask id="mask1_3932_56142" style="mask-type:luminance" maskUnits="userSpaceOnUse" x="0" y="0" width="640" height="512">
<path d="M640 0H0V512H640V0Z" fill="white"/>
</mask>
<g mask="url(#mask1_3932_56142)">
<mask id="mask2_3932_56142" style="mask-type:luminance" maskUnits="userSpaceOnUse" x="0" y="0" width="640" height="512">
<path d="M640 0H0V512H640V0Z" fill="white"/>
</mask>
<g mask="url(#mask2_3932_56142)">
<mask id="mask3_3932_56142" style="mask-type:luminance" maskUnits="userSpaceOnUse" x="0" y="0" width="640" height="512">
<path d="M640 0H0V512H640V0Z" fill="white"/>
</mask>
<g mask="url(#mask3_3932_56142)">
<mask id="mask4_3932_56142" style="mask-type:luminance" maskUnits="userSpaceOnUse" x="0" y="0" width="640" height="512">
<path d="M640 0H0V512H640V0Z" fill="white"/>
</mask>
<g mask="url(#mask4_3932_56142)">
<mask id="mask5_3932_56142" style="mask-type:luminance" maskUnits="userSpaceOnUse" x="0" y="0" width="640" height="512">
<path d="M640 0H0V512H640V0Z" fill="white"/>
</mask>
<g mask="url(#mask5_3932_56142)">
<mask id="mask6_3932_56142" style="mask-type:luminance" maskUnits="userSpaceOnUse" x="0" y="0" width="640" height="512">
<path d="M640 0H0V512H640V0Z" fill="white"/>
</mask>
<g mask="url(#mask6_3932_56142)">
<mask id="mask7_3932_56142" style="mask-type:luminance" maskUnits="userSpaceOnUse" x="0" y="0" width="640" height="512">
<path d="M640 0H0V512H640V0Z" fill="white"/>
</mask>
<g mask="url(#mask7_3932_56142)">
<mask id="mask8_3932_56142" style="mask-type:luminance" maskUnits="userSpaceOnUse" x="0" y="0" width="640" height="512">
<path d="M640 0H0V512H640V0Z" fill="white"/>
</mask>
<g mask="url(#mask8_3932_56142)">
<mask id="mask9_3932_56142" style="mask-type:luminance" maskUnits="userSpaceOnUse" x="0" y="0" width="640" height="512">
<path d="M640 0H0V512H640V0Z" fill="white"/>
</mask>
<g mask="url(#mask9_3932_56142)">
<mask id="mask10_3932_56142" style="mask-type:luminance" maskUnits="userSpaceOnUse" x="0" y="0" width="640" height="512">
<path d="M640 0H0V512H640V0Z" fill="white"/>
</mask>
<g mask="url(#mask10_3932_56142)">
<mask id="mask11_3932_56142" style="mask-type:luminance" maskUnits="userSpaceOnUse" x="0" y="0" width="640" height="512">
<path d="M640 0H0V512H640V0Z" fill="white"/>
</mask>
<g mask="url(#mask11_3932_56142)">
<mask id="mask12_3932_56142" style="mask-type:luminance" maskUnits="userSpaceOnUse" x="0" y="0" width="640" height="512">
<path d="M640 0H0V512H640V0Z" fill="white"/>
</mask>
<g mask="url(#mask12_3932_56142)">
<mask id="mask13_3932_56142" style="mask-type:luminance" maskUnits="userSpaceOnUse" x="0" y="0" width="640" height="512">
<path d="M640 0H0V512H640V0Z" fill="white"/>
</mask>
<g mask="url(#mask13_3932_56142)">
<path d="M639.998 51.2L639.698 63.4C611.598 64.2 594.698 79.2 583.898 103.7C558.898 161.5 480.598 343.7 428.598 462.3H414.998L333.098 269.2C300.598 332.8 264.798 399.2 233.898 462.3C233.598 462.6 218.898 462.3 218.898 462C171.998 352.3 122.798 243.4 75.7984 133.4C64.3984 106.7 26.3984 63.4 0.198438 63.7C0.198438 60.6 -0.101562 53.7 -0.101562 49.5H161.798V63.4C142.598 64.5 108.998 76.7 118.498 97.6C140.398 147.3 222.098 337.9 244.098 386.2C259.098 356.5 301.898 277 319.398 243.4C305.498 215.1 260.798 109.5 246.598 83.4C236.898 65.6 210.498 64 190.798 63.7V49.8L333.298 50.1V63.2C313.898 63.8 295.198 71 303.898 89.3C322.798 129.3 334.498 157.4 351.998 194C357.598 183.2 386.698 124.6 400.098 93.2C408.998 72.6 396.198 64.6 361.498 63.8C361.798 60.2 361.498 53.5 361.798 50.2C406.198 49.9 472.898 49.9 484.898 49.6V63.2C462.398 64 439.098 76 426.798 94.9L367.598 217.7C373.998 233.8 430.898 360.5 436.798 374.4L559.198 91.8C550.598 68.7 522.798 63.7 511.998 63.5V49.6L639.798 50.7L639.998 51.2Z" fill="black"/>
</g>
</g>
</g>
</g>
</g>
</g>
</g>
</g>
</g>
</g>
</g>
</g>
</g>
</g>
</g>
<defs>
<clipPath id="clip0_3932_56142">
<rect width="640" height="512" fill="white"/>
</clipPath>
</defs>
</svg>
