<svg width="320" height="512" viewBox="0 0 320 512" fill="none" xmlns="http://www.w3.org/2000/svg">
<path d="M32.1031 29.3C33.5031 12.8 47.4031 0 64.0031 0H256.003C272.603 0 286.503 12.8 287.903 29.3L301.903 197.7C307.903 269.7 259.403 332.9 192.003 348.3V448H240.003C257.703 448 272.003 462.3 272.003 480C272.003 497.7 257.703 512 240.003 512H160.003H80.0031C62.3031 512 48.0031 497.7 48.0031 480C48.0031 462.3 62.3031 448 80.0031 448H128.003V348.4C60.6031 333 12.1031 269.8 18.1031 197.8L32.1031 29.4V29.3ZM88.1031 128H231.903L226.603 64H93.4031L88.1031 128Z" fill="black"/>
</svg>
