<svg width="640" height="512" viewBox="0 0 640 512" fill="none" xmlns="http://www.w3.org/2000/svg">
<path d="M393.38 131.692C393.38 144.722 395.46 164.382 364.7 175.522C355.18 178.972 348.75 185.182 348.75 185.182C348.75 154.182 353.47 142.962 366.15 136.322C375.9 131.212 393.38 131.692 393.38 131.692ZM277.58 167.232L243.34 299.892L214.86 191.322C207.17 159.332 194.05 142.792 166.43 142.792C139.06 142.792 125.77 158.972 118 191.322L89.52 299.892L55.28 167.232C49.73 140.512 23.86 128.962 0 131.962L65.57 379.892C65.57 379.892 87.2 381.452 98.03 375.932C112.25 368.682 119.01 363.092 127.62 329.362C135.29 299.292 156.73 210.952 158.74 204.662C163.5 189.722 169.83 190.852 174.14 204.662C176.11 210.962 197.59 299.292 205.26 329.362C213.86 363.092 220.63 368.682 234.85 375.932C245.67 381.452 267.31 379.892 267.31 379.892L332.88 131.962C308.46 128.892 283.06 140.892 277.58 167.232ZM393.36 172.442C393.36 172.442 389.26 178.782 379.9 184.012C373.89 187.372 368.12 189.652 361.93 192.622C346.79 199.882 348.75 206.572 348.75 227.822V379.892C348.75 379.892 365.3 381.982 376.12 376.462C390.05 369.362 393.25 362.512 393.38 331.682V181.412L393.36 181.422V172.442ZM556.8 256.522L640 132.782C640 132.782 604.89 126.802 587.5 142.632C574.2 154.732 563.09 172.182 533.32 215.102C532.85 215.832 527.07 225.642 520.25 215.102C490.96 172.872 479.45 154.812 466.07 142.632C448.68 126.802 413.57 132.782 413.57 132.782L496.77 256.522L413.8 379.882C413.8 379.882 450.37 384.502 467.75 368.672C479.24 358.212 485.33 348.302 520.26 297.952C527.07 287.432 532.83 297.182 533.33 297.952C562.73 340.332 572.56 356.012 586.47 368.672C603.86 384.502 639.79 379.882 639.79 379.882L556.8 256.522Z" fill="black"/>
</svg>
