<svg width="640" height="512" viewBox="0 0 640 512" fill="none" xmlns="http://www.w3.org/2000/svg">
<path d="M178.414 339.705H141.1L112.166 223.474H111.688L83.228 339.705H45.2L0 168.945H37.548L64.574 285.176H65.052L94.707 168.945H129.864L159.042 286.612H159.521L187.5 168.945H224.331L178.414 339.705ZM271.4 212.712C310.384 212.712 335.5 238.54 335.5 278.003C335.5 317.225 310.389 343.053 271.4 343.053C232.657 343.053 207.545 317.225 207.545 278.003C207.547 238.54 232.659 212.712 271.4 212.712ZM271.4 317.465C294.6 317.465 301.533 297.613 301.533 278.003C301.533 258.151 294.599 238.303 271.4 238.303C243.7 238.303 241.506 258.153 241.506 278.003C241.508 297.613 248.443 317.465 271.4 317.465ZM435.084 323.921H434.606C426.713 337.313 412.841 343.053 397.058 343.053C359.748 343.053 341.573 311.008 341.573 276.807C341.573 243.564 359.988 212.712 396.34 212.712C410.929 212.712 425.278 218.93 433.171 231.128H433.411V168.945H467.371V339.705H435.084V323.921ZM405.428 238.299C383.188 238.299 375.534 257.433 375.534 277.762C375.534 297.133 384.382 317.462 405.428 317.462C427.91 317.462 434.606 297.849 434.606 277.522C434.606 257.435 427.432 238.299 405.428 238.299ZM592.96 339.705H560.673V322.486H559.955C551.346 336.356 536.519 343.053 522.169 343.053C486.056 343.053 476.969 322.725 476.969 292.112V216.06H510.928V285.899C510.928 306.228 516.907 316.271 532.693 316.271C551.108 316.271 558.999 305.988 558.999 280.878V216.06H592.96V339.705ZM602.453 302.875H640V339.705H602.453V302.875Z" fill="black"/>
</svg>
