<svg width="512" height="512" viewBox="0 0 512 512" fill="none" xmlns="http://www.w3.org/2000/svg">
<path d="M369.903 318.202C414.203 372.502 434.603 417.002 424.303 436.902C416.403 452.002 367.603 481.502 331.703 492.802C302.103 502.102 263.303 506.102 231.303 503.002C193.103 499.302 154.403 485.602 121.203 464.002C93.3034 445.802 87.0034 438.302 87.0034 423.402C87.0034 393.502 119.903 341.102 176.203 281.302C208.203 247.402 252.703 207.602 257.603 208.702C267.003 210.802 341.903 283.802 369.903 318.202ZM188.603 143.802C158.903 116.902 130.503 89.9019 102.203 80.4019C87.0034 75.3019 85.9034 75.6019 73.5034 88.5019C44.3034 118.902 20.0034 168.202 13.2034 210.902C7.80344 245.102 7.10344 254.702 9.00344 271.402C14.6034 321.902 26.3034 356.802 49.5034 392.302C59.0034 406.902 61.6034 409.602 58.8034 402.202C54.6034 391.202 58.5034 364.702 68.3034 338.202C82.6034 299.202 122.203 225.302 188.603 143.802ZM500.203 207.302C483.303 127.302 432.703 77.0019 425.603 77.0019C418.303 77.0019 401.403 83.5019 389.603 90.9019C366.303 105.402 348.603 122.302 325.303 143.702C367.703 197.002 427.503 283.102 448.203 346.002C455.003 366.702 457.903 387.102 455.603 398.302C453.903 406.802 453.903 406.802 457.003 402.902C463.103 395.202 476.903 371.602 482.403 359.402C489.803 343.202 497.403 319.202 501.003 300.702C505.303 278.202 504.903 229.902 500.203 207.302ZM141.303 43.0019C189.003 40.5019 251.003 77.5019 255.603 78.4019C256.303 78.5019 266.003 74.2019 277.203 68.7019C341.103 37.6019 371.203 42.9019 384.603 43.5019C320.703 4.20184 231.903 -6.49816 150.703 31.8019C127.303 42.9019 126.703 43.7019 141.303 43.0019Z" fill="black"/>
</svg>
