<svg width="512" height="512" viewBox="0 0 512 512" fill="none" xmlns="http://www.w3.org/2000/svg">
<path d="M223.69 141.06L167 284.23L111 141.06H14.9297L120.76 390.19L82.1897 480H176.36L317.27 141.06H223.69ZM329.09 276.85C317.575 276.85 306.319 280.265 296.744 286.662C287.17 293.059 279.708 302.152 275.301 312.79C270.895 323.428 269.742 335.135 271.988 346.428C274.235 357.722 279.78 368.096 287.922 376.238C296.064 384.38 306.438 389.925 317.732 392.171C329.025 394.418 340.731 393.265 351.37 388.858C362.008 384.452 371.101 376.99 377.498 367.415C383.895 357.841 387.31 346.585 387.31 335.07C387.31 327.424 385.804 319.854 382.878 312.79C379.952 305.727 375.664 299.308 370.257 293.902C364.851 288.496 358.433 284.208 351.37 281.282C344.306 278.356 336.735 276.85 329.09 276.85ZM394.65 32L301.65 255.47H406.44L499.07 32H394.65Z" fill="black"/>
</svg>
