<svg width="512" height="512" viewBox="0 0 512 512" fill="none" xmlns="http://www.w3.org/2000/svg">
<g clip-path="url(#clip0_3932_56764)">
<mask id="mask0_3932_56764" style="mask-type:luminance" maskUnits="userSpaceOnUse" x="0" y="0" width="512" height="512">
<path d="M512 0H0V512H512V0Z" fill="white"/>
</mask>
<g mask="url(#mask0_3932_56764)">
<mask id="mask1_3932_56764" style="mask-type:luminance" maskUnits="userSpaceOnUse" x="0" y="0" width="512" height="512">
<path d="M512 0H0V512H512V0Z" fill="white"/>
</mask>
<g mask="url(#mask1_3932_56764)">
<mask id="mask2_3932_56764" style="mask-type:luminance" maskUnits="userSpaceOnUse" x="0" y="0" width="512" height="512">
<path d="M512 0H0V512H512V0Z" fill="white"/>
</mask>
<g mask="url(#mask2_3932_56764)">
<mask id="mask3_3932_56764" style="mask-type:luminance" maskUnits="userSpaceOnUse" x="0" y="0" width="512" height="512">
<path d="M512 0H0V512H512V0Z" fill="white"/>
</mask>
<g mask="url(#mask3_3932_56764)">
<mask id="mask4_3932_56764" style="mask-type:luminance" maskUnits="userSpaceOnUse" x="0" y="0" width="512" height="512">
<path d="M512 0H0V512H512V0Z" fill="white"/>
</mask>
<g mask="url(#mask4_3932_56764)">
<mask id="mask5_3932_56764" style="mask-type:luminance" maskUnits="userSpaceOnUse" x="0" y="0" width="512" height="512">
<path d="M512 0H0V512H512V0Z" fill="white"/>
</mask>
<g mask="url(#mask5_3932_56764)">
<mask id="mask6_3932_56764" style="mask-type:luminance" maskUnits="userSpaceOnUse" x="0" y="0" width="512" height="512">
<path d="M512 0H0V512H512V0Z" fill="white"/>
</mask>
<g mask="url(#mask6_3932_56764)">
<mask id="mask7_3932_56764" style="mask-type:luminance" maskUnits="userSpaceOnUse" x="0" y="0" width="512" height="512">
<path d="M512 0H0V512H512V0Z" fill="white"/>
</mask>
<g mask="url(#mask7_3932_56764)">
<mask id="mask8_3932_56764" style="mask-type:luminance" maskUnits="userSpaceOnUse" x="0" y="0" width="512" height="512">
<path d="M512 0H0V512H512V0Z" fill="white"/>
</mask>
<g mask="url(#mask8_3932_56764)">
<mask id="mask9_3932_56764" style="mask-type:luminance" maskUnits="userSpaceOnUse" x="0" y="0" width="512" height="512">
<path d="M512 0H0V512H512V0Z" fill="white"/>
</mask>
<g mask="url(#mask9_3932_56764)">
<mask id="mask10_3932_56764" style="mask-type:luminance" maskUnits="userSpaceOnUse" x="0" y="0" width="512" height="512">
<path d="M512 0H0V512H512V0Z" fill="white"/>
</mask>
<g mask="url(#mask10_3932_56764)">
<mask id="mask11_3932_56764" style="mask-type:luminance" maskUnits="userSpaceOnUse" x="0" y="0" width="512" height="512">
<path d="M512 0H0V512H512V0Z" fill="white"/>
</mask>
<g mask="url(#mask11_3932_56764)">
<mask id="mask12_3932_56764" style="mask-type:luminance" maskUnits="userSpaceOnUse" x="0" y="0" width="512" height="512">
<path d="M512 0H0V512H512V0Z" fill="white"/>
</mask>
<g mask="url(#mask12_3932_56764)">
<mask id="mask13_3932_56764" style="mask-type:luminance" maskUnits="userSpaceOnUse" x="0" y="0" width="512" height="512">
<path d="M512 0H0V512H512V0Z" fill="white"/>
</mask>
<g mask="url(#mask13_3932_56764)">
<path d="M500.676 159.486C500.254 157.732 499.466 156.087 498.363 154.66C497.26 153.232 495.867 152.055 494.276 151.204C491.177 149.579 487.58 149.177 484.198 150.079L457.8 156.7L457.757 156.5L435.457 162.285L434.214 162.618L433.606 160.448C418.112 102.143 388.56 48.5246 347.538 4.28912C344.962 1.62973 341.443 0.0904939 337.741 0.00386413C334.039 -0.0827657 330.452 1.29016 327.754 3.82612L224.854 106.573H24.947C18.3447 106.561 12.0077 109.171 7.32944 113.83C2.65122 118.489 0.0148369 124.815 0 131.417V380.38C0.0166508 386.982 2.64785 393.308 7.31779 397.975C11.9877 402.642 18.3161 405.268 24.918 405.28H224.986L328.072 508C330.635 510.563 334.111 512.003 337.736 512.003C341.36 512.003 344.836 510.563 347.399 508C347.525 507.874 347.648 507.745 347.769 507.615C377.053 476.161 400.601 439.82 417.346 400.241C424.234 383.711 430.013 366.74 434.646 349.441V349.413L455.052 354.749L455.081 354.676L483.345 362C484.206 362.224 485.081 362.391 485.964 362.5C487.339 362.691 488.735 362.667 490.103 362.428C492.616 361.941 494.939 360.75 496.801 358.992C498.663 357.235 499.987 354.985 500.618 352.504C515.774 289.061 515.794 222.943 500.676 159.491V159.486ZM337.125 24.6501L337.138 24.6641H337.125V24.6501ZM226.925 189.811L174.311 281.1C173.329 282.823 172.815 284.772 172.822 286.755V332.944C172.811 338.783 170.485 344.379 166.352 348.503C162.22 352.628 156.62 354.944 150.781 354.944H147.381C141.541 354.948 135.937 352.636 131.798 348.516C127.66 344.395 125.323 338.802 125.3 332.962V287.294C125.304 285.37 124.827 283.476 123.912 281.784L72.312 189.584C70.4361 186.232 69.471 182.447 69.5129 178.606C69.5548 174.765 70.6022 171.002 72.5508 167.692C74.4994 164.382 77.2812 161.639 80.6191 159.739C83.9571 157.838 87.7348 156.845 91.576 156.858H94.844C98.8914 156.854 102.862 157.964 106.321 160.065C109.78 162.167 112.594 165.18 114.455 168.774L150.812 239.055L188.327 168.543C190.177 165.073 192.921 162.161 196.274 160.107C199.628 158.053 203.469 156.933 207.401 156.862C211.332 156.791 215.212 157.772 218.637 159.704C222.062 161.635 224.909 164.447 226.883 167.848C228.838 171.178 229.868 174.97 229.868 178.832C229.868 182.693 228.838 186.485 226.883 189.815L226.925 189.811ZM337.145 24.6731C373.067 65.2438 399.022 113.639 412.945 166.008L413.509 167.96L299.375 197.56V131.417C299.347 124.814 296.708 118.489 292.034 113.824C287.361 109.16 281.031 106.533 274.428 106.517H255.067L337.145 24.6731ZM397.645 391.978V391.935L397.631 391.949C382.89 426.756 362.563 458.921 337.454 487.176L255.254 405.283H274.431C281.037 405.275 287.37 402.65 292.046 397.984C296.721 393.317 299.357 386.989 299.378 380.383V314.183L413.978 344.045C409.592 360.364 404.137 376.376 397.648 391.978H397.645ZM481.645 339.528L481.66 339.542L431.042 326.411L299.379 292.1V219.572L419.125 188.582L423.593 187.425L463.133 177.172L481.644 172.356C493.633 227.435 493.634 284.449 481.645 339.528Z" fill="black"/>
</g>
</g>
</g>
</g>
</g>
</g>
</g>
</g>
</g>
</g>
</g>
</g>
</g>
</g>
</g>
<defs>
<clipPath id="clip0_3932_56764">
<rect width="512" height="512" fill="white"/>
</clipPath>
</defs>
</svg>
