<svg width="384" height="512" viewBox="0 0 384 512" fill="none" xmlns="http://www.w3.org/2000/svg">
<g clip-path="url(#clip0_3932_56830)">
<mask id="mask0_3932_56830" style="mask-type:luminance" maskUnits="userSpaceOnUse" x="0" y="0" width="384" height="512">
<path d="M384 0H0V512H384V0Z" fill="white"/>
</mask>
<g mask="url(#mask0_3932_56830)">
<mask id="mask1_3932_56830" style="mask-type:luminance" maskUnits="userSpaceOnUse" x="0" y="0" width="384" height="512">
<path d="M384 0H0V512H384V0Z" fill="white"/>
</mask>
<g mask="url(#mask1_3932_56830)">
<mask id="mask2_3932_56830" style="mask-type:luminance" maskUnits="userSpaceOnUse" x="0" y="0" width="384" height="512">
<path d="M384 0H0V512H384V0Z" fill="white"/>
</mask>
<g mask="url(#mask2_3932_56830)">
<mask id="mask3_3932_56830" style="mask-type:luminance" maskUnits="userSpaceOnUse" x="0" y="0" width="384" height="512">
<path d="M384 0H0V512H384V0Z" fill="white"/>
</mask>
<g mask="url(#mask3_3932_56830)">
<mask id="mask4_3932_56830" style="mask-type:luminance" maskUnits="userSpaceOnUse" x="0" y="0" width="384" height="512">
<path d="M384 0H0V512H384V0Z" fill="white"/>
</mask>
<g mask="url(#mask4_3932_56830)">
<mask id="mask5_3932_56830" style="mask-type:luminance" maskUnits="userSpaceOnUse" x="0" y="0" width="384" height="512">
<path d="M384 0H0V512H384V0Z" fill="white"/>
</mask>
<g mask="url(#mask5_3932_56830)">
<mask id="mask6_3932_56830" style="mask-type:luminance" maskUnits="userSpaceOnUse" x="0" y="0" width="384" height="512">
<path d="M384 0H0V512H384V0Z" fill="white"/>
</mask>
<g mask="url(#mask6_3932_56830)">
<mask id="mask7_3932_56830" style="mask-type:luminance" maskUnits="userSpaceOnUse" x="0" y="0" width="384" height="512">
<path d="M384 0H0V512H384V0Z" fill="white"/>
</mask>
<g mask="url(#mask7_3932_56830)">
<mask id="mask8_3932_56830" style="mask-type:luminance" maskUnits="userSpaceOnUse" x="0" y="0" width="384" height="512">
<path d="M384 0H0V512H384V0Z" fill="white"/>
</mask>
<g mask="url(#mask8_3932_56830)">
<mask id="mask9_3932_56830" style="mask-type:luminance" maskUnits="userSpaceOnUse" x="0" y="0" width="384" height="512">
<path d="M384 0H0V512H384V0Z" fill="white"/>
</mask>
<g mask="url(#mask9_3932_56830)">
<mask id="mask10_3932_56830" style="mask-type:luminance" maskUnits="userSpaceOnUse" x="0" y="0" width="384" height="512">
<path d="M384 0H0V512H384V0Z" fill="white"/>
</mask>
<g mask="url(#mask10_3932_56830)">
<mask id="mask11_3932_56830" style="mask-type:luminance" maskUnits="userSpaceOnUse" x="0" y="0" width="384" height="512">
<path d="M384 0H0V512H384V0Z" fill="white"/>
</mask>
<g mask="url(#mask11_3932_56830)">
<mask id="mask12_3932_56830" style="mask-type:luminance" maskUnits="userSpaceOnUse" x="0" y="0" width="384" height="512">
<path d="M384 0H0V512H384V0Z" fill="white"/>
</mask>
<g mask="url(#mask12_3932_56830)">
<mask id="mask13_3932_56830" style="mask-type:luminance" maskUnits="userSpaceOnUse" x="0" y="0" width="384" height="512">
<path d="M384 0H0V512H384V0Z" fill="white"/>
</mask>
<g mask="url(#mask13_3932_56830)">
<path d="M42.9028 240.322L142.523 288.932C161.723 298.332 158.723 326.442 138.023 331.642L30.5028 358.452C27.3465 359.246 24.0569 359.354 20.8552 358.77C17.6535 358.186 14.6141 356.923 11.9413 355.066C9.26862 353.209 7.02462 350.801 5.36033 348.004C3.69604 345.208 2.65006 342.087 2.29277 338.852C-1.00639 310.096 2.06635 280.967 11.2928 253.532C12.3278 250.459 14.0063 247.643 16.2163 245.27C18.4262 242.898 21.1168 241.024 24.1083 239.774C27.0999 238.523 30.3238 237.926 33.5647 238.02C36.8057 238.115 39.9892 238.899 42.9028 240.322ZM86.9028 479.572C110.738 495.901 137.836 506.857 166.323 511.682C169.528 512.232 172.815 512.089 175.961 511.263C179.107 510.437 182.039 508.947 184.561 506.893C187.083 504.839 189.136 502.269 190.582 499.356C192.028 496.442 192.833 493.253 192.943 490.002L196.843 379.182C197.543 357.882 171.343 347.272 157.033 363.082L82.8228 445.482C80.6497 447.9 79.0183 450.754 78.0378 453.854C77.0574 456.953 76.7505 460.227 77.1378 463.454C77.525 466.682 78.5975 469.79 80.2833 472.57C81.9691 475.349 84.2294 477.737 86.9128 479.572H86.9028ZM232.243 369.652L291.053 463.652C292.786 466.412 295.088 468.771 297.805 470.571C300.522 472.371 303.591 473.571 306.809 474.092C310.026 474.612 313.318 474.441 316.463 473.589C319.609 472.737 322.538 471.225 325.053 469.152C347.341 450.727 365.331 427.651 377.763 401.542C379.133 398.602 379.865 395.406 379.913 392.163C379.96 388.92 379.321 385.704 378.038 382.726C376.755 379.747 374.856 377.074 372.466 374.881C370.077 372.688 367.25 371.025 364.173 370.002L258.753 335.742C238.443 329.242 220.943 351.542 232.243 369.652ZM380.573 237.422C369.047 210.906 351.838 187.246 330.163 168.112C327.724 165.974 324.858 164.381 321.756 163.436C318.653 162.492 315.385 162.219 312.169 162.635C308.953 163.051 305.862 164.147 303.103 165.85C300.343 167.553 297.977 169.824 296.163 172.512L234.163 264.432C222.263 282.132 238.863 305.042 259.363 299.142L366.003 268.632C369.128 267.712 372.023 266.139 374.494 264.016C376.966 261.893 378.959 259.27 380.34 256.319C381.721 253.368 382.46 250.157 382.507 246.9C382.554 243.642 381.908 240.411 380.613 237.422H380.573ZM62.1128 30.1819C59.2801 31.5452 56.7591 33.4781 54.7073 35.8598C52.6554 38.2415 51.1169 41.0208 50.1878 44.024C49.2587 47.0272 48.9589 50.1898 49.3074 53.3141C49.6558 56.4383 50.6449 59.4572 52.2128 62.1819L156.333 242.622C168.033 262.822 198.943 254.522 198.943 231.222V22.8819C198.971 19.7335 198.343 16.6137 197.099 13.7213C195.855 10.8289 194.023 8.22725 191.718 6.08228C189.413 3.93732 186.686 2.29599 183.712 1.2629C180.738 0.2298 177.581 -0.172418 174.443 0.0818714C135.477 3.17839 97.4063 13.3798 62.1128 30.1819Z" fill="black"/>
</g>
</g>
</g>
</g>
</g>
</g>
</g>
</g>
</g>
</g>
</g>
</g>
</g>
</g>
</g>
<defs>
<clipPath id="clip0_3932_56830">
<rect width="384" height="512" fill="white"/>
</clipPath>
</defs>
</svg>
