<svg width="576" height="512" viewBox="0 0 576 512" fill="none" xmlns="http://www.w3.org/2000/svg">
<path d="M549.652 124.083C543.371 100.433 524.865 81.807 501.368 75.486C458.778 64 287.997 64 287.997 64C287.997 64 117.217 64 74.6257 75.486C51.1287 81.808 32.6227 100.433 26.3417 124.083C14.9297 166.95 14.9297 256.388 14.9297 256.388C14.9297 256.388 14.9297 345.826 26.3417 388.693C32.6227 412.343 51.1287 430.193 74.6257 436.514C117.217 448 287.997 448 287.997 448C287.997 448 458.777 448 501.368 436.514C524.865 430.193 543.371 412.343 549.652 388.693C561.064 345.826 561.064 256.388 561.064 256.388C561.064 256.388 561.064 166.95 549.652 124.083ZM232.142 337.591V175.185L374.881 256.39L232.142 337.591Z" fill="black"/>
</svg>
