<svg width="800" height="800" viewBox="0 0 800 800" fill="none" xmlns="http://www.w3.org/2000/svg">
<path d="M776.374 385.578V412.922C776.374 423.337 771.655 433.753 762.206 441.935C652.715 536.796 543.183 631.619 433.698 726.481C424.47 734.479 413.532 738.591 400.531 738.591V711.248C413.534 711.248 424.47 707.135 433.698 699.137C543.184 604.275 652.711 509.448 762.206 414.593C771.655 406.409 776.374 395.997 776.374 385.578Z" fill="#924A91"/>
<path d="M23.625 412.781V410.047V408.68V405.945V403.211V401.844V399.109V396.375V395.008V392.273V389.539V388.172V385.438C23.625 396.927 28.8602 408.338 38.4977 416.702C146.661 510.502 254.942 604.199 363.155 697.968C373.313 706.765 385.609 710.832 400.541 711.244V738.588C385.612 738.176 373.313 734.108 363.155 725.312C254.942 631.543 146.661 537.846 38.4977 444.046C28.8594 435.683 23.625 424.271 23.625 412.781Z" fill="#924A91"/>
<path d="M399.053 59.8438C411.759 59.8438 424.48 64.0328 434.167 72.4195C543.502 167.098 652.839 261.776 762.15 356.471C781.088 372.873 781.131 398.2 762.212 414.593C652.72 509.453 543.189 604.279 433.706 699.138C424.476 707.137 413.539 711.249 400.541 711.249C385.612 710.837 373.312 706.77 363.155 697.973C254.942 604.204 146.661 510.507 38.4977 416.707C23.2001 403.436 18.9977 382.48 29.2047 365.73C32.2665 360.7 35.9774 356.488 40.5055 352.566C148.403 259.166 256.27 165.743 364.148 72.3172C373.754 64.0055 386.396 59.8438 399.053 59.8438Z" fill="#A7529B"/>
<path d="M312.364 251.984L337.602 251.986L362.837 251.994C369.279 252 370.894 253.412 370.901 258.998C370.909 267.076 370.912 275.154 370.912 283.233L370.911 307.467L370.912 331.701C370.912 339.78 370.911 347.858 370.901 355.937C370.901 361.72 369.334 363.078 362.657 363.078C325.345 363.092 288.033 363.092 250.721 363.078C244.287 363.078 242.642 361.661 242.634 356.088C242.628 339.88 242.625 323.672 242.625 307.465C242.625 291.258 242.628 275.05 242.641 258.843C242.641 253.461 244.327 252.002 250.548 252.002C270.909 251.992 291.269 251.987 311.63 251.987C311.872 251.984 312.12 251.984 312.364 251.984Z" fill="#E2BBD7"/>
<path d="M370.901 355.94V369.066C370.901 374.848 369.334 376.206 362.656 376.206C325.345 376.222 288.033 376.222 250.721 376.206C244.287 376.206 242.642 374.789 242.634 369.216C242.63 353.009 242.625 336.8 242.625 320.594V307.469C242.625 323.676 242.628 339.884 242.634 356.092C242.641 361.663 244.286 363.082 250.721 363.082C288.033 363.096 325.345 363.096 362.656 363.082C369.334 363.08 370.901 361.723 370.901 355.94Z" fill="#7B3684"/>
<path d="M370.895 355.938V369.062C370.895 369.566 370.883 370.033 370.859 370.471V357.346C370.883 356.907 370.895 356.438 370.895 355.938ZM370.859 357.346V370.471C370.751 372.26 370.409 373.525 369.67 374.404V361.279C370.409 360.399 370.75 359.136 370.859 357.346ZM369.67 361.279V374.404C369.43 374.687 369.149 374.932 368.836 375.13V362.005C369.149 361.806 369.43 361.561 369.67 361.279ZM368.835 362.005V375.13C368.54 375.316 368.225 375.47 367.896 375.588V362.463C368.224 362.344 368.539 362.191 368.835 362.005ZM367.895 362.463V375.588C367.363 375.783 366.745 375.924 366.031 376.021V362.896C366.746 362.798 367.364 362.658 367.895 362.463Z" fill="#7B3684"/>
<path d="M366.03 362.9V376.025C365.082 376.155 363.964 376.206 362.648 376.206C325.337 376.222 288.025 376.222 250.713 376.206C244.279 376.206 242.634 374.789 242.626 369.216C242.621 353.009 242.617 336.8 242.617 320.594V307.469C242.617 323.676 242.62 339.884 242.626 356.092C242.633 361.663 244.278 363.082 250.713 363.082C288.025 363.096 325.337 363.096 362.648 363.082C363.966 363.081 365.085 363.029 366.03 362.9Z" fill="#7B3684"/>
<path d="M391.923 255.801C391.564 290.24 391.564 324.683 391.923 359.123C392.048 371.21 380.494 381.291 366.569 381.291C326.723 380.975 286.876 380.975 247.03 381.288C232.731 381.29 221.266 370.676 221.65 359.283C222.225 342.029 221.799 324.743 221.799 307.469C221.799 290.201 222.224 272.923 221.65 255.661C221.266 244.148 233.328 233.812 246.608 233.812C286.571 234.204 326.538 234.204 366.502 233.812C379.946 233.817 392.04 243.658 391.923 255.801ZM370.906 331.705L370.905 307.469L370.906 283.235C370.906 275.157 370.905 267.077 370.895 258.999C370.888 253.415 369.274 252.002 362.832 251.995C354.42 251.992 346.006 251.994 337.596 251.993H312.359H311.624C291.264 251.993 270.903 251.998 250.542 252.008C244.322 252.008 242.636 253.463 242.636 258.843C242.623 275.051 242.62 291.258 242.62 307.465C242.62 323.674 242.623 339.881 242.628 356.089C242.636 361.66 244.28 363.08 250.716 363.08C288.028 363.096 325.34 363.096 362.652 363.08C369.33 363.08 370.897 361.723 370.897 355.938C370.904 347.86 370.906 339.784 370.906 331.705Z" fill="#A95EA2"/>
<path d="M221.641 372.964V359.839C221.641 371.02 232.966 381.292 247.031 381.291C286.877 380.976 326.724 380.976 366.57 381.292C380.495 381.292 392.048 371.214 391.923 359.125V372.25C392.048 384.337 380.495 394.416 366.57 394.416C346.609 394.259 326.648 394.181 306.687 394.18C286.802 394.18 266.916 394.259 247.031 394.416C232.965 394.417 221.641 384.143 221.641 372.964Z" fill="#7B3684"/>
<path d="M391.927 359.125V372.25C391.93 372.705 391.92 373.158 391.891 373.608V360.483C391.919 360.033 391.93 359.58 391.927 359.125ZM391.891 360.483V373.608C391.62 377.959 389.841 382.003 387.006 385.346V372.221C389.841 368.878 391.62 364.834 391.891 360.483ZM387.006 372.221V385.346C385.459 387.17 383.596 388.785 381.492 390.131V377.006C383.596 375.662 385.459 374.046 387.006 372.221Z" fill="#7B3684"/>
<path d="M381.489 377.008V390.133C379.856 391.174 378.115 392.035 376.297 392.701V379.575C378.115 378.91 379.856 378.049 381.489 377.008Z" fill="#7B3684"/>
<path d="M376.299 379.578V392.704C374.403 393.4 372.436 393.888 370.434 394.159V381.034C372.436 380.762 374.403 380.274 376.299 379.578ZM370.434 381.034V394.159C369.153 394.334 367.862 394.422 366.57 394.421C346.609 394.264 326.648 394.185 306.687 394.184C286.802 394.184 266.916 394.264 247.031 394.42C232.966 394.421 221.641 384.149 221.641 372.969V359.844C221.641 371.024 232.966 381.297 247.031 381.295C286.877 380.981 326.724 380.981 366.57 381.297C367.862 381.296 369.153 381.209 370.434 381.034Z" fill="#7B3684"/>
<path d="M557.305 277.109V290.234C557.305 284.138 557.302 278.041 557.291 271.944C557.283 266.576 555.598 265.124 549.369 265.124C529.02 265.113 508.671 265.108 488.323 265.109H487.552C470.728 265.109 453.902 265.113 437.08 265.119C430.645 265.126 429.031 266.537 429.023 272.136C429.02 288.292 429.016 304.448 429.016 320.605V307.48C429.016 291.323 429.02 275.168 429.023 259.011C429.031 253.412 430.644 252 437.08 251.994C453.903 251.988 470.729 251.984 487.552 251.984H488.323C508.671 251.984 529.02 251.989 549.369 251.999C555.598 251.999 557.283 253.451 557.291 258.819C557.302 264.916 557.305 271.013 557.305 277.109Z" fill="#7B3684"/>
<path d="M557.304 277.109V290.234C557.303 284.138 557.3 278.041 557.289 271.944C557.281 266.576 555.596 265.124 549.367 265.124C529.018 265.113 508.67 265.108 488.321 265.109H487.55C470.727 265.109 453.901 265.113 437.078 265.119C435.858 265.119 434.81 265.172 433.914 265.293V252.168C434.809 252.047 435.856 251.994 437.078 251.994C453.902 251.988 470.727 251.984 487.55 251.984H488.321C508.67 251.984 529.018 251.989 549.367 251.999C555.596 251.999 557.281 253.451 557.289 258.819C557.3 264.916 557.303 271.013 557.304 277.109Z" fill="#7B3684"/>
<path d="M433.913 252.172V265.297C433.199 265.395 432.58 265.535 432.047 265.73V252.605C432.58 252.41 433.199 252.27 433.913 252.172ZM432.047 252.605V265.73C431.713 265.85 431.394 266.006 431.094 266.194V253.069C431.394 252.881 431.713 252.725 432.047 252.605Z" fill="#7B3684"/>
<path d="M431.098 253.062V266.188C430.773 266.396 430.492 266.643 430.253 266.925V253.799C430.496 253.512 430.781 253.265 431.098 253.062ZM430.253 253.799V266.925C429.515 267.804 429.166 269.066 429.061 270.84V257.715C429.166 255.94 429.514 254.679 430.253 253.799ZM429.059 257.718V270.843C429.035 271.273 429.023 271.705 429.023 272.136C429.02 288.293 429.016 304.449 429.016 320.606V307.481C429.016 291.324 429.02 275.168 429.023 259.011C429.024 258.553 429.035 258.122 429.059 257.718Z" fill="#7B3684"/>
<path d="M557.304 343.727V356.852C557.303 360.866 557.303 364.88 557.301 368.894C557.291 374.875 555.765 376.204 548.883 376.204V363.079C555.766 363.079 557.293 361.75 557.301 355.769C557.303 351.755 557.303 347.741 557.304 343.727Z" fill="#7B3684"/>
<path d="M557.302 343.727V356.852C557.301 360.866 557.301 364.88 557.298 368.894C557.298 369.388 557.285 369.882 557.258 370.376V357.251C557.284 356.791 557.298 356.297 557.298 355.769C557.301 351.755 557.301 347.741 557.302 343.727Z" fill="#7B3684"/>
<path d="M557.259 357.25V370.375C557.148 372.216 556.806 373.508 556.055 374.398V361.272C556.806 360.383 557.149 359.091 557.259 357.25Z" fill="#7B3684"/>
<path d="M556.058 361.273V374.399C555.82 374.682 555.539 374.927 555.227 375.124V361.999C555.539 361.801 555.819 361.556 556.058 361.273ZM555.227 361.997V375.122C554.931 375.307 554.617 375.46 554.289 375.577V362.452C554.617 362.336 554.932 362.183 555.227 361.997ZM554.287 362.455V375.58C553.754 375.777 553.132 375.919 552.413 376.016V362.891C553.134 362.793 553.754 362.651 554.287 362.455ZM552.413 362.891V376.016C551.432 376.151 550.266 376.203 548.883 376.203V363.078C550.266 363.078 551.43 363.025 552.413 362.891Z" fill="#7B3684"/>
<path d="M487.55 251.984H488.321C508.67 251.984 529.018 251.989 549.367 252C555.595 252 557.28 253.452 557.288 258.819C557.299 264.918 557.302 271.014 557.304 277.112C557.305 287.273 557.298 297.434 557.298 307.597C557.298 319.638 557.302 331.682 557.302 343.724L557.298 355.766C557.288 361.748 555.762 363.077 548.88 363.077C527.407 363.08 505.928 363.085 484.454 363.085C468.731 363.085 453.012 363.084 437.292 363.077C430.598 363.077 429.03 361.72 429.023 355.95C429.019 339.794 429.016 323.637 429.016 307.481C429.016 291.324 429.02 275.169 429.023 259.012C429.03 253.412 430.643 252.001 437.079 251.993C453.9 251.987 470.726 251.984 487.55 251.984Z" fill="#E2BBD7"/>
<path d="M548.879 363.078V376.203C527.406 376.207 505.927 376.212 484.453 376.212V363.087C505.929 363.087 527.406 363.083 548.879 363.078Z" fill="#7B3684"/>
<path d="M548.879 363.078V376.203C527.406 376.207 505.927 376.212 484.453 376.212V363.087C505.929 363.087 527.406 363.083 548.879 363.078Z" fill="#7B3684"/>
<path d="M578.289 255.667C577.84 290.204 577.84 324.754 578.298 359.297C578.44 370.662 567.198 381.292 553.101 381.292C513.262 380.977 473.42 380.977 433.58 381.291C419.437 381.292 407.883 371.221 408.01 359.119C408.373 324.78 408.403 290.435 407.994 256.096C407.847 243.848 419.649 233.806 433.035 233.805C433.287 233.805 433.54 233.808 433.794 233.816C441.754 234.041 449.722 234.108 457.69 234.108C469.548 234.108 481.407 233.959 493.265 233.959C505.144 233.959 517.028 234.088 528.901 234.088C536.969 234.088 545.031 234.028 553.091 233.831C553.294 233.827 553.497 233.824 553.697 233.824C566.821 233.822 578.445 244.256 578.289 255.667ZM557.306 343.729C557.308 331.687 557.303 319.643 557.303 307.602C557.303 297.439 557.31 287.278 557.308 277.116C557.308 271.02 557.304 264.924 557.294 258.826C557.286 253.459 555.601 252.006 549.372 252.006C529.023 251.995 508.674 251.99 488.326 251.991H487.554C470.731 251.991 453.905 251.995 437.083 252.001C430.648 252.008 429.034 253.42 429.026 259.018C429.022 275.174 429.019 291.331 429.019 307.488C429.019 323.644 429.022 339.8 429.026 355.957C429.034 361.726 430.6 363.084 437.296 363.084C453.014 363.089 468.737 363.092 484.458 363.092C505.932 363.092 527.41 363.088 548.883 363.084C555.767 363.084 557.294 361.754 557.301 355.773C557.305 351.757 557.305 347.743 557.306 343.729Z" fill="#A95EA2"/>
<path d="M578.296 359.295V372.42C578.437 383.785 567.196 394.415 553.099 394.415C533.143 394.258 513.187 394.179 493.23 394.178C473.345 394.178 453.462 394.258 433.578 394.414C419.435 394.415 407.882 384.345 408.009 372.242V359.117C407.884 371.22 419.437 381.29 433.578 381.289C473.418 380.974 513.26 380.975 553.099 381.291C567.195 381.291 578.436 370.66 578.296 359.295Z" fill="#7B3684"/>
<path d="M578.297 359.297V372.422C578.302 372.85 578.29 373.278 578.266 373.704V360.579C578.291 360.152 578.301 359.725 578.297 359.297ZM578.266 360.579V373.704C578.005 377.885 576.227 381.911 573.367 385.287V372.162C576.226 368.787 578.005 364.759 578.266 360.579Z" fill="#7B3684"/>
<path d="M573.368 372.161V385.286C571.797 387.141 569.899 388.799 567.746 390.177V377.052C569.853 375.711 571.748 374.062 573.368 372.161ZM567.746 377.051V390.177C566.119 391.216 564.384 392.074 562.572 392.739V379.614C564.385 378.95 566.119 378.091 567.746 377.051ZM562.572 379.614V392.739C560.72 393.42 558.799 393.897 556.844 394.162V381.036C558.799 380.772 560.72 380.295 562.572 379.614ZM556.842 381.037V394.163C555.602 394.331 554.351 394.415 553.099 394.415C533.143 394.258 513.186 394.179 493.23 394.178C473.345 394.178 453.462 394.258 433.578 394.414C419.435 394.415 407.882 384.345 408.009 372.242V359.117C407.884 371.22 419.435 381.29 433.578 381.289C473.418 380.974 513.259 380.975 553.099 381.291C554.351 381.291 555.602 381.206 556.842 381.037Z" fill="#7B3684"/>
<path d="M370.899 420.245V433.37C370.899 427.997 369.223 426.551 362.993 426.551L329.32 426.541C318.877 426.539 308.44 426.539 297.997 426.539H297.214C281.712 426.539 266.205 426.541 250.702 426.544C244.277 426.551 242.639 427.967 242.63 433.546C242.627 449.707 242.625 465.866 242.625 482.023V468.898C242.625 452.74 242.626 436.582 242.63 420.421C242.639 414.841 244.277 413.425 250.702 413.419C266.205 413.416 281.712 413.414 297.214 413.414H297.997C308.44 413.414 318.877 413.414 329.32 413.416L362.993 413.425C369.223 413.426 370.899 414.871 370.899 420.245Z" fill="#7B3684"/>
<path d="M370.895 420.245V433.37C370.895 427.997 369.218 426.551 362.988 426.551L329.316 426.541C318.873 426.539 308.435 426.539 297.992 426.539H297.209C281.707 426.539 266.201 426.541 250.698 426.544C249.48 426.544 248.434 426.596 247.539 426.72V413.595C248.434 413.472 249.48 413.419 250.698 413.419C266.201 413.416 281.707 413.414 297.209 413.414H297.992C308.435 413.414 318.873 413.414 329.316 413.416C340.538 413.419 351.763 413.421 362.988 413.426C369.218 413.426 370.895 414.871 370.895 420.245Z" fill="#7B3684"/>
<path d="M247.542 413.594V426.719C246.824 426.816 246.203 426.959 245.669 427.153V414.027C246.205 413.832 246.825 413.689 247.542 413.594ZM245.668 414.027V427.153C245.333 427.273 245.012 427.429 244.711 427.62V414.495C245.012 414.304 245.333 414.147 245.668 414.027Z" fill="#7B3684"/>
<path d="M244.711 414.492V427.617C244.391 427.82 244.104 428.07 243.859 428.359V415.234C244.099 414.948 244.382 414.702 244.711 414.492Z" fill="#7B3684"/>
<path d="M243.861 415.234V428.359C243.121 429.241 242.771 430.501 242.667 432.273V419.148C242.771 417.376 243.12 416.114 243.861 415.234ZM242.666 419.148V432.274C242.643 432.673 242.631 433.097 242.631 433.547C242.627 449.707 242.625 465.864 242.625 482.023V468.898C242.625 452.739 242.626 436.582 242.631 420.421C242.631 419.97 242.643 419.547 242.666 419.148Z" fill="#7B3684"/>
<path d="M339.059 524.511V537.636C328.33 537.636 317.605 537.632 306.876 537.632L278.893 537.634C269.564 537.634 260.236 537.632 250.909 537.625C244.215 537.625 242.633 536.268 242.633 530.492V517.367C242.633 523.143 244.215 524.5 250.909 524.5C260.236 524.506 269.564 524.509 278.893 524.509L306.876 524.506C317.605 524.506 328.331 524.511 339.059 524.511Z" fill="#7B3684"/>
<path d="M339.059 524.511V537.636C328.33 537.636 317.605 537.632 306.876 537.632L278.893 537.634C269.564 537.634 260.236 537.632 250.909 537.625C244.215 537.625 242.633 536.268 242.633 530.492V517.367C242.633 523.143 244.215 524.5 250.909 524.5C260.236 524.506 269.564 524.509 278.893 524.509L306.876 524.506C317.605 524.506 328.331 524.511 339.059 524.511Z" fill="#7B3684"/>
<path d="M391.892 416.85C391.633 451.598 391.616 486.343 391.892 521.085C391.985 532.78 380.149 542.67 367.335 542.67C367.145 542.67 366.954 542.669 366.764 542.663C358.767 542.481 350.767 542.424 342.765 542.424C330.821 542.424 318.874 542.545 306.93 542.545C294.987 542.545 283.033 542.402 271.087 542.402C263.088 542.402 255.093 542.466 247.103 542.68C246.874 542.687 246.644 542.691 246.415 542.691C233.025 542.691 221.48 532.183 221.634 520.762C222.099 486.22 222.076 451.67 221.642 417.133C221.501 405.817 232.748 395.227 246.594 395.227C266.644 395.36 286.516 395.423 306.384 395.423C326.521 395.423 346.654 395.358 366.787 395.236C380.496 395.237 391.971 405.248 391.892 416.85ZM370.897 517.798C370.914 485.279 370.914 452.761 370.897 420.243C370.897 414.87 369.22 413.423 362.991 413.423C351.766 413.419 340.542 413.416 329.318 413.413H297.995H297.212C281.709 413.413 266.203 413.413 250.7 413.416C244.274 413.423 242.637 414.841 242.628 420.42C242.62 452.735 242.62 485.05 242.628 517.365C242.628 523.141 244.21 524.498 250.905 524.498C260.232 524.505 269.56 524.507 278.887 524.507L306.872 524.505C317.598 524.505 328.327 524.509 339.055 524.509H339.657H350.519C354.743 524.506 358.967 524.504 363.191 524.498C369.182 524.489 370.89 522.996 370.897 517.798Z" fill="#A95EA2"/>
<path d="M297.212 413.414H329.318L362.991 413.425C369.22 413.425 370.897 414.87 370.897 420.245C370.914 452.763 370.914 485.281 370.897 517.799C370.89 522.995 369.182 524.489 363.195 524.503C358.973 524.509 354.748 524.511 350.523 524.512L339.661 524.514H339.059C328.33 524.514 317.604 524.51 306.875 524.51L278.892 524.512C269.563 524.512 260.235 524.51 250.908 524.503C244.214 524.503 242.632 523.146 242.632 517.37C242.623 485.055 242.623 452.74 242.632 420.424C242.639 414.844 244.277 413.428 250.704 413.42C266.203 413.414 281.709 413.414 297.212 413.414Z" fill="#E2BBD7"/>
<path d="M391.892 521.088V534.214C391.985 545.908 380.149 555.799 367.335 555.799C367.145 555.799 366.954 555.797 366.764 555.792C358.767 555.609 350.767 555.553 342.765 555.553C330.821 555.553 318.874 555.673 306.93 555.673C294.987 555.673 283.033 555.53 271.087 555.53C263.088 555.53 255.093 555.594 247.103 555.809C246.874 555.817 246.644 555.819 246.415 555.819C233.025 555.819 221.48 545.311 221.634 533.891V520.766C221.48 532.184 233.026 542.694 246.415 542.694C246.644 542.694 246.873 542.691 247.103 542.683C255.094 542.469 263.088 542.405 271.087 542.405C283.034 542.405 294.987 542.548 306.93 542.548C318.875 542.548 330.822 542.427 342.765 542.427C350.766 542.427 358.766 542.483 366.764 542.667C366.955 542.672 367.145 542.674 367.335 542.674C380.15 542.674 391.986 532.783 391.892 521.088Z" fill="#7B3684"/>
<path d="M391.891 521.078V534.204C391.893 534.611 391.882 535.017 391.857 535.422V522.296C391.883 521.891 391.894 521.484 391.891 521.078ZM391.856 522.296V535.422C391.595 539.591 389.831 543.487 387.078 546.734V533.609C389.831 530.362 391.595 526.466 391.856 522.296ZM387.078 533.609V546.734C385.499 548.598 383.595 550.245 381.462 551.608V538.482C383.595 537.12 385.5 535.473 387.078 533.609ZM381.462 538.482V551.61C379.833 552.649 378.097 553.509 376.284 554.176V541.051C378.098 540.383 379.834 539.522 381.462 538.482ZM376.284 541.051V554.176C374.495 554.835 372.639 555.299 370.75 555.559V542.434C372.639 542.173 374.495 541.709 376.284 541.051Z" fill="#7B3684"/>
<path d="M370.752 542.441V555.567C369.43 555.745 368.097 555.82 366.764 555.792C358.767 555.609 350.767 555.552 342.765 555.552C330.821 555.552 318.874 555.673 306.93 555.673C294.987 555.673 283.033 555.53 271.087 555.53C263.088 555.53 255.093 555.594 247.103 555.809C246.874 555.817 246.644 555.819 246.415 555.819C233.025 555.819 221.48 545.311 221.634 533.891V520.766C221.48 532.184 233.026 542.693 246.415 542.693C246.644 542.693 246.873 542.691 247.103 542.683C255.094 542.468 263.088 542.405 271.087 542.405C283.034 542.405 294.987 542.548 306.93 542.548C318.875 542.548 330.822 542.427 342.765 542.427C350.766 542.427 358.766 542.483 366.764 542.667C368.097 542.696 369.43 542.621 370.752 542.441Z" fill="#7B3684"/>
<path d="M407.945 482.062V468.938C407.945 470.11 408.188 471.318 408.669 472.514C409.998 475.821 413.929 477.917 418.938 477.917C425.55 477.919 432.159 477.919 438.77 477.919C451.991 477.919 465.217 477.917 478.435 477.917H482.821V491.042H478.435C465.216 491.042 451.991 491.044 438.77 491.044C432.159 491.044 425.55 491.044 418.938 491.042C413.93 491.042 410 488.947 408.669 485.639C408.187 484.443 407.945 483.236 407.945 482.062Z" fill="#7B3684"/>
<path d="M482.812 477.917V491.042H478.427C465.209 491.042 451.984 491.044 438.762 491.044C432.151 491.044 425.542 491.044 418.931 491.042C413.922 491.042 409.991 488.947 408.661 485.639C408.18 484.443 407.938 483.236 407.938 482.062V468.938C407.938 470.11 408.18 471.318 408.661 472.514C409.991 475.821 413.921 477.917 418.931 477.917C425.542 477.919 432.151 477.919 438.762 477.919C451.984 477.919 465.209 477.917 478.427 477.917H482.812Z" fill="#7B3684"/>
<path d="M578.366 468.992V482.118C578.366 485.249 576.728 488.085 573.471 489.813C571.73 490.734 569.299 491 567.172 491.007C557.316 491.048 547.462 491.057 537.602 491.057C527.746 491.057 517.891 491.046 508.029 491.046H503.5V477.921H508.029C517.889 477.921 527.745 477.932 537.602 477.932C547.46 477.932 557.314 477.921 567.172 477.881C569.298 477.873 571.73 477.607 573.471 476.688C576.728 474.958 578.366 472.122 578.366 468.992Z" fill="#7B3684"/>
<path d="M578.367 468.992V482.118C578.367 482.297 578.362 482.476 578.351 482.654V469.528C578.362 469.35 578.367 469.171 578.367 468.992ZM578.349 469.527V482.652C578.25 484.432 577.57 486.13 576.414 487.487V474.361C577.571 473.005 578.251 471.306 578.349 469.527Z" fill="#7B3684"/>
<path d="M576.42 474.359V487.485C575.797 488.214 575.068 488.844 574.258 489.355V476.23C575.068 475.719 575.797 475.088 576.42 474.359Z" fill="#7B3684"/>
<path d="M574.251 476.227V489.352C574.003 489.512 573.742 489.663 573.469 489.808C573.18 489.96 572.87 490.097 572.547 490.215V477.09C572.863 476.976 573.171 476.84 573.469 476.683C573.742 476.539 574.003 476.387 574.251 476.227Z" fill="#7B3684"/>
<path d="M572.548 477.094V490.22C571.76 490.508 570.887 490.7 569.992 490.823V477.697C570.887 477.576 571.76 477.382 572.548 477.094Z" fill="#7B3684"/>
<path d="M569.998 477.695V490.821C569.063 490.943 568.121 491.004 567.179 491.003C557.322 491.044 547.468 491.053 537.61 491.053C527.752 491.053 517.897 491.042 508.037 491.042H503.508V477.917H508.037C517.896 477.917 527.752 477.928 537.61 477.928C547.466 477.928 557.32 477.917 567.179 477.878C568.122 477.879 569.063 477.818 569.998 477.695Z" fill="#7B3684"/>
<path d="M482.806 518.266V505.141C482.806 514.666 482.822 524.19 482.895 533.711C482.903 535.506 483.517 537.592 484.69 539.024C486.724 541.502 489.954 542.761 493.285 542.761C494.595 542.761 495.921 542.566 497.195 542.175C501.14 540.966 503.504 537.695 503.504 533.308V546.433C503.504 550.82 501.142 554.092 497.195 555.301C495.921 555.692 494.595 555.887 493.285 555.887C489.953 555.887 486.726 554.627 484.69 552.149C483.518 550.716 482.903 548.629 482.895 546.837C482.829 537.314 482.799 527.79 482.806 518.266Z" fill="#7B3684"/>
<path d="M503.504 533.305V546.43C503.504 546.671 503.496 546.907 503.484 547.14V534.015C503.498 533.781 503.504 533.545 503.504 533.305ZM503.484 534.015V547.14C503.353 549.295 502.63 551.152 501.414 552.588V539.463C502.63 538.027 503.353 536.17 503.484 534.015Z" fill="#7B3684"/>
<path d="M501.415 539.469V552.595C500.874 553.232 500.241 553.784 499.535 554.232V541.107C500.249 540.649 500.879 540.099 501.415 539.469ZM499.534 541.106V554.231C498.983 554.584 498.378 554.883 497.73 555.122V541.996C498.362 541.766 498.967 541.467 499.534 541.106ZM497.729 541.996V555.122C497.555 555.184 497.379 555.245 497.195 555.301C496.505 555.512 495.798 555.668 495.088 555.764V542.639C495.802 542.542 496.506 542.387 497.195 542.176C497.378 542.119 497.555 542.059 497.729 541.996ZM495.088 542.639V555.764C494.487 555.847 493.883 555.887 493.284 555.887C489.952 555.887 486.725 554.627 484.689 552.149C483.517 550.716 482.902 548.629 482.895 546.837C482.82 537.315 482.805 527.791 482.805 518.266V505.141C482.805 514.666 482.821 524.19 482.895 533.711C482.902 535.506 483.516 537.592 484.689 539.024C486.723 541.502 489.953 542.761 493.284 542.761C493.884 542.761 494.488 542.723 495.088 542.639Z" fill="#7B3684"/>
<path d="M493.322 395.219C497.115 395.219 500.425 396.728 502.338 399.699C503.29 401.174 503.449 403.172 503.456 404.93C503.536 422.002 503.504 439.079 503.504 456.149V460.009H567.513C572.49 460.009 576.655 462.359 577.822 465.798C579.278 470.115 577.813 474.385 573.473 476.689C571.733 477.609 569.301 477.876 567.174 477.882C557.317 477.92 547.461 477.937 537.604 477.933C527.748 477.933 517.893 477.922 508.031 477.922H503.502V481.782C503.502 498.96 503.518 516.133 503.502 533.305C503.502 537.69 501.14 540.963 497.194 542.171C495.927 542.56 494.609 542.757 493.283 542.758C489.951 542.758 486.724 541.499 484.689 539.02C483.517 537.588 482.901 535.5 482.894 533.708C482.758 516.338 482.814 498.959 482.814 481.582V477.92H478.427C465.209 477.92 451.983 477.923 438.762 477.923C432.15 477.923 425.542 477.921 418.93 477.92C413.922 477.92 409.992 475.825 408.661 472.518C407.022 468.439 408.156 464.234 412.196 461.674C413.834 460.638 416.244 460.086 418.306 460.07C429.309 460.007 440.315 459.994 451.316 459.994C460.379 459.994 469.435 460.004 478.496 460.004H482.81V456.627C482.81 439.257 482.802 421.88 482.81 404.502C482.81 400.11 485.472 396.666 489.59 395.671C490.813 395.377 492.065 395.225 493.322 395.219Z" fill="#A95EA2"/>
</svg>
