<svg width="800" height="800" viewBox="0 0 800 800" fill="none" xmlns="http://www.w3.org/2000/svg">
<path d="M776.373 385.57V412.914C776.373 423.329 771.655 433.744 762.205 441.927C652.713 536.788 543.182 631.61 433.7 726.473C424.468 734.471 413.533 738.583 400.531 738.583V711.24C413.533 711.24 424.468 707.127 433.7 699.13C543.183 604.266 652.71 509.44 762.205 414.583C771.655 406.401 776.373 395.989 776.373 385.57Z" fill="#4E88C7"/>
<path d="M23.625 412.781V410.047V408.68V405.945V403.211V401.844V399.109V396.375V395.008V392.273V389.539V388.172V385.438C23.625 396.929 28.8602 408.338 38.4977 416.703C146.663 510.503 254.943 604.2 363.155 697.966C373.313 706.766 385.609 710.833 400.541 711.245V738.59C385.612 738.177 373.313 734.107 363.155 725.31C254.942 631.543 146.661 537.847 38.4977 444.047C28.8594 435.683 23.625 424.272 23.625 412.781Z" fill="#4E88C7"/>
<path d="M399.046 59.8438C411.752 59.8438 424.473 64.0328 434.16 72.4195C543.495 167.098 652.832 261.775 762.144 356.47C781.081 372.872 781.124 398.199 762.205 414.591C652.713 509.452 543.18 604.277 433.698 699.137C424.467 707.137 413.532 711.248 400.531 711.248C385.602 710.836 373.304 706.769 363.146 697.972C254.934 604.204 146.652 510.507 38.4892 416.707C23.1931 403.435 18.9899 382.48 29.1962 365.729C32.2587 360.7 35.9688 356.487 40.497 352.565C148.395 259.166 256.262 165.743 364.14 72.3172C373.747 64.0047 386.389 59.8438 399.046 59.8438Z" fill="#48C0EE"/>
<path d="M414.158 279.199L412.016 277.734L414.158 266.075L412.016 264.609C413.11 264.751 413.542 265.544 414.158 266.075L414.331 266.226V279.348C414.273 279.299 414.215 279.25 414.158 279.199Z" fill="#96D5F4"/>
<path d="M460.667 319.431C445.162 306.13 429.772 292.715 414.329 279.354V277.82V277.018V275.356V273.648V271.927V270.221V268.561V266.98V266.228C429.772 279.59 445.162 293.003 460.667 306.306V319.431ZM460.667 319.431V319.42V319.409V319.398V319.387V319.376V319.365V319.354V319.342V317.819V316.202V314.527V312.819V311.11V309.436V307.82V306.295C460.758 306.373 460.85 306.453 460.941 306.53C461.876 307.331 462.328 307.926 462.328 308.523V321.648C462.328 321.051 461.876 320.457 460.941 319.655C460.847 319.584 460.756 319.509 460.667 319.431ZM390.302 351.769V361.877C390.295 322.062 390.295 282.252 390.234 242.445V229.32C390.298 269.129 390.298 308.937 390.302 348.752V351.769Z" fill="#96D5F4"/>
<path d="M462.329 308.531V321.656C462.329 322.25 461.882 322.847 461.015 323.655C445.287 338.292 429.68 353.029 414.032 367.726C413.489 368.238 412.93 368.729 412.016 369.561V356.436C412.93 355.604 413.489 355.114 414.032 354.601C429.679 339.903 445.287 325.166 461.015 310.53C461.882 309.723 462.329 309.126 462.329 308.531Z" fill="#96D5F4"/>
<path d="M412.018 264.609C413.112 264.752 413.545 265.544 414.16 266.076C429.753 279.565 445.29 293.11 460.944 306.538C462.802 308.135 462.754 308.905 461.015 310.527C445.287 325.163 429.68 339.901 414.032 354.598C413.489 355.11 412.93 355.601 412.016 356.433C412.018 325.585 412.018 295.127 412.018 264.609Z" fill="#48C0EE"/>
<path d="M491.298 308.168V321.293C491.298 322.511 490.658 323.741 489.375 324.95C466.844 346.125 444.36 367.336 421.712 388.417C420.661 389.395 420.186 390.126 420.186 390.805V377.68C420.186 376.999 420.661 376.271 421.712 375.291C444.36 354.211 466.846 333 489.375 311.826C490.658 310.617 491.298 309.387 491.298 308.168ZM387.98 378.077V391.202C387.98 390.579 387.505 389.93 386.479 389.045C361.255 367.316 336.149 345.478 311.012 323.66C309.52 322.365 308.773 321.059 308.773 319.757V306.633C308.773 307.934 309.52 309.241 311.012 310.535C336.149 332.354 361.257 354.192 386.479 375.919C387.505 376.806 387.98 377.455 387.98 378.077ZM412.152 411.783C412.067 411.783 411.975 411.787 411.876 411.802V398.677C411.975 398.662 412.066 398.657 412.152 398.657C412.969 398.656 413.231 399.259 413.633 399.602C413.749 399.706 413.866 399.806 413.983 399.906V413.031C413.866 412.931 413.749 412.827 413.633 412.727C413.233 412.385 412.969 411.781 412.152 411.783Z" fill="#96D5F4"/>
<path d="M413.977 413.031V399.906C429.54 413.385 445.063 426.909 460.681 440.333C460.683 444.686 460.694 449.038 460.681 453.391V453.463C445.063 440.03 429.542 426.511 413.977 413.031Z" fill="#96D5F4"/>
<path d="M460.686 453.456V453.448V453.438V453.43V453.42V453.411V453.4V453.391V453.383C460.698 449.03 460.687 444.68 460.686 440.325C460.759 440.392 460.837 440.455 460.913 440.522C461.845 441.32 462.332 441.914 462.33 442.537V455.662C462.332 455.043 461.845 454.448 460.913 453.647C460.835 453.585 460.76 453.522 460.686 453.456ZM308.664 462.613V449.488C308.664 450.759 309.447 452.035 311.011 453.395C313.152 455.259 315.279 457.125 317.422 458.988C318.955 460.323 320.429 460.989 321.901 460.989C323.37 460.989 324.84 460.326 326.367 459.002C346.647 441.407 366.917 423.811 387.195 406.221C388.061 405.47 388.974 404.774 390.305 403.703V416.828C388.975 417.9 388.062 418.595 387.195 419.346C366.916 436.936 346.647 454.532 326.367 472.126C324.84 473.451 323.37 474.114 321.901 474.114C320.429 474.114 318.958 473.448 317.422 472.113C315.28 470.25 313.154 468.384 311.011 466.521C309.448 465.16 308.664 463.884 308.664 462.613Z" fill="#96D5F4"/>
<path d="M462.33 442.539V455.664C462.33 456.235 461.914 456.831 461.047 457.64C444.753 472.788 428.591 488.044 411.875 503.75V490.625C428.591 474.919 444.753 459.659 461.047 444.515C461.914 443.709 462.33 443.112 462.33 442.539Z" fill="#96D5F4"/>
<path d="M488.269 437.61C492.237 441.055 492.348 443.007 488.632 446.506C458.989 474.371 429.34 502.229 399.708 530.097C398.427 531.304 397.224 532.388 395.101 532.388C391.721 532.199 390.217 531.102 390.264 528.476C390.296 526.759 390.296 525.039 390.296 523.325C390.304 484.726 390.304 446.124 390.304 407.528V403.712C388.974 404.782 388.061 405.477 387.194 406.229C366.915 423.819 346.646 441.414 326.367 459.009C324.84 460.333 323.369 460.998 321.9 460.998C320.428 460.998 318.957 460.33 317.422 458.995C315.28 457.133 313.154 455.266 311.011 453.403C307.915 450.709 307.878 448.348 310.923 445.696C336.061 423.887 361.174 402.048 386.383 380.299C388.351 378.592 388.627 377.774 386.476 375.921C361.253 354.194 336.147 332.356 311.01 310.537C308.049 307.966 308.026 305.364 310.933 302.826C313.151 300.889 315.358 298.951 317.588 297.021C319.03 295.768 320.469 295.138 321.908 295.138C323.348 295.138 324.793 295.767 326.24 297.027C346.524 314.609 366.795 332.207 387.053 349.82C387.926 350.577 388.525 351.575 389.258 352.46C389.604 352.227 389.951 352.003 390.305 351.777V348.757C390.297 308.942 390.297 269.133 390.237 229.326C390.237 227.347 390.465 225.459 392.716 224.818C393.446 224.61 394.173 224.492 394.894 224.492C396.33 224.492 397.736 224.959 399.057 226.112C429.069 252.274 459.167 278.36 489.243 304.473C491.936 306.813 491.991 309.365 489.377 311.827C466.846 333.002 444.362 354.212 421.715 375.293C419.448 377.407 419.858 378.355 421.953 380.161C444.115 399.263 466.18 418.445 488.269 437.61ZM461.045 444.518C462.849 442.841 462.709 442.07 460.914 440.53C445.101 426.937 429.389 413.251 413.632 399.603C413.232 399.258 412.969 398.655 412.151 398.655C412.058 398.656 411.966 398.663 411.874 398.677V490.63C428.594 474.923 444.753 459.666 461.045 444.518ZM412.016 264.617V356.439C412.93 355.609 413.488 355.117 414.033 354.605C429.68 339.908 445.288 325.17 461.015 310.534C462.755 308.912 462.803 308.141 460.944 306.546C445.289 293.118 429.751 279.572 414.161 266.083C413.544 265.55 413.111 264.757 412.016 264.617Z" fill="#ECF7FB"/>
<path d="M412.156 398.648C412.974 398.647 413.235 399.251 413.638 399.594C429.395 413.24 445.106 426.927 460.92 440.519C462.715 442.062 462.856 442.833 461.054 444.509C444.76 459.655 428.599 474.912 411.883 490.619V398.666C411.979 398.653 412.07 398.648 412.156 398.648Z" fill="#48C0EE"/>
<path d="M491.337 442.156V455.282C491.337 456.596 490.434 457.926 488.634 459.626C458.991 487.491 429.342 515.348 399.71 543.216C398.429 544.423 397.226 545.507 395.104 545.507V532.382C397.224 532.382 398.429 531.298 399.71 530.091C429.343 502.223 458.994 474.366 488.634 446.501C490.434 444.801 491.337 443.469 491.337 442.156ZM390.266 541.709V528.584C390.266 531.125 391.775 532.194 395.103 532.378V545.503C391.775 545.319 390.266 544.25 390.266 541.709Z" fill="#96D5F4"/>
</svg>
