<svg width="800" height="800" viewBox="0 0 800 800" fill="none" xmlns="http://www.w3.org/2000/svg">
<path d="M776.374 385.57V412.914C776.374 423.329 771.655 433.745 762.206 441.927C652.715 536.788 543.183 631.611 433.698 726.473C424.47 734.471 413.532 738.583 400.531 738.583V711.24C413.534 711.24 424.47 707.127 433.698 699.13C543.184 604.267 652.711 509.44 762.206 414.585C771.655 406.401 776.374 395.989 776.374 385.57Z" fill="#56C1D5"/>
<path d="M23.625 412.781V410.047V408.68V405.945V403.211V401.844V399.109V396.375V395.008V392.273V389.539V388.172V385.438C23.625 396.927 28.8602 408.338 38.4977 416.702C146.66 510.502 254.942 604.199 363.155 697.968C373.313 706.765 385.609 710.832 400.541 711.244V738.588C385.612 738.176 373.313 734.108 363.155 725.312C254.942 631.543 146.661 537.846 38.4977 444.046C28.8594 435.683 23.625 424.271 23.625 412.781Z" fill="#56C1D5"/>
<path d="M399.053 59.8438C411.759 59.8438 424.48 64.0328 434.167 72.4195C543.502 167.098 652.839 261.776 762.15 356.471C781.088 372.873 781.131 398.2 762.212 414.593C652.72 509.453 543.189 604.279 433.706 699.138C424.476 707.137 413.539 711.249 400.541 711.249C385.612 710.837 373.312 706.77 363.155 697.973C254.942 604.204 146.661 510.507 38.4977 416.707C23.2001 403.436 18.9977 382.48 29.2047 365.73C32.2665 360.7 35.9774 356.488 40.5055 352.566C148.403 259.166 256.27 165.743 364.148 72.3172C373.754 64.0055 386.396 59.8438 399.053 59.8438Z" fill="#75C8D6"/>
<path d="M315.241 259.227C328.258 279.852 341.109 300.223 353.521 319.877C348.104 324.528 342.686 329.176 337.266 333.824C314.697 323.13 291.095 311.959 267.328 300.706C279.669 283.745 295.473 270.003 315.241 259.227Z" fill="#DAEFF4"/>
<path d="M397.716 362.885C397.585 362.885 397.456 362.889 397.328 362.892C397.334 358.517 397.334 354.142 397.328 349.767L397.716 349.759C397.83 349.758 397.943 349.757 398.088 349.758C398.707 349.758 399.332 349.778 399.959 349.824V362.949C399.212 362.897 398.464 362.875 397.716 362.885Z" fill="#6CBEE5"/>
<path d="M399.963 349.825V362.95C399.34 362.906 398.716 362.884 398.091 362.884L397.72 362.885C396.602 362.899 395.502 362.982 394.422 363.128V350.003C396.258 349.754 398.114 349.694 399.963 349.825Z" fill="#6CBEE5"/>
<path d="M401.773 362.89C401.15 362.891 400.557 362.911 399.961 362.952V349.827C400.564 349.786 401.168 349.765 401.773 349.766V362.89Z" fill="#6CBEE5"/>
<path d="M428.337 374.127V387.252C428.358 374.735 416.44 363.073 402.126 362.892C402.012 362.891 401.902 362.89 401.786 362.89C401.161 362.891 400.562 362.911 399.961 362.952V349.827C400.562 349.785 401.162 349.766 401.786 349.766L402.126 349.767C416.44 349.948 428.359 361.612 428.337 374.127Z" fill="#6CBEE5"/>
<path d="M397.33 362.898C383.008 363.283 371.483 374.971 371.453 387.138V374.013C371.482 361.846 383.008 350.157 397.33 349.773C397.336 354.148 397.336 358.523 397.33 362.898Z" fill="#6CBEE5"/>
<path d="M399.962 349.825V362.95C399.339 362.906 398.715 362.884 398.091 362.884L397.719 362.885C396.602 362.899 395.502 362.982 394.421 363.128V350.003C396.257 349.754 398.114 349.694 399.962 349.825ZM394.421 350.005V363.13C392.465 363.397 390.543 363.876 388.691 364.557V351.432C390.544 350.751 392.465 350.272 394.421 350.005ZM388.691 351.432V364.557C386.804 365.251 384.998 366.148 383.305 367.232V354.107C384.998 353.024 386.804 352.128 388.691 351.432Z" fill="#6CBEE5"/>
<path d="M383.309 354.109V367.234C380.987 368.718 378.9 370.541 377.117 372.643V359.517C378.899 357.415 380.987 355.592 383.309 354.109Z" fill="#6CBEE5"/>
<path d="M377.113 359.523V372.648C373.844 376.513 371.792 381.176 371.491 385.966V372.841C371.791 368.049 373.844 363.387 377.113 359.523ZM371.491 372.841V385.966C371.467 386.357 371.454 386.749 371.453 387.141V374.016C371.452 373.623 371.465 373.231 371.491 372.841Z" fill="#6CBEE5"/>
<path d="M401.773 362.894V362.882V362.869V362.857V362.843V362.831V362.817V362.805V362.794V361.271V359.659V357.984V356.279V354.573V352.9V351.286V349.766H401.788C401.902 349.766 402.013 349.766 402.127 349.768C416.44 349.948 428.358 361.613 428.338 374.127V387.252C428.338 387.122 428.338 386.992 428.334 386.862V386.734V386.6V386.459V386.315V386.173V386.031V385.895V385.767V386.862C428.113 374.495 416.289 363.072 402.127 362.893C402.013 362.892 401.904 362.891 401.788 362.891C401.783 362.894 401.778 362.894 401.773 362.894Z" fill="#6CBEE5"/>
<path d="M428.337 374.127V387.252C428.358 374.735 416.44 363.073 402.126 362.892C402.012 362.891 401.902 362.89 401.786 362.89C401.161 362.891 400.562 362.911 399.961 362.952V349.827C400.562 349.785 401.162 349.766 401.786 349.766L402.126 349.767C416.44 349.948 428.359 361.612 428.337 374.127Z" fill="#6CBEE5"/>
<path d="M455.289 373.666C455.293 373.875 455.294 374.081 455.294 374.289C455.305 400.612 431.624 421.39 400.299 422.129C400.071 422.134 399.843 422.138 399.615 422.142C399.391 422.143 399.164 422.145 398.943 422.145C369.683 421.976 344.436 400.109 344.344 375.006C344.343 374.807 344.344 374.609 344.346 374.41C344.677 347.533 368.216 326.909 399.832 325.852C429.744 326.752 454.889 345.431 455.289 373.666ZM400.242 398.666C415.21 398.487 428.319 386.936 428.337 374.13C428.357 361.615 416.439 349.951 402.126 349.77L401.786 349.769C401.16 349.77 400.562 349.789 399.96 349.831C399.338 349.787 398.714 349.765 398.089 349.765L397.717 349.766C383.217 349.948 371.482 361.737 371.453 374.014C371.421 387.067 384.84 398.64 399.834 398.669C400.006 398.669 400.124 398.669 400.242 398.666Z" fill="#B2DFEB"/>
<path d="M398.943 422.146V435.271C369.683 435.102 344.436 413.234 344.344 388.133V375.008C344.438 400.109 369.684 421.977 398.943 422.146Z" fill="#5996CE"/>
<path d="M398.943 422.146V435.271C369.683 435.102 344.436 413.234 344.344 388.133V375.008C344.438 400.109 369.684 421.977 398.943 422.146Z" fill="#5996CE"/>
<path d="M455.296 374.281V387.408C455.307 413.729 431.626 434.508 400.301 435.246C400.073 435.251 399.845 435.255 399.617 435.259C399.393 435.261 399.166 435.262 398.945 435.262V422.137C399.168 422.137 399.395 422.135 399.617 422.134C399.845 422.13 400.073 422.126 400.301 422.121C431.626 421.384 455.306 400.604 455.296 374.281Z" fill="#5996CE"/>
<path d="M455.294 374.281V387.408C455.295 388.311 455.268 389.215 455.213 390.117V376.991C455.268 376.089 455.295 375.185 455.294 374.281ZM455.213 376.991L455.212 390.116C454.616 399.692 450.866 408.444 444.766 415.637V402.512C450.866 395.319 454.617 386.566 455.213 376.991Z" fill="#5996CE"/>
<path d="M444.77 402.523V415.648C441.536 419.462 437.645 422.836 433.216 425.666V412.541C437.645 409.711 441.536 406.336 444.77 402.523ZM433.214 412.541V425.666C429.75 427.88 425.958 429.759 421.891 431.252V418.127C425.958 416.633 429.75 414.755 433.214 412.541Z" fill="#5996CE"/>
<path d="M421.892 418.117V431.242C417.602 432.818 413.009 433.966 408.18 434.623V421.498C413.008 420.841 417.601 419.694 421.892 418.117Z" fill="#5996CE"/>
<path d="M408.178 421.508V434.633C405.616 434.982 402.986 435.193 400.301 435.256C400.073 435.261 399.845 435.265 399.617 435.269C399.393 435.27 399.166 435.272 398.945 435.272V422.147C399.169 422.147 399.395 422.145 399.617 422.144C399.845 422.139 400.073 422.136 400.301 422.131C402.936 422.071 405.566 421.863 408.178 421.508Z" fill="#5996CE"/>
<path d="M462.469 427.33C458.103 431.077 454.044 434.572 449.879 438.151C449.876 434.757 449.869 434.396 449.734 425.151C453.949 421.526 458.052 417.996 462.469 414.203V427.33Z" fill="#5996CE"/>
<path d="M462.465 414.211V427.338C456.849 432.158 451.739 436.557 446.266 441.262V428.136C451.741 423.43 456.851 419.031 462.465 414.211Z" fill="#5996CE"/>
<path d="M449.874 438.155C448.684 439.181 447.483 440.212 446.266 441.261V428.136C447.434 427.13 448.587 426.139 449.731 425.156C449.865 434.4 449.871 434.76 449.874 438.155Z" fill="#5996CE"/>
<path d="M462.465 414.211V427.338C456.849 432.158 451.739 436.557 446.266 441.262V428.136C451.741 423.43 456.851 419.031 462.465 414.211Z" fill="#5996CE"/>
<path d="M542.465 430.972V444.098C518.974 432.974 495.5 421.857 471.984 410.727V397.602C495.499 408.733 518.974 419.849 542.465 430.972Z" fill="#5996CE"/>
<path d="M542.465 430.972V444.098C518.974 432.974 495.5 421.857 471.984 410.727V397.602C495.499 408.733 518.974 419.849 542.465 430.972Z" fill="#5996CE"/>
<path d="M557.459 374.125V387.25C557.411 406.677 552.479 426.113 542.469 444.104V430.978C552.479 412.988 557.411 393.551 557.459 374.125Z" fill="#5996CE"/>
<path d="M557.46 374.125V387.25C557.453 389.467 557.385 391.688 557.252 393.903V380.777C557.385 378.561 557.453 376.344 557.46 374.125ZM557.252 380.777V393.903C556.22 411.096 551.337 428.166 542.469 444.105V430.979C551.337 415.041 556.22 397.97 557.252 380.777Z" fill="#5996CE"/>
<path d="M399.836 237.469C437.628 237.527 476.215 249.293 507.398 274.53C540.435 301.268 557.545 337.677 557.455 374.126C557.407 393.552 552.475 412.988 542.466 430.979C518.974 419.856 495.501 408.738 471.984 397.609C474.572 389.223 476.037 381.06 476.07 373.181C476.142 356.459 469.782 341.007 454.131 327.369C453.88 327.151 453.63 326.935 453.378 326.72C453.153 326.529 452.929 326.341 452.704 326.152C452.113 325.661 451.517 325.177 450.914 324.702C436.041 313.042 419.557 308.184 401.674 308.102C391.952 308.115 382.472 309.359 372.673 311.588C359.877 291.313 347.04 270.963 334.188 250.612L335.286 250.145L336.299 249.722C355.742 241.709 377.551 237.498 399.836 237.469Z" fill="#B2DFEB"/>
<path d="M426.27 449.505C425.616 449.688 424.965 449.862 424.312 450.03C424.264 445.667 424.219 441.305 424.172 436.94C424.872 436.762 425.57 436.575 426.271 436.38C426.498 436.315 426.722 436.252 426.948 436.188V449.312C426.722 449.38 426.498 449.443 426.27 449.505Z" fill="#5996CE"/>
<path d="M426.945 436.195V449.321C426.719 449.387 426.495 449.449 426.267 449.513C421.866 450.742 417.386 451.672 412.859 452.297V439.17C417.387 438.548 421.866 437.619 426.267 436.387C426.495 436.323 426.719 436.261 426.945 436.195Z" fill="#5996CE"/>
<path d="M399.913 453.179C357.242 452.851 323.377 424.021 323.375 387.237V374.109C323.375 410.894 357.238 439.723 399.909 440.053C399.914 444.429 399.913 448.804 399.913 453.179Z" fill="#5996CE"/>
<path d="M412.863 439.165V452.29C408.612 452.874 404.325 453.171 400.034 453.179C357.304 452.904 323.375 424.053 323.375 387.233V374.109C323.375 410.928 357.304 439.78 400.034 440.053C404.325 440.045 408.611 439.749 412.863 439.165Z" fill="#5996CE"/>
<path d="M399.909 453.18C399.909 448.803 399.91 444.43 399.906 440.054H400.03C407.848 440.044 415.953 439.052 424.17 436.945C424.216 441.309 424.262 445.672 424.311 450.035C416.045 452.167 407.891 453.171 400.03 453.18H399.909Z" fill="#5996CE"/>
<path d="M426.945 436.195V449.321C426.719 449.387 426.495 449.449 426.267 449.513C421.866 450.742 417.386 451.672 412.859 452.297V439.17C417.387 438.548 421.866 437.619 426.267 436.387C426.495 436.323 426.719 436.261 426.945 436.195Z" fill="#5996CE"/>
<path d="M412.863 439.165V452.29C408.612 452.874 404.325 453.171 400.034 453.179C357.304 452.904 323.375 424.053 323.375 387.233V374.109C323.375 410.928 357.304 439.78 400.034 440.053C404.325 440.045 408.611 439.749 412.863 439.165Z" fill="#5996CE"/>
<path d="M532.477 447.349V460.474C508.568 449.154 484.991 437.988 462.469 427.338V414.211C484.991 424.862 508.57 436.027 532.477 447.349Z" fill="#5996CE"/>
<path d="M532.477 447.349V460.474C508.568 449.154 484.991 437.988 462.469 427.338V414.211C484.991 424.862 508.57 436.027 532.477 447.349Z" fill="#5996CE"/>
<path d="M296.448 476.665V489.792C261.017 463.135 242.279 425.198 242.383 386.984V373.859C242.278 412.073 261.018 450.01 296.448 476.665Z" fill="#5996CE"/>
<path d="M296.448 476.665V489.792C261.017 463.135 242.279 425.198 242.383 386.984V373.859C242.278 412.073 261.018 450.01 296.448 476.665Z" fill="#5996CE"/>
<path d="M462.467 414.211C484.99 424.863 508.566 436.028 532.476 447.348C520.016 464.415 504.204 478.155 484.555 488.82C471.585 468.265 458.693 447.827 446.266 428.136C451.742 423.43 456.852 419.031 462.467 414.211Z" fill="#DAEFF4"/>
<path d="M532.475 447.352V460.477C520.016 477.543 504.203 491.284 484.555 501.949V488.824C504.203 478.156 520.016 464.417 532.475 447.352Z" fill="#5996CE"/>
<path d="M532.474 447.352V460.477C530.451 463.249 528.328 465.946 526.109 468.563V455.438C528.328 452.821 530.451 450.124 532.474 447.352ZM526.109 455.436V468.561C517.074 479.21 506.514 488.404 494.289 496.213V483.088C506.514 475.278 517.073 466.085 526.109 455.436Z" fill="#5996CE"/>
<path d="M494.288 483.078V496.203C491.113 498.23 487.866 500.143 484.555 501.94V488.814C487.866 487.018 491.113 485.104 494.288 483.078Z" fill="#5996CE"/>
<path d="M484.555 488.817V501.943C471.585 481.387 458.693 460.948 446.266 441.258V428.133C458.693 447.823 471.585 468.262 484.555 488.817Z" fill="#5996CE"/>
<path d="M484.555 488.817V501.943C471.585 481.387 458.693 460.948 446.266 441.258V428.133C458.693 447.823 471.585 468.262 484.555 488.817Z" fill="#5996CE"/>
<path d="M465.567 497.364V510.489C452.675 490.07 439.791 469.659 426.945 449.32V436.195C439.791 456.533 452.675 476.946 465.567 497.364Z" fill="#5996CE"/>
<path d="M465.567 497.364V510.489C452.675 490.07 439.791 469.659 426.945 449.32V436.195C439.791 456.533 452.675 476.946 465.567 497.364Z" fill="#5996CE"/>
<path d="M257.292 317.078C280.869 328.234 304.423 339.38 327.922 350.496C327.67 351.153 327.428 351.813 327.195 352.477C310.84 398.982 349.215 439.731 399.333 440.055C408.522 440.048 417.334 438.88 426.271 436.388C426.497 436.324 426.723 436.262 426.949 436.195C439.794 456.534 452.677 476.945 465.571 497.365C445.869 505.904 423.271 510.504 399.965 510.527C365.742 510.449 330.675 500.843 300.724 479.784C300.083 479.333 299.445 478.878 298.811 478.418C298.131 477.923 297.843 477.711 297.554 477.498C297.183 477.223 296.815 476.95 296.448 476.671C261.017 450.016 242.279 412.079 242.383 373.865C242.436 354.534 247.314 335.13 257.292 317.078Z" fill="#B2DFEB"/>
<path d="M465.567 497.366V510.491C445.865 519.03 423.267 523.63 399.962 523.655C365.739 523.575 330.672 513.969 300.721 492.909C300.08 492.459 299.442 492.004 298.808 491.544C298.128 491.049 297.841 490.837 297.551 490.623C297.181 490.35 296.812 490.076 296.445 489.798V476.672C296.812 476.949 297.181 477.224 297.551 477.498C297.841 477.71 298.129 477.923 298.808 478.419C299.442 478.879 300.083 479.336 300.721 479.784C330.672 500.842 365.741 510.45 399.962 510.528C423.267 510.505 445.867 505.905 465.567 497.366Z" fill="#5996CE"/>
<path d="M465.57 497.359V510.484C462.989 511.602 460.376 512.646 457.736 513.616V500.491C460.392 499.515 463.005 498.47 465.57 497.359ZM457.734 500.492V513.619C446.969 517.574 435.476 520.411 423.578 522.037V508.912C435.477 507.285 446.969 504.448 457.734 500.492Z" fill="#5996CE"/>
<path d="M423.577 508.916V522.041C415.75 523.109 407.861 523.647 399.962 523.653C365.739 523.574 330.672 513.968 300.721 492.909C300.08 492.458 299.442 492.003 298.809 491.542C298.128 491.048 297.841 490.835 297.551 490.623C297.18 490.348 296.812 490.075 296.445 489.798V476.672C296.812 476.948 297.18 477.223 297.551 477.498C297.841 477.709 298.129 477.923 298.809 478.417C299.443 478.877 300.083 479.335 300.721 479.784C330.672 500.841 365.741 510.449 399.962 510.527C407.861 510.522 415.75 509.984 423.577 508.916Z" fill="#5996CE"/>
<path d="M399.807 219.57C498.265 219.565 578.506 289.106 578.252 374.337C578.008 459.875 497.339 528.55 399.716 528.55C301.983 528.435 220.674 459.218 221.761 373.894C220.95 288.855 301.41 219.686 399.807 219.57ZM471.989 397.605C495.505 408.734 518.979 419.851 542.471 430.974C552.48 412.984 557.412 393.547 557.461 374.121C557.55 337.673 540.44 301.264 507.404 274.525C476.22 249.287 437.633 237.522 400.351 237.464C377.555 237.491 355.753 241.701 336.304 249.719C335.966 249.858 335.629 249.999 335.291 250.141C334.926 250.295 334.558 250.451 334.194 250.607C347.046 270.957 359.88 291.309 372.68 311.584C382.476 309.356 391.96 308.111 401.081 308.099C419.562 308.181 436.046 313.04 450.76 324.574C451.518 325.17 452.115 325.655 452.708 326.15C452.935 326.338 453.158 326.527 453.383 326.719C453.633 326.934 453.886 327.15 454.137 327.367C469.787 341.006 476.147 356.456 476.076 373.179C476.041 381.058 474.58 389.219 471.989 397.605ZM399.368 510.524C423.277 510.502 445.867 505.901 465.572 497.362C452.68 476.943 439.796 456.53 426.95 436.192C426.723 436.259 426.5 436.32 426.272 436.384C417.336 438.875 408.517 440.047 400.034 440.052C349.213 439.728 310.841 398.978 327.195 352.473C327.428 351.809 327.671 351.148 327.923 350.491C304.425 339.375 280.869 328.23 257.293 317.074C247.313 335.125 242.437 354.529 242.382 373.861C242.276 412.076 261.016 450.011 296.447 476.668C296.815 476.944 297.183 477.219 297.552 477.494C297.844 477.705 298.13 477.919 298.42 478.13C299.444 478.872 300.085 479.33 300.723 479.779C330.676 500.837 365.741 510.446 399.368 510.524ZM399.838 325.845C368.221 326.903 344.682 347.526 344.351 374.404C344.351 374.601 344.35 374.8 344.351 374.998C344.441 400.099 369.69 421.966 398.603 422.137C399.173 422.137 399.396 422.135 399.622 422.134C399.85 422.131 400.077 422.126 400.305 422.12C431.628 421.381 455.308 400.604 455.3 374.28C455.3 374.073 455.298 373.866 455.296 373.658C454.893 345.425 429.747 326.746 399.838 325.845ZM484.557 488.816C504.204 478.148 520.018 464.409 532.477 447.342C508.569 436.022 484.991 424.857 462.469 414.205C456.853 419.026 451.743 423.426 446.27 428.13C458.695 447.821 471.587 468.261 484.557 488.816ZM315.245 259.227C295.479 270.003 279.675 283.746 267.334 300.707C291.101 311.959 314.702 323.13 337.272 333.824C342.878 329.017 348.078 324.556 353.526 319.877C341.114 300.224 328.262 279.852 315.245 259.227Z" fill="#6CBEE5"/>
<path d="M578.253 374.341V387.466C578.008 473.005 497.339 541.679 399.716 541.679C301.983 541.563 220.675 472.347 221.761 387.023V373.898C220.673 459.223 301.983 528.438 399.716 528.554C497.339 528.554 578.009 459.88 578.253 374.341Z" fill="#5996CE"/>
<path d="M578.252 374.344V387.469C578.244 390.185 578.155 392.882 577.988 395.56V382.435C578.155 379.757 578.244 377.059 578.252 374.344ZM577.988 382.435V395.56C576.052 426.477 563.598 454.914 543.742 478.32V465.195C563.598 441.788 576.053 413.353 577.988 382.435Z" fill="#5996CE"/>
<path d="M543.747 465.188V478.312C533.007 490.974 520.098 502.166 505.522 511.482V498.357C520.1 489.042 533.007 477.851 543.747 465.188ZM505.522 498.357V511.482C494.31 518.648 482.113 524.702 469.148 529.466V516.341C482.114 511.577 494.312 505.522 505.522 498.357Z" fill="#5996CE"/>
<path d="M469.149 516.346V529.471C455.98 534.31 442.019 537.818 427.511 539.8V526.674C442.019 524.691 455.979 521.185 469.149 516.346ZM427.509 526.674V539.8C418.298 541.054 409.012 541.682 399.716 541.679C301.983 541.563 220.674 472.347 221.761 387.023V373.898C220.673 459.223 301.983 528.438 399.716 528.554C409.012 528.556 418.298 527.928 427.509 526.674Z" fill="#5996CE"/>
</svg>
