<svg width="800" height="800" viewBox="0 0 800 800" fill="none" xmlns="http://www.w3.org/2000/svg">
<path d="M776.373 385.57V412.914C776.373 423.329 771.654 433.745 762.205 441.927C652.713 536.788 543.181 631.611 433.699 726.473C424.469 734.471 413.533 738.583 400.531 738.583V711.24C413.533 711.24 424.469 707.127 433.699 699.13C543.181 604.267 652.709 509.44 762.205 414.585C771.654 406.401 776.373 395.989 776.373 385.57Z" fill="#F7D987"/>
<path d="M23.625 412.781V410.047V408.68V405.945V403.211V401.844V399.109V396.375V395.008V392.273V389.539V388.172V385.438C23.625 396.927 28.8602 408.338 38.4984 416.702C146.662 510.502 254.943 604.199 363.156 697.968C373.314 706.765 385.609 710.832 400.542 711.244V738.588C385.613 738.176 373.314 734.108 363.156 725.312C254.942 631.543 146.661 537.846 38.4977 444.046C28.8594 435.683 23.625 424.271 23.625 412.781Z" fill="#F7D987"/>
<path d="M399.047 59.8438C411.752 59.8438 424.473 64.0328 434.161 72.4195C543.495 167.098 652.832 261.776 762.143 356.471C781.081 372.873 781.124 398.2 762.204 414.593C652.712 509.452 543.181 604.278 433.698 699.138C424.468 707.137 413.532 711.249 400.532 711.249C385.603 710.837 373.304 706.77 363.146 697.973C254.935 604.204 146.654 510.507 38.4897 416.707C23.1928 403.436 18.9897 382.48 29.1967 365.73C32.2585 360.7 35.9694 356.488 40.4975 352.566C148.395 259.167 256.263 165.744 364.14 72.318C373.747 64.0047 386.39 59.8438 399.047 59.8438Z" fill="#F5F18A"/>
<path d="M524.499 339.381C500.514 336.408 476.534 333.392 452.531 330.514V328.981V327.355V325.667V323.949V322.233V320.546V318.921V317.391C476.532 320.27 500.514 323.285 524.499 326.257C532.099 327.197 539.689 328.139 547.385 329.094V342.219C539.691 341.263 532.099 340.322 524.499 339.381Z" fill="#F5BC4E"/>
<path d="M547.385 329.081V342.206C539.689 341.251 532.099 340.308 524.499 339.369C500.514 336.396 476.534 333.38 452.531 330.502C447.632 329.909 444.606 327.748 442.481 323.976C434.447 309.778 426.257 295.645 418.125 281.488C412.058 270.951 405.984 260.42 399.766 249.617V236.492C405.986 247.295 412.058 257.826 418.125 268.363C426.257 282.52 434.447 296.651 442.481 310.851C444.607 314.623 447.63 316.785 452.531 317.377C476.532 320.256 500.514 323.272 524.499 326.244L547.385 329.081Z" fill="#F5BC4E"/>
<path d="M252.258 343.01C252.282 338.65 252.282 334.234 252.258 329.885C260.188 328.835 267.613 327.84 275.041 326.885C299.241 323.789 323.439 320.692 347.649 317.63C352.309 317.044 355.374 314.969 357.452 311.253C357.479 311.204 357.504 311.157 357.533 311.109V324.232C357.506 324.28 357.481 324.327 357.452 324.375C355.375 328.09 352.309 330.166 347.649 330.752C323.44 333.813 299.241 336.91 275.041 340.007C267.614 340.965 260.188 341.959 252.258 343.01Z" fill="#F5BC4E"/>
<path d="M399.772 236.5V249.625C399.039 250.866 398.456 251.808 397.913 252.763C384.408 276.627 370.863 300.475 357.451 324.38C357.017 325.165 356.508 325.907 355.93 326.594V313.469C356.506 312.781 357.016 312.04 357.451 311.255C370.862 287.35 384.408 263.501 397.913 239.638C398.458 238.682 399.041 237.742 399.772 236.5Z" fill="#F5BC4E"/>
<path d="M355.927 313.469V326.594C355.203 327.458 354.351 328.206 353.402 328.813V315.688C354.35 315.079 355.201 314.331 355.927 313.469ZM353.402 315.688V328.813C352.682 329.271 351.915 329.648 351.113 329.939V316.814C351.914 316.522 352.682 316.145 353.402 315.688ZM351.113 316.814V329.939C350.125 330.303 349.039 330.565 347.846 330.727V317.602C349.036 317.44 350.122 317.178 351.113 316.814ZM347.845 317.602V330.727L347.641 330.754C323.433 333.816 299.233 336.913 275.033 340.009C267.605 340.965 260.18 341.96 252.25 343.01V329.885C260.18 328.835 267.605 327.84 275.033 326.885C299.232 323.789 323.431 320.692 347.641 317.63C347.711 317.62 347.777 317.61 347.845 317.602Z" fill="#F5BC4E"/>
<path d="M475.188 408.631V395.506C475.188 392.206 476.697 389.581 479.703 387.05C501.531 368.677 523.249 350.195 544.995 331.734C545.842 331.011 547.048 330.485 547.387 329.094V342.219C547.048 343.61 545.844 344.135 544.995 344.86C523.249 363.32 501.531 381.803 479.703 400.176C476.697 402.706 475.188 405.331 475.188 408.631Z" fill="#F5BC4E"/>
<path d="M547.385 329.086V342.211C547.282 342.639 547.077 343.037 546.789 343.37V330.245C547.077 329.912 547.281 329.514 547.385 329.086Z" fill="#F5BC4E"/>
<path d="M546.793 330.242V343.367C546.273 343.98 545.558 344.368 544.996 344.848C523.25 363.309 501.532 381.792 479.703 400.165C478.965 400.778 478.279 401.453 477.653 402.181V389.056C478.234 388.371 478.918 387.703 479.703 387.04C501.532 368.667 523.25 350.184 544.996 331.723C545.557 331.245 546.273 330.854 546.793 330.242ZM477.653 389.055V402.18C476.152 403.948 475.335 405.827 475.205 407.996V394.87C475.335 392.702 476.152 390.822 477.653 389.055ZM475.205 394.871V407.996C475.192 408.201 475.188 408.409 475.188 408.619V395.494C475.186 395.285 475.192 395.078 475.205 394.871Z" fill="#F5BC4E"/>
<path d="M325.345 395.853V408.979C325.345 405.823 323.891 403.205 320.953 400.761C298.932 382.402 277.049 363.917 255.125 345.485C254.298 344.789 253.494 344.08 252.25 343.016V329.891C253.495 330.955 254.298 331.665 255.125 332.36C277.049 350.794 298.932 369.277 320.953 387.636C323.891 390.08 325.345 392.697 325.345 395.853Z" fill="#F5BC4E"/>
<path d="M325.345 395.853V408.979C325.345 405.823 323.891 403.205 320.953 400.761C298.932 382.402 277.049 363.917 255.125 345.485C254.298 344.789 253.494 344.08 252.25 343.016V329.891C253.495 330.955 254.298 331.665 255.125 332.36C277.049 350.794 298.932 369.277 320.953 387.636C323.891 390.08 325.345 392.697 325.345 395.853Z" fill="#F5BC4E"/>
<path d="M495.781 412.377V399.252C495.781 397.854 496.423 396.798 497.759 395.67C522.969 374.351 548.098 352.956 573.271 331.618C575.613 329.632 577.76 327.581 579.212 325.023V338.148C577.762 340.705 575.613 342.759 573.271 344.744C548.096 366.082 522.967 387.475 497.759 408.795C496.425 409.923 495.781 410.979 495.781 412.377Z" fill="#F5BC4E"/>
<path d="M579.216 325.023V338.148C578.675 339.107 578.033 339.993 577.32 340.834V327.709C578.035 326.875 578.669 325.976 579.216 325.023Z" fill="#F5BC4E"/>
<path d="M577.316 327.703V340.828C576.127 342.23 574.737 343.495 573.273 344.738C548.098 366.077 522.969 387.47 497.761 408.791C497.387 409.107 497.066 409.417 496.801 409.73V396.605C497.095 396.267 497.416 395.952 497.761 395.666C522.971 374.346 548.1 352.951 573.273 331.613C574.737 330.371 576.126 329.105 577.316 327.703ZM496.799 396.606V409.731C496.176 410.466 495.844 411.219 495.791 412.111V398.987C495.846 398.096 496.176 397.341 496.799 396.606ZM495.791 398.987V412.111C495.787 412.198 495.781 412.287 495.781 412.374V399.249C495.782 399.16 495.787 399.073 495.791 398.987Z" fill="#F5BC4E"/>
<path d="M304.779 399.463V412.587C304.779 411.204 303.873 410.39 302.767 409.468C277.709 388.448 252.673 367.416 227.617 346.397C225.055 344.248 222.458 342.142 220.781 339.359V326.234C222.458 329.018 225.055 331.124 227.617 333.273C252.674 354.292 277.709 375.324 302.767 396.344C303.873 397.265 304.779 398.08 304.779 399.463Z" fill="#F5BC4E"/>
<path d="M304.779 399.463V412.587C304.779 411.204 303.873 410.39 302.767 409.468C277.709 388.448 252.673 367.416 227.617 346.397C225.055 344.248 222.458 342.142 220.781 339.359V326.234C222.458 329.018 225.055 331.124 227.617 333.273C252.674 354.292 277.709 375.324 302.767 396.344C303.873 397.265 304.779 398.08 304.779 399.463Z" fill="#F5BC4E"/>
<path d="M491.464 479.648V492.773C479.093 487.184 466.724 481.591 454.357 475.995C438.684 468.909 422.96 461.918 407.391 454.683C404.979 453.565 402.72 453.023 400.47 453.023C398.107 453.023 395.755 453.623 393.248 454.784C366.488 467.202 339.633 479.451 312.812 491.755C311.699 492.259 310.577 492.749 309.125 493.391V480.266C310.574 479.626 311.699 479.135 312.812 478.629C339.631 466.325 366.488 454.078 393.248 441.658C395.755 440.496 398.105 439.898 400.47 439.898C402.722 439.898 404.979 440.438 407.391 441.558C422.96 448.794 438.686 455.785 454.357 462.869C466.724 468.467 479.093 474.059 491.464 479.648Z" fill="#F5BC4E"/>
<path d="M491.462 479.648V492.773C479.091 487.184 466.722 481.591 454.355 475.995C438.682 468.909 422.958 461.918 407.388 454.683C404.977 453.565 402.717 453.023 400.467 453.023C399.824 453.023 399.181 453.066 398.535 453.153V440.027C399.176 439.941 399.821 439.898 400.467 439.898C402.72 439.898 404.977 440.438 407.388 441.558C422.958 448.794 438.684 455.785 454.355 462.869C466.722 468.467 479.091 474.059 491.462 479.648ZM398.534 440.03V453.155C397.364 453.316 396.185 453.623 394.977 454.063V440.937C396.185 440.495 397.364 440.191 398.534 440.03Z" fill="#F5BC4E"/>
<path d="M394.98 440.938V454.062C394.409 454.273 393.833 454.514 393.248 454.785C366.488 467.204 339.634 479.451 312.812 491.757C311.702 492.263 310.577 492.752 309.125 493.394V480.269C310.574 479.628 311.7 479.138 312.812 478.631C339.631 466.327 366.487 454.081 393.248 441.66C393.814 441.394 394.392 441.153 394.98 440.938Z" fill="#F5BC4E"/>
<path d="M399.772 236.5C405.992 247.303 412.063 257.832 418.13 268.37C426.265 282.527 434.454 296.658 442.486 310.857C444.612 314.629 447.637 316.791 452.536 317.384C476.537 320.261 500.519 323.277 524.506 326.25C532.105 327.189 539.694 328.132 547.39 329.086C547.05 330.477 545.845 331.002 544.997 331.727C523.251 350.188 501.533 368.67 479.706 387.043C475.942 390.213 474.523 393.528 475.477 398.132C480.895 424.239 486.043 450.382 491.298 476.515C491.496 477.482 491.953 478.43 491.47 479.645C479.1 474.055 466.731 468.463 454.363 462.866C438.692 455.78 422.967 448.79 407.398 441.554C404.985 440.436 402.727 439.896 400.477 439.896C398.113 439.896 395.761 440.495 393.255 441.655C366.495 454.073 339.642 466.323 312.819 478.626C311.709 479.132 310.584 479.621 309.132 480.263C312.276 464.02 315.353 448.114 318.441 432.209C320.638 420.875 322.802 409.534 325.102 398.206C325.96 393.948 324.598 390.655 320.961 387.628C298.94 369.27 277.057 350.784 255.133 332.352C254.306 331.653 253.502 330.947 252.258 329.883C260.188 328.833 267.616 327.836 275.041 326.883C299.241 323.78 323.444 320.695 347.649 317.628C352.31 317.042 355.375 314.966 357.452 311.252C370.866 287.347 384.409 263.498 397.915 239.634C398.456 238.682 399.039 237.741 399.772 236.5Z" fill="#F5F18A"/>
<path d="M569.266 314.27C574.079 314.828 577.221 317.099 579.224 320.782V325.024C577.774 327.581 575.625 329.634 573.283 331.619C548.108 352.957 522.979 374.351 497.77 395.671C496.092 397.09 495.513 398.391 495.923 400.404C501.688 428.606 507.372 456.827 513.074 485.033C513.616 487.719 514.193 490.392 514.727 493.081C515.492 496.833 514.698 500.166 510.918 502.491C509.084 503.618 507.22 504.109 505.335 504.109C503.365 504.109 501.374 503.572 499.383 502.67C486.097 496.635 472.808 490.61 459.513 484.595C440.752 476.105 421.974 467.651 403.252 459.09C402.27 458.639 401.399 458.428 400.541 458.428C399.577 458.428 398.628 458.698 397.55 459.193C365.734 473.874 333.863 488.477 302.026 503.132C299.949 504.092 297.877 504.664 295.842 504.664C293.924 504.664 292.037 504.159 290.207 502.99C286.568 500.678 285.559 497.404 286.458 493.564C287.206 490.406 287.656 487.196 288.276 484.017C293.731 456.066 299.184 428.12 304.72 400.184C305.082 398.345 304.066 397.417 302.783 396.345C277.726 375.326 252.691 354.294 227.633 333.274C225.071 331.126 222.474 329.019 220.797 326.237V321.992C222.788 317.595 226.608 315.755 231.954 315.086C263.087 311.218 294.177 307.14 325.274 303.137C329.88 302.544 334.472 301.821 339.105 301.398C341.214 301.207 341.732 300 342.442 298.752C354.854 276.784 367.263 254.81 379.683 232.843C383.156 226.698 386.699 220.574 390.097 214.402C392.064 210.835 394.937 208.455 399.701 208.461C404.466 208.461 407.309 210.889 409.324 214.409C425.342 242.364 441.431 270.28 457.393 298.254C458.449 300.102 459.741 300.9 462.017 301.173C485.666 304.031 509.303 306.956 532.946 309.855C545.044 311.343 557.149 312.857 569.266 314.27ZM544.999 331.728C545.845 331.005 547.052 330.479 547.391 329.088C539.695 328.133 532.106 327.191 524.506 326.252C500.52 323.279 476.54 320.263 452.538 317.385C447.638 316.792 444.613 314.631 442.488 310.859C434.453 296.661 426.263 282.528 418.131 268.371C412.064 257.834 405.991 247.303 399.772 236.5C399.039 237.741 398.456 238.683 397.913 239.638C384.408 263.502 370.864 287.35 357.451 311.256C355.374 314.97 352.308 317.046 347.648 317.632C323.443 320.699 299.24 323.785 275.04 326.888C267.613 327.842 260.187 328.838 252.257 329.888C253.502 330.95 254.305 331.662 255.131 332.356C277.056 350.79 298.939 369.273 320.959 387.632C324.596 390.66 325.958 393.952 325.099 398.209C322.801 409.535 320.634 420.879 318.438 432.213C315.33 448.23 312.228 464.248 309.131 480.266C310.579 479.626 311.706 479.138 312.816 478.632C339.636 466.327 366.493 454.078 393.252 441.66C395.759 440.498 398.109 439.899 400.474 439.899C402.727 439.899 404.983 440.438 407.393 441.558C422.962 448.795 438.69 455.785 454.361 462.87C466.709 468.454 479.057 474.041 491.466 479.65C491.947 478.434 491.488 477.485 491.293 476.517C486.042 450.384 480.892 424.245 475.474 398.136C474.52 393.533 475.939 390.22 479.701 387.048C501.534 368.672 523.255 350.188 544.999 331.728Z" fill="#F5D752"/>
<path d="M514.983 495.514V508.64C514.983 511.391 513.848 513.809 510.908 515.617C509.073 516.745 507.209 517.234 505.325 517.234C503.355 517.234 501.364 516.698 499.372 515.796C486.087 509.762 472.797 503.737 459.503 497.721C440.743 489.23 421.963 480.777 403.242 472.216C402.261 471.766 401.388 471.554 400.531 471.554C399.567 471.554 398.618 471.823 397.54 472.32C365.725 487.001 333.853 501.602 302.016 516.259C299.939 517.218 297.867 517.79 295.832 517.79C293.915 517.79 292.027 517.284 290.198 516.116C287.38 514.325 286.141 511.96 286.141 509.199V496.073C286.141 498.834 287.38 501.202 290.198 502.991C292.03 504.158 293.915 504.665 295.832 504.665C297.867 504.665 299.937 504.094 302.016 503.133C333.853 488.48 365.725 473.877 397.54 459.195C398.618 458.698 399.567 458.43 400.531 458.43C401.388 458.43 402.259 458.641 403.242 459.091C421.961 467.652 440.741 476.107 459.503 484.596C472.793 490.612 486.09 496.636 499.372 502.67C501.364 503.572 503.357 504.109 505.325 504.109C507.211 504.109 509.077 503.62 510.908 502.491C513.848 500.684 514.983 498.264 514.983 495.514Z" fill="#F5BC4E"/>
<path d="M514.983 495.516V508.641C514.983 508.835 514.977 509.027 514.966 509.218V496.092C514.977 495.904 514.983 495.71 514.983 495.516ZM514.966 496.092V509.218C514.866 510.859 514.33 512.367 513.211 513.687V500.562C514.331 499.242 514.868 497.732 514.966 496.092Z" fill="#F5BC4E"/>
<path d="M513.21 500.562V513.688C512.652 514.347 511.951 514.957 511.078 515.513V502.387C511.948 501.831 512.652 501.22 513.21 500.562Z" fill="#F5BC4E"/>
<path d="M511.081 502.384V515.509C511.026 515.546 510.968 515.58 510.91 515.617C510.243 516.027 509.569 516.353 508.891 516.605V503.48C509.659 503.194 510.393 502.827 511.081 502.384ZM508.891 503.478V516.603C508.184 516.862 507.466 517.037 506.747 517.135V504.01C507.479 503.912 508.198 503.733 508.891 503.478ZM506.747 504.013V517.137C506.276 517.204 505.801 517.237 505.326 517.236C503.355 517.236 501.365 516.699 499.373 515.797C486.087 509.763 472.798 503.738 459.504 497.722C440.744 489.232 421.964 480.778 403.243 472.217C402.262 471.767 401.389 471.555 400.532 471.555C400.288 471.555 400.051 471.575 399.809 471.605V458.479C400.051 458.449 400.289 458.43 400.532 458.43C401.388 458.43 402.259 458.641 403.243 459.091C421.962 467.652 440.741 476.107 459.504 484.596C472.798 490.612 486.087 496.637 499.373 502.671C501.365 503.573 503.358 504.11 505.326 504.11C505.801 504.109 506.276 504.076 506.747 504.013ZM399.808 458.477V471.602C399.312 471.676 398.826 471.802 398.357 471.978V458.853C398.826 458.675 399.312 458.549 399.808 458.477ZM398.356 458.851V471.977C398.091 472.076 397.819 472.188 397.538 472.319C365.723 487 333.851 501.601 302.015 516.257C301.514 516.488 301.015 516.697 300.516 516.88V503.755C301.016 503.573 301.514 503.362 302.015 503.132C333.851 488.478 365.723 473.874 397.538 459.193C397.807 459.069 398.079 458.955 398.356 458.851Z" fill="#F5BC4E"/>
<path d="M300.518 503.75V516.876C299.475 517.26 298.435 517.534 297.404 517.674V504.549C298.435 504.408 299.474 504.134 300.518 503.75ZM297.403 504.55V517.675C296.883 517.748 296.358 517.786 295.832 517.787C293.915 517.787 292.027 517.281 290.198 516.113C287.38 514.323 286.141 511.957 286.141 509.196V496.07C286.141 498.83 287.38 501.198 290.198 502.987C292.03 504.155 293.915 504.662 295.832 504.662C296.358 504.659 296.882 504.622 297.403 504.55Z" fill="#F5BC4E"/>
</svg>
