<svg width="800" height="800" viewBox="0 0 800 800" fill="none" xmlns="http://www.w3.org/2000/svg">
<path d="M776.374 385.57V412.914C776.374 423.329 771.655 433.745 762.206 441.927C652.715 536.788 543.183 631.611 433.698 726.473C424.469 734.471 413.532 738.583 400.531 738.583V711.24C413.534 711.24 424.469 707.127 433.698 699.13C543.184 604.267 652.711 509.44 762.206 414.585C771.655 406.401 776.374 395.989 776.374 385.57Z" fill="#EB613C"/>
<path d="M23.625 412.781V410.047V408.68V405.945V403.211V401.844V399.109V396.375V395.008V392.273V389.539V388.172V385.438C23.625 396.927 28.8602 408.338 38.4977 416.702C146.661 510.502 254.942 604.199 363.155 697.968C373.313 706.765 385.609 710.832 400.541 711.244V738.588C385.612 738.176 373.313 734.108 363.155 725.312C254.942 631.543 146.661 537.846 38.4977 444.046C28.8594 435.683 23.625 424.271 23.625 412.781Z" fill="#EB613C"/>
<path d="M399.053 59.8438C411.759 59.8438 424.48 64.0328 434.167 72.4195C543.502 167.098 652.839 261.776 762.15 356.471C781.088 372.873 781.131 398.2 762.212 414.593C652.72 509.453 543.189 604.279 433.706 699.138C424.476 707.137 413.539 711.249 400.541 711.249C385.612 710.837 373.312 706.77 363.155 697.973C254.942 604.204 146.661 510.507 38.4977 416.707C23.2001 403.436 18.9977 382.48 29.2047 365.73C32.2665 360.7 35.9774 356.488 40.5055 352.566C148.403 259.166 256.27 165.743 364.148 72.3172C373.754 64.0047 386.396 59.8438 399.053 59.8438Z" fill="#ED7764"/>
<path d="M455.01 261.838V274.963C455.01 273.792 454.998 272.63 454.962 271.468C454.623 260.555 446.873 253.654 434.283 253.572C428.762 253.534 423.238 253.508 417.716 253.491C412.64 253.476 407.564 253.469 402.488 253.469H401.738C395.989 253.469 390.241 253.477 384.491 253.493C378.223 253.51 371.959 253.535 365.691 253.565C356.249 253.606 348.509 257.752 346.453 264.667V251.542C348.508 244.627 356.25 240.481 365.691 240.44C371.958 240.409 378.223 240.384 384.491 240.368C390.239 240.352 395.988 240.344 401.738 240.344H402.488C407.564 240.344 412.639 240.351 417.716 240.366C423.238 240.384 428.763 240.409 434.283 240.447C446.875 240.529 454.624 247.43 454.962 258.343C454.997 259.504 455.01 260.666 455.01 261.838Z" fill="#BF3F1F"/>
<path d="M455.009 261.837V274.962C455.009 273.791 454.997 272.629 454.961 271.467C454.622 260.554 446.873 253.653 434.282 253.571C428.761 253.534 423.237 253.507 417.716 253.491C412.64 253.476 407.564 253.468 402.488 253.468H401.737C395.988 253.468 390.24 253.477 384.491 253.492C378.223 253.509 371.958 253.534 365.691 253.564C364.349 253.568 363.009 253.66 361.68 253.839V240.714C363.009 240.535 364.349 240.443 365.691 240.44C371.957 240.409 378.223 240.384 384.491 240.368C390.238 240.352 395.988 240.344 401.737 240.344H402.488C407.563 240.344 412.638 240.351 417.716 240.366C423.238 240.384 428.763 240.409 434.282 240.447C446.874 240.529 454.623 247.43 454.961 258.343C454.996 259.503 455.009 260.666 455.009 261.837Z" fill="#BF3F1F"/>
<path d="M361.679 240.719V253.844C359.778 254.104 357.981 254.544 356.328 255.15V242.025C357.98 241.42 359.779 240.979 361.679 240.719Z" fill="#BF3F1F"/>
<path d="M356.331 242.023V255.148C354.977 255.639 353.679 256.275 352.461 257.045V243.92C353.679 243.15 354.976 242.514 356.331 242.023ZM352.46 243.92V257.045C351.114 257.904 349.941 258.911 348.972 260.053V246.928C349.941 245.785 351.116 244.779 352.46 243.92ZM348.972 246.928V260.053C347.82 261.4 346.962 262.972 346.453 264.669V251.544C346.962 249.847 347.82 248.274 348.972 246.928Z" fill="#BF3F1F"/>
<path d="M402.15 240.344H402.487C407.564 240.344 412.637 240.351 417.715 240.366C423.237 240.383 428.762 240.409 434.281 240.447C446.873 240.529 454.623 247.43 454.962 258.343C454.996 259.504 455.008 260.666 455.008 261.836C455.008 263.786 454.979 265.759 454.979 267.788H344.484C345.098 262.216 344.917 256.685 346.453 251.543C348.508 244.627 356.25 240.481 365.691 240.441C371.958 240.41 378.223 240.386 384.491 240.368C390.239 240.353 395.99 240.345 401.74 240.345L402.15 240.344Z" fill="#EB6036"/>
<path d="M559.373 276.562L559.374 289.688C559.373 294.17 555.285 298.006 549.445 298.184C548.296 298.219 547.149 298.229 545.999 298.229C544.23 298.229 542.464 298.204 540.695 298.204C539.73 298.207 538.763 298.208 537.781 298.208C535.812 298.208 533.77 298.204 531.508 298.204V285.079C533.77 285.079 535.814 285.083 537.781 285.083C538.765 285.083 539.73 285.082 540.695 285.079C542.463 285.079 544.229 285.104 545.999 285.104C547.149 285.104 548.297 285.094 549.445 285.059C555.285 284.881 559.373 281.044 559.373 276.562Z" fill="#BF3F1F"/>
<path d="M559.366 276.562V289.688C559.366 289.844 559.362 289.999 559.352 290.154V277.029C559.362 276.874 559.366 276.721 559.366 276.562Z" fill="#BF3F1F"/>
<path d="M559.355 277.031V290.156C559.248 291.794 558.598 293.33 557.516 294.612V281.487C558.598 280.205 559.25 278.669 559.355 277.031Z" fill="#BF3F1F"/>
<path d="M557.516 281.484V294.609C556.915 295.316 556.211 295.929 555.428 296.426V283.301C556.211 282.803 556.915 282.191 557.516 281.484ZM555.428 283.301V296.426C554.799 296.827 554.108 297.171 553.359 297.445V284.32C554.109 284.046 554.8 283.703 555.428 283.301Z" fill="#BF3F1F"/>
<path d="M553.367 284.32V297.445C552.548 297.744 551.698 297.953 550.833 298.069V284.944C551.698 284.829 552.548 284.62 553.367 284.32ZM550.831 284.944V298.069C550.383 298.13 549.92 298.168 549.445 298.183C548.296 298.218 547.149 298.229 545.999 298.229C544.231 298.229 542.464 298.204 540.695 298.204C539.73 298.207 538.764 298.209 537.781 298.209C535.812 298.209 533.77 298.204 531.508 298.204V285.079C533.77 285.079 535.814 285.083 537.781 285.083C538.766 285.083 539.73 285.082 540.695 285.079C542.463 285.079 544.228 285.104 545.999 285.104C547.15 285.104 548.298 285.093 549.445 285.058C549.909 285.044 550.372 285.006 550.831 284.944Z" fill="#BF3F1F"/>
<path d="M240.633 289.742V276.617C240.633 281.157 244.705 284.925 250.538 285.046C252.846 285.094 255.156 285.108 257.479 285.108C261.093 285.108 264.741 285.073 268.469 285.073V298.198C264.74 298.198 261.092 298.233 257.479 298.233C255.155 298.233 252.845 298.219 250.538 298.17C244.705 298.05 240.633 294.282 240.633 289.742Z" fill="#BF3F1F"/>
<path d="M268.469 285.074V298.199C264.74 298.199 261.092 298.234 257.479 298.234C255.155 298.234 252.845 298.22 250.538 298.171C244.705 298.051 240.633 294.283 240.633 289.742V276.617C240.633 281.157 244.705 284.925 250.538 285.046C252.846 285.095 255.156 285.108 257.479 285.108C261.091 285.109 264.739 285.074 268.469 285.074Z" fill="#BF3F1F"/>
<path d="M397.298 329.512C395.376 329.995 393.83 330.788 392.666 331.888C392.601 326.173 392.581 325.334 392.367 319.063C393.555 317.806 395.205 316.913 397.298 316.386C397.452 316.348 397.609 316.313 397.766 316.279C398.464 316.134 399.162 316.06 400.019 316.047H400.033C400.185 316.047 400.335 316.049 400.487 316.057C404.48 316.218 408.066 318.503 409.342 321.829C409.558 322.393 409.708 322.988 409.782 323.607C409.864 324.282 409.886 324.965 409.886 325.647V338.772C409.886 338.089 409.866 337.407 409.782 336.732C409.708 336.124 409.561 335.527 409.342 334.955C408.066 331.627 404.48 329.343 400.487 329.182C400.336 329.176 400.185 329.173 400.033 329.173C399.171 329.185 398.469 329.259 397.769 329.404C397.609 329.437 397.452 329.473 397.298 329.512Z" fill="#BF3F1F"/>
<path d="M409.886 325.653V338.778C409.886 338.095 409.865 337.413 409.782 336.738C409.708 336.13 409.561 335.533 409.342 334.961C408.066 331.634 404.48 329.349 400.487 329.188C400.336 329.182 400.185 329.179 400.034 329.179C399.515 329.183 398.998 329.22 398.484 329.288V316.163C398.96 316.099 399.461 316.063 400.034 316.055C400.184 316.055 400.334 316.057 400.487 316.065C404.48 316.226 408.066 318.511 409.342 321.837C409.557 322.401 409.707 322.995 409.782 323.615C409.865 324.289 409.886 324.971 409.886 325.653Z" fill="#BF3F1F"/>
<path d="M398.489 316.148V329.273C398.245 329.307 398.009 329.349 397.772 329.397C397.149 329.528 396.535 329.705 395.938 329.924V316.799C396.535 316.579 397.148 316.403 397.772 316.273C398.009 316.223 398.245 316.183 398.489 316.148Z" fill="#BF3F1F"/>
<path d="M395.939 316.805V329.93C395.198 330.203 394.525 330.531 393.922 330.916V317.791C394.557 317.39 395.233 317.059 395.939 316.805Z" fill="#BF3F1F"/>
<path d="M393.926 317.789V330.914C393.239 331.349 392.622 331.884 392.094 332.502V319.377C392.621 318.758 393.239 318.223 393.926 317.789Z" fill="#BF3F1F"/>
<path d="M334.448 338.675C333.809 338.698 333.174 338.772 332.547 338.895C332.558 334.518 332.574 330.14 332.593 325.762C333.409 325.609 334.238 325.534 335.069 325.539C335.148 325.54 335.227 325.54 335.307 325.542V338.665C335.227 338.663 335.148 338.663 335.069 338.662C334.816 338.664 334.63 338.668 334.448 338.675Z" fill="#BF3F1F"/>
<path d="M344.984 336.908V350.033C344.984 348.619 344.984 347.193 344.763 345.803C344.165 341.91 340.574 339.031 336.084 338.702C335.54 338.664 334.994 338.655 334.449 338.675C334.039 338.691 333.638 338.726 333.248 338.779V325.655C333.852 325.573 334.461 325.534 335.071 325.539C335.403 325.54 335.741 325.554 336.084 325.578C340.574 325.905 344.165 328.784 344.763 332.678C344.984 334.069 344.984 335.496 344.984 336.908ZM333.248 325.655V338.779C332.44 338.889 331.681 339.074 330.977 339.333V326.208C331.681 325.949 332.44 325.764 333.248 325.655Z" fill="#BF3F1F"/>
<path d="M455.141 346.266V346.171V346.071V345.968V345.862V345.756V345.653V345.553V345.461V344.023V342.496V340.912V339.3V337.688V336.105V334.581V333.143C455.758 328.659 459.607 325.62 464.999 325.547V338.671C459.607 338.744 455.758 341.783 455.141 346.266Z" fill="#BF3F1F"/>
<path d="M465.149 325.539V338.664C464.542 338.666 463.935 338.707 463.333 338.788V325.663C463.935 325.582 464.542 325.541 465.149 325.539ZM463.333 325.663V338.788C462.492 338.899 461.665 339.101 460.868 339.391V326.266C461.665 325.976 462.492 325.774 463.333 325.663ZM460.868 326.266V339.391C460.173 339.646 459.53 339.964 458.945 340.339V327.214C459.532 326.839 460.176 326.522 460.868 326.266ZM458.945 327.214V340.339C458.214 340.803 457.557 341.373 456.997 342.032V328.907C457.558 328.248 458.215 327.678 458.945 327.214ZM456.997 328.907V342.032C455.963 343.255 455.304 344.766 455.108 346.478C455.074 346.78 455.048 347.084 455.031 347.39V334.265C455.048 333.959 455.074 333.656 455.108 333.354C455.304 331.641 455.963 330.131 456.997 328.907Z" fill="#BF3F1F"/>
<path d="M474.768 346.286C474.151 341.873 470.174 338.755 465.148 338.656V325.531C470.174 325.629 474.149 328.748 474.768 333.161V346.286Z" fill="#BF3F1F"/>
<path d="M474.876 335.132V348.257C474.876 347.631 474.859 347.006 474.78 346.39C474.209 341.927 470.208 338.761 465.148 338.664V325.539C470.209 325.637 474.208 328.801 474.78 333.265C474.859 333.881 474.876 334.505 474.876 335.132Z" fill="#BF3F1F"/>
<path d="M332.544 338.906C327.957 339.816 325.109 343.351 325.109 348.584V335.459C325.109 330.209 327.975 326.667 332.59 325.773C332.579 327.765 332.548 336.97 332.544 338.906Z" fill="#BF3F1F"/>
<path d="M333.24 325.656V338.78C332.432 338.89 331.673 339.076 330.969 339.335V326.21C331.673 325.951 332.432 325.765 333.24 325.656ZM330.968 326.21V339.334C330.333 339.568 329.741 339.86 329.195 340.208V327.083C329.753 326.729 330.347 326.437 330.968 326.21Z" fill="#BF3F1F"/>
<path d="M329.199 327.094V340.219C328.492 340.669 327.857 341.224 327.315 341.863V328.738C327.857 328.099 328.492 327.544 329.199 327.094ZM327.315 328.738V341.863C326.043 343.37 325.276 345.365 325.133 347.753V334.628C325.276 332.241 326.043 330.245 327.315 328.738ZM325.133 334.628V347.753C325.116 348.026 325.109 348.302 325.109 348.584V335.459C325.109 335.177 325.117 334.901 325.133 334.628Z" fill="#BF3F1F"/>
<path d="M335.576 338.686L335.312 338.678V337.144V335.517V333.83V332.113V330.397V328.71V327.085V325.555C335.399 325.556 335.489 325.559 335.576 325.562C335.745 325.567 335.916 325.577 336.087 325.588C340.577 325.916 344.168 328.795 344.767 332.689C344.987 334.08 344.987 335.506 344.987 336.918V350.043C344.987 348.63 344.987 347.206 344.767 345.814C344.168 341.92 340.577 339.043 336.087 338.713C335.917 338.702 335.746 338.693 335.576 338.686V338.678V338.671V338.663V338.656V338.65V338.642V338.636V338.627V338.686Z" fill="#BF3F1F"/>
<path d="M344.978 336.908V350.033C344.978 348.619 344.978 347.193 344.758 345.803C344.159 341.91 340.568 339.031 336.078 338.702C335.534 338.664 334.989 338.655 334.444 338.675C334.034 338.691 333.632 338.726 333.242 338.779V325.655C333.846 325.573 334.456 325.534 335.066 325.539C335.398 325.54 335.735 325.554 336.078 325.578C340.568 325.905 344.159 328.784 344.758 332.678C344.978 334.069 344.978 335.496 344.978 336.908Z" fill="#BF3F1F"/>
<path d="M335.003 325.547C335.401 325.548 335.739 325.562 336.082 325.586C340.572 325.914 344.163 328.792 344.76 332.687C344.981 334.077 344.981 335.503 344.981 336.914C344.989 347.571 344.991 358.227 344.991 368.883L344.99 400.852C344.99 411.662 344.983 422.47 344.983 433.277C344.983 444.086 344.99 454.894 345.022 465.703C345.03 469.865 343.809 473.336 339.155 475.197C337.741 475.738 336.47 475.971 335.227 475.995C330.25 475.904 326.11 472.989 325.262 468.683C325.116 467.832 325.105 467.169 325.105 466.515V466.061C325.105 444.294 325.102 422.523 325.102 400.757C325.102 378.992 325.105 357.225 325.113 335.459C325.113 329.537 328.76 325.791 334.446 325.562C334.63 325.55 334.815 325.547 335.003 325.547Z" fill="#DB4416"/>
<path d="M511.591 386.847C511.591 419.479 511.598 452.111 511.63 484.741C511.64 497.562 506.188 507.723 492.504 513.315C487.628 515.305 481.754 516.283 476.32 516.309C462.263 516.369 448.205 516.409 434.148 516.432C420.211 516.455 406.266 516.466 392.327 516.466C377.577 516.466 363.525 516.456 349.467 516.443L323.734 516.419C306.598 516.398 294.03 508.398 289.645 494.711C288.721 491.838 288.518 488.723 288.518 485.713C288.478 444.612 288.47 403.505 288.469 362.398L288.47 288.406V285.242H511.598V288.952C511.598 321.582 511.591 354.214 511.591 386.847ZM409.87 476.03C409.89 463.506 409.892 450.98 409.892 438.455C409.891 425.93 409.886 413.405 409.886 400.88C409.886 376.328 409.886 351.783 409.877 327.237C409.877 326.707 409.888 326.173 409.887 325.643C409.887 324.96 409.866 324.277 409.783 323.603C409.709 322.995 409.561 322.398 409.343 321.825C408.067 318.498 404.48 316.214 400.488 316.053C400.337 316.047 400.186 316.043 400.034 316.043C399.172 316.055 398.47 316.13 397.77 316.275C397.614 316.307 397.457 316.343 397.301 316.382C392.562 317.574 390.095 320.644 390.095 325.603C390.088 350.655 390.084 375.709 390.084 400.762C390.084 425.816 390.087 450.866 390.087 475.915C390.087 476.523 390.095 477.13 390.166 477.736C390.599 481.535 393.717 484.514 398.026 485.251C398.488 485.331 398.954 485.387 399.422 485.418C399.864 485.447 400.307 485.452 400.75 485.432C406.014 485.208 409.856 481.495 409.87 476.03ZM338.975 475.261C343.807 473.328 345.028 469.859 345.02 465.698C344.99 454.89 344.976 444.081 344.979 433.272C344.979 422.464 344.987 411.655 344.987 400.848L344.988 368.878C344.988 358.223 344.987 347.567 344.979 336.91C344.979 335.497 344.979 334.073 344.759 332.681C344.16 328.787 340.569 325.909 336.081 325.58C335.537 325.542 334.991 325.533 334.446 325.553C328.757 325.781 325.112 329.529 325.112 335.45C325.105 357.215 325.102 378.982 325.102 400.749L325.105 466.052L325.104 466.506C325.104 467.162 325.113 467.823 325.221 468.466C326.108 472.983 330.248 475.896 334.811 475.986C336.468 475.966 337.738 475.734 338.975 475.261ZM474.873 433.109C474.874 422.35 474.87 411.593 474.87 400.833V336.59C474.87 336.104 474.88 335.616 474.88 335.13C474.88 334.504 474.863 333.879 474.784 333.262C474.212 328.799 470.212 325.634 465.152 325.537C459.595 325.555 455.64 328.707 455.11 333.351C454.985 334.455 454.985 335.574 454.985 336.679C454.976 379.409 454.976 422.138 454.985 464.868C454.985 466.075 455.002 467.294 455.166 468.495C455.725 472.518 459.268 475.499 463.924 475.943C464.138 475.963 464.357 475.977 464.574 475.984C465.156 475.992 465.35 475.987 465.543 475.977C469.458 475.772 473.016 473.526 474.2 470.153C474.728 468.638 474.837 466.976 474.845 465.38C474.866 454.623 474.871 443.866 474.873 433.109Z" fill="#EB6036"/>
<path d="M399.868 316.047C400.188 316.046 400.34 316.048 400.492 316.056C404.484 316.217 408.071 318.502 409.347 321.828C409.562 322.392 409.712 322.986 409.787 323.606C409.87 324.281 409.891 324.963 409.891 325.646C409.892 326.176 409.881 326.71 409.881 327.24C409.89 351.785 409.89 376.329 409.89 400.882C409.89 413.406 409.895 425.931 409.896 438.457C409.898 450.981 409.894 463.506 409.874 476.033C409.859 481.495 406.016 485.21 400.755 485.435C400.584 485.443 400.412 485.448 400.24 485.448C399.968 485.445 399.696 485.437 399.425 485.422C398.957 485.391 398.491 485.335 398.029 485.254C393.721 484.517 390.603 481.538 390.168 477.739C390.098 477.131 390.089 476.524 390.089 475.918C390.089 450.869 390.086 425.818 390.086 400.765C390.086 375.714 390.089 350.66 390.098 325.606C390.098 320.649 392.561 317.58 397.303 316.385C397.459 316.347 397.615 316.311 397.771 316.279C398.474 316.132 399.176 316.058 399.868 316.047Z" fill="#DB4416"/>
<path d="M511.634 484.742V497.867C511.644 510.689 506.193 520.85 492.508 526.441C487.633 528.432 481.758 529.41 476.324 529.435C462.268 529.496 448.209 529.536 434.153 529.559C420.215 529.582 406.271 529.593 392.331 529.593C377.582 529.593 363.53 529.584 349.472 529.57C340.894 529.562 332.317 529.553 323.739 529.546C306.602 529.525 294.035 521.525 289.649 507.838C288.726 504.966 288.523 501.849 288.523 498.84V485.715C288.523 488.724 288.726 491.84 289.649 494.712C294.034 508.4 306.602 516.4 323.739 516.42C332.317 516.431 340.894 516.438 349.472 516.445C363.53 516.461 377.582 516.468 392.331 516.468C406.269 516.468 420.215 516.458 434.153 516.434C448.209 516.41 462.268 516.37 476.324 516.31C481.758 516.284 487.633 515.307 492.508 513.316C506.194 507.725 511.643 497.563 511.634 484.742Z" fill="#BF3F1F"/>
<path d="M511.636 484.742V497.867C511.639 498.73 511.614 499.593 511.561 500.454V487.329C511.612 486.48 511.638 485.616 511.636 484.742ZM511.561 487.329V500.454C511.16 507.101 509.151 512.953 505.108 517.717V504.591C509.151 499.827 511.16 493.976 511.561 487.329ZM505.108 504.591V517.717C503.35 519.791 501.205 521.659 498.641 523.3V510.175C501.204 508.534 503.349 506.666 505.108 504.591ZM498.641 510.172V523.298C496.813 524.464 494.776 525.516 492.509 526.441C492.15 526.587 491.784 526.73 491.416 526.865V513.739C491.785 513.605 492.15 513.462 492.509 513.316C494.774 512.391 496.813 511.341 498.641 510.172ZM491.415 513.74V526.866C488.682 527.87 485.683 528.574 482.653 528.987V515.862C485.683 515.448 488.682 514.744 491.415 513.74ZM482.653 515.862V528.987C480.555 529.275 478.441 529.424 476.324 529.435C462.268 529.496 448.209 529.536 434.153 529.559C420.216 529.582 406.27 529.593 392.331 529.593C377.582 529.593 363.53 529.584 349.472 529.57C340.894 529.562 332.317 529.553 323.739 529.546C306.602 529.525 294.035 521.525 289.649 507.838C288.725 504.966 288.523 501.849 288.523 498.84V485.715C288.523 488.724 288.727 491.84 289.649 494.712C294.033 508.4 306.602 516.4 323.739 516.42C332.317 516.431 340.894 516.438 349.472 516.445C363.53 516.461 377.582 516.468 392.331 516.468C406.269 516.468 420.216 516.458 434.153 516.434C448.209 516.41 462.268 516.37 476.324 516.31C478.441 516.299 480.555 516.149 482.653 515.862Z" fill="#BF3F1F"/>
<path d="M558.684 273.398C561.165 279.085 556.631 284.849 549.44 285.067C548.292 285.102 547.144 285.113 545.995 285.113C544.225 285.113 542.459 285.088 540.69 285.088C539.725 285.092 538.759 285.092 537.777 285.092C535.807 285.092 533.765 285.088 531.503 285.088V289.12C531.503 354.694 531.573 420.275 531.463 485.849C531.432 505.899 520.972 520.617 500.073 529.488C493.167 532.413 485.716 533.621 478.048 533.621C447.241 533.629 416.426 533.67 385.62 533.67C364.388 533.67 343.165 533.652 321.932 533.588C291.433 533.493 268.524 513.019 268.492 486.155C268.429 433.812 268.476 381.47 268.476 329.134C268.469 315.692 268.476 302.257 268.469 288.813V285.085C264.739 285.085 261.091 285.119 257.478 285.119C255.154 285.119 252.845 285.105 250.538 285.057C243.602 284.914 239.152 279.607 241.088 273.981C242.206 270.708 245.499 268.349 249.489 268.041C250.505 267.962 251.521 267.951 252.541 267.951L253.688 267.952C275.973 267.945 298.261 267.945 320.545 267.945H325.105C325.105 264.876 325.184 262.08 325.088 259.29C324.388 238.638 342.067 225.402 358.518 223.675C386.452 223.219 413.525 223.219 440.592 223.219C443.57 223.997 446.625 224.617 449.522 225.57C464.319 230.413 474.327 242.581 474.808 256.261C474.942 259.992 474.831 263.721 474.831 267.943H479.085C487.698 267.95 496.323 267.95 504.939 267.95C519.303 267.95 533.666 267.95 548.038 267.956C553.637 267.963 557.11 269.784 558.684 273.398ZM492.504 513.324C506.19 507.732 511.64 497.57 511.632 484.749C511.599 452.119 511.592 419.488 511.592 386.856C511.592 354.222 511.599 321.592 511.599 288.963V285.252H288.47V288.417L288.469 362.41C288.47 403.516 288.478 444.622 288.518 485.724C288.518 488.733 288.723 491.85 289.645 494.722C294.029 508.41 306.598 516.409 323.734 516.429C332.313 516.44 340.889 516.447 349.467 516.455C363.524 516.47 377.576 516.478 391.634 516.478C406.27 516.478 420.206 516.468 434.15 516.444C448.206 516.42 462.265 516.38 476.321 516.32C481.755 516.292 487.628 515.317 492.504 513.324ZM346.453 251.547C344.917 256.69 345.099 262.221 344.484 267.792H454.978C454.978 265.763 455.009 263.79 455.009 261.842C455.009 260.671 454.997 259.508 454.961 258.347C454.622 247.434 446.872 240.533 434.282 240.451C428.76 240.414 423.238 240.387 417.716 240.37C412.638 240.355 407.563 240.348 402.488 240.348H401.737C395.988 240.348 390.239 240.356 384.491 240.372C378.224 240.389 371.957 240.414 365.691 240.444C356.25 240.486 348.509 244.633 346.453 251.547Z" fill="#DB4416"/>
<path d="M464.865 325.531C470.219 325.63 474.216 328.795 474.787 333.258C474.868 333.876 474.885 334.501 474.885 335.126C474.885 335.612 474.875 336.101 474.875 336.587V400.83C474.875 411.588 474.878 422.348 474.876 433.105C474.876 443.864 474.869 454.62 474.851 465.376C474.842 466.971 474.735 468.635 474.204 470.148C473.021 473.521 469.463 475.769 465.547 475.972C465.355 475.983 465.161 475.988 464.968 475.988C464.363 475.972 464.145 475.961 463.93 475.939C459.275 475.496 455.733 472.515 455.172 468.49C455.008 467.29 454.993 466.069 454.993 464.862C454.982 422.133 454.982 379.404 454.993 336.675C454.993 335.569 454.993 334.45 455.116 333.347C455.645 328.704 459.598 325.551 464.865 325.531Z" fill="#DB4416"/>
<path d="M531.525 399.539V412.664C531.525 441.43 531.511 470.199 531.463 498.963C531.432 519.014 520.972 533.732 500.073 542.602C493.167 545.527 485.717 546.736 478.048 546.736C447.241 546.743 416.425 546.785 385.621 546.785C364.388 546.785 343.166 546.767 321.933 546.703C291.434 546.608 268.524 526.134 268.493 499.27C268.468 478.171 268.461 457.073 268.461 435.976V422.851C268.461 443.948 268.468 465.045 268.493 486.144C268.524 513.009 291.434 533.483 321.933 533.578C343.166 533.643 364.388 533.66 385.621 533.66C416.425 533.66 447.242 533.618 478.048 533.611C485.717 533.611 493.167 532.403 500.073 529.477C520.972 520.607 531.431 505.89 531.463 485.839C531.511 457.071 531.525 428.305 531.525 399.539Z" fill="#BF3F1F"/>
<path d="M531.518 399.539V412.664C531.518 441.43 531.504 470.199 531.455 498.963C531.454 500.044 531.421 501.124 531.358 502.202V489.077C531.421 488.012 531.453 486.934 531.455 485.838C531.504 457.071 531.518 428.305 531.518 399.539ZM531.358 489.077V502.202C530.763 512.087 527.479 520.59 521.507 527.643V514.517C527.479 507.465 530.763 498.963 531.358 489.077ZM521.505 514.518V527.644C518.47 531.226 514.741 534.434 510.317 537.262V524.137C514.741 521.309 518.469 518.101 521.505 514.518ZM510.316 524.135V537.261C507.237 539.229 503.82 541.01 500.066 542.604C499.357 542.905 498.641 543.188 497.92 543.453V530.328C498.642 530.063 499.358 529.78 500.066 529.479C503.819 527.884 507.237 526.103 510.316 524.135ZM497.92 530.328V543.453C494.358 544.761 490.666 545.64 486.883 546.157V533.032C490.666 532.515 494.358 531.635 497.92 530.328ZM486.883 533.032V546.157C483.981 546.555 481.027 546.737 478.041 546.737C447.234 546.744 416.419 546.786 385.612 546.786C364.38 546.786 343.158 546.768 321.925 546.704C291.426 546.609 268.516 526.134 268.485 499.271C268.46 478.173 268.453 457.074 268.453 435.977V422.852C268.453 443.949 268.46 465.048 268.485 486.145C268.516 513.01 291.426 533.484 321.925 533.579C343.158 533.644 364.38 533.661 385.612 533.661C416.419 533.661 447.234 533.619 478.041 533.612C481.028 533.612 483.981 533.429 486.883 533.032Z" fill="#BF3F1F"/>
</svg>
