<svg width="800" height="800" viewBox="0 0 800 800" fill="none" xmlns="http://www.w3.org/2000/svg">
<path d="M776.375 385.57V412.914C776.375 423.329 771.656 433.745 762.207 441.927C652.715 536.788 543.184 631.611 433.699 726.473C424.469 734.471 413.533 738.583 400.531 738.583V711.24C413.534 711.24 424.469 707.127 433.699 699.13C543.184 604.267 652.712 509.44 762.207 414.585C771.656 406.401 776.375 395.989 776.375 385.57Z" fill="#DE83A9"/>
<path d="M23.625 412.781V410.047V408.68V405.945V403.211V401.844V399.109V396.375V395.008V392.273V389.539V388.172V385.438C23.625 396.927 28.8602 408.338 38.4977 416.702C146.661 510.502 254.943 604.199 363.155 697.968C373.312 706.765 385.609 710.832 400.54 711.244V738.588C385.612 738.176 373.312 734.108 363.155 725.312C254.942 631.543 146.661 537.846 38.4977 444.046C28.8594 435.683 23.625 424.271 23.625 412.781Z" fill="#DE83A9"/>
<path d="M399.053 59.8438C411.759 59.8438 424.48 64.0328 434.167 72.4195C543.505 167.092 652.833 261.776 762.151 356.471C781.09 372.873 781.133 398.2 762.213 414.594C652.721 509.453 543.189 604.278 433.706 699.138C424.475 707.138 413.539 711.249 400.541 711.249C385.611 710.837 373.313 706.77 363.154 697.973C254.943 604.205 146.661 510.508 38.498 416.707C23.2004 403.435 18.9973 382.48 29.2051 365.73C32.2668 360.7 35.977 356.488 40.5059 352.566C148.404 259.166 256.271 165.743 364.148 72.3172C373.753 64.0055 386.395 59.8438 399.053 59.8438Z" fill="#EA659C"/>
<path d="M434.676 220.209C399.705 231.198 365.296 260.278 365.367 304.108V290.983C365.299 247.152 399.705 218.074 434.676 207.084C446.59 203.34 458.97 201.984 471.577 201.875C472.224 201.863 472.859 201.859 473.712 201.859C518.417 201.931 552.468 225.245 567.993 251.938C567.989 256.271 567.925 260.603 567.92 264.938C552.36 238.298 518.349 215.058 473.712 214.984C472.858 214.984 472.224 214.989 471.577 215C458.97 215.108 446.59 216.465 434.676 220.209Z" fill="#C92F6A"/>
<path d="M578.407 291.867V304.992C578.415 297.642 577.398 289.953 575.205 281.97C575.059 281.446 574.908 280.924 574.752 280.403C574.598 279.893 574.438 279.384 574.271 278.878C563.744 246.971 526.022 215.069 473.715 214.984C472.86 214.984 472.226 214.988 471.579 214.999C465.13 215.055 458.744 215.437 452.447 216.298V203.173C458.745 202.312 465.131 201.93 471.579 201.874C472.226 201.863 472.861 201.859 473.715 201.859C526.022 201.945 563.744 233.847 574.271 265.754C574.608 266.777 574.919 267.808 575.205 268.846C577.398 276.829 578.415 284.517 578.407 291.867ZM452.445 203.173V216.298C446.43 217.12 440.498 218.38 434.677 220.209C432.908 220.765 431.154 221.363 429.414 222.002V208.877C431.154 208.237 432.908 207.639 434.677 207.084C440.498 205.255 446.43 203.995 452.445 203.173Z" fill="#C92F6A"/>
<path d="M429.41 208.883V222.008C421.714 224.837 414.127 228.541 407.016 233.085V219.96C414.127 215.417 421.713 211.713 429.41 208.883ZM407.016 219.96V233.085C398.642 238.435 390.93 244.95 384.477 252.57V239.445C390.93 231.825 398.642 225.31 407.016 219.96Z" fill="#C92F6A"/>
<path d="M384.483 239.438V252.561C373.85 265.118 366.637 280.679 365.52 298.975V285.85C366.636 267.553 373.849 251.995 384.483 239.438ZM365.52 285.85V298.975C365.417 300.663 365.364 302.371 365.367 304.105V290.98C365.364 289.246 365.417 287.538 365.52 285.85Z" fill="#C92F6A"/>
<path d="M574.272 278.877C572.727 274.197 570.598 269.516 567.922 264.937C567.927 260.603 567.991 256.273 567.994 251.938C570.635 256.477 572.741 261.115 574.271 265.752C574.437 266.261 574.6 266.769 574.75 267.278C574.909 267.801 575.059 268.32 575.203 268.842C577.398 276.824 578.413 284.517 578.407 291.867V304.992C578.414 297.642 577.398 289.949 575.203 281.967C575.059 281.443 574.908 280.923 574.75 280.403C574.599 279.892 574.44 279.383 574.272 278.877Z" fill="#C92F6A"/>
<path d="M578.405 291.867V304.992C578.413 297.642 577.397 289.953 575.203 281.97C575.058 281.446 574.907 280.924 574.75 280.403C574.596 279.893 574.436 279.384 574.27 278.878C563.742 246.971 526.02 215.069 473.713 214.984C472.859 214.984 472.224 214.988 471.577 214.999C465.129 215.055 458.742 215.437 452.445 216.298V203.173C458.743 202.312 465.13 201.93 471.577 201.874C472.224 201.863 472.859 201.859 473.713 201.859C526.02 201.945 563.742 233.847 574.27 265.754C574.606 266.777 574.917 267.808 575.203 268.846C577.397 276.829 578.413 284.517 578.405 291.867Z" fill="#C92F6A"/>
<path d="M400.657 357.705V370.83C381.364 356.078 369.125 337.917 366.148 315.56C365.639 311.762 365.378 307.935 365.367 304.102V290.977C365.373 294.692 365.627 298.512 366.148 302.436C369.125 324.793 381.362 342.954 400.657 357.705Z" fill="#C92F6A"/>
<path d="M400.657 357.705V370.83C381.364 356.078 369.125 337.917 366.148 315.56C365.639 311.762 365.378 307.935 365.367 304.102V290.977C365.373 294.692 365.627 298.512 366.148 302.436C369.125 324.793 381.362 342.954 400.657 357.705Z" fill="#C92F6A"/>
<path d="M372.078 369.323V382.448C372.078 380.792 371.016 379.084 368.951 376.901C349.292 356.098 337.43 332.686 337.43 306.602V293.477C337.43 319.562 349.293 342.972 368.951 363.776C371.015 365.959 372.078 367.667 372.078 369.323Z" fill="#C92F6A"/>
<path d="M372.078 369.323V382.448C372.078 380.792 371.016 379.084 368.951 376.901C349.292 356.098 337.43 332.686 337.43 306.602V293.477C337.43 319.562 349.293 342.972 368.951 363.776C371.015 365.959 372.078 367.667 372.078 369.323Z" fill="#C92F6A"/>
<path d="M578.409 291.867V304.992C578.365 354.655 531.646 388.775 486.344 392.802V379.677C531.646 375.649 578.366 341.53 578.409 291.867Z" fill="#C92F6A"/>
<path d="M578.41 291.867V304.992C578.408 306.597 578.358 308.202 578.259 309.804V296.679C578.357 295.091 578.408 293.488 578.41 291.867ZM578.259 296.679V309.804C577.145 327.631 569.971 343.305 559.102 356.111V342.986C569.97 330.18 577.145 314.505 578.259 296.679ZM559.102 342.986V356.111C552.728 363.623 545.086 370.147 536.648 375.538V362.413C545.085 357.021 552.728 350.498 559.102 342.986ZM536.648 362.414V375.539C529.793 379.923 522.412 383.556 514.767 386.366V373.241C522.413 370.431 529.793 366.797 536.648 362.414ZM514.767 373.242V386.367C507.112 389.182 499.191 391.168 491.258 392.249V379.124C499.191 378.042 507.112 376.056 514.767 373.242Z" fill="#C92F6A"/>
<path d="M491.263 379.117V392.242C489.625 392.465 487.988 392.65 486.352 392.795V379.67C487.986 379.525 489.625 379.34 491.263 379.117Z" fill="#C92F6A"/>
<path d="M486.345 379.679V392.804C485.823 392.851 485.301 392.895 484.779 392.937C480.352 393.292 475.984 393.477 471.68 393.479C446.352 393.43 423.537 387.271 403.524 372.957C402.557 372.265 401.601 371.558 400.656 370.836V357.711C401.6 358.435 402.556 359.143 403.524 359.834C423.538 374.146 446.352 380.306 471.68 380.355C475.984 380.352 480.352 380.168 484.779 379.812C485.3 379.77 485.823 379.726 486.345 379.679Z" fill="#C92F6A"/>
<path d="M486.345 379.679V392.804C485.823 392.851 485.301 392.895 484.779 392.937C480.352 393.292 475.984 393.477 471.68 393.479C446.352 393.43 423.537 387.271 403.524 372.957C402.557 372.265 401.601 371.558 400.656 370.836V357.711C401.6 358.435 402.556 359.143 403.524 359.834C423.538 374.146 446.352 380.306 471.68 380.355C475.984 380.352 480.352 380.168 484.779 379.812C485.3 379.77 485.823 379.726 486.345 379.679Z" fill="#C92F6A"/>
<path d="M473.503 201.859C526.024 201.943 563.746 233.847 574.273 265.754C574.61 266.776 574.921 267.807 575.206 268.845C577.4 276.828 578.417 284.517 578.411 291.866C578.367 341.528 531.648 375.648 486.345 379.676C485.822 379.723 485.301 379.766 484.78 379.808C480.353 380.163 475.984 380.348 471.681 380.35C446.352 380.301 423.538 374.142 403.525 359.83C402.557 359.139 401.601 358.431 400.657 357.707C381.363 342.955 369.125 324.795 366.149 302.439C365.639 298.641 365.378 294.813 365.367 290.98C365.298 247.152 399.706 218.072 434.677 207.082C446.592 203.338 458.971 201.98 471.578 201.871C472.223 201.864 472.864 201.859 473.503 201.859Z" fill="#F4B1CE"/>
<path d="M299.079 432.385V445.51C299.079 443.848 297.986 442.194 295.796 440.296C276.117 423.24 256.438 406.184 236.71 389.166C235.593 388.198 234.066 387.598 232.891 386.922V373.797C234.066 374.473 235.592 375.073 236.71 376.041C256.438 393.059 276.117 410.115 295.796 427.17C297.986 429.069 299.079 430.724 299.079 432.385Z" fill="#C92F6A"/>
<path d="M299.079 432.385V445.51C299.079 443.848 297.986 442.194 295.796 440.296C276.117 423.24 256.438 406.184 236.71 389.166C235.593 388.198 234.066 387.598 232.891 386.922V373.797C234.066 374.473 235.592 375.073 236.71 376.041C256.438 393.059 276.117 410.115 295.796 427.17C297.986 429.069 299.079 430.724 299.079 432.385Z" fill="#C92F6A"/>
<path d="M606.12 290.852V303.977C606.12 343.846 580.462 379.723 546.458 398.322C524.501 410.331 500.649 417.26 474.811 417.805C473.725 417.827 472.639 417.839 471.557 417.839C447.836 417.839 425.387 412.349 404.635 402.009C401.914 400.654 399.624 399.81 397.374 399.808C394.75 399.808 392.181 400.958 389.052 403.781C375.223 416.257 360.899 428.322 346.78 440.554C344.722 442.341 343.688 443.981 343.688 445.616V432.491C343.688 430.856 344.722 429.216 346.78 427.429C360.9 415.195 375.224 403.131 389.052 390.656C392.181 387.833 394.75 386.682 397.374 386.682C399.623 386.684 401.913 387.527 404.635 388.884C425.387 399.222 447.835 404.713 471.557 404.713C472.638 404.713 473.724 404.701 474.811 404.679C500.649 404.134 524.501 397.206 546.458 385.195C580.462 366.598 606.12 330.721 606.12 290.852Z" fill="#C92F6A"/>
<path d="M606.115 290.852V303.977C606.115 305.912 606.054 307.835 605.936 309.75V296.625C606.056 294.711 606.115 292.785 606.115 290.852ZM605.936 296.625V309.75C604.534 332.338 594.996 353.405 580.571 370.459V357.334C594.996 340.279 604.534 319.213 605.936 296.625ZM580.571 357.332V370.457C572.751 379.687 563.592 387.693 553.398 394.208V381.083C563.592 374.568 572.751 366.562 580.571 357.332ZM553.398 381.083V394.208C551.13 395.657 548.813 397.029 546.451 398.322C539.238 402.266 531.821 405.665 524.195 408.466V395.341C531.822 392.539 539.238 389.141 546.451 385.196C548.813 383.904 551.13 382.532 553.398 381.083Z" fill="#C92F6A"/>
<path d="M524.202 395.346V408.471C513.942 412.242 503.307 414.935 492.286 416.441V403.316C503.307 401.81 513.942 399.118 524.202 395.346ZM492.286 403.316V416.441C486.492 417.232 480.657 417.69 474.81 417.809C473.724 417.832 472.638 417.844 471.556 417.844C447.834 417.844 425.387 412.353 404.635 402.014C401.914 400.659 399.623 399.815 397.374 399.812C396.977 399.812 396.583 399.839 396.188 399.894V386.769C396.583 386.714 396.977 386.688 397.374 386.688C399.622 386.69 401.913 387.533 404.635 388.889C425.388 399.227 447.834 404.719 471.556 404.719C472.637 404.719 473.723 404.706 474.81 404.684C480.657 404.565 486.492 404.107 492.286 403.316Z" fill="#C92F6A"/>
<path d="M396.19 386.773V399.898C395.556 399.985 394.919 400.145 394.271 400.381V387.256C394.891 387.026 395.535 386.864 396.19 386.773ZM394.271 387.256V400.381C393.497 400.666 392.706 401.065 391.885 401.591V388.466C392.706 387.94 393.497 387.541 394.271 387.256ZM391.885 388.466V401.591C390.984 402.167 390.045 402.893 389.052 403.79C375.223 416.266 360.899 428.331 346.78 440.563C346.224 441.039 345.704 441.556 345.225 442.109V428.984C345.703 428.43 346.224 427.913 346.78 427.438C360.9 415.205 375.224 403.14 389.052 390.665C390.047 389.768 390.984 389.042 391.885 388.466ZM345.225 428.984V442.109C344.276 443.23 343.766 444.304 343.695 445.373V432.248C343.766 431.177 344.275 430.103 345.225 428.984ZM343.695 432.248V445.373C343.69 445.455 343.688 445.54 343.688 445.624V432.498C343.688 432.416 343.69 432.331 343.695 432.248Z" fill="#C92F6A"/>
<path d="M408.763 491.078V504.203C402.242 509.965 395.889 515.576 389.352 521.354V508.229C395.888 502.452 402.242 496.839 408.763 491.078Z" fill="#C92F6A"/>
<path d="M408.763 491.078V504.203C402.242 509.965 395.889 515.576 389.352 521.354V508.229C395.888 502.452 402.242 496.839 408.763 491.078Z" fill="#C92F6A"/>
<path d="M224.453 533.251V546.376C217.87 540.708 211.498 535.226 204.82 529.477V516.352C211.498 522.1 217.87 527.583 224.453 533.251Z" fill="#C92F6A"/>
<path d="M224.453 533.251V546.376C217.87 540.708 211.498 535.226 204.82 529.477V516.352C211.498 522.1 217.87 527.583 224.453 533.251Z" fill="#C92F6A"/>
<path d="M389.348 508.229V521.354C380.559 513.728 371.409 505.776 362.242 497.839C350.808 487.923 339.162 478.184 328.025 468.021C326.036 466.205 323.813 465.274 321.545 465.274C319.257 465.274 316.921 466.216 314.725 468.145C285.845 493.48 256.684 518.577 227.611 543.75C226.494 544.719 225.327 545.64 224.453 546.369V533.244C225.327 532.515 226.493 531.594 227.611 530.625C256.685 505.451 285.846 480.354 314.725 455.02C316.921 453.091 319.257 452.148 321.545 452.148C323.813 452.148 326.036 453.079 328.025 454.896C339.161 465.058 350.808 474.797 362.242 484.714C371.409 492.651 380.559 500.603 389.348 508.229Z" fill="#C92F6A"/>
<path d="M389.352 508.229V521.354C380.563 513.728 371.414 505.776 362.247 497.839C350.813 487.923 339.167 478.184 328.03 468.021C326.041 466.205 323.818 465.274 321.549 465.274C321.17 465.274 320.789 465.299 320.408 465.353V452.228C320.791 452.175 321.17 452.148 321.549 452.148C323.818 452.148 326.041 453.079 328.03 454.896C339.166 465.058 350.813 474.797 362.247 484.714C371.413 492.651 380.564 500.603 389.352 508.229ZM320.408 452.228V465.355C319.773 465.44 319.134 465.601 318.499 465.833V452.708C319.116 452.479 319.756 452.318 320.408 452.228ZM318.497 452.709V465.834C317.791 466.093 317.084 466.445 316.391 466.89V453.765C317.052 453.338 317.759 452.984 318.497 452.709Z" fill="#C92F6A"/>
<path d="M316.387 453.766V466.891C315.801 467.266 315.246 467.686 314.725 468.147C285.845 493.483 256.684 518.579 227.611 543.752C226.494 544.72 225.327 545.641 224.453 546.37V533.245C225.327 532.516 226.493 531.596 227.611 530.627C256.685 505.453 285.846 480.357 314.725 455.022C315.246 454.561 315.801 454.141 316.387 453.766Z" fill="#C92F6A"/>
<path d="M593.697 243.746C624.652 300.508 593.562 359.434 546.455 385.2C524.498 397.21 500.645 404.141 474.809 404.686C473.721 404.708 472.635 404.717 471.553 404.717C447.833 404.717 425.384 399.229 404.633 388.89C401.912 387.535 399.62 386.689 397.37 386.687C394.746 386.687 392.177 387.838 389.048 390.661C375.219 403.137 360.895 415.201 346.776 427.433C342.705 430.966 342.641 433.931 346.656 437.409C367.487 455.427 388.332 473.43 408.759 491.081C402.238 496.841 395.885 502.453 389.348 508.232C380.559 500.604 371.409 492.654 362.242 484.716C350.808 474.801 339.162 465.06 328.025 454.898C326.036 453.082 323.813 452.151 321.545 452.151C319.257 452.151 316.921 453.092 314.725 455.021C285.845 480.357 256.684 505.456 227.611 530.628C226.494 531.598 225.327 532.518 224.453 533.247C217.87 527.578 211.498 522.099 204.82 516.349C229.485 495.01 254.228 473.592 278.978 452.185C284.546 447.363 290.114 442.548 295.682 437.727C300.162 433.845 300.209 430.995 295.791 427.169C276.112 410.115 256.432 393.057 236.705 376.04C235.588 375.072 234.061 374.472 232.886 373.795C240.125 367.535 246.392 362.107 252.953 356.432C253.875 357.189 255.032 358.094 256.134 359.049C275.789 376.126 295.43 393.217 315.095 410.286C317.518 412.392 319.446 413.437 321.363 413.437C323.262 413.437 325.147 412.411 327.489 410.377C341.086 398.583 354.692 386.799 368.305 375.023C373.204 370.788 373.245 368.306 368.952 363.769C346.398 339.901 334.105 312.599 338.214 281.765C344.498 234.584 374.259 202.131 425.587 185.007C440.513 180.027 456.014 177.688 471.379 177.688C522.276 177.691 571.672 203.357 593.697 243.746ZM486.345 379.678C531.646 375.652 578.365 341.529 578.408 291.868C578.416 284.518 577.399 276.829 575.205 268.846C575.06 268.322 574.909 267.799 574.752 267.278C574.599 266.768 574.439 266.262 574.272 265.755C563.745 233.848 526.023 201.942 473.716 201.857C472.861 201.857 472.227 201.865 471.58 201.876C458.972 201.985 446.591 203.341 434.678 207.085C399.709 218.075 365.3 247.156 365.37 290.984C365.373 294.698 365.629 298.517 366.15 302.441C369.126 324.796 381.365 342.961 400.658 357.709C401.431 358.302 402.209 358.883 402.992 359.449C403.171 359.577 403.347 359.706 403.526 359.833C423.542 374.146 446.352 380.305 471.273 380.354C475.781 380.355 480.287 380.176 484.78 379.812C485.299 379.77 485.823 379.725 486.345 379.678Z" fill="#DF3D82"/>
</svg>
