<svg width="800" height="800" viewBox="0 0 800 800" fill="none" xmlns="http://www.w3.org/2000/svg">
<path d="M776.374 385.578V412.922C776.374 423.337 771.655 433.753 762.206 441.935C652.715 536.796 543.183 631.619 433.698 726.481C424.47 734.479 413.532 738.591 400.531 738.591V711.248C413.534 711.248 424.47 707.135 433.698 699.138C543.184 604.275 652.711 509.448 762.206 414.593C771.655 406.409 776.374 395.997 776.374 385.578Z" fill="#E2AC47"/>
<path d="M23.625 412.789V410.055V408.688V405.953V403.219V401.852V399.117V396.383V395.016V392.281V389.547V388.18V385.445C23.625 396.935 28.8602 408.346 38.4977 416.71C146.661 510.51 254.942 604.207 363.155 697.976C373.313 706.773 385.609 710.84 400.541 711.252V738.596C385.612 738.184 373.313 734.116 363.155 725.32C254.942 631.551 146.661 537.854 38.4977 444.054C28.8594 435.691 23.625 424.279 23.625 412.789Z" fill="#E2AC47"/>
<path d="M399.053 59.8438C411.759 59.8438 424.48 64.0328 434.167 72.4195C543.502 167.098 652.839 261.776 762.15 356.471C781.088 372.873 781.131 398.2 762.212 414.593C652.72 509.453 543.189 604.279 433.706 699.138C424.476 707.137 413.539 711.249 400.541 711.249C385.612 710.837 373.312 706.77 363.155 697.973C254.942 604.204 146.661 510.507 38.4977 416.707C23.2001 403.436 18.9977 382.48 29.2047 365.73C32.2665 360.7 35.9774 356.488 40.5055 352.566C148.403 259.166 256.27 165.743 364.148 72.3172C373.754 64.0055 386.396 59.8438 399.053 59.8438Z" fill="#F4DF4B"/>
<path d="M321.732 460.953V474.079C321.732 471.002 320.66 468.731 317.972 466.723C308.168 459.384 298.293 452.093 288.731 444.518C263.98 424.881 246.34 401.468 241.048 372.363C239.553 364.131 238.805 356.041 238.805 348.102V334.977C238.805 342.914 239.553 351.006 241.048 359.238C246.34 388.344 263.981 411.757 288.731 431.391C298.292 438.968 308.168 446.259 317.972 453.597C320.66 455.607 321.732 457.875 321.732 460.953Z" fill="#E7BA4A"/>
<path d="M321.732 460.953V474.079C321.732 471.002 320.66 468.731 317.972 466.723C308.168 459.384 298.293 452.093 288.731 444.518C263.98 424.881 246.34 401.468 241.048 372.363C239.553 364.131 238.805 356.041 238.805 348.102V334.977C238.805 342.914 239.553 351.006 241.048 359.238C246.34 388.344 263.981 411.757 288.731 431.391C298.292 438.968 308.168 446.259 317.972 453.597C320.66 455.607 321.732 457.875 321.732 460.953Z" fill="#E7BA4A"/>
<path d="M561.195 337.711V350.837C561.195 389.497 541.996 422.578 504.98 450.198C497.247 455.962 489.56 461.763 481.778 467.473C479.177 469.384 478.195 471.592 478.195 474.552V461.427C478.195 458.468 479.177 456.261 481.778 454.348C489.56 448.637 497.247 442.836 504.98 437.073C541.996 409.453 561.195 376.372 561.195 337.711Z" fill="#E7BA4A"/>
<path d="M561.19 337.711V350.837C561.19 353.148 561.121 355.439 560.984 357.711V344.586C561.121 342.313 561.19 340.022 561.19 337.711Z" fill="#E7BA4A"/>
<path d="M560.991 344.586V357.711C559.523 382.038 550.222 404.079 533.444 423.866V410.741C550.22 390.953 559.523 368.913 560.991 344.586ZM533.444 410.741V423.866C525.584 433.138 516.084 441.915 504.98 450.197C497.248 455.962 489.561 461.763 481.779 467.473C481.084 467.983 480.505 468.513 480.03 469.077V455.952C480.505 455.388 481.086 454.859 481.779 454.348C489.561 448.637 497.248 442.836 504.98 437.072C516.084 428.789 525.584 420.013 533.444 410.741ZM480.03 455.952V469.077C478.874 470.441 478.327 471.981 478.218 473.82V460.694C478.327 458.856 478.873 457.316 480.03 455.952ZM478.216 460.695V473.822C478.2 474.061 478.195 474.303 478.195 474.554V461.428C478.195 461.177 478.202 460.934 478.216 460.695Z" fill="#E7BA4A"/>
<path d="M451.672 464.383V477.508C451.676 480.077 450.44 480.112 445.758 480.112V466.987C450.441 466.987 451.676 466.952 451.672 464.383Z" fill="#E7BA4A"/>
<path d="M451.67 464.383V477.508C451.67 477.647 451.667 477.778 451.659 477.903V464.778C451.667 464.653 451.67 464.522 451.67 464.383ZM451.659 464.778V477.903C451.623 478.509 451.493 478.95 451.227 479.27V466.145C451.493 465.825 451.623 465.384 451.659 464.778Z" fill="#E7BA4A"/>
<path d="M451.231 466.141V479.266C451.13 479.385 451.012 479.488 450.881 479.572V466.445C451.013 466.363 451.131 466.26 451.231 466.141ZM450.881 466.445V479.572C450.753 479.655 450.615 479.722 450.47 479.773V466.647C450.623 466.589 450.76 466.523 450.881 466.445ZM450.47 466.645V479.77C450.17 479.875 449.86 479.946 449.545 479.982V466.856C449.86 466.82 450.171 466.749 450.47 466.645ZM449.545 466.858V479.983C448.654 480.103 447.424 480.109 445.758 480.109V466.984C447.423 466.984 448.652 466.978 449.545 466.858Z" fill="#E7BA4A"/>
<path d="M348.414 477.235V464.109C348.414 466.303 350.06 466.979 353.127 467.024V480.149C350.061 480.104 348.414 479.428 348.414 477.235Z" fill="#E7BA4A"/>
<path d="M353.127 467.023V480.148C350.06 480.102 348.414 479.427 348.414 477.235V464.109C348.414 466.302 350.061 466.977 353.127 467.023Z" fill="#E7BA4A"/>
<path d="M386.759 462.852V475.978C386.776 478.981 385.719 480.127 382.43 480.161V467.036C385.72 467.001 386.774 465.856 386.759 462.852Z" fill="#E7BA4A"/>
<path d="M386.754 462.852V475.978C386.755 476.218 386.75 476.443 386.737 476.656V463.531C386.75 463.317 386.755 463.092 386.754 462.852ZM386.737 463.531V476.656C386.675 477.692 386.444 478.467 385.977 479.02V465.894C386.445 465.342 386.675 464.567 386.737 463.531Z" fill="#E7BA4A"/>
<path d="M385.982 465.898V479.024C385.819 479.217 385.627 479.384 385.414 479.52V466.395C385.633 466.254 385.822 466.089 385.982 465.898Z" fill="#E7BA4A"/>
<path d="M385.415 466.391V479.516C385.22 479.638 385.012 479.74 384.795 479.819V466.693C385.024 466.609 385.231 466.51 385.415 466.391ZM384.795 466.693V479.819C384.475 479.934 384.11 480.022 383.695 480.077V466.952C384.11 466.896 384.475 466.811 384.795 466.693ZM383.695 466.952V480.077C383.316 480.128 382.898 480.156 382.43 480.161V467.035C382.853 467.034 383.276 467.006 383.695 466.952Z" fill="#E7BA4A"/>
<path d="M382.429 467.037V480.162C379.827 480.123 377.224 480.095 374.622 480.077C372.551 480.063 370.477 480.055 368.405 480.055C363.314 480.056 358.223 480.087 353.133 480.148V467.023C355.839 466.992 358.543 466.967 361.249 466.951C363.382 466.937 365.516 466.931 368.405 466.93C370.477 466.93 372.552 466.94 374.622 466.951C377.08 466.967 379.537 466.995 382.429 467.037Z" fill="#E7BA4A"/>
<path d="M382.429 467.037V480.162C379.827 480.123 377.224 480.095 374.622 480.077C372.551 480.063 370.477 480.055 368.405 480.055C363.314 480.056 358.223 480.087 353.133 480.148V467.023C355.839 466.992 358.543 466.967 361.249 466.951C363.382 466.937 365.516 466.931 368.405 466.93C370.477 466.93 372.552 466.94 374.622 466.951C377.08 466.967 379.537 466.995 382.429 467.037Z" fill="#E7BA4A"/>
<path d="M444.171 466.981V480.106L441.648 480.101C440.247 480.098 438.845 480.094 437.443 480.09C434.993 480.079 432.543 480.072 430.093 480.07C427.623 480.07 426.001 480.075 424.378 480.086C422.319 480.101 420.261 480.124 418.203 480.165V467.04C420.261 467 422.32 466.974 424.378 466.961C426 466.95 427.624 466.945 430.093 466.945C431.073 466.945 432.052 466.946 433.034 466.95C434.503 466.953 435.973 466.958 437.443 466.964C438.845 466.968 440.245 466.973 441.648 466.976L444.171 466.981Z" fill="#E7BA4A"/>
<path d="M444.171 466.981V480.106L441.648 480.101C440.247 480.098 438.845 480.094 437.443 480.09C434.993 480.079 432.543 480.072 430.093 480.07C427.623 480.07 426.001 480.075 424.378 480.086C422.319 480.101 420.261 480.124 418.203 480.165V467.04C420.261 467 422.32 466.974 424.378 466.961C426 466.95 427.624 466.945 430.093 466.945C431.073 466.945 432.052 466.946 433.034 466.95C434.503 466.953 435.973 466.958 437.443 466.964C438.845 466.968 440.245 466.973 441.648 466.976L444.171 466.981Z" fill="#E7BA4A"/>
<path d="M400.039 218.398C435.686 218.464 470.19 231.062 495.878 254.526C496.319 254.931 496.759 255.337 497.196 255.746C521.672 278.732 534.062 305.307 534.154 335.081C534.171 340.924 533.715 346.891 532.784 352.977C529.342 375.441 516.711 394.184 498.219 409.849C487.51 418.928 475.988 427.294 464.672 435.826C456.374 442.091 451.272 449.351 451.279 458.751C451.282 459.844 451.35 460.937 451.483 462.023C451.597 462.982 451.671 463.754 451.672 464.378C451.676 466.947 450.44 466.982 445.758 466.982L444.17 466.984L441.647 466.98C440.245 466.976 438.843 466.971 437.442 466.967L433.032 466.953C432.052 466.95 431.072 466.948 430.092 466.948C427.623 466.948 425.999 466.953 424.377 466.965C422.317 466.98 420.259 467.001 418.202 467.043C414.266 466.976 413.145 465.85 413.162 462.712C413.296 436.455 413.192 410.189 413.336 383.935C413.352 382.298 414.423 380.286 415.768 379.092C427.464 368.691 439.307 358.422 451.159 348.158C454.342 345.406 456.597 342.325 456.597 338.504C456.597 338.033 456.563 337.555 456.49 337.062C455.402 330.654 449.743 326.742 443.556 326.619C440.71 326.657 438.37 327.216 436.178 328.373C435.811 328.566 435.45 328.774 435.094 329.001C431.834 331.068 429.124 333.794 426.21 336.265C417.454 343.664 408.728 351.084 399.988 358.491C387.946 348.206 376.046 337.814 363.786 327.753C360.991 325.455 357.109 323.579 353.384 322.843C351.731 322.619 351.342 322.599 350.959 322.596C346.067 322.751 342.274 325.184 340.281 328.53C339.166 330.402 338.602 332.357 338.602 334.294C338.601 337.315 339.969 340.294 342.761 342.859C348.659 348.275 354.792 353.498 360.859 358.778C368.67 365.576 376.599 372.287 384.27 379.204C385.592 380.397 386.586 382.43 386.595 384.08C386.736 410.337 386.649 436.6 386.759 462.855C386.775 465.858 385.718 467.003 382.43 467.038C377.756 466.967 373.081 466.932 368.406 466.932C365.517 466.933 363.382 466.941 361.251 466.953C358.545 466.969 355.839 466.994 353.132 467.025C349.734 466.975 348.079 466.148 348.478 463.341C348.752 461.664 348.87 460.2 348.868 458.788C348.856 447.284 340.908 439.179 330.942 431.74C319.806 423.424 308.528 415.168 298.243 406.096C276.221 386.667 265.663 363.732 265.617 338.098C265.609 332.777 266.053 327.341 266.939 321.795C273.72 279.41 299.7 248.27 343.988 229.666C344.943 229.264 345.904 228.873 346.868 228.493C364.021 221.715 382.113 218.425 400.039 218.398Z" fill="#F9F4BE"/>
<path d="M418.203 467.042V480.167C414.267 480.1 413.148 478.975 413.164 475.836V462.711C413.148 465.849 414.267 466.975 418.203 467.042Z" fill="#E7BA4A"/>
<path d="M418.203 467.042V480.167C414.267 480.1 413.148 478.975 413.164 475.836V462.711C413.148 465.849 414.267 466.975 418.203 467.042Z" fill="#E7BA4A"/>
<path d="M353.412 503.215C351.98 503.215 350.96 503.241 350.234 503.374V501.84V500.212V498.525V496.808V495.092V493.409V491.784V490.254C350.961 490.12 351.98 490.094 353.412 490.094V503.215Z" fill="#E7BA4A"/>
<path d="M353.413 490.094V503.219C352.171 503.219 351.24 503.237 350.542 503.331V490.206C351.24 490.113 352.172 490.094 353.413 490.094ZM350.542 490.206V503.331C350.202 503.377 349.918 503.441 349.68 503.525V490.399C349.96 490.305 350.249 490.24 350.542 490.206Z" fill="#E7BA4A"/>
<path d="M348.815 504.208C348.518 504.733 348.469 505.531 348.469 506.741V493.616C348.47 491.38 348.638 490.552 350.216 490.254C350.222 490.254 350.228 490.252 350.233 490.25V503.37C349.499 503.513 349.067 503.761 348.815 504.208V502.677V501.055V499.37V497.655V495.941V494.257V492.634V491.102V502.677C348.815 503.137 348.931 503.763 348.815 504.208Z" fill="#E7BA4A"/>
<path d="M350.542 490.203V503.328C350.202 503.375 349.918 503.438 349.68 503.523V490.397C349.96 490.302 350.249 490.237 350.542 490.203Z" fill="#E7BA4A"/>
<path d="M349.677 490.398V503.524C349.53 503.578 349.401 503.638 349.287 503.713V490.588C349.4 490.515 349.53 490.452 349.677 490.398ZM349.287 490.588V503.713C349.165 503.79 349.054 503.886 348.961 503.996V490.87C349.052 490.763 349.16 490.669 349.287 490.588Z" fill="#E7BA4A"/>
<path d="M348.962 490.867V503.992C348.66 504.355 348.539 504.883 348.495 505.649V492.523C348.539 491.755 348.66 491.23 348.962 490.867ZM348.495 492.523V505.649C348.476 505.972 348.469 506.337 348.469 506.749V493.624C348.469 493.211 348.475 492.845 348.495 492.523Z" fill="#E7BA4A"/>
<path d="M353.405 490.094C353.846 490.094 354.328 490.095 354.85 490.099H356.734C361.543 490.097 366.357 490.095 371.165 490.095C380.788 490.095 390.406 490.099 400.029 490.099H445.075C451.596 490.099 451.493 490.099 451.602 495.93C451.607 496.125 451.61 496.32 451.609 496.514C451.592 502.524 449.405 507.695 444.248 511.923C440.035 515.388 435.115 517.243 429.301 517.243L412.195 517.259C406.62 517.265 401.048 517.27 395.477 517.27H394.749C386.731 517.271 378.713 517.257 370.696 517.23C358.248 517.181 348.399 508.26 348.461 497.382L348.464 497.125L348.468 496.819C348.567 490.507 347.636 490.094 353.405 490.094Z" fill="#F2EA90"/>
<path d="M429.307 517.234V530.36C423.605 530.364 417.902 530.371 412.201 530.376C406.626 530.382 401.054 530.388 395.483 530.388H395.094V517.262H395.483C401.055 517.262 406.627 517.257 412.201 517.251C417.902 517.245 423.605 517.239 429.307 517.234Z" fill="#E7BA4A"/>
<path d="M429.307 517.234V530.36C423.605 530.364 417.902 530.371 412.201 530.376C406.626 530.382 401.054 530.388 395.483 530.388H395.094V517.262H395.483C401.055 517.262 406.627 517.257 412.201 517.251C417.902 517.245 423.605 517.239 429.307 517.234Z" fill="#E7BA4A"/>
<path d="M395.087 517.271V530.397H394.749C390.941 530.397 387.133 530.395 383.326 530.388C379.116 530.381 374.905 530.371 370.696 530.356C358.248 530.307 348.399 521.387 348.461 510.509V497.383C348.399 508.261 358.25 517.184 370.696 517.231C378.713 517.258 386.731 517.271 394.749 517.271H395.087Z" fill="#E7BA4A"/>
<path d="M395.087 517.271V530.397H394.749C390.941 530.397 387.133 530.395 383.326 530.388C379.116 530.381 374.905 530.371 370.696 530.356C358.248 530.307 348.399 521.387 348.461 510.509V497.383C348.399 508.261 358.25 517.184 370.696 517.231C378.713 517.258 386.731 517.271 394.749 517.271H395.087Z" fill="#E7BA4A"/>
<path d="M557.232 306.257C570.006 358.711 551.664 402.234 504.974 437.071C497.241 442.835 489.555 448.637 481.773 454.346C479.12 456.295 478.151 458.555 478.191 461.602C478.373 474.322 478.916 487.081 478.126 499.768C476.702 522.921 458.117 539.29 431.437 540.252C421.557 540.602 411.65 540.776 401.745 540.776C390.068 540.776 378.391 540.537 366.742 540.08C340.991 539.071 321.752 520.63 321.658 498.246C321.609 485.889 321.532 473.537 321.729 461.187C321.784 457.987 320.73 455.655 317.972 453.595C308.168 446.256 298.293 438.966 288.731 431.39C263.98 411.753 246.34 388.341 241.048 359.235C233.764 319.119 244.191 282.375 272.705 250.109C301.269 217.776 339.486 199.852 386.365 195.925C388.011 195.788 389.594 195.059 391.208 194.602H408.706C410.32 195.059 411.905 195.788 413.548 195.925C484.955 201.795 542.466 245.588 557.232 306.257ZM532.78 352.981C533.712 346.895 534.168 340.927 534.15 335.085C534.06 305.311 521.667 278.734 497.193 255.748C496.753 255.338 496.318 254.934 495.874 254.528C470.187 231.064 435.683 218.466 400.54 218.401C382.105 218.426 364.023 221.716 346.865 228.49C345.901 228.87 344.941 229.26 343.985 229.661C299.697 248.266 273.718 279.405 266.935 321.792C266.048 327.339 265.605 332.774 265.614 338.095C265.659 363.729 276.216 386.665 298.24 406.095C308.525 415.164 319.802 423.424 330.938 431.735C340.905 439.177 348.855 447.284 348.866 458.785C348.864 460.259 348.742 461.729 348.5 463.183C348.077 466.147 349.73 466.973 352.608 467.023C355.837 466.993 358.543 466.967 361.25 466.951C365.707 466.922 370.165 466.923 374.623 466.952C377.08 466.968 379.537 466.997 381.995 467.035C385.717 467.001 386.773 465.855 386.758 462.854C386.648 436.598 386.734 410.334 386.592 384.078C386.584 382.428 385.592 380.395 384.269 379.202C376.6 372.287 368.667 365.577 360.855 358.777C354.791 353.497 348.656 348.273 342.758 342.857C339.966 340.294 338.596 337.314 338.598 334.293C338.599 332.356 339.165 330.402 340.276 328.53C342.27 325.185 346.065 322.752 350.452 322.603C351.337 322.598 351.727 322.618 352.117 322.656C357.105 323.579 360.987 325.455 363.784 327.753C376.045 337.812 387.944 348.206 399.986 358.491C408.726 351.085 417.452 343.663 426.209 336.265C429.122 333.797 431.83 331.069 435.091 329.001C435.448 328.774 435.809 328.566 436.175 328.373C438.279 327.261 440.615 326.659 442.995 326.617C449.742 326.741 455.4 330.654 456.441 336.764C456.557 337.554 456.594 338.035 456.594 338.504C456.594 342.325 454.339 345.407 451.155 348.158C439.304 358.423 427.459 368.691 415.765 379.092C414.42 380.286 413.347 382.299 413.332 383.934C413.188 410.191 413.292 436.455 413.159 462.711C413.142 465.85 414.262 466.976 417.513 467.043C420.256 467.002 422.315 466.98 424.373 466.966C425.994 466.954 427.617 466.949 429.24 466.949C431.067 466.949 432.044 466.952 433.027 466.954L437.434 466.968C438.836 466.972 440.237 466.977 441.64 466.982L443.323 466.983C444.692 466.985 445.221 466.984 445.751 466.983C450.434 466.983 451.67 466.948 451.666 464.379C451.664 463.756 451.591 462.983 451.477 462.025C451.344 460.939 451.276 459.847 451.273 458.753C451.263 449.354 456.366 442.092 464.665 435.83C475.981 427.297 487.502 418.93 498.211 409.852C516.706 394.187 529.339 375.445 532.78 352.981ZM444.25 511.92C449.408 507.691 451.592 502.523 451.609 496.511C451.612 496.318 451.609 496.122 451.604 495.927C451.494 490.096 451.596 490.096 445.077 490.096H400.032C390.411 490.096 380.788 490.092 371.168 490.092C366.358 490.092 361.547 490.094 356.737 490.096H354.853C354.331 490.094 353.85 490.091 353.41 490.091C347.639 490.091 348.567 490.504 348.472 496.813L348.468 497.122L348.464 497.377C348.402 508.256 358.252 517.18 370.698 517.225C374.909 517.242 379.12 517.251 383.329 517.257C387.137 517.264 390.944 517.266 394.752 517.266H395.48C401.053 517.266 406.624 517.26 412.198 517.255C417.9 517.248 423.602 517.242 429.304 517.238C435.114 517.238 440.036 515.384 444.25 511.92Z" fill="#EFD350"/>
<path d="M478.542 484.697V497.822C478.542 502.852 478.438 507.877 478.126 512.892C476.702 536.046 458.117 552.414 431.437 553.375C421.557 553.727 411.65 553.9 401.745 553.9C390.068 553.9 378.391 553.661 366.742 553.203C340.991 552.194 321.752 533.754 321.658 511.371C321.634 505.101 321.602 498.83 321.602 492.562V479.438C321.602 485.706 321.634 491.976 321.658 498.246C321.752 520.629 340.991 539.07 366.742 540.08C378.392 540.537 390.069 540.775 401.745 540.775C411.65 540.775 421.554 540.602 431.437 540.25C458.116 539.289 476.701 522.919 478.126 499.767C478.438 494.753 478.542 489.727 478.542 484.697Z" fill="#E7BA4A"/>
<path d="M478.541 484.695V497.82C478.541 502.71 478.444 507.596 478.152 512.47V499.345C478.444 494.472 478.541 489.585 478.541 484.695ZM478.151 499.345V512.47L478.125 512.892C477.553 522.234 474.183 530.472 468.616 537.038V523.913C474.183 517.346 477.552 509.109 478.125 499.767L478.151 499.345ZM468.616 523.913V537.038C465.93 540.206 462.735 542.984 459.094 545.311V532.186C462.735 529.859 465.932 527.08 468.616 523.913Z" fill="#E7BA4A"/>
<path d="M459.101 532.188V545.312C456.249 547.134 453.125 548.677 449.758 549.914V536.789C453.124 535.552 456.248 534.008 459.101 532.188Z" fill="#E7BA4A"/>
<path d="M449.754 536.788V549.913C446.061 551.269 442.08 552.257 437.851 552.831V539.706C442.079 539.131 446.061 538.145 449.754 536.788ZM437.849 539.706V552.831C435.722 553.118 433.582 553.299 431.437 553.375C421.557 553.727 411.65 553.9 401.745 553.9C390.068 553.9 378.391 553.661 366.742 553.203C340.991 552.194 321.752 533.754 321.658 511.371C321.634 505.101 321.602 498.83 321.602 492.562V479.438C321.602 485.706 321.634 491.976 321.658 498.246C321.752 520.629 340.991 539.07 366.742 540.08C378.392 540.537 390.069 540.775 401.745 540.775C411.65 540.775 421.554 540.602 431.437 540.25C433.582 540.175 435.722 539.994 437.849 539.706Z" fill="#E7BA4A"/>
<path d="M480.004 565.672V578.799C480.004 579.661 479.91 580.562 479.72 581.492C478.736 586.301 474.909 589.602 469.318 590.446C468.743 590.534 468.161 590.665 467.584 590.665C442.541 590.677 417.487 590.718 392.44 590.718C372.473 590.718 352.517 590.691 332.552 590.603C324.837 590.57 319.898 585.591 319.898 579.37V566.245C319.898 572.465 324.837 577.444 332.552 577.478C352.518 577.566 372.474 577.593 392.44 577.593C417.487 577.593 442.541 577.55 467.584 577.54C468.159 577.54 468.741 577.409 469.318 577.321C474.908 576.477 478.737 573.175 479.72 568.367C479.912 567.436 480.004 566.535 480.004 565.672Z" fill="#E7BA4A"/>
<path d="M480.007 565.672V578.799C480.007 579.054 479.998 579.316 479.983 579.579V566.453C480 566.189 480.007 565.928 480.007 565.672ZM479.983 566.453V579.579C479.943 580.199 479.858 580.838 479.724 581.492C479.35 583.314 478.569 584.923 477.436 586.26V573.135C478.567 571.796 479.35 570.189 479.724 568.367C479.858 567.712 479.943 567.074 479.983 566.453ZM477.436 573.133V586.26C476.719 587.102 475.879 587.831 474.945 588.424V575.299C475.88 574.706 476.719 573.976 477.436 573.133Z" fill="#E7BA4A"/>
<path d="M474.942 575.295V588.42C474.15 588.921 473.307 589.336 472.427 589.659V576.534C473.307 576.212 474.15 575.797 474.942 575.295ZM472.427 576.534V589.659C471.419 590.023 470.378 590.286 469.318 590.443C468.986 590.494 468.652 590.558 468.32 590.603V577.477C468.653 577.433 468.987 577.367 469.318 577.317C470.378 577.161 471.419 576.899 472.427 576.534ZM468.318 577.48V590.605C468.075 590.641 467.829 590.66 467.584 590.663C442.541 590.674 417.487 590.716 392.439 590.716C372.473 590.716 352.516 590.689 332.552 590.601C324.838 590.567 319.898 585.589 319.898 579.367V566.242C319.898 572.463 324.838 577.441 332.552 577.476C352.518 577.564 372.474 577.591 392.439 577.591C417.487 577.591 442.541 577.548 467.584 577.538C467.828 577.536 468.074 577.513 468.318 577.48Z" fill="#E7BA4A"/>
<path d="M437.781 554.352C446.916 554.352 456.051 554.367 465.18 554.411C475.585 554.46 481.388 560.201 479.719 568.36C478.734 573.167 474.908 576.467 469.316 577.313C468.742 577.401 468.16 577.531 467.583 577.531C442.541 577.543 417.486 577.584 392.438 577.584C372.473 577.584 352.516 577.559 332.551 577.471C323.503 577.431 318.274 570.588 320.352 562.917C321.732 557.863 326.377 554.603 333.204 554.489C339.777 554.387 346.35 554.37 352.926 554.37C354.82 554.37 356.715 554.371 358.609 554.375C361.649 554.381 364.688 554.381 367.727 554.375C371.322 554.368 374.916 554.364 378.509 554.364C385.694 554.364 392.881 554.375 400.064 554.375L405.93 554.377C410.653 554.377 415.374 554.37 420.098 554.364C425.991 554.358 431.887 554.352 437.781 554.352Z" fill="#EFD350"/>
</svg>
