<svg width="800" height="800" viewBox="0 0 800 800" fill="none" xmlns="http://www.w3.org/2000/svg">
<path d="M776.374 385.578V412.922C776.374 423.337 771.655 433.753 762.206 441.935C652.715 536.796 543.183 631.619 433.698 726.481C424.47 734.479 413.532 738.591 400.531 738.591V711.248C413.534 711.248 424.47 707.135 433.698 699.138C543.184 604.275 652.711 509.448 762.206 414.593C771.655 406.409 776.374 395.997 776.374 385.578Z" fill="#EDCA5F"/>
<path d="M23.625 412.789V410.055V408.688V405.953V403.219V401.852V399.117V396.383V395.016V392.281V389.547V388.18V385.445C23.625 396.935 28.8602 408.346 38.4977 416.71C146.661 510.51 254.942 604.207 363.155 697.976C373.313 706.773 385.609 710.84 400.541 711.252V738.596C385.612 738.184 373.313 734.116 363.155 725.32C254.942 631.551 146.661 537.854 38.4977 444.054C28.8594 435.691 23.625 424.279 23.625 412.789Z" fill="#EDCA5F"/>
<path d="M399.053 59.8438C411.759 59.8438 424.48 64.0329 434.167 72.4196C543.502 167.098 652.839 261.776 762.15 356.471C781.088 372.873 781.131 398.2 762.212 414.593C652.72 509.453 543.189 604.279 433.706 699.138C424.476 707.137 413.539 711.249 400.541 711.249C385.612 710.837 373.312 706.77 363.155 697.973C254.942 604.204 146.661 510.507 38.4977 416.707C23.2001 403.436 18.9977 382.48 29.2047 365.73C32.2665 360.7 35.9774 356.488 40.5055 352.566C148.403 259.166 256.27 165.743 364.148 72.3172C373.754 64.0047 386.396 59.8438 399.053 59.8438Z" fill="#F4ED6D"/>
<path d="M248.344 339.885V326.76C265.391 278.731 312.604 241.665 370.382 232.451C380.173 230.892 389.935 230.124 400.03 230.102V243.227C389.935 243.249 380.173 244.017 370.382 245.576C312.605 254.789 265.392 291.857 248.344 339.885Z" fill="#DFB95F"/>
<path d="M558.853 370.525V383.651C558.859 369.879 556.4 355.585 551.441 340.817C531.552 281.575 469.276 243.371 400.414 243.227C391.6 243.23 383.041 243.799 374.498 244.968V231.843C383.041 230.675 391.602 230.106 400.414 230.102C469.277 230.246 531.552 268.449 551.441 327.692C556.4 342.46 558.859 356.752 558.853 370.525ZM374.497 231.842V244.967C373.126 245.154 371.756 245.358 370.386 245.577C359.311 247.337 348.434 250.168 337.906 254.031V240.906C348.434 237.044 359.311 234.213 370.386 232.452C371.757 232.233 373.127 232.031 374.497 231.842Z" fill="#DFB95F"/>
<path d="M337.909 240.898V254.023C326.48 258.224 315.721 263.571 305.832 269.892V256.767C315.72 250.446 326.479 245.1 337.909 240.898ZM305.83 256.769V269.894C292.87 278.18 281.405 288.141 271.875 299.395V286.269C281.405 275.016 292.872 265.054 305.83 256.769Z" fill="#DFB95F"/>
<path d="M271.873 286.273V299.398C258.269 315.465 248.613 334.164 244.204 354.387C242.776 360.93 241.87 367.424 241.484 373.869V360.744C241.87 354.301 242.777 347.806 244.204 341.261C248.614 321.04 258.269 302.34 271.873 286.273Z" fill="#DFB95F"/>
<path d="M399.962 369.757H399.906V368.223V366.595V364.908V363.191V361.474V359.788V358.163V356.633H399.962C405.887 356.655 410.975 360.391 412.208 365.259V378.384C410.975 373.516 405.887 369.779 399.962 369.757Z" fill="#DFB95F"/>
<path d="M412.493 367.547V380.533C412.413 374.661 406.735 369.784 399.963 369.758C399.294 369.756 398.625 369.8 397.961 369.889V356.764C398.624 356.672 399.294 356.628 399.963 356.633C406.735 356.658 412.413 361.535 412.493 367.408V367.547Z" fill="#DFB95F"/>
<path d="M395.899 370.332C390.974 371.784 387.419 375.836 387.391 380.598V367.473C387.417 362.709 390.973 358.659 395.899 357.206C395.862 358.376 395.841 360.266 395.839 360.282C395.839 360.266 395.862 358.377 395.899 357.206C397.072 356.862 398.284 356.672 399.506 356.639C399.628 356.638 399.749 356.633 399.913 356.633V369.757C399.749 369.757 399.629 369.76 399.506 369.763C398.248 369.8 397.037 369.998 395.899 370.332C395.876 369.628 395.87 369.224 395.839 367.283C395.87 369.224 395.877 369.627 395.899 370.332Z" fill="#DFB95F"/>
<path d="M412.493 367.547V380.533C412.413 374.661 406.735 369.784 399.963 369.758C399.294 369.756 398.625 369.8 397.961 369.889V356.764C398.624 356.672 399.294 356.628 399.963 356.633C406.735 356.658 412.413 361.535 412.493 367.408V367.547Z" fill="#DFB95F"/>
<path d="M397.962 356.766V369.891C396.967 370.025 395.99 370.267 395.047 370.613V357.488C395.989 357.141 396.967 356.899 397.962 356.766ZM395.045 357.488V370.613C394.156 370.939 393.304 371.36 392.505 371.869V358.744C393.304 358.235 394.156 357.814 395.045 357.488ZM392.505 358.744V371.869C391.499 372.507 390.593 373.293 389.82 374.201V361.076C390.594 360.169 391.499 359.383 392.505 358.744Z" fill="#DFB95F"/>
<path d="M389.827 361.07V374.195C388.428 375.847 387.552 377.852 387.412 380.026V366.901C387.552 364.727 388.428 362.722 389.827 361.07ZM387.411 366.902V380.027C387.398 380.215 387.392 380.402 387.391 380.592V367.467C387.391 367.277 387.399 367.088 387.411 366.902Z" fill="#DFB95F"/>
<path d="M334.413 369.766C333.911 369.788 333.416 369.838 332.93 369.913C333.032 365.529 333.016 361.141 333.12 356.76C333.76 356.671 334.406 356.626 335.052 356.625L335.192 356.626C342.02 356.702 347.524 361.544 347.541 367.484V380.608C347.525 374.668 342.022 369.827 335.192 369.752L335.052 369.751C334.837 369.751 334.625 369.756 334.413 369.766Z" fill="#DFB95F"/>
<path d="M347.545 367.483V380.607C347.529 374.667 342.026 369.826 335.197 369.751L335.057 369.75C334.424 369.751 333.792 369.795 333.165 369.881V356.755C333.792 356.671 334.424 356.628 335.057 356.625L335.197 356.626C342.025 356.701 347.529 361.542 347.545 367.483ZM333.162 356.753V369.879C332.168 370.014 331.192 370.257 330.25 370.602V357.477C331.191 357.131 332.168 356.888 333.162 356.753Z" fill="#DFB95F"/>
<path d="M452.298 380.484C452.297 380.533 452.297 380.58 452.297 380.629V367.504C452.297 367.455 452.297 367.409 452.298 367.359C452.298 371.297 452.356 376.547 452.298 380.484Z" fill="#DFB95F"/>
<path d="M452.743 377.754C452.465 378.638 452.317 379.558 452.305 380.484V367.359C452.32 366.341 452.495 365.357 452.809 364.427C452.796 365.134 452.794 365.294 452.739 372.917C452.796 365.294 452.796 365.136 452.809 364.427C454.33 359.916 459.114 356.625 464.785 356.625C464.839 356.625 464.895 356.625 464.946 356.627C471.765 356.704 477.267 361.571 477.262 367.513V380.638C477.268 374.698 471.766 369.831 464.946 369.753L464.785 369.752C459.029 369.752 454.187 373.139 452.743 377.754Z" fill="#DFB95F"/>
<path d="M477.261 367.513V380.638C477.266 374.697 471.766 369.83 464.945 369.752H464.784C464.12 369.752 463.468 369.798 462.833 369.884V356.759C463.533 356.663 464.239 356.618 464.945 356.626C471.763 356.703 477.265 361.573 477.261 367.513ZM462.832 356.757V369.882C461.842 370.016 460.87 370.258 459.932 370.602V357.477C460.87 357.134 461.842 356.892 462.832 356.757ZM459.932 357.477V370.602C459.048 370.926 458.201 371.346 457.406 371.852V358.727C458.201 358.22 459.047 357.801 459.932 357.477ZM457.406 358.727V371.852C456.407 372.487 455.508 373.266 454.74 374.166V361.041C455.508 360.141 456.407 359.361 457.406 358.727ZM454.738 361.041V374.166C453.336 375.822 452.457 377.835 452.32 380.023V366.898C452.459 364.709 453.337 362.696 454.738 361.041Z" fill="#DFB95F"/>
<path d="M452.322 366.898V380.022C452.311 380.176 452.306 380.33 452.305 380.485V367.36C452.306 367.206 452.311 367.051 452.322 366.898Z" fill="#DFB95F"/>
<path d="M332.932 369.912C327.057 370.809 322.448 375.352 322.461 380.656V367.53C322.446 362.171 327.159 357.587 333.121 356.758C333.02 361.141 333.034 365.527 332.932 369.912Z" fill="#DFB95F"/>
<path d="M333.162 356.75V369.876C332.168 370.011 331.192 370.253 330.25 370.599V357.474C331.191 357.128 332.168 356.885 333.162 356.75Z" fill="#DFB95F"/>
<path d="M330.248 357.477V370.602C329.323 370.942 328.451 371.375 327.648 371.888V358.763C328.466 358.242 329.338 357.811 330.248 357.477Z" fill="#DFB95F"/>
<path d="M327.651 358.766V371.891C326.616 372.548 325.686 373.356 324.891 374.289V361.164C325.686 360.231 326.616 359.422 327.651 358.766ZM324.888 361.165V374.29C323.491 375.942 322.612 377.931 322.479 380.063V366.938C322.613 364.805 323.491 362.816 324.888 361.165ZM322.479 366.938V380.063C322.465 380.259 322.461 380.459 322.461 380.659V367.533C322.461 367.334 322.466 367.135 322.479 366.938Z" fill="#DFB95F"/>
<path d="M551.443 340.814C549.704 335.634 547.627 330.573 545.227 325.664V324.02V322.377V320.736V319.095V317.455V315.815V314.177V312.539C547.628 317.448 549.704 322.509 551.443 327.689C556.321 342.214 558.78 356.279 558.853 369.842L558.854 383.001C558.784 369.428 556.325 355.352 551.443 340.814Z" fill="#DFB95F"/>
<path d="M558.855 370.525V383.651C558.861 369.879 556.402 355.585 551.442 340.817C531.554 281.575 469.277 243.371 400.416 243.227C391.602 243.23 383.043 243.799 374.5 244.968V231.843C383.043 230.675 391.603 230.106 400.416 230.102C469.279 230.246 531.554 268.449 551.442 327.692C556.402 342.46 558.861 356.752 558.855 370.525Z" fill="#DFB95F"/>
<path d="M551.439 327.688C556.4 342.456 558.857 356.748 558.851 370.522C558.833 407.12 541.4 440.053 507.175 468.501C483.07 488.538 453.71 499.934 420.683 503.752C413.501 504.589 406.277 505.015 399.046 505.026C376.034 504.953 354.5 500.782 333.893 492.44C331.525 491.48 329.177 490.47 326.852 489.41C326.061 489.05 325.746 488.907 325.441 488.77C320.969 486.754 318.125 485.593 315.827 485.171C315.211 485.054 314.586 484.994 313.96 484.991C310.922 485.044 308.543 486.529 304.05 489.307C303.303 489.77 302.496 490.269 301.618 490.801C288.86 498.564 274.701 503.121 259.171 504.39C258.822 504.415 258.471 504.437 258.116 504.447C255.978 504.455 255.64 504.449 255.295 504.441C254.516 504.424 253.688 504.408 252.785 504.408C255.336 502.443 257.509 500.841 259.589 499.157C269.801 490.856 276.928 480.727 282.576 469.763C283.37 468.223 283.722 466.743 283.704 465.318C283.672 462.401 282.094 459.712 279.597 457.213C269.463 447.068 261.163 435.897 254.966 423.595C245.8 405.391 241.22 386.729 241.266 367.613C241.286 358.923 242.264 350.139 244.2 341.263C256.186 286.307 306.908 242.571 370.382 232.451C380.156 230.892 390.038 230.107 399.935 230.102C469.274 230.242 531.55 268.446 551.439 327.688ZM335.7 378.375C342.285 378.082 347.548 373.319 347.54 367.484C347.524 361.543 342.021 356.701 335.192 356.626L335.052 356.625C334.839 356.625 334.626 356.631 334.414 356.641C327.854 356.938 322.444 361.791 322.458 367.533C322.482 373.398 328.113 378.315 334.902 378.389L335.059 378.39C335.272 378.39 335.486 378.384 335.7 378.375ZM400.224 378.386C406.911 378.231 412.488 373.333 412.493 367.548V367.409C412.414 361.535 406.736 356.659 399.964 356.634C399.77 356.634 399.636 356.636 399.501 356.639C392.8 356.823 387.42 361.608 387.387 367.471V367.613C387.442 373.539 393.018 378.362 399.846 378.389L400.224 378.386ZM477.257 367.654C477.259 367.607 477.259 367.56 477.259 367.513C477.264 361.573 471.764 356.704 464.943 356.627L464.782 356.626C457.939 356.626 452.39 361.413 452.302 367.359L452.301 367.504C452.31 373.528 457.869 378.395 464.775 378.395C471.595 378.394 477.17 373.594 477.257 367.654Z" fill="#FBF2C7"/>
<path d="M399.909 356.633C406.74 356.659 412.416 361.534 412.495 367.408V367.547C412.491 373.332 406.913 378.231 400.226 378.385C400.119 378.388 400.012 378.388 399.905 378.388C393.022 378.361 387.446 373.539 387.391 367.613V367.472C387.423 361.609 392.803 356.826 399.505 356.64C399.637 356.634 399.773 356.633 399.909 356.633Z" fill="#F7D469"/>
<path d="M464.77 356.625C464.84 356.625 464.895 356.625 464.947 356.627C471.766 356.702 477.268 361.571 477.262 367.512C477.262 367.559 477.262 367.606 477.26 367.654C477.175 373.595 471.598 378.395 464.779 378.395C457.873 378.395 452.314 373.528 452.305 367.504V367.36C452.391 361.413 457.943 356.625 464.77 356.625Z" fill="#F7D469"/>
<path d="M260.969 466.829V479.954C260.969 478.858 260.42 477.811 259.243 476.531C240.381 455.974 228.436 432.7 223.452 406.784C222.365 401.131 221.664 395.415 220.789 389.727V376.602C221.663 382.289 222.363 388.005 223.452 393.659C228.436 419.574 240.381 442.851 259.243 463.406C260.42 464.686 260.969 465.733 260.969 466.829Z" fill="#DFB95F"/>
<path d="M260.969 466.829V479.954C260.969 478.858 260.42 477.811 259.243 476.531C240.381 455.974 228.436 432.7 223.452 406.784C222.365 401.131 221.664 395.415 220.789 389.727V376.602C221.663 382.289 222.363 388.005 223.452 393.659C228.436 419.574 240.381 442.851 259.243 463.406C260.42 464.686 260.969 465.733 260.969 466.829Z" fill="#DFB95F"/>
<path d="M258.12 504.446V517.571C255.983 517.579 255.647 517.573 255.299 517.566C254.52 517.549 253.691 517.532 252.789 517.532V504.406C253.691 504.406 254.52 504.426 255.299 504.44C255.647 504.448 255.982 504.454 258.12 504.446Z" fill="#DFB95F"/>
<path d="M258.12 504.446V517.571C255.983 517.579 255.647 517.573 255.299 517.566C254.52 517.549 253.691 517.532 252.789 517.532V504.406C253.691 504.406 254.52 504.426 255.299 504.44C255.647 504.448 255.982 504.454 258.12 504.446Z" fill="#DFB95F"/>
<path d="M576.484 341.075C577.615 346.817 578.317 352.635 579.213 358.412V376.601C579.009 377.48 578.748 378.359 578.599 379.246C577.378 386.53 576.687 393.91 574.898 401.084C557.864 469.326 487.864 520.073 407.468 522.588C405.098 522.663 402.734 522.701 400.384 522.701C372.085 522.701 345.109 517.305 319.638 506.085C318.155 505.43 316.881 505.092 315.647 505.092C314.207 505.092 312.82 505.546 311.205 506.48C293.195 516.88 273.745 522.295 252.797 522.295C248.305 522.295 243.747 522.047 239.116 521.545C231.619 520.734 225.837 516.368 224.32 510.373C222.666 503.852 225.509 497.694 232.517 494.441C244.708 488.78 253.15 480.213 259.78 469.949C261.441 467.373 261.433 465.789 259.236 463.404C240.374 442.847 228.429 419.572 223.445 393.655C222.358 388.002 221.657 382.287 220.781 376.598V358.409C220.995 357.433 221.263 356.459 221.412 355.469C222.209 350.067 222.634 344.605 223.815 339.266C231.169 305.922 248.934 277.428 277.585 254.198C303.526 233.173 334.026 219.873 369.109 214.678C375.866 213.675 382.702 213.083 389.498 212.297H410.502C415.108 212.775 419.73 213.177 424.321 213.745C463.672 218.58 497.621 233.024 525.844 257.229C552.96 280.479 570.041 308.408 576.484 341.075ZM507.176 468.499C541.403 440.052 558.834 407.12 558.852 370.52C558.859 356.748 556.399 342.455 551.44 327.687C531.552 268.444 469.275 230.241 400.413 230.096C390.184 230.099 380.301 230.867 370.386 232.445C306.913 242.566 256.192 286.302 244.205 341.257C242.269 350.133 241.292 358.917 241.271 367.606C241.224 386.724 245.805 405.384 254.971 423.59C261.169 435.891 269.469 447.063 279.602 457.208C282.101 459.707 283.678 462.395 283.71 465.312C283.727 466.738 283.373 468.219 282.579 469.756C276.932 480.722 269.805 490.852 259.592 499.151C257.513 500.835 255.34 502.438 252.788 504.402C253.69 504.402 254.52 504.42 255.298 504.435C255.644 504.444 255.982 504.449 256.311 504.452C258.476 504.43 258.826 504.408 259.175 504.382C274.704 503.115 288.863 498.559 301.621 490.795C302.435 490.301 303.245 489.803 304.054 489.301C308.545 486.522 310.928 485.038 313.803 484.987C314.555 484.984 315.17 485.045 315.83 485.166C318.129 485.588 320.973 486.748 325.299 488.698C325.749 488.903 326.064 489.042 326.384 489.19C328.864 490.327 331.369 491.408 333.897 492.434C354.503 500.775 376.035 504.947 398.327 505.02C406.188 505.013 413.398 504.588 420.686 503.747C453.711 499.932 483.07 488.535 507.176 468.499Z" fill="#F7D469"/>
<path d="M335.052 356.625H335.192C342.02 356.702 347.524 361.543 347.541 367.483C347.549 373.318 342.285 378.081 335.701 378.374C335.435 378.386 335.169 378.39 334.903 378.388C328.115 378.313 322.484 373.396 322.461 367.531C322.445 361.789 327.855 356.937 334.416 356.641C334.625 356.629 334.838 356.625 335.052 356.625Z" fill="#F7D469"/>
<path d="M223.859 519.928V518.616V517.959V516.646V515.334V514.677V513.364V512.052V511.394V510.081V508.769V508.112V506.798C223.859 507.964 224.011 509.159 224.317 510.365C225.838 516.36 231.616 520.727 239.114 521.537C243.745 522.04 248.302 522.288 252.795 522.288C273.743 522.288 293.195 516.872 311.203 506.474C312.817 505.54 314.203 505.086 315.645 505.086C316.88 505.086 318.153 505.424 319.637 506.078C345.107 517.298 372.084 522.693 400.382 522.693C402.734 522.693 405.097 522.656 407.467 522.581C487.862 520.064 557.863 469.316 574.898 401.077C576.685 393.902 577.379 386.523 578.598 379.24C578.748 378.352 579.007 377.473 579.212 376.594V389.719C579.007 390.598 578.748 391.477 578.598 392.364C577.377 399.648 576.685 407.027 574.898 414.202C557.863 482.444 487.863 533.191 407.467 535.705C405.097 535.78 402.733 535.817 400.382 535.817C372.084 535.817 345.106 530.423 319.637 519.202C318.153 518.548 316.88 518.21 315.645 518.21C314.205 518.21 312.818 518.664 311.203 519.598C293.194 529.998 273.743 535.412 252.795 535.412C248.303 535.412 243.745 535.164 239.114 534.662C231.616 533.851 225.836 529.486 224.317 523.49C224.017 522.326 223.863 521.13 223.859 519.928Z" fill="#DFB95F"/>
<path d="M579.213 376.602V389.727C579.009 390.606 578.749 391.484 578.599 392.373C577.379 399.656 576.688 407.037 574.898 414.21C569.577 435.54 559.078 455.158 544.706 472.131V459.006C559.078 442.031 569.577 422.413 574.898 401.085C576.688 393.911 577.38 386.531 578.599 379.248C578.749 378.361 579.009 377.481 579.213 376.602ZM544.705 459.005V472.13C533.863 484.932 520.819 496.229 506.126 505.615V492.49C520.817 483.103 533.863 471.807 544.705 459.005ZM506.124 492.491V505.616C494.816 512.84 482.532 518.937 469.528 523.715V510.59C482.532 505.811 494.816 499.716 506.124 492.491ZM469.528 510.59V523.715C456.153 528.624 442.286 532.067 428.168 533.985V520.86C442.285 518.941 456.153 515.497 469.528 510.59ZM428.168 520.86V533.985C421.303 534.921 414.394 535.498 407.47 535.715C405.099 535.788 402.735 535.827 400.384 535.827C372.086 535.827 345.109 530.432 319.639 519.211C318.155 518.556 316.882 518.22 315.648 518.22C315.338 518.22 315.034 518.241 314.727 518.284V505.158C315.032 505.115 315.34 505.094 315.648 505.094C316.883 505.094 318.155 505.432 319.639 506.086C345.11 517.306 372.087 522.702 400.384 522.702C402.735 522.702 405.099 522.665 407.47 522.59C414.394 522.373 421.303 521.796 428.168 520.86ZM314.727 505.158V518.284C314.173 518.362 313.63 518.499 313.107 518.695V505.57C313.63 505.374 314.173 505.236 314.727 505.158ZM313.105 505.57V518.695C312.497 518.919 311.87 519.221 311.204 519.606C305.114 523.124 298.859 526.068 292.438 528.429V515.304C298.859 512.944 305.114 509.998 311.204 506.481C311.87 506.097 312.498 505.794 313.105 505.57Z" fill="#DFB95F"/>
<path d="M292.445 515.303V528.428C284.76 531.256 276.791 533.242 268.678 534.351V521.226C276.791 520.117 284.76 518.131 292.445 515.303ZM268.678 521.226V534.351C263.417 535.067 258.113 535.424 252.803 535.42C248.311 535.42 243.753 535.171 239.122 534.669C231.624 533.858 225.844 529.493 224.325 523.497C224.025 522.331 223.871 521.133 223.867 519.93V506.805C223.867 507.97 224.019 509.165 224.325 510.372C225.845 516.366 231.624 520.733 239.122 521.544C243.752 522.046 248.309 522.295 252.803 522.295C258.113 522.298 263.417 521.941 268.678 521.226Z" fill="#DFB95F"/>
</svg>
