<svg width="800" height="800" viewBox="0 0 800 800" fill="none" xmlns="http://www.w3.org/2000/svg">
<path d="M776.374 385.578V412.922C776.374 423.337 771.655 433.753 762.206 441.935C652.715 536.796 543.183 631.619 433.698 726.481C424.47 734.479 413.532 738.591 400.531 738.591V711.248C413.534 711.248 424.47 707.135 433.698 699.138C543.184 604.275 652.711 509.448 762.206 414.593C771.655 406.409 776.374 395.997 776.374 385.578Z" fill="#5E95C8"/>
<path d="M23.625 412.789V410.055V408.688V405.953V403.219V401.852V399.117V396.383V395.016V392.281V389.547V388.18V385.445C23.625 396.935 28.8602 408.346 38.4977 416.71C146.661 510.51 254.942 604.207 363.155 697.976C373.313 706.773 385.609 710.84 400.541 711.252V738.596C385.612 738.184 373.313 734.116 363.155 725.32C254.942 631.551 146.661 537.854 38.4977 444.054C28.8594 435.691 23.625 424.279 23.625 412.789Z" fill="#5E95C8"/>
<path d="M399.053 59.8438C411.759 59.8438 424.48 64.0329 434.167 72.4196C543.502 167.098 652.839 261.776 762.15 356.471C781.088 372.873 781.131 398.2 762.212 414.593C652.72 509.453 543.189 604.279 433.706 699.138C424.476 707.137 413.539 711.249 400.541 711.249C385.612 710.837 373.312 706.77 363.155 697.973C254.942 604.204 146.661 510.507 38.4977 416.707C23.2001 403.436 18.9977 382.48 29.2047 365.73C32.2665 360.7 35.9774 356.488 40.5055 352.566C148.403 259.166 256.27 165.743 364.148 72.3172C373.754 64.0047 386.396 59.8438 399.053 59.8438Z" fill="#8FBFE7"/>
<path d="M364.277 241.742C350.425 255.286 338.605 269.935 328.794 286.658C317.628 282.055 306.649 277.527 294.891 272.684C315.681 257.08 338.384 246.824 364.277 241.742ZM435.484 241.784C461.321 246.802 484.025 257.087 504.805 272.651C493.231 277.452 482.26 281.993 470.959 286.679C461.124 270.073 449.429 255.355 435.484 241.784ZM389.524 245.835V297.087C376.129 296.584 363.152 294.748 349.914 291.829C360.284 274.71 373.231 259.651 389.524 245.835ZM459.187 309.594C467.11 327.04 471.771 345.57 473.126 365H410.259V315.834C426.482 313.762 442.555 311.715 459.187 309.594ZM473.063 383.066C472.013 400.729 467.865 417.738 461.209 433.745C444.043 431.487 427.277 429.285 410.213 427.041V383.066H473.063ZM556.994 383.059C554.341 411.354 542.891 436.391 523.384 458.257L481.944 439.945C484.561 430.852 487.764 421.484 489.867 411.929C491.963 402.456 492.945 392.8 494.45 383.059H556.994Z" fill="#CBE2F6"/>
<path d="M399.907 219.562C498.467 219.728 578.587 290.395 578.319 374.546C578.061 457.73 498.552 528.568 399.764 528.568C301.103 528.259 220.22 457.681 221.692 373.891C220.403 290.274 301.349 219.571 399.907 219.562ZM279.518 286.434C258.108 308.954 245.554 335.163 242.703 365.089H305.891C306.899 343.721 311.664 323.164 320.168 303.804C306.553 297.984 293.221 292.286 279.518 286.434ZM557.025 364.969C554.064 335.044 541.565 308.863 520.186 286.438C506.467 292.297 493.128 297.997 479.534 303.801C488.064 323.184 492.804 343.753 493.814 364.969C514.987 364.971 535.866 364.969 557.025 364.969ZM242.688 383.051C245.468 411.518 256.862 436.569 276.362 458.257C290.678 451.928 304.413 445.848 318.312 439.697C310.902 421.605 306.86 402.637 305.877 383.051H242.688ZM523.383 458.262C542.892 436.396 554.342 411.36 556.994 383.063H494.449C492.945 392.802 491.96 402.46 489.867 411.934C487.764 421.489 484.558 430.862 481.944 439.951C495.522 445.953 509.264 452.021 523.383 458.262ZM435.372 506.409C463.085 500.932 487.08 489.604 508.822 472.33C496.522 467.032 485.024 462.072 473.283 457.012C463.132 475.548 450.5 491.664 435.372 506.409ZM290.874 472.352C312.726 489.605 336.627 500.96 364.267 506.354C349.109 491.595 336.549 475.449 326.397 457.007C314.578 462.118 303.073 467.081 290.874 472.352ZM389.462 365.059V315.856C373.129 313.764 357.064 311.707 340.55 309.594C332.618 327.046 327.856 345.666 326.634 365.063L389.462 365.059ZM410.26 315.84V365.007H473.128C471.774 345.576 467.112 327.046 459.187 309.602C442.555 311.722 426.481 313.767 410.26 315.84ZM410.212 383.072V427.05C427.278 429.293 444.043 431.49 461.209 433.749C467.864 417.744 472.014 400.734 473.061 383.072H410.212ZM326.564 383.072C327.855 400.852 331.785 417.915 338.527 433.731C355.876 431.461 372.625 429.277 389.391 427.08V383.072H326.564ZM364.276 241.747C338.383 246.828 315.68 257.087 294.891 272.692C306.649 277.534 317.628 282.06 328.794 286.663C338.604 269.94 350.424 255.291 364.276 241.747ZM504.806 272.658C484.023 257.095 461.321 246.809 435.482 241.79C449.431 255.361 461.124 270.077 470.96 286.684C482.26 281.999 493.23 277.458 504.806 272.658ZM410.204 445.848V502.297C427.882 487.13 441.877 470.652 452.421 451.645C438.192 448.456 424.442 446.285 410.204 445.848ZM389.406 502.193V445.805C375.065 446.411 361.283 448.412 347.273 451.718C357.971 470.7 371.823 487.217 389.406 502.193ZM410.26 245.911V297.74C423.599 295.947 436.593 294.194 450.146 292.365C439.365 274.682 426.467 259.638 410.26 245.911ZM389.524 297.09V245.84C373.232 259.658 360.286 274.715 349.914 291.835C363.15 294.753 376.128 296.588 389.524 297.09Z" fill="#74ADDE"/>
<path d="M410.267 245.906C426.473 259.634 439.372 274.68 450.155 292.363C436.6 294.191 423.609 295.943 410.267 297.738V245.906ZM520.194 286.437C541.573 308.862 554.073 335.042 557.034 364.969H493.821C492.812 343.753 488.072 323.182 479.543 303.8C493.135 297.997 506.475 292.295 520.194 286.437ZM340.557 309.591C357.07 311.705 373.134 313.758 389.467 315.852V365.056H326.641C327.863 345.662 332.627 327.042 340.557 309.591ZM279.525 286.431C293.228 292.282 306.559 297.984 320.177 303.8C311.673 323.163 306.908 343.717 305.899 365.084H242.71C245.56 335.158 258.112 308.95 279.525 286.431ZM389.398 383.07V427.08C372.631 429.277 355.882 431.458 338.534 433.729C331.793 417.912 327.864 400.85 326.571 383.07H389.398ZM305.884 383.048C306.867 402.635 310.909 421.602 318.319 439.695C304.42 445.846 290.684 451.923 276.369 458.252C256.87 436.564 245.475 411.516 242.695 383.048H305.884ZM389.414 445.805V502.195C371.829 487.217 357.977 470.7 347.281 451.72C361.292 448.411 375.073 446.41 389.414 445.805ZM410.211 445.847C424.449 446.284 438.198 448.452 452.427 451.644C441.884 470.651 427.891 487.13 410.211 502.298V445.847ZM326.405 457.004C336.555 475.445 349.116 491.594 364.277 506.353C336.636 500.957 312.735 489.604 290.881 472.349C303.08 467.077 314.586 462.113 326.405 457.004ZM473.291 457.012C485.031 462.073 496.529 467.03 508.829 472.328C487.087 489.602 463.092 500.931 435.38 506.408C450.508 491.663 463.139 475.546 473.291 457.012Z" fill="#CBE2F6"/>
<path d="M578.319 374.547V387.672C578.061 470.856 498.552 541.693 399.764 541.693C301.103 541.384 220.22 470.806 221.692 387.016V373.891C220.22 457.68 301.103 528.259 399.764 528.567C498.552 528.569 578.061 457.731 578.319 374.547Z" fill="#3269A3"/>
<path d="M578.322 374.547V387.672C578.314 390.268 578.228 392.864 578.066 395.455V382.33C578.228 379.75 578.313 377.154 578.322 374.547ZM578.066 382.33V395.456C576.156 425.91 563.662 454.424 543.624 478.043V464.918C563.662 441.299 576.155 412.784 578.066 382.33ZM543.623 464.918V478.043C532.782 490.821 519.73 502.166 504.953 511.608V498.483C519.732 489.041 532.782 477.695 543.623 464.918ZM504.953 498.483V511.608C493.758 518.759 481.57 524.821 468.599 529.588V516.463C481.57 511.696 493.758 505.634 504.953 498.483ZM468.599 516.463V529.588C455.552 534.384 441.709 537.867 427.289 539.833V526.707C441.709 524.742 455.551 521.259 468.599 516.463Z" fill="#3269A3"/>
<path d="M427.286 526.707V539.833C418.165 541.073 408.969 541.695 399.764 541.692C301.103 541.384 220.219 470.805 221.692 387.016V373.891C220.219 457.68 301.102 528.261 399.764 528.567C408.969 528.569 418.165 527.948 427.286 526.707Z" fill="#3269A3"/>
</svg>
