<svg width="800" height="800" viewBox="0 0 800 800" fill="none" xmlns="http://www.w3.org/2000/svg">
<path d="M776.38 385.578V412.922C776.38 423.337 771.662 433.753 762.213 441.935C652.721 536.796 543.189 631.619 433.707 726.481C424.476 734.479 413.54 738.591 400.539 738.591V711.248C413.54 711.248 424.476 707.135 433.707 699.138C543.189 604.275 652.717 509.448 762.213 414.593C771.662 406.409 776.38 395.997 776.38 385.578Z" fill="#67C0DC"/>
<path d="M23.625 412.789V410.055V408.688V405.953V403.219V401.852V399.117V396.383V395.016V392.281V389.547V388.18V385.445C23.625 396.935 28.8602 408.346 38.4984 416.71C146.662 510.51 254.943 604.207 363.156 697.976C373.314 706.773 385.609 710.84 400.541 711.252V738.596C385.612 738.184 373.314 734.116 363.156 725.32C254.942 631.551 146.661 537.854 38.4977 444.054C28.8594 435.691 23.625 424.279 23.625 412.789Z" fill="#67C0DC"/>
<path d="M399.055 59.8438C411.76 59.8438 424.481 64.0329 434.169 72.4196C543.504 167.098 652.84 261.776 762.152 356.471C781.09 372.873 781.133 398.2 762.213 414.594C652.721 509.453 543.19 604.278 433.707 699.138C424.476 707.137 413.54 711.249 400.54 711.249C385.611 710.837 373.312 706.77 363.155 697.973C254.943 604.204 146.662 510.507 38.4975 416.707C23.2006 403.435 18.9975 382.48 29.2045 365.73C32.2663 360.7 35.9772 356.488 40.5053 352.566C148.403 259.167 256.271 165.744 364.148 72.318C373.755 64.0048 386.398 59.8438 399.055 59.8438Z" fill="#BAE2F1"/>
<path d="M352.139 276.628C332.975 284.102 317.319 294.056 305.266 306.489C305.38 301.359 305.427 297.633 305.431 293.195C317.461 280.84 333.063 270.942 352.139 263.502C367.27 257.594 383.399 255.091 400.085 255.031H400.127C445.269 255.031 485.882 276.192 507.641 309.895V323.02C485.881 289.318 445.271 268.157 400.127 268.157C383.427 268.21 367.282 270.713 352.139 276.628Z" fill="#529FBD"/>
<path d="M523.341 361.538V374.663C523.341 362.634 521.073 350.805 516.184 339.194C498.095 296.225 452.116 268.156 400.121 268.156C393.309 268.179 386.595 268.608 380 269.509V256.384C386.595 255.483 393.311 255.054 400.121 255.031C452.116 255.031 498.095 283.1 516.184 326.068C521.073 337.679 523.341 349.51 523.341 361.538Z" fill="#529FBD"/>
<path d="M380.001 256.383V269.508C371.176 270.714 362.568 272.767 354.25 275.823V262.698C362.566 259.642 371.173 257.589 380.001 256.383Z" fill="#529FBD"/>
<path d="M354.252 262.695V275.82C353.546 276.08 352.84 276.348 352.137 276.622C342.487 280.385 333.728 284.778 325.867 289.798V276.673C333.727 271.653 342.485 267.261 352.137 263.497C352.84 263.223 353.545 262.955 354.252 262.695Z" fill="#529FBD"/>
<path d="M325.87 276.68V289.805C316.052 296.077 307.643 303.328 300.664 311.562V298.437C307.644 290.205 316.052 282.952 325.87 276.68Z" fill="#529FBD"/>
<path d="M282.523 343.25V330.125C287.527 316.03 295.182 303.72 305.43 293.195C305.43 294.134 305.427 296.992 305.376 300.634C305.356 301.747 305.34 302.861 305.316 303.973C305.312 304.224 305.305 304.56 305.299 304.811C305.288 305.37 305.262 305.93 305.262 306.489C295.099 316.977 287.5 329.23 282.523 343.25Z" fill="#529FBD"/>
<path d="M325.87 276.68V289.805C316.052 296.077 307.643 303.328 300.664 311.562V298.437C307.644 290.205 316.052 282.952 325.87 276.68Z" fill="#529FBD"/>
<path d="M300.663 298.438V311.562C289.886 324.284 282.52 339.343 278.663 356.749C277.654 361.279 277.007 365.882 276.727 370.514V357.389C277.009 352.757 277.656 348.154 278.663 343.624C282.52 326.219 289.884 311.156 300.663 298.438Z" fill="#529FBD"/>
<path d="M400.145 297.359H400.103C400.103 292.484 400.1 288.13 400.062 284.234H400.145C443.388 284.306 479.792 310.733 488.983 345.827V358.952C479.792 323.857 443.387 297.431 400.145 297.359Z" fill="#529FBD"/>
<path d="M491.216 363.313V376.438C491.293 333.014 450.319 297.442 400.139 297.36C395.323 297.36 390.595 297.688 385.977 298.318V285.193C390.67 284.553 395.402 284.233 400.139 284.234C450.32 284.317 491.295 319.89 491.216 363.313Z" fill="#529FBD"/>
<path d="M277.422 363.585V363.536V363.484V363.431V363.373V363.318V363.265V363.214V363.166V361.681V360.109V358.476V356.812V355.148V353.516V351.943V350.459C277.743 348.183 278.155 345.902 278.664 343.623C279.67 339.049 280.958 334.541 282.521 330.125V343.25C280.958 347.666 279.67 352.174 278.664 356.749C278.16 359.011 277.745 361.291 277.422 363.585Z" fill="#529FBD"/>
<path d="M300.663 298.438V311.562C289.886 324.284 282.52 339.343 278.663 356.749C277.654 361.279 277.007 365.882 276.727 370.514V357.389C277.009 352.757 277.656 348.154 278.663 343.624C282.52 326.219 289.884 311.156 300.663 298.438Z" fill="#529FBD"/>
<path d="M507.639 323.022C507.625 322.973 507.639 322.903 507.639 322.853V322.673V322.487V322.298V322.111V321.926V321.748V321.579V320.215V318.769V317.268V315.738V314.212V312.708V311.262V309.898C510.956 315.029 513.816 320.441 516.187 326.073C519.401 333.702 521.481 341.429 522.531 349.243C523.077 353.323 523.349 357.435 523.344 361.551V374.676C523.346 362.645 521.077 350.812 516.187 339.198C513.816 333.566 510.956 328.153 507.639 323.022Z" fill="#529FBD"/>
<path d="M523.341 361.538V374.663C523.341 362.634 521.073 350.805 516.184 339.194C498.095 296.225 452.116 268.156 400.121 268.156C393.309 268.179 386.595 268.608 380 269.509V256.384C386.595 255.483 393.311 255.054 400.121 255.031C452.116 255.031 498.095 283.1 516.184 326.068C521.073 337.679 523.341 349.51 523.341 361.538Z" fill="#529FBD"/>
<path d="M277.427 363.578C276.863 367.569 276.579 371.595 276.578 375.626V362.501C276.579 358.5 276.861 354.48 277.427 350.453V363.159C277.427 363.298 277.436 363.439 277.427 363.578Z" fill="#529FBD"/>
<path d="M300.663 298.438V311.562C289.886 324.284 282.52 339.343 278.663 356.749C277.654 361.279 277.007 365.882 276.727 370.514V357.389C277.009 352.757 277.656 348.154 278.663 343.624C282.52 326.219 289.884 311.156 300.663 298.438ZM276.724 357.391V370.516C276.622 372.223 276.571 373.932 276.57 375.643V362.518C276.57 360.809 276.622 359.102 276.724 357.391Z" fill="#529FBD"/>
<path d="M400.104 297.36C349.96 297.381 309.016 332.894 308.953 376.329V363.204C309.016 319.78 349.938 284.276 400.063 284.234C400.1 288.131 400.104 292.484 400.104 297.36Z" fill="#529FBD"/>
<path d="M491.216 363.313V376.438C491.293 333.014 450.319 297.442 400.139 297.36C395.323 297.36 390.595 297.688 385.977 298.318V285.193C390.67 284.553 395.402 284.233 400.139 284.234C450.32 284.317 491.295 319.89 491.216 363.313Z" fill="#529FBD"/>
<path d="M385.983 285.188V298.312C378.746 299.295 371.637 301.058 364.78 303.572V290.447C371.637 287.934 378.746 286.169 385.983 285.188ZM364.78 290.447V303.572C358.168 306.001 351.952 309.091 346.237 312.741V299.616C351.95 295.966 358.168 292.877 364.78 290.447ZM346.237 299.615V312.74C338.768 317.51 332.162 323.242 326.663 329.72V316.595C332.162 310.118 338.769 304.386 346.237 299.615ZM326.663 316.596V329.721C316.459 341.744 310.074 356.335 309.086 372.121V358.996C310.075 343.209 316.46 328.619 326.663 316.596Z" fill="#529FBD"/>
<path d="M309.087 359V372.125C309 373.525 308.955 374.928 308.953 376.33V363.205C308.955 361.793 309 360.391 309.087 359Z" fill="#529FBD"/>
<path d="M491.22 376.432C491.231 370.531 490.48 364.654 488.984 358.946V357.304V355.663V354.023V352.382V350.741V349.101V347.46V345.82C490.48 351.528 491.232 357.406 491.22 363.306V376.432Z" fill="#529FBD"/>
<path d="M491.216 363.313V376.438C491.293 333.014 450.319 297.442 400.139 297.36C395.323 297.36 390.595 297.688 385.977 298.318V285.193C390.67 284.553 395.402 284.233 400.139 284.234C450.32 284.317 491.295 319.89 491.216 363.313Z" fill="#529FBD"/>
<path d="M329.217 375.891C329.209 376.284 329.203 376.673 329.203 377.061V363.936C329.203 363.547 329.209 363.158 329.217 362.766C329.459 352.056 332.78 342.013 338.409 333.285C350.543 314.481 373.405 301.798 399.305 301.797C399.782 301.797 400.259 301.802 400.738 301.81C439.873 302.518 470.942 329.729 470.927 362.976V376.101C470.943 342.853 439.873 315.642 400.738 314.935C400.26 314.925 399.783 314.92 399.305 314.92C361.389 314.924 329.98 342.102 329.217 375.891Z" fill="#7AC0D6"/>
<path d="M470.927 362.948V376.073C470.927 342.836 439.866 315.635 400.738 314.93C400.26 314.919 399.783 314.914 399.305 314.914C395.706 314.914 392.166 315.161 388.707 315.632V302.507C392.693 301.963 396.716 301.728 400.738 301.802C439.864 302.51 470.927 329.711 470.927 362.948ZM388.707 302.507V315.632C383.24 316.375 377.87 317.707 372.691 319.606V306.481C377.87 304.582 383.24 303.25 388.707 302.507ZM372.691 306.481V319.606C367.724 321.426 362.968 323.779 358.508 326.624V313.499C362.969 310.656 367.724 308.303 372.691 306.481Z" fill="#7AC0D6"/>
<path d="M358.515 313.508V326.633C352.72 330.333 347.58 334.798 343.281 339.859V326.734C347.579 321.673 352.722 317.208 358.515 313.508Z" fill="#7AC0D6"/>
<path d="M343.277 326.727V339.852C335.192 349.378 330.104 361.021 329.311 373.668V360.543C330.104 347.894 335.192 336.252 343.277 326.727ZM329.311 360.543V373.668C329.241 374.796 329.205 375.927 329.203 377.057V363.932C329.206 362.802 329.242 361.671 329.311 360.543Z" fill="#7AC0D6"/>
<path d="M470.933 362.953V376.078C470.933 376.497 470.928 376.918 470.918 377.338C470.138 410.78 438.62 437.845 400.78 437.845C400.384 437.845 399.994 437.841 399.595 437.834C360.634 437.256 329.211 409.989 329.211 377.062V363.937C329.211 396.865 360.633 424.131 399.595 424.709C399.994 424.717 400.384 424.72 400.78 424.72C438.62 424.72 470.138 397.655 470.918 364.213C470.928 363.791 470.933 363.371 470.933 362.953Z" fill="#529FBD"/>
<path d="M470.93 362.953V376.078C470.931 377.206 470.896 378.333 470.824 379.458V366.333C470.87 365.629 470.9 364.92 470.916 364.213C470.926 363.791 470.93 363.371 470.93 362.953ZM470.824 366.334V379.459C470.047 391.899 465.016 403.38 457.021 412.809V399.684C465.016 390.255 470.047 378.773 470.824 366.334ZM457.021 399.684V412.809C452.72 417.883 447.565 422.361 441.749 426.075V412.95C447.564 409.235 452.72 404.758 457.021 399.684ZM441.749 412.95V426.075C437.263 428.935 432.48 431.301 427.484 433.132V420.007C432.48 418.177 437.263 415.811 441.749 412.95Z" fill="#529FBD"/>
<path d="M427.488 420.008V433.133C422.285 435.041 416.891 436.379 411.4 437.126V424.001C416.891 423.255 422.285 421.916 427.488 420.008ZM411.4 424.001V437.126C407.488 437.658 403.542 437.896 399.595 437.835C360.634 437.257 329.211 409.989 329.211 377.062V363.938C329.211 396.866 360.633 424.132 399.595 424.71C403.542 424.771 407.488 424.532 411.4 424.001Z" fill="#529FBD"/>
<path d="M491.22 363.311V376.436C491.149 419.859 450.18 455.406 400.27 455.406C349.798 455.29 308.883 419.757 308.953 376.328V363.203C308.885 406.631 349.8 442.162 400.27 442.28C450.18 442.279 491.149 406.732 491.22 363.311Z" fill="#529FBD"/>
<path d="M491.221 363.312V376.438C491.218 377.835 491.173 379.231 491.087 380.626V367.501C491.172 366.114 491.219 364.717 491.221 363.312ZM491.087 367.501V380.626C490.098 396.425 483.698 411.033 473.484 423.068V409.943C483.699 397.909 490.098 383.3 491.087 367.501Z" fill="#529FBD"/>
<path d="M473.485 409.942V423.067C467.977 429.561 461.359 435.304 453.881 440.077V426.952C461.358 422.177 467.975 416.433 473.485 409.942ZM453.881 426.952V440.077C448.177 443.72 441.972 446.802 435.377 449.225V436.1C441.972 433.68 448.177 430.598 453.881 426.952ZM435.377 436.102V449.227C428.561 451.727 421.494 453.481 414.299 454.456V441.331C421.494 440.356 428.561 438.603 435.377 436.102ZM414.297 441.331V454.456C409.72 455.081 405.035 455.406 400.27 455.406C349.798 455.29 308.882 419.757 308.953 376.328V363.203C308.885 406.631 349.8 442.162 400.27 442.28C405.038 442.28 409.721 441.956 414.297 441.331Z" fill="#529FBD"/>
<path d="M523.341 361.539V374.664C523.341 380.681 522.771 386.747 521.68 392.861C519.089 407.332 512.348 420.456 504.772 433.282C483.148 469.92 452.641 500.468 417.531 527.794C412.421 531.779 407.12 535.589 401.988 539.552C401.28 540.095 400.696 540.377 400.095 540.377C399.523 540.377 398.934 540.123 398.205 539.592C365.627 515.916 336.199 489.732 312.589 458.927C300.785 443.513 290.657 427.295 283.505 409.857C278.918 398.673 276.562 387.22 276.562 375.645V362.52C276.562 374.096 278.916 385.549 283.505 396.732C290.656 414.17 300.785 430.388 312.589 445.801C336.199 476.607 365.627 502.79 398.205 526.467C398.932 526.996 399.52 527.252 400.095 527.252C400.696 527.252 401.28 526.971 401.988 526.427C407.12 522.464 412.421 518.654 417.531 514.669C452.639 487.343 483.145 456.795 504.772 420.157C512.348 407.329 519.089 394.208 521.68 379.735C522.773 373.621 523.341 367.556 523.341 361.539Z" fill="#529FBD"/>
<path d="M523.346 361.539V374.664C523.346 376.617 523.286 378.576 523.169 380.539V367.414C523.288 365.45 523.346 363.491 523.346 361.539ZM523.169 367.414V380.539C522.913 384.672 522.419 388.786 521.688 392.861C519.097 407.332 512.357 420.456 504.781 433.282C496.788 446.824 487.581 459.533 477.379 471.555V458.43C487.582 446.407 496.788 433.698 504.781 420.157C512.356 407.329 519.096 394.208 521.688 379.735C522.421 375.661 522.916 371.547 523.169 367.414ZM477.379 458.43V471.555C459.977 492.059 439.669 510.566 417.54 527.793C412.43 531.778 407.128 535.588 401.996 539.551C401.841 539.673 401.68 539.787 401.513 539.894V526.768C401.671 526.669 401.829 526.555 401.996 526.426C407.128 522.463 412.43 518.653 417.54 514.668C439.671 497.441 459.977 478.934 477.379 458.43ZM401.513 526.768V539.894C401.278 540.043 401.052 540.16 400.834 540.239V527.114C401.072 527.024 401.3 526.907 401.513 526.768ZM400.833 527.116V540.241C400.683 540.299 400.527 540.339 400.367 540.359V527.234C400.526 527.211 400.682 527.171 400.833 527.116Z" fill="#529FBD"/>
<path d="M400.363 527.232V540.357C400.277 540.368 400.189 540.374 400.102 540.373C399.529 540.373 398.94 540.12 398.211 539.588C365.632 515.912 336.204 489.728 312.595 458.923C300.79 443.509 290.663 427.291 283.512 409.853C278.924 398.669 276.57 387.216 276.57 375.641V362.516C276.57 374.092 278.923 385.545 283.512 396.728C290.663 414.166 300.79 430.384 312.595 445.797C336.204 476.603 365.633 502.786 398.211 526.463C398.938 526.992 399.527 527.248 400.102 527.248C400.189 527.249 400.275 527.244 400.363 527.232Z" fill="#529FBD"/>
<path d="M531.796 312.334C542.419 333.326 545.764 355.184 542.591 377.984C539.652 399.078 529.597 417.778 518.084 436.056C501.098 463.01 479.119 486.715 454.368 508.573C439.736 521.491 424.151 533.508 407.945 544.922C405.179 546.87 402.611 547.853 400.07 547.853C397.676 547.853 395.306 546.984 392.8 545.231C359.042 521.538 328.211 495.371 302.979 464.591C285.742 443.559 270.6 421.413 262.225 396.481C252.264 366.793 254.722 337.599 269.983 309.493C285.552 280.823 310.414 260.281 343.779 247.507C356.939 242.467 370.8 239.425 385.139 238.109C386.2 238.111 386.664 238.057 386.848 237.469H411.355C416.893 238.273 422.458 238.934 427.967 239.897C452.652 244.206 474.568 253.509 493.673 267.716C510.289 280.077 523.015 294.971 531.796 312.334ZM521.684 379.736C524.96 361.406 523.519 343.489 516.19 326.072C498.1 283.103 452.12 255.034 400.125 255.034C383.424 255.088 367.281 257.591 352.139 263.506C311.818 279.231 287.02 305.932 278.665 343.626C274.677 361.609 276.445 379.491 283.515 396.733C290.666 414.17 300.793 430.389 312.598 445.802C336.207 476.608 365.636 502.791 398.215 526.469C398.943 526.998 399.531 527.254 400.104 527.254C400.707 527.254 401.29 526.973 401.997 526.427C407.129 522.465 412.43 518.656 417.541 514.67C452.649 487.344 483.155 456.796 504.781 420.159C512.352 407.33 519.093 394.209 521.684 379.736Z" fill="#58AED0"/>
<path d="M399.97 284.234C450.324 284.316 491.296 319.889 491.22 363.312C491.149 406.734 450.18 442.281 400.27 442.281C349.799 442.166 308.883 406.632 308.953 363.204C309.014 319.756 349.981 284.235 399.97 284.234ZM400.777 424.72C438.617 424.72 470.135 397.655 470.915 364.213C471.713 330.406 440.36 302.527 400.741 301.81C400.263 301.802 399.785 301.797 399.308 301.797C361.392 301.798 329.983 328.977 329.22 362.766C328.465 396.218 360.169 424.127 399.592 424.711C399.99 424.72 400.381 424.72 400.777 424.72Z" fill="#90C7D7"/>
<path d="M516.189 326.062C523.521 343.481 524.963 361.396 521.686 379.726C519.095 394.198 512.355 407.321 504.778 420.148C483.154 456.785 452.646 487.333 417.538 514.659C412.428 518.644 407.126 522.455 401.994 526.417C401.287 526.961 400.703 527.243 400.103 527.243C399.53 527.243 398.94 526.989 398.212 526.458C365.633 502.781 336.204 476.598 312.595 445.792C300.79 430.379 290.663 414.161 283.512 396.723C276.441 379.481 274.676 361.601 278.66 343.616C287.017 305.922 311.815 279.221 352.135 263.494C367.279 257.581 383.42 255.078 400.047 255.023C452.12 255.026 498.1 283.094 516.189 326.062ZM400.01 442.274C450.178 442.274 491.149 406.727 491.221 363.306C491.299 319.882 450.324 284.31 400.144 284.228C349.982 284.229 309.017 319.749 308.952 363.198C308.881 406.627 349.799 442.159 400.01 442.274Z" fill="#7AC0D6"/>
<path d="M543.74 361.724V374.849C543.74 380.214 543.354 385.633 542.591 391.106C539.652 412.199 529.598 430.9 518.084 449.177C501.098 476.131 479.12 499.836 454.368 521.694C439.736 534.613 424.152 546.629 407.945 558.044C405.179 559.991 402.612 560.974 400.07 560.974C397.677 560.974 395.306 560.105 392.801 558.352C359.042 534.659 328.211 508.492 302.979 477.712C285.742 456.68 270.6 434.534 262.226 409.602C258.255 397.769 256.258 386.014 256.258 374.375V361.25C256.258 372.889 258.255 384.645 262.226 396.477C270.598 421.412 285.741 443.555 302.979 464.587C328.211 495.366 359.042 521.532 392.801 545.227C395.305 546.981 397.677 547.849 400.07 547.849C402.612 547.849 405.179 546.867 407.945 544.918C424.152 533.502 439.735 521.485 454.368 508.569C479.12 486.713 501.098 463.006 518.084 436.052C529.598 417.774 539.655 399.074 542.591 377.98C543.354 372.509 543.74 367.09 543.74 361.724Z" fill="#529FBD"/>
<path d="M543.739 361.727V374.852C543.739 377.123 543.67 379.406 543.534 381.7V368.575C543.67 366.281 543.739 363.999 543.739 361.727ZM543.534 368.573V381.699C543.34 384.846 543.026 387.985 542.591 391.109C539.652 412.202 529.598 430.902 518.084 449.18C510.973 460.463 502.988 471.177 494.289 481.425V468.299C502.988 458.052 510.973 447.338 518.084 436.055C529.598 417.777 539.655 399.077 542.591 377.983C543.027 374.86 543.341 371.721 543.534 368.573ZM494.288 468.3V481.426C482.209 495.657 468.757 508.989 454.367 521.697C439.735 534.613 424.151 546.63 407.945 558.045C407.651 558.251 407.359 558.448 407.07 558.632V545.507C407.366 545.318 407.657 545.122 407.945 544.92C424.151 533.503 439.734 521.486 454.367 508.572C468.758 495.864 482.209 482.532 494.288 468.3Z" fill="#529FBD"/>
<path d="M407.071 545.505V558.631C405.969 559.334 404.898 559.882 403.841 560.27V547.145C404.898 546.757 405.969 546.209 407.071 545.505ZM403.841 547.145V560.27C403.062 560.561 402.252 560.766 401.427 560.881V547.756C402.226 547.647 403.03 547.444 403.841 547.145ZM401.427 547.756V560.881C400.973 560.945 400.52 560.974 400.07 560.974C397.677 560.974 395.306 560.105 392.801 558.352C359.042 534.659 328.211 508.492 302.979 477.712C285.742 456.68 270.6 434.534 262.226 409.602C258.255 397.769 256.258 386.014 256.258 374.375V361.25C256.258 372.889 258.255 384.645 262.226 396.477C270.598 421.412 285.741 443.555 302.979 464.587C328.211 495.366 359.042 521.532 392.801 545.227C395.305 546.981 397.677 547.849 400.07 547.849C400.52 547.849 400.973 547.818 401.427 547.756Z" fill="#529FBD"/>
</svg>
