<svg width="800" height="800" viewBox="0 0 800 800" fill="none" xmlns="http://www.w3.org/2000/svg">
<path d="M776.374 385.578V412.922C776.374 423.337 771.655 433.753 762.206 441.935C652.714 536.796 543.183 631.619 433.698 726.481C424.469 734.479 413.532 738.591 400.531 738.591V711.248C413.533 711.248 424.469 707.135 433.698 699.138C543.183 604.275 652.711 509.448 762.206 414.593C771.655 406.409 776.374 395.997 776.374 385.578Z" fill="#714D9C"/>
<path d="M23.625 412.789V410.055V408.688V405.953V403.219V401.852V399.117V396.383V395.016V392.281V389.547V388.18V385.445C23.625 396.935 28.8602 408.346 38.4977 416.71C146.661 510.51 254.942 604.207 363.155 697.976C373.313 706.773 385.609 710.84 400.54 711.252V738.596C385.612 738.184 373.313 734.116 363.155 725.32C254.942 631.551 146.661 537.854 38.4977 444.054C28.8594 435.691 23.625 424.279 23.625 412.789Z" fill="#714D9C"/>
<path d="M399.053 59.8438C411.759 59.8438 424.48 64.0329 434.167 72.4196C543.503 167.098 652.84 261.776 762.151 356.471C781.089 372.873 781.131 398.2 762.213 414.594C652.72 509.453 543.189 604.278 433.706 699.138C424.475 707.137 413.539 711.249 400.54 711.249C385.611 710.837 373.312 706.77 363.154 697.973C254.942 604.204 146.661 510.507 38.4977 416.707C23.2001 403.435 18.9977 382.48 29.2047 365.73C32.2665 360.7 35.9774 356.488 40.5055 352.566C148.403 259.166 256.27 165.743 364.148 72.3172C373.754 64.0047 386.396 59.8438 399.053 59.8438Z" fill="#917DB9"/>
<path d="M396.727 216.248V203.123C397.32 203.078 397.915 203.04 398.513 203.008H398.514V216.133H398.513C397.915 216.164 397.32 216.202 396.727 216.248Z" fill="#524599"/>
<path d="M456.955 252.982V266.107C456.955 263.099 456.563 260.065 456.034 257.083C455.909 256.371 455.764 255.662 455.599 254.958C450.518 233.235 426.791 216.192 401.72 216.055C400.648 216.051 399.577 216.076 398.507 216.129C396.436 216.239 394.368 216.433 392.312 216.712V203.587C394.368 203.308 396.436 203.114 398.507 203.004C399.577 202.951 400.648 202.926 401.72 202.93C426.791 203.067 450.518 220.11 455.599 241.833C455.765 242.537 455.91 243.246 456.034 243.958C456.563 246.939 456.955 249.974 456.955 252.982Z" fill="#524599"/>
<path d="M401.72 216.055C400.428 216.055 399.468 216.079 398.508 216.129V214.595V212.969V211.283V209.566V207.848V206.162V204.537V203.004C399.473 202.955 400.44 202.93 401.407 202.93H401.719C425.496 203.059 448.066 218.396 454.666 238.51V251.637C448.067 231.519 425.498 216.184 401.72 216.055Z" fill="#524599"/>
<path d="M456.955 252.982V266.107C456.955 263.099 456.563 260.065 456.034 257.083C455.909 256.371 455.764 255.662 455.599 254.958C450.518 233.235 426.791 216.192 401.72 216.055C400.648 216.051 399.577 216.076 398.507 216.129C396.436 216.239 394.368 216.433 392.312 216.712V203.587C394.368 203.308 396.436 203.114 398.507 203.004C399.577 202.951 400.648 202.926 401.72 202.93C426.791 203.067 450.518 220.11 455.599 241.833C455.765 242.537 455.91 243.246 456.034 243.958C456.563 246.939 456.955 249.974 456.955 252.982Z" fill="#524599"/>
<path d="M454.67 251.636C454.64 251.448 454.67 251.192 454.67 251.001V250.328V249.629V248.918V248.207V247.509V246.837V246.205V245.305V244.352V243.362V242.355V241.348V240.359V239.405V238.508C455.102 239.83 455.466 241.173 455.76 242.533C455.86 243.005 455.953 243.479 456.037 243.955C456.564 246.936 456.959 249.971 456.959 252.979V266.104C456.959 263.096 456.565 260.062 456.037 257.08C455.953 256.605 455.86 256.131 455.76 255.658C455.467 254.299 455.103 252.956 454.67 251.636Z" fill="#524599"/>
<path d="M456.955 252.982V266.107C456.955 263.099 456.563 260.065 456.034 257.083C455.909 256.371 455.764 255.662 455.599 254.958C450.518 233.235 426.791 216.192 401.72 216.055C400.648 216.051 399.577 216.076 398.507 216.129C396.436 216.239 394.368 216.433 392.312 216.712V203.587C394.368 203.308 396.436 203.114 398.507 203.004C399.577 202.951 400.648 202.926 401.72 202.93C426.791 203.067 450.518 220.11 455.599 241.833C455.765 242.537 455.91 243.246 456.034 243.958C456.563 246.939 456.955 249.974 456.955 252.982Z" fill="#524599"/>
<path d="M343.008 286.947V287.59V274.465V273.822C343.011 265.966 343.058 258.112 343.203 250.258C343.674 225.229 366.595 205.416 396.723 203.117V216.242C366.595 218.542 343.674 238.354 343.203 263.383C343.058 271.238 343.011 279.093 343.008 286.947Z" fill="#524599"/>
<path d="M456.955 252.982V266.107C456.955 263.099 456.563 260.065 456.034 257.083C455.909 256.371 455.764 255.662 455.599 254.958C450.518 233.235 426.791 216.192 401.72 216.055C400.648 216.051 399.577 216.076 398.507 216.129C396.436 216.239 394.368 216.433 392.312 216.712V203.587C394.368 203.308 396.436 203.114 398.507 203.004C399.577 202.951 400.648 202.926 401.72 202.93C426.791 203.067 450.518 220.11 455.599 241.833C455.765 242.537 455.91 243.246 456.034 243.958C456.563 246.939 456.955 249.974 456.955 252.982Z" fill="#524599"/>
<path d="M392.314 203.586V216.711C387.127 217.416 382.187 218.648 377.578 220.341V207.216C382.186 205.524 387.125 204.292 392.314 203.586Z" fill="#524599"/>
<path d="M377.577 207.219V220.344C373.242 221.937 369.201 223.936 365.524 226.286V213.161C369.201 210.811 373.242 208.812 377.577 207.219ZM365.524 213.161V226.286C360.924 229.225 356.894 232.712 353.57 236.637V223.512C356.894 219.587 360.923 216.098 365.524 213.161ZM353.57 223.512V236.637C347.561 243.732 343.859 252.26 343.273 261.564V248.439C343.859 239.134 347.561 230.606 353.57 223.512Z" fill="#524599"/>
<path d="M343.277 248.438V261.562C343.239 262.17 343.215 262.777 343.203 263.385C343.058 271.24 343.011 279.094 343.008 286.949V287.597V274.472V273.824C343.011 265.969 343.058 258.112 343.203 250.258C343.214 249.646 343.239 249.039 343.277 248.438Z" fill="#524599"/>
<path d="M456.977 291.42C456.965 282.981 456.955 274.542 456.953 266.102V252.977C456.956 261.417 456.967 269.856 456.977 278.295V291.42Z" fill="#524599"/>
<path d="M457.012 314.697V327.822C457.012 307.252 456.962 286.682 456.953 266.109V252.984C456.961 273.556 457.012 294.127 457.012 314.697Z" fill="#524599"/>
<path d="M343.052 298.423V311.548C343.052 303.581 343.008 295.613 343.008 287.648V274.523C343.008 282.488 343.052 290.456 343.052 298.423Z" fill="#524599"/>
<path d="M343.052 298.423V311.548C343.052 303.581 343.008 295.613 343.008 287.648V274.523C343.008 282.488 343.052 290.456 343.052 298.423Z" fill="#524599"/>
<path d="M483.58 281.547V294.672C483.58 305.299 483.555 315.926 483.555 326.55V313.425C483.554 302.801 483.58 292.173 483.58 281.547Z" fill="#524599"/>
<path d="M483.58 281.547V294.672C483.58 305.299 483.555 315.926 483.555 326.55V313.425C483.554 302.801 483.58 292.173 483.58 281.547Z" fill="#524599"/>
<path d="M457.01 327.824C457.01 315.694 456.994 303.561 456.977 291.429V289.896V288.27V286.583V284.865V283.148V281.461V279.837V278.305C456.994 290.437 457.01 302.57 457.01 314.699V327.824Z" fill="#524599"/>
<path d="M457.012 314.697V327.822C457.012 307.252 456.962 286.682 456.953 266.109V252.984C456.961 273.556 457.012 294.127 457.012 314.697Z" fill="#524599"/>
<path d="M483.438 346.96V333.835C483.438 327.034 483.457 320.232 483.552 313.43V326.555C483.457 333.357 483.438 340.159 483.438 346.96Z" fill="#524599"/>
<path d="M483.552 313.43V326.555C483.456 333.357 483.438 340.159 483.438 346.96V333.835C483.437 327.034 483.456 320.231 483.552 313.43Z" fill="#524599"/>
<path d="M343.125 326.234C342.983 335.888 342.971 345.541 342.969 355.195V342.07V341.997C342.971 332.369 342.983 322.739 343.125 313.109V326.234Z" fill="#524599"/>
<path d="M343.125 313.109V326.234C342.983 335.888 342.971 345.541 342.969 355.195V342.07C342.971 332.417 342.984 322.762 343.125 313.109Z" fill="#524599"/>
<path d="M342.969 356.305V343.18C342.969 352.463 342.98 361.747 343.022 371.027C343.045 374.792 343.298 378.598 343.944 382.322V395.447C343.298 391.723 343.045 387.918 343.022 384.152C342.98 374.871 342.969 365.588 342.969 356.305Z" fill="#524599"/>
<path d="M343.943 382.323V395.448C343.297 391.724 343.045 387.919 343.021 384.153C342.983 374.87 342.966 365.588 342.969 356.305V343.18C342.969 352.463 342.98 361.747 343.021 371.027C343.045 374.793 343.297 378.598 343.943 382.323Z" fill="#524599"/>
<path d="M457.01 314.695V327.82C457.01 348.39 456.958 368.959 456.762 389.527C456.533 413.698 432.665 434.77 404.749 436.401C403.39 436.48 402.029 436.52 400.669 436.521C373.246 436.393 350.042 420.605 344.551 398.381C344.312 397.41 344.108 396.431 343.938 395.445V382.32C344.103 383.306 344.311 384.285 344.551 385.256C350.042 407.48 373.246 423.268 400.669 423.396C402.029 423.394 403.39 423.354 404.749 423.276C432.664 421.645 456.533 400.571 456.762 376.401C456.958 355.834 457.01 335.265 457.01 314.695Z" fill="#524599"/>
<path d="M457.014 314.695V327.82C457.014 348.39 456.962 368.959 456.766 389.527C456.759 390.19 456.735 390.854 456.694 391.516V378.391C456.735 377.73 456.761 377.068 456.766 376.402C456.962 355.834 457.014 335.265 457.014 314.695ZM456.694 378.391V391.516C456.124 400.536 452.287 409.057 446.225 416.205V403.079C452.288 395.932 456.124 387.412 456.694 378.391ZM446.225 403.079V416.205C442.75 420.304 438.541 423.952 433.798 426.986V413.861C438.54 410.827 442.75 407.179 446.225 403.079ZM433.797 413.862V426.988C430.121 429.333 426.203 431.275 422.109 432.777V419.652C426.203 418.15 430.122 416.208 433.797 413.862Z" fill="#524599"/>
<path d="M422.105 419.652V432.777C417.985 434.292 413.713 435.356 409.363 435.951V422.826C413.713 422.231 417.984 421.166 422.105 419.652ZM409.362 422.827V435.952C407.831 436.161 406.292 436.311 404.749 436.401C403.39 436.481 402.029 436.52 400.669 436.52C373.246 436.393 350.042 420.605 344.551 398.381C344.312 397.41 344.109 396.431 343.938 395.445V382.32C344.108 383.306 344.312 384.285 344.551 385.255C350.042 407.48 373.246 423.267 400.669 423.395C402.017 423.395 403.382 423.355 404.749 423.275C406.292 423.185 407.831 423.036 409.362 422.827Z" fill="#524599"/>
<path d="M401.387 202.93C426.794 203.067 450.522 220.11 455.601 241.834C455.655 242.067 455.708 242.302 455.757 242.537C455.86 243.009 455.951 243.482 456.036 243.959C456.562 246.94 456.957 249.975 456.957 252.983C456.966 273.555 457.016 294.126 457.016 314.695C457.016 335.265 456.966 355.834 456.769 376.402C456.541 400.573 432.671 421.647 404.754 423.277C403.396 423.356 402.036 423.396 400.676 423.396C373.252 423.269 350.049 407.481 344.558 385.257C344.319 384.286 344.114 383.307 343.944 382.322C343.298 378.597 343.046 374.793 343.022 371.027C342.982 361.374 342.965 351.721 342.969 342.067C342.97 332.413 342.982 322.76 342.982 313.105C343.124 300.012 343.003 286.919 343.008 273.825C343.009 265.97 343.057 258.115 343.203 250.261C343.683 224.741 367.505 204.643 398.509 203.005C399.468 202.956 400.427 202.931 401.387 202.93Z" fill="#C5B2D6"/>
<path d="M483.445 348.369V361.494C483.445 371.311 483.405 381.124 483.157 390.934C482.244 426.848 445.933 458.086 404.343 459.305C403.285 459.337 402.23 459.352 401.182 459.352C358.113 459.352 323.317 433.412 317.182 396.195C316.614 392.708 316.473 389.15 316.465 385.624C316.436 362.022 316.406 338.421 316.406 314.82V301.695C316.406 325.296 316.436 348.898 316.465 372.499C316.473 376.024 316.614 379.584 317.182 383.07C323.316 420.288 358.113 446.227 401.182 446.227C402.23 446.227 403.285 446.212 404.343 446.18C445.93 444.961 482.244 413.724 483.157 377.811C483.405 367.999 483.445 358.184 483.445 348.369Z" fill="#524599"/>
<path d="M483.446 348.367V361.492C483.446 371.309 483.405 381.123 483.158 390.933C483.139 391.621 483.109 392.308 483.066 392.992V379.867C483.109 379.182 483.14 378.496 483.158 377.809C483.405 367.998 483.446 358.183 483.446 348.367ZM483.066 379.866V392.991C482.223 406.299 476.55 418.891 467.602 429.455V416.33C476.55 405.766 482.224 393.175 483.066 379.866Z" fill="#524599"/>
<path d="M467.6 416.326V429.451C462.448 435.533 456.215 440.943 449.191 445.43V432.305C456.214 427.818 462.449 422.408 467.6 416.326ZM449.191 432.306V445.431C443.808 448.868 438.069 451.71 432.074 453.911V440.786C438.069 438.585 443.808 435.742 449.191 432.306ZM432.073 440.788V453.913C426.063 456.125 419.831 457.677 413.487 458.543V445.418C419.831 444.551 426.063 442.999 432.073 440.788ZM413.487 445.418V458.543C410.476 458.952 407.423 459.206 404.342 459.297C403.284 459.329 402.23 459.344 401.182 459.344C358.112 459.344 323.316 433.402 317.182 396.188C316.614 392.701 316.473 389.142 316.465 385.616C316.436 362.014 316.406 338.413 316.406 314.812V301.688C316.406 325.288 316.436 348.89 316.465 372.492C316.473 376.017 316.614 379.576 317.182 383.062C323.316 420.279 358.112 446.219 401.182 446.219C402.23 446.219 403.284 446.204 404.342 446.172C407.423 446.081 410.475 445.827 413.487 445.418Z" fill="#524599"/>
<path d="M483.495 255.477C483.637 274.792 483.551 294.112 483.551 313.425C483.252 334.889 483.701 356.357 483.158 377.807C482.244 413.72 445.933 444.957 404.343 446.176C403.285 446.208 402.23 446.223 401.183 446.223C358.113 446.223 323.317 420.284 317.183 383.066C316.615 379.58 316.473 376.02 316.466 372.495C316.418 333.102 316.364 293.711 316.458 254.319C316.545 221.842 337.83 195.231 372.181 184.319C381.273 181.431 390.584 180.078 399.755 180.078C439.191 180.077 476.073 205.102 482.258 240.781C483.102 245.629 483.463 250.573 483.495 255.477ZM456.766 376.401C456.964 355.832 457.014 335.265 457.014 314.694C457.014 294.124 456.964 273.554 456.955 252.981C456.955 249.973 456.562 246.94 456.034 243.958C455.909 243.246 455.763 242.537 455.599 241.833C450.518 220.109 426.791 203.066 401.719 202.93C400.648 202.925 399.576 202.95 398.506 203.004C367.501 204.641 343.68 224.74 343.2 250.261C343.055 258.116 343.008 265.97 343.005 273.825C343.001 286.918 343.121 300.012 343.121 313.108C342.979 322.76 342.967 332.414 342.966 342.067C342.965 351.722 342.975 361.374 343.018 371.028C343.041 374.792 343.294 378.598 343.94 382.322C344.109 383.307 344.314 384.286 344.554 385.257C350.046 407.481 373.248 423.269 400.305 423.395C402.022 423.396 403.384 423.356 404.751 423.277C432.669 421.645 456.539 400.57 456.766 376.401Z" fill="#7A4B9B"/>
<path d="M553.781 374.68V387.805C553.781 387.907 553.781 388.01 553.777 388.116C552.84 423.259 539.004 453.818 510.585 479.243C484.668 502.431 453.205 515.845 416.333 519.93C415.484 520.026 414.658 520.266 413.562 520.49V507.364C414.658 507.14 415.484 506.901 416.333 506.805C453.205 502.72 484.668 489.306 510.585 466.118C539.004 440.692 552.84 410.132 553.777 374.99C553.781 374.886 553.781 374.784 553.781 374.68Z" fill="#524599"/>
<path d="M553.783 374.68V387.805C553.783 387.907 553.782 388.01 553.78 388.116C553.738 389.665 553.671 391.214 553.578 392.762V379.637C553.67 378.098 553.737 376.549 553.78 374.99C553.782 374.886 553.783 374.784 553.783 374.68Z" fill="#524599"/>
<path d="M553.58 379.641V392.766C551.97 419.604 542.613 443.693 524.735 464.774V451.649C542.613 430.567 551.97 406.479 553.58 379.641ZM524.735 451.649V464.774C520.5 469.768 515.788 474.595 510.587 479.246C504.098 485.049 497.265 490.24 490.088 494.826V481.702C497.329 477.069 504.184 471.858 510.587 466.12C515.788 461.469 520.5 456.643 524.735 451.649ZM490.088 481.702V494.826C480.468 500.971 470.23 506.03 459.375 510.019V496.893C470.23 492.906 480.467 487.845 490.088 481.702Z" fill="#524599"/>
<path d="M459.377 496.891V510.016C447.503 514.38 434.89 517.464 421.552 519.287V506.162C434.89 504.337 447.503 501.255 459.377 496.891ZM421.552 506.162V519.287C419.826 519.524 418.09 519.737 416.338 519.931L416.148 519.955V506.829C417.952 506.63 419.754 506.408 421.552 506.162Z" fill="#524599"/>
<path d="M416.142 506.828V519.953C415.358 520.061 414.574 520.281 413.562 520.487V507.362C414.574 507.156 415.358 506.935 416.142 506.828Z" fill="#524599"/>
<path d="M386.78 508.957V522.082C386.78 520.022 385.838 519.27 383.357 519.054C356.519 516.714 332.012 508.782 310.53 494.721C276.784 472.631 254.405 444.185 248.042 407.335C246.97 401.115 246.513 394.793 246.231 388.505C246.222 388.324 246.218 388.142 246.219 387.961V374.836C246.219 375.016 246.222 375.198 246.231 375.38C246.513 381.667 246.97 387.99 248.042 394.209C254.404 431.059 276.784 459.505 310.53 481.595C332.013 495.656 356.52 503.588 383.357 505.928C385.839 506.145 386.78 506.896 386.78 508.957Z" fill="#524599"/>
<path d="M386.78 508.957V522.082C386.78 520.022 385.838 519.27 383.357 519.054C356.519 516.714 332.012 508.782 310.53 494.721C276.784 472.631 254.405 444.185 248.042 407.335C246.97 401.115 246.513 394.793 246.231 388.505C246.222 388.324 246.218 388.142 246.219 387.961V374.836C246.219 375.016 246.222 375.198 246.231 375.38C246.513 381.667 246.97 387.99 248.042 394.209C254.404 431.059 276.784 459.505 310.53 481.595C332.013 495.656 356.52 503.588 383.357 505.928C385.839 506.145 386.78 506.896 386.78 508.957Z" fill="#524599"/>
<path d="M386.688 528.102V514.977C386.688 517.726 386.728 520.476 386.728 523.227V536.352C386.728 533.601 386.688 530.85 386.688 528.102Z" fill="#524599"/>
<path d="M386.728 523.227V536.352C386.728 533.601 386.688 530.851 386.688 528.102V514.977C386.688 517.726 386.728 520.476 386.728 523.227Z" fill="#524599"/>
<path d="M258.762 362.707C266.817 362.694 272.447 367.373 272.629 374.491C273.196 396.07 279.424 416.209 293.419 434.126C317.792 465.327 351.756 482.294 395.415 484.041C397.317 484.117 399.222 484.155 401.112 484.155C461.517 484.155 515.884 445.676 525.778 390.702C526.762 385.24 526.808 379.648 527.305 374.123C527.925 367.309 533.334 362.695 540.56 362.695C548.292 362.973 553.962 368.272 553.782 374.989C552.844 410.131 539.008 440.692 510.587 466.117C484.671 489.305 453.21 502.72 416.338 506.805C415.489 506.9 414.663 507.14 413.567 507.364V545.181C417.032 545.181 420.434 545.178 423.812 545.178C425.849 545.178 427.887 545.18 429.924 545.184C431.417 545.184 432.913 545.173 434.405 545.166C436.146 545.158 437.889 545.149 439.63 545.149C442.165 545.149 444.703 545.17 447.231 545.243C454.382 545.454 459.942 550.494 459.973 556.482C460.004 562.483 454.524 567.523 447.445 567.999C446.87 568.032 446.288 568.032 445.697 568.032C428.774 568.032 411.849 568.045 394.922 568.045C381.381 568.045 367.84 568.037 354.298 568.015C344.556 567.999 338.043 561.044 340.524 553.515C342.154 548.55 347.171 545.255 353.605 545.208C357.933 545.177 362.262 545.163 366.59 545.166C373.132 545.166 379.785 545.187 386.728 545.187V523.22C386.728 518.548 386.61 513.877 386.775 509.212C386.853 506.953 385.94 506.148 383.357 505.923C356.518 503.584 332.012 495.652 310.53 481.591C276.784 459.501 254.405 431.055 248.041 394.205C246.971 387.985 246.514 381.663 246.231 375.375C245.925 368.414 251.54 362.992 258.762 362.707Z" fill="#72529F"/>
<path d="M339.992 569.855V556.73C339.992 562.914 345.962 568.007 354.295 568.017C367.837 568.039 381.377 568.048 394.92 568.048C411.846 568.048 428.771 568.035 445.694 568.035C446.285 568.035 446.866 568.035 447.443 568.002C454.523 567.525 460.002 562.484 459.97 556.484V569.609C460.002 575.609 454.522 580.651 447.443 581.127C446.867 581.16 446.285 581.16 445.694 581.16C428.771 581.16 411.846 581.174 394.92 581.174C381.378 581.174 367.837 581.165 354.295 581.142C345.962 581.131 339.992 576.038 339.992 569.855Z" fill="#524599"/>
<path d="M459.974 556.484V569.609C459.977 569.83 459.969 570.047 459.956 570.266V557.141C459.969 556.922 459.977 556.705 459.974 556.484ZM459.956 557.141V570.266C459.816 572.512 458.906 574.599 457.438 576.335V563.21C458.906 561.474 459.817 559.387 459.956 557.141Z" fill="#524599"/>
<path d="M457.436 563.206V576.331C456.605 577.306 455.633 578.15 454.552 578.837V565.712C455.633 565.025 456.604 564.18 457.436 563.206ZM454.552 565.712V578.837C453.676 579.394 452.742 579.856 451.767 580.214V567.089C452.742 566.731 453.676 566.269 454.552 565.712ZM451.767 567.089V580.214C450.722 580.596 449.639 580.862 448.536 581.011V567.886C449.639 567.738 450.722 567.471 451.767 567.089ZM448.536 567.888V581.011C448.175 581.061 447.81 581.099 447.442 581.125C446.867 581.158 446.285 581.157 445.694 581.157C428.771 581.157 411.845 581.17 394.92 581.17C381.378 581.17 367.837 581.163 354.295 581.141C345.962 581.128 339.992 576.036 339.992 569.852V556.727C339.992 562.912 345.962 568.005 354.295 568.015C367.837 568.038 381.377 568.045 394.92 568.045C411.845 568.045 428.771 568.032 445.694 568.032C446.285 568.032 446.866 568.033 447.442 568C447.81 567.974 448.175 567.938 448.536 567.888Z" fill="#524599"/>
</svg>
