<svg width="800" height="800" viewBox="0 0 800 800" fill="none" xmlns="http://www.w3.org/2000/svg">
<path d="M776.374 385.578V412.922C776.374 423.337 771.655 433.753 762.206 441.935C652.715 536.796 543.183 631.619 433.698 726.481C424.469 734.479 413.532 738.591 400.531 738.591V711.248C413.534 711.248 424.469 707.135 433.698 699.138C543.184 604.275 652.711 509.448 762.206 414.593C771.655 406.409 776.374 395.997 776.374 385.578Z" fill="#E35B6D"/>
<path d="M23.625 412.789V410.055V408.688V405.953V403.219V401.852V399.117V396.383V395.016V392.281V389.547V388.18V385.445C23.625 396.935 28.8602 408.346 38.4977 416.71C146.661 510.51 254.942 604.207 363.155 697.976C373.313 706.773 385.609 710.84 400.541 711.252V738.596C385.612 738.184 373.313 734.116 363.155 725.32C254.942 631.551 146.661 537.854 38.4977 444.054C28.8594 435.691 23.625 424.279 23.625 412.789Z" fill="#E35B6D"/>
<path d="M399.053 59.8438C411.759 59.8438 424.48 64.0329 434.167 72.4196C543.502 167.098 652.839 261.776 762.15 356.471C781.088 372.873 781.131 398.2 762.212 414.593C652.72 509.453 543.189 604.279 433.706 699.138C424.476 707.137 413.539 711.249 400.541 711.249C385.612 710.837 373.312 706.77 363.155 697.973C254.942 604.204 146.661 510.507 38.4977 416.707C23.2001 403.436 18.9977 382.48 29.2047 365.73C32.2665 360.7 35.9774 356.488 40.5055 352.566C148.403 259.166 256.27 165.743 364.148 72.3172C373.754 64.0047 386.396 59.8438 399.053 59.8438Z" fill="#F6BCB1"/>
<path d="M519.481 278.273V291.398C519.48 293.223 518.891 294.026 516.844 294.59C456.999 310.998 397.191 327.476 337.372 343.933C336.616 344.144 335.822 344.267 334.859 344.47V331.345C335.819 331.14 336.614 331.019 337.372 330.808C397.191 314.351 457.001 297.874 516.844 281.465C518.891 280.901 519.48 280.099 519.481 278.273Z" fill="#DA4D5E"/>
<path d="M519.488 278.273V291.398C519.488 291.541 519.485 291.677 519.477 291.807V278.682C519.485 278.553 519.488 278.416 519.488 278.273Z" fill="#DA4D5E"/>
<path d="M519.469 278.688L519.471 291.812C519.426 292.537 519.261 293.082 518.901 293.507V280.382C519.261 279.955 519.426 279.41 519.469 278.688ZM518.901 280.382V293.507C518.742 293.693 518.555 293.853 518.348 293.983V280.858C518.569 280.715 518.752 280.559 518.901 280.382ZM518.348 280.858V293.983C518.08 294.147 517.797 294.282 517.502 294.388V281.262C517.797 281.157 518.08 281.022 518.348 280.858ZM517.502 281.26V294.385C517.301 294.458 517.082 294.529 516.844 294.594C456.999 311.002 397.191 327.48 337.372 343.937C336.616 344.148 335.822 344.271 334.859 344.474V331.349C335.819 331.144 336.614 331.023 337.372 330.812C397.191 314.355 457.001 297.878 516.844 281.469C517.082 281.405 517.301 281.333 517.502 281.26Z" fill="#DA4D5E"/>
<path d="M338.617 302.301V302.276V302.251V302.226V302.201V302.176V302.151V302.127V302.103V300.591V298.99V297.326V295.634V293.941V292.281V290.682V289.175C397.879 272.924 457.12 256.609 516.373 240.304L517.056 240.117C517.711 239.938 518.402 239.885 519.261 239.742V252.867C518.402 253.009 517.711 253.063 517.056 253.241C457.573 269.607 398.107 285.988 338.617 302.301Z" fill="#DA4D5E"/>
<path d="M519.256 239.742V252.867C518.398 253.009 517.707 253.063 517.051 253.242C457.113 269.733 397.194 286.237 337.249 302.673C337.023 302.735 336.816 302.801 336.625 302.871V289.746C336.83 289.672 337.039 289.606 337.249 289.548C397.194 273.112 457.115 256.608 517.051 240.118C517.707 239.938 518.399 239.885 519.256 239.742Z" fill="#DA4D5E"/>
<path d="M519.259 239.742C519.329 240.546 519.438 241.227 519.438 241.905C519.44 243.42 519.44 244.935 519.44 246.451C519.44 250.241 519.436 254.03 519.436 257.819C519.434 264.639 519.441 271.458 519.485 278.275C519.483 280.101 518.894 280.902 516.848 281.466C457.003 297.875 397.195 314.352 337.376 330.809C336.62 331.021 335.826 331.144 334.863 331.347C334.808 330.494 334.713 329.813 334.713 329.136C334.711 326.862 334.709 324.59 334.709 322.316V313.221C334.709 306.401 334.705 299.579 334.664 292.759C334.664 290.973 335.178 290.118 337.248 289.547C397.192 273.111 457.114 256.607 517.049 240.116C517.709 239.938 518.401 239.885 519.259 239.742Z" fill="#F08E91"/>
<path d="M519.255 299.266V312.391C517.854 312.745 516.563 313.052 515.286 313.407C456.247 329.666 397.208 345.945 338.137 362.127C335.388 362.879 334.641 363.895 334.641 366.322V353.197C334.641 350.77 335.388 349.753 338.137 349.002C397.208 332.82 456.247 316.539 515.286 300.281C516.561 299.927 517.854 299.621 519.255 299.266Z" fill="#DA4D5E"/>
<path d="M519.255 299.266V312.391C517.854 312.745 516.563 313.052 515.286 313.407C456.247 329.666 397.208 345.945 338.137 362.127C337.797 362.22 337.488 362.316 337.208 362.422V349.296C337.488 349.192 337.799 349.095 338.137 349.002C397.208 332.82 456.247 316.539 515.286 300.281C516.561 299.927 517.854 299.621 519.255 299.266ZM337.207 349.296V362.421C336.82 362.557 336.448 362.735 336.099 362.951V349.826C336.448 349.61 336.82 349.433 337.207 349.296ZM336.099 349.826V362.951C335.833 363.116 335.594 363.321 335.389 363.558V350.433C335.581 350.209 335.814 350.008 336.099 349.826ZM335.389 350.433V363.558C334.924 364.109 334.712 364.812 334.656 365.755V352.63C334.713 351.686 334.925 350.983 335.389 350.433ZM334.656 352.63V365.755C334.645 365.935 334.641 366.123 334.641 366.323V353.198C334.641 352.998 334.646 352.809 334.656 352.63Z" fill="#DA4D5E"/>
<path d="M480.354 421.814C478.875 421.819 477.413 421.868 475.964 421.964C475.764 417.604 475.487 413.249 475.258 408.889C476.953 408.761 478.652 408.694 480.352 408.688H480.629V421.814H480.354Z" fill="#DA4D5E"/>
<path d="M480.629 408.688V421.814H480.352C477.398 421.824 474.499 422.01 471.672 422.396V409.271C474.5 408.884 477.398 408.696 480.352 408.688H480.629Z" fill="#DA4D5E"/>
<path d="M475.959 421.966C467.773 422.507 460.105 424.553 453.291 428.682C453.183 424.147 453.135 420.25 453.133 415.656C459.789 411.579 467.269 409.509 475.252 408.891C475.482 413.25 475.761 417.606 475.959 421.966Z" fill="#DA4D5E"/>
<path d="M480.625 408.688V421.814H480.348C477.394 421.824 474.495 422.01 471.668 422.396V409.271C474.496 408.884 477.394 408.696 480.348 408.688H480.625ZM471.666 409.271V422.396C467.946 422.904 464.352 423.761 460.914 425.022V411.896C464.352 410.635 467.948 409.78 471.666 409.271Z" fill="#DA4D5E"/>
<path d="M460.915 411.898V425.023C457.946 426.109 455.102 427.514 452.438 429.213V416.088C455.102 414.389 457.946 412.984 460.915 411.898Z" fill="#DA4D5E"/>
<path d="M334.653 367.641V380.766C334.653 400.905 334.578 421.044 334.578 441.181V428.055C334.578 407.918 334.653 387.78 334.653 367.641Z" fill="#DA4D5E"/>
<path d="M334.653 367.641V380.766C334.653 400.905 334.578 421.044 334.578 441.181V428.055C334.578 407.918 334.653 387.78 334.653 367.641Z" fill="#DA4D5E"/>
<path d="M481.756 421.823C481.382 421.816 481.007 421.813 480.633 421.814V408.688C481.007 408.688 481.383 408.691 481.756 408.697C491.938 408.853 501.545 411.124 509.743 416.752C516.345 421.285 519.466 426.497 519.506 431.63V444.755C519.466 439.624 516.345 434.41 509.743 429.878C501.545 424.249 491.938 421.978 481.756 421.823Z" fill="#DA4D5E"/>
<path d="M519.506 431.628V444.753C519.466 439.622 516.345 434.408 509.743 429.876C501.545 424.247 491.938 421.978 481.756 421.822C481.382 421.815 481.007 421.811 480.633 421.812V408.688C481.007 408.688 481.383 408.689 481.756 408.695C491.938 408.851 501.545 411.122 509.743 416.75C516.345 421.283 519.466 426.496 519.506 431.628Z" fill="#DA4D5E"/>
<path d="M519.498 431.633V444.758C519.547 450.952 515.103 457.03 506.868 461.655C499.679 465.699 491.662 467.607 483.07 467.921V454.795C491.66 454.483 499.679 452.573 506.868 448.529C515.103 443.905 519.544 437.827 519.498 431.633Z" fill="#DA4D5E"/>
<path d="M519.495 431.633V444.758C519.497 445.049 519.491 445.34 519.474 445.63V432.505C519.491 432.214 519.497 431.924 519.495 431.633ZM519.474 432.505V445.63C519.281 448.815 517.904 451.954 515.438 454.86V441.735C517.905 438.829 519.282 435.691 519.474 432.505Z" fill="#DA4D5E"/>
<path d="M515.442 441.734V454.859C513.744 456.861 511.533 458.751 508.837 460.475V447.349C511.533 445.626 513.744 443.735 515.442 441.734ZM508.836 447.349V460.475C508.191 460.886 507.535 461.279 506.868 461.653C504.732 462.853 502.503 463.879 500.203 464.722V451.597C502.504 450.755 504.733 449.729 506.868 448.528C507.535 448.153 508.191 447.76 508.836 447.349Z" fill="#DA4D5E"/>
<path d="M500.203 451.594V464.719C496.723 465.998 493.089 466.872 489.319 467.386V454.261C493.087 453.747 496.723 452.873 500.203 451.594ZM489.319 454.261V467.386C487.246 467.667 485.161 467.844 483.07 467.917V454.791C485.161 454.719 487.246 454.542 489.319 454.261Z" fill="#DA4D5E"/>
<path d="M480.627 408.688C481.002 408.688 481.379 408.691 481.753 408.696C491.934 408.853 501.542 411.124 509.74 416.752C516.34 421.285 519.462 426.497 519.502 431.63C519.55 437.824 515.108 443.902 506.872 448.527C499.683 452.571 491.666 454.479 483.075 454.793H482.728C482.407 454.793 482.088 454.792 481.768 454.789C468.437 454.675 456.082 452.143 446.89 442.838C443.362 439.265 441.66 435.345 441.688 431.474C441.72 426.803 444.278 422.203 449.206 418.372C458.114 411.443 468.803 408.731 480.354 408.688H480.627Z" fill="#F09A9A"/>
<path d="M482.729 454.791V467.916C482.408 467.916 482.089 467.916 481.769 467.912C468.438 467.798 456.082 465.266 446.891 455.961V442.836C456.081 452.141 468.437 454.673 481.769 454.787C482.088 454.79 482.408 454.791 482.729 454.791Z" fill="#DA4D5E"/>
<path d="M482.729 454.791V467.916C482.408 467.916 482.089 467.916 481.769 467.912C468.438 467.798 456.082 465.266 446.891 455.961V442.836C456.081 452.141 468.437 454.673 481.769 454.787C482.088 454.79 482.408 454.791 482.729 454.791Z" fill="#DA4D5E"/>
<path d="M421.438 445.103V431.977C421.438 444.78 428.666 454.686 440.772 461.827C453.223 469.177 466.292 472.737 479.688 472.737C489.337 472.737 499.155 470.89 509.033 467.284C529.351 459.871 540.038 446.751 539.905 426.727V439.852C540.038 459.876 529.352 472.998 509.033 480.409C499.155 484.015 489.337 485.862 479.688 485.862C466.292 485.862 453.225 482.302 440.772 474.954C428.667 467.812 421.438 457.905 421.438 445.103Z" fill="#DA4D5E"/>
<path d="M539.908 426.727V439.852C539.916 441.051 539.884 442.226 539.815 443.377V430.252C539.884 429.101 539.916 427.926 539.908 426.727ZM539.815 430.252V443.377C539.27 452.424 536.337 459.955 531.143 466.093V452.968C536.337 446.828 539.27 439.298 539.815 430.252ZM531.143 452.968V466.093C528.513 469.203 525.3 471.955 521.523 474.369V461.243C525.302 458.83 528.513 456.077 531.143 452.968Z" fill="#DA4D5E"/>
<path d="M521.523 461.242V474.368C517.926 476.666 513.812 478.653 509.203 480.348V467.222C513.814 465.528 517.924 463.541 521.523 461.242Z" fill="#DA4D5E"/>
<path d="M509.201 467.221V480.347L509.033 480.409C502.754 482.703 496.499 484.284 490.296 485.13V472.005C496.499 471.159 502.754 469.577 509.033 467.284L509.201 467.221ZM490.296 472.005V485.13C486.742 485.616 483.201 485.863 479.688 485.863C466.292 485.863 453.224 482.302 440.772 474.954C428.667 467.811 421.438 457.906 421.438 445.103V431.977C421.438 444.781 428.666 454.686 440.772 461.827C453.223 469.177 466.292 472.738 479.688 472.738C483.201 472.736 486.742 472.491 490.296 472.005Z" fill="#DA4D5E"/>
<path d="M244.906 487.633C244.913 481.072 244.913 481.072 244.906 474.508C245.305 474.221 245.707 473.94 246.113 473.664C252.179 469.548 258.729 467.108 265.637 466.023C264.22 474.837 264.214 474.926 263.885 479.453C257.619 480.66 251.662 483.023 246.112 486.789C245.709 487.064 245.307 487.345 244.906 487.633Z" fill="#DA4D5E"/>
<path d="M266.697 465.859V478.986C263.133 479.472 259.66 480.312 256.297 481.549V468.424C259.66 467.187 263.134 466.347 266.697 465.859Z" fill="#DA4D5E"/>
<path d="M256.302 468.43V481.556C253.124 482.722 250.082 484.232 247.231 486.057V472.931C250.083 471.107 253.124 469.597 256.302 468.43ZM247.23 472.932V486.059C246.856 486.298 246.485 486.54 246.116 486.791C245.641 487.115 245.168 487.448 244.699 487.789C243.107 488.953 241.756 490.205 240.641 491.516V478.391C241.756 477.078 243.107 475.827 244.699 474.663C245.166 474.324 245.638 473.992 246.116 473.667C246.485 473.415 246.856 473.17 247.23 472.932Z" fill="#DA4D5E"/>
<path d="M244.695 487.786C239.377 491.677 236.733 496.539 236.703 501.414V488.288C236.731 483.413 239.377 478.552 244.695 474.659C244.765 474.61 244.834 474.558 244.905 474.508C244.913 481.07 244.913 481.07 244.905 487.633C244.834 487.684 244.765 487.736 244.695 487.786Z" fill="#DA4D5E"/>
<path d="M247.225 472.93V486.056C246.851 486.295 246.48 486.538 246.111 486.789C245.637 487.113 245.163 487.445 244.694 487.787C243.102 488.951 241.751 490.202 240.636 491.514V478.389C241.751 477.076 243.102 475.824 244.694 474.661C245.161 474.322 245.633 473.989 246.111 473.664C246.48 473.413 246.851 473.168 247.225 472.93ZM240.636 478.389V491.514C238.213 494.368 236.916 497.513 236.726 500.681V487.556C236.916 484.387 238.213 481.243 240.636 478.389ZM236.726 487.556V500.681C236.712 500.926 236.704 501.17 236.703 501.414V488.288C236.703 488.045 236.711 487.802 236.726 487.556Z" fill="#DA4D5E"/>
<path d="M286.407 479.471C285.289 479.29 284.167 479.131 283.043 478.995C283.043 474.619 283.051 470.243 283.031 465.867C284.151 466.003 285.276 466.163 286.406 466.346C295.179 467.771 303.069 470.942 308.976 476.973C312.633 480.71 314.419 484.759 314.4 488.732V501.857C314.417 497.885 312.633 493.837 308.976 490.098C303.071 484.066 295.18 480.896 286.407 479.471Z" fill="#DA4D5E"/>
<path d="M314.401 488.734V501.859C314.419 497.887 312.634 493.838 308.978 490.1C303.07 484.07 295.18 480.899 286.408 479.473C282.43 478.828 278.523 478.479 274.7 478.469C274.409 478.469 274.244 478.469 274.074 478.471C271.606 478.486 269.141 478.66 266.695 478.991V465.865C269.141 465.535 271.606 465.361 274.074 465.346C274.244 465.344 274.411 465.344 274.7 465.344C278.523 465.352 282.431 465.703 286.408 466.348C295.18 467.773 303.071 470.944 308.978 476.974C312.634 480.713 314.419 484.761 314.401 488.734Z" fill="#DA4D5E"/>
<path d="M275.556 511.57V524.696C264.288 524.368 253.798 522.014 244.9 515.503C239.425 511.491 236.672 506.445 236.703 501.415V488.289C236.672 493.32 239.425 498.366 244.9 502.377C253.798 508.889 264.287 511.242 275.556 511.57Z" fill="#DA4D5E"/>
<path d="M275.556 511.57V524.696C264.288 524.368 253.798 522.014 244.9 515.503C239.425 511.491 236.672 506.445 236.703 501.415V488.289C236.672 493.32 239.425 498.366 244.9 502.377C253.798 508.889 264.287 511.242 275.556 511.57Z" fill="#DA4D5E"/>
<path d="M314.409 488.727V501.852C314.387 506.648 311.738 511.334 306.583 515.238C297.699 521.962 287.09 524.342 275.562 524.691V511.566C287.09 511.22 297.699 508.839 306.583 502.113C311.738 498.208 314.387 493.523 314.409 488.727Z" fill="#DA4D5E"/>
<path d="M314.404 488.727V501.852C314.402 502.094 314.395 502.334 314.38 502.576V489.451C314.395 489.209 314.403 488.969 314.404 488.727ZM314.38 489.451V502.576C314.194 505.698 312.89 508.76 310.502 511.575V498.448C312.889 495.635 314.194 492.573 314.38 489.451ZM310.501 498.448V511.575C309.413 512.853 308.107 514.08 306.577 515.239C305.706 515.898 304.81 516.522 303.891 517.11V503.986C304.811 503.398 305.707 502.774 306.577 502.114C308.107 500.955 309.416 499.727 310.501 498.448Z" fill="#DA4D5E"/>
<path d="M303.897 503.984V517.11C301.244 518.805 298.453 520.159 295.547 521.228V508.103C298.454 507.034 301.244 505.679 303.897 503.984Z" fill="#DA4D5E"/>
<path d="M295.549 508.102V521.227C291.878 522.575 288.021 523.466 284.017 524.014V510.889C288.021 510.341 291.877 509.449 295.549 508.102ZM284.016 510.889V524.014C281.265 524.391 278.444 524.604 275.562 524.691V511.566C278.444 511.479 281.265 511.266 284.016 510.889Z" fill="#DA4D5E"/>
<path d="M274.581 465.344C278.524 465.352 282.434 465.702 286.41 466.348C295.182 467.773 303.073 470.944 308.98 476.974C312.637 480.712 314.423 484.76 314.403 488.733C314.382 493.529 311.732 498.214 306.577 502.12C297.693 508.844 287.085 511.223 275.557 511.573C264.288 511.245 253.798 508.892 244.9 502.38C239.425 498.369 236.672 493.322 236.703 488.291C236.733 483.415 239.379 478.554 244.696 474.663C245.163 474.323 245.635 473.991 246.113 473.666C254.599 467.908 264.037 465.43 274.075 465.349C274.244 465.344 274.412 465.344 274.581 465.344Z" fill="#F09A9A"/>
<path d="M539.824 230.294C539.698 295.773 539.462 361.251 539.91 426.73C540.044 446.754 529.358 459.875 509.039 467.288C499.16 470.894 489.341 472.741 479.694 472.741C466.298 472.741 453.23 469.18 440.777 461.83C427.98 454.281 420.634 443.643 421.516 429.756C422.295 417.565 429.398 408.137 440.841 401.659C453.73 394.362 466.857 390.813 480.129 390.813C492.287 390.813 504.566 393.789 516.912 399.591C517.519 399.886 518.126 400.185 518.739 400.463C519.252 366.802 519.252 333.213 519.252 299.262C517.851 299.617 516.559 299.924 515.284 300.279C456.244 316.537 397.205 332.816 338.135 349C335.385 349.751 334.638 350.767 334.638 353.195C334.734 396.645 334.316 440.095 334.883 483.537C335.142 503.344 324.494 516.295 304.549 523.762C294.548 527.502 284.609 529.403 274.834 529.403C261.48 529.403 248.434 525.857 235.934 518.612C218.728 508.634 212.105 491.53 219.081 476.266C224.634 464.125 235.463 456.495 249.18 452.047C258.269 449.099 267.263 447.6 276.131 447.6C288.49 447.6 300.604 450.516 312.393 456.497C312.794 456.702 313.204 456.884 313.63 457.057C314.425 455.877 314.425 454.724 314.425 453.572C314.425 397.994 314.416 342.42 314.425 286.843C314.425 279.219 316.409 276.899 324.836 274.581C391.765 256.173 458.695 237.766 525.616 219.345C526.151 219.195 526.647 218.93 527.16 218.719H532.059C537.958 220.916 539.83 224.852 539.824 230.294ZM516.851 281.47C518.897 280.906 519.488 280.104 519.49 278.363C519.45 271.517 519.434 264.67 519.44 257.823C519.44 254.034 519.444 250.245 519.444 246.456C519.444 244.939 519.444 243.424 519.443 241.909C519.443 241.234 519.332 240.55 519.262 239.746C518.404 239.888 517.713 239.943 517.057 240.121C457.119 256.612 397.2 273.116 337.255 289.552C335.186 290.123 334.671 290.978 334.671 292.684C334.711 299.585 334.716 306.405 334.716 313.227V322.321C334.716 324.595 334.716 326.868 334.719 329.141C334.719 329.816 334.814 330.499 334.869 331.352C335.829 331.146 336.624 331.026 337.381 330.814C397.201 314.356 457.009 297.88 516.851 281.47ZM306.581 502.116C311.735 498.212 314.385 493.526 314.408 488.73C314.425 484.758 312.641 480.709 308.984 476.971C303.077 470.941 295.187 467.771 286.414 466.345C282.437 465.7 278.529 465.35 274.706 465.341C274.416 465.341 274.251 465.341 274.08 465.343C264.04 465.424 254.605 467.902 246.118 473.66C245.64 473.985 245.168 474.316 244.701 474.655C239.383 478.548 236.739 483.409 236.709 488.284C236.677 493.316 239.431 498.362 244.906 502.373C253.804 508.885 264.293 511.238 275.562 511.565C287.091 511.22 297.698 508.841 306.581 502.116ZM506.874 448.526C515.109 443.899 519.551 437.823 519.504 431.629C519.463 426.498 516.342 421.284 509.741 416.751C501.543 411.123 491.936 408.852 481.754 408.696C481.379 408.69 481.005 408.687 480.63 408.688H480.354C468.801 408.73 458.114 411.441 449.206 418.372C444.278 422.202 441.721 426.802 441.687 431.473C441.66 435.345 443.363 439.265 446.891 442.837C456.08 452.144 468.437 454.676 481.768 454.788C482.089 454.791 482.408 454.794 482.729 454.794H483.076C491.668 454.478 499.685 452.57 506.874 448.526Z" fill="#E66676"/>
<path d="M334.888 484.242V497.367C334.888 516.776 324.259 529.508 304.549 536.887C294.547 540.628 284.609 542.53 274.834 542.53C261.481 542.53 248.434 538.984 235.934 531.738C223.275 524.398 216.344 513.198 216.344 501.712V488.587C216.344 500.072 223.274 511.271 235.934 518.613C248.434 525.857 261.481 529.405 274.834 529.405C284.609 529.405 294.549 527.503 304.549 523.763C324.259 516.383 334.888 503.651 334.888 484.242Z" fill="#DA4D5E"/>
<path d="M334.89 484.242V497.367C334.89 498.404 334.86 499.422 334.799 500.422V487.297C334.86 486.297 334.89 485.28 334.89 484.242ZM334.799 487.297V500.422C334.263 509.28 331.36 516.657 326.254 522.691V509.566C331.36 503.532 334.266 496.155 334.799 487.297ZM326.254 509.566V522.691C323.617 525.807 320.395 528.565 316.609 530.983V517.857C320.395 515.438 323.619 512.68 326.254 509.566ZM316.609 517.857V530.983C313.076 533.24 309.049 535.202 304.552 536.887L304.008 537.088V523.963L304.552 523.762C309.049 522.078 313.075 520.115 316.609 517.857Z" fill="#DA4D5E"/>
<path d="M304.008 523.969V537.094C297.763 539.389 291.543 540.966 285.374 541.81V528.685C291.543 527.841 297.762 526.263 304.008 523.969ZM285.372 528.685V541.81C281.841 542.291 278.327 542.536 274.834 542.536C261.481 542.536 248.434 538.99 235.934 531.745C223.275 524.404 216.344 513.206 216.344 501.719V488.594C216.344 500.078 223.274 511.277 235.934 518.62C248.434 525.863 261.481 529.411 274.834 529.411C278.359 529.407 281.88 529.165 285.372 528.685Z" fill="#DA4D5E"/>
</svg>
