<svg width="800" height="800" viewBox="0 0 800 800" fill="none" xmlns="http://www.w3.org/2000/svg">
<path d="M776.374 385.578V412.921C776.374 423.336 771.655 433.753 762.206 441.935C652.715 536.796 543.183 631.618 433.698 726.481C424.469 734.478 413.532 738.591 400.531 738.591V711.247C413.534 711.247 424.469 707.135 433.698 699.137C543.184 604.275 652.711 509.448 762.206 414.593C771.655 406.409 776.374 395.996 776.374 385.578Z" fill="#48BDC5"/>
<path d="M23.625 412.789V410.054V408.687V405.953V403.218V401.851V399.117V396.382V395.015V392.281V389.546V388.179V385.445C23.625 396.935 28.8602 408.346 38.4977 416.71C146.66 510.51 254.942 604.207 363.155 697.975C373.313 706.772 385.609 710.839 400.541 711.252V738.596C385.612 738.183 373.313 734.116 363.155 725.319C254.942 631.55 146.661 537.853 38.4977 444.053C28.8594 435.69 23.625 424.278 23.625 412.789Z" fill="#48BDC5"/>
<path d="M399.053 59.8438C411.759 59.8438 424.48 64.0329 434.167 72.4196C543.502 167.098 652.839 261.776 762.15 356.471C781.088 372.873 781.131 398.2 762.212 414.593C652.72 509.453 543.189 604.279 433.706 699.138C424.476 707.137 413.539 711.249 400.541 711.249C385.612 710.837 373.312 706.77 363.155 697.973C254.942 604.204 146.661 510.507 38.4977 416.707C23.2001 403.436 18.9977 382.48 29.2047 365.73C32.2665 360.7 35.9774 356.488 40.5055 352.566C148.403 259.166 256.27 165.743 364.148 72.3172C373.754 64.0054 386.396 59.8438 399.053 59.8438Z" fill="#84CEE2"/>
<path d="M491.219 361.165C494.748 363.254 497.274 365.658 497.24 369.851C497.118 374.299 494.211 376.429 490.826 378.44C466.665 392.748 442.473 407.008 418.295 421.29C401.048 431.473 383.811 441.661 366.566 451.83C364.055 453.232 361.815 453.861 359.67 453.901C356.539 453.869 353.945 452.844 351.934 450.793C350.265 448.957 349.628 446.607 349.618 444.634C349.54 428.979 349.526 413.322 349.526 397.666C349.526 388.274 349.533 378.88 349.533 369.485C349.533 357.111 349.553 344.737 349.553 332.365C349.553 319.99 349.533 307.619 349.445 295.244C349.466 291.142 350.877 288.058 354.784 286.487C356.379 285.866 357.867 285.56 359.363 285.523C362.083 285.558 364.288 286.179 366.393 287.423C407.988 312.019 449.616 336.579 491.219 361.165ZM369.81 428.001C402.948 408.434 435.638 389.134 468.553 369.69C435.645 350.26 402.955 330.953 369.809 311.387L369.81 428.001Z" fill="#76CADD"/>
<path d="M349.523 411.445V398.32C349.523 413.756 349.539 429.194 349.616 444.628C349.625 446.599 350.262 448.952 351.931 450.787V463.914C350.262 462.077 349.626 459.726 349.616 457.753C349.538 442.318 349.523 426.882 349.523 411.445Z" fill="#6199CF"/>
<path d="M351.931 450.787V463.912C350.262 462.076 349.626 459.725 349.616 457.753C349.538 442.317 349.523 426.88 349.523 411.444V398.32C349.523 413.756 349.539 429.194 349.616 444.629C349.625 446.598 350.262 448.951 351.931 450.787Z" fill="#6199CF"/>
<path d="M366.568 451.828V464.953C364.058 466.355 361.817 466.985 359.672 467.025V453.9C361.817 453.858 364.058 453.23 366.568 451.828Z" fill="#6199CF"/>
<path d="M366.565 451.828V464.953C365.71 465.437 364.819 465.853 363.898 466.196V453.071C364.758 452.753 365.641 452.343 366.565 451.828Z" fill="#6199CF"/>
<path d="M363.902 453.07V466.195C362.984 466.537 362.035 466.778 361.062 466.915V453.789C362.035 453.654 362.984 453.413 363.902 453.07Z" fill="#6199CF"/>
<path d="M361.064 453.789V466.915C360.593 466.98 360.13 467.016 359.672 467.025V453.9C360.13 453.889 360.594 453.853 361.064 453.789Z" fill="#6199CF"/>
<path d="M359.674 453.898V467.023C356.543 466.991 353.947 465.965 351.938 463.914V450.789C353.947 452.841 356.543 453.866 359.674 453.898Z" fill="#6199CF"/>
<path d="M359.674 453.898V467.023C356.543 466.991 353.947 465.965 351.938 463.914V450.789C353.947 452.841 356.543 453.866 359.674 453.898Z" fill="#6199CF"/>
<path d="M399.773 233.023C488.092 233.112 556.879 293.707 558.235 369.669C558.218 370.629 558.19 371.589 558.151 372.549C558.096 373.955 558.017 375.36 557.913 376.763C552.571 449.413 485.353 506.12 400.677 506.355C312.186 506.267 242.336 445.671 242.336 369.71C242.33 293.641 312.264 233.186 399.773 233.023ZM497.235 370.05C497.273 365.656 494.747 363.252 491.22 361.163C449.616 336.576 407.988 312.019 366.395 287.42C364.291 286.176 362.086 285.555 359.888 285.517C357.87 285.557 356.383 285.863 354.936 286.427C350.88 288.056 349.467 291.141 349.447 295.055C349.534 307.617 349.555 319.99 349.555 332.363C349.555 344.734 349.534 357.109 349.534 369.484C349.534 378.877 349.527 388.272 349.527 397.664C349.527 413.32 349.543 428.976 349.62 444.631C349.63 446.603 350.266 448.955 351.62 450.455C353.948 452.842 356.54 453.865 359.309 453.899C361.816 453.856 364.056 453.23 366.206 452.031C383.814 441.659 401.052 431.469 418.298 421.286C442.474 407.005 466.667 392.746 490.828 378.436C494.212 376.427 497.119 374.298 497.235 370.05Z" fill="#B8E0E8"/>
<path d="M558.235 369.664V382.789C558.219 383.75 558.191 384.71 558.152 385.67C558.097 387.08 558.016 388.483 557.913 389.883C552.571 462.534 485.354 519.241 400.677 519.473C312.187 519.387 242.336 458.791 242.336 382.83V369.704C242.336 445.665 312.187 506.26 400.677 506.348C485.354 506.112 552.571 449.406 557.913 376.756C558.087 374.396 558.194 372.031 558.235 369.664Z" fill="#6199CF"/>
<path d="M558.232 369.664V382.789C558.199 384.594 558.129 386.398 558.023 388.201V375.075C558.129 373.273 558.199 371.469 558.232 369.664ZM558.021 375.076V388.202C557.987 388.766 557.95 389.324 557.908 389.883C555.87 417.629 544.805 443.05 527.188 463.887V450.761C544.805 429.924 555.87 404.503 557.908 376.758C557.952 376.199 557.987 375.638 558.021 375.076Z" fill="#6199CF"/>
<path d="M527.193 450.766V463.892C517.777 475.032 506.489 484.861 493.706 493.036V479.911C506.489 471.733 517.777 461.904 527.193 450.766ZM493.705 479.907V493.032C483.967 499.261 473.362 504.529 462.055 508.683V495.557C473.362 491.403 483.967 486.136 493.705 479.907Z" fill="#6199CF"/>
<path d="M462.056 495.552V508.679C450.486 512.929 438.184 516.018 425.327 517.774V504.648C438.184 502.891 450.486 499.803 462.056 495.552ZM425.327 504.647V517.774C417.157 518.886 408.922 519.453 400.677 519.473C312.187 519.387 242.336 458.79 242.336 382.829V369.703C242.336 445.664 312.187 506.259 400.677 506.347C409.08 506.323 417.31 505.744 425.327 504.647Z" fill="#6199CF"/>
<path d="M400.203 215.141C497.888 215.407 579.662 285.209 578.301 369.77C579.582 454.182 497.791 524.234 400.111 524.234C302.464 524.12 221.466 454.132 221.68 369.299C221.9 285.191 302.401 215.141 400.203 215.141ZM558.15 372.548C558.189 371.588 558.219 370.63 558.234 369.666C556.88 293.705 488.09 233.11 400.292 233.021C312.254 233.178 242.328 293.636 242.337 369.707C242.337 445.668 312.185 506.263 399.987 506.352C485.361 506.123 552.57 449.416 557.911 376.76C558.015 375.362 558.094 373.959 558.15 372.548Z" fill="#65C4E2"/>
<path d="M369.813 311.383C402.959 330.949 435.648 350.257 468.556 369.686C435.643 389.126 402.729 408.563 369.812 427.998L369.813 311.383Z" fill="#C4E6EC"/>
<path d="M578.299 369.768V382.893C579.582 467.307 497.791 537.357 400.111 537.357C302.464 537.243 221.466 467.255 221.68 382.422V369.297C221.468 454.132 302.463 524.118 400.111 524.232C497.791 524.233 579.58 454.181 578.299 369.768Z" fill="#6199CF"/>
<path d="M578.296 369.773V382.898C578.348 386.223 578.27 389.526 578.066 392.805V379.68C578.268 376.401 578.346 373.099 578.296 369.773ZM578.066 379.68V392.805C576.209 422.757 563.926 450.564 544.357 473.626V460.5C563.926 437.437 576.208 409.631 578.066 379.68ZM544.355 460.5V473.626C533.557 486.349 520.54 497.629 505.828 507.028V493.903C520.54 484.503 533.557 473.223 544.355 460.5Z" fill="#6199CF"/>
<path d="M505.838 493.898V507.023C494.526 514.252 482.216 520.365 469.141 525.171V512.046C482.214 507.241 494.526 501.127 505.838 493.898ZM469.141 512.046V525.171C455.96 530.015 442.007 533.527 427.523 535.504V522.378C442.007 520.402 455.96 516.89 469.141 512.046Z" fill="#6199CF"/>
<path d="M427.518 522.378V535.504C418.434 536.74 409.278 537.36 400.111 537.357C302.464 537.243 221.466 467.255 221.68 382.422V369.297C221.468 454.132 302.463 524.118 400.111 524.232C409.407 524.233 418.564 523.599 427.518 522.378Z" fill="#6199CF"/>
</svg>
