<svg width="800" height="800" viewBox="0 0 800 800" fill="none" xmlns="http://www.w3.org/2000/svg">
<path d="M776.374 385.578V412.921C776.374 423.336 771.655 433.753 762.206 441.935C652.714 536.796 543.183 631.618 433.698 726.481C424.469 734.478 413.532 738.591 400.531 738.591V711.247C413.533 711.247 424.469 707.135 433.698 699.137C543.183 604.275 652.711 509.448 762.206 414.593C771.655 406.409 776.374 395.996 776.374 385.578Z" fill="#CFD690"/>
<path d="M23.625 412.789V410.054V408.687V405.953V403.218V401.851V399.117V396.382V395.015V392.281V389.546V388.179V385.445C23.625 396.935 28.8602 408.346 38.4977 416.71C146.661 510.51 254.942 604.207 363.155 697.975C373.313 706.772 385.609 710.839 400.54 711.252V738.596C385.612 738.183 373.313 734.116 363.155 725.319C254.942 631.55 146.661 537.853 38.4977 444.053C28.8594 435.69 23.625 424.278 23.625 412.789Z" fill="#CFD690"/>
<path d="M399.053 59.8438C411.759 59.8438 424.48 64.0329 434.167 72.4196C543.503 167.098 652.84 261.776 762.151 356.471C781.089 372.873 781.131 398.2 762.213 414.594C652.72 509.453 543.189 604.278 433.706 699.138C424.475 707.137 413.539 711.249 400.54 711.249C385.611 710.837 373.312 706.77 363.154 697.973C254.942 604.204 146.661 510.507 38.4977 416.707C23.2001 403.435 18.9977 382.48 29.2047 365.73C32.2665 360.7 35.9774 356.488 40.5055 352.566C148.403 259.166 256.27 165.743 364.148 72.3172C373.754 64.0047 386.396 59.8438 399.053 59.8438Z" fill="#F1F4C0"/>
<path d="M442.174 276.273C441.536 278.832 441.205 281.457 441.188 284.094V270.969C441.205 268.288 441.546 265.671 442.174 263.148V275.909C442.174 276.032 442.189 276.153 442.174 276.273Z" fill="#8DA947"/>
<path d="M449.686 248.703V261.828C444.781 267.609 441.72 274.631 441.242 282.243V269.117C441.719 261.507 444.78 254.484 449.686 248.703Z" fill="#8DA947"/>
<path d="M441.251 269.117V282.242C441.213 282.859 441.192 283.477 441.188 284.095V270.97C441.192 270.348 441.213 269.731 441.251 269.117Z" fill="#8DA947"/>
<path d="M441.189 284.094L441.188 284.301V271.176L441.189 270.969C441.189 274.906 441.21 280.156 441.189 284.094Z" fill="#8DA947"/>
<path d="M442.172 276.276V276.231V276.185V276.139V276.093V276.047V276.001V275.956V275.912V274.421V272.84V271.201V269.53V267.862V266.221V264.64V263.15C446.432 246.05 463.972 233.197 485.079 233.156L485.362 233.157C509.53 233.288 529.123 250.309 529.077 271.217V284.342C529.123 263.433 509.529 246.412 485.362 246.282L485.079 246.281C463.971 246.324 446.432 259.177 442.172 276.276Z" fill="#8DA947"/>
<path d="M529.071 271.217V284.342C529.117 263.434 509.523 246.412 485.356 246.282L485.073 246.281C482.75 246.285 480.471 246.445 478.248 246.75V233.625C480.51 233.317 482.79 233.16 485.073 233.156L485.356 233.157C509.523 233.287 529.116 250.308 529.071 271.217ZM478.247 233.623V246.748C474.738 247.223 471.292 248.076 467.967 249.295V236.17C471.292 234.951 474.738 234.098 478.247 233.623ZM467.967 236.17V249.295C464.845 250.437 461.857 251.915 459.053 253.702V240.577C461.856 238.79 464.845 237.312 467.967 236.17ZM459.051 240.577V253.702C455.475 255.986 452.317 258.728 449.686 261.827V248.702C452.317 245.604 455.476 242.86 459.051 240.577ZM449.686 248.702V261.827C444.781 267.608 441.72 274.63 441.242 282.241V269.116C441.719 261.505 444.78 254.483 449.686 248.702Z" fill="#8DA947"/>
<path d="M421.07 284.062V270.938C421.07 273.194 421.23 275.477 421.56 277.773C422.127 281.736 423.292 285.628 424.205 289.688V302.812C423.292 298.756 422.127 294.86 421.56 290.898C421.234 288.634 421.071 286.351 421.07 284.062Z" fill="#8DA947"/>
<path d="M424.205 289.688V302.812C423.292 298.756 422.127 294.86 421.56 290.898C421.234 288.634 421.071 286.351 421.07 284.062V270.938C421.07 273.194 421.23 275.477 421.56 277.773C422.127 281.736 423.293 285.628 424.205 289.688Z" fill="#8DA947"/>
<path d="M529.074 271.219V284.344C529.026 305.308 509.512 322.236 485.242 322.352V309.228C509.512 309.11 529.026 292.183 529.074 271.219Z" fill="#8DA947"/>
<path d="M529.078 271.219V284.344C529.077 285.019 529.055 285.694 529.013 286.368V273.243C529.055 272.572 529.076 271.897 529.078 271.219ZM529.013 273.241V286.366C528.536 293.995 525.478 301.018 520.576 306.797V293.672C525.477 287.893 528.536 280.87 529.013 273.241ZM520.576 293.672V306.797C517.949 309.892 514.792 312.629 511.219 314.912V301.787C514.792 299.506 517.949 296.767 520.576 293.672Z" fill="#8DA947"/>
<path d="M511.222 301.781V314.906C508.417 316.694 505.426 318.173 502.302 319.316V306.191C505.426 305.048 508.417 303.569 511.222 301.781ZM502.3 306.191V319.316C498.959 320.54 495.495 321.398 491.969 321.874V308.749C495.495 308.273 498.959 307.415 502.3 306.191Z" fill="#8DA947"/>
<path d="M491.964 308.758V321.883C489.736 322.185 487.491 322.342 485.242 322.353V309.229C487.53 309.215 489.773 309.056 491.964 308.758Z" fill="#8DA947"/>
<path d="M484.98 233.156L485.365 233.157C509.533 233.288 529.126 250.309 529.078 271.218C529.031 292.181 509.518 309.11 485.247 309.225C484.907 309.225 484.815 309.225 484.721 309.224C460.816 309.094 441.345 292.256 441.188 271.464V270.971C441.337 250.123 460.858 233.203 484.98 233.156Z" fill="#F5F7D2"/>
<path d="M485.247 309.222V322.347H484.721C460.816 322.216 441.345 305.379 441.188 284.586V271.461C441.345 292.254 460.814 309.092 484.721 309.222C484.815 309.222 484.908 309.224 485.247 309.222Z" fill="#8DA947"/>
<path d="M485.247 309.222V322.347H484.721C460.816 322.216 441.345 305.379 441.188 284.586V271.461C441.345 292.254 460.814 309.092 484.721 309.222C484.815 309.222 484.908 309.224 485.247 309.222Z" fill="#8DA947"/>
<path d="M549.231 270.68V283.805C549.231 285.741 549.106 287.687 548.847 289.634C545.383 315.769 523.12 335.853 493.353 339.119C490.227 339.463 487.17 339.634 484.181 339.634C465.614 339.634 449.769 333.035 436.676 320.433C435.905 319.689 435.115 318.952 434.227 318.1V304.975C435.115 305.827 435.904 306.564 436.676 307.308C449.769 319.909 465.614 326.509 484.181 326.509C487.169 326.509 490.226 326.338 493.353 325.994C523.121 322.728 545.384 302.643 548.847 276.509C549.106 274.562 549.231 272.617 549.231 270.68Z" fill="#8DA947"/>
<path d="M549.227 270.68V283.805C549.227 284.702 549.202 285.602 549.146 286.502V273.377C549.201 272.477 549.227 271.578 549.227 270.68ZM549.145 273.379V286.504C549.08 287.551 548.979 288.595 548.841 289.635C547.463 300.036 543.106 309.479 536.484 317.284V304.159C543.107 296.354 547.463 286.911 548.841 276.511C548.98 275.471 549.081 274.426 549.145 273.379Z" fill="#8DA947"/>
<path d="M536.49 304.156V317.281C532.735 321.707 528.253 325.606 523.17 328.856V315.731C528.253 312.481 532.736 308.582 536.49 304.156ZM523.17 315.731V328.856C519.265 331.353 515.005 333.467 510.454 335.141V322.016C515.006 320.342 519.265 318.228 523.17 315.731ZM510.454 322.016V335.141C505.703 336.885 500.635 338.152 495.312 338.876V325.751C500.637 325.027 505.704 323.76 510.454 322.016Z" fill="#8DA947"/>
<path d="M495.313 325.756V338.881C491.624 339.38 487.905 339.632 484.181 339.636C465.614 339.636 449.769 333.037 436.676 320.435C435.905 319.691 435.115 318.954 434.227 318.102V304.977C435.115 305.829 435.904 306.566 436.676 307.31C449.769 319.911 465.614 326.511 484.181 326.511C487.905 326.507 491.624 326.254 495.313 325.756Z" fill="#8DA947"/>
<path d="M336.422 366.732V353.607C336.422 352.386 337.214 351.655 338.909 350.84C369.875 335.953 400.784 320.976 431.716 306.02C432.504 305.645 433.337 305.344 434.22 304.977V318.102C433.337 318.469 432.504 318.771 431.716 319.146C400.783 334.101 369.875 349.079 338.909 363.966C337.214 364.781 336.422 365.512 336.422 366.732Z" fill="#8DA947"/>
<path d="M434.224 304.977V318.102C433.342 318.469 432.508 318.771 431.72 319.145C400.787 334.101 369.879 349.078 338.914 363.965C338.546 364.138 338.189 364.332 337.844 364.547V351.422C338.189 351.207 338.546 351.013 338.914 350.84C369.879 335.953 400.787 320.975 431.72 306.02C432.507 305.645 433.342 305.344 434.224 304.977Z" fill="#8DA947"/>
<path d="M337.841 351.422V364.547C337.463 364.788 337.163 365.034 336.938 365.3V352.175C337.162 351.909 337.463 351.662 337.841 351.422ZM336.938 352.175V365.3C336.63 365.653 336.45 366.1 336.427 366.568V353.443C336.45 352.975 336.63 352.528 336.938 352.175ZM336.426 353.442V366.567C336.423 366.621 336.422 366.675 336.422 366.73V353.605C336.422 353.55 336.424 353.496 336.426 353.442Z" fill="#8DA947"/>
<path d="M319.464 370.675V383.8C319.417 363.018 299.974 346.065 276.121 345.801C275.932 345.8 275.744 345.798 275.556 345.798L275.254 345.799C251.131 345.942 231.484 363.122 231.578 383.983V370.858C231.484 349.996 251.131 332.817 275.254 332.673L275.556 332.672C275.742 332.672 275.932 332.673 276.121 332.676C299.974 332.94 319.417 349.893 319.464 370.675Z" fill="#8DA947"/>
<path d="M319.461 370.674V383.799C319.414 363.017 299.971 346.064 276.117 345.801C275.929 345.799 275.741 345.798 275.552 345.797L275.251 345.798C273.071 345.81 270.894 345.963 268.734 346.258V333.133C270.894 332.839 273.071 332.685 275.251 332.673L275.552 332.672C275.739 332.672 275.929 332.673 276.117 332.676C299.97 332.939 319.414 349.892 319.461 370.674Z" fill="#8DA947"/>
<path d="M268.729 333.133V346.258C265.232 346.732 261.797 347.584 258.484 348.798V335.673C261.797 334.458 265.232 333.607 268.729 333.133Z" fill="#8DA947"/>
<path d="M258.484 335.672V348.797C255.348 349.945 252.345 351.43 249.528 353.225V340.1C252.345 338.305 255.348 336.82 258.484 335.672ZM249.526 340.101V353.226C245.917 355.532 242.725 358.303 240.07 361.432V348.307C242.725 345.178 245.918 342.407 249.526 340.101Z" fill="#8DA947"/>
<path d="M240.082 348.305V361.43C235.181 367.21 232.115 374.212 231.644 381.778V368.653C232.116 361.087 235.181 354.084 240.082 348.305ZM231.643 368.651V381.776C231.597 382.51 231.575 383.244 231.579 383.979V370.854C231.576 370.116 231.598 369.381 231.643 368.651Z" fill="#8DA947"/>
<path d="M339.474 370.719V383.844C339.474 389.15 338.537 394.455 336.706 399.734C336.514 400.29 336.414 400.757 336.414 401.159V388.034C336.414 387.631 336.513 387.165 336.706 386.609C338.537 381.331 339.474 376.025 339.474 370.719Z" fill="#8DA947"/>
<path d="M339.473 370.719V383.844C339.473 384.752 339.445 385.661 339.391 386.568V373.443C339.445 372.536 339.473 371.628 339.473 370.719Z" fill="#8DA947"/>
<path d="M339.392 373.445V386.57C339.127 390.968 338.223 395.36 336.706 399.737C336.538 400.221 336.441 400.636 336.42 401.001V387.876C336.441 387.512 336.538 387.096 336.706 386.613C338.223 382.235 339.127 377.843 339.392 373.445ZM336.42 387.875V401C336.416 401.054 336.414 401.107 336.414 401.16V388.035C336.414 387.982 336.416 387.929 336.42 387.875Z" fill="#8DA947"/>
<path d="M275.6 408.893V422.018C251.312 421.95 231.671 404.927 231.57 383.984V370.859C231.672 391.801 251.315 408.825 275.6 408.893Z" fill="#8DA947"/>
<path d="M275.6 408.893V422.018C251.312 421.95 231.671 404.927 231.57 383.984V370.859C231.672 391.801 251.315 408.825 275.6 408.893Z" fill="#8DA947"/>
<path d="M275.556 332.672C275.742 332.672 275.934 332.673 276.121 332.676C299.975 332.938 319.418 349.893 319.464 370.674C319.519 391.474 300.012 408.621 276.172 408.89C275.984 408.891 275.797 408.894 275.607 408.894C251.32 408.825 231.68 391.801 231.578 370.859C231.484 349.997 251.131 332.817 275.253 332.674L275.556 332.672Z" fill="#F5F7D2"/>
<path d="M319.459 370.672V383.798C319.513 404.596 300.006 421.744 276.166 422.014C275.978 422.014 275.791 422.017 275.602 422.017V408.892C275.79 408.892 275.978 408.889 276.166 408.889C300.005 408.62 319.513 391.472 319.459 370.672Z" fill="#8DA947"/>
<path d="M319.462 370.672V383.798C319.463 384.516 319.442 385.232 319.398 385.943V372.818C319.442 372.107 319.464 371.392 319.462 370.672Z" fill="#8DA947"/>
<path d="M319.393 372.82V385.945C318.919 393.544 315.837 400.582 310.917 406.384V393.259C315.836 387.458 318.919 380.419 319.393 372.82ZM310.917 393.259V406.384C308.254 409.527 305.052 412.308 301.434 414.621V401.495C305.052 399.183 308.254 396.403 310.917 393.259ZM301.434 401.495V414.621C298.622 416.414 295.624 417.897 292.492 419.044V405.919C295.624 404.771 298.622 403.288 301.434 401.495Z" fill="#8DA947"/>
<path d="M292.493 405.914V419.039C289.205 420.245 285.795 421.09 282.324 421.56V408.435C285.795 407.965 289.205 407.12 292.493 405.914ZM282.324 408.435V421.56C280.313 421.833 278.256 421.988 276.167 422.011C275.979 422.013 275.792 422.014 275.602 422.014V408.889C275.792 408.889 275.979 408.887 276.167 408.886C278.227 408.862 280.283 408.711 282.324 408.435Z" fill="#8DA947"/>
<path d="M424.21 453.097V466.223C424.21 465.282 423.773 464.614 422.327 463.918C391.178 448.912 360.06 433.837 328.977 418.693C328.177 418.308 327.533 418.124 326.964 418.124C326.022 418.124 325.285 418.626 324.387 419.526C310.981 432.933 293.053 439.345 275.356 439.345C251.669 439.345 228.394 427.867 216.9 406.308C213.082 399.151 211.312 391.643 211.312 384.233V382.92V382.265V380.952V379.64V378.984V377.671V376.358V375.703V374.39V373.078V372.422V371.109C211.312 378.518 213.083 386.026 216.9 393.185C228.394 414.742 251.669 426.221 275.356 426.221C293.052 426.221 310.981 419.809 324.387 406.403C325.285 405.502 326.024 405 326.964 405C327.535 405 328.177 405.183 328.977 405.57C360.06 420.714 391.178 435.788 422.327 450.794C423.77 451.489 424.21 452.156 424.21 453.097Z" fill="#8DA947"/>
<path d="M424.203 453.098V466.224C424.203 465.283 423.766 464.615 422.322 463.919C391.171 448.913 360.054 433.838 328.97 418.695C328.17 418.309 327.526 418.125 326.957 418.125C326.841 418.125 326.727 418.133 326.617 418.148V405.022C326.727 405.005 326.841 405 326.957 405C327.527 405 328.17 405.182 328.97 405.57C360.054 420.713 391.171 435.788 422.322 450.794C423.765 451.49 424.203 452.157 424.203 453.098Z" fill="#8DA947"/>
<path d="M326.613 405.023V418.148C326.437 418.172 326.263 418.215 326.095 418.277V405.151C326.263 405.089 326.435 405.046 326.613 405.023ZM326.095 405.151V418.277C325.888 418.356 325.689 418.456 325.502 418.577V405.452C325.689 405.33 325.887 405.229 326.095 405.151ZM325.502 405.452V418.577C325.138 418.809 324.772 419.13 324.377 419.527C320.996 422.908 317.257 425.911 313.227 428.484V415.359C317.257 412.786 320.995 409.783 324.377 406.402C324.774 406.005 325.138 405.684 325.502 405.452Z" fill="#8DA947"/>
<path d="M313.24 415.361V428.486C309.111 431.121 304.706 433.3 300.107 434.985V421.86C304.705 420.174 309.111 417.995 313.24 415.361ZM300.107 421.86V434.985C295.294 436.748 290.306 437.986 285.227 438.677V425.552C290.306 424.861 295.294 423.623 300.107 421.86ZM285.227 425.552V438.677C281.956 439.123 278.658 439.346 275.356 439.346C251.669 439.346 228.394 427.868 216.9 406.31C213.082 399.152 211.312 391.643 211.312 384.234V371.109C211.312 378.518 213.083 386.028 216.9 393.185C228.394 414.742 251.669 426.22 275.356 426.22C278.658 426.222 281.956 425.999 285.227 425.552Z" fill="#8DA947"/>
<path d="M478.986 445.921C457.73 448.447 441.222 464.347 441.18 483.536V470.411C441.222 451.285 457.624 435.426 478.781 432.82C478.782 433.361 478.785 435.011 478.813 436.911C478.861 439.915 478.936 442.919 478.986 445.921Z" fill="#8DA947"/>
<path d="M529.078 470.556V483.682C529.188 462.806 509.665 445.783 485.363 445.572C485.216 445.57 485.067 445.57 484.92 445.57L484.639 445.572C482.467 445.583 480.297 445.736 478.145 446.029V432.904C480.263 432.615 482.433 432.459 484.639 432.446L484.92 432.445L485.363 432.446C509.665 432.658 529.187 449.681 529.078 470.556ZM478.143 432.904V446.029C474.673 446.498 471.264 447.343 467.977 448.547V435.422C471.264 434.217 474.673 433.372 478.143 432.904Z" fill="#8DA947"/>
<path d="M467.976 435.422V448.547C464.864 449.687 461.886 451.16 459.092 452.942V439.817C461.886 438.035 464.864 436.562 467.976 435.422ZM459.092 439.815V452.942C455.509 455.231 452.336 457.983 449.695 461.095V447.97C452.336 444.859 455.509 442.105 459.092 439.815Z" fill="#8DA947"/>
<path d="M449.699 447.969V461.094C444.795 466.878 441.722 473.906 441.246 481.524V468.399C441.722 460.782 444.795 453.754 449.699 447.969ZM441.245 468.4V481.525C441.201 482.195 441.18 482.866 441.18 483.537V470.411C441.18 469.74 441.201 469.069 441.245 468.4Z" fill="#8DA947"/>
<path d="M484.632 445.571C482.742 445.581 480.855 445.698 478.978 445.921C478.929 442.918 478.854 439.915 478.805 436.912C478.777 435.011 478.774 433.362 478.773 432.821C480.717 432.581 482.673 432.456 484.632 432.446L484.912 432.445L485.356 432.446C509.658 432.658 529.18 449.682 529.071 470.556V483.682C529.181 462.806 509.658 445.783 485.356 445.572C485.209 445.57 485.06 445.57 484.912 445.57C484.817 445.569 484.726 445.571 484.632 445.571Z" fill="#8DA947"/>
<path d="M529.081 470.556V483.682C529.191 462.806 509.668 445.783 485.366 445.572C485.219 445.57 485.07 445.57 484.923 445.57L484.642 445.572C482.47 445.583 480.3 445.736 478.148 446.029V432.904C480.266 432.615 482.436 432.459 484.642 432.446L484.923 432.445L485.366 432.446C509.668 432.658 529.19 449.681 529.081 470.556Z" fill="#8DA947"/>
<path d="M485.074 508.512V521.637C460.663 521.541 441.142 504.504 441.18 483.539V470.414C441.142 491.379 460.663 508.416 485.074 508.512Z" fill="#8DA947"/>
<path d="M485.074 508.512V521.637C460.663 521.541 441.142 504.504 441.18 483.539V470.414C441.142 491.379 460.663 508.416 485.074 508.512Z" fill="#8DA947"/>
<path d="M529.077 470.555V483.681C528.975 504.633 509.485 521.498 485.353 521.632C485.259 521.632 485.166 521.634 485.07 521.634V508.509C485.166 508.509 485.259 508.507 485.353 508.507C509.485 508.373 528.975 491.508 529.077 470.555Z" fill="#8DA947"/>
<path d="M529.071 470.555V483.681C529.068 484.332 529.048 484.98 529.006 485.623V472.498C529.047 471.855 529.068 471.206 529.071 470.555ZM529.006 472.498V485.623C528.526 493.273 525.462 500.309 520.552 506.093V492.968C525.462 487.184 528.526 480.148 529.006 472.498ZM520.552 492.968V506.093C517.925 509.19 514.766 511.93 511.195 514.211V501.086C514.766 498.805 517.924 496.065 520.552 492.968Z" fill="#8DA947"/>
<path d="M511.199 501.086V514.211C508.397 515.997 505.409 517.473 502.289 518.615V505.49C505.409 504.347 508.396 502.871 511.199 501.086ZM502.287 505.489V518.614C498.958 519.835 495.506 520.69 491.992 521.165V508.04C495.506 507.564 498.957 506.709 502.287 505.489Z" fill="#8DA947"/>
<path d="M491.995 508.039V521.163C489.83 521.46 487.612 521.619 485.353 521.631C485.259 521.631 485.166 521.633 485.07 521.633V508.508C485.166 508.508 485.259 508.506 485.353 508.506C487.575 508.495 489.793 508.338 491.995 508.039Z" fill="#8DA947"/>
<path d="M484.922 432.445L485.366 432.446C509.668 432.658 529.192 449.681 529.081 470.556C528.979 491.509 509.489 508.374 485.357 508.508C485.263 508.509 485.17 508.51 485.074 508.51C460.663 508.414 441.142 491.377 441.18 470.412C441.227 449.551 460.734 432.581 484.639 432.445C484.736 432.446 484.828 432.445 484.922 432.445Z" fill="#F5F7D2"/>
<path d="M543.319 447.295C561.518 480.179 536.358 520.506 494.588 525.396C491.494 525.759 488.424 525.934 485.409 525.934C450.499 525.934 421.826 502.365 421.224 471.041C421.121 465.578 422.761 460.06 423.979 454.632C424.398 452.77 424.445 451.816 422.327 450.792C391.176 435.786 360.059 420.711 328.976 405.568C328.176 405.181 327.531 404.998 326.963 404.998C326.02 404.998 325.284 405.499 324.388 406.401C310.981 419.806 293.052 426.22 275.356 426.22C251.668 426.22 228.394 414.741 216.9 393.183C199.695 360.918 224.074 321.548 264.717 316.185C268.647 315.668 272.47 315.409 276.186 315.409C295.068 315.409 311.191 322.078 324.495 335.255C324.881 335.63 325.26 336.018 325.654 336.386C358.995 321.226 391.622 305.451 424.208 289.69C423.295 285.632 422.128 281.737 421.562 277.776C417.295 247.952 441.445 220.577 475.71 216.252C476.6 216.137 477.459 215.843 478.332 215.625H491.633C496.681 216.743 501.87 217.52 506.752 219.042C534.387 227.648 552.105 251.975 548.844 276.507C545.38 302.641 523.116 322.726 493.35 325.992C490.223 326.336 487.166 326.507 484.178 326.507C465.611 326.507 449.766 319.909 436.673 307.306C435.902 306.562 435.112 305.825 434.223 304.973C433.34 305.341 432.507 305.641 431.718 306.016C400.785 320.973 369.877 335.949 338.912 350.837C336.559 351.969 335.944 352.938 336.778 355.283C340.456 365.691 340.313 376.201 336.706 386.608C336.023 388.585 336.51 389.418 338.495 390.373C369.551 405.321 400.576 420.333 431.57 435.409C432.466 435.848 433.18 436.072 433.823 436.072C434.743 436.072 435.516 435.615 436.477 434.675C449.97 421.437 467.831 415.092 485.43 415.092C508.782 415.095 531.672 426.256 543.319 447.295ZM276.173 408.888C300.014 408.621 319.52 391.473 319.466 370.672C319.419 349.891 299.976 332.937 276.122 332.673C275.934 332.671 275.745 332.67 275.557 332.67L275.256 332.671C251.132 332.815 231.485 349.994 231.579 370.855C231.681 391.798 251.322 408.823 275.466 408.89C275.798 408.891 275.987 408.889 276.173 408.888ZM485.359 508.509C509.492 508.377 528.98 491.512 529.082 470.557C529.192 449.682 509.669 432.659 485.367 432.447L484.923 432.446L484.643 432.447C460.734 432.58 441.23 449.552 441.182 470.413C441.142 491.379 460.665 508.416 484.857 508.512C485.17 508.511 485.263 508.511 485.359 508.509ZM441.189 270.969C441.187 271.133 441.189 271.298 441.189 271.462C441.344 292.254 460.816 309.094 484.723 309.222L485.003 309.223C509.52 309.107 529.034 292.179 529.082 271.215C529.128 250.305 509.534 233.285 485.367 233.155L485.084 233.154C460.861 233.203 441.339 250.121 441.189 270.969Z" fill="#CEDD54"/>
<path d="M549.321 470.188V483.312C549.321 509.691 526.936 534.732 494.588 538.52C491.541 538.877 488.476 539.055 485.408 539.056C450.499 539.056 421.825 515.488 421.224 484.163C421.221 484 421.219 483.837 421.219 483.674V470.549C421.219 470.712 421.221 470.876 421.224 471.038C421.826 502.364 450.499 525.931 485.408 525.931C488.424 525.931 491.492 525.756 494.588 525.395C526.936 521.605 549.321 496.566 549.321 470.188Z" fill="#8DA947"/>
<path d="M549.318 470.188V483.312C549.318 484.266 549.291 485.216 549.233 486.165V473.04C549.289 472.09 549.318 471.137 549.318 470.188ZM549.233 473.04V486.165C548.564 497.133 544.064 507.744 536.645 516.543V503.417C544.065 494.617 548.564 484.008 549.233 473.04ZM536.645 503.417V516.543C532.794 521.108 528.156 525.185 522.859 528.572V515.445C528.156 512.059 532.795 507.981 536.645 503.417Z" fill="#8DA947"/>
<path d="M522.858 515.453V528.579C518.907 531.1 514.695 533.186 510.295 534.799V521.674C514.694 520.059 518.906 517.973 522.858 515.453ZM510.295 521.674V534.799C505.633 536.504 500.8 537.699 495.881 538.362V525.237C500.8 524.574 505.633 523.38 510.295 521.674ZM495.881 525.237V538.362C492.408 538.828 488.906 539.062 485.402 539.063C450.492 539.063 421.819 515.495 421.217 484.17C421.214 484.007 421.211 483.844 421.211 483.681V470.555C421.211 470.717 421.214 470.882 421.217 471.045C421.82 502.37 450.493 525.938 485.402 525.938C488.906 525.937 492.408 525.703 495.881 525.237Z" fill="#8DA947"/>
</svg>
