<svg width="800" height="800" viewBox="0 0 800 800" fill="none" xmlns="http://www.w3.org/2000/svg">
<path d="M776.374 385.578V412.921C776.374 423.336 771.655 433.753 762.206 441.935C652.714 536.796 543.183 631.618 433.698 726.481C424.469 734.478 413.532 738.591 400.531 738.591V711.247C413.533 711.247 424.469 707.135 433.698 699.137C543.183 604.275 652.711 509.448 762.206 414.593C771.655 406.409 776.374 395.996 776.374 385.578Z" fill="#E1C237"/>
<path d="M23.625 412.789V410.054V408.687V405.953V403.218V401.851V399.117V396.382V395.015V392.281V389.546V388.179V385.445C23.625 396.935 28.8602 408.346 38.4977 416.71C146.661 510.51 254.942 604.207 363.155 697.975C373.313 706.772 385.609 710.839 400.54 711.252V738.596C385.612 738.183 373.313 734.116 363.155 725.319C254.942 631.55 146.661 537.853 38.4977 444.053C28.8594 435.69 23.625 424.278 23.625 412.789Z" fill="#E1C237"/>
<path d="M399.053 59.8438C411.759 59.8438 424.48 64.0328 434.167 72.4196C543.503 167.097 652.84 261.776 762.151 356.471C781.089 372.873 781.131 398.2 762.213 414.593C652.72 509.453 543.189 604.278 433.706 699.138C424.475 707.137 413.539 711.249 400.54 711.249C385.611 710.836 373.312 706.769 363.154 697.972C254.942 604.204 146.661 510.507 38.4977 416.707C23.2001 403.435 18.9977 382.48 29.2047 365.729C32.2665 360.7 35.9774 356.488 40.5055 352.566C148.403 259.166 256.27 165.743 364.148 72.3172C373.754 64.0047 386.396 59.8438 399.053 59.8438Z" fill="#F0DE2C"/>
<path d="M439.524 262.281V275.406C439.524 275.913 439.516 276.422 439.516 276.928V263.803C439.516 263.298 439.524 262.789 439.524 262.281Z" fill="#DCB91F"/>
<path d="M439.524 262.281V275.406C439.524 275.913 439.516 276.422 439.516 276.928V263.803C439.516 263.298 439.524 262.789 439.524 262.281Z" fill="#DCB91F"/>
<path d="M419.435 269.508V282.633C380.572 286.678 350.488 302.289 329.313 330.454C328.502 331.532 328.281 333.115 328.281 334.458V321.333C328.281 319.99 328.502 318.407 329.313 317.33C350.489 289.164 380.572 273.552 419.435 269.508Z" fill="#DCB91F"/>
<path d="M419.437 269.508V282.633C417.505 282.834 415.597 283.062 413.712 283.321V270.196C415.598 269.937 417.506 269.709 419.437 269.508ZM413.712 270.196V283.321C402.612 284.84 392.261 287.349 382.665 290.874V277.749C392.261 274.225 402.612 271.715 413.712 270.196ZM382.664 277.749V290.874C374.378 293.919 366.654 297.721 359.494 302.295V289.17C366.655 284.597 374.378 280.794 382.664 277.749ZM359.494 289.17V302.297C349.931 308.406 341.376 315.897 333.826 324.801V311.676C341.374 302.77 349.931 295.28 359.494 289.17ZM333.826 311.675V324.8C332.268 326.641 330.763 328.526 329.314 330.454C328.639 331.35 328.372 332.6 328.302 333.768V320.643C328.372 319.475 328.639 318.228 329.314 317.329C330.763 315.401 332.267 313.516 333.826 311.675ZM328.302 320.644V333.768C328.287 334.002 328.281 334.234 328.281 334.458V321.333C328.283 321.108 328.287 320.878 328.302 320.644Z" fill="#DCB91F"/>
<path d="M328.242 380.894V367.769V365.606C328.242 350.851 328.258 336.095 328.281 321.336V334.461C328.258 349.219 328.242 363.976 328.242 378.73V380.894Z" fill="#DCB91F"/>
<path d="M328.281 321.336V334.461C328.258 349.219 328.242 363.975 328.242 378.73V380.893V367.768V365.605C328.241 350.85 328.258 336.094 328.281 321.336Z" fill="#DCB91F"/>
<path d="M240.727 383.012V369.887C240.727 361.035 240.735 352.183 240.753 343.333C240.777 331.481 248.313 324.893 261.889 324.851C267.417 324.836 272.944 324.828 278.471 324.828H279.665C283.753 324.828 287.839 324.831 291.928 324.835C296.254 324.839 300.583 324.844 304.909 324.844C305.935 324.844 306.958 324.947 308.131 325.009V338.134C306.957 338.071 305.933 337.97 304.909 337.97C300.581 337.969 296.252 337.965 291.928 337.961C287.839 337.956 283.753 337.953 279.665 337.953H278.471C272.944 337.952 267.417 337.959 261.889 337.976C248.313 338.018 240.777 344.606 240.753 356.459C240.735 365.31 240.726 374.161 240.727 383.012Z" fill="#DCB91F"/>
<path d="M308.124 325.009V338.134C306.951 338.07 305.927 337.97 304.902 337.97C300.575 337.969 296.246 337.964 291.922 337.96C287.833 337.956 283.747 337.953 279.659 337.953H278.465C272.938 337.951 267.41 337.959 261.883 337.976C260.297 337.976 258.713 338.08 257.141 338.288V325.163C258.713 324.955 260.297 324.851 261.883 324.851C267.41 324.836 272.938 324.828 278.465 324.828H279.659C283.746 324.828 287.833 324.831 291.922 324.835C296.248 324.84 300.577 324.844 304.902 324.845C305.927 324.844 306.951 324.946 308.124 325.009ZM257.141 325.163V338.288C255.185 338.553 253.395 338.985 251.772 339.579V326.454C253.395 325.86 255.186 325.428 257.141 325.163ZM251.772 326.454V339.579C250.498 340.041 249.277 340.64 248.133 341.366V328.241C249.277 327.514 250.497 326.914 251.772 326.454Z" fill="#DCB91F"/>
<path d="M248.133 328.242V341.367C246.822 342.198 245.645 343.223 244.641 344.408V331.283C245.644 330.098 246.822 329.073 248.133 328.242ZM244.64 331.282V344.407C242.359 347.115 241.05 350.64 240.793 354.917V341.792C241.05 337.514 242.359 333.99 244.64 331.282ZM240.793 341.792V354.917C240.762 355.431 240.746 355.945 240.745 356.46C240.727 365.31 240.719 374.161 240.719 383.013V369.888C240.719 361.036 240.727 352.185 240.745 343.335C240.748 342.81 240.763 342.296 240.793 341.792Z" fill="#DCB91F"/>
<path d="M308.127 418.727V431.853C307.009 431.906 305.899 431.997 304.781 431.997V418.872C305.899 418.871 307.009 418.781 308.127 418.727Z" fill="#DCB91F"/>
<path d="M308.127 418.727V431.853C307.009 431.906 305.899 431.997 304.781 431.997V418.872C305.899 418.871 307.009 418.781 308.127 418.727Z" fill="#DCB91F"/>
<path d="M279.377 418.896V432.022H278.761C276.089 432.02 273.417 432.02 270.745 432.017C267.866 432.015 264.988 432.008 262.109 432.001C248.297 431.974 240.768 425.42 240.753 413.41C240.737 403.92 240.727 394.43 240.727 384.938V371.812C240.727 381.304 240.738 390.795 240.753 400.285C240.77 412.295 248.298 418.849 262.109 418.876C264.987 418.883 267.866 418.89 270.745 418.892C273.417 418.895 276.088 418.895 278.761 418.896H279.377Z" fill="#DCB91F"/>
<path d="M279.377 418.896V432.022H278.761C276.089 432.02 273.417 432.02 270.745 432.017C267.866 432.015 264.988 432.008 262.109 432.001C248.297 431.974 240.768 425.42 240.753 413.41C240.737 403.92 240.727 394.43 240.727 384.938V371.812C240.727 381.304 240.738 390.795 240.753 400.285C240.77 412.295 248.298 418.849 262.109 418.876C264.987 418.883 267.866 418.89 270.745 418.892C273.417 418.895 276.088 418.895 278.761 418.896H279.377Z" fill="#DCB91F"/>
<path d="M278.945 324.828L279.665 324.829C283.753 324.829 287.84 324.832 291.927 324.835C296.254 324.839 300.583 324.843 304.91 324.846C305.934 324.846 306.959 324.948 308.131 325.009V418.729C307.013 418.783 305.903 418.873 304.785 418.873L291.288 418.887C287.318 418.891 283.348 418.893 279.378 418.893H278.761C276.089 418.891 273.417 418.891 270.745 418.888C267.866 418.886 264.988 418.879 262.109 418.873C248.297 418.847 240.768 412.291 240.753 400.281C240.737 390.791 240.727 381.301 240.727 371.808C240.726 362.315 240.733 352.825 240.753 343.335C240.776 331.482 248.313 324.894 261.889 324.852C264.889 324.843 267.891 324.836 270.891 324.832C273.417 324.83 275.945 324.828 278.471 324.828H278.945Z" fill="#F6EC9D"/>
<path d="M304.775 418.875V432L291.277 432.014C287.307 432.018 283.337 432.02 279.367 432.02V418.895C279.632 418.895 279.897 418.895 280.161 418.893C283.867 418.893 287.573 418.892 291.277 418.889L304.775 418.875Z" fill="#DCB91F"/>
<path d="M304.775 418.875V432L291.277 432.014C287.307 432.018 283.337 432.02 279.367 432.02V418.895C279.632 418.895 279.897 418.895 280.161 418.893C283.867 418.893 287.573 418.892 291.277 418.889L304.775 418.875Z" fill="#DCB91F"/>
<path d="M328.242 381.344V368.219C328.242 386.32 328.263 404.422 328.313 422.526V435.651C328.265 417.548 328.241 399.446 328.242 381.344Z" fill="#DCB91F"/>
<path d="M328.313 422.526V435.651C328.263 417.547 328.242 399.445 328.242 381.344V368.219C328.241 386.32 328.263 404.422 328.313 422.526Z" fill="#DCB91F"/>
<path d="M419.434 474.015V487.14C409.976 486.689 400.935 484.958 392.155 482.345C365.899 474.536 345.038 460.629 329.943 440.402C328.943 439.057 328.312 437.243 328.312 435.648V422.523C328.312 424.118 328.944 425.932 329.943 427.277C345.04 447.504 365.899 461.41 392.155 469.22C400.935 471.833 409.976 473.564 419.434 474.015Z" fill="#DCB91F"/>
<path d="M419.434 474.015V487.14C409.976 486.689 400.935 484.958 392.155 482.345C365.899 474.536 345.038 460.629 329.943 440.402C328.943 439.057 328.312 437.243 328.312 435.648V422.523C328.312 424.118 328.944 425.932 329.943 427.277C345.04 447.504 365.899 461.41 392.155 469.22C400.935 471.833 409.976 473.564 419.434 474.015Z" fill="#DCB91F"/>
<path d="M419.443 269.508V474.012C409.986 473.561 400.944 471.83 392.164 469.217C365.908 461.408 345.047 447.502 329.951 427.274C328.951 425.929 328.322 424.115 328.322 422.52C328.27 403.547 328.246 384.574 328.251 365.601C328.251 350.847 328.267 336.09 328.29 321.331C328.29 319.987 328.511 318.406 329.322 317.327C350.497 289.164 380.58 273.552 419.443 269.508Z" fill="#F6EC9D"/>
<path d="M439.515 263.805V276.93C439.515 348.976 439.515 421.014 439.508 493.055V479.93C439.515 407.89 439.515 335.851 439.515 263.805Z" fill="#DCB91F"/>
<path d="M439.515 263.805V276.93C439.515 348.976 439.515 421.014 439.508 493.055V479.93C439.515 407.89 439.515 335.851 439.515 263.805Z" fill="#DCB91F"/>
<path d="M439.476 260.772C439.54 261.775 439.508 262.791 439.508 263.8C439.508 335.847 439.508 407.885 439.501 479.926C439.501 481.037 439.532 482.155 439.446 483.26C439.033 488.421 435.092 491.773 429.123 491.773C400.675 491.41 374.712 484.618 351.33 470.779C336.62 462.072 324.289 451.29 314.476 438.393C313.176 436.693 311.76 436.089 309.452 436.089C300.838 436.136 292.301 436.148 283.764 436.148C276.433 436.148 269.101 436.14 261.77 436.135C240.469 436.115 225.813 425.83 221.316 407.758C221.253 407.493 220.962 407.268 220.781 407.028V336.7C221.866 333.747 222.599 330.665 224.105 327.882C231.058 314.971 242.894 308.002 259.321 307.668C266.116 307.531 272.912 307.485 279.709 307.485C289.48 307.485 299.248 307.58 309.022 307.64C311.695 307.641 313.187 306.952 314.675 305.076C337.842 275.9 369.729 258.626 410.096 253.191C416.183 252.365 422.405 252.174 428.571 251.977C435.263 251.965 439.133 255.37 439.476 260.772ZM419.436 474.011V269.507C380.573 273.552 350.489 289.163 329.314 317.329C328.503 318.407 328.282 319.989 328.282 321.333C328.258 336.091 328.243 350.847 328.243 365.602C328.241 384.575 328.262 403.547 328.314 422.521C328.314 424.117 328.944 425.93 329.944 427.275C345.039 447.504 365.901 461.41 392.156 469.218C400.936 471.829 409.977 473.561 419.436 474.011ZM308.122 418.729V325.01C306.948 324.947 305.924 324.846 304.9 324.846C300.573 324.845 296.244 324.84 291.919 324.836C287.83 324.832 283.744 324.829 279.656 324.829H278.462C275.935 324.829 273.409 324.829 270.882 324.833C267.88 324.836 264.88 324.843 261.88 324.851C248.304 324.893 240.768 331.481 240.744 343.334C240.725 352.825 240.716 362.316 240.718 371.808C240.718 381.299 240.729 390.79 240.744 400.28C240.761 412.29 248.289 418.846 262.101 418.872C267.652 418.886 273.202 418.893 278.752 418.892H280.162C283.869 418.892 287.574 418.89 291.28 418.886L304.777 418.872C305.894 418.872 307.004 418.783 308.122 418.729Z" fill="#EFD350"/>
<path d="M439.505 481.344V494.469C439.505 495.112 439.495 495.753 439.446 496.388C439.033 501.549 435.092 504.901 429.123 504.901C400.675 504.538 374.712 497.747 351.33 483.908C336.62 475.2 324.289 464.418 314.476 451.522C313.176 449.821 311.76 449.217 309.452 449.217C300.838 449.264 292.301 449.276 283.764 449.276C276.433 449.276 269.101 449.268 261.77 449.263C240.469 449.244 225.813 438.958 221.316 420.886C221.253 420.621 220.962 420.395 220.781 420.156V407.031C220.962 407.27 221.253 407.496 221.316 407.761C225.813 425.833 240.469 436.119 261.77 436.138C269.101 436.143 276.433 436.151 283.764 436.151C292.301 436.151 300.837 436.138 309.452 436.091C311.761 436.091 313.177 436.697 314.476 438.397C324.29 451.293 336.621 462.075 351.33 470.783C374.712 484.621 400.675 491.413 429.123 491.776C435.091 491.776 439.033 488.423 439.446 483.263C439.496 482.628 439.505 481.987 439.505 481.344Z" fill="#DCB91F"/>
<path d="M439.509 481.344V494.469C439.509 495.008 439.502 495.547 439.47 496.082V482.957C439.502 482.421 439.509 481.883 439.509 481.344ZM439.47 482.957V496.082L439.449 496.389C439.287 498.422 438.575 500.176 437.409 501.553V488.428C438.575 487.05 439.287 485.298 439.449 483.264L439.47 482.957ZM437.409 488.428V501.553C436.856 502.206 436.207 502.771 435.484 503.229V490.104C436.206 489.645 436.855 489.08 437.409 488.428Z" fill="#DCB91F"/>
<path d="M435.482 490.102V503.227C434.903 503.598 434.267 503.91 433.58 504.163V491.038C434.246 490.796 434.884 490.482 435.482 490.102ZM433.58 491.038V504.163C432.773 504.454 431.937 504.658 431.087 504.771V491.646C431.937 491.534 432.773 491.33 433.58 491.038ZM431.087 491.646V504.771C430.462 504.856 429.805 504.901 429.124 504.901C400.677 504.538 374.713 497.746 351.332 483.907C336.622 475.2 324.291 464.418 314.479 451.521C313.177 449.821 311.762 449.217 309.453 449.217C300.839 449.264 292.301 449.276 283.764 449.276C276.433 449.276 269.103 449.268 261.772 449.263C240.469 449.243 225.815 438.958 221.318 420.886C221.255 420.621 220.963 420.395 220.781 420.156V407.031C220.962 407.27 221.255 407.496 221.318 407.761C225.815 425.833 240.469 436.119 261.772 436.138C269.103 436.143 276.435 436.151 283.764 436.151C292.301 436.151 300.837 436.138 309.453 436.091C311.762 436.091 313.177 436.696 314.479 438.396C324.291 451.293 336.622 462.075 351.332 470.782C374.713 484.621 400.677 491.413 429.124 491.776C429.805 491.776 430.462 491.731 431.087 491.646Z" fill="#DCB91F"/>
<path d="M498.95 372.116V385.241C498.95 371.316 493.975 357.343 484.115 346.741C479.044 341.299 472.65 336.77 466.728 331.949C464.343 330.009 462.953 327.822 462.953 325.282V312.156C462.953 314.697 464.344 316.884 466.728 318.824C472.65 323.646 479.044 328.175 484.115 333.617C493.975 344.217 498.95 358.19 498.95 372.116Z" fill="#E6D32B"/>
<path d="M498.95 372.116V385.241C498.95 371.316 493.975 357.343 484.115 346.741C479.044 341.299 472.65 336.77 466.728 331.949C464.343 330.009 462.953 327.822 462.953 325.282V312.156C462.953 314.697 464.344 316.884 466.728 318.824C472.65 323.646 479.044 328.175 484.115 333.617C493.975 344.217 498.95 358.19 498.95 372.116Z" fill="#E6D32B"/>
<path d="M559.186 372.28V385.405C559.186 354.37 543.834 323.594 515.547 303.086C512.42 300.822 509.121 298.734 505.93 296.532C503.014 294.521 501.508 291.943 501.508 289.344V276.219C501.508 278.817 503.014 281.396 505.93 283.407C509.121 285.608 512.42 287.697 515.547 289.961C543.833 310.468 559.186 341.246 559.186 372.28Z" fill="#E6D32B"/>
<path d="M559.186 372.28V385.405C559.186 354.37 543.834 323.594 515.547 303.086C512.42 300.822 509.121 298.734 505.93 296.532C503.014 294.521 501.508 291.943 501.508 289.344V276.219C501.508 278.817 503.014 281.396 505.93 283.407C509.121 285.608 512.42 287.697 515.547 289.961C543.833 310.468 559.186 341.246 559.186 372.28Z" fill="#E6D32B"/>
<path d="M462.93 444.985V431.86C462.93 433.725 463.686 435.592 465.187 437.211C467.167 439.34 469.919 440.456 472.8 440.456C474.973 440.456 477.219 439.82 479.259 438.506C505.009 421.935 518.061 399.639 519.202 371.602V384.727C518.061 412.764 505.009 435.06 479.259 451.631C477.22 452.945 474.974 453.58 472.8 453.58C469.919 453.58 467.167 452.463 465.187 450.335C463.688 448.717 462.93 446.851 462.93 444.985Z" fill="#E6D32B"/>
<path d="M519.204 371.602V384.727C519.179 385.351 519.148 385.975 519.11 386.599V373.474C519.149 372.853 519.179 372.23 519.204 371.602ZM519.11 373.474V386.599C518.036 404.427 512.049 419.892 500.941 432.995V419.87C512.049 406.766 518.036 391.303 519.11 373.474ZM500.941 419.87V432.995C495.128 439.855 487.911 446.065 479.262 451.631C479.248 451.641 479.235 451.65 479.219 451.659V438.534L479.262 438.506C487.912 432.939 495.128 426.728 500.941 419.87Z" fill="#E6D32B"/>
<path d="M479.216 438.532V451.657C478.457 452.143 477.649 452.545 476.804 452.856V439.731C477.649 439.42 478.458 439.018 479.216 438.532ZM476.804 439.731V452.856C476.005 453.151 475.177 453.358 474.334 453.473V440.348C475.177 440.232 476.005 440.026 476.804 439.731ZM474.334 440.348V453.473C473.821 453.543 473.308 453.579 472.801 453.579C469.92 453.579 467.167 452.462 465.188 450.334C463.687 448.716 462.93 446.848 462.93 444.984V431.859C462.93 433.723 463.687 435.59 465.188 437.209C467.167 439.337 469.92 440.453 472.801 440.453C473.308 440.453 473.82 440.419 474.334 440.348Z" fill="#E6D32B"/>
<path d="M472.264 303.695C474.498 303.695 476.954 304.133 478.613 305.13C495.009 314.958 506.61 328.147 513.28 344.393C515.531 349.868 516.831 355.665 518.145 361.388C518.934 364.832 518.894 368.412 519.202 371.604C518.061 399.641 505.009 421.935 479.259 438.507C477.22 439.821 474.974 440.456 472.8 440.456C469.919 440.456 467.167 439.34 465.187 437.211C461.643 433.392 462.249 428.173 467.17 424.908C476.164 418.934 483.724 411.985 489.504 403.478C503.774 382.494 501.805 352.631 484.116 333.615C479.047 328.173 472.652 323.644 466.73 318.822C463.738 316.387 462.313 313.565 463.234 310.14C464.147 306.751 466.699 304.158 470.745 303.764C471.25 303.718 471.757 303.695 472.264 303.695Z" fill="#F7ED86"/>
<path d="M501.516 480.673V467.548C501.516 469.299 502.188 471.056 503.543 472.633C505.519 474.934 508.273 476.135 511.246 476.135C513.498 476.135 515.875 475.445 518.134 474.023C548.217 455.091 567.652 430.006 575.741 398.513C577.284 392.531 578.078 386.407 579.221 380.352V393.477C578.078 399.532 577.284 405.656 575.741 411.638C567.652 443.132 548.217 468.216 518.134 487.148C515.876 488.569 513.497 489.26 511.246 489.26C508.272 489.26 505.519 488.058 503.543 485.759C502.188 484.18 501.516 482.423 501.516 480.673Z" fill="#E6D32B"/>
<path d="M579.215 380.352V393.477C578.073 399.532 577.278 405.656 575.735 411.638C571.177 429.384 563.017 445.095 551.38 458.817V445.692C563.017 431.97 571.177 416.259 575.735 398.513C577.278 392.532 578.073 386.407 579.215 380.352ZM551.38 445.692V458.817C542.591 469.18 531.821 478.405 519.12 486.52V473.395C531.82 465.281 542.591 456.055 551.38 445.692ZM519.12 473.395V486.52C518.791 486.729 518.459 486.939 518.128 487.148C517.273 487.69 516.364 488.141 515.414 488.493V475.367C516.364 475.016 517.273 474.565 518.128 474.023C518.46 473.815 518.791 473.605 519.12 473.395Z" fill="#E6D32B"/>
<path d="M515.413 475.365V488.491C514.562 488.806 513.68 489.027 512.781 489.152V476.027C513.68 475.903 514.562 475.681 515.413 475.365ZM512.781 476.027V489.154C512.261 489.224 511.748 489.261 511.238 489.261C508.265 489.261 505.512 488.058 503.536 485.758C502.183 484.18 501.508 482.423 501.508 480.673V467.547C501.508 469.299 502.18 471.055 503.536 472.633C505.512 474.933 508.266 476.135 511.238 476.135C511.754 476.133 512.27 476.097 512.781 476.027Z" fill="#E6D32B"/>
<path d="M511.296 267.602C513.444 267.602 515.69 268.243 517.797 269.572C553.596 292.188 573.985 322.523 578.56 360.755C578.672 361.635 578.987 362.501 579.213 363.375V380.351C578.072 386.406 577.276 392.531 575.733 398.511C567.644 430.007 548.211 455.09 518.127 474.022C515.868 475.444 513.49 476.134 511.239 476.134C508.265 476.134 505.512 474.932 503.537 472.633C500.101 468.628 501.04 463.466 506.285 460.186C524.036 449.083 537.713 435.094 547.251 417.99C571.348 374.772 558.047 320.778 515.547 289.965C512.42 287.701 509.121 285.613 505.93 283.411C501.065 280.056 500.126 275.124 503.553 271.149C505.546 268.824 508.33 267.602 511.296 267.602Z" fill="#F7ED86"/>
</svg>
