<svg width="800" height="800" viewBox="0 0 800 800" fill="none" xmlns="http://www.w3.org/2000/svg">
<path d="M776.374 385.578V412.921C776.374 423.336 771.655 433.753 762.206 441.935C652.715 536.795 543.183 631.618 433.698 726.481C424.469 734.478 413.532 738.591 400.531 738.591V711.247C413.534 711.247 424.469 707.135 433.698 699.137C543.184 604.274 652.711 509.448 762.206 414.592C771.655 406.409 776.374 395.996 776.374 385.578Z" fill="#C16172"/>
<path d="M23.625 412.789V410.054V408.687V405.953V403.218V401.851V399.117V396.382V395.015V392.281V389.547V388.179V385.445C23.625 396.935 28.8602 408.346 38.4977 416.71C146.661 510.51 254.942 604.207 363.155 697.975C373.313 706.772 385.609 710.84 400.541 711.252V738.596C385.612 738.183 373.313 734.116 363.155 725.319C254.942 631.55 146.661 537.854 38.4977 444.054C28.8594 435.69 23.625 424.279 23.625 412.789Z" fill="#C16172"/>
<path d="M399.053 59.8438C411.759 59.8438 424.48 64.0328 434.167 72.4196C543.502 167.097 652.839 261.776 762.15 356.471C781.088 372.873 781.131 398.2 762.212 414.593C652.72 509.453 543.189 604.279 433.706 699.138C424.476 707.136 413.539 711.249 400.541 711.249C385.612 710.836 373.312 706.769 363.155 697.972C254.942 604.204 146.661 510.507 38.4977 416.707C23.2001 403.436 18.9977 382.48 29.2047 365.729C32.2665 360.7 35.9774 356.488 40.5055 352.566C148.403 259.166 256.27 165.743 364.148 72.3172C373.754 64.0055 386.396 59.8438 399.053 59.8438Z" fill="#EC6F8B"/>
<path d="M319.25 264.375V277.5C319.25 278.341 319.219 279.187 319.154 280.04C319.114 280.539 318.98 281.036 318.878 281.533C318.639 282.703 318.514 283.818 318.508 284.886V271.761C318.514 270.693 318.639 269.578 318.878 268.408C318.98 267.91 319.114 267.412 319.154 266.915C319.219 266.07 319.251 265.222 319.25 264.375Z" fill="#B83C55"/>
<path d="M319.247 264.375V277.5C319.247 278.165 319.229 278.833 319.188 279.504V266.379C319.227 265.707 319.247 265.039 319.247 264.375Z" fill="#B83C55"/>
<path d="M319.19 266.383V279.508C319.179 279.686 319.167 279.866 319.154 280.044C319.114 280.543 318.98 281.041 318.878 281.538C318.704 282.379 318.589 283.232 318.534 284.089V270.964C318.589 270.107 318.704 269.254 318.878 268.413C318.98 267.914 319.114 267.417 319.154 266.919C319.167 266.741 319.179 266.562 319.19 266.383ZM318.534 270.967V284.091C318.517 284.362 318.509 284.629 318.508 284.893V271.768C318.509 271.503 318.518 271.236 318.534 270.967Z" fill="#B83C55"/>
<path d="M529.966 364.21C529.955 364.207 529.946 364.203 529.938 364.201V362.665V361.039V359.351V357.635V355.918V354.233V352.608V351.078C529.946 351.081 529.956 351.084 529.966 351.087V364.21Z" fill="#B83C55"/>
<path d="M530.198 351.165V364.29C529.153 363.932 528.085 363.644 527.002 363.43C526.63 363.357 526.258 363.287 525.886 363.218C525.507 363.147 525.127 363.078 524.747 363.009C524.263 362.922 523.78 362.837 523.295 362.755C522.719 362.659 522.346 362.597 521.97 362.536C513.949 361.242 505.839 360.588 497.716 360.578C490.388 360.592 483.184 361.104 476.078 362.076V348.951C483.249 347.968 490.478 347.468 497.716 347.453C506.78 347.462 515.826 348.276 524.747 349.884C525.127 349.952 525.507 350.022 525.886 350.093C526.258 350.161 526.63 350.233 527.002 350.305C528.016 350.503 529.024 350.77 530.198 351.165Z" fill="#B83C55"/>
<path d="M530.025 351.031V364.156C472.436 414.29 414.673 464.3 356.438 514.712V501.587C414.672 451.175 472.436 401.164 530.025 351.031Z" fill="#B83C55"/>
<path d="M530.025 351.031V364.156C472.436 414.29 414.673 464.3 356.438 514.712V501.587C414.672 451.175 472.436 401.164 530.025 351.031Z" fill="#B83C55"/>
<path d="M562.748 346.906V360.031C562.748 362.781 561.553 365.509 559.352 367.386V354.261C560.415 353.353 561.269 352.225 561.855 350.955C562.441 349.686 562.746 348.304 562.748 346.906Z" fill="#B83C55"/>
<path d="M562.748 346.906V360.031C562.748 360.231 562.74 360.43 562.73 360.629V347.504C562.741 347.305 562.748 347.105 562.748 346.906ZM562.73 347.504V360.629C562.598 362.698 561.806 364.672 560.471 366.259V353.134C561.806 351.547 562.598 349.574 562.73 347.504ZM560.471 353.134V366.259C560.134 366.661 559.763 367.037 559.352 367.385V354.26C559.756 353.917 560.131 353.541 560.471 353.134Z" fill="#B83C55"/>
<path d="M365.902 417.707V430.832C365.925 427.692 364.655 424.758 361.645 421.733C333.784 393.722 306.141 365.55 278.656 337.261C278.116 336.701 277.553 336.164 276.97 335.651C273.555 332.661 269.871 331.057 265.086 331V317.875C269.871 317.931 273.555 319.538 276.97 322.526C277.553 323.039 278.116 323.576 278.656 324.136C306.141 352.425 333.783 380.598 361.645 408.608C364.655 411.633 365.925 414.567 365.902 417.707Z" fill="#B83C55"/>
<path d="M365.902 417.707V430.832C365.925 427.692 364.655 424.758 361.645 421.733C333.784 393.722 306.141 365.55 278.656 337.261C278.116 336.701 277.553 336.164 276.97 335.651C273.555 332.661 269.871 331.057 265.086 331V317.875C269.871 317.931 273.555 319.538 276.97 322.526C277.553 323.039 278.116 323.576 278.656 324.136C306.141 352.425 333.783 380.598 361.645 408.608C364.655 411.633 365.925 414.567 365.902 417.707Z" fill="#B83C55"/>
<path d="M341.716 419.915V433.041C341.716 432.145 341.423 431.143 340.867 430.577C315.1 404.212 289.255 377.892 263.307 351.656C262.402 350.739 260.392 350.224 258.883 350.224C258.103 350.233 257.413 350.239 256.724 350.239C243.963 350.239 231.626 348.508 220.248 343.132C216.403 341.309 212.75 339.025 209.489 336.496C207.552 334.99 206.625 332.655 206.625 330.289V317.164C206.625 319.533 207.552 321.867 209.489 323.372C212.749 325.901 216.403 328.185 220.248 330.007C231.626 335.384 243.963 337.114 256.724 337.114C257.413 337.114 258.103 337.109 258.883 337.1C260.393 337.1 262.403 337.614 263.307 338.532C289.239 364.761 315.091 391.068 340.865 417.453C341.423 418.018 341.716 419.018 341.716 419.915Z" fill="#B83C55"/>
<path d="M341.716 419.915V433.041C341.716 432.145 341.423 431.143 340.867 430.577C315.1 404.212 289.255 377.892 263.307 351.656C262.402 350.739 260.392 350.224 258.883 350.224C258.103 350.233 257.413 350.239 256.724 350.239C243.963 350.239 231.626 348.508 220.248 343.132C216.403 341.309 212.75 339.025 209.489 336.496C207.552 334.99 206.625 332.655 206.625 330.289V317.164C206.625 319.533 207.552 321.867 209.489 323.372C212.749 325.901 216.403 328.185 220.248 330.007C231.626 335.384 243.963 337.114 256.724 337.114C257.413 337.114 258.103 337.109 258.883 337.1C260.393 337.1 262.403 337.614 263.307 338.532C289.239 364.761 315.091 391.068 340.865 417.453C341.423 418.018 341.716 419.018 341.716 419.915Z" fill="#B83C55"/>
<path d="M365.9 430.832C365.887 432.715 365.41 434.671 364.562 436.762V435.228V433.601V431.913V430.197V428.48V426.795V425.172V423.64C365.41 421.549 365.885 419.593 365.9 417.711C365.9 421.645 365.914 426.895 365.9 430.832Z" fill="#B83C55"/>
<path d="M365.901 417.703V430.828C365.901 431.034 365.892 431.239 365.88 431.447V418.322C365.892 418.114 365.901 417.908 365.901 417.703ZM365.88 418.323V431.448C365.778 433.14 365.316 434.895 364.562 436.758C362.184 442.659 359.94 448.619 358.184 454.675C355.584 463.669 353.745 472.742 353.195 481.91V468.784C353.745 459.615 355.582 450.542 358.184 441.55C359.94 435.494 362.184 429.533 364.562 423.633C365.316 421.77 365.778 420.015 365.88 418.323Z" fill="#B83C55"/>
<path d="M559.351 354.258V367.383C529.608 392.766 500.194 418.451 470.647 443.999C469.67 444.843 468.371 445.415 466.82 446.357V433.232C468.371 432.292 469.67 431.718 470.647 430.873C500.194 405.326 529.606 379.642 559.351 354.258Z" fill="#B83C55"/>
<path d="M559.353 354.258V367.383C529.61 392.766 500.196 418.451 470.649 443.999C470.362 444.245 470.048 444.471 469.711 444.687V431.562C470.052 431.345 470.364 431.121 470.649 430.873C500.196 405.326 529.609 379.642 559.353 354.258Z" fill="#B83C55"/>
<path d="M469.709 431.562V444.688C468.888 445.212 467.916 445.693 466.82 446.358V433.233C467.917 432.569 468.888 432.087 469.709 431.562Z" fill="#B83C55"/>
<path d="M315.262 247.172C317.589 252.448 319.226 258.213 319.241 264.292C319.243 265.168 319.211 266.043 319.144 266.916C319.105 267.415 318.97 267.912 318.869 268.409C318.63 269.579 318.505 270.695 318.498 271.762C318.465 276.394 320.651 280.151 325.539 283.693C358.551 307.603 391.24 331.842 423.914 356.106C424.558 356.572 424.895 356.795 425.233 357.004C427.687 358.525 430.155 359.232 432.708 359.281C433.612 359.283 434.227 359.247 434.851 359.174C436.441 358.991 438.072 358.578 439.754 357.973C458.531 351.255 477.659 347.489 497.223 347.448C505.722 347.456 513.805 348.091 521.965 349.407C522.341 349.468 522.716 349.529 523.09 349.593C523.772 349.707 524.258 349.795 524.744 349.88C525.495 350.015 526.246 350.156 526.996 350.301C528.012 350.498 529.019 350.765 530.019 351.031C472.43 401.165 414.667 451.175 356.431 501.587C355.518 496.246 354.392 490.82 353.698 485.355C353.235 481.678 353.008 477.976 353.019 474.27C353.041 463.231 355.06 452.334 358.179 441.551C359.935 435.495 362.18 429.535 364.558 423.635C365.403 421.544 365.88 419.587 365.896 417.705C365.918 414.564 364.648 411.63 361.637 408.605C333.776 380.595 306.134 352.422 278.649 324.133C278.109 323.574 277.546 323.037 276.962 322.523C273.548 319.534 269.863 317.93 265.078 317.873C263.828 317.878 262.978 317.927 262.091 318.023C259.935 318.238 258.207 318.321 256.489 318.326C250.465 318.277 245.144 317.439 240.052 316.059C238.925 315.754 237.806 315.422 236.695 315.063C262.83 292.477 289.03 269.841 315.262 247.172Z" fill="#EF97A8"/>
<path d="M556.685 514.86V527.987C556.685 530.294 555.705 532.537 553.733 534.293C551.537 536.248 548.629 537.237 545.711 537.237C542.875 537.237 540.035 536.303 537.836 534.409C524.197 522.644 510.606 510.847 496.997 499.062C483.058 486.991 469.113 474.921 455.195 462.827C454.213 461.968 453.457 460.925 452.062 459.383V446.258C453.457 447.8 454.213 448.844 455.195 449.702C469.112 461.795 483.058 473.866 496.997 485.937C510.606 497.722 524.197 509.52 537.836 521.284C540.035 523.176 542.875 524.112 545.711 524.112C548.629 524.112 551.538 523.122 553.733 521.167C555.705 519.412 556.685 517.167 556.685 514.86Z" fill="#B83C55"/>
<path d="M556.68 514.859V527.986C556.68 528.154 556.673 528.323 556.664 528.489V515.364C556.673 515.195 556.68 515.028 556.68 514.859ZM556.664 515.362V528.487C556.554 530.207 555.9 531.875 554.688 533.31V520.185C555.9 518.749 556.556 517.082 556.664 515.362Z" fill="#B83C55"/>
<path d="M554.687 520.188V533.312C554.398 533.655 554.078 533.979 553.726 534.292C553.289 534.68 552.823 535.033 552.331 535.349V522.224C552.823 521.909 553.29 521.556 553.726 521.167C554.078 520.854 554.398 520.528 554.687 520.188ZM552.331 522.224V535.349C551.618 535.803 550.857 536.179 550.063 536.469V523.344C550.857 523.054 551.618 522.678 552.331 522.224ZM550.063 523.344V536.469C549.219 536.778 548.341 536.996 547.445 537.12V523.992C548.339 523.87 549.216 523.654 550.063 523.344Z" fill="#B83C55"/>
<path d="M547.454 523.994V537.12C546.879 537.2 546.296 537.237 545.711 537.237C542.875 537.237 540.035 536.303 537.836 534.408C524.197 522.642 510.606 510.846 496.997 499.061C483.058 486.991 469.113 474.92 455.195 462.827C454.213 461.967 453.457 460.923 452.062 459.383V446.258C453.457 447.8 454.213 448.843 455.195 449.701C469.112 461.794 483.058 473.866 496.997 485.936C510.606 497.721 524.197 509.52 537.836 521.283C540.035 523.176 542.875 524.111 545.711 524.111C546.296 524.113 546.877 524.074 547.454 523.994Z" fill="#B83C55"/>
<path d="M559.35 354.259C529.607 379.642 500.193 405.327 470.646 430.875C469.668 431.719 468.37 432.292 466.819 433.234C469.978 435.806 472.418 437.694 474.726 439.694C500.807 462.247 526.876 484.813 552.932 507.394C557.618 511.452 557.932 517.42 553.728 521.163C551.532 523.118 548.622 524.108 545.704 524.108C542.868 524.108 540.028 523.173 537.829 521.28C524.19 509.513 510.6 497.717 496.991 485.933C483.052 473.862 469.107 461.791 455.189 449.698C454.207 448.838 453.45 447.795 452.056 446.254C450.448 447.966 449.465 449.234 448.235 450.293C419.146 475.525 389.868 500.602 361.035 526.068C358.443 528.359 355.089 529.535 351.793 529.535C347.042 529.535 342.41 527.088 340.354 521.991C328.992 493.79 329.03 465.331 336.513 436.586C337.891 431.279 340.025 426.131 341.592 420.859C341.9 419.83 341.631 418.234 340.866 417.456C315.092 391.072 289.239 364.765 263.307 338.535C262.403 337.618 260.393 337.103 258.883 337.103C258.103 337.113 257.412 337.119 256.725 337.119C243.963 337.119 231.626 335.388 220.247 330.011C216.403 328.189 212.75 325.906 209.489 323.376C205.701 320.429 205.771 314.312 209.103 310.97C209.639 310.439 210.244 309.962 210.828 309.464C243.486 281.174 276.144 252.877 308.81 224.595C311.74 222.054 314.893 220.781 317.949 220.781C321.512 220.781 324.944 222.512 327.74 225.98C336.758 237.164 341.231 249.678 340.807 263.291C340.664 267.861 342.293 270.738 346.365 273.699C374.779 294.344 402.962 315.226 431.132 336.121C432.734 337.31 434.087 337.891 435.714 337.891C436.613 337.891 437.598 337.714 438.755 337.365C458.268 331.47 477.792 328.428 497.314 328.428C516.617 328.428 535.918 331.404 555.217 337.528C564.123 340.354 564.627 349.757 559.35 354.259ZM356.434 501.59C414.671 451.178 472.432 401.168 530.197 351.163C529.152 350.806 528.084 350.518 527 350.304C526.628 350.231 526.257 350.161 525.885 350.092C525.506 350.02 525.125 349.952 524.746 349.883C523.821 349.718 522.895 349.56 521.968 349.41C513.948 348.116 505.838 347.461 497.714 347.452C477.659 347.491 458.538 351.259 439.76 357.977C438.075 358.58 436.444 358.992 434.853 359.177C434.23 359.249 433.615 359.287 433.003 359.287C430.157 359.235 427.69 358.527 425.236 357.008C424.893 356.794 424.556 356.57 424.225 356.336C391.242 331.845 358.554 307.606 325.543 283.696C320.653 280.154 318.468 276.398 318.5 271.766C318.507 270.698 318.633 269.584 318.872 268.413C318.975 267.915 319.108 267.419 319.148 266.92C319.215 266.039 319.246 265.165 319.244 264.296C319.231 258.217 317.596 252.451 315.267 247.177C289.034 269.846 262.834 292.481 236.698 315.069C237.81 315.425 238.929 315.758 240.055 316.065C245.149 317.444 250.469 318.284 255.896 318.329C258.211 318.327 259.939 318.244 261.675 318.071C262.982 317.934 263.833 317.884 264.652 317.878C269.869 317.934 273.555 319.541 276.966 322.53C277.55 323.043 278.113 323.58 278.653 324.139C306.137 352.428 333.78 380.602 361.64 408.612C364.651 411.637 365.921 414.574 365.899 417.711C365.885 419.594 365.407 421.55 364.562 423.641C362.182 429.542 359.939 435.502 358.184 441.559C355.065 452.341 353.045 463.24 353.024 474.277C353.018 477.957 353.232 481.651 353.703 485.363C354.395 490.823 355.522 496.25 356.434 501.59Z" fill="#C5546B"/>
<path d="M331.297 488.261V475.136C331.297 490.836 334.097 506.455 340.359 521.993C342.413 527.091 347.045 529.538 351.797 529.538C355.092 529.538 358.447 528.362 361.04 526.071C389.871 500.606 419.151 475.528 448.241 450.296C449.467 449.238 450.452 447.969 452.06 446.258V459.383C450.452 461.095 449.469 462.365 448.241 463.421C419.151 488.654 389.873 513.731 361.04 539.197C358.448 541.488 355.092 542.664 351.797 542.664C347.046 542.664 342.415 540.217 340.359 535.12C334.096 519.581 331.297 503.962 331.297 488.261Z" fill="#B83C55"/>
<path d="M452.055 446.258V459.383C450.447 461.095 449.463 462.365 448.234 463.421C419.145 488.654 389.866 513.732 361.034 539.197C360.504 539.666 359.943 540.087 359.357 540.459V527.334C359.947 526.957 360.508 526.535 361.034 526.071C389.865 500.606 419.145 475.528 448.234 450.296C449.462 449.24 450.447 447.971 452.055 446.258ZM359.357 527.334V540.459C358.509 541.001 357.605 541.45 356.661 541.796V528.671C357.605 528.325 358.509 527.876 359.357 527.334ZM356.661 528.671V541.796C355.699 542.149 354.702 542.398 353.688 542.538V529.412C354.702 529.273 355.699 529.025 356.661 528.671Z" fill="#B83C55"/>
<path d="M353.693 529.408V542.534C353.062 542.618 352.429 542.661 351.797 542.661C347.046 542.661 342.415 540.214 340.359 535.116C334.096 519.578 331.297 503.96 331.297 488.258V475.133C331.297 490.833 334.097 506.452 340.359 521.99C342.413 527.088 347.045 529.535 351.797 529.535C352.427 529.535 353.062 529.493 353.693 529.408Z" fill="#B83C55"/>
</svg>
