<svg width="800" height="800" viewBox="0 0 800 800" fill="none" xmlns="http://www.w3.org/2000/svg">
<path d="M776.374 385.578V412.921C776.374 423.336 771.655 433.753 762.206 441.935C652.715 536.795 543.183 631.618 433.698 726.481C424.47 734.478 413.532 738.591 400.531 738.591V711.247C413.534 711.247 424.47 707.135 433.698 699.137C543.184 604.274 652.711 509.448 762.206 414.592C771.655 406.409 776.374 395.996 776.374 385.578Z" fill="#33B4E2"/>
<path d="M23.625 412.789V410.054V408.687V405.953V403.218V401.851V399.117V396.382V395.015V392.281V389.547V388.179V385.445C23.625 396.935 28.8602 408.346 38.4977 416.71C146.661 510.51 254.942 604.207 363.155 697.975C373.313 706.772 385.609 710.84 400.541 711.252V738.596C385.612 738.183 373.313 734.116 363.155 725.319C254.942 631.55 146.661 537.854 38.4977 444.054C28.8594 435.69 23.625 424.279 23.625 412.789Z" fill="#33B4E2"/>
<path d="M399.053 59.8438C411.759 59.8438 424.48 64.0329 434.167 72.4196C543.502 167.097 652.839 261.776 762.15 356.471C781.088 372.873 781.131 398.2 762.212 414.593C652.72 509.453 543.189 604.279 433.706 699.138C424.476 707.137 413.539 711.249 400.541 711.249C385.612 710.837 373.312 706.769 363.155 697.972C254.942 604.204 146.661 510.507 38.4977 416.707C23.2001 403.436 18.9977 382.48 29.2047 365.729C32.2665 360.7 35.9774 356.488 40.5055 352.566C148.403 259.166 256.27 165.743 364.148 72.3172C373.754 64.0047 386.396 59.8438 399.053 59.8438Z" fill="#81CDE3"/>
<path d="M462.702 242.625V255.75C462.702 267.936 459.013 279.665 455.105 291.4C451.846 301.167 449.263 311.109 446.56 321.006C445.987 323.107 446.189 325.37 446.008 327.907V314.782C446.189 312.245 445.985 309.981 446.56 307.88C449.262 297.984 451.845 288.042 455.105 278.275C459.013 266.539 462.702 254.809 462.702 242.625Z" fill="#2AA1BF"/>
<path d="M462.706 242.625V255.75C462.706 257.008 462.667 258.261 462.592 259.511V246.386C462.667 245.136 462.706 243.883 462.706 242.625ZM462.591 246.385V259.51C461.941 270.357 458.614 280.875 455.11 291.399C451.851 301.166 449.267 311.108 446.565 321.005C446.332 321.855 446.225 322.735 446.172 323.647V310.521C446.226 309.609 446.332 308.73 446.565 307.879C449.266 297.983 451.85 288.041 455.11 278.274C458.614 267.75 461.941 257.232 462.591 246.385Z" fill="#2AA1BF"/>
<path d="M446.174 310.523V323.649C446.1 324.892 446.12 326.198 446.036 327.586V314.461C446.119 313.073 446.1 311.766 446.174 310.523ZM446.036 314.46V327.585C446.03 327.693 446.023 327.801 446.016 327.908V314.783C446.023 314.676 446.03 314.568 446.036 314.46Z" fill="#2AA1BF"/>
<path d="M442.725 345.966C434.732 345.592 428.803 341.592 427.09 335.195C427.085 330.82 427.085 326.445 427.09 322.07C428.802 328.467 434.731 332.467 442.725 332.84V345.966Z" fill="#2AA1BF"/>
<path d="M443.068 332.855V345.981C434.387 345.69 428.07 341.163 426.813 333.946C426.314 331.056 426.06 328.129 426.055 325.196V311.852V312.071C426.061 315.004 426.315 317.931 426.813 320.821C428.07 328.038 434.387 332.564 443.068 332.855Z" fill="#2AA1BF"/>
<path d="M532.798 343.036C532.167 342.855 531.534 342.683 530.899 342.519C530.879 338.141 530.875 333.762 530.852 329.383C531.505 329.551 532.154 329.725 532.797 329.91C542.548 332.703 547.687 338.775 547.693 346.072V359.197C547.687 351.9 542.549 345.829 532.798 343.036Z" fill="#2AA1BF"/>
<path d="M547.692 346.064V359.189C547.684 351.892 542.547 345.82 532.795 343.027C525.274 340.873 517.141 339.842 509.193 339.372C506.314 339.206 503.431 339.121 500.547 339.118C491.133 339.142 481.946 339.962 472.883 341.202V328.077C481.948 326.837 491.133 326.017 500.547 325.992C503.196 325.993 505.853 326.062 509.193 326.247C517.141 326.718 525.274 327.748 532.795 329.901C542.547 332.695 547.684 338.766 547.692 346.064Z" fill="#2AA1BF"/>
<path d="M567.864 345.945V359.072C567.864 363.101 567.038 367.229 565.475 371.426C565.181 372.211 565.023 372.907 565.023 373.57V360.445C565.023 359.782 565.182 359.086 565.475 358.301C567.039 354.101 567.864 349.973 567.864 345.945Z" fill="#2AA1BF"/>
<path d="M567.868 345.945V359.071C567.868 359.678 567.85 360.289 567.812 360.899V347.774C567.85 347.165 567.868 346.555 567.868 345.945Z" fill="#2AA1BF"/>
<path d="M567.809 347.773V360.899C567.601 364.344 566.803 367.858 565.477 371.426C565.223 372.108 565.07 372.723 565.035 373.306V360.181C565.07 359.596 565.223 358.983 565.477 358.3C566.803 354.736 567.6 351.221 567.809 347.773ZM565.034 360.182V373.307C565.027 373.394 565.023 373.482 565.023 373.569V360.444C565.024 360.357 565.027 360.271 565.034 360.182Z" fill="#2AA1BF"/>
<path d="M547.691 346.07V359.195C547.694 362.394 546.711 365.826 544.701 369.325C543.098 372.114 542.246 374.042 542.234 375.778V362.653C542.248 360.916 543.098 358.988 544.701 356.197C546.712 352.702 547.694 349.268 547.691 346.07Z" fill="#2AA1BF"/>
<path d="M547.691 346.07V359.195C547.691 359.515 547.682 359.837 547.662 360.161V347.036C547.682 346.712 547.691 346.39 547.691 346.07ZM547.662 347.036V360.161C547.487 363.081 546.512 366.177 544.702 369.325C543.189 371.957 542.346 373.824 542.245 375.484V362.359C542.346 360.699 543.189 358.832 544.702 356.2C546.512 353.051 547.487 349.955 547.662 347.036ZM542.245 362.357V375.482C542.238 375.581 542.235 375.679 542.234 375.778V362.653C542.235 362.555 542.239 362.457 542.245 362.357Z" fill="#2AA1BF"/>
<path d="M333.012 380.127C332.946 380.625 332.913 381.126 332.914 381.629V368.503C332.914 368 332.944 367.499 333.012 367.002C333.539 363.204 334.88 359.351 336.712 355.859C339.863 349.857 344.384 344.668 350.133 340.159C351.578 339.023 352.987 337.842 354.357 336.617C354.388 343.205 354.388 343.205 353.313 350.661C352.275 351.561 351.214 352.436 350.133 353.284C344.384 357.793 339.863 362.982 336.712 368.984C334.879 372.476 333.54 376.329 333.012 380.127Z" fill="#2AA1BF"/>
<path d="M364.086 326.562V339.688C359.949 344.562 355.384 349.156 350.134 353.279C347.179 355.595 344.551 358.09 342.266 360.783V347.658C344.552 344.964 347.18 342.469 350.134 340.154C355.384 336.031 359.949 331.438 364.086 326.562ZM342.263 347.658V360.783C340.1 363.333 338.244 366.057 336.713 368.977C334.88 372.469 333.54 376.323 333.013 380.119C332.977 380.38 332.952 380.642 332.937 380.904V367.779C332.952 367.517 332.977 367.255 333.013 366.994C333.541 363.196 334.881 359.345 336.713 355.852C338.244 352.934 340.1 350.208 342.263 347.658ZM332.937 367.78V380.906C332.921 381.144 332.914 381.385 332.914 381.624V368.497C332.914 368.258 332.92 368.018 332.937 367.78Z" fill="#2AA1BF"/>
<path d="M546.558 382.911C543.595 379.91 542.219 378.004 542.235 375.773V362.648C542.219 364.878 543.595 366.785 546.558 369.785C551.432 374.733 553.915 379.709 553.937 384.668V397.793C553.915 392.834 551.432 387.859 546.558 382.911Z" fill="#2AA1BF"/>
<path d="M553.937 384.669V397.794C553.913 392.834 551.432 387.858 546.558 382.911C543.595 379.91 542.219 378.004 542.235 375.773V362.648C542.219 364.878 543.595 366.785 546.558 369.785C551.432 374.733 553.915 379.71 553.937 384.669Z" fill="#2AA1BF"/>
<path d="M574.256 384.68V397.805C574.256 404.987 571.624 412.179 566.344 418.882V405.757C571.624 399.055 574.256 391.863 574.256 384.68Z" fill="#2AA1BF"/>
<path d="M574.255 384.68V397.805C574.255 398.402 574.238 398.995 574.203 399.589V386.464C574.238 385.87 574.255 385.276 574.255 384.68Z" fill="#2AA1BF"/>
<path d="M574.205 386.469V399.594C573.804 406.181 571.188 412.739 566.344 418.889V405.764C571.188 399.614 573.804 393.055 574.205 386.469Z" fill="#2AA1BF"/>
<path d="M553.939 384.672V397.797C553.962 402.757 551.522 407.696 546.553 412.572C543.699 415.378 542.216 418.078 542.235 421.074V407.949C542.217 404.953 543.699 402.253 546.553 399.448C551.522 394.572 553.962 389.631 553.939 384.672Z" fill="#2AA1BF"/>
<path d="M553.941 384.672V397.797C553.944 398.12 553.935 398.444 553.915 398.768V385.643C553.935 385.319 553.944 384.996 553.941 384.672ZM553.915 385.643V398.768C553.683 402.601 551.978 406.422 548.763 410.21V397.084C551.976 393.297 553.683 389.475 553.915 385.643ZM548.763 397.084V410.21C548.064 411.032 547.328 411.819 546.555 412.572C546.067 413.051 545.6 413.55 545.156 414.07V400.945C545.6 400.426 546.067 399.926 546.555 399.447C547.326 398.693 548.063 397.905 548.763 397.084Z" fill="#2AA1BF"/>
<path d="M545.155 400.945V414.07C543.373 416.17 542.386 418.252 542.251 420.484V407.359C542.386 405.125 543.373 403.043 545.155 400.945ZM542.251 407.359V420.484C542.238 420.679 542.234 420.875 542.234 421.074V407.949C542.234 407.751 542.238 407.554 542.251 407.359Z" fill="#2AA1BF"/>
<path d="M564.531 423.473V410.347C564.531 408.77 565.085 407.355 566.341 405.758V418.884C565.085 420.48 564.531 421.895 564.531 423.473Z" fill="#2AA1BF"/>
<path d="M566.345 405.758V418.883C565.195 420.344 564.632 421.654 564.545 423.078V409.953C564.632 408.529 565.195 407.218 566.345 405.758ZM564.545 409.953V423.076C564.536 423.207 564.531 423.339 564.531 423.47V410.345C564.534 410.214 564.538 410.084 564.545 409.953Z" fill="#2AA1BF"/>
<path d="M543.915 426.871C542.795 424.772 542.245 422.869 542.234 421.07V407.945C542.246 409.743 542.797 411.647 543.915 413.745C544.846 415.488 545.547 417.236 546.018 418.975L545.983 431.969C545.511 430.275 544.824 428.571 543.915 426.871Z" fill="#2AA1BF"/>
<path d="M546.756 424.329V437.454C546.747 433.986 545.813 430.417 543.915 426.871C542.795 424.772 542.245 422.869 542.234 421.07V407.945C542.246 409.743 542.797 411.647 543.915 413.745C545.813 417.293 546.747 420.861 546.756 424.329Z" fill="#2AA1BF"/>
<path d="M546.76 424.336V437.461C546.779 444.562 542.912 451.241 535.462 456.456C531.157 459.467 528.953 462.563 528.953 466.811V453.686C528.953 449.438 531.158 446.342 535.462 443.331C542.912 438.116 546.778 431.437 546.76 424.336Z" fill="#2AA1BF"/>
<path d="M546.754 424.336V437.461C546.754 437.866 546.743 438.271 546.72 438.675V425.55C546.743 425.145 546.754 424.74 546.754 424.336ZM546.72 425.55V438.675C546.455 443.064 544.69 447.267 541.498 451.032V437.907C544.689 434.143 546.455 429.939 546.72 425.55ZM541.497 437.909V451.034C539.856 452.97 537.838 454.788 535.455 456.457C533.859 457.574 532.551 458.702 531.536 459.897V446.772C532.551 445.577 533.859 444.446 535.455 443.332C537.84 441.661 539.858 439.843 541.497 437.909ZM531.536 446.772V459.897C529.971 461.743 529.109 463.746 528.966 466.106V452.981C529.109 450.621 529.971 448.617 531.536 446.772ZM528.966 452.981V466.106C528.951 466.338 528.945 466.573 528.945 466.811V453.686C528.947 453.447 528.953 453.212 528.966 452.981Z" fill="#2AA1BF"/>
<path d="M566.88 424.898V438.023C566.88 447.854 562.706 456.875 554.381 464.88C551.366 467.776 550.086 470.336 550.086 474.305V472.991V472.334V471.022V469.709V469.051V467.74V466.426V465.769V464.457V463.144V462.487V461.174C550.086 457.207 551.366 454.647 554.381 451.75C562.708 443.751 566.88 434.73 566.88 424.898Z" fill="#2AA1BF"/>
<path d="M566.883 424.898V438.023C566.883 438.721 566.862 439.413 566.82 440.101V426.976C566.863 426.288 566.883 425.595 566.883 424.898Z" fill="#2AA1BF"/>
<path d="M566.818 426.977V440.102C566.359 447.637 563.391 454.671 557.927 461.116V447.99C563.393 441.547 566.359 434.511 566.818 426.977ZM557.927 447.99V461.117C556.81 462.431 555.627 463.687 554.382 464.88C553.867 465.37 553.378 465.886 552.916 466.426V453.301C553.377 452.761 553.867 452.245 554.382 451.755C555.627 450.562 556.81 449.304 557.927 447.99ZM552.916 453.301V466.426C551.153 468.501 550.28 470.567 550.114 473.308V460.183C550.279 457.441 551.154 455.378 552.916 453.301ZM550.114 460.183V473.308C550.096 473.63 550.086 473.962 550.086 474.304V461.179C550.086 460.837 550.097 460.505 550.114 460.183Z" fill="#2AA1BF"/>
<path d="M417.521 215.672C418.591 215.715 418.906 215.749 419.245 215.794C433.452 218.051 441.05 225.655 442.152 237.884C442.282 239.337 442.348 240.779 442.352 242.214C442.386 252.259 439.503 261.89 436.056 271.451C431.961 282.82 427.6 294.154 426.354 306.075C426.145 308.066 426.045 310.066 426.052 312.068C426.064 315.004 426.31 317.948 426.81 320.819C428.067 328.037 434.384 332.563 442.177 332.841C444.42 332.846 445.813 332.71 447.231 332.44L448.377 332.222C465.437 328.985 482.574 326.041 500.031 325.995C503.193 325.995 505.849 326.065 508.515 326.21C517.138 326.719 525.271 327.748 532.793 329.904C542.545 332.696 547.683 338.768 547.689 346.066C547.692 349.264 546.71 352.697 544.699 356.194C543.097 358.984 542.245 360.915 542.234 362.65C542.218 364.88 543.595 366.787 546.558 369.787C551.433 374.736 553.915 379.712 553.936 384.672C553.959 389.631 551.519 394.571 546.55 399.448C543.695 402.253 542.213 404.953 542.231 407.949C542.243 409.748 542.794 411.652 543.912 413.75C545.81 417.296 546.744 420.863 546.753 424.333C546.771 431.435 542.904 438.115 535.454 443.328C531.149 446.338 528.945 449.435 528.945 453.683C528.945 454.765 529.089 455.922 529.377 457.171C529.799 459.003 530.006 460.763 530 462.449C529.976 471.047 524.478 477.776 514.289 482.542C503.72 487.48 492.207 490.152 480.426 490.222C474.832 490.25 469.239 490.266 463.645 490.269C440.712 490.265 418.475 490.003 396.266 489.309L393.713 489.228C374.174 488.587 354.692 486.431 335.186 484.951C334.737 484.918 334.288 484.822 333.894 484.76C333.894 467.857 333.902 451.023 333.902 434.226C333.902 415.188 333.892 396.197 333.856 377.209C333.848 374.332 332.927 371.407 332.914 368.566C332.912 368.042 332.94 367.519 333.012 366.999C333.539 363.2 334.88 359.347 336.713 355.854C339.863 349.853 344.384 344.664 350.132 340.155C361.495 331.235 369.638 320.112 377.189 308.709C391.838 286.612 403.704 263.376 413.888 239.493C414.441 238.203 414.56 236.77 414.559 235.303C414.559 234.147 414.484 232.968 414.485 231.819C414.612 227.135 414.431 223.097 414.746 219.094C414.947 216.611 415.588 215.713 417.521 215.672Z" fill="#ACDCE7"/>
<path d="M480.423 490.221V503.346C474.829 503.376 469.236 503.392 463.643 503.393C440.709 503.39 418.471 503.127 396.262 502.433L393.709 502.352C374.171 501.71 354.689 499.554 335.183 498.075C334.733 498.04 334.284 497.946 333.891 497.883V484.758C334.284 484.82 334.734 484.915 335.183 484.95C354.688 486.43 374.171 488.583 393.709 489.226L396.262 489.307C418.471 490.003 440.709 490.266 463.643 490.268C466.306 490.268 468.969 490.263 471.634 490.255C474.563 490.249 477.495 490.236 480.423 490.221Z" fill="#2AA1BF"/>
<path d="M480.423 490.221V503.346C474.829 503.376 469.236 503.392 463.643 503.393C440.709 503.39 418.471 503.127 396.262 502.433L393.709 502.352C374.171 501.71 354.689 499.554 335.183 498.075C334.733 498.04 334.284 497.946 333.891 497.883V484.758C334.284 484.82 334.734 484.915 335.183 484.95C354.688 486.43 374.171 488.583 393.709 489.226L396.262 489.307C418.471 490.003 440.709 490.266 463.643 490.268C466.306 490.268 468.969 490.263 471.634 490.255C474.563 490.249 477.495 490.236 480.423 490.221Z" fill="#2AA1BF"/>
<path d="M566.339 405.761C564.378 408.25 564.128 410.301 565.024 413.214C569.472 427.646 565.907 440.678 554.378 451.761C551.292 454.726 550.024 457.34 550.085 461.473C550.346 477.486 541.249 489.112 525.62 497.053C511.75 504.102 496.41 507.289 480.573 507.88C471.123 508.227 461.668 508.397 452.212 508.391C429.377 508.391 406.549 507.482 383.758 506.252C363.755 505.175 343.839 503.026 323.877 501.457C321.442 501.421 319.83 501.693 318.609 502.288C313.379 504.832 307.805 506.047 301.889 506.067C293.704 506.1 285.515 506.133 277.332 506.133C270.935 506.133 264.541 506.115 258.144 506.06C242.544 505.938 230.991 498.375 226.943 485.633C226.093 482.953 225.81 480.054 225.802 477.257C225.731 443.317 225.731 409.372 225.763 375.429C225.785 358.045 238.999 346.656 259.122 346.607C260.542 346.605 261.964 346.605 263.384 346.605C266.814 346.605 270.246 346.609 273.682 346.614C276.972 346.615 280.266 346.62 283.558 346.62C287.893 346.62 292.23 346.614 296.567 346.587C297.25 346.582 297.934 346.579 298.618 346.579C305.056 346.579 311.421 346.879 317.467 349.814C321.717 342.346 326.411 335.321 333.438 329.906C340.847 324.198 347.375 317.842 352.18 310.443C361.465 296.121 370.45 281.634 378.907 266.937C384.146 257.84 388.359 248.285 392.632 238.798C393.838 236.124 393.703 232.973 394.043 230.027C394.745 223.931 394.689 217.704 396.185 211.765C397.964 204.657 403.745 200.171 411.911 198.172H420.307C426.779 200.034 433.71 201.153 439.632 203.893C453.947 210.529 460.531 221.843 462.256 235.443C464.129 250.235 459.774 264.25 455.106 278.272C451.847 288.039 449.263 297.981 446.562 307.878C445.988 309.979 446.19 312.243 446.01 314.779C453.578 313.551 460.61 312.228 467.706 311.281C479.553 309.699 491.415 308.493 503.282 308.493C512.281 308.493 521.28 309.186 530.28 310.934C542.149 313.238 552.835 317.569 560.262 326.353C568.538 336.14 569.697 346.957 565.475 358.298C564.721 360.316 564.863 361.743 566.279 363.536C576.868 376.904 576.931 392.311 566.339 405.761ZM546.549 399.451C551.518 394.574 553.957 389.635 553.936 384.675C553.913 379.715 551.432 374.74 546.557 369.792C543.595 366.792 542.218 364.885 542.234 362.655C542.245 360.919 543.096 358.99 544.699 356.198C546.71 352.701 547.692 349.268 547.689 346.071C547.681 338.773 542.544 332.702 532.793 329.909C525.271 327.754 517.138 326.724 509.19 326.254C506.311 326.088 503.428 326.004 500.544 326C482.573 326.047 465.437 328.993 448.378 332.229C447.996 332.3 447.614 332.374 447.233 332.446C445.86 332.711 444.465 332.849 443.067 332.858C434.386 332.568 428.068 328.041 426.812 320.824C426.313 317.934 426.059 315.007 426.054 312.074C426.045 310.072 426.146 308.071 426.356 306.08C427.601 294.159 431.962 282.824 436.056 271.456C439.503 261.895 442.387 252.264 442.353 242.22C442.349 240.774 442.282 239.329 442.152 237.889C441.05 225.66 433.45 218.057 420 215.909C418.907 215.754 418.589 215.721 418.299 215.7C415.587 215.718 414.946 216.617 414.748 219.101C414.433 223.104 414.613 227.143 414.496 231.165C414.486 232.973 414.562 234.152 414.563 235.309C414.563 236.777 414.443 238.209 413.891 239.499C403.708 263.383 391.84 286.618 377.194 308.715C369.642 320.118 361.498 331.242 350.135 340.162C344.387 344.671 339.866 349.86 336.714 355.862C334.881 359.354 333.54 363.207 333.014 367.005C332.943 367.525 332.914 368.047 332.916 368.573C332.928 371.415 333.849 374.34 333.856 377.216C333.894 396.204 333.903 415.195 333.903 434.231C333.903 451.03 333.896 467.864 333.896 484.765C334.289 484.828 334.739 484.925 335.187 484.957C354.692 486.437 374.175 488.592 393.714 489.234L396.267 489.315C418.477 490.01 440.714 490.273 462.944 490.275C468.771 490.277 474.599 490.261 480.426 490.228C492.207 490.16 503.718 487.486 514.29 482.548C524.48 477.782 529.976 471.052 529.999 462.455C530.006 460.768 529.798 459.011 529.377 457.178C529.089 455.926 528.946 454.771 528.946 453.689C528.946 449.44 531.151 446.346 535.454 443.333C542.906 438.117 546.772 431.439 546.753 424.339C546.744 420.871 545.811 417.3 543.913 413.754C542.794 411.657 542.243 409.754 542.231 407.954C542.211 404.957 543.696 402.257 546.549 399.451ZM313.679 477.328C313.691 460.317 313.696 443.304 313.696 426.292C313.696 409.279 313.689 392.264 313.679 375.25C313.671 367.68 309.545 364.092 300.842 364.07C286.852 364.036 272.861 364.036 258.87 364.07C250.137 364.091 246.026 367.665 246.026 375.208C246.017 383.689 246.016 392.168 246.016 400.65L246.017 426.098C246.017 434.729 246.01 443.361 246.01 451.993C246.01 460.627 246.014 469.262 246.033 477.895C246.042 484.762 250.46 488.5 258.436 488.507C265.492 488.509 272.547 488.513 279.599 488.513C286.654 488.513 293.708 488.509 300.765 488.5C309.41 488.486 313.67 484.844 313.679 477.328Z" fill="#39B5E1"/>
<path d="M279.855 364.039C286.851 364.039 293.845 364.049 300.841 364.065C309.544 364.086 313.67 367.673 313.678 375.244C313.7 409.271 313.7 443.297 313.678 477.324C313.67 484.839 309.41 488.482 300.761 488.497C293.707 488.506 286.652 488.51 279.598 488.51C272.544 488.51 265.49 488.506 258.434 488.503C250.458 488.497 246.04 484.759 246.031 477.893C246.012 469.257 246.008 460.624 246.008 451.989C246.009 443.357 246.015 434.725 246.015 426.094L246.014 400.645C246.014 392.164 246.015 383.684 246.023 375.203C246.023 367.661 250.134 364.086 258.866 364.065C265.866 364.048 272.859 364.039 279.855 364.039Z" fill="#8BD1E6"/>
<path d="M225.742 429.209V416.305C225.742 436.624 225.76 456.943 225.803 477.259C225.812 480.056 226.095 482.954 226.945 485.635C230.992 498.375 242.545 505.938 258.145 506.061C264.542 506.116 270.935 506.135 277.333 506.135C285.516 506.135 293.706 506.103 301.891 506.069C307.806 506.048 313.38 504.833 318.61 502.29C319.831 501.694 321.444 501.422 323.878 501.458V514.583C321.444 514.548 319.831 514.82 318.61 515.415C313.38 517.958 307.806 519.173 301.891 519.194C293.705 519.233 285.519 519.255 277.333 519.261C270.936 519.261 264.542 519.242 258.145 519.186C242.545 519.065 230.993 511.501 226.945 498.76C226.095 496.08 225.812 493.18 225.803 490.384C225.759 469.994 225.742 449.601 225.742 429.209Z" fill="#2AA1BF"/>
<path d="M323.879 501.456V514.581C322.785 514.565 321.855 514.61 321.055 514.72V501.595C321.856 501.485 322.785 501.44 323.879 501.456Z" fill="#2AA1BF"/>
<path d="M321.06 501.594V514.719C320.353 514.817 319.743 514.964 319.208 515.159V502.033C319.808 501.821 320.429 501.673 321.06 501.594ZM319.207 502.033V515.159C319.005 515.233 318.807 515.317 318.614 515.41C317.494 515.954 316.348 516.443 315.18 516.872V503.747C316.348 503.317 317.494 502.829 318.614 502.285C318.802 502.195 318.999 502.11 319.207 502.033Z" fill="#2AA1BF"/>
<path d="M315.178 503.748V516.873C312.642 517.803 310.012 518.454 307.334 518.816V505.69C310.012 505.329 312.642 504.677 315.178 503.748ZM307.334 505.692V518.816C305.53 519.06 303.712 519.186 301.891 519.191C293.706 519.224 285.517 519.257 277.334 519.257C270.937 519.257 264.543 519.239 258.146 519.182C242.546 519.062 230.994 511.497 226.945 498.757C226.095 496.076 225.812 493.178 225.803 490.382C225.76 469.988 225.742 449.597 225.742 429.203V416.078C225.742 436.471 225.76 456.863 225.803 477.256C225.812 480.053 226.095 482.95 226.945 485.632C230.994 498.371 242.546 505.935 258.146 506.057C264.543 506.113 270.936 506.132 277.334 506.132C285.517 506.132 293.707 506.1 301.891 506.065C303.712 506.06 305.53 505.935 307.334 505.692Z" fill="#2AA1BF"/>
<path d="M550.096 462.141V475.27C550.096 490.942 541.039 502.356 525.626 510.184C511.756 517.232 496.416 520.419 480.579 521.01C471.129 521.357 461.674 521.528 452.218 521.522C429.383 521.522 406.555 520.613 383.764 519.382C363.761 518.305 343.845 516.156 323.883 514.588V501.463C343.846 503.031 363.761 505.178 383.764 506.257C406.555 507.488 429.382 508.396 452.218 508.396C461.67 508.396 471.128 508.238 480.579 507.885C496.416 507.292 511.756 504.107 525.626 497.059C541.038 489.226 550.096 477.812 550.096 462.141Z" fill="#2AA1BF"/>
<path d="M550.092 462.141V475.266C550.092 476.071 550.07 476.867 550.023 477.65V464.525C550.069 463.742 550.092 462.947 550.092 462.141ZM550.021 464.525V477.65C549.545 485.481 546.715 492.195 541.893 497.884V484.759C546.715 479.07 549.545 472.355 550.021 464.525ZM541.893 484.759V497.884C539.03 501.265 535.463 504.285 531.274 506.961V493.835C535.463 491.159 539.03 488.14 541.893 484.759ZM531.274 493.835V506.961C529.443 508.125 527.556 509.199 525.62 510.179C522.418 511.805 519.122 513.24 515.75 514.475V501.349C519.122 500.114 522.418 498.679 525.62 497.053C527.557 496.075 529.444 495.001 531.274 493.835Z" fill="#2AA1BF"/>
<path d="M515.754 501.352V514.478C508.606 517.103 501.156 518.861 493.521 519.905V506.78C501.158 505.736 508.606 503.978 515.754 501.352ZM493.521 506.78V519.905C489.228 520.485 484.908 520.853 480.579 521.009C471.129 521.356 461.674 521.526 452.218 521.52C429.383 521.52 406.555 520.612 383.764 519.382C363.761 518.303 343.845 516.156 323.883 514.586V501.461C343.846 503.031 363.761 505.178 383.764 506.257C406.555 507.486 429.382 508.394 452.218 508.394C461.67 508.394 471.128 508.238 480.579 507.884C484.937 507.721 489.259 507.362 493.521 506.78Z" fill="#2AA1BF"/>
</svg>
