<svg width="800" height="800" viewBox="0 0 800 800" fill="none" xmlns="http://www.w3.org/2000/svg">
<path d="M776.374 385.578V412.921C776.374 423.336 771.655 433.753 762.206 441.935C652.714 536.795 543.183 631.618 433.698 726.481C424.469 734.478 413.532 738.591 400.531 738.591V711.247C413.534 711.247 424.469 707.135 433.698 699.137C543.184 604.274 652.711 509.448 762.206 414.592C771.655 406.409 776.374 395.996 776.374 385.578Z" fill="#4E86B8"/>
<path d="M23.625 412.789V410.054V408.687V405.953V403.218V401.851V399.117V396.382V395.015V392.281V389.547V388.179V385.445C23.625 396.935 28.8602 408.346 38.4977 416.71C146.661 510.51 254.942 604.207 363.155 697.975C373.313 706.772 385.609 710.84 400.54 711.252V738.596C385.612 738.183 373.313 734.116 363.155 725.319C254.942 631.55 146.661 537.854 38.4977 444.054C28.8594 435.69 23.625 424.279 23.625 412.789Z" fill="#4E86B8"/>
<path d="M399.053 59.8438C411.759 59.8438 424.48 64.0329 434.167 72.4196C543.503 167.097 652.84 261.776 762.151 356.471C781.089 372.873 781.131 398.2 762.213 414.594C652.72 509.453 543.189 604.278 433.706 699.138C424.475 707.137 413.539 711.249 400.54 711.249C385.611 710.837 373.312 706.769 363.154 697.972C254.942 604.204 146.661 510.507 38.4977 416.707C23.2001 403.435 18.9977 382.48 29.2047 365.729C32.2665 360.7 35.9774 356.488 40.5055 352.566C148.403 259.166 256.27 165.743 364.148 72.3172C373.754 64.0047 386.396 59.8438 399.053 59.8438Z" fill="#3BBDE5"/>
<path d="M400.242 266.057V266.023V265.988V265.952V265.917V265.882V265.848V265.816V265.784V264.283V262.691V261.04V259.358V257.676V256.026V254.433V252.931L400.323 252.93V266.055L400.242 266.057Z" fill="#2E7D9B"/>
<path d="M400.324 252.93V266.055C399.744 266.066 399.184 266.11 398.641 266.184V253.059C399.184 252.985 399.745 252.941 400.324 252.93Z" fill="#2E7D9B"/>
<path d="M400.963 266.096C400.751 266.078 400.54 266.064 400.328 266.055V252.93C400.538 252.939 400.748 252.952 400.963 252.971V266.096Z" fill="#2E7D9B"/>
<path d="M409.944 281.311V294.436C409.944 287.625 409.94 280.814 409.922 274C409.905 269.486 406.158 266.56 400.974 266.095C400.759 266.077 400.544 266.063 400.328 266.055V252.93C400.542 252.938 400.759 252.952 400.974 252.97C406.157 253.434 409.906 256.361 409.922 260.875C409.94 267.69 409.944 274.501 409.944 281.311Z" fill="#2E7D9B"/>
<path d="M391.578 270.083V269.312V268.497V267.652V266.79V265.928V265.083V264.268V263.497V262.73V261.92V261.079V260.221V259.368V258.527V257.721V256.958C393.339 254.563 396.395 253.028 400.243 252.938V266.062C396.395 266.153 393.341 267.687 391.578 270.083Z" fill="#2E7D9B"/>
<path d="M400.324 252.93V266.055C399.744 266.066 399.184 266.11 398.641 266.184V253.059C399.184 252.985 399.745 252.941 400.324 252.93Z" fill="#2E7D9B"/>
<path d="M398.639 253.062V266.188C397.752 266.306 396.88 266.52 396.039 266.826V253.702C396.88 253.396 397.752 253.182 398.639 253.062Z" fill="#2E7D9B"/>
<path d="M396.047 253.695V266.82C395.335 267.08 394.654 267.415 394.014 267.822V254.697C394.654 254.291 395.335 253.955 396.047 253.695ZM394.014 254.697V267.822C393.239 268.313 392.542 268.918 391.948 269.617V256.492C392.542 255.793 393.239 255.188 394.014 254.697ZM391.948 256.492V269.617C390.766 271.014 390.057 272.75 389.938 274.69V261.565C390.057 259.625 390.766 257.889 391.948 256.492Z" fill="#2E7D9B"/>
<path d="M391.584 270.078C390.542 271.496 389.955 273.215 389.922 275.116V261.991C389.955 260.091 390.542 258.371 391.584 256.953V270.078Z" fill="#2E7D9B"/>
<path d="M391.948 256.492V269.617C390.766 271.014 390.057 272.75 389.938 274.69V261.565C390.057 259.625 390.766 257.889 391.948 256.492Z" fill="#2E7D9B"/>
<path d="M389.938 261.562V274.688C389.93 274.826 389.924 274.969 389.922 275.111V261.986C389.924 261.844 389.93 261.701 389.938 261.562Z" fill="#2E7D9B"/>
<path d="M400.961 266.095V266.06V266.026V265.99V265.955V265.92V265.887V265.854V265.823V264.322V262.729V261.078V259.396V257.714V256.062V254.47V252.969H400.974C406.157 253.433 409.906 256.36 409.922 260.873C409.941 267.688 409.944 274.499 409.944 281.311V294.436C409.944 287.625 409.94 280.813 409.922 273.999C409.905 269.485 406.158 266.56 400.974 266.095H400.961Z" fill="#2E7D9B"/>
<path d="M409.944 281.311V294.436C409.944 287.625 409.94 280.814 409.922 274C409.905 269.486 406.158 266.56 400.974 266.095C400.759 266.077 400.544 266.063 400.328 266.055V252.93C400.542 252.938 400.759 252.952 400.974 252.97C406.157 253.434 409.906 256.361 409.922 260.875C409.94 267.69 409.944 274.501 409.944 281.311Z" fill="#2E7D9B"/>
<path d="M409.944 283V296.125C409.943 303.499 409.938 310.872 409.938 318.244V305.119C409.938 297.747 409.943 290.374 409.944 283Z" fill="#2E7D9B"/>
<path d="M409.944 283V296.125C409.943 303.499 409.938 310.872 409.938 318.244V305.119C409.938 297.747 409.943 290.374 409.944 283Z" fill="#2E7D9B"/>
<path d="M390.091 317.687V330.812C390.091 312.329 390.056 293.845 389.914 275.359V262.234C390.055 280.72 390.091 299.204 390.091 317.687Z" fill="#2E7D9B"/>
<path d="M390.091 317.687V330.812C390.091 312.329 390.056 293.845 389.914 275.359V262.234C390.055 280.72 390.091 299.204 390.091 317.687Z" fill="#2E7D9B"/>
<path d="M390.09 330.812C390.09 349.296 390.055 367.781 390.055 386.267V373.142C390.055 354.656 390.09 336.173 390.09 317.688V330.812Z" fill="#2E7D9B"/>
<path d="M390.09 317.688V330.812C390.09 349.298 390.055 367.78 390.055 386.266V373.141C390.055 354.656 390.09 336.173 390.09 317.688Z" fill="#2E7D9B"/>
<path d="M399.964 252.782C309.159 253.128 237.384 315.399 237.18 393.463V380.338C237.384 302.274 309.157 240.002 399.964 239.656V252.782Z" fill="#2E7D9B"/>
<path d="M563.102 380.683V393.808C561.81 315.436 490.675 252.875 400.198 252.781C391.547 252.799 382.907 253.393 374.334 254.559V241.434C382.907 240.268 391.547 239.674 400.198 239.656C490.675 239.75 561.81 302.308 563.102 380.683ZM374.334 241.434V254.559C360.837 256.401 347.923 259.64 335.793 264.097V250.972C347.923 246.515 360.837 243.276 374.334 241.434ZM335.793 250.972V264.097C324.023 268.422 312.991 273.895 302.877 280.36V267.235C312.991 260.771 324.024 255.297 335.793 250.972ZM302.877 267.235V280.36C289.782 288.729 278.226 298.756 268.603 310.096V296.971C278.226 285.631 289.782 275.604 302.877 267.235ZM268.603 296.971V310.096C250.466 331.471 239.197 357.508 237.426 385.897V372.772C239.196 344.383 250.466 318.345 268.603 296.971ZM237.426 372.772V385.897C237.268 388.415 237.186 390.938 237.18 393.461V380.336C237.186 377.797 237.269 375.276 237.426 372.772Z" fill="#2E7D9B"/>
<path d="M400.205 252.781L399.969 252.782V251.246V249.62V247.933V246.216V244.499V242.812V241.188V239.657L400.205 239.656C490.681 239.752 561.816 302.31 563.108 380.684V393.809C561.816 315.436 490.68 252.877 400.205 252.781Z" fill="#2E7D9B"/>
<path d="M563.103 380.683V393.808C561.812 315.436 490.677 252.875 400.2 252.781C391.549 252.799 382.908 253.393 374.336 254.559V241.434C382.908 240.268 391.549 239.674 400.2 239.656C490.677 239.75 561.812 302.308 563.103 380.683Z" fill="#2E7D9B"/>
<path d="M390.058 377.023V390.148H305.117C298.281 390.157 294.321 393.327 294.289 398.804V385.679C294.321 380.203 298.281 377.032 305.117 377.024H385.6L390.058 377.023Z" fill="#2E7D9B"/>
<path d="M390.059 377.023V390.148H305.119C304.269 390.146 303.42 390.203 302.578 390.315V377.19C303.42 377.077 304.269 377.021 305.119 377.023H390.059Z" fill="#2E7D9B"/>
<path d="M302.576 377.188V390.312C301.543 390.451 300.595 390.679 299.742 390.993V377.868C300.659 377.539 301.609 377.311 302.576 377.188Z" fill="#2E7D9B"/>
<path d="M299.743 377.875V391C299.053 391.254 298.424 391.562 297.859 391.925V378.8C298.424 378.438 299.054 378.129 299.743 377.875ZM297.859 378.8V391.925C297.203 392.339 296.613 392.85 296.109 393.44V380.315C296.613 379.725 297.203 379.214 297.859 378.8Z" fill="#2E7D9B"/>
<path d="M296.11 380.312V393.438C295.042 394.701 294.424 396.302 294.31 398.204V385.079C294.424 383.176 295.042 381.577 296.11 380.312ZM294.309 385.079V398.204C294.298 398.4 294.291 398.601 294.289 398.806V385.681C294.29 385.477 294.298 385.276 294.309 385.079Z" fill="#2E7D9B"/>
<path d="M399.603 252.922C400.538 252.937 400.755 252.95 400.971 252.969C406.153 253.432 409.903 256.358 409.918 260.874C409.939 268.25 409.942 275.624 409.94 282.997C409.939 290.371 409.934 297.743 409.934 305.116C409.934 325.193 409.938 345.268 409.936 365.345C409.936 372.038 409.935 378.728 409.934 385.42C409.934 391.647 406.484 394.607 399.246 394.607H305.125C298.124 394.607 294.258 391.409 294.289 385.679C294.321 380.203 298.281 377.031 305.117 377.024H390.057V373.143C390.057 354.657 390.092 336.174 390.092 317.69C390.092 299.207 390.057 280.723 389.915 262.237C390.005 256.852 394.156 253.043 399.603 252.922Z" fill="#65ABD3"/>
<path d="M409.934 385.422V398.547C409.934 404.775 406.484 407.734 399.246 407.734H305.125C298.124 407.734 294.258 404.536 294.289 398.808V385.683C294.258 391.412 298.124 394.611 305.125 394.611H399.248C406.484 394.61 409.934 391.65 409.934 385.422Z" fill="#2E7D9B"/>
<path d="M409.934 385.422V398.547C409.934 398.867 409.924 399.175 409.908 399.478V386.353C409.924 386.051 409.934 385.743 409.934 385.422ZM409.907 386.352V399.477C409.777 401.66 409.169 403.397 408.07 404.703V391.578C409.168 390.272 409.776 388.536 409.907 386.352ZM408.07 391.579V404.703C407.616 405.239 407.083 405.704 406.49 406.081V392.956C407.083 392.579 407.615 392.115 408.07 391.579ZM406.49 392.954V406.079C405.959 406.417 405.392 406.696 404.799 406.91V393.785C405.391 393.57 405.958 393.292 406.49 392.954ZM404.799 393.785V406.91C403.992 407.206 403.086 407.421 402.081 407.558V394.433C403.085 394.297 403.99 394.08 404.799 393.785ZM402.081 394.433V407.558C401.142 407.68 400.194 407.739 399.246 407.735H305.125C298.124 407.735 294.258 404.537 294.289 398.809V385.684C294.258 391.413 298.124 394.611 305.125 394.611H399.246C400.194 394.614 401.142 394.555 402.081 394.433Z" fill="#2E7D9B"/>
<path d="M563.104 380.691V393.816C561.792 472.126 490.725 534.635 400.352 534.798C309.206 534.705 236.968 471.974 237.18 393.469V380.344C236.968 458.848 309.205 521.578 400.352 521.672C490.725 521.509 561.793 459 563.104 380.691Z" fill="#2E7D9B"/>
<path d="M563.104 380.688V393.812C563.069 395.804 562.991 397.796 562.867 399.784V386.659C562.993 384.68 563.07 382.688 563.104 380.688Z" fill="#2E7D9B"/>
<path d="M562.87 386.656V399.781C561.046 428.957 549.512 455.722 530.96 477.594V464.469C549.512 442.597 561.046 415.831 562.87 386.656ZM530.96 464.467V477.592C521.259 489.032 509.637 499.13 496.48 507.536V494.411C509.637 486.006 521.259 475.907 530.96 464.467ZM496.48 494.411V507.536C486.447 513.945 475.522 519.372 463.874 523.652V510.527C475.522 506.247 486.447 500.819 496.48 494.411ZM463.874 510.527V523.652C451.927 528.045 439.217 531.232 425.938 533.045V519.92C439.217 518.106 451.927 514.918 463.874 510.527Z" fill="#2E7D9B"/>
<path d="M425.936 519.925V533.05C417.457 534.204 408.91 534.787 400.352 534.798C309.206 534.704 236.968 471.973 237.18 393.469V380.344C236.968 458.847 309.205 521.577 400.352 521.671C408.91 521.662 417.457 521.078 425.936 519.925Z" fill="#2E7D9B"/>
<path d="M577.202 359.017C577.957 364.002 578.549 369.002 579.217 373.995V387.326C578.305 393.709 577.658 400.129 576.447 406.469C570.58 437.268 555.122 464.071 530.434 486.713C501.548 513.208 466.165 529.107 424.38 534.228C416.029 535.258 407.623 535.778 399.209 535.784C384.259 535.784 369.441 534.108 354.79 530.688C308.925 519.98 273.236 497.052 247.872 462.277C234.47 443.911 226.082 423.875 222.799 402.296C222.042 397.316 221.451 392.318 220.789 387.325V373.994L221.428 370.44C223.17 360.808 223.949 350.954 226.83 341.584C239.116 301.605 265.841 270.582 306.304 248.6C327.354 237.171 350.302 230.008 374.99 227.2C380.746 226.544 386.527 226.034 392.298 225.453H407.7L411.82 226.006C422.946 227.52 434.32 228.202 445.139 230.698C491.184 241.303 526.935 264.368 552.317 299.272C565.619 317.572 573.95 337.534 577.202 359.017ZM399.795 521.665C490.736 521.507 561.793 458.996 563.106 380.683C561.815 302.309 490.68 239.75 400.203 239.654C309.285 239.895 237.388 302.206 237.183 380.337C236.971 458.841 309.209 521.57 399.795 521.665Z" fill="#65ABD3"/>
<path d="M399.465 239.656C490.677 239.751 561.813 302.309 563.104 380.683C561.792 458.992 490.725 521.501 400.352 521.664C309.206 521.57 236.968 458.84 237.18 380.337C237.385 302.211 309.29 239.903 399.465 239.656ZM409.938 365.341C409.94 345.266 409.936 325.189 409.936 305.112C409.936 297.741 409.941 290.369 409.942 282.994C409.943 275.621 409.94 268.248 409.92 260.87C409.904 256.355 406.156 253.43 400.972 252.966C400.757 252.947 400.542 252.933 400.326 252.925C394.158 253.039 390.007 256.847 389.92 261.984C390.06 280.719 390.095 299.204 390.095 317.687C390.095 336.172 390.06 354.655 390.06 373.141V377.02H305.12C298.284 377.028 294.324 380.199 294.292 385.676C294.261 391.405 298.127 394.603 305.128 394.603H399.249C406.487 394.603 409.937 391.644 409.937 385.416C409.936 378.725 409.938 372.033 409.938 365.341Z" fill="#B8E1F5"/>
<path d="M579.217 387.328V400.453C578.305 406.838 577.658 413.256 576.447 419.599C570.58 450.398 555.122 477.2 530.434 499.842C501.548 526.337 466.165 542.236 424.38 547.357C416.029 548.387 407.623 548.907 399.209 548.913C384.259 548.913 369.441 547.238 354.79 543.817C308.925 533.109 273.236 510.181 247.872 475.406C234.47 457.04 226.082 437.004 222.799 415.425C222.042 410.446 221.451 405.447 220.789 400.453V387.328C221.452 392.322 222.042 397.32 222.799 402.3C226.083 423.878 234.47 443.916 247.872 462.28C273.237 497.056 308.927 519.984 354.79 530.692C369.441 534.113 384.259 535.787 399.209 535.787C407.56 535.787 415.955 535.264 424.38 534.231C466.165 529.108 501.548 513.211 530.434 486.716C555.123 464.075 570.58 437.272 576.447 406.473C577.657 400.131 578.305 393.713 579.217 387.328Z" fill="#2E7D9B"/>
<path d="M579.212 387.328V400.453C578.3 406.838 577.652 413.256 576.441 419.599C571.831 443.798 561.299 465.528 545.023 484.715V471.59C561.299 452.403 571.83 430.673 576.441 406.473C577.652 400.131 578.3 393.713 579.212 387.328Z" fill="#2E7D9B"/>
<path d="M545.028 471.594V484.719C540.587 489.95 535.723 494.996 530.431 499.846C522.57 507.056 514.228 513.482 505.405 519.12V505.995C514.227 500.357 522.57 493.932 530.431 486.721C535.723 481.869 540.587 476.825 545.028 471.594ZM505.405 505.995V519.12C494.472 526.106 482.802 531.883 470.4 536.439V523.314C482.802 518.757 494.472 512.981 505.405 505.995ZM470.4 523.314V536.439C456.962 541.377 442.663 544.886 427.508 546.955V533.83C442.663 531.761 456.962 528.252 470.4 523.314Z" fill="#2E7D9B"/>
<path d="M427.509 533.825V546.95C426.47 547.092 425.427 547.227 424.38 547.356C416.028 548.387 407.621 548.907 399.206 548.913C384.259 548.913 369.44 547.238 354.789 543.817C308.924 533.109 273.235 510.181 247.871 475.406C234.47 457.04 226.081 437.004 222.798 415.424C222.041 410.445 221.45 405.447 220.789 400.453V387.328C221.45 392.322 222.041 397.32 222.798 402.299C226.082 423.877 234.469 443.916 247.871 462.28C273.236 497.056 308.926 519.984 354.789 530.692C369.441 534.113 384.259 535.787 399.206 535.787C407.559 535.787 415.955 535.263 424.38 534.231C425.427 534.101 426.47 533.967 427.509 533.825Z" fill="#2E7D9B"/>
</svg>
