<svg width="800" height="800" viewBox="0 0 800 800" fill="none" xmlns="http://www.w3.org/2000/svg">
<path d="M776.374 385.578V412.921C776.374 423.336 771.655 433.753 762.206 441.935C652.715 536.795 543.183 631.618 433.698 726.481C424.469 734.478 413.532 738.591 400.531 738.591V711.247C413.534 711.247 424.469 707.135 433.698 699.137C543.184 604.274 652.711 509.448 762.206 414.592C771.655 406.409 776.374 395.996 776.374 385.578Z" fill="#E9E693"/>
<path d="M23.625 412.789V410.054V408.687V405.953V403.218V401.851V399.117V396.382V395.015V392.281V389.547V388.179V385.445C23.625 396.935 28.8602 408.346 38.4977 416.71C146.661 510.51 254.942 604.207 363.155 697.975C373.313 706.772 385.609 710.84 400.541 711.252V738.596C385.612 738.183 373.313 734.116 363.155 725.319C254.942 631.55 146.661 537.854 38.4977 444.054C28.8594 435.69 23.625 424.279 23.625 412.789Z" fill="#E9E693"/>
<path d="M399.053 59.8438C411.759 59.8438 424.48 64.0328 434.167 72.4196C543.502 167.097 652.839 261.776 762.15 356.471C781.088 372.873 781.131 398.2 762.212 414.593C652.72 509.453 543.189 604.279 433.706 699.138C424.476 707.136 413.539 711.249 400.541 711.249C385.612 710.836 373.312 706.769 363.155 697.972C254.942 604.204 146.661 510.507 38.4977 416.707C23.2001 403.436 18.9977 382.48 29.2047 365.729C32.2665 360.7 35.9774 356.488 40.5055 352.566C148.403 259.166 256.27 165.743 364.148 72.3172C373.754 64.0047 386.396 59.8438 399.053 59.8438Z" fill="#F4F083"/>
<path d="M221.805 265.531V264.218V263.562V262.25V260.937V260.281V258.968V257.656V257V255.687V254.375V253.718V252.406C221.805 258.809 225.403 261.742 233.217 261.742C295.863 261.742 358.509 261.736 421.162 261.736C421.995 261.736 422.826 261.753 423.659 261.753C423.992 261.753 424.326 261.75 424.908 261.74V274.865C424.327 274.875 423.992 274.878 423.659 274.878C422.826 274.878 421.995 274.861 421.162 274.861C358.508 274.861 295.862 274.867 233.217 274.867C225.403 274.866 221.805 271.933 221.805 265.531Z" fill="#ABB0A9"/>
<path d="M424.908 261.739V274.864C424.492 274.873 424.076 274.877 423.659 274.878C422.827 274.878 421.995 274.86 421.162 274.86C358.508 274.86 295.863 274.867 233.218 274.867C225.403 274.867 221.805 271.934 221.805 265.531V252.406C221.805 258.807 225.403 261.741 233.218 261.741C295.864 261.741 358.508 261.734 421.162 261.734C421.995 261.734 422.827 261.752 423.659 261.752C423.994 261.753 424.327 261.749 424.908 261.739Z" fill="#ABB0A9"/>
<path d="M429.283 265.802V278.927C429.303 276.237 427.96 274.867 424.906 274.867V261.742C427.96 261.74 429.305 263.112 429.283 265.802Z" fill="#ABB0A9"/>
<path d="M429.283 265.802V278.927C429.303 276.237 427.96 274.867 424.906 274.867V261.742C427.96 261.74 429.305 263.112 429.283 265.802Z" fill="#ABB0A9"/>
<path d="M247.992 317.162C244.279 317.305 242.588 319.137 242.438 322.214V320.679V319.053V317.366V315.648V313.933V312.245V310.621V309.089C242.588 306.012 244.278 304.179 247.992 304.036C247.995 308.408 247.995 312.779 247.995 317.151V304.036C249.278 303.989 250.556 303.927 251.839 303.927C324.153 303.92 396.464 303.92 468.778 303.927L469.575 303.926V317.052L468.778 317.053C396.464 317.046 324.153 317.046 251.839 317.053C250.555 317.053 249.277 317.113 247.992 317.162Z" fill="#ABB0A9"/>
<path d="M478.095 310.695V323.821C478.095 323.308 478.085 322.798 478.051 322.29C477.799 318.764 476.649 317.666 472.608 317.182C472.236 317.138 471.862 317.107 471.487 317.089C470.952 317.064 470.417 317.051 469.881 317.051H468.772C396.459 317.045 324.145 317.045 251.832 317.051C250.548 317.051 249.273 317.112 247.989 317.162C247.643 317.175 247.312 317.202 247 317.244V304.12C247.312 304.077 247.641 304.049 247.989 304.036C249.273 303.989 250.548 303.926 251.832 303.926C324.145 303.92 396.459 303.92 468.772 303.926H469.881C470.417 303.926 470.952 303.938 471.487 303.964C471.862 303.984 472.237 304.013 472.608 304.057C476.648 304.541 477.798 305.639 478.051 309.165C478.086 309.673 478.095 310.185 478.095 310.695Z" fill="#ABB0A9"/>
<path d="M246.999 304.125V317.25C246.486 317.316 245.982 317.437 245.495 317.611V304.486C245.982 304.312 246.486 304.191 246.999 304.125ZM245.495 304.486V317.611C245.15 317.736 244.82 317.897 244.51 318.093V304.968C244.82 304.772 245.15 304.61 245.495 304.486ZM244.508 304.968V318.093C244.144 318.325 243.831 318.6 243.562 318.916V305.791C243.836 305.471 244.154 305.193 244.508 304.968Z" fill="#ABB0A9"/>
<path d="M243.57 305.789V318.914C242.883 319.727 242.517 320.804 242.441 322.114V308.989C242.517 307.681 242.883 306.601 243.57 305.789ZM242.439 308.989V322.114L242.43 322.224C242.386 323.233 242.365 324.242 242.367 325.252V312.127C242.367 311.118 242.382 310.101 242.43 309.099C242.434 309.061 242.436 309.025 242.439 308.989Z" fill="#ABB0A9"/>
<path d="M501.374 334.411C501.375 332.936 501.39 331.459 501.39 329.984C501.39 329.272 501.377 328.561 501.374 327.848C501.359 325.661 501.374 323.473 501.374 321.286C516.624 315.268 531.924 309.326 547.016 303.008V316.134C531.921 322.451 516.624 328.393 501.374 334.411Z" fill="#ABB0A9"/>
<path d="M547.514 302.812V315.939C547.346 316 547.179 316.063 547.011 316.134C531.905 322.457 516.596 328.403 501.335 334.426C500.85 334.617 500.436 334.815 500.086 335.038V321.913C500.433 321.691 500.849 321.492 501.335 321.301C516.596 315.279 531.905 309.332 547.011 303.01C547.18 302.939 547.347 302.874 547.514 302.812Z" fill="#ABB0A9"/>
<path d="M253.159 444.594V457.719C252.534 457.719 251.912 457.722 251.289 457.722V444.597C251.912 444.597 252.534 444.594 253.159 444.594Z" fill="#ABB0A9"/>
<path d="M253.159 444.594V457.719C252.534 457.719 251.912 457.722 251.289 457.722V444.597C251.912 444.597 252.534 444.594 253.159 444.594Z" fill="#ABB0A9"/>
<path d="M251.285 444.595V457.72C250.974 457.72 250.662 457.72 250.351 457.716C243.783 457.641 242.38 456.455 242.373 450.705C242.365 443.355 242.361 436.007 242.359 428.657V415.531C242.36 422.88 242.363 430.23 242.373 437.579C242.38 443.328 243.784 444.515 250.351 444.591C250.663 444.595 250.974 444.595 251.285 444.595Z" fill="#ABB0A9"/>
<path d="M251.285 444.595V457.72C250.974 457.72 250.662 457.72 250.351 457.716C243.783 457.641 242.38 456.455 242.373 450.705C242.365 443.355 242.361 436.007 242.359 428.657V415.531C242.36 422.88 242.363 430.23 242.373 437.579C242.38 443.328 243.784 444.515 250.351 444.591C250.663 444.595 250.974 444.595 251.285 444.595Z" fill="#ABB0A9"/>
<path d="M360.298 303.922C396.453 303.922 432.611 303.923 468.769 303.928L469.596 303.927C470.416 303.929 470.95 303.937 471.484 303.964C471.86 303.984 472.234 304.014 472.605 304.057C476.645 304.542 477.796 305.639 478.048 309.165C478.082 309.675 478.092 310.185 478.092 310.696C478.092 311.094 478.087 311.492 478.087 311.892C478.087 353.508 478.087 395.122 478.078 436.738C478.078 437.747 478.069 438.757 478.016 439.768C477.867 442.596 476.33 444.314 472.882 444.452C471.489 444.506 470.093 444.58 468.692 444.58C432.539 444.589 396.384 444.589 360.223 444.589H253.155C252.53 444.589 251.909 444.592 251.285 444.592C250.974 444.592 250.662 444.592 250.351 444.589C243.783 444.513 242.38 443.328 242.373 437.577C242.364 430.227 242.36 422.879 242.359 415.529C242.359 403.28 242.366 391.035 242.366 378.789V312.123C242.366 311.114 242.38 310.097 242.429 309.095C242.579 306.013 244.272 304.178 247.989 304.035C249.273 303.986 250.548 303.925 251.832 303.925C287.985 303.924 324.142 303.922 360.298 303.922Z" fill="#F0F4CA"/>
<path d="M547.451 445.71V458.835C532.109 452.479 516.604 446.424 501.129 440.313C499.419 439.639 498.696 438.832 498.703 437.141V424.016C498.696 425.707 499.42 426.511 501.129 427.187C516.604 433.299 532.11 439.354 547.451 445.71Z" fill="#ABB0A9"/>
<path d="M547.451 445.71V458.835C532.109 452.479 516.604 446.424 501.129 440.313C499.419 439.639 498.696 438.832 498.703 437.141V424.016C498.696 425.707 499.42 426.511 501.129 427.187C516.604 433.299 532.11 439.354 547.451 445.71Z" fill="#ABB0A9"/>
<path d="M550.967 446.406V459.531C549.61 459.504 548.544 459.282 547.453 458.828V445.703C548.545 446.158 549.61 446.379 550.967 446.406Z" fill="#ABB0A9"/>
<path d="M550.967 446.406V459.531C549.61 459.504 548.544 459.282 547.453 458.828V445.703C548.545 446.158 549.61 446.379 550.967 446.406Z" fill="#ABB0A9"/>
<path d="M550.734 302.18C554.686 302.34 557.098 304.834 557.349 308.195C557.451 309.504 557.512 310.815 557.512 312.13C557.522 332.931 557.522 353.732 557.522 374.533C557.522 395.238 557.522 415.935 557.505 436.641C557.505 438.149 557.41 439.669 557.206 441.17C556.805 444.126 554.266 446.345 550.964 446.414C549.607 446.388 548.541 446.166 547.45 445.712C532.108 439.356 516.603 433.301 501.128 427.189C499.419 426.515 498.695 425.708 498.702 424.018C498.725 407.46 498.74 390.897 498.74 374.336C498.74 357.776 498.725 341.214 498.695 324.651C498.686 322.815 499.522 322.019 501.332 321.302C516.593 315.28 531.903 309.333 547.008 303.011C547.49 302.809 547.984 302.639 548.487 302.501C548.732 302.436 548.972 302.382 549.209 302.337C549.981 302.216 550.364 302.184 550.734 302.18Z" fill="#F8F6C6"/>
<path d="M221.789 449.405V448.099V447.446V446.141V444.834V444.18V442.874V441.569V440.915V439.609V438.303V437.651V436.344L221.79 441.42C221.79 453.578 231.72 462.438 245.651 462.446C281.312 462.468 316.97 462.473 352.631 462.473C393.385 462.473 434.141 462.465 474.893 462.465C481.517 462.473 487.391 460.739 491.73 456.312C494.463 453.525 496.629 450.32 499.234 447.066V460.191C496.627 463.445 494.463 466.651 491.73 469.437C487.391 473.864 481.518 475.598 474.893 475.59C434.141 475.59 393.385 475.599 352.631 475.599C316.97 475.599 281.312 475.592 245.651 475.572C231.72 475.563 221.79 466.705 221.79 454.545L221.789 449.405Z" fill="#ABB0A9"/>
<path d="M499.234 447.067V460.192C497.255 462.663 495.53 465.106 493.617 467.362V454.236C495.529 451.981 497.254 449.537 499.234 447.067ZM493.616 454.236V467.362C493.012 468.077 492.383 468.77 491.729 469.439C490.729 470.46 489.616 471.365 488.413 472.136V459.01C489.617 458.241 490.73 457.336 491.729 456.313C492.383 455.644 493.013 454.951 493.616 454.236ZM488.413 459.01V472.136C487.193 472.911 485.892 473.552 484.534 474.046V460.921C485.892 460.427 487.193 459.786 488.413 459.01ZM484.534 460.921V474.046C482.902 474.647 481.173 475.057 479.366 475.303V462.178C481.173 461.931 482.902 461.522 484.534 460.921ZM479.366 462.18V475.305C477.882 475.502 476.388 475.598 474.891 475.591C434.139 475.591 393.384 475.6 352.629 475.6C316.968 475.6 281.311 475.593 245.65 475.572C231.719 475.565 221.789 466.705 221.789 454.546V436.281V441.42C221.789 453.579 231.72 462.439 245.65 462.446C281.311 462.47 316.97 462.475 352.629 462.475C393.384 462.475 434.139 462.466 474.891 462.466C476.388 462.473 477.883 462.377 479.366 462.18Z" fill="#ABB0A9"/>
<path d="M578.339 439.937C579.045 453.284 567.107 464.939 551.098 464.939C546.948 464.939 542.532 464.16 537.988 462.421C525.728 457.736 513.623 452.737 501.44 447.886C500.518 447.517 499.568 447.189 499.235 447.068C496.629 450.322 494.465 453.527 491.732 456.314C487.393 460.74 481.52 462.473 474.895 462.465C434.142 462.465 393.387 462.476 352.633 462.476C316.972 462.476 281.314 462.467 245.653 462.447C231.722 462.439 221.792 453.581 221.792 441.421C221.775 396.661 221.98 351.903 221.633 307.15C221.554 296.417 232.547 286.029 245.91 286.029C274.054 286.138 302.103 286.167 330.14 286.167C361.484 286.167 392.818 286.132 424.162 286.132H429.284V281.562C429.273 276.312 429.228 271.051 429.284 265.8C429.304 263.112 427.962 261.743 424.908 261.743C424.327 261.752 423.993 261.756 423.659 261.756C422.826 261.756 421.995 261.736 421.162 261.736C358.508 261.736 295.862 261.744 233.218 261.744C225.161 261.744 221.586 258.627 221.814 251.808C221.948 247.865 225.439 244.453 229.932 243.928C230.597 243.849 231.273 243.837 231.95 243.837C232.326 243.837 232.702 243.84 233.076 243.84C262.849 243.84 292.63 243.842 322.404 243.842C357.148 243.842 391.881 243.84 426.619 243.812C433.243 243.812 438.929 245.32 443.661 249.535C447.796 253.217 449.984 257.432 449.937 262.568C449.889 269.23 449.929 275.901 449.929 282.571V286.131C454.639 286.131 459.212 286.262 463.721 286.262C466.472 286.262 469.197 286.213 471.914 286.055C472.62 286.014 473.32 285.994 474.01 285.994C485.617 285.994 494.501 291.753 498.485 301.787C499.611 301.379 500.746 300.997 501.854 300.554C514.036 295.708 526.213 290.852 538.386 285.986C541.91 284.575 546.332 283.687 550.968 283.687C558.225 283.687 566 285.868 571.658 291.654C575.943 296.04 578.131 300.868 578.123 306.576C578.084 332.035 578.107 357.502 578.107 382.96C578.111 401.954 577.339 420.978 578.339 439.937ZM478.09 311.899C478.09 311.499 478.095 311.101 478.095 310.702C478.095 310.19 478.085 309.679 478.05 309.171C477.799 305.644 476.649 304.548 472.607 304.063C472.235 304.02 471.862 303.987 471.487 303.969C470.952 303.944 470.417 303.933 469.881 303.933H468.771C396.458 303.927 324.145 303.927 251.832 303.933C250.547 303.933 249.272 303.994 247.989 304.042C244.272 304.185 242.579 306.019 242.428 309.102C242.383 310.111 242.363 311.12 242.365 312.131V378.796C242.365 391.042 242.359 403.289 242.359 415.537C242.359 422.885 242.362 430.232 242.373 437.581C242.38 443.331 243.783 444.52 250.35 444.594C250.661 444.598 250.974 444.598 251.284 444.598C251.908 444.598 252.528 444.594 253.153 444.594H360.222C396.385 444.594 432.538 444.597 468.691 444.588C470.093 444.588 471.487 444.512 472.88 444.46C476.33 444.324 477.866 442.605 478.014 439.774C478.068 438.764 478.077 437.754 478.077 436.744C478.09 395.129 478.09 353.514 478.09 311.899ZM557.51 436.641C557.526 415.938 557.526 395.238 557.526 374.533C557.526 353.732 557.526 332.931 557.518 312.131C557.518 310.815 557.454 309.503 557.353 308.193C557.104 304.833 554.69 302.339 551.189 302.187C550.365 302.186 549.985 302.214 549.594 302.271C548.976 302.382 548.735 302.438 548.492 302.503C548.274 302.561 548.052 302.629 547.829 302.702C547.56 302.793 547.288 302.896 547.012 303.011C531.907 309.334 516.597 315.282 501.336 321.304C499.525 322.02 498.69 322.819 498.699 324.653C498.729 341.215 498.743 357.776 498.743 374.338C498.743 390.899 498.729 407.458 498.707 424.02C498.699 425.71 499.424 426.515 501.132 427.192C516.606 433.303 532.111 439.357 547.454 445.714C548.545 446.167 549.611 446.387 550.611 446.413C554.273 446.346 556.809 444.129 557.209 441.174C557.414 439.67 557.51 438.15 557.51 436.641Z" fill="#CDD2C6"/>
<path d="M578.367 441.062V454.193C578.367 467.064 566.654 478.07 551.097 478.07C546.946 478.07 542.53 477.289 537.986 475.551C525.725 470.865 513.62 465.867 501.438 461.017C500.516 460.648 499.566 460.321 499.234 460.199V447.074C499.566 447.196 500.518 447.523 501.438 447.892C513.622 452.741 525.725 457.739 537.986 462.426C542.53 464.164 546.948 464.945 551.097 464.945C566.652 464.939 578.367 453.932 578.367 441.062Z" fill="#ABB0A9"/>
<path d="M578.37 441.062V454.189C578.37 454.626 578.355 455.062 578.329 455.496V442.371C578.356 441.935 578.37 441.5 578.37 441.062ZM578.329 442.371V455.496C578.034 460.283 576.12 464.761 573.005 468.448V455.323C576.118 451.637 578.032 447.157 578.329 442.371ZM573.005 455.323L573.004 468.449C571.329 470.42 569.367 472.129 567.184 473.517L567.187 460.392C569.369 459.003 571.331 457.295 573.005 455.323ZM567.184 460.392V473.517C565.471 474.611 563.643 475.515 561.734 476.214V463.087C563.643 462.389 565.471 461.485 567.184 460.392Z" fill="#ABB0A9"/>
<path d="M561.735 463.081V476.207C559.693 476.955 557.577 477.479 555.422 477.77V464.645C557.577 464.354 559.693 463.829 561.735 463.081ZM555.421 464.643V477.768C553.988 477.962 552.544 478.061 551.098 478.059C546.948 478.059 542.532 477.278 537.988 475.54C525.727 470.854 513.623 465.855 501.44 461.005C500.518 460.637 499.568 460.311 499.234 460.188V447.062C499.568 447.186 500.52 447.512 501.44 447.88C513.623 452.73 525.727 457.728 537.988 462.415C542.532 464.154 546.949 464.934 551.098 464.934C552.544 464.935 553.988 464.837 555.421 464.643Z" fill="#ABB0A9"/>
</svg>
