<svg width="800" height="800" viewBox="0 0 800 800" fill="none" xmlns="http://www.w3.org/2000/svg">
<path d="M776.374 385.578V412.921C776.374 423.336 771.655 433.753 762.206 441.935C652.714 536.796 543.183 631.618 433.698 726.481C424.469 734.478 413.532 738.591 400.531 738.591V711.247C413.533 711.247 424.469 707.135 433.698 699.137C543.183 604.275 652.711 509.448 762.206 414.593C771.655 406.409 776.374 395.996 776.374 385.578Z" fill="#3C94BE"/>
<path d="M23.625 412.789V410.054V408.687V405.953V403.218V401.851V399.117V396.382V395.015V392.281V389.546V388.179V385.445C23.625 396.935 28.8602 408.346 38.4977 416.71C146.661 510.51 254.942 604.207 363.155 697.975C373.313 706.772 385.609 710.839 400.54 711.252V738.596C385.612 738.183 373.313 734.116 363.155 725.319C254.942 631.55 146.661 537.853 38.4977 444.053C28.8594 435.69 23.625 424.278 23.625 412.789Z" fill="#3C94BE"/>
<path d="M399.053 59.8438C411.759 59.8438 424.48 64.0328 434.167 72.4196C543.503 167.097 652.84 261.776 762.151 356.471C781.089 372.873 781.131 398.2 762.213 414.593C652.72 509.453 543.189 604.278 433.706 699.138C424.475 707.137 413.539 711.249 400.54 711.249C385.611 710.836 373.312 706.769 363.154 697.972C254.942 604.204 146.661 510.507 38.4977 416.707C23.2001 403.435 18.9977 382.48 29.2047 365.729C32.2665 360.7 35.9774 356.488 40.5055 352.566C148.403 259.166 256.27 165.743 364.148 72.3172C373.754 64.0047 386.396 59.8438 399.053 59.8438Z" fill="#90D3EE"/>
<path d="M578.429 348.029V361.154C578.429 363.404 577.403 365.588 575.356 367.389C573.226 369.259 570.556 370.195 567.806 370.195C564.842 370.195 561.786 369.108 559.213 366.931C543.92 354.015 527.004 342.981 508.176 334.265C474.147 318.513 438.434 310.179 400.987 310.179C390.993 310.179 380.88 310.772 370.638 311.976C320.498 317.876 277.334 336.392 240.937 366.804C238.23 369.063 235.081 370.201 232.065 370.201C229.411 370.201 226.856 369.321 224.792 367.545C222.659 365.708 221.57 363.282 221.57 360.869V347.744C221.57 350.158 222.659 352.583 224.792 354.42C226.857 356.196 229.411 357.076 232.065 357.076C235.082 357.076 238.23 355.937 240.937 353.679C277.334 323.268 320.498 304.752 370.638 298.852C380.711 297.661 390.844 297.061 400.987 297.055C438.435 297.055 474.148 305.389 508.176 321.14C527.005 329.856 543.92 340.891 559.213 353.807C561.787 355.983 564.842 357.071 567.806 357.071C570.556 357.071 573.227 356.136 575.356 354.264C577.402 352.463 578.429 350.279 578.429 348.029Z" fill="#38559F"/>
<path d="M578.425 348.023V361.148C578.425 361.302 578.419 361.458 578.41 361.611V348.486C578.419 348.333 578.425 348.176 578.425 348.023ZM578.41 348.487V361.612C578.307 363.252 577.65 364.848 576.448 366.269V353.144C577.65 351.723 578.307 350.127 578.41 348.487ZM576.448 353.144V366.269C576.121 366.655 575.758 367.026 575.352 367.381C574.923 367.758 574.466 368.102 573.985 368.41V355.285C574.466 354.977 574.923 354.634 575.352 354.257C575.758 353.901 576.121 353.529 576.448 353.144ZM573.985 355.285V368.41C573.298 368.849 572.573 369.207 571.82 369.483V356.358C572.579 356.08 573.305 355.72 573.985 355.285Z" fill="#38559F"/>
<path d="M571.827 356.365V369.49C571.048 369.775 570.245 369.973 569.423 370.086V356.961C570.244 356.848 571.048 356.65 571.827 356.365ZM569.422 356.962V370.087C568.887 370.159 568.35 370.196 567.806 370.196C564.842 370.196 561.785 369.108 559.212 366.932C543.92 354.016 527.004 342.982 508.176 334.265C474.146 318.514 438.434 310.18 400.986 310.18C390.993 310.18 380.879 310.773 370.637 311.977C368.88 312.184 367.132 312.407 365.395 312.644V299.519C367.134 299.281 368.88 299.059 370.637 298.852C380.71 297.661 390.843 297.061 400.986 297.055C438.434 297.055 474.147 305.389 508.176 321.14C527.005 329.856 543.92 340.891 559.212 353.807C561.787 355.983 564.842 357.071 567.806 357.071C568.347 357.071 568.886 357.034 569.422 356.962ZM365.395 299.519V312.644C346.42 315.236 328.466 319.665 311.516 325.894V312.769C328.466 306.54 346.421 302.11 365.395 299.519Z" fill="#38559F"/>
<path d="M311.512 312.766V325.891C295.516 331.759 280.204 339.347 265.848 348.523V335.398C280.204 326.222 295.515 318.633 311.512 312.766ZM265.848 335.398V348.523C257.162 354.079 248.845 360.184 240.938 366.801C240.422 367.229 239.877 367.626 239.312 367.989V354.864C239.877 354.502 240.422 354.105 240.938 353.677C248.845 347.059 257.162 340.954 265.848 335.398Z" fill="#38559F"/>
<path d="M239.318 354.864V367.989C238.433 368.556 237.489 369.026 236.503 369.389V356.264C237.489 355.901 238.433 355.431 239.318 354.864ZM236.503 356.266V369.391C235.607 369.723 234.678 369.957 233.731 370.088V356.963C234.677 356.83 235.607 356.597 236.503 356.266ZM233.731 356.961V370.086C233.173 370.161 232.616 370.2 232.065 370.2C229.411 370.2 226.856 369.32 224.792 367.543C222.659 365.706 221.57 363.28 221.57 360.867V347.742C221.57 350.156 222.659 352.582 224.792 354.418C226.857 356.194 229.411 357.075 232.065 357.075C232.618 357.075 233.174 357.036 233.731 356.961Z" fill="#38559F"/>
<path d="M400.152 278.188C458.278 278.799 510.183 294.193 555.487 325.776C562.016 330.326 568.08 335.393 574.197 340.372C579.434 344.64 579.796 350.358 575.356 354.266C573.226 356.136 570.555 357.072 567.806 357.072C564.842 357.072 561.786 355.983 559.212 353.807C543.92 340.891 527.004 329.857 508.176 321.141C474.147 305.39 438.434 297.055 400.986 297.055C390.993 297.055 380.88 297.649 370.638 298.853C320.498 304.753 277.335 323.268 240.936 353.678C238.23 355.938 235.081 357.077 232.065 357.077C229.411 357.077 226.856 356.197 224.793 354.421C220.619 350.826 220.446 344.989 224.587 341.374C239.621 328.258 256.26 316.932 274.672 307.568C301.74 293.799 330.829 284.877 361.864 281.065C374.528 279.516 387.387 279.113 400.152 278.188Z" fill="#3C7FC2"/>
<path d="M541.002 379.987V393.112C541.002 397.182 538.809 399.851 534.996 401.672C533.789 402.246 532.334 402.517 530.817 402.517C527.898 402.517 524.745 401.52 522.687 399.782C512.702 391.367 501.843 383.92 489.864 377.748C462.377 363.585 432.825 355.751 401.224 355.75C398.312 355.75 395.389 355.817 392.442 355.951C349.304 357.915 311.716 371.924 280.051 397.532C277.167 399.868 274.562 402.412 270.173 402.412C269.9 402.412 269.62 402.401 269.333 402.381C265.055 402.075 260.796 400.227 259.702 396.96C259.227 395.546 258.898 394.114 258.898 392.714V379.589C258.898 380.989 259.227 382.421 259.702 383.835C260.796 387.102 265.056 388.951 269.333 389.257C269.62 389.278 269.9 389.288 270.173 389.288C274.562 389.288 277.166 386.745 280.051 384.407C311.716 358.8 349.304 344.791 392.442 342.826C395.368 342.693 398.296 342.626 401.224 342.625C432.825 342.625 462.377 350.46 489.864 364.623C501.843 370.794 512.701 378.242 522.687 386.657C524.745 388.394 527.898 389.392 530.817 389.392C532.335 389.392 533.791 389.121 534.996 388.546C538.809 386.726 541.002 384.058 541.002 379.987Z" fill="#38559F"/>
<path d="M541.004 379.984V393.109C541.004 393.332 540.996 393.549 540.984 393.763V380.638C540.997 380.424 541.004 380.206 541.004 379.984ZM540.983 380.637V393.762C540.865 395.736 540.195 397.36 539.055 398.71V385.585C540.197 384.235 540.865 382.61 540.983 380.637Z" fill="#38559F"/>
<path d="M539.055 385.586V398.711C538.409 399.473 537.612 400.147 536.673 400.745V387.62C537.612 387.023 538.409 386.349 539.055 385.586ZM536.673 387.622V400.747C536.156 401.078 535.598 401.384 534.998 401.671C534.789 401.771 534.576 401.86 534.359 401.94V388.815C534.578 388.734 534.793 388.644 534.998 388.545C535.574 388.272 536.134 387.964 536.673 387.622Z" fill="#38559F"/>
<path d="M534.359 388.815V401.94C533.752 402.163 533.101 402.319 532.42 402.412V389.288C533.081 389.199 533.731 389.041 534.359 388.815ZM532.417 389.286V402.411C531.896 402.482 531.359 402.517 530.816 402.517C527.896 402.517 524.745 401.52 522.687 399.782C512.702 391.367 501.842 383.92 489.863 377.748C462.377 363.585 432.825 355.751 401.223 355.75C398.312 355.75 395.388 355.817 392.441 355.951C385.909 356.244 379.393 356.831 372.914 357.712V344.587C379.393 343.706 385.909 343.118 392.441 342.825C395.367 342.692 398.295 342.625 401.223 342.625C432.825 342.625 462.377 350.459 489.863 364.622C501.842 370.793 512.701 378.241 522.687 386.657C524.745 388.393 527.896 389.391 530.816 389.391C531.362 389.392 531.897 389.357 532.417 389.286Z" fill="#38559F"/>
<path d="M372.914 344.586V357.711C358.757 359.648 345.255 362.981 332.422 367.697V354.572C345.255 349.855 358.757 346.521 372.914 344.586Z" fill="#38559F"/>
<path d="M332.428 354.57V367.695C320.074 372.232 308.249 378.099 297.163 385.191V372.066C308.249 364.973 320.074 359.107 332.428 354.57ZM297.163 372.065V385.19C291.236 388.982 285.525 393.101 280.056 397.528C278.742 398.592 277.488 399.699 276.095 400.589V387.464C277.488 386.575 278.742 385.467 280.056 384.403C285.525 379.976 291.236 375.857 297.163 372.065ZM276.095 387.464V400.589C275.355 401.063 274.575 401.476 273.727 401.786V388.661C274.558 388.35 275.352 387.949 276.095 387.464Z" fill="#38559F"/>
<path d="M273.722 388.662V401.787C273.065 402.03 272.366 402.211 271.614 402.313V389.188C272.334 389.09 273.04 388.914 273.722 388.662ZM271.614 389.188V402.313C271.155 402.376 270.677 402.409 270.173 402.409C269.9 402.409 269.62 402.398 269.333 402.378C265.055 402.072 260.795 400.224 259.702 396.957C259.227 395.543 258.898 394.111 258.898 392.711V379.586C258.898 380.986 259.227 382.418 259.702 383.832C260.795 387.099 265.056 388.948 269.333 389.254C269.62 389.275 269.9 389.285 270.173 389.285C270.655 389.285 271.137 389.253 271.614 389.188Z" fill="#38559F"/>
<path d="M399.482 324.25L400.2 324.251C452.869 324.537 498.362 340.141 536.287 371.983C538.84 374.125 540.919 376.233 540.997 379.704C541.1 383.933 538.896 386.682 534.996 388.543C533.789 389.118 532.335 389.388 530.817 389.388C527.896 389.388 524.745 388.39 522.688 386.654C512.702 378.238 501.843 370.791 489.864 364.619C462.377 350.456 432.825 342.622 401.224 342.622C398.313 342.622 395.389 342.689 392.442 342.822C349.304 344.787 311.717 358.795 280.051 384.404C277.167 386.74 274.563 389.284 270.174 389.284C269.9 389.284 269.621 389.275 269.333 389.253C265.056 388.947 260.796 387.098 259.702 383.831C258.521 380.305 258.236 376.676 261.717 373.662C271.726 364.988 282.554 357.186 294.485 350.571C326.495 332.828 361.549 324.25 399.482 324.25Z" fill="#3C7FC2"/>
<path d="M504.334 411.984V425.109C504.051 425.204 503.766 425.308 503.477 425.403V412.278C503.766 412.182 504.051 412.079 504.334 411.984Z" fill="#38559F"/>
<path d="M504.334 411.984V425.109C504.051 425.204 503.766 425.308 503.477 425.403V412.278C503.766 412.182 504.051 412.079 504.334 411.984Z" fill="#38559F"/>
<path d="M503.587 413.58V426.705C503.587 430.193 501.129 432.589 497.64 433.856C496.033 434.437 494.38 434.763 492.748 434.763C490.225 434.763 487.754 433.986 485.584 432.178C474.819 423.196 462.755 415.85 449.044 410.661C433.254 404.68 417.022 401.407 400.253 401.407C394.385 401.407 388.451 401.807 382.447 402.633C357.436 406.071 335.645 415.215 317.052 430.104C314.177 432.404 311.462 434.632 306.974 434.632C302.075 434.579 299.051 432.613 297.002 429.375C296.414 428.445 296.148 427.291 296.148 426.068V412.943C296.148 414.165 296.415 415.322 297.002 416.25C299.051 419.489 302.073 421.454 306.974 421.507C311.462 421.507 314.177 419.279 317.052 416.979C335.645 402.089 357.436 392.944 382.447 389.507C388.347 388.693 394.297 388.283 400.253 388.281C417.022 388.281 433.255 391.554 449.044 397.534C462.755 402.725 474.819 410.069 485.584 419.051C487.752 420.859 490.225 421.636 492.748 421.636C494.38 421.636 496.033 421.311 497.64 420.729C501.128 419.464 503.587 417.068 503.587 413.58Z" fill="#38559F"/>
<path d="M503.583 413.586V426.711C503.583 426.858 503.578 427.005 503.57 427.147V414.022C503.578 413.878 503.583 413.732 503.583 413.586ZM503.57 414.021V427.146C503.479 428.652 502.916 429.941 502.008 431.013V417.888C502.917 416.815 503.479 415.527 503.57 414.021Z" fill="#38559F"/>
<path d="M502.013 417.889V431.014C501.477 431.646 500.82 432.204 500.069 432.684V419.559C500.797 419.102 501.452 418.539 502.013 417.889ZM500.068 419.56V432.685C499.324 433.153 498.531 433.541 497.705 433.84V420.714C498.531 420.415 499.324 420.028 500.068 419.56ZM497.705 420.714V433.84C497.683 433.848 497.662 433.856 497.64 433.862C496.626 434.234 495.575 434.497 494.505 434.647V421.521C495.575 421.372 496.626 421.108 497.64 420.736C497.662 420.73 497.683 420.721 497.705 420.714ZM494.505 421.523V434.647C493.923 434.728 493.336 434.769 492.748 434.77C490.226 434.77 487.755 433.993 485.586 432.185C474.82 423.203 462.755 415.857 449.046 410.668C433.255 404.687 417.023 401.414 400.255 401.414C394.414 401.414 388.512 401.811 382.537 402.628V389.503C388.408 388.696 394.328 388.29 400.255 388.289C417.023 388.289 433.255 391.561 449.046 397.542C462.756 402.732 474.82 410.077 485.586 419.059C487.754 420.867 490.226 421.644 492.748 421.644C493.336 421.643 493.923 421.603 494.505 421.523ZM382.536 389.504V402.629L382.447 402.643C372.015 404.077 362.143 406.503 352.83 409.925V396.8C362.143 393.378 372.015 390.95 382.447 389.516C382.476 389.511 382.506 389.508 382.536 389.504ZM352.83 396.798V409.923C344.132 413.12 335.919 417.184 328.194 422.118V408.993C335.92 404.059 344.132 399.995 352.83 396.798ZM328.194 408.995V422.12C324.341 424.585 320.621 427.253 317.051 430.113C315.964 430.982 314.903 431.841 313.758 432.573V419.448C314.901 418.715 315.965 417.857 317.051 416.987C320.621 414.127 324.341 411.459 328.194 408.995ZM313.758 419.448V432.573C312.922 433.108 312.041 433.575 311.076 433.929V420.804C312.041 420.45 312.922 419.982 313.758 419.448ZM311.076 420.804V433.929C310.33 434.204 309.534 434.41 308.668 434.528V421.403C309.49 421.292 310.298 421.091 311.076 420.804ZM308.668 421.403V434.528C308.132 434.6 307.568 434.641 306.974 434.641C302.075 434.587 299.051 432.621 297.002 429.383C296.414 428.453 296.148 427.3 296.148 426.077V412.951C296.148 414.174 296.415 415.33 297.002 416.258C299.051 419.497 302.073 421.462 306.974 421.516C307.568 421.515 308.132 421.475 308.668 421.403Z" fill="#38559F"/>
<path d="M401.321 369.719C428.244 369.719 453.927 375.908 477.791 389.523C486.107 394.262 493.455 400.326 500.935 406.076C502.699 407.433 503.235 409.983 504.329 411.989C504.046 412.084 503.762 412.187 503.472 412.283C504.158 416.485 501.542 419.321 497.636 420.739C496.028 421.319 494.375 421.645 492.741 421.645C490.22 421.645 487.749 420.869 485.579 419.06C474.813 410.079 462.749 402.733 449.039 397.543C433.248 391.562 417.016 388.29 400.248 388.29C394.379 388.29 388.445 388.691 382.441 389.515C357.43 392.954 335.639 402.097 317.046 416.987C314.171 419.288 311.456 421.516 306.967 421.516C302.068 421.462 299.044 419.497 296.995 416.258C295.129 413.312 296.499 408.087 299.358 405.612C319.438 388.214 343.3 376.566 371.249 372.154C381.419 370.551 391.456 369.719 401.321 369.719Z" fill="#3C7FC2"/>
<path d="M400.988 453.021C400.677 453.021 400.538 453.021 400.398 453.025V451.491V449.867V448.18V446.464V444.746V443.059V441.435V439.903C400.509 439.9 400.621 439.9 400.821 439.898H400.988C413.055 439.978 424.132 450.185 424.284 460.779V473.904C424.132 463.309 413.055 453.101 400.988 453.021Z" fill="#38559F"/>
<path d="M424.295 461.098V474.223C424.365 463.518 413.188 453.103 400.999 453.023C400.688 453.023 400.549 453.023 400.409 453.026L399.962 453.041C398.877 453.086 397.795 453.181 396.719 453.326V440.201C397.795 440.056 398.877 439.96 399.962 439.916L400.409 439.901C400.549 439.898 400.687 439.898 400.999 439.898C413.188 439.979 424.365 450.393 424.295 461.098Z" fill="#38559F"/>
<path d="M424.295 461.098V474.223C424.365 463.518 413.188 453.103 400.999 453.023C400.688 453.023 400.549 453.023 400.409 453.026L399.962 453.041C398.877 453.086 397.795 453.181 396.719 453.326V440.201C397.795 440.056 398.877 439.96 399.962 439.916L400.409 439.901C400.549 439.898 400.687 439.898 400.999 439.898C413.188 439.979 424.365 450.393 424.295 461.098Z" fill="#38559F"/>
<path d="M375.78 473.989C375.772 474.161 375.768 474.332 375.766 474.505V461.38C375.768 461.209 375.772 461.038 375.78 460.863C376.355 448.397 386.508 440.47 399.957 439.913L400.404 439.898V453.021L399.957 453.035C386.508 453.597 376.355 461.522 375.78 473.989Z" fill="#38559F"/>
<path d="M424.295 461.098V474.223C424.365 463.518 413.188 453.103 400.999 453.023C400.688 453.023 400.549 453.023 400.409 453.026L399.962 453.041C398.877 453.086 397.795 453.181 396.719 453.326V440.201C397.795 440.056 398.877 439.96 399.962 439.916L400.409 439.901C400.549 439.898 400.687 439.898 400.999 439.898C413.188 439.979 424.365 450.393 424.295 461.098Z" fill="#38559F"/>
<path d="M396.715 440.195V453.32C394.458 453.628 392.32 454.154 390.334 454.885V441.76C392.322 441.029 394.459 440.503 396.715 440.195ZM390.334 441.757V454.883C388.609 455.511 386.958 456.324 385.409 457.308V444.183C386.958 443.199 388.609 442.385 390.334 441.757ZM385.408 444.184V457.309C383.555 458.494 381.92 459.905 380.547 461.525V448.4C381.92 446.78 383.555 445.367 385.408 444.184ZM380.547 448.4V461.527C377.789 464.785 376.087 468.881 375.799 473.656V460.531C376.087 455.755 377.789 451.657 380.547 448.4ZM375.799 460.531V473.656C375.793 473.766 375.787 473.876 375.782 473.987C375.773 474.16 375.768 474.331 375.766 474.504V461.378C375.768 461.206 375.772 461.035 375.782 460.862L375.799 460.531Z" fill="#38559F"/>
<path d="M400.029 482.083V495.208C399.58 495.208 399.183 495.198 398.787 495.179C386.813 494.588 375.83 485.161 375.766 474.766V461.641C375.83 472.036 386.813 481.463 398.787 482.054C399.184 482.073 399.58 482.083 400.029 482.083Z" fill="#38559F"/>
<path d="M400.029 482.083V495.208C399.58 495.208 399.183 495.198 398.787 495.179C386.813 494.588 375.83 485.161 375.766 474.766V461.641C375.83 472.036 386.813 481.463 398.787 482.054C399.184 482.073 399.58 482.083 400.029 482.083Z" fill="#38559F"/>
<path d="M424.286 461.094V474.219C424.223 485.166 412.64 495.177 400.023 495.204V482.079C412.64 482.052 424.223 472.04 424.286 461.094Z" fill="#38559F"/>
<path d="M424.289 461.094V474.219C424.288 474.523 424.277 474.826 424.259 475.129V462.004C424.277 461.702 424.288 461.399 424.289 461.094ZM424.259 462.004V475.129C424.006 479.089 422.269 482.893 419.548 486.104V472.979C422.267 469.768 424.005 465.965 424.259 462.004ZM419.548 472.979V486.104C417.948 487.991 416.01 489.673 413.836 491.063V477.938C416.01 476.547 417.949 474.865 419.548 472.979Z" fill="#38559F"/>
<path d="M413.834 477.938V491.062C412.207 492.101 410.473 492.962 408.662 493.63V480.505C410.473 479.837 412.207 478.977 413.834 477.938ZM408.662 480.504V493.63C406.915 494.273 405.104 494.726 403.26 494.979V481.854C405.104 481.601 406.915 481.148 408.662 480.504ZM403.26 481.854V494.979C402.188 495.127 401.106 495.201 400.023 495.203V482.078C401.106 482.076 402.188 482.002 403.26 481.854Z" fill="#38559F"/>
<path d="M400.822 439.898C413.184 439.978 424.361 450.393 424.291 461.098C424.229 472.044 412.645 482.056 400.029 482.083C399.615 482.084 399.2 482.074 398.787 482.055C386.813 481.464 375.83 472.037 375.766 461.642V461.384C375.768 461.212 375.772 461.041 375.78 460.868C376.355 448.401 386.508 440.474 399.957 439.917C400.107 439.912 400.255 439.907 400.404 439.903C400.543 439.898 400.683 439.898 400.822 439.898Z" fill="#C4E6F4"/>
<path d="M446.022 460.789V473.915C446.142 494.605 425.843 513.684 402.263 513.684C401.554 513.684 400.846 513.666 400.133 513.634V500.509C400.845 500.541 401.552 500.559 402.263 500.559C425.843 500.559 446.145 481.48 446.022 460.789Z" fill="#38559F"/>
<path d="M446.016 460.789V473.915C446.019 474.64 445.998 475.365 445.953 476.086V462.961C445.999 462.238 446.019 461.514 446.016 460.789Z" fill="#38559F"/>
<path d="M445.956 462.961V476.086C445.47 483.873 442.135 491.338 436.891 497.537V484.412C442.136 478.214 445.468 470.748 445.956 462.961Z" fill="#38559F"/>
<path d="M436.895 484.414V497.539C434.015 500.941 430.559 503.963 426.68 506.445V493.32C430.558 490.837 434.015 487.816 436.895 484.414ZM426.68 493.318V506.444C423.851 508.256 420.833 509.756 417.679 510.916V497.791C420.832 496.63 423.85 495.131 426.68 493.318ZM417.679 497.791V510.916C414.61 512.047 411.427 512.84 408.186 513.283V500.158C411.427 499.715 414.61 498.922 417.679 497.791ZM408.186 500.158V513.283C405.518 513.647 402.822 513.764 400.133 513.634V500.509C402.822 500.639 405.518 500.522 408.186 500.158Z" fill="#38559F"/>
<path d="M400.132 500.512V513.637C399.373 513.674 398.62 513.693 397.868 513.693C373.782 513.693 354.113 494.349 353.953 474.477V461.352C354.112 481.225 373.782 500.568 397.868 500.568C398.618 500.569 399.373 500.55 400.132 500.512Z" fill="#38559F"/>
<path d="M400.132 500.512V513.637C399.373 513.674 398.62 513.693 397.868 513.693C373.782 513.693 354.113 494.349 353.953 474.477V461.352C354.112 481.225 373.782 500.568 397.868 500.568C398.618 500.569 399.373 500.55 400.132 500.512Z" fill="#38559F"/>
<path d="M399.664 421.18C424.867 421.179 445.889 439.919 446.015 460.791C446.135 481.483 425.836 500.562 402.256 500.562C401.547 500.562 400.839 500.544 400.126 500.511C399.368 500.548 398.614 500.567 397.862 500.567C373.776 500.567 354.108 481.223 353.946 461.351C353.767 439.84 375.266 421.304 399.664 421.18ZM399.974 482.083C412.642 482.057 424.226 472.044 424.288 461.098C424.357 450.393 413.181 439.978 400.991 439.897C400.68 439.897 400.541 439.898 400.401 439.901L399.954 439.915C386.505 440.475 376.353 448.4 375.778 460.866C375.765 461.124 375.76 461.382 375.762 461.64C375.826 472.036 386.81 481.463 398.783 482.054C399.18 482.074 399.577 482.084 399.974 482.083Z" fill="#3C7FC2"/>
</svg>
