<svg width="24" height="24" viewBox="0 0 24 24" fill="none" xmlns="http://www.w3.org/2000/svg">
<path fill-rule="evenodd" clip-rule="evenodd" d="M8.60469 6C7.0583 6 5.80469 7.25361 5.80469 8.8C5.80469 10.3464 7.0583 11.6 8.60469 11.6C10.1511 11.6 11.4047 10.3464 11.4047 8.8C11.4047 7.25361 10.1511 6 8.60469 6ZM7.40469 8.8C7.40469 8.13726 7.94195 7.6 8.60469 7.6C9.26743 7.6 9.80469 8.13726 9.80469 8.8C9.80469 9.46274 9.26743 10 8.60469 10C7.94195 10 7.40469 9.46274 7.40469 8.8Z" fill="black"/>
<path fill-rule="evenodd" clip-rule="evenodd" d="M6.00312 2.20312C3.90443 2.20312 2.20312 3.90442 2.20312 6.00313V18.0032C2.20312 20.1019 3.90443 21.8032 6.00312 21.8032H18.0031C20.1018 21.8032 21.8031 20.1019 21.8031 18.0032V6.00313C21.8031 3.90442 20.1018 2.20312 18.0031 2.20312H6.00312ZM3.80312 6.00313C3.80312 4.78812 4.78809 3.80313 6.00312 3.80313H18.0031C19.2181 3.80313 20.2031 4.78812 20.2031 6.00313V15.072L16.3686 11.2375C16.2186 11.0875 16.0151 11.0032 15.8029 11.0032C15.5907 11.0032 15.3872 11.0875 15.2372 11.2375L10.803 15.6717L8.5688 13.4375C8.25638 13.1251 7.74986 13.1251 7.43744 13.4375L3.80312 17.0718V6.00313ZM10.2476 17.3791L12.4374 19.5689C12.7498 19.8813 13.2564 19.8813 13.5688 19.5689C13.8812 19.2565 13.8812 18.7499 13.5688 18.4375L11.9344 16.8031L15.8029 12.9346L20.2031 17.3347V18.0032C20.2031 19.2182 19.2181 20.2032 18.0031 20.2032H6.00312C5.1723 20.2032 4.44907 19.7427 4.07473 19.063L8.00313 15.1346L10.227 17.3585C10.2304 17.3619 10.2338 17.3654 10.2372 17.3689C10.2407 17.3723 10.2441 17.3757 10.2476 17.3791Z" fill="black"/>
</svg>
