<svg width="24" height="24" viewBox="0 0 24 24" fill="none" xmlns="http://www.w3.org/2000/svg">
<path fill-rule="evenodd" clip-rule="evenodd" d="M1 3.59688C1 2.05048 2.2536 0.796875 3.8 0.796875H17.8C19.3464 0.796875 20.6 2.05048 20.6 3.59688V9.59688C20.6 10.0388 20.2418 10.3969 19.8 10.3969C19.3582 10.3969 19 10.0388 19 9.59688V3.59688C19 2.93414 18.4627 2.39688 17.8 2.39688H3.8C3.13726 2.39688 2.6 2.93414 2.6 3.59688V19.5969C2.6 20.2597 3.13726 20.7969 3.8 20.7969H9.8C10.2418 20.7969 10.6 21.1551 10.6 21.5969C10.6 22.0388 10.2418 22.3969 9.8 22.3969H3.8C2.2536 22.3969 1 21.1433 1 19.5969V3.59688Z" fill="black"/>
<path fill-rule="evenodd" clip-rule="evenodd" d="M6 6.59688C6 6.15505 6.35817 5.79688 6.8 5.79688H14.8C15.2418 5.79688 15.6 6.15505 15.6 6.59688C15.6 7.03871 15.2418 7.39688 14.8 7.39688H6.8C6.35817 7.39688 6 7.03871 6 6.59688Z" fill="black"/>
<path fill-rule="evenodd" clip-rule="evenodd" d="M6 10.5968C6 10.155 6.35817 9.79688 6.8 9.79688H14.8C15.2418 9.79688 15.6 10.155 15.6 10.5968C15.6 11.0387 15.2418 11.3968 14.8 11.3968H6.8C6.35817 11.3968 6 11.0387 6 10.5968Z" fill="black"/>
<path fill-rule="evenodd" clip-rule="evenodd" d="M6 14.5969C6 14.1551 6.35817 13.7969 6.8 13.7969H11.8C12.2418 13.7969 12.6 14.1551 12.6 14.5969C12.6 15.0388 12.2418 15.3969 11.8 15.3969H6.8C6.35817 15.3969 6 15.0388 6 14.5969Z" fill="black"/>
<path fill-rule="evenodd" clip-rule="evenodd" d="M19.0121 13.0391C19.3245 12.7266 19.831 12.7266 20.1435 13.0391L22.3657 15.2613C22.6781 15.5737 22.6781 16.0802 22.3657 16.3927L16.5879 22.1704C16.4379 22.3205 16.2344 22.4047 16.0222 22.4047H13.8C13.3582 22.4047 13 22.0466 13 21.6047V19.3825C13 19.1704 13.0843 18.9669 13.2343 18.8168L19.0121 13.0391ZM14.6 19.7139V20.8047H15.6909L20.6686 15.827L19.5778 14.7361L14.6 19.7139Z" fill="black"/>
</svg>
