<svg width="24" height="24" viewBox="0 0 24 24" fill="none" xmlns="http://www.w3.org/2000/svg">
<path d="M11.5742 14.2433C11.8085 14.009 12.1884 14.009 12.4227 14.2433C12.657 14.4777 12.657 14.8576 12.4227 15.0919L8.4227 19.0919C8.18839 19.3262 7.80849 19.3262 7.57417 19.0919L3.57417 15.0919C3.33986 14.8576 3.33986 14.4777 3.57417 14.2433C3.80849 14.009 4.18839 14.009 4.4227 14.2433L7.39844 17.2191V5.33437C7.39844 5.003 7.66707 4.73438 7.99844 4.73438C8.32981 4.73438 8.59844 5.003 8.59844 5.33437V17.2191L11.5742 14.2433Z" fill="black"/>
<path d="M12.4227 9.75876C12.1884 9.99308 11.8085 9.99308 11.5742 9.75876C11.3399 9.52445 11.3399 9.14456 11.5742 8.91024L15.5668 4.91767C15.6759 4.80466 15.829 4.73438 15.9985 4.73438C16.1679 4.73438 16.321 4.80463 16.4301 4.91761L20.4227 8.91024C20.657 9.14456 20.657 9.52445 20.4227 9.75876C20.1884 9.99308 19.8085 9.99308 19.5742 9.75876L16.5985 6.78304V18.6677C16.5985 18.9991 16.3298 19.2677 15.9985 19.2677C15.6671 19.2677 15.3985 18.9991 15.3985 18.6677V6.78304L12.4227 9.75876Z" fill="black"/>
</svg>
