<svg width="24" height="24" viewBox="0 0 24 24" fill="none" xmlns="http://www.w3.org/2000/svg">
<path d="M5.00322 8.8C5.00322 5.05817 8.06139 2 11.8032 2C13.487 2 14.9628 2.56319 16.103 3.4753C16.448 3.75131 16.5039 4.25475 16.2279 4.59976C15.9519 4.94477 15.4485 5.0007 15.1034 4.72469C14.2436 4.03681 13.1194 3.6 11.8032 3.6C8.94505 3.6 6.60322 5.94183 6.60322 8.8V13.8C6.60322 13.9548 6.55832 14.1062 6.47398 14.236L5.17398 16.236C4.93318 16.6064 4.43768 16.7115 4.06723 16.4708C3.69678 16.23 3.59167 15.7345 3.83247 15.364L5.00322 13.5628V8.8Z" fill="black"/>
<path fill-rule="evenodd" clip-rule="evenodd" d="M17.8 8.5C18.2418 8.5 18.6 8.85817 18.6 9.3V13.5578L20.4656 16.3562C20.5533 16.4877 20.6 16.6421 20.6 16.8V17.8C20.6 18.2418 20.2418 18.6 19.8 18.6H14.6002V18.8C14.6002 20.3418 13.342 21.6 11.8002 21.6C10.2584 21.6 9.0002 20.3418 9.0002 18.8V18.6H8.8C8.35817 18.6 8 18.2418 8 17.8C8 17.3582 8.35817 17 8.8 17H18.9719L17.1344 14.2438C17.0468 14.1123 17 13.9579 17 13.8V9.3C17 8.85817 17.3582 8.5 17.8 8.5ZM10.6002 18.6H13.0002V18.8C13.0002 19.4582 12.4584 20 11.8002 20C11.142 20 10.6002 19.4582 10.6002 18.8V18.6Z" fill="black"/>
<path d="M20.3657 4.36569C20.6781 4.05327 20.6781 3.54673 20.3657 3.23431C20.0533 2.9219 19.5467 2.9219 19.2343 3.23431L3.23431 19.2343C2.9219 19.5467 2.9219 20.0533 3.23431 20.3657C3.54673 20.6781 4.05327 20.6781 4.36569 20.3657L20.3657 4.36569Z" fill="black"/>
</svg>
