<svg width="24" height="24" viewBox="0 0 24 24" fill="none" xmlns="http://www.w3.org/2000/svg">
<path d="M11.3125 6.46502C11.3125 6.05718 11.6195 5.72656 11.9982 5.72656C14.4865 5.72656 16.7308 7.6915 17.1318 10.2821C17.194 10.6844 16.9417 11.0649 16.5681 11.1319C16.1945 11.199 15.8412 10.9272 15.779 10.5249C15.4942 8.68469 13.8528 7.20348 11.9982 7.20348C11.6195 7.20348 11.3125 6.87286 11.3125 6.46502Z" fill="black"/>
<path d="M16.5984 13.2984C16.985 13.2984 17.2984 12.985 17.2984 12.5984C17.2984 12.2118 16.985 11.8984 16.5984 11.8984C16.2118 11.8984 15.8984 12.2118 15.8984 12.5984C15.8984 12.985 16.2118 13.2984 16.5984 13.2984Z" fill="black"/>
<path fill-rule="evenodd" clip-rule="evenodd" d="M4.45508 16.8042V11.3887C4.45508 6.91933 7.84779 3.26562 11.9979 3.26562C16.1481 3.26562 19.5408 6.91933 19.5408 11.3887V16.8042H19.9982C20.3769 16.8042 20.6839 17.1348 20.6839 17.5426V20.0042C20.6839 20.412 20.3769 20.7426 19.9982 20.7426H3.99821C3.6195 20.7426 3.3125 20.412 3.3125 20.0042V17.5426C3.3125 17.1348 3.6195 16.8042 3.99821 16.8042H4.45508ZM5.8265 11.3887C5.8265 7.73501 8.60521 4.74254 11.9979 4.74254C15.3907 4.74254 18.1694 7.73501 18.1694 11.3887V16.8042H5.8265V11.3887ZM4.68393 19.2657V18.2811H19.3125V19.2657H4.68393Z" fill="black"/>
</svg>
