<svg width="24" height="24" viewBox="0 0 24 24" fill="none" xmlns="http://www.w3.org/2000/svg">
<path d="M14.8568 4.67165C15.3768 2.75165 17.3468 1.61165 19.2668 2.12165C21.1868 2.64165 22.3268 4.61165 21.8168 6.53165L18.1668 20.2217C17.9369 21.0817 17.1568 21.6817 16.2668 21.6817H5.64688C3.65688 21.6817 2.04688 20.0717 2.04688 18.0817C2.04688 16.0917 3.65688 14.4817 5.64688 14.4817H12.0568C12.1568 14.4817 12.2368 14.4217 12.2668 14.3217L14.8568 4.67165Z" fill="black"/>
<path d="M5.375 5.96565C5.375 5.29564 5.615 4.71565 6.095 4.23565C6.565 3.75565 7.145 3.51562 7.825 3.51562V8.41564C7.155 8.41564 6.575 8.17563 6.095 7.69563C5.615 7.22563 5.375 6.63565 5.375 5.96565Z" fill="black"/>
<path d="M12.0159 6.69656C11.5359 6.21656 10.9559 5.97656 10.2859 5.97656C9.61594 5.97656 9.02594 6.21656 8.55594 6.69656C8.07594 7.17656 7.83594 7.75656 7.83594 8.42656H12.7459C12.7459 7.74656 12.5059 7.16656 12.0259 6.69656H12.0159Z" fill="black"/>
<path d="M9.56594 12.6096C10.0459 12.1296 10.2859 11.5496 10.2859 10.8796C10.2859 10.2096 10.0459 9.61969 9.56594 9.14969C9.08594 8.66969 8.50594 8.42969 7.83594 8.42969V13.3396C8.51594 13.3396 9.09594 13.0996 9.56594 12.6196V12.6096Z" fill="black"/>
<path d="M3.63406 10.1596C4.11406 10.6396 4.69406 10.8796 5.36406 10.8796C6.03406 10.8796 6.62406 10.6396 7.09406 10.1596C7.56406 9.67969 7.81406 9.09969 7.81406 8.42969H2.91406C2.91406 9.10969 3.15406 9.68969 3.63406 10.1596Z" fill="black"/>
</svg>
