<svg width="24" height="24" viewBox="0 0 24 24" fill="none" xmlns="http://www.w3.org/2000/svg">
<g clip-path="url(#clip0_3903_44087)">
<mask id="mask0_3903_44087" style="mask-type:luminance" maskUnits="userSpaceOnUse" x="0" y="0" width="24" height="24">
<path d="M24 0H0V24H24V0Z" fill="white"/>
</mask>
<g mask="url(#mask0_3903_44087)">
<mask id="mask1_3903_44087" style="mask-type:luminance" maskUnits="userSpaceOnUse" x="0" y="0" width="24" height="24">
<path d="M24 0H0V24H24V0Z" fill="white"/>
</mask>
<g mask="url(#mask1_3903_44087)">
<mask id="mask2_3903_44087" style="mask-type:luminance" maskUnits="userSpaceOnUse" x="0" y="0" width="24" height="24">
<path d="M24 0H0V24H24V0Z" fill="white"/>
</mask>
<g mask="url(#mask2_3903_44087)">
<mask id="mask3_3903_44087" style="mask-type:luminance" maskUnits="userSpaceOnUse" x="0" y="0" width="24" height="24">
<path d="M24 0H0V24H24V0Z" fill="white"/>
</mask>
<g mask="url(#mask3_3903_44087)">
<mask id="mask4_3903_44087" style="mask-type:luminance" maskUnits="userSpaceOnUse" x="0" y="0" width="24" height="24">
<path d="M24 0H0V24H24V0Z" fill="white"/>
</mask>
<g mask="url(#mask4_3903_44087)">
<path d="M12.9516 1.55156C12.9516 1.02689 12.5263 0.601562 12.0016 0.601562C11.4769 0.601562 11.0516 1.02689 11.0516 1.55156V2.54846C6.56336 2.99408 2.99408 6.56336 2.54846 11.0516H1.55156C1.02689 11.0516 0.601562 11.4769 0.601562 12.0016C0.601562 12.5262 1.02689 12.9516 1.55156 12.9516H2.54846C2.99408 17.4398 6.56336 21.0091 11.0516 21.4547V22.4516C11.0516 22.9762 11.4769 23.4016 12.0016 23.4016C12.5263 23.4016 12.9516 22.9762 12.9516 22.4516V21.4547C13.3424 21.4159 13.7262 21.3534 14.1016 21.2687V19.3077C13.4346 19.4991 12.7301 19.6016 12.0016 19.6016C7.80419 19.6016 4.40156 16.1989 4.40156 12.0016C4.40156 7.80419 7.80419 4.40156 12.0016 4.40156C15.3603 4.40156 18.2101 6.58029 19.2149 9.60156H21.1958C20.2097 5.8133 16.9443 2.94488 12.9516 2.54846V1.55156Z" fill="black"/>
<path fill-rule="evenodd" clip-rule="evenodd" d="M12 16.75C14.6234 16.75 16.75 14.6234 16.75 12C16.75 9.37665 14.6234 7.25 12 7.25C9.37665 7.25 7.25 9.37665 7.25 12C7.25 14.6234 9.37665 16.75 12 16.75ZM12 14.75C13.5188 14.75 14.75 13.5188 14.75 12C14.75 10.4812 13.5188 9.25 12 9.25C10.4812 9.25 9.25 10.4812 9.25 12C9.25 13.5188 10.4812 14.75 12 14.75Z" fill="black"/>
<path d="M23.1929 16.4048C23.3362 15.2809 22.9299 14.3372 22.2398 13.7004C21.5694 13.0819 20.6542 12.7708 19.7645 12.8076C18.0413 12.8789 16.3984 14.2197 16.3984 16.1145C16.3984 16.5755 16.7722 16.9493 17.2333 16.9493C17.6943 16.9493 18.0681 16.5755 18.0681 16.1145C18.0681 15.2779 18.8326 14.5173 19.8335 14.4759C20.3058 14.4563 20.7815 14.6268 21.1075 14.9276C21.4137 15.2101 21.6093 15.6233 21.5366 16.1936C21.484 16.6065 21.2226 16.8019 20.5233 17.2896C19.8997 17.7245 18.9641 18.4025 18.9641 19.8236C18.9641 20.2847 19.3379 20.6584 19.799 20.6584C20.2601 20.6584 20.6339 20.2847 20.6339 19.8236C20.6339 19.3183 20.8732 19.0812 21.4785 18.6591C21.5179 18.6316 21.5601 18.6028 21.6045 18.5725C22.1555 18.196 23.0417 17.5906 23.1929 16.4048Z" fill="black"/>
<path d="M20.7149 21.9591C20.7149 22.4629 20.3065 22.8712 19.8027 22.8712C19.2989 22.8712 18.8906 22.4629 18.8906 21.9591C18.8906 21.4553 19.2989 21.0469 19.8027 21.0469C20.3065 21.0469 20.7149 21.4553 20.7149 21.9591Z" fill="black"/>
</g>
</g>
</g>
</g>
</g>
</g>
<defs>
<clipPath id="clip0_3903_44087">
<rect width="24" height="24" fill="white"/>
</clipPath>
</defs>
</svg>
