<svg width="24" height="24" viewBox="0 0 24 24" fill="none" xmlns="http://www.w3.org/2000/svg">
<path d="M7.35959 14.6562C6.44341 15.6863 1.39757 21.4216 2.04085 22.0648C2.68414 22.7081 8.43133 17.6744 9.46363 16.7603L7.35959 14.6562Z" fill="black"/>
<path fill-rule="evenodd" clip-rule="evenodd" d="M13.7401 5.53318C13.7484 6.04128 13.5148 6.52318 13.1107 6.83143L9.318 9.72415C8.91661 10.0304 8.39453 10.129 7.90954 9.9908C7.90522 9.98966 7.8928 9.98644 7.87301 9.98185C7.83281 9.97253 7.76371 9.95786 7.6716 9.94332C7.48467 9.91381 7.21899 9.88734 6.91725 9.90046C6.40158 9.92288 5.85352 10.0543 5.37595 10.4177L13.6888 18.7304C14.052 18.2529 14.1833 17.7051 14.2058 17.1895C14.2189 16.8877 14.1924 16.6221 14.1629 16.4351C14.1484 16.3429 14.1337 16.2739 14.1244 16.2337C14.1198 16.2139 14.1166 16.2015 14.1154 16.1972C13.9773 15.7122 14.0759 15.1901 14.3821 14.7887L17.2748 10.996C17.5832 10.5916 18.0656 10.358 18.574 10.3666H18.5823C18.5926 10.3667 18.6108 10.3667 18.6359 10.3665C18.6862 10.3661 18.7636 10.3645 18.861 10.3604C19.0583 10.3519 19.325 10.3329 19.6083 10.2919C19.885 10.2516 20.1436 10.1954 20.3554 10.1236L13.983 3.75101C13.9112 3.96274 13.8549 4.22131 13.8148 4.49789C13.7737 4.78123 13.7546 5.04782 13.7462 5.2451C13.7421 5.34249 13.7406 5.41988 13.7402 5.47022C13.74 5.49532 13.74 5.51347 13.7401 5.52378V5.53318ZM15.6543 15.759C15.6543 15.759 16.4042 18.3088 14.6043 20.1087C14.1073 20.6059 13.3014 20.6059 12.8044 20.1087L3.99766 11.3021C3.50063 10.8051 3.50085 9.99895 3.99788 9.50191C5.7978 7.70199 8.34768 8.45196 8.34768 8.45196L12.1404 5.55923C12.1404 5.55923 12.0973 3.20242 12.9972 2.30246C13.4943 1.80543 14.3001 1.80543 14.7972 2.30246L21.804 9.30928C22.301 9.80631 22.301 10.6122 21.804 11.1093C20.904 12.0092 18.547 11.9664 18.547 11.9664L15.6543 15.759Z" fill="black"/>
</svg>
