<svg width="24" height="24" viewBox="0 0 24 24" fill="none" xmlns="http://www.w3.org/2000/svg">
<path fill-rule="evenodd" clip-rule="evenodd" d="M5.5625 8.34156C4.05995 9.57509 2.37828 11.4798 2.10188 13.533C2.0759 13.7158 2.0625 13.9022 2.0625 14.0916L2.06251 14.1016L2.0625 14.1119C2.07433 16.4497 4.12931 18.3416 6.6625 18.3416C9.20301 18.3416 11.2625 16.4388 11.2625 14.0916C11.2625 11.7444 9.20301 9.84156 6.6625 9.84156C6.27338 9.84156 5.89554 9.8862 5.53466 9.97023C7.14392 8.23771 9.21107 7.10743 10.619 6.56923C10.836 6.48627 10.9341 6.23003 10.8194 6.02794C10.754 5.91274 10.6319 5.83969 10.5001 5.85316C9.28934 5.97699 7.10535 7.07493 5.5625 8.34156ZM6.6625 17.1416C8.63145 17.1416 10.0625 15.6884 10.0625 14.0916C10.0625 12.4948 8.63145 11.0416 6.6625 11.0416C4.69355 11.0416 3.2625 12.4948 3.2625 14.0916C3.2625 15.6884 4.69355 17.1416 6.6625 17.1416Z" fill="black"/>
<path fill-rule="evenodd" clip-rule="evenodd" d="M16.2422 8.34156C14.7397 9.57509 13.058 11.4798 12.7816 13.533C12.7556 13.7158 12.7422 13.9022 12.7422 14.0916L12.7423 14.1016L12.7422 14.1119C12.7541 16.4497 14.8091 18.3416 17.3422 18.3416C19.8828 18.3416 21.9422 16.4388 21.9422 14.0916C21.9422 11.7444 19.8828 9.84156 17.3422 9.84156C16.9531 9.84156 16.5753 9.8862 16.2144 9.97023C17.8237 8.23771 19.8908 7.10743 21.2988 6.56923C21.5158 6.48627 21.6139 6.23003 21.4992 6.02794C21.4338 5.91274 21.3117 5.83969 21.1799 5.85316C19.9691 5.97699 17.7851 7.07493 16.2422 8.34156ZM17.3422 17.1416C19.3112 17.1416 20.7422 15.6884 20.7422 14.0916C20.7422 12.4948 19.3112 11.0416 17.3422 11.0416C15.3733 11.0416 13.9422 12.4948 13.9422 14.0916C13.9422 15.6884 15.3733 17.1416 17.3422 17.1416Z" fill="black"/>
</svg>
