<svg width="24" height="24" viewBox="0 0 24 24" fill="none" xmlns="http://www.w3.org/2000/svg">
<path d="M8.03441 1.65324C8.32393 1.26789 8.87103 1.19021 9.25638 1.47973C10.0222 2.05506 10.9728 2.39565 12.0054 2.39565C13.0381 2.39565 13.9887 2.05506 14.7545 1.47973C15.1398 1.19021 15.6869 1.26789 15.9764 1.65324C16.266 2.0386 16.1883 2.58569 15.8029 2.87521C14.7452 3.66986 13.4291 4.14111 12.0054 4.14111C10.5818 4.14111 9.2656 3.66986 8.20793 2.87521C7.82258 2.58569 7.74489 2.0386 8.03441 1.65324Z" fill="black"/>
<path d="M5.82542 4.41759C6.09841 4.02035 6.64173 3.91962 7.03897 4.19261C8.44943 5.16189 10.1568 5.7291 11.9992 5.7291C13.8417 5.7291 15.549 5.16189 16.9595 4.19261C17.3567 3.91962 17.9001 4.02035 18.173 4.41759C18.446 4.81483 18.3453 5.35815 17.9481 5.63113C16.256 6.79393 14.2058 7.47455 11.9992 7.47455C9.79268 7.47455 7.74247 6.79393 6.0504 5.63113C5.65316 5.35815 5.55244 4.81483 5.82542 4.41759Z" fill="black"/>
<path fill-rule="evenodd" clip-rule="evenodd" d="M3.22253 16.6117C3.31321 16.5718 3.40393 16.5289 3.4937 16.4838V21.8181C3.4937 22.3001 3.88443 22.6908 4.36642 22.6908C4.84842 22.6908 5.23915 22.3001 5.23915 21.8181V16.8708C5.73497 17.3436 6.07679 17.905 6.31315 18.4424C6.5092 18.8882 6.62521 19.3021 6.69168 19.6034C6.72474 19.7532 6.74507 19.873 6.75682 19.9521C6.76128 19.9821 6.76448 20.0061 6.76668 20.0236V21.8178C6.76668 22.2998 7.15741 22.6905 7.6394 22.6905C8.1214 22.6905 8.51213 22.2998 8.51213 21.8178V19.9747C8.51213 19.9483 8.51092 19.9218 8.50852 19.8954L8.50837 19.8939L8.5082 19.892L8.50775 19.8873L8.50641 19.8741L8.50181 19.833C8.49782 19.7993 8.49186 19.753 8.48332 19.6956C8.46627 19.5808 8.43885 19.4209 8.39614 19.2273C8.31105 18.8416 8.16336 18.3137 7.91089 17.7397C7.61322 17.0629 7.15928 16.3003 6.47517 15.6374C8.23904 15.2606 10.1147 15.0544 12.0588 15.0544C13.987 15.0544 15.8076 15.2668 17.5303 15.638C16.8465 16.3008 16.3928 17.0631 16.0952 17.7397C15.8427 18.3137 15.695 18.8416 15.61 19.2273C15.5672 19.4209 15.5398 19.5808 15.5228 19.6956C15.5142 19.753 15.5083 19.7993 15.5043 19.833L15.4997 19.8741L15.4983 19.8873L15.4979 19.892L15.4977 19.8939L15.4976 19.8954C15.4952 19.9218 15.494 19.9483 15.494 19.9747V21.8178C15.494 22.2998 15.8847 22.6905 16.3667 22.6905C16.8487 22.6905 17.2394 22.2998 17.2394 21.8178V20.0236C17.2416 20.0061 17.2448 19.9821 17.2493 19.9521C17.261 19.873 17.2813 19.7532 17.3144 19.6034C17.3809 19.3021 17.4969 18.8882 17.6929 18.4424C17.9292 17.9052 18.2709 17.3441 18.7664 16.8713V21.8181C18.7664 22.3001 19.1571 22.6908 19.6391 22.6908C20.1211 22.6908 20.5118 22.3001 20.5118 21.8181V16.5832C20.5937 16.6294 20.6763 16.6735 20.7589 16.7148C21.0559 16.8633 21.3885 16.9938 21.7098 17.0397C22.0225 17.0843 22.4393 17.0619 22.7522 16.749C22.8545 16.6467 22.9119 16.508 22.9119 16.3633C22.9119 15.9546 22.6334 15.6724 22.4238 15.5131C22.1933 15.3379 21.8989 15.1973 21.5997 15.0876C21.261 14.9634 20.8761 14.8645 20.4946 14.802C20.2538 11.5273 17.5207 8.94531 14.1846 8.94531H9.82097C6.48764 8.94531 3.75635 11.5229 3.51155 14.7937C3.1372 14.8482 2.75941 14.9338 2.42624 15.0413C2.13015 15.1369 1.8383 15.2595 1.60868 15.4131C1.4147 15.5428 1.09375 15.8093 1.09375 16.2325C1.09375 16.3892 1.16118 16.5384 1.27885 16.6419C1.58992 16.9157 1.98987 16.931 2.28679 16.8937C2.59901 16.8544 2.92616 16.7421 3.22253 16.6117ZM12.0588 13.309C9.7277 13.309 7.48373 13.5877 5.39214 14.0941C5.91218 12.1347 7.69795 10.6908 9.82097 10.6908H14.1846C16.3082 10.6908 18.0944 12.1355 18.6138 14.0958C16.5689 13.5994 14.3876 13.309 12.0588 13.309Z" fill="black"/>
</svg>
