<svg width="24" height="24" viewBox="0 0 24 24" fill="none" xmlns="http://www.w3.org/2000/svg">
<path fill-rule="evenodd" clip-rule="evenodd" d="M6.12812 9.0689C6.12812 5.82505 8.75692 3.20312 12.0032 3.20312C15.2494 3.20312 17.8782 5.82504 17.8782 9.0689C17.8782 10.8221 17.1069 12.3904 15.8859 13.4627C18.3685 14.8318 20.0532 17.4694 20.0532 20.5032C20.0532 20.945 19.695 21.3031 19.2532 21.3031C18.8113 21.3031 18.4532 20.945 18.4532 20.5032C18.4532 17.6416 16.5786 15.2128 13.9832 14.375C13.6726 14.2748 13.4541 13.996 13.4309 13.6705C13.4078 13.345 13.5846 13.038 13.8778 12.8948C15.3048 12.1979 16.2782 10.747 16.2782 9.0689C16.2782 6.71144 14.3684 4.80314 12.0032 4.80314C9.63783 4.80314 7.72812 6.71144 7.72812 9.0689C7.72812 10.7472 8.70883 12.2046 10.1272 12.8942C10.4209 13.037 10.5983 13.344 10.5754 13.6697C10.5525 13.9955 10.3339 14.2747 10.0232 14.375C7.42727 15.2129 5.55318 17.6348 5.55318 20.5032C5.55318 20.945 5.19495 21.3031 4.75312 21.3031C4.31129 21.3031 3.95312 20.945 3.95312 20.5032C3.95312 17.4631 5.6378 14.8302 8.1198 13.4626C6.90172 12.3913 6.12812 10.82 6.12812 9.0689Z" fill="black"/>
</svg>
