<svg width="24" height="24" viewBox="0 0 24 24" fill="none" xmlns="http://www.w3.org/2000/svg">
<path fill-rule="evenodd" clip-rule="evenodd" d="M5.00312 5.20312C5.44495 5.20312 5.80312 5.5613 5.80312 6.00313V18.0032C5.80312 19.2182 6.7881 20.2032 8.00313 20.2032H16.0032C17.2182 20.2032 18.2032 19.2182 18.2032 18.0032V6.00313C18.2032 5.5613 18.5613 5.20312 19.0032 5.20312C19.445 5.20312 19.8032 5.5613 19.8032 6.00313V18.0032C19.8032 20.1018 18.1018 21.8032 16.0032 21.8032H8.00313C5.90445 21.8032 4.20312 20.1018 4.20312 18.0032V6.00313C4.20312 5.5613 4.56129 5.20312 5.00312 5.20312Z" fill="black"/>
<path fill-rule="evenodd" clip-rule="evenodd" d="M8.50313 10.2031C8.94496 10.2031 9.30312 10.5612 9.30312 11.0031V16.0031C9.30312 16.4449 8.94496 16.8031 8.50313 16.8031C8.0613 16.8031 7.70312 16.4449 7.70312 16.0031V11.0031C7.70312 10.5612 8.0613 10.2031 8.50313 10.2031Z" fill="black"/>
<path fill-rule="evenodd" clip-rule="evenodd" d="M12.0031 10.2031C12.4449 10.2031 12.8031 10.5612 12.8031 11.0031V16.0031C12.8031 16.4449 12.4449 16.8031 12.0031 16.8031C11.5612 16.8031 11.2031 16.4449 11.2031 16.0031V11.0031C11.2031 10.5612 11.5612 10.2031 12.0031 10.2031Z" fill="black"/>
<path fill-rule="evenodd" clip-rule="evenodd" d="M15.5031 10.2031C15.9449 10.2031 16.3031 10.5612 16.3031 11.0031V16.0031C16.3031 16.4449 15.9449 16.8031 15.5031 16.8031C15.0612 16.8031 14.7031 16.4449 14.7031 16.0031V11.0031C14.7031 10.5612 15.0612 10.2031 15.5031 10.2031Z" fill="black"/>
<path fill-rule="evenodd" clip-rule="evenodd" d="M2.20312 6.00313C2.20312 5.5613 2.56129 5.20312 3.00312 5.20312H21.0032C21.445 5.20312 21.8031 5.5613 21.8031 6.00313C21.8031 6.44496 21.445 6.80312 21.0032 6.80312H3.00312C2.56129 6.80312 2.20312 6.44496 2.20312 6.00313Z" fill="black"/>
<path fill-rule="evenodd" clip-rule="evenodd" d="M8.24418 2.75014C8.35307 2.42347 8.65878 2.20312 9.00313 2.20312H15.0032C15.3475 2.20312 15.6532 2.42347 15.7621 2.75014L16.7621 5.75016C16.8434 5.99412 16.8025 6.26227 16.6522 6.47089C16.5018 6.6795 16.2603 6.80313 16.0032 6.80313H8.00313C7.74597 6.80313 7.50449 6.6795 7.35413 6.47089C7.20377 6.26227 7.16287 5.99412 7.24419 5.75016L8.24418 2.75014ZM9.57974 3.80313L9.11308 5.20313H14.8932L14.4265 3.80313H9.57974Z" fill="black"/>
</svg>
