<svg width="24" height="24" viewBox="0 0 24 24" fill="none" xmlns="http://www.w3.org/2000/svg">
<path d="M13.2141 3.00156C13.2141 2.5045 12.8112 2.10156 12.3141 2.10156C11.8171 2.10156 11.4141 2.5045 11.4141 3.00156V6.00156C11.4141 6.49861 11.8171 6.90156 12.3141 6.90156C12.8112 6.90156 13.2141 6.49861 13.2141 6.00156V3.00156Z" fill="black"/>
<path d="M18.9155 6.10671C19.267 5.75524 19.267 5.18539 18.9155 4.83392C18.5641 4.48244 17.9942 4.48244 17.6427 4.83392L15.5214 6.95524C15.1699 7.30671 15.1699 7.87656 15.5214 8.22803C15.8729 8.5795 16.4427 8.5795 16.7942 8.22803L18.9155 6.10671Z" fill="black"/>
<path d="M21.6437 11.4313C21.6437 11.9283 21.2407 12.3313 20.7437 12.3313H17.7437C17.2466 12.3313 16.8438 11.9283 16.8438 11.4313C16.8438 10.9342 17.2466 10.5312 17.7437 10.5312H20.7437C21.2407 10.5312 21.6437 10.9342 21.6437 11.4313Z" fill="black"/>
<path d="M17.6427 18.0327C17.9942 18.3842 18.564 18.3842 18.9155 18.0327C19.267 17.6813 19.267 17.1114 18.9155 16.7599L16.7942 14.6386C16.4427 14.2871 15.8728 14.2871 15.5214 14.6386C15.1699 14.9901 15.1699 15.5599 15.5214 15.9114L17.6427 18.0327Z" fill="black"/>
<path d="M12.3141 20.7609C11.8171 20.7609 11.4141 20.358 11.4141 19.8609V16.8609C11.4141 16.3639 11.8171 15.9609 12.3141 15.9609C12.8112 15.9609 13.2141 16.3639 13.2141 16.8609V19.8609C13.2141 20.358 12.8112 20.7609 12.3141 20.7609Z" fill="black"/>
<path d="M1.71673 20.7599C1.36526 21.1113 1.36526 21.6814 1.71673 22.0329C2.0682 22.3843 2.63805 22.3843 2.98952 22.0329L9.11084 15.9114C9.46231 15.56 9.46231 14.99 9.11084 14.6385C8.75937 14.2871 8.18952 14.2871 7.83805 14.6385L1.71673 20.7599Z" fill="black"/>
<path d="M2.98438 11.4313C2.98438 10.9343 3.38733 10.5312 3.88438 10.5312H6.88432C7.38138 10.5312 7.78438 10.9343 7.78438 11.4313C7.78438 11.9284 7.38138 12.3313 6.88432 12.3313H3.88438C3.38733 12.3313 2.98438 11.9284 2.98438 11.4313Z" fill="black"/>
<path d="M6.98952 4.83391C6.63805 4.48245 6.0682 4.48245 5.71673 4.83391C5.36526 5.18538 5.36526 5.75523 5.71673 6.1067L7.83805 8.22802C8.18952 8.5795 8.75937 8.5795 9.11084 8.22802C9.46231 7.87655 9.46231 7.3067 9.11084 6.95523L6.98952 4.83391Z" fill="black"/>
</svg>
