<svg width="24" height="24" viewBox="0 0 24 24" fill="none" xmlns="http://www.w3.org/2000/svg">
<path d="M13.2969 3C13.2969 2.44772 12.8492 2 12.2969 2C11.7446 2 11.2969 2.44772 11.2969 3V6C11.2969 6.55228 11.7446 7 12.2969 7C12.8492 7 13.2969 6.55228 13.2969 6V3Z" fill="black"/>
<path d="M18.8283 4.8007C18.4378 4.41018 17.8046 4.41018 17.4141 4.8007L15.293 6.92202C14.9024 7.31254 14.9024 7.94571 15.293 8.33623C15.6833 8.72676 16.3165 8.72676 16.707 8.33623L18.8283 6.21491C19.2188 5.82439 19.2188 5.19122 18.8283 4.8007Z" fill="black"/>
<path d="M7.15242 4.8007C6.76189 4.41018 6.12873 4.41018 5.7382 4.8007C5.34768 5.19123 5.34768 5.82439 5.7382 6.21492L7.85952 8.33624C8.25005 8.72676 8.88321 8.72676 9.27374 8.33624C9.66426 7.94571 9.66426 7.31255 9.27374 6.92202L7.15242 4.8007Z" fill="black"/>
<path d="M21.7969 11.3984C21.7969 11.9507 21.3492 12.3984 20.7969 12.3984H17.7969C17.2446 12.3984 16.7969 11.9507 16.7969 11.3984C16.7969 10.8462 17.2446 10.3984 17.7969 10.3984H20.7969C21.3492 10.3984 21.7969 10.8462 21.7969 11.3984Z" fill="black"/>
<path d="M4 10.4531C3.44772 10.4531 3 10.9008 3 11.4531C3 12.0053 3.44772 12.4531 4 12.4531H7C7.55228 12.4531 8 12.0053 8 11.4531C8 10.9008 7.55228 10.4531 7 10.4531H4Z" fill="black"/>
<path d="M9.20711 15.9571C9.59763 15.5666 9.59763 14.9334 9.20711 14.5429C8.81658 14.1524 8.18342 14.1524 7.79289 14.5429L1.79289 20.5429C1.40237 20.9334 1.40237 21.5666 1.79289 21.9571C2.18342 22.3476 2.81658 22.3476 3.20711 21.9571L9.20711 15.9571Z" fill="black"/>
<path d="M17.6486 18.0549C18.0392 18.4454 18.6723 18.4454 19.0628 18.0549C19.4534 17.6644 19.4534 17.0312 19.0628 16.6407L16.9418 14.5194C16.5512 14.1289 15.918 14.1289 15.5272 14.5194C15.1367 14.9099 15.1367 15.5431 15.5272 15.9336L17.6486 18.0549Z" fill="black"/>
<path d="M12.2969 20.8516C11.7446 20.8516 11.2969 20.4039 11.2969 19.8516V16.8516C11.2969 16.2993 11.7446 15.8516 12.2969 15.8516C12.8492 15.8516 13.2969 16.2993 13.2969 16.8516V19.8516C13.2969 20.4039 12.8492 20.8516 12.2969 20.8516Z" fill="black"/>
</svg>
