<svg width="24" height="24" viewBox="0 0 24 24" fill="none" xmlns="http://www.w3.org/2000/svg">
<path fill-rule="evenodd" clip-rule="evenodd" d="M2.20312 4.00313C2.20312 2.45674 3.45673 1.20312 5.00312 1.20312H19.0032C20.5495 1.20312 21.8031 2.45674 21.8031 4.00313V20.0032C21.8031 21.5495 20.5495 22.8031 19.0032 22.8031H5.00312C3.45673 22.8031 2.20312 21.5495 2.20312 20.0032V4.00313ZM5.00312 2.80313C4.34038 2.80313 3.80312 3.34039 3.80312 4.00313V20.0032C3.80312 20.6659 4.34038 21.2032 5.00312 21.2032H19.0032C19.6659 21.2032 20.2032 20.6659 20.2032 20.0032V4.00313C20.2032 3.34039 19.6659 2.80313 19.0032 2.80313H5.00312Z" fill="black"/>
<path fill-rule="evenodd" clip-rule="evenodd" d="M6.20312 6.00313C6.20312 5.5613 6.56129 5.20312 7.00312 5.20312H17.0032C17.445 5.20312 17.8032 5.5613 17.8032 6.00313V9.00313C17.8032 9.44496 17.445 9.80311 17.0032 9.80311H7.00312C6.56129 9.80311 6.20312 9.44496 6.20312 9.00313V6.00313ZM7.80312 6.80312V8.20312H16.2032V6.80312H7.80312Z" fill="black"/>
<path fill-rule="evenodd" clip-rule="evenodd" d="M6.20312 13.0031C6.20312 12.5612 6.56129 12.2031 7.00312 12.2031H17.0032C17.445 12.2031 17.8032 12.5612 17.8032 13.0031C17.8032 13.4449 17.445 13.8031 17.0032 13.8031H7.00312C6.56129 13.8031 6.20312 13.4449 6.20312 13.0031Z" fill="black"/>
<path fill-rule="evenodd" clip-rule="evenodd" d="M6.20312 17.0031C6.20312 16.5612 6.56129 16.2031 7.00312 16.2031H14.0032C14.445 16.2031 14.8032 16.5612 14.8032 17.0031C14.8032 17.4449 14.445 17.8031 14.0032 17.8031H7.00312C6.56129 17.8031 6.20312 17.4449 6.20312 17.0031Z" fill="black"/>
</svg>
