<svg width="24" height="24" viewBox="0 0 24 24" fill="none" xmlns="http://www.w3.org/2000/svg">
<path fill-rule="evenodd" clip-rule="evenodd" d="M2 12C2 6.47715 6.47715 2 12 2C17.5228 2 22 6.47715 22 12C22 17.5228 17.5228 22 12 22C6.47715 22 2 17.5228 2 12ZM12 3.33333C7.21353 3.33333 3.33333 7.21353 3.33333 12C3.33333 16.7865 7.21353 20.6667 12 20.6667C16.7865 20.6667 20.6667 16.7865 20.6667 12C20.6667 7.21353 16.7865 3.33333 12 3.33333Z" fill="black"/>
<path fill-rule="evenodd" clip-rule="evenodd" d="M14.2117 8.20794C14.8336 8.78024 15.2016 9.62865 15.0728 10.6508C14.9399 11.706 14.1578 12.2426 13.6177 12.6129C13.5763 12.6413 13.5363 12.6687 13.4981 12.6953C12.9082 13.1066 12.588 13.3919 12.588 13.9984C12.588 14.3298 12.3193 14.5984 11.988 14.5984C11.6566 14.5984 11.388 14.3298 11.388 13.9984C11.388 12.7336 12.2088 12.1314 12.8118 11.7109L12.8214 11.7042C13.4723 11.2504 13.8182 11.0093 13.8822 10.5007C13.961 9.87543 13.744 9.40833 13.3991 9.09096C13.0398 8.76037 12.5236 8.57851 12.0134 8.60016C10.9516 8.64521 10.0984 9.45379 10.0984 10.3998C10.0984 10.7311 9.82981 10.9998 9.49844 10.9998C9.16707 10.9998 8.89844 10.7311 8.89844 10.3998C8.89844 8.6908 10.3854 7.46815 11.9625 7.40124C12.7718 7.3669 13.6041 7.64887 14.2117 8.20794Z" fill="black"/>
<path d="M12.9591 16.3975C12.9591 16.9277 12.5293 17.3575 11.9991 17.3575C11.4689 17.3575 11.0391 16.9277 11.0391 16.3975C11.0391 15.8673 11.4689 15.4375 11.9991 15.4375C12.5293 15.4375 12.9591 15.8673 12.9591 16.3975Z" fill="black"/>
</svg>
