<svg width="24" height="24" viewBox="0 0 24 24" fill="none" xmlns="http://www.w3.org/2000/svg">
<path d="M18.6 9.22047C18.6 13.1692 14.64 16.4409 9.79998 16.4409C7.43469 18.6243 5.0694 19.2427 3.91925 19.4179C3.66913 19.4559 3.51899 19.1339 3.67195 18.9273C4.07568 18.3823 4.70114 17.393 5.39999 15.764C2.76 14.523 1 11.9281 1 9.22047C1 5.27178 4.95999 2 9.79998 2C14.64 2 18.6 5.27178 18.6 9.22047Z" fill="black"/>
<path d="M19.5362 6.07953C19.3047 5.93465 19.0437 6.20609 19.15 6.46202C19.5051 7.31711 19.7004 8.24331 19.7004 9.22091C19.7004 13.8594 15.3039 17.3408 10.2984 17.5588C10.249 17.5609 10.2015 17.5796 10.1636 17.6123L10.1098 17.6584C9.95218 17.7928 9.98098 18.0513 10.1704 18.1319C11.3806 18.6466 12.7365 18.9234 14.2004 18.9234C16.5858 21.1252 18.9712 21.7945 20.1102 21.9963C20.356 22.0398 20.5076 21.736 20.3591 21.5304C19.9568 20.9734 19.3172 19.9633 18.6004 18.3593C21.2404 17.1182 23.0004 14.5233 23.0004 11.8156C23.0004 9.45424 21.6251 7.38663 19.5362 6.07953Z" fill="black"/>
</svg>
