<svg width="24" height="24" viewBox="0 0 24 24" fill="none" xmlns="http://www.w3.org/2000/svg">
<path fill-rule="evenodd" clip-rule="evenodd" d="M16.7352 7.63667C16.5009 7.40236 16.121 7.40236 15.8866 7.63667C15.6523 7.87098 15.6523 8.25088 15.8866 8.4852L18.7999 11.3985H8.74844C8.41707 11.3985 8.14844 11.667 8.14844 11.9984C8.14844 12.3298 8.41707 12.5985 8.74844 12.5985H18.7999L15.8866 15.5117C15.6523 15.746 15.6523 16.1259 15.8866 16.3602C16.121 16.5945 16.5009 16.5945 16.7352 16.3602L20.6719 12.4236C20.6744 12.4209 20.677 12.4185 20.6795 12.4159C20.7336 12.36 20.7748 12.2961 20.8029 12.2281C20.8322 12.1574 20.8484 12.0798 20.8484 11.9984C20.8484 11.9172 20.8322 11.8396 20.8029 11.7688C20.7748 11.7009 20.7336 11.637 20.6795 11.5811C20.677 11.5786 20.6744 11.576 20.6719 11.5734" fill="black"/>
<path fill-rule="evenodd" clip-rule="evenodd" d="M4.74844 4.59844C4.7028 4.59844 4.66261 4.6162 4.6358 4.6422C4.60961 4.66759 4.59844 4.69802 4.59844 4.72572V19.2711C4.59844 19.2988 4.60962 19.3293 4.6358 19.3547C4.66261 19.3806 4.7028 19.3984 4.74844 19.3984H9.99844C10.3298 19.3984 10.5984 19.667 10.5984 19.9984C10.5984 20.3298 10.3298 20.5984 9.99844 20.5984H4.74844C4.39626 20.5984 4.05492 20.4629 3.80042 20.2161C3.54531 19.9687 3.39844 19.6292 3.39844 19.2711V4.72572C3.39844 4.36764 3.54531 4.0281 3.80042 3.78072C4.05492 3.53394 4.39626 3.39844 4.74844 3.39844H9.99844C10.3298 3.39844 10.5984 3.66707 10.5984 3.99844C10.5984 4.32981 10.3298 4.59844 9.99844 4.59844H4.74844Z" fill="black"/>
</svg>
