<svg width="24" height="24" viewBox="0 0 24 24" fill="none" xmlns="http://www.w3.org/2000/svg">
<path d="M15.7707 17.3002C16.011 17.9684 15.9479 18.6899 15.7684 19.3122C15.5867 19.9426 15.2644 20.5483 14.884 21.0336C14.5189 21.4993 14.0253 21.9487 13.457 22.1239C13.1561 22.2166 12.8008 22.241 12.446 22.1039C12.0886 21.9658 11.8255 21.7001 11.6456 21.3853C11.6356 21.3677 11.6263 21.3498 11.6176 21.3316C10.0724 18.0777 8.54047 15.8835 7.66283 14.8114C7.58816 14.7202 7.54688 14.6071 7.54688 14.4893V2.625C7.54688 2.34886 7.77073 2.125 8.04688 2.125H15.5047C16.9488 2.125 17.8642 2.44939 18.5054 3.0924C19.8513 4.44199 20.7245 6.638 21.3021 8.54307C21.6216 9.59719 21.9716 10.9729 21.9472 12.2064C21.9349 12.8281 21.8272 13.4733 21.5238 14.037C21.2084 14.6231 20.7021 15.0799 19.9881 15.3211C19.8202 15.3778 19.6546 15.4161 19.499 15.4356C19.466 15.4397 19.4327 15.4418 19.3995 15.4418H14.8502L15.7338 17.214C15.7478 17.242 15.7601 17.2708 15.7707 17.3002Z" fill="black"/>
<path d="M5.24677 2.125C5.66102 2.125 5.99677 2.46079 5.99677 2.875V13.7154C5.99677 14.1296 5.66102 14.4654 5.24677 14.4654H2.84682C2.40499 14.4654 2.04688 14.1073 2.04688 13.6654V2.925C2.04688 2.48317 2.40499 2.125 2.84682 2.125H5.24677Z" fill="black"/>
</svg>
