<svg width="24" height="24" viewBox="0 0 24 24" fill="none" xmlns="http://www.w3.org/2000/svg">
<path fill-rule="evenodd" clip-rule="evenodd" d="M20.2889 8.73925V9.82018C20.2889 13.193 17.5547 15.9272 14.1819 15.9272H9.81822C6.44541 15.9272 3.7112 13.193 3.7112 9.82018V8.74819C3.71085 8.73585 3.71085 8.72347 3.7112 8.71105V2.18381C3.7112 1.82346 4.00333 1.53134 4.36368 1.53134C4.72403 1.53134 5.01615 1.82346 5.01615 2.18381V7.60659C5.74606 7.05504 6.2129 6.32741 6.51184 5.64774C6.71501 5.18581 6.83501 4.75751 6.90383 4.44559C6.93812 4.29023 6.95934 4.16538 6.97176 4.08178C6.97774 4.04154 6.98166 4.011 6.984 3.99134V2.18372C6.984 1.82337 7.27613 1.53125 7.63648 1.53125C7.99683 1.53125 8.28896 1.82337 8.28896 2.18372V4.02675C8.28896 4.04655 8.28805 4.06634 8.28625 4.08606L8.28614 4.08726L8.286 4.08877L8.28562 4.09276L8.28443 4.1045L8.28017 4.14257C8.27641 4.17426 8.27074 4.21839 8.26254 4.27356C8.24616 4.38381 8.21963 4.53868 8.17813 4.72676C8.0954 5.10175 7.95171 5.61529 7.70636 6.17312C7.37331 6.93034 6.84246 7.79061 6.00655 8.48666C7.90675 8.92587 9.94146 9.16778 12.0559 9.16778C14.1574 9.16778 16.1322 8.91766 17.9922 8.48554C17.157 7.78969 16.6266 6.92993 16.2937 6.17312C16.0484 5.61529 15.9047 5.10175 15.8219 4.72676C15.7804 4.53868 15.7539 4.38381 15.7375 4.27356C15.7293 4.21839 15.7236 4.17426 15.7199 4.14257L15.7156 4.1045L15.7144 4.09276L15.7141 4.08877L15.7138 4.08606C15.712 4.06634 15.7111 4.04655 15.7111 4.02675V2.18372C15.7111 1.82337 16.0032 1.53125 16.3636 1.53125C16.7239 1.53125 17.0161 1.82337 17.0161 2.18372V3.99134C17.0184 4.011 17.0223 4.04154 17.0283 4.08178C17.0407 4.16538 17.0619 4.29023 17.0962 4.44559C17.1651 4.75751 17.2851 5.18581 17.4882 5.64774C17.7872 6.32742 18.254 7.05506 18.9839 7.60661V2.18381C18.9839 1.82346 19.2761 1.53134 19.6364 1.53134C19.9968 1.53134 20.2889 1.82346 20.2889 2.18381V8.71964L20.289 8.7287L20.2889 8.73925ZM12.0559 10.4728C14.528 10.4728 16.8326 10.1428 18.9839 9.58552V9.82018C18.9839 12.4722 16.834 14.6223 14.1819 14.6223H9.81822C7.16611 14.6223 5.01615 12.4722 5.01615 9.82018V9.58725C7.21044 10.1569 9.58338 10.4728 12.0559 10.4728Z" fill="black"/>
<path d="M6.02467 19.9949C6.22132 20.2811 6.6127 20.3537 6.89885 20.157C8.34868 19.1607 10.1039 18.5776 11.9973 18.5776C13.8907 18.5776 15.646 19.1607 17.0958 20.157C17.3819 20.3537 17.7733 20.2811 17.97 19.9949C18.1666 19.7088 18.094 19.3174 17.8079 19.1208C16.1552 17.985 14.1529 17.3203 11.9973 17.3203C9.8417 17.3203 7.83943 17.985 6.18674 19.1208C5.90059 19.3174 5.82803 19.7088 6.02467 19.9949Z" fill="black"/>
<path d="M9.10789 22.3236C8.83031 22.5322 8.43621 22.4762 8.22765 22.1987C8.0191 21.9211 8.07506 21.527 8.35264 21.3184C9.36936 20.5545 10.6342 20.1016 12.003 20.1016C13.3718 20.1016 14.6366 20.5545 15.6533 21.3184C15.9309 21.527 15.9869 21.9211 15.7783 22.1987C15.5698 22.4762 15.1757 22.5322 14.8981 22.3236C14.0916 21.7178 13.0901 21.359 12.003 21.359C10.9158 21.359 9.91432 21.7178 9.10789 22.3236Z" fill="black"/>
</svg>
