<svg width="24" height="24" viewBox="0 0 24 24" fill="none" xmlns="http://www.w3.org/2000/svg">
<path fill-rule="evenodd" clip-rule="evenodd" d="M6.80005 6.00294V3.20312H4.8C3.2536 3.20312 2 4.45674 2 6.00313V20.0032C2 21.5496 3.2536 22.8032 4.8 22.8032H18.8C20.3464 22.8032 21.6 21.5496 21.6 20.0032V6.00313C21.6 4.45674 20.3464 3.20312 18.8 3.20312H16.8V6.00294C16.8 6.55522 16.3523 7.00294 15.8 7.00294H7.80005C7.24776 7.00294 6.80005 6.55522 6.80005 6.00294ZM16.4146 11.5149C16.6974 11.1755 16.6516 10.671 16.3122 10.3881C15.9727 10.1053 15.4683 10.1512 15.1854 10.4906L10.6976 15.876L8.31217 13.8881C7.97275 13.6053 7.46829 13.6512 7.18544 13.9906C6.90259 14.33 6.94845 14.8345 7.28787 15.1173L10.2879 17.6173C10.4509 17.7531 10.6611 17.8187 10.8724 17.7994C11.0837 17.7802 11.2788 17.6779 11.4146 17.5149L16.4146 11.5149Z" fill="black"/>
<path d="M8.39844 2.10156V4.90156C8.39844 5.1777 8.62229 5.40156 8.89844 5.40156H14.6984C14.9746 5.40156 15.1984 5.1777 15.1984 4.90156V2.10156C15.1984 1.82542 14.9746 1.60156 14.6984 1.60156H8.89844C8.62229 1.60156 8.39844 1.82541 8.39844 2.10156Z" fill="black"/>
</svg>
