<svg width="24" height="24" viewBox="0 0 24 24" fill="none" xmlns="http://www.w3.org/2000/svg">
<path fill-rule="evenodd" clip-rule="evenodd" d="M3.7112 9.79701C3.71084 9.80974 3.71085 9.82243 3.71123 9.83507C3.72199 13.8012 6.94048 17.0131 10.9091 17.0131H14.1819C18.1524 17.0131 21.3721 13.7982 21.3798 9.82942C21.38 9.82028 21.38 9.81115 21.3798 9.80204V3.26966C21.3798 2.90931 21.0877 2.61719 20.7273 2.61719C20.367 2.61719 20.0748 2.90931 20.0748 3.26966V8.6925C19.345 8.14095 18.8781 7.41334 18.5792 6.73368C18.376 6.27175 18.256 5.84345 18.1872 5.53153C18.1529 5.37617 18.1317 5.25132 18.1193 5.16772C18.1133 5.12748 18.1094 5.09694 18.107 5.07728V3.26966C18.107 2.90931 17.8149 2.61719 17.4546 2.61719C17.0942 2.61719 16.8021 2.90931 16.8021 3.26966V5.11269C16.8021 5.13249 16.803 5.15228 16.8048 5.172L16.805 5.17471L16.8054 5.1787L16.8066 5.19044L16.8109 5.22851C16.8146 5.2602 16.8203 5.30433 16.8285 5.3595C16.8449 5.46975 16.8714 5.62462 16.9129 5.8127C16.9956 6.18769 17.1393 6.70123 17.3847 7.25906C17.7146 8.00913 18.2386 8.86033 19.0609 9.55286C17.0403 9.9963 14.8928 10.2537 12.6053 10.2537C10.305 10.2537 8.09243 10.005 6.02874 9.55408C6.8519 8.86134 7.37632 8.00958 7.70642 7.25906C7.95177 6.70123 8.09546 6.18769 8.1782 5.8127C8.2197 5.62462 8.24622 5.46975 8.2626 5.3595C8.2708 5.30433 8.27648 5.2602 8.28023 5.22851L8.28449 5.19044L8.28568 5.1787L8.28607 5.17471L8.28621 5.1732L8.28632 5.172C8.28812 5.15228 8.28902 5.13249 8.28902 5.11269V3.26966C8.28902 2.90931 7.9969 2.61719 7.63654 2.61719C7.27619 2.61719 6.98407 2.90931 6.98407 3.26966V5.07728C6.98172 5.09694 6.9778 5.12748 6.97182 5.16772C6.9594 5.25132 6.93818 5.37617 6.9039 5.53153C6.83508 5.84345 6.71507 6.27175 6.5119 6.73368C6.21296 7.41337 5.7461 8.14102 5.01615 8.69258V3.26966C5.01615 2.90931 4.72403 2.61719 4.36368 2.61719C4.00333 2.61719 3.7112 2.90931 3.7112 3.26966V9.79701ZM5.07831 10.6742C5.49417 13.5216 7.94631 15.7081 10.9091 15.7081H14.1819C17.1453 15.7081 19.5979 13.5207 20.0129 10.6724C17.7124 11.2292 15.2483 11.5586 12.6053 11.5586C9.96152 11.5586 7.42429 11.2431 5.07831 10.6742Z" fill="black"/>
<path d="M2.49079 15.3876C2.13735 15.3174 1.79387 15.5469 1.72359 15.9003C1.65332 16.2538 1.88286 16.5973 2.2363 16.6675C3.32285 16.8836 4.36234 17.4276 5.21092 18.3062C6.06121 19.1865 6.54692 20.1824 6.78113 21.2736C6.85676 21.6259 7.20368 21.8503 7.55601 21.7746C7.90833 21.699 8.13265 21.3521 8.05702 20.9998C7.77602 19.6906 7.183 18.4695 6.14954 17.3996C5.11437 16.3278 3.8354 15.655 2.49079 15.3876Z" fill="black"/>
<path d="M1.56311 18.944C1.67403 18.6011 2.0419 18.4131 2.38475 18.524C3.00342 18.7242 3.57016 19.0741 4.05394 19.575C4.63519 20.1768 5.00475 20.9148 5.16533 21.6874C5.23866 22.0402 5.0121 22.3857 4.65929 22.459C4.30648 22.5324 3.96102 22.3058 3.88769 21.953C3.77456 21.4087 3.51621 20.8966 3.11533 20.4816C2.77799 20.1323 2.3948 19.8988 1.98305 19.7656C1.64019 19.6547 1.45218 19.2868 1.56311 18.944Z" fill="black"/>
</svg>
