<svg width="24" height="24" viewBox="0 0 24 24" fill="none" xmlns="http://www.w3.org/2000/svg">
<path fill-rule="evenodd" clip-rule="evenodd" d="M23.4228 11.8317C23.6567 12.0664 23.6576 12.4478 23.4247 12.6836L21.4182 14.7158C21.3061 14.8294 21.1537 14.8933 20.9947 14.8933C20.8357 14.8933 20.6833 14.8294 20.5712 14.7158L18.5647 12.6836C18.3318 12.4478 18.3327 12.0664 18.5666 11.8317C18.8006 11.597 19.1789 11.5979 19.4117 11.8337L20.9947 13.4369L22.5777 11.8337C22.8105 11.5979 23.1888 11.597 23.4228 11.8317Z" fill="black"/>
<path fill-rule="evenodd" clip-rule="evenodd" d="M10.9984 2.59844C5.80696 2.59844 1.59844 6.80697 1.59844 11.9984C1.59844 17.1899 5.80696 21.3984 10.9984 21.3984C12.9964 21.3984 14.8471 20.7757 16.3694 19.7139C16.6412 19.5243 17.0152 19.5909 17.2048 19.8627C17.3944 20.1345 17.3277 20.5085 17.0559 20.6981C15.3388 21.8959 13.2497 22.5984 10.9984 22.5984C5.14422 22.5984 0.398438 17.8526 0.398438 11.9984C0.398438 6.14422 5.14422 1.39844 10.9984 1.39844C16.8526 1.39844 21.5984 6.14422 21.5984 11.9984C21.5984 12.5119 21.5618 13.0173 21.4911 13.5119C21.4442 13.84 21.1402 14.0679 20.8122 14.0209C20.4841 13.974 20.2563 13.67 20.3032 13.342C20.3659 12.9035 20.3984 12.4549 20.3984 11.9984C20.3984 6.80697 16.1899 2.59844 10.9984 2.59844Z" fill="black"/>
<path d="M14.148 9.22217C14.4689 9.3047 14.6622 9.63176 14.5796 9.95269L14.1553 11.6031H14.9984C15.3298 11.6031 15.5984 11.8717 15.5984 12.2031C15.5984 12.5344 15.3298 12.8031 14.9984 12.8031H13.8467L13.2939 14.9527C13.2279 15.2094 13.0013 15.3924 12.7364 15.4028C12.4715 15.4132 12.2312 15.2486 12.1453 14.9979L11.3927 12.8031H10.6043L9.85187 14.9979C9.7659 15.2486 9.52559 15.4132 9.26073 15.4028C8.99586 15.3924 8.76922 15.2094 8.70321 14.9527L8.15043 12.8031H6.99844C6.66707 12.8031 6.39844 12.5344 6.39844 12.2031C6.39844 11.8717 6.66707 11.6031 6.99844 11.6031H7.84186L7.41749 9.95269C7.33497 9.63176 7.52823 9.3047 7.84916 9.22217C8.17009 9.13965 8.49716 9.33291 8.57968 9.65384L9.0809 11.6031H9.74724L10.431 9.60867C10.5141 9.36616 10.7422 9.20327 10.9985 9.20327C11.2549 9.20327 11.483 9.36616 11.5661 9.60867L12.2499 11.6031H12.9162L13.4175 9.65384C13.5 9.33291 13.827 9.13965 14.148 9.22217Z" fill="black"/>
</svg>
