<svg width="24" height="24" viewBox="0 0 24 24" fill="none" xmlns="http://www.w3.org/2000/svg">
<path d="M21.8081 17.7497L19.7981 16.0597C22.0181 12.1997 21.4881 7.18969 18.1881 3.88969C16.2181 1.91969 13.6281 0.929688 11.0481 0.929688C8.46813 0.929688 5.87813 1.91969 3.90813 3.88969C-0.0318766 7.83969 -0.0318766 14.2397 3.90813 18.1797C5.87813 20.1497 8.46813 21.1397 11.0481 21.1397C12.7781 21.1397 14.4981 20.6897 16.0381 19.8097L17.7281 21.8297C18.2481 22.4497 19.0081 22.8197 19.8181 22.8597C19.8581 22.8597 19.8981 22.8597 19.9381 22.8597C20.6981 22.8597 21.4381 22.5597 21.9881 22.0097C22.5581 21.4397 22.8681 20.6497 22.8281 19.8397C22.7881 19.0297 22.4181 18.2697 21.7981 17.7497H21.8081ZM4.75813 17.3297C1.28813 13.8597 1.28813 8.20969 4.75813 4.73969C6.43813 3.05969 8.67813 2.12969 11.0481 2.12969C13.4181 2.12969 15.6581 3.05969 17.3381 4.73969C20.8081 8.20969 20.8081 13.8597 17.3381 17.3297C15.6581 19.0097 13.4181 19.9397 11.0481 19.9397C8.67813 19.9397 6.43813 19.0097 4.75813 17.3297ZM21.1481 21.1597C20.8081 21.4997 20.3481 21.6797 19.8781 21.6497C19.3981 21.6297 18.9681 21.4197 18.6581 21.0497L17.0581 19.1397C17.4481 18.8497 17.8381 18.5297 18.1981 18.1797C18.5581 17.8297 18.8581 17.4597 19.1381 17.0697L21.0381 18.6697C21.4081 18.9797 21.6181 19.4097 21.6381 19.8897C21.6581 20.3697 21.4881 20.8197 21.1481 21.1597Z" fill="black"/>
<path d="M13.8889 10.8247C14.5489 9.99467 14.8089 8.90467 14.5889 7.82467C14.2989 6.41467 13.1489 5.29467 11.7289 5.03467C10.6589 4.84467 9.56892 5.12467 8.73892 5.81467C7.90892 6.50467 7.43892 7.51467 7.43892 8.59467C7.43892 9.42467 7.71892 10.2047 8.21892 10.8347C7.05892 11.3147 5.28892 12.3347 5.06892 14.0647C4.97892 14.7547 5.31892 15.5947 5.99892 16.3747C6.55892 17.0147 8.16892 18.4847 11.0589 18.4847C13.9489 18.4847 15.5589 17.0047 16.1189 16.3747C16.7989 15.6047 17.1389 14.7647 17.0489 14.0647C16.8289 12.3347 15.0489 11.3147 13.8989 10.8347L13.8889 10.8247ZM15.2189 15.5747C14.7689 16.0847 13.4589 17.2847 11.0589 17.2847C8.65892 17.2847 7.34892 16.0947 6.89892 15.5747C6.40892 15.0147 6.22892 14.4847 6.25892 14.2147C6.40892 13.0247 8.01892 12.1147 9.34892 11.6947L9.75892 11.5147L9.81892 11.1647C9.86892 10.9147 9.76892 10.6547 9.55892 10.4847C8.97892 10.0247 8.63892 9.33467 8.63892 8.59467C8.63892 7.85467 8.95892 7.19467 9.50892 6.73467C9.94892 6.36467 10.4889 6.17467 11.0489 6.17467C11.1989 6.17467 11.3589 6.18467 11.5089 6.21467C12.4389 6.38467 13.2189 7.14467 13.4089 8.06467C13.5989 8.98467 13.2689 9.90467 12.5489 10.4747C12.3389 10.6347 12.2489 10.8947 12.2889 11.1447L12.4189 11.5747L12.7589 11.6847C14.0889 12.1047 15.6889 13.0147 15.8389 14.2047C15.8789 14.4847 15.6889 15.0047 15.1989 15.5647L15.2189 15.5747Z" fill="black"/>
</svg>
