<svg width="24" height="24" viewBox="0 0 24 24" fill="none" xmlns="http://www.w3.org/2000/svg">
<path d="M12.5491 10.1406H11.7891V11.6706H12.5491C12.9691 11.6706 13.3091 11.3306 13.3091 10.9106C13.3091 10.4906 12.9691 10.1506 12.5491 10.1506V10.1406Z" fill="black"/>
<path fill-rule="evenodd" clip-rule="evenodd" d="M4.58594 11.9981C4.58594 7.89815 7.90594 4.57812 12.006 4.57812C16.106 4.57812 19.426 7.89815 19.426 11.9981C19.426 16.0981 16.106 19.4181 12.006 19.4181C7.90594 19.4181 4.58594 16.0981 4.58594 11.9981ZM11.796 13.4181H12.566C13.956 13.4181 15.076 12.2981 15.076 10.9081C15.076 9.51814 13.956 8.39812 12.566 8.39812H10.926C10.446 8.39812 10.056 8.78812 10.056 9.26812V14.7281C10.056 15.2081 10.446 15.5981 10.926 15.5981C11.406 15.5981 11.796 15.2081 11.796 14.7281V13.4181Z" fill="black"/>
<path d="M4.9025 4.75675C5.2825 5.04675 5.3525 5.59675 5.0625 5.97675C3.8125 7.60675 3.0525 9.72675 3.0525 12.0068C3.0525 14.2868 3.8025 16.3868 5.0525 18.0168C5.3425 18.3968 5.2725 18.9468 4.8925 19.2368C4.5125 19.5268 3.9625 19.4568 3.6725 19.0768C2.1925 17.1468 1.3125 14.6768 1.3125 11.9968C1.3125 9.31675 2.1925 6.84675 3.6825 4.91675C3.9725 4.53675 4.5225 4.46675 4.9025 4.75675Z" fill="black"/>
<path d="M20.3342 4.91675C20.0442 4.53675 19.4942 4.46675 19.1142 4.75675H19.1042C18.7242 5.04675 18.6542 5.59675 18.9442 5.97675C20.1842 7.59675 20.9442 9.75675 20.9442 12.1368C20.9442 14.3968 20.2542 16.4468 19.1342 18.0368C18.8542 18.4368 18.9542 18.9768 19.3442 19.2568C19.7442 19.5368 20.2842 19.4368 20.5642 19.0468C21.9042 17.1568 22.6942 14.8868 22.6942 12.1368C22.6942 9.38675 21.8142 6.84675 20.3342 4.91675Z" fill="black"/>
</svg>
