<svg width="24" height="24" viewBox="0 0 24 24" fill="none" xmlns="http://www.w3.org/2000/svg">
<path d="M3.50312 3.70312C3.06129 3.70312 2.70312 4.0613 2.70312 4.50313C2.70312 4.94497 3.06129 5.30314 3.50312 5.30314H17.5032C17.945 5.30314 18.3032 4.94497 18.3032 4.50313C18.3032 4.0613 17.945 3.70312 17.5032 3.70312H3.50312Z" fill="black"/>
<path d="M3.50312 9.70312C3.06129 9.70312 2.70312 10.0613 2.70312 10.5032C2.70312 10.945 3.06129 11.3032 3.50312 11.3032H17.5032C17.945 11.3032 18.3032 10.945 18.3032 10.5032C18.3032 10.0613 17.945 9.70312 17.5032 9.70312H3.50312Z" fill="black"/>
<path d="M2.70312 16.5031C2.70312 16.0612 3.06129 15.7031 3.50312 15.7031H9.50313C9.94496 15.7031 10.3032 16.0612 10.3032 16.5031C10.3032 16.9449 9.94496 17.3031 9.50313 17.3031H3.50312C3.06129 17.3031 2.70312 16.9449 2.70312 16.5031Z" fill="black"/>
<path d="M21.1465 13.9786C21.409 13.6233 21.3338 13.1224 20.9785 12.8598C20.6231 12.5972 20.1222 12.6724 19.8597 13.0278L16.0239 18.219L14.1109 15.9831C13.8237 15.6474 13.3187 15.6081 12.983 15.8953C12.6473 16.1826 12.608 16.6876 12.8952 17.0233L15.4619 20.0233C15.6203 20.2085 15.8546 20.3114 16.0983 20.3027C16.3419 20.294 16.5683 20.1747 16.7131 19.9786L21.1465 13.9786Z" fill="black"/>
</svg>
