<svg width="24" height="24" viewBox="0 0 24 24" fill="none" xmlns="http://www.w3.org/2000/svg">
<path d="M3.21568 11.996C3.21568 7.14675 7.14678 3.21565 11.996 3.21565C16.8453 3.21565 20.7764 7.14675 20.7764 11.996C20.7764 12.3402 20.7566 12.6796 20.7182 13.013C20.6802 13.3422 20.9163 13.6398 21.2455 13.6778C21.5747 13.7157 21.8723 13.4796 21.9103 13.1504C21.954 12.7714 21.9764 12.3862 21.9764 11.996C21.9764 6.48399 17.508 2.01562 11.996 2.01562C6.48399 2.01562 2.01562 6.48399 2.01562 11.996C2.01562 17.508 6.48399 21.9764 11.996 21.9764C12.689 21.9764 13.366 21.9057 14.0202 21.7709C14.3447 21.704 14.5536 21.3867 14.4867 21.0621C14.4199 20.7376 14.1025 20.5287 13.778 20.5956C13.2031 20.714 12.6071 20.7764 11.996 20.7764C7.14678 20.7764 3.21568 16.8453 3.21568 11.996Z" fill="black"/>
<path d="M15.148 9.22217C15.4689 9.3047 15.6622 9.63176 15.5796 9.95269L15.1553 11.603H15.9984C16.3298 11.603 16.5984 11.8716 16.5984 12.203C16.5984 12.5343 16.3298 12.803 15.9984 12.803H14.8467L14.2939 14.9526C14.2279 15.2093 14.0013 15.3923 13.7364 15.4027C13.4715 15.4131 13.2312 15.2485 13.1453 14.9978L12.3927 12.803H11.6043L10.8518 14.9978C10.7659 15.2485 10.5255 15.4131 10.2607 15.4027C9.99586 15.3923 9.76922 15.2093 9.70321 14.9526L9.15043 12.803H7.99844C7.66707 12.803 7.39844 12.5343 7.39844 12.203C7.39844 11.8716 7.66707 11.603 7.99844 11.603H8.84186L8.41749 9.95269C8.33497 9.63176 8.52823 9.3047 8.84916 9.22217C9.17009 9.13965 9.49716 9.33291 9.57968 9.65384L10.0809 11.603H10.7472L11.431 9.60867C11.5141 9.36616 11.7422 9.20327 11.9985 9.20327C12.2549 9.20327 12.483 9.36616 12.5661 9.60867L13.2499 11.603H13.9162L14.4175 9.65384C14.5 9.33291 14.827 9.13965 15.148 9.22217Z" fill="black"/>
<path d="M15.3984 18.4045C15.3984 18.0731 15.667 17.8045 15.9984 17.8045H20.5497L18.5741 15.829C18.3398 15.5947 18.3398 15.2148 18.5741 14.9804C18.8085 14.7461 19.1884 14.7461 19.4227 14.9804L22.4134 17.9712C22.5274 18.0804 22.5984 18.2342 22.5984 18.4045C22.5984 18.4642 22.5897 18.5218 22.5735 18.5762C22.546 18.6687 22.4957 18.7559 22.4227 18.829L19.4227 21.829C19.1884 22.0633 18.8085 22.0633 18.5741 21.829C18.3398 21.5947 18.3398 21.2148 18.5741 20.9804L20.5501 19.0045H15.9984C15.667 19.0045 15.3984 18.7359 15.3984 18.4045Z" fill="black"/>
</svg>
