<svg width="24" height="24" viewBox="0 0 24 24" fill="none" xmlns="http://www.w3.org/2000/svg">
<path d="M9.61183 14.0709L9.28125 13.2031H9.85976L9.61183 14.0709Z" fill="black"/>
<path d="M12.0017 11.5078L12.0269 11.5958H11.9766L12.0017 11.5078Z" fill="black"/>
<path d="M14.3964 14.0709L14.1484 13.2031H14.7269L14.3964 14.0709Z" fill="black"/>
<path fill-rule="evenodd" clip-rule="evenodd" d="M12.0032 1.20312C6.03846 1.20312 1.20312 6.03844 1.20312 12.0032C1.20312 17.9679 6.03846 22.8032 12.0032 22.8032C17.9678 22.8032 22.8031 17.9679 22.8031 12.0032C22.8031 6.03844 17.9678 1.20312 12.0032 1.20312ZM6.38505 7.85536C6.79793 7.69807 7.26014 7.90526 7.41743 8.31814L8.66881 11.6031H10.314L11.234 8.38317C11.3321 8.03973 11.646 7.80295 12.0032 7.80295C12.3604 7.80295 12.6743 8.03973 12.7724 8.38317L13.6924 11.6031H15.3376L16.5889 8.31814C16.7462 7.90526 17.2085 7.69807 17.6213 7.85536C18.0342 8.01265 18.2414 8.47485 18.0841 8.88774L17.0497 11.6031H18.6697C19.1116 11.6031 19.4697 11.9613 19.4697 12.4031C19.4697 12.8449 19.1116 13.2031 18.6697 13.2031H16.4402L15.0365 16.8878C14.9139 17.2098 14.5989 17.417 14.2547 17.4023C13.9104 17.3875 13.6143 17.1541 13.5197 16.8228L12.4855 13.2031H11.5209L10.4867 16.8228C10.3921 17.1541 10.096 17.3875 9.75173 17.4023C9.40753 17.417 9.09252 17.2098 8.96987 16.8878L7.56618 13.2031H5.33638C4.89456 13.2031 4.53637 12.8449 4.53637 12.4031C4.53637 11.9613 4.89456 11.6031 5.33638 11.6031H6.95665L5.92225 8.88774C5.76496 8.47485 5.97216 8.01265 6.38505 7.85536Z" fill="black"/>
</svg>
