<svg width="24" height="24" viewBox="0 0 24 24" fill="none" xmlns="http://www.w3.org/2000/svg">
<path fill-rule="evenodd" clip-rule="evenodd" d="M11.9984 2.59844C6.80697 2.59844 2.59844 6.80697 2.59844 11.9984C2.59844 17.1899 6.80697 21.3984 11.9984 21.3984C17.1899 21.3984 21.3984 17.1899 21.3984 11.9984C21.3984 6.80697 17.1899 2.59844 11.9984 2.59844ZM1.39844 11.9984C1.39844 6.14422 6.14422 1.39844 11.9984 1.39844C17.8526 1.39844 22.5984 6.14422 22.5984 11.9984C22.5984 17.8526 17.8526 22.5984 11.9984 22.5984C6.14422 22.5984 1.39844 17.8526 1.39844 11.9984Z" fill="black"/>
<path fill-rule="evenodd" clip-rule="evenodd" d="M11.5967 22.4426C5.43652 16.8425 5.43652 7.15481 11.5967 1.55469L12.4039 2.44262C6.76745 7.56662 6.76745 16.4307 12.4039 21.5547L11.5967 22.4426Z" fill="black"/>
<path fill-rule="evenodd" clip-rule="evenodd" d="M12.4009 22.4426C18.561 16.8425 18.561 7.15481 12.4009 1.55469L11.5938 2.44262C17.2302 7.56662 17.2302 16.4307 11.5938 21.5547L12.4009 22.4426Z" fill="black"/>
<path fill-rule="evenodd" clip-rule="evenodd" d="M1.89844 8.99844C1.89844 8.66707 2.16707 8.39844 2.49844 8.39844H21.4984C21.8298 8.39844 22.0984 8.66707 22.0984 8.99844C22.0984 9.32981 21.8298 9.59844 21.4984 9.59844H2.49844C2.16707 9.59844 1.89844 9.32981 1.89844 8.99844Z" fill="black"/>
<path fill-rule="evenodd" clip-rule="evenodd" d="M1.89844 14.9984C1.89844 14.667 2.16707 14.3984 2.49844 14.3984H21.4984C21.8298 14.3984 22.0984 14.667 22.0984 14.9984C22.0984 15.3298 21.8298 15.5984 21.4984 15.5984H2.49844C2.16707 15.5984 1.89844 15.3298 1.89844 14.9984Z" fill="black"/>
</svg>
