<svg width="24" height="24" viewBox="0 0 24 24" fill="none" xmlns="http://www.w3.org/2000/svg">
<path fill-rule="evenodd" clip-rule="evenodd" d="M6.45444 7.83634C6.7641 7.71838 7.11076 7.87378 7.22873 8.18344L8.40196 11.2632H10.5584L11.4244 8.2322C11.498 7.97462 11.7335 7.79704 12.0013 7.79704C12.2692 7.79704 12.5047 7.97462 12.5783 8.2322L13.4443 11.2632H15.6008L16.774 8.18344C16.892 7.87378 17.2386 7.71838 17.5483 7.83634C17.8579 7.95431 18.0133 8.30097 17.8954 8.61063L16.8849 11.2632H18.6677C18.9991 11.2632 19.2677 11.5318 19.2677 11.8632C19.2677 12.1946 18.9991 12.4632 18.6677 12.4632H16.4277L14.8478 16.6107C14.7558 16.8521 14.5195 17.0076 14.2614 16.9965C14.0032 16.9855 13.7811 16.8104 13.7101 16.5619L12.5391 12.4632H11.4636L10.2925 16.5619C10.2216 16.8104 9.99951 16.9855 9.74135 16.9965C9.48319 17.0076 9.24694 16.8521 9.15495 16.6107L7.57499 12.4632H5.33437C5.003 12.4632 4.73438 12.1946 4.73438 11.8632C4.73438 11.5318 5.003 11.2632 5.33437 11.2632H7.11784L6.10735 8.61063C5.98938 8.30097 6.14477 7.95431 6.45444 7.83634ZM9.63424 14.498L8.8591 12.4632H10.2156L9.63424 14.498ZM12.0013 10.5811L12.1962 11.2632H11.8065L12.0013 10.5811ZM14.3685 14.498L13.7871 12.4632H15.1436L14.3685 14.498Z" fill="black"/>
<path fill-rule="evenodd" clip-rule="evenodd" d="M11.9984 1.39844C6.14422 1.39844 1.39844 6.14422 1.39844 11.9984C1.39844 17.8526 6.14422 22.5984 11.9984 22.5984C17.8526 22.5984 22.5984 17.8526 22.5984 11.9984C22.5984 6.14422 17.8526 1.39844 11.9984 1.39844ZM2.59844 11.9984C2.59844 6.80697 6.80697 2.59844 11.9984 2.59844C17.1899 2.59844 21.3984 6.80697 21.3984 11.9984C21.3984 17.1899 17.1899 21.3984 11.9984 21.3984C6.80697 21.3984 2.59844 17.1899 2.59844 11.9984Z" fill="black"/>
</svg>
