<svg width="24" height="24" viewBox="0 0 24 24" fill="none" xmlns="http://www.w3.org/2000/svg">
<path d="M14.2484 7.64844C13.917 7.64844 13.6484 7.91707 13.6484 8.24844C13.6484 8.57981 13.917 8.84844 14.2484 8.84844H17.7484C18.0798 8.84844 18.3484 8.57981 18.3484 8.24844C18.3484 7.91707 18.0798 7.64844 17.7484 7.64844H14.2484Z" fill="black"/>
<path d="M14.2484 9.85156C13.917 9.85156 13.6484 10.1203 13.6484 10.4517C13.6484 10.783 13.917 11.0517 14.2484 11.0517H17.7484C18.0798 11.0517 18.3484 10.783 18.3484 10.4517C18.3484 10.1203 18.0798 9.85156 17.7484 9.85156H14.2484Z" fill="black"/>
<path fill-rule="evenodd" clip-rule="evenodd" d="M12.5104 15.6024C12.2803 15.7423 11.9858 15.5765 11.9858 15.3069L11.9702 13.3048C10.5674 12.2889 9.89844 10.7555 9.89844 8.99831C9.89844 5.93579 12.6295 3.45312 15.9984 3.45312C19.3673 3.45312 22.0984 5.93579 22.0984 8.99831C22.0984 12.0609 19.3673 14.5435 15.9984 14.5435C15.5471 14.5435 15.1072 14.499 14.6838 14.4144L12.5104 15.6024ZM14.491 13.1523L14.9188 13.2377C15.265 13.3068 15.6262 13.3435 15.9984 13.3435C18.8148 13.3435 20.8984 11.293 20.8984 8.99831C20.8984 6.70365 18.8148 4.65314 15.9984 4.65314C13.182 4.65314 11.0984 6.70365 11.0984 8.99831C11.0984 10.4323 11.6296 11.5765 12.674 12.333L13.1654 12.6888L13.1746 13.8718L14.491 13.1523Z" fill="black"/>
<path d="M14.0912 16.9404C13.9108 16.6288 13.999 16.2174 14.3149 16.0447C14.5792 15.9003 14.9121 15.9756 15.0675 16.2335C15.7217 17.32 16.0984 18.5955 16.0984 19.9594C16.0984 20.2907 15.8298 20.5594 15.4984 20.5594H2.49844C2.16707 20.5594 1.89844 20.2907 1.89844 19.9594C1.89844 17.1816 3.45432 14.7794 5.73394 13.5834C4.58453 12.631 3.84844 11.1828 3.84844 9.56464C3.84844 6.69406 6.14476 4.35938 8.99844 4.35938C9.22918 4.35938 9.45627 4.37464 9.67879 4.40421C10.097 4.45979 10.2329 4.96183 9.98819 5.30544C9.84952 5.5001 9.61306 5.60011 9.37514 5.57732C9.25113 5.56545 9.12548 5.55937 8.99844 5.55937C6.82112 5.55937 5.04844 7.3431 5.04844 9.56464C5.04844 11.1456 5.95945 12.5128 7.26825 13.158C7.48699 13.2659 7.6187 13.4954 7.60144 13.7387C7.58417 13.982 7.42137 14.1906 7.18958 14.2664C4.99863 14.9836 3.36324 16.9568 3.12768 19.3594H14.869C14.7828 18.4833 14.5098 17.6633 14.0912 16.9404Z" fill="black"/>
</svg>
