<svg width="24" height="24" viewBox="0 0 24 24" fill="none" xmlns="http://www.w3.org/2000/svg">
<path d="M6.00469 8.29688C5.6181 8.29688 5.30469 8.61028 5.30469 8.99687C5.30469 9.38347 5.6181 9.69687 6.00469 9.69687H13.0047C13.3913 9.69687 13.7047 9.38347 13.7047 8.99687C13.7047 8.61028 13.3913 8.29688 13.0047 8.29688H6.00469Z" fill="black"/>
<path d="M6.00469 12.2969C5.6181 12.2969 5.30469 12.6103 5.30469 12.9969C5.30469 13.3835 5.6181 13.6969 6.00469 13.6969H10.0047C10.3913 13.6969 10.7047 13.3835 10.7047 12.9969C10.7047 12.6103 10.3913 12.2969 10.0047 12.2969H6.00469Z" fill="black"/>
<path fill-rule="evenodd" clip-rule="evenodd" d="M18.8031 3.50312C18.8031 3.06129 18.4449 2.70312 18.0031 2.70312H2.00312C1.56129 2.70312 1.20312 3.06129 1.20312 3.50312V18.5032C1.20312 20.0495 2.45674 21.3032 4.00313 21.3032H20.0031C21.5495 21.3032 22.8031 20.0495 22.8031 18.5032V8.50313C22.8031 8.0613 22.4449 7.70312 22.0031 7.70312H18.8031V3.50312ZM17.2031 18.5032C17.2031 18.9323 17.2998 19.3393 17.4726 19.7032H4.00313C3.34039 19.7032 2.80313 19.1659 2.80313 18.5032V4.30314H17.2031V18.5032ZM21.2031 18.5032C21.2031 19.1659 20.6659 19.7032 20.0031 19.7032C19.3404 19.7032 18.8031 19.1659 18.8031 18.5032V9.30311H21.2031V18.5032Z" fill="black"/>
</svg>
