<svg width="24" height="24" viewBox="0 0 24 24" fill="none" xmlns="http://www.w3.org/2000/svg">
<path d="M12.0025 1.3125C6.1025 1.3125 1.3125 6.1025 1.3125 12.0026C1.3125 17.9025 6.1025 22.6925 12.0025 22.6925C17.9025 22.6925 22.6925 17.9025 22.6925 12.0026C22.6925 6.1025 17.9125 1.3125 12.0025 1.3125ZM17.1925 7.9225L14.9425 14.4026C14.8525 14.6526 14.6525 14.8526 14.4025 14.9426L7.9225 17.1925C7.6025 17.3025 7.2525 17.2226 7.0225 16.9826C6.7825 16.7426 6.7025 16.3926 6.8125 16.0826L9.0625 9.6025C9.1525 9.3525 9.3525 9.1525 9.6025 9.0625L16.0825 6.8125C16.4025 6.7025 16.7525 6.7825 16.9825 7.0225C17.2225 7.2625 17.3025 7.6125 17.1925 7.9225Z" fill="black"/>
<path d="M10.7916 10.6978C10.1216 11.3678 10.1216 12.4478 10.7916 13.1178C11.4616 13.7878 12.5416 13.7878 13.2116 13.1178C13.8816 12.4478 13.8816 11.3678 13.2116 10.6978C12.5416 10.0278 11.4616 10.0278 10.7916 10.6978Z" fill="black"/>
</svg>
