<svg width="24" height="24" viewBox="0 0 24 24" fill="none" xmlns="http://www.w3.org/2000/svg">
<path fill-rule="evenodd" clip-rule="evenodd" d="M11.1992 1.18616C11.7054 0.937947 12.3009 0.937946 12.8071 1.18616L20.8071 5.10929C21.4175 5.40863 21.8032 6.02126 21.8032 6.69149V8.90722C21.8032 12.2431 21.0138 15.083 19.4599 17.4244C17.9067 19.7649 15.6248 21.554 12.7274 22.8461C12.2671 23.0514 11.7392 23.0502 11.2813 22.8481C8.40706 21.5796 6.11638 19.9451 4.55285 17.6641C2.98729 15.3802 2.20312 12.5248 2.20312 8.90722V6.69149C2.20312 6.02126 2.58881 5.40863 3.19921 5.10929L11.1992 1.18616ZM12.9977 11.274C14.3692 11.5594 15.6304 12.4339 16.3392 13.6674C16.6798 14.2566 16.4865 14.947 15.9157 15.306C14.9124 15.9319 13.4211 16.2173 12.0035 16.2173C10.5859 16.2173 9.08543 15.9411 8.09126 15.306C7.52053 14.947 7.34564 14.2474 7.66782 13.6674C8.36742 12.4339 9.63774 11.5778 11.0093 11.274C10.1072 10.8874 9.48125 9.99451 9.48125 8.95431C9.48125 7.5551 10.6135 6.42285 12.0035 6.42285C13.3935 6.42285 14.5257 7.5551 14.5257 8.95431C14.5257 9.99451 13.8998 10.8874 12.9977 11.274Z" fill="black"/>
</svg>
