<svg width="24" height="24" viewBox="0 0 24 24" fill="none" xmlns="http://www.w3.org/2000/svg">
<path fill-rule="evenodd" clip-rule="evenodd" d="M17.5194 22.1833C17.7662 22.3361 18.0763 22.3433 18.3299 22.2021C18.5835 22.0609 18.7406 21.7934 18.7406 21.5032V18.1805C20.9071 16.4731 22.3031 13.9374 22.3031 11.0838C22.3031 5.82835 17.6131 1.70312 12.0031 1.70312C6.39319 1.70312 1.70312 5.82835 1.70312 11.0838C1.70312 16.3392 6.39319 20.4644 12.0031 20.4644C12.7806 20.4644 13.5389 20.3859 14.2686 20.2368C14.6364 20.4377 15.3014 20.8316 15.9682 21.2347C16.3743 21.4801 16.7623 21.7174 17.0489 21.8934C17.1921 21.9813 17.3099 22.0539 17.3918 22.1044L17.5194 22.1833ZM12.0031 3.30313C16.8866 3.30313 20.7031 6.86132 20.7031 11.0838C20.7031 13.507 19.4611 15.6939 17.4715 17.1345C17.2637 17.2849 17.1406 17.5259 17.1406 17.7825V20.0744C17.0286 20.0062 16.913 19.9361 16.7959 19.8654C16.0039 19.3867 15.0607 18.8259 14.7096 18.666C14.5491 18.5929 14.3688 18.5749 14.197 18.6149C13.4971 18.7776 12.7621 18.8644 12.0031 18.8644C7.11974 18.8644 3.30312 15.3063 3.30312 11.0838C3.30312 6.86132 7.11974 3.30313 12.0031 3.30313Z" fill="black"/>
<path d="M8.12813 8.70312C7.6863 8.70312 7.32812 9.0613 7.32812 9.50313C7.32812 9.94496 7.6863 10.3032 8.12813 10.3032H16.0032C16.445 10.3032 16.8032 9.94496 16.8032 9.50313C16.8032 9.0613 16.445 8.70312 16.0032 8.70312H8.12813Z" fill="black"/>
<path d="M8.12813 12.2031C7.6863 12.2031 7.32812 12.5612 7.32812 13.0031C7.32812 13.4449 7.6863 13.8031 8.12813 13.8031H16.0032C16.445 13.8031 16.8032 13.4449 16.8032 13.0031C16.8032 12.5612 16.445 12.2031 16.0032 12.2031H8.12813Z" fill="black"/>
</svg>
