<svg width="24" height="24" viewBox="0 0 24 24" fill="none" xmlns="http://www.w3.org/2000/svg">
<path fill-rule="evenodd" clip-rule="evenodd" d="M15.8825 6.53064C16.1037 5.91552 16.0488 5.23999 15.8763 4.64176C15.702 4.03748 15.3921 3.45463 15.0266 2.98833C14.6726 2.5367 14.2102 2.12361 13.6981 1.96579C13.4295 1.883 13.1217 1.86386 12.8181 1.98121C12.5126 2.09927 12.2817 2.32831 12.1193 2.6125C12.1118 2.62565 12.1048 2.63908 12.0983 2.65277C10.313 6.41229 8.5408 8.77263 7.7576 9.6331H3.14685C2.81548 9.6331 2.54688 9.90173 2.54688 10.2331V20.9735C2.54688 21.3048 2.81548 21.5735 3.14685 21.5735H15.8047C17.219 21.5735 18.0739 21.2564 18.6638 20.6648C19.9719 19.3531 20.834 17.1996 21.4107 15.2974C21.7295 14.2456 22.071 12.8958 22.0472 11.696C22.0353 11.0924 21.9307 10.4821 21.6477 9.95633C21.3557 9.41373 20.8889 8.99149 20.2241 8.76694C20.0678 8.71416 19.9154 8.67913 19.7741 8.66142C19.7494 8.65831 19.7244 8.65676 19.6995 8.65676H14.827L15.8549 6.59531C15.8653 6.57431 15.8746 6.55272 15.8825 6.53064ZM8.59673 10.4933C9.46957 9.55051 11.3259 7.07085 13.1709 3.19145C13.1958 3.15067 13.2166 3.12777 13.2295 3.1158C13.2429 3.10346 13.2507 3.1005 13.2507 3.1005C13.2507 3.1005 13.256 3.09841 13.2682 3.09845C13.2818 3.09848 13.3068 3.1009 13.3447 3.11256C13.5195 3.16643 13.7946 3.36178 14.0822 3.72866C14.3583 4.08088 14.5942 4.5266 14.7233 4.97425C14.8498 5.41301 14.8595 5.80133 14.7635 6.09487L13.3204 8.98903C13.2277 9.17502 13.2378 9.39575 13.3472 9.57248C13.4565 9.74921 13.6495 9.85676 13.8574 9.85676H19.6567C19.7072 9.86515 19.7695 9.88 19.8401 9.90384C20.2094 10.0286 20.4394 10.2433 20.591 10.525C20.7517 10.8235 20.8377 11.2248 20.8475 11.7198C20.8672 12.717 20.5768 13.9118 20.2623 14.9492C19.6906 16.8348 18.896 18.7326 17.8141 19.8175C17.5318 20.1006 17.0399 20.3735 15.8047 20.3735H8.59673V10.4933ZM7.39672 10.8331H3.74688V20.3735H7.39672V10.8331Z" fill="black"/>
</svg>
