<svg width="24" height="24" viewBox="0 0 24 24" fill="none" xmlns="http://www.w3.org/2000/svg">
<g clip-path="url(#clip0_3903_45055)">
<mask id="mask0_3903_45055" style="mask-type:luminance" maskUnits="userSpaceOnUse" x="0" y="0" width="24" height="24">
<path d="M24 0H0V24H24V0Z" fill="white"/>
</mask>
<g mask="url(#mask0_3903_45055)">
<mask id="mask1_3903_45055" style="mask-type:luminance" maskUnits="userSpaceOnUse" x="0" y="0" width="24" height="24">
<path d="M24 0H0V24H24V0Z" fill="white"/>
</mask>
<g mask="url(#mask1_3903_45055)">
<mask id="mask2_3903_45055" style="mask-type:luminance" maskUnits="userSpaceOnUse" x="0" y="0" width="24" height="24">
<path d="M24 0H0V24H24V0Z" fill="white"/>
</mask>
<g mask="url(#mask2_3903_45055)">
<mask id="mask3_3903_45055" style="mask-type:luminance" maskUnits="userSpaceOnUse" x="0" y="0" width="24" height="24">
<path d="M24 0H0V24H24V0Z" fill="white"/>
</mask>
<g mask="url(#mask3_3903_45055)">
<mask id="mask4_3903_45055" style="mask-type:luminance" maskUnits="userSpaceOnUse" x="0" y="0" width="24" height="24">
<path d="M24 0H0V24H24V0Z" fill="white"/>
</mask>
<g mask="url(#mask4_3903_45055)">
<path fill-rule="evenodd" clip-rule="evenodd" d="M23.7116 11.5424C24.1015 11.9336 24.1029 12.5693 23.7149 12.9623L21.7084 14.9946C21.5215 15.1839 21.2675 15.2903 21.0025 15.2903C20.7375 15.2903 20.4835 15.1839 20.2966 14.9946L18.2901 12.9623C17.9021 12.5693 17.9035 11.9336 18.2934 11.5424C18.6833 11.1512 19.3139 11.1527 19.7019 11.5457L21.0025 12.863L22.3031 11.5457C22.6911 11.1527 23.3217 11.1512 23.7116 11.5424Z" fill="black"/>
<path fill-rule="evenodd" clip-rule="evenodd" d="M11 3C6.02944 3 2 7.02944 2 12C2 16.9706 6.02944 21 11 21C12.9135 21 14.6848 20.404 16.1422 19.3874C16.5952 19.0714 17.2185 19.1825 17.5345 19.6355C17.8504 20.0885 17.7394 20.7118 17.2864 21.0278C15.5042 22.2709 13.3358 23 11 23C4.92487 23 0 18.0751 0 12C0 5.92487 4.92487 1 11 1C17.0751 1 22 5.92487 22 12C22 12.5326 21.9621 13.0568 21.8887 13.5702C21.8105 14.1169 21.3039 14.4967 20.7571 14.4185C20.2104 14.3403 19.8306 13.8337 19.9088 13.287C19.9689 12.8672 20 12.4375 20 12C20 7.02944 15.9706 3 11 3Z" fill="black"/>
<path d="M7.75096 8.82862C8.28584 8.69108 8.83095 9.01319 8.96849 9.54807L9.3925 11.1969H9.46289L10.0541 9.47279C10.1926 9.0686 10.5727 8.79711 11 8.79711C11.4273 8.79711 11.8074 9.0686 11.9459 9.47279L12.5371 11.1969H12.6075L13.0315 9.54807C13.169 9.01319 13.7142 8.69108 14.249 8.82862C14.7839 8.96616 15.106 9.51127 14.9685 10.046L14.6726 11.1969H15C15.5523 11.1969 16 11.6446 16 12.1969C16 12.7492 15.5523 13.1969 15 13.1969H14.1583L13.6828 15.046C13.5728 15.4739 13.195 15.7789 12.7536 15.7962C12.3121 15.8136 11.9116 15.5392 11.7683 15.1213L11.1085 13.1969H10.8915L10.2317 15.1213C10.0884 15.5392 9.68786 15.8136 9.24642 15.7962C8.80498 15.7789 8.42724 15.4739 8.31722 15.046L7.84173 13.1969H7C6.44772 13.1969 6 12.7492 6 12.1969C6 11.6446 6.44772 11.1969 7 11.1969H7.32744L7.0315 10.046C6.89396 9.51127 7.21607 8.96616 7.75096 8.82862Z" fill="black"/>
</g>
</g>
</g>
</g>
</g>
</g>
<defs>
<clipPath id="clip0_3903_45055">
<rect width="24" height="24" fill="white"/>
</clipPath>
</defs>
</svg>
