<svg width="24" height="24" viewBox="0 0 24 24" fill="none" xmlns="http://www.w3.org/2000/svg">
<path fill-rule="evenodd" clip-rule="evenodd" d="M2.20312 5.00313C2.20312 3.45674 3.45673 2.20312 5.00312 2.20312H19.0032C20.5495 2.20312 21.8031 3.45674 21.8031 5.00313V19.0032C21.8031 20.5496 20.5495 21.8032 19.0032 21.8032H5.00312C3.45673 21.8032 2.20312 20.5496 2.20312 19.0032V5.00313ZM6.00323 7.00292C6.00323 6.45064 6.45089 6.00294 7.00317 6.00294H13.0032C13.5555 6.00294 14.0032 6.45064 14.0032 7.00292C14.0032 7.5552 13.5555 8.00292 13.0032 8.00292H7.00317C6.45089 8.00292 6.00323 7.5552 6.00323 7.00292ZM6.00323 12.003C6.00323 11.4507 6.45089 11.003 7.00317 11.003H17.0032C17.5555 11.003 18.0032 11.4507 18.0032 12.003C18.0032 12.5553 17.5555 13.003 17.0032 13.003H7.00317C6.45089 13.003 6.00323 12.5553 6.00323 12.003ZM6.00323 17.003C6.00323 16.4507 6.45089 16.003 7.00317 16.003H10.0032C10.5555 16.003 11.0032 16.4507 11.0032 17.003C11.0032 17.5553 10.5555 18.003 10.0032 18.003H7.00317C6.45089 18.003 6.00323 17.5553 6.00323 17.003Z" fill="black"/>
</svg>
