<svg width="24" height="24" viewBox="0 0 24 24" fill="none" xmlns="http://www.w3.org/2000/svg">
<path fill-rule="evenodd" clip-rule="evenodd" d="M1 9.40473C1 5.30743 5.15007 2.14062 9.9245 2.14062C12.6999 2.14062 15.2643 3.21075 16.9252 4.9117C20.3252 5.83864 23 8.47256 23 11.7915C23 14.3601 21.4196 16.7757 19.0488 18.0916C19.5017 19.0144 19.9052 19.669 20.2046 20.1027C20.3821 20.3597 20.5231 20.5393 20.6165 20.6513C20.6631 20.7073 20.6979 20.7464 20.7193 20.7699C20.73 20.7816 20.7374 20.7894 20.7412 20.7935L20.744 20.7963C20.923 20.9771 20.9744 21.249 20.8731 21.4826C20.7713 21.7171 20.5366 21.8656 20.2812 21.8571L20.2281 21.8544C20.1986 21.8526 20.1575 21.8496 20.1055 21.8449C20.0017 21.8354 19.8545 21.8188 19.6702 21.7899C19.3015 21.7319 18.7832 21.6244 18.1652 21.4253C16.9734 21.0412 15.4095 20.316 13.837 18.9494C12.0071 18.9122 10.3378 18.4479 8.91398 17.6223C7.77918 18.3828 6.70074 18.8307 5.82277 19.0941C5.20272 19.2802 4.68263 19.3742 4.31258 19.4218C4.12748 19.4456 3.97963 19.4578 3.87525 19.464L3.6981 19.4706C3.4396 19.4706 3.20798 19.3109 3.11611 19.0693C3.02485 18.8292 3.09035 18.558 3.28062 18.3861L3.28168 18.3851L3.39686 18.2637C3.48639 18.1631 3.62439 17.9965 3.79944 17.7491C4.09721 17.3281 4.50259 16.6725 4.95889 15.7091C2.58385 14.3942 1 11.9761 1 9.40473ZM8.592 16.3278C8.5446 16.3532 8.50015 16.385 8.46004 16.4228C7.35181 17.2083 6.29862 17.6512 5.46489 17.9013C5.34968 17.9359 5.23866 17.9668 5.13227 17.9944C5.48308 17.4394 5.89974 16.6826 6.34343 15.6742C6.48043 15.3628 6.34218 14.9992 6.03294 14.8574C3.73205 13.8029 2.24523 11.6187 2.24523 9.40466C2.24523 6.23787 5.56683 3.38585 9.92445 3.38585C12.4673 3.38585 14.6574 4.35703 16.0405 5.79521C16.0811 5.8591 16.1333 5.91574 16.195 5.96156C17.0874 6.95671 17.6037 8.15621 17.6037 9.40466C17.6037 12.5714 14.2821 15.4234 9.92445 15.4234C9.77063 15.4234 9.62226 15.4804 9.50792 15.5833C9.20123 15.8593 8.89482 16.1065 8.592 16.3278ZM10.0093 16.7976C11.1922 17.3834 12.5629 17.7065 14.0755 17.7065C14.2293 17.7065 14.3777 17.7634 14.492 17.8663C15.9732 19.1994 17.449 19.8862 18.5471 20.24C18.6584 20.2759 18.7658 20.3083 18.8689 20.3376C18.5204 19.7832 18.1044 19.0385 17.6604 18.0697C17.5171 17.7571 17.6544 17.3875 17.967 17.2442C20.2679 16.1897 21.7547 14.0055 21.7547 11.7915C21.7547 9.70058 20.369 7.81452 18.2239 6.73322C18.626 7.55515 18.849 8.45494 18.849 9.40473C18.849 13.4336 14.8364 16.5627 10.1632 16.6661C10.1119 16.7107 10.0606 16.7545 10.0093 16.7976Z" fill="black"/>
</svg>
