<svg width="24" height="24" viewBox="0 0 24 24" fill="none" xmlns="http://www.w3.org/2000/svg">
<path d="M10.0431 11.2929C10.4336 11.6834 10.4336 12.3166 10.0431 12.7071C9.65251 13.0976 9.01935 13.0976 8.62882 12.7071L4.62883 8.70711C4.23831 8.31658 4.23831 7.68342 4.62883 7.29289L8.62884 3.29289C9.01936 2.90237 9.65252 2.90237 10.0431 3.29289C10.4336 3.68342 10.4336 4.31658 10.0431 4.70711L7.75015 7H18.6694C19.2217 7 19.6694 7.44771 19.6694 8C19.6694 8.55228 19.2217 9 18.6694 9H7.75014L10.0431 11.2929Z" fill="black"/>
<path d="M13.9623 12.7071C13.5718 12.3166 13.5718 11.6834 13.9623 11.2929C14.3529 10.9024 14.986 10.9024 15.3766 11.2929L19.3766 15.2929C19.4326 15.349 19.4814 15.411 19.5221 15.4776C19.5865 15.5823 19.632 15.6999 19.6541 15.8255C19.6643 15.8827 19.6694 15.9411 19.6694 16C19.6694 16.0589 19.6643 16.1173 19.6541 16.1745C19.632 16.3001 19.5865 16.4177 19.5221 16.5224C19.4814 16.589 19.4326 16.651 19.3766 16.7071L15.3766 20.7071C14.986 21.0976 14.3529 21.0976 13.9623 20.7071C13.5718 20.3166 13.5718 19.6834 13.9623 19.2929L16.2552 17H5.33594C4.78366 17 4.33594 16.5523 4.33594 16C4.33594 15.4477 4.78366 15 5.33594 15H16.2552L13.9623 12.7071Z" fill="black"/>
</svg>
