<svg width="24" height="24" viewBox="0 0 24 24" fill="none" xmlns="http://www.w3.org/2000/svg">
<path fill-rule="evenodd" clip-rule="evenodd" d="M12.94 0.820541C12.0865 0.591833 11.2091 1.09837 10.9804 1.95192L10.137 5.09962C9.59274 4.02621 8.3546 3.44266 7.14581 3.76655L5.34344 4.2495C3.95643 4.62115 3.13332 6.04682 3.50496 7.43383L4.10793 9.68415H3.14685C2.26319 9.68415 1.54688 10.4004 1.54688 11.2841V13.2841C1.54688 14.1678 2.26319 14.8841 3.14685 14.8841H3.4755L4.62806 20.0659C4.99436 21.7127 6.45518 22.8843 8.14223 22.8843H16.2944C17.9815 22.8843 19.4423 21.7127 19.8086 20.0659L20.9611 14.8841H21.2897C22.1734 14.8841 22.8897 14.1678 22.8897 13.2841V11.2841C22.8897 10.4005 22.1734 9.68415 21.2897 9.68415H20.8509C20.5569 7.42713 18.6268 5.68415 16.2897 5.68415C15.7299 5.68415 15.193 5.78435 14.6962 5.9678L15.4513 3.14988C15.68 2.29633 15.1734 1.41899 14.3199 1.19029L12.94 0.820541ZM19.6369 9.68415C19.3535 8.09254 17.9627 6.88414 16.2897 6.88414C15.5665 6.88414 14.8977 7.10925 14.3472 7.49322C14.3242 7.5093 14.3004 7.52354 14.276 7.53597L13.7004 9.68415H19.6369ZM12.4581 9.68415L14.2922 2.8393C14.3493 2.62591 14.2227 2.40657 14.0093 2.3494L12.6294 1.97966C12.416 1.92248 12.1967 2.04911 12.1395 2.2625L10.1509 9.68415H12.4581ZM8.90858 9.68415L9.54469 7.31011L9.17105 5.91561C8.97093 5.16876 8.20325 4.72554 7.4564 4.92566L5.65403 5.40861C4.90717 5.60873 4.46396 6.3764 4.66408 7.12325L5.35024 9.68415H8.90858ZM19.7318 14.8841H4.70487L5.79949 19.8054C6.04368 20.9032 7.01753 21.6843 8.14223 21.6843H16.2944C17.4191 21.6843 18.393 20.9032 18.6372 19.8054L19.7318 14.8841ZM2.74688 11.2841C2.74688 11.0632 2.92593 10.8841 3.14685 10.8841H21.2897C21.5106 10.8841 21.6897 11.0632 21.6897 11.2841V13.2841C21.6897 13.505 21.5106 13.6841 21.2897 13.6841H3.14685C2.92593 13.6841 2.74688 13.505 2.74688 13.2841V11.2841Z" fill="black"/>
</svg>
