<svg width="24" height="24" viewBox="0 0 24 24" fill="none" xmlns="http://www.w3.org/2000/svg">
<path d="M8.18253 8.18253C8.18253 7.50567 8.42241 6.92737 8.90216 6.44762C9.38191 5.96786 9.96022 5.72799 10.6371 5.72799C11.3139 5.72799 11.8922 5.96786 12.372 6.44762C12.8517 6.92737 13.0916 7.50567 13.0916 8.18253H8.18253ZM5.72799 10.6371C5.05113 10.6371 4.47282 10.3972 3.99307 9.91745C3.51332 9.4377 3.27344 8.85939 3.27344 8.18253H8.18253C8.18253 8.85939 7.94265 9.4377 7.4629 9.91745C6.98315 10.3972 6.40484 10.6371 5.72799 10.6371ZM8.18253 8.18253C7.50567 8.18253 6.92737 7.94266 6.44761 7.46291C5.96786 6.98315 5.72799 6.40485 5.72799 5.72799C5.72799 5.05113 5.96786 4.47282 6.44761 3.99307C6.92737 3.51332 7.50567 3.27344 8.18253 3.27344V8.18253ZM8.18253 13.0917V8.18253C8.85939 8.18253 9.4377 8.42241 9.91745 8.90216C10.3972 9.38191 10.6371 9.96022 10.6371 10.6371C10.6371 11.314 10.3972 11.8923 9.91745 12.372C9.4377 12.8518 8.85939 13.0917 8.18253 13.0917Z" fill="black"/>
<path fill-rule="evenodd" clip-rule="evenodd" d="M19.1694 3.73142C18.1801 3.46632 17.1632 4.05344 16.8981 5.04278L14.3129 14.6907C14.0829 15.5492 13.305 16.1461 12.4162 16.1461H5.99844C4.97421 16.1461 4.1439 16.9764 4.1439 18.0006C4.1439 19.0249 4.97421 19.8552 5.99844 19.8552H16.6151C16.7139 19.8552 16.8004 19.7888 16.8259 19.6933L20.4806 6.00354C20.7457 5.0142 20.1588 3.99651 19.1694 3.73142ZM15.2121 4.59102C15.7267 2.67054 17.7007 1.53085 19.6212 2.04544C21.5417 2.56003 22.6814 4.53404 22.1668 6.45452L18.5123 20.1436C18.2829 21.0029 17.5045 21.6007 16.6151 21.6007L5.99844 21.6006C4.01022 21.6006 2.39844 19.9889 2.39844 18.0006C2.39844 16.0124 4.01022 14.4006 5.99844 14.4006H12.4162C12.515 14.4006 12.6014 14.3343 12.627 14.2389L15.2121 4.59102Z" fill="black"/>
</svg>
