<svg width="24" height="24" viewBox="0 0 24 24" fill="none" xmlns="http://www.w3.org/2000/svg">
<path d="M11.4374 2.42963C11.7498 2.11721 12.2564 2.11721 12.5688 2.42963L16.5688 6.42963C16.8812 6.74205 16.8812 7.24858 16.5688 7.561C16.2564 7.87342 15.7498 7.87342 15.4374 7.561L12.8031 4.92668V13.9953C12.8031 14.4371 12.4449 14.7953 12.0031 14.7953C11.5613 14.7953 11.2031 14.4371 11.2031 13.9953V4.92668L8.56881 7.561C8.25639 7.87342 7.74986 7.87342 7.43744 7.561C7.12502 7.24858 7.12502 6.74205 7.43744 6.42963L11.4374 2.42963Z" fill="black"/>
<path d="M5.00313 10.8032C4.89495 10.8032 4.80317 10.895 4.80317 11.0032V20.0032C4.80317 20.1113 4.89495 20.2032 5.00313 20.2032H19.0031C19.1113 20.2032 19.2031 20.1113 19.2031 20.0032V11.0032C19.2031 10.895 19.1113 10.8032 19.0031 10.8032H16.0031C15.5613 10.8032 15.2031 10.445 15.2031 10.0032C15.2031 9.56129 15.5613 9.20312 16.0031 9.20312H19.0031C19.9949 9.20312 20.8031 10.0113 20.8031 11.0032V20.0032C20.8031 20.995 19.9949 21.8031 19.0031 21.8031H5.00313C4.0113 21.8031 3.20312 20.995 3.20312 20.0032V11.0032C3.20312 10.0113 4.0113 9.20312 5.00313 9.20312H8.00313C8.44495 9.20312 8.80313 9.56129 8.80313 10.0032C8.80313 10.445 8.44495 10.8032 8.00313 10.8032H5.00313Z" fill="black"/>
</svg>
