<svg width="24" height="24" viewBox="0 0 24 24" fill="none" xmlns="http://www.w3.org/2000/svg">
<path d="M14.8031 5.17066C14.8031 3.63283 12.9993 2.80319 11.8317 3.804L6.76336 8.14829C6.72711 8.17936 6.68093 8.19644 6.63319 8.19644H3.00313C2.00901 8.19644 1.20312 9.00232 1.20312 9.99643V14.9964C1.20312 15.9905 2.00901 16.7964 3.00313 16.7964H6.68266C6.72435 16.7964 6.76503 16.8094 6.79891 16.8336L11.9569 20.5179C13.1482 21.3689 14.8031 20.5172 14.8031 19.0532V5.17066Z" fill="black"/>
<path d="M17.8298 8.22234C18.2611 8.1265 18.6884 8.39845 18.7842 8.82976C18.9848 9.73243 19.2033 10.8076 19.2033 11.9033C19.2033 13.0827 18.9901 14.1484 18.7935 15.1316L18.7878 15.1602C18.7011 15.5934 18.2797 15.8744 17.8464 15.7877C17.4132 15.7011 17.1322 15.2796 17.2188 14.8464C17.4206 13.8375 17.6033 12.9124 17.6033 11.9033C17.6033 10.9989 17.4218 10.0741 17.2223 9.17686C17.1265 8.74555 17.3984 8.31819 17.8298 8.22234Z" fill="black"/>
<path d="M21.7623 5.75036C21.6226 5.33121 21.1696 5.10468 20.7504 5.2444C20.3313 5.38411 20.1047 5.83717 20.2444 6.25632C20.8224 7.9903 21.2034 9.90432 21.2034 11.9034C21.2034 14.0031 20.8222 15.9205 20.2405 17.7625C20.1075 18.1838 20.3412 18.6332 20.7625 18.7662C21.1838 18.8993 21.6332 18.6656 21.7663 18.2443C22.3846 16.2862 22.8034 14.2036 22.8034 11.9034C22.8034 9.70237 22.3843 7.61638 21.7623 5.75036Z" fill="black"/>
</svg>
