<svg width="24" height="24" viewBox="0 0 24 24" fill="none" xmlns="http://www.w3.org/2000/svg">
<path d="M12.8801 11.281C14.0992 11.5346 15.2202 12.3119 15.8503 13.4083C16.153 13.932 15.9812 14.5457 15.4739 14.8648C14.582 15.4212 13.2565 15.6749 11.9964 15.6749C10.7363 15.6749 9.40253 15.4294 8.51883 14.8648C8.01152 14.5457 7.85605 13.9238 8.14244 13.4083C8.7643 12.3119 9.89347 11.551 11.1127 11.281C10.3108 10.9373 9.75437 10.1435 9.75437 9.21893C9.75437 7.97519 10.7608 6.96875 11.9964 6.96875C13.2319 6.96875 14.2383 7.97519 14.2383 9.21893C14.2383 10.1435 13.6819 10.9373 12.8801 11.281Z" fill="black"/>
<path fill-rule="evenodd" clip-rule="evenodd" d="M12.713 1.16849C12.2631 0.943836 11.7337 0.943837 11.2838 1.16849L3.28386 5.16299C2.74127 5.4339 2.39844 5.98837 2.39844 6.59497V8.85101C2.39844 12.5055 3.17612 15.3711 4.71401 17.6554C6.25039 19.9376 8.5063 21.5813 11.3585 22.863C11.7644 23.0454 12.2323 23.0464 12.64 22.8613C15.5097 21.5583 17.759 19.7592 19.2877 17.4138C20.8168 15.0678 21.5984 12.2158 21.5984 8.85101V6.59497C21.5984 5.98837 21.2556 5.4339 20.713 5.16299L12.713 1.16849ZM11.8198 2.24247C11.9322 2.18631 12.0646 2.18631 12.177 2.24247L20.1771 6.23697C20.3127 6.3047 20.3984 6.44332 20.3984 6.59497V8.85101C20.3984 12.0251 19.6633 14.6397 18.2824 16.7583C16.9012 18.8774 14.8473 20.5409 12.144 21.7683C12.0525 21.8099 11.9443 21.8104 11.8502 21.7681C9.12985 20.5456 7.08279 19.025 5.70935 16.985C4.33743 14.9471 3.59844 12.3325 3.59844 8.85101V6.59497C3.59844 6.44332 3.68415 6.3047 3.81979 6.23697L11.8198 2.24247Z" fill="black"/>
</svg>
