<svg width="24" height="24" viewBox="0 0 24 24" fill="none" xmlns="http://www.w3.org/2000/svg">
<path d="M5.05952 5.98987C5.35287 5.60743 5.28065 5.05959 4.89821 4.76623C4.51577 4.47288 3.96793 4.5451 3.67458 4.92754C2.19313 6.85888 1.3125 9.33034 1.3125 12.0042C1.3125 14.678 2.19313 17.1494 3.67458 19.0808C3.96793 19.4632 4.51577 19.5354 4.89821 19.2421C5.28065 18.9487 5.35287 18.4009 5.05952 18.0184C3.81152 16.3915 3.05796 14.2933 3.05796 12.0042C3.05796 9.71504 3.81152 7.61686 5.05952 5.98987Z" fill="black"/>
<path d="M19.1081 4.75775C19.4909 4.46488 20.0387 4.53779 20.3315 4.92061C21.8098 6.85287 22.6929 9.39177 22.6929 12.1382C22.6929 14.7468 21.9022 17.1564 20.5623 19.0465C20.2835 19.4397 19.7388 19.5325 19.3456 19.2538C18.9524 18.975 18.8596 18.4303 19.1383 18.0371C20.2628 16.4509 20.9475 14.3963 20.9475 12.1382C20.9475 9.76161 20.1825 7.59838 18.9453 5.98118C18.6524 5.59837 18.7253 5.05062 19.1081 4.75775Z" fill="black"/>
<path fill-rule="evenodd" clip-rule="evenodd" d="M10.0391 9.27117C10.0391 8.78918 10.4298 8.39844 10.9118 8.39844H12.5481C13.9339 8.39844 15.0572 9.5218 15.0572 10.9075C15.0572 12.2932 13.9339 13.4166 12.5481 13.4166H11.7845V14.7257C11.7845 15.2077 11.3938 15.5984 10.9118 15.5984C10.4298 15.5984 10.0391 15.2077 10.0391 14.7257V9.27117ZM11.7845 10.1439V11.6711H12.5481C12.9699 11.6711 13.3118 11.3292 13.3118 10.9075C13.3118 10.4858 12.9699 10.1439 12.5481 10.1439H11.7845Z" fill="black"/>
<path fill-rule="evenodd" clip-rule="evenodd" d="M4.58594 11.9963C4.58594 7.89936 7.90717 4.57812 12.0041 4.57812C16.101 4.57812 19.4223 7.89936 19.4223 11.9963C19.4223 16.0933 16.101 19.4145 12.0041 19.4145C7.90717 19.4145 4.58594 16.0933 4.58594 11.9963ZM12.0041 6.32359C8.87116 6.32359 6.33139 8.86335 6.33139 11.9963C6.33139 15.1293 8.87116 17.669 12.0041 17.669C15.1371 17.669 17.6768 15.1293 17.6768 11.9963C17.6768 8.86335 15.1371 6.32359 12.0041 6.32359Z" fill="black"/>
</svg>
