<svg width="24" height="24" viewBox="0 0 24 24" fill="none" xmlns="http://www.w3.org/2000/svg">
<path fill-rule="evenodd" clip-rule="evenodd" d="M16.5196 2.38252C16.2804 2.14333 15.8926 2.14333 15.6534 2.38252L2.38252 15.6534C2.26765 15.7682 2.20312 15.924 2.20312 16.0865V21.1907C2.20312 21.5289 2.47735 21.8031 2.81562 21.8031H7.9198C8.08223 21.8031 8.23802 21.7386 8.35289 21.6238L21.6238 8.35289C21.8629 8.11368 21.8629 7.72588 21.6238 7.48668L16.5196 2.38252ZM17.1073 11.1369L14.4779 8.50751C14.2387 8.26831 13.8509 8.26831 13.6117 8.50751C13.3725 8.74671 13.3725 9.13453 13.6117 9.37372L16.2411 12.0032L7.66609 20.5781H3.42812V16.3402L16.0865 3.68183L20.3244 7.9198L17.1073 11.1369Z" fill="black"/>
</svg>
