<svg width="24" height="24" viewBox="0 0 24 24" fill="none" xmlns="http://www.w3.org/2000/svg">
<path fill-rule="evenodd" clip-rule="evenodd" d="M5.80469 8.3C5.80469 7.02975 6.83443 6 8.10469 6C9.37494 6 10.4046 7.02974 10.4046 8.3C10.4046 9.57026 9.37494 10.6 8.10469 10.6C6.83443 10.6 5.80469 9.57026 5.80469 8.3ZM8.10469 7.6C7.71809 7.6 7.40469 7.9134 7.40469 8.3C7.40469 8.6866 7.71809 9 8.10469 9C8.49129 9 8.80469 8.6866 8.80469 8.3C8.80469 7.9134 8.49129 7.6 8.10469 7.6Z" fill="black"/>
<path fill-rule="evenodd" clip-rule="evenodd" d="M5.00312 2.20312C3.45673 2.20312 2.20312 3.45674 2.20312 5.00313V16.0032C2.20312 17.5495 3.45673 18.8032 5.00312 18.8032H16.0032C17.5495 18.8032 18.8032 17.5495 18.8032 16.0032V5.00313C18.8032 3.45674 17.5495 2.20312 16.0032 2.20312H5.00312ZM3.80312 5.00313C3.80312 4.34039 4.34038 3.80313 5.00312 3.80313H16.0032C16.6659 3.80313 17.2032 4.34039 17.2032 5.00313V13.072L14.3686 10.2375C14.2186 10.0875 14.0151 10.0032 13.803 10.0032C13.5908 10.0032 13.3873 10.0875 13.2373 10.2375L9.698 13.7768L7.58652 11.9046C7.28119 11.6338 6.8209 11.6363 6.51851 11.9104L3.80312 14.3715V5.00313ZM3.88074 16.4286C4.05245 16.8814 4.49021 17.2032 5.00312 17.2032H16.0032C16.6659 17.2032 17.2032 16.6659 17.2032 16.0032V15.3348L13.803 11.9346L10.8974 14.8402L11.5339 15.4046C11.8645 15.6977 11.8949 16.2033 11.6017 16.5339C11.3086 16.8645 10.803 16.8949 10.4724 16.6017L7.06164 13.5775L4.04044 16.3159C3.99087 16.3608 3.93715 16.3984 3.88074 16.4286Z" fill="black"/>
<path d="M21.0032 6.20312C21.445 6.20312 21.8031 6.5613 21.8031 7.00313V19.0032C21.8031 20.5495 20.5495 21.8031 19.0032 21.8031H7.00312C6.56129 21.8031 6.20312 21.445 6.20312 21.0032C6.20312 20.5613 6.56129 20.2032 7.00312 20.2032H19.0032C19.6659 20.2032 20.2032 19.6659 20.2032 19.0032V7.00313C20.2032 6.5613 20.5613 6.20312 21.0032 6.20312Z" fill="black"/>
</svg>
