<svg width="24" height="24" viewBox="0 0 24 24" fill="none" xmlns="http://www.w3.org/2000/svg">
<path fill-rule="evenodd" clip-rule="evenodd" d="M5.06418 5.7983C4.95355 5.48594 4.61066 5.32241 4.2983 5.43304C3.98594 5.54367 3.8224 5.88655 3.93303 6.19891L5.42036 10.3984H3.49844C3.16707 10.3984 2.89844 10.667 2.89844 10.9984C2.89844 11.3298 3.16707 11.5984 3.49844 11.5984H5.84536L8.18303 18.1989C8.27067 18.4463 8.50903 18.6081 8.77137 18.5981C9.03371 18.5882 9.25911 18.4088 9.32774 18.1554L11.1036 11.5984H12.8709L14.6188 18.1532C14.6865 18.4068 14.9112 18.5871 15.1735 18.598C15.4359 18.609 15.6748 18.4481 15.7634 18.201L18.1293 11.5984H20.4984C20.8298 11.5984 21.0984 11.3298 21.0984 10.9984C21.0984 10.667 20.8298 10.3984 20.4984 10.3984H18.5593L20.0634 6.201C20.1752 5.88906 20.0129 5.54556 19.701 5.43377C19.389 5.32199 19.0455 5.48426 18.9337 5.79621L17.2846 10.3984H13.7928L12.5783 5.84401C12.5084 5.58177 12.2711 5.39914 11.9997 5.39862C11.7283 5.39809 11.4904 5.57981 11.4194 5.84177L10.1853 10.3984H6.6934L5.06418 5.7983ZM7.1184 11.5984L8.67218 15.9856L9.86037 11.5984H7.1184ZM11.4286 10.3984H12.5509L11.9941 8.31039L11.4286 10.3984ZM14.1128 11.5984L15.2826 15.9852L16.8546 11.5984H14.1128Z" fill="black"/>
</svg>
