<svg width="24" height="24" viewBox="0 0 24 24" fill="none" xmlns="http://www.w3.org/2000/svg">
<path fill-rule="evenodd" clip-rule="evenodd" d="M15.4374 2.42963C15.7498 2.11721 16.2564 2.11721 16.5688 2.42963L21.5688 7.42963C21.8812 7.74205 21.8812 8.24858 21.5688 8.561L17.5695 12.5602L17.568 12.5617L8.5688 21.5609C8.41877 21.711 8.2153 21.7952 8.00313 21.7952H3.00312C2.56129 21.7952 2.20312 21.4371 2.20312 20.9953V15.9953C2.20312 15.7831 2.2874 15.5796 2.43743 15.4296L15.4374 2.42963ZM19.8717 7.99531L17.0031 10.8639L14.5688 8.42963C14.2564 8.11721 13.7498 8.11721 13.4374 8.42963C13.125 8.74205 13.125 9.24858 13.4374 9.561L15.8717 11.9953L7.67175 20.1953H3.80312V16.3266L16.0031 4.12668L19.8717 7.99531ZM21.0031 20.1953H14.0031C13.5613 20.1953 13.2031 20.5534 13.2031 20.9953C13.2031 21.4371 13.5613 21.7953 14.0031 21.7953H21.0031C21.4449 21.7953 21.8031 21.4371 21.8031 20.9953C21.8031 20.5534 21.4449 20.1953 21.0031 20.1953Z" fill="black"/>
</svg>
