<svg width="24" height="24" viewBox="0 0 24 24" fill="none" xmlns="http://www.w3.org/2000/svg">
<path fill-rule="evenodd" clip-rule="evenodd" d="M11.8317 3.804L6.76336 8.14829C6.72711 8.17936 6.68093 8.19644 6.63319 8.19644H3.00313C2.00901 8.19644 1.20312 9.00232 1.20312 9.99643V14.9964C1.20312 15.9905 2.00901 16.7964 3.00313 16.7964H6.68266C6.72435 16.7964 6.76503 16.8094 6.79891 16.8336L11.9569 20.5179C13.1482 21.3689 14.8031 20.5172 14.8031 19.0532V5.17066C14.8031 3.63283 12.9993 2.80319 11.8317 3.804ZM12.6126 4.71511C13.0018 4.38151 13.6031 4.65805 13.6031 5.17066V19.0532C13.6031 19.5412 13.0515 19.8251 12.6544 19.5414L7.4964 15.8571C7.25894 15.6875 6.97445 15.5964 6.68266 15.5964H3.00313C2.67175 15.5964 2.40317 15.3277 2.40317 14.9964V9.99643C2.40317 9.66507 2.67175 9.39644 3.00313 9.39644H6.63319C6.96739 9.39644 7.29061 9.27689 7.5443 9.0594L12.6126 4.71511Z" fill="black"/>
<path d="M20.8166 5.42939C21.131 5.3246 21.4708 5.49449 21.5756 5.80886C22.2677 7.88515 23.2299 13.2254 21.5756 18.1884C21.4708 18.5028 21.131 18.6727 20.8166 18.5679C20.5023 18.4631 20.3324 18.1233 20.4372 17.8089C21.9828 13.1719 21.0784 8.11204 20.4372 6.18833C20.3324 5.87397 20.5023 5.53417 20.8166 5.42939Z" fill="black"/>
<path d="M17.8166 8.42939C18.131 8.3246 18.4708 8.49449 18.5756 8.80886C18.9343 9.88515 19.4299 12.6254 18.5756 15.1884C18.4708 15.5028 18.131 15.6727 17.8166 15.5679C17.5023 15.4631 17.3324 15.1233 17.4372 14.8089C18.1828 12.5719 17.7451 10.1121 17.4372 9.18833C17.3324 8.87397 17.5023 8.53417 17.8166 8.42939Z" fill="black"/>
</svg>
