<svg width="24" height="24" viewBox="0 0 24 24" fill="none" xmlns="http://www.w3.org/2000/svg">
<path fill-rule="evenodd" clip-rule="evenodd" d="M6.59844 1.99844C6.59844 1.66707 6.32981 1.39844 5.99844 1.39844C5.66707 1.39844 5.39844 1.66707 5.39844 1.99844V5.39844H1.99844C1.66707 5.39844 1.39844 5.66707 1.39844 5.99844C1.39844 6.32981 1.66707 6.59844 1.99844 6.59844H5.39844V17.9984C5.39844 18.3298 5.66707 18.5984 5.99844 18.5984H17.3984V21.9984C17.3984 22.3298 17.667 22.5984 17.9984 22.5984C18.3298 22.5984 18.5984 22.3298 18.5984 21.9984V18.5984H21.9984C22.3298 18.5984 22.5984 18.3298 22.5984 17.9984C22.5984 17.667 22.3298 17.3984 21.9984 17.3984H18.5984V5.99844C18.5984 5.66707 18.3298 5.39844 17.9984 5.39844H6.59844V1.99844ZM6.59844 6.59844V17.3984H17.3984V6.59844H6.59844Z" fill="black"/>
</svg>
