<svg width="24" height="24" viewBox="0 0 24 24" fill="none" xmlns="http://www.w3.org/2000/svg">
<path fill-rule="evenodd" clip-rule="evenodd" d="M9 4.19844C9 3.20433 9.80589 2.39844 10.8 2.39844H13.8C14.7941 2.39844 15.6 3.20433 15.6 4.19844V21.9984H9V4.19844ZM10.8 3.99844C10.6895 3.99844 10.6 4.08799 10.6 4.19844V20.3984H14V4.19844C14 4.08799 13.9105 3.99844 13.8 3.99844H10.8Z" fill="black"/>
<path fill-rule="evenodd" clip-rule="evenodd" d="M4 12.1984C4 11.2043 4.80589 10.3984 5.8 10.3984H9.8V11.9984H5.8C5.68954 11.9984 5.6 12.0879 5.6 12.1984V20.1984C5.6 20.3089 5.68954 20.3984 5.8 20.3984H9.8V21.9984H5.8C4.80589 21.9984 4 21.1925 4 20.1984V12.1984Z" fill="black"/>
<path fill-rule="evenodd" clip-rule="evenodd" d="M18.7969 7.99844H14.7969V6.39844H18.7969C19.791 6.39844 20.5969 7.20433 20.5969 8.19844V20.1984C20.5969 21.1925 19.791 21.9984 18.7969 21.9984H14.7969V20.3984H18.7969C18.9074 20.3984 18.9969 20.3089 18.9969 20.1984V8.19844C18.9969 8.08799 18.9074 7.99844 18.7969 7.99844Z" fill="black"/>
</svg>
