<svg width="24" height="24" viewBox="0 0 24 24" fill="none" xmlns="http://www.w3.org/2000/svg">
<path d="M1 2.97677C1 1.88503 1.88503 1 2.97677 1H13.108C14.1998 1 15.0848 1.88503 15.0848 2.97677V7.61703H10.2252L8.90344 4.07273L8.8336 3.87484H7.25052L7.18067 4.07273L4.29387 11.8135L4.14255 12.2093H5.87696L5.9468 12.0114L6.50554 10.4749H7.61703V15.0848H2.97677C1.88503 15.0848 1 14.1998 1 13.108V2.97677Z" fill="black"/>
<path d="M8.04427 6.29688L8.69564 8.07831C8.37811 8.30188 8.11427 8.59659 7.92728 8.93924H7.07812L8.04427 6.29688Z" fill="black"/>
<path d="M17.2236 14.375C16.9046 15.1366 16.4681 15.8436 15.93 16.4703C15.3744 15.8452 14.9184 15.1385 14.5781 14.375H17.2236Z" fill="black"/>
<path fill-rule="evenodd" clip-rule="evenodd" d="M8.91406 10.8908C8.91406 9.79909 9.79909 8.91406 10.8909 8.91406H21.0221C22.1139 8.91406 22.9989 9.79909 22.9989 10.8908V21.022C22.9989 22.1138 22.1139 22.9988 21.0221 22.9988H10.8909C9.79909 22.9988 8.91406 22.1138 8.91406 21.022V10.8908ZM20.4725 19.0292C19.2657 18.7776 18.1258 18.2738 17.1277 17.5509C17.9335 16.6108 18.5649 15.5347 18.9924 14.3731H20.4725V12.8133H16.6965V11.3233H15.1231V12.8133H11.4403V14.3731H12.8622C13.2919 15.5535 13.9141 16.6547 14.7036 17.6324C13.7072 18.2952 12.597 18.7688 11.4287 19.0292L11.149 19.134L11.3471 19.3785C11.6101 19.7085 11.8403 20.0632 12.0347 20.4377L12.1046 20.589H12.2794C13.5606 20.1779 14.7569 19.5391 15.8107 18.7033C16.8874 19.571 18.14 20.1946 19.4819 20.5308H19.645L19.715 20.3912C19.9291 20.0028 20.1915 19.643 20.4958 19.3202L20.7639 19.0525L20.4725 19.0292Z" fill="black"/>
</svg>
