<svg width="24" height="24" viewBox="0 0 24 24" fill="none" xmlns="http://www.w3.org/2000/svg">
<path d="M7 5.5V11.5C7 14.2614 9.23859 16.5 12 16.5C14.7614 16.5 17 14.2614 17 11.5V5.5C17 2.73859 14.7614 0.5 12 0.5C9.23859 0.5 7 2.73859 7 5.5Z" fill="black"/>
<path d="M4.80317 11.5031C4.80317 11.0613 4.44494 10.7031 4.00312 10.7031C3.56129 10.7031 3.20312 11.0613 3.20312 11.5031C3.20312 16.0935 6.71798 19.8631 11.2031 20.2672V21.7031H9.00313C8.5613 21.7031 8.20312 22.0613 8.20312 22.5031C8.20312 22.9449 8.5613 23.3031 9.00313 23.3031H15.0031C15.4449 23.3031 15.8031 22.9449 15.8031 22.5031C15.8031 22.0613 15.4449 21.7031 15.0031 21.7031H12.8031V20.2672C17.2883 19.8631 20.8031 16.0935 20.8031 11.5031C20.8031 11.0613 20.4449 10.7031 20.0031 10.7031C19.5613 10.7031 19.2031 11.0613 19.2031 11.5031C19.2031 15.4796 15.9795 18.7031 12.0031 18.7031C8.02672 18.7031 4.80317 15.4796 4.80317 11.5031Z" fill="black"/>
</svg>
