<svg width="24" height="24" viewBox="0 0 24 24" fill="none" xmlns="http://www.w3.org/2000/svg">
<path fill-rule="evenodd" clip-rule="evenodd" d="M21.8031 3.50312C21.8031 3.20809 21.6407 2.937 21.3806 2.79778C21.1205 2.65857 20.8048 2.67383 20.5593 2.83748L14.7609 6.70312H7.00313C4.35216 6.70312 2.20312 8.85216 2.20312 11.5031C2.20312 13.8814 3.933 15.8558 6.20312 16.2367V17.5031C6.20312 19.6017 7.90449 21.3031 10.0031 21.3031C12.1018 21.3031 13.8031 19.6017 13.8031 17.5031V16.3031H14.7609L20.5593 20.1687C20.8048 20.3323 21.1205 20.3476 21.3806 20.2084C21.6407 20.0692 21.8031 19.7981 21.8031 19.5031V3.50312ZM12.2031 16.3031H7.80313V17.5031C7.80313 18.7181 8.78815 19.7031 10.0031 19.7031C11.2181 19.7031 12.2031 18.7181 12.2031 17.5031V16.3031ZM15.0031 14.7031C15.161 14.7031 15.3154 14.7498 15.4469 14.8374L20.2031 18.0082V4.99794L15.4469 8.16876C15.3154 8.25637 15.161 8.30312 15.0031 8.30312H7.00313C5.23581 8.30312 3.80312 9.73581 3.80312 11.5031C3.80312 13.2704 5.23581 14.7031 7.00313 14.7031H15.0031Z" fill="black"/>
</svg>
