<svg width="24" height="24" viewBox="0 0 24 24" fill="none" xmlns="http://www.w3.org/2000/svg">
<g clip-path="url(#clip0_3903_44421)">
<mask id="mask0_3903_44421" style="mask-type:luminance" maskUnits="userSpaceOnUse" x="0" y="0" width="24" height="24">
<path d="M24 0H0V24H24V0Z" fill="white"/>
</mask>
<g mask="url(#mask0_3903_44421)">
<mask id="mask1_3903_44421" style="mask-type:luminance" maskUnits="userSpaceOnUse" x="0" y="0" width="24" height="24">
<path d="M24 0H0V24H24V0Z" fill="white"/>
</mask>
<g mask="url(#mask1_3903_44421)">
<mask id="mask2_3903_44421" style="mask-type:luminance" maskUnits="userSpaceOnUse" x="0" y="0" width="24" height="24">
<path d="M24 0H0V24H24V0Z" fill="white"/>
</mask>
<g mask="url(#mask2_3903_44421)">
<mask id="mask3_3903_44421" style="mask-type:luminance" maskUnits="userSpaceOnUse" x="0" y="0" width="24" height="24">
<path d="M24 0H0V24H24V0Z" fill="white"/>
</mask>
<g mask="url(#mask3_3903_44421)">
<mask id="mask4_3903_44421" style="mask-type:luminance" maskUnits="userSpaceOnUse" x="0" y="0" width="24" height="24">
<path d="M24 0H0V24H24V0Z" fill="white"/>
</mask>
<g mask="url(#mask4_3903_44421)">
<path d="M6.06886 7.34084C6.62034 7.34084 7.0674 6.89378 7.0674 6.3423C7.0674 5.79081 6.62034 5.34375 6.06886 5.34375C5.51737 5.34375 5.07031 5.79081 5.07031 6.3423C5.07031 6.89378 5.51737 7.34084 6.06886 7.34084Z" fill="black"/>
<path d="M11.0674 6.3423C11.0674 6.89378 10.6203 7.34084 10.0689 7.34084C9.51738 7.34084 9.07031 6.89378 9.07031 6.3423C9.07031 5.79081 9.51738 5.34375 10.0689 5.34375C10.6203 5.34375 11.0674 5.79081 11.0674 6.3423Z" fill="black"/>
<path d="M14.061 7.34084C14.6125 7.34084 15.0596 6.89378 15.0596 6.3423C15.0596 5.79081 14.6125 5.34375 14.061 5.34375C13.5096 5.34375 13.0625 5.79081 13.0625 6.3423C13.0625 6.89378 13.5096 7.34084 14.061 7.34084Z" fill="black"/>
<path d="M19.0518 6.3423C19.0518 6.89378 18.6047 7.34084 18.0532 7.34084C17.5017 7.34084 17.0547 6.89378 17.0547 6.3423C17.0547 5.79081 17.5017 5.34375 18.0532 5.34375C18.6047 5.34375 19.0518 5.79081 19.0518 6.3423Z" fill="black"/>
<path d="M9.33789 9.86719C8.89671 9.86719 8.53906 10.2248 8.53906 10.666C8.53906 11.1071 8.89671 11.4648 9.33789 11.4648H14.6635C15.1047 11.4648 15.4623 11.1071 15.4623 10.666C15.4623 10.2248 15.1047 9.86719 14.6635 9.86719H9.33789Z" fill="black"/>
<path fill-rule="evenodd" clip-rule="evenodd" d="M0.546875 4.00851C0.546875 2.0967 2.0967 0.546875 4.0085 0.546875H19.9853C21.8971 0.546875 23.4469 2.0967 23.4469 4.00851V11.9969C23.4469 13.9088 21.8971 15.4586 19.9853 15.4586H4.0085C2.0967 15.4586 0.546875 13.9088 0.546875 11.9969V4.00851ZM4.0085 2.14455C2.97907 2.14455 2.14455 2.97907 2.14455 4.00851V11.9969C2.14455 13.0264 2.97907 13.8609 4.0085 13.8609H19.9853C21.0147 13.8609 21.8492 13.0264 21.8492 11.9969V4.00851C21.8492 2.97907 21.0147 2.14455 19.9853 2.14455H4.0085Z" fill="black"/>
<path d="M7.4371 18.0934C7.74907 17.7814 8.25486 17.7814 8.56682 18.0934L11.9961 21.5227L15.4254 18.0934C15.7374 17.7814 16.2432 17.7814 16.5552 18.0934C16.8671 18.4053 16.8671 18.9111 16.5552 19.2231L12.561 23.2173C12.249 23.5292 11.7432 23.5292 11.4312 23.2173L7.4371 19.2231C7.12514 18.9111 7.12514 18.4053 7.4371 18.0934Z" fill="black"/>
</g>
</g>
</g>
</g>
</g>
</g>
<defs>
<clipPath id="clip0_3903_44421">
<rect width="24" height="24" fill="white"/>
</clipPath>
</defs>
</svg>
