<svg width="24" height="24" viewBox="0 0 24 24" fill="none" xmlns="http://www.w3.org/2000/svg">
<path fill-rule="evenodd" clip-rule="evenodd" d="M23.5749 11.6871C23.8868 12 23.888 12.5086 23.5776 12.823L21.5711 14.8553C21.4215 15.0067 21.2183 15.0918 21.0064 15.0918C20.7944 15.0918 20.5912 15.0067 20.4416 14.8553L18.4351 12.823C18.1247 12.5086 18.1259 12 18.4378 11.6871C18.7497 11.3741 19.2541 11.3753 19.5646 11.6898L21.0064 13.15L22.4481 11.6898C22.7586 11.3753 23.263 11.3741 23.5749 11.6871Z" fill="black"/>
<path fill-rule="evenodd" clip-rule="evenodd" d="M11.0032 2.80313C5.9221 2.80313 1.80312 6.9221 1.80312 12.0032C1.80312 17.0842 5.9221 21.2032 11.0032 21.2032C12.9589 21.2032 14.7699 20.5938 16.2598 19.5546C16.6221 19.3018 17.1208 19.3907 17.3736 19.7531C17.6264 20.1154 17.5375 20.6141 17.1751 20.8669C15.4255 22.0873 13.2967 22.8032 11.0032 22.8032C5.03845 22.8032 0.203125 17.9678 0.203125 12.0032C0.203125 6.03845 5.03845 1.20312 11.0032 1.20312C16.9678 1.20312 21.8032 6.03845 21.8032 12.0032C21.8032 12.5262 21.7659 13.041 21.6938 13.545C21.6313 13.9824 21.226 14.2862 20.7886 14.2237C20.3512 14.1611 20.0474 13.7558 20.1099 13.3184C20.1713 12.8893 20.2032 12.4502 20.2032 12.0032C20.2032 6.9221 16.0842 2.80313 11.0032 2.80313Z" fill="black"/>
<path d="M8.77786 9.60097C8.66783 9.17306 8.23177 8.91537 7.80384 9.0254C7.37593 9.13544 7.11824 9.57152 7.22828 9.99943L7.58846 11.4001H7.00312C6.56129 11.4001 6.20312 11.7583 6.20312 12.2001C6.20312 12.6419 6.56129 13.0001 7.00312 13.0001H7.99989L8.514 14.9994C8.60202 15.3417 8.9042 15.5856 9.25735 15.5995C9.6105 15.6134 9.93093 15.3939 10.0456 15.0596L10.7517 13.0001H11.2545L11.9606 15.0596C12.0753 15.3939 12.3957 15.6134 12.7488 15.5995C13.102 15.5856 13.4042 15.3417 13.4922 14.9994L14.0063 13.0001H15.0032C15.445 13.0001 15.8032 12.6419 15.8032 12.2001C15.8032 11.7583 15.445 11.4001 15.0032 11.4001H14.4177L14.7779 9.99943C14.8879 9.57152 14.6302 9.13544 14.2023 9.0254C13.7744 8.91537 13.3383 9.17306 13.2283 9.60097L12.7657 11.4001H12.3974L11.7599 9.54074C11.649 9.21739 11.3449 9.0002 11.0031 9.0002C10.6613 9.0002 10.3572 9.21739 10.2463 9.54074L9.6088 11.4001H9.24051L8.77786 9.60097Z" fill="black"/>
</svg>
