<svg width="24" height="24" viewBox="0 0 24 24" fill="none" xmlns="http://www.w3.org/2000/svg">
<path fill-rule="evenodd" clip-rule="evenodd" d="M3.67144 1.89844C3.15463 1.89844 2.62519 2.19086 2.41845 2.74039C1.89826 4.12304 1.89838 5.72304 1.89844 6.54354L1.89845 6.56987C1.89845 15.146 8.85082 22.0984 17.427 22.0984H17.4533C18.2738 22.0985 19.8738 22.0986 21.2565 21.5784C21.806 21.3717 22.0984 20.8422 22.0984 20.3254V14.9127C22.0984 14.4709 21.7402 14.1127 21.2984 14.1127H16.2769C15.9852 14.1127 15.7054 14.2286 15.4991 14.4349L13.8746 16.0594C13.0658 15.771 11.6243 15.1676 10.4243 13.9677C8.89758 12.4409 8.23442 10.9335 7.93964 10.1249L9.59223 8.5021C9.80286 8.29526 9.92152 8.01244 9.92152 7.71724V2.69844C9.92152 2.25662 9.56335 1.89844 9.12152 1.89844H3.67144ZM3.54159 3.16294C3.54629 3.15044 3.55535 3.13698 3.57556 3.12405C3.59744 3.11005 3.63072 3.09844 3.67144 3.09844H8.72152V7.67528L6.82806 9.53462C6.6645 9.69523 6.60675 9.935 6.67924 10.1524C6.91753 10.8673 7.59429 12.8347 9.57583 14.8162C11.1893 16.4297 13.1553 17.0879 13.8444 17.3176C14.06 17.3895 14.2977 17.3334 14.4584 17.1727L16.3184 15.3127H20.8984V20.3254C20.8984 20.3661 20.8868 20.3994 20.8728 20.4213C20.8599 20.4415 20.8464 20.4506 20.8339 20.4553C19.6715 20.8926 18.2683 20.8984 17.427 20.8984C9.51356 20.8984 3.09845 14.4833 3.09845 6.56987C3.09845 5.7285 3.10425 4.32539 3.54159 3.16294Z" fill="black"/>
<path d="M15.4228 3.57418C15.1885 3.33986 14.8086 3.33986 14.5742 3.57418C14.3399 3.80849 14.3399 4.18839 14.5742 4.42271L16.65 6.49844L14.5742 8.57418C14.3399 8.80849 14.3399 9.18839 14.5742 9.42271C14.8086 9.65702 15.1885 9.65702 15.4228 9.42271L17.4985 7.34697L19.5742 9.42271C19.8086 9.65702 20.1885 9.65702 20.4228 9.42271C20.6571 9.18839 20.6571 8.80849 20.4228 8.57418L18.347 6.49844L20.4228 4.42271C20.6571 4.18839 20.6571 3.80849 20.4228 3.57418C20.1885 3.33986 19.8086 3.33986 19.5742 3.57418L17.4985 5.64991L15.4228 3.57418Z" fill="black"/>
</svg>
