<svg width="24" height="24" viewBox="0 0 24 24" fill="none" xmlns="http://www.w3.org/2000/svg">
<path d="M3.20312 3.20312H20.8031V7.00313C20.8031 7.44495 20.445 7.80313 20.0032 7.80313C19.5613 7.80313 19.2032 7.44495 19.2032 7.00313V4.80314H12.8032V19.2032H15.0032C15.445 19.2032 15.8032 19.5614 15.8032 20.0032C15.8032 20.445 15.445 20.8032 15.0032 20.8032H9.00313C8.5613 20.8032 8.20312 20.445 8.20312 20.0032C8.20312 19.5614 8.5613 19.2032 9.00313 19.2032H11.2032V4.80314H4.80318V7.00313C4.80318 7.44495 4.44495 7.80313 4.00312 7.80313C3.56129 7.80313 3.20312 7.44495 3.20312 7.00313V3.20312Z" fill="black"/>
</svg>
