<svg width="24" height="24" viewBox="0 0 24 24" fill="none" xmlns="http://www.w3.org/2000/svg">
<path fill-rule="evenodd" clip-rule="evenodd" d="M10.9102 8.61719C10.5499 8.61719 10.2578 8.90931 10.2578 9.26966V14.7242C10.2578 15.0846 10.5499 15.3767 10.9102 15.3767C11.2706 15.3767 11.5627 15.0846 11.5627 14.7242V13.1949H12.5466C13.8107 13.1949 14.8354 12.1702 14.8354 10.9061C14.8354 9.64194 13.8107 8.61719 12.5466 8.61719H10.9102ZM11.5627 11.89V9.92214H12.5466C13.09 9.92214 13.5305 10.3627 13.5305 10.9061C13.5305 11.4495 13.09 11.89 12.5466 11.89H11.5627Z" fill="black"/>
<path fill-rule="evenodd" clip-rule="evenodd" d="M12.0027 4.80469C8.02732 4.80469 4.80469 8.02731 4.80469 12.0027C4.80469 15.978 8.02732 19.2006 12.0027 19.2006C15.978 19.2006 19.2006 15.978 19.2006 12.0027C19.2006 8.02731 15.978 4.80469 12.0027 4.80469ZM6.10964 12.0027C6.10964 8.74801 8.74802 6.10964 12.0027 6.10964C15.2573 6.10964 17.8956 8.74801 17.8956 12.0027C17.8956 15.2573 15.2573 17.8957 12.0027 17.8957C8.74802 17.8957 6.10964 15.2573 6.10964 12.0027Z" fill="black"/>
<path d="M19.2404 4.93898C19.5266 4.72002 19.9361 4.77454 20.1551 5.06074C21.6029 6.95324 22.4711 9.44473 22.4711 12.1444C22.4711 14.7088 21.6938 17.0736 20.381 18.9254C20.1726 19.2194 19.7654 19.2888 19.4714 19.0804C19.1774 18.872 19.1081 18.4647 19.3165 18.1707C20.4681 16.5462 21.1662 14.4467 21.1662 12.1444C21.1662 9.72123 20.3863 7.5106 19.1186 5.85365C18.8997 5.56745 18.9542 5.15794 19.2404 4.93898Z" fill="black"/>
<path d="M4.76265 4.93948C5.04858 5.1588 5.10257 5.56838 4.88325 5.85431C3.60579 7.51971 2.8362 9.66498 2.8362 12.0026C2.8362 14.3403 3.60579 16.4855 4.88325 18.1509C5.10257 18.4369 5.04858 18.8465 4.76265 19.0658C4.47673 19.2851 4.06715 19.2311 3.84783 18.9452C2.39584 17.0522 1.53125 14.6279 1.53125 12.0026C1.53125 9.37737 2.39584 6.95302 3.84783 5.06008C4.06715 4.77416 4.47673 4.72016 4.76265 4.93948Z" fill="black"/>
</svg>
