<svg width="24" height="24" viewBox="0 0 24 24" fill="none" xmlns="http://www.w3.org/2000/svg">
<path d="M20.4103 3.54289C20.8008 3.93342 20.8008 4.56658 20.4103 4.95711L4.91024 20.4571C4.51971 20.8476 3.88655 20.8476 3.49602 20.4571C3.1055 20.0666 3.1055 19.4334 3.49602 19.0429L18.996 3.54289C19.3866 3.15237 20.0197 3.15237 20.4103 3.54289Z" fill="black"/>
<path d="M7.33333 10.6667C9.17428 10.6667 10.6667 9.17428 10.6667 7.33333C10.6667 5.49238 9.17428 4 7.33333 4C5.49238 4 4 5.49238 4 7.33333C4 9.17428 5.49238 10.6667 7.33333 10.6667Z" fill="black"/>
<path d="M20.0025 16.6692C20.0025 18.5102 18.5101 20.0026 16.6692 20.0026C14.8282 20.0026 13.3359 18.5102 13.3359 16.6692C13.3359 14.8283 14.8282 13.3359 16.6692 13.3359C18.5101 13.3359 20.0025 14.8283 20.0025 16.6692Z" fill="black"/>
</svg>
