<svg width="24" height="24" viewBox="0 0 24 24" fill="none" xmlns="http://www.w3.org/2000/svg">
<path d="M8.59472 13.8809C8.52973 13.556 8.21363 13.3452 7.8887 13.4102C7.56376 13.4752 7.35303 13.7913 7.41802 14.1162C7.63981 15.2252 8.91544 17.0986 12.0063 17.0986C15.0972 17.0986 16.3729 15.2252 16.5947 14.1162C16.6597 13.7913 16.4489 13.4752 16.124 13.4102C15.7991 13.3452 15.483 13.556 15.418 13.8809C15.3064 14.4386 14.5154 15.8986 12.0063 15.8986C9.4973 15.8986 8.70626 14.4386 8.59472 13.8809Z" fill="black"/>
<path d="M9.70312 10.4532C9.70312 11.1436 9.1435 11.7032 8.45312 11.7032C7.76279 11.7032 7.20312 11.1436 7.20312 10.4532C7.20312 9.76278 7.76279 9.20312 8.45312 9.20312C9.1435 9.20312 9.70312 9.76278 9.70312 10.4532Z" fill="black"/>
<path d="M15.5547 11.7032C16.2451 11.7032 16.8047 11.1436 16.8047 10.4532C16.8047 9.76278 16.2451 9.20312 15.5547 9.20312C14.8644 9.20312 14.3047 9.76278 14.3047 10.4532C14.3047 11.1436 14.8644 11.7032 15.5547 11.7032Z" fill="black"/>
<path fill-rule="evenodd" clip-rule="evenodd" d="M12.0031 2.20312C6.59073 2.20312 2.20312 6.59072 2.20312 12.0032C2.20312 17.4156 6.59073 21.8032 12.0031 21.8032C17.4155 21.8032 21.8031 17.4156 21.8031 12.0032C21.8031 6.59072 17.4155 2.20312 12.0031 2.20312ZM3.40317 12.0032C3.40317 7.25347 7.25353 3.40315 12.0031 3.40315C16.7527 3.40315 20.6031 7.25347 20.6031 12.0032C20.6031 16.7528 16.7527 20.6032 12.0031 20.6032C7.25353 20.6032 3.40317 16.7528 3.40317 12.0032Z" fill="black"/>
</svg>
