<svg width="24" height="24" viewBox="0 0 24 24" fill="none" xmlns="http://www.w3.org/2000/svg">
<path fill-rule="evenodd" clip-rule="evenodd" d="M12.1874 4.28779C10.9733 4.83308 9.56357 5.84861 8.20732 7.20483C5.99384 9.41831 4.78804 12.8123 4.4764 14.2147C4.35659 14.7538 3.82241 15.0937 3.28328 14.9739C2.74415 14.8541 2.40422 14.3199 2.52402 13.7808C2.87904 12.1832 4.20658 8.37715 6.7931 5.79062C8.26644 4.31728 9.87147 3.13551 11.368 2.46335C12.7998 1.82031 14.4441 1.51396 15.7028 2.36437C16.055 2.60231 16.2992 2.91355 16.4686 3.18755C17.2402 4.43558 17.1718 5.63115 16.8018 6.62916C16.5215 7.38534 16.0401 8.07963 15.7032 8.5656C15.6333 8.66637 15.5697 8.75818 15.5153 8.83973C15.2132 9.29285 14.6963 9.87106 14.1413 10.4695C13.9018 10.7277 13.6539 10.991 13.3985 11.2622C13.0267 11.657 12.6392 12.0686 12.239 12.5055C11.5755 13.2299 10.9277 13.9704 10.3876 14.6793C9.83983 15.3984 9.44242 16.0344 9.23901 16.5513C9.15793 16.7574 9.1449 16.8935 9.14814 16.9708C9.15006 17.0165 9.18268 17.0533 9.22793 17.0603C9.55598 17.1107 10.5354 16.9051 11.9712 15.4693C12.3468 15.0937 12.7114 14.7234 13.0631 14.3661C14.0746 13.3386 14.9803 12.4187 15.7386 11.7893C16.2457 11.3684 16.7939 10.9829 17.3526 10.8059C17.6465 10.7127 17.9858 10.6633 18.3427 10.7301C18.7116 10.7991 19.0287 10.9794 19.2833 11.234C19.8585 11.8092 19.9014 12.553 19.7787 13.157C19.6596 13.7428 19.3626 14.3498 19.0214 14.9203C18.3626 16.0216 17.3513 17.2852 16.4032 18.4698C16.3623 18.5208 16.3216 18.5717 16.281 18.6224C16.2136 18.7067 16.151 18.7878 16.0929 18.8657C15.7643 19.3066 16.1182 19.7735 16.6288 19.5692C18.5468 18.8021 19.584 17.9997 19.7931 17.7906C20.1836 17.4001 20.8168 17.4001 21.2073 17.7906C21.5978 18.1811 21.5978 18.8143 21.2073 19.2048C20.7497 19.6624 19.4536 20.5934 17.3716 21.4262C16.6862 21.7003 16.0291 21.8694 15.4487 21.8804C14.8918 21.8909 14.1844 21.7511 13.7489 21.1415C13.3163 20.5358 13.4017 19.8139 13.594 19.2571C13.7947 18.6763 14.1834 18.043 14.7193 17.373L14.7899 17.2848C15.7815 16.0455 16.718 14.8749 17.305 13.8936C17.352 13.8151 17.3955 13.7397 17.4357 13.6674C17.6284 13.3209 17.321 13.0751 17.0159 13.3283C16.3412 13.8883 15.5433 14.6986 14.5635 15.6937C14.1973 16.0656 13.8056 16.4634 13.3854 16.8835C11.8212 18.4478 10.226 19.2371 8.92422 19.0371C8.21708 18.9284 7.61049 18.5154 7.32021 17.8326C7.04721 17.1904 7.12139 16.4709 7.3779 15.819C7.68212 15.046 8.21032 14.237 8.79673 13.4673C9.39088 12.6874 10.0857 11.8954 10.7641 11.1547C11.1656 10.7163 11.58 10.2761 11.9645 9.86755C12.2183 9.59786 12.4592 9.34195 12.6749 9.10941C13.2503 8.48903 13.6533 8.02721 13.8512 7.73033C13.9401 7.59702 14.0283 7.46871 14.1144 7.34348C14.4441 6.86402 14.7427 6.42983 14.9265 5.93401C15.1268 5.39372 15.1529 4.86276 14.7674 4.23931C14.688 4.11079 14.6231 4.04857 14.5831 4.02157C14.2287 3.78212 13.4664 3.71337 12.1874 4.28779ZM17.8328 12.5861C17.8313 12.5876 17.8344 12.5846 17.8328 12.5861V12.5861ZM15.2444 19.867C15.2436 19.8678 15.2453 19.8663 15.2444 19.867V19.867ZM15.4363 20.1211C15.4355 20.1216 15.4371 20.1207 15.4363 20.1211V20.1211Z" fill="black"/>
</svg>
