<svg width="24" height="24" viewBox="0 0 24 24" fill="none" xmlns="http://www.w3.org/2000/svg">
<path d="M11.9972 4.42969C9.1602 4.42969 6.54235 5.005 4.596 5.98021C2.71198 6.92419 1.15625 8.41663 1.15625 10.3655C1.15625 12.1845 2.5175 13.6052 4.20649 14.5417C5.63048 15.3312 7.46364 15.8883 9.49647 16.1409L8.00477 17.6326C7.60537 18.032 7.60537 18.6796 8.00477 19.079C8.40417 19.4784 9.05173 19.4784 9.45113 19.079L12.5367 15.9934C12.9361 15.594 12.9361 14.9465 12.5367 14.5471L9.45113 11.4615C9.05173 11.0621 8.40417 11.0621 8.00477 11.4615C7.60537 11.8609 7.60537 12.5085 8.00477 12.9079L9.11753 14.0206C7.56104 13.767 6.21618 13.3172 5.19836 12.7528C3.75115 11.9504 3.20171 11.0689 3.20171 10.3655C3.20171 9.60839 3.84457 8.64456 5.51228 7.80896C7.11907 7.00388 9.41031 6.47514 11.9972 6.47514C14.5846 6.47514 16.8759 7.00213 18.4825 7.8062C20.1491 8.64034 20.7926 9.60401 20.7926 10.3655C20.7926 10.9438 20.437 11.6302 19.4921 12.3171C18.5575 12.9966 17.1698 13.5745 15.4654 13.9215C14.9119 14.0341 14.5545 14.5742 14.6672 15.1276C14.7799 15.6811 15.3199 16.0385 15.8734 15.9258C17.772 15.5394 19.4573 14.8713 20.6949 13.9716C21.9215 13.0798 22.8381 11.8539 22.8381 10.3655C22.8381 8.41312 21.283 6.92053 19.3979 5.97705C17.4514 5.00281 14.8335 4.42969 11.9972 4.42969Z" fill="black"/>
</svg>
