<svg width="24" height="24" viewBox="0 0 24 24" fill="none" xmlns="http://www.w3.org/2000/svg">
<path fill-rule="evenodd" clip-rule="evenodd" d="M4.75367 4.50377C4.34971 4.09249 3.69476 4.09249 3.2908 4.50377C2.88684 4.91505 2.88684 5.58187 3.2908 5.99315L4.93251 7.65891C3.91937 8.46183 3.08462 9.41031 2.42828 10.5044C1.85724 11.4562 1.85723 12.657 2.42831 13.6088C3.25284 14.983 4.35892 16.1274 5.74654 17.0419C7.62728 18.282 9.71177 18.9021 12 18.9021C13.2116 18.9021 14.366 18.7282 15.4633 18.3806L17.5363 20.5037C17.9403 20.915 18.5953 20.915 18.9992 20.5037C19.4032 20.0924 19.4032 19.4256 18.9992 19.0143L4.75367 4.50377ZM13.2557 16.133L8.04911 10.832C7.92768 11.2272 7.86237 11.6462 7.86237 12.0791C7.86237 14.6477 10.1088 16.6885 12.7008 16.2663C12.8904 16.2348 13.0757 16.19 13.2557 16.133Z" fill="black"/>
<path d="M13.1524 8.30612C12.7933 8.51504 12.5104 8.85961 12.3742 9.26794L14.4529 11.3843C14.9342 11.2205 15.3146 10.8415 15.4679 10.3469C15.5025 10.171 15.7099 10.171 15.7444 10.3117C16.09 11.0858 16.2283 11.9655 16.0555 12.9155C16.0504 12.9437 16.0451 12.9717 16.0394 12.9996L19.267 16.2856C20.1917 15.5178 20.9607 14.6229 21.574 13.6008C22.1451 12.649 22.1451 11.4482 21.574 10.4964C20.7495 9.122 19.6434 7.97732 18.2558 7.06236C16.375 5.82288 14.2905 5.20312 12.0023 5.20312C10.891 5.20312 9.82771 5.34932 8.8125 5.64169L11.079 7.94931C11.2699 7.90232 11.466 7.86843 11.6663 7.8487C12.1847 7.81351 12.6686 7.8487 13.1178 7.98945C13.2561 8.02463 13.2906 8.23575 13.1524 8.30612Z" fill="black"/>
</svg>
