<svg width="24" height="24" viewBox="0 0 24 24" fill="none" xmlns="http://www.w3.org/2000/svg">
<path d="M16.4593 11.3826C16.6715 11.1281 16.6371 10.7497 16.3825 10.5376C16.128 10.3254 15.7496 10.3598 15.5375 10.6144L10.9216 16.1535L8.38256 14.0376C8.12799 13.8254 7.74965 13.8598 7.53751 14.1144C7.32538 14.369 7.35977 14.7473 7.61434 14.9594L10.6143 17.4594C10.7366 17.5613 10.8943 17.6105 11.0527 17.5961C11.2112 17.5816 11.3575 17.5049 11.4593 17.3826L16.4593 11.3826Z" fill="black"/>
<path fill-rule="evenodd" clip-rule="evenodd" d="M6.99842 3C6.99842 2.44772 7.44613 2 7.99842 2H15.9984C16.5507 2 16.9984 2.44772 16.9984 3V3.3999H18.9984C20.4343 3.3999 21.5984 4.56396 21.5984 5.9999V19.9999C21.5984 21.4358 20.4343 22.5999 18.9984 22.5999H4.99844C3.5625 22.5999 2.39844 21.4358 2.39844 19.9999V5.9999C2.39844 4.56396 3.5625 3.3999 4.99844 3.3999H6.99842V3ZM6.99842 4.5999H4.99844C4.22524 4.5999 3.59844 5.2267 3.59844 5.9999V19.9999C3.59844 20.7731 4.22524 21.3999 4.99844 21.3999H18.9984C19.7716 21.3999 20.3984 20.7731 20.3984 19.9999V5.9999C20.3984 5.2267 19.7716 4.5999 18.9984 4.5999H16.9984V6C16.9984 6.55228 16.5507 7 15.9984 7H7.99842C7.44613 7 6.99842 6.55228 6.99842 6V4.5999ZM8.19849 5.8002V3.2002H15.7985V5.8002H8.19849Z" fill="black"/>
</svg>
