<svg width="24" height="24" viewBox="0 0 24 24" fill="none" xmlns="http://www.w3.org/2000/svg">
<path fill-rule="evenodd" clip-rule="evenodd" d="M12.0047 0.296875C9.13281 0.296875 6.80469 2.625 6.80469 5.49688V11.4969C6.80469 14.3688 9.13281 16.697 12.0047 16.697C14.8765 16.697 17.2047 14.3688 17.2047 11.4969V5.49688C17.2047 2.625 14.8765 0.296875 12.0047 0.296875ZM8.40469 5.49688C8.40469 3.50865 10.0164 1.89688 12.0047 1.89688C13.9929 1.89688 15.6047 3.50865 15.6047 5.49688V11.4969C15.6047 13.4852 13.9929 15.0969 12.0047 15.0969C10.0164 15.0969 8.40469 13.4852 8.40469 11.4969V5.49688Z" fill="black"/>
<path d="M4.00312 10.7031C3.56129 10.7031 3.20312 11.0613 3.20312 11.5031C3.20312 16.1276 6.77028 19.919 11.3032 20.2757V22.1031H8.60312C8.16129 22.1031 7.80313 22.4613 7.80313 22.9031C7.80313 23.345 8.16129 23.7032 8.60312 23.7032L15.4032 23.7031C15.845 23.7031 16.2032 23.345 16.2032 22.9031C16.2032 22.4613 15.845 22.1031 15.4032 22.1031H12.9032V20.2577C17.3405 19.8069 20.8032 16.0594 20.8032 11.5031C20.8032 11.0613 20.445 10.7031 20.0032 10.7031C19.5613 10.7031 19.2032 11.0613 19.2032 11.5031C19.2032 15.4796 15.9796 18.7031 12.0032 18.7031C8.02667 18.7031 4.80318 15.4796 4.80318 11.5031C4.80318 11.0613 4.44495 10.7031 4.00312 10.7031Z" fill="black"/>
</svg>
