<svg width="24" height="24" viewBox="0 0 24 24" fill="none" xmlns="http://www.w3.org/2000/svg">
<path fill-rule="evenodd" clip-rule="evenodd" d="M3.39844 7.99844C3.39844 7.66707 3.66707 7.39844 3.99844 7.39844H19.9984C20.3298 7.39844 20.5984 7.66707 20.5984 7.99844C20.5984 8.32981 20.3298 8.59844 19.9984 8.59844H3.99844C3.66707 8.59844 3.39844 8.32981 3.39844 7.99844Z" fill="black"/>
<path fill-rule="evenodd" clip-rule="evenodd" d="M3.39844 11.9984C3.39844 11.667 3.66707 11.3984 3.99844 11.3984H19.9984C20.3298 11.3984 20.5984 11.667 20.5984 11.9984C20.5984 12.3298 20.3298 12.5984 19.9984 12.5984H3.99844C3.66707 12.5984 3.39844 12.3298 3.39844 11.9984Z" fill="black"/>
<path fill-rule="evenodd" clip-rule="evenodd" d="M3.39844 15.9984C3.39844 15.667 3.66707 15.3984 3.99844 15.3984H19.9984C20.3298 15.3984 20.5984 15.667 20.5984 15.9984C20.5984 16.3298 20.3298 16.5984 19.9984 16.5984H3.99844C3.66707 16.5984 3.39844 16.3298 3.39844 15.9984Z" fill="black"/>
</svg>
