<svg width="24" height="24" viewBox="0 0 24 24" fill="none" xmlns="http://www.w3.org/2000/svg">
<path d="M2.43744 6.82983C2.12502 7.14225 2.12502 7.64878 2.43744 7.9612L6.83764 12.3614C7.15006 12.6738 7.65659 12.6738 7.96901 12.3614C8.28143 12.0489 8.28143 11.5424 7.96901 11.23L4.94934 8.21036H14.3183C17.4663 8.21036 20.0183 10.7623 20.0183 13.9103C20.0183 17.0583 17.4663 19.6103 14.3183 19.6103H8.50305C8.06122 19.6103 7.70305 19.9685 7.70305 20.4103C7.70305 20.8521 8.06122 21.2103 8.50305 21.2103H14.3183C18.3499 21.2103 21.6183 17.942 21.6183 13.9103C21.6183 9.87868 18.3499 6.61036 14.3183 6.61036H4.91965L7.96901 3.561C8.28143 3.24858 8.28143 2.74205 7.96901 2.42963C7.65659 2.11721 7.15006 2.11721 6.83764 2.42963L2.43744 6.82983Z" fill="black"/>
</svg>
