<svg width="24" height="24" viewBox="0 0 24 24" fill="none" xmlns="http://www.w3.org/2000/svg">
<path fill-rule="evenodd" clip-rule="evenodd" d="M15.5741 2.57418C15.8085 2.33986 16.1884 2.33986 16.4227 2.57418L21.4227 7.57418C21.657 7.80849 21.657 8.18839 21.4227 8.42271L17.4227 12.4227L8.42271 21.4227C8.31018 21.5352 8.15757 21.5984 7.99844 21.5984H2.99844C2.66707 21.5984 2.39844 21.3298 2.39844 20.9984V15.9984C2.39844 15.8393 2.46166 15.6867 2.57418 15.5741L15.5741 2.57418ZM14.4227 8.57418L16.9984 11.1499L20.1499 7.99844L15.9984 3.84697L3.59844 16.2469V20.3984H7.74991L16.1499 11.9984L13.5741 9.42271C13.3398 9.18839 13.3398 8.80849 13.5741 8.57418C13.8085 8.33986 14.1884 8.33986 14.4227 8.57418ZM13.9984 20.3984C13.667 20.3984 13.3984 20.667 13.3984 20.9984C13.3984 21.3298 13.667 21.5984 13.9984 21.5984H20.9984C21.3298 21.5984 21.5984 21.3298 21.5984 20.9984C21.5984 20.667 21.3298 20.3984 20.9984 20.3984H13.9984Z" fill="black"/>
</svg>
