<svg width="24" height="24" viewBox="0 0 24 24" fill="none" xmlns="http://www.w3.org/2000/svg">
<g clip-path="url(#clip0_3903_44372)">
<mask id="mask0_3903_44372" style="mask-type:luminance" maskUnits="userSpaceOnUse" x="0" y="0" width="24" height="24">
<path d="M24 0H0V24H24V0Z" fill="white"/>
</mask>
<g mask="url(#mask0_3903_44372)">
<mask id="mask1_3903_44372" style="mask-type:luminance" maskUnits="userSpaceOnUse" x="0" y="0" width="24" height="24">
<path d="M24 0H0V24H24V0Z" fill="white"/>
</mask>
<g mask="url(#mask1_3903_44372)">
<mask id="mask2_3903_44372" style="mask-type:luminance" maskUnits="userSpaceOnUse" x="0" y="0" width="24" height="24">
<path d="M24 0H0V24H24V0Z" fill="white"/>
</mask>
<g mask="url(#mask2_3903_44372)">
<mask id="mask3_3903_44372" style="mask-type:luminance" maskUnits="userSpaceOnUse" x="0" y="0" width="24" height="24">
<path d="M24 0H0V24H24V0Z" fill="white"/>
</mask>
<g mask="url(#mask3_3903_44372)">
<mask id="mask4_3903_44372" style="mask-type:luminance" maskUnits="userSpaceOnUse" x="0" y="0" width="24" height="24">
<path d="M24 0H0V24H24V0Z" fill="white"/>
</mask>
<g mask="url(#mask4_3903_44372)">
<path d="M21.9369 17.5974L19.9068 15.8874C22.0068 12.0474 21.4469 7.1475 18.1969 3.8975C16.2269 1.9275 13.6368 0.9375 11.0569 0.9375C8.47688 0.9375 5.88688 1.9275 3.91688 3.8975C-0.0331254 7.8375 -0.0331249 14.2374 3.90688 18.1774C5.87688 20.1474 8.46688 21.1374 11.0468 21.1374C12.7068 21.1374 14.3668 20.7274 15.8668 19.9074L17.5768 21.9474C18.1368 22.6074 18.9468 23.0074 19.8068 23.0474C19.8468 23.0474 19.8968 23.0474 19.9369 23.0474C20.7568 23.0474 21.5468 22.7174 22.1268 22.1474C22.7368 21.5374 23.0669 20.6874 23.0269 19.8274C22.9868 18.9674 22.5868 18.1474 21.9268 17.5974H21.9369ZM11.0468 19.5374C8.77688 19.5374 6.64688 18.6574 5.03688 17.0474C1.72688 13.7374 1.72688 8.3375 5.03688 5.0275C6.64688 3.4175 8.77688 2.5375 11.0468 2.5375C13.3168 2.5375 15.4468 3.4175 17.0568 5.0275C20.3668 8.3375 20.3668 13.7374 17.0568 17.0474C15.4468 18.6574 13.3168 19.5374 11.0468 19.5374ZM21.0068 21.0174C20.7069 21.3174 20.3068 21.4774 19.8868 21.4574C19.4668 21.4374 19.0868 21.2474 18.8068 20.9274L17.2168 19.0274C17.5568 18.7674 17.8869 18.4874 18.1869 18.1774C18.4868 17.8674 18.7568 17.5574 19.0068 17.2274L20.8968 18.8174C21.2168 19.0874 21.4068 19.4674 21.4268 19.8974C21.4469 20.3174 21.2869 20.7174 20.9968 21.0174H21.0068Z" fill="black"/>
<path d="M14.127 10.76C14.527 10.16 14.757 9.45 14.757 8.7C14.757 7.6 14.2671 6.56 13.427 5.85C12.757 5.29 11.917 5.01 11.0571 5C10.1971 5 9.35703 5.29 8.68703 5.85C7.83703 6.56 7.35703 7.59 7.35703 8.7C7.35703 9.45 7.57703 10.16 7.98703 10.76C6.30703 11.5199 5.24703 12.6599 5.07703 13.9399C4.95703 14.8099 5.32703 15.5399 6.02703 16.3399C7.20703 17.6799 9.03703 18.4499 11.067 18.4499C13.097 18.4499 14.927 17.6799 16.1071 16.3399C16.8071 15.5499 17.167 14.8099 17.057 13.9399C16.887 12.6699 15.827 11.5199 14.147 10.76H14.127ZM14.887 15.2799C14.4771 15.7499 13.2671 16.8499 11.047 16.8499C8.82703 16.8499 7.62703 15.7499 7.20703 15.2799C6.75703 14.7599 6.61703 14.4999 6.64703 14.1399C6.73703 13.0999 8.24703 12.2799 9.46703 11.8999C9.46703 11.8999 9.78703 11.7899 9.90703 11.63C10.047 11.4399 10.077 11.22 10.077 11.22C10.137 10.89 10.0171 10.5599 9.74703 10.3499C9.23703 9.95 8.94703 9.35 8.94703 8.7C8.94703 8.05 9.22703 7.48 9.70703 7.08C10.087 6.76 10.5571 6.59 11.047 6.59C11.537 6.59 12.007 6.76 12.387 7.08C12.867 7.48 13.147 8.07 13.147 8.7C13.147 9.33 12.8571 9.94 12.347 10.3499C12.087 10.5599 11.957 10.89 12.0171 11.22C12.0171 11.22 12.037 11.45 12.187 11.63C12.317 11.7899 12.627 11.8999 12.627 11.8999C13.837 12.2899 15.347 13.0999 15.447 14.1399C15.477 14.4999 15.337 14.7599 14.887 15.2799Z" fill="black"/>
</g>
</g>
</g>
</g>
</g>
</g>
<defs>
<clipPath id="clip0_3903_44372">
<rect width="24" height="24" fill="white"/>
</clipPath>
</defs>
</svg>
