<svg width="24" height="24" viewBox="0 0 24 24" fill="none" xmlns="http://www.w3.org/2000/svg">
<path d="M4.10156 7C4.65384 7 5.10156 6.55228 5.10156 6C5.10156 5.44772 4.65384 5 4.10156 5C3.54927 5 3.10156 5.44772 3.10156 6C3.10156 6.55228 3.54927 7 4.10156 7Z" fill="black"/>
<path d="M8.20156 5.39844C7.87019 5.39844 7.60156 5.66707 7.60156 5.99844C7.60156 6.32981 7.87019 6.59844 8.20156 6.59844H20.3015C20.6329 6.59844 20.9015 6.32981 20.9015 5.99844C20.9015 5.66707 20.6329 5.39844 20.3015 5.39844H8.20156Z" fill="black"/>
<path d="M8.20156 11.3984C7.87019 11.3984 7.60156 11.667 7.60156 11.9984C7.60156 12.3298 7.87019 12.5984 8.20156 12.5984H20.3015C20.6329 12.5984 20.9015 12.3298 20.9015 11.9984C20.9015 11.667 20.6329 11.3984 20.3015 11.3984H8.20156Z" fill="black"/>
<path d="M7.60156 17.9984C7.60156 17.667 7.87019 17.3984 8.20156 17.3984H20.3015C20.6329 17.3984 20.9015 17.667 20.9015 17.9984C20.9015 18.3298 20.6329 18.5984 20.3015 18.5984H8.20156C7.87019 18.5984 7.60156 18.3298 7.60156 17.9984Z" fill="black"/>
<path d="M5.10156 12C5.10156 12.5523 4.65384 13 4.10156 13C3.54927 13 3.10156 12.5523 3.10156 12C3.10156 11.4477 3.54927 11 4.10156 11C4.65384 11 5.10156 11.4477 5.10156 12Z" fill="black"/>
<path d="M4.10156 19C4.65384 19 5.10156 18.5523 5.10156 18C5.10156 17.4477 4.65384 17 4.10156 17C3.54927 17 3.10156 17.4477 3.10156 18C3.10156 18.5523 3.54927 19 4.10156 19Z" fill="black"/>
</svg>
