<svg width="24" height="24" viewBox="0 0 24 24" fill="none" xmlns="http://www.w3.org/2000/svg">
<path fill-rule="evenodd" clip-rule="evenodd" d="M18.5757 20.1757C18.8101 20.4101 19.1899 20.4101 19.4243 20.1757C19.6586 19.9414 19.6586 19.5615 19.4243 19.3272L17.629 17.5319L17.6308 17.5309L16.755 16.655L16.7531 16.6561L14.9017 14.8047L14.9032 14.8032L9.24832 9.14837L9.24683 9.14978L7.44019 7.34314L7.4421 7.34215L6.5607 6.46075L6.55885 6.4618L4.27279 4.17574C4.03848 3.94142 3.65858 3.94142 3.42426 4.17574C3.18995 4.41005 3.18995 4.78995 3.42426 5.02426L5.52255 7.12255C4.20954 8.06001 3.16212 9.21979 2.38031 10.6019C1.87323 11.4983 1.87322 12.6047 2.38034 13.5011C3.21005 14.9678 4.33891 16.1839 5.76692 17.1494C7.64153 18.4175 9.71922 19.0515 12 19.0515C13.604 19.0515 15.1076 18.7379 16.5107 18.1107L18.5757 20.1757ZM15.5961 17.1961L13.9467 15.5467C13.3705 15.8683 12.7067 16.0515 12 16.0515C9.79086 16.0515 8 14.2607 8 12.0515C8 11.3448 8.18325 10.681 8.50483 10.1048L6.37924 7.97924C5.11707 8.84132 4.12959 9.91347 3.40134 11.2009C3.10399 11.7266 3.104 12.3765 3.40134 12.9021C4.13716 14.2028 5.13761 15.2835 6.41866 16.1497C8.09731 17.2852 9.94785 17.8515 12 17.8515C13.2741 17.8515 14.4704 17.6333 15.5961 17.1961Z" fill="black"/>
<path d="M21.6169 13.5043C20.8697 14.825 19.8801 15.9425 18.6478 16.8568L17.7942 16.0032C18.9723 15.1632 19.9019 14.132 20.5959 12.9053C20.8932 12.3797 20.8932 11.7298 20.5959 11.2041C19.86 9.90327 18.8596 8.82224 17.5785 7.95562C15.8999 6.82064 14.0495 6.25469 11.9972 6.25469C10.8051 6.25469 9.68104 6.44569 8.61922 6.82823L7.69531 5.90433C9.0385 5.3379 10.4725 5.05469 11.9972 5.05469C14.278 5.05469 16.3557 5.68843 18.2303 6.95589C19.6583 7.92188 20.7872 9.13827 21.6169 10.6051C22.124 11.5015 22.124 12.6079 21.6169 13.5043Z" fill="black"/>
<path d="M16 12.0491C16 12.6765 15.8556 13.2702 15.5981 13.7987L13.7266 11.9272C13.9701 12.0063 14.2301 12.0491 14.5 12.0491C15.0501 12.0491 15.5588 11.8714 15.9716 11.5703C15.9904 11.7273 16 11.8871 16 12.0491Z" fill="black"/>
<path d="M11.9996 9.55469C11.9996 9.82462 12.0424 10.0846 12.1215 10.3281L10.25 8.4566C10.7785 8.19914 11.3722 8.05469 11.9996 8.05469C12.1616 8.05469 12.3214 8.06433 12.4784 8.08305C12.1773 8.49592 11.9996 9.00455 11.9996 9.55469Z" fill="black"/>
</svg>
