<svg width="24" height="24" viewBox="0 0 24 24" fill="none" xmlns="http://www.w3.org/2000/svg">
<g clip-path="url(#clip0_3903_44112)">
<mask id="mask0_3903_44112" style="mask-type:luminance" maskUnits="userSpaceOnUse" x="0" y="0" width="24" height="24">
<path d="M24 0H0V24H24V0Z" fill="white"/>
</mask>
<g mask="url(#mask0_3903_44112)">
<mask id="mask1_3903_44112" style="mask-type:luminance" maskUnits="userSpaceOnUse" x="0" y="0" width="24" height="24">
<path d="M24 0H0V24H24V0Z" fill="white"/>
</mask>
<g mask="url(#mask1_3903_44112)">
<mask id="mask2_3903_44112" style="mask-type:luminance" maskUnits="userSpaceOnUse" x="0" y="0" width="24" height="24">
<path d="M24 0H0V24H24V0Z" fill="white"/>
</mask>
<g mask="url(#mask2_3903_44112)">
<mask id="mask3_3903_44112" style="mask-type:luminance" maskUnits="userSpaceOnUse" x="0" y="0" width="24" height="24">
<path d="M24 0H0V24H24V0Z" fill="white"/>
</mask>
<g mask="url(#mask3_3903_44112)">
<path d="M12.7627 1.51271C12.7627 1.09148 12.4212 0.75 12 0.75C11.5788 0.75 11.2373 1.09148 11.2373 1.51271V2.68746C6.68546 3.05521 3.05521 6.68546 2.68746 11.2373H1.51271C1.09148 11.2373 0.75 11.5788 0.75 12C0.75 12.4212 1.09148 12.7627 1.51271 12.7627H2.68746C3.05521 17.3145 6.68546 20.9448 11.2373 21.3125V22.4873C11.2373 22.9085 11.5788 23.25 12 23.25C12.4212 23.25 12.7627 22.9085 12.7627 22.4873V21.3125C13.2711 21.2715 13.7679 21.1897 14.25 21.0705V19.4892C13.5375 19.7029 12.7821 19.8178 12 19.8178C7.68235 19.8178 4.1822 16.3176 4.1822 12C4.1822 7.68235 7.68235 4.1822 12 4.1822C15.5355 4.1822 18.5229 6.52911 19.4892 9.75H21.0705C20.1224 5.9153 16.8062 3.01414 12.7627 2.68746V1.51271Z" fill="black"/>
<path fill-rule="evenodd" clip-rule="evenodd" d="M12 16.75C14.6234 16.75 16.75 14.6234 16.75 12C16.75 9.37665 14.6234 7.25 12 7.25C9.37665 7.25 7.25 9.37665 7.25 12C7.25 14.6234 9.37665 16.75 12 16.75ZM12 15.15C13.7397 15.15 15.15 13.7397 15.15 12C15.15 10.2603 13.7397 8.85 12 8.85C10.2603 8.85 8.85 10.2603 8.85 12C8.85 13.7397 10.2603 15.15 12 15.15Z" fill="black"/>
<path d="M22.9747 16.3691C23.1091 15.3151 22.7288 14.4344 22.0845 13.84C21.4567 13.2608 20.5978 12.9682 19.762 13.0027C18.1377 13.0699 16.6016 14.3326 16.6016 16.1013C16.6016 16.4879 16.915 16.8013 17.3016 16.8013C17.6882 16.8013 18.0016 16.4879 18.0016 16.1013C18.0016 15.2199 18.8011 14.4437 19.8199 14.4015C20.3056 14.3815 20.7961 14.5562 21.1351 14.8689C21.4575 15.1664 21.6611 15.6022 21.5859 16.192C21.5276 16.6498 21.2239 16.8663 20.5566 17.3317C19.9527 17.7528 19.0909 18.3816 19.0909 19.7C19.0909 20.0866 19.4043 20.4 19.7909 20.4C20.1775 20.4 20.4909 20.0866 20.4909 19.7C20.4909 19.1495 20.769 18.8904 21.3575 18.48C21.3959 18.4532 21.4365 18.4254 21.4789 18.3964C22.0159 18.0287 22.8346 17.4683 22.9747 16.3691Z" fill="black"/>
<path d="M20.6531 21.9516C20.6531 22.421 20.2725 22.8016 19.8031 22.8016C19.3336 22.8016 18.9531 22.421 18.9531 21.9516C18.9531 21.4822 19.3336 21.1016 19.8031 21.1016C20.2725 21.1016 20.6531 21.4822 20.6531 21.9516Z" fill="black"/>
</g>
</g>
</g>
</g>
</g>
<defs>
<clipPath id="clip0_3903_44112">
<rect width="24" height="24" fill="white"/>
</clipPath>
</defs>
</svg>
