<svg width="24" height="24" viewBox="0 0 24 24" fill="none" xmlns="http://www.w3.org/2000/svg">
<path fill-rule="evenodd" clip-rule="evenodd" d="M2.59844 11.9984C2.59844 6.80697 6.80697 2.59844 11.9984 2.59844C17.1899 2.59844 21.3984 6.80697 21.3984 11.9984C21.3984 12.7659 21.2252 13.9117 20.7315 14.8422C20.2509 15.7481 19.5049 16.3984 18.3142 16.3984C17.803 16.3984 17.3165 16.1531 16.9386 15.6336C16.5545 15.1055 16.2826 14.286 16.2826 13.1889V12.0159C16.2826 12.0101 16.2826 12.0042 16.2826 11.9984C16.2826 11.9926 16.2826 11.9867 16.2826 11.9809V6.99844C16.2826 6.66707 16.014 6.39844 15.6826 6.39844C15.3512 6.39844 15.0826 6.66707 15.0826 6.99844V8.47117C14.2115 7.36979 12.9328 6.66161 11.4721 6.66161C8.75089 6.66161 6.66163 9.11938 6.66163 11.9984C6.66163 14.8775 8.75089 17.3353 11.4721 17.3353C13.1007 17.3353 14.5029 16.455 15.3664 15.131C15.5138 15.5873 15.7163 15.9932 15.9682 16.3394C16.5427 17.1294 17.372 17.5984 18.3142 17.5984C20.0708 17.5984 21.1669 16.582 21.7916 15.4046C22.4032 14.2518 22.5984 12.8976 22.5984 11.9984C22.5984 6.14422 17.8526 1.39844 11.9984 1.39844C6.14422 1.39844 1.39844 6.14422 1.39844 11.9984C1.39844 17.8526 6.14422 22.5984 11.9984 22.5984C14.1376 22.5984 15.6847 22.3952 16.918 22.0008C17.2336 21.8999 17.4077 21.5622 17.3067 21.2466C17.2058 20.9309 16.8681 20.7569 16.5525 20.8578C15.4811 21.2004 14.0698 21.3984 11.9984 21.3984C6.80697 21.3984 2.59844 17.1899 2.59844 11.9984ZM15.0826 11.9828V12.0141C15.0752 14.3594 13.3974 16.1353 11.4721 16.1353C9.5426 16.1353 7.86163 14.3515 7.86163 11.9984C7.86163 9.64535 9.5426 7.86161 11.4721 7.86161C13.3974 7.86161 15.0752 9.63745 15.0826 11.9828Z" fill="black"/>
</svg>
