<svg width="24" height="24" viewBox="0 0 24 24" fill="none" xmlns="http://www.w3.org/2000/svg">
<path fill-rule="evenodd" clip-rule="evenodd" d="M2.80312 12.0032C2.80312 6.9221 6.9221 2.80313 12.0032 2.80313C17.0842 2.80313 21.2032 6.9221 21.2032 12.0032C21.2032 12.7487 21.0336 13.8598 20.5596 14.7533C20.103 15.6139 19.4153 16.2032 18.3189 16.2032C17.8795 16.2032 17.4502 15.9952 17.1051 15.5207C16.7517 15.0349 16.4874 14.2597 16.4874 13.1937V12.021C16.4874 12.015 16.4874 12.0091 16.4874 12.0032C16.4874 11.9973 16.4874 11.9914 16.4874 11.9855V7.00313C16.4874 6.56128 16.1292 6.20312 15.6874 6.20312C15.2455 6.20312 14.8874 6.56128 14.8874 7.00313V7.94423C14.0055 7.03419 12.8181 6.4663 11.4769 6.4663C8.62362 6.4663 6.4663 9.0364 6.4663 12.0032C6.4663 14.9699 8.62362 17.54 11.4769 17.54C13.0488 17.54 14.4095 16.76 15.3146 15.5632C15.4498 15.8925 15.6159 16.1934 15.8112 16.4618C16.4185 17.2969 17.305 17.8032 18.3189 17.8032C20.1699 17.8032 21.3243 16.7258 21.973 15.5031C22.6043 14.3132 22.8032 12.9243 22.8032 12.0032C22.8032 6.03844 17.9678 1.20312 12.0032 1.20312C6.03846 1.20312 1.20312 6.03844 1.20312 12.0032C1.20312 17.9679 6.03846 22.8032 12.0032 22.8032C14.1536 22.8032 15.7234 22.5991 16.9837 22.1961C17.4045 22.0615 17.6366 21.6113 17.502 21.1904C17.3674 20.7696 16.9172 20.5375 16.4963 20.6721C15.4519 21.0061 14.0632 21.2032 12.0032 21.2032C6.9221 21.2032 2.80312 17.0842 2.80312 12.0032ZM14.8874 11.9875V12.0189C14.8799 14.2764 13.2703 15.94 11.4769 15.94C9.67923 15.94 8.06631 14.2686 8.06631 12.0032C8.06631 9.73768 9.67923 8.06629 11.4769 8.06629C13.2703 8.06629 14.8799 9.72999 14.8874 11.9875Z" fill="black"/>
</svg>
