<svg width="24" height="24" viewBox="0 0 24 24" fill="none" xmlns="http://www.w3.org/2000/svg">
<path fill-rule="evenodd" clip-rule="evenodd" d="M2.46617 2.14535C2.60168 1.87432 2.87869 1.70312 3.18171 1.70312H9.32621C9.76804 1.70312 10.1262 2.06129 10.1262 2.50312V7.93169C10.1262 8.14641 10.0399 8.35205 9.88673 8.50249L8.17699 10.1815C8.48671 10.9982 9.14465 12.4052 10.5704 13.831C11.6843 14.9448 13.0146 15.5334 13.8279 15.8327L15.5089 14.1518C15.6589 14.0017 15.8624 13.9174 16.0745 13.9174H21.5031C21.9449 13.9174 22.3031 14.2756 22.3031 14.7174V20.8246C22.3031 21.1276 22.1319 21.4046 21.8609 21.5401C20.3333 22.3039 18.3913 22.3034 17.4782 22.3032C17.4624 22.3032 17.4469 22.3031 17.4317 22.3031C8.74506 22.3031 1.70314 15.2612 1.70314 6.57456C1.70314 6.55937 1.70314 6.54387 1.70313 6.52806C1.7029 5.61492 1.70239 3.67292 2.46617 2.14535ZM3.70912 3.30313C3.31392 4.40036 3.30314 5.73032 3.30314 6.57456C3.30314 14.3776 9.62872 20.7031 17.4317 20.7031C18.2759 20.7031 19.6059 20.6924 20.7031 20.2972V15.5174H16.4059L14.6045 17.3188C14.3902 17.5331 14.0733 17.6079 13.7858 17.5121C13.0932 17.2812 11.088 16.6113 9.4391 14.9624C7.42557 12.9488 6.73652 10.9474 6.4942 10.2204C6.39754 9.93042 6.47455 9.61074 6.69262 9.3966L8.52621 7.59606V3.30313H3.70912Z" fill="black"/>
</svg>
