<svg width="24" height="24" viewBox="0 0 24 24" fill="none" xmlns="http://www.w3.org/2000/svg">
<path fill-rule="evenodd" clip-rule="evenodd" d="M1.8905 8.87629C3.31544 8.85622 4.73725 9.07098 6.1003 9.51508C8.42003 10.2708 9.63192 11.2485 10.707 12.116C10.8185 12.2059 10.9284 12.2946 11.038 12.3818L10.291 13.3209C10.1786 13.2315 10.0673 13.1418 9.95592 13.052C8.89876 12.2 7.83437 11.3421 5.72856 10.656C4.49097 10.2528 3.20047 10.0579 1.9074 10.0761C1.7463 10.0784 1.61621 10.2037 1.60936 10.3677C1.5539 11.6953 1.70964 13.0262 2.07304 14.3079C2.55308 16.001 3.38408 17.5681 4.50892 18.9033C5.26326 19.7582 6.41231 20.316 7.54289 20.4C7.55483 20.4009 7.56675 20.4021 7.57862 20.4038L7.5812 20.4041L7.59808 20.4061C7.61405 20.408 7.63922 20.4107 7.67264 20.4139C7.73955 20.4203 7.83911 20.4284 7.96369 20.4341C8.21391 20.4458 8.55946 20.448 8.94098 20.4115C9.7296 20.3359 10.5533 20.1055 11.0699 19.5784L11.0741 19.5741L11.0753 19.5729L11.0821 19.5661L11.111 19.5364C11.1367 19.5098 11.175 19.4697 11.2228 19.4182C11.3186 19.3151 11.4519 19.1669 11.6 18.9893C11.9013 18.6276 12.2423 18.169 12.4617 17.73L13.5351 18.2667C13.2546 18.8277 12.8455 19.3691 12.5218 19.7575C12.3574 19.9548 12.2095 20.1192 12.1021 20.2348C12.0484 20.2926 12.0046 20.3385 11.9737 20.3705L11.9375 20.4077L11.9272 20.418C11.11 21.2518 9.93343 21.5218 9.0555 21.606C8.60375 21.6493 8.1994 21.6464 7.90803 21.6329C7.76182 21.6261 7.64266 21.6165 7.55856 21.6085C7.51647 21.6045 7.48306 21.6008 7.45932 21.5981L7.43846 21.5955C6.00577 21.4849 4.56726 20.7865 3.60385 19.6912L3.59561 19.6819C2.35805 18.2145 1.44532 16.4932 0.918553 14.6353C0.520252 13.2305 0.349653 11.7722 0.410414 10.3176C0.443713 9.52054 1.08972 8.88756 1.8905 8.87629Z" fill="black"/>
<path fill-rule="evenodd" clip-rule="evenodd" d="M5.07418 13.5742C5.30849 13.3399 5.68839 13.3399 5.92271 13.5742L11.4227 19.0742C11.657 19.3085 11.657 19.6884 11.4227 19.9227C11.1884 20.157 10.8085 20.157 10.5741 19.9227L5.07418 14.4227C4.83986 14.1884 4.83986 13.8085 5.07418 13.5742Z" fill="black"/>
<path fill-rule="evenodd" clip-rule="evenodd" d="M21.6234 3.95777C21.5764 3.80224 21.4197 3.70986 21.2565 3.74761C19.5888 4.13336 17.995 4.80993 16.5463 5.751C14.7438 6.92191 13.2081 8.47493 12.0438 10.3054C10.3333 13.4095 11.5039 16.8703 13.5981 18.0808C14.7011 18.7155 15.9655 19.0112 17.2058 18.6995C18.4331 18.3911 19.7434 17.4608 20.9 15.4334C21.8312 13.4694 22.3403 11.3241 22.3924 9.14168C22.4329 7.44927 22.0673 5.42575 21.6234 3.95777ZM20.986 2.57848C21.76 2.39946 22.5407 2.8453 22.7721 3.61046C23.2421 5.16509 23.6363 7.31853 23.5921 9.17033C23.5358 11.5281 22.9842 13.8464 21.9742 15.9687C21.968 15.9818 21.9613 15.9947 21.9541 16.0073C20.6777 18.254 19.1253 19.4544 17.4983 19.8633C15.8806 20.2699 14.296 19.867 12.999 19.1206L12.9981 19.12C10.2676 17.5422 9.0009 13.3197 11.0028 9.70825C11.0085 9.6979 11.0146 9.68772 11.0209 9.67773C12.2779 7.69635 13.9393 6.01356 15.8926 4.74469C17.4582 3.72766 19.1817 2.99585 20.986 2.57848Z" fill="black"/>
<path fill-rule="evenodd" clip-rule="evenodd" d="M19.5493 7.10351C19.8235 7.28952 19.8951 7.66262 19.709 7.93686L13.1591 17.5936C12.9731 17.8679 12.6 17.9394 12.3257 17.7534C12.0515 17.5674 11.98 17.1943 12.166 16.92L18.7159 7.26326C18.902 6.98902 19.2751 6.9175 19.5493 7.10351Z" fill="black"/>
<path fill-rule="evenodd" clip-rule="evenodd" d="M20.2923 12.8673C20.326 13.197 20.086 13.4915 19.7563 13.5251L15.3797 13.9717C15.05 14.0053 14.7555 13.7653 14.7219 13.4357C14.6882 13.106 14.9282 12.8115 15.2579 12.7779L19.6345 12.3313C19.9642 12.2977 20.2587 12.5376 20.2923 12.8673Z" fill="black"/>
</svg>
