<svg width="24" height="24" viewBox="0 0 24 24" fill="none" xmlns="http://www.w3.org/2000/svg">
<path d="M20.7328 12.1774L21.3728 16.3306L21.3528 16.3106C21.5428 17.5316 20.6128 18.6524 19.3728 18.6524H13.6928C13.7328 18.4323 13.7628 18.2221 13.7628 18.0019C13.7628 15.8303 11.9928 14.0589 9.82281 14.0589C7.65281 14.0589 5.88281 15.8203 5.88281 18.0019C5.88281 18.2221 5.91281 18.4423 5.95281 18.6524H3.28281C2.92281 18.6524 2.63281 18.3622 2.63281 18.0019L2.65281 3.67089C2.72281 3.32061 3.07281 3.10044 3.43281 3.18051L8.58281 4.35141C9.79281 4.62162 10.8528 5.29214 11.6228 6.27289C11.6428 6.29291 11.6728 6.34295 11.6728 6.34295L12.8828 8.3545C13.0928 8.02425 13.4128 7.60392 13.8428 7.1836C14.8028 6.26289 16.3228 5.36219 18.5728 5.36219C18.9328 5.36219 19.2228 5.65242 19.2228 6.01269C19.2228 6.37297 18.9328 6.6632 18.5728 6.6632C16.7028 6.6632 15.5028 7.39376 14.7528 8.11432C14.3728 8.4846 14.1128 8.84488 13.9428 9.11509C13.9303 9.13597 13.9182 9.15598 13.9066 9.17512C13.8628 9.24771 13.8265 9.30776 13.8028 9.35527C13.8254 9.36092 13.8471 9.36737 13.8686 9.37371C13.9231 9.38984 13.9754 9.40531 14.0328 9.40531L18.3828 9.89569C19.6028 10.0258 20.5428 10.9765 20.7328 12.1774Z" fill="black"/>
<path d="M7 18.0119C7 16.4407 8.27 15.1797 9.83 15.1797C11.4 15.1797 12.66 16.4407 12.66 18.0119C12.66 19.5831 11.4 20.8441 9.83 20.8441C8.26 20.8441 7 19.5831 7 18.0119Z" fill="black"/>
</svg>
