<svg width="24" height="24" viewBox="0 0 24 24" fill="none" xmlns="http://www.w3.org/2000/svg">
<path fill-rule="evenodd" clip-rule="evenodd" d="M7.32552 9.33334C8.43009 9.33334 9.32552 8.4379 9.32552 7.33334C9.32552 6.22877 8.43009 5.33333 7.32552 5.33333C6.22095 5.33333 5.32552 6.22877 5.32552 7.33334C5.32552 8.4379 6.22095 9.33334 7.32552 9.33334ZM7.32552 10.6667C9.16647 10.6667 10.6589 9.17428 10.6589 7.33334C10.6589 5.49239 9.16647 4 7.32552 4C5.48457 4 3.99219 5.49239 3.99219 7.33334C3.99219 9.17428 5.48457 10.6667 7.32552 10.6667Z" fill="black"/>
<path fill-rule="evenodd" clip-rule="evenodd" d="M16.6615 18.6614C17.766 18.6614 18.6615 17.766 18.6615 16.6614C18.6615 15.5568 17.766 14.6614 16.6615 14.6614C15.5569 14.6614 14.6615 15.5568 14.6615 16.6614C14.6615 17.766 15.5569 18.6614 16.6615 18.6614ZM16.6615 19.9947C18.5024 19.9947 19.9948 18.5024 19.9948 16.6614C19.9948 14.8205 18.5024 13.3281 16.6615 13.3281C14.8205 13.3281 13.3281 14.8205 13.3281 16.6614C13.3281 18.5024 14.8205 19.9947 16.6615 19.9947Z" fill="black"/>
<path fill-rule="evenodd" clip-rule="evenodd" d="M3.86714 20.0732C3.60679 19.8129 3.60679 19.3908 3.86714 19.1304L19.1616 3.83589C19.422 3.57554 19.8441 3.57554 20.1044 3.83589C20.3648 4.09624 20.3648 4.51835 20.1044 4.7787L4.80995 20.0732C4.5496 20.3336 4.12749 20.3336 3.86714 20.0732Z" fill="black"/>
</svg>
