<svg width="24" height="24" viewBox="0 0 24 24" fill="none" xmlns="http://www.w3.org/2000/svg">
<path d="M12.9516 1.55156C12.9516 1.02689 12.5263 0.601562 12.0016 0.601562C11.4769 0.601562 11.0516 1.02689 11.0516 1.55156V2.54846C6.56336 2.99408 2.99408 6.56336 2.54846 11.0516H1.55156C1.02689 11.0516 0.601562 11.4769 0.601562 12.0016C0.601562 12.5262 1.02689 12.9516 1.55156 12.9516H2.54846C2.99408 17.4398 6.56336 21.0091 11.0516 21.4547V22.4516C11.0516 22.9762 11.4769 23.4016 12.0016 23.4016C12.5263 23.4016 12.9516 22.9762 12.9516 22.4516V21.4547C13.3424 21.4159 13.7262 21.3534 14.1016 21.2687V19.3077C13.4346 19.4991 12.7301 19.6016 12.0016 19.6016C7.80419 19.6016 4.40156 16.1989 4.40156 12.0016C4.40156 7.80419 7.80419 4.40156 12.0016 4.40156C15.3603 4.40156 18.2101 6.58029 19.2149 9.60156H21.1958C20.2097 5.8133 16.9443 2.94488 12.9516 2.54846V1.55156Z" fill="black"/>
<path d="M20.7972 12.9656C21.5412 13.6521 21.9791 14.6695 21.8247 15.881C21.6617 17.1594 20.7063 17.812 20.1123 18.2178C20.0645 18.2505 20.019 18.2816 19.9764 18.3112C19.324 18.7663 19.0659 19.0219 19.0659 19.5666C19.0659 20.0636 18.663 20.4666 18.1659 20.4666C17.6689 20.4666 17.2659 20.0636 17.2659 19.5666C17.2659 18.0347 18.2745 17.3038 18.9467 16.8349C19.7006 16.3091 19.9824 16.0984 20.0391 15.6534C20.1175 15.0386 19.9067 14.5931 19.5766 14.2886C19.2251 13.9643 18.7123 13.7805 18.2031 13.8016C17.1241 13.8462 16.3 14.6663 16.3 15.568C16.3 16.0651 15.8971 16.468 15.4 16.468C14.9029 16.468 14.5 16.0651 14.5 15.568C14.5 13.5254 16.2711 12.08 18.1287 12.0031C19.0879 11.9635 20.0745 12.2989 20.7972 12.9656Z" fill="black"/>
<path fill-rule="evenodd" clip-rule="evenodd" d="M18.1786 23.0448C18.7217 23.0448 19.1619 22.6045 19.1619 22.0614C19.1619 21.5184 18.7217 21.0781 18.1786 21.0781C17.6355 21.0781 17.1953 21.5184 17.1953 22.0614C17.1953 22.6045 17.6355 23.0448 18.1786 23.0448Z" fill="black"/>
</svg>
