<svg width="24" height="24" viewBox="0 0 24 24" fill="none" xmlns="http://www.w3.org/2000/svg">
<path d="M13.8233 15.7027C13.6329 15.6074 13.4152 15.6755 13.2792 15.8659C13.2548 15.9 13.2213 15.9534 13.1801 16.0188C12.9916 16.3186 12.6435 16.8722 12.2862 16.9951C12.0277 17.0767 11.7693 16.8862 11.9733 15.7979C12.1773 14.7095 12.9663 10.4922 12.9935 10.3289C13.0207 10.1657 12.9527 10.0841 12.9119 10.0432C12.8575 9.98879 12.7623 9.93438 12.599 9.97519C12.5718 9.9888 11.9869 10.1657 11.402 10.3425L10.2865 10.6963C10.0417 10.7643 9.91929 10.9683 9.9737 11.186C10.0009 11.2948 10.0689 11.4037 10.1641 11.4581C10.2593 11.5261 10.3681 11.5397 10.477 11.5125C10.5314 11.4989 10.6402 11.4717 10.7626 11.4309C10.8034 11.4173 10.8442 11.4071 10.8851 11.3969C10.9259 11.3867 10.9667 11.3765 11.0075 11.3629C10.8442 12.2199 10.1913 15.4714 10.1913 15.4714C10.0553 16.2468 10.0145 16.7774 10.0961 17.1175C10.1913 17.512 10.4225 17.7977 10.7898 17.9746C10.9939 18.0562 11.2115 18.1106 11.4428 18.1242C11.6196 18.1242 11.7965 18.1106 12.0005 18.0698C12.7623 17.9202 13.2792 17.3624 13.5241 17.0359C13.7553 16.7366 13.9049 16.4373 14.0002 16.2332C14.0954 16.0292 14.0274 15.8115 13.8233 15.7027Z" fill="black"/>
<path d="M12.0489 8.94164C12.7534 8.94164 13.3244 8.37058 13.3244 7.66613C13.3244 6.96169 12.7534 6.39062 12.0489 6.39062C11.3445 6.39062 10.7734 6.96169 10.7734 7.66613C10.7734 8.37058 11.3445 8.94164 12.0489 8.94164Z" fill="black"/>
<path fill-rule="evenodd" clip-rule="evenodd" d="M2 12C2 6.47715 6.47715 2 12 2C17.5228 2 22 6.47715 22 12C22 17.5228 17.5228 22 12 22C6.47715 22 2 17.5228 2 12ZM12 3.63265C7.37884 3.63265 3.63265 7.37884 3.63265 12C3.63265 16.6212 7.37884 20.3673 12 20.3673C16.6212 20.3673 20.3673 16.6212 20.3673 12C20.3673 7.37884 16.6212 3.63265 12 3.63265Z" fill="black"/>
</svg>
