<svg width="24" height="24" viewBox="0 0 24 24" fill="none" xmlns="http://www.w3.org/2000/svg">
<path d="M3.33 4.07031C2.8716 4.07031 2.5 4.44191 2.5 4.90031C2.5 5.3587 2.8716 5.73031 3.33 5.73031H20.13C20.5884 5.73031 20.96 5.3587 20.96 4.90031C20.96 4.44191 20.5884 4.07031 20.13 4.07031H3.33Z" fill="black"/>
<path d="M3.33 11.0703C2.8716 11.0703 2.5 11.4419 2.5 11.9003C2.5 12.3587 2.8716 12.7303 3.33 12.7303H9.13C9.58839 12.7303 9.96 12.3587 9.96 11.9003C9.96 11.4419 9.58839 11.0703 9.13 11.0703H3.33Z" fill="black"/>
<path d="M3.33 18.0703C2.8716 18.0703 2.5 18.4419 2.5 18.9003C2.5 19.3587 2.8716 19.7303 3.33 19.7303H9.13C9.58839 19.7303 9.96 19.3587 9.96 18.9003C9.96 18.4419 9.58839 18.0703 9.13 18.0703H3.33Z" fill="black"/>
<path d="M12.765 11.8974C13.8641 10.7192 15.6731 10.7011 16.7939 11.8434C17.9148 10.7011 19.7238 10.7192 20.8229 11.8974L20.8243 11.8989C21.9566 13.1189 21.7356 14.8935 20.8803 16.0437C20.0877 17.1114 19.1757 17.9656 18.469 18.5498C18.1141 18.8432 17.8069 19.0718 17.5865 19.2283C17.4761 19.3066 17.3873 19.3671 17.3247 19.4088C17.2934 19.4297 17.2686 19.4459 17.251 19.4573L17.23 19.4708L17.2236 19.4748L17.2201 19.477C16.9636 19.6385 16.6376 19.641 16.3785 19.4837L16.3774 19.483L16.3751 19.4816L16.3685 19.4775L16.3466 19.4639C16.3282 19.4524 16.3024 19.4361 16.2699 19.4151C16.2048 19.3732 16.1126 19.3123 15.9986 19.2336C15.7709 19.0763 15.4547 18.8465 15.093 18.5516C14.374 17.9653 13.4541 17.1048 12.6958 16.0274C11.8992 14.8958 11.6194 13.1255 12.765 11.8974Z" fill="black"/>
</svg>
