<svg width="24" height="24" viewBox="0 0 24 24" fill="none" xmlns="http://www.w3.org/2000/svg">
<path fill-rule="evenodd" clip-rule="evenodd" d="M7.00312 3.20312C6.56129 3.20312 6.20312 3.5613 6.20312 4.00313V20.0032C6.20312 20.445 6.56129 20.8032 7.00312 20.8032H13.0883C15.6922 20.8032 17.8032 18.6923 17.8032 16.0883C17.8032 14.1744 16.7026 12.5176 15.0998 11.7163C16.1405 10.8514 16.8032 9.54717 16.8032 8.08823C16.8032 5.39026 14.616 3.20312 11.918 3.20312H7.00312ZM12.0883 11.2032C13.8086 11.2032 15.2032 9.80855 15.2032 8.08823C15.2032 6.27392 13.7324 4.80314 11.918 4.80314H7.80312V11.2032H12.0883ZM7.80312 12.8032V19.2032H13.0883C14.8086 19.2032 16.2032 17.8086 16.2032 16.0883C16.2032 14.274 14.7324 12.8032 12.918 12.8032H7.80312Z" fill="black"/>
</svg>
