<svg width="24" height="24" viewBox="0 0 24 24" fill="none" xmlns="http://www.w3.org/2000/svg">
<path fill-rule="evenodd" clip-rule="evenodd" d="M12.0031 2.20312C8.25135 2.20312 5.20313 5.2513 5.20313 9.00313V13.7609L3.33752 16.5594C3.24991 16.6908 3.20312 16.8452 3.20312 17.0032V18.0032C3.20312 18.445 3.56129 18.8032 4.00312 18.8032H9.20932L9.2038 18.9362C9.20334 18.9472 9.20312 18.9582 9.20312 18.9693C9.20312 20.517 10.4486 21.8032 12.0031 21.8032C13.5575 21.8032 14.8031 20.517 14.8031 18.9693V18.8032H20.0031C20.4449 18.8032 20.8031 18.445 20.8031 18.0032V17.0032C20.8031 16.8452 20.7563 16.6908 20.6687 16.5594L18.8031 13.7609V9.00313C18.8031 5.2513 15.7549 2.20312 12.0031 2.20312ZM13.2031 18.8032H10.8107L10.8032 18.9838C10.8109 19.6664 11.3621 20.2032 12.0031 20.2032C12.6486 20.2032 13.2031 19.6588 13.2031 18.9693V18.8032ZM19.1749 17.2032L17.3375 14.4469C17.2498 14.3155 17.2031 14.1611 17.2031 14.0032V9.00313C17.2031 6.13496 14.8713 3.80313 12.0031 3.80313C9.13496 3.80313 6.80317 6.13496 6.80317 9.00313V14.0032C6.80317 14.1611 6.75637 14.3155 6.66877 14.4469L4.83129 17.2032H19.1749Z" fill="black"/>
</svg>
