<svg width="24" height="24" viewBox="0 0 24 24" fill="none" xmlns="http://www.w3.org/2000/svg">
<path fill-rule="evenodd" clip-rule="evenodd" d="M5.00312 2C3.45673 2 2.20312 3.2536 2.20312 4.8V18.8C2.20312 20.3464 3.45673 21.6 5.00312 21.6H19.0032C20.5495 21.6 21.8031 20.3464 21.8031 18.8V4.8C21.8031 3.2536 20.5495 2 19.0032 2H5.00312ZM7.20312 7.8C7.20312 7.35817 7.5613 7 8.00313 7H16.0032C16.445 7 16.8032 7.35817 16.8032 7.8C16.8032 8.24183 16.445 8.6 16.0032 8.6H8.00313C7.5613 8.6 7.20312 8.24183 7.20312 7.8ZM7.20312 11.8C7.20312 11.3582 7.5613 11 8.00313 11H16.0032C16.445 11 16.8032 11.3582 16.8032 11.8C16.8032 12.2418 16.445 12.6 16.0032 12.6H8.00313C7.5613 12.6 7.20312 12.2418 7.20312 11.8ZM8.00313 15C7.5613 15 7.20312 15.3582 7.20312 15.8C7.20312 16.2418 7.5613 16.6 8.00313 16.6H16.0032C16.445 16.6 16.8032 16.2418 16.8032 15.8C16.8032 15.3582 16.445 15 16.0032 15H8.00313Z" fill="black"/>
</svg>
