<svg width="24" height="24" viewBox="0 0 24 24" fill="none" xmlns="http://www.w3.org/2000/svg">
<path fill-rule="evenodd" clip-rule="evenodd" d="M3.18171 1.70312C2.87869 1.70312 2.60168 1.87432 2.46617 2.14535C1.70239 3.67292 1.7029 5.61492 1.70313 6.52806L1.70314 6.57456C1.70314 15.2612 8.74506 22.3031 17.4317 22.3031L17.4782 22.3032C18.3913 22.3034 20.3333 22.3039 21.8609 21.5401C22.1319 21.4046 22.3031 21.1276 22.3031 20.8246V14.7174C22.3031 14.2756 21.9449 13.9174 21.5031 13.9174H16.0745C15.8624 13.9174 15.6589 14.0017 15.5089 14.1518L13.8279 15.8327C13.0146 15.5334 11.6843 14.9448 10.5704 13.831C9.14465 12.4052 8.48671 10.9982 8.17699 10.1815L9.88673 8.50249C10.0399 8.35205 10.1262 8.14641 10.1262 7.93169V2.50312C10.1262 2.06129 9.76804 1.70312 9.32621 1.70312H3.18171ZM3.30314 6.57456C3.30314 5.73032 3.31392 4.40036 3.70912 3.30313H8.52621V7.59606L6.69262 9.3966C6.47455 9.61074 6.39754 9.93042 6.4942 10.2204C6.73652 10.9474 7.42557 12.9488 9.4391 14.9624C11.088 16.6113 13.0932 17.2812 13.7858 17.5121C14.0733 17.6079 14.3902 17.5331 14.6045 17.3188L16.4059 15.5174H20.7031V20.2972C19.6059 20.6924 18.2759 20.7031 17.4317 20.7031C9.62872 20.7031 3.30314 14.3776 3.30314 6.57456ZM15.5688 3.43744C15.2564 3.12502 14.7498 3.12502 14.4374 3.43744C14.125 3.74987 14.125 4.25641 14.4374 4.56884L16.3717 6.50313L14.4374 8.43744C14.125 8.74986 14.125 9.2564 14.4374 9.56882C14.7498 9.88124 15.2564 9.88124 15.5688 9.56882L17.5031 7.63451L19.4374 9.56882C19.7498 9.88124 20.2564 9.88124 20.5688 9.56882C20.8812 9.2564 20.8812 8.74986 20.5688 8.43744L18.6345 6.50313L20.5688 4.56884C20.8812 4.25641 20.8812 3.74987 20.5688 3.43744C20.2564 3.12502 19.7498 3.12502 19.4374 3.43744L17.5031 5.37176L15.5688 3.43744Z" fill="black"/>
</svg>
