<svg width="24" height="24" viewBox="0 0 24 24" fill="none" xmlns="http://www.w3.org/2000/svg">
<path d="M17.3097 2.2929L21.7099 6.69311C22.1004 7.08363 22.1004 7.71679 21.7099 8.10732L17.3097 12.5076C16.9192 12.8981 16.286 12.8981 15.8955 12.5076C15.505 12.117 15.505 11.4839 15.8955 11.0934L18.5739 8.41486H9.6875C6.64994 8.41486 4.1875 10.8773 4.1875 13.9149C4.1875 16.9525 6.64994 19.4149 9.6875 19.4149H15.5027C16.055 19.4149 16.5027 19.8626 16.5027 20.4149C16.5027 20.9672 16.055 21.4149 15.5027 21.4149H9.6875C5.54537 21.4149 2.1875 18.057 2.1875 13.9149C2.1875 9.77272 5.54537 6.41486 9.6875 6.41486H18.6032L15.8955 3.70711C15.505 3.31659 15.505 2.68342 15.8955 2.2929C16.286 1.90237 16.9192 1.90237 17.3097 2.2929Z" fill="black"/>
</svg>
