<svg width="24" height="24" viewBox="0 0 24 24" fill="none" xmlns="http://www.w3.org/2000/svg">
<path d="M21.37 11.9078C21.08 11.6978 20.77 11.5078 20.44 11.3178L20.12 9.59781H21.5C21.83 9.59781 22.1 9.32781 22.1 8.99781C22.1 8.66781 21.83 8.39781 21.5 8.39781H19.9L19.35 5.38781C19.22 4.68781 18.71 4.10781 18 3.88781C16.23 3.32781 14.18 3.00781 12 3.00781C9.82 3.00781 7.77 3.32781 6 3.88781C5.3 4.10781 4.78 4.68781 4.65 5.38781L4.1 8.39781H2.5C2.17 8.39781 1.9 8.66781 1.9 8.99781C1.9 9.32781 2.17 9.59781 2.5 9.59781H3.88L3.56 11.3178C3.23 11.5078 2.91 11.6978 2.62 11.9078C2.07 12.2978 1.75 12.9378 1.75 13.6178V21.0978C1.75 21.3878 1.98 21.6178 2.27 21.6178H8C8.29 21.6178 8.52 21.3878 8.52 21.0978V19.6278H15.49V21.0978C15.49 21.3878 15.72 21.6178 16.01 21.6178H21.74C22.03 21.6178 22.26 21.3878 22.26 21.0978V13.6178C22.26 12.9378 21.94 12.2978 21.39 11.9078H21.37ZM5.83 5.60781C5.88 5.34781 6.08 5.12781 6.36 5.03781C8.07 4.49781 10.02 4.21781 12 4.21781C13.98 4.21781 15.93 4.49781 17.64 5.03781C17.92 5.12781 18.12 5.33781 18.17 5.60781L19.1 10.6778C17.1 9.83781 14.66 9.32781 11.99 9.32781C9.32 9.32781 6.89 9.82781 4.89 10.6778L5.82 5.60781H5.83ZM21.04 15.5578V20.4278H16.67V18.4278H7.31V20.4278H2.95V13.6278C2.95 13.3278 3.09 13.0578 3.32 12.8878C5.43 11.3878 8.6 10.5278 12 10.5278C15.4 10.5278 18.57 11.3878 20.68 12.8878C20.91 13.0478 21.05 13.3278 21.05 13.6278V15.5578H21.04Z" fill="black"/>
<path d="M7.6 13.5781C6.85 13.5781 6.25 14.1781 6.25 14.9281C6.25 15.6781 6.85 16.2781 7.6 16.2781C8.35 16.2781 8.95 15.6781 8.95 14.9281C8.95 14.1781 8.35 13.5781 7.6 13.5781Z" fill="black"/>
<path d="M16.3969 13.5781C15.6469 13.5781 15.0469 14.1781 15.0469 14.9281C15.0469 15.6781 15.6469 16.2781 16.3969 16.2781C17.1469 16.2781 17.7469 15.6781 17.7469 14.9281C17.7469 14.1781 17.1469 13.5781 16.3969 13.5781Z" fill="black"/>
</svg>
