<svg width="24" height="24" viewBox="0 0 24 24" fill="none" xmlns="http://www.w3.org/2000/svg">
<path fill-rule="evenodd" clip-rule="evenodd" d="M1.8 2C1.35817 2 1 2.35817 1 2.8C1 3.24183 1.35817 3.6 1.8 3.6H3.6448L4.10962 5.9261C4.11136 5.93701 4.11333 5.9479 4.11553 5.95878L4.16207 6.18858L4.51539 7.95676L4.51994 7.95585L5.97822 15.1572C6.14819 15.9966 6.88601 16.6 7.74241 16.6H18.8648C19.7147 16.6 20.4488 16.0055 20.6255 15.1741L22.3255 7.17415C22.5634 6.05445 21.7095 5 20.5648 5H5.55619L5.08525 2.64324C5.01051 2.26924 4.68215 2 4.30076 2H1.8Z" fill="black"/>
<path fill-rule="evenodd" clip-rule="evenodd" d="M8.60314 17.6016C7.27765 17.6016 6.20312 18.6761 6.20312 20.0016C6.20312 21.3271 7.27765 22.4016 8.60314 22.4016C9.92862 22.4016 11.0031 21.3271 11.0031 20.0016C11.0031 18.6761 9.92862 17.6016 8.60314 17.6016Z" fill="black"/>
<path fill-rule="evenodd" clip-rule="evenodd" d="M16 20.0016C16 18.6761 17.0745 17.6016 18.4 17.6016C19.7255 17.6016 20.8 18.6761 20.8 20.0016C20.8 21.3271 19.7255 22.4016 18.4 22.4016C17.0745 22.4016 16 21.3271 16 20.0016Z" fill="black"/>
</svg>
