<svg width="24" height="24" viewBox="0 0 24 24" fill="none" xmlns="http://www.w3.org/2000/svg">
<path fill-rule="evenodd" clip-rule="evenodd" d="M1.20312 4.00313C1.20312 3.5613 1.5613 3.20312 2.00313 3.20312H22.0032C22.445 3.20312 22.8031 3.5613 22.8031 4.00313V9.06314C22.8031 9.43203 22.5509 9.75311 22.1925 9.84039C21.4892 10.0118 20.8031 10.8322 20.8031 12.0032C20.8031 13.1741 21.4892 13.9945 22.1925 14.1659C22.5509 14.2532 22.8031 14.5742 22.8031 14.9431V20.0032C22.8031 20.445 22.445 20.8031 22.0032 20.8031H2.00313C1.5613 20.8031 1.20312 20.445 1.20312 20.0032V14.9431C1.20312 14.5742 1.45537 14.2532 1.81379 14.1659C2.51711 13.9945 3.20312 13.1741 3.20312 12.0032C3.20312 10.8322 2.51711 10.0118 1.81379 9.84039C1.45537 9.75311 1.20312 9.43203 1.20312 9.06314V4.00313ZM2.80312 4.80314V8.50659C4.03211 9.10684 4.80318 10.5061 4.80318 12.0032C4.80318 13.5002 4.03211 14.8994 2.80312 15.4997V19.2032H21.2032V15.4997C19.9742 14.8994 19.2032 13.5002 19.2032 12.0032C19.2032 10.5061 19.9742 9.10684 21.2032 8.50659V4.80314H2.80312Z" fill="black"/>
<path fill-rule="evenodd" clip-rule="evenodd" d="M17.2329 8.76557C17.5453 9.07799 17.5453 9.58451 17.2329 9.89693L11.8996 15.2302C11.5872 15.5426 11.0806 15.5426 10.7682 15.2302L8.1015 12.5635C7.78908 12.2511 7.78908 11.7446 8.1015 11.4322C8.41392 11.1197 8.92045 11.1197 9.23287 11.4322L11.3339 13.5331L16.1015 8.76557C16.414 8.45314 16.9205 8.45314 17.2329 8.76557Z" fill="black"/>
<path d="M8 4H9.33333V7H8V4Z" fill="black"/>
<path d="M8 17H9.33333V20H8V17Z" fill="black"/>
</svg>
