<svg width="24" height="24" viewBox="0 0 24 24" fill="none" xmlns="http://www.w3.org/2000/svg">
<path fill-rule="evenodd" clip-rule="evenodd" d="M21.2815 2.96943C21.4766 3.07384 21.5984 3.27716 21.5984 3.49843V19.4984C21.5984 19.7197 21.4766 19.923 21.2815 20.0274C21.0864 20.1318 20.8497 20.1204 20.6656 19.9976L14.8167 16.0984H6.99844C4.45793 16.0984 2.39844 14.0389 2.39844 11.4984C2.39844 8.95792 4.45793 6.89843 6.99844 6.89843H14.8167L20.6656 2.9992C20.8497 2.87646 21.0864 2.86502 21.2815 2.96943ZM20.3984 4.61954L15.3312 7.99766C15.2327 8.06337 15.1169 8.09843 14.9984 8.09843H6.99844C5.12067 8.09843 3.59844 9.62067 3.59844 11.4984C3.59844 13.3762 5.12067 14.8984 6.99844 14.8984H14.9984C15.1169 14.8984 15.2327 14.9335 15.3312 14.9992L20.3984 18.3773V4.61954Z" fill="black"/>
<path fill-rule="evenodd" clip-rule="evenodd" d="M6.39844 15.4984C6.39844 15.167 6.66707 14.8984 6.99844 14.8984H12.9984C13.3298 14.8984 13.5984 15.167 13.5984 15.4984V17.4984C13.5984 19.4866 11.9866 21.0984 9.99844 21.0984C8.01022 21.0984 6.39844 19.4866 6.39844 17.4984V15.4984ZM7.59844 16.0984V17.4984C7.59844 18.8239 8.67296 19.8984 9.99844 19.8984C11.3239 19.8984 12.3984 18.8239 12.3984 17.4984V16.0984H7.59844Z" fill="black"/>
</svg>
