<svg width="24" height="24" viewBox="0 0 24 24" fill="none" xmlns="http://www.w3.org/2000/svg">
<path d="M12.8879 11.281C14.107 11.5346 15.228 12.3119 15.8581 13.4083C16.1608 13.932 15.989 14.5457 15.4817 14.8648C14.5898 15.4212 13.2643 15.6749 12.0042 15.6749C10.7441 15.6749 9.41035 15.4294 8.52665 14.8648C8.01934 14.5457 7.86387 13.9238 8.15026 13.4083C8.77212 12.3119 9.90129 11.551 11.1205 11.281C10.3186 10.9373 9.76219 10.1435 9.76219 9.21893C9.76219 7.97519 10.7686 6.96875 12.0042 6.96875C13.2397 6.96875 14.2461 7.97519 14.2461 9.21893C14.2461 10.1435 13.6897 10.9373 12.8879 11.281Z" fill="black"/>
<path fill-rule="evenodd" clip-rule="evenodd" d="M12.8071 1.18616C12.3009 0.937946 11.7054 0.937947 11.1992 1.18616L3.19921 5.10931C2.58881 5.40865 2.20312 6.02128 2.20312 6.69151V8.90726C2.20312 12.5248 2.98729 15.3802 4.55285 17.6642C6.11638 19.9451 8.40706 21.5797 11.2813 22.8482C11.7392 23.0503 12.2671 23.0515 12.7274 22.8462C15.6248 21.5541 17.9067 19.765 19.4599 17.4244C21.0138 15.0831 21.8032 12.2431 21.8032 8.90726V6.69151C21.8032 6.02128 21.4175 5.40865 20.8071 5.10931L12.8071 1.18616ZM11.9138 2.59257C11.9701 2.56499 12.0362 2.56499 12.0925 2.59257L20.0925 6.51571C20.1603 6.54897 20.2032 6.61704 20.2032 6.69151V8.90726C20.2032 11.9934 19.4758 14.5225 18.1196 16.5659C16.7629 18.6103 14.7416 20.2217 12.0661 21.4149C12.0272 21.4322 11.9791 21.433 11.9369 21.4144C9.23845 20.2234 7.22622 18.7502 5.87998 16.7862C4.53572 14.8251 3.80312 12.2982 3.80312 8.90726V6.69151C3.80312 6.61704 3.84604 6.54897 3.91386 6.51571L11.9138 2.59257Z" fill="black"/>
</svg>
