<svg width="24" height="24" viewBox="0 0 24 24" fill="none" xmlns="http://www.w3.org/2000/svg">
<path d="M9.06882 7.92965C8.84002 7.70085 8.49591 7.63241 8.19697 7.75624C7.89804 7.88006 7.70312 8.17177 7.70312 8.49534V15.9953C7.70312 16.4371 8.0613 16.7953 8.50313 16.7953C8.94496 16.7953 9.30312 16.4371 9.30312 15.9953V10.4267L14.9375 16.561C15.1663 16.7898 15.5104 16.8582 15.8093 16.7344C16.1082 16.6106 16.3032 16.3189 16.3032 15.9953V8.49534C16.3032 8.05351 15.945 7.69534 15.5032 7.69534C15.0613 7.69534 14.7032 8.05351 14.7032 8.49534V14.0639L9.06882 7.92965Z" fill="black"/>
<path fill-rule="evenodd" clip-rule="evenodd" d="M23 12C23 18.0751 18.0751 23 12 23C5.92487 23 1 18.0751 1 12C1 5.92487 5.92487 1 12 1C18.0751 1 23 5.92487 23 12ZM21.8 12C21.8 17.4124 17.4124 21.8 12 21.8C6.58761 21.8 2.2 17.4124 2.2 12C2.2 6.58761 6.58761 2.2 12 2.2C17.4124 2.2 21.8 6.58761 21.8 12Z" fill="black"/>
</svg>
