<svg width="24" height="24" viewBox="0 0 24 24" fill="none" xmlns="http://www.w3.org/2000/svg">
<path fill-rule="evenodd" clip-rule="evenodd" d="M11.9984 3.09844C16.9726 3.09844 20.8984 6.72749 20.8984 11.079C20.8984 13.5739 19.6192 15.8182 17.584 17.2917C17.4282 17.4046 17.3359 17.5853 17.3359 17.7777V20.4257C17.135 20.303 16.9142 20.1687 16.6877 20.0318C15.8896 19.5494 14.9595 18.997 14.622 18.8433C14.5016 18.7885 14.3664 18.775 14.2375 18.8049C13.5229 18.9711 12.7726 19.0597 11.9984 19.0597C7.0242 19.0597 3.09844 15.4306 3.09844 11.079C3.09844 6.72749 7.0242 3.09844 11.9984 3.09844ZM17.62 22.0085C17.805 22.1231 18.0377 22.1285 18.2278 22.0226C18.418 21.9167 18.5359 21.7161 18.5359 21.4984V18.0781C20.7034 16.4039 22.0984 13.8976 22.0984 11.079C22.0984 5.95276 17.5176 1.89844 11.9984 1.89844C6.47928 1.89844 1.89844 5.95276 1.89844 11.079C1.89844 16.2054 6.47928 20.2597 11.9984 20.2597C12.7875 20.2597 13.5563 20.1774 14.2946 20.0214C14.6577 20.2156 15.3681 20.6363 16.0669 21.0587C16.4736 21.3045 16.8619 21.542 17.1488 21.7182C17.2922 21.8062 17.4101 21.8789 17.4921 21.9295L17.62 22.0085Z" fill="black"/>
<path fill-rule="evenodd" clip-rule="evenodd" d="M7.52344 9.49844C7.52344 9.16707 7.79207 8.89844 8.12344 8.89844H15.9984C16.3298 8.89844 16.5984 9.16707 16.5984 9.49844C16.5984 9.82981 16.3298 10.0984 15.9984 10.0984H8.12344C7.79207 10.0984 7.52344 9.82981 7.52344 9.49844Z" fill="black"/>
<path fill-rule="evenodd" clip-rule="evenodd" d="M7.52344 12.9984C7.52344 12.667 7.79207 12.3984 8.12344 12.3984H15.9984C16.3298 12.3984 16.5984 12.667 16.5984 12.9984C16.5984 13.3298 16.3298 13.5984 15.9984 13.5984H8.12344C7.79207 13.5984 7.52344 13.3298 7.52344 12.9984Z" fill="black"/>
</svg>
