<svg width="24" height="24" viewBox="0 0 24 24" fill="none" xmlns="http://www.w3.org/2000/svg">
<path d="M3.05015 10.3639C3.05015 9.51999 3.75912 8.51726 5.44353 7.67329C7.07522 6.85574 9.39041 6.32359 11.9956 6.32359C14.6013 6.32359 16.9165 6.85395 18.548 7.67051C20.2315 8.51307 20.941 9.5157 20.941 10.3639C20.941 11.0086 20.5447 11.7346 19.5787 12.4369C18.6219 13.1325 17.2124 13.717 15.4937 14.0669C15.0214 14.163 14.7165 14.6238 14.8126 15.0961C14.9087 15.5684 15.3696 15.8734 15.8419 15.7772C17.7263 15.3937 19.3897 14.7322 20.6051 13.8487C21.8114 12.9717 22.6865 11.7853 22.6865 10.3639C22.6865 8.49927 21.1989 7.04538 19.3292 6.10963C17.4076 5.14787 14.8137 4.57812 11.9956 4.57812C9.17698 4.57812 6.58308 5.15003 4.66163 6.11276C2.7929 7.04908 1.30469 8.50285 1.30469 10.3639C1.30469 12.1008 2.60592 13.482 4.27767 14.4089C5.75227 15.2265 7.67936 15.7949 9.82027 16.0261L8.10928 17.7371C7.76846 18.0779 7.76846 18.6305 8.10928 18.9713C8.4501 19.3121 9.00268 19.3121 9.3435 18.9713L12.429 15.8858C12.7699 15.5449 12.7699 14.9924 12.429 14.6515L9.3435 11.566C9.00268 11.2252 8.4501 11.2252 8.10928 11.566C7.76846 11.9068 7.76846 12.4594 8.10928 12.8002L9.54343 14.2344C7.78281 13.9963 6.258 13.5111 5.12407 12.8824C3.6584 12.0697 3.05015 11.1486 3.05015 10.3639Z" fill="black"/>
</svg>
