<svg width="24" height="24" viewBox="0 0 24 24" fill="none" xmlns="http://www.w3.org/2000/svg">
<path fill-rule="evenodd" clip-rule="evenodd" d="M18.9909 0.65C18.9909 0.29 19.2809 0 19.6409 0C20.0009 0 20.2909 0.29 20.2909 0.65V8.29C20.2909 11.67 17.5509 14.4 14.1809 14.4H9.82094C6.44094 14.4 3.71094 11.66 3.71094 8.29V0.65C3.71094 0.29 4.00094 0 4.36094 0C4.72094 0 5.02094 0.29 5.02094 0.65V6.07C5.75094 5.52 6.22094 4.79 6.52094 4.11C6.72094 3.65 6.84094 3.22 6.91094 2.91C6.95094 2.76 6.97094 2.63 6.98094 2.55C6.99094 2.51 6.99094 2.46 6.99094 2.46V0.65C6.99094 0.29 7.28094 0 7.64094 0H16.3709C16.7309 0 17.0209 0.29 17.0209 0.65V2.47C17.0309 2.49 17.0309 2.52 17.0309 2.56C17.0367 2.60649 17.0493 2.66649 17.0647 2.74C17.0758 2.79298 17.0883 2.85298 17.1009 2.92C17.1709 3.23 17.2909 3.66 17.4909 4.12C17.7909 4.8 18.2609 5.53 18.9909 6.08V0.65ZM17.4109 8.35C17.7009 8.29 17.9909 8.19 18.2809 8.09H18.2909L19.1409 7.78L17.8609 7.15L17.0209 7.35C16.7109 7.42 16.3909 7.48 16.0709 7.54L15.9509 7.56C14.6909 7.77 13.3909 7.9 12.0109 7.9C10.6309 7.9 9.28094 7.78 8.00094 7.56L7.85094 7.53C7.54094 7.48 7.22094 7.42 6.91094 7.35L6.07094 7.14L4.88094 7.83L5.82094 8.15L6.33094 8.3C8.11094 8.73 10.0909 8.96 12.0109 8.96C13.9309 8.96 15.7209 8.74 17.4109 8.35Z" fill="black"/>
<path d="M12.3216 15.2856L19.9616 19.6156C20.1616 19.7256 20.2916 19.9256 20.2916 20.1556C20.3016 20.3856 20.1916 20.5956 20.0016 20.7256C17.8316 22.1756 15.0416 23.0456 12.0016 23.0456C8.96157 23.0456 6.17157 22.1756 4.00157 20.7256C3.81157 20.5956 3.70157 20.3756 3.71157 20.1556C3.72157 19.9356 3.84157 19.7256 4.04157 19.6156L11.6816 15.2856C11.8816 15.1756 12.1216 15.1756 12.3216 15.2856Z" fill="black"/>
</svg>
