<svg width="24" height="24" viewBox="0 0 24 24" fill="none" xmlns="http://www.w3.org/2000/svg">
<path fill-rule="evenodd" clip-rule="evenodd" d="M10.5902 3.09718C10.6447 2.77031 10.4239 2.46118 10.097 2.4067C9.77019 2.35222 9.46105 2.57303 9.40658 2.8999L8.6568 7.39853H3.99844C3.66707 7.39853 3.39844 7.66716 3.39844 7.99853C3.39844 8.3299 3.66707 8.59853 3.99844 8.59853H8.4568L7.49014 14.3985H2.99844C2.66707 14.3985 2.39844 14.6671 2.39844 14.9985C2.39844 15.3299 2.66707 15.5985 2.99844 15.5985H7.29014L6.40658 20.8999C6.3521 21.2267 6.57291 21.5359 6.89977 21.5903C7.22664 21.6448 7.53577 21.424 7.59025 21.0971L8.50669 15.5985H14.2901L13.4065 20.8999C13.3521 21.2267 13.5729 21.5359 13.8997 21.5903C14.2266 21.6448 14.5357 21.424 14.5902 21.0971L15.5067 15.5985H19.9984C20.3298 15.5985 20.5984 15.3299 20.5984 14.9985C20.5984 14.6671 20.3298 14.3985 19.9984 14.3985H15.7067L16.6733 8.59853H20.9984C21.3298 8.59853 21.5984 8.3299 21.5984 7.99853C21.5984 7.66716 21.3298 7.39853 20.9984 7.39853H16.8733L17.5902 3.09718C17.6447 2.77031 17.4239 2.46118 17.097 2.4067C16.7702 2.35222 16.461 2.57303 16.4065 2.8999L15.6568 7.39853H9.87336L10.5902 3.09718ZM14.4901 14.3985L15.4568 8.59853H9.67336L8.70669 14.3985H14.4901Z" fill="black"/>
</svg>
