<svg width="24" height="24" viewBox="0 0 24 24" fill="none" xmlns="http://www.w3.org/2000/svg">
<path fill-rule="evenodd" clip-rule="evenodd" d="M6.00542 3.99393C6.20951 3.69694 6.61571 3.62164 6.9127 3.82573C8.3587 4.81943 10.1093 5.40095 11.9977 5.40095C13.8861 5.40095 15.6367 4.81943 17.0827 3.82573C17.3797 3.62164 17.7859 3.69694 17.99 3.99393C18.1941 4.29091 18.1187 4.69712 17.8218 4.90121C16.1652 6.03959 14.1583 6.7059 11.9977 6.7059C9.8371 6.7059 7.83016 6.03959 6.17362 4.90121C5.87664 4.69712 5.80133 4.29091 6.00542 3.99393Z" fill="black"/>
<path fill-rule="evenodd" clip-rule="evenodd" d="M8.20117 1.79183C8.41763 1.50374 8.82665 1.44566 9.11475 1.66211C9.91734 2.26512 10.9141 2.62219 11.9961 2.62219C13.0781 2.62219 14.0748 2.26512 14.8774 1.66211C15.1655 1.44566 15.5746 1.50374 15.791 1.79183C16.0075 2.07993 15.9494 2.48895 15.6613 2.70541C14.6405 3.47239 13.3704 3.92714 11.9961 3.92714C10.6218 3.92714 9.35174 3.47239 8.33089 2.70541C8.0428 2.48895 7.98472 2.07993 8.20117 1.79183Z" fill="black"/>
<path fill-rule="evenodd" clip-rule="evenodd" d="M3.70987 16.0537C3.62964 16.1001 3.5473 16.1456 3.46384 16.1893C3.03383 16.4146 2.53094 16.6165 2.10939 16.6336C1.84246 16.6444 1.61766 16.4957 1.53753 16.267C1.4558 16.0338 1.54514 15.7755 1.77492 15.6262C2.07317 15.4324 2.51626 15.2777 2.97149 15.1712C3.21321 15.1146 3.46621 15.0698 3.71416 15.04C3.83564 11.7743 6.52145 9.16406 9.81689 9.16406H14.1805C17.4778 9.16406 20.1647 11.7771 20.2835 15.0454C20.5552 15.0822 20.8329 15.1395 21.0954 15.2123C21.5672 15.3432 22.0272 15.5346 22.3149 15.777C22.7303 16.1269 22.4925 16.782 21.9489 16.7834C21.5131 16.7845 20.9903 16.5502 20.5516 16.2924C20.462 16.2397 20.3736 16.1847 20.2876 16.1284V21.8165C20.2876 22.1769 19.9954 22.469 19.6351 22.469C19.2747 22.469 18.9826 22.1769 18.9826 21.8165V16.3938C18.2527 16.9454 17.7859 17.673 17.4869 18.3527C17.2838 18.8146 17.1638 19.2429 17.0949 19.5548C17.0607 19.7102 17.0394 19.835 17.027 19.9186C17.021 19.9589 17.0171 19.9894 17.0148 20.0091V21.8167C17.0148 22.177 16.7226 22.4692 16.3623 22.4692C16.0019 22.4692 15.7098 22.177 15.7098 21.8167V19.9737C15.7098 19.9539 15.7107 19.9341 15.7125 19.9144L15.7128 19.9116L15.7132 19.9077L15.7143 19.8959L15.7186 19.8578C15.7224 19.8262 15.728 19.782 15.7362 19.7269C15.7526 19.6166 15.7791 19.4617 15.8206 19.2737C15.9034 18.8987 16.0471 18.3851 16.2924 17.8273C16.6253 17.0705 17.1557 16.2107 17.9909 15.5149C16.1309 15.0828 14.1561 14.8326 12.0546 14.8326C9.94015 14.8326 7.90544 15.0745 6.00524 15.5138C6.84114 16.2098 7.372 17.0701 7.70504 17.8273C7.95039 18.3851 8.09408 18.8987 8.17682 19.2737C8.21832 19.4617 8.24485 19.6166 8.26123 19.7269C8.26942 19.782 8.2751 19.8262 8.27885 19.8578L8.28312 19.8959L8.2843 19.9077L8.28469 19.9116L8.28483 19.9132L8.28494 19.9144C8.28674 19.9341 8.28764 19.9539 8.28764 19.9737V21.8167C8.28764 22.177 7.99552 22.4692 7.63517 22.4692C7.27482 22.4692 6.98269 22.177 6.98269 21.8167V20.0091C6.98034 19.9894 6.97642 19.9589 6.97045 19.9186C6.95803 19.835 6.9368 19.7102 6.90252 19.5548C6.8337 19.2429 6.7137 18.8146 6.51053 18.3527C6.21159 17.673 5.74474 16.9454 5.01482 16.3938V21.8165C5.01482 22.1769 4.7227 22.469 4.36235 22.469C4.002 22.469 3.70987 22.1769 3.70987 21.8165V16.0537ZM5.09501 14.3925C7.26688 13.836 9.61215 13.5277 12.0546 13.5277C14.4961 13.5277 16.7743 13.8494 18.9028 14.3943C18.4907 12.1609 16.5332 10.469 14.1805 10.469H9.81689C7.46487 10.469 5.50779 12.16 5.09501 14.3925Z" fill="black"/>
</svg>
