<svg width="24" height="24" viewBox="0 0 24 24" fill="none" xmlns="http://www.w3.org/2000/svg">
<path fill-rule="evenodd" clip-rule="evenodd" d="M1 6.00313C1 4.45674 2.2536 3.20312 3.8 3.20312H20.2C21.7464 3.20312 23 4.45674 23 6.00313V18.0032C23 19.5495 21.7464 20.8031 20.2 20.8031H3.8C2.2536 20.8031 1 19.5495 1 18.0032V6.00313ZM3.8 4.80314C3.13726 4.80314 2.6 5.34039 2.6 6.00313V18.0032C2.6 18.6659 3.13726 19.2032 3.8 19.2032H20.2C20.8627 19.2032 21.4 18.6659 21.4 18.0032V6.00313C21.4 5.34039 20.8627 4.80314 20.2 4.80314H3.8Z" fill="black"/>
<path fill-rule="evenodd" clip-rule="evenodd" d="M1 9.00313C1 8.5613 1.35817 8.20312 1.8 8.20312H22.2C22.6418 8.20312 23 8.5613 23 9.00313C23 9.44496 22.6418 9.80311 22.2 9.80311H1.8C1.35817 9.80311 1 9.44496 1 9.00313Z" fill="black"/>
<path fill-rule="evenodd" clip-rule="evenodd" d="M4.20312 16.0031C4.20312 15.5612 4.56129 15.2031 5.00312 15.2031H10.0031C10.445 15.2031 10.8032 15.5612 10.8032 16.0031C10.8032 16.4449 10.445 16.8031 10.0031 16.8031H5.00312C4.56129 16.8031 4.20312 16.4449 4.20312 16.0031Z" fill="black"/>
</svg>
