<svg width="24" height="24" viewBox="0 0 24 24" fill="none" xmlns="http://www.w3.org/2000/svg">
<path d="M16.1441 3.74913C16.4835 3.62793 16.8568 3.80478 16.978 4.14414L22.4326 19.4169C22.5538 19.7562 22.3769 20.1296 22.0376 20.2508C21.6982 20.372 21.3249 20.1951 21.2037 19.8558L15.7491 4.58304C15.6279 4.24368 15.8048 3.87033 16.1441 3.74913Z" fill="black"/>
<path d="M7.85793 3.74914C8.19729 3.87036 8.37411 4.24373 8.25289 4.58308L2.79835 19.8528C2.67713 20.1922 2.30376 20.369 1.96441 20.2478C1.62506 20.1265 1.44823 19.7532 1.56945 19.4138L7.024 4.1441C7.14522 3.80475 7.51858 3.62792 7.85793 3.74914Z" fill="black"/>
<path d="M12.6565 5.45716C12.6565 5.09681 12.3644 4.80469 12.0041 4.80469C11.6437 4.80469 11.3516 5.09681 11.3516 5.45716V6.54807C11.3516 6.90842 11.6437 7.20055 12.0041 7.20055C12.3644 7.20055 12.6565 6.90842 12.6565 6.54807V5.45716Z" fill="black"/>
<path d="M12.0041 9.16406C12.3644 9.16406 12.6565 9.45619 12.6565 9.81654V11.9984C12.6565 12.3587 12.3644 12.6509 12.0041 12.6509C11.6437 12.6509 11.3516 12.3587 11.3516 11.9984V9.81654C11.3516 9.45619 11.6437 9.16406 12.0041 9.16406Z" fill="black"/>
<path d="M12.6565 15.2697C12.6565 14.9094 12.3644 14.6172 12.0041 14.6172C11.6437 14.6172 11.3516 14.9094 11.3516 15.2697V19.6333C11.3516 19.9937 11.6437 20.2858 12.0041 20.2858C12.3644 20.2858 12.6565 19.9937 12.6565 19.6333V15.2697Z" fill="black"/>
</svg>
