<svg width="24" height="24" viewBox="0 0 24 24" fill="none" xmlns="http://www.w3.org/2000/svg">
<path d="M4.20313 7C4.75542 7 5.20313 6.55228 5.20313 6C5.20313 5.44772 4.75542 5 4.20313 5C3.65085 5 3.20312 5.44772 3.20312 6C3.20312 6.55228 3.65085 7 4.20313 7Z" fill="black"/>
<path d="M8.3 5.20312C7.85817 5.20312 7.5 5.5613 7.5 6.00313C7.5 6.44495 7.85817 6.80312 8.3 6.80312H20.4C20.8418 6.80312 21.2 6.44495 21.2 6.00313C21.2 5.5613 20.8418 5.20312 20.4 5.20312H8.3Z" fill="black"/>
<path d="M8.3 11.2031C7.85817 11.2031 7.5 11.5613 7.5 12.0031C7.5 12.4449 7.85817 12.8031 8.3 12.8031H20.4C20.8418 12.8031 21.2 12.4449 21.2 12.0031C21.2 11.5613 20.8418 11.2031 20.4 11.2031H8.3Z" fill="black"/>
<path d="M7.5 18.0031C7.5 17.5613 7.85817 17.2031 8.3 17.2031H20.4C20.8418 17.2031 21.2 17.5613 21.2 18.0031C21.2 18.4449 20.8418 18.8031 20.4 18.8031H8.3C7.85817 18.8031 7.5 18.4449 7.5 18.0031Z" fill="black"/>
<path d="M5.20313 12C5.20313 12.5523 4.75542 13 4.20313 13C3.65085 13 3.20312 12.5523 3.20312 12C3.20312 11.4477 3.65085 11 4.20313 11C4.75542 11 5.20313 11.4477 5.20313 12Z" fill="black"/>
<path d="M4.20313 19C4.75542 19 5.20313 18.5523 5.20313 18C5.20313 17.4477 4.75542 17 4.20313 17C3.65085 17 3.20312 17.4477 3.20312 18C3.20312 18.5523 3.65085 19 4.20313 19Z" fill="black"/>
</svg>
