<svg width="24" height="24" viewBox="0 0 24 24" fill="none" xmlns="http://www.w3.org/2000/svg">
<path fill-rule="evenodd" clip-rule="evenodd" d="M13.0031 2.80313C12.3403 2.80313 11.8031 3.34038 11.8031 4.00313C11.8031 4.66587 12.3403 5.20312 13.0031 5.20312C13.6658 5.20312 14.2031 4.66587 14.2031 4.00313C14.2031 3.34038 13.6658 2.80313 13.0031 2.80313ZM10.2031 4.00313C10.2031 2.45674 11.4567 1.20312 13.0031 1.20312C14.5495 1.20312 15.8031 2.45674 15.8031 4.00313C15.8031 5.54953 14.5495 6.80313 13.0031 6.80313C11.4567 6.80313 10.2031 5.54953 10.2031 4.00313Z" fill="black"/>
<path fill-rule="evenodd" clip-rule="evenodd" d="M7.71042 14.2429C8.13041 14.3801 8.35967 14.8318 8.22248 15.2518L7.4281 17.6838C7.39856 17.7742 7.35315 17.8586 7.29398 17.9331L5.91175 19.6726C5.90121 19.6859 5.89026 19.6988 5.87891 19.7113C5.77477 19.8266 5.7779 20.0304 5.8888 20.1436C5.93482 20.1906 5.98231 20.2043 6.02259 20.2033C6.06051 20.2024 6.10684 20.1879 6.15124 20.1439L7.68185 18.2499L7.69351 18.2358C7.69351 18.2358 7.69659 18.2321 7.70152 18.2233C7.70587 18.2155 7.71109 18.2048 7.71644 18.1908L8.24503 16.6225C8.38615 16.2038 8.83996 15.9788 9.25865 16.1199C9.67733 16.2611 9.90235 16.7149 9.76123 17.1336L9.22899 18.7127L9.22316 18.7293C9.15758 18.9106 9.06019 19.0954 8.92153 19.2614L7.37724 21.1724C7.36798 21.1839 7.3584 21.1951 7.34852 21.206C6.65472 21.9736 5.47798 22.0111 4.74556 21.263C4.05289 20.5556 4.01816 19.4069 4.67271 18.66L5.95183 17.0503L6.70156 14.755C6.83875 14.335 7.29043 14.1057 7.71042 14.2429Z" fill="black"/>
<path fill-rule="evenodd" clip-rule="evenodd" d="M8.61447 6.4313C8.99829 6.11197 9.50779 5.97981 9.99105 6.06372L10.0033 6.06584L14.6321 6.94379C15.3115 7.06389 15.8478 7.58491 15.9833 8.26123L16.4935 10.746L17.8718 11.4542C17.8806 11.4588 17.8893 11.4634 17.898 11.4683C18.7297 11.9355 19.0471 12.9901 18.602 13.8421C18.1416 14.7336 17.0602 15.0554 16.1914 14.5904L14.9331 13.9699C14.5368 13.7745 14.374 13.2949 14.5694 12.8986C14.7649 12.5023 15.2445 12.3395 15.6408 12.5349L16.9127 13.1622C16.9232 13.1674 16.9337 13.1728 16.944 13.1785C16.9935 13.2057 17.0407 13.2073 17.0796 13.1956C17.1178 13.1841 17.1548 13.1577 17.1807 13.1075L17.1837 13.1016C17.2263 13.0203 17.196 12.9149 17.1218 12.8677L15.4213 11.9939C15.2057 11.8832 15.052 11.6807 15.0033 11.4433L14.4145 8.57577C14.4093 8.54933 14.3883 8.52535 14.3531 8.51929L14.3396 8.51697L9.71462 7.63974C9.68952 7.63638 9.65697 7.64543 9.63795 7.66116L6.6421 10.1579C6.61345 10.1828 6.60242 10.2095 6.59979 10.2241L6.30352 12.0656C6.30397 12.1613 6.30587 12.2202 6.31244 12.2712C6.31618 12.3002 6.32035 12.3157 6.32258 12.3225C6.3434 12.3423 6.4136 12.3938 6.59809 12.4492C6.76551 12.4376 6.9105 12.3967 7.00468 12.3471C7.03417 12.3315 7.05245 12.319 7.0632 12.3104L7.30418 10.8109C7.33529 10.6173 7.43645 10.4418 7.58842 10.3179L9.01821 9.15165C9.3606 8.87239 9.86454 8.92359 10.1438 9.26598C10.4231 9.60837 10.3719 10.1124 10.0295 10.3916L8.8356 11.3653L8.63877 12.5902C8.54747 13.182 8.13827 13.5582 7.7509 13.7624C7.36398 13.9664 6.91373 14.0524 6.50329 14.0524C6.43789 14.0524 6.37274 14.0444 6.30929 14.0285C5.69581 13.8752 5.20853 13.599 4.93377 13.1181C4.70022 12.7094 4.70225 12.2663 4.70327 12.0415C4.70333 12.0277 4.70339 12.0146 4.70339 12.0024C4.70339 11.9599 4.70679 11.9174 4.71355 11.8754L5.02113 9.96353C5.08886 9.55423 5.30568 9.19332 5.60874 8.93629L5.614 8.93182L8.61447 6.4313ZM7.07653 12.2974C7.07653 12.2974 7.07565 12.2992 7.0723 12.3025C7.0746 12.2989 7.07653 12.2974 7.07653 12.2974ZM6.31525 12.3138C6.31525 12.3138 6.31772 12.3159 6.32083 12.3207C6.31649 12.3164 6.31525 12.3138 6.31525 12.3138Z" fill="black"/>
<path fill-rule="evenodd" clip-rule="evenodd" d="M13.2405 11.0338C13.6809 11.069 14.0094 11.4546 13.9741 11.8951L13.8241 13.7699L15.7269 16.4084C15.9669 16.7131 16.0827 17.0792 16.0975 17.4273L16.0979 17.4365L16.2023 20.8124C16.2317 21.878 15.404 22.7678 14.3388 22.7985C13.2543 22.8297 12.4076 21.9581 12.3771 20.9131L12.2985 18.6599L9.34849 14.459C9.09458 14.0974 9.18186 13.5985 9.54344 13.3445C9.90501 13.0906 10.4039 13.1779 10.6579 13.5395L13.7444 17.9348C13.8335 18.0617 13.8839 18.2117 13.8893 18.3667L13.9764 20.8657C13.9824 21.0815 14.1436 21.2035 14.2927 21.1992C14.4618 21.1943 14.6078 21.0535 14.6029 20.8575L14.4988 17.4922C14.4961 17.4413 14.4784 17.4088 14.4695 17.3979C14.4596 17.3856 14.4499 17.3731 14.4407 17.3603L12.3543 14.4672C12.2432 14.3132 12.1906 14.1247 12.2057 13.9354L12.3792 11.7674C12.4145 11.327 12.8001 10.9985 13.2405 11.0338Z" fill="black"/>
</svg>
