<svg width="24" height="24" viewBox="0 0 24 24" fill="none" xmlns="http://www.w3.org/2000/svg">
<path fill-rule="evenodd" clip-rule="evenodd" d="M8.28633 2.99232C8.28813 2.9726 8.28903 2.95281 8.28903 2.93301V1.08998C8.28903 0.729622 7.99691 0.4375 7.63656 0.4375C7.2762 0.4375 6.98408 0.729622 6.98408 1.08998V2.8976C6.98173 2.91726 6.97781 2.9478 6.97184 2.98804C6.95941 3.07164 6.93819 3.19649 6.90391 3.35185C6.83509 3.66377 6.71509 4.09207 6.51192 4.554C6.21297 5.2337 5.7461 5.96135 5.01615 6.51291V1.09007C5.01615 0.729716 4.72403 0.437593 4.36368 0.437593C4.00333 0.437593 3.7112 0.729716 3.7112 1.09007V7.61724C3.71085 7.62966 3.71085 7.64204 3.7112 7.65437V8.72644C3.7112 12.0992 6.44541 14.8334 9.81822 14.8334H14.1819C17.5547 14.8334 20.2889 12.0992 20.2889 8.72644V7.64966C20.2891 7.64035 20.2891 7.63105 20.2889 7.62178V1.09007C20.2889 0.729716 19.9968 0.437593 19.6364 0.437593C19.2761 0.437593 18.9839 0.729716 18.9839 1.09007V6.51281C18.2541 5.96127 17.7872 5.23365 17.4883 4.554C17.2851 4.09207 17.1651 3.66377 17.0963 3.35185C17.062 3.19649 17.0408 3.07164 17.0284 2.98804C17.0224 2.9478 17.0185 2.91726 17.0161 2.8976V1.08998C17.0161 0.729622 16.724 0.4375 16.3637 0.4375C16.0033 0.4375 15.7112 0.729622 15.7112 1.08998V2.93301C15.7112 2.95281 15.7121 2.9726 15.7139 2.99232L15.7141 2.99503L15.7145 2.99902L15.7157 3.01076L15.72 3.04883C15.7237 3.08052 15.7294 3.12465 15.7376 3.17982C15.754 3.29007 15.7805 3.44494 15.822 3.63302C15.9047 4.00801 16.0484 4.52155 16.2938 5.07938C16.6266 5.83616 17.1571 6.69589 17.9922 7.39173C16.1322 7.82384 14.1574 8.07396 12.0559 8.07396C9.94151 8.07396 7.90685 7.83207 6.00668 7.39287C6.84256 6.69684 7.37339 5.83658 7.70643 5.07938C7.95178 4.52155 8.09547 4.00801 8.17821 3.63302C8.21971 3.44494 8.24624 3.29007 8.26262 3.17982C8.27081 3.12465 8.27649 3.08052 8.28024 3.04883L8.2845 3.01076L8.28569 2.99902L8.28608 2.99503L8.28622 2.99352L8.28633 2.99232ZM5.01615 8.72644V8.49344C7.21044 9.06301 9.58338 9.37891 12.0559 9.37891C14.528 9.37891 16.8326 9.04908 18.9839 8.4917V8.72644C18.9839 11.3785 16.834 13.5285 14.1819 13.5285H9.81822C7.16611 13.5285 5.01615 11.3785 5.01615 8.72644Z" fill="black"/>
<path fill-rule="evenodd" clip-rule="evenodd" d="M19.9999 21.24C20.1875 21.114 20.2966 20.8998 20.2881 20.6739C20.2796 20.448 20.1548 20.2426 19.9582 20.131L12.3218 15.796C12.122 15.6826 11.8774 15.6826 11.6776 15.796L4.04131 20.1309C3.84471 20.2425 3.71989 20.448 3.7114 20.6739C3.70292 20.8998 3.81197 21.114 3.99963 21.24C6.16502 22.6943 8.96125 23.5613 11.9998 23.5613C15.0383 23.5613 17.8345 22.6944 19.9999 21.24ZM11.9997 17.1137L18.3452 20.7159C16.5543 21.6829 14.3687 22.2564 11.9998 22.2564C9.63083 22.2564 7.44522 21.6829 5.65428 20.7158L11.9997 17.1137Z" fill="black"/>
</svg>
