<svg width="24" height="24" viewBox="0 0 24 24" fill="none" xmlns="http://www.w3.org/2000/svg">
<path fill-rule="evenodd" clip-rule="evenodd" d="M16.9377 7.19427C15.8349 6.0915 14.047 6.0915 12.9442 7.19427C11.8415 8.29701 11.8415 10.085 12.9442 11.1878C14.047 12.2905 15.8349 12.2905 16.9377 11.1878C18.0405 10.085 18.0405 8.29701 16.9377 7.19427ZM14.0558 8.3058C14.5447 7.81692 15.3373 7.81692 15.8262 8.3058C16.315 8.79468 16.315 9.58728 15.8262 10.0762C15.3373 10.5651 14.5447 10.5651 14.0558 10.0762C13.5669 9.58728 13.5669 8.79468 14.0558 8.3058Z" fill="black"/>
<path fill-rule="evenodd" clip-rule="evenodd" d="M18.4447 2.80579C17.7614 2.12251 16.7697 1.84783 15.8323 2.08219L11.6757 3.12133C11.192 3.24225 10.7503 3.49237 10.3977 3.84492L2.80573 11.4369C1.73142 12.5112 1.73142 14.253 2.80573 15.3273L8.67267 21.1943C9.74697 22.2686 11.4888 22.2686 12.5631 21.1943L20.1551 13.6023C20.5076 13.2497 20.7577 12.808 20.8787 12.3243L21.9178 8.16773C22.1522 7.23028 21.8775 6.2386 21.1942 5.55532L18.4447 2.80579ZM16.2135 3.60722C16.6153 3.50678 17.0403 3.6245 17.3331 3.91734L20.0827 6.66687C20.3755 6.9597 20.4932 7.38471 20.3928 7.78647L19.3536 11.943C19.3018 12.1503 19.1946 12.3396 19.0435 12.4907L11.4515 20.0827C10.9911 20.5431 10.2446 20.5431 9.78421 20.0827L3.91728 14.2158C3.45686 13.7554 3.45686 13.0089 3.91728 12.5485L11.5093 4.95647C11.6604 4.80537 11.8497 4.69818 12.057 4.64636L16.2135 3.60722Z" fill="black"/>
</svg>
