<svg width="24" height="24" viewBox="0 0 24 24" fill="none" xmlns="http://www.w3.org/2000/svg">
<path fill-rule="evenodd" clip-rule="evenodd" d="M1.39844 5.99844C1.39844 3.45793 3.45793 1.39844 5.99844 1.39844H17.9984C20.5389 1.39844 22.5984 3.45793 22.5984 5.99844V17.9984C22.5984 20.5389 20.5389 22.5984 17.9984 22.5984H5.99844C3.45793 22.5984 1.39844 20.5389 1.39844 17.9984V5.99844ZM5.99844 2.59844C4.12067 2.59844 2.59844 4.12067 2.59844 5.99844V17.9984C2.59844 19.8762 4.12067 21.3984 5.99844 21.3984H17.9984C19.8762 21.3984 21.3984 19.8762 21.3984 17.9984V5.99844C21.3984 4.12067 19.8762 2.59844 17.9984 2.59844H5.99844Z" fill="black"/>
<path fill-rule="evenodd" clip-rule="evenodd" d="M14.3133 7.80951C14.9352 8.38181 15.3032 9.23021 15.1744 10.2523C15.0415 11.3076 14.2594 11.8441 13.7193 12.2144C13.6779 12.2428 13.6379 12.2703 13.5997 12.2969C13.0098 12.7081 12.6896 12.9935 12.6896 13.6C12.6896 13.9314 12.4209 14.2 12.0896 14.2C11.7582 14.2 11.4896 13.9314 11.4896 13.6C11.4896 12.3352 12.3104 11.7329 12.9134 11.3125L12.923 11.3058C13.5739 10.852 13.9198 10.6109 13.9839 10.1023C14.0626 9.47699 13.8456 9.00989 13.5007 8.69253C13.1414 8.36194 12.6252 8.18008 12.115 8.20172C11.0532 8.24677 10.2 9.05535 10.2 10.0014C10.2 10.3327 9.93137 10.6014 9.6 10.6014C9.26863 10.6014 9 10.3327 9 10.0014C9 8.29236 10.487 7.06971 12.0641 7.0028C12.8734 6.96847 13.7057 7.25044 14.3133 7.80951Z" fill="black"/>
<path d="M12.8969 15.9953C12.8969 16.4371 12.5387 16.7953 12.0969 16.7953C11.6551 16.7953 11.2969 16.4371 11.2969 15.9953C11.2969 15.5535 11.6551 15.1953 12.0969 15.1953C12.5387 15.1953 12.8969 15.5535 12.8969 15.9953Z" fill="black"/>
</svg>
