<svg width="24" height="24" viewBox="0 0 24 24" fill="none" xmlns="http://www.w3.org/2000/svg">
<path d="M6.97772 3.85363C7.29761 4.21417 7.8492 4.24714 8.20975 3.92725C9.31412 2.94744 10.6169 2.4017 11.9941 2.4017C13.3714 2.4017 14.6742 2.94744 15.7786 3.92725C16.1391 4.24714 16.6907 4.21417 17.0106 3.85363C17.3305 3.49308 17.2975 2.94149 16.937 2.6216C15.5593 1.39932 13.8561 0.65625 11.9941 0.65625C10.1322 0.65625 8.42901 1.39932 7.05135 2.6216C6.6908 2.94149 6.65784 3.49308 6.97772 3.85363Z" fill="black"/>
<path d="M8.68289 5.76192C8.97244 6.14725 9.51954 6.22489 9.90487 5.93534C10.4882 5.49702 11.212 5.23764 11.9988 5.23764C12.7856 5.23764 13.5094 5.49702 14.0927 5.93534C14.478 6.22489 15.0251 6.14725 15.3147 5.76192C15.6042 5.37659 15.5266 4.8295 15.1413 4.53994C14.266 3.88227 13.1767 3.49219 11.9988 3.49219C10.8209 3.49219 9.73153 3.88227 8.85631 4.53994C8.47098 4.8295 8.39334 5.37659 8.68289 5.76192Z" fill="black"/>
<path d="M10.5262 12.5329C10.8348 12.9032 10.7847 13.4535 10.4144 13.762C9.901 14.1897 9.59702 14.7862 9.59702 15.4419C9.59702 16.6287 10.6303 17.6733 11.997 17.6733C13.3638 17.6733 14.397 16.6287 14.397 15.4419C14.397 14.793 14.1028 14.2003 13.6084 13.7892C13.2378 13.481 13.1872 12.9307 13.4954 12.5601C13.8035 12.1895 14.3538 12.1389 14.7244 12.4471C15.5952 13.1712 16.1425 14.2459 16.1425 15.4419C16.1425 17.6785 14.2397 19.4188 11.997 19.4188C9.75439 19.4188 7.85156 17.6785 7.85156 15.4419C7.85156 14.2172 8.42653 13.1463 9.29708 12.421C9.6674 12.1125 10.2177 12.1626 10.5262 12.5329Z" fill="black"/>
<path d="M12.8705 10.9119C12.8705 10.4299 12.4797 10.0391 11.9977 10.0391C11.5157 10.0391 11.125 10.4299 11.125 10.9119V14.1846C11.125 14.6666 11.5157 15.0573 11.9977 15.0573C12.4797 15.0573 12.8705 14.6666 12.8705 14.1846V10.9119Z" fill="black"/>
<path fill-rule="evenodd" clip-rule="evenodd" d="M9.86213 22.693H14.1322C17.167 22.693 19.7294 20.289 19.385 17.323L18.5988 10.568L18.5984 10.5649C18.3311 8.33664 16.2923 6.76562 13.9998 6.76562H9.99454C7.70587 6.76562 5.65308 8.33443 5.3954 10.569L4.60935 17.3232C4.26499 20.2881 6.81784 22.693 9.86213 22.693ZM7.12939 10.7687C7.26919 9.555 8.44367 8.51108 9.99454 8.51108H13.9998C15.5464 8.51108 16.7181 9.55174 16.8653 10.7715L16.8654 10.7728L17.6512 17.5248C17.8527 19.2612 16.3272 20.9475 14.1322 20.9475H9.86213C7.65999 20.9475 6.14148 19.262 6.34315 17.5246L7.12939 10.7687Z" fill="black"/>
</svg>
