<svg width="24" height="24" viewBox="0 0 24 24" fill="none" xmlns="http://www.w3.org/2000/svg">
<path d="M9.75864 11.5742C9.99296 11.8084 9.99296 12.1883 9.75864 12.4226C9.52433 12.6569 9.14443 12.6569 8.91011 12.4226L4.91011 8.4227C4.6758 8.18839 4.6758 7.80849 4.91011 7.57417L8.91011 3.57417C9.14443 3.33986 9.52433 3.33986 9.75864 3.57417C9.99296 3.80849 9.99296 4.18839 9.75864 4.4227L6.78291 7.39844H18.6676C18.999 7.39844 19.2676 7.66707 19.2676 7.99844C19.2676 8.32981 18.999 8.59844 18.6676 8.59844H6.78291L9.75864 11.5742Z" fill="black"/>
<path d="M14.2433 12.4227C14.009 12.1884 14.009 11.8085 14.2433 11.5742C14.4777 11.3399 14.8575 11.3399 15.0919 11.5742L19.0844 15.5668C19.1974 15.6759 19.2677 15.829 19.2677 15.9985C19.2677 16.1679 19.1975 16.321 19.0845 16.4301L15.0919 20.4227C14.8575 20.657 14.4777 20.657 14.2433 20.4227C14.009 20.1884 14.009 19.8085 14.2433 19.5742L17.2191 16.5985H5.33437C5.003 16.5985 4.73438 16.3298 4.73438 15.9985C4.73438 15.6671 5.003 15.3985 5.33437 15.3985H17.2191L14.2433 12.4227Z" fill="black"/>
</svg>
