<svg width="24" height="24" viewBox="0 0 24 24" fill="none" xmlns="http://www.w3.org/2000/svg">
<path fill-rule="evenodd" clip-rule="evenodd" d="M21.363 16.0219C21.6262 16.2232 21.6764 16.5997 21.4751 16.863L17.2692 22.363C17.1561 22.5109 16.9807 22.5979 16.7945 22.5985C16.6083 22.5991 16.4323 22.5132 16.3183 22.3659L14.0242 19.4044C13.8212 19.1424 13.8691 18.7656 14.1311 18.5626C14.393 18.3597 14.7699 18.4076 14.9728 18.6695L16.7896 21.0148L20.5219 16.134C20.7232 15.8708 21.0997 15.8206 21.363 16.0219Z" fill="black"/>
<path fill-rule="evenodd" clip-rule="evenodd" d="M2.39844 3.99844C2.39844 2.5625 3.5625 1.39844 4.99844 1.39844H18.9984C20.4343 1.39844 21.5984 2.5625 21.5984 3.99844V12.9984C21.5984 13.3298 21.3298 13.5984 20.9984 13.5984C20.667 13.5984 20.3984 13.3298 20.3984 12.9984V3.99844C20.3984 3.22524 19.7716 2.59844 18.9984 2.59844H4.99844C4.22524 2.59844 3.59844 3.22524 3.59844 3.99844V19.9984C3.59844 20.7716 4.22524 21.3984 4.99844 21.3984H12.8984C13.2298 21.3984 13.4984 21.667 13.4984 21.9984C13.4984 22.3298 13.2298 22.5984 12.8984 22.5984H4.99844C3.5625 22.5984 2.39844 21.4343 2.39844 19.9984V3.99844Z" fill="black"/>
<path fill-rule="evenodd" clip-rule="evenodd" d="M7.39844 6.99844C7.39844 6.66707 7.66707 6.39844 7.99844 6.39844H15.9984C16.3298 6.39844 16.5984 6.66707 16.5984 6.99844C16.5984 7.32981 16.3298 7.59844 15.9984 7.59844H7.99844C7.66707 7.59844 7.39844 7.32981 7.39844 6.99844Z" fill="black"/>
<path fill-rule="evenodd" clip-rule="evenodd" d="M7.39844 10.9984C7.39844 10.667 7.66707 10.3984 7.99844 10.3984H15.9984C16.3298 10.3984 16.5984 10.667 16.5984 10.9984C16.5984 11.3298 16.3298 11.5984 15.9984 11.5984H7.99844C7.66707 11.5984 7.39844 11.3298 7.39844 10.9984Z" fill="black"/>
<path fill-rule="evenodd" clip-rule="evenodd" d="M7.39844 14.9984C7.39844 14.667 7.66707 14.3984 7.99844 14.3984H12.9984C13.3298 14.3984 13.5984 14.667 13.5984 14.9984C13.5984 15.3298 13.3298 15.5984 12.9984 15.5984H7.99844C7.66707 15.5984 7.39844 15.3298 7.39844 14.9984Z" fill="black"/>
</svg>
