<svg width="24" height="24" viewBox="0 0 24 24" fill="none" xmlns="http://www.w3.org/2000/svg">
<path fill-rule="evenodd" clip-rule="evenodd" d="M2.99844 18.4H1.99844C1.66707 18.4 1.39844 18.6686 1.39844 19C1.39844 19.3314 1.66707 19.6 1.99844 19.6H22.8939C23.2253 19.6 23.4939 19.3314 23.4939 19C23.4939 18.6686 23.2253 18.4 22.8939 18.4H21.9984V7C21.9984 5.89543 21.103 5 19.9984 5H4.99844C3.89387 5 2.99844 5.89543 2.99844 7V18.4ZM19.9984 6.2H4.99844C4.55661 6.2 4.19844 6.55817 4.19844 7V14.4028H20.7984V7C20.7984 6.55817 20.4403 6.2 19.9984 6.2ZM9.55058 16.4924C9.55058 16.2163 9.77444 15.9924 10.0506 15.9924H14.7521C15.0282 15.9924 15.2521 16.2163 15.2521 16.4924C15.2521 16.7686 15.0282 16.9924 14.7521 16.9924H10.0506C9.77444 16.9924 9.55058 16.7686 9.55058 16.4924Z" fill="black"/>
</svg>
