<svg width="24" height="24" viewBox="0 0 24 24" fill="none" xmlns="http://www.w3.org/2000/svg">
<path fill-rule="evenodd" clip-rule="evenodd" d="M4.45312 15.0039C4.45312 15.28 4.67698 15.5039 4.95312 15.5039H19.0388C19.3149 15.5039 19.5388 15.28 19.5388 15.0039V11.3887C19.5388 6.91933 16.1461 3.26562 11.9959 3.26562C7.84584 3.26562 4.45312 6.91933 4.45312 11.3887V15.0039ZM11.31 6.46577C11.31 6.05793 11.617 5.72732 11.9957 5.72732C14.484 5.72732 16.7283 7.69224 17.1293 10.2828C17.1915 10.6851 16.9392 11.0656 16.5656 11.1326C16.192 11.1997 15.8387 10.9279 15.7765 10.5256C15.4917 8.68545 13.8503 7.20422 11.9957 7.20422C11.617 7.20422 11.31 6.87361 11.31 6.46577ZM16.5957 13.3038C16.9823 13.3038 17.2957 12.9904 17.2957 12.6038C17.2957 12.2172 16.9823 11.9038 16.5957 11.9038C16.2091 11.9038 15.8957 12.2172 15.8957 12.6038C15.8957 12.9904 16.2091 13.3038 16.5957 13.3038Z" fill="black"/>
<path d="M3.32053 17.7374C3.32053 17.3325 3.6232 17.0036 3.99821 16.999H4.00588H20.0059C20.0059 16.999 20.0071 16.97 20.0074 16.941C20.008 16.8828 20.0086 16.8247 20.014 16.999C20.3891 17.0034 20.692 17.3323 20.692 17.7374L20.6839 19.9993C20.6839 20.4071 20.3769 20.7378 19.9982 20.7378H3.99821C3.6195 20.7378 3.3125 20.4071 3.3125 19.9993L3.32053 17.7374Z" fill="black"/>
</svg>
