<svg width="24" height="24" viewBox="0 0 24 24" fill="none" xmlns="http://www.w3.org/2000/svg">
<path d="M11.9965 6.72656C12.3545 6.72656 12.6447 7.01675 12.6447 7.37471V11.3561H16.6262C16.9841 11.3561 17.2743 11.6463 17.2743 12.0043C17.2743 12.3623 16.9841 12.6524 16.6262 12.6524H12.6447V16.6339C12.6447 16.9919 12.3545 17.2821 11.9965 17.2821C11.6386 17.2821 11.3484 16.9919 11.3484 16.6339V12.6524H7.3669C7.00894 12.6524 6.71875 12.3623 6.71875 12.0043C6.71875 11.6463 7.00894 11.3561 7.3669 11.3561H11.3484V7.37471C11.3484 7.01675 11.6386 6.72656 11.9965 6.72656Z" fill="black"/>
<path fill-rule="evenodd" clip-rule="evenodd" d="M12 2C6.47715 2 2 6.47715 2 12C2 17.5228 6.47715 22 12 22C17.5228 22 22 17.5228 22 12C22 6.47715 17.5228 2 12 2ZM3.48148 12C3.48148 7.29535 7.29535 3.48148 12 3.48148C16.7046 3.48148 20.5185 7.29535 20.5185 12C20.5185 16.7046 16.7046 20.5185 12 20.5185C7.29535 20.5185 3.48148 16.7046 3.48148 12Z" fill="black"/>
</svg>
