<svg width="24" height="24" viewBox="0 0 24 24" fill="none" xmlns="http://www.w3.org/2000/svg">
<path d="M10.3359 8.23431C10.6483 7.9219 11.1549 7.9219 11.4673 8.23431L14.4016 11.1686L17.3359 8.23431C17.6483 7.9219 18.1549 7.9219 18.4673 8.23431C18.7797 8.54673 18.7797 9.05327 18.4673 9.36569L15.533 12.3L18.4673 15.2343C18.7797 15.5467 18.7797 16.0533 18.4673 16.3657C18.1549 16.6781 17.6483 16.6781 17.3359 16.3657L14.4016 13.4314L11.4673 16.3657C11.1549 16.6781 10.6483 16.6781 10.3359 16.3657C10.0235 16.0533 10.0235 15.5467 10.3359 15.2343L13.2702 12.3L10.3359 9.36569C10.0235 9.05327 10.0235 8.54673 10.3359 8.23431Z" fill="black"/>
<path fill-rule="evenodd" clip-rule="evenodd" d="M6.48241 4.92396C7.01331 4.33573 7.76859 4 8.56098 4H20.9027C22.4491 4 23.7027 5.2536 23.7027 6.8V17.8C23.7027 19.3464 22.4491 20.6 20.9027 20.6H8.56098C7.76859 20.6 7.01331 20.2643 6.48241 19.676L1.5183 14.176C0.5564 13.1103 0.556399 11.4897 1.5183 10.424L6.48241 4.92396ZM8.56098 5.6C8.22138 5.6 7.89769 5.74389 7.67016 5.99598L2.70606 11.496C2.29381 11.9527 2.29381 12.6473 2.70606 13.104L7.67016 18.604C7.89769 18.8561 8.22138 19 8.56098 19H20.9027C21.5655 19 22.1027 18.4627 22.1027 17.8V6.8C22.1027 6.13726 21.5655 5.6 20.9027 5.6H8.56098Z" fill="black"/>
</svg>
