<svg width="24" height="24" viewBox="0 0 24 24" fill="none" xmlns="http://www.w3.org/2000/svg">
<path d="M6.99844 7.39844C6.66707 7.39844 6.39844 7.66707 6.39844 7.99844C6.39844 8.32981 6.66707 8.59844 6.99844 8.59844H12.9984C13.3298 8.59844 13.5984 8.32981 13.5984 7.99844C13.5984 7.66707 13.3298 7.39844 12.9984 7.39844H6.99844Z" fill="black"/>
<path d="M6.39844 11.9984C6.39844 11.667 6.66707 11.3984 6.99844 11.3984H16.9984C17.3298 11.3984 17.5984 11.667 17.5984 11.9984C17.5984 12.3298 17.3298 12.5984 16.9984 12.5984H6.99844C6.66707 12.5984 6.39844 12.3298 6.39844 11.9984Z" fill="black"/>
<path d="M6.99844 15.3984C6.66707 15.3984 6.39844 15.667 6.39844 15.9984C6.39844 16.3298 6.66707 16.5984 6.99844 16.5984H9.99844C10.3298 16.5984 10.5984 16.3298 10.5984 15.9984C10.5984 15.667 10.3298 15.3984 9.99844 15.3984H6.99844Z" fill="black"/>
<path fill-rule="evenodd" clip-rule="evenodd" d="M4.99844 2.39844C3.5625 2.39844 2.39844 3.5625 2.39844 4.99844V18.9984C2.39844 20.4343 3.5625 21.5984 4.99844 21.5984H18.9984C20.4343 21.5984 21.5984 20.4343 21.5984 18.9984V4.99844C21.5984 3.5625 20.4343 2.39844 18.9984 2.39844H4.99844ZM3.59844 4.99844C3.59844 4.22524 4.22524 3.59844 4.99844 3.59844H18.9984C19.7716 3.59844 20.3984 4.22524 20.3984 4.99844V18.9984C20.3984 19.7716 19.7716 20.3984 18.9984 20.3984H4.99844C4.22524 20.3984 3.59844 19.7716 3.59844 18.9984V4.99844Z" fill="black"/>
</svg>
