<svg width="24" height="24" viewBox="0 0 24 24" fill="none" xmlns="http://www.w3.org/2000/svg">
<path fill-rule="evenodd" clip-rule="evenodd" d="M5.44422 8.09842C3.89322 9.37173 2.34099 11.0647 2.12666 13.7013C2.11006 13.8481 2.10156 13.9971 2.10156 14.1479L2.10559 14.3275C2.20741 16.5914 4.22614 18.3979 6.70156 18.3979C9.24207 18.3979 11.3016 16.4952 11.3016 14.1479C11.3016 11.8007 9.24207 9.89789 6.70156 9.89789C6.40291 9.89789 6.11091 9.92419 5.82812 9.97441C7.40462 8.16543 9.44968 6.8409 10.7965 6.17377C10.9714 6.08714 11.0609 5.8893 11.006 5.702C10.9453 5.49509 10.7292 5.37524 10.5233 5.43904C8.84696 5.95827 6.99298 6.82694 5.44422 8.09842ZM3.73017 13.79C3.71125 13.9084 3.70156 14.028 3.70156 14.1479C3.70156 15.4946 4.92312 16.7979 6.70156 16.7979C8.47999 16.7979 9.70156 15.4946 9.70156 14.1479C9.70156 12.8013 8.47999 11.4979 6.70156 11.4979C5.33314 11.4979 4.29442 12.2696 3.8882 13.2389C3.82842 13.4201 3.77554 13.6038 3.73017 13.79ZM16.0443 8.27786C14.4933 9.55117 12.941 11.2442 12.7267 13.8807C12.7101 14.0275 12.7016 14.1765 12.7016 14.3274L12.7056 14.5069C12.8075 16.7709 14.8262 18.5774 17.3016 18.5774C19.8421 18.5774 21.9016 16.6746 21.9016 14.3274C21.9016 11.9802 19.8421 10.0774 17.3016 10.0774C17.0029 10.0774 16.7109 10.1037 16.4282 10.1539C18.0047 8.34487 20.0497 7.02035 21.3965 6.35322C21.5714 6.26658 21.6609 6.06874 21.606 5.88144C21.5453 5.67454 21.3292 5.55469 21.1233 5.61848C19.447 6.13772 17.593 7.00638 16.0443 8.27786ZM14.3302 13.9694C14.3113 14.0878 14.3016 14.2074 14.3016 14.3274C14.3016 15.6741 15.5232 16.9774 17.3016 16.9774C19.08 16.9774 20.3016 15.6741 20.3016 14.3274C20.3016 12.9807 19.08 11.6774 17.3016 11.6774C15.9332 11.6774 14.8945 12.449 14.4882 13.4183C14.4285 13.5995 14.3756 13.7833 14.3302 13.9694Z" fill="black"/>
</svg>
