<svg width="24" height="24" viewBox="0 0 24 24" fill="none" xmlns="http://www.w3.org/2000/svg">
<path fill-rule="evenodd" clip-rule="evenodd" d="M20.6946 8.93791C21.9159 9.31769 22.8027 10.4569 22.8027 11.8031V14.3031C22.8027 15.6107 21.9662 16.7228 20.7992 17.1337C20.8018 17.1565 20.8031 17.1797 20.8031 17.2032V17.7017C20.8031 19.805 19.2559 21.5554 17.2252 21.8583C17.0409 22.4382 16.5482 22.8532 15.9694 22.8532H14.636C13.8997 22.8532 13.3027 22.1816 13.3027 21.3532C13.3027 20.5247 13.8997 19.8532 14.636 19.8532H15.9694C16.4815 19.8532 16.9261 20.1779 17.1495 20.6544C18.5495 20.3956 19.6031 19.1688 19.6031 17.7017V17.3031H17.6527V8.80309H19.4659C18.912 5.17915 15.7817 2.40315 12.0029 2.40315C8.22417 2.40315 5.0938 5.17915 4.53996 8.80309H6.35314V17.3031H4.20313C2.54628 17.3031 1.20312 15.96 1.20312 14.3031V11.8031C1.20312 10.4569 2.08989 9.31769 3.31119 8.93791C3.81428 4.58367 7.51381 1.20312 12.0029 1.20312C16.492 1.20312 20.1916 4.58367 20.6946 8.93791ZM5.15317 10.0032H4.20313C3.20902 10.0032 2.40317 10.809 2.40317 11.8031V14.3031C2.40317 15.2972 3.20901 16.1031 4.20313 16.1031H5.15317V10.0032ZM18.8527 10.0032H19.8027C20.7968 10.0032 21.6027 10.809 21.6027 11.8031V14.3031C21.6027 15.2972 20.7968 16.1031 19.8027 16.1031H18.8527V10.0032Z" fill="black"/>
</svg>
