<svg width="24" height="24" viewBox="0 0 24 24" fill="none" xmlns="http://www.w3.org/2000/svg">
<path fill-rule="evenodd" clip-rule="evenodd" d="M10.9509 2.29389C11.2786 1.27704 12.7173 1.27704 13.0449 2.29389L15.0933 8.65096H21.4329C22.504 8.65096 22.9434 10.0262 22.0707 10.6472L16.9033 14.3243L18.8924 20.4316C19.2226 21.4456 18.0614 22.2892 17.1992 21.6616L11.9979 17.8764L6.79677 21.6616C5.93451 22.2892 4.77332 21.4456 5.10358 20.4316L7.09265 14.3243L1.92527 10.6472C1.05254 10.0262 1.49191 8.65096 2.56303 8.65096H8.90261L10.9509 2.29389ZM11.9979 2.95731L10.0224 9.08833C9.87598 9.54285 9.45299 9.85096 8.97545 9.85096H2.87604L7.84825 13.3892C8.24001 13.6679 8.40531 14.1689 8.25641 14.626L6.34014 20.5098L11.3507 16.8633C11.7365 16.5825 12.2594 16.5825 12.6452 16.8633L17.6558 20.5098L15.7395 14.626C15.5906 14.1689 15.7559 13.6679 16.1477 13.3892L21.1199 9.85096H15.0205C14.5429 9.85096 14.1199 9.54285 13.9735 9.08833L11.9979 2.95731Z" fill="black"/>
</svg>
