<svg width="24" height="24" viewBox="0 0 24 24" fill="none" xmlns="http://www.w3.org/2000/svg">
<path fill-rule="evenodd" clip-rule="evenodd" d="M2.20312 5.00313C2.20312 3.45674 3.45673 2.20312 5.00312 2.20312H19.0029C20.5493 2.20312 21.8029 3.45674 21.8029 5.00313V19.0032C21.8029 20.5496 20.5493 21.8032 19.0029 21.8032H5.00312C3.45673 21.8032 2.20312 20.5496 2.20312 19.0032V5.00313ZM5.00312 3.80313C4.34037 3.80313 3.80312 4.34038 3.80312 5.00313V19.0032C3.80312 19.6659 4.34037 20.2032 5.00312 20.2032H6.20292V3.80313H5.00312ZM9.20312 7.00313C9.20312 6.56128 9.56135 6.20312 10.0031 6.20312H18.0031C18.4449 6.20312 18.8031 6.56128 18.8031 7.00313V10.0032C18.8031 10.445 18.4449 10.8032 18.0031 10.8032H10.0031C9.56135 10.8032 9.20312 10.445 9.20312 10.0032V7.00313Z" fill="black"/>
</svg>
