<svg width="24" height="24" viewBox="0 0 24 24" fill="none" xmlns="http://www.w3.org/2000/svg">
<path d="M9.31452 3C6.04318 3 3.39654 5.64664 3.39654 8.91798C3.39654 10.6885 4.17937 12.2774 5.41168 13.3586C2.90476 14.7375 1.20312 17.3982 1.20312 20.47C1.20312 20.9118 1.5613 21.27 2.00313 21.27C2.44495 21.27 2.80313 20.9118 2.80313 20.47C2.80313 17.5675 4.6961 15.118 7.31608 14.2707C7.62665 14.1703 7.84505 13.8913 7.86796 13.5657C7.89086 13.2401 7.71369 12.9332 7.42025 12.7903C5.98793 12.0927 4.99659 10.6177 4.99659 8.91798C4.99659 6.5303 6.92683 4.6 9.31452 4.6C9.75635 4.6 10.1145 4.24183 10.1145 3.8C10.1145 3.35817 9.75635 3 9.31452 3Z" fill="black"/>
<path d="M15.1661 3C11.8948 3 9.24811 5.64664 9.24811 8.91798C9.24811 10.6885 10.0309 12.2774 11.2633 13.3586C8.75633 14.7375 7.05469 17.3982 7.05469 20.47C7.05469 20.9118 7.41286 21.27 7.85469 21.27C8.29651 21.27 8.65469 20.9118 8.65469 20.47C8.65469 17.5675 10.5477 15.118 13.1677 14.2707C13.4782 14.1703 13.6966 13.8913 13.7195 13.5657C13.7425 13.2401 13.5653 12.9332 13.2718 12.7903C11.8395 12.0927 10.8481 10.6177 10.8481 8.91798C10.8481 6.5303 12.7784 4.6 15.1661 4.6C17.5538 4.6 19.4841 6.5303 19.4841 8.91798C19.4841 10.6174 18.5001 12.0859 17.0591 12.7909C16.7662 12.9343 16.5896 13.2411 16.6127 13.5664C16.6359 13.8917 16.8543 14.1704 17.1646 14.2707C19.7841 15.1178 21.6775 17.5743 21.6775 20.47C21.6775 20.9118 22.0357 21.27 22.4775 21.27C22.9194 21.27 23.2775 20.9118 23.2775 20.47C23.2775 17.4045 21.5759 14.7391 19.0684 13.3587C20.3037 12.2765 21.0841 10.6907 21.0841 8.91798C21.0841 5.64664 18.4375 3 15.1661 3Z" fill="black"/>
</svg>
