<svg width="24" height="24" viewBox="0 0 24 24" fill="none" xmlns="http://www.w3.org/2000/svg">
<path d="M17.0252 2.57417L21.4254 6.97438C21.6597 7.20869 21.6597 7.58859 21.4254 7.82291L17.0252 12.2231C16.7909 12.4573 16.411 12.4573 16.1767 12.2231C15.9424 11.9888 15.9424 11.6088 16.1767 11.3745L19.5381 8.01319H9.68594C6.42746 8.01319 3.78594 10.6546 3.78594 13.9131C3.78594 17.1716 6.42746 19.8132 9.68594 19.8132H15.5011C15.8325 19.8132 16.1011 20.0818 16.1011 20.4132C16.1011 20.7446 15.8325 21.0132 15.5011 21.0132H9.68594C5.76472 21.0132 2.58594 17.8343 2.58594 13.9131C2.58594 9.99197 5.76472 6.81319 9.68594 6.81319H19.5672L16.1767 3.4227C15.9424 3.18839 15.9424 2.80849 16.1767 2.57417C16.411 2.33986 16.7909 2.33986 17.0252 2.57417Z" fill="black"/>
</svg>
