<svg width="24" height="24" viewBox="0 0 24 24" fill="none" xmlns="http://www.w3.org/2000/svg">
<path d="M9.89693 11.4296C10.2094 11.742 10.2094 12.2486 9.89693 12.561C9.58452 12.8734 9.07799 12.8734 8.76557 12.561L4.76557 8.561C4.45314 8.24858 4.45314 7.74205 4.76557 7.42963L8.76557 3.42963C9.07799 3.11721 9.58452 3.11721 9.89693 3.42963C10.2094 3.74205 10.2094 4.24858 9.89693 4.561L7.26263 7.19532H18.6644C19.1062 7.19532 19.4644 7.55349 19.4644 7.99532C19.4644 8.43714 19.1062 8.79532 18.6644 8.79532H7.26263L9.89693 11.4296Z" fill="black"/>
<path d="M14.0987 12.561C13.7862 12.2486 13.7862 11.742 14.0987 11.4296C14.4111 11.1172 14.9176 11.1172 15.23 11.4296L19.2188 15.4183C19.3703 15.5639 19.4646 15.7686 19.4646 15.9953C19.4646 16.222 19.3703 16.4267 19.2188 16.5723L15.23 20.561C14.9176 20.8734 14.4111 20.8734 14.0987 20.561C13.7862 20.2486 13.7862 19.742 14.0987 19.4296L16.733 16.7953H5.33125C4.88942 16.7953 4.53125 16.4371 4.53125 15.9953C4.53125 15.5535 4.88942 15.1953 5.33125 15.1953H16.733L14.0987 12.561Z" fill="black"/>
</svg>
