<svg width="24" height="24" viewBox="0 0 24 24" fill="none" xmlns="http://www.w3.org/2000/svg">
<path d="M13.002 2.30246C13.499 1.80543 14.3049 1.80543 14.8019 2.30246L21.8088 9.30928C22.3057 9.80631 22.3057 10.6122 21.8088 11.1093C20.9088 12.0092 18.5518 11.9664 18.5518 11.9664L15.659 15.759C15.659 15.759 16.409 18.3088 14.609 20.1087C14.112 20.6059 13.3062 20.6059 12.8091 20.1087L9.4666 16.7662C9.41797 16.8097 2.74674 22.7738 2.04221 22.0693C1.33768 21.3647 7.30177 14.6936 7.34529 14.6449L4.00244 11.3021C3.50541 10.8051 3.50563 9.99895 4.00266 9.50191C5.80258 7.70199 8.35246 8.45196 8.35246 8.45196L12.1451 5.55923C12.1451 5.55923 12.102 3.20242 13.002 2.30246Z" fill="black"/>
</svg>
