<svg width="24" height="24" viewBox="0 0 24 24" fill="none" xmlns="http://www.w3.org/2000/svg">
<path fill-rule="evenodd" clip-rule="evenodd" d="M7.50982 4.00698C7.53065 3.95145 7.55556 3.89753 7.58436 3.84568C7.70598 3.6267 7.86185 3.44801 8.05235 3.32029C8.29092 3.1602 8.55272 3.10156 8.80156 3.10156H15.4016C15.5346 3.10156 15.6687 3.11814 15.7984 3.15214C15.8869 3.17535 15.9714 3.20618 16.0508 3.24409C16.3537 3.3886 16.582 3.6532 16.6807 3.97339L17.4788 6.10156H20.0016C21.3225 6.10156 22.4016 7.18064 22.4016 8.50156V18.5016C22.4016 19.8225 21.3225 20.9016 20.0016 20.9016H4.00156C2.68064 20.9016 1.60156 19.8225 1.60156 18.5016V8.50156C1.60156 7.18064 2.68064 6.10156 4.00156 6.10156H6.72436L7.50982 4.00698ZM8.72077 4.31689C8.71236 4.3225 8.67804 4.34798 8.63342 4.42833L7.75062 6.78246C7.63353 7.0947 7.33503 7.30156 7.00156 7.30156H4.00156C3.34339 7.30156 2.80156 7.84338 2.80156 8.50156V18.5016C2.80156 19.1598 3.34339 19.7016 4.00156 19.7016H20.0016C20.6598 19.7016 21.2016 19.1598 21.2016 18.5016V8.50156C21.2016 7.84339 20.6598 7.30156 20.0016 7.30156H17.2016C16.8681 7.30156 16.5696 7.0947 16.4525 6.78246L15.5525 4.38245C15.5457 4.36423 15.5395 4.34577 15.5341 4.32711C15.5249 4.32274 15.5117 4.31753 15.4939 4.31288C15.4674 4.30592 15.4358 4.30156 15.4016 4.30156H8.80156C8.74344 4.30156 8.72583 4.31347 8.72077 4.31689Z" fill="black"/>
<path fill-rule="evenodd" clip-rule="evenodd" d="M10.3984 6.6C10.3984 6.26863 10.667 6 10.9984 6H12.9984C13.3298 6 13.5984 6.26863 13.5984 6.6C13.5984 6.93137 13.3298 7.2 12.9984 7.2H10.9984C10.667 7.2 10.3984 6.93137 10.3984 6.6Z" fill="black"/>
<path fill-rule="evenodd" clip-rule="evenodd" d="M12 16.9016C13.8225 16.9016 15.3 15.4241 15.3 13.6016C15.3 11.7791 13.8225 10.3016 12 10.3016C10.1775 10.3016 8.7 11.7791 8.7 13.6016C8.7 15.4241 10.1775 16.9016 12 16.9016ZM12 18.1016C14.4853 18.1016 16.5 16.0869 16.5 13.6016C16.5 11.1163 14.4853 9.10156 12 9.10156C9.51472 9.10156 7.5 11.1163 7.5 13.6016C7.5 16.0869 9.51472 18.1016 12 18.1016Z" fill="black"/>
</svg>
