<svg width="24" height="24" viewBox="0 0 24 24" fill="none" xmlns="http://www.w3.org/2000/svg">
<path d="M2.57418 6.97439C2.33986 7.2087 2.33986 7.5886 2.57418 7.82291L6.97439 12.2231C7.2087 12.4574 7.5886 12.4574 7.82291 12.2231C8.05723 11.9888 8.05723 11.6089 7.82291 11.3746L4.46177 8.01344H14.3136C17.5721 8.01344 20.2136 10.6549 20.2136 13.9134C20.2136 17.1719 17.5721 19.8134 14.3136 19.8134H8.49845C8.16708 19.8134 7.89845 20.082 7.89845 20.4134C7.89845 20.7448 8.16708 21.0134 8.49845 21.0134H14.3136C18.2348 21.0134 21.4136 17.8346 21.4136 13.9134C21.4136 9.99222 18.2348 6.81344 14.3136 6.81344H4.43218L7.82291 3.42271C8.05723 3.18839 8.05723 2.80849 7.82291 2.57418C7.5886 2.33986 7.2087 2.33986 6.97439 2.57418L2.57418 6.97439Z" fill="black"/>
</svg>
