<svg width="24" height="24" viewBox="0 0 24 24" fill="none" xmlns="http://www.w3.org/2000/svg">
<path d="M14.8725 4.83572C15.3925 2.91572 17.3625 1.77572 19.2825 2.28572C21.2025 2.80572 22.3425 4.77569 21.8325 6.69569L18.1825 20.3857C17.9525 21.2457 17.1725 21.8457 16.2825 21.8457H5.6625C3.6725 21.8457 2.0625 20.2357 2.0625 18.2457C2.0625 16.2557 3.6725 14.6457 5.6625 14.6457H12.0725C12.1725 14.6457 12.2525 14.5857 12.2825 14.4857L14.8725 4.83572Z" fill="black"/>
<path d="M2.92969 6.78564L5.10969 3.51562L7.29299 6.77562H6.12969C5.98969 7.10563 5.96969 7.41563 6.00969 7.65563C6.04969 7.88563 6.19969 8.11564 6.50969 8.53563L6.55969 8.60563C6.56826 8.61717 6.57698 8.6289 6.58583 8.64079C6.84515 8.9894 7.21463 9.48608 7.35969 10.0856C7.53969 10.8256 7.49969 11.6656 6.89969 12.4656C6.60969 12.8456 6.06969 12.9256 5.67969 12.6356C5.29969 12.3456 5.21969 11.8056 5.50969 11.4156C5.72969 11.1256 5.75969 10.8556 5.66969 10.5056C5.59969 10.2556 5.42969 10.0156 5.10969 9.58564L5.08969 9.56563C4.81969 9.20563 4.40969 8.65562 4.28969 7.97563C4.21969 7.59562 4.22969 7.18564 4.30969 6.78564H2.92969Z" fill="black"/>
<path d="M7.31024 6.77344L7.30358 6.78344L7.29688 6.77344H7.31024Z" fill="black"/>
<path d="M7.3125 6.77562L9.48584 3.51562L11.6759 6.76563H10.5059C10.3659 7.09563 10.3459 7.40563 10.3859 7.64563C10.4259 7.87563 10.5759 8.10563 10.8859 8.52563L10.9359 8.59562C10.9445 8.60716 10.9532 8.6189 10.962 8.63078C11.2213 8.9794 11.5908 9.47608 11.7359 10.0756C11.9159 10.8156 11.8759 11.6556 11.2759 12.4556C10.9859 12.8356 10.4459 12.9156 10.0559 12.6256C9.67584 12.3356 9.59584 11.7956 9.88584 11.4056C10.1059 11.1156 10.1359 10.8456 10.0459 10.4956C9.97584 10.2456 9.80584 10.0056 9.48584 9.57563L9.46584 9.55562C9.19584 9.19562 8.78584 8.64562 8.66584 7.96562C8.59584 7.58562 8.60584 7.17563 8.68584 6.77562H7.3125Z" fill="black"/>
</svg>
