<svg width="24" height="24" viewBox="0 0 24 24" fill="none" xmlns="http://www.w3.org/2000/svg">
<path fill-rule="evenodd" clip-rule="evenodd" d="M12.177 2.24247C12.0646 2.18631 11.9322 2.18631 11.8198 2.24247L3.81979 6.23697C3.68415 6.3047 3.59844 6.44332 3.59844 6.59497V8.85101C3.59844 12.3325 4.33743 14.9471 5.70935 16.985C7.08279 19.025 9.12985 20.5456 11.8502 21.7681C11.9443 21.8104 12.0525 21.8099 12.144 21.7683C14.8473 20.5409 16.9012 18.8774 18.2824 16.7583C19.6633 14.6397 20.3984 12.0251 20.3984 8.85101V6.59497C20.3984 6.44332 20.3127 6.3047 20.1771 6.23697L12.177 2.24247ZM11.2838 1.16849C11.7337 0.943837 12.2631 0.943836 12.713 1.16849L20.713 5.16299C21.2556 5.4339 21.5984 5.98837 21.5984 6.59497V8.85101C21.5984 12.2158 20.8168 15.0678 19.2877 17.4138C17.759 19.7592 15.5097 21.5583 12.64 22.8613C12.2323 23.0464 11.7644 23.0454 11.3585 22.863C8.5063 21.5813 6.25039 19.9376 4.71401 17.6554C3.17612 15.3711 2.39844 12.5055 2.39844 8.85101V6.59497C2.39844 5.98837 2.74127 5.4339 3.28386 5.16299L11.2838 1.16849Z" fill="black"/>
<path d="M15.148 9.22217C15.4689 9.3047 15.6622 9.63176 15.5796 9.95269L15.1553 11.603H15.9984C16.3298 11.603 16.5984 11.8716 16.5984 12.203C16.5984 12.5344 16.3298 12.803 15.9984 12.803H14.8467L14.2939 14.9527C14.2279 15.2094 14.0013 15.3924 13.7364 15.4028C13.4715 15.4132 13.2312 15.2486 13.1453 14.9978L12.3928 12.803H11.6043L10.8518 14.9978C10.7659 15.2486 10.5256 15.4132 10.2607 15.4028C9.99586 15.3924 9.76922 15.2094 9.70321 14.9527L9.15044 12.803H7.99844C7.66707 12.803 7.39844 12.5344 7.39844 12.203C7.39844 11.8716 7.66707 11.603 7.99844 11.603H8.84187L8.41749 9.95269C8.33497 9.63176 8.52823 9.3047 8.84916 9.22217C9.1701 9.13965 9.49716 9.33291 9.57969 9.65385L10.0809 11.603H10.7472L11.431 9.60868C11.5141 9.36616 11.7422 9.20327 11.9986 9.20327C12.2549 9.20327 12.483 9.36616 12.5661 9.60868L13.2499 11.603H13.9162L14.4175 9.65385C14.5 9.33291 14.827 9.13965 15.148 9.22217Z" fill="black"/>
</svg>
