<svg width="24" height="24" viewBox="0 0 24 24" fill="none" xmlns="http://www.w3.org/2000/svg">
<path fill-rule="evenodd" clip-rule="evenodd" d="M2.73438 4.89688C2.73438 4.56551 3.00298 4.29688 3.33435 4.29688H20.1344C20.4658 4.29688 20.7344 4.56551 20.7344 4.89688C20.7344 5.22825 20.4658 5.49687 20.1344 5.49687H3.33435C3.00298 5.49687 2.73438 5.22825 2.73438 4.89688Z" fill="black"/>
<path fill-rule="evenodd" clip-rule="evenodd" d="M2.73438 11.8969C2.73438 11.5656 3.00298 11.2969 3.33435 11.2969H9.13437C9.4657 11.2969 9.73438 11.5656 9.73438 11.8969C9.73438 12.2283 9.4657 12.4969 9.13437 12.4969H3.33435C3.00298 12.4969 2.73438 12.2283 2.73438 11.8969Z" fill="black"/>
<path fill-rule="evenodd" clip-rule="evenodd" d="M2.73438 18.8969C2.73438 18.5656 3.00298 18.2969 3.33435 18.2969H9.13437C9.4657 18.2969 9.73438 18.5656 9.73438 18.8969C9.73438 19.2283 9.4657 19.4969 9.13437 19.4969H3.33435C3.00298 19.4969 2.73438 19.2283 2.73438 18.8969Z" fill="black"/>
<path fill-rule="evenodd" clip-rule="evenodd" d="M13.1176 12.2321C14.1547 11.1205 15.8661 11.1205 16.9032 12.2321L17.0015 12.3378L17.0993 12.2327C18.1364 11.1212 19.8483 11.1205 20.8854 12.2321L20.8868 12.2336C21.9361 13.3659 21.7406 15.0288 20.9288 16.1246L20.9279 16.1258C20.1475 17.1737 19.2481 18.0157 18.5493 18.5933C18.1987 18.8832 17.8955 19.1089 17.6785 19.2631C17.57 19.3403 17.4828 19.3997 17.4217 19.4404C17.3912 19.4608 17.3672 19.4765 17.3503 19.4875L17.3304 19.5003L17.3246 19.504L17.3228 19.5051L17.3219 19.5057C17.3219 19.5057 17.3217 19.5058 17.0015 18.9984C16.6905 19.5115 16.6903 19.5114 16.6903 19.5114L16.6893 19.5108L16.6874 19.5096L16.6813 19.5059L16.6605 19.493C16.6429 19.482 16.6179 19.4662 16.5862 19.4458C16.5227 19.4049 16.4323 19.3453 16.3201 19.2679C16.096 19.1133 15.7841 18.8869 15.4271 18.5961C14.7163 18.0171 13.8108 17.1702 13.0659 16.113L13.0651 16.112C12.3025 15.0247 12.0583 13.3675 13.1176 12.2321ZM17.0015 18.9984L16.6903 19.5114C16.8847 19.6292 17.1296 19.6271 17.3219 19.5057L17.0015 18.9984ZM16.9958 18.2762C17.1919 18.1364 17.4666 17.9314 17.7848 17.6684C18.437 17.1293 19.2601 16.3561 19.965 15.4098C20.5352 14.6396 20.5569 13.6439 20.0073 13.05C19.4447 12.4477 18.54 12.4479 17.9776 13.0504L17.4408 13.6274C17.3273 13.7495 17.1682 13.8188 17.0015 13.8188C16.8349 13.8188 16.6757 13.7495 16.5622 13.6274L16.0258 13.0507C15.4631 12.448 14.5576 12.4477 13.995 13.0507C13.4547 13.6298 13.4847 14.6201 14.0472 15.4224C14.7077 16.3595 15.5246 17.1279 16.1849 17.6657C16.5103 17.9307 16.7939 18.1367 16.9958 18.2762Z" fill="black"/>
</svg>
