<svg width="24" height="24" viewBox="0 0 24 24" fill="none" xmlns="http://www.w3.org/2000/svg">
<path d="M11.8503 4.85156C10.97 4.85156 10.1299 5.01357 9.35661 5.30851C8.84058 5.50532 8.26272 5.24653 8.06591 4.7305C7.86911 4.21447 8.12789 3.63661 8.64392 3.4398C9.64131 3.05942 10.7227 2.85156 11.8503 2.85156C16.8209 2.85156 20.8503 6.88099 20.8503 11.8516C20.8503 13.2835 20.5154 14.6382 19.9199 15.8407L20.3339 15.7027C20.8578 15.5281 21.4242 15.8112 21.5988 16.3352C21.7735 16.8591 21.4903 17.4254 20.9664 17.6001L17.9664 18.6001C17.6889 18.6926 17.3849 18.659 17.1343 18.5081C16.8838 18.3573 16.7118 18.1043 16.6637 17.8158L16.1637 14.8158C16.0729 14.271 16.441 13.7558 16.9857 13.665C17.5305 13.5742 18.0457 13.9422 18.1365 14.487L18.192 14.8198C18.6145 13.9189 18.8503 12.9133 18.8503 11.8516C18.8503 7.98556 15.7163 4.85156 11.8503 4.85156Z" fill="black"/>
<path d="M5.61544 9.1644L5.55336 8.79194C5.10401 9.71551 4.85208 10.7527 4.85208 11.85C4.85208 15.716 7.98609 18.85 11.8521 18.85C12.7332 18.85 13.574 18.6877 14.3479 18.3923C14.8638 18.1954 15.4418 18.454 15.6387 18.9699C15.8357 19.4859 15.5771 20.0639 15.0611 20.2608C14.063 20.6418 12.9807 20.85 11.8521 20.85C6.88152 20.85 2.85208 16.8206 2.85208 11.85C2.85208 10.4023 3.19451 9.03314 3.8026 7.82051L3.41806 7.94869C2.89412 8.12334 2.3278 7.84018 2.15315 7.31623C1.9785 6.79229 2.26166 6.22597 2.7856 6.05132L5.7856 5.05132C6.06305 4.95884 6.36709 4.99245 6.61764 5.1433C6.86819 5.29415 7.04014 5.54713 7.08822 5.83561L7.58822 8.83561C7.67902 9.38038 7.311 9.8956 6.76623 9.9864C6.22146 10.0772 5.70623 9.70917 5.61544 9.1644Z" fill="black"/>
</svg>
