<svg width="24" height="24" viewBox="0 0 24 24" fill="none" xmlns="http://www.w3.org/2000/svg">
<path fill-rule="evenodd" clip-rule="evenodd" d="M8.1 7.39844C6.9402 7.39844 6 8.33864 6 9.49844C6 10.6582 6.9402 11.5984 8.1 11.5984C9.2598 11.5984 10.2 10.6582 10.2 9.49844C10.2 8.33864 9.2598 7.39844 8.1 7.39844ZM7.2 9.49844C7.2 9.00139 7.60294 8.59844 8.1 8.59844C8.59706 8.59844 9 9.00139 9 9.49844C9 9.9955 8.59706 10.3984 8.1 10.3984C7.60294 10.3984 7.2 9.9955 7.2 9.49844Z" fill="black"/>
<path fill-rule="evenodd" clip-rule="evenodd" d="M4.6 3.39844C3.16406 3.39844 2 4.5625 2 5.99844V17.9984C2 19.4343 3.16406 20.5984 4.6 20.5984H15.6C17.0359 20.5984 18.2 19.4343 18.2 17.9984V16.1404L19.4145 17.4804C20.3974 18.5649 22.2 17.8696 22.2 16.4059V7.59094C22.2 6.12729 20.3974 5.43196 19.4145 6.51648L18.2 7.85649V5.99844C18.2 4.5625 17.0359 3.39844 15.6 3.39844H4.6ZM3.2 5.99844C3.2 5.22524 3.8268 4.59844 4.6 4.59844H15.6C16.3732 4.59844 17 5.22524 17 5.99844V17.9984C17 18.7716 16.3732 19.3984 15.6 19.3984H4.6C3.8268 19.3984 3.2 18.7716 3.2 17.9984V5.99844ZM18.2 14.3534L20.3036 16.6745C20.5493 16.9456 21 16.7718 21 16.4059V7.59094C21 7.22503 20.5493 7.0512 20.3036 7.32233L18.2 9.64342V14.3534Z" fill="black"/>
</svg>
