<svg width="24" height="24" viewBox="0 0 24 24" fill="none" xmlns="http://www.w3.org/2000/svg">
<path fill-rule="evenodd" clip-rule="evenodd" d="M10.4984 2.39844C6.02494 2.39844 2.39844 6.02494 2.39844 10.4984C2.39844 14.9719 6.02494 18.5984 10.4984 18.5984C12.5192 18.5984 14.3672 17.8584 15.7861 16.6346L20.5741 21.4227C20.8085 21.657 21.1884 21.657 21.4227 21.4227C21.657 21.1884 21.657 20.8085 21.4227 20.5741L16.6346 15.7861C17.8584 14.3672 18.5984 12.5192 18.5984 10.4984C18.5984 6.02494 14.9719 2.39844 10.4984 2.39844ZM3.59844 10.4984C3.59844 6.68768 6.68768 3.59844 10.4984 3.59844C14.3092 3.59844 17.3984 6.68768 17.3984 10.4984C17.3984 14.3092 14.3092 17.3984 10.4984 17.3984C6.68768 17.3984 3.59844 14.3092 3.59844 10.4984Z" fill="black"/>
</svg>
