<svg width="24" height="24" viewBox="0 0 24 24" fill="none" xmlns="http://www.w3.org/2000/svg">
<path d="M21.7424 2.6969C21.7037 2.60324 21.6464 2.51547 21.5705 2.43916L21.5671 2.43577C21.4225 2.29199 21.2232 2.20312 21.0032 2.20312H15.0032C14.5613 2.20312 14.2032 2.56129 14.2032 3.00312C14.2032 3.44494 14.5613 3.80313 15.0032 3.80313H19.0718L13.9375 8.93744C13.625 9.24986 13.625 9.75639 13.9375 10.0689C14.2499 10.3813 14.7564 10.3813 15.0688 10.0689L20.2032 4.93451V9.00313C20.2032 9.44495 20.5613 9.80313 21.0032 9.80313C21.445 9.80313 21.8032 9.44495 21.8032 9.00313V3.00312C21.8032 2.89464 21.7816 2.79122 21.7424 2.6969Z" fill="black"/>
<path d="M10.0688 15.0688C10.3813 14.7564 10.3813 14.2498 10.0688 13.9374C9.7564 13.625 9.24986 13.625 8.93744 13.9374L3.80312 19.0717V15.0031C3.80312 14.5613 3.44495 14.2031 3.00312 14.2031C2.56129 14.2031 2.20312 14.5613 2.20312 15.0031V21.0031C2.20312 21.1116 2.22471 21.215 2.26382 21.3093C2.30258 21.403 2.35994 21.4908 2.4358 21.5671L2.43917 21.5705C2.51548 21.6463 2.60324 21.7036 2.6969 21.7424C2.79123 21.7815 2.89465 21.8031 3.00312 21.8031H9.00313C9.44496 21.8031 9.80312 21.4449 9.80312 21.0031C9.80312 20.5613 9.44496 20.2031 9.00313 20.2031H4.93452L10.0688 15.0688Z" fill="black"/>
</svg>
