<svg width="24" height="24" viewBox="0 0 24 24" fill="none" xmlns="http://www.w3.org/2000/svg">
<path fill-rule="evenodd" clip-rule="evenodd" d="M12.0925 2.59257C12.0362 2.56499 11.9701 2.56499 11.9138 2.59257L3.91386 6.51571C3.84604 6.54897 3.80312 6.61704 3.80312 6.69151V8.90726C3.80312 12.2982 4.53572 14.8251 5.87998 16.7862C7.22622 18.7502 9.23845 20.2234 11.9369 21.4144C11.9791 21.433 12.0272 21.4322 12.0661 21.4149C14.7416 20.2217 16.7629 18.6103 18.1196 16.5659C19.4758 14.5225 20.2032 11.9934 20.2032 8.90726V6.69151C20.2032 6.61704 20.1603 6.54897 20.0925 6.51571L12.0925 2.59257ZM11.1992 1.18616C11.7054 0.937947 12.3009 0.937946 12.8071 1.18616L20.8071 5.10931C21.4175 5.40865 21.8032 6.02128 21.8032 6.69151V8.90726C21.8032 12.2431 21.0138 15.0831 19.4599 17.4244C17.9067 19.765 15.6248 21.5541 12.7274 22.8462C12.2671 23.0515 11.7392 23.0503 11.2813 22.8482C8.40706 21.5797 6.11638 19.9451 4.55285 17.6642C2.98729 15.3802 2.20312 12.5248 2.20312 8.90726V6.69151C2.20312 6.02128 2.58881 5.40865 3.19921 5.10931L11.1992 1.18616Z" fill="black"/>
<path d="M9.57474 9.60096C9.46471 9.17305 9.02862 8.91537 8.60071 9.0254C8.17281 9.13543 7.91512 9.57152 8.02515 9.99943L8.38534 11.4002H7.8C7.35817 11.4002 7 11.7583 7 12.2002C7 12.642 7.35817 13.0002 7.8 13.0002H8.79677L9.31087 14.9994C9.39888 15.3417 9.70108 15.5857 10.0542 15.5996C10.4073 15.6135 10.7278 15.394 10.8424 15.0597L11.5485 13.0002H12.0513L12.7574 15.0597C12.8721 15.394 13.1925 15.6135 13.5456 15.5996C13.8988 15.5857 14.201 15.3417 14.289 14.9994L14.8031 13.0002H15.8C16.2418 13.0002 16.6 12.642 16.6 12.2002C16.6 11.7583 16.2418 11.4002 15.8 11.4002H15.2145L15.5747 9.99943C15.6847 9.57152 15.427 9.13543 14.9991 9.0254C14.5712 8.91537 14.1351 9.17305 14.0251 9.60096L13.5625 11.4002H13.1942L12.5567 9.54074C12.4458 9.21738 12.1417 9.00019 11.7999 9.00019C11.4581 9.00019 11.154 9.21738 11.0432 9.54074L10.4056 11.4002H10.0373L9.57474 9.60096Z" fill="black"/>
</svg>
