<svg width="24" height="24" viewBox="0 0 24 24" fill="none" xmlns="http://www.w3.org/2000/svg">
<path fill-rule="evenodd" clip-rule="evenodd" d="M2.20312 10.5813C2.20312 5.16885 6.59073 0.78125 12.0032 0.78125C17.4155 0.78125 21.8032 5.16885 21.8032 10.5813C21.8032 13.9814 19.6017 17.1406 17.4249 19.3779C16.3206 20.5128 15.1849 21.4496 14.2568 22.107C13.7935 22.4352 13.3726 22.7003 13.0257 22.8872C12.853 22.9803 12.6875 23.0599 12.5371 23.1184C12.4091 23.1681 12.2113 23.2357 12.0032 23.2357C11.795 23.2357 11.5972 23.1681 11.4692 23.1184C11.3188 23.0599 11.1533 22.9803 10.9806 22.8872C10.6337 22.7003 10.2128 22.4352 9.74944 22.107C8.8214 21.4496 7.68564 20.5128 6.58136 19.3779C4.40455 17.1406 2.20312 13.9814 2.20312 10.5813ZM8.3876 10.1056C8.3876 8.10871 10.0063 6.48998 12.0032 6.48998C14 6.48998 15.6187 8.10871 15.6187 10.1056C15.6187 12.1024 14 13.7211 12.0032 13.7211C10.0063 13.7211 8.3876 12.1024 8.3876 10.1056Z" fill="black"/>
</svg>
