<svg width="24" height="24" viewBox="0 0 24 24" fill="none" xmlns="http://www.w3.org/2000/svg">
<path fill-rule="evenodd" clip-rule="evenodd" d="M3 5.00313C3 4.5613 3.35817 4.20312 3.8 4.20312H20.2C20.6418 4.20312 21 4.5613 21 5.00313C21 5.44496 20.6418 5.80312 20.2 5.80312H3.8C3.35817 5.80312 3 5.44496 3 5.00313Z" fill="black"/>
<path fill-rule="evenodd" clip-rule="evenodd" d="M3 12.0031C3 11.5612 3.35817 11.2031 3.8 11.2031H20.2C20.6418 11.2031 21 11.5612 21 12.0031C21 12.4449 20.6418 12.8031 20.2 12.8031H3.8C3.35817 12.8031 3 12.4449 3 12.0031Z" fill="black"/>
<path fill-rule="evenodd" clip-rule="evenodd" d="M3 19.0031C3 18.5612 3.35817 18.2031 3.8 18.2031H20.2C20.6418 18.2031 21 18.5612 21 19.0031C21 19.4449 20.6418 19.8031 20.2 19.8031H3.8C3.35817 19.8031 3 19.4449 3 19.0031Z" fill="black"/>
</svg>
