<svg width="24" height="24" viewBox="0 0 24 24" fill="none" xmlns="http://www.w3.org/2000/svg">
<path fill-rule="evenodd" clip-rule="evenodd" d="M4.80868 2.20312C4.06633 2.20312 3.40013 2.65885 3.13107 3.35072L0.877082 9.1467C0.736698 9.50769 0.698538 9.95392 0.882215 10.3842C1.08212 10.8525 1.6283 11.9226 2.69971 12.4689V20.0032C2.69971 20.9973 3.50559 21.8032 4.49971 21.8032H19.4997C20.4938 21.8032 21.2997 20.9973 21.2997 20.0032V12.4688C22.371 11.9225 22.9171 10.8525 23.117 10.3842C23.3007 9.95392 23.2625 9.50769 23.1221 9.1467L20.8681 3.35072C20.5991 2.65885 19.9329 2.20312 19.1905 2.20312H4.80868ZM19.6997 12.7987C18.5286 12.7391 17.7439 12.0859 17.2496 11.444C16.7311 12.1174 15.893 12.8032 14.6246 12.8032C13.3562 12.8032 12.5181 12.1174 11.9996 11.444C11.4811 12.1174 10.643 12.8032 9.37461 12.8032C8.10618 12.8032 7.26815 12.1174 6.74961 11.444C6.25532 12.0859 5.47071 12.7391 4.29971 12.7987V20.0032C4.29971 20.1136 4.38925 20.2032 4.49971 20.2032H8.69971V17.5032C8.69971 15.6806 10.1772 14.2032 11.9997 14.2032C13.8222 14.2032 15.2997 15.6806 15.2997 17.5032V20.2032H19.4997C19.6102 20.2032 19.6997 20.1136 19.6997 20.0032V12.7987ZM4.62228 3.93063C4.65217 3.85378 4.7262 3.80313 4.80868 3.80313H19.1905C19.273 3.80313 19.347 3.85378 19.3769 3.93063L21.6309 9.72661C21.6384 9.74579 21.6406 9.75928 21.6412 9.76606C21.3844 10.3627 20.8357 11.2032 19.8746 11.2032C18.9098 11.2032 18.3606 10.3564 18.1048 9.75852C17.9185 9.32309 17.5019 9.20423 17.2496 9.20424C16.9973 9.20424 16.5807 9.32309 16.3944 9.75852C16.1386 10.3564 15.5894 11.2032 14.6246 11.2032C13.6598 11.2032 13.1106 10.3564 12.8548 9.75852C12.6685 9.32309 12.2519 9.20423 11.9996 9.20424C11.7473 9.20424 11.3307 9.32309 11.1444 9.75852C10.8886 10.3564 10.3394 11.2032 9.37461 11.2032C8.40983 11.2032 7.86057 10.3564 7.6048 9.75852C7.41852 9.32309 7.00187 9.20423 6.74961 9.20424C6.49735 9.20424 6.08071 9.32309 5.89442 9.75852C5.63865 10.3564 5.0894 11.2032 4.12461 11.2032C3.16353 11.2032 2.61482 10.3627 2.35803 9.76606C2.35862 9.75929 2.36083 9.74579 2.36829 9.72661L4.62228 3.93063ZM13.6997 17.5032V20.2032H10.2997V17.5032C10.2997 16.5643 11.0608 15.8032 11.9997 15.8032C12.9386 15.8032 13.6997 16.5643 13.6997 17.5032Z" fill="black"/>
</svg>
