<svg width="24" height="24" viewBox="0 0 24 24" fill="none" xmlns="http://www.w3.org/2000/svg">
<path fill-rule="evenodd" clip-rule="evenodd" d="M3.46172 2.41964C2.99134 2.3145 2.52478 2.61059 2.41964 3.08098C2.3145 3.55136 2.6106 4.01792 3.08098 4.12306L8.23014 5.27395C9.06952 5.46358 9.81648 5.9283 10.3685 6.60983L11.844 9.06863C12.2744 9.78811 13.0095 10.2701 13.8436 10.3624L13.8449 10.3625L18.1946 10.8534L18.1975 10.8537C18.6987 10.9086 19.1216 11.3062 19.207 11.8545L19.8469 16.0055C19.8956 16.321 19.6543 16.5804 19.3767 16.5804H13.8703C13.4693 14.7102 11.8069 13.308 9.81689 13.308C7.8268 13.308 6.16424 14.7104 5.76346 16.5808H3.27143C2.78944 16.5808 2.3987 16.9715 2.3987 17.4535C2.3987 17.9355 2.78944 18.3262 3.27143 18.3262H5.76346C6.16424 20.1966 7.8268 21.5989 9.81689 21.5989C11.8071 21.5989 13.4698 20.1964 13.8704 18.3259H19.3767C20.7555 18.3259 21.779 17.0811 21.5719 15.7391L20.9318 11.5866C20.731 10.294 19.7091 9.26418 18.3892 9.11886L18.3875 9.11869L14.1273 8.63788C14.2874 8.38388 14.5324 8.05106 14.8777 7.71817C15.5891 7.03232 16.7432 6.32622 18.5441 6.32622C19.0261 6.32622 19.4169 5.9355 19.4169 5.45351C19.4169 4.97149 19.0261 4.58076 18.5441 4.58076C16.2254 4.58076 14.6522 5.51107 13.6662 6.46158C13.335 6.78088 13.072 7.10022 12.8685 7.38372L11.8352 5.66172C11.8162 5.62999 11.7951 5.5995 11.7722 5.57045C10.9722 4.55572 9.86525 3.85364 8.61358 3.57115L3.46172 2.41964ZM7.41689 17.4535C7.41689 18.779 8.4914 19.8535 9.81689 19.8535C11.1424 19.8535 12.2169 18.779 12.2169 17.4535C12.2169 16.128 11.1424 15.0535 9.81689 15.0535C8.4914 15.0535 7.41689 16.128 7.41689 17.4535Z" fill="black"/>
</svg>
