<svg width="24" height="24" viewBox="0 0 24 24" fill="none" xmlns="http://www.w3.org/2000/svg">
<path fill-rule="evenodd" clip-rule="evenodd" d="M18.991 1.9625C18.991 1.6025 19.281 1.3125 19.641 1.3125C20.001 1.3125 20.291 1.6025 20.291 1.9625V9.6025C20.291 12.9825 17.551 15.7126 14.181 15.7126H9.82094C6.44094 15.7126 3.71094 12.9725 3.71094 9.6025V1.9625C3.71094 1.6025 4.00094 1.3125 4.36094 1.3125C4.72094 1.3125 5.02094 1.6025 5.02094 1.9625V7.3825C5.75094 6.8325 6.22094 6.1025 6.52094 5.4225C6.72094 4.9625 6.84094 4.5325 6.91094 4.2225C6.95094 4.0725 6.97094 3.9425 6.98094 3.8625C6.99094 3.8225 6.99094 3.7725 6.99094 3.7725V1.9625C6.99094 1.6025 7.28094 1.3125 7.64094 1.3125H16.371C16.731 1.3125 17.021 1.6025 17.021 1.9625V3.7825C17.031 3.8025 17.031 3.8325 17.031 3.8725C17.0368 3.91899 17.0493 3.97898 17.0647 4.05248C17.0758 4.10547 17.0884 4.16547 17.101 4.2325C17.171 4.5425 17.291 4.9725 17.491 5.4325C17.791 6.1125 18.261 6.8425 18.991 7.3925V1.9625ZM17.411 9.6625C17.701 9.6025 17.991 9.5025 18.281 9.4025H18.291L19.141 9.0925L17.861 8.4625L17.021 8.6625C16.711 8.73249 16.391 8.79249 16.071 8.85248L15.951 8.8725C14.691 9.0825 13.391 9.2125 12.011 9.2125C10.631 9.2125 9.28094 9.0925 8.00094 8.8725L7.85094 8.8425C7.54094 8.7925 7.22094 8.7325 6.91094 8.6625L6.07094 8.4525L4.88094 9.1425L5.82094 9.4625L6.33094 9.6125C8.11094 10.0426 10.091 10.2726 12.011 10.2726C13.931 10.2726 15.721 10.0526 17.411 9.6625Z" fill="black"/>
<path d="M7.03897 20.3523C6.64173 20.6253 6.09841 20.5245 5.82542 20.1273C5.55244 19.7301 5.65317 19.1867 6.05041 18.9137C7.74247 17.7509 9.79268 17.0703 11.9993 17.0703C14.2058 17.0703 16.256 17.7509 17.9481 18.9137C18.3453 19.1867 18.4461 19.7301 18.1731 20.1273C17.9001 20.5245 17.3568 20.6253 16.9595 20.3523C15.5491 19.383 13.8417 18.8158 11.9993 18.8158C10.1568 18.8158 8.44943 19.383 7.03897 20.3523Z" fill="black"/>
<path d="M8.0266 22.347C8.31612 22.7324 8.86322 22.8101 9.24857 22.5206C10.0141 21.9453 10.9646 21.6048 11.997 21.6048C13.0295 21.6048 13.9799 21.9453 14.7455 22.5206C15.1309 22.8101 15.678 22.7324 15.9675 22.347C16.257 21.9617 16.1793 21.4146 15.794 21.1251C14.7365 20.3305 13.4205 19.8594 11.997 19.8594C10.5736 19.8594 9.25765 20.3305 8.20012 21.1251C7.81477 21.4146 7.73708 21.9617 8.0266 22.347Z" fill="black"/>
</svg>
