<svg width="24" height="24" viewBox="0 0 24 24" fill="none" xmlns="http://www.w3.org/2000/svg">
<path d="M23.0617 18.98L17.2617 4.53C17.1017 4.08 16.6317 4 16.1417 4H8.00172C7.52172 4 7.05172 4.07 6.88172 4.53L1.08172 18.98C0.76171 19.87 1.42172 20.8 2.36172 20.8H21.7817C22.7217 20.8 23.3817 19.87 23.0617 18.98ZM12.9417 18.59C12.9417 18.99 12.5517 19.31 12.0717 19.31C11.5917 19.31 11.2017 18.99 11.2017 18.59V14.97C11.2017 14.57 11.5917 14.25 12.0717 14.25C12.5517 14.25 12.9417 14.57 12.9417 14.97V18.59ZM12.9417 11.85C12.9417 12.33 12.5517 12.72 12.0717 12.72C11.5917 12.72 11.2017 12.33 11.2017 11.85V9.67C11.2017 9.19 11.5917 8.8 12.0717 8.8C12.5517 8.8 12.9417 9.19 12.9417 9.67V11.85ZM12.9417 6.52C12.9417 6.93 12.5517 7.26 12.0717 7.26C11.5917 7.26 11.2017 6.93 11.2017 6.52V5.59C11.2017 5.18 11.5917 4.85 12.0717 4.85C12.5517 4.85 12.9417 5.18 12.9417 5.59V6.52Z" fill="black"/>
</svg>
