<svg width="24" height="24" viewBox="0 0 24 24" fill="none" xmlns="http://www.w3.org/2000/svg">
<path d="M3.49844 3.89844C3.16707 3.89844 2.89844 4.16707 2.89844 4.49844C2.89844 4.82981 3.16707 5.09844 3.49844 5.09844H17.4984C17.8298 5.09844 18.0984 4.82981 18.0984 4.49844C18.0984 4.16707 17.8298 3.89844 17.4984 3.89844H3.49844Z" fill="black"/>
<path d="M3.49844 9.89844C3.16707 9.89844 2.89844 10.167 2.89844 10.4984C2.89844 10.8298 3.16707 11.0984 3.49844 11.0984H17.4984C17.8298 11.0984 18.0984 10.8298 18.0984 10.4984C18.0984 10.167 17.8298 9.89844 17.4984 9.89844H3.49844Z" fill="black"/>
<path d="M2.89844 16.4984C2.89844 16.167 3.16707 15.8984 3.49844 15.8984H9.49844C9.82981 15.8984 10.0984 16.167 10.0984 16.4984C10.0984 16.8298 9.82981 17.0984 9.49844 17.0984H3.49844C3.16707 17.0984 2.89844 16.8298 2.89844 16.4984Z" fill="black"/>
<path d="M20.981 13.855C21.1779 13.5885 21.1215 13.2128 20.855 13.0159C20.5885 12.819 20.2128 12.8754 20.0159 13.1419L16.0307 18.5353L13.9543 16.1084C13.7389 15.8566 13.3601 15.8271 13.1084 16.0425C12.8566 16.258 12.8271 16.6367 13.0425 16.8885L15.6092 19.8885C15.728 20.0274 15.9038 20.1046 16.0865 20.0981C16.2692 20.0915 16.439 20.0021 16.5476 19.855L20.981 13.855Z" fill="black"/>
</svg>
