<svg width="24" height="24" viewBox="0 0 24 24" fill="none" xmlns="http://www.w3.org/2000/svg">
<g clip-path="url(#clip0_3903_43690)">
<mask id="mask0_3903_43690" style="mask-type:luminance" maskUnits="userSpaceOnUse" x="0" y="0" width="24" height="24">
<path d="M24 0H0V24H24V0Z" fill="white"/>
</mask>
<g mask="url(#mask0_3903_43690)">
<mask id="mask1_3903_43690" style="mask-type:luminance" maskUnits="userSpaceOnUse" x="0" y="0" width="24" height="24">
<path d="M24 0H0V24H24V0Z" fill="white"/>
</mask>
<g mask="url(#mask1_3903_43690)">
<mask id="mask2_3903_43690" style="mask-type:luminance" maskUnits="userSpaceOnUse" x="0" y="0" width="24" height="24">
<path d="M24 0H0V24H24V0Z" fill="white"/>
</mask>
<g mask="url(#mask2_3903_43690)">
<mask id="mask3_3903_43690" style="mask-type:luminance" maskUnits="userSpaceOnUse" x="0" y="0" width="24" height="24">
<path d="M24 0H0V24H24V0Z" fill="white"/>
</mask>
<g mask="url(#mask3_3903_43690)">
<mask id="mask4_3903_43690" style="mask-type:luminance" maskUnits="userSpaceOnUse" x="0" y="0" width="24" height="24">
<path d="M24 0H0V24H24V0Z" fill="white"/>
</mask>
<g mask="url(#mask4_3903_43690)">
<path fill-rule="evenodd" clip-rule="evenodd" d="M12.0016 0.601562C12.5263 0.601562 12.9516 1.02689 12.9516 1.55156V2.54846C17.4398 2.99408 21.0091 6.56336 21.4547 11.0516H22.4516C22.9763 11.0516 23.4016 11.4769 23.4016 12.0016C23.4016 12.5262 22.9763 12.9516 22.4516 12.9516H21.4547C21.0091 17.4398 17.4398 21.0091 12.9516 21.4547V22.4516C12.9516 22.9762 12.5263 23.4016 12.0016 23.4016C11.4769 23.4016 11.0516 22.9762 11.0516 22.4516V21.4547C6.56336 21.0091 2.99408 17.4398 2.54846 12.9516H1.55156C1.02689 12.9516 0.601562 12.5262 0.601562 12.0016C0.601562 11.4769 1.02689 11.0516 1.55156 11.0516H2.54846C2.99408 6.56336 6.56336 2.99408 11.0516 2.54846V1.55156C11.0516 1.02689 11.4769 0.601562 12.0016 0.601562ZM19.5428 11.0516H18.6516C18.1269 11.0516 17.7016 11.4769 17.7016 12.0016C17.7016 12.5262 18.1269 12.9516 18.6516 12.9516H19.5428C19.1141 16.3894 16.3894 19.1141 12.9516 19.5428V18.6516C12.9516 18.1269 12.5263 17.7016 12.0016 17.7016C11.4769 17.7016 11.0516 18.1269 11.0516 18.6516V19.5428C7.61379 19.1141 4.88904 16.3894 4.46036 12.9516H5.35156C5.87623 12.9516 6.30156 12.5262 6.30156 12.0016C6.30156 11.4769 5.87623 11.0516 5.35156 11.0516H4.46036C4.88904 7.61377 7.61379 4.88904 11.0516 4.46035V5.35156C11.0516 5.87623 11.4769 6.30156 12.0016 6.30156C12.5263 6.30156 12.9516 5.87623 12.9516 5.35156V4.46035C16.3894 4.88904 19.1141 7.61377 19.5428 11.0516Z" fill="black"/>
</g>
</g>
</g>
</g>
</g>
</g>
<defs>
<clipPath id="clip0_3903_43690">
<rect width="24" height="24" fill="white"/>
</clipPath>
</defs>
</svg>
