<svg width="24" height="24" viewBox="0 0 24 24" fill="none" xmlns="http://www.w3.org/2000/svg">
<path d="M11.4717 2.4052C11.7748 2.13577 12.2315 2.13577 12.5346 2.4052L21.5346 10.4052C21.7054 10.557 21.8031 10.7746 21.8031 11.0032V21.0032C21.8031 21.445 21.445 21.8031 21.0032 21.8031H15.0032C14.5613 21.8031 14.2032 21.445 14.2032 21.0032V16.0032C14.2032 14.745 13.2613 13.8032 12.0032 13.8032C10.745 13.8032 9.80312 14.745 9.80312 16.0032V21.0031C9.80312 21.4449 9.44496 21.8031 9.00313 21.8031H3.00312C2.56129 21.8031 2.20312 21.445 2.20312 21.0032V11.0032C2.20312 10.7746 2.30086 10.557 2.47165 10.4052L11.4717 2.4052Z" fill="black"/>
</svg>
