<svg width="24" height="24" viewBox="0 0 24 24" fill="none" xmlns="http://www.w3.org/2000/svg">
<path d="M16.4968 11.6617C16.7483 11.2985 16.6577 10.8001 16.2944 10.5486C15.9311 10.2971 15.4328 10.3877 15.1813 10.751L11.2716 16.3984L8.94648 13.6857C8.65894 13.3503 8.1539 13.3114 7.81844 13.599C7.48298 13.8865 7.44413 14.3915 7.73167 14.727L10.7316 18.227C10.893 18.4153 11.1326 18.5181 11.3803 18.5053C11.6279 18.4925 11.8556 18.3656 11.9968 18.1617L16.4968 11.6617Z" fill="black"/>
<path fill-rule="evenodd" clip-rule="evenodd" d="M8.3 1.86719C8.74183 1.86719 9.1 2.22536 9.1 2.66719V3.20056H14.9V2.66719C14.9 2.22536 15.2582 1.86719 15.7 1.86719C16.1418 1.86719 16.5 2.22536 16.5 2.66719V3.20056H21.2C21.6418 3.20056 22 3.55874 22 4.00056V7.99879V8.00056V8.00232V19.2005C22 20.7469 20.7464 22.0005 19.2001 22.0005H4.80005C3.25365 22.0005 2.00005 20.7469 2.00005 19.2005L2 4.00056C2 3.55874 2.35817 3.20056 2.8 3.20056H7.5V2.66719C7.5 2.22536 7.85817 1.86719 8.3 1.86719ZM7.5 5.33386V4.80056H3.6V7.20056H20.4V4.80056H16.5V5.33386C16.5 5.77568 16.1418 6.13386 15.7 6.13386C15.2582 6.13386 14.9 5.77568 14.9 5.33386V4.80056H9.1V5.33386C9.1 5.77568 8.74183 6.13386 8.3 6.13386C7.85817 6.13386 7.5 5.77568 7.5 5.33386ZM3.60005 19.2005L3.6 8.80056H20.4L20.4001 19.2005C20.4001 19.8632 19.8628 20.4005 19.2001 20.4005H4.80005C4.13731 20.4005 3.60005 19.8632 3.60005 19.2005Z" fill="black"/>
</svg>
