<svg width="24" height="24" viewBox="0 0 24 24" fill="none" xmlns="http://www.w3.org/2000/svg">
<path fill-rule="evenodd" clip-rule="evenodd" d="M8.80313 2.66719C8.80313 2.22536 8.44495 1.86719 8.00313 1.86719C7.5613 1.86719 7.20312 2.22536 7.20312 2.66719V3.2005H3.00312C2.56129 3.2005 2.20312 3.55867 2.20312 4.0005V19.3338C2.20312 20.8802 3.45673 22.1338 5.00312 22.1338H19.0031C20.5495 22.1338 21.8031 20.8802 21.8031 19.3338V8.00226V8.00049V7.99873V4.0005C21.8031 3.55867 21.4449 3.2005 21.0031 3.2005H16.8031V2.66719C16.8031 2.22536 16.4449 1.86719 16.0031 1.86719C15.5613 1.86719 15.2031 2.22536 15.2031 2.66719V3.2005H8.80313V2.66719ZM3.80312 4.8005H7.20312V5.33386C7.20312 5.77568 7.5613 6.13386 8.00313 6.13386C8.44495 6.13386 8.80313 5.77568 8.80313 5.33386V4.8005H15.2031V5.33386C15.2031 5.77568 15.5613 6.13386 16.0031 6.13386C16.4449 6.13386 16.8031 5.77568 16.8031 5.33386V4.8005H20.2031V7.20049L3.80312 7.2005V4.8005ZM16.1606 11.4559C16.4121 11.0926 16.3215 10.5943 15.9582 10.3428C15.595 10.0913 15.0966 10.1819 14.8451 10.5452L10.9354 16.1925L8.6103 13.4799C8.32276 13.1444 7.81775 13.1056 7.48225 13.3931C7.14679 13.6807 7.10794 14.1857 7.39548 14.5212L10.3955 18.0212C10.5568 18.2094 10.7964 18.3122 11.0441 18.2995C11.2917 18.2867 11.5195 18.1598 11.6606 17.9559L16.1606 11.4559Z" fill="black"/>
</svg>
