<svg width="24" height="24" viewBox="0 0 24 24" fill="none" xmlns="http://www.w3.org/2000/svg">
<path fill-rule="evenodd" clip-rule="evenodd" d="M8.39844 9.89688C8.39844 7.90865 10.0102 6.29688 11.9984 6.29688C13.9866 6.29688 15.5984 7.90865 15.5984 9.89688C15.5984 11.885 13.9866 13.4968 11.9984 13.4968C10.0102 13.4968 8.39844 11.885 8.39844 9.89688ZM11.9984 7.49687C10.6729 7.49687 9.59844 8.57139 9.59844 9.89688C9.59844 11.2223 10.6729 12.2968 11.9984 12.2968C13.3239 12.2968 14.3984 11.2223 14.3984 9.89688C14.3984 8.57139 13.3239 7.49687 11.9984 7.49687Z" fill="black"/>
<path fill-rule="evenodd" clip-rule="evenodd" d="M11.4638 20.7969H5.59854C5.26717 20.7969 4.99854 21.0655 4.99854 21.3969C4.99854 21.7283 5.26717 21.9969 5.59854 21.9969H18.3985C18.7299 21.9969 18.9985 21.7283 18.9985 21.3969C18.9985 21.0655 18.7299 20.7969 18.3985 20.7969H12.533C12.5684 20.7782 12.607 20.7576 12.6486 20.7351C12.8895 20.6051 13.2312 20.4132 13.6401 20.1625C14.4567 19.6619 15.548 18.9232 16.6422 17.9716C18.8082 16.0876 21.0984 13.269 21.0984 9.7301C21.0984 4.78526 17.0129 0.796875 11.9984 0.796875C6.98391 0.796875 2.89844 4.78526 2.89844 9.7301C2.89844 13.269 5.18861 16.0876 7.35468 17.9716C8.44883 18.9232 9.54013 19.6619 10.3567 20.1625C10.7656 20.4132 11.1073 20.6051 11.3482 20.7351C11.3898 20.7576 11.4284 20.7782 11.4638 20.7969ZM11.9984 1.99687C7.62413 1.99687 4.09844 5.47031 4.09844 9.7301C4.09844 12.7388 6.05828 15.2536 8.1422 17.0661C9.17306 17.9627 10.2067 18.663 10.9839 19.1394C11.3718 19.3772 11.6942 19.5582 11.9181 19.6791L11.9984 19.7221L12.0787 19.6791C12.3026 19.5582 12.625 19.3772 13.013 19.1394C13.7901 18.663 14.8238 17.9627 15.8546 17.0661C17.9386 15.2536 19.8984 12.7388 19.8984 9.7301C19.8984 5.47031 16.3727 1.99687 11.9984 1.99687Z" fill="black"/>
</svg>
