<svg width="24" height="24" viewBox="0 0 24 24" fill="none" xmlns="http://www.w3.org/2000/svg">
<path d="M19.2031 9.8H20.8031V13.1072V16.4143C20.8031 16.4096 20.8031 16.4048 20.8031 16.4V13.1V9.8C20.8031 4.93989 16.8632 1 12.0031 1C7.14303 1 3.20312 4.93989 3.20312 9.8H4.80318C4.80318 5.82355 8.02672 2.6 12.0031 2.6C15.9796 2.6 19.2031 5.82355 19.2031 9.8Z" fill="black"/>
<path fill-rule="evenodd" clip-rule="evenodd" d="M4 8.70312C2.34315 8.70312 1 10.0463 1 11.7032V14.5032C1 16.1601 2.34315 17.5032 4 17.5032H6.5V8.70312H4Z" fill="black"/>
<path fill-rule="evenodd" clip-rule="evenodd" d="M20 17.5032C21.6569 17.5032 23 16.1601 23 14.5032V11.7032C23 10.0463 21.6569 8.70312 20 8.70312H17.5V17.5032H20Z" fill="black"/>
<path d="M16.3984 21.8984C18.8285 21.8984 20.7984 19.9285 20.7984 17.4984V16.3984H19.1984V17.4984C19.1984 19.0448 17.9448 20.2984 16.3984 20.2984V21.8984Z" fill="black"/>
<path d="M13.1016 21.3531C13.1016 20.4418 13.8403 19.7031 14.7516 19.7031H15.8516C16.7629 19.7031 17.5016 20.4418 17.5016 21.3531C17.5016 22.2644 16.7629 23.0031 15.8516 23.0031H14.7516C13.8403 23.0031 13.1016 22.2644 13.1016 21.3531Z" fill="black"/>
</svg>
