<svg width="24" height="24" viewBox="0 0 24 24" fill="none" xmlns="http://www.w3.org/2000/svg">
<path fill-rule="evenodd" clip-rule="evenodd" d="M8.00317 7.0032V3.20312H2.00313C1.5613 3.20312 1.20312 3.5613 1.20312 4.00313V9.06314C1.20312 9.43203 1.45537 9.75311 1.81379 9.84039C2.51711 10.0118 3.20312 10.8322 3.20312 12.0032C3.20312 13.1741 2.51711 13.9945 1.81379 14.1659C1.45537 14.2532 1.20312 14.5742 1.20312 14.9431V20.0032C1.20312 20.445 1.5613 20.8031 2.00313 20.8031H8.00317V17.0032H9.35318V20.8031H22.0032C22.445 20.8031 22.8031 20.445 22.8031 20.0032V14.9431C22.8031 14.5742 22.5509 14.2532 22.1925 14.1659C21.4892 13.9945 20.8031 13.1741 20.8031 12.0032C20.8031 10.8322 21.4892 10.0118 22.1925 9.84039C22.5509 9.75311 22.8031 9.43203 22.8031 9.06314V4.00313C22.8031 3.5613 22.445 3.20312 22.0032 3.20312H9.35318V7.0032H8.00317ZM17.2356 9.90217C17.548 9.58977 17.548 9.08323 17.2356 8.77081C16.9232 8.45841 16.4166 8.45841 16.1042 8.77081L11.3366 13.5385L9.23555 11.4375C8.92314 11.1251 8.4166 11.1251 8.10419 11.4375C7.79177 11.7499 7.79177 12.2565 8.10419 12.5689L10.7709 15.2355C11.0833 15.548 11.5898 15.548 11.9023 15.2355L17.2356 9.90217Z" fill="black"/>
</svg>
