<svg width="24" height="24" viewBox="0 0 24 24" fill="none" xmlns="http://www.w3.org/2000/svg">
<path fill-rule="evenodd" clip-rule="evenodd" d="M5.00312 3.20312C4.009 3.20312 3.20312 4.00901 3.20312 5.00313V9.00313C3.20312 9.99724 4.009 10.8032 5.00312 10.8032H9.00313C9.99724 10.8032 10.8031 9.99724 10.8031 9.00313V5.00313C10.8031 4.00901 9.99724 3.20312 9.00313 3.20312H5.00312ZM4.80317 5.00313C4.80317 4.89266 4.89266 4.80314 5.00312 4.80314H9.00313C9.11357 4.80314 9.20312 4.89266 9.20312 5.00313V9.00313C9.20312 9.11357 9.11357 9.20312 9.00313 9.20312H5.00312C4.89266 9.20312 4.80317 9.11357 4.80317 9.00313V5.00313Z" fill="black"/>
<path fill-rule="evenodd" clip-rule="evenodd" d="M15.0031 3.20312C14.009 3.20312 13.2031 4.00901 13.2031 5.00313V9.00313C13.2031 9.99724 14.009 10.8032 15.0031 10.8032H19.0031C19.9972 10.8032 20.8031 9.99724 20.8031 9.00313V5.00313C20.8031 4.00901 19.9972 3.20312 19.0031 3.20312H15.0031ZM14.8031 5.00313C14.8031 4.89266 14.8926 4.80314 15.0031 4.80314H19.0031C19.1136 4.80314 19.2031 4.89266 19.2031 5.00313V9.00313C19.2031 9.11357 19.1136 9.20312 19.0031 9.20312H15.0031C14.8926 9.20312 14.8031 9.11357 14.8031 9.00313V5.00313Z" fill="black"/>
<path fill-rule="evenodd" clip-rule="evenodd" d="M3.20312 15.0031C3.20312 14.009 4.009 13.2031 5.00312 13.2031H9.00313C9.99724 13.2031 10.8031 14.009 10.8031 15.0031V19.0031C10.8031 19.9972 9.99724 20.8031 9.00313 20.8031H5.00312C4.009 20.8031 3.20312 19.9972 3.20312 19.0031V15.0031ZM5.00312 14.8031C4.89266 14.8031 4.80317 14.8926 4.80317 15.0031V19.0031C4.80317 19.1136 4.89266 19.2031 5.00312 19.2031H9.00313C9.11357 19.2031 9.20312 19.1136 9.20312 19.0031V15.0031C9.20312 14.8926 9.11357 14.8031 9.00313 14.8031H5.00312Z" fill="black"/>
<path fill-rule="evenodd" clip-rule="evenodd" d="M15.0031 13.2031C14.009 13.2031 13.2031 14.009 13.2031 15.0031V19.0031C13.2031 19.9972 14.009 20.8031 15.0031 20.8031H19.0031C19.9972 20.8031 20.8031 19.9972 20.8031 19.0031V15.0031C20.8031 14.009 19.9972 13.2031 19.0031 13.2031H15.0031ZM14.8031 15.0031C14.8031 14.8926 14.8926 14.8031 15.0031 14.8031H19.0031C19.1136 14.8031 19.2031 14.8926 19.2031 15.0031V19.0031C19.2031 19.1136 19.1136 19.2031 19.0031 19.2031H15.0031C14.8926 19.2031 14.8031 19.1136 14.8031 19.0031V15.0031Z" fill="black"/>
</svg>
