<svg width="24" height="24" viewBox="0 0 24 24" fill="none" xmlns="http://www.w3.org/2000/svg">
<path fill-rule="evenodd" clip-rule="evenodd" d="M21.8031 3.50312C21.8031 3.20809 21.6408 2.937 21.3806 2.79778C21.1205 2.65857 20.8049 2.67383 20.5594 2.83748L14.7609 6.70312H7.00313C4.35217 6.70312 2.20312 8.85216 2.20312 11.5031C2.20312 13.8814 3.93301 15.8558 6.20312 16.2367V17.5031C6.20312 19.6017 7.9045 21.3031 10.0031 21.3031C12.1018 21.3031 13.8032 19.6017 13.8032 17.5031V16.3031H14.7609L20.5594 20.1687C20.8049 20.3323 21.1205 20.3476 21.3806 20.2084C21.6408 20.0692 21.8031 19.7981 21.8031 19.5031V3.50312ZM12.2032 16.3031H7.80313V17.5031C7.80313 18.7181 8.78815 19.7031 10.0031 19.7031C11.2182 19.7031 12.2032 18.7181 12.2032 17.5031V16.3031Z" fill="black"/>
</svg>
