<svg width="24" height="24" viewBox="0 0 24 24" fill="none" xmlns="http://www.w3.org/2000/svg">
<path fill-rule="evenodd" clip-rule="evenodd" d="M3.39844 5.00313C3.39844 4.00901 4.20433 3.20312 5.19844 3.20312H8.19844C9.19256 3.20312 9.99844 4.00901 9.99844 5.00313V19.0032C9.99844 19.9973 9.19256 20.8032 8.19844 20.8032H5.19844C4.20433 20.8032 3.39844 19.9973 3.39844 19.0032V5.00313ZM5.19844 4.80314C5.08799 4.80314 4.99844 4.89266 4.99844 5.00313V19.0032C4.99844 19.1137 5.08799 19.2032 5.19844 19.2032H8.19844C8.3089 19.2032 8.39844 19.1137 8.39844 19.0032V5.00313C8.39844 4.89266 8.3089 4.80314 8.19844 4.80314H5.19844Z" fill="black"/>
<path fill-rule="evenodd" clip-rule="evenodd" d="M14 5.00313C14 4.00901 14.8059 3.20312 15.8 3.20312H18.8C19.7941 3.20312 20.6 4.00901 20.6 5.00313V19.0032C20.6 19.9973 19.7941 20.8032 18.8 20.8032H15.8C14.8059 20.8032 14 19.9973 14 19.0032V5.00313ZM15.8 4.80314C15.6895 4.80314 15.6 4.89266 15.6 5.00313V19.0032C15.6 19.1137 15.6895 19.2032 15.8 19.2032H18.8C18.9105 19.2032 19 19.1137 19 19.0032V5.00313C19 4.89266 18.9105 4.80314 18.8 4.80314H15.8Z" fill="black"/>
</svg>
