<svg width="24" height="24" viewBox="0 0 24 24" fill="none" xmlns="http://www.w3.org/2000/svg">
<path fill-rule="evenodd" clip-rule="evenodd" d="M7.74531 7.58594C8.18713 7.58594 8.54531 7.94411 8.54531 8.38594V21.3861C8.54531 21.8279 8.18713 22.1861 7.74531 22.1861C7.30348 22.1861 6.94531 21.8279 6.94531 21.3861V8.38594C6.94531 7.94411 7.30348 7.58594 7.74531 7.58594Z" fill="black"/>
<path fill-rule="evenodd" clip-rule="evenodd" d="M17.8547 0C18.2965 0 18.6547 0.358172 18.6547 0.8V13.8C18.6547 14.2418 18.2965 14.6 17.8547 14.6C17.4128 14.6 17.0547 14.2418 17.0547 13.8V0.8C17.0547 0.358172 17.4128 0 17.8547 0Z" fill="black"/>
<path fill-rule="evenodd" clip-rule="evenodd" d="M12.2343 9.23431C12.5467 8.9219 13.0533 8.9219 13.3657 9.23431L17.8 13.6686L22.2343 9.23431C22.5467 8.9219 23.0533 8.9219 23.3657 9.23431C23.6781 9.54673 23.6781 10.0533 23.3657 10.3657L18.3657 15.3657C18.0533 15.6781 17.5467 15.6781 17.2343 15.3657L12.2343 10.3657C11.9219 10.0533 11.9219 9.54673 12.2343 9.23431Z" fill="black"/>
<path fill-rule="evenodd" clip-rule="evenodd" d="M2.23431 17.2343C2.54673 16.9219 3.05327 16.9219 3.36569 17.2343L7.8 21.6686L12.2343 17.2343C12.5467 16.9219 13.0533 16.9219 13.3657 17.2343C13.6781 17.5467 13.6781 18.0533 13.3657 18.3657L8.36569 23.3657C8.05327 23.6781 7.54673 23.6781 7.23431 23.3657L2.23431 18.3657C1.9219 18.0533 1.9219 17.5467 2.23431 17.2343Z" fill="black"/>
</svg>
