<svg width="24" height="24" viewBox="0 0 24 24" fill="none" xmlns="http://www.w3.org/2000/svg">
<path fill-rule="evenodd" clip-rule="evenodd" d="M2.73438 4.89688C2.73438 4.56551 3.00298 4.29688 3.33435 4.29688H20.1344C20.4658 4.29688 20.7344 4.56551 20.7344 4.89688C20.7344 5.22825 20.4658 5.49687 20.1344 5.49687H3.33435C3.00298 5.49687 2.73438 5.22825 2.73438 4.89688Z" fill="black"/>
<path fill-rule="evenodd" clip-rule="evenodd" d="M2.73438 11.8969C2.73438 11.5656 3.00298 11.2969 3.33435 11.2969H9.13437C9.4657 11.2969 9.73438 11.5656 9.73438 11.8969C9.73438 12.2283 9.4657 12.4969 9.13437 12.4969H3.33435C3.00298 12.4969 2.73438 12.2283 2.73438 11.8969Z" fill="black"/>
<path fill-rule="evenodd" clip-rule="evenodd" d="M2.73438 18.8969C2.73438 18.5656 3.00298 18.2969 3.33435 18.2969H9.13437C9.4657 18.2969 9.73438 18.5656 9.73438 18.8969C9.73438 19.2283 9.4657 19.4969 9.13437 19.4969H3.33435C3.00298 19.4969 2.73438 19.2283 2.73438 18.8969Z" fill="black"/>
<path fill-rule="evenodd" clip-rule="evenodd" d="M16.929 10.1821C16.6866 9.61637 15.8846 9.61639 15.6422 10.1821L14.5208 12.7988L11.9157 13.1062C11.3405 13.1741 11.0919 13.8713 11.4944 14.2878L13.3934 16.2529L12.9494 18.8799C12.8478 19.4804 13.5085 19.9151 14.0198 19.5843L16.2856 18.1186L18.5514 19.5843C19.0627 19.9151 19.7233 19.4804 19.6218 18.8799L19.1777 16.2529L21.0768 14.2878C21.4793 13.8713 21.2307 13.1741 20.6554 13.1062L18.0504 12.7988L16.929 10.1821ZM15.5098 13.5372L16.2856 11.7271L17.0613 13.5372C17.16 13.7674 17.374 13.9273 17.6227 13.9566L19.5125 14.1797L18.1392 15.6007C17.9847 15.7606 17.9153 15.9845 17.9524 16.2038L18.2492 17.9597L16.6658 16.9354C16.4344 16.7857 16.1368 16.7857 15.9054 16.9354L14.3219 17.9597L14.6188 16.2038C14.6558 15.9845 14.5865 15.7606 14.4319 15.6007L13.0586 14.1797L14.9485 13.9566C15.1972 13.9273 15.4112 13.7674 15.5098 13.5372Z" fill="black"/>
</svg>
