<svg width="24" height="24" viewBox="0 0 24 24" fill="none" xmlns="http://www.w3.org/2000/svg">
<path fill-rule="evenodd" clip-rule="evenodd" d="M1.20312 3.6C1.20312 2.16406 2.36718 1 3.80312 1H17.8032C19.2391 1 20.4032 2.16406 20.4032 3.6V9.6C20.4032 9.93137 20.1345 10.2 19.8032 10.2C19.4718 10.2 19.2032 9.93137 19.2032 9.6V3.6C19.2032 2.8268 18.5764 2.2 17.8032 2.2H3.80312C3.02992 2.2 2.40318 2.8268 2.40318 3.6V19.6C2.40318 20.3732 3.02992 21 3.80312 21H9.80312C10.1345 21 10.4032 21.2686 10.4032 21.6C10.4032 21.9314 10.1345 22.2 9.80312 22.2H3.80312C2.36718 22.2 1.20312 21.0359 1.20312 19.6V3.6Z" fill="black"/>
<path fill-rule="evenodd" clip-rule="evenodd" d="M6.20312 6.6C6.20312 6.26863 6.47175 6 6.80312 6H14.8032C15.1345 6 15.4032 6.26863 15.4032 6.6C15.4032 6.93137 15.1345 7.2 14.8032 7.2H6.80312C6.47175 7.2 6.20312 6.93137 6.20312 6.6Z" fill="black"/>
<path fill-rule="evenodd" clip-rule="evenodd" d="M6.20312 10.6C6.20312 10.2686 6.47175 10 6.80312 10H14.8032C15.1345 10 15.4032 10.2686 15.4032 10.6C15.4032 10.9314 15.1345 11.2 14.8032 11.2H6.80312C6.47175 11.2 6.20312 10.9314 6.20312 10.6Z" fill="black"/>
<path fill-rule="evenodd" clip-rule="evenodd" d="M6.20312 14.6C6.20312 14.2686 6.47175 14 6.80312 14H11.8032C12.1345 14 12.4032 14.2686 12.4032 14.6C12.4032 14.9314 12.1345 15.2 11.8032 15.2H6.80312C6.47175 15.2 6.20312 14.9314 6.20312 14.6Z" fill="black"/>
<path fill-rule="evenodd" clip-rule="evenodd" d="M19.1566 13.1757C19.3909 12.9414 19.7708 12.9414 20.0051 13.1757L22.2273 15.398C22.4616 15.6323 22.4616 16.0122 22.2273 16.2465L16.4495 22.0243C16.337 22.1368 16.1844 22.2 16.0253 22.2H13.8031C13.4717 22.2 13.2031 21.9314 13.2031 21.6V19.3778C13.2031 19.2186 13.2663 19.066 13.3788 18.9535L19.1566 13.1757ZM14.4031 19.6263V21H15.7767L20.9545 15.8222L19.5808 14.4485L14.4031 19.6263Z" fill="black"/>
</svg>
