<svg width="24" height="24" viewBox="0 0 24 24" fill="none" xmlns="http://www.w3.org/2000/svg">
<path d="M12.5691 4.08444C12.8815 3.77202 12.8815 3.26549 12.5691 2.95307C12.2567 2.64064 11.7501 2.64064 11.4377 2.95307L4.36668 10.0241C1.71111 12.6797 1.71111 16.9852 4.36668 19.6408C7.02224 22.2963 11.3277 22.2963 13.9833 19.6408L19.1564 14.4677C19.1594 14.4647 19.1624 14.4616 19.1654 14.4585L21.0542 12.5697C22.9287 10.6952 22.9287 7.65601 21.0542 5.78149C19.1797 3.90697 16.1405 3.90697 14.266 5.78149L8.85571 11.1918L8.85132 11.1962L7.19499 12.8526C6.10152 13.946 6.10152 15.7189 7.19499 16.8123C8.28846 17.9058 10.0613 17.9058 11.1548 16.8123L16.1045 11.8626C16.4169 11.5502 16.4169 11.0437 16.1045 10.7312C15.7921 10.4188 15.2856 10.4188 14.9731 10.7312L10.0234 15.681C9.55479 16.1496 8.79499 16.1496 8.32636 15.681C7.85773 15.2123 7.85773 14.4526 8.32636 13.9839L13.6296 8.68062L13.6341 8.67615L15.3974 6.91286C16.647 5.66318 18.6732 5.66318 19.9228 6.91286C21.1725 8.16254 21.1725 10.1887 19.9228 11.4383L12.8518 18.5094C12.8489 18.5123 12.846 18.5152 12.8432 18.5181C10.8118 20.5401 7.52586 20.5372 5.49805 18.5094C3.46732 16.4787 3.46732 13.1862 5.49805 11.1555L12.5691 4.08444Z" fill="black"/>
</svg>
