<svg width="24" height="24" viewBox="0 0 24 24" fill="none" xmlns="http://www.w3.org/2000/svg">
<path fill-rule="evenodd" clip-rule="evenodd" d="M16.6561 3.33341C17.1738 3.85796 17.5556 4.53493 17.5556 5.33333V10.8923C17.5556 11.6906 17.1734 12.3672 16.6557 12.8911C16.1422 13.4109 15.4488 13.833 14.671 14.166C13.1119 14.8334 11.0276 15.2219 8.77778 15.2219C6.52795 15.2219 4.44368 14.8334 2.88451 14.166C2.57422 14.0331 2.27736 13.8861 2 13.7244V16.4479C2 16.5691 2.05312 16.7684 2.32257 17.0411C2.59624 17.3181 3.04189 17.6135 3.67161 17.883C4.92744 18.4207 6.73206 18.7776 8.77778 18.7776C9.13474 18.7776 9.48533 18.7667 9.82777 18.7457C10.379 18.712 10.8533 19.1315 10.887 19.6827C10.9208 20.234 10.5013 20.7082 9.95001 20.742C9.56666 20.7654 9.17531 20.7776 8.77778 20.7776C6.52795 20.7776 4.44368 20.3891 2.88451 19.7216C2.10672 19.3887 1.41335 18.9665 0.899861 18.4468C0.382158 17.9228 0 17.2462 0 16.4479L2.53065e-06 5.32977C0.00113548 4.53292 0.382559 3.85718 0.899469 3.33341C1.41291 2.81317 2.10628 2.39053 2.88414 2.05717C4.44341 1.38891 6.52782 1 8.77778 1C11.0277 1 13.1121 1.38891 14.6714 2.05717C15.4493 2.39053 16.1427 2.81317 16.6561 3.33341ZM2 5.33333C2 5.21126 2.05349 5.01133 2.32296 4.73829C2.59668 4.46094 3.04233 4.1653 3.67198 3.89546C4.92771 3.35729 6.73219 3 8.77778 3C10.8234 3 12.6278 3.35729 13.8836 3.89546C14.5132 4.1653 14.9589 4.46094 15.2326 4.73829C15.5021 5.01133 15.5556 5.21126 15.5556 5.33333C15.5556 5.45541 15.5021 5.65533 15.2326 5.92838C14.9589 6.20573 14.5132 6.50136 13.8836 6.77121C12.6278 7.30938 10.8234 7.66667 8.77778 7.66667C6.73219 7.66667 4.92771 7.30938 3.67198 6.77121C3.04233 6.50136 2.59668 6.20573 2.32296 5.92838C2.05349 5.65533 2 5.45541 2 5.33333ZM2 10.8923C2 11.0134 2.05312 11.2128 2.32257 11.4855C2.59624 11.7625 3.04189 12.0578 3.67161 12.3274C4.92744 12.865 6.73206 13.2219 8.77778 13.2219C10.8235 13.2219 12.6281 12.865 13.8839 12.3274C14.5137 12.0578 14.9593 11.7625 15.233 11.4855C15.5024 11.2128 15.5556 11.0134 15.5556 10.8923V8.16761C15.2783 8.32945 14.9816 8.47657 14.6714 8.6095C13.1121 9.27776 11.0277 9.66667 8.77778 9.66667C6.52782 9.66667 4.44341 9.27776 2.88414 8.6095C2.57398 8.47657 2.27725 8.32945 2 8.16761V10.8923Z" fill="black"/>
<path d="M18.0731 14.6288C18.4637 14.2383 19.0968 14.2383 19.4873 14.6288L22.8207 17.9621C23.2112 18.3527 23.2112 18.9858 22.8207 19.3763L19.4873 22.7097C19.0968 23.1002 18.4637 23.1002 18.0731 22.7097C17.6826 22.3192 17.6826 21.686 18.0731 21.2955L19.6987 19.6699H14.3359C13.7836 19.6699 13.3359 19.2222 13.3359 18.6699C13.3359 18.1176 13.7836 17.6699 14.3359 17.6699H19.7L18.0731 16.043C17.6826 15.6525 17.6826 15.0193 18.0731 14.6288Z" fill="black"/>
</svg>
