<svg width="24" height="24" viewBox="0 0 24 24" fill="none" xmlns="http://www.w3.org/2000/svg">
<path fill-rule="evenodd" clip-rule="evenodd" d="M3.20312 19.4016C3.20312 18.9598 3.56129 18.6016 4.00312 18.6016H20.0032C20.445 18.6016 20.8031 18.9598 20.8031 19.4016C20.8031 19.8434 20.445 20.2016 20.0032 20.2016H4.00312C3.56129 20.2016 3.20312 19.8434 3.20312 19.4016Z" fill="black"/>
<path fill-rule="evenodd" clip-rule="evenodd" d="M20.5081 3.78109C20.8508 4.05997 20.9025 4.56386 20.6236 4.90655L10.6717 16.9066C10.5261 17.0856 10.3103 17.1929 10.0797 17.2011C9.84904 17.2093 9.62614 17.1176 9.46815 16.9494L3.42007 10.5761C3.11755 10.2541 3.13334 9.7478 3.45536 9.44528C3.77737 9.14276 4.28365 9.15855 4.58618 9.48056L10.008 15.1873L19.3827 3.89662C19.6615 3.55393 20.1654 3.50221 20.5081 3.78109Z" fill="black"/>
</svg>
