<svg width="24" height="24" viewBox="0 0 24 24" fill="none" xmlns="http://www.w3.org/2000/svg">
<path fill-rule="evenodd" clip-rule="evenodd" d="M9.81946 16.1411C6.325 16.1411 3.49219 13.3082 3.49219 9.81378V2.17742C3.49219 1.69543 3.88292 1.30469 4.36491 1.30469C4.84691 1.30469 5.23764 1.69543 5.23764 2.17742V7.12479C5.73345 6.65195 6.07526 6.09056 6.31161 5.55319C6.50767 5.10744 6.62367 4.69353 6.69014 4.39226C6.72321 4.24242 6.74353 4.12264 6.75529 4.04353C6.75974 4.01355 6.76295 3.98952 6.76514 3.97204V2.17785C6.76514 1.69585 7.15587 1.30512 7.63787 1.30512C8.11986 1.30512 8.5106 1.69585 8.5106 2.17785V4.02087C8.5106 4.04736 8.50939 4.07383 8.50698 4.10021L8.50684 4.10176L8.50666 4.10363L8.50621 4.10833L8.50488 4.12151L8.50028 4.16259C8.49628 4.19632 8.49032 4.24262 8.48179 4.30006C8.46474 4.4148 8.43732 4.57474 8.3946 4.76834C8.30951 5.15398 8.16183 5.6819 7.90936 6.25592C7.61169 6.93271 7.15776 7.69525 6.47366 8.3582C8.23757 8.73502 10.1133 8.94118 12.0574 8.94118C13.9855 8.94118 15.8061 8.72887 17.5288 8.35761C16.845 7.6948 16.3913 6.93251 16.0937 6.25592C15.8412 5.6819 15.6935 5.15398 15.6084 4.76834C15.5657 4.57474 15.5383 4.4148 15.5212 4.30006C15.5127 4.24262 15.5067 4.19633 15.5027 4.16259L15.4982 4.12151L15.4968 4.10833L15.4964 4.10363L15.4962 4.10176L15.496 4.10021C15.4936 4.07383 15.4924 4.04736 15.4924 4.02087V2.17785C15.4924 1.69585 15.8832 1.30512 16.3652 1.30512C16.8472 1.30512 17.2379 1.69585 17.2379 2.17785V3.97204C17.2401 3.98952 17.2433 4.01355 17.2477 4.04353C17.2595 4.12264 17.2798 4.24242 17.3129 4.39226C17.3794 4.69353 17.4954 5.10744 17.6914 5.55319C17.9277 6.09039 18.2693 6.65158 18.7649 7.12432V2.17742C18.7649 1.69543 19.1556 1.30469 19.6376 1.30469C20.1196 1.30469 20.5103 1.69543 20.5103 2.17742V8.69423C20.5106 8.70288 20.5108 8.7115 20.5108 8.72012V8.73593L20.5103 8.75289V9.81378C20.5103 13.3082 17.6775 16.1411 14.1831 16.1411H9.81946ZM18.7646 9.86246C18.7385 12.3705 16.6973 14.3956 14.1831 14.3956H9.81946C7.30577 14.3956 5.26486 12.3714 5.23791 9.86404C7.37287 10.3942 9.66942 10.6866 12.0574 10.6866C14.4441 10.6866 16.6758 10.3816 18.7646 9.86246Z" fill="black"/>
<path d="M5.82542 20.1273C6.09841 20.5245 6.64173 20.6253 7.03897 20.3523C8.44943 19.383 10.1568 18.8158 11.9992 18.8158C13.8417 18.8158 15.549 19.383 16.9595 20.3523C17.3567 20.6253 17.9001 20.5245 18.173 20.1273C18.446 19.7301 18.3453 19.1867 17.9481 18.9138C16.256 17.751 14.2058 17.0703 11.9992 17.0703C9.79268 17.0703 7.74247 17.751 6.0504 18.9138C5.65316 19.1867 5.55244 19.7301 5.82542 20.1273Z" fill="black"/>
<path d="M9.25638 22.5206C8.87103 22.8101 8.32393 22.7324 8.03441 22.3471C7.74489 21.9617 7.82257 21.4146 8.20793 21.1251C9.26545 20.3306 10.5814 19.8594 12.0049 19.8594C13.4284 19.8594 14.7443 20.3306 15.8019 21.1251C16.1872 21.4146 16.2649 21.9617 15.9754 22.3471C15.6859 22.7324 15.1388 22.8101 14.7534 22.5206C13.9878 21.9454 13.0374 21.6048 12.0049 21.6048C10.9724 21.6048 10.022 21.9454 9.25638 22.5206Z" fill="black"/>
</svg>
