<svg width="24" height="24" viewBox="0 0 24 24" fill="none" xmlns="http://www.w3.org/2000/svg">
<path d="M12.8953 2.99844C12.8953 2.66707 12.6267 2.39844 12.2953 2.39844C11.9639 2.39844 11.6953 2.66707 11.6953 2.99844V5.99844C11.6953 6.32981 11.9639 6.59844 12.2953 6.59844C12.6267 6.59844 12.8953 6.32981 12.8953 5.99844V2.99844Z" fill="black"/>
<path d="M18.5441 5.08198C18.3097 4.84767 17.9298 4.84767 17.6955 5.08198L15.5742 7.2033C15.3399 7.43762 15.3399 7.81751 15.5742 8.05183C15.8085 8.28614 16.1884 8.28614 16.4227 8.05183L18.5441 5.93051C18.7784 5.69619 18.7784 5.3163 18.5441 5.08198Z" fill="black"/>
<path d="M6.86802 5.07418C6.6337 4.83986 6.2538 4.83986 6.01949 5.07418C5.78517 5.30849 5.78517 5.68839 6.01949 5.9227L8.14081 8.04402C8.37512 8.27834 8.75502 8.27834 8.98934 8.04402C9.22365 7.80971 9.22365 7.42981 8.98934 7.1955L6.86802 5.07418Z" fill="black"/>
<path d="M21.3953 11.3969C21.3953 11.7283 21.1267 11.9969 20.7953 11.9969H17.7953C17.4639 11.9969 17.1953 11.7283 17.1953 11.3969C17.1953 11.0656 17.4639 10.7969 17.7953 10.7969H20.7953C21.1267 10.7969 21.3953 11.0656 21.3953 11.3969Z" fill="black"/>
<path d="M3.99844 10.8516C3.66707 10.8516 3.39844 11.1202 3.39844 11.4516C3.39844 11.7829 3.66707 12.0516 3.99844 12.0516H6.99844C7.32981 12.0516 7.59844 11.7829 7.59844 11.4516C7.59844 11.1202 7.32981 10.8516 6.99844 10.8516H3.99844Z" fill="black"/>
<path d="M8.92271 15.6728C9.15702 15.4385 9.15702 15.0586 8.92271 14.8242C8.68839 14.5899 8.30849 14.5899 8.07418 14.8242L2.07418 20.8242C1.83986 21.0586 1.83986 21.4385 2.07418 21.6728C2.30849 21.9071 2.68839 21.9071 2.92271 21.6728L8.92271 15.6728Z" fill="black"/>
<path d="M17.9299 17.7706C18.1642 18.0049 18.5441 18.0049 18.7784 17.7706C19.0127 17.5363 19.0127 17.1564 18.7784 16.9221L16.6571 14.8007C16.4228 14.5664 16.0429 14.5664 15.8085 14.8007C15.5742 15.0351 15.5742 15.415 15.8085 15.6493L17.9299 17.7706Z" fill="black"/>
<path d="M12.2953 20.45C11.9639 20.45 11.6953 20.1814 11.6953 19.85V16.85C11.6953 16.5186 11.9639 16.25 12.2953 16.25C12.6267 16.25 12.8953 16.5186 12.8953 16.85V19.85C12.8953 20.1814 12.6267 20.45 12.2953 20.45Z" fill="black"/>
</svg>
