<svg width="24" height="24" viewBox="0 0 24 24" fill="none" xmlns="http://www.w3.org/2000/svg">
<path fill-rule="evenodd" clip-rule="evenodd" d="M18.3299 22.2021C18.0763 22.3433 17.7662 22.3361 17.5194 22.1833L17.3918 22.1044C17.3099 22.0539 17.1921 21.9813 17.0489 21.8934C16.7623 21.7174 16.3743 21.4801 15.9682 21.2347C15.3014 20.8316 14.6364 20.4377 14.2686 20.2368C13.5389 20.3859 12.7806 20.4644 12.0031 20.4644C6.39319 20.4644 1.70312 16.3392 1.70312 11.0838C1.70312 5.82835 6.39319 1.70312 12.0031 1.70312C17.6131 1.70312 22.3031 5.82835 22.3031 11.0838C22.3031 13.9374 20.9071 16.4731 18.7406 18.1805V21.5032C18.7406 21.7934 18.5835 22.0609 18.3299 22.2021ZM16.1496 8.97451C16.4099 8.61753 16.3315 8.11709 15.9745 7.85678C15.6175 7.59646 15.1171 7.67485 14.8567 8.03185L11.0214 13.2918L8.55715 10.9261C8.23842 10.6201 7.73201 10.6305 7.42601 10.9492C7.12003 11.2679 7.13038 11.7743 7.44911 12.0803L10.5741 15.0803C10.7407 15.2403 10.9683 15.3204 11.1984 15.3001C11.4284 15.2798 11.6385 15.1611 11.7746 14.9745L16.1496 8.97451Z" fill="black"/>
</svg>
