<svg width="24" height="24" viewBox="0 0 24 24" fill="none" xmlns="http://www.w3.org/2000/svg">
<path fill-rule="evenodd" clip-rule="evenodd" d="M1.89237 8.68099C3.33929 8.66061 4.78298 8.8787 6.16695 9.32962C8.52238 10.097 9.75885 11.0948 10.8369 11.9647C10.9484 12.0546 11.0581 12.1432 11.1673 12.23L10.1712 13.4821C10.0583 13.3923 9.94677 13.3025 9.83541 13.2127C8.78133 12.3633 7.74149 11.5254 5.67129 10.8509C4.45461 10.4545 3.18599 10.2629 1.9149 10.2808C1.86042 10.2816 1.81632 10.3223 1.81388 10.3808C1.7593 11.6873 1.91256 12.9969 2.27015 14.2581C2.74229 15.9234 3.55938 17.4644 4.66506 18.7773C5.38401 19.5912 6.48333 20.1251 7.56239 20.2053C7.57796 20.2064 7.59348 20.2081 7.60895 20.2101L7.60996 20.2103L7.6259 20.2122C7.64056 20.2139 7.66436 20.2165 7.69634 20.2196C7.76039 20.2257 7.85668 20.2335 7.97765 20.2391C8.22101 20.2504 8.55677 20.2525 8.92659 20.2171C9.70031 20.1429 10.4653 19.9191 10.9318 19.4431L10.9374 19.4374L10.9442 19.4305L10.9719 19.4021C10.9968 19.3764 11.0342 19.3373 11.081 19.2869C11.1749 19.1858 11.3057 19.0404 11.4511 18.8659C11.7487 18.5088 12.0783 18.064 12.2876 17.6453L13.7187 18.3609C13.428 18.9422 13.0076 19.4974 12.6802 19.8902C12.5131 20.0908 12.3627 20.2579 12.2534 20.3756C12.1987 20.4345 12.154 20.4814 12.1223 20.5142L12.0848 20.5527L12.074 20.5636L12.0707 20.5669L12.0696 20.568C12.0696 20.568 12.0688 20.5688 11.5032 20.0031L12.074 20.5636C11.2067 21.4485 9.97209 21.7242 9.07928 21.8098C8.61583 21.8542 8.20167 21.8512 7.90345 21.8374C7.75362 21.8304 7.6312 21.8206 7.54423 21.8123C7.5007 21.8082 7.46592 21.8044 7.44088 21.8014L7.42345 21.7993C5.94153 21.6837 4.45611 20.9624 3.45837 19.8281L3.44751 19.8155C2.19152 18.3262 1.26528 16.5796 0.730825 14.6945C0.326708 13.2692 0.153631 11.7897 0.215276 10.314C0.252983 9.41136 0.984987 8.69377 1.89237 8.68099Z" fill="black"/>
<path fill-rule="evenodd" clip-rule="evenodd" d="M4.93744 13.4374C5.24986 13.125 5.75639 13.125 6.06881 13.4374L11.5688 18.9374C11.8813 19.2498 11.8813 19.7564 11.5688 20.0688C11.2564 20.3812 10.7499 20.3812 10.4375 20.0688L4.93744 14.5688C4.62502 14.2564 4.62502 13.7498 4.93744 13.4374Z" fill="black"/>
<path fill-rule="evenodd" clip-rule="evenodd" d="M21.4363 4.02036C21.42 3.96643 21.3673 3.93297 21.3059 3.94717C19.661 4.32765 18.0888 4.99501 16.6596 5.92343C14.8831 7.07745 13.3689 8.60793 12.2203 10.4121C10.5605 13.4307 11.7147 16.763 13.7022 17.9122C14.7729 18.5282 15.984 18.8062 17.1614 18.5103C18.3216 18.2187 19.5908 17.334 20.7269 15.3456C21.644 13.4088 22.1455 11.2936 22.1968 9.14161C22.2366 7.47576 21.8758 5.47389 21.4363 4.02036ZM20.9453 2.38833C21.821 2.18577 22.7058 2.69051 22.9679 3.55728C23.4423 5.12635 23.8413 7.30144 23.7964 9.17981C23.7394 11.5656 23.1812 13.9116 22.1591 16.0594C22.1508 16.0769 22.1419 16.094 22.1323 16.1108C20.8364 18.3919 19.2444 19.6365 17.5514 20.062C15.8708 20.4844 14.2329 20.0637 12.9036 19.2986L12.9024 19.2979C10.0665 17.6591 8.78375 13.3114 10.8322 9.61599C10.8399 9.60218 10.8479 9.58861 10.8564 9.57529C12.1286 7.56985 13.8104 5.86633 15.788 4.58167C17.3731 3.55199 19.1182 2.81097 20.9453 2.38833Z" fill="black"/>
<path fill-rule="evenodd" clip-rule="evenodd" d="M19.6663 6.93488C20.032 7.18289 20.1273 7.68039 19.8793 8.04604L13.3294 17.7028C13.0814 18.0685 12.5839 18.1639 12.2182 17.9158C11.8526 17.6678 11.7572 17.1704 12.0052 16.8047L18.5552 7.14789C18.8032 6.78223 19.3007 6.68687 19.6663 6.93488Z" fill="black"/>
<path fill-rule="evenodd" clip-rule="evenodd" d="M20.4959 12.8438C20.5408 13.2834 20.2208 13.676 19.7813 13.7209L15.4046 14.1674C14.9651 14.2123 14.5724 13.8923 14.5276 13.4528C14.4827 13.0132 14.8027 12.6206 15.2422 12.5757L19.6189 12.1292C20.0584 12.0843 20.4511 12.4043 20.4959 12.8438Z" fill="black"/>
</svg>
