<svg width="24" height="24" viewBox="0 0 24 24" fill="none" xmlns="http://www.w3.org/2000/svg">
<path d="M12 3C6.20101 3 1.5 7.70101 1.5 13.5V18C1.5 18.5523 1.94772 19 2.5 19C3.05228 19 3.5 18.5523 3.5 18V13.5C3.5 8.80558 7.30558 5 12 5C16.6944 5 20.5 8.80558 20.5 13.5V18C20.5 18.5523 20.9477 19 21.5 19C22.0523 19 22.5 18.5523 22.5 18V13.5C22.5 7.70101 17.799 3 12 3Z" fill="black"/>
<path d="M4.70312 14.5C4.70312 14.2239 4.92698 14 5.20312 14H6.70312C7.53154 14 8.20312 14.6716 8.20312 15.5V19.5C8.20312 20.3284 7.53154 21 6.70312 21H5.20312C4.92698 21 4.70312 20.7761 4.70312 20.5V14.5Z" fill="black"/>
<path d="M19.2969 14.5C19.2969 14.2239 19.073 14 18.7969 14H17.2969C16.4685 14 15.7969 14.6716 15.7969 15.5V19.5C15.7969 20.3284 16.4685 21 17.2969 21H18.7969C19.073 21 19.2969 20.7761 19.2969 20.5V14.5Z" fill="black"/>
</svg>
