<svg width="24" height="24" viewBox="0 0 24 24" fill="none" xmlns="http://www.w3.org/2000/svg">
<path fill-rule="evenodd" clip-rule="evenodd" d="M15.2031 5.50313C15.2031 3.68058 16.6806 2.20312 18.5031 2.20312C20.3256 2.20312 21.8031 3.68058 21.8031 5.50313C21.8031 7.32565 20.3256 8.80311 18.5031 8.80311C17.5842 8.80311 16.7531 8.42756 16.1547 7.82158L8.76731 11.5153C8.7909 11.6745 8.80313 11.8374 8.80313 12.0032C8.80313 12.1689 8.7909 12.3318 8.76731 12.491L16.1547 16.1847C16.7531 15.5787 17.5842 15.2032 18.5031 15.2032C20.3256 15.2032 21.8031 16.6806 21.8031 18.5032C21.8031 20.3257 20.3256 21.8031 18.5031 21.8031C16.6806 21.8031 15.2031 20.3257 15.2031 18.5032C15.2031 18.1774 15.2503 17.8626 15.3383 17.5653L8.1517 13.972C7.55017 14.7799 6.58776 15.3032 5.50312 15.3032C3.68058 15.3032 2.20312 13.8257 2.20312 12.0032C2.20312 10.1806 3.68058 8.70312 5.50312 8.70312C6.58774 8.70312 7.55016 9.22639 8.15168 10.0343L15.3383 6.44096C15.2503 6.14369 15.2031 5.82891 15.2031 5.50313Z" fill="black"/>
</svg>
