<svg width="24" height="24" viewBox="0 0 24 24" fill="none" xmlns="http://www.w3.org/2000/svg">
<path fill-rule="evenodd" clip-rule="evenodd" d="M13.7682 1.97488C13.4667 1.88195 13.1102 1.85729 12.7539 1.995C12.3951 2.13366 12.1313 2.40033 11.9511 2.71581C11.941 2.73345 11.9316 2.75147 11.9228 2.76984C10.1899 6.41917 8.47258 8.73716 7.67594 9.6331H3.15656C2.71197 9.6331 2.35156 9.99352 2.35156 10.4381V21.1785C2.35156 21.623 2.71197 21.9835 3.15656 21.9835H15.8145C17.2591 21.9835 18.1761 21.659 18.8187 21.0146C20.1655 19.6641 21.039 17.4671 21.6166 15.5618C21.9362 14.5076 22.2864 13.1313 22.262 11.897C22.2496 11.2748 22.1419 10.6288 21.838 10.0641C21.5219 9.47702 21.0147 9.01932 20.2995 8.77773C20.1312 8.7209 19.9654 8.68257 19.8094 8.66301C19.7761 8.65885 19.7427 8.65676 19.7092 8.65676H15.168L16.0481 6.89178C16.0621 6.86361 16.0745 6.83465 16.0851 6.80502C16.326 6.13547 16.2626 5.41281 16.083 4.78996C15.901 4.15892 15.5785 3.55264 15.1977 3.06686C14.8323 2.60077 14.338 2.15047 13.7682 1.97488ZM3.96156 11.2431V20.3735H7.20141V11.2431H3.96156ZM8.81141 10.778C9.71717 9.78055 11.5353 7.32184 13.3429 3.5325C13.4716 3.59149 13.6884 3.75117 13.9306 4.06014C14.1914 4.39286 14.4147 4.81516 14.536 5.23605C14.6533 5.64274 14.6574 5.98151 14.5827 6.22253L13.1467 9.10255C13.0223 9.35209 13.0359 9.64824 13.1826 9.88535C13.3293 10.1224 13.5883 10.2667 13.8671 10.2667H19.6484C19.6854 10.2737 19.7314 10.2852 19.7842 10.303C20.1031 10.4107 20.2926 10.5901 20.4203 10.8272C20.56 11.0868 20.6428 11.4524 20.6523 11.9288C20.6713 12.8915 20.3896 14.0598 20.0759 15.0947C19.505 16.9776 18.7219 18.8317 17.6787 19.8777C17.4488 20.1082 17.0188 20.3735 15.8145 20.3735H8.81141V10.778Z" fill="black"/>
</svg>
