<svg width="24" height="24" viewBox="0 0 24 24" fill="none" xmlns="http://www.w3.org/2000/svg">
<path fill-rule="evenodd" clip-rule="evenodd" d="M9.09953 3.26755C9.19806 2.78856 9.60915 2.39844 10.15 2.39844H13.8527C14.3838 2.39844 14.7986 2.77736 14.9015 3.24431C14.9047 3.25907 14.9074 3.27395 14.9095 3.28891L15.1197 4.76573C15.1671 5.09881 15.4083 5.42271 15.7846 5.63982C16.1356 5.84233 16.5089 5.88331 16.814 5.76384L18.2931 5.18474C18.3004 5.1819 18.3077 5.1792 18.3151 5.17664C18.7831 5.01412 19.311 5.17725 19.5897 5.61756L19.5981 5.63117L21.4461 8.7307C21.7446 9.21169 21.5795 9.7958 21.1996 10.098L21.1886 10.1067L19.9365 11.0555C19.6812 11.249 19.5284 11.5875 19.5284 11.9984C19.5284 12.3959 19.681 12.7327 19.925 12.9176L21.1885 13.8752C21.2005 13.8843 21.2121 13.8939 21.2234 13.9039C21.5618 14.203 21.7532 14.7567 21.4461 15.2513L19.5981 18.3507L19.5897 18.3643C19.311 18.8046 18.7831 18.9678 18.3151 18.8052C18.3077 18.8027 18.3004 18.8 18.2931 18.7971L16.8184 18.2197C16.5113 18.0995 16.1295 18.1417 15.7726 18.3457C15.4038 18.5565 15.1681 18.876 15.1204 19.2111L14.9095 20.693C14.9078 20.7051 14.9057 20.7173 14.9032 20.7293C14.8047 21.2083 14.3936 21.5984 13.8527 21.5984H10.15C9.61893 21.5984 9.2042 21.2195 9.10129 20.7526C9.09803 20.7378 9.09534 20.7229 9.09321 20.708L8.88304 19.2311C8.83564 18.8981 8.59444 18.5742 8.21815 18.3571C7.86715 18.1545 7.49386 18.1136 7.18873 18.233L5.70961 18.8121C5.70236 18.815 5.69505 18.8177 5.68769 18.8202C5.21963 18.9828 4.69175 18.8196 4.41306 18.3793L4.4047 18.3657L2.55668 15.2663C2.26817 14.8017 2.39593 14.2441 2.76392 13.9189C2.7752 13.9089 2.78686 13.8993 2.79886 13.8902L4.05082 12.9414C4.30614 12.7479 4.45889 12.4093 4.45889 11.9984C4.45889 11.5785 4.30984 11.2401 4.06491 11.0545L2.81429 10.1066C2.80229 10.0975 2.79063 10.088 2.77935 10.078C2.44094 9.77889 2.24952 9.22512 2.55669 8.7306L4.4047 5.63117L4.41306 5.61756C4.69175 5.17725 5.21963 5.01412 5.68769 5.17664C5.69505 5.1792 5.70236 5.1819 5.70961 5.18474L7.17981 5.76035C7.48724 5.88072 7.8703 5.83866 8.23953 5.63502C8.60165 5.4353 8.83438 5.12264 8.88066 4.79743L9.09321 3.30391C9.09494 3.29173 9.09705 3.2796 9.09953 3.26755ZM10.2634 3.59844L10.0687 4.9665C9.9579 5.74505 9.4332 6.34708 8.81908 6.68579C8.22213 7.01503 7.46233 7.15966 6.74232 6.87776L5.37721 6.34329L3.65239 9.23611L4.78975 10.0981C5.41803 10.5743 5.65889 11.3227 5.65889 11.9984C5.65889 12.6897 5.39878 13.4255 4.77566 13.8977L3.64759 14.7527L5.37721 17.6536L6.75124 17.1156C7.46492 16.8362 8.22116 16.9734 8.81785 17.3176C9.42388 17.6673 9.95869 18.2724 10.0711 19.0621L10.2612 20.3984H13.7394L13.9324 19.042C14.0438 18.2589 14.5653 17.6535 15.1771 17.3039C15.7751 16.962 16.5387 16.8215 17.2558 17.1023L18.6255 17.6386L20.3504 14.7458L19.2001 13.874C18.5878 13.4099 18.3284 12.6754 18.3284 11.9984C18.3284 11.3071 18.5886 10.5714 19.2117 10.0991L20.3504 9.23611L18.6255 6.34329L17.2515 6.88125C16.5378 7.16067 15.7816 7.02349 15.1849 6.67922C14.5789 6.32956 14.0441 5.72451 13.9317 4.9348L13.7415 3.59844H10.2634Z" fill="black"/>
<path fill-rule="evenodd" clip-rule="evenodd" d="M8.35156 12.0035C8.35156 9.99089 9.98309 8.35938 11.9957 8.35938C14.0083 8.35938 15.6398 9.99089 15.6398 12.0035C15.6398 14.0161 14.0083 15.6476 11.9957 15.6476C9.98309 15.6476 8.35156 14.0161 8.35156 12.0035ZM11.9957 9.55937C10.6458 9.55937 9.55156 10.6537 9.55156 12.0035C9.55156 13.3534 10.6458 14.4476 11.9957 14.4476C13.3455 14.4476 14.4398 13.3534 14.4398 12.0035C14.4398 10.6537 13.3455 9.55937 11.9957 9.55937Z" fill="black"/>
</svg>
