<svg width="24" height="24" viewBox="0 0 24 24" fill="none" xmlns="http://www.w3.org/2000/svg">
<path fill-rule="evenodd" clip-rule="evenodd" d="M17 3.6H7C5.12223 3.6 3.6 5.12223 3.6 7V17C3.6 18.8778 5.12223 20.4 7 20.4H17C18.8778 20.4 20.4 18.8778 20.4 17V7C20.4 5.12223 18.8778 3.6 17 3.6ZM7 2C4.23858 2 2 4.23858 2 7V17C2 19.7614 4.23858 22 7 22H17C19.7614 22 22 19.7614 22 17V7C22 4.23858 19.7614 2 17 2H7Z" fill="black"/>
<path d="M11.9965 6.72656C12.3545 6.72656 12.6446 7.01675 12.6446 7.37471V11.3561H16.6261C16.9841 11.3561 17.2743 11.6463 17.2743 12.0043C17.2743 12.3623 16.9841 12.6524 16.6261 12.6524H12.6446V16.6339C12.6446 16.9919 12.3545 17.2821 11.9965 17.2821C11.6385 17.2821 11.3484 16.9919 11.3484 16.6339V12.6524H7.3669C7.00894 12.6524 6.71875 12.3623 6.71875 12.0043C6.71875 11.6463 7.00894 11.3561 7.3669 11.3561H11.3484V7.37471C11.3484 7.01675 11.6385 6.72656 11.9965 6.72656Z" fill="black"/>
</svg>
