<svg width="24" height="24" viewBox="0 0 24 24" fill="none" xmlns="http://www.w3.org/2000/svg">
<path fill-rule="evenodd" clip-rule="evenodd" d="M10.5031 2.20312C5.91921 2.20312 2.20312 5.91915 2.20312 10.5032C2.20312 15.0871 5.91921 18.8032 10.5031 18.8032C12.507 18.8032 14.345 18.093 15.7792 16.9107L20.4374 21.5688C20.7498 21.8813 21.2564 21.8813 21.5688 21.5688C21.8812 21.2564 21.8812 20.7499 21.5688 20.4375L16.9106 15.7793C18.093 14.3451 18.8031 12.507 18.8031 10.5032C18.8031 5.91915 15.0871 2.20312 10.5031 2.20312ZM3.80312 10.5032C3.80312 6.8028 6.80284 3.80313 10.5031 3.80313C14.2034 3.80313 17.2031 6.8028 17.2031 10.5032C17.2031 14.2035 14.2034 17.2032 10.5031 17.2032C6.80284 17.2032 3.80312 14.2035 3.80312 10.5032Z" fill="black"/>
</svg>
