<svg width="24" height="24" viewBox="0 0 24 24" fill="none" xmlns="http://www.w3.org/2000/svg">
<path fill-rule="evenodd" clip-rule="evenodd" d="M2 4C2 2.34315 3.34315 1 5 1H19C20.6569 1 22 2.34315 22 4L21.9999 17.1999C21.9999 15.6535 20.7463 14.3999 19.1999 14.3999C17.6535 14.3999 16.3999 15.6535 16.3999 17.1999V17.3998H16.1999C14.6535 17.3998 13.3999 18.6534 13.3999 20.1998C13.3999 21.7462 14.6535 22.9998 16.1999 22.9998L16.3999 23H5C3.34315 23 2 21.6569 2 20V4ZM7.70588 6C7.31603 6 7 6.26863 7 6.6C7 6.93137 7.31603 7.2 7.70588 7.2H16.2941C16.684 7.2 17 6.93137 17 6.6C17 6.26863 16.684 6 16.2941 6H7.70588ZM7.70588 10.2C7.31603 10.2 7 10.4686 7 10.8C7 11.1313 7.31603 11.4 7.70588 11.4H16.2941C16.684 11.4 17 11.1313 17 10.8C17 10.4686 16.684 10.2 16.2941 10.2H7.70588ZM7.70588 14.3999C7.31603 14.3999 7 14.6685 7 14.9999C7 15.3313 7.31603 15.5999 7.70588 15.5999H10.2941C10.684 15.5999 11 15.3313 11 14.9999C11 14.6685 10.684 14.3999 10.2941 14.3999H7.70588Z" fill="black"/>
<path d="M18.3984 23.1984C18.3984 23.6402 18.7566 23.9984 19.1984 23.9984C19.6402 23.9984 19.9984 23.6402 19.9984 23.1984V20.9983H22.1984C22.6402 20.9983 22.9984 20.6401 22.9984 20.1983C22.9984 19.7565 22.6402 19.3983 22.1984 19.3983H19.9984V17.1984C19.9984 16.7566 19.6402 16.3984 19.1984 16.3984C18.7566 16.3984 18.3984 16.7566 18.3984 17.1984V19.3983H16.1984C15.7566 19.3983 15.3984 19.7565 15.3984 20.1983C15.3984 20.6401 15.7566 20.9983 16.1984 20.9983H18.3984V23.1984Z" fill="black"/>
</svg>
