<svg width="24" height="24" viewBox="0 0 24 24" fill="none" xmlns="http://www.w3.org/2000/svg">
<path fill-rule="evenodd" clip-rule="evenodd" d="M20 4.6H4C3.2268 4.6 2.6 5.2268 2.6 6V18C2.6 18.7732 3.2268 19.4 4 19.4H20C20.7732 19.4 21.4 18.7732 21.4 18V6C21.4 5.2268 20.7732 4.6 20 4.6ZM4 3C2.34315 3 1 4.34315 1 6V18C1 19.6569 2.34315 21 4 21H20C21.6569 21 23 19.6569 23 18V6C23 4.34315 21.6569 3 20 3H4Z" fill="black"/>
<path fill-rule="evenodd" clip-rule="evenodd" d="M4.3522 8.53039C4.609 8.17086 5.10864 8.08758 5.46817 8.34439L12.0032 13.0122L18.5382 8.34439C18.8978 8.08758 19.3974 8.17086 19.6542 8.53039C19.911 8.88992 19.8277 9.38956 19.4682 9.64636L12.4682 14.6463C12.19 14.845 11.8164 14.845 11.5382 14.6463L4.53819 9.64636C4.17866 9.38956 4.09539 8.88992 4.3522 8.53039Z" fill="black"/>
</svg>
