<svg width="24" height="24" viewBox="0 0 24 24" fill="none" xmlns="http://www.w3.org/2000/svg">
<path d="M2.97916 10.0729C2.14257 10.9095 2.04655 12.2332 2.75366 13.1818L7.98328 20.1971C9.20165 22.0792 11.3503 23.3308 13.7346 23.3308H14.4013C18.4514 23.3308 21.7346 20.0476 21.7346 15.9975V11.9975C21.7346 11.6293 21.4361 11.3308 21.0679 11.3308C20.6998 11.3308 20.4013 11.6293 20.4013 11.9975V15.9975C20.4013 19.3112 17.715 21.9975 14.4013 21.9975H13.7346C11.9068 21.9975 10.2937 21.078 9.33265 19.6763L8.17454 18.2228L3.82266 12.3849C3.51123 11.9671 3.55352 11.3841 3.92197 11.0157C4.33178 10.6059 4.99622 10.6059 5.40603 11.0157L7.64031 13.25C7.90066 13.5103 8.32277 13.5103 8.58312 13.25C8.84347 12.9896 8.84347 12.5675 8.58312 12.3072L6.34884 10.0729C5.41833 9.14237 3.90967 9.14237 2.97916 10.0729Z" fill="black"/>
<path d="M7.60156 2.93073C7.60156 1.67888 8.61638 0.664062 9.86823 0.664062C11.1201 0.664062 12.1349 1.67888 12.1349 2.93073V10.6639C12.1349 11.0321 11.8364 11.3306 11.4682 11.3306C11.1 11.3306 10.8016 11.0321 10.8016 10.6639V2.93073C10.8016 2.41526 10.3837 1.99739 9.86823 1.99739C9.35276 1.99739 8.93489 2.41526 8.93489 2.93073V12.6639C8.93489 13.0321 8.63642 13.3306 8.26823 13.3306C7.90004 13.3306 7.60156 13.0321 7.60156 12.6639V2.93073Z" fill="black"/>
<path d="M13.0714 6C11.8195 6 10.8047 7.01482 10.8047 8.26667V10.6666C10.8047 11.0348 11.1031 11.3333 11.4713 11.3333C11.8395 11.3333 12.138 11.0348 12.138 10.6666V8.26667C12.138 7.7512 12.5559 7.33333 13.0714 7.33333C13.5868 7.33333 14.0047 7.7512 14.0047 8.26667V9.58494C14.0047 9.58996 14.0046 9.59498 14.0046 9.6V10.6666C14.0046 11.0348 14.3031 11.3333 14.6713 11.3333C15.0395 11.3333 15.338 11.0348 15.338 10.6666V9.59034C15.3432 9.07932 15.7591 8.66667 16.2713 8.66667C16.7868 8.66667 17.2046 9.08453 17.2046 9.6V10.6666C17.2046 10.6985 17.2069 10.7297 17.2112 10.7603C17.2069 10.8174 17.2047 10.8751 17.2047 10.9333V11.3333C17.2047 11.7015 17.5032 12 17.8713 12C18.2395 12 18.538 11.7015 18.538 11.3333V10.9333C18.538 10.4178 18.9559 10 19.4713 10C19.9868 10 20.4047 10.4178 20.4047 10.9333V12C20.4047 12.3682 20.7032 12.6666 21.0713 12.6666C21.4395 12.6666 21.738 12.3682 21.738 12V10.9333C21.738 9.68149 20.7232 8.66667 19.4713 8.66667C19.0973 8.66667 18.7445 8.75726 18.4335 8.9177C18.1439 7.99928 17.2854 7.33333 16.2713 7.33333C15.8973 7.33333 15.5445 7.42391 15.2335 7.58433C14.944 6.66593 14.0854 6 13.0714 6Z" fill="black"/>
</svg>
