<svg width="24" height="24" viewBox="0 0 24 24" fill="none" xmlns="http://www.w3.org/2000/svg">
<path d="M11.2336 12.6748C11.6596 13.1008 12.3503 13.1008 12.7763 12.6748C13.2024 12.2488 13.2024 11.558 12.7763 11.132C12.3503 10.706 11.6596 10.706 11.2336 11.132C10.8075 11.558 10.8075 12.2488 11.2336 12.6748Z" fill="black"/>
<path fill-rule="evenodd" clip-rule="evenodd" d="M16.9827 7.01346C17.2191 7.24984 17.2997 7.60047 17.1902 7.91634L14.9442 14.3976C14.8566 14.6503 14.658 14.8489 14.4053 14.9364L7.92414 17.1825C7.60828 17.2919 7.25765 17.2113 7.02127 16.975C6.78489 16.7386 6.7043 16.3879 6.81376 16.0721L9.05981 9.59085C9.14738 9.33816 9.34597 9.13957 9.59865 9.052L16.0798 6.80595C16.3957 6.69649 16.7463 6.77708 16.9827 7.01346ZM14.9521 9.04405L10.5703 10.5626L9.05186 14.9444L13.4336 13.4259L14.9521 9.04405Z" fill="black"/>
<path fill-rule="evenodd" clip-rule="evenodd" d="M1.3125 11.9956C1.3125 6.09118 6.09898 1.30469 12.0034 1.30469C17.9078 1.30469 22.6943 6.09118 22.6943 11.9956C22.6943 17.9 17.9078 22.6865 12.0034 22.6865C6.09898 22.6865 1.3125 17.9 1.3125 11.9956ZM12.0034 3.05015C7.06297 3.05015 3.05796 7.05516 3.05796 11.9956C3.05796 16.936 7.06297 20.941 12.0034 20.941C16.9438 20.941 20.9488 16.936 20.9488 11.9956C20.9488 7.05516 16.9438 3.05015 12.0034 3.05015Z" fill="black"/>
</svg>
