<svg width="24" height="24" viewBox="0 0 24 24" fill="none" xmlns="http://www.w3.org/2000/svg">
<path d="M22.2327 18.9994L20.1727 17.2794C21.625 15.1147 22.2201 12.4872 21.8423 9.90801C21.4645 7.32882 20.1409 4.98235 18.1288 3.32506C16.1168 1.66776 13.5602 0.818131 10.9564 0.941453C8.35259 1.06478 5.88775 2.15223 4.04135 3.99227C2.19494 5.83231 1.09898 8.29338 0.96667 10.8967C0.834355 13.5001 1.67514 16.0596 3.32547 18.0773C4.97581 20.0951 7.31769 21.4268 9.89556 21.8135C12.4735 22.2002 15.103 21.6142 17.2727 20.1694L19.0027 22.2394C19.2116 22.4681 19.4647 22.6521 19.7468 22.7801C20.0288 22.9082 20.3339 22.9777 20.6436 22.9845C20.9532 22.9913 21.2611 22.9351 21.5484 22.8195C21.8358 22.7039 22.0967 22.5312 22.3154 22.3118C22.534 22.0924 22.706 21.831 22.8207 21.5433C22.9354 21.2556 22.9906 20.9476 22.9829 20.6379C22.9752 20.3283 22.9047 20.0234 22.7757 19.7418C22.6468 19.4601 22.4621 19.2076 22.2327 18.9994ZM5.8027 17.0994C4.49298 15.7911 3.6775 14.0692 3.49526 12.227C3.31302 10.3848 3.77531 8.53639 4.80331 6.99687C5.83131 5.45735 7.36141 4.32199 9.1328 3.7843C10.9042 3.24662 12.8072 3.3399 14.5176 4.04825C16.2279 4.75659 17.6396 6.03615 18.5121 7.66882C19.3846 9.3015 19.6639 11.1862 19.3024 13.0018C18.9409 14.8173 17.9609 16.4513 16.5295 17.6252C15.0981 18.7991 13.3039 19.4403 11.4527 19.4394C9.33379 19.4384 7.30182 18.5969 5.8027 17.0994Z" fill="black"/>
<path d="M12.7952 11.171C13.401 10.8699 13.8873 10.373 14.1751 9.76088C14.4629 9.14873 14.5354 8.45727 14.3808 7.79873C14.2262 7.14019 13.8536 6.55322 13.3234 6.13311C12.7933 5.71299 12.1367 5.48438 11.4602 5.48438C10.7838 5.48438 10.1272 5.71299 9.59706 6.13311C9.0669 6.55322 8.69427 7.14019 8.53967 7.79873C8.38507 8.45727 8.45757 9.14873 8.74539 9.76088C9.03322 10.373 9.51949 10.8699 10.1252 11.171C8.35527 11.591 6.55527 12.751 6.12527 14.321C6.02843 14.7161 6.08189 15.1331 6.27527 15.491C6.41822 15.7187 6.5859 15.93 6.77527 16.121C8.03613 17.3518 9.72828 18.0407 11.4902 18.0407C13.2522 18.0407 14.9444 17.3518 16.2052 16.121C16.3913 15.9297 16.5556 15.7184 16.6952 15.491C16.8968 15.136 16.9541 14.717 16.8552 14.321C16.3652 12.751 14.5652 11.591 12.7952 11.171Z" fill="black"/>
</svg>
