<svg width="24" height="24" viewBox="0 0 24 24" fill="none" xmlns="http://www.w3.org/2000/svg">
<path fill-rule="evenodd" clip-rule="evenodd" d="M3.57555 3.12405C3.55535 3.13698 3.54629 3.15044 3.54159 3.16294C3.10425 4.32539 3.09845 5.7285 3.09845 6.56987C3.09845 14.4833 9.51356 20.8984 17.427 20.8984C18.2683 20.8984 19.6715 20.8926 20.8339 20.4553C20.8464 20.4506 20.8599 20.4415 20.8728 20.4213C20.8868 20.3994 20.8984 20.3661 20.8984 20.3254V15.3127H16.3184L14.4584 17.1727C14.2977 17.3334 14.06 17.3895 13.8444 17.3176C13.1553 17.0879 11.1893 16.4297 9.57582 14.8162C7.59429 12.8347 6.91752 10.8673 6.67924 10.1524C6.60675 9.935 6.6645 9.69523 6.82806 9.53462L8.72152 7.67528V3.09844H3.67144C3.63072 3.09844 3.59744 3.11005 3.57555 3.12405ZM2.41845 2.74039C2.62519 2.19086 3.15463 1.89844 3.67144 1.89844H9.12152C9.56335 1.89844 9.92152 2.25662 9.92152 2.69844V7.71724C9.92152 8.01244 9.80286 8.29526 9.59223 8.5021L7.93964 10.1249C8.23442 10.9335 8.89758 12.4409 10.4243 13.9677C11.6243 15.1676 13.0658 15.771 13.8746 16.0594L15.4991 14.4349C15.7054 14.2286 15.9852 14.1127 16.2769 14.1127H21.2984C21.7402 14.1127 22.0984 14.4709 22.0984 14.9127V20.3254C22.0984 20.8422 21.806 21.3717 21.2565 21.5784C19.8738 22.0986 18.2738 22.0985 17.4533 22.0984H17.427C8.85082 22.0984 1.89845 15.146 1.89845 6.56987L1.89844 6.54356C1.89838 5.72306 1.89826 4.12304 2.41845 2.74039Z" fill="black"/>
</svg>
