<svg width="24" height="24" viewBox="0 0 24 24" fill="none" xmlns="http://www.w3.org/2000/svg">
<path fill-rule="evenodd" clip-rule="evenodd" d="M3 5C3 4.44772 3.44772 4 4 4H8C8.55228 4 9 4.44772 9 5V9C9 9.55228 8.55228 10 8 10H4C3.44772 10 3 9.55228 3 9V5ZM4.2 8.8V5.2H7.8V8.8H4.2Z" fill="black"/>
<path fill-rule="evenodd" clip-rule="evenodd" d="M3 14C3 13.4477 3.44772 13 4 13H8C8.55228 13 9 13.4477 9 14V18C9 18.5523 8.55228 19 8 19H4C3.44772 19 3 18.5523 3 18V14ZM4.2 17.8V14.2H7.8V17.8H4.2Z" fill="black"/>
<path d="M11.3984 6.99844C11.3984 6.66707 11.6671 6.39844 11.9984 6.39844H20.9984C21.3298 6.39844 21.5984 6.66707 21.5984 6.99844C21.5984 7.32982 21.3298 7.59844 20.9984 7.59844H11.9984C11.6671 7.59844 11.3984 7.32982 11.3984 6.99844Z" fill="black"/>
<path d="M11.9984 15.3984C11.6671 15.3984 11.3984 15.6671 11.3984 15.9984C11.3984 16.3298 11.6671 16.5984 11.9984 16.5984H20.9984C21.3298 16.5984 21.5984 16.3298 21.5984 15.9984C21.5984 15.6671 21.3298 15.3984 20.9984 15.3984H11.9984Z" fill="black"/>
</svg>
