<svg width="24" height="24" viewBox="0 0 24 24" fill="none" xmlns="http://www.w3.org/2000/svg">
<path d="M7.00312 7.20312C6.56129 7.20312 6.20312 7.5613 6.20312 8.00313C6.20312 8.44495 6.56129 8.80313 7.00312 8.80313H13.0032C13.445 8.80313 13.8032 8.44495 13.8032 8.00313C13.8032 7.5613 13.445 7.20312 13.0032 7.20312H7.00312Z" fill="black"/>
<path d="M6.20312 12.0031C6.20312 11.5613 6.56129 11.2031 7.00312 11.2031H17.0032C17.445 11.2031 17.8032 11.5613 17.8032 12.0031C17.8032 12.4449 17.445 12.8031 17.0032 12.8031H7.00312C6.56129 12.8031 6.20312 12.4449 6.20312 12.0031Z" fill="black"/>
<path d="M7.00312 15.2031C6.56129 15.2031 6.20312 15.5613 6.20312 16.0031C6.20312 16.4449 6.56129 16.8031 7.00312 16.8031H10.0031C10.445 16.8031 10.8032 16.4449 10.8032 16.0031C10.8032 15.5613 10.445 15.2031 10.0031 15.2031H7.00312Z" fill="black"/>
<path fill-rule="evenodd" clip-rule="evenodd" d="M5.00312 2.20312C3.45673 2.20312 2.20312 3.45674 2.20312 5.00313V19.0032C2.20312 20.5496 3.45673 21.8032 5.00312 21.8032H19.0032C20.5495 21.8032 21.8031 20.5496 21.8031 19.0032V5.00313C21.8031 3.45674 20.5495 2.20312 19.0032 2.20312H5.00312ZM3.80312 5.00313C3.80312 4.34038 4.34038 3.80313 5.00312 3.80313H19.0032C19.6659 3.80313 20.2032 4.34038 20.2032 5.00313V19.0032C20.2032 19.6659 19.6659 20.2032 19.0032 20.2032H5.00312C4.34038 20.2032 3.80312 19.6659 3.80312 19.0032V5.00313Z" fill="black"/>
</svg>
