<svg width="24" height="24" viewBox="0 0 24 24" fill="none" xmlns="http://www.w3.org/2000/svg">
<path fill-rule="evenodd" clip-rule="evenodd" d="M21.8484 9.29519C21.8484 12.3577 19.1173 14.8404 15.7484 14.8404C15.2971 14.8404 14.8572 14.7958 14.4338 14.7113L12.2604 15.8992C12.0303 16.0392 11.7358 15.8733 11.7358 15.6038L11.7202 13.6017C10.3174 12.5857 9.64844 11.0524 9.64844 9.29519C9.64844 6.23267 12.3795 3.75 15.7484 3.75C19.1173 3.75 21.8484 6.23267 21.8484 9.29519ZM13.9868 7.94873C13.7325 7.94873 13.5264 8.15508 13.5264 8.40963C13.5264 8.66418 13.7325 8.87053 13.9868 8.87053H17.4396C17.6939 8.87053 17.9 8.66418 17.9 8.40963C17.9 8.15508 17.6939 7.94873 17.4396 7.94873H13.9868ZM13.9868 10.2532C13.7325 10.2532 13.5264 10.4596 13.5264 10.7141C13.5264 10.9687 13.7325 11.175 13.9868 11.175H17.4396C17.6939 11.175 17.9 10.9687 17.9 10.7141C17.9 10.4596 17.6939 10.2532 17.4396 10.2532H13.9868Z" fill="black"/>
<path d="M10.5247 14.1794L10.5359 15.61C10.5403 16.7973 11.8274 17.536 12.8526 16.9431L14.6445 15.9637C14.8374 15.9908 15.0326 16.0108 15.2297 16.0236C15.8142 17.0608 16.1484 18.2618 16.1484 19.5428C16.1484 19.9334 15.8369 20.25 15.4528 20.25H2.84409C2.4599 20.25 2.14844 19.9334 2.14844 19.5428C2.14844 16.8555 3.61338 14.528 5.77164 13.3191C4.71244 12.3721 4.03975 10.9831 4.03975 9.43523C4.03975 6.56773 6.32565 4.25 9.14844 4.25C9.66781 4.25 10.169 4.32846 10.6411 4.47437C9.29869 5.68268 8.44849 7.37376 8.44849 9.29524C8.44849 11.1712 9.10448 12.9188 10.5247 14.1794Z" fill="black"/>
</svg>
