<svg width="24" height="24" viewBox="0 0 24 24" fill="none" xmlns="http://www.w3.org/2000/svg">
<path d="M7 11.5V5.5C7 2.73859 9.23859 0.5 12 0.5C14.2992 0.5 16.2359 2.05186 16.8199 4.16527C16.9056 4.47565 16.7963 4.80153 16.5695 5.03011L8.12933 13.536C7.89732 13.7698 7.50579 13.7186 7.37959 13.4144C7.135 12.8247 7 12.1781 7 11.5Z" fill="black"/>
<path d="M21.0688 3.42963C21.3812 3.74205 21.3812 4.24858 21.0688 4.561L17.0028 8.62702V11.4953C17.0028 14.2567 14.7642 16.4953 12.0028 16.4953C11.1711 16.4953 10.3868 16.2922 9.69684 15.933L8.08974 17.5401C9.21626 18.2711 10.5593 18.6953 12.0031 18.6953C15.9796 18.6953 19.2031 15.4718 19.2031 11.4953C19.2031 11.0535 19.5613 10.6953 20.0031 10.6953C20.4449 10.6953 20.8031 11.0535 20.8031 11.4953C20.8031 16.0858 17.2883 19.8553 12.8031 20.2594V21.6953H15.0031C15.4449 21.6953 15.8031 22.0535 15.8031 22.4953C15.8031 22.9371 15.4449 23.2953 15.0031 23.2953H9.00313C8.5613 23.2953 8.20313 22.9371 8.20313 22.4953C8.20313 22.0535 8.5613 21.6953 9.00313 21.6953H11.2031V20.2594C9.62451 20.117 8.16517 19.5574 6.93774 18.6921L4.56881 21.061C4.25639 21.3734 3.74986 21.3734 3.43744 21.061C3.12502 20.7486 3.12502 20.242 3.43744 19.9296L19.9374 3.42963C20.2498 3.11721 20.7564 3.11721 21.0688 3.42963Z" fill="black"/>
<path d="M4.80317 11.5031C4.80317 11.0613 4.44494 10.7031 4.00312 10.7031C3.56129 10.7031 3.20312 11.0613 3.20312 11.5031C3.20312 13.2237 3.69775 14.8313 4.55289 16.1885C4.78843 16.5623 5.28239 16.6744 5.6562 16.4388C6.03001 16.2033 6.14211 15.7093 5.90658 15.3355C5.20762 14.2262 4.80317 12.9131 4.80317 11.5031Z" fill="black"/>
</svg>
