<svg width="24" height="24" viewBox="0 0 24 24" fill="none" xmlns="http://www.w3.org/2000/svg">
<path d="M11.9984 2.89844C6.42037 2.89844 1.89844 7.42037 1.89844 12.9984V17.4984C1.89844 17.8298 2.16707 18.0984 2.49844 18.0984C2.82981 18.0984 3.09844 17.8298 3.09844 17.4984V12.9984C3.09844 8.08311 7.08311 4.09844 11.9984 4.09844C16.9137 4.09844 20.8984 8.08311 20.8984 12.9984V17.4984C20.8984 17.8298 21.167 18.0984 21.4984 18.0984C21.8298 18.0984 22.0984 17.8298 22.0984 17.4984V12.9984C22.0984 7.42037 17.5765 2.89844 11.9984 2.89844Z" fill="black"/>
<path fill-rule="evenodd" clip-rule="evenodd" d="M3.39844 13.9984C3.39844 13.3909 3.89093 12.8984 4.49844 12.8984H5.99844C7.15824 12.8984 8.09844 13.8386 8.09844 14.9984V18.9984C8.09844 20.1582 7.15824 21.0984 5.99844 21.0984H4.49844C3.89093 21.0984 3.39844 20.6059 3.39844 19.9984V13.9984ZM4.59844 14.0984V19.8984H5.99844C6.4955 19.8984 6.89844 19.4955 6.89844 18.9984V14.9984C6.89844 14.5013 6.4955 14.0984 5.99844 14.0984H4.59844Z" fill="black"/>
<path fill-rule="evenodd" clip-rule="evenodd" d="M20.5984 13.9984C20.5984 13.3909 20.1059 12.8984 19.4984 12.8984H17.9984C16.8386 12.8984 15.8984 13.8386 15.8984 14.9984V18.9984C15.8984 20.1582 16.8386 21.0984 17.9984 21.0984H19.4984C20.1059 21.0984 20.5984 20.6059 20.5984 19.9984V13.9984ZM19.3984 14.0984V19.8984H17.9984C17.5013 19.8984 17.0984 19.4955 17.0984 18.9984V14.9984C17.0984 14.5013 17.5013 14.0984 17.9984 14.0984H19.3984Z" fill="black"/>
</svg>
