<svg width="24" height="24" viewBox="0 0 24 24" fill="none" xmlns="http://www.w3.org/2000/svg">
<path fill-rule="evenodd" clip-rule="evenodd" d="M4.99958 3.29691C7.12398 3.3156 9.70061 3.44849 11.2 4.39376V17.9745C9.70061 17.1868 7.12399 17.0761 4.99958 17.0605C4.44731 17.0565 4 16.6102 4 16.058V4.29386C4 3.74157 4.44731 3.29206 4.99958 3.29691ZM19.0004 17.0605C16.876 17.0761 14.2993 17.1868 12.8 17.9746V4.39382C14.2993 3.4485 16.876 3.3156 19.0004 3.29691C19.5527 3.29206 20 3.74157 20 4.29386V16.058C20 16.6102 19.5527 17.0565 19.0004 17.0605ZM15.3605 18.8403C13.9913 19.0636 13.045 19.4383 12.5998 19.9397C12.5121 20.0465 12.3964 20.1311 12.2609 20.1815C11.9477 20.2981 11.595 20.2077 11.3765 19.9549C10.9368 19.4461 9.98551 19.0663 8.60307 18.8408C7.26947 18.6232 5.73379 18.5775 4.33954 18.5685C3.35111 18.5622 2.54541 17.762 2.54541 16.7663V5.73927C1.67186 5.86295 1 6.61372 1 7.52141V18.7941C1 19.7882 1.80589 20.5941 2.8 20.5941H21.1636C22.1577 20.5941 22.9636 19.7882 22.9636 18.7941V7.52141C22.9636 6.61368 22.2917 5.86288 21.4181 5.73926V16.7658C21.4181 17.7615 20.6124 18.5616 19.624 18.568C18.2297 18.577 16.6941 18.6227 15.3605 18.8403Z" fill="black"/>
</svg>
