<svg width="24" height="24" viewBox="0 0 24 24" fill="none" xmlns="http://www.w3.org/2000/svg">
<path d="M10.4804 8.37887C10.7147 8.14455 11.0946 8.14455 11.3289 8.37887L14.4047 11.4546L17.4804 8.37887C17.7147 8.14455 18.0946 8.14455 18.3289 8.37887C18.5632 8.61318 18.5632 8.99307 18.3289 9.22739L15.2532 12.3032L18.3289 15.3789C18.5632 15.6132 18.5632 15.9931 18.3289 16.2274C18.0946 16.4617 17.7147 16.4617 17.4804 16.2274L14.4047 13.1517L11.3289 16.2274C11.0946 16.4617 10.7147 16.4617 10.4804 16.2274C10.2461 15.9931 10.2461 15.6132 10.4804 15.3789L13.5561 12.3032L10.4804 9.22739C10.2461 8.99307 10.2461 8.61318 10.4804 8.37887Z" fill="black"/>
<path fill-rule="evenodd" clip-rule="evenodd" d="M6.634 5.06109C7.12699 4.51488 7.82832 4.20312 8.5641 4.20312H20.9058C22.3418 4.20312 23.5058 5.36718 23.5058 6.80312V17.8032C23.5058 19.2391 22.3418 20.4032 20.9058 20.4032H8.5641C7.82832 20.4032 7.12699 20.0914 6.634 19.5452L1.6699 14.0452C0.776701 13.0556 0.7767 11.5507 1.6699 10.5611L6.634 5.06109ZM8.5641 5.40312C8.16791 5.40312 7.79027 5.57099 7.52482 5.8651L2.56071 11.3651C2.07976 11.898 2.07976 12.7083 2.56071 13.2412L7.52482 18.7412C7.79027 19.0353 8.16791 19.2032 8.5641 19.2032H20.9058C21.679 19.2032 22.3058 18.5764 22.3058 17.8032V6.80312C22.3058 6.02992 21.679 5.40312 20.9058 5.40312H8.5641Z" fill="black"/>
</svg>
