<svg width="24" height="24" viewBox="0 0 24 24" fill="none" xmlns="http://www.w3.org/2000/svg">
<path fill-rule="evenodd" clip-rule="evenodd" d="M6.38774 7.8495C6.80062 7.69221 7.26283 7.89941 7.42012 8.31229L8.6715 11.5972H10.3167L11.2367 8.37732C11.3348 8.03388 11.6487 7.7971 12.0059 7.7971C12.3631 7.7971 12.677 8.03388 12.7751 8.37732L13.6951 11.5972H15.3403L16.5916 8.31229C16.7489 7.89941 17.2112 7.69221 17.624 7.8495C18.0369 8.00679 18.2441 8.46901 18.0868 8.88189L17.0524 11.5972H18.6724C19.1143 11.5972 19.4724 11.9554 19.4724 12.3972C19.4724 12.839 19.1143 13.1972 18.6724 13.1972H16.4429L15.0392 16.8819C14.9166 17.2039 14.6016 17.4111 14.2574 17.3964C13.9131 17.3816 13.617 17.1482 13.5224 16.8169L12.4882 13.1972H11.5236L10.4894 16.8169C10.3948 17.1482 10.0987 17.3816 9.75441 17.3964C9.4102 17.4111 9.09521 17.2039 8.97256 16.8819L7.56886 13.1972H5.33906C4.89724 13.1972 4.53906 12.839 4.53906 12.3972C4.53906 11.9554 4.89724 11.5972 5.33906 11.5972H6.95933L5.92494 8.88189C5.76765 8.46901 5.97485 8.00679 6.38774 7.8495ZM9.61161 14.065L9.28103 13.1972H9.85954L9.61161 14.065ZM12.0059 11.5092L12.0311 11.5972H11.9808L12.0059 11.5092ZM14.4002 14.065L14.1522 13.1972H14.7307L14.4002 14.065Z" fill="black"/>
<path fill-rule="evenodd" clip-rule="evenodd" d="M12.0032 1.20312C6.03846 1.20312 1.20312 6.03844 1.20312 12.0032C1.20312 17.9679 6.03846 22.8032 12.0032 22.8032C17.9678 22.8032 22.8031 17.9679 22.8031 12.0032C22.8031 6.03844 17.9678 1.20312 12.0032 1.20312ZM2.80312 12.0032C2.80312 6.9221 6.9221 2.80313 12.0032 2.80313C17.0842 2.80313 21.2032 6.9221 21.2032 12.0032C21.2032 17.0842 17.0842 21.2032 12.0032 21.2032C6.9221 21.2032 2.80312 17.0842 2.80312 12.0032Z" fill="black"/>
</svg>
