<svg width="24" height="24" viewBox="0 0 24 24" fill="none" xmlns="http://www.w3.org/2000/svg">
<path d="M15.3497 9.79156L10.8797 7.21156C10.4797 6.98156 9.97969 6.98156 9.57969 7.21156C9.17969 7.44156 8.92969 7.87156 8.92969 8.34156V13.5116C8.92969 13.9716 9.17969 14.4016 9.57969 14.6416C9.77969 14.7616 9.99969 14.8116 10.2297 14.8116C10.4597 14.8116 10.6797 14.7516 10.8797 14.6416L15.3497 12.0616C15.7497 11.8316 15.9997 11.4016 15.9997 10.9316C15.9997 10.4716 15.7497 10.0416 15.3497 9.80156V9.79156ZM10.5297 12.9816V8.85156L14.0997 10.9116L10.5297 12.9716V12.9816Z" fill="black"/>
<path d="M21.7632 6.24219C21.3532 5.00219 20.4332 3.98219 19.0932 3.29219C17.1032 2.26219 14.7232 1.74219 12.0032 1.74219C9.28312 1.74219 6.89312 2.26219 4.91312 3.29219C3.57312 3.98219 2.65312 5.00219 2.24312 6.24219C1.87312 7.36219 1.70312 9.46219 1.70312 10.9422C1.70312 12.4222 1.87312 14.5222 2.24312 15.6422C2.56312 16.6022 3.18312 17.4222 4.10312 18.0822V20.8322C4.10312 21.2922 4.35312 21.7222 4.75312 21.9622C4.95312 22.0822 5.17318 22.1322 5.40318 22.1322C5.63318 22.1322 5.85316 22.0722 6.05313 21.9622L9.46313 19.9922C10.2732 20.1022 11.1332 20.1622 12.0032 20.1622C14.7232 20.1622 17.1132 19.6422 19.0932 18.6122C20.4332 17.9222 21.3532 16.9022 21.7632 15.6622C22.1332 14.5422 22.3031 12.4422 22.3031 10.9622C22.3031 9.48222 22.1332 7.39219 21.7632 6.26219V6.24219ZM20.2432 15.1322C19.9631 15.9822 19.3332 16.6622 18.3632 17.1622C16.6032 18.0722 14.4732 18.5322 12.0032 18.5322C11.1132 18.5322 10.2432 18.4722 9.42312 18.3422L9.14312 18.3022L5.69318 20.2922V17.1922L5.31312 16.9622C4.52312 16.4722 3.99312 15.8522 3.75312 15.1322C3.49312 14.3422 3.29312 12.5422 3.29312 10.9422C3.29312 9.34219 3.49312 7.54219 3.75312 6.75219C4.03312 5.90219 4.66318 5.22219 5.63318 4.72219C7.39318 3.81219 9.52314 3.35219 11.9932 3.35219C14.4632 3.35219 16.5932 3.81219 18.3532 4.72219C19.3232 5.22219 19.9531 5.91219 20.2331 6.75219C20.4932 7.54219 20.6932 9.34219 20.6932 10.9422C20.6932 12.5422 20.4932 14.3422 20.2331 15.1322H20.2432Z" fill="black"/>
</svg>
