<svg width="24" height="24" viewBox="0 0 24 24" fill="none" xmlns="http://www.w3.org/2000/svg">
<path fill-rule="evenodd" clip-rule="evenodd" d="M15.3977 9.30161C15.3977 9.63298 15.6663 9.90161 15.9977 9.90161C16.3291 9.90161 16.5977 9.63298 16.5977 9.30161V7.43501H17.9249C18.3239 7.43501 18.6618 7.72897 18.7172 8.12409L18.7192 8.13804L20.4912 19.7962C20.5551 20.2753 20.1823 20.7017 19.6982 20.7017H4.29723C3.81313 20.7017 3.44041 20.2753 3.50422 19.7962L5.27626 8.13804L5.27829 8.12408C5.33361 7.72897 5.67159 7.43501 6.07057 7.43501H7.3977V9.30161C7.3977 9.63298 7.66633 9.90161 7.9977 9.90161C8.32907 9.90161 8.5977 9.63298 8.5977 9.30161V7.43501H15.3977V9.30161ZM16.5977 6.235H17.9249C18.9223 6.235 19.7673 6.96991 19.9056 7.95771L21.6789 19.6244C21.8473 20.8275 20.9131 21.9017 19.6982 21.9017H4.29723C3.08239 21.9017 2.14812 20.8275 2.31655 19.6244L4.08988 7.95771C4.22818 6.96991 5.07314 6.235 6.07057 6.235H7.3977V6.20156C7.3977 3.66105 9.45719 1.60156 11.9977 1.60156C14.5382 1.60156 16.5977 3.66105 16.5977 6.20156V6.235ZM8.5977 6.235V6.20156C8.5977 4.32379 10.1199 2.80156 11.9977 2.80156C13.8755 2.80156 15.3977 4.32379 15.3977 6.20156V6.235H8.5977Z" fill="black"/>
</svg>
