<svg width="23" height="23" viewBox="0 0 23 23" fill="none" xmlns="http://www.w3.org/2000/svg">
<g clip-path="url(#clip0_3932_29456)">
<mask id="mask0_3932_29456" style="mask-type:luminance" maskUnits="userSpaceOnUse" x="0" y="0" width="23" height="23">
<path d="M23 0H0V23H23V0Z" fill="white"/>
</mask>
<g mask="url(#mask0_3932_29456)">
<mask id="mask1_3932_29456" style="mask-type:luminance" maskUnits="userSpaceOnUse" x="0" y="0" width="23" height="23">
<path d="M23 0H0V23H23V0Z" fill="white"/>
</mask>
<g mask="url(#mask1_3932_29456)">
<mask id="mask2_3932_29456" style="mask-type:luminance" maskUnits="userSpaceOnUse" x="0" y="0" width="23" height="23">
<path d="M23 0H0V23H23V0Z" fill="white"/>
</mask>
<g mask="url(#mask2_3932_29456)">
<mask id="mask3_3932_29456" style="mask-type:luminance" maskUnits="userSpaceOnUse" x="0" y="0" width="23" height="23">
<path d="M23 0H0V23H23V0Z" fill="white"/>
</mask>
<g mask="url(#mask3_3932_29456)">
<mask id="mask4_3932_29456" style="mask-type:luminance" maskUnits="userSpaceOnUse" x="0" y="0" width="23" height="23">
<path d="M23 0H0V23H23V0Z" fill="white"/>
</mask>
<g mask="url(#mask4_3932_29456)">
<mask id="mask5_3932_29456" style="mask-type:luminance" maskUnits="userSpaceOnUse" x="0" y="0" width="23" height="23">
<path d="M23 0H0V23H23V0Z" fill="white"/>
</mask>
<g mask="url(#mask5_3932_29456)">
<mask id="mask6_3932_29456" style="mask-type:luminance" maskUnits="userSpaceOnUse" x="0" y="0" width="23" height="23">
<path d="M23 0H0V23H23V0Z" fill="white"/>
</mask>
<g mask="url(#mask6_3932_29456)">
<mask id="mask7_3932_29456" style="mask-type:luminance" maskUnits="userSpaceOnUse" x="0" y="0" width="23" height="23">
<path d="M23 0H0V23H23V0Z" fill="white"/>
</mask>
<g mask="url(#mask7_3932_29456)">
<mask id="mask8_3932_29456" style="mask-type:luminance" maskUnits="userSpaceOnUse" x="0" y="0" width="23" height="23">
<path d="M23 0H0V23H23V0Z" fill="white"/>
</mask>
<g mask="url(#mask8_3932_29456)">
<mask id="mask9_3932_29456" style="mask-type:luminance" maskUnits="userSpaceOnUse" x="0" y="0" width="23" height="23">
<path d="M23 0H0V23H23V0Z" fill="white"/>
</mask>
<g mask="url(#mask9_3932_29456)">
<mask id="mask10_3932_29456" style="mask-type:luminance" maskUnits="userSpaceOnUse" x="0" y="0" width="23" height="23">
<path d="M23 0H0V23H23V0Z" fill="white"/>
</mask>
<g mask="url(#mask10_3932_29456)">
<mask id="mask11_3932_29456" style="mask-type:luminance" maskUnits="userSpaceOnUse" x="0" y="0" width="23" height="23">
<path d="M23 0H0V23H23V0Z" fill="white"/>
</mask>
<g mask="url(#mask11_3932_29456)">
<mask id="mask12_3932_29456" style="mask-type:luminance" maskUnits="userSpaceOnUse" x="0" y="0" width="23" height="23">
<path d="M23 0H0V23H23V0Z" fill="white"/>
</mask>
<g mask="url(#mask12_3932_29456)">
<mask id="mask13_3932_29456" style="mask-type:luminance" maskUnits="userSpaceOnUse" x="0" y="0" width="23" height="23">
<path d="M23 0H0V23H23V0Z" fill="white"/>
</mask>
<g mask="url(#mask13_3932_29456)">
<path d="M10.09 12.3588C11.6019 12.3588 15.1567 10.5393 15.1567 6.17929C15.1567 5.57108 15.1419 4.98348 15.0917 4.42828C15.0094 3.33613 14.7856 2.36819 14.2288 1.62629C13.5144 0.61655 12.2642 0 10.09 0C7.91662 0 6.66647 0.616237 5.95196 1.62548C5.39445 2.36756 5.17059 3.336 5.0883 4.42885C5.03823 4.98386 5.02344 5.57126 5.02344 6.17935C5.02344 10.5393 8.5781 12.3588 10.09 12.3588ZM11.7439 2.26384C11.5964 2.63679 11.5224 2.82323 11.3748 3.19619C10.4216 2.92689 9.75843 2.92689 8.80528 3.19619C8.65769 2.82323 8.58387 2.63679 8.43609 2.26384C9.62808 1.90298 10.552 1.90298 11.7439 2.26384ZM5.77718 5.23404C5.83559 5.36169 6.08357 5.85253 6.46743 5.89859C6.90869 5.95149 7.64118 4.33584 10.0901 4.33196C12.539 4.33591 13.2715 5.95149 13.7127 5.89859C14.0966 5.85253 14.3446 5.36169 14.403 5.23404C14.4148 5.54689 14.4192 5.86362 14.4192 6.17935C14.4192 8.31052 13.4782 9.63098 12.6888 10.3634C11.6941 11.2863 10.5898 11.6213 10.0901 11.6213C9.59048 11.6213 8.48616 11.2863 7.49152 10.3634C6.702 9.63098 5.76107 8.31052 5.76107 6.17935C5.76095 5.86356 5.76533 5.54689 5.77718 5.23404Z" fill="#231F20"/>
<path d="M14.5881 13.2759C14.7514 13.1125 14.9247 12.9629 15.1058 12.8258C14.4025 12.4425 13.7202 12.078 13.2788 11.8421L13.258 11.831C13.1338 11.7646 12.9821 11.7779 12.8714 11.8649C12.3021 12.3119 11.6785 12.6131 11.018 12.76C10.9014 12.786 10.8055 12.8689 10.7632 12.9807L10.0905 14.7537L9.41779 12.9807C9.37549 12.8689 9.27966 12.786 9.16297 12.76C8.50249 12.613 7.87892 12.3118 7.30962 11.8649C7.19876 11.7779 7.04716 11.7646 6.92295 11.831C5.8489 12.4049 3.2724 13.7927 2.54674 14.2818C1.31709 15.1102 0.7795 18.108 0.684179 18.7005C0.674778 18.7593 0.680168 18.8195 0.700034 18.8756C0.744091 18.9998 1.87254 21.9181 10.0905 21.9181C10.4624 21.9181 10.8192 21.912 11.1625 21.9005C11.1927 21.5205 11.3523 21.1489 11.6424 20.8588L13.6173 18.884C12.7336 17.0244 13.0921 14.7719 14.5881 13.2759Z" fill="#231F20"/>
<path d="M21.0845 13.7586C20.2829 12.9571 19.2156 12.5156 18.079 12.5156C16.9425 12.5156 15.8751 12.9571 15.0736 13.7586C13.7255 15.1067 13.441 17.2044 14.3818 18.8597L14.4643 19.0051L12.1277 21.3417C11.749 21.7204 11.7491 22.3366 12.1278 22.7154C12.3113 22.8988 12.5552 22.9999 12.8146 22.9999C13.0741 22.9999 13.318 22.8988 13.5014 22.7153L15.8381 20.3788L15.9833 20.4612C16.6179 20.8214 17.3431 21.0119 18.0805 21.0119C19.2165 21.0119 20.2833 20.5707 21.0845 19.7695C21.8861 18.968 22.3275 17.9006 22.3275 16.764C22.3275 15.6275 21.8861 14.5602 21.0845 13.7586ZM20.0431 18.7281C19.5193 19.2519 18.8218 19.5405 18.0791 19.5405C17.3364 19.5405 16.6388 19.252 16.1149 18.7281C15.0319 17.6451 15.0319 15.883 16.1149 14.8C16.6388 14.2761 17.3364 13.9876 18.0791 13.9876C18.8218 13.9876 19.5193 14.2762 20.0431 14.8C20.5669 15.3238 20.8555 16.0213 20.8555 16.764C20.8555 17.5068 20.5669 18.2043 20.0431 18.7281Z" fill="#231F20"/>
</g>
</g>
</g>
</g>
</g>
</g>
</g>
</g>
</g>
</g>
</g>
</g>
</g>
</g>
</g>
<defs>
<clipPath id="clip0_3932_29456">
<rect width="23" height="23" fill="white"/>
</clipPath>
</defs>
</svg>
