<svg width="30" height="30" viewBox="0 0 30 30" fill="none" xmlns="http://www.w3.org/2000/svg">
<g clip-path="url(#clip0_3932_38604)">
<mask id="mask0_3932_38604" style="mask-type:luminance" maskUnits="userSpaceOnUse" x="0" y="0" width="30" height="30">
<path d="M30 0H0V30H30V0Z" fill="white"/>
</mask>
<g mask="url(#mask0_3932_38604)">
<mask id="mask1_3932_38604" style="mask-type:luminance" maskUnits="userSpaceOnUse" x="0" y="0" width="30" height="30">
<path d="M30 0H0V30H30V0Z" fill="white"/>
</mask>
<g mask="url(#mask1_3932_38604)">
<mask id="mask2_3932_38604" style="mask-type:luminance" maskUnits="userSpaceOnUse" x="0" y="0" width="30" height="30">
<path d="M30 0H0V30H30V0Z" fill="white"/>
</mask>
<g mask="url(#mask2_3932_38604)">
<mask id="mask3_3932_38604" style="mask-type:luminance" maskUnits="userSpaceOnUse" x="0" y="0" width="30" height="30">
<path d="M30 0H0V30H30V0Z" fill="white"/>
</mask>
<g mask="url(#mask3_3932_38604)">
<mask id="mask4_3932_38604" style="mask-type:luminance" maskUnits="userSpaceOnUse" x="0" y="0" width="30" height="30">
<path d="M30 0H0V30H30V0Z" fill="white"/>
</mask>
<g mask="url(#mask4_3932_38604)">
<mask id="mask5_3932_38604" style="mask-type:luminance" maskUnits="userSpaceOnUse" x="0" y="0" width="30" height="30">
<path d="M30 0H0V30H30V0Z" fill="white"/>
</mask>
<g mask="url(#mask5_3932_38604)">
<mask id="mask6_3932_38604" style="mask-type:luminance" maskUnits="userSpaceOnUse" x="0" y="0" width="30" height="30">
<path d="M30 0H0V30H30V0Z" fill="white"/>
</mask>
<g mask="url(#mask6_3932_38604)">
<mask id="mask7_3932_38604" style="mask-type:luminance" maskUnits="userSpaceOnUse" x="0" y="0" width="30" height="30">
<path d="M30 0H0V30H30V0Z" fill="white"/>
</mask>
<g mask="url(#mask7_3932_38604)">
<mask id="mask8_3932_38604" style="mask-type:luminance" maskUnits="userSpaceOnUse" x="0" y="0" width="30" height="30">
<path d="M30 0H0V30H30V0Z" fill="white"/>
</mask>
<g mask="url(#mask8_3932_38604)">
<mask id="mask9_3932_38604" style="mask-type:luminance" maskUnits="userSpaceOnUse" x="0" y="0" width="30" height="30">
<path d="M30 0H0V30H30V0Z" fill="white"/>
</mask>
<g mask="url(#mask9_3932_38604)">
<mask id="mask10_3932_38604" style="mask-type:luminance" maskUnits="userSpaceOnUse" x="0" y="0" width="30" height="30">
<path d="M30 0H0V30H30V0Z" fill="white"/>
</mask>
<g mask="url(#mask10_3932_38604)">
<mask id="mask11_3932_38604" style="mask-type:luminance" maskUnits="userSpaceOnUse" x="0" y="0" width="30" height="30">
<path d="M30 0H0V30H30V0Z" fill="white"/>
</mask>
<g mask="url(#mask11_3932_38604)">
<mask id="mask12_3932_38604" style="mask-type:luminance" maskUnits="userSpaceOnUse" x="0" y="0" width="30" height="30">
<path d="M30 0H0V30H30V0Z" fill="white"/>
</mask>
<g mask="url(#mask12_3932_38604)">
<mask id="mask13_3932_38604" style="mask-type:luminance" maskUnits="userSpaceOnUse" x="0" y="0" width="30" height="30">
<path d="M30 0H0V30H30V0Z" fill="white"/>
</mask>
<g mask="url(#mask13_3932_38604)">
<path fill-rule="evenodd" clip-rule="evenodd" d="M12.5256 6.71489C12.4591 6.72306 12.3997 6.74184 12.3381 6.77739L11.1819 7.43364C10.9356 7.57584 10.8522 7.90609 10.9944 8.15239L13.1819 11.9336C13.3241 12.1796 13.6231 12.2632 13.8694 12.1211L15.0256 11.4336C15.2719 11.2914 15.3553 10.9924 15.2131 10.7461L13.0256 6.96489C12.919 6.78039 12.7253 6.69039 12.5256 6.71489ZM10.6194 8.21489C9.58882 8.80989 8.78123 9.34634 8.74439 10.6836C8.63832 14.5337 12.3887 20.9662 15.7756 22.9024C16.9955 23.5997 17.8797 23.2286 18.9319 22.6211C18.489 21.854 17.0622 19.3882 16.6194 18.6211C14.1256 20.0609 10.6529 13.5306 12.9319 12.2149C12.489 11.4478 11.0622 8.98189 10.6194 8.21489ZM18.4631 17.0274C18.3966 17.0356 18.3372 17.0543 18.2756 17.0899L17.1506 17.7461C16.9044 17.8884 16.7897 18.2186 16.9319 18.4649L19.1194 22.2461C19.2616 22.4921 19.5919 22.5759 19.8381 22.4336L20.9631 21.7461C21.2094 21.604 21.3241 21.3049 21.1819 21.0586L18.9944 17.2774C18.8878 17.0929 18.6628 17.0029 18.4631 17.0274Z" fill="#1A1A1A"/>
<path d="M14.9951 2.80469C18.3634 2.80479 21.4118 4.16888 23.6167 6.37378C25.8214 8.57858 27.1854 11.6266 27.1855 14.9947C27.1855 18.363 25.8214 21.4118 23.6165 23.6167C21.4117 25.8215 18.3637 27.1854 14.9955 27.1855C11.6272 27.1855 8.57841 25.8215 6.37354 23.6165C4.16876 21.4117 2.80479 18.3636 2.80469 14.9954C2.80474 11.6271 4.16876 8.57856 6.37367 6.37366C8.57848 4.16886 11.6269 2.80479 14.9951 2.80469ZM14.9953 4.25904C12.0332 4.25914 9.34852 5.46214 7.40395 7.40674C5.45927 9.35134 4.25621 12.0356 4.25619 14.9978C4.25627 17.9599 5.45927 20.6444 7.40382 22.5891C9.34848 24.5337 12.0327 25.7368 14.9949 25.7368C17.957 25.7367 20.6416 24.5337 22.5862 22.5892C24.5309 20.6445 25.734 17.9604 25.734 14.9981C25.7339 12.036 24.5309 9.35146 22.5864 7.40686C20.6417 5.46216 17.9575 4.25914 14.9953 4.25904Z" fill="#1A1A1A"/>
</g>
</g>
</g>
</g>
</g>
</g>
</g>
</g>
</g>
</g>
</g>
</g>
</g>
</g>
</g>
<defs>
<clipPath id="clip0_3932_38604">
<rect width="30" height="30" fill="white"/>
</clipPath>
</defs>
</svg>
