<svg width="24" height="24" viewBox="0 0 24 24" fill="none" xmlns="http://www.w3.org/2000/svg">
<path d="M12.8437 12.8437C11.7065 12.8437 10.5948 12.5065 9.64922 11.8747C8.70364 11.2429 7.96665 10.3448 7.53144 9.29418C7.09624 8.2435 6.98237 7.08737 7.20423 5.97198C7.4261 4.85659 7.97373 3.83204 8.77788 3.02789C9.58204 2.22373 10.6065 1.6761 11.7219 1.45423C12.8373 1.23237 13.9935 1.34624 15.0441 1.78144C16.0948 2.21665 16.9928 2.95364 17.6246 3.89922C18.2565 4.8448 18.5937 5.95651 18.5937 7.09375C18.5911 8.61793 17.9844 10.0789 16.9066 11.1567C15.8289 12.2344 14.3679 12.8411 12.8437 12.8437ZM12.8437 2.84375C12.0031 2.84375 11.1814 3.09301 10.4825 3.56C9.78367 4.027 9.23893 4.69076 8.91726 5.46734C8.59559 6.24393 8.51142 7.09846 8.67541 7.92288C8.8394 8.7473 9.24417 9.50458 9.83854 10.0989C10.4329 10.6933 11.1901 11.0981 12.0146 11.2621C12.839 11.4261 13.6935 11.3419 14.4701 11.0202C15.2467 10.6985 15.9104 10.1538 16.3774 9.45492C16.8444 8.75601 17.0937 7.93432 17.0937 7.09375C17.0937 6.53563 16.9838 5.98298 16.7702 5.46734C16.5566 4.95171 16.2436 4.48319 15.8489 4.08855C15.4543 3.6939 14.9857 3.38084 14.4701 3.16726C13.9545 2.95368 13.4018 2.84375 12.8437 2.84375Z" fill="black"/>
<path d="M3.83594 20.8359C3.63702 20.8359 3.44626 20.7569 3.30561 20.6163C3.16495 20.4756 3.08594 20.2848 3.08594 20.0859C3.08594 17.7653 4.00781 15.5397 5.64875 13.8987C7.2897 12.2578 9.51529 11.3359 11.8359 11.3359H13.8359C14.0348 11.3359 14.2256 11.4149 14.3662 11.5556C14.5069 11.6962 14.5859 11.887 14.5859 12.0859C14.5859 12.2848 14.5069 12.4756 14.3662 12.6163C14.2256 12.7569 14.0348 12.8359 13.8359 12.8359H11.8359C9.91393 12.8386 8.0714 13.6033 6.71233 14.9623C5.35327 16.3214 4.58858 18.1639 4.58594 20.0859C4.58335 20.284 4.5035 20.4733 4.3634 20.6134C4.22331 20.7535 4.03404 20.8333 3.83594 20.8359Z" fill="black"/>
<path d="M14.5114 22.6609C14.4126 22.6632 14.3144 22.6448 14.2232 22.6069C14.1319 22.569 14.0496 22.5125 13.9814 22.4409C13.9106 22.372 13.8544 22.2896 13.816 22.1986C13.7776 22.1075 13.7578 22.0097 13.7578 21.9109C13.7578 21.8121 13.7776 21.7144 13.816 21.6233C13.8544 21.5323 13.9106 21.4499 13.9814 21.3809L19.6314 15.7309C19.7001 15.6573 19.7829 15.5982 19.8749 15.5572C19.9669 15.5162 20.0662 15.4941 20.1669 15.4923C20.2676 15.4906 20.3676 15.5091 20.461 15.5468C20.5544 15.5845 20.6392 15.6407 20.7104 15.7119C20.7817 15.7831 20.8378 15.868 20.8755 15.9613C20.9132 16.0547 20.9318 16.1548 20.93 16.2555C20.9282 16.3562 20.9062 16.4555 20.8652 16.5475C20.8242 16.6395 20.7651 16.7223 20.6914 16.7909L15.0014 22.4409C14.8714 22.5731 14.6965 22.6516 14.5114 22.6609Z" fill="black"/>
<path d="M20.1565 22.6626C20.058 22.6631 19.9603 22.6439 19.8693 22.6061C19.7783 22.5683 19.6957 22.5128 19.6265 22.4426L13.9965 16.7926C13.8977 16.7365 13.813 16.6586 13.7487 16.5649C13.6845 16.4713 13.6423 16.3642 13.6255 16.2518C13.6086 16.1395 13.6175 16.0247 13.6515 15.9163C13.6855 15.8079 13.7437 15.7086 13.8217 15.626C13.8996 15.5434 13.9953 15.4795 14.1016 15.4393C14.2078 15.399 14.3219 15.3835 14.435 15.3937C14.5482 15.404 14.6575 15.4398 14.7548 15.4986C14.852 15.5573 14.9347 15.6373 14.9965 15.7326L20.6465 21.3826C20.7173 21.4516 20.7735 21.534 20.8119 21.625C20.8503 21.7161 20.8701 21.8139 20.8701 21.9126C20.8701 22.0114 20.8503 22.1092 20.8119 22.2003C20.7735 22.2913 20.7173 22.3737 20.6465 22.4426C20.5183 22.5773 20.3423 22.6563 20.1565 22.6626Z" fill="black"/>
</svg>
