<svg width="23" height="23" viewBox="0 0 23 23" fill="none" xmlns="http://www.w3.org/2000/svg">
<g clip-path="url(#clip0_3970_3260)">
<mask id="mask0_3970_3260" style="mask-type:luminance" maskUnits="userSpaceOnUse" x="0" y="0" width="23" height="23">
<path d="M23 0H0V23H23V0Z" fill="white"/>
</mask>
<g mask="url(#mask0_3970_3260)">
<mask id="mask1_3970_3260" style="mask-type:luminance" maskUnits="userSpaceOnUse" x="0" y="0" width="23" height="23">
<path d="M23 0H0V23H23V0Z" fill="white"/>
</mask>
<g mask="url(#mask1_3970_3260)">
<mask id="mask2_3970_3260" style="mask-type:luminance" maskUnits="userSpaceOnUse" x="0" y="0" width="23" height="23">
<path d="M23 0H0V23H23V0Z" fill="white"/>
</mask>
<g mask="url(#mask2_3970_3260)">
<mask id="mask3_3970_3260" style="mask-type:luminance" maskUnits="userSpaceOnUse" x="0" y="0" width="23" height="23">
<path d="M23 0H0V23H23V0Z" fill="white"/>
</mask>
<g mask="url(#mask3_3970_3260)">
<mask id="mask4_3970_3260" style="mask-type:luminance" maskUnits="userSpaceOnUse" x="0" y="0" width="23" height="23">
<path d="M23 0H0V23H23V0Z" fill="white"/>
</mask>
<g mask="url(#mask4_3970_3260)">
<mask id="mask5_3970_3260" style="mask-type:luminance" maskUnits="userSpaceOnUse" x="0" y="0" width="23" height="23">
<path d="M23 0H0V23H23V0Z" fill="white"/>
</mask>
<g mask="url(#mask5_3970_3260)">
<mask id="mask6_3970_3260" style="mask-type:luminance" maskUnits="userSpaceOnUse" x="0" y="0" width="23" height="23">
<path d="M23 0H0V23H23V0Z" fill="white"/>
</mask>
<g mask="url(#mask6_3970_3260)">
<mask id="mask7_3970_3260" style="mask-type:luminance" maskUnits="userSpaceOnUse" x="0" y="0" width="23" height="23">
<path d="M23 0H0V23H23V0Z" fill="white"/>
</mask>
<g mask="url(#mask7_3970_3260)">
<mask id="mask8_3970_3260" style="mask-type:luminance" maskUnits="userSpaceOnUse" x="0" y="0" width="23" height="23">
<path d="M23 0H0V23H23V0Z" fill="white"/>
</mask>
<g mask="url(#mask8_3970_3260)">
<mask id="mask9_3970_3260" style="mask-type:luminance" maskUnits="userSpaceOnUse" x="0" y="0" width="23" height="23">
<path d="M23 0H0V23H23V0Z" fill="white"/>
</mask>
<g mask="url(#mask9_3970_3260)">
<mask id="mask10_3970_3260" style="mask-type:luminance" maskUnits="userSpaceOnUse" x="0" y="0" width="23" height="23">
<path d="M23 0H0V23H23V0Z" fill="white"/>
</mask>
<g mask="url(#mask10_3970_3260)">
<mask id="mask11_3970_3260" style="mask-type:luminance" maskUnits="userSpaceOnUse" x="0" y="0" width="23" height="23">
<path d="M23 0H0V23H23V0Z" fill="white"/>
</mask>
<g mask="url(#mask11_3970_3260)">
<path d="M20.47 10.8888C20.3188 11.0123 20.2217 11.19 20.1994 11.384C20.1604 11.9251 20.2062 12.469 20.3351 12.996C20.6701 14.2951 20.9553 14.4089 20.9572 14.7528C20.9576 14.8316 20.9401 14.9094 20.906 14.9804C20.872 15.0514 20.8222 15.1138 20.7606 15.1628C20.6989 15.2118 20.6269 15.2462 20.55 15.2634C20.4731 15.2805 20.3933 15.28 20.3167 15.2618C19.0248 15.2722 17.1523 12.8261 16.9192 12.595C16.8517 12.5416 16.779 12.4951 16.7022 12.4562C16.4511 12.3619 15.6289 12.498 15.3333 12.4984C11.099 12.4984 7.66667 9.70231 7.66667 6.25308C7.66667 2.80385 11.099 0.0078125 15.3333 0.0078125C19.5676 0.0078125 23 2.80385 23 6.25308C23 8.09308 22.0225 9.74677 20.47 10.8888ZM15.3333 14.8567C15.4771 14.8567 15.6216 14.8471 15.7696 14.834C16.1584 15.2738 16.572 15.6909 17.0085 16.0833C15.3893 18.2323 12.5101 19.6755 9.2 19.6755C8.84427 19.6755 7.85833 19.5115 7.55703 19.6249C7.46506 19.6719 7.378 19.7279 7.29714 19.7921C7.0173 20.0711 4.7702 23.0217 3.22 23.0094C3.12795 23.0309 3.03222 23.0311 2.94004 23.0103C2.84786 22.9894 2.76162 22.9478 2.68781 22.8888C2.61401 22.8297 2.55456 22.7547 2.51394 22.6694C2.47332 22.584 2.4526 22.4906 2.45333 22.3961C2.45333 21.9813 2.79833 21.8441 3.19968 20.277C3.35414 19.6412 3.40911 18.9853 3.3626 18.3327C3.33587 18.099 3.21947 17.8847 3.03791 17.7351C1.17261 16.3551 0 14.3618 0 12.1427C0 9.08016 2.23675 6.45356 5.44103 5.27596C5.3936 5.60893 5.36876 5.94473 5.36667 6.28106C5.36667 11.0095 9.83787 14.8567 15.3333 14.8567Z" fill="#699F4C"/>
</g>
</g>
</g>
</g>
</g>
</g>
</g>
</g>
</g>
</g>
</g>
</g>
</g>
<defs>
<clipPath id="clip0_3970_3260">
<rect width="23" height="23" fill="white"/>
</clipPath>
</defs>
</svg>
