<svg width="19" height="19" viewBox="0 0 19 19" fill="none" xmlns="http://www.w3.org/2000/svg">
<g clip-path="url(#clip0_3970_2)">
<mask id="mask0_3970_2" style="mask-type:luminance" maskUnits="userSpaceOnUse" x="0" y="0" width="19" height="19">
<path d="M19 0H0V19H19V0Z" fill="white"/>
</mask>
<g mask="url(#mask0_3970_2)">
<mask id="mask1_3970_2" style="mask-type:luminance" maskUnits="userSpaceOnUse" x="0" y="0" width="19" height="19">
<path d="M19 0H0V19H19V0Z" fill="white"/>
</mask>
<g mask="url(#mask1_3970_2)">
<mask id="mask2_3970_2" style="mask-type:luminance" maskUnits="userSpaceOnUse" x="0" y="0" width="19" height="19">
<path d="M19 0H0V19H19V0Z" fill="white"/>
</mask>
<g mask="url(#mask2_3970_2)">
<mask id="mask3_3970_2" style="mask-type:luminance" maskUnits="userSpaceOnUse" x="0" y="0" width="19" height="19">
<path d="M19 0H0V19H19V0Z" fill="white"/>
</mask>
<g mask="url(#mask3_3970_2)">
<mask id="mask4_3970_2" style="mask-type:luminance" maskUnits="userSpaceOnUse" x="0" y="0" width="19" height="19">
<path d="M19 0H0V19H19V0Z" fill="white"/>
</mask>
<g mask="url(#mask4_3970_2)">
<mask id="mask5_3970_2" style="mask-type:luminance" maskUnits="userSpaceOnUse" x="0" y="0" width="19" height="19">
<path d="M19 0H0V19H19V0Z" fill="white"/>
</mask>
<g mask="url(#mask5_3970_2)">
<path d="M15.3438 0.640625H3.34375C1.96303 0.640625 0.84375 1.75991 0.84375 3.14062V15.1406C0.84375 16.5213 1.96303 17.6406 3.34375 17.6406H15.3438C16.7245 17.6406 17.8438 16.5213 17.8438 15.1406V3.14062C17.8438 1.75991 16.7245 0.640625 15.3438 0.640625Z" fill="#34BEBA" stroke="#34BEBA"/>
<path d="M3.50949 8.64648C3.68569 8.47033 3.9247 8.37131 4.17386 8.37131C4.42301 8.37131 4.66195 8.47027 4.83817 8.64642L7.6052 11.4135L13.837 4.87049C14.0087 4.68983 14.2451 4.58477 14.4943 4.57843C14.7434 4.57208 14.9849 4.66498 15.1656 4.83667C15.3462 5.00836 15.4513 5.24479 15.4576 5.49395C15.464 5.7431 15.3711 5.98457 15.1994 6.16524L11.7511 9.78595L8.30313 13.4063L3.50949 8.64648ZM3.50949 8.64648C3.33334 8.82268 3.23438 9.06164 3.23438 9.31079C3.23438 9.55994 3.33334 9.7989 3.50949 9.9751L6.9576 13.4233C6.95761 13.4233 6.95759 13.4233 6.9576 13.4233C7.13377 13.5995 7.37275 13.6985 7.62191 13.6986H7.63025M7.63319 13.6986C7.75873 13.6971 7.88269 13.6705 7.99776 13.6203C8.11275 13.5701 8.21668 13.4972 8.30313 13.4063L7.63319 13.6986Z" fill="white"/>
<path d="M3.50949 8.64648C3.6857 8.47033 3.9247 8.37131 4.17386 8.37131C4.42301 8.37131 4.66196 8.47027 4.83817 8.64642L7.6052 11.4135L13.837 4.87049C14.0087 4.68983 14.2451 4.58477 14.4943 4.57843C14.7434 4.57208 14.9849 4.66498 15.1656 4.83667C15.3462 5.00836 15.4513 5.24479 15.4576 5.49395C15.464 5.7431 15.3711 5.98457 15.1994 6.16524L11.7511 9.78595L8.30313 13.4063M3.50949 8.64648L8.30313 13.4063M3.50949 8.64648C3.33334 8.82268 3.23438 9.06164 3.23438 9.31079C3.23438 9.55994 3.33334 9.7989 3.50949 9.9751L6.9576 13.4233M3.50949 8.64648L7.63025 13.6986M8.30313 13.4063C8.21668 13.4972 8.11275 13.5701 7.99776 13.6203C7.88269 13.6705 7.75872 13.6971 7.63319 13.6986M8.30313 13.4063L7.63319 13.6986M6.9576 13.4233C6.95759 13.4233 6.95761 13.4233 6.9576 13.4233ZM6.9576 13.4233C7.13377 13.5995 7.37274 13.6985 7.62191 13.6986H7.63025M7.63025 13.6986H7.63319" stroke="white" stroke-width="0.5" stroke-linejoin="round"/>
</g>
</g>
</g>
</g>
</g>
</g>
</g>
<defs>
<clipPath id="clip0_3970_2">
<rect width="19" height="19" fill="white"/>
</clipPath>
</defs>
</svg>
