<svg width="41" height="41" viewBox="0 0 41 41" fill="none" xmlns="http://www.w3.org/2000/svg">
<g clip-path="url(#clip0_3970_57)">
<mask id="mask0_3970_57" style="mask-type:luminance" maskUnits="userSpaceOnUse" x="0" y="0" width="41" height="41">
<path d="M41 0H0V41H41V0Z" fill="white"/>
</mask>
<g mask="url(#mask0_3970_57)">
<mask id="mask1_3970_57" style="mask-type:luminance" maskUnits="userSpaceOnUse" x="0" y="0" width="41" height="41">
<path d="M41 0H0V41H41V0Z" fill="white"/>
</mask>
<g mask="url(#mask1_3970_57)">
<mask id="mask2_3970_57" style="mask-type:luminance" maskUnits="userSpaceOnUse" x="0" y="0" width="41" height="41">
<path d="M41 0H0V41H41V0Z" fill="white"/>
</mask>
<g mask="url(#mask2_3970_57)">
<mask id="mask3_3970_57" style="mask-type:luminance" maskUnits="userSpaceOnUse" x="0" y="0" width="41" height="41">
<path d="M41 0H0V41H41V0Z" fill="white"/>
</mask>
<g mask="url(#mask3_3970_57)">
<mask id="mask4_3970_57" style="mask-type:luminance" maskUnits="userSpaceOnUse" x="0" y="0" width="41" height="41">
<path d="M41 0H0V41H41V0Z" fill="white"/>
</mask>
<g mask="url(#mask4_3970_57)">
<mask id="mask5_3970_57" style="mask-type:luminance" maskUnits="userSpaceOnUse" x="0" y="0" width="41" height="41">
<path d="M41 0H0V41H41V0Z" fill="white"/>
</mask>
<g mask="url(#mask5_3970_57)">
<mask id="mask6_3970_57" style="mask-type:luminance" maskUnits="userSpaceOnUse" x="0" y="0" width="41" height="41">
<path d="M41 0H0V41H41V0Z" fill="white"/>
</mask>
<g mask="url(#mask6_3970_57)">
<mask id="mask7_3970_57" style="mask-type:luminance" maskUnits="userSpaceOnUse" x="0" y="0" width="41" height="41">
<path d="M41 0H0V41H41V0Z" fill="white"/>
</mask>
<g mask="url(#mask7_3970_57)">
<mask id="mask8_3970_57" style="mask-type:luminance" maskUnits="userSpaceOnUse" x="0" y="0" width="41" height="41">
<path d="M41 0H0V41H41V0Z" fill="white"/>
</mask>
<g mask="url(#mask8_3970_57)">
<mask id="mask9_3970_57" style="mask-type:luminance" maskUnits="userSpaceOnUse" x="0" y="0" width="41" height="41">
<path d="M41 0H0V41H41V0Z" fill="white"/>
</mask>
<g mask="url(#mask9_3970_57)">
<mask id="mask10_3970_57" style="mask-type:luminance" maskUnits="userSpaceOnUse" x="0" y="0" width="41" height="41">
<path d="M41 0H0V41H41V0Z" fill="white"/>
</mask>
<g mask="url(#mask10_3970_57)">
<mask id="mask11_3970_57" style="mask-type:luminance" maskUnits="userSpaceOnUse" x="0" y="0" width="41" height="41">
<path d="M41 0H0V41H41V0Z" fill="white"/>
</mask>
<g mask="url(#mask11_3970_57)">
<mask id="mask12_3970_57" style="mask-type:luminance" maskUnits="userSpaceOnUse" x="0" y="0" width="41" height="41">
<path d="M41 0H0V41H41V0Z" fill="white"/>
</mask>
<g mask="url(#mask12_3970_57)">
<path d="M20.8906 40.2187C31.9363 40.2187 40.8906 31.2644 40.8906 20.2187C40.8906 9.17306 31.9363 0.21875 20.8906 0.21875C9.84493 0.21875 0.890625 9.17306 0.890625 20.2187C0.890625 31.2644 9.84493 40.2187 20.8906 40.2187Z" fill="#34BEBA"/>
<mask id="mask13_3970_57" style="mask-type:luminance" maskUnits="userSpaceOnUse" x="9" y="8" width="22" height="24">
<path d="M30.2656 8.92969H9.26562V31.9297H30.2656V8.92969Z" fill="white"/>
</mask>
<g mask="url(#mask13_3970_57)">
<path d="M14.7907 10.0234C15.408 10.0234 15.8939 10.5053 15.8939 11.1186C15.8939 11.732 15.408 12.2139 14.7907 12.2139C14.1734 12.2139 13.6875 11.732 13.6875 11.1186C13.6875 10.5053 14.1734 10.0234 14.7907 10.0234Z" fill="white"/>
<path d="M10.9467 14.9297C11.8748 14.9297 12.6277 15.6745 12.6277 16.5945C12.6277 17.5145 11.8748 18.2593 10.9467 18.2593C10.0186 18.2593 9.26562 17.5145 9.26562 16.5945C9.26562 15.6745 10.0186 14.9297 10.9467 14.9297Z" fill="white"/>
<path d="M28.6345 11.1172C29.2517 11.1172 29.7377 11.5991 29.7377 12.2125C29.7377 12.8258 29.2517 13.3077 28.6345 13.3077C28.0172 13.3077 27.5313 12.8258 27.5313 12.2125C27.5269 11.5991 28.0128 11.1172 28.6345 11.1172Z" fill="white"/>
<path d="M27.7953 22.5974C26.7359 22.5974 25.8516 21.7212 25.8516 20.6698C25.8516 19.9688 26.2062 19.3993 26.7796 19.0488C27.0905 18.8736 27.4407 18.7422 27.7953 18.7422C28.8547 18.7422 29.739 19.6184 29.739 20.6698C29.739 21.546 29.1655 22.2469 28.3688 22.5098C28.1936 22.5536 27.9704 22.5974 27.7953 22.5974Z" fill="white"/>
<path d="M28.3205 22.5106C28.1454 22.5544 27.9659 22.5983 27.747 22.5983C26.6876 22.5983 25.8033 21.7221 25.8033 20.6706C25.8033 19.9697 26.2016 19.4002 26.7313 19.0497C25.9784 18.2611 25.0065 17.6478 23.9033 17.3411V14.9316H22.5287V8.92969H20.318V14.9316H18.9477V17.2535C19.3899 17.1659 19.832 17.1221 20.2742 17.1221H22.3098C22.6469 17.1221 22.984 17.1615 23.3211 17.2184C22.9884 17.1659 22.6382 17.1352 22.3098 17.1659H20.2304C19.7883 17.1659 19.3461 17.2097 18.904 17.2973C16.4262 17.823 14.5262 19.8821 14.2198 22.4668L12.5781 31.9297H15.8964C15.8964 31.9165 15.8921 31.899 15.8921 31.8859V26.9792C15.8921 26.6725 16.1591 26.4097 16.4656 26.4097C16.7764 26.4097 16.9953 26.6725 16.9953 26.9792V31.9297H18.6369C18.6369 31.9165 18.6325 31.899 18.6325 31.8859V28.6002C18.6325 28.2935 18.8996 28.0306 19.206 28.0306C19.5168 28.0306 19.7795 28.2935 19.7795 28.6002V31.8859C19.7795 31.899 19.7751 31.9165 19.7751 31.9297H20.8477C20.8477 31.9165 20.8433 31.899 20.8433 31.8859V26.4535C20.8433 26.1468 21.1103 25.884 21.4168 25.884C21.7276 25.884 21.9903 26.1468 21.9903 26.4535V31.9297H24.1572L25.8383 28.0744L28.049 31.9297H30.2598L28.3205 22.5106Z" fill="white"/>
</g>
</g>
</g>
</g>
</g>
</g>
</g>
</g>
</g>
</g>
</g>
</g>
</g>
</g>
</g>
<defs>
<clipPath id="clip0_3970_57">
<rect width="41" height="41" fill="white"/>
</clipPath>
</defs>
</svg>
