<svg width="15" height="15" viewBox="0 0 15 15" fill="none" xmlns="http://www.w3.org/2000/svg">
<g clip-path="url(#clip0_3970_667)">
<mask id="mask0_3970_667" style="mask-type:luminance" maskUnits="userSpaceOnUse" x="0" y="0" width="15" height="15">
<path d="M15 0H0V15H15V0Z" fill="white"/>
</mask>
<g mask="url(#mask0_3970_667)">
<mask id="mask1_3970_667" style="mask-type:luminance" maskUnits="userSpaceOnUse" x="0" y="0" width="15" height="15">
<path d="M15 0H0V15H15V0Z" fill="white"/>
</mask>
<g mask="url(#mask1_3970_667)">
<mask id="mask2_3970_667" style="mask-type:luminance" maskUnits="userSpaceOnUse" x="0" y="0" width="15" height="15">
<path d="M15 0H0V15H15V0Z" fill="white"/>
</mask>
<g mask="url(#mask2_3970_667)">
<mask id="mask3_3970_667" style="mask-type:luminance" maskUnits="userSpaceOnUse" x="0" y="0" width="15" height="15">
<path d="M15 0H0V15H15V0Z" fill="white"/>
</mask>
<g mask="url(#mask3_3970_667)">
<mask id="mask4_3970_667" style="mask-type:luminance" maskUnits="userSpaceOnUse" x="0" y="0" width="15" height="15">
<path d="M15 0H0V15H15V0Z" fill="white"/>
</mask>
<g mask="url(#mask4_3970_667)">
<mask id="mask5_3970_667" style="mask-type:luminance" maskUnits="userSpaceOnUse" x="0" y="0" width="15" height="15">
<path d="M15 0H0V15H15V0Z" fill="white"/>
</mask>
<g mask="url(#mask5_3970_667)">
<path fill-rule="evenodd" clip-rule="evenodd" d="M9.97637 5.02926C10.1716 5.22452 10.1716 5.5411 9.97637 5.73636L5.73637 9.97636C5.54111 10.1717 5.22452 10.1717 5.02926 9.97636C4.834 9.7811 4.834 9.46452 5.02926 9.26926L9.26926 5.02926C9.46452 4.834 9.78111 4.834 9.97637 5.02926Z" fill="#8C8A8B"/>
<path fill-rule="evenodd" clip-rule="evenodd" d="M5.02926 5.02926C5.22452 4.834 5.54111 4.834 5.73637 5.02926L9.97637 9.26926C10.1716 9.46452 10.1716 9.7811 9.97637 9.97636C9.78111 10.1717 9.46452 10.1717 9.26926 9.97636L5.02926 5.73636C4.834 5.5411 4.834 5.22452 5.02926 5.02926Z" fill="#8C8A8B"/>
<path fill-rule="evenodd" clip-rule="evenodd" d="M7.5 1.5C4.18629 1.5 1.5 4.18629 1.5 7.5C1.5 10.8137 4.18629 13.5 7.5 13.5C10.8137 13.5 13.5 10.8137 13.5 7.5C13.5 4.18629 10.8137 1.5 7.5 1.5ZM0.5 7.5C0.5 3.63401 3.63401 0.5 7.5 0.5C11.366 0.5 14.5 3.63401 14.5 7.5C14.5 11.366 11.366 14.5 7.5 14.5C3.63401 14.5 0.5 11.366 0.5 7.5Z" fill="#8C8A8B"/>
</g>
</g>
</g>
</g>
</g>
</g>
</g>
<defs>
<clipPath id="clip0_3970_667">
<rect width="15" height="15" fill="white"/>
</clipPath>
</defs>
</svg>
