<svg width="17" height="17" viewBox="0 0 17 17" fill="none" xmlns="http://www.w3.org/2000/svg">
<g clip-path="url(#clip0_3970_479)">
<mask id="mask0_3970_479" style="mask-type:luminance" maskUnits="userSpaceOnUse" x="0" y="0" width="17" height="17">
<path d="M17 0H0V17H17V0Z" fill="white"/>
</mask>
<g mask="url(#mask0_3970_479)">
<mask id="mask1_3970_479" style="mask-type:luminance" maskUnits="userSpaceOnUse" x="0" y="0" width="17" height="17">
<path d="M17 0H0V17H17V0Z" fill="white"/>
</mask>
<g mask="url(#mask1_3970_479)">
<mask id="mask2_3970_479" style="mask-type:luminance" maskUnits="userSpaceOnUse" x="0" y="0" width="17" height="17">
<path d="M17 0H0V17H17V0Z" fill="white"/>
</mask>
<g mask="url(#mask2_3970_479)">
<path d="M12.5385 1H4.46154C2.54978 1 1 2.54978 1 4.46154V12.5385C1 14.4502 2.54978 16 4.46154 16H12.5385C14.4502 16 16 14.4502 16 12.5385V4.46154C16 2.54978 14.4502 1 12.5385 1Z" fill="#8C8A8B" stroke="#8C8A8B" stroke-width="1.15" stroke-linecap="round" stroke-linejoin="round"/>
<path d="M4.83594 8.82823L6.70721 11.2103C6.75712 11.2757 6.82099 11.3292 6.89417 11.3668C6.96735 11.4045 7.048 11.4253 7.13025 11.4279C7.21303 11.4316 7.29564 11.4174 7.37245 11.3864C7.44926 11.3553 7.51848 11.308 7.57539 11.2478L12.6294 5.91406" stroke="white" stroke-linecap="round" stroke-linejoin="round"/>
</g>
</g>
</g>
</g>
<defs>
<clipPath id="clip0_3970_479">
<rect width="17" height="17" fill="white"/>
</clipPath>
</defs>
</svg>
