<svg width="18" height="16" viewBox="0 0 18 16" fill="none" xmlns="http://www.w3.org/2000/svg">
<g clip-path="url(#clip0_3970_759)">
<mask id="mask0_3970_759" style="mask-type:luminance" maskUnits="userSpaceOnUse" x="0" y="0" width="18" height="16">
<path d="M18 0H0V16H18V0Z" fill="white"/>
</mask>
<g mask="url(#mask0_3970_759)">
<mask id="mask1_3970_759" style="mask-type:luminance" maskUnits="userSpaceOnUse" x="0" y="0" width="18" height="16">
<path d="M18 0H0V16H18V0Z" fill="white"/>
</mask>
<g mask="url(#mask1_3970_759)">
<mask id="mask2_3970_759" style="mask-type:luminance" maskUnits="userSpaceOnUse" x="0" y="0" width="18" height="16">
<path d="M18 0H0V16H18V0Z" fill="white"/>
</mask>
<g mask="url(#mask2_3970_759)">
<path d="M9 5.84375V9.07602" stroke="#EC5A5A" stroke-width="1.115" stroke-linecap="round" stroke-linejoin="round"/>
<path d="M8.99965 12.8431C9.29717 12.8431 9.53836 12.6019 9.53836 12.3043C9.53836 12.0068 9.29717 11.7656 8.99965 11.7656C8.70213 11.7656 8.46094 12.0068 8.46094 12.3043C8.46094 12.6019 8.70213 12.8431 8.99965 12.8431Z" stroke="#EC5A5A" stroke-width="1.115" stroke-linecap="round" stroke-linejoin="round"/>
<path d="M10.0959 1.58616C9.99256 1.40967 9.83557 1.26157 9.64221 1.15815C9.44885 1.05472 9.22662 1 9 1C8.77338 1 8.55115 1.05472 8.35779 1.15815C8.16443 1.26157 8.00744 1.40967 7.90411 1.58616L1.13172 13.4377C1.03727 13.6018 0.992292 13.7842 1.00108 13.9677C1.00986 14.1512 1.07211 14.3297 1.18191 14.4862C1.29172 14.6427 1.44543 14.7721 1.62844 14.862C1.81146 14.9519 2.01772 14.9994 2.22762 15H15.7724C15.9823 14.9994 16.1885 14.9519 16.3716 14.862C16.5546 14.7721 16.7083 14.6427 16.8181 14.4862C16.9279 14.3297 16.9901 14.1512 16.9989 13.9677C17.0077 13.7842 16.9627 13.6018 16.8683 13.4377L10.0959 1.58616Z" stroke="#EC5A5A" stroke-width="1.115" stroke-linecap="round" stroke-linejoin="round"/>
</g>
</g>
</g>
</g>
<defs>
<clipPath id="clip0_3970_759">
<rect width="18" height="16" fill="white"/>
</clipPath>
</defs>
</svg>
