<svg width="71" height="71" viewBox="0 0 71 71" fill="none" xmlns="http://www.w3.org/2000/svg">
<g clip-path="url(#clip0_3970_1505)">
<mask id="mask0_3970_1505" style="mask-type:luminance" maskUnits="userSpaceOnUse" x="0" y="0" width="71" height="71">
<path d="M71 0H0V71H71V0Z" fill="white"/>
</mask>
<g mask="url(#mask0_3970_1505)">
<mask id="mask1_3970_1505" style="mask-type:luminance" maskUnits="userSpaceOnUse" x="0" y="0" width="71" height="71">
<path d="M71 0H0V71H71V0Z" fill="white"/>
</mask>
<g mask="url(#mask1_3970_1505)">
<mask id="mask2_3970_1505" style="mask-type:luminance" maskUnits="userSpaceOnUse" x="0" y="0" width="71" height="71">
<path d="M71 0H0V71H71V0Z" fill="white"/>
</mask>
<g mask="url(#mask2_3970_1505)">
<path d="M35.5 71C55.1061 71 71 55.1061 71 35.5C71 15.8939 55.1061 0 35.5 0C15.8939 0 0 15.8939 0 35.5C0 55.1061 15.8939 71 35.5 71Z" fill="#D9D9D9"/>
<mask id="mask3_3970_1505" style="mask-type:luminance" maskUnits="userSpaceOnUse" x="23" y="24" width="25" height="23">
<path d="M47.47 24H23V46.53H47.47V24Z" fill="white"/>
</mask>
<g mask="url(#mask3_3970_1505)">
<path fill-rule="evenodd" clip-rule="evenodd" d="M27.43 31.0288C28.3585 31.0395 29.2536 30.683 29.9203 30.0368C30.5871 29.3906 30.9716 28.5071 30.99 27.5788C30.9926 27.1096 30.9025 26.6445 30.7248 26.2103C30.547 25.776 30.2852 25.3812 29.9544 25.0485C29.6236 24.7158 29.2302 24.4518 28.797 24.2717C28.3638 24.0915 27.8992 23.9988 27.43 23.9988C26.9556 23.9865 26.4836 24.0706 26.0426 24.2459C25.6016 24.4212 25.2008 24.6841 24.8643 25.0188C24.5278 25.3534 24.2626 25.7528 24.0848 26.1928C23.9071 26.6328 23.8204 27.1043 23.83 27.5788C23.8325 28.0413 23.9274 28.4987 24.1092 28.924C24.291 29.3493 24.556 29.734 24.8886 30.0555C25.2212 30.3769 25.6147 30.6286 26.046 30.7957C26.4773 30.9629 26.9376 31.0421 27.4 31.0288H27.43ZM35.24 46.5288C37.9895 46.5195 40.6631 45.6259 42.8655 43.9799C45.0679 42.334 46.6823 40.023 47.47 37.3888L23 37.2988C23.7561 39.9607 25.3609 42.3028 27.5703 43.9689C29.7797 45.635 32.4728 46.5338 35.24 46.5288ZM42.75 31.0288C43.6794 31.0395 44.5756 30.6833 45.244 30.0374C45.9123 29.3915 46.299 28.508 46.32 27.5788C46.354 26.8544 46.1697 26.1365 45.7909 25.5182C45.4121 24.8998 44.8563 24.4094 44.1956 24.1106C43.5348 23.8119 42.7996 23.7184 42.0851 23.8424C41.3706 23.9663 40.7098 24.302 40.1884 24.806C39.6669 25.3099 39.3088 25.9588 39.1605 26.6686C39.0122 27.3785 39.0805 28.1165 39.3565 28.7871C39.6326 29.4576 40.1036 30.0298 40.7087 30.4295C41.3137 30.8292 42.0249 31.038 42.75 31.0288Z" fill="#8C8A8B"/>
</g>
</g>
</g>
</g>
</g>
<defs>
<clipPath id="clip0_3970_1505">
<rect width="71" height="71" fill="white"/>
</clipPath>
</defs>
</svg>
