<svg width="13" height="17" viewBox="0 0 13 17" fill="none" xmlns="http://www.w3.org/2000/svg">
<g clip-path="url(#clip0_3911_84608)">
<mask id="mask0_3911_84608" style="mask-type:luminance" maskUnits="userSpaceOnUse" x="0" y="0" width="13" height="17">
<path d="M13 0H0V17H13V0Z" fill="white"/>
</mask>
<g mask="url(#mask0_3911_84608)">
<mask id="mask1_3911_84608" style="mask-type:luminance" maskUnits="userSpaceOnUse" x="0" y="0" width="13" height="17">
<path d="M13 0H0V17H13V0Z" fill="white"/>
</mask>
<g mask="url(#mask1_3911_84608)">
<mask id="mask2_3911_84608" style="mask-type:luminance" maskUnits="userSpaceOnUse" x="0" y="0" width="13" height="17">
<path d="M13 0H0V17H13V0Z" fill="white"/>
</mask>
<g mask="url(#mask2_3911_84608)">
<mask id="mask3_3911_84608" style="mask-type:luminance" maskUnits="userSpaceOnUse" x="0" y="0" width="13" height="17">
<path d="M13 0H0V17H13V0Z" fill="white"/>
</mask>
<g mask="url(#mask3_3911_84608)">
<mask id="mask4_3911_84608" style="mask-type:luminance" maskUnits="userSpaceOnUse" x="0" y="0" width="13" height="17">
<path d="M13 0H0V17H13V0Z" fill="white"/>
</mask>
<g mask="url(#mask4_3911_84608)">
<mask id="mask5_3911_84608" style="mask-type:luminance" maskUnits="userSpaceOnUse" x="0" y="0" width="13" height="17">
<path d="M13 0H0V17H13V0Z" fill="white"/>
</mask>
<g mask="url(#mask5_3911_84608)">
<mask id="mask6_3911_84608" style="mask-type:luminance" maskUnits="userSpaceOnUse" x="0" y="0" width="13" height="17">
<path d="M13 0H0V17H13V0Z" fill="white"/>
</mask>
<g mask="url(#mask6_3911_84608)">
<mask id="mask7_3911_84608" style="mask-type:luminance" maskUnits="userSpaceOnUse" x="0" y="0" width="13" height="17">
<path d="M13 0H0V17H13V0Z" fill="white"/>
</mask>
<g mask="url(#mask7_3911_84608)">
<path fill-rule="evenodd" clip-rule="evenodd" d="M6.61719 4.00781C6.61719 4.00781 7.78216 4.00781 8.60593 4.83157C8.60593 4.83157 9.42969 5.65533 9.42969 6.82031C9.42969 6.82031 9.42969 7.98528 8.60593 8.80904C8.60593 8.80904 7.78216 9.63281 6.61719 9.63281C6.61719 9.63281 5.45221 9.63281 4.62845 8.80904C4.62845 8.80904 3.80469 7.98528 3.80469 6.82031C3.80469 6.82031 3.80469 5.65533 4.62845 4.83157C4.62845 4.83157 5.45221 4.00781 6.61719 4.00781ZM6.61719 5.13281C6.61719 5.13281 5.9182 5.13281 5.42395 5.62706C5.42395 5.62706 4.92969 6.12132 4.92969 6.82031C4.92969 6.82031 4.92969 7.51929 5.42395 8.01355C5.42395 8.01355 5.9182 8.50781 6.61719 8.50781C6.61719 8.50781 7.31617 8.50781 7.81043 8.01355C7.81043 8.01355 8.30469 7.51929 8.30469 6.82031C8.30469 6.82031 8.30469 6.12132 7.81043 5.62706C7.81043 5.62706 7.31617 5.13281 6.61719 5.13281Z" fill="#34BEBA"/>
<path fill-rule="evenodd" clip-rule="evenodd" d="M12.3337 4.45246C12.3337 4.45246 12.8047 5.58955 12.8047 6.82032C12.8047 6.82032 12.8047 10.1947 9.85415 13.5878C9.85415 13.5878 8.94741 14.6306 7.8604 15.5545C7.8604 15.5545 7.31295 16.0199 6.93976 16.2811C6.74608 16.4167 6.4883 16.4167 6.29461 16.2811C6.29461 16.2811 5.92143 16.0199 5.37398 15.5545C5.37398 15.5545 4.28697 14.6306 3.38022 13.5878C3.38022 13.5878 0.429688 10.1947 0.429688 6.82032C0.429688 6.82032 0.429686 5.58955 0.900681 4.45246C0.900681 4.45246 1.37168 3.31538 2.24196 2.44509C2.24196 2.44509 3.11225 1.57481 4.24933 1.10381C4.24933 1.10381 5.38642 0.632812 6.61719 0.632812C6.61719 0.632812 7.84796 0.632812 8.98504 1.10381C8.98504 1.10381 10.1221 1.57481 10.9924 2.44509C10.9924 2.44509 11.8627 3.31538 12.3337 4.45246ZM11.6797 6.82032C11.6797 6.82032 11.6797 5.81332 11.2943 4.88298C11.2943 4.88298 10.909 3.95264 10.1969 3.24059C10.1969 3.24059 9.48486 2.52854 8.55452 2.14318C8.55452 2.14318 7.62418 1.75782 6.61719 1.75782C6.61719 1.75782 5.61019 1.75782 4.67985 2.14318C4.67985 2.14318 3.74951 2.52854 3.03746 3.24059C3.03746 3.24059 2.32541 3.95264 1.94005 4.88298C1.94005 4.88298 1.55469 5.81332 1.55469 6.82032C1.55469 6.82032 1.55469 9.77401 4.22915 12.8496C4.22915 12.8496 5.08022 13.8283 6.10258 14.6973C6.10258 14.6973 6.38795 14.9399 6.61719 15.1191C6.61719 15.1191 6.84643 14.9399 7.13179 14.6973C7.13179 14.6973 8.15416 13.8283 9.00522 12.8496C9.00522 12.8496 11.6797 9.77402 11.6797 6.82032Z" fill="#34BEBA"/>
</g>
</g>
</g>
</g>
</g>
</g>
</g>
</g>
</g>
<defs>
<clipPath id="clip0_3911_84608">
<rect width="13" height="17" fill="white"/>
</clipPath>
</defs>
</svg>
