<svg width="42" height="42" viewBox="0 0 42 42" fill="none" xmlns="http://www.w3.org/2000/svg">
<path d="M40.5234 21C40.5234 31.6805 31.8573 40.3594 21.1559 40.3594C15.7231 40.3594 10.8319 38.0953 7.31951 34.4859V37.6031C7.31951 38.5219 6.58092 39.2602 5.66178 39.2602C4.74265 39.2602 4.00405 38.5219 4.00405 37.6031V29.8594C4.00405 28.9406 4.74265 28.2023 5.66178 28.2023H13.4088C14.3279 28.2023 15.0665 28.9406 15.0665 29.8594C15.0665 30.7781 14.3279 31.5164 13.4088 31.5164H9.09214C12.0301 34.8961 16.3303 37.0453 21.1559 37.0453C30.019 37.0453 37.208 29.8594 37.208 21C37.208 20.8195 37.1916 20.6391 37.1751 20.4422H37.3065C37.5362 19.8023 38.1271 19.343 38.8493 19.343C39.5715 19.343 40.1623 19.8023 40.3921 20.4422H40.4742C40.507 20.6391 40.5234 20.8195 40.5234 21ZM36.6499 13.8141H28.9029C27.9838 13.8141 27.2452 13.0758 27.2452 12.157C27.2452 11.2383 27.9838 10.5 28.9029 10.5H33.2196C30.2816 7.12031 25.9814 4.97109 21.1559 4.97109C12.4733 4.97109 5.432 11.8617 5.13656 20.4586H5.00526C4.77547 21.0984 4.1846 21.5578 3.46242 21.5578C2.74024 21.5578 2.14936 21.0984 1.91958 20.4586H1.83751C1.83751 20.3602 1.85393 20.2617 1.85393 20.1633C1.83751 20.0813 1.80469 19.9992 1.80469 19.9172C1.80469 19.7039 1.85393 19.5234 1.91958 19.343C2.75665 9.4172 11.0289 1.64062 21.1559 1.64062C26.5886 1.64062 31.4798 3.88828 34.9922 7.48125V4.41329C34.9922 3.49454 35.7308 2.75625 36.6499 2.75625C37.5691 2.75625 38.3077 3.49454 38.3077 4.41329V12.157C38.3077 13.0594 37.5691 13.8141 36.6499 13.8141Z" fill="#2BBBB6"/>
</svg>
