<svg width="326" height="162" viewBox="0 0 326 162" fill="none" xmlns="http://www.w3.org/2000/svg">
<g clip-path="url(#clip0_3970_3130)">
<mask id="mask0_3970_3130" style="mask-type:luminance" maskUnits="userSpaceOnUse" x="0" y="0" width="326" height="162">
<path d="M326 0H0V162H326V0Z" fill="white"/>
</mask>
<g mask="url(#mask0_3970_3130)">
<mask id="mask1_3970_3130" style="mask-type:luminance" maskUnits="userSpaceOnUse" x="0" y="0" width="326" height="162">
<path d="M326 0H0V162H326V0Z" fill="white"/>
</mask>
<g mask="url(#mask1_3970_3130)">
<mask id="mask2_3970_3130" style="mask-type:luminance" maskUnits="userSpaceOnUse" x="0" y="0" width="326" height="162">
<path d="M326 0H0V162H326V0Z" fill="white"/>
</mask>
<g mask="url(#mask2_3970_3130)">
<mask id="mask3_3970_3130" style="mask-type:luminance" maskUnits="userSpaceOnUse" x="0" y="0" width="326" height="162">
<path d="M326 0H0V162H326V0Z" fill="white"/>
</mask>
<g mask="url(#mask3_3970_3130)">
<mask id="mask4_3970_3130" style="mask-type:luminance" maskUnits="userSpaceOnUse" x="0" y="0" width="326" height="162">
<path d="M326 0H0V162H326V0Z" fill="white"/>
</mask>
<g mask="url(#mask4_3970_3130)">
<mask id="mask5_3970_3130" style="mask-type:luminance" maskUnits="userSpaceOnUse" x="0" y="0" width="326" height="162">
<path d="M326 0H0V162H326V0Z" fill="white"/>
</mask>
<g mask="url(#mask5_3970_3130)">
<mask id="mask6_3970_3130" style="mask-type:luminance" maskUnits="userSpaceOnUse" x="0" y="0" width="326" height="162">
<path d="M326 0H0V162H326V0Z" fill="white"/>
</mask>
<g mask="url(#mask6_3970_3130)">
<path d="M320.998 0.148438H4.99844C2.31986 0.148438 0.148438 2.31985 0.148438 4.99843V156.999C0.148438 159.677 2.31986 161.849 4.99844 161.849H320.998C323.677 161.849 325.848 159.677 325.848 156.999V4.99843C325.848 2.31985 323.677 0.148438 320.998 0.148438Z" fill="white" stroke="#8C8A8B" stroke-width="0.3"/>
<path d="M78.2695 50.5443C78.2695 51.6806 78.0671 52.6695 77.6623 53.5112C77.2575 54.3493 76.6999 54.9992 75.9897 55.4608C75.283 55.9189 74.4698 56.1479 73.5501 56.1479C72.6303 56.1479 71.8153 55.9189 71.1051 55.4608C70.3984 54.9992 69.8427 54.3493 69.4378 53.5112C69.0366 52.6695 68.8359 51.6806 68.8359 50.5443C68.8359 49.4079 69.0366 48.4207 69.4378 47.5826C69.8427 46.741 70.4002 46.091 71.1104 45.6329C71.8207 45.1713 72.6339 44.9406 73.5501 44.9406C74.4698 44.9406 75.283 45.1713 75.9897 45.6329C76.6999 46.091 77.2575 46.741 77.6623 47.5826C78.0671 48.4207 78.2695 49.4079 78.2695 50.5443ZM77.3001 50.5443C77.3001 49.5677 77.1367 48.7314 76.81 48.0354C76.4833 47.3358 76.0376 46.8013 75.473 46.4319C74.9084 46.0626 74.2674 45.8781 73.5501 45.8781C72.8363 45.8781 72.1971 46.0626 71.6325 46.4319C71.0678 46.8013 70.6204 47.3338 70.2901 48.0299C69.9634 48.726 69.8001 49.5641 69.8001 50.5443C69.8001 51.5208 69.9634 52.3571 70.2901 53.0531C70.6168 53.7492 71.0625 54.2833 71.6271 54.6562C72.1918 55.0255 72.8327 55.2104 73.5501 55.2104C74.2674 55.2104 74.9084 55.0255 75.473 54.6562C76.0412 54.287 76.4886 53.7543 76.8153 53.0583C77.142 52.3587 77.3036 51.5208 77.3001 50.5443ZM89.6221 50.5443C89.6221 51.6806 89.4196 52.6695 89.0148 53.5112C88.61 54.3493 88.0525 54.9992 87.3422 55.4608C86.6356 55.9189 85.8223 56.1479 84.9026 56.1479C83.9829 56.1479 83.1679 55.9189 82.4576 55.4608C81.751 54.9992 81.1952 54.3493 80.7904 53.5112C80.3891 52.6695 80.1885 51.6806 80.1885 50.5443C80.1885 49.4079 80.3891 48.4207 80.7904 47.5826C81.1952 46.741 81.7527 46.091 82.463 45.6329C83.1732 45.1713 83.9864 44.9406 84.9026 44.9406C85.8223 44.9406 86.6356 45.1713 87.3422 45.6329C88.0525 46.091 88.61 46.741 89.0148 47.5826C89.4196 48.4207 89.6221 49.4079 89.6221 50.5443ZM88.6526 50.5443C88.6526 49.5677 88.4893 48.7314 88.1625 48.0354C87.8358 47.3358 87.3902 46.8013 86.8255 46.4319C86.2609 46.0626 85.6199 45.8781 84.9026 45.8781C84.1888 45.8781 83.5496 46.0626 82.985 46.4319C82.4204 46.8013 81.9729 47.3338 81.6427 48.0299C81.316 48.726 81.1526 49.5641 81.1526 50.5443C81.1526 51.5208 81.316 52.3571 81.6427 53.0531C81.9694 53.7492 82.415 54.2833 82.9797 54.6562C83.5443 55.0255 84.1853 55.2104 84.9026 55.2104C85.6199 55.2104 86.2609 55.0255 86.8255 54.6562C87.3937 54.287 87.8412 53.7543 88.1679 53.0583C88.4946 52.3587 88.6562 51.5208 88.6526 50.5443ZM98.866 44.7788H99.886V47.2088C99.886 50.2088 98.266 53.1336 96.121 54.2738L95.356 53.2836C97.321 52.2936 98.866 49.6838 98.866 47.2088V44.7788ZM99.091 44.7788H100.096V47.2088C100.096 49.5938 101.611 52.0688 103.531 53.0288L102.766 54.0187C100.666 52.8937 99.091 50.1188 99.091 47.2088V44.7788ZM104.716 43.6087H105.976V57.1688H104.716V43.6087ZM105.676 49.0988H108.196V50.1488H105.676V49.0988ZM112.68 45.0638H113.7V46.1586C113.7 48.6486 112.2 50.7338 109.92 51.5588L109.29 50.5686C111.33 49.8485 112.68 48.0936 112.68 46.1586V45.0638ZM112.905 45.0638H113.925V46.1437C113.925 47.9137 115.215 49.5037 117.21 50.1637L116.61 51.1388C114.345 50.3888 112.905 48.4536 112.905 46.1437V45.0638ZM109.665 44.6138H116.91V45.6338H109.665V44.6138ZM118.62 43.6087H119.865V51.7836H118.62V43.6087ZM119.52 47.0438H121.875V48.0938H119.52V47.0438ZM115.545 52.1437C118.305 52.1437 120 53.0588 120 54.6338C120 56.2238 118.305 57.1388 115.545 57.1388C112.785 57.1388 111.09 56.2238 111.09 54.6338C111.09 53.0588 112.785 52.1437 115.545 52.1437ZM115.545 53.1488C113.535 53.1488 112.305 53.6888 112.305 54.6338C112.305 55.5938 113.535 56.1637 115.545 56.1637C117.555 56.1637 118.785 55.5938 118.785 54.6338C118.785 53.6888 117.555 53.1488 115.545 53.1488ZM133.004 43.6087H134.249V51.2887H133.004V43.6087ZM123.989 44.3888H125.219V49.9086H123.989V44.3888ZM123.989 49.2188H125.084C127.349 49.2188 129.374 49.0688 131.534 48.6188L131.714 49.6388C129.464 50.1188 127.424 50.2687 125.084 50.2687H123.989V49.2188ZM125.489 51.9487H134.249V56.9888H125.489V51.9487ZM133.034 52.9388H126.704V55.9688H133.034V52.9388ZM146.788 43.5938H148.033V57.1838H146.788V43.5938ZM140.878 44.6437C142.888 44.6437 144.328 46.4888 144.328 49.3688C144.328 52.2638 142.888 54.1087 140.878 54.1087C138.883 54.1087 137.443 52.2638 137.443 49.3688C137.443 46.4888 138.883 44.6437 140.878 44.6437ZM140.878 45.7687C139.558 45.7687 138.628 47.1788 138.628 49.3688C138.628 51.5738 139.558 53.0138 140.878 53.0138C142.213 53.0138 143.128 51.5738 143.128 49.3688C143.128 47.1788 142.213 45.7687 140.878 45.7687ZM165.27 43.6087H166.47V57.1688H165.27V43.6087ZM160.335 48.4688H162.93V49.5037H160.335V48.4688ZM162.555 43.9238H163.725V56.4785H162.555V43.9238ZM157.725 45.7088H158.685V47.4338C158.685 50.4038 157.545 53.2084 155.55 54.4688L154.785 53.5387C156.675 52.3987 157.725 49.9237 157.725 47.4338V45.7088ZM157.98 45.7088H158.94V47.4338C158.94 49.7888 159.96 52.1438 161.82 53.2238L161.055 54.1388C159.075 52.9388 157.98 50.2688 157.98 47.4338V45.7088ZM155.16 45.1838H161.355V46.2188H155.16V45.1838ZM178.034 43.5938H179.279V53.5838H178.034V43.5938ZM178.889 47.7188H181.289V48.7537H178.889V47.7188ZM170.834 55.8488H179.894V56.8688H170.834V55.8488ZM170.834 52.5638H172.079V56.2537H170.834V52.5638ZM172.544 44.5536C174.569 44.5536 176.084 45.9488 176.084 47.8988C176.084 49.8638 174.569 51.2438 172.544 51.2438C170.519 51.2438 169.004 49.8638 169.004 47.8988C169.004 45.9488 170.519 44.5536 172.544 44.5536ZM172.544 45.6488C171.224 45.6488 170.219 46.5788 170.219 47.8988C170.219 49.2338 171.224 50.1488 172.544 50.1488C173.864 50.1488 174.869 49.2338 174.869 47.8988C174.869 46.5788 173.864 45.6488 172.544 45.6488ZM188.683 43.8338C191.668 43.8338 193.453 44.6738 193.453 46.1888C193.453 47.7038 191.668 48.5438 188.683 48.5438C185.683 48.5438 183.913 47.7038 183.913 46.1888C183.913 44.6738 185.683 43.8338 188.683 43.8338ZM188.683 44.7788C186.463 44.7788 185.188 45.2888 185.188 46.1888C185.188 47.0888 186.463 47.5988 188.683 47.5988C190.888 47.5988 192.163 47.0888 192.163 46.1888C192.163 45.2888 190.888 44.7788 188.683 44.7788ZM182.548 49.4436H194.803V50.4487H182.548V49.4436ZM184.033 51.6035H193.243V54.6637H185.293V56.3138H184.063V53.7638H192.013V52.5638H184.033V51.6035ZM184.063 56.0438H193.648V57.0187H184.063V56.0438ZM206.01 44.9436H207.09V45.5138C207.09 47.9438 204.51 49.7285 201.78 50.1936L201.3 49.2038C203.685 48.8588 206.01 47.2988 206.01 45.5138V44.9436ZM206.325 44.9436H207.39V45.5138C207.39 47.2988 209.73 48.8588 212.1 49.2038L211.635 50.1936C208.89 49.7285 206.325 47.9438 206.325 45.5138V44.9436ZM206.055 51.9938H207.285V57.1688H206.055V51.9938ZM200.58 51.3338H212.835V52.3535H200.58V51.3338ZM201.72 44.4487H211.65V45.4538H201.72V44.4487ZM221.609 45.2285H224.669V46.2486H221.609V45.2285ZM221.609 47.8988H224.669V48.9038H221.609V47.8988ZM224.279 43.6087H225.524V51.5588H224.279V43.6087ZM217.754 44.0886H218.774V45.4986C218.774 48.1686 217.334 50.3738 215.069 51.2738L214.394 50.2988C216.449 49.5188 217.754 47.6286 217.754 45.4986V44.0886ZM217.964 44.0886H218.969V45.4986C218.969 47.4636 220.289 49.3087 222.254 50.0737L221.564 51.0638C219.404 50.1638 217.964 48.0036 217.964 45.4986V44.0886ZM217.829 52.0536H218.804V52.6538C218.804 54.4388 217.694 56.2537 215.744 57.0037L215.114 56.0737C216.824 55.4437 217.829 53.9738 217.829 52.6538V52.0536ZM218.114 52.0536H219.044V52.6538C219.044 54.0338 219.839 55.5186 221.474 56.1786L220.949 57.1236C218.984 56.3586 218.114 54.4688 218.114 52.6538V52.0536ZM222.854 52.0536H223.769V52.6538C223.769 54.2588 222.884 56.2986 220.949 57.1236L220.409 56.1786C222.029 55.4286 222.854 53.8388 222.854 52.6538V52.0536ZM223.094 52.0536H224.069V52.6538C224.069 54.0788 225.059 55.4887 226.799 56.0737L226.154 57.0037C224.189 56.2837 223.094 54.5438 223.094 52.6538V52.0536ZM231.793 44.6437C233.758 44.6437 235.168 46.4888 235.168 49.3688C235.168 52.2638 233.758 54.1087 231.793 54.1087C229.813 54.1087 228.418 52.2638 228.418 49.3688C228.418 46.4888 229.813 44.6437 231.793 44.6437ZM231.793 45.7687C230.488 45.7687 229.603 47.1788 229.603 49.3688C229.603 51.5738 230.488 53.0138 231.793 53.0138C233.098 53.0138 233.983 51.5738 233.983 49.3688C233.983 47.1788 233.098 45.7687 231.793 45.7687ZM238.108 43.5938H239.338V57.1838H238.108V43.5938ZM234.763 48.7687H238.648V49.7887H234.763V48.7687ZM244.977 50.5838H246.207V54.6488H244.977V50.5838ZM249.987 50.5838H251.232V54.6488H249.987V50.5838ZM241.977 54.4086H254.262V55.4436H241.977V54.4086ZM248.097 44.4636C250.962 44.4636 253.017 45.8288 253.017 47.9588C253.017 50.0738 250.962 51.4388 248.097 51.4388C245.217 51.4388 243.162 50.0738 243.162 47.9588C243.162 45.8288 245.217 44.4636 248.097 44.4636ZM248.097 45.4538C245.922 45.4538 244.362 46.4438 244.362 47.9588C244.362 49.4588 245.922 50.4487 248.097 50.4487C250.272 50.4487 251.817 49.4588 251.817 47.9588C251.817 46.4438 250.272 45.4538 248.097 45.4538ZM257.609 45.0896L257.54 52.8717H256.602L256.533 45.0896H257.609ZM257.071 56.0787C256.862 56.0787 256.681 56.0041 256.528 55.8549C256.379 55.7022 256.304 55.5211 256.304 55.3116C256.304 55.0984 256.379 54.9174 256.528 54.7682C256.681 54.6191 256.862 54.5446 257.071 54.5446C257.281 54.5446 257.46 54.6191 257.609 54.7682C257.762 54.9174 257.838 55.0984 257.838 55.3116C257.838 55.45 257.803 55.5778 257.732 55.695C257.664 55.8122 257.572 55.9065 257.455 55.9775C257.341 56.045 257.213 56.0787 257.071 56.0787ZM113.517 66.6088H114.717V80.1688H113.517V66.6088ZM111.222 72.0388H113.832V73.0737H111.222V72.0388ZM110.442 66.9086H111.612V79.4785H110.442V66.9086ZM103.692 75.7888H104.577C106.557 75.7888 107.907 75.7136 109.482 75.3834L109.602 76.4188C107.982 76.7638 106.617 76.8237 104.577 76.8237H103.692V75.7888ZM103.692 68.2584H108.732V69.2788H104.922V76.2537H103.692V68.2584ZM120.521 74.6938H121.766V76.8983H120.521V74.6938ZM126.221 66.6088H127.466V80.1688H126.221V66.6088ZM127.061 72.3685H129.566V73.4188H127.061V72.3685ZM117.026 77.5886L116.846 76.5538C119.276 76.5538 122.591 76.5234 125.396 76.1185L125.501 77.0485C122.576 77.5736 119.396 77.5886 117.026 77.5886ZM117.071 68.2435H125.186V69.2488H117.071V68.2435ZM121.136 70.0438C123.026 70.0438 124.331 71.0336 124.331 72.5485C124.331 74.0786 123.026 75.0538 121.136 75.0538C119.246 75.0538 117.956 74.0786 117.956 72.5485C117.956 71.0336 119.246 70.0438 121.136 70.0438ZM121.136 71.0037C119.921 71.0037 119.126 71.6185 119.126 72.5485C119.126 73.4785 119.921 74.0938 121.136 74.0938C122.351 74.0938 123.161 73.4785 123.161 72.5485C123.161 71.6185 122.351 71.0037 121.136 71.0037ZM120.521 66.6238H121.766V68.9188H120.521V66.6238ZM130.795 72.9086H143.095V73.8535H130.795V72.9086ZM132.25 74.9487H141.55V77.8438H133.525V79.4338H132.295V76.9888H140.335V75.8338H132.25V74.9487ZM132.295 79.1035H141.985V80.0037H132.295V79.1035ZM132.355 66.9988H141.505V69.8188H133.615V71.2888H132.385V68.9785H140.29V67.8834H132.355V66.9988ZM132.385 70.9888H141.76V71.8888H132.385V70.9888ZM152.398 67.7788H153.418V70.2088C153.418 73.3288 151.738 76.2238 149.518 77.3488L148.753 76.3284C150.763 75.3685 152.398 72.7738 152.398 70.2088V67.7788ZM152.608 67.7788H153.628V70.2088C153.628 72.6838 155.248 75.1735 157.258 76.1035L156.508 77.0938C154.303 76.0138 152.608 73.2238 152.608 70.2088V67.7788ZM158.668 66.5938H159.913V80.1838H158.668V66.5938ZM165.956 68.0037H166.976V69.0988C166.976 71.5888 165.476 73.6588 163.211 74.4688L162.551 73.4935C164.606 72.7736 165.956 71.0338 165.956 69.0988V68.0037ZM166.181 68.0037H167.201V69.0838C167.201 70.8838 168.506 72.5488 170.501 73.2238L169.856 74.1987C167.621 73.4186 166.181 71.4238 166.181 69.0838V68.0037ZM162.941 67.5538H170.186V68.5737H162.941V67.5538ZM171.896 66.6088H173.141V74.7687H171.896V66.6088ZM172.796 70.1788H175.151V71.2136H172.796V70.1788ZM164.336 75.4888H173.141V80.1688H171.896V76.5233H164.336V75.4888ZM185.695 66.5634H186.94V74.0485H185.695V66.5634ZM186.415 69.8188H188.95V70.8685H186.415V69.8188ZM178.33 74.7388H186.94V77.7687H179.59V79.4188H178.36V76.8685H185.725V75.6838H178.33V74.7388ZM178.36 79.0588H187.435V80.0187H178.36V79.0588ZM176.455 67.8237H184.465V68.7985H176.455V67.8237ZM180.46 69.3983C182.41 69.3983 183.7 70.2535 183.7 71.6334C183.7 72.9984 182.41 73.8386 180.46 73.8386C178.48 73.8386 177.205 72.9984 177.205 71.6334C177.205 70.2535 178.48 69.3983 180.46 69.3983ZM180.46 70.3134C179.2 70.3134 178.39 70.8235 178.39 71.6334C178.39 72.4284 179.2 72.9384 180.46 72.9384C181.705 72.9384 182.515 72.4284 182.515 71.6334C182.515 70.8235 181.705 70.3134 180.46 70.3134ZM179.83 66.4588H181.075V68.4988H179.83V66.4588ZM199.629 66.6088H200.859V80.1688H199.629V66.6088ZM200.469 72.1884H202.884V73.2388H200.469V72.1884ZM193.134 68.0634H194.274C194.274 71.3335 193.584 74.4988 191.154 77.1238L190.149 76.4188C192.384 74.0938 193.134 71.2738 193.134 68.1987V68.0634ZM190.584 68.0634H193.599V69.0988H190.584V68.0634ZM196.824 68.0634H197.979C197.979 71.3484 197.514 75.0683 195.024 78.0233L194.019 77.3338C196.314 74.6788 196.824 71.3188 196.824 68.1838V68.0634ZM194.709 68.0634H197.334V69.0988H194.709V68.0634ZM207.023 73.5838H208.253V77.6483H207.023V73.5838ZM212.033 73.5838H213.278V77.6483H212.033V73.5838ZM204.023 77.4086H216.308V78.4438H204.023V77.4086ZM210.143 67.4636C213.008 67.4636 215.063 68.8288 215.063 70.9588C215.063 73.0738 213.008 74.4384 210.143 74.4384C207.263 74.4384 205.208 73.0738 205.208 70.9588C205.208 68.8288 207.263 67.4636 210.143 67.4636ZM210.143 68.4534C207.968 68.4534 206.408 69.4438 206.408 70.9588C206.408 72.4588 207.968 73.4487 210.143 73.4487C212.318 73.4487 213.863 72.4588 213.863 70.9588C213.863 69.4438 212.318 68.4534 210.143 68.4534ZM219.969 75.872V75.584C219.973 75.0229 220.035 74.567 220.156 74.2154C220.277 73.8639 220.454 73.5669 220.688 73.3256C220.926 73.0805 221.221 72.846 221.573 72.6222C221.836 72.4518 222.056 72.2729 222.233 72.0847C222.414 71.893 222.551 71.6835 222.643 71.4562C222.739 71.2253 222.787 70.975 222.787 70.7051C222.787 70.3216 222.697 69.986 222.516 69.6984C222.338 69.4107 222.097 69.1888 221.791 69.0325C221.486 68.8727 221.147 68.7928 220.774 68.7928C220.419 68.7928 220.087 68.8708 219.778 69.0271C219.472 69.1798 219.222 69.4072 219.027 69.709C218.835 70.0072 218.73 70.3766 218.712 70.817H217.706C217.723 70.231 217.869 69.7232 218.142 69.2935C218.416 68.8639 218.782 68.5318 219.24 68.2975C219.698 68.0595 220.209 67.9403 220.774 67.9403C221.363 67.9403 221.882 68.0627 222.329 68.3078C222.777 68.5494 223.126 68.8815 223.378 69.3041C223.631 69.7232 223.757 70.2039 223.757 70.7472C223.757 71.1059 223.7 71.4328 223.586 71.7276C223.473 72.0224 223.302 72.2943 223.075 72.5428C222.851 72.7914 222.571 73.0258 222.233 73.246C221.914 73.459 221.66 73.6702 221.472 73.8797C221.283 74.0893 221.148 74.3291 221.067 74.5989C220.985 74.8652 220.941 75.1934 220.934 75.584V75.872H219.969ZM220.481 79.0784C220.271 79.0784 220.09 79.0041 219.937 78.855C219.788 78.7023 219.714 78.521 219.714 78.3116C219.714 78.0984 219.788 77.9175 219.937 77.7683C220.09 77.6192 220.271 77.5446 220.481 77.5446C220.69 77.5446 220.87 77.6192 221.019 77.7683C221.171 77.9175 221.248 78.0984 221.248 78.3116C221.248 78.4501 221.212 78.5778 221.141 78.695C221.074 78.812 220.981 78.9065 220.864 78.9775C220.751 79.045 220.623 79.0784 220.481 79.0784Z" fill="black"/>
<path d="M313 95H95C92.2386 95 90 97.2386 90 100V126C90 128.761 92.2386 131 95 131H313C315.761 131 318 128.761 318 126V100C318 97.2386 315.761 95 313 95Z" fill="#34BEBA"/>
<path d="M65 95H19C16.2386 95 14 97.2386 14 100V126C14 128.761 16.2386 131 19 131H65C67.7614 131 70 128.761 70 126V100C70 97.2386 67.7614 95 65 95Z" fill="#F1F1F1"/>
<path d="M38.9734 107.117H40.7024V119.155H38.9734V107.117ZM36.6464 111.732H39.8054V113.136H36.6464V111.732ZM35.0214 108.365H36.7244C36.7244 112.018 35.5674 114.995 31.3944 117.088L30.4844 115.736C33.8904 114.046 35.0214 111.862 35.0214 108.677V108.365ZM31.0564 108.365H35.9314V109.73H31.0564V108.365ZM48.9694 109.574H51.9464V110.939H48.9694V109.574ZM45.1864 108.131H46.5904V108.794C46.5904 110.822 45.4724 112.824 43.1714 113.5L42.3524 112.161C44.2894 111.537 45.1864 110.081 45.1864 108.794V108.131ZM45.5374 108.131H46.9414V108.794C46.9414 110.055 47.7604 111.355 49.6324 111.901L48.8394 113.253C46.5904 112.603 45.5374 110.796 45.5374 108.794V108.131ZM42.8074 107.559H49.2814V108.937H42.8074V107.559ZM50.8024 107.117H52.5314V113.227H50.8024V107.117ZM44.5754 113.708H52.5314V116.971H46.3044V118.479H44.5884V115.723H50.8154V115.047H44.5754V113.708ZM44.5884 117.699H52.8694V119.038H44.5884V117.699Z" fill="black"/>
<path d="M189.5 107.117H191.138V119.155H189.5V107.117ZM187.888 111.745H189.89V113.136H187.888V111.745ZM186.809 107.325H188.408V118.583H186.809V107.325ZM181.141 115.021H181.986C183.468 115.021 184.703 114.969 186.133 114.709L186.263 116.113C184.807 116.399 183.533 116.438 181.986 116.438H181.141V115.021ZM181.141 108.508H185.587V109.899H182.857V115.697H181.141V108.508ZM195.414 114.241H197.143V116.191H195.414V114.241ZM200.471 107.117H202.213V119.155H200.471V107.117ZM201.602 112.005H203.721V113.435H201.602V112.005ZM192.71 117.153L192.502 115.762C194.582 115.762 197.442 115.749 199.873 115.411L200.003 116.659C197.468 117.153 194.738 117.153 192.71 117.153ZM192.723 108.443H199.808V109.795H192.723V108.443ZM196.285 110.276C198.001 110.276 199.223 111.186 199.223 112.525C199.223 113.877 198.001 114.787 196.285 114.787C194.556 114.787 193.347 113.877 193.347 112.525C193.347 111.186 194.556 110.276 196.285 110.276ZM196.285 111.576C195.492 111.576 194.985 111.914 194.985 112.525C194.985 113.149 195.492 113.487 196.285 113.487C197.065 113.487 197.585 113.149 197.585 112.525C197.585 111.914 197.065 111.576 196.285 111.576ZM195.414 107.182H197.143V109.457H195.414V107.182ZM212.183 107.117H213.899V119.155H212.183V107.117ZM213.509 111.81H215.641V113.253H213.509V111.81ZM204.409 108.898H211.416V110.276H204.409V108.898ZM207.932 110.952C209.687 110.952 210.987 112.148 210.987 113.825C210.987 115.502 209.687 116.698 207.932 116.698C206.177 116.698 204.877 115.502 204.877 113.825C204.877 112.148 206.177 110.952 207.932 110.952ZM207.932 112.356C207.113 112.356 206.528 112.902 206.528 113.825C206.528 114.748 207.113 115.294 207.932 115.294C208.751 115.294 209.336 114.748 209.336 113.825C209.336 112.902 208.751 112.356 207.932 112.356ZM207.061 107.312H208.79V109.418H207.061V107.312ZM224.584 107.117H226.326V119.155H224.584V107.117ZM221.035 108.365H222.751C222.751 112.044 221.503 115.06 217.226 117.127L216.329 115.749C219.787 114.085 221.035 111.901 221.035 108.677V108.365ZM216.966 108.365H221.854V109.73H216.966V108.365Z" fill="white"/>
</g>
</g>
</g>
</g>
</g>
</g>
</g>
</g>
<defs>
<clipPath id="clip0_3970_3130">
<rect width="326" height="162" fill="white"/>
</clipPath>
</defs>
</svg>
