<svg width="71" height="71" viewBox="0 0 71 71" fill="none" xmlns="http://www.w3.org/2000/svg">
<g clip-path="url(#clip0_3970_2593)">
<mask id="mask0_3970_2593" style="mask-type:luminance" maskUnits="userSpaceOnUse" x="0" y="0" width="71" height="71">
<path d="M71 0H0V71H71V0Z" fill="white"/>
</mask>
<g mask="url(#mask0_3970_2593)">
<mask id="mask1_3970_2593" style="mask-type:luminance" maskUnits="userSpaceOnUse" x="0" y="0" width="71" height="71">
<path d="M71 0H0V71H71V0Z" fill="white"/>
</mask>
<g mask="url(#mask1_3970_2593)">
<mask id="mask2_3970_2593" style="mask-type:luminance" maskUnits="userSpaceOnUse" x="0" y="0" width="71" height="71">
<path d="M71 0H0V71H71V0Z" fill="white"/>
</mask>
<g mask="url(#mask2_3970_2593)">
<path d="M71 35.5C71 55.1061 55.1061 71 35.5 71C15.8939 71 0 55.1061 0 35.5C0 15.8939 15.8939 0 35.5 0C55.1061 0 71 15.8939 71 35.5Z" fill="#EC5A5A" fill-opacity="0.1"/>
<path fill-rule="evenodd" clip-rule="evenodd" d="M35.5 69.5C54.2777 69.5 69.5 54.2777 69.5 35.5C69.5 16.7223 54.2777 1.5 35.5 1.5C16.7223 1.5 1.5 16.7223 1.5 35.5C1.5 54.2777 16.7223 69.5 35.5 69.5ZM35.5 71C55.1061 71 71 55.1061 71 35.5C71 15.8939 55.1061 0 35.5 0C15.8939 0 0 15.8939 0 35.5C0 55.1061 15.8939 71 35.5 71Z" fill="#EC5A5A"/>
<path d="M13 26.1419C13 23.8544 14.8586 22 17.1512 22H53.8488C56.1414 22 58 23.8544 58 26.1419V44.8581C58 47.1456 56.1414 49 53.8488 49H17.1512C14.8586 49 13 47.1456 13 44.8581V26.1419Z" fill="white"/>
<path fill-rule="evenodd" clip-rule="evenodd" d="M53.8488 22.8H17.1512C15.2987 22.8 13.8 24.2979 13.8 26.1419V44.8581C13.8 46.7021 15.2987 48.2 17.1512 48.2H53.8488C55.7013 48.2 57.2 46.7021 57.2 44.8581V26.1419C57.2 24.2979 55.7013 22.8 53.8488 22.8ZM17.1512 22C14.8586 22 13 23.8544 13 26.1419V44.8581C13 47.1456 14.8586 49 17.1512 49H53.8488C56.1414 49 58 47.1456 58 44.8581V26.1419C58 23.8544 56.1414 22 53.8488 22H17.1512Z" fill="#231F20"/>
<path d="M16 29.1944C16 27.9825 16.9825 27 18.1944 27H24.8056C26.0175 27 27 27.9825 27 29.1944V35.8056C27 37.0175 26.0175 38 24.8056 38H18.1944C16.9825 38 16 37.0175 16 35.8056V29.1944Z" fill="#2BBBB6"/>
<path d="M30 30C30 29.4477 30.2915 29 30.6512 29H36.3488C36.7085 29 37 29.4477 37 30C37 30.5523 36.7085 31 36.3488 31H30.6512C30.2915 31 30 30.5523 30 30Z" fill="#8C8A8B"/>
<path d="M30 32.5C30 32.2239 30.273 32 30.6098 32H54.3902C54.727 32 55 32.2239 55 32.5C55 32.7761 54.727 33 54.3902 33H30.6098C30.273 33 30 32.7761 30 32.5Z" fill="#8C8A8B"/>
<path d="M30 34.5C30 34.2239 30.273 34 30.6098 34H54.3902C54.727 34 55 34.2239 55 34.5C55 34.7761 54.727 35 54.3902 35H30.6098C30.273 35 30 34.7761 30 34.5Z" fill="#8C8A8B"/>
<path d="M29.6535 45C29.5172 45 29.4 44.961 29.3021 44.8831C29.2041 44.8042 29.1293 44.69 29.0776 44.5403C29.0259 44.3907 29 44.2106 29 44C29 43.7903 29.0259 43.6107 29.0776 43.461C29.1301 43.3105 29.2053 43.1962 29.3033 43.1183C29.4012 43.0394 29.518 43 29.6535 43C29.7891 43 29.9059 43.0394 30.0038 43.1183C30.1018 43.1962 30.1766 43.3105 30.2283 43.461C30.2808 43.6107 30.3071 43.7903 30.3071 44C30.3071 44.2106 30.2808 44.3911 30.2283 44.5417C30.1766 44.6913 30.1018 44.8051 30.0038 44.8831C29.9066 44.961 29.7899 45 29.6535 45ZM29.308 44C29.308 44.2303 29.3381 44.4055 29.3985 44.5255C29.4596 44.6456 29.5446 44.7061 29.6535 44.707C29.7248 44.7061 29.7864 44.6792 29.8381 44.6263C29.8898 44.5735 29.9294 44.4942 29.9568 44.3884C29.985 44.2827 29.9991 44.1532 29.9991 44C29.9991 43.8477 29.985 43.7186 29.9568 43.6129C29.9294 43.5063 29.8898 43.4261 29.8381 43.3723C29.7864 43.3185 29.7248 43.2912 29.6535 43.2903C29.5822 43.2912 29.5207 43.3185 29.469 43.3723C29.4173 43.4261 29.3773 43.5063 29.3491 43.6129C29.3217 43.7186 29.308 43.8477 29.308 44Z" fill="#8C8A8B"/>
<path d="M31.1809 45C31.0445 45 30.9274 44.961 30.8294 44.8831C30.7315 44.8042 30.6566 44.69 30.6049 44.5403C30.5532 44.3907 30.5273 44.2106 30.5273 44C30.5273 43.7903 30.5532 43.6107 30.6049 43.461C30.6574 43.3105 30.7326 43.1962 30.8306 43.1183C30.9285 43.0394 31.0453 43 31.1809 43C31.3164 43 31.4332 43.0394 31.5311 43.1183C31.6291 43.1962 31.7039 43.3105 31.7556 43.461C31.8081 43.6107 31.8344 43.7903 31.8344 44C31.8344 44.2106 31.8081 44.3911 31.7556 44.5417C31.7039 44.6913 31.6291 44.8051 31.5311 44.8831C31.434 44.961 31.3172 45 31.1809 45ZM30.8353 44C30.8353 44.2303 30.8654 44.4055 30.9258 44.5255C30.9869 44.6456 31.0719 44.7061 31.1809 44.707C31.2522 44.7061 31.3137 44.6792 31.3654 44.6263C31.4171 44.5735 31.4567 44.4942 31.4841 44.3884C31.5123 44.2827 31.5264 44.1532 31.5264 44C31.5264 43.8477 31.5123 43.7186 31.4841 43.6129C31.4567 43.5063 31.4171 43.4261 31.3654 43.3723C31.3137 43.3185 31.2522 43.2912 31.1809 43.2903C31.1095 43.2912 31.048 43.3185 30.9963 43.3723C30.9446 43.4261 30.9046 43.5063 30.8764 43.6129C30.849 43.7186 30.8353 43.8477 30.8353 44Z" fill="#8C8A8B"/>
<path d="M32.7044 45C32.568 45 32.4509 44.961 32.3529 44.8831C32.255 44.8042 32.1801 44.69 32.1284 44.5403C32.0767 44.3907 32.0508 44.2106 32.0508 44C32.0508 43.7903 32.0767 43.6107 32.1284 43.461C32.1809 43.3105 32.2561 43.1962 32.3541 43.1183C32.452 43.0394 32.5688 43 32.7044 43C32.8399 43 32.9567 43.0394 33.0546 43.1183C33.1526 43.1962 33.2274 43.3105 33.2792 43.461C33.3317 43.6107 33.3579 43.7903 33.3579 44C33.3579 44.2106 33.3317 44.3911 33.2792 44.5417C33.2274 44.6913 33.1526 44.8051 33.0546 44.8831C32.9575 44.961 32.8407 45 32.7044 45ZM32.3588 44C32.3588 44.2303 32.389 44.4055 32.4493 44.5255C32.5104 44.6456 32.5954 44.7061 32.7044 44.707C32.7757 44.7061 32.8372 44.6792 32.8889 44.6263C32.9406 44.5735 32.9802 44.4942 33.0076 44.3884C33.0358 44.2827 33.0499 44.1532 33.0499 44C33.0499 43.8477 33.0358 43.7186 33.0076 43.6129C32.9802 43.5063 32.9406 43.4261 32.8889 43.3723C32.8372 43.3185 32.7757 43.2912 32.7044 43.2903C32.6331 43.2912 32.5715 43.3185 32.5198 43.3723C32.4681 43.4261 32.4281 43.5063 32.3999 43.6129C32.3725 43.7186 32.3588 43.8477 32.3588 44Z" fill="#8C8A8B"/>
<path d="M34.2316 45C34.0952 45 33.9781 44.961 33.8801 44.8831C33.7822 44.8042 33.7074 44.69 33.6556 44.5403C33.6039 44.3907 33.5781 44.2106 33.5781 44C33.5781 43.7903 33.6039 43.6107 33.6556 43.461C33.7081 43.3105 33.7834 43.1962 33.8813 43.1183C33.9793 43.0394 34.096 43 34.2316 43C34.3672 43 34.4839 43.0394 34.5819 43.1183C34.6798 43.1962 34.7547 43.3105 34.8064 43.461C34.8589 43.6107 34.8851 43.7903 34.8851 44C34.8851 44.2106 34.8589 44.3911 34.8064 44.5417C34.7547 44.6913 34.6798 44.8051 34.5819 44.8831C34.4847 44.961 34.3679 45 34.2316 45ZM33.886 44C33.886 44.2303 33.9162 44.4055 33.9765 44.5255C34.0376 44.6456 34.1227 44.7061 34.2316 44.707C34.3029 44.7061 34.3644 44.6792 34.4161 44.6263C34.4678 44.5735 34.5074 44.4942 34.5348 44.3884C34.5631 44.2827 34.5772 44.1532 34.5772 44C34.5772 43.8477 34.5631 43.7186 34.5348 43.6129C34.5074 43.5063 34.4678 43.4261 34.4161 43.3723C34.3644 43.3185 34.3029 43.2912 34.2316 43.2903C34.1603 43.2912 34.0988 43.3185 34.047 43.3723C33.9953 43.4261 33.9554 43.5063 33.9272 43.6129C33.8997 43.7186 33.886 43.8477 33.886 44Z" fill="#8C8A8B"/>
<path d="M35.2458 44.9947C35.2129 44.9947 35.1824 44.9853 35.1541 44.9665C35.1259 44.9477 35.1036 44.9221 35.0871 44.8899C35.0707 44.8576 35.0625 44.8227 35.0625 44.785C35.0625 44.7483 35.0707 44.7143 35.0871 44.6829C35.1036 44.6506 35.1259 44.6251 35.1541 44.6063C35.1824 44.5875 35.2129 44.5781 35.2458 44.5781C35.278 44.5781 35.3077 44.5875 35.3352 44.6063C35.3634 44.6251 35.3857 44.6506 35.4022 44.6829C35.4186 44.7143 35.4268 44.7483 35.4268 44.785C35.4268 44.8227 35.4186 44.8576 35.4022 44.8899C35.3857 44.9221 35.3634 44.9477 35.3352 44.9665C35.3077 44.9853 35.278 44.9947 35.2458 44.9947Z" fill="#8C8A8B"/>
<path d="M36.2629 45C36.1266 45 36.0094 44.961 35.9115 44.8831C35.8135 44.8042 35.7387 44.69 35.687 44.5403C35.6352 44.3907 35.6094 44.2106 35.6094 44C35.6094 43.7903 35.6352 43.6107 35.687 43.461C35.7395 43.3105 35.8147 43.1962 35.9126 43.1183C36.0106 43.0394 36.1273 43 36.2629 43C36.3985 43 36.5152 43.0394 36.6132 43.1183C36.7111 43.1962 36.786 43.3105 36.8377 43.461C36.8902 43.6107 36.9164 43.7903 36.9164 44C36.9164 44.2106 36.8902 44.3911 36.8377 44.5417C36.786 44.6913 36.7111 44.8051 36.6132 44.8831C36.516 44.961 36.3993 45 36.2629 45ZM35.9173 44C35.9173 44.2303 35.9475 44.4055 36.0078 44.5255C36.069 44.6456 36.154 44.7061 36.2629 44.707C36.3342 44.7061 36.3957 44.6792 36.4474 44.6263C36.4992 44.5735 36.5387 44.4942 36.5662 44.3884C36.5944 44.2827 36.6085 44.1532 36.6085 44C36.6085 43.8477 36.5944 43.7186 36.5662 43.6129C36.5387 43.5063 36.4992 43.4261 36.4474 43.3723C36.3957 43.3185 36.3342 43.2912 36.2629 43.2903C36.1916 43.2912 36.1301 43.3185 36.0784 43.3723C36.0266 43.4261 35.9867 43.5063 35.9585 43.6129C35.931 43.7186 35.9173 43.8477 35.9173 44Z" fill="#8C8A8B"/>
<path d="M37.7863 45C37.65 45 37.5328 44.961 37.4349 44.8831C37.3369 44.8042 37.2621 44.69 37.2104 44.5403C37.1587 44.3907 37.1328 44.2106 37.1328 44C37.1328 43.7903 37.1587 43.6107 37.2104 43.461C37.2629 43.3105 37.3381 43.1962 37.4361 43.1183C37.534 43.0394 37.6508 43 37.7863 43C37.9219 43 38.0387 43.0394 38.1366 43.1183C38.2346 43.1962 38.3094 43.3105 38.3611 43.461C38.4136 43.6107 38.4399 43.7903 38.4399 44C38.4399 44.2106 38.4136 44.3911 38.3611 44.5417C38.3094 44.6913 38.2346 44.8051 38.1366 44.8831C38.0394 44.961 37.9227 45 37.7863 45ZM37.4408 44C37.4408 44.2303 37.4709 44.4055 37.5313 44.5255C37.5924 44.6456 37.6774 44.7061 37.7863 44.707C37.8576 44.7061 37.9191 44.6792 37.9709 44.6263C38.0226 44.5735 38.0622 44.4942 38.0896 44.3884C38.1178 44.2827 38.1319 44.1532 38.1319 44C38.1319 43.8477 38.1178 43.7186 38.0896 43.6129C38.0622 43.5063 38.0226 43.4261 37.9709 43.3723C37.9191 43.3185 37.8576 43.2912 37.7863 43.2903C37.715 43.2912 37.6535 43.3185 37.6018 43.3723C37.5501 43.4261 37.5101 43.5063 37.4819 43.6129C37.4545 43.7186 37.4408 43.8477 37.4408 44Z" fill="#8C8A8B"/>
<path d="M38.8045 44.9947C38.7716 44.9947 38.741 44.9853 38.7128 44.9665C38.6846 44.9477 38.6622 44.9221 38.6458 44.8899C38.6293 44.8576 38.6211 44.8227 38.6211 44.785C38.6211 44.7483 38.6293 44.7143 38.6458 44.6829C38.6622 44.6506 38.6846 44.6251 38.7128 44.6063C38.741 44.5875 38.7716 44.5781 38.8045 44.5781C38.8366 44.5781 38.8664 44.5875 38.8938 44.6063C38.922 44.6251 38.9443 44.6506 38.9608 44.6829C38.9772 44.7143 38.9855 44.7483 38.9855 44.785C38.9855 44.8227 38.9772 44.8576 38.9608 44.8899C38.9443 44.9221 38.922 44.9477 38.8938 44.9665C38.8664 44.9853 38.8366 44.9947 38.8045 44.9947Z" fill="#8C8A8B"/>
<path d="M39.8215 45C39.6852 45 39.568 44.961 39.4701 44.8831C39.3721 44.8042 39.2973 44.69 39.2456 44.5403C39.1939 44.3907 39.168 44.2106 39.168 44C39.168 43.7903 39.1939 43.6107 39.2456 43.461C39.2981 43.3105 39.3733 43.1962 39.4713 43.1183C39.5692 43.0394 39.686 43 39.8215 43C39.9571 43 40.0739 43.0394 40.1718 43.1183C40.2698 43.1962 40.3446 43.3105 40.3963 43.461C40.4488 43.6107 40.4751 43.7903 40.4751 44C40.4751 44.2106 40.4488 44.3911 40.3963 44.5417C40.3446 44.6913 40.2698 44.8051 40.1718 44.8831C40.0747 44.961 39.9579 45 39.8215 45ZM39.476 44C39.476 44.2303 39.5061 44.4055 39.5665 44.5255C39.6276 44.6456 39.7126 44.7061 39.8215 44.707C39.8929 44.7061 39.9544 44.6792 40.0061 44.6263C40.0578 44.5735 40.0974 44.4942 40.1248 44.3884C40.153 44.2827 40.1671 44.1532 40.1671 44C40.1671 43.8477 40.153 43.7186 40.1248 43.6129C40.0974 43.5063 40.0578 43.4261 40.0061 43.3723C39.9544 43.3185 39.8929 43.2912 39.8215 43.2903C39.7502 43.2912 39.6887 43.3185 39.637 43.3723C39.5853 43.4261 39.5453 43.5063 39.5171 43.6129C39.4897 43.7186 39.476 43.8477 39.476 44Z" fill="#8C8A8B"/>
<path d="M41.345 45C41.2086 45 41.0915 44.961 40.9935 44.8831C40.8956 44.8042 40.8207 44.69 40.769 44.5403C40.7173 44.3907 40.6914 44.2106 40.6914 44C40.6914 43.7903 40.7173 43.6107 40.769 43.461C40.8215 43.3105 40.8967 43.1962 40.9947 43.1183C41.0926 43.0394 41.2094 43 41.345 43C41.4805 43 41.5973 43.0394 41.6952 43.1183C41.7932 43.1962 41.868 43.3105 41.9197 43.461C41.9722 43.6107 41.9985 43.7903 41.9985 44C41.9985 44.2106 41.9722 44.3911 41.9197 44.5417C41.868 44.6913 41.7932 44.8051 41.6952 44.8831C41.5981 44.961 41.4813 45 41.345 45ZM40.9994 44C40.9994 44.2303 41.0296 44.4055 41.0899 44.5255C41.151 44.6456 41.236 44.7061 41.345 44.707C41.4163 44.7061 41.4778 44.6792 41.5295 44.6263C41.5812 44.5735 41.6208 44.4942 41.6482 44.3884C41.6764 44.2827 41.6905 44.1532 41.6905 44C41.6905 43.8477 41.6764 43.7186 41.6482 43.6129C41.6208 43.5063 41.5812 43.4261 41.5295 43.3723C41.4778 43.3185 41.4163 43.2912 41.345 43.2903C41.2737 43.2912 41.2121 43.3185 41.1604 43.3723C41.1087 43.4261 41.0687 43.5063 41.0405 43.6129C41.0131 43.7186 40.9994 43.8477 40.9994 44Z" fill="#8C8A8B"/>
<path fill-rule="evenodd" clip-rule="evenodd" d="M60.9142 10.9853L12.0148 60.9142L10.5859 59.5148L59.4853 9.58594L60.9142 10.9853Z" fill="#EC5A5A"/>
</g>
</g>
</g>
</g>
<defs>
<clipPath id="clip0_3970_2593">
<rect width="71" height="71" fill="white"/>
</clipPath>
</defs>
</svg>
