<svg width="71" height="71" viewBox="0 0 71 71" fill="none" xmlns="http://www.w3.org/2000/svg">
<g clip-path="url(#clip0_3970_2625)">
<mask id="mask0_3970_2625" style="mask-type:luminance" maskUnits="userSpaceOnUse" x="0" y="0" width="71" height="71">
<path d="M71 0H0V71H71V0Z" fill="white"/>
</mask>
<g mask="url(#mask0_3970_2625)">
<mask id="mask1_3970_2625" style="mask-type:luminance" maskUnits="userSpaceOnUse" x="0" y="0" width="71" height="71">
<path d="M71 0H0V71H71V0Z" fill="white"/>
</mask>
<g mask="url(#mask1_3970_2625)">
<mask id="mask2_3970_2625" style="mask-type:luminance" maskUnits="userSpaceOnUse" x="0" y="0" width="71" height="71">
<path d="M71 0H0V71H71V0Z" fill="white"/>
</mask>
<g mask="url(#mask2_3970_2625)">
<path d="M71 35.5C71 55.1061 55.1061 71 35.5 71C15.8939 71 0 55.1061 0 35.5C0 15.8939 15.8939 0 35.5 0C55.1061 0 71 15.8939 71 35.5Z" fill="#EC5A5A" fill-opacity="0.1"/>
<path fill-rule="evenodd" clip-rule="evenodd" d="M35.5 69.5C54.2777 69.5 69.5 54.2777 69.5 35.5C69.5 16.7223 54.2777 1.5 35.5 1.5C16.7223 1.5 1.5 16.7223 1.5 35.5C1.5 54.2777 16.7223 69.5 35.5 69.5ZM35.5 71C55.1061 71 71 55.1061 71 35.5C71 15.8939 55.1061 0 35.5 0C15.8939 0 0 15.8939 0 35.5C0 55.1061 15.8939 71 35.5 71Z" fill="#EC5A5A"/>
<path d="M41.5085 22.5625C43.8149 22.5625 45.8068 23.0168 47.4841 23.9254C49.1848 24.8339 50.5011 26.1851 51.4329 27.979C52.3881 29.7495 52.8657 31.9627 52.8657 34.6185C52.8657 37.4607 52.3066 39.8836 51.1883 41.8871C50.0934 43.8673 48.5674 45.3816 46.6105 46.43C44.6769 47.4783 42.4171 48.0025 39.8312 48.0025C38.48 48.0025 37.1754 47.8394 35.9173 47.5133C34.6593 47.2104 33.576 46.7794 32.6674 46.2203L35.1835 41.2581C35.8824 41.7473 36.6046 42.0851 37.3501 42.2715C38.1189 42.4346 38.8993 42.5161 39.6914 42.5161C41.5784 42.5161 43.0811 41.9454 44.1993 40.8038C45.3175 39.6623 45.8767 37.9966 45.8767 35.8067C45.8767 35.4106 45.8767 35.0029 45.8767 34.5836C45.8767 34.141 45.8417 33.6983 45.7718 33.2557L47.4841 34.6884C47.0648 35.5504 46.5173 36.2726 45.8417 36.855C45.1661 37.4374 44.374 37.8801 43.4655 38.1829C42.5569 38.4858 41.5202 38.6372 40.3554 38.6372C38.8178 38.6372 37.4083 38.3227 36.127 37.6937C34.869 37.0414 33.8556 36.1445 33.0868 35.0029C32.318 33.8381 31.9336 32.4752 31.9336 30.9144C31.9336 29.2137 32.3646 27.746 33.2266 26.5113C34.0885 25.2533 35.2417 24.2865 36.6861 23.6109C38.1305 22.912 39.738 22.5625 41.5085 22.5625ZM41.9628 27.4898C41.3105 27.4898 40.7397 27.6179 40.2505 27.8741C39.7613 28.1304 39.3652 28.4915 39.0624 28.9574C38.7828 29.4001 38.643 29.9476 38.643 30.5999C38.643 31.5317 38.9459 32.2772 39.5516 32.8363C40.1806 33.3955 40.996 33.675 41.9978 33.675C42.6734 33.675 43.2674 33.5469 43.78 33.2906C44.2925 33.0344 44.6885 32.6733 44.9681 32.2073C45.2477 31.7414 45.3874 31.1939 45.3874 30.5649C45.3874 29.9592 45.2477 29.435 44.9681 28.9924C44.6885 28.5265 44.2925 28.1654 43.78 27.9091C43.2674 27.6295 42.6617 27.4898 41.9628 27.4898Z" fill="#7E6D6D"/>
<path fill-rule="evenodd" clip-rule="evenodd" d="M44.9348 37.5061C44.4844 37.7777 43.9943 38.0017 43.4647 38.1783C42.5561 38.4811 41.5194 38.6325 40.3546 38.6325C38.817 38.6325 37.4075 38.318 36.1262 37.689C34.8682 37.0367 33.8548 36.1398 33.086 34.9983C32.3172 33.8334 31.9328 32.4706 31.9328 30.9097C31.9328 29.209 32.3638 27.7413 33.2258 26.5066C34.0878 25.2486 35.2409 24.2818 36.6853 23.6062C38.1297 22.9073 39.7372 22.5578 41.5078 22.5578C43.8141 22.5578 45.806 23.0121 47.4834 23.9207C49.184 24.8292 50.5003 26.1805 51.4321 27.9743C52.3873 29.7449 52.8649 31.958 52.8649 34.6139C52.8649 37.4561 52.3058 39.8789 51.1875 41.8824C50.0926 43.8627 48.5667 45.3769 46.6097 46.4253C44.6761 47.4736 42.4163 47.9978 39.8304 47.9978C38.4792 47.9978 37.1746 47.8347 35.9165 47.5086C34.6585 47.2057 33.5752 46.7747 32.6667 46.2156L35.1827 41.2534C35.4075 41.4107 35.6346 41.5524 35.8642 41.6784C36.3485 41.9442 36.8435 42.1404 37.3493 42.2668C38.1181 42.4299 38.8985 42.5114 39.6906 42.5114C41.5776 42.5114 43.0803 41.9407 44.1985 40.7991C44.9069 40.076 45.3909 39.1426 45.6505 37.9989C45.7319 37.6403 45.7913 37.261 45.8286 36.861C45.5503 37.0996 45.2524 37.3147 44.9348 37.5061ZM43.7792 27.9044C44.2917 28.1607 44.6878 28.5218 44.9673 28.9877C45.2469 29.4303 45.3867 29.9545 45.3867 30.5602C45.3867 31.1892 45.2469 31.7367 44.9673 32.2027C44.6878 32.6686 44.2917 33.0297 43.7792 33.2859C43.2667 33.5422 42.6726 33.6703 41.997 33.6703C40.9952 33.6703 40.1798 33.3908 39.5508 32.8317C38.9451 32.2725 38.6423 31.527 38.6423 30.5952C38.6423 29.9429 38.782 29.3954 39.0616 28.9528C39.3645 28.4868 39.7605 28.1257 40.2497 27.8695C40.739 27.6132 41.3097 27.4851 41.962 27.4851C42.6609 27.4851 43.2667 27.6249 43.7792 27.9044ZM39.7353 29.3842C39.5558 29.6705 39.4423 30.0597 39.4423 30.5952C39.4423 31.3327 39.672 31.8521 40.088 32.2388C40.543 32.6407 41.1553 32.8703 41.997 32.8703C42.5705 32.8703 43.0382 32.762 43.4214 32.5704C43.8056 32.3783 44.0844 32.1193 44.2813 31.7911C44.4752 31.468 44.5867 31.0675 44.5867 30.5602C44.5867 30.0815 44.4777 29.7106 44.2909 29.4149L44.2813 29.3993C44.0844 29.0711 43.8056 28.8121 43.4214 28.62C43.4129 28.6157 43.4045 28.6113 43.3961 28.6067C43.0222 28.4028 42.5534 28.2851 41.962 28.2851C41.4157 28.2851 40.9766 28.3918 40.6209 28.5781C40.2557 28.7695 39.9634 29.0349 39.7353 29.3842ZM44.6553 38.5621C44.3551 38.7039 44.0424 38.8289 43.7177 38.9372C42.7121 39.2724 41.5874 39.4325 40.3546 39.4325C38.7044 39.4325 37.173 39.0941 35.7737 38.4072L35.758 38.3992C34.3847 37.6872 33.2683 36.7012 32.4225 35.4451L32.4183 35.439C31.5532 34.1282 31.1328 32.608 31.1328 30.9097C31.1328 29.0685 31.6016 27.4369 32.5678 26.0516C33.5131 24.673 34.7773 23.6164 36.3416 22.8838C37.9042 22.1286 39.631 21.7578 41.5078 21.7578C43.9187 21.7578 46.0464 22.233 47.8624 23.2162C49.7098 24.2037 51.1372 25.6736 52.1392 27.5999C53.1722 29.5176 53.6649 31.869 53.6649 34.6139C53.6649 37.5598 53.0852 40.1234 51.8868 42.2711C50.7192 44.3821 49.0834 46.0072 46.9893 47.1295C44.92 48.251 42.5253 48.7978 39.8304 48.7978C38.4166 48.7978 37.0466 48.6274 35.7225 48.2847C34.4022 47.9663 33.2394 47.5074 32.2474 46.8969C31.8928 46.6788 31.7649 46.2251 31.9531 45.8538L34.4692 40.8916C34.574 40.6848 34.7634 40.5337 34.9883 40.4774C35.2133 40.4211 35.4515 40.4651 35.6415 40.598C36.2646 41.0342 36.8936 41.3263 37.5296 41.4873C38.2388 41.6367 38.9588 41.7114 39.6906 41.7114C41.4046 41.7114 42.6863 41.1996 43.627 40.2393C44.0632 39.7941 44.4103 39.2397 44.6553 38.5621Z" fill="black"/>
<path d="M21.9647 47.5162V25.5358L24.9351 28.4013H17.4219V23.0547H28.8839V47.5162H21.9647Z" fill="#7E6D6D"/>
<path fill-rule="evenodd" clip-rule="evenodd" d="M21.964 48.3115C21.5221 48.3115 21.164 47.9534 21.164 47.5115V29.1966H17.4211C16.9793 29.1966 16.6211 28.8384 16.6211 28.3966V23.05C16.6211 22.6082 16.9793 22.25 17.4211 22.25H28.8831C29.3249 22.25 29.6831 22.6082 29.6831 23.05V47.5115C29.6831 47.9534 29.3249 48.3115 28.8831 48.3115H21.964ZM21.964 28.3966V47.5115H28.8831V23.05H17.4211V28.3966H21.964Z" fill="black"/>
<path fill-rule="evenodd" clip-rule="evenodd" d="M60.9142 11.9853L12.0148 61.9142L10.5859 60.5148L59.4853 10.5859L60.9142 11.9853Z" fill="#EC5A5A"/>
</g>
</g>
</g>
</g>
<defs>
<clipPath id="clip0_3970_2625">
<rect width="71" height="71" fill="white"/>
</clipPath>
</defs>
</svg>
