<svg width="2500" height="2500" viewBox="0 0 2500 2500" fill="none" xmlns="http://www.w3.org/2000/svg">
<g clip-path="url(#clip0_3913_216285)">
<path d="M0 0H2500V2500H0V0Z" fill="#F7DF1E"/>
<path d="M1679.37 1953.14C1729.72 2035.36 1795.24 2095.79 1911.11 2095.79C2008.45 2095.79 2070.63 2047.14 2070.63 1979.92C2070.63 1899.37 2006.75 1870.83 1899.6 1823.97L1840.87 1798.77C1671.35 1726.55 1558.73 1636.07 1558.73 1444.8C1558.73 1268.61 1692.98 1134.48 1902.78 1134.48C2052.14 1134.48 2159.52 1186.47 2236.9 1322.58L2053.97 1440.04C2013.69 1367.82 1970.24 1339.37 1902.78 1339.37C1833.97 1339.37 1790.36 1383.02 1790.36 1440.04C1790.36 1510.52 1834.01 1539.05 1934.8 1582.7L1993.53 1607.86C2193.13 1693.45 2305.83 1780.71 2305.83 1976.9C2305.83 2188.41 2139.68 2304.29 1916.55 2304.29C1698.37 2304.29 1557.42 2200.32 1488.45 2064.05L1679.37 1953.14ZM849.484 1973.49C886.389 2038.97 919.96 2094.33 1000.67 2094.33C1077.86 2094.33 1126.55 2064.13 1126.55 1946.71V1147.9H1361.47V1949.88C1361.47 2193.14 1218.85 2303.85 1010.67 2303.85C822.579 2303.85 713.651 2206.51 658.254 2089.27L849.484 1973.49Z" fill="black"/>
</g>
<defs>
<clipPath id="clip0_3913_216285">
<rect width="2500" height="2500" fill="white"/>
</clipPath>
</defs>
</svg>
