<svg width="801" height="800" viewBox="0 0 801 800" fill="none" xmlns="http://www.w3.org/2000/svg">
<path d="M245.384 570.577H223.726C222.96 534.02 220.851 499.651 217.402 467.446H217.21L184.235 570.577H167.745L134.967 467.446H134.778C132.347 498.366 130.815 532.743 130.179 570.577H110.438C111.71 524.57 114.907 481.437 120.017 441.176H146.861L178.103 536.259H178.296L209.731 441.176H235.415C241.04 488.334 244.363 531.471 245.384 570.577ZM339.312 475.105C330.494 522.958 318.859 557.729 304.42 579.433C293.171 596.14 280.845 604.502 267.423 604.502C263.845 604.502 259.43 603.422 254.198 601.28V589.741C256.755 590.109 259.756 590.319 263.205 590.319C269.474 590.319 274.513 588.594 278.355 585.137C282.95 580.927 285.248 576.194 285.248 570.958C285.248 567.367 283.457 560.026 279.883 548.91L256.115 475.101H277.392L294.451 530.303C298.285 542.838 299.884 551.589 299.243 556.574C308.572 531.659 315.088 504.493 318.801 475.097H339.312V475.105Z" fill="#5D87A1"/>
<path d="M627.603 570.577H566.081V441.175H586.777V554.648H627.603V570.577ZM549.977 573.703L526.188 561.963C528.297 560.231 530.315 558.356 532.131 556.184C542.242 544.306 547.286 526.741 547.286 503.476C547.286 460.666 530.486 439.25 496.875 439.25C480.394 439.25 467.537 444.682 458.342 455.551C448.239 467.437 443.196 484.94 443.196 508.079C443.196 530.826 447.666 547.512 456.61 558.096C464.792 567.685 477.125 572.485 493.619 572.485C499.771 572.485 505.417 571.732 510.561 570.212L541.531 588.242L549.977 573.703ZM472.915 544.683C467.675 536.254 465.055 522.719 465.055 504.057C465.055 471.476 474.953 455.166 494.77 455.166C505.128 455.166 512.72 459.067 517.575 466.851C522.806 475.293 525.439 488.706 525.439 507.108C525.439 539.958 515.533 556.385 495.728 556.385C485.366 556.389 477.774 552.501 472.915 544.683ZM434.177 534.71C434.177 545.683 430.151 554.685 422.107 561.737C414.055 568.76 403.257 572.28 389.726 572.28C377.07 572.28 364.799 568.237 352.922 560.193L358.484 549.081C368.704 554.2 377.958 556.745 386.265 556.745C394.062 556.745 400.156 555.016 404.575 551.588C408.991 548.148 411.623 543.323 411.623 537.221C411.623 529.533 406.262 522.962 396.427 517.458C387.357 512.478 369.219 502.065 369.219 502.065C359.388 494.9 354.466 487.208 354.466 474.535C354.466 464.047 358.137 455.581 365.482 449.14C372.835 442.673 382.323 439.451 393.953 439.451C405.965 439.451 416.884 442.669 426.719 449.039L421.73 460.155C413.318 456.581 405.015 454.794 396.824 454.794C390.191 454.794 385.068 456.388 381.507 459.59C377.916 462.779 375.702 466.86 375.702 471.865C375.702 479.516 381.176 486.17 391.279 491.782C400.47 496.771 419.06 507.364 419.06 507.364C429.142 514.516 434.177 522.137 434.177 534.71Z" fill="#F8981D"/>
<path d="M653.584 397.835C641.071 397.517 631.382 398.777 623.25 402.217C620.902 403.154 617.169 403.154 616.843 406.122C618.111 407.377 618.257 409.403 619.358 411.135C621.233 414.262 624.501 418.468 627.486 420.661C630.762 423.172 634.052 425.658 637.501 427.847C643.582 431.609 650.475 433.798 656.401 437.548C659.854 439.728 663.285 442.549 666.742 444.897C668.442 446.149 669.53 448.178 671.735 448.961V448.484C670.63 447.078 670.317 445.044 669.233 443.478L664.537 438.95C660 432.856 654.363 427.537 648.282 423.168C643.276 419.719 632.328 415.032 630.298 409.265L629.98 408.947C633.42 408.624 637.501 407.377 640.769 406.419C646.089 405.017 650.939 405.335 656.397 403.933C658.908 403.305 661.398 402.518 663.917 401.744V400.333C661.088 397.517 659.071 393.775 656.095 391.114C648.135 384.237 639.363 377.512 630.298 371.883C625.443 368.748 619.199 366.731 614.03 364.065C612.168 363.123 609.029 362.659 607.932 361.093C605.128 357.653 603.55 353.125 601.516 349.053C596.997 340.46 592.606 330.927 588.706 321.841C585.885 315.747 584.169 309.662 580.729 304.024C564.616 277.448 547.118 261.352 520.224 245.553C514.444 242.264 507.568 240.862 500.223 239.137L488.492 238.518C485.989 237.421 483.482 234.446 481.297 233.04C472.375 227.415 449.402 215.223 442.84 231.319C438.613 241.494 449.092 251.496 452.692 256.656C455.349 260.239 458.794 264.315 460.652 268.383C461.753 271.041 462.062 273.862 463.163 276.67C465.666 283.55 468.005 291.205 471.295 297.625C473.011 300.898 474.882 304.338 477.075 307.301C478.33 309.034 480.515 309.8 480.992 312.625C478.811 315.739 478.64 320.438 477.388 324.347C471.764 342.013 473.961 363.897 481.934 376.88C484.428 380.789 490.379 389.393 498.339 386.095C505.387 383.283 503.826 374.373 505.852 366.559C506.316 364.672 506.011 363.433 506.948 362.194V362.499C509.129 366.873 511.33 371.087 513.352 375.473C518.202 383.128 526.648 391.105 533.683 396.408C537.429 399.237 540.396 404.075 545.088 405.803V405.335H544.778C543.828 403.933 542.439 403.305 541.191 402.217C538.371 399.4 535.248 395.96 533.06 392.838C526.506 384.078 520.705 374.381 515.557 364.374C513.038 359.52 510.866 354.213 508.836 349.366C507.89 347.496 507.89 344.675 506.321 343.733C503.968 347.169 500.541 350.145 498.825 354.355C495.849 361.089 495.54 369.372 494.435 377.985L493.819 378.286C488.839 377.035 487.106 371.883 485.215 367.509C480.532 356.402 479.745 338.573 483.809 325.758C484.897 322.481 489.605 312.16 487.726 309.038C486.784 306.046 483.654 304.342 481.938 301.986C479.92 299.023 477.711 295.273 476.304 291.983C472.555 283.232 470.667 273.535 466.628 264.788C464.741 260.712 461.464 256.493 458.81 252.739C455.831 248.52 452.554 245.549 450.197 240.548C449.419 238.828 448.327 236.015 449.578 234.144C449.883 232.889 450.52 232.42 451.767 232.106C453.792 230.394 459.581 232.571 461.61 233.512C467.407 235.856 472.253 238.045 477.091 241.326C479.28 242.896 481.628 245.867 484.436 246.65H487.726C492.719 247.738 498.348 246.951 503.048 248.366C511.33 251.027 518.834 254.932 525.564 259.147C546.042 272.133 562.929 290.586 574.33 312.625C576.2 316.216 576.996 319.505 578.703 323.251C581.997 330.918 586.069 338.736 589.338 346.24C592.623 353.585 595.753 361.085 600.445 367.187C602.785 370.468 612.185 372.188 616.399 373.908C619.517 375.31 624.372 376.557 627.184 378.278C632.503 381.555 637.802 385.317 642.803 388.92C645.293 390.795 653.12 394.704 653.584 397.835ZM494.104 261.967C491.946 261.945 489.794 262.21 487.705 262.754V263.068H488.006C489.266 265.567 491.455 267.299 493.016 269.48C494.276 271.987 495.368 274.473 496.603 276.975L496.904 276.666C499.109 275.105 500.206 272.602 500.206 268.848C499.256 267.743 499.109 266.663 498.318 265.567C497.398 264.001 495.368 263.223 494.104 261.967Z" fill="#5D87A1"/>
<path d="M668.48 570.557H671.72V554.703H666.861L662.897 565.522L658.591 554.703H653.912V570.557H656.971V558.495H657.143L661.654 570.557H663.985L668.48 558.495V570.557ZM642.386 570.557H645.813V557.39H650.3V554.699H637.711V557.39H642.377L642.386 570.557Z" fill="#F8981D"/>
</svg>
