<svg width="246" height="63" viewBox="0 0 246 63" fill="none" xmlns="http://www.w3.org/2000/svg">
<g clip-path="url(#clip0_3972_7263)">
<path d="M81.231 43.8055C80.4795 43.3998 79.9014 42.531 79.9014 41.3731C79.9014 39.8122 81.1154 38.5466 82.7399 38.5466C83.3154 38.5466 83.8383 38.7159 84.2404 38.9476C87.1951 40.9164 90.2623 41.9007 93.0358 41.9007C96.044 41.9007 97.7795 40.6263 97.7795 38.5987V38.484C97.7795 36.1116 94.5415 35.3028 90.9514 34.2044C86.441 32.9304 81.4071 31.081 81.4071 25.2362V25.119C81.4071 19.332 86.2091 15.8039 92.2847 15.8039C95.5258 15.8039 98.9378 16.731 101.889 18.2908C102.875 18.8132 103.566 19.7394 103.566 20.9512C103.566 22.5731 102.295 23.7908 100.675 23.7908C100.093 23.7908 99.7467 23.6747 99.2888 23.4419C96.7967 22.1674 94.2519 21.356 92.1118 21.356C89.3904 21.356 87.8279 22.632 87.8279 24.369V24.4815C87.8279 26.7388 91.1258 27.6622 94.7143 28.8216C99.1695 30.2112 104.203 32.2351 104.203 37.7315V37.8487C104.203 44.2706 99.2248 47.4492 92.8618 47.4492C88.9878 47.4492 84.7638 46.2383 81.231 43.8055Z" fill="#5FB832"/>
<path d="M131.326 31.6575V31.5403C131.326 25.6414 127.333 21.7643 122.591 21.7643C117.846 21.7643 113.681 25.6987 113.681 31.5403V31.6575C113.681 37.5012 117.846 41.4394 122.591 41.4394C127.393 41.4394 131.326 37.6758 131.326 31.6575ZM106.852 19.3315C106.852 17.3679 108.354 15.8034 110.325 15.8034C112.291 15.8034 113.854 17.3679 113.854 19.3315V21.4175C116.11 18.2367 119.292 15.6899 124.269 15.6899C131.442 15.6899 138.444 21.3575 138.444 31.5403V31.6575C138.444 41.7842 131.5 47.5107 124.269 47.5107C119.178 47.5107 115.995 44.9622 113.854 42.1331V52.9466C113.854 54.9211 112.291 56.4258 110.325 56.4258C108.417 56.4258 106.852 54.9211 106.852 52.9466V19.3315Z" fill="#5FB832"/>
<path d="M141.096 19.3354C141.096 17.372 142.596 15.8073 144.564 15.8073C146.536 15.8073 148.096 17.372 148.096 19.3354V21.0188C148.446 18.3969 152.723 15.8073 155.791 15.8073C157.988 15.8073 159.263 17.2526 159.263 19.2766C159.263 21.1266 158.047 22.3438 156.484 22.6324C151.508 23.5006 148.096 27.8548 148.096 33.8786V43.9725C148.096 45.884 146.536 47.4453 144.564 47.4453C142.656 47.4453 141.096 45.9401 141.096 43.9725V19.3354Z" fill="#5FB832"/>
<path d="M161.911 19.3496C161.911 17.3829 163.42 15.8182 165.384 15.8182C167.351 15.8182 168.913 17.3829 168.913 19.3496V43.9782C168.913 45.9428 167.351 47.4453 165.384 47.4453C163.473 47.4453 161.911 45.9428 161.911 43.9782V19.3496Z" fill="#5FB832"/>
<path d="M172.443 19.3659C172.443 17.3992 173.948 15.8383 175.912 15.8383C177.882 15.8383 179.443 17.3992 179.443 19.3659V20.8024C181.414 17.9664 184.244 15.8206 188.988 15.8206C195.874 15.8206 199.868 20.4514 199.868 27.5092V43.9768C199.868 45.943 198.362 47.4492 196.395 47.4492C194.428 47.4492 192.867 45.943 192.867 43.9768V29.6508C192.867 24.9087 190.495 22.1872 186.328 22.1872C182.279 22.1872 179.443 25.0222 179.443 29.7702V43.9768C179.443 45.943 177.882 47.4492 175.912 47.4492C174.004 47.4492 172.443 45.943 172.443 43.9768V19.3659Z" fill="#5FB832"/>
<path d="M218.373 41.375C213.567 41.375 209.636 37.613 209.636 31.5949V31.4812C209.636 25.5807 213.625 21.7036 218.373 21.7036C223.119 21.7036 227.284 25.6391 227.284 31.4812V31.5949C227.284 37.44 223.119 41.375 218.373 41.375ZM230.633 15.7427C228.669 15.7427 227.107 17.3083 227.107 19.2724V21.3547C224.848 18.1739 221.669 15.6286 216.696 15.6286C209.517 15.6286 202.519 21.2963 202.519 31.4812V31.5949C202.519 41.7214 209.46 47.4463 216.696 47.4463C221.757 47.4463 224.932 44.9282 227.075 42.113C226.724 47.6146 223.356 50.5193 217.448 50.5193C213.921 50.5193 210.853 49.6484 208.072 48.0834C207.725 47.914 207.327 47.7995 206.804 47.7995C205.184 47.7995 203.849 49.1318 203.849 50.6891C203.849 52.0208 204.603 53.0042 205.821 53.4672C209.519 55.2615 213.335 56.1875 217.619 56.1875C223.119 56.1875 227.401 54.8578 230.179 52.0792C232.719 49.5312 234.108 45.7172 234.108 40.5651V19.2724C234.108 17.3083 232.604 15.7427 230.633 15.7427Z" fill="#5FB832"/>
<path d="M168.941 7.38824C168.941 9.33504 167.36 10.918 165.411 10.918C163.46 10.918 161.883 9.33504 161.883 7.38824C161.883 5.4361 163.46 3.8601 165.411 3.8601C167.36 3.8601 168.941 5.4361 168.941 7.38824Z" fill="#5FB832"/>
<path d="M57.7427 45.3555C49.9812 55.6966 33.4016 52.206 22.7719 52.7081C22.7719 52.7081 20.8901 52.8128 18.9948 53.1247C18.9948 53.1247 19.7115 52.819 20.6255 52.5039C28.0912 49.9221 31.6193 49.4033 36.1557 47.0732C44.6792 42.7071 53.162 33.1965 54.888 23.3169C51.6437 32.8189 41.7765 40.9971 32.7921 44.318C26.6427 46.5872 15.5219 48.7956 15.5203 48.7965C15.5255 48.8044 15.0771 48.5637 15.0708 48.5585C7.50781 44.8789 7.28959 28.4987 21.0255 23.2185C27.0479 20.9019 32.8084 22.1743 39.3188 20.6247C46.2625 18.9738 54.3047 13.769 57.5735 6.96429C61.238 17.8336 65.6401 34.8388 57.7427 45.3555ZM57.8776 3.59615C56.9536 5.79135 55.826 7.76948 54.526 9.53882C48.8041 3.66642 40.8177 0.00761687 31.9901 0.00761687C14.6255 0.00761687 0.5 14.1347 0.5 31.4962C0.5 40.5976 4.38489 48.806 10.5786 54.5596L11.2682 55.1706C10.1167 54.2315 9.93959 52.5404 10.8729 51.3878C11.812 50.2346 13.5047 50.056 14.6568 50.9898C15.812 51.9258 15.988 53.6211 15.0527 54.7758C14.1208 55.931 12.425 56.1055 11.2714 55.1732L11.7406 55.5888C17.2193 60.2018 24.2817 62.9883 31.9901 62.9883C48.588 62.9883 62.2172 50.0716 63.3839 33.7686C64.2479 25.7862 61.8901 15.6503 57.8776 3.59615Z" fill="#5FB832"/>
<path d="M242.306 17.9479H241.206V19.4041H242.306C242.662 19.4041 243.052 19.1167 243.052 18.6932C243.052 18.2353 242.662 17.9479 242.306 17.9479ZM242.985 21.5531L241.917 19.9281H241.206V21.5531H240.632V17.4396H242.306C243.001 17.4396 243.645 17.9317 243.645 18.6932C243.645 19.6067 242.83 19.9119 242.594 19.9119L243.696 21.5531H242.985ZM242.002 16.4411C240.309 16.4411 238.954 17.7952 238.954 19.4891C238.954 21.164 240.309 22.5359 242.002 22.5359C243.677 22.5359 245.049 21.164 245.049 19.4891C245.049 17.7952 243.677 16.4411 242.002 16.4411ZM242.002 23.0781C240.021 23.0781 238.413 21.4692 238.413 19.4891C238.413 17.49 240.021 15.8989 242.002 15.8989C244 15.8989 245.592 17.49 245.592 19.4891C245.592 21.4692 244 23.0781 242.002 23.0781Z" fill="#5FB832"/>
</g>
<defs>
<clipPath id="clip0_3972_7263">
<rect width="245.093" height="62.9867" fill="white" transform="translate(0.5)"/>
</clipPath>
</defs>
</svg>
