<svg width="1312" height="2672" viewBox="0 0 1312 2672" fill="none" xmlns="http://www.w3.org/2000/svg">
<g clip-path="url(#clip0_3903_25740)">
<mask id="mask0_3903_25740" style="mask-type:luminance" maskUnits="userSpaceOnUse" x="0" y="0" width="1312" height="2672">
<path d="M1312 0H0V2672H1312V0Z" fill="white"/>
</mask>
<g mask="url(#mask0_3903_25740)">
<mask id="mask1_3903_25740" style="mask-type:luminance" maskUnits="userSpaceOnUse" x="0" y="0" width="1312" height="2672">
<path d="M1312 0H0V2672H1312V0Z" fill="white"/>
</mask>
<g mask="url(#mask1_3903_25740)">
<mask id="mask2_3903_25740" style="mask-type:luminance" maskUnits="userSpaceOnUse" x="0" y="0" width="1312" height="2672">
<path d="M1312 0H0V2672H1312V0Z" fill="white"/>
</mask>
<g mask="url(#mask2_3903_25740)">
<mask id="mask3_3903_25740" style="mask-type:luminance" maskUnits="userSpaceOnUse" x="0" y="0" width="1312" height="2672">
<path d="M1312 0H0V2672H1312V0Z" fill="white"/>
</mask>
<g mask="url(#mask3_3903_25740)">
<mask id="mask4_3903_25740" style="mask-type:luminance" maskUnits="userSpaceOnUse" x="0" y="0" width="1312" height="2672">
<path d="M1312 0H0V2672H1312V0Z" fill="white"/>
</mask>
<g mask="url(#mask4_3903_25740)">
<mask id="mask5_3903_25740" style="mask-type:alpha" maskUnits="userSpaceOnUse" x="0" y="0" width="1312" height="2672">
<path fill-rule="evenodd" clip-rule="evenodd" d="M1312 0H0V2672H1312V0ZM1229.13 147.546C1247 182.627 1247 228.551 1247 320.4V2351.6C1247 2443.45 1247 2489.37 1229.13 2524.45C1213.4 2555.31 1188.31 2580.4 1157.45 2596.12C1122.37 2614 1076.45 2614 984.6 2614H330.4C238.551 2614 192.627 2614 157.546 2596.12C126.687 2580.4 101.598 2555.31 85.8749 2524.45C68 2489.37 68 2443.45 68 2351.6V320.4C68 228.551 68 182.627 85.8749 147.546C101.598 116.687 126.687 91.5982 157.546 75.8749C192.627 58 238.551 58 330.4 58H984.6C1076.45 58 1122.37 58 1157.45 75.8749C1188.31 91.5982 1213.4 116.687 1229.13 147.546ZM470 147C470 116.624 494.624 92 525 92H790C820.376 92 845 116.624 845 147C845 177.376 820.376 202 790 202H525C494.624 202 470 177.376 470 147Z" fill="#CCCCCC"/>
</mask>
<g mask="url(#mask5_3903_25740)">
<mask id="mask6_3903_25740" style="mask-type:luminance" maskUnits="userSpaceOnUse" x="0" y="544" width="24" height="100">
<path d="M20 544H4C1.79086 544 0 545.791 0 548V640C0 642.209 1.79086 644 4 644H20C22.2091 644 24 642.209 24 640V548C24 545.791 22.2091 544 20 544Z" fill="white"/>
</mask>
<g mask="url(#mask6_3903_25740)">
<g filter="url(#filter0_i_3903_25740)">
<path d="M21 544H3C1.34315 544 0 545.343 0 547V641C0 642.657 1.34315 644 3 644H21C22.6569 644 24 642.657 24 641V547C24 545.343 22.6569 544 21 544Z" fill="#E8C3C5"/>
</g>
<g opacity="0.4" filter="url(#filter1_f_3903_25740)">
<path d="M10.5 640H3.5C1.567 640 0 641.567 0 643.5C0 645.433 1.567 647 3.5 647H10.5C12.433 647 14 645.433 14 643.5C14 641.567 12.433 640 10.5 640Z" fill="white"/>
</g>
<g filter="url(#filter2_f_3903_25740)">
<path d="M-3 547.964C-3 546.327 -1.67284 545 -0.0357094 545C1.62905 545 2.96737 546.371 2.92774 548.035L1.04704 627.024C1.02088 628.123 0.122755 629 -0.976194 629C-2.09391 629 -3 628.094 -3 626.976V547.964Z" fill="white" fill-opacity="0.4"/>
</g>
<g filter="url(#filter3_f_3903_25740)">
<path d="M-1 551C-1 547.686 1.68629 545 5 545H7.09167C9.25018 545 11 546.75 11 548.908C11 550.215 10.3469 551.435 9.25962 552.16L-1 559V551Z" fill="white" fill-opacity="0.45"/>
</g>
</g>
<path d="M20 544.5H4C2.067 544.5 0.5 546.067 0.5 548V640C0.5 641.933 2.067 643.5 4 643.5H20C21.933 643.5 23.5 641.933 23.5 640V548C23.5 546.067 21.933 544.5 20 544.5Z" stroke="black" stroke-opacity="0.5"/>
<mask id="mask7_3903_25740" style="mask-type:luminance" maskUnits="userSpaceOnUse" x="2" y="736" width="24" height="202">
<path d="M22 736H6C3.79086 736 2 737.791 2 740V934C2 936.209 3.79086 938 6 938H22C24.2091 938 26 936.209 26 934V740C26 737.791 24.2091 736 22 736Z" fill="white"/>
</mask>
<g mask="url(#mask7_3903_25740)">
<g filter="url(#filter4_i_3903_25740)">
<path d="M23 736H5C3.34315 736 2 737.343 2 739V935C2 936.657 3.34315 938 5 938H23C24.6569 938 26 936.657 26 935V739C26 737.343 24.6569 736 23 736Z" fill="#E8C3C5"/>
</g>
<g opacity="0.4" filter="url(#filter5_f_3903_25740)">
<path d="M11 932H7C4.23858 932 2 934.239 2 937C2 939.761 4.23858 942 7 942H11C13.7614 942 16 939.761 16 937C16 934.239 13.7614 932 11 932Z" fill="white"/>
</g>
<g filter="url(#filter6_f_3903_25740)">
<path d="M-1 739.984C-1 738.336 0.336114 737 1.98429 737C3.64469 737 4.98581 738.355 4.96842 740.016L3.02083 926.011C3.00929 927.113 2.11261 928 1.01047 928C-0.0998815 928 -1 927.1 -1 925.99V739.984Z" fill="white" fill-opacity="0.4"/>
</g>
<g filter="url(#filter7_f_3903_25740)">
<path d="M1 747C1 743.686 3.68629 741 7 741C10.3137 741 13 743.686 13 747V748.491C13 750.715 12.0125 752.823 10.3045 754.246L1 762V747Z" fill="white" fill-opacity="0.35"/>
</g>
</g>
<path d="M22 736.5H6C4.067 736.5 2.5 738.067 2.5 740V934C2.5 935.933 4.067 937.5 6 937.5H22C23.933 937.5 25.5 935.933 25.5 934V740C25.5 738.067 23.933 736.5 22 736.5Z" stroke="black" stroke-opacity="0.5"/>
<mask id="mask8_3903_25740" style="mask-type:luminance" maskUnits="userSpaceOnUse" x="1288" y="806" width="24" height="320">
<path d="M1292 806H1308C1310.21 806 1312 807.791 1312 810V1122C1312 1124.21 1310.21 1126 1308 1126H1292C1289.79 1126 1288 1124.21 1288 1122V810C1288 807.791 1289.79 806 1292 806Z" fill="white"/>
</mask>
<g mask="url(#mask8_3903_25740)">
<g filter="url(#filter8_i_3903_25740)">
<path d="M1291 806H1309C1310.66 806 1312 807.343 1312 809V1123C1312 1124.66 1310.66 1126 1309 1126H1291C1289.34 1126 1288 1124.66 1288 1123V809C1288 807.343 1289.34 806 1291 806Z" fill="#E8C3C5"/>
</g>
<g opacity="0.4" filter="url(#filter9_f_3903_25740)">
<path d="M1299 1113H1311C1311.55 1113 1312 1113.45 1312 1114V1129C1312 1129.55 1311.55 1130 1311 1130H1299C1298.45 1130 1298 1129.55 1298 1129V1114C1298 1113.45 1298.45 1113 1299 1113Z" fill="url(#paint0_linear_3903_25740)"/>
</g>
<g filter="url(#filter10_f_3903_25740)">
<path d="M1315 809.99C1315 808.339 1313.66 807 1312.01 807C1310.35 807 1309.01 808.351 1309.02 810.01L1310.99 1114.01C1310.99 1115.11 1311.89 1116 1312.99 1116C1314.1 1116 1315 1115.1 1315 1113.99V809.99Z" fill="white" fill-opacity="0.4"/>
</g>
<g filter="url(#filter11_f_3903_25740)">
<path d="M1313 817C1313 813.686 1310.31 811 1307 811C1303.69 811 1301 813.686 1301 817V820.271C1301 823.782 1302.98 826.992 1306.12 828.562L1313 832V817Z" fill="white" fill-opacity="0.35"/>
</g>
</g>
<path d="M1292 806.5H1308C1309.93 806.5 1311.5 808.067 1311.5 810V1122C1311.5 1123.93 1309.93 1125.5 1308 1125.5H1292C1290.07 1125.5 1288.5 1123.93 1288.5 1122V810C1288.5 808.067 1290.07 806.5 1292 806.5Z" stroke="black" stroke-opacity="0.5"/>
<mask id="mask9_3903_25740" style="mask-type:luminance" maskUnits="userSpaceOnUse" x="2" y="993" width="24" height="202">
<path d="M22 993H6C3.79086 993 2 994.791 2 997V1191C2 1193.21 3.79086 1195 6 1195H22C24.2091 1195 26 1193.21 26 1191V997C26 994.791 24.2091 993 22 993Z" fill="white"/>
</mask>
<g mask="url(#mask9_3903_25740)">
<g filter="url(#filter12_i_3903_25740)">
<path d="M23 993H5C3.34315 993 2 994.343 2 996V1192C2 1193.66 3.34315 1195 5 1195H23C24.6569 1195 26 1193.66 26 1192V996C26 994.343 24.6569 993 23 993Z" fill="#E8C3C5"/>
</g>
<g opacity="0.4" filter="url(#filter13_f_3903_25740)">
<path d="M11 1190H7C4.23858 1190 2 1192.24 2 1195C2 1197.76 4.23858 1200 7 1200H11C13.7614 1200 16 1197.76 16 1195C16 1192.24 13.7614 1190 11 1190Z" fill="white"/>
</g>
<g filter="url(#filter14_f_3903_25740)">
<path d="M-1 996.984C-1 995.336 0.336114 994 1.98429 994C3.64469 994 4.98581 995.355 4.96842 997.016L3.02083 1183.01C3.00929 1184.11 2.11261 1185 1.01047 1185C-0.0998815 1185 -1 1184.1 -1 1182.99V996.984Z" fill="white" fill-opacity="0.4"/>
</g>
<g filter="url(#filter15_f_3903_25740)">
<path d="M1 1004C1 1000.69 3.68629 998 7 998C10.3137 998 13 1000.69 13 1004V1005.49C13 1007.71 12.0125 1009.82 10.3045 1011.25L1 1019V1004Z" fill="white" fill-opacity="0.35"/>
</g>
</g>
<path d="M22 993.5H6C4.067 993.5 2.5 995.067 2.5 997V1191C2.5 1192.93 4.067 1194.5 6 1194.5H22C23.933 1194.5 25.5 1192.93 25.5 1191V997C25.5 995.067 23.933 993.5 22 993.5Z" stroke="black" stroke-opacity="0.5"/>
<mask id="mask10_3903_25740" style="mask-type:alpha" maskUnits="userSpaceOnUse" x="10" y="0" width="1295" height="2672">
<path d="M1083 0H232C109.393 0 10 99.3928 10 222V2450C10 2572.61 109.393 2672 232 2672H1083C1205.61 2672 1305 2572.61 1305 2450V222C1305 99.3928 1205.61 0 1083 0Z" fill="white"/>
</mask>
<g mask="url(#mask10_3903_25740)">
<g filter="url(#filter16_di_3903_25740)">
<path d="M1083 0H232C109.393 0 10 99.3928 10 222V2450C10 2572.61 109.393 2672 232 2672H1083C1205.61 2672 1305 2572.61 1305 2450V222C1305 99.3928 1205.61 0 1083 0Z" fill="#E8C3C5"/>
</g>
<path d="M1048 -1V17H1022V-1H1048Z" fill="white" fill-opacity="0.25"/>
<path d="M1048.5 -1V-1.5H1048H1022H1021.5V-1V17V17.5H1022H1048H1048.5V17V-1Z" stroke="black" stroke-opacity="0.06"/>
<path d="M28 300H9V272H28V300Z" fill="white" fill-opacity="0.25"/>
<path d="M28 300.5H28.5V300V272V271.5H28H9H8.5V272V300V300.5H9H28Z" stroke="black" stroke-opacity="0.06"/>
<path d="M1305 300H1287V272H1305V300Z" fill="white" fill-opacity="0.25"/>
<path d="M1305 300.5H1305.5V300V272V271.5H1305H1287H1286.5V272V300V300.5H1287H1305Z" stroke="black" stroke-opacity="0.06"/>
<path d="M28 2400H9V2372H28V2400Z" fill="white" fill-opacity="0.25"/>
<path d="M28 2400.5H28.5V2400V2372V2371.5H28H9H8.5V2372V2400V2400.5H9H28Z" stroke="black" stroke-opacity="0.06"/>
<path d="M1307 2399H1288V2371H1307V2399Z" fill="white" fill-opacity="0.25"/>
<path d="M1307 2399.5H1307.5V2399V2371V2370.5H1307H1288H1287.5V2371V2399V2399.5H1288H1307Z" stroke="black" stroke-opacity="0.06"/>
<path d="M293 2654V2675H266V2654H293Z" fill="white" fill-opacity="0.25"/>
<path d="M293.5 2654V2653.5H293H266H265.5V2654V2675V2675.5H266H293H293.5V2675V2654Z" stroke="black" stroke-opacity="0.06"/>
</g>
<g filter="url(#filter17_d_3903_25740)">
<path d="M787.5 18H526.5C523.462 18 521 20.4624 521 23.5C521 26.5376 523.462 29 526.5 29H787.5C790.538 29 793 26.5376 793 23.5C793 20.4624 790.538 18 787.5 18Z" fill="#333333" fill-opacity="0.4"/>
<path d="M787.5 18.75H526.5C523.877 18.75 521.75 20.8766 521.75 23.5C521.75 26.1234 523.877 28.25 526.5 28.25H787.5C790.123 28.25 792.25 26.1234 792.25 23.5C792.25 20.8766 790.123 18.75 787.5 18.75Z" stroke="url(#paint1_radial_3903_25740)" stroke-width="1.5"/>
<path d="M787.5 18.75H526.5C523.877 18.75 521.75 20.8766 521.75 23.5C521.75 26.1234 523.877 28.25 526.5 28.25H787.5C790.123 28.25 792.25 26.1234 792.25 23.5C792.25 20.8766 790.123 18.75 787.5 18.75Z" stroke="url(#paint2_linear_3903_25740)" stroke-opacity="0.4" stroke-width="1.5"/>
<path d="M787.5 18.75H526.5C523.877 18.75 521.75 20.8766 521.75 23.5C521.75 26.1234 523.877 28.25 526.5 28.25H787.5C790.123 28.25 792.25 26.1234 792.25 23.5C792.25 20.8766 790.123 18.75 787.5 18.75Z" stroke="black" stroke-width="1.5"/>
</g>
<g filter="url(#filter18_d_3903_25740)">
<path d="M1083 17H232C118.782 17 27 108.782 27 222V2450C27 2563.22 118.782 2655 232 2655H1083C1196.22 2655 1288 2563.22 1288 2450V222C1288 108.782 1196.22 17 1083 17Z" fill="black"/>
</g>
<g filter="url(#filter19_f_3903_25740)">
<path d="M27 345C27 230.189 27 172.784 49.3437 128.932C68.9977 90.3587 100.359 58.9977 138.932 39.3437C182.784 17 240.189 17 355 17H960C1074.81 17 1132.22 17 1176.07 39.3437C1214.64 58.9977 1246 90.3587 1265.66 128.932C1288 172.784 1288 230.189 1288 345V2327C1288 2441.81 1288 2499.22 1265.66 2543.07C1246 2581.64 1214.64 2613 1176.07 2632.66C1132.22 2655 1074.81 2655 960 2655H355C240.189 2655 182.784 2655 138.932 2632.66C100.359 2613 68.9977 2581.64 49.3437 2543.07C27 2499.22 27 2441.81 27 2327V345Z" fill="black"/>
<mask id="mask11_3903_25740" style="mask-type:luminance" maskUnits="userSpaceOnUse" x="25" y="15" width="1265" height="2642">
<path d="M1290 15H25V2657H1290V15Z" fill="white"/>
<path d="M27 345C27 230.189 27 172.784 49.3437 128.932C68.9977 90.3587 100.359 58.9977 138.932 39.3437C182.784 17 240.189 17 355 17H960C1074.81 17 1132.22 17 1176.07 39.3437C1214.64 58.9977 1246 90.3587 1265.66 128.932C1288 172.784 1288 230.189 1288 345V2327C1288 2441.81 1288 2499.22 1265.66 2543.07C1246 2581.64 1214.64 2613 1176.07 2632.66C1132.22 2655 1074.81 2655 960 2655H355C240.189 2655 182.784 2655 138.932 2632.66C100.359 2613 68.9977 2581.64 49.3437 2543.07C27 2499.22 27 2441.81 27 2327V345Z" fill="black"/>
</mask>
<g mask="url(#mask11_3903_25740)">
<path d="M355 19H960V15H355V19ZM1286 345V2327H1290V345H1286ZM960 2653H355V2657H960V2653ZM29 2327V345H25V2327H29ZM355 2653C297.562 2653 254.603 2653 220.519 2650.21C186.459 2647.43 161.437 2641.88 139.84 2630.87L138.024 2634.44C160.279 2645.78 185.886 2651.4 220.194 2654.2C254.478 2657 297.628 2657 355 2657V2653ZM25 2327C25 2384.37 24.9984 2427.52 27.7996 2461.81C30.6027 2496.11 36.2222 2521.72 47.5617 2543.98L51.1257 2542.16C40.1214 2520.56 34.5692 2495.54 31.7863 2461.48C29.0016 2427.4 29 2384.44 29 2327H25ZM139.84 2630.87C101.643 2611.41 70.588 2580.36 51.1257 2542.16L47.5617 2543.98C67.4074 2582.93 99.0744 2614.59 138.024 2634.44L139.84 2630.87ZM1286 2327C1286 2384.44 1286 2427.4 1283.21 2461.48C1280.43 2495.54 1274.88 2520.56 1263.87 2542.16L1267.44 2543.98C1278.78 2521.72 1284.4 2496.11 1287.2 2461.81C1290 2427.52 1290 2384.37 1290 2327H1286ZM960 2657C1017.37 2657 1060.52 2657 1094.81 2654.2C1129.11 2651.4 1154.72 2645.78 1176.98 2634.44L1175.16 2630.87C1153.56 2641.88 1128.54 2647.43 1094.48 2650.21C1060.4 2653 1017.44 2653 960 2653V2657ZM1263.87 2542.16C1244.41 2580.36 1213.36 2611.41 1175.16 2630.87L1176.98 2634.44C1215.93 2614.59 1247.59 2582.93 1267.44 2543.98L1263.87 2542.16ZM960 19C1017.44 19 1060.4 19.0016 1094.48 21.7863C1128.54 24.5692 1153.56 30.1214 1175.16 41.1257L1176.98 37.5617C1154.72 26.2222 1129.11 20.6027 1094.81 17.7996C1060.52 14.9984 1017.37 15 960 15V19ZM1290 345C1290 287.628 1290 244.478 1287.2 210.194C1284.4 175.886 1278.78 150.279 1267.44 128.024L1263.87 129.84C1274.88 151.437 1280.43 176.459 1283.21 210.519C1286 244.603 1286 287.562 1286 345H1290ZM1175.16 41.1257C1213.36 60.588 1244.41 91.643 1263.87 129.84L1267.44 128.024C1247.59 89.0744 1215.93 57.4074 1176.98 37.5617L1175.16 41.1257ZM355 15C297.628 15 254.478 14.9984 220.194 17.7996C185.886 20.6027 160.279 26.2222 138.024 37.5617L139.84 41.1257C161.437 30.1214 186.459 24.5692 220.519 21.7863C254.603 19.0016 297.562 19 355 19V15ZM29 345C29 287.562 29.0016 244.603 31.7863 210.519C34.5692 176.459 40.1214 151.437 51.1257 129.84L47.5617 128.024C36.2222 150.279 30.6027 175.886 27.7996 210.194C24.9984 244.478 25 287.628 25 345H29ZM138.024 37.5617C99.0744 57.4074 67.4074 89.0744 47.5617 128.024L51.1257 129.84C70.588 91.643 101.643 60.588 139.84 41.1257L138.024 37.5617Z" fill="black"/>
</g>
</g>
<g filter="url(#filter20_d_3903_25740)">
<path d="M778.5 17H517.5C514.462 17 512 19.4624 512 22.5C512 25.5376 514.462 28 517.5 28H778.5C781.538 28 784 25.5376 784 22.5C784 19.4624 781.538 17 778.5 17Z" fill="#333333" fill-opacity="0.4"/>
<path d="M778.5 17.75H517.5C514.877 17.75 512.75 19.8766 512.75 22.5C512.75 25.1234 514.877 27.25 517.5 27.25H778.5C781.123 27.25 783.25 25.1234 783.25 22.5C783.25 19.8766 781.123 17.75 778.5 17.75Z" stroke="url(#paint3_radial_3903_25740)" stroke-width="1.5"/>
<path d="M778.5 17.75H517.5C514.877 17.75 512.75 19.8766 512.75 22.5C512.75 25.1234 514.877 27.25 517.5 27.25H778.5C781.123 27.25 783.25 25.1234 783.25 22.5C783.25 19.8766 781.123 17.75 778.5 17.75Z" stroke="url(#paint4_linear_3903_25740)" stroke-opacity="0.4" stroke-width="1.5"/>
<path d="M778.5 17.75H517.5C514.877 17.75 512.75 19.8766 512.75 22.5C512.75 25.1234 514.877 27.25 517.5 27.25H778.5C781.123 27.25 783.25 25.1234 783.25 22.5C783.25 19.8766 781.123 17.75 778.5 17.75Z" stroke="black" stroke-width="1.5"/>
</g>
<mask id="mask12_3903_25740" style="mask-type:alpha" maskUnits="userSpaceOnUse" x="27" y="17" width="1261" height="2638">
<path fill-rule="evenodd" clip-rule="evenodd" d="M49.3437 128.932C27 172.784 27 230.189 27 345V2327C27 2441.81 27 2499.22 49.3437 2543.07C68.9977 2581.64 100.359 2613 138.932 2632.66C182.784 2655 240.189 2655 355 2655H960C1074.81 2655 1132.22 2655 1176.07 2632.66C1214.64 2613 1246 2581.64 1265.66 2543.07C1288 2499.22 1288 2441.81 1288 2327V345C1288 230.189 1288 172.784 1265.66 128.932C1246 90.3587 1214.64 58.9977 1176.07 39.3437C1132.22 17 1074.81 17 960 17H791H790.712C788.371 17 786.148 18.0251 784.628 19.8052L784.04 20.4935C782.14 22.7186 779.361 24 776.435 24H538.565C535.639 24 532.86 22.7186 530.96 20.4935L530.372 19.8052C528.852 18.0251 526.629 17 524.288 17H524H355C240.189 17 182.784 17 138.932 39.3437C100.359 58.9977 68.9977 90.3587 49.3437 128.932Z" fill="black"/>
</mask>
<g mask="url(#mask12_3903_25740)">
<g filter="url(#filter21_i_3903_25740)">
<path fill-rule="evenodd" clip-rule="evenodd" d="M49.3437 128.932C27 172.784 27 230.189 27 345V2327C27 2441.81 27 2499.22 49.3437 2543.07C68.9977 2581.64 100.359 2613 138.932 2632.66C182.784 2655 240.189 2655 355 2655H960C1074.81 2655 1132.22 2655 1176.07 2632.66C1214.64 2613 1246 2581.64 1265.66 2543.07C1288 2499.22 1288 2441.81 1288 2327V345C1288 230.189 1288 172.784 1265.66 128.932C1246 90.3587 1214.64 58.9977 1176.07 39.3437C1132.22 17 1074.81 17 960 17H791H790.712C788.371 17 786.148 18.0251 784.628 19.8052L782.842 21.8961C781.702 23.2312 780.035 24 778.279 24H536.721C534.965 24 533.298 23.2312 532.158 21.8961L530.372 19.8052C528.852 18.0251 526.629 17 524.288 17H524H355C240.189 17 182.784 17 138.932 39.3437C100.359 58.9977 68.9977 90.3587 49.3437 128.932Z" fill="black"/>
</g>
<g filter="url(#filter22_f_3903_25740)">
<path d="M1083 18H232C119.334 18 28 109.334 28 222V2450C28 2562.67 119.334 2654 232 2654H1083C1195.67 2654 1287 2562.67 1287 2450V222C1287 109.334 1195.67 18 1083 18Z" stroke="white" stroke-opacity="0.8" stroke-width="2"/>
</g>
</g>
<path fill-rule="evenodd" clip-rule="evenodd" d="M1247 320.4C1247 228.551 1247 182.627 1229.13 147.546C1213.4 116.687 1188.31 91.5982 1157.45 75.8749C1122.37 58 1076.45 58 984.6 58H330.4C238.551 58 192.627 58 157.546 75.8749C126.687 91.5982 101.598 116.687 85.8749 147.546C68 182.627 68 228.551 68 320.4V2351.6C68 2443.45 68 2489.37 85.8749 2524.45C101.598 2555.31 126.687 2580.4 157.546 2596.12C192.627 2614 238.551 2614 330.4 2614H984.6C1076.45 2614 1122.37 2614 1157.45 2596.12C1188.31 2580.4 1213.4 2555.31 1229.13 2524.45C1247 2489.37 1247 2443.45 1247 2351.6V320.4ZM525 92C494.624 92 470 116.624 470 147C470 177.376 494.624 202 525 202H790C820.376 202 845 177.376 845 147C845 116.624 820.376 92 790 92H525Z" fill="#1D2129"/>
<path d="M790 92H525C494.624 92 470 116.624 470 147C470 177.376 494.624 202 525 202H790C820.376 202 845 177.376 845 147C845 116.624 820.376 92 790 92Z" fill="black"/>
<path d="M790 176C806.016 176 819 163.016 819 147C819 130.984 806.016 118 790 118C773.984 118 761 130.984 761 147C761 163.016 773.984 176 790 176Z" fill="#090609"/>
<path d="M790 163.5C798.837 163.5 806 156.337 806 147.5C806 138.663 798.837 131.5 790 131.5C781.163 131.5 774 138.663 774 147.5C774 156.337 781.163 163.5 790 163.5Z" fill="#131423"/>
<mask id="mask13_3903_25740" style="mask-type:luminance" maskUnits="userSpaceOnUse" x="777" y="134" width="26" height="27">
<path d="M803 147.5C803 140.32 797.18 134.5 790 134.5C782.82 134.5 777 140.32 777 147.5C777 154.68 782.82 160.5 790 160.5C797.18 160.5 803 154.68 803 147.5Z" fill="white"/>
</mask>
<g mask="url(#mask13_3903_25740)">
<path d="M803 147.5C803 140.32 797.18 134.5 790 134.5C782.82 134.5 777 140.32 777 147.5C777 154.68 782.82 160.5 790 160.5C797.18 160.5 803 154.68 803 147.5Z" fill="#07144C"/>
<g filter="url(#filter23_f_3903_25740)">
<path d="M781 137H799C799 137 800 143.5 800 148.5C800 153.5 799 160 799 160H781C781 160 780 154 780 148.5C780 143 781 137 781 137Z" fill="#030303" fill-opacity="0.8"/>
</g>
<g filter="url(#filter24_f_3903_25740)">
<path d="M790 158C792.761 158 795 155.985 795 153.5C795 151.015 792.761 149 790 149C787.239 149 785 151.015 785 153.5C785 155.985 787.239 158 790 158Z" fill="url(#paint5_linear_3903_25740)"/>
</g>
<g filter="url(#filter25_f_3903_25740)">
<path d="M790 158C791.657 158 793 156.657 793 155C793 153.343 791.657 152 790 152C788.343 152 787 153.343 787 155C787 156.657 788.343 158 790 158Z" fill="url(#paint6_radial_3903_25740)" fill-opacity="0.8"/>
</g>
<path d="M790 155.5C794.418 155.5 798 151.918 798 147.5C798 143.082 794.418 139.5 790 139.5C785.582 139.5 782 143.082 782 147.5C782 151.918 785.582 155.5 790 155.5Z" fill="url(#paint7_radial_3903_25740)"/>
<g filter="url(#filter26_f_3903_25740)">
<path d="M790 157.5C795.523 157.5 800 153.023 800 147.5C800 141.977 795.523 137.5 790 137.5C784.477 137.5 780 141.977 780 147.5C780 153.023 784.477 157.5 790 157.5Z" fill="url(#paint8_radial_3903_25740)"/>
</g>
</g>
<path d="M802.5 147.5C802.5 140.596 796.904 135 790 135C783.096 135 777.5 140.596 777.5 147.5C777.5 154.404 783.096 160 790 160C796.904 160 802.5 154.404 802.5 147.5Z" stroke="url(#paint9_linear_3903_25740)"/>
</g>
</g>
</g>
</g>
</g>
</g>
</g>
<defs>
<filter id="filter0_i_3903_25740" x="0" y="537" width="24" height="107" filterUnits="userSpaceOnUse" color-interpolation-filters="sRGB">
<feFlood flood-opacity="0" result="BackgroundImageFix"/>
<feBlend mode="normal" in="SourceGraphic" in2="BackgroundImageFix" result="shape"/>
<feColorMatrix in="SourceAlpha" type="matrix" values="0 0 0 0 0 0 0 0 0 0 0 0 0 0 0 0 0 0 127 0" result="hardAlpha"/>
<feOffset dy="-10"/>
<feGaussianBlur stdDeviation="3.5"/>
<feComposite in2="hardAlpha" operator="arithmetic" k2="-1" k3="1"/>
<feColorMatrix type="matrix" values="0 0 0 0 0 0 0 0 0 0 0 0 0 0 0 0 0 0 0.5 0"/>
<feBlend mode="normal" in2="shape" result="effect1_innerShadow_3903_25740"/>
</filter>
<filter id="filter1_f_3903_25740" x="-6" y="634" width="26" height="19" filterUnits="userSpaceOnUse" color-interpolation-filters="sRGB">
<feFlood flood-opacity="0" result="BackgroundImageFix"/>
<feBlend mode="normal" in="SourceGraphic" in2="BackgroundImageFix" result="shape"/>
<feGaussianBlur stdDeviation="3" result="effect1_foregroundBlur_3903_25740"/>
</filter>
<filter id="filter2_f_3903_25740" x="-5" y="543" width="9.92871" height="88" filterUnits="userSpaceOnUse" color-interpolation-filters="sRGB">
<feFlood flood-opacity="0" result="BackgroundImageFix"/>
<feBlend mode="normal" in="SourceGraphic" in2="BackgroundImageFix" result="shape"/>
<feGaussianBlur stdDeviation="1" result="effect1_foregroundBlur_3903_25740"/>
</filter>
<filter id="filter3_f_3903_25740" x="-6" y="540" width="22" height="24" filterUnits="userSpaceOnUse" color-interpolation-filters="sRGB">
<feFlood flood-opacity="0" result="BackgroundImageFix"/>
<feBlend mode="normal" in="SourceGraphic" in2="BackgroundImageFix" result="shape"/>
<feGaussianBlur stdDeviation="2.5" result="effect1_foregroundBlur_3903_25740"/>
</filter>
<filter id="filter4_i_3903_25740" x="2" y="729" width="24" height="209" filterUnits="userSpaceOnUse" color-interpolation-filters="sRGB">
<feFlood flood-opacity="0" result="BackgroundImageFix"/>
<feBlend mode="normal" in="SourceGraphic" in2="BackgroundImageFix" result="shape"/>
<feColorMatrix in="SourceAlpha" type="matrix" values="0 0 0 0 0 0 0 0 0 0 0 0 0 0 0 0 0 0 127 0" result="hardAlpha"/>
<feOffset dy="-20"/>
<feGaussianBlur stdDeviation="3.5"/>
<feComposite in2="hardAlpha" operator="arithmetic" k2="-1" k3="1"/>
<feColorMatrix type="matrix" values="0 0 0 0 0 0 0 0 0 0 0 0 0 0 0 0 0 0 0.5 0"/>
<feBlend mode="normal" in2="shape" result="effect1_innerShadow_3903_25740"/>
</filter>
<filter id="filter5_f_3903_25740" x="-4" y="926" width="26" height="22" filterUnits="userSpaceOnUse" color-interpolation-filters="sRGB">
<feFlood flood-opacity="0" result="BackgroundImageFix"/>
<feBlend mode="normal" in="SourceGraphic" in2="BackgroundImageFix" result="shape"/>
<feGaussianBlur stdDeviation="3" result="effect1_foregroundBlur_3903_25740"/>
</filter>
<filter id="filter6_f_3903_25740" x="-3" y="735" width="9.96875" height="195" filterUnits="userSpaceOnUse" color-interpolation-filters="sRGB">
<feFlood flood-opacity="0" result="BackgroundImageFix"/>
<feBlend mode="normal" in="SourceGraphic" in2="BackgroundImageFix" result="shape"/>
<feGaussianBlur stdDeviation="1" result="effect1_foregroundBlur_3903_25740"/>
</filter>
<filter id="filter7_f_3903_25740" x="-4" y="736" width="22" height="31" filterUnits="userSpaceOnUse" color-interpolation-filters="sRGB">
<feFlood flood-opacity="0" result="BackgroundImageFix"/>
<feBlend mode="normal" in="SourceGraphic" in2="BackgroundImageFix" result="shape"/>
<feGaussianBlur stdDeviation="2.5" result="effect1_foregroundBlur_3903_25740"/>
</filter>
<filter id="filter8_i_3903_25740" x="1288" y="799" width="24" height="327" filterUnits="userSpaceOnUse" color-interpolation-filters="sRGB">
<feFlood flood-opacity="0" result="BackgroundImageFix"/>
<feBlend mode="normal" in="SourceGraphic" in2="BackgroundImageFix" result="shape"/>
<feColorMatrix in="SourceAlpha" type="matrix" values="0 0 0 0 0 0 0 0 0 0 0 0 0 0 0 0 0 0 127 0" result="hardAlpha"/>
<feOffset dy="-20"/>
<feGaussianBlur stdDeviation="3.5"/>
<feComposite in2="hardAlpha" operator="arithmetic" k2="-1" k3="1"/>
<feColorMatrix type="matrix" values="0 0 0 0 0 0 0 0 0 0 0 0 0 0 0 0 0 0 0.5 0"/>
<feBlend mode="normal" in2="shape" result="effect1_innerShadow_3903_25740"/>
</filter>
<filter id="filter9_f_3903_25740" x="1292" y="1107" width="26" height="29" filterUnits="userSpaceOnUse" color-interpolation-filters="sRGB">
<feFlood flood-opacity="0" result="BackgroundImageFix"/>
<feBlend mode="normal" in="SourceGraphic" in2="BackgroundImageFix" result="shape"/>
<feGaussianBlur stdDeviation="3" result="effect1_foregroundBlur_3903_25740"/>
</filter>
<filter id="filter10_f_3903_25740" x="1307.02" y="805" width="9.98047" height="313" filterUnits="userSpaceOnUse" color-interpolation-filters="sRGB">
<feFlood flood-opacity="0" result="BackgroundImageFix"/>
<feBlend mode="normal" in="SourceGraphic" in2="BackgroundImageFix" result="shape"/>
<feGaussianBlur stdDeviation="1" result="effect1_foregroundBlur_3903_25740"/>
</filter>
<filter id="filter11_f_3903_25740" x="1296" y="806" width="22" height="31" filterUnits="userSpaceOnUse" color-interpolation-filters="sRGB">
<feFlood flood-opacity="0" result="BackgroundImageFix"/>
<feBlend mode="normal" in="SourceGraphic" in2="BackgroundImageFix" result="shape"/>
<feGaussianBlur stdDeviation="2.5" result="effect1_foregroundBlur_3903_25740"/>
</filter>
<filter id="filter12_i_3903_25740" x="2" y="986" width="24" height="209" filterUnits="userSpaceOnUse" color-interpolation-filters="sRGB">
<feFlood flood-opacity="0" result="BackgroundImageFix"/>
<feBlend mode="normal" in="SourceGraphic" in2="BackgroundImageFix" result="shape"/>
<feColorMatrix in="SourceAlpha" type="matrix" values="0 0 0 0 0 0 0 0 0 0 0 0 0 0 0 0 0 0 127 0" result="hardAlpha"/>
<feOffset dy="-20"/>
<feGaussianBlur stdDeviation="3.5"/>
<feComposite in2="hardAlpha" operator="arithmetic" k2="-1" k3="1"/>
<feColorMatrix type="matrix" values="0 0 0 0 0 0 0 0 0 0 0 0 0 0 0 0 0 0 0.5 0"/>
<feBlend mode="normal" in2="shape" result="effect1_innerShadow_3903_25740"/>
</filter>
<filter id="filter13_f_3903_25740" x="-4" y="1184" width="26" height="22" filterUnits="userSpaceOnUse" color-interpolation-filters="sRGB">
<feFlood flood-opacity="0" result="BackgroundImageFix"/>
<feBlend mode="normal" in="SourceGraphic" in2="BackgroundImageFix" result="shape"/>
<feGaussianBlur stdDeviation="3" result="effect1_foregroundBlur_3903_25740"/>
</filter>
<filter id="filter14_f_3903_25740" x="-3" y="992" width="9.96875" height="195" filterUnits="userSpaceOnUse" color-interpolation-filters="sRGB">
<feFlood flood-opacity="0" result="BackgroundImageFix"/>
<feBlend mode="normal" in="SourceGraphic" in2="BackgroundImageFix" result="shape"/>
<feGaussianBlur stdDeviation="1" result="effect1_foregroundBlur_3903_25740"/>
</filter>
<filter id="filter15_f_3903_25740" x="-4" y="993" width="22" height="31" filterUnits="userSpaceOnUse" color-interpolation-filters="sRGB">
<feFlood flood-opacity="0" result="BackgroundImageFix"/>
<feBlend mode="normal" in="SourceGraphic" in2="BackgroundImageFix" result="shape"/>
<feGaussianBlur stdDeviation="2.5" result="effect1_foregroundBlur_3903_25740"/>
</filter>
<filter id="filter16_di_3903_25740" x="9" y="-1" width="1297" height="2674" filterUnits="userSpaceOnUse" color-interpolation-filters="sRGB">
<feFlood flood-opacity="0" result="BackgroundImageFix"/>
<feColorMatrix in="SourceAlpha" type="matrix" values="0 0 0 0 0 0 0 0 0 0 0 0 0 0 0 0 0 0 127 0" result="hardAlpha"/>
<feOffset/>
<feGaussianBlur stdDeviation="0.5"/>
<feComposite in2="hardAlpha" operator="out"/>
<feColorMatrix type="matrix" values="0 0 0 0 0 0 0 0 0 0 0 0 0 0 0 0 0 0 0.2 0"/>
<feBlend mode="normal" in2="BackgroundImageFix" result="effect1_dropShadow_3903_25740"/>
<feBlend mode="normal" in="SourceGraphic" in2="effect1_dropShadow_3903_25740" result="shape"/>
<feColorMatrix in="SourceAlpha" type="matrix" values="0 0 0 0 0 0 0 0 0 0 0 0 0 0 0 0 0 0 127 0" result="hardAlpha"/>
<feOffset/>
<feGaussianBlur stdDeviation="2.5"/>
<feComposite in2="hardAlpha" operator="arithmetic" k2="-1" k3="1"/>
<feColorMatrix type="matrix" values="0 0 0 0 0 0 0 0 0 0 0 0 0 0 0 0 0 0 0.3 0"/>
<feBlend mode="normal" in2="shape" result="effect2_innerShadow_3903_25740"/>
</filter>
<filter id="filter17_d_3903_25740" x="516" y="14" width="282" height="21" filterUnits="userSpaceOnUse" color-interpolation-filters="sRGB">
<feFlood flood-opacity="0" result="BackgroundImageFix"/>
<feColorMatrix in="SourceAlpha" type="matrix" values="0 0 0 0 0 0 0 0 0 0 0 0 0 0 0 0 0 0 127 0" result="hardAlpha"/>
<feOffset dy="1"/>
<feGaussianBlur stdDeviation="2.5"/>
<feComposite in2="hardAlpha" operator="out"/>
<feColorMatrix type="matrix" values="0 0 0 0 0 0 0 0 0 0 0 0 0 0 0 0 0 0 0.75 0"/>
<feBlend mode="normal" in2="BackgroundImageFix" result="effect1_dropShadow_3903_25740"/>
<feBlend mode="normal" in="SourceGraphic" in2="effect1_dropShadow_3903_25740" result="shape"/>
</filter>
<filter id="filter18_d_3903_25740" x="20" y="8" width="1275" height="2652" filterUnits="userSpaceOnUse" color-interpolation-filters="sRGB">
<feFlood flood-opacity="0" result="BackgroundImageFix"/>
<feColorMatrix in="SourceAlpha" type="matrix" values="0 0 0 0 0 0 0 0 0 0 0 0 0 0 0 0 0 0 127 0" result="hardAlpha"/>
<feOffset dy="-2"/>
<feGaussianBlur stdDeviation="3.5"/>
<feComposite in2="hardAlpha" operator="out"/>
<feColorMatrix type="matrix" values="0 0 0 0 0.983333 0 0 0 0 0.990909 0 0 0 0 1 0 0 0 0.35 0"/>
<feBlend mode="normal" in2="BackgroundImageFix" result="effect1_dropShadow_3903_25740"/>
<feBlend mode="normal" in="SourceGraphic" in2="effect1_dropShadow_3903_25740" result="shape"/>
</filter>
<filter id="filter19_f_3903_25740" x="23" y="13" width="1269" height="2646" filterUnits="userSpaceOnUse" color-interpolation-filters="sRGB">
<feFlood flood-opacity="0" result="BackgroundImageFix"/>
<feBlend mode="normal" in="SourceGraphic" in2="BackgroundImageFix" result="shape"/>
<feGaussianBlur stdDeviation="1" result="effect1_foregroundBlur_3903_25740"/>
</filter>
<filter id="filter20_d_3903_25740" x="507" y="13" width="282" height="21" filterUnits="userSpaceOnUse" color-interpolation-filters="sRGB">
<feFlood flood-opacity="0" result="BackgroundImageFix"/>
<feColorMatrix in="SourceAlpha" type="matrix" values="0 0 0 0 0 0 0 0 0 0 0 0 0 0 0 0 0 0 127 0" result="hardAlpha"/>
<feOffset dy="1"/>
<feGaussianBlur stdDeviation="2.5"/>
<feComposite in2="hardAlpha" operator="out"/>
<feColorMatrix type="matrix" values="0 0 0 0 0 0 0 0 0 0 0 0 0 0 0 0 0 0 0.75 0"/>
<feBlend mode="normal" in2="BackgroundImageFix" result="effect1_dropShadow_3903_25740"/>
<feBlend mode="normal" in="SourceGraphic" in2="effect1_dropShadow_3903_25740" result="shape"/>
</filter>
<filter id="filter21_i_3903_25740" x="27" y="17" width="1261" height="2640" filterUnits="userSpaceOnUse" color-interpolation-filters="sRGB">
<feFlood flood-opacity="0" result="BackgroundImageFix"/>
<feBlend mode="normal" in="SourceGraphic" in2="BackgroundImageFix" result="shape"/>
<feColorMatrix in="SourceAlpha" type="matrix" values="0 0 0 0 0 0 0 0 0 0 0 0 0 0 0 0 0 0 127 0" result="hardAlpha"/>
<feOffset dy="2"/>
<feGaussianBlur stdDeviation="2"/>
<feComposite in2="hardAlpha" operator="arithmetic" k2="-1" k3="1"/>
<feColorMatrix type="matrix" values="0 0 0 0 1 0 0 0 0 1 0 0 0 0 1 0 0 0 0.15 0"/>
<feBlend mode="normal" in2="shape" result="effect1_innerShadow_3903_25740"/>
</filter>
<filter id="filter22_f_3903_25740" x="17" y="7" width="1281" height="2658" filterUnits="userSpaceOnUse" color-interpolation-filters="sRGB">
<feFlood flood-opacity="0" result="BackgroundImageFix"/>
<feBlend mode="normal" in="SourceGraphic" in2="BackgroundImageFix" result="shape"/>
<feGaussianBlur stdDeviation="5" result="effect1_foregroundBlur_3903_25740"/>
</filter>
<filter id="filter23_f_3903_25740" x="777" y="134" width="26" height="29" filterUnits="userSpaceOnUse" color-interpolation-filters="sRGB">
<feFlood flood-opacity="0" result="BackgroundImageFix"/>
<feBlend mode="normal" in="SourceGraphic" in2="BackgroundImageFix" result="shape"/>
<feGaussianBlur stdDeviation="1.5" result="effect1_foregroundBlur_3903_25740"/>
</filter>
<filter id="filter24_f_3903_25740" x="780" y="144" width="20" height="19" filterUnits="userSpaceOnUse" color-interpolation-filters="sRGB">
<feFlood flood-opacity="0" result="BackgroundImageFix"/>
<feBlend mode="normal" in="SourceGraphic" in2="BackgroundImageFix" result="shape"/>
<feGaussianBlur stdDeviation="2.5" result="effect1_foregroundBlur_3903_25740"/>
</filter>
<filter id="filter25_f_3903_25740" x="786" y="151" width="8" height="8" filterUnits="userSpaceOnUse" color-interpolation-filters="sRGB">
<feFlood flood-opacity="0" result="BackgroundImageFix"/>
<feBlend mode="normal" in="SourceGraphic" in2="BackgroundImageFix" result="shape"/>
<feGaussianBlur stdDeviation="0.5" result="effect1_foregroundBlur_3903_25740"/>
</filter>
<filter id="filter26_f_3903_25740" x="777" y="134.5" width="26" height="26" filterUnits="userSpaceOnUse" color-interpolation-filters="sRGB">
<feFlood flood-opacity="0" result="BackgroundImageFix"/>
<feBlend mode="normal" in="SourceGraphic" in2="BackgroundImageFix" result="shape"/>
<feGaussianBlur stdDeviation="1.5" result="effect1_foregroundBlur_3903_25740"/>
</filter>
<linearGradient id="paint0_linear_3903_25740" x1="1305" y1="1113" x2="1305" y2="1130" gradientUnits="userSpaceOnUse">
<stop stop-color="white" stop-opacity="0.59"/>
<stop offset="1" stop-color="white"/>
</linearGradient>
<radialGradient id="paint1_radial_3903_25740" cx="0" cy="0" r="1" gradientUnits="userSpaceOnUse" gradientTransform="translate(656.042 23.9783) rotate(-179.897) scale(133.127 205.226)">
<stop/>
<stop offset="1" stop-color="white"/>
</radialGradient>
<linearGradient id="paint2_linear_3903_25740" x1="657" y1="18" x2="657" y2="29" gradientUnits="userSpaceOnUse">
<stop/>
<stop offset="0.520833" stop-color="white"/>
<stop offset="1"/>
</linearGradient>
<radialGradient id="paint3_radial_3903_25740" cx="0" cy="0" r="1" gradientUnits="userSpaceOnUse" gradientTransform="translate(647.042 22.9783) rotate(-179.897) scale(133.127 205.226)">
<stop/>
<stop offset="1" stop-color="white"/>
</radialGradient>
<linearGradient id="paint4_linear_3903_25740" x1="648" y1="17" x2="648" y2="28" gradientUnits="userSpaceOnUse">
<stop/>
<stop offset="0.520833" stop-color="white"/>
<stop offset="1"/>
</linearGradient>
<linearGradient id="paint5_linear_3903_25740" x1="790" y1="149" x2="790" y2="158" gradientUnits="userSpaceOnUse">
<stop stop-color="#1D869C" stop-opacity="0.67"/>
<stop offset="0.371348" stop-color="#2371C6" stop-opacity="0.699708"/>
<stop offset="1" stop-color="#040AAD" stop-opacity="0.75"/>
</linearGradient>
<radialGradient id="paint6_radial_3903_25740" cx="0" cy="0" r="1" gradientUnits="userSpaceOnUse" gradientTransform="translate(790 152) rotate(90) scale(6)">
<stop stop-color="#005267"/>
<stop offset="0.595648" stop-color="#415967"/>
<stop offset="1" stop-color="#8700C7"/>
</radialGradient>
<radialGradient id="paint7_radial_3903_25740" cx="0" cy="0" r="1" gradientUnits="userSpaceOnUse" gradientTransform="translate(790 139.1) rotate(90) scale(9.9)">
<stop stop-color="#5978DD"/>
<stop offset="0.510478" stop-color="#312FAD" stop-opacity="0.61"/>
<stop offset="1" stop-color="#1C1C86" stop-opacity="0"/>
</radialGradient>
<radialGradient id="paint8_radial_3903_25740" cx="0" cy="0" r="1" gradientUnits="userSpaceOnUse" gradientTransform="translate(790 137) rotate(90) scale(11)">
<stop stop-color="white" stop-opacity="0.38"/>
<stop offset="1" stop-opacity="0"/>
</radialGradient>
<linearGradient id="paint9_linear_3903_25740" x1="790" y1="134.5" x2="790" y2="160.5" gradientUnits="userSpaceOnUse">
<stop stop-color="white" stop-opacity="0.06"/>
<stop offset="1" stop-color="white" stop-opacity="0"/>
</linearGradient>
<clipPath id="clip0_3903_25740">
<rect width="1312" height="2672" fill="white"/>
</clipPath>
</defs>
</svg>
