<svg width="415" height="843" viewBox="0 0 415 843" fill="none" xmlns="http://www.w3.org/2000/svg">
<g clip-path="url(#clip0_3903_46778)">
<mask id="mask0_3903_46778" style="mask-type:luminance" maskUnits="userSpaceOnUse" x="0" y="0" width="415" height="843">
<path d="M415 0H0V843H415V0Z" fill="white"/>
</mask>
<g mask="url(#mask0_3903_46778)">
<mask id="mask1_3903_46778" style="mask-type:luminance" maskUnits="userSpaceOnUse" x="0" y="0" width="415" height="843">
<path d="M415 0H0V843H415V0Z" fill="white"/>
</mask>
<g mask="url(#mask1_3903_46778)">
<mask id="mask2_3903_46778" style="mask-type:luminance" maskUnits="userSpaceOnUse" x="0" y="0" width="415" height="843">
<path d="M415 0H0V843H415V0Z" fill="white"/>
</mask>
<g mask="url(#mask2_3903_46778)">
<mask id="mask3_3903_46778" style="mask-type:luminance" maskUnits="userSpaceOnUse" x="0" y="0" width="415" height="843">
<path d="M415 0H0V843H415V0Z" fill="white"/>
</mask>
<g mask="url(#mask3_3903_46778)">
<mask id="mask4_3903_46778" style="mask-type:luminance" maskUnits="userSpaceOnUse" x="0" y="0" width="415" height="843">
<path d="M415 0H0V843H415V0Z" fill="white"/>
</mask>
<g mask="url(#mask4_3903_46778)">
<mask id="mask5_3903_46778" style="mask-type:luminance" maskUnits="userSpaceOnUse" x="410" y="246" width="5" height="100">
<path d="M415 344C415 345.105 414.105 346 413 346H410V246H413C414.105 246 415 246.895 415 248V344Z" fill="white"/>
</mask>
<g mask="url(#mask5_3903_46778)">
<path d="M415 343C415 344.105 414.105 345 413 345H410V246H413C414.105 246 415 246.895 415 248V343Z" fill="#F0ECE3"/>
<path opacity="0.76" d="M415 343C415 344.105 414.105 345 413 345H410V246H413C414.105 246 415 246.895 415 248V343Z" fill="url(#paint0_linear_3903_46778)"/>
<path d="M415 343C415 344.105 414.105 345 413 345H410V246H413C414.105 246 415 246.895 415 248V343Z" fill="url(#paint1_linear_3903_46778)"/>
<path opacity="0.48" d="M415 343C415 344.105 414.105 345 413 345H410V246H413C414.105 246 415 246.895 415 248V343Z" fill="url(#paint2_linear_3903_46778)"/>
<g filter="url(#filter0_f_3903_46778)">
<path d="M414 266.5C414 266.776 413.776 267 413.5 267C413.224 267 413 266.776 413 266.5V248H414V266.5Z" fill="white"/>
</g>
<g filter="url(#filter1_f_3903_46778)">
<path d="M414 339H413V248.5C413 248.224 413.224 248 413.5 248C413.776 248 414 248.224 414 248.5V339Z" fill="white" fill-opacity="0.8"/>
</g>
<g filter="url(#filter2_f_3903_46778)">
<path d="M415 341H414V246.5C414 246.224 414.224 246 414.5 246C414.776 246 415 246.224 415 246.5V341Z" fill="#61605D"/>
</g>
</g>
<mask id="mask6_3903_46778" style="mask-type:luminance" maskUnits="userSpaceOnUse" x="0" y="149" width="5" height="31">
<path d="M0 151C0 149.895 0.895431 149 2 149H5V180H2C0.89543 180 0 179.105 0 178V151Z" fill="white"/>
</mask>
<g mask="url(#mask6_3903_46778)">
<path d="M0 151C0 149.895 0.895431 149 2 149H5V180H2C0.89543 180 0 179.105 0 178V151Z" fill="#F0ECE3"/>
<path opacity="0.76" d="M0 151C0 149.895 0.895431 149 2 149H5V180H2C0.89543 180 0 179.105 0 178V151Z" fill="url(#paint3_linear_3903_46778)"/>
<path d="M0 151C0 149.895 0.895431 149 2 149H5V180H2C0.89543 180 0 179.105 0 178V151Z" fill="url(#paint4_linear_3903_46778)"/>
<path opacity="0.48" d="M0 151C0 149.895 0.895431 149 2 149H5V180H2C0.89543 180 0 179.105 0 178V151Z" fill="url(#paint5_linear_3903_46778)"/>
<g filter="url(#filter3_f_3903_46778)">
<path d="M1 150.5C1 150.224 1.22386 150 1.5 150C1.77614 150 2 150.224 2 150.5V156H1V150.5Z" fill="white"/>
</g>
<g filter="url(#filter4_f_3903_46778)">
<path d="M1 152H2V177.5C2 177.776 1.77614 178 1.5 178C1.22386 178 1 177.776 1 177.5V152Z" fill="white" fill-opacity="0.8"/>
</g>
<g filter="url(#filter5_f_3903_46778)">
<path d="M0 148H1V181.5C1 181.776 0.776142 182 0.5 182C0.223858 182 0 181.776 0 181.5V148Z" fill="#61605D"/>
</g>
</g>
<mask id="mask7_3903_46778" style="mask-type:luminance" maskUnits="userSpaceOnUse" x="0" y="209" width="5" height="56">
<path d="M0 211C0 209.895 0.895431 209 2 209H5V265H2C0.89543 265 0 264.105 0 263V211Z" fill="white"/>
</mask>
<g mask="url(#mask7_3903_46778)">
<path d="M0 211C0 209.895 0.895431 209 2 209H5V265H2C0.89543 265 0 264.105 0 263V211Z" fill="#F0ECE3"/>
<path opacity="0.76" d="M0 211C0 209.895 0.895431 209 2 209H5V265H2C0.89543 265 0 264.105 0 263V211Z" fill="url(#paint6_linear_3903_46778)"/>
<path d="M0 211C0 209.895 0.895431 209 2 209H5V265H2C0.89543 265 0 264.105 0 263V211Z" fill="url(#paint7_linear_3903_46778)"/>
<path opacity="0.48" d="M0 211C0 209.895 0.895431 209 2 209H5V265H2C0.89543 265 0 264.105 0 263V211Z" fill="url(#paint8_linear_3903_46778)"/>
<g filter="url(#filter6_f_3903_46778)">
<path d="M1 211.5C1 211.224 1.22386 211 1.5 211C1.77614 211 2 211.224 2 211.5V222H1V211.5Z" fill="white"/>
</g>
<g filter="url(#filter7_f_3903_46778)">
<path d="M1 212H2V263.5C2 263.776 1.77614 264 1.5 264C1.22386 264 1 263.776 1 263.5V212Z" fill="white" fill-opacity="0.8"/>
</g>
<g filter="url(#filter8_f_3903_46778)">
<path d="M0 209H1V266.5C1 266.776 0.776142 267 0.5 267C0.223858 267 0 266.776 0 266.5V209Z" fill="#61605D"/>
</g>
</g>
<mask id="mask8_3903_46778" style="mask-type:luminance" maskUnits="userSpaceOnUse" x="0" y="282" width="5" height="56">
<path d="M0 284C0 282.895 0.895431 282 2 282H5V338H2C0.89543 338 0 337.105 0 336V284Z" fill="white"/>
</mask>
<g mask="url(#mask8_3903_46778)">
<path d="M0 284C0 282.895 0.895431 282 2 282H5V338H2C0.89543 338 0 337.105 0 336V284Z" fill="#F0ECE3"/>
<path opacity="0.76" d="M0 284C0 282.895 0.895431 282 2 282H5V338H2C0.89543 338 0 337.105 0 336V284Z" fill="url(#paint9_linear_3903_46778)"/>
<path d="M0 284C0 282.895 0.895431 282 2 282H5V338H2C0.89543 338 0 337.105 0 336V284Z" fill="url(#paint10_linear_3903_46778)"/>
<path opacity="0.48" d="M0 284C0 282.895 0.895431 282 2 282H5V338H2C0.89543 338 0 337.105 0 336V284Z" fill="url(#paint11_linear_3903_46778)"/>
<g filter="url(#filter9_f_3903_46778)">
<path d="M1 284.5C1 284.224 1.22386 284 1.5 284C1.77614 284 2 284.224 2 284.5V295H1V284.5Z" fill="white"/>
</g>
<g filter="url(#filter10_f_3903_46778)">
<path d="M1 285H2V336.5C2 336.776 1.77614 337 1.5 337C1.22386 337 1 336.776 1 336.5V285Z" fill="white" fill-opacity="0.8"/>
</g>
<g filter="url(#filter11_f_3903_46778)">
<path d="M0 282H1V339.5C1 339.776 0.776142 340 0.5 340C0.223858 340 0 339.776 0 339.5V282Z" fill="#61605D"/>
</g>
</g>
<mask id="mask9_3903_46778" style="mask-type:luminance" maskUnits="userSpaceOnUse" x="3" y="0" width="409" height="843">
<path d="M350 0H65C30.7583 0 3 27.7583 3 62V781C3 815.242 30.7583 843 65 843H350C384.242 843 412 815.242 412 781V62C412 27.7583 384.242 0 350 0Z" fill="white"/>
</mask>
<g mask="url(#mask9_3903_46778)">
<g filter="url(#filter12_f_3903_46778)">
<path d="M350 1.5H65C31.5868 1.5 4.5 28.5868 4.5 62V781C4.5 814.413 31.5868 841.5 65 841.5H350C383.413 841.5 410.5 814.413 410.5 781V62C410.5 28.5868 383.413 1.5 350 1.5Z" stroke="#C3C3C3" stroke-width="3"/>
</g>
<g filter="url(#filter13_f_3903_46778)">
<path d="M350 0.5H65C31.0345 0.5 3.5 28.0345 3.5 62V781C3.5 814.966 31.0345 842.5 65 842.5H350C383.966 842.5 411.5 814.966 411.5 781V62C411.5 28.0345 383.966 0.5 350 0.5Z" stroke="#524B40"/>
</g>
<g filter="url(#filter14_f_3903_46778)">
<path d="M345 5.5H70C36.0345 5.5 8.5 33.0345 8.5 67V775C8.5 808.966 36.0345 836.5 70 836.5H345C378.966 836.5 406.5 808.966 406.5 775V67C406.5 33.0345 378.966 5.5 345 5.5Z" stroke="white"/>
</g>
<path d="M343.997 5.79688H70.9969C36.6448 5.79688 8.79688 33.6447 8.79688 67.9968V773.997C8.79688 808.349 36.6448 836.197 70.9969 836.197H343.997C378.349 836.197 406.197 808.349 406.197 773.997V67.9968C406.197 33.6447 378.349 5.79688 343.997 5.79688Z" stroke="white" stroke-width="0.4"/>
<path d="M327 0H321V4H327V0Z" fill="url(#paint12_linear_3903_46778)"/>
<path d="M3 81V87H7V81H3Z" fill="url(#paint13_linear_3903_46778)"/>
<path d="M7 756H3V762H7V756Z" fill="url(#paint14_linear_3903_46778)"/>
<path d="M71 839H66V843H71V839Z" fill="url(#paint15_linear_3903_46778)"/>
</g>
<mask id="mask10_3903_46778" style="mask-type:luminance" maskUnits="userSpaceOnUse" x="7" y="4" width="401" height="835">
<path d="M350 4H65C32.9675 4 7 29.9675 7 62V781C7 813.033 32.9675 839 65 839H350C382.033 839 408 813.033 408 781V62C408 29.9675 382.033 4 350 4Z" fill="white"/>
</mask>
<g mask="url(#mask10_3903_46778)">
<g filter="url(#filter15_f_3903_46778)">
<path d="M350 6H65C34.0721 6 9 31.0721 9 62V781C9 811.928 34.0721 837 65 837H350C380.928 837 406 811.928 406 781V62C406 31.0721 380.928 6 350 6Z" stroke="url(#paint16_radial_3903_46778)" stroke-width="4"/>
</g>
</g>
<path d="M246.5 24H167.5C158.94 24 152 30.9396 152 39.5C152 48.0604 158.94 55 167.5 55H246.5C255.06 55 262 48.0604 262 39.5C262 30.9396 255.06 24 246.5 24Z" fill="#030303"/>
<path d="M245.62 49.2404C250.933 49.2404 255.24 44.9333 255.24 39.6202C255.24 34.3071 250.933 30 245.62 30C240.307 30 236 34.3071 236 39.6202C236 44.9333 240.307 49.2404 245.62 49.2404Z" fill="#0E0B0F"/>
<path d="M245.618 44.9625C248.57 44.9625 250.962 42.5697 250.962 39.618C250.962 36.6662 248.57 34.2734 245.618 34.2734C242.666 34.2734 240.273 36.6662 240.273 39.618C240.273 42.5697 242.666 44.9625 245.618 44.9625Z" fill="#161424"/>
<path d="M245.621 42.8276C247.392 42.8276 248.828 41.3919 248.828 39.6208C248.828 37.8498 247.392 36.4141 245.621 36.4141C243.85 36.4141 242.414 37.8498 242.414 39.6208C242.414 41.3919 243.85 42.8276 245.621 42.8276Z" fill="#0F0F2A"/>
<path d="M245.624 39.6222C246.214 39.6222 246.693 39.1437 246.693 38.5533C246.693 37.963 246.214 37.4844 245.624 37.4844C245.033 37.4844 244.555 37.963 244.555 38.5533C244.555 39.1437 245.033 39.6222 245.624 39.6222Z" fill="#393752"/>
<path opacity="0.35" d="M339.995 33.5234H356.995C358.913 33.5234 360.467 35.0781 360.467 36.9959V41.9959C360.467 43.9137 358.913 45.4684 356.995 45.4684H339.995C338.077 45.4684 336.523 43.9137 336.523 41.9959V36.9959C336.523 35.0781 338.077 33.5234 339.995 33.5234Z" stroke="black" stroke-width="1.05509"/>
<path opacity="0.4" d="M362 38V42.2203C362.849 41.8629 363.401 41.0314 363.401 40.1102C363.401 39.1889 362.849 38.3574 362 38Z" fill="black"/>
<path d="M338 37C338 35.8954 338.895 35 340 35H357C358.105 35 359 35.8954 359 37V42C359 43.1046 358.105 44 357 44H340C338.895 44 338 43.1046 338 42V37Z" fill="black"/>
<path fill-rule="evenodd" clip-rule="evenodd" d="M321.5 35.5875C323.967 35.5876 326.339 36.5551 328.127 38.2898C328.261 38.4237 328.477 38.4221 328.609 38.286L329.896 36.9605C329.963 36.8915 330.001 36.798 330 36.7008C329.999 36.6035 329.961 36.5105 329.893 36.4423C325.201 31.8526 317.799 31.8526 313.107 36.4423C313.039 36.5105 313.001 36.6034 313 36.7007C312.999 36.7979 313.037 36.8914 313.104 36.9605L314.391 38.286C314.523 38.4223 314.739 38.424 314.873 38.2898C316.661 36.5549 319.034 35.5875 321.5 35.5875ZM321.536 39.6724C322.891 39.6723 324.198 40.1864 325.203 41.115C325.338 41.2467 325.552 41.2439 325.685 41.1085L326.97 39.7829C327.038 39.7134 327.075 39.6191 327.074 39.5211C327.073 39.4231 327.034 39.3295 326.965 39.2614C323.906 36.3568 319.169 36.3568 316.109 39.2614C316.04 39.3295 316.001 39.4231 316 39.5212C315.999 39.6192 316.037 39.7135 316.105 39.7829L317.39 41.1085C317.522 41.2439 317.736 41.2467 317.872 41.115C318.876 40.1871 320.182 39.6729 321.536 39.6724ZM324.15 42.3427C324.152 42.441 324.114 42.5357 324.045 42.6046L321.822 44.8948C321.756 44.9621 321.668 45 321.575 45C321.482 45 321.393 44.9621 321.328 44.8948L319.105 42.6046C319.036 42.5357 318.998 42.4409 319 42.3426C319.002 42.2443 319.044 42.1512 319.115 42.0853C320.535 40.8595 322.615 40.8595 324.035 42.0853C324.106 42.1513 324.148 42.2444 324.15 42.3427Z" fill="black"/>
<path d="M298 36C298 35.4477 298.448 35 299 35H300C300.552 35 301 35.4477 301 36V44C301 44.5523 300.552 45 300 45H299C298.448 45 298 44.5523 298 44V36Z" fill="black"/>
<path d="M303 34C303 33.4477 303.448 33 304 33H305C305.552 33 306 33.4477 306 34V44C306 44.5523 305.552 45 305 45H304C303.448 45 303 44.5523 303 44V34Z" fill="black"/>
<path d="M293 39.5C293 38.9477 293.448 38.5 294 38.5H295C295.552 38.5 296 38.9477 296 39.5V44C296 44.5523 295.552 45 295 45H294C293.448 45 293 44.5523 293 44V39.5Z" fill="black"/>
<path d="M288 42C288 41.4477 288.448 41 289 41H290C290.552 41 291 41.4477 291 42V44C291 44.5523 290.552 45 290 45H289C288.448 45 288 44.5523 288 44V42Z" fill="black"/>
<path d="M76.9648 33.7266C79.5214 33.7266 81.7461 35.5445 81.7461 39.8609V39.8775C81.7461 43.9117 79.9282 46.3023 76.915 46.3023C74.7153 46.3023 73.0717 44.9991 72.6899 43.1646L72.6733 43.0733H74.7817L74.8066 43.1563C75.122 43.9947 75.8608 44.5426 76.915 44.5426C78.8159 44.5426 79.6211 42.6832 79.7124 40.3922C79.7124 40.3009 79.7207 40.2096 79.7207 40.1182H79.5546C79.1147 41.0645 78.0688 41.9029 76.4253 41.9029C74.1259 41.9029 72.5156 40.2262 72.5156 37.9517V37.9351C72.5156 35.503 74.3667 33.7266 76.9648 33.7266ZM76.9565 40.2594C78.3095 40.2594 79.3471 39.2799 79.3471 37.9268V37.9102C79.3471 36.5406 78.3095 35.4698 76.9814 35.4698C75.6616 35.4698 74.6074 36.524 74.6074 37.8604V37.877C74.6074 39.2633 75.5952 40.2594 76.9565 40.2594ZM84.7146 38.2423C83.9592 38.2423 83.3948 37.6612 83.3948 36.9307C83.3948 36.192 83.9592 35.6192 84.7146 35.6192C85.4783 35.6192 86.0344 36.192 86.0344 36.9307C86.0344 37.6612 85.4783 38.2423 84.7146 38.2423ZM84.7146 44.4014C83.9592 44.4014 83.3948 43.8287 83.3948 43.0899C83.3948 42.3512 83.9592 41.7784 84.7146 41.7784C85.4783 41.7784 86.0344 42.3512 86.0344 43.0899C86.0344 43.8287 85.4783 44.4014 84.7146 44.4014ZM93.4937 46.0035V43.7042H87.6334V41.9527C89.1856 39.255 90.8873 36.4991 92.5142 34.0255H95.544V41.9361H97.1544V43.7042H95.544V46.0035H93.4937ZM89.6255 41.9859H93.5269V35.7354H93.4024C92.1739 37.6114 90.7877 39.8277 89.6255 41.8614V41.9859ZM101.318 46.0035V36.1339H101.177L98.1971 38.2423V36.2252L101.326 34.0255H103.46V46.0035H101.318Z" fill="black"/>
</g>
</g>
</g>
</g>
</g>
</g>
<defs>
<filter id="filter0_f_3903_46778" x="412" y="247" width="3" height="21" filterUnits="userSpaceOnUse" color-interpolation-filters="sRGB">
<feFlood flood-opacity="0" result="BackgroundImageFix"/>
<feBlend mode="normal" in="SourceGraphic" in2="BackgroundImageFix" result="shape"/>
<feGaussianBlur stdDeviation="0.5" result="effect1_foregroundBlur_3903_46778"/>
</filter>
<filter id="filter1_f_3903_46778" x="412" y="247" width="3" height="93" filterUnits="userSpaceOnUse" color-interpolation-filters="sRGB">
<feFlood flood-opacity="0" result="BackgroundImageFix"/>
<feBlend mode="normal" in="SourceGraphic" in2="BackgroundImageFix" result="shape"/>
<feGaussianBlur stdDeviation="0.5" result="effect1_foregroundBlur_3903_46778"/>
</filter>
<filter id="filter2_f_3903_46778" x="412" y="244" width="5" height="99" filterUnits="userSpaceOnUse" color-interpolation-filters="sRGB">
<feFlood flood-opacity="0" result="BackgroundImageFix"/>
<feBlend mode="normal" in="SourceGraphic" in2="BackgroundImageFix" result="shape"/>
<feGaussianBlur stdDeviation="1" result="effect1_foregroundBlur_3903_46778"/>
</filter>
<filter id="filter3_f_3903_46778" x="0" y="149" width="3" height="8" filterUnits="userSpaceOnUse" color-interpolation-filters="sRGB">
<feFlood flood-opacity="0" result="BackgroundImageFix"/>
<feBlend mode="normal" in="SourceGraphic" in2="BackgroundImageFix" result="shape"/>
<feGaussianBlur stdDeviation="0.5" result="effect1_foregroundBlur_3903_46778"/>
</filter>
<filter id="filter4_f_3903_46778" x="0" y="151" width="3" height="28" filterUnits="userSpaceOnUse" color-interpolation-filters="sRGB">
<feFlood flood-opacity="0" result="BackgroundImageFix"/>
<feBlend mode="normal" in="SourceGraphic" in2="BackgroundImageFix" result="shape"/>
<feGaussianBlur stdDeviation="0.5" result="effect1_foregroundBlur_3903_46778"/>
</filter>
<filter id="filter5_f_3903_46778" x="-2" y="146" width="5" height="38" filterUnits="userSpaceOnUse" color-interpolation-filters="sRGB">
<feFlood flood-opacity="0" result="BackgroundImageFix"/>
<feBlend mode="normal" in="SourceGraphic" in2="BackgroundImageFix" result="shape"/>
<feGaussianBlur stdDeviation="1" result="effect1_foregroundBlur_3903_46778"/>
</filter>
<filter id="filter6_f_3903_46778" x="0" y="210" width="3" height="13" filterUnits="userSpaceOnUse" color-interpolation-filters="sRGB">
<feFlood flood-opacity="0" result="BackgroundImageFix"/>
<feBlend mode="normal" in="SourceGraphic" in2="BackgroundImageFix" result="shape"/>
<feGaussianBlur stdDeviation="0.5" result="effect1_foregroundBlur_3903_46778"/>
</filter>
<filter id="filter7_f_3903_46778" x="0" y="211" width="3" height="54" filterUnits="userSpaceOnUse" color-interpolation-filters="sRGB">
<feFlood flood-opacity="0" result="BackgroundImageFix"/>
<feBlend mode="normal" in="SourceGraphic" in2="BackgroundImageFix" result="shape"/>
<feGaussianBlur stdDeviation="0.5" result="effect1_foregroundBlur_3903_46778"/>
</filter>
<filter id="filter8_f_3903_46778" x="-2" y="207" width="5" height="62" filterUnits="userSpaceOnUse" color-interpolation-filters="sRGB">
<feFlood flood-opacity="0" result="BackgroundImageFix"/>
<feBlend mode="normal" in="SourceGraphic" in2="BackgroundImageFix" result="shape"/>
<feGaussianBlur stdDeviation="1" result="effect1_foregroundBlur_3903_46778"/>
</filter>
<filter id="filter9_f_3903_46778" x="0" y="283" width="3" height="13" filterUnits="userSpaceOnUse" color-interpolation-filters="sRGB">
<feFlood flood-opacity="0" result="BackgroundImageFix"/>
<feBlend mode="normal" in="SourceGraphic" in2="BackgroundImageFix" result="shape"/>
<feGaussianBlur stdDeviation="0.5" result="effect1_foregroundBlur_3903_46778"/>
</filter>
<filter id="filter10_f_3903_46778" x="0" y="284" width="3" height="54" filterUnits="userSpaceOnUse" color-interpolation-filters="sRGB">
<feFlood flood-opacity="0" result="BackgroundImageFix"/>
<feBlend mode="normal" in="SourceGraphic" in2="BackgroundImageFix" result="shape"/>
<feGaussianBlur stdDeviation="0.5" result="effect1_foregroundBlur_3903_46778"/>
</filter>
<filter id="filter11_f_3903_46778" x="-2" y="280" width="5" height="62" filterUnits="userSpaceOnUse" color-interpolation-filters="sRGB">
<feFlood flood-opacity="0" result="BackgroundImageFix"/>
<feBlend mode="normal" in="SourceGraphic" in2="BackgroundImageFix" result="shape"/>
<feGaussianBlur stdDeviation="1" result="effect1_foregroundBlur_3903_46778"/>
</filter>
<filter id="filter12_f_3903_46778" x="-1" y="-4" width="417" height="851" filterUnits="userSpaceOnUse" color-interpolation-filters="sRGB">
<feFlood flood-opacity="0" result="BackgroundImageFix"/>
<feBlend mode="normal" in="SourceGraphic" in2="BackgroundImageFix" result="shape"/>
<feGaussianBlur stdDeviation="2" result="effect1_foregroundBlur_3903_46778"/>
</filter>
<filter id="filter13_f_3903_46778" x="1" y="-2" width="413" height="847" filterUnits="userSpaceOnUse" color-interpolation-filters="sRGB">
<feFlood flood-opacity="0" result="BackgroundImageFix"/>
<feBlend mode="normal" in="SourceGraphic" in2="BackgroundImageFix" result="shape"/>
<feGaussianBlur stdDeviation="1" result="effect1_foregroundBlur_3903_46778"/>
</filter>
<filter id="filter14_f_3903_46778" x="6" y="3" width="403" height="836" filterUnits="userSpaceOnUse" color-interpolation-filters="sRGB">
<feFlood flood-opacity="0" result="BackgroundImageFix"/>
<feBlend mode="normal" in="SourceGraphic" in2="BackgroundImageFix" result="shape"/>
<feGaussianBlur stdDeviation="1" result="effect1_foregroundBlur_3903_46778"/>
</filter>
<filter id="filter15_f_3903_46778" x="0" y="-3" width="415" height="849" filterUnits="userSpaceOnUse" color-interpolation-filters="sRGB">
<feFlood flood-opacity="0" result="BackgroundImageFix"/>
<feBlend mode="normal" in="SourceGraphic" in2="BackgroundImageFix" result="shape"/>
<feGaussianBlur stdDeviation="3.5" result="effect1_foregroundBlur_3903_46778"/>
</filter>
<linearGradient id="paint0_linear_3903_46778" x1="412.5" y1="345" x2="412.5" y2="340.5" gradientUnits="userSpaceOnUse">
<stop/>
<stop offset="1" stop-opacity="0"/>
</linearGradient>
<linearGradient id="paint1_linear_3903_46778" x1="410" y1="345" x2="413.5" y2="345" gradientUnits="userSpaceOnUse">
<stop/>
<stop offset="1" stop-color="#AEAEAE" stop-opacity="0"/>
</linearGradient>
<linearGradient id="paint2_linear_3903_46778" x1="412.5" y1="250.5" x2="412.5" y2="246" gradientUnits="userSpaceOnUse">
<stop stop-opacity="0"/>
<stop offset="1"/>
</linearGradient>
<linearGradient id="paint3_linear_3903_46778" x1="2.5" y1="149" x2="2.5" y2="152" gradientUnits="userSpaceOnUse">
<stop/>
<stop offset="1" stop-opacity="0"/>
</linearGradient>
<linearGradient id="paint4_linear_3903_46778" x1="5" y1="149" x2="1.5" y2="149" gradientUnits="userSpaceOnUse">
<stop/>
<stop offset="1" stop-color="#AEAEAE" stop-opacity="0"/>
</linearGradient>
<linearGradient id="paint5_linear_3903_46778" x1="2.5" y1="174.697" x2="2.5" y2="180" gradientUnits="userSpaceOnUse">
<stop stop-opacity="0"/>
<stop offset="1"/>
</linearGradient>
<linearGradient id="paint6_linear_3903_46778" x1="2.5" y1="209" x2="2.5" y2="213" gradientUnits="userSpaceOnUse">
<stop/>
<stop offset="1" stop-opacity="0"/>
</linearGradient>
<linearGradient id="paint7_linear_3903_46778" x1="5" y1="209" x2="1.5" y2="209" gradientUnits="userSpaceOnUse">
<stop/>
<stop offset="1" stop-color="#AEAEAE" stop-opacity="0"/>
</linearGradient>
<linearGradient id="paint8_linear_3903_46778" x1="2.5" y1="261" x2="2.5" y2="265" gradientUnits="userSpaceOnUse">
<stop stop-opacity="0"/>
<stop offset="1"/>
</linearGradient>
<linearGradient id="paint9_linear_3903_46778" x1="2.5" y1="282" x2="2.5" y2="286" gradientUnits="userSpaceOnUse">
<stop/>
<stop offset="1" stop-opacity="0"/>
</linearGradient>
<linearGradient id="paint10_linear_3903_46778" x1="5" y1="282" x2="1.5" y2="282" gradientUnits="userSpaceOnUse">
<stop/>
<stop offset="1" stop-color="#AEAEAE" stop-opacity="0"/>
</linearGradient>
<linearGradient id="paint11_linear_3903_46778" x1="2.5" y1="334" x2="2.5" y2="338" gradientUnits="userSpaceOnUse">
<stop stop-opacity="0"/>
<stop offset="1"/>
</linearGradient>
<linearGradient id="paint12_linear_3903_46778" x1="324" y1="0" x2="324" y2="4" gradientUnits="userSpaceOnUse">
<stop stop-color="#817E73"/>
<stop offset="1" stop-color="#C3BEAC"/>
</linearGradient>
<linearGradient id="paint13_linear_3903_46778" x1="3" y1="84" x2="7" y2="84" gradientUnits="userSpaceOnUse">
<stop stop-color="#817E73"/>
<stop offset="1" stop-color="#C3BEAC"/>
</linearGradient>
<linearGradient id="paint14_linear_3903_46778" x1="3" y1="759" x2="7" y2="759" gradientUnits="userSpaceOnUse">
<stop stop-color="#817E73"/>
<stop offset="1" stop-color="#C3BEAC"/>
</linearGradient>
<linearGradient id="paint15_linear_3903_46778" x1="68.5" y1="843" x2="68.5" y2="839" gradientUnits="userSpaceOnUse">
<stop stop-color="#817E73"/>
<stop offset="1" stop-color="#C3BEAC"/>
</linearGradient>
<radialGradient id="paint16_radial_3903_46778" cx="0" cy="0" r="1" gradientUnits="userSpaceOnUse" gradientTransform="translate(208.005 196.654) rotate(90) scale(342.048 383.143)">
<stop stop-color="#879194"/>
<stop offset="1"/>
</radialGradient>
<clipPath id="clip0_3903_46778">
<rect width="415" height="843" fill="white"/>
</clipPath>
</defs>
</svg>
