<svg width="640" height="480" viewBox="0 0 640 480" fill="none" xmlns="http://www.w3.org/2000/svg">
<g clip-path="url(#clip0_3921_11488)">
<path d="M0 0H640V480H0V0Z" fill="#D0103A"/>
<path d="M0 0H435.2V480H0V0Z" fill="#FEDF00"/>
<path d="M0 0H204.8V480H0V0Z" fill="#0018A8"/>
<path d="M300.399 136.6C308.099 136.6 311.299 143.2 318.999 143.2C323.699 143.2 326.499 141.7 330.699 139.3C333.599 137.7 335.399 136.8 338.699 136.8C342.099 136.8 344.199 137.8 345.999 140.8C346.999 142.4 347.799 145.7 347.299 147.5C346.705 150.357 345.799 153.14 344.599 155.8C343.899 157.4 343.299 158.3 343.299 160C343.299 164.1 348.899 165.5 352.699 165.6C353.499 165.6 360.399 165.6 364.699 161.4C362.399 161.3 359.799 159.4 359.799 157.1C359.799 154.5 361.599 152.8 364.099 152C364.599 151.9 365.399 152.3 365.799 152C366.499 151.7 366.199 151 366.799 150.6C367.999 149.6 368.799 149 370.399 149C371.266 148.933 372.099 149.167 372.899 149.7C373.233 150.167 373.566 150.433 373.899 150.5C375.099 150.5 375.699 149.7 376.899 149.7C377.703 149.712 378.492 149.918 379.199 150.3C379.799 150.6 379.799 151.8 380.599 151.8C380.999 151.8 382.999 150.9 384.099 150.9C386.299 150.9 387.499 151.7 388.899 153.4C389.299 153.9 389.499 154.8 389.899 154.8C390.884 154.866 391.838 155.175 392.675 155.698C393.513 156.222 394.208 156.944 394.699 157.8C394.999 158.2 395.399 159.2 395.799 159.3C396.399 159.6 396.799 159.5 397.499 160C398.318 160.515 399.001 161.22 399.489 162.056C399.976 162.892 400.254 163.833 400.299 164.8C400.233 165.6 400.066 166.333 399.799 167C397.999 173.5 393.499 175.6 388.999 181.3C386.999 183.7 385.499 185.6 385.499 188.7C385.499 189.4 386.499 190.8 386.799 191.4C386.599 190 387.299 188.2 388.799 188.1C389.794 188.095 390.756 188.461 391.495 189.127C392.235 189.792 392.7 190.71 392.799 191.7L392.499 193.5C393.717 192.753 395.081 192.276 396.499 192.1H398.399C401.699 192.1 405.399 194 407.699 195.9C410.106 197.967 412.013 200.552 413.278 203.462C414.542 206.372 415.131 209.53 414.999 212.7C414.199 217.9 414.699 227.5 401.199 231.3C403.699 232.3 405.399 234.3 405.399 236.5C405.426 237.099 405.333 237.698 405.125 238.26C404.917 238.823 404.599 239.339 404.189 239.776C403.779 240.214 403.286 240.566 402.738 240.81C402.19 241.055 401.599 241.187 400.999 241.2C400.346 241.272 399.685 241.182 399.074 240.938C398.464 240.694 397.923 240.303 397.499 239.8C394.699 242.6 394.199 245.5 394.199 249.5C394.199 251.9 394.599 253.3 395.599 255.5C396.599 257.7 397.399 259 399.299 260.6C400.166 259 401.499 258.133 403.299 258C405.099 257.933 406.399 258.667 407.199 260.2C407.399 260.7 407.199 261.1 407.499 261.6C407.799 262.2 408.299 262.3 408.599 262.9C409.099 263.9 408.599 264.7 409.099 265.6C409.399 266.3 409.999 266.4 410.299 267C410.699 268 410.799 268.6 410.799 269.7C410.799 272.7 408.099 274.9 405.099 274.9C404.099 274.9 403.699 274.5 402.799 274.6C404.499 276.3 405.799 277.1 407.099 279.1C409.123 282.149 410.169 285.742 410.099 289.4C410.18 293.316 409.213 297.182 407.299 300.6C405.807 304.033 403.382 306.977 400.299 309.1C395.583 312.533 390.083 314.733 384.299 315.5C380.673 316.241 376.996 316.709 373.299 316.9L359.199 317.7C351.999 318.1 346.999 319.2 341.899 324.3C344.299 326 345.899 327.8 345.899 330.7C345.766 333.833 344.199 335.9 341.199 336.9C340.499 337.1 339.999 336.9 339.299 337.3C338.599 337.7 338.599 338.6 337.899 339C336.781 339.75 335.442 340.103 334.099 340C332.914 340.085 331.724 339.905 330.617 339.472C329.51 339.04 328.513 338.366 327.699 337.5C325.499 339.3 324.699 340.9 322.199 342.4C321.399 342.8 320.999 343.4 320.099 343.4C318.599 343.4 317.899 342.4 316.699 341.6C315.066 340.463 313.587 339.118 312.299 337.6C309.999 338.9 308.699 340 305.999 340C304.596 340.076 303.202 339.727 301.999 339C301.399 338.5 301.199 337.8 300.499 337.4C299.799 337 299.199 337.1 298.399 336.7C295.399 335.4 293.399 333.2 293.399 329.9C293.399 327 295.199 325.2 297.799 323.9C292.799 318.9 287.799 318.1 280.799 317.7L266.799 316.9C262.399 316.6 259.999 316.2 255.799 315.5C252.499 315 250.599 314.8 247.599 313.4C237.399 308.6 230.799 302.1 229.599 290.9C229.399 289.9 229.399 289.4 229.399 288.4C229.399 282.6 231.699 279 235.799 274.9C234.799 274.6 234.099 274.9 232.999 274.6C230.499 273.6 228.599 271.9 228.599 269.1C228.533 268.167 228.699 267.3 229.099 266.5C229.499 265.9 230.099 265.8 230.299 265.1C230.499 264.1 230.299 263.5 230.699 262.6C230.999 262.1 231.499 262 231.699 261.4C232.699 259.5 233.699 258 235.799 258C237.599 258.067 238.866 258.9 239.599 260.5C241.399 259.7 241.799 258.4 242.799 256.8C243.978 254.815 244.714 252.599 244.956 250.303C245.197 248.008 244.939 245.687 244.199 243.5C243.799 242 243.599 241 242.399 239.8C241.466 240.733 240.333 241.2 238.999 241.2C236.099 241.2 233.999 238.7 233.999 235.9C233.996 234.924 234.278 233.969 234.811 233.151C235.344 232.334 236.105 231.69 236.999 231.3C235.399 229.9 233.999 229.8 232.299 228.7C229.699 227.1 228.799 225.3 227.099 222.7C225.899 221.1 225.599 219.9 225.099 218C224.226 215.498 223.885 212.841 224.099 210.2C224.699 205.2 225.599 202.2 228.699 198.3C230.499 196 231.699 194.6 234.499 193.4C236.799 192.4 238.199 191.7 240.699 191.7L242.699 191.8C243.678 191.867 244.632 192.14 245.499 192.6C245.899 192.8 246.599 193.5 246.599 193C246.599 192.5 246.299 192.2 246.299 191.7C246.299 189.7 247.799 187.7 249.899 187.7C251.399 187.7 251.999 189.1 252.799 190.4C253.199 189.733 253.433 188.967 253.499 188.1C253.499 184.7 251.599 182.9 249.499 180.2C244.799 174.4 238.999 171.7 238.999 164.2C238.999 162.067 239.999 160.433 241.999 159.3C242.499 159 243.299 159.3 243.799 159C244.299 158.7 244.199 158 244.499 157.6C244.966 157 245.499 156.467 246.099 156C247.099 155 248.099 155.4 249.199 154.5C249.733 154.033 250.133 153.567 250.399 153.1C251.699 151.5 252.899 150.7 254.999 150.7C255.866 150.633 256.699 150.767 257.499 151.1L258.499 151.6C258.833 151.267 259.333 150.9 259.999 150.5C260.659 150.091 261.423 149.882 262.199 149.9C263.299 149.9 263.999 150.5 265.199 150.5L265.999 149.9C266.999 149.2 267.499 148.9 268.699 148.9C269.899 148.9 270.499 149.2 271.499 149.9C272.499 150.4 272.499 151.2 273.499 151.7L274.999 152.1C277.599 153 279.499 154.7 279.499 157.4C279.566 158.8 279.099 159.967 278.099 160.9C277.199 161.6 276.399 161.5 275.299 161.9C278.481 164.467 282.524 165.72 286.599 165.4C290.799 165.4 295.899 163.7 295.899 159.5C295.899 157.5 294.899 156.5 294.099 154.7C292.747 152.069 292.028 149.158 291.999 146.2C291.999 143.4 292.299 141.7 293.899 139.5C295.499 137.3 297.499 136.6 300.399 136.6Z" fill="#C7B37F"/>
<path d="M272.4 159C272.6 159.552 272.918 160.052 273.333 160.467C273.748 160.882 274.249 161.2 274.8 161.4C275.6 161.7 277.5 161.6 278.6 160C279.6 158.8 279.6 157.2 279.2 156C278.853 155.121 278.264 154.358 277.5 153.8L272.4 159Z" stroke="#703D29" stroke-width="0.7" stroke-linejoin="round"/>
<path d="M401 236.1C399.8 233.2 396.7 234.5 396.6 236.1C396.1 239.8 399.3 240.9 401.6 240.3C402.132 240.157 402.629 239.905 403.059 239.561C403.489 239.217 403.844 238.788 404.1 238.3C404.767 237.233 404.9 236 404.5 234.6L403.7 233L402.4 231.8C401.6 231.333 400.467 231.133 399 231.2C393.5 231.2 388.6 237.7 387 244.6C386.4 246.8 385.7 251.9 386.7 256.6C387.509 260.866 389.562 264.798 392.6 267.9C395.427 270.546 398.81 272.528 402.5 273.7C403.804 274.072 405.18 274.106 406.5 273.8C409.7 273.1 411.2 270 409.5 266.8C408.2 264.3 404.2 262.8 402.3 266.2C402.1 266.533 401.967 267.033 401.9 267.7C401.9 268.6 402.3 269.7 402.9 270.1C404.4 271 406.7 270.7 406.6 268.1" stroke="#703D29" stroke-width="0.7" stroke-linecap="round"/>
<path d="M383.8 274C385.494 272.025 387.832 270.714 390.4 270.3C393.334 270.033 396.067 270.7 398.6 272.3C401.813 273.837 404.529 276.245 406.438 279.251C408.348 282.257 409.374 285.739 409.4 289.3C409.4 292.9 408.4 296.8 407.4 298.7C406.6 300.4 404.4 307.7 392.1 312.7C385 315.7 374.1 316.3 366.4 316.7C356 317 346.4 317.4 340.9 324.3" stroke="#703D29" stroke-width="0.8"/>
<path d="M386.399 285.7C386.133 284.7 386.399 283.6 387.199 282.4C388.399 280.8 390.899 280.3 393.199 281.4C394.198 281.922 395.055 282.676 395.699 283.6L396.799 285.2C397.466 286.333 397.799 287.167 397.799 287.7C400.299 294.7 396.399 302.2 391.299 305.3C387.299 307.7 382.599 308.7 376.899 309.3C374.399 309.7 372.899 309.6 370.399 309.8H353.599C350.699 310.1 348.599 310.2 345.999 310.6C344.399 310.8 342.599 311.133 340.599 311.6C339.999 311.6 339.399 311.733 338.799 312L337.599 312.3C333.933 313.367 330.666 314.767 327.799 316.5C326.933 316.967 326.099 317.533 325.299 318.2L323.999 319.4C321.999 321.4 320.099 323.4 319.599 326.1V327.7C319.599 329.5 320.999 332 324.999 332.7M330.499 162.7C331.299 164.1 331.799 165 331.299 166.6C330.699 168.4 329.499 169.333 327.699 169.4C323.699 169.4 321.399 164.6 323.199 161.6C326.399 156.3 332.499 159.3 338.199 161.9C337.899 160.6 337.399 160.1 337.499 158.4C337.599 154.2 340.699 152.4 341.999 148.4C342.699 146.1 342.999 144.1 341.299 142.4C339.833 141.2 338.133 141 336.199 141.8C332.399 143.3 327.699 147.7 319.599 147.8C311.399 147.7 306.799 143.3 302.899 141.8C300.899 141 299.199 141.233 297.799 142.5C296.099 144.1 296.399 146.1 297.099 148.5C298.399 152.3 301.499 154.2 301.599 158.5C301.599 160.1 301.199 160.5 300.899 161.9C306.599 159.3 312.899 156 315.899 161.6C317.599 164.8 315.399 169.3 311.399 169.3C309.599 169.3 308.399 168.4 307.799 166.6C307.466 165.133 307.733 163.8 308.599 162.6" stroke="#703D29" stroke-width="0.7"/>
<path d="M314.599 159.9C315.448 160.404 316.129 161.147 316.556 162.037C316.983 162.926 317.137 163.923 316.999 164.9C316.799 167.4 316.199 168 314.199 169.4M316.599 165.6C316.599 167.067 315.833 168.1 314.299 168.7" stroke="#703D29" stroke-width="0.7" stroke-linecap="round"/>
<path d="M276.7 153.3L277.4 153.8L278.2 154.6L278.7 155.6L278.9 156.4V158.3L278.7 159.1L278.2 159.7L277.6 160.3L276.7 160.8L275.7 161L274.7 161.2L273.7 160.7L272.8 160.1L272.3 159.3L271.9 158.3V157.9L276.7 153.3Z" fill="#C7B37F"/>
<path d="M275.2 157.2C274.9 155.5 273 155.2 272.2 156.2C271.1 157.7 271.9 160.2 274.2 160.9C274.916 161.045 275.658 160.991 276.346 160.744C277.033 160.498 277.64 160.067 278.1 159.5C279.1 158.2 279 156.7 278.6 155.5C278.253 154.621 277.663 153.858 276.9 153.3C274.2 151.3 269.8 151.7 268.3 155.3C266.5 159.7 270.5 163.1 274.3 165.6C278.9 168.8 284.3 169.4 288.3 169.4C297.5 169.3 304.5 164.9 309 162.4C310.133 161.8 311.033 161.867 311.7 162.6C311.999 163.005 312.134 163.508 312.079 164.009C312.023 164.509 311.781 164.97 311.4 165.3" stroke="#703D29" stroke-width="0.7" stroke-linecap="round"/>
<path d="M248.001 281.2L246.001 281.9L244.001 283.5L243.001 284.8L241.901 286.8L241.401 288.3L241.001 290.1L240.801 291.5M259.801 281.4L259.701 283.2L259.401 284.4L258.401 286.6L257.101 288.4L255.601 289.6L254.501 290.1L252.901 290.5" stroke="#703D29" stroke-width="0.7"/>
<path d="M319.701 329.1C319.401 330.8 317.801 332.7 314.401 333.3L313.801 333.5" stroke="#703D29" stroke-width="0.8"/>
<path d="M404.2 276.2C406.026 277.934 407.467 280.031 408.432 282.356C409.396 284.681 409.863 287.183 409.8 289.7C409.8 293.3 408.8 297.2 407.8 299.1C407 300.8 404.8 308.1 392.5 313.1C384.221 315.734 375.588 317.083 366.9 317.1C356.6 317.4 347.1 317.8 341.5 324.4" stroke="#703D29" stroke-width="0.9"/>
<path d="M387.5 282.9C388.3 281.9 391 280.5 393.3 281.8C394.226 282.258 395.018 282.946 395.6 283.8" stroke="#703D29" stroke-width="0.6"/>
<path d="M401.6 273.8L403 274.3C404.305 274.689 405.695 274.689 407 274.3C409.8 273.5 411.6 270.9 410.2 267.4C409.771 266.569 409.155 265.85 408.4 265.3" stroke="#703D29" stroke-width="0.9"/>
<path d="M240.3 199.8C238.3 200.9 237 201.2 235.5 202.9C234.341 205.044 233.467 207.33 232.9 209.7M278.9 158C278.834 159.8 277.834 160.867 275.9 161.2" stroke="#703D29" stroke-width="0.7" stroke-linecap="round"/>
<path d="M397.1 192C399.63 192.051 402.124 192.607 404.436 193.635C406.749 194.663 408.832 196.143 410.565 197.987C412.297 199.832 413.644 202.004 414.526 204.376C415.408 206.748 415.807 209.272 415.7 211.8C415.7 227.8 405.8 230.3 401.9 231.4" stroke="#703D29" stroke-width="0.6"/>
<path d="M398.4 192C406.5 191.7 414.9 197.7 415.3 212.7C415.6 224.4 407.3 229.7 403.3 230.7" stroke="#703D29" stroke-width="0.7"/>
<path d="M393.8 248.4L393.9 246.8L394.5 244.3L395.2 242.3L396.1 240.7L397.1 239.4M404.9 236V237.5L404.4 238.5L403.7 239.6L402.9 240.2L401.7 240.7H400.6L399.8 240.6M385.5 187.8L385.8 186.1L386.6 184.5L387.6 183L389.2 180.8L390.6 179.4L392.6 177.2L394.6 175.3L395.7 174L397.2 172.1L398.6 170.1L399.4 168.4L399.9 166.2L400 163.5L399.8 162.7M387.5 290.9L389.1 290.5L390.3 289.9L391 289.2L391.5 288.4L391.8 287.2V286.3M233.6 274.2H236.3L237.9 273.6M242.9 237.1L242.7 238.5L242.3 239.1L241.9 239.7L241.2 240.2L240.5 240.5L239.5 240.6H238.9M248.8 225.1L248.5 227.2L248 228.2L247.2 229.4L246 230.3L244.8 230.9L242.5 231.4M257.8 191.7L257.3 193L256.8 194L256 195L255 196L253.8 196.5L252.7 196.8L252.1 196.7M252.4 190.5V191.5" stroke="#703D29" stroke-width="0.6"/>
<path d="M254.299 224C253.69 224.59 252.978 225.064 252.199 225.4M402.699 270.2L403.199 270.4C404.599 271.2 407.399 270.2 406.599 268" stroke="#703D29" stroke-width="0.6" stroke-linecap="round"/>
<path d="M397.799 239.6C398.799 240.9 400.699 241.3 402.199 240.9C402.731 240.757 403.228 240.505 403.658 240.161C404.088 239.817 404.443 239.388 404.699 238.9C405.366 237.833 405.499 236.6 405.099 235.2L404.199 233.6L402.899 232.1L402.499 231.9M408.899 265.9L408.999 265.2C409.006 264.637 408.894 264.078 408.67 263.561C408.446 263.044 408.115 262.58 407.699 262.2L406.899 261.4M407.299 261.9C407.299 260.1 405.799 258.7 403.899 258.4M399.699 261.2L398.399 260.2C395.686 257.292 394.153 253.477 394.099 249.5C394.099 245.3 395.699 241.1 397.699 239.5M341.199 324L342.999 322.4L344.199 321.4L346.499 320L348.699 319L350.299 318.5L353.299 317.9L356.899 317.3M327.399 336.7C325.515 339.431 322.874 341.552 319.799 342.8C316.753 341.504 314.123 339.393 312.199 336.7" stroke="#703D29" stroke-width="0.6"/>
<path d="M314.399 332.6C314.013 334.156 313.259 335.597 312.199 336.8" stroke="#703D29" stroke-width="0.6" stroke-linecap="round"/>
<path d="M314.701 330.5L314.301 332.7M312.001 337L311.001 338L309.301 338.9L307.301 339.5M301.701 161.7C302.001 160.9 302.201 160.3 302.201 159.1C302.101 154.9 299.001 153 297.701 149.1M297.701 149.1C297.001 146.8 296.701 144.8 298.401 143.1C299.867 141.767 301.534 141.567 303.401 142.5C307.401 144 312.001 148.3 320.101 148.5C312.001 148.3 307.301 144 303.501 142.5C301.501 141.7 299.701 141.5 298.201 143C296.501 144.6 297.001 146.8 297.701 149.1ZM297.701 149.1C299.001 153 301.901 154.9 302.001 159.1C301.934 160.167 301.767 161.033 301.501 161.7M320.001 148C328.001 147.6 334.901 142.2 337.101 141.7C339.101 141.3 340.101 141.5 341.601 142.8C340.201 141.5 338.601 141.6 336.601 142.3C332.801 143.8 328.201 148.1 320.001 148.3M399.601 261.2C397.704 259.73 396.161 257.853 395.088 255.706C394.015 253.56 393.438 251.2 393.401 248.8C393.401 244.7 395.101 240.4 397.001 238.8M327.001 336.4C325.701 338.4 322.701 341.4 319.401 342.6C316.342 341.277 313.711 339.13 311.801 336.4" stroke="#703D29" stroke-width="0.6"/>
<path d="M306.699 163.7L308.999 162.4C309.999 161.8 311.299 161.9 311.899 162.6C312.499 163.3 312.599 164.6 311.699 165.4" stroke="#703D29" stroke-width="0.6" stroke-linecap="round"/>
<path d="M294.7 169.3C300.2 168.1 304.7 165.7 308.1 163.8M340.3 328C340.8 328.3 341.1 329 341.1 329L341.4 329.8C341.7 331.3 340.7 332.2 339.4 332.4C337.7 332.6 336.4 331.6 335.9 330.4M294.4 169C299.9 167.9 304.4 165.4 307.8 163.5M405.4 270.4C404.4 270.8 403.8 270.7 402.4 270.2L400.6 269.2C396.963 267.107 394.038 263.972 392.2 260.2C391.437 258.747 390.865 257.2 390.5 255.6C390.18 254.529 390.012 253.418 390 252.3C389.918 246.833 391.563 241.479 394.7 237C395.8 235.4 396.8 234.5 398.9 234.4M255.2 195.1C256.064 195.773 256.759 196.639 257.228 197.629C257.697 198.619 257.927 199.705 257.9 200.8C257.9 203.9 255.3 209 248.9 210.8C247.85 211.104 246.75 211.189 245.667 211.052C244.583 210.914 243.539 210.556 242.6 210" stroke="#703D29" stroke-width="0.6"/>
<path d="M256.3 205.6C257.367 206.267 257.9 207.367 257.9 208.9C257.9 209.967 257.267 211.2 256 212.6C254.891 213.84 253.536 214.837 252.021 215.525C250.506 216.214 248.864 216.58 247.2 216.6C245.2 216.667 243.2 216.1 241.2 214.9C239.295 213.646 237.937 211.716 237.4 209.5" stroke="#703D29" stroke-width="0.6"/>
<path d="M256.2 212.3C257.4 213.5 257.967 215.033 257.9 216.9C257.967 219.5 256.733 221.833 254.2 223.9C253.667 224.433 253 224.933 252.2 225.4M381.7 203.3V206.8M381.4 202.4V207.4M381.7 191.6V198.2M381.4 190.2V199.1M379.5 281.1C378.459 283.211 377.035 285.11 375.3 286.7C373.627 288.402 371.662 289.79 369.5 290.8C367.413 291.837 365.192 292.578 362.9 293C360.671 293.535 358.392 293.837 356.1 293.9C353.6 293.9 352.2 293.9 349.7 293.7C347.2 293.5 345.7 293.1 343 292.9C340.8 292.7 339.6 292.5 337.4 292.6C333.65 292.457 329.909 293.069 326.4 294.4C323.8 295.4 320.7 297.4 320.1 298.2C318.198 296.579 316.034 295.294 313.7 294.4C312.062 293.73 310.35 293.26 308.6 293C306.3 292.6 305.1 292.6 302.8 292.6C300.5 292.6 299.4 292.7 297.2 292.9C294.6 293.2 293.2 293.5 290.5 293.7C288 293.9 286.6 294 284.1 293.9C279.472 293.851 274.907 292.829 270.7 290.9C268.265 289.747 266.088 288.115 264.3 286.1M306.4 339.5L308.2 339.3M338.5 336.9L340.3 336.8L342 336.1L343.2 335.3L344.9 333.3L345.2 332.7L345.5 331V330.2M392.5 193.5C393.2 190.9 392.3 188.1 389.7 188.2M257.7 234.7C257.17 236.653 255.919 238.332 254.2 239.4M257.8 192.7C257.493 193.571 257.018 194.373 256.4 195.06C255.782 195.746 255.034 196.304 254.2 196.7C252.3 197.5 250.2 196.7 249 195.9" stroke="#703D29" stroke-width="0.6"/>
<path d="M243.801 202.4C245.301 203.2 246.901 202 246.601 200C246.448 199.427 246.129 198.913 245.684 198.521C245.239 198.13 244.688 197.879 244.101 197.8" stroke="#703D29" stroke-width="0.6" stroke-linecap="round"/>
<path d="M250.2 286.6C250.4 286.933 250.666 287.2 251 287.4C251.7 287.6 252.2 287.8 252.9 286.9C253.7 285.8 253.2 284.1 252.4 283C251.663 282.241 250.704 281.736 249.662 281.556C248.62 281.377 247.548 281.532 246.6 282C245.8 282.4 244.933 283.133 244 284.2L242.9 285.8C242.233 286.933 241.866 287.733 241.8 288.2C239.8 294.1 242.2 300.2 245.9 303.9" stroke="#703D29" stroke-width="0.6"/>
<path d="M340.201 327.8L340.901 328.6L341.101 329.5C341.401 331 340.401 331.9 339.101 332.1C337.501 332.3 336.301 331.3 335.801 330.1" stroke="#703D29" stroke-width="0.6" stroke-linecap="round"/>
<path d="M389.4 154.8C391.099 155.054 392.658 155.891 393.807 157.168C394.957 158.446 395.626 160.083 395.7 161.8C395.7 166.2 394.2 167.8 391.9 171C389.4 174.4 381.2 180.6 381.2 187.7C381.067 191.967 382.5 194.767 385.5 196.1C387.5 197.1 389.8 196.1 390.9 195.1C393.5 192.7 392.4 188.6 389.7 188.1C386.5 187.5 385.8 192.7 389 192.4M406.9 261.4C406.692 260.585 406.232 259.856 405.585 259.318C404.939 258.779 404.139 258.458 403.3 258.4C402.319 258.4 401.378 258.79 400.684 259.484C399.99 260.178 399.6 261.119 399.6 262.1C399.6 263.167 399.933 264.033 400.6 264.7" stroke="#703D29" stroke-width="0.6"/>
<path d="M383.9 195.1C383.035 195.773 382.34 196.639 381.871 197.629C381.403 198.619 381.172 199.705 381.2 200.8C381.2 203.9 383.8 209 390.2 210.8C392.6 211.5 395 211.4 396.4 210.5M240.4 200.2C238.45 200.79 236.758 202.024 235.6 203.7C233.228 207.48 232.438 212.042 233.4 216.4C233.803 218.396 234.584 220.297 235.7 222L236.7 223.2L237.9 224.2M301.9 316.2C306.8 318.3 310.3 319.9 313.3 324.7C314.112 326.204 314.525 327.891 314.5 329.6C314.5 332.3 313.5 335.3 311.2 337.2C310.307 338.019 309.241 338.624 308.08 338.971C306.919 339.317 305.695 339.396 304.5 339.2C302.6 339 300.8 337.6 300.5 336.6M254 224.1C256.7 226.3 257.9 228.3 257.9 231.6C258.005 233.1 257.686 234.599 256.978 235.925C256.271 237.252 255.204 238.352 253.9 239.1" stroke="#703D29" stroke-width="0.6"/>
<path d="M251.5 236.4C255.5 241.5 257.8 244.5 257.9 250.5C258 256.2 256.2 260.1 252.9 264.2" stroke="#703D29" stroke-width="0.6" stroke-linecap="round"/>
<path d="M329.801 169.3C330.537 168.759 331.067 167.983 331.301 167.1C331.834 165.633 331.767 164.3 331.101 163.1C331.967 164.433 332.201 165.767 331.801 167.1C331.701 168.1 331.001 168.6 330.201 169.4M381.701 255.5V271.7L381.601 274.2L381.301 275.9" stroke="#703D29" stroke-width="0.6"/>
<path d="M381.401 254V273.9L380.901 276.5M381.401 233.5V248.1M381.701 234.7V246.5M381.701 219.7V228.5M381.401 218.6V229.6M381.701 210.6V214.1M381.401 209.9V214.9M379.601 280.1L379.201 280.8C378.2 282.938 376.81 284.871 375.101 286.5C373.39 288.176 371.391 289.531 369.201 290.5C367.146 291.529 364.958 292.269 362.701 292.7C360.001 293.3 358.501 293.5 355.801 293.6C353.301 293.6 351.901 293.6 349.501 293.4C346.801 293.2 345.401 292.9 342.701 292.6C340.501 292.4 339.301 292.3 337.101 292.3C334.901 292.3 333.601 292.3 331.401 292.7C329.617 292.952 327.87 293.422 326.201 294.1C323.501 295.2 320.501 297.1 319.801 297.9C319.201 297.1 316.101 295.2 313.501 294.1C311.831 293.422 310.085 292.952 308.301 292.7C306.101 292.3 304.801 292.3 302.501 292.3C300.201 292.3 299.101 292.4 296.901 292.6C294.301 292.9 292.901 293.2 290.201 293.4C287.701 293.6 286.301 293.7 283.901 293.6C279.239 293.565 274.638 292.542 270.401 290.6C268.238 289.59 266.274 288.202 264.601 286.5L262.101 283.7M260.101 280.5C260.271 281.873 260.154 283.266 259.758 284.591C259.362 285.917 258.696 287.145 257.801 288.2C257.001 289.1 255.201 290.8 252.801 290.8C249.101 290.8 248.001 288.3 247.801 287.6" stroke="#703D29" stroke-width="0.6"/>
<path d="M255.601 278.9C256.267 279.567 256.901 280.4 257.501 281.4C258.501 283.2 258.101 286.2 257.401 287.6L257.101 288M236.801 306C239.001 308.533 242.634 310.9 247.701 313.1C254.801 316.1 265.801 316.7 273.401 317.1C283.401 317.4 292.701 317.8 298.401 324.1M315.701 320.1C317.537 321.509 318.926 323.419 319.701 325.6M312.401 337.1L311.701 337.8C310.819 338.604 309.769 339.202 308.627 339.548C307.485 339.894 306.28 339.98 305.101 339.8C303.101 339.6 301.301 338.2 300.801 337.2M295.401 334.3L295.701 334.7C297.053 336.092 298.866 336.945 300.801 337.1M327.801 337.1C325.849 339.808 323.183 341.92 320.101 343.2C317.055 341.904 314.425 339.793 312.501 337.1L312.201 336.6M327.801 337L328.501 337.7C329.393 338.519 330.46 339.124 331.621 339.471C332.781 339.817 334.005 339.896 335.201 339.7C336.002 339.575 336.769 339.289 337.457 338.86C338.144 338.43 338.738 337.865 339.201 337.2L339.701 336.5" stroke="#703D29" stroke-width="0.6"/>
<path d="M339 336.6L338.3 337.8L337.2 338.8L335.5 339.5H333.9" stroke="#703D29" stroke-width="0.6"/>
<path d="M343 325.3C344.019 326.062 344.842 327.056 345.4 328.2C345.666 328.867 345.833 329.633 345.9 330.5C345.958 332.041 345.421 333.545 344.4 334.7C342.972 336.16 341.04 337.018 339 337.1H338.6M338.8 336.9C337.828 336.914 336.863 336.726 335.968 336.348C335.073 335.969 334.266 335.408 333.6 334.7M397.3 266.8C395.353 264.95 393.73 262.787 392.5 260.4C391.745 258.978 391.173 257.466 390.8 255.9C390.48 254.829 390.312 253.718 390.3 252.6C390.189 247.144 391.799 241.791 394.9 237.3C395.6 236.5 396.3 235.5 397 235.1M395.7 159.2C398.2 159.4 400.5 162.2 400.5 164.9C400.5 168.7 399.2 170.4 396.1 174.2C393.5 177.4 385.5 183.2 385.8 188.7C385.866 189.767 386.233 190.7 386.9 191.5M383.7 195C384.279 195.58 384.956 196.054 385.7 196.4C386.393 196.674 387.14 196.789 387.884 196.737C388.628 196.685 389.351 196.468 390 196.1M369 153C369.969 153.636 370.733 154.539 371.2 155.6C373 160.1 369 163.5 365.2 166C362.702 167.682 359.871 168.808 356.9 169.3" stroke="#703D29" stroke-width="0.6"/>
<path d="M364.601 161.6C364.005 161.597 363.417 161.46 362.881 161.201C362.345 160.941 361.873 160.565 361.501 160.1L360.801 159.1M345.801 164L344.601 163C343.467 162.067 343.201 160.6 343.801 158.6C344.401 156.7 347.501 151.4 347.601 147.7C347.801 142.1 345.601 138.7 342.301 137.5" stroke="#703D29" stroke-width="0.6"/>
<path d="M347.299 146.5L347.199 148.5L346.599 150.7L345.599 153.7L344.599 155.6L343.799 157.5L343.399 158.8L343.199 159.8L343.299 160.7M381.299 287L381.899 287.8C382.599 288.8 385.099 290.8 387.399 290.8C391.099 290.8 391.999 288.2 392.099 287.6C392.599 284.7 391.599 284 390.099 283.1C390.099 283.1 389.299 282.7 388.199 282.9" stroke="#703D29" stroke-width="0.6" stroke-linecap="round"/>
<path d="M237 274.4C235.789 274.732 234.511 274.732 233.3 274.4C230.4 273.5 228.1 270.8 229.3 267.4M242.7 235.6C242.966 235.933 243.1 236.267 243.1 236.6C243.5 240.4 240.3 241.4 238.1 240.8C236.878 240.377 235.826 239.57 235.1 238.5C234.683 237.802 234.442 237.012 234.4 236.2M256.4 212.6C257 213.067 257.433 213.633 257.7 214.3M256.6 205.8C257.133 206.267 257.5 206.7 257.7 207.1" stroke="#703D29" stroke-width="0.6"/>
<path d="M257.9 210.5C257.499 211.381 256.959 212.191 256.3 212.9C255.191 214.14 253.836 215.137 252.321 215.825C250.806 216.514 249.164 216.88 247.5 216.9C245.5 216.967 243.5 216.4 241.5 215.2C239.546 213.865 238.129 211.881 237.5 209.6" stroke="#703D29" stroke-width="0.6" stroke-linecap="round"/>
<path d="M255.4 195.3C256.486 196.202 257.314 197.375 257.8 198.7" stroke="#703D29" stroke-width="0.6"/>
<path d="M257.8 203.2C256.9 206.2 254.3 209.8 249.2 211.1C246.8 211.7 243.6 210.9 242.6 210.1" stroke="#703D29" stroke-width="0.6" stroke-linecap="round"/>
<path d="M240 202.6C240.3 205.2 242 207.2 245.4 207.2C250.1 207.3 253 200.5 248.8 195.7" stroke="#703D29" stroke-width="0.6"/>
<path d="M229.4 225.5C230.067 226.367 230.867 227.167 231.8 227.9C233.556 229.396 235.597 230.518 237.8 231.2M243 231.7C247.2 231.2 249.6 228 249 224.4C248.7 221.6 246.2 219.4 244.4 219.3" stroke="#703D29" stroke-width="0.6" stroke-linecap="round"/>
<path d="M249.801 188.1C251.701 188.1 252.801 189.7 252.701 191.1" stroke="#703D29" stroke-width="0.6"/>
<path d="M249.4 163C250.37 165.465 252.128 167.539 254.4 168.9M398.6 199.9C400.3 202.2 399.2 206.9 394.6 206.9C393.694 206.931 392.797 206.714 392.004 206.274C391.211 205.833 390.553 205.186 390.1 204.4" stroke="#703D29" stroke-width="0.6" stroke-linecap="round"/>
<path d="M381.699 169.1V185" stroke="#703D29" stroke-width="0.6"/>
<path d="M243.8 202.3C245.2 203.3 247.1 201.6 246.3 199.7C245.8 198.5 244.1 197.1 241.6 198.8C238.8 200.7 239.6 206.6 244.8 206.7C249.5 206.7 252.4 199.9 248.2 195.1C244.2 190.5 236.9 191.5 232.2 195.3C228.556 198.282 226.02 202.403 225 207C224.38 210.035 224.38 213.165 225 216.2C225.505 218.871 226.524 221.418 228 223.7L229.3 225.4C230.1 226.2 230.3 226.6 231.3 227.4C234.17 229.91 237.889 231.233 241.7 231.1C246.3 230.9 249 227.7 248.5 223.8C248.1 220 244.3 218.1 241.8 219.9C240.1 221.1 239.5 224.8 242.5 225.7C244.1 226.2 245.6 224 244.5 222.7M374 150.9C376.667 149.433 378.767 149.767 380.3 151.9C381.731 154.008 382.303 156.584 381.9 159.1C381.533 161.415 380.277 163.496 378.4 164.9" stroke="#703D29" stroke-width="0.6" stroke-linecap="round"/>
<path d="M380.5 152C383.6 150 387 150.9 388.8 153.6C390.1 155.6 390.5 157.2 390.4 159.7C390.323 161.595 389.758 163.438 388.76 165.05C387.761 166.661 386.363 167.988 384.7 168.9" stroke="#703D29" stroke-width="0.6" stroke-linecap="round"/>
<path d="M394.999 159.2C397.599 159.4 399.599 161.7 399.599 164.3C399.599 168.1 398.599 169.8 395.599 173.6C392.899 176.9 384.999 182.6 385.199 188.2C385.199 190.3 386.999 192.2 388.499 192.4" stroke="#703D29" stroke-width="0.6"/>
<path d="M395.399 202.3C393.899 203.3 392.099 201.7 392.899 199.9C393.399 198.7 395.099 197.1 397.599 198.8C400.299 200.7 399.599 206.6 394.299 206.7C389.599 206.7 386.299 200.1 390.899 195.1C394.899 190.5 402.599 191.4 407.399 195.2C409.399 196.8 413.499 201.2 414.399 207.2C415.399 214.2 415.299 222.8 407.999 228.2C404.999 230.3 400.999 231.3 397.399 231.2C392.799 231 390.099 227.7 390.599 223.8C391.099 220 394.599 218.4 397.299 219.9C399.999 221.4 399.599 225.3 396.599 225.7C394.899 225.9 393.499 224 394.599 222.7" stroke="#703D29" stroke-width="0.6" stroke-linecap="round"/>
<path d="M392.9 199.9C393.7 196.4 396.6 196.1 399.1 196.1C405.6 196.2 410.2 204.1 410.3 211.6C410.3 221.1 406.3 226.8 399.3 227.1C397.4 227.1 394.3 226.3 394.3 224.1" stroke="#703D29" stroke-width="0.6"/>
<path d="M397.001 198.3C403.901 199.9 406.301 206.1 406.301 212.1C406.301 217 405.801 223.7 396.301 226" stroke="#703D29" stroke-width="0.6" stroke-linecap="square"/>
<path d="M408.401 265.3C408.512 264.623 408.443 263.929 408.2 263.288C407.958 262.647 407.551 262.08 407.02 261.647C406.488 261.213 405.852 260.927 405.176 260.817C404.499 260.708 403.805 260.778 403.164 261.022C402.523 261.267 401.958 261.675 401.526 262.208C401.093 262.74 400.809 263.376 400.701 264.054C400.593 264.731 400.666 265.425 400.911 266.065C401.157 266.705 401.567 267.269 402.101 267.7" stroke="#703D29" stroke-width="0.6"/>
<path d="M394.399 259.4C395.799 261.4 397.399 263.5 400.699 265.4M399.399 275.9C396.199 273.7 389.899 270.9 384.399 273.7C383.409 274.102 382.51 274.699 381.754 275.455C380.998 276.21 380.402 277.11 379.999 278.1C379.472 279.707 379.36 281.421 379.675 283.082C379.99 284.743 380.721 286.298 381.799 287.6C382.699 288.6 384.499 290.2 386.799 290.3C390.599 290.3 391.499 287.7 391.599 287.1C391.999 284.3 390.399 283.2 389.599 283C388.899 282.7 386.799 282.8 386.399 284.3C386.199 284.9 386.266 285.567 386.599 286.3" stroke="#703D29" stroke-width="0.6" stroke-linecap="round"/>
<path d="M340.5 328.4C341.5 330.6 340.3 331.6 338.9 331.8C336.7 332.1 335.6 330.4 335.5 328.8C335.459 328.206 335.54 327.609 335.736 327.047C335.933 326.485 336.241 325.968 336.643 325.529C337.045 325.09 337.532 324.736 338.075 324.491C338.618 324.245 339.204 324.112 339.8 324.1C342.1 324.1 343.9 325.6 344.8 327.6C345.133 328.267 345.3 329.067 345.3 330C345.36 331.493 344.861 332.955 343.9 334.1C342.488 335.597 340.554 336.492 338.5 336.6C334.3 336.7 331 332.8 331 328.8C331 321.1 342.4 316.8 347 315.8C352.863 314.359 358.864 313.554 364.9 313.4C368.4 313.3 371.1 313.4 375 312.9C378.5 312.6 380.4 312.4 384 311.6C388.694 310.623 393.043 308.414 396.6 305.2C399.5 302.5 401.1 300.7 402.5 297C403.28 294.723 403.567 292.307 403.343 289.91C403.119 287.514 402.388 285.193 401.2 283.1C400.117 281.255 398.625 279.683 396.84 278.504C395.054 277.325 393.022 276.571 390.9 276.3C387.2 275.8 383.9 277.4 381.9 281.1C380.9 282.9 381.3 285.9 382 287.3C382.491 288.156 383.187 288.878 384.024 289.402C384.861 289.925 385.815 290.233 386.8 290.3C390.6 290.3 391.5 287.7 391.6 287.1C392 284.3 390.4 283.2 389.6 282.9C388.9 282.7 386.8 282.8 386.4 284.3C386.2 284.9 386.267 285.567 386.6 286.3" stroke="#703D29" stroke-width="0.6" stroke-linecap="round"/>
<path d="M337.201 316.2C332.401 318.3 328.801 319.9 325.801 324.7C324.989 326.204 324.575 327.891 324.601 329.6C324.601 332.3 325.701 335.3 327.901 337.2C328.793 338.019 329.86 338.624 331.021 338.971C332.181 339.317 333.405 339.396 334.601 339.2C336.601 339 338.301 337.6 338.601 336.6" stroke="#703D29" stroke-width="0.6" stroke-linecap="round"/>
<path d="M385.099 224.1C382.799 224.9 381.199 228.3 381.199 231.6C381.094 233.1 381.413 234.599 382.121 235.925C382.828 237.252 383.895 238.352 385.199 239.1" stroke="#703D29" stroke-width="0.6"/>
<path d="M387.599 236.4C383.599 241.5 381.299 244.5 381.199 250.5C381.199 256.2 382.899 260.1 386.299 264.2" stroke="#703D29" stroke-width="0.6" stroke-linecap="round"/>
<path d="M365.9 152L366.2 151.5C367.9 149.1 370.9 148.4 373.1 150C375.7 152 376.4 155.4 375.7 159C375.1 161.2 373.767 163.033 371.7 164.5" stroke="#703D29" stroke-width="0.6"/>
<path d="M265.099 150.8C262.499 149.533 260.399 149.867 258.799 151.8C258.039 152.819 257.504 153.988 257.228 155.229C256.952 156.47 256.942 157.755 257.199 159C257.799 161.7 258.599 162.8 260.699 164.8" stroke="#703D29" stroke-width="0.6" stroke-linecap="round"/>
<path d="M258.601 152C257.286 151.118 255.676 150.791 254.121 151.09C252.566 151.39 251.193 152.292 250.301 153.6C249.049 155.374 248.481 157.54 248.701 159.7C248.901 163.9 251.501 167.3 254.501 168.9" stroke="#703D29" stroke-width="0.6"/>
<path d="M249.699 154.8C248.088 155.031 246.607 155.816 245.512 157.021C244.417 158.225 243.776 159.774 243.699 161.4C243.699 165.9 244.699 167.7 247.199 171C249.699 174.4 257.899 180.6 257.899 187.7C258.033 191.967 256.599 194.767 253.599 196.1C251.599 197.1 249.299 196.1 248.199 195.1C245.599 192.7 246.699 188.6 249.399 188.1C252.699 187.5 253.299 192.7 250.099 192.4" stroke="#703D29" stroke-width="0.6"/>
<path d="M244 159.2C241.5 159.4 239 161.5 239 164.2C239 168 240.5 169.8 243.6 173.6C246.2 176.9 253.7 182.6 253.5 188.1C253.5 190.1 252 192.7 250.6 192.4" stroke="#703D29" stroke-width="0.6"/>
<path d="M237.999 236.1C239.299 233.2 242.399 234.5 242.599 236.1C242.999 239.8 239.799 240.9 237.499 240.3C236.967 240.157 236.471 239.905 236.04 239.561C235.61 239.217 235.256 238.788 234.999 238.3C234.395 237.164 234.251 235.839 234.599 234.6L235.499 233L236.699 231.8C237.566 231.333 238.699 231.133 240.099 231.2C245.599 231.2 250.499 237.7 252.099 244.6C252.699 246.8 253.399 251.9 252.399 256.6C251.619 260.855 249.601 264.785 246.599 267.9C243.743 270.559 240.326 272.542 236.599 273.7C235.335 274.102 233.982 274.137 232.699 273.8C229.899 272.9 228.099 270.3 229.499 266.8C230.699 264.2 234.899 262.8 236.799 266.2C236.999 266.533 237.132 267.033 237.199 267.7C237.199 268.6 236.799 269.7 236.199 270.1C234.799 271 232.499 270.7 232.599 268.1" stroke="#703D29" stroke-width="0.6" stroke-linecap="round"/>
<path d="M233.8 270.4C234.8 270.8 235.4 270.7 236.7 270.2L238.5 269.2C241.1 267.7 244.1 265.4 246.9 260.1C247.655 258.678 248.226 257.166 248.6 255.6C248.867 254.533 249.067 253.433 249.2 252.3C249.252 246.822 247.572 241.467 244.4 237C243.3 235.4 242.4 234.5 240.2 234.4M230.7 265.4C230.573 264.723 230.627 264.025 230.857 263.376C231.087 262.727 231.485 262.15 232.011 261.705C232.536 261.26 233.17 260.961 233.848 260.84C234.526 260.719 235.223 260.78 235.87 261.016C236.517 261.252 237.09 261.655 237.53 262.185C237.971 262.714 238.264 263.351 238.378 264.03C238.493 264.709 238.426 265.406 238.184 266.051C237.942 266.695 237.533 267.264 237 267.7" stroke="#703D29" stroke-width="0.6"/>
<path d="M232.199 261.4C232.413 260.569 232.888 259.829 233.554 259.289C234.22 258.749 235.042 258.437 235.899 258.4C236.863 258.426 237.779 258.827 238.451 259.518C239.124 260.21 239.5 261.136 239.499 262.1C239.488 263.058 239.133 263.981 238.499 264.7" stroke="#703D29" stroke-width="0.6"/>
<path d="M239.4 261.3C241.298 259.83 242.84 257.953 243.913 255.806C244.986 253.66 245.563 251.3 245.6 248.9C245.6 244.8 244 240.5 242 238.9" stroke="#703D29" stroke-width="0.6"/>
<path d="M244.7 259.4C243.156 261.913 240.985 263.98 238.4 265.4" stroke="#703D29" stroke-width="0.6" stroke-linecap="round"/>
<path d="M254.601 273.7C253.667 271.567 251.734 270.4 248.801 270.2C245.934 270 243.201 270.633 240.601 272.1C237.388 273.637 234.673 276.045 232.763 279.051C230.853 282.057 229.827 285.539 229.801 289.1C229.84 292.367 230.52 295.594 231.801 298.6C232.701 300.2 234.801 307.6 247.101 312.6C255.42 315.195 264.086 316.51 272.801 316.5C283.201 316.9 292.801 317.3 298.401 324.1" stroke="#703D29" stroke-width="0.6"/>
<path d="M239.699 275.9C242.999 273.7 249.199 270.9 254.799 273.7C255.771 274.113 256.651 274.715 257.389 275.47C258.127 276.225 258.708 277.119 259.099 278.1C259.627 279.707 259.739 281.421 259.424 283.082C259.109 284.743 258.378 286.298 257.299 287.6C256.399 288.6 254.599 290.2 252.299 290.3C248.499 290.3 247.599 287.7 247.499 287.1C247.099 284.3 248.699 283.2 249.499 282.9C250.199 282.7 252.299 282.8 252.699 284.3C252.966 284.9 252.899 285.567 252.499 286.3" stroke="#703D29" stroke-width="0.6" stroke-linecap="round"/>
<path d="M252.699 285.7C253.099 284.633 252.833 283.533 251.899 282.4C251.148 281.597 250.153 281.063 249.069 280.883C247.984 280.702 246.87 280.884 245.899 281.4C245.166 281.8 244.366 282.533 243.499 283.6C243.033 284.067 242.633 284.6 242.299 285.2C241.633 286.333 241.299 287.167 241.299 287.7C238.799 294.7 242.799 302.1 247.799 305.3C252.199 308.1 256.599 308.9 262.199 309.3C264.699 309.6 266.199 309.6 268.699 309.8H285.499C288.499 310.1 290.599 310.2 293.099 310.6C294.766 310.8 296.566 311.133 298.499 311.6C299.099 311.6 299.699 311.733 300.299 312L301.499 312.3C305.166 313.367 308.433 314.767 311.299 316.5C312.166 316.967 312.999 317.533 313.799 318.2L315.099 319.4C317.099 321.4 319.099 323.4 319.499 326.1V327.7C319.499 329.5 318.099 332 314.199 332.7" stroke="#703D29" stroke-width="0.6"/>
<path d="M298.6 328.4C297.6 330.6 298.8 331.6 300.2 331.8C302.4 332.1 303.5 330.4 303.7 328.8C303.741 328.197 303.657 327.593 303.455 327.024C303.252 326.455 302.935 325.934 302.522 325.493C302.109 325.052 301.61 324.701 301.056 324.461C300.501 324.222 299.903 324.099 299.299 324.1C298.229 324.183 297.201 324.551 296.321 325.167C295.442 325.782 294.744 326.623 294.299 327.6C293.993 328.364 293.824 329.177 293.799 330C293.739 331.493 294.238 332.955 295.2 334.1C296.611 335.597 298.545 336.492 300.6 336.6C304.8 336.7 308.1 332.8 308.1 328.8C308.1 321.1 296.7 316.8 292.1 315.8C286.236 314.359 280.235 313.554 274.2 313.4C270.7 313.3 268 313.4 264.1 312.9C260.6 312.6 258.7 312.4 255.1 311.6C250.441 310.607 246.129 308.399 242.6 305.2C239.27 302.735 236.955 299.14 236.09 295.089C235.225 291.038 235.868 286.81 237.899 283.2C238.971 281.336 240.458 279.744 242.244 278.548C244.03 277.351 246.068 276.582 248.199 276.3C252.133 275.833 255.133 277.433 257.2 281.1C258.2 282.9 257.8 285.9 257.1 287.3C256.608 288.156 255.913 288.878 255.076 289.402C254.238 289.925 253.285 290.233 252.3 290.3C248.5 290.3 247.6 287.7 247.5 287.1C247.1 284.3 248.7 283.2 249.5 282.9C250.2 282.7 252.299 282.8 252.699 284.3C252.899 284.9 252.833 285.567 252.5 286.3" stroke="#703D29" stroke-width="0.6"/>
<path d="M273.3 152L272.9 151.5C271.2 149.1 268.2 148.4 266 150C263.4 152 262.7 155.4 263.5 159C264.063 161.286 265.499 163.26 267.5 164.5" stroke="#703D29" stroke-width="0.6" stroke-linecap="round"/>
<path d="M366.8 159.6C362.8 164 358.7 165.4 352.7 165.6C350.7 165.6 347.2 165 345.1 163.5C343.8 162.5 342.3 160.9 343.2 158C343.8 156.1 346.9 150.8 347 147.1C347.3 141.5 345.1 138.4 341.7 137.2C335.5 135 328.7 141.2 324.7 142.6C322.6 143.3 321.5 143.4 319.6 143.4C317.6 143.4 316.6 143.3 314.4 142.6C310.4 141.2 303.7 135 297.4 137.2C294 138.4 291.9 141.5 292.1 147.2C292.2 150.8 295.3 156.2 295.9 158C296.9 160.9 295.4 162.5 294 163.5C292 165 288.3 165.6 286.5 165.5C280.5 165.4 276.4 164 272.4 159.6" stroke="#703D29" stroke-width="0.6"/>
<path d="M297.301 314.4C298.101 314.7 297.501 314.2 302.601 316.4C307.258 318.017 311.238 321.151 313.901 325.3C315.03 327.558 315.347 330.135 314.801 332.6" stroke="#703D29" stroke-width="0.6" stroke-linecap="round"/>
<path d="M297.699 336C298.691 336.521 299.781 336.827 300.899 336.9C305.099 337 308.399 333.1 308.399 329.1C308.399 326.3 306.899 323.9 304.799 322.1" stroke="#703D29" stroke-width="0.6"/>
<path d="M298.6 328.4C297.6 330.7 299 331.9 300.4 332.1C302.6 332.3 303.8 330.7 304 329.1C304.01 328.273 303.814 327.456 303.43 326.723C303.046 325.99 302.486 325.363 301.8 324.9" stroke="#703D29" stroke-width="0.6" stroke-linecap="round"/>
<path d="M390.101 154.8C393.301 154.8 396.101 158.4 396.101 162C396.101 166.3 393.901 168.9 392.201 170.8C390.934 172.333 389.467 173.9 387.801 175.5" stroke="#703D29" stroke-width="0.6"/>
<path d="M386.3 151.4C387.389 151.998 388.342 152.815 389.1 153.8C390.4 155.8 390.8 157.5 390.7 160C390.5 164.2 387.5 167.1 384.7 169M380 151.4L380.6 152.1C382.5 154.3 382.6 157.5 382.2 159.3C381.987 160.419 381.538 161.479 380.883 162.41C380.228 163.342 379.381 164.122 378.4 164.7M373.4 150.3C376 152.3 376.8 155.7 375.9 159.3C375.233 161.7 373.833 163.433 371.7 164.5M382.8 205.6C383.1 206.6 383.7 206.9 384.3 207.6C386.031 209.281 388.166 210.487 390.5 211.1C392.967 211.7 395.067 211.4 396.8 210.2M233.8 264.2C235.133 264.267 236.233 265.033 237.1 266.5C237.3 266.767 237.433 267.267 237.5 268C237.5 269 237.167 269.733 236.5 270.2C235 271.2 232.5 270.7 232.5 268.2" stroke="#703D29" stroke-width="0.6" stroke-linecap="round"/>
<path d="M241.5 231.3C246.5 232.3 251.2 238.2 252.7 244.6C253.3 246.9 254 251.9 253 256.6C252.183 260.914 250.093 264.884 247 268L244.9 269.9L243.9 270.6M235.9 258.5C237.9 258.5 239.7 260.4 239.7 262.5C239.689 263.458 239.334 264.381 238.7 265.1" stroke="#703D29" stroke-width="0.6"/>
<path d="M234.6 260.7C236.7 260.7 238.7 262.7 238.7 264.9C238.694 265.471 238.566 266.034 238.325 266.552C238.083 267.069 237.734 267.529 237.3 267.9" stroke="#703D29" stroke-width="0.6"/>
<path d="M253.999 239.5C255.868 241.723 257.172 244.364 257.799 247.2M257.799 255.7C257.469 257.091 256.965 258.435 256.299 259.7C255.367 261.455 254.15 263.043 252.699 264.4" stroke="#703D29" stroke-width="0.6" stroke-linecap="round"/>
<path d="M254.301 224.3C256.101 225.767 257.267 227.367 257.801 229.1" stroke="#703D29" stroke-width="0.6"/>
<path d="M257.901 219.5C257.24 221.332 256.058 222.93 254.501 224.1M245.301 206.9L247.501 206.3L248.801 205.3L249.601 204.2L250.301 202.4L250.601 200.9" stroke="#703D29" stroke-width="0.6" stroke-linecap="round"/>
<path d="M241 199.3L238.5 200.1C237.093 200.779 235.887 201.813 235 203.1C232.628 206.88 231.838 211.442 232.8 215.8C233.204 217.796 233.984 219.697 235.1 221.4L236.1 222.8C237.5 224.1 238.7 224.8 240.7 224.5" stroke="#703D29" stroke-width="0.6"/>
<path d="M253 189.8C252.7 191.1 252 192.7 250 192.5" stroke="#703D29" stroke-width="0.6" stroke-linecap="round"/>
<path d="M245.7 198.5C243.7 196.6 239.7 196.1 235.6 198.7L234 200L232.6 201.6C231.547 203.133 230.737 204.819 230.2 206.6C229.5 209.6 229.5 212.2 229.6 212.9C229.6 213.9 229.7 214.8 229.9 215.6C230.567 218.4 231.333 220.467 232.2 221.8C233.1 223.3 235.2 226.8 239.9 227.2C241.7 227.3 244.7 226.5 244.9 224.2" stroke="#703D29" stroke-width="0.6"/>
<path d="M363.801 157C364.101 155.4 366.101 155.1 366.801 156C368.001 157.6 367.201 160.2 364.801 160.9C364.1 161.026 363.379 160.963 362.711 160.716C362.043 160.47 361.452 160.05 361.001 159.5C360.001 158.2 360.101 156.7 360.501 155.5C360.767 154.7 361.334 153.967 362.201 153.3C364.901 151.3 369.301 151.7 370.801 155.3C372.601 159.7 368.601 163.1 364.801 165.6C360.201 168.8 354.801 169.4 350.801 169.3C341.601 169.3 334.701 164.9 330.101 162.3C328.967 161.833 328.067 161.933 327.401 162.6C327.102 163.005 326.966 163.508 327.022 164.009C327.078 164.509 327.32 164.97 327.701 165.3" stroke="#703D29" stroke-width="0.6" stroke-linecap="round"/>
<path d="M365.6 155.5C366.6 155.5 366.8 155.9 367.1 156.3C368.3 157.8 367.4 160.4 365.1 161.2M382.9 212.7C379.4 216.5 382.7 223 385.3 224.5C386.2 225.2 386.6 224.8 387.3 225.2" stroke="#703D29" stroke-width="0.6" stroke-linecap="round"/>
<path d="M383.1 205.4C382.1 206.067 381.567 207.167 381.5 208.7C381.427 209.429 381.514 210.164 381.756 210.856C381.998 211.547 382.388 212.176 382.9 212.7C385.439 215.037 388.75 216.355 392.2 216.4C394.2 216.467 396.2 215.9 398.2 214.7C400.105 213.446 401.464 211.516 402 209.3M381.2 271.1L381 273.6C380.791 276.04 380.112 278.417 379 280.6C377.959 282.711 376.535 284.61 374.8 286.2C373.089 287.876 371.091 289.231 368.9 290.2C366.85 291.263 364.663 292.037 362.4 292.5C358.056 293.363 353.606 293.566 349.2 293.1C346.5 292.9 345.1 292.6 342.4 292.3C340.2 292.2 339 292 336.8 292C333.077 291.902 329.371 292.548 325.9 293.9C323.2 294.9 320.2 296.9 319.5 297.7C318.9 296.8 315.8 294.9 313.2 293.9C311.535 293.188 309.789 292.684 308 292.4C305.8 292 304.5 292 302.2 292C299.9 292 298.8 292.2 296.6 292.4C294 292.6 292.6 293 289.9 293.1C287.4 293.3 286 293.4 283.6 293.3C281.245 293.284 278.899 293.016 276.6 292.5C274.343 292.069 272.156 291.329 270.1 290.3C267.938 289.29 265.974 287.902 264.3 286.2C262.556 284.58 261.131 282.646 260.1 280.5C259.001 278.348 258.322 276.006 258.1 273.6C257.9 272.6 257.9 271.1 257.9 271.1V169.3H381.1L381.2 271.1Z" stroke="#703D29" stroke-width="0.6"/>
<path d="M248 285.6C248 284.937 248.263 284.301 248.732 283.832C249.201 283.363 249.837 283.1 250.5 283.1C251.163 283.1 251.799 283.363 252.268 283.832C252.737 284.301 253 284.937 253 285.6C253 286.263 252.737 286.899 252.268 287.368C251.799 287.837 251.163 288.1 250.5 288.1C249.837 288.1 249.201 287.837 248.732 287.368C248.263 286.899 248 286.263 248 285.6ZM232.5 268C232.633 266.6 233.233 265.833 234.3 265.7C235.9 265.5 236 266.7 236 268C235.867 269.333 235.3 270.067 234.3 270.2C233.233 270.067 232.633 269.333 232.5 268Z" fill="#C7B37F" stroke="#C7B37F" stroke-width="0.3"/>
<path d="M241.301 223.6C241.434 222.467 242.001 221.867 243.001 221.8C244.067 221.933 244.634 222.533 244.701 223.6C244.801 225.2 244.001 225.4 243.001 225.4C242.001 225.4 241.301 224.6 241.301 223.6ZM272.001 158C272.001 157 272.501 156 273.401 156C274.401 156 275.001 156.533 275.201 157.6C275.201 158.6 274.701 159.6 273.801 159.6C272.867 159.6 272.267 159.067 272.001 158Z" fill="#C7B37F"/>
<path d="M239.301 234C238.901 234.067 238.635 234.233 238.501 234.5C238.235 234.7 238.035 235 237.901 235.4L237.701 236.6M242.401 263.3L243.401 262.3L244.001 261.3L244.501 260.3L245.201 259M243.901 273L242.401 273.7L241.301 274.3L240.001 275.1L238.801 276.1M253.801 238.2L253.001 237.4L252.001 236.6L251.101 235.8" stroke="#C7B37F" stroke-width="0.6" stroke-linecap="round"/>
<path d="M254.2 225L253 225.5L251.5 225.8" stroke="#C7B37F" stroke-width="0.6"/>
<path d="M237.4 208.4L237.9 209.9C238.1 210.567 238.4 211.133 238.8 211.6C239.441 212.693 240.332 213.619 241.4 214.3L242.9 215.1M241.9 209.3L243.2 209.9C244.144 210.319 245.168 210.524 246.2 210.5L248 210.4M255.2 169.7L253.2 168.5C252.4 168.033 251.734 167.533 251.2 167L250.1 165.7L249.3 164.4M256.8 159.8L257.4 161.5L258.8 163.5C259.8 164.5 260.5 164.8 261.6 165.7M263 159.7L263.7 161.3L264.5 162.5L265.8 163.8C266.467 164.267 267.134 164.633 267.8 164.9" stroke="#C7B37F" stroke-width="0.6" stroke-linecap="round"/>
<path d="M333.3 151.6C333.3 149.9 331.6 149.8 330.9 149.8C329.1 149.8 328.6 150.9 326.3 152.1C324.315 153.417 321.982 154.113 319.6 154.1C317.218 154.113 314.885 153.417 312.9 152.1C310.6 150.9 310.2 149.8 308.3 149.8C307.998 149.813 307.701 149.885 307.427 150.013C307.153 150.14 306.907 150.321 306.702 150.544C306.498 150.767 306.339 151.028 306.236 151.312C306.133 151.596 306.087 151.898 306.1 152.2V153.1L306.4 153.3C306.4 152.633 306.567 152.067 306.9 151.6C307.086 151.352 307.328 151.15 307.605 151.011C307.883 150.872 308.189 150.8 308.5 150.8C310.3 150.8 311 152 313.3 153.2C316.3 154.8 317.5 155.1 320 155.2C322.416 155.233 324.786 154.536 326.8 153.2C329.1 152 329.8 150.7 331.6 150.7C332.2 150.7 332.633 151.033 332.9 151.7V152.6L333.1 152.7L333.3 151.6Z" fill="#703D29" stroke="#703D29" stroke-width="0.2"/>
<path d="M264.4 294C264.9 293.5 265.3 293.7 265.4 293.4C265.4 293.267 265.3 293.167 265.1 293.1L264.2 292.9L263.4 292.5H262.9C262.8 292.9 263.9 292.9 263.5 293.9L262.7 295.1L260.1 298.1L259.9 298.2V293.9L260 292.1C260.2 291.7 260.8 292.1 260.9 291.7C260.9 291.567 260.8 291.467 260.6 291.4C260.4 291.333 260.034 291.233 259.5 291.1L258.5 290.6H257.9L258 290.9C258.334 291.033 258.5 291.367 258.5 291.9V299.3C258.5 299.767 258.567 300 258.7 300L259.1 299.7L264.4 294Z" fill="#703D29"/>
<path d="M267.5 295.2C267.8 294.1 268.5 294.8 268.5 294.4C268.567 294.267 268.5 294.167 268.3 294.1L267 293.7L265.8 293.3H265.4C265.3 293.8 266.5 293.8 266.2 294.8L264.5 300.3C264.2 301.3 263.5 300.9 263.4 301.3V301.4L264.6 301.8L266.2 302.3H266.5C266.7 301.9 265.3 302 265.8 300.6L267.5 295.2ZM271.2 296.2C271.4 295.733 271.7 295.6 272.1 295.8C273.167 296.2 273.5 297.033 273.1 298.3C272.9 298.9 272.7 299.5 271.1 299.1C270.7 299.033 270.5 298.867 270.5 298.6L271.2 296.3V296.2ZM268.4 301.2C267.9 302.6 267.2 302 267.1 302.4C267.1 302.533 267.2 302.633 267.4 302.7L269 303.1L269.8 303.4H270.2C270.3 302.9 269.2 303.1 269.5 301.9L270.1 299.9C270.1 299.5 270.3 299.4 270.7 299.6C271.234 299.667 271.5 299.933 271.5 300.4L271.8 302.4C271.867 303.333 272.2 304 272.8 304.4C273.467 304.467 273.934 304.333 274.2 304L274 303.8H273.7C273.7 303.8 273.4 303.8 273.4 303.5L272.7 299.9C272.767 299.767 273.034 299.667 273.5 299.6C273.749 299.466 273.967 299.281 274.14 299.057C274.312 298.833 274.435 298.575 274.5 298.3C274.6 297.8 274.9 296.1 272.7 295.4L270.6 294.9L269.4 294.5H269.1C269 295 270.2 294.9 269.8 296.2L268.4 301.2ZM276.8 303.7C276.4 305.1 275.4 304.2 275.3 304.7C275.3 304.9 275.4 305 275.6 305L277.1 305.3L278.5 305.7C278.767 305.833 278.967 305.8 279.1 305.6C279.1 305.3 277.8 305.3 278.1 303.8L279.4 298.6C279.4 298.067 279.6 297.9 280 298.1L281 298.3C282.1 298.6 281.5 299.8 282 299.9C282.134 299.833 282.2 299.633 282.2 299.3L282.3 298.3V297.9L279 297.2L275.8 296.4C275.667 296.4 275.6 296.467 275.6 296.6L275.1 298.1C274.967 298.3 274.967 298.433 275.1 298.5C275.6 298.6 275.6 297 276.8 297.3L277.7 297.5C278.1 297.5 278.234 297.767 278.1 298.3L276.8 303.7ZM289.5 300.4C289.9 299.8 290.3 299.9 290.4 299.7C290.4 299.567 290.267 299.467 290 299.4H289.1L288.2 299.1C288 299.033 287.867 299.067 287.8 299.2C287.7 299.6 288.8 299.4 288.6 300.5C288.6 300.7 288.4 301.133 288 301.8L286 305.1L285.7 305.3V305.1L285 301.1L284.9 299.3C284.9 298.8 285.6 299.1 285.6 298.8C285.667 298.667 285.534 298.567 285.2 298.5L284.1 298.4C283.7 298.4 283.367 298.3 283.1 298.1C282.834 298.033 282.634 298.067 282.5 298.2L282.6 298.4C283.067 298.533 283.3 298.833 283.3 299.3L284.6 306.6L284.9 307.3L285.3 307L289.5 300.4ZM290.1 307.2C290.1 307.4 290.167 307.567 290.3 307.7L292 308.4C293.4 308.6 294.6 307.7 294.8 306.2C295.1 304.7 294.5 304.1 293.4 303.3C292.1 302.4 291.6 302.2 291.7 301.3C291.9 300.633 292.367 300.3 293.1 300.3C294.9 300.6 294.7 302.9 294.9 302.9C295.167 302.9 295.267 302.767 295.2 302.5L295.4 300.9V300.5H294.8C294.4 300.5 294.1 300 293.2 299.8C291.867 299.733 291.034 300.4 290.7 301.8C290.634 302.867 291.034 303.667 291.9 304.2C293.5 305.3 294.1 305.6 293.9 306.6C293.7 307.6 293.134 308.033 292.2 307.9C291 307.7 290.6 306.5 290.4 305.3C290.4 305.1 290.334 305 290.2 305C290.067 305.067 290 305.233 290 305.5V307.2H290.1ZM305.9 302.7C306.2 302 306.7 302.1 306.7 301.8C306.7 301.667 306.567 301.6 306.3 301.6H305.4L304.5 301.5C304.3 301.5 304.167 301.567 304.1 301.7C304.1 302.1 305.1 301.7 305.1 302.8C305.1 303 304.934 303.467 304.6 304.2L302.8 307.7L302.7 308L302.6 307.7L301.5 303.7L301.2 302.1C301.2 301.6 301.9 301.8 301.9 301.5C301.967 301.367 301.834 301.3 301.5 301.3H300.3L299.3 301.1C299.034 301.033 298.834 301.067 298.7 301.2L298.9 301.4C299.3 301.533 299.534 301.8 299.6 302.2L301.7 309.3L302.1 310C302.234 310.067 302.334 309.933 302.4 309.6L305.9 302.7Z" fill="#703D29"/>
<path d="M307.6 308.5C307.6 309.7 306.6 309.5 306.6 310C306.6 310.133 306.7 310.167 306.9 310.1H309.1L309.5 310C309.5 309.4 308.1 310.2 308.1 308V303.8L308.2 303.7L308.4 303.8L313.5 310.1L313.8 310.2L314 309.9V303.2C314 301.9 315 302.2 315 301.9L314.7 301.7H312.4C312.267 301.7 312.2 301.767 312.2 301.9C312.2 302.3 313.5 302.1 313.5 303.2V307.2L313.4 307.6L313 307.3L308.8 302C308.734 301.733 308.6 301.633 308.4 301.7H306.6L306.4 301.8C306.4 302.4 307.6 301.6 307.6 303.9V308.5ZM318 303C318 301.9 318.8 302.3 318.8 301.9C318.867 301.767 318.734 301.7 318.4 301.7H315.8C315.8 301.7 315.5 301.7 315.5 301.9C315.5 302.3 316.6 301.9 316.6 303.1V308.8C316.6 309.9 315.8 309.6 315.8 310L316 310.2H318.8C319 310.2 319.1 310.133 319.1 310C319.1 309.6 317.9 310.2 317.9 308.7L318 303ZM322.5 308.5C322.5 310 321.3 309.5 321.3 309.9C321.3 310.1 321.434 310.167 321.7 310.1H324.7C325.034 310.1 325.2 310 325.2 309.8C325.2 309.5 323.8 309.8 323.8 308.4V303C323.734 302.533 323.9 302.333 324.3 302.4H325.3C326.5 302.3 326.1 303.6 326.6 303.6C326.734 303.533 326.767 303.333 326.7 303L326.6 302C326.6 301.8 326.534 301.667 326.4 301.6L323.1 301.7H319.8L319.6 302L319.5 303.6L319.6 304C320.1 304 319.8 302.4 321 302.4H321.9C322.234 302.333 322.434 302.533 322.5 303V308.6V308.5ZM328.8 306.3H328.4L328.5 305.8L329.2 303.6V303.4L329.4 303.5L330.4 305.6L330.6 306C330.6 306.2 330.467 306.267 330.2 306.2L328.8 306.3ZM330.6 306.8C330.9 306.8 330.9 306.8 331.4 307.8L331.6 308.6C331.6 309.3 330.9 309.2 330.9 309.6C330.9 309.733 331.034 309.733 331.3 309.6H332.5L333.8 309.5C334.067 309.5 334.2 309.433 334.2 309.3C334.2 308.9 333.6 309.3 333.2 308.6L329.8 301.6L329.5 301.2C329.367 301.2 329.267 301.333 329.2 301.6L327 309C326.8 309.7 326.2 309.7 326.3 310H328.6C328.867 310 329.034 309.9 329.1 309.7C329.2 309.4 327.9 309.7 327.8 308.8L328 307.8C328.2 307.133 328.4 306.867 328.6 307L330.7 306.8H330.6ZM338.9 301.8C338.8 301 338.9 301 340.1 300.8C342.1 300.6 341.5 302.1 342.1 302C342.234 301.933 342.234 301.733 342.1 301.4L342 300.3C342 300.167 341.9 300.1 341.7 300.1C340.767 300.1 339.967 300.2 339.3 300.4L336.5 300.8C336.3 300.8 336.2 300.867 336.2 301C336.3 301.5 337.5 301 337.6 302L338.3 307.5C338.5 309 337.6 308.5 337.7 309H337.9L339.3 308.9L340.5 308.8C340.834 308.8 341 308.7 341 308.5C341 308.2 339.8 308.6 339.6 307.3L339.4 305.6C339.267 304.933 339.367 304.6 339.7 304.6H340.5C341.6 304.4 341.5 305.7 341.8 305.6C342.067 305.467 342.1 305.3 341.9 305.1L341.6 303C341.534 302.733 341.467 302.633 341.4 302.7C341.1 302.7 341.3 303.8 340.4 303.9L339.7 304C339.3 304.133 339.1 303.967 339.1 303.5L338.9 301.8ZM342.9 304.6C343.3 306.9 345 308.3 347.1 307.9C350.5 307.2 350.6 304.3 350.3 302.6C349.8 300.1 348 298.9 345.9 299.3C343.4 299.8 342.4 302 342.9 304.6ZM344 303.6C343.7 302 344 300.2 345.7 299.9C347.1 299.6 348.7 300.7 349.1 303.3C349.4 305.3 349.1 306.9 347.3 307.3C345.5 307.7 344.3 305.3 344 303.7V303.6ZM352.3 299.5C352.3 298.9 352.5 298.6 352.9 298.6C353.967 298.467 354.667 299 355 300.2C355.2 300.9 355.3 301.6 353.7 302C353.367 302.067 353.1 302 352.9 301.8L352.4 299.5H352.3ZM352.3 305.2C352.7 306.6 351.8 306.5 351.8 306.8C351.934 307 352.067 307.033 352.2 306.9L353.8 306.5L354.8 306.3C355 306.3 355.067 306.233 355 306.1C355 305.7 354 306.4 353.7 305.1L353.2 303.1C353.2 302.7 353 302.7 353.6 302.6C354 302.4 354.367 302.5 354.7 302.9L356 304.5C356.5 305.1 357 305.8 357.8 305.6C358.4 305.467 358.734 305.167 358.8 304.7L358.6 304.6L358.3 304.7C358.3 304.7 358 304.8 357.9 304.7L355.5 301.8L356 301.2C356.267 300.8 356.334 300.267 356.2 299.6C356.1 299.1 355.5 297.5 353.2 298L351.1 298.6L349.9 298.8C349.7 298.8 349.634 298.867 349.7 299C349.7 299.5 350.8 298.8 351.1 300L352.3 305.2ZM361 303.2C361.3 304.6 360 304.4 360.1 304.8C360.167 305 360.334 305.067 360.6 305L362 304.5L363.5 304.2C363.834 304.267 363.967 304.133 363.9 303.8C363.9 303.5 362.6 304.2 362.2 302.8L360.9 297.5C360.767 297.033 360.867 296.8 361.2 296.8L362.2 296.6C363.3 296.2 363.3 297.6 363.7 297.5C364.1 297.4 363.7 297 363.7 296.8L363.3 295.8C363.3 295.8 363.3 295.5 363.1 295.6L359.9 296.5L356.7 297.2V297.5L356.8 299.1C356.8 299.367 356.9 299.5 357.1 299.5C357.6 299.4 356.8 297.9 358.1 297.6L358.9 297.4C359.3 297.267 359.534 297.433 359.6 297.9L361 303.2ZM366.5 295.9C366.2 294.9 367.1 295 366.9 294.6H366.6L365.2 295L364 295.3C364 295.3 363.7 295.3 363.7 295.5C363.8 295.9 364.9 295.3 365.2 296.3L366.8 301.9C367 302.9 366.2 302.9 366.3 303.2C366.3 303.333 366.367 303.367 366.5 303.3L367.6 303L369.2 302.6C369.467 302.6 369.567 302.5 369.5 302.3C369.4 302 368.4 302.8 368 301.4L366.5 295.9ZM368.8 298.6C369.5 300.9 371.4 302 373.5 301.3C376.7 300.2 376.5 297.2 375.9 295.6C375.1 293.2 373.1 292.3 371.1 292.9C368.7 293.8 367.9 296.1 368.8 298.6ZM369.8 297.6C369.2 295.9 369.2 294.1 370.9 293.6C372.2 293.1 373.9 294 374.8 296.5C375.4 298.3 375.3 300.1 373.6 300.7C371.8 301.3 370.4 299.2 369.8 297.5V297.6ZM377.4 292.1C377.267 291.5 377.4 291.167 377.8 291.1C378.934 290.9 379.734 291.367 380.2 292.5C380.4 293.1 380.6 293.8 379.1 294.4C378.7 294.533 378.434 294.533 378.3 294.4L377.4 292.1ZM378.2 297.7C378.8 299.1 377.8 299.1 378 299.4C378 299.6 378.134 299.633 378.4 299.5L379.9 298.8L380.8 298.6C381 298.533 381.067 298.433 381 298.3C380.8 297.9 380 298.7 379.6 297.5L378.8 295.6C378.534 295.267 378.634 295.033 379.1 294.9C379.5 294.7 379.867 294.8 380.2 295.2L381.8 296.6C382.3 297.1 382.9 297.7 383.8 297.4C384.1 297.2 384.7 296.7 384.5 296.4L384.3 296.3L384.1 296.5H383.6L380.8 294L381.2 293.3C381.311 293.048 381.367 292.775 381.367 292.5C381.367 292.225 381.311 291.952 381.2 291.7C381.1 291.1 380.2 289.7 378.1 290.5L376.1 291.4L374.9 291.8L374.7 292C374.9 292.4 375.8 291.6 376.3 292.8L378.3 297.8L378.2 297.7Z" fill="#703D29"/>
<path d="M264.129 175.552H316.673V228.032H264.129V175.552Z" fill="#D52B1E"/>
<path d="M288.769 216.832C288.769 216.832 288.769 218.752 288.257 220.224C287.617 221.952 287.617 221.952 287.041 222.784C286.423 223.802 285.594 224.675 284.609 225.344C283.329 226.155 282.049 226.496 280.769 226.368C277.313 226.112 275.649 222.272 274.881 219.2C274.049 215.936 271.681 214.08 270.081 215.36C269.228 216.085 269.164 217.067 269.889 218.304C270.579 219.136 271.488 219.757 272.513 220.096L270.657 222.464C270.657 222.464 266.625 221.952 265.857 217.728C265.537 216.128 266.305 213.184 268.993 212.288C272.385 211.136 274.497 213.568 275.585 215.616C276.993 218.432 277.633 223.552 281.601 222.784C283.777 222.336 284.801 219.2 284.801 217.728L286.337 216.064L288.705 216.832H288.769Z" fill="white"/>
<path d="M292.034 216.832C292.034 216.832 292.034 218.752 292.546 220.224C293.186 221.952 293.186 221.952 293.762 222.784C294.38 223.802 295.209 224.675 296.194 225.344C297.474 226.155 298.754 226.496 300.034 226.368C303.49 226.112 305.154 222.272 305.922 219.2C306.754 215.936 309.122 214.08 310.722 215.36C311.575 216.085 311.639 217.067 310.914 218.304C310.224 219.136 309.315 219.757 308.29 220.096L310.146 222.464C310.146 222.464 314.178 221.952 314.946 217.728C315.266 216.128 314.498 213.184 311.81 212.288C308.418 211.136 306.306 213.568 305.218 215.616C303.81 218.432 303.17 223.552 299.202 222.784C297.026 222.336 296.002 219.2 296.002 217.728L294.466 216.064L292.098 216.832H292.034Z" fill="white"/>
<path d="M295.105 194.56L302.017 187.072C302.017 187.072 303.041 186.24 303.041 184.896L301.633 185.152L301.313 184.384L301.249 183.68L303.169 183.232V182.4L303.361 181.568L301.313 181.696L301.505 180.8L301.825 180.16L303.041 179.904H304.257C305.409 177.728 310.145 175.808 313.473 179.264C315.905 181.824 315.393 186.432 312.193 187.712C311.483 188.056 310.685 188.173 309.906 188.047C309.127 187.921 308.406 187.558 307.841 187.008L309.121 184.448C310.849 185.536 312.321 184.256 312.193 182.912C312.065 181.184 310.913 180.16 309.441 180.032C307.948 179.989 306.881 180.629 306.241 181.952C305.857 182.784 306.049 183.36 305.921 184.256C305.793 185.216 305.921 185.728 305.601 186.688C305.284 187.569 304.757 188.36 304.065 188.992L297.025 196.672L269.505 226.368L267.457 224.448L295.105 194.56Z" fill="#FEDF00"/>
<path d="M274.881 197.12C274.881 197.12 276.609 205.696 282.497 218.56C285.505 217.472 287.233 216.768 290.433 216.768C293.633 216.768 295.297 217.408 298.305 218.56C301.582 211.697 304.134 204.512 305.921 197.12L290.433 177.28L274.881 197.12Z" fill="white"/>
<path d="M291.905 183.936L302.657 197.824C302.657 197.824 301.249 204.544 296.897 214.656C295.169 214.272 293.697 213.952 291.905 213.824V183.936ZM288.897 183.936L278.145 197.824C278.145 197.824 279.553 204.544 283.905 214.656C285.633 214.272 287.105 213.952 288.897 213.824V183.936Z" fill="#FEDF00"/>
<path d="M322.301 175.5H374.901V228H322.301V175.5Z" fill="#FEDF00"/>
<path d="M329.701 175.5H337.501V228H329.701V175.5ZM344.701 175.5H352.501V228H344.701V175.5ZM359.701 175.5H367.601V228H359.701V175.5Z" fill="#D52B1E"/>
<path d="M264.3 273.5C264.366 274.567 264.833 276 265.7 277.8C266.7 279.3 266.3 279.2 268.4 281.6C269.563 282.781 270.915 283.761 272.4 284.5C277.129 286.524 282.265 287.414 287.4 287.1C290.066 286.967 292.266 286.733 294 286.4C297.645 285.915 301.323 285.715 305 285.8C306.466 285.8 308.033 286 309.7 286.4C313.2 287.1 316.7 288.4 316.7 288.4V233.7H264.1V271L264.3 273.4V273.5Z" fill="#FEDF00"/>
<path d="M270.4 283.1L272.9 284.6L276.3 285.8V233.6H270.4V283.1ZM299.6 285.5V233.6H293.8V286.4L299.6 285.7V285.5ZM311.3 233.6H305.5V285.7L311.3 286.7V233.6ZM287.9 233.6V287C287.9 287 284.1 287.2 282.1 287V233.6H287.9Z" fill="#D52B1E" stroke="#D52B1E" stroke-width="0.3"/>
<path d="M374.721 273.536C374.489 275.012 374.014 276.44 373.313 277.76C372.353 279.232 372.673 279.232 370.561 281.6C368.279 283.866 365.389 285.422 362.241 286.08C358.778 286.991 355.19 287.336 351.617 287.104C348.929 286.933 346.731 286.72 345.025 286.464C342.593 286.08 340.737 285.888 337.985 285.824H334.017C330.024 286.274 326.094 287.176 322.305 288.512V233.6H374.913V271.04L374.721 273.536Z" fill="#FEDF00"/>
<path d="M335.745 238.08L335.361 238.208L334.849 238.72C334.636 238.933 334.38 239.104 334.081 239.232L333.697 239.552C333.505 239.744 333.697 239.936 333.505 240.192C333.462 240.405 333.334 240.619 333.121 240.832C332.908 241.045 332.694 241.259 332.481 241.472L331.713 242.112L331.521 242.176H331.137L330.625 242.688L330.817 243.072L331.329 243.968C331.414 244.224 331.521 244.395 331.649 244.48C331.948 244.608 332.225 244.629 332.481 244.544L333.761 244.864L334.721 245.376C334.977 245.547 335.254 245.653 335.553 245.696H336.705V245.888L337.985 246.528L337.921 246.784C337.836 246.997 337.814 247.168 337.857 247.296C338.284 248.533 338.604 249.216 338.817 249.344C339.158 249.515 339.393 249.835 339.521 250.304L339.329 250.496C338.902 250.837 338.54 251.221 338.241 251.648C337.793 252.416 337.473 252.416 338.049 253.44L339.009 254.976L339.521 256.256C339.649 256.683 339.713 257.109 339.713 257.536L340.353 257.728L340.801 257.344L341.185 256.576V255.936C341.057 255.851 341.014 255.701 341.057 255.488C341.057 255.232 341.377 255.296 341.505 255.104C341.697 254.784 341.249 254.592 341.057 254.4C340.673 253.952 340.161 253.824 340.033 253.184C339.99 253.056 340.076 252.907 340.289 252.736L341.569 251.584C341.74 251.669 341.953 251.691 342.209 251.648L343.041 251.904H344.065L344.129 252.288C344.193 252.928 344.065 254.208 344.257 254.528L344.449 254.912L344.577 255.296V256.576L344.449 257.664C344.449 257.92 344.342 258.133 344.129 258.304C343.916 258.475 343.702 258.624 343.489 258.752V259.392L344.193 259.712L345.025 259.904L345.473 259.712L345.537 259.328L345.857 259.008L346.433 258.944C346.518 258.816 346.518 258.645 346.433 258.432C346.433 258.091 346.369 257.749 346.241 257.408L346.177 255.616C346.177 255.275 346.22 254.955 346.305 254.656C346.369 254.016 346.561 253.76 346.689 253.248L346.945 251.648C349.102 251.981 351.306 251.85 353.409 251.264C353.921 251.691 354.497 252.032 355.137 252.288V252.928C355.137 253.099 355.18 253.248 355.265 253.376L355.457 253.568C355.628 253.568 355.777 253.525 355.905 253.44C356.033 253.355 356.076 253.205 356.033 252.992V252.544H357.185V253.248C357.27 253.419 357.377 253.504 357.505 253.504H357.889C358.017 253.333 358.081 253.12 358.081 252.864V252.416L358.721 252.16V252.736L358.529 253.312C358.401 253.696 358.209 253.824 358.017 254.208C357.846 254.549 357.633 254.869 357.377 255.168L356.993 255.616L356.609 256.192L356.033 256.832C355.585 257.216 355.265 256.96 354.753 257.408L354.561 258.048L355.457 258.432L356.289 258.56L356.545 258.432C356.545 258.219 356.609 258.048 356.737 257.92C356.865 257.792 357.014 257.707 357.185 257.664C357.441 257.664 357.654 257.621 357.825 257.536C357.996 257.28 358.145 256.96 358.273 256.576C358.748 255.629 359.4 254.782 360.193 254.08L361.281 253.184C361.452 253.013 361.558 252.8 361.601 252.544L361.473 252.16L361.345 251.52C362.305 251.968 361.985 251.968 362.113 252.416C362.305 252.8 362.113 253.056 362.177 253.504C362.241 254.016 362.497 254.208 362.497 254.72C362.497 255.189 362.433 255.68 362.305 256.192C362.305 256.619 362.198 257.045 361.985 257.472C361.829 257.843 361.588 258.172 361.281 258.432L360.897 258.752L360.833 259.392L361.537 259.648L362.561 259.904L362.817 259.712C362.945 259.264 362.817 258.624 363.073 258.624C363.329 258.624 363.5 258.56 363.585 258.432V257.984L364.033 255.104L364.289 253.888L364.545 252.8C364.993 251.52 364.417 251.328 363.905 250.496C363.606 250.112 363.457 249.792 363.457 249.536V245.888L363.713 245.76C364.481 245.312 364.801 245.184 365.249 244.16L365.441 243.2V242.56L365.185 241.92L364.801 241.408C364.353 240.768 363.713 240.704 363.073 240.448C362.113 240.128 361.473 240.192 360.513 240.128C359.361 240 358.785 240 357.697 240.128C356.417 240.128 355.713 240.384 354.433 240.576L351.297 240.832C349.825 240.832 348.481 240.512 347.585 240.576C346.049 240.704 345.985 241.088 343.617 241.28L341.185 241.408L339.777 240.96C340.353 240.768 340.481 240.64 340.737 240.32C340.993 240 340.865 239.872 341.121 239.616L341.569 238.976L340.993 238.72H340.353L339.585 238.912L339.073 239.296L337.665 238.528C337.064 238.225 336.414 238.03 335.745 237.952V238.08Z" fill="#D52B1E"/>
<path d="M364.032 246.08L363.52 246.272C363.008 246.485 362.454 246.592 361.856 246.592C360.192 246.72 359.104 245.888 357.376 246.016C356.48 246.08 356.096 246.784 355.136 247.04L354.048 247.168L354.368 246.528C354.368 246.528 353.6 246.72 353.088 246.72L352.064 246.592L352.704 245.952L351.872 245.824L351.232 245.376L352.32 245.184C353.28 244.928 353.6 244.416 354.816 244.288C355.52 244.288 356.736 244.288 359.68 244.8C361.6 245.12 362.496 244.928 363.2 244.608C363.627 244.395 363.862 244.011 363.904 243.456C363.904 242.944 363.734 242.56 363.392 242.304L362.688 242.048" stroke="#FEDF00" stroke-width="0.64" stroke-linecap="round"/>
<path d="M335.872 240.384C335.574 240.384 335.296 240.448 335.04 240.576C334.784 240.789 334.571 241.024 334.4 241.28C334.699 241.408 334.955 241.472 335.168 241.472C335.382 241.472 335.552 241.365 335.68 241.152C335.851 240.939 335.936 240.683 335.936 240.384H335.872Z" fill="#FCD900" stroke="#FEDF00" stroke-width="0.32"/>
<path d="M343.041 248.832L343.681 250.304C343.809 250.816 343.681 251.072 343.809 251.584V252.608M348.161 248.128L347.969 248.96L347.329 251.2V251.648M340.289 249.088C340.865 249.216 340.673 251.2 341.505 251.648" stroke="#FEDF00" stroke-width="0.64" stroke-linecap="round"/>
<path d="M358.465 252.672L358.721 252.48C359.37 252.218 359.958 251.826 360.449 251.328" stroke="#FEDF00" stroke-width="0.64"/>
<path d="M353.535 251.52C355.775 250.944 357.311 249.856 358.399 249.664M355.839 248.704H356.351C357.311 248.512 357.439 249.088 358.079 249.472C359.295 250.112 359.423 250.944 360.831 251.648L361.087 251.712L361.599 251.968" stroke="#FEDF00" stroke-width="0.64" stroke-linecap="round"/>
<path d="M331.328 242.88H331.776L332.288 242.752C332.459 242.752 332.608 242.795 332.736 242.88C332.821 242.88 332.885 242.944 332.928 243.072C332.971 243.2 332.992 243.307 332.992 243.392C332.992 243.52 332.864 243.605 332.608 243.648C332.48 243.648 332.373 243.584 332.288 243.456V243.2C332.199 243.245 332.1 243.268 332 243.268C331.9 243.268 331.801 243.245 331.712 243.2L331.328 242.88Z" fill="#FCD900" stroke="#FEDF00" stroke-width="0.32"/>
<path d="M336.065 249.088L334.785 248.512L335.425 248.192L335.745 247.36C335.788 246.933 335.937 246.635 336.193 246.464C336.449 246.293 336.684 246.272 336.897 246.4C337.196 246.443 337.388 246.592 337.473 246.848C337.473 247.189 337.409 247.509 337.281 247.808L337.153 248.704C337.153 248.96 337.238 249.173 337.409 249.344L336.129 249.088H336.065ZM335.425 249.728C335.414 249.653 335.425 249.577 335.456 249.509C335.488 249.44 335.539 249.382 335.604 249.343C335.668 249.303 335.742 249.284 335.818 249.286C335.893 249.289 335.966 249.314 336.028 249.358C336.089 249.402 336.136 249.463 336.163 249.533C336.19 249.604 336.196 249.68 336.179 249.754C336.163 249.828 336.125 249.895 336.07 249.947C336.016 250 335.947 250.035 335.873 250.048C335.817 250.057 335.761 250.054 335.706 250.039C335.652 250.024 335.602 249.998 335.559 249.961C335.516 249.924 335.482 249.879 335.459 249.827C335.436 249.776 335.424 249.72 335.425 249.664V249.728ZM334.337 239.104H334.209L333.825 238.336L333.633 237.568V236.288C333.633 236.075 333.59 235.883 333.505 235.712C333.505 235.584 333.249 235.52 333.313 235.456H333.569C333.782 235.456 333.996 235.541 334.209 235.712C334.422 235.883 334.55 236.096 334.593 236.352L334.849 237.312L335.041 237.824L335.361 238.208L334.913 238.72L334.337 239.104ZM336.641 245.888L338.049 246.528C339.017 245.954 339.796 245.108 340.289 244.096C340.865 242.944 340.929 242.368 341.185 241.28L340.033 240.96H339.777C339.457 242.112 339.329 242.688 338.753 243.648C338.241 244.501 337.686 245.141 337.089 245.568L336.641 245.888ZM339.841 257.536L340.353 256.704L341.249 256H341.505C341.494 256.611 341.386 257.215 341.185 257.792L340.929 258.432L340.609 258.752C340.289 258.24 339.777 257.92 339.777 257.472L339.841 257.536ZM360.961 258.688L361.857 259.072L362.817 259.648V259.968L361.857 260.096H360.385L360.001 259.84C360.321 259.392 360.513 258.816 360.897 258.688H360.961ZM354.689 257.408L355.585 257.728L356.545 258.368V258.624C355.982 258.775 355.399 258.84 354.817 258.816L354.177 258.752L353.729 258.56C354.113 258.112 354.305 257.472 354.689 257.408ZM343.553 258.752L344.513 259.072L345.473 259.712V260.032C344.886 260.168 344.281 260.211 343.681 260.16H343.041L342.657 259.904C342.977 259.456 343.169 258.88 343.553 258.752ZM337.793 239.68C337.366 239.424 337.238 239.083 337.409 238.656L337.793 238.4C337.878 238.229 337.878 238.059 337.793 237.888L337.729 237.248L337.601 236.608C337.558 236.267 337.644 235.925 337.857 235.584C338.07 235.371 338.241 235.243 338.369 235.2C338.454 235.328 338.454 235.499 338.369 235.712C338.369 235.968 338.433 236.224 338.561 236.48L339.009 237.312L339.265 238.208L339.137 238.976L338.753 239.488L338.241 239.744L337.793 239.68Z" fill="#0065BD"/>
<path d="M335.745 261.504L335.361 261.632L334.849 262.144C334.636 262.357 334.38 262.528 334.081 262.656L333.697 262.976C333.505 263.168 333.697 263.36 333.505 263.616C333.462 263.829 333.334 264.043 333.121 264.256C332.908 264.469 332.694 264.683 332.481 264.896L331.713 265.536L331.521 265.6H331.137L330.625 266.112L330.817 266.496L331.329 267.392C331.414 267.648 331.521 267.819 331.649 267.904C331.948 268.032 332.225 268.053 332.481 267.968L333.761 268.288L334.721 268.8C334.977 268.971 335.254 269.077 335.553 269.12H336.705V269.312L337.985 269.952L337.921 270.208C337.836 270.421 337.814 270.592 337.857 270.72C338.284 271.957 338.604 272.64 338.817 272.768C339.158 272.939 339.393 273.259 339.521 273.728L339.329 273.92C338.902 274.261 338.54 274.645 338.241 275.072C337.793 275.84 337.473 275.84 338.049 276.864L339.009 278.4L339.521 279.68C339.649 280.107 339.713 280.533 339.713 280.96L340.353 281.152L340.801 280.768L341.185 280V279.36C341.057 279.275 341.014 279.125 341.057 278.912C341.057 278.656 341.377 278.72 341.505 278.528C341.697 278.208 341.249 278.016 341.057 277.824C340.673 277.376 340.161 277.248 340.033 276.608C339.99 276.48 340.076 276.331 340.289 276.16L341.569 275.008C341.74 275.093 341.953 275.115 342.209 275.072L343.041 275.328H344.065L344.129 275.712C344.193 276.352 344.065 277.632 344.257 277.952L344.449 278.336L344.577 278.72V280L344.449 281.088C344.449 281.344 344.342 281.557 344.129 281.728C343.916 281.899 343.702 282.048 343.489 282.176V282.816L344.193 283.136L345.025 283.328L345.473 283.136L345.537 282.752L345.857 282.432L346.433 282.368C346.518 282.24 346.518 282.069 346.433 281.856C346.433 281.515 346.369 281.173 346.241 280.832L346.177 279.04C346.177 278.699 346.22 278.379 346.305 278.08C346.369 277.44 346.561 277.184 346.689 276.672L346.945 275.072C349.102 275.405 351.306 275.274 353.409 274.688C353.921 275.115 354.497 275.456 355.137 275.712V276.352C355.137 276.523 355.18 276.672 355.265 276.8L355.457 276.992C355.628 276.992 355.777 276.949 355.905 276.864C356.033 276.779 356.076 276.629 356.033 276.416V275.968H357.185V276.672C357.27 276.843 357.377 276.928 357.505 276.928H357.889C358.017 276.757 358.081 276.544 358.081 276.288V275.84L358.721 275.584V276.16L358.529 276.736C358.401 277.12 358.209 277.248 358.017 277.632C357.846 277.973 357.633 278.293 357.377 278.592L356.993 279.04L356.609 279.616L356.033 280.256C355.585 280.64 355.265 280.384 354.753 280.832L354.561 281.472L355.457 281.856L356.289 281.984L356.545 281.856C356.545 281.643 356.609 281.472 356.737 281.344C356.865 281.216 357.014 281.131 357.185 281.088C357.441 281.088 357.654 281.045 357.825 280.96C357.996 280.704 358.145 280.384 358.273 280C358.748 279.053 359.4 278.206 360.193 277.504L361.281 276.608C361.452 276.437 361.558 276.224 361.601 275.968L361.473 275.584L361.345 274.944C362.305 275.392 361.985 275.392 362.113 275.84C362.305 276.224 362.113 276.48 362.177 276.928C362.241 277.44 362.497 277.632 362.497 278.144C362.497 278.613 362.433 279.104 362.305 279.616C362.305 280.043 362.198 280.469 361.985 280.896C361.829 281.267 361.588 281.596 361.281 281.856L360.897 282.176L360.833 282.816L361.537 283.072L362.561 283.328L362.817 283.136C362.945 282.688 362.817 282.048 363.073 282.048C363.329 282.048 363.5 281.984 363.585 281.856V281.408L364.033 278.528L364.289 277.312L364.545 276.224C364.993 274.944 364.417 274.752 363.905 273.92C363.606 273.536 363.457 273.216 363.457 272.96V269.312L363.713 269.184C364.481 268.736 364.801 268.608 365.249 267.584L365.441 266.624V265.984L365.185 265.344L364.801 264.832C364.353 264.192 363.713 264.128 363.073 263.872C362.113 263.552 361.473 263.616 360.513 263.552C359.361 263.424 358.785 263.424 357.697 263.552C356.417 263.552 355.713 263.808 354.433 264L351.297 264.256C349.825 264.256 348.481 263.936 347.585 264C346.049 264.128 345.985 264.512 343.617 264.704L341.185 264.832L339.777 264.384C340.353 264.192 340.481 264.064 340.737 263.744C340.993 263.424 340.865 263.296 341.121 263.04L341.569 262.4L340.993 262.144H340.353L339.585 262.336L339.073 262.72L337.665 261.952C337.064 261.649 336.414 261.454 335.745 261.376V261.504Z" fill="#D52B1E"/>
<path d="M364.032 269.504L363.52 269.696C363.008 269.909 362.454 270.016 361.856 270.016C360.192 270.144 359.104 269.312 357.376 269.44C356.48 269.504 356.096 270.208 355.136 270.464L354.048 270.592L354.368 269.952C354.368 269.952 353.6 270.144 353.088 270.144L352.064 270.016L352.704 269.376L351.872 269.248L351.232 268.8L352.32 268.608C353.28 268.352 353.6 267.84 354.816 267.712C355.52 267.712 356.736 267.712 359.68 268.224C361.6 268.544 362.496 268.352 363.2 268.032C363.627 267.819 363.862 267.435 363.904 266.88C363.904 266.368 363.734 265.984 363.392 265.728L362.688 265.472" stroke="#FEDF00" stroke-width="0.64" stroke-linecap="round"/>
<path d="M335.872 263.808C335.574 263.808 335.296 263.872 335.04 264C334.784 264.213 334.571 264.448 334.4 264.704C334.699 264.832 334.955 264.896 335.168 264.896C335.382 264.896 335.552 264.789 335.68 264.576C335.851 264.363 335.936 264.107 335.936 263.808H335.872Z" fill="#FCD900" stroke="#FEDF00" stroke-width="0.32"/>
<path d="M343.041 272.256L343.681 273.728C343.809 274.24 343.681 274.496 343.809 275.008V276.032M348.161 271.552L347.969 272.384L347.329 274.624V275.072M340.289 272.512C340.865 272.64 340.673 274.624 341.505 275.072" stroke="#FEDF00" stroke-width="0.64" stroke-linecap="round"/>
<path d="M358.465 276.096L358.721 275.904C359.37 275.642 359.958 275.25 360.449 274.752" stroke="#FEDF00" stroke-width="0.64"/>
<path d="M353.535 274.944C355.775 274.368 357.311 273.28 358.399 273.088M355.839 272.128H356.351C357.311 271.936 357.439 272.512 358.079 272.896C359.295 273.536 359.423 274.368 360.831 275.072L361.087 275.136L361.599 275.392" stroke="#FEDF00" stroke-width="0.64" stroke-linecap="round"/>
<path d="M331.328 266.304H331.776L332.288 266.176C332.459 266.176 332.608 266.219 332.736 266.304C332.821 266.304 332.885 266.368 332.928 266.496C332.971 266.624 332.992 266.731 332.992 266.816C332.992 266.944 332.864 267.029 332.608 267.072C332.48 267.072 332.373 267.008 332.288 266.88V266.624C332.199 266.669 332.1 266.692 332 266.692C331.9 266.692 331.801 266.669 331.712 266.624L331.328 266.304Z" fill="#FCD900" stroke="#FEDF00" stroke-width="0.32"/>
<path d="M336.065 272.512L334.785 271.936L335.425 271.616L335.745 270.784C335.788 270.357 335.937 270.059 336.193 269.888C336.449 269.717 336.684 269.696 336.897 269.824C337.196 269.867 337.388 270.016 337.473 270.272C337.473 270.613 337.409 270.933 337.281 271.232L337.153 272.128C337.153 272.384 337.238 272.597 337.409 272.768L336.129 272.512H336.065ZM335.425 273.152C335.414 273.077 335.425 273.001 335.456 272.933C335.488 272.864 335.539 272.806 335.604 272.767C335.668 272.727 335.742 272.708 335.818 272.71C335.893 272.713 335.966 272.738 336.028 272.782C336.089 272.826 336.136 272.887 336.163 272.957C336.19 273.028 336.196 273.104 336.179 273.178C336.163 273.252 336.125 273.319 336.07 273.371C336.016 273.424 335.947 273.459 335.873 273.472C335.817 273.481 335.761 273.478 335.706 273.463C335.652 273.448 335.602 273.422 335.559 273.385C335.516 273.348 335.482 273.303 335.459 273.251C335.436 273.2 335.424 273.144 335.425 273.088V273.152ZM334.337 262.528H334.209L333.825 261.76L333.633 260.992V259.712C333.633 259.499 333.59 259.307 333.505 259.136C333.505 259.008 333.249 258.944 333.313 258.88H333.569C333.782 258.88 333.996 258.965 334.209 259.136C334.422 259.307 334.55 259.52 334.593 259.776L334.849 260.736L335.041 261.248L335.361 261.632L334.913 262.144L334.337 262.528ZM336.641 269.312L338.049 269.952C339.017 269.378 339.796 268.532 340.289 267.52C340.865 266.368 340.929 265.792 341.185 264.704L340.033 264.384H339.777C339.457 265.536 339.329 266.112 338.753 267.072C338.241 267.925 337.686 268.565 337.089 268.992L336.641 269.312ZM339.841 280.96L340.353 280.128L341.249 279.424H341.505C341.494 280.035 341.386 280.639 341.185 281.216L340.929 281.856L340.609 282.176C340.289 281.664 339.777 281.344 339.777 280.896L339.841 280.96ZM360.961 282.112L361.857 282.496L362.817 283.072V283.392L361.857 283.52H360.385L360.001 283.264C360.321 282.816 360.513 282.24 360.897 282.112H360.961ZM354.689 280.832L355.585 281.152L356.545 281.792V282.048C355.982 282.199 355.399 282.264 354.817 282.24L354.177 282.176L353.729 281.984C354.113 281.536 354.305 280.896 354.689 280.832ZM343.553 282.176L344.513 282.496L345.473 283.136V283.456C344.886 283.592 344.281 283.635 343.681 283.584H343.041L342.657 283.328C342.977 282.88 343.169 282.304 343.553 282.176ZM337.793 263.104C337.366 262.848 337.238 262.507 337.409 262.08L337.793 261.824C337.878 261.653 337.878 261.483 337.793 261.312L337.729 260.672L337.601 260.032C337.558 259.691 337.644 259.349 337.857 259.008C338.07 258.795 338.241 258.667 338.369 258.624C338.454 258.752 338.454 258.923 338.369 259.136C338.369 259.392 338.433 259.648 338.561 259.904L339.009 260.736L339.265 261.632L339.137 262.4L338.753 262.912L338.241 263.168L337.793 263.104Z" fill="#0065BD"/>
<path d="M264.1 175.5H316.7V228H264.1V175.5ZM322.3 175.5H374.9V228H322.3V175.5ZM264.3 273.5C264.366 274.567 264.833 276 265.7 277.8C266.7 279.3 266.3 279.2 268.4 281.6C269.563 282.781 270.915 283.761 272.4 284.5C277.129 286.524 282.265 287.414 287.4 287.1C290.066 286.967 292.266 286.733 294 286.4C297.645 285.915 301.323 285.715 305 285.8C306.466 285.8 308.033 286 309.7 286.4C313.2 287.1 316.7 288.4 316.7 288.4V233.7H264.1V271L264.3 273.4V273.5ZM374.7 273.5C374.488 275.004 374.014 276.459 373.3 277.8C372.3 279.3 372.7 279.2 370.6 281.6C369.436 282.781 368.084 283.761 366.6 284.5C365.3 285.2 364.3 285.5 362.2 286.1C358.744 287.005 355.164 287.343 351.6 287.1C348.933 286.9 346.766 286.667 345.1 286.4L337.9 285.8H334C332.533 285.8 330.966 286 329.3 286.4C325.8 287.1 322.3 288.4 322.3 288.4V233.6H375V271.1L374.8 273.5H374.7Z" stroke="#703D29" stroke-width="0.5"/>
</g>
<defs>
<clipPath id="clip0_3921_11488">
<rect width="640" height="480" fill="white"/>
</clipPath>
</defs>
</svg>
