<svg width="640" height="480" viewBox="0 0 640 480" fill="none" xmlns="http://www.w3.org/2000/svg">
<g clip-path="url(#clip0_3921_11639)">
<path fill-rule="evenodd" clip-rule="evenodd" d="M0 0H640V480H0V0Z" fill="#000001"/>
<path fill-rule="evenodd" clip-rule="evenodd" d="M426.699 0H639.999V480H426.699V0Z" fill="#009900"/>
<path fill-rule="evenodd" clip-rule="evenodd" d="M213.301 0H426.701V480H213.301V0Z" fill="#BF0000"/>
<path fill-rule="evenodd" clip-rule="evenodd" d="M340.776 267.429H349.603C349.603 270.832 351.73 274.448 354.388 276.469H337.373C340.032 274.129 340.776 271.151 340.776 267.429Z" fill="white" stroke="#BD6B00" stroke-width="0.53173"/>
<path fill-rule="evenodd" clip-rule="evenodd" d="M284.625 217.128L289.517 222.445L350.134 222.658L355.026 217.34L339.5 217.021L332.055 211.704H307.596L300.577 217.128H284.625Z" fill="white"/>
<path fill-rule="evenodd" clip-rule="evenodd" d="M309.403 210.96H330.353C333.118 209.471 334.075 204.685 334.075 202.026C334.075 194.157 328.439 190.328 322.909 190.116C321.916 190.045 321.243 189.584 320.888 188.733C320.356 187.032 320.463 185.862 319.825 185.968C319.399 185.968 319.506 187.032 319.08 188.521C318.655 189.442 317.946 190.009 316.953 190.222C310.147 190.541 305.681 195.539 305.787 202.026C305.893 206.28 306.425 208.833 309.403 210.96Z" fill="white" stroke="#BD6B00" stroke-width="0.53173"/>
<path fill-rule="evenodd" clip-rule="evenodd" d="M275.055 285.508H364.704L356.728 279.021H282.924L275.055 285.508Z" fill="white"/>
<path fill-rule="evenodd" clip-rule="evenodd" d="M316.21 260.942L317.805 265.834H321.527L318.55 260.942H316.21ZM314.083 265.834L315.146 270.726H319.4L317.805 265.834H314.083ZM321.527 265.834L324.505 270.726H330.779L325.887 265.834H321.527ZM284.838 276.894C288.135 273.81 290.262 271.258 290.262 267.536H298.344C298.344 269.663 298.982 270.726 300.258 270.726H308.447V265.94H302.491V239.673C302.279 230.315 313.764 224.997 318.443 224.997H290.474V224.146H349.284V224.997H321.102C329.503 224.997 337.586 232.973 337.692 239.673V247.117H336.628L336.522 239.779C336.522 232.441 327.27 225.635 319.826 225.848C313.445 225.954 303.448 232.122 303.555 239.673V242.013L318.762 242.119L318.656 244.778L320.996 246.266L325.781 247.755V251.796L329.184 252.754V256.688L333.225 258.496V262.537L335.884 264.133L335.778 268.28L339.287 270.726H330.992L336.203 276.575H328.44L324.611 270.726H319.613L321.846 276.469H316.529L315.146 270.726H308.553V276.894H284.944H284.838ZM308.447 260.942V265.834H314.083L313.02 260.942H308.34H308.447Z" fill="white"/>
<path d="M317.805 265.834L316.21 260.942H318.55L321.527 265.834M317.805 265.834H321.527M317.805 265.834L319.4 270.726H315.147M317.805 265.834H314.083M321.527 265.834L324.505 270.726H330.779L325.887 265.834H321.527ZM314.083 265.834L315.147 270.726M314.083 265.834H308.447V260.942H308.34H313.02L314.083 265.834ZM315.147 270.726L316.529 276.469H321.846L319.613 270.726H324.611L328.44 276.575H336.203L330.992 270.726H339.287L335.778 268.28L335.884 264.133L333.225 262.537V258.496L329.184 256.688V252.754L325.781 251.796V247.755L320.996 246.266L318.656 244.778L318.762 242.119L303.555 242.013V239.673C303.448 232.122 313.445 225.954 319.826 225.848C327.27 225.635 336.522 232.441 336.522 239.779L336.628 247.117H337.692V239.673C337.586 232.973 329.503 224.997 321.102 224.997H349.284V224.146H290.474V224.997H318.443C313.764 224.997 302.279 230.315 302.491 239.673V265.94H308.447V270.726H300.258C298.982 270.726 298.344 269.663 298.344 267.536H290.262C290.262 271.258 288.135 273.81 284.838 276.894H284.944H308.553V270.726H315.147Z" stroke="#BD6B00" stroke-width="0.53173"/>
<path fill-rule="evenodd" clip-rule="evenodd" d="M308.766 252.434H312.275V260.517H308.766V252.434Z" stroke="#BD6B00" stroke-width="0.53173"/>
<path fill-rule="evenodd" clip-rule="evenodd" d="M303.768 261.049H307.171V255.093C307.171 252.541 309.51 249.882 310.574 249.776C311.85 249.776 313.658 252.222 313.764 254.88V261.049H317.38V245.735H303.768V261.049ZM330.992 264.558H335.246V267.961H330.992V264.558ZM328.44 258.922H332.694V262.218H328.44V258.922ZM324.292 253.179H328.546V256.476H324.292V253.179ZM320.783 248.393H325.037V251.69H320.783V248.393Z" stroke="#BD6B00" stroke-width="0.53173"/>
<path fill-rule="evenodd" clip-rule="evenodd" d="M317.912 261.049L322.379 261.261L330.142 268.067V264.026L327.483 262.112V258.922L323.655 256.795V253.285L319.933 252.009V247.436L318.125 245.841L317.912 261.049Z" stroke="#BD6B00" stroke-width="0.53173"/>
<path fill-rule="evenodd" clip-rule="evenodd" d="M336.416 250.946H337.479V258.496H336.416V250.946Z" fill="white" stroke="#BD6B00" stroke-width="0.53173"/>
<path fill-rule="evenodd" clip-rule="evenodd" d="M274.629 225.635C273.353 223.508 271.758 228.613 266.334 232.335C263.888 234.037 262.08 238.609 262.08 241.587V247.755C261.974 248.925 260.592 251.796 261.549 252.541C263.888 254.242 266.972 258.284 268.355 259.666C269.631 260.729 270.694 254.03 271.545 251.158C272.609 247.968 272.183 244.033 274.948 241.162C276.862 239.035 281.754 237.121 281.329 236.27L274.629 225.635Z" fill="white" stroke="#BD6B00" stroke-width="0.53173"/>
<path fill-rule="evenodd" clip-rule="evenodd" d="M274.31 242.013C273.888 241.009 273.314 240.077 272.608 239.248C271.933 238.404 271.055 237.745 270.056 237.333C269.069 237.059 268.183 236.505 267.504 235.738L266.653 234.143V232.016L266.334 232.335C263.888 234.037 262.08 238.609 262.08 241.587V244.033C262.222 244.6 262.435 245.061 262.718 245.416L263.888 246.266L266.759 247.011C267.836 247.491 268.784 248.22 269.524 249.138C270.292 249.962 270.937 250.894 271.439 251.903L271.651 251.052C272.502 248.181 272.396 244.778 274.416 242.013H274.31Z" fill="#BF0000" stroke="#BD6B00" stroke-width="0.53173"/>
<path d="M266.653 231.91C266.121 235.419 268.142 236.695 270.056 237.333C271.97 238.078 273.565 240.098 274.31 242.013M261.867 243.608C262.718 246.798 264.845 246.373 266.759 247.011C268.673 247.649 270.694 250.201 271.545 252.115" stroke="#BD6B00" stroke-width="0.53173"/>
<path fill-rule="evenodd" clip-rule="evenodd" d="M272.82 223.508L273.884 222.87L292.707 254.668L291.644 255.306L272.82 223.508Z" fill="white" stroke="#BD6B00" stroke-width="0.53173"/>
<path fill-rule="evenodd" clip-rule="evenodd" d="M274.842 222.232C274.842 222.796 274.618 223.337 274.219 223.736C273.82 224.135 273.279 224.359 272.715 224.359C272.151 224.359 271.61 224.135 271.211 223.736C270.812 223.337 270.588 222.796 270.588 222.232C270.588 221.668 270.812 221.127 271.211 220.728C271.61 220.329 272.151 220.105 272.715 220.105C273.279 220.105 273.82 220.329 274.219 220.728C274.618 221.127 274.842 221.668 274.842 222.232ZM291.006 196.709H298.663V198.411H291.006V196.709ZM291.006 200.006H298.663V214.682H291.006V200.006ZM290.581 194.689H299.089C299.301 191.817 296.43 188.733 294.835 188.733C293.133 188.84 290.475 191.924 290.581 194.689Z" fill="white" stroke="#BD6B00" stroke-width="0.53173"/>
<path fill-rule="evenodd" clip-rule="evenodd" d="M312.169 192.987C310.574 193.625 309.298 195.433 308.553 197.56C307.809 199.687 307.49 202.133 307.915 204.047C307.986 204.756 308.163 205.288 308.447 205.642C308.66 205.997 308.872 206.174 309.085 206.174C309.439 206.174 309.688 206.068 309.829 205.855L310.042 205.004C309.9 202.877 310.007 200.963 310.361 199.261C310.859 197.383 311.985 195.732 313.551 194.582C313.835 194.37 314.012 194.121 314.083 193.838L313.764 193.093C313.268 192.739 312.736 192.703 312.169 192.987ZM312.382 193.412C312.807 193.271 313.162 193.306 313.445 193.519L313.551 193.731L313.232 194.157C311.585 195.342 310.416 197.077 309.936 199.049C309.5 201.003 309.393 203.015 309.617 205.004L309.404 205.642C309.404 205.642 309.404 205.749 309.191 205.642L308.766 205.323L308.341 204.047C308.057 201.991 308.305 199.864 309.085 197.666C309.865 195.61 310.928 194.192 312.275 193.412H312.382Z" fill="#BD6B00"/>
<path fill-rule="evenodd" clip-rule="evenodd" d="M314.934 195.008C313.304 195.858 312.24 197.347 311.744 199.474C311.193 201.519 311.084 203.658 311.425 205.749C311.779 207.167 312.347 207.876 313.126 207.876C313.481 208.017 313.764 207.911 313.977 207.556C314.19 207.202 314.261 206.847 314.19 206.493C313.764 204.721 313.658 202.913 313.871 201.069C314.154 199.226 314.934 197.773 316.21 196.709C316.565 196.426 316.742 196.142 316.742 195.858L316.53 195.22C316.033 194.866 315.501 194.795 314.934 195.008ZM315.147 195.539C315.572 195.398 315.927 195.398 316.21 195.539L316.317 195.858L315.998 196.284C314.599 197.475 313.69 199.142 313.445 200.963C313.162 202.948 313.233 204.791 313.658 206.493V207.344L313.126 207.45C312.807 207.45 312.063 206.918 311.85 205.642C311.531 203.834 311.638 201.495 312.169 199.581C312.736 197.524 313.729 196.177 315.147 195.539Z" fill="#BD6B00"/>
<path fill-rule="evenodd" clip-rule="evenodd" d="M290.58 226.592H299.087V238.29H290.58V226.592ZM291.111 245.097H299.3V247.649H291.111V245.097ZM290.899 249.457H299.406V258.709H290.899V249.457ZM290.261 260.623H299.513V265.834H290.261V260.623ZM291.43 242.97H298.875L300.364 240.417H290.154L291.43 242.97ZM301.427 233.824L301.533 227.443H306.638C304.433 229.141 302.65 231.324 301.427 233.824Z" fill="white" stroke="#BD6B00" stroke-width="0.53173"/>
<path fill-rule="evenodd" clip-rule="evenodd" d="M291.963 236.483C291.963 237.865 293.558 237.333 293.558 236.589V230.634C293.558 229.57 296.11 229.783 296.11 230.527V236.908C296.11 237.971 297.918 237.865 297.812 236.908V229.464C297.812 227.124 291.963 227.23 291.963 229.357V236.483ZM291.963 250.627H298.025V258.071H291.963V250.627Z" stroke="#BD6B00" stroke-width="0.53173"/>
<path fill-rule="evenodd" clip-rule="evenodd" d="M295.792 253.817H297.919V254.88H295.792V253.817ZM292.07 253.817H294.197V254.88H292.07V253.817ZM294.197 250.627H295.792V253.817H294.197V250.627ZM294.197 254.88H295.792V258.177H294.197V254.88ZM260.485 175.121C260.91 180.97 258.996 184.267 255.912 183.735C255.061 180.545 256.975 178.311 260.485 175.121ZM253.572 188.201C250.807 186.819 252.828 175.972 253.891 171.399C254.636 177.248 256.018 185.543 253.572 188.201Z" fill="white"/>
<path d="M295.792 253.817H297.919V254.88H295.792M295.792 253.817V254.88M295.792 253.817V250.627H294.197V253.817M295.792 253.817H294.197M295.792 254.88H294.197M295.792 254.88V258.177H294.197V254.88M294.197 253.817H292.07V254.88H294.197M294.197 253.817V254.88M260.485 175.121C260.91 180.97 258.996 184.267 255.912 183.735C255.061 180.545 256.975 178.311 260.485 175.121ZM253.572 188.201C250.807 186.819 252.828 175.972 253.891 171.399C254.636 177.248 256.018 185.543 253.572 188.201Z" stroke="#BD6B00" stroke-width="0.53173"/>
<path fill-rule="evenodd" clip-rule="evenodd" d="M254.529 188.733C259.208 190.328 263.036 185.33 264.206 179.481C260.378 184.798 254.103 184.798 254.635 188.733H254.529ZM251.019 194.157C247.404 193.2 249.53 181.714 250.275 177.142C251.019 181.927 253.572 192.562 251.019 194.157ZM252.295 193.838C252.508 189.903 256.443 190.966 259.208 188.84C258.676 190.966 257.081 194.37 252.295 193.838ZM247.829 199.155C244.213 198.092 246.34 185.756 246.127 180.651C247.191 185.117 250.594 197.985 247.829 199.155ZM249.53 198.623C252.508 199.581 256.443 197.56 256.762 194.051C254.103 195.858 250.062 194.476 249.53 198.623Z" fill="white" stroke="#BD6B00" stroke-width="0.53173"/>
<path fill-rule="evenodd" clip-rule="evenodd" d="M245.065 204.579C241.662 204.898 243.15 194.37 243.15 184.586C244.427 193.731 247.936 202.133 245.065 204.579Z" fill="white" stroke="#BD6B00" stroke-width="0.53173"/>
<path fill-rule="evenodd" clip-rule="evenodd" d="M246.34 204.153C248.679 205.217 252.827 203.409 253.997 199.474C249.743 201.282 246.978 199.474 246.34 204.153ZM273.564 180.545C272.926 185.756 270.799 188.733 267.715 188.202C266.865 185.011 269.417 182.884 273.564 180.545ZM265.269 193.731C270.48 194.476 272.288 190.541 275.904 185.33C270.906 188.946 265.057 189.584 265.269 193.838V193.731Z" fill="white" stroke="#BD6B00" stroke-width="0.53173"/>
<path fill-rule="evenodd" clip-rule="evenodd" d="M263.676 193.2C260.911 189.797 263.676 185.436 265.803 181.821C265.377 187.244 267.185 190.328 263.676 193.2ZM262.612 198.836C262.187 195.433 267.93 194.689 270.482 192.881C269.525 194.795 268.355 200.006 262.506 198.836H262.612Z" fill="white" stroke="#BD6B00" stroke-width="0.53173"/>
<path fill-rule="evenodd" clip-rule="evenodd" d="M261.335 198.836C257.4 198.411 258.996 191.711 261.867 188.095C260.697 193.2 263.994 196.709 261.335 198.836Z" fill="white" stroke="#BD6B00" stroke-width="0.53173"/>
<path fill-rule="evenodd" clip-rule="evenodd" d="M258.358 204.472C253.891 202.346 256.763 196.816 258.358 193.519C257.72 197.879 261.336 201.176 258.358 204.366V204.472Z" fill="white" stroke="#BD6B00" stroke-width="0.53173"/>
<path fill-rule="evenodd" clip-rule="evenodd" d="M259.207 203.834C261.547 207.025 266.12 202.984 267.077 198.304C263.142 201.601 260.164 201.069 259.207 203.941V203.834ZM248.998 225.423C248.573 220.85 251.976 212.661 249.53 208.195C249.211 207.556 250.274 205.961 251.019 206.918C252.082 208.514 253.146 212.98 253.677 211.279C254.209 209.577 254.209 206.387 255.804 205.749C256.868 205.43 258.25 205.111 257.825 206.812C257.399 208.301 256.549 210.428 257.506 210.534C258.038 210.534 259.633 208.407 261.015 207.344C262.079 206.493 263.78 207.982 262.079 209.258C256.974 213.512 251.976 215.532 248.998 225.423ZM239.746 294.016C239.108 294.016 238.364 293.697 239.108 294.654C245.17 302.098 246.871 304.225 255.698 303.162C264.525 301.992 266.652 299.546 272.926 296.036C276.608 294.151 280.879 293.77 284.837 294.973C286.538 295.505 287.602 295.505 286.326 294.228C285.049 292.952 283.667 291.357 282.072 290.187C278.084 287.583 273.268 286.56 268.566 287.316C262.185 288.379 256.761 292.527 250.274 294.122C246.8 294.824 243.22 294.824 239.746 294.122V294.016ZM290.579 307.309C291.643 307.522 292.387 309.649 293.025 308.266C293.876 305.82 293.238 304.012 292.175 304.119C290.898 304.438 288.878 307.309 290.579 307.309Z" fill="white" stroke="#BD6B00" stroke-width="0.53173"/>
<path fill-rule="evenodd" clip-rule="evenodd" d="M235.599 221.913C234.323 220.495 234.677 219.822 236.662 219.893C238.151 219.893 241.129 220.956 242.298 219.999C243.362 219.255 242.83 216.064 243.362 214.682C243.575 213.725 244.106 212.555 245.489 214.469C249.317 220.637 253.997 228.081 256.123 235.313C257.187 239.354 256.123 245.735 252.508 249.989C252.508 246.373 251.232 243.927 249.636 240.843C247.509 236.908 239.959 225.954 235.599 221.807V221.913Z" fill="white"/>
<path fill-rule="evenodd" clip-rule="evenodd" d="M251.444 254.242C255.698 254.242 256.442 248.606 256.442 247.011C254.316 247.436 250.7 250.946 251.444 254.242ZM288.134 309.436C291.111 310.074 291.005 302.843 287.921 299.758C289.303 304.438 285.794 308.692 288.027 309.33L288.134 309.436ZM286.857 309.33C287.07 312.733 278.35 308.904 276.223 306.139C281.327 308.372 286.645 306.565 286.857 309.33ZM283.135 304.438C283.454 307.734 275.691 304.757 273.245 302.204C278.456 303.906 282.816 301.673 283.135 304.331V304.438ZM284.518 304.863C287.602 305.607 287.07 298.057 284.092 295.505C285.581 300.503 282.178 304.119 284.518 304.863ZM281.327 300.29C284.411 301.035 282.604 294.547 280.37 291.995C280.796 296.674 279.307 299.971 281.434 300.29H281.327ZM279.732 300.29C280.051 303.693 273.99 301.141 271.65 297.844C276.755 299.439 279.413 297.525 279.732 300.29ZM278.137 297.632C280.051 296.249 278.031 292.527 274.202 292.74C274.628 294.973 275.904 299.014 278.137 297.632ZM293.025 313.264C293.132 316.667 284.518 314.966 281.753 311.35C287.283 312.414 292.706 310.499 292.919 313.264H293.025ZM258.569 307.096C258.888 310.499 249.424 306.671 247.084 303.481C252.082 305.182 258.25 304.331 258.569 307.096ZM264.312 308.479C266.333 307.096 262.291 303.481 258.995 302.63C259.42 304.863 262.185 309.861 264.312 308.585V308.479ZM264.95 310.925C265.163 314.009 254.847 312.307 252.189 309.436C261.015 311.031 264.631 308.266 264.95 310.925Z" fill="white" stroke="#BD6B00" stroke-width="0.53173"/>
<path fill-rule="evenodd" clip-rule="evenodd" d="M269.842 312.945C270.905 315.817 261.015 315.072 257.506 313.477C263.142 313.477 268.991 310.925 269.842 312.945Z" fill="white" stroke="#BD6B00" stroke-width="0.53173"/>
<path fill-rule="evenodd" clip-rule="evenodd" d="M274.416 315.072C275.479 317.625 266.334 317.625 261.867 316.136C267.823 316.136 273.353 312.52 274.416 315.072ZM281.116 316.455C282.817 319.539 273.034 319.752 269.949 318.263C275.479 317.518 279.733 314.009 281.116 316.455ZM269.737 311.244C266.653 313.158 266.865 307.415 264.419 303.481C268.248 306.99 271.864 309.436 269.737 311.244Z" fill="white" stroke="#BD6B00" stroke-width="0.53173"/>
<path fill-rule="evenodd" clip-rule="evenodd" d="M275.267 313.371C272.715 315.604 270.588 307.734 268.249 303.268C272.077 307.522 277.607 311.456 275.267 313.264V313.371ZM282.499 315.498C280.372 318.05 273.991 308.053 271.652 302.736C275.161 306.884 284.2 313.371 282.499 315.498ZM276.331 323.155C275.267 326.983 259.103 319.539 257.189 315.604C266.547 320.496 276.543 319.432 276.331 323.048V323.155ZM224.54 244.671C224.115 244.139 223.051 244.671 223.264 245.841C223.583 247.436 225.923 255.625 229.964 258.39C232.835 260.517 248.043 263.814 254.849 265.302C258.606 266.011 261.761 267.89 264.314 270.939C263.441 267.409 262.376 263.93 261.123 260.517C259.847 257.326 256.444 253.923 252.828 253.817C246.341 253.498 237.834 252.966 231.559 250.308C228.717 249.109 226.254 247.161 224.434 244.671H224.54Z" fill="white" stroke="#BD6B00" stroke-width="0.53173"/>
<path fill-rule="evenodd" clip-rule="evenodd" d="M262.079 277.107C264.206 278.596 266.44 273.172 263.887 267.961C263.781 272.959 259.846 274.661 262.079 277.107Z" fill="white" stroke="#BD6B00" stroke-width="0.53173"/>
<path fill-rule="evenodd" clip-rule="evenodd" d="M264.099 282.105C266.971 282.956 267.821 277.851 266.014 273.81C266.333 278.17 261.441 280.829 264.099 282.105Z" fill="white" stroke="#BD6B00" stroke-width="0.53173"/>
<path fill-rule="evenodd" clip-rule="evenodd" d="M266.333 286.146C269.098 287.529 270.055 282.318 268.141 278.596C268.354 283.381 264.206 284.87 266.333 286.04V286.146Z" fill="white" stroke="#BD6B00" stroke-width="0.53173"/>
<path fill-rule="evenodd" clip-rule="evenodd" d="M265.164 286.465C264.1 289.656 257.72 283.594 256.656 280.297C260.591 284.232 265.908 283.7 265.164 286.359V286.465Z" fill="white" stroke="#BD6B00" stroke-width="0.53173"/>
<path fill-rule="evenodd" clip-rule="evenodd" d="M262.292 281.467C261.016 284.657 253.04 276.15 251.232 272.215C255.167 276.15 263.143 279.127 262.292 281.361V281.467Z" fill="white" stroke="#BD6B00" stroke-width="0.53173"/>
<path fill-rule="evenodd" clip-rule="evenodd" d="M260.696 276.469C259.42 280.191 250.806 270.301 248.254 266.791C252.508 270.62 261.653 273.81 260.696 276.469ZM260.377 272.853C263.568 272.215 260.271 269.663 256.443 265.515C256.336 269.875 256.974 272.959 260.377 272.853Z" fill="white" stroke="#BD6B00" stroke-width="0.53173"/>
<path fill-rule="evenodd" clip-rule="evenodd" d="M255.167 270.301C256.55 268.918 253.997 268.28 250.807 264.664C250.275 267.11 253.785 271.577 255.274 270.301H255.167ZM270.056 286.465C271.757 287.529 272.821 284.019 270.8 280.935C270.268 284.338 268.567 285.189 270.056 286.465ZM233.685 264.877C230.176 267.004 224.54 258.496 223.051 254.987C226.135 259.028 234.323 262.644 233.685 264.877Z" fill="white" stroke="#BD6B00" stroke-width="0.53173"/>
<path fill-rule="evenodd" clip-rule="evenodd" d="M236.769 269.769C234.748 271.896 228.58 266.047 226.453 263.069C229.644 265.94 237.619 266.259 236.769 269.769Z" fill="white" stroke="#BD6B00" stroke-width="0.53173"/>
<path fill-rule="evenodd" clip-rule="evenodd" d="M240.065 274.235C239.427 277.213 230.494 270.513 228.367 267.323C232.196 271.045 240.703 270.726 240.065 274.235Z" fill="white" stroke="#BD6B00" stroke-width="0.53173"/>
<path fill-rule="evenodd" clip-rule="evenodd" d="M238.683 277.532C237.3 280.191 229.962 273.491 228.154 270.088C232.727 273.916 239.852 274.874 238.789 277.532H238.683ZM234.96 264.452C237.194 262.006 236.237 260.836 234.535 257.007C233.684 260.942 232.302 262.537 234.96 264.452ZM238.044 269.024C242.298 269.237 238.044 264.133 236.981 259.772C237.406 264.664 235.918 268.599 238.044 269.024Z" fill="white" stroke="#BD6B00" stroke-width="0.53173"/>
<path fill-rule="evenodd" clip-rule="evenodd" d="M240.704 273.066C243.575 272.428 242.831 268.28 240.491 263.282C241.023 268.705 238.045 271.789 240.704 273.066ZM239.64 281.254C238.577 284.445 230.282 277 229.006 274.023C233.26 277.638 240.385 278.808 239.64 281.254Z" fill="white" stroke="#BD6B00" stroke-width="0.53173"/>
<path fill-rule="evenodd" clip-rule="evenodd" d="M244.639 286.359C243.469 289.549 234.748 282.956 232.09 279.34C237.301 283.594 245.277 283.168 244.639 286.359Z" fill="white" stroke="#BD6B00" stroke-width="0.53173"/>
<path fill-rule="evenodd" clip-rule="evenodd" d="M249.744 291.57C248.361 296.143 239.215 288.805 236.557 285.189C242.299 289.656 250.382 288.379 249.744 291.57ZM241.236 279.872C243.682 281.042 244.639 274.129 243.256 269.131C243.256 274.448 238.258 278.489 241.13 279.765L241.236 279.872Z" fill="white" stroke="#BD6B00" stroke-width="0.53173"/>
<path fill-rule="evenodd" clip-rule="evenodd" d="M245.384 285.402C248.362 286.253 247.511 278.702 244.852 273.704C244.533 278.702 242.406 283.275 245.384 285.402ZM250.701 290.613C253.892 290.719 251.765 284.126 249 280.403C249.425 285.189 247.936 289.975 250.701 290.613ZM244.852 293.378C243.789 295.079 241.449 291.995 237.408 289.656C241.024 290.719 245.278 291.783 244.852 293.378ZM242.938 237.333C246.129 234.994 243.683 230.74 242.938 226.699C241.875 230.527 239.322 235.632 242.938 237.333ZM242.938 242.97C238.153 242.438 238.897 236.483 238.684 232.654C240.173 237.865 244.002 238.716 242.938 243.076V242.97ZM243.576 242.225C247.511 242.013 247.298 237.546 247.511 233.08C245.49 237.227 243.257 237.865 243.576 242.225Z" fill="white" stroke="#BD6B00" stroke-width="0.53173"/>
<path fill-rule="evenodd" clip-rule="evenodd" d="M243.47 247.755C240.279 248.074 238.79 244.99 238.152 240.311C241.024 244.671 243.576 243.289 243.47 247.755ZM244.533 247.436C248.468 247.968 247.723 243.395 247.723 239.992C246.447 243.182 243.257 244.246 244.533 247.436Z" fill="white" stroke="#BD6B00" stroke-width="0.53173"/>
<path fill-rule="evenodd" clip-rule="evenodd" d="M238.365 245.522C238.684 248.5 240.599 253.604 243.683 252.434C244.852 248.819 240.918 248.074 238.365 245.522Z" fill="white" stroke="#BD6B00" stroke-width="0.53173"/>
<path fill-rule="evenodd" clip-rule="evenodd" d="M244.532 252.754C243.255 250.201 247.722 248.819 248.573 245.416C249.104 250.308 248.679 253.498 244.532 252.86V252.754ZM231.876 221.7C234.322 219.148 232.195 214.894 231.451 210.853C230.388 214.682 228.792 219.786 231.876 221.7ZM231.876 226.592C227.623 227.124 226.559 218.404 226.027 214.575C227.516 219.786 232.408 222.02 231.876 226.699V226.592ZM232.727 226.592C235.705 224.997 235.067 221.594 235.918 219.148C234.003 222.232 232.089 222.658 232.727 226.592Z" fill="white" stroke="#BD6B00" stroke-width="0.53173"/>
<path fill-rule="evenodd" clip-rule="evenodd" d="M231.771 232.335C227.41 232.654 224.752 222.977 224.539 219.148C225.922 224.359 232.409 227.124 231.877 232.335H231.771ZM232.728 232.122C236.982 231.165 236.45 228.4 235.812 224.04C234.429 228.507 232.09 227.55 232.728 232.122Z" fill="white" stroke="#BD6B00" stroke-width="0.53173"/>
<path fill-rule="evenodd" clip-rule="evenodd" d="M231.771 237.865C226.879 238.716 227.198 230.846 223.264 225.21C226.667 229.464 232.835 234.781 231.771 237.865ZM232.835 237.546C236.663 237.759 237.089 232.122 236.876 229.783C235.919 232.122 231.559 234.249 232.941 237.652L232.835 237.546Z" fill="white" stroke="#BD6B00" stroke-width="0.53173"/>
<path fill-rule="evenodd" clip-rule="evenodd" d="M224.113 231.803C225.921 237.865 228.58 243.927 231.77 243.501C233.365 239.992 228.686 239.567 224.113 231.803Z" fill="white" stroke="#BD6B00" stroke-width="0.53173"/>
<path fill-rule="evenodd" clip-rule="evenodd" d="M232.941 242.544C231.665 239.886 236.132 238.61 236.982 235.206C237.514 240.098 237.089 243.289 232.941 242.544ZM225.391 238.716C228.049 244.139 229.219 250.414 232.835 249.457C234.217 245.203 228.794 244.352 225.391 238.716Z" fill="white" stroke="#BD6B00" stroke-width="0.53173"/>
<path fill-rule="evenodd" clip-rule="evenodd" d="M233.579 248.5C231.984 245.522 236.45 244.565 237.62 240.63C238.152 245.735 237.62 249.457 233.579 248.393V248.5ZM241.236 211.81C243.788 212.448 246.553 209.577 245.596 205.217C242.618 205.855 241.342 208.62 241.236 211.81ZM232.834 209.577C233.047 210.853 234.642 210.96 234.11 209.152C233.688 207.983 233.688 206.704 234.11 205.536C234.589 203.94 234.589 202.239 234.11 200.644C233.685 199.581 232.196 200.219 232.834 201.069C233.472 201.92 233.579 204.047 233.047 205.004C232.551 206.564 232.48 208.088 232.834 209.577ZM257.188 226.592C256.124 227.975 254.104 227.018 255.699 224.997C256.975 223.402 258.889 222.02 258.889 220.318C259.102 218.191 260.272 215.001 261.441 213.831C262.611 212.661 263.994 214.256 262.718 215.107C261.335 215.958 260.378 219.786 260.484 221.275C260.378 223.402 258.357 224.997 257.188 226.592ZM253.997 224.146C252.934 225.635 251.445 224.678 252.296 222.339C253.04 220.743 253.146 218.616 253.997 217.447C255.273 215.639 257.188 214.15 258.357 212.98C259.634 211.917 260.484 212.98 259.421 214.044C258.117 215.346 256.942 216.77 255.911 218.297C254.423 220.637 255.061 222.551 253.997 224.146ZM237.301 216.49C237.195 218.616 238.896 219.042 238.79 216.064C238.79 212.874 236.45 209.896 237.726 205.111C238.577 202.771 238.577 198.411 238.152 196.177C237.726 193.944 236.025 195.327 236.769 197.135C237.407 199.261 236.663 203.09 236.131 205.111C234.536 210.853 237.407 213.618 237.195 216.49H237.301ZM241.874 204.791C241.661 206.812 239.96 206.918 240.491 204.26C240.917 202.204 240.917 200.325 240.491 198.623C239.853 196.39 240.066 192.562 240.491 190.966C241.023 189.265 242.618 190.222 241.98 191.498C241.244 193.51 241.133 195.697 241.661 197.773C242.299 199.9 242.193 202.877 241.874 204.898V204.791ZM225.284 244.246C226.135 245.203 227.411 244.565 226.347 243.182C225.284 242.119 225.603 241.906 224.965 240.63C224.327 239.141 224.433 238.397 223.689 237.44C222.944 236.376 221.987 237.44 222.625 238.184C223.476 239.248 223.263 239.886 223.689 240.843C224.752 242.438 224.433 243.289 225.284 244.246ZM246.978 270.407C248.256 271.152 249.343 272.184 250.155 273.42C250.967 274.656 251.481 276.064 251.658 277.532C251.769 280.18 252.497 282.766 253.785 285.083C251.658 284.551 250.594 281.148 250.275 277.851C249.956 274.448 248.148 273.066 247.085 270.407H246.978ZM252.402 276.681C254.21 279.978 256.656 281.254 256.869 283.7C257.081 286.572 257.294 286.678 258.038 289.443C255.911 288.911 255.38 288.698 254.848 284.445C254.529 281.467 252.083 279.446 252.402 276.681Z" fill="white" stroke="#BD6B00" stroke-width="0.53173"/>
<path fill-rule="evenodd" clip-rule="evenodd" d="M308.34 307.309C309.403 309.223 310.466 312.095 312.593 311.563C312.593 310.18 310.36 309.117 308.34 307.309ZM311.53 307.947C315.465 309.649 318.974 309.223 319.506 311.776C315.677 312.201 314.189 310.712 311.424 307.947H311.53ZM294.408 294.441C297.051 296.495 298.924 299.38 299.726 302.63C300.583 305.57 301.873 308.365 303.554 310.925C300.788 309.067 298.787 306.272 297.918 303.055C297.173 299.865 296.216 297.419 294.408 294.547V294.441ZM297.705 294.441C300.683 296.781 303.448 299.546 304.298 302.842C305.149 305.927 305.681 308.266 307.701 311.35C304.511 309.33 303.341 306.352 302.384 303.055C301.64 299.865 299.726 297.525 297.705 294.547V294.441ZM307.489 302.204C307.423 301.937 307.464 301.654 307.603 301.416C307.742 301.178 307.968 301.003 308.233 300.928L310.998 300.077C312.062 299.758 312.7 300.503 312.7 301.035V303.162C312.7 303.8 312.452 304.119 311.955 304.119C311.105 304.119 310.254 304.367 309.403 304.863C308.694 305.218 308.162 305.04 307.808 304.331L307.489 302.204ZM318.761 302.204C318.761 301.495 318.549 301.07 318.123 300.928C317.321 300.578 316.444 300.432 315.571 300.503C314.649 300.503 314.259 300.716 314.401 301.141V303.374C314.401 304.225 314.401 304.225 314.827 304.438C315.748 304.367 316.635 304.579 317.485 305.076C318.123 305.359 318.513 305.147 318.655 304.438L318.761 302.204Z" fill="white"/>
<path fill-rule="evenodd" clip-rule="evenodd" d="M365.447 225.635C366.723 223.508 368.318 228.613 373.742 232.335C376.188 234.037 377.996 238.609 377.996 241.587V247.755C378.102 248.925 379.485 251.796 378.528 252.541C376.188 254.242 373.104 258.284 371.721 259.666C370.445 260.729 369.382 254.03 368.531 251.158C367.468 247.968 367.893 244.033 365.128 241.162C363.214 239.035 358.322 237.121 358.747 236.27L365.447 225.635Z" fill="white" stroke="#BD6B00" stroke-width="0.53173"/>
<path fill-rule="evenodd" clip-rule="evenodd" d="M365.766 242.013C366.189 241.009 366.762 240.077 367.468 239.248C368.143 238.404 369.021 237.745 370.02 237.333C371.007 237.059 371.893 236.505 372.572 235.738L373.423 234.143V232.016L373.742 232.335C376.188 234.037 377.996 238.609 377.996 241.587V244.033C377.854 244.6 377.642 245.061 377.358 245.416L376.188 246.266L373.317 247.011C372.24 247.491 371.292 248.22 370.552 249.138C369.784 249.962 369.139 250.894 368.638 251.903L368.425 251.052C367.574 248.181 367.681 244.778 365.66 242.013H365.766Z" fill="#BF0000" stroke="#BD6B00" stroke-width="0.53173"/>
<path d="M373.423 231.91C373.955 235.419 371.935 236.695 370.02 237.333C368.106 238.078 366.511 240.098 365.767 242.013M378.209 243.608C377.358 246.798 375.231 246.373 373.317 247.011C371.403 247.649 369.382 250.201 368.532 252.115" stroke="#BD6B00" stroke-width="0.53173"/>
<path fill-rule="evenodd" clip-rule="evenodd" d="M367.256 223.508L366.192 222.87L347.369 254.668L348.433 255.306L367.256 223.508Z" fill="white" stroke="#BD6B00" stroke-width="0.53173"/>
<path fill-rule="evenodd" clip-rule="evenodd" d="M365.234 222.232C365.234 222.796 365.459 223.337 365.857 223.736C366.256 224.135 366.797 224.359 367.361 224.359C367.925 224.359 368.466 224.135 368.865 223.736C369.264 223.337 369.488 222.796 369.488 222.232C369.488 221.668 369.264 221.127 368.865 220.728C368.466 220.329 367.925 220.105 367.361 220.105C366.797 220.105 366.256 220.329 365.857 220.728C365.459 221.127 365.234 221.668 365.234 222.232ZM349.07 196.709H341.413V198.411H349.07V196.709ZM349.07 200.006H341.413V214.682H349.07V200.006ZM349.495 194.689H340.988C340.775 191.817 343.646 188.733 345.241 188.733C346.943 188.84 349.602 191.924 349.495 194.689Z" fill="white" stroke="#BD6B00" stroke-width="0.53173"/>
<path fill-rule="evenodd" clip-rule="evenodd" d="M327.907 192.987C329.502 193.625 330.779 195.433 331.523 197.56C332.267 199.687 332.586 202.133 332.161 204.047C332.09 204.756 331.913 205.288 331.629 205.642C331.417 205.997 331.204 206.174 330.991 206.174C330.637 206.174 330.389 206.068 330.247 205.855L330.034 205.004C330.176 202.877 330.07 200.963 329.715 199.261C329.217 197.383 328.091 195.732 326.525 194.582C326.241 194.37 326.064 194.121 325.993 193.838L326.312 193.093C326.808 192.739 327.34 192.703 327.907 192.987ZM327.695 193.412C327.269 193.271 326.915 193.306 326.631 193.519L326.525 193.731L326.844 194.157C328.491 195.342 329.66 197.077 330.14 199.049C330.576 201.003 330.684 203.015 330.459 205.004L330.672 205.642C330.672 205.642 330.672 205.749 330.885 205.642L331.31 205.323L331.736 204.047C332.019 201.991 331.771 199.864 330.991 197.666C330.211 195.61 329.148 194.192 327.801 193.412H327.695Z" fill="#BD6B00"/>
<path fill-rule="evenodd" clip-rule="evenodd" d="M325.142 195.008C326.772 195.858 327.836 197.347 328.332 199.474C328.884 201.519 328.992 203.658 328.651 205.749C328.297 207.167 327.73 207.876 326.95 207.876C326.595 208.017 326.312 207.911 326.099 207.556C325.886 207.202 325.815 206.847 325.886 206.493C326.312 204.721 326.418 202.913 326.205 201.069C325.922 199.226 325.142 197.773 323.866 196.709C323.511 196.426 323.334 196.142 323.334 195.858L323.547 195.22C324.043 194.866 324.575 194.795 325.142 195.008ZM324.929 195.539C324.504 195.398 324.149 195.398 323.866 195.539L323.759 195.858L324.078 196.284C325.478 197.475 326.387 199.142 326.631 200.963C326.914 202.948 326.843 204.791 326.418 206.493V207.344L326.95 207.45C327.269 207.45 328.013 206.918 328.226 205.642C328.545 203.834 328.439 201.495 327.907 199.581C327.34 197.524 326.347 196.177 324.929 195.539Z" fill="#BD6B00"/>
<path fill-rule="evenodd" clip-rule="evenodd" d="M349.496 226.592H340.989V238.29H349.496V226.592ZM348.965 245.097H340.776V247.649H348.965V245.097ZM349.177 249.457H340.67V258.709H349.177V249.457ZM349.816 260.623H340.563V265.834H349.816V260.623ZM348.646 242.97H341.201L339.713 240.417H349.922L348.646 242.97ZM338.649 233.824L338.543 227.443H333.438C335.643 229.141 337.426 231.324 338.649 233.824Z" fill="white" stroke="#BD6B00" stroke-width="0.53173"/>
<path fill-rule="evenodd" clip-rule="evenodd" d="M348.113 236.483C348.113 237.865 346.518 237.333 346.518 236.589V230.634C346.518 229.57 343.966 229.783 343.966 230.527V236.908C343.966 237.971 342.158 237.865 342.264 236.908V229.464C342.264 227.124 348.113 227.23 348.113 229.357V236.483ZM348.113 250.627H342.052V258.071H348.113V250.627Z" stroke="#BD6B00" stroke-width="0.53173"/>
<path fill-rule="evenodd" clip-rule="evenodd" d="M344.284 253.817H342.158V254.88H344.284V253.817ZM348.007 253.817H345.88V254.88H348.007V253.817ZM345.88 250.627H344.284V253.817H345.88V250.627ZM345.88 254.88H344.284V258.177H345.88V254.88ZM379.591 175.121C379.166 180.97 381.08 184.267 384.164 183.735C385.015 180.545 383.101 178.311 379.591 175.121ZM386.504 188.201C389.269 186.819 387.248 175.972 386.185 171.399C385.44 177.248 384.058 185.543 386.504 188.201Z" fill="white"/>
<path d="M344.284 253.817H342.158V254.88H344.284M344.284 253.817V254.88M344.284 253.817V250.627H345.88V253.817M344.284 253.817H345.88M344.284 254.88H345.88M344.284 254.88V258.177H345.88V254.88M345.88 253.817H348.007V254.88H345.88M345.88 253.817V254.88M379.591 175.121C379.166 180.97 381.08 184.267 384.164 183.735C385.015 180.545 383.101 178.311 379.591 175.121ZM386.504 188.201C389.269 186.819 387.248 175.972 386.185 171.399C385.44 177.248 384.058 185.543 386.504 188.201Z" stroke="#BD6B00" stroke-width="0.53173"/>
<path fill-rule="evenodd" clip-rule="evenodd" d="M385.547 188.733C380.868 190.328 377.04 185.33 375.87 179.481C379.698 184.798 385.973 184.798 385.441 188.733H385.547ZM389.057 194.157C392.673 193.2 390.546 181.714 389.801 177.142C389.057 181.927 386.505 192.562 389.057 194.157ZM387.781 193.838C387.568 189.903 383.633 190.966 380.868 188.84C381.4 190.966 382.995 194.37 387.781 193.838ZM392.247 199.155C395.863 198.092 393.736 185.756 393.949 180.651C392.885 185.117 389.482 197.985 392.247 199.155ZM390.546 198.623C387.568 199.581 383.633 197.56 383.314 194.051C385.973 195.858 390.014 194.476 390.546 198.623Z" fill="white" stroke="#BD6B00" stroke-width="0.53173"/>
<path fill-rule="evenodd" clip-rule="evenodd" d="M395.012 204.579C398.415 204.898 396.926 194.37 396.926 184.586C395.65 193.731 392.14 202.133 395.012 204.579Z" fill="white" stroke="#BD6B00" stroke-width="0.53173"/>
<path fill-rule="evenodd" clip-rule="evenodd" d="M393.736 204.153C391.397 205.217 387.249 203.409 386.079 199.474C390.333 201.282 393.098 199.474 393.736 204.153ZM366.512 180.545C367.15 185.756 369.277 188.733 372.361 188.202C373.212 185.011 370.659 182.884 366.512 180.545ZM374.807 193.731C369.596 194.476 367.788 190.541 364.172 185.33C369.17 188.946 375.019 189.584 374.807 193.838V193.731Z" fill="white" stroke="#BD6B00" stroke-width="0.53173"/>
<path fill-rule="evenodd" clip-rule="evenodd" d="M376.402 193.2C379.167 189.797 376.402 185.436 374.276 181.821C374.701 187.244 372.893 190.328 376.402 193.2ZM377.466 198.836C377.891 195.433 372.149 194.689 369.596 192.881C370.553 194.795 371.723 200.006 377.572 198.836H377.466Z" fill="white" stroke="#BD6B00" stroke-width="0.53173"/>
<path fill-rule="evenodd" clip-rule="evenodd" d="M378.741 198.836C382.676 198.411 381.081 191.711 378.209 188.095C379.379 193.2 376.082 196.709 378.741 198.836Z" fill="white" stroke="#BD6B00" stroke-width="0.53173"/>
<path fill-rule="evenodd" clip-rule="evenodd" d="M381.718 204.472C386.185 202.346 383.314 196.816 381.718 193.519C382.356 197.879 378.741 201.176 381.718 204.366V204.472Z" fill="white" stroke="#BD6B00" stroke-width="0.53173"/>
<path fill-rule="evenodd" clip-rule="evenodd" d="M380.869 203.834C378.529 207.025 373.956 202.984 372.999 198.304C376.934 201.601 379.912 201.069 380.869 203.941V203.834ZM391.078 225.423C391.503 220.85 388.1 212.661 390.546 208.195C390.865 207.556 389.802 205.961 389.057 206.918C387.994 208.514 386.931 212.98 386.399 211.279C385.867 209.577 385.867 206.387 384.272 205.749C383.208 205.43 381.826 205.111 382.251 206.812C382.677 208.301 383.527 210.428 382.57 210.534C382.039 210.534 380.443 208.407 379.061 207.344C377.997 206.493 376.296 207.982 377.997 209.258C383.102 213.512 388.1 215.532 391.078 225.423ZM400.33 294.016C400.968 294.016 401.713 293.697 400.968 294.654C394.906 302.098 393.205 304.225 384.378 303.162C375.552 301.992 373.425 299.546 367.15 296.036C363.468 294.151 359.197 293.77 355.239 294.973C353.538 295.505 352.474 295.505 353.751 294.228C355.027 292.952 356.409 291.357 358.004 290.187C361.992 287.583 366.808 286.56 371.51 287.316C377.891 288.379 383.315 292.527 389.802 294.122C393.276 294.824 396.856 294.824 400.33 294.122V294.016ZM349.497 307.309C348.433 307.522 347.689 309.649 347.051 308.266C346.2 305.82 346.838 304.012 347.902 304.119C349.178 304.438 351.198 307.309 349.497 307.309Z" fill="white" stroke="#BD6B00" stroke-width="0.53173"/>
<path fill-rule="evenodd" clip-rule="evenodd" d="M404.478 221.913C405.754 220.495 405.399 219.822 403.414 219.893C401.925 219.893 398.948 220.956 397.778 219.999C396.714 219.255 397.246 216.064 396.714 214.682C396.502 213.725 395.97 212.555 394.587 214.469C390.759 220.637 386.08 228.081 383.953 235.313C382.889 239.354 383.953 245.735 387.569 249.989C387.569 246.373 388.845 243.927 390.44 240.843C392.567 236.908 400.117 225.954 404.478 221.807V221.913Z" fill="white"/>
<path fill-rule="evenodd" clip-rule="evenodd" d="M388.632 254.242C384.378 254.242 383.634 248.606 383.634 247.011C385.761 247.436 389.376 250.946 388.632 254.242ZM351.943 309.436C348.965 310.074 349.071 302.843 352.155 299.758C350.773 304.438 354.282 308.692 352.049 309.33L351.943 309.436ZM353.219 309.33C353.006 312.733 361.726 308.904 363.853 306.139C358.749 308.372 353.431 306.565 353.219 309.33ZM356.941 304.438C356.622 307.734 364.385 304.757 366.831 302.204C361.62 303.906 357.26 301.673 356.941 304.331V304.438ZM355.558 304.863C352.474 305.607 353.006 298.057 355.984 295.505C354.495 300.503 357.898 304.119 355.558 304.863ZM358.749 300.29C355.665 301.035 357.473 294.547 359.706 291.995C359.28 296.674 360.769 299.971 358.642 300.29H358.749ZM360.344 300.29C360.025 303.693 366.087 301.141 368.426 297.844C363.322 299.439 360.663 297.525 360.344 300.29ZM361.939 297.632C360.025 296.249 362.046 292.527 365.874 292.74C365.449 294.973 364.172 299.014 361.939 297.632ZM347.051 313.264C346.944 316.667 355.558 314.966 358.323 311.35C352.793 312.414 347.37 310.499 347.157 313.264H347.051ZM381.507 307.096C381.188 310.499 390.653 306.671 392.992 303.481C387.994 305.182 381.826 304.331 381.507 307.096ZM375.764 308.479C373.744 307.096 377.785 303.481 381.081 302.63C380.656 304.863 377.891 309.861 375.764 308.585V308.479ZM375.126 310.925C374.913 314.009 385.229 312.307 387.888 309.436C379.061 311.031 375.445 308.266 375.126 310.925Z" fill="white" stroke="#BD6B00" stroke-width="0.53173"/>
<path fill-rule="evenodd" clip-rule="evenodd" d="M370.234 312.945C369.171 315.817 379.061 315.072 382.57 313.477C376.934 313.477 371.085 310.925 370.234 312.945Z" fill="white" stroke="#BD6B00" stroke-width="0.53173"/>
<path fill-rule="evenodd" clip-rule="evenodd" d="M365.66 315.072C364.597 317.625 373.742 317.625 378.209 316.136C372.254 316.136 366.724 312.52 365.66 315.072ZM358.96 316.455C357.259 319.539 367.043 319.752 370.127 318.263C364.597 317.518 360.343 314.009 358.96 316.455ZM370.339 311.244C373.423 313.158 373.211 307.415 375.657 303.481C371.828 306.99 368.212 309.436 370.339 311.244Z" fill="white" stroke="#BD6B00" stroke-width="0.53173"/>
<path fill-rule="evenodd" clip-rule="evenodd" d="M364.809 313.371C367.361 315.604 369.488 307.734 371.828 303.268C367.999 307.522 362.469 311.456 364.809 313.264V313.371ZM357.577 315.498C359.704 318.05 366.085 308.053 368.425 302.736C364.915 306.884 355.876 313.371 357.577 315.498ZM363.745 323.155C364.809 326.983 380.973 319.539 382.888 315.604C373.529 320.496 363.533 319.432 363.745 323.048V323.155ZM415.536 244.671C415.961 244.139 417.025 244.671 416.812 245.841C416.493 247.436 414.153 255.625 410.112 258.39C407.241 260.517 392.033 263.814 385.227 265.302C381.47 266.011 378.315 267.89 375.762 270.939C376.636 267.409 377.701 263.93 378.953 260.517C380.229 257.326 383.632 253.923 387.248 253.817C393.735 253.498 402.243 252.966 408.517 250.308C411.359 249.109 413.822 247.161 415.642 244.671H415.536Z" fill="white" stroke="#BD6B00" stroke-width="0.53173"/>
<path fill-rule="evenodd" clip-rule="evenodd" d="M377.997 277.107C375.87 278.596 373.637 273.172 376.189 267.961C376.295 272.959 380.23 274.661 377.997 277.107Z" fill="white" stroke="#BD6B00" stroke-width="0.53173"/>
<path fill-rule="evenodd" clip-rule="evenodd" d="M375.977 282.105C373.106 282.956 372.255 277.851 374.063 273.81C373.744 278.17 378.636 280.829 375.977 282.105Z" fill="white" stroke="#BD6B00" stroke-width="0.53173"/>
<path fill-rule="evenodd" clip-rule="evenodd" d="M373.743 286.146C370.978 287.529 370.021 282.318 371.935 278.596C371.722 283.381 375.87 284.87 373.743 286.04V286.146Z" fill="white" stroke="#BD6B00" stroke-width="0.53173"/>
<path fill-rule="evenodd" clip-rule="evenodd" d="M374.912 286.465C375.976 289.656 382.356 283.594 383.42 280.297C379.485 284.232 374.168 283.7 374.912 286.359V286.465Z" fill="white" stroke="#BD6B00" stroke-width="0.53173"/>
<path fill-rule="evenodd" clip-rule="evenodd" d="M377.784 281.467C379.06 284.657 387.036 276.15 388.844 272.215C384.909 276.15 376.933 279.127 377.784 281.361V281.467Z" fill="white" stroke="#BD6B00" stroke-width="0.53173"/>
<path fill-rule="evenodd" clip-rule="evenodd" d="M379.38 276.469C380.656 280.191 389.27 270.301 391.822 266.791C387.568 270.62 378.423 273.81 379.38 276.469ZM379.699 272.853C376.508 272.215 379.805 269.663 383.634 265.515C383.74 269.875 383.102 272.959 379.699 272.853Z" fill="white" stroke="#BD6B00" stroke-width="0.53173"/>
<path fill-rule="evenodd" clip-rule="evenodd" d="M384.909 270.301C383.526 268.918 386.079 268.28 389.269 264.664C389.801 267.11 386.291 271.577 384.803 270.301H384.909ZM370.02 286.465C368.319 287.529 367.255 284.019 369.276 280.935C369.808 284.338 371.509 285.189 370.02 286.465ZM406.391 264.877C409.9 267.004 415.537 258.496 417.025 254.987C413.941 259.028 405.753 262.644 406.391 264.877Z" fill="white" stroke="#BD6B00" stroke-width="0.53173"/>
<path fill-rule="evenodd" clip-rule="evenodd" d="M403.307 269.769C405.328 271.896 411.496 266.047 413.623 263.069C410.433 265.94 402.457 266.259 403.307 269.769Z" fill="white" stroke="#BD6B00" stroke-width="0.53173"/>
<path fill-rule="evenodd" clip-rule="evenodd" d="M400.011 274.235C400.649 277.213 409.582 270.513 411.709 267.323C407.881 271.045 399.373 270.726 400.011 274.235Z" fill="white" stroke="#BD6B00" stroke-width="0.53173"/>
<path fill-rule="evenodd" clip-rule="evenodd" d="M401.394 277.532C402.776 280.191 410.114 273.491 411.922 270.088C407.349 273.916 400.224 274.874 401.287 277.532H401.394ZM405.116 264.452C402.882 262.006 403.84 260.836 405.541 257.007C406.392 260.942 407.774 262.537 405.116 264.452ZM402.032 269.024C397.778 269.237 402.032 264.133 403.095 259.772C402.67 264.664 404.159 268.599 402.032 269.024Z" fill="white" stroke="#BD6B00" stroke-width="0.53173"/>
<path fill-rule="evenodd" clip-rule="evenodd" d="M399.372 273.066C396.501 272.428 397.245 268.28 399.585 263.282C399.053 268.705 402.031 271.789 399.372 273.066ZM400.436 281.254C401.499 284.445 409.794 277 411.07 274.023C406.816 277.638 399.691 278.808 400.436 281.254Z" fill="white" stroke="#BD6B00" stroke-width="0.53173"/>
<path fill-rule="evenodd" clip-rule="evenodd" d="M395.437 286.359C396.607 289.549 405.328 282.956 407.986 279.34C402.775 283.594 394.799 283.168 395.437 286.359Z" fill="white" stroke="#BD6B00" stroke-width="0.53173"/>
<path fill-rule="evenodd" clip-rule="evenodd" d="M390.333 291.57C391.715 296.143 400.861 288.805 403.52 285.189C397.777 289.656 389.695 288.379 390.333 291.57ZM398.84 279.872C396.394 281.042 395.437 274.129 396.82 269.131C396.82 274.448 401.818 278.489 398.947 279.765L398.84 279.872Z" fill="white" stroke="#BD6B00" stroke-width="0.53173"/>
<path fill-rule="evenodd" clip-rule="evenodd" d="M394.694 285.402C391.716 286.253 392.567 278.702 395.226 273.704C395.545 278.702 397.672 283.275 394.694 285.402ZM389.377 290.613C386.186 290.719 388.313 284.126 391.078 280.403C390.653 285.189 392.142 289.975 389.377 290.613ZM395.226 293.378C396.289 295.079 398.629 291.995 402.67 289.656C399.054 290.719 394.8 291.783 395.226 293.378ZM397.14 237.333C393.95 234.994 396.396 230.74 397.14 226.699C398.203 230.527 400.756 235.632 397.14 237.333ZM397.14 242.97C401.926 242.438 401.181 236.483 401.394 232.654C399.905 237.865 396.076 238.716 397.14 243.076V242.97ZM396.502 242.225C392.567 242.013 392.78 237.546 392.567 233.08C394.588 237.227 396.821 237.865 396.502 242.225Z" fill="white" stroke="#BD6B00" stroke-width="0.53173"/>
<path fill-rule="evenodd" clip-rule="evenodd" d="M396.607 247.755C399.797 248.074 401.286 244.99 401.924 240.311C399.052 244.671 396.5 243.289 396.607 247.755ZM395.543 247.436C391.608 247.968 392.353 243.395 392.353 239.992C393.629 243.182 396.819 244.246 395.543 247.436Z" fill="white" stroke="#BD6B00" stroke-width="0.53173"/>
<path fill-rule="evenodd" clip-rule="evenodd" d="M401.711 245.522C401.392 248.5 399.478 253.604 396.394 252.434C395.224 248.819 399.159 248.074 401.711 245.522Z" fill="white" stroke="#BD6B00" stroke-width="0.53173"/>
<path fill-rule="evenodd" clip-rule="evenodd" d="M395.545 252.754C396.821 250.201 392.354 248.819 391.503 245.416C390.972 250.308 391.397 253.498 395.545 252.86V252.754ZM408.2 221.7C405.754 219.148 407.881 214.894 408.625 210.853C409.689 214.682 411.284 219.786 408.2 221.7ZM408.2 226.592C412.454 227.124 413.517 218.404 414.049 214.575C412.56 219.786 407.668 222.02 408.2 226.699V226.592ZM407.349 226.592C404.371 224.997 405.009 221.594 404.159 219.148C406.073 222.232 407.987 222.658 407.349 226.592Z" fill="white" stroke="#BD6B00" stroke-width="0.53173"/>
<path fill-rule="evenodd" clip-rule="evenodd" d="M408.306 232.335C412.666 232.654 415.324 222.977 415.537 219.148C414.155 224.359 407.667 227.124 408.199 232.335H408.306ZM407.348 232.122C403.095 231.165 403.626 228.4 404.264 224.04C405.647 228.507 407.987 227.55 407.348 232.122Z" fill="white" stroke="#BD6B00" stroke-width="0.53173"/>
<path fill-rule="evenodd" clip-rule="evenodd" d="M408.305 237.865C413.197 238.716 412.878 230.846 416.812 225.21C413.409 229.464 407.241 234.781 408.305 237.865ZM407.241 237.546C403.413 237.759 402.988 232.122 403.2 229.783C404.157 232.122 408.518 234.249 407.135 237.652L407.241 237.546Z" fill="white" stroke="#BD6B00" stroke-width="0.53173"/>
<path fill-rule="evenodd" clip-rule="evenodd" d="M415.963 231.803C414.155 237.865 411.496 243.927 408.306 243.501C406.711 239.992 411.39 239.567 415.963 231.803Z" fill="white" stroke="#BD6B00" stroke-width="0.53173"/>
<path fill-rule="evenodd" clip-rule="evenodd" d="M407.135 242.544C408.411 239.886 403.945 238.61 403.094 235.206C402.562 240.098 402.987 243.289 407.135 242.544ZM414.686 238.716C412.027 244.139 410.857 250.414 407.241 249.457C405.859 245.203 411.282 244.352 414.686 238.716Z" fill="white" stroke="#BD6B00" stroke-width="0.53173"/>
<path fill-rule="evenodd" clip-rule="evenodd" d="M406.497 248.5C408.093 245.522 403.626 244.565 402.456 240.63C401.925 245.735 402.456 249.457 406.497 248.393V248.5ZM398.84 211.81C396.288 212.448 393.523 209.577 394.48 205.217C397.458 205.855 398.734 208.62 398.84 211.81ZM407.242 209.577C407.029 210.853 405.434 210.96 405.966 209.152C406.388 207.983 406.388 206.704 405.966 205.536C405.487 203.94 405.487 202.239 405.966 200.644C406.391 199.581 407.88 200.219 407.242 201.069C406.604 201.92 406.497 204.047 407.029 205.004C407.525 206.564 407.596 208.088 407.242 209.577ZM382.889 226.592C383.952 227.975 385.973 227.018 384.377 224.997C383.101 223.402 381.187 222.02 381.187 220.318C380.974 218.191 379.805 215.001 378.635 213.831C377.465 212.661 376.082 214.256 377.359 215.107C378.741 215.958 379.698 219.786 379.592 221.275C379.698 223.402 381.719 224.997 382.889 226.592ZM386.079 224.146C387.142 225.635 388.631 224.678 387.781 222.339C387.036 220.743 386.93 218.616 386.079 217.447C384.803 215.639 382.889 214.15 381.719 212.98C380.443 211.917 379.592 212.98 380.655 214.044C381.959 215.346 383.134 216.77 384.165 218.297C385.654 220.637 385.016 222.551 386.079 224.146ZM402.775 216.49C402.882 218.616 401.18 219.042 401.286 216.064C401.286 212.874 403.626 209.896 402.35 205.111C401.499 202.771 401.499 198.411 401.925 196.177C402.35 193.944 404.051 195.327 403.307 197.135C402.669 199.261 403.413 203.09 403.945 205.111C405.54 210.853 402.669 213.618 402.882 216.49H402.775ZM398.202 204.791C398.415 206.812 400.117 206.918 399.585 204.26C399.16 202.204 399.16 200.325 399.585 198.623C400.223 196.39 400.01 192.562 399.585 190.966C399.053 189.265 397.458 190.222 398.096 191.498C398.832 193.51 398.943 195.697 398.415 197.773C397.777 199.9 397.883 202.877 398.202 204.898V204.791ZM414.792 244.246C413.942 245.203 412.665 244.565 413.729 243.182C414.792 242.119 414.473 241.906 415.111 240.63C415.749 239.141 415.643 238.397 416.388 237.44C417.132 236.376 418.089 237.44 417.451 238.184C416.6 239.248 416.813 239.886 416.388 240.843C415.324 242.438 415.643 243.289 414.792 244.246ZM393.098 270.407C391.82 271.152 390.733 272.184 389.921 273.42C389.109 274.656 388.595 276.064 388.419 277.532C388.307 280.18 387.579 282.766 386.292 285.083C388.419 284.551 389.482 281.148 389.801 277.851C390.12 274.448 391.928 273.066 392.991 270.407H393.098ZM387.674 276.681C385.866 279.978 383.42 281.254 383.208 283.7C382.995 286.572 382.782 286.678 382.038 289.443C384.165 288.911 384.696 288.698 385.228 284.445C385.547 281.467 387.993 279.446 387.674 276.681Z" fill="white" stroke="#BD6B00" stroke-width="0.53173"/>
<path fill-rule="evenodd" clip-rule="evenodd" d="M331.737 307.309C330.673 309.223 329.61 312.095 327.483 311.563C327.483 310.18 329.716 309.117 331.737 307.309ZM328.546 307.947C324.611 309.649 321.102 309.223 320.57 311.776C324.399 312.201 325.888 310.712 328.653 307.947H328.546ZM345.668 294.441C343.025 296.495 341.152 299.38 340.351 302.63C339.493 305.57 338.203 308.365 336.522 310.925C339.288 309.067 341.289 306.272 342.159 303.055C342.903 299.865 343.86 297.419 345.668 294.547V294.441ZM342.371 294.441C339.394 296.781 336.629 299.546 335.778 302.842C334.927 305.927 334.395 308.266 332.375 311.35C335.565 309.33 336.735 306.352 337.692 303.055C338.436 299.865 340.351 297.525 342.371 294.547V294.441ZM332.587 302.204C332.653 301.937 332.612 301.654 332.473 301.416C332.334 301.178 332.108 301.003 331.843 300.928L329.078 300.077C328.015 299.758 327.376 300.503 327.376 301.035V303.162C327.376 303.8 327.625 304.119 328.121 304.119C328.972 304.119 329.822 304.367 330.673 304.863C331.382 305.218 331.914 305.04 332.268 304.331L332.587 302.204ZM321.315 302.204C321.315 301.495 321.527 301.07 321.953 300.928C322.756 300.578 323.632 300.432 324.505 300.503C325.427 300.503 325.817 300.716 325.675 301.141V303.374C325.675 304.225 325.675 304.225 325.25 304.438C324.328 304.367 323.442 304.579 322.591 305.076C321.953 305.359 321.563 305.147 321.421 304.438L321.315 302.204Z" fill="white"/>
<path fill-rule="evenodd" clip-rule="evenodd" d="M350.347 332.088C350.276 333.364 350.63 334.463 351.41 335.384C346.545 333.915 341.305 334.333 336.735 336.554C334.82 337.405 332.481 335.491 334.714 333.683C337.904 331.237 345.03 332.619 350.347 332.088ZM289.198 332.088C289.29 333.169 289.145 334.258 288.772 335.278C293.452 333.47 298.45 335.065 303.236 336.98C306.426 338.362 306.745 335.916 306.213 335.172C305.598 334.309 304.805 333.587 303.888 333.055C302.971 332.523 301.951 332.193 300.896 332.088H289.198ZM293.239 309.011C291.821 308.514 290.403 309.011 288.985 310.499C284.412 314.966 278.989 319.326 274.628 322.836C273.033 324.218 271.438 326.77 278.244 329.216C278.563 329.429 283.562 331.343 286.752 331.343C288.134 331.343 288.134 333.257 287.815 333.789C287.284 334.853 287.709 335.278 286.646 336.235C285.476 337.299 286.646 338.468 287.709 337.618C291.537 334.215 297.918 336.448 303.98 338.362C305.469 338.787 308.021 338.681 308.021 336.661C308.021 334.64 309.616 333.045 310.573 332.938C313.126 333.364 325.462 333.47 329.184 333.045C331.311 332.726 331.524 336.129 332.693 337.299C333.544 338.256 336.628 338.468 338.861 337.511C343.115 335.597 349.496 335.597 352.155 337.511C353.218 338.256 354.175 337.511 353.537 336.767C352.686 335.703 352.793 335.065 352.367 334.215C351.304 332.088 352.155 331.662 353.218 331.556C364.916 329.961 368.745 326.026 365.129 322.729C360.45 318.688 355.345 314.541 350.879 309.755C349.602 308.479 348.752 307.947 346.306 309.011C337.832 312.837 328.692 314.969 319.4 315.285C310.397 314.704 301.554 312.619 293.239 309.117V309.011Z" fill="white"/>
<path fill-rule="evenodd" clip-rule="evenodd" d="M348.326 309.649L346.624 310.074C337.053 313.477 328.333 315.817 319.293 315.817C310.466 315.817 301.214 313.264 292.813 309.861C292.301 309.654 291.729 309.654 291.218 309.861C290.651 310.003 290.19 310.251 289.835 310.606C285.904 314.536 281.711 318.195 277.286 321.559C276.542 322.091 276.648 323.474 277.818 323.899C286.645 327.089 295.259 332.938 319.931 332.726C344.923 332.513 353.749 326.77 361.619 324.112C362.186 323.899 362.647 323.545 363.001 323.048L363.108 322.197L362.47 321.347C357.897 317.625 353.111 314.647 349.921 310.287C349.566 309.79 349.035 309.613 348.326 309.755V309.649ZM348.326 310.18C348.964 310.18 349.354 310.287 349.495 310.499C352.686 315.072 357.684 317.944 362.151 321.666L362.576 322.41V322.836C362.363 323.19 362.009 323.438 361.513 323.58C353.43 326.345 344.816 332.088 320.038 332.3C295.365 332.513 286.858 326.664 278.031 323.474C277.18 323.048 277.287 322.197 277.606 321.985C282.143 318.511 286.326 314.824 290.154 310.925L291.324 310.287H292.6C301.005 313.938 310.027 315.959 319.187 316.242C328.439 316.242 337.266 313.902 346.837 310.606L348.432 310.18H348.326Z" fill="#BD6B00"/>
<path fill-rule="evenodd" clip-rule="evenodd" d="M287.815 149.173C287.815 147.684 289.942 147.577 289.73 149.598C289.411 152.044 294.515 158.425 294.941 162.359C295.26 165.018 293.345 167.251 291.537 168.74C290.477 169.438 289.256 169.853 287.991 169.946C286.725 170.039 285.457 169.807 284.306 169.272C283.349 168.421 282.498 165.762 283.242 164.699C283.455 164.38 284.625 168.634 287.177 168.634C290.687 168.634 293.558 165.975 293.558 163.636C293.771 159.594 287.922 153.214 287.815 149.173ZM297.918 159.169C298.556 158.744 299.407 160.552 298.769 160.977C298.131 161.402 297.174 159.594 297.918 159.063V159.169ZM299.513 155.447C299.194 155.66 298.663 155.447 298.769 155.234C299.791 153.814 301.094 152.62 302.597 151.725C303.023 151.512 303.661 152.15 303.448 152.469C302.363 153.73 301.022 154.745 299.513 155.447ZM312.913 144.812C313.232 144.174 315.146 143.43 315.678 143.004C316.103 142.473 316.316 143.43 316.103 143.749C315.784 144.493 314.083 145.557 313.338 145.663C312.913 145.592 312.771 145.344 312.913 144.919V144.812ZM317.486 145.131C318.032 143.71 318.951 142.461 320.145 141.516C320.676 141.197 321.527 141.516 321.314 141.941C320.592 143.348 319.532 144.553 318.23 145.45C317.911 145.769 317.38 145.45 317.486 145.131ZM313.551 148.003C313.338 148.357 313.374 148.641 313.657 148.853C314.366 149.066 315.075 149.066 315.784 148.853C316.422 148.428 316.103 145.769 315.253 147.152C314.615 148.003 314.189 147.79 313.551 148.003ZM305.788 153.958C304.405 152.895 306.213 151.406 307.596 152.469C310.467 154.596 303.342 162.891 299.513 166.72C298.769 167.464 298.131 165.656 299.088 164.699C301.853 162.376 304.255 159.652 306.213 156.617C306.639 156.085 306.958 154.915 305.788 153.958ZM322.059 146.939C322.165 145.876 320.357 146.939 320.357 145.557C320.357 144.812 322.378 144.281 323.229 145.131C324.611 146.62 323.548 149.066 321.102 149.279C319.187 149.279 315.784 152.15 316.316 152.682C316.848 153.426 322.059 153.852 325.143 153.426C327.057 153.107 326.632 154.809 324.717 155.022C322.803 155.234 321.314 155.022 319.613 155.66C317.486 156.191 316.635 158.85 315.465 159.913C315.253 160.126 314.615 159.063 314.827 158.637C315.678 157.361 316.954 155.447 318.443 154.809C319.294 154.49 315.891 154.383 314.827 154.064C313.976 153.852 314.189 152.682 314.508 152.044C314.934 151.193 318.124 147.896 319.506 148.003C320.676 148.003 321.952 147.684 322.059 146.939ZM327.376 147.152L328.971 145.238C329.29 144.919 329.928 145.238 329.822 146.088C329.716 146.833 328.759 147.365 328.227 147.896C327.695 148.215 327.163 147.471 327.482 147.152H327.376ZM334.289 144.706C335.246 144.706 335.352 146.408 334.501 146.62C333.863 146.833 333.438 144.812 334.289 144.706ZM332.055 150.023C332.055 151.618 332.8 151.512 334.182 151.406C335.565 151.299 336.735 151.406 336.735 150.13C336.735 148.747 335.99 147.471 335.671 148.428C335.565 149.279 335.352 150.768 334.82 150.13C334.395 149.598 334.608 149.492 333.757 150.342C333.225 150.874 333.225 150.13 332.906 149.704C332.693 149.385 332.055 149.917 332.055 150.13V150.023ZM322.271 157.68C321.952 159.701 322.271 162.466 323.229 162.466C324.505 162.466 327.057 158.212 328.333 155.872C329.078 154.596 330.247 154.383 329.716 155.766C328.971 157.787 329.078 162.147 329.716 163.423C330.141 164.061 332.906 162.785 333.331 161.828C334.182 160.02 333.438 156.723 333.757 154.703C333.863 153.426 335.139 153.107 335.033 154.383L334.927 162.359C334.927 163.423 338.011 164.912 338.436 161.721C338.649 159.807 339.712 157.787 338.436 155.66C337.585 154.277 339.606 154.383 340.669 156.298C341.414 157.574 340.031 159.701 340.138 161.296C340.138 163.848 338.223 165.337 336.841 165.337C335.565 165.337 334.714 163.742 333.65 163.742C332.587 163.742 331.311 165.55 330.46 165.443C326.632 165.231 328.652 159.807 327.482 159.701C326.206 159.701 324.824 165.018 323.229 164.912C321.74 164.699 320.038 160.445 320.783 158.744C321.314 157.042 322.378 156.617 322.271 157.68ZM340.244 149.173C338.436 148.109 340.244 145.238 341.201 146.195C342.903 148.322 344.604 153.107 345.88 153.533C346.625 153.745 346.518 149.917 347.05 148.215C347.475 146.833 348.964 147.258 348.752 148.96C348.645 149.492 346.625 155.766 346.837 155.979C348.254 158.632 349.429 161.409 350.347 164.274C350.666 165.55 349.177 164.699 348.964 164.486C348.007 162.997 346.412 157.574 346.412 157.893L344.604 166.082C344.391 167.145 342.796 166.932 343.222 165.018C343.541 163.529 345.668 156.191 345.561 155.872C344.35 153.246 342.527 150.948 340.244 149.173Z" fill="white"/>
<path fill-rule="evenodd" clip-rule="evenodd" d="M343.434 166.826C343.008 166.826 342.158 167.889 344.71 168.421C348.007 169.059 351.729 167.889 352.792 164.593C354.175 160.658 354.919 156.936 355.663 155.553C356.514 153.958 357.578 154.064 356.727 151.725C356.195 149.917 355.132 150.449 354.919 151.406C354.387 153.852 352.154 162.04 351.41 163.423C350.133 166.117 347.475 167.251 343.434 166.826Z" fill="white"/>
<path fill-rule="evenodd" clip-rule="evenodd" d="M350.24 153.852C349.814 153.107 348.963 153.852 349.176 154.596C349.173 154.756 349.206 154.914 349.272 155.059C349.338 155.204 349.436 155.333 349.559 155.435C349.681 155.537 349.825 155.61 349.98 155.649C350.135 155.688 350.296 155.692 350.452 155.66C351.197 155.66 352.792 155.766 352.792 154.596C352.792 153.745 352.048 153.001 351.622 153.958C351.055 154.738 350.594 154.738 350.24 153.958V153.852ZM350.984 150.661C350.771 150.874 350.984 151.831 351.303 151.725C352.525 151.734 353.73 151.441 354.813 150.874C355.025 150.661 354.919 150.13 354.6 150.13C353.536 150.13 351.835 150.13 350.984 150.661ZM360.342 153.107C361.193 151.831 363.32 151.725 362.469 153.533L355.77 166.613C354.919 168.102 354.281 167.358 354.919 166.188C355.663 164.699 360.13 153.426 360.342 153.107Z" fill="white"/>
<path fill-rule="evenodd" clip-rule="evenodd" d="M352.155 168.74C351.942 167.889 350.559 166.613 350.772 168.953C350.985 172.994 356.621 171.718 358.216 170.335C359.812 168.953 358.535 174.908 360.556 175.546C361.619 175.865 363.746 174.377 364.81 172.994C367.681 169.272 369.595 163.848 372.254 160.232C373.318 158.744 371.722 157.68 371.191 158.85C368.638 162.891 365.661 171.186 362.364 173.313C359.705 175.015 360.556 171.186 360.45 169.91C360.343 169.059 359.28 167.783 357.897 168.953C356.764 169.803 355.379 170.252 353.963 170.229C353.218 170.229 352.474 170.229 352.155 168.74Z" fill="white"/>
<path fill-rule="evenodd" clip-rule="evenodd" d="M362.151 161.296C362.151 160.977 360.981 160.871 361.088 162.04C361.088 162.891 362.151 163.104 362.257 163.104C363.853 161.828 361.938 162.466 362.151 161.19V161.296ZM359.705 165.975C359.386 165.975 359.067 167.039 359.918 167.145L364.065 166.932C364.491 166.932 364.703 165.975 363.64 166.082C362.364 166.082 360.768 165.762 359.705 166.082V165.975ZM293.771 148.322C294.302 148.322 295.472 149.811 295.366 150.342C295.366 150.555 294.09 150.342 293.771 150.023C293.451 149.704 293.558 148.322 293.771 148.322ZM288.134 159.382C287.071 160.02 288.347 161.19 289.198 160.658C292.175 158.637 296.642 156.617 297.705 152.682C298.024 151.406 299.194 149.385 300.364 148.96C301.427 148.428 303.129 150.98 304.192 148.96C304.831 147.896 307.064 149.704 307.595 148.534C308.234 147.152 307.915 146.408 307.915 144.919C307.915 144.068 307.17 143.855 306.638 145.238L306.532 146.939C306.248 147.223 305.894 147.294 305.469 147.152C305.256 146.939 305.469 146.408 304.831 146.088C304.547 146.018 304.263 146.088 303.98 146.301C303.235 147.684 302.916 148.96 301.746 147.365C300.789 146.301 300.258 144.068 299.62 147.046C299.407 148.109 297.812 149.598 296.855 149.598C295.685 149.598 296.004 146.408 293.451 146.939C292.069 147.258 292.175 149.811 292.388 150.661C292.707 152.044 296.642 151.087 296.323 151.938C295.685 154.809 291.644 157.68 288.134 159.382ZM263.994 173.419C263.887 173.951 264.525 175.227 265.163 175.334C265.802 175.334 266.227 173.951 266.014 173.419C265.802 173.1 264.1 173.1 263.994 173.419ZM267.503 178.63C267.078 178.205 265.802 179.375 266.865 180.226C267.397 180.757 269.524 181.395 270.055 180.438C270.906 179.162 269.311 174.589 270.055 174.057C270.587 173.526 273.033 177.035 274.309 177.248C277.181 177.673 276.436 172.356 279.627 172.781C281.647 172.994 281.86 170.442 281.541 168.74C281.328 167.145 278.776 164.912 277.606 163.848C276.117 162.572 275.373 164.912 276.33 165.55C277.606 166.613 279.839 168.634 280.158 169.91C280.265 170.548 278.669 171.824 278.031 171.505C276.542 170.654 275.266 167.251 273.99 166.507C273.565 166.294 272.501 166.826 272.927 167.889C273.565 169.059 276.117 170.761 276.223 172.037C276.33 173.1 275.16 175.44 274.309 175.44C273.458 175.44 271.119 172.569 270.374 171.186C269.949 170.654 268.779 170.654 268.567 171.612C268.497 173.576 268.676 175.541 269.098 177.461C269.311 179.162 268.141 179.268 267.503 178.63ZM263.249 169.485C262.824 169.91 264.1 170.761 264.313 170.548C264.738 170.123 266.546 168.102 266.227 167.358C265.908 166.72 263.462 165.231 263.037 165.975C262.292 167.145 265.376 167.783 264.844 168.102L263.249 169.485ZM267.609 160.552C267.609 160.552 268.46 163.21 269.098 162.04C269.524 161.296 267.609 160.552 267.609 160.552ZM268.886 164.805C268.673 164.805 267.822 165.55 268.354 165.869C269.205 166.294 271.438 166.72 270.906 165.124C270.587 164.167 274.309 165.124 273.352 162.572C272.949 161.798 272.318 161.167 271.544 160.764C271.119 160.764 269.949 161.296 270.693 161.721C271.225 161.934 272.82 162.891 272.289 163.529C271.544 164.167 271.119 163.21 270.268 163.423C269.843 163.423 270.162 164.699 269.843 165.018C269.843 165.231 269.098 164.593 268.886 164.699V164.805ZM274.735 154.703C274.107 155.269 273.663 156.009 273.458 156.829C273.529 157.184 273.707 157.361 273.99 157.361C274.661 156.878 275.119 156.154 275.266 155.341C275.266 155.022 275.054 154.49 274.735 154.703ZM277.712 154.383C276.862 153.32 278.776 151.618 279.52 153.852C280.052 155.234 285.369 162.253 286.433 164.593C287.283 166.188 286.433 166.826 285.476 165.656C282.817 162.253 280.584 157.999 277.712 154.383ZM283.242 154.49C284.199 153.426 286.114 151.299 285.582 150.236C285.05 149.173 283.987 149.173 283.774 149.492C282.711 150.874 284.625 150.555 284.306 150.98C283.739 151.902 283.278 152.824 282.923 153.745C282.817 154.064 283.03 154.703 283.242 154.49ZM365.979 157.893C365.235 157.361 366.618 154.703 367.575 155.766C370.021 158.637 371.19 168.102 371.935 175.227C371.935 175.227 370.871 176.184 370.871 175.972C370.871 172.25 369.276 160.658 365.979 157.893ZM309.51 148.747C308.659 146.833 310.68 146.195 310.999 147.471C312.381 153.639 315.784 158.318 318.443 162.466C319.187 163.742 318.443 164.593 316.635 163.317C315.359 162.466 313.976 159.169 313.445 159.063C312.168 158.85 309.403 164.38 303.767 162.785C302.278 162.359 302.385 157.999 302.278 156.085C302.278 155.128 303.342 155.022 303.342 156.085C303.342 157.893 303.342 161.615 305.575 161.828C307.489 161.828 311.53 159.275 312.381 157.148C313.232 155.022 310.361 150.874 309.51 148.641V148.747Z" fill="white"/>
<path fill-rule="evenodd" clip-rule="evenodd" d="M367.468 174.483C367.893 173.207 373.955 162.997 374.806 160.764C375.231 159.701 376.932 162.678 375.231 164.274C373.742 165.55 369.382 172.781 368.531 175.334C368.106 176.397 367.042 175.865 367.468 174.483Z" fill="white"/>
<path fill-rule="evenodd" clip-rule="evenodd" d="M377.784 164.805C378.847 160.552 381.612 165.443 379.166 167.783C375.551 171.399 374.381 178.311 368.532 179.375C367.043 179.694 364.278 178.63 363.427 177.992C363.108 177.78 363.64 176.291 364.597 177.035C365.979 178.099 368.957 178.418 370.552 177.141C374.044 173.767 376.545 169.501 377.784 164.805ZM317.167 178.311C316.848 178.63 316.103 178.63 315.997 179.056C315.678 180.545 315.997 181.395 315.678 182.884C315.359 184.373 314.295 184.373 314.402 183.203C314.402 181.714 315.784 179.481 314.827 179.375C314.189 179.268 313.764 178.418 314.402 177.992C315.465 177.354 316.316 177.212 316.954 177.567C317.308 177.78 317.379 178.028 317.167 178.311Z" fill="white"/>
<path fill-rule="evenodd" clip-rule="evenodd" d="M316.316 176.184C314.827 177.673 313.339 178.205 311.956 179.907C311.318 180.545 311.424 181.502 310.999 182.459C310.68 183.416 309.51 183.522 309.191 183.416C308.659 182.991 308.766 181.289 308.128 182.14C307.49 182.991 307.17 184.267 306.32 184.267C305.469 184.267 304.193 182.672 304.937 182.672C307.383 182.352 307.277 180.545 308.128 180.332C309.191 180.226 309.191 181.927 309.935 181.608C310.361 181.395 310.68 179.375 311.212 178.843C312.807 177.142 314.083 176.291 315.785 175.015C316.529 174.377 317.167 175.546 316.316 176.291V176.184ZM321.953 181.502C320.676 181.714 320.889 183.31 321.315 183.416C321.846 183.735 322.803 183.841 323.122 182.033C323.335 181.289 323.441 185.756 325.037 184.054C326.1 182.991 328.333 184.267 329.29 182.991C330.035 182.033 330.354 181.395 329.716 180.119C329.503 179.8 328.652 179.907 328.652 180.864C328.652 181.821 328.121 182.672 327.27 182.565C326.844 182.459 327.483 180.545 327.057 180.013H326.313C325.994 180.438 326.632 182.352 325.675 182.565C324.399 182.778 325.037 181.289 324.611 181.076C322.803 180.226 322.697 181.289 321.953 181.395V181.502ZM331.524 178.311C332.481 178.099 332.162 178.099 333.651 176.929C334.182 176.503 334.289 177.78 334.182 178.311C334.182 179.056 333.119 178.524 332.8 179.268C332.374 180.226 332.587 182.459 332.374 183.31C332.374 183.735 331.524 183.735 331.524 183.31C331.311 182.246 331.63 181.183 331.524 179.8C331.524 179.375 330.992 178.63 331.524 178.418V178.311ZM326.206 175.653L325.994 178.099C325.994 178.63 327.057 178.311 327.057 178.205C327.057 177.354 327.27 176.078 327.057 175.759C326.703 175.546 326.419 175.511 326.206 175.653Z" fill="white"/>
<path fill-rule="evenodd" clip-rule="evenodd" d="M319.507 165.762L318.018 171.718L315.891 167.677V171.824L311.212 166.294L312.807 172.25L308.554 168.634L310.893 172.675L303.449 167.889L308.128 173.419L302.173 170.442L306.427 174.057L296.855 170.442L306.108 175.015C310.311 173.101 314.89 172.156 319.507 172.25C324.824 172.32 329.256 173.242 332.8 175.015L342.159 170.442L332.588 174.057L336.842 170.442L330.993 173.419L335.565 167.889L328.121 172.675L330.461 168.634L326.207 172.143L327.802 166.294L323.229 171.824V167.677L321.102 171.718L319.507 165.762Z" fill="white"/>
<path d="M311.3 295L311 297.6H310.6L310.5 295.8L310 294.2L309.5 292.9L308.5 291.5L309.3 289.3C309.958 289.99 310.469 290.806 310.8 291.7C311.159 292.728 311.328 293.812 311.3 294.9M318.3 290.7C318.3 291.367 318.133 291.867 317.8 292.2C317.6 292.533 317.167 292.767 316.5 292.9L316.9 294.4V296.4L316.8 297.7H316.4L316.3 296.4L316.1 295.4L315.7 294.4L315 293L314 291.3L314.6 289.3L315.6 290.3C315.867 290.5 316.2 290.6 316.6 290.6C317.4 290.6 317.8 290.167 317.8 289.3H318.2V290.7M324.6 295.5L324.1 297.6C323.7 297.6 323.433 297.367 323.3 296.9L322.9 295.6L322.8 293.9L321.8 294.1C321.333 294.123 320.873 293.981 320.5 293.7C320.327 293.602 320.186 293.455 320.097 293.276C320.008 293.098 319.974 292.898 320 292.7C320 291.767 320.233 291 320.7 290.4C321.233 289.733 321.733 289.367 322.2 289.3C322.667 289.3 323 289.433 323.2 289.7L323.5 290.6V292.6C323.5 293.467 323.6 294.1 323.8 294.5C323.8 294.767 324.067 295.1 324.6 295.5ZM322.6 292C322.6 291.4 322.333 291.133 321.8 291.2L321.2 291.3C321.067 291.367 321 291.467 321 291.6C321 291.933 321.333 292.1 322 292.1L322.6 292ZM331.3 295L331 297.6C330.467 297.267 330 296.6 329.6 295.6L328.3 291.5L326.5 297L325.7 297.7V295.2C326.3 294.533 326.633 294.033 326.7 293.7L327.5 292L328 289.3H328.4L329.3 292C329.5 292.667 329.8 293.2 330.2 293.6L331.2 295" fill="white"/>
<path d="M350.8 319.4C351.2 319.8 351.434 320.2 351.5 320.6L351.9 322.2L351.1 322.3L350.1 320.8L349 319.6L347.3 318.1L345.3 316.4C344.9 316.2 344.7 316.033 344.7 315.9L344.4 315.1L344.2 313.5L346.9 315.7L349.4 317.9L350.8 319.4ZM341.3 313.6L341.1 315.6H338L338.3 313.6H341.3ZM349.7 322.5L342.1 324.8L340.8 322.8L347.3 320.8L346.6 320L345.7 319.4C345.736 319.587 345.717 319.781 345.647 319.958C345.576 320.136 345.456 320.289 345.3 320.4L344.3 321C343.715 321.184 343.086 321.184 342.5 321C341.994 320.941 341.529 320.691 341.2 320.3C340.756 319.651 340.512 318.886 340.5 318.1C340.5 317.1 340.8 316.5 341.4 316.3C342.134 316.1 343.134 316.333 344.4 317C345.58 317.544 346.61 318.368 347.4 319.4L349.7 322.5ZM343.9 318.5L343.1 318.2H342.5L342 318.5V319.1L342.5 319.3H343.1L343.5 319L343.9 318.5ZM335.9 316.9L335.4 318.9L332.2 318.6L332.7 316.6L335.9 316.9ZM343.4 324.6L341.7 325H340L338.5 324.6C338.167 325.133 337.667 325.533 337 325.8L335.4 326.4L334.2 326.7L333.2 324.7L334.3 324.4L335.6 324L336.5 323.5L335.5 323H334.6L334.4 323.3H333.9C333.367 322.5 333.267 321.833 333.6 321.3C334.1 320.5 334.5 320.5 335.6 320.3C336.447 320.071 337.329 320.003 338.2 320.1C339 320.167 339.5 320.467 339.7 321C339.834 321.2 339.9 321.433 339.9 321.7L339.5 322.9H340.6L342.3 322.6L343.4 324.6ZM335.4 326.4L333.8 326.7C333.043 326.855 332.255 326.712 331.6 326.3C330.815 325.598 330.229 324.701 329.9 323.7L329.1 321.5C328.951 321.088 328.669 320.737 328.3 320.5L327.4 320L328 317.9C328.6 318.167 329.067 318.5 329.4 318.9L330.4 320.6L330.9 322.1L332 324.3C332.334 324.567 332.667 324.667 333 324.6L334.7 324.4L335.4 326.4ZM328.4 318.9L327.4 320.8L324.4 320.1L325.4 318.2L328.4 318.9ZM330.2 327.3L322.7 328L322.3 326L328.5 325.3L327.9 324.5L326.9 323.9L327.4 321.9C328.067 322.3 328.6 322.733 329 323.2C329.334 323.733 329.6 324.433 329.8 325.3L330.2 327.3ZM324.2 328.3L322 328.1L320.3 327.6L319 328H315.3L314.1 327.7C313.834 327.5 313.567 327.167 313.3 326.7C312.883 327.143 312.37 327.485 311.8 327.7L310.1 327.8H308.4L308.6 325.7H310.3C311.1 325.767 311.8 325.633 312.4 325.3C312.771 325.162 313.092 324.917 313.323 324.597C313.554 324.277 313.686 323.895 313.7 323.5L314.4 323.6L314.3 324.9C314.3 325.167 314.4 325.4 314.6 325.6C314.867 325.8 315.2 325.9 315.6 325.9H317.1C318.1 325.9 318.767 325.833 319.1 325.7C319.7 325.567 320.034 325.2 320.1 324.6L320.2 324.2C320.2 324.2 320.5 324.2 320.7 324L321.2 323.8V324.5L320.9 325.6L322.9 326.1C322.967 325.9 322.934 325.667 322.8 325.4L322.5 324.8L322.6 324.5L322.9 324.3L323.9 323.4L324.4 324.4V325.4L324.2 328.3ZM312.9 319.6L310.9 320.9L309.6 320L308.2 321L306.3 320L308.1 318.7L309.6 319.5L311.1 318.5L312.9 319.5M309.9 327.7L302.6 326.5L303.4 324.5L309.6 325.5C309.6 325.1 309.534 324.767 309.4 324.5L308.9 323.7L310.5 322C310.9 322.533 311.134 323.067 311.2 323.6C311.267 324.133 311.1 324.833 310.7 325.7L309.9 327.7ZM303.8 326.7L302.2 326.4C301.334 326.2 300.834 325.8 300.7 325.2C300.5 324.6 300.767 323.667 301.5 322.4L302.7 320.4C302.967 319.933 303.067 319.533 303 319.2L302.7 318.5L304.9 316.9C305.167 317.433 305.267 317.9 305.2 318.3C305.2 318.833 304.967 319.433 304.5 320.1L303.7 321.5C303.257 322.166 302.951 322.914 302.8 323.7C302.8 324.1 302.967 324.333 303.3 324.4L304.9 324.8L303.8 326.7ZM300 318.7L297.5 319.8L295.7 318.1L298.3 317.1L300 318.7ZM299 325.3L297.4 326.7L295.7 327.3L293.3 327.2L290.5 326.5C289.218 326.128 288.049 325.44 287.1 324.5C286.5 323.7 286.5 322.967 287.1 322.3C287.663 321.648 288.341 321.106 289.1 320.7C289.834 320.233 291.1 319.7 292.9 319.1L293.3 319.6L290.5 320.8C289.967 321.067 289.534 321.4 289.2 321.8C288.867 322.2 288.934 322.733 289.4 323.4C291.222 324.768 293.423 325.537 295.7 325.6C296.9 325.6 297.667 325.367 298 324.9C298.267 324.633 298.434 324.3 298.5 323.9L298.7 322.3L301.2 320.8L301.1 322.3C300.899 322.905 300.557 323.454 300.1 323.9L299 325.3Z" fill="#BF0000"/>
</g>
<defs>
<clipPath id="clip0_3921_11639">
<rect width="640" height="480" fill="white"/>
</clipPath>
</defs>
</svg>
