<svg width="640" height="480" viewBox="0 0 640 480" fill="none" xmlns="http://www.w3.org/2000/svg">
<g clip-path="url(#clip0_3921_184)">
<path d="M0 0H640V480H0V0Z" fill="#000066"/>
<path d="M-0.599609 240L639.4 0V480L-0.599609 240Z" fill="#BD1021"/>
<path d="M59.6992 240L639.699 25.7002V454.3" fill="white"/>
<path d="M474 270.4C479.1 270.7 479 275.8 479 275.8L497 276.2C499.3 269.9 501.8 270.6 506.2 273.8C508.878 275.619 511.809 277.034 514.9 278C516.6 269 529.4 270.8 529.4 270.8C535 257.8 535.4 257.9 532.1 256.3C530.152 255.292 528.55 253.725 527.5 251.8C524.5 248.1 522.9 242.7 522.5 239.4C522.1 236.1 518.3 241 517.5 240C516.9 239 511.2 239.6 511.2 239.6C512.6 241.1 507.8 240.2 507.8 240.2C508.3 240.6 507.8 241.9 507.8 241.9C507.4 241.3 503.7 240.7 503.7 240.7L502.6 242.3C500.6 241.5 496.6 241.6 496.6 241.6C492.773 241.471 488.99 242.443 485.7 244.4C484.1 245.3 478.3 248.2 473.4 252.9C468.7 257.5 466 256.9 466 256.9C464.6 262.1 453.2 268.4 453.2 268.4C451.4 270 445.6 270.8 442.7 268.4C439.8 266 442.7 261.5 442.7 261.5C443.9 259.5 444.9 259.6 445 252.5C445.1 247.8 450 244 455 238.5C461.3 231.7 470 220.5 470 220.5C470 223.9 471.8 224.5 471.8 224.5C473.5 221 476 218.2 476 218.2C476.2 218.467 476.366 218.6 476.5 218.6L479.5 215C479 214.7 473.5 215 468.5 219.4C463.5 223.8 460.1 222.4 460.1 222.4C456.6 221.2 456.3 218.4 456.3 218.4C453.8 207.5 463.7 199.7 463.7 199.7C450.3 196.5 460 179.4 476.7 172.2C493.4 165 493.1 161.7 493.1 161.7C493.832 162.614 494.438 163.624 494.9 164.7C495 164.7 496.3 162.8 505.9 158.6C515.5 154.3 520.1 150.6 520.1 150.6C521.3 153 521.1 154.6 521.1 154.6C547.4 145.5 573.1 124.4 573.1 124.4C573.9 126.1 573.6 128.8 573.6 128.8C577.8 124.8 593.3 115.6 593.3 115.6C593.363 117.258 592.967 118.901 592.155 120.349C591.344 121.796 590.148 122.99 588.7 123.8L589.5 126.1C594.375 123.049 599.176 119.881 603.9 116.6C608.2 120.3 604.3 126.4 604.3 126.4C605.9 126.1 606.9 124.8 606.9 124.8C608.1 131.2 601 136.8 601 136.8C602.3 136.8 604.3 135.5 604.3 135.5C603 142.5 589.9 150.1 589.9 150.1C591.8 151.9 589.9 154.1 588.3 155.1C586.8 156.1 584 158.4 584.9 159.3C585.8 160.2 591.6 156.1 591.6 156.1C592.6 159 585.1 164.7 585.1 164.7C590.3 165.4 604.7 158.8 604.7 158.8C603.6 164.4 598.1 168.8 591.4 171.3C584.7 173.8 585 174.3 585 174.3C586.2 175.1 595.5 172.5 595.5 172.5C592.7 178.7 583 183 583 183C585.7 185.3 589.3 182.6 593 180.1C597.361 177.354 602.069 175.202 607 173.7C612.3 171.8 616.2 173.2 616.2 173.2C618.98 172.379 621.964 172.592 624.6 173.8C633.3 174.5 634.2 177.7 634.2 177.7C635.2 177.9 635.9 178.3 638.2 180C640.3 181.6 640.2 186.6 640.2 189.2C640 191.6 639.3 191.6 638.9 192.2C638.566 193 638.4 193.833 638.4 194.7C638.4 195.7 636.2 201.6 622.7 201.6H602.4C601.2 201.6 599.9 202.3 599.9 202.3C594.2 205.1 597.2 200.3 590.5 205.9C583.8 211.5 580.3 210.5 580.3 210.5C576.523 214.362 572.406 217.876 568 221C564 223.6 564.7 223.3 568.3 224.8C571.9 226.3 577.1 224.8 577.1 224.8C573.7 227.1 576.1 228.2 576.1 228.2C580.5 225.5 583.3 226.5 583.3 226.5C584.7 230.4 579.5 236.5 579.5 236.5C581.5 236.8 585.3 236.5 585.3 236.5C584.3 239.2 580.7 242.1 577.9 242.9C575.2 243.9 575.6 244.2 576.5 245.9C577.2 247.5 576.6 249.2 576.6 249.2C571.8 245.9 571.6 248.8 571.6 248.8C571.1 252.8 571.2 258.4 571.2 258.4C567.8 256.7 567.7 258.9 567.7 258.9C566.7 262.5 562.6 266.6 562.6 266.6C562.4 264.4 560.4 263.8 560.4 263.8C558.2 268 554.3 270.5 554.3 270.5C553.8 274 554.8 279.1 554.8 279.1C552.2 278.5 551.3 278.5 550.8 279.1C550.5 279.8 551.4 280.1 551.4 280.1L584.8 280.9C585.3 280.9 587.3 281.2 587.3 284.7C587.3 288.4 584.3 288.6 584.3 288.6L547.9 287.7C547.9 287.7 548 288.7 546.1 289.7C544.2 290.7 544.9 288.6 544.4 293.1C543.9 297.6 536.6 292.7 536.6 292.7C535.4 294.5 532.6 296.7 532.6 296.7C530.9 291.7 529.2 290.3 526.6 294.5C524 298.7 531.4 298.1 531.4 298.1C531.4 298.1 574.2 291.8 576.5 291.6C578.8 291.4 581.4 291.5 582.5 294.7C583.6 297.9 577.2 298.5 577.2 298.5L533.2 303.3C532.3 305.9 528.7 305.7 528.7 305.7C529 308.2 526.4 309.7 525.1 310.7C523.7 311.5 519.5 311.2 519.5 311.2C514.5 314.6 511.9 311.9 511.9 311.9C508.6 313.3 506.5 312.7 503.8 311.5C501 310.3 501.3 307 501.3 307L473.5 310C472.7 310.264 471.955 310.671 471.3 311.2C472.3 312.5 469.3 315.5 469.3 315.5C470.2 316 471.8 317.6 472 321C472.2 324.7 467.5 325.3 469.8 328C472.1 330.5 476.5 328.3 481.3 326C486.1 323.7 490.8 324 492.8 324C494.8 324 500.6 325.6 504.2 326.8C507.8 328 509 327.2 509.2 325.4C509.4 323.6 511.1 323.1 511.1 323.1C510.6 324.9 511.6 325.7 511.6 325.7C512.901 325.492 514.154 325.052 515.3 324.4C515.1 325.8 513.3 326.6 513.3 326.6C509.9 328.9 514.7 328.1 514.7 328.1C519.704 326.694 524.918 326.187 530.1 326.6C534.969 328.037 539.745 329.773 544.4 331.8C544.8 330.6 544.5 327.8 544.5 327.8C547.5 328.6 548.7 330.3 548.7 330.3C549.9 329.1 549.1 326.9 549.1 326.9C558.8 332.4 547.1 334.9 544 335.9C540.9 336.9 541 338.2 541 338.2C543.075 337.519 545.223 337.082 547.4 336.9C549.6 336.7 548.8 336.9 553.9 335.9C559.1 334.9 561.7 337.1 561.7 337.1C557.4 337.3 556.2 338.6 556.2 338.6C558.8 340.3 556.2 342 556.2 342C552.4 337 549 342.1 549 342.1C551.21 342.089 553.396 342.568 555.4 343.5L560.8 346.2C564.4 347.8 563.7 346.8 566.4 347.8C569.2 348.8 568.1 351.5 568.1 351.5C567.255 350.098 565.946 349.037 564.4 348.5C564.2 351.5 561.3 352 561.3 352C564.9 348 557.2 346.2 553.5 346.3C549.9 346.3 547.2 348.7 547.2 348.7C554.5 355.6 559.5 353.3 559.5 353.3C558.6 355.8 552.6 354.8 552.6 354.8C555.4 357 555.1 358.4 555.1 358.4C553.6 357 551.1 357.7 545.9 354.4C540.7 350.9 536 352.1 536 352.1C541.2 357.4 534.2 360.7 534.2 360.7C531.6 362.3 535.2 364.2 535.2 364.2C532 364.8 531.6 361.6 531.6 361.6C529.9 361.2 527.4 363.2 527.4 363.2C527.6 360 532 361.6 532 358.2C532.2 354.7 528 352 515.7 353.7C503.4 355.4 499.7 351.5 499.7 351.5C498.7 351.5 498.5 352.5 498.5 352.5C500.5 354.5 501.4 355.3 501.1 356.7C500.7 358 501.7 358.5 501.7 358.5C499.4 358.3 499.3 355.7 499.3 355.7C499.3 356.8 498.8 356.9 498 358C497.2 359.1 498 360.7 498 360.7C497 359.9 495.3 358.9 497 356.4C498.2 354.6 494.3 352.2 494.3 352.2C492.8 350.7 488.7 352.2 488.7 352.2C486.348 352.693 483.913 352.615 481.599 351.971C479.284 351.327 477.158 350.137 475.4 348.5C474.4 348.5 472.5 347.9 472.5 347.9C463.6 351.9 455.8 343.3 455.8 343.3C449.1 344.6 446 341.3 444 338.1C442.82 335.94 441.005 334.194 438.8 333.1C436.2 331.5 433.6 326.9 436.2 324.4C438.2 322.3 437.7 321.8 437.7 321.8C434.2 315.9 443.8 314.1 444 312.6C444.3 310.6 446.3 309.3 448.5 309.2C450.7 309.1 450.7 309.2 452.2 307.8C453.5 306.3 456.2 308.1 456.2 308.1C456.9 307.7 461.7 304 465.9 305.9C470.2 307.8 473.8 306.5 473.8 306.5C476.8 305.8 501.8 302.5 501.8 302.5C503.3 300 504.5 297.1 511.4 295.5C518.3 293.9 523.4 289.5 523.4 289.5C522.2 288.3 520.2 288.3 519.2 288.2C518.1 288.2 516 286.2 516 286.2C514.7 286.8 514 286.5 505 292C496.9 297 496.7 287.2 496.7 287.2H479C478.7 290.9 476 292.4 476 292.4L469.5 292.7C465.9 290.9 465.9 284.5 465.9 284.5C446.5 284.8 435.8 291.7 435.8 291.7C413.8 280.5 396.6 277.9 396.6 277.9C410.688 276.887 424.493 273.436 437.4 267.7C446.04 272.943 455.815 276.03 465.9 276.7C466.4 271.3 470 270 470 270L474 270.4Z" fill="black"/>
<path d="M442.3 314.6C436.8 317.8 437.8 319.6 438.3 320.6C438.8 321.6 438.8 322.6 437.3 324.2C435.8 325.7 435.9 326.2 435.9 326.2C436.2 331.6 439.9 332.8 441.6 334.2C443 335.2 445.2 338.7 445.2 338.7C448.1 342.8 451.1 342.9 453.3 342.9C455.6 342.9 455.3 342.6 454.3 341.6L450.9 338.9C453.122 339.856 455.129 341.251 456.8 343C462.4 349.2 467.6 348.4 469.9 348.2C472.2 348 471.9 346.5 471.9 346.5L469.5 346.1C461 345.3 458.5 339.7 458.5 339.7C462.813 343.505 468.349 345.634 474.1 345.7C476.5 345.6 476.4 346.3 475.8 346.5L473.4 346.3C472.3 346.3 472.3 346.6 472.5 347.1C472.9 347.433 473.8 347.567 475.2 347.5C476.6 347.5 475.5 347.6 479 350.3C482.6 353.1 491.3 350.8 491.3 350.8C485.6 349.5 484.9 346.8 484.9 346.8C477.2 347.8 474.1 343.2 474.1 343.2C472.355 341.849 470.479 340.677 468.5 339.7C467.291 339.161 466.216 338.361 465.352 337.358C464.488 336.356 463.855 335.175 463.5 333.9C464.8 335.7 467.2 337.7 470.2 338.5C473.2 339.3 474 339.7 474 339.7C473.23 339.861 472.43 339.791 471.7 339.5C468.7 338.5 470.4 339.8 470.4 339.8C473.8 342.5 474.7 342.3 474.7 342.3C483.3 343.2 479 339.7 479 339.7C485.2 341.2 486.2 338.9 486.2 338.9C487.5 341.6 492.2 340.6 492.2 340.6C486 343.6 490.7 342.7 490.7 342.7C497 341.6 498.3 343.2 498.3 343.2C499.9 344.7 501.7 344.6 501.7 344.6C501.7 344.6 502.9 344.6 505.2 345C507.6 345.5 511.4 347.5 514.8 347.2C518.3 346.7 518.8 347.8 518.8 347.8C518.2 347.5 516.6 347.3 514 348.5C511.3 349.8 506.6 350.1 499.8 348.5C493 346.9 492.4 347.2 492.4 347.2C493.905 348.166 495.089 349.559 495.8 351.2C496.1 352.4 497.3 352.4 497.3 352.4C497.8 350.9 499.8 350.3 499.8 350.3C501.362 351.408 503.039 352.347 504.8 353.1C505.2 352.4 504.8 351.8 504.8 351.8C507.4 354.3 510.4 353.5 510.4 353.5C511.2 353 511 351.5 511 351.5C512 351.5 512.2 352.1 513 352.7C513.7 353.1 516 352.8 516 352.8C515.2 352.4 514.5 351.1 514.5 351.1C518 348.8 525.5 349.8 525.5 349.8C530.8 350.8 530.2 354.3 530.2 354.3C531.143 354.858 531.987 355.568 532.7 356.4C533.2 355.2 532.7 353.9 532.7 353.9C535.3 355.1 535.7 357.9 535.7 357.9C538.7 354.7 533 351.1 533 351.1C535.7 350.7 538.7 350.9 540.5 351.1C542.935 351.532 545.212 352.602 547.1 354.2C549.2 355.9 553 356.7 553 356.7C552.9 356 550.8 354.7 550.3 354.5C549.8 354.3 549.7 353.6 549.7 353.6C551.6 354 552.8 353.8 552.8 353.8C546.4 349.8 544.7 347.9 544.7 347.9C547.1 348.2 548.5 346.7 548.5 346.7C543.4 346.7 543.1 345.5 543.1 345.5C543.8 345.6 546.2 346.2 549.3 345.6C552.4 345 556.5 345.6 556.5 345.6C554.3 342 545.8 342.6 543 342.8C540.2 343 539.2 342.6 539.2 342.6C539.6 342.4 540.1 342 542.2 341.9C544.4 341.9 546.5 342.1 549 340.3C551.3 338.7 554.7 339.3 554.7 339.3C553.9 337.7 550 337.1 546.7 339.3C543.2 341.4 540.2 340.8 540.2 340.8C545.5 340 547.1 338.1 547.1 338.1C545.5 337.7 544.6 338.2 541.3 338.9C538.1 339.5 537.3 338.4 537.3 338.4C540.8 336.3 543.3 335.4 543.3 335.4C540.3 334.8 537.5 333.4 537.5 333.4C534.3 336.4 531.9 338 525.8 335C519.8 331.8 516.6 332.2 516.6 332.2C518.876 330.906 521.47 330.276 524.086 330.383C526.702 330.489 529.236 331.326 531.4 332.8C535.4 335.1 536.4 333.2 536.4 333.2C535.2 332.5 535.4 331.7 535.4 331.7C545 336.6 549.2 333.7 551.3 332.2C553.4 330.7 550.3 328.8 550.3 328.8C550.1 331.8 546.3 333.4 543.1 332.3C540.1 331.3 537.1 329.9 532.7 328C528.3 326.1 522.7 327.2 517.6 328.2C512.4 329.3 511.7 328.8 511.2 328.4C510.7 328 510.5 326.7 507.8 327.8C505.2 328.9 499 326 495.2 325.1C491.4 324.2 485.1 324.6 479.7 327.6C474.3 330.7 471.5 329.9 469.9 329.2C468.3 328.4 467.2 326.4 469 324.6C470.8 322.8 471 322.3 470.8 319.6C470.6 317 468 315.4 468 315.4C470.4 312.9 471 312.4 470.2 311.4C469.4 310.2 470.6 310.2 472 309.6C473.4 309 472.8 308.9 472.5 308.1C472.2 307.3 471.3 307.5 471.3 307.5C468.2 307.6 466.4 306.7 466.4 306.7C461.2 304.3 456.3 309 456.3 309C453.3 306.7 452.6 308.3 452.1 308.8C451.567 309.4 450.567 309.733 449.1 309.8C447.9 310 446 310.5 445.3 311.7C445.3 311.7 444.7 312.7 445.4 313.7C445.4 313.7 446.2 314.9 444.8 316.4C443.3 317.9 442.8 318.2 443.3 319.7C443.7 321.033 443.6 322.133 443 323C443 323 442.3 322.3 442.5 321.3C442.7 320.3 442.7 319.633 442.5 319.3C442.5 319.3 441 320.7 440.7 321.7C440.7 321.7 440.1 320.1 442.3 318C444.366 316.067 445.167 314.733 444.7 314C444.3 313.4 442.7 314.4 442.4 314.6H442.3Z" fill="#FFC221"/>
<path d="M448.399 338C448.399 338 445.699 336 445.999 333.1C446.299 330.4 446.299 330.1 445.999 329.4C445.999 329.4 445.499 329.7 445.599 330.8C445.699 331.9 445.399 332.9 445.299 333.1C445.299 333.1 443.999 330.8 443.299 330.3C443.299 330.3 443.899 327.9 443.099 326.9C442.432 325.9 441.632 325.633 440.699 326.1C439.499 326.5 438.599 327.6 442.699 330.9C442.699 330.9 444.199 332.2 445.199 334.8C446.199 337.4 447.999 337.8 448.299 338H448.399ZM461.399 330.2C461.399 330.2 461.299 328.7 462.699 325.9C463.201 325.061 463.491 324.113 463.544 323.137C463.596 322.161 463.409 321.187 462.999 320.3C462.699 319.5 462.399 319.8 463.899 318.6C465.599 317.1 463.199 315.2 466.199 312.6C466.199 312.6 467.999 311 468.499 310.3C468.499 310.3 465.499 311.9 463.299 312.8C461.299 313.6 453.699 317.4 455.299 319.9C457.099 322.4 456.899 322.6 456.599 323.7C456.599 323.7 451.999 321.2 453.599 317.3C453.599 317.3 454.399 315.8 456.299 313.9C458.099 312.3 457.099 314.3 460.599 312.2C460.599 312.2 463.299 310.6 464.899 308.3C464.899 308.3 462.899 309.5 462.299 309.7C462.299 309.7 458.299 310.5 456.499 312.2C454.899 313.9 451.399 316.9 452.499 320.2C452.499 320.2 448.499 319.8 447.499 315.5C447.499 315.5 439.899 324.9 455.899 329.3C455.899 329.3 458.899 330.1 461.499 330.3L461.399 330.2Z" fill="black"/>
<path d="M531.599 299C537.599 298 571.999 292.8 575.199 292.5C578.599 292.2 579.899 291.7 581.099 294.5C582.399 297.5 576.299 297.6 576.299 297.6L535.199 302.3C533.199 302.5 532.699 301.7 532.699 301.7L531.199 299.7C531.199 299.7 530.699 299.1 531.599 298.9V299Z" fill="#FFC221"/>
<path d="M447.299 317.7C447.299 317.7 442.899 327 460.299 329.3C460.232 329.234 460.499 328.4 461.099 326.8C461.899 325.3 463.399 322.3 461.899 320.4C460.399 318.5 463.099 319.5 463.399 317C463.899 314.5 463.199 314.8 464.399 313.2C464.399 313.2 458.999 315.2 456.799 317.7C454.799 320.1 459.699 321.9 456.799 324.6C456.799 324.6 454.299 323.6 452.799 321C452.799 321 449.499 321 447.299 317.7Z" fill="#5A3719"/>
<path d="M464.501 329.2C464.501 329.2 468.801 332.9 473.901 332.8C479.001 332.5 481.301 331.2 482.601 329.2C482.601 329.2 483.601 330.7 483.601 331.8C483.601 331.8 488.001 328.1 495.601 331.3C503.201 334.5 501.001 333.6 502.701 333.8C502.701 333.8 499.401 333.3 492.001 336.7C484.301 340.2 464.301 339 464.401 329.2H464.501Z" fill="black"/>
<path d="M457.299 312.6C457.299 312.6 459.199 312.9 461.099 310.7C461.099 310.7 458.499 311.2 457.299 312.7V312.6ZM442.599 330C442.599 330 438.999 327.2 441.299 326.6C441.299 326.6 442.999 326.3 442.599 330Z" fill="#5A3719"/>
<path d="M521.199 347.8C521.199 347.8 523.199 344.3 528.699 344.3C534.199 344.3 534.799 346.9 541.799 347.3C541.799 347.3 533.399 349.7 527.599 347.6C524.599 346.5 521.799 347.4 521.199 347.8Z" fill="black"/>
<path d="M466.301 331.7C466.301 331.7 474.701 336.7 482.001 331.2C482.134 331.2 482.534 331.866 483.201 333.2C483.201 333.2 488.801 327.8 498.701 333.6C498.701 333.6 497.501 333.5 492.801 335.4C486.701 338.1 471.401 339.9 466.301 331.6V331.7Z" fill="#5A3719"/>
<path d="M498.301 336.7C498.301 336.7 506.301 337.7 513.001 337.3C517.101 337.1 521.601 336.3 519.401 337.7C517.101 339 518.301 339.2 527.801 338.4C537.201 337.4 527.701 340.1 534.201 341C534.201 341 518.301 349 498.301 336.7Z" fill="black"/>
<path d="M519.199 331.7C519.199 331.7 523.799 330 528.199 332C532.499 334 531.799 334.2 534.699 334.5C534.699 334.5 532.699 337.4 527.999 335.1C523.299 332.8 521.999 332.3 519.199 331.7ZM524.399 346C524.399 346 528.999 343.7 533.999 346C534.599 346.4 535.999 347 537.299 347.2C537.299 347.2 533.499 348.5 529.499 347.2C527.799 346.7 526.499 346.3 524.399 346ZM501.699 337.8C501.699 337.8 511.999 338.8 517.499 337.7C517.499 337.7 511.099 340.7 527.199 339.4C527.199 339.4 530.699 339 530.199 339.5C529.899 340 529.599 340.5 531.399 341C531.399 341 519.399 346.4 501.699 337.8Z" fill="#5A3719"/>
<path d="M450.701 329.2C450.701 329.2 450.901 329.9 453.101 330.9C454.814 331.743 456.215 333.109 457.101 334.8C457.842 336.188 459.099 337.23 460.601 337.7C460.601 337.7 452.601 339.4 449.001 335.1C449.001 335.1 446.301 332.1 450.601 329.1" fill="black"/>
<path d="M513.699 347.6C513.699 347.6 510.599 347.4 506.199 345.9C501.899 344.4 500.799 345.7 498.299 343.9C495.899 342 490.999 343.2 490.099 343.3C489.099 343.4 486.499 343.3 489.799 341.2C489.799 341.2 487.199 341.2 486.199 339.8C486.199 339.8 484.999 341 480.599 340.6C480.599 340.6 482.599 343.6 474.599 342.7C475.916 344.282 477.688 345.418 479.675 345.955C481.661 346.492 483.765 346.403 485.699 345.7C485.699 345.9 485.199 348.2 488.699 349.2C492.499 350.1 493.199 350.8 495.099 351.5C495.099 351.5 495.399 350 490.499 346.5C490.499 346.5 493.099 346.3 496.899 347.2C500.699 348.1 509.099 350.3 513.699 347.6ZM515.699 351.3C515.699 351.3 516.499 353.1 518.899 352.7C522.301 351.913 525.862 352.192 529.099 353.5C529.099 353.5 529.799 350.3 522.099 350.1C522.099 350.1 517.299 350.3 515.699 351.3ZM450.499 330.3C450.499 330.3 447.499 332.8 450.199 335.3C452.599 337.6 456.399 337.4 458.199 337.3C458.199 337.3 457.199 336.7 456.199 335.3C455.199 333.8 455.199 332.8 453.199 331.9C451.099 331 450.899 330.8 450.499 330.3ZM447.499 317.7C447.499 317.7 442.899 327 460.499 329.3C460.366 329.234 460.599 328.4 461.199 326.8C461.799 325.3 463.299 322.3 461.999 320.4C460.399 318.5 463.099 319.5 463.499 317C463.899 314.5 463.199 314.8 464.499 313.2C464.499 313.2 458.999 315.2 456.799 317.7C454.799 320.1 459.699 321.9 456.799 324.6C456.799 324.6 454.299 323.6 452.799 321C452.799 321 449.499 321 447.299 317.7H447.499Z" fill="#5A3719"/>
<path d="M493.301 339.3C493.301 339.3 497.001 338.7 506.301 342.2C515.701 345.6 519.601 344.8 520.901 344.7C520.901 344.7 515.701 347.5 507.501 343.9C500.301 340.7 499.901 341.9 493.301 339.3Z" fill="black"/>
<path d="M551.8 337.2C551.8 337.2 553.8 337.2 555.2 337.7C555.2 337.7 555.9 337 557.9 336.7C557.9 336.7 556.6 335.5 551.8 337.2ZM545.4 332C545.4 332 547.5 332 548.2 330.8C548.2 330.8 547.1 329.5 545.4 328.8C545.4 328.8 545.8 330.4 545.4 332ZM473.7 308.2C473.7 308.2 473.2 307.2 475.5 306.8L506.8 302.3C506.8 302.3 508.3 302.3 508.5 303.3C508.8 304.4 508.4 305.2 501.3 306L475.7 309.2C475.7 309.2 473.8 309.5 473.7 308.2Z" fill="#FFC221"/>
<path d="M502 306.9C502 306.9 502 311 506.2 311.6C510.2 312.2 511.7 311.4 512.7 309.3C513 308.6 514.3 304.3 512.5 304C511.567 303.867 510.6 303.967 509.6 304.3C508.2 305 506.9 305.7 507.3 306.3C508.3 307.9 508.5 308.3 508.3 308.3C507.1 308.6 506.5 307.7 506.3 307.1C506 306.3 506.8 305.9 504.1 306.3C502.833 306.3 502.167 306.5 502.1 306.9H502ZM519.5 303.7C521.5 304 521.4 308.5 518.9 310.6C516.1 312.8 513.5 311.9 513.5 311.9C512.1 311.4 512.3 311.5 513.4 309.9C514.4 308.4 514.9 306.3 514.3 304.9C514.167 304.367 514.5 304.033 515.3 303.9C515.3 303.9 517.3 303.5 519.5 303.7Z" fill="#FFC221"/>
<path d="M521.3 304.1C521.3 304.1 522.9 306.1 520.9 309.6C520.9 309.6 520.1 310.6 522 310.5C523.8 310.3 528.1 308.3 527.7 305.7C527.7 305.7 527.5 305.1 526.4 305.1C525.3 305.1 526.2 304.6 526.7 304.3C527.1 304.3 528.6 303.7 524.8 301.3C524.8 301.3 524.2 300.7 523.5 301C522.9 301.2 520.9 302 520.9 303.2C521.033 303.8 521.166 304.133 521.3 304.2V304.1Z" fill="#FFC221"/>
<path d="M525.4 300.9C525.4 300.9 528.4 303 528.4 303.7C528.4 304.4 528.1 305.2 528.9 305C529.7 305 532.9 304.3 531.9 302.2C531.233 300.2 530.166 299.067 528.7 298.8C527.2 298.2 526.8 298.9 525.5 299.9C525.5 299.9 524.6 300.5 525.4 300.9ZM509.3 303.9C509.3 303.9 509.8 302.4 507.1 301.7C507.1 301.7 508.2 300.7 510.5 301.3C512.7 301.7 512.5 303.3 512.5 303.4C512.5 303.4 510.7 303.4 509.3 303.9ZM515.1 303.5C515.1 303.5 518.1 303 519.6 303.1C519.6 303.1 518 299.8 513.9 300.8C513.9 300.8 515.4 302.6 515.1 303.5ZM520.4 302.7C520.4 302.7 520.4 301.6 523 300.6C523 300.6 521.8 299.4 520 299.6C518 299.6 517.5 300.3 517.5 300.3C517.5 300.3 519.8 301.1 520.4 302.7ZM521.4 299.1C521.4 299.1 523.1 299.5 524.1 300.4C524.1 300.4 525.6 298.7 526.9 298.4C526.9 298.4 524.4 297 521.4 299.1Z" fill="#FFC221"/>
<path d="M435.8 290.9C435.8 290.9 443 284.7 447 285.5C451 286.3 449 285.7 453.4 285C457.8 284.3 462.4 283.9 464.2 284.1C464.2 284.1 458.8 280.3 449.3 280.4C449.3 280.4 442.7 282.7 438 285.7C438 285.7 429.1 280.8 420 283.7C420 283.7 429.9 287.4 435.8 290.9Z" fill="#5A3719"/>
<path d="M512.2 301.4L513.4 301.2C513.4 301.2 515.4 303.7 514 303.7C512.8 303.7 513.2 303.4 513 302.7C512.916 302.178 512.628 301.71 512.2 301.4ZM503.2 301.6C503.2 301.6 502.4 302.6 503.8 302.4C505.5 302.1 505.2 302.4 506.9 301.1C506.9 301.1 508.1 300 510.1 300.7C510.1 300.7 511.9 301.3 513.3 300.6C514.7 299.8 515 299.9 515.8 300C516.6 300.1 516.6 300.2 517.5 299.4C518.5 298.7 520.3 299.3 521.4 298.4C522.5 297.5 523.9 298.2 521.4 296.4C521.4 296.4 520.9 295.9 520.9 295.4C520.9 295.4 521.9 295.8 522.7 296.4C523.5 297.2 524.7 296.9 524.9 296.8C524.9 296.8 525.1 294.5 527.2 292.5C529.5 290.5 529.5 290.3 528.2 290.3C526.9 290.3 524.7 289.7 523.9 290.3C523.1 290.9 516.7 295.1 512.9 295.8C509.1 296.5 505.6 297.6 503.2 301.6ZM401.9 278.2C401.9 278.2 413.6 281.2 416.2 282.4C416.2 282.4 416.8 280.5 411.5 279C411.5 279 424.4 278.6 437.9 284.8C437.9 284.8 444.5 279.2 465.6 280.9C465.6 280.9 465.6 279.1 465.8 277.6C465.8 277.6 451 277.2 437.4 268.9C437.4 268.9 425.1 274.9 401.9 278.2ZM466.6 283.8C465.9 272 470.4 270.8 470.4 270.8C470.4 270.8 472.5 270.8 474.8 271.3C474.8 271.3 471.2 275.6 472.2 284.1C472.2 284.1 472.6 285.4 469.5 285.4C466.4 285.4 466.6 283.9 466.6 283.9V283.8Z" fill="#FFC221"/>
<path d="M469.801 291.7C469.801 291.7 467.501 289.4 467.301 286.8C467.301 286.8 467.301 286.2 469.501 286.2C471.701 286.2 472.001 286 472.501 287.3C473.001 288.6 474.501 291.3 474.801 291.6L469.801 291.7Z" fill="#5A3719"/>
<path d="M474.5 285.7L474.3 281.2C474.4 274.6 475.5 275.2 476 276H478.3C478.3 276 476.6 268.6 474.6 273C473.132 276.257 472.612 279.861 473.1 283.4C473.166 285.4 473.366 286.733 473.7 287.4L474.5 285.7Z" fill="#FFC221"/>
<path d="M500.201 285.7C500.201 285.7 504.501 286.5 497.901 288C497.901 288 498.201 296.2 506.101 290.5C506.101 290.5 510.801 287.5 514.101 286.3C514.101 286.3 515.701 285.7 515.501 284.5C515.501 284.5 515.701 283 514.001 283.4C514.001 283.4 512.601 283.4 511.701 283.1C511.701 283.1 510.701 281.9 510.101 282.3C509.501 282.8 508.001 282.5 509.201 284C510.401 285.4 510.701 285 511.201 284.6C511.701 284.2 514.301 283.2 512.101 285.3C509.901 287.4 507.901 284.1 507.101 283.5L500.201 285.7ZM478.201 286.7H476.201C476.201 286.7 475.201 288.3 474.501 285.7L473.801 287.3C473.801 287.3 476.101 296.1 478.201 286.7Z" fill="#5A3719"/>
<path d="M475.401 276.6C475.401 276.6 474.401 282.4 475.701 285.8L496.8 286.3C496.8 286.3 496.6 282.3 496.8 276.6H494.001C494.001 276.6 493.501 281.2 494.001 284.1H493.501C493.501 284.1 493.101 280.1 493.501 276.6H491.001C491.001 276.6 490.601 280.9 491.001 284.1H490.501C490.501 284.1 490.101 280.4 490.501 276.6H488.001C488.001 276.6 487.501 280.5 488.001 284.1H487.401C487.401 284.1 486.901 280.2 487.401 276.6H484.701C484.701 276.6 484.101 280.2 484.701 284.1H484.201C484.201 284.1 483.601 280.5 484.201 276.6H481.501C481.501 276.6 480.901 280.8 481.501 284.1H480.901C480.901 284.1 480.501 280.1 481.001 276.6H478.501C478.501 276.6 477.801 280.1 478.501 284.1H477.8C477.8 284.1 477.401 281.1 478.001 276.6H475.401ZM497.701 287C497.701 287 497.201 276.8 499.101 274C501.101 271.4 501.601 272 504.901 274C508.301 276.2 512.601 278.5 513.401 278.8C514.001 279.1 515.001 279.3 515.001 281.2C515.001 283.1 515.301 283.6 512.401 281.2C511.617 280.441 510.702 279.831 509.701 279.4C507.101 278.5 510.301 279.9 511.201 281.3C512.001 282.3 512.701 282.3 510.601 282.8C506.258 284.066 501.956 285.467 497.701 287Z" fill="#FFC221"/>
<path d="M504.999 279.6C504.999 279.6 503.499 277.8 505.499 277.3C507.499 276.8 507.599 280.3 507.999 282.4C508.299 284.6 505.499 280.3 505.199 279.7L504.999 279.6ZM502.299 288.6C502.299 288.6 499.999 289.5 501.599 290.2C502.999 290.9 507.099 287.5 505.799 287.7C504.199 288 502.299 288.7 502.299 288.7V288.6ZM505.299 285.6C505.299 285.6 507.299 285.3 506.899 286.1C506.599 287.1 505.899 286.5 505.499 286.3C505.099 286.1 503.899 285.6 505.399 285.5L505.299 285.6Z" fill="black"/>
<path d="M515.999 282.8C515.999 282.8 516.599 286.8 519.999 287.8C519.999 287.8 521.999 288.2 521.499 286.5C521.499 286.5 521.199 285 520.899 284.5C520.599 283.8 519.299 283.5 519.099 283.4C518.899 283.4 518.799 282.9 519.699 283.2C520.699 283.5 520.699 283.6 520.699 282.9C520.699 282.2 520.099 282.5 519.299 282.1C518.899 281.9 519.299 281.7 519.599 281.8C519.999 281.8 520.899 282.1 520.899 280.8C520.899 280.8 520.999 280 519.999 280C518.899 280 518.999 279.4 519.299 279.3C519.599 279.2 520.799 280.1 521.199 278.7C521.599 277.3 519.599 278.2 519.799 277.5C520.099 276.7 521.499 277.8 521.499 277C521.699 276.2 522.799 275.9 520.899 275.6C519.999 275.5 520.899 275 521.899 275.2C522.899 275.4 523.499 274 524.199 273.6C524.899 273.2 528.399 271 523.599 271.7C518.799 272.4 517.499 274.7 517.299 275.2C516.107 277.544 515.654 280.193 515.999 282.8Z" fill="#FFC221"/>
<path d="M527.001 285.8C527.668 285.733 528.134 285.9 528.401 286.3C529.201 287.9 527.401 287.3 526.401 288.5C525.401 289.7 525.401 289.5 524.001 289C522.601 288.5 522.001 286.5 522.001 286.5C522.001 285.833 522.401 285.633 523.201 285.9C523.201 285.9 525.501 286.1 527.101 285.9L527.001 285.8ZM522.001 285C522.001 285 522.001 285.4 522.901 285.5C523.601 285.5 525.901 285.8 527.401 285.4C527.401 285.4 527.801 285.3 527.601 284.4C527.601 284.4 527.601 283.7 526.401 284C525.101 284.2 523.401 284 522.701 283.9C522.034 283.633 521.768 283.966 521.901 284.9L522.001 285ZM521.801 282.1C521.801 282.1 521.701 283.4 522.901 283.5C524.201 283.7 525.801 283.7 526.401 283.5C526.901 283.5 527.801 283.3 527.901 282.5C527.901 281.8 528.101 281.3 526.601 281.7C525.101 282.1 523.201 281.7 523.001 281.7C522.901 281.7 521.801 281.4 521.801 282.1ZM522.301 279.6C522.301 279.6 522.001 280.2 522.101 280.8C522.101 281.266 522.934 281.5 524.601 281.5C527.101 281.5 527.601 281.3 527.801 280.8C527.901 280.1 528.301 279.5 527.101 279.8C525.801 279.9 524.101 280 523.501 279.8C522.834 279.466 522.434 279.4 522.301 279.6Z" fill="#FFC221"/>
<path d="M582.101 286C582.101 286 582.101 287 583.001 288.2L537.801 286.9C537.801 286.9 538.401 286.5 538.601 284.7L582.101 286Z" fill="#5A3719"/>
<path d="M522.7 277.8C522.7 277.8 522.3 278.9 523.1 279.2C523.9 279.467 525.233 279.5 527.1 279.3C527.1 279.3 528.1 279.3 528.4 278.3C528.7 277.3 528.7 277.9 526.1 277.5C526.1 277.5 525.3 277.2 527.6 277.2C527.6 277.2 529 277.2 529.1 277C529.4 276.8 531.1 275.3 528.8 275.5C526.5 275.5 527.7 275 528.8 275C529.9 275 530.4 275.3 530.8 275C531.2 274.7 530.8 274.8 530.1 274.2C529.4 273.6 530 273.7 530.4 274.1C530.8 274.5 531.233 274.5 531.7 274.1C532.4 273.5 531.3 272.9 531.7 273.1C532 273.1 532.3 273.9 533.7 273.1C535.3 272.4 537.2 272.8 537.7 273.1C538.3 273.6 539.9 274.1 540.8 273.1C541.8 272.3 539.7 271.4 540.5 271.3C541.5 271.2 542.1 271.5 542.4 270.8C542.8 270 541 269.4 542.7 269C544.4 268.6 542.9 264 542.4 263.5C542.4 263.5 540.5 264.6 538.6 267.8C536.5 271.1 535.3 273 532.6 272C528.7 270.5 526.6 272.6 526.1 273C525.1 273.6 528.1 273.8 526.3 273.9C524.6 273.9 524.6 274.1 524.5 274.3C524.366 274.567 524.466 274.767 524.8 274.9C525.1 274.9 525.7 275.5 524.7 275.5C523.7 275.5 522.9 275.2 523.2 276.4L523.8 276.7C524.4 276.7 524.6 277.5 523.5 277.5C522.833 277.5 522.566 277.6 522.7 277.8ZM526.8 289.1C526.8 289.1 526.1 289.6 527.1 289.7C528.3 289.7 528.8 290 529.2 289.4C529.6 288.8 531 289 530 288.2C529 287.4 528.4 287.9 526.8 289.2V289.1Z" fill="#FFC221"/>
<path d="M531.5 275.5C531.5 275.5 535.3 272 538.4 274.3C541.6 276.8 541.8 277.1 541.9 277.2C541.9 277.2 542.3 277.5 541.5 278.2C540.6 279 541.5 279 542.4 278.5C543.3 278 543.4 278.5 543.8 279C544.3 279.5 544.9 279.8 543.5 279.8H538.9C538.9 279.8 536.8 280 537.9 279.1C538.9 278.2 538.7 277.2 538.2 277.1C537.6 277.1 538.2 277.7 537.9 278.1C537.5 278.5 536.867 278.733 536 278.8C534.667 279 534.6 279.333 535.8 279.8C536.9 280.2 535.6 280.5 535 280.5C534.4 280.5 531.5 280.7 534.5 281.1C537.5 281.5 534.2 281.4 536.5 282.6C538.9 284 537.1 286.9 536.2 287.2C536.2 287.2 535.2 287.7 536.4 287.6C537.7 287.4 538.4 287.3 537.4 288C536.6 288.6 534.8 290.9 532.4 289.2C532.4 289.2 531.2 288.6 533.2 288.5C535.2 288.4 531.6 288 530.9 287.5C530.4 287.2 527.9 284.8 529.4 285C531 285.4 530.4 284.5 529.5 284.2C528.6 283.9 528.5 282.6 529.5 282.8C530.5 283 531.5 283.7 532.5 283.6C533.3 283.6 532.9 283.333 531.3 282.8C529.6 282.2 528.9 282.1 529.3 280.8C529.7 279.3 531.6 281.3 531.1 280.2C530.7 279.2 529.1 279.7 529.9 278.3C530.7 276.9 530.9 277.5 531.4 277.7C531.7 277.8 532.4 277.7 531.3 276.9C530.5 276.4 531.3 275.6 531.5 275.5Z" fill="#FFC221"/>
<path d="M534.199 276.5C534.199 276.5 534.199 276 534.999 276.1C535.599 276.1 535.399 275.9 535.599 275.7C535.799 275.7 537.499 276.2 535.899 276.7C535.299 277 534.299 276.9 534.299 276.5H534.199Z" fill="black"/>
<path d="M537.9 280.5C537.9 280.5 536.6 281.1 537.7 282.5C538.7 283.5 538.7 284 538.7 284.7C538.6 285.5 582.1 286 582.1 286C582.1 286 582.1 283.1 583.9 281.5L537.9 280.5Z" fill="#FFC221"/>
<path d="M582.801 285.2C582.801 285.2 583.001 282.8 584.401 282.1C585.101 281.6 586.001 281.8 586.401 283.7C587.001 286.4 584.701 288.8 583.701 287.7C582.701 286.6 582.901 285.2 582.901 285.2H582.801Z" fill="#5A3719"/>
<path d="M532.901 295.4C532.901 295.4 535.801 292.9 536.301 291.8C536.301 291.8 544.101 297.4 543.601 292.2L543.801 289.6C543.801 289.6 546.701 289.9 547.101 287.6L539.801 287.3C539.801 287.3 539.001 287.2 537.801 288.4C536.801 289.6 534.401 290.9 532.301 289.8C532.301 289.8 531.301 289 530.401 289.8C529.401 290.3 529.401 290.5 530.201 291.3C531.001 292.1 532.601 294.2 532.901 295.3V295.4ZM549.701 280L545.401 279.8C545.401 279.8 543.901 277.6 540.801 275.2C540.801 275.2 539.901 274.8 541.601 273.4C543.267 271.866 544.034 270.7 543.901 269.9C543.901 269.3 543.901 268.2 544.501 268.9C545.101 269.7 549.501 273.8 550.301 272.6C550.834 271.533 551.067 270.833 551.001 270.5C551.201 270.1 551.301 269 552.001 270.2C552.701 271.4 553.001 271 553.101 274C553.101 274 553.101 277 553.601 278C553.601 278 548.001 276.3 549.801 280H549.701ZM531.101 270.8C531.101 270.8 534.401 272.8 536.101 270.2C537.601 267.7 538.701 267.4 537.501 264.9C536.301 262.6 537.501 261.5 538.401 260.5C539.301 259.5 540.201 259.7 540.201 255.9C540.401 252 543.001 250.9 544.201 249.6C545.401 248.3 548.401 246.6 543.801 245.9C539.401 245.1 530.401 242.9 528.101 239.4C525.801 235.9 524.801 237.9 524.801 238.1C524.801 238.3 524.001 240.8 526.301 245.4C528.601 250 530.501 253 532.801 254.4C535.101 255.8 537.001 256.7 535.801 259.8C534.601 262.9 532.801 268.4 531.101 270.8Z" fill="#7B3C20"/>
<path d="M543.199 261C543.199 261 543.799 269 549.499 271.8C549.499 271.8 550.799 268.8 550.299 265.7C550.299 265.7 552.199 265.8 552.699 266.7C552.699 266.7 552.699 264.4 550.099 263.5C547.399 262.8 548.699 257.5 549.699 257C550.699 256.5 550.299 255.3 549.699 254.4C549.099 253.5 548.899 252.1 551.099 252.7C553.299 253.3 553.099 252.1 551.599 251C550.299 249.9 550.299 248.5 552.299 248.5C554.299 248.5 557.299 246.6 555.499 246.1C553.499 245.5 552.999 244.8 555.499 244.1C558.199 243.3 559.499 242.4 557.499 242.1C555.499 241.9 554.199 241.2 556.099 240.9C557.999 240.6 555.799 238.6 553.599 238.6C551.299 238.4 546.599 239.3 550.299 236.3C553.999 233.3 544.899 235.5 548.699 233.5C552.499 231.5 547.399 232.4 546.699 232.4C545.999 232.4 545.999 232.4 546.299 231.4C546.599 230.4 545.799 229.8 544.599 230.5C543.599 231.1 543.599 231.1 543.599 229.8C543.599 228.3 542.299 229.4 541.499 229.8C540.599 230.1 538.499 231.7 537.599 230.8C536.899 229.9 536.399 229.1 533.799 230.6C531.199 232.1 531.799 230.8 531.799 230.1C531.799 229.4 532.799 226.7 529.399 229.6C525.999 232.5 528.699 226.6 525.899 228.6C523.099 230.6 522.899 231 522.399 230.1C521.899 229.1 521.399 228.4 518.399 230.4C515.299 232.3 517.599 229.1 517.899 228.4C518.399 227.8 519.699 223.4 516.999 226.8C516.999 226.8 515.699 229.2 512.799 224.9C512.799 224.9 509.799 229.2 508.899 227.3C508.099 225.3 507.399 225.3 506.299 226.5C505.299 227.7 506.099 226.4 505.599 225.3C505.099 224.2 504.899 222.4 499.799 226.1C494.699 229.8 501.599 227.1 497.699 228.8C493.799 230.5 484.199 235.8 492.899 234.7C501.599 233.4 488.699 238 491.699 238.9C494.699 239.7 493.699 242.4 505.099 239.2C516.299 236.2 514.499 238.8 520.299 236.2C526.099 233.8 518.899 237.1 526.699 237C534.399 236.8 527.999 237 529.499 238.6C530.999 240.2 537.499 243.9 543.599 244.6C549.699 245.2 551.299 242.9 549.499 245.6C547.699 248.2 547.099 249.2 546.099 250.2C545.099 251 542.099 253.2 542.099 256.8C542.099 260.5 537.299 261.1 539.099 265.1L543.199 261.1V261Z" fill="#5A3719"/>
<path d="M553.299 269.9C553.299 269.9 551.899 268.9 551.899 267.1C551.899 267.1 552.899 267.3 553.299 267.9C553.299 267.9 556.799 263.9 552.499 262.5C548.399 261.1 550.499 257.2 551.899 257.2C553.299 257.2 553.599 256.9 552.299 255.2C551.099 253.7 551.299 253.6 553.599 253.2C555.899 252.8 555.699 252.2 554.599 251.7L552.699 250.1C552.699 250.1 559.499 247.2 557.299 245.8C555.099 244.4 557.299 244.8 559.299 243.5C561.299 242.1 561.499 241.8 561.799 241.2C561.799 241.2 559.799 241.5 558.399 241.2C558.399 241.2 560.099 240.3 558.399 238.9C556.699 237.5 556.099 236.3 553.399 236.9C550.699 237.5 551.599 236.7 552.599 235.6C553.599 234.5 553.199 233.9 551.299 233.6C551.299 233.6 551.499 232.4 552.999 231.1C552.999 231.1 549.299 231.3 547.999 230.7C547.999 230.7 549.599 229.7 549.599 228.4C549.599 228.4 547.599 229.1 545.099 228.9C545.099 228.9 546.599 227.6 546.599 226.5C546.599 226.5 542.199 227.5 540.199 229C540.066 229.133 539.799 228.933 539.399 228.4C538.999 228 538.799 227.4 533.899 229C533.899 229 534.399 226.8 535.599 226C536.799 225.2 536.599 223.4 529.099 228.1C529.099 228.1 528.099 227.5 527.199 225.2C527.199 225.2 525.499 227.5 524.299 228.3C524.299 228.3 523.299 228.8 523.299 227.3C523.499 225.8 522.599 226.8 521.899 227.3C521.099 227.7 520.599 228.8 520.899 225.8C521.199 222.8 519.899 222.2 519.899 222.2C519.899 222.2 517.599 225.5 516.199 225.9C516.199 225.9 513.699 223.5 512.799 221.9C511.899 220.3 511.999 219.7 511.099 222.5C510.199 225.2 509.099 225.5 509.099 225.5C509.099 225.5 507.599 224.2 507.499 223.5C507.499 223.5 507.199 224.2 506.699 224.5C506.699 224.5 505.399 223 505.499 220.8C505.499 220.8 497.299 225.3 496.299 228C496.299 228 488.599 227.5 485.499 228.1C485.499 228.1 486.199 225.7 488.199 224.4C488.199 224.4 486.199 224.2 486.199 222.1C486.199 222.1 487.799 222.3 488.799 222.1C489.799 221.9 487.399 219 489.899 218.9C492.399 218.8 494.099 220.1 492.899 216.7C491.899 213.4 492.299 213.4 492.299 213.4C492.299 213.4 496.699 216 497.399 215.3C498.199 214.7 496.899 213.3 500.799 213.9C504.699 214.5 503.599 212.4 505.199 212.2C506.699 212.2 507.499 213.2 506.499 206.1C505.499 199 511.299 209.6 507.399 198.9C507.399 198.9 506.399 195.6 504.099 194.2C504.099 194.2 503.499 196.5 500.899 194.5C498.299 192.5 493.099 191.7 495.299 190.1C497.499 188.5 498.499 186.2 497.899 184.9C497.899 184.9 495.299 187.5 490.899 185.6C487.299 184.1 486.499 186.9 482.899 186.1C482.899 186.1 482.899 185.1 485.999 182.7C488.999 180.4 484.199 183.5 482.399 184C480.599 184.5 479.999 184 483.899 180.9C487.899 177.9 495.899 172.4 494.899 167.9C494.899 167.9 496.699 170.2 501.599 168.5C506.499 166.8 510.199 166.2 511.599 163.5C513.366 161.252 515.536 159.352 517.999 157.9C519.099 157.4 520.399 156.9 518.899 159.4C517.299 161.8 514.899 166 508.099 168.8C501.299 171.6 498.599 173.6 497.399 175.1C496.199 176.6 489.999 179.9 494.099 179.4C498.099 178.7 504.999 179.4 501.699 178.4C498.499 177.5 494.799 179 497.799 176.3C500.799 173.6 501.299 172.7 505.699 170.9C510.099 169.1 514.899 164.8 514.399 169.3C513.899 173.8 505.799 178.4 503.799 179.9C501.799 181.3 502.599 181.1 502.599 181.7C502.599 182.3 502.199 183.5 501.399 184C500.599 184.6 500.899 185.2 501.099 186.4C501.299 187.7 500.899 188.2 501.499 188.4C502.099 188.6 502.699 188.6 502.899 189.5C503.099 190.4 503.499 190.5 504.699 190.5C505.899 190.3 506.566 190.5 506.699 191.1C506.699 191.8 507.899 192.8 507.999 190.7C508.099 188.5 508.999 188.2 506.799 189.2C504.599 190.2 504.199 189.8 504.199 188.8C504.199 187.8 503.999 188 503.199 187.9C502.199 187.9 501.899 186.6 503.499 185.7C505.099 184.9 505.099 185.7 507.099 184.1C509.099 182.5 509.099 182.1 509.399 181.1C509.699 180.4 506.499 183.5 504.999 184.1C503.499 184.9 503.999 183.6 504.199 182C504.499 180.3 508.199 178 509.899 178C511.599 178 515.499 179 513.899 181.3C512.199 183.6 507.499 186.5 509.399 186.7C511.499 186.9 511.799 186.1 512.999 187.1C514.199 188.1 512.999 190.3 512.599 191.5C512.073 192.55 511.322 193.472 510.399 194.2C510.399 194.2 508.199 190.4 508.299 193.4C508.299 196.5 507.799 197.6 508.299 197.7C508.799 197.8 511.099 199.4 511.899 199.4C512.699 199.4 507.799 201.7 509.899 201.9C511.899 202 515.199 200.9 516.299 198.9C516.299 198.9 512.099 197.9 510.399 196.3C510.399 196.3 515.299 195.1 513.899 190.5C513.899 190.5 518.799 191.8 516.599 194C514.599 196.1 513.299 195.8 515.099 196.4C516.966 197.067 517.866 197.467 517.799 197.6C517.699 197.8 519.099 198.2 518.299 199.2C517.599 200.2 517.599 201.8 518.299 201.7C518.799 201.7 520.899 200.7 519.199 199.7C517.499 198.7 521.099 198.9 519.599 198C517.999 197 517.599 196.9 517.199 196.4C516.699 196.1 536.899 184.2 526.699 188.6C526.699 188.6 528.799 184 531.799 184C534.799 184 534.999 186.3 533.299 188.2C531.599 189.9 530.499 192.8 526.599 193.4C526.599 193.4 532.199 196.1 525.599 200.6C525.599 200.6 524.099 201.3 524.599 201.8C525.099 202.3 529.099 200.1 529.599 198.8C530.2 197.468 531.267 196.401 532.599 195.8C536.924 193.362 540.729 190.101 543.799 186.2C546.099 182.3 546.599 182.2 550.999 178.7C555.399 175.2 554.599 175.9 555.199 175.1C555.699 174.2 555.899 172.8 557.899 171.7C559.899 170.6 567.699 166.3 570.199 164.5C572.599 162.7 577.599 159.5 579.799 156.7C581.999 153.9 587.799 150.5 589.199 151.1C590.599 151.7 588.999 153.9 585.699 156.5C582.199 159 573.699 165.8 572.399 166.9C569.005 169.63 565.232 171.854 561.199 173.5C558.499 173.8 558.799 174.8 557.199 176.5C555.599 178.2 551.899 181.9 550.699 182.9C549.499 183.9 546.399 185.9 546.299 187.4C546.199 188.9 546.799 189 544.399 191.2C540.844 194.46 536.836 197.188 532.499 199.3C532.499 199.3 536.999 200.9 534.299 203.9C531.699 206.9 531.799 206.5 531.699 206.7C531.699 206.7 538.399 205.7 533.699 211C533.699 211 532.699 212.5 534.799 211C537.099 209.1 536.199 206.9 535.799 206.5C535.799 206.5 539.499 204.2 543.699 204.2C547.699 204.267 547.766 203.8 543.899 202.8C543.899 202.8 546.599 199.6 548.899 201.2C551.099 202.7 550.299 203.7 547.999 205C545.599 206.2 542.199 206.7 539.499 208.2C539.499 208.2 544.499 209.2 547.099 207.1C549.699 205.1 549.899 206.1 550.099 206.5C550.599 206.9 550.899 207.5 549.699 209.1C548.499 210.7 548.399 210.9 548.499 211.3C548.499 211.7 548.399 212.8 545.999 213.3C543.699 213.6 542.499 214.6 543.399 215.7C544.099 216.9 544.099 219.7 542.199 219.4C540.199 219.1 540.599 217.5 539.899 216.9C539.099 216.3 537.999 215.4 534.499 217.1C530.899 219 530.699 216.8 530.799 215.6C530.799 215.6 528.499 217.6 526.599 215.8C524.699 214 526.399 213.2 527.599 212.3C528.599 211.3 533.099 209.3 530.399 209.8C527.699 210.1 523.699 210.2 522.799 208.2C521.799 206.1 524.799 206.3 525.199 206.5C525.699 206.7 527.499 208.2 527.699 206.2C527.699 204.2 530.699 203.9 529.699 203.6C528.699 203.3 527.199 204.5 526.799 204.9C526.799 204.9 524.799 202 521.399 202.9C517.999 203.9 522.399 203.6 523.399 203.7C524.199 203.9 523.699 205.5 520.699 208.3C517.699 211.1 518.999 210.1 521.199 210.1C523.399 210.1 529.099 210.1 525.799 212.7C522.599 215.4 521.299 216.7 519.799 216.3C517.999 215.8 519.799 214.7 520.599 214.2C521.399 213.7 521.799 213 520.199 213.6C518.599 214.2 518.099 214.3 516.799 212.1C515.499 209.9 515.999 210.5 516.599 209C517.199 207.5 518.399 206 516.999 206.5C515.399 207.1 515.599 207.2 515.699 205.5C515.799 203.8 513.999 203.4 513.999 203.4C513.999 203.4 514.799 205.1 514.099 206.2C513.432 207.133 513.566 207.667 514.499 207.8C515.499 208.2 516.499 209.1 515.099 210.1C513.699 211.1 513.899 210.8 514.699 211.4C515.699 212.1 516.999 212.7 515.599 214.1C514.199 215.5 515.299 215.1 515.999 215.1C516.799 215.1 518.299 215.7 518.299 217.1C518.299 218.3 518.299 218.6 520.599 217.4C522.899 216.1 527.299 216.3 527.299 218C527.299 219.7 526.699 220.3 529.099 218.8C531.499 217.3 532.599 220.2 534.299 218.8C535.899 217.3 536.899 216 538.899 218.4C540.899 220.8 540.199 221.4 537.899 223.2C535.599 225 538.999 223.6 540.799 222.7C542.599 221.8 547.499 221.2 550.299 222.5C553.199 223.7 553.999 223.5 556.099 222.5C558.199 221.7 559.299 221.5 562.399 223.6C565.699 225.8 568.099 226.2 569.799 226.1C569.799 226.1 566.299 227.5 562.299 227.7C558.432 228.1 556.199 228.633 555.599 229.3C555.599 229.3 557.899 230.8 558.399 232.5C558.399 232.5 560.999 232.2 562.199 232.7C562.199 232.7 561.599 234.6 563.199 235.6C564.799 236.6 565.899 237 564.699 238.3C563.499 239.6 566.599 239.1 564.799 241C562.999 242.9 562.699 244 562.599 245.5C562.599 247.1 562.999 247.3 561.499 247.5C559.899 247.6 561.699 249.4 560.999 251.5C560.299 253.5 555.999 253.2 556.199 258.7C556.199 258.7 557.399 256 559.999 253.7C562.499 251.3 562.599 251.1 562.499 249.7C562.499 248.3 562.399 248.6 563.699 247.5C565.099 246.5 563.099 245.5 564.499 243.9C565.799 242.4 564.699 242.7 566.299 241.2C567.799 239.6 564.799 239.5 566.499 237.9C567.999 236.3 562.499 234.4 564.199 233.4C565.699 232.4 568.499 231 559.199 231.1C559.199 231.1 561.499 227.5 569.199 228.2C569.199 228.2 567.199 229.8 566.999 231.2L568.599 231.7C568.599 231.7 568.199 232.8 566.699 234C566.699 234 570.899 236.3 571.599 237.8C571.599 237.8 568.999 238.6 568.299 239.6C568.299 239.6 569.499 240.9 569.899 242.6C569.899 242.6 566.999 242.2 566.699 244.3C566.399 246.4 565.399 245 565.399 246.3C565.399 247.6 565.499 248 564.499 248.3C563.499 248.3 564.399 249.4 564.499 250.1C564.699 250.8 565.099 252.4 564.899 252.9C564.899 252.9 563.399 252.9 562.799 253.1C562.799 253.1 563.199 256.1 561.499 256.6C559.799 257.1 562.499 257.6 560.599 257.9C558.699 258.2 559.099 258.4 556.899 262.4C556.899 262.4 558.799 261.4 560.699 260C562.699 258.7 560.499 259 563.699 256C566.999 252.7 566.399 252.5 566.099 250.9C565.899 249.3 565.799 247.9 566.999 246.4C568.199 244.9 568.499 243.2 572.699 243.4C572.699 243.4 571.499 240.6 569.999 239.9C569.999 239.9 571.999 238.6 573.999 238.4C573.999 238.4 572.199 236.1 568.399 234C568.399 234 571.399 231.4 572.299 230.1C572.299 230.1 570.799 230.4 569.599 230.1C569.599 230.1 570.199 228.8 572.999 227C572.999 227 574.499 228.4 574.399 229.9C574.399 229.9 579.199 227.2 581.899 227.5C581.899 227.5 583.299 230.9 576.599 237.5C576.599 237.5 580.799 237.8 582.599 237.5C582.599 237.5 581.599 240.7 576.599 242.5C571.599 244.5 577.599 246.7 572.499 246.3C567.399 245.9 568.999 247.6 569.099 250.2C569.199 252.8 569.399 255.5 569.299 256.2C569.299 256.2 565.299 254.9 565.299 258.8C565.399 262.8 563.299 263.6 562.799 263.9C562.799 263.9 561.599 262.9 559.799 262.2C559.799 262.2 557.299 267.1 553.299 269.9Z" fill="#5A3719"/>
<path d="M547.401 220.5C547.401 220.5 548.801 220.3 551.201 221.7C553.501 223.2 555.801 220.2 553.201 219.4C550.601 218.6 553.201 217.6 555.601 219.6C558.001 221.5 558.901 220.5 559.801 219.9C560.601 219.2 561.701 218.8 560.101 217.7C558.501 216.6 561.101 217.1 562.401 218C563.601 218.7 563.101 219.5 563.001 219.7C562.801 219.9 562.701 222.6 565.001 220.2C567.401 217.7 568.701 215.4 568.601 214.2C568.601 214.2 569.901 215 570.101 216.5C570.301 218 572.101 215.7 572.701 214.9C573.301 214.1 574.301 211.9 574.201 210.5C574.201 210.5 575.801 213 578.201 210.5C580.601 208 579.601 209.5 582.401 208.8C585.667 207.901 588.613 206.099 590.901 203.6C592.901 201.1 593.001 202.8 595.501 202.2C598.001 201.6 603.201 198 603.701 196.1C604.201 194.2 604.001 193 603.301 193.7C602.601 194.3 602.901 193.7 601.801 193.1C600.701 192.5 599.101 194 599.101 194C599.101 194 600.701 195.2 599.401 195.7C598.201 196.3 597.101 198 594.801 197.3C592.501 196.6 590.001 199.5 590.001 199.5C590.001 199.5 592.001 201.1 589.301 202.2C586.601 203.2 587.001 203.6 585.401 202.4C585.401 202.4 582.501 206.1 580.801 206.9C580.801 206.9 580.101 206.9 579.601 206.1C579.601 206.1 577.601 208.2 576.801 208.6C576.801 208.6 575.501 207.6 574.501 207.1C574.501 207.1 572.201 210 570.301 210.8C570.301 210.8 569.701 209.8 568.501 209.1C568.501 209.1 567.901 212.7 563.901 214.9C563.901 214.9 564.101 213.9 562.101 212.6C562.101 212.6 557.101 216.9 555.201 217.3C553.301 217.7 555.001 216.4 555.201 215.8C555.601 215.3 556.801 213.5 554.401 212.8C552.001 212.1 552.401 213.3 551.901 213.5C551.401 213.7 551.301 213.1 549.701 213.3C548.101 213.5 548.401 214.2 547.701 214.5C546.901 214.7 544.101 214 544.301 215.9C544.401 217.7 545.801 219 543.301 220.1C540.801 221.1 544.301 220.9 547.401 220.5Z" fill="#7B3C20"/>
<path d="M557.5 215.3C557.5 215.3 558.1 212.8 556 211.8C556 211.8 569.2 209.7 559.2 204.6C559.2 204.6 571.1 202.3 568.2 198.5C565.5 194.7 562.8 195.5 562.4 195.5C562 195.5 564.9 193.4 565.7 193.7C566.5 194 575.9 197.6 573.5 194.4C571.1 191.4 571.3 191.5 570.9 190.6C570.9 190.6 574 190.6 578.8 195.2C578.8 195.2 579.8 194.2 579.7 192.3C579.7 192.3 583 193.3 584.1 194.3C584.1 194.3 584.7 193.1 584.4 192.5C584.4 192.5 587.4 194 588.4 195.7C588.4 195.7 589.7 194.5 589.9 193.1C589.9 193.1 592.9 194.4 593.6 195.3C593.6 195.3 594.6 194 594.2 192.3C594.2 192.3 599.1 193.6 599.7 190.7C599.7 190.7 604.6 191.7 601.4 193.6C597.4 196.1 601 193 596.8 195.9C593.6 198.2 591.8 200.8 590.2 200.3C589.1 199.8 587.7 203.2 586.2 201.6C584.7 199.9 584.7 200.6 583.5 202.3C582.673 203.548 581.736 204.72 580.7 205.8C580.7 205.8 579.9 205.3 579.1 204.6C579.1 204.6 578.3 206.2 577.1 207.4C577.1 207.4 576.1 206.1 574.5 205.4C574.5 205.4 572.2 208.1 570.7 209.1C570.7 209.1 569.3 207.7 567.8 207.2C567.8 207.2 567.6 211 564.7 212.9C564.7 212.9 564.1 211.7 562.1 210.9C562.1 210.9 560.7 213.2 557.5 215.2V215.3Z" fill="#5A3719"/>
<path d="M550.599 209.5C550.599 209.5 548.999 210.7 549.999 212C550.999 213.3 551.099 211.8 552.399 211.7C553.699 211.5 569.899 208.7 555.199 204.4C555.199 204.4 555.899 203.8 558.299 203.6C560.899 203.3 570.099 200.9 565.799 197.6C561.499 194.3 557.899 198.7 561.499 194.8C564.499 191.7 562.099 190.2 562.099 190.2C562.099 190.2 553.599 195.8 551.699 196.9C549.899 197.9 547.099 199.9 550.299 200.9C553.599 201.9 555.699 197.5 555.999 198.5C556.299 199.5 549.599 203.3 550.599 204.9C551.499 206.7 551.299 208.2 552.999 207.8C554.699 207.4 558.999 208.6 555.499 208.5C551.799 208.4 550.499 209.5 550.499 209.5H550.599Z" fill="#5A3719"/>
<path d="M556.399 201.3C556.399 201.3 554.899 202.4 556.899 201.9C558.899 201.4 562.799 200.5 562.099 199.5C561.399 198.5 558.699 199.7 556.399 201.3Z" fill="black"/>
<path d="M582.4 184.5C582.4 184.5 589.9 184.3 592.9 186.4C595.767 188.467 597.6 189.733 598.4 190.2C598.4 190.2 598.3 193 593.4 190.9C593.4 190.9 593.8 192.3 593.2 193.7C593.2 193.7 591.5 192.5 589.4 192C589.4 192 589 193 588.4 193.7C588.4 193.7 586.3 191.5 583.8 190.8C583.8 190.8 583.4 191.9 583 192.4C583 192.4 580.4 190.8 578.4 190.8C578.4 190.8 578.8 192.5 578.4 193.1C578.4 193.1 573 188.8 568.1 189.3C568.1 189.3 570.4 192.8 571.9 194.4C571.9 194.4 562.1 193.7 563.9 188.4C565.4 183.1 563.7 184.4 570.1 184.4L582.4 184.5Z" fill="#7B3C20"/>
<path d="M536.299 199.1C536.299 199.1 535.199 200.1 536.299 200.8C537.399 201.6 541.299 198.8 541.799 198.4C542.299 198 543.799 198 541.799 199.5C539.799 201 537.999 202.5 536.799 204.1C536.799 204.1 543.199 202.3 547.399 198.7C551.699 195 547.299 197.4 554.399 193.9C561.699 190.4 565.499 184.8 561.599 185.4C557.699 186 554.299 190.4 551.199 192.1C548.199 193.8 546.499 194.1 546.999 193.1C547.499 192.1 549.699 192.5 553.899 189.1C557.999 185.8 557.099 186.1 557.099 184.9C557.099 183.7 555.599 180.9 561.799 177.5C567.999 174.2 587.399 163 589.099 159C589.099 159 583.399 159.6 575.899 165.1C571.785 168.537 567.288 171.49 562.499 173.9C560.499 174.7 560.699 174.1 559.399 175.8C556.168 179.203 552.798 182.472 549.299 185.6C547.999 186.6 547.499 187.2 547.399 189.4C547.399 190.4 538.999 196.7 536.399 199.1H536.299Z" fill="#5A3719"/>
<path d="M562.001 184.3C562.001 184.3 560.501 184.9 559.001 184.3C557.701 183.6 558.201 180.7 561.501 178.8C565.465 176.638 569.703 175.024 574.101 174C574.101 174 573.601 177.8 564.001 181.1C564.001 181.1 564.601 183.1 562.001 184.3Z" fill="#5A3719"/>
<path d="M565.4 181.8C565.4 181.8 565.7 182.8 565.4 183.6C565.4 183.6 583.3 185.3 592.5 174.4C592.5 174.4 579.8 175.6 574.8 178.7C574.8 178.7 578 174.7 587.5 171.4C597 168.1 600.9 164 601.7 161.7C601.7 161.7 589.7 166 584 166C584 166 582.8 166 581.7 166.5C580.6 167.2 572.9 172.7 570.9 173.7C570.9 173.7 575.2 173.3 576.8 171.9C576.8 171.9 573.8 179.9 565.4 181.9V181.8Z" fill="#AA5323"/>
<path d="M531 192C531 192 528.7 193.7 529.7 194.4C530.7 195.3 532.3 195.4 535.7 192.5C539.3 189.5 547.8 182.3 542.5 182C542.5 182 535.5 181.6 535.8 185.8C536.1 190 531.4 191.8 531 192ZM515.1 189.5C515.1 189.5 519.7 192.2 517.9 194.4C517.9 194.4 531.9 182.6 527.9 180C524.1 177.4 521 182.3 521.9 182.7C522.9 183.3 524.9 182.3 524.2 183.3C521.351 185.577 518.343 187.649 515.2 189.5H515.1ZM511.5 185.7C511.5 185.7 514.5 186.7 514.7 188C514.8 189.2 523.9 181.6 521.5 178.3C520.4 176.8 515.5 176.3 515.1 179.1C514.9 182.1 519.7 178.8 518.1 180.9C515.9 183.6 512.2 185.3 511.5 185.7ZM544.1 179.3C544.1 179.3 542.2 180.7 544 181.6C545.8 182.3 546.8 181 547.7 180.3C548.6 179.6 553 176.3 553.9 174.3C554.8 172.3 556.4 171.6 558 170.6C559.6 169.6 570.6 164 577.5 157.9C584.3 151.8 581.5 153.4 588.5 149.5C595.5 145.6 600.2 142 601.7 137.7C601.7 137.7 598.4 138.7 595.5 140.7L584.8 147.2C583.5 147.7 581.8 147.8 580.8 148.8C579.8 149.8 579.8 151.1 576.5 153.8C573 156.7 555.5 169.1 553.3 170.8L544.1 179.3Z" fill="#5A3719"/>
<path d="M530 183.4C530 183.4 532 182.4 535.6 182.6C539.2 182.8 553.4 169 557.6 166.3C563.988 161.913 570.225 157.311 576.3 152.5C578.1 150.7 578.3 148.9 579.9 147.9C581.4 146.9 582.9 147 586.3 145C589.7 143 606.6 133 605.6 127.2C605.6 127.2 580.6 142.2 574.9 147C566.909 153.231 558.669 159.136 550.2 164.7C547.4 166.6 545.2 169.7 540.3 173.5C535.6 177.4 530.8 180.7 530 183.5V183.4Z" fill="#AA5323"/>
<path d="M524.801 178C524.801 178 529.401 177.6 530.001 179.9C530.001 179.9 540.001 173.1 542.201 170.3C544.401 167.5 541.401 169.1 547.101 165.4C556.276 159.285 565.28 152.916 574.101 146.3C576.801 144 581.901 140.8 586.001 138.1C590.001 135.3 605.901 127.5 604.101 121.1L589.901 130.6C587.201 132.4 586.001 131.4 583.401 133.5C580.801 135.6 574.901 139.8 573.901 141.1C569.311 145.034 564.503 148.707 559.501 152.1C555.101 155.1 545.401 160.7 540.601 164.9L524.801 178.1V178Z" fill="#AA5323"/>
<path d="M510.4 176.8C510.4 176.8 512.7 176.8 513.5 177.7C513.5 177.7 517.8 173.8 522.4 177.7C522.4 177.7 539.2 166.2 540.9 163.3C542.6 160.5 545.4 160.4 551.9 155.7C558.5 150.9 562.6 148.8 566.9 145.5C571.3 142.1 575 138.2 578.1 136.2C581.2 134.2 589.1 129 587.9 124.5C587.9 124.5 581.4 128.1 577.3 132.7C573.1 137.3 573.5 133.4 569.2 137.2C564.26 141.745 558.787 145.673 552.9 148.9C547.4 151.6 550.7 151.3 546.7 153.9C542.8 156.4 543.1 155.9 541.7 156.4C539.737 156.863 537.959 157.908 536.6 159.4C535 161.1 531.2 163.4 527 165.9C521.141 169.011 515.584 172.66 510.4 176.8Z" fill="#AA5323"/>
<path d="M515.499 168C515.499 168 514.499 166.1 516.199 164.7C517.899 163.3 520.799 159.9 521.199 157.7C521.599 155.5 521.299 155.8 525.999 153.9C539.532 148.216 552.353 140.967 564.199 132.3C565.999 130.8 570.599 127.7 572.499 126.1C572.499 126.1 573.299 128.6 571.299 130.3C564.432 135.685 557.253 140.66 549.799 145.2C546.471 146.801 543.263 148.639 540.199 150.7C538.299 152.3 538.599 152.7 529.999 157C521.499 161.1 520.999 161.6 521.299 161.9C521.599 162.2 525.499 160.6 527.299 159.5C529.099 158.4 536.099 155.2 538.299 153.5C540.526 151.689 542.864 150.02 545.299 148.5C551.431 144.983 557.435 141.247 563.299 137.3C566.799 134.6 567.799 133.8 568.599 134.3C569.399 134.8 570.599 134.7 568.999 136.3C567.399 137.9 562.299 142.3 560.299 143.6C558.299 144.9 552.199 148.6 550.499 149.4C548.799 150.4 548.099 151.9 547.099 152.6C546.099 153.3 543.399 155.3 540.099 156.1C536.799 156.9 536.099 159.4 533.799 160.9C531.499 162.3 515.799 170.9 515.299 171.2C515.299 171.2 516.199 170.2 515.499 168Z" fill="#AA5323"/>
<path d="M570.299 132.4C570.299 132.4 569.399 133.2 569.899 133.6C570.499 134.2 572.699 135.8 575.499 133C579.41 129.359 583.589 126.017 587.999 123C590.299 121.5 591.599 120.2 591.499 118.3C591.499 118.3 580.099 124.3 570.299 132.4ZM585.899 131.4C585.899 131.4 587.599 128.5 591.899 125.7C596.199 123 602.699 119 603.399 118.1C603.399 118.1 604.999 119.8 601.699 121.9L590.899 128.9C590.199 129.6 588.899 130.5 585.899 131.4Z" fill="#AA5323"/>
<path d="M498.999 163C498.999 163 494.199 165.6 495.899 167.2C497.599 168.7 500.099 168.2 501.299 167.8L504.499 166.8C504.899 166.8 508.999 165.5 510.099 163.6C511.199 161.7 513.899 159.4 516.099 157.8C518.299 156.2 519.099 154.6 518.799 153.5L498.999 163ZM470.599 185C470.599 185 473.999 183 478.599 184.3C478.599 184.3 478.399 183.2 477.599 182.6C477.599 182.6 483.299 181.1 484.499 178.6C485.699 176.1 485.999 176.6 486.999 176C488.199 175.2 495.699 169.2 494.799 167.9C493.899 166.6 493.799 164.8 493.099 164.2C493.099 164.2 491.599 166.3 484.099 169.9C476.899 173.5 468.699 176.1 462.699 184.1C456.699 192.1 457.399 196.7 464.699 198.8C464.699 198.8 469.699 195.6 482.299 196.7C494.699 197.8 498.899 202.5 499.699 203.3C500.499 204.2 502.999 207.3 500.599 212.4C500.599 212.4 503.099 213.5 503.199 211.1C503.499 208.8 503.599 209.3 504.199 209.6C504.799 209.9 505.499 210.1 505.199 208.2C504.951 205.664 504.167 203.21 502.899 201C501.799 199.5 503.099 200.2 503.799 200.4C504.499 200.6 507.099 202.9 505.599 198.9C504.099 195.1 503.599 196.9 503.599 197.1C503.599 197.4 503.199 198.3 499.799 195.7C497.16 193.707 494.177 192.215 490.999 191.3C488.699 190.7 490.299 190.7 491.699 190.3C493.099 189.7 494.799 189.5 495.499 187.9C495.499 187.9 494.099 188.2 491.699 187.3C489.759 186.714 487.709 186.589 485.712 186.937C483.715 187.284 481.827 188.093 480.199 189.3C480.199 189.3 481.399 184.8 477.699 185C474.099 185.3 471.499 185.2 467.699 188.2C467.699 188.2 467.399 183.6 471.099 181.2C474.799 178.8 474.299 180.2 476.299 179.6C478.299 179 478.599 176.9 477.699 176.2C477.699 176.2 482.499 177.1 490.499 170.4C490.499 170.4 486.199 176.1 480.999 177.2C480.999 177.2 480.099 180.2 475.299 180.9C470.499 181.6 470.699 184.3 470.699 185H470.599Z" fill="#7B3C20"/>
<path d="M457.001 212.7C457.001 212.7 459.201 198.6 472.501 197.6C483.901 196.6 487.601 198.1 489.901 198.9C492.201 199.7 497.901 201.3 495.701 203.1C493.501 204.9 492.201 204.6 492.201 204.6C492.201 204.6 494.701 201.7 492.401 201.3C490.101 200.8 490.001 202.2 489.701 203.3C489.301 204.6 489.201 205.9 488.101 206.9C488.101 206.9 486.901 205.5 485.201 206.7C483.501 207.9 485.001 207.9 485.701 207.7C486.401 207.5 487.201 207.2 487.001 208.2C486.801 209.2 486.001 211 483.201 212.4C480.401 213.8 480.601 213.7 477.401 214.3C474.101 214.8 471.101 216.1 466.901 219.6C462.701 223.2 458.201 222 457.301 218.1C456.501 214.7 456.901 212.7 456.901 212.7H457.001Z" fill="#5A3719"/>
<path d="M472 212.2C472 212.2 473.2 209.5 471 208.2C471 208.2 464.1 209.4 462 207.3C462 207.3 469.5 206.9 474.2 205C478.8 203.3 477.5 202 475.9 201.6C474.3 201.2 471.3 202.1 471 203.6C471 203.6 470 202 471.2 201C471.855 200.486 472.628 200.144 473.449 200.004C474.269 199.864 475.112 199.932 475.9 200.2C477.6 200.6 479 201.4 484.5 198.6C484.5 198.6 487.6 199.3 487.8 201.4C487.8 203.6 487.5 204.4 487.2 204.7C487 205.233 486.567 205.567 485.9 205.7C485.3 205.5 484.4 205.4 483.6 206.9C483.062 208.335 482.167 209.608 481 210.6C481 210.6 482.5 206 478.5 204.9C478.5 204.9 475.2 206.9 472.7 207C472.7 207 475.9 210 471.9 212.2H472Z" fill="black"/>
<path d="M479.299 203.8C479.299 203.8 477.699 202.2 479.699 201.9C481.699 201.8 484.299 203.3 483.899 204.6C483.299 205.8 480.899 205.7 479.299 203.8Z" fill="#5A3719"/>
<path d="M592.6 181.6C592.6 181.6 588.9 182.6 592.4 184.9C595.8 187.2 597.4 189.1 599.9 189.7C602.4 190.4 604.9 191.2 604.9 193.7C604.9 196.2 604.4 197.2 603 198.9C601.6 200.6 603.8 201.3 605.6 200.4L610.1 198.2C611.2 197.5 613.1 197.6 611.5 198.5C609.6 199.5 607.8 200 610.1 200C612.4 200.1 626.3 200.4 629.2 199.4C632.1 198.4 636 198.2 636.2 194.4C636.2 194.4 636.4 192.8 637.5 192C638.5 191.3 639.3 189.7 637.7 190.8C636.1 192 635.1 192.433 634.7 192.1C634.4 191.8 634.2 191.5 635.4 191C636.6 190.5 637.2 191 638.3 189.5C639.3 187.9 639.3 188.1 638.7 187.5C638.1 186.9 636.9 186.5 637.5 185.7C638.1 184.9 638.7 182.7 636.1 184C633.5 185.3 628.5 188.8 626.1 189.3C623.9 189.8 622.1 190.5 619 191.1C615.9 191.7 614 192.5 610.5 194.4C607.2 196.2 607.5 193.3 608 192.9C608 192.9 609.3 195.2 612.7 192.2C616.1 189.3 615 192.1 623.3 189.3C631.6 186.5 629.6 186.2 632.8 184.5C636 182.8 639.2 182.7 636.8 180.5C634.6 178.1 634.4 178 631.5 180.5C626.783 183.933 621.283 186.133 615.5 186.9C615.5 186.9 634.3 178.9 632.4 177.7C630.759 176.623 628.975 175.781 627.1 175.2C625.8 174.9 625.4 174.6 622.4 176C619.4 177.4 618.9 177.6 618.1 177.7C617.033 177.633 614.7 178.433 611.1 180.1C607.5 182 605.6 182.7 603.1 184.1C603.1 184.1 604.8 180.8 612.2 178.6C619.6 176.4 623.3 174.4 622.6 174C621.9 173.6 619.9 173.2 618.6 173.5C617.1 173.8 617.6 173.4 613 175.2C608.4 177 610.4 176.6 606.8 177.4C603.1 178.1 601.7 178.9 599.9 179.7C599.9 179.7 600.7 178.7 603 177.8C604.3 177.4 601.7 176.9 605.2 176.8H606.2C609.211 176.12 612.107 175.009 614.8 173.5C614.1 173.4 609.7 172.9 605.3 175.1C600.8 177.1 602.8 176.4 601.3 176.6C599.7 177 596.3 179 595.3 180C594.2 180.9 592.6 181.5 592.6 181.5V181.6Z" fill="white"/>
<path d="M482.7 201.8C482.7 201.8 484.5 202.3 484.9 203.6C485.4 204.8 486.5 203 486.5 202.5C486.4 201.9 485.3 199.5 483.5 200.6C481.5 201.7 482.5 201.7 482.7 201.8Z" fill="#5A3719"/>
<path d="M477.9 226C477.9 226 481.6 224.2 484.8 224.5C484.8 224.5 483.5 220.1 485.7 220.8C487.8 221.6 487.2 221.2 487.7 221.2C487.7 221.2 487.8 218.3 487.2 217.2C487.2 217.2 489.5 217.7 491.8 217.7C491.8 217.7 489.6 213.6 492 210.7C492.439 211.517 493.037 212.238 493.758 212.822C494.479 213.405 495.309 213.84 496.2 214.1V211.8C496.2 211.8 497.9 211.5 499.2 212.2C500.6 213 501.7 204.6 497.7 202.9C497.7 202.9 496.7 204.4 493 205.2C489.3 206 489.3 206.7 487.8 209.5C486.3 212.3 484.8 212.4 481.6 214.5C478.6 216.5 476.6 220.5 476.6 220.9C476.6 220.9 478.1 222.9 477.9 226Z" fill="#7B3C20"/>
<path d="M603.1 177.8C604.4 177.6 601.7 176.9 605.1 176.8H606.1C609.145 176.13 612.076 175.018 614.8 173.5C614.1 173.4 609.7 172.9 605.3 175C600.9 177.1 602.8 176.4 601.3 176.7C599.7 177 596.3 179 595.3 180C594.2 180.9 592.6 181.5 592.6 181.5C592.6 181.5 588.9 182.5 592.4 184.9C595.8 187.2 597.4 189.1 599.9 189.7C602.4 190.4 604.9 191.2 604.9 193.7C604.953 194.65 604.812 195.602 604.486 196.496C604.159 197.39 603.653 198.208 603 198.9C601.7 200.6 603.8 201.3 605.6 200.4L610.1 198.2C611.2 197.5 613.1 197.6 611.4 198.5C609.6 199.5 607.8 200 610.1 200C612.4 200.1 626.3 200.4 629.2 199.4C632.1 198.4 636 198.2 636.2 194.4C636.2 194.4 636.4 192.8 637.5 192C638.5 191.3 639.3 189.7 637.7 190.8C636.2 191.9 634.9 192.5 634.7 192.1C634.5 191.7 634.2 191.5 635.4 191C636.6 190.5 637.2 191 638.3 189.5C639.3 187.9 639.3 188.1 638.7 187.5L637.7 186.6C637.7 186.6 636.8 185.9 635.8 186.5C633.598 187.71 631.244 188.618 628.8 189.2C627.333 189.333 625.167 190.133 622.3 191.6C618 193.8 614.1 196.2 613.3 193.3L610.5 194.3C607.1 196.1 607.5 193.6 608 192.9C608 192.9 606.2 194.9 606.3 193.1C606.3 191.3 607.5 191.6 609.6 191C611.7 190.4 614.6 189 613.4 188C612.2 187 610.7 189 609.2 189.8C607.8 190.5 604.9 191 604.4 188.9C603.9 186.8 604 185.3 600.1 185.1C596.1 184.9 596.2 182.4 597.3 181.3C598.4 180.2 599.3 178.5 603 177.8H603.1Z" fill="#999999"/>
<path d="M615.599 196.9C615.599 196.9 621.699 194.1 627.299 192.8C632.999 191.5 628.499 193 627.599 193.2C626.599 193.5 617.899 196.4 615.799 197.4C613.799 198.4 614.099 197.6 615.599 197V196.9ZM617 198.2C617 198.2 623.9 195.9 625.2 196.8C626.5 197.8 625.4 197.4 623.9 197.6C622.3 197.7 618.199 198.4 617.099 198.4C615.999 198.4 617 198.2 617 198.2ZM628 195.7C628 195.7 629.4 195.5 629.5 196.1C629.6 196.5 628.9 196.6 628.2 196.5C627.5 196.4 626.899 196 628.099 195.7H628Z" fill="black"/>
<path d="M446 255.9C446 255.9 445.7 249.7 448.8 246.7C451.9 243.7 466.6 228.2 468.9 223.9C468.9 223.9 470.9 225.2 470.9 227.7C470.9 227.7 473.4 223.4 475.4 221.7C475.4 221.7 477.1 223.5 476.9 227.1C476.9 227.1 480.4 225.2 485.9 225.2C485.9 225.2 483.9 227.6 483.8 229.1C483.8 229.1 491.4 228.1 495.5 228.8C495.5 228.8 484.9 234.8 487.8 235.3C490.9 235.8 494 235.3 494 235.3C494 235.3 490.6 238.6 485.2 239.3C485.2 239.3 492.1 239.3 493.4 240.8C493.4 240.8 486.8 241.8 481.4 245.8C481.4 245.8 481 245.6 481 244.1C481 244.1 480.7 245.5 479.2 246.8C477.7 248 474.1 250.8 472.7 252.1C471.3 253.4 468.9 256.1 466.1 256.1C466.1 256.1 466.7 254 464.7 253.3C463.658 252.982 462.549 252.953 461.492 253.218C460.435 253.482 459.47 254.029 458.7 254.8C458.7 254.8 451.7 254.9 449.3 255.3C449.3 255.3 450.9 252.7 452.3 252.7C453.9 252.7 459.9 253.7 460.4 249.5C461 245.5 456.6 246.5 458.2 244.1C459.9 241.7 459.5 241.9 459.6 241.5C459.6 241.5 458.2 242.3 457.4 244.5C456.727 246.921 455.244 249.039 453.2 250.5C451.232 251.769 449.588 253.482 448.4 255.5C448.4 255.5 447.1 255.5 446 255.9Z" fill="white"/>
<path d="M452.801 252.2C452.801 252.2 453.101 251.4 455.101 251C457.301 250.7 457.401 249.7 457.101 249.2C456.801 248.7 455.601 248.8 457.601 246.4C457.601 246.4 458.401 246.7 458.801 247.2C459.401 247.8 461.701 252.7 452.801 252.2Z" fill="white"/>
<path d="M447.9 247.9C447.9 251.9 453.2 250.4 453.2 250.4C451.789 251.437 450.512 252.646 449.4 254C449.8 252 446.4 251.5 446.4 251.5C446.701 250.226 447.207 249.01 447.9 247.9ZM467.2 226.4L468.9 223.9C468.9 223.9 470.9 225.2 470.9 227.7C470.9 227.7 473.4 223.4 475.4 221.7C475.4 221.7 477.1 223.5 476.9 227.1C476.9 227.1 480.4 225.2 485.9 225.2C485.9 225.2 483.9 227.6 483.8 229.1C483.8 229.1 491.4 228.1 495.5 228.8C495.5 228.8 484.9 234.8 487.8 235.3C490.9 235.8 494 235.3 494 235.3C494 235.3 490.6 238.6 485.2 239.3C485.2 239.3 492.1 239.3 493.4 240.8C493.4 240.8 491.4 241.1 488.8 242C488.8 242 486.9 240.2 481.2 240.5C481.2 240.5 485.6 237.9 489.2 237.1C489.2 237.1 487.6 235.1 485.2 237C485.2 237 480.3 233.7 484.4 230.8C484.4 230.8 481.6 230.3 479.7 231.6C479.7 231.6 479.7 229.3 481.8 228.3C481.8 228.3 476.4 227.3 475.1 231.3C475.1 231.3 474.1 229.8 474.6 227.9C474.6 227.9 471.3 229.8 469.8 231.9C469.8 231.9 469.3 227.9 467.2 226.4ZM456.8 252C455.867 252.2 454.534 252.267 452.8 252.2C452.667 252.134 453.1 251.8 454.1 251.2C454.1 251.2 454.5 252 456.8 252Z" fill="#999999"/>
<path d="M466.6 236.7C466.6 236.7 469.1 238.7 469.9 239.7C469.9 239.7 472.2 238.3 472.9 237C472.9 237 474.8 238.1 475.3 239.8C475.3 239.8 476.6 239 476.8 237.8C476.8 237.8 479.8 238.4 481 239.4C481 239.4 481.4 236.4 481 234.6C481 234.6 483.1 234.8 484.4 235.3C484.4 235.3 483.2 233.3 489.4 230.8C489.4 230.8 484.7 231.9 482.9 233.8C482.9 233.8 480.9 234 480 233.4V237.9C480 237.9 478.8 237.3 476.5 236.8C476.5 236.8 475.9 237.8 475.5 238C475.5 238 474 236.8 473.4 235.3C473.4 235.3 471.1 237.4 470.4 238.3C470.4 238.3 468.1 236.7 466.6 236.7Z" fill="black"/>
<path d="M452.5 267.3C452.5 267.3 453.5 267.7 455.8 265.9C458.1 264.1 464.5 260 465 256.7C465.7 253.4 463 253.3 461 254.2C458.8 255.2 459.7 256.9 459.8 257.6C459.8 258.2 460 260.5 456.5 263.6L452.5 267.3Z" fill="#FFC221"/>
<path d="M451.901 268.3C451.901 268.3 446.701 266.1 451.301 263.8C455.901 261.5 458.001 260.9 458.501 258.9C459.101 257 458.701 257.4 457.001 258.2C455.301 258.9 448.801 262 447.801 259.2C447.801 259.2 450.501 260.2 453.801 258.6C457.201 256.9 460.001 256.5 457.801 255.8C454.129 255.417 450.422 255.586 446.801 256.3C445.401 256.7 445.801 256.6 445.501 257.9C445.301 259.2 443.901 261.9 443.301 262.6C442.801 263.4 441.501 266.6 443.901 268.1C445.128 268.748 446.489 269.104 447.877 269.138C449.265 269.173 450.642 268.886 451.901 268.3Z" fill="#FFC221"/>
<path d="M449.9 257C449.9 257 448.6 257.2 448.9 257.7C449.1 258.1 449.434 258.233 449.9 258.1C450.2 258.1 450.9 257.9 451 257.6C451 257.3 450.2 256.9 449.9 257.1V257Z" fill="black"/>
<path d="M451.5 267.1C451.5 267.1 449.1 266 451.9 264.5C454.7 263 457.5 261.5 457.9 260.9C457.9 260.9 456.6 262.8 451.5 267.1Z" fill="white"/>
</g>
<defs>
<clipPath id="clip0_3921_184">
<rect width="640" height="480" fill="white"/>
</clipPath>
</defs>
</svg>
