<svg width="640" height="480" viewBox="0 0 640 480" fill="none" xmlns="http://www.w3.org/2000/svg">
<g clip-path="url(#clip0_3921_819)">
<path d="M0 0H640V480H0V0Z" fill="#CE1720"/>
<mask id="mask0_3921_819" style="mask-type:luminance" maskUnits="userSpaceOnUse" x="5" y="0" width="111" height="480">
<path d="M5 0H110.77V324.265H115.001V475.73L110.77 479.997H5V0Z" fill="white"/>
</mask>
<g mask="url(#mask0_3921_819)">
<path d="M24.0389 0V7.46662H19.2793V14.9332H13.4619V23.4665H9.23113V30.3998H0.769531V12.7999H9.23113V3.19998H0.769531V0H24.0389ZM37.789 41.0664V49.0664H33.5582V55.4663H29.3274V49.0664H25.0966V41.0664H20.8658V30.3998H25.0966V22.3999H29.3274V15.9999H33.5582V22.3999H37.789V30.3998H42.0198V41.0664H37.789ZM28.7986 40.5331H34.0871V30.9331H28.7986V40.5331ZM15.0485 97.5994H19.2793V87.9994H15.0485V97.5994ZM43.6064 97.5994H47.8372V87.9994H43.6064V97.5994ZM0.769531 162.666H8.17343V169.599H11.3465V178.132H16.1062V186.132H22.4524V178.132H27.212V169.599H31.4428V162.666H25.0966V154.666H36.2025V159.999H43.0775V169.066H48.8949V179.199H44.6641V186.665H40.9621V193.599H37.789V201.065H33.0294V207.465H29.3274V213.332H24.5678V220.799H17.6927V212.799H12.9331V205.332H9.23113V200.532H0.769531V188.265H9.23113V177.599H0.769531V162.666Z" fill="white"/>
<path d="M91.7316 0V7.46662H96.4912V14.9332H102.309V23.4665H106.539V30.3998H115.001V12.7999H106.539V3.19998H115.001V0H91.7316ZM77.9815 41.0664V49.0664H82.2123V55.4663H86.4431V49.0664H90.6739V41.0664H94.9047V30.3998H90.6739V22.3999H86.4431V15.9999H82.2123V22.3999H77.9815V30.3998H73.7507V41.0664H77.9815ZM86.9719 40.5331H81.6834V30.9331H86.9719V40.5331ZM100.722 97.5994H96.4912V87.9994H100.722V97.5994ZM72.1641 97.5994H67.9333V87.9994H72.1641V97.5994ZM115.001 162.666H107.597V169.599H104.424V178.132H99.6643V186.132H93.3181V178.132H88.5585V169.599H84.3277V162.666H90.6739V154.666H79.568V159.999H72.693V169.066H66.8756V179.199H71.1064V186.665H74.8084V193.599H77.9815V201.065H82.7411V207.465H86.4431V213.332H91.2027V220.799H98.0778V212.799H102.837V205.332H106.539V200.532H115.001V188.265H106.539V177.599H115.001V162.666Z" fill="white"/>
<path d="M55.7699 0V17.0666H60.0007V0H76.9239V7.46662H72.6931V14.9332H66.3469V23.4665H62.1161V30.3998H53.6545V23.4665H49.4237V14.9332H43.0775V7.46662H38.8467V0H55.7699ZM54.7122 146.132V140.266H51.5391V133.332H47.8372V125.866H43.6064V118.399H39.3756V113.066H34.6159V105.599H28.2697V113.066H23.5101V118.399H19.8081V125.866H15.5773V133.332H12.4042V140.266H9.23113V149.332H0.769531V125.866H9.23113V115.199H0.769531V97.5994H9.23113V105.066H14.5196V112.533H19.8081V105.066H25.0966V97.5994H29.3274V87.9994H25.0966V80.5328H19.8081V73.0662H14.5196V80.5328H9.23113V87.9994H0.769531V66.1329H9.23113V55.9996H0.769531V41.0664H9.23113V47.9997H13.4619V56.533H19.2793V63.4663H24.0389V71.4662H27.7409V77.8662H35.1448V71.4662H38.8467V63.4663H43.6064V56.533H49.4237V47.9997H53.6545V41.0664H62.1161V47.9997H66.3469V56.533H72.1643V63.4663H76.9239V71.4662H80.6259V77.8662H88.0298V71.4662H91.7317V63.4663H96.4914V56.533H102.309V47.9997H106.54V41.0664H115.001V55.9996H106.54V66.1329H115.001V87.9994H106.54V80.5328H101.251V73.0662H95.9625V80.5328H90.674V87.9994H86.4432V97.5994H90.674V105.066H95.9625V112.533H101.251V105.066H106.54V97.5994H115.001V115.199H106.54V125.866H115.001V149.332H106.54V140.266H103.366V133.332H100.193V125.866H95.9625V118.399H92.2606V113.066H87.5009V105.599H81.1547V113.066H76.3951V118.399H72.1643V125.866H67.9335V133.332H64.2315V140.266H61.0584V146.132H54.7122ZM55.7699 57.0663V71.4662H60.0007V57.0663H55.7699ZM53.6545 87.9994V80.5328H48.366V73.0662H43.0775V80.5328H37.789V87.9994H33.5582V97.5994H37.789V105.066H43.0775V112.533H48.366V105.066H53.6545V97.5994H62.1161V105.066H67.4046V112.533H72.6931V105.066H77.9816V97.5994H82.2124V87.9994H77.9816V80.5328H72.6931V73.0662H67.4046V80.5328H62.1161V87.9994H53.6545ZM55.7699 112.533V126.933H60.0007V112.533H55.7699Z" fill="white"/>
<path d="M24.0389 479.997V472.53H19.2793V465.064H13.4619V456.531H9.23113V449.597H0.769531V467.197H9.23113V476.797H0.769531V479.997H24.0389ZM37.789 438.931V430.931H33.5582V424.531H29.3274V430.931H25.0966V438.931H20.8658V449.597H25.0966V457.597H29.3274V463.997H33.5582V457.597H37.789V449.597H42.0198V438.931H37.789ZM28.7986 439.464H34.0871V449.064H28.7986V439.464ZM15.0485 382.398H19.2793V391.998H15.0485V382.398ZM43.6064 382.398H47.8372V391.998H43.6064V382.398ZM0.769531 317.331H8.17343V310.398H11.3465V301.865H16.1062V293.865H22.4524V301.865H27.212V310.398H31.4428V317.331H25.0966V325.331H36.2025V319.998H43.0775V310.931H48.8949V300.798H44.6641V293.332H40.9621V286.398H37.789V278.932H33.0294V272.532H29.3274V266.665H24.5678V259.198H17.6927V267.198H12.9331V274.665H9.23113V279.465H0.769531V291.732H9.23113V302.398H0.769531V317.331Z" fill="white"/>
<path d="M91.7316 479.997V472.53H96.4912V465.064H102.309V456.531H106.539V449.597H115.001V467.197H106.539V476.797H115.001V479.997H91.7316ZM77.9815 438.931V430.931H82.2123V424.531H86.4431V430.931H90.6739V438.931H94.9047V449.597H90.6739V457.597H86.4431V463.997H82.2123V457.597H77.9815V449.597H73.7507V438.931H77.9815ZM86.9719 439.464H81.6834V449.064H86.9719V439.464ZM100.722 382.398H96.4912V391.998H100.722V382.398ZM72.1641 382.398H67.9333V391.998H72.1641V382.398ZM115.001 317.331H107.597V310.398H104.424V301.865H99.6643V293.865H93.3181V301.865H88.5585V310.398H84.3277V317.331H90.6739V325.331H79.568V319.998H72.693V310.931H66.8756V300.798H71.1064V293.332H74.8084V286.398H77.9815V278.932H82.7411V272.532H86.4431V266.665H91.2027V259.198H98.0778V267.198H102.837V274.665H106.539V279.465H115.001V291.732H106.539V302.398H115.001V317.331Z" fill="white"/>
<path d="M55.7699 479.997V462.931H60.0007V479.997H76.9239V472.53H72.6931V465.064H66.3469V456.531H62.1161V449.597H53.6545V456.531H49.4237V465.064H43.0775V472.53H38.8467V479.997H55.7699ZM54.7122 333.865V339.731H51.5391V346.665H47.8372V354.131H43.6064V361.598H39.3756V366.931H34.6159V374.398H28.2697V366.931H23.5101V361.598H19.8081V354.131H15.5773V346.665H12.4042V339.731H9.23113V330.665H0.769531V354.131H9.23113V364.798H0.769531V382.398H9.23113V374.931H14.5196V367.464H19.8081V374.931H25.0966V382.398H29.3274V391.998H25.0966V399.464H19.8081V406.931H14.5196V399.464H9.23113V391.998H0.769531V413.864H9.23113V423.997H0.769531V438.931H9.23113V431.997H13.4619V423.464H19.2793V416.531H24.0389V408.531H27.7409V402.131H35.1448V408.531H38.8467V416.531H43.6064V423.464H49.4237V431.997H53.6545V438.931H62.1161V431.997H66.3469V423.464H72.1643V416.531H76.9239V408.531H80.6259V402.131H88.0298V408.531H91.7317V416.531H96.4914V423.464H102.309V431.997H106.54V438.931H115.001V423.997H106.54V413.864H115.001V391.998H106.54V399.464H101.251V406.931H95.9625V399.464H90.674V391.998H86.4432V382.398H90.674V374.931H95.9625V367.464H101.251V374.931H106.54V382.398H115.001V364.798H106.54V354.131H115.001V330.665H106.54V339.731H103.366V346.665H100.193V354.131H95.9625V361.598H92.2606V366.931H87.5009V374.398H81.1547V366.931H76.3951V361.598H72.1643V354.131H67.9335V346.665H64.2315V339.731H61.0584V333.865H54.7122ZM55.7699 422.931V408.531H60.0007V422.931H55.7699ZM53.6545 391.998V399.464H48.366V406.931H43.0775V399.464H37.789V391.998H33.5582V382.398H37.789V374.931H43.0775V367.464H48.366V374.931H53.6545V382.398H62.1161V374.931H67.4046V367.464H72.6931V374.931H77.9816V382.398H82.2124V391.998H77.9816V399.464H72.6931V406.931H67.4046V399.464H62.1161V391.998H53.6545ZM55.7699 367.464V353.065H60.0007V367.464H55.7699Z" fill="white"/>
<path d="M0.769531 217.599H9.23113V225.065H12.9331V229.332H17.1639V236.799H20.8658V243.199H17.1639V250.665H12.9331V254.932H9.23113V262.398H0.769531V217.599ZM115.001 217.599V262.398H106.54V254.932H102.838V250.665H98.6068V243.199H94.9048V236.799H98.6068V229.332H102.838V225.065H106.54V217.599H115.001ZM37.789 244.799H42.0198V235.199H37.789V244.799ZM77.9816 244.799V235.199H73.7508V244.799H77.9816ZM55.7699 213.332H60.0007V203.732H55.7699V213.332ZM55.7699 266.665V276.265H60.0007V266.665H55.7699ZM29.3274 226.665H36.7313V220.799H42.0198V215.465H44.6641V210.132H47.8372V202.666H52.068V195.199H54.1834V188.266H61.5873V195.199H63.7027V202.666H67.9335V210.132H71.1066V215.465H73.7508V220.799H79.0393V226.665H86.4432V253.332H79.0393V259.199H73.7508V264.532H71.1066V269.865H67.9335V277.332H63.7027V284.798H61.5873V291.732H54.1834V284.798H52.068V277.332H47.8372V269.865H44.6641V264.532H42.0198V259.199H36.7313V253.332H29.3274V226.665ZM55.7699 231.465V223.465H51.5391V218.132H47.3083V231.465H51.5391V236.265H54.1834V243.732H51.5391V248.532H47.3083V261.865H51.5391V256.532H55.7699V248.532H60.0007V256.532H64.2315V261.865H68.4623V248.532H64.2315V243.732H61.5873V236.265H64.2315V231.465H68.4623V218.132H64.2315V223.465H60.0007V231.465H55.7699Z" fill="white"/>
</g>
<path d="M110 320H640V480H110V320Z" fill="#007C30"/>
</g>
<defs>
<clipPath id="clip0_3921_819">
<rect width="640" height="480" fill="white"/>
</clipPath>
</defs>
</svg>
