<svg width="640" height="480" viewBox="0 0 640 480" fill="none" xmlns="http://www.w3.org/2000/svg">
<g clip-path="url(#clip0_3921_971)">
<path d="M150.1 0H489.8V480H150L150.1 0Z" fill="white"/>
<path d="M-19.6992 0H150.101V480H-19.6992V0ZM489.801 0H659.601V480H489.901L489.801 0ZM201.001 232L187.701 236.4L249.101 290.4C253.801 304.1 247.501 308.2 243.501 315.4L310.101 307L308.501 374L322.401 373.7L319.301 307.1L386.001 315.1C381.901 306.4 378.201 301.8 382.001 287.9L443.301 236.9L432.601 232.9C423.801 226.1 436.401 200.3 438.201 184C438.201 184 402.501 196.3 400.201 189.8L391.001 172.3L358.401 208.1C354.901 209 353.401 207.6 352.501 204.6L367.501 129.8L343.701 143.2C341.567 144.067 339.834 143.333 338.501 141L315.501 95L291.901 142.8C290.034 144.467 288.367 144.7 286.901 143.5L264.001 130.8L277.701 204.9C276.601 207.9 274.001 208.7 271.001 207.1L239.801 171.8C235.801 178.3 233.001 188.9 227.601 191.3C222.201 193.7 204.101 186.8 192.001 184.3C196.201 199.1 209.001 223.9 201.001 232Z" fill="#D52B1E"/>
</g>
<defs>
<clipPath id="clip0_3921_971">
<rect width="640" height="480" fill="white"/>
</clipPath>
</defs>
</svg>
