<svg width="640" height="480" viewBox="0 0 640 480" fill="none" xmlns="http://www.w3.org/2000/svg">
<g clip-path="url(#clip0_3921_1099)">
<mask id="mask0_3921_1099" style="mask-type:luminance" maskUnits="userSpaceOnUse" x="-1" y="0" width="643" height="482">
<path d="M-0.295898 0H641.348V481.28H-0.295898V0Z" fill="white"/>
</mask>
<g mask="url(#mask0_3921_1099)">
<path fill-rule="evenodd" clip-rule="evenodd" d="M-0.29565 219.02H795.32V412.66H-0.389648L-0.29565 219.02Z" fill="white"/>
<path fill-rule="evenodd" clip-rule="evenodd" d="M0.268555 0H795.509V241.204H0.268555V0ZM0.550558 362.746H801.525V481.28H0.550558V362.746Z" fill="#081873"/>
<path fill-rule="evenodd" clip-rule="evenodd" d="M0.550781 284.444H795.791V321.668H0.550781V284.444Z" fill="#DE3929"/>
<path fill-rule="evenodd" clip-rule="evenodd" d="M238.841 375.248L245.045 394.424H265.161L248.805 406.362L255.009 425.632L238.841 413.6L222.485 425.538L228.783 406.268L212.427 394.33H232.637M413.681 235.376L419.979 254.646H440.001L423.645 266.49L429.849 285.76L413.493 273.822L397.137 285.76L403.341 266.49L386.985 254.646H407.289M198.609 315.182L204.813 334.452H225.023L208.761 346.484L215.059 365.66L198.703 353.816L182.347 365.66L188.551 346.484L172.195 334.546H192.405M413.681 309.73L419.979 328.906H440.001L423.645 340.844L429.849 360.02L413.493 348.176L397.137 360.114L403.341 340.844L386.985 328.906H407.289M369.219 176.908L375.517 196.084H395.821L379.465 208.022L385.669 227.292L369.313 215.354L352.957 227.292L359.255 208.022L342.805 196.084H363.109M302.479 153.596L308.777 172.866H328.987L312.631 184.71L318.835 203.98L302.479 192.136L286.123 203.98L292.421 184.71L276.065 172.866H296.181M235.551 175.592L241.849 194.862H262.059L245.703 206.706L252.001 225.976L235.551 214.038L219.195 225.976L225.493 206.706L209.137 194.862H229.441M196.729 235.47L202.933 254.74H223.237L206.787 266.584L213.085 285.854L196.729 273.916L180.373 285.854L186.577 266.584L170.221 254.74H190.431M302.479 395.176L308.777 414.446H328.987L312.631 426.29L318.929 445.56L302.479 433.622L286.123 445.56L292.421 426.29L276.065 414.446H296.181M373.449 375.248L379.653 394.424H399.863L383.601 406.362L389.899 425.632L373.543 413.694L357.093 425.632L363.391 406.362L347.035 394.424H367.245" fill="#FFCE08"/>
</g>
</g>
<defs>
<clipPath id="clip0_3921_1099">
<rect width="640" height="480" fill="white"/>
</clipPath>
</defs>
</svg>
