<svg width="640" height="480" viewBox="0 0 640 480" fill="none" xmlns="http://www.w3.org/2000/svg">
<g clip-path="url(#clip0_3921_2196)">
<path d="M320 0H640V480H320V0Z" fill="white"/>
<path d="M0 0H320V480H0V0Z" fill="#006233"/>
<path d="M423.999 180C410.791 157.123 390.403 139.244 365.998 129.135C341.593 119.025 314.534 117.252 289.018 124.089C263.502 130.926 240.955 145.991 224.874 166.949C208.793 187.906 200.076 213.584 200.076 240C200.076 266.416 208.793 292.094 224.874 313.051C240.955 334.009 263.502 349.074 289.018 355.911C314.534 362.748 341.593 360.975 365.998 350.866C390.403 340.757 410.791 322.877 423.999 300C411.568 315.526 394.622 326.808 375.502 332.287C356.382 337.765 336.032 337.169 317.265 330.582C298.498 323.995 282.24 311.741 270.739 295.515C259.237 279.288 253.059 259.89 253.059 240C253.059 220.111 259.237 200.712 270.739 184.485C282.24 168.259 298.498 156.005 317.265 149.418C336.032 142.831 356.382 142.235 375.502 147.714C394.622 153.192 411.568 164.474 423.999 180ZM427.999 240L319.999 204.8L387.199 296.8V183.2L319.999 275.2L427.999 240Z" fill="#D21034"/>
</g>
<defs>
<clipPath id="clip0_3921_2196">
<rect width="640" height="480" fill="white"/>
</clipPath>
</defs>
</svg>
