<svg width="640" height="480" viewBox="0 0 640 480" fill="none" xmlns="http://www.w3.org/2000/svg">
<g clip-path="url(#clip0_3921_2200)">
<path d="M0 326.4H640V348H0V326.4Z" fill="white"/>
<path d="M0 132H640V153.6H0V132Z" fill="white"/>
<path d="M0 348H640V480H0V348Z" fill="#0087FF"/>
<path d="M0 0H640V132H0V0Z" fill="#0087FF"/>
<path d="M0 290.4H640V326.4H0V290.4Z" fill="#FF0000"/>
<path d="M0 153.6H640V189.6H0V153.6Z" fill="#000001"/>
<path d="M0 206.4H640V273.6H0V206.4Z" fill="#FFFF00"/>
<path d="M0 273.6H640V290.4H0V273.6Z" fill="#008300"/>
<path d="M0 189.6H640V206.4H0V189.6Z" fill="#008300"/>
<path d="M320.025 160.125C306.254 160.149 292.798 164.244 281.349 171.895C269.9 179.547 260.969 190.413 255.68 203.128C250.391 215.842 248.98 229.836 251.624 243.351C254.268 256.865 260.85 269.295 270.541 279.079L240.693 288.679L243.399 295.486L233.799 297.58L240.781 319.922H399.268L406.163 297.58L396.563 295.486L399.268 288.591L369.421 279.079C379.107 269.301 385.687 256.878 388.334 243.372C390.981 229.866 389.577 215.878 384.299 203.168C379.021 190.457 370.103 179.59 358.668 171.932C347.232 164.273 333.788 160.166 320.025 160.125Z" fill="white" stroke="black" stroke-width="1.74546"/>
<path d="M242.264 297.93L248.373 317.653H391.675L397.697 297.93H242.264Z" fill="#008300"/>
<path d="M246.104 300.46L250.554 315.122H389.406L393.857 300.46H281.449H246.104Z" fill="white"/>
<path d="M255.889 309.097C255.889 309.417 255.856 309.725 255.79 310.02C255.724 310.303 255.609 310.55 255.444 310.759C255.279 310.968 255.059 311.141 254.784 311.276C254.509 311.411 254.157 311.473 253.728 311.461C253.343 311.461 253.014 311.411 252.739 311.313C252.453 311.202 252.216 311.079 252.029 310.944L252.475 309.78C252.64 309.891 252.821 309.983 253.019 310.057C253.217 310.131 253.42 310.174 253.629 310.186C253.959 310.186 254.196 310.094 254.339 309.909C254.482 309.737 254.553 309.435 254.553 309.004V304.664H255.889V309.097ZM259.518 311.461C259.089 311.461 258.726 311.399 258.43 311.276C258.122 311.141 257.869 310.956 257.671 310.722C257.473 310.488 257.324 310.211 257.225 309.891C257.137 309.558 257.093 309.201 257.093 308.82V304.664H258.43V308.672C258.43 308.943 258.457 309.17 258.512 309.355C258.567 309.54 258.644 309.694 258.743 309.817C258.842 309.94 258.952 310.026 259.073 310.075C259.216 310.125 259.37 310.149 259.535 310.149C259.865 310.149 260.129 310.039 260.327 309.817C260.524 309.595 260.623 309.214 260.623 308.672V304.645H261.976V308.801C261.976 309.183 261.921 309.54 261.811 309.872C261.723 310.192 261.58 310.476 261.382 310.722C261.184 310.968 260.926 311.147 260.607 311.258C260.299 311.381 259.936 311.442 259.518 311.442V311.461ZM264.83 304.664C264.94 304.873 265.061 305.138 265.193 305.458L265.622 306.455L266.05 307.564L266.463 308.635L266.859 307.564L267.288 306.455L267.716 305.458C267.848 305.138 267.969 304.873 268.079 304.664H269.3L269.465 306.141L269.58 307.859C269.624 308.45 269.657 309.047 269.679 309.651L269.762 311.331H268.459L268.393 309.207L268.261 306.899L267.931 307.804L267.535 308.783C267.425 309.115 267.31 309.429 267.189 309.725L266.892 310.482H265.951L265.671 309.725L265.308 308.783L264.929 307.804L264.599 306.899C264.533 307.674 264.489 308.444 264.467 309.207L264.401 311.331H263.081L263.164 309.651L263.263 307.859L263.395 306.16L263.56 304.664H264.83ZM273.308 311.461C272.891 311.461 272.528 311.399 272.22 311.276C271.912 311.141 271.659 310.956 271.461 310.722C271.263 310.488 271.115 310.211 271.016 309.891C270.928 309.558 270.884 309.201 270.884 308.82V304.664H272.22V308.672C272.22 308.943 272.247 309.17 272.302 309.355C272.357 309.54 272.434 309.694 272.533 309.817C272.632 309.94 272.742 310.026 272.863 310.075C273.006 310.125 273.16 310.149 273.325 310.149C273.655 310.149 273.919 310.039 274.117 309.817C274.315 309.595 274.414 309.214 274.414 308.672V304.645H275.766V308.801C275.766 309.183 275.711 309.54 275.601 309.872C275.513 310.192 275.37 310.476 275.172 310.722C274.974 310.968 274.716 311.147 274.397 311.258C274.089 311.381 273.726 311.442 273.308 311.442V311.461ZM277.036 304.664H278.389V311.331H277.053L277.036 304.664ZM281.952 307.397L282.645 306.031C282.865 305.575 283.063 305.119 283.239 304.664H284.723C284.393 305.378 284.053 306.074 283.701 306.751C283.349 307.428 282.98 308.105 282.595 308.783V311.331H281.259V308.801C280.863 308.124 280.489 307.447 280.138 306.769C279.786 306.092 279.445 305.39 279.115 304.664H280.682C280.858 305.119 281.056 305.575 281.276 306.031L281.952 307.397ZM288.583 311.331L288.369 310.63L288.138 309.891H285.829L285.581 310.63L285.383 311.331H283.965L284.608 309.337L285.185 307.619L285.763 306.086C285.949 305.594 286.142 305.119 286.34 304.664H287.627C287.824 305.119 288.017 305.594 288.204 306.086L288.765 307.619L289.359 309.337L290.002 311.331H288.583ZM286.967 306.16C286.945 306.271 286.901 306.406 286.835 306.566L286.637 307.139L286.389 307.878L286.125 308.69H287.824L287.561 307.859L287.313 307.139L287.115 306.585L286.967 306.16ZM295.033 307.397L295.726 306.031C295.946 305.575 296.144 305.119 296.32 304.664H297.804C297.474 305.378 297.139 306.074 296.798 306.751C296.446 307.428 296.072 308.105 295.676 308.783V311.331H294.357V308.801L293.235 306.769C292.883 306.08 292.548 305.378 292.229 304.664H293.779L294.373 306.031L295.033 307.397ZM301.664 311.331L301.45 310.63L301.219 309.891H298.909L298.678 310.63L298.464 311.331H297.078L297.705 309.337L298.299 307.619L298.86 306.086C299.047 305.594 299.245 305.119 299.454 304.664H300.724C300.922 305.119 301.114 305.594 301.301 306.086L301.879 307.619L302.472 309.337L303.099 311.331H301.664ZM300.064 306.16L299.932 306.566L299.734 307.139L299.487 307.878L299.223 308.69H300.905L300.641 307.859L300.394 307.139L300.196 306.585L300.064 306.16ZM309.928 311.331L309.714 310.63L309.483 309.891H307.174L306.943 310.63L306.728 311.331H305.343L305.969 309.337C306.167 308.721 306.365 308.148 306.563 307.619L307.124 306.086C307.311 305.594 307.504 305.119 307.702 304.664H308.988C309.186 305.119 309.379 305.594 309.566 306.086L310.126 307.619L310.72 309.337L311.364 311.331H309.928ZM308.312 306.16L308.196 306.566L307.998 307.139L307.751 307.878L307.471 308.69H309.17L308.906 307.859L308.658 307.139L308.46 306.585L308.312 306.16ZM312.139 311.331V304.664H316.131V305.92H313.491V307.323H315.834V308.579H313.475V311.35L312.139 311.331ZM318.819 304.59C319.71 304.59 320.392 304.769 320.865 305.126C321.338 305.483 321.58 306.037 321.591 306.788C321.591 307.256 321.492 307.637 321.294 307.933C321.107 308.216 320.832 308.444 320.469 308.616L320.848 309.17L321.228 309.854L321.607 310.593L321.937 311.331H320.453L320.106 310.666L319.776 310.02L319.413 309.411L319.083 308.893H318.424V311.331H317.071V304.756C317.368 304.695 317.67 304.652 317.978 304.627L318.803 304.59H318.819ZM318.902 305.864H318.605L318.391 305.901V307.711H318.77C319.276 307.711 319.639 307.637 319.859 307.49C320.079 307.342 320.189 307.102 320.189 306.769C320.189 306.437 320.079 306.209 319.859 306.086C319.639 305.938 319.309 305.864 318.869 305.864H318.902ZM322.811 304.664H324.147V311.331H322.811V304.664ZM329.047 311.331C328.926 311.11 328.783 310.876 328.618 310.63L328.073 309.872C327.886 309.614 327.689 309.367 327.48 309.134C327.271 308.9 327.067 308.69 326.869 308.506V311.331H325.517V304.664H326.869V307.176C327.221 306.769 327.568 306.345 327.908 305.901L328.898 304.664H330.498C330.091 305.206 329.679 305.723 329.261 306.215C328.843 306.708 328.414 307.213 327.974 307.73C328.447 308.173 328.904 308.703 329.344 309.318C329.783 309.934 330.212 310.611 330.63 311.35L329.047 311.331ZM335.595 311.331L335.397 310.63L335.166 309.891H332.857L332.61 310.63L332.412 311.331H331.01L331.653 309.337L332.23 307.619L332.808 306.086C332.995 305.594 333.187 305.119 333.385 304.664H334.672C334.87 305.119 335.062 305.594 335.249 306.086L335.81 307.619L336.404 309.337L337.047 311.331H335.595ZM333.995 306.16L333.88 306.566L333.682 307.139L333.418 307.878L333.154 308.69H334.853L334.589 307.859L334.342 307.139L334.144 306.585L333.995 306.16ZM341.468 304.664C341.578 304.873 341.693 305.138 341.814 305.458L342.243 306.455L342.672 307.564L343.084 308.635L343.48 307.564L343.909 306.455L344.338 305.458C344.47 305.138 344.591 304.873 344.701 304.664H345.922L346.086 306.141L346.202 307.859C346.246 308.45 346.279 309.047 346.301 309.651L346.383 311.331H345.08L345.014 309.207L344.882 306.899L344.552 307.804L344.157 308.783C344.047 309.115 343.931 309.429 343.81 309.725L343.513 310.482H342.573L342.293 309.725L341.93 308.783L341.55 307.804L341.22 306.899C341.154 307.674 341.11 308.444 341.088 309.207L341.022 311.331H339.703L339.785 309.651L339.884 307.859L340.016 306.16L340.181 304.664H341.468ZM351.596 311.331L351.365 310.63L351.151 309.891H348.825L348.594 310.63L348.379 311.331H346.994L347.621 309.337L348.214 307.619L348.775 306.086C348.962 305.594 349.16 305.119 349.369 304.664H350.639C350.837 305.119 351.03 305.594 351.217 306.086C351.415 306.579 351.607 307.09 351.794 307.619L352.388 309.337L353.015 311.331H351.596ZM349.979 306.16L349.847 306.566L349.649 307.139L349.402 307.878L349.138 308.69H350.821L350.557 307.859L350.309 307.139L350.111 306.585L349.979 306.16ZM355.588 310.186C355.775 310.186 355.929 310.168 356.05 310.131C356.171 310.094 356.27 310.051 356.347 310.002C356.424 309.928 356.479 309.854 356.512 309.78C356.534 309.694 356.545 309.601 356.545 309.503C356.545 309.281 356.451 309.097 356.264 308.949C356.077 308.801 355.764 308.647 355.324 308.487L354.73 308.228C354.543 308.118 354.373 307.995 354.219 307.859C354.065 307.699 353.938 307.514 353.839 307.305C353.729 307.083 353.674 306.819 353.674 306.511C353.674 306.203 353.729 305.926 353.839 305.68C353.949 305.433 354.098 305.224 354.285 305.052C354.472 304.879 354.703 304.744 354.978 304.645C355.241 304.559 355.544 304.516 355.885 304.516C356.281 304.516 356.627 304.559 356.924 304.645C357.21 304.744 357.452 304.855 357.65 304.978L357.254 306.16C357.089 306.061 356.902 305.975 356.693 305.901C356.484 305.827 356.242 305.791 355.967 305.791C355.637 305.791 355.406 305.84 355.274 305.938C355.142 306.037 355.071 306.191 355.06 306.4C355.06 306.523 355.087 306.622 355.142 306.696C355.197 306.769 355.269 306.849 355.357 306.936L355.687 307.12L356.099 307.287C356.407 307.41 356.677 307.533 356.908 307.656C357.127 307.779 357.314 307.927 357.468 308.099C357.622 308.272 357.738 308.469 357.815 308.69C357.892 308.912 357.93 309.183 357.93 309.503C357.93 310.119 357.732 310.605 357.336 310.962C356.951 311.294 356.369 311.461 355.588 311.461C355.324 311.461 355.082 311.442 354.862 311.405C354.653 311.381 354.466 311.338 354.301 311.276L353.872 311.128L353.592 310.944L353.971 309.761C354.147 309.872 354.367 309.971 354.631 310.057C354.884 310.143 355.203 310.186 355.588 310.186ZM362.549 304.664H363.902V311.331H362.549V308.506H360.306V311.331H358.953V304.664H360.306V307.194H362.549V304.664ZM369.246 311.331L369.048 310.63L368.817 309.891H366.508L366.26 310.63L366.062 311.331H364.66C364.88 310.617 365.1 309.952 365.32 309.337C365.507 308.721 365.7 308.148 365.898 307.619L366.458 306.086C366.645 305.594 366.838 305.119 367.036 304.664H368.322C368.52 305.119 368.713 305.594 368.9 306.086L369.461 307.619L370.054 309.337L370.698 311.331H369.246ZM367.646 306.16L367.531 306.566L367.333 307.139L367.069 307.878L366.805 308.69H368.504L368.24 307.859L367.992 307.139L367.795 306.585L367.646 306.16ZM373.205 304.59C374.107 304.59 374.794 304.769 375.267 305.126C375.74 305.483 375.976 306.037 375.976 306.788C375.976 307.256 375.883 307.637 375.696 307.933C375.498 308.216 375.223 308.444 374.871 308.616L375.25 309.17L375.63 309.854L376.009 310.593L376.339 311.331H374.855L374.508 310.666L374.162 310.02L373.832 309.411L373.469 308.893H372.809V311.331H371.473V304.756C371.759 304.695 372.056 304.652 372.364 304.627L373.205 304.59ZM373.287 305.864H373.04L372.826 305.901V307.711H373.205C373.711 307.711 374.074 307.637 374.294 307.49C374.514 307.342 374.624 307.102 374.624 306.769C374.624 306.437 374.514 306.209 374.294 306.086C374.074 305.938 373.744 305.864 373.304 305.864H373.287ZM377.197 304.664H378.55V311.331H377.197V304.664ZM383.432 311.331C383.322 311.11 383.179 310.876 383.003 310.63C382.849 310.383 382.673 310.131 382.475 309.872C382.289 309.614 382.091 309.367 381.882 309.134C381.673 308.9 381.464 308.69 381.255 308.506V311.331H379.935V304.664H381.255V307.176C381.607 306.769 381.959 306.345 382.311 305.901L383.3 304.664H384.884C384.477 305.206 384.07 305.723 383.663 306.215C383.256 306.708 382.827 307.213 382.376 307.73C382.849 308.173 383.306 308.703 383.746 309.318C384.186 309.934 384.614 310.611 385.032 311.35L383.432 311.331ZM385.808 304.664H387.127V311.331H385.808V304.664Z" fill="black"/>
<path fill-rule="evenodd" clip-rule="evenodd" d="M242.264 297.93L251.34 295.486L248.547 290.511L264.169 284.664V289.988H268.969V298.104H242.787L242.264 297.93Z" fill="#008300"/>
<path fill-rule="evenodd" clip-rule="evenodd" d="M266.699 298.104H247.674L266.699 292.955V298.104ZM262.51 290.075H254.045L262.772 286.759L262.51 290.075ZM251.427 291.472L253.347 294.962L266.001 291.472H251.427Z" fill="white"/>
<path fill-rule="evenodd" clip-rule="evenodd" d="M397.697 297.93L388.621 295.486L391.414 290.511L375.792 284.664V289.988H370.992V298.104H397.174L397.697 297.93Z" fill="#008300"/>
<path fill-rule="evenodd" clip-rule="evenodd" d="M373.262 298.104H392.287L373.262 292.955V298.104ZM377.451 290.075H385.916L377.189 286.759L377.451 290.075ZM388.534 291.472L386.614 294.962L373.96 291.472H388.534Z" fill="white"/>
<path d="M318.367 168.417C304.169 168.885 290.566 174.232 279.849 183.556C269.132 192.881 261.955 205.613 259.527 219.61C257.098 233.606 259.567 248.012 266.517 260.401C273.467 272.791 284.473 282.407 297.683 287.631V280.824C286.079 275.707 276.582 266.765 270.775 255.49C264.969 244.215 263.205 231.29 265.779 218.872C268.352 206.453 275.107 195.293 284.916 187.255C294.725 179.216 306.994 174.784 319.676 174.7H320.113C332.824 174.705 345.148 179.08 355.017 187.091C364.886 195.102 371.702 206.263 374.32 218.702C376.939 231.141 375.202 244.102 369.4 255.412C363.599 266.722 354.085 275.695 342.454 280.824V287.631C355.876 282.416 367.051 272.671 374.044 260.084C381.037 247.497 383.408 232.861 380.745 218.71C378.083 204.559 370.555 191.785 359.466 182.6C348.377 173.415 334.424 168.397 320.025 168.417H318.367Z" fill="#FFFF00" stroke="black" stroke-width="1.04728"/>
<path fill-rule="evenodd" clip-rule="evenodd" d="M336.955 274.628L337.043 283.879C331.457 284.751 325.261 290.511 323.603 291.559C321.944 292.606 319.239 294.875 317.755 294.7C315.224 294.351 317.057 292.344 317.057 292.344C317.057 292.344 315.312 294.439 314.09 293.479C312.868 292.693 314.788 291.122 314.788 291.122C314.788 291.122 314.177 291.995 312.868 291.559C311.646 291.21 312.519 289.813 312.519 289.813C312.519 289.813 309.203 291.559 308.592 290.948C307.719 289.813 308.941 288.766 308.941 288.766L316.708 282.22C320.984 280.475 322.206 282.919 324.126 282.744C327.367 281.887 330.398 280.372 333.028 278.293C334.512 276.81 334.075 275.239 335.21 274.802C336.344 274.366 336.955 274.628 336.955 274.628Z" fill="white" stroke="black" stroke-width="0.785457"/>
<path fill-rule="evenodd" clip-rule="evenodd" d="M302.919 275.326L302.832 283.879C308.068 284.577 313.916 290.162 315.487 291.21C316.97 292.17 319.588 293.828 320.985 293.653C323.254 293.392 322.73 292.519 322.73 292.519C322.73 292.519 323.778 293.043 325.174 292.519C326.57 291.995 325.872 291.035 325.872 291.035C325.872 291.035 327.967 291.646 328.839 290.512C329.712 289.552 327.967 288.504 327.967 288.504C327.967 288.504 328.839 287.893 327.443 288.679C326.047 289.464 323.254 286.235 320.461 286.061C317.581 286.061 317.319 288.853 315.574 287.544C313.741 286.148 316.97 283.879 318.105 283.53C322.556 282.046 326.745 283.879 321.334 281.784C318.541 280.737 316.359 282.744 314.527 282.657C312.607 282.57 307.894 280.039 306.672 278.642C305.276 277.246 305.625 275.85 304.577 275.413C303.53 275.181 302.948 275.152 302.832 275.326H302.919Z" fill="white" stroke="black" stroke-width="0.698184"/>
<path d="M325.959 291.035L322.206 289.464M323.166 292.693L318.803 290.075" stroke="black" stroke-width="0.698184"/>
<path fill-rule="evenodd" clip-rule="evenodd" d="M295.764 270.875C284.942 276.111 284.419 262.322 279.531 262.497C288.695 256.388 287.211 267.733 295.764 270.875ZM291.575 255.689C286.164 265.551 298.819 266.86 298.382 271.66C304.579 263.282 294.019 263.98 291.575 255.689Z" fill="#008300" stroke="black" stroke-width="0.349092"/>
<path fill-rule="evenodd" clip-rule="evenodd" d="M286.337 259.529C272.984 261.799 276.65 250.279 271.064 249.319C282.846 245.828 277.784 254.729 286.337 259.529Z" fill="#008300" stroke="black" stroke-width="0.349092"/>
<path fill-rule="evenodd" clip-rule="evenodd" d="M284.941 245.915C277.61 254.555 288.17 254.991 286.949 259.53C294.541 252.548 286.687 252.81 284.941 245.915ZM277.261 247.486C263.996 245.566 272.374 232.039 268.359 229.159C279.268 229.944 272.199 241.813 277.261 247.486Z" fill="#008300" stroke="black" stroke-width="0.349092"/>
<path fill-rule="evenodd" clip-rule="evenodd" d="M282.323 230.38C270.105 236.228 282.41 242.511 277.61 247.835C289.654 247.224 279.007 239.37 282.323 230.555V230.38ZM275.516 230.817C261.29 224.359 276.127 212.14 273.596 207.689C283.283 217.551 268.534 221.217 275.516 230.817Z" fill="#008300" stroke="black" stroke-width="0.349092"/>
<path fill-rule="evenodd" clip-rule="evenodd" d="M284.591 214.409C272.373 215.98 278.482 227.239 275.951 231.253C285.551 229.071 277.871 223.399 284.678 214.409H284.591ZM278.657 211.006C271.762 200.533 283.282 198.177 284.068 192.853C287.384 206.642 279.529 202.191 278.657 211.006Z" fill="#008300" stroke="black" stroke-width="0.349092"/>
<path fill-rule="evenodd" clip-rule="evenodd" d="M292.446 202.278C281.101 199.049 283.195 210.482 279.355 213.188C288.955 214.759 286.948 205.595 292.446 202.278ZM287.21 197.391C284.941 188.315 289.479 189.798 294.628 185.784C297.421 193.115 290.526 192.242 287.21 197.391ZM301.697 195.995C292.97 189.537 292.01 198.264 287.472 199.486C295.85 204.46 296.199 197.042 301.697 196.082V195.995ZM296.461 191.631C296.723 187.704 301.959 182.555 307.37 184.3C307.108 190.846 300.825 192.504 296.461 191.718V191.631Z" fill="#008300" stroke="black" stroke-width="0.349092"/>
<path fill-rule="evenodd" clip-rule="evenodd" d="M344.199 270.875C355.021 276.111 355.544 262.322 360.432 262.497C351.268 256.388 352.752 267.733 344.199 270.875ZM348.388 255.689C353.799 265.551 341.144 266.86 341.581 271.66C335.384 263.282 345.944 263.98 348.388 255.689Z" fill="#008300" stroke="black" stroke-width="0.349092"/>
<path fill-rule="evenodd" clip-rule="evenodd" d="M353.626 259.529C366.978 261.799 363.313 250.279 368.898 249.319C357.117 245.828 362.178 254.729 353.626 259.529Z" fill="#008300" stroke="black" stroke-width="0.349092"/>
<path fill-rule="evenodd" clip-rule="evenodd" d="M355.022 245.915C362.353 254.555 351.793 254.991 353.014 259.53C345.422 252.548 353.276 252.81 355.022 245.915ZM362.702 247.486C375.967 245.566 367.589 232.039 371.604 229.159C360.694 229.944 367.763 241.813 362.702 247.486Z" fill="#008300" stroke="black" stroke-width="0.349092"/>
<path fill-rule="evenodd" clip-rule="evenodd" d="M357.64 230.38C369.858 236.228 357.553 242.511 362.353 247.835C350.309 247.224 360.956 239.37 357.64 230.555V230.38ZM364.447 230.817C378.673 224.359 363.836 212.14 366.367 207.689C356.68 217.551 371.429 221.217 364.447 230.817Z" fill="#008300" stroke="black" stroke-width="0.349092"/>
<path fill-rule="evenodd" clip-rule="evenodd" d="M355.372 214.409C367.59 215.98 361.481 227.239 364.012 231.253C354.412 229.071 362.092 223.399 355.284 214.409H355.372ZM361.306 211.006C368.201 200.533 356.681 198.177 355.895 192.853C352.579 206.642 360.434 202.191 361.306 211.006Z" fill="#008300" stroke="black" stroke-width="0.349092"/>
<path fill-rule="evenodd" clip-rule="evenodd" d="M347.516 202.278C358.862 199.049 356.767 210.482 360.607 213.188C351.007 214.759 353.015 205.595 347.516 202.278ZM352.753 197.391C355.022 188.315 350.484 189.798 345.335 185.784C342.542 193.115 349.436 192.242 352.753 197.391ZM338.266 195.995C346.993 189.537 347.953 198.264 352.491 199.486C344.113 204.46 343.764 197.042 338.266 196.082V195.995ZM343.502 191.631C343.24 187.704 338.004 182.555 332.593 184.3C332.855 190.846 339.138 192.504 343.502 191.718V191.631Z" fill="#008300" stroke="black" stroke-width="0.349092"/>
<path d="M309.302 180.281L309.823 183.339L311.449 183.014C311.883 182.97 312.165 182.862 312.295 182.688C312.425 182.515 312.49 182.19 312.49 181.712H312.686L313.141 184.315H312.946L312.686 183.664L312.295 183.404H311.579L309.888 183.73L310.278 186.267L310.473 186.918L310.669 186.983H311.059L312.36 186.788L313.271 186.527L313.792 186.072C314.009 185.812 314.182 185.421 314.312 184.901H314.573L314.247 186.853L308.391 187.894L308.326 187.699H308.586L309.042 187.438C309.172 187.352 309.237 187.243 309.237 187.113V186.332L308.326 181.387C308.326 180.91 308.239 180.628 308.066 180.541C307.892 180.411 307.654 180.368 307.35 180.411H307.09V180.281L312.946 179.24L313.271 180.932H313.076L312.686 180.151L312.165 179.891H311.384L309.302 180.281ZM320.494 183.99H317.501L316.98 185.226L316.785 185.877C316.785 186.007 316.85 186.115 316.98 186.202C317.11 186.289 317.349 186.354 317.696 186.397V186.593H315.288V186.397C315.592 186.397 315.809 186.332 315.939 186.202L316.59 185.031L319.192 178.654H319.453L322.185 185.096C322.402 185.616 322.598 185.942 322.771 186.072C322.945 186.202 323.183 186.289 323.487 186.332V186.593H320.429V186.397C320.732 186.397 320.949 186.332 321.079 186.202C321.166 186.115 321.209 186.007 321.209 185.877L321.014 185.096L320.494 183.99ZM320.364 183.534L319.062 180.411L317.696 183.599L320.364 183.534ZM331.946 179.956L331.685 182.558H331.49C331.463 181.899 331.236 181.264 330.839 180.736C330.441 180.317 329.915 180.042 329.343 179.956C328.863 179.864 328.367 179.909 327.911 180.086C327.399 180.293 326.966 180.657 326.675 181.127C326.371 181.647 326.155 182.341 326.024 183.209C325.902 183.81 325.902 184.43 326.024 185.031C326.155 185.638 326.415 186.072 326.805 186.332C327.239 186.766 327.738 187.005 328.302 187.048C328.736 187.135 329.169 187.113 329.603 186.983C330.037 186.853 330.536 186.506 331.1 185.942L331.295 186.072C330.774 186.679 330.232 187.113 329.668 187.373C329.104 187.59 328.454 187.634 327.716 187.503C326.458 187.287 325.591 186.636 325.113 185.551C324.686 184.755 324.548 183.835 324.723 182.949C324.853 182.211 325.135 181.561 325.569 180.997C326.003 180.433 326.567 179.999 327.261 179.695C327.864 179.476 328.512 179.408 329.148 179.499C329.783 179.59 330.387 179.836 330.904 180.216L331.165 180.411L331.49 180.346L331.75 179.956H331.946Z" fill="black"/>
<path d="M317.931 194.336C317.058 194.336 316.215 194.453 315.4 194.685C314.039 197.053 311.87 198.85 309.291 199.747L308.767 199.922C306.085 201.099 303.052 201.192 300.302 200.184C297.873 201.804 295.646 203.708 293.669 205.856C294.18 208.742 293.554 211.713 291.924 214.147C290.622 216.745 288.372 218.744 285.64 219.733C284.767 222.584 284.273 225.493 284.156 228.46C285.902 229.769 287.385 232.3 287.996 235.355L288.171 235.966C288.782 239.282 288.171 242.424 286.949 244.257C288.113 246.991 289.567 249.522 291.313 251.849C293.407 251.675 296.2 252.722 298.644 254.555L299.08 254.991C301.698 257.173 303.269 259.878 303.444 262.148C306.12 263.544 308.942 264.562 311.909 265.202C313.48 263.718 316.273 262.584 319.415 262.584H320.025C323.429 262.584 326.396 263.631 328.055 265.202C331.022 264.562 333.815 263.544 336.433 262.148C336.899 259.261 338.463 256.666 340.796 254.904C342.969 252.986 345.753 251.904 348.651 251.849C350.396 249.522 351.851 247.049 353.015 244.431C351.665 242.081 351.2 239.326 351.706 236.664V236.14C352.52 232.649 353.887 230.147 355.807 228.635C355.676 225.675 355.178 222.744 354.324 219.907C351.795 218.953 349.691 217.127 348.389 214.758L348.04 214.235C346.295 211.267 345.771 208.126 346.295 205.944C344.267 203.697 341.948 201.73 339.4 200.096C336.865 201.032 334.08 201.032 331.545 200.096L330.935 199.835C328.171 198.934 325.82 197.077 324.302 194.598C322.905 194.424 321.451 194.336 319.938 194.336H317.931Z" fill="#FF0000"/>
<path d="M350.658 230.031C350.658 238.167 347.426 245.97 341.673 251.722C335.92 257.475 328.117 260.707 319.981 260.707C311.845 260.707 304.043 257.475 298.29 251.722C292.537 245.97 289.305 238.167 289.305 230.031C289.305 221.895 292.537 214.092 298.29 208.339C304.043 202.586 311.845 199.354 319.981 199.354C328.117 199.354 335.92 202.586 341.673 208.339C347.426 214.092 350.658 221.895 350.658 230.031Z" fill="#FBF014" stroke="black" stroke-width="0.349092"/>
<path d="M348.04 230.031C348.04 237.484 345.079 244.632 339.809 249.902C334.539 255.172 327.391 258.133 319.938 258.133C312.485 258.133 305.337 255.172 300.067 249.902C294.797 244.632 291.836 237.484 291.836 230.031C291.836 222.578 294.797 215.43 300.067 210.16C305.337 204.89 312.485 201.929 319.938 201.929C327.391 201.929 334.539 204.89 339.809 210.16C345.079 215.43 348.04 222.578 348.04 230.031Z" fill="#FBF014" stroke="black" stroke-width="0.349092"/>
<path fill-rule="evenodd" clip-rule="evenodd" d="M311.646 216.242L320.897 217.9L319.675 227.151L311.821 232.562L307.457 227.762L307.719 220.169L311.646 216.242Z" fill="#0087FF" stroke="black" stroke-width="0.349092"/>
<path fill-rule="evenodd" clip-rule="evenodd" d="M309.028 223.049L305.363 223.224H305.014V223.398H304.927L304.839 223.66L304.49 223.835V224.009L304.228 224.184L303.879 224.358H303.792L303.705 224.009H303.181L302.919 224.097V223.66L302.832 223.573V222.7H303.007V221.915L303.094 221.74V221.566L303.356 221.304L303.617 221.217V220.955L303.705 220.693L303.792 220.606L303.705 220.431L303.443 220.606L303.181 220.431V219.907L303.443 219.733L303.53 219.82L303.705 219.122L303.967 218.86L303.792 218.424L303.967 218.162L303.879 217.813L304.665 217.551V217.289L304.752 216.94L305.101 216.853L305.363 216.678L305.537 217.115V217.377H305.712L305.887 217.027L306.061 216.94V216.678L306.585 216.067L306.759 215.893L307.108 215.718H307.458L307.719 215.369V215.02H307.894L308.068 214.846L307.981 214.584V213.973H307.807V213.798L307.632 214.06L307.458 213.973V213.711H306.934L306.759 213.362L306.585 213.449V213.711L306.41 213.624V213.275H306.061L306.148 212.926L306.498 212.315V211.966L306.148 211.617L306.41 210.918L306.759 210.569V210.133L306.498 210.22L306.847 209.784L307.458 209.522H307.807L308.33 209.871L308.505 209.784H308.767L309.203 209.435L309.639 209.784V210.046H309.988L310.076 210.22H310.338V209.958L310.948 209.697L311.821 209.609L312.607 209.173L313.043 209.522H314.003L315.487 208.213L320.025 209.26L319.763 217.115L315.05 219.733L314.788 219.558L314.701 219.646H314.614V219.209H314.352V219.733H314.003L313.654 219.558V219.384H314.003V219.297L313.741 219.209H313.479V219.035L313.741 218.86V218.773L313.479 218.948L313.305 218.86L313.13 218.948L313.305 219.209L313.043 219.384V219.558L312.694 219.471V219.646H312.868L312.345 219.995L312.17 219.82V219.733L311.908 219.907H311.559V219.82L311.908 219.733L311.821 219.646H311.559V219.384L311.472 219.646H311.298V220.082H310.948L310.861 219.907C310.861 219.907 310.599 219.908 310.687 220.082V220.344L310.425 220.169H310.25V220.431H310.076L309.727 220.257L309.901 220.518H309.552L309.378 220.606L309.552 220.78L309.639 220.955L309.814 221.129L309.727 221.217H309.639L309.378 221.478H309.203L309.116 221.74L308.941 221.828L309.028 222.002H309.116V222.177H309.028L308.679 222.526V222.613H308.941L309.028 223.049Z" fill="white" stroke="black" stroke-width="0.349092"/>
<path fill-rule="evenodd" clip-rule="evenodd" d="M315.313 223.137L325.349 228.635L325.436 229.42L325.087 229.595L325.174 229.944L325.524 230.031L325.611 230.38L329.538 233.173L329.8 232.998L330.149 233.173L330.236 232.824L330.498 232.562L330.934 231.602L330.673 231.515L330.847 231.166H331.022L331.371 230.729V230.38L331.196 230.118L331.458 230.206L331.807 229.42L332.156 229.333L332.244 228.722L332.418 228.547C332.418 228.547 332.244 227.849 332.418 227.587C332.593 227.326 333.553 227.326 333.553 227.326L334.076 226.715V226.54L334.425 226.278L334.076 225.667L334.774 225.842L335.298 225.667H335.647L336.171 224.969V224.707L334.513 222.613V212.402L335.473 211.529L337.044 209.347L336.607 209.173L335.036 209.347L334.6 208.824H334.425L334.338 208.475L333.989 208.3L331.371 209.522L331.284 209.958L330.673 210.482V210.831H330.498L330.324 210.744L327.618 210.133L327.444 210.307H326.571L323.342 207.951H320.985L320.462 207.776V207.515H316.098L315.225 208.387L315.4 209.522H315.836L316.011 210.046H316.447L316.36 210.569H316.273V211.18L316.447 211.442L316.709 211.616V212.053L317.233 212.315L317.32 212.926L317.669 213.1V213.362L317.494 213.711L317.844 214.235L317.756 214.584L317.931 215.02V215.195L317.844 215.718L317.582 215.893L317.494 216.242H317.32V216.94H316.884L316.709 217.202L316.447 217.115V217.726L316.185 218.075H315.924V218.337L315.574 218.511L315.487 218.947V219.384L315.051 219.558V220.344L315.313 220.431H315.487L315.4 220.693L315.662 220.78L315.836 221.217L316.185 220.955V220.693H316.622L317.145 220.431L317.32 220.78L317.494 221.042H317.145L317.058 221.217H316.796L316.36 221.129V221.304L316.534 221.478L316.273 221.653L316.185 221.478L315.924 221.566H315.749L315.487 221.391V221.74H315.313L315.138 222.177L315.4 222.438L315.662 222.613L315.4 222.962L315.313 223.137ZM330.673 242.162L331.022 241.9V241.726H331.371L331.545 241.289V241.726L331.371 241.9V242.162H331.196V242.424L331.109 242.249L330.673 242.162ZM329.625 237.275V236.664L329.538 236.577L329.887 236.315V235.966L330.324 235.791V236.14H330.062V236.664L330.236 236.926V237.187L330.498 237.362L330.76 237.711V237.973L330.498 238.06L330.149 237.624L329.8 237.711L329.625 237.275ZM330.934 235.006V234.657L331.109 234.307L330.847 233.609H331.196L331.284 233.958H331.458V233.697C331.458 233.697 331.633 233.609 331.633 233.697L331.545 234.482L331.633 234.831L331.458 235.093L331.196 235.355L330.934 235.006Z" fill="white" stroke="black" stroke-width="0.349092"/>
<path fill-rule="evenodd" clip-rule="evenodd" d="M332.94 249.144L331.806 250.017L330.235 250.715L329.799 250.977H329.013L328.402 251.151L328.053 251.326L327.617 251.762L326.919 251.326H326.046L325.784 251.587V252.024L325.173 252.286H324.911L324.65 252.46L323.777 252.373L323.428 252.024L322.991 252.111L322.293 252.635L321.944 252.547V252.373H321.682L321.508 252.547L321.071 252.46V252.111H320.81L320.46 251.587H320.024L319.937 251.849L319.588 252.111L319.239 252.024H317.93L317.58 251.413H317.231L316.882 250.54V250.104L317.057 249.929V249.406L316.708 249.144L316.795 248.271L316.708 248.097L316.62 247.747L316.01 247.137V246.875L315.311 246.351H315.05V246.875L314.7 246.787L314.526 246.526L313.653 246.7L313.304 246.264L312.868 246.351L312.519 246.089H312.082L311.733 245.74H310.948L310.773 245.217H310.25L310.075 245.129H309.464V244.867L308.766 244.78L308.417 244.518V244.082L307.893 243.82L307.457 243.907L307.282 243.384L306.846 243.035L306.759 242.511L306.148 241.638V241.289L305.799 240.94V240.242L305.537 239.893V239.544H305.711V239.282L305.275 238.933L305.1 238.584L304.402 238.06H303.879L303.268 237.362V237.013L303.53 236.664H303.879L303.966 236.402V236.14L303.355 235.267V234.831L303.617 234.656L303.53 234.133L303.006 233.609V233.086L303.093 232.649V232.475L303.617 232.3L303.879 232.126L304.14 231.864V231.602L304.664 231.427V231.166L305.1 230.642V230.38L305.362 229.944L305.973 229.682V229.507L306.41 229.246V228.373L306.235 228.286H305.973L305.711 228.198H305.275V227.936L305.537 227.587L305.362 227.413L305.624 226.889L306.497 226.802V226.191L306.584 225.929L306.235 225.493V224.62L306.06 224.358V224.096L305.624 223.835L305.275 223.224H305.799L306.06 222.962H309.115L309.202 223.224V223.573L309.028 224.009L308.94 224.271V224.446L308.853 224.795V225.144L308.679 225.318V225.58L308.504 225.755H308.766V226.191L308.591 226.54H309.289L309.028 227.064L308.94 227.413L309.028 227.936L309.377 227.587L309.639 227.849V227.413L309.726 227.064L310.075 227.238L310.162 227.064L309.988 226.715L310.337 226.366L310.686 226.802L310.948 226.889L311.122 227.326L311.384 226.802L311.471 227.151H311.82V227.5L312.082 227.849L311.733 228.024V228.46H311.995V228.024H312.344L312.17 227.587L312.082 227.238L312.431 226.715H312.78L312.955 227.151H313.566L314.09 226.627L314.788 226.366L314.613 225.929H314.439L314.177 226.191L313.391 226.104L313.13 225.929L312.955 226.104H312.693L311.995 225.842V225.58L311.82 225.493L312.17 225.318L312.344 225.58H312.519L312.78 225.493L313.13 225.755L313.653 225.667V225.406L313.304 225.318V225.056H313.915L314.002 224.882L314.439 224.707L314.177 224.358V224.184L315.05 224.358L314.613 224.009L314.7 223.66L315.224 224.009V223.835L314.875 223.573L315.399 223.049L325.522 228.547L325.61 229.333L325.26 229.595V229.944H325.697V230.293L329.624 232.911L329.886 233.347L329.624 233.609L329.45 233.958L329.362 234.569L329.188 234.918V235.442L328.839 235.791L328.577 236.402V236.838L328.839 237.187L328.664 237.711L329.1 238.06H329.362L330.148 238.933L330.497 239.282L330.671 239.718L330.497 240.155L330.235 240.242L329.973 241.115V241.638L330.322 241.987L330.235 242.337L330.06 242.86L329.886 243.384L330.06 243.907L330.235 244.344L330.41 244.518V244.867H330.235L330.497 245.304L330.846 245.478V246.177H330.759V246.351L331.108 246.613L331.282 247.486L331.108 247.747V247.922H331.631L331.806 248.358L332.155 248.271L332.766 248.533L333.028 248.969L332.94 249.144Z" fill="white" stroke="black" stroke-width="0.349092"/>
<path fill-rule="evenodd" clip-rule="evenodd" d="M301.26 226.977C300.998 226.715 302.133 226.104 301.958 225.668C301.958 224.911 302.424 224.417 303.355 224.184L303.878 223.835C304.14 224.01 304.14 224.446 304.402 224.184C304.664 223.922 305.275 223.05 305.711 223.224C305.449 223.573 305.973 224.271 306.322 224.533L306.846 226.191C306.729 226.715 306.322 226.89 305.624 226.715C304.926 226.453 304.751 226.977 304.227 226.54C304.14 227.151 304.227 227.675 303.442 227.937C302.918 227.937 302.627 227.85 302.569 227.675C302.162 227.21 301.813 227.21 301.522 227.675C301.406 227.559 301.318 227.326 301.26 226.977Z" fill="white" stroke="black" stroke-width="0.436365"/>
<path fill-rule="evenodd" clip-rule="evenodd" d="M301.523 227.675C301.96 226.715 302.483 227.762 302.658 227.762C303.967 227.937 303.967 227.675 304.229 226.453C304.927 226.977 304.665 226.453 306.149 226.802C305.887 226.802 305.276 227.5 305.713 227.5C305.363 228.46 306.149 228.46 306.673 228.373C306.411 228.722 307.109 228.897 306.411 229.246C305.974 229.508 305.974 229.246 305.974 229.857L305.451 229.944C305.363 230.119 305.713 230.468 305.625 230.468C305.625 230.584 305.451 230.817 305.102 231.166C304.753 231.515 304.374 231.806 303.967 232.039L303.356 232.213L302.483 230.642C302.483 230.177 302.396 229.711 302.222 229.246V228.46C301.931 228.228 301.698 227.937 301.523 227.588" fill="white"/>
<path d="M301.523 227.675C301.96 226.715 302.483 227.762 302.658 227.762C303.967 227.937 303.967 227.675 304.229 226.453C304.927 226.977 304.665 226.453 306.149 226.802C305.887 226.802 305.276 227.5 305.713 227.5C305.363 228.46 306.149 228.46 306.673 228.373C306.411 228.722 307.109 228.897 306.411 229.246C305.974 229.508 305.974 229.246 305.974 229.857L305.451 229.944C305.363 230.119 305.713 230.468 305.625 230.468C305.625 230.584 305.451 230.817 305.102 231.166C304.753 231.515 304.374 231.806 303.967 232.039L303.356 232.213L302.483 230.642C302.483 230.177 302.396 229.711 302.222 229.246V228.46C301.931 228.228 301.698 227.937 301.523 227.588" stroke="black" stroke-width="0.436365"/>
</g>
<defs>
<clipPath id="clip0_3921_2200">
<rect width="640" height="480" fill="white"/>
</clipPath>
</defs>
</svg>
