<svg width="640" height="480" viewBox="0 0 640 480" fill="none" xmlns="http://www.w3.org/2000/svg">
<g clip-path="url(#clip0_3921_2255)">
<path d="M0 320H640V480H0V320Z" fill="#000001"/>
<path d="M0 160H640V320H0V160Z" fill="white"/>
<path d="M0 0H640V160H0V0Z" fill="#CE1126"/>
<path d="M320.641 241.92L375.441 292.8L371.521 200.4C370.961 186.4 358.801 189.6 349.921 194.64C341.041 200.4 330.721 200.4 320.001 196.64C309.201 200.4 298.961 200.4 290.081 194.64C281.281 189.6 269.041 186.4 268.481 200.4L264.561 292.8L320.641 241.92Z" fill="white" stroke="#C09300" stroke-width="1.04" stroke-linejoin="round"/>
<path d="M274.801 197.2L270.961 287.04L264.561 292.8L268.481 200.4C270.37 198.951 272.514 197.866 274.801 197.2ZM282.481 203.6L279.281 278.8L272.881 285.36L276.721 198.56C278.001 199.84 281.761 202.96 282.481 203.6ZM289.441 209.36L286.961 272.08L281.761 277.12L284.961 205.6C286.241 206.8 288.801 208.64 289.441 209.36ZM297.041 212.56L294.561 266L289.521 270.08L292.001 210.64C293.281 211.2 295.761 212.56 297.041 212.56ZM304.081 212.56L302.241 257.12L297.041 262.16L299.041 213.12C300.241 213.12 303.521 213.12 304.081 212.56Z" fill="#C09300"/>
<path d="M365.201 197.2L369.041 287.04L375.441 292.8L371.521 200.4C369.631 198.951 367.488 197.866 365.201 197.2ZM357.521 203.6L360.721 278.8L367.121 285.36L363.281 198.56C362.001 199.84 358.241 202.96 357.521 203.6ZM350.561 209.36L353.041 272.08L358.241 277.12L355.041 205.6C353.761 206.8 351.201 208.64 350.561 209.36ZM342.961 212.56L345.441 266L350.481 270.08L348.001 210.64C346.721 211.2 344.241 212.56 342.961 212.56ZM335.921 212.56L337.761 257.12L342.961 262.16L340.961 213.12C339.761 213.12 336.481 213.12 335.921 212.56Z" fill="#C09300"/>
<path d="M322.56 252L330.24 287.04L327.68 289.6L325.04 287.6L320.72 256.4L322.56 287.6L320 290.8L317.52 287.6L319.36 256.4L314.96 287.6L312.32 289.6L309.76 287.04L317.44 252.08H322.56V252Z" fill="#C09300" stroke="#C09300" stroke-width="0.88"/>
<path d="M302.801 236.64L287.521 290.8L308.561 294L317.441 253.28L302.801 236.64Z" fill="white" stroke="#C09300" stroke-width="0.96" stroke-linejoin="round"/>
<path d="M297.762 255.2L299.602 259.6L309.522 250.16" stroke="#C09300" stroke-width="1.04" stroke-linejoin="round"/>
<path d="M304.641 244L306.721 263.44L313.041 255.12M310.481 258.32L313.921 270.32M315.281 265.92L308.321 276.48M310.481 287.04L308.241 276.48M308.241 276.48L306.321 265.76L301.601 272.08L299.601 264.8L293.041 271.52L296.321 283.68L300.961 276.16L303.441 283.84L308.241 276.48Z" stroke="#C09300" stroke-width="1.04" stroke-linejoin="round"/>
<path d="M292.002 289.6L296.242 283.6L298.962 292.8L302.802 286.4L305.282 294.08" stroke="#C09300" stroke-width="1.04" stroke-linejoin="round"/>
<path d="M337.2 236.64L352.48 290.8L331.44 294L322.56 253.28L337.2 236.64Z" fill="white" stroke="#C09300" stroke-width="0.96" stroke-linejoin="round"/>
<path d="M342.24 255.2L340.4 259.6L330.48 250.16" stroke="#C09300" stroke-width="1.04" stroke-linejoin="round"/>
<path d="M335.361 244L333.281 263.44L326.961 255.12M329.521 258.32L326.081 270.32M324.721 265.92L331.681 276.48M329.521 287.04L331.761 276.48M331.761 276.48L333.681 265.76L338.401 272.08L340.401 264.8L346.961 271.52L343.681 283.68L339.041 276.16L336.561 283.84L331.761 276.48Z" stroke="#C09300" stroke-width="1.04" stroke-linejoin="round"/>
<path d="M348 289.6L343.76 283.6L341.04 292.8L337.2 286.4L334.72 294.08" stroke="#C09300" stroke-width="1.04" stroke-linejoin="round"/>
<path d="M320 315.04C336 315.04 351.2 313.76 360.16 311.28C363.92 310.56 363.92 308.64 363.92 306.08C367.76 304.8 365.84 300.32 368.48 300.32C365.76 301.12 365.28 295.92 362.08 296.56C362.08 292.08 357.52 291.52 353.76 292.8C346.16 295.28 332.72 295.92 320 295.92C307.2 295.28 293.92 295.28 286.24 292.72C282.48 291.52 278 292.08 278 296.56C274.8 295.92 274.24 301.04 271.6 300.32C274.24 300.32 272.24 304.88 276.08 306.08C276.08 308.64 276.08 310.56 279.92 311.28C288.72 313.76 304.08 315.04 320 315.04Z" fill="white" stroke="#C09300" stroke-width="1.92" stroke-linecap="round" stroke-linejoin="round"/>
<path d="M298.32 290.8C303.44 291.52 309.2 292.08 313.68 291.52C316.24 291.52 318.08 295.92 312.96 296.56C308.56 297.12 301.52 296.56 297.76 295.92C292.811 295.054 287.901 293.986 283.04 292.72C278.56 290.8 281.76 287.12 284.32 287.6C288.886 289.064 293.57 290.135 298.32 290.8ZM341.68 290.8C336.56 291.52 330.8 292.08 326.48 291.52C323.76 291.52 321.92 295.92 327.04 296.56C331.52 297.12 338.48 296.56 342.24 295.92C345.44 295.28 352.48 294.08 356.96 292.72C361.44 290.8 358.24 287.12 355.68 287.6C351.113 289.064 346.429 290.135 341.68 290.8Z" fill="white" stroke="#C09300" stroke-width="1.04" stroke-linecap="round" stroke-linejoin="round"/>
<path d="M282.399 288.32C278.559 287.6 276.8 292.08 278 294.64C278.56 293.36 281.2 293.36 281.76 292.08C282.48 290.16 281.2 290.16 282.48 288.32H282.399ZM297.76 300.08C297.76 297.52 300.239 297.84 300.239 295.28C300.239 294.08 299.599 292.08 298.319 292.08C297.653 292.118 297.024 292.4 296.552 292.872C296.08 293.344 295.798 293.973 295.76 294.64C295.2 297.12 297.76 297.52 297.76 300.08ZM315.919 292.8C319.679 292.8 319.279 297.84 317.519 300.4C317.519 298.56 314.319 297.84 314.319 296.56C314.319 294.64 317.199 294.64 315.919 292.8ZM357.519 288.32C361.439 287.6 363.28 292.08 362 294.64C361.439 293.36 358.799 293.36 358.239 292.08C357.519 290.16 358.799 290.16 357.519 288.32ZM342.399 300C342.399 297.44 339.839 297.76 339.839 295.2C339.839 294 340.48 292 341.76 292C342.426 292.038 343.055 292.32 343.527 292.792C343.999 293.264 344.281 293.893 344.319 294.56C344.879 297.04 342.319 297.44 342.319 300H342.399ZM324 292.8C320.24 292.8 320.639 297.84 322.4 300.4C322.4 298.56 325.599 297.84 325.599 296.56C325.599 294.64 322.72 294.64 324 292.8Z" fill="white" stroke="#C09300" stroke-width="1.04" stroke-linecap="round" stroke-linejoin="round"/>
<path d="M283.76 289.6C285.04 289.6 286.96 290.16 287.52 290.88L283.76 289.6ZM290.08 291.52C290.72 291.52 293.28 292.08 294.48 292.8L290.08 291.52ZM312.96 294.08C311.76 294.08 309.2 294.08 308.56 294.64L312.96 294V294.08ZM306 294.08C305.28 293.36 302.8 293.36 301.52 294.08H306ZM356.24 289.6C354.882 289.617 353.566 290.065 352.48 290.88L356.24 289.6ZM350 291.52C349.2 291.52 346.8 292.08 345.52 292.8L350 291.52ZM327.04 294.08C328.24 294.08 330.8 294.08 331.52 294.64L327.04 294V294.08ZM334 294.08C334.72 293.36 337.2 293.36 338.48 294.08H334Z" fill="white" stroke="#C09300" stroke-width="0.72" stroke-linecap="round" stroke-linejoin="round"/>
<path d="M282.639 299.68C282.212 299.52 282.052 299.253 282.159 298.88C282.319 298.347 282.586 298.133 282.959 298.24C283.279 298.24 283.679 298.72 283.679 298.88L283.359 299.44L283.199 299.52C283.146 299.68 282.959 299.733 282.639 299.68ZM326.639 302.8C326.426 302.693 326.266 302.507 326.159 302.24C326.159 301.92 326.639 301.44 326.959 301.44L327.599 301.76C327.866 302.08 327.839 302.4 327.519 302.72C327.252 302.88 326.959 302.88 326.639 302.72V302.8ZM326.879 304.8C326.612 304.693 326.452 304.48 326.399 304.16C326.346 303.84 326.479 303.6 326.799 303.44L327.119 303.28L327.439 303.44C327.759 303.547 327.946 303.76 327.999 304.08C327.999 304.347 327.812 304.56 327.439 304.72C327.226 304.88 327.039 304.88 326.879 304.72V304.8Z" fill="#C09300"/>
<path d="M286.239 296C285.866 296.053 285.546 296.213 285.279 296.48C284.799 296.56 284.159 296.88 283.679 296.48C283.199 296.4 282.559 296.48 282.479 297.12C282.559 297.68 283.279 297.92 283.759 297.6C284.079 297.2 284.959 296.88 285.119 297.6C284.719 298.24 284.799 298.96 284.479 299.52C284.426 299.893 284.292 300.24 284.079 300.56C283.652 300.56 283.279 300.64 282.959 300.8C282.711 300.8 282.466 300.858 282.243 300.969C282.021 301.08 281.828 301.241 281.679 301.44C281.306 301.92 281.066 302.453 280.959 303.04C281.039 303.52 281.759 303.68 282.239 303.76L283.839 304.24L286.399 304.96L290.239 305.84L290.639 305.92C291.199 306.08 291.439 305.52 291.439 305.12L292.239 302.24C292.399 301.84 292.639 301.04 291.919 301.2C291.546 301.52 291.119 301.733 290.639 301.84C289.919 301.84 290.319 302.64 290.639 302.88C290.639 303.413 290.506 303.893 290.239 304.32C289.759 304.48 289.279 304.427 288.799 304.16C288.399 304.16 287.439 303.92 287.839 303.36L288.239 301.92L288.639 300.32C288.319 299.76 287.839 300.56 287.439 300.64C287.039 300.72 286.159 300.88 286.639 301.44C287.119 301.76 286.799 302.32 286.639 302.8C286.639 303.36 285.999 303.6 285.519 303.36C285.039 303.36 284.319 302.96 284.719 302.48L285.119 301.04L285.679 299.44C285.679 298.907 285.839 298.427 286.159 298C286.159 297.44 286.559 296.96 286.559 296.4C286.559 296.187 286.452 296.08 286.239 296.08V296ZM283.279 301.84H283.519C283.679 302 283.679 302.16 283.519 302.32L283.279 302.48C282.906 302.48 282.746 302.4 282.799 302.24L283.039 302L283.279 301.84ZM282.479 305.84C282.106 305.573 282.186 305.227 282.719 304.8C282.932 304.64 283.172 304.667 283.439 304.88C283.919 305.2 283.919 305.547 283.439 305.92C283.332 306.08 283.199 306.133 283.039 306.08C282.879 306.027 282.692 305.973 282.479 305.92V305.84ZM284.879 306.64C284.711 306.57 284.571 306.445 284.484 306.284C284.397 306.124 284.367 305.939 284.399 305.76C284.452 305.44 284.692 305.307 285.119 305.36C285.599 305.307 285.839 305.493 285.839 305.92C285.839 306.187 285.759 306.373 285.599 306.48L284.879 306.64ZM356.239 306.64C356.079 306.587 355.999 306.453 355.999 306.24C355.999 305.92 356.212 305.68 356.639 305.52C357.119 305.253 357.439 305.307 357.599 305.68C357.866 306.107 357.839 306.427 357.519 306.64C357.412 306.853 357.199 306.933 356.879 306.88C356.506 306.88 356.292 306.827 356.239 306.72V306.64ZM288.239 307.6C287.919 307.547 287.759 307.333 287.759 306.96C287.759 306.747 287.812 306.587 287.919 306.48L288.399 306.32L288.879 306.4C289.306 306.72 289.386 307.04 289.119 307.36C288.852 307.68 288.532 307.76 288.159 307.6H288.239ZM305.679 308.4L305.519 308.16C305.519 307.68 305.572 307.227 305.679 306.8L305.839 305.6L306.159 303.36C306.159 302.933 306.212 302.56 306.319 302.24C306.319 301.6 306.372 301.013 306.479 300.48C306.479 300.24 306.719 299.68 306.959 300C307.279 300.427 307.652 300.827 308.079 301.2C308.399 301.44 308.079 301.76 307.839 301.84C307.519 302 307.386 302.267 307.439 302.64L307.279 303.6L307.119 305.2L307.039 306.64L306.879 307.6C306.932 307.973 306.826 308.267 306.559 308.48C306.239 308.64 305.972 308.613 305.759 308.4H305.679ZM329.439 300.56L328.399 301.52C327.919 301.92 328.799 302.08 328.879 302.4C329.039 302.88 329.092 303.36 329.039 303.84C329.199 304.32 329.252 304.773 329.199 305.2C329.199 305.76 328.559 305.6 328.239 305.92C327.919 306.133 327.652 306.4 327.439 306.72L327.119 308C327.119 308.4 326.879 308.8 327.119 309.12L327.199 309.28H327.599L328.799 309.2L331.759 308.96L333.519 308.8C333.999 308.88 334.239 308.4 334.239 308C333.919 307.44 334.159 306.88 333.919 306.4L333.759 304.64C333.759 304.16 333.199 304 332.959 304.32L331.999 305.04C331.759 305.52 332.479 305.52 332.639 305.84L332.719 307.04C332.799 307.52 332.319 307.52 331.919 307.6C331.439 307.813 331.039 307.733 330.719 307.36C330.612 306.987 330.559 306.587 330.559 306.16L330.319 304L330.079 301.44C330.079 301.04 329.999 300.48 329.439 300.56ZM328.959 307.12H329.199V307.76L328.959 307.84L328.639 307.92H328.479C328.319 307.76 328.346 307.547 328.559 307.28L328.959 307.12ZM304.959 299.76C304.719 299.76 304.319 300.32 303.999 300.24C303.279 300.32 303.359 301.04 303.919 301.28V301.92C303.999 302.56 303.599 303.12 303.679 303.76L303.439 305.84C303.226 306.587 303.119 307.307 303.119 308C303.039 308.64 302.559 308.4 302.159 308.24V307.44C302.159 306.8 301.839 306.48 301.199 306.48C300.666 306.427 300.452 306.133 300.559 305.6C300.879 305.387 301.279 305.307 301.759 305.36C302.559 305.52 302.479 304.48 302.079 304.08C301.679 303.68 301.119 303.28 300.959 302.8C300.959 302.107 300.639 301.547 299.999 301.12C299.119 301.04 298.399 301.76 298.159 302.56C297.732 302.56 297.359 302.667 297.039 302.88C296.479 303.04 295.679 304 296.479 304.4C296.879 304.48 298.239 304.8 297.599 305.36C297.226 305.893 296.719 306.053 296.079 305.84C295.519 305.84 294.879 305.52 294.879 304.88C294.879 304.24 294.772 303.627 294.559 303.04C294.399 302.4 293.679 302.56 293.599 303.2C293.066 303.733 293.039 304.267 293.519 304.8C293.679 305.44 293.599 306.027 293.279 306.56C293.119 307.36 292.319 307.36 291.759 307.52C291.519 307.68 290.479 307.52 290.879 308.08C291.479 308.356 292.15 308.44 292.799 308.32C293.439 308.213 293.972 307.84 294.399 307.2C294.799 306.8 295.519 307.04 296.159 307.04C296.719 307.04 297.359 307.44 297.999 307.12C298.159 306.72 298.959 305.92 299.199 306.72C299.306 307.467 299.706 307.787 300.399 307.68C301.119 307.68 300.799 308.16 300.799 308.64C300.906 309.333 301.306 309.813 301.999 310.08H302.639C303.279 309.92 303.759 309.547 304.079 308.96L304.479 307.2L304.799 304.48C304.959 303.68 305.066 302.827 305.119 301.92L305.359 300.08C305.359 299.76 305.226 299.653 304.959 299.76ZM299.599 303.04C299.706 303.04 299.759 303.173 299.759 303.44C299.759 303.707 299.892 303.92 300.159 304.08V304.32L299.519 304.48C299.146 304.48 298.826 304.347 298.559 304.08L298.399 303.92L298.639 303.76L299.039 303.36C299.252 303.147 299.439 303.04 299.599 303.04ZM352.399 296.72L351.039 296.96C350.239 296.96 349.839 297.76 350.639 298.24C351.119 299.44 351.839 297.92 352.639 298.08C353.759 298.24 353.839 299.52 354.079 300.48C354.132 301.333 354.319 302.213 354.639 303.12C355.439 304 354.079 304.56 353.519 303.92C353.039 303.36 351.919 302.72 351.359 303.44C350.639 303.76 350.559 304.72 349.999 305.04C349.039 305.28 348.959 304.08 348.399 303.6C347.919 302.88 347.039 302.8 346.319 302.64C345.999 301.92 346.159 300.72 345.519 300.24C344.879 300.48 343.759 301.6 344.719 302.16C345.519 302.96 344.319 303.28 343.919 303.76C343.332 304.507 343.066 305.307 343.119 306.16C342.079 306.72 341.919 305.52 341.759 304.8C341.759 303.92 340.959 304.16 340.399 304.48C339.706 304.907 339.172 305.44 338.799 306.08V307.68C338.959 308.4 339.759 308.08 340.239 308C341.039 307.68 341.359 308.56 340.719 309.04C340.239 309.52 338.959 309.28 339.119 310.16H340.399C341.199 309.92 342.159 309.28 342.239 308.32C342.399 307.52 343.599 307.6 344.239 307.44C345.039 307.2 346.079 307.12 346.319 308.24C346.879 308.8 348.079 309.44 348.719 308.64C349.057 308.484 349.33 308.214 349.49 307.878C349.651 307.543 349.689 307.161 349.599 306.8C349.519 306.16 350.639 306.16 350.959 306.56C351.359 307.2 352.639 307.04 353.279 306.56C353.919 306.08 354.079 305.28 355.039 305.28L359.359 304.08C360.479 303.84 359.199 303.12 358.879 302.64C358.079 302.24 357.279 304 356.319 303.12C355.519 302.56 355.599 301.52 355.359 300.64C355.119 299.52 355.199 298.24 354.399 297.44C353.866 296.907 353.199 296.667 352.399 296.72ZM346.959 304.32L347.359 304.48C347.679 304.693 347.866 304.96 347.919 305.28C347.919 305.387 347.839 305.467 347.679 305.52L347.279 305.68C347.012 305.627 346.826 305.493 346.719 305.28V304.96C346.559 304.693 346.559 304.533 346.719 304.48L346.959 304.32ZM352.159 304.64C352.426 304.64 352.639 304.72 352.799 304.88C352.906 305.147 352.799 305.36 352.479 305.52L352.079 305.68L351.759 305.44C351.599 305.387 351.519 305.28 351.519 305.12C351.572 304.853 351.786 304.667 352.159 304.56V304.64ZM344.959 304.64C345.119 304.64 345.226 304.693 345.279 304.8C345.439 304.907 345.519 305.067 345.519 305.28V305.76C345.626 305.92 345.466 305.973 345.039 305.92C344.399 305.84 344.479 305.92 344.479 305.44C344.479 305.173 344.559 304.987 344.719 304.88C344.879 304.773 344.986 304.72 345.039 304.72L344.959 304.64ZM340.639 305.84L340.959 306.16C340.959 306.373 340.906 306.533 340.799 306.64C340.479 306.747 340.212 306.747 339.999 306.64V306.56C339.839 306.453 339.839 306.373 339.999 306.32V306.24L340.159 306L340.639 305.84ZM347.999 306.8L348.399 306.88V307.36H347.439L347.359 307.2C347.359 307.04 347.412 306.933 347.519 306.88L347.999 306.8ZM334.319 310.64C334.159 310.64 334.132 310.587 334.239 310.48C334.399 310.267 334.612 310.107 334.879 310C335.322 309.848 335.712 309.57 335.999 309.2L336.319 308.4L336.239 307.28C336.119 306.95 335.894 306.669 335.599 306.48C335.279 306.48 335.066 306.32 334.959 306L335.279 305.28L335.759 304.32C336.079 304.16 336.292 304.213 336.399 304.48L336.799 305.28C337.012 305.493 337.172 305.76 337.279 306.08L337.599 306.88L337.759 307.92L337.599 309.2L337.119 309.84C336.906 310.107 336.639 310.293 336.319 310.4C336.106 310.56 335.866 310.667 335.599 310.72H334.399L334.319 310.64ZM328.799 310.96C328.639 310.853 328.559 310.693 328.559 310.48C328.559 310.16 328.559 310.24 328.799 310C329.012 309.68 329.386 309.68 329.919 310C330.452 310.32 330.719 310.347 330.719 310.08C330.826 309.867 331.092 309.733 331.519 309.68L331.919 309.84C332.079 309.947 332.159 310.133 332.159 310.4C332.159 310.8 332.159 310.8 331.919 311.04C331.759 311.147 331.572 311.2 331.359 311.2C331.22 311.183 331.087 311.13 330.975 311.046C330.862 310.961 330.774 310.849 330.719 310.72C330.719 310.507 330.666 310.48 330.559 310.64L330.399 310.72C330.186 310.773 329.972 310.907 329.759 311.12L329.359 311.2C329.146 311.2 328.959 311.12 328.799 310.96ZM312.959 303.84C312.319 303.893 311.919 304.24 311.759 304.88C311.919 305.44 312.399 306.08 312.079 306.64C312.319 307.44 311.439 307.76 310.879 307.36C310.666 306.56 310.319 305.76 309.839 304.96C309.199 304.8 308.959 305.84 308.479 306.24C308.719 306.8 309.359 307.36 309.439 308.08C309.492 308.933 309.199 309.573 308.559 310C307.999 310.56 307.199 310.4 306.559 310.48C305.759 310.96 307.119 311.12 307.519 311.12C308.372 311.28 309.172 311.067 309.919 310.48C310.479 310.24 310.399 309.12 311.119 309.04L314.959 309.28C315.599 309.44 316.639 309.2 317.119 309.68C317.119 310.48 317.919 311.12 318.639 311.44C319.039 311.6 319.439 311.04 319.839 310.96C320.639 310.72 320.399 309.76 320.879 309.36H324.879C325.039 309.36 325.119 308.96 325.359 308.8L325.199 307.28C324.959 306.64 325.199 305.84 324.799 305.28C324.079 305.12 323.519 305.68 322.879 305.76C322.026 306.133 321.546 306.747 321.439 307.6C321.039 308.32 320.319 307.44 320.639 306.8L320.559 306C320.159 305.6 319.439 305.76 318.879 305.68L316.479 305.52C315.679 305.573 314.959 305.547 314.319 305.44C313.519 305.44 313.519 304.64 313.519 304L312.959 303.84ZM314.559 306.8L315.359 306.88H316.399C317.199 307.04 317.999 307.093 318.799 307.04C318.959 307.04 319.119 307.147 319.279 307.36V308.96C319.279 309.227 319.226 309.44 319.119 309.6L318.959 309.76L318.399 309.36V308.24L317.839 308L315.759 307.92L314.159 307.84C313.892 307.84 313.652 307.733 313.439 307.52C313.332 307.307 313.439 307.12 313.759 306.96L314.559 306.8ZM323.599 307.04C323.706 307.04 323.759 307.12 323.759 307.28L323.919 307.68C323.919 307.787 323.866 307.84 323.759 307.84C323.332 308 323.012 308 322.799 307.84L322.959 307.36L323.599 307.04Z" fill="#C09300"/>
<path d="M320 261.76C346.08 241.76 343.84 212.32 343.84 212.32L341.84 212.48C336.32 212.48 323.28 209.28 320.24 205.36C317.04 208.96 303.6 212.56 298.16 212.56L296.16 212.32C296.16 212.32 293.84 241.68 320 261.76Z" fill="white" stroke="#C09300" stroke-width="0.88"/>
<path d="M341.76 214.4H341.12C336.16 214.4 324.64 211.92 320.16 208.08C315.52 211.6 303.76 214.48 298.88 214.48L298.24 214.4C298.283 219.456 298.982 224.484 300.32 229.36C303.529 241.107 310.428 251.512 320 259.04C329.586 251.491 336.487 241.056 339.68 229.28C341.011 224.43 341.711 219.429 341.76 214.4Z" fill="white" stroke="#C09300" stroke-width="0.72"/>
<path d="M311.52 212C307.224 213.401 302.756 214.209 298.24 214.4L298.32 217.68C298.595 221.604 299.265 225.49 300.32 229.28C302.471 237.148 306.291 244.46 311.52 250.72V212ZM328 212V251.36C333.484 244.958 337.474 237.415 339.68 229.28C340.736 225.49 341.406 221.604 341.68 217.68L341.76 214.48H341.12C338.08 214.48 332.8 213.52 328 211.92V212Z" fill="#C09300"/>
<path d="M329.84 202.4C330.4 202.48 329.12 199.6 329.12 199.6C330.56 201.04 335.84 201.44 335.84 201.44C332.64 200 329.44 189.36 329.84 180.8C330.16 172.32 328.64 168.96 327.44 167.68C325.84 166.08 320.64 164.64 317.28 164.48C315.28 164.4 315.68 165.92 315.68 165.92C312.08 165.04 308.48 164.64 306.88 165.76C305.44 166.72 305.12 171.76 306.24 170.88C308.88 168.72 311.2 170.72 312.8 173.04C314.24 175.04 314.16 180.8 312.08 187.6C310.238 192.741 307.533 197.53 304.08 201.76C307.28 201.76 311.76 198.96 311.76 198.96L310.72 203.36C314.08 201.76 316.72 199.28 316.72 199.28L319.92 202.64C320.96 201.2 323.12 199.28 323.12 199.28C323.12 199.28 325.76 202.08 329.84 202.48V202.4Z" fill="white" stroke="#C09300" stroke-width="0.96"/>
<path d="M316.88 182.08C316.88 182.08 315.12 195.2 311.76 198.88M319.76 181.68C319.76 181.68 318.96 195.04 316.72 199.28M322.24 182.24C322.24 182.24 322.24 196.8 323.04 199.28M325.44 182.96C325.44 182.96 326.08 195.2 329.12 199.6" stroke="#C09300" stroke-width="1.04"/>
<path d="M313.6 175.68C313.529 174.753 313.256 173.852 312.8 173.04C311.2 170.64 308.88 168.72 306.24 170.88C306.24 170.88 307.12 168.08 309.12 168C310.56 167.92 314 169.12 317.04 174.24C317.04 174.24 314.8 173.76 314.24 174.24C313.28 175.04 313.68 175.68 313.68 175.68H313.6Z" fill="#C09300" stroke="#C09300" stroke-width="0.24"/>
<path d="M305.92 167.44C306.133 166.587 306.48 166.027 306.96 165.76C308.56 164.64 312.08 164.96 315.68 165.92C315.68 165.92 315.36 164.4 317.28 164.48C320.64 164.64 325.76 166.08 327.36 167.68C327.871 168.244 328.277 168.894 328.56 169.6C327.76 168.48 325.52 168.56 324.96 168.64C324.16 168.72 323.6 168.64 322.48 168.96C321.84 169.12 321.227 169.333 320.64 169.6C320.32 169.92 320 170.88 319.52 170.88C318.72 170.88 318.72 170.72 318.48 170.48C318.267 169.947 318.027 169.68 317.76 169.68C316.907 169.787 315.573 169.12 313.76 167.68C311.92 166.24 311.2 165.92 308.96 166.08C306.56 166.24 305.92 167.6 305.92 167.6V167.44Z" fill="#C09300" stroke="#C09300" stroke-width="0.24"/>
<path d="M319.04 169.52C319.57 169.52 320 169.09 320 168.56C320 168.03 319.57 167.6 319.04 167.6C318.51 167.6 318.08 168.03 318.08 168.56C318.08 169.09 318.51 169.52 319.04 169.52Z" fill="white"/>
</g>
<defs>
<clipPath id="clip0_3921_2255">
<rect width="640" height="480" fill="white"/>
</clipPath>
</defs>
</svg>
