<svg width="640" height="480" viewBox="0 0 640 480" fill="none" xmlns="http://www.w3.org/2000/svg">
<g clip-path="url(#clip0_3921_3078)">
<path d="M0 0H640V480H0V0Z" fill="white"/>
<path d="M640 192H0V288H640V192Z" fill="#CC0000"/>
<path d="M368 480V0H272V480H368Z" fill="#CC0000"/>
<path fill-rule="evenodd" clip-rule="evenodd" d="M355.2 146.6C358.2 141.8 356.4 138.6 351.8 137.7C351.8 137.7 336.9 142.5 320.8 143C304.8 143.5 285.8 139 285.8 139C282.3 141.1 283.1 146.2 284.8 149.4C284.8 149.4 301.6 155 320.8 154.4C331.039 153.965 341.169 152.114 350.9 148.9C354.6 147.7 355.2 146.7 355.2 146.6Z" fill="#EBEAE3" stroke="black" stroke-width="0.5"/>
<path d="M320 357.6L289.1 293.4L218.2 298.8L258.2 240L218.2 181.2L289.2 186.6L320 122.5L350.9 186.5L421.8 181.2L381.8 240L421.8 298.8L350.8 293.4L320 357.6Z" fill="white" stroke="#161111" stroke-width="1.6"/>
<path fill-rule="evenodd" clip-rule="evenodd" d="M319.5 122.2C358.3 128.6 356.9 130.4 356.9 130.4L367 100.2C367 100.2 368.1 94.1998 365.3 90.5998C362.5 86.9998 354.8 88.9998 354.8 88.9998C354.8 88.9998 353.8 84.0998 350.3 82.9998C346.9 81.7998 334.3 87.4998 330.3 88.7998C326.3 90.0998 324.3 91.2998 318.8 91.1998C313.3 91.1998 303.4 86.1998 301.5 85.1998C299.8 84.2998 297.1 83.3998 294.6 83.4998C292.2 83.4998 289.6 84.1998 288.3 85.8998C287 87.5998 287.1 89.7998 287.1 89.7998C287.1 89.7998 285.1 88.4998 281.9 88.4998C278.7 88.4998 276.9 88.8998 275.4 90.5998C273.9 92.2998 272 97.0998 272 97.0998L275.6 105.3L275.8 116.6L283.3 128.6L319.5 122.2Z" fill="#B02320" stroke="black" stroke-width="1.3"/>
<path fill-rule="evenodd" clip-rule="evenodd" d="M355.7 139.3C355.7 139.3 357.7 141.6 357.6 142.5C357.5 143.3 356.6 144 356.6 144C356.6 144 357.3 144.6 357.1 145.5C356.9 146.4 355.7 146.5 355.7 146.5C355.7 146.5 356 147.3 355.2 147.7C354.5 148.1 351.4 148.7 351.4 148.7C351.4 148.7 336.4 144.5 320.4 144.5C304.4 144.5 285.4 149.7 285.4 149.7C285.4 149.7 283.4 149 283.4 147.7C283.2 146.5 283.5 145.6 283.5 145.6C283.5 145.6 282.5 145.6 282.2 144.7C281.8 143.4 282.3 142.4 282.3 142.4C282.3 142.4 281.6 142.6 282.4 140.9C283 139.6 283.9 139.2 283.9 139.2C283.9 139.2 300.7 133.2 319.9 133.1C339.1 133 355.7 139.1 355.7 139.3Z" fill="#EBEAE3" stroke="black" stroke-width="0.5"/>
<path d="M276.2 101.5C276.2 101.5 275.6 99.3002 277 97.4002C277.517 96.6783 278.259 96.1489 279.11 95.8955C279.961 95.642 280.872 95.6788 281.7 96.0002C282.5 96.4002 282.4 97.3002 283.4 97.5002C284.4 97.8002 285.2 97.0002 285.2 97.0002" stroke="black" stroke-width="1.1"/>
<path fill-rule="evenodd" clip-rule="evenodd" d="M369.8 106.6L364 118.6L361.7 119C361.7 119 360.3 118.2 356.3 118.5C353.5 118.7 352.6 119.5 352.6 119.5L357.8 107.5C357.8 107.5 358.2 110 358.8 111.5C359.6 113.5 362.5 115.2 362.5 115.2C362.5 115.2 362.9 112.9 362.1 110.2C361.337 107.704 360.402 105.265 359.3 102.9L369.8 106.6Z" fill="#FFCC00" fill-opacity="0.9" stroke="black" stroke-width="1.2"/>
<path d="M316.5 69.2002H323V96.9002H316.5V69.2002Z" fill="#121116" stroke="#121116" stroke-width="1.2" stroke-linejoin="round"/>
<path fill-rule="evenodd" clip-rule="evenodd" d="M276.6 120.2L280.7 129.2C280.7 129.2 298.6 122.2 319.6 122.4C351.1 122.6 360.1 128.9 360.1 128.9L364.7 117.8L361.2 119.8L357.6 122.1L353.6 123.6L348.6 123.3L344.2 120.1L342 115.4L338.3 118.8L331.7 120.2L325.3 118.6L319.7 111.5C319.7 111.5 315.5 119.4 310.1 119.9C302.4 120.5 298 116.2 298 116.2C298 116.2 295.1 122.6 290.4 123.7C282.9 125.6 276.7 120.2 276.6 120.2Z" fill="#F6CA1F" stroke="black"/>
<path d="M348.401 65.6997C348.401 67.4997 347.001 69.0997 345.101 69.0997C344.654 69.0997 344.212 69.0118 343.8 68.8409C343.387 68.67 343.012 68.4196 342.697 68.1039C342.381 67.7882 342.13 67.4133 341.959 67.0008C341.789 66.5883 341.701 66.1462 341.701 65.6997C341.687 65.2449 341.765 64.792 341.93 64.3679C342.095 63.9437 342.343 63.557 342.66 63.2306C342.978 62.9042 343.357 62.6448 343.776 62.4677C344.195 62.2907 344.646 62.1995 345.101 62.1997C345.985 62.2257 346.824 62.5954 347.44 63.2302C348.057 63.865 348.401 64.715 348.401 65.5997" fill="#EEEEEE"/>
<path d="M348.401 65.6997C348.401 67.4997 347.001 69.0997 345.101 69.0997C344.654 69.0997 344.212 69.0118 343.8 68.8409C343.387 68.67 343.012 68.4196 342.697 68.1039C342.381 67.7882 342.13 67.4133 341.959 67.0008C341.789 66.5883 341.701 66.1462 341.701 65.6997C341.687 65.2449 341.765 64.792 341.93 64.3679C342.095 63.9437 342.343 63.557 342.66 63.2306C342.978 62.9042 343.357 62.6448 343.776 62.4677C344.195 62.2907 344.646 62.1995 345.101 62.1997C345.985 62.2257 346.824 62.5954 347.44 63.2302C348.057 63.865 348.401 64.715 348.401 65.5997" stroke="#1E1E1E" stroke-width="1.2" stroke-linejoin="round"/>
<path fill-rule="evenodd" clip-rule="evenodd" d="M343.5 67.3997C343.5 67.3997 346.2 67.3997 346.5 66.2997C346.8 65.1997 346.3 63.6997 346.3 63.6997C346.3 63.6997 347.6 65.0997 347.3 66.1997C346.967 67.133 346.4 67.6997 345.6 67.8997C344.895 67.9745 344.187 67.7974 343.6 67.3997H343.5Z" fill="#A3AFB8"/>
<path d="M340.301 69.4996C340.301 71.2996 338.801 72.8996 336.901 72.8996C336.454 72.8996 336.012 72.8116 335.599 72.6408C335.187 72.4699 334.812 72.2194 334.496 71.9037C334.181 71.588 333.93 71.2132 333.759 70.8007C333.588 70.3882 333.501 69.9461 333.501 69.4996C333.487 69.0362 333.568 68.5749 333.739 68.144C333.91 67.7131 334.167 67.3217 334.495 66.9939C334.823 66.6661 335.214 66.4088 335.645 66.2378C336.076 66.0668 336.537 65.9857 337.001 65.9996C337.885 65.9992 338.735 66.3436 339.37 66.9598C340.005 67.5759 340.375 68.4153 340.401 69.2996" fill="#EEEEEE"/>
<path d="M340.301 69.4996C340.301 71.2996 338.801 72.8996 336.901 72.8996C336.454 72.8996 336.012 72.8116 335.599 72.6408C335.187 72.4699 334.812 72.2194 334.496 71.9037C334.181 71.588 333.93 71.2132 333.759 70.8007C333.588 70.3882 333.501 69.9461 333.501 69.4996C333.487 69.0362 333.568 68.5749 333.739 68.144C333.91 67.7131 334.167 67.3217 334.495 66.9939C334.823 66.6661 335.214 66.4088 335.645 66.2378C336.076 66.0668 336.537 65.9857 337.001 65.9996C337.885 65.9992 338.735 66.3436 339.37 66.9598C340.005 67.5759 340.375 68.4153 340.401 69.2996" stroke="#1E1E1E" stroke-width="1.2" stroke-linejoin="round"/>
<path fill-rule="evenodd" clip-rule="evenodd" d="M335.3 71.2C335.3 71.2 338.1 71.2 338.3 70.1C338.5 69 338.1 67.5 338.1 67.5C338.1 67.5 339.4 69 339.1 70.1C338.766 71.0333 338.2 71.5667 337.4 71.7C336.695 71.7748 335.986 71.5977 335.4 71.2H335.3Z" fill="#A3AFB8"/>
<path d="M358 63.4C358 65.3 356.4 66.8 354.6 66.8C353.698 66.8 352.834 66.4418 352.196 65.8042C351.558 65.1665 351.2 64.3017 351.2 63.4C351.2 62.5153 351.544 61.6653 352.16 61.0305C352.777 60.3957 353.616 60.026 354.5 60C355.402 60 356.267 60.3582 356.904 60.9958C357.542 61.6335 357.9 62.4983 357.9 63.4" fill="#EEEEEE"/>
<path d="M358 63.4C358 65.3 356.4 66.8 354.6 66.8C353.698 66.8 352.834 66.4418 352.196 65.8042C351.558 65.1665 351.2 64.3017 351.2 63.4C351.2 62.5153 351.544 61.6653 352.16 61.0305C352.777 60.3957 353.616 60.026 354.5 60C355.402 60 356.267 60.3582 356.904 60.9958C357.542 61.6335 357.9 62.4983 357.9 63.4" stroke="#1E1E1E" stroke-width="1.2" stroke-linejoin="round"/>
<path fill-rule="evenodd" clip-rule="evenodd" d="M353 65.2C353 65.2 355.7 65.2 356 64C356.3 62.8 355.8 61.5 355.8 61.5C355.8 61.5 357.1 62.9 356.8 64C356.467 65 355.9 65.5333 355.1 65.6C354.407 65.7043 353.699 65.5628 353.1 65.2H353Z" fill="#A3AFB8"/>
<path d="M368.6 65.5997C368.6 67.3997 367.1 68.9997 365.3 68.9997C364.399 68.9997 363.534 68.6415 362.896 68.0039C362.259 67.3662 361.9 66.5014 361.9 65.5997C361.9 64.698 362.259 63.8332 362.896 63.1955C363.534 62.5579 364.399 62.1997 365.3 62.1997C366.168 62.2249 366.992 62.5806 367.606 63.1941C368.219 63.8076 368.575 64.6324 368.6 65.4997" fill="#EEEEEE"/>
<path d="M368.6 65.5997C368.6 67.3997 367.1 68.9997 365.3 68.9997C364.399 68.9997 363.534 68.6415 362.896 68.0039C362.259 67.3662 361.9 66.5014 361.9 65.5997C361.9 64.698 362.259 63.8332 362.896 63.1955C363.534 62.5579 364.399 62.1997 365.3 62.1997C366.168 62.2249 366.992 62.5806 367.606 63.1941C368.219 63.8076 368.575 64.6324 368.6 65.4997" stroke="#1E1E1E" stroke-width="1.2" stroke-linejoin="round"/>
<path fill-rule="evenodd" clip-rule="evenodd" d="M363.7 67.2996C363.7 67.2996 366.4 67.2996 366.7 66.1996C367 65.0996 366.5 63.5996 366.5 63.5996C366.5 63.5996 367.8 64.9996 367.5 66.1996C367.167 67.0663 366.6 67.5996 365.8 67.7996C365.062 67.8993 364.314 67.7211 363.7 67.2996Z" fill="#A3AFB8"/>
<path d="M376.8 72.2999C376.8 74.0999 375.3 75.6999 373.4 75.6999C372.498 75.6999 371.633 75.3417 370.996 74.7041C370.358 74.0664 370 73.2016 370 72.2999C370 71.3982 370.358 70.5334 370.996 69.8957C371.633 69.2581 372.498 68.8999 373.4 68.8999C374.285 68.8995 375.135 69.244 375.77 69.8601C376.404 70.4763 376.774 71.3156 376.8 72.1999" fill="#EEEEEE"/>
<path d="M376.8 72.2999C376.8 74.0999 375.3 75.6999 373.4 75.6999C372.498 75.6999 371.633 75.3417 370.996 74.7041C370.358 74.0664 370 73.2016 370 72.2999C370 71.3982 370.358 70.5334 370.996 69.8957C371.633 69.2581 372.498 68.8999 373.4 68.8999C374.285 68.8995 375.135 69.244 375.77 69.8601C376.404 70.4763 376.774 71.3156 376.8 72.1999" stroke="#1E1E1E" stroke-width="1.2" stroke-linejoin="round"/>
<path fill-rule="evenodd" clip-rule="evenodd" d="M371.9 73.9998C371.9 73.9998 374.6 73.9998 374.9 72.8998C375.2 71.7998 374.7 70.2998 374.7 70.2998C374.7 70.2998 376 71.7998 375.6 72.8998C375.334 73.8331 374.767 74.3665 373.9 74.4998C373.234 74.5665 372.567 74.3998 371.9 73.9998Z" fill="#A3AFB8"/>
<path d="M380.301 83.2999C380.301 85.1999 378.801 86.6999 376.901 86.6999C376.016 86.6739 375.177 86.3042 374.561 85.6694C373.945 85.0346 373.6 84.1846 373.601 83.2999C373.6 82.4152 373.945 81.5652 374.561 80.9304C375.177 80.2956 376.016 79.9259 376.901 79.8999C377.802 79.8999 378.667 80.2581 379.305 80.8957C379.942 81.5334 380.301 82.3982 380.301 83.2999Z" fill="#EEEEEE" stroke="#1E1E1E" stroke-width="1.2" stroke-linejoin="round"/>
<path fill-rule="evenodd" clip-rule="evenodd" d="M375.4 84.9998C375.4 84.9998 378.1 84.9998 378.4 83.8998C378.7 82.7998 378.2 81.2998 378.2 81.2998C378.2 81.2998 379.5 82.7998 379.1 83.8998C378.834 84.8331 378.267 85.3665 377.4 85.4998C376.696 85.5746 375.987 85.3975 375.4 84.9998Z" fill="#A3AFB8"/>
<path d="M379 94.4C379 96.4 377.5 97.8 375.6 97.8C374.733 97.7748 373.908 97.4191 373.295 96.8056C372.681 96.1921 372.325 95.3673 372.3 94.5C372.287 94.0535 372.362 93.6087 372.52 93.191C372.679 92.7734 372.919 92.3912 373.225 92.0661C373.531 91.7411 373.899 91.4796 374.307 91.2967C374.714 91.1138 375.154 91.0129 375.6 91C376.502 91 377.367 91.3582 378.005 91.9958C378.642 92.6335 379 93.4983 379 94.4Z" fill="#EEEEEE" stroke="#1E1E1E" stroke-width="1.2" stroke-linejoin="round"/>
<path fill-rule="evenodd" clip-rule="evenodd" d="M374 96.2C374 96.2 376.8 96.2 377 95C377.3 94 376.9 92.5 376.9 92.5C376.9 92.5 378.2 93.9 377.8 95C377.4 96.1 377.1 96.4 376.1 96.6C375.407 96.7043 374.699 96.5628 374.1 96.2H374Z" fill="#A3AFB8"/>
<path d="M374 104.2C374 106.1 372.5 107.6 370.7 107.6C369.798 107.6 368.933 107.242 368.296 106.604C367.658 105.966 367.3 105.102 367.3 104.2C367.3 103.298 367.658 102.433 368.296 101.796C368.933 101.158 369.798 100.8 370.7 100.8C371.584 100.826 372.423 101.195 373.04 101.83C373.656 102.465 374 103.315 374 104.2Z" fill="#EEEEEE" stroke="#1E1E1E" stroke-width="1.2" stroke-linejoin="round"/>
<path fill-rule="evenodd" clip-rule="evenodd" d="M369.101 106C369.101 106 371.801 106 372.101 104.8C372.401 103.8 371.901 102.3 371.901 102.3C371.901 102.3 373.201 103.7 372.901 104.8C372.567 105.8 372.001 106.333 371.201 106.4C370.508 106.504 369.8 106.363 369.201 106H369.101Z" fill="#A3AFB8"/>
<path d="M332.301 72.4C332.301 74.3 330.801 75.8 329.001 75.8C328.099 75.8 327.234 75.4418 326.596 74.8042C325.959 74.1665 325.601 73.3017 325.601 72.4C325.6 71.5153 325.945 70.6653 326.561 70.0305C327.177 69.3957 328.016 69.026 328.901 69C329.802 69 330.667 69.3582 331.305 69.9958C331.942 70.6335 332.301 71.4983 332.301 72.4Z" fill="#EEEEEE" stroke="#1E1E1E" stroke-width="1.2" stroke-linejoin="round"/>
<path fill-rule="evenodd" clip-rule="evenodd" d="M327.4 74.2C327.4 74.2 330.1 74.2 330.4 73C330.7 71.8 330.2 70.5 330.2 70.5C330.2 70.5 331.5 71.9 331.2 73C330.867 74 330.3 74.5333 329.5 74.6C328.7 74.8 328 74.6667 327.4 74.2Z" fill="#A3AFB8"/>
<path d="M322.1 71.4997C322.077 72.2445 321.777 72.954 321.26 73.4901C320.742 74.0261 320.044 74.3504 319.3 74.3997C318.556 74.3504 317.858 74.0261 317.34 73.4901C316.823 72.954 316.523 72.2445 316.5 71.4997C316.547 70.7726 316.857 70.0874 317.372 69.5721C317.888 69.0569 318.573 68.7468 319.3 68.6997C320.027 68.7468 320.712 69.0569 321.228 69.5721C321.743 70.0874 322.053 70.7726 322.1 71.4997Z" fill="#EEEEEE" stroke="#1E1E1E" stroke-width="1.2" stroke-linejoin="round"/>
<path fill-rule="evenodd" clip-rule="evenodd" d="M318 72.9995C318 72.9995 320.3 72.9995 320.5 71.9995C320.7 70.9995 320.4 69.9995 320.4 69.9995C320.4 69.9995 321.4 71.0995 321.2 71.9995C320.867 72.8662 320.4 73.3328 319.8 73.3995C319.173 73.4584 318.543 73.3185 318 72.9995Z" fill="#A3AFB8"/>
<path d="M322.201 74.9997C322.202 75.7619 321.914 76.4961 321.394 77.0533C320.874 77.6105 320.161 77.9489 319.401 77.9997C318.64 77.9489 317.927 77.6105 317.407 77.0533C316.887 76.4961 316.599 75.7619 316.601 74.9997C316.648 74.2726 316.958 73.5874 317.473 73.0721C317.988 72.5569 318.673 72.2468 319.401 72.1997C320.128 72.2468 320.813 72.5569 321.328 73.0721C321.843 73.5874 322.154 74.2726 322.201 74.9997Z" fill="#EEEEEE" stroke="#1E1E1E" stroke-width="1.2" stroke-linejoin="round"/>
<path fill-rule="evenodd" clip-rule="evenodd" d="M318.001 76.4995C318.001 76.4995 320.301 76.4995 320.601 75.4995C320.801 74.6995 320.401 73.4995 320.401 73.4995C320.401 73.4995 321.401 74.6995 321.201 75.4995C321.001 76.3662 320.534 76.8328 319.801 76.8995C319.207 76.9377 318.615 76.7985 318.101 76.4995H318.001Z" fill="#A3AFB8"/>
<path d="M322.4 80.2999C322.353 81.0271 322.043 81.7122 321.528 82.2275C321.013 82.7427 320.327 83.0528 319.6 83.0999C318.855 83.0767 318.146 82.7771 317.61 82.2596C317.074 81.742 316.75 81.0434 316.7 80.2999C316.725 79.5387 317.039 78.8155 317.577 78.277C318.116 77.7384 318.839 77.4249 319.6 77.3999C320.344 77.4492 321.042 77.7735 321.56 78.3095C322.077 78.8456 322.377 79.5551 322.4 80.2999Z" fill="#EEEEEE" stroke="#1E1E1E" stroke-width="1.2" stroke-linejoin="round"/>
<path fill-rule="evenodd" clip-rule="evenodd" d="M318.3 81.7997C318.3 81.7997 320.5 81.7997 320.8 80.7997C321.1 79.7997 320.6 78.6997 320.6 78.6997C320.6 78.6997 321.6 79.8997 321.4 80.6997C321.2 81.633 320.733 82.0997 320 82.0997C319.416 82.1684 318.825 82.0641 318.3 81.7997Z" fill="#A3AFB8"/>
<path d="M322.7 85.7997C322.714 86.202 322.646 86.6029 322.501 86.9785C322.357 87.3541 322.138 87.6967 321.858 87.986C321.578 88.2752 321.243 88.5052 320.872 88.6622C320.501 88.8192 320.103 88.8999 319.7 88.8997C319.298 88.9131 318.897 88.8455 318.522 88.7007C318.146 88.556 317.803 88.3371 317.514 88.0572C317.225 87.7773 316.995 87.442 316.838 87.0713C316.681 86.7007 316.6 86.3022 316.6 85.8997C316.573 85.4893 316.63 85.0775 316.769 84.6902C316.907 84.3028 317.124 83.948 317.405 83.6479C317.687 83.3478 318.027 83.1087 318.404 82.9456C318.782 82.7825 319.189 82.6988 319.6 82.6997C320.003 82.6995 320.401 82.7803 320.772 82.9373C321.143 83.0942 321.478 83.3242 321.758 83.6135C322.038 83.9027 322.257 84.2453 322.401 84.6209C322.546 84.9965 322.614 85.3974 322.6 85.7997" fill="#EEEEEE"/>
<path d="M322.7 85.7997C322.714 86.202 322.646 86.6029 322.501 86.9785C322.357 87.3541 322.138 87.6967 321.858 87.986C321.578 88.2752 321.243 88.5052 320.872 88.6622C320.501 88.8192 320.103 88.8999 319.7 88.8997C319.298 88.9131 318.897 88.8455 318.522 88.7007C318.146 88.556 317.803 88.3371 317.514 88.0572C317.225 87.7773 316.995 87.442 316.838 87.0713C316.681 86.7007 316.6 86.3022 316.6 85.8997C316.573 85.4893 316.63 85.0775 316.769 84.6902C316.907 84.3028 317.124 83.948 317.405 83.6479C317.687 83.3478 318.027 83.1087 318.404 82.9456C318.782 82.7825 319.189 82.6988 319.6 82.6997C320.003 82.6995 320.401 82.7803 320.772 82.9373C321.143 83.0942 321.478 83.3242 321.758 83.6135C322.038 83.9027 322.257 84.2453 322.401 84.6209C322.546 84.9965 322.614 85.3974 322.6 85.7997" stroke="#1E1E1E" stroke-width="1.2" stroke-linejoin="round"/>
<path fill-rule="evenodd" clip-rule="evenodd" d="M318.2 87.3996C318.2 87.3996 320.7 87.3996 320.9 86.3996C321.1 85.3996 320.7 84.0996 320.7 84.0996C320.7 84.0996 321.9 85.3996 321.6 86.3996C321.2 87.3996 320.9 87.5996 320.1 87.7996C319.44 87.8806 318.772 87.7399 318.2 87.3996Z" fill="#A3AFB8"/>
<path d="M323 93.2998C323 95.0998 321.5 96.6998 319.6 96.6998C318.716 96.6738 317.877 96.3041 317.261 95.6693C316.644 95.0345 316.3 94.1845 316.3 93.2998C316.287 92.8533 316.362 92.4085 316.52 91.9909C316.679 91.5732 316.919 91.191 317.225 90.8659C317.531 90.5409 317.899 90.2794 318.307 90.0965C318.714 89.9136 319.154 89.8127 319.6 89.7998C320.502 89.7998 321.367 90.158 322.005 90.7956C322.642 91.4333 323 92.2981 323 93.1998" fill="#EEEEEE"/>
<path d="M323 93.2998C323 95.0998 321.5 96.6998 319.6 96.6998C318.716 96.6738 317.877 96.3041 317.261 95.6693C316.644 95.0345 316.3 94.1845 316.3 93.2998C316.287 92.8533 316.362 92.4085 316.52 91.9909C316.679 91.5732 316.919 91.191 317.225 90.8659C317.531 90.5409 317.899 90.2794 318.307 90.0965C318.714 89.9136 319.154 89.8127 319.6 89.7998C320.502 89.7998 321.367 90.158 322.005 90.7956C322.642 91.4333 323 92.2981 323 93.1998" stroke="#1E1E1E" stroke-width="1.2" stroke-linejoin="round"/>
<path fill-rule="evenodd" clip-rule="evenodd" d="M318 94.9998C318 94.9998 320.8 94.9998 321 93.8998C321.2 92.7998 320.9 91.2998 320.9 91.2998C320.9 91.2998 322.2 92.7998 321.8 93.8998C321.4 94.8998 321.1 95.2998 320.1 95.4998C319.395 95.5746 318.687 95.3975 318.1 94.9998H318Z" fill="#A3AFB8"/>
<path d="M322.7 108.5C322.7 110.3 321.3 111.7 319.5 111.7C319.072 111.729 318.643 111.667 318.241 111.516C317.84 111.366 317.475 111.131 317.172 110.828C316.868 110.525 316.634 110.16 316.483 109.758C316.333 109.357 316.271 108.928 316.3 108.5C316.3 106.8 317.7 105.3 319.5 105.3C319.928 105.27 320.357 105.332 320.759 105.483C321.161 105.633 321.525 105.868 321.829 106.171C322.132 106.474 322.367 106.839 322.517 107.241C322.667 107.643 322.73 108.072 322.7 108.5Z" fill="#EEEEEE" stroke="#1E1E1E" stroke-width="1.2" stroke-linejoin="round"/>
<path fill-rule="evenodd" clip-rule="evenodd" d="M318 110.2C318 110.2 320.6 110.2 320.8 109.1C321.1 108.1 320.7 106.7 320.7 106.7C320.7 106.7 321.9 108 321.5 109.1C321.233 109.966 320.733 110.466 320 110.6C319.333 110.666 318.667 110.533 318 110.2Z" fill="#A3AFB8"/>
<path d="M313.6 72.2999C313.6 74.1999 312 75.6999 310.2 75.6999C309.298 75.6999 308.433 75.3417 307.796 74.7041C307.158 74.0664 306.8 73.2016 306.8 72.2999C306.8 71.3982 307.158 70.5334 307.796 69.8957C308.433 69.2581 309.298 68.8999 310.2 68.8999C311.102 68.8999 311.966 69.2581 312.604 69.8957C313.242 70.5334 313.6 71.3982 313.6 72.2999Z" fill="#EEEEEE" stroke="#1E1E1E" stroke-width="1.2" stroke-linejoin="round"/>
<path fill-rule="evenodd" clip-rule="evenodd" d="M308.601 73.9999C308.601 73.9999 311.301 73.9999 311.601 72.9999C311.901 71.7999 311.401 70.3999 311.401 70.3999C311.401 70.3999 312.701 71.7999 312.401 72.8999C312.067 73.8999 311.501 74.4332 310.701 74.4999C310.008 74.6042 309.3 74.4627 308.701 74.0999L308.601 73.9999Z" fill="#A3AFB8"/>
<path d="M305.2 68.9996C305.2 70.8996 303.7 72.3996 301.8 72.3996C300.916 72.3736 300.076 72.0039 299.46 71.3691C298.844 70.7343 298.5 69.8843 298.5 68.9996C298.5 68.1149 298.844 67.265 299.46 66.6301C300.076 65.9953 300.916 65.6256 301.8 65.5996C302.702 65.5996 303.567 65.9578 304.204 66.5955C304.842 67.2331 305.2 68.0979 305.2 68.9996Z" fill="#EEEEEE" stroke="#1E1E1E" stroke-width="1.2" stroke-linejoin="round"/>
<path fill-rule="evenodd" clip-rule="evenodd" d="M300.3 70.7996C300.3 70.7996 303 70.7996 303.3 69.5996C303.5 68.5996 303.1 67.0996 303.1 67.0996C303.1 67.0996 304.4 68.4996 304.1 69.5996C303.6 70.6996 303.3 70.9996 302.3 71.1996C301.633 71.3996 300.966 71.2663 300.3 70.7996Z" fill="#A3AFB8"/>
<path d="M297.201 65.2998C297.201 67.0998 295.701 68.6998 293.901 68.6998C292.999 68.6998 292.134 68.3416 291.496 67.704C290.859 67.0663 290.501 66.2015 290.501 65.2998C290.487 64.8533 290.562 64.4085 290.721 63.9909C290.879 63.5732 291.119 63.191 291.425 62.8659C291.732 62.5409 292.099 62.2794 292.507 62.0965C292.914 61.9136 293.354 61.8127 293.801 61.7998C294.702 61.7998 295.567 62.158 296.205 62.7956C296.842 63.4333 297.201 64.2981 297.201 65.1998" fill="#EEEEEE"/>
<path d="M297.201 65.2998C297.201 67.0998 295.701 68.6998 293.901 68.6998C292.999 68.6998 292.134 68.3416 291.496 67.704C290.859 67.0663 290.501 66.2015 290.501 65.2998C290.487 64.8533 290.562 64.4085 290.721 63.9909C290.879 63.5732 291.119 63.191 291.425 62.8659C291.732 62.5409 292.099 62.2794 292.507 62.0965C292.914 61.9136 293.354 61.8127 293.801 61.7998C294.702 61.7998 295.567 62.158 296.205 62.7956C296.842 63.4333 297.201 64.2981 297.201 65.1998" stroke="#1E1E1E" stroke-width="1.2" stroke-linejoin="round"/>
<path fill-rule="evenodd" clip-rule="evenodd" d="M292.3 66.9998C292.3 66.9998 295 66.9998 295.3 65.8998C295.6 64.7998 295.1 63.2998 295.1 63.2998C295.1 63.2998 296.4 64.7998 296.1 65.8998C295.766 66.8331 295.2 67.3665 294.4 67.4998C293.662 67.5995 292.914 67.4213 292.3 66.9998Z" fill="#A3AFB8"/>
<path d="M288 63.2998C288 65.1998 286.6 66.6998 284.7 66.6998C283.799 66.6998 282.934 66.3416 282.296 65.704C281.659 65.0663 281.3 64.2015 281.3 63.2998C281.287 62.845 281.365 62.3921 281.53 61.968C281.695 61.5438 281.943 61.1571 282.26 60.8307C282.577 60.5043 282.957 60.2449 283.376 60.0678C283.795 59.8908 284.245 59.7996 284.7 59.7998C285.602 59.7998 286.467 60.158 287.104 60.7956C287.742 61.4333 288.1 62.2981 288.1 63.1998" fill="#EEEEEE"/>
<path d="M288 63.2998C288 65.1998 286.6 66.6998 284.7 66.6998C283.799 66.6998 282.934 66.3416 282.296 65.704C281.659 65.0663 281.3 64.2015 281.3 63.2998C281.287 62.845 281.365 62.3921 281.53 61.968C281.695 61.5438 281.943 61.1571 282.26 60.8307C282.577 60.5043 282.957 60.2449 283.376 60.0678C283.795 59.8908 284.245 59.7996 284.7 59.7998C285.602 59.7998 286.467 60.158 287.104 60.7956C287.742 61.4333 288.1 62.2981 288.1 63.1998" stroke="#1E1E1E" stroke-width="1.2" stroke-linejoin="round"/>
<path fill-rule="evenodd" clip-rule="evenodd" d="M283.101 64.9998C283.101 64.9998 285.801 64.9998 286.101 63.8998C286.401 62.7998 285.901 61.2998 285.901 61.2998C285.901 61.2998 287.201 62.7998 286.901 63.8998C286.567 64.8331 286.001 65.3665 285.201 65.4998C284.496 65.5746 283.787 65.3975 283.201 64.9998H283.101Z" fill="#A3AFB8"/>
<path d="M277.201 65.7999C277.201 67.7999 275.7 69.1999 273.9 69.2999C272.999 69.2999 272.134 68.9417 271.496 68.3041C270.859 67.6664 270.5 66.8016 270.5 65.8999C270.487 65.4451 270.565 64.9922 270.73 64.568C270.895 64.1439 271.143 63.7572 271.46 63.4308C271.777 63.1044 272.157 62.845 272.576 62.6679C272.995 62.4908 273.445 62.3997 273.9 62.3999C274.785 62.4259 275.624 62.7956 276.24 63.4304C276.856 64.0652 277.201 64.9152 277.201 65.7999Z" fill="#EEEEEE" stroke="#1E1E1E" stroke-width="1.2" stroke-linejoin="round"/>
<path fill-rule="evenodd" clip-rule="evenodd" d="M272.3 67.5999C272.3 67.5999 275 67.5999 275.3 66.4999C275.6 65.3999 275.1 63.8999 275.1 63.8999C275.1 63.8999 276.4 65.2999 276.1 66.3999C275.766 67.3332 275.2 67.8999 274.4 68.0999C273.695 68.1747 272.986 67.9976 272.4 67.5999H272.3Z" fill="#A3AFB8"/>
<path d="M269.6 73.4996C269.6 75.3996 268.1 76.8996 266.2 76.8996C265.316 76.8736 264.477 76.5039 263.861 75.8691C263.244 75.2343 262.9 74.3843 262.9 73.4996C262.9 72.6149 263.244 71.765 263.861 71.1301C264.477 70.4953 265.316 70.1256 266.2 70.0996C267.102 70.0996 267.967 70.4578 268.605 71.0955C269.242 71.7331 269.6 72.5979 269.6 73.4996Z" fill="#EEEEEE" stroke="#1E1E1E" stroke-width="1.2" stroke-linejoin="round"/>
<path fill-rule="evenodd" clip-rule="evenodd" d="M264.7 75.2C264.7 75.2 267.4 75.2 267.7 74.1C268 73 267.5 71.5 267.5 71.5C267.5 71.5 268.8 73 268.4 74.1C268.134 75.0333 267.567 75.5667 266.7 75.7C265.995 75.7748 265.287 75.5977 264.7 75.2Z" fill="#A3AFB8"/>
<path d="M266.4 84.1998C266.4 86.0998 264.9 87.5998 263.1 87.5998C262.198 87.5998 261.334 87.2416 260.696 86.604C260.058 85.9663 259.7 85.1015 259.7 84.1998C259.7 83.3151 260.044 82.4651 260.66 81.8303C261.277 81.1955 262.116 80.8258 263 80.7998C263.885 80.7994 264.735 81.1439 265.37 81.76C266.004 82.3762 266.374 83.2155 266.4 84.0998" fill="#EEEEEE"/>
<path d="M266.4 84.1998C266.4 86.0998 264.9 87.5998 263.1 87.5998C262.198 87.5998 261.334 87.2416 260.696 86.604C260.058 85.9663 259.7 85.1015 259.7 84.1998C259.7 83.3151 260.044 82.4651 260.66 81.8303C261.277 81.1955 262.116 80.8258 263 80.7998C263.885 80.7994 264.735 81.1439 265.37 81.76C266.004 82.3762 266.374 83.2155 266.4 84.0998" stroke="#1E1E1E" stroke-width="1.2" stroke-linejoin="round"/>
<path fill-rule="evenodd" clip-rule="evenodd" d="M261.5 85.9997C261.5 85.9997 264.2 85.8997 264.5 84.7997C264.8 83.6997 264.3 82.1997 264.3 82.1997C264.3 82.1997 265.6 83.6997 265.3 84.7997C264.967 85.733 264.4 86.2664 263.6 86.3997C262.862 86.4994 262.114 86.3212 261.5 85.8997V85.9997Z" fill="#A3AFB8"/>
<path d="M267.8 95.2999C267.8 97.2999 266.3 98.7999 264.5 98.7999C263.598 98.7999 262.734 98.4417 262.096 97.8041C261.458 97.1664 261.1 96.3016 261.1 95.3999C261.087 94.9534 261.162 94.5086 261.32 94.091C261.479 93.6733 261.718 93.2911 262.025 92.966C262.331 92.641 262.699 92.3795 263.106 92.1966C263.514 92.0137 263.954 91.9128 264.4 91.8999C265.302 91.8999 266.167 92.2581 266.804 92.8957C267.442 93.5334 267.8 94.3982 267.8 95.2999Z" fill="#EEEEEE" stroke="#1E1E1E" stroke-width="1.2" stroke-linejoin="round"/>
<path fill-rule="evenodd" clip-rule="evenodd" d="M262.9 97.0999C262.9 97.0999 265.6 97.0999 265.9 95.8999C266.2 94.8999 265.7 93.3999 265.7 93.3999C265.7 93.3999 267 94.7999 266.7 95.8999C266.367 96.8999 265.8 97.4666 265 97.5999C264.296 97.6747 263.587 97.4976 263 97.0999H262.9Z" fill="#A3AFB8"/>
<path d="M273 105.5C273 107.3 271.5 108.9 269.6 108.9C268.716 108.874 267.877 108.504 267.261 107.869C266.644 107.235 266.3 106.385 266.3 105.5C266.287 105.053 266.362 104.609 266.52 104.191C266.679 103.773 266.919 103.391 267.225 103.066C267.531 102.741 267.899 102.48 268.307 102.297C268.714 102.114 269.154 102.013 269.6 102C270.047 102 270.489 102.088 270.901 102.259C271.314 102.43 271.689 102.68 272.005 102.996C272.32 103.312 272.571 103.686 272.742 104.099C272.912 104.511 273 104.954 273 105.4" fill="#EEEEEE"/>
<path d="M273 105.5C273 107.3 271.5 108.9 269.6 108.9C268.716 108.874 267.877 108.504 267.261 107.869C266.644 107.235 266.3 106.385 266.3 105.5C266.287 105.053 266.362 104.609 266.52 104.191C266.679 103.773 266.919 103.391 267.225 103.066C267.531 102.741 267.899 102.48 268.307 102.297C268.714 102.114 269.154 102.013 269.6 102C270.047 102 270.489 102.088 270.901 102.259C271.314 102.43 271.689 102.68 272.005 102.996C272.32 103.312 272.571 103.686 272.742 104.099C272.912 104.511 273 104.954 273 105.4" stroke="#1E1E1E" stroke-width="1.2" stroke-linejoin="round"/>
<path fill-rule="evenodd" clip-rule="evenodd" d="M268 107.2C268 107.2 270.8 107.2 271 106.1C271.2 105 270.9 103.5 270.9 103.5C270.9 103.5 272.2 104.9 271.9 106C271.5 107 270.933 107.567 270.2 107.7C269.462 107.8 268.714 107.621 268.1 107.2H268Z" fill="#A3AFB8"/>
<path d="M278.854 118.181C279.084 119.04 279.093 119.922 278.879 120.637C278.665 121.351 278.245 121.839 277.709 121.997C277.164 122.143 276.55 121.938 276 121.427C275.45 120.916 275.011 120.141 274.778 119.273C274.547 118.413 274.538 117.531 274.752 116.817C274.967 116.103 275.387 115.614 275.923 115.456C276.467 115.31 277.082 115.515 277.632 116.026C278.182 116.537 278.621 117.312 278.854 118.181Z" fill="#EEEEEE" stroke="#1E1E1E" stroke-width="1.15653" stroke-linejoin="round"/>
<path fill-rule="evenodd" clip-rule="evenodd" d="M276.301 120.7C276.301 120.7 277.901 120.2 277.801 119.1C277.801 118 277.101 116.7 277.101 116.7C277.101 116.7 278.201 117.8 278.301 119C278.301 119.933 278.101 120.533 277.701 120.8C277.301 121 276.834 120.966 276.301 120.7Z" fill="#A3AFB8"/>
<path d="M365.825 118.832C365.612 119.697 365.194 120.474 364.662 120.996C364.13 121.518 363.526 121.743 362.98 121.622C362.433 121.487 361.993 121.011 361.759 120.298C361.524 119.585 361.513 118.694 361.729 117.821C361.942 116.957 362.36 116.18 362.892 115.658C363.424 115.136 364.028 114.911 364.574 115.032C365.121 115.167 365.56 115.643 365.795 116.356C366.03 117.069 366.041 117.96 365.825 118.832Z" fill="#EEEEEE" stroke="#1E1E1E" stroke-width="1.15654" stroke-linejoin="round"/>
<path fill-rule="evenodd" clip-rule="evenodd" d="M362.301 119.8C362.301 119.8 364.001 120.2 364.401 119.1C364.901 118.1 364.901 116.6 364.901 116.6C364.901 116.6 365.401 118.2 364.901 119.2C364.401 120.2 364.101 120.5 363.501 120.5C363.034 120.5 362.634 120.267 362.301 119.8Z" fill="#A3AFB8"/>
<path fill-rule="evenodd" clip-rule="evenodd" d="M316.7 53.8002L317 59.5002C317 59.5002 310.2 60.1002 310 60.7002C308.6 63.7002 311.5 67.7002 311.5 67.7002C311.5 67.7002 313.8 65.9002 319.5 65.9002C325 65.9002 327.8 67.3002 327.8 67.3002C327.8 67.3002 329.2 65.0002 329.2 63.3002C329.2 61.6002 328.6 59.9002 328.6 59.9002L325 59.5002H322.5L322.3 53.7002L316.7 53.8002Z" fill="#B3A192" stroke="black" stroke-width="1.2"/>
<path d="M326.4 62.6002C326.266 63.3335 325.866 63.7335 325.2 63.8002C324.4 63.7335 323.966 63.3669 323.9 62.7002C324.033 61.9669 324.433 61.5669 325.1 61.5002C325.833 61.5669 326.266 61.9335 326.4 62.6002ZM329.1 63.3002C329.1 63.9669 328.7 64.3669 327.9 64.5002C326.7 64.7002 326.6 63.9002 326.6 63.3002C326.666 62.5669 327.1 62.1669 327.9 62.1002C328.7 62.0335 329.1 62.4335 329.1 63.3002ZM323.6 62.6002C323.466 63.2669 323.066 63.6669 322.4 63.8002C321.666 63.6669 321.266 63.2669 321.2 62.6002C321.2 61.7335 321.566 61.3335 322.3 61.4002C323.033 61.4669 323.466 61.8669 323.6 62.6002ZM318 62.6002C317.933 63.4002 317.5 63.8335 316.7 63.9002C315.966 63.8335 315.566 63.4335 315.5 62.7002C315.433 61.9669 315.833 61.5669 316.7 61.5002C317.9 61.4002 318 62.0002 318 62.7002M314.9 62.9002C314.833 63.5669 314.4 63.9669 313.6 64.1002C312.866 64.1002 312.466 63.7002 312.4 62.9002C312.3 61.7002 312.9 61.7002 313.6 61.7002C314.3 61.7002 314.9 62.2002 314.9 62.9002ZM320.6 59.4002C320.533 60.0669 320.2 60.4002 319.6 60.4002C319.453 60.4302 319.301 60.4268 319.156 60.3902C319.01 60.3536 318.875 60.2847 318.759 60.1887C318.644 60.0926 318.552 59.9719 318.49 59.8354C318.428 59.6989 318.397 59.5502 318.4 59.4002C318.466 58.7335 318.833 58.4002 319.5 58.4002C320.166 58.4002 320.5 58.7335 320.5 59.4002M320.5 54.7002C320.5 55.3002 320.166 55.6335 319.5 55.7002C319.235 55.7002 318.98 55.5948 318.793 55.4073C318.605 55.2198 318.5 54.9654 318.5 54.7002C318.5 54.0335 318.833 53.7002 319.5 53.7002C320.5 53.7002 320.5 54.1002 320.5 54.7002ZM320.5 57.2002C320.5 57.8669 320.166 58.2002 319.5 58.2002C318.5 58.2002 318.5 57.8002 318.5 57.2002C318.5 56.6002 318.833 56.2669 319.5 56.2002C320.5 56.1002 320.5 56.6002 320.5 57.2002ZM311.7 63.7002C311.7 64.4335 311.3 64.8335 310.5 64.9002C309.833 64.9002 309.433 64.5002 309.3 63.7002C309.3 63.0335 309.7 62.6669 310.5 62.6002C311.7 62.5002 311.7 63.1002 311.7 63.7002Z" fill="#F0DDCB"/>
<path d="M318 62.6002C317.933 63.4002 317.5 63.8335 316.7 63.9002C315.966 63.8335 315.566 63.4335 315.5 62.7002C315.433 61.9669 315.833 61.5669 316.7 61.5002C317.9 61.4002 318 62.0002 318 62.7002M320.6 59.4002C320.533 60.0669 320.2 60.4002 319.6 60.4002C319.453 60.4302 319.301 60.4268 319.156 60.3902C319.01 60.3536 318.875 60.2847 318.759 60.1887C318.644 60.0926 318.552 59.9719 318.49 59.8354C318.428 59.6989 318.397 59.5502 318.4 59.4002C318.466 58.7335 318.833 58.4002 319.5 58.4002C320.166 58.4002 320.5 58.7335 320.5 59.4002M326.4 62.6002C326.266 63.3335 325.866 63.7335 325.2 63.8002C324.4 63.7335 323.966 63.3669 323.9 62.7002C324.033 61.9669 324.433 61.5669 325.1 61.5002C325.833 61.5669 326.266 61.9335 326.4 62.6002ZM329.1 63.3002C329.1 63.9669 328.7 64.3669 327.9 64.5002C326.7 64.7002 326.6 63.9002 326.6 63.3002C326.666 62.5669 327.1 62.1669 327.9 62.1002C328.7 62.0335 329.1 62.4335 329.1 63.3002ZM323.6 62.6002C323.466 63.2669 323.066 63.6669 322.4 63.8002C321.666 63.6669 321.266 63.2669 321.2 62.6002C321.2 61.7335 321.566 61.3335 322.3 61.4002C323.033 61.4669 323.466 61.8669 323.6 62.6002ZM314.9 62.9002C314.833 63.5669 314.4 63.9669 313.6 64.1002C312.866 64.1002 312.466 63.7002 312.4 62.9002C312.3 61.7002 312.9 61.7002 313.6 61.7002C314.3 61.7002 314.9 62.2002 314.9 62.9002ZM320.5 54.7002C320.5 55.3002 320.166 55.6335 319.5 55.7002C319.235 55.7002 318.98 55.5948 318.793 55.4073C318.605 55.2198 318.5 54.9654 318.5 54.7002C318.5 54.0335 318.833 53.7002 319.5 53.7002C320.5 53.7002 320.5 54.1002 320.5 54.7002ZM320.5 57.2002C320.5 57.8669 320.166 58.2002 319.5 58.2002C318.5 58.2002 318.5 57.8002 318.5 57.2002C318.5 56.6002 318.833 56.2669 319.5 56.2002C320.5 56.1002 320.5 56.6002 320.5 57.2002ZM311.7 63.7002C311.7 64.4335 311.3 64.8335 310.5 64.9002C309.833 64.9002 309.433 64.5002 309.3 63.7002C309.3 63.0335 309.7 62.6669 310.5 62.6002C311.7 62.5002 311.7 63.1002 311.7 63.7002Z" stroke="#121116" stroke-width="0.6" stroke-linejoin="round"/>
<path d="M320.9 62.4001C320.834 63.1334 320.367 63.5334 319.5 63.6001C319.172 63.6011 318.856 63.4779 318.615 63.2553C318.373 63.0328 318.225 62.7273 318.2 62.4001C318.267 61.6001 318.7 61.1668 319.5 61.1001C320.3 61.1668 320.734 61.6001 320.8 62.4001" fill="#916C68"/>
<path d="M320.9 62.4001C320.834 63.1334 320.367 63.5334 319.5 63.6001C319.172 63.6011 318.856 63.4779 318.615 63.2553C318.373 63.0328 318.225 62.7273 318.2 62.4001C318.267 61.6001 318.7 61.1668 319.5 61.1001C320.3 61.1668 320.734 61.6001 320.8 62.4001" stroke="#4D3126" stroke-width="0.6" stroke-linejoin="round"/>
<path d="M322 45.4999C322 46.146 321.751 46.7672 321.303 47.2332C320.856 47.6993 320.245 47.9741 319.6 47.9999C319.271 47.9999 318.946 47.9352 318.643 47.8096C318.34 47.684 318.064 47.4998 317.832 47.2677C317.6 47.0355 317.416 46.7599 317.29 46.4566C317.164 46.1533 317.1 45.8282 317.1 45.4999C317.086 45.1633 317.141 44.8274 317.26 44.5125C317.38 44.1975 317.562 43.91 317.796 43.6671C318.029 43.4243 318.309 43.2311 318.619 43.0993C318.929 42.9675 319.263 42.8996 319.6 42.8999C320.263 42.8999 320.899 43.1633 321.367 43.6321C321.836 44.101 322.1 44.7369 322.1 45.3999" fill="#EEEEEE"/>
<path d="M322 45.4999C322 46.146 321.751 46.7672 321.303 47.2332C320.856 47.6993 320.245 47.9741 319.6 47.9999C319.271 47.9999 318.946 47.9352 318.643 47.8096C318.34 47.684 318.064 47.4998 317.832 47.2677C317.6 47.0355 317.416 46.7599 317.29 46.4566C317.164 46.1533 317.1 45.8282 317.1 45.4999C317.086 45.1633 317.141 44.8274 317.26 44.5125C317.38 44.1975 317.562 43.91 317.796 43.6671C318.029 43.4243 318.309 43.2311 318.619 43.0993C318.929 42.9675 319.263 42.8996 319.6 42.8999C320.263 42.8999 320.899 43.1633 321.367 43.6321C321.836 44.101 322.1 44.7369 322.1 45.3999" stroke="#1E1E1E" stroke-width="1.2" stroke-linejoin="round"/>
<path fill-rule="evenodd" clip-rule="evenodd" d="M318.399 46.8C318.399 46.8 320.399 46.8 320.599 45.8C320.799 45.1 320.499 44 320.499 44C320.499 44 321.499 45 321.199 45.9C320.933 46.5667 320.533 46.9667 319.999 47.1C319.727 47.165 319.443 47.1718 319.168 47.1202C318.892 47.0685 318.63 46.9594 318.399 46.8Z" fill="#A3AFB8"/>
<path fill-rule="evenodd" clip-rule="evenodd" d="M280 130.1C280 130.1 282.2 132.2 282.8 134.1C283.4 136 284.3 140.9 284.3 140.9C284.3 140.9 307.5 134.4 318.9 134.9C330.3 135.4 356.6 141.2 356.6 141.2L357.6 135.5C358.1 132.5 360.3 129.2 360.3 129.2C360.3 129.2 335.2 121.4 319.3 122.2C310.093 122.279 300.929 123.454 292 125.7L280 130.1Z" fill="#FFCC00" stroke="black" stroke-width="0.5"/>
<path fill-rule="evenodd" clip-rule="evenodd" d="M314.7 36H324.7C324.7 36 322.2 37.7 321.7 39.4C321.3 40.8 321.4 43.1 321.4 43.1C321.4 43.1 324.1 43.1 325.4 42.1L329.1 39.2V51.9C329.1 51.9 326.6 49.6 325.1 48.8C323.997 48.2123 322.82 47.7751 321.6 47.5C321.6 47.5 321.6 49.5 322.4 50.8C323.2 52.1 326.7 56.6 326.7 56.6L312.4 57.1C312.4 57.1 315.8 53.6 317.2 51C318.1 49.3 317.7 47.5 317.7 47.5C317.7 47.5 315.3 47.5 314.1 48.4C312.9 49.3 310.7 51.7 310.7 51.7V39.5C310.7 39.5 311.7 41.9 313.7 42.8C315.7 43.7 317.5 43.2 317.5 43.2C317.5 43.2 317.9 40.8 317.1 39.2C316.3 37.7 314.5 36 314.7 36.1V36Z" fill="#FFCC00" stroke="black" stroke-width="1.2"/>
<path fill-rule="evenodd" clip-rule="evenodd" d="M313.9 76.4998C313.9 76.4998 306.8 76.3998 300.7 72.7998C294.6 69.1998 288.4 65.3998 279.4 67.4998C277.6 67.9998 270.8 70.9998 267.8 80.6998C266.233 87.0138 267.089 93.6862 270.2 99.3998C271.834 102.035 273.708 104.512 275.8 106.8L279.5 104.3C279.5 104.3 270.2 96.2998 271.3 86.0998C272.3 75.7998 277.5 73.3998 277.5 73.3998C277.5 73.3998 283.9 68.3998 292.4 73.0998C300.286 77.3994 308.839 80.3405 317.7 81.7998C318.3 81.6998 313.7 76.3998 313.9 76.4998Z" fill="#FFCC00" stroke="#121116" stroke-width="1.2"/>
<path fill-rule="evenodd" clip-rule="evenodd" d="M274.5 115L270.7 107.6L282.1 103.2C282.1 103.2 279.3 106.8 278.7 109.4C277.9 112.6 278.2 115.3 278.2 115.3C278.2 115.3 279.2 114.5 280.5 112.4C281.5 110.9 283.1 105.1 283.1 105.1L288.2 121.4C288.2 121.4 285.6 118.8 283.7 118.5C281.7 118.1 279.1 118.8 279.1 118.8L276.1 119.8L274.5 115Z" fill="#FFCC00" stroke="black" stroke-width="1.2"/>
<path fill-rule="evenodd" clip-rule="evenodd" d="M326.7 76.2998C326.7 76.2998 333.8 76.2998 339.9 72.5998C346 68.9998 352.1 65.2998 361.2 67.3998C363 67.7998 369.8 70.7998 372.8 80.4998C374.338 86.8263 373.446 93.4993 370.3 99.1998L366.7 105.1L362.3 103.5C362.3 103.5 370.4 96.1998 369.3 85.8998C368.2 75.5998 363.1 73.1998 363.1 73.1998C363.1 73.1998 356.7 68.1998 348.2 72.9998C339.7 77.7998 331.4 79.7998 331.4 79.7998C331.4 79.7998 323.6 81.7998 322.9 81.5998C322.2 81.5998 326.9 76.1998 326.7 76.2998Z" fill="#FFCC00" stroke="#121116" stroke-width="1.2"/>
<path d="M323 69.3001H326V97.0001H323V69.3001ZM313 69.1001H316.5V96.8001H313V69.1001Z" fill="#FFCC00" stroke="#121116" stroke-width="1.2" stroke-linejoin="round"/>
<path d="M329.2 62.6998C329.2 67.6998 324.9 71.6998 319.5 71.6998C314.1 71.6998 309.8 67.6998 309.8 62.6998C309.8 57.6998 314.1 53.7998 319.4 53.7998C324.8 53.7998 329.2 57.7998 329.2 62.6998Z" fill="#FFCC00" stroke="#121116" stroke-width="1.2" stroke-linejoin="round"/>
<path fill-rule="evenodd" clip-rule="evenodd" d="M310.9 96.8001L327.6 96.6001C327.6 96.6001 325.6 97.8001 323.9 100.8C322.3 103.8 322.5 105.6 322.5 105.6C322.5 105.6 325 105.6 326.8 104.3C328.189 103.2 329.462 101.96 330.6 100.6V115.9C330.6 115.9 329.3 113.9 327.3 112.9C325.3 111.6 322.5 111.6 322.5 111.6H316.8C316.8 111.6 314.2 111.8 313.1 112.6C311.778 113.561 310.541 114.631 309.4 115.8L309.1 101.2C309.1 101.2 309.9 103.8 312.6 104.8C315.3 105.8 316.8 105.8 316.8 105.8C316.8 105.8 316.8 102.4 315.4 100.8C314.025 99.3324 312.518 97.9935 310.9 96.8001Z" fill="#FFCC00" stroke="black"/>
<path fill-rule="evenodd" clip-rule="evenodd" d="M320.2 108.8C320.2 108.8 322.6 114.5 325.5 117C327.1 118.5 332.1 119.6 334.3 119C339.3 117.7 342.9 113.7 342.9 113.7C342.9 113.7 342.7 118.1 345.9 120.6C348.9 122.933 351.633 123.7 354.1 122.9C356.8 122.2 364.1 116.7 364.1 116.7L365.7 118C365.7 118 361.4 122.2 357 124.3C354.7 125.5 347.7 124.8 345.5 123C343.2 121.2 341.9 116.9 341.9 116.9C341.9 116.9 340.5 119.7 337.5 120.7C334.5 121.7 330.5 121.7 326.6 120.5C324.1 119.7 320.7 116.2 320.1 115C319.5 113.9 319.7 113.2 319.7 113.2C319.7 113.2 317.7 118.6 313.9 120.1C310.2 121.419 306.182 121.559 302.4 120.5C298.8 119.5 298.5 117.4 298.5 117.4C298.5 117.4 298.3 123.1 290.5 124.7C282.5 126.3 276.3 120.6 276.3 120.6L277.4 118.9C277.4 118.9 281.8 123.9 288.6 123.5C295.4 123.1 297.6 114.3 297.6 114.3C297.6 114.3 300.6 118.8 308.6 118.9C316.6 119 318.8 108.6 318.8 108.6L320.2 108.8Z" fill="#F6CA1F" stroke="black" stroke-width="0.9"/>
<path fill-rule="evenodd" clip-rule="evenodd" d="M300.6 112.1C300.6 112.1 300.6 109.4 301.3 108.5C302.1 107.4 303.3 107.3 303.9 107.5C304.5 107.7 305.3 108.3 305.2 110.3C305.1 112.3 304.5 113.1 305.2 113.9C305.7 114.6 305.8 115.1 306.9 114.9C307.967 114.833 308.4 114.333 308.2 113.4C307.9 112 307.7 113.4 307.5 112.6C307.3 111.8 308.5 108 308.3 105.7C308.1 103.5 307.3 101.7 305.5 101.2C303.967 100.667 302.467 100.9 301 101.9C299.6 102.9 297.7 106.4 297.7 106.4V113.9L300.7 113.7V112.1H300.6Z" fill="#FFCC00" stroke="black" stroke-width="1.1"/>
<path fill-rule="evenodd" clip-rule="evenodd" d="M295 114.1C295 114.1 293.8 111.6 293 111.1C292.569 110.873 292.088 110.754 291.6 110.754C291.112 110.754 290.632 110.873 290.2 111.1C289.6 111.6 289.2 112.5 290.1 114.2C291 115.9 291.8 116.6 291.5 117.5C291.3 118.4 291.5 118.9 290.4 119.2C289.334 119.534 288.7 119.2 288.5 118.2C288.3 117.2 289.1 118.2 288.9 117.2C288.8 116.4 286.1 113.5 285.4 111.3C284.6 109.1 284.867 107.367 286.2 106.1C287.4 105.034 288.834 104.634 290.5 104.9C292.3 105.3 295.4 107.8 295.4 107.8L298.4 114.6L295.6 115.6L295 114.1Z" fill="#FFCC00" stroke="black" stroke-width="1.1"/>
<path fill-rule="evenodd" clip-rule="evenodd" d="M294.4 92.1001C294.4 92.1001 291.4 97.1001 292.1 100.9C292.8 104.7 296.7 112.9 296.7 112.9V113.9L298.9 113.7L298.4 112.6C298.4 112.6 299.4 102.8 298.8 99.7001C297.679 96.9821 296.199 94.4261 294.4 92.1001ZM299.1 114.8C299.1 114.8 300.6 116.5 302.3 117.4C304.3 118.3 305.1 118.4 305.8 117.7C306.4 117.3 306.2 115.5 305.5 115C304.8 114.5 304.1 114.8 304 115.3C303.867 116.033 303.533 116.167 303 115.7C302 115.3 300 114 300 114L299.1 114.8ZM296.8 115.2C296.8 115.2 296.2 117.4 295 118.9C293.6 120.5 292.9 120.9 292 120.6C291.3 120.5 290.7 118.8 291.1 118C291.5 117.3 292.3 117.2 292.6 117.6C293 118.267 293.367 118.267 293.7 117.6L295.7 114.9L296.8 115.2Z" fill="#FFCC00" stroke="black" stroke-width="1.1"/>
<path d="M302.4 113.4C302.6 114 300.6 114.9 298.1 115.3C295.6 115.7 293.5 115.6 293.3 114.9C293.3 114.3 295.2 113.4 297.7 112.9C300.2 112.4 302.3 112.7 302.4 113.4Z" fill="#FFCC00" stroke="black" stroke-width="1.1" stroke-linejoin="round"/>
<path fill-rule="evenodd" clip-rule="evenodd" d="M345.601 113.2C345.601 113.2 346.601 110.7 347.601 110.1C348.701 109.3 349.801 109.6 350.301 110.1C350.901 110.4 351.301 111.3 350.601 113.1C349.801 114.8 349.001 115.5 349.201 116.4C349.501 117.4 349.401 117.8 350.501 118C351.634 118.333 352.234 118 352.301 117C352.401 116 351.801 117 351.901 116C351.901 115.2 354.501 112.1 355.101 110C355.767 107.667 355.434 105.9 354.101 104.7C352.767 103.633 351.267 103.333 349.601 103.8C347.901 104.3 344.901 106.9 344.901 106.9L342.301 113.9L345.201 114.8L345.601 113.2Z" fill="#FFCC00" stroke="black" stroke-width="1.1"/>
<path fill-rule="evenodd" clip-rule="evenodd" d="M339.7 113.1C339.7 113.1 339.5 110.4 338.8 109.6C337.9 108.5 336.8 108.5 336.2 108.6C335.5 108.9 334.8 109.6 335 111.5C335.2 113.5 335.8 114.3 335.3 115.1C334.8 115.9 334.7 116.3 333.6 116.2C332.467 116.2 331.967 115.733 332.1 114.8C332.3 113.8 332.7 114.8 332.9 113.9C333 113.1 331.6 109.4 331.7 107.1C331.7 104.9 332.5 103.1 334.2 102.5C335.734 101.833 337.234 102 338.7 103C340.2 104 342.3 107.3 342.3 107.3L342.7 114.7H339.7V113.1Z" fill="#FFCC00" stroke="black" stroke-width="1.1"/>
<path fill-rule="evenodd" clip-rule="evenodd" d="M346.801 92.2998C346.801 92.2998 342.301 95.8998 341.601 99.6998C340.901 103.5 341.701 112.5 341.701 112.5L341.401 113.5L343.401 114.1V112.9C343.401 112.9 347.801 104.1 348.301 100.9C348.196 97.9781 347.691 95.0845 346.801 92.2998ZM343.301 115.2C343.301 115.2 344.101 117.3 345.401 118.7C346.901 120.3 347.601 120.6 348.501 120.3C349.201 120.1 349.601 118.3 349.201 117.7C348.801 117.1 348.001 117 347.701 117.4C347.301 118 346.934 118 346.601 117.4L344.401 114.8L343.301 115.2ZM341.001 114.7C341.001 114.7 339.701 116.6 338.001 117.5C336.101 118.6 335.301 118.7 334.501 118.1C333.901 117.8 334.001 116 334.601 115.4C335.401 115 335.934 115.066 336.201 115.6C336.401 116.266 336.734 116.4 337.201 116L340.001 114L341.001 114.7Z" fill="#FFCC00" stroke="black" stroke-width="1.1"/>
<path d="M346.901 115C346.801 115.7 344.601 115.8 342.101 115.3C339.601 114.8 337.701 113.9 337.801 113.3C337.901 112.7 340.101 112.5 342.601 113C345.101 113.5 347.001 114.4 346.901 115Z" fill="#FFCC00" stroke="black" stroke-width="1.1" stroke-linejoin="round"/>
<path fill-rule="evenodd" clip-rule="evenodd" d="M279 129.9C279 129.9 279.6 131.9 280.7 130.9C281.9 129.8 298 123.4 320.7 123.4C343.4 123.4 358.2 129.7 359.1 130.1C360 130.4 360.4 130.9 361.1 130.1C361.9 129.1 360.4 127.8 360.4 127.8C360.4 127.8 344.6 121.1 320 121.2C295.3 121.3 279.4 128.3 279.4 128.3C279.4 128.3 278.4 129.1 279.1 129.9H279Z" fill="#CCA715" stroke="black" stroke-width="0.5"/>
<path fill-rule="evenodd" clip-rule="evenodd" d="M307.9 139.3C307.9 139.3 308.6 137.3 309.9 136.9C310.9 136.6 312.4 137.6 312.4 137.6C312.4 137.6 310.5 137.4 309.9 137.8C309.4 138.1 309.2 139 309.2 139C309.2 139 309.6 138.2 311.1 138.3H312.7C312.7 138.3 310.2 138.6 309.7 139.3C309.2 140 312 140.3 312 140.3C312 140.3 307.5 140.3 307 140.1C306.5 139.9 306 138.9 305 139.1C304 139.5 303 140.4 303 140.4C303 140.4 304.1 138.4 304.8 138.4C305.5 138.4 306 138.4 306.6 138.7L307.9 139.3ZM291.1 142.9C291.1 142.9 291.4 140.9 292.6 140.2C293.6 139.7 295.3 140.4 295.3 140.4C295.3 140.4 293.3 140.6 292.8 141C292.3 141.4 292.4 142.4 292.4 142.4C292.4 142.4 292.7 141.6 294.1 141.4L295.7 141.1C295.7 141.1 293.3 141.8 292.9 142.6C292.4 143.4 295.4 143.2 295.4 143.2C295.4 143.2 291 144 290.4 143.9C289.7 143.7 289.2 142.9 288.3 143.4C287.4 143.9 286.5 144.9 286.5 144.9C286.5 144.9 287.3 142.8 288 142.6C288.7 142.4 289 142.4 289.8 142.6L291.1 142.9ZM322 138.6C322 138.6 322.8 136.6 324 136.3C325.2 136 326.7 137.1 326.7 137.1C326.7 137.1 324.7 136.8 324.1 137.1C323.6 137.4 323.4 138.3 323.4 138.3C323.4 138.3 323.8 137.6 325.3 137.8L326.9 137.9C326.9 137.9 324.4 137.9 323.8 138.7C323.2 139.3 326.1 139.8 326.1 139.8C326.1 139.8 321.6 139.6 321.1 139.3C320.6 139 320.1 138.1 319.1 138.3C318.1 138.5 317.1 139.3 317.1 139.3C317.1 139.3 318.3 137.5 319 137.5C319.7 137.5 320.1 137.5 320.8 137.9L322 138.6ZM336.1 140.2C336.1 140.2 337.1 138.3 338.5 138.2C339.5 138 340.9 139.2 340.9 139.2C340.9 139.2 339.1 138.8 338.4 139C337.7 139.2 337.5 140 337.5 140C337.5 140 338 139.4 339.5 139.7L341.1 140.1C341.1 140.1 338.6 139.9 337.9 140.5C337.2 141.1 340 141.9 340 141.9C340 141.9 335.6 141.1 335 140.8C334.6 140.4 334.3 139.4 333.3 139.5C332.3 139.6 331.1 140.3 331.1 140.3C331.1 140.3 332.6 138.7 333.3 138.8C333.967 138.8 334.533 138.967 335 139.3L336.1 140.2ZM350.1 142.7C350.1 142.7 351.1 141.3 352.2 141.2C353.1 141.2 354.1 142.3 354.1 142.3C354.1 142.3 352.6 141.8 352.1 141.9C351.6 142 351.3 142.7 351.3 142.7C351.3 142.7 351.8 142.2 352.9 142.6L354.2 143C354.2 143 352.2 142.6 351.6 143C351 143.4 353.2 144.4 353.2 144.4C353.2 144.4 349.7 143.4 349.2 143.1C348.9 142.8 348.8 142 348 142C347.1 142 346.1 142.5 346.1 142.5C346.1 142.5 347.4 141.2 348 141.4C348.467 141.4 348.9 141.567 349.3 141.9L350.1 142.7Z" fill="black"/>
<path d="M305 129.7C305.4 131.4 303.4 133.2 300.6 133.7C297.8 134.2 295.3 133.4 295 131.7C294.7 130 296.6 128.3 299.4 127.7C302.2 127.1 304.7 128 305 129.7Z" fill="#0F6545" stroke="black" stroke-width="0.7" stroke-linejoin="round"/>
<path d="M298.8 129.4C298.8 129.867 298.467 130.2 297.8 130.4C297.133 130.467 296.7 130.3 296.5 129.9C296.5 129.433 296.833 129.1 297.5 128.9C298.167 128.9 298.6 129.067 298.8 129.4Z" fill="#CECFC1"/>
<path d="M344.1 131.8C343.6 133.4 341.1 134 338.3 133.2C335.5 132.4 333.9 130.3 334.3 128.7C334.9 127.1 337.5 126.4 340.2 127.3C342.9 128.2 344.7 130.1 344.2 131.7L344.1 131.8Z" fill="#0F6545" stroke="black" stroke-width="0.7" stroke-linejoin="round"/>
<path d="M338.8 128.5C338.6 128.967 338.167 129.1 337.5 128.9C336.833 128.633 336.533 128.3 336.6 127.9C336.8 127.433 337.233 127.267 337.9 127.4C338.567 127.667 338.867 128 338.8 128.4V128.5Z" fill="#CECFC1"/>
<path d="M314.6 126H324.7V131H314.6V126Z" fill="#1F2D86" stroke="black" stroke-linejoin="round"/>
<path d="M318.9 127C318.9 127.333 318.567 127.5 317.9 127.5C316.9 127.5 316.9 127.3 316.9 127C316.967 126.733 317.3 126.6 317.9 126.6C318.7 126.6 319.034 126.733 318.9 127Z" fill="#707C8B"/>
<path fill-rule="evenodd" clip-rule="evenodd" d="M286 131L287.6 136L284.6 137.7C284.6 137.7 283.1 138.7 281.6 137.9C280.2 137.2 279.4 134.9 280.2 133.9C281.7 132.1 285.9 130.9 285.9 131H286Z" fill="#9F1209" stroke="black" stroke-width="0.5"/>
<path d="M283.4 134.6C283.333 135.467 282.833 135.967 281.9 136.1C280.5 136.3 280.5 135.4 280.5 134.6C280.567 133.667 281.033 133.167 281.9 133.1C283.2 133 283.4 133.7 283.4 134.6Z" fill="#8F322F"/>
<path d="M282 134L281.8 134.7H281.3L280.9 134.2L281.1 133.5L281.6 133.4C281.867 133.4 282 133.6 282 134Z" fill="#E2A494"/>
<path fill-rule="evenodd" clip-rule="evenodd" d="M353.9 131.7L352.2 136.1L356.2 138.1C356.2 138.1 357.9 138.9 359 138C360.1 137.1 360.2 135.2 359.4 134.3C358.6 133.4 353.8 131.7 353.9 131.7Z" fill="#9F1209" stroke="black" stroke-width="0.5"/>
<path d="M358.6 135.2C358.533 135.867 358.1 136.2 357.3 136.2C356.1 136.2 356.1 135.8 356.1 135.2C356.1 134.6 356.7 134.2 357.3 134.2C358.1 134.267 358.533 134.6 358.6 135.2Z" fill="#AA675D"/>
<path d="M357.4 135C357.4 135.333 357.3 135.567 357.1 135.7H356.5L356.2 135.1C356.2 134.767 356.3 134.567 356.5 134.5H357.1C357.3 134.5 357.4 134.7 357.4 135.1V135Z" fill="#E2A494"/>
<path d="M328.6 126.4C328.546 126.58 328.442 126.741 328.301 126.865C328.159 126.989 327.986 127.071 327.8 127.1C327.633 127.054 327.48 126.966 327.358 126.843C327.235 126.72 327.146 126.568 327.1 126.4C327.146 126.233 327.235 126.08 327.358 125.958C327.48 125.835 327.633 125.746 327.8 125.7C328.267 125.7 328.534 125.934 328.6 126.4ZM332.9 126.6C332.854 126.768 332.766 126.92 332.643 127.043C332.52 127.166 332.368 127.254 332.2 127.3C332.015 127.271 331.841 127.189 331.7 127.065C331.558 126.941 331.454 126.78 331.4 126.6C331.469 126.439 331.579 126.298 331.72 126.193C331.86 126.088 332.026 126.021 332.2 126C332.6 126 332.834 126.2 332.9 126.6ZM330.7 128.3C330.7 128.834 330.367 129.134 329.7 129.2C328.7 129.3 328.9 128.8 328.9 128.3C328.9 127.8 329.3 127.4 329.8 127.4C330.3 127.4 330.7 127.8 330.7 128.4V128.3ZM332.7 131.1C332.664 131.256 332.59 131.402 332.486 131.523C332.381 131.645 332.249 131.74 332.1 131.8C331.915 131.771 331.741 131.689 331.6 131.565C331.458 131.441 331.354 131.28 331.3 131.1C331.346 130.933 331.435 130.78 331.558 130.658C331.68 130.535 331.833 130.446 332 130.4C332.534 130.4 332.8 130.634 332.8 131.1H332.7ZM328.6 130.6C328.554 130.768 328.466 130.92 328.343 131.043C328.22 131.166 328.068 131.254 327.9 131.3C327.733 131.254 327.58 131.166 327.458 131.043C327.335 130.92 327.246 130.768 327.2 130.6C327.246 130.433 327.335 130.28 327.458 130.158C327.58 130.035 327.733 129.946 327.9 129.9C328.3 129.9 328.534 130.134 328.6 130.6ZM307.7 127.1C307.689 127.264 307.638 127.423 307.551 127.563C307.463 127.702 307.343 127.818 307.2 127.9C307.019 127.906 306.839 127.863 306.681 127.775C306.522 127.687 306.391 127.557 306.3 127.4C306.321 127.226 306.388 127.06 306.493 126.92C306.598 126.779 306.739 126.669 306.9 126.6C307.064 126.611 307.223 126.663 307.363 126.75C307.502 126.837 307.618 126.957 307.7 127.1ZM312 126.4C311.979 126.574 311.913 126.74 311.807 126.881C311.702 127.021 311.562 127.131 311.4 127.2C311.236 127.189 311.077 127.138 310.938 127.05C310.798 126.963 310.682 126.843 310.6 126.7C310.611 126.536 310.663 126.377 310.75 126.238C310.837 126.098 310.958 125.982 311.1 125.9C311.282 125.894 311.461 125.937 311.62 126.025C311.778 126.114 311.91 126.243 312 126.4ZM310.2 128.5C310.2 129.1 310 129.434 309.6 129.5C309.376 129.54 309.145 129.503 308.945 129.394C308.745 129.285 308.588 129.111 308.5 128.9C308.4 128.5 308.7 127.9 309.2 127.9C309.409 127.883 309.617 127.932 309.797 128.039C309.976 128.147 310.117 128.308 310.2 128.5ZM312.9 130.8C312.889 130.964 312.838 131.123 312.751 131.263C312.663 131.402 312.543 131.518 312.4 131.6C312.219 131.606 312.04 131.563 311.881 131.475C311.722 131.387 311.591 131.257 311.5 131.1C311.511 130.936 311.563 130.777 311.65 130.638C311.737 130.498 311.858 130.382 312 130.3C312.182 130.294 312.361 130.337 312.52 130.425C312.678 130.514 312.81 130.643 312.9 130.8ZM308.7 131.2C308.689 131.364 308.638 131.523 308.551 131.663C308.463 131.802 308.343 131.918 308.2 132C308.019 132.006 307.839 131.963 307.681 131.875C307.522 131.787 307.391 131.657 307.3 131.5C307.321 131.326 307.388 131.16 307.493 131.02C307.598 130.879 307.739 130.769 307.9 130.7C308.064 130.711 308.223 130.763 308.363 130.85C308.502 130.937 308.618 131.057 308.7 131.2ZM289.5 131C289.536 131.188 289.517 131.381 289.446 131.559C289.376 131.736 289.255 131.889 289.1 132C288.928 132.017 288.755 131.989 288.598 131.919C288.44 131.849 288.303 131.739 288.2 131.6C288.165 131.413 288.183 131.219 288.254 131.042C288.325 130.865 288.445 130.711 288.6 130.6C288.788 130.565 288.982 130.583 289.159 130.654C289.336 130.725 289.489 130.845 289.6 131H289.5ZM293.6 129.7C293.636 129.888 293.617 130.081 293.546 130.259C293.476 130.436 293.355 130.589 293.2 130.7C293.019 130.706 292.839 130.663 292.681 130.575C292.522 130.487 292.391 130.357 292.3 130.2C292.284 130.028 292.312 129.855 292.382 129.698C292.452 129.54 292.562 129.403 292.7 129.3C292.888 129.265 293.082 129.283 293.259 129.354C293.436 129.425 293.589 129.545 293.7 129.7H293.6ZM292.2 132.1C292.226 132.298 292.192 132.498 292.103 132.677C292.014 132.855 291.874 133.002 291.7 133.1C291.498 133.158 291.283 133.15 291.086 133.078C290.888 133.006 290.718 132.874 290.6 132.7C290.552 132.487 290.575 132.265 290.665 132.066C290.756 131.868 290.908 131.704 291.1 131.6C291.313 131.552 291.536 131.575 291.734 131.665C291.933 131.756 292.097 131.908 292.2 132.1ZM295.2 133.9C295.236 134.088 295.217 134.281 295.146 134.459C295.075 134.636 294.955 134.789 294.8 134.9C294.4 134.9 294.067 134.734 293.8 134.4C293.4 133.9 293.9 133.7 294.3 133.5C294.472 133.484 294.645 133.512 294.803 133.582C294.961 133.652 295.098 133.762 295.2 133.9ZM291.1 134.9C291.136 135.088 291.117 135.281 291.046 135.459C290.976 135.636 290.855 135.789 290.7 135.9C290.513 135.936 290.319 135.917 290.142 135.846C289.965 135.775 289.811 135.655 289.7 135.5C289.652 135.403 289.627 135.296 289.627 135.188C289.627 135.079 289.653 134.973 289.701 134.876C289.749 134.779 289.82 134.694 289.906 134.629C289.993 134.564 290.094 134.52 290.2 134.5C290.388 134.464 290.582 134.483 290.759 134.554C290.936 134.625 291.089 134.745 291.2 134.9H291.1ZM347.3 129.1C347.167 129.5 346.834 129.667 346.3 129.6C346.127 129.502 345.987 129.355 345.897 129.177C345.808 128.998 345.775 128.798 345.8 128.6C345.867 128.267 346.2 128.134 346.8 128.2C347.2 128.334 347.367 128.634 347.3 129.1ZM351.7 130.4C351.634 130.867 351.334 131.067 350.8 131C350.608 130.917 350.447 130.776 350.339 130.597C350.232 130.417 350.183 130.209 350.2 130C350.334 129.6 350.667 129.434 351.2 129.5C351.6 129.634 351.767 129.967 351.7 130.5V130.4ZM349 131.6C348.931 131.829 348.782 132.026 348.58 132.154C348.378 132.283 348.137 132.334 347.9 132.3C347.653 132.252 347.433 132.111 347.284 131.907C347.136 131.703 347.07 131.451 347.1 131.2C347.171 130.951 347.335 130.738 347.559 130.608C347.783 130.477 348.049 130.439 348.3 130.5C348.834 130.7 349.067 131.067 349 131.6ZM350.5 135.1C350.367 135.5 350.034 135.667 349.5 135.6C349.343 135.51 349.214 135.378 349.126 135.219C349.037 135.061 348.994 134.881 349 134.7C349.067 134.3 349.367 134.134 349.9 134.2C350.367 134.334 350.567 134.667 350.5 135.2V135.1ZM346.2 133.5C346.067 133.9 345.767 134.067 345.3 134C345.143 133.91 345.014 133.778 344.926 133.619C344.837 133.461 344.794 133.281 344.8 133.1C344.934 132.7 345.234 132.534 345.7 132.6C346.1 132.734 346.267 133.034 346.2 133.5Z" fill="#F5D8BC"/>
<path d="M356 88.9998C356 88.9998 354 90.8998 351.5 90.8998C349.825 90.9343 348.192 90.3666 346.9 89.2998C346.1 88.7998 347.1 87.2998 347.1 87.2998" stroke="black" stroke-width="1.2"/>
<path d="M312.9 92.7999C312.9 92.7999 309.2 92.0998 307.6 91.5998C306 91.0998 306.5 90.0998 304.6 90.1998C302.9 90.2998 301.1 91.5999 301.5 93.3999C301.9 95.1999 303.2 95.3998 304.5 95.0998C305.7 94.6998 305.3 92.4998 303.7 92.6998C302 92.6998 303.4 94.1998 303.4 94.1998" stroke="black" stroke-width="1.1"/>
<path d="M287.3 89.9999C287.3 89.9999 288.3 91.4999 291 91.1999C293.7 90.9999 294.7 89.5999 294.8 88.8999C295 88.2999 294.8 87.0999 294.3 86.5999C293.8 86.0999 292 85.8999 292 85.8999" stroke="black"/>
<path d="M339.2 270.4C341.7 267.9 345.7 265.2 347.9 259.4C349.9 253.8 350.9 243.7 352.9 238.6C355.4 229.8 360.4 221.2 354.4 221.8C348.7 222.4 346.9 227.8 344.8 231.8C343.8 233.3 341.5 236.5 341.1 238.3C341 235.3 339.4 226.4 339.1 217.5C338.8 209.1 339.1 200.5 338.8 197.2C338.6 192.9 338.6 188.9 337.6 185.8C337.1 184.3 335 182.8 333.8 182.9C331.6 182.9 330.2 184.9 329.8 186.8L329.6 189.6C329.4 192 329.6 195.1 329.4 197.9C329.3 200.9 329.6 204.1 329.4 206.9C329.2 212.3 328.8 217.4 328.6 218.4C328.6 216.4 327.6 206.7 327.3 197.5L327.1 187.5C327.1 184.9 327.1 182.1 326.9 180.1C326.5 176.767 325.166 175.1 322.9 175.1C321.1 175.1 318.7 176.4 317.9 180.1C317.633 182.233 317.533 184.7 317.6 187.5L317.8 195.5C317.6 206 317.4 217 317 220.3C317 219.3 315.9 213.8 315.6 206.4L315.2 196.8L314.9 187.2C314.9 185.6 314.2 181 311.2 181.2C309.5 181 307.8 182.2 307.2 186.5C306.8 189 306.8 193.1 306.7 196.4C306.6 202.4 306.3 207.8 306.7 213.3L306.8 221C306.8 221.4 305.9 218.1 305.5 213.6L304.7 205C304.7 202.7 304.6 199.3 304.4 196.5C304.2 194.4 304.3 192 301.9 192.2C299.5 192.3 298.1 193.2 297.6 197.2C297.2 199.9 297.2 205.7 297.1 207.7C297.3 213 295.9 225.4 295.3 228.9C295.1 231.4 294.1 234.6 293.7 238.1C293.014 244.978 293.351 251.92 294.7 258.7C296.7 265.7 301.7 268.9 301.5 273.7C301.3 278.5 301.5 287 301.5 290.7C301.5 294.5 304.8 294.7 311.5 293.3C322.7 290.9 328.8 295.7 337.9 292.1C336.8 281.7 339 275.4 338.9 271.6L339.2 270.4ZM332.7 245.7C335 239.3 337.9 236.8 340.7 235.5L332.7 245.7Z" fill="#CC0000"/>
<path d="M332.7 245.7C335 239.3 337.9 236.8 340.7 235.5M339.2 270.4C341.7 267.9 345.7 265.2 347.9 259.4C349.9 253.8 350.9 243.7 352.9 238.6C355.4 229.8 360.4 221.2 354.4 221.8C348.7 222.4 346.9 227.8 344.8 231.8C343.8 233.3 341.5 236.5 341.1 238.3C341 235.3 339.4 226.4 339.1 217.5C338.8 209.1 339.1 200.5 338.8 197.2C338.6 192.9 338.6 188.9 337.6 185.8C337.1 184.3 335 182.8 333.8 182.9C331.6 182.9 330.2 184.9 329.8 186.8L329.6 189.6C329.4 192 329.6 195.1 329.4 197.9C329.3 200.9 329.6 204.1 329.4 206.9C329.2 212.3 328.8 217.4 328.6 218.4C328.6 216.4 327.6 206.7 327.3 197.5L327.1 187.5C327.1 184.9 327.1 182.1 326.9 180.1C326.5 176.767 325.166 175.1 322.9 175.1C321.1 175.1 318.7 176.4 317.9 180.1C317.633 182.233 317.533 184.7 317.6 187.5L317.8 195.5C317.6 206 317.4 217 317 220.3C317 219.3 315.9 213.8 315.6 206.4L315.2 196.8L314.9 187.2C314.9 185.6 314.2 181 311.2 181.2C309.5 181 307.8 182.2 307.2 186.5C306.8 189 306.8 193.1 306.7 196.4C306.6 202.4 306.3 207.8 306.7 213.3L306.8 221C306.8 221.4 305.9 218.1 305.5 213.6L304.7 205C304.7 202.7 304.6 199.3 304.4 196.5C304.2 194.4 304.3 192 301.9 192.2C299.5 192.3 298.1 193.2 297.6 197.2C297.2 199.9 297.2 205.7 297.1 207.7C297.3 213 295.9 225.4 295.3 228.9C295.1 231.4 294.1 234.6 293.7 238.1C293.014 244.978 293.351 251.92 294.7 258.7C296.7 265.7 301.7 268.9 301.5 273.7C301.3 278.5 301.5 287 301.5 290.7C301.5 294.5 304.8 294.7 311.5 293.3C322.7 290.9 328.8 295.7 337.9 292.1C336.8 281.7 339 275.4 338.9 271.6L339.2 270.4Z" stroke="#161111" stroke-width="1.6"/>
<path d="M307.4 239.2C310.866 237.867 314.4 236.667 318 235.6C322.3 234.4 326.5 232.6 331 232C333 231.4 335.133 231.067 337.4 231M301.3 273C301.7 272.7 302.3 273.2 302.7 273.3C303.366 273.567 304.033 273.667 304.7 273.6H308.7C310.366 273.667 311.8 273.333 313 272.6M323 273.2L324.6 274.1C325.4 274.4 326.4 274.5 331.9 274.1C335.4 274.3 338.4 271.3 339.3 270.5" stroke="#161111" stroke-width="1.6"/>
</g>
<defs>
<clipPath id="clip0_3921_3078">
<rect width="640" height="480" fill="white"/>
</clipPath>
</defs>
</svg>
