<svg width="640" height="480" viewBox="0 0 640 480" fill="none" xmlns="http://www.w3.org/2000/svg">
<g clip-path="url(#clip0_3921_3197)">
<path d="M0 240H640V480H0V240Z" fill="#00AB39"/>
<path d="M0 0H640V240H0V0Z" fill="white"/>
<path d="M418.901 70.7998C379.292 92.1176 341.849 117.236 307.101 145.8C290.101 160.7 294.901 172.5 294.201 185.8C294.801 194.8 292.301 203.2 286.801 208.2L249.001 215.8L245.401 205.4C246.501 200 250.901 197.4 260.301 200.7C261.001 193.9 255.401 191.1 249.001 188.7C246.701 186.9 244.001 185.7 244.301 179.7C243.301 166.2 264.901 180.7 265.101 180.7C265.301 180.7 264.301 167 254.401 164.3C249.001 162.4 246.701 156.7 248.801 152.5C253.101 143.8 261.301 153.1 267.501 153.5C267.301 147.8 265.701 143.8 260.801 139.3C258.201 137.6 251.801 136.4 251.601 133.7C251.501 130.1 257.601 128.5 266.101 129.5C264.301 124.4 258.601 121.1 250.801 118.7L246.201 110.6C244.001 106.6 243.001 106.4 248.101 98.7998C252.601 95.7998 258.701 91.5998 263.301 88.6998L258.301 88.0998C258.901 82.5998 259.001 80.6998 260.301 71.5998C255.301 78.2998 249.301 77.0998 243.701 79.7998C243.701 79.7998 228.101 82.5998 223.001 89.2998L183.601 87.2998C175.201 88.3998 168.101 90.7998 166.701 98.8998C147.601 100.9 127.601 99.1998 113.001 117.4C123.001 117 131.601 114.6 142.801 116C142.801 116 152.301 116.2 154.201 126.3C154.401 126.7 157.501 126.7 157.501 126.7L161.101 129.5L162.501 125.7L165.701 127.9L166.701 123.7L169.901 125.9L170.101 120.9L174.301 123.9V117.2C174.301 117.2 189.901 117.2 194.701 127.2C194.901 127.3 151.001 135.2 108.601 131.5L120.801 125.5C105.401 122.3 90.8008 119.5 77.2008 108.8C82.3008 128.2 108.901 150.9 114.401 150.8L109.201 141.4L155.201 143.4C156.901 148.5 156.201 154.2 160.201 158.7C160.201 158.7 157.701 167.1 163.401 170.5C163.601 170.9 170.101 153.5 170.101 153.5C170.101 153.5 172.101 158.2 174.101 161.3C177.101 146.3 193.501 143.8 193.501 143.8L196.901 151.8C191.801 152.6 185.401 163 188.901 168.8C185.401 168.8 179.301 178.9 181.201 184.4C178.301 187.3 171.201 191.1 172.901 203.2C167.301 204.4 163.901 214.7 165.701 225.7C156.901 233.8 159.101 248.7 166.901 254.8C163.701 257.8 161.701 259.9 161.701 263.5C158.601 262.4 155.701 263.3 154.401 265.3C150.601 261.4 145.201 258.1 141.401 261.7C140.401 257.1 134.401 252.1 127.901 252.7C128.231 249.81 127.5 246.899 125.845 244.508C124.189 242.117 121.722 240.408 118.901 239.7C118.901 239.7 117.401 217.1 110.601 209.7C109.901 205.7 111.001 202.9 116.601 199.5C122.301 196.5 123.501 194.2 123.001 185.6C125.301 179.9 127.001 174.1 120.001 170.2C120.201 177 118.201 180.2 115.401 183.2C112.101 182.8 111.001 186.6 108.801 188.2C105.701 184.1 115.301 177.6 108.201 168.3C107.801 167.9 103.201 156.3 91.9008 156.5C97.2008 159.6 99.5008 164.9 99.5008 170.4C95.3051 179.61 94.664 190.046 97.7008 199.7C93.0008 192.7 90.3008 179.3 86.4008 177C83.0008 176.3 81.4008 168.3 68.1008 170.6C73.8008 172.1 75.7008 176.5 77.1008 180.4C73.7008 182.2 75.4008 187 78.0008 190.3C77.5008 198 82.1008 202.5 89.0008 205.3L85.6008 237C82.9008 236.7 78.6008 247.4 77.0008 247.7C74.3008 249.4 69.6008 253.9 75.0008 255.2C73.4008 260.9 71.9008 264.4 63.3008 265.6C63.3008 265.6 72.3008 271 79.9008 261.8C87.9008 261.6 85.3008 252 89.2008 247.8C89.2008 247.5 91.5008 246.1 94.7008 237.6C96.1008 245.2 103.901 268.4 121.401 279.9C136.701 296.3 149.401 311.8 149.201 333.6C155.076 327.139 159.297 319.35 161.501 310.9C171.478 307.907 181.903 306.688 192.301 307.3C190.501 311.2 188.401 314.9 191.001 317.3C183.601 319.9 182.001 325.3 185.001 330.6C177.201 335.9 176.701 339.3 176.601 348.1C162.101 366.6 153.201 366 138.901 361.1C134.301 358.4 126.901 354.5 123.601 356.6C117.501 352.4 108.601 351.8 107.101 361.2C111.801 357.3 114.501 358.1 118.201 361.8C117.501 363.7 116.901 365.5 119.601 366.6L116.001 370.6C109.401 369.6 100.401 369.6 98.1008 379.3C101.501 376.4 109.101 375.8 115.101 378.5L118.601 379.7L119.001 384.3C119.001 384.3 110.001 382.9 107.601 397.6C116.001 388.6 122.001 390.9 122.001 390.9C125.301 395.7 137.301 395 146.001 387.1C158.101 380.3 161.701 390.1 169.501 383.7C176.001 378.9 183.701 382.1 189.001 387.7C195.101 390 201.501 391.9 206.501 387.7C206.501 387.7 212.701 383.8 218.801 390.1C218.801 383.1 213.801 379.2 207.001 379.1L205.001 377.1C198.501 375.7 191.301 376.3 185.601 373.1C187.811 363.004 192.679 353.683 199.701 346.1C209.001 336.1 215.901 331.5 227.701 316.2C227.201 324.9 233.801 334.5 237.301 343.2C237.301 343.2 244.301 332.1 245.301 322.9C245.601 322.9 254.201 318.5 257.801 314.6C265.601 319.5 278.201 310.8 286.401 303.6C291.401 305.6 295.301 305.4 301.101 303.6C296.401 313.2 303.801 322.1 315.601 325.8C316.601 334.2 325.201 336 338.101 336C338.701 341 346.401 341.7 346.401 341.7C341.401 343.9 339.001 346.2 339.101 351.3C334.101 351.3 330.401 352.6 329.101 358.3C322.201 358.5 315.201 359 309.301 362.3C303.001 361.4 295.301 358.8 290.401 353.7C287.901 351.6 287.201 348.5 282.801 347.3C280.001 344 276.601 344.7 275.501 347.9C272.601 345.6 261.701 344.6 259.801 354.9C265.001 351.2 269.501 349.8 272.801 354.4C271.001 357.5 277.001 359.4 282.201 360.6C285.901 360.8 292.401 364.2 294.401 369.8C291.596 370.612 288.648 370.8 285.763 370.351C282.878 369.901 280.126 368.826 277.701 367.2C275.902 365.7 273.67 364.813 271.332 364.669C268.994 364.525 266.67 365.131 264.701 366.4C260.301 363.6 250.001 368.9 249.601 377.3C253.901 373.3 257.901 371.3 261.901 373.9C259.901 374.3 260.601 374.5 260.901 375.7L270.901 381.5C265.901 382.8 261.301 384.8 263.501 394C263.501 394 267.501 386 276.501 389C276.701 388.7 277.801 391.8 280.401 389.7C284.301 385.3 293.201 383.3 301.101 382.5C307.401 381.8 313.701 379.9 319.101 383.5C324.101 381 329.501 379.3 335.101 383.3C341.701 385.3 346.501 393.1 354.801 389.6C359.001 386.6 364.101 386.6 369.301 392.4C369.301 385 363.801 382.5 356.001 380.9L350.601 377.7C345.601 376.9 340.601 377.8 335.501 375.4C347.464 372.548 358.734 367.326 368.645 360.044C378.556 352.761 386.905 343.565 393.201 333L405.701 337.4C408.701 337.6 408.901 338.6 415.001 340.4C415.201 331.5 411.301 322.3 395.201 321.4L374.201 313.4C369.601 308.6 367.601 298.5 373.301 292.6C378.901 287.6 379.901 288.2 383.601 282.1C388.101 281.7 392.301 286.3 396.401 286.3C398.401 292.2 409.801 297.3 417.001 295.6C421.501 299.6 430.001 301.8 439.501 298.6C442.193 301.151 445.607 302.808 449.276 303.345C452.945 303.882 456.691 303.272 460.001 301.6C462.201 303.8 466.801 305.6 472.001 304.4C472.501 304.4 474.801 310.2 480.501 312.3C478.001 314.7 479.501 325.3 482.201 329.2C480.267 333.157 479.944 337.71 481.301 341.9C475.501 345.6 474.301 348.4 476.901 354.7C469.301 367 460.201 368.4 451.601 364.7L442.301 358.7L432.501 349.1C430.801 347.5 427.301 347.1 426.601 350.5C426.601 350.5 414.001 347.7 412.901 358.4C418.201 353.3 425.601 357.8 425.601 358C425.601 358.2 423.801 359.4 425.201 361.4C425.501 361.1 434.501 364.7 442.401 368.1C446.701 369.8 447.701 370.3 449.601 371.3L442.401 368.1C438.93 366.504 435.208 365.522 431.401 365.2C427.001 364.8 422.201 364.2 420.001 367.6C415.201 369.6 407.601 371.3 408.001 380.3C411.201 374.9 415.701 375.2 421.401 375.7L421.001 376.9C427.201 379.7 426.001 376.1 431.801 375.6C437.009 375.521 442.189 376.367 447.101 378.1C442.601 379.4 436.401 378.8 433.501 382.1C432.901 383.1 431.001 382.7 431.901 385.3C431.901 385.3 422.901 385.1 420.601 397.3C429.601 391.6 436.501 391.8 436.601 391.8L439.501 392.4L450.501 385.1C450.801 385.1 461.101 380.5 465.801 385.7C470.001 387.7 474.401 387.9 478.801 385.3C487.201 381.6 495.101 381.3 502.801 386.5L509.901 390.7L512.901 388.7C512.901 388.7 520.901 386.5 526.701 393.6C524.301 381.3 515.501 380.9 515.501 380.9L513.501 379.1L501.101 374.2C499.201 369.7 494.701 366.2 499.201 360.8C503.901 337.7 509.401 320.4 500.401 297C508.801 300.6 515.101 311.8 525.601 307.9C525.601 298.5 491.001 280.6 464.601 266.3C508.001 264 560.001 232.1 540.001 191.5L549.401 162.1C553.901 171.1 562.901 177.9 571.001 180.8C564.301 168.1 560.501 129.2 564.301 102.4C546.611 123.636 527.536 143.68 507.201 162.4C517.201 164.8 526.101 163.1 535.801 161.9L527.601 178.9C501.001 163.2 469.801 174.9 469.601 195.7C470.501 219.9 500.401 223.4 517.701 214.9C514.301 237 463.501 228.9 463.501 228.9C445.501 222.7 428.401 223.7 409.501 223.9C413.401 211.8 435.201 201 451.901 205.8C428.601 179.6 455.201 147.1 487.301 137.2C452.301 125.6 482.401 98.8998 508.601 79.7998C508.601 79.7998 433.301 111.5 426.401 111.4C405.001 109.8 410.801 84.3998 419.001 70.7998H418.901ZM182.501 101.2C184.367 101.2 186.201 101.4 188.001 101.8C191.401 102.7 195.501 103.1 195.501 104.2C193.901 106.8 190.001 109.9 186.201 109.8C182.401 109.7 180.201 107.3 179.001 101.6C179.534 101.333 180.701 101.2 182.501 101.2ZM499.501 190.6C504.501 190.6 510.401 192.6 516.101 198.8C513.401 206.8 489.301 210.8 487.701 199C487.201 195.4 492.301 190.7 499.501 190.6Z" fill="#D21034"/>
<path d="M442.401 368.1C434.501 364.7 425.501 361.1 425.201 361.4C423.801 359.4 425.601 358.2 425.601 358C425.601 357.8 418.201 353.3 412.901 358.4C414.001 347.7 426.601 350.5 426.601 350.5C427.301 347.1 430.801 347.5 432.501 349.1L442.301 358.7L451.601 364.7C460.201 368.4 469.301 367 476.901 354.7C474.301 348.4 475.501 345.6 481.301 341.9C479.944 337.71 480.267 333.157 482.201 329.2C479.501 325.3 478.001 314.7 480.501 312.3C474.801 310.2 472.501 304.4 472.001 304.4C466.801 305.6 462.201 303.8 460.001 301.6C456.691 303.272 452.945 303.882 449.276 303.345C445.607 302.808 442.193 301.151 439.501 298.6C430.001 301.8 421.501 299.6 417.001 295.6C409.801 297.3 398.401 292.2 396.401 286.3C392.301 286.3 388.101 281.7 383.601 282.1C379.901 288.2 378.901 287.6 373.301 292.6C367.601 298.5 369.601 308.6 374.201 313.4L395.201 321.4C411.301 322.3 415.201 331.5 415.001 340.4C408.901 338.6 408.701 337.6 405.701 337.4L393.201 333C386.905 343.565 378.556 352.761 368.645 360.044C358.734 367.326 347.464 372.548 335.501 375.4C340.601 377.8 345.601 376.9 350.601 377.7L356.001 380.9C363.801 382.5 369.301 385 369.301 392.4C364.101 386.6 359.001 386.6 354.801 389.6C346.501 393.1 341.701 385.3 335.101 383.3C329.501 379.3 324.101 381 319.101 383.5C313.701 379.9 307.401 381.8 301.101 382.5C293.201 383.3 284.301 385.3 280.401 389.7C277.801 391.8 276.701 388.7 276.501 389C267.501 386 263.501 394 263.501 394C261.301 384.8 265.901 382.8 270.901 381.5L260.901 375.7C260.601 374.5 259.901 374.3 261.901 373.9C257.901 371.3 253.901 373.3 249.601 377.3C250.001 368.9 260.301 363.6 264.701 366.4C266.67 365.131 268.994 364.525 271.332 364.669C273.67 364.813 275.902 365.7 277.701 367.2C280.126 368.826 282.878 369.901 285.763 370.351C288.648 370.8 291.596 370.612 294.401 369.8C292.401 364.2 285.901 360.8 282.201 360.6C277.001 359.4 271.001 357.5 272.801 354.4C269.501 349.8 265.001 351.2 259.801 354.9C261.701 344.6 272.601 345.6 275.501 347.9C276.601 344.7 280.001 344 282.801 347.3C287.201 348.5 287.901 351.6 290.401 353.7C295.301 358.8 303.001 361.4 309.301 362.3C315.201 359 322.201 358.5 329.101 358.3C330.401 352.6 334.101 351.3 339.101 351.3C339.001 346.2 341.401 343.9 346.401 341.7C346.401 341.7 338.701 341 338.101 336C325.201 336 316.601 334.2 315.601 325.8C303.801 322.1 296.401 313.2 301.101 303.6C295.301 305.4 291.401 305.6 286.401 303.6C278.201 310.8 265.601 319.5 257.801 314.6C254.201 318.5 245.601 322.9 245.301 322.9C244.301 332.1 237.301 343.2 237.301 343.2C233.801 334.5 227.201 324.9 227.701 316.2C215.901 331.5 209.001 336.1 199.701 346.1C192.679 353.683 187.811 363.004 185.601 373.1C191.301 376.3 198.501 375.7 205.001 377.1L207.001 379.1C213.801 379.2 218.801 383.1 218.801 390.1C212.701 383.8 206.501 387.7 206.501 387.7C201.501 391.9 195.101 390 189.001 387.7C183.701 382.1 176.001 378.9 169.501 383.7C161.701 390.1 158.101 380.3 146.001 387.1C137.301 395 125.301 395.7 122.001 390.9C122.001 390.9 116.001 388.6 107.601 397.6C110.001 382.9 119.001 384.3 119.001 384.3L118.601 379.7L115.101 378.5C109.101 375.8 101.501 376.4 98.1008 379.3C100.401 369.6 109.401 369.6 116.001 370.6L119.601 366.6C116.901 365.5 117.501 363.7 118.201 361.8C114.501 358.1 111.801 357.3 107.101 361.2C108.601 351.8 117.501 352.4 123.601 356.6C126.901 354.5 134.301 358.4 138.901 361.1C153.201 366 162.101 366.6 176.601 348.1C176.701 339.3 177.201 335.9 185.001 330.6C182.001 325.3 183.601 319.9 191.001 317.3C188.401 314.9 190.501 311.2 192.301 307.3C181.903 306.688 171.478 307.907 161.501 310.9C159.297 319.35 155.076 327.139 149.201 333.6C149.401 311.8 136.701 296.3 121.401 279.9C103.901 268.4 96.1008 245.2 94.7008 237.6C91.5008 246.1 89.2008 247.5 89.2008 247.8C85.3008 252 87.9008 261.6 79.9008 261.8C72.3008 271 63.3008 265.6 63.3008 265.6C71.9008 264.4 73.4008 260.9 75.0008 255.2C69.6008 253.9 74.3008 249.4 77.0008 247.7C78.6008 247.4 82.9008 236.7 85.6008 237L89.0008 205.3C82.1008 202.5 77.5008 198 78.0008 190.3C75.4008 187 73.7008 182.2 77.1008 180.4C75.7008 176.5 73.8008 172.1 68.1008 170.6C81.4008 168.3 83.0008 176.3 86.4008 177C90.3008 179.3 93.0008 192.7 97.7008 199.7C94.664 190.046 95.3051 179.61 99.5008 170.4C99.5008 164.9 97.2008 159.6 91.9008 156.5C103.201 156.3 107.801 167.9 108.201 168.3C115.301 177.6 105.701 184.1 108.801 188.2C111.001 186.6 112.101 182.8 115.401 183.2C118.201 180.2 120.201 177 120.001 170.2C127.001 174.1 125.301 179.9 123.001 185.6C123.501 194.2 122.301 196.5 116.601 199.5C111.001 202.9 109.901 205.7 110.601 209.7C117.401 217.1 118.901 239.7 118.901 239.7C121.722 240.408 124.189 242.117 125.845 244.508C127.5 246.899 128.231 249.81 127.901 252.7C134.401 252.1 140.401 257.1 141.401 261.7C145.201 258.1 150.601 261.4 154.401 265.3C155.701 263.3 158.601 262.4 161.701 263.5C161.701 259.9 163.701 257.8 166.901 254.8C159.101 248.7 156.901 233.8 165.701 225.7C163.901 214.7 167.301 204.4 172.901 203.2C171.201 191.1 178.301 187.3 181.201 184.4C179.301 178.9 185.401 168.8 188.901 168.8C185.401 163 191.801 152.6 196.901 151.8L193.501 143.8C193.501 143.8 177.101 146.3 174.101 161.3C172.101 158.2 170.101 153.5 170.101 153.5C170.101 153.5 163.601 170.9 163.401 170.5C157.701 167.1 160.201 158.7 160.201 158.7C156.201 154.2 156.901 148.5 155.201 143.4L109.201 141.4L114.401 150.8C108.901 150.9 82.3008 128.2 77.2008 108.8C90.8008 119.5 105.401 122.3 120.801 125.5L108.601 131.5C151.001 135.2 194.901 127.3 194.701 127.2C189.901 117.2 174.301 117.2 174.301 117.2V123.9L170.101 120.9L169.901 125.9L166.701 123.7L165.701 127.9L162.501 125.7L161.101 129.5L157.501 126.7C157.501 126.7 154.401 126.7 154.201 126.3C152.301 116.2 142.801 116 142.801 116C131.601 114.6 123.001 117 113.001 117.4C127.601 99.1998 147.601 100.9 166.701 98.8998C168.101 90.7998 175.201 88.3998 183.601 87.2998L223.001 89.2998C228.101 82.5998 243.701 79.7998 243.701 79.7998C249.301 77.0998 255.301 78.2998 260.301 71.5998C259.001 80.6998 258.901 82.5998 258.301 88.0998L263.301 88.6998C258.701 91.5998 252.601 95.7998 248.101 98.7998C243.001 106.4 244.001 106.6 246.201 110.6L250.801 118.7C258.601 121.1 264.301 124.4 266.101 129.5C257.601 128.5 251.501 130.1 251.601 133.7C251.801 136.4 258.201 137.6 260.801 139.3C265.701 143.8 267.301 147.8 267.501 153.5C261.301 153.1 253.101 143.8 248.801 152.5C246.701 156.7 249.001 162.4 254.401 164.3C264.301 167 265.301 180.7 265.101 180.7C264.901 180.7 243.301 166.2 244.301 179.7C244.001 185.7 246.701 186.9 249.001 188.7C255.401 191.1 261.001 193.9 260.301 200.7C250.901 197.4 246.501 200 245.401 205.4L249.001 215.8L286.801 208.2C292.301 203.2 294.801 194.8 294.201 185.8C294.901 172.5 290.101 160.7 307.101 145.8C341.849 117.236 379.292 92.1176 418.901 70.7998H419.001C410.801 84.3998 405.001 109.8 426.401 111.4C433.301 111.5 508.601 79.7998 508.601 79.7998C482.401 98.8998 452.301 125.6 487.301 137.2C455.201 147.1 428.601 179.6 451.901 205.8C435.201 201 413.401 211.8 409.501 223.9C428.401 223.7 445.501 222.7 463.501 228.9C463.501 228.9 514.301 237 517.701 214.9C500.401 223.4 470.501 219.9 469.601 195.7C469.801 174.9 501.001 163.2 527.601 178.9L535.801 161.9C526.101 163.1 517.201 164.8 507.201 162.4C527.536 143.68 546.611 123.636 564.301 102.4C560.501 129.2 564.301 168.1 571.001 180.8C562.901 177.9 553.901 171.1 549.401 162.1L540.001 191.5C560.001 232.1 508.001 264 464.601 266.3C491.001 280.6 525.601 298.5 525.601 307.9C515.101 311.8 508.801 300.6 500.401 297C509.401 320.4 503.901 337.7 499.201 360.8C494.701 366.2 499.201 369.7 501.101 374.2L513.501 379.1L515.501 380.9C515.501 380.9 524.301 381.3 526.701 393.6C520.901 386.5 512.901 388.7 512.901 388.7L509.901 390.7L502.801 386.5C495.101 381.3 487.201 381.6 478.801 385.3C474.401 387.9 470.001 387.7 465.801 385.7C461.101 380.5 450.801 385.1 450.501 385.1L439.501 392.4L436.601 391.8C436.501 391.8 429.601 391.6 420.601 397.3C422.901 385.1 431.901 385.3 431.901 385.3C431.001 382.7 432.901 383.1 433.501 382.1C436.401 378.8 442.601 379.4 447.101 378.1C442.189 376.367 437.009 375.521 431.801 375.6C426.001 376.1 427.201 379.7 421.001 376.9L421.401 375.7C415.701 375.2 411.201 374.9 408.001 380.3C407.601 371.3 415.201 369.6 420.001 367.6C422.201 364.2 427.001 364.8 431.401 365.2C435.208 365.522 438.93 366.504 442.401 368.1ZM442.401 368.1C446.701 369.8 447.701 370.3 449.601 371.3L442.401 368.1ZM182.501 101.2C184.367 101.2 186.201 101.4 188.001 101.8C191.401 102.7 195.501 103.1 195.501 104.2C193.901 106.8 190.001 109.9 186.201 109.8C182.401 109.7 180.201 107.3 179.001 101.6C179.534 101.333 180.701 101.2 182.501 101.2ZM499.501 190.6C504.501 190.6 510.401 192.6 516.101 198.8C513.401 206.8 489.301 210.8 487.701 199C487.201 195.4 492.301 190.7 499.501 190.6Z" stroke="black" stroke-width="1.4"/>
<path d="M207.401 171.2L211.101 176.5M210.901 176.6C210.901 176.6 210.901 183.8 212.401 183.9M209.101 187.8L212.901 194.1M202.401 195.7C202.601 195.7 207.101 200.9 207.101 200.9M211.001 196.9C211.001 197.1 215.201 205 215.501 205M205.501 202.4C205.501 202.4 206.901 212 208.201 211.7M199.201 220L203.401 226.5M207.101 213.2C207.101 213.2 209.401 222.3 211.201 221.5M213.101 207.7C213.201 207.9 217.401 213.8 218.501 213M217.501 215.3L221.501 223.3M210.901 221.5L214.201 230.9M203.201 226.3C203.201 226.3 206.201 236.4 208.901 234.8M202.101 239.8C202.101 239.8 202.301 245.1 204.901 245.4M206.701 237.1C206.701 237.3 209.401 240.9 209.401 240.9M214.401 230.8L216.501 234.3M221.401 224.3L224.701 228.4M206.001 176.7C206.101 181.2 213.201 175.1 216.001 171.3M203.001 192.3C203.001 192.3 210.701 186.8 216.701 178.5M200.401 205.4C205.901 203.9 216.001 191.7 218.001 185.2M199.301 217.5C200.801 218.2 219.601 204.5 220.101 194.6M198.801 228C198.801 227.9 216.001 223.6 223.101 204.7M198.001 242.3C198.001 242.3 225.501 225.8 227.001 213.7M412.401 270C412.401 270 410.601 284.2 396.401 286.4M416.901 295.4C417.001 295.2 430.501 280.4 427.001 275.9M448.101 281.1C448.101 281.1 447.901 291.4 439.501 298.5M464.901 284.1C464.901 284.1 465.201 296.5 459.901 301.5M480.301 291.5C480.301 291.5 474.301 303.2 472.201 304.4M480.101 312.2C480.101 312.2 487.901 314.2 490.401 309M482.101 329.1C482.101 329.1 489.301 330.4 492.701 323.5M481.301 342.2C481.301 342.2 487.201 347.2 491.201 340.6M397.201 246.2C397.201 246.2 396.501 271.5 432.001 276.6C471.701 287.6 490.501 281.8 492.801 326.3C491.301 343.3 489.201 362.3 476.801 355M359.401 269.5C359.401 269.5 365.101 279.6 371.901 278.9C380.901 276.3 384.201 281.8 384.201 281.8M335.201 279.6C335.201 279.6 350.201 286.9 362.901 275.1M336.901 269.1C338.201 286.6 316.801 296.6 308.301 294.9M337.901 335.9C338.001 335.9 349.501 329.1 347.201 324.3M315.101 325.8C315.401 325.4 334.401 323.6 337.901 316.8M306.301 297.8C306.301 297.8 333.201 298 335.001 302.9M342.001 281.9C342.001 281.9 315.801 326.8 364.201 326.8M314.201 281.3C314.201 281.3 308.601 298 300.601 303.7M286.401 275.5C286.401 275.5 296.101 294.3 286.401 303.6M261.001 280.8C261.101 281.1 264.101 307.5 257.501 315M248.301 281.6C248.301 281.6 249.301 298.4 244.301 304.4C239.301 310.4 245.501 322.8 245.501 322.8M185.001 330.8C185.001 330.8 188.601 337.1 193.501 334.9M191.001 317.1C191.001 317.1 199.001 320.6 201.701 319.3M199.701 288.9C199.701 288.9 187.901 292.2 192.401 306.2C199.201 311.7 205.801 310.8 205.801 310.8M176.401 348.2C176.301 348.2 177.801 359.2 185.401 350.9C190.701 339.7 207.401 308.3 211.301 297.5M219.101 292.4C219.101 292.4 211.001 286.1 211.301 294.9C211.101 300.4 213.801 301.7 213.801 301.7C214.101 305.7 217.601 311.3 220.401 306.2C221.601 301.2 219.601 299 219.601 299M224.301 290C217.001 289.6 213.001 305.7 227.101 295.6M231.901 284.6C231.901 284.6 230.101 287.1 227.201 284.4C225.701 281.8 220.401 296.4 229.701 296.9C231.401 292.6 236.501 291.4 236.501 291.4M240.901 277.6C240.901 277.6 236.701 279.6 235.201 279.3C230.201 280.4 231.201 292.1 237.501 291.4C239.701 288.9 242.001 285.4 242.001 285.4M201.701 262.4C201.501 262.4 185.201 288.1 210.801 294.9M408.801 223.9C408.801 223.9 398.801 232.3 408.101 245.9C377.101 245.4 360.601 259.7 359.301 269.3C319.901 266.5 327.101 278.1 314.301 281.9C297.201 267.6 272.101 275.6 273.701 289.9C262.301 273.8 244.701 281.6 242.501 285.6C240.301 289.6 241.201 265.8 241.201 265.8C241.201 265.8 229.701 271 221.801 280.4V260.5C212.201 262.5 202.901 262.5 193.001 262.3M167.101 255C167.101 255 181.401 263 199.101 252.2M166.001 226.3C166.001 226.3 177.001 236.3 198.001 233.1M173.001 203.4C173.001 203.4 175.401 211.5 199.301 212M181.001 184.6C181.001 184.6 190.001 195.6 202.201 193.9M188.701 168.9C188.701 168.9 192.201 174.9 205.501 175.9M196.501 151.4C196.501 151.4 203.501 159 211.501 157.7M238.001 89.3C238.001 89.3 241.101 86.3 246.301 87.8M235.801 105.6C235.801 105.6 226.201 105.3 226.801 101.6C227.601 97.2 237.001 94.1 237.001 94.1C237.001 94.1 249.501 86.1 251.401 83.3M194.801 127.3L207.001 150.6L212.801 141.8L215.801 147.8L220.801 139.1L229.401 144.6L226.201 133.9L233.401 133.4C233.401 133.4 231.401 128.3 225.001 127.2C226.701 125.9 232.701 121.9 232.701 121.9C232.701 121.9 229.301 117.9 223.901 117.8C225.701 115.9 228.101 111.3 227.901 111.3L222.601 110.1C222.601 110.1 234.801 114.1 244.201 108.5M221.001 89.7C221.101 89.8 220.301 94.5 217.701 97.2M174.001 102.5C174.001 102.5 181.501 100.5 187.101 101.6C192.701 102.7 200.201 104.8 200.201 104.8C200.201 104.8 209.201 103.6 212.101 101.5M155.301 107.5C155.301 107.5 154.301 111.1 153.901 113.5C153.901 115.2 148.401 117.5 148.401 117.5M158.701 100.1C158.701 100.1 163.501 106.1 163.701 109.6C163.801 113 160.101 115.6 160.101 115.6M109.001 141L104.001 133L108.501 131.4M199.001 252.4C195.001 247.2 202.001 168.2 216.701 147.6C211.601 184.8 228.701 222.8 233.001 222.6M154.001 125.6C154.001 125.6 160.801 128.1 174.701 117M193.601 143.8L203.601 143.9M503.901 81.9C503.901 81.9 337.201 159.7 334.801 163.9C362.901 155.3 482.301 135.4 485.201 137.1C478.201 138.8 333.301 172.1 326.501 180.1C362.701 178.9 438.401 191.7 450.301 204.1C424.501 198.3 347.601 187 324.001 192C341.201 196.1 407.201 238.8 407.201 245.6C397.201 236.1 317.901 203.4 314.801 206.6C333.001 217.5 358.701 258 358.701 267.9C353.401 259.5 307.501 210.2 304.801 213.4C309.701 220.1 319.301 278.3 314.401 281C314.401 274 296.601 223 295.101 221.6C291.501 222.6 268.801 283.6 273.301 289.4C270.301 269 273.801 226.4 279.301 228.1C269.301 229.6 237.601 271.5 241.001 278.1C242.001 267.6 243.401 260.7 261.401 226C241.401 227.2 200.201 253.1 193.201 262.4C198.801 245.9 233.701 218 249.001 216M321.001 155.3C338.601 145.5 393.001 125.6 429.401 110.9M286.801 207.9C286.801 207.9 298.801 207.7 310.801 175.1C322.601 130.5 416.501 80.8 418.401 71.5M128.001 252.8C128.001 252.8 125.201 258.8 121.801 260.4M141.501 261.8C141.501 261.8 137.801 269 136.901 272.4M154.401 265.4C154.401 265.4 157.401 275.2 154.901 279.8M118.501 239.7C109.101 245 123.901 278.7 168.601 281.9M161.401 263.7C161.401 263.7 160.201 269.7 168.601 281.7C166.201 295.1 178.801 305.6 183.801 307.3M157.801 143.1L159.201 139.5L160.701 143.5L163.201 143.4L164.801 139.4L166.201 143.4H168.601L170.101 139L172.401 143.2H174.401L175.901 138.2L178.901 141.8L180.101 141.4L181.101 136.2L184.201 139.8L185.201 139.3L186.601 134.3L189.101 138L190.401 137.6L191.601 133.3L194.001 137.3M155.001 143.5L173.801 143.2C179.801 143.2 189.601 134.9 200.501 137.5M115.601 183.5C115.601 183.5 118.701 190.3 123.001 186.5M108.401 188C108.401 188 102.401 204.2 109.601 208M99.8008 170.2C99.8008 170.2 99.8008 174 107.801 168.2M75.3008 254.9C75.3008 254.9 81.6008 256.9 80.6008 261.6M77.6008 180.8C77.6008 180.8 81.6008 182.7 85.4008 176.8M119.601 366.5C125.701 366.1 127.101 368.9 132.601 368.9C139.201 369.1 145.501 366.5 153.601 364.2M206.701 379.2C206.501 379.2 203.701 385 206.201 387.9M118.701 379.7C118.701 379.7 128.501 371.7 133.701 376.6C138.601 378.3 141.301 378 141.301 378M123.801 356.7C123.801 356.7 126.201 362.9 118.201 362M115.801 371C115.801 371 120.901 374.2 115.101 378.5M118.901 384.3C118.901 384.3 125.901 385.3 121.801 391M339.201 351.1C346.301 356.8 343.401 360.2 365.801 345.2M329.001 358.2C329.001 358.2 339.501 369.6 347.201 355.8M308.901 362.3L294.601 369.8M269.001 380.3C269.001 380.3 277.701 372.9 281.701 376.8C285.701 380.7 303.001 373.4 303.001 373.4M275.501 348C275.501 348 278.501 354 272.701 354.7M264.201 366.6C264.201 366.6 267.201 372.2 261.401 373.6M270.901 381.7C270.901 381.7 279.901 382.2 276.701 389M355.101 380.5C355.101 380.5 350.101 384.7 353.801 389.5M426.801 350.5C426.801 350.5 432.501 353.3 425.701 358M420.001 367.9C420.001 367.9 424.301 372.4 421.401 376.1M432.001 385.1C432.001 385.1 437.901 386.8 437.201 391.7M515.001 380.7C515.001 380.7 510.001 384.4 512.701 389.1M427.001 236.3C438.801 234.9 455.801 261.3 464.501 266.4M516.401 199C516.401 199 522.401 204.3 517.101 217M527.501 178.8C529.201 180.1 535.601 183.6 539.901 191.6M544.001 139.4L535.701 161.9M553.301 138.3C553.301 138.3 551.701 158.3 549.301 162.3M346.001 341.6C346.001 341.6 365.001 343.6 366.001 345C368.201 342.7 385.201 328.8 364.301 326.9C363.338 331.046 361.011 334.748 357.692 337.414C354.374 340.079 350.257 341.554 346.001 341.6ZM516.001 198.8C513.301 206.8 489.201 210.8 487.601 199C486.701 193 501.801 183.7 516.001 198.8Z" stroke="black" stroke-width="1.4" stroke-linejoin="round"/>
<path d="M182.301 101.3L191.601 103C191.601 103 185.101 111.8 182.301 101.3Z" fill="black" stroke="black" stroke-width="1.4" stroke-linejoin="round"/>
</g>
<defs>
<clipPath id="clip0_3921_3197">
<rect width="640" height="480" fill="white"/>
</clipPath>
</defs>
</svg>
