<svg width="640" height="480" viewBox="0 0 640 480" fill="none" xmlns="http://www.w3.org/2000/svg">
<g clip-path="url(#clip0_3921_3209)">
<path d="M0 0H640V480H0V0Z" fill="#CE1126"/>
<path d="M67.1992 67.2002H572.799V412.8H67.1992V67.2002Z" fill="#007A5E"/>
<path d="M67.1992 67.2998H572.799L67.1992 412.9H572.799L67.1992 67.2998Z" fill="#FCD116"/>
<path d="M319.901 297.7C351.712 297.7 377.501 271.912 377.501 240.1C377.501 208.288 351.712 182.5 319.901 182.5C288.089 182.5 262.301 208.288 262.301 240.1C262.301 271.912 288.089 297.7 319.901 297.7Z" fill="#CE1126"/>
<path d="M319.998 187.2L303.682 237.416L328.79 245.574" fill="#FCD116"/>
<path d="M319.998 187.2L336.314 237.416L311.206 245.574" fill="#FCD116"/>
<path d="M370.215 223.685H317.415V250.085" fill="#FCD116"/>
<path d="M370.215 223.685L327.499 254.72L311.981 233.362" fill="#FCD116"/>
<path d="M351.035 282.716L334.719 232.501L309.611 240.659" fill="#FCD116"/>
<path d="M351.035 282.716L308.319 251.681L323.837 230.323" fill="#FCD116"/>
<path d="M288.965 282.716L331.681 251.681L316.163 230.323" fill="#FCD116"/>
<path d="M288.965 282.716L305.281 232.5L330.389 240.658" fill="#FCD116"/>
<path d="M269.785 223.685L312.501 254.72L328.019 233.362" fill="#FCD116"/>
<path d="M269.785 223.685H322.585V250.085" fill="#FCD116"/>
<path d="M189.699 2.3999L180.058 32.0729L194.894 36.8935" fill="#FCD116"/>
<path d="M189.699 2.3999L199.341 32.0729L184.504 36.8935" fill="#FCD116"/>
<path d="M219.373 23.9585H188.173V39.5585" fill="#FCD116"/>
<path d="M219.373 23.9585L194.132 42.2974L184.962 29.6767" fill="#FCD116"/>
<path d="M208.037 58.8413L198.396 29.1683L183.559 33.989" fill="#FCD116"/>
<path d="M208.037 58.8413L182.796 40.5024L191.965 27.8817" fill="#FCD116"/>
<path d="M171.359 58.8413L196.601 40.5024L187.431 27.8817" fill="#FCD116"/>
<path d="M171.359 58.8413L181.001 29.1683L195.837 33.989" fill="#FCD116"/>
<path d="M160.027 23.9585L185.269 42.2974L194.438 29.6767" fill="#FCD116"/>
<path d="M160.027 23.9585H191.227V39.5585" fill="#FCD116"/>
<path d="M320 2.3999L310.359 32.0729L325.195 36.8935" fill="#FCD116"/>
<path d="M320 2.3999L329.641 32.0729L314.805 36.8935" fill="#FCD116"/>
<path d="M349.674 23.9585H318.474V39.5585" fill="#FCD116"/>
<path d="M349.674 23.9585L324.432 42.2974L315.263 29.6767" fill="#FCD116"/>
<path d="M338.338 58.8413L328.697 29.1683L313.86 33.989" fill="#FCD116"/>
<path d="M338.338 58.8413L313.097 40.5024L322.266 27.8817" fill="#FCD116"/>
<path d="M301.66 58.8413L326.901 40.5024L317.732 27.8817" fill="#FCD116"/>
<path d="M301.66 58.8413L311.301 29.1683L326.138 33.989" fill="#FCD116"/>
<path d="M290.328 23.9585L315.569 42.2974L324.739 29.6767" fill="#FCD116"/>
<path d="M290.328 23.9585H321.528V39.5585" fill="#FCD116"/>
<path d="M450.301 2.3999L440.659 32.0729L455.496 36.8935" fill="#FCD116"/>
<path d="M450.301 2.3999L459.942 32.0729L445.106 36.8935" fill="#FCD116"/>
<path d="M479.975 23.9585H448.775V39.5585" fill="#FCD116"/>
<path d="M479.975 23.9585L454.733 42.2974L445.564 29.6767" fill="#FCD116"/>
<path d="M468.639 58.8413L458.997 29.1683L444.161 33.989" fill="#FCD116"/>
<path d="M468.639 58.8413L443.397 40.5024L452.567 27.8817" fill="#FCD116"/>
<path d="M431.961 58.8413L457.202 40.5024L448.033 27.8817" fill="#FCD116"/>
<path d="M431.961 58.8413L441.602 29.1683L456.439 33.989" fill="#FCD116"/>
<path d="M420.629 23.9585L445.87 42.2974L455.04 29.6767" fill="#FCD116"/>
<path d="M420.629 23.9585H451.829V39.5585" fill="#FCD116"/>
<path d="M102.301 240.7C109.877 254.882 121.552 266.451 135.801 273.9C135.246 258.271 131.395 242.936 124.501 228.9L102.301 240.7Z" fill="#CE1126"/>
<path d="M90.0996 194.7C100.5 216.4 62.9996 268.4 125.6 280.6C117.131 268.36 113.269 253.516 114.7 238.7C128.613 245.132 140.031 255.952 147.2 269.5C163.6 210 105.2 213.7 90.0996 194.7Z" fill="#FCD116"/>
<path d="M189.699 417L180.058 446.673L194.894 451.494" fill="#FCD116"/>
<path d="M189.699 417L199.341 446.673L184.504 451.494" fill="#FCD116"/>
<path d="M219.373 438.559H188.173V454.159" fill="#FCD116"/>
<path d="M219.373 438.559L194.132 456.897L184.962 444.277" fill="#FCD116"/>
<path d="M208.037 473.441L198.396 443.768L183.559 448.589" fill="#FCD116"/>
<path d="M208.037 473.441L182.796 455.103L191.965 442.482" fill="#FCD116"/>
<path d="M171.359 473.441L196.601 455.103L187.431 442.482" fill="#FCD116"/>
<path d="M171.359 473.441L181.001 443.768L195.837 448.589" fill="#FCD116"/>
<path d="M160.027 438.559L185.269 456.897L194.438 444.277" fill="#FCD116"/>
<path d="M160.027 438.559H191.227V454.159" fill="#FCD116"/>
<path d="M320 417L310.359 446.673L325.195 451.494" fill="#FCD116"/>
<path d="M320 417L329.641 446.673L314.805 451.494" fill="#FCD116"/>
<path d="M349.674 438.559H318.474V454.159" fill="#FCD116"/>
<path d="M349.674 438.559L324.432 456.897L315.263 444.277" fill="#FCD116"/>
<path d="M338.338 473.441L328.697 443.768L313.86 448.589" fill="#FCD116"/>
<path d="M338.338 473.441L313.097 455.103L322.266 442.482" fill="#FCD116"/>
<path d="M301.66 473.441L326.901 455.103L317.732 442.482" fill="#FCD116"/>
<path d="M301.66 473.441L311.301 443.768L326.138 448.589" fill="#FCD116"/>
<path d="M290.328 438.559L315.569 456.897L324.739 444.277" fill="#FCD116"/>
<path d="M290.328 438.559H321.528V454.159" fill="#FCD116"/>
<path d="M450.301 417L440.659 446.673L455.496 451.494" fill="#FCD116"/>
<path d="M450.301 417L459.942 446.673L445.106 451.494" fill="#FCD116"/>
<path d="M479.975 438.559H448.775V454.159" fill="#FCD116"/>
<path d="M479.975 438.559L454.733 456.897L445.564 444.277" fill="#FCD116"/>
<path d="M468.639 473.441L458.997 443.768L444.161 448.589" fill="#FCD116"/>
<path d="M468.639 473.441L443.397 455.103L452.567 442.482" fill="#FCD116"/>
<path d="M431.961 473.441L457.202 455.103L448.033 442.482" fill="#FCD116"/>
<path d="M431.961 473.441L441.602 443.768L456.439 448.589" fill="#FCD116"/>
<path d="M420.629 438.559L445.87 456.897L455.04 444.277" fill="#FCD116"/>
<path d="M420.629 438.559H451.829V454.159" fill="#FCD116"/>
</g>
<defs>
<clipPath id="clip0_3921_3209">
<rect width="640" height="480" fill="white"/>
</clipPath>
</defs>
</svg>
