<svg width="640" height="480" viewBox="0 0 640 480" fill="none" xmlns="http://www.w3.org/2000/svg">
<g clip-path="url(#clip0_3921_3980)">
<path d="M0 0H640V480H0V0Z" fill="#000066"/>
<path d="M471.001 345C471.001 345 468.401 351.8 467.001 351.8C465.401 351.8 460.001 348.8 460.001 348.8C460.001 348.8 456.101 355.2 454.001 355.5C452.001 355.9 446.601 354.6 446.601 354.6C446.601 354.6 441.401 354.6 441.201 353.9C441.001 353.1 441.401 351.6 441.401 351.6C441.401 351.6 433.901 357.6 432.301 357.2C430.601 356.9 425.001 349.8 425.001 349.8L424.001 353.5L413.401 353.1L404.101 347.1C404.101 347.1 398.901 355.7 398.701 355.5C398.501 355.3 389.601 357.6 389.601 357.6L389.001 355.9L383.001 352.4C383.001 352.4 387.701 345.9 387.701 345.7C387.701 345.5 385.501 344.7 385.501 344.7L382.101 347.5L375.201 352L368.301 348.8L371.301 343.2L371.701 339.2L377.101 330.9L443.301 266.6L475.901 326.8L471.001 345Z" fill="#6A4C2D" stroke="black"/>
<path d="M518 348.8L535.3 348.2L527.9 344.6L593.6 342.1L584.3 338.6L576.1 327.4L542.1 324.9C542.1 324.9 539.5 322.9 535.4 323.9C535.2 321.3 532 317.9 532 317.9L511 316.2L498 325.2L506.8 347.8L518 348.8Z" fill="white" stroke="black"/>
<path d="M451 156L452.8 150C452.8 150 455.8 145 455.8 142.6C455.8 140.4 458.1 137.7 458.1 137.7C458.1 137.7 465 135.7 466.5 140C473.9 128.7 482.7 139.4 482.7 139.4L485.1 136.6L490.1 130.6C490.1 130.6 497.1 137.1 497.1 138.2C497.3 139.4 498.4 138.6 498.4 138.6L506 138C505.751 139.501 505.887 141.04 506.394 142.474C506.901 143.908 507.763 145.19 508.9 146.2C511.6 147.8 514 157.2 514 157.2L451 156Z" fill="url(#paint0_linear_3921_3980)" stroke="black"/>
<path d="M517.999 226.1C519.399 225.3 523.499 224 522.999 217.9C522.499 211.8 517.299 211.1 514.299 211.3C511.299 211.5 508.799 214.1 508.799 214.1L498.999 207.9C498.999 207.9 503.899 177.2 508.999 175.3C513.999 171.8 514.799 170.3 514.799 169.5C514.799 168.6 512.999 166.6 512.999 166.6L481.299 162.9L451.299 166.4C451.299 166.4 449.099 170 449.299 171.4C449.699 172.8 449.799 174.3 455.099 178.4C461.099 183 465.099 209.2 465.099 209.2C465.099 209.2 456.799 213.4 456.199 212.8C455.699 212.3 453.199 211.8 451.899 212C450.599 212.2 446.199 214.5 446.199 220.2C446.199 226 450.599 229.3 450.599 229.3C450.599 229.3 479.199 226 483.499 233.9C487.599 224.4 514.799 227.7 518.099 226.1H517.999Z" fill="#656263" stroke="black"/>
<path d="M548.9 194.2C548.9 194.2 549.2 190.9 551.6 189.3C554 187.7 569.8 186.9 573.6 189.3C577.4 191.7 578.8 203.4 578.8 203.4C578.8 203.4 581.2 207.5 581.4 210.6C581.5 213.6 581.9 215.6 581.9 215.6C581.9 215.6 594.5 232.1 594.7 247C596.1 257.1 595.8 284.2 591.8 294.5C591.845 301.957 589.949 309.297 586.3 315.8C586.3 315.8 587.6 318 587.4 320.4C587.2 322.8 586 325 586 325L604.5 334.1L597.7 331.6L604.5 337.3L596.8 333.7L601.3 338.3C601.2 338.1 590.1 333.2 590.1 333.2L595.1 337.9L586.6 333.9C586.6 333.9 591.6 339.4 591.6 339.1L584.2 335.9L584.6 338.6C584.6 338.6 578.8 338.3 578.8 334C577.041 332.992 575.454 331.709 574.1 330.2L560.9 328L546 283.4L549.5 208.2L550.5 204.4L548.9 194.2Z" fill="black" stroke="black" stroke-linejoin="round"/>
<path d="M539 434.8C539 434.8 531.3 418.8 527.5 418.5C524.1 411.9 539.5 358.5 569.2 355.4C585.5 356.7 570.5 374.2 559.8 368.8C561.451 372.944 563.709 376.82 566.5 380.3C566.5 380.3 545.2 389.5 538.9 434.8H539ZM436.7 437.1C436.7 437.1 443 418.8 446.8 418.6C450.7 418.4 436.7 357.7 406.2 357.3C389.8 358.6 404.9 376.2 415.7 370.8C414.018 374.95 411.726 378.826 408.9 382.3C408.9 382.3 430.4 391.5 436.7 437.1Z" fill="#FFBB00" stroke="black"/>
<path d="M464.6 323C464.6 322.8 457 325.3 461.9 333.5C462.2 330.3 465.6 328.5 465.6 328.5C465.6 328.5 460.5 334.5 465.9 339.6C466.6 334.8 469.7 333.3 469.7 333.3C469.7 333.3 465.8 344.5 469.7 346.8C470.2 342.3 473 340.3 473 340.3C473 340.3 469.6 350.3 472.7 352.6C473 348.8 475.6 347.1 475.6 347.1C475.6 347.1 474.1 357.6 478.1 358.3C478.1 354.6 481.1 351 481.1 351C481.1 351 479.8 359.5 486.1 359.9C486.1 356.7 487.3 353 487.3 353C487.3 353 490.2 362 494.3 360.6V352.9C494.3 352.9 497 361.5 502 359.9C501.3 357.5 502.3 354.6 502.3 354.6C502.3 354.6 504.9 360 509.7 358.2C510.5 356.6 509.5 353.4 509.5 353.4C509.5 353.4 516.5 360.6 518.5 356.3C520.7 352 513 350.5 513 350.5H518.2C518.2 350.5 516.5 346.1 509.5 345.1C511.9 344.1 514.4 344.9 514.4 344.9C514.4 344.9 512.9 339.4 505.7 338.8C508.5 337.8 511.7 338.5 511.7 338.5C511.7 338.5 510.7 333.3 502.7 331.8C504 330.4 507.4 330.8 507.4 330.8C507.4 330.8 504.2 325.9 500.6 326.2C497 326.5 464.6 322.9 464.6 323Z" fill="#00713D" stroke="black"/>
<path d="M496.6 349.5C496.6 349.5 499.6 350.9 499.4 352.1M498.3 347.2C498.3 347.2 502 349.8 501.9 351.7M501.6 345.9C501.6 345.9 504.5 347.7 504.6 350.6M506.5 347C506.5 347 507.9 350.2 507.5 350.8M509.4 348.7C509.6 351.2 509.2 351.5 509.2 351.5M473.2 333C473.2 333 476.7 335.2 476.4 338.3M473 335.6C473 335.6 474.6 337.2 474.3 338.2M477.3 333C477.3 333 479.6 336.2 478.8 338.4M481.2 335.1C481.2 335.1 482.2 337.1 481.2 338.1M483 336C483 336 484.2 338 483.1 338.7M481.6 342.6C481.6 342.6 484.8 343.3 485.3 345.7M483.5 340.4C483.5 340.4 486.9 340.6 487.3 344.2M488 339.1C488 339.1 490.3 343.1 489.9 344.3M492.3 339.5C492.3 339.5 493.2 343.2 492.5 344.5M495.1 341V345.3M490.9 335.1C490.9 335.1 492.9 335.9 492.9 338M492.8 333.2C492.8 333.2 495.5 334.7 495.3 337.7M496 332C496 332 498.3 334.7 497.5 337.8M500 332.6C500 332.6 499.2 336.1 499.6 337.5M502.6 335C502.6 335 501.1 336.1 501.9 337.6M489.2 348.4C489.2 348.4 489.7 351 489.2 351.4M485.9 346.8C485.9 346.8 487.5 349.8 486.9 351.2M482.3 346.7C482.3 346.7 484.2 348.9 484.1 350.7M479.3 347.1C479.3 347.1 481.1 348.8 480.9 349.8M477.8 349.7C477.8 349.7 479.5 351.5 479.4 351.8" stroke="#3EC26D" stroke-linecap="round"/>
<path d="M441.301 229.3L465.601 228.8C465.601 228.8 481.601 228.8 483.301 234C486.301 227.1 500.301 227.5 500.301 227.5L525.301 226.7L525.801 287.3C520.801 310.9 503.801 327.5 485.101 334.6C474.596 331.059 465.233 324.766 457.987 316.376C450.741 307.987 445.877 297.808 443.901 286.9L441.301 229.3Z" fill="white" stroke="black"/>
<path d="M450 229L485.3 323.2L517.3 227C507.3 227.6 486.1 225.4 483.4 234.5C479.4 226.4 457 229.6 449.9 229H450Z" fill="#006B00" stroke="black"/>
<path d="M474 280C475.4 280.7 475.3 254.5 477.1 253.7L478.5 248.2C477 245.5 470.1 245.6 467.5 248L469.2 252.8C472.7 258.4 472 280.6 474 280Z" fill="#FFC900" stroke="#006B00" stroke-width="0.5" stroke-linecap="round"/>
<path d="M464.5 77C464.5 77 467 74.1 467.1 73.5C467.2 72.9 478.5 72.3 485.1 59.8C488.9 53.3 485.1 57.1 485.1 57.1L485 54C485 54 489.6 49.6 488 47.2C486.2 44.8 486.8 50.2 484 50.2C481.3 50.1 482.8 44.2 482.8 44.2C482.8 44.2 482.6 43.6 481.8 43.2C480.7 43.4 481 45.4 480 45.6C479 45.9 478 40.9 478 40.9C478 40.9 476.3 38.6 474.9 45.7C475.7 53.4 480.5 51.9 480.5 56.9C480.5 61.9 476.2 65.7 475 65.9C473.7 65.9 474.2 61.6 474.2 61.6C474.2 61.6 473.5 59.6 473.1 59.6C472.7 59.6 475.6 59.1 475.1 53.5C474.1 46.7 473.3 55.1 471.5 54.7C469.6 54.4 471 48.5 471.7 47.7C472.4 47.1 470.9 44.3 466.9 51.5C466.6 55.1 466.1 50.6 465.3 50.9C464 53.7 464.2 55.7 466.1 58.3C469 61 470.8 63.6 470.7 64.9C470.6 66.3 469.1 69.4 467 69.4C465 69.4 467.1 65.6 467 64.4C467 63.1 463.5 58.6 463.5 58.6C463.5 58.6 461.1 54.7 461.4 54.6C461.7 54.5 461.1 53.9 460 57.9C458.9 61.9 457.5 55.3 457.5 55.3C457.5 55.3 455.9 60.2 459.3 63.1C456.7 62.8 456.5 63.8 456.5 63.8C456.5 65.2 460 65.8 460.5 68.1C460.9 70.5 456.8 71.9 456.8 71.9C456.8 71.9 458.5 74.2 463.3 69.6C463.4 72.6 461.5 74.6 461.5 74.6C463.1 75.3 464.3 75.2 464.5 77.1V77Z" fill="#CDAD56" stroke="black" stroke-linejoin="round"/>
<path d="M449 77.0001C449 77.0001 446.8 73.8001 446.7 73.2001C446.6 72.6001 436.3 74.0001 431.4 61.4001C428.2 55.4001 431.4 58.9001 431.4 58.9001L431.6 56.0001C431.6 56.0001 428.2 51.9001 429.6 49.7001C431.1 47.5001 430.6 52.5001 432.4 52.5001C434.7 52.4001 433.4 47.1001 433.4 47.1001C433.4 47.1001 433.6 46.5001 434.4 46.2001C435.3 46.3001 435.7 49.4001 436.5 49.6001C437.3 49.8001 439.2 46.0001 439.8 45.2001C440.6 45.1001 440.5 42.0001 441.8 48.5001C441.1 55.4001 435.4 54.0001 435.4 58.5001C435.4 63.0001 439 66.6001 440.1 66.7001C441.1 66.9001 440.8 62.9001 440.8 62.9001C440.8 62.9001 441.4 61.1001 441.8 61.1001C442.1 61.1001 438.4 61.8001 438.8 56.6001C439.6 51.8001 441.5 56.9001 443.1 56.6001C444.7 56.3001 442.9 51.6001 443.3 50.8001C443.4 50.0001 445.7 46.9001 446.6 53.8001C446.9 57.1001 448.6 51.1001 449.3 51.3001C450.5 53.9001 448.8 57.3001 447.2 59.7001C444.8 62.1001 443.7 64.7001 443.8 65.9001C443.8 67.2001 444.4 68.7001 446.2 68.7001C448 68.7001 446.7 66.5001 446.8 65.4001C446.9 64.3001 449.8 60.6001 449.8 60.6001C450.4 59.6001 449.9 58.0001 450.5 57.2001C451.5 57.2001 451.9 55.9001 452.8 59.5001C453.8 63.1001 454.9 57.1001 454.9 57.1001C454.9 57.1001 456.3 61.6001 453.4 64.3001C455.6 64.0001 455.8 64.9001 455.8 64.9001C455.8 66.1001 454.8 66.6001 454.4 68.9001C454.323 69.4975 454.382 70.1045 454.572 70.6759C454.763 71.2473 455.08 71.7683 455.5 72.2001C455.5 72.2001 454.1 74.4001 450 70.2001C449.989 71.8413 450.555 73.434 451.6 74.7001C450.2 75.4001 449.2 75.3001 449 77.0001Z" fill="#CDAD56" stroke="black" stroke-width="0.9" stroke-linejoin="round"/>
<path d="M511.301 243C509.301 241.2 509.001 242.8 507.901 242.4C507.434 242.133 507.001 241.767 506.601 241.3C506.201 240.9 505.734 240.633 505.201 240.5L504.601 242.2C504.401 242.8 505.201 243.7 505.201 244.6C505.134 245.933 504.367 246.833 502.901 247.3C503.401 246.4 503.601 246.4 503.501 245.3C503.501 244.8 501.901 243.8 502.101 243.3C502.301 242.4 502.801 241.5 502.501 240.6C501.801 241.1 501.001 240.8 500.301 241.1C499.801 241.4 499.701 242.4 499.001 242.8C498.301 243.2 496.501 243 495.001 242.2C495.901 241.5 496.601 242 497.501 241.2C497.901 241 497.901 239.5 498.401 239.2L500.301 238.2L499.501 236.6C499.101 236.1 497.401 236.2 497.001 235.8C496.201 234.8 496.301 233.7 495.601 232.8C497.601 233.5 497.301 234.5 497.801 234.4C498.867 233.933 499.701 233.833 500.301 234.1C501.201 234.5 501.701 235.6 502.301 235.8L502.901 233.9C503.101 233.3 502.101 232.4 502.201 231.8C502.601 230.7 503.601 229.7 504.001 228.5L504.401 231.6C504.501 232.2 505.601 232.5 505.601 233C505.701 233.6 505.101 234.8 505.101 235.4L507.101 235.2C507.801 235.1 508.101 233.7 508.701 233.6C509.901 233.4 510.701 233.5 512.001 233.6C511.001 234.5 510.401 234.4 509.901 235.2C509.401 235.5 510.001 236.6 508.801 237.4C508.301 237.7 507.001 237.4 506.601 237.7L507.801 239C508.201 239.5 509.901 239.7 510.301 240.2C511.167 241.133 511.501 242.1 511.301 243.1V243ZM457.001 244C459.001 242.1 459.301 243.8 460.401 243.3C460.867 243.1 461.301 242.767 461.701 242.3C462.101 241.833 462.567 241.533 463.101 241.4L463.701 243.2C463.901 243.7 463.101 244.7 463.101 245.5C463.301 246.8 463.801 247.8 465.401 248.3C464.901 247.3 464.701 247.3 464.801 246.3C464.801 245.7 466.401 244.7 466.201 244.2C466.001 243.4 465.501 242.4 465.801 241.6C466.501 242 467.301 241.8 468.001 242C468.501 242.3 468.601 243.3 469.301 243.7C470.001 244.1 471.801 243.9 473.301 243.1C472.401 242.4 471.701 242.9 470.801 242.2C470.401 241.9 470.401 240.4 469.901 240.2C469.501 239.8 468.401 239.4 468.001 239.1L468.801 237.5C469.201 237 470.901 237.1 471.301 236.7C472.101 235.7 472.001 234.6 472.701 233.7C470.701 234.4 471.001 235.4 470.501 235.3C469.434 234.9 468.601 234.8 468.001 235C467.101 235.3 466.601 236.5 466.001 236.7L465.401 234.8C465.201 234.3 466.301 233.3 466.101 232.8C465.701 231.6 464.701 230.6 464.301 229.4L463.901 232.6C463.801 233.1 462.701 233.4 462.701 233.9C462.601 234.5 463.201 235.8 463.201 236.3L461.201 236.1C460.501 236.1 460.201 234.7 459.601 234.5C458.401 234.3 457.601 234.4 456.301 234.6C457.301 235.4 457.901 235.4 458.501 236.1C458.901 236.5 458.301 237.6 459.501 238.3C460.001 238.6 461.301 238.3 461.701 238.6L460.501 240C460.101 240.4 458.401 240.6 458.001 241C457.201 242 456.867 243 457.001 244Z" fill="#FFC900"/>
<path d="M509.4 249.2C507.5 250.7 495.1 253.8 495 264.5C494.9 275.2 497.2 277.7 494.9 278C490.4 278 489.8 266 489.9 260.7C490 255.4 490.2 256.2 490.2 256.2C490.2 256.2 493.2 257 493 259.6C492.8 262.2 496 253.2 494.9 250.8C496.9 252.8 499.6 252 499.6 251.8C499.6 251.8 498.1 250.1 497.4 248.8C496.8 247.7 499.7 249.6 499.7 249.6C499.7 249.6 499.9 247.6 497.3 247.6C494 247.6 497.8 246.6 497.8 246.6C497.8 246.6 499.8 248.3 501 246.4C500.021 245.427 498.868 244.646 497.6 244.1C497.6 244.1 495.8 240.7 493.4 240.1C490.6 239.4 490.9 241.3 487.7 241C487.1 242.2 487.1 242.4 488.4 242.8C486.2 244.3 487.4 247.2 487.4 247.2C487.4 247.2 490.8 245.8 490.7 248.2C490.6 250.7 488.7 250.2 487.4 248.7C486.2 248.1 485.8 249.4 485.8 249.4L487.6 251.4C487.6 251.4 484.2 251.2 483.3 253.5C485.2 253.4 486.3 253.9 486.3 253.9C486.3 253.9 482.3 255.7 481.9 256.6C481.5 257.5 481.4 255.6 481.2 255.6L477.4 254.2L476.1 260.1C476.1 260.1 478.7 262.6 480.1 261.8C481.5 261 484.1 258.5 485.6 259.2C481.1 262.6 476.6 267.5 474.2 268.2C473.6 267.6 471.4 265.5 470.5 266.6C469.6 267.6 470.3 269 471.5 268.9C472.5 268.7 467.7 269.9 468.7 272C469.7 274 469.7 273.9 470.5 273.4C471.5 272.8 469.8 272.7 473.1 271.7C476.4 270.7 476.3 269.8 476.3 269.8C476.3 269.8 475.6 271.3 473.8 271.8C472.1 272.1 470.7 272.1 471 272.7C471.4 273.2 472.2 274.2 472 274.7C471.7 275.3 475.6 271.9 476.7 274.6C479.3 274.4 481.1 271.2 479.8 269.3C480 271.3 481.2 272 480.5 273C479.7 273.9 486.5 269.8 483.2 267.4C484 269.4 484.2 271 484.2 271C484.2 271 485.7 271 486.1 270.4C486.5 269.8 485.3 271.9 485.8 272.3C486.3 272.7 488.8 275 487.8 276.6C487.1 275.6 487 274.2 486.2 274.3C485.4 274.4 482.2 276.8 480.3 276.9C478.4 277 482.6 283.9 482.6 283.9C482.6 283.9 479.7 283.6 479.3 283.9C478.9 284.2 477 281.4 476.7 283C476 285 477.3 284.2 477.3 284.2C477.3 284.2 475.6 283.4 474.7 284.4C473.8 285.4 473 286.3 473.6 286.7C474.2 287.1 477 287.1 477.4 287C477.8 286.9 474.2 287.2 474 287.6C473.7 288 473.2 289.6 474 290.1C474.7 290.6 476.7 289.8 476.8 289.4C476.9 289 477 290.9 477 290.9C477 290.9 480.3 291.2 480.3 287.8C480.3 284.4 480.6 290.2 480.6 290.2C480.6 290.2 483.9 290.8 484 287.4C484.1 284 484.4 289.7 484.4 289.7C484.4 289.7 486.6 289 486.6 288.5C486.6 288 486.5 295.2 484.9 297.3C482.5 295.7 480.9 298.3 480.9 298.3C480.9 298.3 481.1 302.3 480.9 303.3C480.7 304.3 482.5 302.7 482.6 302.3C482.8 301.9 485.1 300.8 485.2 300.6L486 298.9C486 298.9 485.4 300.9 484.6 301.1C483.6 301.4 482.8 302.3 483.2 303.1C483.5 304 484.9 304.5 485.4 305.3C485.9 306.1 487.7 300.6 487.7 300.6L487.9 301.8C487.9 301.8 490.2 301.2 490.4 300.1C490.7 299.1 488 298.1 490.2 296.3C492.4 294.5 490.2 298 490.2 298C490.2 298 490.9 300.6 491.4 300.6C491.9 300.6 493.2 295.6 492 294.4C490.8 293.2 493.9 295.9 493.9 295.9C493.9 295.9 495.7 290.9 493.7 290.2L490.9 289.2C490.9 289.2 491.9 287.9 491.4 287.8C490.9 287.6 494.1 290.8 494.6 289.9C495.1 289 495.9 286.7 492.2 285.3C488.5 283.9 492.1 280.2 492.1 280.2C492.1 280.2 494.4 282.9 496.1 281.4C497.7 279.9 495.9 279.9 495.9 279.9C495.9 279.9 500.6 276.9 500.8 275.4C499.8 275.3 498.3 275.5 498.3 275.5C498.3 275.5 501 273.8 500.3 270.9C499.3 272.4 497.9 272.4 497.9 272.4C497.9 272.4 500.2 270.1 499.9 267.9C498.5 269 498.6 269.9 497.7 269.6C496.8 269.3 495.3 260.7 498.8 260.2C502.4 259.6 500.5 264.4 500.6 264.4C500.7 264.4 506 262.2 500.6 258.7C501.9 258.3 504.6 260.7 504.6 260.7C504.6 260.7 503.4 254.7 497.6 258.4C498.934 256.8 500.1 256.067 501.1 256.2C502.3 256.5 506.4 256.1 506.4 254.9C505.4 254.1 503.2 255.3 502 254.9C500.9 254.5 510.2 253.8 509.4 249.2Z" fill="#FFC900" stroke="#006B00" stroke-width="0.5" stroke-linecap="round" stroke-linejoin="round"/>
<path d="M469 252.7C469 252.7 474.1 249.8 476.6 253.4M478.7 258.8C478.6 258.8 476.9 260.6 476.5 260.6M482.1 264.5C482.1 264.5 486.9 264.9 489.9 259.9" stroke="#006B00" stroke-width="0.5" stroke-linecap="round"/>
<path d="M487.2 263C487.2 263 487.6 265.7 488.4 265.7C489.2 265.7 487.1 266.4 486.4 265.9C487.2 267.1 487.7 269.3 486.4 270.1" stroke="#006B00" stroke-width="0.5" stroke-linecap="round"/>
<path d="M484.8 297.3C484.8 297.3 483.2 299.2 481.1 299.3L484.8 297.3Z" fill="#E80000"/>
<path d="M484.8 297.3C484.8 297.3 483.2 299.2 481.1 299.3" stroke="#006B00" stroke-width="0.5" stroke-linecap="round"/>
<path d="M486.699 288.6C486.699 288.6 485.699 283.1 486.299 281.8C486.699 280 488.299 279.3 489.699 277" stroke="#006B00" stroke-width="0.5" stroke-linecap="round"/>
<path d="M486.201 284.6C486.201 284.6 484.901 287.9 479.301 286.8M487.701 276.5C487.701 276.5 488.101 280.8 483.001 279.2M481.501 257C481.501 257 479.501 258.8 480.201 261.4" stroke="#006B00" stroke-width="0.5" stroke-linecap="round"/>
<path d="M489.1 252.1C489.1 252.1 491.8 251.1 492.3 250.5C493.01 249.812 493.586 248.998 494 248.1C494.2 247.3 492.2 246.1 493.2 244.3C493.866 243.367 494.866 243.367 496.2 244.3C497.8 245.3 494.9 241.3 493.4 241.1C491.8 241 490.8 242.2 490.4 241.9C490 241.7 490.5 243 489.9 243C489.3 243 491.2 244.1 491.1 244.8C491 245.5 493.1 247.8 493 248.3C492.9 248.8 489.8 252 489.1 252.1Z" fill="#006B00"/>
<path d="M491 243.2C492.067 242.867 492.467 243.2 492.2 244.2L491 243.2Z" fill="#FFC900" stroke="#FFC900" stroke-width="0.5" stroke-linecap="round" stroke-linejoin="round"/>
<path d="M483 303.7C483 303.7 482.5 306.6 483.5 306.8C483.566 305.733 483.733 305.033 484 304.7L483 303.7ZM480.5 300.2C479.5 300.1 478 301 478.5 302C479.2 301.3 479.9 302 480.5 301.3V300.3V300.2ZM480.5 298.2C480.5 298.2 479 298 478.8 299.1C479.733 298.833 480.3 298.833 480.5 299.1V298.2Z" fill="#E80000" stroke="#006B00" stroke-width="0.5" stroke-linejoin="round"/>
<path d="M474.1 282.2C474.1 282.2 475.1 282.5 475.3 283.5C476 283.1 476.3 280.9 474.1 282.2ZM471.8 284.6C471.8 284.6 473.8 283.4 473.9 284.6L473.1 285.3C472.8 285.3 472.3 284.5 471.8 284.6ZM471.7 288.5C471.7 288.5 472.9 287.5 473.3 288.1C473.8 288.9 472.9 288.8 472.9 288.8L471.7 288.5ZM470 266.6C470 266.6 468.5 266 467.9 267.1C468.9 267.3 469.2 267.6 469.7 268C469.5 267.5 469.3 266.8 470 266.6ZM467.1 274.9C467.1 274.9 467.1 273 468.1 272.3C468.433 272.566 468.7 272.967 468.9 273.5C468.3 273.7 467.5 273.7 467.1 274.9ZM471 273.6C471 273.6 469.4 274.4 470 275.3C470.5 274.6 471.1 274.8 471.1 274.8V273.6H471Z" fill="#E80000" stroke="#006B00" stroke-width="0.6" stroke-linejoin="round"/>
<path d="M468.701 255.8C468.101 256.5 469.401 258 470.801 257.8C471.201 256.2 469.101 255.3 468.801 255.8H468.701Z" fill="#FFC900" stroke="#006B00" stroke-width="0.6" stroke-linejoin="round"/>
<path d="M470.199 254.6C470.199 254.6 470.499 255.9 471.699 255.6C471.545 254.888 471.199 254.231 470.699 253.7C470.699 254 470.799 254.5 470.199 254.6ZM470.999 258.3C470.999 258.3 471.699 259.1 472.999 257.6C472.399 257.7 471.399 257.2 471.399 257.2C471.399 257.2 471.399 258.2 470.999 258.3Z" fill="#E80000" stroke="#006B00" stroke-width="0.6" stroke-linejoin="round"/>
<path d="M468.601 252.8C468.101 253.5 468.901 254.5 470.301 254.3C470.601 252.6 469.001 252.3 468.601 252.8Z" fill="#FFC900" stroke="#006B00" stroke-width="0.6" stroke-linejoin="round"/>
<path d="M469.201 246.3C469.201 246.3 474.701 244.7 477.601 247.1C480.601 249.4 480.601 247.3 480.601 247.3C480.601 247.3 484.801 248.9 486.001 248.5C487.201 248.2 485.101 248.7 486.801 247.6C488.501 246.6 483.401 247.9 483.001 245.7C482.201 244.4 483.001 242.7 481.301 243.3C480.101 241.7 482.101 240.6 481.601 238.9C480.401 239.9 479.701 238.6 478.701 240.9C476.401 240.4 478.401 237.1 475.801 236.8C475.801 239.1 473.901 239.2 473.801 240.6C472.701 241.4 467.801 244.3 469.201 246.3Z" fill="url(#paint1_linear_3921_3980)"/>
<path d="M406.001 425C409.601 424 428.901 429.2 436.301 437.2C434.701 422.9 430.801 412.1 430.801 412.1C430.801 412.1 419.301 408.8 417.801 410.4C413.321 414.762 409.361 419.627 406.001 424.9V425ZM400.101 359.3C398.767 359.367 397.434 360.5 396.101 362.7C394.501 366.5 393.401 376.2 391.101 378.5C388.901 380.7 386.801 380.9 386.801 383C386.801 385 387.101 389.7 393.101 391.5C399.201 391.8 408.901 381.8 408.901 381.8C408.901 381.8 413.901 376.4 415.901 370.6C404.201 374.6 395.901 363.8 400.101 359.3ZM569.701 422.7C558.545 423.426 547.904 427.661 539.301 434.8C540.901 420.7 544.801 409.8 544.801 409.8C546.101 409.5 556.101 406.6 557.601 408.2C559.901 410.6 567.301 417.9 569.701 422.7ZM575.201 357.4C576.501 357.6 577.001 359.4 578.201 361.6C579.701 365.5 581.201 371 583.501 373.2C585.801 375.5 587.801 378.8 587.801 380.8C587.801 382.8 587.301 385.6 581.301 387.4C575.301 387.6 566.501 379.8 566.501 379.8C566.501 379.8 561.501 374.5 559.501 368.6C571.201 372.6 578.701 362.3 575.201 357.4Z" fill="#C01500" stroke="black"/>
<path d="M393.401 412.5C393.401 412.5 405.501 420.9 405.801 424.7C438.501 376.2 521.901 361.1 569.501 421.3C575.801 413 582.301 410.3 582.301 410.3C532.301 344.9 432.601 353 393.301 412.5H393.401Z" fill="#FFBB00" stroke="black"/>
<path d="M517.399 227L522.199 226.9L513.699 237.7L523.899 249.6L503.799 274.9L522.799 297.7C520.86 302.705 518.235 307.417 514.999 311.7L504.099 299.7L523.999 275L507.799 256.6L517.399 227ZM449.299 229.2H444.299L453.799 239.6L443.699 252.2L464.699 275L447.299 298.3C449.299 303.3 452.299 309.1 455.599 313.3L465.899 300.2L444.699 276.6L460.199 256.9L449.299 229.2Z" fill="#1E5AA6" stroke="black"/>
<path d="M472.999 290.4L465.399 300.4L492.199 331.4C496.999 329 500.699 326.3 504.699 323L490.699 306.9L496.399 290.2L504.599 299.6L479.099 332.2C474.699 330.4 470.266 327.667 465.799 324L479.299 306.9L472.999 290.4ZM464.699 274.9L469.499 281L466.399 272.7L464.699 274.9ZM499.599 280.3L503.599 275.1L502.099 273.1L499.599 280.3Z" fill="#1E5AA6" stroke="black"/>
<path d="M556 195C556 195 560.8 191 564.1 191" stroke="#FFF700" stroke-linecap="round"/>
<path d="M556.699 194.5C556.799 194.4 584.799 190.5 585.699 189.5M556.799 194.7L588.199 192M556.699 194.8C556.699 194.8 589.999 193.3 591.999 195" stroke="#FFF700" stroke-linecap="round"/>
<path d="M556.6 194.7C556.6 194.7 589.2 195 589.8 195.7M556.7 194.7L588.1 197.3M556.4 195C556.4 195 588.4 197.8 591.4 201.8" stroke="#FFF700" stroke-linecap="round"/>
<path d="M593.101 207.5C593.101 207.4 582.301 194.6 556.301 194.8" stroke="#FFF700" stroke-linecap="round"/>
<path d="M556.4 195C556.4 195 574.4 196.3 580.1 202.6" stroke="#FFF700" stroke-linecap="round"/>
<path d="M556.699 194.8C556.699 194.8 568.399 192.6 580.599 207.3" stroke="#FFF700" stroke-linecap="round"/>
<path d="M549.399 208.2C549.399 208.2 565.499 208.8 565.499 210.4C565.499 212 553.499 215 553.299 221.6C553.199 228.3 562.499 228.8 563.199 237.2C563.799 245.6 555.899 246.8 554.199 249.1C552.699 250.1 548.899 262.1 549.399 269.1C549.899 276.1 551.899 299.6 555.599 304.4C558.399 306.6 562.599 313.7 567.299 311.4C571.899 309.3 568.699 301.2 568.299 299C567.799 296.8 570.099 293.1 570.099 289.8C570.099 286.4 568.399 283.8 568.599 283C568.799 282.2 581.399 286 580.599 298.5C579.799 311 574.699 307.2 574.699 307.2C574.699 307.2 576.299 322.6 572.399 324.6C565.199 328.4 559.999 323.8 559.999 323.8L560.699 327L555.199 324.2C555.199 324.2 548.199 314.2 546.699 309.7C544.652 300.341 543.679 290.78 543.799 281.2C544.499 276.9 544.899 251.9 544.599 250.6C544.299 249.4 542.999 228.5 543.799 225.3C544.599 222.1 549.499 208.2 549.399 208.2Z" fill="url(#paint2_linear_3921_3980)" stroke="black"/>
<path d="M532 204C532 204 543.2 193.1 549.7 194.4C553 194.4 549.9 196.8 549.9 196.8C549.9 196.8 555.6 197.2 556.4 199.8C556.5 200.8 553.7 201.2 553.7 201.2C553.7 201.2 556 201.7 556.2 203.7C556.4 205.8 532.2 204.2 531.9 204.1L532 204Z" fill="#FF7000" stroke="black"/>
<path d="M532.6 203.6C532.6 203.6 544.6 202 549.7 196.9" stroke="black"/>
<path d="M544.801 200.3C544.801 200.3 553.701 199.9 553.701 201.3" stroke="black"/>
<path d="M576.301 329.9C576.301 329.9 583.901 328.1 586.001 325.4C587.201 324.4 593.901 335.4 576.301 329.9Z" fill="white" stroke="black" stroke-linejoin="round"/>
<path d="M574.3 267C574.3 267 575.3 272.8 572.5 276.8C571.1 278.4 566.8 281.1 566.8 283C566.8 284.9 568.4 287.4 568.1 289.6C567.8 291.8 565.4 294.1 565.5 296C565.5 297.9 568.2 308 567.9 308.2M560.3 248C560.3 248 554.3 250 553 256" stroke="white" stroke-linecap="round"/>
<path d="M557.801 200.3C557.801 200.3 559.801 206 566.501 200.6C562.201 194.7 557.801 200.4 557.801 200.3Z" fill="#C75B00" stroke="black"/>
<path d="M562.701 200C562.701 200.333 562.467 200.533 562.001 200.6C561.534 200.667 561.301 200.467 561.301 200C561.301 199.533 561.534 199.367 562.001 199.5C562.401 199.5 562.634 199.667 562.701 200Z" fill="black"/>
<path d="M503.401 187C503.401 187 516.001 200.7 524.101 200.5C525.601 204.5 520.401 208.3 518.401 210C514.201 208.7 510.401 210.3 500.801 198.4C501.401 190.8 503.501 187.4 503.401 187ZM520.401 155.2C522.101 150.2 525.401 146.2 528.201 145.7C527.401 141.9 534.101 124.8 553.501 118.3C554.701 127 545.201 135.7 545.201 135.7C545.201 135.7 573.901 130.7 579.701 123.5C579.101 126.7 573.301 147.1 542.701 146.9C554.301 157.9 539.001 166.7 532.501 164C544.501 154.8 529.001 149.3 520.501 155.2H520.401Z" fill="white" stroke="black"/>
<path d="M530.199 148.1C535.999 144.4 538.099 144.4 542.899 145.1L539.399 145.7C539.399 145.7 539.099 146.2 541.199 148.1C538.799 147.5 536.799 146.1 530.199 148.1Z" fill="#CCCCCD" stroke="#CCCCCC"/>
<path d="M528 145.7C528 145.7 539.4 139.7 545.8 135.5" stroke="black"/>
<path d="M518.199 210C518.199 210 533.899 214.3 535.699 191.8C532.299 182 527.599 160.8 534.799 154.8C528.199 150.2 520.799 155 520.799 155C520.399 156 514.499 164.5 522.499 179.3C503.499 174.3 511.199 192.3 511.199 192.3C511.999 189.3 522.099 186.7 524.599 201.1C525.599 204.7 517.799 210.1 518.199 210.1V210Z" fill="#0000FF" stroke="black"/>
<path d="M535.9 192C535.9 192 552.5 183 552.1 162C537.9 162.4 532.9 180.6 532.9 180.6L535.9 192Z" fill="#0000FF" stroke="black"/>
<path d="M461.301 190.9C461.301 190.9 449.001 201.6 442.001 198.2C436.901 201.2 430.801 195.8 430.801 195.8C430.801 195.8 437.801 222.1 463.401 203.1C463.149 198.976 462.479 194.888 461.401 190.9H461.301Z" fill="white" stroke="black"/>
<path d="M441.901 197.7C442.901 192.2 447.201 189.5 450.701 194.7C455.301 195.7 459.901 176.7 443.501 179.9C448.101 155.2 434.301 146 434.301 146C434.301 146 429.401 173.4 431.701 178.4C433.901 183.4 428.401 169.1 410.701 165C410.401 185.7 430.501 195.3 430.501 195.3C430.501 195.3 436.101 200.5 441.901 197.7Z" fill="#0000FF" stroke="black"/>
<path d="M443.499 179.7C443.499 179.7 435.799 186.3 437.499 195.2M431.799 178.9C431.799 178.9 429.999 185.2 433.799 194.3" stroke="black"/>
<path d="M430.6 196.4C430.6 196.4 434.2 190.6 441.9 198" stroke="black"/>
<path d="M432.1 156.3C432.1 156.1 420.4 156.3 427.3 168.2C422.2 169.8 410.6 162.2 418.6 152.2C392.3 151.5 381.6 138.9 381.6 127.3C389.3 135.3 407.8 132.1 414.3 137C406.3 129.6 407.9 119.3 407.9 119.3C407.9 119.3 430.3 126 434.3 145.9C433 149.8 432.4 156.6 432.1 156.3Z" fill="white" stroke="black"/>
<path d="M414 136.5C418.4 140.9 429.5 142.2 435.1 147.1" stroke="black"/>
<path d="M419.199 149.5C419.199 149.5 428.399 148.3 431.099 151.5C427.499 151.5 426.299 150.6 421.099 152.5C422.499 151.8 422.099 150.5 422.899 150.5C423.699 150.5 419.599 149.5 419.199 149.5Z" fill="#CCCCCD" stroke="#CCCCCC" stroke-width="0.7"/>
<path d="M465 77.4999C465 77.4999 470.1 72.9999 475.6 76.9999C473.1 84.3999 464.2 81.5999 464.2 81.5999C464.2 81.5999 464.5 85.2999 463.6 87.0999C465.4 88.4999 466.8 92.8999 466.8 92.8999C466.8 92.8999 476 90.6999 478 94.6999C481.5 94.1999 484 94.6999 484 94.6999C484 94.6999 491.2 92.8999 493.7 92.8999C496.2 92.8999 504.2 94.8999 505 96.4999C505.7 97.8999 508.4 107.9 510.2 107.7C512 107.6 505.9 110.1 504.2 107.6C502.6 105.1 503.1 110.9 503.1 110.9C503.1 110.9 508.1 116.2 508.7 117.4C509.3 118.6 505.6 128.2 508.4 134.9C505.9 135.1 505.7 137.7 505.7 137.7C505.6 140.7 501.9 141.4 501.9 141.4L500.9 137.4L498.5 138.9L499.5 135.8C499.5 135.8 502.9 127.5 503.2 124.8C503.5 122.1 500.1 117.4 497.4 117.4C494.7 117.4 492.8 125.9 492.8 125.9C492.8 125.9 491.5 132.2 491.9 132.9L490.1 130.8C490.1 130.8 489 134.6 488.1 135.8C487.1 137 485.2 137.4 485.2 137.4C485.2 137.4 483.9 133.6 484.4 132.1C484.9 130.6 491.6 124.8 491 120.7C490.4 116.6 491 117.5 490.9 117.4C490.7 117.2 487.3 114.3 487.2 112.6C487.1 110.9 482.7 114.7 477.1 113.6C475.4 116.6 475.1 124.1 475.1 124.1C475.1 124.1 474.6 133.1 475.7 134.1C476.9 135.2 472.7 137.4 472.7 137.4L469.8 141.4L468.8 139.1L466.7 140.6L467.9 137.6C467.8 135.3 470.8 129.2 470.8 124C470.8 118.8 471.1 113.2 471.1 113.2C471.1 113.2 465.7 112.9 465.8 118.6C465.9 124.2 464.5 124.6 464.8 126.1C465.1 127.8 466.5 132.4 466.1 133.7C465.7 135.1 463.9 135.5 463.9 135.5L463.4 136.2C463.4 136.2 457.9 138.8 458.1 139.8L457.9 136.8L457.6 132.5C457.6 132.5 460.9 130.5 460.9 125.3C460.9 120.1 460.2 119.3 460.3 118.1C460.4 116.9 461.2 112.6 461 112.1C460.9 111.7 458 113.4 457 113.4C456 113.4 458.7 110.3 459 108C459.3 105.8 456 110.1 453.3 107.6C454.6 104.9 456.4 104 456.7 102C457 99.8999 454.7 103.7 452.6 102.2C452.8 100.2 454.8 98.4999 454.8 98.4999C454.8 98.4999 453.1 98.2999 452.4 98.4999C451.1 98.0999 453.9 95.9999 454.1 92.9999C454.3 89.9999 452.4 88.8999 452.4 88.6999C452.4 88.5999 449.4 86.0999 449 84.9999C448.6 83.9999 448.6 82.7999 448.6 82.7999C448.6 82.7999 443.6 86.3999 437.9 78.7999C443.2 74.2999 448.9 77.5999 448.9 77.5999C448.9 77.5999 450.4 73.3999 457.2 73.6999C464 73.9999 465.4 77.8999 465.1 77.4999H465Z" fill="#923F00" stroke="black"/>
<path d="M502.4 154.2C502.5 154.2 515 154.6 515.1 161.3C515.3 168 511.3 166.3 511.1 166.3L502.1 165.1L502.4 154.2Z" fill="#0000FF" stroke="black"/>
<path d="M490.301 152.4C490.301 152.4 505.901 152.3 505.001 159.1C504.101 165.9 500.201 164.5 500.201 164.5L492.601 163.9L490.301 152.4Z" fill="#FFFEFF" stroke="black"/>
<path d="M481.5 151.7L490.5 152.4C490.5 152.4 496 153.1 495.7 158.4C495.5 163.5 490.2 163.6 490.2 163.6L481.4 163.1L481.5 151.7Z" fill="#0000FF" stroke="black"/>
<path d="M460.4 154.2C460.2 154.2 447.8 154.6 447.6 161.3C447.6 168 451.5 166.3 451.6 166.3L460.7 165.1L460.4 154.2Z" fill="white" stroke="black"/>
<path d="M472.499 152.4C472.499 152.4 456.899 152.3 457.799 159.1C458.599 165.9 462.599 164.5 462.599 164.5L470.099 163.9L472.499 152.4Z" fill="#0000FF" stroke="black"/>
<path d="M481.299 151.7L472.299 152.4C472.299 152.4 466.799 153.1 466.999 158.4C467.299 163.5 472.599 163.6 472.599 163.6L481.399 163.1L481.299 151.7Z" fill="white" stroke="black"/>
<path d="M505.401 226.7C505.401 226.7 511.901 217.2 514.701 218.2C517.101 219 515.201 226.4 514.101 227.1L505.401 226.7ZM461.001 228.4C458.901 225.6 456.001 217.7 453.201 219.9C450.801 220.7 452.601 228.1 453.801 228.8L461.001 228.4Z" fill="#5E0043" stroke="black"/>
<path d="M465.199 209.5C465.199 209.5 477.899 217.3 481.999 217.5C486.099 217.7 499.299 207.4 499.299 207.4" stroke="black"/>
<path d="M466.5 179L468.9 176L481 182L493.4 176.5L495.8 179.1L482 188.8L466.5 179Z" fill="#5E0043" stroke="black"/>
<path d="M456.8 178.8C461.514 184.237 465.024 190.61 467.1 197.5C468.5 205.4 466.3 186.6 466.3 186.6C466.3 186.6 476 191.4 476.3 194.4C476.6 197.4 480.9 194.2 481.1 193.7L453.1 175.5L456.8 178.8ZM504.8 178.3C504.8 178.3 494.6 191.7 495.8 206.3C493.7 199.3 495.4 187.8 495.4 187.8L493.2 189.2C493.2 189.2 490.8 199.1 487.9 200.6C487.5 199.467 487.366 198.933 487.5 199C487.7 199.1 484.4 203 483.8 203.4C483.2 203.8 484 217.1 484 217.1C484 217.1 485 226.7 486.2 226.6L483.2 228.3L481.9 202.7L484.8 199.8C484.8 199.8 488.6 195.1 488.9 190.6C487.3 192 485.4 192.4 485.4 192.4C485.4 192.4 484.9 198.9 483.4 199.8C481.8 200.8 481.8 202.4 481.8 202.4L481.4 193.9L504.8 178.3Z" fill="#474747" stroke="#474747" stroke-linejoin="round"/>
<path d="M481.4 193.8L483.4 234.3" stroke="black" stroke-linecap="round"/>
<path d="M456.5 213.2C456.5 213.2 461.2 215.9 462.9 224.2C478.1 223.1 482.9 228.4 482.9 228.4C482.9 228.4 495.3 222.4 501.1 223.6C503.1 219.3 508.9 213.9 508.9 213.9" stroke="black"/>
<path d="M450.2 173.5L481.4 193.9L509.6 175C509.6 175 515.4 171.8 514.9 169.5C514.4 167.1 512.4 168 511.4 168.5C510.4 168.8 481.9 189 481.9 189L451.7 169.8C451.7 169.8 449.5 169.1 449.1 170.6C448.7 172 449.9 172.8 450.2 173.5Z" fill="#B4B6B9" stroke="black"/>
<path d="M506 168.2C506 168.2 498 164.8 498 167.7C498 170.7 498.3 171 499.6 172.9C500.9 174.7 498.6 175.9 498.6 175.9L497.8 173.9C497.4 172.6 493.1 171.7 492.8 170.1C492.3 168.6 493.6 166.2 491.1 165.9C488.5 165.6 486 166.9 485.5 169.9C484.486 173.273 483.181 176.552 481.6 179.7L482.1 164.1C487.7 164.5 498.1 165.7 506.2 166.7C503.8 166.3 507.2 166.8 507 167.7C506.8 168.3 506 168.4 506 168.2ZM477.8 164.3C474.261 164.432 470.758 165.072 467.4 166.2C465.6 167.2 470.4 168.9 469.7 170.2C469.1 171.7 469 174.6 466.7 174C464.4 173.4 456.9 169.6 456.7 168.3C456.4 167.1 454.9 167 454.9 167C454.9 167 476.7 164 477.8 164.3Z" fill="#474747" stroke="#474747" stroke-linejoin="round"/>
<path d="M481.2 162.5V181.6M466.5 139.9L457.5 154.5" stroke="black"/>
<path d="M482.6 139.5C482.6 139.5 486.4 144.7 486 146.2C487.5 147.4 489.3 152.2 489.3 152.2" fill="url(#paint3_linear_3921_3980)"/>
<path d="M482.6 139.5C482.6 139.5 486.4 144.7 486 146.2C487.5 147.4 489.3 152.2 489.3 152.2" stroke="black"/>
<path d="M497.3 138.7C497.3 138.7 489.1 150.3 489.3 151.2" stroke="black"/>
<path d="M455.101 83.3999C454.768 84.0666 454.001 84.2666 452.801 83.9999C451.601 83.5332 451.034 82.9332 451.101 82.1999C451.301 81.4999 452.401 81.1999 453.501 81.5999C454.501 81.8999 455.301 82.6999 455.101 83.3999ZM458.501 83.1999C458.834 83.8666 459.601 84.0332 460.801 83.6999C462.001 83.3666 462.568 82.7666 462.501 81.8999C462.301 81.2999 461.201 80.9999 460.101 81.3999C459.101 81.6999 458.301 82.4999 458.501 83.1999Z" fill="black"/>
<path d="M555 324C555 324 551.8 324.5 552 324.8C552 325.1 543 325.4 542.9 325.1C542.7 324.8 541.5 326.6 541.5 326.6L543 325.7C543 325.7 545.2 328 545.8 327.8C546.5 327.7 545.5 328.8 545.8 328.9C545.9 329.1 546.6 328.5 546.6 328.5L561.4 328.3L555 324ZM560.4 328.5L548.4 328.9C548.4 328.9 545.3 331.7 545.1 332.3C544.9 332.9 547.1 333.2 547.1 333.2L547.7 335.5L549.3 334.9C549.3 334.9 559.6 336.4 569 334.3C573.8 332.7 574.7 330.7 571.3 329.4C568 328.2 560.5 328.6 560.4 328.5Z" fill="#FF7000" stroke="black" stroke-linejoin="round"/>
<path d="M519 353.4L540.7 352.4L536.7 349L595.7 346.6L593.7 341.9L527.6 344.6L535.6 348.3L517.6 348.8L518.2 350.7L513.5 350.5C513.5 350.5 518.8 352.5 518.9 353.5L519 353.4Z" fill="url(#paint4_linear_3921_3980)" stroke="black"/>
<path d="M543.4 232.9C541.7 232 534 230.9 525.5 236.5L525.9 256.1C525.9 256.1 538.4 249.4 544.4 250.9C544.1 244.9 544.1 237.1 543.4 232.9Z" fill="url(#paint5_linear_3921_3980)" stroke="black"/>
<path d="M422.701 292.4L371.301 343.4M445.701 292.7L403.901 347.7M443.801 278.4L388.101 345.9M386.401 345L391.801 338.6M454.401 312.3L432.801 342.1M431.901 346L432.401 357.4M464.301 322.7L441.301 351.5M460.201 349.2L469.501 333.9M463.801 331L452.601 343.6M460.401 319L452.801 328.3M450.501 305.4C450.501 305.4 427.201 339.5 427.601 342.4M448.101 301C447.501 301.3 428.001 327.2 428.001 327.2M426.901 335.4L423.301 339.7M418.801 346.2L413.401 353.3" stroke="black"/>
<path d="M420.201 213.8C420.201 213.8 418.601 218.8 420.201 221.3C421.801 223.8 431.701 243.8 431.701 243.8C431.701 243.8 438.501 235.5 441.001 235.3C443.401 235 442.301 256.9 442.301 256.9C442.301 256.9 438.301 260.7 435.801 260.5C433.301 260.3 441.801 269.1 441.601 276.5C441.401 283.9 430.401 321 426.301 321.6C422.301 322.3 428.101 314.9 427.901 312.8C427.601 310.8 426.501 312.2 425.601 309.9C424.701 307.6 427.001 304.3 426.601 302C426.101 299.8 424.001 300.2 423.801 298.6C423.601 297 425.201 296.6 424.901 294.8C424.601 293 422.201 293.4 422.501 291.8C422.701 290.3 422.901 291 422.701 288C422.501 285.1 422.001 290 419.501 290.3C417.001 290.6 415.001 296.2 415.001 296.2C415.001 296.2 410.001 303.2 405.101 300C408.101 306.3 405.801 309 404.601 309.2C403.601 309.5 405.601 314.2 402.801 314.4C400.001 314.6 404.801 325 401.801 325.9C405.101 327.5 402.401 329.5 402.401 329.5C402.401 329.5 394.601 330.2 396.301 340.4C373.301 332.2 362.001 318.3 362.301 304C362.601 289.7 367.001 277 378.001 272.3C381.201 260.5 386.601 247.9 386.601 247.9C386.601 247.9 385.701 242.7 386.401 239.3C387.138 236.805 388.438 234.513 390.201 232.6C390.201 232.6 389.801 224.4 390.001 220.4C390.201 216.4 391.801 214.5 392.001 212.3C392.201 210 391.301 198.5 393.601 196.5C395.901 194.5 400.101 194.7 402.401 193.3C404.601 192 407.601 189.5 410.501 189.7C413.501 189.9 415.901 192 415.901 192C415.901 192 426.901 192 427.601 196.2C428.301 200.4 425.401 202.2 425.401 202.2C425.401 202.2 427.001 208.2 420.201 213.8Z" fill="#8A9396" stroke="#2B2B2B"/>
<path d="M410.399 198.2C410.699 198.9 409.899 200 408.599 200.7C407.299 201.4 405.899 201.5 405.599 200.9C405.332 200.1 405.899 199.267 407.299 198.4C408.699 197.6 409.999 197.6 410.299 198.2H410.399Z" fill="#CECFCF" stroke="#2B2B2B"/>
<path d="M408.501 199.4C408.434 199.867 408.167 200.1 407.701 200.1C407.234 200.1 406.934 199.867 406.801 199.4C406.801 198.867 407.101 198.6 407.701 198.6C408.167 198.6 408.434 198.867 408.501 199.4Z" fill="black"/>
<path d="M425 206.8C425 206.8 427.7 219 424.5 227.5M425.9 201.5C425.9 201.5 431.2 208.5 430.5 217.3M426.4 200C426.5 200 430.9 203.7 430.7 206.3M427.4 198.4C427.4 198.4 430.4 200.4 431 202.5" stroke="#2B2B2B" stroke-width="0.5"/>
<path d="M426 197.2C426 197.2 415.5 214.2 416.9 224.9" stroke="black"/>
<path d="M426.699 196.6C426.699 196.6 412.699 204.9 410.199 232" stroke="#2B2B2B" stroke-width="0.5"/>
<path d="M425.2 201.6L419.6 205.8" stroke="black"/>
<path d="M405 233.5C405 233.5 412.8 201.3 426.5 196.6" stroke="#2B2B2B" stroke-width="0.5"/>
<path d="M431.9 244.4C431.9 244.4 439.3 235.1 441 235.4C442.7 235.7 442.2 257 442.2 257C442.2 257 436.7 261.1 435.5 261C434.3 260.8 441.7 271 441.5 274.7C441.4 278.5 441.2 278.5 441.2 278.5C441.2 278.5 441.2 276.3 439.5 272.7C437.7 269 438.8 264.9 427.5 255.7C424.8 250.1 433.1 259.2 434.8 257.8C436.5 256.4 431.8 244.6 431.8 244.4H431.9Z" fill="#2B2B2B" stroke="#2B2B2B"/>
<path d="M418.7 192C418.7 192 415.6 192.8 415.2 194C414.7 195.4 412.9 196.6 411.9 196.2C410.9 195.8 409.1 194.2 409.1 194.2" stroke="#2B2B2B"/>
<path d="M400.999 202.9C400.999 202.9 396.299 207.5 398.599 208.1C400.899 208.7 403.299 204.4 403.299 204.4C403.299 204.4 403.299 211.7 405.299 210.5C407.299 209.4 412.999 205.3 412.999 205.3C412.999 205.3 414.999 205.1 415.499 205.3C415.899 205.4 420.799 209.7 424.099 208.1C422.199 212.9 420.099 213.5 420.099 213.5C420.099 213.5 416.699 217.9 412.299 216.9C407.899 215.9 406.799 214.1 406.799 214.1C406.799 214.1 403.099 214.3 401.999 212.6L400.399 210C400.399 210 398.399 212 397.699 211C397.199 210 397.699 204.3 400.999 202.9Z" fill="#2B2B2B" stroke="#2B2B2B" stroke-linejoin="round"/>
<path d="M427.499 196.4C427.499 196.4 418.899 193.8 415.899 198.1C412.899 202.4 413.599 204.7 415.199 205.1" stroke="#2B2B2B"/>
<path d="M428.8 196.1C428.8 197.1 428.1 198 427.2 198C426.3 198 425.6 197.1 425.6 196.1C425.666 194.966 426.2 194.366 427.2 194.3C428.2 194.433 428.733 195.033 428.8 196.1Z" fill="black"/>
<path d="M403.701 218.2C403.701 218.2 407.201 223.6 411.401 225.1C415.601 226.6 408.401 227.8 404.301 225.1C401.301 220.9 402.101 217.9 402.101 217.9C402.101 217.9 402.901 217.1 403.701 218.2ZM433.801 250.1C433.801 250.1 423.901 236.4 421.101 235.6C418.201 234.9 423.301 234.3 426.301 237.2C429.301 240.1 425.501 232.5 425.501 232.5L433.801 250.1Z" fill="#2B2B2B" stroke="#2B2B2B"/>
<path d="M402.701 329.6C406.501 328.6 423.101 339.1 426.701 341.7C430.501 344.4 438.301 342.7 438.301 342.7C438.301 342.7 434.701 344.9 432.501 345.4C430.201 345.9 439.101 345.9 439.101 345.9C439.101 345.9 418.001 351.8 396.501 340.5C394.501 331.7 401.101 329.7 402.701 329.6Z" fill="#2B2B2B" stroke="#2B2B2B" stroke-linejoin="round"/>
<path d="M427.001 253.5C427.001 253.5 424.101 253 422.701 251.4C421.301 249.8 419.301 245.7 417.201 244C415.101 242.4 404.601 236.6 400.801 237C397.001 237.4 395.801 236.6 395.301 236.1C394.801 235.6 393.301 236.3 393.601 238.3C393.901 240.3 390.601 244.6 391.801 246.6C393.986 250.396 396.567 253.949 399.501 257.2C400.501 257.5 399.901 262 399.901 262C399.901 262 404.701 266.9 405.901 267.1C407.101 267.4 408.401 268.3 408.201 269.5C408.101 270.6 402.901 276.9 402.901 276.9C402.901 276.9 397.401 279.9 397.301 281.4C397.301 283.1 398.701 286.4 403.101 287.5C408.696 288.397 414.416 288.125 419.901 286.7C420.501 285.7 421.501 279.7 421.101 279C420.701 278.4 417.801 276.6 416.301 276.8C414.801 277.1 413.401 278.3 413.601 278.6C413.801 278.9 411.501 280 411.501 278.9C411.501 277.8 415.901 272.9 416.301 273.4C416.701 273.9 422.901 274.4 424.101 277.5C425.201 280.6 425.201 282.9 428.501 282.5C431.701 282.2 436.301 279.2 436.701 273C436.855 270.924 436.509 268.842 435.691 266.927C434.873 265.013 433.608 263.323 432.001 262C431.001 261.3 427.601 259.3 427.301 258.3C427.001 257.3 426.301 254.3 426.901 253.5H427.001Z" fill="#2B2B2B" stroke="#2B2B2B"/>
<path d="M368.3 281C368.3 281 378.8 278.3 381.5 278.4C384.2 278.4 394.5 283.2 397.5 286.1C400.5 289 406.5 295.9 410.5 295.3C414.5 294.7 415.7 293.9 415.7 293.9L414.1 296.9C414.1 296.9 410.9 297.8 409.2 297.4C407.6 297 404.4 295.9 401.2 292.8C398.1 289.8 388.2 281.3 379.9 281.9C371.6 282.5 366.8 290.7 366.8 290.7C366.8 290.7 366.8 286.7 367.2 285.8C367.5 285 365.4 287.8 365.4 287.8L368.3 281Z" fill="#2B2B2B" stroke="#2B2B2B"/>
<path d="M407 289.2C407 289.2 409.6 289.9 414 289.9C418.3 289.9 420.6 288 420.6 288L420.3 286.3L421 284C421 284 424.3 287.3 424.3 288C424.3 288.7 422.9 289 422.9 289L422.4 287.3L421.3 288.8C421.3 288.8 415 293.8 411.5 293C408.1 292.3 404.9 290 405.8 289.5C406.7 289 407.1 289.2 407 289.2ZM391.7 298C391.7 298 387.9 298 386.2 298.8C384.5 299.6 383.9 300.6 382.7 300.5C381.6 300.3 380.7 298.9 381 298.3C381.5 297.3 383.8 296.1 388 296.4C392.2 296.7 391.7 298 391.7 298ZM405 308.3C405 308.1 404.7 302.8 402.6 300.6C401.891 299.793 400.98 299.192 399.959 298.857C398.939 298.523 397.848 298.469 396.8 298.7C395.6 299 401 301.4 401.6 302.9C402.1 304.5 403.9 308.9 403.4 309.9C402.9 310.9 402.1 306.9 398.7 305.7C395.4 304.5 390.8 305.2 391.7 306.7C392.7 308.1 396.4 306.7 398.3 310C399.53 312.098 400.633 314.268 401.6 316.5L402.3 314.2L403.9 313.8L404.2 309.4L405 308.3Z" fill="#2B2B2B" stroke="#2B2B2B"/>
<path d="M402.299 325.7L398.799 318.7C398.799 318.7 397.799 314.4 394.799 313.2C391.799 312 387.999 312.2 387.999 313.6C387.899 315.1 394.199 317 394.599 317.8C394.999 318.6 394.799 320 394.299 320.1C393.799 320.2 390.899 319.1 389.499 319.4C388.099 319.7 387.299 321.6 385.199 321C383.099 320.5 381.299 313.8 382.199 313C382.899 312.4 380.599 314.3 380.099 312.5C379.599 310.8 380.799 305.3 379.999 304.6C379.199 303.9 375.199 301.6 375.199 301.1C375.099 300.6 375.399 274.1 397.499 296.1C387.999 284.8 384.299 286.1 382.499 286C381.299 286 372.599 286.7 370.499 297.7C368.299 308.7 365.699 301.8 365.699 301.8C365.699 301.8 365.299 306.6 367.599 307.9C369.899 309.3 366.499 313.2 366.499 313.2C366.499 313.2 362.299 303.2 362.999 298.7C362.099 302.2 362.199 311 367.399 320.5C374.827 328.929 384.149 335.475 394.599 339.6C402.599 327.3 402.299 325.8 402.299 325.6V325.7Z" fill="#2B2B2B" stroke="#2B2B2B" stroke-linejoin="round"/>
<path d="M387.801 325.8C387.801 325.8 392.201 326.3 393.401 328.6C394.701 330.9 395.201 334.4 395.201 334.4C396.001 332.9 396.201 331.7 397.801 330.6C399.301 329.5 400.401 329.3 400.301 328.6C400.301 327.7 395.501 322.8 393.201 322.5C390.801 322.2 386.701 325.1 386.701 325.1C386.701 325.1 385.901 326.1 387.701 325.8H387.801Z" fill="#8A9396" stroke="#2B2B2B" stroke-linejoin="round"/>
<path d="M398 337.4C398 337.4 409.6 342.7 428.6 343" stroke="#8A9396" stroke-linecap="round"/>
<path d="M436.699 283.6C436.699 283.6 435.699 293.3 428.199 312.6" stroke="#2B2B2B" stroke-linecap="round"/>
<path d="M435.199 289.6C435.199 289.6 432.899 296.6 426.699 301.8" stroke="#2B2B2B"/>
<path d="M401.301 410.3L403.301 408.1L403.901 408.6L403.801 408.8L403.601 409.1V409.3L403.801 409.5L406.401 411.8L406.601 412H406.801L406.901 411.8C407.167 411.534 407.334 411.267 407.401 411C407.534 410.734 407.567 410.467 407.501 410.2C407.501 409.867 407.367 409.534 407.101 409.2L407.901 408.8L409.101 410.8L405.901 414.4L405.301 413.9L405.501 413.6L405.601 413.4V413.2L405.401 413L402.801 410.7L402.501 410.5H402.401L402.101 410.7L401.901 410.9L401.301 410.3ZM405.701 405.4L409.401 401.8L411.201 402.7L410.901 403.4L409.901 403.2L409.301 403.4C409.101 403.467 408.901 403.634 408.701 403.9L408.001 404.5L409.001 405.6L409.301 405.4C409.501 405.267 409.601 405.134 409.601 405V404.8L409.401 404.5L409.201 404.3L409.801 403.7L411.601 405.6L411.001 406.1L410.801 406L410.501 405.7H410.301L409.901 406L409.701 406.2L410.701 407.2L410.901 407.4H411.001L411.201 407.2L411.601 406.9L412.201 406.1C412.334 405.834 412.367 405.5 412.301 405.1C412.301 404.834 412.201 404.534 412.001 404.2L412.801 403.8L413.801 406.1L410.001 409.8L409.401 409.2H409.601L409.801 408.8V408.6L409.601 408.3L407.201 405.9L406.901 405.7H406.701L406.501 405.8L406.301 406L405.701 405.4ZM413.401 398C414.201 397.334 415.001 397.034 415.801 397.1C416.667 397.167 417.401 397.567 418.001 398.3C418.401 398.767 418.667 399.267 418.801 399.8C418.934 400.334 418.901 400.867 418.701 401.4C418.501 401.934 418.134 402.434 417.601 402.9C416.934 403.5 416.201 403.8 415.401 403.8C414.467 403.8 413.667 403.4 413.001 402.6C412.334 401.934 412.067 401.167 412.201 400.3C412.334 399.434 412.734 398.667 413.401 398ZM414.101 398.7C413.767 399.034 413.601 399.434 413.601 399.9C413.601 400.434 413.834 400.967 414.301 401.5C414.767 402.034 415.267 402.367 415.801 402.5C416.201 402.5 416.567 402.367 416.901 402.1C417.234 401.834 417.434 401.5 417.501 401.1C417.501 400.5 417.234 399.934 416.701 399.4C416.434 399.067 416.101 398.8 415.701 398.6C415.434 398.467 415.134 398.4 414.801 398.4C414.467 398.4 414.234 398.5 414.101 398.7ZM420.201 392.5L420.701 392.2L420.801 392.3L423.701 390.3V390.1L424.101 389.8L426.001 391.1L425.501 391.8L424.801 391.5C424.534 391.367 424.267 391.334 424.001 391.4L423.601 391.5L423.501 391.6V391.8L425.601 394.8L425.801 395.1H426.101L426.601 394.8L427.001 395.5L424.601 397.3L424.101 396.6L424.201 396.5L424.501 396.2V396L424.401 395.7L422.301 392.7L422.101 392.5L422.001 392.6C421.867 392.667 421.767 392.8 421.701 393C421.567 393.2 421.501 393.434 421.501 393.7L421.601 394.5L420.801 394.7L420.201 392.5ZM425.801 389L430.201 386.2L431.901 387.5L431.301 388.2L430.501 387.8H429.801C429.601 387.8 429.367 387.9 429.101 388.1L428.301 388.6L429.101 389.9L429.301 389.7L429.701 389.5V389.2L429.601 388.8L429.501 388.6L430.201 388.2L431.501 390.5L430.801 390.9L430.701 390.6L430.401 390.3H430.201L429.801 390.5L429.501 390.6L430.301 391.9L430.401 392.1H430.501L430.801 392L431.201 391.7L432.001 391.1L432.301 390.2V389.2L433.101 389L433.601 391.4L429.001 394.2L428.601 393.5L428.701 393.4L429.001 393.1C429.067 393.1 429.067 393.034 429.001 392.9V392.6L427.201 389.7L426.901 389.4H426.801L426.501 389.5L426.301 389.6L425.801 389ZM432.001 385.2L435.501 383.4L436.201 383.1C436.467 382.967 436.767 382.934 437.101 383C437.367 383 437.601 383.067 437.801 383.2L438.301 383.8C438.567 384.267 438.601 384.7 438.401 385.1C438.267 385.5 438.001 385.834 437.601 386.1L439.401 386.9H439.501L439.801 387H440.101L440.301 386.9L440.601 386.8L440.901 387.5L439.201 388.5L436.201 387L435.701 387.2L436.301 388.3L436.501 388.7H437.001L437.201 388.5L437.601 389.3L434.901 390.7L434.501 389.9L434.801 389.8L435.001 389.6L435.101 389.4L435.001 389.1L433.401 386L433.201 385.8C433.201 385.734 433.134 385.734 433.001 385.8H432.701L432.501 385.9L432.101 385.2H432.001ZM434.601 385L435.301 386.4L436.101 386C436.434 385.867 436.667 385.7 436.801 385.5L437.001 385.1V384.6L436.601 384.3H436.201L435.501 384.5L434.601 385ZM439.001 381.6L442.601 380L443.301 379.8H444.201C444.467 379.8 444.701 379.867 444.901 380L445.401 380.7C445.601 381.1 445.601 381.5 445.401 381.9C445.201 382.3 444.901 382.634 444.501 382.9L446.301 383.8L446.701 383.9H447.201L447.401 383.7L447.801 384.5L446.001 385.3L443.001 383.7L442.601 383.9L443.101 385L443.301 385.4H443.701L444.001 385.3L444.301 386L441.601 387.3L441.201 386.5L441.501 386.4L441.701 386.2L441.801 386L441.701 385.7L440.301 382.5C440.301 382.367 440.234 382.267 440.101 382.2H439.601L439.401 382.4L439.101 381.6H439.001ZM441.601 381.6L442.201 383.1L443.101 382.7L443.801 382.3C443.934 382.167 444.001 382 444.001 381.8V381.4L443.701 381H443.201L442.501 381.2L441.501 381.6H441.601ZM448.401 377.7L449.701 377.2L453.101 381.1L453.501 381.4H454.001L454.201 382.2L451.501 383.2L451.201 382.4L451.401 382.3C451.534 382.3 451.634 382.234 451.701 382.1V381.9L451.501 381.7L451.101 381.2L449.401 381.8V382.8L449.701 382.9L450.101 382.8L450.401 383.6L448.101 384.4L447.801 383.6C447.934 383.6 448.034 383.534 448.101 383.4L448.201 383.3V382.9L448.401 377.7ZM449.401 380.9L450.501 380.5L449.401 379.1V380.9ZM453.201 376L455.901 375.2L458.001 378.5V374.5L460.801 373.8L461.001 374.6L460.701 374.7C460.567 374.7 460.467 374.767 460.401 374.9V375.3L461.401 378.7L461.501 378.9L461.701 379H462.301L462.501 379.7L459.601 380.6L459.401 379.7H459.601C459.801 379.7 459.901 379.634 459.901 379.5L460.001 379.4V379.1L459.001 375.4L458.901 380.8L458.101 381L455.301 376.6L456.301 380.3L456.401 380.4L456.601 380.5H456.901L457.201 380.4L457.401 381.2L455.001 381.9L454.701 381.1H455.001L455.301 380.9V380.4L454.301 377.1V376.8L454.101 376.7H453.501L453.201 376ZM465.601 372.7L468.801 372.1H469.801C470.134 372.1 470.401 372.167 470.601 372.3C470.801 372.434 471.001 372.6 471.201 372.8L471.501 373.5C471.567 374.034 471.434 374.5 471.101 374.9C470.767 375.367 470.267 375.667 469.601 375.8L468.601 376L468.801 377.1V377.4H469.601L469.701 378.2L466.701 378.8V378H466.801L467.201 377.8V377.3L466.601 374V373.6L466.401 373.5H465.801L465.601 372.7ZM468.001 373.3L468.401 375H468.901L469.601 374.7L469.901 374.3V373.8C469.901 373.534 469.767 373.334 469.501 373.2C469.301 373.134 469.034 373.134 468.701 373.2L468.001 373.3ZM472.201 371.5L476.001 371H476.801L477.601 371.2C477.867 371.334 478.067 371.5 478.201 371.7C478.401 371.9 478.501 372.134 478.501 372.4C478.567 372.867 478.467 373.267 478.201 373.6C477.934 373.934 477.567 374.2 477.101 374.4L478.501 375.7L478.801 375.9L479.001 376H479.601V376.8L477.701 377.1L475.401 374.7H474.901L475.101 375.9V376.3L475.301 376.5H475.901V377.3L472.901 377.7V376.8H473.101L473.401 376.7L473.601 376.5V376.2L473.101 372.7V372.4H472.301L472.201 371.5ZM474.601 372.2L474.801 373.8H475.801L476.501 373.5L476.901 373.2V372.7L476.801 372.3L476.401 372.1H475.601L474.601 372.2ZM483.401 370.3C484.334 370.234 485.134 370.467 485.801 371C486.467 371.6 486.801 372.367 486.801 373.3C486.801 373.967 486.701 374.534 486.501 375C486.234 375.467 485.901 375.867 485.501 376.2C484.967 376.467 484.367 376.634 483.701 376.7C482.767 376.7 482.001 376.5 481.401 376.1C480.667 375.5 480.267 374.7 480.201 373.7C480.201 372.767 480.467 371.967 481.001 371.3C481.534 370.634 482.334 370.3 483.401 370.3ZM483.401 371.3C482.934 371.3 482.601 371.5 482.401 371.9C482.001 372.3 481.834 372.867 481.901 373.6C481.901 374.267 482.101 374.8 482.501 375.2C482.767 375.534 483.134 375.7 483.601 375.7C484.067 375.7 484.434 375.5 484.701 375.1C485.034 374.7 485.167 374.134 485.101 373.4C485.101 372.934 485.001 372.534 484.801 372.2C484.601 371.867 484.401 371.634 484.201 371.5C483.934 371.3 483.667 371.234 483.401 371.3ZM488.001 370.2H491.401L492.401 370.3L493.101 370.7L493.501 371.3L493.701 372.1C493.701 372.634 493.501 373.067 493.101 373.4C492.701 373.734 492.134 373.9 491.401 373.9H490.401V375.4L490.801 375.5H491.101V376.4H488.101V375.5H488.601L488.701 375.4V375L488.801 371.6V371.2L488.701 371.1H488.101L488.001 370.2ZM490.301 371.2V373H490.901L491.601 372.9L491.901 372.6C492.034 372.467 492.101 372.3 492.101 372.1C492.101 371.767 492.001 371.534 491.801 371.4C491.601 371.267 491.334 371.2 491.001 371.2H490.301ZM494.801 370.2L498.601 370.5L499.401 370.6L500.201 371C500.401 371.134 500.567 371.334 500.701 371.6L500.801 372.4C500.801 372.867 500.601 373.2 500.201 373.4C499.867 373.734 499.467 373.934 499.001 374L500.201 375.5V375.6L500.401 375.9H500.601L500.901 376H501.201V376.9L499.201 376.8L497.301 374H496.801V375.6H497.401V376.6L494.401 376.3V375.5H495.001L495.201 375.3V375L495.401 371.5V371.2L495.101 371H494.701L494.801 370.2ZM497.001 371.4L496.901 373H497.801C498.134 373.067 498.401 373.067 498.601 373C498.801 373 498.934 372.934 499.001 372.8C499.067 372.667 499.134 372.5 499.201 372.3V371.9L498.801 371.6L498.001 371.5H497.001V371.4ZM502.401 370.8L505.401 371.2V372.1H505.101C504.901 372.034 504.767 372.034 504.701 372.1L504.501 372.5L504.101 375.9V376.3H504.201L504.501 376.5H504.801L504.701 377.4L501.701 377L501.801 376.1H502.001C502.201 376.167 502.334 376.167 502.401 376.1H502.501L502.601 375.8L503.001 372.3V371.8H502.601L502.301 371.7L502.401 370.8ZM508.901 371.7L510.301 372L511.301 377C511.301 377.267 511.367 377.434 511.501 377.5L511.901 377.7L511.701 378.5L508.801 378L509.001 377.2H509.501L509.601 377.1V376.1L507.601 375.8L507.301 376.4V376.6C507.234 376.667 507.234 376.734 507.301 376.8H507.401L507.801 377L507.701 377.8L505.301 377.4L505.401 376.6H505.801L506.001 376.5L506.201 376.2L508.901 371.7ZM508.101 375L509.401 375.2L509.101 373.4L508.101 375ZM514.001 372.6L516.701 373.3L516.901 377.3L518.901 373.9L521.601 374.6L521.401 375.4H521.101C520.967 375.267 520.867 375.267 520.801 375.4C520.667 375.4 520.601 375.5 520.601 375.7L519.701 379.1V379.5L520.001 379.6L520.301 379.7L520.101 380.6L517.201 379.8L517.401 379H517.701L518.001 379.1H518.201V378.7L519.201 375L516.501 379.7L515.701 379.4L515.401 374.3L514.501 377.9V378.1L514.601 378.3H514.901L515.201 378.4L515.001 379.3L512.501 378.7L512.701 377.8H513.001L513.301 377.9H513.401L513.601 377.5L514.401 374.1V373.7L514.101 373.6L513.801 373.5L514.001 372.6ZM526.501 376.1L529.501 377.2L530.501 377.7L531.001 378.3L531.201 379L531.101 379.8C530.901 380.267 530.567 380.6 530.101 380.8C529.567 381 528.967 381 528.301 380.8L527.301 380.4L526.901 381.4V381.9L527.201 382.1H527.501L527.201 383L524.301 382L524.601 381.1H524.801L525.201 381.3H525.301L525.501 380.9L526.701 377.7V377.2L526.401 377H526.201L526.501 376.1ZM528.201 377.8L527.601 379.5L528.101 379.7L528.801 379.8L529.301 379.7L529.601 379.2C529.667 378.934 529.634 378.7 529.501 378.5C529.367 378.3 529.167 378.167 528.901 378.1L528.201 377.8ZM532.801 378.4L536.301 380L537.001 380.4C537.267 380.534 537.467 380.734 537.601 381L537.901 381.7L537.701 382.5C537.501 382.967 537.201 383.267 536.801 383.4H535.501L536.001 385.3L536.201 385.6L536.301 385.8L536.601 386H536.801L536.501 386.9L534.701 386.1L533.901 382.8L533.401 382.6L532.901 383.7V384.3L533.101 384.4L533.401 384.6L533.001 385.3L530.301 384.1L530.601 383.3L530.901 383.4L531.201 383.5H531.401L531.501 383.2L532.901 380L533.001 379.7V379.5L532.801 379.4H532.601L532.401 379.3L532.801 378.4ZM534.501 380.3L533.801 381.8L534.701 382.1C534.967 382.3 535.201 382.4 535.401 382.4L535.901 382.3C536.034 382.234 536.134 382.1 536.201 381.9C536.267 381.767 536.267 381.634 536.201 381.5L536.101 381.1L535.401 380.7L534.401 380.3H534.501ZM543.001 383.2C543.867 383.667 544.434 384.3 544.701 385.1C544.967 385.9 544.867 386.734 544.401 387.6C544.134 388.134 543.767 388.534 543.301 388.8C542.834 389.134 542.301 389.3 541.701 389.3C541.167 389.3 540.601 389.134 540.001 388.8C539.201 388.4 538.634 387.834 538.301 387.1C537.967 386.234 538.067 385.367 538.601 384.5C539.001 383.634 539.634 383.067 540.501 382.8C541.367 382.534 542.201 382.667 543.001 383.2ZM542.601 384.1C542.201 383.834 541.767 383.8 541.301 384C540.834 384.2 540.434 384.634 540.101 385.3C539.767 385.9 539.634 386.467 539.701 387C539.767 387.4 540.034 387.734 540.501 388C540.901 388.2 541.301 388.2 541.701 388C542.101 387.8 542.501 387.4 542.901 386.8C543.167 386.334 543.301 385.934 543.301 385.6C543.301 385.267 543.234 384.934 543.101 384.6L542.601 384.1ZM547.601 385.6L548.101 385.9V386.1L551.101 388L551.201 387.9L551.701 388.2L551.201 390.4L550.401 390.2V389.4C550.401 389.134 550.334 388.9 550.201 388.7L549.901 388.3H549.701L549.601 388.5L547.701 391.5L547.501 391.9V392L547.601 392.1L548.001 392.4L547.601 393.1L545.001 391.5L545.501 390.8L545.601 390.9L546.001 391.1H546.101L546.401 390.7L548.401 387.7V387.4H548.301C548.167 387.267 547.967 387.2 547.701 387.2L547.101 387.3L546.401 387.7L545.801 387.1L547.601 385.6ZM553.201 389.4L557.401 392.4L556.801 394.4L556.001 394.2V393.2L555.801 392.6C555.667 392.4 555.467 392.234 555.201 392.1L554.501 391.5L553.501 392.8L553.801 393L554.201 393.2H554.501L554.701 392.8L554.901 392.6L555.501 393.1L554.001 395.2L553.401 394.8L553.501 394.6L553.701 394.2V394L553.301 393.6L553.001 393.5L552.201 394.6L552.101 394.9L552.301 395.2L552.701 395.5L553.701 395.9C553.967 395.967 554.234 395.967 554.501 395.9C554.767 395.834 555.101 395.667 555.501 395.4L555.901 396.1L553.901 397.5L549.601 394.5L550.101 393.7L550.201 393.8L550.601 394H550.801L551.001 393.7L553.001 390.9L553.201 390.6V390.5L552.901 390.2L552.701 390.1L553.201 389.4ZM560.101 398.2L562.401 400.2L561.901 400.8L561.701 400.7L561.501 400.5H561.301L561.001 400.8L559.801 402.3L559.101 401.7L559.201 401.2L558.201 401L557.501 400.5C557.034 400.1 556.701 399.667 556.501 399.2C556.367 398.667 556.367 398.134 556.501 397.6C556.501 397.067 556.701 396.534 557.101 396C557.501 395.534 557.967 395.2 558.501 395C559.034 394.8 559.567 394.767 560.101 394.9C560.634 395.034 561.134 395.234 561.601 395.5L562.101 396.1L562.501 396.8L562.801 396.7L563.301 397.1L562.401 399.1L561.601 398.7V397.6L561.501 396.9L561.101 396.4L560.301 396.1L559.401 396.3C559.134 396.434 558.834 396.7 558.501 397.1L557.901 398.1V399.2C557.967 399.467 558.134 399.7 558.401 399.9L558.901 400.2H559.401L559.801 400L559.901 399.8L560.101 399.5V399.4L559.801 399.1L559.601 398.9L560.101 398.2ZM566.801 400.2L567.801 401.2L565.901 406C565.767 406.2 565.734 406.367 565.801 406.5L566.001 406.8L565.401 407.5L563.401 405.5L563.901 404.8L564.001 405L564.301 405.1H564.501L564.701 404.8L564.901 404.3L563.501 403L562.901 403.3L562.701 403.4V403.7L563.001 404L562.401 404.6L560.701 403L561.301 402.4L561.501 402.6H561.701L562.101 402.5L566.801 400.2ZM564.401 402.5L565.301 403.4L566.001 401.7L564.401 402.5ZM570.901 403.9L571.301 404.3L571.201 404.5L573.601 407H573.801L574.201 407.3L573.201 409.3L572.401 409L572.601 408.2V407.5C572.601 407.3 572.534 407.134 572.401 407H572.201L572.001 407.1L569.501 409.6L569.201 409.9V410.1L569.501 410.5L568.901 411.1L566.901 408.9L567.501 408.3V408.5L567.901 408.7H568.101L568.401 408.5L571.001 406L571.101 405.8V405.7L570.601 405.4H569.901L569.101 405.6L568.801 404.8L570.801 403.8L570.901 403.9Z" fill="black"/>
<path d="M0 0H320V240H0V0Z" fill="#012169"/>
<path d="M37.5 0L159.5 90.5L281 0H320V31L200 120.5L320 209.5V240H280L160 150.5L40.5 240H0V210L119.5 121L0 32V0H37.5Z" fill="white"/>
<path d="M212 140.5L320 220V240L184.5 140.5H212ZM120 150.5L123 168L27 240H0L120 150.5ZM320 0V1.5L195.5 95.5L196.5 73.5L295 0H320ZM0 0L119.5 88H89.5L0 21V0Z" fill="#C8102E"/>
<path d="M120.5 0V240H200.5V0H120.5ZM0 80V160H320V80H0Z" fill="white"/>
<path d="M0 96.5V144.5H320V96.5H0ZM136.5 0V240H184.5V0H136.5Z" fill="#C8102E"/>
</g>
<defs>
<linearGradient id="paint0_linear_3921_3980" x1="516.755" y1="149.405" x2="517.107" y2="126.449" gradientUnits="userSpaceOnUse">
<stop stop-color="#474747"/>
<stop offset="1" stop-color="#FF5500"/>
</linearGradient>
<linearGradient id="paint1_linear_3921_3980" x1="508.949" y1="235.575" x2="508.989" y2="248.544" gradientUnits="userSpaceOnUse">
<stop stop-color="#B50000"/>
<stop offset="1" stop-color="#FFC500"/>
</linearGradient>
<linearGradient id="paint2_linear_3921_3980" x1="565.885" y1="243.5" x2="587.068" y2="243.222" gradientUnits="userSpaceOnUse">
<stop stop-color="#D5DFFF"/>
<stop offset="1" stop-color="white"/>
</linearGradient>
<linearGradient id="paint3_linear_3921_3980" x1="512.719" y1="145.05" x2="520.348" y2="145.05" gradientUnits="userSpaceOnUse">
<stop stop-color="#474747"/>
<stop offset="1" stop-color="#FF5500"/>
</linearGradient>
<linearGradient id="paint4_linear_3921_3980" x1="623.094" y1="350.025" x2="619.382" y2="326.952" gradientUnits="userSpaceOnUse">
<stop stop-color="#D5DFFF"/>
<stop offset="1" stop-color="white"/>
</linearGradient>
<linearGradient id="paint5_linear_3921_3980" x1="571.019" y1="251.405" x2="561.552" y2="236.137" gradientUnits="userSpaceOnUse">
<stop stop-color="#D5DFFF"/>
<stop offset="1" stop-color="white"/>
</linearGradient>
<clipPath id="clip0_3921_3980">
<rect width="640" height="480" fill="white"/>
</clipPath>
</defs>
</svg>
