<svg width="640" height="480" viewBox="0 0 640 480" fill="none" xmlns="http://www.w3.org/2000/svg">
<g clip-path="url(#clip0_3921_4093)">
<path d="M0 0H640V480H0V0Z" fill="#4997D0"/>
<path d="M213.301 0H426.701V480H213.301V0Z" fill="white"/>
<path d="M297.402 303.966C299.592 303.635 300.809 302.974 302.27 302.478M304.136 299.09C305.213 300.19 306.044 301.515 306.57 302.974M299.998 298.76C301.029 299.739 301.857 300.919 302.432 302.23M262.271 189.344C261.46 190.666 259.837 191.575 258.377 192.154M258.134 191.989C258.025 190.777 258.025 189.565 258.134 188.353M256.592 192.485C256.592 192.815 256.916 193.641 257.079 194.137M258.783 194.964L257.16 195.212M253.915 194.468C253.915 196.617 254.158 199.096 254.32 200.996M252.86 200.17C253.238 200.886 253.671 201.41 254.158 201.74M250.426 207.112C250.859 207.773 251.21 208.875 251.481 210.417M254.483 206.533L252.86 207.773M254.239 211.409C253.428 212.125 252.481 212.704 251.399 213.145M248.316 246.531C249.14 248.028 250.243 249.347 251.562 250.415M252.049 251.82C251.191 251.712 250.364 251.431 249.615 250.994M253.184 258.018L254.564 258.844M254.239 261.654C255.213 262.426 256.213 263.5 257.241 264.877M256.105 267.191C257.241 267.467 258.106 267.742 258.701 268.017M257.89 270.083H259.513M260.567 265.704L260.162 269.174M260.973 270.497L261.298 269.174M265.111 274.133L265.03 276.777M296.834 299.834L295.86 301.156M293.913 297.933L293.345 296.446" stroke="#24420E" stroke-width="0.327532"/>
<path d="M324.988 310.164C324.31 309.187 323.385 308.416 322.31 307.933C316.063 304.627 309.816 303.057 302.839 301.9C301.135 301.652 299.512 300.082 297.808 299.256C293.752 297.355 289.289 296.611 285.395 294.545C285.152 294.463 284.178 293.884 283.772 293.306C282.15 291.488 279.31 290.909 277.606 289.174C270.791 282.728 263.651 276.778 259.919 268.1C255.376 257.605 249.778 246.779 250.508 234.879C250.995 227.276 249.94 219.673 251.725 212.566C254.483 201.823 257.891 191.328 264.219 182.485L263.165 183.146C257.16 192.243 252.919 202.425 250.67 213.145C248.804 220.334 249.859 228.02 249.453 235.458C248.642 247.44 254.321 258.266 258.783 268.762C262.515 277.356 269.736 283.389 276.47 289.917C278.255 291.57 281.014 292.149 282.636 294.049L284.259 295.289C288.235 297.272 292.697 298.016 296.754 299.999C298.376 300.826 299.999 302.313 301.622 302.644C308.443 303.513 315.077 305.524 321.256 308.594C322.33 309.077 323.255 309.848 323.933 310.825L324.988 310.082" fill="#406325"/>
<path d="M324.988 310.164C324.31 309.187 323.385 308.416 322.31 307.933C316.063 304.627 309.816 303.057 302.839 301.9C301.135 301.652 299.512 300.082 297.808 299.256C293.752 297.355 289.289 296.611 285.395 294.545C285.152 294.463 284.178 293.884 283.772 293.306C282.15 291.488 279.31 290.909 277.606 289.174C270.791 282.728 263.651 276.778 259.919 268.1C255.376 257.605 249.778 246.779 250.508 234.879C250.995 227.276 249.94 219.673 251.725 212.566C254.483 201.823 257.891 191.328 264.219 182.485L263.165 183.146C257.16 192.243 252.919 202.425 250.67 213.145C248.804 220.334 249.859 228.02 249.453 235.458C248.642 247.44 254.321 258.266 258.783 268.762C262.515 277.356 269.736 283.389 276.47 289.917C278.255 291.57 281.014 292.149 282.636 294.049L284.259 295.289C288.235 297.272 292.697 298.016 296.754 299.999C298.376 300.826 299.999 302.313 301.622 302.644C308.443 303.513 315.077 305.524 321.256 308.594C322.33 309.077 323.255 309.848 323.933 310.825L324.988 310.082" stroke="#24420E" stroke-width="0.163766"/>
<path d="M260.243 266.035C258.575 259.68 258.519 252.997 260.08 246.614C265.516 257.357 263.731 266.2 260.243 266.035ZM297.483 303.553C290.868 305.097 284.751 308.341 279.715 312.974C291.966 313.057 299.186 306.941 297.483 303.553ZM303.568 300C298.024 293.796 294.116 286.261 292.209 278.1C304.379 287.108 307.543 298.182 303.568 300Z" fill="#67923D" stroke="#24420E" stroke-width="0.163766"/>
<path d="M299.431 300.082C293.588 295.04 289.118 288.552 286.45 281.24C298.863 288.017 302.92 297.934 299.431 300.082ZM286.774 294.463C287.586 288.017 282.231 274.464 280.689 272.976C278.255 286.612 283.123 295.785 286.774 294.463ZM264.625 274.381C263.315 268.655 263.454 262.683 265.031 257.027C269.493 266.696 267.708 274.547 264.625 274.381ZM253.51 210.914C257.951 205.059 263.827 200.499 270.548 197.691C265.031 209.757 255.944 214.137 253.51 210.914Z" fill="#67923D" stroke="#24420E" stroke-width="0.163766"/>
<path d="M254.077 206.286C257.302 199.627 262.166 193.932 268.194 189.758C265.192 202.732 257.079 208.93 254.077 206.286ZM276.713 288.265C272.964 281.617 270.927 274.112 270.791 266.448C279.878 276.778 280.527 287.356 276.632 288.265H276.713ZM253.428 258.101C247.749 259.01 236.066 254.3 234.768 252.895C246.613 250.25 254.564 254.548 253.428 258.101ZM251.643 250.085C252.292 245.54 258.621 237.028 260 236.367C259.189 246.284 253.996 251.738 251.643 250.085ZM293.264 298.512C285.362 300.306 278.06 304.181 272.089 309.751C286.693 309.834 295.374 302.561 293.264 298.512Z" fill="#67923D" stroke="#24420E" stroke-width="0.163766"/>
<path d="M260.324 265.952C263.732 266.117 265.517 257.357 260.081 246.614C261.104 253.012 261.186 259.529 260.324 265.952ZM269.411 282.48C264.403 277.931 258.347 274.747 251.805 273.224C259.026 283.224 267.951 285.703 269.411 282.48ZM249.615 238.681C247.306 231.149 243.177 224.33 237.607 218.847C238.824 233.061 246.207 240.912 249.615 238.681ZM256.43 267.026C252.373 263.968 241.015 262.564 239.392 263.059C247.667 270.001 255.781 270.084 256.43 267.026ZM248.803 246.531C245.299 241.566 240.569 237.632 235.092 235.127C239.554 245.374 246.937 249.176 248.803 246.449V246.531ZM251.075 207.195C251.724 200.914 246.532 187.857 245.071 186.37C242.718 199.592 247.424 208.434 250.994 207.195H251.075ZM254.645 194.881C256.835 189.51 255.294 176.37 254.239 174.717C249.047 185.874 251.156 195.047 254.645 194.881Z" fill="#406325" stroke="#24420E" stroke-width="0.163766"/>
<path d="M258.702 188.518C260.947 183.499 261.923 177.988 261.542 172.486C255.7 180.502 255.863 188.105 258.702 188.518ZM263.57 183.477C267.166 179.395 269.679 174.446 270.872 169.098C263.002 174.882 260.974 182.155 263.57 183.477ZM250.508 219.177C250.589 219.921 249.697 212.401 242.395 204.054C242.719 216.285 247.425 220.913 250.508 219.177ZM276.957 290.083C270.504 286.652 263.302 284.946 256.025 285.124C266.248 293.719 276.227 293.884 276.957 290.083ZM286.774 294.463C283.042 295.702 278.255 286.612 280.608 272.976C281.661 280.388 283.709 287.618 286.693 294.463H286.774ZM297.565 303.553C299.188 306.941 292.048 313.057 279.878 312.974C289.614 308.842 297.078 304.793 297.565 303.636V303.553ZM303.488 299.917C307.463 298.016 304.38 287.108 292.129 278.1C299.107 289.008 303.893 298.429 303.488 299.917Z" fill="#406325" stroke="#24420E" stroke-width="0.163766"/>
<path d="M299.431 300C302.839 297.768 298.863 288.017 286.45 281.24C294.157 290.496 299.593 298.595 299.431 300ZM264.706 274.381C267.708 274.547 269.574 266.696 265.112 257.027C265.68 266.117 265.436 273.555 264.706 274.381ZM253.51 210.996C255.944 214.137 264.868 209.839 270.467 197.774C265.473 202.995 259.761 207.449 253.51 210.996Z" fill="#406325" stroke="#24420E" stroke-width="0.163766"/>
<path d="M254.239 206.286C257.16 208.93 265.192 202.732 268.194 189.758C261.704 199.096 255.538 206.121 254.239 206.286ZM276.713 288.182C280.527 287.273 279.959 276.778 270.791 266.448C274.847 277.604 277.281 286.942 276.713 288.182ZM253.266 258.101C254.402 254.548 246.532 250.333 234.768 252.895C244.747 254.713 252.617 257.027 253.266 258.101ZM251.724 250.168C254.077 251.655 259.107 246.284 260.081 236.367C257.955 241.349 255.141 245.996 251.724 250.168ZM293.264 298.595C295.293 302.727 286.774 309.916 272.17 309.834C283.691 304.958 292.697 300.082 293.264 298.595Z" fill="#406325" stroke="#24420E" stroke-width="0.163766"/>
<path d="M254.646 261.654C251.249 256.148 246.493 251.646 240.854 248.597C244.91 259.836 252.374 264.381 254.646 261.654Z" fill="#406325" stroke="#24420E" stroke-width="0.163766"/>
<path d="M248.966 218.434C252.211 214.55 263.164 210.831 264.868 210.996C258.377 219.673 250.264 221.409 248.966 218.434ZM269.33 282.48C267.87 285.785 259.026 283.306 251.724 273.307C257.124 277.22 263.055 280.31 269.33 282.48ZM249.533 238.68C246.126 240.912 238.905 233.061 237.607 218.847C242.962 229.838 248.154 238.267 249.533 238.68ZM256.349 267.026C255.781 270.084 247.667 270.001 239.473 263.142C244.885 265.26 250.569 266.568 256.349 267.026ZM248.641 246.449C246.775 249.093 239.554 245.374 235.092 235.127C241.745 241.738 247.667 246.449 248.722 246.449H248.641ZM250.913 207.112C247.343 208.434 242.718 199.674 244.99 186.452C247.181 197.608 249.858 206.451 250.913 207.112ZM254.564 194.799C251.075 195.046 248.966 185.873 254.158 174.717C253.509 185.295 253.752 193.972 254.564 194.799ZM258.62 188.518C255.862 188.022 255.618 180.502 261.541 172.486C259.784 177.651 258.8 183.055 258.62 188.518ZM263.488 183.477C260.973 182.072 262.92 174.882 270.79 169.18C267.675 173.551 265.214 178.369 263.488 183.477Z" fill="#67923D" stroke="#24420E" stroke-width="0.163766"/>
<path d="M250.507 219.177C247.343 220.913 242.719 216.285 242.394 204.054C246.559 213.751 249.263 218.792 250.507 219.177ZM276.876 290.082C276.145 293.884 266.247 293.719 256.025 285.207C266.734 288.76 275.74 290.744 276.876 290.082ZM270.223 282.232C267.16 277.484 265.319 272.027 264.868 266.365C272.17 273.554 273.144 281.323 270.385 282.232H270.223ZM256.592 261.572C253.672 256.779 253.347 244.3 254.158 242.564C260.892 252.399 260.081 261.324 256.592 261.572ZM254.402 261.654C252.211 264.381 244.747 259.919 240.771 248.597C244.646 253.622 249.241 258.024 254.402 261.654Z" fill="#67923D" stroke="#24420E" stroke-width="0.163766"/>
<path d="M248.967 218.434C250.265 221.409 258.216 219.673 264.788 211.079C255.052 216.698 251.239 219.177 248.967 218.434ZM256.512 261.406C260.001 261.158 260.812 252.316 254.078 242.564C255.87 248.701 256.692 255.089 256.512 261.489V261.406ZM270.305 282.232C273.063 281.405 272.09 273.554 264.869 266.365C268.439 274.381 270.71 281.24 270.305 282.232Z" fill="#406325" stroke="#24420E" stroke-width="0.163766"/>
<path d="M250.427 233.144C252.05 226.202 249.048 214.467 246.938 211.988C243.125 224.714 246.776 233.97 250.427 233.144Z" fill="#406325" stroke="#24420E" stroke-width="0.163766"/>
<path d="M250.264 234.796C245.396 235.871 243.206 224.88 246.938 212.401C247.749 223.557 249.21 233.97 250.183 234.714L250.264 234.796Z" fill="#67923D" stroke="#24420E" stroke-width="0.163766"/>
<path d="M249.209 234.714C249.921 227.393 252.433 220.373 256.511 214.302C258.134 227.359 252.86 236.036 249.209 234.714Z" fill="#67923D" stroke="#24420E" stroke-width="0.163766"/>
<path d="M249.291 234.631C252.942 235.953 258.135 227.359 256.512 214.302C253.672 225.293 250.427 233.97 249.291 234.631Z" fill="#406325" stroke="#24420E" stroke-width="0.163766"/>
<path d="M250.346 242.647C251.469 235.461 254.436 228.705 258.946 223.062C259.595 236.449 253.834 244.465 250.346 242.647Z" fill="#67923D" stroke="#24420E" stroke-width="0.163766"/>
<path d="M250.426 242.73C253.833 244.548 259.594 236.615 258.945 223.31C255.375 233.887 251.643 242.234 250.426 242.73Z" fill="#406325" stroke="#24420E" stroke-width="0.163766"/>
<path d="M252.535 200.584C253.028 200.584 253.427 200.177 253.427 199.675C253.427 199.173 253.028 198.766 252.535 198.766C252.042 198.766 251.643 199.173 251.643 199.675C251.643 200.177 252.042 200.584 252.535 200.584Z" fill="#BA1F3E" stroke="#511124" stroke-width="0.163766"/>
<path d="M259.351 195.46C259.844 195.46 260.244 195.053 260.244 194.551C260.244 194.049 259.844 193.642 259.351 193.642C258.859 193.642 258.459 194.049 258.459 194.551C258.459 195.053 258.859 195.46 259.351 195.46Z" fill="#BA1F3E" stroke="#511124" stroke-width="0.163766"/>
<path d="M256.43 192.65C256.922 192.65 257.322 192.243 257.322 191.741C257.322 191.239 256.922 190.832 256.43 190.832C255.937 190.832 255.537 191.239 255.537 191.741C255.537 192.243 255.937 192.65 256.43 192.65Z" fill="#BA1F3E" stroke="#511124" stroke-width="0.163766"/>
<path d="M249.047 251.821C249.629 251.821 250.102 251.34 250.102 250.746C250.102 250.153 249.629 249.672 249.047 249.672C248.464 249.672 247.992 250.153 247.992 250.746C247.992 251.34 248.464 251.821 249.047 251.821Z" fill="#BA1F3E" stroke="#511124" stroke-width="0.163766"/>
<path d="M251.074 238.598C251.657 238.598 252.129 238.117 252.129 237.524C252.129 236.93 251.657 236.449 251.074 236.449C250.492 236.449 250.02 236.93 250.02 237.524C250.02 238.117 250.492 238.598 251.074 238.598Z" fill="#BA1F3E" stroke="#511124" stroke-width="0.163766"/>
<path d="M261.785 269.505C262.368 269.505 262.84 269.024 262.84 268.431C262.84 267.837 262.368 267.356 261.785 267.356C261.203 267.356 260.73 267.837 260.73 268.431C260.73 269.024 261.203 269.505 261.785 269.505Z" fill="#BA1F3E" stroke="#511124" stroke-width="0.163766"/>
<path d="M257.078 271.075C257.661 271.075 258.133 270.594 258.133 270.001C258.133 269.408 257.661 268.927 257.078 268.927C256.496 268.927 256.023 269.408 256.023 270.001C256.023 270.594 256.496 271.075 257.078 271.075Z" fill="#BA1F3E" stroke="#511124" stroke-width="0.163766"/>
<path d="M293.022 296.859C293.604 296.859 294.076 296.378 294.076 295.785C294.076 295.191 293.604 294.71 293.022 294.71C292.439 294.71 291.967 295.191 291.967 295.785C291.967 296.378 292.439 296.859 293.022 296.859Z" fill="#BA1F3E" stroke="#511124" stroke-width="0.163766"/>
<path d="M295.373 302.727C295.956 302.727 296.428 302.246 296.428 301.652C296.428 301.059 295.956 300.578 295.373 300.578C294.791 300.578 294.318 301.059 294.318 301.652C294.318 302.246 294.791 302.727 295.373 302.727Z" fill="#BA1F3E" stroke="#511124" stroke-width="0.163766"/>
<path d="M385.837 206.038C386.405 206.534 386.81 206.699 387.703 207.608M382.348 191.989C382.348 190.832 381.861 188.931 381.618 187.857M384.458 190.336C384.458 191.879 384.16 193.366 383.565 194.799M380.158 194.385C381.564 195.763 382.997 196.837 384.458 197.608M387.541 198.6C387.649 200.253 387.459 201.906 386.973 203.559M387.297 204.798L388.352 202.897M386.81 212.979C387.946 213.227 389.082 214.632 389.65 215.872M390.056 214.798L391.354 212.979M392.733 238.433L390.786 241.242M387.541 241.242C388.19 242.399 388.839 243.722 389.65 244.548M391.678 249.424C390.732 250.801 389.482 251.934 388.027 252.729M388.19 256.448C387.297 257.109 386.161 258.927 385.188 260.332M392.003 243.639L390.299 244.383M389.163 238.267L390.137 239.094M382.591 270.001H380.969M379.265 268.514L379.752 269.836M373.586 274.05C373.423 275.593 373.451 277.136 373.667 278.678M377.156 271.241L377.967 273.059M381.131 272.976L379.103 273.224M354.114 294.132L353.303 295.619M362.957 292.314C361.767 292.424 360.659 292.369 359.631 292.149M355.169 297.107L352.735 296.281M340.808 298.512C340.078 299.09 339.185 300.495 338.374 301.817M337.887 298.099C335.94 299.173 335.291 301.156 334.317 302.892M336.589 305.206C335.291 304.82 333.858 304.269 332.289 303.553M345.838 302.974C343.972 301.983 342.025 302.148 340.078 301.817M348.84 301.487C345.865 300.936 343.08 300.908 340.484 301.404M346.812 299.256L345.676 298.76M341.133 303.305L339.267 302.231M386.242 261.572C385.215 262.343 384.214 263.417 383.241 264.795M384.701 199.013L382.916 198.352" stroke="#24420E" stroke-width="0.327532"/>
<path d="M315.494 310.082C316.251 309.09 317.144 308.346 318.172 307.85C324.419 304.545 330.666 303.057 337.643 301.9C339.347 301.57 340.97 300 342.674 299.256C346.73 297.272 351.193 296.529 355.087 294.545C355.33 294.38 356.304 293.802 356.71 293.223C358.332 291.405 361.172 290.827 362.876 289.091C369.691 282.645 376.831 276.695 380.563 268.018C385.106 257.523 390.704 246.697 389.974 234.797C389.487 227.194 390.542 219.591 388.757 212.484C386.499 201.742 382.259 191.534 376.263 182.403L377.317 183.064C383.332 192.185 387.573 202.397 389.812 213.145C391.678 220.252 390.623 227.937 391.029 235.458C391.84 247.358 386.161 258.184 381.699 268.762C377.967 277.356 370.746 283.306 364.012 289.835C362.227 291.488 359.468 292.066 357.846 293.967L356.223 295.206C352.247 297.19 347.785 298.016 343.728 299.917C342.106 300.743 340.483 302.231 338.86 302.561C332.039 303.431 325.405 305.441 319.226 308.511C318.152 308.995 317.227 309.766 316.549 310.743L315.494 310.082Z" fill="#406325" stroke="#24420E" stroke-width="0.163766"/>
<path d="M379.751 268.513C382.023 262.398 379.751 248.019 378.615 246.201C373.179 258.927 375.857 269.009 379.751 268.513Z" fill="#406325" stroke="#24420E" stroke-width="0.163766"/>
<path d="M373.992 274.298C375.858 269.67 374.56 258.349 373.668 256.944C369.205 266.613 370.99 274.546 373.992 274.298ZM387.704 213.062C383.608 207.717 378.209 203.557 372.045 200.997C377.075 211.988 385.432 216.037 387.704 213.062Z" fill="#406325" stroke="#24420E" stroke-width="0.163766"/>
<path d="M386.405 206.451C383.732 200.884 379.676 196.127 374.641 192.65C377.156 203.393 383.89 208.599 386.405 206.451ZM390.218 218.764C387.379 215.459 377.886 212.236 376.426 212.401C382.105 219.838 389.082 221.409 390.218 218.764ZM387.946 257.109C393.751 257.068 399.439 255.441 404.416 252.399C393.95 250.085 386.973 253.969 387.946 257.109ZM387.784 252.399C387.784 247.771 382.673 238.515 381.294 237.523C380.888 247.44 385.269 253.638 387.784 252.399Z" fill="#406325" stroke="#24420E" stroke-width="0.163766"/>
<path d="M388.19 241.077C387.053 233.92 384.087 227.194 379.59 221.574C378.941 234.961 384.701 242.895 388.19 241.077ZM345.189 303.305C350.309 307.888 356.52 311.023 363.201 312.395C356.061 302.23 346.893 299.916 345.271 303.305H345.189Z" fill="#406325" stroke="#24420E" stroke-width="0.163766"/>
<path d="M379.752 268.348C375.776 268.844 373.18 258.927 378.616 246.201C378.21 257.936 378.778 267.439 379.752 268.348ZM336.427 304.379C343.037 305.981 349.147 309.249 354.195 313.883C341.944 313.966 334.723 307.85 336.345 304.462L336.427 304.379ZM336.427 297.851C338.049 291.24 348.597 280.331 350.625 279.587C347.704 293.719 339.51 300.66 336.427 297.851ZM353.708 294.462C353.913 286.89 356.007 279.496 359.793 272.976C362.227 286.529 357.359 295.702 353.708 294.462ZM371.152 282.397C376.136 277.86 382.164 274.677 388.676 273.141C381.455 283.141 372.612 285.62 371.07 282.397H371.152ZM392.003 238.35C392.814 233.144 399.873 223.557 401.414 222.731C400.441 233.97 394.68 240.085 392.003 238.433V238.35Z" fill="#67923D" stroke="#24420E" stroke-width="0.163766"/>
<path d="M382.51 269.836C388.636 266.671 395.439 265.109 402.306 265.291C392.733 273.307 383.24 273.39 382.51 269.836ZM390.866 249.589C394.543 244.405 399.496 240.301 405.227 237.689C400.521 248.432 392.814 252.399 390.866 249.589ZM389.649 211.905C389.649 205.625 396.14 193.146 397.763 191.907C398.655 205.212 393.138 213.558 389.649 211.905ZM384.051 190.502C382.651 185.088 382.623 179.401 383.97 173.974C388.432 182.981 386.972 190.502 383.97 190.502H384.051Z" fill="#67923D" stroke="#24420E" stroke-width="0.163766"/>
<path d="M380.562 188.683C376.311 183.4 373.412 177.125 372.125 170.42C381.698 178.105 383.808 187.278 380.562 188.683ZM390.055 217.194C389.812 217.938 392.489 210.831 401.576 204.55C398.331 216.368 392.651 219.673 390.055 217.194ZM362.389 291.488C369.711 287.665 377.853 285.762 386.08 285.951C374.559 295.702 363.2 295.867 362.389 291.488ZM373.991 274.298C370.989 274.464 369.123 266.613 373.585 256.944C373.017 266.034 373.26 273.472 373.991 274.298ZM387.702 213.062C385.512 216.037 377.155 212.07 372.125 200.997C376.68 205.807 381.934 209.876 387.702 213.062ZM386.323 206.451C383.808 208.6 377.155 203.476 374.64 192.65C380.076 200.418 385.187 206.286 386.323 206.451ZM390.217 218.847C389.081 221.409 382.185 219.921 376.506 212.484C384.944 217.359 388.27 219.425 390.298 218.847H390.217ZM388.108 257.027C387.053 253.886 394.031 250.168 404.497 252.481C398.839 253.139 393.312 254.671 388.108 257.027ZM387.783 252.399C385.187 253.638 380.887 247.523 381.293 237.606C382.747 242.855 384.932 247.865 387.783 252.481V252.399Z" fill="#67923D" stroke="#24420E" stroke-width="0.163766"/>
<path d="M388.109 241.242C384.62 243.06 378.941 235.127 379.59 221.822C383.16 232.4 386.892 240.746 388.109 241.242ZM345.352 303.305C346.974 299.834 355.98 302.148 363.201 312.23C354.276 306.693 346.569 302.892 345.352 303.305Z" fill="#67923D" stroke="#24420E" stroke-width="0.163766"/>
<path d="M353.709 294.297C357.441 295.62 362.228 286.529 359.875 272.894C357.603 284.463 354.845 293.636 353.709 294.38V294.297Z" fill="#406325" stroke="#24420E" stroke-width="0.163766"/>
<path d="M362.065 290C365.136 283.002 366.42 275.326 365.797 267.687C357.684 278.926 358.17 289.422 362.065 290ZM336.346 304.462C334.723 307.85 341.782 313.966 354.033 313.8C344.297 309.834 336.832 305.702 336.346 304.462ZM336.508 297.768C339.591 300.578 347.704 293.719 350.625 279.587C344.053 289.835 337.887 297.603 336.508 297.768ZM371.152 282.397C372.612 285.703 381.456 283.224 388.758 273.224C383.358 277.137 377.427 280.228 371.152 282.397ZM392.084 238.35C394.761 240.085 400.441 233.97 401.414 222.814C399.072 228.432 395.928 233.667 392.084 238.35ZM382.51 269.836C383.322 273.472 392.652 273.307 402.307 265.291C392.165 268.596 383.646 270.414 382.591 269.836H382.51ZM390.948 249.506C392.976 252.316 400.603 248.349 405.309 237.606C401.146 242.296 396.303 246.309 390.948 249.506ZM389.812 211.823C393.22 213.475 398.737 205.211 397.763 191.989C394.518 202.732 390.948 211.244 389.731 211.823H389.812ZM384.133 190.419C386.973 190.501 388.514 182.981 383.971 173.891C384.782 182.568 384.782 189.675 384.133 190.419ZM380.644 188.601C383.89 187.196 381.78 178.105 372.206 170.42C375.891 176.019 378.735 182.147 380.644 188.601ZM390.056 217.277C392.652 219.756 398.331 216.45 401.577 204.55C395.194 212.869 391.354 217.112 390.056 217.277ZM362.47 291.57C363.282 295.867 374.559 295.702 385.999 286.033C373.91 290 363.769 292.314 362.47 291.57Z" fill="#406325" stroke="#24420E" stroke-width="0.163766"/>
<path d="M367.987 285.207C370.32 280.009 371.325 274.295 370.908 268.596C364.823 276.86 365.066 284.711 367.987 285.124V285.207ZM383.889 261.489C386.81 256.779 387.135 244.217 386.323 242.482C379.589 252.316 380.4 261.241 383.889 261.489Z" fill="#406325" stroke="#24420E" stroke-width="0.163766"/>
<path d="M362.064 289.918C358.17 289.422 357.764 278.926 365.715 267.77C362.795 279.174 361.334 288.761 362.064 289.918ZM390.623 233.474C389.812 227.029 393.869 216.864 395.978 214.88C398.087 226.781 393.787 234.714 390.623 233.474ZM367.987 285.124C365.066 284.711 364.823 276.86 370.908 268.596C369.115 273.922 368.13 279.496 367.987 285.124ZM386.972 199.014C385.187 194.055 386.972 182.486 387.946 180.998C392.246 191.08 390.055 199.261 386.972 199.014ZM339.834 298.264C341.862 291.653 352.978 280.91 355.087 280.083C351.598 294.545 342.917 301.239 339.834 298.264ZM384.133 263.886C387.508 258.391 392.235 253.89 397.844 250.829C393.787 262.068 386.323 266.613 384.051 263.886H384.133ZM383.97 261.407C380.482 261.076 379.67 252.316 386.404 242.482C384.612 248.619 383.791 255.007 383.97 261.407Z" fill="#67923D" stroke="#24420E" stroke-width="0.163766"/>
<path d="M390.623 234.962C394.842 236.532 397.925 226.863 395.978 215.211C395.028 222.027 393.228 228.692 390.623 235.045V234.962Z" fill="#406325" stroke="#24420E" stroke-width="0.163766"/>
<path d="M391.273 234.631C391.679 228.433 385.594 215.624 383.971 214.219C382.349 227.276 387.622 235.954 391.273 234.631ZM386.973 198.931C390.137 199.261 392.247 191.163 387.947 180.998C388.271 190.502 387.784 198.187 386.973 198.931ZM339.916 298.182C342.999 301.239 351.599 294.545 355.088 280.166C347.948 290.331 341.295 298.016 339.916 298.182ZM384.215 263.886C386.486 266.613 393.951 262.151 398.007 250.829C394.084 255.866 389.433 260.268 384.215 263.886Z" fill="#406325" stroke="#24420E" stroke-width="0.163766"/>
<path d="M391.191 234.549C387.54 235.953 382.347 227.359 383.97 214.302C386.809 225.21 390.055 233.887 391.191 234.549Z" fill="#67923D" stroke="#24420E" stroke-width="0.163766"/>
<path d="M388.676 203.559C389.169 203.559 389.568 203.152 389.568 202.65C389.568 202.148 389.169 201.741 388.676 201.741C388.183 201.741 387.783 202.148 387.783 202.65C387.783 203.152 388.183 203.559 388.676 203.559Z" fill="#BA1F3E" stroke="#511124" stroke-width="0.163766"/>
<path d="M391.76 213.393C392.253 213.393 392.652 212.986 392.652 212.484C392.652 211.982 392.253 211.575 391.76 211.575C391.267 211.575 390.867 211.982 390.867 212.484C390.867 212.986 391.267 213.393 391.76 213.393Z" fill="#BA1F3E" stroke="#511124" stroke-width="0.163766"/>
<path d="M392.895 244.548C393.477 244.548 393.949 244.067 393.949 243.474C393.949 242.88 393.477 242.399 392.895 242.399C392.312 242.399 391.84 242.88 391.84 243.474C391.84 244.067 392.312 244.548 392.895 244.548Z" fill="#BA1F3E" stroke="#511124" stroke-width="0.163766"/>
<path d="M388.676 238.763C389.258 238.763 389.731 238.282 389.731 237.689C389.731 237.096 389.258 236.615 388.676 236.615C388.093 236.615 387.621 237.096 387.621 237.689C387.621 238.282 388.093 238.763 388.676 238.763Z" fill="#BA1F3E" stroke="#511124" stroke-width="0.163766"/>
<path d="M376.75 271.737C377.333 271.737 377.805 271.256 377.805 270.662C377.805 270.069 377.333 269.588 376.75 269.588C376.168 269.588 375.695 270.069 375.695 270.662C375.695 271.256 376.168 271.737 376.75 271.737Z" fill="#BA1F3E" stroke="#511124" stroke-width="0.163766"/>
<path d="M381.861 273.968C382.444 273.968 382.916 273.487 382.916 272.894C382.916 272.3 382.444 271.819 381.861 271.819C381.279 271.819 380.807 272.3 380.807 272.894C380.807 273.487 381.279 273.968 381.861 273.968Z" fill="#BA1F3E" stroke="#511124" stroke-width="0.163766"/>
<path d="M347.461 300.743C348.043 300.743 348.516 300.262 348.516 299.669C348.516 299.076 348.043 298.595 347.461 298.595C346.878 298.595 346.406 299.076 346.406 299.669C346.406 300.262 346.878 300.743 347.461 300.743Z" fill="#BA1F3E" stroke="#511124" stroke-width="0.163766"/>
<path d="M341.781 304.875C342.364 304.875 342.836 304.394 342.836 303.801C342.836 303.208 342.364 302.727 341.781 302.727C341.199 302.727 340.727 303.208 340.727 303.801C340.727 304.394 341.199 304.875 341.781 304.875Z" fill="#BA1F3E" stroke="#511124" stroke-width="0.163766"/>
<path d="M382.592 198.931C383.085 198.931 383.484 198.524 383.484 198.022C383.484 197.52 383.085 197.113 382.592 197.113C382.099 197.113 381.699 197.52 381.699 198.022C381.699 198.524 382.099 198.931 382.592 198.931Z" fill="#BA1F3E" stroke="#511124" stroke-width="0.163766"/>
<path d="M282.96 269.918C282.798 270.745 283.609 271.819 284.583 271.571C284.989 271.571 285.151 271.158 284.745 271.158C284.367 271.268 284.042 271.186 283.772 270.91C283.577 270.69 283.444 270.42 283.387 270.129C283.33 269.838 283.351 269.537 283.447 269.257L282.96 269.918Z" fill="#8C959D" stroke="#485654" stroke-width="0.081883"/>
<path d="M285.313 271.571C284.502 272.563 283.285 272.976 282.555 272.315C282.014 271.819 281.879 271.268 282.149 270.662L281.338 271.737C281.338 271.737 281.825 272.811 282.636 273.224C283.691 273.637 285.07 272.976 285.881 271.902C286.53 271.076 287.179 269.919 286.693 268.927C286.322 268.286 285.751 267.791 285.07 267.522L284.259 268.348C284.691 268.238 285.151 268.348 285.638 268.679C286.693 269.505 286.125 270.745 285.313 271.571Z" fill="#8C959D"/>
<path d="M285.314 271.571L284.422 272.397C284.043 272.618 283.638 272.7 283.205 272.645L282.637 272.397L282.231 271.902L281.988 271.323C281.934 271.103 281.988 270.882 282.15 270.662L282.231 270.745L281.339 271.819V271.736L282.15 272.811L282.718 273.141L283.367 273.224C283.83 273.214 284.28 273.071 284.665 272.811C285.098 272.59 285.45 272.315 285.72 271.984L286.531 270.827C286.748 270.442 286.829 270.001 286.775 269.505L286.613 268.844C286.25 268.248 285.71 267.785 285.071 267.522H285.152L284.341 268.431H284.26C284.422 268.32 284.611 268.265 284.828 268.265L285.477 268.431C285.855 268.651 286.099 268.982 286.207 269.422C286.261 269.863 286.207 270.249 286.045 270.579C285.882 271.02 285.639 271.351 285.314 271.571ZM285.314 271.571C285.639 271.351 285.855 271.02 285.964 270.579C286.072 270.139 286.126 269.753 286.126 269.422C286.018 269.037 285.774 268.761 285.396 268.596C285.017 268.32 284.665 268.265 284.341 268.431H284.26L285.071 267.439C285.752 267.708 286.323 268.203 286.694 268.844C286.856 269.009 286.937 269.229 286.937 269.505C286.937 270.056 286.829 270.524 286.613 270.91C286.45 271.351 286.18 271.736 285.801 272.067C285.531 272.452 285.179 272.755 284.747 272.976C284.368 273.251 283.908 273.389 283.367 273.389C283.128 273.409 282.888 273.375 282.664 273.289C282.439 273.204 282.236 273.068 282.069 272.893L281.258 271.736L282.069 270.662H282.231L282.15 271.323L282.313 271.902L282.718 272.315C282.826 272.48 282.989 272.563 283.205 272.563C283.638 272.618 284.043 272.563 284.422 272.397L285.314 271.571Z" fill="#485654"/>
<path d="M348.598 198.021L316.063 230.664L282.718 263.059L278.986 267.522C277.363 269.422 275.416 271.902 273.144 274.133C272.738 274.711 272.252 274.463 271.765 274.794C270.304 275.62 268.763 277.108 267.708 278.348L257.729 289.504C257.08 290.165 256.971 290.716 257.404 291.157L262.759 298.429C263.733 299.421 264.868 299.917 265.355 299.09C267.87 294.545 274.28 287.686 276.714 282.314C278.093 279.009 279.878 273.141 281.176 271.736C282.799 269.918 286.937 265.29 290.75 261.241L291.561 260.415C291.723 260.084 291.967 259.809 292.291 259.588C311.358 239.755 333.426 215.706 349.49 198.765L348.598 198.021Z" fill="#6C301E" stroke="#351710" stroke-width="0.163766" stroke-linejoin="round"/>
<path d="M281.013 263.142C280.094 263.032 279.309 262.646 278.66 261.985C279.634 262.315 280.607 262.646 281.5 262.233L281.013 263.142Z" fill="#8C959D" stroke="#485654" stroke-width="0.081883"/>
<path d="M382.511 173.891L356.711 195.542C356.44 195.818 356.197 195.818 355.98 195.542L353.628 193.559V193.063L354.763 191.906C354.872 191.796 354.845 191.631 354.682 191.41L354.195 190.914C353.979 190.859 353.79 190.914 353.628 191.08L352.492 192.319C351.843 192.374 351.464 192.76 351.356 193.476C335.778 208.93 322.31 222.731 306.814 237.937L288.478 255.787C287.829 256.613 284.989 258.183 283.123 259.423C282.42 259.864 281.933 260.277 281.663 260.663L280.202 265.208C279.715 266.2 278.174 268.513 278.174 268.679L281.257 271.736L290.263 261.902L290.993 261.076C290.399 260.232 289.689 259.481 288.883 258.845L288.315 258.431C288.315 258.211 288.451 258.018 288.721 257.853C310.14 236.697 333.344 213.475 352.167 194.551H352.978L355.331 197.112C355.872 197.663 356.332 197.774 356.711 197.443L382.592 173.891H382.511Z" fill="#B2B6BA" stroke="#485654" stroke-width="0.163766"/>
<path d="M280.283 265.043H280.77L281.176 264.96L281.744 262.977L282.393 260.993C282.23 260.828 282.041 260.718 281.825 260.663C282.041 260.663 282.23 260.773 282.393 260.993L281.825 262.977L281.257 264.96L280.77 265.125L280.283 265.043Z" fill="#485654"/>
<path d="M286.125 263.638C286.394 263.638 286.612 263.416 286.612 263.142C286.612 262.868 286.394 262.646 286.125 262.646C285.857 262.646 285.639 262.868 285.639 263.142C285.639 263.416 285.857 263.638 286.125 263.638Z" stroke="#485654" stroke-width="0.163766"/>
<path d="M283.041 266.778C283.31 266.778 283.528 266.556 283.528 266.282C283.528 266.008 283.31 265.786 283.041 265.786C282.773 265.786 282.555 266.008 282.555 266.282C282.555 266.556 282.773 266.778 283.041 266.778Z" stroke="#485654" stroke-width="0.163766"/>
<path d="M338.051 206.038L340.89 208.93L341.377 208.434L338.538 205.625L338.051 206.12V206.038Z" fill="#8C959D" stroke="#485654" stroke-width="0.081883"/>
<path d="M343.746 271.056C343.869 271.889 343.007 272.922 342.046 272.626C341.641 272.606 341.499 272.185 341.904 272.205C342.277 272.334 342.605 272.268 342.888 272.006C343.093 271.795 343.239 271.532 343.31 271.245C343.381 270.957 343.375 270.656 343.292 270.371L343.746 271.056Z" fill="#8C959D" stroke="#485654" stroke-width="0.0818831"/>
<path d="M341.317 272.589C342.08 273.62 343.276 274.094 344.037 273.47C344.601 273.001 344.763 272.458 344.521 271.839L345.28 272.952C345.28 272.952 344.743 274.001 343.912 274.373C342.839 274.734 341.493 274.005 340.734 272.891C340.126 272.034 339.533 270.846 340.067 269.879C340.467 269.258 341.062 268.792 341.755 268.557L342.525 269.423C342.099 269.291 341.634 269.378 341.132 269.684C340.039 270.457 340.547 271.724 341.317 272.589Z" fill="#8C959D"/>
<path d="M341.316 272.59L342.168 273.46C342.536 273.699 342.937 273.801 343.372 273.768L343.951 273.548L344.38 273.073L344.651 272.508C344.715 272.29 344.672 272.067 344.52 271.839L344.435 271.918L345.275 273.035L345.279 272.953L344.417 273.985L343.834 274.287L343.182 274.337C342.721 274.305 342.278 274.14 341.905 273.86C341.484 273.619 341.146 273.326 340.891 272.982L340.137 271.786C339.939 271.39 339.879 270.946 339.957 270.454L340.151 269.801C340.542 269.224 341.103 268.788 341.754 268.557L341.673 268.553L342.439 269.502L342.521 269.506C342.364 269.388 342.177 269.323 341.961 269.312L341.305 269.445C340.916 269.646 340.657 269.964 340.528 270.399C340.453 270.837 340.488 271.225 340.635 271.563C340.776 272.011 341.003 272.354 341.316 272.59ZM341.316 272.59C341.003 272.354 340.803 272.013 340.716 271.567C340.629 271.121 340.593 270.734 340.609 270.403C340.736 270.024 340.992 269.761 341.378 269.614C341.769 269.358 342.123 269.32 342.439 269.502L342.521 269.506L341.758 268.475C341.065 268.71 340.47 269.176 340.07 269.797C339.9 269.954 339.808 270.17 339.795 270.445C339.768 270.996 339.854 271.469 340.052 271.865C340.193 272.313 340.444 272.712 340.806 273.061C341.058 273.459 341.395 273.78 341.816 274.021C342.181 274.315 342.634 274.476 343.174 274.503C343.412 274.535 343.653 274.513 343.882 274.438C344.11 274.364 344.319 274.239 344.494 274.072L345.36 272.957L344.601 271.843L344.439 271.835L344.489 272.5L344.299 273.069L343.874 273.462C343.758 273.622 343.592 273.696 343.376 273.685C342.941 273.719 342.538 273.644 342.168 273.46L341.316 272.59Z" fill="#485654"/>
<path d="M281.637 195.979L312.567 230.201L344.319 264.217L347.832 268.86C349.362 270.839 351.188 273.412 353.35 275.754C353.727 276.352 354.225 276.128 354.696 276.483C356.115 277.381 357.583 278.943 358.577 280.234L368.01 291.873C368.626 292.566 368.708 293.122 368.254 293.54L362.557 300.538C361.537 301.48 360.379 301.918 359.932 301.069C357.638 296.404 351.565 289.234 349.392 283.748C348.173 280.377 346.671 274.428 345.442 272.96C343.909 271.064 339.998 266.236 336.383 262.001L335.613 261.136C335.466 260.797 335.237 260.51 334.923 260.274C316.831 239.515 295.942 214.398 280.709 196.677L281.637 195.979Z" fill="#6C301E" stroke="#351710" stroke-width="0.163766" stroke-linejoin="round"/>
<path d="M346.016 264.384C346.94 264.32 347.742 263.974 348.422 263.346C347.434 263.627 346.445 263.909 345.574 263.452L346.016 264.384Z" fill="#8C959D" stroke="#485654" stroke-width="0.0818831"/>
<path d="M248.92 170.189L273.651 193.099C273.908 193.388 274.151 193.4 274.381 193.135L276.826 191.271L276.85 190.776L275.771 189.564C275.668 189.449 275.703 189.285 275.875 189.073L276.386 188.602C276.604 188.557 276.791 188.622 276.945 188.795L278.02 190.09C278.666 190.177 279.025 190.581 279.099 191.302C293.917 207.512 306.707 221.967 321.455 237.925L338.914 256.667C339.522 257.524 342.283 259.234 344.088 260.565C344.769 261.04 345.235 261.477 345.487 261.876L346.727 266.488C347.166 267.503 348.595 269.891 348.587 270.056L345.361 272.956L336.837 262.686L336.148 261.824C336.781 261.011 337.527 260.296 338.362 259.7L338.949 259.316C338.959 259.096 338.834 258.897 338.571 258.718C318.192 236.522 296.13 212.173 278.237 192.335L277.427 192.294L274.954 194.736C274.387 195.259 273.923 195.346 273.56 194.997L248.839 170.185L248.92 170.189Z" fill="#B2B6BA" stroke="#485654" stroke-width="0.163766"/>
<path d="M346.655 266.319L346.169 266.295L345.768 266.192L345.296 264.183L344.742 262.17C344.912 262.013 345.107 261.912 345.326 261.868C345.109 261.857 344.915 261.957 344.742 262.17L345.215 264.179L345.687 266.188L346.165 266.377L346.655 266.319Z" fill="#485654"/>
<path d="M340.888 264.625C340.62 264.612 340.413 264.38 340.426 264.106C340.439 263.832 340.667 263.622 340.936 263.635C341.204 263.648 341.411 263.881 341.398 264.154C341.385 264.428 341.157 264.639 340.888 264.625Z" stroke="#485654" stroke-width="0.163766"/>
<path d="M343.816 267.915C343.547 267.902 343.34 267.669 343.353 267.396C343.367 267.122 343.595 266.911 343.863 266.925C344.132 266.938 344.339 267.17 344.326 267.444C344.313 267.718 344.084 267.928 343.816 267.915Z" stroke="#485654" stroke-width="0.163766"/>
<path d="M291.787 204.51L288.812 207.258L288.349 206.739L291.32 204.073L291.783 204.593L291.787 204.51Z" fill="#8C959D" stroke="#485654" stroke-width="0.0818831"/>
<path d="M282.717 293.967C274.869 292.06 266.664 292.317 258.945 294.71C272.17 301.321 282.88 298.512 282.636 293.884L282.717 293.967ZM354.926 296.694C361.254 293.967 376.669 296.115 378.535 297.52C365.392 304.049 354.601 301.239 354.845 296.694H354.926Z" fill="#67923D" stroke="#24420E" stroke-width="0.163766"/>
<path d="M282.555 294.049C282.798 298.594 272.17 301.404 258.945 294.793C271.359 295.619 281.5 295.123 282.474 293.966L282.555 294.049ZM354.926 296.776C354.763 301.321 365.392 304.131 378.616 297.52C366.203 298.346 356.061 297.85 355.007 296.693L354.926 296.776Z" fill="#406325" stroke="#24420E" stroke-width="0.163766"/>
<path d="M343.162 289.504C326.813 266.446 305.748 247.273 281.42 233.309C284.26 233.144 290.669 236.532 293.346 238.267C312.737 250.994 329.288 267.853 346.57 287.686C345.596 288.678 344.947 289.339 343.811 290.165L343.162 289.504Z" fill="#B2B6BA" stroke="#485654" stroke-width="0.163766"/>
<path d="M344.865 289.339L343.567 290.331C324.906 265.869 298.944 242.482 281.338 233.309C305.759 244.713 326.286 267.77 344.622 289.174H344.703L344.865 289.339Z" fill="#8C959D"/>
<path d="M344.865 289.339L343.567 290.33C334.945 279.052 325.39 268.545 315.008 258.927C307.245 251.669 299.005 244.959 290.344 238.846C287.423 236.862 284.421 235.017 281.338 233.309V233.144C287.829 236.229 293.914 239.893 299.593 244.135C305.272 248.322 310.681 252.895 315.819 257.853C320.948 262.765 325.9 267.865 330.667 273.141C335.481 278.485 340.186 283.857 344.784 289.256L344.865 289.339ZM344.865 289.339C340.213 283.885 335.481 278.54 330.667 273.307C325.903 268.027 320.95 262.928 315.819 258.018C310.681 253.115 305.272 248.542 299.593 244.3C293.914 240.058 287.856 236.422 281.419 233.391V233.226C287.538 236.764 293.419 240.712 299.025 245.044C310.2 253.733 320.574 263.442 330.018 274.05C334.781 279.311 339.328 284.77 343.648 290.413L344.865 289.339Z" fill="#485654"/>
<path d="M350.464 285.372C348.841 285.868 347.408 286.501 346.164 287.273C346.002 288.43 344.541 289.752 343.324 290L342.838 289.339H342.675L342.188 289.587C341.648 289.532 341.215 289.807 340.89 290.413C340.566 291.24 341.134 292.314 341.864 292.975C342.675 293.553 343 293.801 343.811 293.801C344.704 293.553 345.19 292.727 345.434 292.479C348.436 296.198 350.707 298.264 354.521 301.239C356.224 301.239 357.117 300.165 356.549 298.925C356.333 298.484 355.981 298.319 355.494 298.429V298.016C357.441 296.198 358.334 293.884 356.224 289.917C354.44 286.612 352.411 285.455 350.545 285.455H350.464V285.372ZM355.494 289.174C355.873 289.724 356.143 290.275 356.306 290.826C357.604 293.306 356.549 296.363 354.44 297.272H354.277C354.602 296.694 353.628 295.454 353.141 295.867C353.385 295.289 352.573 294.215 351.924 294.462C352.249 293.884 351.519 292.892 350.789 293.223C351.113 292.644 350.545 291.735 349.734 291.901C349.977 291.24 349.409 290.413 348.679 290.578C348.679 289.972 348.544 289.559 348.273 289.339C349.085 288.678 350.14 287.603 351.032 287.108C353.223 286.116 354.602 287.934 355.494 289.174Z" fill="#FAB81C" stroke="#6C301E" stroke-width="0.163766"/>
<path d="M356.468 291.818C356.036 291.487 355.873 291.184 355.982 290.909C356.198 290.578 356.523 290.523 356.955 290.744C357.388 290.964 357.577 291.239 357.523 291.57C357.307 291.901 356.955 291.983 356.468 291.818Z" fill="#FAB81C" stroke="#6C301E" stroke-width="0.081883"/>
<path d="M356.224 290.992C355.792 290.716 355.629 290.386 355.738 290C355.954 289.725 356.278 289.697 356.711 289.917C357.144 290.138 357.333 290.413 357.279 290.744C357.063 291.074 356.711 291.157 356.224 290.992Z" fill="#FAB81C" stroke="#6C301E" stroke-width="0.081883"/>
<path d="M355.738 290C355.305 289.779 355.143 289.504 355.251 289.173C355.468 288.843 355.792 288.76 356.225 288.925C356.657 289.256 356.82 289.559 356.712 289.834C356.603 290.11 356.279 290.165 355.738 290Z" fill="#FAB81C" stroke="#6C301E" stroke-width="0.081883"/>
<path d="M355.088 289.174C354.655 288.898 354.493 288.595 354.601 288.265C354.817 287.989 355.142 287.934 355.574 288.099C356.007 288.43 356.196 288.733 356.142 289.008C355.926 289.339 355.574 289.394 355.088 289.174Z" fill="#FAB81C" stroke="#6C301E" stroke-width="0.081883"/>
<path d="M354.278 288.347C353.791 288.072 353.629 287.796 353.791 287.521V287.355C353.954 287.438 354.359 287.521 354.278 287.273V287.107L354.765 287.273C355.198 287.603 355.36 287.906 355.252 288.182C355.144 288.457 354.819 288.512 354.278 288.347Z" fill="#FAB81C" stroke="#6C301E" stroke-width="0.081883"/>
<path d="M345.434 292.479C346.002 290.992 347.056 289.669 348.273 289.339L345.434 292.479ZM345.596 292.727C346.651 292.892 348.273 291.653 348.679 290.578L345.596 292.727ZM346.569 293.884C347.868 294.215 349.247 292.892 349.815 291.901L346.569 293.884ZM347.786 295.206C349.409 295.206 350.302 294.132 350.788 293.223L347.786 295.206ZM349.003 296.446C350.383 296.446 351.6 295.372 351.924 294.463L349.003 296.446ZM350.139 297.603C351.654 297.493 352.654 296.942 353.141 295.95L350.139 297.603ZM351.519 298.76C352.898 298.842 353.953 298.016 354.277 297.272L351.519 298.76ZM352.979 299.999C354.277 299.999 355.17 299.173 355.494 298.347L352.979 299.999Z" fill="#FAB81C"/>
<path d="M345.434 292.479C345.794 291.434 346.442 290.516 347.3 289.835C347.516 289.614 347.841 289.449 348.273 289.339L347.3 289.835L346.488 290.661C346.043 291.206 345.687 291.82 345.434 292.479ZM345.596 292.727L346.569 292.562L347.381 292.066L348.192 291.405C347.753 291.921 347.196 292.319 346.569 292.562C346.245 292.727 345.92 292.782 345.596 292.727ZM346.569 293.884H347.543L348.354 293.388C348.911 292.995 349.38 292.489 349.734 291.901L349.166 292.727L348.436 293.471L347.624 293.884H346.569ZM347.786 295.206C348.111 295.206 348.408 295.151 348.679 295.041L349.49 294.628L350.302 293.967L350.788 293.14C350.552 293.779 350.127 294.328 349.571 294.71L348.76 295.124L347.786 295.206ZM349.003 296.446C349.653 296.446 350.22 296.226 350.707 295.785C351.204 295.441 351.62 294.99 351.924 294.463C351.87 294.738 351.708 295.013 351.437 295.289L350.788 295.867L349.977 296.363L349.003 296.446ZM350.139 297.603C350.464 297.603 350.761 297.548 351.032 297.438C351.627 297.29 352.182 297.008 352.654 296.611L353.141 295.867L352.654 296.694C352.438 296.914 352.168 297.079 351.843 297.19C351.302 297.52 350.761 297.658 350.22 297.603H350.139ZM351.519 298.76C352.082 298.738 352.634 298.598 353.141 298.347L353.79 297.933L354.277 297.272C354.223 297.548 354.088 297.768 353.871 297.933C353.542 298.232 353.157 298.46 352.738 298.602C352.32 298.744 351.877 298.798 351.437 298.76H351.519ZM352.979 299.999L353.79 299.917L354.439 299.586L355.007 299.09L355.494 298.429C355.301 298.935 354.951 299.363 354.497 299.647C354.042 299.93 353.509 300.054 352.979 299.999Z" fill="#6C301E"/>
<path d="M293.989 287.341C311.652 265.31 333.796 247.444 358.894 234.974C356.069 234.638 349.474 237.633 346.7 239.203C326.602 250.736 309.099 266.565 290.693 285.32C291.607 286.369 292.217 287.068 293.302 287.961L293.989 287.341Z" fill="#B2B6BA" stroke="#485654" stroke-width="0.163766"/>
<path d="M292.297 287.073L293.535 288.141C313.587 264.85 340.866 243.072 358.975 234.979C333.933 244.888 312.1 266.664 292.55 286.922L292.469 286.918L292.297 287.073Z" fill="#8C959D"/>
<path d="M292.297 287.073L293.535 288.141C302.799 277.403 312.948 267.492 323.872 258.518C332.044 251.742 340.661 245.542 349.662 239.962C352.694 238.159 355.798 236.498 358.975 234.979L358.984 234.814C352.326 237.502 346.038 240.791 340.122 244.683C334.209 248.52 328.543 252.758 323.125 257.397C317.719 261.991 312.479 266.782 307.413 271.761C302.297 276.805 297.287 281.883 292.383 286.995L292.297 287.073ZM292.297 287.073C297.258 281.909 302.294 276.86 307.404 271.926C312.467 266.944 317.708 262.153 323.115 257.562C328.53 252.978 334.196 248.74 340.112 244.848C346.028 240.956 352.287 237.693 358.889 235.057L358.899 234.892C352.585 238.054 346.483 241.639 340.636 245.625C328.974 253.623 318.053 262.689 308.008 272.708C302.948 277.672 298.09 282.846 293.449 288.219L292.297 287.073Z" fill="#485654"/>
<path d="M286.94 282.775C288.531 283.368 289.925 284.087 291.122 284.932C291.216 286.097 292.597 287.505 293.797 287.826L294.322 287.195L294.484 287.205L294.955 287.482C295.498 287.46 295.914 287.761 296.203 288.385C296.479 289.23 295.849 290.268 295.082 290.884C294.238 291.412 293.9 291.64 293.09 291.591C292.214 291.29 291.776 290.436 291.547 290.173C288.334 293.704 285.946 295.629 281.966 298.369C280.266 298.266 279.437 297.14 280.076 295.936C280.318 295.51 280.679 295.366 281.158 295.505L281.182 295.093C279.344 293.16 278.588 290.796 280.925 286.964C282.899 283.772 284.991 282.74 286.854 282.853L286.935 282.857L286.94 282.775ZM281.697 286.266C281.287 286.793 280.985 287.327 280.791 287.867C279.351 290.263 280.225 293.379 282.278 294.414L282.44 294.424C282.15 293.827 283.194 292.648 283.656 293.09C283.447 292.498 284.319 291.474 284.953 291.761C284.662 291.164 285.449 290.218 286.159 290.592C285.868 289.995 286.488 289.122 287.289 289.336C287.084 288.661 287.699 287.871 288.418 288.08C288.454 287.475 288.613 287.071 288.895 286.867C288.124 286.158 287.134 285.022 286.272 284.473C284.143 283.351 282.66 285.082 281.697 286.266Z" fill="#FAB81C" stroke="#6C301E" stroke-width="0.163766"/>
<path d="M280.572 288.847C281.023 288.543 281.202 288.25 281.11 287.969C280.914 287.626 280.593 287.551 280.148 287.745C279.703 287.939 279.498 288.202 279.533 288.536C279.73 288.879 280.076 288.982 280.572 288.847Z" fill="#FAB81C" stroke="#6C301E" stroke-width="0.0818831"/>
<path d="M280.862 288.036C281.31 287.787 281.491 287.467 281.405 287.076C281.205 286.788 280.883 286.741 280.438 286.935C279.994 287.128 279.789 287.392 279.823 287.725C280.02 288.068 280.366 288.172 280.862 288.036Z" fill="#FAB81C" stroke="#6C301E" stroke-width="0.0818831"/>
<path d="M281.407 287.076C281.851 286.882 282.029 286.617 281.941 286.281C281.744 285.938 281.425 285.836 280.983 285.974C280.532 286.278 280.352 286.571 280.444 286.852C280.536 287.134 280.857 287.209 281.407 287.076Z" fill="#FAB81C" stroke="#6C301E" stroke-width="0.0818831"/>
<path d="M282.101 286.29C282.549 286.041 282.729 285.749 282.64 285.412C282.44 285.124 282.119 285.049 281.678 285.188C281.227 285.492 281.02 285.783 281.058 286.061C281.255 286.404 281.602 286.481 282.101 286.29Z" fill="#FAB81C" stroke="#6C301E" stroke-width="0.0818831"/>
<path d="M282.959 285.514C283.461 285.269 283.639 285.004 283.493 284.719L283.503 284.554C283.336 284.627 282.926 284.685 283.022 284.442L283.031 284.277L282.536 284.413C282.085 284.716 281.905 285.009 281.997 285.291C282.089 285.572 282.41 285.647 282.959 285.514Z" fill="#FAB81C" stroke="#6C301E" stroke-width="0.0818831"/>
<path d="M291.548 290.173C291.067 288.654 290.091 287.271 288.896 286.867L291.548 290.173ZM291.371 290.411C290.309 290.512 288.761 289.177 288.419 288.08L291.371 290.411ZM290.332 291.507C289.017 291.759 287.717 290.355 287.208 289.331L290.332 291.507ZM289.04 292.754C287.42 292.656 286.592 291.529 286.159 290.592L289.04 292.754ZM287.753 293.917C286.376 293.834 285.224 292.688 284.953 291.761L287.753 293.917ZM286.552 295.004C285.046 294.802 284.08 294.192 283.651 293.173L286.552 295.004ZM285.108 296.075C283.726 296.075 282.721 295.186 282.441 294.424L285.108 296.075ZM283.578 297.225C282.282 297.146 281.439 296.267 281.163 295.423L283.578 297.225Z" fill="#FAB81C"/>
<path d="M291.548 290.173C291.249 289.108 290.655 288.153 289.839 287.421C289.636 287.188 289.321 287.003 288.896 286.867L289.839 287.421L290.601 288.295C291.013 288.865 291.333 289.5 291.548 290.173ZM291.371 290.411L290.409 290.187L289.628 289.643L288.856 288.934C289.264 289.476 289.798 289.907 290.409 290.187C290.723 290.372 291.044 290.446 291.371 290.411ZM290.332 291.507L289.36 291.448L288.579 290.904C288.047 290.479 287.607 289.945 287.289 289.336L287.808 290.195L288.493 290.982L289.279 291.443L290.332 291.507ZM289.04 292.754C288.716 292.734 288.422 292.661 288.159 292.535L287.373 292.073L286.602 291.364L286.164 290.51C286.363 291.162 286.755 291.735 287.287 292.151L288.073 292.612L289.04 292.754ZM287.753 293.917C287.105 293.878 286.551 293.624 286.091 293.155C285.615 292.782 285.226 292.306 284.953 291.761C284.991 292.039 285.137 292.324 285.391 292.616L286.005 293.232L286.786 293.776L287.753 293.917ZM286.552 295.004C286.228 294.984 285.934 294.911 285.671 294.785C285.085 294.602 284.548 294.286 284.099 293.862L283.656 293.09L284.094 293.944C284.297 294.177 284.558 294.359 284.875 294.488C285.396 294.851 285.928 295.021 286.471 294.999L286.552 295.004ZM285.108 296.075C284.547 296.02 284.003 295.846 283.512 295.565L282.888 295.113L282.441 294.424C282.479 294.702 282.601 294.93 282.807 295.108C283.118 295.427 283.49 295.677 283.9 295.844C284.309 296.011 284.748 296.092 285.189 296.08L285.108 296.075ZM283.578 297.225L282.773 297.093L282.144 296.724L281.606 296.195L281.158 295.505C281.321 296.022 281.646 296.47 282.083 296.781C282.52 297.091 283.045 297.247 283.578 297.225Z" fill="#6C301E"/>
<path d="M262.597 190.336C269.035 186.878 274.485 181.782 278.418 175.543C265.761 179.014 260.001 187.361 262.597 190.419V190.336ZM380.889 194.22C378.123 187.724 373.765 182.061 368.232 177.775C370.504 190.336 377.968 196.617 380.889 194.303V194.22Z" fill="#406325" stroke="#24420E" stroke-width="0.163766"/>
<path d="M262.597 190.336C259.919 187.361 265.68 179.097 278.336 175.626C269.412 182.568 262.759 189.014 262.597 190.336ZM380.888 194.22C377.887 196.699 370.585 190.419 368.313 177.94C374.154 187.03 379.671 194.055 380.888 194.22Z" fill="#67923D" stroke="#24420E" stroke-width="0.163766"/>
<path d="M297.485 254.878C297.485 254.878 292.535 255.457 291.075 248.432C289.615 240.912 295.375 240.168 295.375 240.168C295.375 240.168 301.947 239.424 306.085 239.342L307.87 254.217L297.485 254.878Z" fill="url(#paint0_radial_3921_4093)" stroke="#999270" stroke-width="0.163766"/>
<path d="M298.133 252.647C298.133 252.647 294.887 253.225 294.238 248.019C293.752 244.3 296.023 243.804 296.023 243.804L303.487 245.126V251.903L298.133 252.647Z" fill="url(#paint1_radial_3921_4093)" stroke="#999270" stroke-width="0.163766"/>
<path d="M296.023 243.804C296.023 243.804 300.891 243.474 303.325 243.143L304.38 247.854L298.62 248.184C298.62 248.184 298.214 243.969 296.023 243.804Z" fill="url(#paint2_radial_3921_4093)" stroke="#999270" stroke-width="0.163766"/>
<path d="M295.051 240.251C295.051 240.251 301.136 238.681 301.947 245.54C302.109 247.358 301.136 251.49 298.134 252.647L309.411 251.407L308.357 239.011L304.624 239.342C304.624 239.342 296.511 239.59 295.051 240.168V240.251Z" fill="url(#paint3_radial_3921_4093)" stroke="#999270" stroke-width="0.163766"/>
<path d="M297.484 254.878C297.484 254.878 339.592 251.986 343.892 252.151C356.711 245.044 343.892 217.029 333.102 201.327C334.319 197.774 308.843 189.84 297.403 190.584C295.889 190.584 294.482 190.667 293.184 190.832C286.937 191.493 286.856 199.674 289.371 204.881C291.805 209.839 314.035 250.333 298.458 254.713L297.484 254.878Z" fill="#F9F0AA" stroke="#999270" stroke-width="0.163766"/>
<path d="M342.594 217.855C339.755 211.823 336.347 206.038 333.102 201.327C334.319 197.774 308.843 189.84 297.403 190.584C295.889 190.584 294.482 190.667 293.184 190.832C286.937 191.493 286.856 199.674 289.371 204.881C290.182 206.368 292.86 211.492 295.781 217.855" fill="url(#paint4_linear_3921_4093)"/>
<path d="M342.594 217.855C339.755 211.823 336.347 206.038 333.102 201.327C334.319 197.774 308.843 189.84 297.403 190.584C295.889 190.584 294.482 190.667 293.184 190.832C286.937 191.493 286.856 199.674 289.371 204.881C290.182 206.368 292.86 211.492 295.781 217.855" stroke="#999270" stroke-width="0.163766"/>
<path d="M299.756 227.524C304.3 239.59 306.815 252.316 298.458 254.713L297.484 254.878C297.484 254.878 339.674 251.986 343.892 252.151C350.87 248.267 350.221 238.267 346.489 227.359" fill="url(#paint5_linear_3921_4093)"/>
<path d="M299.756 227.524C304.3 239.59 306.815 252.316 298.458 254.713L297.484 254.878C297.484 254.878 339.674 251.986 343.892 252.151C350.87 248.267 350.221 238.267 346.489 227.359" stroke="#999270" stroke-width="0.163766"/>
<path d="M293.589 193.229C290.587 193.229 289.776 196.204 289.857 198.022C289.938 202.98 293.589 203.145 293.589 203.145L298.457 202.898L300.729 192.815L293.589 193.229Z" fill="url(#paint6_radial_3921_4093)" stroke="#999270" stroke-width="0.163766"/>
<path d="M293.59 193.229L300.73 192.815L301.541 200.336L295.213 200.666C295.213 200.666 297.241 194.634 293.59 193.229Z" fill="url(#paint7_linear_3921_4093)" stroke="#999270" stroke-width="0.163766"/>
<path d="M333.102 201.327C338.538 200.501 338.456 193.063 334.724 190.006C322.149 189.51 305.679 189.923 293.671 190.832C295.05 190.832 298.863 191.163 299.269 196.204C299.367 197.298 299.196 198.4 298.771 199.41C298.346 200.42 297.681 201.306 296.835 201.988C295.897 202.706 294.763 203.11 293.59 203.145H296.511L298.945 202.815C315.983 200.583 333.02 201.327 333.02 201.327H333.102Z" fill="url(#paint8_linear_3921_4093)" stroke="#999270" stroke-width="0.163766"/>
<path d="M302.596 212.979C302.488 212.704 302.271 212.484 301.947 212.318C301.676 212.373 301.541 212.263 301.541 211.988H302.19L303.488 211.822C303.759 211.988 303.759 212.125 303.488 212.236C303.083 212.236 303.326 212.649 303.407 212.897L304.462 215.376C304.57 215.707 304.759 215.899 305.03 215.954L305.922 215.872C306.084 215.651 306.139 215.376 306.084 215.045C306.003 214.797 306.49 214.88 306.49 215.045L306.815 216.202C306.815 216.313 306.706 216.34 306.49 216.285L304.056 216.45C303.813 216.45 303.407 216.698 303.245 216.45C303.245 216.12 303.732 216.285 303.732 216.037L303.488 215.211L302.596 212.979ZM306.49 212.649C306.436 212.428 306.247 212.236 305.922 212.07C305.652 212.125 305.489 212.015 305.435 211.74C305.598 211.63 305.787 211.63 306.003 211.74L307.383 211.575C307.626 211.575 307.707 211.988 307.383 211.905C307.166 211.96 307.112 212.153 307.22 212.484L308.437 215.293C308.437 215.514 308.573 215.679 308.843 215.789C309.059 215.789 309.249 215.872 309.411 216.037C309.357 216.202 309.195 216.23 308.924 216.12L307.626 216.285C307.41 216.285 307.274 216.202 307.22 216.037C307.139 215.789 307.626 216.037 307.707 215.707C307.707 215.486 307.599 215.211 307.383 214.88L306.49 212.731V212.649ZM310.141 213.31C310.249 213.42 310.384 213.42 310.547 213.31C310.817 213.31 310.979 213.2 311.034 212.979C311.034 212.539 310.844 212.208 310.466 211.988C310.195 211.822 309.898 211.767 309.573 211.822L309.654 212.236L310.141 213.31ZM310.628 214.632L311.115 215.459C311.331 215.569 311.547 215.569 311.764 215.459C312.034 215.404 312.142 215.266 312.088 215.045C312.034 214.439 311.71 214.026 311.115 213.806H310.303L310.466 214.219L310.628 214.632ZM309.005 212.649C308.897 212.318 308.708 212.043 308.437 211.822C308.221 211.878 308.032 211.822 307.869 211.657C307.869 211.409 308.356 211.575 308.518 211.492C309.249 211.492 309.979 211.244 310.628 211.492C311.277 211.712 311.683 212.153 311.845 212.814C311.845 213.145 311.683 213.365 311.358 213.475L311.764 213.558C312.305 213.723 312.683 214.054 312.9 214.55C313.116 214.88 313.116 215.238 312.9 215.624C312.521 215.899 312.142 216.01 311.764 215.954L309.898 216.12C309.654 216.12 309.573 215.707 309.898 215.707C310.114 215.651 310.168 215.486 310.06 215.211L309.005 212.731V212.649ZM315.009 211.079C315.225 211.134 315.361 211.272 315.415 211.492L315.658 212.236C315.442 212.291 315.28 212.181 315.171 211.905C315.009 211.685 314.82 211.575 314.603 211.575H313.63C313.522 211.74 313.549 211.905 313.711 212.07L314.198 213.227C314.414 213.227 314.63 213.145 314.847 212.979C314.847 212.814 314.603 212.401 315.009 212.484C315.171 212.704 315.28 212.952 315.334 213.227L315.739 214.136C315.496 214.384 315.334 214.054 315.252 213.806C315.036 213.585 314.766 213.503 314.441 213.558V213.806L314.928 215.045C315.144 215.266 315.415 215.348 315.739 215.293C316.064 215.348 316.334 215.238 316.551 214.963C316.713 214.797 316.307 214.384 316.551 214.302C316.821 214.357 316.956 214.522 316.956 214.797C316.956 215.073 317.037 215.293 317.2 215.459C317.146 215.624 317.037 215.679 316.875 215.624L314.441 215.789C314.117 215.789 313.711 215.954 313.63 215.624C313.63 215.376 314.198 215.541 314.117 215.211L313.792 214.384L312.9 212.153C312.791 211.822 312.575 211.63 312.251 211.575C312.088 211.575 311.764 211.575 311.926 211.244H312.737L315.009 211.079ZM316.875 212.153C316.821 211.878 316.632 211.63 316.307 211.409C316.037 211.464 315.847 211.354 315.739 211.079H316.551C317.2 211.079 317.849 210.831 318.498 211.079C319.201 211.244 319.634 211.74 319.796 212.566C319.796 212.897 319.607 213.117 319.228 213.227C318.985 213.227 319.39 213.31 319.471 213.393C320.012 213.668 320.391 214.081 320.607 214.632C320.688 214.797 321.013 215.211 321.094 214.797C321.175 214.384 321.581 214.797 321.5 215.045C321.446 215.376 321.256 215.541 320.932 215.541C320.607 215.541 320.31 215.376 320.039 215.045C319.769 214.494 319.417 214.026 318.985 213.641L318.336 213.475V213.888L318.822 214.88C319.039 215.101 319.309 215.183 319.634 215.128C319.877 215.211 319.796 215.624 319.471 215.541H318.092C317.849 215.707 317.362 215.541 317.524 215.293C317.849 215.293 317.984 215.156 317.93 214.88L317.119 212.731L316.875 212.153ZM318.011 212.979H318.741C318.958 212.869 319.012 212.676 318.903 212.401C318.795 211.96 318.552 211.63 318.173 211.409C318.011 211.409 317.524 211.244 317.443 211.492L318.011 212.814V212.979ZM323.853 214.302C323.961 214.577 324.123 214.77 324.339 214.88C324.556 214.88 324.745 214.963 324.907 215.128C324.853 215.293 324.691 215.348 324.421 215.293H323.122C322.852 215.404 322.69 215.321 322.636 215.045C322.798 214.88 323.204 215.045 323.204 214.715L322.798 213.806L321.905 211.409C321.743 211.189 321.554 211.106 321.337 211.161C321.013 211.106 320.824 211.216 320.77 211.492C320.878 211.767 320.878 211.988 320.77 212.153C320.553 212.098 320.418 211.96 320.364 211.74C320.31 211.519 320.202 211.244 320.039 210.913C320.148 210.803 320.283 210.776 320.445 210.831L323.853 210.665C324.123 210.665 324.258 210.803 324.258 211.079L324.583 211.905C324.421 212.07 324.258 211.988 324.096 211.657C323.934 211.327 323.69 211.134 323.366 211.079L322.717 211.244L322.879 211.822L323.853 214.302ZM326.936 213.558C326.827 213.613 326.8 213.723 326.854 213.888V214.55C327.017 214.77 327.233 214.88 327.504 214.88C327.666 214.88 327.585 215.293 327.341 215.211H326.368C326.124 215.293 325.719 215.128 325.962 214.88C326.124 214.88 326.26 214.797 326.368 214.632V210.5C326.584 210.335 326.746 210.39 326.854 210.665L329.775 214.384C329.938 214.605 330.154 214.715 330.424 214.715C330.668 214.715 330.749 215.128 330.424 215.045H328.639C328.531 214.88 328.585 214.77 328.802 214.715C329.045 214.715 328.802 214.384 328.721 214.219L328.234 213.558H326.936ZM327.828 213.145C327.936 213.145 327.936 213.09 327.828 212.979L326.773 211.575V213.227H327.828V213.145ZM330.343 211.657C330.262 211.327 330.1 210.831 329.694 210.831C329.37 210.831 329.234 210.721 329.288 210.5H330.668C331.209 210.39 331.75 210.418 332.29 210.583C333.589 211.079 334.4 212.015 334.724 213.393C334.724 213.944 334.562 214.384 334.238 214.715C333.589 215.045 332.912 215.128 332.209 214.963L331.073 215.045C330.83 215.045 330.749 214.632 331.073 214.715C331.344 214.605 331.398 214.412 331.236 214.136L330.343 211.657ZM331.966 213.723C332.02 213.999 332.155 214.274 332.372 214.55H333.183C333.562 214.439 333.751 214.191 333.751 213.806C333.716 213.198 333.55 212.605 333.264 212.07C332.939 211.519 332.453 211.134 331.804 210.913H330.992V211.244L331.966 213.723ZM314.847 223.971C314.901 224.246 315.117 224.411 315.496 224.466C315.658 224.466 316.064 224.466 316.064 224.797C315.847 224.907 315.631 224.907 315.415 224.797L314.198 224.962H313.468C313.305 224.852 313.332 224.742 313.549 224.632C313.819 224.632 313.981 224.521 314.035 224.301L313.873 223.64L312.9 221.326C312.846 221.106 312.656 221.023 312.332 221.078C312.115 221.133 311.926 221.078 311.764 220.913C311.764 220.665 312.169 220.748 312.332 220.582L313.143 220.334C313.305 220.334 313.386 220.417 313.386 220.582L314.847 223.971ZM315.415 220.252H317.037C317.362 220.252 317.2 219.839 317.362 219.839C317.632 219.949 317.741 220.142 317.686 220.417C317.686 220.803 317.524 220.968 317.2 220.913H315.983L316.388 221.905L316.875 221.739C317.686 221.739 318.66 222.235 318.985 223.061C319.201 223.502 319.201 223.915 318.985 224.301C318.66 224.687 318.227 224.852 317.686 224.797C317.254 224.797 316.875 224.632 316.551 224.301C316.469 224.136 316.469 223.723 316.713 223.805C317.091 223.805 317.281 223.971 317.281 224.301C317.443 224.411 317.632 224.439 317.849 224.384C318.119 224.384 318.281 224.246 318.336 223.971C318.336 223.53 318.2 223.144 317.93 222.814C317.768 222.483 317.416 222.29 316.875 222.235L316.226 222.318C316.01 222.263 315.902 222.125 315.902 221.905L315.334 220.334L315.496 220.252H315.415ZM321.013 221.078C320.905 220.692 320.661 220.417 320.283 220.252C320.12 220.252 319.715 220.169 319.958 219.921H321.256C321.851 219.811 322.419 219.839 322.96 220.004C324.258 220.5 325.07 221.436 325.394 222.814C325.448 223.364 325.259 223.805 324.826 224.136C324.231 224.356 323.582 224.439 322.879 224.384L321.824 224.549C321.581 224.549 321.5 224.136 321.824 224.136C322.041 224.081 322.095 223.888 321.987 223.557L321.013 221.078ZM322.636 223.144L323.122 223.971H323.934C324.258 223.805 324.421 223.53 324.421 223.144C324.421 222.593 324.231 222.015 323.853 221.409C323.474 220.803 322.987 220.445 322.392 220.334H321.581V220.665L322.636 223.144ZM327.828 219.591C328.044 219.646 328.18 219.783 328.234 220.004C328.288 220.224 328.369 220.445 328.477 220.665C328.261 220.83 328.099 220.748 327.99 220.417C327.936 220.197 327.774 220.059 327.504 220.004H326.449V220.5L326.936 221.657C327.206 221.657 327.422 221.602 327.585 221.491C327.747 221.326 327.341 220.913 327.747 220.995C327.963 221.106 328.071 221.326 328.071 221.657L328.477 222.566C328.396 222.896 328.071 222.566 327.99 222.318C327.828 222.097 327.612 222.015 327.341 222.07C327.125 222.07 327.071 222.125 327.179 222.235L327.666 223.475C327.882 223.695 328.153 223.778 328.477 223.723C328.856 223.723 329.126 223.64 329.288 223.475C329.451 223.309 329.126 222.979 329.288 222.814C329.613 222.869 329.748 223.006 329.694 223.227L329.938 224.053H329.613L327.098 224.218C326.827 224.329 326.584 224.301 326.368 224.136C326.205 223.805 326.773 223.971 326.854 223.723L326.611 222.979L325.719 220.582C325.61 220.307 325.394 220.114 325.07 220.004C324.907 220.004 324.583 220.004 324.745 219.673H325.556L327.828 219.591ZM305.76 231.408C305.922 231.794 306.193 232.014 306.571 232.069C307.274 232.235 307.869 232.538 308.356 232.978C308.627 233.309 308.762 233.694 308.762 234.135C308.708 234.576 308.437 234.851 307.951 234.962C307.518 235.127 307.058 235.099 306.571 234.879C306.409 234.796 306.49 235.21 306.166 235.127C306.057 234.907 306.003 234.659 306.003 234.383L305.679 233.557C305.787 233.391 305.922 233.447 306.084 233.722C306.355 234.273 306.788 234.576 307.383 234.631C307.761 234.631 307.978 234.466 308.032 234.135C307.978 233.694 307.761 233.364 307.383 233.144L305.76 232.482C305.528 232.347 305.333 232.156 305.192 231.925C305.05 231.694 304.967 231.432 304.949 231.16C305.003 230.775 305.219 230.527 305.598 230.416C305.976 230.306 306.409 230.306 306.896 230.416C307.004 230.306 307.166 230.279 307.383 230.334L307.545 230.83L307.788 231.573C307.572 231.684 307.437 231.628 307.383 231.408C307.166 231.022 306.896 230.802 306.571 230.747C306.247 230.747 305.976 230.83 305.76 230.995V231.408ZM311.115 230.003C311.385 230.058 311.52 230.196 311.52 230.416L311.683 231.078C311.574 231.243 311.439 231.188 311.277 230.912C311.223 230.692 311.034 230.554 310.709 230.499H309.735V230.995L310.141 232.152C310.412 232.152 310.628 232.097 310.79 231.987C310.952 231.821 310.628 231.491 310.871 231.408C311.142 231.518 311.277 231.711 311.277 231.987L311.602 233.061C311.439 233.226 311.304 233.144 311.196 232.813C311.088 232.593 310.871 232.51 310.547 232.565C310.33 232.565 310.249 232.62 310.303 232.73L310.79 233.97C310.898 234.19 311.088 234.273 311.358 234.218C311.737 234.218 312.061 234.135 312.332 233.97C312.386 233.75 312.386 233.529 312.332 233.309C312.602 233.199 312.764 233.281 312.818 233.557L312.981 234.383C312.927 234.548 312.818 234.604 312.656 234.548L310.222 234.714C309.898 234.714 309.573 234.962 309.411 234.714C309.411 234.383 309.817 234.466 309.898 234.218L309.735 233.557L308.924 231.078C308.924 230.802 308.735 230.637 308.356 230.582C308.086 230.582 307.978 230.472 308.032 230.251H308.843L311.115 230.003ZM314.522 233.474C314.63 233.75 314.793 233.942 315.009 234.053C315.334 233.997 315.55 234.053 315.658 234.218C315.658 234.548 315.252 234.383 315.09 234.383L313.792 234.548C313.576 234.548 313.413 234.493 313.305 234.383C313.305 234.053 313.711 234.218 313.792 234.053L313.711 233.391L312.9 230.912C312.791 230.582 312.602 230.389 312.332 230.334C312.061 230.389 311.926 230.279 311.926 230.003H312.494C313.035 229.893 313.63 229.838 314.279 229.838C314.576 229.858 314.862 229.962 315.105 230.137C315.348 230.312 315.54 230.551 315.658 230.83C315.82 231.215 315.82 231.573 315.658 231.904C315.225 232.179 314.766 232.345 314.279 232.4C314.171 232.4 314.171 232.482 314.279 232.648L314.522 233.474ZM314.035 231.987H314.603C314.874 231.876 314.982 231.684 314.928 231.408C314.928 231.022 314.793 230.692 314.522 230.416C314.252 230.141 313.954 230.086 313.63 230.251V230.664L314.035 231.987ZM319.066 233.226C319.066 233.447 319.201 233.612 319.471 233.722C319.742 233.722 319.931 233.805 320.039 233.97C320.202 234.218 319.634 234.135 319.471 234.135L318.173 234.218C317.957 234.218 317.822 234.135 317.768 233.97C317.93 233.805 318.336 233.97 318.336 233.639L318.092 232.648L317.281 230.251C317.227 230.086 317.037 230.031 316.713 230.086C316.497 230.086 316.307 230.169 316.145 230.334V230.995C315.929 231.105 315.82 231.022 315.82 230.747L315.496 229.921C315.55 229.755 315.685 229.673 315.902 229.673L319.228 229.507C319.498 229.507 319.634 229.645 319.634 229.921L319.958 230.747C319.796 230.857 319.661 230.802 319.553 230.582C319.39 230.251 319.12 230.058 318.741 230.003H318.092L318.254 230.582L319.066 233.226ZM320.77 230.499C320.77 230.169 320.607 229.948 320.283 229.838C320.066 229.893 319.904 229.783 319.796 229.507H320.283L321.743 229.342C321.987 229.259 322.149 229.673 321.905 229.673C321.662 229.673 321.419 229.838 321.5 230.086L321.905 231.408L322.473 233.226C322.527 233.391 322.663 233.502 322.879 233.557C323.204 233.502 323.366 233.612 323.366 233.887H322.798L321.5 234.053C321.337 234.053 321.013 233.887 321.175 233.722C321.446 233.722 321.608 233.612 321.662 233.391L321.419 232.4L320.77 230.499ZM325.475 229.177C325.692 229.232 325.8 229.37 325.8 229.59L325.962 230.251C325.8 230.416 325.665 230.361 325.556 230.086C325.502 229.81 325.313 229.645 324.988 229.59H324.096V230.169L324.502 231.243L325.151 231.078C325.313 230.995 324.988 230.582 325.232 230.582C325.502 230.637 325.638 230.802 325.638 231.078C325.692 231.463 325.8 231.821 325.962 232.152C325.8 232.317 325.665 232.262 325.556 231.987C325.448 231.711 325.232 231.601 324.907 231.656C324.826 231.656 324.502 231.656 324.664 231.821L325.07 233.061C325.232 233.281 325.421 233.391 325.638 233.391C326.016 233.391 326.341 233.309 326.611 233.144L326.692 232.4C326.963 232.345 327.098 232.455 327.098 232.73L327.26 233.557C327.26 233.722 327.152 233.777 326.936 233.722L324.502 233.805H323.69C323.609 233.474 324.096 233.557 324.177 233.391L324.096 232.73L323.285 230.251C323.285 229.921 323.095 229.728 322.717 229.673C322.554 229.673 322.23 229.507 322.392 229.342H323.204L325.556 229.177H325.475ZM327.098 230.003C326.99 229.673 326.773 229.48 326.449 229.425C326.205 229.507 326.043 228.929 326.449 229.094H327.666L328.234 229.838L330.019 232.235L329.938 231.987L330.262 229.012C330.424 228.846 330.83 229.012 331.073 228.846C331.317 228.846 331.885 228.846 331.722 229.177C331.344 229.177 331.182 229.342 331.236 229.673L332.209 232.648C332.263 232.978 332.48 233.116 332.858 233.061C333.102 233.061 333.102 233.557 332.858 233.474H331.398C331.019 233.584 330.83 233.502 330.83 233.226C331.073 233.226 331.479 233.061 331.317 232.73L330.505 230.086V230.416L330.343 232.896L330.262 233.557C330.046 233.557 329.911 233.474 329.856 233.309L327.504 230.251L327.666 230.499L328.396 232.896C328.504 233.171 328.721 233.309 329.045 233.309C329.261 233.529 329.207 233.639 328.883 233.639H327.666C327.449 233.529 327.449 233.419 327.666 233.309C327.99 233.199 328.044 232.978 327.828 232.648L327.098 230.003ZM334.156 230.664H334.562C334.833 230.719 335.022 230.609 335.13 230.334C335.13 229.948 334.995 229.618 334.724 229.342C334.4 229.177 334.075 229.122 333.751 229.177V229.59L334.156 230.664ZM334.562 231.987L334.887 232.813C335.157 232.923 335.401 232.951 335.617 232.896C335.833 232.896 335.941 232.758 335.941 232.482C335.941 231.932 335.698 231.518 335.211 231.243H334.4V231.491L334.562 231.987ZM333.021 230.003C333.021 229.673 332.858 229.397 332.534 229.177C332.263 229.177 332.101 229.094 332.047 228.929C331.966 228.681 332.453 228.929 332.615 228.846H334.806C335.455 229.067 335.806 229.507 335.86 230.169C335.806 230.499 335.617 230.747 335.292 230.912H335.698C336.131 231.078 336.455 231.408 336.672 231.904C336.888 232.235 336.888 232.593 336.672 232.978C336.293 233.254 335.887 233.364 335.455 233.309L333.589 233.391C333.345 233.391 333.264 232.978 333.589 233.061C333.859 233.006 333.913 232.813 333.751 232.482L333.021 230.003ZM337.158 229.838C337.158 229.507 336.996 229.232 336.672 229.012C336.401 229.012 336.239 228.929 336.185 228.764C336.347 228.516 336.672 228.764 336.996 228.681H338.619C339.322 228.736 339.782 229.122 339.998 229.838C340.106 230.279 339.998 230.609 339.674 230.83L339.349 230.995C339.89 231.215 340.269 231.546 340.485 231.987L340.891 232.648C341.053 232.703 341.134 232.62 341.134 232.4C341.458 232.235 341.621 232.648 341.458 232.896C341.242 233.226 340.972 233.336 340.647 233.226C340.506 233.209 340.371 233.154 340.257 233.067C340.143 232.98 340.054 232.864 339.998 232.73L339.187 231.325C338.916 231.16 338.673 231.133 338.457 231.243V231.573L338.862 232.565C339.024 232.785 339.241 232.896 339.511 232.896C339.836 232.896 339.836 233.309 339.511 233.226H337.483C337.321 232.813 337.807 232.978 337.97 232.813L337.807 232.069L337.158 229.838ZM338.213 230.664C338.294 230.912 338.7 230.664 338.862 230.664C339.133 230.609 339.241 230.472 339.187 230.251C339.187 229.81 339.052 229.452 338.781 229.177C338.511 229.012 338.24 228.984 337.97 229.094C337.862 229.149 337.862 229.287 337.97 229.507L338.213 230.582V230.664ZM343.811 228.516C344.028 228.571 344.136 228.709 344.136 228.929C344.136 229.149 344.217 229.37 344.379 229.59C344.163 229.755 344.001 229.7 343.892 229.425C343.892 229.149 343.73 228.984 343.406 228.929H342.351C342.243 229.039 342.243 229.204 342.351 229.425L342.675 230.582C342.946 230.582 343.162 230.527 343.325 230.416C343.568 230.334 343.243 230.003 343.487 229.838C343.757 229.893 343.865 230.086 343.811 230.416C343.865 230.802 343.974 231.16 344.136 231.491C343.974 231.656 343.838 231.601 343.73 231.325C343.676 231.05 343.487 230.94 343.162 230.995C343.081 230.995 342.757 230.83 342.838 230.995L343.243 232.4C343.352 232.62 343.541 232.703 343.811 232.648C344.19 232.648 344.514 232.593 344.785 232.482L344.866 231.821C345.191 231.711 345.326 231.794 345.272 232.069L345.434 232.896C345.38 233.061 345.272 233.116 345.109 233.061H342.594C342.324 233.116 342.108 233.116 341.945 233.061C341.702 232.73 342.108 232.813 342.27 232.648C342.432 232.482 342.27 232.235 342.27 232.069L341.54 229.507C341.54 229.177 341.377 228.984 341.053 228.929C340.62 228.929 340.485 228.819 340.647 228.598H341.458L343.811 228.516ZM317.2 239.342C317.2 239.011 317.037 238.736 316.713 238.515C316.388 238.515 316.253 238.433 316.307 238.267L317.119 238.185H319.066C320.147 238.46 320.851 239.094 321.175 240.085C321.392 240.746 321.337 241.38 321.013 241.986C320.526 242.482 319.931 242.702 319.228 242.647C318.687 242.647 318.173 242.702 317.686 242.812C317.524 242.895 317.2 242.73 317.362 242.482C317.686 242.482 317.849 242.344 317.849 242.069L317.524 240.829L317.2 239.342ZM318.498 241.408C318.552 241.683 318.66 241.931 318.822 242.151C319.093 242.262 319.363 242.262 319.634 242.151C320.012 242.151 320.256 241.903 320.364 241.408C320.428 240.782 320.315 240.152 320.039 239.589C319.934 239.333 319.768 239.108 319.555 238.935C319.343 238.762 319.091 238.646 318.822 238.598H317.93V238.928L318.498 241.408ZM324.258 237.689C324.475 237.744 324.583 237.882 324.583 238.102L324.745 238.846C324.529 238.956 324.393 238.901 324.339 238.68C324.231 238.405 324.069 238.24 323.853 238.185H322.798C322.69 238.295 322.69 238.46 322.798 238.68C322.798 239.121 322.879 239.507 323.041 239.837C323.312 239.837 323.528 239.782 323.69 239.672C323.853 239.507 323.609 239.176 323.853 239.094C324.069 239.204 324.177 239.397 324.177 239.672L324.421 240.746C324.421 240.994 324.015 240.746 324.015 240.581C323.961 240.306 323.771 240.195 323.447 240.251C323.366 240.251 323.041 240.168 323.204 240.333C323.204 240.719 323.312 241.16 323.528 241.655C323.582 241.876 323.771 241.958 324.096 241.903C324.475 241.903 324.799 241.821 325.07 241.655L325.232 240.994C325.394 240.884 325.502 240.994 325.556 241.325L325.719 242.151C325.61 242.262 325.475 242.289 325.313 242.234L322.879 242.399C322.609 242.509 322.365 242.509 322.149 242.399C322.041 242.179 322.149 242.069 322.473 242.069C322.69 241.903 322.717 241.711 322.554 241.49L321.987 238.846C321.878 238.515 321.716 238.322 321.5 238.267C321.175 238.267 321.04 238.157 321.094 237.937H321.905L324.258 237.689ZM329.532 241.077C329.532 241.352 329.694 241.545 330.019 241.655C330.235 241.655 330.424 241.711 330.587 241.821C330.668 242.069 330.262 241.986 330.1 241.986L328.721 242.069H328.071C327.855 241.958 327.882 241.848 328.153 241.738C328.423 241.738 328.612 241.628 328.721 241.408L328.639 240.746L328.071 238.433C328.071 238.212 327.909 238.129 327.585 238.185C327.368 238.295 327.179 238.267 327.017 238.102C327.017 237.771 327.422 237.854 327.585 237.771L328.477 237.441C328.639 237.441 328.721 237.523 328.721 237.689L329.532 241.077ZM332.534 238.35C332.534 237.964 332.345 237.744 331.966 237.689C331.641 237.689 331.425 237.771 331.317 237.937C331.209 238.267 331.317 238.543 331.641 238.763L332.372 239.176L332.534 238.68V238.35ZM333.183 240.746C333.075 240.361 332.804 240.085 332.372 239.92L331.966 239.837C331.84 239.929 331.743 240.056 331.685 240.202C331.628 240.349 331.612 240.509 331.641 240.664C331.804 241.215 332.074 241.49 332.453 241.49C332.777 241.6 333.048 241.49 333.264 241.16V240.746H333.183ZM333.994 240.581C333.994 241.022 333.832 241.38 333.507 241.655C333.075 241.931 332.534 241.986 331.885 241.821C331.398 241.711 331.073 241.38 330.911 240.829C330.911 240.388 331.046 240.003 331.317 239.672C331.398 239.672 331.722 239.589 331.479 239.507C330.992 239.342 330.722 239.011 330.668 238.515C330.505 238.074 330.641 237.716 331.073 237.441C331.433 237.252 331.848 237.207 332.238 237.314C332.628 237.421 332.965 237.673 333.183 238.019C333.345 238.405 333.345 238.736 333.183 239.011L332.696 239.424C333.129 239.479 333.453 239.7 333.67 240.085C333.832 240.196 333.913 240.361 333.913 240.581H333.994ZM336.59 241.077C336.807 241.077 336.942 240.967 336.996 240.746C337.077 240.581 336.996 240.168 337.24 240.251C337.402 240.251 337.483 240.416 337.483 240.746C337.537 241.077 337.429 241.38 337.158 241.655C336.996 241.766 336.78 241.793 336.509 241.738H335.13C334.914 241.848 334.724 241.848 334.562 241.738V241.16C334.778 240.609 335.049 240.168 335.373 239.837C335.752 239.617 335.968 239.314 336.023 238.928L335.86 237.937C335.803 237.843 335.727 237.763 335.638 237.7C335.55 237.636 335.449 237.592 335.344 237.569C335.238 237.546 335.128 237.544 335.022 237.565C334.916 237.586 334.815 237.628 334.724 237.689C334.454 237.854 334.373 238.047 334.481 238.267C334.643 238.433 334.968 238.267 335.049 238.598C335.157 238.873 335.076 239.039 334.806 239.094C334.535 239.149 334.265 238.956 333.994 238.515C333.886 238.019 334.048 237.634 334.481 237.358C334.914 237.083 335.373 237.028 335.86 237.193C336.347 237.358 336.672 237.689 336.834 238.185C336.942 238.515 336.915 238.873 336.753 239.259L335.373 240.664C335.265 240.774 335.238 240.939 335.292 241.16C335.401 240.994 335.536 240.939 335.698 240.994L336.59 241.077ZM339.755 240.746C339.755 240.967 339.917 241.132 340.241 241.242C340.458 241.242 340.647 241.297 340.809 241.408C340.972 241.655 340.566 241.655 340.404 241.655H338.213C338.105 241.435 338.159 241.325 338.375 241.325C338.592 241.325 338.781 241.215 338.943 240.994V240.333L338.375 238.019C338.321 237.799 338.186 237.716 337.97 237.771C337.753 237.826 337.564 237.826 337.402 237.771C337.24 237.441 337.645 237.441 337.807 237.358L338.781 237.028C338.997 237.028 339.106 237.11 339.106 237.276L339.755 240.746Z" fill="#B07E09"/>
<path d="M316.631 173.312L313.548 177.113C312.574 181.411 315.008 184.716 319.795 187.526C323.608 190.005 330.748 190.584 333.02 188.6L321.904 177.857L316.631 173.312Z" fill="url(#paint9_radial_3921_4093)" stroke="#4C0505" stroke-width="0.163766"/>
<path d="M339.186 284.793L337.564 282.727C330.508 292.473 321.455 300.538 311.033 306.363C323.284 302.892 331.316 293.801 339.186 284.793ZM326.611 314.296C331.176 305.198 336.102 296.293 341.377 287.603L339.673 285.372C333.669 295.454 326.692 307.437 326.692 314.296H326.611ZM360.524 219.673C359.754 215.972 358.584 212.369 357.036 208.93C348.326 194.002 336.116 181.508 321.499 172.568V172.32H321.824L321.743 172.238H322.067L321.905 171.99H322.23L321.986 171.659H322.311L322.067 171.411H322.473L322.23 171.081H322.554L322.23 170.833L322.716 170.75L322.311 170.502L322.716 170.42L322.392 170.172L322.879 170.007L322.473 169.759L322.96 169.511L322.473 169.18L323.041 169.015L322.392 168.767L322.96 168.436H322.311L322.716 167.858H322.148L322.392 167.445H321.905L322.148 167.031L321.58 167.114L321.824 166.618L321.337 166.949L321.499 166.37L320.931 166.701L321.013 166.122L320.526 166.536L320.607 165.957L320.201 166.37V165.792L319.796 166.288V165.709L319.471 166.122L319.309 165.627L318.984 166.122L318.903 165.544L318.66 166.122L318.497 165.544L318.254 166.122L318.092 165.627L317.93 166.122L317.767 165.627L317.605 166.288L317.443 165.709L317.199 166.37L316.956 165.792V166.453L316.631 165.875V166.536L316.226 166.04V166.701L315.901 166.205V166.784L315.577 166.536L315.739 167.114L315.333 166.866L315.496 167.362L315.171 167.197L315.252 167.693H314.928L315.09 168.023H314.846L315.009 168.354C314.715 169.287 314.604 170.27 314.684 171.246C314.684 171.411 315.171 171.577 315.252 171.742L315.414 172.238C314.116 174.386 312.98 176.039 312.899 178.518C313.873 177.196 315.009 175.543 316.469 175.543C315.739 176.783 315.414 180.584 316.226 181.163L316.875 180.089C316.875 180.915 316.983 181.549 317.199 181.989C317.416 181.438 317.686 180.97 318.011 180.584C318.011 181.852 318.173 182.761 318.497 183.312C318.876 182.706 319.309 182.265 319.796 181.989C319.579 182.706 319.498 183.449 319.552 184.221C320.039 183.449 320.553 182.761 321.094 182.155C320.769 183.477 321.094 184.469 321.418 185.873C321.743 184.221 321.905 183.973 322.635 183.312C322.716 184.882 322.473 186.287 322.797 187.196C323.447 185.791 323.933 185.956 324.42 185.047C324.258 186.369 324.014 187.774 324.42 188.931C324.687 188.061 325.229 187.306 325.962 186.782C325.962 188.601 326.367 188.27 325.313 189.84C325.799 190.005 327.341 189.51 328.233 189.096C327.828 190.088 327.909 190.832 327.503 191.576C328.315 191.025 329.099 190.363 329.856 189.592C329.532 190.749 328.639 191.906 329.045 192.98C329.369 191.879 329.991 191.19 330.911 190.914C330.749 191.493 330.667 192.733 329.856 193.311C331.803 193.476 332.615 192.154 333.588 191.08C333.507 192.154 333.588 193.063 334.886 194.633C334.643 192.65 335.049 193.063 335.941 191.906C336.428 193.642 336.915 195.542 338.7 196.865C337.888 194.964 337.888 193.972 338.213 192.815C338.456 194.055 339.592 195.542 339.835 196.617C339.998 195.294 340.268 194.192 340.647 193.311C341.243 194.79 341.626 196.348 341.783 197.939C342.215 197.112 342.513 196.286 342.675 195.46C358.739 212.401 362.309 234.053 344.703 256.944C351.032 252.647 352.654 245.787 356.143 239.92C352.736 247.605 351.275 256.2 345.19 262.563C351.032 257.44 352.249 252.729 355.737 247.771C352.087 258.101 346.813 269.422 339.673 279.835L343.568 284.132L346.813 278.43C354.439 265.704 366.853 247.44 360.605 219.673H360.524Z" fill="#448127" stroke="#34541F" stroke-width="0.163766"/>
<path d="M314.521 169.924C313.71 170.089 313.385 170.42 312.736 171.081C313.494 171.246 314.197 171.329 314.846 171.329C315.008 171.219 315.089 171.053 315.089 170.833L314.927 170.007C314.927 169.841 314.44 169.924 314.278 170.007L314.521 169.924Z" fill="#EAC102" stroke="#A08307" stroke-width="0.163766"/>
<path d="M318.173 170.667C318.531 170.667 318.822 170.371 318.822 170.006C318.822 169.641 318.531 169.345 318.173 169.345C317.814 169.345 317.523 169.641 317.523 170.006C317.523 170.371 317.814 170.667 318.173 170.667Z" fill="black" stroke="black" stroke-width="0.081883"/>
<path d="M318.335 170.254C318.47 170.254 318.579 170.106 318.579 169.924C318.579 169.741 318.47 169.593 318.335 169.593C318.201 169.593 318.092 169.741 318.092 169.924C318.092 170.106 318.201 170.254 318.335 170.254Z" fill="url(#paint10_radial_3921_4093)"/>
<path d="M326.692 314.048C328.16 309.095 330.174 304.326 332.695 299.834C334.498 296.405 336.42 293.043 338.456 289.752L340.565 286.446L338.537 289.752L332.858 299.917C330.485 304.448 328.425 309.143 326.692 313.965V314.048ZM311.357 306.197C320.833 301.992 329.12 295.427 335.454 287.107C332.258 290.193 329.225 293.448 326.367 296.859C321.87 300.747 316.806 303.897 311.357 306.197ZM341.62 281.984C342.269 281.102 342.864 280.193 343.405 279.257C345.147 276.52 346.771 273.708 348.273 270.827L351.356 265.043L354.358 259.258L352.979 262.15L351.518 265.125C349.552 268.991 347.468 272.794 345.271 276.53L341.62 281.984ZM346.407 261.241C349.193 257.889 351.513 254.163 353.303 250.167C355.934 244.145 357.579 237.724 358.171 231.16L358.09 234.466C357.404 239.933 355.813 245.242 353.384 250.167C351.552 254.158 349.205 257.882 346.407 261.241Z" fill="#34541F"/>
<path d="M345.109 256.448C347.947 253.376 350.326 249.896 352.168 246.118C353.525 243.3 354.717 240.403 355.738 237.441L355.981 236.697L356.225 235.953L356.711 234.466C357.535 230.27 357.59 225.955 356.874 221.739C356.924 223.871 357.114 225.997 357.442 228.103C357.442 230.306 357.252 232.427 356.874 234.466L356.387 236.036L356.143 236.78L355.819 237.524L352.249 246.283C351.354 248.176 350.323 249.999 349.166 251.738C347.985 253.478 346.625 255.084 345.109 256.531V256.448Z" fill="#34541F"/>
<path d="M340.322 280.579C341.35 279.257 342.324 277.879 343.243 276.447L344.703 274.381L346.083 272.315L348.517 267.852L350.626 263.307C352.087 260.277 353.439 257.164 354.683 253.969C357.107 247.679 358.557 241.044 358.983 234.301C359.676 227.557 358.957 220.741 356.873 214.302C359.175 220.691 359.953 227.545 359.145 234.301C358.715 241.07 357.265 247.732 354.845 254.052C353.601 257.192 352.249 260.277 350.788 263.307L348.517 267.852C347.814 269.395 347.029 270.883 346.164 272.315L344.785 274.464L343.324 276.53L340.403 280.662L340.322 280.579Z" fill="#34541F"/>
<path d="M342.594 283.141C346.411 276.782 350.037 270.305 353.466 263.72C358.418 253.685 360.844 242.553 360.524 231.326C360.524 227.579 360.2 223.888 359.551 220.252H359.632C360.335 223.943 360.66 227.634 360.606 231.326C360.585 238.779 359.603 246.197 357.685 253.39C356.617 256.969 355.26 260.452 353.628 263.803C350.171 270.361 346.518 276.81 342.675 283.141H342.594ZM320.039 174.469H321.175C322.331 174.651 323.454 175.013 324.501 175.544C327.21 177.014 329.674 178.911 331.803 181.163C329.646 178.989 327.186 177.151 324.501 175.709C323.084 175.069 321.579 174.651 320.039 174.469Z" fill="#34541F"/>
<path d="M333.345 183.394C333.345 183.394 335.779 184.882 337.159 187.03C337.159 187.03 333.345 186.287 330.668 183.229" fill="#448127"/>
<path d="M333.344 183.394C334.905 184.278 336.239 185.523 337.239 187.03L337.32 187.196H337.158C335.898 186.896 334.693 186.394 333.588 185.708C332.506 185.047 331.505 184.221 330.586 183.229C331.915 184.647 333.556 185.723 335.373 186.369L337.158 186.948V187.113C336.669 186.336 336.067 185.64 335.373 185.047L333.344 183.394Z" fill="#34541F"/>
<path d="M327.828 182.65C327.828 182.65 333.67 186.452 334.562 186.782C334.562 186.782 333.183 183.89 330.424 182.65" fill="#448127"/>
<path d="M327.828 182.65L331.155 184.716L333.67 186.204L334.481 186.7V186.782C334.045 185.894 333.47 185.085 332.777 184.386C332.091 183.68 331.296 183.094 330.424 182.65C331.349 183.005 332.181 183.571 332.858 184.303C333.558 185.027 334.134 185.865 334.562 186.782L334.724 186.948L334.481 186.865L332.777 185.873L327.828 182.65Z" fill="#34541F"/>
<path d="M330.18 180.75C330.18 180.75 333.182 182.072 333.913 184.303C333.913 184.303 328.395 181.989 327.422 180.75" fill="#448127"/>
<path d="M330.18 180.75C330.997 181.074 331.763 181.52 332.452 182.072L333.345 183.063L333.994 184.303V184.468H333.831C331.888 183.549 329.992 182.528 328.152 181.411L327.422 180.75L328.152 181.328L328.963 181.824C330.533 182.807 332.19 183.637 333.913 184.303H333.831C333.723 183.917 333.507 183.559 333.182 183.229L332.371 182.237C331.717 181.634 330.979 181.132 330.18 180.75Z" fill="#34541F"/>
<path d="M325.557 183.146C325.557 183.146 330.911 187.031 332.534 187.031C332.534 187.031 330.911 184.303 328.153 183.146" fill="#448127"/>
<path d="M325.557 183.146L331.561 186.7L332.534 186.948L332.453 187.113C331.949 186.25 331.32 185.47 330.587 184.799C329.855 184.136 329.036 183.58 328.153 183.146C329.541 183.71 330.769 184.619 331.723 185.791L332.534 187.031L332.696 187.113H332.534C332.155 187.113 331.804 187.031 331.479 186.865L330.668 186.452C328.847 185.551 327.132 184.442 325.557 183.146Z" fill="#34541F"/>
<path d="M325.557 184.303C325.557 184.303 328.315 186.783 329.938 186.783C329.938 186.783 328.315 184.056 325.557 182.816" fill="#448127"/>
<path d="M325.557 184.303L328.802 186.369L329.289 186.535L329.938 186.7L329.857 186.783C329.347 185.949 328.718 185.197 327.991 184.551C327.259 183.888 326.439 183.332 325.557 182.898C326.937 183.438 328.163 184.318 329.127 185.46L329.938 186.7L330.1 186.865H329.938L328.64 186.535C327.88 186.161 327.171 185.689 326.53 185.13L325.557 184.303Z" fill="#34541F"/>
<path d="M324.096 178.932C324.096 178.932 329.937 183.146 330.586 185.46C330.586 185.46 325.394 182.981 324.42 181.741" fill="#448127"/>
<path d="M324.096 178.932C326.291 180.547 328.329 182.373 330.181 184.386L330.749 185.378V185.625L330.586 185.543L325.069 182.32L325.881 182.816C327.426 183.791 329.056 184.62 330.749 185.295L330.586 185.46L330.018 184.469C328.837 182.928 327.474 181.54 325.962 180.337L324.096 178.932Z" fill="#34541F"/>
<path d="M291.641 298.016C286.542 300.741 280.847 302.106 275.09 301.983C283.203 295.206 291.073 295.041 291.641 298.016ZM348.272 301.735C352.491 305.619 365.31 308.346 367.338 307.85C358.738 299.008 349.408 298.098 348.272 301.735Z" fill="#406325" stroke="#24420E" stroke-width="0.163766"/>
<path d="M291.641 298.016C291.073 294.958 283.122 295.206 275.09 301.982C280.38 299.822 285.96 298.484 291.641 298.016ZM348.353 301.652C349.489 298.016 358.738 298.925 367.338 307.85C361.342 304.847 354.945 302.759 348.353 301.652Z" fill="#67923D" stroke="#24420E" stroke-width="0.163766"/>
</g>
<defs>
<radialGradient id="paint0_radial_3921_4093" cx="0" cy="0" r="1" gradientUnits="userSpaceOnUse" gradientTransform="translate(293.59 246.779) scale(13.387 13.6356)">
<stop offset="0.2" stop-color="#F9F0AA"/>
<stop offset="1" stop-color="#B07E09"/>
</radialGradient>
<radialGradient id="paint1_radial_3921_4093" cx="0" cy="0" r="1" gradientUnits="userSpaceOnUse" gradientTransform="translate(296.997 250.663) scale(8.84349 9.00774)">
<stop offset="0.2" stop-color="#F9F0AA"/>
<stop offset="1" stop-color="#B07E09"/>
</radialGradient>
<radialGradient id="paint2_radial_3921_4093" cx="0" cy="0" r="1" gradientUnits="userSpaceOnUse" gradientTransform="translate(299.025 247.027) scale(7.95105 8.09873)">
<stop offset="0.2" stop-color="#F9F0AA"/>
<stop offset="1" stop-color="#B07E09"/>
</radialGradient>
<radialGradient id="paint3_radial_3921_4093" cx="0" cy="0" r="1" gradientUnits="userSpaceOnUse" gradientTransform="translate(302.515 245.788) scale(14.1171 14.3794)">
<stop offset="0.2" stop-color="#F9F0AA"/>
<stop offset="1" stop-color="#B07E09"/>
</radialGradient>
<linearGradient id="paint4_linear_3921_4093" x1="315.09" y1="206.203" x2="313.828" y2="183.727" gradientUnits="userSpaceOnUse">
<stop offset="0.2" stop-color="#B07E09" stop-opacity="0"/>
<stop offset="1" stop-color="#B07E09"/>
</linearGradient>
<linearGradient id="paint5_linear_3921_4093" x1="322.554" y1="237.193" x2="324.574" y2="261.896" gradientUnits="userSpaceOnUse">
<stop offset="0.2" stop-color="#B07E09" stop-opacity="0"/>
<stop offset="1" stop-color="#B07E09"/>
</linearGradient>
<radialGradient id="paint6_radial_3921_4093" cx="0" cy="0" r="1" gradientUnits="userSpaceOnUse" gradientTransform="translate(292.453 200.584) scale(10.5473 10.7432)">
<stop offset="0.2" stop-color="#F9F0AA"/>
<stop offset="1" stop-color="#B07E09"/>
</radialGradient>
<linearGradient id="paint7_linear_3921_4093" x1="296.916" y1="198.187" x2="300.179" y2="190.876" gradientUnits="userSpaceOnUse">
<stop offset="0.2" stop-color="#F9F0AA"/>
<stop offset="1" stop-color="#B07E09"/>
</linearGradient>
<linearGradient id="paint8_linear_3921_4093" x1="314.603" y1="188.022" x2="316.791" y2="215.452" gradientUnits="userSpaceOnUse">
<stop offset="0.2" stop-color="#F9F0AA"/>
<stop offset="1" stop-color="#B07E09"/>
</linearGradient>
<radialGradient id="paint9_radial_3921_4093" cx="0" cy="0" r="1" gradientUnits="userSpaceOnUse" gradientTransform="translate(318.335 169.924) scale(0.243399 0.24792)">
<stop offset="0.3" stop-color="#A50A0A"/>
<stop offset="1" stop-color="#4C0505"/>
</radialGradient>
<radialGradient id="paint10_radial_3921_4093" cx="0" cy="0" r="1" gradientUnits="userSpaceOnUse" gradientTransform="translate(318.323 169.869) scale(0.23782 0.253737)">
<stop stop-color="white"/>
<stop offset="1" stop-color="white" stop-opacity="0"/>
</radialGradient>
<clipPath id="clip0_3921_4093">
<rect width="640" height="480" fill="white"/>
</clipPath>
</defs>
</svg>
