<svg width="640" height="480" viewBox="0 0 640 480" fill="none" xmlns="http://www.w3.org/2000/svg">
<g clip-path="url(#clip0_3921_4662)">
<mask id="mask0_3921_4662" style="mask-type:luminance" maskUnits="userSpaceOnUse" x="-1" y="0" width="643" height="482">
<path d="M-0.144531 0H641.499V481.28H-0.144531V0Z" fill="white"/>
</mask>
<g mask="url(#mask0_3921_4662)">
<path fill-rule="evenodd" clip-rule="evenodd" d="M664.436 481.28H-23.0801V0H664.436V481.28Z" fill="#BA0000"/>
<path fill-rule="evenodd" clip-rule="evenodd" d="M336.939 353.44C337.127 352.876 337.503 347.048 337.315 347.048C337.127 347.048 328.479 336.802 328.667 336.802C328.855 336.802 339.759 339.246 339.759 338.87C339.759 338.494 344.177 328.06 344.177 327.872L349.441 340.562L360.251 345.262L352.731 351.56L354.329 363.78C354.329 364.062 346.809 356.636 346.809 356.636L338.443 357.576C338.443 357.576 337.315 353.816 336.939 353.44Z" fill="#FFEF00" stroke="black" stroke-width="2.068"/>
<path fill-rule="evenodd" clip-rule="evenodd" d="M278.377 194.486C271.139 198.246 243.597 229.736 239.837 234.624C236.004 242.884 230.646 250.347 224.045 256.62C217.183 261.79 213.423 268.84 214.363 275.42C214.363 283.88 218.969 289.52 222.635 295.254C224.954 298.011 227.711 299.578 230.907 299.954C237.393 300.706 237.957 302.774 241.247 303.902C253.843 321.198 272.831 333.982 286.367 344.04C292.599 346.988 298.313 350.924 303.287 355.696C307.235 363.404 306.483 370.736 305.919 374.496L295.861 412.66C294.075 423 303.193 420.744 303.663 418.676C307.705 413.318 313.815 417.078 322.463 386.434L334.495 370.36C334.495 370.36 339.101 368.48 339.101 368.01C346.151 359.55 340.793 354.85 336.751 353.252L328.103 350.056C328.103 350.056 317.951 339.904 317.481 339.904C312.687 325.898 288.999 296.1 283.547 291.964C279.787 287.922 277.907 286.324 274.335 284.068C268.789 281.436 267.003 280.496 263.619 279.18C260.799 278.052 262.773 274.95 264.559 273.54C283.359 263.294 298.117 252.014 316.071 240.546L318.891 238.666L312.405 201.818L282.513 191.29C281.009 192.355 279.631 193.421 278.377 194.486Z" fill="white" stroke="black" stroke-width="2.444"/>
<path fill-rule="evenodd" clip-rule="evenodd" d="M303.382 388.314C303.382 387.938 322.182 384.554 322.182 384.554L319.832 391.51L301.314 397.15L303.382 388.314Z" fill="#FFEC00"/>
<path d="M254.783 318.19C256.706 313.794 259.495 309.83 262.983 306.536C266.472 303.241 270.588 300.683 275.087 299.014" stroke="black" stroke-width="2.068"/>
<path d="M302.724 388.502C303.946 388.22 309.304 386.622 310.808 386.34C312.5 386.026 314.129 385.588 315.696 385.024C317.576 384.648 318.704 384.272 320.584 383.99L325.284 382.674M299.34 400.064L301.69 398.184C302.724 397.808 306.39 396.304 307.8 396.022L312.218 394.706L316.542 393.578C317.92 393.014 319.299 392.575 320.678 392.262" stroke="black" stroke-width="2.256"/>
<path d="M306.86 320.916H306.672C307.424 320.916 306.954 320.916 305.826 322.232C305.45 323.266 302.066 325.71 299.434 325.71L295.016 325.992L293.794 325.71M306.672 376H307.988L311.936 376.282C313.346 376.282 314.662 376.658 315.978 376.658L320.396 377.034L324.814 377.316M324.814 377.316C326.13 377.41 326.882 377.598 328.292 377.598L324.814 377.316ZM297.554 408.618L299.716 406.738C300.656 406.456 304.04 404.858 305.356 404.67L309.304 403.26L313.346 402.32C314.6 401.693 315.853 401.223 317.106 400.91M322.558 362.182C321.806 364.344 322.84 364.908 323.216 365.848C324.666 367.396 326.523 368.503 328.574 369.044C329.702 369.326 330.454 369.608 331.77 370.172C332.46 370.234 333.086 370.391 333.65 370.642M216.714 281.53H216.996C216.15 281.53 216.714 281.624 218.03 280.59C218.97 279.556 219.628 279.086 220.474 278.052M234.01 300.612C234.198 300.612 249.614 292.904 251.212 291.212L254.69 288.486L257.134 286.888L259.296 284.35C260.236 283.504 259.766 282.658 260.612 281.624L261.834 278.052M281.386 289.52C281.48 290.084 281.198 291.776 281.198 293.092C281.198 294.596 279.224 299.202 276.874 300.612" stroke="black" stroke-width="2.068"/>
<path d="M253.845 289.332L260.143 291.306C264.843 292.998 274.619 299.202 275.653 300.048C276.593 300.8 278.473 301.552 279.037 302.398C280.102 303.338 281.011 304.34 281.763 305.406C282.765 306.534 283.549 307.599 284.113 308.602C289.247 315.728 293.478 323.464 296.709 331.632C297.367 332.29 297.649 333.23 298.307 334.264C298.871 335.58 299.529 336.144 300.187 337.178C301.127 337.836 302.255 339.058 303.383 339.622C304.605 340.656 305.733 341.032 306.673 341.784C307.895 342.348 321.995 351.184 322.653 351.654C323.969 352.688 327.823 356.73 325.097 359.738C323.969 360.678 322.841 362.088 321.901 362.558C320.773 363.56 319.551 364.25 318.235 364.626C311.937 366.506 308.647 365.848 307.425 365.848H306.109M222.637 257.842C224.517 258.594 223.765 258.03 225.363 258.782C226.491 259.252 227.243 259.252 228.183 259.722C229.405 260.004 232.601 260.662 234.105 262.166C235.233 263.106 235.985 264.046 237.301 264.704C238.648 265.624 240.099 266.381 241.625 266.96C243.191 267.649 244.758 268.056 246.325 268.182H253.657H249.897" stroke="black" stroke-width="2.068"/>
<path fill-rule="evenodd" clip-rule="evenodd" d="M222.259 275.702C226.207 275.42 232.881 276.642 233.069 276.642L241.905 276.454C246.605 276.078 247.545 274.292 248.297 272.976C250.083 270.344 251.211 269.404 252.621 267.336C254.689 265.832 257.697 269.498 257.791 269.498C265.311 276.642 259.295 285.29 258.919 285.572C255.159 289.05 254.313 289.238 252.057 287.076C249.801 284.35 249.143 283.128 247.263 282.188C243.597 280.496 236.171 281.812 235.983 281.812L232.129 283.316C230.249 283.974 229.121 285.572 226.019 286.136C222.729 286.324 221.695 286.042 220.097 283.41C217.935 280.12 218.969 276.078 222.259 275.702Z" fill="#FFE606" stroke="black" stroke-width="2.068"/>
<path fill-rule="evenodd" clip-rule="evenodd" d="M431.692 113.458C431.128 113.458 425.77 116.09 425.864 116.278C425.958 116.372 421.352 128.968 421.258 128.874C421.164 128.686 417.968 117.876 417.592 118.064C417.216 118.252 406.03 119.568 405.936 119.662L414.396 108.852L413.174 97.102L422.386 100.674L432.256 93.154C432.444 93.06 429.718 103.306 429.718 103.306L434.606 110.074C434.606 110.074 431.786 112.894 431.692 113.458Z" fill="#FFEF00" stroke="black" stroke-width="2.068"/>
<path fill-rule="evenodd" clip-rule="evenodd" d="M321.901 242.426C328.575 246.844 369.559 255.492 375.763 256.338C384.833 255.642 393.954 256.663 402.647 259.346C410.449 262.73 418.439 262.542 423.797 258.406C431.129 254.458 433.761 247.69 436.957 241.486C437.632 240.011 437.982 238.408 437.982 236.786C437.982 235.164 437.632 233.561 436.957 232.086C434.513 226.07 436.017 224.566 435.453 221.182C444.289 201.63 446.169 178.882 448.237 162.056C448.049 152.186 449.083 144.666 450.117 141.658C453.766 136.318 459.041 132.296 465.157 130.19L503.415 120.226C513.379 116.654 506.893 109.886 504.825 110.45C498.245 109.51 498.433 102.366 467.507 109.792L447.579 107.254C447.579 107.254 443.819 104.152 443.349 104.434C432.539 102.46 431.035 109.416 431.599 113.646L433.103 122.858C433.103 122.858 429.249 136.582 429.437 136.958C419.567 148.05 404.997 183.582 404.057 190.444C403.587 196.836 401.237 195.614 401.801 201.912C401.801 206.8 401.237 203.792 402.835 213.756C403.305 216.764 399.545 216.576 397.477 215.636C379.429 204.356 362.321 196.93 343.427 186.966L340.513 185.462L311.561 209.15L317.013 240.358C318.642 241.173 320.24 241.862 321.807 242.426H321.901Z" fill="white" stroke="black" stroke-width="2.444"/>
<path fill-rule="evenodd" clip-rule="evenodd" d="M478.598 125.584C474.3 120.873 470.131 116.046 466.096 111.108L473.24 109.698L487.152 123.14L478.598 125.584Z" fill="#FFEC00"/>
<path d="M441.28 202.288C436.503 202.775 431.676 202.293 427.089 200.871C422.502 199.45 418.249 197.119 414.584 194.016" stroke="black" stroke-width="2.068"/>
<path d="M479.068 126.054C478.128 125.208 474.18 121.354 473.24 120.038L469.668 116.466C468.446 115.056 467.506 114.21 466.284 112.706L462.9 109.322M490.724 123.422C490.442 123.422 488.844 122.764 487.904 122.294C487.152 121.448 483.956 119.098 483.11 117.97L479.82 114.774C478.692 113.552 477.846 112.894 476.718 111.484L473.522 108.664" stroke="black" stroke-width="2.256"/>
<path d="M418.062 155.57L418.156 155.852C417.78 155.1 417.968 155.57 419.754 155.852C420.882 155.664 424.642 157.45 425.864 159.706C426.616 160.74 427.744 162.338 428.308 163.466L428.684 164.688M466.284 128.78L466.096 128.592L465.532 127.652L463.84 123.986L462.242 120.32L460.362 116.372C459.61 114.962 459.234 113.74 458.482 112.236M458.482 112.236C457.824 111.108 457.73 110.356 456.978 109.134L458.482 112.236ZM499.09 120.696L496.458 119.756C495.706 119.098 492.698 116.936 491.758 115.996L488.656 113.176C487.716 111.954 486.87 111.296 485.836 110.074L482.828 107.536M446.262 121.636C448.612 121.26 448.612 120.132 449.176 119.286C449.646 118.346 450.022 115.996 449.364 113.082L448.8 109.792C448.487 109.04 448.33 108.413 448.33 107.912M427.932 253.424L427.838 253.236C428.214 253.988 428.026 253.518 426.334 252.766L423.044 251.826M436.11 228.984C436.016 228.796 421.728 219.208 419.472 218.644C418.156 217.986 416.934 217.704 415.43 216.952L412.798 215.636C411.576 215.448 410.542 214.978 409.508 214.978C408.38 214.602 407.722 215.354 406.5 215.166L402.74 215.824M403.21 193.17C403.586 192.794 405.278 192.23 406.406 191.572C407.722 190.914 412.704 190.35 415.054 191.666" stroke="black" stroke-width="2.068"/>
<path d="M416.559 217.328L415.149 210.748C414.594 204.871 414.594 198.954 415.149 193.076C415.337 191.854 415.149 189.88 415.619 188.846C415.932 187.593 416.339 186.34 416.841 185.086L418.439 181.42C419.097 177.66 429.719 162.526 430.471 161.774L432.351 159.236C432.727 158.359 433.228 157.419 433.855 156.416C434.795 155.382 434.983 154.536 435.547 153.408C435.641 152.374 436.111 150.682 436.111 149.46C436.393 147.862 436.111 146.64 436.393 145.606C436.205 144.196 437.051 127.558 437.145 126.806C437.427 125.114 439.025 119.756 442.973 120.696C444.383 121.166 446.075 121.448 447.109 122.106C448.425 122.482 449.553 123.516 450.587 124.268C455.287 128.874 456.321 131.976 456.979 133.104L457.637 134.232M404.245 259.44L404.151 259.252C404.464 259.879 404.37 259.534 403.869 258.218C403.775 256.996 403.399 255.398 403.211 254.27C402.929 253.048 402.365 251.732 402.553 250.98C402.083 249.758 402.365 248.818 402.553 247.596C402.835 246.092 403.023 245.058 403.023 243.648C403.211 241.768 403.023 240.64 403.117 238.948C402.647 237.538 402.553 236.41 401.895 235L400.015 231.24L398.135 227.95L400.015 231.146" stroke="black" stroke-width="2.068"/>
<path fill-rule="evenodd" clip-rule="evenodd" d="M420.13 251.544C417.968 248.16 415.712 241.768 415.618 241.674L411.2 233.966C408.568 230.206 406.5 230.206 404.996 230.206C401.8 229.924 400.39 229.266 398.04 229.172C395.596 228.044 397.382 223.626 397.288 223.532C399.826 213.568 410.448 214.508 410.824 214.696C415.618 216.294 416.182 216.952 415.43 219.96C414.208 223.25 413.55 224.472 413.55 226.54C413.832 230.488 418.72 236.41 418.72 236.504L421.916 239.136C423.42 240.452 425.394 240.64 427.368 243.178C429.154 245.904 429.436 246.938 427.932 249.57C426.052 253.142 422.104 254.176 420.13 251.544Z" fill="#FFE606" stroke="black" stroke-width="2.068"/>
<path fill-rule="evenodd" clip-rule="evenodd" d="M171.689 158.578C172.159 158.954 177.141 162.056 177.329 161.868C177.517 161.68 190.489 158.672 190.301 158.86C190.113 159.048 182.969 167.602 183.345 167.79C183.721 167.978 190.865 176.626 191.053 176.72L177.423 175.592L168.211 182.924L166.143 173.336L154.581 169.2C154.393 169.106 164.451 165.816 164.451 165.816L167.459 158.014C167.459 158.014 171.313 158.672 171.877 158.578H171.689Z" fill="#FFEF00" stroke="black" stroke-width="2.068"/>
<path fill-rule="evenodd" clip-rule="evenodd" d="M339.76 179.822C339.76 171.644 324.532 132.634 321.9 127.088C316.344 119.876 312.198 111.68 309.68 102.93C308.27 94.47 303.758 87.89 297.46 85.634C290.034 81.78 282.89 83.284 276.028 83.942C272.644 84.6 269.73 86.48 268.132 89.112C264.372 94.47 262.398 94 259.766 96.35C238.616 99.64 218.594 110.544 203.366 117.97C197.875 122.122 191.749 125.36 185.224 127.558C178.759 127.463 172.496 125.288 167.364 121.354L138.13 94.752C129.67 88.454 127.602 97.572 129.2 98.982C132.02 104.998 125.91 108.664 149.128 130.566L157.87 148.614C157.87 148.614 157.4 153.502 157.87 153.69C162.006 163.842 168.774 161.304 171.97 158.484L178.832 152.186C178.832 152.186 192.462 147.862 192.65 147.486C207.314 149.648 245.102 142.504 251.306 139.496C256.946 136.394 257.228 139.026 262.116 135.078C266.158 132.352 263.996 134.514 271.516 127.652C273.772 125.772 275.558 128.874 276.028 131.13C276.404 152.468 279.6 170.798 281.574 192.042L281.95 195.332L317.67 206.612L340.794 184.992L339.854 179.728L339.76 179.822Z" fill="white" stroke="black" stroke-width="2.444"/>
<path fill-rule="evenodd" clip-rule="evenodd" d="M156.178 112.612C156.46 112.894 150.914 131.036 150.914 131.036L145.838 125.866L149.41 106.784L156.178 112.612Z" fill="#FFEC00"/>
<path d="M240.871 101.896C247.639 109.416 249.801 121.824 248.579 128.78" stroke="black" stroke-width="2.068"/>
<path d="M156.461 111.954C156.179 113.176 155.051 118.722 154.581 120.132L153.453 125.114L152.137 130.002C151.949 131.569 151.635 133.135 151.197 134.702M147.719 103.682C147.813 103.964 148.189 105.562 148.283 106.596C148.095 107.724 147.813 111.672 147.343 113.082L146.497 117.594L145.557 121.918L144.805 126.242" stroke="black" stroke-width="2.256"/>
<path d="M214.457 146.922L214.551 146.64C214.175 147.392 214.551 146.922 213.799 145.324C212.953 144.384 212.483 140.342 213.611 137.992L215.491 133.95L216.243 133.01M165.671 121.26L165.577 121.448L165.013 122.388L162.945 125.866C162.381 127.088 161.347 128.028 160.783 129.25L158.527 133.01L156.083 136.77L154.203 139.778M140.855 98.1358C141.043 98.3238 141.513 99.9218 141.607 100.956C141.419 101.896 141.231 105.656 140.855 106.878L140.197 111.014C139.821 112.518 139.727 113.552 139.257 115.056L138.787 119.004M170.559 141.94C168.961 140.154 168.021 140.812 166.987 140.718C164.925 141.284 163.067 142.425 161.629 144.008C161.002 144.822 160.188 145.606 159.185 146.358C158.715 147.11 158.339 147.298 157.869 147.768M290.879 84.9758L290.785 85.2578C291.161 84.5058 290.879 84.8818 291.255 86.6678C291.725 87.8898 291.725 88.7358 292.195 89.8638M265.969 91.5558C265.969 91.7438 265.687 108.946 266.439 111.202C266.627 112.612 267.003 113.74 267.191 115.526L267.567 118.346C268.131 119.474 268.225 120.602 268.883 121.448C269.165 122.67 270.105 122.764 270.669 123.798C271.327 124.644 272.549 126.054 273.301 126.618M254.031 138.744C253.467 138.556 252.151 137.428 251.023 136.864C249.707 136.112 246.417 132.258 246.323 129.532" stroke="black" stroke-width="2.068"/>
<path d="M266.909 114.304L262.209 119.004C257.595 122.721 252.62 125.965 247.357 128.686C246.229 129.25 244.819 130.566 243.597 130.66C242.344 131.161 241.09 131.506 239.837 131.694C230.941 133.31 221.875 133.784 212.859 133.104L209.663 132.916C208.786 133.041 207.752 133.104 206.561 133.104C205.057 133.01 204.305 133.292 203.083 133.386C202.143 133.95 200.545 134.42 199.417 135.172C198.101 135.799 196.973 136.425 196.033 137.052C195.093 137.898 180.617 146.264 179.865 146.64C178.361 147.298 173.003 148.99 171.593 145.136C171.092 143.507 170.747 142.097 170.559 140.906C170.089 139.59 170.371 138.086 170.371 136.77C171.687 130.284 173.755 127.746 174.319 126.618L174.977 125.49M308.739 101.52L308.645 101.802C309.021 101.175 308.77 101.426 307.893 102.554C306.89 103.369 305.919 104.309 304.979 105.374C304.039 106.126 303.287 107.254 302.535 107.63C301.783 108.445 300.843 109.071 299.715 109.51C298.464 109.977 297.267 110.576 296.143 111.296C294.545 112.048 293.605 112.894 292.195 113.74C291.255 114.868 290.315 115.62 289.563 116.936C288.811 118.064 288.09 119.286 287.401 120.602L285.709 123.892M296.707 192.606L296.989 192.136C296.55 193.076 296.582 192.794 297.083 191.29C297.083 189.598 297.553 187.436 297.553 185.838C297.866 184.146 298.054 182.423 298.117 180.668C298.117 178.788 297.992 176.908 297.741 175.028L297.459 169.764C297.459 168.135 297.271 166.568 296.895 165.064L296.519 160.552C296.519 159.424 296.362 158.359 296.049 157.356L294.921 152.562L293.981 148.708C293.793 147.204 293.041 145.324 292.665 144.102C292.185 143.085 291.838 142.011 291.631 140.906C291.004 139.841 290.597 138.713 290.409 137.522L288.905 134.044L287.589 130.66L286.179 126.9C285.803 126.399 285.552 125.96 285.427 125.584" stroke="black" stroke-width="2.068"/>
<path fill-rule="evenodd" clip-rule="evenodd" d="M293.607 92.59C291.966 95.8121 290.014 98.8659 287.779 101.708L283.831 109.604C282.139 113.928 283.173 115.714 283.925 116.936C285.523 119.756 285.805 121.26 286.933 123.328C287.403 125.96 282.703 126.9 282.703 126.994C272.927 130.378 267.945 120.978 267.945 120.508C266.629 115.62 266.817 114.868 269.825 113.834C273.209 112.988 274.525 112.894 276.217 111.766C279.507 109.322 281.763 102.084 281.857 101.99L282.233 97.854C282.515 95.974 281.669 94.094 282.609 91.086C283.925 88.078 284.677 87.326 287.685 87.044C291.633 86.762 294.735 89.488 293.607 92.59Z" fill="#FFE606" stroke="black" stroke-width="2.068"/>
<path fill-rule="evenodd" clip-rule="evenodd" d="M280.821 187.718C279.317 186.308 308.457 198.246 312.499 198.34C317.951 196.366 340.605 177.284 340.605 177.284C340.793 179.164 341.639 183.958 343.801 184.992C335.059 192.042 327.163 198.904 318.421 205.954C318.985 217.234 317.011 229.172 322.651 241.674C322.651 241.674 315.883 241.862 315.883 241.674C309.867 235.658 307.705 206.706 307.705 206.706L278.941 193.922C280.351 192.982 281.385 190.256 280.821 187.624V187.718Z" fill="#FFEF00" stroke="black" stroke-width="2.068"/>
<path d="M308.551 217.422C309.021 217.046 303.287 220.054 301.783 220.806C275.369 234.906 261.739 255.586 260.893 256.338L258.825 259.534L256.663 262.354L253.279 266.772C253.091 267.336 253.655 266.49 253.467 266.96M326.693 200.596C328.654 202.171 330.693 203.646 332.803 205.014C357.431 222.122 381.965 224.848 383.093 225.224L386.853 225.694L390.425 226.164C391.741 226.352 394.561 226.916 395.877 227.292C396.441 227.104 395.407 227.01 395.877 226.916" stroke="black" stroke-width="2.068"/>
</g>
</g>
<defs>
<clipPath id="clip0_3921_4662">
<rect width="640" height="480" fill="white"/>
</clipPath>
</defs>
</svg>
