<svg width="640" height="480" viewBox="0 0 640 480" fill="none" xmlns="http://www.w3.org/2000/svg">
<g clip-path="url(#clip0_3921_4694)">
<path d="M0 0H640V160H0V0Z" fill="#FF9933"/>
<path d="M0 160H640V320H0V160Z" fill="white"/>
<path d="M0 320H640V480H0V320Z" fill="#128807"/>
<path d="M320 304C355.346 304 384 275.346 384 240C384 204.654 355.346 176 320 176C284.654 176 256 204.654 256 240C256 275.346 284.654 304 320 304Z" fill="#000088"/>
<path d="M320 296C350.928 296 376 270.928 376 240C376 209.072 350.928 184 320 184C289.072 184 264 209.072 264 240C264 270.928 289.072 296 320 296Z" fill="white"/>
<path d="M319.999 251.2C326.184 251.2 331.199 246.185 331.199 240C331.199 233.814 326.184 228.8 319.999 228.8C313.813 228.8 308.799 233.814 308.799 240C308.799 246.185 313.813 251.2 319.999 251.2Z" fill="#000088"/>
<path d="M375.145 250.186C376.722 250.393 378.168 249.283 378.376 247.706C378.583 246.129 377.473 244.683 375.896 244.475C374.319 244.267 372.873 245.378 372.665 246.954C372.457 248.531 373.568 249.978 375.145 250.186Z" fill="#000088"/>
<path d="M320 296L321.92 262.4L320 246.4L318.08 262.4L320 296Z" fill="#000088"/>
<path d="M370.628 264.111C372.098 264.719 373.783 264.022 374.391 262.552C375 261.083 374.302 259.398 372.833 258.789C371.363 258.18 369.678 258.878 369.07 260.348C368.461 261.817 369.159 263.502 370.628 264.111Z" fill="#000088"/>
<path d="M305.505 294.092L316.056 262.134L318.343 246.182L312.347 261.14L305.505 294.092Z" fill="#000088"/>
<path d="M362.663 276.393C363.925 277.362 365.733 277.124 366.701 275.862C367.67 274.6 367.432 272.792 366.17 271.824C364.908 270.855 363.1 271.093 362.132 272.355C361.163 273.617 361.401 275.425 362.663 276.393Z" fill="#000088"/>
<path d="M291.999 288.497L310.462 260.359L316.799 245.543L307.137 258.439L291.999 288.497Z" fill="#000088"/>
<path d="M351.791 286.195C352.759 287.457 354.567 287.695 355.829 286.727C357.091 285.758 357.329 283.951 356.361 282.689C355.392 281.427 353.584 281.189 352.323 282.157C351.061 283.125 350.823 284.933 351.791 286.195Z" fill="#000088"/>
<path d="M280.402 279.598L305.519 257.197L315.475 244.526L302.803 254.482L280.402 279.598Z" fill="#000088"/>
<path d="M338.749 292.849C339.358 294.318 341.043 295.016 342.512 294.408C343.982 293.799 344.68 292.114 344.071 290.645C343.462 289.175 341.777 288.477 340.308 289.086C338.838 289.695 338.141 291.379 338.749 292.849Z" fill="#000088"/>
<path d="M271.501 268L301.56 252.863L314.456 243.2L299.64 249.537L271.501 268Z" fill="#000088"/>
<path d="M324.433 295.902C324.64 297.479 326.087 298.589 327.664 298.381C329.241 298.173 330.351 296.727 330.143 295.15C329.936 293.573 328.489 292.463 326.912 292.67C325.335 292.878 324.225 294.325 324.433 295.902Z" fill="#000088"/>
<path d="M265.907 254.494L298.859 247.653L313.817 241.657L297.866 243.943L265.907 254.494Z" fill="#000088"/>
<path d="M309.814 295.144C309.606 296.721 310.716 298.167 312.293 298.375C313.87 298.582 315.317 297.472 315.524 295.895C315.732 294.318 314.622 292.872 313.045 292.664C311.468 292.457 310.021 293.567 309.814 295.144Z" fill="#000088"/>
<path d="M264 240L297.6 241.92L313.6 240L297.6 238.08L264 240Z" fill="#000088"/>
<path d="M295.889 290.629C295.28 292.098 295.978 293.783 297.447 294.392C298.917 295 300.602 294.303 301.21 292.833C301.819 291.364 301.121 289.679 299.652 289.07C298.182 288.462 296.498 289.159 295.889 290.629Z" fill="#000088"/>
<path d="M265.908 225.506L297.866 236.057L313.818 238.343L298.86 232.348L265.908 225.506Z" fill="#000088"/>
<path d="M283.607 282.664C282.638 283.926 282.876 285.733 284.138 286.702C285.4 287.67 287.208 287.432 288.176 286.17C289.145 284.908 288.907 283.1 287.645 282.132C286.383 281.164 284.575 281.402 283.607 282.664Z" fill="#000088"/>
<path d="M271.503 212L299.642 230.463L314.458 236.8L301.562 227.138L271.503 212Z" fill="#000088"/>
<path d="M273.804 271.791C272.542 272.759 272.304 274.567 273.273 275.829C274.241 277.091 276.049 277.329 277.311 276.361C278.573 275.392 278.811 273.584 277.842 272.323C276.874 271.061 275.066 270.823 273.804 271.791Z" fill="#000088"/>
<path d="M280.402 200.402L302.803 225.519L315.474 235.475L305.518 222.803L280.402 200.402Z" fill="#000088"/>
<path d="M267.151 258.751C265.681 259.36 264.983 261.045 265.592 262.514C266.201 263.984 267.885 264.682 269.355 264.073C270.824 263.464 271.522 261.779 270.913 260.31C270.305 258.84 268.62 258.143 267.151 258.751Z" fill="#000088"/>
<path d="M292 191.503L307.137 221.562L316.8 234.458L310.463 219.642L292 191.503Z" fill="#000088"/>
<path d="M264.1 244.434C262.523 244.641 261.413 246.088 261.62 247.665C261.828 249.242 263.275 250.352 264.852 250.144C266.429 249.937 267.539 248.49 267.331 246.913C267.124 245.336 265.677 244.226 264.1 244.434Z" fill="#000088"/>
<path d="M305.507 185.908L312.349 218.86L318.345 233.818L316.058 217.866L305.507 185.908Z" fill="#000088"/>
<path d="M264.855 229.814C263.278 229.607 261.832 230.717 261.624 232.294C261.417 233.871 262.527 235.317 264.104 235.525C265.681 235.733 267.127 234.622 267.335 233.046C267.543 231.469 266.432 230.022 264.855 229.814Z" fill="#000088"/>
<path d="M320 184L318.08 217.6L320 233.6L321.92 217.6L320 184Z" fill="#000088"/>
<path d="M269.372 215.889C267.902 215.281 266.217 215.978 265.609 217.448C265 218.917 265.698 220.602 267.167 221.211C268.637 221.82 270.322 221.122 270.93 219.652C271.539 218.183 270.841 216.498 269.372 215.889Z" fill="#000088"/>
<path d="M334.495 185.908L323.944 217.866L321.657 233.818L327.653 218.86L334.495 185.908Z" fill="#000088"/>
<path d="M277.337 203.607C276.075 202.638 274.267 202.876 273.299 204.138C272.33 205.4 272.568 207.208 273.83 208.176C275.092 209.145 276.9 208.907 277.868 207.645C278.837 206.383 278.599 204.575 277.337 203.607Z" fill="#000088"/>
<path d="M348.001 191.503L329.538 219.641L323.201 234.457L332.863 221.561L348.001 191.503Z" fill="#000088"/>
<path d="M288.209 193.805C287.241 192.543 285.433 192.305 284.171 193.273C282.909 194.242 282.671 196.049 283.639 197.311C284.608 198.573 286.416 198.811 287.677 197.843C288.939 196.875 289.177 195.067 288.209 193.805Z" fill="#000088"/>
<path d="M359.598 200.402L334.481 222.803L324.525 235.474L337.197 225.518L359.598 200.402Z" fill="#000088"/>
<path d="M301.251 187.151C300.642 185.682 298.957 184.984 297.488 185.592C296.018 186.201 295.32 187.886 295.929 189.355C296.538 190.825 298.223 191.523 299.692 190.914C301.162 190.305 301.859 188.621 301.251 187.151Z" fill="#000088"/>
<path d="M368.499 212L338.44 227.137L325.544 236.8L340.36 230.463L368.499 212Z" fill="#000088"/>
<path d="M315.567 184.098C315.36 182.521 313.913 181.411 312.336 181.619C310.759 181.827 309.649 183.273 309.857 184.85C310.064 186.427 311.511 187.537 313.088 187.33C314.665 187.122 315.775 185.675 315.567 184.098Z" fill="#000088"/>
<path d="M374.093 225.506L341.141 232.347L326.183 238.343L342.134 236.057L374.093 225.506Z" fill="#000088"/>
<path d="M330.186 184.856C330.394 183.279 329.284 181.833 327.707 181.625C326.13 181.418 324.683 182.528 324.476 184.105C324.268 185.682 325.378 187.128 326.955 187.336C328.532 187.543 329.979 186.433 330.186 184.856Z" fill="#000088"/>
<path d="M376 240L342.4 238.08L326.4 240L342.4 241.92L376 240Z" fill="#000088"/>
<path d="M344.111 189.371C344.72 187.902 344.022 186.217 342.553 185.608C341.083 185 339.398 185.697 338.79 187.167C338.181 188.636 338.879 190.321 340.348 190.93C341.818 191.538 343.502 190.841 344.111 189.371Z" fill="#000088"/>
<path d="M374.092 254.494L342.134 243.943L326.182 241.657L341.14 247.652L374.092 254.494Z" fill="#000088"/>
<path d="M356.393 197.336C357.362 196.074 357.124 194.267 355.862 193.298C354.6 192.33 352.792 192.568 351.824 193.83C350.855 195.092 351.093 196.9 352.355 197.868C353.617 198.836 355.425 198.598 356.393 197.336Z" fill="#000088"/>
<path d="M368.497 268L340.358 249.537L325.542 243.2L338.438 252.862L368.497 268Z" fill="#000088"/>
<path d="M366.196 208.209C367.458 207.241 367.696 205.433 366.727 204.171C365.759 202.909 363.951 202.671 362.689 203.639C361.427 204.608 361.189 206.416 362.158 207.677C363.126 208.939 364.934 209.177 366.196 208.209Z" fill="#000088"/>
<path d="M359.598 279.598L337.197 254.481L324.526 244.525L334.482 257.197L359.598 279.598Z" fill="#000088"/>
<path d="M372.849 221.249C374.319 220.64 375.017 218.955 374.408 217.486C373.799 216.016 372.115 215.318 370.645 215.927C369.176 216.536 368.478 218.221 369.087 219.69C369.695 221.16 371.38 221.857 372.849 221.249Z" fill="#000088"/>
<path d="M348 288.497L332.863 258.438L323.2 245.542L329.537 260.358L348 288.497Z" fill="#000088"/>
<path d="M375.9 235.566C377.477 235.359 378.587 233.912 378.38 232.335C378.172 230.758 376.725 229.648 375.148 229.856C373.571 230.063 372.461 231.51 372.669 233.087C372.876 234.664 374.323 235.774 375.9 235.566Z" fill="#000088"/>
<path d="M334.493 294.092L327.651 261.14L321.655 246.182L323.942 262.134L334.493 294.092Z" fill="#000088"/>
</g>
<defs>
<clipPath id="clip0_3921_4694">
<rect width="640" height="480" fill="white"/>
</clipPath>
</defs>
</svg>
