<svg width="640" height="480" viewBox="0 0 640 480" fill="none" xmlns="http://www.w3.org/2000/svg">
<g clip-path="url(#clip0_3921_5135)">
<path d="M0 0H640V480H0V0Z" fill="white"/>
<path d="M1.30078 -0.0766602L638.688 480.011L1.30078 -0.0766602ZM1.30078 480.011L638.688 -0.0766602L1.30078 480.011Z" fill="black"/>
<path d="M0 -0.0766602V28.8395L280.494 239.967L0 451.194V479.912H43.9991L319.994 269.676L595.788 480.011H639.987V450.897L359.493 239.967L639.987 28.7405V0.022368H595.988L319.994 210.061L43.9991 -0.0766602H0Z" fill="#CF142B"/>
<path d="M364.199 65.0001C374.999 109 368.999 163.2 319.999 193.4C270.999 163.2 264.999 109 275.799 65.0001C287.399 54.5001 339.999 48.0001 364.199 65.0001Z" fill="#CF142B" stroke="#800000" stroke-width="0.5" stroke-miterlimit="140.8"/>
<path d="M295.1 90.9998C294.283 91.0076 293.471 90.8722 292.7 90.5998C292.101 90.0362 291.625 89.3554 291.3 88.5998L288.6 88.7998C287.836 88.5247 287.125 88.1187 286.5 87.5998C287.308 87.5297 288.075 87.2158 288.7 86.6998L286.2 86.1998C285.4 85.7998 284.7 85.3665 284.1 84.8998C284.967 84.8332 285.667 84.5665 286.2 84.0998L283.8 83.7998L282.1 82.4998C282.967 82.4998 283.7 82.1665 284.3 81.4998L282 81.3998L279.6 79.7998C280.524 79.7786 281.424 79.5017 282.2 78.9998L281.6 77.9998C281 76.7998 279.8 77.2998 278.9 76.8998C278.511 76.7782 278.169 76.5406 277.918 76.2189C277.668 75.8972 277.522 75.5068 277.5 75.0998C277.5 74.1998 277.9 72.7998 279.9 73.0998C278.9 71.4998 280 70.3998 281.1 69.8998C282.2 69.3998 283.1 69.6998 283.8 71.3998L285.2 70.5998C285.526 70.543 285.862 70.5681 286.176 70.6728C286.49 70.7775 286.773 70.9586 287 71.1998V72.3998C286.7 72.9998 286 73.3998 286 74.1998C285.7 74.9998 286.5 76.5998 286.5 76.5998C286.5 76.5998 290.5 79.7998 292.2 81.3998L295 84.3998H299.1L299.4 90.9998H295H295.1Z" fill="#FFD700" stroke="#806600" stroke-width="0.2" stroke-miterlimit="135.2"/>
<path d="M284.199 69.2001C284.571 69.4611 284.843 69.841 284.97 70.2773C285.098 70.7135 285.073 71.18 284.899 71.6001C285.099 71.9334 285.433 72.0668 285.899 72.0001C286.034 71.9662 286.16 71.9046 286.27 71.8193C286.379 71.734 286.47 71.6267 286.536 71.5044C286.602 71.3821 286.641 71.2474 286.652 71.1089C286.663 70.9705 286.645 70.8312 286.599 70.7001C286.199 70.4001 286.099 69.6001 284.199 69.1001V69.2001ZM279.699 69.7001L278.599 69.8001C279.058 69.8936 279.469 70.1449 279.761 70.5104C280.054 70.8758 280.209 71.3322 280.199 71.8001C280.599 71.9334 280.933 71.9001 281.199 71.7001C281.319 71.6214 281.421 71.5178 281.497 71.3962C281.574 71.2747 281.623 71.1382 281.642 70.9958C281.661 70.8535 281.649 70.7088 281.607 70.5715C281.565 70.4342 281.494 70.3075 281.399 70.2001C280.999 70.2001 280.599 69.7001 279.799 69.7001H279.699ZM278.399 73.9001C277.899 74.0001 277.199 73.5001 275.699 74.7001C276.139 74.5795 276.607 74.6129 277.025 74.7948C277.444 74.9767 277.787 75.2961 277.999 75.7001C278.333 75.7001 278.633 75.5668 278.899 75.3001C278.966 75.1767 279.006 75.0408 279.016 74.901C279.027 74.7612 279.008 74.6208 278.961 74.4888C278.914 74.3567 278.839 74.2361 278.743 74.1347C278.646 74.0333 278.529 73.9534 278.399 73.9001Z" fill="#377BC8" stroke="#2C5AA0" stroke-width="0.2" stroke-miterlimit="135.2"/>
<path d="M317.601 93.9998C317.001 93.7998 316.101 92.9998 315.401 92.9998C315.055 93.0054 314.717 93.1004 314.419 93.2757C314.121 93.4509 313.873 93.7004 313.701 93.9998C313.664 94.2639 313.68 94.5326 313.749 94.7902C313.818 95.0478 313.937 95.2891 314.101 95.4998L315.401 96.2998C314.944 96.7458 314.602 97.2944 314.401 97.8998C314.478 98.3213 314.688 98.7069 315.001 98.9998C315.267 99.5331 315.667 99.7998 316.201 99.7998L317.701 99.6998L317.801 100.8C317.988 101.183 318.292 101.497 318.67 101.694C319.048 101.892 319.479 101.964 319.901 101.9C320.139 101.966 320.394 101.942 320.616 101.831C320.838 101.72 321.011 101.531 321.101 101.3C321.401 100.9 321.401 99.8998 321.801 99.3998L323.701 97.7998C324.367 98.2665 324.567 98.9331 324.301 99.7998L325.901 98.3998L326.401 96.5998C326.711 96.8221 326.951 97.1285 327.093 97.4829C327.235 97.8373 327.272 98.2248 327.201 98.5998L328.801 97.3998L329.601 95.3998C330.267 96.1331 330.434 96.8998 330.101 97.6998C330.767 97.2829 331.344 96.7393 331.801 96.0998L332.201 94.4998C333.934 94.4998 334.867 94.0331 335.001 93.0998C335.001 92.5998 334.401 91.7998 333.101 91.4998L332.501 90.2998V89.1998C332.823 88.4169 333.339 87.7287 334.001 87.1998L336.801 85.6998L336.201 82.7998L329.701 81.7998L322.301 83.5998C323.701 84.1998 326.601 86.2998 326.401 87.0998C326.401 87.3998 325.701 87.6998 325.401 88.0998C325.267 88.4331 325.334 88.7665 325.601 89.0998C325.801 89.4998 326.601 89.5998 326.901 89.9998C327.101 90.3998 327.101 90.7331 326.901 90.9998C326.401 91.6998 324.701 91.9998 323.901 92.2998L319.901 94.3998C319.149 94.4055 318.402 94.2698 317.701 93.9998H317.601Z" fill="#FFD700" stroke="#806600" stroke-width="0.2" stroke-miterlimit="135.2"/>
<path d="M333.1 85.1C333.1 85.1 333 87.5 332 88.1C331.561 88.3014 331.064 88.3369 330.6 88.2C330.156 87.9996 329.801 87.644 329.6 87.2L329.3 86.1L327 85.4C325.8 85.4 324.6 85.6 323.4 86C324 84.7126 324.932 83.6081 326.1 82.8L330 82.5L333.1 85.1Z" fill="#FFD700" stroke="#806600" stroke-width="0.2" stroke-miterlimit="135.2"/>
<path d="M343.599 69.4C344.699 69.3 346.999 68.8 347.799 68.1L349.199 66.7C349.066 68.9 347.799 70.4667 345.399 71.4C343.419 72.1306 341.3 72.404 339.199 72.2L335.399 71.4C336.799 72.8 336.099 73.8 334.399 74.4C334.399 74.4 334.599 73.1 334.199 72.9C333.066 72.6333 331.899 72.9 330.699 73.7C329.756 74.1188 328.731 74.3237 327.699 74.3C326.477 74.4117 325.245 74.2407 324.099 73.8C323.299 73.6 321.799 72.5 321.299 72.6C319.899 72.8 318.299 73 317.599 74C317.399 74.3333 317.399 74.7333 317.599 75.2C318.238 76.0185 319.171 76.5565 320.199 76.7C322.999 77.3 325.799 77.4 328.599 77L338.199 75.1C341.199 74.6 344.999 73.7 347.199 73.2C350.109 72.4757 353.101 72.1394 356.099 72.2C361.399 72.3 363.099 75 362.999 77.8C362.799 80.6 359.699 81.9 356.999 82.8C352.199 84.2 345.599 83.4 341.399 83.2L343.399 84.8C344.199 85.4 344.599 86.6 345.399 86.8C346.699 87.2 348.599 86.4 349.899 86.4C351.799 86.2 354.899 86.4 354.899 86.4L356.199 85.6H357.399C358.066 85.8 358.333 86.4667 358.199 87.6C358.399 87.8667 358.733 88.0667 359.199 88.2H360.899L362.499 89L360.999 89.5L360.299 90.2C360.966 90.2 361.633 90.3 362.299 90.5L363.499 91.5L362.199 91.7L361.399 92.3C361.399 92.3 362.999 92.2 363.599 92.6L364.699 93.8H363.399L362.599 94.2L364.199 95.4C364.533 95.8667 364.733 96.4 364.799 97L363.699 96.4H362.899L363.099 98.6C363.099 99.2 364.099 99.8 364.099 100.2C364.215 100.384 364.268 100.6 364.25 100.817C364.232 101.033 364.144 101.238 363.999 101.4C363.75 101.73 363.404 101.974 363.01 102.099C362.616 102.225 362.193 102.225 361.799 102.1L360.799 101.5L359.899 102.5C359.399 102.9 359.299 102.9 358.599 102.9C358.12 102.894 357.659 102.717 357.299 102.4L356.599 100.8L354.999 101.1C354.714 101.097 354.432 101.033 354.173 100.912C353.915 100.792 353.685 100.617 353.499 100.4C353.403 100.098 353.38 99.7768 353.432 99.4638C353.484 99.1508 353.61 98.8547 353.799 98.6C354.199 98.2 355.399 98.1 355.999 97.8C356.617 97.4825 357.162 97.0398 357.599 96.5L353.799 93.5L352.199 91.4C352.199 91.4 348.799 92.4 347.499 92.4C345.374 92.6636 343.224 92.6636 341.099 92.4C336.299 92.4 333.099 85.8 328.799 84.2C327.731 83.8265 326.568 83.8265 325.499 84.2C320.499 85.2 315.099 91 310.199 92.2C308.066 92.6 305.933 92.8333 303.799 92.9L302.499 94.6C301.672 94.9305 300.79 95.1002 299.899 95.1L298.899 97.4C298.312 97.9446 297.635 98.3843 296.899 98.7C297.05 98.3355 297.128 97.9447 297.128 97.55C297.128 97.1553 297.05 96.7645 296.899 96.4L295.399 98.4L293.199 99.5C293.399 98.9 293.699 98.2 293.199 97.4L291.999 99.2C291.333 99.6667 290.666 100 289.999 100.2C290.236 99.8632 290.363 99.4616 290.363 99.05C290.363 98.6384 290.236 98.2368 289.999 97.9L288.799 99.8L286.199 101.1C286.579 100.361 286.718 99.5221 286.599 98.7H285.399C283.899 98.7 283.799 100 283.099 100.6C282.749 100.831 282.355 100.985 281.942 101.054C281.528 101.123 281.105 101.105 280.699 101C279.899 100.6 278.999 99.6 280.199 98C278.199 98.2 277.199 97 277.199 95.8C277.199 94.8 277.499 93.9 279.599 94L279.399 92.6C279.449 92.2464 279.632 91.9252 279.911 91.7022C280.19 91.4791 280.543 91.371 280.899 91.4C281.299 91.4 281.699 91.6 282.099 92C282.499 92.4 282.599 93.1 283.299 93.6C284.099 94.2 285.999 94.1 285.999 94.1C288 93.027 290.071 92.0915 292.199 91.3C293.499 90.9 297.199 90.3 297.199 90.3V81C301.554 81.0408 305.9 81.4085 310.199 82.1L315.399 81.8C315.399 81.8 323.799 80.5 327.799 80.1C329.799 79.9 331.833 79.8333 333.899 79.9C336.899 80.1 339.499 80.8 342.499 80.9C344.633 81.2333 346.766 81.3333 348.899 81.2C352.399 81 358.599 81.2 360.599 78.2C360.837 77.7688 360.907 77.265 360.796 76.7853C360.685 76.3056 360.402 75.8835 359.999 75.6C359.62 75.2057 359.14 74.9227 358.611 74.7817C358.082 74.6407 357.525 74.647 356.999 74.8C356.066 74.9333 355.499 75.3333 355.299 76C355.231 76.1921 355.223 76.4004 355.277 76.5969C355.331 76.7935 355.443 76.969 355.599 77.1C355.799 77.5 356.166 77.8 356.699 78C355.952 78.1096 355.19 78.0056 354.499 77.7C353.877 77.0782 353.399 76.3271 353.099 75.5C352.918 75.7029 352.781 75.9406 352.695 76.1985C352.609 76.4564 352.576 76.7291 352.599 77C352.599 77.6667 352.833 78.2 353.299 78.6C352.434 78.6 351.592 78.3193 350.899 77.8C350.476 77.1233 350.172 76.3793 349.999 75.6C349.751 75.7863 349.549 76.0279 349.41 76.3056C349.271 76.5833 349.199 76.8895 349.199 77.2C349.266 77.7333 349.433 78.3 349.699 78.9C348.876 78.6932 348.119 78.2803 347.499 77.7C347.126 77.0189 346.888 76.2717 346.799 75.5L337.799 77.3L328.299 78.9C324.523 79.5388 320.648 79.2645 316.999 78.1C315.399 77.3 314.599 76.8 314.199 75.4C314.126 74.9022 314.179 74.394 314.354 73.9222C314.529 73.4504 314.819 73.0301 315.199 72.7C316.582 71.3719 318.318 70.4694 320.199 70.1C323.099 69.3944 326.037 68.8601 328.999 68.5C332.169 68.1877 335.367 68.3223 338.499 68.9C339.899 69.1 341.499 68.8 341.799 68.3C342.199 67.9 342.799 67.5 341.999 66.5C342.799 66.5 343.399 66.9 343.799 67.7C344.099 68.1 343.799 69.3 343.799 69.3L343.599 69.4Z" fill="#FFD700"/>
<path d="M343.599 69.4C344.699 69.3 346.999 68.8 347.799 68.1L349.199 66.7C349.066 68.9 347.799 70.4667 345.399 71.4C343.419 72.1306 341.3 72.404 339.199 72.2L335.399 71.4C336.799 72.8 336.099 73.8 334.399 74.4C334.399 74.4 334.599 73.1 334.199 72.9C333.066 72.6333 331.899 72.9 330.699 73.7C329.756 74.1188 328.731 74.3237 327.699 74.3C326.477 74.4117 325.245 74.2407 324.099 73.8C323.299 73.6 321.799 72.5 321.299 72.6C319.899 72.8 318.299 73 317.599 74C317.399 74.3333 317.399 74.7333 317.599 75.2C318.238 76.0185 319.171 76.5565 320.199 76.7C322.999 77.3 325.799 77.4 328.599 77L338.199 75.1C341.199 74.6 344.999 73.7 347.199 73.2C350.109 72.4757 353.101 72.1394 356.099 72.2C361.399 72.3 363.099 75 362.999 77.8C362.799 80.6 359.699 81.9 356.999 82.8C352.199 84.2 345.599 83.4 341.399 83.2L343.399 84.8C344.199 85.4 344.599 86.6 345.399 86.8C346.699 87.2 348.599 86.4 349.899 86.4C351.799 86.2 354.899 86.4 354.899 86.4L356.199 85.6H357.399C358.066 85.8 358.333 86.4667 358.199 87.6C358.399 87.8667 358.733 88.0667 359.199 88.2H360.899L362.499 89L360.999 89.5L360.299 90.2C360.966 90.2 361.633 90.3 362.299 90.5L363.499 91.5L362.199 91.7L361.399 92.3C361.399 92.3 362.999 92.2 363.599 92.6L364.699 93.8H363.399L362.599 94.2L364.199 95.4C364.533 95.8667 364.733 96.4 364.799 97L363.699 96.4H362.899L363.099 98.6C363.099 99.2 364.099 99.8 364.099 100.2C364.215 100.384 364.268 100.6 364.25 100.817C364.232 101.033 364.144 101.238 363.999 101.4C363.75 101.73 363.404 101.974 363.01 102.099C362.616 102.225 362.193 102.225 361.799 102.1L360.799 101.5C360.599 101.9 360.299 102.233 359.899 102.5C359.54 102.817 359.078 102.994 358.599 103C358.107 102.967 357.644 102.754 357.299 102.4L356.599 100.8L354.999 101.1C354.714 101.097 354.432 101.033 354.173 100.912C353.915 100.792 353.685 100.617 353.499 100.4C353.403 100.098 353.38 99.7768 353.432 99.4638C353.484 99.1508 353.61 98.8547 353.799 98.6C354.199 98.2 355.399 98.1 355.999 97.8C356.617 97.4825 357.162 97.0398 357.599 96.5L353.799 93.5L352.199 91.4C352.199 91.4 348.799 92.4 347.499 92.4C345.374 92.6636 343.224 92.6636 341.099 92.4C336.299 92.4 333.099 85.8 328.799 84.2C327.731 83.8265 326.568 83.8265 325.499 84.2C320.499 85.2 315.099 91 310.199 92.2C308.066 92.6 305.933 92.8333 303.799 92.9L302.499 94.6C301.672 94.9305 300.79 95.1002 299.899 95.1L298.899 97.4C298.312 97.9446 297.635 98.3843 296.899 98.7C297.064 98.3215 297.15 97.913 297.15 97.5C297.15 97.087 297.064 96.6785 296.899 96.3L295.399 98.3L293.199 99.5C293.399 98.9 293.699 98.2 293.199 97.4L291.999 99.2C291.333 99.6667 290.666 100 289.999 100.2C290.236 99.8632 290.363 99.4616 290.363 99.05C290.363 98.6384 290.236 98.2368 289.999 97.9L288.799 99.8L286.199 101.1C286.579 100.361 286.718 99.5221 286.599 98.7H285.399C283.899 98.7 283.799 100 283.099 100.6C282.749 100.831 282.355 100.985 281.942 101.054C281.528 101.123 281.105 101.105 280.699 101C279.899 100.6 278.999 99.6 280.199 98C278.199 98.2 277.199 97 277.199 95.8C277.199 94.8 277.499 93.9 279.599 94L279.399 92.6C279.449 92.2464 279.632 91.9252 279.911 91.7022C280.19 91.4791 280.543 91.371 280.899 91.4C281.299 91.4 281.699 91.6 282.099 92C282.499 92.4 282.599 93.1 283.299 93.6C284.099 94.2 285.999 94.1 285.999 94.1C288 93.027 290.071 92.0915 292.199 91.3C293.499 90.9 297.199 90.3 297.199 90.3V81C301.554 81.0408 305.9 81.4085 310.199 82.1L315.399 81.8C315.399 81.8 323.799 80.5 327.799 80.1C329.799 79.9 331.833 79.8333 333.899 79.9C336.899 80.1 339.499 80.8 342.499 80.9C344.633 81.2333 346.766 81.3333 348.899 81.2C352.399 81 358.599 81.2 360.599 78.2C360.837 77.7688 360.907 77.265 360.796 76.7853C360.685 76.3056 360.402 75.8835 359.999 75.6C359.62 75.2057 359.14 74.9227 358.611 74.7817C358.082 74.6407 357.525 74.647 356.999 74.8C356.066 74.9333 355.499 75.3333 355.299 76C355.299 76.4667 355.399 76.8 355.599 77C355.866 77.4 356.233 77.7333 356.699 78C356.699 78 354.999 78 354.299 77.6C353.733 77.0088 353.321 76.2877 353.099 75.5C352.918 75.7029 352.781 75.9406 352.695 76.1985C352.609 76.4564 352.576 76.7291 352.599 77C352.599 77.6667 352.833 78.2 353.299 78.6C352.434 78.6 351.592 78.3193 350.899 77.8C350.476 77.1233 350.172 76.3793 349.999 75.6C349.751 75.7863 349.549 76.0279 349.41 76.3056C349.271 76.5833 349.199 76.8895 349.199 77.2C349.266 77.7333 349.433 78.3 349.699 78.9C348.876 78.6932 348.119 78.2803 347.499 77.7C347.126 77.0189 346.888 76.2717 346.799 75.5L337.799 77.3L328.299 78.9C324.51 79.5602 320.614 79.2154 316.999 77.9C315.399 77.3 314.599 76.8 314.199 75.4C314.108 74.8866 314.153 74.3584 314.328 73.8674C314.503 73.3764 314.804 72.9396 315.199 72.6C316.594 71.3083 318.329 70.4411 320.199 70.1C323.099 69.3944 326.037 68.8601 328.999 68.5C332.136 68.1971 335.3 68.3317 338.399 68.9C339.799 69.1 341.399 68.8 341.799 68.3C342.199 67.8 342.799 67.5 341.899 66.5C342.283 66.5064 342.656 66.6229 342.975 66.8356C343.295 67.0484 343.546 67.3484 343.699 67.7C343.999 68.1 343.699 69.3 343.699 69.3L343.599 69.4Z" stroke="#806600" stroke-width="0.2" stroke-miterlimit="135.2"/>
<path d="M307.6 82.2998C308.6 82.9998 309.6 82.1998 309.8 82.0998L309 80.9998L308.8 78.9998C308.8 77.3998 309.4 77.0998 309.4 77.1998L311 76.4998C311.217 76.3142 311.392 76.0844 311.512 75.8256C311.633 75.5669 311.697 75.2853 311.7 74.9998L311.5 73.0998C309.9 73.0998 309.5 73.1998 309.1 73.6998L308.9 72.0998L308.3 70.8998L307.8 70.2998C307.733 70.7665 307.533 71.1331 307.2 71.3998L306.6 69.2998L305.4 68.2998L303.9 68.4998L302.3 70.0998L302.4 68.7998L301.6 68.9998L300.5 69.6998L299.5 70.8998C299.5 70.1998 299.1 69.8998 297.8 68.9998L296.6 70.5998C296.457 70.838 296.366 71.1033 296.332 71.3788C296.297 71.6542 296.32 71.9338 296.4 72.1998C296.667 72.7331 297 73.2331 297.4 73.6998C297.4 73.5998 297.8 74.1998 296.9 75.4998L295.6 76.9998L294.3 77.4998C294.6 78.3998 294.7 78.7998 296.1 78.9998C293.1 81.1998 292.7 84.6998 295.1 87.6998L296 86.1998C296.011 87.1583 296.366 88.081 297 88.7998C297.2 89.0998 297.4 90.7998 297.8 91.1998L298.8 92.1998C298.8 92.1998 299.1 90.8998 299.7 90.6998L301.7 90.0998C302.6 89.7998 303.8 88.1998 303.8 88.1998L303.6 90.1998C307.6 88.7998 308.6 85.9998 307.6 82.2998Z" fill="#FFD700"/>
<path d="M299.8 77.3999C299.883 78.78 299.608 80.1581 299 81.3999L301.5 82.3999L304.2 82.7999C303.9 81.6999 305 79.5999 305.5 78.9999H303.6L302.8 78.1999L301.2 78.4999L299.8 77.3999Z" fill="#504416"/>
<path d="M300.199 77.9998C299.97 78.6468 299.97 79.3528 300.199 79.9998L300.999 78.3998L300.199 77.9998ZM303.999 79.1998L303.799 80.9998C304.315 80.562 304.667 79.963 304.799 79.2998L303.999 79.1998ZM300.199 80.4998C299.684 80.9376 299.331 81.5366 299.199 82.1998H300.099L300.199 80.4998ZM303.499 81.3998L302.799 82.9998L303.399 83.3998C303.661 82.7643 303.696 82.0582 303.499 81.3998ZM300.499 72.7998C300.033 72.7998 299.699 72.9998 299.499 73.3998C299.499 73.9331 299.833 74.3331 300.499 74.5998C300.819 74.7079 301.168 74.6966 301.48 74.5679C301.793 74.4393 302.048 74.202 302.199 73.8998C302.266 73.4331 301.866 73.0998 300.999 72.8998L300.499 72.7998ZM305.899 74.3998C305.499 74.3331 305.233 74.4665 305.099 74.7998C305.092 75.1245 305.197 75.4418 305.398 75.6972C305.599 75.9526 305.882 76.1303 306.199 76.1998C307.066 76.3998 307.599 76.2331 307.799 75.6998C307.799 75.0998 307.466 74.6998 306.799 74.4998L305.899 74.3998Z" fill="white"/>
<path d="M300.5 72.6001L300 72.7001L299.4 73.3001L299.6 74.2001C299.867 74.4668 300.167 74.6668 300.5 74.8001C301.434 75.0001 302.034 74.7334 302.3 74.0001L302.1 73.2001L301.1 72.8001L300.5 72.6001ZM300.5 73.0001H301L301.8 73.4001C302.067 73.5334 302.167 73.7001 302.1 73.9001C301.988 74.1871 301.77 74.4198 301.49 74.5501C301.211 74.6804 300.892 74.6983 300.6 74.6001L299.8 74.0001V73.4001L300.1 73.0001H300.5ZM305.9 74.2001H305.7L305 74.7001C304.972 74.8842 304.981 75.0721 305.026 75.2528C305.072 75.4334 305.152 75.6032 305.264 75.7522C305.376 75.9012 305.516 76.0264 305.677 76.1205C305.838 76.2146 306.016 76.2756 306.2 76.3001C306.6 76.5001 306.934 76.5001 307.2 76.3001C307.534 76.3001 307.734 76.1001 307.8 75.7001L307.7 74.9001L306.7 74.4001L305.9 74.2001ZM305.9 74.5001L306.7 74.6001C307.034 74.6668 307.3 74.8001 307.5 75.0001C307.634 75.2001 307.667 75.4334 307.6 75.7001L307.1 76.2001H306.2C306.042 76.1759 305.89 76.1202 305.753 76.0363C305.616 75.9523 305.498 75.8418 305.405 75.7113C305.311 75.5808 305.245 75.4329 305.21 75.2764C305.175 75.1199 305.172 74.9579 305.2 74.8001C305.2 74.6668 305.367 74.5668 305.7 74.5001H305.9Z" fill="#D1B948"/>
<path d="M300.599 71.7001C300.43 71.6407 300.248 71.6279 300.072 71.663C299.896 71.6982 299.733 71.7801 299.599 71.9001L299.399 72.6001H299.799L300.499 72.7001L301.799 73.3001H303.299L302.099 72.6001C301.599 72.4001 301.099 71.8001 300.499 71.6001L300.599 71.7001ZM307.599 73.7001C306.999 73.6334 306.466 73.6334 305.999 73.7001L304.599 73.6001L305.799 74.4001L307.299 74.6001L307.899 74.8001L308.299 75.1001L308.599 74.5001C308.552 74.2708 308.427 74.0652 308.244 73.919C308.061 73.7729 307.833 73.6954 307.599 73.7001ZM298.999 81.4001C297.699 84.9001 302.999 86.6001 303.799 82.8001C302.113 82.7081 300.47 82.229 298.999 81.4001Z" fill="#FFD700"/>
<path d="M298.999 81.1001L298.799 81.4001C298.634 81.7786 298.549 82.1871 298.549 82.6001C298.549 83.0131 298.634 83.4216 298.799 83.8001C299.03 84.3908 299.454 84.8858 300.002 85.204C300.551 85.5223 301.191 85.645 301.818 85.5521C302.445 85.4592 303.022 85.1561 303.455 84.6925C303.888 84.2289 304.15 83.6322 304.199 83.0001V82.6001H303.899C302.221 82.5389 300.579 82.0942 299.099 81.3001L298.999 81.1001ZM299.099 81.5001C300.626 82.2973 302.288 82.8058 303.999 83.0001C303.841 83.6771 303.452 84.278 302.899 84.7001C302.199 84.972 301.437 85.0413 300.699 84.9001C300.049 84.5863 299.497 84.1026 299.099 83.5001C298.893 82.8835 298.893 82.2167 299.099 81.6001V81.5001Z" fill="#806600"/>
<path d="M301.3 78.4002C300.449 80.6988 300.175 83.1709 300.5 85.6002C302.1 83.8002 302.9 81.4002 303.5 79.2002C303.367 79.0002 303.2 78.8669 303 78.8002L302.6 78.2002L301.9 78.6002L301.3 78.5002V78.4002Z" fill="#377BC8" stroke="#2C5AA0" stroke-width="0.2" stroke-miterlimit="135.2"/>
<path d="M305.4 68.2002L303.9 68.5002L302.3 70.1002V68.8002L301.6 69.0002L300.4 69.7002L299.4 70.8002C299.8 70.8002 301 69.8002 301.4 69.9002C301.8 70.0002 301.6 70.9002 301.9 71.0002C302.4 71.0002 302.9 70.2002 303.5 69.8002C303.94 69.377 304.498 69.098 305.1 69.0002C305.385 69.164 305.626 69.3958 305.801 69.6749C305.975 69.954 306.078 70.2718 306.1 70.6002C306.367 71.4669 306.667 72.1002 307 72.5002C307.3 72.6002 307.6 71.7002 308 71.7002C308.5 71.9002 308.7 73.4002 309.1 73.7002L308.9 72.1002L308.2 70.9002L307.7 70.3002C307.633 70.7002 307.433 71.0669 307.1 71.4002L306.6 69.3002L305.4 68.2002ZM298.9 73.9002C298.3 74.9002 298.9 75.9002 300.1 76.0002L299.7 77.1002L300.3 78.4002L301.5 78.8002L302.5 78.4002L303.4 79.4002L304.4 79.6002L305.7 78.8002L306.2 77.9002H307L307.8 77.5002L308 76.6002C307.688 76.97 307.253 77.2143 306.775 77.2878C306.297 77.3614 305.808 77.2592 305.4 77.0002C305.419 77.5138 305.24 78.0151 304.9 78.4002C304.767 78.5202 304.603 78.6021 304.427 78.6373C304.251 78.6724 304.069 78.6596 303.9 78.6002C303.643 78.5225 303.404 78.394 303.198 78.2222C302.992 78.0504 302.823 77.8389 302.7 77.6002C302.233 77.9335 301.833 78.1002 301.5 78.1002C301.26 78.0373 301.04 77.9115 300.864 77.7357C300.689 77.56 300.563 77.3406 300.5 77.1002C300.481 76.5866 300.66 76.0853 301 75.7002C298.6 75.0002 299.4 74.3002 298.8 73.9002H298.9ZM297.6 74.2002L295.6 77.0002L294.3 77.5002C294.6 78.4002 294.7 78.8002 296.1 79.0002C293.1 81.2002 292.7 84.7002 295.1 87.7002L296 86.2002C296.011 87.1587 296.366 88.0814 297 88.8002C297.2 89.1002 297.4 90.8002 297.8 91.2002L298.8 92.2002C298.8 92.2002 299.1 90.9002 299.7 90.7002L301.7 90.1002C302.6 89.8002 303.8 88.2002 303.8 88.2002L303.7 90.2002C307.7 88.8002 308.7 86.0002 307.6 82.3002C308.6 83.0002 309.6 82.2002 309.8 82.1002L309 80.9002L308.8 78.9002L308.6 77.8002L308.1 79.5002V81.3002C307.402 81.1084 306.753 80.7672 306.2 80.3002L307 84.3002C307 85.1669 306.867 86.0669 306.6 87.0002C306.136 87.6607 305.56 88.2358 304.9 88.7002L305.2 86.3002C305.2 85.5002 304.8 83.3002 304.8 83.3002L304 86.3002L302.7 88.3002C303 86.2002 302.9 86.1002 302.6 85.3002C302.6 85.3002 302.1 87.9002 301.1 89.0002L299.5 89.8002L298.7 90.4002L298.1 88.6002L296.9 86.2002C296.6 85.0002 298.2 82.6002 298.2 82.6002C297.6 82.7335 296.967 83.2002 296.3 84.0002L295 85.8002L294.5 83.4002C294.559 82.6223 294.798 81.8689 295.2 81.2002C296.211 79.981 297.351 78.8746 298.6 77.9002C297.624 78.2073 296.576 78.2073 295.6 77.9002C295.6 77.9002 296.9 76.6002 297 76.3002C297.374 75.6984 297.581 75.0082 297.6 74.3002V74.2002ZM302.8 75.4002H301.5V76.0002L302.1 76.2002L302.9 77.2002L304.6 76.7002L304.9 76.3002L303.3 75.4002H302.8Z" fill="#FFD700"/>
<path d="M307.6 82.3002C308.6 83.0002 309.6 82.2002 309.8 82.1002L309 81.0002L308.8 79.0002C308.8 77.4002 309.4 77.1002 309.4 77.2002L311 76.5002C311.217 76.3146 311.392 76.0848 311.512 75.826C311.633 75.5673 311.697 75.2857 311.7 75.0002L311.5 73.1002C309.9 73.1002 309.5 73.2002 309.1 73.7002L308.9 72.1002L308.3 70.9002L307.8 70.3002C307.733 70.7669 307.533 71.1335 307.2 71.4002C307.177 70.7618 307.002 70.1382 306.689 69.5815C306.376 69.0248 305.934 68.5511 305.4 68.2002C304.133 68.2669 303.067 68.8669 302.2 70.0002L302.4 68.8002L301.6 69.0002L300.5 69.7002L299.5 70.9002C299.5 70.2002 299.1 69.9002 297.8 69.0002L296.6 70.6002C296.457 70.8384 296.366 71.1037 296.332 71.3792C296.297 71.6546 296.32 71.9342 296.4 72.2002C296.667 72.7335 297 73.2335 297.4 73.7002C297.4 73.6002 297.8 74.2002 296.9 75.5002L295.6 77.0002L294.3 77.5002C294.6 78.4002 294.7 78.8002 296.1 79.0002C293.1 81.2002 292.7 84.7002 295.1 87.7002L296 86.2002C296.011 87.1587 296.366 88.0813 297 88.8002C297.2 89.1002 297.4 90.8002 297.8 91.2002L298.8 92.2002C298.8 92.2002 299.1 90.9002 299.7 90.7002L301.7 90.1002C302.6 89.8002 303.8 88.2002 303.8 88.2002L303.6 90.2002C307.6 88.8002 308.6 86.0002 307.6 82.3002Z" stroke="#806600" stroke-width="0.2" stroke-miterlimit="135.2"/>
<path d="M297.799 70.2001C297.448 70.664 297.24 71.2199 297.199 71.8001L298.199 73.5001L298.599 71.1001C298.599 70.7001 297.799 70.1001 297.799 70.1001V70.2001ZM299.899 72.3001L299.599 72.4001L298.999 73.0001L299.799 72.6001H300.099C300.499 72.9334 300.899 73.1668 301.299 73.3001H303.199L302.999 74.1001C302.999 74.1001 302.299 74.3001 301.999 74.6001L301.699 75.0001L301.399 75.3001V76.1001H301.599C302.066 76.2334 302.333 76.5668 302.399 77.1001L302.599 77.3001H303.299C303.633 76.9668 304.066 76.8668 304.599 77.0001H304.699L304.799 76.9001C304.999 76.7668 305.066 76.5668 304.999 76.3001V76.0001L304.899 75.4001L304.499 74.4001L304.599 73.5001C305.046 74.0038 305.591 74.4119 306.199 74.7001L307.599 74.8001L307.899 75.0001L308.399 75.6001C308.399 75.2668 308.333 75.0001 308.199 74.8001C308.066 74.6668 307.899 74.6001 307.699 74.6001L306.399 74.4001C305.83 74.1853 305.317 73.8432 304.899 73.4001L304.599 73.2001L304.499 73.4001L304.199 74.6001L304.599 75.8001L304.699 76.5001V76.6001C304.396 76.5472 304.086 76.5648 303.791 76.6516C303.496 76.7383 303.225 76.8917 302.999 77.1001H302.899C302.639 76.556 302.221 76.103 301.699 75.8001V75.5001L301.799 75.3001L302.199 75.0001L303.199 74.2001C303.399 73.8668 303.499 73.5334 303.499 73.2001V72.8001H303.199C302.622 73.0035 302.007 73.0719 301.399 73.0001L300.199 72.4001H299.899V72.3001ZM298.899 73.7001C298.725 73.9431 298.608 74.2219 298.556 74.5161C298.504 74.8102 298.519 75.1123 298.599 75.4001C298.933 75.8001 299.333 76.0668 299.799 76.2001L299.699 76.4001L299.499 77.2001C299.633 77.7334 299.899 78.2001 300.299 78.6001C300.672 78.8812 301.132 79.0227 301.599 79.0001L302.399 78.6001L302.999 79.4001C303.385 79.6459 303.844 79.7518 304.299 79.7001C304.719 79.6711 305.119 79.5106 305.442 79.2413C305.765 78.972 305.995 78.6077 306.099 78.2001V78.1001C306.575 78.2062 307.072 78.135 307.499 77.9001C307.899 77.4334 308.133 76.9001 308.199 76.3001C307.799 76.6001 308.199 77.1001 307.199 77.7001C307.036 77.8076 306.845 77.8649 306.649 77.8649C306.454 77.8649 306.262 77.8076 306.099 77.7001L305.699 77.4001V78.4001L305.399 78.9001C305.066 79.2334 304.666 79.4001 304.199 79.4001L303.399 79.2001L302.799 78.4001V77.9001L302.499 78.2001L301.999 78.5001L301.499 78.6001L300.599 78.3001C300.193 78.0135 299.907 77.5857 299.799 77.1001L299.999 76.6001L300.199 76.2001L300.399 75.8001H299.999C299.791 75.8173 299.582 75.7686 299.403 75.661C299.223 75.5533 299.082 75.3921 298.999 75.2001C298.399 74.6001 298.999 74.2001 298.899 73.7001ZM310.899 73.9001C310.899 73.9001 309.899 73.9001 309.599 74.3001L308.799 76.6001L310.399 75.6001C310.733 75.0967 310.908 74.5042 310.899 73.9001Z" fill="#806600"/>
<path d="M300.999 73.1001C300.881 73.1231 300.772 73.1814 300.687 73.2674C300.602 73.3533 300.545 73.4629 300.523 73.5818C300.502 73.7006 300.517 73.8232 300.566 73.9336C300.615 74.0439 300.696 74.1368 300.799 74.2001C300.877 74.2732 300.973 74.3241 301.078 74.3475C301.182 74.371 301.291 74.3661 301.393 74.3334C301.494 74.3008 301.586 74.2415 301.657 74.1617C301.728 74.082 301.777 73.9846 301.798 73.8798C301.819 73.7749 301.811 73.6664 301.776 73.5654C301.741 73.4644 301.68 73.3745 301.598 73.3052C301.517 73.2359 301.418 73.1896 301.313 73.1712C301.208 73.1527 301.099 73.1627 300.999 73.2001V73.1001ZM306.399 74.7001C306.304 74.7359 306.219 74.7954 306.152 74.8732C306.086 74.9509 306.041 75.0443 306.021 75.1444C306.001 75.2446 306.007 75.3482 306.038 75.4454C306.069 75.5426 306.125 75.6303 306.199 75.7001C306.277 75.7732 306.373 75.8241 306.478 75.8475C306.582 75.871 306.691 75.8661 306.793 75.8334C306.894 75.8008 306.986 75.7415 307.057 75.6617C307.128 75.582 307.177 75.4846 307.198 75.3798C307.219 75.2749 307.211 75.1664 307.176 75.0654C307.141 74.9644 307.08 74.8745 306.998 74.8052C306.917 74.7359 306.818 74.6896 306.713 74.6712C306.608 74.6527 306.499 74.6627 306.399 74.7001Z" fill="#2B2200"/>
<path d="M280.2 91.5C279.7 91.8 279 91.3 277.5 92.5C277.953 92.3533 278.444 92.3735 278.884 92.5568C279.324 92.7401 279.684 93.0746 279.9 93.5C280.233 93.5 280.5 93.3 280.7 92.9C280.766 92.7766 280.806 92.6407 280.817 92.5009C280.827 92.3611 280.808 92.2207 280.761 92.0887C280.714 91.9566 280.64 91.836 280.543 91.7346C280.446 91.6332 280.329 91.5533 280.2 91.5ZM314.1 93.1C313.6 93.4 312.9 92.9 311.4 94.1C311.853 93.9533 312.344 93.9735 312.784 94.1568C313.224 94.3401 313.584 94.6746 313.8 95.1C313.964 95.0889 314.123 95.0375 314.262 94.9503C314.402 94.863 314.518 94.7427 314.6 94.6C314.685 94.4732 314.739 94.3286 314.76 94.1774C314.78 94.0261 314.766 93.8722 314.717 93.7274C314.669 93.5826 314.588 93.4508 314.481 93.3421C314.374 93.2333 314.244 93.1505 314.1 93.1ZM277.7 95.1C277.3 95.4 276.5 95.3 275.6 97C275.962 96.6901 276.423 96.5199 276.9 96.5199C277.376 96.5199 277.837 96.6901 278.2 97C278.533 96.8 278.7 96.4667 278.7 96C278.7 95.7348 278.594 95.4804 278.407 95.2929C278.219 95.1054 277.965 95 277.7 95V95.1ZM314.7 97.7C314.3 98.1 313.5 98 312.8 99.7C313.131 99.3866 313.56 99.1958 314.014 99.1595C314.469 99.1231 314.923 99.2432 315.3 99.5C315.7 99.3667 315.866 99.1 315.8 98.7C315.803 98.55 315.772 98.4013 315.71 98.2648C315.647 98.1283 315.555 98.0076 315.44 97.9115C315.325 97.8155 315.189 97.7466 315.044 97.71C314.898 97.6734 314.747 97.67 314.6 97.7H314.7ZM280.1 99L279.5 99.2C279.3 99.7 278.6 100 278.7 101.9C278.857 101.461 279.163 101.09 279.565 100.853C279.967 100.615 280.439 100.526 280.9 100.6C281.166 100.267 281.166 99.9333 280.9 99.6C280.831 99.4386 280.72 99.2981 280.58 99.1928C280.44 99.0875 280.274 99.021 280.1 99ZM353.9 99.3H353.4C353.3 99.8 352.4 100.1 352.3 102C352.515 101.575 352.875 101.24 353.315 101.057C353.755 100.873 354.246 100.853 354.7 101L354.9 99.9C354.817 99.708 354.676 99.5468 354.496 99.4391C354.317 99.3315 354.108 99.2828 353.9 99.3ZM318.7 100.5L318.1 100.8C318.1 101.3 317.3 101.6 317.6 103.5C317.732 103.079 317.999 102.713 318.361 102.459C318.723 102.206 319.158 102.08 319.6 102.1C319.8 101.633 319.8 101.3 319.6 101.1C319.531 100.939 319.42 100.798 319.28 100.693C319.14 100.587 318.974 100.521 318.8 100.5H318.7ZM362.5 100.7C362.291 100.683 362.082 100.732 361.903 100.839C361.724 100.947 361.583 101.108 361.5 101.3C361.7 101.8 361.2 102.5 362.3 104C362.187 103.549 362.235 103.072 362.436 102.652C362.636 102.232 362.977 101.896 363.4 101.7C363.425 101.502 363.391 101.302 363.302 101.124C363.213 100.945 363.073 100.798 362.9 100.7H362.5ZM357.7 101.3C357.5 101.3 357.266 101.433 357 101.7C357 102.1 356.4 102.7 357.1 104.5C357.158 104.038 357.35 103.602 357.652 103.247C357.954 102.892 358.353 102.632 358.8 102.5C358.847 102.322 358.843 102.134 358.79 101.958C358.738 101.781 358.637 101.623 358.5 101.5L357.7 101.3Z" fill="#377BC8" stroke="#2C5AA0" stroke-width="0.2" stroke-miterlimit="135.2"/>
<path d="M295.2 127C294.455 127.038 293.709 126.936 293 126.7C292.387 126.204 291.877 125.593 291.5 124.9H289L287 123.9C287.784 123.782 288.515 123.434 289.1 122.9L286.7 122.6L284.7 121.3C285.4 121.1 286.2 121.1 286.7 120.5L284.6 120.2L282.8 119C283.216 118.995 283.627 118.903 284.006 118.731C284.384 118.559 284.723 118.31 285 118L282.7 117.8L280.5 116.3C281.344 116.359 282.184 116.149 282.9 115.7L282.4 114.7C281.8 113.5 280.6 113.9 279.8 113.6C279.459 113.476 279.157 113.262 278.928 112.98C278.699 112.698 278.551 112.36 278.5 112C278.4 111.1 278.8 109.8 280.8 110C279.8 108.6 280.8 107.5 281.8 107C282.867 106.467 283.734 106.933 284.4 108.4L285.8 107.6C286.096 107.509 286.413 107.519 286.703 107.628C286.992 107.736 287.237 107.937 287.4 108.2C287.6 108.6 287.6 109 287.4 109.4C287.067 109.8 286.734 110.333 286.4 111C286.2 111.8 287 113.4 287 113.4C287 113.4 290.8 116.4 292.5 118L295.1 120.7H298.9L299.2 127H295.2Z" fill="#FFD700" stroke="#806600" stroke-width="0.2" stroke-miterlimit="128.6"/>
<path d="M284.799 106.3C285.132 106.569 285.37 106.937 285.478 107.351C285.586 107.765 285.558 108.203 285.399 108.6C285.666 108.933 285.999 109.066 286.399 109C286.63 108.91 286.819 108.737 286.93 108.515C287.041 108.294 287.066 108.039 286.999 107.8C286.599 107.4 286.599 106.8 284.799 106.3ZM280.599 106.8H279.399C279.858 106.893 280.269 107.145 280.561 107.51C280.854 107.876 281.009 108.332 280.999 108.8C281.151 108.888 281.324 108.934 281.499 108.934C281.675 108.934 281.847 108.888 281.999 108.8C282.106 108.706 282.191 108.591 282.249 108.461C282.308 108.332 282.338 108.192 282.338 108.05C282.338 107.908 282.308 107.768 282.249 107.638C282.191 107.509 282.106 107.394 281.999 107.3C281.799 107.3 281.399 106.8 280.599 106.8ZM279.299 110.8C278.799 110.8 278.199 110.5 276.699 111.6C277.125 111.504 277.57 111.549 277.967 111.73C278.365 111.91 278.692 112.216 278.899 112.6C279.366 112.6 279.666 112.433 279.799 112.1C279.901 111.861 279.906 111.591 279.813 111.348C279.719 111.106 279.535 110.909 279.299 110.8Z" fill="#377BC8" stroke="#2C5AA0" stroke-width="0.2" stroke-miterlimit="128.6"/>
<path d="M316.6 130C316 129.8 315.2 128.9 314.5 128.9C314.171 128.922 313.853 129.025 313.574 129.199C313.295 129.374 313.063 129.614 312.9 129.9C312.852 130.4 312.995 130.9 313.3 131.3L314.5 132.2L313.7 133.6C313.651 133.813 313.674 134.035 313.765 134.234C313.855 134.432 314.008 134.596 314.2 134.7C314.6 135.2 314.6 135.4 315.4 135.5L316.6 135.4C316.6 135.8 316.7 136.133 316.9 136.4C317.088 136.73 317.367 136.999 317.704 137.176C318.04 137.353 318.42 137.431 318.8 137.4C319.333 137.4 319.733 137.233 320 136.9C320.2 136.5 320.2 135.5 320.6 135.1L322.4 133.5C323.2 134 323.1 134.6 323 135.4L324.5 134.2L325 132.3C325.31 132.522 325.55 132.828 325.692 133.183C325.834 133.537 325.871 133.925 325.8 134.3L327.4 133.1L328.1 131.4C328.339 131.667 328.503 131.993 328.574 132.345C328.644 132.697 328.618 133.061 328.5 133.4C329.129 132.973 329.672 132.43 330.1 131.8L330.6 130.4C332.2 130.333 333.066 129.9 333.2 129.1C333.2 128.6 332.6 127.8 331.4 127.6L330.7 126.4V125.3C331.05 124.589 331.564 123.973 332.2 123.5L334.9 121.9L334.3 119.3L328.1 118.3L321.1 120C322.4 120.6 325.2 122.6 325.1 123.4C324.9 123.6 324.2 123.9 324 124.2C323.866 124.666 323.933 125 324.2 125.2C324.5 125.7 325.2 125.8 325.4 126.1C325.487 126.252 325.533 126.424 325.533 126.6C325.533 126.775 325.487 126.948 325.4 127.1C325 127.8 323.4 128 322.6 128.3L318.8 130.3C318.045 130.334 317.293 130.198 316.6 129.9V130Z" fill="#FFD700" stroke="#806600" stroke-width="0.2" stroke-miterlimit="128.6"/>
<path d="M331.399 121.4C331.399 121.4 331.299 123.7 330.399 124.2C329.959 124.495 329.419 124.603 328.899 124.5C328.512 124.238 328.229 123.849 328.099 123.4L327.799 122.4L325.499 121.7C324.378 121.757 323.269 121.958 322.199 122.3C322.744 121.12 323.567 120.09 324.599 119.3L328.399 119L331.399 121.4Z" fill="#FFD700" stroke="#806600" stroke-width="0.2" stroke-miterlimit="128.6"/>
<path d="M341.401 106.5C342.401 106.4 344.601 105.9 345.401 105.3L346.601 104C346.601 106 345.401 107.466 343.001 108.4C341.115 109.085 339.095 109.325 337.101 109.1L333.601 108.3C334.901 109.8 334.201 110.7 332.601 111.3C332.601 111.3 332.901 110 332.401 109.8C331.401 109.4 330.201 110 329.001 110.6C328.119 110.991 327.166 111.195 326.201 111.2C325.046 111.253 323.891 111.083 322.801 110.7C322.001 110.5 320.601 109.4 320.101 109.5C318.801 109.8 317.301 109.9 316.601 110.9C316.471 111.073 316.401 111.283 316.401 111.5C316.401 111.716 316.471 111.927 316.601 112.1C317.249 112.822 318.137 113.284 319.101 113.4C321.767 114 324.434 114.1 327.101 113.7C329.901 113.3 333.301 112.5 336.101 112L344.901 110C347.659 109.408 350.482 109.173 353.301 109.3C358.301 109.3 359.901 111.8 359.801 114.4C359.601 117.2 356.601 118.4 354.001 119.2C349.401 120.6 343.201 119.8 339.301 119.7L341.201 121.1C341.901 121.7 342.201 122.8 343.201 123.1C344.301 123.4 346.201 122.7 347.401 122.6L352.201 122.7C352.467 122.366 352.867 122.1 353.401 121.9H354.401C355.067 122.1 355.334 122.733 355.201 123.8L356.101 124.3C356.701 124.5 357.401 124.3 357.801 124.5L359.301 125.1L357.801 125.7L357.201 126.3L359.201 126.6C359.534 126.8 359.867 127.133 360.201 127.6H359.001L358.201 128.3C358.201 128.3 359.801 128.2 360.401 128.6L361.401 129.6L360.201 129.8L359.401 130.1L361.001 131.2L361.501 132.8L360.501 132.2H359.701L359.901 134.3C359.901 134.8 360.701 135.4 360.901 135.8C361.101 136.333 361.034 136.733 360.701 137C360.455 137.274 360.138 137.476 359.785 137.582C359.432 137.687 359.057 137.694 358.701 137.6L357.701 137L356.901 138C356.567 138.333 356.134 138.433 355.601 138.3C355.134 138.322 354.674 138.181 354.301 137.9L353.701 136.4L352.201 136.7C351.932 136.683 351.67 136.613 351.429 136.492C351.189 136.372 350.975 136.205 350.801 136C350.706 135.719 350.675 135.421 350.71 135.127C350.744 134.833 350.844 134.551 351.001 134.3C351.401 133.8 352.601 133.8 353.201 133.5L354.601 132.3L351.101 129.4L349.501 127.4L345.001 128.4C343.008 128.641 340.994 128.641 339.001 128.4C334.401 128.4 331.401 122.1 327.301 120.6C326.263 120.249 325.139 120.249 324.101 120.6C319.301 121.6 314.201 127 309.501 128.2C307.519 128.57 305.514 128.804 303.501 128.9C303.183 129.518 302.741 130.063 302.201 130.5C301.401 130.833 300.601 131 299.801 131L298.801 133.1C298.213 133.644 297.537 134.084 296.801 134.4C297.134 133.6 297.134 132.866 296.801 132.2L295.501 134.1L293.501 135.2C293.501 134.6 293.801 133.9 293.501 133.2L292.201 134.9C291.667 135.366 291.034 135.7 290.301 135.9C290.516 135.573 290.63 135.191 290.63 134.8C290.63 134.409 290.516 134.026 290.301 133.7L289.201 135.4L286.801 136.7C287.134 135.9 287.234 135.166 287.101 134.5H286.001C284.701 134.5 284.601 135.6 283.901 136.2C283.246 136.612 282.458 136.755 281.701 136.6C280.801 136.2 280.001 135.2 281.101 133.6C279.201 133.9 278.301 132.7 278.301 131.6C278.301 130.7 278.601 129.8 280.501 129.9L280.301 128.6C280.393 128.283 280.594 128.009 280.868 127.826C281.143 127.643 281.473 127.563 281.801 127.6C282.201 127.533 282.567 127.666 282.901 128C283.301 128.4 283.401 129 284.101 129.6C284.927 129.924 285.815 130.06 286.701 130C288.575 129.006 290.512 128.137 292.501 127.4C293.801 127 297.301 126.4 297.301 126.4V117.7H300.401C303.001 117.7 309.701 118.7 309.701 118.7L314.501 118.4C314.501 118.4 322.501 117.2 326.501 116.8C328.393 116.594 330.298 116.527 332.201 116.6C335.201 116.7 337.601 117.4 340.301 117.6C342.434 117.8 344.501 117.866 346.501 117.8C349.801 117.7 355.701 117.8 357.501 114.8C357.683 114.423 357.743 113.998 357.671 113.585C357.599 113.173 357.4 112.793 357.101 112.5C356.721 112.106 356.241 111.823 355.712 111.682C355.184 111.541 354.626 111.547 354.101 111.7C353.501 111.8 352.601 112.3 352.601 112.9C352.534 113.3 352.601 113.666 352.801 114L353.801 114.8C353.119 114.873 352.431 114.769 351.801 114.5C351.227 113.898 350.784 113.182 350.501 112.4C350.16 112.785 349.981 113.286 350.001 113.8C349.989 114.102 350.046 114.403 350.167 114.68C350.288 114.957 350.471 115.203 350.701 115.4C349.87 115.379 349.066 115.099 348.401 114.6L347.501 112.5C347.265 112.676 347.072 112.901 346.934 113.161C346.795 113.42 346.716 113.706 346.701 114C346.767 114.533 346.967 115.066 347.301 115.6C346.558 115.392 345.874 115.016 345.301 114.5C344.869 113.864 344.564 113.151 344.401 112.4L335.901 114C332.926 114.669 329.923 115.203 326.901 115.6C322.434 116.2 318.834 115.933 316.101 114.8C314.701 114.333 313.834 113.533 313.501 112.4C313.403 111.919 313.425 111.421 313.564 110.95C313.704 110.479 313.957 110.05 314.301 109.7C315.619 108.43 317.294 107.593 319.101 107.3C321.867 106.603 324.672 106.069 327.501 105.7C330.509 105.441 333.539 105.609 336.501 106.2C337.901 106.3 339.301 106 339.701 105.6C340.101 105.2 340.701 104.8 339.901 103.8C340.634 103.8 341.167 104.2 341.501 105C341.801 105.4 341.501 106.6 341.501 106.6L341.401 106.5Z" fill="#FFD700"/>
<path d="M341.401 106.5C342.401 106.4 344.601 105.9 345.401 105.3L346.601 104C346.601 106 345.401 107.466 343.001 108.4C341.115 109.085 339.095 109.325 337.101 109.1L333.601 108.3C334.901 109.8 334.201 110.7 332.601 111.3C332.601 111.3 332.901 110 332.401 109.8C331.401 109.4 330.201 110 329.001 110.6C328.119 110.991 327.166 111.195 326.201 111.2C325.046 111.253 323.891 111.083 322.801 110.7C322.001 110.5 320.601 109.4 320.101 109.5C318.801 109.8 317.301 109.9 316.601 110.9C316.471 111.073 316.401 111.283 316.401 111.5C316.401 111.716 316.471 111.927 316.601 112.1C317.249 112.822 318.137 113.284 319.101 113.4C321.767 114 324.434 114.1 327.101 113.7C329.901 113.3 333.301 112.5 336.101 112L344.901 110C347.659 109.408 350.482 109.173 353.301 109.3C358.301 109.3 359.901 111.8 359.801 114.4C359.601 117.2 356.601 118.4 354.001 119.2C349.401 120.6 343.201 119.8 339.301 119.7L341.201 121.1C341.901 121.7 342.201 122.8 343.201 123.1C344.301 123.4 346.201 122.7 347.401 122.6L352.201 122.7C352.467 122.366 352.867 122.1 353.401 121.9H354.401C355.067 122.1 355.334 122.733 355.201 123.8L356.101 124.3C356.701 124.5 357.401 124.3 357.801 124.5L359.301 125.1L357.801 125.7L357.201 126.3L359.201 126.6C359.534 126.8 359.867 127.133 360.201 127.6H359.001L358.201 128.3C358.201 128.3 359.801 128.2 360.401 128.6L361.401 129.6L360.201 129.8L359.401 130.1L361.001 131.2L361.501 132.8L360.501 132.2H359.701L359.901 134.3C359.901 134.8 360.701 135.4 360.901 135.8C361.101 136.333 361.034 136.733 360.701 137C360.455 137.274 360.138 137.476 359.785 137.582C359.432 137.687 359.057 137.694 358.701 137.6L357.701 137L356.901 138C356.541 138.317 356.08 138.494 355.601 138.5C355.108 138.467 354.645 138.253 354.301 137.9L353.701 136.4L352.201 136.7C351.932 136.683 351.67 136.613 351.429 136.492C351.189 136.372 350.975 136.205 350.801 136C350.706 135.719 350.675 135.421 350.71 135.127C350.744 134.833 350.844 134.551 351.001 134.3C351.401 133.8 352.601 133.8 353.201 133.5L354.601 132.3L351.101 129.4L349.501 127.4L345.001 128.4C343.008 128.641 340.994 128.641 339.001 128.4C334.401 128.4 331.401 122.1 327.301 120.6C326.263 120.249 325.139 120.249 324.101 120.6C319.301 121.6 314.201 127 309.501 128.2C307.519 128.57 305.514 128.804 303.501 128.9C303.183 129.518 302.741 130.063 302.201 130.5C301.436 130.806 300.624 130.976 299.801 131L298.801 133.1C298.213 133.644 297.537 134.084 296.801 134.4C297.134 133.6 297.134 132.866 296.801 132.2L295.501 134.1L293.501 135.2C293.501 134.6 293.801 133.9 293.501 133.2L292.201 134.9C291.667 135.366 291.034 135.7 290.301 135.9C290.516 135.573 290.63 135.191 290.63 134.8C290.63 134.409 290.516 134.026 290.301 133.7L289.201 135.4L286.801 136.7C287.134 135.9 287.234 135.166 287.101 134.5H286.001C284.701 134.5 284.601 135.6 283.901 136.2C283.246 136.612 282.458 136.755 281.701 136.6C280.701 136.2 280.001 135.2 281.101 133.6C279.201 133.9 278.301 132.7 278.301 131.6C278.301 130.7 278.601 129.8 280.501 129.9L280.301 128.6C280.393 128.283 280.594 128.009 280.868 127.826C281.143 127.643 281.473 127.563 281.801 127.6C282.201 127.533 282.567 127.666 282.901 128C283.301 128.4 283.401 129 284.101 129.6C284.927 129.924 285.815 130.06 286.701 130C288.575 129.006 290.512 128.137 292.501 127.4C293.801 127 297.301 126.4 297.301 126.4V117.7H300.401C303.001 117.7 309.701 118.7 309.701 118.7L314.501 118.4C314.501 118.4 322.501 117.2 326.501 116.8C328.393 116.594 330.298 116.527 332.201 116.6C335.201 116.7 337.601 117.4 340.301 117.6C342.434 117.8 344.501 117.866 346.501 117.8C349.801 117.7 355.701 117.8 357.501 114.8C357.683 114.423 357.743 113.998 357.671 113.585C357.599 113.173 357.4 112.793 357.101 112.5C356.721 112.106 356.241 111.823 355.712 111.682C355.184 111.541 354.626 111.547 354.101 111.7C353.501 111.8 352.601 112.3 352.601 112.9C352.541 113.069 352.529 113.251 352.564 113.427C352.599 113.603 352.681 113.766 352.801 113.9L353.801 114.8C353.047 114.834 352.295 114.698 351.601 114.4C351.048 113.854 350.665 113.159 350.501 112.4C350.16 112.785 349.981 113.286 350.001 113.8C349.989 114.102 350.046 114.403 350.167 114.68C350.288 114.957 350.471 115.203 350.701 115.4C349.87 115.379 349.066 115.099 348.401 114.6L347.501 112.5C347.265 112.676 347.072 112.901 346.934 113.161C346.795 113.42 346.716 113.706 346.701 114C346.767 114.533 346.967 115.066 347.301 115.6C346.558 115.392 345.874 115.016 345.301 114.5C344.869 113.864 344.564 113.151 344.401 112.4L335.901 114C332.926 114.669 329.923 115.203 326.901 115.6C322.434 116.2 318.834 115.933 316.101 114.8C314.701 114.333 313.834 113.533 313.501 112.4C313.403 111.919 313.425 111.421 313.564 110.95C313.704 110.479 313.957 110.05 314.301 109.7C315.619 108.43 317.294 107.593 319.101 107.3C321.867 106.603 324.672 106.069 327.501 105.7C330.509 105.441 333.539 105.609 336.501 106.2C337.901 106.3 339.301 106.1 339.701 105.6C340.101 105.1 340.701 104.8 339.901 103.8C340.634 103.8 341.167 104.2 341.501 105C341.801 105.4 341.501 106.6 341.501 106.6L341.401 106.5Z" fill="#FFD700" stroke="#806600" stroke-width="0.2" stroke-miterlimit="128.6"/>
<path d="M307.001 118.8C308.001 119.4 309.001 118.6 309.301 118.6L308.501 117.4L308.201 115.6C308.201 114 308.701 113.8 308.801 114L310.201 113.2C310.601 112.867 310.867 112.434 311.001 111.9L310.801 110C309.301 110 309.001 110.2 308.601 110.6L308.301 109.1L307.801 107.9L307.201 107.4C307.201 107.867 307.001 108.2 306.601 108.4L306.201 106.4C306.132 106.137 305.996 105.895 305.808 105.698C305.619 105.502 305.384 105.356 305.123 105.276C304.863 105.196 304.586 105.184 304.32 105.241C304.053 105.297 303.806 105.421 303.601 105.6L302.001 107.1L302.201 105.9L301.401 106.1L300.401 106.8L299.301 107.9C299.434 107.367 298.901 106.8 297.701 106.2L296.601 107.8C296.399 108.239 296.364 108.737 296.501 109.2L297.301 110.6C297.401 110.6 297.801 111 296.901 112.3L295.701 113.7C295.301 114.034 294.867 114.2 294.401 114.2C294.801 115 294.901 115.4 296.201 115.6C293.201 117.6 293.001 121 295.201 123.9C295.401 123.367 295.701 122.9 296.101 122.5C296.079 123.4 296.36 124.281 296.901 125C297.201 125.3 297.401 126.8 297.701 127.3L298.701 128.3C298.701 128.3 299.001 127 299.601 126.8L301.601 126.2C302.369 125.765 303.047 125.188 303.601 124.5L303.301 126.3C306.967 124.9 308.201 122.4 307.001 118.8Z" fill="#FFD700"/>
<path d="M299.601 114C299.684 115.38 299.409 116.758 298.801 118L301.401 119L303.801 119.2C303.601 118.2 304.601 116.2 305.001 115.6H303.301L302.501 114.8L301.001 115.1L299.601 114.1V114Z" fill="#504416"/>
<path d="M300 114.7C299.794 115.316 299.794 115.983 300 116.6L300.7 115L300 114.7ZM303.6 115.8L303.4 117.5C303.896 117.088 304.247 116.527 304.4 115.9H303.6V115.8ZM300 117C299.54 117.426 299.225 117.986 299.1 118.6L299.8 118.7L300 117ZM303.2 118L302.4 119.5L303.1 119.8C303.305 119.183 303.305 118.516 303.1 117.9L303.2 118ZM300.3 109.8C299.833 109.8 299.533 109.933 299.4 110.2C299.333 110.733 299.666 111.166 300.4 111.5C300.694 111.61 301.018 111.61 301.312 111.5C301.606 111.389 301.85 111.176 302 110.9C302 110.366 301.633 110.033 300.9 109.9L300.3 109.8ZM305.5 111.2C305.166 111.2 304.9 111.333 304.7 111.6C304.667 111.915 304.751 112.231 304.935 112.489C305.119 112.747 305.391 112.928 305.7 113C306.566 113.266 307.066 113.1 307.2 112.5C307.4 111.966 307.066 111.6 306.2 111.4L305.4 111.2H305.5Z" fill="white"/>
<path d="M300.301 109.6H299.901L299.401 110.2C299.334 110.533 299.367 110.8 299.501 111C299.701 111.333 299.967 111.533 300.301 111.6C300.645 111.731 301.028 111.72 301.365 111.57C301.702 111.42 301.966 111.144 302.101 110.8L301.801 110.2L300.801 109.7L300.301 109.6ZM300.301 109.8L300.801 109.9L301.601 110.3C301.69 110.344 301.76 110.419 301.797 110.511C301.834 110.604 301.835 110.707 301.801 110.8C301.758 110.938 301.685 111.066 301.588 111.174C301.491 111.281 301.372 111.367 301.239 111.424C301.106 111.481 300.962 111.508 300.817 111.504C300.672 111.5 300.53 111.465 300.401 111.4L299.701 111L299.501 110.3L299.901 109.9L300.301 109.8ZM305.501 111.1H305.301L304.601 111.6C304.572 111.784 304.581 111.972 304.626 112.153C304.672 112.333 304.753 112.503 304.864 112.652C304.976 112.801 305.116 112.926 305.277 113.021C305.438 113.115 305.616 113.176 305.801 113.2H306.801C307.067 113 307.267 112.767 307.401 112.5L307.101 111.7L306.301 111.3L305.501 111.1ZM305.501 111.4L306.201 111.5C306.467 111.5 306.734 111.633 307.001 111.9L307.101 112.5L306.601 112.9H305.801C305.651 112.903 305.502 112.872 305.365 112.81C305.229 112.748 305.108 112.656 305.012 112.54C304.916 112.425 304.847 112.29 304.811 112.144C304.774 111.999 304.77 111.847 304.801 111.7C304.801 111.433 304.967 111.333 305.301 111.4H305.501Z" fill="#D1B948"/>
<path d="M300.4 108.6C300.222 108.553 300.034 108.556 299.857 108.609C299.681 108.662 299.523 108.763 299.4 108.9C299.2 109 299.2 109.5 299.2 109.5H299.8L300.3 109.7L301.6 110.2H303L301.8 109.6C301.4 109.4 301 108.7 300.4 108.6ZM307 110.6C306.6 110.4 306 110.7 305.5 110.6L304.2 110.5L305.4 111.3L306.8 111.5L307.4 111.7L307.8 111.9L308 111.4C307.953 111.171 307.827 110.965 307.645 110.819C307.462 110.673 307.234 110.595 307 110.6ZM299 118C297.6 121.2 302.8 122.8 303.6 119.3C301.99 119.209 300.419 118.765 299 118Z" fill="#FFD700"/>
<path d="M298.799 117.6V117.9C298.648 118.265 298.57 118.655 298.57 119.05C298.57 119.445 298.648 119.836 298.799 120.2C299.022 120.743 299.421 121.195 299.932 121.483C300.444 121.77 301.037 121.876 301.617 121.783C302.196 121.691 302.727 121.405 303.123 120.972C303.52 120.539 303.758 119.985 303.799 119.4V119.1H303.599C301.984 119.045 300.405 118.599 298.999 117.8L298.799 117.7V117.6ZM298.999 118.1C300.415 118.768 301.939 119.174 303.499 119.3C303.367 119.963 303.015 120.562 302.499 121C301.876 121.295 301.169 121.365 300.499 121.2C299.813 120.944 299.244 120.446 298.899 119.8C298.736 119.245 298.736 118.655 298.899 118.1H298.999Z" fill="#806600"/>
<path d="M301.1 115.2C300.291 117.335 300.016 119.635 300.3 121.9C301.9 120.3 302.7 117.9 303.2 115.8L302.7 115.4L302.4 114.9L301.7 115.2H301.1Z" fill="#377BC8" stroke="#2C5AA0" stroke-width="0.2" stroke-miterlimit="128.6"/>
<path d="M305.001 105.4L303.601 105.6L302.001 107.1V105.9L301.401 106.1L300.201 106.8L299.201 107.8C299.801 107.8 300.901 106.8 301.201 107C301.601 107 301.201 108 301.701 108C302.201 108 302.601 107.4 303.201 106.9C303.801 106.367 304.334 106.133 304.801 106.2C305.042 106.355 305.248 106.56 305.403 106.802C305.558 107.043 305.66 107.316 305.701 107.6C305.901 108.467 306.167 109.067 306.501 109.4C306.801 109.6 307.101 108.6 307.501 108.7C307.901 108.8 308.101 110.3 308.501 110.6L308.301 109.1L307.701 107.9L307.201 107.4C307.134 107.8 306.934 108.133 306.601 108.4L306.101 106.4L305.001 105.4ZM298.701 110.9C298.201 111.7 298.901 112.6 300.001 112.8L299.501 113.8L300.201 115L301.201 115.4L302.301 115L303.001 116L304.001 116.2L305.301 115.4L305.801 114.6H306.601L307.201 114.2L307.401 113.4C306.734 114.067 305.934 114.2 305.001 113.8C305.023 114.267 304.882 114.727 304.601 115.1C304.467 115.22 304.304 115.302 304.128 115.337C303.952 115.372 303.77 115.359 303.601 115.3C303.136 115.145 302.745 114.824 302.501 114.4C302.034 114.667 301.667 114.8 301.401 114.8C301.16 114.737 300.941 114.611 300.765 114.435C300.589 114.26 300.464 114.04 300.401 113.8C300.378 113.333 300.52 112.873 300.801 112.5C298.401 111.8 299.201 111.2 298.801 110.9H298.701ZM297.501 111.1L295.701 113.7C295.301 114.033 294.867 114.2 294.401 114.2C294.801 115 294.901 115.4 296.201 115.6C293.201 117.6 293.001 121 295.201 123.9C295.401 123.367 295.701 122.9 296.101 122.5C296.079 123.399 296.36 124.28 296.901 125C297.201 125.3 297.401 126.8 297.701 127.3L298.701 128.3C298.701 128.3 299.001 127 299.601 126.8L301.601 126.2C302.369 125.764 303.047 125.188 303.601 124.5L303.301 126.3C307.201 125 308.101 122.3 307.001 118.8C308.001 119.4 309.001 118.6 309.301 118.6L308.501 117.4L308.201 115.6V114.5L307.601 116.1V117.8L305.801 117C306.134 118.2 306.401 119.433 306.601 120.7C306.601 121.567 306.434 122.4 306.101 123.2L304.501 124.9L304.801 122.6L304.501 119.8L303.701 122.5L302.501 124.5C302.601 122.5 302.501 122.3 302.301 121.6C302.301 121.6 301.801 124.1 301.001 125.2L299.401 125.9L298.701 126.5L298.101 124.8L296.901 122.6C296.601 121.4 298.101 119 298.101 119C297.501 119.133 296.934 119.6 296.401 120.4L295.101 122L294.601 119.8C294.601 119 294.834 118.3 295.301 117.7C295.901 116.7 298.601 114.7 298.601 114.7C297.698 115.037 296.703 115.037 295.801 114.7L297.001 113C297.323 112.418 297.495 111.765 297.501 111.1ZM302.501 112.2H301.301V112.7L301.801 113L302.601 114L304.201 113.5L304.501 113.1L303.001 112.3L302.501 112.2Z" fill="#FFD700"/>
<path d="M307.001 118.8C308.001 119.4 309.001 118.6 309.301 118.6L308.501 117.4L308.201 115.6C308.201 114 308.701 113.8 308.801 114L310.201 113.2C310.601 112.867 310.867 112.433 311.001 111.9L310.801 110C309.301 110 309.001 110.2 308.601 110.6L308.301 109.1L307.801 107.9L307.201 107.4C307.201 107.867 307.001 108.2 306.601 108.4C306.571 107.813 306.412 107.24 306.135 106.721C305.859 106.203 305.471 105.752 305.001 105.4C303.801 105.467 302.801 106.033 302.001 107.1V105.9L301.401 106.1L300.401 106.8L299.301 107.9C299.434 107.367 298.901 106.8 297.701 106.2L296.601 107.8C296.399 108.239 296.364 108.736 296.501 109.2L297.301 110.6C297.401 110.6 297.801 111 296.901 112.3L295.701 113.7C295.301 114.033 294.867 114.2 294.401 114.2C294.801 115 294.901 115.4 296.201 115.6C293.201 117.6 293.001 121 295.201 123.9C295.401 123.367 295.701 122.9 296.101 122.5C296.079 123.399 296.36 124.28 296.901 125C297.201 125.3 297.401 126.8 297.701 127.3L298.701 128.3C298.701 128.3 299.001 127 299.601 126.8L301.601 126.2C302.369 125.764 303.047 125.188 303.601 124.5L303.301 126.3C306.967 124.9 308.201 122.4 307.001 118.8Z" stroke="#806600" stroke-width="0.2" stroke-miterlimit="128.6"/>
<path d="M297.699 107.2C297.384 107.675 297.21 108.23 297.199 108.8L298.099 110.4L298.599 108.2C298.499 107.8 297.799 107.2 297.799 107.2H297.699ZM299.699 109.2L299.399 109.4C299.133 109.4 298.999 109.534 298.999 109.8L299.699 109.6H299.899L301.099 110.2H302.999L302.699 111L301.799 111.4L301.399 111.8L301.199 112.2V112.8H301.399C301.612 112.843 301.806 112.954 301.95 113.116C302.094 113.279 302.182 113.484 302.199 113.7L302.399 113.9L302.599 114H302.999C303.137 113.823 303.33 113.697 303.547 113.642C303.765 113.588 303.995 113.608 304.199 113.7H304.299L304.399 113.6L304.699 113V112.6L304.499 112.2C304.499 111.8 304.199 111.2 304.199 111.2L304.299 110.4L305.799 111.5L307.099 111.6C307.299 111.6 307.399 111.667 307.399 111.8L307.799 112.3L307.699 111.5L307.199 111.3L305.899 111.2L304.499 110.2L304.299 110L304.199 110.2C303.94 110.546 303.799 110.967 303.799 111.4L304.199 112.4L304.399 113.1L304.199 113.4C303.935 113.364 303.666 113.38 303.409 113.449C303.151 113.517 302.91 113.637 302.699 113.8H302.599C302.339 113.256 301.921 112.803 301.399 112.5V112.2L301.599 112.1C301.599 111.9 301.699 111.8 301.899 111.8L302.799 111C302.999 110.734 303.133 110.4 303.199 110V109.7H302.899L301.299 109.8L300.099 109.3H299.799L299.699 109.2ZM298.799 110.6C298.657 110.838 298.565 111.104 298.531 111.379C298.496 111.655 298.52 111.934 298.599 112.2C298.866 112.6 299.199 112.867 299.599 113V113.1L299.399 113.9C299.466 114.5 299.733 114.934 300.199 115.2C300.533 115.534 300.933 115.667 301.399 115.6L302.199 115.4L302.699 116C303.099 116.267 303.533 116.367 303.999 116.3C304.371 116.241 304.718 116.078 305.001 115.83C305.284 115.583 305.491 115.26 305.599 114.9V114.7C306.063 114.837 306.56 114.802 306.999 114.6C307.198 114.406 307.354 114.172 307.457 113.913C307.561 113.655 307.609 113.378 307.599 113.1C307.299 113.4 307.599 113.9 306.799 114.4C306.399 114.6 306.033 114.6 305.699 114.4L305.299 114.1V115L304.999 115.5L303.999 116.1C303.821 116.147 303.633 116.144 303.457 116.091C303.28 116.038 303.122 115.937 302.999 115.8L302.599 115.1L302.399 114.6L302.199 114.9L301.799 115.1L301.299 115.3C300.899 115.3 300.633 115.2 300.499 115C300.13 114.697 299.882 114.271 299.799 113.8V113.3C299.799 113.1 299.899 112.967 300.099 112.9L300.199 112.6H299.799C299.602 112.626 299.401 112.592 299.223 112.503C299.045 112.414 298.897 112.274 298.799 112.1C298.299 111.4 298.799 111.1 298.799 110.6ZM310.199 110.8C310.199 110.8 309.199 110.8 308.999 111.2L308.199 113.2L309.799 112.5C310.066 111.9 310.199 111.367 310.199 110.9V110.8Z" fill="#806600"/>
<path d="M300.8 110C300.654 109.974 300.503 110.006 300.381 110.091C300.26 110.175 300.176 110.304 300.15 110.45C300.123 110.596 300.156 110.747 300.24 110.868C300.324 110.99 300.454 111.074 300.6 111.1C300.665 111.107 300.732 111.1 300.795 111.081C300.858 111.062 300.917 111.031 300.968 110.989C301.019 110.947 301.061 110.896 301.092 110.838C301.124 110.78 301.143 110.716 301.15 110.65C301.156 110.585 301.15 110.518 301.131 110.455C301.112 110.392 301.08 110.333 301.039 110.282C300.997 110.231 300.945 110.189 300.887 110.157C300.829 110.126 300.765 110.107 300.7 110.1L300.8 110ZM305.9 111.6C305.767 111.587 305.635 111.627 305.531 111.711C305.428 111.796 305.363 111.918 305.35 112.05C305.336 112.183 305.376 112.315 305.461 112.418C305.545 112.522 305.667 112.587 305.8 112.6C305.865 112.607 305.932 112.6 305.995 112.581C306.058 112.562 306.117 112.531 306.168 112.489C306.219 112.447 306.261 112.396 306.292 112.338C306.324 112.28 306.343 112.216 306.35 112.15C306.356 112.085 306.35 112.018 306.331 111.955C306.312 111.892 306.28 111.833 306.239 111.782C306.197 111.731 306.145 111.689 306.087 111.657C306.029 111.626 305.965 111.607 305.9 111.6Z" fill="#2B2200"/>
<path d="M281 127.6C280.5 127.8 279.8 127.4 278.5 128.6C278.904 128.485 279.334 128.501 279.729 128.645C280.124 128.788 280.463 129.053 280.7 129.4C280.864 129.389 281.023 129.338 281.162 129.25C281.302 129.163 281.418 129.043 281.5 128.9C281.602 128.661 281.606 128.391 281.513 128.149C281.42 127.906 281.236 127.709 281 127.6ZM313.3 129.1C312.8 129.3 312.2 128.9 310.8 130.1C311.214 129.995 311.652 130.026 312.048 130.188C312.444 130.35 312.777 130.635 313 131C313.466 131 313.733 130.8 313.8 130.4C313.902 130.161 313.906 129.891 313.813 129.649C313.72 129.406 313.536 129.209 313.3 129.1ZM278.6 130.9C278.2 131.2 277.4 131.1 276.6 132.7C276.946 132.44 277.367 132.3 277.8 132.3C278.232 132.3 278.653 132.44 279 132.7C279.4 132.567 279.6 132.3 279.6 131.9C279.6 131.635 279.494 131.381 279.307 131.193C279.119 131.005 278.865 130.9 278.6 130.9ZM313.8 133.4C313.5 133.8 312.8 133.8 312 135.4C312.324 135.111 312.733 134.934 313.166 134.898C313.599 134.862 314.032 134.968 314.4 135.2C314.561 135.131 314.701 135.021 314.807 134.88C314.912 134.74 314.979 134.574 315 134.4C315.003 134.25 314.972 134.101 314.91 133.965C314.847 133.828 314.755 133.708 314.64 133.612C314.525 133.516 314.389 133.447 314.244 133.41C314.098 133.373 313.947 133.37 313.8 133.4ZM281 134.8L280.5 135C280.3 135.4 279.6 135.8 279.7 137.5C279.866 137.116 280.148 136.794 280.507 136.578C280.865 136.363 281.283 136.266 281.7 136.3C281.803 136.157 281.867 135.989 281.884 135.814C281.902 135.638 281.873 135.461 281.8 135.3C281.718 135.157 281.602 135.037 281.462 134.95C281.323 134.863 281.164 134.811 281 134.8ZM351.2 135H350.8C350.6 135.6 349.8 135.8 349.8 137.6C350.002 137.235 350.313 136.943 350.689 136.763C351.066 136.584 351.489 136.527 351.9 136.6C352.166 136.267 352.266 135.933 352.2 135.6C352.117 135.408 351.976 135.247 351.796 135.139C351.617 135.032 351.408 134.983 351.2 135ZM317.8 136.2L317.2 136.5C317.2 137 316.4 137.3 316.7 139.1C316.832 138.679 317.099 138.313 317.461 138.06C317.823 137.806 318.258 137.68 318.7 137.7C318.787 137.548 318.834 137.376 318.834 137.2C318.834 137.025 318.787 136.852 318.7 136.7C318.609 136.543 318.477 136.413 318.319 136.325C318.16 136.237 317.981 136.194 317.8 136.2ZM359.4 136.4C359.191 136.383 358.982 136.432 358.803 136.539C358.624 136.647 358.483 136.808 358.4 137C358.6 137.4 358.2 138 359.3 139.5C359.227 139.089 359.284 138.666 359.463 138.29C359.642 137.913 359.935 137.602 360.3 137.4C360.325 137.203 360.292 137.002 360.202 136.824C360.113 136.646 359.973 136.498 359.8 136.4H359.4ZM355 136.9L354.2 137.3C354.2 137.8 353.6 138.3 354.3 139.9C354.355 139.485 354.539 139.097 354.826 138.792C355.113 138.487 355.488 138.28 355.9 138.2C355.966 137.733 355.9 137.4 355.7 137.2L355 136.9Z" fill="#377BC8" stroke="#2C5AA0" stroke-width="0.2" stroke-miterlimit="128.6"/>
<path d="M303.099 158.7L301.399 158.4L300.199 157H298.199L296.599 156.2C297.201 156.102 297.76 155.823 298.199 155.4L296.299 155.1L294.699 154.1C295.299 153.9 295.899 154 296.299 153.4L294.599 153.2L293.099 152.2C293.434 152.245 293.775 152.204 294.089 152.082C294.404 151.96 294.683 151.759 294.899 151.5L293.099 151.4L291.399 150.2C292.03 150.178 292.647 150.007 293.199 149.7L292.799 148.9C292.399 147.9 291.399 148.2 290.799 148C290.52 147.868 290.276 147.672 290.085 147.429C289.894 147.187 289.762 146.903 289.699 146.6C289.699 145.9 289.999 144.9 291.499 145C290.699 144 291.499 143 292.399 142.6C293.199 142.4 293.899 142.5 294.399 143.8L295.599 143.1C295.729 143.036 295.871 143 296.016 142.996C296.161 142.992 296.305 143.02 296.438 143.077C296.571 143.134 296.69 143.219 296.787 143.327C296.884 143.434 296.956 143.562 296.999 143.7V144.6C296.599 144.934 296.333 145.367 296.199 145.9C296.174 146.557 296.312 147.209 296.599 147.8C296.599 147.8 299.599 150.2 300.999 151.5C301.799 152.2 302.999 153.7 302.999 153.7H305.999L306.299 158.7H303.099Z" fill="#FFD700" stroke="#806600" stroke-width="0.2" stroke-miterlimit="103.2"/>
<path d="M294.8 142C295.334 142.667 295.5 143.333 295.3 144L296.1 144.2C296.274 144.102 296.414 143.955 296.503 143.776C296.592 143.598 296.626 143.398 296.6 143.2C296.2 143 296.2 142.4 294.8 142.1V142ZM291.4 142.5H290.6C290.923 142.638 291.204 142.858 291.415 143.139C291.625 143.42 291.758 143.751 291.8 144.1L292.6 144C292.708 143.837 292.765 143.646 292.765 143.45C292.765 143.254 292.708 143.063 292.6 142.9C292.3 142.9 292.1 142.5 291.4 142.5ZM290.4 145.7C289.683 145.654 288.974 145.867 288.4 146.3C288.728 146.284 289.054 146.348 289.35 146.488C289.647 146.627 289.904 146.838 290.1 147.1C290.367 147.167 290.567 147.033 290.7 146.7C290.747 146.522 290.744 146.334 290.691 146.158C290.638 145.981 290.538 145.823 290.4 145.7Z" fill="#377BC8" stroke="#2C5AA0" stroke-width="0.2" stroke-miterlimit="103.2"/>
<path d="M318 161C317.4 160.9 316.7 160.2 316.2 160.2C315.678 160.285 315.211 160.572 314.9 161C314.808 161.205 314.788 161.434 314.842 161.652C314.897 161.87 315.023 162.063 315.2 162.2L316.2 162.8L315.5 164C315.5 164.334 315.633 164.634 315.9 164.9C316.1 165.234 316.4 165.434 316.8 165.5L317.9 165.4C317.9 165.734 317.967 166 318.1 166.2C318.286 166.449 318.528 166.65 318.806 166.789C319.083 166.928 319.39 167 319.7 167C320.034 167.134 320.334 167 320.6 166.6C320.667 166.2 320.834 165.734 321.1 165.2L322.5 163.9C323.033 164.3 323.2 164.8 323 165.4L324.2 164.4C324.467 164 324.6 163.534 324.6 163C325.134 163.467 325.334 164 325.2 164.6L326.4 163.6L327 162.2C327.467 162.667 327.6 163.2 327.4 163.8L328.7 162.6L329 161.4C330.333 161.4 331.034 161.067 331.1 160.4C331.167 159.867 330.7 159.467 329.7 159.2L329.2 158.2V157.4C329.472 156.81 329.884 156.295 330.4 155.9L332.6 154.6L332.1 152.5L327.1 151.7L321.4 153.1C322.4 153.5 324.8 155.1 324.6 155.8L323.8 156.6C323.667 156.734 323.7 157 323.9 157.4C324.3 157.534 324.633 157.734 324.9 158V158.8C324.6 159.3 323.3 159.5 322.6 159.8C321.6 160.2 319.6 161.4 319.6 161.4L317.9 161H318Z" fill="#FFD700" stroke="#806600" stroke-width="0.2" stroke-miterlimit="103.2"/>
<path d="M327.999 154.2C327.999 154.2 327.999 156.1 327.299 156.5C326.899 156.767 326.499 156.8 326.099 156.6C325.919 156.546 325.758 156.442 325.634 156.301C325.51 156.159 325.429 155.986 325.399 155.8L325.199 155L323.399 154.5C322.466 154.5 321.566 154.667 320.699 155C321.127 154.001 321.818 153.137 322.699 152.5L325.699 152.2L328.099 154.2H327.999Z" fill="#FFD700" stroke="#806600" stroke-width="0.2" stroke-miterlimit="103.2"/>
<path d="M333.8 142.2C334.6 142.2 336 141.8 336.5 141.2L337.3 140.2C337.296 140.956 337.078 141.696 336.671 142.333C336.264 142.97 335.685 143.479 335 143.8C333.745 144.355 332.354 144.529 331 144.3L328.6 143.8C329.6 144.8 329.1 145.6 328 146.2C328 146.2 328.2 145.2 327.8 145C327.134 144.733 326.434 144.9 325.7 145.5C325.1 145.833 324.434 146.033 323.7 146.1C322.946 146.135 322.194 145.998 321.5 145.7C321 145.4 320.1 144.7 319.8 144.7C319 144.9 317.8 145 317.4 145.7V146.7C317.797 147.234 318.36 147.621 319 147.8C320.8 148.267 322.567 148.333 324.3 148C326.367 147.6 328.4 147.133 330.4 146.6C332.4 146.2 334.7 145.6 336.2 145.1C338.024 144.607 339.914 144.405 341.8 144.5C345 144.5 346.2 146.5 346.1 148.6C345.9 150.8 343.9 151.8 342.2 152.4C339.2 153.5 335 152.9 332.5 152.8L333.8 154C334.2 154.4 334.4 155.4 335 155.6C335.8 155.8 337 155.3 337.8 155.2H341L341.8 154.6H342.6C342.934 154.733 343.067 155.233 343 156.1L343.6 156.6H344.7L345.7 157.2L344.8 157.6L344.3 158.2L345.6 158.3L346.4 159.1L345.6 159.2L345 159.8C345 159.8 346 159.7 346.5 160L347.1 160.8H346.3L345.8 161.2L346.8 162.1C347 162.5 347.1 162.933 347.1 163.4L346.5 162.9L345.9 162.8L346.1 164.6C346.1 165 346.7 165.4 346.8 165.8C346.934 166.133 346.867 166.467 346.6 166.8C346.334 167.267 345.9 167.4 345.3 167.2L344.6 166.8L344.2 167.6C343.934 167.8 343.6 167.867 343.2 167.8L342.5 167.4L342 166.2L341 166.5C340.6 166.5 340.267 166.3 340 165.9C339.871 165.696 339.82 165.452 339.857 165.213C339.893 164.974 340.016 164.756 340.2 164.6C340.6 164.267 341.1 164.067 341.7 164L342.7 163L340.2 160.6L339.2 159C339.2 159 337.2 159.8 336.3 159.8C334.974 159.992 333.627 159.992 332.3 159.8C329.2 159.8 327.2 154.8 324.5 153.6C323.823 153.347 323.078 153.347 322.4 153.6C319.2 154.3 315.8 158.7 312.8 159.6L308.8 160.2L307.9 161.5L306.3 161.8L305.7 163.6L304.4 164.6C304.564 164.045 304.564 163.455 304.4 162.9L303.4 164.3L302.1 165.3C302.211 165.048 302.267 164.775 302.267 164.5C302.267 164.225 302.211 163.952 302.1 163.7L301.3 165L300 165.8C300.125 165.534 300.19 165.244 300.19 164.95C300.19 164.656 300.125 164.366 300 164.1L299.3 165.4L297.7 166.4C297.951 165.835 298.021 165.206 297.9 164.6H297.1C296.1 164.6 296.1 165.6 295.7 166.1C295.26 166.395 294.72 166.503 294.2 166.4C293.467 166.133 293.334 165.367 293.8 164.1C293.567 164.145 293.326 164.137 293.096 164.077C292.865 164.016 292.652 163.906 292.47 163.752C292.288 163.599 292.142 163.407 292.044 163.191C291.945 162.974 291.896 162.738 291.9 162.5C291.834 161.567 292.334 161.067 293.4 161V160C293.467 159.333 293.734 159.033 294.2 159.1C294.534 159.1 294.8 159.233 295 159.5C295.2 159.767 295.467 160.167 295.8 160.7C296.315 160.999 296.907 161.138 297.5 161.1L301.5 159L304.6 158.2V151.2H306.6C308.734 151.4 310.8 151.7 312.8 152.1L316 151.8C316 151.8 321.4 150.8 323.8 150.6C325.134 150.333 326.434 150.233 327.7 150.3C329.6 150.5 331.3 151.1 333.1 151.1C334.434 151.367 335.767 151.467 337.1 151.4C339.4 151.2 343.3 151.4 344.5 149C344.613 148.666 344.636 148.309 344.567 147.963C344.497 147.618 344.338 147.297 344.104 147.033C343.871 146.769 343.572 146.572 343.237 146.461C342.903 146.35 342.545 146.329 342.2 146.4C341.667 146.6 341.334 146.933 341.2 147.4C341.2 147.733 341.267 148 341.4 148.2C341.534 148.4 341.767 148.667 342.1 149C341.6 149.047 341.1 148.905 340.7 148.6L339.8 147L339.5 148.2C339.5 148.6 339.634 149 339.9 149.4C339.615 149.397 339.333 149.333 339.075 149.213C338.816 149.092 338.586 148.917 338.4 148.7L337.8 147.1C337.534 147.433 337.4 147.8 337.4 148.2C337.4 148.733 337.5 149.2 337.7 149.6C337.146 149.411 336.659 149.063 336.3 148.6L335.8 147L330.2 148.3L324.2 149.6C321.267 150 318.867 149.767 317 148.9C316.603 148.705 316.253 148.425 315.976 148.079C315.7 147.734 315.503 147.331 315.4 146.9C315.301 146.162 315.479 145.414 315.9 144.8C316.724 143.807 317.846 143.105 319.1 142.8L324.6 141.6C326.603 141.363 328.631 141.465 330.6 141.9C331.4 142.1 332.067 141.967 332.6 141.5C332.813 141.341 332.953 141.104 332.99 140.842C333.028 140.579 332.96 140.312 332.8 140.1C333.334 140.167 333.667 140.5 333.8 141.1V142.2Z" fill="#FFD700"/>
<path d="M337.4 140.2L335.8 142.3C334.898 142.893 333.871 143.27 332.8 143.4C331.796 143.471 330.786 143.404 329.8 143.2L327 142.3L327.8 144.1L326.2 144L324.6 144.8C323.667 144.934 322.867 144.867 322.2 144.6C321.4 144.5 321.2 144.2 320.5 144.3L319.8 144.6L321.9 145.8L323.9 146.1L325.2 145.8L326.6 145L327.8 144.9L328.1 145.4V146.2L328.9 145.4L329 144.9L328.8 143.9L330.4 144.2L332.2 144.4L334.2 144L336 143.2L336.9 142.1L337.4 140.2ZM342.6 145.6L341.3 146.1C341.074 146.317 340.902 146.583 340.798 146.879C340.693 147.174 340.66 147.49 340.7 147.8L339.9 145.7C339.1 146.5 339.1 147.5 338.9 148.4L338.1 145.9C337.432 146.524 336.948 147.32 336.7 148.2C336.396 147.575 336.226 146.894 336.2 146.2H336C333.4 146.6 327.8 148.5 323.4 148.9C321 149.1 318.2 148.9 316.7 147.9C316.358 147.673 316.066 147.379 315.843 147.035C315.619 146.691 315.468 146.305 315.4 145.9L315.2 146.9L316 148.2L317.6 149.2L320.6 149.9L324 149.5L326 149.4L336 147V148.3L336.8 149.1L337.6 149.6L337.4 148.5V147.7L337.8 147.2L338.3 148.6L339 149.2L340 149.4L339.5 148.7V147.8L339.8 147L340.3 148.3L340.8 148.8H342.1L341.3 148.1L341.1 147.3L341.7 146.6L342.8 146.3L343.8 146.7L344.4 147.4L344.6 148.4L344.5 149.2C346.2 147.6 344.5 145.6 342.5 145.6H342.6ZM346 147.2C345.929 148.224 345.545 149.202 344.9 150C341.9 153.3 335.1 152.2 331.9 151.1L330.5 150.9L329.7 150.6L327.7 150.3L323.8 150.6C321.4 150.8 316 151.8 316 151.8L312.8 152.1C310.754 151.693 308.682 151.426 306.6 151.3H304.6V152.4L307.4 153H307L305.1 156.6L304.7 155L304.6 157.5L304.2 158.2L301.8 158.8L299.4 159.8L297.6 161.2L295.8 160.7L295 159.4C295.133 160.067 295.367 160.734 295.7 161.4C296.2 161.9 297.7 162 297.7 162L301 160L302.6 159.4C303.023 159.929 303.574 160.342 304.2 160.6C304.2 159 305.2 159 306.6 158.2V159.2C306.6 159.2 309.3 158.2 310 157.4C310.503 156.856 310.879 156.207 311.1 155.5C311.282 154.815 311.316 154.099 311.2 153.4H313C315.7 153.3 318.6 152.1 321.2 151.8C323.2 151.4 325.7 151 327.6 151.4C329.2 151.7 329.8 152.4 331.2 153.4C332.4 154.2 333.6 156.6 335.2 156.6C335.2 156.6 336.1 156.6 336.6 156.4L338.6 155.9L341 156.1C341.7 155.1 342 155.1 342.2 155.3C342.6 155.567 342.633 156 342.3 156.6C342.514 156.894 342.804 157.123 343.139 157.264C343.474 157.405 343.84 157.452 344.2 157.4C343.733 157.8 343.4 158.234 343.2 158.7C343.784 158.631 344.375 158.736 344.9 159L344.1 160.2L345.7 160.5C345.233 160.7 344.967 160.967 344.9 161.3L346.2 162.3C345.667 162.3 345.333 162.4 345.2 162.6L346.1 164.3L345.9 162.7L346.5 162.9C346.767 162.9 346.967 163.067 347.1 163.4L346.9 162.1L345.9 161.2L346.3 160.9H347.1L346.5 160C346.1 159.7 345 159.8 345 159.8L345.6 159.2H346.4L345.6 158.3L344.3 158.2L344.8 157.6L345.7 157.2L344.7 156.6H343.6L343 156.1C343.067 155.3 342.933 154.8 342.6 154.6H341.8C341.4 154.734 341.133 154.967 341 155.3H337.8C337 155.3 335.8 155.8 335 155.6C334.4 155.4 334.2 154.4 333.8 154L332.5 152.8H335.4L338.4 153H340.2C342.4 152.4 344.9 151.8 345.9 149.2V147.2H346ZM323.6 152.3C322.774 152.3 321.957 152.47 321.2 152.8C319.384 153.788 317.675 154.961 316.1 156.3L312.9 158.3C311.399 158.698 309.853 158.899 308.3 158.9C308.3 158.9 307.9 160.5 307.3 160.8C306.9 161.1 305.8 160.5 305.8 160.5L305.7 161.8L305.2 163.2L304.9 162.2L304.1 161.2L303.7 162.6L302.8 164L302.6 163.2L301.8 162L301.4 163.4L300.9 164.4L300.7 163.9L299.9 162.7L299.2 164.2L298.6 165L298.4 163.8C298.277 163.663 298.119 163.562 297.942 163.509C297.766 163.456 297.578 163.453 297.4 163.5C296.4 163.7 295.9 164.7 295.3 165.6C295.033 165.867 294.9 165.867 294.9 165.6V164.9L294.2 164.6C293.8 164.9 295 163.4 295 163.4L293.4 163.3C293 163.2 293.5 163.3 293.5 162.5C293.5 161.7 292.7 161.7 293 161.7L294.3 161.8C294.3 161.8 293.9 161.4 294.1 161C294.1 160.9 294.6 160.6 294.7 160.2C294.726 160.003 294.692 159.802 294.603 159.624C294.514 159.446 294.373 159.298 294.2 159.2C294.1 159.6 293.4 159.4 293.4 159.9V161C292.267 161.067 291.767 161.567 291.9 162.5C291.892 162.749 291.942 162.996 292.046 163.221C292.15 163.447 292.306 163.645 292.5 163.801C292.694 163.956 292.921 164.064 293.164 164.116C293.407 164.168 293.659 164.162 293.9 164.1C293 165.3 293.6 166.1 294.2 166.4C294.72 166.503 295.259 166.395 295.7 166.1C296.2 165.6 296.2 164.6 297.1 164.6H297.9C297.988 165.24 297.919 165.892 297.7 166.5L299.3 165.5L300.1 164.1C300.225 164.366 300.29 164.656 300.29 164.95C300.29 165.244 300.225 165.534 300.1 165.8L301.3 165L302.1 163.6C302.225 163.866 302.29 164.156 302.29 164.45C302.29 164.744 302.225 165.034 302.1 165.3L303.4 164.3L304.4 162.9C304.564 163.455 304.564 164.045 304.4 164.6L305.7 163.6L306.3 161.9C306.833 161.9 307.367 161.767 307.9 161.5L308.7 160.2L312.7 159.7C315.9 158.7 319.2 154.3 322.4 153.5C323.047 153.271 323.753 153.271 324.4 153.5C327.2 154.8 329.3 159.9 332.2 159.9C333.6 159.9 334.3 160.2 336.2 159.9L339.2 159L340.2 160.6L342.6 163L341.6 164C341.3 164.2 340.5 164.2 340.2 164.6C340.031 164.769 339.927 164.993 339.909 165.232C339.891 165.47 339.958 165.707 340.1 165.9C340.3 166.167 340.633 166.367 341.1 166.5L342 166.2L342.4 167.4C342.667 167.667 342.933 167.834 343.2 167.9C343.667 167.967 344 167.834 344.2 167.5L344.6 166.7C344.8 166.967 345.033 167.134 345.3 167.2C345.539 167.302 345.809 167.307 346.051 167.214C346.294 167.12 346.491 166.936 346.6 166.7C346.9 166.4 346.6 165.4 346.5 165V166.2C346.443 166.047 346.341 165.915 346.207 165.822C346.073 165.729 345.913 165.679 345.75 165.679C345.587 165.679 345.427 165.729 345.293 165.822C345.159 165.915 345.057 166.047 345 166.2C344.82 166.146 344.659 166.042 344.535 165.901C344.411 165.759 344.33 165.586 344.3 165.4L344.1 166.4C344.1 166.667 344 166.867 343.8 167C343.8 166 343.1 166 342.6 166.2V165.2L341.6 165.7C341.3 165.7 341.6 165.5 341.4 165.2C341.4 164.9 340.8 165 341 164.9L342.5 164.1L343.5 162.7L341 160.3L339.5 157.9C337.935 158.384 336.328 158.719 334.7 158.9C333.551 159.05 332.383 158.913 331.3 158.5C329.5 157.6 328.5 155.4 327 154.2C326.067 153.267 325.067 152.634 324 152.3H323.6Z" fill="#FFD700"/>
<path d="M333.8 142.2C334.6 142.2 336 141.8 336.5 141.2L337.3 140.2C337.296 140.956 337.078 141.696 336.671 142.333C336.264 142.97 335.685 143.479 335 143.8C333.745 144.355 332.354 144.529 331 144.3L328.6 143.8C329.6 144.8 329.1 145.6 328 146.2C328 146.2 328.2 145.2 327.8 145C327.134 144.733 326.434 144.9 325.7 145.5C325.1 145.833 324.434 146.033 323.7 146.1C322.946 146.135 322.194 145.998 321.5 145.7C321 145.4 320.1 144.7 319.8 144.7C319 144.9 317.8 145 317.4 145.7V146.7C317.797 147.234 318.36 147.621 319 147.8C320.8 148.267 322.567 148.333 324.3 148C326.367 147.6 328.4 147.133 330.4 146.6C332.4 146.2 334.7 145.6 336.2 145.1C338.024 144.607 339.914 144.405 341.8 144.5C345 144.5 346.2 146.5 346.1 148.6C345.9 150.8 343.9 151.8 342.2 152.4C339.2 153.5 335 152.9 332.5 152.8L333.8 154C334.2 154.4 334.4 155.4 335 155.6C335.8 155.8 337 155.3 337.8 155.2H341L341.8 154.6H342.6C342.934 154.733 343.067 155.233 343 156.1L343.6 156.6H344.7L345.7 157.2L344.8 157.6L344.3 158.2L345.6 158.3L346.4 159.1L345.6 159.2L345 159.8C345 159.8 346 159.7 346.5 160L347.1 160.8H346.3L345.8 161.2L346.8 162.1C347 162.5 347.1 162.933 347.1 163.4L346.5 162.9L345.9 162.8L346.1 164.6C346.1 165 346.7 165.4 346.8 165.8C346.934 166.133 346.867 166.467 346.6 166.8C346.334 167.267 345.9 167.4 345.3 167.2L344.6 166.8L344.2 167.6C344.078 167.737 343.919 167.838 343.743 167.891C343.566 167.944 343.379 167.947 343.2 167.9L342.5 167.4L342 166.2L341 166.5C340.6 166.5 340.267 166.3 340 165.9C339.871 165.696 339.82 165.452 339.857 165.213C339.893 164.974 340.016 164.756 340.2 164.6C340.6 164.267 341.1 164.067 341.7 164L342.7 163L340.2 160.6L339.2 159C339.2 159 337.2 159.8 336.3 159.8C334.974 159.992 333.627 159.992 332.3 159.8C329.2 159.8 327.2 154.8 324.5 153.6C323.823 153.347 323.078 153.347 322.4 153.6C319.2 154.3 315.8 158.7 312.8 159.6L308.8 160.2L307.9 161.5L306.3 161.8L305.7 163.6L304.4 164.6C304.564 164.045 304.564 163.455 304.4 162.9L303.4 164.3L302.1 165.3C302.211 165.048 302.267 164.775 302.267 164.5C302.267 164.225 302.211 163.952 302.1 163.7L301.3 165L300 165.8C300.125 165.534 300.19 165.244 300.19 164.95C300.19 164.656 300.125 164.366 300 164.1L299.3 165.4L297.7 166.4C297.951 165.835 298.021 165.206 297.9 164.6H297.1C296.1 164.6 296.1 165.6 295.7 166.1C295.26 166.395 294.72 166.503 294.2 166.4C293.467 166.133 293.334 165.367 293.8 164.1C293.567 164.145 293.326 164.137 293.096 164.077C292.865 164.016 292.652 163.906 292.47 163.752C292.288 163.599 292.142 163.407 292.044 163.191C291.945 162.974 291.896 162.738 291.9 162.5C291.834 161.633 292.334 161.133 293.4 161V160C293.467 159.333 293.734 159.033 294.2 159.1C294.534 159.1 294.8 159.233 295 159.5C295.2 159.767 295.467 160.167 295.8 160.7C296.315 160.999 296.907 161.138 297.5 161.1L301.5 159L304.6 158.2V151.2H306.6C308.734 151.4 310.8 151.7 312.8 152.1L316 151.8C316 151.8 321.4 150.8 323.8 150.6C325.134 150.333 326.434 150.233 327.7 150.3C329.6 150.5 331.3 151.1 333.1 151.1C334.434 151.367 335.767 151.467 337.1 151.4C339.4 151.2 343.3 151.4 344.5 149C344.613 148.666 344.636 148.309 344.567 147.963C344.497 147.618 344.338 147.297 344.104 147.033C343.871 146.769 343.572 146.572 343.237 146.461C342.903 146.35 342.545 146.329 342.2 146.4C341.667 146.6 341.334 146.933 341.2 147.4L341.4 148.2L342.1 149C341.54 149.019 340.986 148.88 340.5 148.6L339.8 147L339.5 148.2C339.5 148.6 339.634 149 339.9 149.4C339.615 149.397 339.333 149.333 339.075 149.213C338.816 149.092 338.586 148.917 338.4 148.7L337.8 147.1C337.534 147.433 337.4 147.8 337.4 148.2C337.4 148.733 337.5 149.2 337.7 149.6C337.146 149.411 336.659 149.063 336.3 148.6L335.8 147L330.2 148.3L324.2 149.6C321.267 150 318.867 149.767 317 148.9C316.603 148.705 316.253 148.425 315.976 148.079C315.7 147.734 315.503 147.331 315.4 146.9C315.301 146.162 315.479 145.414 315.9 144.8C316.724 143.807 317.846 143.105 319.1 142.8L324.6 141.6C326.603 141.363 328.631 141.465 330.6 141.9C331.4 142.1 332.067 141.967 332.6 141.5C332.705 141.421 332.794 141.323 332.861 141.21C332.928 141.097 332.972 140.972 332.99 140.842C333.009 140.712 333.002 140.579 332.969 140.452C332.937 140.325 332.879 140.205 332.8 140.1C333.334 140.167 333.667 140.5 333.8 141.1C333.934 141.433 333.934 141.8 333.8 142.2Z" stroke="#806600" stroke-width="0.2" stroke-miterlimit="103.2"/>
<path d="M310.199 152.2C310.999 152.6 311.799 152 311.999 151.9L311.399 151.1L311.099 149.5C311.099 148.3 311.599 148.2 311.599 148.2L312.699 147.7C313.033 147.367 313.266 147 313.399 146.6L313.199 145.1C311.999 145.1 311.699 145.1 311.399 145.5L311.199 144.3L310.699 143.3L310.299 143C310.299 143.334 310.166 143.6 309.899 143.8L309.399 142.2C309.326 142.013 309.212 141.844 309.068 141.705C308.923 141.565 308.749 141.459 308.56 141.393C308.37 141.326 308.168 141.301 307.968 141.32C307.768 141.339 307.574 141.4 307.399 141.5L306.199 142.7V141.7L305.699 141.9L304.799 142.5L303.999 143.4C304.133 143 303.699 142.534 302.699 142L301.799 143.2L301.699 144.4L302.399 145.5C302.399 145.5 302.799 145.9 302.099 147L301.099 148L300.099 148.4C300.299 149.2 300.399 149.4 301.399 149.6C298.999 151.2 298.899 153.9 300.599 156.2L301.399 155C301.399 155.8 301.633 156.467 302.099 157C302.299 157.3 302.399 158.6 302.699 159L303.399 159.7C303.399 159.7 303.799 158.7 304.199 158.6L305.799 158.1C306.42 157.703 306.963 157.194 307.399 156.6L307.199 158.2C310.299 157 310.999 155 310.199 152.2Z" fill="#FFD700"/>
<path d="M304.2 148.3C304.28 149.368 304.073 150.439 303.6 151.4L305.6 152.2L307.6 152.5C307.4 151.7 308.2 150.1 308.6 149.5H307.1L306.5 148.9L305.4 149.2L304.2 148.4V148.3Z" fill="#504416"/>
<path d="M304.601 148.8C304.406 149.281 304.406 149.819 304.601 150.3L305.101 149.1L304.601 148.8ZM307.401 149.8L307.301 151.1C307.634 150.7 307.867 150.267 308.001 149.8H307.401ZM304.601 150.8C304.194 151.086 303.909 151.514 303.801 152H304.401L304.601 150.7V150.8ZM307.101 151.4L306.501 152.6L307.001 152.9C307.195 152.419 307.195 151.881 307.001 151.4H307.101ZM304.801 144.8C304.401 144.733 304.167 144.867 304.101 145.2C303.967 145.667 304.234 146 304.901 146.2C305.128 146.273 305.373 146.263 305.593 146.171C305.813 146.08 305.993 145.913 306.101 145.7C306.101 145.3 305.834 145.033 305.301 144.9L304.801 144.8ZM309.001 146C308.601 146 308.367 146.1 308.301 146.3C308.271 146.55 308.337 146.803 308.485 147.007C308.633 147.211 308.853 147.351 309.101 147.4C309.767 147.6 310.167 147.467 310.301 147C310.501 146.533 310.234 146.2 309.501 146H309.001Z" fill="white"/>
<path d="M304.8 144.8H304.5L304 145.3L304.2 145.9C304.333 146.166 304.533 146.333 304.8 146.4C304.93 146.464 305.072 146.5 305.217 146.504C305.362 146.508 305.505 146.48 305.639 146.423C305.772 146.366 305.891 146.281 305.988 146.173C306.085 146.066 306.157 145.938 306.2 145.8L306 145.2L305.2 144.8H304.8ZM304.8 145H305.2L305.8 145.4C306 145.4 306.067 145.5 306 145.7C305.733 146.166 305.367 146.333 304.9 146.2L304.3 145.8L304.2 145.3L304.5 145H304.8ZM309 146H308.8L308.2 146.3C308.152 146.453 308.141 146.616 308.169 146.775C308.197 146.933 308.263 147.083 308.361 147.211C308.459 147.338 308.587 147.44 308.733 147.508C308.879 147.576 309.039 147.607 309.2 147.6H309.9L310.4 147L310.2 146.5L309.6 146.1L309 146ZM309 146.2H309.5C309.767 146.2 310 146.333 310.2 146.6V147L309.8 147.4H309.2C308.971 147.353 308.765 147.227 308.619 147.045C308.473 146.862 308.395 146.634 308.4 146.4C308.4 146.266 308.533 146.2 308.8 146.2H309Z" fill="#D1B948"/>
<path d="M304.799 144L303.999 144.2V144.6H304.299L304.799 144.8L305.799 145.3L306.999 145.2L305.999 144.7C305.599 144.6 305.299 144 304.799 143.9V144ZM310.199 145.5H307.999L308.999 146.1L309.999 146.2L310.599 146.4L310.899 146.6L310.999 146.2C310.945 146.02 310.842 145.859 310.7 145.735C310.559 145.611 310.385 145.53 310.199 145.5ZM303.699 151.5C302.699 154.1 306.799 155.5 307.399 152.5C306.103 152.471 304.833 152.128 303.699 151.5Z" fill="#FFD700"/>
<path d="M303.601 151.2V151.4C303.46 151.679 303.387 151.988 303.387 152.3C303.387 152.613 303.46 152.921 303.601 153.2C303.827 153.567 304.156 153.858 304.547 154.04C304.937 154.221 305.373 154.283 305.799 154.219C306.224 154.156 306.622 153.968 306.943 153.68C307.263 153.392 307.492 153.017 307.601 152.6V152.3H307.401C306.139 152.256 304.905 151.913 303.801 151.3L303.601 151.2ZM303.801 151.5C304.935 152.036 306.152 152.375 307.401 152.5C307.267 153.031 306.99 153.515 306.601 153.9C306.086 154.078 305.533 154.113 305.001 154C304.483 153.794 304.033 153.448 303.701 153C303.506 152.519 303.506 151.981 303.701 151.5H303.801Z" fill="#806600"/>
<path d="M305.4 149.2C304.79 150.93 304.584 152.778 304.8 154.6C305.979 153.144 306.801 151.431 307.2 149.6L306.7 149.4L306.5 149L305.9 149.2H305.4Z" fill="#377BC8" stroke="#2C5AA0" stroke-width="0.2" stroke-miterlimit="103.2"/>
<path d="M308.599 141.4L307.399 141.5L306.199 142.7V141.7L305.699 141.9L304.699 142.5L303.899 143.3C304.299 143.3 305.199 142.5 305.499 142.6C305.799 142.6 305.599 143.4 305.899 143.4C306.166 143.4 306.566 143.133 307.099 142.6C307.633 142.133 308.033 141.933 308.299 142C308.699 142.2 308.966 142.567 309.099 143.1C309.233 143.9 309.433 144.4 309.699 144.6C309.999 144.7 310.199 143.9 310.499 144.1C310.899 144.1 310.999 145.4 311.399 145.5L311.199 144.3L310.699 143.3L310.299 143C310.233 143.333 310.066 143.6 309.799 143.8L309.399 142.2L308.599 141.4ZM303.599 145.8C303.199 146.533 303.499 147.067 304.499 147.4L304.199 148.2L304.599 149.2L305.599 149.4L306.399 149.1L306.999 149.9L307.799 150.1L308.799 149.4L309.199 148.7H309.799L310.299 148.5L310.599 147.8C310.313 148.042 309.964 148.198 309.593 148.251C309.221 148.304 308.842 148.252 308.499 148.1L308.199 149.1L307.399 149.3L306.599 148.6C306.199 148.867 305.866 148.967 305.599 148.9C305.401 148.863 305.218 148.767 305.075 148.624C304.933 148.481 304.836 148.298 304.799 148.1C304.752 147.922 304.756 147.734 304.809 147.558C304.862 147.381 304.962 147.223 305.099 147.1C303.299 146.6 303.899 146 303.499 145.8H303.599ZM302.599 146L300.999 148L299.999 148.4C300.299 149.2 300.399 149.4 301.399 149.6C298.999 151.2 298.899 153.9 300.599 156.2L301.399 155C301.399 155.8 301.633 156.467 302.099 157C302.299 157.3 302.399 158.6 302.699 159L303.399 159.7C303.399 159.7 303.799 158.7 304.199 158.6L305.799 158.1C306.42 157.702 306.963 157.194 307.399 156.6L307.199 158.2C310.299 157 310.999 155 310.199 152.2C310.999 152.6 311.799 152 311.999 151.9L311.399 151.1L311.099 149.5V148.7L310.599 150V151.3L309.199 150.6L309.799 153.6C309.799 154.267 309.666 154.933 309.399 155.6L308.199 157L308.399 155.2L308.099 152.9L307.399 155.1L306.399 156.7C306.599 155.1 306.599 155 306.399 154.3C306.203 155.323 305.831 156.304 305.299 157.2L304.099 157.8L303.499 158.3L302.999 156.9L301.999 155.1C301.799 154.2 302.999 152.3 302.999 152.3C302.599 152.367 302.166 152.733 301.699 153.4L300.599 154.7L300.199 152.9C300.211 152.33 300.384 151.775 300.699 151.3C301.501 150.336 302.406 149.464 303.399 148.7C303.042 148.867 302.654 148.962 302.259 148.979C301.865 148.996 301.471 148.936 301.099 148.8L302.099 147.5C302.433 147.033 302.599 146.5 302.599 145.9V146ZM306.599 146.8H305.599V147.3L305.999 147.4L306.599 148.2L307.999 147.8L308.199 147.5L306.999 146.9L306.599 146.8Z" fill="#FFD700"/>
<path d="M310.199 152.2C310.999 152.6 311.799 152 311.999 151.9L311.399 151.1L311.099 149.5C311.099 148.3 311.599 148.2 311.599 148.2L312.699 147.7C313.033 147.367 313.266 147 313.399 146.6L313.199 145.1C311.999 145.1 311.699 145.1 311.399 145.5L311.199 144.3L310.699 143.3L310.299 143C310.299 143.333 310.166 143.6 309.899 143.8C310.063 143.535 310.163 143.235 310.191 142.925C310.219 142.615 310.173 142.302 310.059 142.013C309.944 141.723 309.764 141.464 309.531 141.256C309.299 141.049 309.021 140.898 308.721 140.817C308.42 140.736 308.104 140.726 307.799 140.788C307.494 140.85 307.207 140.983 306.962 141.176C306.717 141.368 306.521 141.615 306.388 141.897C306.256 142.179 306.191 142.489 306.199 142.8V141.8L305.699 141.9L304.799 142.5L303.999 143.4C304.133 143 303.699 142.533 302.699 142L301.799 143.2L301.699 144.4L302.399 145.5C302.399 145.5 302.799 145.9 302.099 147L301.099 148L300.099 148.4C300.299 149.2 300.399 149.4 301.399 149.6C298.999 151.2 298.899 153.9 300.599 156.2L301.399 155C301.399 155.8 301.633 156.467 302.099 157C302.299 157.3 302.399 158.6 302.699 158.9L303.399 159.7C303.399 159.7 303.799 158.7 304.199 158.6L305.799 158L307.399 156.6L307.199 158.2C310.299 157 310.999 155 310.199 152.2Z" stroke="#806600" stroke-width="0.2" stroke-miterlimit="103.2"/>
<path d="M302.699 142.9L302.199 144.1L302.999 145.4L303.399 143.6C303.399 143.3 302.699 142.8 302.699 142.8V142.9ZM304.299 144.5H304.099C303.899 144.5 303.766 144.666 303.699 145C303.899 145 304.066 144.9 304.199 144.7H304.499L305.499 145.2H306.899L306.699 145.8L305.999 146.2L305.799 146.5L305.499 146.8V147.4H305.599C305.999 147.533 306.199 147.8 306.199 148.2H306.299L306.499 148.3H306.999C307.133 148.18 307.296 148.098 307.472 148.063C307.648 148.028 307.83 148.04 307.999 148.1V148L308.299 147.6V147.3L308.199 146.9C308.199 146.6 307.799 146.1 307.799 146.1C307.799 145.833 307.866 145.6 307.999 145.4C308.333 145.8 308.733 146.066 309.199 146.2C309.533 146.4 309.866 146.466 310.199 146.4H310.399L310.799 147V146.3L310.299 146.2L309.299 146.1L308.199 145.3L307.999 145.1L307.799 145.3L307.699 146.3L307.899 147L307.999 147.6V147.8C307.532 147.777 307.073 147.919 306.699 148.2C306.499 147.756 306.143 147.4 305.699 147.2V146.9L305.799 146.8L306.099 146.5L306.799 146L307.099 145.1V144.9H305.499L304.599 144.6H304.399L304.299 144.5ZM303.499 145.5C303.33 145.669 303.227 145.893 303.208 146.131C303.19 146.37 303.258 146.607 303.399 146.8C303.599 147.133 303.866 147.333 304.199 147.4V147.6L304.099 148.2C304.099 148.666 304.266 149 304.599 149.2C304.933 149.4 305.266 149.533 305.599 149.6L306.299 149.4L306.699 149.8C307.033 150.066 307.366 150.2 307.699 150.2C308.021 150.18 308.326 150.05 308.563 149.831C308.8 149.613 308.954 149.319 308.999 149V148.9L310.199 148.7C310.466 148.433 310.599 148.066 310.599 147.6C310.299 147.8 310.599 148.2 309.999 148.6H309.099L308.799 148.3V149L308.599 149.4C308.501 149.573 308.354 149.714 308.176 149.803C307.997 149.892 307.797 149.926 307.599 149.9L306.999 149.8L306.599 149.2V148.8L306.299 149L305.999 149.2H305.599L304.899 149L304.299 148.2L304.399 147.7L304.599 147.4L304.699 147.2H304.399C304.235 147.189 304.076 147.137 303.937 147.05C303.797 146.963 303.681 146.843 303.599 146.7C303.199 146.2 303.599 145.9 303.599 145.5H303.499ZM312.699 145.7C312.699 145.7 311.899 145.7 311.699 146L311.099 147.7L312.399 147L312.699 145.7Z" fill="#806600"/>
<path d="M305.099 145.1C304.993 145.1 304.891 145.142 304.816 145.217C304.741 145.292 304.699 145.394 304.699 145.5C304.699 145.606 304.741 145.708 304.816 145.783C304.891 145.858 304.993 145.9 305.099 145.9C305.205 145.9 305.307 145.858 305.382 145.783C305.457 145.708 305.499 145.606 305.499 145.5C305.499 145.394 305.457 145.292 305.382 145.217C305.307 145.142 305.205 145.1 305.099 145.1ZM309.299 146.3C309.193 146.287 309.086 146.316 309.002 146.382C308.917 146.448 308.862 146.544 308.849 146.65C308.836 146.756 308.865 146.863 308.931 146.948C308.997 147.032 309.093 147.087 309.199 147.1C309.305 147.1 309.407 147.058 309.482 146.983C309.557 146.908 309.599 146.806 309.599 146.7C309.599 146.594 309.557 146.492 309.482 146.417C309.407 146.342 309.305 146.3 309.199 146.3H309.299Z" fill="#2B2200"/>
<path d="M293.8 159.2C293.5 159.2 293 159 292.2 160C292.466 159.954 292.74 159.986 292.989 160.093C293.237 160.199 293.449 160.375 293.6 160.6L294.2 160.2C294.236 160.012 294.217 159.819 294.146 159.641C294.075 159.464 293.955 159.311 293.8 159.2ZM315.2 160.4C314.457 160.41 313.745 160.695 313.2 161.2C313.526 161.143 313.862 161.168 314.176 161.273C314.49 161.378 314.773 161.559 315 161.8L315.7 161.4C315.726 161.202 315.692 161.002 315.603 160.824C315.514 160.645 315.373 160.498 315.2 160.4ZM292.2 161.8C292 162.1 291.4 162 291 163.3C291.235 163.136 291.514 163.049 291.8 163.049C292.086 163.049 292.365 163.136 292.6 163.3L293 162.6C293.017 162.491 293.008 162.38 292.974 162.275C292.94 162.17 292.881 162.074 292.803 161.996C292.725 161.919 292.63 161.86 292.525 161.826C292.42 161.792 292.309 161.783 292.2 161.8ZM315.6 163.8C315.4 164.2 314.8 164.1 314.2 165.4C314.483 165.227 314.806 165.127 315.137 165.11C315.469 165.092 315.8 165.157 316.1 165.3L316.5 164.6C316.463 164.401 316.367 164.219 316.224 164.076C316.081 163.933 315.899 163.837 315.7 163.8H315.6ZM293.9 165L293.5 165.1C293.102 165.687 292.925 166.395 293 167.1C293.333 166.5 293.767 166.167 294.3 166.1L294.4 165.4L293.9 165ZM340.3 165.1L340.1 165.2C339.631 165.759 339.382 166.47 339.4 167.2C339.522 166.939 339.723 166.721 339.973 166.578C340.224 166.435 340.513 166.373 340.8 166.4L341 165.6L340.3 165.1ZM318.8 166.1L318.3 166.2C317.888 166.854 317.745 167.642 317.9 168.4C318.051 168.096 318.278 167.835 318.558 167.643C318.837 167.45 319.162 167.332 319.5 167.3V166.5L318.8 166.1ZM345.8 166.2C345.533 166.2 345.333 166.333 345.2 166.6C345.133 167.467 345.3 168.167 345.7 168.7C345.633 168.033 345.867 167.467 346.4 167L346.1 166.2H345.8ZM342.8 166.6L342.3 167C342.103 167.658 342.139 168.364 342.4 169C342.452 168.707 342.569 168.429 342.742 168.187C342.915 167.945 343.14 167.744 343.4 167.6L343.3 166.8L342.8 166.6Z" fill="#377BC8" stroke="#2C5AA0" stroke-width="0.2" stroke-miterlimit="103.2"/>
<path d="M378.7 21.3001V21.0001L379.5 19.4001C378.274 19.2418 377.029 19.3377 375.841 19.6818C374.654 20.0259 373.551 20.6108 372.6 21.4001C371.511 22.5075 370.569 23.7511 369.8 25.1001C369.387 26.1249 369.118 27.2017 369 28.3001L367.1 26.7001L365.8 26.3001C364.586 26.3939 363.448 26.9272 362.6 27.8001C361.825 28.6372 361.304 29.6778 361.1 30.8001C360.7 32.4001 361.1 34.0001 360.1 35.4001L358.5 37.2001C359.358 37.5553 360.272 37.7584 361.2 37.8001C361.744 37.7545 362.273 37.5979 362.755 37.34C363.236 37.082 363.66 36.7281 364 36.3001C364.6 35.5001 364.9 34.4001 365.8 33.8001C365.95 33.6394 366.149 33.5328 366.366 33.4966C366.583 33.4605 366.805 33.4968 367 33.6001C367.5 33.8001 367.6 34.8001 367.4 35.2001L366.4 38.6001L364.6 38.2001L363.2 39.0001L362.6 39.3001L363.8 41.1001L364.3 41.3001L363.9 41.5001L360.6 43.1001L360.2 43.3001L357.8 43.4001L356.2 43.2001L353.8 42.4001L353.1 42.0001L351.8 40.6001C350.818 39.3223 350.104 37.8599 349.7 36.3001C351.062 36.0708 352.303 35.3784 353.214 34.34C354.125 33.3015 354.65 31.9806 354.7 30.6001V29.8001L354.6 29.4001L354.3 28.4001L354 27.8001L353.4 26.8001L353 26.4001C352.559 25.8972 352.023 25.4877 351.422 25.1957C350.821 24.9037 350.167 24.7352 349.5 24.7001H348.2C346.995 24.8956 345.879 25.4538 345 26.3001C344.377 26.9219 343.899 27.673 343.6 28.5001L343.4 29.3001L343.3 30.6001C343.319 31.6739 343.626 32.7229 344.189 33.6376C344.752 34.5523 345.55 35.2991 346.5 35.8001L343.8 38.4001C341.414 40.6481 338.359 42.0531 335.1 42.4001C333.222 42.6429 331.314 42.5022 329.492 41.9865C327.67 41.4709 325.972 40.591 324.5 39.4001C323.596 38.5886 322.82 37.6445 322.2 36.6001H323.5L325.1 35.0001H325.2L324.7 34.6001L323.5 33.6001H323L323.4 29.8001C323.4 29.2001 323.8 28.2001 324.4 28.2001C324.676 28.229 324.943 28.315 325.184 28.4528C325.425 28.5905 325.635 28.7769 325.8 29.0001C326.6 30.0001 326.2 31.1001 326.6 32.2001C327.056 33.3303 327.909 34.2549 329 34.8001C330.133 35.1334 331.233 35.2668 332.3 35.2001L331.4 32.8001C330.8 31.0001 331.9 29.6001 332.2 27.8001C332.504 26.608 332.434 25.3512 332 24.2001C331.36 22.9432 330.298 21.9518 329 21.4001H327.4L324.6 22.2001C324.6 22.2001 325.4 19.8001 325.1 18.6001C324.842 16.921 324.301 15.298 323.5 13.8001C322.474 12.441 321.3 11.2001 320 10.1001C318.7 11.2001 317.526 12.441 316.5 13.8001C315.698 15.298 315.157 16.921 314.9 18.6001C314.7 19.8001 315.4 22.2001 315.4 22.2001L312.6 21.4001H311C309.702 21.9518 308.639 22.9432 308 24.2001C307.565 25.3512 307.496 26.608 307.8 27.8001C308.1 29.6001 309.2 31.0001 308.6 32.8001L307.6 35.2001C308.733 35.2668 309.833 35.1334 310.9 34.8001C311.99 34.2549 312.843 33.3303 313.3 32.2001C313.8 31.2001 313.5 29.9001 314.3 29.0001C314.566 28.4668 314.966 28.2001 315.5 28.2001C316.2 28.2001 316.6 29.2001 316.6 29.8001L317 33.5001H316.5L314.9 35.1001L316.5 36.6001H317.8C317.149 37.6515 316.339 38.596 315.4 39.4001C313.927 40.591 312.229 41.4709 310.407 41.9865C308.585 42.5022 306.677 42.6429 304.8 42.4001C301.576 42.032 298.558 40.6285 296.2 38.4001L293.6 35.8001C294.587 35.3262 295.426 34.5911 296.025 33.6744C296.624 32.7578 296.961 31.6946 297 30.6001C296.977 29.0175 296.33 27.5079 295.2 26.4001C294.294 25.5354 293.14 24.9759 291.9 24.8001L291.6 24.6001H290.6C289.942 24.6608 289.303 24.8511 288.72 25.16C288.136 25.469 287.619 25.8904 287.2 26.4001C286.655 26.9875 286.215 27.664 285.9 28.4001L285.6 29.4001V30.6001C285.635 31.9384 286.117 33.2264 286.968 34.2593C287.82 35.2921 288.993 36.0105 290.3 36.3001C289.895 37.8599 289.181 39.3223 288.2 40.6001L286.8 42.0001L286 42.4001L283.7 43.2001L282.1 43.4001L279.8 43.3001L279.4 43.2001L276 41.5001L275.7 41.3001L276.2 41.1001L277.4 39.3001L276.8 39.0001L275.4 38.2001L273.7 38.6001L272.6 35.3001C272.4 34.8001 272.5 33.8001 273 33.6001C273.194 33.4968 273.417 33.4605 273.634 33.4966C273.85 33.5328 274.049 33.6394 274.2 33.8001C275 34.4001 275.4 35.6001 276 36.3001C276.339 36.7281 276.763 37.082 277.244 37.34C277.726 37.5979 278.255 37.7545 278.8 37.8001C279.728 37.7584 280.641 37.5553 281.5 37.2001L279.9 35.4001C278.8 34.0001 279.3 32.4001 278.9 30.7001C278.695 29.5778 278.175 28.5372 277.4 27.7001C276.536 26.8639 275.4 26.3669 274.2 26.3001L272.9 26.7001L270.9 28.3001C270.814 27.2064 270.578 26.1298 270.2 25.1001C269.43 23.7511 268.489 22.5075 267.4 21.4001C266.461 20.6238 265.374 20.0463 264.205 19.7025C263.036 19.3587 261.809 19.2558 260.6 19.4001L261.3 21.0001V21.3001H261.4L269.6 39.7001L268.5 39.9001L267.3 41.9001L269.2 42.9001L271.6 42.3001L273.6 48.1001L271.6 48.3001C271.2 48.8001 271 48.8001 271 49.3001C271 49.7001 271.133 50.0334 271.4 50.3001L271.7 50.5001L272.2 50.8001H273.2L273.4 52.1001L273.3 52.0001V54.0001L272.1 56.6001L274 59.0001L274.8 61.1001L275.4 60.7001L275.5 61.4001H275.2L275.7 62.4001L275 62.6001C274.666 62.8668 274.5 63.2001 274.5 63.6001C274.5 63.8668 274.6 64.2001 274.8 64.6001L275.6 65.1001C279.466 64.5668 283.533 64.1334 287.8 63.8001L291.8 63.5001C298.866 63.1001 305.966 62.9001 313.1 62.9001H326.7C331 62.9001 340 62.9001 348.1 63.5001L350.3 63.7001L352.6 63.8001L357.9 64.3001L364.3 65.1001L364.6 64.9001L365.3 64.2001V63.6001C365.3 63.2001 365.133 62.8668 364.8 62.6001L364.1 62.5001L364.3 61.6001L364.5 60.7001L365 61.1001L365.8 59.1001L367.8 56.7001L366.6 53.9001V52.0001H366.4L366.7 50.7001L367.6 50.8001C367.8 50.8001 367.933 50.7334 368 50.6001C368.533 50.2001 368.8 49.7668 368.8 49.3001C368.8 48.9668 368.6 48.6334 368.2 48.3001L365.9 48.1001L368.1 42.2001L370.6 42.9001L372.6 41.9001L371.4 39.9001L370.2 39.7001L378.5 21.4001H378.6L378.7 21.3001Z" fill="#FFD700" stroke="#806600" stroke-width="0.5" stroke-linecap="round" stroke-linejoin="round"/>
</g>
<defs>
<clipPath id="clip0_3921_5135">
<rect width="640" height="480" fill="white"/>
</clipPath>
</defs>
</svg>
