<svg width="640" height="480" viewBox="0 0 640 480" fill="none" xmlns="http://www.w3.org/2000/svg">
<g clip-path="url(#clip0_3921_5221)">
<path d="M0 0H640V480H0V0Z" fill="white"/>
<path d="M0 0H640V144H0V0Z" fill="#000001"/>
<path d="M0 336H640V480H0V336Z" fill="#006600"/>
<path d="M234.199 382.5L239.599 385.5L379.699 142.5C387.799 140.7 392.299 132.9 396.799 125.1C399.799 119.7 411.799 99 416.899 72C402.667 84.6477 390.606 99.5457 381.199 116.1C376.699 123.9 372.199 131.7 374.299 139.8L234.199 382.5Z" fill="black" stroke="black" stroke-width="3"/>
<path d="M234.199 382.5L239.599 385.5L379.699 142.5C387.799 140.7 392.299 132.9 396.799 125.1C399.799 119.7 411.799 99 416.899 72C402.667 84.6477 390.606 99.5457 381.199 116.1C376.699 123.9 372.199 131.7 374.299 139.8L234.199 382.5Z" fill="white"/>
<path d="M405.801 382.5L400.401 385.5L260.301 142.5C252.201 140.7 247.701 132.9 243.201 125.1C240.201 119.7 228.201 99 223.101 72C237.333 84.6477 249.394 99.5457 258.801 116.1C263.301 123.9 267.801 131.7 265.701 139.8L405.801 382.5Z" fill="black" stroke="black" stroke-width="3"/>
<path d="M405.801 382.5L400.401 385.5L260.301 142.5C252.201 140.7 247.701 132.9 243.201 125.1C240.201 119.7 228.201 99 223.101 72C237.333 84.6477 249.394 99.5457 258.801 116.1C263.301 123.9 267.801 131.7 265.701 139.8L405.801 382.5Z" fill="white"/>
<path d="M640.501 168H377.001C368.001 144 338.001 96 320.001 96C302.001 96 272.001 144 263.001 168H-0.199219V312H263.001C272.001 336 302.001 384 320.001 384C338.001 384 368.001 336 377.001 312H640.501V168Z" fill="#BB0000"/>
<path d="M377 312C386 288 392 264 392 240C392 216 386 192 377 168C368 192 362 216 362 240C362 264 368 288 377 312Z" fill="black"/>
<path d="M263 312C254 288 248 264 248 240C248 216 254 192 263 168C272 192 278 216 278 240C278 264 272 288 263 312Z" fill="black"/>
<path d="M320 258C326.627 258 332 249.941 332 240C332 230.059 326.627 222 320 222C313.373 222 308 230.059 308 240C308 249.941 313.373 258 320 258Z" fill="white"/>
<path d="M323 257.4C323 257.4 335 281.4 335 320.4C335 359.4 323 383.4 323 383.4V257.4Z" fill="white"/>
<path d="M317 222.6C317 222.6 305 198.6 305 159.6C305 120.6 317 96.6001 317 96.6001V222.6Z" fill="white"/>
<path d="M317 257.4C317 257.4 305 281.4 305 320.4C305 359.4 317 383.4 317 383.4V257.4Z" fill="white"/>
<path d="M323 222.6C323 222.6 335 198.6 335 159.6C335 120.6 323 96.6001 323 96.6001V222.6Z" fill="white"/>
</g>
<defs>
<clipPath id="clip0_3921_5221">
<rect width="640" height="480" fill="white"/>
</clipPath>
</defs>
</svg>
