<svg width="640" height="480" viewBox="0 0 640 480" fill="none" xmlns="http://www.w3.org/2000/svg">
<g clip-path="url(#clip0_3921_5240)">
<path d="M0 0H640V480H0V0Z" fill="#FF0000"/>
<path fill-rule="evenodd" clip-rule="evenodd" d="M340.699 146.6L343.399 94.6002C343.399 94.3335 343.266 94.1669 342.999 94.1002C342.799 94.1002 342.633 94.2335 342.499 94.5002L329.199 144.6L329.099 145.1C328.882 145.912 328.841 146.761 328.979 147.591C329.117 148.42 329.43 149.21 329.899 149.908C330.367 150.607 330.979 151.197 331.693 151.639C332.408 152.082 333.209 152.367 334.043 152.474C334.876 152.582 335.723 152.511 336.527 152.264C337.331 152.018 338.073 151.603 338.703 151.047C339.333 150.491 339.838 149.806 340.182 149.039C340.526 148.272 340.703 147.441 340.699 146.6ZM355.099 151L365.899 100C366.033 99.8002 365.933 99.6335 365.599 99.5002C365.399 99.5002 365.233 99.6002 365.099 99.8002L343.999 147.2L343.799 147.7C343.519 148.459 343.399 149.268 343.445 150.076C343.491 150.883 343.703 151.673 344.067 152.395C344.431 153.118 344.939 153.758 345.561 154.275C346.183 154.793 346.905 155.177 347.681 155.404C348.458 155.63 349.273 155.695 350.076 155.593C350.878 155.492 351.651 155.227 352.347 154.814C353.043 154.401 353.646 153.849 354.119 153.193C354.593 152.537 354.926 151.791 355.099 151ZM368.599 157.6L387.299 109C387.299 108.907 387.273 108.816 387.225 108.737C387.176 108.658 387.106 108.595 387.023 108.553C386.94 108.511 386.847 108.494 386.754 108.502C386.662 108.511 386.574 108.544 386.499 108.6L358.199 152L357.999 152.4C357.559 153.107 357.273 153.899 357.161 154.724C357.048 155.549 357.112 156.388 357.347 157.187C357.582 157.986 357.984 158.726 358.526 159.358C359.067 159.991 359.737 160.501 360.49 160.856C361.243 161.212 362.063 161.403 362.895 161.419C363.728 161.435 364.554 161.274 365.32 160.948C366.086 160.621 366.774 160.137 367.339 159.525C367.905 158.914 368.334 158.189 368.599 157.4M380.899 166.1L406.899 121.1C406.929 121.006 406.931 120.906 406.904 120.811C406.878 120.716 406.823 120.632 406.749 120.568C406.674 120.504 406.582 120.463 406.484 120.451C406.386 120.439 406.287 120.456 406.199 120.5L371.499 159.1L371.199 159.5C370.663 160.131 370.265 160.868 370.033 161.662C369.8 162.457 369.737 163.292 369.848 164.112C369.959 164.933 370.241 165.721 370.677 166.425C371.112 167.129 371.691 167.734 372.376 168.199C373.06 168.665 373.835 168.982 374.65 169.128C375.465 169.275 376.301 169.248 377.105 169.05C377.909 168.852 378.663 168.487 379.316 167.979C379.97 167.471 380.509 166.831 380.899 166.1ZM391.699 176.5L424.499 136.1V135.5H423.799L383.499 168.1L383.099 168.5C382.484 169.046 381.989 169.714 381.648 170.462C381.306 171.211 381.124 172.022 381.114 172.844C381.105 173.667 381.267 174.482 381.591 175.238C381.915 175.994 382.393 176.674 382.995 177.234C383.598 177.794 384.31 178.223 385.088 178.491C385.865 178.76 386.69 178.863 387.51 178.794C388.329 178.724 389.125 178.485 389.847 178.09C390.568 177.695 391.199 177.153 391.699 176.5ZM400.699 188.5L439.399 153.7C439.599 153.5 439.599 153.267 439.399 153H438.799L393.999 179L393.599 179.2C392.917 179.645 392.334 180.227 391.887 180.909C391.44 181.591 391.14 182.357 391.004 183.161C390.869 183.965 390.901 184.788 391.1 185.578C391.298 186.369 391.658 187.11 392.157 187.754C392.656 188.398 393.283 188.933 393.998 189.323C394.714 189.713 395.503 189.95 396.315 190.02C397.127 190.09 397.944 189.992 398.716 189.73C399.488 189.468 400.197 189.05 400.799 188.5M407.799 201.8L451.499 173.4C451.555 173.326 451.589 173.238 451.597 173.145C451.606 173.053 451.588 172.96 451.546 172.877C451.505 172.794 451.441 172.724 451.362 172.675C451.283 172.626 451.192 172.6 451.099 172.6L402.699 191.2L402.199 191.5C401.429 191.812 400.733 192.283 400.157 192.882C399.581 193.482 399.138 194.196 398.858 194.979C398.577 195.761 398.465 196.594 398.529 197.423C398.593 198.252 398.831 199.058 399.228 199.788C399.625 200.518 400.172 201.156 400.833 201.661C401.494 202.165 402.254 202.524 403.063 202.714C403.872 202.904 404.712 202.92 405.529 202.763C406.345 202.606 407.119 202.277 407.799 201.8ZM412.799 216L460.299 194.8C460.352 194.733 460.387 194.653 460.4 194.568C460.413 194.483 460.404 194.396 460.374 194.316C460.344 194.235 460.294 194.164 460.228 194.109C460.162 194.054 460.084 194.016 459.999 194L409.299 204.8L408.799 204.9C407.982 205.084 407.213 205.441 406.544 205.945C405.875 206.45 405.321 207.091 404.919 207.826C404.517 208.562 404.276 209.374 404.213 210.21C404.149 211.045 404.265 211.885 404.551 212.672C404.838 213.46 405.288 214.177 405.874 214.777C406.459 215.377 407.165 215.845 407.946 216.15C408.726 216.456 409.563 216.591 410.399 216.548C411.236 216.505 412.054 216.284 412.799 215.9M415.299 230.8L465.699 217.4C465.899 217.334 465.999 217.167 465.999 216.9C465.933 216.634 465.766 216.5 465.499 216.5L413.699 219.2H413.199C412.41 219.307 411.65 219.573 410.966 219.982C410.283 220.391 409.689 220.934 409.22 221.579C408.752 222.223 408.419 222.956 408.242 223.732C408.064 224.509 408.046 225.314 408.188 226.098C408.33 226.881 408.629 227.628 409.068 228.294C409.506 228.959 410.075 229.528 410.739 229.968C411.404 230.407 412.15 230.707 412.934 230.851C413.718 230.994 414.522 230.977 415.299 230.8ZM415.599 245.8L467.399 240.4C467.666 240.334 467.799 240.167 467.799 239.9C467.799 239.7 467.666 239.534 467.399 239.4L415.799 234H415.299C414.524 234.02 413.761 234.192 413.053 234.507C412.345 234.821 411.705 235.273 411.171 235.834C410.637 236.396 410.219 237.058 409.941 237.781C409.663 238.504 409.53 239.275 409.549 240.05C409.569 240.825 409.741 241.588 410.056 242.297C410.37 243.005 410.822 243.644 411.383 244.178C411.945 244.712 412.607 245.13 413.33 245.408C414.053 245.687 414.824 245.82 415.599 245.8ZM413.499 260.6L465.499 263.3C465.589 263.27 465.669 263.214 465.728 263.14C465.788 263.066 465.825 262.976 465.835 262.882C465.846 262.788 465.829 262.692 465.787 262.607C465.746 262.521 465.68 262.45 465.599 262.4L415.499 249.1L414.999 249C414.187 248.783 413.338 248.742 412.509 248.88C411.679 249.018 410.889 249.331 410.191 249.8C409.493 250.268 408.903 250.879 408.46 251.594C408.017 252.309 407.733 253.11 407.625 253.944C407.517 254.777 407.589 255.624 407.835 256.428C408.081 257.232 408.496 257.974 409.052 258.604C409.609 259.234 410.293 259.739 411.06 260.083C411.827 260.427 412.659 260.603 413.499 260.6ZM409.099 275L460.099 285.8C460.299 285.934 460.466 285.834 460.599 285.5C460.599 285.3 460.499 285.134 460.299 285L412.799 264L412.299 263.8C411.54 263.52 410.732 263.4 409.924 263.446C409.116 263.492 408.327 263.703 407.604 264.068C406.882 264.432 406.242 264.94 405.724 265.562C405.207 266.184 404.823 266.906 404.596 267.682C404.369 268.459 404.304 269.274 404.406 270.077C404.507 270.879 404.773 271.652 405.186 272.348C405.599 273.044 406.15 273.647 406.806 274.12C407.462 274.594 408.209 274.927 408.999 275.1M402.399 288.6L450.999 307.3C451.092 307.3 451.183 307.274 451.262 307.226C451.341 307.177 451.405 307.107 451.446 307.024C451.488 306.941 451.506 306.848 451.497 306.755C451.489 306.663 451.455 306.574 451.399 306.5L407.999 278.2L407.599 278C406.893 277.56 406.101 277.274 405.276 277.162C404.451 277.049 403.611 277.113 402.812 277.348C402.014 277.583 401.274 277.985 400.641 278.527C400.009 279.068 399.498 279.738 399.143 280.491C398.788 281.244 398.596 282.064 398.58 282.896C398.564 283.729 398.725 284.555 399.052 285.321C399.378 286.087 399.863 286.775 400.474 287.34C401.086 287.906 401.81 288.335 402.599 288.6M393.899 300.9L438.899 326.9C438.993 326.93 439.094 326.932 439.188 326.905C439.283 326.878 439.368 326.824 439.432 326.75C439.496 326.675 439.536 326.583 439.548 326.485C439.56 326.387 439.543 326.288 439.499 326.2L400.899 291.5L400.499 291.2C399.868 290.664 399.132 290.266 398.337 290.034C397.543 289.801 396.708 289.738 395.887 289.849C395.067 289.96 394.279 290.242 393.575 290.678C392.87 291.113 392.266 291.692 391.8 292.377C391.334 293.061 391.018 293.836 390.871 294.651C390.725 295.466 390.751 296.302 390.949 297.106C391.147 297.91 391.512 298.664 392.02 299.317C392.529 299.971 393.169 300.51 393.899 300.9ZM383.499 311.7L423.899 344.5C423.995 344.572 424.115 344.607 424.235 344.599C424.355 344.59 424.468 344.539 424.553 344.454C424.638 344.369 424.689 344.256 424.698 344.136C424.706 344.016 424.671 343.896 424.599 343.8L391.899 303.5L391.499 303.1C390.953 302.485 390.285 301.99 389.537 301.649C388.789 301.307 387.978 301.125 387.155 301.115C386.333 301.106 385.517 301.268 384.761 301.592C384.005 301.916 383.325 302.394 382.765 302.996C382.205 303.599 381.777 304.311 381.508 305.089C381.24 305.866 381.137 306.691 381.206 307.511C381.275 308.33 381.515 309.126 381.91 309.848C382.305 310.569 382.846 311.2 383.499 311.7ZM371.499 320.7L406.299 359.4C406.379 359.506 406.497 359.576 406.629 359.595C406.76 359.614 406.893 359.58 406.999 359.5C407.105 359.421 407.175 359.302 407.194 359.171C407.213 359.04 407.179 358.906 407.099 358.8L380.999 314L380.699 313.6C380.254 312.918 379.672 312.335 378.991 311.888C378.309 311.441 377.542 311.141 376.738 311.005C375.935 310.87 375.112 310.902 374.321 311.1C373.531 311.299 372.79 311.659 372.145 312.158C371.501 312.657 370.967 313.284 370.577 313.999C370.187 314.715 369.949 315.504 369.879 316.316C369.809 317.128 369.908 317.945 370.17 318.717C370.431 319.489 370.85 320.198 371.399 320.8M358.099 327.8L386.499 371.5C386.633 371.7 386.833 371.767 387.099 371.7C387.299 371.567 387.366 371.367 387.299 371.1L368.699 322.7L368.399 322.2C368.088 321.43 367.617 320.734 367.017 320.158C366.418 319.582 365.703 319.139 364.921 318.859C364.138 318.578 363.305 318.466 362.477 318.53C361.648 318.594 360.842 318.832 360.112 319.229C359.381 319.626 358.743 320.173 358.239 320.834C357.735 321.495 357.376 322.255 357.186 323.064C356.996 323.873 356.979 324.713 357.136 325.53C357.294 326.346 357.622 327.12 358.099 327.8ZM343.899 332.8L365.099 380.3C365.166 380.634 365.333 380.734 365.599 380.6C365.866 380.6 365.966 380.4 365.899 380L355.099 329.3L354.999 328.8C354.815 327.983 354.459 327.214 353.954 326.545C353.45 325.876 352.809 325.322 352.073 324.92C351.338 324.518 350.525 324.277 349.69 324.214C348.854 324.15 348.015 324.266 347.227 324.552C346.44 324.839 345.722 325.289 345.122 325.875C344.523 326.46 344.055 327.166 343.749 327.947C343.444 328.727 343.308 329.563 343.351 330.4C343.394 331.237 343.615 332.055 343.999 332.8M329.099 335.3L342.499 385.7C342.566 385.9 342.733 386 342.999 386C343.266 385.934 343.399 385.767 343.399 385.5L340.699 333.7V333.2C340.592 332.411 340.326 331.651 339.917 330.967C339.508 330.284 338.965 329.69 338.321 329.221C337.676 328.753 336.944 328.42 336.167 328.243C335.39 328.065 334.586 328.047 333.802 328.189C333.018 328.331 332.271 328.63 331.606 329.068C330.941 329.507 330.371 330.076 329.932 330.74C329.492 331.405 329.192 332.151 329.049 332.935C328.906 333.719 328.923 334.523 329.099 335.3ZM314.099 335.6L319.499 387.4C319.499 387.533 319.552 387.66 319.646 387.754C319.739 387.848 319.867 387.9 319.999 387.9C320.132 387.9 320.259 387.848 320.353 387.754C320.447 387.66 320.499 387.533 320.499 387.4L325.899 335.8C325.954 334.988 325.842 334.173 325.571 333.404C325.3 332.636 324.876 331.932 324.324 331.333C323.772 330.734 323.104 330.254 322.36 329.922C321.617 329.589 320.814 329.412 319.999 329.4C319.203 329.413 318.417 329.584 317.687 329.904C316.957 330.224 316.299 330.686 315.749 331.263C315.2 331.84 314.771 332.521 314.488 333.266C314.205 334.01 314.073 334.804 314.099 335.6ZM299.299 333.5L296.599 385.5C296.63 385.59 296.685 385.67 296.759 385.729C296.833 385.789 296.923 385.826 297.017 385.836C297.112 385.847 297.207 385.83 297.293 385.788C297.378 385.747 297.45 385.681 297.499 385.6L310.799 335.5L310.899 335C311.116 334.188 311.157 333.339 311.019 332.51C310.881 331.68 310.568 330.89 310.1 330.192C309.632 329.494 309.02 328.904 308.305 328.461C307.591 328.018 306.789 327.734 305.956 327.626C305.122 327.518 304.275 327.59 303.471 327.836C302.667 328.082 301.926 328.497 301.295 329.053C300.665 329.61 300.161 330.294 299.817 331.061C299.472 331.828 299.296 332.66 299.299 333.5ZM284.899 329.1L274.099 380.1C274.128 380.176 274.174 380.244 274.234 380.298C274.295 380.353 274.368 380.391 274.447 380.411C274.525 380.431 274.608 380.431 274.687 380.411C274.765 380.392 274.838 380.354 274.899 380.3L295.999 332.9L296.199 332.4C296.479 331.641 296.6 330.833 296.554 330.025C296.508 329.217 296.296 328.427 295.932 327.705C295.568 326.983 295.059 326.343 294.437 325.825C293.815 325.308 293.094 324.924 292.317 324.697C291.54 324.47 290.725 324.405 289.923 324.507C289.12 324.608 288.347 324.874 287.651 325.287C286.956 325.7 286.352 326.251 285.879 326.907C285.405 327.563 285.072 328.31 284.899 329.1ZM271.399 322.5L252.699 371C252.633 371.267 252.699 371.467 252.899 371.6C253.099 371.734 253.299 371.667 253.499 371.4L281.799 327.9C282.205 327.207 282.468 326.44 282.572 325.643C282.677 324.847 282.62 324.038 282.405 323.264C282.191 322.49 281.823 321.766 281.324 321.137C280.825 320.508 280.204 319.985 279.499 319.6C278.067 318.912 276.42 318.821 274.92 319.346C273.42 319.871 272.19 320.969 271.499 322.4M259.099 313.8L233.099 358.8C233.069 358.894 233.067 358.994 233.094 359.089C233.121 359.184 233.175 359.269 233.25 359.333C233.325 359.397 233.417 359.437 233.514 359.449C233.612 359.461 233.711 359.444 233.799 359.4L268.499 320.8L268.799 320.4C269.335 319.769 269.733 319.033 269.966 318.238C270.199 317.444 270.262 316.609 270.151 315.788C270.04 314.968 269.757 314.18 269.322 313.476C268.886 312.771 268.307 312.167 267.623 311.701C266.938 311.235 266.163 310.919 265.349 310.772C264.534 310.626 263.697 310.652 262.893 310.85C262.089 311.048 261.336 311.413 260.682 311.921C260.029 312.43 259.489 313.07 259.099 313.8ZM248.299 303.4L215.499 343.8V344.4C215.766 344.6 215.999 344.6 216.199 344.4L256.499 311.8L256.899 311.4C257.515 310.854 258.009 310.186 258.351 309.438C258.693 308.69 258.874 307.879 258.884 307.056C258.894 306.234 258.732 305.418 258.408 304.662C258.084 303.906 257.605 303.226 257.003 302.666C256.401 302.106 255.688 301.678 254.911 301.409C254.133 301.141 253.308 301.038 252.489 301.107C251.669 301.176 250.873 301.416 250.152 301.811C249.43 302.206 248.799 302.747 248.299 303.4ZM239.299 291.4L200.599 326.2C200.493 326.28 200.423 326.398 200.404 326.529C200.385 326.661 200.42 326.794 200.499 326.9C200.579 327.006 200.697 327.076 200.829 327.095C200.96 327.114 201.093 327.08 201.199 327L246.099 301L246.499 300.7C247.182 300.255 247.765 299.673 248.212 298.992C248.658 298.31 248.959 297.543 249.094 296.739C249.23 295.936 249.197 295.113 248.999 294.322C248.801 293.532 248.441 292.791 247.942 292.146C247.443 291.502 246.816 290.968 246.1 290.578C245.385 290.188 244.596 289.95 243.784 289.88C242.972 289.81 242.154 289.909 241.382 290.17C240.611 290.432 239.901 290.851 239.299 291.4ZM232.299 278.1L188.599 306.5C188.544 306.574 188.51 306.663 188.501 306.755C188.493 306.848 188.51 306.941 188.552 307.024C188.594 307.107 188.657 307.177 188.736 307.226C188.815 307.274 188.906 307.3 188.999 307.3L237.399 288.7L237.899 288.4C238.67 288.089 239.366 287.618 239.942 287.018C240.518 286.419 240.96 285.704 241.241 284.922C241.521 284.139 241.633 283.306 241.57 282.478C241.506 281.649 241.267 280.843 240.87 280.113C240.473 279.382 239.926 278.744 239.266 278.24C238.605 277.736 237.845 277.377 237.035 277.187C236.226 276.997 235.386 276.98 234.57 277.137C233.754 277.295 232.98 277.623 232.299 278.1ZM227.299 263.9L179.799 285.1C179.466 285.167 179.366 285.334 179.499 285.6C179.499 285.867 179.699 285.967 180.099 285.9L230.799 275.1L231.299 275C232.117 274.816 232.886 274.46 233.555 273.955C234.224 273.451 234.778 272.81 235.18 272.074C235.582 271.339 235.822 270.526 235.886 269.691C235.949 268.855 235.834 268.016 235.547 267.228C235.261 266.441 234.81 265.723 234.225 265.123C233.639 264.524 232.933 264.056 232.153 263.75C231.372 263.445 230.536 263.309 229.699 263.352C228.862 263.395 228.044 263.616 227.299 264M224.799 249.1L174.399 262.5C174.267 262.527 174.15 262.605 174.075 262.717C174 262.83 173.973 262.968 173.999 263.1C174.026 263.233 174.104 263.349 174.216 263.424C174.329 263.499 174.467 263.527 174.599 263.5L226.399 260.7H226.899C227.689 260.593 228.448 260.327 229.132 259.918C229.816 259.509 230.41 258.966 230.878 258.322C231.346 257.677 231.679 256.945 231.857 256.168C232.034 255.391 232.052 254.587 231.911 253.803C231.769 253.019 231.469 252.272 231.031 251.607C230.592 250.942 230.024 250.372 229.359 249.933C228.695 249.493 227.948 249.193 227.164 249.05C226.381 248.907 225.576 248.924 224.799 249.1ZM224.499 234.1L172.699 239.5C172.567 239.5 172.439 239.553 172.346 239.647C172.252 239.74 172.199 239.868 172.199 240C172.199 240.133 172.252 240.26 172.346 240.354C172.439 240.448 172.567 240.5 172.699 240.5L224.299 245.9H224.799C226.364 245.86 227.849 245.201 228.927 244.066C230.006 242.931 230.589 241.415 230.549 239.85C230.509 238.285 229.85 236.801 228.715 235.722C227.58 234.644 226.064 234.06 224.499 234.1ZM226.599 219.3L174.599 216.6C174.509 216.631 174.43 216.686 174.37 216.76C174.311 216.834 174.274 216.924 174.263 217.018C174.253 217.113 174.269 217.208 174.311 217.294C174.353 217.379 174.418 217.451 174.499 217.5L224.599 230.8L225.099 230.9C225.911 231.117 226.76 231.158 227.59 231.02C228.419 230.882 229.209 230.569 229.907 230.101C230.606 229.633 231.196 229.021 231.638 228.306C232.081 227.591 232.366 226.79 232.473 225.957C232.581 225.123 232.51 224.276 232.264 223.472C232.017 222.668 231.602 221.927 231.046 221.296C230.49 220.666 229.805 220.162 229.038 219.818C228.271 219.473 227.44 219.297 226.599 219.3ZM230.999 204.9L179.999 194.1C179.799 193.967 179.633 194.067 179.499 194.4C179.499 194.6 179.599 194.767 179.799 194.9L227.199 216L227.699 216.2C228.458 216.48 229.267 216.601 230.075 216.555C230.882 216.509 231.672 216.297 232.394 215.933C233.117 215.569 233.757 215.06 234.274 214.438C234.792 213.816 235.176 213.095 235.403 212.318C235.629 211.541 235.694 210.726 235.593 209.924C235.491 209.121 235.226 208.348 234.813 207.652C234.4 206.957 233.848 206.353 233.192 205.88C232.536 205.406 231.79 205.073 230.999 204.9ZM237.599 191.4L188.999 172.7C188.906 172.7 188.815 172.726 188.736 172.775C188.657 172.824 188.594 172.894 188.552 172.977C188.51 173.06 188.493 173.153 188.501 173.245C188.51 173.338 188.544 173.426 188.599 173.5L232.099 201.8L232.499 202C233.206 202.441 233.998 202.726 234.823 202.839C235.648 202.951 236.487 202.888 237.286 202.652C238.085 202.417 238.825 202.015 239.457 201.474C240.09 200.932 240.6 200.263 240.955 199.51C241.311 198.757 241.502 197.937 241.518 197.104C241.534 196.272 241.373 195.445 241.047 194.679C240.72 193.913 240.236 193.225 239.624 192.66C239.013 192.095 238.288 191.666 237.499 191.4M246.199 179.1L201.199 153.1H200.499C200.433 153.3 200.466 153.534 200.599 153.8L239.199 188.5L239.599 188.8C240.23 189.336 240.967 189.734 241.761 189.967C242.556 190.2 243.391 190.263 244.211 190.152C245.032 190.041 245.82 189.758 246.524 189.323C247.228 188.887 247.833 188.308 248.298 187.624C248.764 186.939 249.081 186.164 249.227 185.349C249.374 184.535 249.347 183.698 249.149 182.894C248.951 182.09 248.586 181.337 248.078 180.683C247.57 180.029 246.93 179.49 246.199 179.1ZM256.599 168.3L216.199 135.5H215.599C215.399 135.7 215.399 135.934 215.599 136.2L248.199 176.5L248.599 176.9C249.145 177.516 249.813 178.01 250.561 178.352C251.31 178.694 252.121 178.875 252.943 178.885C253.766 178.895 254.581 178.733 255.337 178.409C256.093 178.085 256.773 177.606 257.333 177.004C257.894 176.402 258.322 175.689 258.59 174.912C258.859 174.134 258.962 173.309 258.893 172.49C258.823 171.67 258.584 170.874 258.189 170.152C257.794 169.431 257.252 168.8 256.599 168.3ZM268.599 159.3L233.799 120.6C233.711 120.556 233.612 120.539 233.514 120.551C233.417 120.563 233.325 120.604 233.25 120.668C233.175 120.732 233.121 120.816 233.094 120.911C233.067 121.006 233.069 121.106 233.099 121.2L259.099 166.1L259.299 166.5C259.744 167.183 260.326 167.766 261.008 168.213C261.69 168.659 262.456 168.96 263.26 169.095C264.064 169.231 264.887 169.198 265.677 169C266.468 168.802 267.209 168.442 267.853 167.943C268.497 167.444 269.032 166.817 269.422 166.101C269.812 165.385 270.049 164.597 270.119 163.785C270.189 162.973 270.091 162.155 269.829 161.383C269.567 160.611 269.149 159.902 268.599 159.3ZM281.899 152.3L253.499 108.6C253.425 108.544 253.337 108.511 253.244 108.502C253.152 108.494 253.059 108.511 252.976 108.553C252.893 108.595 252.823 108.658 252.774 108.737C252.725 108.816 252.699 108.907 252.699 109L271.299 157.4L271.599 157.9C271.911 158.671 272.382 159.367 272.981 159.943C273.581 160.519 274.295 160.961 275.078 161.242C275.86 161.522 276.693 161.634 277.522 161.57C278.351 161.507 279.157 161.268 279.887 160.871C280.617 160.474 281.255 159.927 281.76 159.267C282.264 158.606 282.623 157.846 282.813 157.036C283.003 156.227 283.019 155.387 282.862 154.571C282.705 153.755 282.377 152.981 281.899 152.3ZM296.099 147.3L274.899 99.8002C274.832 99.7472 274.752 99.7125 274.667 99.6993C274.582 99.6862 274.495 99.6952 274.415 99.7253C274.335 99.7554 274.263 99.8058 274.208 99.8714C274.153 99.9371 274.115 100.016 274.099 100.1L284.899 150.8L284.999 151.3C285.183 152.118 285.54 152.887 286.044 153.556C286.549 154.225 287.19 154.779 287.925 155.181C288.661 155.583 289.473 155.823 290.309 155.887C291.144 155.95 291.984 155.835 292.771 155.548C293.559 155.262 294.276 154.811 294.876 154.226C295.476 153.64 295.944 152.934 296.249 152.154C296.555 151.373 296.69 150.537 296.647 149.7C296.604 148.863 296.383 148.045 295.999 147.3M310.899 144.8L297.499 94.4002C297.433 94.2002 297.266 94.1002 296.999 94.1002C296.733 94.1669 296.599 94.3335 296.599 94.6002L299.299 146.4V146.9C299.406 147.69 299.673 148.449 300.081 149.133C300.49 149.817 301.033 150.411 301.678 150.879C302.322 151.347 303.055 151.68 303.831 151.858C304.608 152.035 305.413 152.053 306.197 151.911C306.98 151.77 307.728 151.47 308.393 151.032C309.058 150.593 309.627 150.025 310.067 149.36C310.506 148.696 310.807 147.949 310.95 147.165C311.093 146.382 311.076 145.577 310.899 144.8ZM325.899 144.5L320.499 92.7002C320.499 92.5676 320.447 92.4404 320.353 92.3466C320.259 92.2529 320.132 92.2002 319.999 92.2002C319.867 92.2002 319.739 92.2529 319.646 92.3466C319.552 92.4404 319.499 92.5676 319.499 92.7002L314.099 144.3V144.8C314.119 145.575 314.291 146.338 314.606 147.047C314.92 147.755 315.372 148.394 315.933 148.928C316.495 149.462 317.157 149.88 317.88 150.158C318.603 150.437 319.374 150.57 320.149 150.55C320.924 150.531 321.687 150.358 322.396 150.044C323.104 149.729 323.743 149.278 324.277 148.716C324.811 148.154 325.229 147.493 325.508 146.769C325.786 146.046 325.919 145.275 325.899 144.5ZM319.999 150.8C343.657 150.8 366.345 160.198 383.073 176.926C399.801 193.655 409.199 216.343 409.199 240C409.199 263.658 399.801 286.346 383.073 303.074C366.345 319.802 343.657 329.2 319.999 329.2C296.342 329.2 273.654 319.802 256.925 303.074C240.197 286.346 230.799 263.658 230.799 240C230.799 216.343 240.197 193.655 256.925 176.926C273.654 160.198 296.342 150.8 319.999 150.8ZM319.999 161.5C330.308 161.5 340.516 163.531 350.04 167.476C359.564 171.421 368.218 177.203 375.507 184.492C382.796 191.782 388.579 200.435 392.524 209.96C396.469 219.484 398.499 229.691 398.499 240C398.499 250.309 396.469 260.517 392.524 270.041C388.579 279.565 382.796 288.219 375.507 295.508C368.218 302.797 359.564 308.58 350.04 312.525C340.516 316.47 330.308 318.5 319.999 318.5C299.18 318.5 279.213 310.23 264.491 295.508C249.77 280.786 241.499 260.82 241.499 240C241.499 219.181 249.77 199.214 264.491 184.492C279.213 169.771 299.18 161.5 319.999 161.5ZM254.399 263.5C262.388 247.062 273.222 232.165 286.399 219.5L292.399 223.5C278.028 237.293 266.45 253.726 258.299 271.9C256.819 269.222 255.516 266.449 254.399 263.6M325.499 223C327.366 224.534 329.166 226.134 330.899 227.8L336.699 223.3L331.299 218.6L325.499 223ZM314.099 214.3L319.999 218.6L325.899 214.3L319.999 210L314.099 214.3ZM314.699 232.6L319.999 237.6L325.299 232.6L319.999 227.6L314.699 232.6ZM303.299 223.3C305.299 224.767 307.233 226.267 309.099 227.8L314.499 223L308.699 218.6C306.899 220.067 305.099 221.634 303.299 223.3ZM338.499 206.4C336.499 204.867 334.499 203.434 332.499 202.1L325.799 206.1L331.799 210.4L338.499 206.4ZM348.899 215L343.599 210.4L337.199 214.4L342.699 219L348.899 215ZM312.899 198.4C315.233 196.867 317.599 195.434 319.999 194.1L326.999 198.4L319.999 202.4L312.899 198.4ZM301.399 206.4C303.399 204.867 305.399 203.434 307.399 202.1L314.099 206.1L308.099 210.4L301.399 206.4ZM290.999 215L296.299 210.4L302.699 214.4L297.199 219L290.999 215ZM258.299 204.8C265.726 207.78 272.913 211.324 279.799 215.4C268.393 226.317 258.746 238.933 251.199 252.8C247.825 236.475 250.303 219.482 258.199 204.8M264.199 195.6C272.866 198.4 281.399 202.067 289.799 206.6L284.499 211.2C276.766 206.934 268.899 203.334 260.899 200.4C261.966 198.667 263.066 197.067 264.199 195.6ZM271.699 187.3C281.433 189.967 291.166 193.734 300.899 198.6L294.899 202.8C285.899 198.334 276.799 194.6 267.599 191.6L271.699 187.3ZM282.699 178.9L283.299 179.1L284.099 179.3C293.966 181.967 303.866 185.8 313.799 190.8L306.399 195.1C296.687 190.368 286.582 186.487 276.199 183.5C278.199 181.834 280.333 180.3 282.599 178.9M351.199 175.5L350.399 175.8C340.133 178.8 329.966 182.734 319.899 187.6C310.033 182.8 300.033 178.9 289.899 175.9L289.399 175.8C289.066 175.8 288.799 175.7 288.599 175.5C298.318 170.642 309.034 168.113 319.899 168.113C330.764 168.113 341.481 170.642 351.199 175.5ZM363.699 183.5L362.999 183.7C352.999 186.634 343.133 190.434 333.399 195.1C330.999 193.567 328.533 192.134 325.999 190.8C335.938 185.638 346.441 181.645 357.299 178.9C359.566 180.367 361.699 181.9 363.699 183.5ZM372.199 191.5C362.999 194.5 353.933 198.267 344.999 202.8L338.999 198.6C348.666 193.667 358.333 189.9 367.999 187.3L372.199 191.5ZM378.899 200.3C370.899 203.234 363.033 206.834 355.299 211.1L349.999 206.6C358.399 201.934 366.933 198.267 375.599 195.6C376.799 197 377.899 198.567 378.899 200.3ZM388.599 252.7C381.053 238.833 371.405 226.217 359.999 215.3C366.885 211.224 374.073 207.68 381.499 204.7C389.513 219.342 392.031 236.365 388.599 252.7ZM381.599 271.8C373.467 253.67 361.924 237.272 347.599 223.5C349.599 222.034 351.599 220.667 353.599 219.4C366.71 232.101 377.505 246.991 385.499 263.4C384.386 266.283 383.083 269.089 381.599 271.8ZM370.699 286.8C362.099 264.8 350.099 246.9 335.999 232.6L341.599 227.9C356.199 242.3 368.599 259.9 376.599 279.8C374.785 282.258 372.814 284.596 370.699 286.8ZM357.399 297.7L356.499 295.2C348.799 274.2 337.899 257 325.099 242.9L330.399 237.6C345.571 253.263 357.17 272.027 364.399 292.6C362.169 294.407 359.831 296.077 357.399 297.6M289.499 301.6L290.399 298.8C296.899 279.8 307.199 262.8 319.899 248.5C332.599 262.9 342.899 279.8 349.399 298.8L350.399 301.6C340.904 306.187 330.495 308.57 319.949 308.57C309.404 308.57 298.995 306.187 289.499 301.6ZM275.399 292.6C282.628 272.027 294.227 253.263 309.399 237.6L314.699 242.9C300.935 258.128 290.269 275.893 283.299 295.2L282.299 297.7C279.866 296.179 277.528 294.509 275.299 292.7M263.299 279.7C271.299 259.8 283.599 242.3 298.199 227.9L303.799 232.6C288.614 248.077 276.799 266.531 269.099 286.8C267.033 284.534 265.066 282.2 263.199 279.8" fill="#FFFF00"/>
</g>
<defs>
<clipPath id="clip0_3921_5240">
<rect width="640" height="480" fill="white"/>
</clipPath>
</defs>
</svg>
