<svg width="640" height="480" viewBox="0 0 640 480" fill="none" xmlns="http://www.w3.org/2000/svg">
<g clip-path="url(#clip0_3921_5243)">
<path d="M0 0H640V480H0V0Z" fill="#032EA1"/>
<path d="M0 120H640V360H0V120Z" fill="#E00025"/>
<path d="M252.4 226.2H388.96V278.76H252.4V226.2Z" fill="white" stroke="black" stroke-width="1.2" stroke-linejoin="bevel"/>
<path d="M382 255.12H386.2V274.92H382V255.12ZM252.4 245.4H388.96V251.4H252.4V245.4ZM252.4 237H388.96V242.52H252.4V237Z" fill="white" stroke="black" stroke-width="1.2" stroke-linejoin="bevel"/>
<path d="M252.4 228.84H388.96V234H252.4V228.84Z" fill="white" stroke="black" stroke-width="1.08" stroke-linejoin="bevel"/>
<path d="M288.4 255.12H292.72V274.92H288.4V255.12ZM347.2 255.12H351.52V274.92H347.2V255.12ZM253.6 255.12H257.8V274.92H253.6V255.12ZM262 255.12H266.2V274.92H262V255.12ZM271 255.12H275.2V274.92H271V255.12ZM280 255.12H284.2V274.92H280V255.12ZM355.36 255.12H359.68V274.92H355.36V255.12ZM364.36 255.12H368.68V274.92H364.36V255.12ZM373.36 255.12H377.68V274.92H373.36V255.12Z" fill="white" stroke="black" stroke-width="1.2" stroke-linejoin="bevel"/>
<path d="M199 281.4C200.255 280.739 201.367 279.837 202.273 278.745C203.178 277.654 203.861 276.395 204.28 275.04H436C436.419 276.395 437.102 277.654 438.007 278.745C438.913 279.837 440.025 280.739 441.28 281.4H199Z" fill="white" stroke="black" stroke-width="1.2"/>
<path d="M317.2 146.16C317.2 146.16 317.08 141.24 319.96 141.12C322.72 141.12 322.6 146.16 322.6 146.16H317.2ZM302.2 211.56V204.96C302.2 201.6 298.84 201.36 298.84 198.96C298.84 198.96 298.36 195.36 299.32 193.68C300.64 198.48 302.92 197.64 302.92 195.6C302.92 193.92 301.72 192.24 298.96 188.04C298 186.72 298.6 182.52 299.8 180.96C300.12 184.56 301 186.36 302.44 186.36C303.48 186.44 304.04 185.64 304.12 183.96C304.12 181.56 302.56 180.36 301.72 178.2C301.306 177.125 301.21 175.954 301.445 174.826C301.679 173.698 302.232 172.662 303.04 171.84C303.64 175.44 303.52 176.88 305.08 176.88C308.32 175.8 305.08 171.12 304.36 169.92C303.64 168.6 305.56 165.84 305.56 165.84C306.52 169.08 306.76 169.32 307.96 168.96C309.4 168.6 309.16 166.56 307.48 164.88C306.44 163.6 306.52 162.28 307.72 160.92C308.92 163.2 310.36 163.08 310.48 161.64L309.52 156.36H330.4L329.32 161.52C329.08 162.96 331 163.32 332.2 160.92C333.4 162.12 333.52 163.8 332.44 164.88C330.76 166.56 330.52 168.6 331.96 168.96C333.16 169.32 333.4 168.96 334.36 165.84C334.36 165.84 336.16 167.64 335.56 169.92C334.84 171.12 331.6 175.92 334.84 176.88C336.4 176.88 336.28 175.44 336.88 171.84C337.667 172.675 338.198 173.717 338.411 174.844C338.623 175.972 338.508 177.136 338.08 178.2C337.36 180.36 335.68 181.56 335.68 183.96C335.84 185.64 336.44 186.44 337.48 186.36C338.92 186.36 339.8 184.56 340.12 180.96C341.32 182.52 341.92 186.72 340.96 188.16C338.2 192.24 336.88 193.92 336.88 195.6C336.88 197.64 339.28 198.48 340.48 193.68C341.56 195.36 341.08 198.96 341.08 198.96C341.08 201.36 337.84 201.6 337.72 204.96V211.56H302.2ZM310.84 156.36L310.36 152.64H329.44L328.96 156.36H310.84ZM312.04 152.52L311.8 149.52H328L327.64 152.52H312.04ZM314.8 149.4L314.44 146.28H325.24L325.12 149.4H314.8ZM354.4 281.4C352 280.56 348.4 277.92 348.4 275.4V246.24L351.52 242.16H288.4L291.4 246.24V275.4C291.4 277.92 289 280.56 286.6 281.4H354.4Z" fill="white" stroke="black" stroke-width="1.2"/>
<path d="M299.439 255.12H303.759V274.92H299.439V255.12ZM335.919 255.12H340.239V274.92H335.919V255.12Z" fill="white" stroke="black" stroke-width="1.2" stroke-linejoin="bevel"/>
<path d="M287.198 209.04V242.16H351.998V209.04C351.239 209.295 350.556 209.737 350.011 210.323C349.466 210.91 349.077 211.624 348.878 212.4V226.56H290.438V212.4C290.438 212.4 289.718 210 287.078 209.04H287.198Z" fill="white" stroke="black" stroke-width="1.2"/>
<path d="M343.118 281.4C340.958 280.56 336.398 277.92 336.398 275.4V242.76C336.878 240.96 339.278 239.88 340.838 238.68H297.998C300.038 239.88 302.318 240.72 303.158 242.76V275.4C303.158 277.92 299.558 280.56 297.398 281.4H343.118Z" fill="white" stroke="black" stroke-width="1.2"/>
<path d="M348.879 239.04V215.52H342.999V213.24H296.439V215.64H290.439V239.04H348.879ZM333.999 281.4C331.839 280.56 328.839 277.92 328.839 275.4V247.56L330.519 245.04H309.279L311.079 247.44V275.4C311.079 277.92 307.959 280.56 305.919 281.4H333.999Z" fill="white" stroke="black" stroke-width="1.2"/>
<path d="M314.439 245.04H325.239V281.4H314.439V245.04Z" fill="white" stroke="black" stroke-width="1.2"/>
<path d="M330.878 237C330.878 234.6 337.838 234.48 341.438 232.44H298.238C301.838 234.48 308.678 234.6 308.678 237L310.118 241.68L328.118 242.4L330.878 237Z" fill="white" stroke="black" stroke-width="1.2" stroke-linejoin="bevel"/>
<path d="M339.279 211.56C339.279 205.68 339.519 203.52 341.319 203.52V222C336.879 223.68 333.759 229.2 333.759 229.2H305.919C305.919 229.2 302.799 223.68 298.359 222V203.4C300.519 203.4 300.519 205.8 300.519 211.44L339.279 211.56ZM341.319 209.16C341.319 202.44 347.199 201.72 347.199 201.72V207.72C344.919 207.6 343.839 209.64 343.839 212.52C343.839 215.52 345.639 215.52 345.639 215.52V232.56H341.319V209.16Z" fill="white" stroke="black" stroke-width="1.2"/>
<path d="M298.359 209.16C298.359 202.44 292.479 201.72 292.479 201.72V207.72C294.759 207.6 295.839 209.64 295.839 212.52C295.839 215.52 294.039 215.52 294.039 215.52V232.56H298.359V209.16Z" fill="white" stroke="black" stroke-width="1.2"/>
<path d="M309.758 162.72H330.398M307.358 169.2H332.558M304.958 177H334.838M302.438 186.48H337.838M301.598 197.28H338.078" stroke="black" stroke-width="0.96"/>
<path d="M290.559 232.8H348.879M309.039 232.8H330.639V240.72H309.039V232.8Z" stroke="black" stroke-width="1.2"/>
<path d="M306.398 215.04C309.998 219.36 309.518 226.68 309.518 231H330.398C330.398 226.68 329.918 219.36 333.518 215.04H306.398ZM318.038 165.84L315.158 164.28V160.08C316.358 160.44 317.558 160.56 317.798 162.48C318.158 159.72 318.998 159.96 320.078 158.88C321.278 159.96 321.878 159.72 322.358 162.48C322.358 160.56 323.798 160.44 324.878 160.08V164.28L322.118 165.72L318.038 165.84Z" fill="white" stroke="black" stroke-width="1.2"/>
<path d="M317.8 172.68L313 169.32V165.6C314.8 165.96 316.6 166.2 316.84 168.24C317.32 165.24 318.4 163.8 320.08 162.6C321.64 163.8 322.72 165.24 323.32 168.24C323.44 166.2 325.36 165.96 326.92 165.6V169.44L322.24 172.68H317.8Z" fill="white" stroke="black" stroke-width="1.2"/>
<path d="M317.439 183.36L312.039 178.56V172.92C313.959 173.4 316.119 173.64 316.359 176.64C316.959 172.44 318.159 170.16 319.959 168.48C321.879 170.16 323.079 172.44 323.799 176.64C324.039 173.64 326.199 173.4 328.119 172.92V178.56L322.599 183.36H317.439ZM327.519 189.72L322.719 196.56H317.079L312.159 189.72H327.519ZM309.279 201.12C311.599 202.32 312.799 205.36 312.879 210.24H326.799C326.879 205.36 328.079 202.32 330.399 201.12H309.279Z" fill="white" stroke="black" stroke-width="1.2"/>
<path d="M330.639 189.6V182.88C329.597 183.078 328.626 183.549 327.824 184.245C327.023 184.94 326.421 185.836 326.079 186.84C326.079 184.44 323.079 179.28 319.839 176.64C316.599 179.52 313.479 184.32 313.599 186.72C312.959 184.8 311.439 183.52 309.039 182.88V189.72L330.639 189.6Z" fill="white" stroke="black" stroke-width="1.2" stroke-linejoin="bevel"/>
<path d="M331.598 201.12V194.4C329.038 195.12 327.398 196.44 326.678 198.36C326.678 195.96 323.438 190.8 319.838 188.16C316.238 191.16 312.878 195.84 312.998 198.36C312.358 196.52 310.718 195.2 308.078 194.4V201.24L331.598 201.12Z" fill="white" stroke="black" stroke-width="1.2" stroke-linejoin="bevel"/>
<path d="M334.478 215.16V207.24C331.996 208.053 329.848 209.654 328.358 211.8C328.358 207.6 323.558 201 319.838 198.96C315.998 201.12 311.318 207.84 311.318 211.8C309.798 209.633 307.604 208.03 305.078 207.24V215.16H334.478Z" fill="white" stroke="black" stroke-width="1.2" stroke-linejoin="bevel"/>
<path d="M332.799 232.8V224.64C329.919 225.72 329.199 228.36 328.239 230.28C328.599 222 323.679 213.24 319.839 210.96C315.999 213.24 310.959 222.24 311.439 230.16C310.479 228.48 309.639 225.72 306.879 224.64V232.68L332.799 232.8Z" fill="white" stroke="black" stroke-width="1.2" stroke-linejoin="bevel"/>
<path d="M330.879 245.04V236.88C327.879 237.6 327.759 238.68 326.799 240.48C327.159 235.56 323.679 229.92 319.839 227.76C315.999 229.92 312.639 235.56 312.879 240.48C311.919 238.68 311.799 237.6 308.799 236.88V245.04H330.879Z" fill="white" stroke="black" stroke-width="1.2"/>
<path d="M204.399 275.04V250.56C203.559 247.44 200.799 244.56 198.879 244.08V222.48L203.319 224.88L208.479 247.56V275.16L204.399 275.04Z" fill="white" stroke="black" stroke-width="1.2"/>
<path d="M204.399 275.16V250.56C203.559 247.44 200.799 244.56 198.879 244.08V221.04C201.879 221.04 203.319 224.88 203.319 224.88L208.479 247.56V275.04L204.399 275.16Z" fill="white" stroke="black" stroke-width="1.2"/>
<path d="M201.158 281.4C203.198 280.56 206.198 277.92 206.198 275.4V244.68L204.758 242.28H257.198L255.158 244.68V275.4C255.246 276.672 255.67 277.897 256.387 278.952C257.104 280.006 258.088 280.851 259.238 281.4H201.158Z" fill="white" stroke="black" stroke-width="1.2"/>
<path d="M248.56 281.4C246.52 280.56 243.52 277.92 243.52 275.4V246.24L247.84 242.16H212.32L216.64 246.24V275.4C216.64 277.92 213.64 280.56 211.6 281.4H248.56Z" fill="white" stroke="black" stroke-width="1.2"/>
<path d="M243.64 281.4C241.6 280.56 238.48 277.92 238.48 275.4V249L241.36 245.04H218.8L221.68 249V275.4C221.68 277.92 218.68 280.56 216.52 281.4H243.64Z" fill="white" stroke="black" stroke-width="1.2"/>
<path d="M224.8 245.04H235.48V281.52H224.68L224.8 245.04Z" fill="white" stroke="black" stroke-width="1.2"/>
<path d="M210.038 255.12H214.358V274.92H210.038V255.12ZM246.998 255.12H251.198V274.92H246.878L246.998 255.12ZM206.318 221.76H211.598V242.16H206.318V221.76ZM206.318 217.92H211.478V221.76H206.318V217.92ZM249.038 226.2H256.358V241.8H249.038V226.2Z" fill="white"/>
<path d="M206.318 221.76H211.598V242.16H206.318V221.76ZM206.318 221.76H211.478V217.92H206.318V221.76ZM210.038 255.12H214.358V274.92H210.038V255.12ZM246.998 255.12H251.198V274.92H246.878L246.998 255.12ZM249.038 226.2H256.358V241.8H249.038V226.2Z" stroke="black" stroke-width="1.2" stroke-linejoin="bevel"/>
<path d="M211.479 241.92V207.12C212.919 207.12 213.159 212.28 216.519 212.28C218.319 212.28 218.199 210.12 217.119 208.44C216.279 206.88 215.199 204.84 216.639 200.88C217.719 203.88 220.359 204.84 219.879 203.04C219.039 199.8 216.519 199.2 218.439 194.28C219.039 198.36 221.679 198.24 221.079 195.84C220.359 193.08 218.799 191.88 220.719 188.04C221.799 192.48 223.119 192.24 223.119 189.48C223.119 185.4 223.119 181.08 228.159 179.52C228.159 179.52 228.519 175.92 230.439 175.92C232.359 175.92 232.599 179.52 232.599 179.52C237.759 181.08 237.639 185.52 237.639 189.48C237.639 192.24 238.959 192.48 240.039 188.04C241.959 191.88 240.399 193.08 239.679 195.84C239.079 198.24 241.719 198.36 242.319 194.28C244.239 199.2 241.719 199.8 240.879 203.04C240.399 204.84 243.039 203.88 244.119 200.88C245.559 204.84 244.479 206.88 243.639 208.44C242.679 210.12 242.439 212.28 244.239 212.28C247.599 212.28 247.839 207.24 249.279 207.24V241.92H211.479ZM203.199 215.64V242.16H206.199V215.64C205.159 215.08 204.159 215.08 203.199 215.64Z" fill="white" stroke="black" stroke-width="1.2"/>
<path d="M203.439 232.8C207.159 234.72 210.879 237 211.839 242.16H203.439V232.8ZM255.279 224.88V242.16H257.679V224.88C256.879 224.48 256.079 224.48 255.279 224.88Z" fill="white" stroke="black" stroke-width="1.2"/>
<path d="M257.678 232.8C253.958 234.6 250.238 236.76 249.278 242.04H257.678V232.8ZM232.958 192.36L235.118 190.56V188.16C234.478 188.16 233.878 188.56 233.318 189.36C233.085 188.589 232.7 187.873 232.184 187.255C231.669 186.636 231.034 186.128 230.318 185.76C229.592 186.102 228.942 186.586 228.406 187.184C227.87 187.781 227.459 188.481 227.198 189.24C226.718 188.52 226.118 188.12 225.398 188.04V190.44L227.558 192.36H232.958Z" fill="white" stroke="black" stroke-width="1.2"/>
<path d="M234.158 198.24L235.118 195.96V192.96C234.478 192.96 233.878 193.36 233.318 194.16C233.085 193.389 232.7 192.674 232.184 192.055C231.669 191.437 231.034 190.928 230.318 190.56C229.592 190.902 228.942 191.386 228.406 191.984C227.87 192.582 227.459 193.281 227.198 194.04C226.718 193.32 226.118 192.96 225.398 192.96V195.96L226.358 198.24H234.158Z" fill="white" stroke="black" stroke-width="1.2"/>
<path d="M234.398 206.16L237.518 202.2V198.36C236.478 198.36 235.598 199 234.878 200.28C234.038 197.52 232.478 197.04 230.318 195.72C228.038 196.92 226.478 197.52 225.758 200.16C224.798 198.84 224.198 198.48 222.998 198.36V202.2L226.238 206.16H234.398Z" fill="white" stroke="black" stroke-width="1.2"/>
<path d="M235.238 213.96C235.238 213.96 239.078 210.72 239.198 208.92V204.72C237.758 204.84 236.438 205.2 235.358 207C234.398 203.52 232.958 202.56 230.318 201C227.558 202.56 226.118 203.52 225.278 207C224.078 205.2 222.878 204.84 221.318 204.6V208.92C222.326 210.823 223.667 212.53 225.278 213.96H235.238Z" fill="white" stroke="black" stroke-width="1.2"/>
<path d="M236.799 228.36C236.799 228.36 242.079 222.72 242.199 220.44V213.96C240.199 214.12 238.439 215.56 236.919 218.28C235.879 213 233.679 209.08 230.319 206.52C226.719 209.16 224.799 212.88 223.599 218.28C222.079 215.56 220.359 214.12 218.439 213.96V220.44C218.799 222.72 223.719 228.36 223.719 228.36H236.799Z" fill="white" stroke="black" stroke-width="1.2"/>
<path d="M236.799 236.88C236.799 236.88 241.239 232.44 242.199 230.52V224.04C240.199 224.28 238.439 225.68 236.919 228.24C236.598 226.057 235.85 223.958 234.718 222.064C233.585 220.169 232.091 218.517 230.319 217.2C226.719 219.84 224.799 222.84 223.599 228.24C222.079 225.68 220.359 224.28 218.439 224.04V230.52C219.639 232.44 223.719 236.88 223.719 236.88H236.799Z" fill="white" stroke="black" stroke-width="1.2"/>
<path d="M238.599 241.92C237.399 236.28 236.199 232.08 230.079 227.88C223.839 232.08 222.759 236.28 221.439 241.92H238.599Z" fill="white" stroke="black" stroke-width="1.2"/>
<path d="M241.839 245.04V236.88C238.959 238.08 236.439 239.64 235.479 241.44C234.519 236.88 232.479 234.96 229.959 232.2C227.439 234.96 225.759 237 224.679 241.44C223.719 239.64 221.199 237.96 218.439 236.88V245.04H241.839Z" fill="white" stroke="black" stroke-width="1.2"/>
<path d="M435.638 275.04V250.56C436.478 247.44 439.238 244.56 441.158 244.08V222.48L436.718 224.88L431.558 247.56V275.16L435.638 275.04Z" fill="white" stroke="black" stroke-width="1.2"/>
<path d="M435.638 275.16V250.56C436.478 247.44 439.238 244.56 441.158 244.08V221.04C438.158 221.04 436.718 224.88 436.718 224.88L431.558 247.56V275.04L435.638 275.16Z" fill="white" stroke="black" stroke-width="1.2"/>
<path d="M438.879 281.4C436.839 280.56 433.839 277.92 433.839 275.4V244.68L435.279 242.28H382.839L384.879 244.68V275.4C384.791 276.672 384.367 277.897 383.65 278.952C382.933 280.006 381.949 280.851 380.799 281.4H438.879Z" fill="white" stroke="black" stroke-width="1.2"/>
<path d="M391.477 281.4C393.517 280.56 396.517 277.92 396.517 275.4V246.24L392.198 242.16H427.718L423.398 246.24V275.4C423.398 277.92 426.398 280.56 428.438 281.4H391.477Z" fill="white" stroke="black" stroke-width="1.2"/>
<path d="M396.398 281.4C398.438 280.56 401.558 277.92 401.558 275.4V249L398.678 245.04H421.238L418.358 249V275.4C418.358 277.92 421.358 280.56 423.518 281.4H396.398Z" fill="white" stroke="black" stroke-width="1.2"/>
<path d="M415.237 245.04H404.557V281.52H415.357L415.237 245.04Z" fill="white" stroke="black" stroke-width="1.2"/>
<path d="M429.999 255.12H425.679V274.92H429.999V255.12ZM393.039 255.12H388.839V274.92H393.159L393.039 255.12ZM433.719 221.76H428.439V242.16H433.719V221.76ZM433.719 217.92H428.559V221.76H433.719V217.92ZM390.999 226.2H383.679V241.8H390.999V226.2Z" fill="white"/>
<path d="M433.719 221.76H428.439V242.16H433.719V221.76ZM433.719 221.76H428.559V217.92H433.719V221.76ZM429.999 255.12H425.679V274.92H429.999V255.12ZM393.039 255.12H388.839V274.92H393.159L393.039 255.12ZM390.999 226.2H383.679V241.8H390.999V226.2Z" stroke="black" stroke-width="1.2" stroke-linejoin="bevel"/>
<path d="M428.558 241.92V207.12C427.118 207.12 426.878 212.28 423.518 212.28C421.718 212.28 421.838 210.12 422.918 208.44C423.758 206.88 424.838 204.84 423.398 200.88C422.318 203.88 419.678 204.84 420.158 203.04C420.998 199.8 423.518 199.2 421.598 194.28C420.998 198.36 418.358 198.24 418.958 195.84C419.678 193.08 421.238 191.88 419.318 188.04C418.238 192.48 416.918 192.24 416.918 189.48C416.918 185.4 416.918 181.08 411.878 179.52C411.878 179.52 411.518 175.92 409.598 175.92C407.678 175.92 407.438 179.52 407.438 179.52C402.278 181.08 402.398 185.52 402.398 189.48C402.398 192.24 401.078 192.48 399.998 188.04C398.078 191.88 399.638 193.08 400.358 195.84C400.958 198.24 398.318 198.36 397.718 194.28C395.798 199.2 398.318 199.8 399.158 203.04C399.638 204.84 396.998 203.88 395.918 200.88C394.478 204.84 395.558 206.88 396.398 208.44C397.358 210.12 397.598 212.28 395.798 212.28C392.438 212.28 392.198 207.24 390.758 207.24V241.92H428.558ZM436.838 215.64V242.16H433.838V215.64C434.878 215.08 435.878 215.08 436.838 215.64Z" fill="white" stroke="black" stroke-width="1.2"/>
<path d="M436.598 232.8C432.878 234.72 429.158 237 428.198 242.16H436.598V232.8ZM384.758 224.88V242.16H382.358V224.88C383.158 224.48 383.958 224.48 384.758 224.88Z" fill="white" stroke="black" stroke-width="1.2"/>
<path d="M382.359 232.8C386.079 234.6 389.799 236.76 390.759 242.04H382.359V232.8ZM407.079 192.36L404.919 190.56V188.16C405.559 188.16 406.159 188.56 406.719 189.36C406.952 188.589 407.337 187.873 407.853 187.255C408.368 186.636 409.003 186.128 409.719 185.76C410.445 186.102 411.096 186.586 411.631 187.184C412.167 187.781 412.578 188.481 412.839 189.24C413.319 188.52 413.919 188.12 414.639 188.04V190.44L412.479 192.36H407.079Z" fill="white" stroke="black" stroke-width="1.2"/>
<path d="M405.879 198.24L404.919 195.96V192.96C405.559 192.96 406.159 193.36 406.719 194.16C406.952 193.389 407.337 192.674 407.853 192.055C408.368 191.437 409.003 190.928 409.719 190.56C410.445 190.902 411.096 191.386 411.631 191.984C412.167 192.582 412.578 193.281 412.839 194.04C413.319 193.32 413.919 192.96 414.639 192.96V195.96L413.679 198.24H405.879Z" fill="white" stroke="black" stroke-width="1.2"/>
<path d="M405.639 206.16L402.519 202.2V198.36C403.559 198.36 404.439 199 405.159 200.28C405.999 197.52 407.559 197.04 409.719 195.72C411.999 196.92 413.559 197.52 414.279 200.16C415.239 198.84 415.839 198.48 417.039 198.36V202.2L413.799 206.16H405.639Z" fill="white" stroke="black" stroke-width="1.2"/>
<path d="M404.799 213.96C404.799 213.96 400.959 210.72 400.839 208.92V204.72C402.279 204.84 403.599 205.2 404.679 207C405.639 203.52 407.079 202.56 409.719 201C412.479 202.56 413.919 203.52 414.759 207C415.959 205.2 417.159 204.84 418.719 204.6V208.92C417.711 210.823 416.37 212.53 414.759 213.96H404.799Z" fill="white" stroke="black" stroke-width="1.2"/>
<path d="M403.238 228.36C403.238 228.36 397.958 222.72 397.838 220.44V213.96C399.838 214.12 401.598 215.56 403.118 218.28C404.158 213 406.358 209.08 409.718 206.52C413.318 209.16 415.238 212.88 416.438 218.28C417.958 215.56 419.678 214.12 421.598 213.96V220.44C421.238 222.72 416.318 228.36 416.318 228.36H403.238Z" fill="white" stroke="black" stroke-width="1.2"/>
<path d="M403.238 236.88C403.238 236.88 398.798 232.44 397.838 230.52V224.04C399.838 224.28 401.598 225.68 403.118 228.24C403.439 226.057 404.187 223.958 405.319 222.064C406.452 220.169 407.946 218.517 409.718 217.2C413.318 219.84 415.238 222.84 416.438 228.24C417.958 225.68 419.678 224.28 421.598 224.04V230.52C420.398 232.44 416.318 236.88 416.318 236.88H403.238Z" fill="white" stroke="black" stroke-width="1.2"/>
<path d="M401.438 241.92C402.638 236.28 403.838 232.08 409.958 227.88C416.198 232.08 417.278 236.28 418.598 241.92H401.438Z" fill="white" stroke="black" stroke-width="1.2"/>
<path d="M398.198 245.04V236.88C401.078 238.08 403.598 239.64 404.558 241.44C405.518 236.88 407.558 234.96 410.078 232.2C412.598 234.96 414.278 237 415.358 241.44C416.318 239.64 418.838 237.96 421.598 236.88V245.04H398.198Z" fill="white" stroke="black" stroke-width="1.2"/>
<path d="M172.839 311.16H467.199V326.16H172.839V311.16ZM165.039 326.16H474.999V341.16H165.039V326.16ZM188.319 288.6H451.599V298.32H188.319V288.6Z" fill="white" stroke="black" stroke-width="1.2"/>
<path d="M180.639 298.32H459.519V311.04H180.639V298.32ZM192.879 281.16H447.279V288.6H192.879V281.16Z" fill="white" stroke="black" stroke-width="1.2"/>
<path d="M220.479 281.16H239.679V341.16H220.479V281.16Z" fill="white" stroke="black" stroke-width="1.2"/>
<path d="M224.8 281.16H235.48V341.16H224.68L224.8 281.16ZM310 281.16H329.2V341.16H310V281.16Z" fill="white" stroke="black" stroke-width="1.2"/>
<path d="M314.439 281.16H325.239V341.16H314.439V281.16ZM400.239 281.16H419.439V341.16H400.239V281.16Z" fill="white" stroke="black" stroke-width="1.2"/>
<path d="M404.439 281.16H415.239V341.16H404.439V281.16Z" fill="white" stroke="black" stroke-width="1.2"/>
<path d="M204.398 275.04H435.998M224.558 333.6H235.598M224.558 326.04H235.598M224.558 318.6H235.598M224.558 311.04H235.598M224.558 303.6H235.598M224.558 296.04H235.598M224.558 288.6H235.598M314.558 333.6H324.878M314.558 326.04H324.878M314.558 318.6H324.878M314.558 311.04H324.878M314.558 303.6H324.878M314.558 296.04H324.878M314.558 288.6H324.878M404.318 333.6H415.358M404.318 326.04H415.358M404.318 318.6H415.358M404.318 311.04H415.358M404.318 303.6H415.358M404.318 296.04H415.358M404.318 288.6H415.358" stroke="black" stroke-width="1.2"/>
</g>
<defs>
<clipPath id="clip0_3921_5243">
<rect width="640" height="480" fill="white"/>
</clipPath>
</defs>
</svg>
