<svg width="640" height="480" viewBox="0 0 640 480" fill="none" xmlns="http://www.w3.org/2000/svg">
<g clip-path="url(#clip0_3921_5681)">
<path d="M0 0H640V480H0V0Z" fill="#FFB700"/>
<path d="M26.6992 240L114.699 26.7H202.699V453.3H114.699L26.6992 240Z" fill="#FF5B00"/>
<path d="M26.6992 26.7H114.699V453.3H26.6992V26.7Z" fill="#005641"/>
<path d="M229.301 26.7H616.001V453.3H229.301V26.7Z" fill="#8D2029"/>
<path d="M579.301 408.6C579.301 408.6 582.901 415.9 586.901 419C592.901 423.4 604.901 423 610.201 428.3C616.301 434.4 609.701 442.5 609.701 443.3L610.101 447.5C610.101 447.5 605.901 447.5 604.101 447.8C601.501 448.2 600.501 450.4 595.501 450.1C583.201 449.3 583.701 438.1 583.001 428.6C582.401 425 581.001 420.2 580.101 416.6C579.401 413.6 579.301 408.6 579.301 408.6Z" fill="#FFB700" stroke="black" stroke-width="1.1"/>
<path d="M266 408.6C266 408.6 262.4 415.9 258.4 419C252.4 423.4 240.4 423 235.1 428.3C229 434.4 235.6 442.5 235.6 443.3L235.2 447.5C235.2 447.5 239.4 447.5 241.2 447.8C243.8 448.2 244.8 450.4 249.8 450.1C262.1 449.3 261.6 438.1 262.3 428.6C262.9 425 264.3 420.2 265.2 416.6C265.9 413.6 266 408.6 266 408.6Z" fill="#FFB700" stroke="black" stroke-width="1.1"/>
<path d="M579.301 71.3999C579.301 71.3999 582.901 64.0999 586.901 60.9999C592.901 56.5999 604.901 56.9999 610.201 51.6999C616.301 45.5999 609.701 37.4999 609.701 36.6999L610.101 32.4999C610.101 32.4999 605.901 32.4999 604.101 32.1999C601.501 31.7999 600.501 29.5999 595.501 29.8999C583.201 30.6999 583.701 41.8999 583.001 51.3999C582.401 54.9999 581.001 59.7999 580.101 63.3999C579.401 66.3999 579.301 71.3999 579.301 71.3999Z" fill="#FFB700" stroke="black" stroke-width="1.1"/>
<path d="M266.1 71.3999C266.1 71.3999 262.5 64.0999 258.5 60.9999C252.5 56.5999 240.5 56.9999 235.2 51.6999C229.1 45.5999 235.7 37.4999 235.7 36.6999L235.3 32.4999C235.3 32.4999 239.5 32.4999 241.3 32.1999C243.9 31.7999 244.9 29.5999 249.9 29.8999C262.2 30.6999 261.7 41.8999 262.4 51.3999C263 54.9999 264.4 59.7999 265.3 63.3999C266 66.3999 266.1 71.3999 266.1 71.3999Z" fill="#FFB700" stroke="black" stroke-width="1.1"/>
<path d="M363.501 339.8L365.801 338.4L366.801 339.8C368.101 341.6 371.801 341.5 374.201 339.8L376.101 338.3L377.701 339.7C379.701 341.6 383.501 341.6 386.001 339.7C387.701 338.5 388.001 338.4 389.001 339.4C389.701 340 391.701 340.6 393.401 340.9C396.601 341.3 396.601 341.3 398.401 338.5C400.001 336.2 400.201 335.3 399.901 333L399.301 327.7C399.101 325.1 399.201 325.1 402.901 323.7L408.301 321.7C409.801 320.8 414.001 315.9 414.001 314.9C414.001 314.7 412.401 314.3 410.401 314.1C402.401 313.167 401.034 308.833 406.301 301.1C414.601 288.1 419.701 275.6 419.701 267.7C419.701 264.167 419.934 262.833 420.401 263.7C422.301 266.8 418.901 280.1 413.901 289.7L411.901 293.5L413.801 293.1C414.801 292.8 421.201 290.1 427.801 287.1C446.001 278.9 452.201 277.3 464.001 277.8C473.901 278.2 478.001 280.1 485.001 287.4C488.701 291.4 492.301 294.1 498.801 298.2C512.601 306.8 513.201 307.6 513.901 317.8C514.601 328 514.201 328.7 506.401 330.4C499.601 331.933 495.601 334.933 494.401 339.4C493.734 341.667 495.068 341.7 498.401 339.5L500.901 337.9L502.001 339.5C503.501 341.6 506.501 341.6 509.001 339.5L511.001 338L513.001 339.5C516.001 342 520.001 341.4 521.201 338.3C521.401 337.767 522.068 338 523.201 339C525.501 341 531.201 341.8 531.801 340.2C532.001 339.6 531.601 338.2 530.801 337C527.501 332 526.401 329.7 526.401 327C526.401 323.2 527.401 321.3 531.801 318.3C537.001 314.5 538.601 309.7 534.601 309.7C532.201 309.7 529.701 307.5 528.101 304C524.901 296.8 525.601 288.8 530.401 275.4C534.068 267.511 535.914 258.899 535.801 250.2C535.801 242.8 535.601 241.6 534.001 237.5C532.752 234.648 531.211 231.934 529.401 229.4L526.601 225.7L530.101 222.7C540.901 213.8 538.701 199.2 525.701 193.6C521.701 191.8 520.701 191.7 513.701 191.7C509.701 191.7 503.201 192.3 499.701 193C495.003 193.744 490.257 194.145 485.501 194.2C478.701 194.2 477.501 194 474.901 192.6C472.201 191.2 471.701 190.5 471.201 187.1C471.153 186.78 471.028 186.476 470.836 186.214C470.645 185.953 470.392 185.742 470.101 185.6C469.101 185.3 464.901 189 464.301 190.6C463.901 191.5 463.701 191.4 462.801 190.3C461.947 189.214 461.272 187.999 460.801 186.7C459.734 183.433 461.134 180.9 465.001 179.1L468.001 177.7L466.201 176.6C462.601 174.3 456.401 175.9 454.201 179.6C453.501 180.6 452.801 181.6 452.601 181.6C452.401 181.6 451.201 180.6 450.001 179.3C445.301 174.7 446.901 167.9 453.201 165.9C456.501 164.8 459.501 165.6 460.101 167.9C461.101 171.2 463.901 166.8 463.401 162.7C463.101 160 463.101 159.9 465.001 159.9C467.601 159.9 473.001 163.3 474.801 165.9C476.801 169 476.601 173.9 474.401 177.5L472.701 180.3L475.001 179.9C478.201 179.2 481.401 177.2 483.001 174.7C483.844 173.108 484.318 171.346 484.387 169.546C484.457 167.745 484.12 165.952 483.401 164.3C481.901 161.6 482.101 161.2 484.301 162.1C487.901 163.6 489.901 165.3 491.301 168.2C492.701 170.8 492.801 171.4 492.101 174.2C491.622 175.905 490.88 177.524 489.901 179C488.701 180.6 488.601 180.9 489.601 180.9C491.401 180.9 495.001 179.2 496.301 177.9C497.001 177.1 498.001 175.4 498.501 173.9L499.501 171.4L500.501 173.4C502.001 176.1 505.001 178.6 508.601 180.2C512.501 181.8 514.101 181.9 512.101 180.4C510.701 179.4 508.101 171.9 509.001 171.2C513.317 173.617 517.258 176.649 520.701 180.2C526.401 185.3 530.001 187 535.201 187C541.901 187 545.801 181.2 542.801 175.7C541.101 172.5 537.201 172 534.801 174.7C533.801 175.9 533.468 177.133 533.801 178.4C534.201 180 534.101 180.2 532.601 180.2C530.601 180.2 526.801 177.7 520.001 172C510.536 163.854 499.656 157.516 487.901 153.3C479.939 151.451 471.715 151.011 463.601 152C457.201 153.2 449.601 156.9 445.401 160.8C438.101 167.8 438.001 177.1 445.101 185.6L447.101 188L445.801 190.2C444.782 191.762 444.274 193.601 444.345 195.464C444.417 197.327 445.066 199.122 446.201 200.6C447.201 202 448.201 203.1 448.501 203.1C448.701 202.967 448.868 202.3 449.001 201.1C449.201 198.367 450.334 196.633 452.401 195.9C454.201 195.2 455.401 195.6 463.601 198.9C472.301 202.3 486.601 202.5 501.801 199.5C508.391 197.994 515.243 198.062 521.801 199.7C529.001 202.7 530.601 210.4 525.401 216.2C523.101 218.8 521.001 219.8 513.701 221.8C507.347 223.483 500.738 223.991 494.201 223.3C483.401 223.2 479.501 223.4 475.201 224.3C470.301 225.3 467.401 225.4 453.401 225.1L437.101 224.7L438.901 226.1L442.001 228.4C443.301 229.1 443.201 229.2 441.401 229.9C440.401 230.3 438.001 230.6 436.101 230.6H432.801L432.401 233.4C432.132 234.72 432.132 236.08 432.401 237.4C432.801 238.333 432.535 238.6 431.601 238.2C430.901 237.9 429.001 237.4 427.301 237.1C425.586 236.73 423.912 236.195 422.301 235.5C420.401 234.5 420.201 234.5 419.501 235.8C418.901 236.8 413.301 241 412.501 241C412.135 238.407 411.394 235.88 410.301 233.5C409.301 231.4 408.401 229 408.101 228.3C407.834 227.233 407.501 227.133 407.101 228C406.801 228.5 406.401 230 406.101 231.2C405.743 232.817 405.136 234.369 404.301 235.8L402.801 238L401.801 236.1C400.801 234.1 399.201 231.9 398.601 231.9C398.401 231.9 398.168 232.4 397.901 233.4C397.401 235 393.501 239.7 392.501 239.7C392.201 239.7 391.901 238.4 391.901 236.7C391.901 235.2 391.601 233.8 391.201 233.8C390.801 233.867 390.568 234.2 390.501 234.8C390.501 236 387.201 239.8 386.001 239.8C385.468 239.8 384.901 240.133 384.301 240.8C383.101 242.1 382.101 241.9 382.601 240.4C382.741 239.119 382.605 237.824 382.201 236.6L381.201 233.4C381.068 232.933 379.735 233.1 377.201 233.9C373.201 235.2 371.801 234.9 373.901 233.3C374.701 232.7 375.901 230.6 376.501 228.7C377.201 226.7 378.201 225 378.701 224.8C379.435 224.533 379.368 224.933 378.501 226C377.933 226.767 377.556 227.658 377.401 228.6C377.401 229.1 376.901 230.4 376.401 231.5C375.901 232.6 375.401 233.5 375.501 233.6C375.601 233.7 377.201 233.1 379.001 232.3L382.201 230.7V232.1C382.201 232.9 382.601 234.9 383.101 236.6L384.001 239.6L386.201 238.6C388.401 237.6 390.501 234 390.501 231.1C390.501 229.7 391.301 229.9 391.701 231.4C391.701 231.8 392.301 233.5 392.701 235.1L393.701 237.9L395.201 236.1C396.101 235.1 397.101 233.1 397.501 231.8C398.301 229.4 399.501 228.3 399.501 230.1C399.501 231.3 402.901 235.9 403.501 235.5C403.901 235.3 404.501 233.6 405.001 231.7C406.001 227.7 407.501 225.1 408.501 225.7C408.901 225.967 409.001 226.3 408.801 226.7C408.601 226.9 409.401 229.5 410.601 232.3L413.201 238.6C413.601 239.6 414.001 239.6 416.501 237.3C418.001 235.9 419.501 234.4 419.601 233.9C419.901 233.1 420.201 233.2 421.601 234.1C424.549 235.658 427.779 236.61 431.101 236.9C431.301 236.7 431.501 234.9 431.501 232.9L431.601 229.2L433.601 229.6C434.601 229.9 436.901 229.9 438.601 229.6L441.601 229.2L438.901 227.2C437.401 226.2 435.901 224.9 435.501 224.3C435.101 223.7 433.801 223.1 432.301 223C428.201 222.6 420.901 218.6 420.901 216.6C421.034 216.333 421.768 216.8 423.101 218C425.901 220.5 429.701 222 433.101 222H435.501L434.001 220C432.936 218.448 432.251 216.666 432.001 214.8C431.801 211.8 431.501 211.4 428.401 209.3C426.603 208.027 424.929 206.588 423.401 205L421.701 203.1L420.801 205.4C420.268 206.8 419.834 207.567 419.501 207.7C419.301 207.7 418.301 206.9 417.501 206C416.939 205.348 416.261 204.806 415.501 204.4C415.201 204.4 414.501 205.6 413.701 207.1L412.301 209.8L411.301 208.3C410.411 207.075 409.406 205.936 408.301 204.9C407.034 203.833 406.601 203.233 407.001 203.1C407.401 203.1 408.701 204.1 410.001 205.4L412.201 207.7L413.201 206C413.779 204.822 413.954 203.487 413.701 202.2C413.301 200.467 413.401 200.233 414.001 201.5C414.864 202.629 415.872 203.638 417.001 204.5L419.201 206.3L420.701 203.6C422.201 200.8 422.201 200.8 422.801 202.5C423.801 204.6 430.301 210 435.801 213.1C436.801 213.633 436.468 211.967 434.801 208.1C434.326 206.817 434.056 205.467 434.001 204.1C434.001 202.3 433.501 201.5 431.201 199.7C429.777 198.78 428.584 197.543 427.717 196.086C426.849 194.629 426.331 192.991 426.201 191.3C425.901 189.6 425.301 187.8 424.801 187.2C424.201 186.067 424.001 186.933 424.201 189.8C424.401 191.9 424.101 194.5 423.601 195.6L422.801 197.6L422.201 195.9C421.801 195 420.201 193.4 418.701 192.4C417.201 191.4 416.101 190.4 416.301 190.2C416.501 190 418.101 190.9 419.801 192.2C422.501 194.3 423.001 194.5 423.401 193.6C423.801 192.6 423.401 188 422.601 184.8C422.201 183.2 422.201 183.2 424.201 185.2C425.535 186.467 426.501 188.533 427.101 191.4C427.901 195.2 428.301 195.9 431.801 199C433.901 200.9 435.801 202.3 435.901 202.2C436.101 202 436.301 197.2 436.501 191.4C436.901 180.3 436.501 177.6 433.801 174.2L432.401 172.4L434.601 170.1C437.066 167.743 438.712 164.659 439.301 161.3L439.701 158.6L437.301 160.9C435.301 162.8 434.301 163.2 432.001 163.2C429.701 163.2 428.801 162.8 427.301 161.2C424.965 158.951 422.116 157.303 419.001 156.4C417.868 156 417.334 156.2 417.401 157C417.401 157.6 416.801 159.2 416.001 160.7L414.601 163.3L411.601 160.3C409.701 158.6 407.601 157.1 405.901 156.7C401.801 155.7 401.601 155.7 401.601 158.8C401.535 163.533 399.668 164.367 396.001 161.3C393.201 158.9 391.001 158.3 385.701 159L381.701 159.4L382.401 161.2C383.001 162.7 382.901 163.4 381.601 165.1C379.501 167.9 376.801 169.1 372.601 169.1C370.601 169.1 368.201 169.5 367.201 170C366.201 170.5 363.601 171 361.501 171.2C359.501 171.4 357.201 171.8 356.501 172C355.501 172.4 355.501 172 355.801 169.8C356.301 166.4 353.801 163.8 350.101 163.8C345.201 163.8 343.001 168.2 344.901 174L345.901 177.8C347.215 180.301 348.977 182.538 351.101 184.4C353.701 187 356.101 189.7 356.501 190.4C357.306 191.443 358.33 192.296 359.501 192.9L361.701 194.1L361.401 191.7C361.068 189.033 361.601 188.667 363.001 190.6C363.501 191.2 364.801 192.3 365.801 192.9C367.501 193.9 367.801 193.9 367.801 193.1C367.801 192.5 368.101 191.2 368.501 190.2L369.201 188.4L370.501 190.9C371.201 192.3 373.501 195.4 375.601 197.9C379.701 202.6 382.301 207.9 381.001 209.1C380.401 209.6 379.001 209.6 376.001 209C373.801 208.6 371.001 208.3 369.801 208.5C367.501 208.8 367.301 208.5 368.801 206.7C370.301 204.7 370.001 204.4 367.001 204.4C363.501 204.4 354.801 202.7 351.401 201.4C348.201 200.1 347.401 200.4 346.401 203.5L344.701 209.1L343.701 212.1L347.301 211.8C349.157 211.606 350.996 211.272 352.801 210.8C353.509 210.564 354.256 210.462 355.001 210.5C355.201 210.6 354.701 211.8 354.001 213.2L352.601 215.6L354.801 215.2C356.001 214.9 357.801 214.3 358.801 213.8C360.601 213 360.801 213 362.201 215.3C364.001 217.967 365.101 217.867 365.501 215C365.768 211.933 366.835 212.4 368.701 216.4C370.501 220.2 372.301 221.6 372.701 219.4C372.901 218.467 373.601 217.533 374.801 216.6C377.001 215.133 378.568 215.567 379.501 217.9C380.501 220.4 378.301 222.9 372.101 226.7C366.359 229.87 361.419 234.312 357.658 239.685C353.897 245.058 351.414 251.22 350.401 257.7C348.501 269.5 354.401 281.7 366.001 290.6C371.601 294.8 380.501 299.2 379.901 297.6C377.501 290.3 377.601 276.6 380.001 274.3C380.401 273.9 380.301 275.3 379.701 277.4C377.701 285.3 378.701 291.5 383.701 306.1C388.101 319.3 387.501 325 381.101 328.7C379.101 329.9 377.801 330.1 372.301 330C366.301 330 365.601 330 363.701 331.6C361.42 333.958 359.919 336.96 359.401 340.2C359.401 341.467 360.734 341.333 363.401 339.8H363.501Z" fill="#FFB700" stroke="black" stroke-width="5.6"/>
<path d="M460.5 339.5L463 337.9L464.7 339.5C466.9 341.6 469.6 341.5 471.7 339.4C472.767 338.333 473.4 337.833 473.6 337.9L474.5 339.5C474.967 340.367 476.167 340.867 478.1 341C480.4 341.1 481.1 341 482.1 339.6L483.1 337.9L485.6 339.5C492.4 343.9 496 339.3 492.9 330.2C491.4 325.6 492.3 323 497.2 317.2C499.3 314.7 501 312 501 311.2C501 310.1 500.6 309.9 497.8 310C495.2 310 494.4 309.7 493 308.2C490.734 305.667 490.867 302.8 493.4 299.6L495.4 297.1L491.8 294.7C488.927 292.576 486.25 290.2 483.8 287.6C479.371 282.423 473.087 279.191 466.3 278.6L461.6 278.1V281.7C461.6 286.2 463.8 290.6 469.6 298C476.2 306.4 476.6 307.7 476.9 318.7L477.2 328L475.2 329.8C473.5 331.4 472.8 331.7 467.2 332C461.9 332.3 460.7 332.6 459.2 334C457.466 335.3 456.258 337.182 455.8 339.3C455.5 340.8 455.6 341.1 456.7 341.1C457.4 341.1 459.1 340.4 460.5 339.5ZM318.3 315.5C318.896 314.607 319.241 313.572 319.3 312.5C319.3 311.5 319.9 311.1 322.5 310.7L325.6 310.3L323.6 308.6C321.1 306.6 320.8 305.1 323 305.1C325.2 305.1 328.8 302.9 329.4 301.2C329.6 300.267 329.467 299.5 329 298.9C327.8 297.5 325.5 297.7 325.1 299.3C324.6 300.9 323.9 300.9 322.1 299.3C319.6 296.8 319.5 291.7 322.1 288.7C323.2 287.3 323.2 287.3 321.7 285.8C320.1 284.2 318.9 281.2 319.7 280.4C319.9 280.2 321.2 280.4 322.5 280.9C324.5 281.5 325.2 281.5 326 280.9C328.3 279 325.8 276.6 322 277.2C320.534 277.467 319.734 277.2 319.6 276.4C319.4 275.8 318.1 275 316.6 274.6C313.9 273.9 313.9 273.9 313.9 275.8C313.9 277.8 312.767 278.167 310.5 276.9C308.7 275.9 307 276.7 307 278.6C307 280.4 308.667 281.2 312 281C314.4 280.9 314.5 282.7 312.2 285.3L310.5 287.3L311.8 289.2C313.8 292 313.6 296.7 311.5 299.1L309.8 300.9L308.7 299.4C307.1 297.4 305 297.5 304.4 299.7C304.1 301.1 304.4 301.7 306.2 303.3C307.4 304.3 309.2 305.1 310.1 305.1C312.4 305.1 312.3 307 309.9 308.8L307.9 310.3L310.9 310.7C312.5 311 313.9 311.4 313.9 311.7C313.9 313 315.9 316.9 316.5 316.9C317.034 316.767 317.634 316.267 318.3 315.4V315.5Z" fill="#FFB700" stroke="black" stroke-width="5.6"/>
<path d="M356.501 298.9C359.201 297.9 365.001 292.9 365.001 291.8C365.001 291.4 363.401 289.6 361.401 287.8C357.401 284.2 352.901 277.9 351.701 274.3C351.101 272.3 348.201 269.1 340.001 261.1L329.101 250.6L326.001 251.4C324.201 251.8 322.101 252.2 321.301 252.2C319.801 252.2 319.801 252.2 321.801 253.8L323.801 255.4L326.801 253.8C329.501 252.2 329.601 252.2 329.901 253.5C330.101 254.2 329.701 255.5 328.901 256.4C328.201 257.3 327.801 258.4 327.901 258.7C328.101 259.1 327.601 259.633 326.401 260.3C324.401 261.3 322.901 264.6 324.501 264.6C326.001 264.6 329.201 260.6 328.801 259.3C328.667 258.5 328.734 257.967 329.001 257.7C330.301 257 330.201 260.1 329.001 261.7C328.201 262.5 327.801 263.5 328.001 263.9C328.134 264.3 327.601 264.833 326.401 265.5C324.401 266.5 322.901 269.8 324.501 269.8C326.101 269.8 329.201 266 328.901 264.6C328.701 263.8 328.734 263.233 329.001 262.9C329.901 262.5 330.301 264.9 329.601 266.1C329.386 266.427 329.271 266.809 329.271 267.2C329.271 267.591 329.386 267.974 329.601 268.3C330.301 269.6 329.601 272 328.301 272.8C327.767 273.133 328.167 273.8 329.501 274.8C331.501 276.2 331.501 276.4 331.501 282.8C331.501 288.2 331.701 289.6 332.701 290.5C333.567 291.5 333.967 291.5 333.901 290.5C333.801 289 335.901 288.1 337.401 288.1C337.901 288.1 340.801 290.6 343.901 293.6C347.001 296.6 350.301 299.3 351.201 299.4L353.401 299.8C353.701 299.8 355.101 299.5 356.501 298.8V298.9ZM323.201 272.8C323.201 271.1 319.601 269.2 315.301 268.8C311.801 268.3 311.801 268.4 311.801 270.1C311.801 271.5 312.301 272.1 314.801 273.1C318.601 274.8 323.201 274.6 323.201 272.8Z" fill="#FFB700" stroke="black" stroke-width="5.6"/>
<path d="M327.101 272.6C328.901 271 329.701 269.2 328.601 269.2C327.501 269.2 324.201 272 324.201 273.2C324.201 274.8 324.801 274.7 327.201 272.6H327.101ZM323.401 267.5C323.601 266.633 322.834 265.8 321.101 265C317.101 263.3 312.501 262.4 311.401 263.3C309.301 265 310.701 267.2 314.001 267.6C315.401 267.7 317.201 268.1 318.101 268.5C320.701 269.5 323.101 269 323.401 267.5ZM323.401 262.2C323.601 260.9 322.701 260.4 315.401 257.8C309.901 255.8 307.501 256.8 309.301 260.1C309.901 261.2 310.901 261.7 313.201 262.1C314.901 262.3 317.201 262.8 318.301 263.2C321.367 264.2 323.034 263.867 323.301 262.2H323.401ZM327.001 257.3C328.101 256.2 329.001 254.9 329.001 254.3C329.001 252.8 324.701 255.6 324.101 257.6C323.567 259.933 324.567 259.833 327.101 257.3H327.001ZM323.401 257C323.601 255.4 321.067 254.033 315.801 252.9C311.934 252.033 310.167 252.5 310.501 254.3C310.701 255.3 312.001 256 315.501 257.1C321.401 258.9 323.101 258.9 323.401 257ZM328.401 249.6C335.201 246.6 335.701 239.1 329.401 237.1C326.867 236.3 325.134 236.767 324.201 238.5C323.401 239.9 323.901 242.3 324.901 242.3C325.301 242.367 325.534 242.7 325.601 243.3C325.601 246 315.401 247.1 311.201 245C309.701 244.3 309.201 242.3 310.301 242.3C311.301 242.3 311.901 240.3 311.401 239C310.734 237 308.967 236.4 306.101 237.2C299.801 238.8 300.001 246.2 306.401 249.2C313.487 251.768 321.226 251.909 328.401 249.6Z" fill="#FFB700" stroke="black" stroke-width="5.6"/>
<path d="M324.3 243.8C324.634 243.333 324.5 242.867 323.9 242.4C322.567 241.2 322.634 239.633 324.1 237.7C325.3 236.3 325.4 234.1 325.8 212.6C326.5 175.5 329.3 147.6 332.9 140.8C334.4 138.2 334.2 138.2 330.4 140.8C325.415 144.273 321.39 148.952 318.7 154.4C312.5 165.9 310.4 181.4 310.4 214.6C310.4 233.4 310.5 235.9 311.6 237.6C312.6 239.4 312.6 240 312 241.8C311.5 242.9 311.3 244.1 311.5 244.3C312.9 245.6 322.9 245.3 324.3 243.8ZM380.4 208.4C380.7 208.1 380.2 206.4 379.4 204.8C378.2 202.2 377.7 201.8 376 201.8C368.004 201.105 360.206 198.935 353 195.4C347.9 193.1 346 192.6 345.5 193.2C343.9 194.7 346.5 198.2 350.5 200.1C356.387 202.221 362.552 203.468 368.8 203.8C371.5 203.8 371.6 203.8 370 206.1L369 207.7H372L377 208.3C380 209 380 209 380.4 208.4Z" fill="#FFB700" stroke="black" stroke-width="5.6"/>
<path d="M412.002 225.1C412.002 224.1 409.102 221.6 406.302 219.9C404.002 218.6 403.602 218.5 403.602 219.6C403.602 221.2 402.202 225.3 401.602 225.3C401.202 225.167 400.868 224.6 400.602 223.6C400.302 222.6 399.202 220.6 398.102 219.3L396.102 216.8L394.702 219.1C393.302 221.3 390.802 223.4 389.702 223.4C389.502 223.4 389.402 222.2 389.702 220.9C389.835 219.167 389.668 218.167 389.202 217.9C388.735 217.634 388.468 217.7 388.402 218.1C388.402 218.9 385.002 222.7 384.402 222.7C384.002 222.634 383.668 221.833 383.402 220.3L382.602 215.5C382.468 214.367 382.802 215.034 383.602 217.5L385.202 221.6L386.802 219.1C387.526 218.067 388.067 216.917 388.402 215.7C388.402 215.167 388.635 215 389.102 215.2C389.502 215.4 390.002 217.1 390.202 218.9L390.702 222.3L392.502 220.3L395.102 217.1C395.802 215.9 395.902 215.9 397.402 217.1C398.202 217.9 399.502 219.6 400.302 221C401.102 222.4 401.802 223.4 401.902 223.3L402.502 220.1L402.902 217.1C403.002 216.6 408.302 220.1 410.302 221.8C411.502 222.9 412.702 223.7 412.902 223.5C413.102 223.3 413.302 221.7 413.302 219.8C413.302 217 413.002 216.2 411.302 214.7C409.302 212.9 409.302 212.9 408.502 214.2C407.502 215.9 406.402 215.9 406.402 214.2C406.402 213 402.602 208.3 401.702 208.3C401.302 208.434 400.702 209.2 399.902 210.6C398.702 212.7 398.402 212.9 398.202 212.9C397.202 212.9 391.902 206.9 391.902 205.9C391.902 205.034 392.335 205.3 393.202 206.7C394.095 208.014 395.135 209.221 396.302 210.3C398.302 212.1 399.102 211.7 399.902 208.2C400.235 207.134 400.568 206.534 400.902 206.4C401.702 206.4 406.302 211.3 406.902 212.9L407.602 214.5L408.102 212.7C408.702 210.567 409.468 210.5 410.402 212.5C410.802 213.3 412.802 215.1 414.802 216.3L418.502 218.7L419.202 216.3C419.735 214.967 420.135 214.434 420.402 214.7C420.802 215.2 419.802 219.2 419.102 220C419.102 220.1 417.802 219.4 416.502 218.5L414.002 216.7V219.9C414.002 221.6 413.802 223.7 413.602 224.5C413.102 226.1 411.902 226.5 411.902 225.1H412.002ZM393.502 199.7C389.102 196.1 388.502 195.3 388.502 193.5L388.602 191.7L388.902 193.4C389.102 194.4 390.302 196 391.702 197.2L394.302 199.2L395.802 197.4C396.702 196.4 397.402 195.2 397.402 194.8C397.402 193.6 397.602 193.7 400.602 196.3C403.202 198.6 403.302 198.6 403.602 197.1C403.902 196.3 403.802 194.7 403.602 193.6C402.602 190.667 402.768 190.134 404.102 192L406.502 194.8C407.502 195.9 407.602 195.9 408.002 194.5C408.302 193.6 408.502 192.1 408.502 191.1V189.2L410.802 191.9C413.102 194.5 413.302 194.6 413.902 193.3C414.402 192.6 414.702 190.9 414.702 189.6C414.702 187.867 414.902 187.334 415.302 188C416.102 189.2 415.602 192.2 414.202 194.8L413.202 196.8L411.902 194.7C410.202 192.1 409.602 192.1 408.602 194.9C407.668 197.567 406.768 197.834 405.902 195.7C405.302 194.4 405.102 194.6 404.702 197.4L404.202 200.4L401.202 198.1L398.202 195.8L396.702 197.3C396.002 198.2 395.402 199.3 395.402 199.7C395.335 200.7 394.702 200.7 393.502 199.7ZM432.502 186.1C431.002 184.7 429.902 183.3 430.102 183.1C430.435 182.767 430.635 182.7 430.702 182.9L433.702 185.9C437.102 189.5 436.402 189.6 432.602 186.1H432.502ZM380.502 180.7C379.102 178.7 379.202 177.5 381.002 175.3C382.202 173.8 382.802 173.6 385.002 173.9C386.502 174 389.602 175.3 391.902 176.7C395.221 178.695 399.028 179.734 402.902 179.7L401.202 176.9C398.935 173.7 399.068 173.134 401.602 175.2C404.202 177.3 407.302 177.9 414.302 177.7L417.702 177.6L415.702 175.6C413.002 172.9 413.802 172.6 416.902 175.3C419.702 177.8 419.602 178 413.502 178.6C410.958 178.857 408.39 178.688 405.902 178.1C402.502 177.1 402.302 177.2 403.002 178.3C403.468 179.034 403.902 179.434 404.302 179.5C404.702 179.567 404.935 179.833 405.002 180.3C405.002 181.6 397.602 180.4 394.002 178.7C386.002 174.6 385.002 174.2 383.002 174.8C382.46 174.989 381.965 175.292 381.551 175.689C381.137 176.086 380.813 176.567 380.602 177.1C379.302 180.4 384.002 183 385.902 180.1C386.502 179.2 386.402 178.7 385.402 177.6C384.002 176.267 384.202 175.934 386.002 176.6C387.302 177.1 387.402 180.2 386.202 181.4C384.902 182.7 381.702 182.4 380.502 180.7Z" fill="#000001" stroke="black" stroke-width="5.6"/>
<path d="M412.401 172.6C411.401 171.6 412.201 171.4 416.701 171.3C422.301 171.2 425.701 170.3 429.701 167.7C432.901 165.7 433.801 166.1 430.701 168.2C428.001 170.2 423.701 171.6 419.401 172L414.3 172.7C413.367 172.9 412.7 172.867 412.3 172.6H412.401Z" fill="#000001" stroke="black" stroke-width="5.6"/>
<path d="M363.501 339.8L365.801 338.4L366.801 339.8C368.101 341.6 371.801 341.5 374.201 339.8L376.101 338.3L377.701 339.7C379.701 341.6 383.501 341.6 386.001 339.7C387.701 338.5 388.001 338.4 389.001 339.4C389.701 340 391.701 340.6 393.401 340.9C396.601 341.3 396.601 341.3 398.401 338.5C400.001 336.2 400.201 335.3 399.901 333L399.301 327.7C399.101 325.1 399.201 325.1 402.901 323.7L408.301 321.7C409.801 320.8 414.001 315.9 414.001 314.9C414.001 314.7 412.401 314.3 410.401 314.1C402.401 313.167 401.034 308.833 406.301 301.1C414.601 288.1 419.701 275.6 419.701 267.7C419.701 264.167 419.934 262.833 420.401 263.7C422.301 266.8 418.901 280.1 413.901 289.7L411.901 293.5L413.801 293.1C414.801 292.8 421.201 290.1 427.801 287.1C446.001 278.9 452.201 277.3 464.001 277.8C473.901 278.2 478.001 280.1 485.001 287.4C488.701 291.4 492.301 294.1 498.801 298.2C512.601 306.8 513.201 307.6 513.901 317.8C514.601 328 514.201 328.7 506.401 330.4C499.601 331.933 495.601 334.933 494.401 339.4C493.734 341.667 495.068 341.7 498.401 339.5L500.901 337.9L502.001 339.5C503.501 341.6 506.501 341.6 509.001 339.5L511.001 338L513.001 339.5C516.001 342 520.001 341.4 521.201 338.3C521.401 337.767 522.068 338 523.201 339C525.501 341 531.201 341.8 531.801 340.2C532.001 339.6 531.601 338.2 530.801 337C527.501 332 526.401 329.7 526.401 327C526.401 323.2 527.401 321.3 531.801 318.3C537.001 314.5 538.601 309.7 534.601 309.7C532.201 309.7 529.701 307.5 528.101 304C524.901 296.8 525.601 288.8 530.401 275.4C534.068 267.511 535.914 258.899 535.801 250.2C535.801 242.8 535.601 241.6 534.001 237.5C532.752 234.648 531.211 231.934 529.401 229.4L526.601 225.7L530.101 222.7C540.901 213.8 538.701 199.2 525.701 193.6C521.701 191.8 520.701 191.7 513.701 191.7C509.701 191.7 503.201 192.3 499.701 193C495.003 193.744 490.257 194.145 485.501 194.2C478.701 194.2 477.501 194 474.901 192.6C472.201 191.2 471.701 190.5 471.201 187.1C471.153 186.78 471.028 186.476 470.836 186.214C470.645 185.953 470.392 185.742 470.101 185.6C469.101 185.3 464.901 189 464.301 190.6C463.901 191.5 463.701 191.4 462.801 190.3C461.947 189.214 461.272 187.999 460.801 186.7C459.734 183.433 461.134 180.9 465.001 179.1L468.001 177.7L466.201 176.6C462.601 174.3 456.401 175.9 454.201 179.6C453.501 180.6 452.801 181.6 452.601 181.6C452.401 181.6 451.201 180.6 450.001 179.3C445.301 174.7 446.901 167.9 453.201 165.9C456.501 164.8 459.501 165.6 460.101 167.9C461.101 171.2 463.901 166.8 463.401 162.7C463.101 160 463.101 159.9 465.001 159.9C467.601 159.9 473.001 163.3 474.801 165.9C476.801 169 476.601 173.9 474.401 177.5L472.701 180.3L475.001 179.9C478.201 179.2 481.401 177.2 483.001 174.7C483.844 173.108 484.318 171.346 484.387 169.546C484.457 167.745 484.12 165.952 483.401 164.3C481.901 161.6 482.101 161.2 484.301 162.1C487.901 163.6 489.901 165.3 491.301 168.2C492.701 170.8 492.801 171.4 492.101 174.2C491.622 175.905 490.88 177.524 489.901 179C488.701 180.6 488.601 180.9 489.601 180.9C491.401 180.9 495.001 179.2 496.301 177.9C497.001 177.1 498.001 175.4 498.501 173.9L499.501 171.4L500.501 173.4C502.001 176.1 505.001 178.6 508.601 180.2C512.501 181.8 514.101 181.9 512.101 180.4C510.701 179.4 508.101 171.9 509.001 171.2C513.317 173.617 517.258 176.649 520.701 180.2C526.401 185.3 530.001 187 535.201 187C541.901 187 545.801 181.2 542.801 175.7C541.101 172.5 537.201 172 534.801 174.7C533.801 175.9 533.468 177.133 533.801 178.4C534.201 180 534.101 180.2 532.601 180.2C530.601 180.2 526.801 177.7 520.001 172C510.536 163.854 499.656 157.516 487.901 153.3C479.939 151.451 471.715 151.011 463.601 152C457.201 153.2 449.601 156.9 445.401 160.8C438.101 167.8 438.001 177.1 445.101 185.6L447.101 188L445.801 190.2C444.782 191.762 444.274 193.601 444.345 195.464C444.417 197.327 445.066 199.122 446.201 200.6C447.201 202 448.201 203.1 448.501 203.1C448.701 202.967 448.868 202.3 449.001 201.1C449.201 198.367 450.334 196.633 452.401 195.9C454.201 195.2 455.401 195.6 463.601 198.9C472.301 202.3 486.601 202.5 501.801 199.5C508.391 197.994 515.243 198.062 521.801 199.7C529.001 202.7 530.601 210.4 525.401 216.2C523.101 218.8 521.001 219.8 513.701 221.8C507.347 223.483 500.738 223.991 494.201 223.3C483.401 223.2 479.501 223.4 475.201 224.3C470.301 225.3 467.401 225.4 453.401 225.1L437.101 224.7L438.901 226.1L442.001 228.4C443.301 229.1 443.201 229.2 441.401 229.9C440.401 230.3 438.001 230.6 436.101 230.6H432.801L432.401 233.4C432.132 234.72 432.132 236.08 432.401 237.4C432.801 238.333 432.535 238.6 431.601 238.2C430.901 237.9 429.001 237.4 427.301 237.1C425.586 236.73 423.912 236.195 422.301 235.5C420.401 234.5 420.201 234.5 419.501 235.8C418.901 236.8 413.301 241 412.501 241C412.135 238.407 411.394 235.88 410.301 233.5C409.301 231.4 408.401 229 408.101 228.3C407.834 227.233 407.501 227.133 407.101 228C406.801 228.5 406.401 230 406.101 231.2C405.743 232.817 405.136 234.369 404.301 235.8L402.801 238L401.801 236.1C400.801 234.1 399.201 231.9 398.601 231.9C398.401 231.9 398.168 232.4 397.901 233.4C397.401 235 393.501 239.7 392.501 239.7C392.201 239.7 391.901 238.4 391.901 236.7C391.901 235.2 391.601 233.8 391.201 233.8C390.801 233.867 390.568 234.2 390.501 234.8C390.501 236 387.201 239.8 386.001 239.8C385.468 239.8 384.901 240.133 384.301 240.8C383.101 242.1 382.101 241.9 382.601 240.4C382.741 239.119 382.605 237.824 382.201 236.6L381.201 233.4C381.068 232.933 379.735 233.1 377.201 233.9C373.201 235.2 371.801 234.9 373.901 233.3C374.701 232.7 375.901 230.6 376.501 228.7C377.201 226.7 378.201 225 378.701 224.8C379.435 224.533 379.368 224.933 378.501 226C377.933 226.767 377.556 227.658 377.401 228.6C377.401 229.1 376.901 230.4 376.401 231.5C375.901 232.6 375.401 233.5 375.501 233.6C375.601 233.7 377.201 233.1 379.001 232.3L382.201 230.7V232.1C382.201 232.9 382.601 234.9 383.101 236.6L384.001 239.6L386.201 238.6C388.401 237.6 390.501 234 390.501 231.1C390.501 229.7 391.301 229.9 391.701 231.4C391.701 231.8 392.301 233.5 392.701 235.1L393.701 237.9L395.201 236.1C396.101 235.1 397.101 233.1 397.501 231.8C398.301 229.4 399.501 228.3 399.501 230.1C399.501 231.3 402.901 235.9 403.501 235.5C403.901 235.3 404.501 233.6 405.001 231.7C406.001 227.7 407.501 225.1 408.501 225.7C408.901 225.967 409.001 226.3 408.801 226.7C408.601 226.9 409.401 229.5 410.601 232.3L413.201 238.6C413.601 239.6 414.001 239.6 416.501 237.3C418.001 235.9 419.501 234.4 419.601 233.9C419.901 233.1 420.201 233.2 421.601 234.1C424.549 235.658 427.779 236.61 431.101 236.9C431.301 236.7 431.501 234.9 431.501 232.9L431.601 229.2L433.601 229.6C434.601 229.9 436.901 229.9 438.601 229.6L441.601 229.2L438.901 227.2C437.401 226.2 435.901 224.9 435.501 224.3C435.101 223.7 433.801 223.1 432.301 223C428.201 222.6 420.901 218.6 420.901 216.6C421.034 216.333 421.768 216.8 423.101 218C425.901 220.5 429.701 222 433.101 222H435.501L434.001 220C432.936 218.448 432.251 216.666 432.001 214.8C431.801 211.8 431.501 211.4 428.401 209.3C426.603 208.027 424.929 206.588 423.401 205L421.701 203.1L420.801 205.4C420.268 206.8 419.834 207.567 419.501 207.7C419.301 207.7 418.301 206.9 417.501 206C416.939 205.348 416.261 204.806 415.501 204.4C415.201 204.4 414.501 205.6 413.701 207.1L412.301 209.8L411.301 208.3C410.411 207.075 409.406 205.936 408.301 204.9C407.034 203.833 406.601 203.233 407.001 203.1C407.401 203.1 408.701 204.1 410.001 205.4L412.201 207.7L413.201 206C413.779 204.822 413.954 203.487 413.701 202.2C413.301 200.467 413.401 200.233 414.001 201.5C414.864 202.629 415.872 203.638 417.001 204.5L419.201 206.3L420.701 203.6C422.201 200.8 422.201 200.8 422.801 202.5C423.801 204.6 430.301 210 435.801 213.1C436.801 213.633 436.468 211.967 434.801 208.1C434.326 206.817 434.056 205.467 434.001 204.1C434.001 202.3 433.501 201.5 431.201 199.7C429.777 198.78 428.584 197.543 427.717 196.086C426.849 194.629 426.331 192.991 426.201 191.3C425.901 189.6 425.301 187.8 424.801 187.2C424.201 186.067 424.001 186.933 424.201 189.8C424.401 191.9 424.101 194.5 423.601 195.6L422.801 197.6L422.201 195.9C421.801 195 420.201 193.4 418.701 192.4C417.201 191.4 416.101 190.4 416.301 190.2C416.501 190 418.101 190.9 419.801 192.2C422.501 194.3 423.001 194.5 423.401 193.6C423.801 192.6 423.401 188 422.601 184.8C422.201 183.2 422.201 183.2 424.201 185.2C425.535 186.467 426.501 188.533 427.101 191.4C427.901 195.2 428.301 195.9 431.801 199C433.901 200.9 435.801 202.3 435.901 202.2C436.101 202 436.301 197.2 436.501 191.4C436.901 180.3 436.501 177.6 433.801 174.2L432.401 172.4L434.601 170.1C437.066 167.743 438.712 164.659 439.301 161.3L439.701 158.6L437.301 160.9C435.301 162.8 434.301 163.2 432.001 163.2C429.701 163.2 428.801 162.8 427.301 161.2C424.965 158.951 422.116 157.303 419.001 156.4C417.868 156 417.334 156.2 417.401 157C417.401 157.6 416.801 159.2 416.001 160.7L414.601 163.3L411.601 160.3C409.701 158.6 407.601 157.1 405.901 156.7C401.801 155.7 401.601 155.7 401.601 158.8C401.535 163.533 399.668 164.367 396.001 161.3C393.201 158.9 391.001 158.3 385.701 159L381.701 159.4L382.401 161.2C383.001 162.7 382.901 163.4 381.601 165.1C379.501 167.9 376.801 169.1 372.601 169.1C370.601 169.1 368.201 169.5 367.201 170C366.201 170.5 363.601 171 361.501 171.2C359.501 171.4 357.201 171.8 356.501 172C355.501 172.4 355.501 172 355.801 169.8C356.301 166.4 353.801 163.8 350.101 163.8C345.201 163.8 343.001 168.2 344.901 174L345.901 177.8C347.215 180.301 348.977 182.538 351.101 184.4C353.701 187 356.101 189.7 356.501 190.4C357.306 191.443 358.33 192.296 359.501 192.9L361.701 194.1L361.401 191.7C361.068 189.033 361.601 188.667 363.001 190.6C363.501 191.2 364.801 192.3 365.801 192.9C367.501 193.9 367.801 193.9 367.801 193.1C367.801 192.5 368.101 191.2 368.501 190.2L369.201 188.4L370.501 190.9C371.201 192.3 373.501 195.4 375.601 197.9C379.701 202.6 382.301 207.9 381.001 209.1C380.401 209.6 379.001 209.6 376.001 209C373.801 208.6 371.001 208.3 369.801 208.5C367.501 208.8 367.301 208.5 368.801 206.7C370.301 204.7 370.001 204.4 367.001 204.4C363.501 204.4 354.801 202.7 351.401 201.4C348.201 200.1 347.401 200.4 346.401 203.5L344.701 209.1L343.701 212.1L347.301 211.8C349.157 211.606 350.996 211.272 352.801 210.8C353.509 210.564 354.256 210.462 355.001 210.5C355.201 210.6 354.701 211.8 354.001 213.2L352.601 215.6L354.801 215.2C356.001 214.9 357.801 214.3 358.801 213.8C360.601 213 360.801 213 362.201 215.3C364.001 217.967 365.101 217.867 365.501 215C365.768 211.933 366.835 212.4 368.701 216.4C370.501 220.2 372.301 221.6 372.701 219.4C372.901 218.467 373.601 217.533 374.801 216.6C377.001 215.133 378.568 215.567 379.501 217.9C380.501 220.4 378.301 222.9 372.101 226.7C366.359 229.87 361.419 234.312 357.658 239.685C353.897 245.058 351.414 251.22 350.401 257.7C348.501 269.5 354.401 281.7 366.001 290.6C371.601 294.8 380.501 299.2 379.901 297.6C377.501 290.3 377.601 276.6 380.001 274.3C380.401 273.9 380.301 275.3 379.701 277.4C377.701 285.3 378.701 291.5 383.701 306.1C388.101 319.3 387.501 325 381.101 328.7C379.101 329.9 377.801 330.1 372.301 330C366.301 330 365.601 330 363.701 331.6C361.42 333.958 359.919 336.96 359.401 340.2C359.401 341.467 360.734 341.333 363.401 339.8H363.501Z" fill="#FFB700"/>
<path d="M460.5 339.5L463 337.9L464.7 339.5C466.9 341.6 469.6 341.5 471.7 339.4C472.767 338.333 473.4 337.833 473.6 337.9L474.5 339.5C474.967 340.367 476.167 340.867 478.1 341C480.4 341.1 481.1 341 482.1 339.6L483.1 337.9L485.6 339.5C492.4 343.9 496 339.3 492.9 330.2C491.4 325.6 492.3 323 497.2 317.2C499.3 314.7 501 312 501 311.2C501 310.1 500.6 309.9 497.8 310C495.2 310 494.4 309.7 493 308.2C490.734 305.667 490.867 302.8 493.4 299.6L495.4 297.1L491.8 294.7C488.927 292.576 486.25 290.2 483.8 287.6C479.371 282.423 473.087 279.191 466.3 278.6L461.6 278.1V281.7C461.6 286.2 463.8 290.6 469.6 298C476.2 306.4 476.6 307.7 476.9 318.7L477.2 328L475.2 329.8C473.5 331.4 472.8 331.7 467.2 332C461.9 332.3 460.7 332.6 459.2 334C457.466 335.3 456.258 337.182 455.8 339.3C455.5 340.8 455.6 341.1 456.7 341.1C457.4 341.1 459.1 340.4 460.5 339.5ZM318.3 315.5C318.896 314.607 319.241 313.572 319.3 312.5C319.3 311.5 319.9 311.1 322.5 310.7L325.6 310.3L323.6 308.6C321.1 306.6 320.8 305.1 323 305.1C325.2 305.1 328.8 302.9 329.4 301.2C329.6 300.267 329.467 299.5 329 298.9C327.8 297.5 325.5 297.7 325.1 299.3C324.6 300.9 323.9 300.9 322.1 299.3C319.6 296.8 319.5 291.7 322.1 288.7C323.2 287.3 323.2 287.3 321.7 285.8C320.1 284.2 318.9 281.2 319.7 280.4C319.9 280.2 321.2 280.4 322.5 280.9C324.5 281.5 325.2 281.5 326 280.9C328.3 279 325.8 276.6 322 277.2C320.534 277.467 319.734 277.2 319.6 276.4C319.4 275.8 318.1 275 316.6 274.6C313.9 273.9 313.9 273.9 313.9 275.8C313.9 277.8 312.767 278.167 310.5 276.9C308.7 275.9 307 276.7 307 278.6C307 280.4 308.667 281.2 312 281C314.4 280.9 314.5 282.7 312.2 285.3L310.5 287.3L311.8 289.2C313.8 292 313.6 296.7 311.5 299.1L309.8 300.9L308.7 299.4C307.1 297.4 305 297.5 304.4 299.7C304.1 301.1 304.4 301.7 306.2 303.3C307.4 304.3 309.2 305.1 310.1 305.1C312.4 305.1 312.3 307 309.9 308.8L307.9 310.3L310.9 310.7C312.5 311 313.9 311.4 313.9 311.7C313.9 313 315.9 316.9 316.5 316.9C317.034 316.767 317.634 316.267 318.3 315.4V315.5Z" fill="#FFB700"/>
<path d="M356.501 298.9C359.201 297.9 365.001 292.9 365.001 291.8C365.001 291.4 363.401 289.6 361.401 287.8C357.401 284.2 352.901 277.9 351.701 274.3C351.101 272.3 348.201 269.1 340.001 261.1L329.101 250.6L326.001 251.4C324.201 251.8 322.101 252.2 321.301 252.2C319.801 252.2 319.801 252.2 321.801 253.8L323.801 255.4L326.801 253.8C329.501 252.2 329.601 252.2 329.901 253.5C330.101 254.2 329.701 255.5 328.901 256.4C328.201 257.3 327.801 258.4 327.901 258.7C328.101 259.1 327.601 259.633 326.401 260.3C324.401 261.3 322.901 264.6 324.501 264.6C326.001 264.6 329.201 260.6 328.801 259.3C328.667 258.5 328.734 257.967 329.001 257.7C330.301 257 330.201 260.1 329.001 261.7C328.201 262.5 327.801 263.5 328.001 263.9C328.134 264.3 327.601 264.833 326.401 265.5C324.401 266.5 322.901 269.8 324.501 269.8C326.101 269.8 329.201 266 328.901 264.6C328.701 263.8 328.734 263.233 329.001 262.9C329.901 262.5 330.301 264.9 329.601 266.1C329.386 266.427 329.271 266.809 329.271 267.2C329.271 267.591 329.386 267.974 329.601 268.3C330.301 269.6 329.601 272 328.301 272.8C327.767 273.133 328.167 273.8 329.501 274.8C331.501 276.2 331.501 276.4 331.501 282.8C331.501 288.2 331.701 289.6 332.701 290.5C333.567 291.5 333.967 291.5 333.901 290.5C333.801 289 335.901 288.1 337.401 288.1C337.901 288.1 340.801 290.6 343.901 293.6C347.001 296.6 350.301 299.3 351.201 299.4L353.401 299.8C353.701 299.8 355.101 299.5 356.501 298.8V298.9ZM323.201 272.8C323.201 271.1 319.601 269.2 315.301 268.8C311.801 268.3 311.801 268.4 311.801 270.1C311.801 271.5 312.301 272.1 314.801 273.1C318.601 274.8 323.201 274.6 323.201 272.8Z" fill="#FFB700"/>
<path d="M327.101 272.6C328.901 271 329.701 269.2 328.601 269.2C327.501 269.2 324.201 272 324.201 273.2C324.201 274.8 324.801 274.7 327.201 272.6H327.101ZM323.401 267.5C323.601 266.633 322.834 265.8 321.101 265C317.101 263.3 312.501 262.4 311.401 263.3C309.301 265 310.701 267.2 314.001 267.6C315.401 267.7 317.201 268.1 318.101 268.5C320.701 269.5 323.101 269 323.401 267.5ZM323.401 262.2C323.601 260.9 322.701 260.4 315.401 257.8C309.901 255.8 307.501 256.8 309.301 260.1C309.901 261.2 310.901 261.7 313.201 262.1C314.901 262.3 317.201 262.8 318.301 263.2C321.367 264.2 323.034 263.867 323.301 262.2H323.401ZM327.001 257.3C328.101 256.2 329.001 254.9 329.001 254.3C329.001 252.8 324.701 255.6 324.101 257.6C323.567 259.933 324.567 259.833 327.101 257.3H327.001ZM323.401 257C323.601 255.4 321.067 254.033 315.801 252.9C311.934 252.033 310.167 252.5 310.501 254.3C310.701 255.3 312.001 256 315.501 257.1C321.401 258.9 323.101 258.9 323.401 257ZM328.401 249.6C335.201 246.6 335.701 239.1 329.401 237.1C326.867 236.3 325.134 236.767 324.201 238.5C323.401 239.9 323.901 242.3 324.901 242.3C325.301 242.367 325.534 242.7 325.601 243.3C325.601 246 315.401 247.1 311.201 245C309.701 244.3 309.201 242.3 310.301 242.3C311.301 242.3 311.901 240.3 311.401 239C310.734 237 308.967 236.4 306.101 237.2C299.801 238.8 300.001 246.2 306.401 249.2C313.487 251.768 321.226 251.909 328.401 249.6Z" fill="#FFB700"/>
<path d="M324.3 243.8C324.634 243.333 324.5 242.867 323.9 242.4C322.567 241.2 322.634 239.633 324.1 237.7C325.3 236.3 325.4 234.1 325.8 212.6C326.5 175.5 329.3 147.6 332.9 140.8C334.4 138.2 334.2 138.2 330.4 140.8C325.415 144.273 321.39 148.952 318.7 154.4C312.5 165.9 310.4 181.4 310.4 214.6C310.4 233.4 310.5 235.9 311.6 237.6C312.6 239.4 312.6 240 312 241.8C311.5 242.9 311.3 244.1 311.5 244.3C312.9 245.6 322.9 245.3 324.3 243.8ZM380.4 208.4C380.7 208.1 380.2 206.4 379.4 204.8C378.2 202.2 377.7 201.8 376 201.8C368.004 201.105 360.206 198.935 353 195.4C347.9 193.1 346 192.6 345.5 193.2C343.9 194.7 346.5 198.2 350.5 200.1C356.387 202.221 362.552 203.468 368.8 203.8C371.5 203.8 371.6 203.8 370 206.1L369 207.7H372L377 208.3C380 209 380 209 380.4 208.4Z" fill="#FFB700"/>
<path d="M412.002 225.1C412.002 224.1 409.102 221.6 406.302 219.9C404.002 218.6 403.602 218.5 403.602 219.6C403.602 221.2 402.202 225.3 401.602 225.3C401.202 225.167 400.868 224.6 400.602 223.6C400.302 222.6 399.202 220.6 398.102 219.3L396.102 216.8L394.702 219.1C393.302 221.3 390.802 223.4 389.702 223.4C389.502 223.4 389.402 222.2 389.702 220.9C389.835 219.167 389.668 218.167 389.202 217.9C388.735 217.634 388.468 217.7 388.402 218.1C388.402 218.9 385.002 222.7 384.402 222.7C384.002 222.634 383.668 221.833 383.402 220.3L382.602 215.5C382.468 214.367 382.802 215.034 383.602 217.5L385.202 221.6L386.802 219.1C387.526 218.067 388.067 216.917 388.402 215.7C388.402 215.167 388.635 215 389.102 215.2C389.502 215.4 390.002 217.1 390.202 218.9L390.702 222.3L392.502 220.3L395.102 217.1C395.802 215.9 395.902 215.9 397.402 217.1C398.202 217.9 399.502 219.6 400.302 221C401.102 222.4 401.802 223.4 401.902 223.3L402.502 220.1L402.902 217.1C403.002 216.6 408.302 220.1 410.302 221.8C411.502 222.9 412.702 223.7 412.902 223.5C413.102 223.3 413.302 221.7 413.302 219.8C413.302 217 413.002 216.2 411.302 214.7C409.302 212.9 409.302 212.9 408.502 214.2C407.502 215.9 406.402 215.9 406.402 214.2C406.402 213 402.602 208.3 401.702 208.3C401.302 208.434 400.702 209.2 399.902 210.6C398.702 212.7 398.402 212.9 398.202 212.9C397.202 212.9 391.902 206.9 391.902 205.9C391.902 205.034 392.335 205.3 393.202 206.7C394.095 208.014 395.135 209.221 396.302 210.3C398.302 212.1 399.102 211.7 399.902 208.2C400.235 207.134 400.568 206.534 400.902 206.4C401.702 206.4 406.302 211.3 406.902 212.9L407.602 214.5L408.102 212.7C408.702 210.567 409.468 210.5 410.402 212.5C410.802 213.3 412.802 215.1 414.802 216.3L418.502 218.7L419.202 216.3C419.735 214.967 420.135 214.434 420.402 214.7C420.802 215.2 419.802 219.2 419.102 220C419.102 220.1 417.802 219.4 416.502 218.5L414.002 216.7V219.9C414.002 221.6 413.802 223.7 413.602 224.5C413.102 226.1 411.902 226.5 411.902 225.1H412.002ZM393.502 199.7C389.102 196.1 388.502 195.3 388.502 193.5L388.602 191.7L388.902 193.4C389.102 194.4 390.302 196 391.702 197.2L394.302 199.2L395.802 197.4C396.702 196.4 397.402 195.2 397.402 194.8C397.402 193.6 397.602 193.7 400.602 196.3C403.202 198.6 403.302 198.6 403.602 197.1C403.902 196.3 403.802 194.7 403.602 193.6C402.602 190.667 402.768 190.134 404.102 192L406.502 194.8C407.502 195.9 407.602 195.9 408.002 194.5C408.302 193.6 408.502 192.1 408.502 191.1V189.2L410.802 191.9C413.102 194.5 413.302 194.6 413.902 193.3C414.402 192.6 414.702 190.9 414.702 189.6C414.702 187.867 414.902 187.334 415.302 188C416.102 189.2 415.602 192.2 414.202 194.8L413.202 196.8L411.902 194.7C410.202 192.1 409.602 192.1 408.602 194.9C407.668 197.567 406.768 197.834 405.902 195.7C405.302 194.4 405.102 194.6 404.702 197.4L404.202 200.4L401.202 198.1L398.202 195.8L396.702 197.3C396.002 198.2 395.402 199.3 395.402 199.7C395.335 200.7 394.702 200.7 393.502 199.7ZM432.502 186.1C431.002 184.7 429.902 183.3 430.102 183.1C430.435 182.767 430.635 182.7 430.702 182.9L433.702 185.9C437.102 189.5 436.402 189.6 432.602 186.1H432.502ZM380.502 180.7C379.102 178.7 379.202 177.5 381.002 175.3C382.202 173.8 382.802 173.6 385.002 173.9C386.502 174 389.602 175.3 391.902 176.7C395.221 178.695 399.028 179.734 402.902 179.7L401.202 176.9C398.935 173.7 399.068 173.134 401.602 175.2C404.202 177.3 407.302 177.9 414.302 177.7L417.702 177.6L415.702 175.6C413.002 172.9 413.802 172.6 416.902 175.3C419.702 177.8 419.602 178 413.502 178.6C410.958 178.857 408.39 178.688 405.902 178.1C402.502 177.1 402.302 177.2 403.002 178.3C403.468 179.034 403.902 179.434 404.302 179.5C404.702 179.567 404.935 179.833 405.002 180.3C405.002 181.6 397.602 180.4 394.002 178.7C386.002 174.6 385.002 174.2 383.002 174.8C382.46 174.989 381.965 175.292 381.551 175.689C381.137 176.086 380.813 176.567 380.602 177.1C379.302 180.4 384.002 183 385.902 180.1C386.502 179.2 386.402 178.7 385.402 177.6C384.002 176.267 384.202 175.934 386.002 176.6C387.302 177.1 387.402 180.2 386.202 181.4C384.902 182.7 381.702 182.4 380.502 180.7Z" fill="#000001"/>
<path d="M412.401 172.6C411.401 171.6 412.201 171.4 416.701 171.3C422.301 171.2 425.701 170.3 429.701 167.7C432.901 165.7 433.801 166.1 430.701 168.2C428.001 170.2 423.701 171.6 419.401 172L414.3 172.7C413.367 172.9 412.7 172.867 412.3 172.6H412.401Z" fill="#000001"/>
</g>
<defs>
<clipPath id="clip0_3921_5681">
<rect width="640" height="480" fill="white"/>
</clipPath>
</defs>
</svg>
