<svg width="640" height="480" viewBox="0 0 640 480" fill="none" xmlns="http://www.w3.org/2000/svg">
<g clip-path="url(#clip0_3921_5717)">
<path d="M0 0H640V480H0V0Z" fill="white"/>
<path d="M0 336H640V480H0V336Z" fill="#009543"/>
<path d="M0 0H640V144H0V0Z" fill="#00209F"/>
<path d="M319.6 153C316.9 153 314.2 156 314.2 156L314.5 188.4L304.2 199.1H312.5V217.6L263.5 283.6L256.3 281L243.6 308C243.6 308 274.9 327.6 320.3 327C370.1 326.5 397.2 307.1 397.2 307.1L384.2 280.5L377.7 283.3L328.1 217.7V198.6H336.3L325.1 188V155.8C325.1 155.8 322.4 152.8 319.6 152.9V153Z" fill="black" stroke="black" stroke-width="1.6"/>
<path d="M336.7 230.4H302.8C302.8 230.4 290.6 204.5 292.5 186.4C294.5 168 305.1 159.3 319.1 159.1C335.7 159 344.3 167.2 346.9 185.7C349.5 204 336.7 230.4 336.7 230.4Z" stroke="black" stroke-width="8"/>
<path d="M260.501 292.1C259.901 292.8 255.801 301 255.801 301L262.801 299.5L260.501 292.1ZM264.501 302.6L257.101 305L266.001 308.5L264.501 302.6ZM267.801 292.3L271.501 303.2L280.501 300.6L278.201 295.4L267.801 292.3ZM273.601 307.1L274.801 311.5L286.801 314.5L282.001 304.3L273.601 307.1ZM286.801 297.8L291.101 308L300.101 304.5L297.101 300L286.801 297.8ZM292.801 311.7L294.201 315.5L308.201 317.5L302.301 308.3L292.701 311.7H292.801ZM306.201 300.7L311.401 309.8L324.401 305L323.001 301.5L306.201 300.8V300.7ZM313.801 313.1L316.501 317.9L332.701 317.4L326.701 308.4L313.701 313.1H313.801ZM330.901 301.1L335.301 308.7L345.701 303.7L342.901 299.7L330.901 301.1ZM347.901 306.9L337.601 312L340.301 316.5L354.101 314.3L347.901 306.9ZM351.201 298.9L356.501 305.6L365.201 298.7L362.201 295.7L351.201 298.9ZM367.101 302.4L358.801 308.7L361.001 312.6L372.401 309.6L367.101 302.4ZM378.501 289.4L380.501 292.3L374.801 300.8L368.901 293.2L378.501 289.4ZM382.401 296.7L385.901 303.7L378.901 306.1L378.301 302.8L382.301 296.8L382.401 296.7Z" fill="white"/>
</g>
<defs>
<clipPath id="clip0_3921_5717">
<rect width="640" height="480" fill="white"/>
</clipPath>
</defs>
</svg>
