<svg width="640" height="480" viewBox="0 0 640 480" fill="none" xmlns="http://www.w3.org/2000/svg">
<g clip-path="url(#clip0_3921_5737)">
<mask id="mask0_3921_5737" style="mask-type:luminance" maskUnits="userSpaceOnUse" x="0" y="0" width="640" height="480">
<path d="M0.03125 0H639.967V480H0.03125V0Z" fill="white"/>
</mask>
<g mask="url(#mask0_3921_5737)">
<path d="M-160 0H800V480H-160V0Z" fill="#239E46"/>
<path d="M-160 0H800V360H-160V0Z" fill="#000001"/>
<path d="M-160 0H800V120H-160V0Z" fill="#E70013"/>
<path d="M362.433 197.568C354.638 192.006 345.462 188.698 335.911 188.008C326.36 187.317 316.803 189.271 308.29 193.655C299.776 198.039 292.635 204.683 287.649 212.858C282.663 221.033 280.025 230.424 280.025 240C280.025 249.576 282.663 258.967 287.649 267.142C292.635 275.317 299.776 281.962 308.29 286.345C316.803 290.729 326.36 292.683 335.911 291.992C345.462 291.302 354.638 287.994 362.433 282.432C354.041 290.822 343.35 296.534 331.711 298.848C320.073 301.162 308.01 299.973 297.047 295.431C286.084 290.89 276.715 283.199 270.122 273.333C263.53 263.466 260.012 251.866 260.012 240C260.012 228.134 263.53 216.534 270.122 206.667C276.715 196.801 286.084 189.111 297.047 184.569C308.01 180.027 320.073 178.838 331.711 181.152C343.35 183.466 354.041 189.178 362.433 197.568ZM349.185 240L429.921 213.792L380.001 282.432V197.568L429.921 266.208L349.185 240Z" fill="white"/>
</g>
</g>
<defs>
<clipPath id="clip0_3921_5737">
<rect width="640" height="480" fill="white"/>
</clipPath>
</defs>
</svg>
