<svg width="640" height="480" viewBox="0 0 640 480" fill="none" xmlns="http://www.w3.org/2000/svg">
<g clip-path="url(#clip0_3921_5963)">
<path d="M0 0H640V480H0V0Z" fill="#DA2032"/>
<path d="M213.301 0H426.701V480H213.301V0Z" fill="#0066B3"/>
<path d="M106.699 221.8C128.791 221.8 146.699 203.891 146.699 181.8C146.699 159.709 128.791 141.8 106.699 141.8C84.6078 141.8 66.6992 159.709 66.6992 181.8C66.6992 203.891 84.6078 221.8 106.699 221.8Z" fill="#FFD900"/>
<path d="M106.7 207.2C130.779 207.2 150.3 187.68 150.3 163.6C150.3 139.52 130.779 120 106.7 120C82.62 120 63.0996 139.52 63.0996 163.6C63.0996 187.68 82.62 207.2 106.7 207.2Z" fill="#DA2032"/>
<path d="M106.7 200C122.771 200 135.8 186.972 135.8 170.9C135.8 154.829 122.771 141.8 106.7 141.8C90.6281 141.8 77.5996 154.829 77.5996 170.9C77.5996 186.972 90.6281 200 106.7 200Z" fill="#FFD900"/>
<path d="M109.699 76.3999C108.243 77.073 106.992 78.1232 106.078 79.4419C105.164 80.7606 104.619 82.2997 104.499 83.8999C104.299 86.3999 105.399 89.1999 105.499 91.5999C105.499 95.7999 101.199 97.1999 101.199 103.1C101.199 105.1 103.099 107.4 103.099 112.7C102.699 115.5 101.099 116.2 99.3992 116.4C98.9179 116.4 98.4415 116.304 97.9981 116.117C97.5546 115.929 97.1532 115.655 96.8176 115.31C96.482 114.965 96.2189 114.557 96.044 114.108C95.8691 113.66 95.7859 113.181 95.7992 112.7C95.8336 111.776 96.187 110.893 96.7992 110.2L97.1992 109.9C97.9992 109 99.1992 108.7 99.1992 106.5C99.1992 105.4 98.3992 104.3 97.6992 102.3C96.9992 100.3 97.4992 97.0999 99.0992 95.1999C96.4992 96.1999 94.9992 98.5999 94.0992 100.8C93.2992 103.5 94.0992 105 92.8992 107.3C92.1992 108.7 91.3992 109.3 90.5992 110.5C89.5992 111.9 88.5992 114.9 88.5992 116.4C88.9395 120.981 90.9994 125.264 94.3657 128.389C97.732 131.515 102.156 133.252 106.749 133.252C111.343 133.252 115.766 131.515 119.133 128.389C122.499 125.264 124.559 120.981 124.899 116.4C124.899 114.9 123.799 111.9 122.899 110.5C121.999 109.3 121.199 108.7 120.499 107.3C119.299 105 120.099 103.5 119.199 100.8C118.399 98.5999 116.899 96.1999 114.299 95.1999C115.899 97.1999 116.299 100.4 115.699 102.3C114.999 104.3 114.299 105.3 114.299 106.5C114.299 108.7 115.399 109 116.299 109.9L116.599 110.2C117.211 110.893 117.565 111.776 117.599 112.7C117.613 113.181 117.529 113.66 117.354 114.108C117.18 114.557 116.916 114.965 116.581 115.31C116.245 115.655 115.844 115.929 115.4 116.117C114.957 116.304 114.481 116.4 113.999 116.4C111.999 116.1 110.499 115.2 110.299 112.7C110.299 105.7 113.299 105.3 113.299 100.1C113.299 92.6999 106.699 89.1999 106.699 83.7999C106.699 81.9999 107.099 78.7999 109.699 76.3999ZM26.6992 229H62.9992V403.5H26.6992V229ZM150.299 229H186.699V403.5H150.299V229ZM70.2992 229H142.999L106.699 250.8L70.2992 229ZM70.2992 258H142.999V272.6H70.2992V258ZM70.2992 359.9H142.999V374.5H70.2992V359.9ZM70.2992 381.7H142.999L106.699 403.5L70.2992 381.7Z" fill="#FFD900"/>
<path d="M106.701 352.8C126.804 352.8 143.101 336.503 143.101 316.4C143.101 296.297 126.804 280 106.701 280C86.5976 280 70.3008 296.297 70.3008 316.4C70.3008 336.503 86.5976 352.8 106.701 352.8Z" fill="#FFD900"/>
<path d="M106.654 304.335C110.67 304.335 113.926 301.079 113.926 297.062C113.926 293.046 110.67 289.79 106.654 289.79C102.637 289.79 99.3809 293.046 99.3809 297.062C99.3809 301.079 102.637 304.335 106.654 304.335Z" fill="#DA2032"/>
<path d="M106.654 342.881C110.67 342.881 113.926 339.625 113.926 335.608C113.926 331.591 110.67 328.335 106.654 328.335C102.637 328.335 99.3809 331.591 99.3809 335.608C99.3809 339.625 102.637 342.881 106.654 342.881Z" fill="#DA2032"/>
<path d="M106.654 275.608C112.344 275.608 117.801 277.869 121.824 281.892C125.848 285.916 128.108 291.373 128.108 297.063C128.108 302.753 125.848 308.21 121.824 312.233C117.801 316.257 112.344 318.517 106.654 318.517C102.121 318.517 97.7738 320.318 94.5686 323.523C91.3635 326.728 89.5628 331.075 89.5628 335.608C89.5628 340.141 91.3635 344.488 94.5686 347.693C97.7738 350.898 102.121 352.699 106.654 352.699V357.062C100.964 357.062 95.5066 354.802 91.4831 350.779C87.4596 346.755 85.1992 341.298 85.1992 335.608C85.1992 329.918 87.4596 324.461 91.4831 320.437C95.5066 316.414 100.964 314.153 106.654 314.153C111.186 314.153 115.534 312.353 118.739 309.148C121.944 305.943 123.745 301.595 123.745 297.063C123.745 292.53 121.944 288.183 118.739 284.978C115.534 281.772 111.186 279.972 106.654 279.972V275.608Z" fill="#DA2032"/>
</g>
<defs>
<clipPath id="clip0_3921_5963">
<rect width="640" height="480" fill="white"/>
</clipPath>
</defs>
</svg>
