<svg width="640" height="480" viewBox="0 0 640 480" fill="none" xmlns="http://www.w3.org/2000/svg">
<g clip-path="url(#clip0_3921_5975)">
<path d="M0 0H640V480H0V0Z" fill="#00785E"/>
<path d="M295 108.7L335.5 138.2L320 90.5L304.5 138.2L345.1 108.7H295Z" fill="#FBD116"/>
<path d="M319.999 331.6H217.499L213.699 327.6H319.999C320.421 327.732 320.787 328 321.04 328.361C321.293 328.723 321.419 329.159 321.399 329.6C321.399 330.533 320.933 331.2 319.999 331.6ZM319.999 300.3C321.157 297.946 321.575 295.296 321.199 292.7C321.014 291.375 320.608 290.091 319.999 288.9C310.786 297.668 299.659 304.173 287.499 307.9C279.881 310.215 271.962 311.395 263.999 311.4H200.899L206.699 319.4H267.699C287.699 319.4 305.899 312.2 319.999 300.3ZM210.399 275.6C207.289 276.766 204.017 277.441 200.699 277.6C208.299 286.239 217.652 293.16 228.136 297.902C238.619 302.644 249.993 305.097 261.499 305.1C272.433 305.097 283.252 302.88 293.306 298.583C303.36 294.287 312.44 287.999 319.999 280.1C322.809 260.622 324.313 240.978 324.499 221.3C324.74 198.651 323.236 176.017 319.999 153.6C313.399 159.6 300.999 172.3 295.199 191.9C293.024 199.405 291.946 207.186 291.999 215C292.014 231.025 296.782 246.685 305.699 260C294.711 245.836 288.732 228.426 288.699 210.5C288.766 197.967 291.366 186.4 296.499 175.8C293.034 172.1 290.468 167.652 288.999 162.8C282.097 175 278.479 188.783 278.499 202.8C278.499 220.8 284.399 237.5 294.399 250.9C284.993 241.016 273.569 233.274 260.903 228.201C248.237 223.127 234.627 220.842 220.999 221.5C223.756 224.057 226.056 227.067 227.799 230.4C240.626 230.415 253.317 233.028 265.107 238.081C276.897 243.134 287.542 250.522 296.399 259.8C279.303 245.467 257.708 237.608 235.399 237.6C222.803 237.576 210.328 240.057 198.699 244.9C204.908 261.406 216.334 275.436 231.242 284.857C246.15 294.279 263.726 298.577 281.299 297.1C276.633 297.967 271.833 298.4 266.899 298.4C245.851 298.416 225.623 290.239 210.499 275.6H210.399ZM319.999 364.4H266.899C283.803 371.088 301.82 374.515 319.999 374.5C320.823 372.96 321.269 371.246 321.299 369.5C321.285 367.72 320.839 365.97 319.999 364.4ZM319.999 339.9H226.399L234.199 346.1H319.999C320.777 345.248 321.237 344.152 321.299 343C321.32 342.42 321.215 341.842 320.991 341.307C320.766 340.771 320.428 340.291 319.999 339.9ZM319.999 352.4H243.299C247.943 355.339 252.751 358.01 257.699 360.4H319.999C320.781 359.138 321.197 357.684 321.199 356.2C321.126 354.852 320.713 353.545 319.999 352.4Z" fill="white"/>
<path d="M200.5 174.8L225.9 198.4L219.2 164.4L204.6 195.8L234.9 179L200.5 174.8ZM237.4 142.8L272.1 143.4L244.4 122.4L254.5 155.7L265.8 122.8L237.4 142.8Z" fill="#FBD116"/>
<path d="M320.001 331.6H422.501L426.301 327.6H320.001C319.579 327.732 319.213 328 318.96 328.361C318.707 328.723 318.581 329.159 318.601 329.6C318.601 330.533 319.067 331.2 320.001 331.6ZM320.001 300.3C318.843 297.946 318.425 295.296 318.801 292.7C318.986 291.375 319.392 290.091 320.001 288.9C329.214 297.668 340.341 304.173 352.501 307.9C360.119 310.215 368.038 311.395 376.001 311.4H439.101L433.301 319.4H372.301C352.301 319.4 334.101 312.2 320.001 300.3ZM429.601 275.6C432.711 276.766 435.983 277.441 439.301 277.6C431.701 286.239 422.348 293.16 411.864 297.902C401.381 302.644 390.007 305.097 378.501 305.1C367.567 305.097 356.748 302.88 346.694 298.583C336.64 294.287 327.56 287.999 320.001 280.1C317.191 260.622 315.687 240.978 315.501 221.3C315.26 198.651 316.764 176.017 320.001 153.6C326.601 159.6 339.001 172.3 344.801 191.9C346.976 199.405 348.054 207.186 348.001 215C347.986 231.025 343.218 246.685 334.301 260C345.289 245.836 351.268 228.426 351.301 210.5C351.234 197.967 348.634 186.4 343.501 175.8C346.966 172.1 349.532 167.652 351.001 162.8C357.903 175 361.521 188.783 361.501 202.8C361.501 220.8 355.601 237.5 345.601 250.9C355.007 241.016 366.431 233.274 379.097 228.201C391.763 223.127 405.373 220.842 419.001 221.5C416.244 224.057 413.944 227.067 412.201 230.4C399.374 230.415 386.683 233.028 374.893 238.081C363.103 243.134 352.458 250.522 343.601 259.8C360.697 245.467 382.292 237.608 404.601 237.6C417.197 237.576 429.672 240.057 441.301 244.9C435.092 261.406 423.666 275.436 408.758 284.857C393.85 294.279 376.274 298.577 358.701 297.1C363.367 297.967 368.167 298.4 373.101 298.4C394.149 298.416 414.377 290.239 429.501 275.6H429.601ZM320.001 364.4H373.101C356.197 371.088 338.18 374.515 320.001 374.5C319.177 372.96 318.731 371.246 318.701 369.5C318.715 367.72 319.161 365.97 320.001 364.4ZM320.001 339.9H413.601L405.801 346.1H320.001C319.223 345.248 318.763 344.152 318.701 343C318.68 342.42 318.785 341.842 319.009 341.307C319.234 340.771 319.572 340.291 320.001 339.9ZM320.001 352.4H396.701C392.057 355.339 387.249 358.01 382.301 360.4H320.001C319.219 359.138 318.803 357.684 318.801 356.2C318.874 354.852 319.287 353.545 320.001 352.4Z" fill="white"/>
<path d="M439.5 174.8L414.1 198.4L420.8 164.4L435.4 195.8L405.1 179L439.5 174.8ZM402.6 142.8L367.9 143.4L395.6 122.4L385.5 155.7L374.2 122.8L402.6 142.8Z" fill="#FBD116"/>
</g>
<defs>
<clipPath id="clip0_3921_5975">
<rect width="640" height="480" fill="white"/>
</clipPath>
</defs>
</svg>
