<svg width="640" height="480" viewBox="0 0 640 480" fill="none" xmlns="http://www.w3.org/2000/svg">
<g clip-path="url(#clip0_3921_6887)">
<path d="M0 0H640V480H0V0Z" fill="#FEDD00"/>
<path d="M0 0H320V240H0V0Z" fill="#012169"/>
<path d="M37.5 0L159.5 90.5L281 0H320V31L200 120.5L320 209.5V240H280L160 150.5L40.5 240H0V210L119.5 121L0 32V0H37.5Z" fill="white"/>
<path d="M212 140.5L320 220V240L184.5 140.5H212ZM120 150.5L123 168L27 240H0L120 150.5ZM320 0V1.5L195.5 95.5L196.5 73.5L295 0H320ZM0 0L119.5 88H89.5L0 21V0Z" fill="#C8102E"/>
<path d="M120.5 0V240H200.5V0H120.5ZM0 80V160H320V80H0Z" fill="white"/>
<path d="M0 96.5V144.5H320V96.5H0ZM136.5 0V240H184.5V0H136.5Z" fill="#C8102E"/>
<path d="M159.999 160.8C182.532 160.8 200.799 142.533 200.799 120C200.799 97.4667 182.532 79.2 159.999 79.2C137.466 79.2 119.199 97.4667 119.199 120C119.199 142.533 137.466 160.8 159.999 160.8Z" fill="#012169"/>
<path d="M160 79.2L184 153L121.2 107.4H198.8L136 153M66.7004 98.3L80.7004 141.7L43.9004 115H89.6004L52.6004 141.8M253.3 98.3L267.4 141.7L230.5 114.9H276.2L239.2 141.7M160 178.3L174.1 221.7L137.1 194.9H182.8L145.8 221.7M160 18.3L174.1 61.7001L137.1 34.9001H182.8L145.8 61.7001" fill="#FEDD00"/>
</g>
<defs>
<clipPath id="clip0_3921_6887">
<rect width="640" height="480" fill="white"/>
</clipPath>
</defs>
</svg>
