<svg width="640" height="480" viewBox="0 0 640 480" fill="none" xmlns="http://www.w3.org/2000/svg">
<g clip-path="url(#clip0_3921_6898)">
<path fill-rule="evenodd" clip-rule="evenodd" d="M0 0H640V480H0V0Z" fill="#00247D"/>
<path d="M490.426 107.188V122.358L520.764 107.188H490.426Z" fill="white"/>
<path d="M496.493 125.392L490.426 113.256L520.764 107.188L496.493 125.392Z" fill="white"/>
<path d="M490.426 107.188V122.358L460.087 107.188H490.426Z" fill="white"/>
<path d="M484.358 125.392L490.426 113.256L460.087 107.188L484.358 125.392Z" fill="white"/>
<path d="M499.082 113.478L484.655 118.165L508.457 142.331L499.082 113.478Z" fill="white"/>
<path d="M483.645 124.873L493.311 115.353L508.457 142.331L483.645 124.873Z" fill="white"/>
<path d="M481.77 113.478L496.196 118.165L491.145 84.6239L481.77 113.478Z" fill="white"/>
<path d="M500.957 113.332L487.54 115.353L491.145 84.6239L500.957 113.332Z" fill="white"/>
<path d="M481.77 113.478L496.196 118.165L472.394 142.331L481.77 113.478Z" fill="white"/>
<path d="M497.207 124.873L487.54 115.353L472.394 142.331L497.207 124.873Z" fill="white"/>
<path d="M490.426 110.276V120.3L510.473 110.276H490.426Z" fill="#CC142B"/>
<path d="M494.435 122.304L490.426 114.285L510.473 110.276L494.435 122.304Z" fill="#CC142B"/>
<path d="M490.426 110.276V120.3L470.378 110.276H490.426Z" fill="#CC142B"/>
<path d="M486.416 122.304L490.426 114.285L470.378 110.276L486.416 122.304Z" fill="#CC142B"/>
<path d="M496.145 114.432L486.611 117.529L502.34 133.498L496.145 114.432Z" fill="#CC142B"/>
<path d="M485.944 121.962L492.331 115.671L502.34 133.498L485.944 121.962Z" fill="#CC142B"/>
<path d="M484.705 114.432L494.238 117.529L490.9 95.3653L484.705 114.432Z" fill="#CC142B"/>
<path d="M497.384 114.335L488.518 115.671L490.9 95.3653L497.384 114.335Z" fill="#CC142B"/>
<path d="M484.705 114.432L494.238 117.529L478.51 133.498L484.705 114.432Z" fill="#CC142B"/>
<path d="M494.906 121.962L488.518 115.671L478.51 133.498L494.906 121.962Z" fill="#CC142B"/>
<path d="M569.918 177.2L569.918 190.699L596.915 177.2L569.918 177.2Z" fill="white"/>
<path d="M575.317 193.398L569.918 182.599L596.915 177.2L575.317 193.398Z" fill="white"/>
<path d="M569.918 177.2L569.918 190.699L542.921 177.2L569.918 177.2Z" fill="white"/>
<path d="M564.519 193.398L569.918 182.599L542.921 177.2L564.519 193.398Z" fill="white"/>
<path d="M577.621 182.796L564.783 186.968L585.964 208.472L577.621 182.796Z" fill="white"/>
<path d="M563.884 192.937L572.486 184.465L585.964 208.472L563.884 192.937Z" fill="white"/>
<path d="M562.215 182.796L575.053 186.968L570.557 157.12L562.215 182.796Z" fill="white"/>
<path d="M579.289 182.667L567.35 184.465L570.557 157.12L579.289 182.667Z" fill="white"/>
<path d="M562.215 182.796L575.053 186.968L553.872 208.472L562.215 182.796Z" fill="white"/>
<path d="M575.952 192.937L567.35 184.465L553.872 208.472L575.952 192.937Z" fill="white"/>
<path d="M569.918 180.287L569.918 188.64L586.624 180.287L569.918 180.287Z" fill="#CC142B"/>
<path d="M573.259 190.311L569.918 183.629L586.624 180.287L573.259 190.311Z" fill="#CC142B"/>
<path d="M569.918 180.287L569.918 188.64L553.212 180.287L569.918 180.287Z" fill="#CC142B"/>
<path d="M566.577 190.311L569.918 183.629L553.212 180.287L566.577 190.311Z" fill="#CC142B"/>
<path d="M574.686 183.75L566.741 186.332L579.848 199.639L574.686 183.75Z" fill="#CC142B"/>
<path d="M566.185 190.026L571.508 184.783L579.848 199.639L566.185 190.026Z" fill="#CC142B"/>
<path d="M565.152 183.75L573.097 186.332L570.315 167.862L565.152 183.75Z" fill="#CC142B"/>
<path d="M575.718 183.67L568.33 184.783L570.315 167.862L575.718 183.67Z" fill="#CC142B"/>
<path d="M565.152 183.75L573.097 186.332L559.99 199.639L565.152 183.75Z" fill="#CC142B"/>
<path d="M573.653 190.026L568.33 184.783L559.99 199.639L573.653 190.026Z" fill="#CC142B"/>
<path d="M397.836 200.413L397.836 215.582L428.174 200.413L397.836 200.413Z" fill="white"/>
<path d="M403.904 218.616L397.836 206.481L428.174 200.413L403.904 218.616Z" fill="white"/>
<path d="M397.836 200.413L397.836 215.582L367.497 200.413L397.836 200.413Z" fill="white"/>
<path d="M391.768 218.616L397.836 206.481L367.497 200.413L391.768 218.616Z" fill="white"/>
<path d="M406.492 206.702L392.065 211.389L415.867 235.556L406.492 206.702Z" fill="white"/>
<path d="M391.055 218.098L400.721 208.577L415.867 235.556L391.055 218.098Z" fill="white"/>
<path d="M389.18 206.702L403.607 211.389L398.555 177.848L389.18 206.702Z" fill="white"/>
<path d="M408.367 206.556L394.95 208.577L398.555 177.848L408.367 206.556Z" fill="white"/>
<path d="M389.18 206.702L403.607 211.389L379.805 235.556L389.18 206.702Z" fill="white"/>
<path d="M404.617 218.098L394.95 208.577L379.805 235.556L404.617 218.098Z" fill="white"/>
<path d="M397.836 203.5L397.836 213.524L417.883 203.5L397.836 203.5Z" fill="#CC142B"/>
<path d="M401.845 215.529L397.836 207.51L417.883 203.5L401.845 215.529Z" fill="#CC142B"/>
<path d="M397.836 203.5L397.836 213.524L377.788 203.5L397.836 203.5Z" fill="#CC142B"/>
<path d="M393.826 215.529L397.836 207.51L377.788 203.5L393.826 215.529Z" fill="#CC142B"/>
<path d="M403.555 207.656L394.022 210.754L409.75 226.722L403.555 207.656Z" fill="#CC142B"/>
<path d="M393.354 215.186L399.741 208.895L409.75 226.722L393.354 215.186Z" fill="#CC142B"/>
<path d="M392.115 207.656L401.648 210.754L398.31 188.59L392.115 207.656Z" fill="#CC142B"/>
<path d="M404.794 207.56L395.928 208.895L398.31 188.59L404.794 207.56Z" fill="#CC142B"/>
<path d="M392.115 207.656L401.648 210.754L385.92 226.722L392.115 207.656Z" fill="#CC142B"/>
<path d="M402.316 215.186L395.928 208.895L385.92 226.722L402.316 215.186Z" fill="#CC142B"/>
<path d="M490.426 346.756V363.596L524.106 346.756H490.426Z" fill="white"/>
<path d="M497.162 366.964L490.426 353.492L524.106 346.756L497.162 366.964Z" fill="white"/>
<path d="M490.426 346.756V363.596L456.746 346.756H490.426Z" fill="white"/>
<path d="M483.69 366.964L490.426 353.492L456.746 346.756L483.69 366.964Z" fill="white"/>
<path d="M500.035 353.738L484.019 358.942L510.443 385.769L500.035 353.738Z" fill="white"/>
<path d="M482.898 366.389L493.629 355.819L510.443 385.769L482.898 366.389Z" fill="white"/>
<path d="M480.816 353.738L496.832 358.942L491.224 321.706L480.816 353.738Z" fill="white"/>
<path d="M502.117 353.576L487.223 355.819L491.224 321.706L502.117 353.576Z" fill="white"/>
<path d="M480.816 353.738L496.832 358.942L470.409 385.769L480.816 353.738Z" fill="white"/>
<path d="M497.954 366.389L487.223 355.819L470.409 385.769L497.954 366.389Z" fill="white"/>
<path d="M490.426 349.844V361.538L513.815 349.844H490.426Z" fill="#CC142B"/>
<path d="M495.104 363.877L490.426 354.521L513.815 349.844L495.104 363.877Z" fill="#CC142B"/>
<path d="M490.426 349.844V361.538L467.037 349.844H490.426Z" fill="#CC142B"/>
<path d="M485.748 363.877L490.426 354.521L467.037 349.844L485.748 363.877Z" fill="#CC142B"/>
<path d="M497.1 354.692L485.978 358.306L504.327 376.936L497.1 354.692Z" fill="#CC142B"/>
<path d="M485.199 363.477L492.651 356.137L504.327 376.936L485.199 363.477Z" fill="#CC142B"/>
<path d="M483.752 354.692L494.874 358.306L490.979 332.448L483.752 354.692Z" fill="#CC142B"/>
<path d="M498.544 354.58L488.201 356.137L490.979 332.448L498.544 354.58Z" fill="#CC142B"/>
<path d="M483.752 354.692L494.874 358.306L476.524 376.936L483.752 354.692Z" fill="#CC142B"/>
<path d="M495.653 363.477L488.201 356.137L476.524 376.936L495.653 363.477Z" fill="#CC142B"/>
<path d="M0 0H320V240H0V0Z" fill="#012169"/>
<path d="M37.5 0L159.5 90.5L281 0H320V31L200 120.5L320 209.5V240H280L160 150.5L40.5 240H0V210L119.5 121L0 32V0H37.5Z" fill="white"/>
<path d="M212 140.5L320 220V240L184.5 140.5H212ZM120 150.5L123 168L27 240H0L120 150.5ZM320 0V1.5L195.5 95.5L196.5 73.5L295 0H320ZM0 0L119.5 88H89.5L0 21V0Z" fill="#C8102E"/>
<path d="M120.5 0V240H200.5V0H120.5ZM0 80V160H320V80H0Z" fill="white"/>
<path d="M0 96.5V144.5H320V96.5H0ZM136.5 0V240H184.5V0H136.5Z" fill="#C8102E"/>
</g>
<defs>
<clipPath id="clip0_3921_6898">
<rect width="640" height="480" fill="white"/>
</clipPath>
</defs>
</svg>
