<svg width="640" height="480" viewBox="0 0 640 480" fill="none" xmlns="http://www.w3.org/2000/svg">
<g clip-path="url(#clip0_3921_7037)">
<mask id="mask0_3921_7037" style="mask-type:luminance" maskUnits="userSpaceOnUse" x="0" y="0" width="640" height="480">
<path d="M0 0H640V480H0V0Z" fill="white"/>
</mask>
<g mask="url(#mask0_3921_7037)">
<path fill-rule="evenodd" clip-rule="evenodd" d="M-3.30078 -21.5999H698.999V531.4H-3.30078V-21.5999Z" fill="#EF2D29"/>
<path fill-rule="evenodd" clip-rule="evenodd" d="M174.6 317.3H710.3V525H174.6V317.3Z" fill="#009025"/>
<path fill-rule="evenodd" clip-rule="evenodd" d="M174.6 -35.3999H739.5V154.6H174.5L174.6 -35.3999Z" fill="white"/>
<path d="M140 69.5889H117.055C115.817 69.5889 114.812 70.5263 114.812 71.6827V82.5775C114.812 83.7338 115.817 84.6713 117.055 84.6713H140C141.238 84.6713 142.242 83.7338 142.242 82.5775V71.6827C142.242 70.5263 141.238 69.5889 140 69.5889Z" fill="white" stroke="#EF2D28" stroke-width="0.262732"/>
<path d="M139.424 70.2275H117.651C116.478 70.2275 115.527 71.0935 115.527 72.1616V82.1338C115.527 83.2019 116.478 84.0679 117.651 84.0679H139.424C140.597 84.0679 141.548 83.2019 141.548 82.1338V72.1616C141.548 71.0935 140.597 70.2275 139.424 70.2275Z" fill="white" stroke="#EF2D28" stroke-width="0.243965"/>
<path fill-rule="evenodd" clip-rule="evenodd" d="M127.627 73.9785L128.939 74.0304L128.993 74.6327L130.074 75.183L130.912 74.4873L131.926 75.0377L130.98 75.6399L131.21 76.4706L132.399 76.4187V77.509L131.453 77.4675L130.966 78.1528L132.048 78.9316L131.21 79.5754L130.304 78.89L128.993 79.16L129.06 80.1673L127.627 80.2711L127.438 79.295L126.249 78.7966L125.586 79.4819L124.572 78.9731L125.167 78.1943L124.451 77.6959H123.437L123.383 76.2733L124.397 76.3668L125.113 75.5361L124.275 74.8923L125.356 74.1654L126.127 74.7573L127.438 74.5704L127.627 73.9785Z" fill="white" stroke="#EF2D28" stroke-width="0.154021"/>
<path d="M128.001 78.2067C128.802 78.2067 129.451 77.6544 129.451 76.9731C129.451 76.2918 128.802 75.7395 128.001 75.7395C127.2 75.7395 126.551 76.2918 126.551 76.9731C126.551 77.6544 127.2 78.2067 128.001 78.2067Z" fill="white" stroke="#EF2D28" stroke-width="0.165862"/>
<path fill-rule="evenodd" clip-rule="evenodd" d="M119.04 70.8486L116.916 72.7295L119.04 70.8486ZM120.449 70.8486L118.326 72.7295L120.449 70.8486ZM121.839 70.8486L119.735 72.7295L121.839 70.8486ZM123.248 70.8486L121.144 72.7295L123.248 70.8486ZM124.657 70.8486L122.553 72.7295L124.657 70.8486ZM126.066 70.8486L123.962 72.7295L126.066 70.8486ZM127.475 70.8486L125.372 72.7295L127.475 70.8486ZM128.885 70.8486L126.781 72.7295L128.885 70.8486ZM130.294 70.8486L128.17 72.7295L130.294 70.8486ZM131.703 70.8486L129.56 72.7295L131.703 70.8486ZM133.073 70.8486L130.969 72.7295L133.073 70.8486ZM134.482 70.8486L132.378 72.7295L134.482 70.8486ZM128.865 70.8486L126.781 72.7295L128.865 70.8486ZM135.911 70.8486L133.807 72.7295L135.911 70.8486ZM137.32 70.8486L135.216 72.7295L137.32 70.8486ZM138.729 70.8486L136.625 72.7295L138.729 70.8486ZM140.138 70.8486L138.035 72.7295L140.138 70.8486ZM138.035 70.8486L140.138 72.7295L138.035 70.8486ZM136.625 70.8486L138.729 72.7295L136.625 70.8486ZM135.216 70.8486L137.32 72.7295L135.216 70.8486ZM133.807 70.8486L135.911 72.7295L133.807 70.8486ZM132.398 70.8486L134.502 72.7295L132.398 70.8486ZM130.989 70.8486L133.092 72.7295L130.989 70.8486ZM129.579 70.8486L131.703 72.7295L129.579 70.8486ZM128.17 70.8486L130.274 72.7295L128.17 70.8486ZM126.741 70.8486L128.865 72.7295L126.741 70.8486ZM125.352 70.8486L127.456 72.7295L125.352 70.8486ZM123.943 70.8486L126.046 72.7295L123.943 70.8486ZM122.533 70.8486L124.637 72.7295L122.533 70.8486ZM128.17 70.8486L130.274 72.7295L128.17 70.8486ZM121.144 70.8486L123.228 72.7295L121.144 70.8486ZM119.715 70.8486L121.839 72.7295L119.715 70.8486ZM118.306 70.8486L120.429 72.7295L118.306 70.8486ZM116.896 70.8486L119.04 72.7295L116.896 70.8486ZM119.04 81.5305L116.936 83.4291L119.04 81.5305ZM120.429 81.5305L118.306 83.4291L120.429 81.5305ZM121.858 81.5305L119.735 83.4291L121.858 81.5305ZM123.248 81.5305L121.144 83.4291L123.248 81.5305ZM124.657 81.5305L122.553 83.4291L124.657 81.5305ZM126.066 81.5305L123.962 83.4291L126.066 81.5305ZM127.475 81.5305L125.391 83.4291L127.475 81.5305ZM128.885 81.5305L126.781 83.4291L128.885 81.5305ZM130.294 81.5305L128.17 83.4291L130.294 81.5305ZM131.683 81.5305L129.56 83.4291L131.683 81.5305ZM133.132 81.5305L131.008 83.4291L133.132 81.5305ZM134.522 81.5305L132.418 83.4291L134.522 81.5305ZM128.885 81.5305L126.781 83.4291L128.885 81.5305ZM135.911 81.5305L133.807 83.4291L135.911 81.5305ZM137.32 81.5305L135.216 83.4291L137.32 81.5305ZM138.729 81.5305L136.625 83.4291L138.729 81.5305ZM140.138 81.5305L138.035 83.4291L140.138 81.5305ZM138.035 81.5305L140.138 83.4291L138.035 81.5305ZM136.625 81.5305L138.729 83.4291L136.625 81.5305ZM135.216 81.5305L137.32 83.4291L135.216 81.5305ZM133.807 81.5305L135.911 83.4291L133.807 81.5305ZM132.398 81.5305L134.502 83.4291L132.398 81.5305ZM130.989 81.5305L133.112 83.4291L130.989 81.5305ZM129.56 81.5305L131.683 83.4291L129.56 81.5305ZM128.17 81.5305L130.274 83.4291L128.17 81.5305ZM126.781 81.5305L128.885 83.4291L126.781 81.5305ZM125.372 81.5305L127.475 83.4291L125.372 81.5305ZM123.962 81.5305L126.066 83.4291L123.962 81.5305ZM122.553 81.5305L124.657 83.4291L122.553 81.5305ZM128.19 81.5305L130.294 83.4291L128.19 81.5305ZM121.164 81.5305L123.248 83.4291L121.164 81.5305ZM119.735 81.5305L121.858 83.4291L119.735 81.5305ZM118.326 81.5305L120.449 83.4291L118.326 81.5305ZM116.936 81.5305L119.04 83.4291L116.936 81.5305Z" fill="white"/>
<path d="M119.04 70.8486L116.916 72.7295M120.449 70.8486L118.326 72.7295M121.839 70.8486L119.735 72.7295M123.248 70.8486L121.144 72.7295M124.657 70.8486L122.553 72.7295M126.066 70.8486L123.962 72.7295M127.475 70.8486L125.372 72.7295M128.885 70.8486L126.781 72.7295L128.865 70.8486M130.294 70.8486L128.17 72.7295M131.703 70.8486L129.56 72.7295M133.073 70.8486L130.969 72.7295M134.482 70.8486L132.378 72.7295M135.911 70.8486L133.807 72.7295M137.32 70.8486L135.216 72.7295M138.729 70.8486L136.625 72.7295M140.138 70.8486L138.035 72.7295M138.035 70.8486L140.138 72.7295M136.625 70.8486L138.729 72.7295M135.216 70.8486L137.32 72.7295M133.807 70.8486L135.911 72.7295M132.398 70.8486L134.502 72.7295M130.989 70.8486L133.092 72.7295M129.579 70.8486L131.703 72.7295M128.17 70.8486L130.274 72.7295M126.741 70.8486L128.865 72.7295M125.352 70.8486L127.456 72.7295M123.943 70.8486L126.046 72.7295M122.533 70.8486L124.637 72.7295M121.144 70.8486L123.228 72.7295M119.715 70.8486L121.839 72.7295M118.306 70.8486L120.429 72.7295M116.896 70.8486L119.04 72.7295M119.04 81.5305L116.936 83.4291M120.429 81.5305L118.306 83.4291M121.858 81.5305L119.735 83.4291M123.248 81.5305L121.144 83.4291M124.657 81.5305L122.553 83.4291M126.066 81.5305L123.962 83.4291M127.475 81.5305L125.391 83.4291M128.885 81.5305L126.781 83.4291M130.294 81.5305L128.17 83.4291M131.683 81.5305L129.56 83.4291M133.132 81.5305L131.008 83.4291M134.522 81.5305L132.418 83.4291M135.911 81.5305L133.807 83.4291M137.32 81.5305L135.216 83.4291M138.729 81.5305L136.625 83.4291M140.138 81.5305L138.035 83.4291M138.035 81.5305L140.138 83.4291M136.625 81.5305L138.729 83.4291M135.216 81.5305L137.32 83.4291M133.807 81.5305L135.911 83.4291M132.398 81.5305L134.502 83.4291M130.989 81.5305L133.112 83.4291M129.56 81.5305L131.683 83.4291M128.17 81.5305L130.274 83.4291M126.781 81.5305L128.885 83.4291M125.372 81.5305L127.475 83.4291M123.962 81.5305L126.066 83.4291M122.553 81.5305L124.657 83.4291M128.19 81.5305L130.294 83.4291M121.164 81.5305L123.248 83.4291M119.735 81.5305L121.858 83.4291M118.326 81.5305L120.449 83.4291M116.936 81.5305L119.04 83.4291" stroke="#EF2D28" stroke-width="0.243965"/>
<path d="M47.8004 68.9888H24.8561C23.6174 68.9888 22.6133 69.9262 22.6133 71.0826V81.9774C22.6133 83.1337 23.6174 84.0712 24.8561 84.0712H47.8004C49.0391 84.0712 50.0432 83.1337 50.0432 81.9774V71.0826C50.0432 69.9262 49.0391 68.9888 47.8004 68.9888Z" fill="white" stroke="#EF2D28" stroke-width="0.262732"/>
<path d="M47.2251 69.6274H25.4519C24.279 69.6274 23.3281 70.4934 23.3281 71.5615V81.5337C23.3281 82.6018 24.279 83.4678 25.4519 83.4678H47.2251C48.398 83.4678 49.3489 82.6018 49.3489 81.5337V71.5615C49.3489 70.4934 48.398 69.6274 47.2251 69.6274Z" fill="white" stroke="#EF2D28" stroke-width="0.243965"/>
<path fill-rule="evenodd" clip-rule="evenodd" d="M35.4283 73.3784L36.7395 73.4303L36.7936 74.0326L37.875 74.5829L38.7132 73.8872L39.727 74.4376L38.7808 75.0398L39.0106 75.8705L40.2002 75.8186V76.9089L39.2539 76.8674L38.7672 77.5527L39.8487 78.3315L39.0106 78.9753L38.1048 78.2899L36.7936 78.5599L36.8612 79.5672L35.4283 79.671L35.239 78.6949L34.0494 78.1965L33.387 78.8818L32.3732 78.373L32.968 77.5942L32.2515 77.0958H31.2377L31.1836 75.6732L32.1974 75.7667L32.9139 74.936L32.0758 74.2922L33.1572 73.5653L33.9278 74.1572L35.239 73.9703L35.4283 73.3784Z" fill="white" stroke="#EF2D28" stroke-width="0.154021"/>
<path d="M35.8016 77.6066C36.6025 77.6066 37.2517 77.0543 37.2517 76.373C37.2517 75.6917 36.6025 75.1394 35.8016 75.1394C35.0008 75.1394 34.3516 75.6917 34.3516 76.373C34.3516 77.0543 35.0008 77.6066 35.8016 77.6066Z" fill="white" stroke="#EF2D28" stroke-width="0.165862"/>
<path fill-rule="evenodd" clip-rule="evenodd" d="M26.8408 70.2485L24.7171 72.1294L26.8408 70.2485ZM28.2501 70.2485L26.1263 72.1294L28.2501 70.2485ZM29.6394 70.2485L27.5355 72.1294L29.6394 70.2485ZM31.0486 70.2485L28.9447 72.1294L31.0486 70.2485ZM32.4578 70.2485L30.3539 72.1294L32.4578 70.2485ZM33.867 70.2485L31.7632 72.1294L33.867 70.2485ZM35.2762 70.2485L33.1724 72.1294L35.2762 70.2485ZM36.6855 70.2485L34.5816 72.1294L36.6855 70.2485ZM38.0947 70.2485L35.9709 72.1294L38.0947 70.2485ZM39.5039 70.2485L37.3603 72.1294L39.5039 70.2485ZM40.8734 70.2485L38.7695 72.1294L40.8734 70.2485ZM42.2826 70.2485L40.1787 72.1294L42.2826 70.2485ZM36.6656 70.2485L34.5816 72.1294L36.6656 70.2485ZM43.7117 70.2485L41.6078 72.1294L43.7117 70.2485ZM45.1209 70.2485L43.017 72.1294L45.1209 70.2485ZM46.5301 70.2485L44.4262 72.1294L46.5301 70.2485ZM47.9393 70.2485L45.8354 72.1294L47.9393 70.2485ZM45.8354 70.2485L47.9393 72.1294L45.8354 70.2485ZM44.4262 70.2485L46.5301 72.1294L44.4262 70.2485ZM43.017 70.2485L45.1209 72.1294L43.017 70.2485ZM41.6078 70.2485L43.7117 72.1294L41.6078 70.2485ZM40.1986 70.2485L42.3024 72.1294L40.1986 70.2485ZM38.7893 70.2485L40.8932 72.1294L38.7893 70.2485ZM37.3801 70.2485L39.5039 72.1294L37.3801 70.2485ZM35.9709 70.2485L38.0748 72.1294L35.9709 70.2485ZM34.5419 70.2485L36.6656 72.1294L34.5419 70.2485ZM33.1525 70.2485L35.2564 72.1294L33.1525 70.2485ZM31.7433 70.2485L33.8472 72.1294L31.7433 70.2485ZM30.3341 70.2485L32.438 72.1294L30.3341 70.2485ZM35.9709 70.2485L38.0748 72.1294L35.9709 70.2485ZM28.9447 70.2485L31.0288 72.1294L28.9447 70.2485ZM27.5157 70.2485L29.6394 72.1294L27.5157 70.2485ZM26.1065 70.2485L28.2302 72.1294L26.1065 70.2485ZM24.6973 70.2485L26.8408 72.1294L24.6973 70.2485ZM26.8408 80.9304L24.737 82.829L26.8408 80.9304ZM28.2302 80.9304L26.1065 82.829L28.2302 80.9304ZM29.6593 80.9304L27.5355 82.829L29.6593 80.9304ZM31.0486 80.9304L28.9447 82.829L31.0486 80.9304ZM32.4578 80.9304L30.3539 82.829L32.4578 80.9304ZM33.867 80.9304L31.7632 82.829L33.867 80.9304ZM35.2762 80.9304L33.1922 82.829L35.2762 80.9304ZM36.6855 80.9304L34.5816 82.829L36.6855 80.9304ZM38.0947 80.9304L35.9709 82.829L38.0947 80.9304ZM39.484 80.9304L37.3603 82.829L39.484 80.9304ZM40.9329 80.9304L38.8092 82.829L40.9329 80.9304ZM42.3223 80.9304L40.2184 82.829L42.3223 80.9304ZM36.6855 80.9304L34.5816 82.829L36.6855 80.9304ZM43.7117 80.9304L41.6078 82.829L43.7117 80.9304ZM45.1209 80.9304L43.017 82.829L45.1209 80.9304ZM46.5301 80.9304L44.4262 82.829L46.5301 80.9304ZM47.9393 80.9304L45.8354 82.829L47.9393 80.9304ZM45.8354 80.9304L47.9393 82.829L45.8354 80.9304ZM44.4262 80.9304L46.5301 82.829L44.4262 80.9304ZM43.017 80.9304L45.1209 82.829L43.017 80.9304ZM41.6078 80.9304L43.7117 82.829L41.6078 80.9304ZM40.1986 80.9304L42.3024 82.829L40.1986 80.9304ZM38.7893 80.9304L40.9131 82.829L38.7893 80.9304ZM37.3603 80.9304L39.484 82.829L37.3603 80.9304ZM35.9709 80.9304L38.0748 82.829L35.9709 80.9304ZM34.5816 80.9304L36.6855 82.829L34.5816 80.9304ZM33.1724 80.9304L35.2762 82.829L33.1724 80.9304ZM31.7632 80.9304L33.867 82.829L31.7632 80.9304ZM30.3539 80.9304L32.4578 82.829L30.3539 80.9304ZM35.9908 80.9304L38.0947 82.829L35.9908 80.9304ZM28.9646 80.9304L31.0486 82.829L28.9646 80.9304ZM27.5355 80.9304L29.6593 82.829L27.5355 80.9304ZM26.1263 80.9304L28.2501 82.829L26.1263 80.9304ZM24.737 80.9304L26.8408 82.829L24.737 80.9304Z" fill="white"/>
<path d="M26.8408 70.2485L24.7171 72.1294M28.2501 70.2485L26.1263 72.1294M29.6394 70.2485L27.5355 72.1294M31.0486 70.2485L28.9447 72.1294M32.4578 70.2485L30.3539 72.1294M33.867 70.2485L31.7632 72.1294M35.2763 70.2485L33.1724 72.1294M36.6855 70.2485L34.5816 72.1294L36.6656 70.2485M38.0947 70.2485L35.9709 72.1294M39.5039 70.2485L37.3603 72.1294M40.8734 70.2485L38.7695 72.1294M42.2826 70.2485L40.1787 72.1294M43.7117 70.2485L41.6078 72.1294M45.1209 70.2485L43.017 72.1294M46.5301 70.2485L44.4262 72.1294M47.9393 70.2485L45.8354 72.1294M45.8354 70.2485L47.9393 72.1294M44.4262 70.2485L46.5301 72.1294M43.017 70.2485L45.1209 72.1294M41.6078 70.2485L43.7117 72.1294M40.1986 70.2485L42.3024 72.1294M38.7893 70.2485L40.8932 72.1294M37.3801 70.2485L39.5039 72.1294M35.9709 70.2485L38.0748 72.1294M34.5419 70.2485L36.6656 72.1294M33.1525 70.2485L35.2564 72.1294M31.7433 70.2485L33.8472 72.1294M30.3341 70.2485L32.438 72.1294M28.9447 70.2485L31.0288 72.1294M27.5157 70.2485L29.6394 72.1294M26.1065 70.2485L28.2302 72.1294M24.6973 70.2485L26.8408 72.1294M26.8408 80.9304L24.737 82.829M28.2302 80.9304L26.1065 82.829M29.6593 80.9304L27.5355 82.829M31.0486 80.9304L28.9447 82.829M32.4578 80.9304L30.3539 82.829M33.867 80.9304L31.7632 82.829M35.2763 80.9304L33.1922 82.829M36.6855 80.9304L34.5816 82.829M38.0947 80.9304L35.9709 82.829M39.484 80.9304L37.3603 82.829M40.9329 80.9304L38.8092 82.829M42.3223 80.9304L40.2184 82.829M43.7117 80.9304L41.6078 82.829M45.1209 80.9304L43.017 82.829M46.5301 80.9304L44.4262 82.829M47.9393 80.9304L45.8354 82.829M45.8354 80.9304L47.9393 82.829M44.4262 80.9304L46.5301 82.829M43.017 80.9304L45.1209 82.829M41.6078 80.9304L43.7117 82.829M40.1986 80.9304L42.3024 82.829M38.7893 80.9304L40.9131 82.829M37.3603 80.9304L39.484 82.829M35.9709 80.9304L38.0748 82.829M34.5816 80.9304L36.6855 82.829M33.1724 80.9304L35.2763 82.829M31.7632 80.9304L33.867 82.829M30.3539 80.9304L32.4578 82.829M35.9908 80.9304L38.0947 82.829M28.9646 80.9304L31.0486 82.829M27.5355 80.9304L29.6593 82.829M26.1263 80.9304L28.2501 82.829M24.737 80.9304L26.8408 82.829" stroke="#EF2D28" stroke-width="0.243965"/>
<path fill-rule="evenodd" clip-rule="evenodd" d="M65.6748 100.559C31.5453 134.031 16.9859 138.259 23.8309 140.961C30.6759 143.663 52.6478 126.384 75.507 103.453C98.3661 80.5225 112.368 60.0978 105.523 57.3961C98.6784 54.6944 101.985 64.9882 65.6748 100.559Z" fill="white" stroke="#EF2D28" stroke-width="0.4083"/>
<path fill-rule="evenodd" clip-rule="evenodd" d="M36.9887 124.915L48.957 128.055C37.7032 138.755 25.0402 143.138 21.5271 141.257C18.014 139.376 27.8586 134.975 37.0085 124.932L36.9887 124.915Z" fill="white" stroke="#EF2D28" stroke-width="0.225198"/>
<path fill-rule="evenodd" clip-rule="evenodd" d="M36.9854 126.161L46.8457 128.669C35.8833 138.957 25.037 141.875 22.2335 140.612C19.4108 139.367 28.0917 135.835 36.9854 126.161Z" fill="white" stroke="#EF2D28" stroke-width="0.236113"/>
<path d="M73.6426 99.1296C73.6146 99.291 73.5308 100.011 73.4609 100.297C73.4609 100.694 73.4189 100.992 73.377 101.302C73.2652 101.575 73.2792 101.823 72.9437 101.923C72.7878 102.17 72.5412 102.363 72.2448 102.469C71.9759 102.66 71.6798 102.819 71.3642 102.941C71.0327 103.065 70.6652 103.091 70.3158 103.015L69.533 102.469C69.4771 102.221 69.4212 101.861 69.3513 101.612C69.4599 101.944 69.521 102.286 69.533 102.63C69.5051 103.003 69.3513 103.177 69.1836 103.475" stroke="#EF2D28" stroke-width="0.237111"/>
<path d="M70.4698 104.326L70.3859 104.252C70.5956 104.438 70.5117 104.351 70.0365 104.09C69.7103 103.958 69.3329 103.859 68.9042 103.792H67.6742C67.1989 103.792 66.8774 103.855 66.542 103.941C66.2904 104.165 65.9269 104.289 65.6614 104.488C65.4253 104.646 65.2457 104.862 65.1442 105.108C64.9065 105.319 64.7528 105.642 64.5291 105.804C64.4313 106.164 64.2356 106.151 64.0958 106.424C64.5152 106.449 64.8367 106.499 65.0603 106.735C65.4237 106.896 64.7528 106.573 64.613 106.424C64.3334 106.35 64.2636 106.275 63.8302 106.275C63.4389 106.151 63.1872 106.362 62.7819 106.424C62.5443 106.548 62.4744 106.586 62.1669 106.586" stroke="#EF2D28" stroke-width="0.237111"/>
<path d="M65.7617 108.189C65.58 108.189 64.7693 108.326 64.4478 108.189C64.0844 108.102 63.8887 107.941 63.665 107.643C63.5532 107.432 63.665 108.015 63.665 108.264C63.6231 108.723 63.4693 108.723 63.2177 109.033C62.9661 109.182 62.7005 109.381 62.435 109.505C62.202 109.674 61.9369 109.804 61.6522 109.89C61.354 109.997 61.0931 110.126 60.8694 110.275C60.5759 110.461 60.5899 110.684 60.4221 110.982C60.4641 111.355 60.5339 111.578 60.7716 111.752C60.8834 112.013 61.107 112.273 61.3027 112.447C61.5124 112.819 61.764 112.981 61.2189 113.068C60.9114 113.192 60.7436 113.093 60.4221 113.068" stroke="#EF2D28" stroke-width="0.237111"/>
<path d="M60.2207 113.599C59.9971 113.549 59.2422 113.326 58.9068 113.214H57.6767C57.2154 113.251 57.1176 113.375 56.7262 113.524C56.4606 113.76 56.2929 113.922 55.9295 114.071C55.7477 114.282 55.3703 114.654 55.2306 114.927C55.1166 115.248 55.06 115.584 55.0628 115.92C55.0628 116.38 55.2026 116.467 55.2306 116.864C55.3271 117.206 55.5086 117.524 55.7617 117.795C55.7897 117.878 55.8456 117.927 55.9295 117.944" stroke="#EF2D28" stroke-width="0.237111"/>
<path d="M56.0977 118.956C56.058 118.956 55.9786 119.152 55.8496 119.318C55.5618 119.612 55.532 119.632 55.1053 119.632C54.7083 119.612 54.7579 119.475 54.48 119.387C54.351 119.191 54.1922 119.034 54.0434 118.77C53.9441 118.613 53.8548 118.368 53.7457 118.221C53.6266 118.035 53.4876 117.897 53.3686 117.731C53.2495 117.682 53.2098 117.633 53.051 117.604C53.4083 117.662 53.4479 117.79 53.6762 117.976L53.9838 118.525C54.0235 118.789 54.1029 118.995 54.1129 119.318C54.1129 119.661 54.1129 119.896 53.9838 120.181C53.835 120.328 53.7357 120.484 53.5472 120.612C53.3905 120.762 53.2476 120.926 53.1205 121.102L52.5548 121.464C52.3762 121.572 52.1678 121.68 51.88 121.709C51.5128 121.68 51.4036 121.582 51.1357 121.464C50.8975 121.298 50.7188 121.19 50.5104 121.033C50.3394 120.894 50.192 120.728 50.0738 120.543C49.7463 120.465 49.528 120.494 49.3295 120.671C49.1619 120.787 49.0173 120.934 48.9028 121.102C48.8035 121.151 48.6249 121.298 48.5256 121.347" stroke="#EF2D28" stroke-width="0.22681"/>
<path d="M49.2416 121.547C49.3403 121.583 49.7105 121.84 49.8585 121.926C49.9572 122.256 50.1176 122.427 50.167 122.782C50.241 123.108 50.2698 123.463 50.2533 123.846C50.167 124.237 50.0066 124.518 49.8585 124.824C49.6118 124.995 49.4884 125.118 49.1676 125.289C48.8715 125.346 48.5383 125.374 48.1682 125.374C47.9214 125.448 47.4773 125.484 47.2429 125.374C46.8974 125.325 46.6383 125.191 46.3915 125.069C46.1078 124.91 45.935 124.751 45.6266 124.604C45.4538 124.392 45.2482 124.164 45.0097 123.919C44.8123 123.662 44.6765 123.516 44.5408 123.234C44.6807 123.544 44.8082 123.85 44.9233 124.151C45.1084 124.469 45.2071 124.592 45.2318 124.983C45.3551 125.301 45.3181 125.692 45.3181 126.059C45.2811 126.304 45.2688 126.768 45.1577 126.976V127.209" stroke="#EF2D28" stroke-width="0.233384"/>
<path d="M37.8625 128.41V128.534C37.836 128.227 37.8823 128.375 38.0014 128.978C38.2197 129.226 38.7953 129.297 39.232 129.191C39.6289 128.889 39.629 128.659 40.3435 128.534C41.058 128.57 41.3359 128.747 41.7328 128.978C42.1506 129.125 42.5005 129.394 42.7252 129.741C42.8642 130.114 42.9436 130.38 42.4672 130.522C42.0531 130.771 41.5753 130.924 41.0779 130.965C40.5221 130.965 40.1053 130.912 39.8473 131.196C39.4503 131.551 39.49 131.764 39.49 132.403C39.3511 132.598 39.3312 133.183 39.232 133.414C38.889 133.572 38.5055 133.645 38.1205 133.627C37.9816 133.272 37.8426 132.669 37.7434 132.296C37.6441 131.906 37.6243 131.338 37.3663 131.072C37.1373 130.767 36.8481 130.503 36.5128 130.291C36.3121 130.088 36.0503 129.94 35.7586 129.865C36.2548 130.078 36.3143 130.327 36.3739 130.859C35.9571 131.036 35.838 131.178 35.1433 131.196C34.4486 131.143 34.2898 130.983 34.0318 130.628C33.9723 131.196 33.7738 131.373 33.6349 131.87C33.3967 132.19 33.2974 132.527 33.0394 132.97C33.1387 133.503 33.3768 133.521 33.3967 134.177C33.5555 134.621 33.5555 135.029 33.8929 135.295C34.0517 135.472 34.1708 135.49 34.528 135.508C33.8135 135.508 33.3768 135.437 32.9005 135.188L31.9081 134.514C31.4601 134.213 30.9562 133.985 30.4195 133.84C29.8439 133.84 29.4271 133.787 29.1889 134.071C28.8449 134.307 28.5935 134.68 28.4347 135.188C28.3354 135.756 28.2759 136.147 28.5736 136.519C28.7721 136.945 28.8316 137.105 28.5736 137.619C28.2759 137.974 27.8591 138.027 27.1843 138.169C26.7079 138.146 26.2977 138.075 25.9537 137.957" stroke="#EF2D28" stroke-width="0.225198"/>
<path fill-rule="evenodd" clip-rule="evenodd" d="M104.657 70.3784C119.792 44.1798 129.831 21.8552 127.094 20.5915C124.329 19.3147 109.804 39.5679 94.6683 65.7664L104.657 70.3784Z" fill="white" stroke="#EF2D28" stroke-width="0.310154"/>
<path fill-rule="evenodd" clip-rule="evenodd" d="M103.658 69.9355C118.26 44.6615 128.315 23.2963 126.126 22.2853C123.913 21.2639 110.269 40.9718 95.6671 66.2459" fill="white"/>
<path d="M103.658 69.9355C118.26 44.6615 128.315 23.2963 126.126 22.2853C123.913 21.2639 110.269 40.9718 95.6671 66.2459" stroke="#EF2D28" stroke-width="0.272474"/>
<path fill-rule="evenodd" clip-rule="evenodd" d="M101.149 56.7508C99.3712 59.7044 97.4877 63.0885 95.666 66.2416L103.679 69.9416C105.501 66.7885 107.497 63.4565 109.162 60.4508L101.149 56.7508Z" fill="white" stroke="#EF2D28" stroke-width="0.30924"/>
<path fill-rule="evenodd" clip-rule="evenodd" d="M101.847 57.7716C100.06 60.741 98.8319 62.9899 97.0012 66.1588L102.983 68.9208C104.805 65.7677 106.163 63.5393 107.828 60.5336L101.847 57.7716Z" fill="white" stroke="#EF2D28" stroke-width="0.30924"/>
<path fill-rule="evenodd" clip-rule="evenodd" d="M106.193 61.1969L102.187 59.3469L98.6345 65.4954L102.641 67.3454L106.193 61.1969ZM106.193 61.1969L98.6345 65.4954L106.193 61.1969ZM102.641 67.3454L102.187 59.3469L102.641 67.3454ZM124.264 29.9185L120.257 28.0685L124.264 29.9185Z" fill="white"/>
<path d="M106.193 61.1969L102.187 59.3469M106.193 61.1969L102.641 67.3454M106.193 61.1969L98.6345 65.4954M102.187 59.3469L98.6345 65.4954M102.187 59.3469L102.641 67.3454M98.6345 65.4954L102.641 67.3454M124.264 29.9185L120.257 28.0685" stroke="#EF2D28" stroke-width="0.30924"/>
<path d="M124.24 27.0095C123.624 27.1651 123.013 26.8524 122.874 26.3109C122.735 25.7694 123.121 25.2043 123.737 25.0486C124.353 24.893 124.964 25.2058 125.103 25.7473C125.242 26.2888 124.856 26.8539 124.24 27.0095Z" fill="#EF0000" stroke="#EF2D28" stroke-width="0.400692"/>
<path fill-rule="evenodd" clip-rule="evenodd" d="M98.7236 99.9587C132.853 133.431 147.413 137.659 140.568 140.361C133.723 143.063 111.751 125.784 88.8915 102.853C66.0323 79.9226 52.0301 59.4979 58.8751 56.7963C65.72 54.0946 62.4132 64.3883 98.7236 99.9587Z" fill="white" stroke="#EF2D28" stroke-width="0.4083"/>
<path fill-rule="evenodd" clip-rule="evenodd" d="M127.41 124.314L115.441 127.455C126.695 138.155 139.358 142.538 142.871 140.657C146.384 138.776 136.54 134.375 127.39 124.332L127.41 124.314Z" fill="white" stroke="#EF2D28" stroke-width="0.225198"/>
<path fill-rule="evenodd" clip-rule="evenodd" d="M127.415 125.461L117.555 127.969C128.517 138.257 139.363 141.175 142.167 139.912C144.99 138.667 136.309 135.135 127.415 125.461Z" fill="white" stroke="#EF2D28" stroke-width="0.236113"/>
<path d="M90.7559 98.4297C90.7838 98.5911 90.8677 99.3111 90.9376 99.5966C90.9376 99.9938 90.9795 100.292 91.0214 100.602C91.1333 100.875 91.1193 101.124 91.4548 101.223C91.6106 101.47 91.8573 101.663 92.1537 101.769C92.4226 101.96 92.7186 102.119 93.0343 102.241C93.3657 102.365 93.7332 102.391 94.0826 102.315L94.8654 101.769C94.9213 101.521 94.9772 101.161 95.0471 100.912C94.9385 101.244 94.8775 101.586 94.8654 101.93C94.8933 102.303 95.0471 102.477 95.2148 102.775" stroke="#EF2D28" stroke-width="0.237111"/>
<path d="M93.9306 103.626L94.0145 103.552C93.8048 103.738 93.8887 103.651 94.3639 103.39C94.6901 103.258 95.0675 103.159 95.4961 103.093H96.7262C97.2015 103.093 97.523 103.155 97.8584 103.241C98.11 103.465 98.4735 103.589 98.739 103.788C98.9751 103.946 99.1547 104.162 99.2562 104.408C99.4938 104.619 99.6476 104.942 99.8713 105.104C99.9691 105.464 100.165 105.451 100.305 105.724C99.8852 105.749 99.5637 105.799 99.3401 106.035C98.9767 106.196 99.6476 105.873 99.7874 105.724C100.067 105.65 100.137 105.575 100.57 105.575C100.962 105.451 101.213 105.662 101.619 105.724C101.856 105.848 101.926 105.886 102.234 105.886" stroke="#EF2D28" stroke-width="0.237111"/>
<path d="M98.6367 107.589C98.8184 107.589 99.6292 107.726 99.9506 107.589C100.314 107.502 100.51 107.341 100.733 107.043C100.845 106.832 100.733 107.415 100.733 107.664C100.775 108.123 100.929 108.123 101.181 108.433C101.432 108.582 101.698 108.781 101.963 108.905C102.196 109.074 102.462 109.204 102.746 109.29C103.044 109.397 103.305 109.526 103.529 109.675C103.823 109.861 103.809 110.084 103.976 110.382C103.934 110.755 103.864 110.978 103.627 111.152C103.515 111.413 103.291 111.673 103.096 111.847C102.886 112.22 102.634 112.381 103.18 112.468C103.487 112.592 103.655 112.493 103.976 112.468" stroke="#EF2D28" stroke-width="0.237111"/>
<path d="M104.178 112.999C104.401 112.949 105.156 112.726 105.492 112.614H106.722C107.183 112.651 107.281 112.775 107.672 112.924C107.938 113.16 108.106 113.322 108.469 113.471C108.651 113.682 109.028 114.054 109.168 114.327C109.282 114.648 109.338 114.983 109.336 115.32C109.336 115.78 109.196 115.866 109.168 116.264C109.071 116.605 108.89 116.924 108.637 117.195C108.609 117.278 108.553 117.327 108.469 117.344" stroke="#EF2D28" stroke-width="0.237111"/>
<path d="M108.4 118.356C108.44 118.356 108.519 118.552 108.648 118.718C108.936 119.012 108.966 119.032 109.393 119.032C109.79 119.012 109.74 118.875 110.018 118.787C110.147 118.591 110.306 118.434 110.455 118.17C110.554 118.013 110.643 117.768 110.752 117.621C110.871 117.435 111.01 117.298 111.129 117.131C111.249 117.082 111.288 117.033 111.447 117.004C111.09 117.062 111.05 117.19 110.822 117.376L110.514 117.925C110.475 118.189 110.395 118.395 110.385 118.718C110.385 119.061 110.385 119.297 110.514 119.581C110.663 119.728 110.762 119.885 110.951 120.012C111.108 120.162 111.25 120.326 111.378 120.502L111.943 120.864C112.122 120.972 112.33 121.08 112.618 121.109C112.985 121.08 113.094 120.982 113.362 120.864C113.601 120.698 113.779 120.59 113.988 120.433C114.159 120.294 114.306 120.129 114.424 119.943C114.752 119.865 114.97 119.894 115.169 120.071C115.336 120.188 115.481 120.334 115.595 120.502C115.695 120.551 115.873 120.698 115.972 120.747" stroke="#EF2D28" stroke-width="0.22681"/>
<path d="M115.159 120.847C115.06 120.883 114.69 121.14 114.542 121.226C114.443 121.556 114.283 121.727 114.233 122.082C114.159 122.408 114.131 122.763 114.147 123.146C114.233 123.537 114.394 123.818 114.542 124.124C114.789 124.295 114.912 124.418 115.233 124.589C115.529 124.646 115.862 124.674 116.232 124.674C116.479 124.748 116.923 124.784 117.158 124.674C117.503 124.625 117.762 124.491 118.009 124.369C118.293 124.21 118.465 124.051 118.774 123.904C118.947 123.692 119.152 123.464 119.391 123.219C119.588 122.962 119.724 122.816 119.86 122.534C119.72 122.844 119.592 123.15 119.477 123.451C119.292 123.769 119.193 123.892 119.169 124.283C119.045 124.601 119.082 124.992 119.082 125.359C119.119 125.604 119.132 126.068 119.243 126.276V126.509" stroke="#EF2D28" stroke-width="0.233384"/>
<path d="M126.536 127.81V127.934C126.562 127.627 126.516 127.775 126.397 128.378C126.179 128.626 125.603 128.697 125.166 128.591C124.769 128.289 124.769 128.059 124.055 127.934C123.34 127.97 123.063 128.147 122.666 128.378C122.248 128.525 121.898 128.794 121.673 129.141C121.534 129.514 121.455 129.78 121.931 129.922C122.345 130.171 122.823 130.324 123.321 130.365C123.876 130.365 124.293 130.312 124.551 130.596C124.948 130.951 124.908 131.164 124.908 131.803C125.047 131.998 125.067 132.583 125.166 132.814C125.509 132.971 125.893 133.045 126.278 133.027C126.417 132.672 126.556 132.069 126.655 131.696C126.754 131.306 126.774 130.738 127.032 130.472C127.261 130.167 127.55 129.903 127.886 129.691C128.086 129.488 128.348 129.34 128.64 129.265C128.144 129.478 128.084 129.726 128.025 130.259C128.441 130.436 128.56 130.578 129.255 130.596C129.95 130.543 130.109 130.383 130.367 130.028C130.426 130.596 130.625 130.773 130.764 131.27C131.002 131.59 131.101 131.927 131.359 132.37C131.26 132.903 131.022 132.92 131.002 133.577C130.843 134.021 130.843 134.429 130.506 134.695C130.347 134.872 130.228 134.89 129.87 134.908C130.585 134.908 131.022 134.837 131.498 134.588L132.49 133.914C132.938 133.613 133.442 133.384 133.979 133.24C134.555 133.24 134.971 133.187 135.21 133.47C135.554 133.707 135.805 134.08 135.964 134.588C136.063 135.156 136.123 135.547 135.825 135.919C135.626 136.345 135.567 136.505 135.825 137.019C136.123 137.374 136.539 137.427 137.214 137.569C137.691 137.546 138.101 137.475 138.445 137.356" stroke="#EF2D28" stroke-width="0.225198"/>
<path fill-rule="evenodd" clip-rule="evenodd" d="M59.7436 69.7783C44.608 43.5797 34.5698 21.2551 37.3067 19.9914C40.0719 18.7146 54.5964 38.9678 69.7321 65.1663L59.7436 69.7783Z" fill="white" stroke="#EF2D28" stroke-width="0.310154"/>
<path fill-rule="evenodd" clip-rule="evenodd" d="M60.7424 69.3354C46.1408 44.0614 36.0852 22.6962 38.2747 21.6852C40.4869 20.6638 54.1317 40.3717 68.7333 65.6458" fill="white"/>
<path d="M60.7424 69.3354C46.1408 44.0614 36.0852 22.6962 38.2747 21.6852C40.4869 20.6638 54.1317 40.3717 68.7333 65.6458" stroke="#EF2D28" stroke-width="0.272474"/>
<path fill-rule="evenodd" clip-rule="evenodd" d="M63.2513 56.1507C65.0292 59.1043 66.9127 62.4884 68.7343 65.6415L60.721 69.3415C58.8994 66.1884 56.903 62.8564 55.238 59.8507L63.2513 56.1507Z" fill="white" stroke="#EF2D28" stroke-width="0.30924"/>
<path fill-rule="evenodd" clip-rule="evenodd" d="M62.5537 57.1715C64.3407 60.1409 65.5685 62.3898 67.3992 65.5587L61.4174 68.3207C59.5958 65.1676 58.2369 62.9392 56.572 59.9335L62.5537 57.1715Z" fill="white" stroke="#EF2D28" stroke-width="0.30924"/>
<path fill-rule="evenodd" clip-rule="evenodd" d="M58.2071 60.5968L62.2138 58.7468L65.7659 64.8953L61.7592 66.7453L58.2071 60.5968ZM58.2071 60.5968L65.7659 64.8953L58.2071 60.5968ZM61.7592 66.7453L62.2138 58.7468L61.7592 66.7453ZM40.1367 29.3184L44.1434 27.4684L40.1367 29.3184Z" fill="white"/>
<path d="M58.2071 60.5968L62.2137 58.7468M58.2071 60.5968L61.7592 66.7453M58.2071 60.5968L65.7659 64.8953M62.2137 58.7468L65.7659 64.8953M62.2137 58.7468L61.7592 66.7453M65.7659 64.8953L61.7592 66.7453M40.1367 29.3184L44.1434 27.4684" stroke="#EF2D28" stroke-width="0.30924"/>
<path d="M40.1604 26.4094C40.776 26.565 41.3877 26.2523 41.5266 25.7108C41.6656 25.1693 41.2791 24.6042 40.6635 24.4485C40.0479 24.2929 39.4362 24.6057 39.2972 25.1472C39.1583 25.6887 39.5447 26.2538 40.1604 26.4094Z" fill="#EF0000" stroke="#EF2D28" stroke-width="0.400692"/>
<path fill-rule="evenodd" clip-rule="evenodd" d="M71.8467 56.426C71.8467 78.4286 71.979 86.715 70.3648 87.8507C68.8299 89.075 26.1445 87.8507 26.1445 94.132C26.1445 100.413 61.2878 106.73 71.8467 106.73C85.9252 106.73 92.9556 100.437 92.938 87.8507V56.4438H71.8467V56.426Z" fill="white" stroke="#EF2D28" stroke-width="0.281703"/>
<path fill-rule="evenodd" clip-rule="evenodd" d="M71.8555 62.7068V65.8474C78.8329 66.8937 85.9566 66.8937 92.934 65.8474V62.7068C85.9566 63.7531 78.8329 63.7531 71.8555 62.7068Z" fill="white" stroke="#EF2D28" stroke-width="0.243965"/>
<path fill-rule="evenodd" clip-rule="evenodd" d="M71.8555 56.4253V59.566C78.8329 60.6122 85.9566 60.6122 92.934 59.566V56.4253C85.9566 57.4716 78.8329 57.4716 71.8555 56.4253Z" fill="white" stroke="#EF2D28" stroke-width="0.243965"/>
<path fill-rule="evenodd" clip-rule="evenodd" d="M71.8555 59.5659V62.7066C78.8329 63.7528 85.9566 63.7528 92.934 62.7066V59.5659C85.9566 60.6122 78.8329 60.6122 71.8555 59.5659Z" fill="white" stroke="#EF2D28" stroke-width="0.243965"/>
<path fill-rule="evenodd" clip-rule="evenodd" d="M71.8555 65.8474V68.9881C78.8329 70.0343 85.9566 70.0343 92.934 68.9881V65.8474C85.9566 66.8937 78.8329 66.8937 71.8555 65.8474Z" fill="white" stroke="#EF2D28" stroke-width="0.243965"/>
<path d="M72.8131 62.0235C73.3453 62.0235 73.7767 61.7196 73.7767 61.3446C73.7767 60.9697 73.3453 60.6658 72.8131 60.6658C72.281 60.6658 71.8496 60.9697 71.8496 61.3446C71.8496 61.7196 72.281 62.0235 72.8131 62.0235Z" fill="white" stroke="#EF2D28" stroke-width="0.231281"/>
<path d="M76.6452 62.3616C77.1773 62.3616 77.6087 62.0577 77.6087 61.6828C77.6087 61.3078 77.1773 61.0039 76.6452 61.0039C76.113 61.0039 75.6816 61.3078 75.6816 61.6828C75.6816 62.0577 76.113 62.3616 76.6452 62.3616Z" fill="white" stroke="#EF2D28" stroke-width="0.231281"/>
<path d="M80.4889 62.7068C81.0211 62.7068 81.4524 62.4029 81.4524 62.028C81.4524 61.6531 81.0211 61.3491 80.4889 61.3491C79.9568 61.3491 79.5254 61.6531 79.5254 62.028C79.5254 62.4029 79.9568 62.7068 80.4889 62.7068Z" fill="white" stroke="#EF2D28" stroke-width="0.231281"/>
<path d="M84.3209 62.7068C84.8531 62.7068 85.2845 62.4029 85.2845 62.028C85.2845 61.6531 84.8531 61.3491 84.3209 61.3491C83.7888 61.3491 83.3574 61.6531 83.3574 62.028C83.3574 62.4029 83.7888 62.7068 84.3209 62.7068Z" fill="white" stroke="#EF2D28" stroke-width="0.231281"/>
<path d="M88.153 62.3616C88.6851 62.3616 89.1165 62.0577 89.1165 61.6828C89.1165 61.3078 88.6851 61.0039 88.153 61.0039C87.6208 61.0039 87.1895 61.3078 87.1895 61.6828C87.1895 62.0577 87.6208 62.3616 88.153 62.3616Z" fill="white" stroke="#EF2D28" stroke-width="0.231281"/>
<path d="M91.9967 62.0235C92.5289 62.0235 92.9602 61.7196 92.9602 61.3446C92.9602 60.9697 92.5289 60.6658 91.9967 60.6658C91.4646 60.6658 91.0332 60.9697 91.0332 61.3446C91.0332 61.7196 91.4646 62.0235 91.9967 62.0235Z" fill="white" stroke="#EF2D28" stroke-width="0.231281"/>
<path fill-rule="evenodd" clip-rule="evenodd" d="M71.8545 72.1294L92.9331 89.1104L71.8545 72.1294ZM73.9584 72.1294L92.9529 87.2118L73.9584 72.1294ZM76.757 72.7682L92.9529 85.3487L76.757 72.7682ZM78.8609 72.7504L92.9529 83.4501L78.8609 72.7504ZM80.9846 72.7682L92.9331 81.5692L80.9846 72.7682ZM83.0885 72.7682L92.9331 79.6883L83.0885 72.7682ZM85.1924 72.7682L92.9331 77.7897L85.1924 72.7682ZM87.336 72.7682L92.9728 76.5299L87.336 72.7682ZM89.42 72.7682L92.9529 75.2878L89.42 72.7682ZM91.5437 72.7682L92.9331 74.0103L91.5437 72.7682ZM71.8545 74.0103L92.9331 91.009L71.8545 74.0103ZM92.9331 72.1471L69.7109 90.9913L92.9331 72.1471ZM90.8094 72.1294L70.4255 88.4894L90.8094 72.1294ZM88.0108 72.7682L71.8347 85.3309L88.0108 72.7682ZM85.8871 72.7682L71.8347 83.4501L85.8871 72.7682ZM83.803 72.7682L71.8545 81.5692L83.803 72.7682ZM81.6991 72.7682L71.8545 79.6883L81.6991 72.7682ZM79.5952 72.7682L71.8545 77.7897L79.5952 72.7682ZM77.4517 72.7682L71.8347 76.5299L77.4517 72.7682ZM75.3478 72.7682L71.8347 75.2878L75.3478 72.7682ZM73.224 72.7682L71.8347 74.0103L73.224 72.7682ZM92.9331 74.0103L69.7109 92.9076L92.9331 74.0103ZM92.9331 75.9266L69.7109 94.7707L92.9331 75.9266ZM92.9331 77.7897L69.7109 96.6516L92.9331 77.7897ZM92.9331 79.6706L69.7109 98.568L92.9331 79.6706ZM92.9331 81.5869L69.7109 100.431L92.9331 81.5869ZM92.9331 83.4501L69.7109 102.312L92.9331 83.4501ZM92.9331 85.3309L69.7109 104.193L92.9331 85.3309ZM92.9331 87.2295L69.7109 106.091L92.9331 87.2295ZM92.9331 89.1104L71.1201 106.712L92.9331 89.1104ZM92.9331 90.9913L73.2439 106.712L92.9331 90.9913ZM92.2186 93.5109L76.7371 106.091L92.2186 93.5109ZM91.5437 96.0128L78.8807 106.074L91.5437 96.0128ZM90.1345 99.1535L83.7832 104.175L90.1345 99.1535ZM71.8545 75.8911L92.2384 92.2333L71.8545 75.8911ZM71.8545 77.772L92.2384 94.132L71.8545 77.772ZM71.8545 79.6883L91.5437 95.3918L71.8545 79.6883ZM71.8545 81.5515L91.5437 97.2904L71.8545 81.5515ZM71.8545 83.4501L90.8292 98.5325L71.8545 83.4501ZM71.14 84.7099L90.1345 99.7923L71.14 84.7099ZM71.14 86.6085L88.7253 100.449L71.14 86.6085ZM70.4453 87.8506L88.0306 101.691L70.4453 87.8506ZM69.7109 89.0927L86.5817 102.294L69.7109 89.0927ZM69.7109 90.9735L85.8871 103.554L69.7109 90.9735ZM69.7109 92.8721L83.803 104.175L69.7109 92.8721Z" fill="white"/>
<path d="M71.8545 72.1294L92.9331 89.1104L71.1201 106.712M73.9584 72.1294L92.9529 87.2118M76.757 72.7682L92.9529 85.3487M78.8609 72.7504L92.9529 83.4501M80.9846 72.7682L92.9331 81.5692M83.0885 72.7682L92.9331 79.6883M85.1924 72.7682L92.9331 77.7897L69.7109 96.6516M87.336 72.7682L92.9728 76.5299M89.42 72.7682L92.9529 75.2878M91.5437 72.7682L92.9331 74.0103L69.7109 92.9076M71.8545 74.0103L92.9331 91.009M92.9331 72.1471L69.7109 90.9913M90.8094 72.1294L70.4255 88.4894M88.0108 72.7682L71.8347 85.3309M85.8871 72.7682L71.8347 83.4501M83.803 72.7682L71.8545 81.5692M81.6991 72.7682L71.8545 79.6883L91.5437 95.3918M79.5952 72.7682L71.8545 77.7897M77.4517 72.7682L71.8347 76.5299M75.3478 72.7682L71.8347 75.2878M73.224 72.7682L71.8347 74.0103M92.9331 75.9266L69.7109 94.7707M92.9331 79.6706L69.7109 98.568M92.9331 81.5869L69.7109 100.431M92.9331 83.4501L69.7109 102.312M92.9331 85.3309L69.7109 104.193M92.9331 87.2295L69.7109 106.091M92.9331 90.9913L73.2439 106.712M92.2186 93.5109L76.7371 106.091M91.5437 96.0128L78.8807 106.074M90.1345 99.1535L83.7832 104.175M71.8545 75.8911L92.2384 92.2333M71.8545 77.772L92.2384 94.132M71.8545 81.5515L91.5437 97.2904M71.8545 83.4501L90.8292 98.5325M71.14 84.7099L90.1345 99.7923M71.14 86.6085L88.7253 100.449M70.4453 87.8506L88.0306 101.691M69.7109 89.0927L86.5817 102.294M69.7109 90.9735L85.8871 103.554M69.7109 92.8721L83.803 104.175" stroke="#EF2D28" stroke-width="0.243965"/>
<path fill-rule="evenodd" clip-rule="evenodd" d="M71.8555 69.0059V72.1465C78.8329 73.1928 85.9566 73.1928 92.934 72.1465V69.0059C85.9566 70.0521 78.8329 70.0521 71.8555 69.0059Z" fill="white" stroke="#EF2D28" stroke-width="0.243965"/>
<path fill-rule="evenodd" clip-rule="evenodd" d="M69.7308 94.7708L82.3938 104.832L69.7308 94.7708ZM69.7308 96.6694L80.9846 105.453L69.7308 96.6694ZM69.7308 98.5325L79.5754 106.091L69.7308 98.5325ZM69.7308 100.413L76.7768 106.091L69.7308 100.413ZM69.7109 102.312L75.3478 106.712L69.7109 102.312ZM69.7109 104.193L73.224 106.712L69.7109 104.193Z" fill="white"/>
<path d="M69.7308 94.7708L82.3938 104.832M69.7308 96.6694L80.9846 105.453M69.7308 98.5325L79.5754 106.091M69.7308 100.413L76.7768 106.091M69.7109 102.312L75.3478 106.712M69.7109 104.193L73.224 106.712" stroke="#EF2D28" stroke-width="0.243965"/>
<path d="M72.8131 71.4632C73.3453 71.4632 73.7767 71.1593 73.7767 70.7843C73.7767 70.4094 73.3453 70.1055 72.8131 70.1055C72.281 70.1055 71.8496 70.4094 71.8496 70.7843C71.8496 71.1593 72.281 71.4632 72.8131 71.4632Z" fill="white" stroke="#EF2D28" stroke-width="0.231281"/>
<path d="M76.6452 71.8013C77.1773 71.8013 77.6087 71.4974 77.6087 71.1225C77.6087 70.7475 77.1773 70.4436 76.6452 70.4436C76.113 70.4436 75.6816 70.7475 75.6816 71.1225C75.6816 71.4974 76.113 71.8013 76.6452 71.8013Z" fill="white" stroke="#EF2D28" stroke-width="0.231281"/>
<path d="M80.4889 72.129C81.0211 72.129 81.4524 71.825 81.4524 71.4501C81.4524 71.0752 81.0211 70.7712 80.4889 70.7712C79.9568 70.7712 79.5254 71.0752 79.5254 71.4501C79.5254 71.825 79.9568 72.129 80.4889 72.129Z" fill="white" stroke="#EF2D28" stroke-width="0.231281"/>
<path d="M84.3209 72.129C84.8531 72.129 85.2845 71.825 85.2845 71.4501C85.2845 71.0752 84.8531 70.7712 84.3209 70.7712C83.7888 70.7712 83.3574 71.0752 83.3574 71.4501C83.3574 71.825 83.7888 72.129 84.3209 72.129Z" fill="white" stroke="#EF2D28" stroke-width="0.231281"/>
<path d="M88.153 71.8013C88.6851 71.8013 89.1165 71.4974 89.1165 71.1225C89.1165 70.7475 88.6851 70.4436 88.153 70.4436C87.6208 70.4436 87.1895 70.7475 87.1895 71.1225C87.1895 71.4974 87.6208 71.8013 88.153 71.8013Z" fill="white" stroke="#EF2D28" stroke-width="0.231281"/>
<path d="M91.9967 71.4632C92.5289 71.4632 92.9602 71.1593 92.9602 70.7843C92.9602 70.4094 92.5289 70.1055 91.9967 70.1055C91.4646 70.1055 91.0332 70.4094 91.0332 70.7843C91.0332 71.1593 91.4646 71.4632 91.9967 71.4632Z" fill="white" stroke="#EF2D28" stroke-width="0.231281"/>
<path fill-rule="evenodd" clip-rule="evenodd" d="M41.6068 101.691L66.913 88.4895L41.6068 101.691ZM40.1976 101.052L64.1145 88.4895L40.1976 101.052ZM39.503 99.7924L61.2961 88.4895L39.503 99.7924ZM38.7884 98.5504L57.783 88.4895L38.7884 98.5504ZM37.3594 97.2905L54.9447 88.4895L37.3594 97.2905ZM38.0739 95.4097L50.0224 89.1105L38.0739 95.4097ZM37.3594 94.1321L46.4895 89.1105L37.3594 94.1321ZM37.3594 92.2512L43.7107 89.1105L37.3594 92.2512ZM43.7107 102.312L67.6077 89.7316L43.7107 102.312ZM45.8345 102.933L68.3223 90.9914L45.8345 102.933ZM47.9384 103.572L69.0368 92.2512L47.9384 103.572ZM50.0422 104.193L67.6276 94.7709L50.0422 104.193ZM52.8408 104.193L68.3223 96.0307L52.8408 104.193ZM54.9447 104.832L68.3024 97.9116L54.9447 104.832ZM57.0486 105.453L67.6077 99.7924L57.0486 105.453ZM59.867 105.471L68.3024 101.052L59.867 105.471ZM62.6854 106.092L68.3223 102.933L62.6854 106.092ZM65.5435 106.092L69.0566 104.211L65.5435 106.092Z" fill="white"/>
<path d="M41.6068 101.691L66.913 88.4895M40.1976 101.052L64.1145 88.4895M39.503 99.7924L61.2961 88.4895M38.7884 98.5504L57.783 88.4895M37.3594 97.2905L54.9447 88.4895M38.0739 95.4097L50.0224 89.1105M37.3594 94.1321L46.4895 89.1105M37.3594 92.2512L43.7107 89.1105M43.7107 102.312L67.6077 89.7316M45.8345 102.933L68.3223 90.9914M47.9384 103.572L69.0368 92.2512M50.0422 104.193L67.6276 94.7709M52.8408 104.193L68.3223 96.0307M54.9447 104.832L68.3024 97.9116M57.0486 105.453L67.6077 99.7924M59.867 105.471L68.3024 101.052M62.6854 106.092L68.3223 102.933M65.5435 106.092L69.0566 104.211" stroke="#EF2D28" stroke-width="0.243965"/>
<path fill-rule="evenodd" clip-rule="evenodd" d="M70.4277 87.8684H66.9147C65.7443 94.1062 65.7443 100.475 66.9147 106.713H70.4277C69.2574 100.475 69.2574 94.1062 70.4277 87.8684Z" fill="white" stroke="#EF2D28" stroke-width="0.243965"/>
<path fill-rule="evenodd" clip-rule="evenodd" d="M28.9434 96.6517L37.3788 90.3704L28.9434 96.6517ZM28.9434 92.2512L37.3788 99.7924L28.9434 92.2512Z" fill="white"/>
<path d="M28.9434 96.6517L37.3788 90.3704M28.9434 92.2512L37.3788 99.7924" stroke="#EF2D28" stroke-width="0.243965"/>
<path fill-rule="evenodd" clip-rule="evenodd" d="M41.6074 89.0979L37.3838 89.7272C36.4469 93.7166 36.4469 97.0655 37.3838 101.055L41.6074 102.302C40.6706 98.3241 40.6706 93.0873 41.6074 89.0979Z" fill="white" stroke="#EF2D28" stroke-width="0.173655"/>
<path fill-rule="evenodd" clip-rule="evenodd" d="M92.936 57.6681V54.4919C89.754 54.5274 87.6426 52.6288 87.6426 50.7302L77.1152 50.748C77.1152 52.6288 75.0336 54.5274 71.8516 54.5274V57.6681H92.936Z" fill="white" stroke="#EF2D28" stroke-width="0.298625"/>
<path fill-rule="evenodd" clip-rule="evenodd" d="M77.8496 46.9861H86.9003V50.7656H77.8496V46.9861ZM78.6237 43.2067H86.1461V46.9861H78.6038L78.6237 43.2067ZM78.6237 39.4449H86.1461V43.2067H78.6038L78.6237 39.4449ZM79.3779 34.4056H85.3918V39.4449H79.3779V34.4056ZM79.1199 30.0051H85.6697V34.4056H79.1199V30.0051Z" fill="white"/>
<path d="M86.1461 43.2067H78.6237L78.6038 46.9861H86.1461V43.2067ZM86.1461 43.2067V39.4449H78.6237L78.6038 43.2067H86.1461ZM77.8496 46.9861H86.9003V50.7656H77.8496V46.9861ZM79.3779 34.4056H85.3918V39.4449H79.3779V34.4056ZM79.1199 30.0051H85.6697V34.4056H79.1199V30.0051Z" stroke="#EF2D28" stroke-width="0.262732"/>
<path d="M82.7339 31.9038C87.5478 31.9038 91.4502 29.2266 91.4502 25.9241C91.4502 22.6216 87.5478 19.9443 82.7339 19.9443C77.92 19.9443 74.0176 22.6216 74.0176 25.9241C74.0176 29.2266 77.92 31.9038 82.7339 31.9038Z" fill="white" stroke="#EF2D28" stroke-width="0.247994"/>
<path fill-rule="evenodd" clip-rule="evenodd" d="M87.1022 25.6047C87.1022 27.2549 89.2761 30.0053 89.2761 30.0053C87.6969 31.1054 85.1333 31.9039 82.7338 31.9039C80.3342 31.9039 77.3399 31.4425 76.1914 30.0053C76.1914 30.0053 78.3654 27.2727 78.3654 25.6225C78.3654 23.9723 76.1914 21.843 76.1914 21.843C78.0976 20.6372 80.393 19.9793 82.7543 19.9622C85.1333 19.9622 87.6764 20.7606 89.2761 21.843C89.2761 21.843 87.1022 23.9723 87.1022 25.6225V25.6047Z" fill="white" stroke="#EF2D28" stroke-width="0.247994"/>
<path fill-rule="evenodd" clip-rule="evenodd" d="M85.645 25.6047C85.645 27.2549 87.8189 30.644 87.8189 30.644C86.2397 31.7087 85.1528 31.8861 82.7327 31.8861C80.3126 31.8861 78.795 32.0813 77.6465 30.644C77.6465 30.644 79.8204 27.2727 79.8204 25.6047C79.8204 23.9368 77.6465 21.2042 77.6465 21.2042C79.2257 20.1396 80.3126 19.9622 82.7327 19.9622C85.1322 19.9622 86.2397 20.1396 87.8189 21.2042C87.8189 21.2042 85.645 23.9546 85.645 25.6047Z" fill="white" stroke="#EF2D28" stroke-width="0.247994"/>
<path d="M74.0177 28.1067C75.2183 28.1067 76.1916 27.2646 76.1916 26.2258C76.1916 25.1871 75.2183 24.345 74.0177 24.345C72.8171 24.345 71.8438 25.1871 71.8438 26.2258C71.8438 27.2646 72.8171 28.1067 74.0177 28.1067Z" fill="white" stroke="#EF2D28" stroke-width="0.247994"/>
<path d="M91.463 28.1067C92.6636 28.1067 93.637 27.2646 93.637 26.2258C93.637 25.1871 92.6636 24.345 91.463 24.345C90.2624 24.345 89.2891 25.1871 89.2891 26.2258C89.2891 27.2646 90.2624 28.1067 91.463 28.1067Z" fill="white" stroke="#EF2D28" stroke-width="0.247994"/>
<path d="M82.7501 28.1067C83.9508 28.1067 84.9241 27.2646 84.9241 26.2258C84.9241 25.1871 83.9508 24.345 82.7501 24.345C81.5495 24.345 80.5762 25.1871 80.5762 26.2258C80.5762 27.2646 81.5495 28.1067 82.7501 28.1067Z" fill="white" stroke="#EF2D28" stroke-width="0.247994"/>
<path d="M82.7501 21.8252C83.9508 21.8252 84.9241 20.9831 84.9241 19.9443C84.9241 18.9056 83.9508 18.0635 82.7501 18.0635C81.5495 18.0635 80.5762 18.9056 80.5762 19.9443C80.5762 20.9831 81.5495 21.8252 82.7501 21.8252Z" fill="white" stroke="#EF2D28" stroke-width="0.247994"/>
<path d="M76.3766 57.668C77.6201 57.668 78.6282 56.8259 78.6282 55.7871C78.6282 54.7483 77.6201 53.9062 76.3766 53.9062C75.1331 53.9062 74.125 54.7483 74.125 55.7871C74.125 56.8259 75.1331 57.668 76.3766 57.668Z" fill="white" stroke="#EF2D28" stroke-width="0.252383"/>
<path d="M88.4059 57.668C89.6494 57.668 90.6575 56.8259 90.6575 55.7871C90.6575 54.7483 89.6494 53.9062 88.4059 53.9062C87.1624 53.9062 86.1543 54.7483 86.1543 55.7871C86.1543 56.8259 87.1624 57.668 88.4059 57.668Z" fill="white" stroke="#EF2D28" stroke-width="0.252383"/>
<path fill-rule="evenodd" clip-rule="evenodd" d="M77.1191 50.748H87.6548L82.387 56.4084L77.1191 50.748Z" fill="white" stroke="#EF2D28" stroke-width="0.252383"/>
<path d="M82.3792 57.6552C84.0373 57.6552 85.3814 56.5324 85.3814 55.1474C85.3814 53.7624 84.0373 52.6396 82.3792 52.6396C80.7211 52.6396 79.377 53.7624 79.377 55.1474C79.377 56.5324 80.7211 57.6552 82.3792 57.6552Z" fill="white" stroke="#EF2D28" stroke-width="0.336514"/>
<path d="M86.1625 73.9497H71.6933C71.222 73.9497 70.8398 74.2436 70.8398 74.6062V77.0726C70.8398 77.4352 71.222 77.7292 71.6933 77.7292H86.1625C86.6339 77.7292 87.016 77.4352 87.016 77.0726V74.6062C87.016 74.2436 86.6339 73.9497 86.1625 73.9497Z" fill="white" stroke="#EF2D28" stroke-width="0.225198"/>
<path fill-rule="evenodd" clip-rule="evenodd" d="M91.939 70.809C89.9939 70.809 88.4259 72.2817 88.4259 74.0916V76.9484C88.4127 77.3708 88.4934 77.7913 88.6633 78.1856C88.8332 78.5799 89.089 78.9402 89.4157 79.2455C89.7425 79.5508 90.1338 79.7952 90.5669 79.9643C91 80.1335 91.4664 80.2241 91.939 80.231C92.4116 80.2241 92.878 80.1335 93.3111 79.9643C93.7443 79.7952 94.1356 79.5508 94.4623 79.2455C94.7891 78.9402 95.0448 78.5799 95.2147 78.1856C95.3846 77.7913 95.4653 77.3708 95.4521 76.9484V74.1093C95.468 73.6855 95.3893 73.263 95.2206 72.8667C95.0519 72.4703 94.7966 72.1079 94.4696 71.8007C94.1425 71.4935 93.7503 71.2475 93.3159 71.0773C92.8814 70.907 92.4133 70.8158 91.939 70.809ZM91.939 72.051C90.768 72.051 89.8351 73.2399 89.8351 74.6949V76.3451C89.8351 77.8001 90.768 78.9712 91.939 78.9712C93.1101 78.9712 94.0429 77.8001 94.0429 76.3451V74.6949C94.0429 73.2399 93.1101 72.0688 91.939 72.0688V72.051ZM73.659 71.43C72.4681 71.43 71.5551 72.6011 71.5551 74.0738V76.9839C71.5551 78.4389 72.488 79.61 73.659 79.61C74.83 79.61 75.7629 78.4389 75.7629 76.9839V74.0561C75.7629 72.5833 74.83 71.4122 73.659 71.4122V71.43ZM73.659 70.1879C73.1864 70.1948 72.72 70.2854 72.2869 70.4546C71.8538 70.6238 71.4625 70.8681 71.1357 71.1734C70.809 71.4787 70.5532 71.839 70.3833 72.2333C70.2134 72.6276 70.1327 73.0482 70.1459 73.4706V77.5872C70.1327 78.0096 70.2134 78.4301 70.3833 78.8244C70.5532 79.2187 70.809 79.579 71.1357 79.8843C71.4625 80.1896 71.8538 80.4339 72.2869 80.6031C72.72 80.7723 73.1864 80.8629 73.659 80.8698C75.6041 80.8698 77.1721 79.397 77.1721 77.5872V73.4706C77.188 73.0467 77.1093 72.6242 76.9406 72.2279C76.7719 71.8315 76.5166 71.4691 76.1896 71.1619C75.8625 70.8547 75.4703 70.6088 75.0359 70.4385C74.6014 70.2682 74.1333 70.177 73.659 70.1702V70.1879Z" fill="white" stroke="#EF2D28" stroke-width="0.225198"/>
<path fill-rule="evenodd" clip-rule="evenodd" d="M68.0223 72.6898C66.8513 72.6898 65.9184 73.8609 65.9184 75.3159V76.0079C65.9184 77.4629 66.8513 78.634 68.0223 78.634C69.2132 78.634 70.146 77.4629 70.146 76.0079V75.3159C70.146 73.8609 69.1933 72.6898 68.0223 72.6898ZM68.0223 71.4477C67.5497 71.4545 67.0833 71.5452 66.6502 71.7144C66.2171 71.8835 65.8258 72.1279 65.499 72.4332C65.1723 72.7385 64.9165 73.0988 64.7466 73.4931C64.5767 73.8874 64.496 74.3079 64.5092 74.7303V76.6112C64.496 77.0336 64.5767 77.4541 64.7466 77.8484C64.9165 78.2427 65.1723 78.603 65.499 78.9083C65.8258 79.2136 66.2171 79.458 66.6502 79.6271C67.0833 79.7963 67.5497 79.8869 68.0223 79.8938C69.9674 79.8938 71.5552 78.4211 71.5552 76.6112V74.7303C71.5711 74.305 71.4918 73.8811 71.3219 73.4836C71.1519 73.086 70.8949 72.7229 70.5657 72.4154C70.2366 72.1079 69.8421 71.8624 69.4053 71.6931C68.9685 71.5239 68.4983 71.4344 68.0223 71.4299V71.4477Z" fill="white" stroke="#EF2D28" stroke-width="0.225198"/>
<path fill-rule="evenodd" clip-rule="evenodd" d="M59.6109 70.9541C57.4674 70.9541 55.7882 72.2629 55.7882 73.8891V77.1611C55.7882 78.7674 57.5031 80.0961 59.6109 80.0961C61.7188 80.0961 63.3979 78.7872 63.3979 77.1413V73.8891C63.3979 72.2629 61.6831 70.9541 59.6109 70.9541ZM59.6109 69.566C58.7603 69.5711 57.92 69.6699 57.1386 69.8565C56.3572 70.0432 55.6503 70.3141 55.0588 70.6534C54.4674 70.9928 54.0031 71.3939 53.6929 71.8336C53.3827 72.2733 53.2327 72.7428 53.2516 73.2148V77.8155C53.2231 78.2892 53.3647 78.7614 53.6684 79.2044C53.9721 79.6474 54.4316 80.0523 55.0203 80.3957C55.6089 80.739 56.3148 81.0139 57.0969 81.2042C57.8789 81.3945 58.7214 81.4964 59.5752 81.5041C63.1121 81.5041 65.9345 79.8581 65.9345 77.8155V73.2148C65.9583 72.7428 65.813 72.2728 65.5072 71.8321C65.2014 71.3914 64.741 70.9888 64.1529 70.6475C63.5647 70.3063 62.8604 70.0333 62.0808 69.8442C61.3011 69.6551 60.4616 69.5538 59.6109 69.5461V69.566Z" fill="white" stroke="#EF2D28" stroke-width="0.239555"/>
<path fill-rule="evenodd" clip-rule="evenodd" d="M105.32 71.5752C103.176 71.5752 101.497 72.884 101.497 74.5102V77.7822C101.497 79.3885 103.212 80.7172 105.32 80.7172C107.428 80.7172 109.107 79.4083 109.107 77.7624V74.5102C109.107 72.884 107.392 71.5752 105.32 71.5752ZM105.32 70.1871C104.469 70.1922 103.629 70.291 102.848 70.4776C102.066 70.6643 101.359 70.9351 100.768 71.2745C100.176 71.6139 99.7121 72.015 99.4019 72.4547C99.0916 72.8944 98.9417 73.3638 98.9606 73.8359V78.4366C98.9321 78.9103 99.0737 79.3825 99.3774 79.8255C99.681 80.2684 100.141 80.6734 100.729 81.0168C101.318 81.3601 102.024 81.635 102.806 81.8253C103.588 82.0156 104.43 82.1175 105.284 82.1251C108.821 82.1251 111.644 80.4792 111.644 78.4366V73.8359C111.667 73.3638 111.522 72.8939 111.216 72.4532C110.91 72.0125 110.45 71.6099 109.862 71.2686C109.274 70.9274 108.569 70.6544 107.79 70.4653C107.01 70.2762 106.171 70.1749 105.32 70.1672V70.1871Z" fill="white" stroke="#EF2D28" stroke-width="0.239555"/>
<path d="M101.327 73.9497H93.8042C93.552 73.9497 93.3477 74.2436 93.3477 74.6062V77.0726C93.3477 77.4352 93.552 77.7292 93.8042 77.7292H101.327C101.579 77.7292 101.783 77.4352 101.783 77.0726V74.6062C101.783 74.2436 101.579 73.9497 101.327 73.9497Z" fill="white" stroke="#EF2D28" stroke-width="0.225198"/>
<path d="M90.2717 73.3286H85.8654C85.7229 73.3286 85.6074 73.7179 85.6074 74.1981V77.4985C85.6074 77.9786 85.7229 78.3679 85.8654 78.3679H90.2717C90.4142 78.3679 90.5297 77.9786 90.5297 77.4985V74.1981C90.5297 73.7179 90.4142 73.3286 90.2717 73.3286Z" fill="white" stroke="#EF2D28" stroke-width="0.225198"/>
<path d="M67.0686 73.3286H62.6623C62.5198 73.3286 62.4043 73.7179 62.4043 74.1981V77.4985C62.4043 77.9786 62.5198 78.3679 62.6623 78.3679H67.0686C67.2111 78.3679 67.3266 77.9786 67.3266 77.4985V74.1981C67.3266 73.7179 67.2111 73.3286 67.0686 73.3286Z" fill="white" stroke="#EF2D28" stroke-width="0.225198"/>
<path d="M56.2524 72.6897H47.4399C47.1549 72.6897 46.9238 73.1743 46.9238 73.7721V77.8887C46.9238 78.4865 47.1549 78.9711 47.4399 78.9711H56.2524C56.5374 78.9711 56.7684 78.4865 56.7684 77.8887V73.7721C56.7684 73.1743 56.5374 72.6897 56.2524 72.6897Z" fill="white" stroke="#EF2D28" stroke-width="0.225198"/>
<path d="M116.769 73.3286H108.611C108.337 73.3286 108.115 73.8132 108.115 74.411V78.5276C108.115 79.1254 108.337 79.61 108.611 79.61H116.769C117.043 79.61 117.265 79.1254 117.265 78.5276V74.411C117.265 73.8132 117.043 73.3286 116.769 73.3286Z" fill="white" stroke="#EF2D28" stroke-width="0.225198"/>
</g>
</g>
<defs>
<clipPath id="clip0_3921_7037">
<rect width="640" height="480" fill="white"/>
</clipPath>
</defs>
</svg>
