<svg width="640" height="480" viewBox="0 0 640 480" fill="none" xmlns="http://www.w3.org/2000/svg">
<g clip-path="url(#clip0_3921_7213)">
<mask id="mask0_3921_7213" style="mask-type:luminance" maskUnits="userSpaceOnUse" x="-1" y="0" width="641" height="480">
<path d="M-0.03125 0H639.906V480H-0.03125V0Z" fill="white"/>
</mask>
<g mask="url(#mask0_3921_7213)">
<path fill-rule="evenodd" clip-rule="evenodd" d="M-40.0625 0H679.938V480H-40.0625V0Z" fill="#0C590B"/>
<path fill-rule="evenodd" clip-rule="evenodd" d="M-40.0625 0H140.406V480H-40.0625V0Z" fill="white"/>
<path fill-rule="evenodd" clip-rule="evenodd" d="M427.469 211.312L398.219 205.125L382.844 230.719L379.656 201.094L350.594 194.344L377.781 182.156L375.25 152.438L395.312 174.562L422.781 162.937L407.875 188.812L427.562 211.312H427.469Z" fill="white"/>
<path fill-rule="evenodd" clip-rule="evenodd" d="M438.437 286.875C432.217 300.506 423.359 312.77 412.374 322.959C401.389 333.148 388.494 341.059 374.434 346.237C360.374 351.415 345.428 353.756 330.458 353.125C315.489 352.494 300.792 348.904 287.218 342.562C273.569 336.256 261.296 327.321 251.104 316.267C240.911 305.214 232.998 292.259 227.817 278.144C222.636 264.029 220.289 249.031 220.91 234.009C221.531 218.986 225.108 204.233 231.437 190.594C237.791 176.445 247.025 163.776 258.551 153.397C270.076 143.017 283.639 135.155 298.374 130.312C294.514 133.527 290.821 136.937 287.312 140.531C269.021 160.788 259.311 187.355 260.23 214.632C261.149 241.909 272.624 267.763 292.236 286.743C311.848 305.723 338.064 316.345 365.356 316.37C392.649 316.394 418.884 305.819 438.53 286.875H438.437Z" fill="white"/>
</g>
</g>
<defs>
<clipPath id="clip0_3921_7213">
<rect width="640" height="480" fill="white"/>
</clipPath>
</defs>
</svg>
