<svg width="640" height="480" viewBox="0 0 640 480" fill="none" xmlns="http://www.w3.org/2000/svg">
<g clip-path="url(#clip0_3921_7231)">
<path d="M0 0H640V480H0V0Z" fill="#00247D"/>
<path d="M0 0H320V240H0V0Z" fill="#012169"/>
<path d="M37.5 0L159.5 90.5L281 0H320V31L200 120.5L320 209.5V240H280L160 150.5L40.5 240H0V210L119.5 121L0 32V0H37.5Z" fill="white"/>
<path d="M212 140.5L320 220V240L184.5 140.5H212ZM120 150.5L123 168L27 240H0L120 150.5ZM320 0V1.5L195.5 95.5L196.5 73.5L295 0H320ZM0 0L119.5 88H89.5L0 21V0Z" fill="#C8102E"/>
<path d="M120.5 0V240H200.5V0H120.5ZM0 80V160H320V80H0Z" fill="white"/>
<path d="M0 96.5V144.5H320V96.5H0ZM136.5 0V240H184.5V0H136.5Z" fill="#C8102E"/>
<path d="M410.099 252.3C401.111 259.442 394.488 269.131 391.099 280.1C385.399 307.4 377.799 313.5 366.099 307.6C366.099 322.3 378.999 323.4 384.599 314.9C384.599 328.6 389.599 340.5 400.799 350.7C405.599 355 406.499 352.1 404.199 347.3C401.999 342.6 401.999 327.3 397.499 318.5C404.699 323.6 415.299 320.7 414.499 306.5C405.199 311.9 395.999 311.7 394.999 298.8C393.899 283.8 399.699 261.8 410.099 252.3ZM399.099 143.7C399.799 138.2 398.599 132.7 394.599 129.2C386.999 122.5 379.499 124.7 373.899 130.2C365.599 125.6 361.099 141.6 351.699 138.9C353.199 144.1 355.699 146.3 360.499 144.5C355.499 149 360.499 154.5 354.599 159.9C365.199 163.3 370.799 157.4 370.399 147.2C371.339 148.066 372.441 148.736 373.643 149.17C374.844 149.605 376.12 149.795 377.396 149.73C378.672 149.664 379.922 149.345 381.073 148.791C382.224 148.236 383.253 147.457 384.099 146.5C378.499 144.7 378.499 139.8 380.699 135.3C384.099 128.5 399.999 128.8 399.099 143.7Z" fill="#F7E017" stroke="black" stroke-width="0.4"/>
<path d="M423.599 222.1C411.599 228.5 389.799 225.8 387.699 210.1C385.699 194.6 400.799 187.6 404.899 185.6C411.199 182.4 416.199 188.1 414.099 194.6C421.099 192.2 422.699 184 419.299 179.3C428.599 180 437.099 173 440.699 163.1C437.499 166.1 428.699 164.1 421.399 163.6C423.599 161.1 423.599 156.3 422.899 153.8C415.299 161.7 404.199 158.1 389.599 180.8C393.031 168.494 396.231 156.126 399.199 143.7C399.999 128.7 384.199 128.5 380.799 135.3C384.499 139.5 382.499 144.3 381.199 151.8C379.599 160.5 376.199 180.8 373.299 187.6C372.399 177 365.399 176.3 364.099 171.1C362.099 172.5 360.899 176.1 361.399 178.6C358.899 175.9 350.299 179.3 347.099 175.2C343.799 181.9 349.099 188.7 354.799 191.7C351.499 191.9 350.799 195.8 347.099 195.8C351.999 201.5 356.999 203.8 362.699 204.2C368.499 204.6 372.699 206.8 376.199 213.8C381.899 225.1 403.399 232.4 423.599 222.1Z" fill="#337321" stroke="black" stroke-width="0.4"/>
<path d="M453.401 208.4C446.601 227.1 428.101 240.4 419.801 242.4C405.601 245.9 376.601 260 368.801 267.2C367.66 266.977 366.573 266.536 365.601 265.9C361.801 263.2 358.601 254.4 365.401 246.9C386.601 227.1 409.401 235.7 423.601 222.1C411.601 228.4 389.801 225.7 387.801 210.1C397.499 212.62 407.701 212.444 417.306 209.589C426.911 206.733 435.554 201.309 442.301 193.9C446.409 198.382 450.092 203.236 453.301 208.4H453.401Z" fill="#F7E017" stroke="black" stroke-width="0.4"/>
<path d="M410.1 252.3C399.4 261.3 393.9 283.7 395 298.8C395.333 302.933 396.433 305.867 398.3 307.6C399.1 299 405 276.9 420.3 267C433.1 258.7 453.2 240 460.6 218.5C459.187 214.567 456.374 211.291 452.7 209.3C445.3 229.5 425.6 239.2 410.1 252.3Z" fill="#337321" stroke="black" stroke-width="0.4"/>
<path d="M446.499 199.7C441.192 207.099 433.966 212.907 425.599 216.5C427.177 214.581 428.058 212.184 428.099 209.7C414.917 213.46 400.97 213.632 387.699 210.2C397.412 212.74 407.635 212.573 417.259 209.718C426.884 206.862 435.544 201.426 442.299 194C444.012 195.649 445.432 197.576 446.499 199.7Z" fill="#316D3A" stroke="black" stroke-width="0.4"/>
<path d="M365.401 247C348.201 263 359.601 277.2 366.401 280.3C364.501 291.6 375.101 290.3 374.901 299.7C379.201 297.3 380.301 290.7 379.601 285.5C385.101 291.4 398.801 284.8 401.701 295.7C403.601 283.7 394.301 271.7 382.801 272.9C387.601 268.6 384.801 261.6 380.301 259.8C379.401 268.6 369.501 268.6 365.701 265.8C361.801 263.2 358.701 254.4 365.401 246.9V247Z" fill="#337321" stroke="black" stroke-width="0.4"/>
<path d="M402.7 349.6C400.9 350.6 401 353.1 402.2 354.6C404.5 357.8 400.5 365 408.2 366.5C410.4 367 412.2 365.5 413 363C415.4 355.9 407.8 355.1 407.1 351.7C406.5 348.3 404.3 348.7 402.7 349.6Z" fill="#F7E017" stroke="black" stroke-width="0.4"/>
<path d="M409.199 362.9C406.699 364.1 404.399 365.7 405.499 373.9C405.899 377.2 405.699 385.3 402.699 385.4C404.499 386.4 408.399 387.4 409.999 385.2C411.499 387.8 414.999 387 416.299 383.9C418.099 385.3 420.599 382.9 420.599 380.7C422.099 381.7 425.299 380.3 424.499 375.4C426.499 376.1 428.899 374.7 429.799 373.5C426.999 372.9 419.799 369.1 418.199 366.1C416.499 363 412.199 361.5 409.199 362.9Z" fill="#F7E017" stroke="black" stroke-width="0.4"/>
<path d="M370 134.7C371.2 133.1 372.533 131.567 374 130.1M413 164.6C415.067 163.533 417.867 163.2 421.4 163.6M410 385.2C409.2 384.1 408.9 379.4 409.4 376.5M416.3 383.9C415 382.9 412.7 379.6 412.3 376.8M420.6 380.7C417.676 378.413 415.485 375.319 414.3 371.8M424.5 375.4C422.6 375 416.9 371.3 414.5 367.4" stroke="black" stroke-width="0.4"/>
<path d="M528.5 247.2C556.2 270.4 558 288.9 553.8 299.7C551.5 289.6 540 273.8 528 269.7L528.5 247.2Z" fill="#F7E017" stroke="black" stroke-width="0.4"/>
<path d="M478.901 234H530.301V295C530.301 346.9 501.501 377.5 472.101 393.8C454.121 384.443 439.137 370.215 428.863 352.743C418.588 335.271 413.438 315.261 414.001 295V234H450.001C450.001 237.2 450.401 242 454.001 246.7C462.601 245.9 472.201 239.5 478.901 234.1V234Z" fill="#337321" stroke="black" stroke-width="0.4"/>
<path d="M530.3 234V295C530.167 310.6 527.834 324.367 523.3 336.3L472 242.6L421 336.3C416.334 324.3 413.967 310.533 413.9 295V234H530.3Z" fill="#006EC7" stroke="black" stroke-width="0.4"/>
<path d="M524.8 331.9C523.688 335.29 522.42 338.627 521 341.9L472 251L423.3 342C422 339.2 420.4 334.7 419.5 332L472.2 234.4L524.8 331.9Z" fill="#F7E017"/>
<path d="M495.301 365.3L500.301 367.6C502.882 361.338 503.645 354.476 502.501 347.8C499.601 355.2 489.701 355 487.001 359.5C488.667 360.433 490.167 361.4 491.501 362.4C488.101 365.8 480.201 371.4 475.701 372.8V324.4C475.701 321 474.501 318.2 474.501 315.4V305.4C474.501 303.1 474.101 299.8 472.101 299.8C470.101 299.8 469.601 303.1 469.601 305.4V315.4C469.601 318.2 468.501 321.4 468.501 324.4V372.8C466.001 365.6 456.301 368 451.801 360.8C453.571 360.383 455.405 360.315 457.201 360.6C453.801 349.1 444.501 348.2 442.801 344.8C442.801 349.6 440.801 360.6 443.901 365.4C444.634 364.467 445.634 363.633 446.901 362.9C450.801 371.2 468.001 371.2 472.101 385C475.401 380 487.101 374 495.301 365.3Z" fill="#F7E017" stroke="black" stroke-width="0.4"/>
<path d="M472.1 325C475.9 325 488.1 323.8 492.5 323.8C493.7 323.8 494.6 322 494.6 319.9C494.6 317.8 493.7 316.1 492.6 316.1C488.1 316.1 476 314.9 472.1 314.9C468.2 314.9 456.1 316.1 451.7 316.1C450.5 316.1 449.6 317.8 449.6 319.9C449.6 322 450.6 323.8 451.6 323.8C456.1 323.8 468.3 325 472.1 325ZM469.6 305.2C468.8 304.533 467.8 304.2 466.6 304.2C464 304.2 461.9 306 461.9 308.3C461.9 310.7 464 312.6 466.6 312.6C469.1 312.6 471.2 310.6 471.2 308.3C471.2 306.5 473.8 306.5 473.8 308.3C473.8 312 470.6 315 466.6 315C462.6 315 459.3 312 459.3 308.3C459.3 304.7 462.6 301.7 466.6 301.7C467.744 301.727 468.87 302 469.9 302.5L469.6 305.2Z" fill="#F7E017" stroke="black" stroke-width="0.4"/>
<path d="M451.699 323.8C452.799 323.8 453.699 322 453.699 319.9C453.699 317.8 452.799 316.1 451.699 316.1" fill="#F7E017"/>
<path d="M451.699 323.8C452.799 323.8 453.699 322 453.699 319.9C453.699 317.8 452.799 316.1 451.699 316.1" stroke="black" stroke-width="0.4"/>
<path d="M453.4 323.8C454.5 323.8 455.4 322 455.4 319.9C455.4 317.8 454.5 316.1 453.4 316.1M464.5 324.5C465.9 324.5 467 322.5 467 319.9C467 317.3 466 315.3 464.5 315.3M467.1 324.7C468.6 324.7 469.7 322.6 469.7 319.9C469.7 317.2 468.6 315.1 467.1 315.1M475.8 324.8C477.3 324.8 478.4 322.6 478.4 319.9C478.4 317.2 477.2 315 475.8 315M478.5 324.6C479.9 324.6 481.1 322.6 481.1 319.9C481.1 317.3 479.9 315.2 478.5 315.2M490.6 323.8C491.8 323.8 492.7 322.1 492.7 319.9C492.7 317.7 491.8 315.9 490.7 315.9M447 362.9C448.333 361.967 449.933 361.3 451.8 360.9L447 362.9ZM492.9 363.3L491.5 362.3L492.9 363.3ZM495.3 365.3C498.633 361.9 501.067 358 502.6 353.6L495.3 365.3Z" fill="#F7E017"/>
<path d="M453.4 323.8C454.5 323.8 455.4 322 455.4 319.9C455.4 317.8 454.5 316.1 453.4 316.1M464.5 324.5C465.9 324.5 467 322.5 467 319.9C467 317.3 466 315.3 464.5 315.3M467.1 324.7C468.6 324.7 469.7 322.6 469.7 319.9C469.7 317.2 468.6 315.1 467.1 315.1M475.8 324.8C477.3 324.8 478.4 322.6 478.4 319.9C478.4 317.2 477.2 315 475.8 315M478.5 324.6C479.9 324.6 481.1 322.6 481.1 319.9C481.1 317.3 479.9 315.2 478.5 315.2M490.6 323.8C491.8 323.8 492.7 322.1 492.7 319.9C492.7 317.7 491.8 315.9 490.7 315.9M447 362.9C448.333 361.967 449.933 361.3 451.8 360.9M492.9 363.3L491.5 362.3M495.3 365.3C498.633 361.9 501.067 358 502.6 353.6" stroke="black" stroke-width="0.4"/>
<path d="M461.801 277.2C461.801 276 462.701 275.6 463.801 274.8C465.001 273.8 465.501 273.4 466.701 273.4H481.501C482.434 273.333 482.867 273.767 482.801 274.7V294.7C482.934 295.633 482.501 296.1 481.501 296.1H461.801V276.9" fill="white"/>
<path d="M461.801 277.2C461.801 276 462.701 275.6 463.801 274.8C465.001 273.8 465.501 273.4 466.701 273.4H481.501C482.434 273.333 482.867 273.767 482.801 274.7V294.7C482.934 295.633 482.501 296.1 481.501 296.1H461.801V276.9" stroke="black" stroke-width="0.4"/>
<path d="M477.8 297.8C479.8 297.8 479.4 297.8 480.8 296.4C482.2 295 482.1 295.1 482.1 293.8V275.4C482.166 274.467 481.733 274.067 480.8 274.2H467.1C466.1 274.2 465.6 274.6 464.4 275.5C463.4 276.3 462.6 276.7 462.6 277.7V297.8H477.8Z" fill="#E5E5E5" stroke="black" stroke-width="0.4"/>
<path d="M479.301 297.4C479.368 298.333 478.901 298.767 477.901 298.7H463.101C462.101 298.767 461.668 298.333 461.801 297.4V277.3C461.668 276.367 462.101 275.933 463.101 276H477.901C478.901 275.933 479.368 276.367 479.301 277.3V297.4Z" fill="white" stroke="black" stroke-width="0.4"/>
<path d="M507.999 222.3C510.799 225.5 511.799 229.8 510.199 234.1H505.999C507.799 228.6 506.699 223.5 498.999 222.8C487.599 221.8 474.199 244 454.099 246.7C448.299 239.7 448.599 226.4 456.099 220.1C452.239 209.446 446.212 199.708 438.399 191.5C434.864 190.919 431.28 190.684 427.699 190.8C430.699 184.4 438.999 177.8 445.799 175.1L449.199 170.6C449.899 161.9 491.199 165.9 499.899 171.3C499.899 181.1 503.799 213.5 508.099 222.3H507.999Z" fill="#96877D" stroke="black" stroke-width="0.4"/>
<path d="M458.001 228.2C457.001 213.2 450.901 200.8 442.301 192.4C448.462 193.809 454.93 192.731 460.301 189.4C467.801 184.4 487.301 175.8 494.301 179.5C494.901 180.8 495.301 183.5 494.801 185.4C493.101 180.9 474.401 187.8 469.101 190C464.101 192.3 461.801 195.5 463.601 202.6C460.601 200.1 461.601 197.8 458.601 196C459.801 198.9 460.801 204.2 461.201 208.5C460.001 205.5 458.001 198.9 453.601 195C458.243 205.98 460.164 217.918 459.201 229.8C462.201 229.8 469.001 226.8 471.601 224.8C469.301 228.1 462.401 230.5 458.101 231.4C455.906 234.942 454.761 239.034 454.801 243.2C454.501 239 455.801 228.9 457.901 228.2H458.001ZM508.001 222.3C504.201 218.1 497.301 215.9 488.401 218.3C490.559 217.245 492.845 216.472 495.201 216C494.901 213.7 492.801 203.5 492.401 201L494.901 200C496.201 206.1 497.701 213.1 498.701 216C499.501 216.1 501.301 216.5 502.901 217.3C502.201 214.9 498.401 197.9 498.501 196.1L501.901 194.3C502.924 203.816 504.935 213.2 507.901 222.3H508.001Z" fill="black"/>
<path d="M506 234C507.7 228.7 506.6 223.5 499 222.8C493 222.3 486.6 228.1 479 234.1L506 234ZM456.1 185.5C451.118 185.825 446.116 185.318 441.3 184C441.5 183.067 441.867 182 442.4 180.8C439.313 182.73 436.461 185.012 433.9 187.6C439.3 188.8 450.5 189.3 456.1 185.5Z" fill="#96877D" stroke="black" stroke-width="0.4"/>
<path d="M456.001 220C457.267 223.733 457.967 227.167 458.101 230.3M445.701 175.1C443.701 178.1 441.901 181.3 441.301 184.1C446.131 185.333 451.125 185.805 456.101 185.5" stroke="black" stroke-width="0.4"/>
<path d="M438.4 191.5L442.4 192.4C446.4 193.5 454.7 193.5 460.4 189.4C466.1 185.3 481.4 172.7 498.7 171.4" stroke="black" stroke-width="0.4"/>
<path d="M433.9 187.6C439.3 188.8 450.5 189.3 456.1 185.5C467.296 177.129 480.583 172.008 494.5 170.7" stroke="black" stroke-width="0.4"/>
<path d="M528.499 247.2C547.499 260.2 561.499 272.9 565.499 293.2C569.499 313.5 577.199 318.9 586.699 313.5C584.499 325.2 572.699 326.5 562.799 317.5C563.799 331.1 558.299 347.3 544.299 353.2C543.399 345.1 548.799 338.6 547.299 332C546.599 329 546.299 322.3 550.199 319.1C542.699 321.6 530.999 316.9 529.899 305.8C538.499 309.8 549.499 310.5 553.799 299.7C558.099 288.9 556.199 270.4 528.499 247.2ZM552.399 141.6C558.299 126.3 573.599 127.9 578.799 134.4C593.899 125.8 595.999 145.2 608.799 141.4C608.599 145 604.299 148.4 599.599 148.1C604.599 152.6 597.599 159.4 608.099 163.5C599.099 168 586.499 163.3 583.099 150.8C580.099 156.7 569.599 156.7 565.299 152C574.499 149.5 573.899 141 568.699 137.5C563.399 134.1 554.199 135.5 552.399 141.6ZM506.699 175.4C511.039 188.714 518.716 200.694 528.999 210.2C539.799 220.2 556.099 217.6 565.299 208.2C565.499 227 545.899 228.5 535.099 222.6C530.299 220 526.399 221.3 530.999 225.6C537.999 231.8 553.299 236.6 571.399 240.4C602.899 247.2 591.699 272.2 582.399 272C585.099 272 587.299 269.1 583.399 265.7C555.999 241 500.399 250.7 501.199 195.7C495.399 210.2 471.199 204.5 482.499 187.4C486.099 190.3 492.499 190.5 494.199 186C495.599 182.5 494.699 176.4 488.399 171.1C489.399 171.1 491.699 171.1 491.399 168.5C491.699 170.1 493.099 172.3 496.699 171.5C497.699 173.2 498.699 174.2 500.199 173.6C500.499 173.6 501.299 173.1 500.999 171.5C501.199 174.5 504.799 175.6 506.699 175.4Z" fill="#337321" stroke="black" stroke-width="0.4"/>
<path d="M534.999 222.6C548.099 231.1 562.999 231.1 576.499 215.4C580.799 210.4 587.499 206.1 592.299 205.7C597.099 205.2 596.799 200.7 600.399 199.7C598.199 199.1 597.299 196.4 593.899 196.7C602.399 193.8 599.899 187 603.999 183.7C600.599 185 595.399 180 590.499 186.4C591.799 183.4 589.999 180 588.799 178.6C589.299 182 582.199 182.6 580.799 191.2C580.099 196 577.399 195.8 576.999 188.3C576.699 182.9 573.999 167.8 570.999 160.1C567.799 152.5 566.999 141.9 571.299 140.4C570.671 139.27 569.779 138.31 568.699 137.6C563.399 134.2 554.199 135.6 552.399 141.6C546.599 157 562.999 165.8 561.699 182.5C559.199 170.1 539.099 166.9 539.299 154.7C532.799 157.7 533.699 163.1 536.199 167.4C532.199 161.1 522.899 171.4 514.999 162.9C513.999 174.2 523.999 178.4 532.099 178.9C528.099 186.1 533.499 192.2 538.899 194.2C539.099 181.6 564.999 186.7 565.299 208.4C565.499 226.9 545.599 228.4 534.999 222.6ZM571.399 240.4C602.899 247.2 591.699 272.2 582.399 272C576.499 271.8 570.899 266.9 570.599 262.6C563.799 266.2 565.599 273.3 570.799 276.1C556.599 274.5 550.599 283.8 550.299 294.1C552.899 289.3 560.699 289.1 563.699 290.1C566.699 291.1 574.199 291.6 577.199 288.1C574.699 290.3 578.799 295.3 575.199 299.1C587.199 298.7 592.299 287.6 590.199 282.8C605.599 268.8 602.699 246 571.399 240.4ZM547.299 347.6C549.299 348.8 549.099 351.6 547.699 353.3C544.899 356.7 549.099 364.8 540.499 366.3C537.899 366.5 536.166 365.1 535.299 362.1C532.899 354.1 541.399 353.5 542.299 349.8C543.199 346.1 545.599 346.5 547.299 347.6Z" fill="#F7E017" stroke="black" stroke-width="0.4"/>
<path d="M539.6 362.1C542.3 363.5 544.7 365.5 543.3 374.5C542.6 378.2 542.5 387.3 545.8 387.5C543.8 388.5 539.4 389.4 537.8 387C535.9 389.8 532.1 388.8 530.8 385.2C528.6 386.8 526 383.9 526.1 381.5C524.3 382.5 520.8 380.8 521.9 375.5C519.7 376.1 517 374.5 516.1 373.1C519.2 372.5 527.3 368.6 529.4 365.3C531.4 361.9 536.4 360.5 539.6 362.1Z" fill="#F7E017" stroke="black" stroke-width="0.4"/>
<path d="M537.7 387C538.7 385.8 539.2 380.5 538.7 377.3M530.7 385.2C532.2 384.2 534.9 380.7 535.5 377.5M526 381.5C529.332 379.029 531.898 375.666 533.4 371.8M521.9 375.5C523.9 375.1 530.5 371.2 533.3 366.9" stroke="black" stroke-width="0.4"/>
<path d="M501.201 195.8C500.801 218.8 510.401 230.6 523.801 238.2C518.801 235.2 521.001 225.1 514.301 221.8C515.901 221.7 518.301 223.9 522.301 223C520.301 218.8 517.301 212.2 509.901 211.3C511.901 211.1 515.901 211.8 518.701 210.8C514.901 204.8 504.701 207.7 501.201 195.8ZM498.801 173.8C498.001 173.467 497.301 172.733 496.701 171.6C493.101 172.4 491.701 170.1 491.401 168.6C491.701 171.2 489.401 171.1 488.401 171.2C494.701 176.4 495.601 182.5 494.201 186C492.401 190.5 486.201 190.3 482.501 187.4C482.001 197 494.501 200.1 499.001 188.1C499.001 190.1 501.601 189.9 502.201 192.6C505.401 187.4 503.001 179.9 498.801 173.8Z" fill="#F7E017" stroke="black" stroke-width="0.4"/>
<path d="M479 128C473.95 122.999 471.075 116.207 471 109.1C471.2 104.1 473.2 98.8 480.5 101.1C478.2 101.1 479.8 105.5 477.5 106C479.3 106.7 481.9 105.1 482.3 104C482.7 105.6 485.7 105.2 485.9 107C487 106.1 485.8 101.7 484.1 100.8C485.3 100.1 486.1 96.6 485.5 94.9C484.3 95.1 482.6 96.7 482.3 99C482.9 97.2 482.2 92.7 479 92C478.1 93.2 477.9 96.3 479.1 98C476.2 97.3 471.9 99.2 470.9 101.7C471.1 98.7 471.5 94.4 473.4 91.7C474 90.9 472.4 89.3 471.3 91.4C469.1 87.1 463.3 84.9 460.6 87C458 89.2 454.6 86 452.4 89.4C450.2 92.8 443 93.1 443.4 96.7C443.6 98.9 443.1 102.2 442 103.4C439.4 106.3 443.3 108.4 444 111C443.5 102.5 457.1 85.8 470.8 92.3C469.134 95.9473 468.216 99.8917 468.1 103.9C467.5 111.6 468.7 122.4 476.1 128.8L479 128Z" fill="#337321" stroke="black" stroke-width="0.4"/>
<path d="M483 101.1C483 99.1 486.5 96.4 491.2 96.5C496.9 96.5 501.2 101.7 505.8 101.2C510.4 100.7 508.2 103.2 507.2 104C506.133 104.667 505.733 105.633 506 106.9C506.3 108.1 505.8 108.9 504 107.8C499.9 105.2 495.8 108.8 490.4 106.8C485.9 105.1 483.2 104.1 483 101.1Z" fill="#C8102E" stroke="black" stroke-width="0.4"/>
<path d="M459.8 154.4C456.834 147.296 451.546 141.408 444.8 137.7L444.6 133.9C448.274 131.804 451.668 129.25 454.7 126.3C471.7 134.3 494.7 122.9 505.3 111L509.3 113.4L507.3 116.1L505.2 115C500.52 120.132 495.437 124.88 490 129.2C493.9 130.2 499.3 130.9 500.8 130.8C510.2 124 517.7 117.9 521.3 117.5L524.3 121.5L521.6 123.5L519.5 122.2C508.059 133.083 499.119 146.322 493.3 161C487 159.6 464.4 160.5 459.8 154.4Z" fill="#96877D" stroke="black" stroke-width="0.4"/>
<path d="M490 129.2C488.4 128.8 487.234 128.4 486.5 128C482.861 130.235 478.671 131.412 474.4 131.4" stroke="black" stroke-width="0.4"/>
<path d="M460.7 151.9C459.2 143.5 461.7 134.1 465.9 131.3C471.208 134.36 477.243 135.928 483.369 135.84C489.495 135.752 495.483 134.011 500.7 130.8" stroke="black" stroke-width="0.4"/>
<path d="M460.699 147.5C467.899 147.3 483.699 148.5 487.399 149C491.299 149.6 497.699 151.2 496.799 153.1M463.999 146.3L466.099 144.3L464.099 142.2L461.999 144.2L463.999 146.3Z" stroke="black" stroke-width="0.4"/>
<path d="M468.999 104.3C466.399 100.7 459.199 99.4999 457.699 104.3C456.999 106.5 455.999 108.8 454.299 109.8C452.599 110.8 452.999 113.9 453.699 115.2C455.499 118.5 453.899 121.7 457.399 123.8C457.399 121.2 461.299 118.5 464.499 117.8C467.799 117.2 472.799 114.2 473.499 111C474.099 107.6 475.299 105 468.999 104.3Z" fill="#337321" stroke="black" stroke-width="0.4"/>
<path d="M452.7 136.8H453.7V142.9L454.2 143.2L459.5 140.2L460 140.9L454.6 144V144.6L460 147.6L459.5 148.4L454.1 145.4L453.6 145.7V151.9H452.7V145.7L452.2 145.4L446.9 148.5L446.4 147.7L451.7 144.7V144L446.4 141L446.9 140.2L452.2 143.2L452.7 142.9V136.8Z" fill="#96877D" stroke="black" stroke-width="0.4"/>
<path d="M460.7 151.8C459.168 153.351 457.198 154.398 455.055 154.799C452.912 155.2 450.697 154.937 448.708 154.044C446.718 153.152 445.049 151.673 443.923 149.805C442.797 147.938 442.269 145.771 442.409 143.595C442.549 141.419 443.35 139.338 444.706 137.63C446.061 135.922 447.906 134.669 449.994 134.038C452.081 133.408 454.311 133.43 456.386 134.103C458.46 134.775 460.279 136.065 461.6 137.8C460.97 139.644 460.567 141.558 460.4 143.5C460.265 142.094 459.724 140.757 458.844 139.652C457.964 138.547 456.783 137.722 455.443 137.275C454.103 136.828 452.662 136.78 451.295 137.135C449.928 137.491 448.693 138.236 447.741 139.279C446.789 140.323 446.16 141.62 445.931 143.014C445.701 144.408 445.881 145.838 446.448 147.132C447.016 148.425 447.946 149.526 449.127 150.302C450.307 151.077 451.688 151.493 453.1 151.5C456.5 151.5 459.4 149.2 460.3 146.1C460.3 147.5 460.3 150.7 460.7 151.8Z" fill="#96877D" stroke="black" stroke-width="0.4"/>
<path d="M448.6 162C448 161.2 446.7 159 446.9 157.5C448.303 157.54 449.647 158.071 450.7 159C450.6 157.8 450.1 155.4 450.4 154.2C451.6 154.7 454.2 156.2 455.1 157.8C454.9 156.7 454.4 153.8 454.9 152C456.2 152.8 458.5 154.9 458.9 156.4C459.1 154.1 459.9 150.4 460.5 149.4C461.5 150.4 463.1 151.4 464.1 152.8C464.3 150.9 465.3 148.8 466.6 148.3C467.6 149.3 469.2 152 469.6 154.9C470.6 154.6 471.9 152.9 472.5 151.9C473 152.9 473.6 154.4 473.2 156.4C474.5 155.2 476 153.7 476.2 152.3C477.2 153 478.9 154.7 479.3 156.5C479.1 155 479.3 152.4 478.8 150.9C480.4 151.9 481.8 153.4 482.1 155.1C482.6 153.5 483.6 150.7 484.5 150.1C485.4 151.9 486.3 154.1 486.2 155.8C486.8 154.7 487.6 152.6 488.5 152.2C489.3 153.4 489.2 156.2 489 157.6C489.8 156.5 491.3 155.1 492.2 154.6C492.2 155.4 492.4 156.7 492.2 157.7C493.636 156.223 494.729 154.448 495.4 152.5C497 153.3 498.6 156 498.7 157.4C499.9 156.9 502.1 154.9 502.7 153.8C502.7 154.6 503.1 156.8 502.7 158.4C503.4 157.7 504 156.4 504.4 155.8C504.8 156.9 504.4 159.6 504 161.1C504.946 160.253 506.136 159.728 507.4 159.6C507.113 162.345 506.262 165 504.9 167.4C494.1 164.4 471.4 163.3 448.6 162Z" fill="#337321" stroke="black" stroke-width="0.4"/>
<path d="M486.4 102.3C486.4 101.4 488.2 99.6001 491.5 99.6001C495.5 99.6001 499.2 102.6 502.4 102.3C505.6 102 504 103.2 503.4 103.4C502.6 103.733 502.267 104.133 502.4 104.6C502.8 105.267 502.334 105.4 501 105C498.2 104 495.3 105.4 491.6 104.6C488.4 103.9 486.5 103.6 486.4 102.3Z" fill="#F7E017"/>
<path d="M452.1 168.8C448.8 172.8 445.4 172.2 444.7 169.6C444 167 446.5 165.8 445.6 163.5C444.7 161.2 447.1 160.2 448.2 161.2C449.3 162.2 453 159 454.5 162.4C456.1 165.8 457.3 168.1 456.5 169.4C455.5 170.8 452.8 170.1 452.1 168.8ZM466.7 162.7C466.1 161.2 469.6 158.3 471.4 160.4C473.2 162.4 476 158.2 477.6 161.4C479.2 164.6 479.6 166.3 480.5 168.1C481.2 169.9 476.2 170.8 474.6 169.3C474.8 170.3 470.2 171.2 469 168.1L466.7 162.7ZM490.1 164.6C489.3 163 493.4 160.7 495.6 163.6C496.1 162.4 500.2 162.2 500.5 165.6L501 172.5C501.1 173.8 498.5 175.1 496.7 171.6C493.3 172.3 491.8 170.4 491.4 168.5C491 166.6 490.6 165.5 490.1 164.5V164.6Z" fill="#F7E017" stroke="black" stroke-width="0.4"/>
<path d="M454.3 162.3C453.8 161.2 457.3 158.9 459.5 160.6C461.7 162.3 465 159.2 466.5 162.2C469.2 168.4 469.3 168.8 468.5 170C467.7 171.2 464 170.7 463.1 169C463 170.2 459.8 170 458.2 169.1C456.4 168.1 455.1 164.3 454.3 162.3ZM478 162.6C477.3 160.8 482.6 159.3 485 162.4C486.1 161.3 488.7 161.2 490.1 164.6C491.567 167.8 491.8 169.8 490.8 170.6C490 171.2 487.3 171.6 486.4 170.1C485.1 170.9 481.3 170.2 480.4 168.1C479.6 165.967 478.834 164.133 478.1 162.6H478ZM500.5 166C500.5 164.3 503.3 163.6 504.4 166C505.4 168.2 508.9 166.1 509.2 170C509.2 170.7 508.8 173.5 507.7 174.9C506.7 176.2 501.4 174.9 501 172L500.5 166Z" fill="#337321" stroke="black" stroke-width="0.4"/>
<path d="M452.1 168.8C450.9 167.1 449.2 164.4 447.1 167.3M463.2 169C462.4 168.1 461.5 166.5 461.2 165.3M474.6 169.3C473.8 168.7 472.6 167.6 472 166.4M473.6 163.4C475.6 163.6 476.9 165.4 477.5 166.3C478.1 167.2 479.5 168.7 480.5 168.8M486.4 170.1C485.6 169.033 485.1 168.1 484.9 167.3M485 162.4L486.5 165M496.6 171.6C495.846 169.982 494.627 168.624 493.1 167.7M496.2 165.4C496.3 168.7 500.7 169 500.9 171.4M504.4 166C504.8 166.667 505 167.667 505 169" stroke="black" stroke-width="0.4"/>
</g>
<defs>
<clipPath id="clip0_3921_7231">
<rect width="640" height="480" fill="white"/>
</clipPath>
</defs>
</svg>
