<svg width="640" height="480" viewBox="0 0 640 480" fill="none" xmlns="http://www.w3.org/2000/svg">
<g clip-path="url(#clip0_3921_8146)">
<mask id="mask0_3921_8146" style="mask-type:luminance" maskUnits="userSpaceOnUse" x="0" y="0" width="640" height="480">
<path d="M0 0H640V480H0V0Z" fill="white"/>
</mask>
<g mask="url(#mask0_3921_8146)">
<path fill-rule="evenodd" clip-rule="evenodd" d="M-20 0H700V480H-20V0Z" fill="white"/>
<path fill-rule="evenodd" clip-rule="evenodd" d="M-20 0H700V240H-20V0Z" fill="#DF0000"/>
<path fill-rule="evenodd" clip-rule="evenodd" d="M146 40.2C127.058 44.2707 110.093 54.7344 97.9536 69.8342C85.8143 84.934 79.2397 103.751 79.3335 123.125C79.4273 142.499 86.1839 161.251 98.4688 176.233C110.754 191.214 127.819 201.513 146.8 205.4C135.926 208.546 124.539 209.515 113.29 208.251C102.042 206.987 91.1532 203.514 81.2495 198.033C71.3458 192.552 62.6217 185.169 55.5774 176.309C48.5331 167.448 43.3072 157.284 40.1995 146.4C34.0272 124.521 36.7688 101.088 47.8249 81.2245C58.8809 61.3611 77.352 46.6832 99.1995 40.4C115.2 35.8 130 35.7 146.1 40.2H146Z" fill="white"/>
<path fill-rule="evenodd" clip-rule="evenodd" d="M133 110L137.9 125L124.9 115.8L112.1 125.2L116.8 110L104 100.7L119.9 100.5L124.9 85.5L129.9 100.5H145.7L133 110ZM150.5 162L155.5 177.1L142.5 167.9L129.6 177.2L134.4 162.1L121.6 152.7L137.5 152.6L142.4 137.5L147.4 152.5H163.4L150.5 162ZM209 161.6L213.9 176.8L200.9 167.5L188.1 176.8L192.8 161.7L180 152.4L195.9 152.2L200.9 137.2L205.9 152.2H221.7L209 161.6ZM226.4 110L231.3 125.1L218.3 115.9L205.5 125.2L210.3 110.1L197.4 100.7L213.4 100.6L218.2 85.5L223.2 100.5H239.2L226.4 110ZM180.1 75.6999L185.1 90.9L172.1 81.5999L159.2 91L164 75.8L151.2 66.4L167 66.3L172 51.2L177 66.1999H193L180.1 75.6999Z" fill="white"/>
</g>
</g>
<defs>
<clipPath id="clip0_3921_8146">
<rect width="640" height="480" fill="white"/>
</clipPath>
</defs>
</svg>
