<svg width="640" height="480" viewBox="0 0 640 480" fill="none" xmlns="http://www.w3.org/2000/svg">
<g clip-path="url(#clip0_3921_8782)">
<path d="M640 480V0H0V480H640Z" fill="#000066"/>
<path d="M0 0H320V240H0V0Z" fill="#012169"/>
<path d="M37.5 0L159.5 90.5L281 0H320V31L200 120.5L320 209.5V240H280L160 150.5L40.5 240H0V210L119.5 121L0 32V0H37.5Z" fill="white"/>
<path d="M212 140.5L320 220V240L184.5 140.5H212ZM120 150.5L123 168L27 240H0L120 150.5ZM320 0V1.5L195.5 95.5L196.5 73.5L295 0H320ZM0 0L119.5 88H89.5L0 21V0Z" fill="#C8102E"/>
<path d="M120.5 0V240H200.5V0H120.5ZM0 80V160H320V80H0Z" fill="white"/>
<path d="M0 96.5V144.5H320V96.5H0ZM136.5 0V240H184.5V0H136.5Z" fill="#C8102E"/>
<path d="M581.099 197C580.899 264.8 570.099 338 481.699 372.8C393.199 337.9 382.399 264.8 382.199 197H581.099Z" fill="#128BBF"/>
<path d="M481.7 372.8C521.7 357 546.7 331.2 561 303.8C558.8 303 554.2 302.9 552.4 303.6C550.2 303.4 466.9 297.3 457.1 293.7C448.5 290.7 416.1 296.4 400.9 301.7C415 331 439.5 356.2 481.7 372.7V372.8Z" fill="#E8ECE9"/>
<path d="M419.8 330.7C421.2 330.3 423.8 330.4 424.8 330.5C426 330.8 426.2 330.9 426.6 329.5C427 328.3 428 328.6 428.8 329.2C429.5 329.9 431.5 329.6 432.3 328.5C432.9 327.567 433.466 327.5 434 328.3C434.8 329 435 328.8 435.9 328.6C436.6 328.4 437.9 327.6 438.6 326.3C439.2 325.1 440.2 324.7 440.7 325.3C441.233 325.967 441.866 326.3 442.6 326.3C443.4 326.1 443.6 326.9 443.5 327.8C443.4 328.7 443.8 329 445.6 327.5C447.3 329.1 447.8 328.5 447.8 326.8C447.846 323.77 447.51 320.746 446.8 317.8C446.1 316.9 445.4 314.5 445.3 312.5C445.1 308.8 445.1 308.6 440.6 306.4C440.6 305.1 440.3 304.5 437.2 304.7C437.2 304.3 436.7 303 436.1 302.5C435.5 302 435.3 301.7 435.6 300.2C436.9 300.3 438.4 300.1 439.1 299C439.8 297.9 442.4 298.2 443.9 298.8C445.3 299.467 447.433 299.567 450.3 299.1C451.5 298.3 453.166 297.333 455.3 296.2C457.2 295.2 457.7 294.7 457.8 293.2C458.1 289.3 456.8 284.9 455.7 282.8C454.6 280.7 454.2 278.2 452.7 274.9C451.1 271.4 451.1 270.5 449.2 268.4C448.7 267.8 448.2 267.3 448 266.1C447.926 264.587 447.283 263.158 446.2 262.1C442.9 259.1 441.6 249.5 440.3 242.3C439.6 238.3 440.1 228.6 438.3 227.1C435.4 224.7 434 225.1 432 224.4C430.6 222.4 430 218.6 428.7 215.1C426.7 215.5 425.2 217.6 423.7 218.4C422.4 219.1 422.1 219.1 422.1 221.1C422.1 223.1 421.1 225.7 419.1 228.7C417.1 231.7 413.9 230.9 411.1 235.4C405.1 228.2 405.1 226.1 404.6 224.1C404.1 222.1 403.2 221.6 399.8 218.7C399.8 217.8 399.4 214.4 399.8 212.4C397.2 210.4 395.4 210.7 394.2 212.2C393 213.7 392.2 216 390.2 216.9C389.2 218.3 385.8 221.8 383.1 225.9C385.6 263.6 394.1 300.9 419.8 330.7Z" fill="#69522B"/>
<path d="M581.1 197C581.2 171.4 579.8 146.6 580.4 124.9C547.4 110.2 503.8 107.2 481.7 107.2C459.6 107.2 415.9 110.2 382.9 124.9C383.5 146.6 382.1 171.4 382.2 196.9L581.1 197Z" fill="#BCA76B"/>
<path d="M387.6 226.6C388.6 228.3 390.6 231.3 390.8 232.9C391.6 231.3 392.2 230.6 392.3 229.7C392.4 228.8 393.6 226.7 393.3 225.7C392.8 224.7 392.5 223.9 393.6 224.7C394.8 225.4 394.6 226.7 394.4 228.7C393.6 234 391.4 235.1 391.1 238.7C394.3 246.1 391.9 248.8 395.4 256.2C395.9 256.5 397.4 255.9 397.8 256C399.7 254.7 401 255.2 403.7 255.7C406.3 256.3 407.7 258.1 407.7 259.7C407.7 261.3 407.7 261.7 408.2 262.7C408.7 263.7 409.9 265.2 409.6 266.3C409.4 267.3 409.9 268 410.2 268.6C410.5 269.2 410.1 270.3 409.7 271.1C409.233 271.767 409.6 272.867 410.8 274.4C412.1 276 415.2 282.8 415.2 286.8C415.2 290.8 415.4 292.7 417 293.4C418.7 294.2 419.2 294.8 419 296.5C418.8 298.2 419.8 307.2 420 308.6C420.2 310 420.7 309.7 421.4 310.5C422.1 311.3 422.4 312.1 424.6 312.1C426.8 312.1 428.9 311.8 430.3 312.1C432.3 314.7 433.5 318.4 433.9 320.6C434.4 322.9 434.3 326 435.1 326C435.9 326 436.6 326.1 436.4 323.3C436.2 320.5 436 320.1 435 318.7C434 317.3 433.5 316.7 434 315.7C434.506 314.678 434.647 313.513 434.4 312.4C434.2 311.4 433.9 309.7 435.7 311.9L438.7 315.3C439.167 316.233 439.367 317.4 439.3 318.8C439.233 320.133 439.533 320.533 440.2 320C441 319.3 441.9 320.4 441.5 321.8C441.1 323.2 441.567 324.1 442.9 324.5C444.167 324.833 444.9 325.4 445.1 326.2C445.4 327.2 446.5 327.6 446.5 325.7C446.5 323.7 445.8 319.7 445.2 318.3C444.7 317 444.2 314.3 444.2 312.6C444 311 443.7 310.6 442.9 310.2C442.1 309.933 441.6 309.4 441.4 308.6C441.3 307.9 440.6 307.6 440.2 307.6C439.667 307.6 439.267 307.267 439 306.6C438.733 306.2 438.367 306 437.9 306C437.3 306 436.5 306.3 436.2 305.4C435.9 304.5 435.5 303.4 435 302.6C434.5 301.8 434 301.7 433.9 299.3C433.9 296.9 433.8 296.5 433 295.7C432.3 294.8 431 292.5 430.4 291.6C429.9 290.6 429.4 289.6 429.4 291.6C429.4 293.7 429.4 294.8 430.6 295.6C431.9 296.3 432.3 296.3 431.7 297.4C431.2 298.4 431.7 299.2 431.9 300C432.2 300.7 432.6 301.5 431.9 302.3C431.2 303.1 430.6 302.8 430.7 301.6C430.7 300.267 430.433 299.067 429.9 298C429.3 297 428.9 296.4 428.2 297C427.6 297.5 427 296.9 427.5 296.4C427.833 296 427.833 295.667 427.5 295.4C427.167 295.133 427.167 294.7 427.5 294.1C428.1 293.4 428.1 293.1 427.8 291.6C427.5 290.1 425.1 282.5 424 280.8C422.9 279.1 423 277.8 424.4 279.5C425.8 281.2 427 282.7 427.2 284.1C427.267 285.433 427.533 286.367 428 286.9C428.467 287.5 428.8 287.233 429 286.1C429.2 284.9 430 285.3 428.6 283.1C427 280.8 424.2 277 423.1 270.1C422.1 263.4 421.6 258.9 420.5 257.1C419.5 255.1 419.1 254.8 419 253.1C418.9 251.4 419 249.6 418.2 248.3C417.5 247 416.9 246.8 416.8 248.7C416.8 250.7 416.9 255 417.5 255.7C418.1 256.4 417.7 258.4 417.5 259.5C417.5 260.5 415.8 261.7 419.3 263.8C420.7 264.7 420.5 265.8 420.3 266.6C420.233 267.467 419.833 267.3 419.1 266.1C418.367 264.9 417.6 263.967 416.8 263.3C416.1 262.6 415.9 262.2 416.1 260.7C416.1 259.2 416.5 258.1 416.1 257.6C415.7 257.1 415.4 257.5 415.1 258.3C415 259.2 414.8 261.6 414.3 262.2C413.967 262.867 413.633 262.467 413.3 261C412.967 259.533 413.3 257.533 414.3 255C415.195 252.326 415.368 249.462 414.8 246.7C414.1 243.4 414.4 242.4 411.9 239.7C409.4 237 406.6 234.5 405.4 231.1C404.2 227.7 404 224.8 402.7 223.3C401.465 221.732 399.978 220.38 398.3 219.3V214.3C398.367 213.1 397.7 212.533 396.3 212.6C395.033 213 394.033 214 393.3 215.6C392.3 217.3 391.7 216.6 390.5 219.3C389.3 222.2 387.5 223.6 387.5 226.6H387.6Z" fill="#CFA763"/>
<path d="M395.399 258.2C396.299 258.7 397.099 259.2 398.399 258.5C399.699 257.8 401.299 255.9 402.999 257.8C404.699 259.6 405.699 262.6 405.699 265C405.699 267.4 405.699 271.8 408.399 274.3C411.099 276.8 412.599 279.3 412.699 282.6C412.959 285.807 413.494 288.985 414.299 292.1C414.624 293.49 415.315 294.767 416.299 295.8C417.099 296.6 417.799 299.1 417.899 301.8C417.999 304.3 417.599 306.1 417.899 307.4C418.199 308.7 417.899 309.8 416.899 309.2C415.899 308.5 415.699 308.2 415.199 307.2C414.599 306 413.999 306.2 414.499 307.9C414.999 309.6 416.699 311 418.099 311C419.499 311 419.999 311.2 420.799 312C421.799 313 421.799 313.4 423.299 313.4C424.899 313.4 425.099 313.4 426.499 313.8C427.899 314.2 427.899 314 428.699 313.8C429.433 313.6 430.099 314.2 430.699 315.6C431.541 317.666 432.177 319.809 432.599 322C432.599 323 432.599 324.2 433.399 325.3C434.099 326.3 433.899 327.4 432.999 326.8C432.099 326.2 432.199 326.3 431.499 326.4C430.799 326.6 430.499 326.2 429.499 325.7C428.699 325.1 429.199 325.3 428.399 324C427.399 322.6 426.899 322.333 426.899 323.2C426.899 324.5 426.899 325.4 426.199 324.8C425.599 324.333 425.099 324.333 424.699 324.8C424.099 325.4 423.899 325.8 423.199 324.8C422.599 323.6 421.799 323.6 421.199 323.4C420.599 323.2 420.499 323.2 420.199 322.2C419.733 321.333 418.999 320.933 417.999 321C417.133 321 416.666 320.667 416.599 320C416.333 319.333 415.999 318.867 415.599 318.6C415.099 318.2 415.299 317.5 415.199 316.7C415.099 315.9 414.399 316.3 413.999 316.1C413.599 315.9 413.199 316 413.199 314.9C413.199 313.8 412.799 313.5 412.499 312.7C412.099 312 412.499 311.2 412.699 310.4C412.899 309.4 412.699 309 412.099 308.2C411.499 307.4 412.099 306.7 410.299 305.2C408.599 303.7 407.699 305 407.099 301.4C406.599 297.8 405.499 290.4 404.499 289.3C403.633 288.1 402.766 287.3 401.899 286.9C400.899 286.6 400.299 286.9 400.199 284.8C400.099 282.8 399.399 280.1 398.199 278.8L395.599 276.6C394.999 276 394.699 275 395.599 273.2C396.499 271.4 396.099 268.9 395.999 267.7C395.899 266.5 395.599 265 395.799 263.7C395.999 262.4 395.899 260.8 395.599 259.9C395.299 259 394.799 258.9 395.399 258.2Z" fill="#CFA763"/>
<path d="M428.5 317.3C427.8 318.6 427 318.1 426.4 317.5C425.8 316.9 425 316.8 425.3 315.6C425.6 314.4 425.5 314.2 424.7 313.6L424.3 313.4H423.3C421.8 313.4 421.7 312.9 420.8 312.1L420.3 311.6V312.4C420.3 313.6 420.3 313.4 419.1 313.7C417.9 314 418.1 312.5 417.9 311.5L417.7 311C416.4 310.7 415 309.3 414.5 307.9C414 306.3 414.6 306 415.2 307.1C415.8 308.2 415.9 308.5 416.9 309.1C417.9 309.7 418.2 308.7 417.9 307.4L417.8 306C417.6 305.6 417.266 305.267 416.8 305C415.1 304.3 415.6 304 415.8 302.7C415.866 301.367 415.4 301.133 414.4 302C413.466 302.8 413.066 302.067 413.2 299.8C413.4 296.4 411.8 297.6 411.5 299.1C411.2 300.6 410.6 299.7 410 297.5C409.4 295.3 408.4 294.8 408.3 296.9C408.3 298.633 407.733 299 406.6 298L407.1 301.4C407.7 305 408.6 303.7 410.3 305.2C412 306.7 411.5 307.4 412.1 308.2C412.766 308.867 412.966 309.6 412.7 310.4C412.5 311.2 412.1 312 412.5 312.7C412.8 313.5 413.2 313.8 413.2 314.9C413.2 315.9 413.6 315.9 414 316.1L414.9 316.2C415.1 315.8 415.366 315.467 415.7 315.2C417 313.8 419 315.2 419.7 316.8C420.366 318.533 421.133 318.8 422 317.6C423 316.3 422.7 316.6 423.8 317.7C424.8 318.9 425.3 318.7 425.3 318.7C425.3 318.7 426.3 318.2 427.2 318.9C427.9 319.5 428.4 319.4 429.8 317.4C431.2 315.4 429.1 316 428.5 317.3Z" fill="#D7C99C"/>
<path d="M429.4 332.4C432 332.2 439.1 330.1 439.9 329.4C441.6 330.7 444.7 332.3 445.9 332.3C443.5 332.7 441.934 332.633 441.2 332.1C441.5 332.8 442.4 334 442.9 334.1C440.5 334 437.9 333.5 436.9 332.6C434.9 333.5 431.4 333.6 429.4 332.4ZM434.1 335.6C435.1 335.9 439.7 336.6 440.3 336.6C438.7 337.9 440 339.2 442.6 339C441.3 339.1 440 339.6 440.9 339.8C443.1 340.2 449.2 338.6 450.4 337.9C448.4 340.6 438.3 343 434.1 335.6ZM438.3 342.2C439.5 341.6 442.6 341.8 444.1 342.5C442.4 343.1 439.2 343.1 438.3 342.2Z" fill="#7FB8C1"/>
<path d="M443 342.1C445.2 341.7 451.5 343.2 453.7 341.9C452.9 343.9 449 344.1 447.6 343.7C446.2 343.3 444.9 342.7 444 342.8C444.5 342.5 443.7 342.5 443 342.1ZM445.2 345.1C446.9 345.4 452.9 344.7 454.8 344C456.8 344.6 460.6 345.7 461.5 345.5C459.6 346.7 456.1 346 454.9 345.5C453.368 346.195 451.697 346.53 450.015 346.478C448.334 346.426 446.686 345.989 445.2 345.2V345.1Z" fill="#7FB8C1"/>
<path d="M448.101 346.2C450.434 346.6 452.701 346.367 454.901 345.5C455.701 345.9 457.401 346.3 459.101 346.2C460.101 346.8 461.601 347.7 463.101 347.8C461.601 348.4 456.101 347.8 455.101 347.2C452.196 347.134 449.307 347.644 446.601 348.7C446.601 348 447.001 346.9 448.101 346.2ZM445.201 334C447.101 334.6 453.901 334.3 457.401 332.7C458.801 332.1 459.601 333.1 458.001 333.7C452.401 335.7 448.001 336.4 444.701 334.7C443.401 334 443.301 333.4 445.201 334ZM478.601 324.8C470.201 328.8 464.601 329.8 453.001 326.3C452.001 326 451.201 326.3 452.401 327.1C453.601 327.8 460.001 329.6 461.501 329.7C463.101 329.7 462.501 330.5 461.501 330.7C460.701 331 460.401 331.7 461.601 331.2C465.308 330.511 469.131 330.787 472.701 332C473.901 332.533 474.401 332.533 474.201 332C474.201 331.533 474.701 331.233 475.701 331.1C476.767 331.033 477.001 330.8 476.401 330.4C475.734 330.2 475.667 329.967 476.201 329.7C476.734 329.433 476.634 329.2 475.901 329C475.101 328.9 474.601 328.7 475.301 328.3C476.234 327.9 477.167 327.633 478.101 327.5C478.301 326.9 478.001 325.4 478.601 324.8Z" fill="#7FB8C1"/>
<path d="M464.7 325.8C469.5 326.1 478.3 324 483 319.4C484.6 320.4 486.9 321.4 488 321.7C489.3 321.9 490.4 323 488.5 323C486.6 323 484 322.2 482.9 321.7C476.6 325.5 469.4 326.7 464.8 326.3C463.5 326.3 463.2 325.7 464.7 325.8ZM457.1 312.3C456.5 312.4 453.7 313.1 452.9 313C452.2 313 451.4 313.2 451.5 313.7C451.5 314.2 451.7 314.6 450.5 314.5C449.5 314.3 448.5 314.8 448.2 315.1C447.9 315.4 447.7 315.8 448.9 315.9C450 315.9 450.6 316.1 451.9 315.5C453.2 314.9 454.5 314 455.9 313.9C457.3 313.9 458.7 312 457.1 312.3Z" fill="#7FB8C1"/>
<path d="M453.201 315.6C454.401 316.4 460.201 318.4 462.401 318.2C464.601 318 464.101 319.1 462.501 319.4C460.709 319.646 458.884 319.515 457.145 319.016C455.406 318.517 453.79 317.66 452.401 316.5C451.001 315.5 452.301 315.1 453.201 315.6Z" fill="#7FB8C1"/>
<path d="M481 318.5C476.6 319.9 472 319.5 470.1 318.9C468.3 318.5 466.6 318.3 467.8 319.5C469 320.7 473.1 321.5 475.4 320.9C467.3 322.8 465.2 322.6 463.2 322.3C460.743 322.02 458.263 321.986 455.8 322.2C454.6 322.2 452.9 322.2 452.2 321.7C451.5 321.2 451.3 320.4 453.4 320.7C455.5 320.9 455.8 320.4 454 320.2C452.1 319.9 449.6 320.7 452 322.2C454.6 323.8 460 322.2 463.5 323.1C466.601 323.926 469.855 323.994 472.988 323.298C476.121 322.602 479.04 321.162 481.5 319.1C481.8 318.9 482.5 318.1 481.1 318.5H481ZM470.6 314C469.6 314 468 313.5 467.1 313.1C466.2 312.7 465.1 312.7 465.9 313.9C466.9 315.2 470.9 315.9 472.3 315.3C473.7 314.7 473.1 314 474.5 314.9C475.9 315.8 477.5 316.3 478.5 316.3C479.5 316.3 479.9 316.3 478.7 315.7C477.566 315.233 476.966 314.767 476.9 314.3C476.9 313.8 476.6 313.5 477.7 313.8C478.7 314.1 479.9 314.8 480.7 314.3C481.5 313.8 483.1 312.9 484.4 312.9L484.8 312.1C482.8 311.9 481.5 312.5 481 312.7C480.4 312.967 479.533 313.033 478.4 312.9C477.4 312.7 476 312.6 475.7 312.4C475.3 312.133 475.5 311.9 476.3 311.7C477.1 311.5 477.4 310.9 476.3 311.2C475 311.4 471.8 311.2 470.1 310.7C468.4 310.2 467.7 310.1 467.1 310.4C466.3 310.7 466.4 311.4 467.5 311.4C468.5 311.5 470.8 311.8 471.6 312.5C472.466 313.233 472.4 313.367 471.4 312.9C470.5 312.6 468.8 312.8 470.6 314ZM509.9 311.1C506.7 313.5 502.8 314.1 498.1 314.3C496.7 314.4 497.1 314.8 498.3 314.9C503.2 315.4 508.8 313.6 510.7 311.7C511.2 311.1 511.2 310.2 509.9 311.1ZM487.7 316.6C490.389 316.97 493.036 317.607 495.6 318.5C496.733 318.367 497.166 318.067 496.9 317.6C496.7 317.2 496.5 316.7 498.7 316.8H506.7C507.5 316.6 509.2 315.3 510 315.2C508 315.3 499.9 315.8 498.8 315.6C497.933 315.533 497.2 315.667 496.6 316C496.133 316.467 495.533 316.533 494.8 316.2C493.9 315.9 492.5 315.5 491.7 316C490.9 316.5 489.2 316 487.7 316.6Z" fill="#7FB8C1"/>
<path d="M506.801 316.9C507.501 316.6 509.201 315.3 510.001 315.2C511.401 315.1 513.001 315.7 513.801 315.8C514.601 315.9 515.401 315.8 514.801 315.2C514.301 314.6 514.801 313.5 517.001 313.8C519.201 314.1 520.401 314.5 522.601 314.2C524.801 313.9 525.701 315.6 529.801 314C529.501 315.6 530.301 315.8 531.001 315.4C531.734 315 532.734 315.267 534.001 316.2C535.901 317.6 543.201 317.2 545.001 316.9C547.001 316.6 547.901 317.6 546.501 318C545.168 318.533 544.701 319.033 545.101 319.5C545.401 320 545.701 320.5 544.001 320.3C542.301 320.1 542.001 320.6 541.001 321.3C540.201 321.9 540.001 322.1 537.601 321.7C535.201 321.3 534.701 321.6 533.401 321.8C532.101 322 531.801 322 530.401 321.6C529.201 321.1 526.401 320.7 524.601 321.3C522.901 321.8 521.601 322.3 520.101 321.9C518.501 321.5 518.401 321.7 519.401 320.7C520.401 319.7 520.601 319.9 522.401 319.7C524.301 319.4 525.701 318.9 524.401 318.1C523.101 317.4 522.701 317.5 520.901 318.3C519.201 319.3 518.301 319.7 516.401 318.7C514.401 317.6 513.401 317.8 512.101 318.1C510.801 318.4 508.601 317.7 506.801 316.9ZM513.301 320.1C510.801 320.5 510.101 318.9 507.501 319.2C506.701 319.3 505.201 320.4 507.201 320.2C509.201 320 511.401 321.2 513.401 321C515.401 320.8 514.401 320 513.401 320.1H513.301ZM510.401 322.1C511.701 321.5 514.401 322.4 515.601 322.2C516.701 322 517.801 322.7 516.601 323.1C515.401 323.5 512.601 322.4 511.201 322.8C509.901 323.1 508.601 322.7 510.401 322V322.1ZM484.401 329C486.201 329 492.701 328.8 495.201 323.4C495.334 322.867 495.734 322.867 496.401 323.4C497.301 323.8 500.301 325.6 505.901 326.1C507.401 326.3 509.101 327.1 505.901 326.8C502.901 326.6 497.901 325.8 496.101 324.8C493.301 329.1 488.201 329.7 484.401 329.6C482.101 329.6 482.701 328.9 484.401 329Z" fill="#7FB8C1"/>
<path d="M498.4 321.6C497.5 322.8 494.5 324.9 493.2 325C491.8 325 487.7 324.7 486.7 324.3C485.7 323.9 484.4 324.1 485.9 325.1C487.4 326.1 491 326.8 492.5 326.5C493.9 326.2 495.6 325.7 496.8 326.4C498 327.1 500 328.4 501.3 328.2C502.817 327.876 504.384 327.876 505.9 328.2C506.7 328.7 508.1 329.8 506 329.2C503.9 328.6 502.2 329 501.2 328.6C502.2 330.1 504.7 332.6 506.8 332.6C507.3 332.6 507.7 333.4 506.6 333.9C507.6 334.4 510 334.8 511.3 333.6C510.967 334.067 511.1 334.4 511.7 334.6C512.2 334.9 512.9 335.2 511.9 335.3C510.9 335.5 508.7 335.7 508 335.5C511.993 337.796 516.655 338.644 521.2 337.9C522.3 337.7 522.9 337.2 521.2 337.3C517.5 337.4 517.3 337.3 516.7 337C515.967 336.6 516.134 336.267 517.2 336C518.2 335.6 520.8 335.2 521.9 335.2C522.9 335.2 524.1 334.8 521.9 334.8C519.7 334.8 516.9 334.8 515.9 334.4C514.7 334.1 513.9 333.6 515 332.8C516.2 332.1 517.4 332.3 518 331.6C514.3 331.6 510 329.6 512.4 327.9C513 327.567 512.8 327.4 511.8 327.4C510.9 327.3 508.2 326.5 507.1 325.8C505.9 325.2 506.7 324.7 507.6 324.5C505.5 324.9 501.2 323.7 498.4 321.6ZM530.4 321.6C528.4 323 524.7 323.6 523.1 323.6C521.5 323.733 521.334 323.967 522.6 324.3C523.8 324.4 525.2 324.6 525.7 324.4C526.2 324.2 526.6 324.2 527.4 324.6C528.683 325.09 530.095 325.125 531.4 324.7C533 324.2 535.5 324 536.5 324.1C537.5 324.2 538.7 324.1 536.6 323.6C534.6 323 531.2 323.4 530.4 323.6C529.6 323.8 527.4 323.6 528.5 323.3C529.521 322.955 530.496 322.485 531.4 321.9L530.4 321.6ZM529.3 325.7C527.384 327.162 525.099 328.062 522.7 328.3C524.9 329.1 526.9 331.4 528.3 331.3C527.567 331.833 526.734 332.233 525.8 332.5C527.2 332.9 529.6 332.5 531.6 331.4C534.8 332.3 539.1 331.7 540.5 330.4C538.4 330.4 535.8 329.7 534.7 328.8C535.767 328.667 536.6 328.233 537.2 327.5C534.7 328 530.5 326.8 529.3 325.7Z" fill="#7FB8C1"/>
<path d="M525.8 332.5C526.8 332.4 527.6 331.7 528.3 331.3C526.5 331.9 518.7 330.7 516.3 328.6C514 326.6 514 328.1 515.6 329.6C517.3 331 520.2 333.2 525.8 332.5ZM531.6 337.5C530.6 338 525.9 338.3 524.4 338C522.867 337.667 522.267 337.8 522.6 338.4C523 339 523.2 339.6 521.9 339.4C520.6 339.2 518.4 339.5 517.5 339.8C516.6 340.1 515.5 341 517.4 340.6C519.4 340.3 521.1 339.9 522.6 340.3C524.1 340.7 529.3 340.8 530.3 340.3C531.3 339.8 530.7 339.9 530.2 339.9C529.7 339.9 529.5 339.6 530.2 339.3C530.9 339 531.4 338 531.6 337.5ZM486.3 331.2C484.3 332.1 477.8 333.8 476.1 333.9C473.834 334.9 472.167 335.4 471.1 335.4C472.585 336.248 474.302 336.599 476 336.4C475.3 337 473.8 337.8 473.3 338.1C475 337.9 477.1 338.3 478 338.4C475.824 339.564 473.361 340.084 470.9 339.9C471.434 340.833 472.2 341.333 473.2 341.4C471.1 342 468.6 342 467.2 341.6C467.8 342.667 468.467 343.267 469.2 343.4C467.4 343.6 465.2 343.9 463.4 342.9C464.8 344.7 467.867 345.333 472.6 344.8C477.3 344.3 481.2 342.2 482.3 341.3C480.3 341.6 477.7 341.7 476.4 341.4C479.683 340.538 482.817 339.19 485.7 337.4C484.567 337.4 483.567 337.133 482.7 336.6C485.568 336.689 488.432 336.352 491.2 335.6C489.2 335.1 488.1 333.9 487.5 333.1C493.422 334.813 499.678 335.019 505.7 333.7C506.6 333.5 506.7 332.4 504.9 332.5C501.9 332.7 496 331.8 494.5 331.1C495.9 332.1 497.6 332.8 498.8 333.1C496 333.8 492.1 334.3 486.3 331.1V331.2Z" fill="#7FB8C1"/>
<path d="M473.301 338.1C473.801 337.8 475.301 337.1 476.001 336.4C474.303 336.599 472.586 336.248 471.101 335.4C472.168 335.4 473.834 334.9 476.101 333.9C472.101 333.8 469.501 333.8 468.101 333C466.601 332.3 464.101 332.5 463.101 332.7C462.101 332.9 462.401 334.5 466.501 334.1C463.981 335.298 461.16 335.716 458.401 335.3C458.934 336.833 459.034 338.033 458.701 338.9C462.207 340.567 466.021 341.486 469.901 341.6C467.301 340.6 465.901 339.5 468.101 339.3C470.201 339.1 471.401 338.6 473.301 338.1ZM466.501 345.1C471.701 344.7 478.701 344.6 484.301 339.9C485.701 338.7 486.601 339.1 485.301 340.4C482.301 343 475.001 346.5 468.101 346.6C465.201 346.6 463.901 345.3 466.501 345.1ZM505.501 336.6C504.201 337.1 500.501 337.6 499.501 337.6C498.501 337.3 496.801 337.3 496.001 337.8C494.934 338.4 495.001 338.733 496.201 338.8L499.701 339C498.701 339.5 498.101 340.3 497.901 340.6C499.601 340.2 502.901 340.9 503.701 341.4C502.968 341.6 502.301 341.5 501.701 341.1C504.601 344.1 513.301 344.1 514.701 343.6C514.034 344.2 513.368 344.567 512.701 344.7C515.201 345.2 518.001 345.1 520.801 343.5C519.801 343.7 517.101 343.4 516.401 343.3C516.992 342.734 517.713 342.322 518.501 342.1C517.501 341.9 514.001 342 513.201 342.4C513.601 341.733 514.134 341.167 514.801 340.7C510.501 340.7 505.301 340.7 503.401 339.7C506.401 339.9 509.801 338.2 511.201 338.2C508.801 338.1 506.201 337.6 505.501 336.6ZM494.601 339C492.501 339.4 489.301 340.3 488.401 340.7C487.501 341.2 486.601 341.5 488.501 341.5L489.201 341.3C488.401 341.3 487.501 341.3 488.901 340.9C490.401 340.4 492.201 339.4 494.601 338.9V339ZM490.301 344C491.101 344 494.301 344 495.701 342.9C497.001 343.9 499.701 345.3 501.301 345.3C503.001 345.3 502.901 345.8 501.301 345.9C499.901 346.1 497.001 345.2 495.601 344.1C493.601 344.9 492.001 344.3 490.301 344ZM465.101 358.5C468.501 359.8 473.001 360.8 476.201 359.7C478.101 361.3 481.901 361.4 483.901 361C486.001 360.6 487.901 360.3 490.101 361.1C492.301 361.9 497.101 361.9 498.401 363C497.201 363 494.701 363 494.101 363.2C493.501 363.333 493.768 363.667 494.901 364.2C490.693 364.116 486.542 365.188 482.901 367.3C483.601 365.6 485.701 363.3 489.201 363.3C487.201 362.7 480.901 362.6 478.901 363.8C478.327 363.198 477.884 362.483 477.601 361.7C474.301 363.6 467.701 360.9 465.101 358.5ZM456.501 352.5C460.501 351.9 463.201 350.6 464.501 349.5C465.101 350.1 468.101 350.7 471.301 349.8C470.601 350.2 470.601 351.2 470.801 351.7C468.801 351.7 464.701 352.7 463.301 353.4C462.001 354.1 458.001 354.6 456.701 353.9C455.368 353.167 455.301 352.7 456.501 352.5Z" fill="#7FB8C1"/>
<path d="M470.801 351.7C468.801 351.7 464.701 352.7 463.301 353.4C463.634 354.067 463.801 354.733 463.801 355.4C469.096 353.903 474.61 353.328 480.101 353.7C478.501 353.8 475.401 355.5 473.701 355.7C476.856 355.515 480.022 355.785 483.101 356.5C484.234 356.833 484.401 357.433 483.601 358.3C482.401 359.6 482.401 359.3 484.201 359.3C486.001 359.3 489.501 359.1 491.201 357.5C490.501 356.8 488.801 357.1 488.201 356.6C489.321 356.229 490.346 355.614 491.201 354.8C488.201 354.8 487.201 354.8 486.201 354.5C485.201 354.2 484.501 354 485.701 353.4C486.532 353.016 487.279 352.472 487.901 351.8C485.701 352.4 482.401 352.8 479.601 350.7C480.601 350.9 483.101 350.7 484.001 350.4C483.067 349.867 482.234 349.567 481.501 349.5C483.801 348.5 488.201 347.5 493.601 349.7C496.301 349.4 499.301 349.5 501.301 350.1C502.301 349.2 504.101 347.1 505.001 346.6C498.601 347.2 487.001 346 487.301 342.6C485.301 345.3 480.501 346.8 478.301 346.4C478.201 347.4 479.001 348.6 479.801 349.2C477.601 349.7 473.901 350 472.201 349.7C473.201 350.7 475.001 351.5 476.101 351.4C473.801 351.4 472.601 351.8 470.801 351.7Z" fill="#7FB8C1"/>
<path d="M484.2 359.3C485.9 359.3 489.5 359.1 491.2 357.5C490.5 356.8 488.8 357.1 488.2 356.6C489.32 356.229 490.345 355.614 491.2 354.8C495.8 354.5 499.9 354.7 501.8 354.1C503.7 353.5 508.8 353.8 509.8 353.5C505.4 354.2 504.6 354.6 504.3 355.3C504 356 505.7 356.6 506.8 356.6C504.8 356.6 502.4 358.6 502.2 359.4C499.5 357.9 498.3 359.6 498 360.2C497 359.8 493.3 359.9 491.5 361.5C489.1 360.8 487.5 360.4 485.1 360.8C486.6 360.4 486.3 359.5 484.1 359.3H484.2ZM505 346.6H510.9C510.156 346.946 509.479 347.42 508.9 348C512.6 347.5 517.699 347.3 519.099 347.5C517.299 347.2 515.499 348.4 514.599 349C513.599 349.5 514.2 350 515.4 350C516.7 350.2 518.399 351.2 516.099 350.9C513.799 350.6 509.3 350.6 508.2 350.7C507.2 350.9 506.5 350.4 508.1 350.1C509.633 349.833 510.766 349.467 511.5 349C510.2 349.3 507.7 349.3 506.9 349C506.1 348.7 505.7 348.4 506.6 348.2C507.5 348 506.8 347.7 505.9 347.8C504.9 347.8 502.6 348.8 501.3 350.1C502.766 348.567 504 347.4 505 346.6ZM488.5 349.1C490.1 351.1 492.5 352.167 495.7 352.3C496.4 352.3 497.7 353.3 496.1 353.3C491.5 353.5 489.2 352.4 487.2 349.5C486.8 348.9 487.6 348.1 488.5 349.1ZM546.5 324.5C545.1 325.5 543.3 327 544.5 329.3L544.9 329.1C550.11 322.84 554.729 316.111 558.7 309V308.3C557.258 309.534 555.64 310.545 553.9 311.3C554.5 312.9 551.5 315.3 549.9 315.9C550.5 316.9 550.3 318.6 548.9 318.9C549.2 319.9 548.1 319.9 546.9 320.4C545.566 320.867 544.733 321.4 544.4 322C545.1 321.6 546.099 321.3 546.599 321.5C547.099 321.7 547.3 322.5 546.3 322.7C545.3 322.967 544.633 323.333 544.3 323.8C545.8 323.3 547.8 323.6 546.4 324.5H546.5ZM450.5 299.9C452.2 301 455.1 302.9 458.8 302.6C460.7 304.1 463.5 305.3 464.8 305.6C462.3 306.6 459.6 307.5 458.9 308.3C457.8 307.3 456.3 307.3 455.9 306.8C454.966 307.733 454.9 308.367 455.7 308.7C458.155 309.476 460.727 309.814 463.3 309.7C464.6 309.3 465 310.4 463.9 310.7C460.9 311.8 455.2 310.8 453.3 307.7C451.4 304.6 449.6 303.4 444.3 306.3C443.7 304.7 443.7 304.3 442.7 304.3C441.7 304.3 439.7 303 441.2 303.1C442.7 303.1 447 302.5 450.5 299.9Z" fill="#7FB8C1"/>
<path d="M451.801 306.8C450.901 307.1 448.401 308.5 447.401 308.6C446.501 308.6 444.901 310 446.601 310C448.301 310 450.401 308.3 451.601 308C452.801 308 452.901 306.6 451.801 306.8ZM459.001 311.9V313.4C458.801 313.8 458.801 314.3 459.501 313.8C460.201 313.3 460.701 312.6 461.401 312.9C462.101 313.3 463.901 313.3 464.701 313.2C465.634 313.133 465.601 312.867 464.601 312.4C463.649 312.009 462.63 311.805 461.601 311.8C460.921 311.837 460.24 311.735 459.601 311.5C459.001 311.3 458.801 311.433 459.001 311.9ZM484.801 312.1L484.401 312.9C486.401 312.9 491.401 313.3 492.901 314.3C494.401 313.1 494.201 312.7 495.201 312.9C496.301 313.2 497.701 313.5 498.301 313.2C498.834 312.933 499.401 312.9 500.001 313.1C500.601 313.1 502.001 312.9 502.901 312.4C503.801 311.9 505.401 311.3 506.301 311.3C507.301 311.3 508.501 311.1 506.701 310.8C504.879 310.646 503.044 310.849 501.301 311.4C500.301 311.7 497.601 311.9 496.001 311.9C494.301 311.9 492.101 312.7 490.201 312.2C488.301 311.7 485.801 312.1 484.801 312.1ZM515.701 311.3C518.101 312.5 522.901 313.4 526.701 313.3C527.301 313.3 528.701 313.9 527.001 314.1C522.801 314.567 518.934 313.833 515.401 311.9C514.401 311.4 514.801 310.9 515.701 311.3ZM518.201 311.3C521.934 311.1 524.468 311.433 525.801 312.3C527.801 311.6 531.701 311.3 532.601 311.4C533.401 311.6 534.401 311.2 532.401 310.7C530.401 310.2 525.701 310.1 524.201 310.4C522.701 310.7 518.201 310.8 516.701 310.6C517.234 310.6 517.734 310.833 518.201 311.3ZM532.501 312.7C534.201 311.8 539.301 312.7 540.801 312C539.701 313.3 544.301 313.4 548.201 312.4C546.701 313.4 543.401 313.5 542.001 314.1C540.601 314.7 539.801 314.3 538.801 313.8C537.701 313.3 534.901 312.4 532.501 312.8V312.7Z" fill="#7FB8C1"/>
<path d="M548.2 312.4C544.2 313.4 539.7 313.4 540.8 312C539.3 312.7 534.2 311.8 532.5 312.7C534.3 311.7 535.7 312.5 537 310.3C537.8 310.5 539.7 310.6 540.3 309.7C541.5 310 543.5 310.5 544.1 311.1C544.7 311.7 545.6 310.9 544.9 310C546.6 309.3 545.5 310.7 549.7 309.7C550.6 309.5 552.7 309.1 553.4 309.1C551.804 310.402 550.058 311.51 548.2 312.4Z" fill="#7FB8C1"/>
<path d="M581.099 197C580.899 264.8 570.099 338 481.699 372.8C393.199 337.9 382.399 264.8 382.199 197H581.099Z" stroke="black" stroke-width="2"/>
<path d="M421.7 227.5C420.284 229.433 418.561 231.122 416.6 232.5C414.6 233.9 411.9 235 413.4 237.5C414.8 239.9 416 240.2 416.3 242.1C416.6 244 417 245.5 418.5 246C419.9 246.4 420.5 246.1 420.5 249.1C420.5 252.1 420.5 253.3 421.8 254.4C423.1 255.6 423 256.8 423.5 259.4C424.1 262.2 424.1 268.1 425.9 272.2C427.6 276.2 431.5 283.8 431.1 285.4C430.6 287 430.1 288.1 431.8 290C433.5 291.9 434.8 294.6 434.8 296.2C435 297.8 435.3 298.4 437 297.8C438.219 297.467 439.324 296.81 440.2 295.9C440.867 295.233 442 295.333 443.6 296.2C445.2 297.1 447.6 297.9 449.1 297.1C450.5 296.1 451.2 294.9 452.5 294.9C454.5 293.5 455.3 290.4 455.7 289.6C456.2 288.7 455.9 288.7 455 287.8C454.1 286.9 454.6 285.5 454.4 284.1C454.4 282.767 453.6 280.5 452 277.3C450.2 274.2 449.2 270.3 448 269.3C446.9 268.3 446.3 265.8 446.2 264.7C446 263.5 444.7 262.5 443.8 261.7C443 260.7 442.1 259.5 441.1 254.4C440.1 249.3 439.3 245.8 439.3 244.9C439.433 244.233 439.1 243.833 438.3 243.7C437.5 243.4 437 241.9 437.3 241.2C437.6 240.5 437 239.8 436.7 238.9C436.4 238 436.7 236.5 437.3 235.6C437.9 234.7 437.8 232.3 437.2 230.3C436.6 228.3 436 226.5 433.7 226.3C431.4 225.9 430.9 225.3 430.1 223.5C429.2 221.6 428.3 218.3 428.1 217.5C427.7 216.9 427.3 216.7 425.6 218.2C423.8 219.6 423.3 220.1 423.3 222.8C423.3 224.5 423.5 225.1 424.1 226.1C424.7 227.1 424.8 227.4 425.3 230.1C425.8 232.8 428.2 237.1 425 239.6C421.8 242.1 422.2 242.6 422.4 244.4C422.6 246.2 421.5 247.2 420.9 244.8C420.367 242.467 420.967 240.8 422.7 239.8C424.4 238.6 426 237.2 424.8 235.6C423.74 233.415 423.16 231.028 423.1 228.6C423.1 226.667 422.633 226.333 421.7 227.6V227.5Z" fill="#CFA763"/>
<path d="M395.801 264.2C395.801 265.467 395.901 266.633 396.101 267.7C396.201 268.9 396.501 271.4 395.701 273.2C394.701 275.1 395.001 276 395.701 276.6C397.501 276.1 397.701 274.1 397.301 273.2C396.834 272.067 396.901 270.967 397.501 269.9C398.101 268.967 398.101 268.2 397.501 267.6C397.101 266.9 397.101 266.9 397.701 264.9C398.201 263.1 396.901 263.1 395.801 264.2ZM414.401 292.2C414.001 290.8 412.801 285.9 412.701 282.6C412.701 279.467 411.301 276.7 408.501 274.3C406.401 272.3 405.901 269.3 405.801 266.9C404.201 265.9 403.501 266.3 403.701 268.1C403.801 270.1 405.701 271 405.501 273.8C405.201 276.6 405.201 275.9 406.501 277.3C408.034 278.7 408.434 279.767 407.701 280.5C407.001 281.1 406.901 282.1 407.901 282.5C408.901 282.9 409.001 283.9 408.901 284.9C408.801 285.9 409.701 286.1 410.301 286.9C410.801 287.6 410.901 289.3 410.301 290.3C409.701 291.3 409.701 292.9 410.701 292C411.701 291.2 412.201 292 412.901 293.3C413.601 294.5 414.201 294.1 414.901 293.8L414.401 292.1V292.2ZM405.901 232.2C404.801 232.2 404.101 233.2 404.701 236.5C405.101 238.5 403.501 238 402.901 237C402.401 236 401.901 233.9 400.801 232C399.701 230.1 400.201 233.3 400.001 235C399.901 236.7 401.001 236.7 402.001 238.2C403.001 239.6 402.201 240.2 401.001 240.2C399.801 240.2 400.501 242.5 400.801 244.1C401.101 245.7 400.501 246 399.601 244.7C398.701 243.4 399.301 241.3 399.501 238.9C399.701 236.5 399.801 237 398.201 236.5C396.601 236 396.801 235.5 397.401 234.1C398.001 232.7 398.601 232 397.901 231.3C397.101 230.567 397.268 230.133 398.401 230C399.601 229.8 399.201 229 400.201 228.7C401.201 228.4 401.601 228.8 401.801 227C401.901 225.4 402.401 224.4 403.601 225C404.301 227.3 405.201 231 405.901 232.2ZM432.401 258C432.801 254.9 432.501 251.7 433.801 250.6C435.101 249.5 436.801 247.1 436.601 252C436.401 256.9 436.301 256.6 435.301 257.8C434.301 258.9 433.401 259.2 434.401 261.1C435.401 263 435.601 263.1 435.401 266C435.301 268.8 435.301 270 436.401 271.4C437.501 272.8 437.901 273 438.201 274.6C438.588 276.446 439.49 278.145 440.801 279.5C442.101 280.6 443.601 284 443.701 286.3C443.801 288.6 445.901 289.1 447.701 290.7C449.701 292.3 447.301 293.5 445.901 292.7C444.401 292 445.001 292.7 444.101 293.7C443.201 294.7 443.001 294.9 442.201 293.2C441.501 291.4 439.101 290.2 437.901 289.9C436.701 289.4 435.701 287.6 434.701 285.7C434.268 284.919 433.667 284.244 432.94 283.725C432.213 283.206 431.38 282.856 430.501 282.7C431.034 284.033 431.234 284.933 431.101 285.4C430.601 287 430.101 288.1 431.801 290C433.501 291.9 434.801 294.6 434.801 296.2C435.001 297.8 435.301 298.4 437.001 297.8C438.22 297.467 439.325 296.81 440.201 295.9C440.868 295.233 442.001 295.333 443.601 296.2C445.201 297.1 447.601 297.9 449.101 297.1C450.501 296.1 451.201 294.9 452.501 294.9C454.501 293.5 455.301 290.4 455.701 289.6C456.201 288.7 455.901 288.7 455.001 287.8C454.101 286.9 454.601 285.5 454.401 284.1C454.401 282.767 453.601 280.5 452.001 277.3C450.201 274.2 449.201 270.3 448.001 269.3C446.901 268.3 446.301 265.8 446.201 264.7C446.001 263.5 444.701 262.5 443.801 261.7C443.001 260.7 442.101 259.5 441.101 254.4L439.401 245.9C438.401 247.5 437.734 247.833 437.401 246.9C436.901 245.5 436.301 244.8 435.701 245.7C435.101 246.5 435.001 244.9 435.001 244.2C435.001 243.5 434.901 243.4 434.101 243.4C433.401 243.4 434.001 242.2 433.701 240.1C433.401 237.9 433.001 237.6 432.701 240.2C432.401 242.8 430.901 244.4 431.501 244.9C432.034 245.567 431.934 246.733 431.201 248.4C430.971 249.03 430.87 249.7 430.904 250.37C430.939 251.04 431.108 251.697 431.401 252.3C431.801 253.4 431.101 255.6 430.801 257.5C430.501 259.3 432.001 261.2 432.401 258ZM420.401 249.1C420.401 252.1 420.401 253.3 421.801 254.4C423.101 255.6 423.001 256.7 423.501 259.4C424.001 262.1 424.101 268.1 425.901 272.2L427.901 276.5C428.801 275.7 429.601 274.5 429.901 273.7C430.401 272.7 429.101 270.7 428.001 269C426.901 267.3 428.201 266.7 429.201 264.5C430.201 262.4 429.101 262.2 427.501 261.6C425.901 261.1 425.901 259.6 425.001 257.3C424.101 255 424.301 254 424.801 252.7C425.401 251.367 425.068 250.5 423.801 250.1C422.701 249.8 423.001 249 423.401 247.5C423.801 246.1 424.101 245.8 422.401 246.2C421.268 246.533 420.601 246.867 420.401 247.2V249.1Z" fill="#D7C99C"/>
<path d="M447.9 248L444.4 286M458.4 271.2C456.888 277.931 455.12 284.603 453.1 291.2M503.8 252.9C506.5 255.4 510 255.9 513.9 257.9M521.3 269.8L519.3 284.4M519.3 270.4L515.9 285.4M456 271.7C454.267 277.9 452.3 283.833 450.1 289.5" stroke="black" stroke-width="0.5"/>
<path d="M531.4 307L531.1 307.1H530.5L530.2 307.2H529.9L529.6 307.3L529.4 307.5L529.2 307.7L529 308L528.8 308.2L528.5 308.6L528.4 308.7L528.2 308.9L528.1 309.1C527.341 309.763 526.4 310.181 525.4 310.3C524.376 310.502 523.323 310.502 522.3 310.3C520.833 310.367 519.633 310.133 518.7 309.6C517.7 309.1 516.5 309.5 515.7 309.9C515.1 310.2 515 310.9 514.3 311C513.9 311.6 512.1 311.5 511.3 311.3C509.966 311.3 508.733 311.033 507.6 310.5C506.9 310 505.6 309.6 504.8 310.5C504.266 311.033 503.533 311.367 502.6 311.5C501.1 311.5 499.3 311.8 498.1 311.2C496.8 311.1 496.4 310.4 495.1 310C493.8 309.8 493.2 310.5 492.3 310.8C491.633 311.333 490.566 311.533 489.1 311.4C487.7 311.4 486.1 311.6 485.1 311C484.1 311 483.3 310.3 482.4 309.9C481.6 309.2 480.1 309.9 479.4 310.3C478.1 310.5 477.7 311.4 476.1 311.3C474.8 311.2 474 310.6 472.8 310.3C471.7 309.8 470.8 309 469 309.1C468.333 309.767 467.366 310.1 466.1 310.1C465.1 310.1 464.166 310.033 463.3 309.9C461.2 309.9 460.2 307.6 458.7 306.4L451 299C451.4 297.7 451.6 297.4 450.9 296.5C451.1 295.2 450.2 295 450.6 293.7C451.2 292.7 449.6 292.8 449.2 292.3C448.2 292.1 447.9 291.4 447 291.1L444.7 289.8L442.5 288.7L440.7 287.4L439 286L437.2 284.9C436.6 284.367 435.933 283.933 435.2 283.6C434.3 283.3 433.5 282.6 432.4 282.4C431.7 282.4 431.5 280.8 432.8 280.9C433.8 280.9 434.3 281.5 435 281.9C436.066 282.433 437.233 282.833 438.5 283.1L440.8 284.1C441.6 284.7 442.6 284.8 443.5 285.4C444.4 285.8 445.5 286.2 445.9 286.7C446.7 287 447.1 287.5 447.9 287.8L449.2 288.8C449.866 289 450.533 289.333 451.2 289.8C451.866 290.067 452.433 290.4 452.9 290.8C453.5 291 457.7 293.1 457.5 292.8C461.6 293.6 463.5 293.8 467.5 294.5L497.6 294.9L508.5 290.4L511.8 285.1L527.9 282.2C527.6 281.9 556.1 281.2 556.7 283.6C557 284.6 557.7 286.6 556.8 287.1C556.2 287.4 529.8 283.8 529.5 286.1C529.3 287.1 529.5 293.6 529.7 294.6L530.1 297.6L530.6 300.8L531 303.8L531.4 307Z" fill="#666666"/>
<path d="M449.8 266.6C445 272.1 440.2 276.5 435 280.7M476.5 244.1L492.2 230.6M469.5 257.5C472.6 259.7 476.1 261.6 480.9 262.8M467.3 237C469.3 240 471.5 243 478.3 244.9M462.8 206.2C460.139 209.472 456.748 212.075 452.9 213.8M468.5 225.2C470.992 227.294 473.884 228.859 477 229.8M468.5 272.3C469.758 279.135 471.326 285.908 473.2 292.6" stroke="black" stroke-width="0.5"/>
<path d="M467.199 292.5C475.299 284.1 482.199 275.2 486.799 264.9M503.399 234.8C505.999 237.5 508.699 239.6 512.899 240.8M514.699 224.8C516.899 228.8 519.599 231.7 522.099 234.9M490.599 212.4C490.399 216.4 487.999 220.3 486.299 223.7" stroke="black" stroke-width="0.5"/>
<path d="M496.3 214.3C493.3 217.6 490.6 221 486.6 223M496.8 200.3C494.609 201.787 492.262 203.028 489.8 204M526.4 230.2C524 233.1 521.6 236.4 517.7 238.9M526.9 253.9C523.8 256.9 521 260.3 517.5 262.5M527.4 282.3C533.466 279.033 539.2 275.2 544.6 270.8C540.1 275.2 535.4 279.6 530.4 282.8M528.8 230.8C529.8 233.4 532.1 236.3 534.4 238.1" stroke="black" stroke-width="0.5"/>
<path d="M525.5 205L525 282.9L530.7 282.6L528.3 204.7L525.5 205Z" fill="#BCA76B" stroke="#472B1F" stroke-width="0.4"/>
<path d="M529.201 305.4L532.301 308C535.001 310.4 536.501 310.4 540.101 308C541.401 308.2 542.701 309 544.101 308.7C545.501 308.633 546.801 308.467 548.001 308.2C549.401 307.8 549.701 306.1 550.201 304.8C550.901 303.5 551.501 301.8 552.601 300.7C553.901 299.7 555.301 298.9 556.201 297.5C557.067 296.3 557.301 294.9 556.901 293.3L556.601 289.3C556.401 287.4 557.901 286.1 557.601 284.3C556.901 283.6 555.401 283.3 554.301 283C552.227 282.518 550.122 282.184 548.001 282L542.701 281.7L537.701 281.4C535.701 281.333 533.767 281.367 531.901 281.5C530.601 281.8 528.901 281.7 527.701 282.3C527.274 283.592 527.038 284.94 527.001 286.3L526.701 289.9C526.701 292.2 526.401 294.4 527.101 296.5L528.101 301.7C528.101 303.1 528.101 304.4 529.101 305.4H529.201Z" fill="#333333" stroke="black" stroke-width="1.3"/>
<path d="M535.701 267.5L543.501 282M555.001 282.7C552.801 280.3 551.001 277.467 549.601 274.2" stroke="black" stroke-width="0.5"/>
<path d="M554.501 260.2L557.101 262H557.201C556.401 261.3 555.601 260.4 554.501 260.2ZM549.201 260.9L548.901 261L545.301 275L549.201 260.9ZM566.201 261.5C565.334 261.567 564.467 261.833 563.601 262.3L565.101 261.8L567.101 261.5H566.101H566.201ZM549.601 274.2L548.901 274.3C549.539 274.271 550.169 274.446 550.701 274.8L549.601 274.2ZM551.001 274.9C551.867 275.567 552.801 276.1 553.801 276.5L551.001 274.9ZM559.301 275.7L554.501 276.7C556.167 276.567 557.767 276.233 559.301 275.7Z" fill="#472B1F"/>
<path d="M549.301 260L545.301 275L549.601 274.1L554.101 276.7L560.901 275.3L564.401 275.8C565.401 271 565.101 265.4 567.901 261.3L565.101 261.8L560.601 263.3L557.001 262L554.201 260H549.301Z" fill="white"/>
<path d="M555.9 261.9C554.988 263.2 554.436 264.718 554.3 266.3L551.3 265.4H547.9V265.5L546.9 269.1C546.9 269.1 549.6 268.7 550.9 268.9C551.7 269 553.3 269.9 553.3 269.9L552 275.5L552.9 276L554.7 276.5L555.5 276.4C555.834 274.267 556.334 272.467 557 271C557 271 559.8 271.7 561.3 271.6L565.1 271.3L565.6 267.7C565.1 267.8 562.7 268.4 561.4 268.3C560.246 268.019 559.136 267.582 558.1 267C558.434 265.8 558.9 264.567 559.5 263.3L555.9 261.9Z" fill="#C8102E"/>
<path d="M546.4 260C544.5 255 542.3 246.9 541.4 240.4" stroke="black" stroke-width="0.7"/>
<path d="M548 261.2C548 261.2 552.4 260.2 554.3 260.5C556.3 260.9 557.4 263.1 559.5 263.5C561.8 263.8 563.7 261.7 566.1 261.5L569.4 261.8L567.8 267.3L566.5 271.9V276C566.5 276 562.8 275 560.8 275.4C558.3 275.6 556.4 276.9 554 276.7C552.2 276.3 551.4 274.8 549.5 274.4C548.2 274 544.5 275 544.5 275L548 261.2Z" stroke="#472B1F" stroke-width="1.3"/>
<path d="M548.8 261L547 261.1L541.4 281.1L544 281.3L548.8 261Z" fill="#BCA76B" stroke="#472B1F" stroke-width="0.3"/>
<path d="M547 261.1C546.2 260.7 545.7 259.4 546 258.6C546.5 257.6 548 257.5 549 257.8C550.1 258.1 551.6 259.2 551.2 260.3C550.8 261.6 548.2 261.8 547 261.1Z" fill="#BCA76B" stroke="#472B1F" stroke-width="0.3"/>
<path d="M567.699 261.6C564.999 265.6 565.199 270.9 564.199 275.6L566.499 276V272L567.899 267.3L569.399 261.9L567.699 261.6Z" fill="#472B1F"/>
<path d="M535.4 245.3C538.3 247.3 541.1 252.3 545.1 256.3M540.7 238C538.41 231.217 537.064 224.15 536.7 217M532.5 270.2L536.9 281.8M536.9 211.5C533 210.5 529.4 207.9 528.9 205.7M511.9 215.3C514.4 215.5 523.1 209.1 524.4 205.7M534 268.5L540.1 281.5M533.5 272.9L538 271.3M534.3 275.3L539 273.3M536.2 280.3L541.4 278.1M530.9 254.6L537.2 261.3M517.7 270.8L513.4 285.3M516.5 274H520.9M515.5 277.6L520.5 277.7M514.3 281.3L519.8 282.3" stroke="black" stroke-width="0.5"/>
<path d="M528.8 203C527.8 202.7 525 202.6 523.9 203.5C523.4 203.9 523.9 205.5 524.6 205.5C526 205.5 527.9 205.5 528.6 205.2C529.1 204.7 529.5 203.2 528.8 203Z" fill="#BCA76B" stroke="#472B1F" stroke-width="0.4"/>
<path d="M513 215.2C514.9 222.8 522.9 221.5 522.6 214.6L513 215.2Z" fill="#BCA76B"/>
<path d="M513 215.2C514.9 222.8 522.9 221.5 522.6 214.6" stroke="#472B1F" stroke-width="0.5"/>
<path d="M520.398 214.8C522.898 223.6 533.398 222.2 532.898 214.2L520.398 214.8Z" fill="#BCA76B"/>
<path d="M520.398 214.8C522.898 223.6 533.398 222.2 532.898 214.2" stroke="#472B1F" stroke-width="0.7"/>
<path d="M529.299 214.7C531.699 221.1 534.999 219.9 538.999 214L529.299 214.7ZM541.299 211.7L511.699 213.4V215.4L541.699 213.8L541.299 211.7ZM513.999 241.4C515.999 249.6 524.299 248.4 523.999 240.8L513.999 241.4Z" fill="#BCA76B"/>
<path d="M529.299 214.7C531.699 221.1 534.999 219.9 538.999 214M513.999 241.4C515.999 249.6 524.299 248.4 523.999 240.8M541.299 211.7L511.699 213.4V215.4L541.699 213.8L541.299 211.7Z" stroke="#472B1F" stroke-width="0.5"/>
<path d="M521.799 241C524.199 250.7 535.099 249.2 534.699 240.6L521.799 241Z" fill="#BCA76B"/>
<path d="M521.799 241C524.199 250.7 535.099 249.2 534.699 240.6" stroke="#472B1F" stroke-width="0.7"/>
<path d="M530.999 241C533.399 248 536.799 246.7 541.099 240.4L530.999 241ZM543.499 238L512.799 239.2V241.4L543.799 240.3L543.499 238ZM513.299 264.9C515.299 273.5 523.799 272.1 523.499 264.2L513.299 264.9Z" fill="#BCA76B"/>
<path d="M530.999 241C533.399 248 536.799 246.7 541.099 240.4M513.299 264.9C515.299 273.5 523.799 272.1 523.499 264.2M543.499 238L512.799 239.2V241.4L543.799 240.3L543.499 238Z" stroke="#472B1F" stroke-width="0.5"/>
<path d="M521.199 264.6C523.199 277.3 534.999 272.7 534.399 263.6L521.199 264.6Z" fill="#BCA76B"/>
<path d="M521.199 264.6C523.199 277.3 534.999 272.7 534.399 263.6" stroke="#472B1F" stroke-width="0.7"/>
<path d="M530.6 264.3C533.3 271.5 536.8 270.1 541 263.5L530.6 264.3Z" fill="#BCA76B"/>
<path d="M530.6 264.3C533.3 271.5 536.8 270.1 541 263.5" stroke="#472B1F" stroke-width="0.7"/>
<path d="M543.5 261L512 262.8V265L543.8 263.3L543.5 261Z" fill="#BCA76B" stroke="#472B1F" stroke-width="0.5"/>
<path d="M532.999 226.9L521.299 227.2V230.2L533.099 230.1L532.999 226.9ZM532.999 251.6L521.399 251.9V254.9L533.199 254.8L532.999 251.6Z" fill="#BCA76B" stroke="#472B1F" stroke-width="0.3"/>
<path d="M503.701 265.1L512.401 285.9M460.001 271.7C459.001 278.2 457.501 286.5 455.801 292.8" stroke="black" stroke-width="0.7"/>
<path d="M556.9 284.3C548.183 282.53 539.248 282.092 530.4 283C524.6 283.4 518.7 283.6 513.3 285.3C512.433 285.567 511.733 285.9 511.2 286.3C509.6 287.8 509.5 290.3 508.2 292C506.9 293.7 502.2 296.5 500.3 297.7C487.8 297.9 473.8 297.7 458 295.4L456 292.9L455 292L457.4 293H463L476.7 292.6C476.7 292.6 488.2 292.6 493.9 292.3L503.7 291.5C504.5 291.567 505.167 291.433 505.7 291.1C506.7 290.5 507 289.3 507.7 288.2C508.3 287.4 508.7 286.2 509.7 285.6C512.1 283.9 515.3 284 517.9 283.5C521.2 282.8 524.1 282.7 527.4 282.2L538.6 281.2C541 281.067 543.433 281.067 545.9 281.2C549.5 281.4 553.6 281.2 556.8 283C557.4 283.2 558.5 283.9 558.1 284.5C557.8 284.9 557.3 284.3 556.8 284.3H556.9Z" fill="black" stroke="black" stroke-width="0.4"/>
<path d="M499.499 200.3C501.399 201.8 504.799 203 508.199 203.5M495.599 253C491.599 255.8 487.466 257.867 483.199 259.2M506.699 290L499.799 272M501.199 266.1L509.199 286.7M500.199 271.4L505.499 269.6" stroke="black" stroke-width="0.5"/>
<path d="M496.6 197.6L495 293.4L500.7 293.1L499.7 197.7L496.6 197.6Z" fill="#BCA76B" stroke="#472B1F" stroke-width="0.4"/>
<path d="M503.5 212.4C505.633 216.667 509.267 220 514.4 222.4" stroke="black" stroke-width="0.7"/>
<path d="M484.801 206.6C486.601 214.8 495.101 213.6 494.801 206L484.801 206.6Z" fill="#BCA76B"/>
<path d="M484.801 206.6C486.601 214.8 495.101 213.6 494.801 206" stroke="#472B1F" stroke-width="0.5"/>
<path d="M492.6 206.3C494.9 215.9 505.8 214.4 505.4 205.8L492.6 206.3Z" fill="#BCA76B"/>
<path d="M492.6 206.3C494.9 215.9 505.8 214.4 505.4 205.8" stroke="#472B1F" stroke-width="0.7"/>
<path d="M501.7 206.3C504.1 213.3 508.3 213.9 511.9 205.6L501.7 206.3ZM514.4 203.1L483.5 204.5V206.7L514.6 205.4L514.4 203.1ZM484.8 225.9C486.6 234.1 495.1 232.9 494.8 225.3L484.8 225.9Z" fill="#BCA76B"/>
<path d="M501.7 206.3C504.1 213.3 508.3 213.9 511.9 205.6M484.8 225.9C486.6 234.1 495.1 232.9 494.8 225.3M514.4 203.1L483.5 204.5V206.7L514.6 205.4L514.4 203.1Z" stroke="#472B1F" stroke-width="0.5"/>
<path d="M492.6 225.6C494.9 235.2 505.8 233.7 505.4 225.1L492.6 225.6Z" fill="#BCA76B"/>
<path d="M492.6 225.6C494.9 235.2 505.8 233.7 505.4 225.1" stroke="#472B1F" stroke-width="0.7"/>
<path d="M501.7 225.6C504.1 232.6 511.2 231.4 511.9 224.9L501.7 225.6ZM514.4 222.4L483.5 223.8V226L514.6 224.7L514.4 222.4Z" fill="#BCA76B"/>
<path d="M501.7 225.6C504.1 232.6 511.2 231.4 511.9 224.9M514.4 222.4L483.5 223.8V226L514.6 224.7L514.4 222.4Z" stroke="#472B1F" stroke-width="0.5"/>
<path d="M494 236.5C491.3 238.4 488.8 240.5 485.1 241.7" stroke="black" stroke-width="0.7"/>
<path d="M483.9 244C485.7 252.2 494.1 251 493.9 243.5L483.9 244Z" fill="#BCA76B"/>
<path d="M483.9 244C485.7 252.2 494.1 251 493.9 243.5" stroke="#472B1F" stroke-width="0.5"/>
<path d="M491.6 243.6C494 253.3 504.9 251.9 504.6 243.2L491.6 243.6Z" fill="#BCA76B"/>
<path d="M491.6 243.6C494 253.3 504.9 251.9 504.6 243.2" stroke="#472B1F" stroke-width="0.7"/>
<path d="M500.8 243.6C503.2 250.6 509.5 248.4 510.9 243.1L500.8 243.6ZM513.4 240.6L482.6 241.9V244.1L513.7 242.8L513.4 240.6Z" fill="#BCA76B"/>
<path d="M500.8 243.6C503.2 250.6 509.5 248.4 510.9 243.1M513.4 240.6L482.6 241.9V244.1L513.7 242.8L513.4 240.6Z" stroke="#472B1F" stroke-width="0.5"/>
<path d="M487.901 265.8C487.101 275.3 483.301 283.8 480.801 292.8M491.301 265.9C490.501 275.1 487.601 283.7 485.301 292.4M494.201 265.1C493.386 274.274 491.847 283.368 489.601 292.3" stroke="black" stroke-width="0.5"/>
<path d="M484.301 261.3C486.101 269.6 494.501 268.4 494.301 260.8L484.301 261.3Z" fill="#BCA76B"/>
<path d="M484.301 261.3C486.101 269.6 494.501 268.4 494.301 260.8" stroke="#472B1F" stroke-width="0.5"/>
<path d="M492 261C494.4 270.6 505.3 269.2 504.9 260.5L492 261Z" fill="#BCA76B"/>
<path d="M492 261C494.4 270.6 505.3 269.2 504.9 260.5" stroke="#472B1F" stroke-width="0.7"/>
<path d="M501.2 261C503.6 268 509.8 266.7 511.3 260.4L501.2 261ZM513.8 257.9L483 259.2V261.4L514 260.1L513.8 257.9Z" fill="#BCA76B"/>
<path d="M501.2 261C503.6 268 509.8 266.7 511.3 260.4M513.8 257.9L483 259.2V261.4L514 260.1L513.8 257.9Z" stroke="#472B1F" stroke-width="0.5"/>
<path d="M504 216L493 216.5V219.5H504V216ZM503.6 234.8L493.7 235V237.8H503.6V234.8ZM504.1 252.9L493.6 253.3V256.2H504.2L504.1 252.9Z" fill="#BCA76B" stroke="#472B1F" stroke-width="0.3"/>
<path d="M487.701 269.3L493.401 270.4M486.401 274.6L493.001 274.8M485.301 278.5L492.201 280.5M483.501 284.5L491.501 284.2M482.001 289.5L490.501 289.3M480.101 265.6C479.101 275.3 485.401 284.5 488.501 292.6M506.001 287.6L511.401 285.9M504.701 284.6L510.801 282M502.801 280L509.101 278.1M501.301 275.6L507.501 274" stroke="black" stroke-width="0.5"/>
<path d="M467.999 309.7C467.199 309.633 466.466 309.5 465.799 309.3L463.799 308.6L461.799 307.3L460.099 305.9L458.099 304L456.299 302C455.633 301.4 455.033 300.767 454.499 300.1C453.999 299.6 453.899 298.6 453.499 298.1C452.699 297.9 451.599 297.8 451.499 296.7C451.299 296.1 451.199 295.4 450.499 295.5C450.099 295.5 449.999 296 450.199 295.7C449.799 295.5 449.899 296.4 449.899 295.9L449.399 296.9C448.999 297.767 449.199 298.3 449.999 298.5C450.799 298.6 450.999 299.5 451.699 299.9C452.233 300.567 452.866 301.167 453.599 301.7L455.099 303.7C455.499 304.233 455.999 304.733 456.599 305.2L457.899 306.9L459.699 308.4L461.499 309.4L463.499 310.3C464.233 310.567 465.066 310.7 465.999 310.7C466.799 310.767 467.566 310.6 468.299 310.2C468.999 309.7 468.299 309.8 467.899 309.7H467.999ZM512.799 287.9C511.716 290.74 510.161 293.378 508.199 295.7C514.799 297 520.099 295.2 525.999 294.2C525.466 291.533 525.333 288.767 525.599 285.9C520.899 286.4 517.599 287.5 512.799 287.9Z" fill="black"/>
<path d="M513.401 288.6C512.601 290.7 511.901 292.9 510.301 294.7C515.701 295.9 520.101 294.2 525.001 293.3C524.001 291.3 524.301 289.3 524.601 287.1L513.401 288.6Z" fill="#333333"/>
<path d="M456.5 298.2L475.6 299.6C491 300.1 508.6 299.4 523.8 297.6C524.4 297.6 525.5 297.4 525.7 298C525.9 298.6 524.9 299.6 524.2 299.7C506.7 302 489 301.1 471.4 301L461 299.9L456.5 298.2Z" fill="black"/>
<path d="M463.5 255.3C458.5 259.1 453.7 262.9 448.1 265.1M464.2 237.2C459.7 240.5 455.2 244.5 450.5 246.4" stroke="black" stroke-width="0.7"/>
<path d="M462.6 204.3L462.5 293.8L467.4 293.4L464.5 203.8L462.6 204.3Z" fill="#BCA76B" stroke="#472B1F" stroke-width="0.4"/>
<path d="M464.5 203.8C468.5 208.2 471.7 210.6 475 213.4" stroke="black" stroke-width="0.7"/>
<path d="M465.8 201.2C464.8 200.7 462.1 200.6 461.1 201.9C460.5 202.5 461 204.8 461.7 204.8C463.1 204.8 464.9 204.9 465.5 204.3C466.1 203.7 466.5 201.6 465.8 201.3V201.2Z" fill="#BCA76B" stroke="#472B1F" stroke-width="0.5"/>
<path d="M463 305.3C463.2 304.633 463.667 304.3 464.4 304.3C465.333 304.167 466.1 304.2 466.7 304.4L468.1 305.1L469.4 306.1C471 306.6 470.2 304.8 471.1 304.7C472 304.6 472.7 304.4 473.3 304.7C473.833 304.9 474.233 305.233 474.5 305.7L475.4 306.5C475.5 307 477.3 307.8 477.4 306.7C477.7 306 477.5 304.7 478.7 304.8C480.033 304.867 481.267 305 482.4 305.2C483 305.4 483.567 305.733 484.1 306.2C484.6 306.4 484.5 307 484.9 306.9C486.2 307.9 485.9 306.2 486.3 305.6C486.6 305.1 487.5 305.3 487.9 304.9C488.7 304.633 489.567 304.5 490.5 304.5L492.3 305.5C492.7 305.767 493.033 306.2 493.3 306.8C493.4 307.4 494 307.9 494.5 307.4C494.8 306.8 495.3 306.8 495.8 306.4C496.333 306.333 496.733 306.067 497 305.6C497.3 305.6 497.6 304.9 498 304.6C498.6 304.333 499.4 304.2 500.4 304.2C501.4 304.4 502.167 304.667 502.7 305C502.967 305.4 503.3 305.733 503.7 306C504 306.5 504.7 306 505.1 305.8L506.5 305C506.9 304.6 507.533 304.367 508.4 304.3C509.4 304.2 509.9 304.7 510.6 304.8C511.467 305 512.133 305.267 512.6 305.6C513.267 306.133 513.867 306.2 514.4 305.8C515.1 305.8 514.6 304.5 514.8 304.2C515.6 303.6 517.5 303.6 518.5 304L520.9 304.2C521.3 304.4 521.567 304.8 521.7 305.4C522 305.9 523.5 305.9 524 305.5C524.4 305.5 523.9 304.8 523.7 304.6L522.9 303.6C523.6 303.2 523.9 303.9 524.6 304L525.8 304.8C526.267 305.133 526.933 305.267 527.8 305.2C528.6 305.5 528.3 306.7 527.3 306.4C526.6 306.7 525.4 306.4 524.6 306.5H520.4L517.8 306.8L515.4 306.9C514.4 307.033 513.4 307.067 512.4 307L509.9 307.3L507.5 307.4C506.3 307.7 504.8 307.4 503.5 307.5L501.2 307.7L498.7 307.9L496.1 308C494.6 308.3 493.1 308 491.6 308.1L489.1 307.9H487C486.4 307.6 485.3 307.9 484.7 307.6H474.8C474.3 307.3 473.3 307.6 472.5 307.4H468.8C467.8 307.2 466.8 307.4 465.9 307C464.6 306.8 462.9 306.4 463.1 305.3H463Z" fill="black" stroke="black" stroke-width="0.9"/>
<path d="M452.1 215.4C453.7 221.1 461.1 220.2 460.8 215L452.1 215.4Z" fill="#BCA76B"/>
<path d="M452.1 215.4C453.7 221.1 461.1 220.2 460.8 215" stroke="#472B1F" stroke-width="0.4"/>
<path d="M458.801 215C460.901 221.8 470.501 220.9 470.101 214.8L458.801 215Z" fill="#BCA76B"/>
<path d="M458.801 215C460.901 221.8 470.501 220.9 470.101 214.8" stroke="#472B1F" stroke-width="0.5"/>
<path d="M467 215C469 220 472.7 220.5 475.8 214.7L467 215ZM477.9 213L450.9 214V215.4L478.1 214.6L477.9 213Z" fill="#BCA76B"/>
<path d="M467 215C469 220 472.7 220.5 475.8 214.7M477.9 213L450.9 214V215.4L478.1 214.6L477.9 213Z" stroke="#472B1F" stroke-width="0.4"/>
<path d="M459.499 226C457.099 228 452.699 230.7 450.699 230.5" stroke="black" stroke-width="0.7"/>
<path d="M454.699 218.5C448.947 240.263 442.105 261.724 434.199 282.8" stroke="black" stroke-width="0.7"/>
<path d="M451.9 232C453.4 238.3 461 237.3 460.8 231.6L451.9 232Z" fill="#BCA76B"/>
<path d="M451.9 232C453.4 238.3 461 237.3 460.8 231.6" stroke="#472B1F" stroke-width="0.4"/>
<path d="M458.199 231.9C460.199 240.3 470.199 238.9 469.799 231.5L458.199 231.9Z" fill="#BCA76B"/>
<path d="M458.199 231.9C460.199 240.3 470.199 238.9 469.799 231.5" stroke="#472B1F" stroke-width="0.7"/>
<path d="M467.001 231.8C469.301 237 473.701 237.5 477.001 231.5L467.001 231.8ZM478.201 228.9L450.701 230.2V232.2L478.501 231.2L478.201 228.9ZM450.301 248C452.101 255.7 460.301 254.5 460.001 247.5L450.301 248Z" fill="#BCA76B"/>
<path d="M467.001 231.8C469.301 237 473.701 237.5 477.001 231.5M450.301 248C452.101 255.7 460.301 254.5 460.001 247.5M478.201 228.9L450.701 230.2V232.2L478.501 231.2L478.201 228.9Z" stroke="#472B1F" stroke-width="0.5"/>
<path d="M457.9 248C460.3 259 471.7 257.5 471.3 247.3L457.9 248Z" fill="#BCA76B"/>
<path d="M457.9 248C460.3 259 471.7 257.5 471.3 247.3" stroke="#472B1F" stroke-width="0.8"/>
<path d="M466.8 247.8C469.2 254.2 473.4 254.8 476.7 247.3L466.8 247.8ZM479 244.9L447.5 246.2L447.7 248L479.3 247.1L479 244.9ZM449.8 266.6C451.6 274.8 460.5 273.6 460.3 266.2L449.8 266.6Z" fill="#BCA76B"/>
<path d="M466.8 247.8C469.2 254.2 473.4 254.8 476.7 247.3M449.8 266.6C451.6 274.8 460.5 273.6 460.3 266.2M479 244.9L447.5 246.2L447.7 248L479.3 247.1L479 244.9Z" stroke="#472B1F" stroke-width="0.5"/>
<path d="M473.099 270.9C475.033 278.7 477.199 285.933 479.599 292.6M470.699 270.6C471.699 278.2 473.799 285.5 475.999 292.6" stroke="black" stroke-width="0.7"/>
<path d="M457.9 266.3C460.1 277.3 471.7 276.4 471.5 265.8L457.9 266.3Z" fill="#BCA76B"/>
<path d="M457.9 266.3C460.1 277.3 471.7 276.4 471.5 265.8" stroke="#472B1F" stroke-width="0.7"/>
<path d="M467.601 266.3C470.201 273.3 474.601 273.9 478.201 265.8L467.601 266.3ZM480.701 262.9L445.801 264.2V266.8L481.301 265.5L480.701 262.9Z" fill="#BCA76B"/>
<path d="M467.601 266.3C470.201 273.3 474.601 273.9 478.201 265.8M480.701 262.9L445.801 264.2V266.8L481.301 265.5L480.701 262.9Z" stroke="#472B1F" stroke-width="0.7"/>
<path d="M469.401 223.5L459.401 223.8V226H469.601L469.401 223.5ZM469.401 239.8L459.401 240V242.3H469.601L469.401 239.8ZM470.101 257.5L459.301 257.8V260H470.301L470.101 257.5Z" fill="#BCA76B" stroke="#472B1F" stroke-width="0.3"/>
<path d="M474.099 273.2L468.399 274.4M474.999 277.5L469.299 278.7M476.299 282.3L470.499 282M477.999 286.8L471.999 287.8M451.199 285.9L457.199 287.1M452.899 281L458.299 282.2M454.299 277.2L459.299 278.5M455.299 273.8L459.799 274.7" stroke="black" stroke-width="0.5"/>
<path d="M526.898 293.9C536.898 293.4 548.898 292.2 557.098 295.4M527.598 297.2C536.798 295.8 547.598 295.1 555.598 298.1M528.598 303.9C535.83 302.262 543.325 302.16 550.598 303.6M529.298 305.5C536.134 307.086 543.234 307.154 550.098 305.7" stroke="black"/>
<path d="M431.5 282.1L453.2 295.1L453.7 294.6L446.9 289.9C441.9 286.9 437.1 283.9 431.5 282.1Z" fill="black"/>
<path d="M535.701 292.8L535.501 285.6M537.901 285.6V293.1M541.901 293.1V285.4M546.501 286.1V293.5M549.201 286V293.6M552.801 286.8V293.8M554.601 286.7V294.6M536.601 296V302.8M534.301 296.3V302.8M540.301 296.1L540.001 302.6M542.501 296L542.401 302.5M545.801 296L545.401 302.2M548.901 296.8L547.701 302.6" stroke="black" stroke-width="0.5"/>
<path d="M527 286C537 284.8 546.9 286.3 556.8 287.3" stroke="black"/>
<path d="M581.1 197C581.2 171.4 579.8 146.6 580.4 124.9C547.4 110.2 503.8 107.2 481.7 107.2C459.6 107.2 415.9 110.2 382.9 124.9C383.5 146.6 382.1 171.4 382.2 196.9L581.1 197Z" stroke="black" stroke-width="2"/>
<path d="M475.699 155.4C475.699 155.4 479.299 160.8 480.299 163.6C480.766 165.133 480.933 166.6 480.799 168C480.599 170.7 479.599 173.3 478.799 175.8C478.199 177.6 476.799 179 477.599 180.7C477.899 181.5 478.299 182.3 479.199 182.2C479.699 182.1 479.999 181.4 480.399 181L481.399 180.4C481.899 180.2 482.599 180.5 482.999 180.1C483.399 179.7 483.499 179.233 483.299 178.7C482.999 178.4 482.499 178.7 481.999 178.7C481.499 178.7 480.799 179.2 480.299 178.9C479.799 178.6 479.499 177.2 479.499 177.2L481.099 172.8C481.599 171.6 482.399 170.5 482.599 169.2V168C482.599 167.3 482.399 166.6 482.899 166C483.099 165.8 483.899 166.2 484.099 165.8C484.699 164.3 481.999 163.3 481.299 161.8L481.099 160.1C480.599 158.8 479.099 156.6 479.099 156.6L475.699 155.4Z" fill="#69737C" stroke="black" stroke-width="0.7"/>
<path d="M486.901 159.6C486.901 159.6 490.001 163.6 490.401 165.9L490.001 167.5C490.001 168.3 490.501 169.1 490.501 170C490.301 172.7 488.901 175.2 488.201 177.8L486.801 184.5L488.801 184.3L489.201 180.9L490.701 175.1L491.701 171.1L493.001 168.6C493.201 167.4 493.601 166.1 493.001 165C492.734 164.667 492.401 164.433 492.001 164.3C491.346 163.551 490.807 162.708 490.401 161.8C489.901 160.8 489.401 158.8 489.401 158.8C488.901 159.1 486.901 159.6 486.901 159.6Z" fill="#66452B" stroke="black" stroke-width="0.7"/>
<path d="M471.9 152.3L474.2 154.2L478 156.5L479.9 156.7L481.9 157.4L484.5 157.3L486.4 159.3L486.8 159.6L489 159.3L489.8 158.4L493.8 152.4L492.8 142.4L473.8 143.5L471.9 152.3Z" fill="white"/>
<path d="M492.4 135.4C495.042 137.436 497.427 139.786 499.5 142.4C501 144.2 501.9 146.7 504.3 147.8C507.5 151.2 521.2 155.2 521.3 156.3C518.1 155 516.7 159.3 513.6 158.6C510.8 159.4 508.4 157.6 506 156.6C502.2 156.4 498.4 156.6 495.1 158.5C493.3 159.5 491.2 158 489.8 158.5L489.6 158.7L489.4 158.9M471.9 152.4C469.7 151.3 468.1 149.2 466 148C464.5 145.8 462.4 143.5 462.5 140.6C462.3 137.6 461.5 133.4 462.9 130.6C461.9 128.3 460.5 127.6 459.3 125.5C458.5 122.4 455.4 120.6 457.3 118.3C459.3 116.4 460.8 114.3 463.5 113.3C465.703 112.845 467.99 113.018 470.1 113.8C472.8 114.1 474.3 116.4 475.8 118.5C477.568 121.257 478.727 124.359 479.2 127.6C480.5 130.2 483.9 130.8 486.4 131.9C488.4 132.9 490.6 133.8 492.4 135.4" fill="white"/>
<path d="M507.4 153.2C506.4 153.1 503.8 154.2 504.4 152.5C501.8 152.3 499 152.9 496.4 152C493.73 150.776 490.951 149.805 488.1 149.1C485.4 149.1 482.1 149.6 480 147.4C477.8 146.1 474.6 147 472.6 145.1C471.59 144.274 470.771 143.237 470.201 142.063C469.631 140.889 469.324 139.605 469.3 138.3C469 135.7 468 132.2 470.9 130.6C472.9 130 474.7 130.6 475.9 128.6C478.264 128.352 480.64 128.955 482.6 130.3C485.1 131.5 487.9 132.3 490.3 133.7C492.6 135.2 494.5 137.2 496.7 138.9C498.4 140.9 500.4 142.6 501.5 145C502.8 147.6 505.5 149 507.8 150.4C509.1 150.8 512.4 152.4 509.3 152.7L507.3 153.2H507.4Z" fill="black"/>
<path d="M480.5 144.6C479.075 144.531 477.694 144.082 476.5 143.3C475.8 142.8 473.5 141.5 475 140.5C476.1 140.4 477.5 141 478.5 140.1C480.1 139.8 481.7 139.8 483.2 139.1C484.6 138.3 486.2 138.8 487.6 138.3C488.6 137.8 488.4 135.7 490 136.1C491.5 135.7 491 138.5 489.8 137.6C488.9 138.7 491.2 139.1 491.8 139.8C493 141.2 490.3 141.5 490.1 142.5C488.4 143 487.1 140.9 485.5 141.5C485.2 142 485.5 143.2 484.4 142.9C482.9 142 481.7 143 480.4 143.2C480.8 143.5 479.8 144.7 480.4 144.6H480.5ZM509.6 154.6C508.8 154.2 507.8 154.6 506.9 154.6C506.3 154.6 505.733 154.533 505.2 154.4C504.3 154.4 502.7 153.4 502.4 154.7C502.4 155.2 503.9 155.5 502.7 155.7C501.633 155.7 500.533 155.433 499.4 154.9C498.9 154.5 498 153.9 498.3 154.9C498.6 155.9 497.7 156.2 496.9 156.2C495.807 156.171 494.753 155.785 493.9 155.1C493.3 155.7 494.7 156.7 495.5 156.8C496.3 157.4 494.3 157.2 493.8 157.1C493.133 156.9 492.467 156.967 491.8 157.3C490.8 157.5 490.8 158.4 491.9 158.3C492.9 158.6 494.1 159 495.2 158.5C496.285 157.778 497.513 157.301 498.8 157.1L501.8 156.6H505.9C507.033 156.867 508.033 156.7 508.9 156.1C509.6 155.9 511.3 155.2 510.1 154.7L509.6 154.6Z" fill="#69737C"/>
<path d="M505.999 156.5C506.533 156.5 506.999 156.433 507.399 156.3L509.099 155.7C509.799 155.7 510.099 154.7 509.399 154.6L508.099 153.9L506.699 153.1L507.699 151.9L509.199 151.6H510.399L512.099 152.3L513.799 153.1L515.299 153.5C515.833 153.767 516.399 153.967 516.999 154.1C517.599 154.3 517.799 154.9 518.499 154.8C519.166 154.933 519.766 155.167 520.299 155.5C520.833 155.7 521.166 156 521.299 156.4C520.799 156.4 520.299 155.9 519.799 156.1C519.299 156.1 518.999 156.6 518.499 156.5C518.299 157.1 517.499 157 517.099 157.6L515.199 158.7C514.947 158.81 514.675 158.867 514.399 158.867C514.124 158.867 513.852 158.81 513.599 158.7L511.799 158.5C511.133 158.633 510.499 158.6 509.899 158.4C509.299 158.2 508.833 157.9 508.499 157.5L506.399 156.8L505.799 156.5H505.999ZM464.999 113L463.399 113.2C462.466 113.4 461.666 113.867 460.999 114.6C460.246 115.515 459.371 116.322 458.399 117L457.199 118.3C457.933 118.767 458.566 118.7 459.099 118.1C459.766 117.367 460.533 116.8 461.399 116.4C462.199 116.2 462.999 116.6 463.799 116.6C464.4 117.009 465.082 117.282 465.799 117.4L467.399 117.7L469.599 118.3C470.533 118.433 471.399 118.433 472.199 118.3H472.799L472.599 118.9C472.599 119.433 472.766 119.933 473.099 120.4L473.899 121.7L474.599 123.3L475.199 124.6C475.266 125.133 475.499 125.567 475.899 125.9L476.899 127.3L477.699 128.6C477.999 128.9 478.399 129.4 478.899 129.3L480.499 129.1H480.299C479.833 128.767 479.499 128.333 479.299 127.8L479.099 126.3C479.099 125.767 478.966 125.267 478.699 124.8L478.299 123.6L477.799 122.3L477.099 120.8L476.399 119.4L475.599 118.1L474.999 117.6C474.999 117.4 474.899 117.167 474.699 116.9C474.233 116.433 473.866 115.933 473.599 115.4C472.866 114.733 472.033 114.3 471.099 114.1L468.099 113.2L465.599 113H465.099H464.999Z" fill="black"/>
<path d="M474.599 126.5C474.599 125.8 473.599 126 473.299 126.5L471.999 128C470.999 128.7 469.999 128.8 468.999 129.4C468.666 130 468.166 130.5 467.499 130.9C466.699 131.233 466.099 131.733 465.699 132.4C465.599 132.9 465.199 133.7 465.699 134.1C466.399 134.4 465.699 135.1 465.799 135.5C466.099 136 466.999 136.2 467.499 135.9C468.166 135.433 468.766 134.933 469.299 134.4C469.966 133.533 470.733 132.867 471.599 132.4C472.19 132.228 472.714 131.879 473.099 131.4C473.599 131 473.099 130.4 473.899 130.2C474.499 129.867 474.933 129.433 475.199 128.9C475.599 128.3 474.899 127.8 474.999 127.2C474.999 127 474.899 126.767 474.699 126.5H474.599Z" fill="#69737C"/>
<path d="M485.201 185H481.501C480.901 184.8 480.501 183.8 479.601 184.2C478.934 184.4 478.301 184.733 477.701 185.2C477.083 185.518 476.538 185.96 476.101 186.5C476.001 186.9 474.901 187.3 475.901 187.3C476.701 187.4 477.201 186.5 477.901 186.4C478.601 186.1 479.401 186.4 479.901 186.3H481.701L483.701 186.5C484.601 186.5 483.301 187.1 483.001 187.3C482.334 187.567 481.567 187.733 480.701 187.8C479.834 187.867 479.067 187.967 478.401 188.1L476.401 189.3C476.001 189.5 475.001 190 476.001 190C476.667 190 477.301 189.9 477.901 189.7L481.301 188.8L483.601 188.2C484.101 188.2 485.301 187.9 484.901 188.8C484.435 189.395 483.811 189.845 483.101 190.1C482.567 190.5 481.934 190.767 481.201 190.9C480.701 190.7 479.501 191.1 480.401 191.7C480.801 192.4 481.701 191.9 482.201 191.7L484.201 190.8L486.401 189.8L488.401 189C489.067 188.667 489.634 188.167 490.101 187.5C490.367 186.9 490.801 186.5 491.401 186.3C492.101 186.1 492.801 186.3 493.401 186.1C494.201 186.1 494.001 184.7 493.301 184.6L491.501 183.4C490.834 183.067 490.067 182.933 489.201 183C488.872 183.022 488.555 183.125 488.275 183.3C487.996 183.474 487.765 183.715 487.601 184C487.201 184.5 487.101 185.4 486.301 185.2C485.901 185.267 485.534 185.2 485.201 185ZM467.201 189.6C467.201 189.6 467.801 187.1 468.701 186.2C470.701 184.3 475.901 183 475.901 183C473.601 184 470.901 183.2 468.701 183.9C466.901 184.4 463.801 186.8 463.801 186.8C463.801 186.8 465.001 184.3 465.801 183.3C468.501 180.4 472.601 180.1 475.801 180.6L479.401 181C479.401 181 480.001 181.4 479.701 182C479.201 183.1 477.501 183.8 476.301 184.3C473.101 186 469.101 187.3 467.101 189.6H467.201Z" fill="#66452B" stroke="black" stroke-width="0.7"/>
<path d="M478 180.6C475.1 182.5 468.5 186 468.7 186.2C468.7 186.2 474.4 184.9 477 183.6C477.9 183.2 479.2 182.9 479.5 181.9C479.566 181.367 479.4 180.9 479 180.5C478.848 180.412 478.675 180.366 478.5 180.366C478.324 180.366 478.152 180.412 478 180.5V180.6Z" fill="#69737C" stroke="black" stroke-width="0.7"/>
<path d="M491.7 165.4C491.1 165.4 491 166.7 490.9 167.4C490.9 167.9 490.9 168.8 491.4 168.8C491.9 168.8 492.2 167.8 492.2 167.1C492.2 166.6 492.3 165.5 491.7 165.4Z" fill="#69737C"/>
<path d="M488.801 184.3C488.801 183.8 488.101 184.1 487.801 184.2C487.134 184.333 486.501 184.633 485.901 185.1L484.501 186L481.601 187.5L480.301 188C480.034 188.133 480.067 188.2 480.401 188.2C481.067 188.4 481.734 188.367 482.401 188.1L484.601 187.4L486.201 186.7C486.501 186.5 487.501 186.3 487.801 186.2C488.401 185.8 488.201 185.4 488.901 185.4C489.401 185.4 489.401 184.7 488.901 184.6V184.3H488.801Z" fill="#69737C" stroke="black" stroke-width="0.7"/>
<path d="M482.301 190.4C482.834 190.4 483.334 190.3 483.801 190.1L485.701 189.5L486.501 189.1C487.004 188.733 487.415 188.254 487.701 187.7L488.401 186.4C488.401 186 488.201 185.9 487.801 186.1L486.801 186.9L485.801 187.7L484.801 189.1L484.201 189.5L482.601 190.2L482.301 190.4Z" fill="#69737C" stroke="black" stroke-width="0.7"/>
<path d="M489.2 152.9L489.6 153.9L489.8 155.4C489.8 155.9 489.3 156.2 489.2 156.7V157.7C489 158.2 489.2 158.7 489 159.3C488.7 159.8 488 159.4 487.5 159.5C486.967 159.7 486.6 159.6 486.4 159.2L485.2 158C484.667 157.533 484.233 157.033 483.9 156.5L483 155.1L482.8 154.6M484.5 157.3H481.9C481.6 157.3 480.9 157.3 480.7 157C480.433 157 480.167 156.9 479.9 156.7H479.2M479.2 156.7C478.933 156.233 478.633 155.867 478.3 155.6L477.6 155.1L477.1 154.5L476.6 153.7L476.2 152.9V152.7M479.2 156.7C479.1 157.2 478.4 156.7 478.1 156.5L477.3 156.2L476.6 155.8L475.8 155.3L474.8 154.8L473.8 154C473.267 153.733 472.867 153.4 472.6 153C472.133 152.8 471.9 152.467 471.9 152L471.6 150.8L471.5 150.3" stroke="black" stroke-width="0.7"/>
<path d="M507.4 157L508.6 156.8L509.8 156.6C510.134 156.267 510.5 156.1 510.9 156.1C511.434 156.1 511.867 156.033 512.2 155.9C512.312 155.745 512.465 155.625 512.642 155.554C512.819 155.483 513.013 155.464 513.2 155.5C513.6 155.5 513.967 155.567 514.3 155.7L515.4 156L516.4 156.5C516.8 156.7 516.2 157 516.1 157.1C515.7 157.3 515.3 157.1 515 157.4C514.6 157.6 514.334 157.867 514.2 158.2C513.934 158.467 513.6 158.6 513.2 158.6H512.2C511.867 158.733 511.534 158.733 511.2 158.6L510.2 158.4C509.867 158.133 509.534 157.967 509.2 157.9L507.7 157.2L507.4 157Z" fill="#BCA76B"/>
<path d="M459.601 122.7C458.701 122.5 457.801 122.9 457.001 122.9H451.801C450.501 123.2 449.201 123.8 447.901 123.9L442.601 124C441.301 124.1 442.601 122.5 443.401 122.5C445.001 121.967 446.634 121.567 448.301 121.3L452.001 120.6L455.001 119.8C456.134 119.533 457.201 119.467 458.201 119.6L461.501 118.6C462.501 118.1 463.501 118.4 464.501 117.8C465.001 117 466.001 117.1 467.001 117.1C468.067 117.233 468.901 117.7 469.501 118.5C470.201 119.5 468.101 119.4 468.701 120.5C468.234 120.767 467.701 120.9 467.101 120.9C466.201 120.9 466.001 120.9 465.601 120.7L463.401 119.4C462.601 119.2 462.501 120.7 461.601 120.5C460.401 121 459.001 120.8 457.701 120.9C458.567 121.167 459.367 121.567 460.101 122.1C460.401 122.5 459.901 122.5 459.601 122.6V122.7Z" fill="black" stroke="black" stroke-width="0.5"/>
<path d="M464.801 119.1L465.601 118.8L466.101 118C466.101 118 466.801 119 466.401 119.4C466.001 119.8 464.801 119.1 464.801 119.1ZM467.001 117.1C467.101 117.1 466.301 116.5 467.001 116.3C467.601 115.6 468.601 116.2 469.401 116.4C471.001 116.8 472.334 117.6 473.401 118.8C474.901 120.4 475.201 122.6 476.401 124.5L477.401 127.3C477.701 128 478.801 128.8 478.201 129.6C477.501 130 476.801 129.4 476.201 129.3C475.201 129.2 475.701 130.2 476.201 130.3C476.901 130.6 477.201 131.6 476.201 131.5L473.601 131.2C472.901 130.8 473.801 130.2 474.201 129.9C474.601 129.6 475.401 129.2 475.201 128.5C475.201 127.3 474.401 126.2 474.201 125C474.001 124.067 473.701 123.167 473.301 122.3C472.901 120.3 471.101 119 469.301 118.4L467.001 117.3V117.1Z" fill="white"/>
<path d="M473.5 118.1L474.3 118.5L475.1 119.7L475.3 120.4C475.366 120.667 475.533 120.9 475.8 121.1L476.1 122.1L476.5 123.1L476.8 123.8C477 124.133 476.933 124.333 476.6 124.4L476 124.1L475.3 123.1L475.1 122.5L474.8 121.5L474.4 120.8L474 119.8C473.9 119.5 473.3 118.7 473.4 118.3L473.5 118.1ZM467.6 115.9L467.2 115.6L466.6 115.3C466.2 115.4 466.5 115 466.3 115.1L466.1 114.6L465.8 114.2C465.8 114.2 465.6 114 465.8 114L466.4 114.1L466.9 114.2H468L468.3 114.3C468.5 114.367 468.633 114.5 468.7 114.7L469 115.2V115.6L468.5 115.8L467.9 116L467.6 115.9Z" fill="#BCA76B"/>
<path d="M467.099 115.6L466.099 115.7L465.699 116.1L465.099 116.3L464.599 116L464.299 115.7L463.899 115.5C463.766 115.5 463.699 115.367 463.699 115.1V114.6L464.099 114.4H465.099L465.799 114.3L466.199 114.6L467.099 115.6ZM468.699 114.7L469.399 114.5L470.099 114.6C470.433 114.6 470.699 114.7 470.899 114.9L471.699 115.3L472.399 115.6L473.099 116L473.699 116.6C473.766 116.867 473.666 117 473.399 117L472.699 116.6L471.999 116.4L471.299 116.1L470.299 115.7L469.799 115.6L468.899 115.1C468.766 115.033 468.699 114.9 468.699 114.7Z" fill="white"/>
<path d="M472.399 120C471.399 120 470.399 120.4 469.399 120C468.699 120 468.099 120.6 467.399 120.8C466.599 120.7 466.399 121.9 465.699 121.8C464.999 121.8 464.299 121.3 463.699 121.5C465.033 122.033 466.299 122.7 467.499 123.5C468.072 124.063 468.752 124.505 469.499 124.8C470.199 125.1 470.799 125.6 470.499 126.3C470.299 127.1 469.099 127.3 469.099 128.1C468.999 128.9 468.099 129.3 467.799 129.9C467.499 130.5 466.799 130.9 466.799 131.5C466.899 132.3 467.799 131.7 467.799 131.1C467.999 130.6 468.499 129.7 469.199 130.1C469.699 130.8 470.399 129.5 470.999 129.8C471.466 130.4 471.899 130.433 472.299 129.9C472.799 129.7 473.499 129.4 472.999 128.9C472.999 128.2 473.799 128.2 474.199 127.9C474.699 127.7 475.199 126.9 474.699 126.5C474.199 125.8 474.699 124.8 474.099 124.2C473.599 123.5 474.099 122.5 473.699 121.8C473.433 121 473.033 120.4 472.499 120H472.399Z" fill="black"/>
<path d="M499.199 147.2C498.199 147.2 497.199 148.1 495.999 148.2C494.799 148.3 496.399 149 496.799 149.2C497.899 150 499.199 150.2 500.399 150.7C501.599 151.3 502.832 151.5 504.099 151.3C505.199 151 504.399 149.9 504.099 149.3C503.399 148.3 502.099 147.8 501.299 146.9C500.499 146.433 499.832 146.533 499.299 147.2H499.199Z" fill="#69737C"/>
<path d="M498.401 149.7L497.201 149.8C496.668 149.933 496.168 149.9 495.701 149.7L494.301 149.2C493.834 149 493.468 148.733 493.201 148.4C492.901 148 493.501 148 493.801 148C494.268 147.8 494.801 147.733 495.401 147.8L497.101 148.6C497.634 148.8 498.068 149.067 498.401 149.4V149.7ZM504.001 149.3C504.101 149.8 503.301 149.3 503.001 149.5C502.45 149.549 501.896 149.446 501.401 149.2C500.468 148.733 499.568 148.4 498.701 148.2C498.301 148.1 497.401 147.7 498.101 147.2C498.567 146.758 499.163 146.478 499.801 146.4L501.601 147C502.201 147.267 502.768 147.6 503.301 148C503.834 148.4 504.101 148.833 504.101 149.3H504.001Z" fill="white"/>
<path d="M488.599 143.8C487.755 144.304 486.781 144.547 485.799 144.5C484.899 144.8 483.499 144 483.199 145.1C482.799 146.1 483.899 146.5 484.499 146.9C486.299 147.9 488.299 147.9 490.199 147.9C490.799 147.9 492.499 147.7 491.599 147.1C490.599 146.3 489.766 145.4 489.099 144.4L488.599 143.8ZM498.399 144.4L497.199 144.1L495.799 143.3L493.799 142.3C493.466 142.033 493.466 141.833 493.799 141.7C494.199 141.7 494.399 141.2 494.799 141.6C495.199 141.8 495.566 142.133 495.899 142.6C496.233 143.067 496.699 143.333 497.299 143.4C497.833 143.667 498.166 144 498.299 144.4H498.399ZM496.999 146.2C496.999 146.2 495.299 146.7 494.499 146.4C493.833 146.267 493.233 146.067 492.699 145.8C491.899 145.467 491.233 145.033 490.699 144.5C490.199 144 490.699 143.1 491.499 143.3C491.899 143.2 491.699 142.3 492.499 142.7C493.299 143.1 494.199 143.5 494.899 144.1L496.399 145.4L496.999 146.2ZM483.799 133.8C484.999 134.1 486.399 134.6 487.099 135.8C488.099 136.9 486.099 137.7 485.099 136.9C483.633 136.167 482.133 135.5 480.599 134.9C478.999 135.2 481.199 136.1 481.599 136.4C482.466 137 482.899 137.667 482.899 138.4C481.899 139.2 480.599 138.4 479.499 138.2C478.299 138.1 477.499 137 476.799 136.2C476.199 135.533 475.533 135.333 474.799 135.6C474.799 136.6 475.599 136.9 476.099 137.8C476.499 138.3 478.099 139.6 476.599 139.7C475.391 139.357 474.355 138.572 473.699 137.5C472.999 136.8 472.499 135.3 473.899 135.1C475.233 134.433 476.633 134.1 478.099 134.1C479.599 133.9 481.199 134.1 482.799 133.7C482.999 133.7 483.999 133.2 483.799 133.7V133.8Z" fill="#69737C"/>
<path d="M471.9 134.7L471.5 135.7V136.9L471.9 137.9C472.1 138.3 472.367 138.567 472.7 138.7C472.9 138.967 473.167 139.167 473.5 139.3L474.2 139.7L475.2 139.9C475.533 139.9 475.767 139.8 475.9 139.6C476.1 139.4 476.033 139.233 475.7 139.1C475.433 139.1 475.2 138.933 475 138.6L474.3 137.9C474.3 137.633 474.167 137.367 473.9 137.1L473.3 136.4L472.6 135.7L472 134.9L471.9 134.7ZM482.3 138.7L479.7 138.2C478.833 137.88 478.071 137.326 477.5 136.6C476.833 135.933 476.167 135.367 475.5 134.9C474.6 134.6 474.3 135.8 474.8 136.2L476.4 138.2L478.4 139.6C479.358 140.103 480.419 140.376 481.5 140.4C482.3 140.333 482.833 140 483.1 139.4C482.967 138.933 482.7 138.733 482.3 138.8V138.7ZM479.9 144.1C479.3 144.1 478.733 144 478.2 143.8C477.767 143.495 477.422 143.081 477.2 142.6C476.667 142 476.167 141.633 475.7 141.5C475.2 141.4 474.5 141.7 474.7 142.3C474.767 142.767 475.033 143.2 475.5 143.6C476.167 144.067 476.833 144.433 477.5 144.7C477.9 144.9 478.3 144.967 478.7 144.9C479.2 144.9 479.7 145.1 479.9 144.6V144.1ZM485.8 142.4C486.333 142.667 486.5 143.1 486.3 143.7C485.9 144.233 485.333 144.5 484.6 144.5L483 144.4L481.3 143.6C480.7 143.4 480.6 142.7 480.3 142.3C480 141.9 480.8 141.6 481.2 141.7C481.7 141.9 482.2 142.5 482.6 142.7L484.1 143.2C484.5 143.2 485.1 143.4 485.3 143L485.7 142.4H485.8ZM490.8 141.1C491.3 141.5 491 142.4 490.3 142.6H488.9L486.9 141.6C486.367 141.4 485.933 141.1 485.6 140.7C485.4 140.1 486.1 139.7 486.6 139.9C487.4 140.033 488.2 140.3 489 140.7C489.467 140.967 490.033 141.133 490.7 141.2L490.8 141.1Z" fill="white"/>
<path d="M489.4 158.9L489.6 158.7L489.8 158.5C491.2 158 493.3 159.5 495.1 158.5C498.4 156.6 502.2 156.4 506 156.6C508.4 157.6 510.8 159.4 513.6 158.6C516.7 159.3 518.1 155 521.3 156.3C521.2 155.2 507.5 151.2 504.3 147.8C501.9 146.7 501 144.2 499.5 142.4C497.427 139.786 495.042 137.436 492.4 135.4C490.6 133.8 488.4 132.9 486.4 131.9C483.9 130.8 480.5 130.2 479.2 127.6C478.727 124.359 477.568 121.257 475.8 118.5C474.3 116.4 472.8 114.1 470.1 113.8C467.99 113.018 465.703 112.845 463.5 113.3C460.8 114.3 459.3 116.4 457.3 118.3C455.4 120.6 458.5 122.4 459.3 125.5C460.5 127.6 461.9 128.3 462.9 130.6C461.5 133.4 462.3 137.6 462.5 140.6C462.4 143.5 464.5 145.8 466 148C468.1 149.2 469.7 151.3 471.9 152.4" stroke="black" stroke-width="0.7"/>
</g>
<defs>
<clipPath id="clip0_3921_8782">
<rect width="640" height="480" fill="white"/>
</clipPath>
</defs>
</svg>
