<svg width="640" height="480" viewBox="0 0 640 480" fill="none" xmlns="http://www.w3.org/2000/svg">
<g clip-path="url(#clip0_3921_9129)">
<path d="M0 0H640V480H0V0Z" fill="#12AD2B"/>
<path d="M0 137.1H640V343H0V137.1Z" fill="#FFCE00"/>
<path d="M0 0V480L240 240" fill="#D21034"/>
<path d="M351.602 171.428L330.412 236.644L363.02 247.239" fill="#000001"/>
<path d="M351.602 171.428L372.791 236.644L340.184 247.239" fill="#000001"/>
<path d="M416.816 218.81H348.244V253.096" fill="#000001"/>
<path d="M416.816 218.81L361.34 259.116L341.188 231.378" fill="#000001"/>
<path d="M391.908 295.476L370.718 230.26L338.11 240.855" fill="#000001"/>
<path d="M391.908 295.476L336.432 255.17L356.585 227.432" fill="#000001"/>
<path d="M311.295 295.476L366.771 255.17L346.618 227.432" fill="#000001"/>
<path d="M311.295 295.476L332.485 230.26L365.093 240.855" fill="#000001"/>
<path d="M286.385 218.81L341.861 259.116L362.013 231.378" fill="#000001"/>
<path d="M286.385 218.81H354.957V253.096" fill="#000001"/>
<path d="M528.4 171.428L507.21 236.644L539.818 247.239" fill="#000001"/>
<path d="M528.4 171.428L549.59 236.644L516.982 247.239" fill="#000001"/>
<path d="M593.615 218.81H525.043V253.096" fill="#000001"/>
<path d="M593.615 218.81L538.139 259.116L517.987 231.378" fill="#000001"/>
<path d="M568.707 295.476L547.517 230.26L514.909 240.855" fill="#000001"/>
<path d="M568.707 295.476L513.231 255.17L533.384 227.432" fill="#000001"/>
<path d="M488.094 295.476L543.57 255.17L523.417 227.432" fill="#000001"/>
<path d="M488.094 295.476L509.284 230.26L541.892 240.855" fill="#000001"/>
<path d="M463.184 218.81L518.66 259.116L538.812 231.378" fill="#000001"/>
<path d="M463.184 218.81H531.756V253.096" fill="#000001"/>
</g>
<defs>
<clipPath id="clip0_3921_9129">
<rect width="640" height="480" fill="white"/>
</clipPath>
</defs>
</svg>
