<svg width="640" height="480" viewBox="0 0 640 480" fill="none" xmlns="http://www.w3.org/2000/svg">
<g clip-path="url(#clip0_3921_10076)">
<mask id="mask0_3921_10076" style="mask-type:luminance" maskUnits="userSpaceOnUse" x="0" y="0" width="641" height="480">
<path d="M0 0H640.031V480H0V0Z" fill="white"/>
</mask>
<g mask="url(#mask0_3921_10076)">
<path fill-rule="evenodd" clip-rule="evenodd" d="M0 0H720V240H319.969L0 0Z" fill="#ED2939"/>
<path fill-rule="evenodd" clip-rule="evenodd" d="M0 480H720V240H319.969L0 480Z" fill="#002395"/>
<path fill-rule="evenodd" clip-rule="evenodd" d="M0 0L319.969 240L0 480V0Z" fill="white"/>
<path d="M161.531 181.125L161.625 177.375C161.625 177.375 159.656 174.188 162 170.812C162 170.812 157.031 168.188 158.25 164.063C158.25 164.063 153.75 162.938 154.031 158.063C154.031 158.063 149.344 157.781 148.781 153.656C148.781 153.656 144 154.406 141.844 150.469C141.844 150.469 137.156 151.406 135.844 148.125C135.844 148.125 131.25 149.625 128.625 145.781C128.625 145.781 123.75 147.75 121.781 144.094C119.812 147.75 114.938 145.781 114.938 145.781C112.313 149.625 107.719 148.031 107.719 148.031C106.406 151.312 101.813 150.375 101.813 150.375C99.6563 154.406 94.875 153.563 94.875 153.563C94.4062 157.688 89.625 158.063 89.625 158.063C89.7603 159.389 89.4198 160.721 88.6643 161.82C87.9087 162.919 86.7873 163.714 85.5 164.063C86.7188 168.094 81.75 170.719 81.75 170.719C84.1875 174.188 82.2188 177.281 82.2188 177.281L82.125 180.75L161.531 181.125Z" fill="#FFFF00"/>
<path d="M161.645 181.103V177.343C161.645 177.343 159.71 174.119 162.075 170.896C162.075 170.896 157.131 168.21 158.313 164.127C158.313 164.127 153.799 163.052 154.122 158.11C154.122 158.11 149.285 157.787 148.748 153.704C148.748 153.704 144.019 154.456 141.977 150.481C141.977 150.481 137.248 151.341 135.958 148.117C135.958 148.117 131.337 149.729 128.65 145.861C128.65 145.861 123.814 147.795 121.879 144.142C119.837 147.795 115.001 145.861 115.001 145.861C112.421 149.621 107.8 148.01 107.8 148.01C106.51 151.341 101.889 150.481 101.889 150.481C99.7393 154.456 94.9029 153.704 94.9029 153.704C94.473 157.68 89.6367 158.002 89.6367 158.002C89.8384 159.32 89.5432 160.665 88.8083 161.777C88.0734 162.889 86.9514 163.688 85.6601 164.019C86.7348 168.102 81.8984 170.681 81.8984 170.681C84.2629 174.119 82.2208 177.343 82.2208 177.343V180.781L161.645 181.103Z" stroke="black" stroke-width="0.322383"/>
<path d="M159.656 176.437C147.188 175.219 132.844 172.219 121.781 178.5C114.281 174.094 103.969 174.375 95.1562 175.219C90.375 176.156 84.75 176.156 79.6875 176.906L78.9375 177C69.8437 177.656 61.5938 174.938 53.625 171.375C56.25 185.625 58.9688 200.156 60.375 215.062C63.375 237.187 49.9687 255.656 55.3125 277.5C58.5937 288 70.125 294.094 80.625 295.312C90.7796 295.955 100.871 297.365 110.812 299.531C112.582 299.967 114.308 300.563 115.969 301.312C118.31 302.344 120.416 303.843 122.156 305.719C127.781 299.812 136.219 298.125 144.375 297.281C159.188 295.5 177.469 296.437 186.562 283.031V282.281C191.531 274.781 190.875 263.531 188.719 255.094C188.531 252.188 187.781 249.563 187.312 246.75C178.313 222.844 186.094 195.937 189.938 171.75C185.083 174.19 179.906 175.927 174.562 176.906C170.344 177.469 165.656 177.281 161.438 177L159.656 176.437Z" fill="#FF0000"/>
<path d="M178.312 245.156C178.312 246.656 179.156 247.969 179.437 249.375C181.219 259.875 182.813 273.75 172.125 280.219C160.125 287.719 144.562 284.531 130.781 288.562C127.969 289.312 124.219 291.844 122.344 293.625C121.031 292.781 119.812 291.563 118.219 290.813C106.875 284.813 92.0625 286.781 79.3125 283.5C72.8437 281.531 66.1875 276.469 64.5 269.906C60.375 252.656 70.3125 237.937 69.1875 220.781C68.4375 207.656 66.1875 195.188 63.1875 182.906C73.2188 187.594 84.75 188.344 96 186.094C104.678 184.52 113.621 185.33 121.875 188.437C126.188 186.562 131.25 185.719 135.938 185.25C144.656 186.188 154.125 187.687 163.219 187.687C169.281 187.187 174.906 185.719 180.094 183.281C177 203.531 170.906 224.719 178.312 245.156Z" fill="#80CFE1"/>
<path d="M160.312 249.187V230.062H162.562L133.5 211.312L133.406 201.469H136.219L121.594 191.156L107.156 201.469H109.969V211.312L81 230.062H83.3438V249.094H160.312" fill="white"/>
<path d="M160.356 249.225V230.099H162.613L133.594 211.296L133.487 201.626H136.281L121.665 191.096L107.155 201.518H109.95L110.057 211.296L81.0391 230.099H83.4035V249.117L160.356 249.225Z" stroke="black" stroke-width="1.28953"/>
<path d="M169.313 274.219V280.125H75.4688V274.125L169.313 274.219Z" fill="white"/>
<path d="M169.384 274.26V280.169H75.4512V274.152H169.384V274.26Z" stroke="black" stroke-width="1.28953"/>
<path d="M81.6562 273.844V253.688H85.4062L85.2187 274.031L85.4062 253.781L79.9688 253.688V249.281L163.781 249.469V253.688H158.719V274.125L158.625 253.688H162.375L162.562 273.938" fill="white"/>
<path d="M81.6844 273.83V253.63H85.446L85.2311 274.045L85.446 253.845L80.0723 253.63V249.332L163.903 249.44V253.737H158.744L158.851 274.152L158.636 253.737H162.506L162.613 273.937" stroke="black" stroke-width="1.28953"/>
<path d="M99.74 268.887V254.812H88.3477V268.78L99.6325 268.887" stroke="black" stroke-width="1.28953"/>
<path d="M91.5723 257.713V265.879H96.7311V257.713H91.4648M154.875 268.887L154.768 254.919H143.59V268.887H154.875Z" stroke="black" stroke-width="1.28953"/>
<path d="M146.599 257.82V265.986H151.758V257.82H146.599ZM154.767 246.001V232.033H143.482V246.001H154.767Z" stroke="black" stroke-width="1.28953"/>
<path d="M146.492 234.934V243.1H151.65V234.934H146.492ZM99.6325 246.001V231.926H88.3477V245.894H99.6325V246.001Z" stroke="black" stroke-width="1.28953"/>
<path d="M120.053 246.001V231.926H108.768V245.894H120.053M91.4648 234.827V242.993H96.6237V234.827H91.4648Z" stroke="black" stroke-width="1.28953"/>
<path d="M111.777 234.827V242.993H116.936V234.827H111.777ZM135.744 246.001V232.033L124.459 231.926V245.894L135.744 246.001Z" stroke="black" stroke-width="1.28953"/>
<path d="M127.469 234.827V242.993H132.735V234.827H127.469Z" stroke="black" stroke-width="1.28953"/>
<path d="M138.469 241.688L138.656 274.125H105.937L105.844 241.688H138.469Z" fill="white"/>
<path d="M105.758 250.944H138.646M109.842 274.152V251.159M134.669 274.152V251.266M138.538 241.703L138.646 274.152H106.081L105.973 241.703H138.538ZM150.468 227.843L132.197 214.519H111.454L93.1836 227.843H150.468ZM113.066 203.345V211.511H130.477V203.345H113.066Z" stroke="black" stroke-width="1.28953"/>
<path d="M121.665 193.89L131.338 200.766H112.1L121.772 193.89M117.796 205.386V209.469H125.749V205.386H117.796Z" stroke="black" stroke-width="1.28953"/>
<path d="M160.688 189.375C163.406 189.375 164.063 200.625 164.063 206.25C166.5 207 171.656 210.281 174 213.187H147.562C149.812 210.281 154.969 207 157.313 206.344C157.313 200.719 157.875 189.281 160.688 189.469" fill="white"/>
<path d="M128.866 242.563H131.23L130.478 243.96C130.478 243.96 131.66 245.357 130.478 247.076L131.123 248.15H128.974L129.511 247.076C129.511 247.076 128.436 245.142 129.511 243.852L128.866 242.67M160.679 189.377C163.473 189.377 164.118 200.659 164.118 206.353C166.482 206.998 171.749 210.329 174.006 213.23H147.567C149.824 210.329 155.09 206.998 157.347 206.353C157.347 200.659 157.992 189.377 160.679 189.377ZM107.479 242.563H109.843L109.198 243.852C109.198 243.852 110.273 245.357 109.198 247.076L109.843 248.15H107.479L108.123 247.076C108.123 247.076 107.049 245.142 108.123 243.852L107.479 242.563ZM112.315 242.563H114.679L114.034 243.852C114.034 243.852 115.109 245.357 114.034 247.076L114.679 248.15H112.315L112.96 247.076C112.96 247.076 111.885 245.142 112.96 243.852L112.315 242.563ZM117.689 242.563H119.946L119.301 243.852C119.301 243.852 120.376 245.357 119.301 247.076L119.946 248.15H117.689L118.226 247.076C118.226 247.076 117.151 245.142 118.226 243.852L117.581 242.563H117.689ZM123.6 242.563H125.964L125.212 243.96C125.212 243.96 126.394 245.357 125.212 247.076L125.857 248.15H123.6L124.245 247.076C124.245 247.076 123.17 245.142 124.245 243.852L123.6 242.563ZM134.132 242.67H136.497L135.744 243.96C135.744 243.96 136.927 245.357 135.744 247.076L136.389 248.15H134.24L134.777 247.076C134.777 247.076 133.702 245.142 134.777 243.852L134.132 242.67Z" stroke="black" stroke-width="1.28953"/>
<path d="M122.344 315.75C134.531 315.75 149.531 313.219 156.562 309.656L172.031 308.25L172.406 327.094C159.281 334.312 129.094 335.906 122.438 335.812C115.781 335.719 85.2188 334.312 72 327.094L72.1875 308.156L87.6562 309.562C98.7113 313.844 110.49 315.945 122.344 315.75Z" fill="#FFFF00"/>
<path d="M122.418 315.734C134.67 315.734 149.609 313.263 156.702 309.61L172.071 308.32L172.393 327.124C159.389 334.323 129.081 335.934 122.525 335.827C115.969 335.719 85.2311 334.323 72.0117 327.016L72.2267 308.213L87.7031 309.61C94.7964 313.263 110.273 315.734 122.418 315.734Z" stroke="black" stroke-width="0.322383"/>
<path d="M32.2498 235.312L45.8435 239.625L41.7185 261.656L28.8748 263.719C28.8748 263.719 26.7185 252.094 32.2498 235.312Z" fill="#FFFF00"/>
<path d="M32.3533 235.364L45.8952 239.662L41.8112 261.688L28.9141 263.73C28.9141 263.73 26.7646 252.126 32.3533 235.364Z" stroke="black" stroke-width="0.322383"/>
<path d="M41.7188 261.469L28.875 263.719L37.0313 252.094L41.7188 261.469Z" fill="#7E7E7E"/>
<path d="M41.8111 261.474L28.9141 263.623L37.0822 252.126L41.8111 261.474Z" stroke="black" stroke-width="0.322383"/>
<path d="M24.094 251.25L37.219 252.188C37.5003 263.25 38.9065 305.625 89.5315 307.969L87.9378 323.438C26.344 324 21.6565 271.406 24.1878 251.25" fill="#FFFF00"/>
<path d="M72.3336 326.586L87.8099 323.256M24.1847 251.266L37.2967 252.126C37.6191 263.3 38.9088 305.634 89.637 307.998L88.0249 323.47C26.3343 324.115 21.7128 271.466 24.1847 251.266Z" stroke="black" stroke-width="0.322383"/>
<path d="M211.312 235.5L197.812 239.813L202.125 261.75L215.062 263.812C215.062 263.812 217.125 252.281 211.312 235.5Z" fill="#FFFF00"/>
<path d="M211.407 235.471L197.865 239.769L202.164 261.796L215.061 263.945C215.061 263.945 217.211 252.341 211.407 235.471Z" stroke="black" stroke-width="0.322383"/>
<path d="M202.125 261.562L214.969 263.906L206.719 252.281L202.031 261.562" fill="#7E7E7E"/>
<path d="M202.164 261.581L215.061 263.837L206.786 252.341L202.164 261.581Z" stroke="black" stroke-width="0.322383"/>
<path d="M219.656 251.344L206.531 252.281C206.344 263.344 205.313 305.719 154.688 308.062L156.563 323.437C218.156 324.187 222.375 271.5 219.75 251.344" fill="#FFFF00"/>
<path d="M172.179 326.586L156.702 323.363M219.683 251.374L206.571 252.233C206.356 263.408 205.496 305.849 154.768 308.106L156.487 323.47C218.178 324.223 222.369 271.574 219.683 251.481V251.374Z" stroke="black" stroke-width="0.322383"/>
<path d="M114.187 325.031C113.749 325.219 113.28 325.281 112.78 325.219L110.343 325.125L110.53 322.031L112.968 322.219C113.468 322.219 113.843 322.312 114.093 322.5C114.53 322.687 114.749 323.125 114.749 323.812C114.749 324.375 114.53 324.781 114.093 325.031M110.062 329.719L110.249 326.062L113.062 326.25C113.999 326.312 114.718 326.094 115.218 325.594C115.718 325.219 115.968 324.656 115.968 323.906C116.011 323.234 115.811 322.569 115.405 322.031C114.909 321.523 114.24 321.222 113.53 321.187L109.405 320.906L108.843 329.719H110.062ZM118.874 322.5H121.874L122.905 322.688C123.343 322.938 123.562 323.375 123.562 324C123.562 324.625 123.405 325.031 123.093 325.219L121.78 325.5H118.874V322.5ZM118.874 330.188V326.438L121.687 326.531C122.187 326.531 122.562 326.594 122.812 326.719C123.249 326.906 123.468 327.281 123.468 327.844V330L123.655 330.281H125.155V330.094L124.78 329.625L124.687 328.875V327.656C124.687 327.094 124.562 326.719 124.312 326.531L123.562 325.969C123.999 325.781 124.312 325.531 124.499 325.219C124.687 324.906 124.812 324.469 124.874 323.906C124.874 322.906 124.437 322.219 123.562 321.844L121.874 321.469H117.655V330.281L118.874 330.188ZM128.249 328.312C127.712 327.605 127.387 326.76 127.312 325.875C127.312 324.625 127.562 323.687 128.062 323.062C128.342 322.747 128.69 322.5 129.08 322.337C129.469 322.175 129.89 322.102 130.312 322.125C130.719 322.079 131.131 322.122 131.52 322.251C131.908 322.381 132.264 322.594 132.562 322.875C133.187 323.5 133.53 324.312 133.593 325.312C133.665 326.224 133.47 327.136 133.03 327.937C132.593 328.75 131.812 329.156 130.687 329.156C128.999 329.156 128.812 328.969 128.155 328.312M126.749 322.781C126.207 323.719 125.946 324.793 125.999 325.875C126.062 327.187 126.499 328.25 127.312 329.062C127.767 329.477 128.299 329.798 128.878 330.008C129.457 330.217 130.072 330.31 130.687 330.281C131.333 330.307 131.974 330.165 132.549 329.869C133.124 329.573 133.613 329.134 133.968 328.594C134.632 327.597 134.96 326.415 134.905 325.219C134.873 324.15 134.476 323.125 133.78 322.312C132.968 321.375 131.749 320.937 130.124 321C128.624 321 127.499 321.594 126.749 322.781ZM167.999 310.125C168.937 310 169.718 310.031 170.343 310.219C171.28 310.531 171.968 311.25 172.405 312.375L171.187 312.562C171.105 312.287 170.961 312.033 170.766 311.822C170.571 311.611 170.33 311.447 170.062 311.344C169.463 311.123 168.817 311.058 168.187 311.156C167.807 311.22 167.445 311.362 167.123 311.571C166.8 311.781 166.524 312.054 166.312 312.375C165.812 313 165.655 313.938 165.843 315.188C165.972 316.092 166.363 316.94 166.968 317.625C167.593 318.187 168.405 318.406 169.405 318.281C170.142 318.198 170.816 317.827 171.28 317.25C171.78 316.687 171.937 315.906 171.749 314.906L168.937 315.375L168.843 314.437L172.78 313.781L173.53 318.469H172.687L172.218 317.531L171.28 318.469C170.78 318.906 170.155 319.187 169.405 319.312C168.887 319.421 168.352 319.419 167.835 319.306C167.318 319.192 166.831 318.971 166.405 318.656C165.91 318.271 165.498 317.791 165.192 317.243C164.886 316.696 164.693 316.092 164.624 315.469C164.465 314.833 164.441 314.17 164.554 313.524C164.668 312.878 164.915 312.263 165.28 311.719C165.601 311.26 166.019 310.879 166.506 310.603C166.993 310.327 167.535 310.164 168.093 310.125M176.905 309.469L179.718 308.437L180.749 308.25C181.312 308.25 181.687 308.562 181.874 309.187C182.062 309.812 182.062 310.281 181.874 310.594C181.624 310.906 181.218 311.156 180.655 311.344L178.03 312.281L176.905 309.469ZM179.718 316.687L178.405 313.219L181.03 312.281L182.062 312C182.562 312.062 182.937 312.375 183.187 312.937L183.749 314.25L184.03 314.906L184.218 315.188L185.624 314.625V314.437C185.312 314.437 185.124 314.312 185.062 314.062C184.874 313.937 184.749 313.719 184.687 313.406L184.218 312.281C184.03 311.844 183.812 311.531 183.562 311.344L182.624 311.156L183.187 310.031L182.999 308.719C182.624 307.719 181.999 307.219 181.124 307.219L179.343 307.5L175.405 308.906L178.593 317.156L179.718 316.781M190.03 312.375L185.062 305.062L190.499 301.5L191.155 302.437L186.655 305.25L188.155 307.5L192.374 304.875L192.937 305.719L188.718 308.344L190.405 310.875L195.093 307.875L195.655 308.812L190.03 312.375ZM194.437 299.437L195.843 297.844C196.593 297.094 197.312 296.781 197.999 296.906C198.812 296.906 199.624 297.312 200.437 298.125C201.022 298.632 201.473 299.276 201.749 300C201.874 300.562 201.874 301.062 201.749 301.5L201.093 302.437L199.687 303.938L194.437 299.437ZM202.03 302.812C203.03 301.75 203.249 300.5 202.687 299.062C202.288 298.309 201.747 297.64 201.093 297.094C200.307 296.33 199.279 295.866 198.187 295.781C197.062 295.656 196.093 296.062 195.28 297L192.843 299.625L199.593 305.531L202.03 302.906M207.28 296.062L199.499 291.375L200.155 290.437L207.937 295.031L207.28 296.062ZM210.374 290.813L201.937 287.437L204.374 281.531L205.405 281.906L203.437 286.781L205.968 287.719L207.843 283.313L208.78 283.687L206.905 288.187L209.718 289.312L211.874 284.437L212.812 284.812L210.374 290.813ZM214.124 280.5L205.312 278.625L205.687 277.219L213.843 274.406L206.624 272.812L206.905 271.781L215.718 273.656L215.437 274.969L207.28 277.781L214.499 279.375L214.124 280.5ZM213.374 269.25L213.468 268.125C213.968 268.125 214.405 268.062 214.78 267.937C215.405 267.562 215.78 266.906 215.905 265.969L215.812 264.656C215.624 263.969 215.218 263.594 214.593 263.531C213.968 263.469 213.593 263.562 213.468 263.812C213.218 264.062 212.999 264.531 212.812 265.219L212.343 266.344C212.155 267.094 211.905 267.625 211.593 267.937C211.218 268.5 210.655 268.719 209.905 268.594C209.183 268.535 208.511 268.199 208.03 267.656C207.468 267.031 207.249 266.219 207.374 265.219C207.437 264.281 207.749 263.531 208.312 262.969C208.812 262.344 209.562 262.094 210.562 262.219L210.468 263.344C209.968 263.344 209.593 263.438 209.343 263.625C208.78 263.938 208.468 264.531 208.405 265.406C208.343 266.031 208.468 266.531 208.78 266.906C209.093 267.281 209.405 267.469 209.718 267.469C210.218 267.531 210.562 267.406 210.749 267.094L211.405 265.5L211.78 264.281C211.968 263.719 212.218 263.281 212.53 262.969C213.03 262.531 213.655 262.312 214.405 262.312C215.468 262.437 216.155 262.875 216.468 263.625C216.78 264.375 216.937 265.219 216.937 266.156C216.875 267.08 216.475 267.948 215.812 268.594C215.187 269.156 214.374 269.375 213.374 269.25ZM29.9992 268.781L30.2804 269.906C29.7179 269.969 29.3117 270.156 29.0617 270.469C28.5617 270.969 28.4054 271.719 28.5929 272.719L28.9679 273.844C29.3429 274.469 29.8742 274.75 30.5617 274.687C30.9992 274.625 31.3117 274.406 31.4992 274.031L31.7804 272.531V271.312C31.7804 270.5 31.8742 269.937 32.0617 269.625C32.3742 269.062 32.9054 268.687 33.6554 268.5C34.4679 268.375 35.1554 268.562 35.7179 269.062C36.3429 269.437 36.7492 270.125 36.9367 271.125C37.1189 271.946 37.0199 272.805 36.6554 273.562C36.3429 274.25 35.6867 274.688 34.6867 274.875L34.4992 273.844L35.4367 273.281C35.8742 272.844 36.0304 272.187 35.9054 271.312C35.7804 270.562 35.5304 270.094 35.1554 269.906L34.0304 269.625C33.8236 269.616 33.6195 269.675 33.4499 269.793C33.2804 269.912 33.1548 270.084 33.0929 270.281L32.9992 271.969L32.9054 273.187L32.5304 274.687C32.3936 275.003 32.1725 275.275 31.8914 275.474C31.6103 275.672 31.28 275.789 30.9367 275.812C29.9367 276 29.1554 275.75 28.5929 275.062C28.0199 274.429 27.6309 273.651 27.4679 272.812C27.273 271.88 27.4406 270.908 27.9367 270.094C28.1695 269.751 28.4752 269.464 28.8317 269.254C29.1882 269.043 29.5869 268.914 29.9992 268.875M29.4367 280.406L38.1554 277.781L40.1242 283.875L39.0929 284.25L37.4054 279.281L34.7804 280.031L36.3742 284.719L35.3429 285L33.8429 280.312L30.8429 281.25L32.5304 286.312L31.5929 286.594L29.4367 280.406ZM33.2804 291L41.2492 286.781L42.1867 288.281L36.6554 294L44.6242 292.688L45.4679 294.094L37.4992 298.312L36.9367 297.375L41.6242 294.844L42.4679 294.469L43.6867 293.812L35.7179 295.219L35.1554 294.187L40.5929 288.375L40.3117 288.562L39.3742 289.031L38.5304 289.5L33.8429 291.937L33.2804 291ZM48.0929 302.719C47.7179 302.594 47.3429 302.344 46.9679 301.969L45.2804 300.281L47.5304 298.219L49.2179 299.906L49.8742 300.844C50.0617 301.344 49.9054 301.812 49.4054 302.25C48.9054 302.687 48.4679 302.844 48.0929 302.719ZM41.7179 303.469L44.5304 300.937L46.4054 302.906C47.1554 303.531 47.8429 303.844 48.4679 303.844C49.1642 303.834 49.8323 303.567 50.3429 303.094C50.8164 302.583 51.0837 301.915 51.0929 301.219C51.0929 300.594 50.8117 300 50.2492 299.437L47.4367 296.625L40.8742 302.625L41.7179 303.469ZM49.5929 310.5L54.3742 303L59.9992 306.375L59.4367 307.312L54.7492 304.5L53.3429 306.844L57.5617 309.375L57.0929 310.312L52.7804 307.688L51.1867 310.219L55.8742 313.031L55.3117 313.969L49.5929 310.5ZM63.6554 309L66.5617 309.937L67.4992 310.406C67.8742 310.781 67.9367 311.25 67.6867 311.812C67.5617 312.437 67.2804 312.781 66.8429 312.844L65.4367 312.75L62.7179 311.812L63.6554 309ZM61.2179 316.406L62.4367 312.844L65.0617 313.687C65.5617 313.812 65.9054 313.969 66.0929 314.156C66.4054 314.469 66.4992 314.906 66.3742 315.469L65.9054 316.875L65.8117 317.531V317.812L67.2179 318.281V318.094L67.0304 317.437L67.2179 316.781L67.5929 315.656C67.7179 315.094 67.7179 314.719 67.5929 314.531C67.5929 314.219 67.4054 313.937 67.0304 313.687C67.5304 313.687 67.9367 313.531 68.2492 313.219C68.5617 312.906 68.7804 312.531 68.9054 312.094C69.2804 311.156 69.0929 310.375 68.3429 309.75L66.8429 308.906L62.8117 307.688L59.9992 316.031L61.2179 316.406Z" fill="#009FC5"/>
<path d="M73.5931 164.625C74.5306 162.094 84.1869 155.25 115.593 158.25C115.593 158.25 120.937 161.531 124.031 161.062C125.906 160.875 123.093 161.25 120.656 159.281C118.312 157.406 117.843 153.375 123.187 153.562C128.624 153.656 148.781 154.781 149.156 156.656C149.531 158.531 138.468 159.187 134.437 159.094C130.312 159 130.687 161.062 134.812 160.969C147.656 160.406 161.624 155.906 176.343 166.406C178.124 167.625 171.937 167.812 167.156 165.844C167.156 165.844 154.031 166.5 148.406 165.562C148.406 165.562 144.187 169.125 138.468 168.75C139.218 170.625 136.406 177.375 118.781 172.219C115.781 173.156 105.187 174.937 106.312 171.75C103.499 171.75 98.6244 172.687 97.8744 171.094C97.1244 169.5 106.499 167.156 108.187 165.469C108.187 165.469 88.3119 165.656 84.5619 164.25C84.5619 164.25 72.8431 166.875 73.5931 164.625Z" fill="#BC715F"/>
<path d="M79.9688 192.375C80.3438 191.812 80.5313 190.688 81.4688 190.781C83.3438 191.25 84.7501 194.906 87.0938 192.562C88.0313 192.375 88.3126 193.5 88.9688 193.688C89.4376 195.656 91.1251 193.219 92.2501 193.406C94.9376 192.281 97.8751 191.969 101.063 192.469C101.063 194.531 99.5626 196.687 97.6876 197.812C97.6876 199.687 99.5626 201 99.4688 202.969C99.1876 203.719 99.4688 204.844 98.3438 205.125C96.8438 204.844 95.5313 204.75 94.3126 203.906C94.1876 203.719 94.0001 203.625 93.7501 203.625C93.5626 204.281 94.6876 204.938 95.0626 205.594C94.3126 206.813 93.1876 205.687 92.1563 205.687C91.8751 206.437 92.1563 207.281 91.4063 207.75C90.1876 207.75 89.9063 206.344 89.1563 205.687C88.3126 206.531 89.7188 207 89.9063 207.656C89.3438 210.281 89.4376 212.813 86.9063 214.5L85.1251 215.344C84.6563 214.031 84.9376 212.062 84.6563 210.656C83.7813 212.344 82.6876 213.875 81.3751 215.25C79.5001 214.688 78.5626 212.625 78.1876 210.844C77.8283 209.858 77.752 208.791 77.9673 207.764C78.1827 206.736 78.6812 205.79 79.4063 205.031C78.9376 204.094 77.0626 204.281 76.7813 202.781C73.9688 200.906 72.5626 205.875 70.7813 203.344C70.5347 202.092 70.5753 200.8 70.9001 199.566C71.2248 198.332 71.8253 197.187 72.6563 196.219C72.1876 195.281 70.8751 195.469 70.1251 194.906C68.4376 193.406 65.9063 191.906 66.0938 189.281C68.4469 188.429 70.9944 188.268 73.4361 188.816C75.8778 189.364 78.1119 190.599 79.8751 192.375" fill="#008737"/>
<path d="M82.4064 192.094C82.3127 194.25 83.8126 192.656 85.0314 193.969C84.0939 193.594 83.4377 195.562 82.5002 194.438L81.9377 195C82.3127 195.75 82.8752 195.844 82.3127 196.688C81.3752 197.063 81.0939 195.75 80.6252 195.281C80.7502 195.031 80.6877 194.781 80.4377 194.531C79.9377 194.969 79.3127 195.156 78.5627 195.094C78.3752 194.719 77.9064 194.156 78.3752 193.781C79.1252 192.844 80.2501 194.156 80.8126 193.5C80.9064 192.844 80.3439 192.094 81.0939 191.625C81.5627 191.719 82.2189 191.438 82.4064 192.094ZM88.2189 193.875C88.3127 194.25 88.0314 194.813 88.5939 195.188C89.4064 194.875 90.0314 195.063 90.4689 195.75C90.5939 196.25 90.4689 196.625 90.0939 196.875L88.9689 196.594C88.9689 196.469 88.8439 196.281 88.5939 196.031C88.0939 196.031 87.7189 196.219 87.4689 196.594C87.7502 196.969 88.4064 197.25 88.2189 197.719C87.5627 198.375 87.2814 197.156 86.5314 197.531C85.9689 197.344 86.6252 196.313 85.8752 195.938C84.9377 195.938 85.5939 197.438 84.3752 196.875C83.8752 196.375 83.7502 195.844 84.0002 195.281C84.2891 195.161 84.6035 195.116 84.9146 195.149C85.2257 195.181 85.5237 195.291 85.7814 195.469C86.5314 194.625 86.5314 191.625 88.3126 193.875M81.0002 196.969C81.4689 197.719 80.8127 198.656 81.4689 199.406C82.4064 197.531 83.3439 199.781 84.4689 199.594C84.8439 200.062 84.5627 200.625 84.6564 201.094C83.2502 201.469 81.5626 201.938 80.3439 200.813L79.9689 201.188C80.7189 201.844 81.3751 202.688 80.8126 203.812C79.7814 204 78.0939 204.094 77.6252 202.969C77.3439 202.031 78.2814 201.469 77.2502 200.719C76.5939 201.656 76.5939 202.781 75.1876 201.938C74.801 201.703 74.5122 201.337 74.3744 200.906C74.2365 200.475 74.259 200.009 74.4377 199.594C75.3752 198.094 77.0626 199.594 78.0001 198.938C78.1876 197.625 77.7189 196.5 78.9376 195.844C79.8751 195.656 80.3439 196.406 81.0002 196.969Z" fill="#FFFF00"/>
<path d="M84.9375 197.812C84.4688 199.969 82.875 197.719 82.125 197.625C83.0625 195.75 83.7188 198.187 84.9375 197.812ZM90 200.156C88.875 200.437 89.0625 199.031 88.5 198.469L88.9688 198.094L90 200.156Z" fill="white"/>
<path d="M88.5 199.687C88.7813 200.437 87.75 201.094 88.6875 201.562L89.4375 200.906C90.3125 200.969 91.0625 201.344 91.6875 202.031C92.25 203.625 90.6563 203.625 89.8125 204.094H88.875C89.0625 203.531 88.4062 203.344 88.3125 203.156C88.1324 203.092 87.9372 203.085 87.7529 203.135C87.5686 203.186 87.404 203.291 87.2813 203.437C87.4688 204.375 88.6875 205.312 87.4688 206.156C86.3438 206.156 84.6563 206.531 84.75 205.031C84.375 204.094 85.875 202.875 84.2813 202.781C83.7188 204 83.1562 205.031 81.75 204L81.9375 202.312C83.25 202.312 84.8438 202.594 85.4063 201.094C85.7813 200.062 84.75 199.031 85.6875 198.281C87.0938 197.906 87.8438 198.844 88.5 199.687Z" fill="#FFFF00"/>
<path d="M87.5633 202.125C87.8446 202.969 87.0008 203.063 86.5321 203.438C86.0321 203.438 85.5946 203.25 85.2196 202.875C84.9383 201.938 85.6883 201.75 86.1571 201.375C86.8133 201.094 87.0946 201.844 87.5633 202.125Z" fill="black"/>
<path d="M86.7188 202.687C86.5938 202.812 86.4063 202.875 86.1563 202.875L85.9688 201.937C86.5938 201.875 86.8438 202.125 86.7188 202.687Z" fill="white"/>
</g>
</g>
<defs>
<clipPath id="clip0_3921_10076">
<rect width="640" height="480" fill="white"/>
</clipPath>
</defs>
</svg>
