<svg width="640" height="480" viewBox="0 0 640 480" fill="none" xmlns="http://www.w3.org/2000/svg">
<g clip-path="url(#clip0_3921_10133)">
<path d="M0 0H640V480H0V0Z" fill="#3E5EB9"/>
<path d="M0 90H640V390H0V90Z" fill="#FFD900"/>
<path d="M0 120H640V360H0V120Z" fill="#B10C0C"/>
<path d="M548.281 185.16L519.121 195.48L548.161 205.68L577.321 195.48L548.281 185.16Z" fill="white" stroke="black" stroke-width="1.2"/>
<path d="M528.96 192H107.88C105.826 192 104.16 193.531 104.16 195.42C104.16 197.309 105.826 198.84 107.88 198.84H528.96C531.015 198.84 532.68 197.309 532.68 195.42C532.68 193.531 531.015 192 528.96 192Z" fill="#FFD900" stroke="black" stroke-width="1.2"/>
<path d="M522.481 198.84C523.374 198.812 524.226 198.453 524.869 197.832C525.512 197.211 525.901 196.372 525.961 195.48C525.931 194.567 525.554 193.699 524.908 193.052C524.262 192.406 523.394 192.03 522.481 192M519.121 198.84C519.993 198.784 520.815 198.411 521.434 197.793C522.052 197.175 522.424 196.353 522.481 195.48C522.453 194.586 522.093 193.735 521.472 193.092C520.851 192.448 520.013 192.059 519.121 192M515.641 198.84C516.534 198.812 517.386 198.453 518.029 197.832C518.672 197.211 519.061 196.372 519.121 195.48C519.091 194.567 518.714 193.699 518.068 193.052C517.422 192.406 516.554 192.03 515.641 192" fill="#FFD900"/>
<path d="M522.481 198.84C523.374 198.812 524.226 198.453 524.869 197.832C525.512 197.211 525.901 196.372 525.961 195.48C525.931 194.567 525.554 193.699 524.908 193.052C524.262 192.406 523.394 192.03 522.481 192M519.121 198.84C519.993 198.784 520.815 198.411 521.434 197.793C522.052 197.175 522.424 196.353 522.481 195.48C522.453 194.586 522.093 193.735 521.472 193.092C520.851 192.448 520.013 192.059 519.121 192M515.641 198.84C516.534 198.812 517.386 198.453 518.029 197.832C518.672 197.211 519.061 196.372 519.121 195.48C519.091 194.567 518.714 193.699 518.068 193.052C517.422 192.406 516.554 192.03 515.641 192" stroke="black" stroke-width="1.2"/>
<path d="M520.322 205.68L491.162 216L520.202 226.2L549.362 216L520.322 205.68Z" fill="white" stroke="black" stroke-width="1.2"/>
<path d="M501.001 212.52H79.9212C77.8667 212.52 76.2012 214.051 76.2012 215.94C76.2012 217.829 77.8667 219.36 79.9212 219.36H501.001C503.056 219.36 504.721 217.829 504.721 215.94C504.721 214.051 503.056 212.52 501.001 212.52Z" fill="#FFD900" stroke="black" stroke-width="1.2"/>
<path d="M494.522 219.36C495.415 219.332 496.267 218.973 496.91 218.352C497.553 217.731 497.942 216.892 498.002 216C497.972 215.087 497.595 214.219 496.949 213.572C496.303 212.926 495.435 212.55 494.522 212.52M491.162 219.36C492.034 219.304 492.856 218.931 493.475 218.313C494.093 217.695 494.465 216.873 494.522 216C494.494 215.106 494.134 214.255 493.513 213.612C492.892 212.968 492.054 212.579 491.162 212.52M487.682 219.36C488.575 219.332 489.427 218.973 490.07 218.352C490.713 217.731 491.102 216.892 491.162 216C491.132 215.087 490.755 214.219 490.109 213.572C489.463 212.926 488.595 212.55 487.682 212.52" fill="#FFD900"/>
<path d="M494.522 219.36C495.415 219.332 496.267 218.973 496.91 218.352C497.553 217.731 497.942 216.892 498.002 216C497.972 215.087 497.595 214.219 496.949 213.572C496.303 212.926 495.435 212.55 494.522 212.52M491.162 219.36C492.034 219.304 492.856 218.931 493.475 218.313C494.093 217.695 494.465 216.873 494.522 216C494.494 215.106 494.134 214.255 493.513 213.612C492.892 212.968 492.054 212.579 491.162 212.52M487.682 219.36C488.575 219.332 489.427 218.973 490.07 218.352C490.713 217.731 491.102 216.892 491.162 216C491.132 215.087 490.755 214.219 490.109 213.572C489.463 212.926 488.595 212.55 487.682 212.52" stroke="black" stroke-width="1.2"/>
<path d="M606.361 234.84H33.6005C30.817 234.84 28.5605 237.15 28.5605 240C28.5605 242.85 30.817 245.16 33.6005 245.16H606.361C609.144 245.16 611.401 242.85 611.401 240C611.401 237.15 609.144 234.84 606.361 234.84Z" fill="#FFD900" stroke="black" stroke-width="1.32"/>
<path d="M488.2 240C453.9 274.3 408.2 342.9 316.8 342.9C236.8 342.9 179.7 274.3 145.4 240C179.6 205.7 236.8 137.1 316.8 137.1C408.2 137.1 453.9 205.7 488.2 240Z" fill="white" stroke="black" stroke-width="1.2"/>
<path d="M304.8 173C314 183.2 306.3 187.3 316 188C326.2 188.7 320.4 198.8 329 199.2C335 199.4 328.4 223.4 334.1 231.2C340 239.5 344.9 233.7 345.1 239.6C345.1 245.8 329.1 245.1 328.8 264.1C328.3 275 315.2 275.7 314.6 282.7C313.8 289.3 340.4 293 340 298.9C339.7 304.9 311.3 303.9 310 310.6C309.4 316.6 349 321.6 352.2 339.1C346.2 341.1 329.5 342.8 316.8 342.9C236.8 342.9 179.7 274.3 145.4 239.9C179.7 205.7 236.8 137.1 316.8 137.1C316.8 137.1 293.1 158.8 304.8 172.9V173Z" fill="black"/>
<path d="M213.6 230.88V203.4V230.88ZM230.16 203.4V230.88V203.4ZM246.72 203.4V230.88V203.4Z" fill="black"/>
<path d="M213.6 230.88V203.4M230.16 203.4V230.88M246.72 203.4V230.88" stroke="white" stroke-width="8.28"/>
<path d="M213.6 276.6V249.12V276.6ZM230.16 249.12V276.6V249.12ZM246.72 249.12V276.6V249.12Z" fill="black"/>
<path d="M213.6 276.6V249.12M230.16 249.12V276.6M246.72 249.12V276.6" stroke="white" stroke-width="8.28"/>
<path d="M263.52 230.88V203.4V230.88ZM280.08 203.4V230.88V203.4ZM296.64 203.4V230.88V203.4Z" fill="black"/>
<path d="M263.52 230.88V203.4M280.08 203.4V230.88M296.64 203.4V230.88" stroke="white" stroke-width="8.28"/>
<path d="M263.52 276.6V249.12V276.6ZM280.08 249.12V276.6V249.12ZM296.64 249.12V276.6V249.12Z" fill="black"/>
<path d="M263.52 276.6V249.12M280.08 249.12V276.6M296.64 249.12V276.6" stroke="white" stroke-width="8.28"/>
<path d="M339.359 230.88V203.4V230.88ZM355.919 203.4V230.88V203.4ZM372.479 203.4V230.88V203.4Z" fill="black"/>
<path d="M339.359 230.88V203.4M355.919 203.4V230.88M372.479 203.4V230.88" stroke="black" stroke-width="8.28"/>
<path d="M339.359 276.6V249.12V276.6ZM355.919 249.12V276.6V249.12ZM372.479 249.12V276.6V249.12Z" fill="black"/>
<path d="M339.359 276.6V249.12M355.919 249.12V276.6M372.479 249.12V276.6" stroke="black" stroke-width="8.28"/>
<path d="M389.279 230.88V203.4V230.88ZM405.839 203.4V230.88V203.4ZM422.399 203.4V230.88V203.4Z" fill="black"/>
<path d="M389.279 230.88V203.4M405.839 203.4V230.88M422.399 203.4V230.88" stroke="black" stroke-width="8.28"/>
<path d="M389.279 276.6V249.12V276.6ZM405.839 249.12V276.6V249.12ZM422.399 249.12V276.6V249.12Z" fill="black"/>
<path d="M389.279 276.6V249.12M405.839 249.12V276.6M422.399 249.12V276.6" stroke="black" stroke-width="8.28"/>
<path d="M570.4 236C565.2 244.9 574.4 233 596.8 248C599.06 249.897 600.915 252.229 602.255 254.857C603.595 257.486 604.392 260.357 604.6 263.3C603.6 262.6 602.7 261 601.6 260.1C600 261.7 603.2 269.1 603.6 272.6C600.1 270.6 600.4 269.8 599.3 267.4C599.5 270.2 598.6 278.2 600.1 281.4C597.3 280.6 597.5 278.4 596.1 277.9C597.1 281.4 595.2 285.1 595.7 289.1C594.1 287.5 592.3 286.2 591.6 285.6C591.4 287.6 588.5 292.4 588.4 294.2C587.383 293.484 586.67 292.414 586.4 291.2C583.225 294.982 580.537 299.148 578.4 303.6C573.7 299.6 561.8 289.6 560.2 284.2C558.8 287.2 556.8 288.2 553 290.4C551.4 282 545.5 272.6 548.6 265.3L542.5 269.5C544.316 262.144 547.781 255.297 552.631 249.476C557.482 243.655 563.592 239.013 570.5 235.9L570.4 236Z" fill="#333333" stroke="black"/>
<path d="M551 280.5C553.2 276.2 555.2 274.8 556.6 272C559 267.2 559.4 263.2 561.6 263.8C563.6 264.4 563.6 266.4 560.9 271.2C558.2 276 556.9 277 551 280.5ZM565.6 290.7C565.4 287.5 566.3 286.1 566.2 284C565.8 280.2 564.3 277.7 566.3 277.5C568.3 277.4 569.2 278.6 569.2 282.3C569.2 286.1 568.6 287.1 565.6 290.7ZM576.7 297.1C575.8 292.6 576.5 290.6 575.9 287.6C574.9 282.4 573 279 574.9 278.5C576.8 278 577.9 279.7 578.6 285C579.2 290.2 578.9 291.7 576.7 297.2V297.1ZM588.2 265.1C585.5 263.1 583.9 262.9 582.2 261.6C579.2 259.2 577.6 256.8 576.6 258C575.6 259.2 576.3 260.6 579.6 262.7C582.9 264.8 583.8 265 588.2 265.1ZM586.3 280.3C584.9 277.3 583.3 276.6 582.5 274.7C580.9 271.3 580.9 268.4 579 269.1C577.3 269.9 577.1 271.4 579 274.7C581 277.9 582 278.5 586.2 280.3H586.3Z" fill="#B3B3B3"/>
<path d="M53.7992 244.6C53.3992 242 53.9992 241.6 52.3992 239.6C54.7992 240.6 54.7992 243.3 57.6992 241.4C58.6992 240.9 59.1992 240.9 57.8992 237.9C60.8992 238.1 70.5992 241.4 72.1992 241.5C76.2992 241.7 83.7992 237.2 88.9992 242.7C93.9992 247.7 92.1992 253 92.1992 259.9C90.1992 258.9 91.1992 258.6 88.9992 256C90.5992 262.2 88.9992 273.1 88.9992 279.6C88.1992 278 88.2992 278.7 87.4992 277.1C85.4992 283 82.8992 284.1 82.8992 291.2C82.0992 288.4 82.8992 289 81.9992 287.6C79.9992 292.1 65.9992 295.9 71.3992 300.4C66.5992 297.6 64.3992 297.8 62.3992 295.4C61.3992 296 60.5326 297.067 59.7992 298.6C51.2992 294.8 54.2992 286.4 47.6992 280.7C46.4992 283.1 46.9992 282.8 45.6992 286.6C44.4992 281.3 44.0992 277.9 42.5992 274C41.2992 276.2 41.3992 275.3 38.9992 278.6C37.9992 272.2 36.4992 270.6 36.9992 266.3C34.5992 268.1 36.1992 267.3 33.6992 269.5C36.0992 253 46.2992 240.7 53.6992 244.5L53.7992 244.6Z" fill="#333333" stroke="black" stroke-width="1.3"/>
<path d="M43.3984 271.7C45.4984 266.3 47.3984 264.7 48.8984 261.3C51.3984 255.2 51.7984 250.3 53.8984 251C55.8984 251.8 55.8984 254.2 53.0984 260.2C50.2984 266.2 49.0984 267.4 43.3984 271.7ZM51.5984 285C52.3984 280.2 53.7984 278.6 54.3984 275.4C55.3984 270 54.8984 266 56.7984 266.2C58.7984 266.4 59.1984 268.5 57.8984 273.8C56.5984 279.3 55.6984 280.6 51.4984 285H51.5984ZM61.3984 294.4C61.6984 289.8 62.7984 287.9 62.9984 284.9C63.2984 279.7 62.1984 275.9 63.9984 275.9C65.9984 275.9 66.5984 277.8 65.9984 283C65.3984 288.2 64.7984 289.6 61.3984 294.4ZM82.5984 264C78.5984 260 76.1984 259.2 73.5984 256.6C68.9984 252 66.6984 247.8 64.9984 249.3C63.2984 250.8 64.3984 253 69.2984 257.3C74.0984 261.8 75.7984 262.4 82.6984 264H82.5984ZM80.1984 279.6C77.5984 275.6 75.5984 274.5 73.8984 271.8C70.8984 267.3 69.8984 263.4 68.1984 264.3C66.4984 265.2 66.8984 267.3 70.0984 271.8C73.2984 276.3 74.5984 277 80.1984 279.6Z" fill="#B3B3B3"/>
<path d="M261.399 155.4C256.599 164.6 269.699 152.4 290.199 167.8C295.204 173.116 298.42 179.865 299.399 187.1C295.223 185.763 291.2 183.986 287.399 181.8C287.399 181.8 296.399 191 296.399 201.4C293.199 199.4 291.599 199.7 290.399 197.3C290.399 200.6 293.399 202.8 293.399 208C291.43 206.413 289.321 205.007 287.099 203.8C290.099 209.1 281.599 219.3 285.899 222.6C282.296 222.081 278.836 220.839 275.725 218.949C272.615 217.059 269.919 214.559 267.799 211.6C266.199 212.6 265.999 214.3 265.899 216.2C266.199 216.3 254.599 207.5 255.699 204.2C254.369 205.851 253.599 207.882 253.499 210C249.126 206.338 245.812 201.573 243.899 196.2C242.099 198.6 241.899 198.6 239.999 201.2C238.599 192.5 238.599 192.8 241.399 185.4L235.799 189.7C237.261 182.444 240.316 175.604 244.743 169.672C249.17 163.741 254.859 158.866 261.399 155.4Z" fill="#333333" stroke="black"/>
<path d="M249.6 200.2C250.4 193.9 252 191.6 252.6 187.4C253.4 180.4 252.4 175 255 175.2C257.4 175.4 258.2 178 257 185.2C255.7 192.3 254.6 194 249.7 200.3L249.6 200.2ZM262.9 211.8C262.4 206.6 263.4 204.2 263 200.8C262.5 194.8 260.6 190.6 262.8 190.3C265 190 266.2 191.9 266.4 198.1C266.6 204.1 266.1 205.8 262.9 211.8ZM283.7 221.4C281.4 216.7 279.4 215.4 278 212.4C275.4 207.1 274.8 202.9 272.9 203.6C270.9 204.4 271 206.6 273.9 211.8C276.7 216.8 278 217.9 283.6 221.4H283.7ZM290.8 179.9C285 176.9 282.1 176.9 278.4 174.9C271.9 171.5 268.1 167.8 266.8 169.9C265.4 171.9 267.2 174 273.9 177.1C280.6 180.2 282.7 180.3 290.7 179.9H290.8ZM292.8 197.2C288.8 193.8 286.2 193.2 283.5 191C278.7 187 276.4 183.3 274.9 184.8C273.3 186.4 274.3 188.4 279.3 192.1C284.3 195.8 286 196.2 292.9 197.2H292.8Z" fill="#B3B3B3"/>
</g>
<defs>
<clipPath id="clip0_3921_10133">
<rect width="640" height="480" fill="white"/>
</clipPath>
</defs>
</svg>
