<svg width="640" height="480" viewBox="0 0 640 480" fill="none" xmlns="http://www.w3.org/2000/svg">
<g clip-path="url(#clip0_3921_10171)">
<path d="M640 480V0H0V480H640Z" fill="#002868"/>
<path d="M590 174.6V264.6C590 324.6 560 389.2 485 424.2C410 389.2 380 324.6 380 264.6V174.6H590Z" fill="#FCD116" stroke="black" stroke-width="8"/>
<path d="M590 174.6V264.6C590 324.6 560 389.2 485 424.2C410 389.2 380 324.6 380 264.6V174.6H590Z" stroke="white" stroke-width="7"/>
<path d="M447.099 273.7C444.399 278.4 439.699 279.4 436.099 277.9C432.399 276.4 428.999 267.6 425.199 262.9C421.599 258.2 420.599 260.2 418.199 257.5C414.696 254.306 410.626 251.797 406.199 250.1C402.899 248.6 399.499 247.2 397.199 241.5C398.23 239.207 400.086 237.386 402.399 236.4C404.299 235.7 405.799 233 405.999 230.6C406.299 228.4 408.299 225.9 410.999 224C409.699 224.2 407.099 223.7 405.899 222.9C404.799 221.9 402.899 222.1 401.799 222.9C400.666 223.7 399.133 223.967 397.199 223.7C397.999 223.1 399.399 221.7 399.499 220.5C399.599 219.3 401.099 218.6 403.999 218.6C406.799 218.6 408.599 215.4 410.899 215.4C409.299 215.4 409.599 212.6 410.499 212.4C406.499 211.7 406.999 208.4 408.599 208.4C408.499 208 407.999 207.4 406.099 206.9C404.399 206.2 405.199 204.6 406.599 203.6C405.399 201.1 406.499 199.2 408.499 197.6C405.699 197.5 408.799 193.6 409.499 191.5C410.299 189.5 410.599 189.2 411.499 190.5C412.499 191.6 414.799 194.2 417.399 195C419.866 195.667 421.366 197.067 421.899 199.2C422.399 201.5 423.399 202.6 426.099 203.6C428.999 204.5 432.899 206.9 432.399 212.2C434.289 212.271 436.109 212.936 437.599 214.1" fill="#FCAD56"/>
<path d="M447.099 273.7C444.399 278.4 439.699 279.4 436.099 277.9C432.399 276.4 428.999 267.6 425.199 262.9C421.599 258.2 420.599 260.2 418.199 257.5C414.696 254.306 410.626 251.797 406.199 250.1C402.899 248.6 399.499 247.2 397.199 241.5C398.23 239.207 400.086 237.386 402.399 236.4C404.299 235.7 405.799 233 405.999 230.6C406.299 228.4 408.299 225.9 410.999 224C409.699 224.2 407.099 223.7 405.899 222.9C404.799 221.9 402.899 222.1 401.799 222.9C400.666 223.7 399.133 223.967 397.199 223.7C397.999 223.1 399.399 221.7 399.499 220.5C399.599 219.3 401.099 218.6 403.999 218.6C406.799 218.6 408.599 215.4 410.899 215.4C409.299 215.4 409.599 212.6 410.499 212.4C406.499 211.7 406.999 208.4 408.599 208.4C408.499 208 407.999 207.4 406.099 206.9C404.399 206.2 405.199 204.6 406.599 203.6C405.399 201.1 406.499 199.2 408.499 197.6C405.699 197.5 408.799 193.6 409.499 191.5C410.299 189.5 410.599 189.2 411.499 190.5C412.499 191.6 414.799 194.2 417.399 195C419.866 195.667 421.366 197.067 421.899 199.2C422.399 201.5 423.399 202.6 426.099 203.6C428.999 204.5 432.899 206.9 432.399 212.2C434.289 212.271 436.109 212.936 437.599 214.1" stroke="black" stroke-width="0.3" stroke-linecap="round" stroke-linejoin="round"/>
<path d="M453.999 206C453.987 207.234 454.261 208.453 454.799 209.563C455.337 210.674 456.124 211.644 457.099 212.4C458.999 213.9 460.599 215.1 460.199 217C459.899 219 460.599 220.2 462.199 221.5C463.999 222.7 465.199 224.2 464.799 226.7C464.399 229.2 464.599 230.7 465.599 232.6C466.599 234.5 468.399 236 467.599 239C466.799 242 467.199 246 468.199 248C469.199 249.9 468.199 251.4 466.499 254.7C464.699 258 463.699 259.2 460.099 260.5C456.399 261.6 456.099 263.9 456.099 267.7C456.099 271.833 453.599 273.6 448.599 273C443.599 277.1 440.499 272.2 439.199 266.1C437.899 260 437.799 253.3 430.399 248C423.099 242.5 425.999 233.2 432.099 229.5C438.199 225.8 437.499 215.1 436.699 208.5C436.099 201.9 440.499 198.1 443.899 194.5C448.399 196.2 453.999 203.1 453.999 206Z" fill="#FFA1A1" stroke="black" stroke-width="0.3" stroke-linecap="round" stroke-linejoin="round"/>
<path d="M443.4 248.6C442 245.4 440.5 242.1 444.1 235.1C447.9 228 445.5 222.6 444.4 219C443.3 215.5 443 212.2 444.4 210.7C445.9 209.4 446.5 208.5 446.6 206.1C446.7 203.9 448.6 204.6 448.9 205.7C449.2 206.8 449.4 208.7 447.4 212.1C445.4 215.5 453 224.1 449.5 233.2C447.1 239.6 450.3 247.7 451.5 253.4C452.7 259.1 453.5 272.4 445.2 274.4C450.9 271.7 445.6 253.9 443.4 248.6Z" fill="#F1B2DC" stroke="black" stroke-width="0.3" stroke-linecap="round" stroke-linejoin="round"/>
<path d="M406.299 247.6C407.599 247.9 408.299 247.1 408.699 246.2C409.099 245.3 409.399 244.9 410.699 244.7C411.899 244.7 413.899 244.4 414.399 243.4C414.899 242.4 416.299 243.2 417.599 240.7C418.899 238.1 419.699 235.1 423.099 234M432.399 212.2C431.099 212.2 427.499 212.4 425.999 215.6M415.599 196.7C418.599 197.6 417.399 199.6 418.899 200.7C421.599 202.9 419.099 205.1 421.399 205.7C423.699 206.3 423.499 206.7 422.999 209.2C422.199 212.1 424.999 212.2 423.999 214.1M410.999 224C412.799 222.4 417.099 221.1 418.099 219.4M410.899 215.4C413.499 215.2 416.999 216.2 417.499 215.2M410.499 212.5C411.799 212.5 414.399 211.6 414.899 209.9M408.599 208.5C410.099 208.5 411.999 208.4 413.899 207M406.599 203.6C407.699 202.7 409.699 203.7 411.599 202.5M408.499 197.6C409.399 197.6 411.299 197.4 411.299 198.5" stroke="black" stroke-width="0.3" stroke-linecap="round" stroke-linejoin="round"/>
<path d="M528.125 220.475C528.125 220.475 519.375 213.1 512.125 208.1C504.875 203.1 496.125 196.975 496.125 195.725C497.5 194.725 504.875 199.475 515 205.6C525.25 211.85 531 217.975 531 217.975L528.125 220.475ZM527.5 225.475C527.5 225.475 519 220.35 510.625 216.725C501.875 213.1 488.75 213.1 487.375 211.85C487.375 210.6 502.625 209.85 513.5 214.225C524.625 219.35 530.375 222.975 530.375 222.975L527.5 225.475ZM527.375 233.975C527.375 233.975 518.125 229.725 509.125 227.725C500.375 225.725 487.875 226.475 486.375 225.35C486.375 224.1 501.875 221.6 513.5 225.35C525.25 228.975 530.25 231.475 530.25 231.475L527.375 233.975ZM526.875 242.6C526.875 242.6 519.875 237.85 510.625 236.85C501.875 235.975 490.25 242.6 488.75 241.35C488.75 240.1 498.875 232.725 511.5 233.975C523.875 235.225 529.75 240.1 529.75 240.1L526.875 242.6ZM529.75 215.35C529.75 215.35 520.875 207.225 520.875 201.725C520.875 196.85 526.25 189.35 528.625 189.35C527.375 191.85 523.25 196.85 523.25 201.725C523.25 206.725 532.625 212.85 532.625 212.85L529.75 215.35Z" fill="#9E540A" stroke="black" stroke-width="0.275" stroke-linecap="round" stroke-linejoin="round"/>
<path d="M529.75 215.35C529.75 215.35 531.5 207.225 531.5 201.725C531.5 194.35 526.25 187.6 526.75 185.725C528.625 187.6 533.875 193.1 533.875 201.725C533.875 209.225 532.625 212.85 532.625 212.85L529.75 215.35Z" fill="#9E540A" stroke="black" stroke-width="0.275" stroke-linecap="round" stroke-linejoin="round"/>
<path d="M531.875 212.725C531.875 210.35 531 208.225 529.5 206.6C527.5 204.225 524.5 203.475 521.375 203.975C517.625 204.6 514.625 206.85 512.75 210.35C510.25 214.975 510 219.975 509.875 224.85C509.875 241.725 510.5 248.6 511 265.225C511.125 270.1 512 280.1 509.75 287.975C508.875 291.35 507.875 294.475 506.375 297.725C507.375 293.6 507.875 291.475 508.375 288.35C509.75 280.225 509.375 272.6 509.125 265.1C508.625 249.725 507.75 241.85 507.25 223.225C507.125 217.6 507.625 213.35 510.25 208.85C513 204.225 517.75 200.85 523.125 200.85C525.375 200.85 527.25 201.225 529.125 202.35C532.875 204.35 534.625 208.475 534.625 212.6L531.875 212.725Z" fill="#9E540A" stroke="#FCD116" stroke-width="1.5" stroke-linecap="round" stroke-linejoin="round"/>
<path d="M531.875 212.725C531.875 210.35 531 208.225 529.5 206.6C527.5 204.225 524.5 203.475 521.375 203.975C517.625 204.6 514.625 206.85 512.75 210.35C510.25 214.975 510 219.975 509.875 224.85C509.875 241.725 510.5 248.6 511 265.225C511.125 270.1 512 280.1 509.75 287.975C508.875 291.35 507.875 294.475 506.375 297.725C507.375 293.6 507.875 291.475 508.375 288.35C509.75 280.225 509.375 272.6 509.125 265.1C508.625 249.725 507.75 241.85 507.25 223.225C507.125 217.6 507.625 213.35 510.25 208.85C513 204.225 517.75 200.85 523.125 200.85C525.375 200.85 527.25 201.225 529.125 202.35C532.875 204.35 534.625 208.475 534.625 212.6L531.875 212.725Z" fill="#9E540A"/>
<path d="M532.625 272.975C532.625 272.975 529.125 279.225 526.5 283.725C523.875 288.225 521.75 289.225 519.75 287.85C517.875 286.475 519.5 282.85 521 281.1C522.5 279.35 530.875 271.225 530.875 271.225L532.625 272.975Z" fill="#9E540A" stroke="black" stroke-width="0.275" stroke-linecap="round" stroke-linejoin="round"/>
<path d="M533.5 273.475C533.5 273.475 532.125 280.6 531 285.725C530 290.85 528.25 292.6 526.125 291.975C523.875 291.475 524.25 287.35 525.125 285.225C526 283.1 531.25 272.35 531.25 272.35L533.5 273.475Z" fill="#9E540A" stroke="black" stroke-width="0.275" stroke-linecap="round" stroke-linejoin="round"/>
<path d="M534.999 273.725V286.225C534.999 291.475 533.749 293.6 531.374 293.475C529.124 293.35 528.624 289.35 529.124 286.975C529.499 284.725 532.624 273.1 532.624 273.1L534.999 273.725Z" fill="#9E540A" stroke="black" stroke-width="0.275" stroke-linecap="round" stroke-linejoin="round"/>
<path d="M541.875 220.475C541.875 220.475 550.625 213.1 557.875 208.1C565.125 203.1 573.875 196.975 573.875 195.725C572.5 194.725 565.125 199.475 555 205.6C544.75 211.85 539 217.975 539 217.975L541.875 220.475ZM542.5 225.475C542.5 225.475 551 220.35 559.375 216.725C568.125 213.1 581.25 213.1 582.625 211.85C582.625 210.6 567.375 209.85 556.5 214.225C545.375 219.35 539.625 222.975 539.625 222.975L542.5 225.475ZM542.625 233.975C542.625 233.975 551.875 229.725 560.875 227.725C569.625 225.725 582.125 226.475 583.625 225.35C583.625 224.1 568.125 221.6 556.5 225.35C544.75 228.975 539.75 231.475 539.75 231.475L542.625 233.975ZM543.125 242.6C543.125 242.6 550.125 237.85 559.375 236.85C568.125 235.975 579.75 242.6 581.25 241.35C581.25 240.1 571.125 232.725 558.5 233.975C546.125 235.225 540.25 240.1 540.25 240.1L543.125 242.6ZM540.25 215.35C540.25 215.35 549.125 207.225 549.125 201.725C549.125 196.85 543.75 189.35 541.375 189.35C542.625 191.85 546.75 196.85 546.75 201.725C546.75 206.725 537.375 212.85 537.375 212.85L540.25 215.35Z" fill="#9E540A" stroke="black" stroke-width="0.275" stroke-linecap="round" stroke-linejoin="round"/>
<path d="M540.25 215.35C540.25 215.35 538.5 207.225 538.5 201.725C538.5 194.35 543.75 187.6 543.25 185.725C541.375 187.6 536.125 193.1 536.125 201.725C536.125 209.225 537.375 212.85 537.375 212.85L540.25 215.35Z" fill="#9E540A" stroke="black" stroke-width="0.275" stroke-linecap="round" stroke-linejoin="round"/>
<path d="M538.125 212.725C538.125 210.35 539 208.225 540.5 206.6C542.5 204.225 545.5 203.475 548.625 203.975C552.375 204.6 555.375 206.85 557.25 210.35C559.75 214.975 560 219.975 560.125 224.85C560.125 241.725 559.5 248.6 559 265.225C558.875 270.1 558 280.1 560.25 287.975C561.125 291.35 562.125 294.475 563.625 297.725C562.625 293.6 562.125 291.475 561.625 288.35C560.25 280.225 560.625 272.6 560.875 265.1C561.375 249.725 562.25 241.85 562.75 223.225C562.875 217.6 562.375 213.35 559.75 208.85C557 204.225 552.25 200.85 546.875 200.85C544.625 200.85 542.75 201.225 540.875 202.35C537.125 204.35 535.375 208.475 535.375 212.6L538.125 212.725Z" fill="#9E540A" stroke="#FCD116" stroke-width="1.5" stroke-linecap="round" stroke-linejoin="round"/>
<path d="M538.125 212.725C538.125 210.35 539 208.225 540.5 206.6C542.5 204.225 545.5 203.475 548.625 203.975C552.375 204.6 555.375 206.85 557.25 210.35C559.75 214.975 560 219.975 560.125 224.85C560.125 241.725 559.5 248.6 559 265.225C558.875 270.1 558 280.1 560.25 287.975C561.125 291.35 562.125 294.475 563.625 297.725C562.625 293.6 562.125 291.475 561.625 288.35C560.25 280.225 560.625 272.6 560.875 265.1C561.375 249.725 562.25 241.85 562.75 223.225C562.875 217.6 562.375 213.35 559.75 208.85C557 204.225 552.25 200.85 546.875 200.85C544.625 200.85 542.75 201.225 540.875 202.35C537.125 204.35 535.375 208.475 535.375 212.6L538.125 212.725Z" fill="#9E540A"/>
<path d="M537.375 272.975C537.375 272.975 540.875 279.225 543.5 283.725C546.125 288.225 548.25 289.225 550.25 287.85C552.125 286.475 550.5 282.85 549 281.1C547.5 279.35 539.125 271.225 539.125 271.225L537.375 272.975Z" fill="#9E540A" stroke="black" stroke-width="0.275" stroke-linecap="round" stroke-linejoin="round"/>
<path d="M536.5 273.475C536.5 273.475 537.875 280.6 539 285.725C540 290.85 541.75 292.6 543.875 291.975C546.125 291.475 545.75 287.35 544.875 285.225C544 283.1 538.75 272.35 538.75 272.35L536.5 273.475Z" fill="#9E540A" stroke="black" stroke-width="0.275" stroke-linecap="round" stroke-linejoin="round"/>
<path d="M535.001 273.725V286.225C535.001 291.475 536.251 293.6 538.626 293.475C540.876 293.35 541.376 289.35 540.876 286.975C540.501 284.725 537.376 273.1 537.376 273.1L535.001 273.725Z" fill="#9E540A" stroke="black" stroke-width="0.275" stroke-linecap="round" stroke-linejoin="round"/>
<path d="M535 273.6C528.375 273.475 527.75 271.1 527.75 271.1C527.75 271.1 526.875 268.1 526.75 266.225C526.625 265.975 524.875 262.225 525.375 260.6C524.75 259.1 523.25 255.475 524.625 254.85C524 253.1 523 251.1 522.875 249.225C522.375 247.85 521.125 244.85 522.125 243.85C522.125 243.85 519.75 238.85 520.875 237.6C520.875 237.6 519.75 232.725 520.875 231.475C520.875 231.475 520.875 226.475 522.125 225.225C522.125 225.225 522.125 220.35 523.25 219.1C523.25 219.35 526.75 212.225 535 212.225L534.875 222.85H535V273.6Z" fill="#9E540A" stroke="black" stroke-width="0.275" stroke-linecap="round" stroke-linejoin="round"/>
<path d="M535 246.35C524.375 246.225 522.125 243.85 522.125 243.85M535 240.1C524.375 240.1 520.875 237.6 520.875 237.6M535 233.975C524.375 233.85 520.875 231.475 520.875 231.475M535 227.725C524.375 227.6 522.125 225.225 522.125 225.225M534.875 222.85C535 222.85 526.875 222.85 525.625 221.6L523.25 219.225M535 268.6C531.875 268.6 528.375 268.1 526.75 266.225M535 263.6C529.125 263.6 525.625 261.225 525.625 261.225C525.625 261.225 525.5 260.975 525.375 260.6M535 257.475C527.25 257.35 525.125 255.725 524.625 254.85M535 252.475C524.375 252.475 523.25 249.975 523.25 249.975L522.875 249.225" stroke="black" stroke-width="0.275" stroke-linecap="round" stroke-linejoin="round"/>
<path d="M535 273.6C541.625 273.475 542.25 271.1 542.25 271.1C542.25 271.1 543.125 268.1 543.25 266.225C543.375 265.975 545.125 262.225 544.625 260.6C545.25 259.1 546.75 255.475 545.375 254.85C546 253.1 547 251.1 547.125 249.225C547.625 247.85 548.875 244.85 547.875 243.85C547.875 243.85 550.25 238.85 549.125 237.6C549.125 237.6 550.25 232.725 549.125 231.475C549.125 231.475 549.125 226.475 547.875 225.225C547.875 225.225 547.875 220.35 546.75 219.1C546.75 219.35 543.25 212.225 535 212.225L535.125 222.85H535V273.6Z" fill="#9E540A" stroke="black" stroke-width="0.275" stroke-linecap="round" stroke-linejoin="round"/>
<path d="M535 246.35C545.625 246.225 547.875 243.85 547.875 243.85M535 240.1C545.625 240.1 549.125 237.6 549.125 237.6M535 233.975C545.625 233.85 549.125 231.475 549.125 231.475M535 227.725C545.625 227.6 547.875 225.225 547.875 225.225M535.125 222.85C535 222.85 543.125 222.85 544.375 221.6L546.75 219.225M535 268.6C538.125 268.6 541.625 268.1 543.25 266.225M535 263.6C540.875 263.6 544.375 261.225 544.375 261.225C544.375 261.225 544.5 260.975 544.625 260.6M535 257.475C542.75 257.35 544.875 255.725 545.375 254.85M535 252.475C545.625 252.475 546.75 249.975 546.75 249.975L547.125 249.225" stroke="black" stroke-width="0.275" stroke-linecap="round" stroke-linejoin="round"/>
<path d="M485 388.6C479.625 393.6 469.25 390.35 466 388.1C462.625 389.225 453.625 385.725 451.25 381.85C444.75 382.725 442.5 373.475 443.625 371.1C445.375 367.6 442.25 365.35 444.5 362.975C447.625 359.975 442.75 357.1 445.75 355.1C448.75 352.975 445 349.475 448 347.225C451.125 344.85 446.375 341.6 449.625 339.975C452.875 338.35 449.25 334.1 452 332.475C454.75 330.85 450.375 326.725 454.125 324.85C457.75 322.975 454.5 319.725 457.375 318.35C460.5 316.725 457.625 313.35 460.5 312.225C463.75 310.85 461.375 307.225 464.125 306.225C466.5 305.35 465 303.1 466.5 301.1H485" fill="#009E49"/>
<path d="M485 388.6C479.625 393.6 469.25 390.35 466 388.1C462.625 389.225 453.625 385.725 451.25 381.85C444.75 382.725 442.5 373.475 443.625 371.1C445.375 367.6 442.25 365.35 444.5 362.975C447.625 359.975 442.75 357.1 445.75 355.1C448.75 352.975 445 349.475 448 347.225C451.125 344.85 446.375 341.6 449.625 339.975C452.875 338.35 449.25 334.1 452 332.475C454.75 330.85 450.375 326.725 454.125 324.85C457.75 322.975 454.5 319.725 457.375 318.35C460.5 316.725 457.625 313.35 460.5 312.225C463.75 310.85 461.375 307.225 464.125 306.225C466.5 305.35 465 303.1 466.5 301.1H485" stroke="black" stroke-width="0.275" stroke-linecap="round" stroke-linejoin="round"/>
<path d="M472.626 301.85C470.126 304.35 473.126 306.225 470.626 309.225C468.001 312.35 470.376 313.975 468.251 316.725C466.126 319.475 469.251 320.85 466.876 323.975C464.501 326.975 467.376 328.85 464.751 331.35C462.251 333.975 465.251 336.225 462.626 338.975C460.126 341.85 463.126 343.725 460.626 346.225C458.001 348.85 461.001 351.6 458.501 354.1C456.001 356.725 459.001 359.975 456.126 362.975C453.376 365.975 456.626 368.35 454.376 370.6C452.001 372.975 454.126 375.35 452.501 376.975C450.876 378.6 450.626 380.85 451.251 381.85M477.501 302.725C475.251 305.85 478.751 307.225 476.626 309.725C474.501 312.35 477.501 313.225 475.876 316.225C474.251 319.225 477.126 319.975 475.001 322.975C472.876 325.975 476.126 328.35 473.876 331.35C471.501 334.35 475.001 335.975 472.876 338.975C470.876 342.1 473.876 343.725 472.001 345.975C470.126 348.35 473.376 350.6 471.001 353.475C468.751 356.225 472.001 358.35 470.126 360.85C468.251 363.475 470.876 366.225 469.251 368.35C467.626 370.35 470.376 373.475 468.001 376.225C465.751 378.975 468.501 380.85 467.126 382.725C465.751 384.6 464.626 387.35 466.001 388.1" stroke="black" stroke-width="0.275" stroke-linecap="round" stroke-linejoin="round"/>
<path d="M485 388.6C490.375 393.6 500.75 390.35 504 388.1C507.375 389.225 516.375 385.725 518.75 381.85C525.25 382.725 527.5 373.475 526.375 371.1C524.625 367.6 527.75 365.35 525.5 362.975C522.375 359.975 527.25 357.1 524.25 355.1C521.25 352.975 525 349.475 522 347.225C518.875 344.85 523.625 341.6 520.375 339.975C517.125 338.35 520.75 334.1 518 332.475C515.25 330.85 519.625 326.725 515.875 324.85C512.25 322.975 515.5 319.725 512.625 318.35C509.5 316.725 512.375 313.35 509.5 312.225C506.25 310.85 508.625 307.225 505.875 306.225C503.5 305.35 505 303.1 503.5 301.1H485" fill="#009E49"/>
<path d="M485 388.6C490.375 393.6 500.75 390.35 504 388.1C507.375 389.225 516.375 385.725 518.75 381.85C525.25 382.725 527.5 373.475 526.375 371.1C524.625 367.6 527.75 365.35 525.5 362.975C522.375 359.975 527.25 357.1 524.25 355.1C521.25 352.975 525 349.475 522 347.225C518.875 344.85 523.625 341.6 520.375 339.975C517.125 338.35 520.75 334.1 518 332.475C515.25 330.85 519.625 326.725 515.875 324.85C512.25 322.975 515.5 319.725 512.625 318.35C509.5 316.725 512.375 313.35 509.5 312.225C506.25 310.85 508.625 307.225 505.875 306.225C503.5 305.35 505 303.1 503.5 301.1H485" stroke="black" stroke-width="0.275" stroke-linecap="round" stroke-linejoin="round"/>
<path d="M497.374 301.85C499.874 304.35 496.874 306.225 499.374 309.225C501.999 312.35 499.624 313.975 501.749 316.725C503.874 319.475 500.749 320.85 503.124 323.975C505.499 326.975 502.624 328.85 505.249 331.35C507.749 333.975 504.749 336.225 507.374 338.975C509.874 341.85 506.874 343.725 509.374 346.225C511.999 348.85 508.999 351.6 511.499 354.1C513.999 356.725 510.999 359.975 513.874 362.975C516.624 365.975 513.374 368.35 515.624 370.6C517.999 372.975 515.874 375.35 517.499 376.975C519.124 378.6 519.374 380.85 518.749 381.85M492.499 302.725C494.749 305.85 491.249 307.225 493.374 309.725C495.499 312.35 492.499 313.225 494.124 316.225C495.749 319.225 492.874 319.975 494.999 322.975C497.124 325.975 493.874 328.35 496.124 331.35C498.499 334.35 494.999 335.975 497.124 338.975C499.124 342.1 496.124 343.725 497.999 345.975C499.874 348.35 496.624 350.6 498.999 353.475C501.249 356.225 497.999 358.35 499.874 360.85C501.749 363.475 499.124 366.225 500.749 368.35C502.374 370.35 499.624 373.475 501.999 376.225C504.249 378.975 501.499 380.85 502.874 382.725C504.249 384.6 505.374 387.35 503.999 388.1" stroke="black" stroke-width="0.275" stroke-linecap="round" stroke-linejoin="round"/>
<path d="M485 388.6V301.1" stroke="#009E49" stroke-width="0.275" stroke-linecap="round" stroke-linejoin="round"/>
<path d="M484.999 305.6C483.874 310.475 486.624 314.725 484.999 318.85C483.374 322.85 486.124 324.475 485.249 327.725C484.249 330.975 486.374 333.35 484.999 336.85C483.624 340.35 486.874 343.1 484.999 347.725C483.124 352.225 486.249 353.35 484.999 357.975C483.624 363.225 487.374 365.975 484.999 369.725C482.624 373.475 487.124 374.35 485.249 378.6C483.374 382.725 486.374 384.35 484.999 388.6" stroke="black" stroke-width="0.275" stroke-linecap="round" stroke-linejoin="round"/>
<path d="M486.875 321.35C486.25 322.725 488.75 325.975 487.375 328.475C485.875 330.85 488.125 334.6 486.625 337.6C485.125 340.6 489 344.35 487.5 347.85C485.875 351.35 488.25 355.725 487.5 358.975C486.875 362.225 489.125 368.475 487.5 370.725C485.875 373.1 489.125 373.725 487.25 379.475C485.375 385.225 484.125 380.35 485.25 378.6C487.625 374.725 482.625 373.475 485 369.725C487.375 365.975 483.625 363.225 485 357.975C486.25 353.35 483.125 352.225 485 347.725C486.875 343.1 483.625 340.35 485 336.85C486.375 333.35 484.25 330.975 485.25 327.725C486.125 324.475 483.375 322.85 485 318.85C486.25 314.85 487.5 319.975 486.875 321.35ZM476.375 325.35C475.5 326.85 477.875 329.725 475.75 332.6C474.25 334.6 476.75 336.975 474.625 339.85C473.25 341.85 476 344.35 474.125 347.225C472.875 348.85 475 351.975 473.5 354.35C472 356.85 474.25 358.85 471.625 362.1C470.125 363.85 472.75 368.225 471.125 369.6C469.5 370.975 471 376.35 469.875 377.1C468.875 377.975 469.875 381.85 467.125 382.725C468.5 380.85 465.75 378.975 468 376.225C470.375 373.475 467.625 370.35 469.25 368.35C470.875 366.225 468.25 363.475 470.125 360.85C472 358.35 468.75 356.225 471 353.475C473.375 350.6 470.125 348.35 472 345.975C473.875 343.725 470.875 342.1 472.875 338.975C475 335.975 471.5 334.35 473.875 331.35C476.125 328.35 472.875 325.975 475 322.975C477.125 319.975 474.25 319.225 475.875 316.225C478.875 317.35 477.375 323.85 476.375 325.35ZM470.125 317.225C468.875 319.225 470.625 321.6 468.75 324.1C466.875 326.725 468.75 329.975 466.875 332.1C465 334.1 467.375 338.1 465 339.725C462.625 341.35 464.125 346.225 462.25 347.85C460.375 349.475 462.25 354.1 460.125 356.475C458 358.85 459 363.725 457.75 364.85C456.625 365.975 459.375 368.35 457.375 369.975C455.25 371.6 455.25 374.85 452.5 376.975C454.125 375.35 452 372.975 454.375 370.6C456.625 368.35 453.375 365.975 456.125 362.975C459 359.975 456 356.725 458.5 354.1C461 351.6 458 348.85 460.625 346.225C463.125 343.725 460.125 341.85 462.625 338.975C465.25 336.225 462.25 333.975 464.75 331.35C467.375 328.85 464.5 326.975 466.875 323.975C469.25 320.85 466.125 319.475 468.25 316.725C469.25 315.475 469.25 314.35 469.25 313.35C470.75 309.475 470.75 316.225 470.125 317.225Z" fill="#FCD116" stroke="black" stroke-width="0.275" stroke-linecap="round" stroke-linejoin="round"/>
<path d="M467.625 303.975C467.625 277.725 471.25 268.6 485 268.6C498.75 268.6 502.375 277.725 502.375 303.975H467.625Z" fill="#CE1126" stroke="black" stroke-width="0.275" stroke-linecap="round" stroke-linejoin="round"/>
<path d="M467.625 303.975C467.625 277.725 471.25 268.6 485 268.6C478.75 268.6 474.875 273.475 473.875 276.725C472.75 279.975 473.375 279.725 474.75 278.475C476.125 277.225 475.5 279.975 474.25 281.475C473.125 282.975 472 287.35 473.625 285.975C475.25 284.475 476.5 286.1 474.75 288.6C473 290.975 471.5 296.725 473.25 294.725C475 292.725 475.375 295.975 474.25 297.6C473.25 299.225 473.375 300.725 474.25 299.975C475.25 299.225 475.125 302.6 474.25 303.975H467.625ZM491.5 303.475C491.5 299.6 491.625 290.475 489.5 287.475C488 285.1 488 282.6 489.75 285.35C491.5 288.1 492.375 286.725 491.125 283.975C489.625 280.475 487.625 276.6 488.125 275.85C488.75 274.975 489.125 275.35 490.375 277.225C491.625 279.1 491.875 276.35 490.5 274.475C489.125 272.725 489.25 272.35 492.125 273.6C497.25 275.725 499.75 281.85 499.75 302.475L491.5 303.475Z" fill="#000001" stroke="black" stroke-width="0.275" stroke-linecap="round" stroke-linejoin="round"/>
<path d="M485 307.725C479.5 307.725 473.5 306.85 469.5 305.225C464.75 303.35 464.5 301.725 466.125 299.725C467.375 298.225 469.875 299.1 472.375 300.225C474.75 301.225 481.5 301.975 485 301.975C488.5 301.975 495.25 301.225 497.625 300.1C500.125 299.1 502.625 298.225 503.875 299.725C505.5 301.725 505.25 303.35 500.5 305.225C496.5 306.85 490.5 307.725 485 307.725Z" fill="#CE1126" stroke="black" stroke-width="0.275" stroke-linecap="round" stroke-linejoin="round"/>
<path d="M0 0H320V240H0V0Z" fill="#012169"/>
<path d="M37.5 0L159.5 90.5L281 0H320V31L200 120.5L320 209.5V240H280L160 150.5L40.5 240H0V210L119.5 121L0 32V0H37.5Z" fill="white"/>
<path d="M212 140.5L320 220V240L184.5 140.5H212ZM120 150.5L123 168L27 240H0L120 150.5ZM320 0V1.5L195.5 95.5L196.5 73.5L295 0H320ZM0 0L119.5 88H89.5L0 21V0Z" fill="#C8102E"/>
<path d="M120.5 0V240H200.5V0H120.5ZM0 80V160H320V80H0Z" fill="white"/>
<path d="M0 96.5V144.5H320V96.5H0ZM136.5 0V240H184.5V0H136.5Z" fill="#C8102E"/>
</g>
<defs>
<clipPath id="clip0_3921_10171">
<rect width="640" height="480" fill="white"/>
</clipPath>
</defs>
</svg>
