<svg width="640" height="480" viewBox="0 0 640 480" fill="none" xmlns="http://www.w3.org/2000/svg">
<g clip-path="url(#clip0_3921_10230)">
<path d="M0 0H640V480H0V0Z" fill="#002395"/>
<path d="M0 0H292.8V196.8H0V0Z" fill="white"/>
<path d="M0 0H96V192H0V0Z" fill="#002395"/>
<path d="M192 0H288V192H192V0Z" fill="#ED2939"/>
<path d="M426 219.6L441.4 244.2H485.4V330L452.4 278.4L408 349.2H429.6L452.4 308.4L499.2 392.4L546 308.4L568.8 349.2H590.4L546 278.4L513 330V282.6H532.8L547.5 259.2H513V244.2H557L572.4 219.6H426ZM477.6 324.6H429.6V341.4H477.6V324.6ZM568.8 324.6H520.8V341.4H568.8V324.6Z" fill="white"/>
<path d="M499.199 409.2L513.959 454.8L475.199 426.6H523.199L484.439 454.8L499.199 409.2Z" fill="white"/>
<path d="M445.199 368.4L459.959 414L421.199 385.8H469.199L430.439 414L445.199 368.4Z" fill="white"/>
<path d="M553.199 368.4L567.959 414L529.199 385.8H577.199L538.439 414L553.199 368.4Z" fill="white"/>
<path d="M399.6 247.2L414.36 292.8L375.6 264.6H423.6L384.84 292.8L399.6 247.2Z" fill="white"/>
<path d="M598.801 247.2L613.561 292.8L574.801 264.6H622.801L584.041 292.8L598.801 247.2Z" fill="white"/>
</g>
<defs>
<clipPath id="clip0_3921_10230">
<rect width="640" height="480" fill="white"/>
</clipPath>
</defs>
</svg>
