<svg width="640" height="480" viewBox="0 0 640 480" fill="none" xmlns="http://www.w3.org/2000/svg">
<g clip-path="url(#clip0_3921_10494)">
<path d="M0 0H640V480H0V0Z" fill="#009FCA"/>
<path fill-rule="evenodd" clip-rule="evenodd" d="M593.299 122.7H620.999L598.699 137.9L607.199 162.6L584.899 147.3L562.699 162.6L571.199 137.9L548.899 122.7H576.399L584.899 98L593.299 122.7ZM524.099 319.5H551.699L529.399 334.7L537.899 359.4L515.599 344.1L493.299 359.4L501.899 334.7L479.599 319.5H506.999L515.499 294.8L524.099 319.5ZM593.299 274.9H620.999L598.699 290.1L607.199 314.8L584.899 299.5L562.699 314.8L571.199 290.1L548.899 274.9H576.399L584.899 250.2L593.299 274.9ZM295.799 417.7H323.399L300.999 432.8L309.599 457.4L287.299 442.2L264.999 457.4L273.599 432.8L251.199 417.5H278.799L287.299 392.9L295.799 417.7ZM358.399 341.2H330.799L353.099 325.9L344.599 301.3L366.899 316.5L389.199 301.3L380.599 325.9L402.899 341.2H375.399L366.899 365.8L358.399 341.2ZM439.699 228.7H411.999L434.299 213.5L425.799 188.8L448.099 204.1L470.399 188.8L461.799 213.5L484.099 228.7H456.599L448.099 253.4L439.699 228.7ZM507.999 205.4H480.399L502.799 190.1L494.199 165.5L516.499 180.7L538.799 165.5L530.199 190.1L552.599 205.4H524.999L516.499 230L507.999 205.4ZM439.699 400H411.999L434.299 384.8L425.999 360L448.299 375.2L470.599 360L461.999 384.7L484.299 399.9H456.799L448.299 424.6L439.699 400ZM358.399 419.9H330.799L353.099 404.7L344.599 380L366.899 395.2L389.199 380L380.599 404.6L402.999 420H375.499L366.999 444.7L358.399 419.9Z" fill="#FFF40D"/>
<path d="M0 0H320V240H0V0Z" fill="#012169"/>
<path d="M37.5 0L159.5 90.5L281 0H320V31L200 120.5L320 209.5V240H280L160 150.5L40.5 240H0V210L119.5 121L0 32V0H37.5Z" fill="white"/>
<path d="M212 140.5L320 220V240L184.5 140.5H212ZM120 150.5L123 168L27 240H0L120 150.5ZM320 0V1.5L195.5 95.5L196.5 73.5L295 0H320ZM0 0L119.5 88H89.5L0 21V0Z" fill="#C8102E"/>
<path d="M120.5 0V240H200.5V0H120.5ZM0 80V160H320V80H0Z" fill="white"/>
<path d="M0 96.5V144.5H320V96.5H0ZM136.5 0V240H184.5V0H136.5Z" fill="#C8102E"/>
</g>
<defs>
<clipPath id="clip0_3921_10494">
<rect width="640" height="480" fill="white"/>
</clipPath>
</defs>
</svg>
