<svg width="640" height="480" viewBox="0 0 640 480" fill="none" xmlns="http://www.w3.org/2000/svg">
<g clip-path="url(#clip0_3921_10649)">
<path d="M0 320H640V480H0V320Z" fill="#1EB53A"/>
<path d="M0 0H640V160H0V0Z" fill="#0099B5"/>
<path d="M0 153.6H640V326.4H0V153.6Z" fill="#CE1126"/>
<path d="M0 163.2H640V316.8H0V163.2Z" fill="white"/>
<path d="M134.401 134.4C166.212 134.4 192.001 108.612 192.001 76.8C192.001 44.9884 166.212 19.2 134.401 19.2C102.589 19.2 76.8008 44.9884 76.8008 76.8C76.8008 108.612 102.589 134.4 134.401 134.4Z" fill="white"/>
<path d="M153.6 134.4C185.412 134.4 211.2 108.612 211.2 76.8C211.2 44.9884 185.412 19.2 153.6 19.2C121.788 19.2 96 44.9884 96 76.8C96 108.612 121.788 134.4 153.6 134.4Z" fill="#0099B5"/>
<path d="M261.101 111.38L257.453 122.324L263.021 124.244" fill="white"/>
<path d="M261.102 111.38L264.75 122.324L259.182 124.244" fill="white"/>
<path d="M272.057 119.34L260.521 119.252L260.416 125.141" fill="white"/>
<path d="M272.056 119.34L262.775 126.191L259.229 121.489" fill="white"/>
<path d="M250.145 119.34L259.426 126.191L262.973 121.489" fill="white"/>
<path d="M250.146 119.34L261.682 119.252L261.787 125.141" fill="white"/>
<path d="M267.873 132.22L264.391 121.222L258.758 122.941" fill="white"/>
<path d="M267.873 132.22L258.489 125.51L261.865 120.684" fill="white"/>
<path d="M254.33 132.22L263.714 125.51L260.338 120.684" fill="white"/>
<path d="M254.33 132.22L257.812 121.222L263.445 122.941" fill="white"/>
<path d="M261.101 65.3L257.453 76.244L263.021 78.164" fill="white"/>
<path d="M261.102 65.3L264.75 76.244L259.182 78.164" fill="white"/>
<path d="M272.057 73.2601L260.521 73.1725L260.416 79.0613" fill="white"/>
<path d="M272.056 73.2601L262.775 80.1114L259.229 75.4093" fill="white"/>
<path d="M250.145 73.2601L259.426 80.1114L262.973 75.4093" fill="white"/>
<path d="M250.146 73.2601L261.682 73.1725L261.787 79.0613" fill="white"/>
<path d="M267.873 86.1398L264.391 75.1417L258.758 76.8612" fill="white"/>
<path d="M267.873 86.1398L258.489 79.4302L261.865 74.6041" fill="white"/>
<path d="M254.33 86.1399L263.714 79.4302L260.338 74.6041" fill="white"/>
<path d="M254.33 86.1398L257.812 75.1417L263.445 76.8612" fill="white"/>
<path d="M261.101 19.22L257.453 30.164L263.021 32.084" fill="white"/>
<path d="M261.102 19.22L264.75 30.164L259.182 32.084" fill="white"/>
<path d="M272.057 27.1801L260.521 27.0925L260.416 32.9813" fill="white"/>
<path d="M272.056 27.1801L262.775 34.0314L259.229 29.3292" fill="white"/>
<path d="M250.145 27.1801L259.426 34.0314L262.973 29.3292" fill="white"/>
<path d="M250.146 27.1801L261.682 27.0925L261.787 32.9813" fill="white"/>
<path d="M267.873 40.0598L264.391 29.0617L258.758 30.7812" fill="white"/>
<path d="M267.873 40.0598L258.489 33.3502L261.865 28.5241" fill="white"/>
<path d="M254.33 40.0599L263.714 33.3502L260.338 28.5241" fill="white"/>
<path d="M254.33 40.0598L257.812 29.0617L263.445 30.7812" fill="white"/>
<path d="M307.181 111.38L303.533 122.324L309.101 124.244" fill="white"/>
<path d="M307.182 111.38L310.83 122.324L305.262 124.244" fill="white"/>
<path d="M318.137 119.34L306.601 119.252L306.496 125.141" fill="white"/>
<path d="M318.136 119.34L308.855 126.191L305.309 121.489" fill="white"/>
<path d="M296.225 119.34L305.506 126.191L309.053 121.489" fill="white"/>
<path d="M296.226 119.34L307.762 119.252L307.867 125.141" fill="white"/>
<path d="M313.953 132.22L310.472 121.222L304.838 122.941" fill="white"/>
<path d="M313.953 132.22L304.569 125.51L307.945 120.684" fill="white"/>
<path d="M300.41 132.22L309.794 125.51L306.418 120.684" fill="white"/>
<path d="M300.41 132.22L303.892 121.222L309.525 122.941" fill="white"/>
<path d="M307.181 65.3L303.533 76.244L309.101 78.164" fill="white"/>
<path d="M307.182 65.3L310.83 76.244L305.262 78.164" fill="white"/>
<path d="M318.137 73.2601L306.601 73.1725L306.496 79.0613" fill="white"/>
<path d="M318.136 73.2601L308.855 80.1114L305.309 75.4093" fill="white"/>
<path d="M296.225 73.2601L305.506 80.1114L309.053 75.4093" fill="white"/>
<path d="M296.226 73.2601L307.762 73.1725L307.867 79.0613" fill="white"/>
<path d="M313.953 86.1398L310.472 75.1417L304.838 76.8612" fill="white"/>
<path d="M313.953 86.1398L304.569 79.4302L307.945 74.6041" fill="white"/>
<path d="M300.41 86.1399L309.794 79.4302L306.418 74.6041" fill="white"/>
<path d="M300.41 86.1399L303.892 75.1418L309.525 76.8613" fill="white"/>
<path d="M307.181 19.22L303.533 30.164L309.101 32.084" fill="white"/>
<path d="M307.182 19.22L310.83 30.164L305.262 32.084" fill="white"/>
<path d="M318.137 27.1801L306.601 27.0925L306.496 32.9813" fill="white"/>
<path d="M318.136 27.1801L308.855 34.0314L305.309 29.3292" fill="white"/>
<path d="M296.225 27.1801L305.506 34.0314L309.053 29.3292" fill="white"/>
<path d="M296.226 27.1801L307.762 27.0925L307.867 32.9813" fill="white"/>
<path d="M313.953 40.0598L310.472 29.0617L304.838 30.7812" fill="white"/>
<path d="M313.953 40.0598L304.569 33.3502L307.945 28.5241" fill="white"/>
<path d="M300.41 40.0599L309.794 33.3502L306.418 28.5241" fill="white"/>
<path d="M300.41 40.0598L303.892 29.0617L309.525 30.7812" fill="white"/>
<path d="M353.261 111.38L349.613 122.324L355.181 124.244" fill="white"/>
<path d="M353.262 111.38L356.91 122.324L351.342 124.244" fill="white"/>
<path d="M364.217 119.34L352.681 119.252L352.576 125.141" fill="white"/>
<path d="M364.216 119.34L354.935 126.191L351.389 121.489" fill="white"/>
<path d="M342.305 119.34L351.586 126.191L355.133 121.489" fill="white"/>
<path d="M342.306 119.34L353.842 119.252L353.947 125.141" fill="white"/>
<path d="M360.033 132.22L356.552 121.222L350.918 122.941" fill="white"/>
<path d="M360.033 132.22L350.649 125.51L354.025 120.684" fill="white"/>
<path d="M346.49 132.22L355.874 125.51L352.498 120.684" fill="white"/>
<path d="M346.49 132.22L349.972 121.222L355.605 122.941" fill="white"/>
<path d="M353.261 65.3L349.613 76.244L355.181 78.164" fill="white"/>
<path d="M353.262 65.3L356.91 76.244L351.342 78.164" fill="white"/>
<path d="M364.217 73.2601L352.681 73.1725L352.576 79.0613" fill="white"/>
<path d="M364.216 73.2601L354.935 80.1114L351.389 75.4093" fill="white"/>
<path d="M342.305 73.2601L351.586 80.1114L355.133 75.4093" fill="white"/>
<path d="M342.306 73.2601L353.842 73.1725L353.947 79.0613" fill="white"/>
<path d="M360.033 86.1398L356.552 75.1417L350.918 76.8612" fill="white"/>
<path d="M360.033 86.1398L350.649 79.4302L354.025 74.6041" fill="white"/>
<path d="M346.49 86.1399L355.874 79.4302L352.498 74.6041" fill="white"/>
<path d="M346.49 86.1399L349.972 75.1418L355.605 76.8613" fill="white"/>
<path d="M353.261 19.22L349.613 30.164L355.181 32.084" fill="white"/>
<path d="M353.262 19.22L356.91 30.164L351.342 32.084" fill="white"/>
<path d="M364.217 27.1801L352.681 27.0925L352.576 32.9813" fill="white"/>
<path d="M364.216 27.1801L354.935 34.0314L351.389 29.3292" fill="white"/>
<path d="M342.305 27.1801L351.586 34.0314L355.133 29.3292" fill="white"/>
<path d="M342.306 27.1801L353.842 27.0925L353.947 32.9813" fill="white"/>
<path d="M360.033 40.0598L356.552 29.0617L350.918 30.7812" fill="white"/>
<path d="M360.033 40.0598L350.649 33.3502L354.025 28.5241" fill="white"/>
<path d="M346.49 40.0599L355.874 33.3502L352.498 28.5241" fill="white"/>
<path d="M346.49 40.0598L349.972 29.0617L355.605 30.7812" fill="white"/>
<path d="M168.941 111.38L165.293 122.324L170.861 124.244" fill="white"/>
<path d="M168.942 111.38L172.59 122.324L167.022 124.244" fill="white"/>
<path d="M179.897 119.34L168.361 119.252L168.256 125.141" fill="white"/>
<path d="M179.896 119.34L170.615 126.191L167.068 121.489" fill="white"/>
<path d="M157.985 119.34L167.266 126.191L170.812 121.489" fill="white"/>
<path d="M157.986 119.34L169.522 119.252L169.627 125.141" fill="white"/>
<path d="M175.713 132.22L172.231 121.222L166.598 122.941" fill="white"/>
<path d="M175.713 132.22L166.329 125.51L169.705 120.684" fill="white"/>
<path d="M162.17 132.22L171.554 125.51L168.178 120.684" fill="white"/>
<path d="M162.17 132.22L165.651 121.222L171.285 122.941" fill="white"/>
<path d="M215.021 111.38L211.373 122.324L216.941 124.244" fill="white"/>
<path d="M215.022 111.38L218.67 122.324L213.102 124.244" fill="white"/>
<path d="M225.977 119.34L214.441 119.252L214.336 125.141" fill="white"/>
<path d="M225.976 119.34L216.695 126.191L213.149 121.489" fill="white"/>
<path d="M204.065 119.34L213.346 126.191L216.892 121.489" fill="white"/>
<path d="M204.066 119.34L215.602 119.252L215.707 125.141" fill="white"/>
<path d="M221.793 132.22L218.311 121.222L212.678 122.941" fill="white"/>
<path d="M221.793 132.22L212.409 125.51L215.785 120.684" fill="white"/>
<path d="M208.25 132.22L217.634 125.51L214.258 120.684" fill="white"/>
<path d="M208.25 132.22L211.732 121.222L217.365 122.941" fill="white"/>
<path d="M215.021 65.3L211.373 76.244L216.941 78.164" fill="white"/>
<path d="M215.022 65.3L218.67 76.244L213.102 78.164" fill="white"/>
<path d="M225.977 73.2601L214.441 73.1725L214.336 79.0613" fill="white"/>
<path d="M225.976 73.2601L216.695 80.1114L213.149 75.4093" fill="white"/>
<path d="M204.065 73.2601L213.346 80.1114L216.892 75.4093" fill="white"/>
<path d="M204.066 73.2601L215.602 73.1725L215.707 79.0613" fill="white"/>
<path d="M221.793 86.1398L218.311 75.1417L212.678 76.8612" fill="white"/>
<path d="M221.793 86.1398L212.409 79.4302L215.785 74.6041" fill="white"/>
<path d="M208.25 86.1399L217.634 79.4302L214.258 74.6041" fill="white"/>
<path d="M208.25 86.1399L211.732 75.1418L217.365 76.8613" fill="white"/>
</g>
<defs>
<clipPath id="clip0_3921_10649">
<rect width="640" height="480" fill="white"/>
</clipPath>
</defs>
</svg>
