<svg width="640" height="480" viewBox="0 0 640 480" fill="none" xmlns="http://www.w3.org/2000/svg">
<g clip-path="url(#clip0_3921_11089)">
<path d="M0 0H640V480H0V0Z" fill="#CF142B"/>
<path d="M0 0H640V320H0V0Z" fill="#00247D"/>
<path d="M0 0H640V160H0V0Z" fill="#FFCC00"/>
<path d="M348.477 174.492L339.234 192.358L349.639 197.848L348.477 174.492Z" fill="white"/>
<path d="M348.478 174.492L351.053 194.442L339.398 196.042L348.478 174.492Z" fill="white"/>
<path d="M364.81 191.404L344.961 188.135L342.955 199.727L364.81 191.404Z" fill="white"/>
<path d="M364.809 191.404L346.631 200.018L341.508 189.428L364.809 191.404Z" fill="white"/>
<path d="M327.346 184.798L341.482 199.11L349.919 190.911L327.346 184.798Z" fill="white"/>
<path d="M327.347 184.798L347.117 188.514L345.037 200.094L327.347 184.798Z" fill="white"/>
<path d="M353.773 212.164L350.749 192.276L339.105 193.951L353.773 212.164Z" fill="white"/>
<path d="M353.774 212.164L339.964 197.537L348.452 189.392L353.774 212.164Z" fill="white"/>
<path d="M330.619 208.081L348.598 199.059L343.408 188.502L330.619 208.081Z" fill="white"/>
<path d="M330.619 208.081L340.262 190.427L350.632 195.983L330.619 208.081Z" fill="white"/>
<path d="M402.001 193.972L387.205 207.599L395.104 216.317L402.001 193.972Z" fill="white"/>
<path d="M402.001 193.972L397.597 213.599L386.098 211.117L402.001 193.972Z" fill="white"/>
<path d="M411.564 215.451L394.031 205.59L388.181 215.797L411.564 215.451Z" fill="white"/>
<path d="M411.564 215.451L391.536 217.328L390.343 205.624L411.564 215.451Z" fill="white"/>
<path d="M378.619 196.429L387.007 214.713L397.74 209.894L378.619 196.429Z" fill="white"/>
<path d="M378.619 196.429L395.925 206.683L390.011 216.853L378.619 196.429Z" fill="white"/>
<path d="M394.091 231.183L398.052 211.461L386.537 209.051L394.091 231.183Z" fill="white"/>
<path d="M394.092 231.183L386.118 212.715L396.88 207.964L394.092 231.183Z" fill="white"/>
<path d="M373.73 219.427L393.71 217.099L392.443 205.403L373.73 219.427Z" fill="white"/>
<path d="M373.729 219.427L388.829 206.136L396.673 214.904L373.729 219.427Z" fill="white"/>
<path d="M445.632 230.583L427.067 238.328L431.509 249.222L445.632 230.583Z" fill="white"/>
<path d="M445.633 230.583L434.781 247.52L424.824 241.255L445.633 230.583Z" fill="white"/>
<path d="M447.273 254.037L434.17 238.774L425.182 246.364L447.273 254.037Z" fill="white"/>
<path d="M447.272 254.037L427.81 248.951L430.692 237.545L447.272 254.037Z" fill="white"/>
<path d="M422.819 224.895L424.448 244.944L436.181 244.086L422.819 224.895Z" fill="white"/>
<path d="M422.819 224.895L435.574 240.449L426.538 247.982L422.819 224.895Z" fill="white"/>
<path d="M425.473 262.844L435.94 245.666L425.943 239.463L425.473 262.844Z" fill="white"/>
<path d="M425.473 262.844L424.296 242.763L436.034 241.979L425.473 262.844Z" fill="white"/>
<path d="M410.361 244.833L429.933 249.479L432.742 238.056L410.361 244.833Z" fill="white"/>
<path d="M410.361 244.833L429.096 237.509L433.468 248.43L410.361 244.833Z" fill="white"/>
<path d="M474.11 279.908L454.016 280.837L454.463 292.593L474.11 279.908Z" fill="white"/>
<path d="M474.11 279.908L458.12 292.113L450.906 282.82L474.11 279.908Z" fill="white"/>
<path d="M467.629 302.509L460.537 283.685L449.495 287.744L467.629 302.509Z" fill="white"/>
<path d="M467.629 302.509L451.081 291.073L457.69 281.341L467.629 302.509Z" fill="white"/>
<path d="M454.618 266.761L449.292 286.159L460.611 289.366L454.618 266.761Z" fill="white"/>
<path d="M454.619 266.761L461.285 285.74L450.218 289.729L454.619 266.761Z" fill="white"/>
<path d="M444.132 303.33L459.843 290.767L452.571 281.52L444.132 303.33Z" fill="white"/>
<path d="M444.132 303.33L449.895 284.057L461.193 287.335L444.132 303.33Z" fill="white"/>
<path d="M436.09 281.236L452.893 292.296L459.44 282.522L436.09 281.236Z" fill="white"/>
<path d="M436.09 281.236L456.2 280.761L456.574 292.519L436.09 281.236Z" fill="white"/>
<path d="M165.89 279.909L181.88 292.114L189.094 282.82L165.89 279.909Z" fill="white"/>
<path d="M165.891 279.909L185.985 280.837L185.538 292.593L165.891 279.909Z" fill="white"/>
<path d="M185.381 266.761L178.715 285.74L189.782 289.729L185.381 266.761Z" fill="white"/>
<path d="M185.381 266.761L190.707 286.159L179.388 289.366L185.381 266.761Z" fill="white"/>
<path d="M172.37 302.509L188.918 291.074L182.309 281.341L172.37 302.509Z" fill="white"/>
<path d="M172.371 302.509L179.463 283.686L190.505 287.744L172.371 302.509Z" fill="white"/>
<path d="M203.91 281.236L183.8 280.761L183.426 292.519L203.91 281.236Z" fill="white"/>
<path d="M203.909 281.236L187.106 292.296L180.559 282.522L203.909 281.236Z" fill="white"/>
<path d="M195.868 303.33L190.105 284.057L178.807 287.336L195.868 303.33Z" fill="white"/>
<path d="M195.867 303.33L180.156 290.768L187.428 281.52L195.867 303.33Z" fill="white"/>
<path d="M194.366 230.583L205.218 247.521L215.175 241.255L194.366 230.583Z" fill="white"/>
<path d="M194.366 230.583L212.931 238.328L208.489 249.222L194.366 230.583Z" fill="white"/>
<path d="M217.18 224.895L204.425 240.449L213.461 247.983L217.18 224.895Z" fill="white"/>
<path d="M217.181 224.895L215.552 244.945L203.819 244.087L217.181 224.895Z" fill="white"/>
<path d="M192.727 254.037L212.189 248.951L209.307 237.545L192.727 254.037Z" fill="white"/>
<path d="M192.726 254.037L205.829 238.774L214.817 246.365L192.726 254.037Z" fill="white"/>
<path d="M229.64 244.834L210.905 237.509L206.533 248.431L229.64 244.834Z" fill="white"/>
<path d="M229.639 244.834L210.067 249.48L207.258 238.056L229.639 244.834Z" fill="white"/>
<path d="M214.528 262.845L215.705 242.763L203.966 241.98L214.528 262.845Z" fill="white"/>
<path d="M214.527 262.845L204.06 245.666L214.057 239.464L214.527 262.845Z" fill="white"/>
<path d="M237.999 193.972L242.403 213.6L253.902 211.117L237.999 193.972Z" fill="white"/>
<path d="M237.999 193.972L252.795 207.6L244.896 216.317L237.999 193.972Z" fill="white"/>
<path d="M261.381 196.429L244.075 206.683L249.989 216.853L261.381 196.429Z" fill="white"/>
<path d="M261.381 196.429L252.993 214.713L242.26 209.894L261.381 196.429Z" fill="white"/>
<path d="M228.436 215.451L248.464 217.328L249.657 205.624L228.436 215.451Z" fill="white"/>
<path d="M228.437 215.451L245.97 205.59L251.82 215.797L228.437 215.451Z" fill="white"/>
<path d="M266.271 219.427L251.171 206.136L243.327 214.904L266.271 219.427Z" fill="white"/>
<path d="M266.27 219.427L246.29 217.099L247.557 205.403L266.27 219.427Z" fill="white"/>
<path d="M245.91 231.183L253.884 212.715L243.122 207.964L245.91 231.183Z" fill="white"/>
<path d="M245.91 231.183L241.95 211.461L253.465 209.051L245.91 231.183Z" fill="white"/>
<path d="M291.52 174.491L288.945 194.442L300.6 196.042L291.52 174.491Z" fill="white"/>
<path d="M291.521 174.491L300.764 192.358L290.359 197.848L291.521 174.491Z" fill="white"/>
<path d="M312.653 184.798L292.883 188.514L294.963 200.094L312.653 184.798Z" fill="white"/>
<path d="M312.652 184.798L298.516 199.11L290.079 190.911L312.652 184.798Z" fill="white"/>
<path d="M275.189 191.404L293.367 200.018L298.49 189.428L275.189 191.404Z" fill="white"/>
<path d="M275.188 191.404L295.037 188.135L297.043 199.727L275.188 191.404Z" fill="white"/>
<path d="M309.381 208.081L299.738 190.427L289.368 195.983L309.381 208.081Z" fill="white"/>
<path d="M309.381 208.081L291.402 199.059L296.592 188.502L309.381 208.081Z" fill="white"/>
<path d="M286.226 212.164L300.036 197.537L291.548 189.392L286.226 212.164Z" fill="white"/>
<path d="M286.227 212.164L289.251 192.276L300.895 193.951L286.227 212.164Z" fill="white"/>
</g>
<defs>
<clipPath id="clip0_3921_11089">
<rect width="640" height="480" fill="white"/>
</clipPath>
</defs>
</svg>
