<svg width="640" height="480" viewBox="0 0 640 480" fill="none" xmlns="http://www.w3.org/2000/svg">
<g clip-path="url(#clip0_3921_11356)">
<path d="M0 0H640V480H0V0Z" fill="white"/>
<path d="M204.3 315C204.3 315 203.8 311.4 210.5 308.9C217.1 306.3 217.7 296.7 216.3 290.3C216.3 290.3 212.9 296.3 208.6 298.4C208.6 298.4 201.8 302 201.4 308.8C201.4 308.8 201.4 311.3 200.9 313.3C200.6 314.3 197.5 304.7 203.3 297.5C209.3 290.2 210.9 284.2 206.2 272.5C206.2 272.5 205.7 279.5 201.1 283.6C196.4 287.6 195.8 288 195.9 297.6C195.9 297.6 195.9 301 194.2 302.1C194.2 302.1 190.6 296.8 189.6 293.3C188.6 289.8 188.2 288.3 192.4 284.3C192.4 284.3 205.6 275.6 196.1 256.9C196.1 256.9 195.8 263.3 191.1 267.1C186.6 271 186.9 273.5 186.7 280.1C186.5 286.8 186.1 286.3 185.6 287.3C185.6 287.3 177.1 271.7 183.6 263.5C190.1 255.3 193.8 253.5 186.6 238.1C186.6 238.1 186.9 246.1 181.1 249.9C175.4 253.9 176.7 262.9 176.7 262.9C176.7 262.9 177.1 266.4 175.9 268.9C175.9 268.9 167.8 253 175.5 244.5C182.1 237.2 182.5 232.1 179 221.9C179 221.9 178.6 226.6 175 229.2C171.3 231.8 168.4 234.3 169.1 244.2C169.1 244.2 169.4 251.2 168.5 253.2C168.5 253.2 165.1 246.8 164.1 242.7C163.1 238.5 162.8 236.1 165.3 232C167.8 227.9 177.8 216 165.9 199C165.9 199 165.6 204.5 162.5 209.5C159.5 214.5 160.9 220.4 161.5 224.9C162.1 229.4 160 233.8 160 233.8C160 233.8 154.8 224.3 156 213.4C157.066 202.333 152.566 193.533 142.5 187C142.5 187 135.2 204 145.2 212.7C145.2 212.7 153.7 221.1 155.9 231.3C155.9 231.3 149.4 230.7 143.6 219.3C137.8 207.9 125.6 209.7 124.8 209.6C124.8 209.6 126.8 227.2 145.4 232.2C145.4 232.2 157.4 234.2 159.6 243C159.6 243 161.6 249 162.4 252.2C162.4 252.2 158.6 250.7 155.1 245.5C151.6 240.5 152.1 239.8 140.3 238.6C140.3 238.6 135.6 238.1 133.1 234.7C133.1 234.7 138.1 253.3 150.8 253.2C150.8 253.2 162.4 251.9 168.8 267.2L165.9 265.2C164.2 264.1 159.9 261.9 151.4 262.9C142.9 263.9 140.5 262.5 138.4 261.9C138.4 261.9 147 277.6 159.1 272.9C171.2 268.2 177.1 285.3 177.3 285.6C177.3 285.6 175.6 284.4 173.5 282.3C171.3 280.2 166.9 277.6 158.5 280.3C158.5 280.3 152.4 282.6 146.2 280.7C146.2 280.7 152.2 292.2 166 290.2C169.634 289.461 173.414 290.094 176.609 291.978C179.804 293.861 182.187 296.862 183.3 300.4C183.3 300.4 181.5 299.4 180.3 298.4C179 297.4 174.3 294.7 164.3 297.6C154.3 300.5 150.7 297.2 150.7 297.2C150.7 297.2 156.2 307.2 166.9 308.5C166.9 308.5 172.9 308.4 175.3 307.5C177.7 306.6 184.5 305 189.1 311.7C189.1 311.7 187.8 311.9 185.9 311C185.9 311 178.9 308.5 173.4 313C173.4 313 168.6 317.9 161.8 317C161.8 317 170.6 325.5 184.6 318.3C184.6 318.3 189.3 314.9 192.8 317.5C196.3 320.2 204.3 314.9 204.3 314.9V315Z" fill="#369443" stroke="#010002" stroke-width="1.5" stroke-miterlimit="10"/>
<path d="M282.2 103.7C282.2 103.7 280.6 89.2 292.2 87.7C298.209 86.6494 304.383 87.061 310.2 88.9L315.7 99.5L313.7 106.7L306.3 110.1C306.3 110.1 307.6 99.1 297.5 98.9C294.9 98.9 293.5 99.9 289.4 99.2C285.3 98.5 283.1 103 282.2 103.7Z" fill="#F4C53D" stroke="#010002" stroke-width="1.5" stroke-miterlimit="10"/>
<path d="M363.8 139.6C362 141.8 355.1 142.6 355.1 142.6C355.1 142.6 362.2 148.1 365.3 155.9C368.3 163.6 282.9 155.9 282.9 155.9C282.9 155.9 286.7 153.3 289.2 148.3C289.2 148.3 285.4 149.7 281.6 145.9C281.6 145.9 284.4 146.9 288.1 141.3C288.1 141.3 293.6 134.3 297.5 132.3C297.5 132.3 295.7 133.5 291.4 131.1C291.4 131.1 298.8 130.1 301.4 117.6C301.4 117.6 301.9 114.8 304.7 110.6C307.5 106.6 306.9 111.5 312.1 105.2C312.1 105.2 314.5 100.8 312.4 98.2C310.4 95.4 308.1 96.4 303.8 93.8C299.4 91.2 297.5 89.8 299 85.8C300.5 81.8 304.3 82.4 304.9 82.4C305.5 82.4 305.7 78.9 310.4 76.5C315.1 74.1 327.8 75.2 329.6 76.2C331.6 77.2 339.1 79.5 343.6 90.7C348.1 101.9 342.4 106.1 354.4 123.1C354.4 123.1 349.6 124.1 346.5 123.1C346.5 123.1 352.8 134.3 363.8 139.6Z" fill="#F4C53D" stroke="#010002" stroke-width="1.5" stroke-miterlimit="10"/>
<path d="M310.999 92.2C300.999 91.7 304.899 82.4 304.899 82.4" stroke="#010002" stroke-width="1.5" stroke-miterlimit="10"/>
<path d="M327.999 93.5C327.999 93.5 326.299 92.7 324.799 90.7C322.799 88 318.099 86.7 315.699 89.3C315.699 89.3 313.199 92.1 310.899 92.3C310.899 92.3 313.499 93 315.199 94.6C316.899 96.2 318.699 97.4 321.299 97C323.899 96.6 324.299 95.3 325.499 94.5C326.699 93.7 327.999 93.5 327.999 93.5Z" fill="#F4C53D" stroke="#010002" stroke-width="1.5" stroke-miterlimit="10"/>
<path d="M202.8 336.5C202.8 336.5 202.6 330.1 210.6 329.7L234.1 362.4C234.1 362.4 233.2 364.5 222.6 364.3C222.6 364.3 221.4 364.3 220.8 365.5C219.9 367.5 202.8 336.5 202.8 336.5Z" fill="#369443" stroke="#010002" stroke-width="1.5" stroke-miterlimit="10"/>
<path d="M228.672 298.379C228.672 298.379 221.16 311.266 212.082 311.477C212.082 311.477 196.47 309.58 192.059 313.66C188.972 316.506 185.826 318.854 184.531 326.126C183.266 333.397 187.015 334.963 187.903 335.279C187.903 335.279 188.596 340.473 193.73 339.118C193.73 339.118 194.031 344.538 203.094 341.933C212.157 339.329 215.936 340.157 217.697 331.124C219.489 322.076 221.13 322.226 222.741 321.142C224.909 319.682 228.988 318.312 232.015 316.566C234.724 315 245.142 309.701 248.695 309.294C252.248 308.873 251.466 296.919 251.466 296.919H242.282L237.841 290.37L228.672 298.379ZM257.578 233.733C257.578 233.733 248.394 241.215 240.686 233.733C240.686 233.733 237.585 237.467 231.352 236.383C225.149 235.284 224.111 232.017 223.524 230.15C223.524 230.15 218.134 233.282 213.587 230.797C209.071 228.328 209.071 224.58 209.071 224.58C209.071 224.58 201.167 226.145 197.117 220.786C193.067 215.441 195.536 210.142 197.719 209.51C197.719 209.51 189.183 211.753 186.85 204.421C186.228 202.784 186.132 200.994 186.575 199.3C187.017 197.605 187.976 196.091 189.319 194.967C189.319 194.967 171.343 194.876 163.966 189.246C163.966 189.246 157.839 185.392 161.497 181.342C161.497 181.342 145.313 178.752 141.263 172.309C141.263 172.309 139.487 170.532 140.074 167.416C140.074 167.416 140.179 165.654 141.956 165.549C141.956 165.549 123.498 162.689 118.169 156.606C118.169 156.606 115.609 153.806 116.889 150.057C116.889 150.057 117.16 149.079 117.597 148.401C117.597 148.401 100.795 144.863 92.5149 137.381C92.5149 137.381 87.7274 133.121 90.1964 127.4C90.1964 127.4 62.1189 119.722 68.6226 107.346C68.6226 107.346 55.4947 103.086 59.6498 91.2376C59.6498 91.2376 48.7952 85.7275 53.5225 76.9956C58.054 68.64 71.9799 78.4559 88.4501 83.0176C88.4501 83.0176 133.073 97.0488 155.038 100.782L217.456 193.717L253.874 207.748L257.578 233.733Z" fill="#F4C53D" stroke="#010002" stroke-width="1.5055"/>
<path d="M258.015 165.293C258.015 165.293 252.158 160.897 241.725 166.061C241.725 166.061 238.217 168.485 235.447 165.835C234.847 165.262 234.381 164.563 234.083 163.788C233.785 163.013 233.662 162.182 233.724 161.354C233.786 160.526 234.031 159.722 234.441 159C234.851 158.278 235.415 157.656 236.095 157.179C243.878 151.412 246.754 134.114 234.92 126.933C234.92 126.933 217.758 116.756 154.783 100.737C154.783 100.737 149.513 99.2619 146.683 99.9695C145.314 100.319 144.064 101.032 143.068 102.034C142.071 103.036 141.364 104.289 141.022 105.66C141.022 105.66 138.192 113.685 147.677 118.276C147.677 118.276 151.952 120.234 156.363 121.498C156.363 121.498 151.516 120.444 149.438 125.232C147.481 129.809 150.341 134.491 159.224 137.502C159.224 137.502 161.633 138.435 165.05 139.263C165.05 139.263 157.447 141.446 161.106 147.588C161.106 147.588 164.358 154.032 175.86 155.176C175.86 155.176 167.278 156.11 173.33 164.269C173.33 164.269 175.995 168.741 184.381 170.397C184.381 170.397 178.028 170.608 181.219 176.313C184.441 182.034 191.984 185.256 199.421 185.783C199.421 185.783 203.44 185.994 206.256 185.361C206.256 185.361 199.18 188.899 203.335 194.816C203.335 194.816 206.391 199.031 214.039 198.821C214.039 198.821 212.067 205.445 217.667 207.944C222.033 209.901 225.662 206.77 225.662 206.77C225.662 206.77 224.186 213.861 230.554 216.36C230.554 216.36 233.731 218.001 238.473 216.36C238.473 216.36 242.087 224.474 254.974 218.769C267.861 213.093 258.015 165.308 258.015 165.308V165.293ZM258.768 238.972C258.768 238.972 256.886 249.119 241.906 261.886C241.906 261.886 230.344 272.078 230.63 283.821C230.931 295.79 228.567 297.13 224.021 301.18C224.021 301.18 233.4 301.917 237.931 295.669C237.931 295.669 237.736 306.057 236.351 307.006C236.351 307.006 239.301 307.187 243.562 302.535C243.562 302.535 246.121 299.825 248.5 298.786C248.5 298.786 245.73 305.967 247.898 312.621C247.898 312.621 248.59 310.017 252.249 308.873C252.249 308.873 258.873 307.518 261.432 297.958C261.432 297.958 263.103 291.635 273.476 286.004C273.476 286.004 285.219 281.578 284.918 275.797C284.617 270.001 258.783 238.972 258.783 238.972H258.768Z" fill="#F4C53D" stroke="#010002" stroke-width="1.5055"/>
<path d="M313.206 369.785C313.206 369.785 310.511 381.649 301.162 380.7C301.162 380.7 294.553 380.068 295.05 369.048C295.05 369.048 285.279 374.257 283.698 361.369C283.698 361.369 274.816 363.432 274.921 351.388C274.921 351.388 266.641 352.833 267.62 342.129C267.62 342.129 258.632 344.538 258.632 334.451C258.632 334.451 237.615 330.958 281.425 291.002L320.508 314.277L313.206 369.785Z" fill="#F4C53D" stroke="#010002" stroke-width="1.5055" stroke-miterlimit="10"/>
<path d="M317.557 316.506C317.557 316.506 311.038 322.287 306.401 313.645C306.401 313.645 300.078 313.344 299.1 308.557C299.1 308.557 293.966 308.045 292.972 303.152C292.972 303.152 285.972 302.429 286.168 296.513C286.168 296.513 273.431 295.519 286.168 281.096C298.904 266.673 320.508 305.034 320.508 305.034L317.557 316.506ZM324.814 312.922C331.137 312.922 338.288 352.367 336.436 376.138C335.759 384.765 331.137 391.811 324.814 391.811C318.491 391.811 313.884 384.765 313.221 376.138C311.355 352.367 318.506 312.922 324.814 312.922Z" fill="#F4C53D" stroke="#010002" stroke-width="1.5055"/>
<path d="M324.814 325.569C329.636 325.569 333.546 319.772 333.546 312.621C333.546 305.471 329.636 299.674 324.814 299.674C319.991 299.674 316.082 305.471 316.082 312.621C316.082 319.772 319.991 325.569 324.814 325.569Z" fill="#F4C53D" stroke="#010002" stroke-width="1.5055"/>
<path d="M295.049 369.048C295.049 369.048 296.043 348.166 314.139 318.222M283.698 361.369C283.698 361.369 280.883 349.31 306.401 313.645C306.401 313.645 303.435 305.139 312.513 299.674M274.921 351.388C274.921 351.388 274.123 338.335 299.099 308.557C299.099 308.557 296.886 300.878 305.934 294.736M267.619 342.129C267.619 342.129 268.553 328.941 292.972 303.152C292.972 303.152 291.767 295.263 300.499 290.37M258.646 334.451C258.646 334.451 260.408 319.381 286.167 296.513C286.167 296.513 285.279 290.581 293.86 284.559" stroke="#010002" stroke-width="1.5055" stroke-miterlimit="10"/>
<path d="M59.6494 91.2376C59.6494 91.2376 79.8683 102.95 142.889 114.663M68.6222 107.346C68.6222 107.346 123.377 125.202 148.88 127.4M90.181 127.4C90.181 127.4 122.308 137.487 159.931 143.855M117.596 148.416C117.596 148.416 153.879 157.133 171.222 158.579M141.955 165.549C141.955 165.549 172.652 171.947 180.421 172.715M161.496 181.342C161.496 181.342 183.898 184.744 192.811 184.564M189.318 194.952C189.318 194.952 198.381 194.53 202.732 193.807M197.704 209.51C197.704 209.51 205.412 207.432 209.943 204.526M209.055 224.58C209.055 224.58 214.987 222.291 217.847 216.059M223.523 230.15C223.523 230.15 228.1 226.04 228.401 221.463M240.686 233.733C240.686 233.733 238.969 232.243 240.144 225.799M238.473 216.345C238.473 216.345 237.569 214.508 237.871 211.587M206.104 124.073C206.104 124.073 216.462 128.228 219.91 133.949C223.357 139.67 221.099 145.225 219.91 148.401C219.323 150.012 212.021 164.089 220.602 174.281M206.24 185.331C206.24 185.331 206.3 185.286 209.943 184.127M184.38 170.367C184.38 170.367 190.553 171.601 196.62 171.661M175.844 155.131C175.844 155.131 183.1 155.869 189.92 155.763M165.049 139.233C165.049 139.233 175.513 141.311 181.128 141.416M156.363 121.498C156.363 121.498 169.265 125.172 178.855 126.481M200.173 134.069C200.173 134.069 190.899 142.696 202.055 150.705C202.055 150.705 197.418 157.976 206.692 165.564M204.223 169.147C204.223 169.147 202.837 183.028 219.82 183.028C219.82 183.028 216.553 195.388 232.948 194.982C232.948 194.982 234.814 204.858 246.648 202.87M220.587 311.492C220.587 311.492 217.893 312.094 212.066 311.492M195.686 318.764C195.686 318.764 187.496 317.514 187.888 335.294M200.624 322.814C200.624 322.814 193.217 321.88 193.699 339.133M272.091 281.247C272.091 281.247 268.538 281.969 266.069 284.785C263.6 287.6 258.872 287.058 258.872 287.058C258.872 287.058 261.432 284.98 262.335 279.786C263.208 274.592 266.084 273.027 266.084 273.027M257.608 268.119C257.608 268.119 254.055 268.841 251.586 271.642C249.117 274.457 244.374 273.93 244.374 273.93C244.374 273.93 246.934 271.852 247.837 266.658C248.74 261.464 251.586 259.899 251.586 259.899M255.154 288.277C255.154 288.277 252.052 288.925 249.899 291.364C247.747 293.818 243.606 293.366 243.606 293.366C243.606 293.366 245.865 291.559 246.617 287.013C247.4 282.481 249.899 281.111 249.899 281.111" stroke="#010002" stroke-width="1.5055"/>
<path d="M418.528 298.379C418.528 298.379 426.04 311.266 435.118 311.477C435.118 311.477 450.731 309.58 455.142 313.66C458.228 316.506 461.374 318.854 462.669 326.126C463.934 333.397 460.185 334.963 459.297 335.279C459.297 335.279 458.604 340.473 453.471 339.118C453.471 339.118 453.169 344.538 444.106 341.933C435.043 339.329 431.264 340.157 429.503 331.124C427.711 322.076 426.07 322.226 424.46 321.142C422.292 319.682 418.212 318.312 415.186 316.566C412.476 315 402.058 309.701 398.505 309.294C394.952 308.873 395.735 296.919 395.735 296.919H404.918L409.359 290.37L418.528 298.379ZM389.622 233.733C389.622 233.733 398.806 241.215 406.514 233.733C406.514 233.733 409.615 237.467 415.848 236.383C422.051 235.284 423.09 232.017 423.677 230.15C423.677 230.15 429.066 233.282 433.613 230.797C438.129 228.328 438.129 224.58 438.129 224.58C438.129 224.58 446.033 226.145 450.083 220.786C454.133 215.441 451.664 210.142 449.481 209.51C449.481 209.51 458.017 211.753 460.351 204.421C460.972 202.784 461.068 200.994 460.626 199.3C460.183 197.605 459.224 196.091 457.882 194.967C457.882 194.967 475.857 194.876 483.234 189.246C483.234 189.246 489.362 185.392 485.703 181.342C485.703 181.342 501.887 178.752 505.937 172.309C505.937 172.309 507.714 170.532 507.127 167.416C507.127 167.416 507.021 165.654 505.245 165.549C505.245 165.549 523.702 162.689 529.032 156.606C529.032 156.606 531.591 153.806 530.311 150.057C530.311 150.057 530.04 149.079 529.604 148.401C529.604 148.401 546.405 144.863 554.685 137.381C554.685 137.381 559.473 133.121 557.004 127.4C557.004 127.4 585.081 119.722 578.578 107.346C578.578 107.346 591.706 103.086 587.55 91.2376C587.55 91.2376 598.405 85.7275 593.678 76.9956C589.146 68.64 575.22 78.4559 558.75 83.0176C558.75 83.0176 514.127 97.0488 492.162 100.782L429.744 193.717L393.326 207.748L389.622 233.733Z" fill="#F4C53D" stroke="#010002" stroke-width="1.5055"/>
<path d="M389.185 165.293C389.185 165.293 395.042 160.897 405.475 166.061C405.475 166.061 408.983 168.485 411.753 165.835C412.354 165.262 412.82 164.563 413.118 163.788C413.415 163.013 413.538 162.182 413.476 161.354C413.414 160.526 413.169 159.722 412.759 159C412.35 158.278 411.785 157.656 411.106 157.179C403.322 151.412 400.447 134.114 412.28 126.933C412.28 126.933 429.443 116.756 492.418 100.737C492.418 100.737 497.687 99.2619 500.517 99.9695C501.887 100.319 503.136 101.032 504.132 102.034C505.129 103.036 505.836 104.289 506.178 105.66C506.178 105.66 509.008 113.685 499.524 118.276C499.524 118.276 495.248 120.234 490.837 121.498C490.837 121.498 495.685 120.444 497.762 125.232C499.719 129.809 496.859 134.491 487.976 137.502C487.976 137.502 485.568 138.435 482.15 139.263C482.15 139.263 489.753 141.446 486.094 147.588C486.094 147.588 482.843 154.032 471.341 155.176C471.341 155.176 479.922 156.11 473.87 164.269C473.87 164.269 471.205 168.741 462.819 170.397C462.819 170.397 469.173 170.608 465.981 176.313C462.759 182.034 455.217 185.256 447.78 185.783C447.78 185.783 443.76 185.994 440.945 185.361C440.945 185.361 448.02 188.899 443.865 194.816C443.865 194.816 440.809 199.031 433.161 198.821C433.161 198.821 435.133 205.445 429.533 207.944C425.167 209.901 421.539 206.77 421.539 206.77C421.539 206.77 423.014 213.861 416.646 216.36C416.646 216.36 413.469 218.001 408.727 216.36C408.727 216.36 405.114 224.474 392.227 218.769C379.339 213.093 389.185 165.308 389.185 165.308V165.293ZM388.433 238.972C388.433 238.972 390.315 249.119 405.294 261.886C405.294 261.886 416.857 272.078 416.57 283.821C416.269 295.79 418.633 297.13 423.18 301.18C423.18 301.18 413.8 301.917 409.269 295.669C409.269 295.669 409.465 306.057 410.85 307.006C410.85 307.006 407.899 307.187 403.638 302.535C403.638 302.535 401.079 299.825 398.7 298.786C398.7 298.786 401.47 305.967 399.302 312.621C399.302 312.621 398.61 310.017 394.952 308.873C394.952 308.873 388.327 307.518 385.768 297.958C385.768 297.958 384.097 291.635 373.724 286.004C373.724 286.004 361.981 281.578 362.282 275.797C362.583 270.001 388.418 238.972 388.418 238.972H388.433Z" fill="#F4C53D" stroke="#010002" stroke-width="1.5055"/>
<path d="M333.994 369.785C333.994 369.785 336.689 381.649 346.038 380.7C346.038 380.7 352.647 380.068 352.15 369.048C352.15 369.048 361.921 374.257 363.502 361.369C363.502 361.369 372.384 363.432 372.279 351.388C372.279 351.388 380.559 352.833 379.581 342.129C379.581 342.129 388.568 344.538 388.568 334.451C388.568 334.451 409.585 330.958 365.775 291.002L326.692 314.277L333.994 369.785Z" fill="#F4C53D" stroke="#010002" stroke-width="1.5055" stroke-miterlimit="10"/>
<path d="M329.643 316.506C329.643 316.506 336.162 322.287 340.799 313.645C340.799 313.645 347.122 313.344 348.1 308.557C348.1 308.557 353.234 308.045 354.228 303.152C354.228 303.152 361.228 302.429 361.033 296.513C361.033 296.513 373.769 295.519 361.033 281.096C348.296 266.673 326.692 305.034 326.692 305.034L329.643 316.506ZM322.386 312.922C316.063 312.922 308.912 352.367 310.764 376.138C311.442 384.765 316.063 391.811 322.386 391.811C328.71 391.811 333.316 384.765 333.979 376.138C335.846 352.367 328.695 312.922 322.386 312.922Z" fill="#F4C53D" stroke="#010002" stroke-width="1.5055"/>
<path d="M322.386 325.569C317.564 325.569 313.654 319.772 313.654 312.621C313.654 305.471 317.564 299.674 322.386 299.674C327.209 299.674 331.118 305.471 331.118 312.621C331.118 319.772 327.209 325.569 322.386 325.569Z" fill="#F4C53D" stroke="#010002" stroke-width="1.5055"/>
<path d="M352.151 369.048C352.151 369.048 351.157 348.166 333.061 318.222M363.502 361.369C363.502 361.369 366.317 349.31 340.799 313.645C340.799 313.645 343.765 305.139 334.687 299.674M372.279 351.388C372.279 351.388 373.077 338.335 348.101 308.557C348.101 308.557 350.314 300.878 341.266 294.736M379.581 342.129C379.581 342.129 378.648 328.941 354.228 303.152C354.228 303.152 355.433 295.263 346.701 290.37M388.554 334.451C388.554 334.451 386.792 319.381 361.033 296.513C361.033 296.513 361.921 290.581 353.34 284.559" stroke="#010002" stroke-width="1.5055" stroke-miterlimit="10"/>
<path d="M587.551 91.2376C587.551 91.2376 567.332 102.95 504.312 114.663M578.578 107.346C578.578 107.346 523.823 125.202 498.32 127.4M557.019 127.4C557.019 127.4 524.892 137.487 487.269 143.855M529.604 148.416C529.604 148.416 493.322 157.133 475.978 158.579M505.245 165.549C505.245 165.549 474.548 171.947 466.78 172.715M485.704 181.342C485.704 181.342 463.302 184.744 454.389 184.564M457.882 194.952C457.882 194.952 448.819 194.53 444.468 193.807M449.496 209.51C449.496 209.51 441.788 207.432 437.257 204.526M438.145 224.58C438.145 224.58 432.213 222.291 429.353 216.059M423.677 230.15C423.677 230.15 419.1 226.04 418.799 221.463M406.514 233.733C406.514 233.733 408.231 232.243 407.056 225.799M408.727 216.345C408.727 216.345 409.631 214.508 409.33 211.587M441.096 124.073C441.096 124.073 430.738 128.228 427.29 133.949C423.843 139.67 426.101 145.225 427.29 148.401C427.877 150.012 435.179 164.089 426.598 174.281M440.96 185.331C440.96 185.331 440.9 185.286 437.257 184.127M462.82 170.367C462.82 170.367 456.648 171.601 450.58 171.661M471.356 155.131C471.356 155.131 464.1 155.869 457.28 155.763M482.151 139.233C482.151 139.233 471.688 141.311 466.072 141.416M490.837 121.498C490.837 121.498 477.935 125.172 468.345 126.481M447.027 134.069C447.027 134.069 456.301 142.696 445.146 150.705C445.146 150.705 449.782 157.976 440.509 165.564M442.978 169.147C442.978 169.147 444.363 183.028 427.381 183.028C427.381 183.028 430.648 195.388 414.253 194.982C414.253 194.982 412.386 204.858 400.553 202.87M426.613 311.492C426.613 311.492 429.308 312.094 435.134 311.492M451.514 318.764C451.514 318.764 459.704 317.514 459.312 335.294M446.576 322.814C446.576 322.814 453.983 321.88 453.501 339.133M375.11 281.247C375.11 281.247 378.663 281.969 381.132 284.785C383.601 287.6 388.328 287.058 388.328 287.058C388.328 287.058 385.769 284.98 384.865 279.786C383.992 274.592 381.117 273.027 381.117 273.027M389.593 268.119C389.593 268.119 393.146 268.841 395.615 271.642C398.084 274.457 402.826 273.93 402.826 273.93C402.826 273.93 400.267 271.852 399.363 266.658C398.46 261.464 395.615 259.899 395.615 259.899M392.047 288.277C392.047 288.277 395.148 288.925 397.301 291.364C399.454 293.818 403.594 293.366 403.594 293.366C403.594 293.366 401.336 291.559 400.583 287.013C399.8 282.481 397.301 281.111 397.301 281.111" stroke="#010002" stroke-width="1.5055"/>
<path d="M466 256L451.7 317.7L445.8 313.5L459.8 254.3L450 254.5L473.1 212.2L474.6 260.9L466 256ZM503 269L460 319.8L455.4 314.6L498.2 264.4L489.5 259.8L528.7 233.8L508.4 277.6L503 269Z" fill="#0081C6" stroke="#010002" stroke-width="1.5" stroke-miterlimit="10"/>
<path d="M492.6 242L454.1 316L448.2 312.5L486.9 238.7L477.5 236.3L510.2 201.7L499.7 249.2L492.6 242ZM444.6 338.6L441.7 350.3L449.7 358.3L438.5 405.3L428.5 392L413.9 398.8L425 351.8L435.4 348.8L438 337.1C438 337.1 441.2 335.9 444.6 338.6Z" fill="#0081C6" stroke="#010002" stroke-width="1.5" stroke-miterlimit="10"/>
<path d="M447.3 330.8L441.6 341.4L447.3 351.1L424.9 393.6L418.6 378L402.7 380.6L425.1 338.2H435.8L441.3 327.6C441.3 327.6 445.3 327.6 447.3 330.8Z" fill="#0081C6" stroke="#010002" stroke-width="1.5" stroke-miterlimit="10"/>
<path d="M448.2 333.9L433.2 353.1L436.6 363.9L405.7 399.9L402.9 383.3L386.9 382.1L417.7 346.1L428.1 348.6L444.1 328.2C444.1 328.2 448.5 330.4 448.2 333.9ZM65.5004 288.9C69.1004 287.4 71.7004 286 71.7004 282.2C71.7004 281.2 71.2004 279.167 70.2004 276.1L46.0004 202C45.1905 199.298 44.1879 196.658 43.0004 194.1C41.9004 192.1 39.8004 191.2 36.9004 190.1H67.6004C64.3004 191.6 61.2004 192.8 61.3004 196.4C61.3004 197.733 61.6671 199.633 62.4004 202.1L81.0004 260.1L99.5004 202.1C100.142 200.264 100.513 198.343 100.6 196.4C100.6 192.7 97.4004 191.4 94.3004 190H124.1C121.4 191.1 119.1 192 118.1 194.1C116.886 196.693 115.851 199.366 115 202.1L90.8004 276C90.1329 277.988 89.6312 280.029 89.3004 282.1C89.3004 282.1 88.2004 286.8 95.5004 288.8L65.5004 288.9ZM580.8 281.3V197.6C580.8 196.2 580.534 195.1 580 194.3C579.2 193.1 577.5 191.3 574.5 190.1H602.2C599.994 190.93 598.081 192.39 596.7 194.3C596.234 195.1 596 196.2 596 197.6V281.3C596 282.767 596.234 283.9 596.7 284.7C597.2 285.5 599.2 287.5 602.2 288.9H574.5C577.5 287.5 579.5 285.5 580 284.7C580.534 283.9 580.8 282.767 580.8 281.3Z" fill="#0081C6" stroke="#010002" stroke-width="1.5" stroke-miterlimit="10"/>
<path d="M324.8 309.8C324.8 309.8 399 276.9 399.1 201H250.5C250.7 277 324.8 309.8 324.8 309.8Z" fill="white" stroke="#010002" stroke-width="1.5"/>
<path d="M262 201V249.5C262 249.5 267.6 260.8 273.4 267.8V201H262ZM284.8 201V281C284.8 281 292 288 296.2 291.4V201H284.8ZM307.7 201V299.9C307.7 299.9 315.8 305.1 319.1 306.9V200.9H307.7V201ZM387.7 201V249.5C387.7 249.5 382 260.8 376.2 267.8V201H387.7ZM364.8 201V281C364.8 281 357.7 288 353.4 291.4V201H364.8ZM342 201V299.9C342 299.9 333.8 305.1 330.5 306.9V200.9H342V201Z" fill="#A60032" stroke="#010002" stroke-width="1.5"/>
<path d="M399.1 145.8C399.1 145.8 362.7 164.8 324.8 144.2C286.9 164.8 250.5 145.8 250.5 145.8V201H399.1V145.8Z" fill="#162667" stroke="#010002" stroke-width="1.5" stroke-miterlimit="10"/>
</g>
<defs>
<clipPath id="clip0_3921_11356">
<rect width="640" height="480" fill="white"/>
</clipPath>
</defs>
</svg>
