<svg width="640" height="480" viewBox="0 0 640 480" fill="none" xmlns="http://www.w3.org/2000/svg">
<g clip-path="url(#clip0_3921_11416)">
<path fill-rule="evenodd" clip-rule="evenodd" d="M0 0H640V480H0V0Z" fill="#CE1126"/>
<path fill-rule="evenodd" clip-rule="evenodd" d="M0 0H320V240H0V0Z" fill="#002B7F"/>
<path fill-rule="evenodd" clip-rule="evenodd" d="M180.001 229.3L159.301 215.3L139.401 229.4L145.901 204.5L126.901 189.3L151.401 187.8L159.501 164.2L168.301 188.2L192.301 188.9L173.301 205.2L180.001 229.3ZM176.401 63.7L159.801 53L143.801 63.4L148.201 43.4L133.601 30.7L153.001 29.1L160.201 10.5L167.601 29.2L186.701 30.9L172.001 44.3L176.401 63.7ZM103.401 123.2L87.4008 112.2L70.7008 123.2L75.9008 103.8L60.8008 91L80.0008 90L87.0008 71L93.8008 89.9L113.401 91L98.4008 103.5L103.401 123.2ZM250.001 110L234.601 100L219.601 110L224.001 91.7L210.001 79.9L228.301 78.4L234.601 61.2L241.601 78.6L259.301 79.6L245.601 91.9L250.001 110ZM206.901 153.4L196.601 147L186.301 153.6L189.001 141.3L179.801 133L191.801 132L196.401 120.4L201.301 132L213.201 133L204.101 141.3L206.901 153.4Z" fill="white"/>
</g>
<defs>
<clipPath id="clip0_3921_11416">
<rect width="640" height="480" fill="white"/>
</clipPath>
</defs>
</svg>
