<svg width="640" height="480" viewBox="0 0 640 480" fill="none" xmlns="http://www.w3.org/2000/svg">
<g clip-path="url(#clip0_3921_11449)">
<mask id="mask0_3921_11449" style="mask-type:luminance" maskUnits="userSpaceOnUse" x="-1" y="0" width="641" height="480">
<path d="M-0.03125 0H640V480H-0.03125V0Z" fill="white"/>
</mask>
<g mask="url(#mask0_3921_11449)">
<path fill-rule="evenodd" clip-rule="evenodd" d="M-80 0H640V480H-80V0Z" fill="#198A00"/>
<path fill-rule="evenodd" clip-rule="evenodd" d="M555.531 172.5H640V480H555.531V172.5Z" fill="#EF7D00"/>
<path fill-rule="evenodd" clip-rule="evenodd" d="M471.156 172.312H555.531V479.812H471.156V172.312Z" fill="#000001"/>
<path fill-rule="evenodd" clip-rule="evenodd" d="M385 172.5H471.156V480H384.906L385 172.5Z" fill="#DE2010"/>
<path fill-rule="evenodd" clip-rule="evenodd" d="M583.375 61.5C583.375 61.5 615.25 47.9062 618.25 45.0938C619.656 46.7812 605.5 63.8438 578.031 70.125C602.969 64.3125 624.25 45.75 628.656 46.3125C629.875 46.5938 629.594 64.4062 572.406 79.875C611.969 69.5625 634.938 50.4375 634.656 52.5C634.938 52.9688 630.719 67.5 596.125 78.8438C605.781 76.5938 632.031 60.6563 631.75 63.75C632.594 64.9688 606.438 98.625 559 87.6562C596.875 97.5 621.344 73.7812 624.812 74.25C625.562 74.3437 617.875 94.875 570.25 96.1875C593.031 93.8438 586.469 96.0938 586.469 96.0938C586.469 96.0938 573.063 106.594 556.75 99.4688C569.5 102.938 570.906 103.125 571.188 104.156C570.344 105.656 559.938 107.719 549.719 102.281C557.875 105.656 565.188 106.219 565.281 107.438C565.188 107.812 560.031 110.812 555.344 108.656C550.656 106.5 508.188 80.4375 508.188 80.4375L580.75 60.4688L583.375 61.4063V61.5ZM498.063 132.375C491.688 132.375 491.5 138 491.5 138C491.5 138 491.031 138.469 491.313 141.188L492.906 138.75C493.656 138.844 496.563 139.688 501.156 136.125C496.938 140.531 499.469 142.125 499.469 142.125C499.469 142.125 498.531 145.594 501.719 146.25C500.781 144.844 501.344 143.625 501.344 143.625C501.344 143.625 505.844 143.156 505.563 137.719C505.656 142.687 508.375 143.906 508.375 143.906C508.375 143.906 508.375 146.625 511.281 146.906C509.781 145.5 510.063 143.344 510.063 143.344C510.063 143.344 513.813 140.531 510.719 135.844C512.594 134.719 514.188 131.625 514.188 131.625C514.188 131.625 511.563 130.5 510.344 129.562C509.781 128.344 510.344 121.594 510.344 121.594L508.656 112.875L504.156 126.469C504.344 124.594 504.438 132.375 498.063 132.375Z" fill="#EF7D00" stroke="black" stroke-width="0.9375" stroke-linejoin="round"/>
<path fill-rule="evenodd" clip-rule="evenodd" d="M529.563 112.781C529.75 112.875 534.344 118.031 538.844 117.75C540.531 116.344 535.375 113.344 535.375 112.594C537.25 114.281 544.844 120.844 549.812 118.5C551.687 115.688 546.25 116.156 540.25 108.563C544.469 111.375 554.969 117.469 559.938 115.125C561.906 112.875 548.969 105.844 544.563 100.406L533.313 94.6875L518.125 107.156L529.656 112.781H529.563Z" fill="#EF7D00" stroke="black" stroke-width="0.9375" stroke-linejoin="round"/>
<path fill-rule="evenodd" clip-rule="evenodd" d="M512.406 70.125C512.406 70.125 517.563 67.125 538.281 68.625C540.531 68.9062 552.344 64.5938 556.188 63.2813C562.188 62.1563 581.5 58.0313 586.563 54.0938C590.313 53.625 585.625 60.75 580.938 62.5312C576.063 64.6875 558.344 70.875 551.969 70.0312C559.563 70.125 555.344 76.3125 542.781 73.4063C548.781 76.7813 546.531 77.3438 546.531 77.3438C546.531 77.3438 535.938 77.9063 533.125 75.4688C540.25 78.1875 537.25 79.2188 537.25 79.2188C537.25 79.2188 530.031 79.875 526.656 78.2813C531.813 79.875 529.187 80.8125 529.187 80.8125C529.187 80.8125 524.969 81.5625 521.5 80.25C517.938 79.0313 512.688 70.2188 512.406 70.2188V70.125Z" fill="#EF7D00" stroke="black" stroke-width="0.9375" stroke-linecap="round" stroke-linejoin="round"/>
<path fill-rule="evenodd" clip-rule="evenodd" d="M520.656 115.688L521.406 129.375L520.656 130.5C520.375 130.875 511 129 512.219 136.125C512.219 139.125 512.219 139.875 514.281 141.469C513.812 139.594 513.906 138.187 513.906 138.187C513.906 138.187 516.625 139.781 519.156 135.375C517.375 139.687 518.594 141.281 519.062 141.375C519.437 142.125 518.312 145.594 521.875 145.5C520.469 144.187 521.125 142.313 521.125 142.313C521.125 142.313 524.875 141.75 523.562 135.094C524.875 133.781 525.437 135.094 525.437 135.094C525.437 135.094 525.812 139.031 529.094 138.187C530.5 139.031 528.812 141.188 528.812 141.188C528.812 141.188 531.156 141.188 531.906 139.313C532.562 137.25 533.406 133.687 529.562 132.187C529.094 130.781 531.062 130.687 531.062 130.687C531.062 130.687 533.5 131.531 534.25 132.75C535 133.969 534.719 129.563 531.625 129C527.875 129 527.687 128.156 527.687 128.063L526.75 115.219L520.656 115.688Z" fill="#EF7D00" stroke="black" stroke-width="0.9375" stroke-linejoin="round"/>
<path fill-rule="evenodd" clip-rule="evenodd" d="M533.687 127.313C533.687 126.656 527.312 118.031 529 117C530.593 117.281 533.218 121.219 535.468 119.906C534.812 118.406 532.843 119.25 530.687 115.313C528.437 110.813 528.156 104.156 520.375 96.9375C525.437 104.625 536.687 109.125 537.25 106.875C537.812 104.625 527.218 96.1875 527.781 94.125C529.843 98.25 540.343 107.625 548.031 106.875C548.593 105 541.75 101.438 539.968 98.0625C535 94.6875 521.781 83.3438 521.593 80.7188C519.275 76.7589 516.105 73.3645 512.312 70.7813L511.562 69.1875C508.562 62.1563 512.5 59.8125 514.843 59.5313C516.718 59.25 517.281 59.5312 518.593 58.875L513.812 57C515.968 58.5938 521.312 57.1875 520.187 61.6875C522.531 60.75 527.593 54.75 514.468 53.4375C510.156 48.5625 492.625 45.75 488.218 67.125C488.593 67.4062 488.781 67.6875 489.906 68.4375C484.281 65.8125 469.375 63.75 464.031 62.8125C449.406 58.6875 434.312 48.5625 432.906 49.7812C431.031 50.7187 441.718 60.6563 441.156 60.8438C432.818 56.0957 424.209 51.8385 415.375 48.0937C409.75 46.0312 404.218 41.1563 403.656 42.0938C401.593 46.3125 412.562 57 414.625 58.2188C416.687 59.4375 432.718 66.9375 432.437 67.0313C408.25 56.0625 404.312 54 403 52.7812C400.843 52.3125 395.687 45.2812 394.281 45.75C393.437 46.5 395.031 57.5625 406.562 62.625C408.437 63.9375 431.312 72.0937 431.125 72.75C431.125 72.9375 404.875 61.9688 403.937 61.5C398.875 59.625 392.687 52.6875 391.562 53.4375C390.437 54.1875 394.375 61.6875 399.437 64.0313C402.156 65.1563 412.375 70.2188 421.562 73.4063C422.125 73.6875 404.968 66.9375 396.718 63.5625C392.968 61.5 391.281 58.875 390.718 59.4375C389.781 60 392.031 71.0625 418.562 77.25C419.218 77.625 427.937 75.2812 427.468 75.5625C422.599 76.7874 417.649 77.6646 412.656 78.1875C412.375 78.9375 414.343 82.875 428.031 82.125C429.718 82.0312 439.281 78.6562 438.437 79.3125C433.883 81.0503 429.253 82.5831 424.562 83.9062C423.718 83.9062 419.312 84.4688 419.125 84.8438C418.937 85.5938 422.406 88.4062 429.718 88.7812C436.281 89.1562 448.656 84.8438 448.468 85.125C448.093 85.4063 436.468 89.4375 436.187 89.625C435.718 89.9062 431.5 90.0938 431.312 90.4688C430.937 91.3125 437.5 97.4063 456.718 90.8438C454.843 93.4688 445.468 95.25 445.468 95.7188C445.468 96.1875 447.531 98.0625 450.812 98.8125C452.406 99.1875 454.656 99.0938 456.718 98.8125C460.468 98.0625 464.218 96.6562 469.187 92.0625C469.75 93.4688 456.906 100.031 457.468 100.594C460.281 103.219 469.562 100.312 470.125 99.9375C470.781 99.6562 487.937 89.9062 487.937 88.6875C488.218 90.1875 465.718 102.469 466 102.938C467.406 105.188 475.093 102.844 475.375 102.563L485.5 97.125C485.781 97.0312 474.437 103.688 475.375 104.813C474.906 109.219 493.187 101.812 494.593 100.875C495.25 100.406 485.781 105 485.781 107.156C488.875 112.313 498.625 110.719 500.125 109.594C500.875 109.031 499.187 113.344 499.75 112.969C500.902 111.789 501.853 110.427 502.562 108.938C502.375 110.438 501.25 112.688 500.687 115.313C500.125 117.938 499.843 120.844 499 123.938C498.812 125.25 505 121.219 504.062 111.563C504.625 116.625 502.187 126 502.843 126.563C504.062 127.5 507.718 121.875 508.093 118.031C509.125 119.906 511.375 123.938 513.343 124.875C513.156 121.969 513.343 122.063 512.406 119.25C512.906 115.313 513.156 110.281 513.156 104.156C518.406 114.188 520.562 118.5 519.062 126.188C520.656 126.844 523.093 120.75 522.906 117.75C523.453 120.283 524.793 122.576 526.732 124.295C528.67 126.015 531.107 127.072 533.687 127.313Z" fill="#EF7D00" stroke="black" stroke-width="1.03125" stroke-linecap="round" stroke-linejoin="round"/>
<path fill-rule="evenodd" clip-rule="evenodd" d="M446.313 63.4688C446.313 63.4688 442.656 66.1875 438.25 66C439.375 70.5 448.563 67.0313 448.563 67.0313C448.563 67.0313 444.156 72 440.969 72.75C442.844 74.3438 450.906 73.7813 452.219 73.0313C453.531 72.2813 455.969 69.0938 455.969 69.0938C455.969 69.0938 447.719 78.6563 446.594 78.5625C446.313 79.6875 455.125 79.3125 456.906 77.625C458.688 75.9375 463.469 73.5 463.469 73.5C463.469 73.5 451.281 81.9375 450.813 81.9375C455.313 83.0625 464.406 80.4375 470.219 76.875C461.594 82.5938 460.844 83.625 456.438 85.5938C460.375 86.4375 462.344 89.0625 475.469 83.3438C482.969 79.7813 487.281 73.2188 487.281 73.2188C481.553 79.9677 474.702 85.6766 467.031 90.0938C466.563 91.0313 475.844 94.9688 487.563 82.6875" fill="#EF7D00"/>
<path d="M446.313 63.4688C446.313 63.4688 442.656 66.1875 438.25 66C439.375 70.5 448.563 67.0313 448.563 67.0313C448.563 67.0313 444.156 72 440.969 72.75C442.844 74.3438 450.906 73.7813 452.219 73.0313C453.531 72.2813 455.969 69.0938 455.969 69.0938C455.969 69.0938 447.719 78.6563 446.594 78.5625C446.313 79.6875 455.125 79.3125 456.906 77.625C458.688 75.9375 463.469 73.5 463.469 73.5C463.469 73.5 451.281 81.9375 450.813 81.9375C455.313 83.0625 464.406 80.4375 470.219 76.875C461.594 82.5938 460.844 83.625 456.438 85.5938C460.375 86.4375 462.344 89.0625 475.469 83.3438C482.969 79.7813 487.281 73.2188 487.281 73.2188C481.553 79.9677 474.702 85.6766 467.031 90.0938C466.563 91.0313 475.844 94.9688 487.563 82.6875" stroke="black" stroke-width="1.03125" stroke-linecap="round" stroke-linejoin="round"/>
<path fill-rule="evenodd" clip-rule="evenodd" d="M510.063 90C510.063 90 510.906 93.75 514.094 96.5625C517.281 99.375 517.469 102.188 517.469 102.188M508.563 65.625C508.563 65.625 509.594 69.0938 512.875 71.25C516.25 73.3125 521.313 80.0625 521.594 81.2812C521.969 82.6875 523.938 93.0938 523.75 94.2188M488.313 70.7812C488.5 72.1875 483.625 78.5625 490.375 86.1563C484.188 93.6563 484.188 94.5938 484.188 94.5938C484.188 94.5938 487.656 96.4688 493.75 91.2188C503.875 103.594 500.5 109.219 500.5 109.219" fill="#EF7D00"/>
<path d="M510.063 90C510.063 90 510.906 93.75 514.094 96.5625C517.281 99.375 517.469 102.188 517.469 102.188M508.563 65.625C508.563 65.625 509.594 69.0938 512.875 71.25C516.25 73.3125 521.313 80.0625 521.594 81.2812C521.969 82.6875 523.938 93.0937 523.75 94.2188M488.313 70.7812C488.5 72.1875 483.625 78.5625 490.375 86.1563C484.188 93.6563 484.188 94.5938 484.188 94.5938C484.188 94.5938 487.656 96.4688 493.75 91.2188C503.875 103.594 500.5 109.219 500.5 109.219" stroke="black" stroke-width="1.03125" stroke-linecap="round"/>
<path fill-rule="evenodd" clip-rule="evenodd" d="M499.656 100.5C499.656 100.5 498.719 99.1875 500.406 94.2188C501.906 96.0938 503.594 96.375 504.25 97.0312C505 97.875 512.687 98.9062 513.062 104.062" fill="#EF7D00"/>
<path d="M499.656 100.5C499.656 100.5 498.719 99.1875 500.406 94.2188C501.906 96.0938 503.594 96.375 504.25 97.0312C505 97.875 512.687 98.9062 513.062 104.062" stroke="black" stroke-width="1.03125" stroke-linecap="round" stroke-linejoin="round"/>
<path fill-rule="evenodd" clip-rule="evenodd" d="M508.656 53.9062C508.656 53.5312 507.062 50.1563 501.344 54.2813C504.438 54.4688 507.437 56.25 508.656 53.9062Z" fill="#EF7D00" stroke="black" stroke-width="1.03125"/>
<path fill-rule="evenodd" clip-rule="evenodd" d="M563.219 68.9062C563.5 69.0938 580.281 72.6562 585.906 70.875C578.781 80.4375 564.438 73.9688 564.438 73.9688C571.469 76.0313 571.75 75.8437 574 77.9062C574.75 79.7812 561.063 78.8438 556.656 76.3125C569.125 80.25 569.406 80.0625 569.781 81.4688C570.344 83.625 549.344 80.9063 547.563 78.1875C553.188 82.5 556.188 83.3438 559.281 85.3125C555.531 87 548.5 88.6875 535.656 79.5938C552.531 94.9688 567.813 94.0312 570.25 96.75C564.344 105.469 541.469 91.5937 530.969 84.5625C520.469 77.5312 553.938 101.531 557.031 101.156C555.531 103.5 544.469 101.438 543.719 100.219" fill="#EF7D00"/>
<path d="M563.219 68.9062C563.5 69.0938 580.281 72.6562 585.906 70.875C578.781 80.4375 564.438 73.9688 564.438 73.9688C571.469 76.0313 571.75 75.8437 574 77.9062C574.75 79.7812 561.063 78.8438 556.656 76.3125C569.125 80.25 569.406 80.0625 569.781 81.4688C570.344 83.625 549.344 80.9063 547.563 78.1875C553.188 82.5 556.188 83.3438 559.281 85.3125C555.531 87 548.5 88.6875 535.656 79.5938C552.531 94.9688 567.813 94.0312 570.25 96.75C564.344 105.469 541.469 91.5937 530.969 84.5625C520.469 77.5312 553.938 101.531 557.031 101.156C555.531 103.5 544.469 101.438 543.719 100.219" stroke="black" stroke-width="1.03125" stroke-linejoin="round"/>
<path fill-rule="evenodd" clip-rule="evenodd" d="M567.531 85.0312C565.656 85.3125 559.75 85.3125 558.906 85.125L567.531 85.0312Z" fill="#EF7D00"/>
<path d="M567.531 85.0312C565.656 85.3125 559.75 85.3125 558.906 85.125" stroke="black" stroke-width="1.03125" stroke-linecap="round"/>
<path fill-rule="evenodd" clip-rule="evenodd" d="M441.344 60.9375C441.344 60.9375 454.094 67.6875 459.531 67.2187C458.494 68.0943 457.278 68.7341 455.969 69.0937C457.281 69.6562 461.031 71.625 466.656 70.4062L463.562 73.2187C463.562 73.2187 468.437 75.0937 473.875 72.2812L471.25 75.75L475.094 76.0312" fill="#EF7D00"/>
<path d="M441.344 60.9375C441.344 60.9375 454.094 67.6875 459.531 67.2187C458.494 68.0943 457.278 68.7341 455.969 69.0937C457.281 69.6562 461.031 71.625 466.656 70.4062L463.562 73.2187C463.562 73.2187 468.437 75.0937 473.875 72.2812L471.25 75.75L475.094 76.0312" stroke="black" stroke-width="1.03125" stroke-linecap="round" stroke-linejoin="round"/>
</g>
</g>
<defs>
<clipPath id="clip0_3921_11449">
<rect width="640" height="480" fill="white"/>
</clipPath>
</defs>
</svg>
